<svg viewBox="0 0 560 1e3"><path id="path7250" class="skin" d="m225.8 413.1s-22.14852 39.87228-23.29497 68.51492C198.70503 541.91492 215 608.9 237.1 664.9c7.5 61.7 14.8 123 17.3 185.1l11.5-.3c2.3-52.9 39.2-99.2 20.2-160.8 13.6-57.7 6.2-71.9 1-161-5.4 94.3 4.4 110.4 14.2 154.8-15.6 58 17.8 109.6 18.6 167.8h16.3c.2-58.5 16.4-95.2 8.5-169.5 23.8-69.9 44.2747-144.9934 39.4747-208.3934-3.35528-37.31145-32.71901-66.98036-40.61356-74.13075L225.8 413.1"/><path id="path7252" class="shadow" d="M289.6 630.9C279.8 590.6 268.8 530 272.8 483.8c-.8 44.7 7.6 106.4 16.8 147.1z"/><path d="m226.3 412.5c27.9-30 93.7-36.4 123.8-1.4 18.2 21.2 25.4 60.2 7 78.9-8.2 8.3-22.1 13.3-35 11-24.2-4.4-25.9-31.9-47.3-34.5C256.7 464.3 248.5 483 231 478 220.9 475.1 221.28701 468.07973 218.48701 460.07973 216.5943 437.63189 223.7 415.2 226.3 412.5z" class="skin" id="Stump_Normal-3"/><path d="m226.3 412.5c20-34.8 104.4-37.1 124-1.5 11.9 21.7 1.4 60.5-22.3 72-.8.4-20.2 9.5-34 1-9.5-5.8-10.3-16.2-19.3-17.5-6.4-1-8.4 3.9-17.8 5.5-9.2 1.5-18.7-1.3-24-5-14.1-9.8-16-38.2-6.6-54.5z" class="skin" id="Stump_Narrow-10"/></svg>