<svg viewBox="0 0 560 1e3"><path d="m267.23463 450.73798 3.11592-.15136c.93021-6.40662 3.95894-11.50631 6.66908-16.80443-5.58516-.0849-11.59094-.67726-16.5428.002 1.54591 5.70209 4.03226 11.33653 6.7578 16.95379z" id="path5158-8" class="pubic_hair"/><path d="m363.96648 268.10163c3.47711-4.86808 5.51409-20.47518 3.32753-24.2077-2.60035.69044-1.97503 1.38571-4.4446-.21104.83858 8.14327 2.00713 17.8126 1.11707 24.41874z" id="path5158-3-2" class="underarm_hair"/><path style="display:inline;fill-opacity:1;fill:#000;opacity:1" d="m236.52804 276.67565c-1.3755 20.25213.78938 43.70065.78938 43.70065-17.85563 50.08386-21.01839 71.13673-12.47275 93.00018 16.36196-.34408 104.86205 3.75956 137.83667 3.74496 21.6612-15.35319-1.74738-59.08875-5.67072-68.59965.3856-5.0601 9.34992-20.31102 14.62651-63.49742-20.00731-23.65544-42.21969-61.65724-42.26611-80.02948-5.0856-1.53654-9.2662-4.20037-11.97165-6.99799-.44453 1.7818-1.99968 15.88708-2.14306 17.33056-12.09829 5.75915-27.87745 3.2969-33.51216-1.00011.88357-3.08367.12976-7.88401 3.51875-14.42259-2.95309 1.88608-5.93497 4.18624-9.90394 6.09612-36.32 18.26276-38.69495 47.01317-38.83092 70.67477z" id="path6926-8-8"/><path id="path6928-6-1" d="m355.67438 348.67855s26.32721 48.60531 7.62986 68.85484c-40.10653 11.44456-76.22545 38.21388-76.99712 40.55165-.78385 1.88787-4.7912 9.82211-7.2881 11.60252-1.21712.86786-4.56426-.37235-4.8162-.39645-.29397-.0276-.77535.50225-2.98817-.0701-5.65546-1.4629-10.22974-5.40448-10.80185-7.35518-18.43111-29.49711-30.68812-46.0732-35.41353-47.26215-11.77915-39.30733 13.85882-87.30763 13.35514-93.87901-8.79498-66.32709 3.62343-109.13118 38.58171-114.74357.49229-.51848 2.68756-2.31919 7.16452-4.72153 1.01736-.38611 4.59904-8.26172 5.00699-8.02432 6.65758 3.87428 26.54635-.85503 26.87567-.1563.97035 2.05878 1.71969 4.49501 2.863 6.22886 1.48672 1.12706 17.16932 6.88046 17.7012 8.22282.0.0 24.76225-4.8947 34.24132 27.54218 6.83766 34.59578-4.40866 80.90142-15.11444 113.60574z" style="display:inline;fill-opacity:1;fill-rule:evenodd;fill:#0b1728;opacity:1;stroke-dasharray:none;stroke-linecap:butt;stroke-linejoin:miter;stroke-miterlimit:4;stroke-opacity:1;stroke-width:0;stroke:#000"/><path id="path6930-5-0" d="m223.46081 414.21749c-.42263 12.80142 31.84447 58.44933 51.86626 56.74714 13.4605-1.86072 24.20778-26.48734 86.53835-51.73016-5.52595-11.9083-20.07615-23.00694-26.61235-34.33133-45.102 11.9464-91.4758 3.33435-104.81614-.31943.0.0-1.84313 17.91613-6.97612 29.63378z" style="display:inline;fill-opacity:1;fill:#0b1728;stroke-dasharray:none;stroke-linecap:butt;stroke-linejoin:miter;stroke-miterlimit:4;stroke-opacity:1;stroke-width:0;stroke:#000"/><path id="path6932-2-2" d="m257.42933 436.58157c.5575-1.06599 6.5423-47.48865 6.58488-47.65285.0.0-35.0863-13.57237-41.61384-17.98725-2.89865 7.30555-9.74276 49.00499-9.67614 49.08487.063.19141 44.7051 16.55523 44.7051 16.55523z" style="display:inline;fill-opacity:1;fill:#000;opacity:1;stroke-dasharray:none;stroke-linecap:butt;stroke-linejoin:miter;stroke-miterlimit:4;stroke-opacity:1;stroke-width:0;stroke:#000"/><path id="path6934-5-5" d="m256.33979 391.23466c-.0664.0413-1.39182-.0733-1.58546-.10885-3.40999-.62801 19.2566-160.50788 24.25915-160.55375.0.0 12.26767-11.59694 15.1958-14.84809-11.66224 14.89533-30.22666 147.63281-30.17154 172.72911-.0426 1.28175-94e-5 2.39529-.0998 2.64799z" style="display:inline;fill-opacity:1;fill:#000;opacity:1;stroke-dasharray:none;stroke-linecap:butt;stroke-linejoin:miter;stroke-miterlimit:4;stroke-opacity:1;stroke-width:0;stroke:#000"/><path id="path6936-2-0" d="m256.82347 435.83166c-.005-.12477 6.44313-46.79271 6.29446-46.86401l-38.86429-18.63767c-2.29598 4.59195-10.5652 49.31569-10.49601 49.3863.0621.18588 43.06584 16.11538 43.06584 16.11538z" style="display:inline;fill-opacity:1;fill:#0b1728;opacity:1;stroke-dasharray:none;stroke-linecap:butt;stroke-linejoin:miter;stroke-miterlimit:4;stroke-opacity:1;stroke-width:0;stroke:#000"/><path id="path6938-5-7" d="m255.95357 390.4496c-.0664.0413-1.76682-.0468-1.96046-.0825-3.40999-.62801 19.2566-160.40253 24.25915-160.4484.0.0 14.23398-13.51852 15.68248-14.44775-15.56688 24.4846-34.69807 173.01647-30.414 174.96778z" style="display:inline;fill-opacity:1;fill:#0b1728;opacity:1;stroke-dasharray:none;stroke-linecap:butt;stroke-linejoin:miter;stroke-miterlimit:4;stroke-opacity:1;stroke-width:0;stroke:#000"/><path id="path6940-7-0" d="m258.89163 437.11081c.007-.14856 4.09744-51.68483 4.0352-51.87468.0.0 98.3697 2.11532 107.5152 4.05165 1.82798.41016 3.88312 29.57449 3.78147 29.65726-.0921.22131-115.33187 18.16577-115.33187 18.16577z" style="display:inline;fill-opacity:1;fill:#000;opacity:1;stroke-dasharray:none;stroke-linecap:butt;stroke-linejoin:miter;stroke-miterlimit:4;stroke-opacity:1;stroke-width:0;stroke:#000"/><path id="path6942-2-5" d="m260.02434 435.69863c.007-.14856 4.18979-50.58257 4.12661-50.77211-.29391-.88173 102.61748-7.15762 105.39151 3.99045.24983 1.004 3.30118 29.48094 3.2038 29.57331-.0921.22131-112.72192 17.20835-112.72192 17.20835z" style="display:inline;fill-opacity:1;fill:#0b1728;opacity:1;stroke-dasharray:none;stroke-linecap:butt;stroke-linejoin:miter;stroke-miterlimit:4;stroke-opacity:1;stroke-width:0;stroke:#000"/><path style="display:inline;fill-opacity:1;fill-rule:nonzero;fill:#999;opacity:1;stroke-dasharray:none;stroke-linecap:butt;stroke-linejoin:round;stroke-miterlimit:4;stroke-opacity:1;stroke-width:0;stroke:#000" d="m288.03821 262.88906a2.8059697 3.1566737.0 01-2.80597 3.15668 2.8059697 3.1566737.0 01-2.80597-3.15668 2.8059697 3.1566737.0 012.80597-3.15668 2.8059697 3.1566737.0 012.80597 3.15668z" id="path6944-2-8"/><path style="display:inline;fill-opacity:1;fill-rule:nonzero;fill:#999;opacity:1;stroke-dasharray:none;stroke-linecap:butt;stroke-linejoin:round;stroke-miterlimit:4;stroke-opacity:1;stroke-width:0;stroke:#000" d="m282.89194 297.67418a2.8059697 3.1566737.0 01-2.80597 3.15667 2.8059697 3.1566737.0 01-2.80597-3.15667 2.8059697 3.1566737.0 012.80597-3.15668 2.8059697 3.1566737.0 012.80597 3.15668z" id="path6948-2-3"/><path id="path6950-5-0" class="shadow" d="m329.87921 425.70416c-15.4791 1.19068-42.03653 26.26041-44.60913 30.99635 10.29989-9.14088 29.75951-26.28541 44.60913-30.99635z"/><path id="path6952-6-1" class="shadow" d="m262.13712 457.55245c-5.32741-7.35839-28.98018-30.1623-28.98018-30.1623l-2.80403-.77815s24.58999 23.41879 31.78421 30.94045z"/><path id="path6954-6-8" class="shadow" d="m329.8875 425.70175c-15.4791 1.19068-42.03653 26.26041-44.60913 30.99635 10.29989-9.14088 29.75951-26.28541 44.60913-30.99635z"/><path id="path6956-2-0" class="shadow" d="m262.14541 457.55004c-5.37406-7.42283-29.21651-30.35505-29.21651-30.35505l-2.57069-.58835s24.59207 23.42079 31.7872 30.9434z"/><path style="display:inline;fill-opacity:1;fill-rule:nonzero;fill:#999;opacity:1;stroke-dasharray:none;stroke-linecap:butt;stroke-linejoin:round;stroke-miterlimit:4;stroke-opacity:1;stroke-width:0;stroke:#000" d="m296.15903 227.39313a2.8059697 3.1566737.0 01-2.80597 3.15668 2.8059697 3.1566737.0 01-2.80597-3.15668 2.8059697 3.1566737.0 012.80597-3.15668 2.8059697 3.1566737.0 012.80597 3.15668z" id="path6970-4-1"/><path style="display:inline;fill-opacity:1;fill-rule:nonzero;fill:#999;opacity:1;stroke-dasharray:none;stroke-linecap:butt;stroke-linejoin:round;stroke-miterlimit:4;stroke-opacity:1;stroke-width:0;stroke:#000" d="m277.43213 332.06503a2.8059697 3.1566737.0 01-2.80597 3.15668 2.8059697 3.1566737.0 01-2.80597-3.15668 2.8059697 3.1566737.0 012.80597-3.15668 2.8059697 3.1566737.0 012.80597 3.15668z" id="path6972-1-4"/><path id="path6974-0-6" d="m232.24916 335.54227s53.18317 14.25736 128.08256.85277c.36617-.0655-2.18933 9.84757-3.26187 13.90825.0936.96098.24286 1.67392.47129 1.98459-14.57264 6.85213-111.28409 11.68136-129.32071-2.14672.0.0 4.39353-14.40571 4.02873-14.59889z" style="display:inline;fill-opacity:1;fill:#000;opacity:1;stroke-dasharray:none;stroke-linecap:butt;stroke-linejoin:miter;stroke-miterlimit:4;stroke-opacity:1;stroke-width:0;stroke:#000"/><path id="path6976-1-1" d="m232.91207 336.38195s47.79014 15.5515 126.68926.97396c.33287-.0615-1.9722 7.20481-2.9696 11.79609.21297.87125.7768 2.6909.7768 2.6909-19.95115 6.77325-112.57033 9.85489-128.03906-1.97047.0.0 3.5426-13.89468 3.5426-13.4905z" style="display:inline;fill-opacity:1;fill:#1a1a1a;opacity:1;stroke-dasharray:none;stroke-linecap:butt;stroke-linejoin:miter;stroke-miterlimit:4;stroke-opacity:1;stroke-width:0;stroke:#000"/><path style="display:inline;fill-opacity:1;fill-rule:nonzero;fill:#999;opacity:1;stroke-dasharray:none;stroke-linecap:butt;stroke-linejoin:round;stroke-miterlimit:4;stroke-opacity:1;stroke-width:0;stroke:#000" d="m274.10068 341.20932c-.49922 6.0624-.95306 11.47655-1.56415 18.47709-.64482-.0533-8.83601-.24791-8.78096-.7241.0156-.13496-.0933-2.02764.35079-2.08549.479-.0625 6.79288.90418 6.77472.24352-.0136-.49768.84133-10.66266 1.04774-13.16926.0388-.47067-7.04928-.68475-7.04724-1.09063.0102-2.09966.14858-2.42207.50329-2.59423 5.67895.46901 8.72023.27917 8.71584.9431z" id="path6978-4-7"/><path style="display:inline;fill-opacity:1;fill-rule:nonzero;fill:#999;opacity:1;stroke-dasharray:none;stroke-linecap:butt;stroke-linejoin:round;stroke-miterlimit:4;stroke-opacity:1;stroke-width:0;stroke:#000" d="m260.62035 339.99155c-.49481 6.06275-.92891 11.47852-1.46621 18.48513.64483.0534 8.75806 1.19869 8.78131.71988.007-.1357.42233-1.98524-.007-2.11486-.46242-.13982-6.84919-.21747-6.72367-.86632.0945-.48878.9066-10.65729 1.11121-13.16405.0382-.47072 7.06645.4755 7.13052.0751.33191-2.07322.24787-2.41392-.0741-2.6417-5.67929-.4649-8.64892-1.14893-8.75273-.49321z" id="path6980-7-9"/><path style="display:inline;fill-opacity:1;fill-rule:evenodd;fill:#000;opacity:1;stroke-dasharray:none;stroke-linecap:butt;stroke-linejoin:miter;stroke-miterlimit:4;stroke-opacity:1;stroke-width:0;stroke:#000" d="m282.45842 458.56662c-.27835.87834-1.09442 7.30349-3.59097 9.21774-.26922.20641-1.13559 1.14752-4.57861.28177-.17398-.0437-1.37228.71664-3.61539.0361-5.82941-1.76869-6.22252-8.10904-6.31915-8.53686 8.23205-5.09165 11.4291-4.00072 18.10412-.99875z" id="path6986-5-1-4"/><path style="display:inline;fill-opacity:1;fill-rule:evenodd;fill:#0b1728;opacity:1;stroke-dasharray:none;stroke-linecap:butt;stroke-linejoin:miter;stroke-miterlimit:4;stroke-opacity:1;stroke-width:0;stroke:#000" d="m282.65569 458.4011c-.78318 1.88787-2.10206 7.06063-4.59684 8.84104-1.21608.86786-3.67141-.009-3.92314-.0331-.29372-.0276-.96753.96577-3.15689.31564-4.33861-1.28834-5.1633-4.97917-6.6404-7.92987 7.24395-6.87766 11.19968-9.59173 18.31727-1.19371z" id="path6988-2-6"/><path id="path6201-81-2" d="m284.51487 205.20924c.0133-.14802.991-3.76164 1.04686-3.94624.0.0-10.13556 2.84037-10.14148 3.07346-.008.30956-.81107 2.93146-.7689 3.0294.0242.22566 9.86356-2.15662 9.86356-2.15662z" style="display:inline;fill-opacity:1;fill:#000;opacity:1;stroke-dasharray:none;stroke-linecap:butt;stroke-linejoin:miter;stroke-miterlimit:4;stroke-opacity:1;stroke-width:0;stroke:#000"/><path id="path6201-0-39-9" d="m321.73469 205.93856c-.0135-.25315-2.19351-6.61269-2.32164-6.93919.0.0 28.25558 7.57122 28.23428 7.96573-.0279.52399 1.81929 5.16395 1.68381 5.31746-.10544.37372-27.59656-6.34401-27.59656-6.34401z" style="display:inline;fill-opacity:1;fill:#000;opacity:1;stroke-dasharray:none;stroke-linecap:butt;stroke-linejoin:miter;stroke-miterlimit:4;stroke-opacity:1;stroke-width:0;stroke:#000"/><path id="path6201-07-8-1" d="m284.41581 204.80064c.0132-.13828.98105-3.51413 1.03635-3.68659.0.0-10.03379 2.65349-10.03965 2.87124-.008.28919-.80292 2.73858-.76118 2.83007.024.21081 9.76452-2.01472 9.76452-2.01472z" style="display:inline;fill-opacity:1;fill:#0b1728;opacity:1;stroke-dasharray:none;stroke-linecap:butt;stroke-linejoin:miter;stroke-miterlimit:4;stroke-opacity:1;stroke-width:0;stroke:#000"/><path id="path6201-0-5-5-2" d="m321.26188 205.48198c-.0134-.2365-2.17149-6.1776-2.29833-6.48261.0.0 27.97185 7.07304 27.95076 7.4416-.0276.48951 1.80102 4.82417 1.6669 4.96758-.10438.34913-27.31944-5.92658-27.31944-5.92658z" style="display:inline;fill-opacity:1;fill:#0b1728;opacity:1;stroke-dasharray:none;stroke-linecap:butt;stroke-linejoin:miter;stroke-miterlimit:4;stroke-opacity:1;stroke-width:0;stroke:#000"/><path style="display:inline;fill-opacity:1;fill-rule:nonzero;fill:#999;opacity:1;stroke-dasharray:none;stroke-linecap:butt;stroke-linejoin:round;stroke-miterlimit:4;stroke-opacity:1;stroke-width:0;stroke:#000" d="m299.80598 206.99996a2.8059697 3.1566737.0 01-2.80597 3.15668 2.8059697 3.1566737.0 01-2.80597-3.15668 2.8059697 3.1566737.0 012.80597-3.15668 2.8059697 3.1566737.0 012.80597 3.15668z" id="path6212-8-3-8"/><path id="path6191-7-5-2" d="m292.37072 216.07858c-.007-.15238 3.8945-21.33661 3.96139-21.53134.0.0-8.30916-2.77563-8.45142-2.58113-.86438 1.18176-2.11005 6.96861-3.51333 8.67157.099.227 8.00336 15.4409 8.00336 15.4409z" style="display:inline;fill-opacity:1;fill:#000;opacity:1;stroke-dasharray:none;stroke-linecap:butt;stroke-linejoin:miter;stroke-miterlimit:4;stroke-opacity:1;stroke-width:0;stroke:#000"/><path id="path6193-1-4-2" d="m292.27012 214.99157c-.006-.15465 3.18623-20.56297 3.24155-20.7606.0.0-7.62885-3.42808-7.7465-3.23069-.7148 1.19936-1.68003 7.03144-2.84049 8.75976.0818.23038 7.34544 15.23153 7.34544 15.23153z" style="display:inline;fill-opacity:1;fill:#0b1728;opacity:1;stroke-dasharray:none;stroke-linecap:butt;stroke-linejoin:miter;stroke-miterlimit:4;stroke-opacity:1;stroke-width:0;stroke:#000"/><path id="path6195-5-77-0" d="m298.6408 216.19261c.006-.15238 3.40168-21.28705 3.34715-21.48178.0.0 16.14948-3.80688 16.26545-3.61238.70464 1.18176 2.15318 9.74986 2.50741 10.42157-.0807.227-22.12001 14.67259-22.12001 14.67259z" style="display:inline;fill-opacity:1;fill:#000;opacity:1;stroke-dasharray:none;stroke-linecap:butt;stroke-linejoin:miter;stroke-miterlimit:4;stroke-opacity:1;stroke-width:0;stroke:#000"/><path id="path6197-5-6-2" d="m299.45773 215.19253c.006-.15052 3.06748-20.24269 3.01643-20.43505.0.0 15.11733-4.25466 15.22593-4.06254.65983 1.16734 2.01625 9.68426 2.34795 10.34777-.0756.22423-20.59031 14.14982-20.59031 14.14982z" style="display:inline;fill-opacity:1;fill:#0b1728;opacity:1;stroke-dasharray:none;stroke-linecap:butt;stroke-linejoin:miter;stroke-miterlimit:4;stroke-opacity:1;stroke-width:0;stroke:#000"/><path style="display:inline;fill-opacity:1;fill-rule:nonzero;fill:#999;opacity:1;stroke-dasharray:none;stroke-linecap:butt;stroke-linejoin:round;stroke-miterlimit:4;stroke-opacity:1;stroke-width:0;stroke:#000" d="m299.80598 206.99996a2.8059697 3.1566737.0 01-2.80597 3.15668 2.8059697 3.1566737.0 01-2.80597-3.15668 2.8059697 3.1566737.0 012.80597-3.15668 2.8059697 3.1566737.0 012.80597 3.15668z" id="path6212-8-0-4"/></svg>