<svg viewBox="0 0 560 1e3"><path style="display:inline;fill-opacity:1;fill-rule:evenodd;fill:#000;opacity:1;stroke-dasharray:none;stroke-linecap:butt;stroke-linejoin:miter;stroke-miterlimit:4;stroke-opacity:1;stroke-width:0;stroke:#000" d="m364.48208 347.89951c10.84614 22.22517 15.88203 51.67853-.1878 69.10719.0.0-66.93364-1.93603-78.44286 26.40134-2.06147 4.01155-2.1084 11.81811-3.46792 16.10443-.27859.87834-1.00697 6.35332-3.50565 8.26757-.26944.20641-1.13656 1.14752-4.58251.28177-.17413-.0437-1.37345.71664-3.61847.0361-5.83439-1.76869-6.66978-8.86034-6.76649-9.28816-47.55967-41.23892-55.84713-61.51613-37.63204-116.72013 37.55587-19.1934 107.70884-6.4355 138.20374 5.80989z" id="path5152-4-5-5"/><path style="display:inline;fill-opacity:1;fill-rule:evenodd;fill:#212f3d;opacity:1;stroke-dasharray:none;stroke-linecap:butt;stroke-linejoin:miter;stroke-miterlimit:4;stroke-opacity:1;stroke-width:0;stroke:#000" d="m363.31498 348.65982c10.13692 18.42587 14.66945 49.04771.80511 68.21626-68.42849 38.56956-76.17909 42.93293-81.45076 41.5207-.78385 1.88787-2.10386 7.06063-4.60076 8.84104-1.21712.86786-3.67455-.009-3.92649-.0331-.29397-.0276-.96836.96577-3.15959.31564-4.34231-1.28834-5.1677-4.97917-6.64606-7.92987-3.29983-3.30516-40.27356-10.82882-39.37854-45.6127-10.6103-19.34175-6.59932-43.66944 2.01444-71.7671 24.1792-11.73096 83.30484-15.0506 136.34265 6.44913z" id="path5154-3-6-4"/><path style="display:inline;fill-rule:evenodd;fill:none;opacity:1;stroke-dasharray:none;stroke-linecap:round;stroke-linejoin:miter;stroke-miterlimit:3;stroke-opacity:1;stroke-width:2;stroke:#212f3d" d="m319.11173 200.11448c-4.12562 6.10264-23.52024 13.7416-25.54211 20.47829-6.88077 22.92615-16.15822 45.34606-18.52383 68.60571-1.64704 16.19445-7.93348 31.76683-8.37146 50.25754.0409-1.26589 12.55986 1.54689 12.63603-.40805.37779-9.6961-5.89853-30.61811-3.99773-49.92912 2.33608-23.73313 11.6097-50.49224 18.08437-68.19516 2.16789-5.92742-8.4146-15.25736-8.30597-19.56074" id="path1860-6-0-3-8-7-9"/></svg>