<svg viewBox="0 0 560 1e3"><path d="m278 171.2c2.6 3.9 7.6.9 14 5.1 7.8 5 8.1 14 13.2 14 1.7.0 3.5-1 4.3-2.4 4.5-7.7-18.1-34.7-27.5-31.1-4.4 1.7-6.7 10.2-4 14.4z" style="fill:#bf2126;opacity:.23999999" id="XMLID_867_"/><path style="fill:#070505" d="m270.86363 167.91774-3.2875-6.73024c19.27977 1.64821 36.51905.31872 56.27387-.25-1.47095 2.92345-3.142 5.5801-5.1125 7.8375-18.27129.42342-32.17753 1.29427-47.87387-.85726z" id="XMLID_892_"/><path style="fill:red" d="m290.39999 165.00001c0 4.80488-3.40264 8.7-7.6 8.7-.14922.0-2.39119-.0362-2.53828-.0458-3.99047-.26347-5.06172-4.02006-5.06172-8.65412.0-4.68504 1.14128-8.53639 5.19373-8.72403.10365-.005 2.30159.0242 2.40627.0242 4.19736.0 7.6 3.89512 7.6 8.7z" id="XMLID_893_"/><path style="display:inline;fill:maroon" d="m288.03751 164.99359c0 4.80488-3.40264 8.7-7.6 8.7-.14922.0-.29744-.005-.44453-.0146-3.99047-.26347-7.15547-4.05131-7.15547-8.68537.0-4.68504 3.23503-8.50514 7.28748-8.69278.10365-.005.20784-.007.31252-.007 4.19736.0 7.6 3.89512 7.6 8.7z" id="XMLID_893_-6"/></svg>