<svg viewBox="0 0 560 1e3"><path style="display:inline;fill-opacity:1;fill-rule:evenodd;fill:#000;opacity:1;stroke-dasharray:none;stroke-linecap:butt;stroke-linejoin:miter;stroke-miterlimit:4;stroke-opacity:1;stroke-width:0;stroke:#000" d="m370.75046 263.17917c4.70054 37.3465-9.46379 68.30813-13.88647 85.14501.52951 3.24543 29.70494 51.68964 4.6077 70.76342.0.0-64.11105-4.01693-75.62027 24.32044-2.06147 4.01155-2.1084 11.81811-3.46792 16.10443-.27859.87834-1.00697 6.35332-3.50565 8.26757-.26944.20641-1.13656 1.14752-4.58251.28177-.17413-.0437-1.37345.71664-3.61847.0361-5.83439-1.76869-6.66978-8.86034-6.76649-9.28816-1.98539-8.78313-6.24957-28.02971-9.43291-34.24779-14.19124-27.72004-27.39251-9.19794-28.70035-11.53427-13.9962-24.75182.2653-61.58316 11.51897-92.51149-10.42239-58.35145 14.49888-91.31027 39.17422-113.73393-.63873-.33426 2.79947-3.49412 7.324-5.89646.32684-.34813 4.5704-7.89894 4.87768-7.6931 2.98347 1.99853 11.27763 2.76135 26.19332-.47568.0.0 2.90372 5.32009 3.24017 5.85275 1.50252 1.12706 9.10193 4.89722 7.88644 5.69617 37.1441 32.18297 45.9632 35.13608 44.75854 58.91322z" id="path2396-0-7"/><path style="display:inline;fill-opacity:1;fill-rule:evenodd;fill:#c8c8c8;opacity:1;stroke-dasharray:none;stroke-linecap:butt;stroke-linejoin:miter;stroke-miterlimit:4;stroke-opacity:1;stroke-width:0;stroke:#000" d="m355.57733 347.50937c11.03939 26.39199 24.32757 56.5207 4.59302 71.61241-40.10653 11.44456-74.329 37.50937-75.10067 39.84714-.78385 1.88787-3.29932 8.5329-5.79622 10.31331-1.21712.86786-4.8236-.18577-5.07554-.20987-.29397-.0276-1.12355.44604-3.33637-.1263-5.65546-1.4629-9.47467-5.19754-10.04678-7.14824-18.43111-29.49711-30.55976-47.06584-35.28517-48.25479-13.03145-43.05586 10.77982-77.12442 12.80152-92.37977-3.3773-18.8677-1.85938-35.78777-1.50928-51.42008.71322-31.84556 8.18786-56.61348 40.11428-63.76207.49229-.51848 2.38816-2.07991 6.86512-4.48225 1.33294-.60978 4.80606-7.98895 4.80606-7.98895 4.20371 3.57386 24.6331.32331 25.85694-.28378.40072-.19878 3.31956 5.95667 3.31956 5.95667 1.48672 1.12706 18.26307 6.59921 18.79495 7.94157 29.70545-.47313 33.56092 22.42238 33.89535 44.79057 3.19297 33.20379-3.90161 66.73467-14.89677 95.59443z" id="path2398-0-0"/><path style="display:inline;fill-opacity:1;fill:#000;opacity:1;stroke-dasharray:none;stroke-linecap:butt;stroke-linejoin:miter;stroke-miterlimit:4;stroke-opacity:1;stroke-width:0;stroke:#000" d="m225.13691 414.2977c13.0124 5.20002 29.86397 56.84957 49.88576 55.14738 13.4605-1.86072 24.02916-25.25786 86.35973-50.50068 16.68707-12.12186 8.11974-38.05051 4.94648-44.47502-45.102 11.9464-137.95512 8.92534-143.29546-.47844.0.0.73648 32.08911 2.10349 40.30676z" id="path2246-4-4-0-8-3-0"/><path style="display:inline;fill-opacity:1;fill:#000;opacity:1;stroke-dasharray:none;stroke-linecap:butt;stroke-linejoin:miter;stroke-miterlimit:4;stroke-opacity:1;stroke-width:0;stroke:#000" d="m364.98977 381.91299c-.0508-.13663-.32934-1.79746-.28921-1.76865 2.4837 1.78281 12.51773 2.24849 13.79677.81029 4.76421-5.35705-12.89361-17.4965-13.66653-1.39538-.0727-.19109-.008-1.52879-.0247-1.80177-1.4607-23.95073 33.04893 10.48248 1.74614 4.51489z" id="path2246-4-41-0-9-4-9-2-2-0-2-6-3"/><path style="display:inline;fill-opacity:1;fill:#e1e1ff;opacity:1;stroke-dasharray:none;stroke-linecap:butt;stroke-linejoin:miter;stroke-miterlimit:4;stroke-opacity:1;stroke-width:0;stroke:#000" d="m365.06334 381.70968c-.0508-.13663-.23362-1.66958-.19408-1.63996 2.2962 1.72031 12.28978 2.08855 13.56882.65035 4.76421-5.35705-12.85197-17.39004-13.62489-1.28892-.0727-.19109-.19351-1.5285-.20898-1.80154-1.35419-23.8996 34.44063 11.33344.45913 4.08007z" id="path2246-4-41-0-9-4-9-2-4-7-4-0"/><path style="display:inline;fill-opacity:1;fill:#000;opacity:.97000002;stroke-dasharray:none;stroke-linecap:butt;stroke-linejoin:miter;stroke-miterlimit:4;stroke-opacity:1;stroke-width:0;stroke:#000" d="m225.28337 413.04275c-3.13392 21.58364.78284 58.84563 7.79853 76.26735 1.37187 3.40671 82.50427 6.65201 84.29148 2.81292 7.90056-16.97113 40.64148-71.86691 47.07412-74.91364 3.047-30.93393-10.14559-36.11547-10.62794-37.42229-45.10199 11.9464-126.1829 4.1794-131.52324-5.22443-.0402.57637-1.06591 18.07006 2.98705 38.48009z" id="path2246-4-41-0-9-4-9-20-31-8-5"/><path style="display:inline;fill-opacity:1;fill:#000;opacity:1;stroke-dasharray:none;stroke-linecap:butt;stroke-linejoin:miter;stroke-miterlimit:4;stroke-opacity:1;stroke-width:0;stroke:#000" d="m367.52132 382.03094c6.55752 2.66278 9.90514 4.04885 13.0944 3.0818 10.92536-3.3128-2.18327-20.91676-15.60976-7.54261.0803-.0665.0174.13508.10062.0746 17.69527-12.8555 29.88422 14.78059 2.41414 3.75995-.0573-.023 6e-4.62627 6e-4.62627z" id="path2246-4-41-0-9-4-9-2-8-8-5-5-7-6"/><path style="display:inline;fill-opacity:1;fill:#e1e1ff;opacity:1;stroke-dasharray:none;stroke-linecap:butt;stroke-linejoin:miter;stroke-miterlimit:4;stroke-opacity:1;stroke-width:0;stroke:#000" d="m226.2175 412.90927c-3.13392 21.58364 1.19185 58.07894 8.20754 75.50066 1.37187 3.40671 80.62927 6.27701 82.41648 2.43792 7.90056-16.97113 40.06258-71.97238 45.96489-73.07456 12.74838-14.24255 7.2857-33.39535 4.10214-42.35512-45.10199 11.9464-138.74125 9.14815-144.08159-.25568-3.84094 12.86235-1.13577 28.09887 3.39054 37.74678z" id="path2246-4-41-0-9-2-5"/><path style="display:inline;fill-opacity:1;fill:#e1e1ff;opacity:1;stroke-dasharray:none;stroke-linecap:butt;stroke-linejoin:miter;stroke-miterlimit:4;stroke-opacity:1;stroke-width:0;stroke:#000" d="m367.02598 381.83007c6.55752 2.66278 10.15514 4.11135 13.3444 3.1443 10.92536-3.3128-1.7917-21.42732-15.59319-7.27192.0803-.0665.0316.2.11167.13536 17.29752-13.96036 29.8566 14.44913 2.38652 3.42849-.0573-.023-.2494.56377-.2494.56377z" id="path2246-4-41-0-9-4-9-2-8-6-8-6-3"/><path style="display:inline;fill-opacity:1;fill:#000;opacity:1;stroke-dasharray:none;stroke-linecap:butt;stroke-linejoin:miter;stroke-miterlimit:4;stroke-opacity:1;stroke-width:0;stroke:#000" d="m291.58613 206.43512c-.007-.15238 4.29241-11.28937 4.3593-11.4841.0.0-7.54384-2.33499-7.6861-2.14049-.86438 1.18176-2.48505 4.21861-3.88833 5.92157.099.227 7.21513 7.70302 7.21513 7.70302z" id="path2246-4-41-0-9-4-9-2-8-6-8-4-1-1-4"/><path style="display:inline;fill-opacity:1;fill:#c8c8c8;opacity:1;stroke-dasharray:none;stroke-linecap:butt;stroke-linejoin:miter;stroke-miterlimit:4;stroke-opacity:1;stroke-width:0;stroke:#000" d="m291.53892 205.72241c-.007-.14941 4.13813-11.07906 4.20311-11.27.0.0-7.40905-2.29556-7.54725-2.10485-.83967 1.15876-2.41401 4.13649-3.77718 5.8063.0962.22258 7.12132 7.56855 7.12132 7.56855z" id="path2246-4-41-0-9-4-9-2-8-6-8-4-74-4"/><path style="display:inline;fill-opacity:1;fill:#000;opacity:1;stroke-dasharray:none;stroke-linecap:butt;stroke-linejoin:miter;stroke-miterlimit:4;stroke-opacity:1;stroke-width:0;stroke:#000" d="m302.95327 205.66083c.008-.15238-3.86151-10.99073-3.93419-11.18546.0.0 17.24729-2.71313 17.40188-2.51863.9393 1.18176 2.87023 5.37486 3.34242 6.04657-.10758.227-16.81011 7.65752-16.81011 7.65752z" id="path2246-4-41-0-9-4-9-2-8-6-8-4-2-7-3-1"/><path style="display:inline;fill-opacity:1;fill:#c8c8c8;opacity:1;stroke-dasharray:none;stroke-linecap:butt;stroke-linejoin:miter;stroke-miterlimit:4;stroke-opacity:1;stroke-width:0;stroke:#000" d="m302.58405 205.22623c.008-.14856-3.80462-10.71524-3.87623-10.90509.0.0 16.99319-2.64512 17.14551-2.4555.92545 1.15214 2.82793 5.24014 3.29317 5.89501-.10595.22131-16.56245 7.46558-16.56245 7.46558z" id="path2246-4-41-0-9-4-9-2-8-6-8-4-2-8-6"/><path style="display:inline;fill-opacity:1;fill:#000;opacity:1;stroke-dasharray:none;stroke-linecap:butt;stroke-linejoin:miter;stroke-miterlimit:4;stroke-opacity:1;stroke-width:0;stroke:#000" d="m301.28119 219.64821c.0506-.11381 3.80942-8.09618 3.91422-8.19082.0.0-5.46493-9.89832-5.60966-9.85403-.87929.26907-3.31479 2.08266-3.78445 2.27341-.0283.22814 5.47989 15.77144 5.47989 15.77144z" id="path2246-4-41-0-9-4-9-2-8-6-8-4-2-3-0-4-6"/><path style="display:inline;fill-opacity:1;fill:#474747;opacity:1;stroke-dasharray:none;stroke-linecap:butt;stroke-linejoin:miter;stroke-miterlimit:4;stroke-opacity:1;stroke-width:0;stroke:#000" d="m301.17001 219.40696c.0492-.10991 3.70189-7.81858 3.80373-7.90998.0.0-5.31067-9.55893-5.45131-9.51616-.85448.25985-3.22123 2.01125-3.67763 2.19546-.0275.22032 5.32521 15.23068 5.32521 15.23068z" id="path2246-4-41-0-9-4-9-2-8-6-8-4-2-3-0-1-0-9"/><path style="display:inline;fill-opacity:1;fill:#000;opacity:1;stroke-dasharray:none;stroke-linecap:butt;stroke-linejoin:miter;stroke-miterlimit:4;stroke-opacity:1;stroke-width:0;stroke:#000" d="m291.63582 219.15845c-.0522-.11242-2.92885-8.29413-3.0369-8.38761.0.0 4.63578-9.48002 4.785-9.43627.9066.26577 3.41775 2.05716 3.902 2.24557.0291.22535-5.6501 15.57831-5.6501 15.57831z" id="path2246-4-41-0-9-4-9-2-8-6-8-4-2-3-6-5"/><path style="display:inline;fill-opacity:1;fill:#474747;opacity:1;stroke-dasharray:none;stroke-linecap:butt;stroke-linejoin:miter;stroke-miterlimit:4;stroke-opacity:1;stroke-width:0;stroke:#000" d="m291.59093 218.69623c-.0522-.11242-2.92885-8.29413-3.0369-8.38761.0.0 4.63578-9.48002 4.785-9.43627.9066.26577 3.41775 2.05716 3.902 2.24557.0291.22535-5.6501 15.57831-5.6501 15.57831z" id="path2246-4-41-0-9-4-9-2-8-6-8-4-2-3-5-2-4"/><path style="display:inline;fill-opacity:1;fill:#000;opacity:1;stroke-dasharray:none;stroke-linecap:butt;stroke-linejoin:miter;stroke-miterlimit:4;stroke-opacity:1;stroke-width:0;stroke:#000" d="m296.57741 204.96887c.41937.2053 12.83791 3.582 12.83791 3.582s1.97547-7.01455-.49085-12.98749c-6.51076-.2662-11.57285 2.87409-11.82793 2.94536-.15201-.0921-8.94185-2.5276-9.26538-1.94436-2.50541 4.51663-1.6643 10.93339-1.68826 11.194.14502.0107 9.78903-2.59133 10.43451-2.78951z" id="path2246-4-41-0-9-4-9-2-8-6-8-2-7-3"/><path style="display:inline;fill-opacity:1;fill:#474747;opacity:1;stroke-dasharray:none;stroke-linecap:butt;stroke-linejoin:miter;stroke-miterlimit:4;stroke-opacity:1;stroke-width:0;stroke:#000" d="m296.42443 204.80017c.41707.19379 12.7674 3.38113 12.7674 3.38113s1.96462-6.62119-.48815-12.25918c-6.475-.25128-11.50929 2.71291-11.76297 2.78019-.15117-.0869-8.89273-2.38586-9.21449-1.83533-2.49164 4.26335-1.65515 10.32027-1.67898 10.56627.14422.0101 9.73526-2.44602 10.37719-2.63308z" id="path2246-4-41-0-9-4-9-2-8-6-8-2-5-7-9"/></svg>