<svg viewBox="0 0 560 1e3"><path id="path4226" d="m368.45236 268.83602c.40069 1.40387-1.73379 14.71217-8.92285 39.59169-48.5907-8.54713-117.83165-10.20685-120.48728-5.51043-2.77185-14.53889-3.13184-30.77759 2.92719-51.31776 22.06237-.31122 74.78796-6.18104 122.21479 15.99173z" style="display:inline;fill-opacity:1;fill-rule:evenodd;fill:#000;opacity:1;stroke-dasharray:none;stroke-linecap:butt;stroke-linejoin:miter;stroke-miterlimit:4;stroke-opacity:1;stroke-width:0;stroke:#000"/><path id="path4228" d="m368.47602 268.56519c-.47811 3.70196-4.19922 19.78782-9.96813 38.27983-54.21754-9.25997-112.61958-9.3751-118.99805-4.84714-.51433-2.42647-.90629-4.8009-1.07598-7.19386-1.01459-11.44597-.13881-26.49203 2.11025-35.52664.14512-.56508 1.51742-7.1576 1.62597-7.60304 54.64557-8.60378 92.86034-2.93804 126.30594 16.89085z" style="display:inline;fill-opacity:1;fill-rule:evenodd;fill:#221c24;opacity:1;stroke-dasharray:none;stroke-linecap:butt;stroke-linejoin:miter;stroke-miterlimit:4;stroke-opacity:1;stroke-width:0;stroke:#000"/></svg>