<svg viewBox="0 0 560 1e3"><path id="path3711" d="m353.94055 255.75216c19.64921 17.70888 18.05649 54.69135 28.7 67.6C362.79271 313.35354 335.46811 312.4246 283 313.5c0 0-36.7-17.8-37.9-2.2-3 39.3 20.4 22.7 37.9 14.8 15.01595 6.73485 120.8 33 124.8 16.6 2.8-11.1-12.7-103.2-28.2-120.3-7.1-7.8-8.4-4.8-14.5-9.1-43.7 6.4-25.3 47.1-7 43.7" style="fill-opacity:1;fill:#1a1a1a"/><path id="path3713" d="m360.23807 238.33522c7.46177 6.86101 23.426 19.15043 33.5319 17.68815-.25902-1.2722-.71019-3.34422-1.03354-3.86493-10.45668 2.03163-28.54761-14.71015-31.53464-15.79817z" style="display:inline;fill-opacity:1;fill:#a80;stroke-dasharray:none;stroke-linecap:butt;stroke-linejoin:miter;stroke-miterlimit:4;stroke-opacity:1;stroke-width:0;stroke:#000"/><path id="path3715" d="m407.1164 344.41268c-13.83948-16.46379-15.09816-16.00093-25.77781-22.99748-.0771.49957.58057 1.3491 1.14345 1.84788 8.42217 6.0661 10.09033 6.72829 23.46772 22.20067z" style="display:inline;fill-opacity:1;fill:#a80;stroke-dasharray:none;stroke-linecap:butt;stroke-linejoin:miter;stroke-miterlimit:4;stroke-opacity:1;stroke-width:0;stroke:#000"/><path id="path3717" d="m392.69152 329.90541c-11.34213 8.36559-30.76476 4.27484-57.55516-4.22408-1.2719-.83529-.33912-1.16581.1177-1.80585 47.19134 16.5276 54.8166 5.46036 55.4634 4.94504z" style="display:inline;fill-opacity:1;fill:#a80;stroke-dasharray:none;stroke-linecap:butt;stroke-linejoin:miter;stroke-miterlimit:4;stroke-opacity:1;stroke-width:0;stroke:#000"/><path id="path3719" d="m393.27661 329.84343c-3.71084-27.5994-5.53646-37.39358-14.36219-80.69824-.66729-.71996-.19185 1.382-1.52401 1.06834 9.0357 41.73083 14.29109 77.47587 13.92166 78.59807z" style="display:inline;fill-opacity:1;fill:#a80;stroke-dasharray:none;stroke-linecap:butt;stroke-linejoin:miter;stroke-miterlimit:4;stroke-opacity:1;stroke-width:0;stroke:#000"/><path id="path3721" d="m404.6937 343.63618c-14.29005 3.44693-37.68525 3.33357-70.06573-3.60615-1.59256-.62658-.42461-.87452.14738-1.35464 52.99022 10.09991 67.38673 3.40853 68.1966 3.02197z" style="display:inline;fill-opacity:1;fill:#a80;stroke-dasharray:none;stroke-linecap:butt;stroke-linejoin:miter;stroke-miterlimit:4;stroke-opacity:1;stroke-width:0;stroke:#000"/></svg>