<svg viewBox="0 0 560 1e3"><path style="display:inline;fill-opacity:1;fill-rule:evenodd;fill:#000;opacity:1;stroke-dasharray:none;stroke-linecap:butt;stroke-linejoin:miter;stroke-miterlimit:4;stroke-opacity:1;stroke-width:0;stroke:#000" d="m367.54522 268.56519c-.48856 3.70196.54216 20.44929-5.83307 38.78807-24.12758 50.93944-20.31151 63.64608-10.04589 105.68013-40.98288 11.44456-64.6452 42.71388-65.43374 45.05165-.80097 1.88787-4.89589 9.82211-7.44735 11.60252-1.24372.86786-4.66399-.37235-4.92144-.39645-.30038-.0276-.79229.50225-3.05346-.0701-5.77903-1.4629-10.45326-5.40448-11.03788-7.35518-18.83384-29.49711-30.60867-45.3232-35.43733-46.51215 13.50792-35.03129 14.07629-85.72152 17.52652-95.92731.60213-1.78111.21804-2.8986.21804-2.8986s-4.08842-15.03666-4.58578-21.9005c-2.85333-13.17139-3.14345-57.72939 33.85613-85.84083 13.97006 2.79845-31.16412 40.18725 15.73404 40.66507 68.04792 5.8644 17.11141-35.54718 49.44127-42.51243 18.69542 19.76167 29.00043 45.49545 31.01994 61.62613z" id="path6789"/><path style="display:inline;fill-opacity:1;fill-rule:evenodd;fill:#c8c8c8;opacity:1;stroke-dasharray:none;stroke-linecap:butt;stroke-linejoin:miter;stroke-miterlimit:4;stroke-opacity:1;stroke-width:0;stroke:#000" d="m367.08266 268.56519c-.47347 3.70196-1.7017 20.80284-7.88001 39.14162-10.56716 27.75002-29.9978 34.89976-32.87137 56.25942-1.09644 9.03783 24.12932 44.01876 24.48908 48.81716-39.71704 11.44456-64.34445 42.96388-65.10863 45.30165-.77623 1.88787-4.74467 9.82211-7.21732 11.60252-1.2053.86786-4.51993-.37235-4.76943-.39645-.29111-.0276-.76782.50225-2.95915-.0701-5.60053-1.4629-10.13039-5.40448-10.69695-7.35518-18.25211-29.49711-30.39009-46.0732-35.06961-47.26215 7.87069-20.31139 14.39621-34.53836 15.3704-39.64488 2.38405-12.49684 4.30431-31.04582 4.47213-33.91997 1.26467-21.66848-5.48295-33.8742-6.36335-46.41156-2.7652-13.17139-3.04636-57.72939 32.81041-85.84083 11.4792 3.04845-30.44382 41.18725 15.00578 41.66507 67.64207 6.1144 24.09352-34.54718 48.15646-43.51243 43.3149 1.76167 35.58866 48.65706 33.42706 61.53774z" id="path6791"/><path style="display:inline;fill-opacity:1;fill-rule:evenodd;fill:#000;opacity:1;stroke-dasharray:none;stroke-linecap:butt;stroke-linejoin:miter;stroke-miterlimit:4;stroke-opacity:1;stroke-width:0;stroke:#000" d="m368.12317 268.02469c-.47693 3.71189-1.71416 20.85866-7.93772 39.24665-9.39761 24.56576-30.21747 34.9934-33.11209 56.41038-1.10447 9.06208 24.30602 44.13688 24.66842 48.94815-40.0079 11.47527-64.81566 43.07917-65.58543 45.42321-.78192 1.89294-4.77942 9.84847-7.27018 11.63365-1.21413.87019-4.55303-.37335-4.80435-.39751-.29325-.0277-.77345.5036-2.98083-.0703-5.64155-1.46682-10.20458-5.41898-10.77528-7.37491-18.38578-29.57626-30.61265-46.19683-35.32644-47.38897 7.92832-20.3659 14.50164-34.63104 15.48296-39.75126 2.40151-12.53038 4.33583-31.12913 4.50488-34.01099 1.27393-21.72663-5.5231-33.9651-6.40994-46.5361-2.78546-13.20673-3.06868-57.8843 33.05068-86.07117-5.45263 10.52167-32.43019 50.69208 13.35225 51.17118 68.13743 6.13081 42.36624-39.98467 50.27254-52.228 1.50669-.37507 9.9127-1.32436 11.53269 1.80729 13.51628 26.12871 23.27691 47.68728 21.33784 59.18871z" id="path6793"/><path style="display:inline;fill-opacity:1;fill-rule:evenodd;fill:#800033;opacity:1;stroke-dasharray:none;stroke-linecap:butt;stroke-linejoin:miter;stroke-miterlimit:4;stroke-opacity:1;stroke-width:0;stroke:#000" d="m368.12317 268.56519c-.47693 3.70196-1.71416 20.80284-7.93772 39.14162-24.62822 50.70433-20.79096 79.97596-8.44367 105.07658-40.0079 11.44456-64.81566 42.96388-65.58543 45.30165-.78192 1.88787-4.77942 9.82211-7.27018 11.60252-1.21413.86786-4.55303-.37235-4.80435-.39645-.29325-.0276-.77345.50225-2.98083-.0701-5.64155-1.4629-10.20458-5.40448-10.77528-7.35518-18.38578-29.49711-30.61265-46.0732-35.32644-47.26215 13.70727-30.62168 13.90994-80.23329 18.11433-95.87609-1.8184-9.53426-4.53536-17.11812-5.06676-24.63065-2.78546-13.17139-2.53835-57.19906 33.58101-85.3105-6.95263 10.11952-32.43019 50.55642 13.35225 51.03424 68.13743 6.1144 43.49124-39.67371 50.27254-52.8816 1.50669-.37407 10.11466-1.41704 11.53269 1.80245 15.26628 34.6607 23.27691 48.35303 21.33784 59.82368z" id="path6795"/><path style="display:inline;fill-opacity:1;fill:#000;stroke-dasharray:none;stroke-linecap:butt;stroke-linejoin:miter;stroke-miterlimit:4;stroke-opacity:1;stroke-width:0;stroke:#000" d="m225.59803 414.50423c13.0124 5.20002 29.36397 56.66207 49.38576 54.95988 13.4605-1.86072 14.12966-32.15215 76.46023-57.39497-1.99871-6.0195-5.43162-10.1057-8.43549-32.45297-.0357-.2652-.22374-10.08855-.22374-10.08855-46.477-3.6786-87.13741-1.11387-101.22775-2.01765.0.0-10.82602 35.27661-15.95901 46.99426z" id="path6797"/><path style="display:inline;fill-opacity:1;fill:#800033;stroke-dasharray:none;stroke-linecap:butt;stroke-linejoin:miter;stroke-miterlimit:4;stroke-opacity:1;stroke-width:0;stroke:#000" d="m224.05743 416.09574c13.0124 5.20002 31.24785 56.57108 51.26964 54.86889 13.4605-1.86072 14.55644-32.7986 76.88701-58.04142-6.56121-7.37887-8.46779-31.2333-9.09666-33.20557-.0813-.25494-.91016-8.4395-.91016-8.4395-48.602-2.4286-91.37974-3.05582-105.72008-2.8346.0.0-4.64511 33.72484-12.42975 47.6522z" id="path6799"/><path style="display:inline;fill-opacity:1;fill-rule:evenodd;fill:#f59;opacity:1;stroke-dasharray:none;stroke-linecap:butt;stroke-linejoin:miter;stroke-miterlimit:4;stroke-opacity:0;stroke-width:2.46133304;stroke:#000" d="m267.99582 339.26245c-2.45523-23.38362 6.94216-79.19252 7.15362-80.43894.052-.30626-2.57797-.88001-2.96744-.86425-.19785 1.33724-10.06764 57.9646-7.03139 81.20004.0214.1639 2.48212.23986 2.84521.10315z" id="path6801"/><path style="display:inline;fill-opacity:1;fill-rule:evenodd;fill:#f59;opacity:1;stroke-dasharray:none;stroke-linecap:butt;stroke-linejoin:miter;stroke-miterlimit:4;stroke-opacity:0;stroke-width:2.46133304;stroke:#000" d="m302.25645 341.79169c-2.45523-23.38362 4.06456-80.76184 4.27602-82.00826.052-.30626-2.54672.11999-2.93619.13575-.19785 1.33724-6.86774 58.62231-3.83149 81.85775.0214.1639 2.12857.15147 2.49166.0148z" id="path6803"/><path style="display:inline;fill-opacity:1;fill-rule:evenodd;fill:#f59;opacity:1;stroke-dasharray:none;stroke-linecap:butt;stroke-linejoin:miter;stroke-miterlimit:4;stroke-opacity:0;stroke-width:1.43549109;stroke:#000" d="m269.10372 293.09595c10.87774-6.7535 32.60156-12.70391 33.27121-12.86935.16451-.0407-.24282-1.66668-.35278-1.88439-.71082.19398-22.96188 6.06347-33.61416 13.11319-.0752.0498.5331 1.46553.69577 1.64053z" id="path6805"/><path style="display:inline;fill-opacity:1;fill-rule:evenodd;fill:#f59;opacity:1;stroke-dasharray:none;stroke-linecap:butt;stroke-linejoin:miter;stroke-miterlimit:4;stroke-opacity:0;stroke-width:1.43549109;stroke:#000" d="m267.5709 308.47921c10.87774-6.7535 32.60156-12.70391 33.27121-12.86935.16451-.0407-.24282-1.66668-.35278-1.88439-.71082.19398-22.96188 6.06347-33.61416 13.11319-.0752.0498.5331 1.46553.69577 1.64053z" id="path6807"/><path style="display:inline;fill-opacity:1;fill-rule:evenodd;fill:#f59;opacity:1;stroke-dasharray:none;stroke-linecap:butt;stroke-linejoin:miter;stroke-miterlimit:4;stroke-opacity:0;stroke-width:1.43549109;stroke:#000" d="m267.5709 324.10421c10.87774-6.7535 32.60156-12.70391 33.27121-12.86935.16451-.0407-.24282-1.66668-.35278-1.88439-.71082.19398-22.96188 6.06347-33.61416 13.11319-.0752.0498.5331 1.46553.69577 1.64053z" id="path6809"/><path style="display:inline;fill-opacity:1;fill-rule:evenodd;fill:#f59;opacity:1;stroke-dasharray:none;stroke-linecap:butt;stroke-linejoin:miter;stroke-miterlimit:4;stroke-opacity:0;stroke-width:1.43549109;stroke:#000" d="m270.9459 276.22921c10.87774-6.7535 32.60156-12.70391 33.27121-12.86935.16451-.0407-.24282-1.66668-.35278-1.88439-.71082.19398-22.96188 6.06347-33.61416 13.11319-.0752.0498.5331 1.46553.69577 1.64053z" id="path6811"/><path style="display:inline;fill-opacity:1;fill-rule:evenodd;fill:#f59;opacity:1;stroke-dasharray:none;stroke-linecap:butt;stroke-linejoin:miter;stroke-miterlimit:4;stroke-opacity:0;stroke-width:1.39789593;stroke:#000" d="m300.49535 318.93754c-12.07843-.69203-32.12415-8.27737-32.73235-8.526-.14944-.061-.71324 1.5113-.74581 1.75367.65553.24879 21.06589 8.20369 33.12987 8.52237.0852.002.37962-1.51254.34826-1.75004z" id="path6813"/><path style="display:inline;fill-opacity:1;fill-rule:evenodd;fill:#f59;opacity:1;stroke-dasharray:none;stroke-linecap:butt;stroke-linejoin:miter;stroke-miterlimit:4;stroke-opacity:0;stroke-width:1.39789593;stroke:#000" d="m301.14301 304.13752c-12.07843-.69203-32.12415-8.27737-32.73235-8.526-.14944-.061-.71324 1.5113-.74581 1.75367.65553.24879 21.06589 8.20369 33.12987 8.52237.0852.002.37962-1.51254.34826-1.75004z" id="path6815"/><path style="display:inline;fill-opacity:1;fill-rule:evenodd;fill:#f59;opacity:1;stroke-dasharray:none;stroke-linecap:butt;stroke-linejoin:miter;stroke-miterlimit:4;stroke-opacity:0;stroke-width:1.39789593;stroke:#000" d="m303.518 288.01252c-12.07843-.69203-32.12415-8.27737-32.73235-8.526-.14944-.061-.71324 1.5113-.74581 1.75367.65553.24879 21.06589 8.20369 33.12987 8.52237.0852.002.37962-1.51254.34826-1.75004z" id="path6817"/><path style="display:inline;fill-opacity:1;fill-rule:evenodd;fill:#f59;opacity:1;stroke-dasharray:none;stroke-linecap:butt;stroke-linejoin:miter;stroke-miterlimit:4;stroke-opacity:0;stroke-width:1.37863243;stroke:#000" d="m304.65264 270.26906c-11.72521-.69337-31.18472-8.29334-31.77514-8.54245-.14506-.0611-.69238 1.51421-.72399 1.75705.63636.24927 20.44984 8.21952 32.16103 8.53881.0827.002.36852-1.51546.33807-1.75341z" id="path6819"/><path style="display:inline;fill-opacity:1;fill-rule:evenodd;fill:#f59;opacity:1;stroke-dasharray:none;stroke-linecap:butt;stroke-linejoin:miter;stroke-miterlimit:4;stroke-opacity:0;stroke-width:1.43549109;stroke:#000" d="m267.86704 339.2633c10.87774-6.7535 32.60156-12.70391 33.27121-12.86935.16451-.0407-.24282-1.66668-.35278-1.88439-.71082.19398-22.96188 6.06347-33.61416 13.11319-.0752.0498.5331 1.46553.69577 1.64053z" id="path6821"/><path style="display:inline;fill-opacity:1;fill-rule:evenodd;fill:#f59;opacity:1;stroke-dasharray:none;stroke-linecap:butt;stroke-linejoin:miter;stroke-miterlimit:4;stroke-opacity:0;stroke-width:1.39789593;stroke:#000" d="m300.34955 334.09663c-12.07843-.69203-32.12415-8.27737-32.73235-8.526-.14944-.061-.71324 1.5113-.74581 1.75367.65553.24879 21.06589 8.20369 33.12987 8.52237.0852.002.37962-1.51254.34826-1.75004z" id="path6823"/><path style="display:inline;fill-opacity:1;fill-rule:evenodd;fill:#d40055;opacity:1;stroke-dasharray:none;stroke-linecap:butt;stroke-linejoin:miter;stroke-miterlimit:4;stroke-opacity:0;stroke-width:4.53160286;stroke:#000" d="m342.40207 370.29785c-65.95241-2.59347-106.71496 1.78191-105.77784-4.86585 2.07168-14.6962 2.82939-21.06931 2.88193-22.4079 1.32-.22988 47.30496-5.27845 106.07818 3.81475-1.48971 7.30993-3.33429 13.97086-3.18227 23.459z" id="path6825"/><path style="display:inline;fill-opacity:1;fill-rule:evenodd;fill:#f59;opacity:1;stroke-dasharray:none;stroke-linecap:butt;stroke-linejoin:miter;stroke-miterlimit:4;stroke-opacity:0;stroke-width:2.46133304;stroke:#000" d="m345.44761 346.88104c-68.90704-4.8523-99.2112-3.31167-105.97231-2.97296-.31025.0155.35453-5.13014.40825-5.51621 1.35017-.0663 49.96693-1.84939 106.91974 4.31669.16433.0178-1.18446 3.82448-1.35568 4.17248z" id="path6827"/><path style="display:inline;fill-opacity:1;fill-rule:evenodd;fill:#f59;opacity:1;stroke-dasharray:none;stroke-linecap:butt;stroke-linejoin:miter;stroke-miterlimit:4;stroke-opacity:0;stroke-width:2.46133304;stroke:#000" d="m342.29195 372.87919c-69.78204-3.4773-105.06108-2.73087-106.32219-2.64216-.30987.0218.78131-4.6882.83503-5.07427 1.35017-.0663 46.30056-.82664 105.50337 4.71444.16457.0154.15501 2.65399-.0162 3.00199z" id="path6829"/><path style="display:inline;fill-opacity:1;fill-rule:evenodd;fill:#000;opacity:1;stroke-dasharray:none;stroke-linecap:butt;stroke-linejoin:miter;stroke-miterlimit:4;stroke-opacity:0;stroke-width:2.44557929;stroke:#000" d="m323.63316 408.87113c-2.42339-23.38853 3.89105-53.95385 4.09976-55.20053.0513-.30633-2.54453-.8802-2.92895-.86443-.19529 1.33751-20.79446 59.22703-17.79758 82.46735.0211.16394 16.2684-26.26566 16.62677-26.40239z" id="path6831"/><path style="display:inline;fill-opacity:1;fill-rule:evenodd;fill:#000;opacity:1;stroke-dasharray:none;stroke-linecap:butt;stroke-linejoin:miter;stroke-miterlimit:4;stroke-opacity:0;stroke-width:2.53209019;stroke:#000" d="m331.70322 409.65466c4.14577-23.16479-.59108-54.03848-.73198-55.29464-.0346-.30865 2.78358-.71632 3.19426-.67625.12049 1.34588 18.34534 60.36687 13.59519 83.34755-.0335.16211-15.68269-27.21762-16.05747-27.37666z" id="path6833"/><path style="display:inline;fill-opacity:1;fill-rule:evenodd;fill:#d40055;opacity:1;stroke-dasharray:none;stroke-linecap:butt;stroke-linejoin:miter;stroke-miterlimit:4;stroke-opacity:0;stroke-width:2.46133304;stroke:#000" d="m324.73849 408.86727c-2.45523-23.38362 3.94216-53.94252 4.15362-55.18894.052-.30626-2.57797-.88001-2.96744-.86425-.19785 1.33724-21.06764 59.2146-18.03139 82.45004.0214.1639 16.48212-26.26014 16.84521-26.39685z" id="path6835"/><path style="display:inline;fill-opacity:1;fill-rule:evenodd;fill:#d40055;opacity:1;stroke-dasharray:none;stroke-linecap:butt;stroke-linejoin:miter;stroke-miterlimit:4;stroke-opacity:0;stroke-width:2.46133304;stroke:#000" d="m332.6816 409.66695c3.91405-23.18409-.55804-54.0835-.69107-55.34071-.0327-.30891 2.628-.71692 3.01572-.67681.11376 1.347 17.31995 60.41716 12.8353 83.41699-.0316.16224-14.80612-27.2403-15.15995-27.39947z" id="path6837"/><path id="path6839" d="m351.6975 372.30327c-16.00196-3.48943-19.80532-10.98513-21.44427-11.25907-1.32418-.2214-17.1967 3.27006-23.11149-.0784.88116-17.57612 5.48003-22.50253 5.58861-22.96198 8.16057 1.22158 17.14199 12.18968 20.08754 12.88564 1.96648.46465 19.40783-5.06397 25.92815-2.90711.30066 7.22248-1.61012 17.53912-7.04854 24.32098z" style="display:inline;fill-opacity:1;fill-rule:evenodd;fill:#000;opacity:1;stroke-dasharray:none;stroke-linecap:butt;stroke-linejoin:miter;stroke-miterlimit:4;stroke-opacity:1;stroke-width:0;stroke:#000"/><path id="path6841" d="m351.42892 370.99263c-15.58628-3.32202-19.35427-10.16717-20.94988-10.43156-1.28917-.21359-16.68318 2.80674-22.46387-.29125 1.1708-16.30384 5.04988-20.09247 5.15107-20.50879 7.94322 1.18735 16.83932 10.93985 19.70886 11.60007 1.91572.44078 18.34937-3.81178 24.70729-1.79049.36098 6.56358-.93218 15.31333-6.15347 21.42202z" style="display:inline;fill-opacity:1;fill-rule:evenodd;fill:#d40055;opacity:1;stroke-dasharray:none;stroke-linecap:butt;stroke-linejoin:miter;stroke-miterlimit:4;stroke-opacity:1;stroke-width:0;stroke:#000"/></svg>