<svg viewBox="0 0 560 1e3"><path style="fill-opacity:1;fill:#ffa000" id="path7776" d="m336.53285 836.46214c1.87549.52406 1.57793 1.82133-.10985 2.14484-3.11215.43841-10.26717.65455-16.57291-.50644-2.46896-.45459-1.82905-2.27775.0408-2.09829 3.35851.32135 8.7678 1.23076 16.64202.45989z"/><path style="fill-opacity:1;fill:#ffa000" id="path7778" d="m267.51858 834.29083c1.511.52406 1.27128 1.82133-.0885 2.14484-2.50731.43841-8.2718.65455-13.35206-.50644-1.98914-.45459-1.47358-2.27775.0329-2.09829 2.70581.32135 7.06383 1.23076 13.40775.45989z"/><path style="fill-opacity:1;fill:#ffa000" id="path7780" d="m320.52978 841.71528c-.16723.46855-.61996.40945-.74551-.003-.17663-.76307-.3078-2.52616.0458-4.09489.13846-.61423.77646-.47645.72882-.0131-.0852.83225-.35853 2.17702-.0291 4.11144z"/><path style="fill-opacity:1;fill:#ffa000" id="path7782" d="m324.93219 842.24897c-.16723.46855-.61996.40945-.74551-.003-.17663-.76307-.3078-2.52616.0458-4.09489.13846-.61423.77646-.47645.72882-.0131-.0852.83225-.35853 2.17702-.0291 4.11144z"/><path style="fill-opacity:1;fill:#ffa000" id="path7784" d="m330.99469 842.24897c-.16723.46855-.61996.40945-.74551-.003-.17663-.76307-.3078-2.52616.0458-4.09489.13846-.61423.77646-.47645.72882-.0131-.0852.83225-.35853 2.17702-.0291 4.11144z"/><path style="fill-opacity:1;fill:#ffa000" id="path7786" d="m336.36969 842.37397c-.16723.46855-.61996.40945-.74551-.003-.17663-.76307-.3078-2.52616.0458-4.09489.13846-.61423.77646-.47645.72882-.0131-.0852.83225-.35853 2.17702-.0291 4.11144z"/><path style="fill-opacity:1;fill:#ffa000" id="path7788" d="m322.76223 839.91526c-.16723.29277-.61996.25584-.74551-.002-.17663-.47681-.3078-1.57848.0458-2.5587.13846-.38381.77646-.29772.72882-.008-.0852.52003-.35853 1.36032-.0291 2.56905z"/><path style="fill-opacity:1;fill:#ffa000" id="path7790" d="m328.03964 840.24873c-.16723.29278-.61996.25585-.74551-.002-.17663-.47681-.3078-1.57848.0458-2.55871.13846-.3838.77646-.29771.72882-.008-.0852.52003-.35853 1.36032-.0291 2.56904z"/><path style="fill-opacity:1;fill:#ffa000" id="path7792" d="m333.78964 840.24873c-.16723.29278-.61996.25585-.74551-.002-.17663-.47681-.3078-1.57848.0458-2.55871.13846-.3838.77646-.29771.72882-.008-.0852.52003-.35853 1.36032-.0291 2.56904z"/><path style="fill-opacity:1;fill:#ffa000" id="path7794" d="m266.83608 840.005c.16723.46855.61996.40945.74551-.003.17663-.76307.3078-2.52616-.0458-4.09489-.13846-.61423-.77646-.47645-.72882-.0131.0852.83225.35853 2.17702.0291 4.11144z"/><path style="fill-opacity:1;fill:#ffa000" id="path7796" d="m262.80867 840.31994c.16723.46855.61996.40945.74551-.003.17663-.76307.3078-2.52616-.0458-4.09489-.13846-.61423-.77646-.47645-.72882-.0131.0852.83225.35853 2.17702.0291 4.11144z"/><path style="fill-opacity:1;fill:#ffa000" id="path7798" d="m257.40242 840.13244c.16723.46855.61996.40945.74551-.003.17663-.76307.3078-2.52616-.0458-4.09489-.13846-.61423-.77646-.47645-.72882-.0131.0852.83225.35853 2.17702.0291 4.11144z"/><path style="fill-opacity:1;fill:#ffa000" id="path7800" d="m253.18367 839.44494c.16723.46855.61996.40945.74551-.003.17663-.76307.3078-2.52616-.0458-4.09489-.13846-.61423-.77646-.47645-.72882-.0131.0852.83225.35853 2.17702.0291 4.11144z"/><path style="fill-opacity:1;fill:#ffa000" id="path7802" d="m264.97863 837.98623c.16723.29277.61996.25584.74551-.002.17663-.47681.3078-1.57848-.0458-2.5587-.13846-.38381-.77646-.29772-.72882-.008.0852.52003.35853 1.36032.0291 2.56905z"/><path style="fill-opacity:1;fill:#ffa000" id="path7804" d="m260.16997 838.35095c.16723.29278.61996.25585.74551-.002.17663-.47681.3078-1.57848-.0458-2.55871-.13846-.3838-.77646-.29771-.72882-.008.0852.52003.35853 1.36032.0291 2.56904z"/><path style="fill-opacity:1;fill:#ffa000" id="path7806" d="m255.04497 838.53845c.16723.29278.61996.25585.74551-.002.17663-.47681.3078-1.57848-.0458-2.55871-.13846-.3838-.77646-.29771-.72882-.008.0852.52003.35853 1.36032.0291 2.56904z"/><ellipse ry="1.2959223" rx=".721398" id="ellipse7808" class="steel_piercing" cx="320.05194" cy="841.94"/><ellipse ry="1.2959223" rx=".721398" id="ellipse7810" class="steel_piercing" cx="324.44922" cy="842.02844"/><ellipse ry="1.2959223" rx=".721398" id="ellipse7812" class="steel_piercing" cx="330.51486" cy="842.06152"/><ellipse ry="1.2959223" rx=".721398" id="ellipse7814" class="steel_piercing" cx="335.84027" cy="842.21625"/><ellipse ry="1.2959223" rx=".721398" id="ellipse7816" class="steel_piercing" cx="322.20639" cy="840.1391"/><ellipse ry="1.2959223" rx=".721398" id="ellipse7818" class="steel_piercing" cx="327.46545" cy="840.4043"/><ellipse ry="1.2959223" rx=".721398" id="ellipse7820" class="steel_piercing" cx="333.34329" cy="840.4043"/><ellipse ry="1.2959223" rx=".721398" id="ellipse7822" class="steel_piercing" cx="257.85965" cy="839.67511"/><ellipse ry="1.2959223" rx=".721398" id="ellipse7824" class="steel_piercing" cx="253.61165" cy="839.43988"/><ellipse ry="1.2959223" rx=".721398" id="ellipse7826" class="steel_piercing" cx="263.25229" cy="839.70551"/><ellipse ry="1.2959223" rx=".721398" id="ellipse7828" class="steel_piercing" cx="267.22101" cy="839.78363"/><ellipse ry="1.2959223" rx=".721398" id="ellipse7830" class="steel_piercing" cx="265.51788" cy="838.20551"/><ellipse ry="1.2959223" rx=".721398" id="ellipse7832" class="steel_piercing" cx="260.62726" cy="838.25238"/><ellipse ry="1.2959223" rx=".721398" id="ellipse7834" class="steel_piercing" cx="255.50226" cy="837.90863"/></svg>