<svg viewBox="0 0 560 1e3"><path d="M421.12 602.38l.5 1.96c.47 3.84 4.3 13.82-4.74 15.06.55-2.29 2.45-6 2.21-7.57.0.0-.5 3.82-3.16 5.93-.72.57-1.16 2.13-.56 3.9-1.43-.52-2.62-3.79-1.53-5.34 1.03-1.46 2.62-3.16 2.3-4.99-.14 1.55-1.5 3.76-3.36 5.07-1.53 1.08-2.64 1.86-5.08 1.88 3.7-2.34 3.72-4.93 4.95-6.58a5.18 5.18.0 001.05-3.32l-1.46-4.45z" fill="#e7d0bf"/><path d="M412.19 561.3c-.88 17.5 3.89 38 3.89 38" fill="none" stroke="#ebebeb" stroke-width="5"/><path d="M321.75 480.5s89.19-57.34 90.44 80.8" fill="none" stroke="#704a2f" stroke-width="5" stroke-linecap="round"/><path d="M416.6 589.3l-4.88-.16c1.33 8.83-6.77 22.18-6.77 22.18s4.67-3.52 5.94-8.88c-.34 2.04-.79 5.73.16 7.44 1.33 2.41 2.9 4.37 2.9 4.37s-1.1-4.14-1.1-7 0 3.23 1.33 4.66c-.78-4.74.16-4.51.16-4.51s1.17 1.43 1.01 4.29c1.1-3.84.0-5.42.0-5.42s2.36 2.4 2.2 5.72c.22-1.32.27-2.3.25-3.08.24.9.56 1.84 1 2.33 1.02 1.13.63 3.46.63 3.46s1.8-3.61.7-5.8c-1.1-2.18.0-3.8.0-3.8-.07 3.24 1.58 1.76 1.34 3.5-.2 1.4 1.13 1.58 1.88 2.94-.98-3.46 1.49-3.61-.04-6.81l-.5-1.06c.69.7 1.56 1.58 1.95 2.3.5.94 1.3 5.68 1.3 5.68s.1-1.47-.32-4.78c-.42-3.21-1.62-3.02-4.13-6.9.73-1.74.46-3.08-3.18-7.1-.93-1-1.84-3.57-1.84-3.57z" fill="#ebebeb"/></svg>