<svg viewBox="0 0 560 1e3"><g data-transform="belly" id="g5989" transform="matrix(1.014792,0,0,1.0059302,-4.1476732,-2.5734225)"><path id="path5985" class="shadow" d="m274.8 433.8c20.7-1.5 47.7-4.5 61.9-42.4 13.1-44.3-27.8-99.6-59.9-101.5-40.1 6.2-61.8 42.8-63.9 96.9 2.2 31 33.1 49 61.9 47z"/><path style="fill-opacity:1;fill:#c8c8c8" id="path5987" d="m274.8 433.8c20.8.1 49.4-13 61.9-42.4s-18.5-83.4-46-101.7c-6.5-4.3-38.7-8.2-40.4.0-2.6 11.6-44.9 33.3-41.4 96.8 1.8 34.8 45.1 47.2 65.9 47.3z"/></g></svg>