<svg viewBox="0 0 560 1e3"><path style="display:inline;fill-opacity:1;fill-rule:evenodd;fill:#000;opacity:1;stroke-dasharray:none;stroke-linecap:butt;stroke-linejoin:miter;stroke-miterlimit:4;stroke-opacity:1;stroke-width:0;stroke:#000" d="m350.83062 405.47846c25.59694 43.62226 34.08321 83.48476 34.12228 102.91976.0143 7.12273-33.19857 6.02365-120.53245 2.01375-18.36377-.22477-62.73302.79585-62.70053.48494 3.78245-36.19606 21.95036-79.20582 24.91502-99.28345 36.34163 12.28427 57.05933 11.58297 124.19568-6.135z" id="path8080"/><path style="display:inline;fill-opacity:1;fill-rule:evenodd;fill:#333;opacity:1;stroke-dasharray:none;stroke-linecap:butt;stroke-linejoin:miter;stroke-miterlimit:4;stroke-opacity:1;stroke-width:0;stroke:#000" d="m352.04274 406.58021c24.56101 24.71505 36.28431 52.68533 33.61013 98.24071.23441 3.44975 1.34341 6.02352-4.03841 7.05809-7.69466 1.47918-56.00635.48957-106.76027-2.81555-17.22485-1.7838-73.28397 2.14681-73.32901 1.84296-6.97512-47.05753 15.65108-87.0605 24.19567-98.31597 33.00043 13.38067 73.08845-.20038 111.54733-19.54379 2.36331-1.18866 11.47305 10.4487 14.77456 13.53355z" id="path8082"/></svg>