<svg viewBox="0 0 560 1e3"><path style="display:inline;fill-opacity:1;fill-rule:evenodd;fill:#000;opacity:1;stroke-dasharray:none;stroke-linecap:butt;stroke-linejoin:miter;stroke-miterlimit:4;stroke-opacity:1;stroke-width:0;stroke:#000" d="m347.82702 405.48172c32.97194 41.12226 14.59336 82.19618 9.75743 98.63118-2.01061 6.83307 4.74255 12.01889-82.59134 8.00899-17.30311-1.81576-59.24343-1.2282-59.21094-1.53911 3.78245-36.19606 7.8897-78.88843 10.85436-98.96606 36.34163 12.28427 54.05413 11.58297 121.19049-6.135z" id="path3202-9-0"/><path style="display:inline;fill-opacity:1;fill-rule:evenodd;fill:#333;opacity:1;stroke-dasharray:none;stroke-linecap:butt;stroke-linejoin:miter;stroke-miterlimit:4;stroke-opacity:1;stroke-width:0;stroke:#000" d="m349.03914 406.58347c32.8228 40.39855 16.64265 78.6688 8.64661 97.28944-2.76395 6.43649 17.95903 12.02833-82.26931 5.50142-17.22485-1.7838-59.61101 1.398-59.64703 1.09296-4.19847-35.55905.0334-82.0789 9.95303-97.87358 36.42612 14.76968 76.93272 8.18054 123.3167-6.01024z" id="path3204-7-9"/><path d="m328.65568 423.62719c-15.47912 1.19068-42.03655 26.26041-44.60915 30.99635 10.29989-9.14088 29.75953-26.28541 44.60915-30.99635z" class="shadow" id="path3231-8-1"/><path d="m260.91357 455.47548c-6.81704-9.41592-28.83006-31.99347-34.93819-34.15183 5.05404 5.44075 26.5203 25.35081 34.93819 34.15183z" class="shadow" id="path3233-8-6"/><path id="path4424-7" d="m368.45236 268.83602c.40069 1.40387.82871 12.89967-6.36035 37.77919-5.42713 18.7819-20.56882 29.98312-21.1652 31.4412-2.88475 4.63162-4.57729 5.99939-6.42705 9.48318-3.41425 6.43033-6.80675 20.59238-7.72477 24.72942-51.47437 16.09461-59.70557 13.87234-87.16255-.56036 1.80135-10.4933 3.957-25.95108 4.03537-32.90786.24452-21.70551-6.08737-33.66342-6.98584-46.20078-3.73179-44.54825 18.17921-77.96777 50.18174-91.89098 9.24713 11.38115 23.27589 1.97278 29.35552-3.29553-.32987 32.01707-7.67778 52.6152 52.25313 71.42252z" style="display:inline;fill-opacity:1;fill-rule:evenodd;fill:#000;opacity:1;stroke-dasharray:none;stroke-linecap:butt;stroke-linejoin:miter;stroke-miterlimit:4;stroke-opacity:1;stroke-width:0;stroke:#000"/><path id="path4426-5" d="m369.22602 268.69019c-8.80902 59.5584-20.80491 56.03296-35.92628 77.81911-2.73303 6.12449-5.504 13.93995-8.28909 24.30973-50.34556 17.82383-66.22396 9.48408-82.80643-.25631 11.11814-69.38842-14.41007-61.64017-.42302-116.48435 4.95512-25.94069 19.05277-46.18887 44.89266-53.24243.95941-.26505 5.83183-7.60855 5.90605-7.38285 1.65753 5.04021 20.47171-.37757 20.85769-.51091 7.83112 13.51631 21.33617 13.52486 23.1099 14.58844 26.97619.32338 32.77629 22.27233 33.28341 40.71368.22567 8.20653-.8493 15.84345-.60489 20.44589z" style="display:inline;fill-opacity:1;fill-rule:evenodd;fill:#fff;opacity:1;stroke-dasharray:none;stroke-linecap:butt;stroke-linejoin:miter;stroke-miterlimit:4;stroke-opacity:1;stroke-width:0;stroke:#000"/><path style="display:inline;fill-opacity:1;fill:#000;opacity:1;stroke-dasharray:none;stroke-linecap:butt;stroke-linejoin:miter;stroke-miterlimit:4;stroke-opacity:1;stroke-width:0;stroke:#000" d="m291.59482 204.8803c-.007-.15238 5.39726-10.80323 5.46415-10.99796.0.0-4.71541-2.02563-4.85767-1.83113-.86438 1.18176-2.48505 4.21861-3.88833 5.92157.099.227 3.28185 6.90752 3.28185 6.90752z" id="path4428-5"/><path style="display:inline;fill-opacity:1;fill:#fff;opacity:1;stroke-dasharray:none;stroke-linecap:butt;stroke-linejoin:miter;stroke-miterlimit:4;stroke-opacity:1;stroke-width:0;stroke:#000" d="m291.55833 202.78945c-.007-.14941 5.05548-8.90542 5.12046-9.09636.0.0-4.58062-1.9862-4.71882-1.79549-.83967 1.15876-2.41401 4.13649-3.77718 5.8063.0962.22258 3.37554 5.08555 3.37554 5.08555z" id="path4430-1"/><path style="display:inline;fill-opacity:1;fill:#000;opacity:1;stroke-dasharray:none;stroke-linecap:butt;stroke-linejoin:miter;stroke-miterlimit:4;stroke-opacity:1;stroke-width:0;stroke:#000" d="m302.35818 205.29925c.007-.15238-3.99545-11.03492-4.06234-11.22965.0.0 16.62296-2.66894 16.76522-2.47444.86438 1.18176 2.6413 5.37486 3.07583 6.04657-.099.227-15.77871 7.65752-15.77871 7.65752z" id="path4432-6"/><path style="display:inline;fill-opacity:1;fill:#fff;opacity:1;stroke-dasharray:none;stroke-linecap:butt;stroke-linejoin:miter;stroke-miterlimit:4;stroke-opacity:1;stroke-width:0;stroke:#000" d="m303.01527 204.17715c.007-.14856-4.18866-10.02774-4.25456-10.21759.0.0 15.63782-2.64512 15.77799-2.4555.85164 1.15214 2.60238 5.24014 3.03051 5.89501-.0975.22131-14.55394 6.77808-14.55394 6.77808z" id="path4434-4"/><path style="display:inline;fill-opacity:1;fill-rule:nonzero;fill:#999;opacity:1;stroke-dasharray:none;stroke-linecap:butt;stroke-linejoin:round;stroke-miterlimit:4;stroke-opacity:1;stroke-width:0;stroke:#000" d="m300.87394 220.43307a2.7544847 2.8454499.0 01-2.75448 2.84545 2.7544847 2.8454499.0 01-2.75449-2.84545 2.7544847 2.8454499.0 012.75449-2.84546 2.7544847 2.8454499.0 012.75448 2.84546z" id="path4439-3"/><path style="display:inline;fill-opacity:1;fill-rule:nonzero;fill:#999;opacity:1;stroke-dasharray:none;stroke-linecap:butt;stroke-linejoin:round;stroke-miterlimit:4;stroke-opacity:1;stroke-width:0;stroke:#000" d="m297.69369 242.50598a2.7544847 2.8454499.0 01-2.75448 2.84545 2.7544847 2.8454499.0 01-2.75449-2.84545 2.7544847 2.8454499.0 012.75449-2.84546 2.7544847 2.8454499.0 012.75448 2.84546z" id="path4441-3"/><path style="display:inline;fill-opacity:1;fill-rule:nonzero;fill:#999;opacity:1;stroke-dasharray:none;stroke-linecap:butt;stroke-linejoin:round;stroke-miterlimit:4;stroke-opacity:1;stroke-width:0;stroke:#000" d="m293.61894 266.74921a2.7544847 2.8454499.0 01-2.75448 2.84545 2.7544847 2.8454499.0 01-2.75449-2.84545 2.7544847 2.8454499.0 012.75449-2.84546 2.7544847 2.8454499.0 012.75448 2.84546z" id="path4443-5"/><path style="display:inline;fill-opacity:1;fill-rule:nonzero;fill:#999;opacity:1;stroke-dasharray:none;stroke-linecap:butt;stroke-linejoin:round;stroke-miterlimit:4;stroke-opacity:1;stroke-width:0;stroke:#000" d="m289.87262 290.7449a2.7544847 2.8454499.0 01-2.75448 2.84545 2.7544847 2.8454499.0 01-2.75449-2.84545 2.7544847 2.8454499.0 012.75449-2.84546 2.7544847 2.8454499.0 012.75448 2.84546z" id="path4445-1"/><path style="display:inline;fill-opacity:1;fill-rule:nonzero;fill:#999;opacity:1;stroke-dasharray:none;stroke-linecap:butt;stroke-linejoin:round;stroke-miterlimit:4;stroke-opacity:1;stroke-width:0;stroke:#000" d="m286.44248 313.2326a2.7544847 2.8454499.0 01-2.75448 2.84545 2.7544847 2.8454499.0 01-2.75449-2.84545 2.7544847 2.8454499.0 012.75449-2.84546 2.7544847 2.8454499.0 012.75448 2.84546z" id="path4447-0"/><path style="display:inline;fill-opacity:1;fill-rule:nonzero;fill:#999;opacity:1;stroke-dasharray:none;stroke-linecap:butt;stroke-linejoin:round;stroke-miterlimit:4;stroke-opacity:1;stroke-width:0;stroke:#000" d="m282.44616 338.28711a2.7544847 2.8454499.0 01-2.75448 2.84545 2.7544847 2.8454499.0 01-2.75449-2.84545 2.7544847 2.8454499.0 012.75449-2.84546 2.7544847 2.8454499.0 012.75448 2.84546z" id="path4449-3"/><path style="display:inline;fill-opacity:1;fill-rule:nonzero;fill:#999;opacity:1;stroke-dasharray:none;stroke-linecap:butt;stroke-linejoin:round;stroke-miterlimit:4;stroke-opacity:1;stroke-width:0;stroke:#000" d="m279.59261 361.69517a2.7544847 2.8454499.0 01-2.75448 2.84545 2.7544847 2.8454499.0 01-2.75449-2.84545 2.7544847 2.8454499.0 012.75449-2.84546 2.7544847 2.8454499.0 012.75448 2.84546z" id="path4451-7"/><path style="display:inline;fill-opacity:1;fill:#000;opacity:1;stroke-dasharray:none;stroke-linecap:butt;stroke-linejoin:miter;stroke-miterlimit:4;stroke-opacity:1;stroke-width:0;stroke:#000" d="m268.05744 381.08669c3.14646-38.07398 13.31292-102.46029 29.06425-185.79167l.9671.10113c.40865 10.30847-22.74667 119.55275-28.15624 185.9365-1.30606-.0163-1.16175.40985-1.87511-.24596z" id="path4522-4-1-3-4-9"/></svg>