<svg viewBox="0 0 560 1e3"><g data-transform="boob" style="display:inline" id="g4587" transform="matrix(1.1247504,0,0,1.1247504,-26.347242,-34.609525)"><path style="fill-opacity:1;fill:#010101" id="path4531" d="m271.73345 260.91862c.065-.74329-1.70819-18.48926-1.12521-34.69038.003-.0964-19.79517 13.76707-19.8809 13.81216-1.52959.80455-3.42058 1.9614-5.76856 3.60973-9.78469 6.69753-21.31453 10.82141-26.74443 14.7899-.54445.39791-.66828 2.70307-.76291 3.35152-.65836 4.51134-1.66809 9.99655-.19947 14.9545.5788 2.79959 1.92116 5.11459 3.04085 7.21138 2.65234 4.96693 6.04765 7.87695 10.86115 8.57219 21.5829 3.2487 35.13223-12.1343 39.18878-20.05393 1.83647 8.16488 6.94853 14.47073 13.3338 17.64542 10.04423 4.99389 23.27331 3.62273 32.00152-1.35019 14.24159-8.46859 19.00686-29.49472.12112-46.95807-1.24033-1.44425-2.4413-2.70187-3.54079-3.8753-.36194-.36533-9.51822-9.25858-10.099-9.54612-8.93387 9.09968-21.67826 23.74747-30.42595 32.52719z"/><path style="fill-opacity:1;fill:#fae" id="path4533" d="m250.80319 239.92519c-2.11217 1.58135-4.28508 3.11053-5.92735 4.27017-5.84025 4.87392-21.34013 11.09517-25.80979 13.9564-.39537.25308-.72231 2.6909-.84921 3.07294-.70752 5.13443-.92153 9.56442-.30576 13.2861 1.01337 6.12496 3.33372 10.46932 6.44535 13.29915 2.48992 2.26451 5.53985 3.63861 8.78962 4.08772 10.49581 1.51314 19.86794-2.43574 27.29744-8.48888 4.20537-3.4345 7.18267-7.02269 9.92412-11.02226.12718.41876 1.87124 5.64497 5.46994 10.30596 2.123 2.74967 5.09638 5.02083 8.21123 6.75234.11303.0438.22593.0871.33871.12991 34.5912 13.12294 57.55039-22.51578 31.08151-47.52065-1.21885-1.39111-13.04097-13.66227-13.18956-13.99628-6.58839 8.98509-30.43267 32.86711-30.65476 33.47808-.20068-.33557-2.67856-26.68436-.65788-35.98931.0712-.32779-19.70137 13.93246-20.12251 14.35002-.0119.0118-.0411.0188-.0411.0289z"/><path id="path4535" class="shadow" d="m272.19169 258.88792c.80943-1.48623 1.35838-4.75934 1.75336-6.96753.0755-.42195.14376 2.11164-.34789 3.72203 2.50484-3.57809 5.36151-7.40366 7.64284-10.60934.11073-.1769-.23631 1.28365 56e-5 1.09001-3.14159 4.2326-6.6203 9.02137-9.04922 12.76484z"/><path d="m270.33492 269.98618c-.16754 2.01348.47911 3.25262.89408 5.36257-.66799-1.59942-1.31544-3.72955-.89408-5.36257z" class="shadow" id="path4347-6-8-2-3-5-2-7-3-0-8-3-8-1-5-0-65-8-8-2-9-6"/></g></svg>