<svg viewBox="0 0 560 1e3"><path style="display:inline;fill-opacity:1;fill-rule:evenodd;fill:#1a1a1a;opacity:1;stroke-dasharray:none;stroke-linecap:butt;stroke-linejoin:miter;stroke-miterlimit:4;stroke-opacity:1;stroke-width:0;stroke:#000" d="m362.23942 403.205c-1.63914.71499-20.42381 5.23423-27.5942 7.30598-.15164.0438 2.43085 12.54117 2.37095 12.58525-1.39788 1.02869-4.30989 2.32696-6.32968 2.24347-.1246-.005-2.07996-13.16326-2.19748-13.13239-22.26715 5.84838-63.38912 14.69111-90.34953 5.24921.0.0-4.77998 7.00945-4.89435 9.45213-.0118.25182-4.11568-5.68211-4.11011-5.76793.0483-.7439 3.22099-5.41414 3.22099-5.41414-2.51129-.94188-4.34455-2.98319-6.56166-4.18618-.23521-.2295-.83837-11.95541-.46502-11.96208 28.19078 20.34527 131.48865-6.4738 135.16088-8.93454 1.31906 1.33115 1.99717 10.64352 1.74921 12.56122z" id="path3017-5-3-1-6"/><path id="path2316-4-6" d="m362.62096 412.36033c.17594.29463.25367.39966.14343.43358-11.64785 3.58424-54.77333 12.56155-66.84263 28.92391-5.44325 7.37942-12.7957 15.81041-13.00807 16.4538-3.5825-2.3145-16.67981-13.10929-18.83826.27544-3.18111.37789-22.94602-35.81939-38.67143-44.63334.11113-.0316.41697-.90137.51991-1.06255.0911-.14259.28025.0854.40697.19488 43.76307 37.81395 119.04026-1.93695 136.1807-.71069z" style="display:inline;fill-opacity:1;fill-rule:evenodd;fill:#1a1a1a;opacity:1;stroke-dasharray:none;stroke-linecap:butt;stroke-linejoin:miter;stroke-miterlimit:4;stroke-opacity:1;stroke-width:0;stroke:#000"/><path style="display:inline;fill-opacity:1;fill-rule:nonzero;fill:#1a1a1a;opacity:1;stroke-dasharray:none;stroke-linecap:butt;stroke-linejoin:miter;stroke-miterlimit:4;stroke-opacity:1;stroke-width:0;stroke:#000" d="m293.39717 219.15201s-11.30379-8.0112-13.32421-14.80963c-.14531-.48895 1.08137-.85736 1.3252-.89177 2.11202 5.76737 13.33697 14.92636 13.80409 15.01048.45472.0819 22.94782-9.41365 27.20052-15.6514.11299.48255 1.442.4609 1.29391.92178-2.16457 6.73605-27.24014 15.72559-27.26746 15.74375-.0217.0182-1.49102.55747-1.70932.55652-.12548-.0318-1.25536-.836-1.32273-.87973z" id="path2362-0-0-3-5"/></svg>