<svg viewBox="0 0 560 1e3"><path id="path4424-7-4-0-6-7" d="m370.75046 269.36635c6.31421 22.27158-13.28198 77.51515-4.89678 101.61237-51.47437 16.09461-115.50482 10.21288-142.9618-4.21982 15.08982-72.75843-16.27033-131.91957 63.95183-166.04987 9.24713 11.38115 23.27589 1.97278 29.35552-3.29553-.32987 32.01707-5.37968 53.14553 54.55123 71.95285z" style="display:inline;fill-opacity:1;fill-rule:evenodd;fill:#000;opacity:1;stroke-dasharray:none;stroke-linecap:butt;stroke-linejoin:miter;stroke-miterlimit:4;stroke-opacity:1;stroke-width:0;stroke:#000"/><path id="path4426-5-7-1-5-9" d="m364.00095 369.8823c-50.34556 17.82383-121.93482 5.47106-138.51729-4.26933 9.87763-58.96026-10.85476-147.97007 56.01549-163.74167 4.03794-1.99488 5.81148-2.95253 7.20576-9.66821 1.65753 5.04021 26.78421.30993 27.17019.17659 7.83112 13.51631 18.89867 14.08736 20.6724 15.15094 26.97619.32338 32.77629 22.27233 33.28341 40.71368 5.70808 60.72748-13.39862 88.62433-5.82996 121.638z" style="display:inline;fill-opacity:1;fill-rule:evenodd;fill:#fff;opacity:1;stroke-dasharray:none;stroke-linecap:butt;stroke-linejoin:miter;stroke-miterlimit:4;stroke-opacity:1;stroke-width:0;stroke:#000"/><path style="display:inline;fill-opacity:1;fill:#000;opacity:1;stroke-dasharray:none;stroke-linecap:butt;stroke-linejoin:miter;stroke-miterlimit:4;stroke-opacity:1;stroke-width:0;stroke:#000" d="m291.59482 204.8803c-.007-.15238 5.39726-10.80323 5.46415-10.99796.0.0-7.77791-3.33813-7.92017-3.14363-.86438 1.18176-2.48505 4.21861-3.88833 5.92157.099.227 6.34435 8.22002 6.34435 8.22002z" id="path4428-5-9-5-2-5"/><path style="display:inline;fill-opacity:1;fill:#fff;opacity:1;stroke-dasharray:none;stroke-linecap:butt;stroke-linejoin:miter;stroke-miterlimit:4;stroke-opacity:1;stroke-width:0;stroke:#000" d="m291.55833 202.78945c-.007-.14941 5.05548-8.90542 5.12046-9.09636.0.0-7.64312-3.2987-7.78132-3.10799-.83967 1.15876-2.41401 4.13649-3.77718 5.8063.0962.22258 6.43804 6.39805 6.43804 6.39805z" id="path4430-1-1-0-7-6"/><path style="display:inline;fill-opacity:1;fill:#000;opacity:1;stroke-dasharray:none;stroke-linecap:butt;stroke-linejoin:miter;stroke-miterlimit:4;stroke-opacity:1;stroke-width:0;stroke:#000" d="m302.35818 205.29925c.007-.15238-3.99545-11.03492-4.06234-11.22965.0.0 17.81046-3.16894 17.95272-2.97444.86438 1.18176 2.6413 5.37486 3.07583 6.04657-.099.227-16.96621 8.15752-16.96621 8.15752z" id="path4432-6-3-3-8-5"/><path style="display:inline;fill-opacity:1;fill:#fff;opacity:1;stroke-dasharray:none;stroke-linecap:butt;stroke-linejoin:miter;stroke-miterlimit:4;stroke-opacity:1;stroke-width:0;stroke:#000" d="m303.01527 204.17715c.007-.14856-4.18866-10.02774-4.25456-10.21759.0.0 16.82532-3.14512 16.96549-2.9555.85164 1.15214 2.60238 5.24014 3.03051 5.89501-.0975.22131-15.74144 7.27808-15.74144 7.27808z" id="path4434-4-3-0-2-3"/><path style="display:inline;fill-opacity:1;fill-rule:nonzero;fill:#999;opacity:1;stroke-dasharray:none;stroke-linecap:butt;stroke-linejoin:round;stroke-miterlimit:4;stroke-opacity:1;stroke-width:0;stroke:#000" d="m300.87394 220.43307a2.7544847 2.8454499.0 01-2.75448 2.84545 2.7544847 2.8454499.0 01-2.75449-2.84545 2.7544847 2.8454499.0 012.75449-2.84546 2.7544847 2.8454499.0 012.75448 2.84546z" id="path4439-3-4-0-4-0"/><path style="display:inline;fill-opacity:1;fill-rule:nonzero;fill:#999;opacity:1;stroke-dasharray:none;stroke-linecap:butt;stroke-linejoin:round;stroke-miterlimit:4;stroke-opacity:1;stroke-width:0;stroke:#000" d="m297.69369 242.50598a2.7544847 2.8454499.0 01-2.75448 2.84545 2.7544847 2.8454499.0 01-2.75449-2.84545 2.7544847 2.8454499.0 012.75449-2.84546 2.7544847 2.8454499.0 012.75448 2.84546z" id="path4441-3-4-1-3-9"/><path style="display:inline;fill-opacity:1;fill-rule:nonzero;fill:#999;opacity:1;stroke-dasharray:none;stroke-linecap:butt;stroke-linejoin:round;stroke-miterlimit:4;stroke-opacity:1;stroke-width:0;stroke:#000" d="m293.61894 266.74921a2.7544847 2.8454499.0 01-2.75448 2.84545 2.7544847 2.8454499.0 01-2.75449-2.84545 2.7544847 2.8454499.0 012.75449-2.84546 2.7544847 2.8454499.0 012.75448 2.84546z" id="path4443-5-5-7-1-3"/><path style="display:inline;fill-opacity:1;fill-rule:nonzero;fill:#999;opacity:1;stroke-dasharray:none;stroke-linecap:butt;stroke-linejoin:round;stroke-miterlimit:4;stroke-opacity:1;stroke-width:0;stroke:#000" d="m289.87262 290.7449a2.7544847 2.8454499.0 01-2.75448 2.84545 2.7544847 2.8454499.0 01-2.75449-2.84545 2.7544847 2.8454499.0 012.75449-2.84546 2.7544847 2.8454499.0 012.75448 2.84546z" id="path4445-1-0-6-8-7"/><path style="display:inline;fill-opacity:1;fill-rule:nonzero;fill:#999;opacity:1;stroke-dasharray:none;stroke-linecap:butt;stroke-linejoin:round;stroke-miterlimit:4;stroke-opacity:1;stroke-width:0;stroke:#000" d="m286.44248 313.2326a2.7544847 2.8454499.0 01-2.75448 2.84545 2.7544847 2.8454499.0 01-2.75449-2.84545 2.7544847 2.8454499.0 012.75449-2.84546 2.7544847 2.8454499.0 012.75448 2.84546z" id="path4447-0-7-8-3-0"/><path style="display:inline;fill-opacity:1;fill-rule:nonzero;fill:#999;opacity:1;stroke-dasharray:none;stroke-linecap:butt;stroke-linejoin:round;stroke-miterlimit:4;stroke-opacity:1;stroke-width:0;stroke:#000" d="m282.44616 338.28711a2.7544847 2.8454499.0 01-2.75448 2.84545 2.7544847 2.8454499.0 01-2.75449-2.84545 2.7544847 2.8454499.0 012.75449-2.84546 2.7544847 2.8454499.0 012.75448 2.84546z" id="path4449-3-4-4-5-3"/><path style="display:inline;fill-opacity:1;fill-rule:nonzero;fill:#999;opacity:1;stroke-dasharray:none;stroke-linecap:butt;stroke-linejoin:round;stroke-miterlimit:4;stroke-opacity:1;stroke-width:0;stroke:#000" d="m279.59261 361.69517a2.7544847 2.8454499.0 01-2.75448 2.84545 2.7544847 2.8454499.0 01-2.75449-2.84545 2.7544847 2.8454499.0 012.75449-2.84546 2.7544847 2.8454499.0 012.75448 2.84546z" id="path4451-7-8-9-6-8"/><path style="display:inline;fill-opacity:1;fill:#000;opacity:1;stroke-dasharray:none;stroke-linecap:butt;stroke-linejoin:miter;stroke-miterlimit:4;stroke-opacity:1;stroke-width:0;stroke:#000" d="m269.29487 377.90471c3.14646-38.07398 12.07549-99.27831 27.82682-182.60969l.9671.10113c.40865 10.30847-21.50924 116.37077-26.91881 182.75452-1.30606-.0163-1.16175.40985-1.87511-.24596z" id="path4522-4-1-3-4-9-1-4-3-1"/><path style="display:inline;fill-opacity:1;fill-rule:evenodd;fill:#000;opacity:1;stroke-dasharray:none;stroke-linecap:butt;stroke-linejoin:miter;stroke-miterlimit:4;stroke-opacity:1;stroke-width:0;stroke:#000" d="m363.55662 415.54988c32.97194 41.12226-1.24331 71.65024-6.07924 88.08524-2.01061 6.83307 4.74255 12.01889-82.59133 8.00899-17.30311-1.81576-59.24343-1.2282-59.21094-1.53911 3.78245-36.19606 7.99325-78.41876 10.95791-98.49639 36.34163 12.28427 69.78725 21.65924 136.9236 3.94127z" id="path3202-9-5-0"/><path style="display:inline;fill-opacity:1;fill-rule:evenodd;fill:#333;opacity:1;stroke-dasharray:none;stroke-linecap:butt;stroke-linejoin:miter;stroke-miterlimit:4;stroke-opacity:1;stroke-width:0;stroke:#000" d="m364.76874 416.65163c32.8228 40.39855.80601 68.12286-7.19006 86.7435-2.76395 6.43649 17.95903 12.02833-82.2693 5.50142-17.22485-1.7838-59.61101 1.398-59.64703 1.09296-4.19847-35.55905.13699-81.60923 10.05658-97.40391 36.42612 14.76968 92.66584 18.25681 139.04981 4.06603z" id="path3204-7-3-4"/><path d="m328.65216 423.61908c-15.47911 1.19068-42.03654 26.26041-44.60914 30.99635 10.29989-9.14088 29.75952-26.28541 44.60914-30.99635z" class="shadow" id="path3231-8-2-6"/><path d="m260.91006 455.46737c-6.81704-9.41592-28.83006-31.99347-34.93819-34.15183 5.05404 5.44075 26.5203 25.35081 34.93819 34.15183z" class="shadow" id="path3233-8-64-5"/></svg>