<svg viewBox="0 0 560 1e3"><path style="display:inline;fill-opacity:1;fill-rule:evenodd;fill:#000;stroke-dasharray:none;stroke-linecap:butt;stroke-linejoin:miter;stroke-miterlimit:4;stroke-opacity:0;stroke-width:2.98052025;stroke:#000" d="m331.73047 378.14251c49.00736 57.53431 48.44026 73.22914 44.22078 87.41844-.23739.79832-.0649 1.65973-.1119 2.48551-.0463.81306-9.55115 5.47315-9.55115 5.47315-2.74425-17.9562-33.01392-88.52942-34.55773-95.3771z" id="path4286"/><path style="display:inline;fill-opacity:1;fill-rule:evenodd;fill:#c8c8c8;stroke-dasharray:none;stroke-linecap:butt;stroke-linejoin:miter;stroke-miterlimit:4;stroke-opacity:0;stroke-width:2.98052025;stroke:#000" d="m332.68791 381.79345c41.8693 49.34904 46.10318 64.86651 43.28874 83.77391-.1199.8055-8.9945 5.15264-9.07484 5.26903-2.74425-17.9562-32.67009-82.19526-34.2139-89.04294z" id="path4288"/><path d="m376.17448 464.29868c-2.91834 1.15884-8.03645 3.79916-8.41034 3.84583.0711-.41289-.24151.46044.19641-2.12944.44841-.21697 4.38467-2.26869 8.44125-3.62035-.0154.24866-.2238 1.59533-.22732 1.90396z" id="path3978-6-4-8-8-1-6-0-4-1" style="fill:#502"/></svg>