<svg viewBox="0 0 560 1e3"><path id="path8396" d="m272.86805 487.2218c.006.76463-1.26748 10.41615-9.51633 10.05239-4.03925-.17813-9.69059-8.56587-9.69688-9.3305-.59998-1.44434.36392-1.93673.66099-2.13159.76927-.50458 2.55199 1.80613 9.22342 1.94369 4.0418.0833 9.3225-1.29865 9.3288-.53401z" style="display:inline;fill:#000;opacity:1;stroke-width:.88120121"/><path id="path8398" d="m261.49682 490.23852c-.6147.21487-1.0568-.0981-1.74867-.12575-1.95725-13.91054 5.64712-40.00458 7.85229-42.13965.39936.183 1.89808-.14224 1.73482.39147-.98547 3.22145-8.14265 22.70067-7.83844 41.87393z" style="display:inline;fill:#000;opacity:1;stroke-width:.83808213"/><path id="path8400" d="m270.26917 492.21466c-.63922.20276-1.09894-.0926-1.81839-.11865.25921-11.44469 5.53637-36.81072 8.16536-39.7635.41527.17269.81385 1.59241.64408 2.09603-1.02475 3.0398-5.94045 20.88894-6.99105 37.78612z" style="display:inline;fill:#000;opacity:1;stroke-width:.83018112"/><path id="path8402" d="m254.83818 488.24018c-.63832.20276-.44218-.0926-1.16062-.11865-.99697-11.60055 2.96235-33.48567 8.48148-38.88028.41469.17268.61353.7664.31557 1.21281-1.02331 1.53314-8.77134 15.38183-7.63643 37.78612z" style="display:inline;fill:#000;opacity:1;stroke-width:.82959706"/><path id="path8404" d="m272.92982 487.63406c.006.68864-1.25235 9.38094-9.40278 9.05333-3.99105-.16042-9.57496-7.71455-9.58117-8.40319-.59283-1.3008.35957-1.74424.6531-1.91974.76009-.45443 2.52154 1.62662 9.11337 1.75051 3.99357.075 9.21126-1.16958 9.21748-.48094z" style="fill:#bababa;stroke-width:.83126247"/><path id="path8406" d="m262.41335 496.47764c-.66979-.39204-1.38563-1.32258-1.08849-2.19477.36007.5115.72384 1.57857 2.15228 2.41035-.58614.006-.99621-.16988-1.06379-.21558z" style="display:inline;fill:#000;opacity:1;stroke-width:.83126247"/><path id="path8408" d="m253.48515 477.72194c-.0295 1.03982-.0287 2.34583-.0708 3.80234 5.15007 3.4608 17.08366 1.54208 19.92767.50599.0244-.36113.38876-4.0528.31642-4.02871-2.40357.80024-14.36131 2.1922-20.1733-.27962z" style="display:inline;fill:#000;opacity:1;stroke-width:.84432989"/><path id="path8410" d="m254.31322 470.02286c-.0946.77007-.27966 2.345-.43336 3.76528 5.15007 3.50994 17.63208 1.67777 20.47609.62698.0244-.36627.6955-4.11036.62317-4.08593-2.40358.81163-14.85397 2.20058-20.66595-.30633z" style="display:inline;fill:#000;opacity:1;stroke-width:.85030264"/><path id="path8412" d="m256.15158 461.38527c-.0948.7539-.62249 2.26425-.77644 3.6547 5.79081 2.2388 17.71453 1.42198 20.98473.77139.0244-.35858.8573-4.03583.78222-4.03165-4.09308.22736-15.16875.98842-20.99055-.39444z" style="display:inline;fill:#000;opacity:1;stroke-width:.84204012"/><path id="path8414" d="m258.98384 453.53398c-.22638.56749-.99331 2.63671-1.16686 3.2606 5.86191 1.93778 16.53802 1.36369 20.22681.70099.0245-.35349-.25098-3.8017-.32567-3.78817-2.8706.51972-12.78617.88415-18.73432-.17342z" style="display:inline;fill:#000;opacity:1;stroke-width:.8384046"/><path id="path8416" d="m259.12816 454.27108c.0185.55487 1.05431.37949 1.20408.35557 6.39257-11.80071 14.67471-3.09293 16.28603.21183.48915.31192 1.07458-.21413 1.06536-.28803-1.01479-8.12791-13.83413-14.18387-18.55551-.27936z" style="display:inline;fill:#000;opacity:1;stroke-width:.76553082"/><path id="path8418" d="m261.69428 489.68122c-.60737.21394-1.04419-.0977-1.72781-.12521-1.7799-12.35019 6.19575-39.88316 7.7586-41.95726.39459.18221 1.87543-.14164 1.71411.38977-.9737 3.20751-8.04549 22.60242-7.7449 41.6927z" style="display:inline;fill:#bababa;opacity:1;stroke-width:.83126247"/><path id="path8420" d="m253.77821 478.243c-.0292.85108-.0283 1.92005-.07 3.1122 5.08863 2.83266 16.87982 1.26218 19.6899.41415.0241-.29559.38412-3.31721.31265-3.29749-2.37489.65501-14.18996 1.79432-19.93259-.22886z" style="display:inline;fill:#bababa;opacity:1;stroke-width:.7593016"/><path id="path8422" d="m254.59639 470.65039c-.0935.62148-.27632 1.89251-.42819 3.03873 5.08862 2.83266 17.42169 1.35402 20.23177.50599.0241-.29558.6872-3.31721.61573-3.29749-2.37489.65501-14.67672 1.77595-20.41936-.24723z" style="display:inline;fill:#bababa;opacity:1;stroke-width:.7593016"/><path id="path8424" d="m256.44781 461.83072c-.0935.62147-.61402 1.86652-.76588 3.01274 5.71207 1.84554 17.47364 1.17219 20.69936.63588.0241-.29559.84565-3.32691.77159-3.32347-4.03742.18743-14.96247.81481-20.70511-.32515z" style="display:inline;fill:#bababa;opacity:1;stroke-width:.7593016"/><path id="path8426" d="m259.3481 453.86709c-.22205.47453-.97433 2.20477-1.14456 2.72646 5.74989 1.62034 16.22198 1.1403 19.84027.58616.0241-.29559-.24617-3.17892-.31944-3.16761-2.81574.43459-12.54183.73932-18.37631-.14501z" style="display:inline;fill:#bababa;opacity:1;stroke-width:.7593016"/><path id="path8428" d="m259.35388 453.88654c.0182.53821 1.04172.36809 1.18971.34488 6.31629-11.44656 14.49961-3.0001 16.0917.20548.48332.30257 1.06278-.20782 1.05265-.27938-1.07528-7.59892-13.16088-13.11678-18.3341-.27097z" style="display:inline;fill:#bababa;opacity:1;stroke-width:.74944484"/><path id="path8430" d="m270.61943 492.21466c-.60737.20276-1.04419-.0926-1.72781-.11865.24631-11.44469 5.26058-36.81072 7.7586-39.7635.39459.17269.77331 1.59241.612 2.09603-.97371 3.0398-5.64453 20.88894-6.64279 37.78612z" style="display:inline;fill:#bababa;opacity:1;stroke-width:.80923909"/><path id="path8432" d="m255.21529 488.24018c-.60737.20276-.42074-.0926-1.10435-.11865-.94864-11.60055 2.81874-33.48567 8.07032-38.88028.39459.17268.58378.7664.30027 1.21281-.9737 1.53314-8.34613 15.38183-7.26624 37.78612z" style="display:inline;fill:#bababa;opacity:1;stroke-width:.80923909"/></svg>