<svg viewBox="0 0 560 1e3"><path style="display:inline;fill-opacity:1;fill:#464646;stroke-width:.47898471" d="m247.21096 437.19208c-2.05081-3.48515-6.43112-12.5398-7.53942-15.58494-.50044-1.37504-1.61593-3.74097-2.47885-5.25762-2.09004-3.67351-2.68632-6.43413-1.8604-8.6131 1.37102-3.61699 2.64252-7.47967 3.10632-9.43669.60171-2.53886 1.3835-3.41658 1.01782-1.14273-.64249 3.99513-2.33483 11.33549-2.89303 12.54828-.5561 1.20818-.54569 1.56362.10768 3.674.39787 1.28501 1.13723 2.97254 1.64301 3.75003.50583.77749 2.74346 5.1015 4.97252 9.60892 2.22907 4.5074 4.42901 8.86917 4.88878 9.69285 2.13628 3.82721 1.25089 4.5258-.96445.761z" id="path6393"/><path style="display:inline;fill-opacity:1;fill:#464646;stroke-width:.88785607" d="m242.07028 386.00001c0-1.88731 1.90232-8.98714 2.15362-8.03776.0905.34192-.0816 2.66344-.38268 5.15897-.52254 4.33281-1.77094 6.36215-1.77094 2.87879z" id="path6397"/><path style="display:inline;fill-opacity:1;fill:#464646;stroke-width:.71543431" d="m266.06399 317.79777c.89046-1.0408 5.34093-2.46001 5.84967-1.86538.26251.30697-.72106.99005-2.18597 1.51795-3.05698 1.10165-4.41952 1.23086-3.6637.34743z" id="path6407"/><path style="display:inline;fill-opacity:1;fill:#464646;opacity:1;stroke-width:.54046547" d="m314.28278 425.16635c.47266-.69407 1.53246-1.78738 2.35511-2.42959 1.63824-1.27888 5.78988-7.56448 7.03453-10.6503.64825-1.6072 1.86075-3.02317 1.09442-6.85886-1.25034-6.25845-1.26356-6.53059-.31697-6.53059.99936.0 2.73366 3.59933 3.79766 7.88148.77657 3.12531-.47352 3.45864-2.41357 6.60692-1.07861 1.75037-2.95231 4.31645-4.16374 5.70243-2.45949 3.81-7.85332 9.41626-7.85332 9.41626s-7.09995 6.18491.46588-3.13775z" id="path4817-8-4-1-4"/><path style="display:inline;fill-opacity:1;fill:#464646;stroke-width:.76042944" d="m266.26979 420.5547c-1.69242-6.70782-.10105-20.05559 3.50027-29.36008 1.80476-5.67255 1.54544-10.55241.91924-15.45589-.1353-1.05945-5.05993.9683-9.52527.55431-5.33942-.49502-10.36404-3.34157-10.41138-3.6221-.0466-.27644 8.19959 2.07757 11.36883 2.13559 2.75445.0504 8.09284-1.9237 8.04879-2.1652-.97608-5.35093-.67547-17.6087-.47565-24.33469.0166-.55972-3.85658.83314-7.57974.54072-3.8001-.29847-7.45128-2.28248-7.38745-2.89003.0679-.64604 4.73249 1.64096 8.86404.66729 3.62176-.85354 6.33056-.37381 6.88423-5.57492 1.96606-4.97502.29001-11.13089 3.57551-13.89457 1.98595-1.09046 2.08747.82982.28607 5.41078-2.09004 4.9455-.44204 4.00983-1.46459 8.69235-2.69954 6.38446 2.79757 6.02903 7.91603 6.33838 8.24492.49831 21.50914-5.44896 21.37324-4.75339-.14103.72183-12.02497 6.26742-20.22853 6.9669-6.0101.51246-9.9819-.49054-10.0464-.0138-.73069 5.39989-2.31601 15.23067-.26633 23.62471-.0475 1.88236 15.19117 2.55371 18.12267 2.2172 3.72724-.42789 12.41186-3.02217 14.00995-1.52987-.1356.43971-9.40621 3.14299-16.45425 2.94661-4.4481-.12393-11.37648-1.36388-12.91274-.81998-1.62362.57482-1.73258 2.66508-1.01434 5.07058.33408 3.92792.0774 5.27754-1.63611 8.6012-5.28175 10.24501-5.36506 19.63795-4.24613 28.06938.6089 4.58799-.25324 6.41027-1.21996 2.57865z" id="path4767-2-2-0-6"/><path id="path6557-4" d="m316.89508 371.82243c-1.19106-1.69151-3.34125-7.53435-3.34125-9.0794.0-2.66026 1.49944-1.40874 2.45089 2.0457.52347 1.90053 1.44069 4.50001 2.0383 5.77668 1.09103 2.33076.25374 3.2476-1.14794 1.25702z" style="display:inline;fill-opacity:1;fill:#464646;stroke-width:.70040137"/><path id="path6559-7" d="m312.58823 348.15096c-.0151-1.6722.0668-5.31839-.12639-8.27563l-.35022-5.36027-3.37194-4.68548c-1.85458-2.57699-3.11973-4.87287-2.81148-5.10192.64484-.47914 6.02736 4.09795 6.04541 5.14084.008.381.7011 1.33416 1.54338 2.11814l1.53137 1.42541 5.73102-2.97831c3.15209-1.63808 5.8907-2.85801 6.08581-2.71094.19514.14707-1.94038 1.76546-4.74557 3.59649-2.80521 1.83101-5.67077 4.03293-6.36792 4.89316-1.05104 1.2969 5.12808-.55381 5.79789.70971-8.605 1.93342-6.83217 8.05251-7.08069 9.49496-.75205 4.36487-1.84931 5.37645-1.88067 1.73384z" style="display:inline;fill-opacity:1;fill:#464646;stroke-width:.70040137"/><path id="path6561-3" d="m333.83614 325.69752c0-.31996.74681-.72891 1.6596-.90883 1.05568-.20808 1.54507-.068 1.34495.38514-.38635.87457-3.00455 1.33098-3.00455.52369z" style="display:inline;fill-opacity:1;fill:#464646;stroke-width:.70040137"/><path id="path6565-9" d="m294.2938 316.22446c-1.9967-.77691-4.44721-1.42386-5.44556-1.43764-.99835-.0133-1.8152-.29869-1.8152-.63313.0-1.08519 3.23147-.6449 7.10553.96812 6.65663 2.77159 6.78485 3.68221.1553 1.10265z" style="display:inline;fill-opacity:1;fill:#464646;stroke-width:.70040137"/><path id="path6567-6" d="m321.88651 390.62999c-.82092-1.75357-2.21512-8.92328-1.57839-8.11685.22933.2904 1.08587 2.49926 1.90324 4.90864 1.4193 4.18318 1.19032 6.44475-.32485 3.20821z" style="display:inline;fill-opacity:1;fill:#464646;stroke-width:.86920017"/><path id="path6569-6" d="m326.97577 335.46769c4.39739.25999 14.29699-5.15022 15.07828-5.91899-.63103 4.01133-14.72013 8.22908-15.07828 5.91899z" style="display:inline;fill-opacity:1;fill:#464646;opacity:1;stroke-width:1.45392561"/><path id="path6562-0-6" d="m249.38853 337.8833c-.0344-.91893-2.28647-1.83259-3.64061-5.43853 1.9705 1.6031 3.68005 2.32024 3.75787 1.74184.16217-1.20526.4645-2.77678 1.21372-3.99501 1.38786-2.25672 7.84401-8.13299 8.93555-8.13299 1.10459.0.0806 1.62314-2.58181 4.0918-4.35589 4.03916-5.75202 6.75406-6.63301 11.79604l-.86418 4.94575z" style="display:inline;fill-opacity:1;fill:#464646;opacity:1;stroke-width:.70841432"/></svg>