<svg viewBox="0 0 560 1e3"><path style="display:inline;fill-opacity:1;fill-rule:evenodd;fill:#000;opacity:1;stroke-dasharray:none;stroke-linecap:butt;stroke-linejoin:miter;stroke-miterlimit:4;stroke-opacity:1;stroke-width:0;stroke:#000" d="m369.70236 252.58602c.23724.8312-3.5766 34.28861-8.38541 46.40011-33.60788-4.288-93.98139-10.72092-122.15471-4.09947-3.9156-19.75388 3.34498-46.24715 4.36817-48.95701 17.34142-11.82315 22.98494-27.37566 33.20505-40.29646-.20578-.10769.98637-.32991 2.81284-.93373-3.68896 22.23095 44.18084 11.81257 51.29891 1.13282 2.65591.76603 5.77774 1.30178 5.77774 1.30178-2.50818 38.73816 13.81431 35.96141 33.07741 45.45196z" id="path3118"/><path style="display:inline;fill-opacity:1;fill-rule:evenodd;fill:#333;opacity:1;stroke-dasharray:none;stroke-linecap:butt;stroke-linejoin:miter;stroke-miterlimit:4;stroke-opacity:1;stroke-width:0;stroke:#000" d="m369.72602 252.31519c-.23212 1.79731-4.71179 34.91499-8.72324 46.11753-48.30238-7.27876-99.8492-9.19473-120.85293-4.80865-4.0832-13.06464 3.51681-47.46849 3.51681-47.46849 17.76843-9.12056 22.45835-26.39457 33.04848-40.57226.84544-.17546 1.70483-.38601 2.56536-.63893-4.82898 22.98057 45.03234 14.37734 52.03839 1.01371 1.9144.66913 3.96656.65204 5.476 1.11851-2.5296 33.39255 5.10091 36.93935 32.93113 45.23858z" id="path3120"/></svg>