<svg viewBox="0 0 560 1e3"><path style="display:inline;fill-opacity:1;fill-rule:evenodd;fill:#000;opacity:1;stroke-dasharray:none;stroke-linecap:butt;stroke-linejoin:miter;stroke-miterlimit:4;stroke-opacity:1;stroke-width:0;stroke:#000" d="m368.45236 268.83602c.40069 1.40387.82871 12.89967-6.36035 37.77919-5.42713 18.7819-16.94382 30.35812-17.5402 31.8162-17.91841 29.60282-7.90859 40.30156 6.61269 73.07508-.0628-.0863-44.40528 18.88386-64.58523 39.82692-4.92627 5.11256-3.48792 15.45153-7.05147 16.69466-13.46483 4.69716-17.71458-10.66263-17.71458-10.66263-6.67546-8.9041-31.61517-37.91932-36.98843-43.61421 6.00011-14.77478 8.2392-18.0908 13.16238-39.02683 4.933-24.62184 5.61437-34.09551 5.66064-35.92365.54922-21.69994-6.39283-31.2152-7.1663-48.50256.11596-7.75253 1.85986-29.35579 2.55041-29.69867 2.56233-.27052 28.50487-50.41269 30.83446-50.67598.38317-.0433 1.30189-.46742 1.13878-.12618-6.5722 13.74958-18.07304 27.49077-15.80669 39.5385 4.12442 21.92504 55.22978 17.72067 82.36123-.32503 7.88607-5.24519 9.73906-33.375 10.58378-39.9358.0504-.39173.59395-.0147.9865.0519 3.71946.63121.51268 21.90493-1.01701 37.33547-.27131 2.73682 13.8792 18.96958 16.69624 19.62884z" id="path4234"/><path style="display:inline;fill-opacity:1;fill-rule:evenodd;fill:#303648;opacity:1;stroke-dasharray:none;stroke-linecap:butt;stroke-linejoin:miter;stroke-miterlimit:4;stroke-opacity:1;stroke-width:0;stroke:#000" d="m368.47602 268.56519c-.47811 3.70196-2.18838 20.64961-7.95729 39.14162-4.16837 13.36154-15.52339 28.71626-16.52871 29.92604-17.40983 25.32678-11.91051 41.9728 7.57647 74.28779-.55664.0414-42.20151 17.62931-62.04329 38.41775-.71068.74459-6.07426 6.62641-6.2548 8.73106.0.0.53133 10.27371-8.37999 10.65699-10.28153.44221-13.38213-12.18633-13.38213-12.18633-7.20724-7.93245-34.09162-42.66604-36.8074-43.16014 11.7766-16.91626 20.16804-70.46702 20.33751-73.34117 1.27707-21.66848-5.7135-33.69742-6.60253-46.23478-1.01459-11.44597-.13881-26.49203 2.11025-35.52664.14512-.56508 1.51742-7.1576 1.62597-7.60304.85921-.13528 25.99561-40.86079 26.84674-40.98901.56292-.0848 2.64736-2.09838 2.38253-1.60631-8.90463 16.54534-20.87038 32.00049-17.6057 41.9634 6.73852 20.56413 58.5492 16.69477 83.84088-.90489 7.07144-4.92078 10.25512-32.15357 10.47496-41.04867.015-.60829 1.34316-.0509 1.77633.36577 2.87431 2.76493-2.87005 30.90016-2.70428 35.40506.36332 9.87321 20.09614 22.99504 21.29448 23.7055z" id="path4236"/></svg>