<svg viewBox="0 0 560 1e3"><path id="path3593" d="m345.4742 215.07561c-2.36763-3.9611-5.54697-5.55018-2.40748-5.89858 8.38874-.93095 34.71234 8.16419 37.24437 13.34241-.15544-.0151 14.22429 17.30588 20.766 57.07526-13.71763 12.885-27.49169 12.37396-31.43372 13.95483-6.655-20.82571-23.85531-78.04803-24.16917-78.47392z" style="display:inline;fill-opacity:1;fill-rule:evenodd;fill:#000;stroke-dasharray:none;stroke-linecap:butt;stroke-linejoin:miter;stroke-miterlimit:4;stroke-opacity:0;stroke-width:3.10714054;stroke:#000"/><path id="path3595" d="m347.79149 214.93549c-2.23963-3.9037-5.24707-5.46975-2.27732-5.81311 7.93519-.91744 32.83557 8.04588 35.2307 13.14906-.15531-.0157 12.45493 18.09166 19.54173 56.83948-11.17164 9.01883-21.51128 11.29094-30.12822 12.57176-5.55473-18.09169-22.09594-76.36414-22.36689-76.74719z" style="display:inline;fill-opacity:1;fill-rule:evenodd;fill:#ececec;stroke-dasharray:none;stroke-linecap:butt;stroke-linejoin:miter;stroke-miterlimit:4;stroke-opacity:0;stroke-width:3;stroke:#000"/><path style="display:inline;fill-opacity:1;fill-rule:evenodd;fill:#000;stroke-dasharray:none;stroke-linecap:butt;stroke-linejoin:miter;stroke-miterlimit:4;stroke-opacity:0;stroke-width:3.52519441;stroke:#000" d="m410.57397 298.6523c-1.5106-5.95124-4.85892-16.91443-6.87172-23.0558-9.19633-.48663-32.24095 6.37831-42.72039 6.81146 2.2431 9.7746 4.37175 19.68889 5.19987 24.04913 23.04176-.9801 43.76033-7.96955 44.39224-7.80479z" id="path3619-7-4-9"/><path style="display:inline;fill-opacity:1;fill-rule:evenodd;fill:#ececec;stroke-dasharray:none;stroke-linecap:butt;stroke-linejoin:miter;stroke-miterlimit:4;stroke-opacity:0;stroke-width:3.23364592;stroke:#000" d="m409.22632 297.79899c-1.4046-5.46704-4.51055-15.54004-6.37616-21.18311-8.43235-.47527-30.39335 6.17397-39.99897 6.53894 2.08878 8.9786 4.07312 18.08509 4.84681 22.08968 21.12035-.82797 40.94845-7.59869 41.52832-7.44551z" id="path3619-7-3-9-8"/></svg>