<svg viewBox="0 0 560 1e3"><g data-transform="art" style="display:none" id="Arm_Outfit_Western_Left_Thumb"><path style="display:inline;fill-opacity:1;fill-rule:evenodd;fill:#000;stroke-dasharray:none;stroke-linecap:butt;stroke-linejoin:miter;stroke-miterlimit:4;stroke-opacity:0;stroke-width:3.09411693;stroke:#000" d="m346.23322 215.0979c-2.35682-3.946-20.29304-9.49697-17.17028-9.86339 77.12258-8.49025 65.08099 54.21028 62.45224 113.86458-1.00715 1.55395 14.67881-7.01806 14.91493-6.72548 6.24189 5.90997 12.804 8.10451 14.79277 10.09447-5.27042 6.82525-14.75913 13.114-24.06365 18.28882-17.46579 9.7138-31.6887 10.24391-33.74553.94468-1.24298-10.83476 1.34017-20.78968-2.44377-43.11079-3.79604-22.39256-3.25959-57.42228-14.73671-83.49289z" id="path5624"/><path style="display:inline;fill-opacity:1;fill-rule:evenodd;fill:#ff80b2;stroke-dasharray:none;stroke-linecap:butt;stroke-linejoin:miter;stroke-miterlimit:4;stroke-opacity:0;stroke-width:3;stroke:#000" d="m347.79149 214.93549c-2.23963-3.9037-19.28401-9.39515-16.31653-9.75765 70.83758-6.4631 61.6333 53.27355 59.34691 112.64388-.95706 1.5373 15.32642-5.73903 15.5172-5.51664 5.99987 6.52378 14.44927 8.92523 14.93718 10.1993-20.25342 20.02208-53.80925 34.21289-57.15856 17.67752-1.18117-10.7186 1.27353-20.56679-2.32225-42.64862-3.60729-22.15249-3.09751-56.80667-14.00395-82.59779z" id="path5626"/><path style="display:inline;fill-opacity:1;fill-rule:evenodd;fill:#000;stroke-dasharray:none;stroke-linecap:butt;stroke-linejoin:miter;stroke-miterlimit:4;stroke-opacity:0;stroke-width:3.07272649;stroke:#000" d="m406.06636 312.25463c6.09414 6.73806 14.67628 9.21838 15.17186 10.53431-.0841.39304-13.31706 13.17227-13.60917 13.03888-5.40189-2.46673-14.12018-17.33745-13.81335-18.96457.0664-.35171 11.47303-4.34226 12.25066-4.60862z" id="path5628"/><path style="display:inline;fill-opacity:1;fill-rule:evenodd;fill:#ff80b2;stroke-dasharray:none;stroke-linecap:butt;stroke-linejoin:miter;stroke-miterlimit:4;stroke-opacity:0;stroke-width:3;stroke:#000" d="m406.33907 312.30508c5.99987 6.52378 14.44927 8.92523 14.93718 10.1993-.0828.38055-13.21775 12.86402-13.50534 12.73487-5.31834-2.38828-13.54481-16.54139-13.24272-18.11678.0653-.34052 11.04528-4.5595 11.81088-4.81739z" id="path5630"/><path style="display:inline;fill-opacity:1;fill-rule:evenodd;fill:#1a1a1a;stroke-dasharray:none;stroke-linecap:butt;stroke-linejoin:miter;stroke-miterlimit:4;stroke-opacity:0;stroke-width:3;stroke:#000" d="m408.73169 333.46731c-2.31314-.13438-1.70077-2.797-.38221-2.86979 2.322-.22348 2.32757 2.75956.38221 2.86979z" id="path5632"/><path style="display:inline;fill-opacity:1;fill-rule:evenodd;fill:#1a1a1a;stroke-dasharray:none;stroke-linecap:butt;stroke-linejoin:miter;stroke-miterlimit:4;stroke-opacity:0;stroke-width:3;stroke:#000" d="m414.96632 327.3009c-2.31314-.13438-1.70077-2.797-.38221-2.86979 2.322-.22348 2.32757 2.75956.38221 2.86979z" id="path5634"/></g><g data-transform="art" id="Arm_Outfit_Western_Left_Rebel" style="display:none"><path id="path5638" d="m347.88359 215.191c-2.25324-4.00541-13.73665-6.81616-10.82802-7.59701 19.72162-5.29453 43.52841 4.62786 45.9381 9.86401-.22298-.023 31.90628 19.92899 50.67052 37.45953-.0867 1.05301 71.25326 28.08793 70.91938 29.07703-5.34106 15.82348-5.07559 22.87738-7.0265 21.97442-7.85013-3.63339-41.38873-3.81481-52.39917-9.61942-66.71555-35.17195-86.24158-42.54428-97.27431-81.15856z" style="display:inline;fill-opacity:1;fill-rule:evenodd;fill:#000;stroke-dasharray:none;stroke-linecap:butt;stroke-linejoin:miter;stroke-miterlimit:4;stroke-opacity:0;stroke-width:3.0480547;stroke:#000"/><path id="path5640" d="m347.79149 214.93549c-2.23963-3.9037-13.65365-6.64307-10.7626-7.4041 19.60245-5.16008 42.73506 4.8639 45.13019 9.96708-.22163-.0224 32.47313 21.64689 51.12398 38.73227-.0862 1.02626 70.22067 27.11182 69.88882 28.07581-5.30879 15.42166-4.47726 21.6828-6.41637 20.80277-7.8027-3.54112-40.62648-4.53511-51.57038-10.19232-66.31243-34.2788-86.42758-42.3478-97.39364-79.98151z" style="display:inline;fill-opacity:1;fill-rule:evenodd;fill:#ff80b2;stroke-dasharray:none;stroke-linecap:butt;stroke-linejoin:miter;stroke-miterlimit:4;stroke-opacity:0;stroke-width:3;stroke:#000"/><path style="display:inline;fill-opacity:1;fill-rule:evenodd;fill:#000;stroke-dasharray:none;stroke-linecap:butt;stroke-linejoin:miter;stroke-miterlimit:4;stroke-opacity:0;stroke-width:4.92418861;stroke:#000" d="m505.70136 283.38441c-3.2729 13.00167-4.51269 21.52603-5.86961 23.24397-.3508.12977-9.92076-1.18699-18.59798-2.48948-7.28022-1.09279-13.93202-2.17553-13.9833-2.38545-2.07854-8.50889 10.03377-31.60911 12.6618-32.64599.56813-.22404 24.60725 13.58664 25.78909 14.27695z" id="path5642"/><path style="display:inline;fill-opacity:1;fill-rule:evenodd;fill:#ff80b2;stroke-dasharray:none;stroke-linecap:butt;stroke-linejoin:miter;stroke-miterlimit:4;stroke-opacity:0;stroke-width:4.80764103;stroke:#000" d="m505.29277 283.66187c-3.06598 12.70588-3.71217 21.09385-5.01757 22.76668-.62434.22886-31.7586-4.53653-32.04058-5.0099-77e-5-.001-.001-.003-.002-.004-2.10316-8.34273 9.49763-30.24414 12.04732-31.24201.38429-.1504 11.83123 6.13516 19.11866 10.18606 3.16369 1.75861 5.54344 3.09607 5.89379 3.30294z" id="path5644"/><path style="display:inline;fill-opacity:1;fill-rule:evenodd;fill:#1a1a1a;stroke-dasharray:none;stroke-linecap:butt;stroke-linejoin:miter;stroke-miterlimit:4;stroke-opacity:0;stroke-width:4.80764103;stroke:#000" d="m486.94274 303.09389c-2.19931-2.85057 2.21512-4.41695 3.68098-2.92052 2.71672 2.55322-1.5143 5.12585-3.68098 2.92052z" id="path5646"/><path style="display:inline;fill-opacity:1;fill-rule:evenodd;fill:#1a1a1a;stroke-dasharray:none;stroke-linecap:butt;stroke-linejoin:miter;stroke-miterlimit:4;stroke-opacity:0;stroke-width:4.80764103;stroke:#000" d="m474.62107 300.9672c-2.1993-2.85058 2.21514-4.41695 3.681-2.92054 2.71672 2.55324-1.51429 5.12586-3.681 2.92054z" id="path5648"/></g><g data-transform="art" style="display:none" id="Arm_Outfit_Western_Left_Low"><path style="display:inline;fill-opacity:1;fill-rule:evenodd;fill:#000;stroke-dasharray:none;stroke-linecap:butt;stroke-linejoin:miter;stroke-miterlimit:4;stroke-opacity:0;stroke-width:3.12141943;stroke:#000" d="m343.5428 214.6482c-2.42245-3.90715-5.6754-5.47457-2.46322-5.81823 8.58294-.91826 37.77337 4.29602 40.36402 9.4037-.23973-.0224 11.44761 16.96096 17.85403 36.71539 8.37307 25.81865 26.31312 72.47785 22.65805 78.24683-4.11088 6.48847-50.7975 85.33612-58.90664 103.09279-.86018 1.88354-18.62317-21.64092-19.65016-21.99522 8.15219-10.15268 19.13588-36.65177 27.42309-55.84951 6.4042-14.83565 10.43563-22.99279 15.07592-30.38011-12.03607-25.0301-12.81705-31.94219-17.14943-45.1596C358.25601 269.1249 344.04793 215.30901 343.5428 214.6482z" id="path5652"/><path style="display:inline;fill-opacity:1;fill-rule:evenodd;fill:#ff80b2;stroke-dasharray:none;stroke-linecap:butt;stroke-linejoin:miter;stroke-miterlimit:4;stroke-opacity:0;stroke-width:3;stroke:#000" d="m347.79149 214.93549c-2.23963-3.9037-5.24707-5.46975-2.27732-5.81311 7.93519-.91744 32.93912 5.23002 35.33425 10.3332-.22163-.0224 11.64381 16.5078 17.56674 36.24483 7.74115 25.79591 25.25061 71.91444 21.8714 77.67836-3.80063 6.48275-52.097 85.22996-59.59414 102.97099-.79526 1.88188-12.0845-21.59088-13.03398-21.94487 7.53693-10.14373 17.69169-36.61948 25.35346-55.80031 5.92088-14.82258 9.64805-22.97254 13.93814-30.35336-11.1277-25.00805-11.84974-31.91404-15.85516-45.11981-9.70058-13.7672-22.83638-67.53569-23.30339-68.19592z" id="path5654"/><path style="display:inline;fill-opacity:1;fill-rule:evenodd;fill:#000;stroke-dasharray:none;stroke-linecap:butt;stroke-linejoin:miter;stroke-miterlimit:4;stroke-opacity:0;stroke-width:4.92418861;stroke:#000" d="m362.05167 438.36242c-11.96003-6.05912-20.00123-9.14795-21.3777-10.85027-.0492-.37078 3.34524-9.41488 6.52893-17.59135 2.67113-6.86009 5.1939-13.10944 5.40996-13.11318 8.75778-.15123 24.80629 13.63141 25.23819 16.42338.0933.60355-6.92797 17.50588-15.79938 25.13142z" id="path5656"/><path style="display:inline;fill-opacity:1;fill-rule:evenodd;fill:#ff80b2;stroke-dasharray:none;stroke-linecap:butt;stroke-linejoin:miter;stroke-miterlimit:4;stroke-opacity:0;stroke-width:4.80764103;stroke:#000" d="m361.87113 437.90271c-11.71714-5.79207-19.75619-8.27185-21.10002-9.91396-.0856-.65944 11.42742-29.97671 11.95131-30.14738.001-53e-5.003-31e-5.004-.001 8.60114-.21189 24.15564 12.36999 24.56676 15.07695.062.40799-5.34287 13.74979-10.90089 19.96467-2.4129 2.69807-4.24216 4.72435-4.52119 5.02046z" id="path5658"/><path style="display:inline;fill-opacity:1;fill-rule:evenodd;fill:#1a1a1a;stroke-dasharray:none;stroke-linecap:butt;stroke-linejoin:miter;stroke-miterlimit:4;stroke-opacity:0;stroke-width:4.80764103;stroke:#000" d="m346.96341 415.71968c3.26534-1.51665 3.81982 3.13451 2.03701 4.23434-3.0894 2.08689-4.6658-2.60724-2.03701-4.23434z" id="path5660"/><path style="display:inline;fill-opacity:1;fill-rule:evenodd;fill:#1a1a1a;stroke-dasharray:none;stroke-linecap:butt;stroke-linejoin:miter;stroke-miterlimit:4;stroke-opacity:0;stroke-width:4.80764103;stroke:#000" d="m351.75459 404.17019c3.26536-1.51664 3.81982 3.13452 2.03703 4.23436-3.08942 2.08689-4.66581-2.60724-2.03703-4.23436z" id="path5662"/></g><g data-transform="art" id="Arm_Outfit_Western_Left_Mid" style="display:none"><path id="path5666" d="m345.4742 215.07561c-2.36763-3.9611-5.54697-5.55018-2.40748-5.89858 8.38874-.93095 34.71234 8.16419 37.24437 13.34241 5.24579 8.99291 9.08725 17.259 14.5374 33.66688 10.17885 30.64379 18.41513 85.4021 14.84277 91.25077-4.01785 6.57809-66.3478-2.40167-81.14498-8.24531-1.99733-.78879 25.98399-22.31749 24.98024-22.67669-.15309-.0548 10.06574 1.34579 18.07817 3.96454.57039.18642 1.12961.37902 1.6731.57771 5.78942 2.11646 8.57164 3.67314 8.57164 3.67314.0955-.0794-2.6005-3.26025-4.73046-9.06137-2.28221-6.21574-4.26216-15.53064-7.38319-25.29594-10.25503-32.08666-23.76787-74.62762-24.26158-75.29756z" style="display:inline;fill-opacity:1;fill-rule:evenodd;fill:#000;stroke-dasharray:none;stroke-linecap:butt;stroke-linejoin:miter;stroke-miterlimit:4;stroke-opacity:0;stroke-width:3.10714054;stroke:#000"/><path id="path5668" d="m347.79149 214.93549c-2.23963-3.9037-5.24707-5.46975-2.27732-5.81311 7.93519-.91744 29.47682 9.46009 33.46294 12.79551 3.81211 7.31111 8.35723 15.94134 11.13737 24.1156 8.95873 26.34071 18.51952 59.12189 19.30596 100.58272-3.80063 6.48275-66.42238-2.87182-80.41952-8.63079-1.88935-.77735 27.357-22.72654 26.40752-23.08053-.14481-.054 9.52153 1.32629 17.10075 3.90708.53956.18372 1.06854.37353 1.58265.56934 5.47639 2.08578 8.1082 3.61991 8.1082 3.61991.0903-.0782-2.4599-3.21301-4.47471-8.93005-2.15881-6.12566-4.03171-15.30556-6.984-24.92935-9.70058-31.62165-22.48283-73.5461-22.94984-74.20633z" style="display:inline;fill-opacity:1;fill-rule:evenodd;fill:#ff80b2;stroke-dasharray:none;stroke-linecap:butt;stroke-linejoin:miter;stroke-miterlimit:4;stroke-opacity:0;stroke-width:3;stroke:#000"/></g><g data-transform="art" id="Arm_Outfit_Western_Left_High" style="display:none"><path id="path5672" d="m347.87122 216.10417c-2.2742-3.975-5.32807-5.56966-2.31247-5.91928 8.0577-.9342 6.16932-4.87509 29.22752-4.57909-.22504-.0228 64.4782-36.03648 71.96193-36.58113.0691-.005-3.80129 2.30456-9.7528-1.40901-29.39259-18.34019-65.24582-51.47995-65.22534-51.54426 4.72045-14.82499 2.28271-20.07534 4.81677-19.238219.35496.117259.69554.271676 1.04181.407539 88.92614 34.89123 111.91189 70.84187 111.29264 75.55205-37.32592 35.32228-81.71091 66.14544-128.12457 87.68659-6.76698-20.22007-12.61438-43.93416-12.92549-44.37519z" style="display:inline;fill-opacity:1;fill-rule:evenodd;fill:#000;stroke-dasharray:none;stroke-linecap:butt;stroke-linejoin:miter;stroke-miterlimit:4;stroke-opacity:0;stroke-width:3.05055022;stroke:#000"/><path id="path5674" d="m347.79149 214.93549c-2.23963-3.9037-5.24707-5.46975-2.27732-5.81311 7.93519-.91744 6.81412-2.33248 29.52175-2.0418-.22163-.0224 66.20608-36.6177 70.12924-38.38017.0621-.0279-3.00491 1.03565-8.86592-2.61132-28.94572-18.01124-63.84539-50.30573-63.82523-50.36888 4.64869-14.55909.8419-19.057512 3.5965-17.916457.66284.274573 1.33358.520192 1.99476.780374 86.77241 34.145953 109.23936 69.208213 108.63178 73.816803-36.75843 34.68874-80.46859 64.95904-126.1766 86.11383-6.66409-19.85739-12.42259-43.14615-12.72896-43.57927z" style="display:inline;fill-opacity:1;fill-rule:evenodd;fill:#ff80b2;stroke-dasharray:none;stroke-linecap:butt;stroke-linejoin:miter;stroke-miterlimit:4;stroke-opacity:0;stroke-width:3;stroke:#000"/><path style="display:inline;fill-opacity:1;fill-rule:evenodd;fill:#000;stroke-dasharray:none;stroke-linecap:butt;stroke-linejoin:miter;stroke-miterlimit:4;stroke-opacity:0;stroke-width:4.92418861;stroke:#000" d="m366.35627 118.46299c4.97981-12.44816 7.34682-20.73062 8.92101-22.251969.36504-.08148 9.67339 2.501166 18.09897 4.950729 7.06908 2.05519 13.51671 4.01651 13.53951 4.2314.92365 8.71024-14.16494 29.98611-16.90791 30.66276-.59296.14613-22.57251-16.75098-23.65158-17.59292z" id="path5676"/><path style="display:inline;fill-opacity:1;fill-rule:evenodd;fill:#ff80b2;stroke-dasharray:none;stroke-linecap:butt;stroke-linejoin:miter;stroke-miterlimit:4;stroke-opacity:0;stroke-width:4.80764103;stroke:#000" d="m366.79825 118.24258c4.73524-12.18266 6.49576-20.409208 8.01287-21.892737.6493-.143467 30.86834 8.736907 31.08459 9.243687 59e-5 9e-4 55e-5.003.001.004.97025 8.54887-13.45143 28.70456-16.11143 29.35342-84e-5 2e-4-.002 37e-5-.003 51e-5-.4421.0649-10.91729-7.67105-17.58456-12.64842-2.90051-2.16534-5.08034-3.8086-5.39993-4.06041z" id="path5678"/><path style="display:inline;fill-opacity:1;fill-rule:evenodd;fill:#1a1a1a;stroke-dasharray:none;stroke-linecap:butt;stroke-linejoin:miter;stroke-miterlimit:4;stroke-opacity:0;stroke-width:4.80764103;stroke:#000" d="m387.57886 101.43504c1.79895 3.11873-2.78512 4.08158-4.03802 2.4028-2.35144-2.89314 2.18523-4.877718 4.03802-2.4028z" id="path5680"/><path style="display:inline;fill-opacity:1;fill-rule:evenodd;fill:#1a1a1a;stroke-dasharray:none;stroke-linecap:butt;stroke-linejoin:miter;stroke-miterlimit:4;stroke-opacity:0;stroke-width:4.80764103;stroke:#000" d="m399.50617 105.1881c1.79894 3.11873-2.78513 4.08158-4.03804 2.40282-2.35143-2.89316 2.18523-4.87773 4.03804-2.40282z" id="path5682"/></g><g data-transform="art" id="Arm_Outfit_Western_Right_Low" style="display:none"><path id="path5686" d="m300.3629 216.71608c2.89918-3.49959 6.19635-4.56996 3.24687-5.37862-7.88102-2.16075-20.40535-6.02265-44.83986-3.20333-33.89009 8.98925-50.45585 93.89639-51.28727 114.13833-.23971 5.83594 30.30034 70.52788 33.23751 69.73356 4.76171-1.28772 14.48586-3.95197 14.28265-32.80387-.0263-3.74559-17.98049-27.05226-17.78903-30.83153 1.55677-30.72846 12.81653-59.90856 18.49099-79.69067 7.48653 2.21612 15.11783 6.59594 24.7125 9.0451 9.96276-18.54956 19.5654-40.62985 19.94564-41.00897z" style="display:inline;fill-opacity:1;fill-rule:evenodd;fill:#000;stroke-dasharray:none;stroke-linecap:butt;stroke-linejoin:miter;stroke-miterlimit:4;stroke-opacity:0;stroke-width:3.03671026;stroke:#000"/><path id="path5688" d="m300.48784 216.69956c2.82896-3.50026 6.04627-4.57084 3.16823-5.37966-7.69014-2.16117-19.91112-6.02382-43.75381-3.20395-33.06925 8.99099-49.83384 94.09185-50.64513 114.33771-.2339 5.83707 31.64068 71.0723 34.50671 70.27783 4.64638-1.28797 8.51378-1.16005 8.31549-30.01755-.0257-3.74631-17.10945-31.75264-16.92262-35.53265 1.51906-30.73442 16.21762-58.72571 21.75464-78.51166 7.3052 2.21655 14.75167 6.59722 24.11395 9.04686 9.72145-18.55316 19.09151-40.63773 19.46254-41.01693z" style="display:inline;fill-opacity:1;fill-rule:evenodd;fill:#ff80b2;stroke-dasharray:none;stroke-linecap:butt;stroke-linejoin:miter;stroke-miterlimit:4;stroke-opacity:0;stroke-width:3;stroke:#000"/><path style="display:inline;fill-opacity:1;fill-rule:evenodd;fill:#000;stroke-dasharray:none;stroke-linecap:butt;stroke-linejoin:miter;stroke-miterlimit:4;stroke-opacity:0;stroke-width:4.92418861;stroke:#000" d="m265.18004 388.81494c-11.87841 6.21762-19.06289 10.97-21.24811 11.10192-.33029-.1755-5.72173-8.19096-10.52914-15.53124-4.03342-6.1585-7.65582-11.84155-7.53339-12.01961 4.96295-7.21738 30.26143-13.56681 32.78517-12.29696.54547.27461 6.2533 27.40455 6.52547 28.74589z" id="path5690"/><path style="display:inline;fill-opacity:1;fill-rule:evenodd;fill:#ff80b2;stroke-dasharray:none;stroke-linecap:butt;stroke-linejoin:miter;stroke-miterlimit:4;stroke-opacity:0;stroke-width:4.80764103;stroke:#000" d="m264.70095 388.69493c-11.51995 6.175-18.20736 11.27932-20.32462 11.41965-.58653-.31328-17.76704-26.7118-17.60174-27.23742 15e-5-.001.002-.003.002-.004 4.82262-7.12509 28.88598-13.05731 31.32861-11.82031 78e-5 39e-5.002 89e-5.003.002.37806.23822 3.30449 12.9272 5.13228 21.04422.79516 3.5312 1.38239 6.19711 1.4614 6.59625z" id="path5692"/><path style="display:inline;fill-opacity:1;fill-rule:evenodd;fill:#1a1a1a;stroke-dasharray:none;stroke-linecap:butt;stroke-linejoin:miter;stroke-miterlimit:4;stroke-opacity:0;stroke-width:4.80764103;stroke:#000" d="m240.63005 386.35357c.66167-3.53905 4.77012-1.28929 4.63009.8008-.0953 3.72698-4.83215 2.2842-4.63009-.8008z" id="path5694"/><path style="display:inline;fill-opacity:1;fill-rule:evenodd;fill:#1a1a1a;stroke-dasharray:none;stroke-linecap:butt;stroke-linejoin:miter;stroke-miterlimit:4;stroke-opacity:0;stroke-width:4.80764103;stroke:#000" d="m234.00944 376.54164c.66168-3.53905 4.77012-1.28927 4.63013.80079-.0953 3.72701-4.83217 2.28421-4.63013-.80079z" id="path5696"/></g><g data-transform="art" style="display:none" id="Arm_Outfit_Western_Right_Mid"><path style="display:inline;fill-opacity:1;fill-rule:evenodd;fill:#000;stroke-dasharray:none;stroke-linecap:butt;stroke-linejoin:miter;stroke-miterlimit:4;stroke-opacity:0;stroke-width:3.04086399;stroke:#000" d="m299.86232 216.84741c2.86836-3.54688 6.13047-4.63172 3.21235-5.4513-7.79724-2.18996-20.18841-6.10404-44.36313-3.24662-33.52978 9.11072-61.6644 138.12271-56.90681 145.95428 5.06745 8.34162 137.22791-10.49908 140.13385-11.30413 4.71109-1.30511-.45915-13.47405-.6602-42.71584-.0261-3.79619-102.64851 29.14344-102.45908 25.31309 1.54022-31.14369 11.24555-56.10425 16.85968-76.15368 7.40694 2.24606 14.95711 6.68507 24.44976 9.16734 9.85684-18.80023 19.35738-41.1789 19.73358-41.56314z" id="path5700"/><path style="display:inline;fill-opacity:1;fill-rule:evenodd;fill:#ff80b2;stroke-dasharray:none;stroke-linecap:butt;stroke-linejoin:miter;stroke-miterlimit:4;stroke-opacity:0;stroke-width:3;stroke:#000" d="m300.48784 216.69956c2.82896-3.50026 6.04627-4.57084 3.16823-5.37966-7.69014-2.16117-19.91112-6.02382-43.75381-3.20395-33.06925 8.99099-60.81745 136.30755-56.1252 144.0362 4.99785 8.232 135.3431-10.3611 138.20913-11.15557 4.64638-1.28797-.45284-13.29698-.65113-42.15448-.0257-3.74631-101.23865 28.76044-101.05182 24.98043 1.51906-30.73442 11.09109-55.36695 16.62811-75.1529 7.3052 2.21655 14.75167 6.59722 24.11395 9.04686 9.72145-18.55316 19.09151-40.63773 19.46254-41.01693z" id="path5702"/></g><g data-transform="art" style="display:none" id="Arm_Outfit_Western_Right_High"><path style="display:inline;fill-opacity:1;fill-rule:evenodd;fill:#000;stroke-dasharray:none;stroke-linecap:butt;stroke-linejoin:miter;stroke-miterlimit:4;stroke-opacity:0;stroke-width:3.02935934;stroke:#000" d="m300.39583 218.87955c2.88085-3.50481 6.15719-4.57678 3.22635-5.38665-7.83122-2.16398-6.65602-5.15553-29.53589-8.46494.072.004-5.49099-.47931-14.42275-6.81166-13.22617-9.37695-31.23017-25.37688-42.44015-34.0954-5.02375-3.90721-9.54618-5.64474-10.17113-5.89051 38.0651-23.05328 69.79029-37.95664 78.24659-47.73792-2.329-15.130797 5.82239-24.502308-4.51807-21.015672-76.37618 25.752812-113.0731 60.658792-113.20556 65.346972-2.74126 6.32503 70.4485 76.97045 113.00103 105.12602 9.89979-18.57727 19.44175-40.69055 19.81958-41.07024z" id="path5706"/><path style="display:inline;fill-opacity:1;fill-rule:evenodd;fill:#ff80b2;stroke-dasharray:none;stroke-linecap:butt;stroke-linejoin:miter;stroke-miterlimit:4;stroke-opacity:0;stroke-width:3;stroke:#000" d="m300.48784 216.69956c2.82896-3.50026 6.04627-4.57084 3.16823-5.37966-7.69014-2.16117-6.53612-5.14882-29.00381-8.45395.0707.004-7.88471 1.99619-16.65557-4.32794-12.98791-9.36478-30.91758-25.09394-41.92562-33.80114-4.93325-3.90214-10.87422-5.88742-11.4879-6.13287 31.2958-21.07857 61.04792-31.23184 81.72626-49.4857-2.28703-15.111155 6.04223-21.463789-4.21532-18.299109C211.33645 112.64949 169.19 150.04485 169.05991 154.72693c-2.69187 6.31682 69.64909 75.9312 111.43506 104.05022 9.72145-18.55316 19.62184-41.69839 19.99287-42.07759z" id="path5708"/><path style="display:inline;fill-opacity:1;fill-rule:evenodd;fill:#000;stroke-dasharray:none;stroke-linecap:butt;stroke-linejoin:miter;stroke-miterlimit:4;stroke-opacity:0;stroke-width:4.92418861;stroke:#000" d="m270.34591 93.138811c6.44581 11.756139 11.33602 18.847529 11.51011 21.029789-.16909.33362-8.07896 5.87882-15.32505 10.82705-6.07948 4.15158-11.69153 7.88303-11.87192 7.76406-7.31186-4.82267-14.14856-29.99384-12.92768-32.54163.26403-.550674 27.27871-6.781256 28.61454-7.079269z" id="path5710"/><path style="display:inline;fill-opacity:1;fill-rule:evenodd;fill:#ff80b2;stroke-dasharray:none;stroke-linecap:butt;stroke-linejoin:miter;stroke-miterlimit:4;stroke-opacity:0;stroke-width:4.80764103;stroke:#000" d="m270.23518 93.620128c6.39627 11.398572 11.62876 17.986182 11.80994 20.100342-.3019.59247-26.36378 18.27947-26.89249 18.12435-.001-13e-5-.003-.002-.004-.002-7.21688-4.68415-13.6126-28.62849-12.42299-31.09455 37e-5-78e-5 85e-5-.002.002-.003.23087-.38258 12.86099-3.553475 20.9412-5.537643 3.51519-.863187 6.16927-1.501775 6.56681-1.588479z" id="path5712"/><path style="display:inline;fill-opacity:1;fill-rule:evenodd;fill:#1a1a1a;stroke-dasharray:none;stroke-linecap:butt;stroke-linejoin:miter;stroke-miterlimit:4;stroke-opacity:0;stroke-width:4.80764103;stroke:#000" d="m260.9889 102.31482c-3.55117-.59321-1.38115-4.744343.71125-4.644693 3.72813.0233 2.37707 4.787153-.71125 4.644693z" id="path5714"/><path style="display:inline;fill-opacity:1;fill-rule:evenodd;fill:#1a1a1a;stroke-dasharray:none;stroke-linecap:butt;stroke-linejoin:miter;stroke-miterlimit:4;stroke-opacity:0;stroke-width:4.80764103;stroke:#000" d="m250.51091 104.54196c-3.55116-.59322-1.38113-4.744327.71125-4.644717 3.72815.0233 2.37708 4.787157-.71125 4.644717z" id="path5716"/></g><g data-transform="art" id="Arm_Outfit_Western_Right_None"/><g data-transform="art" id="Arm_Outfit_Western_Left_None"/></svg>