<svg viewBox="0 0 560 1e3"><path style="display:inline;fill-opacity:1;fill-rule:evenodd;fill:#000;opacity:1;stroke-dasharray:none;stroke-linecap:butt;stroke-linejoin:miter;stroke-miterlimit:4;stroke-opacity:1;stroke-width:0;stroke:#000" d="m368.45236 268.83602c.40069 1.40387.82872 12.89967-6.36035 37.77919-2.69071 9.31187-7.76934 16.76035-12.27935 22.08191-16.17797 31.44438-21.55472 39.45678-.0793 78.7427-26.83331 14.10151-110.26541 31.7889-126.53109 8.14624 21.52488-42.19532 20.27427-61.58213 20.44554-76.78527-.79492-25.08977-9.37492-40.35794-6.12315-64.92252 4.1474-34.69597 22.3671-60.53584 49.31905-73.16924 9.24713 11.38115 23.32598 3.04064 29.40561-2.22767-6.61256 40.32716-.39811 42.2337 47.93489 69.10993z" id="path4467-6-5"/><path style="display:inline;fill-opacity:1;fill-rule:evenodd;fill:#ff80b2;opacity:1;stroke-dasharray:none;stroke-linecap:butt;stroke-linejoin:miter;stroke-miterlimit:4;stroke-opacity:1;stroke-width:0;stroke:#000" d="m369.22602 268.81519c-4.68348 22.64568-5.85009 40.51404-21.08544 60.43479-20.02172 35.0767-18.45848 42.3077-1.1715 77.15308-31.15729 6.94181-70.0571 22.62018-119.53447 5.18443.0345-.17931 4.96754-9.8197 8.69846-19.88088 3.58228-9.66037 5.96851-19.75746 6.00023-19.93248 2.23784-12.34683 2.73839-27.94198 2.90309-30.73529.91633-13.31264-6.23585-36.85045-6.79758-54.14945-1.3291-28.43727 7.83268-72.44432 48.43505-86.05345.95941-.26505 5.83183-7.60855 5.90605-7.38285 1.65753 5.04021 20.47171-.37757 20.85769-.51091.2509-.0867 2.50701 5.35888 3.9712 6.42812 7.44197 4.05923 13.93327 5.85108 22.31675 8.30582 23.76123 1.93056 29.55708 22.24878 30.19439 39.69264.31573 8.6417-.94946 16.63435-.69392 21.44643z" id="path4470-3-4"/><path id="path4472-8-6" d="m291.59482 204.8803c-.007-.15238 5.39726-10.80323 5.46415-10.99796.0.0-4.71541-2.02563-4.85767-1.83113-.86438 1.18176-2.48505 4.21861-3.88833 5.92157.099.227 3.28185 6.90752 3.28185 6.90752z" style="display:inline;fill-opacity:1;fill:#000;opacity:1;stroke-dasharray:none;stroke-linecap:butt;stroke-linejoin:miter;stroke-miterlimit:4;stroke-opacity:1;stroke-width:0;stroke:#000"/><path id="path4474-5-0" d="m291.55833 203.28945c-.007-.14941 5.05548-9.40542 5.12046-9.59636.0.0-4.58062-1.9862-4.71882-1.79549-.83967 1.15876-2.41401 4.13649-3.77718 5.8063.0962.22258 3.37554 5.58555 3.37554 5.58555z" style="display:inline;fill-opacity:1;fill:#ff80b2;opacity:1;stroke-dasharray:none;stroke-linecap:butt;stroke-linejoin:miter;stroke-miterlimit:4;stroke-opacity:1;stroke-width:0;stroke:#000"/><path id="path4476-4-0" d="m302.35818 205.29925c.007-.15238-3.99545-11.03492-4.06234-11.22965.0.0 16.62296-2.66894 16.76522-2.47444.86438 1.18176 2.6413 5.37486 3.07583 6.04657-.099.227-15.77871 7.65752-15.77871 7.65752z" style="display:inline;fill-opacity:1;fill:#000;opacity:1;stroke-dasharray:none;stroke-linecap:butt;stroke-linejoin:miter;stroke-miterlimit:4;stroke-opacity:1;stroke-width:0;stroke:#000"/><path id="path4478-4-0" d="m302.82777 204.42715c.007-.14856-4.00116-10.27774-4.06706-10.46759.0.0 15.63782-2.64512 15.77799-2.4555.85164 1.15214 2.60238 5.24014 3.03051 5.89501-.0975.22131-14.74144 7.02808-14.74144 7.02808z" style="display:inline;fill-opacity:1;fill:#ff80b2;opacity:1;stroke-dasharray:none;stroke-linecap:butt;stroke-linejoin:miter;stroke-miterlimit:4;stroke-opacity:1;stroke-width:0;stroke:#000"/><path id="path4482-4-3" d="m300.87394 220.43307a2.7544847 2.8454499.0 01-2.75448 2.84545 2.7544847 2.8454499.0 01-2.75449-2.84545 2.7544847 2.8454499.0 012.75449-2.84546 2.7544847 2.8454499.0 012.75448 2.84546z" style="display:inline;fill-opacity:1;fill-rule:nonzero;fill:#f59;opacity:1;stroke-dasharray:none;stroke-linecap:butt;stroke-linejoin:round;stroke-miterlimit:4;stroke-opacity:1;stroke-width:0;stroke:#000"/><path id="path4484-3-3" d="m297.69369 242.50598a2.7544847 2.8454499.0 01-2.75448 2.84545 2.7544847 2.8454499.0 01-2.75449-2.84545 2.7544847 2.8454499.0 012.75449-2.84546 2.7544847 2.8454499.0 012.75448 2.84546z" style="display:inline;fill-opacity:1;fill-rule:nonzero;fill:#f59;opacity:1;stroke-dasharray:none;stroke-linecap:butt;stroke-linejoin:round;stroke-miterlimit:4;stroke-opacity:1;stroke-width:0;stroke:#000"/><path id="path4486-0-0" d="m294.36894 266.99921a2.7544847 2.8454499.0 01-2.75448 2.84545 2.7544847 2.8454499.0 01-2.75449-2.84545 2.7544847 2.8454499.0 012.75449-2.84546 2.7544847 2.8454499.0 012.75448 2.84546z" style="display:inline;fill-opacity:1;fill-rule:nonzero;fill:#f59;opacity:1;stroke-dasharray:none;stroke-linecap:butt;stroke-linejoin:round;stroke-miterlimit:4;stroke-opacity:1;stroke-width:0;stroke:#000"/><path id="path4488-6-1" d="m291.12262 291.4949a2.7544847 2.8454499.0 01-2.75448 2.84545 2.7544847 2.8454499.0 01-2.75449-2.84545 2.7544847 2.8454499.0 012.75449-2.84546 2.7544847 2.8454499.0 012.75448 2.84546z" style="display:inline;fill-opacity:1;fill-rule:nonzero;fill:#f59;opacity:1;stroke-dasharray:none;stroke-linecap:butt;stroke-linejoin:round;stroke-miterlimit:4;stroke-opacity:1;stroke-width:0;stroke:#000"/><path id="path4490-3-4" d="m288.19248 313.4826a2.7544847 2.8454499.0 01-2.75448 2.84545 2.7544847 2.8454499.0 01-2.75449-2.84545 2.7544847 2.8454499.0 012.75449-2.84546 2.7544847 2.8454499.0 012.75448 2.84546z" style="display:inline;fill-opacity:1;fill-rule:nonzero;fill:#f59;opacity:1;stroke-dasharray:none;stroke-linecap:butt;stroke-linejoin:round;stroke-miterlimit:4;stroke-opacity:1;stroke-width:0;stroke:#000"/><path id="path4492-1-1" d="m285.69616 337.78711a2.7544847 2.8454499.0 01-2.75448 2.84545 2.7544847 2.8454499.0 01-2.75449-2.84545 2.7544847 2.8454499.0 012.75449-2.84546 2.7544847 2.8454499.0 012.75448 2.84546z" style="display:inline;fill-opacity:1;fill-rule:nonzero;fill:#f59;opacity:1;stroke-dasharray:none;stroke-linecap:butt;stroke-linejoin:round;stroke-miterlimit:4;stroke-opacity:1;stroke-width:0;stroke:#000"/><path id="path4494-0-2" d="m283.59261 360.44517a2.7544847 2.8454499.0 01-2.75448 2.84545 2.7544847 2.8454499.0 01-2.75449-2.84545 2.7544847 2.8454499.0 012.75449-2.84546 2.7544847 2.8454499.0 012.75448 2.84546z" style="display:inline;fill-opacity:1;fill-rule:nonzero;fill:#f59;opacity:1;stroke-dasharray:none;stroke-linecap:butt;stroke-linejoin:round;stroke-miterlimit:4;stroke-opacity:1;stroke-width:0;stroke:#000"/><path id="path4496-3-9" d="m282.01878 380.39507a2.7544847 2.8454499.0 01-2.75448 2.84545 2.7544847 2.8454499.0 01-2.75449-2.84545 2.7544847 2.8454499.0 012.75449-2.84546 2.7544847 2.8454499.0 012.75448 2.84546z" style="display:inline;fill-opacity:1;fill-rule:nonzero;fill:#f59;opacity:1;stroke-dasharray:none;stroke-linecap:butt;stroke-linejoin:round;stroke-miterlimit:4;stroke-opacity:1;stroke-width:0;stroke:#000"/><path id="path4506-4-6" d="m281.0045 400.49998a2.7544847 2.8454499.0 01-2.75448 2.84545 2.7544847 2.8454499.0 01-2.75449-2.84545 2.7544847 2.8454499.0 012.75449-2.84546 2.7544847 2.8454499.0 012.75448 2.84546z" style="display:inline;fill-opacity:1;fill-rule:nonzero;fill:#f59;opacity:1;stroke-dasharray:none;stroke-linecap:butt;stroke-linejoin:round;stroke-miterlimit:4;stroke-opacity:1;stroke-width:0;stroke:#000"/><path style="display:inline;fill-opacity:1;fill-rule:evenodd;fill:#000;opacity:1;stroke-dasharray:none;stroke-linecap:butt;stroke-linejoin:miter;stroke-miterlimit:4;stroke-opacity:1;stroke-width:0;stroke:#000" d="m348.72664 406.02097c1.35149 1.92814 6.28455 8.94835 6.28455 8.94835-45.39345 19.19025-98.71965 21.32265-129.07173 8.86993-4.57236-1.57-5.52237-2.24783-5.5158-2.31099.33144-3.18682 5.22295-10.25149 5.22295-10.25149 36.42612 14.76968 76.69605 8.93498 123.08003-5.2558z" id="path4455-8-9-1-3"/><path style="display:inline;fill-opacity:1;fill-rule:evenodd;fill:#4b3832;opacity:1;stroke-dasharray:none;stroke-linecap:butt;stroke-linejoin:miter;stroke-miterlimit:4;stroke-opacity:1;stroke-width:0;stroke:#000" d="m348.22664 406.89597c1.35149 1.92814 4.74729 7.65351 4.74729 7.65351-22.65463 10.3504-89.92224 25.46177-130.63108 6.00088-.66293.32662 4.17876-8.14859 4.17876-8.14859 36.42612 14.76968 75.32105 8.68498 121.70503-5.5058z" id="path4455-4-2-7"/><path style="display:inline;fill-opacity:1;fill-rule:nonzero;fill:#4b3832;opacity:1;stroke-dasharray:none;stroke-linecap:butt;stroke-linejoin:round;stroke-miterlimit:4;stroke-opacity:1;stroke-width:0;stroke:#000" d="m300.11993 192.20176c-.22272 1.55564-1.26393 2.69352-2.32564 2.54152-1.0617-.152-1.74184-1.53631-1.51913-3.09195.22271-1.55565 1.04263-1.58873 2.10434-1.43673 1.0617.15199 1.96314.43152 1.74043 1.98716z" id="path4439-9-4-4-1"/><path style="display:inline;fill-opacity:1;fill-rule:nonzero;fill:#4b3832;opacity:1;stroke-dasharray:none;stroke-linecap:butt;stroke-linejoin:round;stroke-miterlimit:4;stroke-opacity:1;stroke-width:0;stroke:#000" d="m313.22737 189.83012c-.0498.62756-14.15592 2.40626-15.30657 2.25426-1.15066-.152-5.50667-1.81532-5.30231-2.34444.0977-.71597 4.33087 1.02251 5.48153 1.17451 1.15065.15199 15.10528-1.93287 15.12735-1.08433z" id="path4439-9-1-9-8-9"/><path style="display:inline;fill-opacity:1;fill-rule:nonzero;fill:#4b3832;opacity:1;stroke-dasharray:none;stroke-linecap:butt;stroke-linejoin:round;stroke-miterlimit:4;stroke-opacity:1;stroke-width:0;stroke:#000" d="m299.26765 192.13164c-.046.62756-.16377 18.44531-1.03291 19.12038-.72098.55998.46004-18.50374-.40011-17.30381-.28279.3945-3.553 16.71952-3.93136 16.52557-.63911-.69387 2.65063-19.02289 3.71234-18.87089 1.0617.15199 1.63168-.31979 1.65204.52875z" id="path4439-9-1-5-1-6-7"/><path style="display:inline;fill-opacity:1;fill:#000;opacity:1;stroke-dasharray:none;stroke-linecap:butt;stroke-linejoin:miter;stroke-miterlimit:4;stroke-opacity:1;stroke-width:0;stroke:#000" d="m273.76587 419.87564c-3.37067-27.44695 2.70899-95.34442 23.25259-225.55289l.80611.10099c.44243 13.37084-30.13893 182.40374-21.77891 225.43423.0.0-1.85534.73859-2.27979.0177z" id="path4522-4-1-3"/></svg>