<svg viewBox="0 0 560 1e3"><path d="m327.0957 105.53516c-.15004.0304-.2942.0833-.43164.15429-1.96999 1.02311-2.53041 5.92247.85352 5.73828-.002.76579.21645 1.48874.70508 1.9668-.40622 1.15072-.36872 2.53361.34179 3.34375-.38573 1.10399-.36182 2.41295.26953 3.23047-.48725 1.36915-.35309 3.08525.80664 3.75391-.36189 1.34516-.124 2.89104 1.03907 3.46093-.33236 1.12011-.25064 2.40241.4414 3.15625.0101.22198.0414.44039.11524.64454-.35507.41369-.63146.90282-.8086 1.40624-.11639-.11532-.24311-.22023-.38085-.3125.17333-.96182-.0589-2.0483-.68165-2.80273.3502-1.08633.11142-2.43866-.66601-3.30078.35585-1.12977.0765-2.53675-.77734-3.38477.55088-1.73378-.38848-4.14629-2.62305-4.1289-.32201-1.36764-1.42067-2.53679-3.22852-2.22266-.14632.045-.28427.11114-.41406.19531v.002c-1.85969 1.21209-1.93529 6.14144 1.41406 5.625.0738.76222.36317 1.46104.89649 1.88867-.29096 1.18513-.11885 2.55671.66797 3.29297-.27517 1.1366-.12088 2.43611.58789 3.1875-.21738.87579-.18301 1.86208.16601 2.61523-1.50957 1.33695-2.31705 4.10698.16406 4.92578-.28063.71252-.34127 1.46657-.0605 2.08985-.79776.92346-1.26668 2.22291-.90039 3.23633-.55061.64152-.9358 1.46056-1 2.24023-.23491-.44175-.59692-.82852-1.13477-1.09766.33468-1.36459-.11405-2.90551-1.86719-3.44726-.15079-.0264-.30317-.0297-.45703-.0137-2.20739.23457-4.51508 4.59223-1.29687 5.65429-.28063.71252-.34128 1.46657-.0605 2.08985-.79776.92346-1.26863 2.22291-.90234 3.23632-.12128.14131-.21836.30272-.32227.45899-.0262-.92938-.46118-1.82296-1.45898-2.32227.33468-1.36459-.1121-2.90551-1.86524-3.44726-.15079-.0264-.30512-.0297-.45898-.0137v.002c-2.20739.23457-4.51313 4.59224-1.29492 5.6543-.28063.71252-.34128 1.46461-.0606 2.08789-.79776.92346-1.26863 2.22291-.90234 3.23632-.76164.8874-1.21568 2.11602-.92579 3.10743-.95284 1.09731-1.45334 2.74561-.61718 3.79101-.82736 1.12068-1.16825 2.64495-.29297 3.59961-.84938 1.09085-1.2564 2.61048-.4668 3.59766-.80471 1.06777-1.17307 2.51974-.44922 3.49023-.82211 1.16526-1.1142 2.72731-.10156 3.64649-1.06453 1.16255-1.60391 3.00699-.50586 4.05859-.96203 1.52892-1.03137 3.60561 1.43359 4.09766 2.43105.61878 4.16585-2.83889 2.78321-4.75977.61141-1.05222.71551-2.4594-.0293-3.44531.92231-.94458 1.30488-2.55108.67969-3.74805.70017-.97733.91971-2.37465.33203-3.43164.79326-1.01466 1.0469-2.55379.34766-3.66211.78331-.97974 1.05633-2.465.4375-3.57422.59151-.778.87785-1.84966.66601-2.80469.80562-.80852 1.20698-2.12093.90625-3.24218.09-.0915.17271-.19178.25195-.29492.0609.29361.17668.57138.3711.81445-.82736 1.12068-1.16825 2.6469-.29297 3.60156-.84938 1.09085-1.25444 2.61048-.46484 3.59766-.80471 1.06777-1.17503 2.51974-.45118 3.49023-.82211 1.16526-1.1142 2.72731-.10156 3.64649-1.06453 1.16255-1.60195 3.00699-.50391 4.05859-.96203 1.52892-1.03331 3.60561 1.43165 4.09766 2.43105.61878 4.16779-2.83889 2.78515-4.75977.61141-1.05222.71551-2.4594-.0293-3.44531.92231-.94458 1.30293-2.55108.67774-3.74805.70017-.97733.91971-2.37465.33203-3.43164.79326-1.01466 1.04885-2.55379.34961-3.66211.78331-.97974 1.05438-2.465.43555-3.57422.59151-.778.87785-1.84966.66601-2.80468.80562-.80853 1.20698-2.1229.90625-3.24415.0627-.0637.11827-.13556.17578-.20507.0144.48867.16608.94953.50782 1.32226-.84938 1.09085-1.25445 2.61048-.46485 3.59766-.80471 1.06777-1.17502 2.51974-.45117 3.49023-.82211 1.16526-1.1142 2.72731-.10156 3.64649-1.06453 1.16255-1.60196 3.00699-.50391 4.05859-.96203 1.52892-1.03332 3.60561 1.43164 4.09766 2.43105.61878 4.1678-2.83889 2.78516-4.75977.61141-1.05222.71551-2.4594-.0293-3.44531.92231-.94458 1.30488-2.55108.67969-3.74805.70017-.97733.91971-2.37465.33203-3.43164.79326-1.01466 1.0469-2.55379.34766-3.66211.78331-.97974 1.05633-2.465.4375-3.57422.59151-.778.87785-1.84966.66601-2.80468.0874-.0877.16662-.18448.24414-.28321-.0734.57717.0182 1.13896.35743 1.59375-.82212 1.16526-1.11421 2.72731-.10157 3.64649-1.06453 1.16255-1.60195 3.00699-.5039 4.05859-.96203 1.52892-1.03332 3.60365 1.43164 4.0957 2.43105.61878 4.16779-2.83888 2.78515-4.75976.61141-1.05222.71552-2.45745-.0293-3.44336.28781-.29477.51528-.65758.68359-1.04883.1213.0685.2449.1351.38672.17774-.16214 1.79911.71739 3.67992 3.13672 2.99804 2.44672-.55359 2.42096-4.42116.3164-5.5039.0664-1.21514-.47834-2.51689-1.58984-3.05664.16377-.52622.18386-1.11051.0801-1.67188.44961.60654 1.21642.95518 2.40234.74414 2.48933-.31002 2.84516-4.1626.85742-5.44726.18571-1.2027-.22828-2.55071-1.28125-3.19727.51451-1.2158.28263-2.85154-.73632-3.73828.169-.66601.13656-1.40029-.0918-2.05274.22191-.66148.26219-1.38692.0488-2.03711 1.27862-1.29406 1.53941-3.86914-.45899-4.86914.33468-1.36459-.11405-2.90551-1.86719-3.44726-.15078-.0264-.30317-.0297-.45703-.0137-.0202.002-.0403.0108-.0605.0137-.0884-.27965-.20183-.55063-.36328-.79102.45545-1.04657.35089-2.41514-.33789-3.34961.46535-1.08924.3248-2.51735-.44141-3.44531.71889-1.67112.0223-4.1645-2.20313-4.36719-.1858-1.3927-1.16415-2.66391-2.99414-2.52929zm-49.5664 29.96289c-2.20739.23457-4.51509 4.59419-1.29688 5.65625-.28063.71252-.34127 1.46461-.0605 2.08789-.79776.92346-1.26669 2.22292-.9004 3.23633-.76164.8874-1.21567 2.11601-.92578 3.10742-.95284 1.09731-1.4553 2.74366-.61914 3.78906-.82736 1.12068-1.16825 2.6469-.29297 3.60156-.84938 1.09085-1.25444 2.61048-.46484 3.59766-.80471 1.06777-1.17502 2.51974-.45117 3.49023-.82211 1.16526-1.1142 2.72731-.10156 3.64649-1.06453 1.16255-1.60196 3.00699-.50391 4.05859-.96203 1.52892-1.03332 3.60561 1.43164 4.09766 2.43105.61878 4.1678-2.83889 2.78516-4.75977.61141-1.05222.71551-2.4594-.0293-3.44531.92231-.94458 1.30292-2.55108.67773-3.74805.70017-.97733.91971-2.37465.33204-3.43164.79325-1.01466 1.04884-2.55379.3496-3.66211.78331-.97974 1.05438-2.465.43555-3.57422.59151-.778.87981-1.84966.66797-2.80468.80562-.80853 1.20698-2.12094.90625-3.24219.8304-.84466 1.22092-2.22571.8457-3.36914 1.27862-1.29406 1.53747-3.8711-.46093-4.8711.33468-1.36459-.11405-2.90551-1.86719-3.44726-.15079-.0264-.30317-.0297-.45703-.0137zm56.3457 5.41211c.19968.2566.45437.46889.78125.60351-.0846.4436-.10465.89795-.0488 1.32422-.18817-.29099-.42314-.54839-.70703-.75.0583-.38593.0449-.78733-.0254-1.17773zm-49.80469.50976v.002c-2.20739.23456-4.51508 4.59223-1.29687 5.65429-.28063.71252-.34128 1.46461-.0605 2.08789-.79776.92346-1.26863 2.22292-.90234 3.23633-.76164.8874-1.21567 2.11601-.92578 3.10742-.95284 1.09731-1.45335 2.74562-.61719 3.79102-.82736 1.12068-1.16825 2.64495-.29297 3.59961-.84938 1.09085-1.25444 2.61047-.46484 3.59765-.80471 1.06777-1.17503 2.51975-.45118 3.49024-.82211 1.16526-1.1142 2.7273-.10156 3.64648-1.06453 1.16255-1.60196 3.007-.50391 4.0586-.96203 1.52892-1.03331 3.6056 1.43165 4.09765 2.43105.61878 4.16779-2.83888 2.78515-4.75976.61141-1.05222.71551-2.45941-.0293-3.44532.92231-.94458 1.30293-2.55107.67774-3.74804.70017-.97733.91971-2.37465.33203-3.43164.79326-1.01466 1.04885-2.55379.34961-3.66211.78331-.97974 1.05438-2.465.43555-3.57422.59151-.778.87785-1.84967.66601-2.80469.80562-.80853 1.20698-2.12094.90625-3.24219.8304-.84466 1.22093-2.22571.84571-3.36914 1.27862-1.29406 1.53941-3.87109-.45899-4.87109.33468-1.36459-.11405-2.90552-1.86719-3.44727-.15079-.0264-.30317-.0297-.45703-.0137zm44.80664 3.56446c.0217.0309.0347.0658.0586.0957-.0279.037-.0513.0773-.0781.11523.008-.0703.0155-.14051.0195-.21093zm-37.38281.41406c-2.20739.23457-4.51508 4.59223-1.29687 5.65429-.28063.71252-.34128 1.46461-.0605 2.08789-.79776.92347-1.26668 2.22488-.90039 3.23829-.76164.8874-1.21567 2.11601-.92578 3.10742-.95284 1.09731-1.45335 2.74366-.61719 3.78906-.82736 1.12068-1.1702 2.6469-.29492 3.60156-.84938 1.09085-1.25445 2.61048-.46485 3.59766-.80471 1.06777-1.17502 2.51974-.45117 3.49023-.82211 1.16526-1.1142 2.72731-.10156 3.64649-1.06453 1.16255-1.60196 3.00699-.50391 4.05859-.96203 1.52892-1.03332 3.60365 1.43164 4.0957 2.43105.61878 4.1678-2.83888 2.78516-4.75976.61141-1.05222.71551-2.45745-.0293-3.44336.92231-.94458 1.30488-2.55303.67969-3.75.70017-.97733.91971-2.3727.33203-3.42969.79326-1.01466 1.0469-2.55379.34766-3.66211.78331-.97974 1.05633-2.465.4375-3.57422.59151-.778.87785-1.85162.66601-2.80664.80562-.80853 1.20698-2.12093.90625-3.24218.8304-.84466 1.22093-2.22571.84571-3.36914 1.27862-1.29406 1.53746-3.86914-.46094-4.86914.33468-1.36459-.11209-2.90552-1.86524-3.44727-.15078-.0264-.30512-.0297-.45898-.0137zm7.16016 2.38672c-2.20739.23457-4.51509 4.59223-1.29688 5.65429-.28063.71252-.34128 1.46461-.0605 2.08789-.79776.92346-1.26864 2.22488-.90235 3.23828-.76164.88741-1.21372 2.11602-.92383 3.10743-.95284 1.09731-1.4553 2.74366-.61914 3.78906-.82736 1.12068-1.16825 2.64495-.29297 3.59961-.84938 1.09085-1.25444 2.61243-.46484 3.59961-.80471 1.06777-1.17502 2.51974-.45117 3.49023-.82211 1.16526-1.1142 2.72731-.10156 3.64649-1.06453 1.16255-1.60196 3.00699-.50391 4.05859-.96203 1.52892-1.03332 3.60365 1.43164 4.0957 2.43105.61878 4.1678-2.83888 2.78516-4.75976.61141-1.05222.71551-2.45745-.0293-3.44336.92231-.94458 1.30292-2.55303.67773-3.75.70017-.97733.91971-2.3727.33204-3.42969.79325-1.01466 1.04884-2.55574.3496-3.66406.78331-.97974 1.05438-2.46305.43555-3.57227.59151-.778.87786-1.85162.66602-2.80664.80562-.80853 1.20698-2.12094.90625-3.24218.8304-.84467 1.22092-2.22572.8457-3.36915 1.27862-1.29406 1.53942-3.86914-.45898-4.86914.33468-1.36459-.11405-2.90551-1.86719-3.44726-.15079-.0264-.30317-.0297-.45703-.0137zm18.21679 6.7832c.01.17034.0293.33768.0762.49805-.10216.11764-.19643.24419-.28711.37304-.0236-.16071-.0569-.31866-.10743-.47265.11825-.11967.21853-.2591.31836-.39844z" id="path2567" class="hair"/></svg>