<svg viewBox="0 0 560 1e3"><path id="path7204-6" d="m271.54026 376.44844c.0782 1.21363-.39233 3.20481-1.35826 3.28497-.96592.0802-1.48021-1.74966-1.55841-2.96328-.0782-1.21363.42001-3.09486 1.38594-3.17502.96593-.0802 1.45253 1.6397 1.53073 2.85333z" class="areola"/><path id="path4625-2-9" d="m278.91029 204.53894c1.85126 3.80712 19.40173 8.15738 16.14829 13.77126-.41019-6.01263 27.31795-11.14122 29.5594-14.68385" style="display:inline;fill-rule:evenodd;fill:none;stroke-dasharray:none;stroke-linecap:butt;stroke-linejoin:miter;stroke-miterlimit:3;stroke-opacity:1;stroke-width:5;stroke:#000"/><path id="path4627-3-2" d="m283.20925 457.85928c-10.24818-3.65074-12.19771-8.47811-13.14205-9.13293-3.48868-2.41906-25.29434-31.62162-35.93034-37.68891" style="display:inline;fill:none;stroke-dasharray:none;stroke-linecap:butt;stroke-linejoin:miter;stroke-miterlimit:4;stroke-opacity:1;stroke-width:5;stroke:#000"/><path id="path4629-0-0" d="m262.61148 457.66092c.0971-.0743.39896-.14737.48137-.44924.65805-2.41031 8.31304-12.2898 15.48987-17.60178.1214-.0898 40.23665-24.13272 61.30578-31.8213" style="display:inline;fill:none;stroke-dasharray:none;stroke-linecap:butt;stroke-linejoin:miter;stroke-miterlimit:4;stroke-opacity:1;stroke-width:5;stroke:#000"/><path id="path4631-2-2" d="m370.58371 399.98904c-3.73678.0516-80.8282 23.26679-103.1205 21.51835-12.10128-.94914-42.04619-14.16578-43.01885-14.04539" style="display:inline;fill:none;stroke-dasharray:none;stroke-linecap:butt;stroke-linejoin:miter;stroke-miterlimit:4;stroke-opacity:1;stroke-width:5;stroke:#000"/><path id="path4633-8-9" d="m284.55365 435.44823c-1.73883-1.23029-10.50162-4.47957-14.45556-11.33521" style="display:inline;fill:none;stroke-dasharray:none;stroke-linecap:butt;stroke-linejoin:miter;stroke-miterlimit:4;stroke-opacity:1;stroke-width:5;stroke:#000"/><path id="path4635-4-2" d="m257.50856 434.0939c-.66616.86984 5.23612-2.12224 12.30421-12.26198" style="display:inline;fill:none;stroke-dasharray:none;stroke-linecap:butt;stroke-linejoin:miter;stroke-miterlimit:4;stroke-opacity:1;stroke-width:5;stroke:#000"/><path id="path4637-1-7" d="m301.89498 416.98156c-1.73883-1.23029-27.50772-63.26358-27.3958-66.93724" style="display:inline;fill:none;stroke-dasharray:none;stroke-linecap:butt;stroke-linejoin:miter;stroke-miterlimit:4;stroke-opacity:1;stroke-width:5;stroke:#000"/><path id="path4639-9-6" d="m242.05481 413.73414c1.44315-2.82128 28.88103-61.16887 29.47236-62.57393" style="display:inline;fill:none;stroke-dasharray:none;stroke-linecap:butt;stroke-linejoin:miter;stroke-miterlimit:4;stroke-opacity:1;stroke-width:5;stroke:#000"/><path id="path4641-1-1" d="M268.46363 421.64667C266.7248 420.41638 256.83701 406.5421 253.13307 391.18646" style="display:inline;fill:none;stroke-dasharray:none;stroke-linecap:butt;stroke-linejoin:miter;stroke-miterlimit:4;stroke-opacity:1;stroke-width:5;stroke:#000"/><path id="path4643-6-7" d="m268.99849 422.75277c1.26117-1.73029 20.99838-27.35457 19.79444-35.33521" style="display:inline;fill:none;stroke-dasharray:none;stroke-linecap:butt;stroke-linejoin:miter;stroke-miterlimit:4;stroke-opacity:1;stroke-width:5;stroke:#000"/><path id="path4645-9-1" d="m271.3845 351.45024c1.44315-2.82128 25.06635-47.38769 25.00149-49.82391" style="display:inline;fill:none;stroke-dasharray:none;stroke-linecap:butt;stroke-linejoin:miter;stroke-miterlimit:4;stroke-opacity:1;stroke-width:5;stroke:#000"/><path id="path4647-7-8" d="m275.36922 353.45714c-.78768-2.18144-11.52383-49.82124-11.41191-53.4949" style="display:inline;fill:none;stroke-dasharray:none;stroke-linecap:butt;stroke-linejoin:miter;stroke-miterlimit:4;stroke-opacity:1;stroke-width:5;stroke:#000"/><path id="path4649-4-2" d="m263.9236 300.43482c.006-1.50878 17.79935-27.25511 17.73449-29.81633" style="display:inline;fill:none;stroke-dasharray:none;stroke-linecap:butt;stroke-linejoin:miter;stroke-miterlimit:4;stroke-opacity:1;stroke-width:5;stroke:#000"/><path id="path4651-0-5" d="m296.4126 301.75098c-.0161-.29344-14.73727-28.71915-14.80213-31.28037" style="display:inline;fill:none;stroke-dasharray:none;stroke-linecap:butt;stroke-linejoin:miter;stroke-miterlimit:4;stroke-opacity:1;stroke-width:5;stroke:#000"/><path id="path4653-6-7" d="m362.06749 329.44944c-2.9588-.80232-63.97627-21.14331-66.02986-28.5217" style="display:inline;fill:none;stroke-dasharray:none;stroke-linecap:butt;stroke-linejoin:miter;stroke-miterlimit:4;stroke-opacity:1;stroke-width:5;stroke:#000"/><path id="path4655-6-9" d="m237.40542 318.35872c2.51117-.35529 25.46804-15.63217 26.7016-18.36281" style="display:inline;fill:none;stroke-dasharray:none;stroke-linecap:butt;stroke-linejoin:miter;stroke-miterlimit:4;stroke-opacity:1;stroke-width:5;stroke:#000"/><path id="path4658-6-9" d="m295.1758 217.75274c-.31725 2.29636-10.084 24.46384-13.6234 53.72979" style="display:inline;fill:none;stroke-dasharray:none;stroke-linecap:butt;stroke-linejoin:miter;stroke-miterlimit:4;stroke-opacity:1;stroke-width:5;stroke:#000"/><path id="path4660-1-7" d="m268.99395 324.2539c-2.60871 6.67905-9.59488 19.71997-12.42415 22.36891" style="display:inline;fill:none;stroke-dasharray:none;stroke-linecap:butt;stroke-linejoin:miter;stroke-miterlimit:4;stroke-opacity:1;stroke-width:5;stroke:#000"/><path id="path4662-8-1" d="m284.21309 326.02717c.97088 9.18802 6.82201 21.98747 9.20623 23.43433" style="display:inline;fill:none;stroke-dasharray:none;stroke-linecap:butt;stroke-linejoin:miter;stroke-miterlimit:4;stroke-opacity:1;stroke-width:5;stroke:#000"/><path id="path4664-5-3" d="m357.07025 348.06197c-1.61546-.30189-54.61455 2.8062-76.90685 1.05776-12.10128-.94914-45.71256-9.04814-48.23364-9.5912" style="display:inline;fill:none;stroke-dasharray:none;stroke-linecap:butt;stroke-linejoin:miter;stroke-miterlimit:4;stroke-opacity:1;stroke-width:5;stroke:#000"/><path id="path4666-3-0" d="m281.16309 367.27287c.65966-1.49283 7.87996-15.67051 11.74615-17.51458" style="display:inline;fill:none;stroke-dasharray:none;stroke-linecap:butt;stroke-linejoin:miter;stroke-miterlimit:4;stroke-opacity:1;stroke-width:5;stroke:#000"/><path id="path4668-7-0" d="m264.62194 365.51681c-.85495-1.76062-5.3751-18.09137-5.7935-19.11338" style="display:inline;fill:none;stroke-dasharray:none;stroke-linecap:butt;stroke-linejoin:miter;stroke-miterlimit:4;stroke-opacity:1;stroke-width:5;stroke:#000"/><path id="path4670-0-8" d="m370.28059 295.77677c-2.878-.55419-58.81638-5.24097-89.13709-22.95216" style="display:inline;fill:none;stroke-dasharray:none;stroke-linecap:butt;stroke-linejoin:miter;stroke-miterlimit:4;stroke-opacity:1;stroke-width:5;stroke:#000"/><path id="path4672-5-5" d="m281.67372 270.99797c-2.60871 6.67905-42.68093 17.90562-46.21731 18.43324" style="display:inline;fill:none;stroke-dasharray:none;stroke-linecap:butt;stroke-linejoin:miter;stroke-miterlimit:4;stroke-opacity:1;stroke-width:5;stroke:#000"/></svg>