<svg viewBox="0 0 560 1e3"><path d="m329.46037 425.76321c-15.4791 1.19068-42.03653 26.26041-44.60913 30.99635 10.29989-9.14088 29.75951-26.28541 44.60913-30.99635z" class="shadow" id="path3443-3"/><path d="m261.71828 457.6115c-6.81704-9.41592-28.83006-31.99347-34.93819-34.15183 5.05404 5.44075 26.5203 25.35081 34.93819 34.15183z" class="shadow" id="path3445-3"/><path id="path4238-3-9-3" d="m371.6898 270.22619c.57746 9.24593 1.7189 28.50735-1.40065 40.696-66.74361-8.03197-132.02579-8.49693-137.54578-6.0638-1.10839-21.54956-.12657-32.63476 4.83014-53.0977 50.54474.32853 93.53218 3.12206 134.11629 18.4655z" style="display:inline;fill-opacity:1;fill-rule:evenodd;fill:#000;opacity:1;stroke-dasharray:none;stroke-linecap:butt;stroke-linejoin:miter;stroke-miterlimit:4;stroke-opacity:1;stroke-width:0;stroke:#000"/><path id="path4240-6-2-0" d="m369.51137 309.78263c-55.12275-8.36934-126.64983-8.64117-135.76034-6.26247-1.34908-23.52121 1.95145-38.87779 4.68879-50.90757 12.4531.21782 86.73913.93307 132.51692 18.25599.51622 10.00929 1.03619 29.36273-1.44537 38.91405z" style="display:inline;fill-opacity:1;fill-rule:evenodd;fill:#333;opacity:1;stroke-dasharray:none;stroke-linecap:butt;stroke-linejoin:miter;stroke-miterlimit:4;stroke-opacity:1;stroke-width:0;stroke:#000"/><path style="display:inline;fill-opacity:1;fill-rule:evenodd;fill:#000;opacity:1;stroke-dasharray:none;stroke-linecap:butt;stroke-linejoin:miter;stroke-miterlimit:4;stroke-opacity:1;stroke-width:0;stroke:#000" d="m368.67614 407.53c.8928 1.03783-5.37284 9.27719-5.37284 9.27719-8.19048 4.90102-49.96568 10.20435-62.40067 20.70752-4.31136 3.64157-13.47661 8.29154-16.37051 16.44054-2.5916 7.29773-3.32032 16.98798-9.68774 14.34823-.12708-.0527-.25389-.22936-.38798-.17253-3.64553 1.54503-9.41962-.71855-11.29492-12.24341-2.95293-18.14755-12.84146-17.24873-13.71165-17.80621-12.60056-8.07247-21.82641-18.94187-25.29113-24.2509-2.6282-5.08184-3.01938-9.25626-3.01938-9.25626 30.95157 34.29024 124.21674 9.16181 147.53682 2.95583z" id="path3581-6-4-0-7-4-3-0-2"/><path style="display:inline;fill-opacity:1;fill-rule:evenodd;fill:#333;opacity:1;stroke-dasharray:none;stroke-linecap:butt;stroke-linejoin:miter;stroke-miterlimit:4;stroke-opacity:1;stroke-width:0;stroke:#000" d="m367.93194 408.743c.8928 1.03783-4.0572 8.30164-4.0572 8.30164-26.45516 18.17615-63.03106 39.13132-79.66632 39.75358-.27428.37469-.68811.67278-.81935 1.10672-3.57923 11.83428-8.32513 9.8537-8.89431 9.63462-.17013-.0655-5.98956 2.88621-10.50307-7.67418-.19489-.456-.68412-.47689-1.06552-.9139-16.27203-7.95813-36.45881-24.8256-39.15367-45.27808.0593-.70684-3.12543-9.00182-3.12543-9.00182 29.78951 36.10978 125.08979 11.0274 147.28487 4.07142z" id="path3581-6-8-0-7-5-9-8"/><path id="path3401-2-3-9-5-4" class="shadow" d="m329.90806 425.67038c-15.4791 1.19068-42.03653 26.26041-44.60913 30.99635 10.29989-9.14088 29.75951-26.28541 44.60913-30.99635z"/><path id="path3406-2-8-5-8-6" class="shadow" d="m262.16597 457.51867c-6.81704-9.41592-28.83006-31.99347-34.93819-34.15183 5.05404 5.44075 26.5203 25.35081 34.93819 34.15183z"/></svg>