<svg viewBox="0 0 560 1e3"><path style="display:inline;fill-opacity:1;fill-rule:evenodd;fill:#000;stroke-dasharray:none;stroke-linecap:butt;stroke-linejoin:miter;stroke-miterlimit:4;stroke-opacity:0;stroke-width:3.0365386;stroke:#000" d="m368.88209 211.77253c-64.55167-12.51048-92.13064-6.45046-110.87378-3.34556-33.57881 9.07156-65.77514 179.14882-62.10315 199.26427 4.07051 22.29856 223.35326 22.83666 226.26346 4.91244 12.47072-132.09647-48.60225-180.64675-53.28653-200.83115z" id="path5001-3-6-1-5-0"/><path style="display:inline;fill-opacity:1;fill-rule:evenodd;fill:#ececec;stroke-dasharray:none;stroke-linecap:butt;stroke-linejoin:miter;stroke-miterlimit:4;stroke-opacity:0;stroke-width:3;stroke:#000" d="m365.46661 214.16203c-63.57211-12.39937-88.96481-8.86804-107.42352-5.79072-33.06926 8.99099-64.77702 177.55778-61.16075 197.49458 4.00874 22.10053 219.96392 22.63385 222.82995 4.86882 12.28148-130.92331-49.63248-176.56754-54.24568-196.57268z" id="path5001-3-5"/><path style="display:inline;fill-opacity:1;fill-rule:evenodd;fill:#000;stroke-dasharray:none;stroke-linecap:butt;stroke-linejoin:miter;stroke-miterlimit:4;stroke-opacity:0;stroke-width:3.10714054;stroke:#000" d="m345.47419 215.07561c-2.36763-3.9611-5.54697-5.55018-2.40748-5.89858 8.38874-.93095 34.71234 8.16419 37.24437 13.34241-.23429-.0227 8.98304 13.63961 15.24451 33.66688 8.18361 26.17525 17.70802 85.4021 14.13566 91.25077-4.01785 6.57809-74.8478 13.09833-89.64497 7.25469-1.99733-.78879 34.48398-37.81749 33.48023-38.17669-.15309-.0548 10.06574 1.34579 18.07817 3.96454.57039.18642 1.12961.37902 1.6731.57771 5.78942 2.11646 8.57164 3.67314 8.57164 3.67314.0955-.0794-2.6005-3.26025-4.73046-9.06137-2.28221-6.21574-4.26216-15.53064-7.38319-25.29594-10.25503-32.08666-23.76787-74.62762-24.26158-75.29756z" id="path4817-6"/><path style="display:inline;fill-opacity:1;fill-rule:evenodd;fill:#ececec;stroke-dasharray:none;stroke-linecap:butt;stroke-linejoin:miter;stroke-miterlimit:4;stroke-opacity:0;stroke-width:3;stroke:#000" d="m347.79148 214.93549c-2.23963-3.9037-15.38045-9.07402-12.40232-8.81311 35.18519 3.08256 42.96057 11.04588 45.3557 16.14906-.22163-.0224 8.49736 13.44194 14.42029 33.17897 7.74115 25.79591 16.75061 84.16444 13.3714 89.92836-3.80063 6.48275-70.80106 12.90851-84.79819 7.14954-1.88935-.77735 32.61955-37.26943 31.67007-37.62342-.14481-.054 9.52153 1.32629 17.10075 3.90708.53956.18372 1.06854.37353 1.58265.56934 5.47639 2.08578 8.1082 3.61991 8.1082 3.61991.0903-.0782-2.4599-3.21301-4.47471-8.93005-2.15881-6.12566-4.03171-15.30556-6.984-24.92935-9.70058-31.62165-22.48283-73.5461-22.94984-74.20633z" id="path4817"/></svg>