<svg viewBox="0 0 560 1e3"><path id="path2965-9-3" d="m370.75046 265.47726c2.21409 23.28099-.7253 46.14918-13.45449 82.44616 10.99639 22.54137 23.12372 56.0668 5.11075 71.22789.0.0-65.04608-4.08064-76.5553 24.25673-2.06147 4.01155-2.1084 11.81811-3.46792 16.10443-.27859.87834-1.00697 6.35332-3.50565 8.26757-.26944.20641-1.13656 1.14752-4.58251.28177-.17413-.0437-1.37345.71664-3.61847.0361-5.83439-1.76869-6.66978-8.86034-6.76649-9.28816-1.98539-8.78313-6.24957-28.02971-9.43291-34.24779-14.19124-27.72004-28.62995-9.19794-29.93779-11.53427-11.73723-28.74664 2.18408-59.97342 12.56739-92.43491-.10903-.84586-.51891-11.56632-2.30126-27.99277.006-35.01018-2.09992-60.6294 42.32741-86.61323-.63873-.33426 4.96499-3.49413 8.64983-6.73616 3.28532 4.0435 10.83699 13.55034 12.30951 13.62094 1.27588.0612 15.96068-12.45203 19.88034-15.84861 2.34221 3.38097 9.23451 6.44402 8.01902 7.24297 28.55661 37.1561 47.21584 24.1433 44.75854 61.21134z" style="display:inline;fill-opacity:1;fill-rule:evenodd;fill:#000;opacity:1;stroke-dasharray:none;stroke-linecap:butt;stroke-linejoin:miter;stroke-miterlimit:4;stroke-opacity:1;stroke-width:0;stroke:#000"/><path id="path2967-1-0" d="m355.71499 347.13997c5.4707 10.63545 24.62227 51.02631 7.13366 72.77717-40.10653 11.44456-75.16501 38.9703-80.17932 38.47964-.78385 1.88787-2.10386 7.06063-4.60076 8.84104-1.21712.86786-3.67455-.009-3.92649-.0331-.29397-.0276-.96836.96577-3.15959.31564-4.34231-1.28834-5.1677-4.97917-6.64606-7.92987-3.42483-1.93016-39.56734-12.17375-40.79275-45.6127-9.42085-40.35587 14.28735-84.21018 14.95197-93.44506.0.0-1.82441-14.60553-2.71344-27.14289-7.31934-70.46253 24.54395-83.12099 41.15391-87.40873.49229-.51848 4.48804-2.99727 8.47886-5.92994 3.23382 4.0224 11.38129 13.71561 12.45235 14.29157 1.35851-.4798 16.33178-13.11289 20.22139-16.51924 1.35413 2.27611 17.9269 7.73976 18.45878 9.08212 24.59696.63038 30.73363 23.56895 32.6646 29.12473 5.70366 45.45415-2.14394 83.80218-13.49711 111.10962z" style="display:inline;fill-opacity:1;fill-rule:evenodd;fill:teal;opacity:1;stroke-dasharray:none;stroke-linecap:butt;stroke-linejoin:miter;stroke-miterlimit:4;stroke-opacity:1;stroke-width:0;stroke:#000"/><path id="path2985-7-6-6-2-1-7" class="shadow" d="m366.47964 414.50072c-.49174-.13304 1.15379-1.44051.42207-1.56851-80.97016 6.44386-142.67257 3.74599-143.46989.26216-.44764.27471.079.81398-.0315 1.1183 2.66613 9.32661 141.81621 2.27212 143.07937.18803z"/><path d="m329.8875 425.70175c-15.4791 1.19068-42.03653 26.26041-44.60913 30.99635 10.29989-9.14088 29.75951-26.28541 44.60913-30.99635z" class="shadow" id="path5772-6-0-1-9"/><path d="m262.14541 457.55004c-6.81704-9.41592-28.83006-31.99347-34.93819-34.15183 5.05404 5.44075 26.5203 25.35081 34.93819 34.15183z" class="shadow" id="path5774-7-9-5-8"/></svg>