<svg viewBox="0 0 560 1e3"><path id="path4285" d="m343.5428 214.6482c-2.42245-3.90715-5.6754-5.47457-2.46322-5.81823 28.51677-1.59867 46.13938 7.94628 64.96752 56.93722-12.92757 16.62112-27.7283 25.65125-32.12414 28.4117-8.45824-20.98258-30.00081-79.03443-30.38016-79.53069z" style="display:inline;fill-opacity:1;fill-rule:evenodd;fill:#000;stroke-dasharray:none;stroke-linecap:butt;stroke-linejoin:miter;stroke-miterlimit:4;stroke-opacity:0;stroke-width:3.12141943;stroke:#000"/><path id="path4287" d="m347.79149 214.93549c-2.23963-3.9037-5.24707-5.46975-2.27732-5.81311 25.74536-1.43752 39.14064 8.0722 59.24564 56.51265-5.56821 6.0939-19.91553 21.65795-30.56089 26.17958-7.26988-20.62244-26.07857-76.41419-26.40743-76.87912z" style="display:inline;fill-opacity:1;fill-rule:evenodd;fill:#ececec;stroke-dasharray:none;stroke-linecap:butt;stroke-linejoin:miter;stroke-miterlimit:4;stroke-opacity:0;stroke-width:3;stroke:#000"/><path id="path4289" d="m418.92393 283.63427c-2.76064-5.57782-8.4258-15.74214-11.73984-21.40909-9.5235 1.32449-31.74072 12.62332-42.39173 15.10751 4.29035 9.20801 8.49187 18.57636 10.22895 22.7177 23.41335-5.4895 43.22148-16.45472 43.90262-16.41612z" style="display:inline;fill-opacity:1;fill-rule:evenodd;fill:#000;stroke-dasharray:none;stroke-linecap:butt;stroke-linejoin:miter;stroke-miterlimit:4;stroke-opacity:0;stroke-width:3.61488533;stroke:#000"/><path id="path4291" d="m417.369 283.05648c-2.55336-5.1207-7.78875-14.45389-10.85042-19.65787-8.73828 1.18577-29.88895 12.05902-39.65837 14.30442 3.97001 8.45258 7.85906 17.0519 9.46788 20.85287 21.47532-4.96225 40.41546-15.53682 41.04091-15.49942z" style="display:inline;fill-opacity:1;fill-rule:evenodd;fill:#ececec;stroke-dasharray:none;stroke-linecap:butt;stroke-linejoin:miter;stroke-miterlimit:4;stroke-opacity:0;stroke-width:3.31591892;stroke:#000"/></svg>