<svg viewBox="0 0 560 1e3"><path id="path2126" class="skin" d="m266.5 836c3.5 2.8-.9875 9.45 2.1125 19.25 2.4 7.6 3.8875 7.05 4.7875 10.95.11837.44389.20107.89986.2499 1.36643.0871.83261-.63777 1.67563-.89835 2.44971-.67242 1.99751-1.70134 3.80114-3.31537 5.75169-1.9215 2.32211-4.49172 4.26352-7.10121 6.6927-1.49222 1.38912-2.75934 3.23517-4.52673 4.65138-4.31177 3.45503-7.20497 8.94884-12.07074 11.04434-7.12679 3.06924-8.55294-.75177-14.66544-.86427-.92439-.2057-1.60311-.21405-1.97931-.11985-.0328.008.0443-.0552.0702-.0859 1.10089-1.30277 2.89726-3.05802 5.03702-5.78622 1.7-2.2 9.3-12.9 10.8-23.4 1.9-13.2 7.6-22.4 8.2-30.7.7-7.5 7.7-5.8 13.3-1.2z"/><path id="path2194-8" class="shoe" d="m278.30142 543.28066c2.20726 11.90521 4.57557 23.6552 6.59947 33.48862 1.34859 6.55229 2.32822 12.24356 3.27655 16.70366.70088 3.3583.82222 4.27173.84487 4.53654.0721 31.02056-5.17242 64.13655-6.38075 90.46552.0507.30172.98852 3.3223 1.77805 6.64328.98587 4.14689 1.86401 8.76215 1.92059 9.13699 6.17549 40.91244-7.18386 75.47003-8.8084 86.09473-2.7903 8.19621-7.65221 28.83141-10.04723 45.96907-.0262.18719-.23576.45854-.0776.56031 1.36499.8783.5402 6.54885.36628 10.31839-.053 1.38878.39636 7.81402 2.59574 11.64996 2.2035 3.84311 3.54622 6.54313 4.07457 8.4631.37582 1.36566-.69889 2.09668-1.02939 2.85616-1.90751 4.3834-6.22696 8.30904-10.91197 12.18661-2.35119 1.94598-4.87468 5.20839-7.74128 8.04331-3.54556 3.50637-6.58017 7.45035-11.13406 8.71062-3.40447.94218-7.54214-.2791-11.43506-1.55957-.17822-.0586-3.28632-.10838-3.06607-.40748 4.41098-5.99016 6.25657-6.01428 12.60045-19.46385 2.90027-6.14882 2.89161-11.89849 4.45855-17.49665 1.23514-4.41274 2.667-8.2196 3.33372-10.23477 1.31113-3.96292 3.12462-8.8497 3.20715-9.84346.1756-.91495.48488-3.41672.5334-3.94431.0438-.47579.44346-1.12301.42239-1.62444-1.22609-29.18215-2.4744-89.28311-4.47414-123.583.0-1.76318-3.37151-40.41326-3.8778-45.39115-.029-.28544-3.93381-13.14407-9.10731-35.37362-5.28246-22.69774-14.68375-58.22186-17.64393-99.47107 8.59728 3.95729 33.33079 6.5159 58.22959 2.66673z"/><path id="path2128" class="shoe" d="m271.2 895.3c6.5-2.7 9.7-4 11-6.6 2.2-4.4.1-9.5-1.5-13.4s-4.7-9-6.6-8.5c-1 .3-.9 2-2 4.4-1.4 3.6-3.8 5.6-6.4 7.9-14.5 12.9-17.5 20.3-25.1 20-4.2-.1-5.3-2.4-11.3-2.1-.8.0-4.9.3-9.7 2.5-2 1-9.2 4.4-8.8 7.3.6 4.1 15.6 4.8 17.4 4.9 6.4.3 12.4.6 18.5-2.8 5.1-2.8 4.1-4.9 10-8.3 4.8-2.6 6.1-1.9 14.5-5.3z"/><path id="path2128-5" class="shoe" d="m271.2 895.3c6.5-2.7 9.7-4 11-6.6 2.2-4.4.1-9.5-1.5-13.4s-4.7-9-6.6-8.5c-1 .3-.9 2-2 4.4-1.4 3.6-3.8 5.6-6.4 7.9-14.5 12.9-17.5 20.3-25.1 20-4.2-.1-5.3-2.4-11.3-2.1-.8.0-4.9.3-9.7 2.5-2 1-9.2 4.4-8.8 7.3.6 4.1 15.6 4.8 17.4 4.9 6.4.3 12.4.6 18.5-2.8 5.1-2.8 4.1-4.9 10-8.3 4.8-2.6 6.1-1.9 14.5-5.3z"/><path id="path2130" class="shoe" d="m320.7 872.8c-3.4 4.4-1.1 6.9-4.1 23.2-1.2 6.3-1.8 12.7-3.3 18.9-.5 2.1-1.3 5.2-.5 8.8.3 1 1.3 5.1 4.4 7.3 3.2 2.2 2.6 3.5 10.8 3.2 8.3-.3 9-1.3 11-3 5-4 3.5-16.6 2.8-21.3-.7-5.5-1.6-6-2.1-12.4-.6-7.3.5-8.3-.2-13.3-.4-3.6-1.7-13.1-7.6-15.9-4.5-2.3-7.7.0-11.2 4.5z"/><path id="path2128-5-6" class="shoe" d="m271.2 895.3c6.5-2.7 9.7-4 11-6.6 2.2-4.4.1-9.5-1.5-13.4s-4.7-9-6.6-8.5c-1 .3-.9 2-2 4.4-1.4 3.6-3.8 5.6-6.4 7.9-14.5 12.9-17.5 20.3-25.1 20-4.2-.1-5.3-2.4-11.3-2.1-.8.0-4.9.3-9.7 2.5-2 1-9.2 4.4-8.8 7.3.6 4.1 15.6 4.8 17.4 4.9 6.4.3 12.4.6 18.5-2.8 5.1-2.8 4.1-4.9 10-8.3 4.8-2.6 6.1-1.9 14.5-5.3z"/><path id="path2130-4" class="shoe" d="m320.7 872.8c-3.4 4.4-1.1 6.9-4.1 23.2-1.2 6.3-1.8 12.7-3.3 18.9-.5 2.1-1.3 5.2-.5 8.8.3 1 1.3 5.1 4.4 7.3 3.2 2.2 2.6 3.5 10.8 3.2 8.3-.3 9-1.3 11-3 5-4 3.5-16.6 2.8-21.3-.7-5.5-1.6-6-2.1-12.4-.6-7.3.5-8.3-.2-13.3-.4-3.6-1.7-13.1-7.6-15.9-4.5-2.3-7.7.0-11.2 4.5z"/><path id="path2130-4-4" class="shoe" d="m320.7 872.8c-3.4 4.4-1.1 6.9-4.1 23.2-1.2 6.3-1.8 12.7-3.3 18.9-.5 2.1-1.3 5.2-.5 8.8.3 1 1.3 5.1 4.4 7.3 3.2 2.2 2.6 3.5 10.8 3.2 8.3-.3 9-1.3 11-3 5-4 3.5-16.6 2.8-21.3-.7-5.5-1.6-6-2.1-12.4-.6-7.3.5-8.3-.2-13.3-.4-3.6-1.7-13.1-7.6-15.9-4.5-2.3-7.7.0-11.2 4.5z"/><path id="path2132" class="skin" d="m321.9 846.6c-1.1 1.1-1.6 2.6-2.5 5.7-1.1 3.3-2.5 8.1-2.4 14.4.1 5.1 1.2 4.6 1.6 10.6.4 5.5-.1 9.9-1 17.2-1.2 9.8-2.1 11.4-.9 13.8 2.4 4.4 8.8 4.4 12.1 4.4 5.6.0 10.6-2 11.7-6.8.3-1.1.0-2-.2-3.1-1.7-8.2.0-9.3-1.3-18.1-1.3-9-2-8.5-1.9-14.6.1-5.1 2.9-7.9.0-17.7-1.4-3.2-2.1-4.6-2.8-5.2-3.2-3.4-9.2-3.9-12.4-.6z"/><path id="path2192-0" class="shoe" d="m336.75063 850.31365c-.14311-22.79826 3.37857-50.37906 6.80969-78.0601 2.15208-12.04194 4.34878-41.61821 3.11133-66.15805-.0857-1.69941-1.35479-21.26208-1.80621-24.53802-.0942-.68329 14.13452-62.88643 11.22787-141.85464-30.37265 5.29148-62.97252 1.48629-79.21581-6.27789-.51515 23.01396 7.5443 44.92146 11.41442 63.47885 3.43164 25.80733 17.03719 60.35679 25.16143 84.88521-3.95373 11.86831-5.33279 30.23655-5.24029 32.83871-3.17133 25.48782 4.30858 66.62501 4.30858 66.62501 2.94016 23.68362 6.90928 44.56488 7.07976 69.17752-.70306 1.163-2.57756 9.14625-2.83404 13.57777-.16805 2.90352.44192 7.23557 1.05162 9.936.14296.63319.30461 1.2479.48328 1.84351.78142 2.60504-.29664 10.51979-.85416 16.3172-.49168 5.11272-2.95855 13.20077-.69471 17.29431 2.8249 5.10806 10.56907 3.72595 12.07534 3.88899 2.64008.28577 10.21758.21666 11.93552-7.44698.16309-.72753-.59538-3.81974-.92995-7.09278-.3596-3.51782-.27519-7.23635-.2493-8.03763.20239-6.26318-2.01625-13.19517-2.22879-16.68512-.0818-1.3429-.0606-4.01856.14805-5.51031.37613-2.68936 1.07992-5.60895 1.20328-8.94967.10551-2.85741-1.56331-7.95921-1.95691-9.25189z"/><path id="path2128-5-6-1" class="shoe" d="m271.2 895.3c6.5-2.7 9.7-4 11-6.6 2.2-4.4.1-9.5-1.5-13.4s-4.7-9-6.6-8.5c-1 .3-.9 2-2 4.4-1.4 3.6-3.8 5.6-6.4 7.9-14.5 12.9-17.5 20.3-25.1 20-4.2-.1-5.3-2.4-11.3-2.1-.8.0-4.9.3-9.7 2.5-2 1-9.2 4.4-8.8 7.3.6 4.1 15.6 4.8 17.4 4.9 6.4.3 12.4.6 18.5-2.8 5.1-2.8 4.1-4.9 10-8.3 4.8-2.6 6.1-1.9 14.5-5.3z"/></svg>