<svg viewBox="0 0 560 1e3"><path id="path811" style="fill-rule:evenodd;fill:none;stroke-dasharray:none;stroke-linecap:round;stroke-linejoin:miter;stroke-miterlimit:3;stroke-opacity:1;stroke-width:2;stroke:#780000" d="m283.266 203.04489 13.684 11.04261c-1.63332 5.69038-5.58705 17.05451-7.52294 24.56739-1.31292 5.09519-12.63008 11.98051-13.00489 14.57133-.95556 6.60517 2.21576 26.42825 2.21576 26.42825s-13.27747 16.12568-13.72133 21.19008c-.44386 5.0644 9.1856 20.70076 9.1856 20.70076s-14.29082 11.54445-14.66412 15.51966c-.3733 3.97521 9.7691 20.25521 9.7691 20.25521s-15.21446 15.58066-15.65359 19.38598c-.43914 3.80532 12.14327 26.48656 12.14327 26.48656s-13.06557 27.07822-12.50002 31.94288 13.41566 9.2894 13.41566 9.2894m7.71188 23.5334c-4.38853-.52561-8.54367-23.1012-7.48766-23.63187 2.59642-1.30474 14.74711-5.90073 14.26248-10.14295-.54799-4.79686-15.40234-30.99086-15.40234-30.99086s16.90559-21.2959 17.18086-24.40684c.27527-3.11094-13.67054-21.4657-13.67054-21.4657s14.85046-14.768 14.91838-18.0491c.0679-3.28109-10.02336-17.72577-10.02336-17.72577s17.20036-13.35198 17.92631-18.04552-13.39058-23.84532-13.39058-23.84532 15.78197-18.92666 16.33827-25.60739c.1837-2.2061-6.9161-9.85935-5.53376-15.391 2.58726-10.35324 7.44506-24.56858 7.44506-24.56858l23.65209-11.80605"/><path style="fill-rule:evenodd;fill:none;stroke-dasharray:none;stroke-linecap:round;stroke-linejoin:miter;stroke-miterlimit:3;stroke-opacity:1;stroke-width:2;stroke:#780000" d="m243.06779 250.41394c8.89748.8284 24.3753 1.23037 31.5981 2.73646-9.07057 1.20286-24.96704 4.90179-33.0913 5.95926" id="path813"/><path style="fill-rule:evenodd;fill:none;stroke-dasharray:none;stroke-linecap:round;stroke-linejoin:miter;stroke-miterlimit:3;stroke-opacity:1;stroke-width:2;stroke:#780000" d="m368.59905 256.10135c-20.00873-1.45087-49.71239-.86677-71.24785-1.55427 22.73019 3.82363 50.9586 9.02404 69.77804 16.75842" id="path815"/><path style="fill-rule:evenodd;fill:none;stroke-dasharray:none;stroke-linecap:round;stroke-linejoin:miter;stroke-miterlimit:3;stroke-opacity:1;stroke-width:2;stroke:#780000" d="m239.38849 297.00403c11.10559 2.11719 17.98137 2.74272 25.52811 3.84052-7.76353 1.9703-17.27822 3.21884-23.71963 4.38384" id="path817"/><path style="fill-rule:evenodd;fill:none;stroke-dasharray:none;stroke-linecap:round;stroke-linejoin:miter;stroke-miterlimit:3;stroke-opacity:1;stroke-width:2;stroke:#780000" d="m357.65703 309.58619-65.62852-6.0864c18.6846 6.99932 38.97105 14.50129 60.35603 17.72008" id="path819"/><path style="fill-rule:evenodd;fill:none;stroke-dasharray:none;stroke-linecap:round;stroke-linejoin:miter;stroke-miterlimit:3;stroke-opacity:1;stroke-width:2;stroke:#780000" d="m345.179 401.45198c-24.85562 4.67564-37.04826 23.70411-64.0798 32.7316 22.82814-12.51843 30.33567-34.00702 59.08431-40.60495" id="path821"/><path style="fill-rule:evenodd;fill:none;stroke-dasharray:none;stroke-linecap:round;stroke-linejoin:miter;stroke-miterlimit:3;stroke-opacity:1;stroke-width:2;stroke:#780000" d="m226 413.2c10.40403 3.57274 17.56019 12.60748 27.19684 21.9356-7.59549-11.61614-13.1664-22.41963-24.63012-28.62026" id="path823"/><path style="fill-rule:evenodd;fill:none;stroke-dasharray:none;stroke-linecap:round;stroke-linejoin:miter;stroke-miterlimit:3;stroke-opacity:1;stroke-width:2;stroke:#780000" d="m244.82551 332.32531 14.61257 4.73966-14.54313 2.32005" id="path825"/><path style="fill-rule:evenodd;fill:none;stroke-dasharray:none;stroke-linecap:round;stroke-linejoin:miter;stroke-miterlimit:3;stroke-opacity:1;stroke-width:2;stroke:#780000" d="m341.26152 337.17398c-18.31566.80828-38.81467 1.30571-57.13596 2.0971 15.42935 3.92331 33.91808 9.17383 46.28592 13.60739" id="path827"/><path style="fill-rule:evenodd;fill:none;stroke-dasharray:none;stroke-linecap:round;stroke-linejoin:miter;stroke-miterlimit:3;stroke-opacity:1;stroke-width:2;stroke:#780000" d="m325.97592 369.63588c-13.81611 1.60858-30.33534 4.90827-43.0982 9.15 15.263.085 31.25479 1.0269 47.8609 2.21005" id="path829"/><path style="fill-rule:evenodd;fill:none;stroke-dasharray:none;stroke-linecap:round;stroke-linejoin:miter;stroke-miterlimit:3;stroke-opacity:1;stroke-width:2;stroke:#780000" d="m241.55779 372.35603c3.28983 1.51937 9.48358 2.83076 11.9958 4.35013-3.03605.12601-9.71927.35855-13.52766.742" id="path831"/><path style="fill-opacity:1;fill-rule:evenodd;fill:maroon;stroke-linecap:round;stroke-linejoin:miter;stroke-opacity:1;stroke-width:1px;stroke:#780000" d="m272.1141 251.53004c3.29661.005 2.29085-1.09045 3.92359-1.36769l2.02206.40442c.93908.26173.67928 6.11426-.33088 6.02941l-2.09559-.22059c-1.65597-.11943-1.03128-1.24079-3.64155-1.68302z" id="path833"/><path style="display:inline;fill-opacity:1;fill-rule:evenodd;fill:maroon;stroke-linecap:round;stroke-linejoin:miter;stroke-opacity:1;stroke-width:1px;stroke:#780000" d="m260.75745 299.50059c3.29661.005 2.29085-1.09045 3.92359-1.36769l2.02206.40442c.93908.26173.67928 6.11426-.33088 6.02941l-2.09559-.22059c-1.65597-.11943-1.03128-1.24079-3.64155-1.68302z" id="path835"/><path style="display:inline;fill-opacity:1;fill-rule:evenodd;fill:maroon;stroke-linecap:round;stroke-linejoin:miter;stroke-opacity:1;stroke-width:1px;stroke:#780000" d="m255.58516 335.43341c3.29661.005 2.29085-1.09045 3.92359-1.36769l2.02206.40442c.93908.26173.67928 6.11426-.33088 6.02941l-2.09559-.22059c-1.65597-.11943-1.03128-1.24079-3.64155-1.68302z" id="path837"/><path style="display:inline;fill-opacity:1;fill-rule:evenodd;fill:maroon;stroke-linecap:round;stroke-linejoin:miter;stroke-opacity:1;stroke-width:1px;stroke:#780000" d="m250.25842 374.42923c2.72469.7849 1.40697.0534 3.19569.14011l2.02206.40442c.93908.26173.57529 3.87856-.43487 3.79371l-2.09559-.22059c-1.65597-.11943-.82331-.98083-3.12162-.90312z" id="path839"/><path style="display:inline;fill-opacity:1;fill-rule:evenodd;fill:maroon;stroke-linecap:round;stroke-linejoin:miter;stroke-opacity:1;stroke-width:1px;stroke:#780000" d="m250.83035 429.84059c.95691.78489 1.30298 1.45721 2.20781 1.33595l1.65811.76837c.93908.26173.78327 3.82656-.22689 3.74171l-2.0436-.0646c-1.60398-.79534-.51135-1.44876-2.54969-2.5669z" id="path841"/><path style="display:inline;fill-opacity:1;fill-rule:evenodd;fill:maroon;stroke-linecap:round;stroke-linejoin:miter;stroke-opacity:1;stroke-width:1px;stroke:#780000" d="m284.13184 431.5505c-1.8408.7329-1.53772-.46806-2.8585-.17338l-1.86608.87236c-.93908.26173-.403 3.47829.60716 3.39344l2.09559-.22059c1.08405-.43139.84268-1.00759 2.15312-1.6058z" id="path843"/><path style="display:inline;fill-opacity:1;fill-rule:evenodd;fill:maroon;stroke-linecap:round;stroke-linejoin:miter;stroke-opacity:1;stroke-width:1px;stroke:#780000" d="m286.438 376.67971c-3.29661.005-2.29085-1.09045-3.92359-1.36769l-2.02206.40442c-.93908.26173-.67928 6.11426.33088 6.02941l2.09559-.22059c1.65597-.11943 1.03128-1.24079 3.64155-1.68302z" id="path845"/><path style="display:inline;fill-opacity:1;fill-rule:evenodd;fill:maroon;stroke-linecap:round;stroke-linejoin:miter;stroke-opacity:1;stroke-width:1px;stroke:#780000" d="m288.13011 338.37481c-3.24695-.57004-2.22153-1.00534-3.7809-1.5631l-2.0616.0456c-.97033.0939-1.42328 4.70624-.41381 4.79887l2.10195.14828c1.65142.17121 1.28387-.72996 3.93126-.71016z" id="path847"/><path style="display:inline;fill-opacity:1;fill-rule:evenodd;fill:maroon;stroke-linecap:round;stroke-linejoin:miter;stroke-opacity:1;stroke-width:1px;stroke:#780000" d="m294.70783 302.9585c-1.41097-.25127-.97401-.70779-1.7893-.95129l-2.06044.0828c-.96848.11148-1.7322 2.63093-.98119 3.4072l2.26026.16222c.71837.0373.74491-.54408 2.30037-.31219z" id="path849"/><path style="display:inline;fill-opacity:1;fill-rule:evenodd;fill:maroon;stroke-linecap:round;stroke-linejoin:miter;stroke-opacity:1;stroke-width:1px;stroke:#780000" d="m299.13269 253.33113c-3.24602-.57532-1.6955-.96194-3.25395-1.52224l-2.06168-.10485c-.97048.0923-1.67133 4.686-.66201 4.78027l1.95466.48258c1.65113.17391 1.12327-1.18696 3.77062-1.16285z" id="path851"/><path style="display:inline;fill-opacity:1;fill:maroon;stroke-dasharray:none;stroke-dashoffset:0;stroke-linecap:round;stroke-linejoin:bevel;stroke-miterlimit:3;stroke-opacity:1;stroke-width:1;stroke:#780000" d="m276.41331 321.54531a2.3111103 2.3111103.0 01-2.31111 2.31111 2.3111103 2.3111103.0 01-2.31111-2.31111 2.3111103 2.3111103.0 012.31111-2.31111 2.3111103 2.3111103.0 012.31111 2.31111z" id="path853"/><path style="display:inline;fill-opacity:1;fill:maroon;stroke-dasharray:none;stroke-dashoffset:0;stroke-linecap:round;stroke-linejoin:bevel;stroke-miterlimit:3;stroke-opacity:1;stroke-width:1;stroke:#780000" d="m271.51829 357.32018a2.3111103 2.3111103.0 01-2.31111 2.31111 2.3111103 2.3111103.0 01-2.31111-2.31111 2.3111103 2.3111103.0 012.31111-2.31111 2.3111103 2.3111103.0 012.31111 2.31111z" id="path855"/><path style="display:inline;fill-opacity:1;fill-rule:evenodd;fill:maroon;stroke-linecap:round;stroke-linejoin:miter;stroke-opacity:1;stroke-width:1.01785493px;stroke:#780000" d="m268.57842 449.10732c-1.91821-.87602-1.58231-1.03534-3.10987.3706.0145.29298.35998 2.93011.50001 3.23589 2.18632.98824 1.94406.8202 3.3125-.8063-.35345-1.68233-.47338-1.86383-.70264-2.80019z" id="path843-7"/><path style="display:inline;fill-opacity:1;fill-rule:evenodd;fill:maroon;stroke-linecap:round;stroke-linejoin:miter;stroke-opacity:1;stroke-width:1.07243621px;stroke:#780000" d="m269.93731 454.74918c-2.12943-.87602-1.75656-1.03534-3.45233.3706.0161.29298.39962 2.93011.55507 3.23589 2.42709.98824 2.15814.8202 3.67728-.8063-.39236-1.68233-.52551-1.86383-.78002-2.80019z" id="path843-7-8"/><path style="display:inline;fill-opacity:1;fill-rule:evenodd;fill:maroon;stroke-linecap:round;stroke-linejoin:miter;stroke-opacity:1;stroke-width:1.14677155px;stroke:#780000" d="m271.6161 459.90829c-2.25175-.94727-1.85746-1.11955-3.65062.40074.0171.31681.42258 3.16842.58695 3.49907 2.56648 1.06862 2.28209.88691 3.88847-.87188-.4149-1.81915-.55569-2.01541-.8248-3.02793z" id="path843-7-8-5"/><path style="display:inline;fill-opacity:1;fill-rule:evenodd;fill:maroon;stroke-linecap:round;stroke-linejoin:miter;stroke-opacity:1;stroke-width:1.0655576px;stroke:#780000" d="m272.825 464.06822c-2.14931.0978-1.92642-.21814-2.6057 1.87025.15679.27294 1.76062 2.62494 2.0362 2.84892 2.44471-.12132 2.14508-.16381 2.5735-2.38544-1.14241-1.43557-1.339-1.55057-2.004-2.33373z" id="path843-7-8-5-0"/><path style="display:inline;fill-opacity:1;fill-rule:evenodd;fill:maroon;stroke-linecap:round;stroke-linejoin:miter;stroke-opacity:1;stroke-width:1.0655576px;stroke:#780000" d="m292.63798 232.95142c-1.33097-1.69044-.94433-1.6932-3.03772-1.02944-.1306.28639-1.10892 2.95978-1.13055 3.31425 1.52211 1.91691 1.38218 1.64856 3.43782.70329.50193-1.76467.48095-1.99145.73045-2.9881z" id="path843-7-8-5-0-1"/><path style="display:inline;fill-opacity:1;fill-rule:evenodd;fill:maroon;stroke-linecap:round;stroke-linejoin:miter;stroke-opacity:1;stroke-width:1.0655576px;stroke:#780000" d="m294.40345 227.07813c-1.32666-1.69383-.94002-1.6956-3.03509-1.03717-.13133.28606-1.11645 2.95695-1.13898 3.31136 1.51723 1.92077 1.37799 1.65207 3.43602.71204.50641-1.76339.48602-1.99023.73805-2.98623z" id="path843-7-8-5-0-1-6"/><path style="display:inline;fill-opacity:1;fill-rule:evenodd;fill:maroon;stroke-linecap:round;stroke-linejoin:miter;stroke-opacity:1;stroke-width:1.0655576px;stroke:#780000" d="m296.20761 221.4205c-1.30595-1.70984-.91932-1.70691-3.02224-1.07403-.13482.28443-1.15236 2.94313-1.17921 3.29725 1.49374 1.9391 1.35777 1.66872 3.4271.7538.52785-1.75709.5102-1.98415.77435-2.97702z" id="path843-7-8-5-0-1-1"/></svg>