<svg viewBox="0 0 560 1e3"><path id="path4417" d="m368.45236 268.83602c.40069 1.40387.82871 12.89967-6.36035 37.77919-5.42713 18.7819-16.94382 30.35812-17.5402 31.8162-25.66841 29.35282-13.796 34.17212 6.39394 73.01258-6.77849-.43951-61.15709 35.47498-64.36648 39.88942-4.17492 5.74251-3.48792 15.45153-7.05147 16.69466-13.46483 4.69716-17.71458-10.66263-17.71458-10.66263-4.8193-5.72212-30.9824-38.5202-36.35566-44.21509 6.00011-14.77478 8.13676-17.84347 13.05994-38.7795 4.933-24.62184 5.61437-34.09551 5.66064-35.92365.54922-21.69994-6.92316-30.86165-7.69663-48.14901.0593-3.96205.54372-11.54174 1.09547-18.05229 62.57918 4.47377 69.07816-65.8883 90.17112-67.12979l7.59584 2.33175s2.06758 47.98109 31.34027 60.01839z" style="display:inline;fill-opacity:1;fill-rule:evenodd;fill:#000;opacity:1;stroke-dasharray:none;stroke-linecap:butt;stroke-linejoin:miter;stroke-miterlimit:4;stroke-opacity:1;stroke-width:0;stroke:#000"/><path id="path4419" d="m368.47602 268.56519c-.47811 3.70196-2.18838 20.64961-7.95729 39.14162-4.16837 13.36154-15.52339 28.71626-16.52871 29.92604-29.6913 31.43902-12.22929 38.35563 7.01029 73.83037-.55664.0414-47.49329 23.51462-61.47711 38.87517-.47092.51729-4.17491 4.76726-5.23398 8.44091-1.6278 5.64637-1.5954 11.29581-9.40081 10.94714-10.28078-.45924-13.25713-12.56133-13.25713-12.56133-2.03284-2.81679-34.0037-40.85898-36.18915-43.91634 11.76009-21.1674 17.81453-47.07461 19.60956-69.44075 1.86947-23.29365-3.5327-25.06879-6.61783-49.004-.5906-6.66283-.54065-14.54556.0479-21.75232 61.67051 3.97776 68.2774-62.85135 88.75952-67.83763 1.26818-.30873 6.69875 1.61195 8.0561 1.79259 11.52355 41.32719-.84476 29.66887 33.17867 61.55853z" style="display:inline;fill-opacity:1;fill-rule:evenodd;fill:#c8c8c8;opacity:1;stroke-dasharray:none;stroke-linecap:butt;stroke-linejoin:miter;stroke-miterlimit:4;stroke-opacity:1;stroke-width:0;stroke:#000"/></svg>