<svg viewBox="0 0 560 1e3"><path style="fill-opacity:1;fill:#222a12" id="path3945" d="m225.8 413.1s-18.61299 38.81162-20.11299 63.21162C201.88701 536.61162 215 608.9 237.1 664.9c7.5 61.7 14.8 123 17.3 185.1l11.5-.3c2.3-52.9 39.2-99.2 20.2-160.8 13.6-57.7 6.2-71.9 1-161-5.4 94.3 4.4 110.4 14.2 154.8-15.6 58 17.8 109.6 18.6 167.8h16.3C336.4 792 352.6 755.3 344.7 681c23.8-69.9 34.02165-148.52893 29.22165-211.92893-2-25.9-23.52165-57.67107-23.52165-57.67107l-124.6 1.7"/><path id="path3947" class="shadow" d="M289.6 630.9C279.8 590.6 268.8 530 272.8 483.8c-.8 44.7 7.6 106.4 16.8 147.1z"/><path style="fill-opacity:1;fill:#222a12" d="m226.3 412.5c27.9-30 93.7-36.4 123.8-1.4 18.2 21.2 25.4 60.2 7 78.9-8.2 8.3-22.1 13.3-35 11-24.2-4.4-25.9-31.9-47.3-34.5C256.7 464.3 248.5 483 231 478 220.9 475.1 221.28701 468.07973 218.48701 460.07973 216.5943 437.63189 223.7 415.2 226.3 412.5z" id="path3949"/><path style="fill-opacity:1;fill:#222a12" d="m226.3 412.5c20-34.8 104.4-37.1 124-1.5 11.9 21.7 1.4 60.5-22.3 72-.8.4-20.2 9.5-34 1-9.5-5.8-10.3-16.2-19.3-17.5-6.4-1-8.4 3.9-17.8 5.5-9.2 1.5-18.7-1.3-24-5-14.1-9.8-16-38.2-6.6-54.5z" id="path3951"/><path style="display:inline;fill-opacity:1;fill:#666;stroke-width:.93248802" id="path3953" d="m319.16456 830.57146c.72948 5.19982 1.06076 15.21579.9298 19.91861 8.3721.43817 15.89065.0791 15.89065.0791l1.21823-20.49225c-5.90239-.0349-12.15813-.33944-18.03868.49456z"/><path style="display:inline;fill-opacity:1;fill:#666;stroke-width:.77294189" id="path3955" d="m267.96084 830.99933c-.67798 4.75788-1.99643 15.05954-1.90644 19.76236-5.75231.43817-11.15441-.0977-11.15441-.0977-.38064-6.40787 1.03708-11.53343-1.07436-18.97978-.11993-.42294.0131-.89742-.13241-1.33569 4.05542-.0349 10.2272-.18319 14.26762.65081z"/><path style="display:inline;fill-opacity:1;fill:#666;stroke-width:1.1576494" id="path3957" d="m302.35819 679.9605c-.65957 3.01853-4.00449 10.41575-4.1867 15.62526 3.24082 5.33589 12.7643 16.44254 23.35314 16.53877 18.0944.16444 25.06992-16.15742 25.06992-16.15742l-1.80118-16.23613c-11.73269-22.43693-29.44817-24.51905-42.43518.22952z"/><path style="display:inline;fill-opacity:1;fill:#666;stroke-width:.95507294" id="path3959" d="m286.34817 687.65119c.31985 2.84162 2.48645 7.9711 2.56355 10.61042-33.49674-.81189-36.07085 11.9757-46.23668 14.0791l-5.70477-44.56852c20.60435-.85204 26.41425 18.93273 49.3779 19.879z"/><path style="display:inline;fill-opacity:1;fill:#222a12;stroke-width:.89274955" id="path3961" d="m286.5904 688.50442c.27027 2.47055 2.35739 6.94922 2.38707 9.24127-33.69291-1.10526-37.98389 13.16056-46.94774 12.29383l-4.76689-40.63193c17.83787-1.23681 27.88539 18.95584 49.32756 19.09683z"/><path style="display:inline;fill-opacity:1;fill:#222a12;stroke-width:.94228274" id="path3963" d="m319.14293 831.58226c.74488 5.19982.93088 15.12204.79714 19.82486 8.54891.43817 16.47624.0479 16.47624.0479l.7653-20.49225c-6.02704-.0349-12.03394-.21444-18.03868.61956z"/><path style="display:inline;fill-opacity:1;fill:#222a12;stroke-width:.76248449" id="path3965" d="m267.76779 832.12203c-.526 4.82152-1.79504 14.05231-1.7006 18.41299-6.03691.4063-11.7063-.0906-11.7063-.0906l-.51344-18.79328c4.25606-.0324 9.68002-.30245 13.92034.47088z"/><path style="display:inline;fill-opacity:1;fill:#666;stroke-width:.77294189" id="path3967" d="m278.74518 698.06496c.0733.33846 10.66305 24.54987-13.9957 132.62286-.42691.0404-2.42651-.14883-2.42651-.14883 25.46233-109.7373 15.06626-126.16515 14.70009-132.17597.91767-.036 1.4532-.34872 1.72212-.29806z"/><path style="display:inline;fill-opacity:1;fill:#666;stroke-width:.69586897" id="path3969" d="m303.39065 696.9107c-.0586.34299-7.78119 13.30811 16.65683 134.08112.34146.0409 1.9408-.15082 1.9408-.15082-22.66685-115.77984-17.7631-125.72463-17.47023-131.81575-.73398-.0365-.91231-2.16588-1.1274-2.11455z"/><path style="display:inline;fill-opacity:1;fill:#666;stroke-width:.48342791" id="path3971" d="m305.56682 682.43194c-.44152-10.48322-.14672-11.37753-16.49212-53.36318-.49623-1.83935-1.2295-5.03415-1.2295-5.03415 16.83284 39.37868 18.00123 48.75074 19.05405 56.0155.0217.1495-1.34577 2.25779-1.33243 2.38183z"/><path style="display:inline;fill-opacity:1;fill:#666;stroke-width:.48342791" id="path3973" d="m213.38174 443.92146c30.28716 6.85903 29.2036 41.60698 59.28401 40.70375 2.7347-8.24473 65.13543-46.18246 91.81628-48.06717-2.40469-10.95538-6.83284-14.6046-6.83284-14.6046-32.90472 6.43679-81.83737 49.11381-84.62106 56.7466-26.35917-2.22109-39.39317-52.80653-54.99875-48.07445-.72964 1.58795-4.99234 10.64147-4.64764 13.29587z"/><path style="display:inline;fill-opacity:1;fill:#666;stroke-width:.77294189" id="path3975" d="m275.74912 555.98222c-.0733.33846-21.77878 26.53936-3.30722 128.9555.42691.0404 2.33812.64667 2.33812.64667-19.27515-100.19136 1.01255-121.32454 1.37872-127.33536-.19892-.56725-.1407-2.31747-.40962-2.26681z"/><path style="display:inline;fill-opacity:1;fill:#666;stroke-width:.77294189" id="path3977" d="m266.30425 596.44599c-.20912-.27604-24.60426-30.62733-34.05552-146.48871.37009-.21659 2.52829 2.29408 2.52829 2.29408 10.61316 109.94003 28.77918 136.24386 31.645 141.54019.0587.59823.14744 2.58703-.11777 2.65444z"/><path style="display:inline;fill-opacity:1;fill:#666;stroke-width:.77294189" id="path3979" d="m365.32106 600.9202c-5.2516 32.38574-18.92928 45.1153-22.40423 77.90141.78046 1.27784.9239 1.9946.9239 1.9946 2.40748-33.39326 16.67943-44.22719 21.24535-76.09183-.15472-.78823.5039-3.85484.23498-3.80418z"/><path style="display:inline;fill-opacity:1;fill:#222a12;stroke-width:1.09150815" id="path3981" d="m303.34276 680.35672c-.62337 2.8393-3.78473 9.79728-3.95693 14.69746 3.06295 5.01904 12.06374 15.4662 22.07141 15.55672 17.10132.15467 23.24182-14.92172 23.24182-14.92172l-1.58928-14.53527c-11.08876-21.10464-27.4928-24.0762-39.76702-.79719z"/><path style="display:inline;fill-opacity:1;fill:#666;stroke-width:.4633396" id="path3983" d="m371.76891 561.85987c-.10136-.2047-31.04545-31.04257-35.62531-116.95996.17934-.16061 2.48771-1.37296 2.48771-1.37296 5.1429 81.5264 31.89972 110.59325 33.28843 114.52076.0284.44362-.0222 3.76217-.15085 3.81216z"/><path style="display:inline;fill-opacity:1;fill:#666;stroke-width:.3422533" id="path3985" d="m277.46325 559.6569c.0507-.1762 6.47616-14.21064 2.6419-84.44865-.13157-.11279-1.80667 1.69063-1.80667 1.69063 3.11057 66.72646-.98778 73.69821-1.59331 77.02461.0167.36313.66894 5.70541.75809 5.73341z"/></svg>