<svg viewBox="0 0 560 1e3"><path d="m283.66521 456.38067c-1.54841.73859-1.78928 15.78672-9.24659 11.14886-5.5459 3.1603-10.12915-4.94173-10.42429-8.4126-.25114-2.95343 3.37748-7.20053 3.87403-6.51846 2.14579-.003 16.30971 2.85987 15.79685 3.7822z" class="shadow" id="path4631-6"/><path d="m274.36595 467.58332c-3.81452 2.31718-9.64064-2.27902-10.8644-11.68664 5.95334-21.67633 25.49385-8.31185 20.23612.35499-2.87984 4.74713-3.52005 14.37508-9.37172 11.33165z" class="skin torso" id="path4633-7"/><path id="path4635-4" d="m362.4682 408.66378c-.0813-.25494-.0369-3.51911-.0369-3.51911-37.18529 8.22641-89.79761 14.83384-136.88585 1.62797-.0404-.0164.30283 2.189.12956 6.49528 30.89873 13.95984 114.13923 9.25249 136.79318-4.60414z" style="display:inline;fill-opacity:1;fill:#000;stroke-dasharray:none;stroke-linecap:butt;stroke-linejoin:miter;stroke-miterlimit:4;stroke-opacity:1;stroke-width:0;stroke:#000"/><path style="display:inline;fill-opacity:1;fill:#1a1a1a;opacity:1;stroke-dasharray:none;stroke-linecap:butt;stroke-linejoin:miter;stroke-miterlimit:4;stroke-opacity:1;stroke-width:0;stroke:#000" d="m268.15022 466.84042c1.97544 1.15064 3.44304 1.50895 6.29117.74829 1.48394 1.11892 3.67809 1.01117 5.52348-.15189 12.34413-20.92611 29.1042-34.50275 48.97711-41.71628 10.223-3.71078 22.67972-3.07023 33.381-4.75194.78922-5.4158.35644-11.80495.0568-12.74471-24.81426 5.52337-96.69219 15.64041-136.71081-1.10008-.0611.72891.0943 3.49625.19492 4.48571-1.01232 2.05127-1.8005 5.00623-3.07718 9.05261 4.22581 2.42316 7.46382 4.97797 10.27417 7.74862.42664 8.69013 14.05707 21.05423 35.08935 38.42967z" id="path4637-6"/><path style="display:inline;fill-opacity:1;fill-rule:evenodd;fill:#000;opacity:1;stroke-dasharray:none;stroke-linecap:butt;stroke-linejoin:miter;stroke-miterlimit:4;stroke-opacity:1;stroke-width:0;stroke:#000" d="m371.45236 272.33602c-3.78105 51.36502 11.51516 119.65223 14.281 185.9788-32.89181 6.65266-156.08001-14.88078-170.44809-31.88372 9.47567-30.08684 23.78843-106.12537 21.3767-133.83109-4.75246-59.46686 59.72762-64.38255 127.52224-25.00872z" id="path4772"/><path style="display:inline;fill-opacity:1;fill:#000;stroke-dasharray:none;stroke-linecap:butt;stroke-linejoin:miter;stroke-miterlimit:4;stroke-opacity:1;stroke-width:0;stroke:#000" d="m225.81842 411.58888c35.65478 14.81043 121.42276 5.37241 136.68022-2.95107.17382-1.68154.2178-2.5829-.0339-3.48489-58.31295 15.78964-120.9211 9.70164-136.8913 1.86045-.19298 1.12545.0537 2.37563.24498 4.57551z" id="path4639-9"/><path style="display:inline;fill-opacity:1;fill-rule:evenodd;fill:#fff;opacity:1;stroke-dasharray:none;stroke-linecap:butt;stroke-linejoin:miter;stroke-miterlimit:4;stroke-opacity:1;stroke-width:0;stroke:#000" d="m371.47602 272.06519c-6.37431 49.66799 12.54581 137.52982 12.61806 185.08787-31.15729 6.94181-157.0571-15.87982-167.65947-31.44057 9.46931-28.80012 24.17851-105.83339 21.99925-130.73166-3.65952-28.78802.99617-55.19258 10.28942-69.85361 21.64253-7.27348 50.01121 1.09792 69.06052-25.94442 1.48672 1.12706 18.23182 7.00546 18.7637 8.34782 40.52013.35863 35.46633 51.17961 34.92852 64.53457z" id="path4775"/><path d="m262.98857 459.03749c4.57815 9.39542 7.95428 8.94718 11.45233 8.01034.29456-.0789 5.02218 4.77996 9.26343-8.71666-1.38475 8.70911-4.94655 11.61521-9.3291 9.47151-.0226-.0111-2.82256 1.04466-4.71233.003-2.95847-1.63089-6.486-5.556-6.67433-8.7681z" class="shadow" id="path4651-0"/></svg>