<svg viewBox="0 0 560 1e3"><path style="display:inline;fill-opacity:1;fill-rule:evenodd;fill:#000;opacity:1;stroke-dasharray:none;stroke-linecap:butt;stroke-linejoin:miter;stroke-miterlimit:4;stroke-opacity:1;stroke-width:0;stroke:#000" d="m368.45236 268.83602c.40069 1.40387.82871 12.89967-6.36035 37.77919-5.42713 18.7819-17.12167 31.6625-17.71805 33.12058-6.03534 8.96911-15.45846 21.82266-9.52924 38.69515-33.59892 9.83464-85.2698 13.19244-93.43445-5.62484 2.433-12.49684 2.06627-18.80217 2.23754-34.00531.24452-21.70551-6.08737-33.66342-6.98584-46.20078.40962-35.13389 30.30326-40.0847 52.38713-59.43686.97617-2.02088 1.87249-19.70311-12.03774-26.98259-.63873-.33426 5.30782-3.06919 9.83235-5.47153 9.24713 11.38115 25.18214 3.12903 31.26177-2.13928 1.50252 1.12706 9.10193 4.89722 7.88644 5.69617-25.72677 16.91039-30.9022 28.84774-29.45936 29.06832 3.13994 1.52155 66.54554 33.43249 67.65165 34.25705z" id="path4140"/><path style="display:inline;fill-opacity:1;fill-rule:evenodd;fill:#1a1a1a;opacity:1;stroke-dasharray:none;stroke-linecap:butt;stroke-linejoin:miter;stroke-miterlimit:4;stroke-opacity:1;stroke-width:0;stroke:#000" d="m368.47602 268.56519c-.47811 3.70196-1.71839 20.80284-7.95729 39.14162-6.28969 18.48806-15.58504 28.98279-16.48061 30.27591-7.21871 10.42316-10.74943 15.63218-11.76336 26.60223-.75365 8.15394.0371 7.00194 1.81456 13.74489-31.15729 6.94181-79.55234 13.8184-92.15471-5.49235 2.40743-12.49684 2.93231-28.9245 3.10178-31.79865 1.27707-21.66848-5.53672-33.8742-6.42575-46.41156-3.37265-53.10898 11.96331-79.40858 38.32548-88.64617.49229-.51848 5.43756-2.25669 9.91452-4.65903 9.14993 11.38115 24.91744 3.12903 30.93316-2.13928 1.48672 1.12706 18.23182 7.00546 18.7637 8.34782 44.27723.50597 34.15478 57.22035 31.92852 61.03457z" id="path4142"/><path id="path1760-5-43" d="m350.44891 411.28161c-41.34356 12.40411-56.35277 29.50718-67.32299 47.0649-1.04023 1.75909-1.92047 7.35117-4.50173 9.70959-.97785.89343-3.70051-.0277-4.03805.0431-.91345.19159-2.09488.29968-2.84109.24274-1.3589-.10369-3.10427-.97079-4.62926-2.64607-1.15035-1.26373-2.1753-2.98733-2.81436-5.19001-8.27893-10.93923-27.60352-39.54369-38.34145-47.86102.0176-.005-.05-.20603.59439-1.93851 16.6623 12.87869 26.04641 28.55393 42.32336 28.99216 18.31235-.0725 28.69369-13.91735 80.95827-30.20977.0.0.63138 1.78415.61291 1.79289z" style="display:inline;fill-opacity:1;fill-rule:evenodd;fill:#c837ab;opacity:1;stroke-dasharray:none;stroke-linecap:butt;stroke-linejoin:miter;stroke-miterlimit:4;stroke-opacity:1;stroke-width:0;stroke:#000"/><path id="path1781-9-4" d="m282.94456 458.76549c-.0483.15247-.11284.47208-.19954.90622-.41277 2.06685-1.81439 6.53069-3.87757 8.11265-.26921.20642-1.13559 1.14752-4.57861.28177-.17398-.0437-2.18026 1.1699-4.2783.12449-4.65827-2.32112-6.22252-8.10904-6.31915-8.53686 3.82592 9.08132 8.89939 9.3147 10.40315 7.55401 5.26837 2.79873 7.50839-4.81217 8.85002-8.44228z" style="display:inline;fill-opacity:1;fill-rule:evenodd;fill:#000;opacity:1;stroke-dasharray:none;stroke-linecap:butt;stroke-linejoin:miter;stroke-miterlimit:4;stroke-opacity:1;stroke-width:0;stroke:#000"/><path style="display:inline;fill-opacity:1;fill:#c837ab;stroke-dasharray:none;stroke-linecap:butt;stroke-linejoin:miter;stroke-miterlimit:4;stroke-opacity:1;stroke-width:0;stroke:#000" d="m293.86064 264.57931c-6.26801-3.01132-15.75805-11.63074-17.87259-19.86824-3.04504-11.86272 4.71945-22.57429 21.63478-11.57993 16.13297-8.15503 24.9627 3.10697 17.59197 15.59404-3.32722 5.63676-12.4856 11.01114-21.35416 15.85413z" id="path3267-5-3-7-0-9-6"/></svg>