<svg viewBox="0 0 560 1e3"><path id="path1769" d="m348.40387 406.22495c-57.45728-.71713-72.05005 16.50678-77.60582 15.99138-5.08786-.24546-24.27055-11.76527-41.83742-15.71155" style="fill-rule:evenodd;fill:none;stroke-dasharray:none;stroke-linecap:round;stroke-linejoin:miter;stroke-miterlimit:3;stroke-opacity:1;stroke-width:2;stroke:#ffa000"/><path id="path1769-7" d="m363.1853 423.64808c-.2357.27481-1.48581 1.72424-8.04503-.0461-.3188-.0861-.4378.0547-.47622.11003-1.32966 1.91526-7.28404 7.44997-24.25753 1.83503-.45715-.15123-.90662.21796-1.30967.38501-5.70325 2.36378-5.4148 11.90297-29.54301 4.17481-.22981-.0736-.39894.21044-.54035.31931-18.26161 14.05935-24.00606 2.94835-29.39785 2.44816-9.59822 4.83966-16.11328 6.80793-25.59183-5.08079-.0209-.0262-.33689-.7279-.92746-.48621-9.697 3.96859-17.49192-6.94925-19.13063-9.70705" style="display:inline;fill-rule:evenodd;fill:none;stroke-dasharray:none;stroke-linecap:round;stroke-linejoin:miter;stroke-miterlimit:3;stroke-opacity:1;stroke-width:1;stroke:#ffa000"/><path id="path1769-7-9" d="m223.23635 420.10032c.0194-.29292 1.03967-1.32614 1.20518-1.77659" style="display:inline;fill-rule:evenodd;fill:none;stroke-dasharray:none;stroke-linecap:round;stroke-linejoin:miter;stroke-miterlimit:3;stroke-opacity:1;stroke-width:1;stroke:#ffa000"/><path id="path1769-7-9-3" d="m225.67061 423.66795c.0194-.29292 1.03967-1.32614 1.20518-1.77659" style="display:inline;fill-rule:evenodd;fill:none;stroke-dasharray:none;stroke-linecap:round;stroke-linejoin:miter;stroke-miterlimit:3;stroke-opacity:1;stroke-width:1;stroke:#ffa000"/><path id="path1769-7-9-3-3" d="m228.36645 427.55704c.0194-.29292 1.65839-1.98905 1.8239-2.4395" style="display:inline;fill-rule:evenodd;fill:none;stroke-dasharray:none;stroke-linecap:round;stroke-linejoin:miter;stroke-miterlimit:3;stroke-opacity:1;stroke-width:1;stroke:#ffa000"/><path id="path1769-7-9-3-3-7" d="m233.66975 430.58434c.19516-.34431.89926-2.15329 1.29357-2.96983" style="display:inline;fill-rule:evenodd;fill:none;stroke-dasharray:none;stroke-linecap:round;stroke-linejoin:miter;stroke-miterlimit:3;stroke-opacity:1;stroke-width:1;stroke:#ffa000"/><path id="path1769-7-9-3-3-7-0" d="m242.42138 430.36369c.19516-.34431.54571-1.79974.94002-2.61628" style="display:inline;fill-rule:evenodd;fill:none;stroke-dasharray:none;stroke-linecap:round;stroke-linejoin:miter;stroke-miterlimit:3;stroke-opacity:1;stroke-width:1;stroke:#ffa000"/><path id="path1769-7-9-3-3-7-0-1" d="m247.71771 437.80822c.19516-.34431.98321-3.42474 1.37752-4.24128" style="display:inline;fill-rule:evenodd;fill:none;stroke-dasharray:none;stroke-linecap:round;stroke-linejoin:miter;stroke-miterlimit:3;stroke-opacity:1;stroke-width:1;stroke:#ffa000"/><path id="path1769-7-9-3-3-7-0-1-7" d="m254.43646 440.99572c.19516-.34431.67071-3.61224 1.06502-4.42878" style="display:inline;fill-rule:evenodd;fill:none;stroke-dasharray:none;stroke-linecap:round;stroke-linejoin:miter;stroke-miterlimit:3;stroke-opacity:1;stroke-width:1;stroke:#ffa000"/><path id="path1769-7-9-3-3-7-0-1-7-5" d="m262.34271 440.27697c.19516-.34431-.14179-3.36224.25252-4.17878" style="display:inline;fill-rule:evenodd;fill:none;stroke-dasharray:none;stroke-linecap:round;stroke-linejoin:miter;stroke-miterlimit:3;stroke-opacity:1;stroke-width:1;stroke:#ffa000"/><path id="path1769-7-9-3-3-7-0-1-7-5-2" d="m269.43646 436.08947c.19516-.34431.10821-2.04974.25252-3.11628" style="display:inline;fill-rule:evenodd;fill:none;stroke-dasharray:none;stroke-linecap:round;stroke-linejoin:miter;stroke-miterlimit:3;stroke-opacity:1;stroke-width:1;stroke:#ffa000"/><path id="path1769-7-9-3-3-7-0-1-7-5-2-2" d="m277.31252 440.05854c.19516-.34431.10821-2.04974.25252-3.11628" style="display:inline;fill-rule:evenodd;fill:none;stroke-dasharray:none;stroke-linecap:round;stroke-linejoin:miter;stroke-miterlimit:3;stroke-opacity:1;stroke-width:1;stroke:#ffa000"/><path id="path1769-7-9-3-3-7-0-1-7-5-2-1" d="m285.50002 440.80854c.19516-.34431.10821-2.04974.25252-3.11628" style="display:inline;fill-rule:evenodd;fill:none;stroke-dasharray:none;stroke-linecap:round;stroke-linejoin:miter;stroke-miterlimit:3;stroke-opacity:1;stroke-width:1;stroke:#ffa000"/><path id="path1769-7-9-3-3-7-0-1-7-5-2-9" d="m292.75002 439.37104c.19516-.34431.23321-3.04974-.12248-4.11628" style="display:inline;fill-rule:evenodd;fill:none;stroke-dasharray:none;stroke-linecap:round;stroke-linejoin:miter;stroke-miterlimit:3;stroke-opacity:1;stroke-width:1;stroke:#ffa000"/><path id="path1769-7-9-3-3-7-0-1-7-5-2-9-9" d="m299.61411 434.62089c.19516-.34431.23321-3.04974-.12248-4.11628" style="display:inline;fill-rule:evenodd;fill:none;stroke-dasharray:none;stroke-linecap:round;stroke-linejoin:miter;stroke-miterlimit:3;stroke-opacity:1;stroke-width:1;stroke:#ffa000"/><path id="path1769-7-9-3-3-7-0-1-7-5-2-9-7" d="m308.61411 436.68339c.19516-.34431.23321-3.04974-.12248-4.11628" style="display:inline;fill-rule:evenodd;fill:none;stroke-dasharray:none;stroke-linecap:round;stroke-linejoin:miter;stroke-miterlimit:3;stroke-opacity:1;stroke-width:1;stroke:#ffa000"/><path id="path1769-7-9-3-3-7-0-1-7-5-2-9-7-9" d="m316.92661 437.24589c.19516-.34431.23321-3.04974-.12248-4.11628" style="display:inline;fill-rule:evenodd;fill:none;stroke-dasharray:none;stroke-linecap:round;stroke-linejoin:miter;stroke-miterlimit:3;stroke-opacity:1;stroke-width:1;stroke:#ffa000"/><path id="path1769-7-9-3-3-7-0-1-7-5-2-9-7-9-7" d="m324.98911 433.80839c.19516-.34431.0457-2.54974-.30998-3.61628" style="display:inline;fill-rule:evenodd;fill:none;stroke-dasharray:none;stroke-linecap:round;stroke-linejoin:miter;stroke-miterlimit:3;stroke-opacity:1;stroke-width:1;stroke:#ffa000"/><path id="path1769-7-9-3-3-7-0-1-7-5-2-9-7-9-7-6" d="m330.55046 429.43339c.19516-.34431.0457-2.54974-.30998-3.61628" style="display:inline;fill-rule:evenodd;fill:none;stroke-dasharray:none;stroke-linecap:round;stroke-linejoin:miter;stroke-miterlimit:3;stroke-opacity:1;stroke-width:1;stroke:#ffa000"/><path id="path1769-7-9-3-3-7-0-1-7-5-2-9-7-9-7-9" d="m339.30046 431.49589c.19516-.34431.0457-2.54974-.30998-3.61628" style="display:inline;fill-rule:evenodd;fill:none;stroke-dasharray:none;stroke-linecap:round;stroke-linejoin:miter;stroke-miterlimit:3;stroke-opacity:1;stroke-width:1;stroke:#ffa000"/><path id="path1769-7-9-3-3-7-0-1-7-5-2-9-7-9-7-2" d="m346.48796 431.87089c.19516-.34431.0457-2.54974-.30998-3.61628" style="display:inline;fill-rule:evenodd;fill:none;stroke-dasharray:none;stroke-linecap:round;stroke-linejoin:miter;stroke-miterlimit:3;stroke-opacity:1;stroke-width:1;stroke:#ffa000"/><path id="path1769-7-9-3-3-7-0-1-7-5-2-9-7-9-7-8" d="m352.30046 430.74589c.19516-.34431-1.0793-2.48724-1.43498-3.55378" style="display:inline;fill-rule:evenodd;fill:none;stroke-dasharray:none;stroke-linecap:round;stroke-linejoin:miter;stroke-miterlimit:3;stroke-opacity:1;stroke-width:1;stroke:#ffa000"/><path id="path1769-7-9-3-3-7-0-1-7-5-2-9-7-9-7-8-2" d="m356.57907 427.65214c.19516-.34431-1.0793-2.48724-1.43498-3.55378" style="display:inline;fill-rule:evenodd;fill:none;stroke-dasharray:none;stroke-linecap:round;stroke-linejoin:miter;stroke-miterlimit:3;stroke-opacity:1;stroke-width:1;stroke:#ffa000"/><path id="path1769-7-9-3-3-7-0-1-7-5-2-9-7-9-7-8-7" d="m361.20407 428.40214c.19516-.34431-1.0793-2.48724-1.43498-3.55378" style="display:inline;fill-rule:evenodd;fill:none;stroke-dasharray:none;stroke-linecap:round;stroke-linejoin:miter;stroke-miterlimit:3;stroke-opacity:1;stroke-width:1;stroke:#ffa000"/><path id="path1769-7-9-3-3-7-0-1-7-5-2-9-7-9-7-8-72" d="m364.51657 426.96464c.19516-.34431-1.0793-1.48724-1.43498-2.55378" style="display:inline;fill-rule:evenodd;fill:none;stroke-dasharray:none;stroke-linecap:round;stroke-linejoin:miter;stroke-miterlimit:3;stroke-opacity:1;stroke-width:1;stroke:#ffa000"/><path id="path1769-7-9-3-3-7-0-1-2" d="m243.31146 427.37072c.19516-.34431.60821-7.92474 1.00252-8.74128" style="display:inline;fill-rule:evenodd;fill:none;stroke-dasharray:none;stroke-linecap:round;stroke-linejoin:miter;stroke-miterlimit:3;stroke-opacity:1;stroke-width:1;stroke:#ffa000"/><circle cy="439.1481" cx="269.71753" class="steel_piercing" id="XMLID_515_-4-8" r="4.5"/><path id="path1769-7-9-3-3-7-0-1-2-1" d="m269.74896 432.74572c.19516-.34431.35821-5.67474.75252-6.49128" style="display:inline;fill-rule:evenodd;fill:none;stroke-dasharray:none;stroke-linecap:round;stroke-linejoin:miter;stroke-miterlimit:3;stroke-opacity:1;stroke-width:1;stroke:#ffa000"/><ellipse cy="421.19263" cx="270.76962" class="steel_piercing" id="XMLID_515_-4" rx="7" ry="10"/><circle cy="443.74545" cx="262.19495" class="steel_piercing" id="XMLID_515_-4-8-6" r="4.5"/><path id="path1769-7-9-3-3-7-0-1-2-1-2" d="m299.49896 430.12072c.19516-.34431-.39179-9.04974.003-9.86628" style="display:inline;fill-rule:evenodd;fill:none;stroke-dasharray:none;stroke-linecap:round;stroke-linejoin:miter;stroke-miterlimit:3;stroke-opacity:1;stroke-width:1;stroke:#ffa000"/><circle cy="444.21771" cx="276.6889" class="steel_piercing" id="XMLID_515_-4-8-67" r="4.5"/><path id="path1769-7-9-3-3-7-0-1-2-1-0" d="m330.24896 425.62072c.19516-.34431-2.26679-10.04974-1.87248-10.86628" style="display:inline;fill-rule:evenodd;fill:none;stroke-dasharray:none;stroke-linecap:round;stroke-linejoin:miter;stroke-miterlimit:3;stroke-opacity:1;stroke-width:1;stroke:#ffa000"/><circle cy="445.08755" cx="285.26889" class="steel_piercing" id="XMLID_515_-4-8-2" r="4.5"/><path id="path1769-7-9-3-3-7-0-1-2-1-0-3" d="m354.82712 423.74572c.19516-.34431-2.57929-10.17474-2.18498-10.99128" style="display:inline;fill-rule:evenodd;fill:none;stroke-dasharray:none;stroke-linecap:round;stroke-linejoin:miter;stroke-miterlimit:3;stroke-opacity:1;stroke-width:1;stroke:#ffa000"/><circle cy="442.71625" cx="293.59882" class="steel_piercing" id="XMLID_515_-4-8-7" r="4.5"/><path id="path1769-7-9-3-3-7-0-1-2-0" d="m223.7402 417.29532c.19516-.34431 2.46436-3.32855 2.85867-4.14509" style="display:inline;fill-rule:evenodd;fill:none;stroke-dasharray:none;stroke-linecap:round;stroke-linejoin:miter;stroke-miterlimit:3;stroke-opacity:1;stroke-width:1;stroke:#ffa000"/><circle cy="436.80197" cx="300.10556" class="steel_piercing" id="XMLID_515_-4-8-1" r="4.5"/><circle cy="439.18954" cx="308.53906" class="steel_piercing" id="XMLID_515_-4-8-9" r="4.5"/><circle cy="440.12891" cx="317.09753" class="steel_piercing" id="XMLID_515_-4-8-0" r="4.5"/><circle cy="437.72357" cx="325.28104" class="steel_piercing" id="XMLID_515_-4-8-25" r="4.5"/><circle cy="431.59854" cx="330.96457" class="steel_piercing" id="XMLID_515_-4-8-5" r="4.5"/><circle cy="444.45062" cx="253.58946" class="steel_piercing" id="XMLID_515_-4-8-6-0" r="4.5"/><circle cy="434.45062" cx="232.96448" class="steel_piercing" id="XMLID_515_-4-8-6-07" r="4.5"/><circle cy="433.57562" cx="241.46448" class="steel_piercing" id="XMLID_515_-4-8-6-5" r="4.5"/><circle cy="440.70062" cx="245.96448" class="steel_piercing" id="XMLID_515_-4-8-6-9" r="4.5"/><ellipse cy="457.69293" cx="222.11871" class="steel_piercing" id="XMLID_515_-4-9" rx="7" ry="10" transform="rotate(-10.024652)"/><ellipse cy="485.68515" cx="188.23273" class="steel_piercing" id="XMLID_515_-4-5" rx="7" ry="10" transform="rotate(-17.507551)"/><ellipse cy="312.60837" cx="363.74295" class="steel_piercing" id="XMLID_515_-4-2" rx="7" ry="10" transform="rotate(18.434795)"/><ellipse cy="300.4317" cx="357.10489" class="steel_piercing" id="XMLID_515_-4-2-6" rx="1.9374998" ry="10" transform="rotate(20.447906)"/><path class="steel_piercing" id="XMLID_515_-4-5-8" transform="rotate(-36.655721)" d="m41.482841 534.0249a4.0812225 10 0 01-4.069273 9.99996 4.0812225 10 0 01-4.093102-9.9414 4.0812225 10 0 014.045306-10.05817 4.0812225 10 0 014.11679 9.8825"/><ellipse cy="304.71436" cx="379.88785" class="steel_piercing" id="XMLID_515_-4-8-6-07-3" rx="3.25" ry="4.5" transform="rotate(23.583121)"/><ellipse cy="334.91016" cx="405.88184" class="steel_piercing" id="XMLID_515_-4-8-6-07-3-6" rx="1.3713783" ry="5.3589725" transform="matrix(0.9460643,0.32397892,-0.48625957,0.87381441,0,0)"/><ellipse cy="337.91675" cx="409.8335" class="steel_piercing" id="XMLID_515_-4-8-6-07-3-6-2" rx="2.3335655" ry="4.9708085" transform="matrix(0.94643691,0.32288881,-0.48765793,0.87303479,0,0)"/><circle cy="433.87497" cx="339.125" class="steel_piercing" id="XMLID_515_-4-8-5-5" r="4.5"/><ellipse cy="529.38922" cx="168.46951" class="steel_piercing" id="XMLID_515_-4-8-5-8" rx="3.1875" ry="4.5" transform="rotate(-20.975779)"/><ellipse cy="531.02057" cx="174.4707" class="steel_piercing" id="XMLID_515_-4-8-5-8-6" rx="3.1875" ry="4.5" transform="rotate(-20.975779)"/><ellipse cy="560.08337" cx="117.66714" class="steel_piercing" id="XMLID_515_-4-8-5-8-4" rx="2.731339" ry="4.4112439" transform="matrix(0.82273256,-0.56842865,0.46444683,0.885601,0,0)"/><ellipse cy="595.09979" cx="111.13579" class="steel_piercing" id="XMLID_515_-4-8-5-8-4-5" rx="2.1979663" ry="4.0616369" transform="matrix(0.61972803,-0.78481665,0.49235617,0.87039382,0,0)"/><ellipse cy="597.31372" cx="115.02454" class="steel_piercing" id="XMLID_515_-4-8-5-8-4-5-0" rx="2.1979663" ry="4.0616369" transform="matrix(0.61972803,-0.78481665,0.49235617,0.87039382,0,0)"/><path id="path1769-4" d="m326.53212 370.78088c-15.97345 8.25064-36.54095 8.78925-55.3214-.34039-.23013.31227-25.53462 9.54669-29.62-.0278" style="display:inline;fill-rule:evenodd;fill:none;stroke-dasharray:none;stroke-linecap:round;stroke-linejoin:miter;stroke-miterlimit:3;stroke-opacity:1;stroke-width:2;stroke:#ffa000"/><path id="path1769-7-9-3-3-7-0-1-7-8" d="m289.20472 377.13207c-16.18117 18.53347-21.95799 21.07463-34.11355-.009" style="display:inline;fill-rule:evenodd;fill:none;stroke-dasharray:none;stroke-linecap:round;stroke-linejoin:miter;stroke-miterlimit:3;stroke-opacity:1;stroke-width:1;stroke:#ffa000"/><path id="path1769-7-9-3-3-7-0-1-7-8-6" d="m254.82088 376.68415c-16.18117 18.53347-15.59402 9.05381-16.96621 6.35496" style="display:inline;fill-rule:evenodd;fill:none;stroke-dasharray:none;stroke-linecap:round;stroke-linejoin:miter;stroke-miterlimit:3;stroke-opacity:1;stroke-width:1;stroke:#ffa000"/><path id="path1769-7-9-3-3-7-0-1-7-8-7" d="m289.11556 376.86093c14.57798 18.00314 27.71627 12.76612 32.53127-3.72132" style="display:inline;fill-rule:evenodd;fill:none;stroke-dasharray:none;stroke-linecap:round;stroke-linejoin:miter;stroke-miterlimit:3;stroke-opacity:1;stroke-width:1;stroke:#ffa000"/><path style="display:inline;fill:#787878;stroke-width:3.74999905" d="m275.67547 371.64722c-1e-5.33659-4.31336 6.18535-4.5 6.26777-.14153.0625-4.49998-5.77493-4.5-6.26777-1e-5-.27409 4.29597-6.26777 4.5-6.26777.32903.0 4.50001 5.89993 4.5 6.26777z" id="XMLID_515_-4-8-67-4"/><path style="display:inline;fill:#787878;stroke-width:3.5895772" d="m292.97817 375.36285c.0301.33499-3.38132 6.57611-3.54417 6.67632-.12348.076-4.61904-5.3091-4.66305-5.7996-.0245-.27278 3.35811-6.65644 3.54416-6.67632.30005-.032 4.63024 5.43351 4.66306 5.7996z" id="XMLID_515_-4-8-67-4-2"/><path style="display:inline;fill:#787878;stroke-width:3.56161857" d="m310.13482 376.31339c.037.33408-3.1818 6.66498-3.33984 6.76953-.11985.0793-4.66391-5.18339-4.71811-5.67255-.0301-.27204 3.15717-6.74466 3.33984-6.76953.2946-.0401 4.67768 5.30745 4.71811 5.67255z" id="XMLID_515_-4-8-67-4-5"/><path style="display:inline;fill:#787878;stroke-width:3.31919122" d="m258.53238 374.62653c-.0365.33665-3.98213 5.57871-4.1344 5.63485-.11546.0425-2.83125-6.41017-2.77794-6.9031.0296-.27415 3.97769-5.66361 4.13439-5.63485.25271.0464 2.81776 6.53518 2.77795 6.9031z" id="XMLID_515_-4-8-67-4-4"/><path style="display:inline;fill:#787878;stroke-width:2.57942367" d="m244.2308 373.04463c-.11143.30947-3.75247 4.25386-3.85348 4.26763-.0766.0105.1359-6.80424.29915-7.25736.0908-.25201 3.77289-4.33542 3.85347-4.26764.12994.10931-.17729 6.91918-.29914 7.25737z" id="XMLID_515_-4-8-67-4-7"/><path id="path1769-7-9-3-3-7-0-1-7-8-7-2" d="m321.90943 373.61222c1.31973 5.45199 6.50307 8.87704 7.95932 5.64785" style="display:inline;fill-rule:evenodd;fill:none;stroke-dasharray:none;stroke-linecap:round;stroke-linejoin:miter;stroke-miterlimit:3;stroke-opacity:1;stroke-width:1;stroke:#ffa000"/><path style="display:inline;fill:#787878;stroke-width:3.5006206" d="m325.58565 371.91268c.0691.32711-2.38316 7.02741-2.5243 7.15148-.10703.0941-4.99655-4.55228-5.09774-5.03124-.0563-.26637 2.35151-7.10342 2.52429-7.15148.27866-.0775 5.02224 4.67375 5.09775 5.03124z" id="XMLID_515_-4-8-67-4-55"/><path id="path1769-4-6" d="m322.83505 203.04669c-24.71013 13.94287-35.80279 9.8401-40.39368 1.39957" style="display:inline;fill-rule:evenodd;fill:none;stroke-dasharray:none;stroke-linecap:round;stroke-linejoin:miter;stroke-miterlimit:3;stroke-opacity:1;stroke-width:2;stroke:#ffa000"/><path id="path1769-4-6-8" d="m318.8583 200.29984c-12.15899 8.81635-28.82011 10.81237-33.411 2.37184" style="display:inline;fill-rule:evenodd;fill:none;stroke-dasharray:none;stroke-linecap:round;stroke-linejoin:miter;stroke-miterlimit:3;stroke-opacity:1;stroke-width:2;stroke:#ffa000"/><path id="path1769-4-6-84" d="m328.49263 206.04508c-24.71013 13.94287-46.321 11.87304-49.3209-.19142" style="display:inline;fill-rule:evenodd;fill:none;stroke-dasharray:none;stroke-linecap:round;stroke-linejoin:miter;stroke-miterlimit:3;stroke-opacity:1;stroke-width:2;stroke:#ffa000"/><path id="path1769-4-4" d="m329.52609 226.13992c6.67893 9.10866 16.3354 22.17465 16.61608 22.99843 12.38899 36.36045-48.42558 72.30695-63.64281 16.265-17.23013 40.31227-42.60049 32.05189-43.15033 20.53286" style="display:inline;fill-rule:evenodd;fill:none;stroke-dasharray:none;stroke-linecap:round;stroke-linejoin:miter;stroke-miterlimit:3;stroke-opacity:1;stroke-width:2;stroke:#ffa000"/><path id="path1769-4-6-8-0" d="m318.63776 294.14446c-15.51774 22.42815-62.93801 21.24219-69.65022 2.37183" style="display:inline;fill-rule:evenodd;fill:none;stroke-dasharray:none;stroke-linecap:round;stroke-linejoin:miter;stroke-miterlimit:3;stroke-opacity:1;stroke-width:2;stroke:#ffa000"/><path id="path1769-4-6-8-0-5" d="m303.07347 306.6678c-15.51774 22.42815-38.43801 18.74219-45.15022-.12817" style="display:inline;fill-rule:evenodd;fill:none;stroke-dasharray:none;stroke-linecap:round;stroke-linejoin:miter;stroke-miterlimit:3;stroke-opacity:1;stroke-width:2;stroke:#ffa000"/><path id="path1769-4-6-8-0-5-9" d="m290.07347 319.04437c-10.76774 20.17815-20.18801 12.49219-23.65022-.62817" style="display:inline;fill-rule:evenodd;fill:none;stroke-dasharray:none;stroke-linecap:round;stroke-linejoin:miter;stroke-miterlimit:3;stroke-opacity:1;stroke-width:2;stroke:#ffa000"/><path id="path1769-4-6-8-0-5-9-1" d="m276.6361 331.76745c-.11149.67815-.59426 4.92969-.46272 5.93433" style="display:inline;fill-rule:evenodd;fill:none;stroke-dasharray:none;stroke-linecap:round;stroke-linejoin:miter;stroke-miterlimit:3;stroke-opacity:1;stroke-width:2;stroke:#ffa000"/><path id="path1769-4-6-8-0-5-9-1-7" d="m266.73426 319.35931c-.11149.67815-.68265 8.37684-.55111 9.38148" style="display:inline;fill-rule:evenodd;fill:none;stroke-dasharray:none;stroke-linecap:round;stroke-linejoin:miter;stroke-miterlimit:3;stroke-opacity:1;stroke-width:2;stroke:#ffa000"/><path id="path1769-4-6-8-0-5-9-1-7-4" d="m290.46749 319.22672c-.11149.67815-.77103 8.20006-.63949 9.2047" style="display:inline;fill-rule:evenodd;fill:none;stroke-dasharray:none;stroke-linecap:round;stroke-linejoin:miter;stroke-miterlimit:3;stroke-opacity:1;stroke-width:2;stroke:#ffa000"/><path id="path1769-4-6-8-0-5-9-1-7-4-9" d="m302.88514 306.76397c-.11149.67815-.94781 9.08394-.81627 10.08858" style="display:inline;fill-rule:evenodd;fill:none;stroke-dasharray:none;stroke-linecap:round;stroke-linejoin:miter;stroke-miterlimit:3;stroke-opacity:1;stroke-width:2;stroke:#ffa000"/><path id="path1769-4-6-8-0-5-9-1-7-4-9-3" d="m257.80648 306.32203c-.11149.67815-1.21298 8.73038-1.08144 9.73502" style="display:inline;fill-rule:evenodd;fill:none;stroke-dasharray:none;stroke-linecap:round;stroke-linejoin:miter;stroke-miterlimit:3;stroke-opacity:1;stroke-width:2;stroke:#ffa000"/><path id="path1769-4-6-8-0-5-9-1-7-4-9-3-4" d="m248.82995 296.59932c-.11149.67815-1.21298 10.67492-1.08144 11.67956" style="display:inline;fill-rule:evenodd;fill:none;stroke-dasharray:none;stroke-linecap:round;stroke-linejoin:miter;stroke-miterlimit:3;stroke-opacity:1;stroke-width:2;stroke:#ffa000"/><path id="path1769-4-6-8-0-5-9-1-7-4-9-3-4-4" d="m318.12701 294.3896c-.11149.67815-.59426 10.49815-.46272 11.50279" style="display:inline;fill-rule:evenodd;fill:none;stroke-dasharray:none;stroke-linecap:round;stroke-linejoin:miter;stroke-miterlimit:3;stroke-opacity:1;stroke-width:2;stroke:#ffa000"/><path style="display:inline;fill:#787878;stroke-width:3.29897571" d="m278.1857 340.15002c-.16782 4.06965-1.25445 7.32954-2.42707 7.28119-1.17261-.0484-1.98715-3.38665-1.81933-7.45629.16782-4.06965 1.97897-7.28658 2.42706-7.28119.24945.003 1.98716 3.38665 1.81934 7.45629z" id="XMLID_515_-4-8-6-07-0"/><path style="display:inline;fill:#787878;stroke-width:3.29897571" d="m268.00347 332.14976c-.16782 4.06965-1.25445 7.32954-2.42707 7.28119-1.17261-.0484-1.98715-3.38665-1.81933-7.45629.16782-4.06965 1.97897-7.28658 2.42706-7.28119.24945.003 1.98716 3.38665 1.81934 7.45629z" id="XMLID_515_-4-8-6-07-0-9"/><path style="display:inline;fill:#787878;stroke-width:3.29897571" d="m291.91508 331.35687c-.16782 4.06965-1.25445 7.32954-2.42707 7.28119-1.17261-.0484-1.98715-3.38665-1.81933-7.45629.16782-4.06965 1.97897-7.28658 2.42706-7.28119.24945.003 1.98716 3.38665 1.81934 7.45629z" id="XMLID_515_-4-8-6-07-0-0"/><path style="display:inline;fill:#787878;stroke-width:3.29897571" d="m304.15145 319.49698c-.16782 4.06965-1.25445 7.32954-2.42707 7.28119-1.17261-.0484-1.98715-3.38665-1.81933-7.45629.16782-4.06965 1.97897-7.28658 2.42706-7.28119.24945.003 1.98716 3.38665 1.81934 7.45629z" id="XMLID_515_-4-8-6-07-0-4"/><path style="display:inline;fill:#787878;stroke-width:3.29897571" d="m319.7078 306.68067c-.16782 4.06965-1.25445 7.32954-2.42707 7.28119-1.17261-.0484-1.98715-3.38665-1.81933-7.45629.16782-4.06965 1.97897-7.28658 2.42706-7.28119.24945.003 1.98716 3.38665 1.81934 7.45629z" id="XMLID_515_-4-8-6-07-0-3"/><path style="display:inline;fill:#787878;stroke-width:3.29897571" d="m258.80823 318.96665c-.16782 4.06965-1.25445 7.32954-2.42707 7.28119-1.17261-.0484-1.98715-3.38665-1.81933-7.45629.16782-4.06965 1.97897-7.28658 2.42706-7.28119.24945.003 1.98716 3.38665 1.81934 7.45629z" id="XMLID_515_-4-8-6-07-0-5"/><path style="display:inline;fill:#787878;stroke-width:3.29897571" d="m250.05778 308.71361c-.16782 4.06965-1.25445 7.32954-2.42707 7.28119-1.17261-.0484-1.98715-3.38665-1.81933-7.45629.16782-4.06965 1.97897-7.28658 2.42706-7.28119.24945.003 1.98716 3.38665 1.81934 7.45629z" id="XMLID_515_-4-8-6-07-0-8"/><path id="path1769-4-6-8-0-5-98" d="m366.22737 279.93284c-4.20403 1.92206-19.8927-.0139-22.00871-5.80279" style="display:inline;fill-rule:evenodd;fill:none;stroke-dasharray:none;stroke-linecap:round;stroke-linejoin:miter;stroke-miterlimit:3;stroke-opacity:1;stroke-width:2;stroke:#ffa000"/><path id="path1769-4-6-8-0-5-98-2" d="m367.62537 271.24042c-4.20403 1.92206-18.6427.8611-20.75871-4.92779" style="display:inline;fill-rule:evenodd;fill:none;stroke-dasharray:none;stroke-linecap:round;stroke-linejoin:miter;stroke-miterlimit:3;stroke-opacity:1;stroke-width:2;stroke:#ffa000"/><path id="path1769-4-6-8-0-5-98-2-9" d="m266.83177 227.32942c-2.32535 1.43462-17.29435 14.35158-22.59234 19.8764" style="display:inline;fill-rule:evenodd;fill:none;stroke-dasharray:none;stroke-linecap:round;stroke-linejoin:miter;stroke-miterlimit:3;stroke-opacity:1;stroke-width:2;stroke:#ffa000"/><path id="path1769-4-6-8-0-5-98-2-4" d="m329.39296 225.97066c-2.61304-4.08835-8.96808-8.86162-11.08409-14.65051" style="display:inline;fill-rule:evenodd;fill:none;stroke-dasharray:none;stroke-linecap:round;stroke-linejoin:miter;stroke-miterlimit:3;stroke-opacity:1;stroke-width:2;stroke:#ffa000"/><path id="path1769-4-6-8-0-5-98-2-4-2" d="m266.41568 227.4509c1.26196-.83835 11.65692-13.11162 14.79091-17.15051" style="display:inline;fill-rule:evenodd;fill:none;stroke-dasharray:none;stroke-linecap:round;stroke-linejoin:miter;stroke-miterlimit:3;stroke-opacity:1;stroke-width:2;stroke:#ffa000"/><path id="path1769-4-6-8-0-5-9-0" d="m369.328 254.24835c-11.85102 4.53843-24.94427-6.17246-25.52995-6.38239-30.71233-11.00815-40.61683-19.34988-59.71885 17.77294-.27206.52872-1.1804.0197-1.7609.003-.61878-.0179-1.47969.11768-1.64897-.39763-10.30762-31.37788-1.39603-30.39791-36.5233-18.25789" style="display:inline;fill-rule:evenodd;fill:none;stroke-dasharray:none;stroke-linecap:round;stroke-linejoin:miter;stroke-miterlimit:3;stroke-opacity:1;stroke-width:2;stroke:#ffa000"/><path id="path1769-4-6-8-0-5-9-09" d="m304.59657 240.08179c-19.26899 10.1878-28.65501 3.5953-31.92319.4325" style="display:inline;fill-rule:evenodd;fill:none;stroke-dasharray:none;stroke-linecap:round;stroke-linejoin:miter;stroke-miterlimit:3;stroke-opacity:1;stroke-width:2;stroke:#ffa000"/></svg>