<svg viewBox="0 0 560 1e3"><path id="path2435" d="m292.52113 128.90316c-.33429 6.75674 6.09876 9.45261 11.36148 9.97656 4.19094.18539 8.72603-4.36868 9.83752-7.12883 1.18017-4.59456-6.91501-4.31762-9.66611-4.45516-3.39392-.1528-8.85821.28442-11.53289 1.60743z" style="display:inline;fill-opacity:.39215686;fill:#000;stroke-width:.13230093"/><path id="path2439" d="m192.75087 193.08056s-4e-5-3e-5-42e-5-9e-5c61e-5 1e-4 32e-5 1e-4 39e-5 1e-4 1e-5.0 3e-5-1e-5 3e-5-1e-5s0 0 0 0" style="display:inline;fill:#000;stroke-width:.31999999"/></svg>