<svg viewBox="0 0 560 1e3"><path style="display:inline;fill-opacity:1;fill-rule:evenodd;fill:#000;stroke-dasharray:none;stroke-linecap:butt;stroke-linejoin:miter;stroke-miterlimit:4;stroke-opacity:0;stroke-width:3;stroke:#000" d="m350.12931 407.62791c8.20773.68418 55.20986 40.37268 43.41606 80.51718-7.65858-3.48945-20.88153-16.8725-20.88153-16.8725-7.73135-16.84961-23.08925-47.00857-21.13047-60.16535.0246-.16538-1.56383-3.32192-1.40406-3.47933z" id="path7631"/><path style="display:inline;fill-opacity:1;fill-rule:evenodd;fill:#8aa7ff;stroke-dasharray:none;stroke-linecap:butt;stroke-linejoin:miter;stroke-miterlimit:4;stroke-opacity:0;stroke-width:3;stroke:#000" d="m349.37494 406.96372c.22265.0924.46533.23825.75647.37712 1.00485.47929 2.31731 1.34889 3.84105 2.57257 11.3192 9.09023 44.97254 41.33259 40.10828 74.64948-.18129 1.24172-.4043 2.49053-.67137 3.74568-9.97109-4.92696-22.90753-8.6631-22.90753-8.6631-4.24176-11.60618-24.29363-68.45386-21.4806-72.59506.0221-.0326.33583-.0799.3537-.0867z" id="path7633"/><path transform="rotate(15.737227,358.78205,354.98403)" style="display:inline;fill-opacity:1;fill-rule:evenodd;fill:#517cd3;stroke-dasharray:none;stroke-linecap:butt;stroke-linejoin:miter;stroke-miterlimit:4;stroke-opacity:0;stroke-width:3;stroke:#000" d="m367.49686 408.5399c25.88675 8.41417 56.04998 32.98209 59.80736 57.70858-8.31794-1.28145-25.16796-1.89728-25.16796-1.89728-12.0116-14.12108-34.72462-40.70723-36.40773-53.90211-.0212-.16584 1.65724-1.71434 1.76833-1.90919z" id="path7635"/></svg>