<svg viewBox="0 0 560 1e3"><path id="path2747" class="skin" d="m268.6 863.6c.7 1.8 1.5 1.7 2.9 4.2.0.0 2 3.6 2.2 8.1.2 5.3-3.9 7.6-9.2 15.1-8.1 11.6-6.2 17.3-12.7 20.7-2.1 1.2-5 1.6-10.8 2.7-.5.1-3.3.3-9 .6-2.4.2-4.6.3-6.3-1.3-.4-.4-1.3-1.2-1.2-2.2.2-1.6 3.1-1.9 5.7-3.1 3.6-1.8 5.5-4.9 7.3-7.6 2.8-4.4 1.8-6 5.5-16.4 1.7-4.6 1.9-4.4 3-8.1 1.6-5 1.6-6.8 3.1-12.3 1.9-7 3.6-12.8 5.2-14.4 4.8-4.9 10.8-2.8 12.4 1.2 1.5 2.9.1 8.2 1.9 12.8z"/><path id="path2749" class="skin" d="m311.5 880.7c.4-6.6 5.7-12.8 8.5-30.2.6-4.1 2.8-4.8 5.2-6 3.7-1.7 10.6-2.7 11 6 .4 6.1-.6 16.4.0 27.2.4 6.5.2 11.4 2 21.2 1.9 10 2.8 15.1 6 20.7 3.9 6.9 8.1 9.2 7.3 12.1-.6 2.4-4.1 2.9-9.2 3.7-4.8.7-9.6 1.4-15.1-1.3-1.4-.7-4-2-6.2-4.7-5.2-6.1-2.2-13.2-4.7-24.4-3.5-15.8-5.4-14.9-4.8-24.3z"/><path style="fill-opacity:.2745098;fill:#282828" id="path2751" d="m202.46094 525.89844c-.18399 22.53411 13.98638 82.44614 22.13672 105.66211 6.46284 18.40918 11.95342 34.2126 11.98242 34.49804.50629 4.97789 5.12695 44.37745 5.12695 46.14063 2.21063 23.41767 4.74478 43.32283 6.48072 61.65379 2.96256 31.28371 4.61457 56.29212 5.71312 74.10507-.0552 1.03782-.19286 1.76056-.83655 2.5825-2.76789 4.43869-5.9372 20.45977-7.2401 24.5102-3.01604 9.37624-5.80709 14.94269-6.86328 22.30664-.0565.39409-2.80558 5.65046-6.98047 9.31055-2.58128 2.26298-7.04467 2.68732-7.73633 4.66406-.35441 1.01289.97841 2.11673 1.50391 2.78516 2.74009 3.48538 26.18586.1837 29.17187-3.69727 1.73201-2.25115 5.24658-11.24156 7.30469-15.08398 2.96583-5.53711 11.87378-14.19464 11.89648-17.68946.0625-9.64329-4.52763-12.11717-5.10351-13.6289-.70099-1.84012-1.17389-4.4732-1.08399-5.01367.1587-6.5119-.94193-8.87676-1.54687-9.53125-.0736-.45491.0812-3.61862.36719-6.96875 1.1874-7.09627 2.56475-15.44337 4.77658-24.31838 21.42249-69.22917 23.38213-80.6115 19.05935-113.17967-1.44523-8.02093-3.74646-14.98069-3.92578-16 3.59124-17.73763 6.39326-27.0123 6.76758-38.92383 2.55727 11.08432 4.89412 22.26777 7.29297 32.41406-3.95373 11.86831-4.09445 30.94277-4.00195 33.54493-1.40356 23.18973 11.02539 67.33398 11.02539 67.33398 4.3318 17.75689 7.3388 31.27212 9.49387 44.58583 1.34786 8.32691 1.93307 18.04264 1.77956 24.56261-3.29484 16.01005-8.65817 25.16709-8.59765 29.99609.10091 8.05236 5.48634 21.80333 5.62305 25.46875.56614 15.1789-.39085 21.94235 12.24804 27.59375 5.64359 2.52349 24.23588-.0558 23.87891-4.00391-.34364-3.80047-5.43126-8.89855-6.02149-9.84374-7.6694-12.28198-10.23541-41.34584-9.49609-58.125-.0598-4.10145.36372-8.88292.0937-13.29493-.0743-11.83488.84722-24.96956 2.22656-38.73242.85277-7.72167 1.73779-15.62817 2.77344-24.36328.59433-4.93632 1.15769-9.69765 1.81055-14.96484.1345-.75262.26834-1.57489.40234-2.45899.134-.8841.26859-1.82943.40039-2.83398 1.84527-14.06378 3.39135-39.39288 2.3086-60.86524-.0643-1.27445-.79421-12.59641-1.34571-19.56054v-.002c-.18384-2.32133-.34808-4.15757-.46094-4.97656 15.34315-44.07834 32.0619-92.69033 37.26954-148.35742-7.99736 4.11484-25.12453 6.03472-35.58594 7.54883-26.86579 2.94385-65.03458-1.83773-72.41992-8.09961-1.09251.67524.97982.55443-.0664.0839l-.002-.01c-75e-5.0-.0109.002-.0117.002-.007-.004-.0147-.009-.0215-.0137 61e-5.005.001.0123.002.0176-.97741.0306-26.99292 5.54069-52.25196-.83399-1.22369-.37516-2.30607-.76857-3.19922-1.17969.008.10447.0165.20742.0254.31055-4.40017-1.29561-11.99515-2.96461-16.14258-5.12695z"/></svg>