<svg viewBox="0 0 560 1e3"><path style="display:inline;fill-opacity:1;fill-rule:evenodd;fill:#000;opacity:1;stroke-dasharray:none;stroke-linecap:butt;stroke-linejoin:miter;stroke-miterlimit:4;stroke-opacity:1;stroke-width:0;stroke:#000" d="m370.3969 269.0128c.40069 1.40387-1.11583 12.72289-8.30489 37.60241-5.42713 18.7819-12.19382 45.10812-12.7902 46.5662.0897 2.34411 6.53818 14.05382 8.99405 26.00841-36.77086 9.58655-110.59778 11.99867-129.46954-6.85783 2.433-12.49684 9.93148-36.52371 11.94649-51.5937-2.13048-7.70551-3.08737-14.72592-4.11084-28.13828.40962-35.13389 30.30326-40.0847 52.38713-59.43686.97617-2.02088 2.05999-19.89061-11.85024-27.17009-.63873-.33426 3.66191-3.80977 8.18644-6.21211 9.24713 11.38115 27.34766 3.74775 33.42729-1.52056 1.50252 1.12706 8.39482 5.20658 7.17933 6.00553-25.72677 16.91039-30.9022 28.84774-29.45936 29.06832 3.13994 1.52155 66.54554 33.43249 67.65165 34.25705z" id="path3688"/><path style="display:inline;fill-opacity:1;fill-rule:evenodd;fill:#fff;opacity:1;stroke-dasharray:none;stroke-linecap:butt;stroke-linejoin:miter;stroke-miterlimit:4;stroke-opacity:1;stroke-width:0;stroke:#000" d="m360.51873 307.70681c-5.91469 18.86306-11.3485 40.65759-11.27871 44.67604.49582 5.07437 6.22897 14.87586 8.60406 26.14521-31.28229 8.06681-114.6775 12.03087-127.27987-7.27988 1.41111-4.24145 10.72754-45.56108 11.32053-50.51049-2.20191-8.47425-3.26007-13.82305-4.1491-26.36041-3.37265-53.10898 5.76723-81.27991 39.20048-88.39617.49229-.51848 3.97915-3.18477 8.45611-5.58711 9.14993 11.38115 27.08296 3.74775 33.09868-1.52056 1.48672 1.12706 17.52471 7.31482 18.05659 8.65718 2.58742.19199 9.57783.93138 12.62329 2.06534 33.53732 18.21703 23.79777 65.06109 11.34794 98.11085z" id="path3690"/></svg>