<svg viewBox="0 0 560 1e3"><path style="display:inline;fill-opacity:1;fill-rule:evenodd;fill:#917c6f;opacity:1;stroke-dasharray:none;stroke-linecap:butt;stroke-linejoin:miter;stroke-miterlimit:4;stroke-opacity:1;stroke-width:0;stroke:#000" d="m350.44891 411.28161c-41.34356 12.40411-56.35277 29.50718-67.32299 47.0649-1.04023 1.75909-1.92047 7.35117-4.50173 9.70959-.97785.89343-3.70051-.0277-4.03805.0431-.91345.19159-2.09488.29968-2.84109.24274-1.3589-.10369-3.10427-.97079-4.62926-2.64607-1.15035-1.26373-2.1753-2.98733-2.81436-5.19001-8.27893-10.93923-27.60352-39.54369-38.34145-47.86102.0176-.005-.05-.20603.59439-1.93851 16.6623 12.87869 26.04641 28.55393 42.32336 28.99216 18.31235-.0725 28.69369-13.91735 80.95827-30.20977.0.0.63138 1.78415.61291 1.79289z" id="path5160"/><path style="display:inline;fill-opacity:1;fill-rule:evenodd;fill:#000;opacity:1;stroke-dasharray:none;stroke-linecap:butt;stroke-linejoin:miter;stroke-miterlimit:4;stroke-opacity:1;stroke-width:0;stroke:#000" d="m282.94456 458.76549c-.0483.15247-.11284.47208-.19954.90622-.41277 2.06685-1.81439 6.53069-3.87757 8.11265-.26921.20642-1.13559 1.14752-4.57861.28177-.17398-.0437-2.18026 1.1699-4.2783.12449-4.65827-2.32112-6.22252-8.10904-6.31915-8.53686 3.82592 9.08132 8.89939 9.3147 10.40315 7.55401 5.26837 2.79873 7.50839-4.81217 8.85002-8.44228z" id="path5162"/><path style="display:inline;fill-opacity:1;fill-rule:evenodd;fill:#000;opacity:1;stroke-dasharray:none;stroke-linecap:butt;stroke-linejoin:miter;stroke-miterlimit:4;stroke-opacity:1;stroke-width:0;stroke:#000" d="m293.87419 593.8061c-2.17664.39051-23.36622 7.99058-36.62914-.96416-8.80924-88.61849-9.274-130.11308-5.19579-159.60457 5.11909 3.77266 10.44345 6.28921 16.82847 6.46112 7.65152-.0303 13.91841-2.46503 22.43448-6.47811-7.20208 75.75742-3.54383 87.05732 2.56198 160.58572z" id="path5148-6-1-14"/><path style="display:inline;fill-opacity:1;fill-rule:evenodd;fill:#917c6f;opacity:1;stroke-dasharray:none;stroke-linecap:butt;stroke-linejoin:miter;stroke-miterlimit:4;stroke-opacity:1;stroke-width:0;stroke:#000" d="m292.81353 592.76366c-2.09846.38841-22.52701 7.94751-35.31359-.95897-8.49285-88.14076-8.81592-128.97417-4.88418-158.30668 4.93524 3.75232 9.94337 5.8178 16.09907 5.98878 7.37671-.0301 13.41852-2.01424 21.62873-6.00569-6.94341 75.34904-3.41654 86.15053 2.46997 159.28256z" id="path5148-6-4"/></svg>