<svg viewBox="0 0 560 1e3"><path id="path1417" d="m368.45236 268.83602c.40069 1.40387.82871 12.89967-6.36035 37.77919-5.42713 18.7819-17.81882 32.23312-18.4152 33.6912-4.00097 7.51635-13.75325 23.27516-4.00111 44.26258 3.32979 7.16599 8.64669 17.01109 8.81852 22.28118.0.0-51.13357 8.2205-62.64279 36.55787-2.06147 4.01155-2.1084 11.81811-3.46792 16.10443-.27859.87834-1.00697 6.35332-3.50565 8.26757-.26944.20641-1.13656 1.14752-4.58251.28177-.17413-.0437-1.37345.71664-3.61847.0361-5.83439-1.76869-6.66978-8.86034-6.76649-9.28816-1.98539-8.78313-6.24957-28.02971-9.43291-34.24779-14.19124-27.72004-27.92284-8.31406-29.23068-10.65039.0948-.56138 3.39068-11.91478 3.61233-12.37926 12.09578-25.34683 14.61742-47.52838 14.78869-62.73152.24452-21.70551-6.08737-33.66342-6.98584-46.20078-1.49474-45.8879 14.06627-60.21021 39.98511-85.99451-.63873-.33426 5.6721-3.49413 10.19663-5.89647 8.56627-13.05657 5.91229-19.70855 7.28412-20.47745 6.69699-3.75361 12.26294-2.00142 18.04713-5.8426 1.19814-.79565-.139 14.13795 5.93052 24.18077 1.50252 1.12706 9.10193 4.89722 7.88644 5.69617-25.72677 16.91039-30.9022 28.84774-29.45936 29.06832 3.13994 1.52155 66.54554 33.43249 67.65165 34.25705z" style="display:inline;fill-opacity:1;fill-rule:evenodd;fill:#000;opacity:1;stroke-dasharray:none;stroke-linecap:butt;stroke-linejoin:miter;stroke-miterlimit:4;stroke-opacity:1;stroke-width:0;stroke:#000"/><path id="path1419" d="m369.10102 268.06519c-.0399.30925-.70845 1.20502-.7583 1.68139-.54689 5.22621-1.85627 20.15341-7.57399 36.96023-6.28969 18.48806-14.96309 28.5403-15.90371 29.80104-5.36776 7.1946-10.45038 18.14833-11.79001 29.08338-1.1072 9.03783 13.31479 33.01787 18.51907 47.62433-40.10653 11.44456-65.04562 43.06204-65.81729 45.39981-.78385 1.88787-4.09482 9.15162-6.59172 10.93203-1.21712.86786-4.70932-.28121-4.96126-.30531-.29397-.0276-.88427.45308-3.09709-.11926-5.65546-1.4629-9.82931-5.24379-10.40142-7.19449-18.43111-29.49711-31.00062-46.48926-35.72603-47.67821 7.94787-20.31139 14.53739-34.1848 15.52113-39.29132 2.40743-12.49684 4.34652-31.04582 4.51599-33.91997 1.27707-21.66848-5.53672-33.8742-6.42575-46.41156-6.37265-49.60898 17.56318-82.09335 38.32548-88.64617.49229-.51848 5.43756-2.25669 9.91452-4.65903 7.12161-5.93033 6.35895-16.89914 7.55627-16.86248.45958.0141 4.79182-.31246 8.74612-3.05157 3.05665-2.11732 5.60286-7.02803 7.7428-5.86895 2.33341 1.26387-1.05836 9.80473 6.88797 23.64372 1.48672 1.12706 18.35682 6.19296 18.8887 7.53532.72196.25538 19.35863-3.36855 30.2896 22.43723 1.93173 4.72337 3.48808 12.8251 3.64055 20.34126.19882 9.80086-1.50163 18.56858-1.50163 18.56858z" style="display:inline;fill-opacity:1;fill-rule:evenodd;fill:#00619e;opacity:1;stroke-dasharray:none;stroke-linecap:butt;stroke-linejoin:miter;stroke-miterlimit:4;stroke-opacity:1;stroke-width:0;stroke:#000"/></svg>