<svg viewBox="0 0 560 1e3"><defs id="defs4360"><linearGradient id="linearGradient1767" osb:paint="solid"><stop style="stop-color:#969696;stop-opacity:1" offset="0" id="stop1765"/></linearGradient><filter style="color-interpolation-filters:sRGB" id="Filter_Shine_Blur" width="4" x="-2" height="4" y="-2"><feGaussianBlur stdDeviation="1.5 1.5" result="blur" id="feGaussianBlur4091-3"/></filter><pattern y="0" x="0" height="6" width="6" patternUnits="userSpaceOnUse" id="EMFhbasepattern"/><filter y="-2" height="4" x="-2" width="4" id="Filter_Shine_Blur-1" style="color-interpolation-filters:sRGB"><feGaussianBlur id="feGaussianBlur4091-3-4" result="blur" stdDeviation="1.5 1.5"/></filter><filter y="-2" height="4" x="-2" width="4" id="Filter_Shine_Blur-5" style="color-interpolation-filters:sRGB"><feGaussianBlur id="feGaussianBlur4091-3-9" result="blur" stdDeviation="1.5 1.5"/></filter><filter y="-2" height="4" x="-2" width="4" id="Filter_Shine_Blur-51" style="color-interpolation-filters:sRGB"><feGaussianBlur id="feGaussianBlur4091-3-91" result="blur" stdDeviation="1.5 1.5"/></filter><filter y="-2" height="4" x="-2" width="4" id="Filter_Shine_Blur-9" style="color-interpolation-filters:sRGB"><feGaussianBlur id="feGaussianBlur4091-3-90" result="blur" stdDeviation="1.5 1.5"/></filter><filter style="color-interpolation-filters:sRGB" id="Filter_Shine_Blur-11" width="4" x="-2" height="4" y="-2"><feGaussianBlur stdDeviation="1.5 1.5" result="blur" id="feGaussianBlur4091-3-40"/></filter><filter style="color-interpolation-filters:sRGB" id="filter2732" width="4" x="-2" height="4" y="-2"><feGaussianBlur stdDeviation="1.5 1.5" result="blur" id="feGaussianBlur2730"/></filter><filter style="color-interpolation-filters:sRGB" id="Filter_Shine_Blur-7" width="4" x="-2" height="4" y="-2"><feGaussianBlur stdDeviation="1.5 1.5" result="blur" id="feGaussianBlur4091-3-904"/></filter><filter style="color-interpolation-filters:sRGB" id="filter2766" width="4" x="-2" height="4" y="-2"><feGaussianBlur stdDeviation="1.5 1.5" result="blur" id="feGaussianBlur2764"/></filter><filter style="color-interpolation-filters:sRGB" id="Filter_Shine_Blur-3" width="4" x="-2" height="4" y="-2"><feGaussianBlur stdDeviation="1.5 1.5" result="blur" id="feGaussianBlur4091-3-5"/></filter><filter style="color-interpolation-filters:sRGB" id="filter2800" width="4" x="-2" height="4" y="-2"><feGaussianBlur stdDeviation="1.5 1.5" result="blur" id="feGaussianBlur2798"/></filter><filter style="color-interpolation-filters:sRGB" id="Filter_Shine_Blur-92" width="4" x="-2" height="4" y="-2"><feGaussianBlur stdDeviation="1.5 1.5" result="blur" id="feGaussianBlur4091-3-915"/></filter><filter style="color-interpolation-filters:sRGB" id="Filter_Shine_Blur-93" width="4" x="-2" height="4" y="-2"><feGaussianBlur stdDeviation="1.5 1.5" result="blur" id="feGaussianBlur4091-3-46"/></filter><filter style="color-interpolation-filters:sRGB" id="Filter_Shine_Blur-16" width="4" x="-2" height="4" y="-2"><feGaussianBlur stdDeviation="1.5 1.5" result="blur" id="feGaussianBlur4091-3-6"/></filter><filter style="color-interpolation-filters:sRGB" id="Filter_Shine_Blur-96" width="4" x="-2" height="4" y="-2"><feGaussianBlur stdDeviation="1.5 1.5" result="blur" id="feGaussianBlur4091-3-43"/></filter><filter style="color-interpolation-filters:sRGB" id="Filter_Shine_Blur-36" width="4" x="-2" height="4" y="-2"><feGaussianBlur stdDeviation="1.5 1.5" result="blur" id="feGaussianBlur4091-3-65"/></filter><filter style="color-interpolation-filters:sRGB" id="Filter_Shine_Blur-36-5" width="4" x="-2" height="4" y="-2"><feGaussianBlur stdDeviation="1.5 1.5" result="blur" id="feGaussianBlur4091-3-65-8"/></filter><filter style="color-interpolation-filters:sRGB" id="Filter_Shine_Blur-36-5-9" width="4" x="-2" height="4" y="-2"><feGaussianBlur stdDeviation="1.5 1.5" result="blur" id="feGaussianBlur4091-3-65-8-4"/></filter><filter style="color-interpolation-filters:sRGB" id="Filter_Shine_Blur-16-5" width="4" x="-2" height="4" y="-2"><feGaussianBlur stdDeviation="1.5 1.5" result="blur" id="feGaussianBlur4091-3-6-1"/></filter><filter style="color-interpolation-filters:sRGB" id="Filter_Shine_Blur-16-5-5" width="4" x="-2" height="4" y="-2"><feGaussianBlur stdDeviation="1.5 1.5" result="blur" id="feGaussianBlur4091-3-6-1-9"/></filter><filter style="color-interpolation-filters:sRGB" id="Filter_Shine_Blur-16-5-5-3" width="4" x="-2" height="4" y="-2"><feGaussianBlur stdDeviation="1.5 1.5" result="blur" id="feGaussianBlur4091-3-6-1-9-3"/></filter><filter style="color-interpolation-filters:sRGB" id="Filter_Shine_Blur-77" width="4" x="-2" height="4" y="-2"><feGaussianBlur stdDeviation="1.5 1.5" result="blur" id="feGaussianBlur4091-3-94"/></filter><filter style="color-interpolation-filters:sRGB" id="Filter_Shine_Blur-77-8" width="4" x="-2" height="4" y="-2"><feGaussianBlur stdDeviation="1.5 1.5" result="blur" id="feGaussianBlur4091-3-94-4"/></filter><filter style="color-interpolation-filters:sRGB" id="Filter_Shine_Blur-77-8-3" width="4" x="-2" height="4" y="-2"><feGaussianBlur stdDeviation="1.5 1.5" result="blur" id="feGaussianBlur4091-3-94-4-8"/></filter></defs><path style="display:inline;fill-opacity:1;fill-rule:evenodd;fill:#000;opacity:1;stroke-dasharray:none;stroke-linecap:butt;stroke-linejoin:miter;stroke-miterlimit:4;stroke-opacity:1;stroke-width:0;stroke:#000" d="m371.67186 290.79343c-1.54924 24.61694-3.60867 45.30395-6.86446 57.97337 11.06734 19.92487 14.50697 52.02549-.17581 68.37824-39.63585 8.44961-90.16097-12.93877-91.41579-14.85694-1.64009.741-47.13713 16.2501-48.44497 13.91377-17.1105-23.40849-2.29236-68.0398 8.89138-97.79924-1.36607-4.81345-.0146-17.46944-1.14669-27.90249 18.21016 2.77608 83.97859 6.11503 139.15634.29329z" id="path2900-0-5-6"/><path style="display:inline;fill-opacity:1;fill-rule:evenodd;fill:#333;opacity:1;stroke-dasharray:none;stroke-linecap:butt;stroke-linejoin:miter;stroke-miterlimit:4;stroke-opacity:1;stroke-width:0;stroke:#000" d="m370.66306 291.64636c-66e-5 18.62689-5.45568 49.86083-7.01043 56.76352.98237 5.60812 20.14449 35.41862.94626 68.85188.0.0 5.20065 29.44293 4.00328 39.24135-5.60223 1.84008-49.27936-.17302-50.67679-.9787-43.56877-25.11948-46.04206-35.72251-46.04206-35.72251-2.31489.27292-.74581 8.3089-40.18051 34.82975.0.0-13.5613.20574-14.20896-.26182-.2907-17.30701 2.53605-28.72529 6.52877-39.51142-13.34121-24.26378.4102-69.26366 11.38464-95.856-.30148-3.80824-.93792-16.05896-1.82695-28.59632 18.15164 5.78718 99.80392 6.76001 137.08275 1.24027z" id="path2902-5-5-7"/><path style="display:inline;fill-opacity:1;fill:#000" d="m271.82541 419.82176c-2.96249-1.35412 3.15992-85.07675 9.81306-125.37691.0217-.0978-.0306-.31903.0649-.29205 1.68011.47447 1.027.0747 2.33592.13491.12272.006-.0402.24289-.0604.36502-10.10391 61.17987-12.01107 124.97437-12.15349 125.16903z" id="path2904-2-9-2"/><path style="display:inline;fill:#000" d="m277.26367 407.09589c0 .86028-3.76472 3.3125-6.25 3.3125l.28125-6.65625c2.48528.0 5.96875 2.60847 5.96875 3.34375z" id="path2906-0-3-3"/><path style="display:inline;fill:#000" d="m277.90626 391.4531c0 .86028-3.76472 3.3125-6.25 3.3125l.28125-6.65625c2.48528.0 5.96875 2.60847 5.96875 3.34375z" id="path2908-0-5-6"/><path style="display:inline;fill:#000" d="m279.12501 376.4531c0 .86028-4.04597 3-6.53125 3l.46875-6.65625c2.48528.0 6.0625 2.92097 6.0625 3.65625z" id="path2910-5-9-0"/><path style="display:inline;fill:#000" d="m280.18751 363.2656c0 .86028-4.20222 2.6875-6.6875 2.6875l.59375-6.65625c2.48528.0 6.09375 3.23347 6.09375 3.96875z" id="path2912-8-8-7"/><path style="display:inline;fill:#000" d="m281.25001 348.5781c0 .86028-3.95222 2.875-6.4375 2.875l.625-6.59375c2.48528.0 5.8125 2.98347 5.8125 3.71875z" id="path2914-4-8-9"/><path style="display:inline;fill:#000" d="m283.00001 332.92185c0 .86028-4.13972 2.65625-6.625 2.65625l.6875-6.59375c2.48528.0 5.9375 3.20222 5.9375 3.9375z" id="path2916-3-6-7"/><path style="display:inline;fill:#000" d="m284.7206 318.33666c0 .86028-4.29597 2.28125-6.78125 2.28125l.8125-6.5c2.48528.0 5.96875 3.48347 5.96875 4.21875z" id="path2918-2-2-8"/><path style="display:inline;fill:#000" d="m286.3358 302.31061c0 .86028-3.98347 3-6.46875 3l.9375-6.3125c2.48528.0 5.53125 2.57722 5.53125 3.3125z" id="path2920-6-0-4"/><path style="display:inline;fill:#787878" d="m277.18902 406.27379c0 .86028-3.76472 3.3125-6.25 3.3125l.28125-6.65625c2.48528.0 5.96875 2.60847 5.96875 3.34375z" id="path2926-8-2-1"/><path style="display:inline;fill:#787878" d="m277.83161 390.631c0 .86028-3.76472 3.3125-6.25 3.3125l.28125-6.65625c2.48528.0 5.96875 2.60847 5.96875 3.34375z" id="path2928-7-7-7"/><path style="display:inline;fill:#787878" d="m279.05036 375.631c0 .86028-4.04597 3-6.53125 3l.46875-6.65625c2.48528.0 6.0625 2.92097 6.0625 3.65625z" id="path2930-2-9-5"/><path style="display:inline;fill:#787878" d="m280.11286 362.4435c0 .86028-4.20222 2.6875-6.6875 2.6875l.59375-6.65625c2.48528.0 6.09375 3.23347 6.09375 3.96875z" id="path2932-0-4-5"/><path style="display:inline;fill:#787878" d="m281.17536 347.756c0 .86028-3.95222 2.875-6.4375 2.875l.625-6.59375c2.48528.0 5.8125 2.98347 5.8125 3.71875z" id="path2934-6-9-9"/><path style="display:inline;fill:#787878" d="m282.92536 332.09975c0 .86028-4.13972 2.65625-6.625 2.65625l.6875-6.59375c2.48528.0 5.9375 3.20222 5.9375 3.9375z" id="path2936-2-8-7"/><path style="display:inline;fill:#787878" d="m284.64595 317.51456c0 .86028-4.29597 2.28125-6.78125 2.28125l.8125-6.5c2.48528.0 5.96875 3.48347 5.96875 4.21875z" id="path2938-69-1-8"/><path style="display:inline;fill:#787878" d="m286.26115 301.48851c0 .86028-3.98347 3-6.46875 3l.9375-6.3125c2.48528.0 5.53125 2.57722 5.53125 3.3125z" id="path2940-9-5-6"/><path style="display:inline;fill:#000;stroke-width:1.02941978" d="m329.36031 205.9463c-25.7741 23.51909-61.67786 5.88391-49.74999-1.41485 4.74048-2.90073 7.07988-5.65015 8.57032-10.26319 1.84657 1.29127 21.08483.72707 28.09976.0837 2.26449 2.01317 1.02775 7.31453 13.07991 11.59431z" id="path2942-4-67-3-6"/><path style="display:inline;fill:#787878" d="m316.34488 194.42185c.29213-.0359 1.0891 8.26622 13.10382 11.51622-25.34363 22.57098-61.48921 5.77608-49.76056-1.22844 4.6613-2.7838 7.04311-5.92591 8.50865-10.35299 1.42462 1.28163 21.1055.93043 28.14809.0652z" id="path2942-2-8-3"/><path style="display:inline;fill-rule:nonzero;fill:#000;stroke-width:3.5649364" d="m299.95201 197.81221c.14641.0141-.42473 3.31239-.28871 3.73225.0.0-.24136.15652 3.61361.58215-.0356.10412-.36289 3.32455-.38037 3.51569-1.23077-.11931-2.50951-.15831-3.58769-.27608.0.0-1.57706 9.12041-1.57407 9.0974.0.0-2.72206-.21537-2.69855-.42733.044-.3781.84627-8.36358.74035-8.8459-.0594-.27256-3.09732-.70092-3.0913-.95022.009-.3533.46259-2.85588.43082-3.15377.13756-.11999 2.86739.44558 2.94484.0385.31835-1.67308.44549-3.3201.56082-3.63272z" id="path2944-3-7-3"/><path id="path4027-70-1-6-6-4-7" d="m338.2634 373.24997c1.41216 9.42307-1.43557 29.939 7.27904 39.51479-12.96362-6.10053-10.95321-29.8094-7.27904-39.51479z" style="display:inline;fill-rule:evenodd;fill:#fff;filter:url(#Filter_Shine_Blur-16-5-5-3);stroke-dasharray:none;stroke-linecap:butt;stroke-linejoin:miter;stroke-miterlimit:4;stroke-opacity:0;stroke-width:3;stroke:#000"/></svg>