<svg viewBox="0 0 560 1e3"><path style="display:inline;fill-opacity:1;fill-rule:evenodd;fill:#eaf;opacity:1;stroke-dasharray:none;stroke-linecap:butt;stroke-linejoin:miter;stroke-miterlimit:4;stroke-opacity:1;stroke-width:0;stroke:#000" d="m350.44891 411.28161c-41.34356 12.40411-56.35277 29.50718-67.32299 47.0649-1.04023 1.75909-1.92047 7.35117-4.50173 9.70959-.97785.89343-3.70051-.0277-4.03805.0431-.91345.19159-2.09488.29968-2.84109.24274-1.3589-.10369-3.10427-.97079-4.62926-2.64607-1.15035-1.26373-2.1753-2.98733-2.81436-5.19001-8.27893-10.93923-27.60352-39.54369-38.34145-47.86102.0176-.005-.05-.20603.59439-1.93851 29.91996 7.91079 37.53385 11.40066 123.28163-1.21761.0.0.63138 1.78415.61291 1.79289z" id="path5841"/><path style="display:inline;fill-opacity:1;fill:#eaf;stroke-dasharray:none;stroke-linecap:butt;stroke-linejoin:miter;stroke-miterlimit:4;stroke-opacity:1;stroke-width:0;stroke:#83afc8" d="m225.9378 412.66104c.12717-.79329.24724-.90642.25482-.95601 23.02972 9.12926 54.6817 12.66174 123.82806-1.73671.0291.083.24793.57628.45084 1.30322-7.49448 2.32559-13.58511 4.61432-22.50451 8.15633-60.49161 9.75774-83.56164 4.33761-97.57663-2.66633-1.68147-1.78024-2.87542-3.01265-4.45258-4.1005z" id="path5843"/><path style="display:inline;fill-opacity:1;fill:#eaf;stroke-dasharray:none;stroke-linecap:butt;stroke-linejoin:miter;stroke-miterlimit:4;stroke-opacity:1;stroke-width:0;stroke:#83afc8" d="m241.44907 429.61473c16.19921 3.4137 37.32679 4.09867 68.75142-.23858-1.10723.72649-4.9682 3.64884-9.02733 7.02192-26.13262 3.68145-42.62028 3.1439-53.96133.73077-1.89388-2.48871-3.25794-4.54662-5.76276-7.51411z" id="path5845"/><path style="display:inline;fill-opacity:1;fill:#eaf;stroke-dasharray:none;stroke-linecap:butt;stroke-linejoin:miter;stroke-miterlimit:4;stroke-opacity:1;stroke-width:0;stroke:#83afc8" d="m252.70414 444.58541c10.94342 1.31488 24.01095 1.50229 40.32871.0811-1.56759 2.01272-3.58281 4.56444-5.24245 6.66295-12.30604 1.16431-22.00263 1.20882-29.81942.51362-2.04934-2.61037-3.63449-4.68604-5.26684-7.25767z" id="path5847"/><path style="display:inline;fill-opacity:1;fill:#eaf;stroke-dasharray:none;stroke-linecap:butt;stroke-linejoin:miter;stroke-miterlimit:4;stroke-opacity:1;stroke-width:0;stroke:#83afc8" d="m262.53421 458.18295c6.22871.31514 13.08896.30377 20.72809-.0971-.87505 2.4389-1.64015 4.66739-2.42955 6.53665-5.25319.34928-9.97649.47387-14.24234.41152-1.68576-1.69159-2.0194-4.59693-4.0562-6.85107z" id="path5849"/><path style="display:inline;fill-opacity:1;fill-rule:evenodd;fill:#000;opacity:1;stroke-dasharray:none;stroke-linecap:butt;stroke-linejoin:miter;stroke-miterlimit:4;stroke-opacity:1;stroke-width:0;stroke:#000" d="m282.94456 458.76549c-.0483.15247-.11284.47208-.19954.90622-.41277 2.06685-1.81439 6.53069-3.87757 8.11265-.26921.20642-1.13559 1.14752-4.57861.28177-.17398-.0437-2.18026 1.1699-4.2783.12449-4.65827-2.32112-6.22252-8.10904-6.31915-8.53686 3.82592 9.08132 8.89939 9.3147 10.40315 7.55401 5.26837 2.79873 7.50839-4.81217 8.85002-8.44228z" id="path5851"/><path style="display:inline;fill-opacity:1;fill:#eaf;stroke-dasharray:none;stroke-linecap:butt;stroke-linejoin:miter;stroke-miterlimit:4;stroke-opacity:1;stroke-width:0;stroke:#83afc8" d="m271.02081 416.82683c-.40499.0203-2.65956.56808-4.1375-.83724-4.16958-3.96471-10.17596-9.87921-10.68888-9.8703-4.579 14.03976 6.16335 16.1551 5.27505 17.72345 2.40799.6564 7.98463 6.14075 21.22352-.42033-1.20838-1.7332 10.55044-3.69019 5.51126-16.9532-1.34763.35186-8.56003 6.49771-13.30543 9.96822-1.31933.96489-3.20132.3151-3.87831.38931z" id="path5853"/><path style="display:inline;fill-opacity:1;fill:#000;stroke-dasharray:none;stroke-linecap:butt;stroke-linejoin:miter;stroke-miterlimit:4;stroke-opacity:1;stroke-width:0;stroke:#000" d="m358.3588 420.46955s.90522-3.71477 1.23561-3.80327c-1.21534-3.75726-8.84438-7.8256-8.90737-7.95693-10.52727-21.94918 14.2534-.93604 1.17112.59258.0295-.17605.20585.63851.20585.63851 18.06723-2.3882-15.05115-26.45838-1.90037-1.10352.0103.0448 6.48299 6.86889 8.19516 11.63263z" id="path4332-3"/><path style="display:inline;fill-opacity:1;fill:#eaf;stroke-dasharray:none;stroke-linecap:butt;stroke-linejoin:miter;stroke-miterlimit:4;stroke-opacity:1;stroke-width:0;stroke:#000" d="m358.60185 420.24234s.90522-3.71476 1.2356-3.80326c-1.21533-3.75726-8.84466-7.82546-8.90736-7.95694-10.51953-22.05892 14.79918-.81495 1.17111.59259.0295-.17605.20585.63851.20585.63851 18.59901-2.19315-16.36615-26.99934-1.90036-1.10352.0103.0448 6.48298 6.86889 8.19516 11.63262z" id="path4334-7"/><path style="display:inline;fill-opacity:1;fill:#000;stroke-dasharray:none;stroke-linecap:butt;stroke-linejoin:miter;stroke-miterlimit:4;stroke-opacity:1;stroke-width:0;stroke:#000" d="m351.75838 410.19916s-.0402-.24272-.17351-.71431c-20.6074 7.681-6.89527-22.17686-.16577-1.60176.0252.077-3.37763 8.23048-2.89317 10.45879.66187-.20196 3.10181 4.16632 3.10181 4.16632-1.2295-5.89337.27249-14.69057.24656-14.77148-8.33078-25.98859-23.21991 14.23924-.11586 2.46243z" id="path4336-6"/><path style="display:inline;fill-opacity:1;fill:#eaf;stroke-dasharray:none;stroke-linecap:butt;stroke-linejoin:miter;stroke-miterlimit:4;stroke-opacity:1;stroke-width:0;stroke:#000" d="m352.00143 409.97197s-.0402-.24273-.17352-.71432c-20.56708 7.61314-6.91981-22.94111-.16578-1.60175.0244.0772-3.37763 8.23048-2.89316 10.45878.66187-.20195 3.10181 4.16632 3.10181 4.16632-1.22951-5.89336.27401-14.69108.24655-14.77148-9.06764-26.54947-23.333 14.16775-.11586 2.46243z" id="path4338-4"/><path style="display:inline;fill-opacity:1;fill:#000;stroke-dasharray:none;stroke-linecap:butt;stroke-linejoin:miter;stroke-miterlimit:4;stroke-opacity:1;stroke-width:0;stroke:#000" d="m221.6569 423.82583s-1.4474-3.53892-1.78727-3.57732c.64327-3.89619 7.58295-9.05339 7.6255-9.19269 5.56195-18.20892-10.27027 2.44141-1.07001.76009-.0553-.16971-.10864.66202-.10864.66202-12.47444 1.36473 9.0497-22.8518 1.7152-1.37377-.004.0458-5.38981 7.75633-6.37478 12.72167z" id="path4332-3-9"/><path style="display:inline;fill-opacity:1;fill:#eaf;stroke-dasharray:none;stroke-linecap:butt;stroke-linejoin:miter;stroke-miterlimit:4;stroke-opacity:1;stroke-width:0;stroke:#000" d="m221.38278 423.63728s-1.4474-3.53891-1.78727-3.57732c.64327-3.89618 7.57588-9.05573 7.6255-9.1927 6.47204-17.86415-10.93432 2.02596-1.07.76011-.0554-.16971-.10864.66201-.10864.66201-13.43477 2.55476 10.70651-23.48257 1.71519-1.37376-.004.0458-5.38981 7.75633-6.37478 12.72166z" id="path4334-7-2"/><path style="display:inline;fill-opacity:1;fill:#000;stroke-dasharray:none;stroke-linecap:butt;stroke-linejoin:miter;stroke-miterlimit:4;stroke-opacity:1;stroke-width:0;stroke:#000" d="m226.65718 412.68834s.004-.246.0654-.73217c21.72011 4.11951 2.88094-20.98739-.0742-1.6086-.0122.0801 4.56365 7.6369 4.41583 9.91247-.68454-.10132-2.44797 4.58114-2.44797 4.58114.33972-6.01066-2.45857-14.48783-2.43976-14.57069 5.31968-23.43106 25.32651 10.578.48063 2.41785z" id="path4336-6-6"/><path style="display:inline;fill-opacity:1;fill:#eaf;stroke-dasharray:none;stroke-linecap:butt;stroke-linejoin:miter;stroke-miterlimit:4;stroke-opacity:1;stroke-width:0;stroke:#000" d="m226.38305 412.4998s.004-.246.0654-.73217c21.825 4.21533 4.23573-21.26198-.0742-1.6086-.0173.0791 4.56365 7.6369 4.41583 9.91246-.68454-.10131-2.44798 4.58115-2.44798 4.58115.33974-6.01066-2.45828-14.48778-2.43975-14.57069 5.43171-24.30662 25.31159 10.66734.48064 2.41784z" id="path4338-4-4"/><path style="display:inline;fill-opacity:1;fill-rule:evenodd;fill:#fff;opacity:1;stroke-dasharray:none;stroke-linecap:butt;stroke-linejoin:miter;stroke-miterlimit:4;stroke-opacity:1;stroke-width:0;stroke:#000" d="m365.71816 281.798c-.32833 1.07095.008 2.03659-.33233 2.87146-3.38429-.44813-4.57733 1.98352-8.01154 1.58066-2.43053-.28511-5.00286-2.88572-7.4477-3.14801-2.40646-.25819-4.55296 1.93793-6.96479 1.70195-2.5449-.24898-5.35518-2.92878-7.89633-3.15292-3.26076-.28761-5.98475 1.77215-9.22072 1.52569-2.83137-.21563-6.17883-2.74232-8.97616-2.92627-2.76199-.18162-5.90124 2.79351-8.61647 2.64297-2.4324-.13486-4.44614-3.39849-6.83075-3.50829-2.71599-.12506-5.26543 2.4421-7.9059 2.34971-3.02299-.10575-6.12415-2.86593-9.02795-2.92858-3.17193-.0684-6.39868 2.68116-9.40148 2.66449-3.2353-.018-6.23185-2.79803-9.23695-2.75548-2.4228.0343-4.63273 2.53159-6.88526 2.60551-2.93523.0963-5.8505-2.21689-8.46056-2.05288-2.66106.16721-5.29302 2.75912-7.57337 2.99722-2.73971.2861-3.16648-1.89084-5.28806-1.50154-.27752-.78022-.0671-1.6429-.22995-2.57421 13.59645-3.29884 51.41819-6.48704 128.30627 3.60852z" id="path3088-3-0-0-0-2-6-7-4-6-4-5-3"/><path style="display:inline;fill-opacity:1;fill-rule:evenodd;fill:#fff;opacity:1;stroke-dasharray:none;stroke-linecap:butt;stroke-linejoin:miter;stroke-miterlimit:4;stroke-opacity:1;stroke-width:0;stroke:#000" d="m368.86047 249.23632-.26901 6.65854-125.81388-5.51138.91398-5.57161c2.71112-1.35916 3.7498-4.26144 6.96489-5.20827 3.76874-1.10988 3.02036 1.18324 7.31388.56708 4.32619-.62084 4.78913-3.74216 9.4637-3.94185 4.42719-.18913 5.36487 1.39878 9.94285 1.51717 1.11919.0289 3.72841-2.1004 6.83423-2.44417 3.07893-.34078 5.79165 2.81672 8.87883 2.95397 3.13791.13951 4.39087-2.65607 7.76473-2.66372 2.95294-.007 4.25372 3.07175 7.07353 3.04709 2.40295-.021 5.22563-2.29174 7.45045-1.72729 2.95941.75082 4.38025 2.99269 6.11001 3.18373 4.16462.45995 5.7381-1.66487 9.66132-1.09895 4.15969.60003 3.9196 2.9234 7.65989 3.57825 3.97677.69626 5.4299-1.68879 8.75486-1.00774 3.64959.74755 5.65003 3.92003 8.51964 4.99337 2.0555.76885 4.72649.11176 6.40477.43594 2.87442.55525 6.41487 2.12088 6.37133 2.23984z" id="path3180-8-0-7-5-5-9-7"/><path style="display:inline;fill-opacity:1;fill-rule:evenodd;fill:#eaf;opacity:1;stroke-dasharray:none;stroke-linecap:butt;stroke-linejoin:miter;stroke-miterlimit:4;stroke-opacity:1;stroke-width:0;stroke:#000" d="m369.03303 251.00409c-.22427 1.20922.71062 15.86681-3.4782 31.76896-46.67396-4.89707-107.61736-7.2394-127.913-4.28849-1.04669-11.48092 5.70458-31.90492 5.70458-31.90492 34.64016-12.61017 71.29788-6.9819 125.68662 4.42445z" id="path3180-8-2-7-0-0-5"/><path id="path1686-7-77-70-6-0-7-3-8-7-7-1-1-9-7-5" d="m289.94431 246.27599c-.4262-.0293-2.8253.0864-4.29106-.96712-4.13523-2.97227-6.21042-4.89988-6.74923-4.94764-2.52244 4.78237.71642 8.24751-.31079 9.15879-2.34913 2.0841-3.19541 4.05494-3.21161 7.68013-97e-5.29722-5.6744.60726-5.64687.9026.0273.29232 5.7546.57053 5.81121.8589.0769.39408.18206.78439.31613 1.16896.09.25838-8.15268 1.68375-8.03585 1.9364.12945.27981 8.62145-.61381 8.78471-.34255.24924.41405.53856.81726.87002 1.20684.13214.15527-4.21288 2.27192-4.06717 2.42276.12886.13343 4.74699-1.6985 4.8866-1.56891 4.47832 4.42846 14.11228 5.34722 20.8586 2.1051.18473-.11057 4.02739 2.94182 4.19934 2.82217.18486-.12863-3.30203-3.42996-3.13175-3.56848.39979-.32531.75954-.67713 1.0803-1.0516.15994-.18668 7.13273 2.64029 7.27336 2.44283.18299-.25701-6.47286-3.54202-6.32203-3.81542.27089-.49102.49027-1.00679.65977-1.5412.0747-.23526 5.46959.54382 5.525.30183.0504-.22082-5.23691-1.46216-5.20214-1.68773.55297-3.58837.92551-5.55783-1.4476-8.07844-1.16304-1.23532 2.39043-2.30831 1.7224-8.27865-1.43549.0848-4.28826 1.2686-9.47824 2.99542-1.44293.48009-3.37846-.13197-4.09338-.15503z" class="skin"/></svg>