<svg viewBox="0 0 560 1e3"><path d="M340 52.9c-.2.0-.5.3-.7.5-.5.0-1 0-1.3.6.0.0-.7.0-1 .3-.4.2-.8 1.2-.8 1.2-2 1.2-2.2 1.9-2 2.4-1.2.0-1.8 1-2.5 1.8-1-.1-1.9 1.8-2.5 2.6-.6-.5-4.5 1.6-3.3 2.8l-.5.4c-.5.0-1.2-.6-1.2-.6-.8.6-.9 1.3-.6 2.1.0.3.2.5.4.7-1 1.2-2.8 1.6-3.1 3.4l-.7.7c-.6.7-1.7.9-2.4 1.6-.4.5-.4 1-.3 1.7-.4 2.3-.2 2.7 1.8 2.4l-.2.6v.1c-.4.6-.3 1.2.0 1.8.7 1.3 1.5 2.4 3.2 2.1h.2l.1.1.1.1c-1.2 1-1.1 2-.4 3 .8 1.2 1.1 2.4 1.4 3.7 1.2 1.5 2.2 3.1 4 4 3.2 2.1 3.5 9.1 12 10.2-.3-.8-1-1.4-.9-2l.7.6c.8.2 1.4.0 2-.5l.8-.4c.5-.3.6-.9.8-1.3l.7-.7v-1.2h.6c-.5-1-.3-3.3-.7-4.4 1.5-.5 1.2-2.6 2.6-3.1.9-.6.5-3.4.5-5.1l-.2-6v-.9s.1.4.4.5l.4-4.4c1.2-2.8 1.3-5.7 1.3-8.7.0-.7-.2-1.2-.2-1.2l-.2 1-.2-5.4-.5-.3c0-2.4-.8-5-2.6-6.2.0.0.1-.3-.7-.7-.7-.3-4 0-4.3.0z" fill="#863b3b"/><path d="M340.4 68.9c-1.2-.2-2.1 1.3-3.4.6l-.3-.2-3 1.9-.7 2.5c.7 1.3.3 2-1.2 2v1.1c.6.5.6 1.2.5 2-1 1-.6 2.3-.7 3.4-.2 2-1 3.5-3 4.1 1.5 2.4 4.6 3.5 5.7 6.4l.7 1.8c1.3-1.5 1.9-3 1.1-5.1-.6-1.6.1-3 1.8-3.9.6.0 1.3-.3 1.7.0l.2-1.6c-1.1.0-1.2-.9-1.1-2-.4-.7-.4-1.3.6-1.3.5.3.8.8 1.2 1l.6-.3h-.2c-1-1.3-.8-2.8-.5-4 .6-2.8.5-5.6.0-8.4z"/></svg>