<svg viewBox="0 0 560 1e3"><path id="path3053" d="m368.45236 268.83602c.40069 1.40387-.93027 12.32141-7.95134 37.24886-4.54325 16.13025-10.12644 23.75672-17.08678 35.1143-14.83302 25.62305-11.40054 29.58195-2.11717 51.63906.0.0-43.93643 22.23243-55.44565 50.5698-2.06147 4.01155-2.1084 11.81811-3.46792 16.10443-.27859.87834-1.00697 6.35332-3.50565 8.26757-.26944.20641-1.13656 1.14752-4.58251.28177-.17413-.0437-1.37345.71664-3.61847.0361-5.83439-1.76869-6.66978-8.86034-6.76649-9.28816-1.98539-8.78313-6.24957-28.02971-9.43291-34.24779-14.19124-27.72004-21.20533-26.69883-22.51317-29.03516 7.88498-17.78649 12.96746-43.00285 10.9764-77.23211-.10903-.84586-4.14283-11.7431-5.92518-28.16955 1.2935-80.38873 29.94971-37.60983 52.03358-56.96199.97617-2.02088 1.68499-20.51561-12.22524-27.79509-.63873-.33426 5.49532-2.25669 10.01985-4.65903.39347.18171 3.15985-2.78518 4.04836-2.71348 7.89162.63679 24.23359-2.19734 27.21341.5742 1.50252 1.12706 9.10193 4.89722 7.88644 5.69617-25.72677 16.91039-30.9022 28.84774-29.45936 29.06832 3.13994 1.52155 66.54554 33.43249 67.65165 34.25705z" style="display:inline;fill-opacity:1;fill-rule:evenodd;fill:#000;opacity:1;stroke-dasharray:none;stroke-linecap:butt;stroke-linejoin:miter;stroke-miterlimit:4;stroke-opacity:1;stroke-width:0;stroke:#000"/><path id="path3055" d="m368.47602 268.56519c-.77107 3.92168-3.9552 21.95053-9.3715 38.96484-3.58791 11.27077-13.51708 26.63343-15.76094 30.64203-1.56731 2.79998-12.91359 18.93921-11.71678 29.27793 1.81089 15.64347 6.31737 20.40651 10.96987 26.77185 1.40254 1.90805 4.4197 7.29784 7.43331 11.15298 52.7389 95.93321-178.91391 134.86246-118.09353-8.25058 8.69383-19.49647 8.91566-28.94894 10.35172-34.00948 5.17717-18.24376 1.92316-40.73168 1.51078-45.94078-.30148-3.80824-4.82961-14.60553-5.71864-27.14289.41686-18.21466 2.24062-30.72799 5.26681-40.47792 4.74982-15.30322 13.15259-34.64266 33.589-43.57206.49229-.51848 5.43756-2.25669 9.91452-4.65903 1.60336-.39771 5.45807-5.67543 5.61806-5.90225.71447-1.01286 19.82997-.34514 25.3151 3.76297 1.48672 1.12706 18.23182 7.00546 18.7637 8.34782 16.36241-.34204 27.21487 10.68827 31.59706 24.79945 3.70801 11.9402 2.33969 26.22823.33146 36.23512z" style="display:inline;fill-opacity:1;fill-rule:evenodd;fill:#c8c8c8;opacity:1;stroke-dasharray:none;stroke-linecap:butt;stroke-linejoin:miter;stroke-miterlimit:4;stroke-opacity:1;stroke-width:0;stroke:#000"/><path style="display:inline;fill-opacity:1;fill:#17280b;stroke-dasharray:none;stroke-linecap:butt;stroke-linejoin:miter;stroke-miterlimit:4;stroke-opacity:1;stroke-width:0;stroke:#000" d="m389.75048 479.5035c.0218.0352 1.0853 3.08403 1.00804 3.13019-.65016.38847-2.25374 1.05942-3.45208 1.4977-.11447.0419-2.60411-2.6977-2.71885-2.65607-4.27881 1.55252-8.73882 2.97465-13.33844 4.27159-.14587.0411-.0106 6.20714-.15679 6.24802-5.90081 1.65048-8.17335 2.99738-14.45125 4.011-.12954.0209-4.38403-5.7371-4.51347-5.71144-6.02034 1.19334-12.16746 2.20809-18.3642 3.05386-.21287.0291-.98829 6.43291-1.20127 6.46156-6.3312.85182-9.56248 1.27794-15.87283 1.37345-.22843.003-3.08247-5.6736-3.31214-5.6555-6.46262.50767-12.8877.8439-19.18837 1.01951-.17706.005-1.41654 5.416-1.59343 5.42068-6.35406.16818-10.09123.0167-16.12724-.13068-.094-.002-1.34423-5.255-1.43814-5.257-6.2547-.15783-12.29156-.47926-18.01651-.95187-.14841-.0123-1.24639 3.491-1.39361 3.48278-5.44524-.30417-8.924-1.42407-13.7992-2.22416-.0778-.0128-.68588-3.87031-.76355-3.88283-5.08329-.81964-9.70966-2.45079-13.97008-3.60642-.09-.0244-1.68235 3.02261-1.77192 2.99805-4.68813-1.28512-7.67978-2.31877-11.06999-4.13779-.0815-.0437.0834-3.4682.001-3.50886-2.51321-1.24065-4.61555-2.58593-6.35499-4.03294-.37587-.31268-3.45047-.9982-4.25668-1.77098-.15151-.14522-2.25898 3.02021-2.41758 3.08855.0.0-2.24414-1.02671-2.32019-1.15309 2.54014-25.90337 24.88074-77.2018 36.32111-93.89645 60.81168 14.65699 63.968 7.60759 104.72028 2.48341 3.23209 2.93017 32.42334 45.66928 49.81237 90.03575z" id="path3057"/><path style="fill-opacity:1;fill:#1c1f24;stroke-dasharray:none;stroke-linecap:butt;stroke-linejoin:miter;stroke-miterlimit:4;stroke-opacity:1;stroke-width:0;stroke:#000" d="m203.55359 478.92173c8.51492-28.38984 24.90566-58.3362 35.05005-89.27979l1.51993.57841c-8.38453 32.41858-18.87908 63.04264-25.84818 94.53961-4.19544-1.96694-6.85801-3.20798-10.7218-5.83823z" id="path3059"/><path style="display:inline;fill-opacity:1;fill:#1c1f24;stroke-dasharray:none;stroke-linecap:butt;stroke-linejoin:miter;stroke-miterlimit:4;stroke-opacity:1;stroke-width:0;stroke:#000" d="m226.95769 489.464c7.24497-32.07307 17.36955-64.50147 26.93716-96.11001l2.03771.43067c-7.35074 32.55411-9.7067 66.76448-14.70238 99.31859-4.43458-.94634-9.83791-2.1253-14.27249-3.63925z" id="path3061"/><path style="display:inline;fill-opacity:1;fill:#1c1f24;stroke-dasharray:none;stroke-linecap:butt;stroke-linejoin:miter;stroke-miterlimit:4;stroke-opacity:1;stroke-width:0;stroke:#000" d="m256.96016 495.62277c4.12528-33.29707 11.21077-67.27028 17.20686-99.63194l1.98474.31888c-1.1273 33.48562 1.58175 67.71877-.94699 100.73724-5.90886-.17424-12.66842-.58459-18.24461-1.42418z" id="path3063"/><path style="display:inline;fill-opacity:1;fill:#1c1f24;stroke-dasharray:none;stroke-linecap:butt;stroke-linejoin:miter;stroke-miterlimit:4;stroke-opacity:1;stroke-width:0;stroke:#000" d="m293.97995 497.23072c-.55795-32.66775 1.13471-66.01338 1.96298-100.52941l2.53771-.0997c3.73482 35.86669 11.87469 67.7164 15.34931 99.64702-6.4873.7737-15.28559 1.51121-19.85.98209z" id="path3065"/><path style="display:inline;fill-opacity:1;fill:#1c1f24;stroke-dasharray:none;stroke-linecap:butt;stroke-linejoin:miter;stroke-miterlimit:4;stroke-opacity:1;stroke-width:0;stroke:#000" d="m333.58147 494.15658c-7.04711-32.54953-12.39888-65.66548-16.83289-99.52156l1.96578-.25435c5.55226 34.08301 23.32978 64.51357 34.0336 96.4501-5.88931 1.26555-12.94565 2.47467-19.16649 3.32581z" id="path3067"/><path style="display:inline;fill-opacity:1;fill:#1c1f24;stroke-dasharray:none;stroke-linecap:butt;stroke-linejoin:miter;stroke-miterlimit:4;stroke-opacity:1;stroke-width:0;stroke:#000" d="m371.13216 486.30077c-15.12415-30.24903-25.05372-61.32185-35.32911-95.09726l2.09577-.90902c5.05362 15.805 27.87694 64.14372 46.67297 91.17249-4.07146 1.82226-9.20346 3.50567-13.43963 4.83379z" id="path3069"/><path style="display:inline;fill-opacity:1;fill:#1c1f24;stroke-dasharray:none;stroke-linecap:butt;stroke-linejoin:miter;stroke-miterlimit:4;stroke-opacity:1;stroke-width:0;stroke:#000" d="m340.95788 390.7864c-40.86096 10.78471-73.70088 9.18049-106.39563-1.96889l2.19684-5.53337c47.7592 14.94425 68.1724 7.34549 99.76318 1.55769.11976.26161 3.13612 3.83594 4.43561 5.94457z" id="path3071"/><path style="display:inline;fill-opacity:1;fill:#1c1f24;stroke-dasharray:none;stroke-linecap:butt;stroke-linejoin:miter;stroke-miterlimit:4;stroke-opacity:1;stroke-width:0;stroke:#000" d="m356.82205 414.47941c-63.82717 21.90257-108.60301 10.54492-136.50218.52212 1.76517-4.76502 5.36062-11.08095 7.18829-15.10619 35.33835 11.44808 61.89198 17.84062 120.06482.15322 4.10725 5.18477 9.11004 14.101 9.24907 14.43085z" id="path3073"/><path style="display:inline;fill-opacity:1;fill:#1c1f24;stroke-dasharray:none;stroke-linecap:butt;stroke-linejoin:miter;stroke-miterlimit:4;stroke-opacity:1;stroke-width:0;stroke:#000" d="m375.67723 448.31229c-63.82716 21.90257-141.0909 10.52061-168.99008.49781 1.76517-4.76502 3.80061-11.12515 5.62828-15.15039 35.33836 11.44808 98.30355 19.27628 156.47638 1.58888 3.46643 5.62672 6.74639 12.73385 6.88542 13.0637z" id="path3075"/><path style="display:inline;fill-opacity:1;fill:#1c1f24;stroke-dasharray:none;stroke-linecap:butt;stroke-linejoin:miter;stroke-miterlimit:4;stroke-opacity:1;stroke-width:0;stroke:#000" d="m389.51673 479.18301c-52.86701 22.4329-146.95291 25.4922-190.40843-2.91538 1.01517-4.89002 1.73562-10.20595 3.56329-14.23119 39.05066 26.4741 112.8586 25.41905 181.81482 4.90322 3.41975 6.37227 4.89129 11.9135 5.03032 12.24335z" id="path3077"/><path style="display:inline;fill-opacity:1;fill:#0b280b;stroke-dasharray:none;stroke-linecap:butt;stroke-linejoin:miter;stroke-miterlimit:4;stroke-opacity:1;stroke-width:0;stroke:#000" d="m232.17646 418.94752c-.17346-.002-3.23213-.92613-4.17688-1.38887l6.18903-15.4628s2.52863.8004 2.53738.77029c-.1896.57539-4.5124 15.98223-4.54953 16.08138z" id="path3079"/><path style="display:inline;fill-opacity:1;fill:#0b280b;stroke-dasharray:none;stroke-linecap:butt;stroke-linejoin:miter;stroke-miterlimit:4;stroke-opacity:1;stroke-width:0;stroke:#000" d="m250.40744 423.81644c-.17346-.002-4.39619-.78551-5.34094-1.24825l4.7485-15.92777s3.34623.87774 3.35498.84763c-.1896.57539-2.72541 16.22924-2.76254 16.32839z" id="path3081"/><path style="display:inline;fill-opacity:1;fill:#0b280b;stroke-dasharray:none;stroke-linecap:butt;stroke-linejoin:miter;stroke-miterlimit:4;stroke-opacity:1;stroke-width:0;stroke:#000" d="m276.00119 427.26956c-.17346-.002-6.79463-.17613-7.73938-.63887l3.10995-16.04832s4.53947.42475 4.54822.39464c-.1896.57539.11834 16.1934.0812 16.29255z" id="path3083"/><path style="display:inline;fill-opacity:1;fill:#0b280b;stroke-dasharray:none;stroke-linecap:butt;stroke-linejoin:miter;stroke-miterlimit:4;stroke-opacity:1;stroke-width:0;stroke:#000" d="m302.65744 426.67581c-.17346-.002-6.82588.98012-7.77063.51738l.56403-16.43155s4.77863-.35585 4.78738-.38596c-.1896.57539 2.45635 16.20098 2.41922 16.30013z" id="path3085"/><path style="display:inline;fill-opacity:1;fill:#0b280b;stroke-dasharray:none;stroke-linecap:butt;stroke-linejoin:miter;stroke-miterlimit:4;stroke-opacity:1;stroke-width:0;stroke:#000" d="m326.12783 423.02113c-.17346-.002-4.38118 1.48245-5.32593 1.01971l-2.31981-16.68545s2.90363-.4496 2.91238-.47971c-.1896.57539 4.77049 16.0463 4.73336 16.14545z" id="path3087"/><path style="display:inline;fill-opacity:1;fill:#0b280b;stroke-dasharray:none;stroke-linecap:butt;stroke-linejoin:miter;stroke-miterlimit:4;stroke-opacity:1;stroke-width:0;stroke:#000" d="m349.09317 417.01723c-.17346-.002-3.93924 1.90229-4.88399 1.43955l-5.03629-16.12571s3.01476-.81269 3.02351-.8428c-.1896.57539 6.9339 15.42981 6.89677 15.52896z" id="path3089"/><path style="display:inline;fill-opacity:1;fill:#0b280b;stroke-dasharray:none;stroke-linecap:butt;stroke-linejoin:miter;stroke-miterlimit:4;stroke-opacity:1;stroke-width:0;stroke:#000" d="m222.34662 453.61905c-.17346-.002-7.60735-2.11937-8.5521-2.58211l6.32161-15.33022s6.28514 1.81687 6.64744 1.83095c-.1896.57539-4.37982 15.98223-4.41695 16.08138z" id="path3091"/><path style="display:inline;fill-opacity:1;fill:#0b280b;stroke-dasharray:none;stroke-linecap:butt;stroke-linejoin:miter;stroke-miterlimit:4;stroke-opacity:1;stroke-width:0;stroke:#000" d="m245.93869 458.17581c-.17346-.002-9.76338-1.33238-10.70813-1.79512l4.40778-15.8378s8.24738 1.64415 8.25613 1.61404c-.1896.57539-1.91865 15.91973-1.95578 16.01888z" id="path3093"/><path style="display:inline;fill-opacity:1;fill:#0b280b;stroke-dasharray:none;stroke-linecap:butt;stroke-linejoin:miter;stroke-miterlimit:4;stroke-opacity:1;stroke-width:0;stroke:#000" d="m241.3254 493.12165c-.17346-.002-13.13163-2.6055-14.51832-3.73116l3.49319-14.22536s13.13523 3.45205 13.14398 3.42194c-.1896.57539-2.08172 14.43543-2.11885 14.53458z" id="path3095"/><path style="display:inline;fill-opacity:1;fill:#0b280b;stroke-dasharray:none;stroke-linecap:butt;stroke-linejoin:miter;stroke-miterlimit:4;stroke-opacity:1;stroke-width:0;stroke:#000" d="m214.34494 484.80081c-.17346-.002-9.98213-4.67613-11.05188-5.70137l4.84528-13.86905s9.62238 5.14415 9.63113 5.11404c-.1896.57539-3.3874 14.35723-3.42453 14.45638z" id="path3097"/><path style="display:inline;fill-opacity:1;fill:#0b280b;stroke-dasharray:none;stroke-linecap:butt;stroke-linejoin:miter;stroke-miterlimit:4;stroke-opacity:1;stroke-width:0;stroke:#000" d="m275.29767 497.03066c-.17346-.002-11.23128.002-18.49579-1.52145l1.99058-14.26956s16.80335 1.37493 17.25404 1.34482c-.1896.57539-.7117 14.34704-.74883 14.44619z" id="path3099"/><path style="display:inline;fill-opacity:1;fill:#0b280b;stroke-dasharray:none;stroke-linecap:butt;stroke-linejoin:miter;stroke-miterlimit:4;stroke-opacity:1;stroke-width:0;stroke:#000" d="m313.99352 496.27936c-.17346-.002-11.27547 1.54875-20.26356.99762l-.0865-14.84408s17.81982-1.09995 18.40309-1.08587c-.1896.57539 1.98415 14.83318 1.94702 14.93233z" id="path3101"/><path style="display:inline;fill-opacity:1;fill:#0b280b;stroke-dasharray:none;stroke-linecap:butt;stroke-linejoin:miter;stroke-miterlimit:4;stroke-opacity:1;stroke-width:0;stroke:#000" d="m352.95062 490.80189c-.17346-.002-18.6117 3.71426-19.55645 3.25152l-3.26852-14.88828s17.37787-3.0003 17.38662-3.03041c-.1896.57539 5.47548 14.56802 5.43835 14.66717z" id="path3103"/><path style="display:inline;fill-opacity:1;fill:#0b280b;stroke-dasharray:none;stroke-linecap:butt;stroke-linejoin:miter;stroke-miterlimit:4;stroke-opacity:1;stroke-width:0;stroke:#000" d="m384.80548 481.4167c-.17346-.002-12.95485 5.21686-13.8996 4.75412l-6.45051-13.87181s12.16296-3.13288 12.17171-3.16299c-.1896.57539 8.21553 12.18153 8.1784 12.28068z" id="path3105"/><path style="display:inline;fill-opacity:1;fill:#0b280b;stroke-dasharray:none;stroke-linecap:butt;stroke-linejoin:miter;stroke-miterlimit:4;stroke-opacity:1;stroke-width:0;stroke:#000" d="m366.38881 451.33932c-.17346-.002-9.45754 2.45704-9.6068 2.55778l-5.39367-14.19796s7.84113-1.5746 8.00613-1.82346c-.1896.57539 7.03147 13.36449 6.99434 13.46364z" id="path3107"/><path style="display:inline;fill-opacity:1;fill:#0b280b;stroke-dasharray:none;stroke-linecap:butt;stroke-linejoin:miter;stroke-miterlimit:4;stroke-opacity:1;stroke-width:0;stroke:#000" d="m339.81369 457.42581c-.17346-.002-12.20088 2.32387-13.14563 1.86113l-2.65472-14.93155s9.80988-1.29335 9.81863-1.32346c-.1896.57539 6.01885 14.29473 5.98172 14.39388z" id="path3109"/><path style="display:inline;fill-opacity:1;fill:#0b280b;stroke-dasharray:none;stroke-linecap:butt;stroke-linejoin:miter;stroke-miterlimit:4;stroke-opacity:1;stroke-width:0;stroke:#000" d="m308.68416 460.95484c-.17346-.002-13.79454.88583-14.73929.42309l.44379-15.50699s11.58843-.17188 11.59718-.20199c-.1896.57539 2.73545 15.18674 2.69832 15.28589z" id="path3111"/><path style="display:inline;fill-opacity:1;fill:#0b280b;stroke-dasharray:none;stroke-linecap:butt;stroke-linejoin:miter;stroke-miterlimit:4;stroke-opacity:1;stroke-width:0;stroke:#000" d="m276.51214 461.13162c-.17346-.002-13.3526-.70516-14.29735-1.1679l2.78608-15.4628s10.57197.7562 11.33202.81448c-.1896.57539.21638 15.71707.17925 15.81622z" id="path3113"/><path style="display:inline;fill-opacity:1;fill:#000;opacity:1;stroke-dasharray:none;stroke-linecap:butt;stroke-linejoin:miter;stroke-miterlimit:4;stroke-opacity:1;stroke-width:0;stroke:#000" d="m291.59598 204.88954c-.007-.15238 5.39726-10.80323 5.46415-10.99796.0.0-4.71541-2.02563-4.85767-1.83113-.86438 1.18176-2.48505 4.21861-3.88833 5.92157.099.227 3.28185 6.90752 3.28185 6.90752z" id="path2246-4-41-0-9-4-9-2-8-6-8-4-1-4-1-6-1"/><path style="display:inline;fill-opacity:1;fill:#c8c8c8;opacity:1;stroke-dasharray:none;stroke-linecap:butt;stroke-linejoin:miter;stroke-miterlimit:4;stroke-opacity:1;stroke-width:0;stroke:#000" d="m291.37199 204.48619c-.007-.14941 5.24298-10.59292 5.30796-10.78386.0.0-4.58062-1.9862-4.71882-1.79549-.83967 1.15876-2.41401 4.13649-3.77718 5.8063.0962.22258 3.18804 6.77305 3.18804 6.77305z" id="path2246-4-41-0-9-4-9-2-8-6-8-4-7-2-7-9"/><path style="display:inline;fill-opacity:1;fill:#000;opacity:1;stroke-dasharray:none;stroke-linecap:butt;stroke-linejoin:miter;stroke-miterlimit:4;stroke-opacity:1;stroke-width:0;stroke:#000" d="m302.35934 205.13171c.007-.15238-4.12803-10.81395-4.19492-11.00868.0.0 16.75554-2.71313 16.8978-2.51863.86438 1.18176 2.6413 5.37486 3.07583 6.04657-.099.227-15.77871 7.48074-15.77871 7.48074z" id="path2246-4-41-0-9-4-9-2-8-6-8-4-2-7-4-5-3-7"/><path style="display:inline;fill-opacity:1;fill:#c8c8c8;opacity:1;stroke-dasharray:none;stroke-linecap:butt;stroke-linejoin:miter;stroke-miterlimit:4;stroke-opacity:1;stroke-width:0;stroke:#000" d="m302.32893 204.87389c.007-.14856-3.50116-10.71524-3.56706-10.90509.0.0 15.63782-2.64512 15.77799-2.4555.85164 1.15214 2.60238 5.24014 3.03051 5.89501-.0975.22131-15.24144 7.46558-15.24144 7.46558z" id="path2246-4-41-0-9-4-9-2-8-6-8-4-2-9-5-3-8"/><path id="path3280-7-2-6-6-6-6" class="shadow" d="m329.88728 425.7106c-15.4791 1.19068-42.03653 26.26041-44.60913 30.99635 10.29989-9.14088 29.75951-26.28541 44.60913-30.99635z"/><path id="path3282-5-4-0-8-6-9" class="shadow" d="m262.14519 457.55889c-6.81704-9.41592-28.83006-31.99347-34.93819-34.15183 5.05404 5.44075 26.5203 25.35081 34.93819 34.15183z"/><path style="display:inline;fill-opacity:1;fill-rule:evenodd;fill:#0b1728;opacity:1;stroke-dasharray:none;stroke-linecap:butt;stroke-linejoin:miter;stroke-miterlimit:4;stroke-opacity:1;stroke-width:0;stroke:#000" d="m368.776 268.56519c-.77461 3.92168-3.97339 21.95053-9.41466 38.96484-9.58543 26.63525-31.9174 49.66917-26.49032 67.01615-15.6007 11.79561-89.48153 7.18733-92.15843-3.60905 6.09478-35.2798 3.22665-48.55405 2.8124-53.76315-.30291-3.80824-4.85188-14.60553-5.74499-27.14289 1.22918-53.46254 15.03742-58.37216 39.03469-84.04998.49457-.51848 5.4626-2.25669 9.96015-4.65903-8.51882 16.39017 21.62806 22.5736 34.27218-.90184 1.49356 1.12706 15.11916 5.76802 15.65345 7.11038 5.62277 13.25538 5.63445 25.94395 12.84849 37.87473 7.35938 13.63251 13.76196 21.31242 19.22704 23.15984z" id="path3119-7-5"/><path style="display:inline;fill-opacity:1;fill:#214478;opacity:1;stroke-dasharray:none;stroke-linecap:butt;stroke-linejoin:miter;stroke-miterlimit:4;stroke-opacity:1;stroke-width:0;stroke:#000" d="m367.84923 272.33673c-23.06236-5.36348-33.45947-66.06356-33.52537-66.25341.0.0 1.9906 1.00368 2.18424 1.13825 1.9123 1.32892 12.74364 49.96783 32.08688 61.2293-.0975.22131-.74575 3.88586-.74575 3.88586z" id="path2246-4-41-0-9-4-9-2-8-6-8-4-2-9-5-3-6-8"/><path style="display:inline;fill-opacity:1;fill:#214478;opacity:1;stroke-dasharray:none;stroke-linecap:butt;stroke-linejoin:miter;stroke-miterlimit:4;stroke-opacity:1;stroke-width:0;stroke:#000" d="m245.3392 242.36227c4.11594-11.96703 31.74542-36.46223 31.67952-36.65208.0.0 5.7406-2.62132 5.93424-2.48675 1.9123 1.32892-25.9628 24.20428-39.44345 44.88907-.0975.22131 1.82969-5.75024 1.82969-5.75024z" id="path2246-4-41-0-9-4-9-2-8-6-8-4-2-9-5-3-6-2-0"/><path style="display:inline;fill-opacity:1;fill:#214478;opacity:1;stroke-dasharray:none;stroke-linecap:butt;stroke-linejoin:miter;stroke-miterlimit:4;stroke-opacity:1;stroke-width:0;stroke:#000" d="m240.7384 369.45827c43.61544 16.95575 91.66715 1.85363 91.60125 1.66375.0.0.6026 3.29624.45417 3.47947-6.66137 8.22321-75.5781 12.86912-92.30875-2.38359-.0975.22131.25333-2.75967.25333-2.75967z" id="path2246-4-41-0-9-4-9-2-8-6-8-4-2-9-5-3-6-2-4-6"/></svg>