<svg viewBox="0 0 560 1e3"><path style="display:inline;fill-opacity:1;fill-rule:evenodd;fill:#000;stroke-dasharray:none;stroke-linecap:butt;stroke-linejoin:miter;stroke-miterlimit:4;stroke-opacity:0;stroke-width:3.09411693;stroke:#000" d="m346.23322 215.0979c-2.35682-3.946-20.29304-9.49697-17.17028-9.86339 77.12258-8.49025 65.08099 54.21028 62.45224 113.86458-1.00715 1.55395 15.57277-6.32493 17.57914-7.76393 2.7139 2.83454 9.92071 13.61214 9.92071 13.61214s-34.88268 31.21461-55.60133 16.75428c-1.24298-10.83476 1.34017-20.78968-2.44377-43.11079-3.79604-22.39256-3.25959-57.42228-14.73671-83.49289z" id="path5212"/><path style="display:inline;fill-opacity:1;fill-rule:evenodd;fill:#d4aa00;stroke-dasharray:none;stroke-linecap:butt;stroke-linejoin:miter;stroke-miterlimit:4;stroke-opacity:0;stroke-width:3;stroke:#000" d="m347.79149 214.93549c-2.23963-3.9037-19.28401-9.39515-16.31653-9.75765 73.2878-8.39922 61.84496 53.62911 59.34691 112.64388 6.73528.46966 18.25684-5.95725 18.25684-5.95725l9.33852 13.70826s-39.03794 30.05973-54.29954 14.60917c-1.18117-10.7186 1.27353-20.56679-2.32225-42.64862-3.60729-22.15249-3.09751-56.80667-14.00395-82.59779z" id="path5214"/></svg>