<svg viewBox="0 0 560 1e3"><path id="path6692" d="m270.19769 417.71739c-1.92938-6.70782-4.18105-20.93947-.0755-30.24396 3.28587-16.05957-1.98893-24.77252 3.77305-45.47135.78273-1.72499 1.42313-4.08041 1.42313-5.23425.0-2.92123 2.72097-11.95425 3.75025-12.45001 2.26402-1.09046 2.37976.82982.32614 5.41078-1.23107 2.74601-2.19252 6.04644-2.13658 7.33424.056 1.28783-.55016 4.92187-1.34684 8.07562-6.72281 14.06083.0224 34.27711-3.19454 42.10768-1.70301 3.83176-2.42897 19.51748-1.12834 27.8926.69415 4.58799-.28869 6.41027-1.39078 2.57865z" style="display:inline;fill-opacity:1;fill:#464646;opacity:1;stroke-width:.81192213"/><path id="path6690" d="m319.38673 426.77072c14.49566-10.16198 14.72717-20.61217 15.64209-24.773 3.13138 10.84586-7.53951 21.1955-16.21413 27.36712.0.0-8.71786 5.11336.57207-2.59412z" style="display:inline;fill-opacity:1;fill:#464646;opacity:1;stroke-width:.54454345"/><path id="path6694" d="m321.52065 332.9544c-2.05903-3.27464-4.37521-4.90694-9.29958-8.72674 4.44477.34846 7.65604 3.56602 10.97124 6.19832l1.82153 1.42541 6.81692-2.97831c3.74934-1.63808 5.06232-1.79735 5.29439-1.65028.23212.14707-.36349.7048-3.7002 2.53583-3.33673 1.83101-6.74525 4.03293-7.57451 4.89316-.0888.6477.11575 2.03457.41541 3.72071.16591.93362.36098 1.95899.55152 3.00143.15434.84436.3057 1.69991.43621 2.52698.2261 1.43288.38958 2.78025.39741 3.83576-1.44091-4.86153-5.09204-11.64523-6.13034-14.78227z" style="display:inline;fill-opacity:1;fill:#464646;opacity:1;stroke-width:.76388013"/><path id="path6696" d="m245.75414 329.63952c1.73122-2.10353 9.7846-7.58091 11.14618-7.58091 1.37786.0.10056 1.51296-3.22053 3.81404-6.4979 4.6674-12.169 9.1061-13.77139 15.95889-.28563-4.12454 3.79354-9.65641 5.84574-12.19202z" style="display:inline;fill-opacity:1;fill:#464646;opacity:1;stroke-width:.76388013"/><path id="path6698" d="m263.6315 317.79777c1.01515-1.0408 6.08875-2.46001 6.66873-1.86538.29926.30697-.82203.99005-2.49205 1.51795-3.485 1.10165-5.03832 1.23086-4.17668.34743z" style="display:inline;fill-opacity:1;fill:#464646;opacity:1;stroke-width:.76388013"/><path id="path6700" d="m295.77432 316.22446c-2.37505-.77691-5.28987-1.42386-6.47737-1.43764-1.18752-.0133-2.15914-.29869-2.15914-.63313.0-1.08519 3.84375-.6449 8.45186.96812 7.91792 2.77159 8.07044 3.68221.18473 1.10265z" style="display:inline;fill-opacity:1;fill:#464646;opacity:1;stroke-width:.76388013"/><path id="path6702" d="m235.16568 427.4714c-6.18032-10.24949-6.27902-20.78968-6.6691-24.98634-1.33509 10.93927 3.21452 21.37803 6.91299 27.6028.0.0 3.71692 5.15739-.24389-2.61646z" style="display:inline;fill-opacity:1;fill:#464646;opacity:1;stroke-width:.35709274"/></svg>