<svg viewBox="0 0 560 1e3"><g data-transform="boob" transform="matrix(1.1247504,0,0,1.1247504,-26.347241,-34.609528)" id="g4461" class="scaler_"><path d="m257.56364 238.58033c-.77637.10061-2.22602-2.21636-12.60486 5.0698-9.78469 6.69753-21.31453 10.82141-26.74443 14.7899-.54445.39791-.66828 2.70307-.76291 3.35152-.65836 4.51134-1.66809 9.99655-.19947 14.9545.5788 2.79959 1.92116 5.11459 3.04085 7.21138 2.65234 4.96693 6.04765 7.87695 10.86115 8.57219 4.7315.6834 9.75959.40293 14.8942-1.78424 1.31326-.55941 2.53716-1.25241 3.77099-1.91337 7.49747-4.01638 20.75999-16.61852 25.52001-26.50783.0166-.0345-.0224-.21492-.0231-.24254-74e-5-.0268-.0509-.34934-.0393-.37353.0382-.0796.50413-1.26877.57542-1.23653.008.004-.10474.48804-.10359.53895.001.048-.003.77499-.006.81606 97e-5.0337.0886 1.07634.0902 1.14401.0336 1.36525.6684 3.40988 1.1569 5.30063.0204.0789.0379.15845.0621.23582 2.44132 7.78746 2.56331 16.64058 7.87216 21.29803 9.98489 5.42808 21.85178 4.25951 30.75411-1.03416 14.24159-8.46859 19.00686-29.49472.12112-46.95807-1.24033-1.44425-2.4413-2.70187-3.54079-3.8753-.54013-.5452-1.83893-1.83196-2.8534-2.20434-10.12551-3.71668-41.24782 1.45734-51.84136 2.84712z" class="shadow" id="path4454"/><path d="m244.87584 244.19536c-5.84025 4.87392-21.34013 11.09517-25.80979 13.9564-.39537.25308-.72231 2.6909-.84921 3.07294-.70752 5.13443-.92153 9.56442-.30576 13.2861 1.01337 6.12496 3.33372 10.46932 6.44535 13.29915 2.48992 2.26451 5.53985 3.63861 8.78962 4.08772 10.49581 1.51314 19.86794-2.43574 27.29744-8.48888 4.20537-3.4345 7.18267-7.02269 9.92412-11.02226.12718.41876 1.87124 5.64497 5.46994 10.30596 2.123 2.74967 5.09638 5.02083 8.21123 6.75234.11303.0438.22593.0871.33871.12991 34.5912 13.12294 57.55039-22.51578 31.08151-47.52065-1.21885-1.39111-3.21704-3.61211-4.70157-5.57775-4.03283-3.9461-10.37529-6.39386-15.4685-7.78957-2.68108-.67616-6.99424-.31482-10.32574-.38712-4.64829-.0139-6.38404-.46766-10.58347-.0199-2.89954 1.1462-5.93488 1.41101-8.27798 2.69666-4.67824 2.57439-11.40554 6.75548-14.58925 8.65331-2.80369 1.8768-5.00438 3.40598-6.64665 4.56562z" class="skin boob" id="path4457"/><path d="m272.19169 258.88792c.80943-1.48623 1.35838-4.75934 1.75336-6.96753.0755-.42195.14376 2.11164-.34789 3.72203 2.50484-3.57809 5.36151-7.40366 7.64284-10.60934.11073-.1769-.23631 1.28365 56e-5 1.09001-3.14159 4.2326-6.6203 9.02137-9.04922 12.76484z" class="shadow" id="path4459"/><path d="m266.316 277.68497c-3.25273 3.82974-9.35851 8.59852-13.41279 10.71663 3.65022-1.80961 9.74066-5.92427 13.41279-10.71663z" class="shadow" id="path4459-6"/><path d="m280.90939 287.44404c-3.98965-3.01341-5.43206-5.28109-7.81687-8.98145 1.58306 2.75943 2.85364 5.62046 7.81687 8.98145z" class="shadow" id="path4459-6-7"/><path d="m271.17542 274.53454c-.1115-.31035-.45148-1.34605-.73358-2.0517-.006-.0152-.0175-.029-.0181-.0451-.0145-.3663-.0212-.39065-.039-.67821-.0496.27977-.11583.65362-.11872.68277-.002.0154.007.0305.0108.046.16989.6964.69416 1.73185.89866 2.04632z" class="shadow" id="path4459-6-3"/><path d="m268.85086 274.53764c.2426-.31708.9512-1.21865 1.57005-2.0339-.11824-.0732-.0672-.0958-.1184-.0941-.65369.84522-1.27596 1.80436-1.45178 2.12815z" class="shadow" id="path4459-6-3-8"/></g></svg>