<svg viewBox="0 0 560 1e3"><path id="path2061" d="m301.98242 67.177734c-12.20347.332259-23.65934 8.349861-33.13086 20.320313-3.31663 3.490464-5.9587 7.405345-7.95703 11.761719-.13059.22409-.26906.438534-.39844.664062-.57775 1.007152-.82998 1.740422-.81836 2.255862-3.14983 8.32351-4.19526 18.11863-3.37695 29.45898.38362 6.56457 2.97473 26.80107 3.68555 27.06624.0.0 2.64524-24.75283 5.30518-27.73688.54463-1.37063 1.44856-17.67557 3.08983-22.91293.20619-.65794-.62359 9.71326 1.592 12.44128.24796.30531-.23152-3.50273 1.1551-8.18485.16487-.55672 1.36526-5.35174 3.61179-8.01661 25.07787 5.493 29.14097-.19861 41.03468 6.5216.46935.2652 8.01526 10.80795 7.94641 10.23002-.0876-.73522-2.60553-6.80583-.27405-5.01138.55139.4299 1.1317.86401 1.74218 1.30078.51668.36967 1.05432.74108 1.61524 1.11523.33159.22118-.13377 8.17656-1.967 18.62605-.83158 4.73999 3.71225 11.76093 1.73414 16.3311 9.91968-11.21567 20.3809-32.28499 18.1665-48.77746-2.5-17.299993-2.50078-29.600782-35.80078-36.800782-2.33922-.505386-4.66027-.714823-6.95508-.652344z" class="hair"/><path d="m277.1372 190.50164c11.64629 3.67161 4.48115 22.16072 1.13885 30.26578-10.4098-15.55155-11.29799-25.83273-1.13885-30.26578z" class="hair" id="path2053-5"/></svg>