<svg viewBox="0 0 560 1e3"><path id="path4527-9-9-6-0-4" d="m373.20236 273.08602c-3.78105 51.36502 9.76516 118.90223 12.531 185.2288-32.89181 6.65266-156.08001-14.88078-170.44809-31.88372 4.07427-12.93648-2.87317-35.21075.80143-57.74852 4.87155-29.87911 16.45002-60.53952 15.07527-76.33257-4.75246-59.46686 65.22762-64.13255 133.02224-24.75872z" style="display:inline;fill-opacity:1;fill-rule:evenodd;fill:#000;opacity:1;stroke-dasharray:none;stroke-linecap:butt;stroke-linejoin:miter;stroke-miterlimit:4;stroke-opacity:1;stroke-width:0;stroke:#000"/><path id="path4529-2-2-1-0-9" d="m373.22602 272.81519c-6.37431 49.66799 10.79581 136.77982 10.86806 184.33787-31.15729 6.94181-157.0571-15.87982-167.65947-31.44057 4.08039-12.41018-2.53405-34.61917 1.24621-57.01639 4.99253-29.57969 16.49324-59.79584 15.25304-73.96527-3.65952-28.78802 6.49617-54.94258 15.78942-69.60361 16.42723-4.31228 42.59158.81628 69.06052-25.94442 1.48672 1.12706 18.23182 7.00546 18.7637 8.34782 40.52013.35863 37.21633 51.92961 36.67852 65.28457z" style="display:inline;fill-opacity:1;fill-rule:evenodd;fill:#fff;opacity:1;stroke-dasharray:none;stroke-linecap:butt;stroke-linejoin:miter;stroke-miterlimit:4;stroke-opacity:1;stroke-width:0;stroke:#000"/></svg>