<svg viewBox="0 0 560 1e3"><path d="m300.54311 72.72522c-1.98195.388448-2.68335.985503-5.77636 1.660618-.96739.211153-8.91364.78421-9.8708 1.056902-.94422.269003 3.56921.580581 2.63993.906976-2.03016.713057-2.4875 1.216363-4.40871 2.184512-.69303.349232-8.35996 2.449292-9.03423 2.82943-.72065.406282 3.70904.11042 3.01267.550577-2.5615 1.619065-3.10497 2.446657-5.24424 4.477208-.64359.610879-6.07724 4.218281-6.67393 4.862068-.5839.629974 2.82436-.610593 2.28916.04899-1.76518 2.175441-2.41152 3.41308-3.55909 5.866716-.36856.788012-3.95178 6.087203-4.24745 6.899313-.35947.9874 2.21158-1.28802 1.96717-.26865-.71965 2.41666-.88765 3.74102-1.26849 6.40591-.11492.80413-2.21507 6.46844-2.30086 7.29462-.0877.84426 1.74592-1.80538 1.68784-.93835-.1319 1.9689-.0949 2.65235-.0814 4.7363.0655.61434-.91013 4.91034-.89063 5.61042.0116.41705 1.18755-1.31733 1.18555-.87364-.003.77721-.62965 10.88555-.4776 23.15087.0108.8726-1.19713 8.37369-1.1864 9.24962.0107.87676 1.27141-2.30914 1.28195-1.43635.2521 6.10494-1.9668 10.60218-2.29753 17.3144.007.6415 1.63813-2.20197 1.64421-1.59525.0187 1.86628-.15058 4.63944-.16627 5.42725-.009.4325-1.8295 8.7082-1.84039 9.14896-.008.31202 1.7048-1.79768 1.67437-1.48343-.53962 5.57289-.0159 11.8748.0768 17.26427.007.432-.6868 2.67056-.69855 3.09136-.01.35852.57668-.56887.56687-.21933-.189 6.73278-.27126 11.31291-.28293 11.48951-.0243.36691-1.41902 4.29091-1.44532 4.6647-.0231.32763 1.30083-1.40757 1.27673-1.07537-.24824 3.42306.35784 5.37736.29554 8.83576-.0156.86366-1.69679 8.32736-1.67969 9.16691.0182.89484 1.98754-3.24325 2.05274-2.38814.20397 2.67618 1.54983 5.70403 2.41992 7.73384.0365.0852.8101 5.60827 1.21071 6.36491.29243.55231.15253-3.77094.5375-3.04923 1.37593 2.57947 3.06953 5.73317 3.12617 5.83179.12004-1.52379.1566-3.76169.12774-6.52287-.006-.6016.85932.26751.847.0601-.0393-.66217-.72642-4.83461-.74489-5.54344-.061-2.34021-.31006-3.97352-.39147-7.76648-.0131-.60922.9111.64075.86635.4696-.28453-1.0882-.95451-4.63874-.97965-5.85002-.0468-2.25344-.1179-4.05152-.1688-6.55462-.005-.25895.6053.35307.59999.0918-.007-.36272-.60854-2.19636-.61598-2.56332-.065-3.20427-.0888-5.7045-.15901-9.15938-.007-.36741.51538.52366.50786.15423-.0146-.71746-.60381-3.55991-.61859-4.28413-.54362-26.63788-1.20654-57.46348-1.7113-64.03851-.27607-3.5961 1.4707-10.86301 1.4707-10.86301-.0865-.64073-.97271-15.18027-.97954-15.34081.40007-.10219-8.85908 20.33959-8.93738 27.6806 1.86762-1.95434 3.60797-3.90486 8.25513-8.62641.56362-.57264 3.67933-6.6243 4.22599-7.17553.62125-.62644-1.32991 4.25164-.74781 3.67139 3.15611-3.14611 8.2313-9.25807 8.503-9.18489.26582-.006-2.4877 4.46053-2.4877 4.46053 4.00684-2.49378 7.67144-5.12745 11.46796-7.97994l-2.34655 3.96881c-.13131.22209 8.96267-3.84562 10.2429-4.24271.44905-.13928-2.28259 3.61208-1.92234 3.43651 6.59938-2.26794 8.19335-5.0281 11.52722-8.57188.47679-.4817-.45947 5.58072-.0442 5.0463.50489-.64977 4.02556-7.44523 4.43399-8.17675.3413.65113.94544.81693 1.6964 3.46059.4285 1.50846 1.2811 7.95969 1.78365 9.84237.39405 1.47618.46524-3.65823.88114-2.06135.33249 1.27647 1.05124 8.62922 1.38578 9.92754.25318.9826.74849-5.28623.99746-4.31583.44406 1.73047.21492.86139.62538 2.45891.20848.8114 1.06562 8.76012 1.26035 9.51375.21024.81364.77262-2.98855.96271-2.26142.80046 3.06204.76229 3.05903 1.00653 3.66721.32853.81809.32237 7.8888.60147 8.66552.288.80151.93786-3.73913 1.17754-2.97725.83795 2.66359.94089 3.27055 1.30887 5.57283.16692 1.04436-.22326 7.84581-.12499 8.84445.10699 1.08726 1.80349-4.50203 1.85077-3.44683.14094 3.14511.33223 3.66073.3416 6.92879.001.47751-1.21558 18.67958-2.12817 38.44097-.0342.73989-.84184 6.25493-.87616 6.99834-.034.73533 1.37795-2.23851 1.34392-1.50139-.1405 3.04324-.5782 5.03228-.71659 8.03436-.0355.77071-1.04317 6.31112-1.07833 7.07433-.0411.89101 1.23421-1.6686 1.19379-.7907-.20906 4.54195-.75234 7.55953-.93206 11.49356-.0468 1.02484-.97616 5.2921-1.02011 6.25725-.0234.51301 1.30635-1.1752 1.28388-.68071-.37513 8.25639-1.09116 12.775-1.08358 13.05022.026.94582.7845-2.25787.84406-1.25843.20049 3.36443.59489 4.99064 1.4836 9.27769-.0801-1.10403.89487-4.30296 1.40905-5.85359.25737-.77614.63941 1.65547.67931 1.52366.24315-.80319.75896-5.69087 1.38542-6.34816.72874-1.40551 1.16064-2.30961 1.86886-4.54339.14493-.4571.57666 1.80723.72066 1.31893.22051-.74773.43991-5.21885.65818-6.0362.59382-2.22371.67539-3.76531 1.25147-6.44561.0706-.32868.95743 1.34515 1.0278 1.01032.0618-.29394-.18907-3.52773-.12751-3.82629.502-2.43498.36947-3.13975.85628-5.84935.0932-.51858 1.00077 1.5138 1.09336.98643.0917-.52258-.004-5.48688.0869-6.01769.2888-1.6815.10214-3.01093.38498-4.76677.0269-.16705.74508.7107.77194.54303.0262-.16385-.16629-1.7655-.1401-1.92993.26421-1.65867.057-2.88219.31567-4.59345.0312-.20645.71864.59146.74977.38432.038-.25319-.11146-1.97564-.0735-2.22982 4.94228-33.11985 8.84078-74.47269 10.97649-87.18381.001-.86793 1.2311-7.83575 1.2153-8.67523-.0148-.78351-1.27475 4.55968-1.30515 3.80422-.15725-3.91242-.52882-7.42756-1.16406-10.32624-.18738-.85505-.12404-7.225445-.34019-8.039567-.22816-.859339-.73744 3.839937-.9974 3.026647-.51579-1.613664-1.09393-3.136238-1.73342-4.565948-.37151-.830587-2.08955-6.752425-2.50228-7.51998-.5226-.971889.24774 3.229621-.34024 2.360057-.66401-.982012-3.11945-3.300471-3.86576-4.150061-.47188-.66716-3.08663-6.357112-3.60399-6.988706-.50964-.622182 1.07883 3.813451.52049 3.228122-1.63729-1.716429-4.49372-2.802032-6.62656-4.162305-.63365-.404124-4.8326-4.587608-5.51654-4.956946-.68526-.370048 2.14437 3.074119 1.4056 2.740533-3.07864-1.390135-3.88502-1.522191-8.02844-2.209826-1.17169-.194453-9.28462-2.512531-12.51932-2.667174-1.19735-.119108 2.91894 1.356325 1.70237 1.35266z" id="path4858" class="hair"/><path id="path4842-5-9" class="hair" d="m353.97219 105.96955c.27902.62619.53016 1.2173.74957 1.8069.58225 1.56466.94103 3.11876 1.00444 5.29008.0444 1.52112.27061 3.78123-.34403 5.66433-28.54624.69476-47.27298-18.33261-79.43711-1.79361 6.90345-19.705587 13.84701-40.939771 21.24216-43.215324 1.40717-.432999 2.10885-.76947 3.53965-1.038178.54601-.102541-2.46897-1.208564-1.9201-1.28668.472-.06718 5.22624.874731 5.70013.825809 1.83819-.189768 2.73671-.272802 4.59584-.181471.85835.04217-2.29733-1.791411-1.43639-1.687726.93395.112476 6.83784 2.198946 7.7734 2.385055 1.863.370601 2.60271.575968 4.46319 1.246193.75095.270522-1.8738-2.434135-1.12462-2.113635.77221.330354 6.04328 3.999936 6.81277 4.384111 2.15629 1.076545 2.89397 1.553341 5.01614 3.063457.78447.558224-.96528-2.603378-.18722-1.984399.52618.418607 4.98829 5.413701 5.51117 5.860407 2.4188 2.066421 3.3632 3.122341 5.69366 5.805238.53889.620388-.05-2.617408.48324-1.963234.54394.667338 3.64733 6.539836 4.18497 7.242656 2.17576 2.844175 2.92344 3.855231 4.98039 7.294031.44433.74283.0106-2.812715.44866-2.041522z"/></svg>