<svg viewBox="0 0 560 1e3"><path class="areola" d="m271.54026 376.44844c.0782 1.21363-.39233 3.20481-1.35826 3.28497-.96592.0802-1.48021-1.74966-1.55841-2.96328-.0782-1.21363.42001-3.09486 1.38594-3.17502.96593-.0802 1.45253 1.6397 1.53073 2.85333z" id="path7335-0"/><path id="path7337-5" d="m347.13398 420.49104c-32.75198 14.03698-65.48424 24.91567-80.17912 16.90739-20.83059 4.09365-35.66498-10.43587-40.76678-24.36238 4.26478 15.21833 19.87989 29.19787 40.78057 26.02878 17.15312 7.09449 47.5212-3.15592 80.16533-18.57379z" style="display:inline;fill-opacity:1;fill-rule:nonzero;fill:#000;stroke-dasharray:none;stroke-linecap:butt;stroke-linejoin:miter;stroke-miterlimit:4;stroke-opacity:1;stroke-width:0;stroke:#000"/><path id="path7339-3" d="m356.01926 347.09333c-.21437.0622.19258 1.0796.0585 1.26722-4.55196 6.36982-19.79686 13.94142-22.25581 16.13334 1.7124-2.30461 20.21985-12.75701 21.94736-17.77556z" style="display:inline;fill-opacity:1;fill-rule:nonzero;fill:#000;stroke-dasharray:none;stroke-linecap:butt;stroke-linejoin:miter;stroke-miterlimit:4;stroke-opacity:1;stroke-width:0;stroke:#000"/><path class="areola" d="m271.54026 376.44844c.0782 1.21363-.39233 3.20481-1.35826 3.28497-.96592.0802-1.48021-1.74966-1.55841-2.96328-.0782-1.21363.42001-3.09486 1.38594-3.17502.96593-.0802 1.45253 1.6397 1.53073 2.85333z" id="path5405-7-9-0-3-5"/><path class="areola" d="m271.54026 376.44844c.0782 1.21363-.39233 3.20481-1.35826 3.28497-.96592.0802-1.48021-1.74966-1.55841-2.96328-.0782-1.21363.42001-3.09486 1.38594-3.17502.96593-.0802 1.45253 1.6397 1.53073 2.85333z" id="path5405-7-9-0-4-2-4"/><path id="path4510-8-4-3" d="m372.04335 267.10594c1.53464 47.47488-5.41679 73.52315-6.11166 80.87806 1.95915 5.74033 19.87113 48.27514-1.40023 69.44326-26.83331 14.10151-125.06351 21.80146-141.32919-1.8412-8.74071-26.23179-12.00523-36.75705 9.27149-96.36365-1.3284-14.86921-6.77053-38.48978 2.35981-65.81223 7.67333-35.58769 32.81609-44.18449 52.01014-52.70115 9.24713 11.38115 25.18214 3.12903 31.26177-2.13928.12489 7.20108 48.79561 29.49512 53.93787 68.53619z" style="display:inline;fill-opacity:1;fill-rule:evenodd;fill:#000;opacity:1;stroke-dasharray:none;stroke-linecap:butt;stroke-linejoin:miter;stroke-miterlimit:4;stroke-opacity:1;stroke-width:0;stroke:#000"/><path id="path4512-9-0-5" d="m364.5401 347.81145c1.23702 4.41205 13.93516 35.89251 6.48317 55.08641-21.01719 4.68261-63.9195 19.9336-98.04041 19.74523-17.83513-.0985-33.02433-3.64892-48.37667-12.82336-10.00153-13.85586-8.92106-43.47295 9.20465-90.61118-5.96785-40.25491-7.81391-104.72411 48.29469-116.78925 3.12384-2.05334 5.3098-5.95602 6.93885-10.38042 1.65753 5.04021 26.21695.68309 26.60293.54975 2.99455 5.49381 1.12395 6.57536 6.71301 7.72308 51.82498 10.67434 54.83494 38.37524 49.02452 68.26307.84914 29.59697-2.63162 53.84052-6.84474 79.23667z" style="display:inline;fill-opacity:1;fill-rule:evenodd;fill:#ff80b2;opacity:1;stroke-dasharray:none;stroke-linecap:butt;stroke-linejoin:miter;stroke-miterlimit:4;stroke-opacity:1;stroke-width:0;stroke:#000"/><path style="display:inline;fill-opacity:1;fill:#000;opacity:1;stroke-dasharray:none;stroke-linecap:butt;stroke-linejoin:miter;stroke-miterlimit:4;stroke-opacity:1;stroke-width:0;stroke:#000" d="m288.65067 205.94096c-.008-.17 5.77348-12.05234 5.84504-12.26958.0.0-5.0441-2.25985-5.19628-2.04286-.92463 1.3184-2.65827 4.70639-4.15936 6.60625.1059.25324 3.5106 7.70619 3.5106 7.70619z" id="path4514-0-5-6"/><path style="display:inline;fill-opacity:1;fill:#ff80b2;opacity:1;stroke-dasharray:none;stroke-linecap:butt;stroke-linejoin:miter;stroke-miterlimit:4;stroke-opacity:1;stroke-width:0;stroke:#000" d="m288.66108 203.74098c-.008-.16669 5.35844-10.06772 5.42795-10.28074.0.0-4.89991-2.21585-5.04775-2.00309-.8982 1.29274-2.58228 4.61477-4.04047 6.47765.10291.24831 3.66027 5.80618 3.66027 5.80618z" id="path4516-7-1-1"/><path style="display:inline;fill-opacity:1;fill:#000;opacity:1;stroke-dasharray:none;stroke-linecap:butt;stroke-linejoin:miter;stroke-miterlimit:4;stroke-opacity:1;stroke-width:0;stroke:#000" d="m303.24206 205.47603c.007-.15238-3.99545-11.03492-4.06234-11.22965.0.0 16.62296-2.66894 16.76522-2.47444.86438 1.18176 2.6413 5.37486 3.07583 6.04657-.099.227-15.77871 7.65752-15.77871 7.65752z" id="path4518-2-1-4"/><path style="display:inline;fill-opacity:1;fill:#ff80b2;opacity:1;stroke-dasharray:none;stroke-linecap:butt;stroke-linejoin:miter;stroke-miterlimit:4;stroke-opacity:1;stroke-width:0;stroke:#000" d="m303.64915 204.60393c.007-.14856-3.93866-10.27774-4.00456-10.46759.0.0 15.63782-2.64512 15.77799-2.4555.85164 1.15214 2.60238 5.24014 3.03051 5.89501-.0975.22131-14.80394 7.02808-14.80394 7.02808z" id="path4520-0-3-7"/><path style="display:inline;fill-opacity:1;fill:#000;opacity:1;stroke-dasharray:none;stroke-linecap:butt;stroke-linejoin:miter;stroke-miterlimit:4;stroke-opacity:1;stroke-width:0;stroke:#000" d="m273.98684 423.54376c-.0592-.48233-.33652-4.64526-.38989-5.15269-2.98361-28.36794 3.23892-96.148 23.42151-224.06832l.80611.10099c.43704 13.20785-29.39797 178.30584-22.0674 223.80494.0905.56148.40755 4.77286.50946 5.29741.0.0-1.85534.73859-2.27979.0177z" id="path4522-4-7-1"/><path style="display:inline;fill-opacity:1;fill-rule:nonzero;fill:#f59;opacity:1;stroke-dasharray:none;stroke-linecap:butt;stroke-linejoin:round;stroke-miterlimit:4;stroke-opacity:1;stroke-width:0;stroke:#000" d="m300.87394 220.43307a2.7544847 2.8454499.0 01-2.75448 2.84545 2.7544847 2.8454499.0 01-2.75449-2.84545 2.7544847 2.8454499.0 012.75449-2.84546 2.7544847 2.8454499.0 012.75448 2.84546z" id="path4524-9-3-0"/><path style="display:inline;fill-opacity:1;fill-rule:nonzero;fill:#f59;opacity:1;stroke-dasharray:none;stroke-linecap:butt;stroke-linejoin:round;stroke-miterlimit:4;stroke-opacity:1;stroke-width:0;stroke:#000" d="m297.69369 242.50598a2.7544847 2.8454499.0 01-2.75448 2.84545 2.7544847 2.8454499.0 01-2.75449-2.84545 2.7544847 2.8454499.0 012.75449-2.84546 2.7544847 2.8454499.0 012.75448 2.84546z" id="path4526-8-0-3"/><path style="display:inline;fill-opacity:1;fill-rule:nonzero;fill:#f59;opacity:1;stroke-dasharray:none;stroke-linecap:butt;stroke-linejoin:round;stroke-miterlimit:4;stroke-opacity:1;stroke-width:0;stroke:#000" d="m294.36894 266.99921a2.7544847 2.8454499.0 01-2.75448 2.84545 2.7544847 2.8454499.0 01-2.75449-2.84545 2.7544847 2.8454499.0 012.75449-2.84546 2.7544847 2.8454499.0 012.75448 2.84546z" id="path4528-5-2-2"/><path style="display:inline;fill-opacity:1;fill-rule:nonzero;fill:#f59;opacity:1;stroke-dasharray:none;stroke-linecap:butt;stroke-linejoin:round;stroke-miterlimit:4;stroke-opacity:1;stroke-width:0;stroke:#000" d="m291.12262 291.4949a2.7544847 2.8454499.0 01-2.75448 2.84545 2.7544847 2.8454499.0 01-2.75449-2.84545 2.7544847 2.8454499.0 012.75449-2.84546 2.7544847 2.8454499.0 012.75448 2.84546z" id="path4530-6-7-6"/><path style="display:inline;fill-opacity:1;fill-rule:nonzero;fill:#f59;opacity:1;stroke-dasharray:none;stroke-linecap:butt;stroke-linejoin:round;stroke-miterlimit:4;stroke-opacity:1;stroke-width:0;stroke:#000" d="m288.19248 313.4826a2.7544847 2.8454499.0 01-2.75448 2.84545 2.7544847 2.8454499.0 01-2.75449-2.84545 2.7544847 2.8454499.0 012.75449-2.84546 2.7544847 2.8454499.0 012.75448 2.84546z" id="path4532-6-1-6"/><path style="display:inline;fill-opacity:1;fill-rule:nonzero;fill:#f59;opacity:1;stroke-dasharray:none;stroke-linecap:butt;stroke-linejoin:round;stroke-miterlimit:4;stroke-opacity:1;stroke-width:0;stroke:#000" d="m285.69616 337.78711a2.7544847 2.8454499.0 01-2.75448 2.84545 2.7544847 2.8454499.0 01-2.75449-2.84545 2.7544847 2.8454499.0 012.75449-2.84546 2.7544847 2.8454499.0 012.75448 2.84546z" id="path4534-8-1-8"/><path style="display:inline;fill-opacity:1;fill-rule:nonzero;fill:#f59;opacity:1;stroke-dasharray:none;stroke-linecap:butt;stroke-linejoin:round;stroke-miterlimit:4;stroke-opacity:1;stroke-width:0;stroke:#000" d="m283.59261 360.44517a2.7544847 2.8454499.0 01-2.75448 2.84545 2.7544847 2.8454499.0 01-2.75449-2.84545 2.7544847 2.8454499.0 012.75449-2.84546 2.7544847 2.8454499.0 012.75448 2.84546z" id="path4536-5-7-9"/><path style="display:inline;fill-opacity:1;fill-rule:nonzero;fill:#f59;opacity:1;stroke-dasharray:none;stroke-linecap:butt;stroke-linejoin:round;stroke-miterlimit:4;stroke-opacity:1;stroke-width:0;stroke:#000" d="m282.01878 380.39507a2.7544847 2.8454499.0 01-2.75448 2.84545 2.7544847 2.8454499.0 01-2.75449-2.84545 2.7544847 2.8454499.0 012.75449-2.84546 2.7544847 2.8454499.0 012.75448 2.84546z" id="path4538-4-4-4"/><path style="display:inline;fill-opacity:1;fill-rule:nonzero;fill:#f59;opacity:1;stroke-dasharray:none;stroke-linecap:butt;stroke-linejoin:round;stroke-miterlimit:4;stroke-opacity:1;stroke-width:0;stroke:#000" d="m281.0045 400.49998a2.7544847 2.8454499.0 01-2.75448 2.84545 2.7544847 2.8454499.0 01-2.75449-2.84545 2.7544847 2.8454499.0 012.75449-2.84546 2.7544847 2.8454499.0 012.75448 2.84546z" id="path4548-1-8-1"/><path style="display:inline;fill-opacity:1;fill-rule:evenodd;fill:#000;opacity:1;stroke-dasharray:none;stroke-linecap:butt;stroke-linejoin:miter;stroke-miterlimit:4;stroke-opacity:1;stroke-width:0;stroke:#000" d="m369.45241 403.33899c1.35149 1.92814-5.44122 14.63033-5.44122 14.63033-53.94079 21.92802-100.22913 40.99506-143.69476 3.64733.33144-3.18682 2.66597-11.40942 2.66597-11.40942 41.95471 21.91078 82.42577 12.02961 146.47001-6.86824z" id="path4455-8-9-5-7-7-3"/><path style="display:inline;fill-opacity:1;fill-rule:evenodd;fill:#4b3832;opacity:1;stroke-dasharray:none;stroke-linecap:butt;stroke-linejoin:miter;stroke-miterlimit:4;stroke-opacity:1;stroke-width:0;stroke:#000" d="m370.76688 404.38658c1.17822 3.37561-7.11312 12.33968-7.11312 12.33968-85.80271 36.72318-107.52245 28.06752-142.09232 4.1991-.66293.32662 2.57001-9.83425 2.57001-9.83425 43.77304 25.59125 83.69618 10.23748 146.63543-6.70453z" id="path4455-4-4-0-8-6"/><path style="display:inline;fill-opacity:1;fill-rule:nonzero;fill:#4b3832;opacity:1;stroke-dasharray:none;stroke-linecap:butt;stroke-linejoin:round;stroke-miterlimit:4;stroke-opacity:1;stroke-width:0;stroke:#000" d="m298.54058 193.96049c-.22272 1.55564-1.26393 2.69352-2.32564 2.54152-1.0617-.152-1.74184-1.53631-1.51913-3.09195.22271-1.55565 1.04263-1.58873 2.10434-1.43673 1.0617.15199 1.96314.43152 1.74043 1.98716z" id="path4439-9-13-9-0-1"/><path style="display:inline;fill-opacity:1;fill-rule:nonzero;fill:#4b3832;opacity:1;stroke-dasharray:none;stroke-linecap:butt;stroke-linejoin:round;stroke-miterlimit:4;stroke-opacity:1;stroke-width:0;stroke:#000" d="m315.52612 189.11398c.0576.35127-.11316.34643-.66436.47653-4.13467.97592-17.40139 4.51357-18.29818 4.38518-.86595-.12398-5.38498-3.42227-7.04422-4.25831-.37635-.18963-.60041-.20129-.54402-.51681.0646-.26175.2988-.17142.69799-.048 1.91722.59277 6.06641 3.39796 6.92304 3.52059.89428.12802 14.05544-3.42019 18.19736-3.77375.46783-.0399.72918-.0739.73239.21455z" id="path4439-9-1-2-7-7-2"/><path style="display:inline;fill-opacity:1;fill-rule:nonzero;fill:#4b3832;opacity:1;stroke-dasharray:none;stroke-linecap:butt;stroke-linejoin:round;stroke-miterlimit:4;stroke-opacity:1;stroke-width:0;stroke:#000" d="m297.69274 194.11892c-.046.62756-.16377 18.44531-1.03291 19.12038-.72098.55998.46004-18.50374-.40011-17.30381-.28279.3945-3.553 16.71952-3.93136 16.52557-.63911-.69387 2.65063-19.02289 3.71234-18.87089 1.0617.15199 1.63168-.31979 1.65204.52875z" id="path4439-9-1-5-0-8-3-3"/></svg>