<svg viewBox="0 0 560 1e3"><path d="m293.50179 79.971631c1.38083-.222479 18.80847-5.700711 20.19181-5.911133 1.09335-.166359-6.61549 4.490664-5.66781 3.979911.19613-.105717 1.32396-.380656 1.32396-.380656 1.25864-.28255 9.85878-3.193614 15.61086-5.681659 2.435-1.053263 3.38932-.14422 3.37875.192709-.12011 3.818037-5.9239 4.146576-4.66111 3.985956 4.38358-.557523 1.95309-.573235 6.11236-1.098547 17.83614-2.252706 27.26191-15.123128 27.25827-14.971812-.15225 6.335211-11.48172 18.913525-11.73072 19.30919-.14315.227562 22.91598-5.548488 45.22551-.07615.13325.03267-22.52993.910144-37.5438 4.868981-10.86047 2.863669-9.63555 2.948397-9.67989 3.043198-.0946.202046 10.58136 2.784203 22.24368 13.524741.0445.0411-9.96874-4.448946-15.51804-5.416884-7.91455-1.380552-12.45439.68002-14.53817 1.454299-28.08791-1.335571-34.58089-14.870599-42.00566-16.822154z" class="hair" id="path1814"/><path d="m304.677 59.336619c1.18931.70916 18.19137 7.746864 19.37353 8.466239.93436.568528-8.25237-.944429-7.16907-.714196.22422.04766 1.26512.560081 1.26512.560081 1.14355.589272 9.68859 3.913463 15.80735 5.749267 2.59021.777147 6.73152.786595 6.47237 1.021267-2.93679 2.659298-11.59524.48605-10.53955 1.16527 3.66457 2.35785 1.875.817855 5.34934 3.057695 14.89889 9.605031 31.48437 6.314789 31.36881 6.420883-4.83813 4.442093-22.61663 6.325684-23.09629 6.452478-.27581.07301 21.12196 10.439447 33.57417 28.391507.0743.10713-17.37617-13.51902-31.45606-20.126824-10.1848-4.779832-9.34021-3.948694-9.44376-3.908679-.22069.0853 5.76529 8.649763 6.39721 23.678453.002.0573-4.0696-9.45687-7.46029-13.64061-4.83586-5.966965-9.73738-7.346499-11.85919-8.102534C303.44045 79.183453 308.72397 65.40453 304.677 59.336619z" class="hair" id="path1816"/><path d="m324.4025 52.18588c.45579 1.307528 8.96336 17.623793 9.4071 18.934556.35076 1.035964-5.71719-6.02555-5.03495-5.153139.1412.18057.60965 1.24199.60965 1.24199.49772 1.186248 4.9103 9.223484 8.4198 14.561358 1.48564 2.259649 4.65314 4.927515 4.30378 4.940854-3.95901.151103-9.19793-7.077008-8.82531-5.878273 1.29341 4.161209.91142 1.831359 2.13487 5.779909 5.24647 16.932475 20.07008 25.066595 19.91337 25.073655-3.75182.16911-10.20841-3.02099-15.1339-5.82346-3.68854-2.09868-.8524-.91653-1.04468-1.00688-.25824-.12134 9.30841-3.87097-1.74074 39.71218-.75375-21.24837-3.1097-13.44126-11.66957-20.95457-4.73397-10.2062-.56299-23.15354-.66806-23.18941-.22391-.0764-1.13906 10.33246-10.31014 22.25522-.0351.0455 2.95704-9.86153 3.04658-15.24601.12772-7.679436-2.74211-11.885638-3.88237-13.82818-3.22382-27.005225 9.67746-34.169827 10.47457-41.4198z" class="hair" id="path1859-6"/><path style="display:inline;fill:#fac;opacity:1;stroke-width:1.20228708" d="M332.42003 102.13774c-17.85053 14.77699-45.55723-11.222111-22.71284-33.147599 23.27061-10.934159 40.09511 16.610586 22.71284 33.147599z" id="path1818"/><path d="m305.87891 66.603516c-7.13671-.023-14.51544 2.031413-21.09384 5.605911-1.78686.970929-3.51468 2.054011-5.16256 3.238077-1.86907 1.343006-3.63531 2.815927-5.26822 4.402463-10.81186 11.773314-14.53675 20.173293-16.54744 33.297363-.0752.63795 2.33235-3.78973 2.2727-3.13914-.25946 2.82961-.62071 5.05948-.60218 8.12267.0655.65721-.91013 5.25301-.89063 6.00195.0116.44615 1.0313-2.98051 1.0293-2.50586-.007 1.77104-.6266 4.35883-.7544 6.42724-.0243.39252-1.41902 4.59036-1.44532 4.99023-.0231.3505 1.32293-2.87686 1.29883-2.52148-.24824 3.66194-1.14817 6.9668-1.21047 10.66655-.0156.92393-.50929 8.93975-.49219 9.83789.0182.95728 1.73754-5.17456 1.80274-4.25977.20397 2.86294 3.51703 17.09382 3.83045 19.41203.72091 5.33284 14.15518 29.10993 14.24938 29.28538-3.24952-14.76402-12.15538-39.00842-13.15678-52.96307-.27607-3.84705 1.4707-11.62109 1.4707-11.62109.63621-1.92837 4.34426-11.9496 5.53907-14.85355.0.0-7.29488 2.27547-8.59773 5.57082-1.33046 3.36514-6.18764 21.26429-6.02044 21.17527.27322-.0922 13.17168-24.21795 16.17833-29.03792 2.76159-4.42712 5.23488-12.50423 5.49864-12.50805.0918.86336-2.01045 11.66149 8.09135 22.0917.17335.17899-3.63097-6.5043-4.52662-9.45791-.8655-2.85422-1.06458-5.90076-.94373-5.66873 2.70524 5.19409 7.69152 11.95684 15.84689 16.27191-4.71436-4.58635-10.72319-10.16438-12.087-13.97695 5.34851 6.16641 14.99536 13.70931 27.67657 21.11632-2.65485-2.82258-16.13173-24.81232-15.72544-29.1812.77613.74536 5.8744 13.94993 15.63169 24.25432.11258.11889-2.59136-5.36291-3.46274-8.05041-1.61518-4.98151-1.95172-8.73846-1.81565-8.4565 2.20421 4.56747 7.53403 12.02778 11.14555 22.98722 4.40638 13.37154 7.20501 31.00183 10.55074 43.0394 6.21396-25.10921 2.30715-61.55262-.57778-65.59141-.54075-.75703-14.4415-.54126-14.25502-.5006 3.23858 3.83679 3.06731 7.05789 3.35332 8.89338 2.33945 35.84046-12.11821 61.56993-16.28369 78.6673 16.47535-16.66719 34.15465-52.925 38.01807-74.49543 10.49937-28.060589.42437-37.407169-1.68359-41.134764-5.27966-7.985402-13.25637-13.670675-27.25782-15.236328-1.19735-.127421-2.40647-.191391-3.62304-.195312z" id="path1820" class="hair"/></svg>