<svg viewBox="0 0 560 1e3"><g data-transform="belly" id="g5471"><path id="path5463" class="steel_piercing" d="m270.04326 377.58154c-.37776.0-.75552 2.4-.60442 4.4.1511 1.3.45331 3 .90662 3 .30221.0.52887-1.8.60442-3-.0755-2-.52886-4.4-.90662-4.4z"/><path id="path5465" class="steel_piercing" d="m270.22843 384.12227c-.5.0-1 2.4-.8 4.4.2 1.3.60001 3 1.2 3 .40001.0.69999-1.8.8-3-.10001-2-.7-4.4-1.2-4.4z"/><path id="path5467" class="steel_piercing" d="m270.47197 390.66302c-.54584.0-1.09168 2.4-.87334 4.4.21834 1.3.65501 3 1.31002 3 .43667.0.76418-1.8.87334-3-.10916-2-.76418-4.4-1.31002-4.4z"/><path id="path5469" class="steel_piercing" d="m270.79136 397.54764c-.98896.0-1.97793 2.4-1.58234 4.4.39558 1.3.468-1.96875 1.65475-1.96875.79117.0 2.1033 3.16875 2.30109 1.96875-.19779-2-1.38454-4.4-2.3735-4.4z"/></g></svg>