<svg viewBox="0 0 560 1e3"><g data-transform="art" id="Penis_6_Original" style="display:none;opacity:1"><path d="m205.5753 435.80646c.39633-.16461 1.03811.0301 1.40603-.13739 17.5085-7.97201 3.01915-19.44343-1.34358-18.89474-11.77355 4.1288-7.24455 15.8015-3.40854 16.44477.0551.0399.45797 1.02376 3.34607 2.58736z" id="path8078" style="fill:#000"/><path d="m202.41304 431.94734c6.27574 3.75771 13.61673-1.9736 13.5483-5.18238-1.83245-5.20067-5.5954-9.85666-10.78708-8.84611-8.11212 3.15436-8.22762 9.5392-4.2957 14.40041.38545.29595.88682-.22726 1.53448-.37192z" id="path8080" class="areola"/><path d="m243.08014 462.70687c16.44894 4.58311 33.02426 9.89343 38.70775-4.35157 1.75387-4.92581.62779-8.41108-2.88499-9.68893-14.50143-4.52594-45.36166-17.78534-54.37911-26.267-1.24501-1.90615-1.03553-2.18079-2.30198-3.48905-2.68496-2.77358-6.13663-2.49056-8.95765-2.33617-1.70004.093-6.19356-.43003-7.5582.11341-1.14633.45656-2.04092 1.10418-2.69311 1.93038-.20278.25683 1.34693-.56113 1.49235-.67075 4.09513-3.08597 20.45531 9.89443 2.22117 17.49634-1.68794.70371-6.85874-4.548-6.81266-4.36889.29497 1.14655 2.26401 2.95143 3.99669 4.10638 1.03458.6896 2.21169.94759 2.63088 1.6878 5.03904 8.89835 16.14899 18.66874 36.53886 25.83782z" id="path8082" style="fill:#000"/><path d="m200.97133 427.91706c.0892.65307.89407 1.97683 1.76483 2.2154-.008-.0323-.21407-1.15932-.2224-1.19358-.28168-1.1573-1.52808-4.56453.50539-8.38867-2.04567 2.31538-2.41483 4.60792-2.04782 7.36685z" id="path8084" style="fill:#000"/><path d="m243.97522 461.86714c16.29508 4.54026 31.95435 10.79179 38.33091-3.28142 1.73746-4.87972 1.62876-7.65553-1.85117-8.92144-15.11926-3.62216-47.02673-17.35384-55.95985-25.75617-1.23334-1.88834-1.02583-2.16041-2.28045-3.45642-2.65985-2.74765-4.99671-3.40926-7.79132-3.25631-1.68416.0922-5.9281-.17621-7.37053.0537.40732.24167 1.73694.13338 3.49788 1.34957 2.56951 1.77463 5.24997 4.78484 5.43091 7.94632.23473 4.10179-6.50213 9.95812-13.45116 5.95733-.3478-.20022-.91349.18406-1.15641.2676-.27855.18551 6.53331 4.2172 6.38927 4.53041 4.99189 8.81513 16.01271 17.46469 36.21188 24.56669z" class="skin penis" id="path8086"/></g><g data-transform="art" style="display:none;opacity:1" id="Penis_5_Original"><path id="path8066" d="m212.57016 438.53563c.34984-.1453.91633.0266 1.24109-.12127 15.45462-7.03683 2.66498-17.16257-1.18597-16.67824-10.39242 3.64446-6.39471 13.94786-3.00869 14.51567.0486.0352.40425.90367 2.95355 2.28384z" style="fill:#000"/><path id="path8068" d="m209.77886 435.12922c5.53954 3.3169 12.01938-1.74208 11.95898-4.57445-1.61749-4.59059-4.93902-8.7004-9.52168-7.80839-7.1605 2.78433-7.26245 8.42018-3.79178 12.71113.34024.26123.78279-.2006 1.35448-.32829z" class="areola"/><path id="path8070" d="m245.6754 462.28042c14.51935 4.04548 29.15026 8.73286 34.16703-3.8411 1.54813-4.34797.55415-7.42439-2.54656-8.55234-12.8003-3.99501-40.04039-15.69899-48.00002-23.18568-1.09896-1.68255-.91406-1.92497-2.03194-3.07976-2.37-2.44822-5.41676-2.1984-7.90685-2.06212-1.50062.0821-5.46701-.37958-6.67157.10011-1.01186.403-1.8015.97465-2.37719 1.70393-.17899.2267 1.18893-.49531 1.31729-.59207 3.61474-2.72396 18.05575 8.73374 1.96061 15.44389-1.48993.62116-6.05416-4.01449-6.01348-3.85639.26036 1.01205 1.99842 2.60521 3.52784 3.62467.91322.60871 1.95225.83643 2.32226 1.48981 4.44792 7.85451 14.25459 16.47876 32.25258 22.80685z" style="fill:#000"/><path id="path8072" d="m208.50627 431.57172c.0787.57646.78919 1.74493 1.5578 1.95552-.007-.0285-.18896-1.02333-.19631-1.05357-.24864-1.02154-1.34882-4.02907.4461-7.40461-1.80569 2.04377-2.13155 4.06737-1.80759 6.50266z" style="fill:#000"/><path id="path8074" class="skin penis" d="m246.47254 461.54455c14.38354 4.00765 28.20586 9.52584 33.83441-2.89648 1.53363-4.3073 1.43769-6.75748-1.63403-7.87489-13.34565-3.19726-41.51012-15.31811-49.39532-22.73478-1.08866-1.66683-.9055-1.90697-2.01294-3.05095-2.34782-2.42533-4.41055-3.00933-6.87734-2.87431-1.48659.0814-5.23268-.15554-6.5059.0474.35953.21332 1.53317.11773 3.08754 1.19126 2.26809 1.56645 4.6341 4.22354 4.79383 7.01415.2072 3.62062-5.73938 8.78996-11.87324 5.25849-.30699-.17673-.80633.16247-1.02076.23621-.24587.16375 5.76691 3.72248 5.63977 3.99896 4.4063 7.78104 14.13429 15.41596 31.96395 21.68483z"/></g><g data-transform="art" id="Penis_4_Original" style="display:none;opacity:1"><path d="m219.64496 441.38095c.30335-.12599.79455.0231 1.07615-.10515 13.40073-6.10165 2.31081-14.88169-1.02835-14.46173-9.01129 3.16012-5.54487 12.09421-2.60884 12.58656.0421.0305.35052.78358 2.56102 1.98032z" id="path7829" style="fill:#000"/><path d="m217.22462 438.42725c4.80334 2.87609 10.42202-1.51056 10.36965-3.96651-1.40253-3.98051-4.28263-7.54413-8.25626-6.77067-6.20888 2.4143-6.29728 7.30115-3.28786 11.02184.29502.22651.67876-.17394 1.17447-.28466z" id="path7831" class="areola"/><path d="m248.35056 461.9701c12.58975 3.50784 25.27624 7.57227 29.62629-3.33063 1.34238-3.77013.4805-6.4377-2.20813-7.41574-11.09916-3.46408-34.71908-13.61262-41.62089-20.10434-.95291-1.45894-.79258-1.66915-1.7619-2.67047-2.05503-2.12285-4.69688-1.90623-6.85604-1.78806-1.30119.0712-4.74045-.32914-5.78493.0868-.87738.34944-1.56208.84512-2.06126 1.47748-.1552.19657 1.03092-.42948 1.14222-.51338 3.13435-2.36195 15.65617 7.57304 1.70005 13.39142-1.29192.53861-5.24957-3.48097-5.2143-3.34388.22576.87755 1.73284 2.25898 3.059 3.14295.79185.52782 1.6928.72527 2.01363 1.29182 3.8568 6.81066 12.36018 14.28876 27.96626 19.77585z" id="path7833" style="fill:#000"/><path d="m216.12116 435.34254c.0682.49985.6843 1.51303 1.35077 1.69563-.006-.0247-.16385-.88733-.17022-.91355-.2156-.88578-1.16957-3.49361.38681-6.42055-1.56572 1.77216-1.84827 3.52682-1.56736 5.63847z" id="path7835" style="fill:#000"/><path d="m249.0499 461.33828c12.47198 3.47504 24.45734 8.25986 29.33786-2.51155 1.32983-3.73487 1.24663-5.85943-1.41686-6.82834-11.57203-2.77234-35.99349-13.28235-42.83076-19.71335-.94398-1.4453-.78516-1.65354-1.74542-2.64549-2.0358-2.103-3.8244-2.60938-5.96336-2.49232-1.28902.0705-4.53726-.13487-5.64127.0411.31175.18497 1.32941.10208 2.67722 1.03294 1.96666 1.35827 4.01823 3.66222 4.15673 6.08198.17966 3.13944-4.97663 7.62179-10.29531 4.55964-.26619-.15324-.69917.14088-.8851.20482-.21319.14199 5.00049 3.22778 4.89025 3.4675 3.82072 6.74696 12.25587 13.36721 27.71599 18.80296z" class="skin penis" id="path7837"/></g><g data-transform="art" style="display:none;opacity:1" id="Penis_3_Original"><path id="path8018" d="m226.76483 444.17259c.25685-.10668.67277.0196.91121-.089 11.34687-5.16648 1.95664-12.60085-.87074-12.24525-7.63017 2.67578-4.69504 10.24059-2.209 10.65748.0357.0258.2968.66348 2.16851 1.6768z" style="fill:#000"/><path id="path8020" d="m224.71544 441.67159c4.06716 2.43529 8.82469-1.27904 8.78034-3.35858-1.18757-3.37044-3.62625-6.38788-6.99086-5.73296-5.25728 2.04427-5.33213 6.18214-2.78395 9.33257.24981.1918.57473-.14728.99447-.24103z" class="areola"/><path id="path8022" d="m251.07086 461.60615c10.66018 2.97021 21.40228 6.4117 25.08562-2.82016 1.13664-3.19231.40685-5.45103-1.8697-6.27917-9.39805-2.93316-29.39786-11.52628-35.24187-17.02305-.80686-1.23533-.6711-1.41333-1.49186-2.26118-1.74007-1.79749-3.97701-1.61407-5.80525-1.51401-1.10176.0603-4.0139-.2787-4.8983.0735-.74291.29589-1.32267.7156-1.74534 1.25104-.13141.16644.87291-.36366.96716-.4347 2.65396-1.99994 13.25662 6.41236 1.43949 11.33899-1.09392.45606-4.445-2.94746-4.41513-2.83138.19116.74305 1.46725 1.91275 2.59016 2.66124.67049.44692 1.43335.61411 1.70501 1.09383 3.26569 5.76682 10.4658 12.09879 23.68001 16.7449z" style="fill:#000"/><path id="path8024" d="m223.7811 439.05966c.0577.42324.57942 1.28114 1.14375 1.43575-.005-.0209-.13874-.75133-.14414-.77354-.18255-.75002-.99031-2.95816.32753-5.4365-1.32575 1.50055-1.565 2.98628-1.32714 4.77429z" style="fill:#000"/><path id="path8026" class="skin penis" d="m251.67247 461.07827c10.56045 2.94245 20.70888 6.99392 24.84139-2.1266 1.12601-3.16245 1.05557-4.96139-1.1997-5.78179-9.79845-2.34744-30.47696-11.24663-36.2663-16.69199-.7993-1.22378-.66483-1.40011-1.47792-2.24004-1.72377-1.78068-3.23826-2.20944-5.04938-2.11033-1.09146.0597-3.84185-.1142-4.77667.0348.26398.15661 1.12566.0865 2.2669.87462 1.66525 1.1501 3.40238 3.10094 3.51965 5.14983.15212 2.65828-4.21389 6.45364-8.71739 3.8608-.2254-.12976-.59201.11929-.74945.17343-.18052.12022 4.23409 2.73307 4.14074 2.93606 3.23514 5.71289 10.37748 11.31848 23.4681 15.92111z"/></g><g data-transform="art" id="Penis_2_Original" style="display:none;opacity:1"><path d="m234.25969 446.77676c.21036-.0874.55099.0161.74627-.0729 9.29299-4.2313 1.60247-10.31998-.71313-10.02875-6.24904 2.19144-3.8452 8.38695-1.80915 8.72838.0292.0211.24308.54339 1.77599 1.37329z" id="path8030" style="fill:#000"/><path d="m232.58126 444.72847c3.33096 1.99448 7.22734-1.04753 7.19102-2.75065-.97261-2.76036-2.96987-5.23162-5.72546-4.69525-4.30566 1.67424-4.36696 5.06312-2.28003 7.6433.20459.15708.4707-.12062.81447-.1974z" id="path8032" class="areola"/><path d="m254.16612 461.0547c8.73059 2.43258 17.52828 5.25113 20.54491-2.30969.9309-2.61447.3332-4.46434-1.53127-5.14258-7.69692-2.40224-24.0766-9.43993-28.86279-13.94174-.66081-1.01172-.54963-1.1575-1.22182-1.85188-1.4251-1.47213-3.25714-1.32191-4.75445-1.23996-.90233.0494-3.28735-.22826-4.01167.0602-.60843.24233-1.08325.58607-1.42942 1.02459-.10762.13632.71491-.29783.7921-.35601 2.17357-1.63794 10.85706 5.25167 1.17893 9.28653-.89591.37351-3.64042-2.41394-3.61595-2.31887.15655.60855 1.20166 1.56652 2.12131 2.17953.54913.36602 1.17391.50295 1.39639.89584 2.67458 4.72297 8.5714 9.9088 19.39373 13.71393z" id="path8034" style="fill:#000"/><path d="m231.81604 442.58932c.0473.34663.47454 1.04924.93672 1.17586-.004-.0171-.11363-.61533-.11805-.63352-.14951-.61426-.81105-2.42271.26824-4.45244-1.08577 1.22893-1.28172 2.44573-1.08691 3.9101z" id="path8036" style="fill:#000"/><path d="m254.67058 460.63048c8.64894 2.40985 16.96041 5.72797 20.3449-1.74165.92218-2.59002.86449-4.06335-.98255-4.73526-8.02485-1.92253-24.96037-9.21089-29.70179-13.67058-.65462-1.00228-.54449-1.14669-1.2104-1.83458-1.41176-1.45835-2.65211-1.80951-4.1354-1.72834-.8939.0488-3.14645-.0936-3.91205.0285.2162.12827.9219.0709 1.85657.71631 1.36382.94192 2.78651 2.53965 2.88256 4.21766.12459 2.17711-3.45114 5.28548-7.13947 3.16197-.1846-.10626-.48486.0977-.61379.14205-.14784.0985 3.46768 2.23835 3.39123 2.4046 2.64955 4.67879 8.49907 9.26973 19.22017 13.03925z" class="skin penis" id="path8038"/></g><g data-transform="art" style="display:none;opacity:1" id="Penis_1_Original"><path id="path8042" d="m241.26312 449.05511c.16387-.0681.42921.0125.58133-.0568 7.23911-3.29612 1.24831-8.03913-.55552-7.81226-4.86791 1.7071-2.99535 6.53331-1.4093 6.79929.0228.0164.18936.42329 1.38348 1.06977z" style="fill:#000"/><path id="path8044" d="m239.95564 447.45952c2.59477 1.55367 5.63-.81601 5.60171-2.14272-.75765-2.15028-2.31349-4.07536-4.46006-3.65754-3.35405 1.30422-3.40179 3.9441-1.77611 5.95402.15937.12237.36667-.0939.63446-.15376z" class="areola"/><path id="path8046" d="m256.76995 460.17742c6.80101 1.89494 13.65428 4.09056 16.0042-1.79922.72515-2.03663.25955-3.47765-1.19284-4.00599-5.9958-1.87132-18.75534-7.35357-22.48371-10.86042-.51477-.78812-.42816-.90168-.95178-1.44259-1.11013-1.14677-2.53727-1.02975-3.70365-.96591-.70291.0385-2.56081-.17782-3.12504.0469-.47396.18876-.84384.45653-1.11349.79813-.0838.1062.5569-.23201.61703-.27732 1.69318-1.27594 8.45749 4.09097.91837 7.23407-.69791.29096-2.83584-1.88042-2.81678-1.80636.12195.47405.93608 1.22029 1.65248 1.69782.42776.28512.91445.39179 1.08776.69785 2.08346 3.67912 6.677 7.71882 15.10745 10.68296z" style="fill:#000"/><path id="path8048" d="m239.35954 445.79315c.0369.27001.36967.81735.7297.91598-.003-.0133-.0885-.47933-.092-.4935-.11646-.47851-.63179-1.88727.20895-3.4684-.84579.95732-.99844 1.9052-.84669 3.04592z" style="fill:#000"/><path id="path8050" class="skin penis" d="m257.1765 459.85636c6.7374 1.87723 13.2119 4.46201 15.84838-1.35675.71837-2.01758.67342-3.16527-.76539-3.68868-6.25125-1.49762-19.44377-7.17514-23.13728-10.64919-.50994-.78076-.42415-.89326-.94289-1.42911-1.09974-1.13604-2.06595-1.40958-3.22141-1.34636-.69634.038-2.45104-.0729-3.04743.0222.16841.1.71816.0551 1.44624.558 1.06239.73375 2.17065 1.97835 2.24547 3.2855.0971 1.69593-2.68839 4.11731-5.56154 2.46312-.1438-.0829-.3777.0761-.47814.11064-.11516.0768 2.70127 1.74365 2.64173 1.87316 2.06395 3.64473 6.62064 7.22099 14.97224 10.15741z"/></g><g data-transform="art" id="Penis_Alt_Low" style="display:none"><path d="m226.61405 487.58313c3.68258-11.04469-10.19837-11.78155-10.0793-7.91427-1.45472 9.77651 8.7954 10.61058 10.0793 7.91427z" id="XMLID_885_-0-28" style="fill:#000"/><path d="m226.25878 486.96497c3.26472-9.7915-9.04122-10.44476-8.93566-7.01628-1.28967 8.66721 7.79743 9.40664 8.93566 7.01628z" id="XMLID_885_-0" style="fill-opacity:1;fill:#daa595"/><path d="m260.99716 470.70612c8.97273-9.50247 18.48295-18.83104 10.86544-27.76242-2.70952-2.94523-5.47126-3.42639-7.58997-1.50379-8.23909 8.20418-28.22902 24.36884-37.18976 27.44823-1.73494.16284-1.84616-.077-3.18391.31372-2.8361.82834-3.87611 3.26652-4.77818 5.23176-.54362 1.18434-2.50121 4.04032-2.62016 5.15827-.0999.93911.0194 1.77593.34611 2.51236.10155.22894.0116-1.61585.0384-1.75256.67703-3.46875 10.11859-2.98154 9.39028 5.4513-.12041 1.39451-2.23747 2.81199-2.09975 2.8447.8816.20939 2.80633-.47985 4.20662-1.24096.83611-.45446 1.43082-1.15946 2.08161-1.17916 7.82329-.23684 18.40332-4.27324 30.53327-15.52145z" id="XMLID_885_-1" style="fill:#000"/><path d="m219.48097 484.11977c-.44566.93458-.13092 1.88191.19574 2.67609.13669.33234.99783.92529 1.56732.92419-.009-.0156-.39771-.54203-.40713-.55894-.3186-.57106-1.25496-1.8606-1.3559-3.04135z" id="XMLID_885_-0-2" style="fill:#000"/><path d="m260.49495 469.86003c8.83376-9.35529 18.59361-17.67588 11.38466-26.95742-2.66756-2.89962-4.57402-3.81083-6.65992-1.918-7.79898 8.88961-28.3543 25.4914-37.17625 28.5231-1.70807.16032-1.81757-.0758-3.1346.30886-2.79217.81551-4.06607 2.15343-4.95417 4.08823-.5352 1.166-2.45493 4.01558-2.72321 5.08943-.23098.92456-.3676 2.07987-.046 2.8049.1.22539.54173-1.93333.56813-2.06792.66655-3.41503 9.59204-2.65255 8.87501 5.64968-.11854 1.37291-1.83298 2.48563-1.69739 2.51783.86794.20615 2.76286-.47242 4.14146-1.22174.82316-.44742 1.40866-1.1415 2.04937-1.1609 7.70212-.23317 17.43079-4.58205 29.37286-15.65605z" class="skin penis" id="XMLID_885_-1-9"/></g><g data-transform="art" style="display:none" id="Penis_Alt_High_Circ"><path id="path7882" d="m216.02104 430.77435c.30335-.12599.79454.0231 1.07615-.10515 5.23904-2.38545 13.01609-4.68027 12.69524-7.17468-.49985-3.88595-11.68988-7.54283-13.72359-7.28705-9.01129 3.16012-5.54487 12.09421-2.60884 12.58656.0421.0305.35052.78358 2.56102 1.98032z" style="fill:#000"/><path id="path7884" d="m215.49133 430.2269c.33299.19938.63571.3419.92307.43644 1.42348.46831 2.46982-.2407 4.94954-1.04624 4.24051-1.37754 8.51499-5.95586 8.48424-7.39814-.73019-2.07234-1.33269-4.73751-4.33712-5.60574-2.76643-.79945-7.89209.0995-9.79697.47025-6.20888 2.4143-6.26603 7.30115-3.25661 11.02184.29502.22651 2.53814 2.23231 3.03385 2.12159z" style="fill-opacity:1;fill:#daa595"/><path id="path7886" d="m244.72664 451.3635c12.58975 3.50784 25.27624 7.57227 29.62629-3.33063 1.34238-3.77013.4805-6.4377-2.20813-7.41574-11.09916-3.46408-35.03158-13.51887-41.93339-20.01059-.95291-1.45894-1.07383-1.79415-2.04315-2.79547-2.05503-2.12285-4.72813-1.65623-6.88729-1.53806-1.30119.0712-4.36545-.42289-5.40993-.007-.87738.34944-1.31208.72012-1.81126 1.35248-.1552.19657 1.00401-.49539 1.14222-.51338 9.87726-1.28591 12.58031-.0274 13.77724 3.10109.30288.79164.42362 1.98437-.0244 2.71978-.91499 1.50205-3.26555 3.64481-5.97254 5.16068-1.78111.99739-3.63211 1.6283-6.08028 2.40987-1.3334.42568-5.24957-3.48097-5.2143-3.34388.22576.87755 1.73284 2.25898 3.059 3.14295.79185.52782 1.6928.72527 2.01363 1.29182 3.8568 6.81066 12.36018 14.28876 27.96626 19.77585z" style="fill:#000"/><path id="path7888" d="m212.49724 424.73594c.0682.49985.6843 1.51303 1.35077 1.69563-.006-.0247-.16385-.88733-.17022-.91355-.2156-.88578-1.16957-3.49361.38681-6.42055-1.56572 1.77216-1.84827 3.52682-1.56736 5.63847z" style="fill:#000"/><path id="path7890" class="skin penis" d="m245.24103 450.52475c12.39475 3.45352 24.30588 8.20871 29.15618-2.49599 1.32159-3.71174 1.23891-5.82315-1.40809-6.78605-11.28224-2.70293-35.54206-13.33793-42.84774-19.75459-2.69887 6.44221-10.20519 8.78929-13.25723 9.41257 3.79706 6.70517 12.99248 14.22192 28.35685 19.62401z"/></g><g data-transform="art" style="display:none" id="Penis_Alt_Mid"><path id="path7856" d="m214.96629 456.45579c.2203-.24364.63147-.46613.92775-.55536 9.66383-2.91049 2.60729-16.30985-1.49901-15.4884-1.68682.79277-4.36724 2.05863-5.86214 3.10514-6.37657 6.62403.44234 13.04491 3.2714 12.24409.0511.01.65201.55834 3.16198.69454z" style="fill:#000"/><path id="path7858" d="m214.20261 456.25874c9.66791.15815 5.40597-14.99985.51471-15.06617-1.34094-.0182-4.52989 1.95677-5.94463 3.04771-4.57949 4.83811-2.50914 9.26478 1.80258 11.34064.36356.0786 3.22663.98994 3.62734.67782z" style="fill-opacity:1;fill:#daa595"/><path id="path7860" d="m249.72018 462.78758c12.88033-2.2145 26.08617-3.96727 25.3545-15.6831-.39929-3.98202-2.31938-6.02456-5.16798-5.75856-11.51427 1.61645-37.20529 2.54654-46.22064-.36909-1.48539-.91113-1.43038-1.16972-2.73486-1.66019-2.76558-1.03981-5.06088.28605-6.962 1.31642-.31683.17172-4.10369 2.14322-4.30287 2.20725.34421.21863 3.60878-1.47793 5.04318-.82302 2.31392 1.05649 8.67505 8.16369.91431 13.81058-.98473.99472-6.23406-.90096-6.14354-.79213.57944.69665 2.53259 1.30067 4.10942 1.53243.94152.13838 1.84035-.0685 2.37268.30635 6.3994 4.50641 17.28432 7.62857 33.73772 5.91289z" style="fill:#000"/><path id="path7862" d="m208.1497 451.64402c.11992.46711.76663 1.30648 1.3523 1.33287-.008-.0225-.24904-.8196-.25768-.84348-.29254-.80646-.0496-3.69204.49937-6.26008-.72859 1.35165-1.78494 3.64934-1.59399 5.77069z" style="fill:#000"/><path id="path7864" class="skin penis" d="m249.82636 461.8094c12.68083-2.18018 25.48131-2.97691 25.28659-14.72758-.3931-3.92034-1.37099-5.79347-4.17548-5.53159-11.57368 2.42883-37.9793 3.36918-46.85502.49872-1.93911-1.13102-3.1745-3.12648-5.98385-2.60515-2.43352.30345-5.47148 1.94819-6.66055 2.59266.0632.0542 2.45315-.93839 3.66897-.47754 1.69998.64437 9.95358 8.5593.68365 14.63243.13382.0928.48639.23485 1.14527.50938 6.30027 4.43661 16.69183 6.79782 32.89039 5.10871z"/></g></svg>