<svg viewBox="0 0 560 1e3"><path id="path8716" d="m276.09252 506.13595c.009 1.23028-2.03936 16.75946-15.31167 16.17417-6.4991-.2866-15.59204-13.78237-15.60216-15.01266-.96536-2.32392.58554-3.11617 1.06353-3.42971 1.23774-.81186 4.10611 2.90605 14.84037 3.12738 6.50321.13396 14.9998-2.08951 15.00993-.85922z" style="display:inline;fill:#000;opacity:1;stroke-width:1.41784275"/><path id="path8718" d="m257.79634 510.98982c-.98904.34571-1.70038-.15794-2.81358-.20234-3.1492-22.3819 9.08615-64.3669 12.63424-67.80221.64257.29445 3.05399-.22887 2.7913.62986-1.58561 5.18328-13.10142 36.52513-12.61196 67.37469z" style="display:inline;fill:#000;opacity:1;stroke-width:1.34846461"/><path id="path8720" d="m271.91095 514.16941c-1.02849.32623-1.76818-.14901-2.92576-.19092.41707-18.41437 8.90796-59.22803 13.13796-63.97901.66818.27785 1.30949 2.56216 1.03633 3.37248-1.64882 4.89101-9.55813 33.61008-11.24853 60.79745z" style="display:inline;fill:#000;opacity:1;stroke-width:1.33575201"/><path id="path8722" d="m247.08267 507.77451c-1.02704.32623-.71146-.14901-1.86743-.19091-1.60411-18.66516 4.76639-53.87807 13.6466-62.55793.66724.27785.98717 1.23314.50776 1.9514-1.6465 2.4668-14.11299 24.74919-12.28693 60.79744z" style="display:inline;fill:#000;opacity:1;stroke-width:1.33481228"/><path id="path8724" d="m276.19192 506.79926c.01 1.10801-2.01503 15.09383-15.12898 14.56671-6.42155-.25811-15.40599-12.41262-15.41599-13.52064-.95386-2.09296.57855-2.80646 1.05084-3.08884 1.22296-.73117 4.05712 2.61722 14.6633 2.81655 6.4256.12076 14.82082-1.88183 14.83083-.77382z" style="fill:#bababa;stroke-width:1.33749187"/><path id="path8726" d="m259.27104 521.02849c-1.07769-.6308-2.22947-2.12802-1.75138-3.53136.57936.823 1.16466 2.5399 3.46299 3.87823-.94309.009-1.60289-.27334-1.71161-.34687z" style="display:inline;fill:#000;opacity:1;stroke-width:1.33749187"/><path id="path8728" d="m244.90566 490.85079c-.0475 1.67305-.0461 3.7744-.11395 6.11791 8.2864 5.56839 27.48741 2.48118 32.0634.81413.0393-.58106.6255-6.52091.50912-6.48215-3.86732 1.28759-23.1072 3.52723-32.45862-.44989z" style="display:inline;fill:#000;opacity:1;stroke-width:1.35851729"/><path id="path8730" d="m246.23801 478.46304c-.15221 1.23904-.44996 3.77308-.69726 6.05829 8.2864 5.64746 28.3698 2.69952 32.94579 1.00881.0393-.58932 1.11905-6.61351 1.00267-6.5742-3.86732 1.3059-23.89986 3.5407-33.25127-.4929z" style="display:inline;fill:#000;opacity:1;stroke-width:1.36812735"/><path id="path8732" d="m249.19591 464.56526c-.15246 1.21302-1.00157 3.64315-1.24928 5.88038 9.31735 3.6022 28.50248 2.28794 33.76419 1.24115.0393-.57694 1.3794-6.49361 1.25859-6.48688-6.58573.36582-24.40635 1.59036-33.77357-.63465z" style="display:inline;fill:#000;opacity:1;stroke-width:1.35483301"/><path id="path8734" d="m253.75299 451.93262c-.36424.91309-1.59823 4.24244-1.87747 5.24627 9.43175 3.11787 26.60948 2.19417 32.54471 1.1279.0395-.56877-.40382-6.1169-.524-6.09513-4.61876.83621-20.57281 1.42258-30.14331-.27904z" style="display:inline;fill:#000;opacity:1;stroke-width:1.34898353"/><path id="path8736" d="m253.9852 453.11861c.0297.89278 1.69637.6106 1.93734.5721 10.28559-18.98721 23.61144-4.97648 26.20404.34084.78705.50188 1.729-.34453 1.71416-.46343-1.63279-13.07772-22.25896-22.82169-29.85561-.44949z" style="display:inline;fill:#000;opacity:1;stroke-width:1.23173046"/><path id="path8738" d="m258.11405 510.09312c-.97725.34423-1.68009-.15723-2.78001-.20145-2.86384-19.87132 9.96888-64.17157 12.48349-67.50877.63489.29318 3.01754-.22789 2.75799.62714-1.56669 5.16084-12.9451 36.36704-12.46147 67.08308z" style="display:inline;fill:#bababa;opacity:1;stroke-width:1.33749187"/><path id="path8740" d="m245.37718 491.68917c-.0469 1.36937-.0456 3.08933-.11261 5.00749 8.18753 4.55771 27.15943 2.03083 31.68082.66636.0388-.4756.61804-5.33735.50304-5.30563-3.82117 1.0539-22.83148 2.88704-32.07131-.36822z" style="display:inline;fill:#bababa;opacity:1;stroke-width:1.2217077"/><path id="path8742" d="m246.69362 479.47274c-.15038.99995-.44459 3.04502-.68894 4.88927 8.18754 4.55772 28.0313 2.17861 32.55269.81415.0388-.4756 1.1057-5.33736.9907-5.30563-3.82118 1.0539-23.61468 2.85748-32.85451-.39779z" style="display:inline;fill:#bababa;opacity:1;stroke-width:1.2217077"/><path id="path8744" d="m249.67255 465.28198c-.15039.99995-.98795 3.00322-1.2323 4.84747 9.19066 2.96945 28.1149 1.88604 33.30504 1.02313.0388-.4756 1.36064-5.35296 1.24147-5.34743-6.49616.30157-24.07444 1.31101-33.31427-.52317z" style="display:inline;fill:#bababa;opacity:1;stroke-width:1.2217077"/><path id="path8746" d="m254.33907 452.46859c-.35727.76352-1.56767 3.54746-1.84157 4.38684 9.25151 2.60711 26.10098 1.83473 31.92277.94314.0388-.4756-.39608-5.11485-.51398-5.09665-4.53049.69924-20.17967 1.18955-29.56728-.23333z" style="display:inline;fill:#bababa;opacity:1;stroke-width:1.2217077"/><path id="path8748" d="m254.34838 452.49989c.0293.86597 1.67612.59226 1.91422.55491 10.16285-18.41739 23.32971-4.82713 25.89137.33062.77766.48682 1.71-.33439 1.69371-.44952-1.73012-12.22658-21.17571-21.10475-29.49936-.436z" style="display:inline;fill:#bababa;opacity:1;stroke-width:1.20584822"/><path id="path8750" d="m272.47452 514.16941c-.97726.32623-1.6801-.14901-2.78002-.19092.3963-18.41437 8.46421-59.22803 12.48349-63.97901.6349.27785 1.24426 2.56216.9847 3.37248-1.56668 4.89101-9.08198 33.61008-10.68817 60.79745z" style="display:inline;fill:#bababa;opacity:1;stroke-width:1.30205655"/><path id="path8752" d="m247.68944 507.77451c-.97725.32623-.67697-.14901-1.7769-.19091-1.52634-18.66516 4.53533-53.87807 12.98505-62.55793.6349.27785.93931 1.23314.48315 1.9514-1.56669 2.4668-13.42884 24.74919-11.6913 60.79744z" style="display:inline;fill:#bababa;opacity:1;stroke-width:1.30205655"/></svg>