<svg viewBox="0 0 560 1e3"><path d="m267.4 253.7c-28.3-5.9-22.8 53.7-29.6 71.4 18.2.4 51.1-12.2 103.6-15.7.0.0 36.2-17.5 37.3-2.1 3 38.7-20.2 22.3-37.3 14.6-18.04351 17.54942-130.23052 37.90729-134.13052 21.80729C204.56948 332.80729 230.9 236.6 246.2 219.8c6.9-7.7 8.3-4.7 14.3-8.9 43.1 6.1 25 46.1 6.9 42.8" id="path3391" class="skin"/><path style="display:inline;fill-opacity:1;fill:#333;stroke-dasharray:none;stroke-linecap:butt;stroke-linejoin:miter;stroke-miterlimit:4;stroke-opacity:1;stroke-width:0;stroke:#000" d="m262.23209 237.27314c-7.46177 6.86101-22.82938 19.21672-32.93528 17.75444.25902-1.2722 1.10794-3.36632 1.43129-3.88703 10.45668 2.03163 27.55324-14.75434 30.54027-15.84236z" id="path3393"/><path style="display:inline;fill-opacity:1;fill:#333;stroke-dasharray:none;stroke-linecap:butt;stroke-linejoin:miter;stroke-miterlimit:4;stroke-opacity:1;stroke-width:0;stroke:#000" d="m207.17256 343.63074c17.95471-15.33882 18.43886-14.52322 31.1913-20.08743.001.50178-.19291.92948-.5464 1.5375-10.16278 4.99074-12.50946 5.86075-29.77933 20.20207-.32562-.38262-.47969-.61462-.86557-1.65214z" id="path3395"/><path style="display:inline;fill-opacity:1;fill:#333;stroke-dasharray:none;stroke-linecap:butt;stroke-linejoin:miter;stroke-miterlimit:4;stroke-opacity:1;stroke-width:0;stroke:#000" d="m224.77864 330.84333c11.95116 8.36559 32.41672 4.27484 60.64568-4.22408 1.34019-.83529.35733-1.16581-.12402-1.80585-49.72536 16.5276-57.76007 5.46036-58.4416 4.94504z" id="path3397"/><path style="display:inline;fill-opacity:1;fill:#333;stroke-dasharray:none;stroke-linecap:butt;stroke-linejoin:miter;stroke-miterlimit:4;stroke-opacity:1;stroke-width:0;stroke:#000" d="m224.94355 331.15635c3.76924-27.64208 5.62359-37.4514 14.58821-80.82301.67779-.72107.19487 1.38414 1.54799 1.07-9.17789 41.79535-14.51599 77.59565-14.14074 78.71959z" id="path3399"/><path style="display:inline;fill-opacity:1;fill:#333;stroke-dasharray:none;stroke-linecap:butt;stroke-linejoin:miter;stroke-miterlimit:4;stroke-opacity:1;stroke-width:0;stroke:#000" d="m211.38104 341.24232c13.30605 7.62845 38.18669 6.74478 71.15423 3.09931 1.71881-.75878.6234-1.32849.17066-2.17849-54.68227 8.13696-69.8362-1.39017-70.54567-2.12689z" id="path3401"/><path style="display:inline;fill-opacity:1;fill:#333;stroke-dasharray:none;stroke-linecap:butt;stroke-linejoin:miter;stroke-miterlimit:4;stroke-opacity:1;stroke-width:0;stroke:#000" d="m379.04374 315.06856c-8.20548 3.44095-15.17023 2.80728-30.92852 1.97431-.75316-.75878-.27317-1.32849-.0748-2.17849 21.58579 2.63696 30.60098-1.39017 30.91185-2.12689z" id="path3403"/></svg>