<svg viewBox="0 0 560 1e3"><path d="m313.9 194.52901c-.2.2-.4.3-.7.4-6 2.3-10.6 2.9-14 2.8-5.9-.2-7.5-2.3-7.7-2.5-.7-.8-.4-2.1.8-2.6 1.3-.5 2.5-.5 3.2.3.2.2 3.4 3.4 15.5-1.1 1.2-.5 2.7-.1 3.3.7.5.6.3 1.4-.4 2" id="path11-3"/><path class="steel_chastity" d="m299.8 197.72901c-6 0-7.8-2-8-2.1-.8-.8-.7-2 .5-2.5 1.2-.6 2.4-.6 3.2.2.2.2 3.8 3.2 15.4-1.6 1.2-.5 2.7-.2 3.4.6.7.8.3 1.9-.9 2.3-5.8 2.3-10.3 3.1-13.6 3.1z" id="path13-33"/><path transform="translate(-220,3.42901)" d="m516.4 190.9h7.2l-.5 2.9h-6.2z" id="polygon17"/><path id="path19-8" d="m303.1 194.82901v2.4H297v-2.4h6.1m.5-.5-7.3-.1.2 3h7.1z" class="steel_chastity"/><text id="text21" name="Collar_Text" x="297.13312" y="196.96181" style="fill:red">8888</text></svg>