<svg viewBox="0 0 560 1e3"><path id="path4655-9" class="shadow" d="m283.66521 456.38067c-1.54841.73859-1.78928 15.78672-9.24659 11.14886-5.5459 3.1603-10.12915-4.94173-10.42429-8.4126-.25114-2.95343 3.37748-7.20053 3.87403-6.51846 2.14579-.003 16.30971 2.85987 15.79685 3.7822z"/><path id="path4657-4" class="skin torso" d="m274.36595 467.58332c-3.81452 2.31718-9.64064-2.27902-10.8644-11.68664 5.95334-21.67633 25.49385-8.31185 20.23612.35499-2.87984 4.74713-3.52005 14.37508-9.37172 11.33165z"/><path id="path4659-6" d="m268.15022 466.84042c1.97544 1.15064 3.44304 1.50895 6.29117.74829 1.48394 1.11892 3.67809 1.01117 5.52348-.15189 7.82224-13.26047 17.50609-22.59748 28.5432-30.20656 15.92414-7.32512 35.65563-13.9168 53.63813-16.61521 1.23117-3.1619 1.68227-3.76161 2.13393-4.78976-6.98714 2.20071-22.51132 7.70378-29.76675 10.33389-24.29445 8.80678-49.30882 19.5271-67.78558 12.72247-9.19987 1.7019-17.1878-.81844-23.32533-3.95341-4.55174-2.32496-13.25646-9.3632-17.58943-22.73675.42664 8.69013 21.30491 37.27349 42.33719 54.64893z" style="display:inline;fill-opacity:1;fill:#1a1a1a;opacity:1;stroke-dasharray:none;stroke-linecap:butt;stroke-linejoin:miter;stroke-miterlimit:4;stroke-opacity:1;stroke-width:0;stroke:#000"/><path d="m308.2039 435.78241s-21.36416 18.05915-22.90518 20.89604c6.85085-6.07995 28.65766-22.84858 28.65766-22.84858z" class="shadow" id="path4665-4"/><path d="m262.16576 457.53039c-6.81704-9.41592-28.83006-31.99347-34.93819-34.15183 5.05404 5.44075 26.5203 25.35081 34.93819 34.15183z" class="shadow" id="path4667-0"/><path id="path4669-1" class="shadow" d="m262.98857 459.03749c4.57815 9.39542 7.95428 8.94718 11.45233 8.01034.29456-.0789 5.02218 4.77996 9.26343-8.71666-1.38475 8.70911-4.94655 11.61521-9.3291 9.47151-.0226-.0111-2.82256 1.04466-4.71233.003-2.95847-1.63089-6.486-5.556-6.67433-8.7681z"/><path style="display:inline;fill-opacity:1;fill-rule:evenodd;fill:#000;opacity:1;stroke-dasharray:none;stroke-linecap:butt;stroke-linejoin:miter;stroke-miterlimit:4;stroke-opacity:1;stroke-width:0;stroke:#000" d="m371.45236 272.33602c-3.78105 51.36502 11.51516 119.65223 14.281 185.9788-32.89181 6.65266-156.08001-14.88078-170.44809-31.88372 4.07427-12.93648 2.37683-35.71075 6.05143-58.24852 4.87155-29.87911 14.45002-60.28952 13.07527-76.08257-4.75246-59.46686 61.97762-63.88255 129.77224-24.50872z" id="path4779"/><path style="display:inline;fill-opacity:1;fill:#000;stroke-dasharray:none;stroke-linecap:butt;stroke-linejoin:miter;stroke-miterlimit:4;stroke-opacity:1;stroke-width:0;stroke:#000" d="m335.37111 425.83232c8.90478-2.06457 25.79776-6.87759 27.68022-6.82607.17382-1.68154 1.0928-2.2079.8411-3.10989-1.75576.62762-16.10436 3.44602-28.52132 9.93596z" id="path4671-9"/><path style="display:inline;fill-opacity:1;fill-rule:evenodd;fill:#fff;opacity:1;stroke-dasharray:none;stroke-linecap:butt;stroke-linejoin:miter;stroke-miterlimit:4;stroke-opacity:1;stroke-width:0;stroke:#000" d="m371.47602 272.06519c-6.37431 49.66799 12.54581 137.52982 12.61806 185.08787-31.15729 6.94181-157.0571-15.87982-167.65947-31.44057 4.08039-12.41018 2.71595-35.11917 6.49621-57.51639 4.99253-29.57969 14.49324-59.54584 13.25304-73.71527-3.65952-28.78802 3.24617-54.69258 12.53942-69.35361 20.29323-7.41733 48.69237.56387 69.06052-25.94442 1.48672 1.12706 18.23182 7.00546 18.7637 8.34782 40.52013.35863 35.46633 51.17961 34.92852 64.53457z" id="path4782"/></svg>