<svg viewBox="0 0 560 1e3"><path style="display:inline;fill-opacity:1;fill-rule:evenodd;fill:#1a1a1a;opacity:1;stroke-dasharray:none;stroke-linecap:butt;stroke-linejoin:miter;stroke-miterlimit:4;stroke-opacity:1;stroke-width:0;stroke:#000" d="m369.48726 402.76306c-1.63914.71499-27.67165 5.67617-34.84204 7.74792-.15164.0438 2.96118 15.45799 2.90128 15.50207-1.39788 1.02869-4.39828 2.23857-6.41807 2.15508-.1246-.005-2.5219-15.99169-2.63942-15.96082-22.26715 5.84838-63.38912 14.69111-90.34953 5.24921.0.0-4.90498 7.75945-5.01935 10.20213-.0118.25182-3.99068-6.43211-3.98511-6.51793.0483-.7439 3.22099-5.41414 3.22099-5.41414-2.51129-.94188-4.34455-2.98319-6.56166-4.18618-.23521-.2295-2.77587-12.20541-2.40252-12.21208 28.19078 20.34527 142.1766-7.99157 145.84883-10.45231 1.31906 1.33115.49456 11.96935.2466 13.88705z" id="path3017-5-3-1-6-7"/><path id="path2316-4-7-7" d="m298.11288 438.67647c-.9189.91706-1.47681 2.07297-2.19112 3.04135-5.44325 7.37942-12.7957 15.81041-13.00807 16.4538-3.5825-2.3145-16.67981-13.10929-18.83826.27544-1.73072.2056-8.37033-10.41522-16.59753-21.56225 3.98037 1.53438 7.93097 2.82301 19.41937 1.75411 7.12074 2.42851 17.04659 3.83406 31.21561.0376z" style="display:inline;fill-opacity:1;fill-rule:evenodd;fill:#1a1a1a;opacity:1;stroke-dasharray:none;stroke-linecap:butt;stroke-linejoin:miter;stroke-miterlimit:4;stroke-opacity:1;stroke-width:0;stroke:#000"/><path style="display:inline;fill-opacity:1;fill-rule:nonzero;fill:#1a1a1a;opacity:1;stroke-dasharray:none;stroke-linecap:butt;stroke-linejoin:miter;stroke-miterlimit:4;stroke-opacity:1;stroke-width:0;stroke:#000" d="m293.39717 219.15201s-11.30379-8.0112-13.32421-14.80963c-.14531-.48895 1.08137-.85736 1.3252-.89177 2.11202 5.76737 13.33697 14.92636 13.80409 15.01048.45472.0819 22.94782-9.41365 27.20052-15.6514.11299.48255 1.442.4609 1.29391.92178-2.16457 6.73605-27.24014 15.72559-27.26746 15.74375-.0217.0182-1.49102.55747-1.70932.55652-.12548-.0318-1.25536-.836-1.32273-.87973z" id="path2362-0-0-3-5-2"/></svg>