<svg viewBox="0 0 560 1e3"><path class="lip" id="path8199" d="m275.70571 164.95554c1.23915-.50574 2.77388-6.22503 6.05616-4.11424 4.91199-2.10859 8.69916 3.68583 11.71843 4.10088-1.09392 1.46615-1.00221 4.84767-9.97053 6.22256-7.43009-1.6132-7.24539-3.73592-7.80406-6.2092z"/><path style="fill:#000;stroke-width:.18142612" d="m282.12199 171.2464c-2.55182-.65008-4.19446-1.35621-5.49602-3.33993 2.64837 2.31716 3.80554 2.36922 5.64034 2.85426 2.48293-.21787 3.79716-.25778 6.7196-1.2599.79699-.29142 2.62634-1.6079 2.66083-1.57516-1.54467 2.36243-6.839 3.26583-9.52475 3.32073zm.73741-5.77596c-.52786.35108-1.11083.29327-1.64618-.0378-.78948-.2502-1.68856-.18487-3.56619-.0969-1.40273-.15576-1.76563 1.6203-2.01971-.28743-.28007-.58992.86746-.52083 2.40967-.30878 1.5384.21152 2.78295-.74827 3.89917.35909 1.50282-1.23244 5.63839-.30266 7.59827-.14267 3.39375.16221 2.67611-.4527 4.03043-.0387.27715 1.76977-.5111.67589-4.00258.77605-2.6402.0757-5.77381-.48784-6.70288-.22278zm-1.97162-4.53477c-.47318-.19524-.71453-.20711-1.07132-.0528-.6288.27204-.80453.0378-.31814-.42408.36098-.34278.46951-.3593 1.12834-.17188.96786.27537 1.5279.26148 2.33264-.0578.96869-.38434 1.3749-.33538 2.82513.34038 1.45436.67771 1.26815.81557-.37606.2784-.59527-.19447-1.24008-.3536-1.43292-.3536-.19285.0-.67908.15913-1.08052.3536-.85547.41442-1.18089.42864-2.00715.0877z" id="path8201"/></svg>