<svg viewBox="0 0 560 1e3"><path id="path6510" d="m396.79941 570.32708c-5.42356-64.35257-23.67102-127.13238-45.80716-157.45054.0186 1.15703-124.90115.2559-125.55182 1.28181-18.48533 29.14598-33.38774 88.59576-31.56582 155.76901 32.18943 11.8979 198.45074 9.09871 202.9248.39972z" style="baseline-shift:baseline;clip-rule:nonzero;color-interpolation-filters:linearRGB;color-interpolation:sRGB;color-rendering:auto;color:#000;direction:ltr;display:inline;enable-background:accumulate;fill-opacity:1;fill-rule:evenodd;fill:#000;image-rendering:auto;isolation:auto;mix-blend-mode:normal;opacity:1;overflow:visible;shape-rendering:auto;solid-color:#000000;solid-opacity:1;stroke-dasharray:none;stroke-dashoffset:0;stroke-linecap:butt;stroke-linejoin:miter;stroke-miterlimit:4;stroke-opacity:1;stroke-width:3.09140849;stroke:none;visibility:visible;white-space:normal;writing-mode:lr-tb"/><path id="path6512" d="m395.46477 570.37859c-4.59964-54.67017-19.49148-125.8566-45.01189-160.02197.0179 1.15703-123.28063.0338-123.95083 1.03181-18.79616 27.989-35.02131 107.4156-31.68134 158.04845 8.86394 6.89418 157.02052 12.90169 200.64406.94171z" style="baseline-shift:baseline;clip-rule:nonzero;color-interpolation-filters:linearRGB;color-interpolation:sRGB;color-rendering:auto;color:#000;direction:ltr;display:inline;enable-background:accumulate;fill-opacity:1;fill-rule:evenodd;fill:#800033;image-rendering:auto;isolation:auto;mix-blend-mode:normal;opacity:1;overflow:visible;shape-rendering:auto;solid-color:#000000;solid-opacity:1;stroke-dasharray:none;stroke-dashoffset:0;stroke-linecap:butt;stroke-linejoin:miter;stroke-miterlimit:4;stroke-opacity:1;stroke-width:3.03410745;stroke:none;visibility:visible;white-space:normal;writing-mode:lr-tb"/><path id="path6512-6" d="m395.27727 568.00543c.0254-2.54517-.36208-4.25209-.36208-4.25209-51.37492 8.4513-197.08697 2.44969-200.45109.54529-.0267.51477.1205 2.98616.14854 3.30798-.24958 2.68114 179.43445 9.70715 200.66459.39882z" style="baseline-shift:baseline;clip-rule:nonzero;color-interpolation-filters:linearRGB;color-interpolation:sRGB;color-rendering:auto;color:#000;direction:ltr;display:inline;enable-background:accumulate;fill-opacity:1;fill-rule:evenodd;fill:#f59;image-rendering:auto;isolation:auto;mix-blend-mode:normal;opacity:1;overflow:visible;shape-rendering:auto;solid-color:#000000;solid-opacity:1;stroke-dasharray:none;stroke-dashoffset:0;stroke-linecap:butt;stroke-linejoin:miter;stroke-miterlimit:4;stroke-opacity:1;stroke-width:3.03410745;stroke:none;visibility:visible;white-space:normal;writing-mode:lr-tb"/><path id="path6512-6-3" d="m394.65761 559.04031c.0254-2.54517-2.23708-17.12709-2.23708-17.12709-5.87492 6.2013-194.53519.29804-197.89931-1.60636-.0267.51477-.55628 18.01281-.52824 18.33463-.24958 2.68114 179.43445 9.70715 200.66459.39882z" style="baseline-shift:baseline;clip-rule:nonzero;color-interpolation-filters:linearRGB;color-interpolation:sRGB;color-rendering:auto;color:#000;direction:ltr;display:inline;enable-background:accumulate;fill-opacity:1;fill-rule:evenodd;fill:#d40055;image-rendering:auto;isolation:auto;mix-blend-mode:normal;opacity:1;overflow:visible;shape-rendering:auto;solid-color:#000000;solid-opacity:1;stroke-dasharray:none;stroke-dashoffset:0;stroke-linecap:butt;stroke-linejoin:miter;stroke-miterlimit:4;stroke-opacity:1;stroke-width:3.03410745;stroke:none;visibility:visible;white-space:normal;writing-mode:lr-tb"/><path id="path6512-6-36" d="m391.65761 536.54031c.0254-2.54517-.27369-2.83788-.27369-2.83788-5.87492 6.2013-193.19788.0632-196.562-1.84119-.0267.51477-.23308 4.40038-.20498 4.7222 18.75042 1.43114 171.23731 8.16425 197.21745 1.10592z" style="baseline-shift:baseline;clip-rule:nonzero;color-interpolation-filters:linearRGB;color-interpolation:sRGB;color-rendering:auto;color:#000;direction:ltr;display:inline;enable-background:accumulate;fill-opacity:1;fill-rule:evenodd;fill:#f59;image-rendering:auto;isolation:auto;mix-blend-mode:normal;opacity:1;overflow:visible;shape-rendering:auto;solid-color:#000000;solid-opacity:1;stroke-dasharray:none;stroke-dashoffset:0;stroke-linecap:butt;stroke-linejoin:miter;stroke-miterlimit:4;stroke-opacity:1;stroke-width:3.03410745;stroke:none;visibility:visible;white-space:normal;writing-mode:lr-tb"/></svg>