<svg viewBox="0 0 560 1e3"><path style="display:inline;fill-opacity:1;fill-rule:evenodd;fill:#000;opacity:1;stroke-dasharray:none;stroke-linecap:butt;stroke-linejoin:miter;stroke-miterlimit:4;stroke-opacity:1;stroke-width:0;stroke:#000" d="m370.45236 268.71102c3.98205 15.96646-2.79132 48.45354-13.57044 78.84683 9.29471 24.14374 24.83449 51.2742 5.31832 72.15996-52.87 4.34813-59.55245 28.13229-83.32239 48.06223-.26944.20641-1.13656 1.14752-4.58251.28177-.17413-.0437-1.37345.71664-3.61847.0361-4.76561-27.49788-25.80813-38.58382-45.48186-53.93634-10.52202-30.13844-1.33904-54.56969 12.03105-94.34617-4.75535-24.07335-1.67856-35.70225-1.40876-44.80638 2.45072-30.83519 4.00095-45.48823 40.74139-68.13836-.63873-.33426 4.57299-4.57179 9.09752-6.97413 2.92341-4.5213 2.94604-6.88256 3.21496-7.63841 7.59995 3.04875 12.54042 2.39227 26.09377.45427.0.0 2.20771 4.67981 3.14054 5.85732 1.50252 1.12706 9.10193 4.89722 7.88644 5.69617-25.72677 16.91039-30.9022 28.84774-29.45936 29.06832 3.13994 1.52155 66.54554 33.43249 67.65165 34.25705z" id="path5854-5-1"/><path style="display:inline;fill-opacity:1;fill-rule:evenodd;fill:#725d49;opacity:1;stroke-dasharray:none;stroke-linecap:butt;stroke-linejoin:miter;stroke-miterlimit:4;stroke-opacity:1;stroke-width:0;stroke:#000" d="m356.00147 347.65001c13.94728 31.8706 20.58862 51.16237 6.17777 73.00838-40.10653 11.44456-75.10045 35.08888-75.87212 37.42665-.78385 1.88787-4.7912 9.82211-7.2881 11.60252-1.21712.86786-4.56426-.37235-4.8162-.39645-.29397-.0276-.77535.50225-2.98817-.0701-5.65546-1.4629-10.22974-5.40448-10.80185-7.35518-18.43111-29.49711-30.68812-46.0732-35.41353-47.26215-10.55155-38.23555 7.63905-73.16574 13.15034-94.4182-4.27241-20.09749-1.68015-36.96845-1.27615-52.81055 1.01563-36.61898 11.92774-54.14967 40.06266-61.39383.49229-.51848 4.93756-4.44419 9.41452-6.84653 1.01736-.38611 2.31779-5.23047 2.81949-6.89932 6.65758 3.87428 25.29635.45747 25.62567 1.1562.97035 2.05878 1.84469 4.05751 2.988 5.79136 1.48672 1.12706 18.23182 7.00546 18.7637 8.34782 24.04525 1.12858 34.84226 11.72196 35.47022 42.80513 2.90401 40.6321-6.9561 69.77305-16.01625 97.31425z" id="path5856-6-7"/><path style="display:inline;fill-opacity:1;fill:#000;stroke-dasharray:none;stroke-linecap:butt;stroke-linejoin:miter;stroke-miterlimit:4;stroke-opacity:1;stroke-width:0;stroke:#000" d="m225.59803 414.50423c13.0124 5.20002 29.36397 56.66207 49.38576 54.95988 13.4605-1.86072 14.12966-32.15215 76.46023-57.39497-1.99871-6.0195-17.05662-30.7307-17.68549-32.70297-.0813-.25494-1.22374-2.21355-1.22374-2.21355-45.102 11.9464-87.26241 7.51113-92.60275-1.89265.0.0-9.20102 27.52661-14.33401 39.24426z" id="path5858-3-6"/><path style="display:inline;fill-opacity:1;fill:#725d49;stroke-dasharray:none;stroke-linecap:butt;stroke-linejoin:miter;stroke-miterlimit:4;stroke-opacity:1;stroke-width:0;stroke:#000" d="m224.05743 416.09574c.8874 16.95002 31.24785 56.57108 51.26964 54.86889 13.4605-1.86072 24.55644-26.0486 86.88701-51.29142-5.52595-11.9083-17.02186-24.68312-23.55806-36.00751-45.102 11.9464-94.87875 8.32179-100.21909-1.08199.0.0-9.24651 21.79438-14.3795 33.51203z" id="path5864-3-2"/><path style="display:inline;fill-opacity:1;fill:#000;opacity:1;stroke-dasharray:none;stroke-linecap:butt;stroke-linejoin:miter;stroke-miterlimit:4;stroke-opacity:1;stroke-width:0;stroke:#000" d="m289.11888 215.04825c-.007-.15238 7.87213-20.96789 7.93902-21.16262.0.0-7.88763-2.17757-7.98267-1.95613-.52063 1.21301-1.42255 3.99986-2.29458 5.89032.099.227 2.33823 17.22843 2.33823 17.22843z" id="path5867-1-3"/><path style="display:inline;fill-opacity:1;fill:#725d49;opacity:1;stroke-dasharray:none;stroke-linecap:butt;stroke-linejoin:miter;stroke-miterlimit:4;stroke-opacity:1;stroke-width:0;stroke:#000" d="m289.86716 210.04871c-.007-.14941 6.74558-16.16139 6.81056-16.35233.0.0-7.73918-2.13149-7.84382-1.92049-.65217 1.31501-1.53901 4.35524-2.18343 5.77505.0962.22258 3.21669 12.49777 3.21669 12.49777z" id="path5870-7-4"/><path style="display:inline;fill-opacity:1;fill:#000;opacity:1;stroke-dasharray:none;stroke-linecap:butt;stroke-linejoin:miter;stroke-miterlimit:4;stroke-opacity:1;stroke-width:0;stroke:#000" d="m275.45007 385.34392c-.0664.049-1.39182-.0869-1.58546-.12917-3.40999-.74522 19.2566-190.46416 24.25915-190.51859.0.0 9.9816.36067 8.15973.35931-4.05459-.91193-25.06749 186.14721-24.62563 189.69739z" id="path5872-2-3"/><path style="display:inline;fill-opacity:1;fill:#725d49;opacity:1;stroke-dasharray:none;stroke-linecap:butt;stroke-linejoin:miter;stroke-miterlimit:4;stroke-opacity:1;stroke-width:0;stroke:#000" d="m275.06385 384.41234c-.0664.049-1.76682-.0556-1.96046-.0979-3.40999-.74522 19.2566-190.33916 24.25915-190.39359.0.0 9.9816.36067 8.15973.35931-4.72947-.95364-25.12648 185.84267-24.485 189.58802z" id="path5874-7-3"/><path style="display:inline;fill-opacity:1;fill:#000;opacity:1;stroke-dasharray:none;stroke-linecap:butt;stroke-linejoin:miter;stroke-miterlimit:4;stroke-opacity:1;stroke-width:0;stroke:#000" d="m304.52262 215.99753c.007-.15238-5.40967-21.68572-5.47656-21.88045.0.0 16.66716-3.24346 16.80942-3.04896.86438 1.18176 1.8458 5.90519 2.28033 6.5769-.099.227-13.61319 18.35251-13.61319 18.35251z" id="path5876-9-8"/><path style="display:inline;fill-opacity:1;fill:#725d49;opacity:1;stroke-dasharray:none;stroke-linecap:butt;stroke-linejoin:miter;stroke-miterlimit:4;stroke-opacity:1;stroke-width:0;stroke:#000" d="m305.15512 212.99967c.007-.14856-6.32959-18.84697-6.39549-19.03682.0.0 16.43332-3.17545 16.57349-2.98583.85164 1.15214 1.80688 5.77047 2.23501 6.42534-.0975.22131-12.41301 15.59731-12.41301 15.59731z" id="path5878-5-9"/><path style="display:inline;fill-opacity:1;fill:#000;opacity:1;stroke-dasharray:none;stroke-linecap:butt;stroke-linejoin:miter;stroke-miterlimit:4;stroke-opacity:1;stroke-width:0;stroke:#000" d="m318.34141 206.04031c.007-.14856 1.42041-6.72197 1.35451-6.91182.0.0 29.69411 9.43731 29.65299 9.6695-.0546.30839-.36637 2.67764-.46949 2.77001-.0975.22131-30.53801-5.52769-30.53801-5.52769z" id="path5881-9-2"/><path style="display:inline;fill-opacity:1;fill:#000;opacity:1;stroke-dasharray:none;stroke-linecap:butt;stroke-linejoin:miter;stroke-miterlimit:4;stroke-opacity:1;stroke-width:0;stroke:#000" d="m286.36935 205.61511c.0133-.14802.0535-6.76164.10936-6.94624.0.0-16.32306 7.59037-16.32898 7.82346-.008.30956-.12357 2.68146-.0814 2.7794.0242.22566 16.30106-3.65662 16.30106-3.65662z" id="path5884-7-1"/><path style="display:inline;fill-opacity:1;fill:#725d49;opacity:1;stroke-dasharray:none;stroke-linecap:butt;stroke-linejoin:miter;stroke-miterlimit:4;stroke-opacity:1;stroke-width:0;stroke:#000" d="m285.63987 205.08424c.0133-.14802.0535-6.76164.10936-6.94624.0.0-16.32306 7.59037-16.32898 7.82346-.008.30956-.12357 2.68146-.0814 2.7794.0242.22566 16.30106-3.65662 16.30106-3.65662z" id="path5886-1-4"/><path style="display:inline;fill-opacity:1;fill:#725d49;opacity:1;stroke-dasharray:none;stroke-linecap:butt;stroke-linejoin:miter;stroke-miterlimit:4;stroke-opacity:1;stroke-width:0;stroke:#000" d="m319.37125 205.43891c.007-.14856 1.34146-6.72197 1.27922-6.91182.0.0 28.04354 9.43731 28.00471 9.6695-.0516.30839-.34601 2.67764-.44339 2.77001-.0921.22131-28.84054-5.52769-28.84054-5.52769z" id="path5888-6-4"/><path style="display:inline;fill-opacity:1;fill:#000;opacity:1;stroke-dasharray:none;stroke-linecap:butt;stroke-linejoin:miter;stroke-miterlimit:4;stroke-opacity:1;stroke-width:0;stroke:#000" d="m278.97374 429.3684c.007-.14856 2.52919-37.05355 2.46695-37.2434.0.0 35.11831-1.77555 54.48573-7.94966.29791-.095 33.93162 21.79528 33.83424 21.88765-.0921.22131-90.78692 23.30541-90.78692 23.30541z" id="path5890-8-2"/><path style="display:inline;fill-opacity:1;fill:#000;opacity:1;stroke-dasharray:none;stroke-linecap:butt;stroke-linejoin:miter;stroke-miterlimit:4;stroke-opacity:1;stroke-width:0;stroke:#000" d="m278.6823 429.54052c-.007-.14856 4.33217-40.73216 4.39441-40.92201.0.0-36.17101 1.96465-45.00718-7.17821-.21729-.22483-15.49671 23.56034-15.39933 23.65271.0921.22131 56.0121 24.44751 56.0121 24.44751z" id="path5892-6-3"/><path style="display:inline;fill-opacity:1;fill:#725d49;opacity:1;stroke-dasharray:none;stroke-linecap:butt;stroke-linejoin:miter;stroke-miterlimit:4;stroke-opacity:1;stroke-width:0;stroke:#000" d="m278.03602 427.71792c-.007-.15017 2.93507-44.01036 2.99731-44.20227.0.0-36.23806-4.9715-42.57423-8.71357-.27074-.1599-15.97006 28.73498-15.87268 28.82835.0921.22372 55.4496 24.08749 55.4496 24.08749z" id="path5895-3-9"/><path style="display:inline;fill-opacity:1;fill:#725d49;opacity:1;stroke-dasharray:none;stroke-linecap:butt;stroke-linejoin:miter;stroke-miterlimit:4;stroke-opacity:1;stroke-width:0;stroke:#000" d="m279.21433 427.75073c.007-.14856 2.02384-37.68465 2.48906-44.20398.0.0 31.58354-1.15481 50.94769-7.33917 11.02805 10.50941 26.18281 18.7759 37.19484 28.90063-.0921.22131-90.63159 22.6425-90.63159 22.6425z" id="path5898-3-2"/><path style="display:inline;fill-opacity:1;fill:#000;opacity:1;stroke-dasharray:none;stroke-linecap:butt;stroke-linejoin:miter;stroke-miterlimit:4;stroke-opacity:1;stroke-width:0;stroke:#000" d="m228.95902 347.93009c.007-.14856 3.2085-13.53236 3.80604-13.16503 5.64391 3.46962 125.60221 8.12511 125.93823 5.13351.0207-.18441-1.04186 3.70218-1.75994 7.54583-.49184 2.63265 1.15826 4.75287 1.48058 5.72184.0797 2.0576-128.56034-1.61791-129.46491-5.23615z" id="path5904-6-7"/><path id="path5906-2-3" d="m299.09689 220.15135a3.005204 3.1377864.0 01-3.0052 3.13779 3.005204 3.1377864.0 01-3.00521-3.13779 3.005204 3.1377864.0 013.00521-3.13779 3.005204 3.1377864.0 013.0052 3.13779z" style="display:inline;fill-opacity:1;fill-rule:nonzero;fill:#c8ab37;opacity:1;stroke-dasharray:none;stroke-linecap:butt;stroke-linejoin:round;stroke-miterlimit:4;stroke-opacity:1;stroke-width:0;stroke:#000"/><path id="path5908-2-8" d="m287.07608 314.19657a3.005204 3.1377864.0 01-3.00521 3.13779 3.005204 3.1377864.0 01-3.00521-3.13779 3.005204 3.1377864.0 013.00521-3.13779 3.005204 3.1377864.0 013.00521 3.13779z" style="display:inline;fill-opacity:1;fill-rule:nonzero;fill:#c8ab37;opacity:1;stroke-dasharray:none;stroke-linecap:butt;stroke-linejoin:round;stroke-miterlimit:4;stroke-opacity:1;stroke-width:0;stroke:#000"/><path id="path5910-7-6" d="m289.9045 290.15493a3.005204 3.1377864.0 01-3.0052 3.13779 3.005204 3.1377864.0 01-3.00522-3.13779 3.005204 3.1377864.0 013.00522-3.13779 3.005204 3.1377864.0 013.0052 3.13779z" style="display:inline;fill-opacity:1;fill-rule:nonzero;fill:#c8ab37;opacity:1;stroke-dasharray:none;stroke-linecap:butt;stroke-linejoin:round;stroke-miterlimit:4;stroke-opacity:1;stroke-width:0;stroke:#000"/><path id="path5912-4-6" d="m293.08649 266.46685a3.005204 3.1377864.0 01-3.0052 3.13779 3.005204 3.1377864.0 01-3.00521-3.13779 3.005204 3.1377864.0 013.00521-3.13779 3.005204 3.1377864.0 013.0052 3.13779z" style="display:inline;fill-opacity:1;fill-rule:nonzero;fill:#c8ab37;opacity:1;stroke-dasharray:none;stroke-linecap:butt;stroke-linejoin:round;stroke-miterlimit:4;stroke-opacity:1;stroke-width:0;stroke:#000"/><path id="path5914-8-8" d="m296.44524 242.24844a3.005204 3.1377864.0 01-3.0052 3.13779 3.005204 3.1377864.0 01-3.00521-3.13779 3.005204 3.1377864.0 013.00521-3.13779 3.005204 3.1377864.0 013.0052 3.13779z" style="display:inline;fill-opacity:1;fill-rule:nonzero;fill:#c8ab37;opacity:1;stroke-dasharray:none;stroke-linecap:butt;stroke-linejoin:round;stroke-miterlimit:4;stroke-opacity:1;stroke-width:0;stroke:#000"/><path id="path5929-7-6" d="m284.42442 336.82397a3.005204 3.1377864.0 01-3.0052 3.13779 3.005204 3.1377864.0 01-3.00521-3.13779 3.005204 3.1377864.0 013.00521-3.13779 3.005204 3.1377864.0 013.0052 3.13779z" style="display:inline;fill-opacity:1;fill-rule:nonzero;fill:#c8ab37;opacity:1;stroke-dasharray:none;stroke-linecap:butt;stroke-linejoin:round;stroke-miterlimit:4;stroke-opacity:1;stroke-width:0;stroke:#000"/><path id="path5932-9-3" d="m282.83343 358.92107a3.005204 3.1377864.0 01-3.0052 3.13779 3.005204 3.1377864.0 01-3.00521-3.13779 3.005204 3.1377864.0 013.00521-3.13779 3.005204 3.1377864.0 013.0052 3.13779z" style="display:inline;fill-opacity:1;fill-rule:nonzero;fill:#c8ab37;opacity:1;stroke-dasharray:none;stroke-linecap:butt;stroke-linejoin:round;stroke-miterlimit:4;stroke-opacity:1;stroke-width:0;stroke:#000"/><path id="path5934-1-9" d="m280.88888 378.18973a3.005204 3.1377864.0 01-3.0052 3.13779 3.005204 3.1377864.0 01-3.00521-3.13779 3.005204 3.1377864.0 013.00521-3.13779 3.005204 3.1377864.0 013.0052 3.13779z" style="display:inline;fill-opacity:1;fill-rule:nonzero;fill:#c8ab37;opacity:1;stroke-dasharray:none;stroke-linecap:butt;stroke-linejoin:round;stroke-miterlimit:4;stroke-opacity:1;stroke-width:0;stroke:#000"/><path id="path5936-9-9" d="m283.379 204.10002a1.2374378 1.4584099 83.139098 01-1.59579-1.05436 1.2374378 1.4584099 83.139098 011.30015-1.4028 1.2374378 1.4584099 83.139098 011.59579 1.05436 1.2374378 1.4584099 83.139098 01-1.30015 1.4028z" style="display:inline;fill-opacity:1;fill-rule:nonzero;fill:#c8ab37;opacity:1;stroke-dasharray:none;stroke-linecap:butt;stroke-linejoin:round;stroke-miterlimit:4;stroke-opacity:1;stroke-width:0;stroke:#000"/><path id="path5938-2-0" d="m323.44032 204.30799a1.2374378 1.4584099 83.139098 01-1.59579-1.05436 1.2374378 1.4584099 83.139098 011.30015-1.4028 1.2374378 1.4584099 83.139098 011.59579 1.05436 1.2374378 1.4584099 83.139098 01-1.30015 1.4028z" style="display:inline;fill-opacity:1;fill-rule:nonzero;fill:#c8ab37;opacity:1;stroke-dasharray:none;stroke-linecap:butt;stroke-linejoin:round;stroke-miterlimit:4;stroke-opacity:1;stroke-width:0;stroke:#000"/><path d="m329.87921 425.70416c-15.4791 1.19068-42.03653 26.26041-44.60913 30.99635 10.29989-9.14088 29.75951-26.28541 44.60913-30.99635z" class="shadow" id="path5940-6-0"/><path d="m262.13712 457.55245c-6.81704-9.41592-28.83006-31.99347-34.93819-34.15183 5.05404 5.44075 26.5203 25.35081 34.93819 34.15183z" class="shadow" id="path5942-6-1"/><path d="m329.8875 425.70175c-15.4791 1.19068-42.03653 26.26041-44.60913 30.99635 10.29989-9.14088 29.75951-26.28541 44.60913-30.99635z" class="shadow" id="path5944-0-8"/><path d="m262.14541 457.55004c-6.81704-9.41592-28.83006-31.99347-34.93819-34.15183 5.05404 5.44075 26.5203 25.35081 34.93819 34.15183z" class="shadow" id="path5946-5-9"/><path id="path5948-8-4" d="m290.73517 200.30981c-.0591-.0482-1.09627-.0769-1.15683-.11691.0.0.90981-.99335.97761-1.11923.0.0-.15252-1.4205-.13214-1.57786.0.0.6608.95037.74613.84823l.98706-1.18144s-.32375 1.6382-.35104 1.85837c-.0278.22437.76596.88401.71688.97297-.11118.20153-.86921.25184-.89852.31922-.0386.0887-.39243 1.822-.39243 1.822-.0441-.10966-.46065-1.79591-.49672-1.82535z" style="display:inline;fill:maroon"/><path id="path5950-7-5" d="m306.68951 198.95155c.12445.0382 2.03328-.56036 2.15766-.53581.0.0-1.3308 2.10593-1.41247 2.34335.0.0.75849 2.11027.77426 2.36716.0.0-1.53058-1.06541-1.65235-.85396l-1.4088 2.44576s.0401-2.74346.0158-3.10212c-.0247-.36553-1.70076-.89719-1.6409-1.06571.1356-.38174 1.50658-.92986 1.53758-1.05252.0408-.16163.10389-3.07133.10389-3.07133.11787.14279 1.4494 2.50186 1.52527 2.52526z" style="display:inline;fill:maroon"/><path style="display:inline;fill-opacity:1;fill:#4d351f;opacity:1;stroke-dasharray:none;stroke-linecap:butt;stroke-linejoin:miter;stroke-miterlimit:4;stroke-opacity:1;stroke-width:0;stroke:#000" d="m229.36435 347.23732c.007-.13533 2.64156-12.08213 3.2391-11.74749 5.64391 3.16074 125.58861 7.82779 125.92464 5.10251.0208-.16859-1.03136 3.34097-1.66392 6.84881-.42945 2.38152 1.61843 4.44512 1.31734 5.23825.0797 1.87442-127.91259-2.1459-128.81716-5.44208z" id="path5952-02-9"/><path id="path5954-1-6" d="m273.38517 346.92057a1.2374377 1.3479245.0 01-1.23743 1.34792 1.2374377 1.3479245.0 01-1.23744-1.34792 1.2374377 1.3479245.0 011.23744-1.34793 1.2374377 1.3479245.0 011.23743 1.34793z" style="display:inline;fill-opacity:1;fill-rule:nonzero;fill:#000;opacity:1;stroke-dasharray:none;stroke-linecap:butt;stroke-linejoin:round;stroke-miterlimit:4;stroke-opacity:1;stroke-width:0;stroke:#000"/><path id="path5956-9-2" d="m268.57675 338.83472c-.13407 4.75154-.24689 8.9957-.37141 14.48554.57028.0157 7.76933.57721 7.76598.20263-79e-5-.10615.27306-1.56653-.1108-1.65014-.41402-.0902-6.04016.11043-5.96194-.40107.0589-.3853.26808-8.3539.32354-10.31849.0102-.36892 6.24425.0815 6.28073-.23311.18908-1.63147.0982-1.89392-.19654-2.05851-5.0226-.13054-7.67079-.54287-7.72956-.0269z" style="display:inline;fill-opacity:1;fill-rule:nonzero;fill:#c8ab37;opacity:1;stroke-dasharray:none;stroke-linecap:butt;stroke-linejoin:round;stroke-miterlimit:4;stroke-opacity:1;stroke-width:0;stroke:#000"/><path id="path5958-5-4" d="m266.80189 348.19497c.008-.36892 4.89933.0815 4.92795-.23311.14835-1.63147.077-1.89392-.15421-2.05851-3.9408-.13054-4.44938-.1465-4.78971.006-.17423.43643-.16585 1.10969.0159 2.28554z" style="display:inline;fill-opacity:1;fill-rule:nonzero;fill:#c8ab37;opacity:1;stroke-dasharray:none;stroke-linecap:butt;stroke-linejoin:round;stroke-miterlimit:4;stroke-opacity:1;stroke-width:0;stroke:#000"/><path id="path5960-7-9" d="m288.20021 339.57505c-.11087 4.65361-.20298 8.81027-.30069 14.18682.57034.0126 7.77205.52651 7.76687.15971.10342-4.60823.40613-13.59162.26341-14.35877-5.02317-.10279-7.67334-.49337-7.72959.0121z" style="display:inline;fill-opacity:1;fill-rule:nonzero;fill:#000;opacity:1;stroke-dasharray:none;stroke-linecap:butt;stroke-linejoin:round;stroke-miterlimit:4;stroke-opacity:1;stroke-width:0;stroke:#000"/><path id="path5962-99-8" d="m288.48669 339.79244c-.10181 4.5108-.18631 8.53988-.27576 13.75142.52872.0124 7.20478.51198 7.19991.15644.0949-4.4668.37361-13.17445.24115-13.91809-4.65649-.1007-7.11328-.47984-7.1653.0101z" style="display:inline;fill-opacity:1;fill-rule:nonzero;fill:#4d351f;opacity:1;stroke-dasharray:none;stroke-linecap:butt;stroke-linejoin:round;stroke-miterlimit:4;stroke-opacity:1;stroke-width:0;stroke:#000"/><path id="path5964-4-7" d="m282.35659 347.4288a1.2374377 1.3479245.0 01-1.23743 1.34792 1.2374377 1.3479245.0 01-1.23744-1.34792 1.2374377 1.3479245.0 011.23744-1.34793 1.2374377 1.3479245.0 011.23743 1.34793z" style="display:inline;fill-opacity:1;fill-rule:nonzero;fill:#000;opacity:1;stroke-dasharray:none;stroke-linecap:butt;stroke-linejoin:round;stroke-miterlimit:4;stroke-opacity:1;stroke-width:0;stroke:#000"/><path id="path5966-2-3" d="m302.86269 348.09171a1.2374377 1.3479245.0 01-1.23743 1.34792 1.2374377 1.3479245.0 01-1.23744-1.34792 1.2374377 1.3479245.0 011.23744-1.34793 1.2374377 1.3479245.0 011.23743 1.34793z" style="display:inline;fill-opacity:1;fill-rule:nonzero;fill:#000;opacity:1;stroke-dasharray:none;stroke-linecap:butt;stroke-linejoin:round;stroke-miterlimit:4;stroke-opacity:1;stroke-width:0;stroke:#000"/><path id="path5968-7-8" d="m314.66253 348.2243a1.2374377 1.3479245.0 01-1.23743 1.34792 1.2374377 1.3479245.0 01-1.23744-1.34792 1.2374377 1.3479245.0 011.23744-1.34793 1.2374377 1.3479245.0 011.23743 1.34793z" style="display:inline;fill-opacity:1;fill-rule:nonzero;fill:#000;opacity:1;stroke-dasharray:none;stroke-linecap:butt;stroke-linejoin:round;stroke-miterlimit:4;stroke-opacity:1;stroke-width:0;stroke:#000"/><path id="path5970-28-8" d="m262.36245 346.24997a1.2374377 1.3479245.0 01-1.23743 1.34792 1.2374377 1.3479245.0 01-1.23744-1.34792 1.2374377 1.3479245.0 011.23744-1.34793 1.2374377 1.3479245.0 011.23743 1.34793z" style="display:inline;fill-opacity:1;fill-rule:nonzero;fill:#000;opacity:1;stroke-dasharray:none;stroke-linecap:butt;stroke-linejoin:round;stroke-miterlimit:4;stroke-opacity:1;stroke-width:0;stroke:#000"/><path id="path5962-5-3-3" d="m317.8871 341.11473c-.12429 4.27858-.22887 8.10029-.3443 13.04368.52865.0143 7.20214.51975 7.19904.18245 7.9285-2.2417 8.34159-5.81553 8.22628-6.35944-.11049-.5212-1.0958-4.86329-7.91575-6.84252-4.65593-.11755-7.1108-.48883-7.16527-.0242z" style="display:inline;fill-opacity:1;fill-rule:nonzero;fill:#000;opacity:1;stroke-dasharray:none;stroke-linecap:butt;stroke-linejoin:round;stroke-miterlimit:4;stroke-opacity:1;stroke-width:0;stroke:#000"/><path id="path5962-5-4-8-1" d="m317.10794 341.62579c-.12505 3.89924-.23026 7.38209-.34639 11.88719.53186.013 7.24588.47367 7.24275.16629 7.97665-2.04296 8.39224-5.29992 8.27624-5.79561-.11116-.47498-1.10246-4.4321-7.96382-6.23584-4.6842-.10714-7.15398-.44549-7.20878-.0221z" style="display:inline;fill-opacity:1;fill-rule:nonzero;fill:#4d351f;opacity:1;stroke-dasharray:none;stroke-linecap:butt;stroke-linejoin:round;stroke-miterlimit:4;stroke-opacity:1;stroke-width:0;stroke:#000"/></svg>