<svg viewBox="0 0 560 1e3"><path id="path3186" class="shadow" d="m283.66521 456.38067c-1.54841.73859-1.78928 15.78672-9.24659 11.14886-5.5459 3.1603-10.12915-4.94173-10.42429-8.4126-.25114-2.95343 3.37748-7.20053 3.87403-6.51846 2.14579-.003 16.30971 2.85987 15.79685 3.7822z"/><path id="path3188" class="skin torso" d="m274.36595 467.58332c-3.81452 2.31718-9.64064-2.27902-10.8644-11.68664 5.95334-21.67633 25.49385-8.31185 20.23612.35499-2.87984 4.74713-3.52005 14.37508-9.37172 11.33165z"/><path style="display:inline;fill-opacity:1;fill-rule:evenodd;fill:#000;opacity:1;stroke-dasharray:none;stroke-linecap:butt;stroke-linejoin:miter;stroke-miterlimit:4;stroke-opacity:1;stroke-width:0;stroke:#000" d="m348.04007 404.56705c.8928 1.03783 2.36114 4.19485 2.36114 4.19485-8.19048 4.90102-37.06099 18.24769-49.49598 28.75086-4.31136 3.64157-13.47661 8.29154-16.37051 16.44054-2.5916 7.29773-3.38661 17.01008-9.75403 14.37033-.12708-.0527-.25389-.22936-.38798-.17253-3.64553 1.54503-9.35333-.74065-11.22863-12.26551-2.95293-18.14755-12.84146-17.24873-13.71165-17.80621-12.60056-8.07247-21.3889-19.81687-24.85362-25.1259.0593-.70684 4.38552-10.43066 4.38552-10.43066 30.95156 34.29024 95.73566 8.25021 119.05574 2.04423z" id="path3190"/><path style="display:inline;fill-opacity:1;fill-rule:evenodd;fill:#c837ab;opacity:1;stroke-dasharray:none;stroke-linecap:butt;stroke-linejoin:miter;stroke-miterlimit:4;stroke-opacity:1;stroke-width:0;stroke:#000" d="m348.09137 404.41002c.8928 1.03783 7.65296 10.61427 7.65296 10.61427-8.19048 4.90102-42.72781 14.82827-55.1628 25.33144-4.31136 3.64157-11.26256 9.46273-16.37051 16.44054-.27428.37469-.68811.67278-.81935 1.10672-3.57923 11.83428-8.32513 9.8537-8.89431 9.63462-.17013-.0655-6.10005 2.75363-10.61356-7.80676-.19489-.456-.68412-.47689-1.06552-.9139-12.08963-13.85259-12.89657-16.10688-13.68955-16.7696-11.01462-9.20529-21.8838-23.07051-25.35362-28.3759.0593-.70684 5.26052-10.68066 5.26052-10.68066 29.7895 36.10978 96.86066 8.37521 119.05574 1.41923z" id="path3192"/><path style="display:inline;fill-opacity:1;fill-rule:evenodd;fill:#fff;opacity:1;stroke-dasharray:none;stroke-linecap:butt;stroke-linejoin:miter;stroke-miterlimit:4;stroke-opacity:1;stroke-width:0;stroke:#000" d="m336.64967 423.6121c.60089-.41225 1.13199-.59213 2.54356-1.3377-1.0628-4.12041-4.37123-12.28078-5.0678-13.31985-.7862.0327-1.83855.6871-1.83855.6871 2.88662 6.66143 3.12331 7.97246 4.36279 13.97045z" id="path3194"/><path id="path2225" d="m368.45236 268.83602c.40069 1.40387.82871 12.89967-6.36035 37.77919-7.32948 25.39302-46.25579 50.21893-32.10865 72.69961-32.89181 6.65266-76.33001 11.61922-90.69809-5.38372 2.433-12.49684 4.19127-19.92717 4.36254-35.13031.24452-21.70551-6.08737-33.66342-6.98584-46.20078.01-34.93896 35.59482-80.76365 40.55964-86.74581-.63873-.33426 5.09757-2.74283 9.6221-5.14517 9.24713 11.38115 25.18214 3.12903 31.26177-2.13928 1.50252 1.12706 9.10193 4.89722 7.88644 5.69617 6.77143 3.65553 43.70703 42.82055 42.46044 64.5701z" style="display:inline;fill-opacity:1;fill-rule:evenodd;fill:#000;opacity:1;stroke-dasharray:none;stroke-linecap:butt;stroke-linejoin:miter;stroke-miterlimit:4;stroke-opacity:1;stroke-width:0;stroke:#000"/><path id="path2228" d="m368.47602 268.56519c-.47811 3.70196-1.71839 20.80284-7.95729 39.14162-5.70331 22.34363-45.52558 47.64607-32.17465 70.44625-31.15729 6.94181-77.3071 10.62018-87.90947-4.94057 2.40743-12.49684 4.43231-29.2995 4.60178-32.17365-.1476-10.44409-1.44586-19.82674-2.8659-28.77626-5.91401-19.41721-8.7532-46.04393 7.0264-77.28652 5.47526-12.172 14.20592-22.3353 27.73923-28.99495.49229-.51848 5.43756-2.25669 9.91452-4.65903 9.14993 11.38115 24.91744 3.12903 30.93316-2.13928 1.48672 1.12706 18.23182 7.00546 18.7637 8.34782 40.52013.35863 32.77744 49.56405 31.92852 61.03457z" style="display:inline;fill-opacity:1;fill-rule:evenodd;fill:#c837ab;opacity:1;stroke-dasharray:none;stroke-linecap:butt;stroke-linejoin:miter;stroke-miterlimit:4;stroke-opacity:1;stroke-width:0;stroke:#000"/></svg>