<svg viewBox="0 0 560 1e3"><path d="m268.27154 469.92492c-.0158.6647-.84695 1.44738-1.68117 1.71771-.48224.15628-1.03481.085-1.38042.0792-.5544-.009-1.34628-.73514-1.44002-.99964.14311-1.13885 2.36849-2.25901 4.50161-.79728z" id="path7125" style="fill:#000"/><path d="m268.03053 469.90414c-.0147.6209-.71374 1.22646-1.49093 1.47898-.44928.14599-.96407.0794-1.28606.074-.51651-.009-1.15383-.56117-1.24116-.80824.13332-1.0638 2.03085-2.11015 4.01815-.74474z" id="path7127" class="areola"/><path d="m264.39516 455.0688c1.32312-2.48386 6.05235-4.11057 6.50323 1.5889.14942.32078-.20161 1.76168-.62357 3.57383-.48325 1.76922-.8664 3.78066-1.05438 5.78489-.14723 1.56968-.19048 3.10818-1.15936 4.08977-.68912.58543-1.80532.79706-2.75375.78249-.55731-.009-1.53231-.0339-1.70316-.16637-.68004-.52712-1.06626-1.05654-1.63143-1.82797-.0705-.34019.076-.50998.0453-.63891-.3854-1.62202-.26689-4.05464.23031-6.76726.42641-2.3264 1.15551-4.67505 2.14676-6.41937z" id="path7129" style="fill:#000"/><path class="skin penis" d="m264.71842 454.58373c1.18319-2.53904 5.41225-4.2019 5.81545 1.6242.13361.32791-.18028 1.80081-.55762 3.65324-.43214 1.80851-.93627 3.83098-1.10437 5.87975-.13166 1.60455-.17033 3.17723-1.03674 4.18063-.61623.59844-1.48716.78893-2.33527.77404-.49837-.009-1.5156-65e-5-1.66839-.13641-.60812-.53883-.91924-1.02051-1.42463-1.80908-.0735-.22624.0679-.52131.0405-.65311-.34463-1.65806-.0933-4.17838.35131-6.95127.3813-2.37808 1.03329-4.77891 1.9197-6.56199z" id="path7131"/></svg>