<svg viewBox="0 0 560 1e3"><path style="display:inline;fill-opacity:1;fill-rule:evenodd;fill:#000;opacity:1;stroke-dasharray:none;stroke-linecap:butt;stroke-linejoin:miter;stroke-miterlimit:4;stroke-opacity:1;stroke-width:0;stroke:#000" d="m370.57368 269.7199c-3.15405 28.17315-11.2699 55.98144-20.49357 83.43533.67758 1.80275 19.10763 38.85648 11.79087 62.12132.0274-.17435-55.11176 15.1138-75.29171 36.05686-4.92627 5.11256-3.48792 15.45153-7.05147 16.69466-13.46483 4.69716-17.71458-10.66263-17.71458-10.66263-6.67546-8.9041-31.17323-37.74254-36.54649-43.43743-7.25239-24.13815 13.80958-79.68521 13.20996-94.91728-.72423-18.39757-4.58127-31.55035-.69477-66.41121 43.76576-4.88221 102.05269.92273 132.79176 17.12038z" id="path4094-7"/><path style="display:inline;fill-opacity:1;fill-rule:evenodd;fill:#c8c8c8;opacity:1;stroke-dasharray:none;stroke-linecap:butt;stroke-linejoin:miter;stroke-miterlimit:4;stroke-opacity:1;stroke-width:0;stroke:#000" d="m370.59734 269.44907c-4.19455 30.04596-14.53779 60.65539-22.05713 84.00645 8.05561 14.58418 16.41749 43.12023 13.96756 66.05396-33.98941 14.44552-61.80683 21.94132-81.53755 48.02752-.34473.71459-4.28479 1.02682-6.08184 2.18944-8.64043 5.59002-13.52858-12.764-13.52858-12.764-28.92735-8.27388-37.19517-35.24738-36.13062-42.49408-4.60424-23.22177 15.20465-80.84688 15.20465-95.28934-2.28936-19.57951-5.31745-49.63239-.83975-66.11193 57.4531-10.65718 112.96792 2.25646 131.00323 16.38198z" id="path4096-6"/><path id="path3401-2-3-0" class="shadow" d="m329.90806 425.67038c-15.4791 1.19068-42.03653 26.26041-44.60913 30.99635 10.29989-9.14088 29.75951-26.28541 44.60913-30.99635z"/><path id="path3406-2-8-6" class="shadow" d="m262.16597 457.51867c-6.81704-9.41592-28.83006-31.99347-34.93819-34.15183 5.05404 5.44075 26.5203 25.35081 34.93819 34.15183z"/></svg>