<svg viewBox="0 0 560 1e3"><path id="path2087" class="hair" d="m345.1 109.5599c-2.40991 42.16334 1.26598 28.16096-19.23402 61.45269-1.89066-.99898-7.3595-39.84872-23.51619-42.23238-22.75811-3.35759-15.65258 41.88669-20.33113 32.99837-15.13336-18.81342-21.04419-4.90315-18.4681-30.62072 2.98982-29.84794 19.14314-57.367236 45.24944-52.264691 33.3 6.5136 33.8 15.015998 36.3 30.666731"/><path id="path2089" class="hair" d="m339.64662 176.34707c-9.62117-2.43072-11.36232-33.16964-.75186-42.4603 9.034 7.46842 7.9605 44.2815.75186 42.4603z"/><path id="path2091" class="hair" d="m341.62885 154.77494c-9.62117-2.43072-11.36232-33.16964-.75186-42.4603 9.034 7.46843 7.9605 44.28151.75186 42.4603z"/><path id="path2095" class="hair" d="m328.82845 177.09591c-9.42252-3.76011-8.99733-39.81349 2.2358-49.64282 8.48282 9.58515 4.82401 52.46005-2.2358 49.64282z"/><path id="path2097" class="hair" d="m335.88792 200.3938c-9.62117-2.43072-11.36232-33.16964-.75186-42.46031 9.034 7.46843 7.9605 44.28151.75186 42.46031z"/><path id="path2099" class="hair" d="m327.13792 200.00364c-9.62117-2.3903-11.36232-32.6181-.75186-41.75428 9.034 7.34424 7.9605 43.5452.75186 41.75428z"/><path id="path2103" class="hair" d="m281.51292 195.24702c-9.62117-2.43072-11.36232-33.16964-.75186-42.46031 9.034 7.46843 7.9605 44.28151.75186 42.46031z"/><path id="path2105" class="hair" d="m272.76292 195.56288c-9.62117-2.43072-11.36232-33.16964-.75186-42.4603 9.034 7.46842 7.9605 44.2815.75186 42.4603z"/><path id="path2097-6" class="hair" d="m336.08534 231.35919c-9.62117-2.43072-11.36232-33.16964-.75186-42.46031 9.034 7.46843 7.9605 44.28151.75186 42.46031z"/><path id="path2099-8" class="hair" d="m327.33534 230.96903c-9.62117-2.3903-11.36232-32.6181-.75186-41.75428 9.034 7.34424 7.9605 43.5452.75186 41.75428z"/><path id="path2097-4" class="hair" d="m341.66421 333.71478c-9.62117-2.43072-11.36232-33.16964-.75186-42.46031 9.034 7.46843 7.9605 44.28151.75186 42.46031z"/><path id="path2099-1" class="hair" d="m332.91421 333.32462c-9.62117-2.3903-11.36232-32.6181-.75186-41.75428 9.034 7.34424 7.9605 43.5452.75186 41.75428z"/><path id="path2097-6-5" class="hair" d="m341.86163 364.68017c-9.62117-2.43072-11.36232-33.16964-.75186-42.46031 9.034 7.46843 7.9605 44.28151.75186 42.46031z"/><path id="path2099-8-6" class="hair" d="m333.11163 364.29001c-9.62117-2.3903-11.36232-32.6181-.75186-41.75428 9.034 7.34424 7.9605 43.5452.75186 41.75428z"/><path id="path2103-0" class="hair" d="m281.13792 224.91454c-9.62118-2.43072-11.36233-33.16964-.75186-42.46031 9.034 7.46843 7.9605 44.28151.75186 42.46031z"/><path id="path2105-4" class="hair" d="m273.76291 223.3554c-9.62117-2.43072-11.36232-33.16964-.75186-42.4603 9.03401 7.46842 7.96051 44.2815.75186 42.4603z"/><path id="path2097-6-5-9" class="hair" d="m342.28602 394.42997c-.54591-.19162-22.60022-37.57721-1.59938-37.15988 14.25272.66108 2.17153 37.36071 1.59938 37.15988z"/><path d="m272.38138 173.26793c-9.62117-2.43072-11.36232-33.16964-.75186-42.4603 9.034 7.46842 7.9605 44.2815.75186 42.4603z" class="hair" id="path2057-2-0"/></svg>