<svg viewBox="0 0 560 1e3"><path style="display:inline;fill:#000;stroke-width:1.0119046" d="m215.71289 528.50586c4.15758 36.61249 12.78521 76.90092 17.98865 99.95807 4.83998 21.44656 9.58617 35.08906 9.61569 35.37615.51542 5.00681 3.94887 43.88085 3.94887 45.65427 2.21926 37.60806 3.27405 106.118 4.63685 131.49958.20786 3.87134-1.89101 9.25621-2.39199 10.81637-.37119 3.19822-3.8617 9.50227-4.19742 12.20917-8.99052 16.26873-1.10095 44.09537.11135 53.22532.72413 1.38662-3.22988 13.64359-10.00541 15.07534-5.41523 1.14417-2.03598 10.74177.98622 16.57619 2.3511 1.10639 23.76728.73628 26.43917.33396 5.98444-5.83369 5.3442-40.93796 8.97742-57.43322 2.45795 12.67319.64115 45.56311 1.28249 56.82816h.85499c.85492-10.15866 1.1753-56.82816 4.1676-72.41818-1.28268-7.54356-9.09502-15.58846-12.08721-15.99078-.32346.0205-.96403-10.89732-1.46741-10.93031-.0208-.001-.0408-63e-5-.0616-.002.002-.0996-.004-.19865.002-.29859 1.15495-17.85597 8.83661-48.93331 11.58814-59.6295 7.71547-30.06043 17.15837-67.2253 5.20153-102.4667 2.39046-27.01075 3.42706-43.10062 3.56313-43.67996 1.5193-17.0836 3.03465-34.66626 2.71013-41.49155-.0524-1.10364-.14116-2.18911-.22866-3.27477 1.73912 6.88988 3.23897 12.4644 4.02842 15.6686 2.59705 15.97992 13.85962 38.06198 21.16802 65.92758-9.90474 31.95551-6.65786 67.25167-.82119 100.1663 2.88137 22.93137 6.73343 43.25161 7.172 66.82142.0103.1223.0276.23378.0398.3536-.25436.83084-.0677 10.46696.83313 13.92809-1.81677 20.4179-2.59863 36.42282-1.74379 50.60472-2.77857 6.83949 1.39034 28.76768 8.65729 47.87803 3.41965 1.91104 8.22796 2.61471 10.7928-.40272 6.83951-23.033 12.18351-40.43348 9.83242-47.27298-.6412-10.05808-4.80963-38.82497-9.83242-52.60454-.21085-.0828-.48346-11.06642-.74564-12.21507 2e-4-.006.002-.0117.002-.0177.0102-.34085-.1383-.72885-.12726-1.06867 1.59328-49.01843 12.63652-87.56242 9.8861-141.59696-.0873-1.70928-1.37967-21.38662-1.83923-24.68159-.0959-.68787 12.30629-49.64412 12.22129-141.62415-27.88118 9.71576-60.49739 2.0133-81.00844-7.18437.28213 5.2469.79278 10.559 1.43558 15.84345-.76716-5.02128-1.31278-10.242-1.45944-15.78844-2.41762.59303-31.34231 9.77804-60.12589-2.67168z" id="XMLID_488_-1"/><path style="display:inline;fill:#000;stroke-width:1.00651145" d="m217.7005 529.31836c4.11338 36.61249 13.96179 76.08842 19.10991 99.14557 4.78853 21.44656 9.48426 35.08906 9.51347 35.37615.50994 5.00681 3.90689 43.88085 3.90689 45.65427 2.19566 37.60806 3.23924 106.118 4.58755 131.49958.20565 3.87134-1.8709 9.25621-2.36656 10.81637-.36724 3.19822-3.82064 9.50227-4.1528 12.20917-8.89494 16.26873-1.08924 44.09537.11017 53.22532.71643 1.38662-3.19554 13.64359-9.89904 15.07534-5.35766 1.14417-2.01434 10.74177.97573 16.57619 2.32611 1.10639 23.51461.73628 26.1581.33396 5.92082-5.83369 5.28738-40.93796 8.88198-57.43322 2.43182 12.67319.63433 45.56311 1.26885 56.82816h.8459c.84584-10.15866 1.16281-56.82816 4.1233-72.41818-1.26904-7.54356-8.99833-15.58846-11.95871-15.99078-.32002.0205-.95378-10.89732-1.45181-10.93031-.0206-.001-.0404-63e-5-.0609-.002.002-.0996-.004-.19865.002-.29859 1.14267-17.85597 8.74267-48.93331 11.46495-59.6295 7.63344-30.06043 16.97596-67.2253 5.14623-102.4667 2.36505-27.01075 3.39063-43.10062 3.52525-43.67996 1.50315-17.0836 3.00239-34.66626 2.68132-41.49155-.0518-1.10364-.13966-2.18911-.22623-3.27477 1.72063 6.88988 3.20454 12.4644 3.98559 15.6686 2.56944 15.97992 13.71228 38.06198 20.94299 65.92758-9.79945 31.95551-6.58708 67.25167-.81246 100.1663 2.85073 22.93137 6.66184 43.25161 7.09575 66.82142.0102.1223.0273.23378.0394.3536-.25166.83084-.067 10.46696.82427 13.92809-1.79746 20.4179-2.571 36.42282-1.72525 50.60472-2.74903 6.83949 1.37556 28.76768 8.56525 47.87803 3.3833 1.91104 8.14049 2.61471 10.67806-.40272 6.7668-23.033 12.05399-40.43348 9.72789-47.27298-.63438-10.05808-4.75849-38.82497-9.72789-52.60454-.20861-.0828-.47832-11.06642-.73771-12.21507 2e-4-.006.002-.0117.002-.0177.0101-.34085-.13683-.72885-.12591-1.06867 1.57634-49.01843 12.50218-87.56242 9.781-141.59696-.0864-1.70928-1.365-21.38662-1.81967-24.68159-.0949-.68787 12.11362-50.26912 12.02952-142.24915-27.58477 9.71576-59.7924 2.6383-80.0854-6.55937.27914 5.2469.78436 10.559 1.42032 15.84345-.759-5.02128-1.29882-10.242-1.44392-15.78844-2.39192.59303-32.32161 10.59054-60.79919-1.85918z" id="XMLID_488_-1-6"/><path d="m218.21289 531.00586c4.08392 36.40107 12.55867 76.45685 17.66992 99.38086 4.75422 21.32271 9.41632 34.88643 9.44531 35.17187.50629 4.97789 3.87891 43.62745 3.87891 45.39063 2.17994 37.39089 3.21603 105.50522 4.55469 130.74023.20418 3.84899-1.8575 9.20276-2.34961 10.75391-.36461 3.17975-3.79327 9.4474-4.12305 12.13867-8.83122 16.17478-1.08144 43.84074.10938 52.91797.7113 1.37861-3.17265 13.5648-9.82813 14.98828-5.31928 1.13757-1.9999 10.67974.96875 16.48047 2.30944 1.1 23.34615.73203 25.97071.33203 5.87841-5.8 5.24951-40.70156 8.81835-57.10156 2.4144 12.6.62979 45.3 1.25977 56.5h.83984c.83978-10.1 1.15448-56.5 4.09375-72-1.25995-7.5-8.93387-15.49844-11.87304-15.89844-.31772.0204-.94694-10.83439-1.44141-10.86719-.0205-.001-.0401-63e-5-.0605-.002.002-.099-.004-.1975.002-.29687 1.13448-17.75286 8.68003-48.65074 11.38281-59.28516 7.57877-29.88685 16.85435-66.83711 5.10937-101.875 2.3481-26.85478 3.36634-42.85174 3.5-43.42773 1.49238-16.98495 2.98088-34.46608 2.66211-41.25196-.0515-1.09726-.13866-2.17646-.22461-3.25586 1.70831 6.8501 3.18159 12.39243 3.95704 15.57813 2.55104 15.88764 13.61405 37.84218 20.79296 65.54687-9.72924 31.77098-6.53989 66.86332-.80664 99.58789 2.83032 22.79895 6.61413 43.00185 7.04493 66.43555.0101.1216.0271.23243.0391.35156-.24985.82604-.0665 10.40652.81836 13.84766-1.78457 20.3-2.55258 36.2125-1.71289 50.3125-2.72934 6.8 1.36571 28.60156 8.5039 47.60156 3.35906 1.9 8.08218 2.59961 10.60157-.40039 6.71833-22.9 11.96763-40.2 9.6582-47-.62983-10-4.72441-38.60078-9.6582-52.30078-.20711-.0823-.47489-11.00251-.73243-12.14453 2e-4-.006.002-.0116.002-.0176.01-.33888-.13585-.72464-.125-1.0625 1.56505-48.73537 12.41262-87.05678 9.71094-140.7793-.0857-1.69941-1.35523-21.26312-1.80665-24.53906-.0942-.6839 12.02685-49.97884 11.94336-141.42773-27.38718 9.65966-59.36409 2.62307-79.51171-6.52149.27713 5.2166.77873 10.49803 1.41015 15.75196-.75357-4.99228-1.28953-10.18286-1.43359-15.69727-2.37478.58961-30.78697 9.72158-59.06055-2.65625z" id="XMLID_488_" class="shoe"/><path d="m218.21289 531.00586c4.08392 36.40107 12.55867 76.45685 17.66992 99.38086 4.75422 21.32271 9.41632 34.88643 9.44531 35.17187.50629 4.97789 3.87891 43.62745 3.87891 45.39063 2.17994 37.39089 3.21603 105.50522 4.55469 130.74023.20418 3.84899-1.8575 9.20276-2.34961 10.75391-.36461 3.17975-3.79327 9.4474-4.12305 12.13867-8.83122 16.17478-1.08144 43.84074.10938 52.91797.7113 1.37861-3.17265 13.5648-9.82813 14.98828-5.31928 1.13757-1.9999 10.67974.96875 16.48047 2.30944 1.1 23.34615.73203 25.97071.33203 5.87841-5.8 5.24951-40.70156 8.81835-57.10156 2.4144 12.6.62979 45.3 1.25977 56.5h.83984c.83978-10.1 1.15448-56.5 4.09375-72-1.25995-7.5-8.93387-15.49844-11.87304-15.89844-.31772.0204-.94694-10.83439-1.44141-10.86719-.0205-.001-.0401-63e-5-.0605-.002.002-.099-.004-.1975.002-.29687 1.13448-17.75286 8.68003-48.65074 11.38281-59.28516 7.57877-29.88685 16.85435-66.83711 5.10937-101.875 2.3481-26.85478 3.36634-42.85174 3.5-43.42773 1.49238-16.98495 2.98088-34.46608 2.66211-41.25196-.0515-1.09726-.13866-2.17646-.22461-3.25586 1.70831 6.8501 3.18159 12.39243 3.95704 15.57813 2.55104 15.88764 13.61405 37.84218 20.79296 65.54687-9.72924 31.77098-6.53989 66.86332-.80664 99.58789 2.83032 22.79895 6.61413 43.00185 7.04493 66.43555.0101.1216.0271.23243.0391.35156-.24985.82604-.0665 10.40652.81836 13.84766-1.78457 20.3-2.55258 36.2125-1.71289 50.3125-2.72934 6.8 1.36571 28.60156 8.5039 47.60156 3.35906 1.9 8.08218 2.59961 10.60157-.40039 6.71833-22.9 11.96763-40.2 9.6582-47-.62983-10-4.72441-38.60078-9.6582-52.30078-.20711-.0823-.47489-11.00251-.73243-12.14453 2e-4-.006.002-.0116.002-.0176.01-.33888-.13585-.72464-.125-1.0625 1.56505-48.73537 12.41262-87.05678 9.71094-140.7793-.0857-1.69941-1.35523-21.26312-1.80665-24.53906-.0942-.6839 12.02685-49.97884 11.94336-141.42773-27.38718 9.65966-59.36409 2.62307-79.51171-6.52149.27713 5.2166.77873 10.49803 1.41015 15.75196-.75357-4.99228-1.28953-10.18286-1.43359-15.69727-2.37478.58961-30.78697 9.72158-59.06055-2.65625z" id="XMLID_488_-16" class="shoe"/><path d="m218.21289 531.00586c4.08392 36.40107 12.55867 76.45685 17.66992 99.38086 4.75422 21.32271 9.41632 34.88643 9.44531 35.17187.50629 4.97789 3.87891 43.62745 3.87891 45.39063 2.17994 37.39089 3.21603 105.50522 4.55469 130.74023.20418 3.84899-1.8575 9.20276-2.34961 10.75391-.36461 3.17975-3.79327 9.4474-4.12305 12.13867-8.83122 16.17478-1.08144 43.84074.10938 52.91797.7113 1.37861-3.17265 13.5648-9.82813 14.98828-5.31928 1.13757-1.9999 10.67974.96875 16.48047 2.30944 1.1 23.34615.73203 25.97071.33203 5.87841-5.8 5.24951-40.70156 8.81835-57.10156 2.4144 12.6.62979 45.3 1.25977 56.5h.83984c.83978-10.1 1.15448-56.5 4.09375-72-1.25995-7.5-8.93387-15.49844-11.87304-15.89844-.31772.0204-.94694-10.83439-1.44141-10.86719-.0205-.001-.0401-63e-5-.0605-.002.002-.099-.004-.1975.002-.29687 1.13448-17.75286 8.68003-48.65074 11.38281-59.28516 7.57877-29.88685 16.85435-66.83711 5.10937-101.875 2.3481-26.85478 3.36634-42.85174 3.5-43.42773 1.49238-16.98495 2.98088-34.46608 2.66211-41.25196-.0515-1.09726-.13866-2.17646-.22461-3.25586 1.70831 6.8501 3.18159 12.39243 3.95704 15.57813 2.55104 15.88764 13.61405 37.84218 20.79296 65.54687-9.72924 31.77098-6.53989 66.86332-.80664 99.58789 2.83032 22.79895 6.61413 43.00185 7.04493 66.43555.0101.1216.0271.23243.0391.35156-.24985.82604-.0665 10.40652.81836 13.84766-1.78457 20.3-2.55258 36.2125-1.71289 50.3125-2.72934 6.8 1.36571 28.60156 8.5039 47.60156 3.35906 1.9 8.08218 2.59961 10.60157-.40039 6.71833-22.9 11.96763-40.2 9.6582-47-.62983-10-4.72441-38.60078-9.6582-52.30078-.20711-.0823-.47489-11.00251-.73243-12.14453 2e-4-.006.002-.0116.002-.0176.01-.33888-.13585-.72464-.125-1.0625 1.56505-48.73537 12.41262-87.05678 9.71094-140.7793-.0857-1.69941-1.35523-21.26312-1.80665-24.53906-.0942-.6839 12.02685-49.97884 11.94336-141.42773-27.38718 9.65966-59.36409 2.62307-79.51171-6.52149.27713 5.2166.77873 10.49803 1.41015 15.75196-.75357-4.99228-1.28953-10.18286-1.43359-15.69727-2.37478.58961-30.78697 9.72158-59.06055-2.65625z" id="XMLID_488_-16-1" class="shoe"/><path d="m218.21289 531.00586c4.08392 36.40107 12.55867 76.45685 17.66992 99.38086 4.75422 21.32271 9.41632 34.88643 9.44531 35.17187.50629 4.97789 3.87891 43.62745 3.87891 45.39063 2.17994 37.39089 3.21603 105.50522 4.55469 130.74023.20418 3.84899-1.8575 9.20276-2.34961 10.75391-.36461 3.17975-3.79327 9.4474-4.12305 12.13867-8.83122 16.17478-1.08144 43.84074.10938 52.91797.7113 1.37861-3.17265 13.5648-9.82813 14.98828-5.31928 1.13757-1.9999 10.67974.96875 16.48047 2.30944 1.1 23.34615.73203 25.97071.33203 5.87841-5.8 5.24951-40.70156 8.81835-57.10156 2.4144 12.6.62979 45.3 1.25977 56.5h.83984c.83978-10.1 1.15448-56.5 4.09375-72-1.25995-7.5-8.93387-15.49844-11.87304-15.89844-.31772.0204-.94694-10.83439-1.44141-10.86719-.0205-.001-.0401-63e-5-.0605-.002.002-.099-.004-.1975.002-.29687 1.13448-17.75286 8.68003-48.65074 11.38281-59.28516 7.57877-29.88685 16.85435-66.83711 5.10937-101.875 2.3481-26.85478 3.36634-42.85174 3.5-43.42773 1.49238-16.98495 2.98088-34.46608 2.66211-41.25196-.0515-1.09726-.13866-2.17646-.22461-3.25586 1.70831 6.8501 3.18159 12.39243 3.95704 15.57813 2.55104 15.88764 13.61405 37.84218 20.79296 65.54687-9.72924 31.77098-6.53989 66.86332-.80664 99.58789 2.83032 22.79895 6.61413 43.00185 7.04493 66.43555.0101.1216.0271.23243.0391.35156-.24985.82604-.0665 10.40652.81836 13.84766-1.78457 20.3-2.55258 36.2125-1.71289 50.3125-2.72934 6.8 1.36571 28.60156 8.5039 47.60156 3.35906 1.9 8.08218 2.59961 10.60157-.40039 6.71833-22.9 11.96763-40.2 9.6582-47-.62983-10-4.72441-38.60078-9.6582-52.30078-.20711-.0823-.47489-11.00251-.73243-12.14453 2e-4-.006.002-.0116.002-.0176.01-.33888-.13585-.72464-.125-1.0625 1.56505-48.73537 12.41262-87.05678 9.71094-140.7793-.0857-1.69941-1.35523-21.26312-1.80665-24.53906-.0942-.6839 12.02685-49.97884 11.94336-141.42773-27.38718 9.65966-59.36409 2.62307-79.51171-6.52149.27713 5.2166.77873 10.49803 1.41015 15.75196-.75357-4.99228-1.28953-10.18286-1.43359-15.69727-2.37478.58961-30.78697 9.72158-59.06055-2.65625z" id="XMLID_488_-16-1-2" class="shoe"/><path d="m218.21289 531.00586c4.08392 36.40107 12.55867 76.45685 17.66992 99.38086 4.75422 21.32271 9.41632 34.88643 9.44531 35.17187.50629 4.97789 3.87891 43.62745 3.87891 45.39063 2.17994 37.39089 3.21603 105.50522 4.55469 130.74023.20418 3.84899-1.8575 9.20276-2.34961 10.75391-.36461 3.17975-3.79327 9.4474-4.12305 12.13867-8.83122 16.17478-1.08144 43.84074.10938 52.91797.7113 1.37861-3.17265 13.5648-9.82813 14.98828-5.31928 1.13757-1.9999 10.67974.96875 16.48047 2.30944 1.1 23.34615.73203 25.97071.33203 5.87841-5.8 5.24951-40.70156 8.81835-57.10156 2.4144 12.6.62979 45.3 1.25977 56.5h.83984c.83978-10.1 1.15448-56.5 4.09375-72-1.25995-7.5-8.93387-15.49844-11.87304-15.89844-.31772.0204-.94694-10.83439-1.44141-10.86719-.0205-.001-.0401-63e-5-.0605-.002.002-.099-.004-.1975.002-.29687 1.13448-17.75286 8.68003-48.65074 11.38281-59.28516 7.57877-29.88685 16.85435-66.83711 5.10937-101.875 2.3481-26.85478 3.36634-42.85174 3.5-43.42773 1.49238-16.98495 2.98088-34.46608 2.66211-41.25196-.0515-1.09726-.13866-2.17646-.22461-3.25586 1.70831 6.8501 3.18159 12.39243 3.95704 15.57813 2.55104 15.88764 13.61405 37.84218 20.79296 65.54687-9.72924 31.77098-6.53989 66.86332-.80664 99.58789 2.83032 22.79895 6.61413 43.00185 7.04493 66.43555.0101.1216.0271.23243.0391.35156-.24985.82604-.0665 10.40652.81836 13.84766-1.78457 20.3-2.55258 36.2125-1.71289 50.3125-2.72934 6.8 1.36571 28.60156 8.5039 47.60156 3.35906 1.9 8.08218 2.59961 10.60157-.40039 6.71833-22.9 11.96763-40.2 9.6582-47-.62983-10-4.72441-38.60078-9.6582-52.30078-.20711-.0823-.47489-11.00251-.73243-12.14453 2e-4-.006.002-.0116.002-.0176.01-.33888-.13585-.72464-.125-1.0625 1.56505-48.73537 12.41262-87.05678 9.71094-140.7793-.0857-1.69941-1.35523-21.26312-1.80665-24.53906-.0942-.6839 12.02685-49.97884 11.94336-141.42773-27.38718 9.65966-59.36409 2.62307-79.51171-6.52149.27713 5.2166.77873 10.49803 1.41015 15.75196-.75357-4.99228-1.28953-10.18286-1.43359-15.69727-2.37478.58961-30.78697 9.72158-59.06055-2.65625z" id="XMLID_488_-16-1-2-5" class="shoe"/><path id="path2314-5" class="shadow" d="m293.38932 619.9183c-6.68698-22.42067-13.44532-58.61982-17.32056-86.38087-.0127-.0908-.0253-.18166-.038-.2725 1.10765-.0109.56665.0805 1.64168-19e-5.0124.0935.0247.18699.0371.28048 3.65738 27.59919 10.06893 61.66653 15.13681 84.05322z"/></svg>