<svg viewBox="0 0 560 1e3"><path style="display:inline;fill-opacity:1;fill-rule:nonzero;fill:#000;opacity:1;stroke-dasharray:none;stroke-linecap:butt;stroke-linejoin:miter;stroke-miterlimit:4;stroke-opacity:1;stroke-width:0;stroke:#000" d="m370.57368 268.65924c3.3245 28.3395-2.22675 54.85955-5.62012 79.80466 2.56335 6.42529 19.9659 51.66195-2.62832 69.75391.0.0-64.9646-3.14714-76.47382 25.19023-2.06147 4.01155-2.1084 11.81811-3.46792 16.10443-.27859.87834-1.00697 6.35332-3.50565 8.26757-.26944.20641-1.13656 1.14752-4.58251.28177-.17413-.0437-1.37345.71664-3.61847.0361-5.83439-1.76869-6.66978-8.86034-6.76649-9.28816-1.98539-8.78313-6.24957-28.02971-9.43291-34.24779-14.19124-27.72004-28.1514-5.94274-29.45924-8.27907-19.79197-43.0815 4.06312-71.70561 8.80332-97.29034-3.17562-23.02404-.64386-39.62128 1.03306-55.96326 1.96823-16.48547 12.11062-29.90712 41.39472-56.00395-.63873-.33426 5.76049-3.75929 10.28502-6.16163 1.43082-.85664 10.68402 25.74457 10.29068 24.95701-.12491-.25011-.64543-.55498-1.33868.14782-.64398.65286 22.17244-28.24484 22.30977-27.24411 1.50252 1.12706 9.10193 4.89722 7.88644 5.69617-59.4139 34.61221 2.46751 42.24274 38.50165 63.17069z" id="path4303-3-0-1"/><path style="display:inline;fill-opacity:1;fill-rule:evenodd;fill:#005b96;opacity:1;stroke-dasharray:none;stroke-linecap:butt;stroke-linejoin:miter;stroke-miterlimit:4;stroke-opacity:1;stroke-width:0;stroke:#000" d="m363.61502 348.50785c2.89834 8.12448 17.9822 49.7092-.81078 71.27554-40.10653 11.44456-75.72545 35.96388-76.49712 38.30165-.78385 1.88787-4.7912 9.82211-7.2881 11.60252-1.21712.86786-4.56426-.37235-4.8162-.39645-.29397-.0276-.77535.50225-2.98817-.0701-5.65546-1.4629-10.22974-5.40448-10.80185-7.35518-45.47795-24.37059-34.75398-40.41635-35.41353-47.26215-16.41463-46.33104 6.70616-70.47968 9.83129-95.6152-1.87612-14.27695-3.2647-38.91193.51953-58.66518 5.10195-26.63162 12.34293-48.84283 41.58603-54.3422.49229-.51848 5.43756-2.25669 9.91452-4.65903 9.84838 23.51827 8.84084 25.04443 9.47199 24.50789 1.18842-.79719 21.46117-26.64717 21.46117-26.64717 1.48672 1.12706 18.23182 7.00546 18.7637 8.34782.0.0 22.14245-3.30003 34.62152 27.88685 3.43909 48.71951.53492 68.33976-7.554 113.09039z" id="path4305-7-2-2"/><path style="display:inline;fill-opacity:1;fill:#000;stroke-dasharray:none;stroke-linecap:butt;stroke-linejoin:miter;stroke-miterlimit:4;stroke-opacity:1;stroke-width:0;stroke:#000" d="m317.7568 197.70738c.2207.0743 3.8334 2.73309 6.28946 4.18757-.6321 2.54596-22.44225 30.88285-24.69505 35.48871-2.38446-.93979-5.79223-1.49125-7.66316-1.81857-.6168-8.70829 22.22468-33.0033 26.06875-37.85771z" id="path4307-6-4-9"/><path style="display:inline;fill-opacity:1;fill:#000;stroke-dasharray:none;stroke-linecap:butt;stroke-linejoin:miter;stroke-miterlimit:4;stroke-opacity:1;stroke-width:0;stroke:#000" d="m229.81669 332.62608c-.008-5.06807 3.57358-8.85121 3.47987-11.44926 2.26754-.31877 67.07608.50981 135.52975-1.04484-1.09612 2.00802-1.0612 10.58474-2.62451 14.26831-52.42422 3.39961-130.68367-1.61149-136.51011-1.64919z" id="path4309-0-6-5"/><path style="display:inline;fill-opacity:1;fill:#327bab;stroke-dasharray:none;stroke-linecap:butt;stroke-linejoin:miter;stroke-miterlimit:4;stroke-opacity:1;stroke-width:0;stroke:#000" d="m318.58329 198.16182c.2207.0743 3.8334 2.73309 6.28946 4.18757-.6321 2.54596-22.44225 30.88286-24.69505 35.48872-2.38446-.93979-5.79223-1.49125-7.66316-1.81857-.6168-8.70829 22.22468-33.00331 26.06875-37.85772z" id="path4312-1-4-8"/><path style="display:inline;fill-opacity:1;fill:#000;stroke-dasharray:none;stroke-linecap:butt;stroke-linejoin:miter;stroke-miterlimit:4;stroke-opacity:1;stroke-width:0;stroke:#000" d="m279.87719 204.50634c.1767-.15169 4.3416-3.51647 6.14002-5.59108 1.86513 1.84465 31.599 82.99098 34.40618 87.28153-2.02656 1.56905-4.24242 4.21611-5.48007 5.65685-7.79998-3.92111-32.8587-81.56202-35.06613-87.3473z" id="path4314-2-7-9"/><path style="display:inline;fill-opacity:1;fill:#327bab;stroke-dasharray:none;stroke-linecap:butt;stroke-linejoin:miter;stroke-miterlimit:4;stroke-opacity:1;stroke-width:0;stroke:#000" d="m279.87367 204.45214c.1767-.15169 3.21124-2.5223 4.92127-4.95046 1.86513 1.84465 31.83338 83.44411 34.64056 87.73466-2.02656 1.56905-4.24242 4.21611-5.48007 5.65685-7.79998-3.92111-31.87433-82.65577-34.08176-88.44105z" id="path4316-4-9-0"/><path style="display:inline;fill-opacity:1;fill:#004878;stroke-dasharray:none;stroke-linecap:butt;stroke-linejoin:miter;stroke-miterlimit:4;stroke-opacity:1;stroke-width:0;stroke:#000" d="m231.72064 331.55434c1.242-4.94306 2.79217-7.31459 2.69846-9.91264 2.26754-.31877 65.45628 1.0843 133.90995-.47031-.79171 2.81475-1.06364 8.40889-2.02225 12.33263-20.80519 3.71127-132.09978-2.11092-134.56839-1.86126z" id="path4318-3-0-2"/><path style="display:inline;fill-opacity:1;fill:#000;stroke-dasharray:none;stroke-linecap:butt;stroke-linejoin:miter;stroke-miterlimit:4;stroke-opacity:1;stroke-width:0;stroke:#000" d="m233.12923 322.45125c-4.27408-14.16046-1.70873-36.72485.19169-45.56032 2.40938-1.03747 66.28822 4.11234 139.02375-.94729.69478 2.46701-.27975 37.64416-3.63431 45.09319-55.70342 11.06417-129.39024 1.53707-135.58113 1.41442z" id="path4320-5-9-1"/><path style="display:inline;fill-opacity:1;fill:#004878;stroke-dasharray:none;stroke-linecap:butt;stroke-linejoin:miter;stroke-miterlimit:4;stroke-opacity:1;stroke-width:0;stroke:#000" d="m235.12936 320.54389c-4.27408-14.16046-1.84186-33.68249-1.0021-42.51796 2.40938-1.03747 64.59261 4.59847 137.32815-.46116.15751.55929.22856 2.81144-.1035 6.00828-1.13265 10.90434-4.96137 32.79991-8.79544 35.99522-55.70343 11.06417-121.23622 1.09827-127.42711.97562z" id="path4322-2-5-3"/><path style="display:inline;fill-opacity:1;fill:#000;stroke-dasharray:none;stroke-linecap:butt;stroke-linejoin:miter;stroke-miterlimit:4;stroke-opacity:1;stroke-width:0;stroke:#000" d="m236.46956 320.35661c-4.52408-15.47326-3.53823-29.68552-3.06329-37.80821 2.40938-1.02375 65.32299 5.03185 138.05853.0391.69478 2.4344-4.82655 32.75022-9.40966 36.95268-55.70343 10.9179-119.39469.93745-125.58558.81642z" id="path4324-9-2-0"/><path style="display:inline;fill-opacity:1;fill:#b669cd;stroke-dasharray:none;stroke-linecap:butt;stroke-linejoin:miter;stroke-miterlimit:4;stroke-opacity:1;stroke-width:0;stroke:#000" d="m234.72848 321.26691c-3.99375-13.42936-2.66583-30.21313-1.17442-37.60546 2.40938-.99379 65.09888 5.74125 137.83442.89465.13228 3.23814-.69267 31.24608-3.67851 35.62287-55.70343 10.59834-126.7906 1.20543-132.98149 1.08794z" id="path4326-8-3-6"/><path style="display:inline;fill-opacity:1;fill:#000;stroke-dasharray:none;stroke-linecap:butt;stroke-linejoin:miter;stroke-miterlimit:4;stroke-opacity:1;stroke-width:0;stroke:#000" d="m232.41936 305.60332c-.96158-1.61193-.60962-2.71692-.7092-3.35021 41.90938 3.6723 98.43628 4.85593 139.29682 1.72694.69478.18478-.50756 2.21403-.50756 2.21403-40.51065 3.30805-96.77371 2.43982-138.08006-.59076z" id="path4328-5-1-7"/><path style="display:inline;fill-opacity:1;fill:maroon;stroke-dasharray:none;stroke-linecap:butt;stroke-linejoin:miter;stroke-miterlimit:4;stroke-opacity:1;stroke-width:0;stroke:#000" d="m232.17147 306.16292c-.96158-1.61193-.60962-2.71692-.7092-3.35021 41.90938 3.6723 98.43628 4.85593 139.29682 1.72694.69478.18478-.50756 2.21403-.50756 2.21403-40.51065 3.30805-96.77371 2.43982-138.08006-.59076z" id="path4330-0-0-9"/><path style="display:inline;fill-opacity:1;fill:#000;stroke-dasharray:none;stroke-linecap:butt;stroke-linejoin:miter;stroke-miterlimit:4;stroke-opacity:1;stroke-width:0;stroke:#000" d="m338.41512 320.75464s2.87663-3.25572 3.36676-3.23822c42e-5-3.94893-8.64753-10.16687-8.64575-10.31253.38578-31.49315 32.55092-2.93674 1.33707.92432.11811-.15841-.001.67087-.001.67087 37.3907-2.18949-4.8934-38.02177-2.10696-1.63493-.006.0458 5.81658 8.53102 6.04988 13.59049z" id="path4332-8-1-7"/><path style="display:inline;fill-opacity:1;fill:maroon;stroke-dasharray:none;stroke-linecap:butt;stroke-linejoin:miter;stroke-miterlimit:4;stroke-opacity:1;stroke-width:0;stroke:#000" d="m338.84728 320.61329s2.87663-3.25572 3.36676-3.23822c42e-5-3.94893-8.64753-10.16687-8.64575-10.31253.38578-31.49315 32.55092-2.93674 1.33707.92432.11811-.15841-.001.67087-.001.67087 37.3907-2.18949-4.8934-38.02177-2.10696-1.63493-.006.0458 5.81658 8.53102 6.04988 13.59049z" id="path4334-3-6-7"/><path style="display:inline;fill-opacity:1;fill:#000;stroke-dasharray:none;stroke-linecap:butt;stroke-linejoin:miter;stroke-miterlimit:4;stroke-opacity:1;stroke-width:0;stroke:#000" d="m333.94067 308.95116s.0523-.2433.0786-.73304c-32.10822-.66766-2.95893-32.5879.48118-1.57501.009.0808-8.24657 6.79107-8.56942 9.0603.99279.0116 2.39431 4.91885 2.39431 4.91885.9246-5.98567 6.86506-13.89337 6.86121-13.97829-1.67919-37.11742-38.28468 4.77451-1.24583 2.30719z" id="path4336-0-6-7"/><path style="display:inline;fill-opacity:1;fill:maroon;stroke-dasharray:none;stroke-linecap:butt;stroke-linejoin:miter;stroke-miterlimit:4;stroke-opacity:1;stroke-width:0;stroke:#000" d="m334.37283 308.80981s.0523-.2433.0786-.73304c-32.10822-.66766-2.95893-32.5879.48118-1.57501.009.0808-8.24657 6.79107-8.56942 9.0603.99279.0116 2.39431 4.91885 2.39431 4.91885.9246-5.98567 6.86506-13.89337 6.86121-13.97829-1.67919-37.11742-38.28468 4.77451-1.24583 2.30719z" id="path4338-8-9-8"/><path d="m329.8875 425.70175c-15.4791 1.19068-42.03653 26.26041-44.60913 30.99635 10.29989-9.14088 29.75951-26.28541 44.60913-30.99635z" class="shadow" id="path5772-6-5-7-8-3"/><path d="m262.14541 457.55004c-6.81704-9.41592-28.83006-31.99347-34.93819-34.15183 5.05404 5.44075 26.5203 25.35081 34.93819 34.15183z" class="shadow" id="path5774-7-1-8-9-0"/></svg>