<svg viewBox="0 0 560 1e3"><path id="path3091" d="m338.27948 405.05894c10.86715-2.88915 27.32926 17.43453 34.21536 29.98739 9.9113 18.44258 8.17385 36.96333 6.37635 48.0856-.20333 2.42377-.913 4.53948-1.86029 6.57518-5.54519 11.89703-10.30028 14.94353-14.41484 19.27334-8.39244 19.62629-11.40511 52.93063-18.18363 52.4325-17.96844-1.29514-32.70902-149.28057-6.13295-156.35401z" style="fill-opacity:1;fill:gray"/><path style="display:inline;fill-opacity:1;fill:#b3b3b3;stroke-dasharray:none;stroke-linecap:butt;stroke-linejoin:miter;stroke-miterlimit:4;stroke-opacity:1;stroke-width:0;stroke:#000" d="m355.04042 518.33836 1.10486 13.16877c.66942-2.98401 2.81692-12.80811 3.19237-13.24265z" id="path3213"/><path style="display:inline;fill-opacity:1;fill:#b3b3b3;stroke-dasharray:none;stroke-linecap:butt;stroke-linejoin:miter;stroke-miterlimit:4;stroke-opacity:1;stroke-width:0;stroke:#000" d="m351.42113 412.76189 5.61266 8.21902c.0961-.42835 3.03977-2.96956 2.94071-3.52729-.72365-1.4272-6.60156-6.51175-6.8415-6.67701z" id="path3213-5"/></svg>