<svg viewBox="0 0 560 1e3"><path id="path4612" class="shadow" d="m277.11003 447.18502c22.76994-1.65 52.46986-4.94999 68.08982-46.63988 14.40996-48.72987-30.57992-109.55971-65.88983-111.64971-44.10989 6.81998-67.97983 47.07987-70.28982 106.58973 2.42 34.09991 36.40991 53.89986 68.08983 51.69986z"/><path id="path4614" class="skin" d="m277.11003 447.18502c22.87994.11001 54.33986-14.29996 68.08982-46.63988 13.74997-32.33992-20.34995-91.73976-50.59987-111.8697-7.14998-4.72999-42.56989-9.01999-44.43989.0-2.85999 12.75996-49.38987 36.6299-45.53988 106.47972 1.98 38.2799 49.60988 51.91986 72.48982 52.02986z"/><path id="path4616" d="m249.64842 405.31242a3.4099304 3.0799371 78.497917 01-2.33813 3.9556 3.4099304 3.0799371 78.497917 01-3.69804-2.7273 3.4099304 3.0799371 78.497917 012.33814-3.9556 3.4099304 3.0799371 78.497917 013.69803 2.7273z" class="areola"/></svg>