<svg viewBox="0 0 560 1e3"><path id="path5792" d="m350.02985 408.21382c.4129.3082.48952.2044.99977.54713 12.79275 8.59259 37.34908 36.23366 27.97798 73.84972-1.65859-.42695-7.68537-3.25592-7.68537-3.25592-4.35635-19.09962-20.89871-53.11062-18.93994-66.2674.0246-.16537-2.51221-4.71611-2.35244-4.87353z" style="display:inline;fill-opacity:1;fill-rule:evenodd;fill:#000;stroke-dasharray:none;stroke-linecap:butt;stroke-linejoin:miter;stroke-miterlimit:4;stroke-opacity:0;stroke-width:3;stroke:#000"/><path id="path5794" d="m349.26166 407.20981c4.28127 2.5952 36.85324 35.70231 29.75727 75.71526-1.65859-.42696-8.53919-3.2575-8.53919-3.2575-4.43195-12.12656-24.54075-76.3939-21.21808-72.45776z" style="display:inline;fill-opacity:1;fill-rule:evenodd;fill:#999;stroke-dasharray:none;stroke-linecap:butt;stroke-linejoin:miter;stroke-miterlimit:4;stroke-opacity:0;stroke-width:3;stroke:#000"/><path id="path5796" d="m351.6353 409.52376c.41291.3082.82573.6978 1.30913 1.07746 11.41775 8.96759 31.58499 33.17408 26.96389 64.79014-1.65859-.42695-9.06037-3.38092-9.06037-3.38092-7.73135-16.84962-22.39871-48.61062-20.43994-61.7674.0246-.16537 1.06752-.56186 1.22729-.71928z" style="display:inline;fill-opacity:1;fill-rule:evenodd;fill:#4d4d4d;stroke-dasharray:none;stroke-linecap:butt;stroke-linejoin:miter;stroke-miterlimit:4;stroke-opacity:0;stroke-width:3;stroke:#000"/></svg>