<svg viewBox="0 0 560 1e3"><path d="M331.1 473.6c-3.7.8-4.6 2.4-2.6 5.2 2.5 1.7 4.1 4.1 6.2 6.1a32 32 0 017.1 9.2l.7 1c1.1 1.1 2.3 2.5 3.7 3.1v.2c2.2 8.5 8 17 9 24.8.7 2.6 1 5.4 2.5 7.7h1v.3c-1.6 1.7-.8 4.1-1.6 6 0 3.2-1.2 6.7.6 10l.4.3c-.7.8-.4 1.6.0 2.6l-1.3 2.3c0 2.3-.5 4.6-.5 7-.2 1.4-.4 2.7.0 4v.5c0 2.5.5 5 1 7.3-1 1.8.6 3.7-.4 5.7 2.5 4 1.2 8.7 2.5 13.1l8.5 31.8h.2a21.4 21.4.0 00.8 7.2c3.6 10.8 2.8 23 8.2 33.5 1.7 8.2 4.6 16.3 8.2 24l1.9 1.6a9.9 9.9.0 001.6 5c1.3 2.3 4.4 3.2 6.9 3.4 1 .8 2.3.8 2.6 4.1.4 3.3 3.3 4.6 7 7.7.6.4.4.7.4 1.2.2 5.2 3.3 8.4 7.6 10.7 1.5 2.6 4.2 4.9 6 4.9 1.7 2.1 4.3 2.1 6.3 3.1.5 3.3 1.6 2.8 2.1 3.8 1.2 2.3 4.3 3.3 6.6 4.7.3 2.8 3.3 2.2 4.6 3.8 2.5 1.3 4.6 3.3 7.7 2.5h.4c1.6 2.1 3.9 2.1 6.5 1.1v.5c.7 1.3 2 1.7 3.3 1.7 1 1.6 2.5 2 4.3 1.5 19.2-.9 37.8-22.7 36.6-40 .7-2.4-1.6-4-2-6l-1.6-2.3-1 .1-4.8-3.3c0-1.1.0-2.3-.6-3.2-1.5-1.5-1.2-4.3-3.5-5-.1-1.6-2-2.6-3.4-3.3-.3-1.4-1.5-2.8-.7-4.2l-.1-1.3c-2.3-2-4.6-6.6-5.5-7.1-1-1-2.4-1.8-.6-3 1.6-1.1-5.6-8.7-8.6-11 1.9-.1-.6-3.8-.6-5.2l-.7-1.7-1.8-1.6c-.8-1-.6-2.6-2.1-3.1l-1-1.5-.6-.8c-.5-1.5-.2-3.3-2-4.1-1.3-1.4.0-2.7.0-3.8-3.1-2.2-1.2-6.1-3.3-8.6l-.3-.8c-1.7-1.6-2-4.1-2.5-6.2l-.8-3c-.3-1.1-.2-2.3-.3-3.3.0-1.3-.4-2.6.0-3.8.3-1.3.3-2.4-.2-3.6v-.1c.3-.9.2-1.8.0-2.8l-1.7-5.6-1.3-6-1-.7c.4-5.3-3-10.6-3.6-15a9.4 9.4.0 00-2.8-5.6c-.6-7.2-10.8-34.5-15.6-34.5v-.5a8.2 8.2.0 00-.8-1.8c-3.3-5.6-7.5-10.5-10.2-16.4-.6-1.6-2.1-3.3-3.8-4.4a29 29 0 01-6.9-7.6c-10.3-13.5-12.6-8.9-15-13.5-3.4-4-11-8.2-12.6-8.5-3.7-.7-3-2.8-4.4-3.5-2.6-1.1-5-2.4-7.9-2.8-4.9-2-10.3-.6-15-2.4-5.3-.3-11-1.7-15.5-1.7z" fill="#863b3b"/><path d="M494 699.5l-.9.1c-1.1 2.2-3.4-.5-5 1.7 3.2 2 8 4 2.2 8.5.0 1.3-.5 1.7-1.6.7-1-.9-1.7-2.5-3.5-2.2l.7 2.7c0 .8-.5.3-.8.3-3.7.0-3.3 2.8-3.8 5 0 0-.3.0-.5-.2-4 2.2-4 2.2-2.6 4.4 1.3 2.4-.5 4-1.2 6l.2.9c-1.8.3-3.3.6-1.7 3.1 1.3 2.3-1.1 1-1.6 1.6v.5c-1.3.7-2.5-2-4-.5-.6 1-.3 1.9.0 2.8l-1 .4a5 5 0 002.9 3l2 1.2c.7 3.8-1.6 2.2-3.2 1.8l-2.1-1.3c-2.2 1-2.8 4.6-5.6 3.6-2.3-.6-3.1.7-4.3 1.9l-2 .6c1 1.7 2.7 2.1 4.5 1.7.3 3.9 4 1.4 5.6 3.2 1 .5 1.8.7 2.4.4.4.6 1.2.8 1.8 1 1.2.0 2.3-1.2 3.3-.9.0 1.2.7 2 1.7 2.8.8 1.2 4.4 2.7 5.5 1.3 1.7.5 3.2-.1 4.2-1.6.4 2.8 3.6 2.8 3.7 1.6 1 .7 2.2.5 3.3.4 1-.2 1.7-.7 2.2-1.5.4.8 1.6.0 1.8-.3 1 1.3 2.1 1.1 3 1.3l.6-.2.8.8c2.1.9 4.1.0 6-.6v.1c1.7 2.7 9.4.4 11.4-1 1-.8 2-1.8 2.1-3l1.2-.2c.7.6 1.6 1 2.3 1 4.1.0 6 .6 7.4-2.2 1.1-.3 1-.8.5-1.5.5-.1.8-.6 1-1.1.0-.7-.5-1.3-.2-2.1 1.2.0 2.3-.4 1.3-2.2-.6-1.6-3.3-2-4.4-3.3-1.8-1.6-2.2-4.6-3.8-6.4-1.3-1.3-3.3-1-4.6-2.1-1.8-1.5-2.1-7.2-5.3-6.6l-.3.2c0-1 0-2.2-.5-3.3-1.1-.3-2-.2-2.6.8-1-.1-3 1.5-2.1-1.5.0-1-.4-1.6-.9-2.4l-1.3-1.7c-1.6-.8-1.6-2.6-2-4-2 .4-4 1-4.4-1.7 1.5-1.5-3-3.5-4-3.5.6-2.4-1.7-4-2-6l-1.7-2.3z" fill="#eaeaea"/></svg>