<svg viewBox="0 0 560 1e3"><path id="path3543" d="m364.50628 290.99038c-15.00939 38.8522-19.3981 80.4877-17.1988 112.36607-39.63585 8.44961-72.83686.84982-74.09168-1.06835-1.64009.741-42.94886 4.06031-44.2567 1.72398 10.81817-37.96775 13.79961-78.96898 9.86892-113.88694 31.55028 3.86008 90.6252 6.27153 125.67826.86524z" style="display:inline;fill-opacity:1;fill-rule:evenodd;fill:#000;opacity:1;stroke-dasharray:none;stroke-linecap:butt;stroke-linejoin:miter;stroke-miterlimit:4;stroke-opacity:1;stroke-width:0;stroke:#000"/><path id="path3545" d="m363.37733 292.32865c-9.62253 27.96577-23.93599 68.77846-15.11512 112.86939-57.84776 18.23932-76.17133 14.78267-76.51147 14.78064-.27158-.0147-28.33572.16877-42.89271-15.77449 16.85376-48.20911 13.10561-95.24471 10.09728-113.9856 26.56853 7.31487 109.35297 6.35942 124.42202 2.11006z" style="display:inline;fill-opacity:1;fill-rule:evenodd;fill:maroon;opacity:1;stroke-dasharray:none;stroke-linecap:butt;stroke-linejoin:miter;stroke-miterlimit:4;stroke-opacity:1;stroke-width:0;stroke:#000"/><path id="path3547" d="m271.82541 419.82176c-2.96459-1.35508 3.16858-85.1952 9.82717-125.46235.0421-.18953-.065-.55474.12551-.56351.81123-.0373.77997.3603 2.32799.0884.20144-.0354-.067.40493-.1009.60937-10.12688 61.2283-12.03723 125.13323-12.17977 125.32806z" style="display:inline;fill-opacity:1;fill:#000"/><path id="path3549" d="m277.26367 407.09589c0 .86028-3.76472 3.3125-6.25 3.3125l.28125-6.65625c2.48528.0 5.96875 2.60847 5.96875 3.34375z" style="display:inline;fill:#000"/><path id="path3551" d="m277.90626 391.4531c0 .86028-3.76472 3.3125-6.25 3.3125l.28125-6.65625c2.48528.0 5.96875 2.60847 5.96875 3.34375z" style="display:inline;fill:#000"/><path id="path3553" d="m279.12501 376.4531c0 .86028-4.04597 3-6.53125 3l.46875-6.65625c2.48528.0 6.0625 2.92097 6.0625 3.65625z" style="display:inline;fill:#000"/><path id="path3555" d="m280.18751 363.2656c0 .86028-4.20222 2.6875-6.6875 2.6875l.59375-6.65625c2.48528.0 6.09375 3.23347 6.09375 3.96875z" style="display:inline;fill:#000"/><path id="path3557" d="m281.25001 348.5781c0 .86028-3.95222 2.875-6.4375 2.875l.625-6.59375c2.48528.0 5.8125 2.98347 5.8125 3.71875z" style="display:inline;fill:#000"/><path id="path3559" d="m283.00001 332.92185c0 .86028-4.13972 2.65625-6.625 2.65625l.6875-6.59375c2.48528.0 5.9375 3.20222 5.9375 3.9375z" style="display:inline;fill:#000"/><path id="path3561" d="m284.7206 318.33666c0 .86028-4.29597 2.28125-6.78125 2.28125l.8125-6.5c2.48528.0 5.96875 3.48347 5.96875 4.21875z" style="display:inline;fill:#000"/><path id="path3563" d="m286.3358 302.31061c0 .86028-3.98347 3-6.46875 3l.9375-6.3125c2.48528.0 5.53125 2.57722 5.53125 3.3125z" style="display:inline;fill:#000"/><path id="path3569" d="m277.18902 406.27379c0 .86028-3.76472 3.3125-6.25 3.3125l.28125-6.65625c2.48528.0 5.96875 2.60847 5.96875 3.34375z" style="display:inline;fill:#787878"/><path id="path3571" d="m277.83161 390.631c0 .86028-3.76472 3.3125-6.25 3.3125l.28125-6.65625c2.48528.0 5.96875 2.60847 5.96875 3.34375z" style="display:inline;fill:#787878"/><path id="path3573" d="m279.05036 375.631c0 .86028-4.04597 3-6.53125 3l.46875-6.65625c2.48528.0 6.0625 2.92097 6.0625 3.65625z" style="display:inline;fill:#787878"/><path id="path3575" d="m280.11286 362.4435c0 .86028-4.20222 2.6875-6.6875 2.6875l.59375-6.65625c2.48528.0 6.09375 3.23347 6.09375 3.96875z" style="display:inline;fill:#787878"/><path id="path3577" d="m281.17536 347.756c0 .86028-3.95222 2.875-6.4375 2.875l.625-6.59375c2.48528.0 5.8125 2.98347 5.8125 3.71875z" style="display:inline;fill:#787878"/><path id="path3583" d="m282.92536 332.09975c0 .86028-4.13972 2.65625-6.625 2.65625l.6875-6.59375c2.48528.0 5.9375 3.20222 5.9375 3.9375z" style="display:inline;fill:#787878"/><path id="path3585" d="m284.64595 317.51456c0 .86028-4.29597 2.28125-6.78125 2.28125l.8125-6.5c2.48528.0 5.96875 3.48347 5.96875 4.21875z" style="display:inline;fill:#787878"/><path id="path3587" d="m286.26115 301.48851c0 .86028-3.98347 3-6.46875 3l.9375-6.3125c2.48528.0 5.53125 2.57722 5.53125 3.3125z" style="display:inline;fill:#787878"/><path style="display:inline;fill-opacity:1;fill-rule:evenodd;fill:#000;opacity:1;stroke-dasharray:none;stroke-linecap:butt;stroke-linejoin:miter;stroke-miterlimit:4;stroke-opacity:1;stroke-width:0;stroke:#000" d="m347.68789 403.23716c2.80181 5.33577 25.09174 44.29249 18.90133 70.64555-20.82093 14.76257-101.55407 3.60363-151.95195.28076.0585-1.03765.0424-2.07139.18689-3.07673 6.24071-43.42968 12.60903-64.76949 14.40806-68.70446.20972-.4587.34723-.67416.34723-.67416 31.73404 35.14115 95.91336 8.94544 118.10844 1.52904z" id="path3581-6-5-2-4"/><path style="display:inline;fill-opacity:1;fill-rule:evenodd;fill:maroon;opacity:1;stroke-dasharray:none;stroke-linecap:butt;stroke-linejoin:miter;stroke-miterlimit:4;stroke-opacity:1;stroke-width:0;stroke:#000" d="m348.31718 404.36732c8.55181 12.27339 25.02702 41.61625 18.83661 66.33328-20.82093 13.84609-101.99157 3.49714-152.38945.38057.55367-47.38146 14.62968-68.13309 14.62968-68.13309 29.7895 36.10978 96.72808 8.37522 118.92316 1.41924z" id="path3581-6-5-2"/><path id="path3401-2" class="shadow" d="m329.90806 425.67038c-15.4791 1.19068-42.03653 26.26041-44.60913 30.99635 10.29989-9.14088 29.75951-26.28541 44.60913-30.99635z"/><path id="path3406-2" class="shadow" d="m262.16597 457.51867c-6.81704-9.41592-28.83006-31.99347-34.93819-34.15183 5.05404 5.44075 26.5203 25.35081 34.93819 34.15183z"/></svg>