<svg viewBox="0 0 560 1000"><path id="path48999" d="m 283.95075,485.17757 c -11.44519,7.42301 -26.67416,7.59255 -33.92856,2.94321 -14.28993,-9.15841 -13.1774,-31.18109 -9.6294,-37.25454 1.43934,-2.46381 4.5824,-5.27534 10.12509,-21.38579 3.69571,-10.74198 6.16848,-41.36382 6.02244,-65.35772 -0.0217,-3.56565 -2.86272,-0.0838 -3.52346,-3.56996 -0.93666,-4.94165 5.08617,-13.34947 6.99447,-15.86471 6.99667,-9.22197 10.36593,-4.07625 11.92614,-3.96101 4.10906,0.30347 5.46381,9.8008 6.30053,21.36161 0.22106,3.05456 -0.23849,4.07725 -0.40518,7.25256 -0.96878,18.45494 -3.79323,30.21938 -2.27489,60.85896 0.47824,9.65077 5.25506,21.39756 7.17142,24.66664 7.41645,12.65168 7.9102,23.98354 1.2214,30.31075 z" style="display:inline;fill:#000000;opacity:1;stroke-width:2.21068501"/><path class="skin scrotum" d="m 252.71433,487.81861 c -15.17787,-6.75982 -15.31374,-31.86451 -9.61746,-38.44071 2.39377,-2.76355 4.04987,-5.2175 9.23581,-20.01923 3.55933,-10.15909 5.7428,-44.20928 5.61885,-67.21013 -0.0186,-3.41809 -4.17567,0.68068 -3.93695,-2.69933 0.33559,-4.75184 3.28204,-9.74324 9.01105,-17.41181 3.41801,-4.57516 10.45198,-4.7327 15.53445,0.1378 2.88058,2.76039 6.81074,8.33085 7.5209,19.41319 0.18765,2.92812 -3.39794,-0.13036 -3.53944,2.91353 -0.82228,17.69109 -2.5072,36.55334 -1.21847,65.92479 0.40593,9.25132 3.28295,15.55861 5.13971,18.56173 7.4985,12.12805 10.32501,31.08674 0.65493,37.17886 -9.67009,6.09211 -27.45979,4.7438 -34.40338,1.65131 z" id="path49001"/></svg>
