<svg viewBox="0 0 560 1e3"><path style="baseline-shift:baseline;clip-rule:nonzero;color-interpolation-filters:linearRGB;color-interpolation:sRGB;color-rendering:auto;color:#000;direction:ltr;display:inline;enable-background:accumulate;fill-opacity:1;fill-rule:evenodd;fill:#000;image-rendering:auto;isolation:auto;mix-blend-mode:normal;opacity:1;overflow:visible;shape-rendering:auto;solid-color:#000000;solid-opacity:1;stroke-dasharray:none;stroke-dashoffset:0;stroke-linecap:butt;stroke-linejoin:miter;stroke-miterlimit:4;stroke-opacity:1;stroke-width:3.09140849;stroke:none;visibility:visible;white-space:normal;writing-mode:lr-tb" d="m345.93187 455.13893c.79451-5.41001-4.71486 368.7833-4.02143 363.7085 15.89226-116.30395 6.21063-133.27327 6.21063-133.27327 14.74097-72.1787 9.60101-140.46892 9.8427-191.52893.005-1.16675 21.47736-44.91179-6.97152-81.16869.0186 1.15703-124.90099.256-125.55182 1.28181-39.47664 62.24317 14.78376 249.79162 15.2968 253.19352 5.90689 39.16771 6.2829 120.77275 10.43989 176.71788.007.088 60.84703 1.93329 61.09672-.4907 17.53739-170.25563 33.65967-388.53077 33.65803-388.44012z" id="path6154"/><path style="baseline-shift:baseline;clip-rule:nonzero;color-interpolation-filters:linearRGB;color-interpolation:sRGB;color-rendering:auto;color:#000;direction:ltr;display:inline;enable-background:accumulate;fill-opacity:1;fill-rule:evenodd;fill:green;image-rendering:auto;isolation:auto;mix-blend-mode:normal;opacity:1;overflow:visible;shape-rendering:auto;solid-color:#000000;solid-opacity:1;stroke-dasharray:none;stroke-dashoffset:0;stroke-linecap:butt;stroke-linejoin:miter;stroke-miterlimit:4;stroke-opacity:1;stroke-width:3.03410745;stroke:none;visibility:visible;white-space:normal;writing-mode:lr-tb" d="m346.09192 465.35905c.76533-5.41001-6.62058 356.04326-5.95261 350.96846 15.30857-116.30395 5.98252-133.27327 5.98252-133.27327 14.19957-72.1787 12.49944-140.46892 12.73225-191.52893.005-1.16675 30.58214-36.95684-8.4012-81.16869.0179 1.15703-123.3239.006-123.95083 1.03181-38.02676 62.24317 15.6857 250.04162 16.1799 253.44352 5.68994 39.16771 7.51813 123.67516 8.43875 179.36953 74e-5.0447 61.57498.77123 61.57498.77123 10.92952-173.75784 33.39855-379.7467 33.39624-379.61366z" id="path6156"/><path id="path6158" class="shadow" d="m287.96983 588.5906c-9.8-40.3-16.6-61.7-12.6-107.8-.7 44.5 3.5 67.1 12.6 107.8z"/><path d="m329.8804 425.71633c-15.4791 1.19068-42.03653 26.26041-44.60913 30.99635 10.29989-9.14088 29.75951-26.28541 44.60913-30.99635z" class="shadow" id="path6160"/><path d="m262.13831 457.56462c-6.81704-9.41592-28.83006-31.99347-34.93819-34.15183 5.05404 5.44075 26.5203 25.35081 34.93819 34.15183z" class="shadow" id="path6162"/></svg>