<svg viewBox="0 0 560 1e3"><path style="display:inline;fill-opacity:1;fill-rule:evenodd;fill:#000;opacity:1;stroke-dasharray:none;stroke-linecap:butt;stroke-linejoin:miter;stroke-miterlimit:4;stroke-opacity:1;stroke-width:0;stroke:#000" d="m370.22013 269.18957c-.51327 31.24805-17.76533 55.73921-21.01667 84.50009.72875 2.76416 5.86445 14.04341 8.81664 24.98239-35.12136 9.39542-121.03838 12.97049-128.80406-6.17217 1.47691-13.28062 8.06138-35.59628 10.68386-48.13513-.37019-18.68267-4.92048-17.51748-3.84522-50.39866 2.94669-27.86219 16.65971-50.40293 40.76918-67.09803-.63873-.33426 4.78821-4.28702 8.78241-7.57324 9.24713 11.38115 26.77313 3.92452 32.85276-1.34379 1.50252 2.01095 8.74838 5.51594 7.53289 6.31489 2.93097 3.6342 17.5615 30.53863 38.19229 63.32537z" id="path3619-9"/><path style="display:inline;fill-opacity:1;fill-rule:evenodd;fill:#222a12;opacity:1;stroke-dasharray:none;stroke-linecap:butt;stroke-linejoin:miter;stroke-miterlimit:4;stroke-opacity:1;stroke-width:0;stroke:#000" d="m370.59734 268.91874c-2.70191 27.49652-21.37838 61.26393-22.28778 84.74901.94189 3.11422 5.54268 11.35352 8.80166 23.95866-31.15729 6.94181-115.30492 14.22541-127.90729-5.08534 3.99576-15.22027 10.20996-36.71821 12.11367-48.00442.46585-18.65645-3.45668-18.23521-3.76303-37.99498-.92997-33.40095-2.62143-71.22605 39.38155-80.56056.49229-.51848 4.81884-2.87541 8.67708-6.07324 9.14993 11.38115 26.50843 3.92452 32.52415-1.34379 8.11585 7.31425 17.87827 7.62418 18.41015 8.96654 43.43464-.61809 35.5656 49.11043 34.04984 61.38812z" id="path3621-1"/><path style="display:inline;fill-opacity:1;fill-rule:evenodd;fill:#000;opacity:1;stroke-dasharray:none;stroke-linecap:butt;stroke-linejoin:miter;stroke-miterlimit:4;stroke-opacity:1;stroke-width:0;stroke:#000" d="m362.1796 404.03867c.8928 1.03783-9.30613 5.96262-9.30613 5.96262-8.19048 4.90102-39.53585 17.01025-51.97084 27.51342-4.31136 3.64157-13.47661 8.29154-16.37051 16.44054-2.5916 7.29773-3.32032 16.98798-9.68774 14.34823-.12708-.0527-.25389-.22936-.38798-.17253-3.64553 1.54503-9.41962-.71855-11.29492-12.24341-2.95293-18.14755-12.84146-17.24873-13.71165-17.80621-12.60056-8.07247-21.38891-19.81687-24.85363-25.1259.0593-.70684.67321-11.84487.67321-11.84487 30.95157 34.29024 113.59011 9.13409 136.91019 2.92811z" id="path3581-6-4-0-9"/><path style="display:inline;fill-opacity:1;fill-rule:evenodd;fill:#222a12;opacity:1;stroke-dasharray:none;stroke-linecap:butt;stroke-linejoin:miter;stroke-miterlimit:4;stroke-opacity:1;stroke-width:0;stroke:#000" d="m362.40767 404.76552c.8928 1.03783-.41313 14.72215-.41313 14.72215-32.17041 1.14583-71.12379 28.94047-79.99015 41.90487-1.8785 3.64948-2.53889 7.43148-7.50963 6.14702-.17013-.0655-5.98956 2.88621-10.50307-7.67418-.19489-.456-.68412-.47689-1.06552-.9139-13.44512-.96612-36.54764-20.75453-39.15367-45.27808.0593-.70684 1.54821-11.38777 1.54821-11.38777 29.78951 36.10978 114.89188 9.43587 137.08696 2.47989z" id="path3581-6-8-6"/><path id="path4386-3-8-7" class="shadow" d="m328.65568 423.62719c-15.47912 1.19068-42.03655 26.26041-44.60915 30.99635 10.29989-9.14088 29.75953-26.28541 44.60915-30.99635z"/><path id="path4388-4-6-2" class="shadow" d="m260.91357 455.47548c-6.81704-9.41592-28.83006-31.99347-34.93819-34.15183 5.05404 5.44075 26.5203 25.35081 34.93819 34.15183z"/></svg>