<svg viewBox="0 0 560 1e3"><path style="display:inline;fill-opacity:1;fill-rule:evenodd;fill:#000;stroke-dasharray:none;stroke-linecap:butt;stroke-linejoin:miter;stroke-miterlimit:4;stroke-opacity:0;stroke-width:2.97439027;stroke:#000" d="m332.11641 378.81779c34.5675 37.13805 57.10655 61.43233 52.53225 85.22898-.18119.94259-.0201 1.91381-.0922 2.86185-.84329-.15883-15.0691 5.01757-18.32398 6.63548-14.49086-15.68658-33.94492-93.4321-34.11603-94.72631z" id="path4274"/><path style="display:inline;fill-opacity:1;fill-rule:evenodd;fill:#c8c8c8;stroke-dasharray:none;stroke-linecap:butt;stroke-linejoin:miter;stroke-miterlimit:4;stroke-opacity:0;stroke-width:2.97439027;stroke:#000" d="m330.54529 379.68976c29.16485 29.75771 56.0194 59.18212 54.10238 84.37852-.84329-.15883-14.28394 5.01757-17.53882 6.63548-14.49086-15.68658-36.39245-89.71979-36.56356-91.014z" id="path4276"/><path d="m380.55022 462.85716c-2.91834 1.15884-12.41145 5.23666-12.78534 5.28333.0711-.41289-.24151.46044.19641-2.12944.44841-.21697 12.74852-5.21794 16.8051-6.5696-.0154.24866-.0142 1.64867-.0177 1.9573z" id="path3978-6-4-8-8-1-6-0-4-1-0-6" style="fill:#502"/></svg>