<svg viewBox="0 0 560 1e3"><g data-transform="belly" id="g5577" transform="matrix(1.014792,0,0,1.0059302,-4.1476732,-2.5734225)"><path d="m339.28116 381.03754c.0254-.31809-.23462-2.78916-.21387-3.10771C341.75771 336.63608 305.70993 291.61118 276.8 289.9c-36.89069 5.7038-63.19743 37.69551-68.00849 84.81276 28.42589 9.55106 104.22643 7.56071 130.48965 6.32478z" class="shadow" id="path5561"/><path d="M339.29607 381.00482C342.49399 350.66918 315.20717 306.00841 290.7 289.7c-6.5-4.3-38.7-8.2-40.4.0-2.43273 10.85373-39.62171 30.54973-41.5296 85.05506 1.78851-.11691 20.12759 8.24259 130.52567 6.24976z" id="path5563" style="fill-opacity:1;fill:#fff"/><path transform="matrix(1.1247504,0,0,1.1247504,-26.347241,-34.609528)" id="path5565" d="m245.80884 368.53498c.59462-37.21169 18.16151-70.15977 29.79339-82.63422.0.0 2.52362-.28574 2.17298.13293-12.16961 12.36781-29.49696 45.04462-30.05113 82.65634-.75687-.0194-1.11319.17075-1.91524-.15505z" style="display:inline;fill-opacity:1;fill:#000;opacity:1;stroke-dasharray:none;stroke-linecap:butt;stroke-linejoin:miter;stroke-miterlimit:4;stroke-opacity:1;stroke-width:0;stroke:#000"/><path style="display:inline;fill-opacity:1;fill-rule:nonzero;fill:#999;opacity:1;stroke-dasharray:none;stroke-linecap:butt;stroke-linejoin:round;stroke-miterlimit:4;stroke-opacity:1;stroke-width:0;stroke:#000" d="m278.2865 315.42225a3.0981078 3.1554572.0 01-3.0981 3.15546 3.0981078 3.1554572.0 01-3.09811-3.15546 3.0981078 3.1554572.0 013.09811-3.15546 3.0981078 3.1554572.0 013.0981 3.15546z" id="path5567"/><path style="display:inline;fill-opacity:1;fill-rule:nonzero;fill:#999;opacity:1;stroke-dasharray:none;stroke-linecap:butt;stroke-linejoin:round;stroke-miterlimit:4;stroke-opacity:1;stroke-width:0;stroke:#000" d="m268.08638 341.68356a3.0981078 3.1554572.0 01-3.0981 3.15545 3.0981078 3.1554572.0 01-3.09811-3.15545 3.0981078 3.1554572.0 013.09811-3.15547 3.0981078 3.1554572.0 013.0981 3.15547z" id="path5571"/><path style="display:inline;fill-opacity:1;fill-rule:nonzero;fill:#999;opacity:1;stroke-dasharray:none;stroke-linecap:butt;stroke-linejoin:round;stroke-miterlimit:4;stroke-opacity:1;stroke-width:0;stroke:#000" d="m263.13664 368.37684a3.0981078 3.1554572.0 01-3.0981 3.15545 3.0981078 3.1554572.0 01-3.09811-3.15545 3.0981078 3.1554572.0 013.09811-3.15547 3.0981078 3.1554572.0 013.0981 3.15547z" id="path5573"/></g></svg>