<svg viewBox="0 0 560 1e3"><path style="display:inline;fill-opacity:1;fill-rule:evenodd;fill:#000;stroke-dasharray:none;stroke-linecap:butt;stroke-linejoin:miter;stroke-miterlimit:4;stroke-opacity:0;stroke-width:2.95481515;stroke:#000" d="m353.77438 410.7561c.8035.94777 3.39162 2.38832 4.14121 3.30607 14.10764 17.27214 18.14406 28.16348 18.60524 40.8646-.98043 1.13213-7.60797 1.18596-7.68842 1.30019-2.74822-17.62234-13.51199-38.7505-15.05803-45.47086z" id="path2691-0"/><path style="display:inline;fill-opacity:1;fill-rule:evenodd;fill:#333;stroke-dasharray:none;stroke-linecap:butt;stroke-linejoin:miter;stroke-miterlimit:4;stroke-opacity:0;stroke-width:2.95481515;stroke:#000" d="m353.68933 410.55482c15.92553 18.7851 21.11172 31.5018 21.5974 44.87778-.98043 1.13213-7.60797 1.18596-7.68842 1.30019-2.74822-17.62234-12.36294-39.45761-13.90898-46.17797z" id="path2691"/><path style="display:inline;fill-opacity:1;fill-rule:nonzero;fill:#1e1e1e;opacity:1;stroke-width:3.5649364" d="m335.59959 163.79141c2.33952 23.91808-16.00495 43.93004-35.17272 45.23412-11.23214.76419-33.49065-6.17401-43.0993-14.30108-.57665-.48773 6.45269-20.58409 4.79466-30.97764-.34374-8.84109 73.77875-6.53861 73.47736.0446z" id="path4011-5-0"/></svg>