<svg viewBox="0 0 560 1e3"><path style="display:inline;fill-opacity:1;fill:#464646;opacity:1;stroke-width:.55835629" d="m318.4001 422.65902c.55785-.62766 1.80866-1.61636 2.77957-2.19712 1.93351-1.15651 6.8334-6.84067 8.30237-9.63123.7651-1.45342 1.73566-2.4941.8312-5.96278-1.47568-5.65961-1.05377-6.40571.0634-6.40571 1.17947.0 2.16386 3.75493 3.41962 7.62734.91654 2.82627.5266 2.88791-1.76311 5.73495-1.273 1.58288-3.48441 3.90343-4.91418 5.15679-2.90275 3.44545-9.26873 8.51527-9.26873 8.51527s-8.37957 5.59311.54985-2.83751z" id="path4817-8-4-9"/><path style="display:inline;fill-opacity:1;fill:#464646;opacity:1;stroke-width:.46036705" d="m244.40182 432.71216c-2.12471-3.10753-6.66282-11.1811-7.81105-13.89629-.51848-1.22606-1.67415-3.33564-2.56816-4.68796-2.16533-3.27548-2.78311-5.73698-1.92742-7.67986 1.42042-3.22508 2.73773-6.66924 3.21823-8.41421.62339-2.26378 1.43334-3.04639 1.05449-1.01892-.66564 3.56226-2.41895 10.10728-2.99726 11.18866-.57613 1.07728-.56535 1.3942.11156 3.27592.4122 1.14578 1.1782 2.65046 1.70221 3.34371.52405.69325 2.8423 4.54875 5.15166 8.56779 2.30938 4.01902 4.58858 7.90818 5.06491 8.64262 2.21325 3.41253 1.29595 4.03542-.99919.67854z" id="path4809-8-4-4"/><path style="display:inline;fill-opacity:1;fill:#464646;opacity:1;stroke-width:.79948705" d="m268.51402 419.66193c-1.87073-6.70782-2.40978-20.67431 1.57098-29.9788 5.58564-15.88279-3.57264-25.03768 2.01419-45.73651.75894-1.72499 1.37987-4.08041 1.37987-5.23425.0-2.92123 2.63826-11.95425 3.63626-12.45001 2.1952-1.09046 2.30742.82982.31622 5.41078-1.19365 2.74601-2.12587 6.04644-2.07163 7.33424.0543 1.28783-.53344 4.92187-1.3059 8.07562-6.66998 14.20138 4.6771 30.93495-1.61929 42.10768-5.83825 10.24501-3.80902 19.46117-2.57219 27.8926.67305 4.58799-.27992 6.41027-1.34851 2.57865z" id="path4767-2-4-7"/><path style="display:inline;fill-opacity:1;fill:#464646;opacity:1;stroke-width:.93345863" d="m239.56794 386.00001c0-1.88731 2.10275-8.98714 2.38053-8.03776.10006.34192-.0902 2.66344-.423 5.15897-.5776 4.33281-1.95753 6.36215-1.95753 2.87879z" id="path4753-0-5-5"/><path style="display:inline;fill-opacity:1;fill:#464646;opacity:1;stroke-width:.75218087" d="m323.70528 371.55332c-.97171-1.95037-2.11766-8.19339-1.78071-9.70125.58017-2.59623 1.99495-.99769 2.3125 2.61291.17472 1.98645.64019 4.75406 1.03442 6.15031.71973 2.54908-.42264 3.23325-1.56621.93803z" id="path4747-8-2-3"/><path style="display:inline;fill-opacity:1;fill:#464646;opacity:1;stroke-width:.75218087" d="m319.15642 347.37063c-.0175-1.6722.32101-5.07433-.59289-7.92208l-1.62336-5.05849-3.88894-4.68548c-2.13891-2.57699-3.59805-4.87287-3.24253-5.10192.7437-.47914 6.95149 4.09795 6.9723 5.14084.009.381.80859 1.33416 1.78002 2.11814l1.76616 1.42541 6.60971-2.97831c3.63537-1.63808 6.79387-2.85801 7.01889-2.71094.22506.14707-2.23788 1.76546-5.47316 3.59649-3.23531 1.83101-6.54022 4.03293-7.34427 4.89316-.23938 1.80007.69025 7.01139.7174 10.78678.032 4.45009-2.66317 4.13901-2.69933.4964z" id="path4735-6-1-2"/><path style="display:inline;fill-opacity:1;fill:#464646;opacity:1;stroke-width:.75218087" d="m247.14596 336.8091c-.19855-4.08692-.0868-5.04351 1.60979-7.16958 1.67859-2.10353 9.48718-7.58091 10.80737-7.58091 1.33598.0.0975 1.51296-3.12264 3.81404-5.26836 3.76498-6.95696 6.29559-8.0225 10.99531l-1.0452 4.61003z" id="path4721-0-8-9"/><path style="display:inline;fill-opacity:1;fill:#464646;opacity:1;stroke-width:.75218087" d="m340.98637 325.82252c0-.31996.86132-.72891 1.91406-.90883 1.21754-.20808 1.78197-.068 1.55116.38514-.44558.87457-3.46522 1.33098-3.46522.52369z" id="path4691-3-2-5"/><path style="display:inline;fill-opacity:1;fill:#464646;opacity:1;stroke-width:.75218087" d="m266.0897 317.79777c.98429-1.0408 5.90367-2.46001 6.46602-1.86538.29016.30697-.79704.99005-2.4163 1.51795-3.37907 1.10165-4.88517 1.23086-4.04972.34743z" id="path4685-3-53-5"/><path style="display:inline;fill-opacity:1;fill:#464646;opacity:1;stroke-width:.75218087" d="m297.25548 316.22446c-2.30285-.77691-5.12907-1.42386-6.28048-1.43764-1.15142-.0133-2.09351-.29869-2.09351-.63313.0-1.08519 3.72692-.6449 8.19496.96812 7.67724 2.77159 7.82512 3.68221.17911 1.10265z" id="path4683-1-7"/><path style="display:inline;fill-opacity:1;fill:#464646;opacity:1;stroke-width:.93345863" d="m327.6498 390.63771c-.7211-1.85781-1.42393-9.17192-.79568-8.28034.22629.32107.93145 2.63573 1.56684 5.14373 1.10337 4.35443.55978 6.56552-.77116 3.13661z" id="path4753-0-3-46-6"/></svg>