<svg viewBox="0 0 560 1e3"><path d="m225.9 413.1s-10.3 43.4-10.6 67.8c-.5 43.2 14.3 129.1 30.4 183.7 7.5 61.7 6.2 123.3 8.8 185.4l11.5-.3c2.2-51.3 34-103.9 16.3-161.5 2.3-46.1 10-72.4 5-160.3-5.4 94.3 16.6 109.2 26.4 153.6-15.6 58 5.7 110.8 6.5 168.9h16.3c.2-58.5 15.6-94.6 7.7-168.9 12.4-64.5 12.4-139.3 11.6-205.6-.3-26-5.4-64.7-5.4-64.7l-124.5 1.9" class="skin" id="XMLID_464_"/><path d="m288 588.6c-9.8-40.3-16.6-61.7-12.6-107.8-.7 44.5 3.5 67.1 12.6 107.8z" class="shadow" id="XMLID_465_"/><path d="m226.3 412.5c27.9-30 93.7-36.4 123.8-1.4 18.2 21.2 25.4 60.2 7 78.9-8.2 8.3-22.1 13.3-35 11-24.2-4.4-25.9-31.9-47.3-34.5C256.7 464.3 248.5 483 231 478 220.9 475.1 221.28701 468.07973 218.48701 460.07973 216.5943 437.63189 223.7 415.2 226.3 412.5z" class="skin" id="Stump_Normal-7"/><path d="m226.3 412.5c20-34.8 104.4-37.1 124-1.5 11.9 21.7 1.4 60.5-22.3 72-.8.4-20.2 9.5-34 1-9.5-5.8-10.3-16.2-19.3-17.5-6.4-1-8.4 3.9-17.8 5.5-9.2 1.5-18.7-1.3-24-5-14.1-9.8-16-38.2-6.6-54.5z" class="skin" id="Stump_Narrow-7"/></svg>