<svg viewBox="0 0 560 1e3"><path id="path5801" d="m347.87122 216.10417c-2.2742-3.975-5.32807-5.56966-2.31247-5.91928 8.0577-.9342 6.16932-4.87509 29.22752-4.57909-.22504-.0228 57.7282-35.03648 65.21193-35.58113-20.59914-4.52537-54.59877-29.00859-80.10314-33.14077 4.72045-14.82499 6.53271-44.012837 16.69177-40.050715 89.78858 35.018315 112.95611 71.231065 112.33445 75.959585-37.32592 35.32228-81.71091 66.14544-128.12457 87.68659-6.76698-20.22007-12.61438-43.93416-12.92549-44.37519z" style="display:inline;fill-opacity:1;fill-rule:evenodd;fill:#000;stroke-dasharray:none;stroke-linecap:butt;stroke-linejoin:miter;stroke-miterlimit:4;stroke-opacity:0;stroke-width:3.05055022;stroke:#000"/><path id="path5803" d="m347.79149 214.93549c-2.23963-3.9037-5.24707-5.46975-2.27732-5.81311 7.93519-.91744 6.81412-2.33248 29.52175-2.0418-.22163-.0224 59.45608-35.6177 63.37924-37.38017-21.12774-7.8818-50.37101-29.47634-77.19115-33.9802 4.82221-14.49599 5.84398-41.443118 14.8465-37.916453 88.33917 34.606143 111.23875 69.953463 110.62654 74.597173-36.75843 34.68874-80.46859 64.95904-126.1766 86.11383-6.66409-19.85739-12.42259-43.14615-12.72896-43.57927z" style="display:inline;fill-opacity:1;fill-rule:evenodd;fill:#ff6db6;stroke-dasharray:none;stroke-linecap:butt;stroke-linejoin:miter;stroke-miterlimit:4;stroke-opacity:0;stroke-width:3;stroke:#000"/><path style="display:inline;fill-opacity:1;fill:#3e89b8;stroke-dasharray:none;stroke-linecap:butt;stroke-linejoin:miter;stroke-miterlimit:4;stroke-opacity:1;stroke-width:0;stroke:#000" d="m384.4934 100.77498c-.18851-.13671-7.41385-3.43466-11.14827-3.654181-4.94944.877674-9.89607 24.289271-12.18417 38.735821 4.91341.73216 13.93937 3.61761 13.93937 3.61761s2.26139-19.82484 9.39307-38.69925z" id="path4019-8-9-2"/></svg>