<svg viewBox="0 0 560 1e3"><path d="m283.66521 456.38067c-1.54841.73859-1.78928 15.78672-9.24659 11.14886-5.5459 3.1603-10.12915-4.94173-10.42429-8.4126-.25114-2.95343 3.37748-7.20053 3.87403-6.51846 2.14579-.003 16.30971 2.85987 15.79685 3.7822z" class="shadow" id="path4153"/><path d="m274.36595 467.58332c-3.81452 2.31718-9.64064-2.27902-10.8644-11.68664 5.95334-21.67633 25.49385-8.31185 20.23612.35499-2.87984 4.74713-3.52005 14.37508-9.37172 11.33165z" class="skin torso" id="path4155"/><path id="path4157" d="m362.4682 408.66378c-.0813-.25494-.0369-3.51911-.0369-3.51911-37.18529 8.22641-89.79761 14.83384-136.88585 1.62797-.0404-.0164.30283 2.189.12956 6.49528 30.89873 13.95984 114.13923 9.25249 136.79318-4.60414z" style="display:inline;fill-opacity:1;fill:#000;stroke-dasharray:none;stroke-linecap:butt;stroke-linejoin:miter;stroke-miterlimit:4;stroke-opacity:1;stroke-width:0;stroke:#000"/><path style="display:inline;fill-opacity:1;fill:#1a1a1a;stroke-dasharray:none;stroke-linecap:butt;stroke-linejoin:miter;stroke-miterlimit:4;stroke-opacity:1;stroke-width:0;stroke:#000" d="m268.15022 466.84042c1.97544 1.15064 3.44304 1.50895 6.29117.74829 1.48394 1.11892 3.67809 1.01117 5.52348-.15189 12.34413-20.92611 29.1042-34.50275 48.97711-41.71628 10.223-3.71078 22.67972-3.07023 33.381-4.75194.78922-5.4158.35644-11.80495.0568-12.74471-24.81426 5.52337-96.69219 15.64041-136.71081-1.10008-.0611.72891.0943 3.49625.19492 4.48571-1.01232 2.05127-1.8005 5.00623-3.07718 9.05261 4.22581 2.42316 7.46382 4.97797 10.27417 7.74862.42664 8.69013 14.05707 21.05423 35.08935 38.42967z" id="path4159"/><path style="display:inline;fill-opacity:1;fill:#333;stroke-dasharray:none;stroke-linecap:butt;stroke-linejoin:miter;stroke-miterlimit:4;stroke-opacity:1;stroke-width:0;stroke:#000" d="m225.81842 411.58888c35.65478 14.81043 121.42276 5.37241 136.68022-2.95107.17382-1.68154.2178-2.5829-.0339-3.48489-58.31295 15.78964-120.9211 9.70164-136.8913 1.86045-.19298 1.12545.0537 2.37563.24498 4.57551z" id="path4161"/><path style="display:inline;fill-opacity:1;fill:#333;stroke-dasharray:none;stroke-linecap:butt;stroke-linejoin:miter;stroke-miterlimit:4;stroke-opacity:1;stroke-width:0;stroke:#000" d="m275.25299 462.86252c-12.30071-3.84341-9.97725-39.56452-8.12905-43.86741.10337-.24065 6.70466-.007 6.80117-.0386-.14286-.008-.28501-.0153-.42641-.0219-4.0967-.18979-7.561.22503-9.12434-.44654-1.55247 9.38892-6.14341 45.13839 10.87863 44.37445z" id="path4163"/><path style="display:inline;fill-opacity:1;fill:#333;stroke-dasharray:none;stroke-linecap:butt;stroke-linejoin:miter;stroke-miterlimit:4;stroke-opacity:1;stroke-width:0;stroke:#000" d="m324.23328 427.46565c-3.54385-4.72455-4.58363-8.98886-4.9291-11.08235-1.02422-.29348-2.03709.77235-2.39603.55362-.0361.57214 1.60868 5.44622 5.93925 10.97322.79536-.22124.67963-.24922 1.38588-.44449z" id="path4165"/><path style="display:inline;fill-opacity:1;fill:#333;stroke-dasharray:none;stroke-linecap:butt;stroke-linejoin:miter;stroke-miterlimit:4;stroke-opacity:1;stroke-width:0;stroke:#000" d="m233.05215 427.945c3.55397-4.71055 5.66482-10.40051 5.21735-13.11208-1.02422-.29348-.41393-.14186-.77287-.36059-.0557.88313-.96077 6.97597-5.44961 12.86117.31554.91926.31461.36013 1.00513.6115z" id="path4167"/><path id="path4169" class="shadow" d="m329.90785 425.6821c-15.4791 1.19068-42.03653 26.26041-44.60913 30.99635 10.29989-9.14088 29.75951-26.28541 44.60913-30.99635z"/><path id="path4171" class="shadow" d="m262.16576 457.53039c-6.81704-9.41592-28.83006-31.99347-34.93819-34.15183 5.05404 5.44075 26.5203 25.35081 34.93819 34.15183z"/><path d="m262.98857 459.03749c4.57815 9.39542 7.95428 8.94718 11.45233 8.01034.29456-.0789 5.02218 4.77996 9.26343-8.71666-1.38475 8.70911-5.07155 11.80271-9.4541 9.65901-.0226-.0111-2.82256 1.04466-4.71233.003-2.95847-1.63089-6.361-5.7435-6.54933-8.9556z" class="shadow" id="path4173"/><path id="path4238-3" d="m370.45236 269.96102c-.72431 13.77887-3.2131 24.26211-9.15217 38.64163-66.74361-8.03197-118.17547-6.70772-123.69546-4.27459-2.92035-11.95942-4.01566-32.10443.94105-52.56737 50.54474.32853 91.32247 2.85689 131.90658 18.20033z" style="display:inline;fill-opacity:1;fill-rule:evenodd;fill:#000;opacity:1;stroke-dasharray:none;stroke-linecap:butt;stroke-linejoin:miter;stroke-miterlimit:4;stroke-opacity:1;stroke-width:0;stroke:#000"/><path id="path4240-6" d="m361.02241 307.58809c-55.12275-8.36934-113.3879-6.88858-122.49841-4.50988-3.69137-14.28461-1.67245-36.4913.71132-50.46562 12.4531.21782 84.70619.6679 130.48398 17.99082-1.49894 15.86805-3.83773 23.0746-8.69689 36.98468z" style="display:inline;fill-opacity:1;fill-rule:evenodd;fill:#1a1a1a;opacity:1;stroke-dasharray:none;stroke-linecap:butt;stroke-linejoin:miter;stroke-miterlimit:4;stroke-opacity:1;stroke-width:0;stroke:#000"/></svg>