<svg viewBox="0 0 560 1e3"><g data-transform="belly" transform="matrix(1.014792,0,0,1.0059302,-4.1476732,-2.5734225)" id="g5467"><path id="path5463" class="shadow" d="m274.8 433.8c20.7-1.5 47.7-4.5 61.9-42.4 13.1-44.3-27.8-99.6-59.9-101.5-40.1 6.2-61.8 42.8-63.9 96.9 2.2 31 33.1 49 61.9 47z"/><path style="fill-opacity:1;fill:#ff6db6" id="path5465" d="m274.8 433.8c20.8.1 49.4-13 61.9-42.4s-18.5-83.4-46-101.7c-6.5-4.3-38.7-8.2-40.4.0-2.6 11.6-44.9 33.3-41.4 96.8 1.8 34.8 45.1 47.2 65.9 47.3z"/><path style="display:inline;fill-opacity:1;fill:#fff;stroke-dasharray:none;stroke-linecap:butt;stroke-linejoin:miter;stroke-miterlimit:4;stroke-opacity:1;stroke-width:0;stroke:#000" d="m281.62249 285.64691c-3.30574 18.44632-6.20989 34.5026-6.48001 34.85977 1.89905 3.70374 9.21321-3.81421 10.35881-1.16913.36842-.49008 2.74027-13.78346 5.50414-29.58664-5.98983-4.13293-8.59498-3.99089-9.38294-4.104z" id="path4019-6-9"/><path style="display:inline;fill-opacity:1;fill:#1e7bb6;stroke-dasharray:none;stroke-linecap:butt;stroke-linejoin:miter;stroke-miterlimit:4;stroke-opacity:1;stroke-width:0;stroke:#000" d="m284.58762 286.3042c-3.34772 18.90379-6.35278 35.72487-6.66466 36.14621.51948 1.43014 12.22386-4.32894 14.80609.99828.29381-.41247 2.44936-13.75607 4.95123-29.49671-5.18601-3.4803-10.72648-7.31748-13.09266-7.64778z" id="path4019-81-3"/><path style="display:inline;fill-opacity:1;fill:#1e7bb6;stroke-dasharray:none;stroke-linecap:butt;stroke-linejoin:miter;stroke-miterlimit:4;stroke-opacity:1;stroke-width:0;stroke:#000" d="m226.73179 317.28943c-1.16907 1.40056-2.1111 3.17288-2.34644 3.60141.13176 1.27788 59.62231 1.89664 98.27013 2.06466-1.91505-2.7741-2.57071-3.74913-3.22148-4.71696-37.98655-.57548-90.90458-.85953-92.70221-.94911z" id="path4019-8-9-4-4"/><path style="display:inline;fill-opacity:1;fill:#3e89b8;opacity:1;stroke-width:1.01035142" id="path5465-1" d="m274.71717 433.7991c21.10767.10059 50.13072-13.07709 62.81562-42.65144 7.76681-18.10802-1.01561-45.4932-15.39908-68.23189-4.32069-.045-73.21336-.53943-97.65257-1.99002-9.79508 14.74192-18.29987 35.41888-16.63876 65.29285 1.82662 35.00637 45.76712 47.47991 66.87479 47.5805z"/><path style="display:inline;fill-opacity:1;fill:#1e7bb6;stroke-dasharray:none;stroke-linecap:butt;stroke-linejoin:miter;stroke-miterlimit:4;stroke-opacity:1;stroke-width:0;stroke:#000" d="m276.87512 317.52904c-.057.55308-5.39237 48.22851-12.92929 115.33411-5.40925-.32923-9.59065-1.62436-9.93387-1.95443 10.27868-57.81847 18.76295-101.45466 22.86316-113.37968z" id="path4019-8-9-4-1-5-4"/><path style="display:inline;fill-opacity:1;fill:#1e7bb6;stroke-dasharray:none;stroke-linecap:butt;stroke-linejoin:miter;stroke-miterlimit:4;stroke-opacity:1;stroke-width:0;stroke:#000" d="m293.58556 316.57607c.23996 37.1509.99633 75.04776 2.03153 113.5187-6.53573 3.08328-7.89889 2.25643-9.17485 2.43992 2.02051-39.11136-.20143-77.1058 7.14332-115.95862z" id="path4019-8-9-4-1-5-3-1"/><path id="path1686-2-1-7-8" d="m297.84274 294.09241c1.17246 27.18583 1.34079 53.15963 1.79348 54.85695-1.61972.95124-11.03187 3.81514-12.43323 4.14596-.35276-.839-.35263-34.66501-.19173-66.18857 3.32289 2.43235 2.12931 1.54211 10.83148 7.18566zm-20.43205-9.02514c-2.83535 21.02494-4.72277 44.07428-5.8906 68.66038-1.19524-.14596-12.84541-3.14232-13.07284-3.26583-.35091-.59915 4.36893-34.56252 10.81208-66.18508.75336.006 4.71124.29824 8.15136.79053z" style="display:inline;fill-opacity:1;fill:#000;stroke-dasharray:none;stroke-linecap:butt;stroke-linejoin:miter;stroke-miterlimit:4;stroke-opacity:1;stroke-width:0;stroke:#83afc8"/><path style="display:inline;fill-opacity:1;fill:#ff6db6;stroke-dasharray:none;stroke-linecap:butt;stroke-linejoin:miter;stroke-miterlimit:4;stroke-opacity:1;stroke-width:0;stroke:#83afc8" d="m299.03146 348.94936c-1.48451.95124-9.86966 3.33082-11.15404 3.66163-.31619-.82052-.014-33.7841.20086-64.93258 1.78882.80884 3.0185 2.17203 8.96915 5.83064 1.24536 27.37828 1.56522 53.727 1.98403 55.44031z" id="path5759-3"/><path style="display:inline;fill-opacity:1;fill:#3e89b8;stroke-dasharray:none;stroke-linecap:butt;stroke-linejoin:miter;stroke-miterlimit:4;stroke-opacity:1;stroke-width:0;stroke:#83afc8" d="m276.16298 284.86048c-2.95158 22.7425-3.04179 42.31962-5.31116 68.14068-1.09546-.14596-11.32731-2.95397-11.53575-3.07748 1.6021-17.53807 5.09612-42.90272 9.44581-65.73349.49409-.28249 7.34677.38387 7.4011.67029z" id="path1686-2-1-1"/><path style="display:inline;fill-opacity:1;fill:#1e7bb6;stroke-dasharray:none;stroke-linecap:butt;stroke-linejoin:miter;stroke-miterlimit:4;stroke-opacity:1;stroke-width:0;stroke:#000" d="m249.49097 318.13219c-5.59768 21.59618-13.43093 57.43689-22.34391 100.7032-5.62962-3.33495-7.3442-5.88263-7.83018-6.66936 12.72084-46.1699 23.52938-81.08589 30.17409-94.03384z" id="path4019-8-9-4-1-1-3"/></g></svg>