<svg viewBox="0 0 560 1e3"><path id="path4301" d="m368.45236 268.83602c-9.80951 70.83842-32.71915 63.11292-16.83443 143.08177.0274-.17435-44.85871 18.47256-65.03866 39.41562-4.92627 5.11256-3.48792 15.45153-7.05147 16.69466-13.46483 4.69716-17.71458-10.66263-17.71458-10.66263-6.67546-8.9041-31.17323-37.74254-36.54649-43.43743 17.92775-45.22658 12.90902-93.1066 11.21478-123.62982.0619-4.13742 1.1691-18.91013 1.1691-18.91013 59.03806 8.979 71.51573-67.65335 90.39929-66.22225 8.88597 37.07979 9.15094 55.62574 36.13431 62.42544z" style="display:inline;fill-opacity:1;fill-rule:evenodd;fill:#000;opacity:1;stroke-dasharray:none;stroke-linecap:butt;stroke-linejoin:miter;stroke-miterlimit:4;stroke-opacity:1;stroke-width:0;stroke:#000"/><path id="path4308" d="m368.47602 268.56519c-15.26083 79.40284-34.61905 67.34018-16.7213 143.33553-.55664.0414-40.74204 16.9923-62.23155 38.43767-6.29106 6.27814-8.25956 16.59043-8.55295 17.19861-.34473.71459-4.28479 1.02682-6.08184 2.18944-8.64043 5.59002-13.52858-12.764-13.52858-12.764-15.42735-18.27388-33.94517-40.49738-36.13062-42.49408 21.61713-48.84548 12.42759-87.50213 13.18775-141.46494 64.05382 4.14601 69.13493-66.8503 89.6245-67.82548.10703.003 6.21586.99425 7.09557 1.49852 5.19982 11.89785 4.74434 25.59675 8.81419 34.78976 5.09034 11.49812 15.12748 17.12438 24.52475 27.09897z" style="display:inline;fill-opacity:1;fill-rule:evenodd;fill:#c8c8c8;opacity:1;stroke-dasharray:none;stroke-linecap:butt;stroke-linejoin:miter;stroke-miterlimit:4;stroke-opacity:1;stroke-width:0;stroke:#000"/></svg>