<svg viewBox="0 0 560 1e3"><path class="areola" d="m271.54026 376.44844c.0782 1.21363-.39233 3.20481-1.35826 3.28497-.96592.0802-1.48021-1.74966-1.55841-2.96328-.0782-1.21363.42001-3.09486 1.38594-3.17502.96593-.0802 1.45253 1.6397 1.53073 2.85333z" id="path5405-7-9-0-4"/><path id="path4510-8" d="m370.45236 272.58602c-3.06155 32.80241-11.78076 43.11756-19.90025 81.23161 1.95915 5.74033 18.81048 39.25953 11.68125 62.37219-15.14035 7.95659-52.27923 14.26912-84.69357 14.01279-.76901-.006-1.9773-10.09213-2.74063-10.10567-.73991-.0131-1.03504 10.04648-1.76896 10.02623-23.15669-.63916-43.16874-4.85777-49.82793-14.53711-3.61419-35.95451 12.56673-65.57166 17.22644-94.59589-1.87782-10.29261-3.19035-20.34715-3.76674-28.39016-5.66195-68.91381 25.43595-80.91093 50.18174-91.89098 9.24713 11.38115 25.18214 3.12903 31.26177-2.13928.12489 7.20108 47.20462 34.9752 52.34688 74.01627z" style="display:inline;fill-opacity:1;fill-rule:evenodd;fill:#000;opacity:1;stroke-dasharray:none;stroke-linecap:butt;stroke-linejoin:miter;stroke-miterlimit:4;stroke-opacity:1;stroke-width:0;stroke:#000"/><path id="path4512-9" d="m363.85542 299.71521c-4.48796 17.83618-10.83213 36.66476-15.04845 53.39954 1.16011 4.13774 12.63927 29.2119 13.22207 46.87602.0386 1.17101.40438 10.80946-1.15894 15.65709-20.73211 7.97985-51.43176 12.84571-81.29471 13.2629-1.47045.0585-3.74023-10.41749-5.21753-10.39267-1.43876.0242-2.0876 10.53923-3.53629 10.50954-15.12502-.30991-40.27097-4.48351-46.65732-13.63943-.504-2.33471-.32379-10.41588-.38367-13.0718-.54039-23.96557 15.35391-59.59291 17.98521-81.34009-5.96785-40.25491-15.76886-106.49187 40.33974-118.55701 3.12384-2.05334 5.3098-5.95602 6.93885-10.38042 1.65753 5.04021 26.21695.68309 26.60293.54975 2.99455 5.49381 1.12395 6.57536 6.71301 7.72308 69.725 14.36119 51.09071 59.5419 41.4951 99.4035z" style="display:inline;fill-opacity:1;fill-rule:evenodd;fill:#ececec;opacity:1;stroke-dasharray:none;stroke-linecap:butt;stroke-linejoin:miter;stroke-miterlimit:4;stroke-opacity:1;stroke-width:0;stroke:#000"/><path style="display:inline;fill-opacity:1;fill:#000;opacity:1;stroke-dasharray:none;stroke-linecap:butt;stroke-linejoin:miter;stroke-miterlimit:4;stroke-opacity:1;stroke-width:0;stroke:#000" d="m288.65067 205.94096c-.008-.17 5.77348-12.05234 5.84504-12.26958.0.0-5.0441-2.25985-5.19628-2.04286-.92463 1.3184-2.65827 4.70639-4.15936 6.60625.1059.25324 3.5106 7.70619 3.5106 7.70619z" id="path4514-0"/><path style="display:inline;fill-opacity:1;fill:#ececec;opacity:1;stroke-dasharray:none;stroke-linecap:butt;stroke-linejoin:miter;stroke-miterlimit:4;stroke-opacity:1;stroke-width:0;stroke:#000" d="m288.66108 203.74098c-.008-.16669 5.35844-10.06772 5.42795-10.28074.0.0-4.89991-2.21585-5.04775-2.00309-.8982 1.29274-2.58228 4.61477-4.04047 6.47765.10291.24831 3.66027 5.80618 3.66027 5.80618z" id="path4516-7"/><path style="display:inline;fill-opacity:1;fill:#000;opacity:1;stroke-dasharray:none;stroke-linecap:butt;stroke-linejoin:miter;stroke-miterlimit:4;stroke-opacity:1;stroke-width:0;stroke:#000" d="m303.24206 205.47603c.007-.15238-3.99545-11.03492-4.06234-11.22965.0.0 16.62296-2.66894 16.76522-2.47444.86438 1.18176 2.6413 5.37486 3.07583 6.04657-.099.227-15.77871 7.65752-15.77871 7.65752z" id="path4518-2"/><path style="display:inline;fill-opacity:1;fill:#ececec;opacity:1;stroke-dasharray:none;stroke-linecap:butt;stroke-linejoin:miter;stroke-miterlimit:4;stroke-opacity:1;stroke-width:0;stroke:#000" d="m303.64915 204.60393c.007-.14856-3.93866-10.27774-4.00456-10.46759.0.0 15.63782-2.64512 15.77799-2.4555.85164 1.15214 2.60238 5.24014 3.03051 5.89501-.0975.22131-14.80394 7.02808-14.80394 7.02808z" id="path4520-0"/><path style="display:inline;fill-opacity:1;fill:#000;opacity:1;stroke-dasharray:none;stroke-linecap:butt;stroke-linejoin:miter;stroke-miterlimit:4;stroke-opacity:1;stroke-width:0;stroke:#000" d="m273.76587 419.87564c-3.37067-27.44695 2.70899-95.34442 23.25259-225.55289l.80611.10099c.44243 13.37084-30.13893 182.40374-21.77891 225.43423.0.0 3.2884 9.0256 2.9539 9.11551-.27058.0727-1.36242-1.78943-2.48055-3.84918-.5346-.98482-.85425-3.87098-1.31398-4.75626-.64705-1.24599-1.35484-.34915-1.43916-.49237z" id="path4522-4"/><path style="display:inline;fill-opacity:1;fill-rule:nonzero;fill:gray;opacity:1;stroke-dasharray:none;stroke-linecap:butt;stroke-linejoin:round;stroke-miterlimit:4;stroke-opacity:1;stroke-width:0;stroke:#000" d="m300.87394 220.43307a2.7544847 2.8454499.0 01-2.75448 2.84545 2.7544847 2.8454499.0 01-2.75449-2.84545 2.7544847 2.8454499.0 012.75449-2.84546 2.7544847 2.8454499.0 012.75448 2.84546z" id="path4524-9"/><path style="display:inline;fill-opacity:1;fill-rule:nonzero;fill:gray;opacity:1;stroke-dasharray:none;stroke-linecap:butt;stroke-linejoin:round;stroke-miterlimit:4;stroke-opacity:1;stroke-width:0;stroke:#000" d="m297.69369 242.50598a2.7544847 2.8454499.0 01-2.75448 2.84545 2.7544847 2.8454499.0 01-2.75449-2.84545 2.7544847 2.8454499.0 012.75449-2.84546 2.7544847 2.8454499.0 012.75448 2.84546z" id="path4526-8"/><path style="display:inline;fill-opacity:1;fill-rule:nonzero;fill:gray;opacity:1;stroke-dasharray:none;stroke-linecap:butt;stroke-linejoin:round;stroke-miterlimit:4;stroke-opacity:1;stroke-width:0;stroke:#000" d="m294.36894 266.99921a2.7544847 2.8454499.0 01-2.75448 2.84545 2.7544847 2.8454499.0 01-2.75449-2.84545 2.7544847 2.8454499.0 012.75449-2.84546 2.7544847 2.8454499.0 012.75448 2.84546z" id="path4528-5"/><path style="display:inline;fill-opacity:1;fill-rule:nonzero;fill:gray;opacity:1;stroke-dasharray:none;stroke-linecap:butt;stroke-linejoin:round;stroke-miterlimit:4;stroke-opacity:1;stroke-width:0;stroke:#000" d="m291.12262 291.4949a2.7544847 2.8454499.0 01-2.75448 2.84545 2.7544847 2.8454499.0 01-2.75449-2.84545 2.7544847 2.8454499.0 012.75449-2.84546 2.7544847 2.8454499.0 012.75448 2.84546z" id="path4530-6"/><path style="display:inline;fill-opacity:1;fill-rule:nonzero;fill:gray;opacity:1;stroke-dasharray:none;stroke-linecap:butt;stroke-linejoin:round;stroke-miterlimit:4;stroke-opacity:1;stroke-width:0;stroke:#000" d="m288.19248 313.4826a2.7544847 2.8454499.0 01-2.75448 2.84545 2.7544847 2.8454499.0 01-2.75449-2.84545 2.7544847 2.8454499.0 012.75449-2.84546 2.7544847 2.8454499.0 012.75448 2.84546z" id="path4532-6"/><path style="display:inline;fill-opacity:1;fill-rule:nonzero;fill:gray;opacity:1;stroke-dasharray:none;stroke-linecap:butt;stroke-linejoin:round;stroke-miterlimit:4;stroke-opacity:1;stroke-width:0;stroke:#000" d="m285.69616 337.78711a2.7544847 2.8454499.0 01-2.75448 2.84545 2.7544847 2.8454499.0 01-2.75449-2.84545 2.7544847 2.8454499.0 012.75449-2.84546 2.7544847 2.8454499.0 012.75448 2.84546z" id="path4534-8"/><path style="display:inline;fill-opacity:1;fill-rule:nonzero;fill:gray;opacity:1;stroke-dasharray:none;stroke-linecap:butt;stroke-linejoin:round;stroke-miterlimit:4;stroke-opacity:1;stroke-width:0;stroke:#000" d="m283.59261 360.44517a2.7544847 2.8454499.0 01-2.75448 2.84545 2.7544847 2.8454499.0 01-2.75449-2.84545 2.7544847 2.8454499.0 012.75449-2.84546 2.7544847 2.8454499.0 012.75448 2.84546z" id="path4536-5"/><path style="display:inline;fill-opacity:1;fill-rule:nonzero;fill:gray;opacity:1;stroke-dasharray:none;stroke-linecap:butt;stroke-linejoin:round;stroke-miterlimit:4;stroke-opacity:1;stroke-width:0;stroke:#000" d="m282.01878 380.39507a2.7544847 2.8454499.0 01-2.75448 2.84545 2.7544847 2.8454499.0 01-2.75449-2.84545 2.7544847 2.8454499.0 012.75449-2.84546 2.7544847 2.8454499.0 012.75448 2.84546z" id="path4538-4"/><path style="display:inline;fill-opacity:1;fill-rule:nonzero;fill:gray;opacity:1;stroke-dasharray:none;stroke-linecap:butt;stroke-linejoin:round;stroke-miterlimit:4;stroke-opacity:1;stroke-width:0;stroke:#000" d="m281.0045 400.49998a2.7544847 2.8454499.0 01-2.75448 2.84545 2.7544847 2.8454499.0 01-2.75449-2.84545 2.7544847 2.8454499.0 012.75449-2.84546 2.7544847 2.8454499.0 012.75448 2.84546z" id="path4548-1"/></svg>