<svg viewBox="0 0 560 1e3"><path d="m311.493 132.10506c-.41093-3.77403-18.22573-5.05624-19.50912 3.85404 13.86662 5.11927 18.74811-1.28478 19.50912-3.85404z" id="path4059-2-1-0-5" class="sclera"/><path d="m305.76672 130.34218c2.26855 3.73056-4.15711 7.94312-6.94632 4.57451-3.36632-2.4161-.74509-5.97447 1.08225-5.44928.25155 6.49511 3.89315 3.74521 3.79063.0767 1.24229 33e-5 1.3943.43373 2.07344.79811z" id="path4059-2" class="eye"/><path d="m302.83721 135.42328c.97134-.40334 1.99507-1.44584 2.30368-2.34593.55446-1.61715.2963-2.44799-.81638-2.62743-.64437-.10399-.65317-.0972-.75831.57638-.34647 2.22-2.18379 3.2933-3.09328 1.80701-.31354-.51236-.31585-.51293-.74026-.18353-.45732.35494-1.20082.64822-1.48897.58733-.0975-.0205-.0517.0628.10186.18525.15353.12249.42487.44519.60301.71714.42897.65491 2.03097 1.47031 2.97785 1.5157.1737.008.58355-.096.91077-.23192zm-.23442-3.11769c.4387-.46672.65031-.86194.46148-.86194-.0289.0-.36412.31701-.74481.70445-.38068.38745-.58834.70445-.46146.70445.12687.0.46202-.24613.74479-.54696zm-3.83359-.0253c.56362-.36664.98075-.95524.98075-1.38395.0-.21728-1.57908-.0192-1.905.23897-.28187.22327-.28741 1.05307-.008 1.3299.27071.26903.21966.27915.9331-.18492zm2.75283-.54571c0-.0969-.19935.0105-.44302.23752-.24365.22748-.44303.49286-.44303.58973.0.0969.19938-.0105.44303-.23752.24367-.22749.44302-.49287.44302-.58973zm.0886-.64305.69218-.70445-.61189.004c-.33654.001-.69166.0609-.78911.13209-.2151.15705-.32491 1.2741-.12523 1.2741.0781.0.45339-.31699.83405-.70444zm-6.68951-2.64252c-.0732 53e-5-.13292-.0371-.13292-.0836l-5e-5-3e-5c4.69499-2.80313 11.35698-2.21971 15.38896.56566.47366.35341.84585.45483 1.86068.50695 1.57976.0811 2.42045.21939 2.42045.39802.0.0756-.20713.32956-.46025.56439-.25314.23482-.6108.7186-.79474 1.07509-1.08518 2.10288-3.05856 4.33903-4.50428 5.10409-2.05865 1.08939-6.58157 1.7949-8.75912 1.3663l1e-5-8e-5c-.19344-.0481-2.59454-.16251-4.46527-.97812 2.90021.35492 6.9034 1.19749 9.32189.0331.53819-.26169.97856-.53796.97856-.61394.0-.076.47304-.42829 1.05121-.78295 2.16798-1.32987 4.24429-3.39737 3.80646-3.79031-.21371-.19178-3.12493-.89828-3.70151-.89828-.4276.0-.44551.0374-.33805.70531.19842 1.23304-.22033 2.24519-1.42683 3.44895-1.81197 1.8078-3.43764 2.07459-5.6759.93146-1.95068-.99628-2.62026-1.9319-2.85186-3.98502-.0866-.76851-.19918-1.1007-.37276-1.1007-1.06619.0-3.4037 2.21233-3.62286 3.4288-.0703.3904-.1825.88262-.24926 1.09381-.10524.33281-.0304.40789.56059.56319.6989.30603 6.1525 1.50227 7.173 1.69716-.4189.1675-6.31586-.82018-8.70465-1.49719-.0945-.15186.25541-1.01635.98948-2.44499.62455-1.21555 1.13554-2.23311 1.13554-2.26125.0-.0281-.27437-.0511-.60976-.0511-1.56266.0-.55292-.46684 4.39401-2.03152 3.55995-1.12599 6.20654-1.26637 9.60226-.50932 1.11767.24917 2.17137.41963 2.34151.37878.32189-.0772-2.07605-1.28299-3.41086-1.71505-4.16807-1.27454-7.66528-.81814-10.94368.88239z" style="display:inline;fill:#000;stroke-width:.1766593" id="path3608-5"/><path d="m276.25305 134.72213c-.19347 1.01703-.87729 1.60122-1.8178 1.86228-3.08303.8558-7.77524 1.77499-9.29317-3.98456.47343-5.14903 8.03823-3.43124 11.11096 2.1223z" id="path4059-2-1-0" class="sclera"/><path d="m275.50813 133.58118c.0562 2.93666-5.10528 3.21087-5.5867.3084-1.13931-2.54404.94835-4.58495 2.52047-3.16114-.74418 3.80039 1.31721 3.83731 2.13092 1.68697.72212.42066.6638.72408.9353 1.16579z" id="path4059-2-1" class="eye"/><path d="m268.88732 128.21079c-.77185.10853-1.6551.29912-1.96283.42368-.52626.21301-.47715.22679.82741.23201.7628.004 2.10417.15396 2.98084.33537 1.57292.32547 1.60756.34396 2.62971 1.40334.56968.59044 1.1901 1.3509 1.37872 1.68991.18864.33901.69982 1.11679 1.13598 1.72839.43616.61159.79301 1.26358.79301 1.44887.0.37598-.54683.78823-1.28477.96854-.26653.0651-1.88754.57202-3.09935.77725 1.62298-.59321 2.75348-1.05588 3.14365-1.28494.51626-.30308.68752-.70397.3811-.89217-.0827-.0509-.25398.0998-.38046.3346-.1265.23488-.55714.59146-.95704.79241-.3999.20095-.9916.5316-1.31485.73476-.78583.49386-3.20167.74103-4.79543.49066-1.43004-.22466-2.29223-.75617-3.14883-1.94115-.24701-.34169-.45938-.62733-.57593-.75432-.61236-.80415-1.53546-2.37453-1.86069-3.56647 1.00076-.34319 2.24532-1.68755 2.23515-1.71291l.2627-.35213.51473-.40749c.61905-.46924 2.54376-.94219 3.836-.9426 2.10544-.0537 4.24765.11057 4.73596.3059.28615.19898 1.09086 1.04378 1.22304 1.35928.0.0-.28544-.11297-.52929-.35529-1.70893-1.33158-4.01653-.95099-6.16853-.8155zm3.08372 8.67841c.30457-.11821.26425-.16513-.30123-.3506-.76625-.25131-1.64772-1.18716-2.12215-2.25303-.35149-.78971-.47413-2.43433-.24215-3.24738l.13262-.4647-.84951.15773c-1.69264.31426-3.08285 1.23416-3.08285 2.03994.0 1.02201 2.39996 3.73909 3.61092 4.08801.68243.19665 2.37914.21448 2.85435.03zm2.3025-1.53346c.85691-.40196 1.13733-1.02178.81363-1.79841-.34108-.81837-.66798-.82284-1.08277-.0148-.19967.38899-.48417.75343-.63218.80988-.44053.16801-1.11584-.24915-1.41599-.87469-.2334-.48639-.38263-.58797-.88471-.60212-.49146-.0138-.6039.0486-.6039.33519.0.58361.53282 1.51475 1.19991 2.09683.71579.62459 1.35204.63634 2.60601.0481zm-.97061-2.00367c0-.0969-.0353-.17612-.0782-.17612-.043.0-.12742.0793-.18766.17612-.0603.0969-.025.17612.0781.17612.10331.0.18767-.0792.18767-.17612zm-.53162-.69405c0-.0911-.0798-.2147-.17721-.27456-.0975-.0599-.1772.0147-.1772.16572.0.15101.0797.27456.1772.27456s.17721-.0746.17721-.16572zm-1.23847-.72289c.48552-.24556.92884-.85468.82251-1.13011-.0744-.19275-.35541-.27073-.97549-.27073-.94094.0-1.08152.16552-1.08704 1.28016-.002.44299.042.47706.48489.37189.26802-.0637.60783-.17673.75513-.25121zm1.74265-.53715c-.30224-.18564-.51071-.0288-.38715.29117.08.20691.15565.21842.35507.0539.19825-.1635.20523-.23873.0322-.34509z" style="display:inline;fill:#000;stroke-width:.1766593" id="path3608-4"/></svg>