<svg viewBox="0 0 560 1e3"><g data-transform="boob" transform="matrix(1.1899396,0,0,1.1247504,-49.050018,-33.548868)" id="g7250" class="scaler_"><path class="shadow" d="m300.57068 269.21021c-2.46935.0548-3.44009-1.37448-3.62907-3.03621-.23727-2.08653 1.48428-3.67846 2.98867-3.85749 1.50441-.17899 3.38309.87283 3.67801 3.03303.21511 1.57525-.55642 3.80553-3.03761 3.86067z" id="path7242"/><path id="path7244" d="m220.57153 263.20942c-2.29009-.0952-3.11365-1.47661-3.20084-3.0269-.10947-1.9467 1.56929-3.3193 2.97213-3.39611 1.4029-.0765 3.08739 1.00864 3.24636 3.0269.11602 1.47178-.71656 3.49184-3.01765 3.39611z" class="shadow"/><path class="areola" d="m300.52327 268.37964c-2.31036.0445-3.22386-1.38825-3.40676-3.05037-.22973-2.08702 1.37529-3.67149 2.78226-3.84433 1.40693-.17275 3.16869.88654 3.45259 3.04744.20703 1.57577-.50667 3.80232-2.82809 3.84726z" id="path7246"/><path class="areola" d="m220.17455 262.41875c-2.13631.15656-3.72915-1.18224-3.19331-2.66792.68335-1.89445.33046-1.84562 2.52039-3.71408 1.02186-.87188 2.94312.66709 3.23555 2.66293.21405 1.45523-.41605 3.56194-2.56263 3.71907z" id="path7248"/></g></svg>