<svg viewBox="0 0 560 1000"><path id="path48951" d="m 278.51974,469.09138 c -4.2298,2.99466 -9.85796,3.06305 -12.53897,1.18738 -5.28113,-3.69476 -4.86996,-12.57934 -3.55873,-15.02954 0.53193,-0.99397 1.69352,-2.12822 3.74192,-8.62763 1.36583,-4.33363 2.27969,-16.68733 2.22571,-26.36716 -0.008,-1.43849 -1.05797,-0.0338 -1.30216,-1.44022 -0.34617,-1.99361 1.8797,-5.38556 2.58494,-6.40028 2.58576,-3.7204 3.83094,-1.64447 4.40754,-1.59798 1.51859,0.12242 2.01926,3.95393 2.32848,8.61788 0.0817,1.2323 -0.0881,1.64487 -0.14974,2.9259 -0.35802,7.44523 -1.40185,12.19133 -0.84072,24.55221 0.17674,3.89339 1.9421,8.63239 2.65034,9.95123 2.7409,5.10404 2.92337,9.67564 0.45139,12.22821 z" style="display:inline;fill:#000000;opacity:1;stroke-width:0.85360748"/><path class="skin scrotum" d="m 266.9757,470.15685 c -5.60928,-2.7271 -5.65949,-12.85504 -3.55432,-15.50808 0.88466,-1.11488 1.49672,-2.10486 3.41327,-8.07631 1.31542,-4.09847 2.12238,-17.83528 2.07656,-27.11447 -0.007,-1.37896 -1.54319,0.2746 -1.45498,-1.08899 0.12403,-1.91702 1.21295,-3.9307 3.33023,-7.02442 1.26318,-1.84575 3.86272,-1.9093 5.74105,0.0557 1.06458,1.11361 2.51704,3.3609 2.7795,7.83183 0.0693,1.18129 -1.25578,-0.0525 -1.30807,1.1754 -0.30389,7.13708 -0.92659,14.74665 -0.45032,26.59593 0.15002,3.73224 1.21328,6.27678 1.89949,7.48832 2.77122,4.8928 3.81581,12.54127 0.24204,14.99902 -3.57378,2.45772 -10.14831,1.91377 -12.71445,0.66618 z" id="path48953"/></svg>
