<svg viewBox="0 0 560 1e3"><path id="path4780" class="hair" d="m332.47767 75.071551c6.63846 8.822249 10.28856 41.214189 11.50714 68.184749.10165 2.24966 3.43637 23.3366 3.50451 25.494.0593 1.87823-3.45645-10.65988-3.42208-8.87543.0221 1.14703.0391-.35261.051.74813.0212 1.9596 2.33899 18.21619 2.32853 20.00311-.01 1.67134-2.65829-9.49013-2.69526-7.99801-.0567 2.28727.48.84798.36098 2.63309-.0767 1.15028 1.3431 16.26618 1.25512 17.41576-.0695.90858-2.3949-8.83629-2.47043-7.92954-.19462 2.33626.3424 1.35192.11897 3.6615-.10139 1.04807.92007 18.46732.81512 19.50676-.10633 1.0532-2.02662-10.77354-2.13508-9.73121-.37651 3.61833-.0737 3.66498-.43421 7.09734-1.54613 14.71894-5.40487 18.96425-5.53385 19.01743-.0598.0247-1.14043-7.32742-1.44454-7.61448-.17489-.16508-1.98142 21.54177-2.35996 21.55585-.19556.007-4.06753-24.7688-4.24843-24.90355-.16185-.12056.36905 12.47641-.20174 10.41842-.0359-.12938-1.76888-10.7601-4.41436-31.36402-.12805-.99736-1.19473 8.36716-1.32482 7.34461-.14175-1.11409.21539-16.99251.0717-18.13388-.25051-1.98983.12138-.39406-.13304-2.45547-.14865-1.20447-1.62986 15.43344-1.77915 14.20843-.14351-1.1776.41991-23.84238.27628-25.03635-3.29437-27.38525-6.5602-58.73998-7.03915-78.643771-11.45002-8.911613-9.98389-21.592179 7.17375-26.429001 3.60873-.03083 6.22631 1.326695 8.1347 3.414 2.01315 2.603909 3.35571 5.704468 4.03826 8.411533z"/></svg>