<svg viewBox="0 0 560 1e3"><path id="path3725" d="m361.3 240.3c9.9 3.7 9.74165 11.18206 39.84165 25.68206 28.20186 16.59843 39.42329 23.06542 61.83652 29.41206 21.41162 8.84351 33.73778 1.29722 40.93778 11.59722 3.9 5.5 4.48405 6.60866 4.48405 6.60866 1.8 3.2 3.7 7.7 4.7 13.4.9 5.3.4 8.9 1.3 9.1 1.1.2 3.7-4.2 3.9-9.1.2-5.5-2.7-8.8-1.3-10.3 1.3-1.3 3.7 1 6.5.1 5.7-1.8 9.04118-14.01176 9.14118-15.51176C532.74118 296.58824 530 290.1 526.4 286.7c-4.4-4.1-10.6-1-20-.7-9.4.4-22.56378-7.71162-45.46378-17.91162-10.4-4.6-15.01269-4.87073-22.01269-8.97073C425.52353 251.31765 416.9 243.9 410.6 238c-26.2-19-35.6-24.7-38.3-25.4-.4-.1-3.1-.8-6.5-2.3-.9-.4-2-.9-3.2-1.6-11.7 3-19 6.2-23.5 9.2-3.9 2.7-6.8 5.7-6.5 8.7.5 5.6 11.9 7.3 28.7 13.7z" style="fill-opacity:1;fill:#1a1a1a"/><path id="path3727" d="m367.93309 244.87786c9.09918-2.20391 26.51803-8.19656 29.45921-16.43798-1.08467-.93806-2.6925-1.76495-3.06125-2.21734-2.59084 8.78096-25.5232 15.27936-27.7188 16.97226z" style="display:inline;fill-opacity:1;fill:#a80;stroke-dasharray:none;stroke-linecap:butt;stroke-linejoin:miter;stroke-miterlimit:4;stroke-opacity:1;stroke-width:0;stroke:#000"/><path id="path3729" d="m440.32481 259.77488c-7.53 5.03819-10.86783 10.53536-14.29852 20.30316.0565.43114.98088.66299 1.40219 1.13295 4.06782-16.79722 13.0984-19.04189 13.90368-20.80162z" style="display:inline;fill-opacity:1;fill:#a80;stroke-dasharray:none;stroke-linecap:butt;stroke-linejoin:miter;stroke-miterlimit:4;stroke-opacity:1;stroke-width:0;stroke:#000"/><path id="path3731" d="m502.77555 285.52988c-4.76818 7.15208-5.1169 10.47546-4.54965 16.67463.21541.23825.97703.73041 1.54138.92884-2.65319-10.34857 4.10984-16.24762 4.17912-17.39633z" style="display:inline;fill-opacity:1;fill:#a80;stroke-dasharray:none;stroke-linecap:butt;stroke-linejoin:miter;stroke-miterlimit:4;stroke-opacity:1;stroke-width:0;stroke:#000"/><path id="path3733" d="m531.67794 305.55556c-11.26246-8.58738-19.05857-10.89068-31.3378-14.17282-.57559.0453-.14085.89758-.82638 1.2761 21.41206 3.96847 29.36236 13.60121 31.54429 14.36378z" style="display:inline;fill-opacity:1;fill:#a80;stroke-dasharray:none;stroke-linecap:butt;stroke-linejoin:miter;stroke-miterlimit:4;stroke-opacity:1;stroke-width:0;stroke:#000"/><path id="path3735" d="m480.89155 300.07282c-4.79525-13.25264-23.22412-20.62486-50.2285-28.41718-1.52163-.0107-.92894.78179-.90397 1.56774 48.43196 12.43101 48.63596 25.86927 48.88819 26.65685z" style="display:inline;fill-opacity:1;fill:#a80;stroke-dasharray:none;stroke-linecap:butt;stroke-linejoin:miter;stroke-miterlimit:4;stroke-opacity:1;stroke-width:0;stroke:#000"/><path id="path3737" d="m433.85474 266.21701c-14.76586-11.97929-19.28825-15.26171-44.70725-32.07147-.81273.0648.45634.84961-.67821 1.56662 24.89293 15.84786 44.35351 31.06551 44.56397 31.89671z" style="display:inline;fill-opacity:1;fill:#a80;stroke-dasharray:none;stroke-linecap:butt;stroke-linejoin:miter;stroke-miterlimit:4;stroke-opacity:1;stroke-width:0;stroke:#000"/><path id="path3739" d="m517.12101 316.71186c-3.4715-2.82215-5.96294-3.6896-9.74785-4.76824-.17741.0149-.0375.64756.29772.72874 6.5386 1.58347 8.49812 4.16053 9.17067 4.41114z" style="display:inline;fill-opacity:1;fill:#a80;stroke-dasharray:none;stroke-linecap:butt;stroke-linejoin:miter;stroke-miterlimit:4;stroke-opacity:1;stroke-width:0;stroke:#000"/><path id="path3741" d="m518.28644 325.08832c-2.30491-.26436-3.37582.0641-5.2867 1.39824-.0698.11569-.0378.64743.10994.8397 3.15835-2.79457 4.81434-1.58384 5.17165-1.77305z" style="display:inline;fill-opacity:1;fill:#a80;stroke-dasharray:none;stroke-linecap:butt;stroke-linejoin:miter;stroke-miterlimit:4;stroke-opacity:1;stroke-width:0;stroke:#000"/><path id="path3743" d="m500.19275 291.37054c-21.92341-9.56291-28.63797-12.18322-66.3785-25.60224-1.20669.0517.67755.67823-1.00696 1.25061 36.95945 12.65115 65.85329 24.79919 66.16576 25.46273z" style="display:inline;fill-opacity:1;fill:#a80;stroke-dasharray:none;stroke-linecap:butt;stroke-linejoin:miter;stroke-miterlimit:4;stroke-opacity:1;stroke-width:0;stroke:#000"/></svg>