<svg viewBox="0 0 560 1e3"><path d="m280.21507 158.05707c6.25991-1.57826 10.97517 3.24388 13.24314 5.64768-.62988 1.73131 1.1191 11.87454-9.35182 12.21087-6.72091-1.67784-4.32841-10.80221-4.53363-11.02631-1.04388-2.61967-5.44275-8.33534.64231-6.83224z" id="path2558-9-2-4" class="lip"/><path id="path2548-7" d="m288.05804 164.78495c.0269.0416 1.37215-.24543 2.50366-.13598 1.12277.10861 2.03196.61364 2.03396.67905.0166.54459-.3653 2.88338-1.79549 3.69336-1.90715 1.08009-5.04603.58463-5.47896.53695-.0273-.0846-3.50937.25548-3.91542-1.55741 2.25062-3.99692 6.09786-3.1053 6.65225-3.21597z" style="display:inline;fill-opacity:1;fill-rule:nonzero;fill:#ff93b5;stroke-dasharray:none;stroke-linecap:butt;stroke-linejoin:miter;stroke-miterlimit:4;stroke-opacity:1;stroke-width:0;stroke:#000"/><path id="path2548-7-0" d="m287.72891 162.42255c-4.30333 1.8727-8.39012 1.37324-8.90862.2354-.003-.42168.0301-.53598 1.78861-.86827 2.15768-.40773 5.23464-.26623 7.12001.63287z" style="display:inline;fill-opacity:1;fill-rule:nonzero;fill:#fff;stroke-dasharray:none;stroke-linecap:butt;stroke-linejoin:miter;stroke-miterlimit:4;stroke-opacity:1;stroke-width:0;stroke:#000"/><path id="path2548-7-0-6" d="m290.9387 169.61142c-2.05333 2.59145-5.42137 2.31074-8.15862 2.1104-1.18134-.63229-2.80387-2.34308-2.85053-3.19189-.009-.16062-.0801-2.90293.14727-2.9521.12972-.0281 1.96735-.0217 1.95224.57911-.0109.43478-.96623 2.00215-.87827 1.99021.12841-.0174 1.14938 1.17609 1.31086 1.20999 2.51295.52746 6.04533.18877 8.47705.25428z" style="display:inline;fill-opacity:1;fill-rule:nonzero;fill:#fff;stroke-dasharray:none;stroke-linecap:butt;stroke-linejoin:miter;stroke-miterlimit:4;stroke-opacity:1;stroke-width:0;stroke:#000"/><path id="path2548-7-0-0" d="m292.48991 164.50868c-1.88125.81868-5.88389-.26368-7.95496.23099-1.07582.25696-1.65752 1.27631-2.50617 1.24354-1.47091-.0568-2.5734-1.68678-2.33657-2.25559-.003-.42168 2.74804-.0719 4.50655-.40423 1.26371-.2388 3.88531-.80682 5.6885-.46993.6407.1197 2.09168.37646 2.48648.71559.39122.33607-.27262.75422.11617.93963z" style="display:inline;fill-opacity:1;fill-rule:nonzero;fill:#a47683;stroke-dasharray:none;stroke-linecap:butt;stroke-linejoin:miter;stroke-miterlimit:4;stroke-opacity:1;stroke-width:0;stroke:#000"/><path style="fill:#000;stroke-width:.18461411" d="m283.06504 176.00966c-.39549-.15162-.8312-.36874-.96825-.48248-.13705-.11375-.40957-.16486-.60558-.11361-.25393.0663-.32739.0176-.25552-.1697.0555-.14459-.0201-.40518-.16797-.5791-.14788-.17391-.46184-.6485-.69769-1.05465l-.42883-.73846.81377.74478c1.36663 1.25079 1.52843 1.35274 2.58286 1.62738 1.59723.41603 3.78875.13239 5.41623-.70098.70272-.35985 1.30893-.62301 1.34712-.58482.15049.15049-1.86034 1.46662-2.76895 1.81234-1.27561.48536-3.32553.60031-4.26719.2393zm.47833-3.97218c-1.546-.35139-2.2314-.76206-3.2361-1.93897l-1.00998-1.18312.0904-1.71415c.0498-.94278.0955-1.9341.10164-2.20294.011-.48042-1.03492-2.70432-1.75034-3.7218-.40521-.57629-.29358-.88552.19238-.53298 1.35234.98106 2.81302 1.07671 5.09988.33399 1.09085-.35429 1.52502-.42324 1.70813-.27126.13504.11206.72301.30754 1.3066.43439.5836.12685 2.18262.57341 3.55338.99237 1.37075.41897 2.71057.76176 2.97738.76178.72809 3e-5.96159.40561.82276 1.42909-.48721 3.59162-1.68067 5.60838-4.00785 6.77263-.70151.35095-1.62714.68062-2.05695.73261-1.62914.19702-3.20333.24202-3.79141.10836zm4.67658-1.01279c.56037-.15851 1.14566-.49083 1.47692-.83857l.54871-.576-.73845.15386c-.40615.0846-1.85999.15216-3.23075.15008-2.16475-.003-2.64484-.0611-3.65307-.44048-.63843-.24019-1.24189-.58827-1.34103-.77351-.22969-.42919.0491-1.73133.47033-2.1968.29564-.32667.27363-.34945-.49104-.5083-1.20327-.24996-1.26207-.18631-1.26207 1.36594.0 1.32008.0289 1.41109.7536 2.37092.82415 1.09157 1.25248 1.30416 3.15526 1.56599 1.39245.19161 3.03692.0874 4.31159-.27313zm1.11109-1.77021c.60043-.111 1.3088-.31407 1.57413-.45128.50338-.26031 1.11631-1.55213 1.16636-2.45829.0149-.26872.0961-.59796.18054-.73164.17988-.28473.20755-.26086-.63499-.5478-1.45767-.49644-3.10664-.18526-4.28866.80935-.69338.58343-.93003.26844-.30118-.40093.464-.49389.46301-.49444-.81661-.45001-1.63137.0566-2.44909.42984-3.63837 1.66043-.60272.62365-1.09585 1.24038-1.09585 1.3705.0.39946.6653.86637 1.60078 1.12346 1.10264.30303 4.78417.3479 6.25385.0762zm-6.74694-3.7578c0-.1253.43615-.46948.96922-.76485l.96923-.53703h3.52544c2.58017.0 3.60127.0629 3.8082.23465.23575.19567.29821.17553.37579-.12113.11918-.45576-.61651-.84504-2.29662-1.21516-1.14377-.25198-1.33807-.24539-2.6769.0907-3.0049.75433-5.56779 1.0461-6.62494.75422-.38806-.10715-.72955-.17082-.75889-.1415-.0293.0293.043.30859.1608.62059.33345.8834 2.54867 1.82168 2.54867 1.0795zm2.30767-2.59626c1.11692-.14948 2.05153-.27246 2.07691-.2733.0254-76e-5.0461-.0809.0461-.17779.0-.0969-.31153-.22834-.6923-.29202-.38076-.0636-1.1356-.23799-1.6774-.38736-.92439-.25486-1.05951-.24682-2.19285.13031-.86133.28664-1.45539.37259-2.07112.29967-.47486-.0562-.9655-.0391-1.09031.038-.32581.20136-.0692.72151.40118.81324.8949.17453 3.28771.10516 5.19974-.15074zm-5.72304-4.64188c-.20306-.0429-.55615-.11796-.7846-.16671-.22847-.0487-.41539-.19544-.41539-.32596.0-.18083.59531-.24135 2.50131-.25429 1.80412-.0123 2.48206.042 2.43226.19468-.16156.49536-2.42173.82969-3.73358.55228z" id="path2705"/></svg>