<svg viewBox="0 0 560 1e3"><path id="path2288-2" d="m370.3969 269.0128c.40069 1.40387-1.11583 12.72289-8.30489 37.60241-5.42713 18.7819-12.19382 45.10812-12.7902 46.5662.0897 2.34411 6.53818 14.05382 8.99405 26.00841-36.77086 9.58655-110.59778 11.99867-129.46954-6.85783 2.433-12.49684 9.93148-36.52371 11.94649-51.5937-2.13048-7.70551-3.08737-14.72592-4.11084-28.13828.40962-35.13389 30.30326-40.0847 52.38713-59.43686.97617-2.02088 2.05999-19.89061-11.85024-27.17009-.63873-.33426 3.66191-3.80977 8.18644-6.21211 9.24713 11.38115 27.34766 3.74775 33.42729-1.52056 1.50252 1.12706 8.39482 5.20658 7.17933 6.00553-25.72677 16.91039-30.9022 28.84774-29.45936 29.06832 3.13994 1.52155 66.54554 33.43249 67.65165 34.25705z" style="display:inline;fill-opacity:1;fill-rule:evenodd;fill:#000;opacity:1;stroke-dasharray:none;stroke-linecap:butt;stroke-linejoin:miter;stroke-miterlimit:4;stroke-opacity:1;stroke-width:0;stroke:#000"/><path id="path2290-3" d="m360.51873 307.70681c-5.91469 18.86306-11.3485 40.65759-11.27871 44.67604.49582 5.07437 6.22897 14.87586 8.60406 26.14521-31.28229 8.06681-114.6775 12.03087-127.27987-7.27988 1.41111-4.24145 10.72754-45.56108 11.32053-50.51049-2.20191-8.47425-3.26007-13.82305-4.1491-26.36041-3.37265-53.10898 5.76723-81.27991 39.20048-88.39617.49229-.51848 3.97915-3.18477 8.45611-5.58711 9.14993 11.38115 27.08296 3.74775 33.09868-1.52056 1.48672 1.12706 17.52471 7.31482 18.05659 8.65718 2.58742.19199 9.57783.93138 12.62329 2.06534 33.53732 18.21703 23.79777 65.06109 11.34794 98.11085z" style="display:inline;fill-opacity:1;fill-rule:evenodd;fill:#c8c8c8;opacity:1;stroke-dasharray:none;stroke-linecap:butt;stroke-linejoin:miter;stroke-miterlimit:4;stroke-opacity:1;stroke-width:0;stroke:#000"/><path id="path2276-4-9-6" d="m219.45138 465.1272c1.78605-.18069-2.80643 5.58689-3.97335 9.7375-.13898.49434 11.30318-3.00043 23.34645-2.68738 15.39215.40011 32.76084 4.80119 36.36612 6.43486 27.3515-5.55275 87.9134-1.91457 95.21552 1.04811 2.65835-10.3326-5.45294-43.91959-8.30378-48.23452-2.68621-6.082.78006-16.22581.15119-18.19808-.0813-.25494-.70857-2.49571-.70857-2.49571-27.80965 7.38411-100.32485 14.13307-135.68559 1.44664-.0808-.0326-.32662 2.03076-4.70456 21.38233-2.03466 8.99372-2.66555 19.55629-1.70343 31.56625z" style="display:inline;fill-opacity:1;fill:#000;stroke-dasharray:none;stroke-linecap:butt;stroke-linejoin:miter;stroke-miterlimit:4;stroke-opacity:1;stroke-width:0;stroke:#000"/><path style="display:inline;fill-opacity:1;fill:#8aa7ff;stroke-dasharray:none;stroke-linecap:butt;stroke-linejoin:miter;stroke-miterlimit:4;stroke-opacity:1;stroke-width:0;stroke:#000" d="m215.45586 474.91455c20.47367-7.92632 54.41137-.23765 59.78866 3.8022.0798-4.49415 1.05695-10.70077 1.29388-11.83066-42.61622-7.91998-56.23048-3.96035-60.15052-2.37407-.0162.94868-.7698 5.74986-.93202 10.40253z" id="path2292-9"/><path style="display:inline;fill-opacity:1;fill:#8aa7ff;stroke-dasharray:none;stroke-linecap:butt;stroke-linejoin:miter;stroke-miterlimit:4;stroke-opacity:1;stroke-width:0;stroke:#000" d="m275.2174 478.60926c20.47367-7.92632 89.98768-2.93349 95.36497 1.10636 1.22885-4.40576 1.05695-7.69556 1.29388-8.82545-45.09109-9.06903-92.17692-4.20895-96.09696-2.62267-.0162.94868-.53225 5.73329-.56189 10.34176z" id="path2294-2"/><path style="display:inline;fill-opacity:1;fill:#517cd3;stroke-dasharray:none;stroke-linecap:butt;stroke-linejoin:miter;stroke-miterlimit:4;stroke-opacity:1;stroke-width:0;stroke:#000" d="m216.33481 465.20903c4.88391-4.22638 38.52677-4.01457 51.81541 1.63139 1.97544 1.15064 3.25554 2.1652 6.10367 1.40454 1.48394 1.11892 3.86559.35492 5.71098-.80814 69.74911-5.15378 91.25981 5.37844 91.80614 4.82354-1.53063-19.48654-2.48814-37.78714-9.15259-59.07416-.0813-.25494-1.22374-2.21355-1.22374-2.21355-45.10201 11.9464-108.9742 13.25229-135.44447 1.36991-.12493-.0561-8.19472 9.32902-9.6154 52.86647z" id="path2296-3"/><path style="display:inline;fill-opacity:1;fill:#8aa7ff;stroke-dasharray:none;stroke-linecap:butt;stroke-linejoin:miter;stroke-miterlimit:4;stroke-opacity:1;stroke-width:0;stroke:#000" d="m223.81214 415.89001c35.65478 14.81043 123.96568 6.3423 139.22314-1.98118-.98086-2.37283-.006-2.66371-.45689-3.5436-58.31295 15.78964-120.72084 9.71853-136.69104 1.87734-.32556.70561-.85233.93932-2.07521 3.64744z" id="path2298-9"/><path style="display:inline;fill-opacity:1;fill:#8aa7ff;stroke-dasharray:none;stroke-linecap:butt;stroke-linejoin:miter;stroke-miterlimit:4;stroke-opacity:1;stroke-width:0;stroke:#000" d="m275.25299 462.86252c-12.30071-3.84341-10.24242-38.06192-8.39422-42.36481.10337-.24065 6.70466-.007 6.80117-.0386-.14286-.008-.28501-.0153-.42641-.0219-4.0967-.18979-7.561.22503-9.12434-.44654-1.55247 9.38892-5.87824 43.63579 11.1438 42.87185z" id="path2300-0"/><path style="display:inline;fill-opacity:1;fill:#8aa7ff;stroke-dasharray:none;stroke-linecap:butt;stroke-linejoin:miter;stroke-miterlimit:4;stroke-opacity:1;stroke-width:0;stroke:#000" d="m356.28203 444.8129c-31.56327-6.76001-36.08141-20.9697-36.88946-25.86634-1.02422-.29348-2.03709.77235-2.39603.55362-.0837 1.32642 8.77861 23.21162 39.28549 25.31272z" id="path2302-4"/><path style="display:inline;fill-opacity:1;fill:#8aa7ff;stroke-dasharray:none;stroke-linecap:butt;stroke-linejoin:miter;stroke-miterlimit:4;stroke-opacity:1;stroke-width:0;stroke:#000" d="m222.23265 435.35375c9.31024-1.01499 16.40296-13.94481 15.59491-18.84145-1.02422-.29348-.41393-.14186-.77287-.36059-.0837 1.32642-1.64142 12.72594-14.82204 19.20204z" id="path2304-4"/><path id="path3280-7-2-6-6-0-7" class="shadow" d="m329.89265 425.68684c-15.4791 1.19068-42.03653 26.26041-44.60913 30.99635 10.29989-9.14088 29.75951-26.28541 44.60913-30.99635z"/><path id="path3282-5-4-0-8-3-8" class="shadow" d="m262.15056 457.53513c-6.81704-9.41592-28.83006-31.99347-34.93819-34.15183 5.05404 5.44075 26.5203 25.35081 34.93819 34.15183z"/><path d="m262.98857 459.03749c4.57815 9.39542 7.95428 8.94718 11.45233 8.01034.29456-.0789 5.02218 4.77996 9.26343-8.71666-1.38475 8.70911-4.94655 11.61521-9.3291 9.47151-.0226-.0111-2.82256 1.04466-4.71233.003-2.95847-1.63089-6.486-5.556-6.67433-8.7681z" class="shadow" id="path4347-6-2-8"/><path d="m274.84429 467.66511c-.33521 1.70859.19151 9.15085.3994 10.94825-1.47124-.0994-1.90021-9.61487-.3994-10.94825z" class="shadow" id="path4347-6-8-2-3-0-7"/></svg>