<svg viewBox="0 0 560 1e3"><g data-transform="boob" transform="matrix(1.1247504,0,0,1.1247504,-26.347241,-34.609528)" id="g4957" class="scaler_"><path d="m226.54656 253.75066c-3.36507 1.67191-6.28302 3.1917-8.33221 4.68937-.54445.39791-.66828 2.70307-.76291 3.35152-.65836 4.51134-1.66809 9.99655-.19947 14.9545.5788 2.79959 1.92116 5.11459 3.04085 7.21138 2.65234 4.96693 6.04765 7.87695 10.86115 8.57219 21.5829 3.2487 35.13223-12.1343 39.18878-20.05393 1.83647 8.16488 6.94853 14.47073 13.3338 17.64542 10.04423 4.99389 23.27331 3.62273 32.00152-1.35019 10.55597-6.27698 15.90576-19.45293 10.27729-32.96347-.10014-.24038-1.10748-2.3276-1.21461-2.56815-44.60848 9.13357-64.17272 11.64213-98.19419.51136z" id="path4931" style="fill-opacity:1;fill:#010101"/><path d="m226.61703 254.26275c-3.24805 1.56057-6.03443 2.9182-7.55098 3.88901-.39536.25309-.72231 2.6909-.84921 3.07294-.70752 5.13443-.92153 9.56442-.30576 13.2861 1.01337 6.12496 3.33372 10.46932 6.44535 13.29915 2.48992 2.26451 5.53985 3.63861 8.78962 4.08772 10.49581 1.51314 19.86794-2.43574 27.29744-8.48888 4.20537-3.4345 7.18267-7.02269 9.92412-11.02226.12718.41876 1.87124 5.64497 5.46994 10.30596 2.123 2.74967 5.09638 5.02083 8.21123 6.75234.11303.0438.22591.0871.33871.12991 28.39866 10.77366 48.95726-11.31838 40.76152-33.40986-.046-.12396-.89862-2.10945-.94642-2.23341-38.7538 7.91357-61.21049 12.91457-97.58556.33128z" id="path4943" style="fill-opacity:1;fill:#fff"/><path id="path4955" class="shadow" d="m270.33492 269.98618c-.16754 2.01348.47911 3.25262.89408 5.36257-.66799-1.59942-1.31544-3.72955-.89408-5.36257z"/><path id="path4602-5" d="m269.88606 273.28608c-1.01314-1.90025-1.53853-6.33735-.79385-12.06375l.0101-.0778c.0374-.002.39657-.0248 1.46611-.0278-.002.0187-.006.048-.008.0665-.74953 5.50029-.48314 9.72594-.0498 11.52626z" style="display:inline;fill-opacity:1;fill:maroon;opacity:1;stroke-dasharray:none;stroke-linecap:butt;stroke-linejoin:miter;stroke-miterlimit:4;stroke-opacity:1;stroke-width:0;stroke:#000"/><path id="path4602" d="m270.27031 272.80358c-.57306-2.00523-.87678-6.21835-.16211-11.6265.003-.0264.007-.0317.0101-.0582.033.006 1.01226-.007 1.06883-.0121-.003.0239-.007.0477-.0112.0715-.95066 6.32286-.66219 11.22903-.19177 13.14935z" style="display:inline;fill-opacity:1;fill:#000;opacity:1;stroke-dasharray:none;stroke-linecap:butt;stroke-linejoin:miter;stroke-miterlimit:4;stroke-opacity:1;stroke-width:0;stroke:#000"/><path style="display:inline;fill-opacity:1;fill:maroon;opacity:1;stroke-dasharray:none;stroke-linecap:butt;stroke-linejoin:miter;stroke-miterlimit:4;stroke-opacity:1;stroke-width:0;stroke:#000" d="m219.01948 258.62763c3.04345-1.93631 8.24319-4.493 8.79918-4.52274 4.92196 4.22613 2.96718 18.44314-10.58432 18.92597-.14602-2.41862.86484-12.24403 1.78514-14.40323z" id="path4602-5-8"/><path style="display:inline;fill-opacity:1;fill:#fff;opacity:1;stroke-dasharray:none;stroke-linecap:butt;stroke-linejoin:miter;stroke-miterlimit:4;stroke-opacity:1;stroke-width:0;stroke:#000" d="m226.57686 254.4835c-1.03184 1.46799-3.0563 4.95374-3.41863 5.55115.26886.25103 4.6302 3.94802 5.56369 4.70236-.45409.75494-1.5065 2.44205-1.94805 3.09794-.44242-.31138-5.58713-3.31264-5.80766-3.56269-.36485.24396-3.2493 5.21579-3.80884 5.71846.28145-5.03107 1.02199-8.93742 1.74954-11.33595 2.41653-1.52618 4.6189-2.60335 7.66995-4.17127z" id="path4602-5-8-8-1-8"/><path style="display:inline;fill-opacity:1;fill:maroon;opacity:1;stroke-dasharray:none;stroke-linecap:butt;stroke-linejoin:miter;stroke-miterlimit:4;stroke-opacity:1;stroke-width:0;stroke:#000" d="m292.09566 267.91426c-1.95655-11.43631 18.05569-14.0555 21.04918-2.58524 2.93064 13.24459-18.23761 17.25744-21.04918 2.58524z" id="path4602-5-8-8"/><path style="display:inline;fill-opacity:1;fill:#fff;opacity:1;stroke-dasharray:none;stroke-linecap:butt;stroke-linejoin:miter;stroke-miterlimit:4;stroke-opacity:1;stroke-width:0;stroke:#000" d="m293.73124 269.77548c-.13571-.79323-.62977-2.78148-.5671-3.48811 1.62186-.17279 6.49227-.87921 6.79359-1.0236.12164-.32258-1.06457-6.00629-.90824-6.47213.81527-.15019 2.59735-.42216 3.50351-.58119.26213 1.7751 1.80115 5.73316 1.94959 6.41591.36782-.003 6.07625-.32378 7.27263-.41924.19033.86018.58838 2.80837.71962 3.58808-.53525.0787-6.33295 1.44338-6.66504 1.41383-.0967.42811.99032 5.76355.9305 6.51334-.73094.11548-3.11097.67224-3.85561.65064-.24852-1.3261-1.93195-6.42164-1.93288-6.78197-.25386-.21791-5.55783.27569-7.24057.18443z" id="path4602-5-8-8-1"/></g></svg>