<svg viewBox="0 0 560 1e3"><path id="path4223" d="m268.6 863.6c.7 1.8 1.5 1.7 2.9 4.2.0.0 2 3.6 2.2 8.1.2 5.3-3.9 7.6-9.2 15.1-8.1 11.6-6.2 17.3-12.7 20.7-2.1 1.2-5 1.6-10.8 2.7-.5.1-3.3.3-9 .6-2.4.2-4.6.3-6.3-1.3-.4-.4-1.3-1.2-1.2-2.2.2-1.6 3.1-1.9 5.7-3.1 3.6-1.8 5.5-4.9 7.3-7.6 2.8-4.4 1.8-6 5.5-16.4 1.7-4.6 1.9-4.4 3-8.1 1.6-5 1.6-6.8 3.1-12.3 1.9-7 3.6-12.8 5.2-14.4 4.8-4.9 10.8-2.8 12.4 1.2 1.5 2.9.1 8.2 1.9 12.8z" style="fill-opacity:1;fill:#1a1a1a"/><path id="path4225" d="m311.5 880.7c.4-6.6 5.7-12.8 8.5-30.2.6-4.1 2.8-4.8 5.2-6 3.7-1.7 10.6-2.7 11 6 .4 6.1-.6 16.4.0 27.2.4 6.5.2 11.4 2 21.2 1.9 10 2.8 15.1 6 20.7 3.9 6.9 8.1 9.2 7.3 12.1-.6 2.4-4.1 2.9-9.2 3.7-4.8.7-9.6 1.4-15.1-1.3-1.4-.7-4-2-6.2-4.7-5.2-6.1-2.2-13.2-4.7-24.4-3.5-15.8-5.4-14.9-4.8-24.3z" style="fill-opacity:1;fill:#1a1a1a"/><path d="m320.25028 831.15675c3.14494 57.36131 10.02439 71.95092 18.28183 104.71428.34146.0324 1.9408-.1194 1.9408-.1194-5.51951-22.36622-14.75974-36.73919-18.53273-104.67079-.73398-.0289-1.47481.0353-1.6899.0759z" id="path4227" style="display:inline;fill-opacity:1;fill:#a80;stroke-width:.61916631"/><path d="m264.11133 830.89865c-3.80588 34.23659-13.6374 48.81661-24.24895 63.68712-.41322.0193 1.02632-4.1338 1.02632-4.1338 8.18209-13.26107 16.61166-19.0531 21.17758-59.59866.88823-.0172 1.78476.0211 2.04505.0453z" id="path4229" style="display:inline;fill-opacity:1;fill:#a80;stroke-width:.52621663"/></svg>