<svg viewBox="0 0 560 1e3"><path style="display:inline;fill-opacity:1;fill-rule:evenodd;fill:#000;stroke-dasharray:none;stroke-linecap:butt;stroke-linejoin:miter;stroke-miterlimit:4;stroke-opacity:0;stroke-width:3.02935934;stroke:#000" d="m300.39583 218.87955c2.88085-3.50481 6.15719-4.57678 3.22635-5.38665-7.83122-2.16398-6.65602-5.15553-29.53589-8.46494.072.004-5.49099-.47931-14.42275-6.81166-13.22617-9.37695-31.23017-25.37688-42.44015-34.0954-5.02375-3.90721-9.54618-5.64474-10.17113-5.89051 38.0651-23.05328 67.84575-43.87865 76.30205-53.65993-2.329-15.130805 6.70627-22.115832-3.63419-18.629196-76.37618 25.752816-112.01244 64.194326-112.1449 68.882506-2.74126 6.32503 70.4485 76.97045 113.00103 105.12602 9.89979-18.57727 19.44175-40.69055 19.81958-41.07024z" id="path6471"/><path style="display:inline;fill-opacity:1;fill-rule:evenodd;fill:maroon;stroke-dasharray:none;stroke-linecap:butt;stroke-linejoin:miter;stroke-miterlimit:4;stroke-opacity:0;stroke-width:3;stroke:#000" d="m300.48784 216.69956c2.82896-3.50026 6.04627-4.57084 3.16823-5.37966-7.69014-2.16117-6.53612-5.14882-29.00381-8.45395.0707.004-5.39207-.47868-14.16293-6.80281-12.98791-9.36478-30.66758-25.34394-41.67562-34.05114-4.93325-3.90214-9.37422-5.63742-9.9879-5.88287 31.2958-21.07857 67.23511-43.16426 75.53908-52.93284-2.28703-15.111165 6.82274-19.394742-3.33144-15.912633C206.03315 113.00305 170.19 148.04485 170.05991 152.72693c-2.69187 6.31682 69.17942 76.87054 110.96539 104.98956 9.72145-18.55316 19.09151-40.63773 19.46254-41.01693z" id="path6473"/><path style="display:inline;fill-opacity:1;fill-rule:evenodd;fill:#ff0;stroke-dasharray:none;stroke-linecap:butt;stroke-linejoin:miter;stroke-miterlimit:4;stroke-opacity:0;stroke-width:4.80764103;stroke:#000" d="m260.9889 102.31482c-3.55117-.59321-1.38115-4.744343.71125-4.644693 3.72813.0233 2.37707 4.787153-.71125 4.644693z" id="path6475"/><path style="display:inline;fill-opacity:1;fill-rule:evenodd;fill:#ff0;stroke-dasharray:none;stroke-linecap:butt;stroke-linejoin:miter;stroke-miterlimit:4;stroke-opacity:0;stroke-width:4.80764103;stroke:#000" d="m250.51091 104.54196c-3.55116-.59322-1.38113-4.744327.71125-4.644717 3.72815.0233 2.37708 4.787157-.71125 4.644717z" id="path6477"/></svg>