<svg viewBox="0 0 560 1e3"><path id="path4335" d="m300.39583 218.87955c2.88085-3.50481 6.15719-4.57678 3.22635-5.38665-7.83122-2.16398-6.65602-5.15553-29.53589-8.46494.072.004-39.11599-30.35431-48.04775-36.68666-2.16372.95706-7.77886 12.55489-15.12661 28.73937 12.73182 10.61386 59.08282 55.8677 69.66432 62.86912 9.89979-18.57727 19.44175-40.69055 19.81958-41.07024z" style="display:inline;fill-opacity:1;fill-rule:evenodd;fill:#000;stroke-dasharray:none;stroke-linecap:butt;stroke-linejoin:miter;stroke-miterlimit:4;stroke-opacity:0;stroke-width:3.02935934;stroke:#000"/><path id="path4337" d="m300.48784 216.69956c2.82896-3.50026 6.04627-4.57084 3.16823-5.37966-7.69014-2.16117-6.53612-5.14882-29.00381-8.45395.0707.004-39.76707-26.35368-48.53793-32.67781-4.35837 6.81101-8.95029 18.29678-13.3785 26.72628 12.33577 10.43922 57.41291 55.57865 67.67075 62.48145 9.72145-18.55316 19.71023-42.31711 20.08126-42.69631z" style="display:inline;fill-opacity:1;fill-rule:evenodd;fill:#ececec;stroke-dasharray:none;stroke-linecap:butt;stroke-linejoin:miter;stroke-miterlimit:4;stroke-opacity:0;stroke-width:3;stroke:#000"/><path id="path4339" d="m241.52808 175.74925c-5.27698-3.95145-15.41979-10.76363-21.20382-14.46639-7.19618 7.17035-15.34873 19.71742-22.86011 28.75112 8.48975 6.68665 16.9916 13.58983 20.6501 16.71502 16.49636-19.8871 22.82778-30.62174 23.41383-30.99975z" style="display:inline;fill-opacity:1;fill-rule:evenodd;fill:#000;stroke-dasharray:none;stroke-linecap:butt;stroke-linejoin:miter;stroke-miterlimit:4;stroke-opacity:0;stroke-width:3.90551949;stroke:#000"/><path id="path4341" d="m239.92813 176.11686c-4.86025-3.616-14.20146-9.85067-19.52824-13.2397-6.61865 6.54931-14.11367 18.01293-21.02108 26.26535 7.81954 6.11869 15.65038 12.43534 19.02024 15.29484 15.16988-18.16722 20.98991-27.97538 21.52908-28.32049z" style="display:inline;fill-opacity:1;fill-rule:evenodd;fill:#ececec;stroke-dasharray:none;stroke-linecap:butt;stroke-linejoin:miter;stroke-miterlimit:4;stroke-opacity:0;stroke-width:3.58251691;stroke:#000"/></svg>