<svg viewBox="0 0 560 1e3"><path id="path4735" d="m314.59488 194.60935c.10365.27547 2.8391 8.07872 14.85382 11.32872 11.11065 51.50954 42.0392 67.38619 36.30803 68.96166-27.11064 7.4526-128.29392 5.82387-126.5776-1.02496 12.0188-47.95979 38.60191-67.64747 40.99515-69.07675 4.6613-2.7838 9.94584-5.75986 11.41138-10.18694 1.93425-4.79997 1.91305-12.71071 2.38147-12.5947 3.29208.8153 11.43201-8.17991 17.75619-7.23666.47597.071-1.0993 9.27651 2.87156 19.82963z" style="display:inline;fill-opacity:1;fill:#725d49"/><path id="path4737" d="m367.50346 273.82127s-.61394 3.30034-.90704 3.52426c-79.7119 13.05338-127.97843.87027-127.84445-1.38257l.22027-3.70397c1.42462 1.3586 40.95368 13.85221 128.53118 1.56228z" style="display:inline;fill-opacity:1;fill:#000;stroke-width:1.02959216"/><path id="path4739" d="m367.50346 273.48276s-.61394 3.11335-.90704 3.32459c-79.7119 12.3138-127.97843.82096-127.84445-1.30425l.22027-3.49411c1.42462 1.28163 40.95368 13.06738 128.53118 1.47377z" style="display:inline;fill-opacity:1;fill:#725d49"/><path id="path4741" d="m348.92635 406.46857c.17594.29463.23456.36287.14343.43358-7.58199 5.88234-28.75619 14.08712-52.70049 35.19948-6.87798 6.06451-12.7957 15.81041-13.00807 16.4538-1.04023 1.75909-1.92047 7.35117-4.50173 9.70959-.97785.89343-3.70051-.0277-4.03805.0431-.91345.19159-2.09488.29968-2.84109.24274-2.38396-.1819-5.58237-2.71336-7.06862-7.83608-2.94705-2.80283-25.83037-38.42104-39.0602-46.51727.11113-.0316.41697-.90137.51991-1.06255.0911-.14259.28025.0854.40697.19488 43.76307 37.81395 58.39812 21.03748 122.03856-6.98626z" style="display:inline;fill-opacity:1;fill-rule:evenodd;fill:#725d49;opacity:1;stroke-dasharray:none;stroke-linecap:butt;stroke-linejoin:miter;stroke-miterlimit:4;stroke-opacity:1;stroke-width:0;stroke:#000"/><path id="path4743" d="m298.1246 506.03918c-16.60261 4.7124-46.21082 1.30232-46.62477-.78649-.82681-4.17215.2545-181.9894 9.03981-227.63981 17.31931-3.59867 36.1285-1.20454 49.85808 2.54071-2.57598 4.26374-2.45636 9.33654-4.29289 15.79603-15.70598 55.24147-7.52872 208.20365-7.98023 210.08956z" style="display:inline;fill-opacity:1;fill:#000"/><path id="path4745" d="m297.05464 504.47314c-16.60261 4.7124-46.21082 1.30232-46.62477-.78649-.82681-4.17215.2545-181.98941 9.03981-227.63982 17.31931-3.59867 38.4266-1.64648 52.15618 2.09877-24.6058 40.7272-14.06691 224.22111-14.57122 226.32754z" style="display:inline;fill-opacity:1;fill:#725d49"/></svg>