<svg viewBox="0 0 560 1e3"><path id="path3935" d="m271.54026 376.44844c.0782 1.21363-.39233 3.20481-1.35826 3.28497-.96592.0802-1.48021-1.74966-1.55841-2.96328-.0782-1.21363.42001-3.09486 1.38594-3.17502.96593-.0802 1.45253 1.6397 1.53073 2.85333z" class="areola"/><path style="display:inline;fill-opacity:1;fill-rule:evenodd;fill:#fff;opacity:1;stroke-dasharray:none;stroke-linecap:butt;stroke-linejoin:miter;stroke-miterlimit:4;stroke-opacity:1;stroke-width:0;stroke:#000" d="m362.3043 413.36134c-51.41983 14.7906-68.20816 27.42745-79.17838 44.98517-1.04023 1.75909-1.92047 7.35117-4.50173 9.70959-.97785.89343-3.70051-.0277-4.03805.0431-.91345.19159-2.09488.29968-2.84109.24274-1.3589-.10369-3.10427-.97079-4.62926-2.64607-1.15035-1.26373-2.1753-2.98733-2.81436-5.19001-7.02893-7.18923-29.10352-25.91869-38.34145-47.86102.0176-.005-.05-.20603.59439-1.93851 29.91996 7.91079 50.09635 9.90066 135.84413-2.71761.0.0-.0757 5.36388-.0942 5.37262z" id="path2360-8-9-4-5-8"/><path style="display:inline;fill-opacity:1;fill:gray;stroke-dasharray:none;stroke-linecap:butt;stroke-linejoin:miter;stroke-miterlimit:4;stroke-opacity:1;stroke-width:0;stroke:#83afc8" d="m225.9378 412.66104c.12717-.79329.24724-.90642.25482-.95601 23.02972 9.12926 67.15581 11.20593 136.30217-3.19252.0291.083-.0614 2.65341-.12368 3.64552-25.76312 6.9173-52.8305 12.31041-79.13649 13.45614-16.60478-.20862-38.99345-1.46893-53.91616-6.38286-.19646-.18478-3.24559-6.42279-3.38066-6.57027z" id="path1180-5-1-9-6-3-3-8"/><path style="display:inline;fill-opacity:1;fill-rule:evenodd;fill:#000;opacity:1;stroke-dasharray:none;stroke-linecap:butt;stroke-linejoin:miter;stroke-miterlimit:4;stroke-opacity:1;stroke-width:0;stroke:#000" d="m370.45236 272.58602c-3.06155 32.80241-11.78076 43.11756-19.90025 81.23161 1.95915 5.74033 18.81048 39.25953 11.68125 62.37219-15.14035 7.95659-52.27923 14.26912-84.69357 14.01279-.76901-.006-1.9773-10.09213-2.74063-10.10567-.73991-.0131-1.03504 10.04648-1.76896 10.02623-23.15669-.63916-43.16874-4.85777-49.82793-14.53711-3.61419-35.95451 12.56673-65.57166 17.22644-94.59589-1.87782-10.29261-3.19035-20.34715-3.76674-28.39016-5.66195-68.91381 25.43595-80.91093 50.18174-91.89098 9.24713 11.38115 25.18214 3.12903 31.26177-2.13928.12489 7.20108 47.20462 34.9752 52.34688 74.01627z" id="path3937"/><path style="display:inline;fill-opacity:1;fill-rule:evenodd;fill:#ececec;opacity:1;stroke-dasharray:none;stroke-linecap:butt;stroke-linejoin:miter;stroke-miterlimit:4;stroke-opacity:1;stroke-width:0;stroke:#000" d="m363.85542 299.71521c-4.48796 17.83618-10.83213 36.66476-15.04845 53.39954 1.16011 4.13774 12.63927 29.2119 13.22207 46.87602.0386 1.17101.40438 10.80946-1.15894 15.65709-20.73211 7.97985-51.43176 12.84571-81.29471 13.2629-1.47045.0585-3.74023-10.41749-5.21753-10.39267-1.43876.0242-2.0876 10.53923-3.53629 10.50954-15.12502-.30991-40.27097-4.48351-46.65732-13.63943-.504-2.33471-.32379-10.41588-.38367-13.0718-.54039-23.96557 15.35391-59.59291 17.98521-81.34009-5.96785-40.25491-15.76886-106.49187 40.33974-118.55701 3.12384-2.05334 5.3098-5.95602 6.93885-10.38042 1.65753 5.04021 26.21695.68309 26.60293.54975 2.99455 5.49381 1.12395 6.57536 6.71301 7.72308 69.725 14.36119 51.09071 59.5419 41.4951 99.4035z" id="path3939"/><path id="path3941" d="m288.65067 205.94096c-.008-.17 5.77348-12.05234 5.84504-12.26958.0.0-5.0441-2.25985-5.19628-2.04286-.92463 1.3184-2.65827 4.70639-4.15936 6.60625.1059.25324 3.5106 7.70619 3.5106 7.70619z" style="display:inline;fill-opacity:1;fill:#000;opacity:1;stroke-dasharray:none;stroke-linecap:butt;stroke-linejoin:miter;stroke-miterlimit:4;stroke-opacity:1;stroke-width:0;stroke:#000"/><path id="path3943" d="m288.66108 203.74098c-.008-.16669 5.35844-10.06772 5.42795-10.28074.0.0-4.89991-2.21585-5.04775-2.00309-.8982 1.29274-2.58228 4.61477-4.04047 6.47765.10291.24831 3.66027 5.80618 3.66027 5.80618z" style="display:inline;fill-opacity:1;fill:#ececec;opacity:1;stroke-dasharray:none;stroke-linecap:butt;stroke-linejoin:miter;stroke-miterlimit:4;stroke-opacity:1;stroke-width:0;stroke:#000"/><path id="path3945" d="m303.24206 205.47603c.007-.15238-3.99545-11.03492-4.06234-11.22965.0.0 16.62296-2.66894 16.76522-2.47444.86438 1.18176 2.6413 5.37486 3.07583 6.04657-.099.227-15.77871 7.65752-15.77871 7.65752z" style="display:inline;fill-opacity:1;fill:#000;opacity:1;stroke-dasharray:none;stroke-linecap:butt;stroke-linejoin:miter;stroke-miterlimit:4;stroke-opacity:1;stroke-width:0;stroke:#000"/><path id="path3947" d="m303.64915 204.60393c.007-.14856-3.93866-10.27774-4.00456-10.46759.0.0 15.63782-2.64512 15.77799-2.4555.85164 1.15214 2.60238 5.24014 3.03051 5.89501-.0975.22131-14.80394 7.02808-14.80394 7.02808z" style="display:inline;fill-opacity:1;fill:#ececec;opacity:1;stroke-dasharray:none;stroke-linecap:butt;stroke-linejoin:miter;stroke-miterlimit:4;stroke-opacity:1;stroke-width:0;stroke:#000"/><path id="path3949" d="m273.76587 419.87564c-3.37067-27.44695 2.70899-95.34442 23.25259-225.55289l.80611.10099c.44243 13.37084-30.13893 182.40374-21.77891 225.43423.0.0 3.2884 9.0256 2.9539 9.11551-.27058.0727-1.36242-1.78943-2.48055-3.84918-.5346-.98482-.85425-3.87098-1.31398-4.75626-.64705-1.24599-1.35484-.34915-1.43916-.49237z" style="display:inline;fill-opacity:1;fill:#000;opacity:1;stroke-dasharray:none;stroke-linecap:butt;stroke-linejoin:miter;stroke-miterlimit:4;stroke-opacity:1;stroke-width:0;stroke:#000"/><path id="path3951" d="m300.87394 220.43307a2.7544847 2.8454499.0 01-2.75448 2.84545 2.7544847 2.8454499.0 01-2.75449-2.84545 2.7544847 2.8454499.0 012.75449-2.84546 2.7544847 2.8454499.0 012.75448 2.84546z" style="display:inline;fill-opacity:1;fill-rule:nonzero;fill:gray;opacity:1;stroke-dasharray:none;stroke-linecap:butt;stroke-linejoin:round;stroke-miterlimit:4;stroke-opacity:1;stroke-width:0;stroke:#000"/><path id="path3953" d="m297.69369 242.50598a2.7544847 2.8454499.0 01-2.75448 2.84545 2.7544847 2.8454499.0 01-2.75449-2.84545 2.7544847 2.8454499.0 012.75449-2.84546 2.7544847 2.8454499.0 012.75448 2.84546z" style="display:inline;fill-opacity:1;fill-rule:nonzero;fill:gray;opacity:1;stroke-dasharray:none;stroke-linecap:butt;stroke-linejoin:round;stroke-miterlimit:4;stroke-opacity:1;stroke-width:0;stroke:#000"/><path id="path3955" d="m294.36894 266.99921a2.7544847 2.8454499.0 01-2.75448 2.84545 2.7544847 2.8454499.0 01-2.75449-2.84545 2.7544847 2.8454499.0 012.75449-2.84546 2.7544847 2.8454499.0 012.75448 2.84546z" style="display:inline;fill-opacity:1;fill-rule:nonzero;fill:gray;opacity:1;stroke-dasharray:none;stroke-linecap:butt;stroke-linejoin:round;stroke-miterlimit:4;stroke-opacity:1;stroke-width:0;stroke:#000"/><path id="path3957" d="m291.12262 291.4949a2.7544847 2.8454499.0 01-2.75448 2.84545 2.7544847 2.8454499.0 01-2.75449-2.84545 2.7544847 2.8454499.0 012.75449-2.84546 2.7544847 2.8454499.0 012.75448 2.84546z" style="display:inline;fill-opacity:1;fill-rule:nonzero;fill:gray;opacity:1;stroke-dasharray:none;stroke-linecap:butt;stroke-linejoin:round;stroke-miterlimit:4;stroke-opacity:1;stroke-width:0;stroke:#000"/><path id="path3959" d="m288.19248 313.4826a2.7544847 2.8454499.0 01-2.75448 2.84545 2.7544847 2.8454499.0 01-2.75449-2.84545 2.7544847 2.8454499.0 012.75449-2.84546 2.7544847 2.8454499.0 012.75448 2.84546z" style="display:inline;fill-opacity:1;fill-rule:nonzero;fill:gray;opacity:1;stroke-dasharray:none;stroke-linecap:butt;stroke-linejoin:round;stroke-miterlimit:4;stroke-opacity:1;stroke-width:0;stroke:#000"/><path id="path3961" d="m285.69616 337.78711a2.7544847 2.8454499.0 01-2.75448 2.84545 2.7544847 2.8454499.0 01-2.75449-2.84545 2.7544847 2.8454499.0 012.75449-2.84546 2.7544847 2.8454499.0 012.75448 2.84546z" style="display:inline;fill-opacity:1;fill-rule:nonzero;fill:gray;opacity:1;stroke-dasharray:none;stroke-linecap:butt;stroke-linejoin:round;stroke-miterlimit:4;stroke-opacity:1;stroke-width:0;stroke:#000"/><path id="path3963" d="m283.59261 360.44517a2.7544847 2.8454499.0 01-2.75448 2.84545 2.7544847 2.8454499.0 01-2.75449-2.84545 2.7544847 2.8454499.0 012.75449-2.84546 2.7544847 2.8454499.0 012.75448 2.84546z" style="display:inline;fill-opacity:1;fill-rule:nonzero;fill:gray;opacity:1;stroke-dasharray:none;stroke-linecap:butt;stroke-linejoin:round;stroke-miterlimit:4;stroke-opacity:1;stroke-width:0;stroke:#000"/><path id="path3965" d="m282.01878 380.39507a2.7544847 2.8454499.0 01-2.75448 2.84545 2.7544847 2.8454499.0 01-2.75449-2.84545 2.7544847 2.8454499.0 012.75449-2.84546 2.7544847 2.8454499.0 012.75448 2.84546z" style="display:inline;fill-opacity:1;fill-rule:nonzero;fill:gray;opacity:1;stroke-dasharray:none;stroke-linecap:butt;stroke-linejoin:round;stroke-miterlimit:4;stroke-opacity:1;stroke-width:0;stroke:#000"/><path id="path3967" d="m281.0045 400.49998a2.7544847 2.8454499.0 01-2.75448 2.84545 2.7544847 2.8454499.0 01-2.75449-2.84545 2.7544847 2.8454499.0 012.75449-2.84546 2.7544847 2.8454499.0 012.75448 2.84546z" style="display:inline;fill-opacity:1;fill-rule:nonzero;fill:gray;opacity:1;stroke-dasharray:none;stroke-linecap:butt;stroke-linejoin:round;stroke-miterlimit:4;stroke-opacity:1;stroke-width:0;stroke:#000"/><path style="display:inline;fill-opacity:1;fill:gray;stroke-dasharray:none;stroke-linecap:butt;stroke-linejoin:miter;stroke-miterlimit:4;stroke-opacity:1;stroke-width:0;stroke:#83afc8" d="m234.60256 427.93872c16.19921 3.4137 52.20455 5.49343 83.62918 1.15618-1.10723.72649-7.93695 3.83634-12.55858 6.92817-26.13262 3.68145-53.86584 2.2702-65.20689-.14293-1.89388-2.48871-3.84503-4.66458-5.86371-7.94142z" id="path1180-5-1-9-1-3-2-0-89"/><path style="display:inline;fill-opacity:1;fill:gray;stroke-dasharray:none;stroke-linecap:butt;stroke-linejoin:miter;stroke-miterlimit:4;stroke-opacity:1;stroke-width:0;stroke:#83afc8" d="m247.95327 444.36444c10.94342 1.31488 29.77745 1.94201 46.09521.52033-1.56759 2.01272-4.3557 4.42382-6.01534 6.52233-12.30604 1.16431-24.74234 1.19698-32.55913.50178-2.13773-1.85907-5.40225-4.9733-7.52074-7.54493z" id="path1180-5-1-9-7-9-5-2-5"/><path style="display:inline;fill-opacity:1;fill:gray;stroke-dasharray:none;stroke-linecap:butt;stroke-linejoin:miter;stroke-miterlimit:4;stroke-opacity:1;stroke-width:0;stroke:#83afc8" d="m262.53421 458.18295c6.22871.31514 13.08896.30377 20.72809-.0971-.87505 2.4389-1.64015 4.66739-2.42955 6.53665-5.25319.34928-9.97649.47387-14.24234.41152-1.68576-1.69159-2.0194-4.59693-4.0562-6.85107z" id="path1180-5-1-9-3-1-8-4-22"/><path style="display:inline;fill-opacity:1;fill-rule:evenodd;fill:#000;opacity:1;stroke-dasharray:none;stroke-linecap:butt;stroke-linejoin:miter;stroke-miterlimit:4;stroke-opacity:1;stroke-width:0;stroke:#000" d="m282.94456 458.76549c-.0483.15247-.11284.47208-.19954.90622-.41277 2.06685-1.81439 6.53069-3.87757 8.11265-.26921.20642-1.13559 1.14752-4.57861.28177-.17398-.0437-2.18026 1.1699-4.2783.12449-4.65827-2.32112-6.22252-8.10904-6.31915-8.53686 3.82592 9.08132 8.89939 9.3147 10.40315 7.55401 5.26837 2.79873 7.50839-4.81217 8.85002-8.44228z" id="path6986-5-1-2-3-6-0"/></svg>