<svg viewBox="0 0 560 1e3"><path style="display:inline;fill-opacity:1;fill-rule:evenodd;fill:#000;opacity:1;stroke-dasharray:none;stroke-linecap:butt;stroke-linejoin:miter;stroke-miterlimit:4;stroke-opacity:1;stroke-width:0;stroke:#000" d="m371.20236 269.08602c-3.73374 35.9083-20.21765 57.83898-20.94389 85.16987 12.60788 27.13802 15.15167 44.8984 12.79549 65.17531-40.98707 8.31859-66.05552 17.7901-80.67045 40.08127-.27859.87834-1.00697 6.35332-3.50565 8.26757-.26944.20641-1.13656 1.14752-4.58251.28177-.17413-.0437-1.37345.71664-3.61847.0361-5.83439-1.76869-6.66978-8.86034-6.76649-9.28816-16.51529-20.94369-30.17868-37.66144-38.61765-45.36138-6.01709-25.37355 9.44658-53.85346 14.89342-92.74495-1.86683-11.02512-2.92079-19.68359-3.52418-28.10341.22636-19.41542.20656-30.42602 2.64702-40.80573.0.0 69.39151 6.34849 124.87522 15.79701z" id="path3717-2"/><path style="display:inline;fill-opacity:1;fill-rule:evenodd;fill:#333;opacity:1;stroke-dasharray:none;stroke-linecap:butt;stroke-linejoin:miter;stroke-miterlimit:4;stroke-opacity:1;stroke-width:0;stroke:#000" d="m369.97602 269.06519c-2.50465 33.93412-20.79368 56.88998-20.76328 85.17932 11.45107 23.91916 14.46379 43.97434 13.55322 64.64293-59.85653 10.56956-79.27448 37.11519-80.04615 39.45296-.78385 1.88787-2.07261 6.65438-4.56951 8.43479-1.21712.86786-3.67455-.009-3.92649-.0331-.29397-.0276-1.00544 1.07969-3.15959.31564-5.02013-1.78057-5.70316-4.92926-6.40142-6.81689-11.78358-9.0584-20.34838-13.74223-39.40007-47.07157-3.1535-22.48207 12.04865-59.15001 16.45959-92.95957-1.76792-9.76145-2.56401-17.85901-3.11168-25.58242-1.19702-18.84935-1.22561-30.37568.73881-42.7198.46633-.72632 78.52997-14.47705 130.62657 17.15771z" id="path3719-9"/><path id="path3401-0-1" class="shadow" d="m330.97739 420.24734c-27.76035 9.69068-41.78653 28.32291-44.35913 33.05885 10.29989-9.14088 23.16576-22.06666 44.35913-33.05885z"/><path id="path3406-4-3" class="shadow" d="m262.15947 457.51688c-6.81704-9.41592-11.96578-25.28452-25.82391-35.94288 6.67904 9.06575 17.40602 27.14186 25.82391 35.94288z"/></svg>