<svg viewBox="0 0 560 1e3"><path style="baseline-shift:baseline;clip-rule:nonzero;color-interpolation-filters:linearRGB;color-interpolation:sRGB;color-rendering:auto;color:#000;direction:ltr;display:inline;enable-background:accumulate;fill-opacity:1;fill-rule:evenodd;fill:#fff;image-rendering:auto;isolation:auto;mix-blend-mode:normal;opacity:1;overflow:visible;shape-rendering:auto;solid-color:#000000;solid-opacity:1;stroke-dasharray:none;stroke-dashoffset:0;stroke-linecap:butt;stroke-linejoin:miter;stroke-miterlimit:4;stroke-opacity:1;stroke-width:3;stroke:none;visibility:visible;white-space:normal;writing-mode:lr-tb" d="m368.02373 464.49773c.14026.46671-1.4217 12.79815-6.58692 23.53836-.21492.44688-4.40691 10.43038-4.8094 14.37232-.14389 1.40925-.49393 2.08399-.334 5.55224.0849 1.84033-4.41834 2.89593-4.39856 2.89175 4.38082-.9257 18.8916-.59743 33.01851-3.95239 3.88432-44.21659-7.83764-75.54689-33.93906-101.067-.14649-.14323-1.91109.88278-1.97241.81782-.54899-.58159 20.11897 41.78888 19.02184 57.8469z" id="path8064"/><path style="baseline-shift:baseline;clip-rule:nonzero;color-interpolation-filters:linearRGB;color-interpolation:sRGB;color-rendering:auto;color:#000;direction:ltr;display:inline;enable-background:accumulate;fill-opacity:1;fill-rule:evenodd;fill:#fff;image-rendering:auto;isolation:auto;mix-blend-mode:normal;opacity:1;overflow:visible;shape-rendering:auto;solid-color:#000000;solid-opacity:1;stroke-dasharray:none;stroke-dashoffset:0;stroke-linecap:butt;stroke-linejoin:miter;stroke-miterlimit:4;stroke-opacity:1;stroke-width:3;stroke:none;visibility:visible;white-space:normal;writing-mode:lr-tb" d="m202.35107 511.92745c.38082-.1132 13.1923-1.96247 13.79579-2.04706-4.24794-51.95742 5.64592-85.00948 6.58099-89.93733-29.05213 43.71119-20.37678 91.98439-20.37678 91.98439z" id="path8066"/></svg>