<svg viewBox="0 0 560 1e3"><g data-transform="boob" id="g4130" transform="matrix(1.1247504,0,0,1.1247504,-26.347241,-34.609528)"><path style="fill-opacity:1;fill:#010101" id="path4122" d="m271.51118 261.14089c.0661-.75567-15.55212-23.85233-20.78384-21.10049-1.52959.80455-3.42058 1.9614-5.76856 3.60973-9.78469 6.69753-21.31453 10.82141-26.74443 14.7899-.54445.39791-.66828 2.70307-.76291 3.35152-.65836 4.51134-1.66809 9.99655-.19947 14.9545.5788 2.79959 1.92116 5.11459 3.04085 7.21138 2.65234 4.96693 6.04765 7.87695 10.86115 8.57219 21.5829 3.2487 35.13223-12.1343 39.18878-20.05393 1.83647 8.16488 6.94853 14.47073 13.3338 17.64542 10.04423 4.99389 23.27331 3.62273 32.00152-1.35019 14.24159-8.46859 19.00686-29.49472.12112-46.95807-1.24033-1.44425-2.4413-2.70187-3.54079-3.8753-.36194-.36533-.83711-.69814-1.41789-.98568-.3692-.18279-.78107-.34728-1.23367-.49021-4.17723-1.31914-18.96078 7.30779-27.63663 14.95545-5.29365 4.66629-9.38919 8.82318-10.45903 9.72378z"/><path style="fill-opacity:1;fill:#1a1a1a" id="path4124" d="m250.80319 239.92519c-2.11217 1.58135-4.28508 3.11053-5.92735 4.27017-5.84025 4.87392-21.34013 11.09517-25.80979 13.9564-.39537.25308-.72231 2.6909-.84921 3.07294-.70752 5.13443-.92153 9.56442-.30576 13.2861 1.01337 6.12496 3.33372 10.46932 6.44535 13.29915 2.48992 2.26451 5.53985 3.63861 8.78962 4.08772 10.49581 1.51314 19.86794-2.43574 27.29744-8.48888 4.20537-3.4345 7.18267-7.02269 9.92412-11.02226.12718.41876 1.87124 5.64497 5.46994 10.30596 2.123 2.74967 5.09638 5.02083 8.21123 6.75234.11303.0438.22593.0871.33871.12991 34.5912 13.12294 57.55039-22.51578 31.08151-47.52065-1.21885-1.39111-4.20568-5.32709-4.35427-5.6611-.6987-2.75664-9.8826-9.0648-16.06697-9.45676-9.71868-.61597-21.08175-.60121-21.2227-.21343-.22117-.36982-16.14896 7.01755-22.98077 13.1738-.0124.0112-.0411.0188-.0411.0289z"/><path d="m270.33492 269.98618c-.16754 2.01348.47911 3.25262.89408 5.36257-.66799-1.59942-1.31544-3.72955-.89408-5.36257z" class="shadow" id="path4128"/><path style="display:inline;fill-opacity:1;fill:#c837ab;stroke-dasharray:none;stroke-linecap:butt;stroke-linejoin:miter;stroke-miterlimit:4;stroke-opacity:1;stroke-width:0;stroke:#000" d="m271.17579 267.89069c-5.5728-2.67733-14.01027-10.34073-15.89027-17.66458-2.70731-10.54698 4.19599-20.07049 19.23518-10.29556 14.3436-7.25052 22.19399 2.76237 15.64078 13.86445-2.95819 5.01156-11.10078 9.78985-18.98569 14.09569z" id="path3267-5-3-7-0"/><path id="path3068-3" class="shadow" d="m270.35487 262.69631c.80522-1.67164 1.35132-5.35307 1.74425-7.83673.0751-.47459.14301 2.37506-.34608 4.18635 2.49182-4.02446 5.33364-8.32727 7.60312-11.93286.11015-.19897-.23509 1.44379 55e-5 1.22599-3.12526 4.76062-6.58589 10.14679-9.00219 14.35726z"/></g></svg>