<svg viewBox="0 0 560 1e3"><path style="baseline-shift:baseline;clip-rule:nonzero;color-interpolation-filters:linearRGB;color-interpolation:sRGB;color-rendering:auto;color:#000;direction:ltr;display:inline;enable-background:accumulate;fill-opacity:1;fill-rule:evenodd;fill:#000;image-rendering:auto;isolation:auto;mix-blend-mode:normal;opacity:1;overflow:visible;shape-rendering:auto;solid-color:#000000;solid-opacity:1;stroke-dasharray:none;stroke-dashoffset:0;stroke-linecap:butt;stroke-linejoin:miter;stroke-miterlimit:4;stroke-opacity:1;stroke-width:3;stroke:none;visibility:visible;white-space:normal;writing-mode:lr-tb" d="m354.86547 411.99851c-2.85298 17.41215-13.56033 70.43332 11.90658 61.45723 1.89239-.86095 14.59607-2.48721 17.71753-3.6412-1.18594-15.82272-23.72494-45.64562-29.62411-57.81603z" id="path7932"/><path style="baseline-shift:baseline;clip-rule:nonzero;color-interpolation-filters:linearRGB;color-interpolation:sRGB;color-rendering:auto;color:#000;direction:ltr;display:inline;enable-background:accumulate;fill-opacity:1;fill-rule:evenodd;fill:#c8c8c8;image-rendering:auto;isolation:auto;mix-blend-mode:normal;opacity:1;overflow:visible;shape-rendering:auto;solid-color:#000000;solid-opacity:1;stroke-dasharray:none;stroke-dashoffset:0;stroke-linecap:butt;stroke-linejoin:miter;stroke-miterlimit:4;stroke-opacity:1;stroke-width:3;stroke:none;visibility:visible;white-space:normal;writing-mode:lr-tb" d="m354.70603 409.47567c-2.85298 17.41215-13.56033 70.43332 11.90658 61.45723 1.89239-.86095 14.59607-2.48721 17.71753-3.6412-5.78214-33.14684-22.84106-49.71149-29.62411-57.81603z" id="path7934"/><path style="baseline-shift:baseline;clip-rule:nonzero;color-interpolation-filters:linearRGB;color-interpolation:sRGB;color-rendering:auto;color:#000;direction:ltr;display:inline;enable-background:accumulate;fill-opacity:1;fill-rule:evenodd;fill:#000;image-rendering:auto;isolation:auto;mix-blend-mode:normal;opacity:1;overflow:visible;shape-rendering:auto;solid-color:#000000;solid-opacity:1;stroke-dasharray:none;stroke-dashoffset:0;stroke-linecap:butt;stroke-linejoin:miter;stroke-miterlimit:4;stroke-opacity:1;stroke-width:3;stroke:none;visibility:visible;white-space:normal;writing-mode:lr-tb" d="m203.20885 473.37024c1.39941.21664 11.97875.24861 12.45353.28263 8.22418.58936 12.97845-9.08435 6.87327-51.27656-1.69202 2.22818-17.36637 29.48842-19.3268 50.99393z" id="path7936"/><path style="baseline-shift:baseline;clip-rule:nonzero;color-interpolation-filters:linearRGB;color-interpolation:sRGB;color-rendering:auto;color:#000;direction:ltr;display:inline;enable-background:accumulate;fill-opacity:1;fill-rule:evenodd;fill:#c8c8c8;image-rendering:auto;isolation:auto;mix-blend-mode:normal;opacity:1;overflow:visible;shape-rendering:auto;solid-color:#000000;solid-opacity:1;stroke-dasharray:none;stroke-dashoffset:0;stroke-linecap:butt;stroke-linejoin:miter;stroke-miterlimit:4;stroke-opacity:1;stroke-width:3;stroke:none;visibility:visible;white-space:normal;writing-mode:lr-tb" d="m203.47216 470.85684c.69231-.2253 12.0516.24968 12.28426.21232 8.14099-1.30723 12.80841-9.59615 6.70323-51.78836-1.69202 2.22818-17.02706 30.07053-18.98749 51.57604z" id="path7938"/><path style="fill:#502" id="path7940" d="m215.01442 467.52135c-3.91271-.0123-10.85852-.61386-11.23241-.56719.0711-.41289.0347-.25771.47262-2.84759.41527-.0402 6.58632.6108 11.12302.61746-.0154 1.01101-.28236 2.34506-.36323 2.79732z"/><path style="fill:#502" id="path7942" d="m384.06717 464.89445c-2.91834 1.15884-16.11763 3.29732-16.49152 3.34399.0711-.41289-.24151.46044.19641-2.12944.44841-.21697 11.85647-1.9856 16.1943-2.96226-.0154.24866.10434 1.43908.10081 1.74771z"/></svg>