<svg viewBox="0 0 560 1e3"><g data-transform="boob" class="scaler_" id="g5118" transform="matrix(1.1899396,0,0,1.1247504,-49.050018,-33.548868)"><path id="path5105" d="m300.5924 275.32662c-9.39141-8.01506-10.42885-13.46166-6.63157-17.55072 3.69092-3.41622 5.78985 2.08129 6.50255 2.05069.76544-.0329 3.20719-5.95306 7.48768-.98185 1.63913 2.87839 3.24377 7.31619-7.35868 16.48188z" class="areola"/><path id="path5108" class="areola" d="m228.83503 256.05817c1.91776 2.37928 1.35469 4.93817-.22588 6.99434-1.55205 3.02735-7.87778 5.52148-11.48432 8.21461-.28119-.49537-.38697-2.19975-.15811-4.26479.31779-2.86857.90905-6.43517 1.39786-8.47948.0224-.0934.0159-.21108.0882-.26404.36476-.267 2.31162-1.34558 3.37233-2.07242 1.55747-1.06724 2.34504-1.46633 2.51347-1.52142 1.18015-.38601-.91165 1.36741-.80924 1.49945.14701.0781 4.06484-1.53588 5.30569-.10625z"/></g></svg>