<svg viewBox="0 0 560 1e3"><path d="m309.95228 122.53846c-2.34062-.44611-3.95967-.57049-6.47367-.49729-5.49897.16008-8.41111.27639-9.4054.37566-1.16863-.0774-2.90307.8595-3.11519.66149.2259-.62257.33475-.9376.96505-1.60206.0383.0664.0713.34287.18807.3075.12267-.0372.18093-.50768.64685-.94165.17072.11141.1414.47193.24147.42506.10278-.0481.0993-.47685.82055-.9753.15251.36005-.1696.86003-.003.71316.54928-.48817.68454-.6648 1.54272-.84787.74554-.28664 7.46206-.44257 10.68247-.0485.768.094 1.89904.22105 2.51344.28236 1.26363.12611 2.83286.40181 2.9205.51308.0322.0407 5.25036 1.79785 7.03531 3.94846-.49283.1023-7.68912-2.1482-8.55952-2.31408zm-38.70904-2.28871c.93232.0621 1.5093.26924 1.78817.37548.41141.15675.11507-.2085.11288-.42769.32751-.0754.92797.4876 1.21478.74681.21453.19388.0157-.69965.22486-.4768.19435.20704.55858.90036.73062 1.10858.1587.19209-.0271-.46641.15952-.31348.92128.75496.71568 1.75543.79786 1.90878-.13777.12907-.98361-.65608-2.72096-.53713-2.54577.16396-5.42281.33652-7.71494 1.09067-.27089.12282-.61654.22332-.76811.22332-.23547.0-.23119-.039.0294-.2683.3451-.30358.28605-.31883-.55531-.14346-5.23285.69182-5.08353 2.1218-4.73965-.39304 3.59257-1.59466 6.84977-2.50383 11.44088-2.89374z" id="path7265" class="eyebrow_hair"/></svg>