<svg viewBox="0 0 560 1e3"><path id="path4685" d="m281.12 204.097c3.85861 10.06231 38.10313 10.675 43.05604-.38226" style="display:inline;fill-rule:evenodd;fill:none;stroke-dasharray:none;stroke-linecap:round;stroke-linejoin:miter;stroke-miterlimit:3.85714293;stroke-opacity:1;stroke-width:3;stroke:#c8c8c8"/><path id="path4687" d="m283.20925 457.85928c-10.24818-3.65074-12.19771-8.47811-13.14205-9.13293-3.48868-2.41906-25.29434-31.62162-35.93034-37.68891" style="display:inline;fill:none;stroke-dasharray:none;stroke-linecap:butt;stroke-linejoin:miter;stroke-miterlimit:4;stroke-opacity:1;stroke-width:3;stroke:#c8c8c8"/><path id="path4689" d="m262.61148 457.66092c.0971-.0743.39896-.14737.48137-.44924.65805-2.41031 8.31304-12.2898 15.48987-17.60178.1214-.0898 31.92814-23.95594 52.99727-31.64452" style="display:inline;fill:none;stroke-dasharray:none;stroke-linecap:butt;stroke-linejoin:miter;stroke-miterlimit:4;stroke-opacity:1;stroke-width:3;stroke:#c8c8c8"/><path id="path4691" d="m345.69741 401.15953c-27.24808 14.19379-55.9419 22.0963-78.2342 20.34786-12.10128-.94914-22.19066-5.48488-39.73776-13.36417" style="display:inline;fill:none;stroke-dasharray:none;stroke-linecap:butt;stroke-linejoin:miter;stroke-miterlimit:4;stroke-opacity:1;stroke-width:3;stroke:#c8c8c8"/><path id="path4693" d="M339.64498 404.35656c-14.24992-28.99875-42.70268-33.26156-56.97423-84.34993" style="display:inline;fill:none;stroke-dasharray:none;stroke-linecap:round;stroke-linejoin:miter;stroke-miterlimit:4;stroke-opacity:1;stroke-width:3;stroke:#c8c8c8"/><path id="path4695" d="m241.1389 373.90958c5.15545-8.03619 25.67194-51.46931 26.26327-52.87437" style="display:inline;fill:none;stroke-dasharray:none;stroke-linecap:round;stroke-linejoin:miter;stroke-miterlimit:4;stroke-opacity:1;stroke-width:3;stroke:#c8c8c8"/><path id="path4697" d="m312.23883 372.94157c-5.95666 8.4575-23.51421 11.68169-33.39131 2.81793" style="display:inline;fill:none;stroke-dasharray:none;stroke-linecap:round;stroke-linejoin:miter;stroke-miterlimit:4;stroke-opacity:1;stroke-width:3;stroke:#c8c8c8"/><path id="path4699" d="m298.13354 211.59436c-4.75475 17.04636-32.15183 16.3733-46.0788 43.24406" style="display:inline;fill:none;stroke-dasharray:none;stroke-linecap:round;stroke-linejoin:miter;stroke-miterlimit:3.85714293;stroke-opacity:1;stroke-width:3;stroke:#c8c8c8"/><path id="path4701" d="m299.24078 212.29201c-.75475 3.85886-14.89245 14.64367-18.59792 35.90804" style="display:inline;fill:none;stroke-dasharray:none;stroke-linecap:round;stroke-linejoin:miter;stroke-miterlimit:4;stroke-opacity:1;stroke-width:3;stroke:#c8c8c8"/><path id="path4703" d="m280.38868 304.77319c.006-1.50878 22.27835-17.45073 31.40589-48.11945" style="display:inline;fill:none;stroke-dasharray:none;stroke-linecap:round;stroke-linejoin:miter;stroke-miterlimit:3.85714293;stroke-opacity:1;stroke-width:3;stroke:#c8c8c8"/><path id="path4705" d="m367.94362 260.70193c-7.79427 1.12077-48.01678 6.47281-56.21337-4.04334" style="display:inline;fill:none;stroke-dasharray:none;stroke-linecap:round;stroke-linejoin:miter;stroke-miterlimit:3.85714293;stroke-opacity:1;stroke-width:3;stroke:#c8c8c8"/><path id="path4707" d="M267.84589 303.48244c-15.30684-33.68799-15.93074-45.19904-15.9956-47.76026" style="display:inline;fill:none;stroke-dasharray:none;stroke-linecap:round;stroke-linejoin:miter;stroke-miterlimit:3.85714293;stroke-opacity:1;stroke-width:3;stroke:#c8c8c8"/><path id="path4709" d="m258.17818 457.64074c.21772-2.84247.63992-27.22453 2.93504-36.30361" style="display:inline;fill:none;stroke-dasharray:none;stroke-linecap:round;stroke-linejoin:miter;stroke-miterlimit:4;stroke-opacity:1;stroke-width:3;stroke:#c8c8c8"/><path id="path4711" d="m251.85496 446.80191c.21772-2.84247.46314-18.3857 2.75826-27.46478" style="display:inline;fill:none;stroke-dasharray:none;stroke-linecap:round;stroke-linejoin:miter;stroke-miterlimit:4;stroke-opacity:1;stroke-width:3;stroke:#c8c8c8"/><path id="path4713" d="m246.45851 438.03262c.21772-2.84247.10959-11.49141 2.40471-20.57049" style="display:inline;fill:none;stroke-dasharray:none;stroke-linecap:round;stroke-linejoin:miter;stroke-miterlimit:4;stroke-opacity:1;stroke-width:3;stroke:#c8c8c8"/><path id="path4715" d="m302.51657 437.11777c.21772-2.84247-.0735-10.57656 2.22165-19.65564" style="display:inline;fill:none;stroke-dasharray:none;stroke-linecap:round;stroke-linejoin:miter;stroke-miterlimit:4;stroke-opacity:1;stroke-width:3;stroke:#c8c8c8"/><path id="path4717" d="m294.11124 448.58637c.21772-2.84247.58186-19.79516 2.87698-28.87424" style="display:inline;fill:none;stroke-dasharray:none;stroke-linecap:round;stroke-linejoin:miter;stroke-miterlimit:4;stroke-opacity:1;stroke-width:3;stroke:#c8c8c8"/><path id="path4720" d="m286.41301 457.93884c.21772-2.84247.90509-27.77263 3.20021-36.85171" style="display:inline;fill:none;stroke-dasharray:none;stroke-linecap:round;stroke-linejoin:miter;stroke-miterlimit:4;stroke-opacity:1;stroke-width:3;stroke:#c8c8c8"/><path id="path4722" d="m279.22996 467.29652c.21772-2.84247.46314-36.50531 2.75826-45.58439" style="display:inline;fill:none;stroke-dasharray:none;stroke-linecap:round;stroke-linejoin:miter;stroke-miterlimit:4;stroke-opacity:1;stroke-width:3;stroke:#c8c8c8"/><path id="path4724" d="m264.69963 467.31797c.21772-2.84247.99347-36.15176 3.28859-45.23084" style="display:inline;fill:none;stroke-dasharray:none;stroke-linecap:round;stroke-linejoin:miter;stroke-miterlimit:4;stroke-opacity:1;stroke-width:3;stroke:#c8c8c8"/><path id="path4726" d="m272.03801 474.07209c.21772-2.84247.90509-42.78088 3.20021-51.85996" style="display:inline;fill:none;stroke-dasharray:none;stroke-linecap:round;stroke-linejoin:miter;stroke-miterlimit:4;stroke-opacity:1;stroke-width:3;stroke:#c8c8c8"/><path id="path4728" d="m309.1374 428.8275c.21772-2.84247 1.8015-11.07656 2.47165-12.65564" style="display:inline;fill:none;stroke-dasharray:none;stroke-linecap:round;stroke-linejoin:miter;stroke-miterlimit:4;stroke-opacity:1;stroke-width:3;stroke:#c8c8c8"/><path id="path4730" d="m241.25612 426.62407c.21772-2.84247 1.05778-5.87313 2.10293-10.45221" style="display:inline;fill:none;stroke-dasharray:none;stroke-linecap:round;stroke-linejoin:miter;stroke-miterlimit:4;stroke-opacity:1;stroke-width:3;stroke:#c8c8c8"/><path id="path4732" d="m339.11336 405.70365c.93383 2.6935 2.76495 10.87614 2.78008 12.59148" style="display:inline;fill:none;stroke-dasharray:none;stroke-linecap:round;stroke-linejoin:miter;stroke-miterlimit:4;stroke-opacity:1;stroke-width:3;stroke:#c8c8c8"/><path id="path4734" d="m224.29488 420.9774c.59863-2.78723 3.27714-10.73293 4.15389-12.20735" style="display:inline;fill:none;stroke-dasharray:none;stroke-linecap:round;stroke-linejoin:miter;stroke-miterlimit:4;stroke-opacity:1;stroke-width:3;stroke:#c8c8c8"/><path id="path4736" d="m232.04487 423.72739c.59863-2.78723 3.27714-10.73293 4.15389-12.20735" style="display:inline;fill:none;stroke-dasharray:none;stroke-linecap:round;stroke-linejoin:miter;stroke-miterlimit:4;stroke-opacity:1;stroke-width:3;stroke:#c8c8c8"/><path id="path4738" d="m330.98836 409.20365c.93383 2.6935 2.76495 10.87614 2.78008 12.59148" style="display:inline;fill:none;stroke-dasharray:none;stroke-linecap:round;stroke-linejoin:miter;stroke-miterlimit:4;stroke-opacity:1;stroke-width:3;stroke:#c8c8c8"/><path id="path4740" d="m320.61336 412.82865c.93383 2.6935 2.76495 10.87614 2.78008 12.59148" style="display:inline;fill:none;stroke-dasharray:none;stroke-linecap:round;stroke-linejoin:miter;stroke-miterlimit:4;stroke-opacity:1;stroke-width:3;stroke:#c8c8c8"/><path id="path4742" d="m344.65597 402.2889c1.70188 2.28705 5.91301 9.5379 6.4442 11.169" style="display:inline;fill:none;stroke-dasharray:none;stroke-linecap:round;stroke-linejoin:miter;stroke-miterlimit:4;stroke-opacity:1;stroke-width:3;stroke:#c8c8c8"/><path id="path4744" d="m262.04275 374.33434c-5.5121 7.48155-19.16909 4.38252-19.4071-2.82223" style="display:inline;fill:none;stroke-dasharray:none;stroke-linecap:round;stroke-linejoin:miter;stroke-miterlimit:4;stroke-opacity:1;stroke-width:3;stroke:#c8c8c8"/><path id="path4746" d="m268.50591 407.75218c-.5898-6.26843 1.12708-22.36639 1.71841-23.77145" style="display:inline;fill:none;stroke-dasharray:none;stroke-linecap:round;stroke-linejoin:miter;stroke-miterlimit:4;stroke-opacity:1;stroke-width:3;stroke:#c8c8c8"/><path id="path4748" d="m262.94975 396.78351c-.5898-6.26843 1.12708-14.76499 1.71841-16.17005" style="display:inline;fill:none;stroke-dasharray:none;stroke-linecap:round;stroke-linejoin:miter;stroke-miterlimit:4;stroke-opacity:1;stroke-width:3;stroke:#c8c8c8"/><path id="path4750" d="m275.76041 397.29607c-.5898-6.26843.0664-13.52755.65775-14.93261" style="display:inline;fill:none;stroke-dasharray:none;stroke-linecap:round;stroke-linejoin:miter;stroke-miterlimit:4;stroke-opacity:1;stroke-width:3;stroke:#c8c8c8"/><path id="path4752" d="m270.3752 365.58931c-.5898-6.26843 1.65741-38.80662 2.24874-40.21168" style="display:inline;fill:none;stroke-dasharray:none;stroke-linecap:round;stroke-linejoin:miter;stroke-miterlimit:4;stroke-opacity:1;stroke-width:3;stroke:#c8c8c8"/><path id="path4754" d="m358.94746 305.95951c-11.95666 5.4575-65.26421 11.18169-74.89131 5.56793" style="display:inline;fill:none;stroke-dasharray:none;stroke-linecap:round;stroke-linejoin:miter;stroke-miterlimit:4;stroke-opacity:1;stroke-width:3;stroke:#c8c8c8"/><path id="path4756" d="m263.69518 311.06719c-7.45666 4.9575-20.51421 1.68169-21.89131.56793" style="display:inline;fill:none;stroke-dasharray:none;stroke-linecap:round;stroke-linejoin:miter;stroke-miterlimit:4;stroke-opacity:1;stroke-width:3;stroke:#c8c8c8"/><path id="path4758" d="m264.44388 380.21249c-6.89282-6.74541 4.70409-19.32187 12.11963-11.75287 7.09509 7.60069-2.40288 21.26182-12.11963 11.75287z" style="display:inline;fill:none;stroke-dasharray:none;stroke-linecap:round;stroke-linejoin:miter;stroke-miterlimit:4;stroke-opacity:1;stroke-width:3;stroke:#969696"/><path id="path4760" d="m271.42045 255.48644c-7.42366 3.76671-15.02623 2.26335-19.34899.41778" style="display:inline;fill:none;stroke-dasharray:none;stroke-linecap:round;stroke-linejoin:miter;stroke-miterlimit:3.85714293;stroke-opacity:1;stroke-width:3;stroke:#c8c8c8"/><path id="path4762" d="m311.70759 256.81266c-7.17366 2.39171-15.6235 4.54843-23.86155-.14073" style="display:inline;fill:none;stroke-dasharray:none;stroke-linecap:round;stroke-linejoin:miter;stroke-miterlimit:3.85714293;stroke-opacity:1;stroke-width:3;stroke:#c8c8c8"/><path id="path4764" d="m299.22395 213.07126c-13.51547 17.6732 9.0559 22.79195 12.40554 43.13606" style="display:inline;fill:none;stroke-dasharray:none;stroke-linecap:round;stroke-linejoin:miter;stroke-miterlimit:3.85714293;stroke-opacity:1;stroke-width:3;stroke:#c8c8c8"/><path id="path4766" d="m251.86558 255.56135c-3.40749 1.54328-10.05083 3.13727-11.67793 2.52351" style="display:inline;fill:none;stroke-dasharray:none;stroke-linecap:round;stroke-linejoin:miter;stroke-miterlimit:4;stroke-opacity:1;stroke-width:3;stroke:#c8c8c8"/><path id="path4768" d="m273.92546 301.85502c-.30879-6.18197 1.84396-25.58576 4.24874-35.96168" style="display:inline;fill:none;stroke-dasharray:none;stroke-linecap:round;stroke-linejoin:miter;stroke-miterlimit:4;stroke-opacity:1;stroke-width:3;stroke:#c8c8c8"/><path id="path4770" d="m266.04769 320.09918c-8.69315-8.44027 5.93275-24.17671 15.28516-14.70591 8.94826 9.51045-3.03049 26.60409-15.28516 14.70591z" style="display:inline;fill:none;stroke-dasharray:none;stroke-linecap:round;stroke-linejoin:miter;stroke-miterlimit:4;stroke-opacity:1;stroke-width:3.76864791;stroke:#969696"/><path id="path4772" d="m273.108 262.60272c-6.89282-6.74542 4.70409-19.32188 12.11963-11.75288 7.09509 7.6007-2.40288 21.26183-12.11963 11.75288z" style="display:inline;fill:none;stroke-dasharray:none;stroke-linecap:round;stroke-linejoin:miter;stroke-miterlimit:4;stroke-opacity:1;stroke-width:3;stroke:#969696"/><path id="path4774" d="m284.40572 202.34516c3.25263 7.26728 32.11921 7.70978 36.29429-.27609" style="display:inline;fill-rule:evenodd;fill:none;stroke-dasharray:none;stroke-linecap:round;stroke-linejoin:miter;stroke-miterlimit:3.85714293;stroke-opacity:1;stroke-width:2.34078074;stroke:#c8c8c8"/></svg>