<svg viewBox="0 0 560 1e3"><path id="path2540" style="display:inline;fill:#000;stroke-width:.1766593" d="m286.55407 155.24717c.39401-.4248.86161-1.03899 1.0391-1.36486.12176-.32674-.0857-.87842-.24408-1.44896.34507.54284.46551.85519.62561 1.3445.10363.85958-1.03225 2.24168-1.84242 2.24168-.21056.0-.0902-.22032.42175-.77236zm-5.24389-.0118c.45235-.27246.72518-.44764 1.59275-.43625 2.15805.0284 1.90593.69358-.29051.76643-1.20861-.13402-1.34813-.22021-1.35788.62936-.0882-.33332-.1714-.61558.0556-.95954zm-6.18111-2.69406v2e-5c-.46806-1.10244-.369-2.74262.25789-4.27071 1.05444-2.57022 1.93041-4.57849 2.048-4.69536.0654-.0651.11908.13457.11908.44372.0.62188-.31247 1.53535-1.42428 4.16358-.62256 1.47174-.74395 1.94923-.7386 2.90584.003.62961.0908 1.36267.19421 1.62904.44651.80152 1.87221 2.1737 2.10335 2.23323.40574.10448.70355.23251 1.00643.70381.12951.25329.22841.4791.29419.66657-.2032-.41456-1.04341-.64673-1.27755-.91056-2.04892-1.8712-2.52814-2.73499-2.58272-2.86918z"/><path id="path2548" d="m283.22365 149.21726c.57228.8852.25352 1.52877-.58236 1.43672-.0682-.2112-.34275-1.25205.58236-1.43672z" style="fill-opacity:1;fill-rule:nonzero;fill:#000;stroke-dasharray:none;stroke-linecap:butt;stroke-linejoin:miter;stroke-miterlimit:4;stroke-opacity:1;stroke-width:0;stroke:#000"/></svg>