<svg viewBox="0 0 560 1000"><path id="path48945" d="m 276.12025,466.73654 c -2.88164,1.9008 -6.71596,1.94422 -8.54246,0.75366 -3.59789,-2.34518 -3.31778,-7.98451 -2.42447,-9.53973 0.36239,-0.63091 1.15375,-1.35085 2.54927,-5.47624 0.9305,-2.75069 1.55309,-10.59199 1.51632,-16.73609 -0.005,-0.91305 -0.72077,-0.0215 -0.88713,-0.91416 -0.23583,-1.2654 1.28059,-3.41838 1.76106,-4.06245 1.76161,-2.36147 2.60991,-1.04381 3.00274,-1.0143 1.03457,0.0777 1.37566,2.50968 1.58633,5.47005 0.0557,0.78217 -0.06,1.04406 -0.10202,1.85715 -0.24391,4.72574 -0.95505,7.73825 -0.57276,15.5841 0.12041,2.47126 1.3231,5.47925 1.8056,6.31636 1.8673,3.23971 1.99162,6.14145 0.30752,7.76165 z" style="display:inline;fill:#000000;opacity:1;stroke-width:0.56132483"/><path class="skin scrotum" d="m 268.25561,467.41283 c -3.82145,-1.73099 -3.85566,-8.15952 -2.42146,-9.84348 0.6027,-0.70766 1.01966,-1.33604 2.32537,-5.1263 0.89616,-2.60143 1.44591,-11.32063 1.4147,-17.21044 -0.005,-0.87527 -1.05134,0.1743 -0.99123,-0.69122 0.0845,-1.21679 0.82634,-2.49493 2.26878,-4.45862 0.86058,-1.17156 2.63158,-1.2119 3.91123,0.0353 0.72527,0.70685 1.7148,2.13327 1.8936,4.97112 0.0472,0.7498 -0.85553,-0.0334 -0.89115,0.74606 -0.20703,4.53014 -0.63126,9.36018 -0.30679,16.8813 0.10221,2.36898 0.82658,3.98408 1.29407,4.75308 1.88796,3.10562 2.59961,7.96035 0.1649,9.52036 -2.43472,1.56 -6.91378,1.21474 -8.66202,0.42285 z" id="path48947"/></svg>
