<svg viewBox="0 0 560 1e3"><path id="path7501" d="m348.54665 406.32194c18.66529 8.78884 47.15991 38.95774 35.52413 82.54617-1.88315 7.05441-8.15953 12.90635-15.48508 18.6771-1.72814 1.36134-9.4524.90996-10.46735 1.3615-.61793-4.51354-.0158-11.21301 2.74476-18.25958 2.77204-7.07579 6.33615-14.77042 7.44517-22.47054 1.13346-7.86977 1.41455-14.95075-.82965-24.04445-1.03049-4.17562-2.52367-8.91513-4.8354-14.10194-2.58066-5.79021-9.47342-19.19714-9.17347-19.77658.20687-.39965-4.92311-3.93168-4.92311-3.93168z" style="display:inline;fill-opacity:.00392157;fill-rule:evenodd;fill:#000;stroke-dasharray:none;stroke-linecap:butt;stroke-linejoin:miter;stroke-miterlimit:4;stroke-opacity:0;stroke-width:3;stroke:#000"/><path id="path7503" d="m349.76252 407.26553c12.72503 6.81473 23.98981 18.32509 31.40659 31.70612 9.88169 17.97388 10.6335 41.94492 2.33416 58.85006-2.24813 3.77919-8.5753 10.76424-8.5753 10.76424l-19.61125 1.31981s-.5626-9.84802 1.38515-14.58569c3.05043-7.41983 6.97246-15.48859 8.19284-23.56313 1.24729-8.2524 1.55661-15.67767-.91296-25.21354-1.13398-4.37864-2.77712-9.3486-5.32099-14.78761-2.83982-6.07174-7.11778-19.75981-6.78773-20.36741.22766-.41908-2.11051-4.12285-2.11051-4.12285z" style="display:inline;fill-opacity:.39215686;fill-rule:evenodd;fill:#f59;stroke-dasharray:none;stroke-linecap:butt;stroke-linejoin:miter;stroke-miterlimit:4;stroke-opacity:0;stroke-width:3.22263527;stroke:#000"/></svg>