<svg viewBox="0 0 560 1e3"><g data-transform="boob" id="g5014" transform="matrix(1.1247504,0,0,1.1247504,-26.347241,-34.609528)"><path style="fill-opacity:1;fill:#010101" id="path5113" d="m271.51118 261.14089c.0661-.75567-15.55212-23.85233-20.78384-21.10049-1.52959.80455-3.42058 1.9614-5.76856 3.60973-9.78469 6.69753-21.31453 10.82141-26.74443 14.7899-.54445.39791-.66828 2.70307-.76291 3.35152-.65836 4.51134-1.66809 9.99655-.19947 14.9545.5788 2.79959 1.92116 5.11459 3.04085 7.21138 2.65234 4.96693 6.04765 7.87695 10.86115 8.57219 21.5829 3.2487 35.13223-12.1343 39.18878-20.05393 1.83647 8.16488 6.94853 14.47073 13.3338 17.64542 10.04423 4.99389 23.27331 3.62273 32.00152-1.35019 14.24159-8.46859 19.00686-29.49472.12112-46.95807-1.24033-1.44425-2.4413-2.70187-3.54079-3.8753-.36194-.36533-.83711-.69814-1.41789-.98568-.3692-.18279-.78107-.34728-1.23367-.49021-4.17723-1.31914-18.96078 7.30779-27.63663 14.95545-5.29365 4.66629-9.38919 8.82318-10.45903 9.72378z"/><path style="fill-opacity:1;fill:#ececec" id="path5119" d="m250.80319 239.92519c-2.11217 1.58135-4.28508 3.11053-5.92735 4.27017-5.84025 4.87392-21.34013 11.09517-25.80979 13.9564-.39537.25308-.72231 2.6909-.84921 3.07294-.70752 5.13443-.92153 9.56442-.30576 13.2861 1.01337 6.12496 3.33372 10.46932 6.44535 13.29915 2.48992 2.26451 5.53985 3.63861 8.78962 4.08772 10.49581 1.51314 19.86794-2.43574 27.29744-8.48888 4.20537-3.4345 7.18267-7.02269 9.92412-11.02226.12718.41876 1.87124 5.64497 5.46994 10.30596 2.123 2.74967 5.09638 5.02083 8.21123 6.75234.11303.0438.22593.0871.33871.12991 34.5912 13.12294 57.55039-22.51578 31.08151-47.52065-1.21885-1.39111-4.20568-5.32709-4.35427-5.6611-.6987-2.75664-9.8826-9.0648-16.06697-9.45676-9.71868-.61597-21.08175-.60121-21.2227-.21343-.22117-.36982-16.14896 7.01755-22.98077 13.1738-.0124.0112-.0411.0188-.0411.0289z"/><path id="path5010" class="shadow" d="m272.19169 258.88792c.80943-1.48623 1.35838-4.75934 1.75336-6.96753.0755-.42195.14376 2.11164-.34789 3.72203 2.50484-3.57809 5.36151-7.40366 7.64284-10.60934.11073-.1769-.23631 1.28365 56e-5 1.09001-3.14159 4.2326-6.6203 9.02137-9.04922 12.76484z"/><path d="m270.33492 269.98618c-.16754 2.01348.47911 3.25262.89408 5.36257-.66799-1.59942-1.31544-3.72955-.89408-5.36257z" class="shadow" id="path5012"/><path style="display:inline;fill-opacity:1;fill-rule:nonzero;fill:#000;opacity:1;stroke-dasharray:none;stroke-dashoffset:0;stroke-linecap:round;stroke-linejoin:bevel;stroke-miterlimit:4;stroke-opacity:1;stroke-width:0;stroke:#000;vector-effect:none" d="m320.66643 266.25428c0 12.05744-9.65838 21.12482-22.00872 21.12481-12.35032-1e-5-19.88736-8.1835-19.88736-20.24093s7.18349-22.00869 19.53381-22.0087c12.35034-1e-5 22.36227 9.06737 22.36227 21.12482z" id="path1626-9"/><path style="display:inline;fill-opacity:1;fill-rule:nonzero;fill:maroon;opacity:1;stroke-dasharray:none;stroke-dashoffset:0;stroke-linecap:round;stroke-linejoin:bevel;stroke-miterlimit:4;stroke-opacity:1;stroke-width:0;stroke:#000;vector-effect:none" d="m318.90755 266.10339c0 11.11008-8.8643 19.46505-20.19925 19.46504-11.33492-1e-5-18.25229-7.54053-18.25229-18.65061.0-11.11007 6.59289-20.27947 17.92781-20.27948 11.33495-1e-5 20.52373 8.35496 20.52373 19.46505z" id="path1626-1-0"/><path style="display:inline;fill-opacity:1;fill-rule:nonzero;fill:#000;opacity:1;stroke-dasharray:none;stroke-dashoffset:0;stroke-linecap:round;stroke-linejoin:bevel;stroke-miterlimit:4;stroke-opacity:1;stroke-width:0;stroke:#000;vector-effect:none" d="m315.15755 266.47839c0 1.07575-.1163 3.28388-.22379 4.24996-4.84718-.34911-11.93835-.85256-13.51634-.93559.12383.70926.8116 7.39477 1.67901 12.94663-.74707.0528-4.2098.079-5.01313.079-.74773.0-3.45666-.2094-4.12864-.2536.72554-4.50941 1.98264-11.92327 1.97052-12.70919-.86746-.004-6.83155.66357-11.67213 1.11013-.0324-.79201.078-3.43283.078-4.29795.0-1.08475.0223-3.42179.0732-4.38754 3.97131.6151 10.06547 1.47574 11.16789 1.36756-.44591-2.06727-.53984-7.0986-1.49337-12.69678.90273-.0839 2.87765-.18772 3.9301-.18772 1.08.0 3.92238.1043 4.90189.18956-.48493 3.32213-.8388 10.9689-1.0758 12.58219 2.08648-.3006 7.95423-.8584 13.18238-1.44686.0518.68473.1403 3.64793.1403 4.39016z" id="path1626-1-2-7"/><path style="display:inline;fill-opacity:1;fill-rule:nonzero;fill:#ececec;opacity:1;stroke-dasharray:none;stroke-dashoffset:0;stroke-linecap:round;stroke-linejoin:bevel;stroke-miterlimit:4;stroke-opacity:1;stroke-width:0;stroke:#000;vector-effect:none" d="m314.00851 266.40895c0 1.0105-.23732 2.22232-.33744 3.12979-.40686.086-.65494-.86561-1.0922-.86629-4.32188-.007-10.40707.23321-11.74164.16229.10665.61614-.30227 6.684-.14503 11.64862.0128.40372.77813.80469.79361 1.20013-.69575.0495-2.63052.0743-3.37867.0743-.69637.0-2.05814-.19671-2.68395-.23821.0343-.38364.81933-.65826.85234-1.08207.32779-4.20795.6445-11.02921.63423-11.6999-.72233-.004-5.99296-.14362-10.14198-.25347-.49125-.013-.93459.77059-1.41185.76022-.0301-.74396-.0564-1.8448-.0564-2.65745.0-1.01894-.0223-2.17936.0251-3.08654.48622.0262.92982.97904 1.48839 1.0021 3.49265.1442 8.86322.0109 9.74835-.0767-.0648-1.64989-.29294-7.71904-.44407-11.42887-.0149-.36563-.73657-.71532-.75065-1.04397.84072-.0788 1.6909-.30569 2.67108-.30569 1.0058.0 2.70687.0548 3.61908.13494-.0129.37951-.64754.86406-.66542 1.34775-.13115 3.54845.0946 9.94717.16523 11.24286 1.79477-.0218 6.69443.29048 11.3364.0814.38375-.0173.92043-.98566 1.29879-1.00482.0483.64319.21667 2.26244.21667 2.95965z" id="path1626-1-2-0-4"/><path style="display:inline;fill-opacity:1;fill-rule:nonzero;fill:#000;opacity:1;stroke-dasharray:none;stroke-dashoffset:0;stroke-linecap:round;stroke-linejoin:bevel;stroke-miterlimit:4;stroke-opacity:1;stroke-width:0;stroke:#000;vector-effect:none" d="m302.81719 266.27703c-1.27548 1.74405-2.39556 3.08262-3.93289 4.49761-1.7765-1.68029-2.29676-2.34954-3.85126-4.31466 1.07619-1.43453 2.21492-2.91493 3.62931-4.55558 1.89608 1.54764 2.48077 2.27482 4.15484 4.37263z" id="path1626-1-7-0"/><path style="display:inline;fill-opacity:1;fill-rule:nonzero;fill:#fff;opacity:1;stroke-dasharray:none;stroke-dashoffset:0;stroke-linecap:round;stroke-linejoin:bevel;stroke-miterlimit:4;stroke-opacity:1;stroke-width:0;stroke:#000;vector-effect:none" d="m302.28594 266.30939c-1.09114 1.49521-2.04934 2.64278-3.36449 3.85587-1.51975-1.44053-1.96482-2.0143-3.29467-3.69904.92067-1.22983 1.89482-2.49901 3.1048-3.90557 1.62205 1.32682 2.12224 1.95025 3.55436 3.74874z" id="path1626-1-7-8-9"/><path style="display:inline;fill-opacity:1;fill-rule:nonzero;fill:maroon;opacity:1;stroke-dasharray:none;stroke-dashoffset:0;stroke-linecap:round;stroke-linejoin:bevel;stroke-miterlimit:4;stroke-opacity:1;stroke-width:0;stroke:#000;vector-effect:none" d="m300.43278 267.03363c0 .90125-.70487 1.57899-1.6062 1.57899s-1.45138-.61168-1.45138-1.51293c0-.90124.34748-2.57314 2.33156-2.66153-2.45743 2.43068.72602 1.69422.72602 2.59547z" id="path1626-1-8-1"/></g></svg>