<svg viewBox="0 0 560 1e3"><path id="path3393-7" d="m364.46031 291.17686c-1.05567 4.27771-2.35983 9.22933-3.95929 14.90802-4.54325 16.13025-8.87644 22.88172-15.83678 34.2393-18.83302 27.12305-9.8598 37.76438 3.17357 64.44649-39.63585 8.44961-73.36719-.5644-74.62201-2.48257-1.64009.741-43.435 3.30901-44.74284.97268 26.11605-55.62789 7.16471-95.21985 8.54256-113.13564 29.31136 4.23594 96.87362 5.52023 127.44479 1.05172z" style="display:inline;fill-opacity:1;fill-rule:evenodd;fill:#000;opacity:1;stroke-dasharray:none;stroke-linecap:butt;stroke-linejoin:miter;stroke-miterlimit:4;stroke-opacity:1;stroke-width:0;stroke:#000"/><path id="path3395-7" d="m363.39567 292.25512c-2.18099 10.66111-6.09436 19.7146-9.44573 28.08874-8.73032 21.81464-22.27824 31.16218-21.24002 47.90859.9681 15.61542 10.40828 28.18666 15.57006 36.62237-17.63874 8.2137-62.60162 16.60027-75.95916 15.55208-14.5274-1.06045-34.5264-4.75923-43.82766-17.17988 1.84909-4.29131 3.18472-6.81908 3.19329-6.99778 23.32393-41.36085 5.75063-96.91062 6.21708-105.15749 15.1653 4.87141 87.9531 7.07104 125.49214 1.16337z" style="display:inline;fill-opacity:1;fill-rule:evenodd;fill:maroon;opacity:1;stroke-dasharray:none;stroke-linecap:butt;stroke-linejoin:miter;stroke-miterlimit:4;stroke-opacity:1;stroke-width:0;stroke:#000"/><path style="display:inline;fill-opacity:1;fill:#000" d="m271.82541 419.82176c-2.95889-1.35248 3.14505-84.87341 9.78881-125.22982.0285-.17315.057-.3455.0855-.51704 1.50128.0372.40125.0354 2.32021.32945-.0232.14017-.0464.28036-.0695.42056-10.07906 61.12732-11.98279 124.80237-12.12507 124.99685z" id="path3497"/><path style="display:inline;fill:#000" d="m277.26367 407.09589c0 .86028-3.76472 3.3125-6.25 3.3125l.28125-6.65625c2.48528.0 5.96875 2.60847 5.96875 3.34375z" id="path3499"/><path style="display:inline;fill:#000" d="m277.90626 391.4531c0 .86028-3.76472 3.3125-6.25 3.3125l.28125-6.65625c2.48528.0 5.96875 2.60847 5.96875 3.34375z" id="path3501"/><path style="display:inline;fill:#000" d="m279.12501 376.4531c0 .86028-4.04597 3-6.53125 3l.46875-6.65625c2.48528.0 6.0625 2.92097 6.0625 3.65625z" id="path3503"/><path style="display:inline;fill:#000" d="m280.18751 363.2656c0 .86028-4.20222 2.6875-6.6875 2.6875l.59375-6.65625c2.48528.0 6.09375 3.23347 6.09375 3.96875z" id="path3505"/><path style="display:inline;fill:#000" d="m281.25001 348.5781c0 .86028-3.95222 2.875-6.4375 2.875l.625-6.59375c2.48528.0 5.8125 2.98347 5.8125 3.71875z" id="path3507"/><path style="display:inline;fill:#000" d="m283.00001 332.92185c0 .86028-4.13972 2.65625-6.625 2.65625l.6875-6.59375c2.48528.0 5.9375 3.20222 5.9375 3.9375z" id="path3509"/><path style="display:inline;fill:#000" d="m284.7206 318.33666c0 .86028-4.29597 2.28125-6.78125 2.28125l.8125-6.5c2.48528.0 5.96875 3.48347 5.96875 4.21875z" id="path3511"/><path style="display:inline;fill:#000" d="m286.3358 302.31061c0 .86028-3.98347 3-6.46875 3l.9375-6.3125c2.48528.0 5.53125 2.57722 5.53125 3.3125z" id="path3513"/><path style="display:inline;fill:#787878" d="m277.18902 406.27379c0 .86028-3.76472 3.3125-6.25 3.3125l.28125-6.65625c2.48528.0 5.96875 2.60847 5.96875 3.34375z" id="path3519"/><path style="display:inline;fill:#787878" d="m277.83161 390.631c0 .86028-3.76472 3.3125-6.25 3.3125l.28125-6.65625c2.48528.0 5.96875 2.60847 5.96875 3.34375z" id="path3521"/><path style="display:inline;fill:#787878" d="m279.05036 375.631c0 .86028-4.04597 3-6.53125 3l.46875-6.65625c2.48528.0 6.0625 2.92097 6.0625 3.65625z" id="path3523"/><path style="display:inline;fill:#787878" d="m280.11286 362.4435c0 .86028-4.20222 2.6875-6.6875 2.6875l.59375-6.65625c2.48528.0 6.09375 3.23347 6.09375 3.96875z" id="path3525"/><path style="display:inline;fill:#787878" d="m281.17536 347.756c0 .86028-3.95222 2.875-6.4375 2.875l.625-6.59375c2.48528.0 5.8125 2.98347 5.8125 3.71875z" id="path3527"/><path style="display:inline;fill:#787878" d="m282.92536 332.09975c0 .86028-4.13972 2.65625-6.625 2.65625l.6875-6.59375c2.48528.0 5.9375 3.20222 5.9375 3.9375z" id="path3529"/><path style="display:inline;fill:#787878" d="m284.64595 317.51456c0 .86028-4.29597 2.28125-6.78125 2.28125l.8125-6.5c2.48528.0 5.96875 3.48347 5.96875 4.21875z" id="path3531"/><path style="display:inline;fill:#787878" d="m286.26115 301.48851c0 .86028-3.98347 3-6.46875 3l.9375-6.3125c2.48528.0 5.53125 2.57722 5.53125 3.3125z" id="path3533"/><path style="display:inline;fill-opacity:1;fill-rule:evenodd;fill:#000;opacity:1;stroke-dasharray:none;stroke-linecap:butt;stroke-linejoin:miter;stroke-miterlimit:4;stroke-opacity:1;stroke-width:0;stroke:#000" d="m347.68208 403.23881c2.80181 5.33577 25.09174 44.29249 18.90133 70.64555-20.82093 14.76257-101.55407 3.60363-151.95195.28076.0107-.97713-.16551-1.96737.0474-2.89937 10.07694-44.10083 13.87554-65.24606 14.52507-68.949.0814-.46415.36966-.60698.36966-.60698 31.73404 35.14115 95.91336 8.94544 118.10844 1.52904z" id="path3581-6-5-2-4-1"/><path style="display:inline;fill-opacity:1;fill-rule:evenodd;fill:maroon;opacity:1;stroke-dasharray:none;stroke-linecap:butt;stroke-linejoin:miter;stroke-miterlimit:4;stroke-opacity:1;stroke-width:0;stroke:#000" d="m348.31137 404.36897c8.55181 12.27339 25.02702 41.61625 18.83661 66.33328-20.82093 13.84609-101.99157 3.49714-152.38945.38057.55367-47.38146 14.06718-68.43778 14.06718-68.43778 29.7895 36.10978 97.29058 8.67991 119.48566 1.72393z" id="path3581-6-5-2-7"/><path id="path3401-28" class="shadow" d="m329.89485 425.68072c-15.4791 1.19068-42.03653 26.26041-44.60913 30.99635 10.29989-9.14088 29.75951-26.28541 44.60913-30.99635z"/><path id="path3406-1" class="shadow" d="m262.15276 457.52901c-6.81704-9.41592-28.83006-31.99347-34.93819-34.15183 5.05404 5.44075 26.5203 25.35081 34.93819 34.15183z"/></svg>