<svg viewBox="0 0 560 1e3"><path id="path7958" d="m272.03349 513.05568c71.60515 13.7616 113.26891-2.88012 113.26891-2.88012-8.16315-19.78776-158.81415-97.84947-161.47798-96.8691-25.61633 44.74828-23.43003 93.90212-22.90108 94.17013 14.75878 7.47808 63.44783 9.0584 70.50026 5.88983.89029-.39999.39671-.14214.60989-.31074z" style="baseline-shift:baseline;clip-rule:nonzero;color-interpolation-filters:linearRGB;color-interpolation:sRGB;color-rendering:auto;color:#000;direction:ltr;display:inline;enable-background:accumulate;fill-opacity:1;fill-rule:evenodd;fill:#000;image-rendering:auto;isolation:auto;mix-blend-mode:normal;opacity:1;overflow:visible;shape-rendering:auto;solid-color:#000000;solid-opacity:1;stroke-dasharray:none;stroke-dashoffset:0;stroke-linecap:butt;stroke-linejoin:miter;stroke-miterlimit:4;stroke-opacity:1;stroke-width:1.77084005;stroke:none;visibility:visible;white-space:normal;writing-mode:lr-tb"/><path id="path7960" d="m385.23036 510.12314c.10439-8.41124-.0982-14.50729-.0982-14.50729 7.47956-47.16254-27.74916-82.1131-29.0722-85.16633-13.38607 6.4024-79.21854 28.14253-84.33144 23.15495.50667 3.8765-.49115 46.0338 1.82649 79.70422 81.59265 7.97427 103.75951-1.51454 111.67535-3.18555z" style="baseline-shift:baseline;clip-rule:nonzero;color-interpolation-filters:linearRGB;color-interpolation:sRGB;color-rendering:auto;color:#000;direction:ltr;display:inline;enable-background:accumulate;fill-opacity:1;fill-rule:evenodd;fill:#5d536c;image-rendering:auto;isolation:auto;mix-blend-mode:normal;opacity:1;overflow:visible;shape-rendering:auto;solid-color:#000000;solid-opacity:1;stroke-dasharray:none;stroke-dashoffset:0;stroke-linecap:butt;stroke-linejoin:miter;stroke-miterlimit:4;stroke-opacity:1;stroke-width:1.67334545;stroke:none;visibility:visible;white-space:normal;writing-mode:lr-tb"/><path id="path7962" d="m272.7568 513.24143c-3.90901-31.70512 7.13896-60.20133 5.50983-70.14005-23.71289-13.25991-51.26995-30.10267-54.41236-29.725-13.25203 22.70555-21.57176 50.19984-22.77509 81.79525-.1538 4.03819-.20415 8.16097-.15078 12.37116 6.17374 1.0494 47.98817 7.95442 71.8284 5.69864z" style="baseline-shift:baseline;clip-rule:nonzero;color-interpolation-filters:linearRGB;color-interpolation:sRGB;color-rendering:auto;color:#000;direction:ltr;display:inline;enable-background:accumulate;fill-opacity:1;fill-rule:evenodd;fill:#5d536c;image-rendering:auto;isolation:auto;mix-blend-mode:normal;opacity:1;overflow:visible;shape-rendering:auto;solid-color:#000000;solid-opacity:1;stroke-dasharray:none;stroke-dashoffset:0;stroke-linecap:butt;stroke-linejoin:miter;stroke-miterlimit:4;stroke-opacity:1;stroke-width:1.67334545;stroke:none;visibility:visible;white-space:normal;writing-mode:lr-tb"/><path id="path7964" class="shadow" d="M293.87737 651.87575C283.68075 613.2828 264.75873 518.26264 273.49983 475.7992c-3.08656 73.49978 15.0387 144.29089 20.37754 176.07655z"/><path id="path7966" class="shadow" d="m329.46037 425.76321c-15.4791 1.19068-42.03653 26.26041-44.60913 30.99635 10.29989-9.14088 29.75951-26.28541 44.60913-30.99635z"/><path id="path7968" class="shadow" d="m261.71828 457.6115c-6.81704-9.41592-28.83006-31.99347-34.93819-34.15183 5.05404 5.44075 26.5203 25.35081 34.93819 34.15183z"/></svg>