<svg viewBox="0 0 560 1e3"><path id="path4766" class="hair" d="m303.0256 97.387299c-7.47663-7.16362-12.12612-15.051645-15.79015-29.343513-.13355-.520941-1.65301-3.412422-1.68119-3.921826-.0269-.485498 1.43264 1.410432 1.50537.940055.39163-2.532576 2.25425-4.813156 5.8831-6.488246.80989-.373848 5.45776-3.905038 6.44689-4.214638.92391-.289187-1.82256 2.638867-.73673 2.412366 3.98742-.831765 9.08464-1.219263 15.42411-1.003904 2.87928.877861 5.32866 1.746189 7.41343 2.603726.74201.305214 6.25033.609061 6.9029.911484.59559.276017-3.65734.550848-3.13156.82445 4.57682 2.381636 6.59359 4.670155 7.5261 6.837127.40524.941697 2.81542 5.484362 2.93226 6.377818.12365.945559-2.0561-1.761127-1.97626-.874978.62473 6.933816-26.84528 27.92528-30.71827 24.940079z"/><path id="path4766-1" d="m297.93084 80.605534c1.69321-2.004142 35.81152-22.97093 39.45079-21.820383.011.306149 2.85017 3.92032 2.47804 3.994839-6.58577 1.318738-40.01169 17.068024-41.92883 17.825544z" style="fill:#28170b"/><path id="path4766-1-0" d="m323.92671 85.017572c-2.61565.204693-40.55162-23.245173-42.29173-26.642239.20999-.223049 2.86387-3.358775 3.17847-3.146495 5.56763 3.756713 37.22678 28.957801 39.11326 29.788734z" style="fill:#28170b"/></svg>