<svg viewBox="0 0 560 1e3"><path id="path7381" style="display:inline;fill:#000;stroke-width:.176659" d="M277.20397 167.33213C277.74513 166.91603 278.75206 165.91495 282.60512 165.16026 282.11032 159.00873 280.24518 160.475 277.20022 157.44626 274.963 155.22096 274.07642 154.65506 274.30855 152.56812 274.69832 149.78831 275.4063 146.84008 276.42189 145.16968 274.33442 152.23259 274.34695 151.85886 276.98514 151.60515 278.29827 151.48366 284.69565 150.75289 286.70446 152.83128 287.70106 155.05549 286.6204 155.20823 284.08466 157.59735 281.06086 160.44632 282.54865 159.48915 284.26332 165.17733 288.25866 165.58183 290.99641 167.38184 293.42336 168.15627 295.01472 168.66407 294.6889 168.956 296.91528 168.87882 298.44885 168.82566 300.88436 166.54197 305.89448 163.82775 307.30434 163.99451 307.401 165.09882 307.60031 165.48912 305.31405 164.27474 304.70609 164.99407 300.38935 167.54856 299.04015 168.34697 297.9283 169.03451 296.52993 169.60992 296.03755 170.62726 295.13505 172.82615 294.68458 173.7997 294.03342 171.40374 293.88026 170.64632 293.42617 169.14685 290.74629 167.41228 286.50765 167.05698 283.7171 166.90378 280.98126 166.75358 280.08714 166.5584 277.48985 168.05424 277.10087 169.69448 276.98857 170.3647 276.51147 172.16082 275.57133 170.44101 274.93399 169.11596 274.43629 168.13229 273.91917 167.54893 272.39714 165.93243 269.34219 165.13612 272.77842 164.89327 273.66238 167.82009 276.01236 167.75301 276.55973 167.73738 276.66281 167.74823 277.20397 167.33213z"/><path d="M296.24416 169.66038C295.24002 169.82806 294.65336 169.73909 293.78609 169.38111 294.16858 171.0046 294.4639 172.24862 294.72378 173.42787 295.1116 172.42474 295.68135 170.94141 296.24416 169.66038z" id="path4059-2-1-0-5-2" class="white"/><path d="M277.19577 168.14468C276.27678 168.37519 275.65051 168.42549 274.7598 168.27421 275.43949 169.77996 275.86951 170.80679 276.47915 171.96584 276.72713 170.76306 276.92748 169.50573 277.19577 168.14468z" id="path4059-2-1-0-5-2-3" class="white"/></svg>