<svg viewBox="0 0 560 1e3"><defs id="defs4360"><linearGradient id="linearGradient1767" osb:paint="solid"><stop style="stop-color:#969696;stop-opacity:1" offset="0" id="stop1765"/></linearGradient><filter style="color-interpolation-filters:sRGB" id="Filter_Shine_Blur" width="4" x="-2" height="4" y="-2"><feGaussianBlur stdDeviation="1.5 1.5" result="blur" id="feGaussianBlur4091-3"/></filter><pattern y="0" x="0" height="6" width="6" patternUnits="userSpaceOnUse" id="EMFhbasepattern"/><filter y="-2" height="4" x="-2" width="4" id="Filter_Shine_Blur-1" style="color-interpolation-filters:sRGB"><feGaussianBlur id="feGaussianBlur4091-3-4" result="blur" stdDeviation="1.5 1.5"/></filter><filter y="-2" height="4" x="-2" width="4" id="Filter_Shine_Blur-5" style="color-interpolation-filters:sRGB"><feGaussianBlur id="feGaussianBlur4091-3-9" result="blur" stdDeviation="1.5 1.5"/></filter><filter y="-2" height="4" x="-2" width="4" id="Filter_Shine_Blur-51" style="color-interpolation-filters:sRGB"><feGaussianBlur id="feGaussianBlur4091-3-91" result="blur" stdDeviation="1.5 1.5"/></filter><filter y="-2" height="4" x="-2" width="4" id="Filter_Shine_Blur-9" style="color-interpolation-filters:sRGB"><feGaussianBlur id="feGaussianBlur4091-3-90" result="blur" stdDeviation="1.5 1.5"/></filter><filter style="color-interpolation-filters:sRGB" id="Filter_Shine_Blur-11" width="4" x="-2" height="4" y="-2"><feGaussianBlur stdDeviation="1.5 1.5" result="blur" id="feGaussianBlur4091-3-40"/></filter><filter style="color-interpolation-filters:sRGB" id="filter2732" width="4" x="-2" height="4" y="-2"><feGaussianBlur stdDeviation="1.5 1.5" result="blur" id="feGaussianBlur2730"/></filter><filter style="color-interpolation-filters:sRGB" id="Filter_Shine_Blur-7" width="4" x="-2" height="4" y="-2"><feGaussianBlur stdDeviation="1.5 1.5" result="blur" id="feGaussianBlur4091-3-904"/></filter><filter style="color-interpolation-filters:sRGB" id="filter2766" width="4" x="-2" height="4" y="-2"><feGaussianBlur stdDeviation="1.5 1.5" result="blur" id="feGaussianBlur2764"/></filter><filter style="color-interpolation-filters:sRGB" id="Filter_Shine_Blur-3" width="4" x="-2" height="4" y="-2"><feGaussianBlur stdDeviation="1.5 1.5" result="blur" id="feGaussianBlur4091-3-5"/></filter><filter style="color-interpolation-filters:sRGB" id="filter2800" width="4" x="-2" height="4" y="-2"><feGaussianBlur stdDeviation="1.5 1.5" result="blur" id="feGaussianBlur2798"/></filter><filter style="color-interpolation-filters:sRGB" id="Filter_Shine_Blur-92" width="4" x="-2" height="4" y="-2"><feGaussianBlur stdDeviation="1.5 1.5" result="blur" id="feGaussianBlur4091-3-915"/></filter><filter style="color-interpolation-filters:sRGB" id="Filter_Shine_Blur-93" width="4" x="-2" height="4" y="-2"><feGaussianBlur stdDeviation="1.5 1.5" result="blur" id="feGaussianBlur4091-3-46"/></filter><filter style="color-interpolation-filters:sRGB" id="Filter_Shine_Blur-16" width="4" x="-2" height="4" y="-2"><feGaussianBlur stdDeviation="1.5 1.5" result="blur" id="feGaussianBlur4091-3-6"/></filter><filter style="color-interpolation-filters:sRGB" id="Filter_Shine_Blur-96" width="4" x="-2" height="4" y="-2"><feGaussianBlur stdDeviation="1.5 1.5" result="blur" id="feGaussianBlur4091-3-43"/></filter><filter style="color-interpolation-filters:sRGB" id="Filter_Shine_Blur-36" width="4" x="-2" height="4" y="-2"><feGaussianBlur stdDeviation="1.5 1.5" result="blur" id="feGaussianBlur4091-3-65"/></filter><filter style="color-interpolation-filters:sRGB" id="Filter_Shine_Blur-36-5" width="4" x="-2" height="4" y="-2"><feGaussianBlur stdDeviation="1.5 1.5" result="blur" id="feGaussianBlur4091-3-65-8"/></filter><filter style="color-interpolation-filters:sRGB" id="Filter_Shine_Blur-36-5-9" width="4" x="-2" height="4" y="-2"><feGaussianBlur stdDeviation="1.5 1.5" result="blur" id="feGaussianBlur4091-3-65-8-4"/></filter><filter style="color-interpolation-filters:sRGB" id="Filter_Shine_Blur-16-5" width="4" x="-2" height="4" y="-2"><feGaussianBlur stdDeviation="1.5 1.5" result="blur" id="feGaussianBlur4091-3-6-1"/></filter><filter style="color-interpolation-filters:sRGB" id="Filter_Shine_Blur-16-5-5" width="4" x="-2" height="4" y="-2"><feGaussianBlur stdDeviation="1.5 1.5" result="blur" id="feGaussianBlur4091-3-6-1-9"/></filter><filter style="color-interpolation-filters:sRGB" id="Filter_Shine_Blur-16-5-5-3" width="4" x="-2" height="4" y="-2"><feGaussianBlur stdDeviation="1.5 1.5" result="blur" id="feGaussianBlur4091-3-6-1-9-3"/></filter><filter style="color-interpolation-filters:sRGB" id="Filter_Shine_Blur-77" width="4" x="-2" height="4" y="-2"><feGaussianBlur stdDeviation="1.5 1.5" result="blur" id="feGaussianBlur4091-3-94"/></filter><filter style="color-interpolation-filters:sRGB" id="Filter_Shine_Blur-77-8" width="4" x="-2" height="4" y="-2"><feGaussianBlur stdDeviation="1.5 1.5" result="blur" id="feGaussianBlur4091-3-94-4"/></filter><filter style="color-interpolation-filters:sRGB" id="Filter_Shine_Blur-77-8-3" width="4" x="-2" height="4" y="-2"><feGaussianBlur stdDeviation="1.5 1.5" result="blur" id="feGaussianBlur4091-3-94-4-8"/></filter><filter style="color-interpolation-filters:sRGB" id="Filter_Shine_Blur-6" width="4" x="-2" height="4" y="-2"><feGaussianBlur stdDeviation="1.5 1.5" result="blur" id="feGaussianBlur4091-3-654"/></filter><filter style="color-interpolation-filters:sRGB" id="filter11049" width="4" x="-2" height="4" y="-2"><feGaussianBlur stdDeviation="1.5 1.5" result="blur" id="feGaussianBlur11047"/></filter><filter style="color-interpolation-filters:sRGB" id="filter8615" x="-.55083606" width="2.1016721" y="-.071901849" height="1.1438037"><feGaussianBlur stdDeviation="4.4237657" id="feGaussianBlur8617"/></filter><filter style="color-interpolation-filters:sRGB" id="Filter_Shine_Blur-6-0" width="4" x="-2" height="4" y="-2"><feGaussianBlur stdDeviation="1.5 1.5" result="blur" id="feGaussianBlur4091-3-654-3"/></filter><filter style="color-interpolation-filters:sRGB" id="Filter_Shine_Blur-6-8" width="4" x="-2" height="4" y="-2"><feGaussianBlur stdDeviation="1.5 1.5" result="blur" id="feGaussianBlur4091-3-654-1"/></filter><filter style="color-interpolation-filters:sRGB" id="filter8615-7-0" x="-.55083609" width="2.1016722" y="-.07190185" height="1.1438037"><feGaussianBlur stdDeviation="4.4237657" id="feGaussianBlur8617-9-5"/></filter><filter style="color-interpolation-filters:sRGB" id="filter8615-78" x="-.55083609" width="2.1016722" y="-.07190185" height="1.1438037"><feGaussianBlur stdDeviation="4.4237657" id="feGaussianBlur8617-0"/></filter><filter style="color-interpolation-filters:sRGB" id="Filter_Shine_Blur-6-3" width="4" x="-2" height="4" y="-2"><feGaussianBlur stdDeviation="1.5 1.5" result="blur" id="feGaussianBlur4091-3-654-5"/></filter><filter style="color-interpolation-filters:sRGB" id="filter8615-4" x="-.55083609" width="2.1016722" y="-.07190185" height="1.1438037"><feGaussianBlur stdDeviation="4.4237657" id="feGaussianBlur8617-2"/></filter><filter style="color-interpolation-filters:sRGB" id="Filter_Shine_Blur-6-1" width="4" x="-2" height="4" y="-2"><feGaussianBlur stdDeviation="1.5 1.5" result="blur" id="feGaussianBlur4091-3-654-4"/></filter><filter style="color-interpolation-filters:sRGB" id="filter8615-9" x="-.55083609" width="2.1016722" y="-.07190185" height="1.1438037"><feGaussianBlur stdDeviation="4.4237657" id="feGaussianBlur8617-8"/></filter><filter style="color-interpolation-filters:sRGB" id="filter8615-7-0-1" x="-.55083609" width="2.1016722" y="-.07190185" height="1.1438037"><feGaussianBlur stdDeviation="4.4237657" id="feGaussianBlur8617-9-5-6"/></filter><filter style="color-interpolation-filters:sRGB" id="filter8615-7-0-15" x="-.55083609" width="2.1016722" y="-.07190185" height="1.1438037"><feGaussianBlur stdDeviation="4.4237657" id="feGaussianBlur8617-9-5-3"/></filter><filter style="color-interpolation-filters:sRGB" id="filter8615-7-0-15-1" x="-.55083609" width="2.1016722" y="-.07190185" height="1.1438037"><feGaussianBlur stdDeviation="4.4237657" id="feGaussianBlur8617-9-5-3-9"/></filter></defs><path id="path3743" d="m362.10234 431.42577c-2.68621-6.082-11.77109-19.93812-12.39996-21.91039-.0813-.25494-.70857-2.49571-.70857-2.49571-22.65767 4.89275-39.56413 7.60141-60.05248 8.19626-24.22046.7032-47.2185-2.20107-60.45696-7.53731-5.5981 5.56108-18.87163 36.57662-21.27226 58.12312 19.61148-24.97883 123.36617-8.28059 154.89023-34.37597z" style="display:inline;fill-opacity:1;fill:#000;stroke-dasharray:none;stroke-linecap:butt;stroke-linejoin:miter;stroke-miterlimit:4;stroke-opacity:1;stroke-width:0;stroke:#000"/><path d="m283.66521 456.38067c-1.54841.73859-1.78928 15.78672-9.24659 11.14886-5.5459 3.1603-10.12915-4.94173-10.42429-8.4126-.25114-2.95343 3.37748-7.20053 3.87403-6.51846 2.14579-.003 16.30971 2.85987 15.79685 3.7822z" class="shadow" id="path3745"/><path style="display:inline;fill-opacity:1;fill:#1a1a1a;stroke-dasharray:none;stroke-linecap:butt;stroke-linejoin:miter;stroke-miterlimit:4;stroke-opacity:1;stroke-width:0;stroke:#000" d="m207.10549 465.88581c9.85266-3.69513 47.75609-4.69135 61.04473.95461 1.97544 1.15064 3.44304 1.50895 6.29117.74829 1.48394 1.11892 3.67809 1.01117 5.52348-.15189 69.74911-5.15378 94.03906 5.30522 94.58539 4.75032.41173-29.71194-17.83367-55.5064-24.48299-62.71325-.0813-.25494-1.22374-2.21355-1.22374-2.21355-45.10201 11.9464-93.79805 12.4646-120.26832.58222-.12493-.0561-12.69549 18.40009-21.46972 58.04325z" id="path3747"/><path d="m274.36595 467.58332c-3.81452 2.31718-9.64064-2.27902-10.8644-11.68664 5.95334-21.67633 25.49385-8.31185 20.23612.35499-2.87984 4.74713-3.52005 14.37508-9.37172 11.33165z" class="skin torso" id="path3749"/><path style="baseline-shift:baseline;clip-rule:nonzero;color-interpolation-filters:linearRGB;color-interpolation:sRGB;color-rendering:auto;color:#000;direction:ltr;display:inline;enable-background:accumulate;fill-opacity:1;fill-rule:evenodd;fill:#000;image-rendering:auto;isolation:auto;mix-blend-mode:normal;opacity:1;overflow:visible;shape-rendering:auto;solid-color:#000000;solid-opacity:1;stroke-dasharray:none;stroke-dashoffset:0;stroke-linecap:butt;stroke-linejoin:miter;stroke-miterlimit:4;stroke-opacity:1;stroke-width:1.77035642;stroke:none;visibility:visible;white-space:normal;writing-mode:lr-tb" d="m338.3575 841.60277c2.22085-6.48168 2.39389-23.88738 5.18311-48.98913 3.235-29.11351 9.23009-70.7682 2.09774-111.0184-.32901-1.85668 22.6896-56.35454 27.99583-141.08686.35433-5.658-18.12347-2.134-18.31236-5.79542-18.35816 5.1524-64.27852 5.74594-77.62644 2.38332.93627 6.39984-3.79386 11.29263-2.65491 17.47692 2.35463 12.78537 6.22047 23.42494 8.22336 32.62077.0425.19537.0873.38952.1244.58402.95096 4.98748 1.64899 6.14898 3.08327 11.76174 3.46039 22.89029 6.66659 62.54823 13.93951 82.67348-16.39841 61.82149 11.90417 102.8333 17.82968 159.67186 7.04026-3.30483 17.42986-1.02304 20.11681-.28234z" id="path3751"/><path style="baseline-shift:baseline;clip-rule:nonzero;color-interpolation-filters:linearRGB;color-interpolation:sRGB;color-rendering:auto;color:#000;direction:ltr;display:inline;enable-background:accumulate;fill-opacity:1;fill-rule:evenodd;fill:#000;image-rendering:auto;isolation:auto;mix-blend-mode:normal;opacity:1;overflow:visible;shape-rendering:auto;solid-color:#000000;solid-opacity:1;stroke-dasharray:none;stroke-dashoffset:0;stroke-linecap:butt;stroke-linejoin:miter;stroke-miterlimit:4;stroke-opacity:1;stroke-width:1.77084005;stroke:none;visibility:visible;white-space:normal;writing-mode:lr-tb" d="m269.12825 838.81815c8.26092-53.67065 35.89713-97.22256 17.67934-149.57447-.0514-.143-.25491-.97982.0502-2.30784 13.24736-57.66414 5.80252-66.13748 4.99303-92.28682-.0185-.59897 1.54741-2.89277 1.49723-3.45798-.12842-1.44489-.40044-2.84549-.59652-4.05342-1.78565-11.00008-11.04331-29.37927-14.86188-50.18047-26.36653 9.36509-55.85848-111.71586-58.75273-110.65069-34.17854 60.1136-14.78106 145.79025 15.73307 237.55982 1.5035 4.52171 2.0997 14.18196 2.01111 15.64706 2.20237 5.96005 10.23379 109.04929 15.4213 159.52021 6.31619-2.58038 13.21836-1.10332 16.82587-.21541z" id="path3753"/><path style="baseline-shift:baseline;clip-rule:nonzero;color-interpolation-filters:linearRGB;color-interpolation:sRGB;color-rendering:auto;color:#000;direction:ltr;display:inline;enable-background:accumulate;fill-opacity:1;fill-rule:evenodd;fill:#1a1a1a;image-rendering:auto;isolation:auto;mix-blend-mode:normal;opacity:1;overflow:visible;shape-rendering:auto;solid-color:#000000;solid-opacity:1;stroke-dasharray:none;stroke-dashoffset:0;stroke-linecap:butt;stroke-linejoin:miter;stroke-miterlimit:4;stroke-opacity:1;stroke-width:1.67334545;stroke:none;visibility:visible;white-space:normal;writing-mode:lr-tb" d="m338.27734 841.54046c.58817-5.10668.96862-22.66511 3.46053-47.76686 2.89017-29.11351 8.80445-64.26817 3.32592-112.0184-.0815-.71031 16.09907-49.68011 20.73147-86.25098 1.9539-15.42524 6.38014-40.23177 8.72362-60.6489 2.0829-18.14687 1.61328-39.73947 1.61328-39.73947 7.47956-47.16254-22.74916-81.6131-24.0722-84.66633-13.38607 6.4024-75.21854 28.14253-80.33144 23.15495.83647 6.39984 7.79328 115.94444 8.81082 122.12873 2.10365 12.78537 5.55742 23.42494 7.34682 32.62077.038.19537.078.38952.11114.58402.84959 4.98748-1.77678 14.81104-.49538 20.4238 4.18309 18.32272 4.22166 31.77212 4.88764 33.71176 3.17345 9.24249 3.9377 18.62671 5.53492 25.57382 2.0222 8.79562 4.43747 14.06151 4.35859 14.35084-17.40038 63.82152 12.76653 95.36103 15.82691 158.94959 6.37574-2.12547 20.29311-.15761 20.1674-.40734z" id="path3755"/><path style="display:inline;fill-opacity:1;fill:#8aa7ff;stroke-dasharray:none;stroke-linecap:butt;stroke-linejoin:miter;stroke-miterlimit:4;stroke-opacity:1;stroke-width:0;stroke:#000" d="m226.43714 411.39001c35.65478 14.81043 108.78953 7.12999 124.04699-1.19349-.98086-2.37283-1.00632-2.28871-1.45689-3.1686-58.31295 15.78964-104.54469 8.55584-120.51489.71465-.32556.70561-.85233.93932-2.07521 3.64744z" id="path3757"/><path style="baseline-shift:baseline;clip-rule:nonzero;color-interpolation-filters:linearRGB;color-interpolation:sRGB;color-rendering:auto;color:#000;direction:ltr;display:inline;enable-background:accumulate;fill-opacity:1;fill-rule:evenodd;fill:#1a1a1a;image-rendering:auto;isolation:auto;mix-blend-mode:normal;opacity:1;overflow:visible;shape-rendering:auto;solid-color:#000000;solid-opacity:1;stroke-dasharray:none;stroke-dashoffset:0;stroke-linecap:butt;stroke-linejoin:miter;stroke-miterlimit:4;stroke-opacity:1;stroke-width:1.67334545;stroke:none;visibility:visible;white-space:normal;writing-mode:lr-tb" d="m268.79874 838.80762c6.98401-53.72713 33.26903-94.95686 16.84191-148.77898-.29801-.92779 6.2079-26.66238 7.25648-54.26832.5244-13.80574-3.78437-30.23546-4.05293-39.95134-.0166-.59897 1.38171-2.89277 1.33691-3.45798-.11467-1.44489-.35756-2.84549-.53265-4.05342-1.59444-11.00008-15.39677-127.57698-18.80645-148.37818-23.71289-13.25991-43.84533-26.92069-46.98774-26.54302-10.00203 23.20555-18.57177 49.44984-19.77509 81.04525-1.68069 44.12917 8.99185 98.36095 32.38356 166.36197 1.53584 4.46476 1.87486 14.18196 1.79576 15.64706 1.96654 5.96005 10.82872 101.509 14.41943 162.26913 6.91548-1.42636 10.61902-.416 16.12082.10788z" id="path3759"/><path style="display:inline;fill-opacity:1;fill:#8aa7ff;stroke-dasharray:none;stroke-linecap:butt;stroke-linejoin:miter;stroke-miterlimit:4;stroke-opacity:1;stroke-width:0;stroke:#000" d="m275.25299 462.86252c-12.30071-3.84341-9.97725-39.56452-8.12905-43.86741.10337-.24065 6.70466-.007 6.80117-.0386-.14286-.008-.28501-.0153-.42641-.0219-4.0967-.18979-7.561.22503-9.12434-.44654-1.55247 9.38892-6.14341 45.13839 10.87863 44.37445z" id="path3761"/><path style="display:inline;fill-opacity:1;fill:#333;stroke-dasharray:none;stroke-linecap:butt;stroke-linejoin:miter;stroke-miterlimit:4;stroke-opacity:1;stroke-width:0;stroke:#000" d="m356.28203 444.8129c-31.56327-6.76001-36.1698-23.53296-36.97785-28.4296-1.02422-.29348-2.03709.77235-2.39603.55362-.0837 1.32642 8.867 25.77488 39.37388 27.87598z" id="path3763"/><path style="display:inline;fill-opacity:1;fill:#333;stroke-dasharray:none;stroke-linecap:butt;stroke-linejoin:miter;stroke-miterlimit:4;stroke-opacity:1;stroke-width:0;stroke:#000" d="m222.23265 435.35375c9.31024-1.01499 16.8449-15.62419 16.03685-20.52083-1.02422-.29348-.41393-.14186-.77287-.36059-.0837 1.32642-2.08336 14.40532-15.26398 20.88142z" id="path3765"/><path id="path3767" class="shadow" d="m329.90785 425.6821c-15.4791 1.19068-42.03653 26.26041-44.60913 30.99635 10.29989-9.14088 29.75951-26.28541 44.60913-30.99635z"/><path id="path3769" class="shadow" d="m262.16576 457.53039c-6.81704-9.41592-28.83006-31.99347-34.93819-34.15183 5.05404 5.44075 26.5203 25.35081 34.93819 34.15183z"/><path d="m262.98857 459.03749c4.57815 9.39542 7.95428 8.94718 11.45233 8.01034.29456-.0789 5.02218 4.77996 9.26343-8.71666-1.38475 8.70911-4.94655 11.61521-9.3291 9.47151-.0226-.0111-2.82256 1.04466-4.71233.003-2.95847-1.63089-6.486-5.556-6.67433-8.7681z" class="shadow" id="path3771"/><path d="M298.25237 673.37575C288.05575 634.7828 274.30467 520.03041 273.49983 475.7992c3.81661 43.09419 19.4137 165.79089 24.75254 197.57655z" class="shadow" id="path3773"/><path style="display:inline;fill-opacity:1;fill:#333;stroke-dasharray:none;stroke-linecap:butt;stroke-linejoin:miter;stroke-miterlimit:4;stroke-opacity:1;stroke-width:0;stroke:#000" d="m252.38214 838.8044c2.0442-1.14318 13.17922.11289 16.47831-.0882.32035-1.87322.33246-2.60124.407-3.0857-5.10547-1.89222-15.8183-1.48324-17.05143-.80312-.005.40677.21717 1.98204.16612 3.97694z" id="path3775"/><path style="display:inline;fill-opacity:1;fill:#333;stroke-dasharray:none;stroke-linecap:butt;stroke-linejoin:miter;stroke-miterlimit:4;stroke-opacity:1;stroke-width:0;stroke:#000" d="m338.55822 843.45175c-2.44297-1.71872-16.15649-1.02994-20.18841-1.59582-.29084-2.5447-.26615-3.52362-.33118-4.18101 6.35923-2.08377 19.46496-.574 20.93914.45004-.0161.54679-.37375 2.6427-.41955 5.32668z" id="path3777"/><path style="baseline-shift:baseline;clip-rule:nonzero;color-interpolation-filters:linearRGB;color-interpolation:sRGB;color-rendering:auto;color:#000;direction:ltr;display:inline;enable-background:accumulate;fill-opacity:1;fill-rule:evenodd;fill:#fff;filter:url(#filter8615-4);image-rendering:auto;isolation:auto;mix-blend-mode:normal;opacity:1;overflow:visible;shape-rendering:auto;solid-color:#000000;solid-opacity:1;stroke-dasharray:none;stroke-dashoffset:0;stroke-linecap:butt;stroke-linejoin:miter;stroke-miterlimit:4;stroke-opacity:1;stroke-width:3;stroke:none;visibility:visible;white-space:normal;writing-mode:lr-tb" d="m279.93067 691.78516c10.75918 48.71017-13.21217 94.37122-14.97363 147.66015 4.70837-52.30259 28.97652-98.35635 14.97363-147.66015z" id="path4070-7-1"/><path style="baseline-shift:baseline;clip-rule:nonzero;color-interpolation-filters:linearRGB;color-interpolation:sRGB;color-rendering:auto;color:#000;direction:ltr;display:inline;enable-background:accumulate;fill-opacity:1;fill-rule:evenodd;fill:#fff;filter:url(#filter8615-7-0-15);image-rendering:auto;isolation:auto;mix-blend-mode:normal;opacity:1;overflow:visible;shape-rendering:auto;solid-color:#000000;solid-opacity:1;stroke-dasharray:none;stroke-dashoffset:0;stroke-linecap:butt;stroke-linejoin:miter;stroke-miterlimit:4;stroke-opacity:1;stroke-width:3;stroke:none;visibility:visible;white-space:normal;writing-mode:lr-tb" d="m353.52278 518.82677c10.75918 48.71017-13.21217 94.37122-14.97363 147.66015 4.70837-52.30259 28.97652-98.35635 14.97363-147.66015z" id="path4070-7-6-2-4" transform="matrix(0.96774209,-0.02818318,0.02514041,1.0848692,-0.66787038,-37.985304)"/></svg>