<svg viewBox="0 0 560 1e3"><path style="display:inline;fill-opacity:1;fill:#725d49" d="m329.4487 205.93807c11.11065 51.50954 38.2267 65.60494 40.08928 68.21166-27.11064 7.4526-134.01971 5.51321-132.30339-1.33562 12.0188-47.95979 35.50831-64.73065 37.90155-66.15993 15.05839-8.33707 13.3784-12.94965 13.79285-22.78164 3.29208.8153 19.29858-11.89223 25.62276-10.94898.81111 21.85295 3.07174 29.46278 14.89695 33.01451z" id="path4683-7"/><path style="display:inline;fill-opacity:1;fill:#000;stroke-width:1.02959216" d="m369.65971 274.22752s-.61394 3.30034-.90704 3.52426c-79.7119 13.05338-131.75967.83902-131.6257-1.41382l.22027-3.70397c1.42462 1.3586 43.8768 1.59353 132.31243 1.59353z" id="path4694-1-5"/><path style="display:inline;fill-opacity:1;fill:#725d49" d="m369.65971 273.88901s-.48894 3.23835-.78204 3.44959c-79.7119 12.3138-131.88467.66471-131.7507-1.4605l.22027-3.49411c21.95595-16.09395 126.1907 1.50502 132.31243 1.50502z" id="path4694-0"/><path style="display:inline;fill-opacity:1;fill-rule:evenodd;fill:#725d49;opacity:1;stroke-dasharray:none;stroke-linecap:butt;stroke-linejoin:miter;stroke-miterlimit:4;stroke-opacity:1;stroke-width:0;stroke:#000" d="m362.42635 412.09357c.17594.29463.49649.61983.3865.65455-14.36492 4.53507-42.49926 8.24115-66.44356 29.35351-6.87798 6.06451-12.7957 15.81041-13.00807 16.4538-1.04023 1.75909-1.92047 7.35117-4.50173 9.70959-.97785.89343-3.70051-.0277-4.03805.0431-.91345.19159-2.09488.29968-2.84109.24274-2.38396-.1819-5.58237-2.71336-7.06862-7.83608-2.94705-2.80283-25.83037-38.42104-39.0602-46.51727.11113-.0316.41697-.90137.51991-1.06255.0911-.14259.27922.0866.40697.19488 53.09942 21.08368 42.45638 21.57142 127.99488-.17357 3.19618-.81251 4.711-.84442 7.65306-1.0627z" id="path2360-86-1"/><path style="display:inline;fill-opacity:1;fill:#000" d="m298.2496 505.91418c-16.60261 4.7124-46.21082 1.30232-46.62477-.78649-.82681-4.17215.1295-181.8644 8.91481-227.51481 17.31931-3.59867 35.95172-1.11615 49.6813 2.6291-2.57598 4.26374-2.27958 9.24815-4.11611 15.70764-15.70598 55.24147-7.40372 208.07865-7.85523 209.96456z" id="path4696-8"/><path style="display:inline;fill-opacity:1;fill:#725d49" d="m297.17964 504.34814c-16.60261 4.7124-46.21082 1.30232-46.62477-.78649-.82681-4.17215.1295-181.86441 8.91481-227.51482 17.31931-3.59867 38.4266-1.64648 52.15618 2.09877-24.6058 40.7272-13.94191 224.09611-14.44622 226.20254z" id="path4698-7"/></svg>