<svg viewBox="0 0 560 1e3"><path id="path3695-2-3-4" d="m370.38618 269.63596c.29004 1.01618 2.38034 9.03094.46364 17.75792-.73125 3.32947.86501 8.61824-.13649 13.52127-.33091-.0469-2.02093 56.78522-2.2222 57.04969-.34586.45446-19.29937 14.92297-57.31199 12.78589-.0395-.002-.0853.0139-.11857-.008-23.46376-15.18481-36.76624-85.24462-37.09359-85.25934-.33738-.0152-5.51545 55.82094-25.09162 81.88306-.29361.39089-25.44673-3.708-27.51824-14.82496-.065-.34863 12.32424-59.99816 11.96523-59.91656-1.19314-10.33842-1.10361-21.28793 4.64155-39.64751 1.99575-5.4884 25.02707-31.24995 38.75594-47.36018 6.33801-2.36381 9.26198-5.60042 11.24865-11.57647 1.68017 2.54634 25.48378 1.75976 28.40362.12796 4.6949 7.9179 7.00539 11.20842 20.51801 13.0092.69419 18.83689 16.98492 52.82315 33.49606 62.45803z" style="display:inline;fill-opacity:.39215686;fill-rule:evenodd;fill:#999;opacity:1;stroke-dasharray:none;stroke-linecap:butt;stroke-linejoin:miter;stroke-miterlimit:4;stroke-opacity:1;stroke-width:0;stroke:#000"/><path id="path2316-4-7-9-9-0-8-7" d="m298.11288 438.67647c-.9189.91706-1.47681 2.07297-2.19112 3.04135-5.44325 7.37942-12.7957 15.81041-13.00807 16.4538-1.50143 5.6769-3.68176 12.0596-8.5563 9.64719-5.54543 2.15203-10.08278-5.25961-10.37035-9.34965-1.73072.2056-8.28194-10.43732-16.50914-21.58435 3.98037 1.53438 7.93097 2.82301 19.41937 1.75411 7.12074 2.42851 17.04659 3.83406 31.21561.0376z" style="display:inline;fill-opacity:.39215686;fill-rule:evenodd;fill:#999;opacity:1;stroke-dasharray:none;stroke-linecap:butt;stroke-linejoin:miter;stroke-miterlimit:4;stroke-opacity:1;stroke-width:0;stroke:#000"/></svg>