<svg viewBox="0 0 560 1e3"><path class="eyebrow_hair" id="path2520" d="m315.34619 122.73029c-.11679-.0329-.42414-.0583-.8126-.0804l-.80776-.0461.804.1756c1.14618.25032.83942.30749-.74523.13889-1.89149-.176-3.74817-.46554-5.87828-.6775-6.11576.24181-13.2975 1.37989-15.9777 2.10981-.709.0542-1.53853.13052-1.84341.16967-.67495-.39067-1.26258-.59716-.79073-1.14253.0588-.22385.15308-.45565.23373-.6501.0811-.19541.14829-.35311.15173-.42712l.74352-.11316c1.28388-.53806 10.49247-1.70291 15.95379-1.7067 1.50772-.056 1.94447-.0326 2.79655.14987.55537.1189 1.38732.27049 1.84875.33686.90322.1299.89491.12796 2.98299.69367l1.36581.37003c.0226.014.71038.19286 1.23922.64422-.14197.12151-1.24762.0597-1.26438.055z"/><path class="eyebrow_hair" id="path2530" d="m264.1942 121.66817c.0514-.007 1.33147-.40811 1.41381-.44165 3.47039-.85217 8.07315.15047 9.74787.5958.55179-.0674 2.25013.42879 2.25013.42879.144.1871.40356.54503.3965 1.50404-.1657.19068-.96713.67255-1.63932.40633-.63331-.15789-1.34513-.3611-2.34765-.52373-1.29486-.3992-8.5864-.69497-9.44043-.45848-.0495.0137-.19738-.81463-.2081-.81038.0186-.007-.19779-.69735-.17281-.70072z"/></svg>