<svg viewBox="0 0 560 1e3"><path id="path4860" d="m368.45236 268.83602c1.90346 38.00112-31.10333 76.4584-25.2815 111.6038-36.77086 9.58655-96.59778 12.99867-105.46954-7.23283 2.433-12.49684 1.05648-27.27371 3.07149-42.3437 3.11952-23.33051-3.08737-24.85092-4.11084-38.26328.40962-35.13389 30.30326-40.0847 52.38713-59.43686.97617-2.02088 2.05999-19.89061-11.85024-27.17009-.63873-.33426 10.65157-5.63169 14.14485-9.65903 3.43463 3.0374 17.05714 1.25403 24.04302-1.13928 3.87752 2.93956 11.82068 8.27222 10.60519 9.07117-25.72677 16.91039-30.9022 28.84774-29.45936 29.06832 3.13994 1.52155 66.54554 33.43249 67.65165 34.25705z" style="display:inline;fill-opacity:1;fill-rule:evenodd;fill:#000;opacity:1;stroke-dasharray:none;stroke-linecap:butt;stroke-linejoin:miter;stroke-miterlimit:4;stroke-opacity:1;stroke-width:0;stroke:#000"/><path id="path4862" d="m368.47602 268.56519c-.82283 35.56451-25.28468 68.64115-27.21167 98.12959-.2322 4.28783 1.00045 9.35182 1.70473 13.58328-31.15729 6.94181-92.6775 12.28087-105.27987-7.02988 1.41111-4.24145 4.10254-39.81108 4.69553-44.76049 2.42309-20.22425-2.88507-21.32305-3.7741-33.86041-3.37265-53.10898 13.20074-79.76214 38.32548-88.64617.49229-.51848 10.60675-4.59064 14.45871-8.68048 5.24368 3.00615 14.32369 1.31653 23.71441-1.13928 2.17422 2.65831 20.90638 10.02691 21.43826 11.36927 2.58742.19199 9.57783.93138 12.62329 2.06534 30.8936 12.50306 20.3557 56.2984 19.30523 58.96923z" style="display:inline;fill-opacity:1;fill-rule:evenodd;fill:#500;opacity:1;stroke-dasharray:none;stroke-linecap:butt;stroke-linejoin:miter;stroke-miterlimit:4;stroke-opacity:1;stroke-width:0;stroke:#000"/></svg>