<svg viewBox="0 0 560 1e3"><path id="path9-8" d="m293.8 189c1.8 1 8.4 3.6 18-1.9.3-.2.6.0.7.3l.7 3.5c0 .2-.1.4-.2.5-5.6 3.3-9.7 4.3-13 4.3-5.2.0-7.1-1.8-7.6-2.5-.1-.1-.1-.3-.1-.4l.9-3.4c0-.4.3-.5.6-.4z"/><path transform="translate(-220,-3.8532959e-6)" d="m514.5 198 10.1 1 5.8 22.7-22.5-.8-3.7-5.1z" id="polygon12"/><path id="path14" d="m302.8 204.6-6.8-.6 1.1-11.5 6.8.7zm-5.6-1.8 4.5.4.9-9-4.5-.4z"/><path id="path16" d="m302.3 203.5-7-.7 1-10.7 7 .7zm-5.7-1.7 4.6.4.8-8.3-4.6-.4z" class="steel_chastity"/><path transform="translate(-220,-3.8532959e-6)" style="fill:#bababa" d="m514.4 198 9.6.9 4.1 17.9-23.9-1z" id="polygon18"/><path d="m298.60547 191.26758-.29883 3.40039 2.98828.26367.29883-3.40039z" id="line20"/></svg>