<svg viewBox="0 0 560 1e3"><path style="display:inline;fill-opacity:1;fill-rule:evenodd;fill:#000;opacity:1;stroke-dasharray:none;stroke-linecap:butt;stroke-linejoin:miter;stroke-miterlimit:4;stroke-opacity:1;stroke-width:0;stroke:#000" d="m368.45236 268.83602c.40069 1.40387.82871 12.89967-6.36035 37.77919-12.15896 26.12678-20.07931 40.42492-18.23168 72.34606-30.1743 9.46458-99.23768 14.85361-107.75336-7.03905 2.433-12.49684 2.06627-18.80217 2.23754-34.00531.24452-21.70551-.78407-32.77954-1.68254-45.3169-1.42778-60.22724 49.22582-91.39318 50.18174-91.89098 9.24713 11.38115 25.18214 3.12903 31.26177-2.13928 1.50252 1.12706 9.10193 4.89722 7.88644 5.69617-59.64798 34.7469 1.82837 42.20589 38.19229 63.32537z" id="path3350-6"/><path style="display:inline;fill-opacity:1;fill-rule:evenodd;fill:#fff;opacity:1;stroke-dasharray:none;stroke-linecap:butt;stroke-linejoin:miter;stroke-miterlimit:4;stroke-opacity:1;stroke-width:0;stroke:#000" d="m368.47602 268.56519c-.47811 3.70196-1.71839 20.80284-7.95729 39.14162-13.45974 23.09583-20.94919 49.90274-17.4138 71.15336-31.15729 6.94181-93.87125 12.40419-106.47362-6.90656 3.80579-12.31976 3.83839-53.28333 1.97933-77.32633-3.37265-53.10898 14.43818-62.96835 38.32548-88.64617.49229-.51848 5.43756-2.25669 9.91452-4.65903 9.14993 11.38115 24.91744 3.12903 30.93316-2.13928 1.48672 1.12706 18.23182 7.00546 18.7637 8.34782 1.34998 3.19719 2.37503 6.3614 3.25412 9.48996 2.76556 9.84229 4.08656 19.33169 9.53548 28.38477 7.32565 13.63251 13.69888 21.31242 19.13892 23.15984z" id="path3353-7"/></svg>