<svg viewBox="0 0 560 1e3"><path style="display:inline;fill-opacity:1;fill:#000;stroke-dasharray:none;stroke-linecap:butt;stroke-linejoin:miter;stroke-miterlimit:4;stroke-opacity:1;stroke-width:0;stroke:#000" d="m208.11704 477.71587c.78757-.21845 5.60644-2.02394 7.85873-2.79659.23605-4.57227-.44735-9.58589-.21042-10.71578-1.16514.44919-3.14302.15509-6.71931 2.08512-.0474.21431-1.62856 6.81877-.929 11.42725z" id="path2246-7-1-6"/><path style="display:inline;fill-opacity:1;fill:#8aa7ff;stroke-dasharray:none;stroke-linecap:butt;stroke-linejoin:miter;stroke-miterlimit:4;stroke-opacity:1;stroke-width:0;stroke:#000" d="m208.08928 477.72908c.69918-.5941 5.36337-2.15652 7.61566-2.92917.23605-4.57227.74589-9.21024.98282-10.34013-1.16514.44919-2.98834.15509-6.56463 2.08512-.0474.21431-1.87163 6.53151-2.03385 11.18418z" id="path2246-7-1"/><path style="display:inline;fill-opacity:1;fill:#000;stroke-dasharray:none;stroke-linecap:butt;stroke-linejoin:miter;stroke-miterlimit:4;stroke-opacity:1;stroke-width:0;stroke:#000" d="m208.58669 468.74176c2.76219-2.4133 6.2829-3.61362 7.01445-3.93454 1.28162-11.75969 4.06884-31.59031 6.73201-42.46757-1.7804 1.69167-13.58424 41.74944-13.74646 46.40211z" id="path2246-7-1-4-5"/><path style="display:inline;fill-opacity:1;fill:#517cd3;stroke-dasharray:none;stroke-linecap:butt;stroke-linejoin:miter;stroke-miterlimit:4;stroke-opacity:1;stroke-width:0;stroke:#000" d="m209.5091 468.99804c2.76219-2.4133 6.2829-3.61362 7.01445-3.93454 1.28162-11.75969 3.06884-31.65281 5.73201-42.53007-.8429 2.00417-12.58424 41.81194-12.74646 46.46461z" id="path2246-7-1-4"/></svg>