<svg viewBox="0 0 560 1000"><path id="path48993" d="m 284.60626,485.25025 c -10.64217,6.90218 -24.80264,7.05983 -31.54804,2.73669 -13.28731,-8.51583 -12.25282,-28.99334 -8.95378,-34.64066 1.33836,-2.29093 4.2609,-4.90519 9.4147,-19.88528 3.4364,-9.98832 5.73568,-38.46162 5.59989,-60.77206 -0.0203,-3.31549 -2.66187,-0.078 -3.27626,-3.31949 -0.87093,-4.59493 4.72932,-12.41283 6.50373,-14.75159 6.50577,-8.57493 9.63863,-3.79025 11.08938,-3.6831 3.82075,0.28218 5.08045,9.11315 5.85846,19.86282 0.20555,2.84024 -0.22177,3.79119 -0.37676,6.74371 -0.9008,17.1601 -3.52709,28.0991 -2.11528,56.58893 0.44469,8.97363 4.88635,19.89624 6.66826,22.93596 6.89609,11.764 7.35519,22.30079 1.1357,28.18407 z" style="display:inline;fill:#000000;opacity:1;stroke-width:2.05557752"/><path class="skin scrotum" d="m 255.56147,487.70598 c -14.11295,-6.28553 -14.23929,-29.62881 -8.94267,-35.74361 2.22582,-2.56965 3.76572,-4.85142 8.5878,-18.61462 3.30961,-9.4463 5.33988,-41.10745 5.2246,-62.49449 -0.0171,-3.17827 -3.88267,0.63292 -3.6607,-2.50994 0.31204,-4.41843 3.05176,-9.05962 8.37881,-16.19015 3.17819,-4.25415 9.71866,-4.40064 14.44452,0.12813 2.67847,2.56671 6.33288,7.74634 6.99321,18.05111 0.17448,2.72269 -3.15955,-0.12125 -3.29111,2.70911 -0.76458,16.44984 -2.3313,33.98866 -1.13298,61.29933 0.37746,8.60224 3.05261,14.46698 4.7791,17.25938 6.97238,11.27712 9.60058,28.90561 0.60898,34.57031 -8.99162,5.66466 -25.53315,4.41097 -31.98956,1.53544 z" id="path48995"/></svg>
