<svg viewBox="0 0 560 1e3"><path d="m184.62409 426.91693c.53289-.22251 1.39587.0412 1.89053-.18568 23.54139-10.77559 4.05947-26.2813-1.80654-25.53967-15.83039 5.58086-9.74088 21.3586-4.58309 22.22807.0739.0539.61581 1.38382 4.4991 3.49725z" id="path3922" style="fill:#000;stroke-width:4.55208445"/><path d="m235.05205 463.27774c22.11677 6.19486 44.4035 13.37272 52.04537-5.88195 2.3582-6.6581.84411-11.3691-3.87905-13.09628-19.49831-6.11764-60.99204-24.04016-73.11669-35.50461-1.674-2.57651-1.39236-2.9478-3.09508-4.71604-3.61019-3.74904-8.25122-3.36652-12.04422-3.15782-2.28586.12597-8.18587-.58127-10.02077.15337-1.54131.6171-2.88602 1.49245-3.76292 2.60925-.27237.34713 1.81101-.75849 2.00661-.90666 5.50619-4.17129 27.5036 13.37412 2.98648 23.64951-2.26959.95121-9.22213-6.14747-9.16005-5.90534.39675 1.54973 3.04407 3.98932 5.37377 5.5505 1.39113.93215 2.97378 1.28078 3.53739 2.28138 6.77541 12.02766 21.71353 25.23415 49.12916 34.92444z" id="path3924" style="fill:#000;stroke-width:4.55208445"/><path d="m180.37222 421.70068c8.43815 5.07924 24.42833-1.86086 28.44961-11.54327-1.01262-2.88907-4.48418-8.47494-8.55723-8.34036-11.62456.38388-11.36576-.73052-16.25068.7074-9.77225 4.22811-10.99164 13.10788-5.70496 19.6787.51829.39977 1.19245-.30731 2.06326-.5027z" id="path3926" class="areola"/><path d="m178.43378 416.25301c.11991.88275 1.20206 2.67206 2.37293 2.99453-.005-.0459-.28787-1.56698-.29926-1.61335-.37857-1.5643-2.05451-6.16976.67956-11.33878-2.75049 3.12965-3.24692 6.22841-2.75344 9.9576z" id="path3928" style="fill:#000;stroke-width:4.55208445"/><path d="m236.45856 462.28413c21.90995 6.13704 42.96499 14.587 51.53869-4.43545 2.33622-6.59582 2.19001-10.34776-2.489-12.05891-20.32889-4.89603-63.2308-23.45692-75.242-34.81408-5.65461 7.9825-11.24295 12.36613-23.21623 13.42472-2.01575-.0244-4.15871-.55908-6.31687-1.80822-.4675-.27079-1.22836.24858-1.55488.36215-.37506.25084 8.78451 5.70025 8.59071 6.12363 6.71207 11.91528 21.53034 23.60672 48.68955 33.20634z" class="skin penis" id="path3930"/></svg>