<svg viewBox="0 0 560 1e3"><path id="path11483" d="M283.62832 180.98333c-46.65558-46.15791-30.23281-99.763623 12.44853-104.683108C364.34213 79.735509 313.79608 177.63401 283.62832 180.98333z" style="display:inline;fill-opacity:1;fill-rule:evenodd;fill:#0ff;opacity:1;stroke-dasharray:none;stroke-linecap:butt;stroke-linejoin:miter;stroke-miterlimit:4;stroke-opacity:0;stroke-width:2.46133304;stroke:#000"/><path id="path11477" d="m325.04459 113.82503c-53.39233 5.70633-63.76964 2.57421-69.20511 2.02245-.31537-3.58843-.15449-11.33422 2.55068-18.496741 19.78153-37.136669 81.68175-38.851878 89.86926 14.742011.14445.94108-1.36309 25.53757-1.7069 26.61036-1.56048 4.86912-8.45759 12.98011-11.53693 17.55733-9.16209 13.61882-25.21524 25.68836-49.15944 34.67786-10.00039-2.99046-16.94954-12.32039-21.57286-23.02716-5.38644-12.47405-7.61588-26.81698-7.83548-35.18084 38.0995 6.72815 69.42556-4.25588 68.59678-18.90527z" style="display:inline;fill-opacity:1;fill-rule:evenodd;fill:#333;stroke-dasharray:none;stroke-linecap:butt;stroke-linejoin:miter;stroke-miterlimit:4;stroke-opacity:0;stroke-width:3;stroke:#000"/><path id="path11485-3-4" d="m256.46242 134.0101c.041.006-.1366-.80982-.0958-.80227 41.9373 7.7566 70.06234-5.75597 68.76839-19.27843-.0284-.29705.79445 3.69701-.778 6.65493-7.5557 17.34145-51.23648 17.89861-67.89451 13.42577z" style="display:inline;fill-opacity:1;fill-rule:evenodd;fill:#aca793;opacity:1;stroke-dasharray:none;stroke-linecap:butt;stroke-linejoin:miter;stroke-miterlimit:4;stroke-opacity:0;stroke-width:2.03578973;stroke:#000"/><path id="path11477-6" d="m283.34847 117.03311c-.32487-2.41064-.50699-4.70346-.56424-6.88363-.0265-1.01011-5.46213-.58152-5.39264-.96956.16034-.89528 5.46185-3.78602 5.52894-4.65339.21465-2.77519.64265-5.33849 1.23484-7.704082.25648-1.024571-5.11309-.376871-4.97578-.79809.28544-.875615 6.43362-3.884271 6.76448-4.699012.69561-1.712935 2.62665-5.151803 3.4662-6.612611.69128-1.202823-3.34044-.879755-3.16171-1.259007.59423-1.260954 5.84758-2.417839 6.69756-3.370164 5.81516-6.515338 11.98761-9.172869 11.84545-9.553684-.74735-.21402-6.52968-.09082-8.38208.559863-1.95258.685871-6.6478 2.28487-11.70305 6.146342-.92724.708278-1.07646 4.830773-1.40377 5.064178-.53793.383587-3.31592-.834165-4.25421.24193-1.88888 2.166295-3.7027 4.727908-5.31257 7.757843-.42624.802232 2.38144 4.135031 2.03693 5.025612-.11409.294926-3.92849-1.020767-4.2381-.233942-1.01176 2.571206-1.87988 5.413554-2.55348 8.555864-.18493.86266 4.05105 4.2591 3.95386 5.17549-.0452.42646-4.79844-.39799-4.93305.70953-.28716 2.36247-.47239 4.86882-.54014 7.52786 2.78297.34236 12.86105.29725 15.88656-.0273z" style="display:inline;fill-opacity:1;fill-rule:evenodd;fill:#c8c8c8;opacity:1;stroke-dasharray:none;stroke-linecap:butt;stroke-linejoin:miter;stroke-miterlimit:4;stroke-opacity:0;stroke-width:3;stroke:#000"/><path id="path11485" d="m295.8485 154.47702c13.37024-16.38381 36.41242 2.30339 24.49482 19.14203-14.5988 19.10646-40.15388 1.72278-24.49482-19.14203z" style="display:inline;fill-opacity:1;fill-rule:evenodd;fill:#000;opacity:1;stroke-dasharray:none;stroke-linecap:butt;stroke-linejoin:miter;stroke-miterlimit:4;stroke-opacity:0;stroke-width:3.31731081;stroke:#000"/><path id="path11485-5" d="m268.5885 176.36284c-4.08954 1.99261-5.41031 1.26483-9.36225 2.57842-6.72118-8.26138-10.45796-25.20315-8.07559-28.21609 1.99282-1.01617 6.62668-1.81661 7.95848-2.12501 3.12181 1.77621 10.32996 17.42226 9.47936 27.76268z" style="display:inline;fill-opacity:1;fill-rule:evenodd;fill:#000;opacity:1;stroke-dasharray:none;stroke-linecap:butt;stroke-linejoin:miter;stroke-miterlimit:4;stroke-opacity:0;stroke-width:2.15926933;stroke:#000"/><path id="path11485-3" d="m296.56922 155.26909c12.60792-15.07912 34.33633 2.11997 23.09823 17.61772-13.76644 17.58496-37.86447 1.58559-23.09823-17.61772z" style="display:inline;fill-opacity:1;fill-rule:evenodd;fill:#aca793;opacity:1;stroke-dasharray:none;stroke-linecap:butt;stroke-linejoin:miter;stroke-miterlimit:4;stroke-opacity:0;stroke-width:3.09043097;stroke:#000"/><path id="path11485-5-2" d="m267.81466 175.23919c-3.797 1.83424-5.02328 1.1643-8.69252 2.37349-6.24037-7.60477-9.70983-23.20004-7.49789-25.97351 1.85026-.93541 6.15263-1.67223 7.38916-1.95611 2.89849 1.63504 9.591 16.03756 8.80125 25.55613z" style="display:inline;fill-opacity:1;fill-rule:evenodd;fill:#aca793;opacity:1;stroke-dasharray:none;stroke-linecap:butt;stroke-linejoin:miter;stroke-miterlimit:4;stroke-opacity:0;stroke-width:1.99620998;stroke:#000"/><path id="path11485-3-6-0" d="m352.50556 76.273773c10.39906-26.289405 1.24437 7.111606-9.31448 34.293507-12.05697 30.74677-3.83209-.69181 9.31448-34.293507z" style="display:inline;fill-opacity:1;fill-rule:evenodd;fill:#333;opacity:1;stroke-dasharray:none;stroke-linecap:butt;stroke-linejoin:miter;stroke-miterlimit:4;stroke-opacity:0;stroke-width:1.36785734;stroke:#000"/></svg>