<svg viewBox="0 0 560 1e3"><g data-transform="boob" class="scaler_" id="g6309" transform="matrix(1.1247504,0,0,1.1247504,-26.347241,-34.609528)"><path style="fill-opacity:1;fill:#010101" id="path6295" d="m271.51118 261.14089c.0661-.75567-15.55212-23.85233-20.78384-21.10049-1.52959.80455-3.42058 1.9614-5.76856 3.60973-9.78469 6.69753-21.31453 10.82141-26.74443 14.7899-.54445.39791-.66828 2.70307-.76291 3.35152-.65836 4.51134-1.66809 9.99655-.19947 14.9545.5788 2.79959 1.92116 5.11459 3.04085 7.21138 2.65234 4.96693 6.04765 7.87695 10.86115 8.57219 21.5829 3.2487 35.13223-12.1343 39.18878-20.05393 1.83647 8.16488 6.94853 14.47073 13.3338 17.64542 10.04423 4.99389 23.27331 3.62273 32.00152-1.35019 14.24159-8.46859 19.00686-29.49472.12112-46.95807-1.24033-1.44425-2.4413-2.70187-3.54079-3.8753-.36194-.36533-.83711-.69814-1.41789-.98568-.3692-.18279-.78107-.34728-1.23367-.49021-4.17723-1.31914-18.96078 7.30779-27.63663 14.95545-5.29365 4.66629-9.38919 8.82318-10.45903 9.72378z"/><path style="fill-opacity:1;fill:#333" id="path6297" d="m250.80319 239.92519c-2.11217 1.58135-4.28508 3.11053-5.92735 4.27017-5.84025 4.87392-21.34013 11.09517-25.80979 13.9564-.39537.25308-.72231 2.6909-.84921 3.07294-.70752 5.13443-.92153 9.56442-.30576 13.2861 1.01337 6.12496 3.33372 10.46932 6.44535 13.29915 2.48992 2.26451 5.53985 3.63861 8.78962 4.08772 10.49581 1.51314 19.86794-2.43574 27.29744-8.48888 4.20537-3.4345 7.18267-7.02269 9.92412-11.02226.12718.41876 1.87124 5.64497 5.46994 10.30596 2.123 2.74967 5.09638 5.02083 8.21123 6.75234.11303.0438.22593.0871.33871.12991 34.5912 13.12294 57.55039-22.51578 31.08151-47.52065-1.21885-1.39111-4.20568-5.32709-4.35427-5.6611-.6987-2.75664-9.8826-9.0648-16.06697-9.45676-9.71868-.61597-21.08175-.60121-21.2227-.21343-.22117-.36982-16.14896 7.01755-22.98077 13.1738-.0124.0112-.0411.0188-.0411.0289z"/><path d="m270.33492 269.98618c-.16754 2.01348.47911 3.25262.89408 5.36257-.66799-1.59942-1.31544-3.72955-.89408-5.36257z" class="shadow" id="path6299"/><path style="display:inline;fill-opacity:1;fill-rule:nonzero;fill:#000;opacity:1;stroke-dasharray:none;stroke-linecap:butt;stroke-linejoin:miter;stroke-miterlimit:4;stroke-opacity:1;stroke-width:.26756412;stroke:#000" d="m281.21817 244.81799c-.19553 1.50703.0203 1.16959-.0345 1.17435-.0747.006-8.05425 11.65092-8.78558 13.08876-.003-.15048 1.68496-7.16136 1.68496-7.16136-.15017 1.88677-.38463 3.9469-.25663 3.74289.44295-.70601 2.84066-4.21361 7.39178-10.84464z" id="path6301"/><path style="display:inline;fill-opacity:1;fill-rule:nonzero;fill:#000;opacity:1;stroke-dasharray:none;stroke-linecap:butt;stroke-linejoin:miter;stroke-miterlimit:4;stroke-opacity:1;stroke-width:.25751692;stroke:#000" d="m284.86651 226.61636c-14.39666 31.31028-15.18087 55.11122-15.47223 55.32848.0.0-.35588-.83701-.32356-.8944.11538-.20483 1.88305-27.82699 14.92463-54.45639z" id="path6303"/><path id="path6305" d="m292.01099 238.17123a3.6435515 3.5361554.0 01-3.64356 3.53616 3.6435515 3.5361554.0 01-3.64354-3.53616 3.6435515 3.5361554.0 013.64354-3.53615 3.6435515 3.5361554.0 013.64356 3.53615z" style="display:inline;fill-opacity:1;fill-rule:nonzero;fill:#c8c8c8;opacity:1;stroke-dasharray:none;stroke-linecap:butt;stroke-linejoin:round;stroke-miterlimit:4;stroke-opacity:1;stroke-width:0;stroke:#000"/><path id="path6307" d="m282.54963 267.38184a3.6435515 3.5361554.0 01-3.64353 3.53616 3.6435515 3.5361554.0 01-3.64356-3.53616 3.6435515 3.5361554.0 013.64356-3.53617 3.6435515 3.5361554.0 013.64353 3.53617z" style="display:inline;fill-opacity:1;fill-rule:nonzero;fill:#c8c8c8;opacity:1;stroke-dasharray:none;stroke-linecap:butt;stroke-linejoin:round;stroke-miterlimit:4;stroke-opacity:1;stroke-width:0;stroke:#000"/><path style="display:inline;fill-opacity:1;fill:#000;opacity:1;stroke-dasharray:none;stroke-linecap:butt;stroke-linejoin:miter;stroke-miterlimit:4;stroke-opacity:1;stroke-width:0;stroke:#000" d="m284.75569 232.31916c-.33666-1.97244-.5433-3.77246-.75488-5.8226-2.91027-.07-3.88932-.16428-7.29621-.0568 6.137 6.05961 6.72575 6.98456 7.58273 6.18334z" id="path3214-39-3-7-5-6-0-2"/><path style="display:inline;fill-opacity:1;fill:#000;opacity:1;stroke-dasharray:none;stroke-linecap:butt;stroke-linejoin:miter;stroke-miterlimit:4;stroke-opacity:1;stroke-width:0;stroke:#000" d="m277.78853 236.91683c1.70146-2.7925 4.50366-6.20101 7.47085-10.4672 6.56858-.11291 10.32098-.009 12.67145.82737-9.6117 4.87644-20.1423 9.63983-20.1423 9.63983z" id="path3214-39-3-7-5-63-9"/><path style="display:inline;fill-opacity:1;fill:#3c3c3c;opacity:1;stroke-dasharray:none;stroke-linecap:butt;stroke-linejoin:miter;stroke-miterlimit:4;stroke-opacity:1;stroke-width:0;stroke:#000" d="m277.6526 236.55834c1.69087-2.6095 4.4607-6.43093 7.40941-10.41754 6.52767-.10553 10.21489.10285 12.55072.88427-9.55186 4.55689-19.96013 9.53327-19.96013 9.53327z" id="path3214-39-3-7-5-63"/><path style="display:inline;fill-opacity:1;fill:#3c3c3c;opacity:1;stroke-dasharray:none;stroke-linecap:butt;stroke-linejoin:miter;stroke-miterlimit:4;stroke-opacity:1;stroke-width:0;stroke:#000" d="m284.73662 231.87542c-.32693-1.90483-.61087-4.04218-.81634-6.02205-2.19798-.0676-3.94025.002-7.24867.1058 2.28772 2.38906 4.83908 4.88986 7.32421 6.97722 1.35301-1.37335-2.27052 1.57575.41126-.90193z" id="path3214-39-3-7-5-6-0"/><path style="display:inline;fill-opacity:1;fill-rule:nonzero;fill:#000;opacity:1;stroke-dasharray:none;stroke-linecap:butt;stroke-linejoin:miter;stroke-miterlimit:4;stroke-opacity:1;stroke-width:.34468895;stroke:#000" d="m273.87614 225.86126c5.43078 41.67785 22.62616 66.61802 22.4217 67.02659.0.0-4.01898.16263-4.02142.0825-.01-.28588-18.58723-29.69111-22.19789-65.63519z" id="path6303-3"/><path style="display:inline;fill-opacity:1;fill-rule:nonzero;fill:#c8c8c8;opacity:1;stroke-dasharray:none;stroke-linecap:butt;stroke-linejoin:round;stroke-miterlimit:4;stroke-opacity:1;stroke-width:0;stroke:#000" d="m275.8833 235.13199c-.0127-.009-.0251-.006-.0362.007-.4951.52928-2.83974 2.45439-4.91394 4.22587.60514 2.96257 1.23836 6.63144 2.07992 9.38082.4951-.52927 2.83974-2.45438 4.91396-4.22585-.68451-2.98748-1.03723-6.31921-2.04374-9.38709zm-.40865 1.38655c.37126 2.38071 1.22691 4.96595 1.52865 7.47615-.13504.12644-2.97709 2.52889-3.6178 3.36997-.37094-2.38059-1.22695-4.96641-1.52863-7.47615.13506-.12645 2.97709-2.5289 3.61778-3.36997z" id="path5182-3-9-3-2-6-1-6"/></g></svg>