<svg viewBox="0 0 560 1e3"><path d="M253.7 861.4H267c3.7 3.2 5.2 18.7 2.6 33.1-.4 1.8-.4 24.1-.4 36.9l-3.1.1c-.6-11.2 1.2-24.3-.9-36.9-8.2 7.5-6.7 40.4-12.8 39.5-6 .1-8.6.2-12-.4-10.4-1.9-13.6-14-15-22.7 3.1-5.4 4.4-4.6 10.2-10 7.1-12.3 9.6-22.4 18.1-39.6z" class="shoe" id="path2340-1"/><path d="m320.90015 860.8 15.6.1c4.7 13.7 8.6 42.3 9.2 52.3 4.6 4.1 4.9 8.5-2.1 32-2.4 3-11.1 6-20.4.0-7.1-18.7-7.6-24.5-4.1-31.5-.2-7.4-.1-10-1.5-19.5-3.4-15.5 1.9-24.7 3.3-33.4z" class="shoe" id="path2346-0"/><path d="M253.7 861.4H267c3.7 3.2 5.2 18.7 2.6 33.1-.4 1.8-.4 24.1-.4 36.9l-3.1.1c-.6-11.2 1.2-24.3-.9-36.9-8.2 7.5-6.7 40.4-12.8 39.5-6 .1-8.6.2-12-.4-10.4-1.9-13.6-14-15-22.7 3.1-5.4 4.4-4.6 10.2-10 7.1-12.3 9.6-22.4 18.1-39.6z" class="shoe" id="path2340-1-5"/><path d="m320.90015 860.8 15.6.1c4.7 13.7 8.6 42.3 9.2 52.3 4.6 4.1 4.9 8.5-2.1 32-2.4 3-11.1 6-20.4.0-7.1-18.7-7.6-24.5-4.1-31.5-.2-7.4-.1-10-1.5-19.5-3.4-15.5 1.9-24.7 3.3-33.4z" class="shoe" id="path2346-0-4"/><path d="M253.7 861.4H267c3.7 3.2 5.2 18.7 2.6 33.1-.4 1.8-.4 24.1-.4 36.9l-3.1.1c-.6-11.2 1.2-24.3-.9-36.9-8.2 7.5-6.7 40.4-12.8 39.5-6 .1-8.6.2-12-.4-10.4-1.9-13.6-14-15-22.7 3.1-5.4 4.4-4.6 10.2-10 7.1-12.3 9.6-22.4 18.1-39.6z" class="shoe" id="path2340-1-5-0"/><path d="m320.90015 860.8 15.6.1c4.7 13.7 8.6 42.3 9.2 52.3 4.6 4.1 4.9 8.5-2.1 32-2.4 3-11.1 6-20.4.0-7.1-18.7-7.6-24.5-4.1-31.5-.2-7.4-.1-10-1.5-19.5-3.4-15.5 1.9-24.7 3.3-33.4z" class="shoe" id="path2346-0-4-9"/><path d="M253.7 861.4H267c3.7 3.2 5.2 18.7 2.6 33.1-.4 1.8-.4 24.1-.4 36.9l-3.1.1c-.6-11.2 1.2-24.3-.9-36.9-8.2 7.5-6.7 40.4-12.8 39.5-6 .1-8.6.2-12-.4-10.4-1.9-13.6-14-15-22.7 3.1-5.4 4.4-4.6 10.2-10 7.1-12.3 9.6-22.4 18.1-39.6z" class="shoe" id="path2340"/><path d="m253.7 861.4c.82427-.41546.13707-9.51852.94088-12.54625 1.34193-5.05472 9.32523-3.86509 11.12584.28349 2.05878 4.74339.5463 12.21249 1.23328 12.26276-4.6 22.1-4.7 36.3-19.2 40.2-4.5 1.2-11.3 2.3-12.2-.6 3.6-9.7 14-34.8 18.1-39.6z" class="skin" id="path2344"/><path d="m320.90015 860.8 15.6.1c4.7 13.7 8.6 42.3 9.2 52.3 4.6 4.1 4.9 8.5-2.1 32-2.4 3-11.1 6-20.4.0-7.1-18.7-7.6-24.5-4.1-31.5-.2-7.4-.1-10-1.5-19.5-3.4-15.5 1.9-24.7 3.3-33.4z" class="shoe" id="path2346"/><path d="m320.90015 860.8c.80268-.61221-1.68352-5.16443-.8272-11.02212.64874-4.43774 11.77516-3.2879 16.01208.36616.89693.77354-.30939 10.4088.41512 10.75596 4.4 9 8.3 30.6 9.2 52.3-8.7-2.2-19.1-.4-22.8-.2-2.8-3.6-2.7-25.8-2-52.2z" class="skin" id="path2348"/><path d="m280.67642 543.15566c2.08226 12.03021 3.01307 23.0302 4.78697 33.36362 1.13183 6.59319 2.01572 12.36856 2.96405 16.82866.70088 3.3583 3.48904 17.74337 3.51169 18.00818.0721 31.02056-2.69755 53.08801-9.29757 77.11888.0507.30172.98852 3.3223 1.77805 6.64328.98587 4.14689 1.86401 8.76215 1.92059 9.13699 6.17549 40.91244-7.18386 75.47003-8.8084 86.09473-2.72601 8.00738-7.42928 27.88718-9.87782 44.77919-.66941 5.15716-.92231 9.91253-1.22692 14.35553-.016.23402 1.20445 4.48849.96566 7.85786-.20747 2.92735-.30457 5.62723-.78225 7.97787-1.34272 6.6074-2.34183 21.09973-8.75903 30.69084-.23567.35224-.45849.71375-.72921 1.03624-.94874 1.13012-10.60753 8.98445-22.12381 5.27883-.33698-.10843.15534-.69509.2397-1.04736 4.1143-17.17937 18.66931-41.63789 18.63218-42.35466-.32521-6.27688-.0512-14.12386-.18891-24.39134-1.22609-29.18215-2.4744-89.28311-4.47414-123.583.0-1.76318-3.37151-40.41326-3.8778-45.39115-.029-.28544-6.60229-17.77157-14.76417-39.08593-8.86039-23.13849-21.58529-68.34084-23.19235-99.17121 25.7762 10.6307 48.1821 8.38098 70.57309 5.96379z" class="shoe" id="path2148-8"/><path d="m336.75063 850.31365c-.14311-22.79826 3.37857-50.37906 6.80969-78.0601 2.15208-12.04194 4.34878-41.61821 3.11133-66.15805-.0857-1.69941-1.35479-21.26208-1.80621-24.53802-.0942-.68329 25.15457-53.15493 22.95135-145.59218-24.91554 10.18425-80.35956 5.26777-89.96897-2.87985 2.49006 18.59454 7.34608 46.07032 11.2162 64.62771 3.43164 25.80733 16.26509 59.54743 24.38933 84.07585-3.95373 11.86831-5.33279 30.23655-5.24029 32.83871-3.17133 25.48782 4.30858 66.62501 4.30858 66.62501 2.94016 23.68362 6.90928 44.56488 7.07976 69.17752-1.02399 3.79912 1.11308 9.3917.66196 11.38609-.23421 1.03544.10523 5.92399.0525 6.94412-.86782 16.80599-.7812 37.94414 1.96223 44.80778.25378.63493 23.70084 1.10781 23.78244.51231.63626-4.64302-1.23524-36.23901-9.02321-53.69163-.82052-1.83876.34369-8.01834-.28674-10.07527z" class="shoe" id="path2146-0"/></svg>