<svg viewBox="0 0 560 1e3"><path id="path4731" class="hair" d="m262.63033 114.30711c.33677-.20797.0487 51.71527 5.91031 61.18366.49569.8007.18476 1.43686.21782 1.40761.044-.0389.3905-.85171-.0245-2.08965-4.86654-14.51683-4.13788-62.17393-3.73933-62.57241 2.22688-2.22649 1.49231-3.627 6.81007-5.01625.62703-.16381 5.41628 13.8835 6.12146 13.77113.10895-.0174.35996-.30357.29449-.79776-1.10123-8.31224.79838-15.30974 1.62411-15.35172.3433-.0174 6.24163 2.75103 6.59145 2.74513.58284-.01 7.24794-2.28362 7.84871-2.25923.60826.11533 1.40489 3.11183.0147 14.55323-.0526.43297.0902.69301.17637.71466.65882.16561 6.99807-12.71343 7.64282-12.51308 7.18945 2.23413 9.69639 4.81965 15.24999 9.94873 1.63362 1.50875-2.11462 29.15762-10.50886 61.70738-.0322.12488.075.21548.12585.27025 1.37468 1.48077 16.87578-48.11374 18.1457-46.60103 2.11658 2.52119 5.15116-.95931 6.99189 1.46055 34.04139-70.062712-74.71689-86.627596-69.49304-20.56119z"/><path id="path4751-5" class="hair" d="m347.20083 89.460779c.27086 1.823148.43392 3.590431.50299 5.301023.0733 1.814487.0407 3.565189-.0811 5.251128-.1106 1.53148-.29498 3.00953-.54069 4.4334-.0805.46743-.16791.929-.26136 1.38472-.36258 1.7683-.81815 3.44831-1.3412 5.03855-.28819.87619-.90198 3.25017-1.55613 5.71737-.76664 2.89141-1.58873 5.91083-2.0072 6.79752-.64669 1.37026.10909-4.54474-.58595-3.35837-.74336 1.26893-3.81144 17.14-4.55011 18.195-.79804 1.13981.73631-12.5545.019-11.66885-.57141.70552-5.51199 21.71176-5.98759 22.25334-1.3691 1.55905 1.8087-17.94805 1.86853-17.78501-16.24732-18.94224-34.2348-31.324841-38.82186-31.449372-.0784-.215938-25.60155 8.321592-28.38011-.354266-.15486-.483555-1.93552 26.276018-2.0916 25.779408-4.55228-14.4849-9.45714-34.225321-5.30854-41.893192.67976-1.630682.95727-14.611929 1.70343-16.129643.63611-1.293874 1.73198 8.860384 2.41443 7.64832 1.72405-3.062059 3.59311-5.863483 5.59281-8.406442 1.2608-1.603345 5.65765-12.91404 7.01872-14.312434 1.2019-1.234862-.64261 7.420074.63219 6.344227 3.69302-3.116673 7.68151-5.567646 11.90518-7.362038 1.5139-.643169 7.85574-6.751412 9.42732-7.226294 1.53012-.462367-1.71146 4.704261-.13187 4.40064 3.20991-.616988 6.51666-.907007 9.89872-.87331 3.10308.03091 5.99602.211545 8.69643.531707 26.96233 3.196656 25.87402 20.855883 31.96557 41.742868"/></svg>