<svg viewBox="0 0 560 1e3"><path d="m346.04552 95.099681c.25994 1.650172.41643 3.24978.48271 4.798076.0703 1.642333.0391 3.226933-.0778 4.752913-.10615 1.38618-.28309 2.72399-.51889 4.01277-.0773.42308-.16115.84086-.25083 1.25334-.34796 1.60053-.78517 3.12114-1.28714 4.56051-.27657.79306-.86561 2.9418-1.4934 5.17492-.73573 2.61708-1.52468 5.35002-1.92629 6.15259-.62062 1.24025.1047-4.11355-.56232-3.03974-.7134 1.14854-3.6578 15.5138-4.36669 16.46871-.76588 1.03166.70662-11.36337.0182-10.56174-.54838.63858-5.2898 19.6518-5.74623 20.142-1.31391 1.41113 1.94785-16.24519 2.00527-16.09762-68.13539 13.40284-15.79243-7.535-61.10135 9.7759-.2018-.52409-17.2725-41.69952-10.70558-53.147038.65236-1.475967.91868-13.225587 1.63476-14.599305.61047-1.171114 1.66217 8.019734 2.3171 6.922668 1.65456-2.771539 3.44828-5.307171 5.36737-7.608861 1.20998-1.451224 5.42959-11.68879 6.73579-12.954508 1.15345-1.117702-.61671 6.716077.6067 5.742303 3.54416-2.820971 7.37187-5.039402 11.42528-6.663547 1.45288-.582147 7.53908-6.110856 9.0473-6.540682 1.46845-.418499-1.64247 4.257933-.12655 3.983119 3.08052-.55845 6.25397-.820953 9.4997-.790453 2.97799.02798 5.75432.191474 8.34588.48126 25.87546 2.893366 24.83102 18.877132 30.67702 37.782415" class="hair" id="path4763"/><path d="m353.07491 53.600872c1.81974 7.641139 1.7502 16.520532-.0569 23.198872-.18563.686-.077 6.506629-.29914 7.142453-.19063.545648-.70724-4.086405-.92454-3.582811-.50788 1.177078-2.10425 9.735178-2.75589 10.639549-.74078 1.028084-.55765-5.641811-1.48053-5.049222-4.15707 2.669266-13.50973-12.500597-18.67391-14.088832-5.62043-2.661883-21.39936-12.471759-22.20023-17.599876-.0912-.583737-2.24643-5.220035-2.21448-5.78435.0376-.664706 2.28561 2.746594 2.48288 2.112885.25292-.812439.3005-7.731453.79313-8.484729.45769-.699866 1.34493 4.761643 1.98835 4.120531.6513-.648957 1.39252-1.265917 2.21305-1.847037.79459-.562735 1.66354-1.091865 2.59728-1.583901 5.96352-3.142523 14.56884-4.771986 23.31-3.980043 4.51231-.03855 7.7853 1.658884 10.17153 4.268826 2.55641 2.796092 4.09506 6.6395 5.04946 10.517685z" class="hair" id="path4765"/></svg>