<svg viewBox="0 0 560 1e3"><g data-transform="boob" transform="matrix(1.1247504,0,0,1.1247504,-26.347241,-34.609528)" id="g6016" class="scaler_"><path d="m271.51118 261.14089c.0661-.75567-15.55212-23.85233-20.78384-21.10049-1.52959.80455-3.42058 1.9614-5.76856 3.60973-9.78469 6.69753-21.31453 10.82141-26.74443 14.7899-.54445.39791-.66828 2.70307-.76291 3.35152-.65836 4.51134-1.66809 9.99655-.19947 14.9545.5788 2.79959 1.92116 5.11459 3.04085 7.21138 2.65234 4.96693 6.04765 7.87695 10.86115 8.57219 21.5829 3.2487 35.13223-12.1343 39.18878-20.05393 1.83647 8.16488 6.94853 14.47073 13.3338 17.64542 10.04423 4.99389 23.27331 3.62273 32.00152-1.35019 14.24159-8.46859 19.00686-29.49472.12112-46.95807-1.24033-1.44425-2.4413-2.70187-3.54079-3.8753-.36194-.36533-.83711-.69814-1.41789-.98568-.3692-.18279-.78107-.34728-1.23367-.49021-4.17723-1.31914-18.96078 7.30779-27.63663 14.95545-5.29365 4.66629-9.38919 8.82318-10.45903 9.72378z" id="path5992" style="fill-opacity:.00392157;fill:#010101"/><path d="m250.80319 239.92519c-2.11217 1.58135-4.59942 2.91407-6.24169 4.07371-2.40355 2.00586-6.29554 3.93627-10.52906 6.0704-6.05326 3.05148-13.82933 5.49504-16.4595 7.17873-.39537.25309-.72231 2.6909-.84921 3.07294-.70752 5.13443-.57904 10.06848.0367 13.79016 1.01337 6.12496 4.07633 11.11312 6.87362 14.53234 2.48992 2.26451 4.42849 3.41634 7.67826 3.86545 10.49581 1.51314 21.70168-3.04699 29.13118-9.10013 4.20537-3.4345 7.18267-7.02269 9.92412-11.02226.12718.41876 1.87124 5.64497 5.46994 10.30596 2.123 2.74967 5.09638 5.02083 8.21123 6.75234.11303.0438.2312.0752.33871.12991 28.58428 14.54632 62.52453-18.14893 31.08151-47.52065-1.21885-1.39111-4.20568-5.32709-4.35427-5.6611-4.13679-3.64072-10.74703-7.10018-16.53848-7.96365-8.53153-.65018-19.60828-.58156-21.2227-.21343-4.42546 1.02506-9.03703 2.89185-22.50926 11.68069-.014.009-.0411.0188-.0411.0289z" id="path5997" style="fill-opacity:.39215686;fill:#f59"/></g></svg>