<svg viewBox="0 0 560 1e3"><path style="display:inline;fill-opacity:1;fill-rule:evenodd;fill:#000;opacity:1;stroke-dasharray:none;stroke-linecap:butt;stroke-linejoin:miter;stroke-miterlimit:4;stroke-opacity:1;stroke-width:0;stroke:#000" d="m370.40947 252.58602c.23724.8312 2.4338 27.39432-6.08732 46.93044-33.60788-4.288-98.75436-11.42803-126.92768-4.80658-3.9156-19.75388 1.40044-46.07037 2.42363-48.78023 17.34142-11.82315 26.69725-27.37566 36.91736-40.29646-.20578-.10769.98637-.32991 2.81284-.93373-3.68896 22.23095 44.18084 11.81257 51.29891 1.13282 2.65591.76603 5.77774 1.30178 5.77774 1.30178-2.50818 38.73816 14.52142 35.96141 33.78452 45.45196z" id="path3138"/><path style="display:inline;fill-opacity:1;fill-rule:evenodd;fill:#333;opacity:1;stroke-dasharray:none;stroke-linecap:butt;stroke-linejoin:miter;stroke-miterlimit:4;stroke-opacity:1;stroke-width:0;stroke:#000" d="m370.43313 252.31519c-.23212 1.79731.76828 29.61169-6.42515 46.64786-48.30238-7.27876-104.62217-9.90184-125.6259-5.51576-4.0832-13.06464 1.57227-47.29171 1.57227-47.29171 17.76843-9.12056 26.17066-26.39457 36.76079-40.57226.84544-.17546 1.70483-.38601 2.56536-.63893-4.82898 22.98057 45.03234 14.37734 52.03839 1.01371 1.9144.66913 3.96656.65204 5.476 1.11851-2.5296 33.39255 5.80802 36.93935 33.63824 45.23858z" id="path3140"/></svg>