<svg viewBox="0 0 560 1e3"><path style="display:inline;fill-opacity:1;fill:#725d49" d="m329.4487 205.93807c11.11065 51.50954 40.0392 65.72994 41.90178 68.33666-27.11064 7.4526-136.67596 5.45071-134.95964-1.39812 12.0188-47.95979 36.35206-64.79315 38.7453-66.22243 15.05839-8.33707 13.3784-12.94965 13.79285-22.78164 3.29208.8153 19.29858-11.89223 25.62276-10.94898.81111 21.85295 3.07174 29.46278 14.89695 33.01451z" id="path4683-7-8"/><path style="display:inline;fill-opacity:1;fill:#000;stroke-width:1.02959216" d="m371.47221 274.35252s-.61394 3.30034-.90704 3.52426c-79.7119 13.05338-134.41592.77652-134.28195-1.47632l.22027-3.70397c1.42462 1.3586 46.53305 1.65603 134.96868 1.65603z" id="path4694-1-5-9"/><path style="display:inline;fill-opacity:1;fill:#725d49" d="m371.47221 274.01401s-.48894 3.23835-.78204 3.44959c-79.7119 12.3138-134.54092.60221-134.40695-1.523l.22027-3.49411c21.95595-16.09395 128.84695 1.56752 134.96868 1.56752z" id="path4694-0-0"/><path style="display:inline;fill-opacity:1;fill:#000" d="m298.2496 505.91418c-16.60261 4.7124-46.21082 1.30232-46.62477-.78649-.82681-4.17215.1295-181.8644 8.91481-227.51481 17.31931-3.59867 35.95172-1.11615 49.6813 2.6291-2.57598 4.26374-2.27958 9.24815-4.11611 15.70764-15.70598 55.24147-7.40372 208.07865-7.85523 209.96456z" id="path4696-8-0"/><path style="display:inline;fill-opacity:1;fill:#725d49" d="m297.17964 504.34814c-16.60261 4.7124-46.21082 1.30232-46.62477-.78649-.82681-4.17215.1295-181.86441 8.91481-227.51482 17.31931-3.59867 38.4266-1.64648 52.15618 2.09877-24.6058 40.7272-13.94191 224.09611-14.44622 226.20254z" id="path4698-7-9"/></svg>