<svg viewBox="0 0 560 1e3"><path style="fill:#000;stroke-width:2.09582233" id="path3782" d="m266.56266 487.41644c-1.02095.32423-2.19079.17635-2.92249.16431-1.17374-.0187-3.47875-1.81699-3.67721-2.36577.30298-2.36283 6.37063-5.59458 10.88669-2.56186-1.46852 3.35279-2.47463 3.76341-4.28699 4.76332z"/><path style="fill:#000;stroke-width:5.36685419" id="path3784" d="m254.9373 443.09326c7.16027-13.22027 32.75293-21.87839 35.19295 8.45684.80863 1.70731-1.09103 9.37649-3.37451 19.02154-2.61517 9.4166-4.68863 20.12242-5.70589 30.78986-.66723 12.20213-3.48529 32.16671-20.53148 30.74978-9.74815-2.29057-14.67762-10.04827-18.69026-15.43218-.38159-1.81061.41134-2.7143.24516-3.40054-2.08565-8.63315-1.44435-21.58067 1.24635-36.01847 2.30756-12.38225 6.25314-24.88278 11.61734-34.16683z"/><path class="areola" id="path3786" d="m277.14717 516.00924c-.0374 1.45457-1.92705 6.57017-3.73655 8.99964-4.12063 4.76727-9.04432 6.88838-14.83582 5.02842-2.7078-.0481-11.37351-6.87637-15.51745-13.82209 1.76373-6.03858 26.37457 3.47633 34.08982-.20576z"/><path id="path3788" d="m256.10966 440.51147c6.57271-13.51395 30.06559-22.36447 32.30534 8.64471.7423 1.74531-1.00147 9.58478-3.09759 19.44427-2.40057 9.62567-5.20104 20.39022-6.13491 31.29472-.11495 6.0983-.68397 10.07537-1.24602 13.81116-4.12152 4.9082-26.61569-1.94272-34.44284-1.27106-1.91453-8.82499-.51834-22.23927 1.95155-36.99787 2.11812-12.65729 5.74001-25.4355 10.66412-34.92593z" class="skin penis"/></svg>