<svg viewBox="0 0 560 1e3"><path id="path4852" d="m299.86232 216.84741c2.86836-3.54688 5.42336-.0355 2.50524-.85511-28.78659 10.84558-48.83612 12.50491-63.16516 12.03938-6.47813 9.80012-12.82954 22.8764-16.49669 38.49852 3.89751 5.89815 6.437 8.50874 16.34827 22.96301 7.40694 2.24606 31.58211-33.56493 41.07476-31.08266 9.85684-18.80023 19.35738-41.1789 19.73358-41.56314z" style="display:inline;fill-opacity:1;fill-rule:evenodd;fill:#000;stroke-dasharray:none;stroke-linecap:butt;stroke-linejoin:miter;stroke-miterlimit:4;stroke-opacity:0;stroke-width:3.04086399;stroke:#000"/><path id="path4854" d="m300.48784 216.69956c2.82896-3.50026 2.15718 3.82605-.72086 3.01723-34.98077 8.4917-40.52773 7.8683-58.95242 8.09323-6.83389 10.17852-13.53641 23.6494-16.96761 38.89809 1.81884 2.11212 6.40669 11.10995 17.5644 22.08652 7.3052 2.21655 30.25167-33.52778 39.61395-31.07814 9.72145-18.55316 19.09151-40.63773 19.46254-41.01693z" style="display:inline;fill-opacity:1;fill-rule:evenodd;fill:#fff;stroke-dasharray:none;stroke-linecap:butt;stroke-linejoin:miter;stroke-miterlimit:4;stroke-opacity:0;stroke-width:3;stroke:#000"/></svg>