<svg viewBox="0 0 560 1e3"><path id="path2740" class="shadow" d="m283.66521 456.38067c-1.54841.73859-1.78928 15.78672-9.24659 11.14886-5.5459 3.1603-10.12915-4.94173-10.42429-8.4126-.25114-2.95343 3.37748-7.20053 3.87403-6.51846 2.14579-.003 16.30971 2.85987 15.79685 3.7822z"/><path id="path2742" class="skin torso" d="m274.36595 467.58332c-3.81452 2.31718-9.64064-2.27902-10.8644-11.68664 5.95334-21.67633 25.49385-8.31185 20.23612.35499-2.87984 4.74713-3.52005 14.37508-9.37172 11.33165z"/><path id="path2744" d="m362.70993 410.31424c.8928 1.03783-1.43956 8.87944-1.43956 8.87944-8.19048 4.90102-47.93275 7.81786-60.36774 18.32103-4.31136 3.64157-13.47661 8.29154-16.37051 16.44054-2.5916 7.29773-3.32032 16.98798-9.68774 14.34823-.12708-.0527-.25389-.22936-.38798-.17253-3.64553 1.54503-9.41962-.71855-11.29492-12.24341-2.95293-18.14755-12.84146-17.24873-13.71165-17.80621-12.60056-8.07247-21.38891-19.81687-24.85363-25.1259.0593-.70684.27546-6.76254.27546-6.76254 30.95157 34.29024 114.51819 10.32733 137.83827 4.12135z" style="display:inline;fill-opacity:1;fill-rule:evenodd;fill:#000;opacity:1;stroke-dasharray:none;stroke-linecap:butt;stroke-linejoin:miter;stroke-miterlimit:4;stroke-opacity:1;stroke-width:0;stroke:#000"/><path id="path2746" d="m362.84961 411.48304c.8928 1.03783-1.0078 7.94809-1.0078 7.94809-26.45516 18.17615-60.99813 36.74483-77.63339 37.36709-.27428.37469-.68811.67278-.81935 1.10672-3.57923 11.83428-8.32513 9.8537-8.89431 9.63462-.17013-.0655-5.98956 2.88621-10.50307-7.67418-.19489-.456-.68412-.47689-1.06552-.9139-16.27203-7.95813-36.45881-24.8256-39.15367-45.27808.0593-.70684 1.06207-7.18932 1.06207-7.18932 29.78951 36.10978 115.81996 11.95494 138.01504 4.99896z" style="display:inline;fill-opacity:1;fill-rule:evenodd;fill:#333;opacity:1;stroke-dasharray:none;stroke-linecap:butt;stroke-linejoin:miter;stroke-miterlimit:4;stroke-opacity:1;stroke-width:0;stroke:#000"/><path d="m329.90806 425.67038c-15.4791 1.19068-42.03653 26.26041-44.60913 30.99635 10.29989-9.14088 29.75951-26.28541 44.60913-30.99635z" class="shadow" id="path2748"/><path d="m262.16597 457.51867c-6.81704-9.41592-28.83006-31.99347-34.93819-34.15183 5.05404 5.44075 26.5203 25.35081 34.93819 34.15183z" class="shadow" id="path2750"/><path style="display:inline;fill-opacity:1;fill-rule:evenodd;fill:#fff;opacity:1;stroke-dasharray:none;stroke-linecap:butt;stroke-linejoin:miter;stroke-miterlimit:4;stroke-opacity:1;stroke-width:0;stroke:#000" d="m338.39967 435.4871c.60089-.41225.80053-1.5423 2.2121-2.28787-1.0628-4.12041-3.85227-13.54936-4.54884-14.58843-.7862.0327-1.8073.5621-1.8073.5621 1.98037 5.88018 2.90456 10.31621 4.14404 16.3142z" id="path2752"/><path id="path3251-2-5-2-8" d="m370.40947 252.58602c.23724.8312 2.4338 27.39432-6.08732 46.93044-33.60788-4.288-98.75436-11.42803-126.92768-4.80658-3.9156-19.75388 1.40044-46.07037 2.42363-48.78023 17.34142-11.82315 26.69725-27.37566 36.91736-40.29646-.20578-.10769.98637-.32991 2.81284-.93373-3.68896 22.23095 44.18084 11.81257 51.29891 1.13282 2.65591.76603 5.77774 1.30178 5.77774 1.30178-2.50818 38.73816 14.52142 35.96141 33.78452 45.45196z" style="display:inline;fill-opacity:1;fill-rule:evenodd;fill:#000;opacity:1;stroke-dasharray:none;stroke-linecap:butt;stroke-linejoin:miter;stroke-miterlimit:4;stroke-opacity:1;stroke-width:0;stroke:#000"/><path id="path3253-6-9-5-4" d="m370.43313 252.31519c-.23212 1.79731.76828 29.61169-6.42515 46.64786-48.30238-7.27876-104.62217-9.90184-125.6259-5.51576-4.0832-13.06464 1.57227-47.29171 1.57227-47.29171 17.76843-9.12056 26.17066-26.39457 36.76079-40.57226.84544-.17546 1.70483-.38601 2.56536-.63893-4.82898 22.98057 45.03234 14.37734 52.03839 1.01371 1.9144.66913 3.96656.65204 5.476 1.11851-2.5296 33.39255 5.80802 36.93935 33.63824 45.23858z" style="display:inline;fill-opacity:1;fill-rule:evenodd;fill:#333;opacity:1;stroke-dasharray:none;stroke-linecap:butt;stroke-linejoin:miter;stroke-miterlimit:4;stroke-opacity:1;stroke-width:0;stroke:#000"/></svg>