<svg viewBox="0 0 560 1e3"><path style="display:inline;fill-opacity:1;fill-rule:evenodd;fill:#000;stroke-dasharray:none;stroke-linecap:butt;stroke-linejoin:miter;stroke-miterlimit:4;stroke-opacity:0;stroke-width:2.97439027;stroke:#000" d="m332.11641 378.81779c34.5675 37.13805 57.67901 59.59134 59.20351 85.06737.0573.95814-.0201 1.91381-.0922 2.86185-.84329-.15883-21.74036 5.17918-24.99524 6.79709-14.49086-15.68658-33.94492-93.4321-34.11603-94.72631z" id="path7745"/><path style="display:inline;fill-opacity:1;fill-rule:evenodd;fill:#c8c8c8;stroke-dasharray:none;stroke-linecap:butt;stroke-linejoin:miter;stroke-miterlimit:4;stroke-opacity:0;stroke-width:2.97439027;stroke:#000" d="m330.54529 379.68976c29.16485 29.75771 59.68546 60.25794 60.15492 85.89629-.84329-.15883-20.33648 3.4998-23.59136 5.11771-14.49086-15.68658-36.39245-89.71979-36.56356-91.014z" id="path7747"/><path d="m387.22148 462.69555c-2.91834 1.15884-19.08271 5.39827-19.4566 5.44494.0711-.41289-.24151.46044.19641-2.12944.44841-.21697 18.35912-5.11438 22.4157-6.46604-.0154.24866-.0142 1.64867-.0177 1.9573z" id="path7749" style="fill:#502"/></svg>