<svg viewBox="0 0 560 1e3"><path id="path3467-0-3" d="m459.70876 461.34038c.0522-.0727-11.67013-12.46713-14.18875-15.99117-.062-.0868.24319 6.57332.15329 6.51094-9.01424-6.25439-28.60442-20.58459-42.69357-45.80429-26.58589-47.58898-124.58446 9.50551-129.23486 9.50551l-1.59826 8.34375c4.04301.0 103.64605-56.24068 127.88538-15.52466 16.93272 28.44274 34.94681 42.19845 44.15888 46.72213.0889.0437-4.76008 4.66602-4.66353 4.6586 2.83781-.21792 20.00457 1.82539 20.18142 1.57919z" style="display:inline;fill:#000;stroke-width:1.79057908"/><path id="path3467-0" d="m457.35525 460.2137c.0522-.0727-10.45479-10.76565-11.82436-14.86422-.0338-.10119-2.1212 5.44637-2.2111 5.38399-9.01424-6.25439-28.60442-20.58459-42.69357-45.80429-26.58589-47.58898-124.58446 9.50551-129.23486 9.50551l-1.59826 8.34375c4.04301.0 103.64605-56.24068 127.88538-15.52466 16.93272 28.44274 34.94681 42.19845 44.15888 46.72213.0889.0437-2.40768 5.85129-2.32124 5.80765 2.97039-1.49955 17.66228.67634 17.83913.43014z" style="display:inline;fill:maroon;stroke-width:1.79057908"/><path style="display:inline;fill-opacity:1;fill-rule:evenodd;fill:#000;stroke-dasharray:none;stroke-linecap:butt;stroke-linejoin:miter;stroke-miterlimit:4;stroke-opacity:0;stroke-width:3.01035047;stroke:#000" d="m331.57314 378.3368c24.18021 19.31629 47.47548 69.08726 40.28948 90.22947-.29346.86341-.20575 1.80138-.35593 2.67966-.0906.0643-.39723.27412-.55644.36065-1.2493.67899-4.68816 2.47879-4.68816 2.47879-8.38545 2.52174-30.64354-90.89786-34.68895-95.74857z" id="path3791"/><path style="display:inline;fill-opacity:1;fill-rule:evenodd;fill:maroon;stroke-dasharray:none;stroke-linecap:butt;stroke-linejoin:miter;stroke-miterlimit:4;stroke-opacity:0;stroke-width:2.97172689;stroke:#000" d="m331.31352 379.52769c16.25271 13.86517 45.37997 59.95473 40.53677 89.0414-.0882.0643-.21475.1416-.36985.22816-1.21698.67925-4.37926 1.89717-4.37926 1.89717-.34633.10695-1.18928.89344-1.58868.68531-9.02097-4.70078-30.42527-87.20524-34.19898-91.85204z" id="path3793"/><path style="display:inline;fill-opacity:1;fill-rule:evenodd;fill:#000;stroke-dasharray:none;stroke-linecap:butt;stroke-linejoin:miter;stroke-miterlimit:4;stroke-opacity:0;stroke-width:2.97439027;stroke:#000" d="m351.84318 402.01327c.0688.41134.59363.0515.70903 1.06206-.96829.15367-4.44645 1.31322-4.6157 1.32091-.30453-.57217-.50525-.4814-.54378-1.0685.73033-.2578 4.28112-1.30718 4.45045-1.31447z" id="path3773-3-5-5-4"/></svg>