<svg viewBox="0 0 560 1e3"><defs id="defs4360"><linearGradient id="linearGradient1767" osb:paint="solid"><stop style="stop-color:#969696;stop-opacity:1" offset="0" id="stop1765"/></linearGradient><filter style="color-interpolation-filters:sRGB" id="Filter_Shine_Blur" width="4" x="-2" height="4" y="-2"><feGaussianBlur stdDeviation="1.5 1.5" result="blur" id="feGaussianBlur4091-3"/></filter><pattern y="0" x="0" height="6" width="6" patternUnits="userSpaceOnUse" id="EMFhbasepattern"/><filter y="-2" height="4" x="-2" width="4" id="Filter_Shine_Blur-1" style="color-interpolation-filters:sRGB"><feGaussianBlur id="feGaussianBlur4091-3-4" result="blur" stdDeviation="1.5 1.5"/></filter><filter y="-2" height="4" x="-2" width="4" id="Filter_Shine_Blur-5" style="color-interpolation-filters:sRGB"><feGaussianBlur id="feGaussianBlur4091-3-9" result="blur" stdDeviation="1.5 1.5"/></filter><filter y="-2" height="4" x="-2" width="4" id="Filter_Shine_Blur-51" style="color-interpolation-filters:sRGB"><feGaussianBlur id="feGaussianBlur4091-3-91" result="blur" stdDeviation="1.5 1.5"/></filter><filter y="-2" height="4" x="-2" width="4" id="Filter_Shine_Blur-9" style="color-interpolation-filters:sRGB"><feGaussianBlur id="feGaussianBlur4091-3-90" result="blur" stdDeviation="1.5 1.5"/></filter><filter style="color-interpolation-filters:sRGB" id="Filter_Shine_Blur-11" width="4" x="-2" height="4" y="-2"><feGaussianBlur stdDeviation="1.5 1.5" result="blur" id="feGaussianBlur4091-3-40"/></filter><filter style="color-interpolation-filters:sRGB" id="filter2732" width="4" x="-2" height="4" y="-2"><feGaussianBlur stdDeviation="1.5 1.5" result="blur" id="feGaussianBlur2730"/></filter><filter style="color-interpolation-filters:sRGB" id="Filter_Shine_Blur-7" width="4" x="-2" height="4" y="-2"><feGaussianBlur stdDeviation="1.5 1.5" result="blur" id="feGaussianBlur4091-3-904"/></filter><filter style="color-interpolation-filters:sRGB" id="filter2766" width="4" x="-2" height="4" y="-2"><feGaussianBlur stdDeviation="1.5 1.5" result="blur" id="feGaussianBlur2764"/></filter><filter style="color-interpolation-filters:sRGB" id="Filter_Shine_Blur-3" width="4" x="-2" height="4" y="-2"><feGaussianBlur stdDeviation="1.5 1.5" result="blur" id="feGaussianBlur4091-3-5"/></filter><filter style="color-interpolation-filters:sRGB" id="filter2800" width="4" x="-2" height="4" y="-2"><feGaussianBlur stdDeviation="1.5 1.5" result="blur" id="feGaussianBlur2798"/></filter><filter style="color-interpolation-filters:sRGB" id="Filter_Shine_Blur-92" width="4" x="-2" height="4" y="-2"><feGaussianBlur stdDeviation="1.5 1.5" result="blur" id="feGaussianBlur4091-3-915"/></filter><filter style="color-interpolation-filters:sRGB" id="Filter_Shine_Blur-93" width="4" x="-2" height="4" y="-2"><feGaussianBlur stdDeviation="1.5 1.5" result="blur" id="feGaussianBlur4091-3-46"/></filter><filter style="color-interpolation-filters:sRGB" id="Filter_Shine_Blur-16" width="4" x="-2" height="4" y="-2"><feGaussianBlur stdDeviation="1.5 1.5" result="blur" id="feGaussianBlur4091-3-6"/></filter><filter style="color-interpolation-filters:sRGB" id="Filter_Shine_Blur-96" width="4" x="-2" height="4" y="-2"><feGaussianBlur stdDeviation="1.5 1.5" result="blur" id="feGaussianBlur4091-3-43"/></filter><filter style="color-interpolation-filters:sRGB" id="Filter_Shine_Blur-36" width="4" x="-2" height="4" y="-2"><feGaussianBlur stdDeviation="1.5 1.5" result="blur" id="feGaussianBlur4091-3-65"/></filter><filter style="color-interpolation-filters:sRGB" id="Filter_Shine_Blur-36-5" width="4" x="-2" height="4" y="-2"><feGaussianBlur stdDeviation="1.5 1.5" result="blur" id="feGaussianBlur4091-3-65-8"/></filter><filter style="color-interpolation-filters:sRGB" id="Filter_Shine_Blur-36-5-9" width="4" x="-2" height="4" y="-2"><feGaussianBlur stdDeviation="1.5 1.5" result="blur" id="feGaussianBlur4091-3-65-8-4"/></filter><filter style="color-interpolation-filters:sRGB" id="Filter_Shine_Blur-16-5" width="4" x="-2" height="4" y="-2"><feGaussianBlur stdDeviation="1.5 1.5" result="blur" id="feGaussianBlur4091-3-6-1"/></filter><filter style="color-interpolation-filters:sRGB" id="Filter_Shine_Blur-16-5-5" width="4" x="-2" height="4" y="-2"><feGaussianBlur stdDeviation="1.5 1.5" result="blur" id="feGaussianBlur4091-3-6-1-9"/></filter><filter style="color-interpolation-filters:sRGB" id="Filter_Shine_Blur-16-5-5-3" width="4" x="-2" height="4" y="-2"><feGaussianBlur stdDeviation="1.5 1.5" result="blur" id="feGaussianBlur4091-3-6-1-9-3"/></filter><filter style="color-interpolation-filters:sRGB" id="Filter_Shine_Blur-77" width="4" x="-2" height="4" y="-2"><feGaussianBlur stdDeviation="1.5 1.5" result="blur" id="feGaussianBlur4091-3-94"/></filter><filter style="color-interpolation-filters:sRGB" id="Filter_Shine_Blur-77-8" width="4" x="-2" height="4" y="-2"><feGaussianBlur stdDeviation="1.5 1.5" result="blur" id="feGaussianBlur4091-3-94-4"/></filter><filter style="color-interpolation-filters:sRGB" id="Filter_Shine_Blur-77-8-3" width="4" x="-2" height="4" y="-2"><feGaussianBlur stdDeviation="1.5 1.5" result="blur" id="feGaussianBlur4091-3-94-4-8"/></filter></defs><path style="display:inline;fill-opacity:1;fill-rule:evenodd;fill:#000;opacity:1;stroke-dasharray:none;stroke-linecap:butt;stroke-linejoin:miter;stroke-miterlimit:4;stroke-opacity:1;stroke-width:0;stroke:#000" d="m364.42402 291.32376c-1.04922 4.24406-2.34182 9.14732-3.923 14.76112-2.33518 8.29077-6.31171 13.44418-8.52675 19.0776-.33442.8505-4.83547 13.68284-5.34328 15.45275-4.07216 29.7747.63881 60.96426.67649 62.74122-39.63585 8.44961-72.83686.84982-74.09168-1.06835-1.64009.741-39.94366-4.42497-41.2515-6.7613 2.97097-23.66001 11.3933-74.02464 9.5896-81.9526-1.36607-4.81345-3.40634-13.01601-4.53838-23.44906 18.21016 2.77608 72.23075 7.02036 127.4085 1.19862z" id="path2900"/><path style="display:inline;fill-opacity:1;fill-rule:evenodd;fill:#333;opacity:1;stroke-dasharray:none;stroke-linecap:butt;stroke-linejoin:miter;stroke-miterlimit:4;stroke-opacity:1;stroke-width:0;stroke:#000" d="m363.41522 292.17669c-1.2278 4.92922-2.66639 10.18803-4.3107 15.35334-1.739 5.46275-5.90058 11.23257-8.68523 16.91704-1.43061 2.9204-4.86935 12.53755-5.32051 14.86148-.59504 3.06514-2.30901 18.50625-1.77547 28.90032.13152 2.562-.47121 20.2423 1.30629 25.48264 1.57932 4.82487 2.38677 7.82817 5.40038 11.68331 16.17145 20.68722 18.17857 46.63317 18.57219 51.12829-5.60223 1.84008-49.27936-.17302-50.67679-.9787-43.56877-25.11948-46.04206-35.72251-46.04206-35.72251-2.31489.27292-.74581 8.3089-40.18051 34.82975.0.0-13.5613.20574-14.20896-.26182-.52052-30.98964 14.16413-57.52673 14.1926-58.12059 7.20965-24.57757 9.11023-54.96162 12.1125-79.07526-.30148-3.80824-4.82961-14.60553-5.71864-27.14289 18.15164 5.78718 88.05608 7.66534 125.33491 2.1456z" id="path2902"/><path style="display:inline;fill-opacity:1;fill:#000" d="m271.82541 419.82176c-2.96249-1.35412 3.15992-85.07675 9.81306-125.37691.0217-.0978-.0306-.31903.0649-.29205 1.68011.47447 1.027.0747 2.33592.13491.12272.006-.0402.24289-.0604.36502-10.10391 61.17987-12.01107 124.97437-12.15349 125.16903z" id="path2904"/><path style="display:inline;fill:#000" d="m277.26367 407.09589c0 .86028-3.76472 3.3125-6.25 3.3125l.28125-6.65625c2.48528.0 5.96875 2.60847 5.96875 3.34375z" id="path2906"/><path style="display:inline;fill:#000" d="m277.90626 391.4531c0 .86028-3.76472 3.3125-6.25 3.3125l.28125-6.65625c2.48528.0 5.96875 2.60847 5.96875 3.34375z" id="path2908"/><path style="display:inline;fill:#000" d="m279.12501 376.4531c0 .86028-4.04597 3-6.53125 3l.46875-6.65625c2.48528.0 6.0625 2.92097 6.0625 3.65625z" id="path2910"/><path style="display:inline;fill:#000" d="m280.18751 363.2656c0 .86028-4.20222 2.6875-6.6875 2.6875l.59375-6.65625c2.48528.0 6.09375 3.23347 6.09375 3.96875z" id="path2912"/><path style="display:inline;fill:#000" d="m281.25001 348.5781c0 .86028-3.95222 2.875-6.4375 2.875l.625-6.59375c2.48528.0 5.8125 2.98347 5.8125 3.71875z" id="path2914"/><path style="display:inline;fill:#000" d="m283.00001 332.92185c0 .86028-4.13972 2.65625-6.625 2.65625l.6875-6.59375c2.48528.0 5.9375 3.20222 5.9375 3.9375z" id="path2916"/><path style="display:inline;fill:#000" d="m284.7206 318.33666c0 .86028-4.29597 2.28125-6.78125 2.28125l.8125-6.5c2.48528.0 5.96875 3.48347 5.96875 4.21875z" id="path2918"/><path style="display:inline;fill:#000" d="m286.3358 302.31061c0 .86028-3.98347 3-6.46875 3l.9375-6.3125c2.48528.0 5.53125 2.57722 5.53125 3.3125z" id="path2920"/><path style="display:inline;fill:#787878" d="m277.18902 406.27379c0 .86028-3.76472 3.3125-6.25 3.3125l.28125-6.65625c2.48528.0 5.96875 2.60847 5.96875 3.34375z" id="path2926"/><path style="display:inline;fill:#787878" d="m277.83161 390.631c0 .86028-3.76472 3.3125-6.25 3.3125l.28125-6.65625c2.48528.0 5.96875 2.60847 5.96875 3.34375z" id="path2928"/><path style="display:inline;fill:#787878" d="m279.05036 375.631c0 .86028-4.04597 3-6.53125 3l.46875-6.65625c2.48528.0 6.0625 2.92097 6.0625 3.65625z" id="path2930"/><path style="display:inline;fill:#787878" d="m280.11286 362.4435c0 .86028-4.20222 2.6875-6.6875 2.6875l.59375-6.65625c2.48528.0 6.09375 3.23347 6.09375 3.96875z" id="path2932"/><path style="display:inline;fill:#787878" d="m281.17536 347.756c0 .86028-3.95222 2.875-6.4375 2.875l.625-6.59375c2.48528.0 5.8125 2.98347 5.8125 3.71875z" id="path2934"/><path style="display:inline;fill:#787878" d="m282.92536 332.09975c0 .86028-4.13972 2.65625-6.625 2.65625l.6875-6.59375c2.48528.0 5.9375 3.20222 5.9375 3.9375z" id="path2936"/><path style="display:inline;fill:#787878" d="m284.64595 317.51456c0 .86028-4.29597 2.28125-6.78125 2.28125l.8125-6.5c2.48528.0 5.96875 3.48347 5.96875 4.21875z" id="path2938"/><path style="display:inline;fill:#787878" d="m286.26115 301.48851c0 .86028-3.98347 3-6.46875 3l.9375-6.3125c2.48528.0 5.53125 2.57722 5.53125 3.3125z" id="path2940"/><path style="display:inline;fill:#000;stroke-width:1.02941978" d="m329.36031 205.9463c-25.7741 23.51909-61.67786 5.88391-49.74999-1.41485 4.74048-2.90073 10.95488-5.83765 12.44532-10.45069 1.84657 1.29127 15.45983 1.10207 22.47476.45873 2.26449 2.01317 2.77775 7.12703 14.82991 11.40681z" id="path2942-4"/><path style="display:inline;fill:#787878" d="m314.59488 194.60935c.29213-.0359 2.8391 8.07872 14.85382 11.32872-25.34363 22.57098-61.48921 5.77608-49.76056-1.22844 4.6613-2.7838 10.91811-6.11341 12.38365-10.54049 1.42462 1.28163 15.4805 1.30543 22.52309.44021z" id="path2942"/><path style="display:inline;fill-rule:nonzero;fill:#000;stroke-width:3.5649364" d="m299.95201 197.81221c.14641.0141-.42473 3.31239-.28871 3.73225.0.0-.24136.15652 3.61361.58215-.0356.10412-.36289 3.32455-.38037 3.51569-1.23077-.11931-2.50951-.15831-3.58769-.27608.0.0-1.57706 9.12041-1.57407 9.0974.0.0-2.72206-.21537-2.69855-.42733.044-.3781.84627-8.36358.74035-8.8459-.0594-.27256-3.09732-.70092-3.0913-.95022.009-.3533.46259-2.85588.43082-3.15377.13756-.11999 2.86739.44558 2.94484.0385.31835-1.67308.44549-3.3201.56082-3.63272z" id="path2944"/><path id="path4027-70-1-6" d="m338.2634 373.24997c1.41216 9.42307-1.43557 29.939 7.27904 39.51479-12.96362-6.10053-10.95321-29.8094-7.27904-39.51479z" style="display:inline;fill-rule:evenodd;fill:#fff;filter:url(#Filter_Shine_Blur-16);stroke-dasharray:none;stroke-linecap:butt;stroke-linejoin:miter;stroke-miterlimit:4;stroke-opacity:0;stroke-width:3;stroke:#000"/></svg>