<svg viewBox="0 0 560 1e3"><path id="path7305" d="m310.72651 123.71414c-2.38526-1.0648-4.0352-1.36165-6.59715-1.18697-5.60387.38211-8.57155.65974-9.58481.89667-1.19092-.1847-2.95845 2.0515-3.17461 1.57887.23021-1.48598.34113-2.23791.98346-3.82389.039.1584.0727.8184.19165.73396.12501-.0887.18438-1.21173.65919-2.24754.17398.26589.1441 1.12641.24608 1.01455.10474-.11488.10119-1.13819.8362-2.32794.15542.85942-.17284 2.05278-.003 1.70222.55976-1.16517.6976-1.58677 1.57215-2.02372.75976-.68418 7.6044-1.05634 10.88624-.11571.78265.22433 1.93526.52759 2.56138.67393 1.28774.30101 2.8869.95904 2.97621 1.22466.0328.0972 5.35051 4.29118 7.16951 9.42437-.50223.24417-7.83579-5.12742-8.72279-5.52336zm-39.5748-5.34601c.95011.14812 1.53809.64262 1.82228.89621.41926.37413.11727-.49766.11504-1.02086.33375-.17982.94567 1.16384 1.23795 1.78254.21862.46276.016-1.66994.22915-1.13802.19805.49416.56923 2.14901.74455 2.646.16173.45848-.0276-1.11325.16257-.74824.93885 1.802.72933 4.18994.81308 4.55598-.1404.30807-1.00238-1.56596-2.77287-1.28205-2.59433.39135-5.52625.80322-7.8621 2.60326-.27606.29317-.6283.53303-.78276.53303-.23996.0-.2356-.0932.03-.6404.35168-.72459.29151-.76101-.5659-.34242-5.33267 1.65128-5.1805 5.06443-4.83006-.93812 3.6611-3.80621 6.98043-5.97625 11.65911-6.90691z" class="eyebrow_hair"/></svg>