<svg viewBox="0 0 560 1e3"><path id="path3363" d="m368.02373 464.49773c.14026.46671-1.4217 12.79815-6.58692 23.53836-.21492.44688-4.40691 10.43038-4.8094 14.37232-.14389 1.40925-.49393 2.08399-.334 5.55224.0849 1.84033-4.41834 2.89593-4.39856 2.89175 4.38082-.9257 9.16888-.0671 23.29579-3.42206 4.00834-45.62836-8.47388-68.07718-10.45562-70.17661-.54899-.5816 4.38584 11.18598 3.28871 27.244z" style="baseline-shift:baseline;clip-rule:nonzero;color-interpolation-filters:linearRGB;color-interpolation:sRGB;color-rendering:auto;color:#000;direction:ltr;display:inline;enable-background:accumulate;fill-opacity:1;fill-rule:evenodd;fill:#fff;image-rendering:auto;isolation:auto;mix-blend-mode:normal;opacity:1;overflow:visible;shape-rendering:auto;solid-color:#000000;solid-opacity:1;stroke-dasharray:none;stroke-dashoffset:0;stroke-linecap:butt;stroke-linejoin:miter;stroke-miterlimit:4;stroke-opacity:1;stroke-width:3;stroke:none;visibility:visible;white-space:normal;writing-mode:lr-tb"/><path id="path3365" d="m205.35107 511.92745c.38082-.1132 10.1923-1.96247 10.79579-2.04706-4.24794-51.95742 5.64592-85.00948 6.58099-89.93733-26.05213 51.71119-17.37678 91.98439-17.37678 91.98439z" style="baseline-shift:baseline;clip-rule:nonzero;color-interpolation-filters:linearRGB;color-interpolation:sRGB;color-rendering:auto;color:#000;direction:ltr;display:inline;enable-background:accumulate;fill-opacity:1;fill-rule:evenodd;fill:#fff;image-rendering:auto;isolation:auto;mix-blend-mode:normal;opacity:1;overflow:visible;shape-rendering:auto;solid-color:#000000;solid-opacity:1;stroke-dasharray:none;stroke-dashoffset:0;stroke-linecap:butt;stroke-linejoin:miter;stroke-miterlimit:4;stroke-opacity:1;stroke-width:3;stroke:none;visibility:visible;white-space:normal;writing-mode:lr-tb"/></svg>