<svg viewBox="0 0 560 1e3"><path style="display:inline;fill-opacity:1;fill-rule:evenodd;fill:#eaf;opacity:1;stroke-dasharray:none;stroke-linecap:butt;stroke-linejoin:miter;stroke-miterlimit:4;stroke-opacity:1;stroke-width:0;stroke:#000" d="m350.44891 411.28161c-41.34356 12.40411-56.35277 29.50718-67.32299 47.0649-1.04023 1.75909-1.92047 7.35117-4.50173 9.70959-.97785.89343-3.70051-.0277-4.03805.0431-.91345.19159-2.09488.29968-2.84109.24274-1.3589-.10369-3.10427-.97079-4.62926-2.64607-1.15035-1.26373-2.1753-2.98733-2.81436-5.19001-8.27893-10.93923-27.60352-39.54369-38.34145-47.86102.0176-.005-.05-.20603.59439-1.93851 29.91996 7.91079 37.53385 11.40066 123.28163-1.21761.0.0.63138 1.78415.61291 1.79289z" id="path5862"/><path style="display:inline;fill-opacity:1;fill:#eaf;stroke-dasharray:none;stroke-linecap:butt;stroke-linejoin:miter;stroke-miterlimit:4;stroke-opacity:1;stroke-width:0;stroke:#83afc8" d="m225.9378 412.66104c.12717-.79329.24724-.90642.25482-.95601 23.02972 9.12926 54.6817 12.66174 123.82806-1.73671.0291.083.24793.57628.45084 1.30322-7.49448 2.32559-13.58511 4.61432-22.50451 8.15633-60.49161 9.75774-83.56164 4.33761-97.57663-2.66633-1.68147-1.78024-2.87542-3.01265-4.45258-4.1005z" id="path5864"/><path style="display:inline;fill-opacity:1;fill:#eaf;stroke-dasharray:none;stroke-linecap:butt;stroke-linejoin:miter;stroke-miterlimit:4;stroke-opacity:1;stroke-width:0;stroke:#83afc8" d="m241.44907 429.61473c16.19921 3.4137 37.32679 4.09867 68.75142-.23858-1.10723.72649-4.9682 3.64884-9.02733 7.02192-26.13262 3.68145-42.62028 3.1439-53.96133.73077-1.89388-2.48871-3.25794-4.54662-5.76276-7.51411z" id="path5866"/><path style="display:inline;fill-opacity:1;fill:#eaf;stroke-dasharray:none;stroke-linecap:butt;stroke-linejoin:miter;stroke-miterlimit:4;stroke-opacity:1;stroke-width:0;stroke:#83afc8" d="m252.70414 444.58541c10.94342 1.31488 24.01095 1.50229 40.32871.0811-1.56759 2.01272-3.58281 4.56444-5.24245 6.66295-12.30604 1.16431-22.00263 1.20882-29.81942.51362-2.04934-2.61037-3.63449-4.68604-5.26684-7.25767z" id="path5868"/><path style="display:inline;fill-opacity:1;fill:#eaf;stroke-dasharray:none;stroke-linecap:butt;stroke-linejoin:miter;stroke-miterlimit:4;stroke-opacity:1;stroke-width:0;stroke:#83afc8" d="m262.53421 458.18295c6.22871.31514 13.08896.30377 20.72809-.0971-.87505 2.4389-1.64015 4.66739-2.42955 6.53665-5.25319.34928-9.97649.47387-14.24234.41152-1.68576-1.69159-2.0194-4.59693-4.0562-6.85107z" id="path5870"/><path style="display:inline;fill-opacity:1;fill-rule:evenodd;fill:#000;opacity:1;stroke-dasharray:none;stroke-linecap:butt;stroke-linejoin:miter;stroke-miterlimit:4;stroke-opacity:1;stroke-width:0;stroke:#000" d="m282.94456 458.76549c-.0483.15247-.11284.47208-.19954.90622-.41277 2.06685-1.81439 6.53069-3.87757 8.11265-.26921.20642-1.13559 1.14752-4.57861.28177-.17398-.0437-2.18026 1.1699-4.2783.12449-4.65827-2.32112-6.22252-8.10904-6.31915-8.53686 3.82592 9.08132 8.89939 9.3147 10.40315 7.55401 5.26837 2.79873 7.50839-4.81217 8.85002-8.44228z" id="path5872"/><path style="display:inline;fill-opacity:1;fill:#eaf;stroke-dasharray:none;stroke-linecap:butt;stroke-linejoin:miter;stroke-miterlimit:4;stroke-opacity:1;stroke-width:0;stroke:#83afc8" d="m271.02081 416.82683c-.40499.0203-2.65956.56808-4.1375-.83724-4.16958-3.96471-10.17596-9.87921-10.68888-9.8703-4.579 14.03976 6.16335 16.1551 5.27505 17.72345 2.40799.6564 7.98463 6.14075 21.22352-.42033-1.20838-1.7332 10.55044-3.69019 5.51126-16.9532-1.34763.35186-8.56003 6.49771-13.30543 9.96822-1.31933.96489-3.20132.3151-3.87831.38931z" id="path5853-5"/><path style="display:inline;fill-opacity:1;fill:#000;stroke-dasharray:none;stroke-linecap:butt;stroke-linejoin:miter;stroke-miterlimit:4;stroke-opacity:1;stroke-width:0;stroke:#000" d="m358.3588 420.46955s.90522-3.71477 1.23561-3.80327c-1.21534-3.75726-8.84438-7.8256-8.90737-7.95693-10.52727-21.94918 14.2534-.93604 1.17112.59258.0295-.17605.20585.63851.20585.63851 18.06723-2.3882-15.05115-26.45838-1.90037-1.10352.0103.0448 6.48299 6.86889 8.19516 11.63263z" id="path4332-3-6"/><path style="display:inline;fill-opacity:1;fill:#eaf;stroke-dasharray:none;stroke-linecap:butt;stroke-linejoin:miter;stroke-miterlimit:4;stroke-opacity:1;stroke-width:0;stroke:#000" d="m358.60185 420.24234s.90522-3.71476 1.2356-3.80326c-1.21533-3.75726-8.84466-7.82546-8.90736-7.95694-10.51953-22.05892 14.79918-.81495 1.17111.59259.0295-.17605.20585.63851.20585.63851 18.59901-2.19315-16.36615-26.99934-1.90036-1.10352.0103.0448 6.48298 6.86889 8.19516 11.63262z" id="path4334-7-6"/><path style="display:inline;fill-opacity:1;fill:#000;stroke-dasharray:none;stroke-linecap:butt;stroke-linejoin:miter;stroke-miterlimit:4;stroke-opacity:1;stroke-width:0;stroke:#000" d="m351.75838 410.19916s-.0402-.24272-.17351-.71431c-20.6074 7.681-6.89527-22.17686-.16577-1.60176.0252.077-3.37763 8.23048-2.89317 10.45879.66187-.20196 3.10181 4.16632 3.10181 4.16632-1.2295-5.89337.27249-14.69057.24656-14.77148-8.33078-25.98859-23.21991 14.23924-.11586 2.46243z" id="path4336-6-4"/><path style="display:inline;fill-opacity:1;fill:#eaf;stroke-dasharray:none;stroke-linecap:butt;stroke-linejoin:miter;stroke-miterlimit:4;stroke-opacity:1;stroke-width:0;stroke:#000" d="m352.00143 409.97197s-.0402-.24273-.17352-.71432c-20.56708 7.61314-6.91981-22.94111-.16578-1.60175.0244.0772-3.37763 8.23048-2.89316 10.45878.66187-.20195 3.10181 4.16632 3.10181 4.16632-1.22951-5.89336.27401-14.69108.24655-14.77148-9.06764-26.54947-23.333 14.16775-.11586 2.46243z" id="path4338-4-9"/><path style="display:inline;fill-opacity:1;fill:#000;stroke-dasharray:none;stroke-linecap:butt;stroke-linejoin:miter;stroke-miterlimit:4;stroke-opacity:1;stroke-width:0;stroke:#000" d="m221.6569 423.82583s-1.4474-3.53892-1.78727-3.57732c.64327-3.89619 7.58295-9.05339 7.6255-9.19269 5.56195-18.20892-10.27027 2.44141-1.07001.76009-.0553-.16971-.10864.66202-.10864.66202-12.47444 1.36473 9.0497-22.8518 1.7152-1.37377-.004.0458-5.38981 7.75633-6.37478 12.72167z" id="path4332-3-9-0"/><path style="display:inline;fill-opacity:1;fill:#eaf;stroke-dasharray:none;stroke-linecap:butt;stroke-linejoin:miter;stroke-miterlimit:4;stroke-opacity:1;stroke-width:0;stroke:#000" d="m221.38278 423.63728s-1.4474-3.53891-1.78727-3.57732c.64327-3.89618 7.57588-9.05573 7.6255-9.1927 6.47204-17.86415-10.93432 2.02596-1.07.76011-.0554-.16971-.10864.66201-.10864.66201-13.43477 2.55476 10.70651-23.48257 1.71519-1.37376-.004.0458-5.38981 7.75633-6.37478 12.72166z" id="path4334-7-2-6"/><path style="display:inline;fill-opacity:1;fill:#000;stroke-dasharray:none;stroke-linecap:butt;stroke-linejoin:miter;stroke-miterlimit:4;stroke-opacity:1;stroke-width:0;stroke:#000" d="m226.65718 412.68834s.004-.246.0654-.73217c21.72011 4.11951 2.88094-20.98739-.0742-1.6086-.0122.0801 4.56365 7.6369 4.41583 9.91247-.68454-.10132-2.44797 4.58114-2.44797 4.58114.33972-6.01066-2.45857-14.48783-2.43976-14.57069 5.31968-23.43106 25.32651 10.578.48063 2.41785z" id="path4336-6-6-0"/><path style="display:inline;fill-opacity:1;fill:#eaf;stroke-dasharray:none;stroke-linecap:butt;stroke-linejoin:miter;stroke-miterlimit:4;stroke-opacity:1;stroke-width:0;stroke:#000" d="m226.38305 412.4998s.004-.246.0654-.73217c21.825 4.21533 4.23573-21.26198-.0742-1.6086-.0173.0791 4.56365 7.6369 4.41583 9.91246-.68454-.10131-2.44798 4.58115-2.44798 4.58115.33974-6.01066-2.45828-14.48778-2.43975-14.57069 5.43171-24.30662 25.31159 10.66734.48064 2.41784z" id="path4338-4-4-9"/><path style="display:inline;fill-opacity:1;fill-rule:evenodd;fill:#fff;opacity:1;stroke-dasharray:none;stroke-linecap:butt;stroke-linejoin:miter;stroke-miterlimit:4;stroke-opacity:1;stroke-width:0;stroke:#000" d="m365.37357 281.798c-.32745 1.07095.008 2.03659-.33144 2.87146-3.37514-.44813-4.56495 1.98352-7.98988 1.58066-2.42396-.28511-4.98934-2.88572-7.42757-3.14801-2.39996-.25819-4.54066 1.93793-6.94597 1.70195-2.53802-.24898-5.3407-2.92878-7.87498-3.15292-3.25195-.28761-5.96858 1.77215-9.1958 1.52569-2.82372-.21563-6.16213-2.74232-8.9519-2.92627-2.75453-.18162-5.88529 2.79351-8.59318 2.64297-2.42583-.13486-4.43413-3.39849-6.81229-3.50829-2.70865-.12506-5.2512 2.4421-7.88453 2.34971-3.01482-.10575-6.1076-2.86593-9.00355-2.92858-3.16336-.0684-6.38139 2.68116-9.37607 2.66449-3.22656-.018-6.21501-2.79803-9.21198-2.75548-2.41626.0343-4.62021 2.53159-6.86666 2.60551-2.92729.0963-5.83468-2.21689-8.43769-2.05288-2.65387.16721-4.46841 2.69662-6.74259 2.93472-2.73231.2861-3.15793-1.89084-5.27377-1.50154-.27677-.78022-.0669-1.6429-.22933-2.57421 13.5597-3.29884 50.46891-6.42454 127.14918 3.67102z" id="path3088-3-0-0-0-2-6-7-4-6-4-5"/><path style="display:inline;fill-opacity:1;fill-rule:evenodd;fill:#fff;opacity:1;stroke-dasharray:none;stroke-linecap:butt;stroke-linejoin:miter;stroke-miterlimit:4;stroke-opacity:1;stroke-width:0;stroke:#000" d="m368.50738 249.23632-.26828 6.65854-125.47383-5.51138.91151-5.57161c2.7038-1.35916 3.73967-4.26144 6.94607-5.20827 3.75855-1.10988 3.01219 1.18324 7.29411.56708 4.3145-.62084 4.77619-3.74216 9.43812-3.94185 4.41523-.18913 5.35037 1.39878 9.91598 1.51717 1.11616.0289 3.71833-2.1004 6.81576-2.44417 3.0706-.34078 5.77599 2.81672 8.85483 2.95397 3.12943.13951 4.379-2.65607 7.74374-2.66372 2.94496-.007 4.24222 3.07175 7.05441 3.04709 2.39646-.021 5.21151-2.29174 7.43032-1.72729 2.95141.75082 4.36841 2.99269 6.09349 3.18373 4.15336.45995 5.72259-1.66487 9.63521-1.09895 4.14845.60003 3.909 2.9234 7.63918 3.57825 3.96603.69626 5.41523-1.68879 8.7312-1.00774 3.63973.74755 5.63476 3.92003 8.49661 4.99337 2.04995.76885 4.71372.11176 6.38746.43594 2.86665.55525 6.39754 2.12088 6.35411 2.23984z" id="path3180-8-0-7-5-5-9"/><path style="display:inline;fill-opacity:1;fill-rule:evenodd;fill:#eaf;opacity:1;stroke-dasharray:none;stroke-linecap:butt;stroke-linejoin:miter;stroke-miterlimit:4;stroke-opacity:1;stroke-width:0;stroke:#000" d="m368.67948 251.00409c-.22367 1.20922.7087 15.86681-3.4688 31.76896-46.54781-4.89707-106.51619-7.3019-126.75697-4.35099-1.04386-11.48092 4.87886-31.84242 4.87886-31.84242 34.54653-12.61017 71.10517-6.9819 125.34691 4.42445z" id="path3180-8-2-7-0-0"/><path id="path1686-7-77-70-6-0-7-3-8-7-7-1-1-9-7" d="m289.80452 246.27599c-.42505-.0293-2.81766.0864-4.27946-.96712-4.12406-2.97227-6.19364-4.89988-6.73099-4.94764-2.51562 4.78237.71448 8.24751-.30995 9.15879-2.34278 2.0841-3.18677 4.05494-3.20293 7.68013-97e-5.29722-5.65906.60726-5.63161.9026.0272.29232 5.73905.57053 5.79551.8589.0767.39408.18156.78439.31527 1.16896.0898.25838-8.13064 1.68375-8.01413 1.9364.1291.27981 8.59815-.61381 8.76097-.34255.24856.41405.5371.81726.86767 1.20684.13178.15527-4.2015 2.27192-4.05618 2.42276.12851.13343 4.73416-1.6985 4.87339-1.56891 4.46622 4.42846 14.07414 5.34722 20.80222 2.1051.18423-.11057 4.01651 2.94182 4.18799 2.82217.18436-.12863-3.2931-3.42996-3.12328-3.56848.39871-.32531.75749-.67713 1.07738-1.0516.15951-.18668 7.11345 2.64029 7.2537 2.44283.1825-.25701-6.45536-3.54202-6.30494-3.81542.27016-.49102.48894-1.00679.65798-1.5412.0745-.23526 5.45481.54382 5.51007.30183.0503-.22082-5.22275-1.46216-5.18808-1.68773.55148-3.58837.92301-5.55783-1.44369-8.07844-1.15989-1.23532 2.38397-2.30831 1.71775-8.27865-1.43161.0848-4.27667 1.2686-9.45262 2.99542-1.43903.48009-3.36933-.13197-4.08232-.15503z" class="skin"/></svg>