<svg viewBox="0 0 560 1e3"><path style="display:inline;fill-opacity:1;fill-rule:evenodd;fill:#000;stroke-dasharray:none;stroke-linecap:butt;stroke-linejoin:miter;stroke-miterlimit:4;stroke-opacity:0;stroke-width:3.02935934;stroke:#000" d="m300.39583 218.87955c2.88085-3.50481 6.15719-4.57678 3.22635-5.38665-7.83122-2.16398-6.65602-5.15553-29.53589-8.46494.072.004-5.49099-.47931-14.42275-6.81166-19.3222-10.55064-36.04435-32.39278-46.95443-39.98591 61.75318-23.23006 69.61352-21.16285 78.06982-30.94413-2.329-15.1308.34231-41.296096-9.99815-37.80946-76.37618 25.75281-113.0731 60.65879-113.20556 65.34697-2.74126 6.32503 70.4485 76.97045 113.00103 105.12602 9.89979-18.57727 19.44175-40.69055 19.81958-41.07024z" id="path5819"/><path style="display:inline;fill-opacity:1;fill-rule:evenodd;fill:#ff6db6;stroke-dasharray:none;stroke-linecap:butt;stroke-linejoin:miter;stroke-miterlimit:4;stroke-opacity:0;stroke-width:3;stroke:#000" d="m300.48784 216.69956c2.82896-3.50026 6.04627-4.57084 3.16823-5.37966-7.69014-2.16117-6.53612-5.14882-29.00381-8.45395.0707.004-5.39207-.47868-14.16293-6.80281-19.01625-10.54744-33.62339-30.55331-46.00667-39.93401 60.64073-23.19989 68.29577-21.15557 76.59974-30.92415-2.28703-15.11115 1.16589-37.867896-8.98829-34.385787-75.0003 25.719387-111.90411 57.225657-112.0342 61.907737-2.69187 6.31682 69.17942 76.87054 110.96539 104.98956 9.72145-18.55316 19.09151-40.63773 19.46254-41.01693z" id="path5821"/><path style="display:inline;fill-opacity:1;fill:#3e89b8;stroke-dasharray:none;stroke-linecap:butt;stroke-linejoin:miter;stroke-miterlimit:4;stroke-opacity:1;stroke-width:0;stroke:#000" d="m270.5053 137.82793c.23286-96e-5 8.01171-1.6331 11.15553-3.69667 3.47678-3.69501-6.35165-25.90057-13.03338-39.14368-4.39807 2.350839-13.38676 5.4038-13.38676 5.4038s9.87836 17.64547 15.26461 37.43655z" id="path4019-8-9-2-7"/></svg>