<svg viewBox="0 0 560 1e3"><path d="m270.5338 482.97877c-.0376 1.76004-2.02045 3.83248-4.01048 4.5483-1.15043.41382-2.4686.22515-3.29307.20975-1.32257-.0246-3.21162-1.94657-3.43525-2.64695.34139-3.01555 5.65016-5.98161 10.7388-2.1111z" id="path7101" style="fill:#000;stroke-width:1.20045507"/><path d="m269.54342 483.95557c-.0308 1.29991-1.49432 2.56774-3.12144 3.09643-.94062.30563-2.01841.16628-2.69254.15491-1.08137-.0182-2.41567-1.17487-2.59851-1.69215.27913-2.22719 4.25183-4.41784 8.41249-1.55919z" id="path7103" class="areola"/><path d="m261.93232 452.89597c2.77012-5.20025 12.67134-8.60597 13.61531 3.32656.31282.6716-.42209 3.68829-1.30553 7.48225-1.01173 3.70406-1.8139 7.91526-2.20747 12.11136-.30823 3.28632-.39878 6.50735-2.42726 8.56244-1.44274 1.22566-3.77966 1.66875-5.7653 1.63824-1.1668-.0179-3.20807-.0711-3.56578-.34831-1.42375-1.10361-2.23235-2.212-3.41559-3.82709-.14771-.71224.15907-1.0677.0949-1.33764-.80686-3.39589-.55875-8.48887.48219-14.16807.89273-4.8706 2.4192-9.78778 4.49449-13.43974z" id="path7105" style="fill:#000"/><path class="skin penis" d="m262.60911 451.88042c2.47715-5.31578 11.33121-8.79719 12.17535 3.40046.27974.68653-.37745 3.77022-1.16745 7.64849-.90474 3.78635-1.96018 8.02064-2.31213 12.30997-.27564 3.35933-.3566 6.65193-2.17053 8.75268-1.29017 1.25289-3.11355 1.65172-4.88918 1.62053-1.04341-.0184-3.1731-.002-3.49297-.28558-1.27317-1.12811-1.92454-2.13657-2.98264-3.78754-.15392-.47365.14225-1.09143.0849-1.36736-.72152-3.47134-.19534-8.74794.7355-14.55332.79832-4.97881 2.16334-10.00524 4.01915-13.73833z" id="path7107"/></svg>