<svg viewBox="0 0 560 1e3"><path id="path6106-5" d="m236.26799 275.03201c.0502 13.91321.0353 30.86337 3.87188 44.14434.006 20.79598-20.29779 61.93789-15.13987 94.12365 7.25733 16.23416 21.05049 35.60775 38.63571 45.72577 4.49692-8.41639 7.13441-6.5938 19.16009-.74579 29.04563-31.30753 47.39884-33.07397 79.07433-38.75498 5.80218-23.45-3.27089-45.20759-12.33486-64.45759 2.60119-28.42976 11.61158-41.04284 18.02973-70.19236 6.78996-25.57405 6.215-64.63103-20.85141-76.01354-11.87802-1.91625-24.24303-2.06144-29.61419-12.83595-12.45597 5.13207-25.22879 2.90105-29.62457.47363-1.99902 6.18991-13.48133 10.90101-13.80922 10.96913-33.38194 6.93465-37.39566 51.14403-37.39762 67.56369z" style="display:inline;fill-opacity:.39215686;fill:#f59;opacity:1"/></svg>