<svg viewBox="0 0 560 1e3"><path style="display:inline;fill-opacity:1;fill-rule:evenodd;fill:#000;opacity:1;stroke-dasharray:none;stroke-linecap:butt;stroke-linejoin:miter;stroke-miterlimit:4;stroke-opacity:1;stroke-width:0;stroke:#000" d="m368.45236 268.83602c.40069 1.40387.82871 12.89967-6.36035 37.77919-5.42713 18.7819-17.81882 32.23312-18.4152 33.6912-4.00097 7.51635-13.75325 23.27516-4.00111 44.26258 3.32979 7.16599 8.64669 17.01109 8.81852 22.28118.0.0-51.13357 8.2205-62.64279 36.55787-2.06147 4.01155-2.1084 11.81811-3.46792 16.10443-.27859.87834-1.00697 6.35332-3.50565 8.26757-.26944.20641-1.13656 1.14752-4.58251.28177-.17413-.0437-1.37345.71664-3.61847.0361-5.83439-1.76869-6.66978-8.86034-6.76649-9.28816-1.98539-8.78313-6.24957-28.02971-9.43291-34.24779-14.19124-27.72004-27.92284-8.31406-29.23068-10.65039.0948-.56138 3.39068-11.91478 3.61233-12.37926 12.09578-25.34683 14.61742-47.52838 14.78869-62.73152.24452-21.70551-6.08737-33.66342-6.98584-46.20078-1.49474-45.8879 14.06627-60.21021 39.98511-85.99451-.63873-.33426 5.6721-3.49413 10.19663-5.89647 8.56627-13.05657 5.91229-19.70855 7.28412-20.47745 6.69699-3.75361 12.26294-2.00142 18.04713-5.8426 1.19814-.79565-.139 14.13795 5.93052 24.18077 1.50252 1.12706 9.10193 4.89722 7.88644 5.69617-25.72677 16.91039-30.9022 28.84774-29.45936 29.06832 3.13994 1.52155 66.54554 33.43249 67.65165 34.25705z" id="path6015"/><path style="display:inline;fill-opacity:1;fill-rule:evenodd;fill:#ececec;opacity:1;stroke-dasharray:none;stroke-linecap:butt;stroke-linejoin:miter;stroke-miterlimit:4;stroke-opacity:1;stroke-width:0;stroke:#000" d="m369.10102 268.06519c-.0399.30925-.70845 1.20502-.7583 1.68139-.54689 5.22621-1.85627 20.15341-7.57399 36.96023-6.28969 18.48806-14.96309 28.5403-15.90371 29.80104-5.36776 7.1946-10.45038 18.14833-11.79001 29.08338-1.1072 9.03783 13.31479 33.01787 18.51907 47.62433-40.10653 11.44456-65.04562 43.06204-65.81729 45.39981-.78385 1.88787-4.09482 9.15162-6.59172 10.93203-1.21712.86786-4.70932-.28121-4.96126-.30531-.29397-.0276-.88427.45308-3.09709-.11926-5.65546-1.4629-9.82931-5.24379-10.40142-7.19449-18.43111-29.49711-31.00062-46.48926-35.72603-47.67821 7.94787-20.31139 14.53739-34.1848 15.52113-39.29132 2.40743-12.49684 4.34652-31.04582 4.51599-33.91997 1.27707-21.66848-5.53672-33.8742-6.42575-46.41156-6.37265-49.60898 17.56318-82.09335 38.32548-88.64617.49229-.51848 5.43756-2.25669 9.91452-4.65903 7.12161-5.93033 6.35895-16.89914 7.55627-16.86248.45958.0141 4.79182-.31246 8.74612-3.05157 3.05665-2.11732 5.60286-7.02803 7.7428-5.86895 2.33341 1.26387-1.05836 9.80473 6.88797 23.64372 1.48672 1.12706 18.35682 6.19296 18.8887 7.53532.72196.25538 19.35863-3.36855 30.2896 22.43723 1.93173 4.72337 3.48808 12.8251 3.64055 20.34126.19882 9.80086-1.50163 18.56858-1.50163 18.56858z" id="path6017"/><path style="display:inline;fill-opacity:1;fill-rule:nonzero;fill:#000;opacity:1;stroke-dasharray:none;stroke-dashoffset:0;stroke-linecap:round;stroke-linejoin:bevel;stroke-miterlimit:4;stroke-opacity:1;stroke-width:0;stroke:#000;vector-effect:none" d="m337.64352 257.62623c0 12.05744-9.65838 21.12482-22.00872 21.12481-12.35032-1e-5-19.88736-8.1835-19.88736-20.24093s7.18349-22.00869 19.53381-22.0087c12.35034-1e-5 22.36227 9.06737 22.36227 21.12482z" id="path1626-7"/><path style="display:inline;fill-opacity:1;fill-rule:nonzero;fill:maroon;opacity:1;stroke-dasharray:none;stroke-dashoffset:0;stroke-linecap:round;stroke-linejoin:bevel;stroke-miterlimit:4;stroke-opacity:1;stroke-width:0;stroke:#000;vector-effect:none" d="m335.88464 257.47534c0 11.11008-8.8643 19.46505-20.19925 19.46504-11.33492-1e-5-18.25229-7.54053-18.25229-18.65061.0-11.11007 6.59289-20.27947 17.92781-20.27948 11.33495-1e-5 20.52373 8.35496 20.52373 19.46505z" id="path1626-1-3"/><path style="display:inline;fill-opacity:1;fill-rule:nonzero;fill:#000;opacity:1;stroke-dasharray:none;stroke-dashoffset:0;stroke-linecap:round;stroke-linejoin:bevel;stroke-miterlimit:4;stroke-opacity:1;stroke-width:0;stroke:#000;vector-effect:none" d="m332.13464 257.85034c0 1.07575-.1163 3.28388-.22379 4.24996-4.84718-.34911-11.93835-.85256-13.51634-.93559.12383.70926.8116 7.39477 1.67901 12.94663-.74707.0528-4.2098.079-5.01313.079-.74773.0-3.45666-.2094-4.12864-.2536.72554-4.50941 1.98264-11.92327 1.97052-12.70919-.86746-.004-6.83155.66357-11.67213 1.11013-.0324-.79201.078-3.43283.078-4.29795.0-1.08475.0223-3.42179.0732-4.38754 3.97131.6151 10.06547 1.47574 11.16789 1.36756-.44591-2.06727-.53984-7.0986-1.49337-12.69678.90273-.0839 2.87765-.18772 3.9301-.18772 1.08.0 3.92238.1043 4.90189.18956-.48493 3.32213-.8388 10.9689-1.0758 12.58219 2.08648-.3006 7.95423-.8584 13.18238-1.44686.0518.68473.1403 3.64793.1403 4.39016z" id="path1626-1-2-1"/><path style="display:inline;fill-opacity:1;fill-rule:nonzero;fill:#ececec;opacity:1;stroke-dasharray:none;stroke-dashoffset:0;stroke-linecap:round;stroke-linejoin:bevel;stroke-miterlimit:4;stroke-opacity:1;stroke-width:0;stroke:#000;vector-effect:none" d="m330.9856 257.7809c0 1.0105-.23732 2.22232-.33744 3.12979-.40686.086-.65494-.86561-1.0922-.86629-4.32188-.007-10.40707.23321-11.74164.16229.10665.61614-.30227 6.684-.14503 11.64862.0128.40372.77813.80469.79361 1.20013-.69575.0495-2.63052.0743-3.37867.0743-.69637.0-2.05814-.19671-2.68395-.23821.0343-.38364.81933-.65826.85234-1.08207.32779-4.20795.6445-11.02921.63423-11.6999-.72233-.004-5.99296-.14362-10.14198-.25347-.49125-.013-.93459.77059-1.41185.76022-.0301-.74396-.0564-1.8448-.0564-2.65745.0-1.01894-.0223-2.17936.0251-3.08654.48622.0262.92982.97904 1.48839 1.0021 3.49265.1442 8.86322.0109 9.74835-.0767-.0648-1.64989-.29294-7.71904-.44407-11.42887-.0149-.36563-.73657-.71532-.75065-1.04397.84072-.0788 1.6909-.30569 2.67108-.30569 1.0058.0 2.70687.0548 3.61908.13494-.0129.37951-.64754.86406-.66542 1.34775-.13115 3.54845.0946 9.94717.16523 11.24286 1.79477-.0218 6.69443.29048 11.3364.0814.38375-.0173.92043-.98566 1.29879-1.00482.0483.64319.21667 2.26244.21667 2.95965z" id="path1626-1-2-0-1"/><path style="display:inline;fill-opacity:1;fill-rule:nonzero;fill:#000;opacity:1;stroke-dasharray:none;stroke-dashoffset:0;stroke-linecap:round;stroke-linejoin:bevel;stroke-miterlimit:4;stroke-opacity:1;stroke-width:0;stroke:#000;vector-effect:none" d="m319.79428 257.64898c-1.27548 1.74405-2.39556 3.08262-3.93289 4.49761-1.7765-1.68029-2.29676-2.34954-3.85126-4.31466 1.07619-1.43453 2.21492-2.91493 3.62931-4.55558 1.89608 1.54764 2.48077 2.27482 4.15484 4.37263z" id="path1626-1-7-3"/><path style="display:inline;fill-opacity:1;fill-rule:nonzero;fill:#fff;opacity:1;stroke-dasharray:none;stroke-dashoffset:0;stroke-linecap:round;stroke-linejoin:bevel;stroke-miterlimit:4;stroke-opacity:1;stroke-width:0;stroke:#000;vector-effect:none" d="m319.26303 257.68134c-1.09114 1.49521-2.04934 2.64278-3.36449 3.85587-1.51975-1.44053-1.96482-2.0143-3.29467-3.69904.92067-1.22983 1.89482-2.49901 3.1048-3.90557 1.62205 1.32682 2.12224 1.95025 3.55436 3.74874z" id="path1626-1-7-8-4"/><path style="display:inline;fill-opacity:1;fill-rule:nonzero;fill:maroon;opacity:1;stroke-dasharray:none;stroke-dashoffset:0;stroke-linecap:round;stroke-linejoin:bevel;stroke-miterlimit:4;stroke-opacity:1;stroke-width:0;stroke:#000;vector-effect:none" d="m317.40987 258.40558c0 .90125-.70487 1.57899-1.6062 1.57899s-1.45138-.61168-1.45138-1.51293c0-.90124.34748-2.57314 2.33156-2.66153-2.45743 2.43068.72602 1.69422.72602 2.59547z" id="path1626-1-8-9"/></svg>