<svg viewBox="0 0 560 1e3"><path d="m314.5 190.8c-.2.4-.5.7-.7 1-6.2 5.7-10.9 7.3-14.3 7-6.1-.5-7.7-5.8-7.9-6.3-.7-2.1-.5-5.2.8-6.4 1.3-1.4 2.5-1.4 3.3.7.2.5 3.5 8.6 15.9-2.8 1.3-1.2 2.8-.4 3.4 1.8.4 1.7.2 3.7-.5 5" id="path7-2" style="fill:#f2f24c"/><path d="m299.8 198.4c-6 0-7.8-4.9-8-5.3-.8-1.9-.7-4.8.5-6.1 1.2-1.4 2.4-1.5 3.2.4.2.5 3.8 7.8 15.4-3.8 1.2-1.2 2.7-.5 3.4 1.4.7 2 .3 4.5-.9 5.7-5.8 5.8-10.3 7.7-13.6 7.7z" id="path9-88" style="fill:#f7d548"/><path d="m299.51052 201.06629c-.71528.0-1.43055-.20173-2.04365-.50434-1.32837-.70607-2.04365-2.11822-2.04365-3.53037.0-.70607.20437-1.41215.51092-2.01736.40873-.70607 1.02182-1.31128 1.7371-1.61388.20436-.10087.51091.0.71527.20174.10219.20173.0.50433-.20436.70607-.51091.3026-1.02183.70607-1.32837 1.21041-.30655.50434-.40873 1.00868-.40873 1.51302.0 1.10955.61309 2.11822 1.53273 2.72343.51092.3026 1.02183.40347 1.53274.40347 1.12401.0 2.14583-.60521 2.75893-1.51302.30654-.50433.40873-1.00867.40873-1.51301.0-1.10955-.6131-2.11823-1.53274-2.72343-.20437-.10087-.30655-.40347-.20437-.70608.10219-.20173.40873-.3026.71528-.20173 1.32837.70607 2.04365 2.11822 2.04365 3.53037.0.70607-.20436 1.41215-.51091 2.01736-.81746 1.21041-2.14583 2.01735-3.67857 2.01735z" id="path11-8-0" style="display:inline;fill-opacity:1;fill:#000;stroke-width:1.01522982"/><path d="m299.73258 201c-.7.0-1.4-.2-2-.5-1.3-.7-2-2.1-2-3.5.0-.7.2-1.4.5-2 .4-.7 1-1.3 1.7-1.6.2-.1.5.0.7.2.1.2.0.5-.2.7-.5.3-1 .7-1.3 1.2s-.4 1-.4 1.5c0 1.1.6 2.1 1.5 2.7.5.3 1 .4 1.5.4 1.1.0 2.1-.6 2.7-1.5.3-.5.4-1 .4-1.5.0-1.1-.6-2.1-1.5-2.7-.2-.1-.3-.4-.2-.7.1-.2.4-.3.7-.2 1.3.7 2 2.1 2 3.5.0.7-.2 1.4-.5 2-.8 1.2-2.1 2-3.6 2z" id="path11-8" style="fill:#fefff2"/></svg>