<svg viewBox="0 0 560 1e3"><path id="path2820" d="m346.23354 145.63979c-.34666-1.06752-15.52249 34.78786-17.49539 36.25027-2.77552 2.05735-8.32727 5.8526-11.14383 3.21543-2.27691-2.13193 8.01881-58.70029 7.82685-59.23158-.84895-2.34951-29.76167-39.444686-42.86774-36.364832-8.7081 2.046354-20.24267 19.867962-18.43828 31.859592.0.0 1.61491 8.1466 1.57217 8.89547-.14118 2.47236-2.09447 17.96581-2.32549 16.64856-.0693-.39448 3.70229 30.47293 22.33654 38.64035.0113.45077 13.13651-.40044 26.48303-8.51655 7.8468-4.7717 28.80392-29.81044 34.18361-40.81631 2.66894 34.28452 21.65401 89.60848 7.7249 93.85947-12.88631 6.18634-88.30268 9.94543-105.29684-.17698-6.68813-8.16891 7.30688-101.00748 7.27974-101.12268-.21639-.94005.18431-48.096343 40.03484-54.030492 45.43365-5.835919 52.47089 56.449212 50.12589 70.890282z" style="display:inline;fill-opacity:1;fill-rule:nonzero;fill:#000;opacity:1;stroke-dasharray:none;stroke-linecap:butt;stroke-linejoin:miter;stroke-miterlimit:4;stroke-opacity:0;stroke-width:2.49378181;stroke:#000"/><path id="path2822" d="m344.93995 145.51461c-.33912-1.06457-15.18449 34.57515-17.11442 36.02286-2.71508 2.03667-6.6786 5.79843-9.43382 3.15997-2.22734-2.13296 8.20488-57.9424 8.01709-58.47233-.83046-2.34342-30.94162-39.894677-43.76231-36.884806-8.51847 1.999853-20.83074 19.868306-19.06564 31.817826.0.0 1.50812 8.55944 1.46629 9.305-.1381 2.46145-1.38067 17.26861-1.60666 15.95585-.0677-.39313 4.05399 30.36394 22.28247 38.57857.011.44892 12.85047-.34152 25.90636-8.3656 7.67594-4.71759 28.1767-29.56055 33.43925-40.49708 2.61083 34.15322 21.18247 89.32926 7.55669 93.5018-12.60572 6.10436-86.37985 9.51899-103.00397-.63533-6.54248-8.16401 7.14778-100.55447 7.12122-100.6693-.21167-.93708.1803-47.895011 39.16307-53.630671 44.44431-5.613497 51.32832 56.442621 49.03438 70.813241z" style="display:inline;fill-opacity:1;fill-rule:nonzero;fill:maroon;opacity:1;stroke-dasharray:none;stroke-linecap:butt;stroke-linejoin:miter;stroke-miterlimit:4;stroke-opacity:0;stroke-width:2.46133304;stroke:#000"/><path id="path2824" d="m264.92645 130.94398c-.50379.16864-3.84726-23.50953-.17233-33.239681 3.34237-8.849586 9.71263-13.476798 11.43851-14.663555 2.29582-1.578667 24.5619-14.636429 43.91259-3.132662 15.81173 9.399898 14.81653 33.965348 14.89595 34.482778.081.52745.0636 8.31276-1.02578 15.32456-4.24385-1.19221-11.9324 5.34041-17.7584 3.96874-2.11641-8.77407-18.62381-13.985-30.09892 2.27667-9.78353-12.70689-20.77518-11.48166-21.19162-5.01685z" style="display:inline;fill-opacity:1;fill-rule:evenodd;fill:maroon;opacity:1;stroke-dasharray:none;stroke-linecap:butt;stroke-linejoin:miter;stroke-miterlimit:4;stroke-opacity:0;stroke-width:3;stroke:#000"/><path id="path2826" d="m338.31494 136.00984c-12.4689-18.47322-24.9661-20.78645-51.42889-21.27926-30.84305-.57438-26.87251 14.11475-27.73407 11.84508.0364-6.33837 4.80245-14.08291 4.72384-28.058251-.0485-8.628225 15.22144-55.752482 47.29991-80.205161 4.87211 34.649261 26.64555 73.454024 25.74908 84.021862-1.15758 13.64586 2.65753 25.58396 1.39013 33.67573z" style="display:inline;fill-opacity:1;fill-rule:evenodd;fill:#000;opacity:1;stroke-dasharray:none;stroke-linecap:butt;stroke-linejoin:miter;stroke-miterlimit:4;stroke-opacity:0;stroke-width:2.92175102;stroke:#000"/><path id="path2828" d="m340.09823 142.92458c-12.18384-18.50631-27.15912-25.60519-53.01696-26.09889-30.13795-.57541-28.33101 17.5048-29.17286 15.23108.0355-6.34973 2.88388-18.47177 5.65225-32.181662 1.85267-9.174959 16.78451-55.271086 47.25501-79.640439 4.76074 34.71132 24.30906 69.335344 26.54232 84.349441 2.01735 13.5626 3.97867 30.23421 2.74024 38.34047z" style="display:inline;fill-opacity:1;fill-rule:evenodd;fill:maroon;opacity:1;stroke-dasharray:none;stroke-linecap:butt;stroke-linejoin:miter;stroke-miterlimit:4;stroke-opacity:0;stroke-width:2.89074636;stroke:#000"/><path id="path2830" d="m284.42142 192.41542c-7.37148-6.09318-32.74787-10.76363-24.36783-58.4992.13249-.75471 4.60337-1.16672 4.75074-1.94331 1.42316 9.35859 17.20549 5.50571 21.5887-2.02918 12.96265 15.75319 35.76947 1.56721 35.76947 1.56721s6.02633-3.22392 6.4754-1.6595c1.64885 5.74398-.18284 24.19026.39797 32.36738-11.51503 29.06344-37.89204 34.21479-44.61445 30.1966z" style="display:inline;fill-opacity:1;fill-rule:evenodd;fill:maroon;opacity:1;stroke-dasharray:none;stroke-linecap:butt;stroke-linejoin:miter;stroke-miterlimit:4;stroke-opacity:0;stroke-width:2.88784504;stroke:#000"/><path id="path2798-3" d="m298.75264 97.908476c0 6.154844-5.05333 10.783384-11.51511 10.783374-6.46177.0-10.4052-4.17735-10.4052-10.332188.0-6.154839 3.75845-11.234561 10.22022-11.234566 6.46178-5e-6 11.70009 4.628531 11.70009 10.78338z" style="display:inline;fill-opacity:1;fill-rule:nonzero;fill:#000;opacity:1;stroke-dasharray:none;stroke-dashoffset:0;stroke-linecap:round;stroke-linejoin:bevel;stroke-miterlimit:4;stroke-opacity:1;stroke-width:0;stroke:#000;vector-effect:none"/><path id="path2800-5" d="m297.83238 97.831453c0 5.671257-4.63786 9.936137-10.56838 9.936127-5.93051.0-9.54972-3.84914-9.54972-9.520393.0-5.671249 3.44944-10.351863 9.37995-10.351868 5.93052-5e-6 10.73815 4.264875 10.73815 9.936134z" style="display:inline;fill-opacity:1;fill-rule:nonzero;fill:maroon;opacity:1;stroke-dasharray:none;stroke-dashoffset:0;stroke-linecap:round;stroke-linejoin:bevel;stroke-miterlimit:4;stroke-opacity:1;stroke-width:0;stroke:#000;vector-effect:none"/><path id="path2802-0" d="m295.87036 98.022875c0 .549128-.0609 1.67629-.11709 2.169435-2.53608-.17821-6.24622-.435197-7.07184-.477581.0648.362051.42463 3.774741.87847 6.608741-.39087.0269-2.2026.0403-2.6229.0403-.39122.0-1.80855-.10689-2.16014-.12945.37961-2.30188 1.03733-6.08636 1.03099-6.487539-.45386-.002-3.57431.338729-6.10693.566679-.017-.404292.0408-1.752325.0408-2.193935.0-.553721.0117-1.746687.0383-2.239664 2.07782.313984 5.26633.753306 5.84312.698085-.2333-1.05526-.28245-3.623553-.78134-6.481201.47231-.04283 1.5056-.09582 2.05625-.09582.56507.0 2.05222.05324 2.56471.09676-.25372 1.695815-.43887 5.599187-.56287 6.422707 1.09166-.153444 4.16171-.438179 6.89711-.738564.0271.349527.0734 1.862123.0734 2.241002z" style="display:inline;fill-opacity:1;fill-rule:nonzero;fill:#000;opacity:1;stroke-dasharray:none;stroke-dashoffset:0;stroke-linecap:round;stroke-linejoin:bevel;stroke-miterlimit:4;stroke-opacity:1;stroke-width:0;stroke:#000;vector-effect:none"/><path id="path2804-6" d="m295.26917 97.987429c0 .51582-.12416 1.134406-.17655 1.597633-.21287.0439-.34267-.441859-.57144-.442206-2.26124-.0036-5.44505.119044-6.14331.08284.0558.314515-.15815 3.411914-.0759 5.946154.007.20609.40712.41076.41522.61262-.36402.0253-1.3763.0379-1.76774.0379-.36435.0-1.07683-.10041-1.40426-.1216.0179-.19583.42868-.33601.44595-.55235.1715-2.14799.33721-5.629971.33183-5.972332-.37793-.002-3.13556-.07331-5.30635-.129386-.25703-.0066-.48898.393355-.73869.388062-.0157-.379762-.0295-.941697-.0295-1.356523.0-.520128-.0117-1.112476.0131-1.575556.2544.01337.48649.499761.77874.511533 1.82738.07361 4.6373.0056 5.1004-.03915-.0339-.842203-.15327-3.940263-.23234-5.833983-.008-.18664-.38538-.365143-.39274-.532905.43987-.04022.88469-.156043 1.39752-.156043.52624.0 1.41626.02797 1.89353.06888-.007.193724-.3388.441068-.34815.687972-.0686 1.811343.0495 5.077635.0865 5.739033.93903-.01113 3.50257.148279 5.93128.04155.20078-.0088.48157-.503141.67953-.512921.0253.328323.11337 1.154886.11337 1.510784z" style="display:inline;fill-opacity:1;fill-rule:nonzero;fill:#ececec;opacity:1;stroke-dasharray:none;stroke-dashoffset:0;stroke-linecap:round;stroke-linejoin:bevel;stroke-miterlimit:4;stroke-opacity:1;stroke-width:0;stroke:#000;vector-effect:none"/><path id="path2806-6" d="m289.4138 97.920089c-.66734.890268-1.25337 1.573555-2.05772 2.295851-.92947-.857721-1.20168-1.199347-2.015-2.202462.56307-.732271 1.15886-1.487956 1.89888-2.325443.99204.790009 1.29795 1.161205 2.17384 2.232054z" style="display:inline;fill-opacity:1;fill-rule:nonzero;fill:#000;opacity:1;stroke-dasharray:none;stroke-dashoffset:0;stroke-linecap:round;stroke-linejoin:bevel;stroke-miterlimit:4;stroke-opacity:1;stroke-width:0;stroke:#000;vector-effect:none"/><path id="path2808-5" d="m289.13585 97.936607c-.5709.763246-1.07223 1.349034-1.76033 1.968269-.79514-.735334-1.02801-1.02822-1.72379-1.888213.4817-.627779.99138-1.275645 1.62445-1.993638.84867.677289 1.11037.995525 1.85967 1.913582z" style="display:inline;fill-opacity:1;fill-rule:nonzero;fill:#fff;opacity:1;stroke-dasharray:none;stroke-dashoffset:0;stroke-linecap:round;stroke-linejoin:bevel;stroke-miterlimit:4;stroke-opacity:1;stroke-width:0;stroke:#000;vector-effect:none"/><path id="path2810-7" d="m288.16626 98.306303c0 .460052-.36879.806012-.84037.806012-.47159.0-.75938-.312239-.75938-.772291.0-.460047.18181-1.313486 1.21989-1.358605-1.28574 1.240765.37986.864832.37986 1.324884z" style="display:inline;fill-opacity:1;fill-rule:nonzero;fill:maroon;opacity:1;stroke-dasharray:none;stroke-dashoffset:0;stroke-linecap:round;stroke-linejoin:bevel;stroke-miterlimit:4;stroke-opacity:1;stroke-width:0;stroke:#000;vector-effect:none"/></svg>