<svg viewBox="0 0 560 1e3"><path id="path3282-5-4-0-5-5-3-9" class="shadow" d="m390.51251 482.01997c-1.12037.41865-2.58602 1.44755-3.06247 1.62517-.1673.0624-2.8028-2.4716-2.96505-2.44404-4.20533.71443-8.2497 2.30075-13.72624 4.8025-.20903.0955.2654 4.98556.0532 5.08002-4.01596 1.78795-8.60226 3.38146-14.01181 4.36525-.11776.0214-3.43981-5.12788-3.55799-5.10646-6.16654 1.11783-12.90208 2.24471-20.19062 3.39598-.27648.0437-.841 4.99238-1.11901 5.03501-4.65184.7132-9.51697 1.27797-14.58804 1.64304-.17529.0126-2.66326-4.56863-2.83892-4.55624-6.76487.47704-13.80154.78124-21.05614.86426-.16153.002-1.20703 4.77697-1.36876 4.77797-5.03242.0466-10.06996.14151-15.2691-.18842-.15444-.01-.99395-4.48335-1.14851-4.49343-6.23887-.40681-12.5282-.77903-18.91896-1.68502-.16625-.0236-1.14502 3.73391-1.31133 3.70991-4.39186-.6336-8.80568-1.4158-13.22865-2.36212-.10008-.0214-.35484-3.57843-.45492-3.60003-4.94908-1.06624-9.90832-2.31688-14.85963-3.77032-.11868-.0348-1.64361 2.83645-1.76227 2.80136-3.63359-1.07446-6.95022-2.57508-10.56115-3.89118-.19669-.0717.0707-3.45828-.12589-3.53066-3.7333-1.37442-7.24874-4.13613-10.94444-5.76149-.0549-.0242-2.45362 3.12352-2.50854 3.0993-.52139-.22993-1.04611-.51728-1.56633-.75269-.005.0218-.24173.46758-.23893.48419.003.0154.91302.77777 1.92589 1.23673.16458.0746 2.39404-3.102 2.558-2.97372 1.54395 1.208 4.76296 3.1781 9.84566 5.25938.0559.0229.11475 3.75851.17149 3.78018 3.27996 1.25389 7.43116 3.05505 11.81787 4.3439.0814.0239 1.56286-2.94796 1.64321-2.91979 4.20944 1.47594 8.46992 2.2183 13.46922 3.38148.0977.0227.40198 3.8024.49998 3.82507 4.52377 1.04687 9.88271 1.85704 15.02922 2.62866.11331.017 1.34533-3.68723 1.45893-3.6704 5.52798.81914 10.90534.89611 16.96291 1.30337.0926.006 1.37844 4.65281 1.47113 4.65899 5.42991.36223 11.53839.26202 17.35629.18591.16122-.002.80365-4.56223.96515-4.55862 6.84281.15323 12.45491-.30042 19.17924-.87512.12566-.0107 2.96859 4.39992 3.09443 4.38916 5.44977-.46595 11.12398-.58408 16.65632-1.57911.17871-.0321.91308-4.91437 1.09194-4.94718 6.17744-1.13299 11.62959-1.97932 18.03267-3.10243.10455-.0183 3.89322 5.06822 3.99816 5.08497.74663.11916 15.31315-4.38765 15.58689-4.50097.12035-.0498-.15819-5.52773-.0557-5.6093.28486-.22661 6.97662-2.02171 12.4277-4.4786.0531-.024 2.87363 2.26414 2.93127 2.24524 1.23295-.4032 2.26578-1.28644 3.31287-1.71011z"/><path id="path2188-0-6-8" d="m370.45236 269.21102c.40069 1.40387 3.07871 13.77467-.11035 39.40419-2.41401 19.40067-5.18925 37.70585-5.78563 39.16393 11.88028 23.7788 14.86269 53.01654-.82644 69.63321.0.0-66.36927-2.34168-77.87849 25.99569-2.06147 4.01155-2.1084 11.81811-3.46792 16.10443-.27859.87834-1.00697 6.35332-3.50565 8.26757-.26944.20641-1.13656 1.14752-4.58251.28177-.17413-.0437-1.37345.71664-3.61847.0361-5.83439-1.76869-6.66978-8.86034-6.76649-9.28816-1.6737-7.40423-46.11954 12.61666-60.09264 19.37984-2.60222 1.25951-4.32858 2.9642-4.32858 2.9642 4.97328-21.33859 11.84073-46.07126 23.41575-65.94944-11.70295-42.60692 5.50629-73.38887 10.13629-95.49544-7.87076-86.73226 31.29947-86.30702 44.2246-113.72213-.63873-.33426 3.72755-3.58252 8.25208-5.98486 9.24713 11.38115 27.00794 3.33614 33.08757-1.93217 1.50252 1.12706 8.60193 5.39722 7.38644 6.19617-25.72677 16.91039-30.90217 28.84774-29.45933 29.06832 3.13991 1.52155 68.54551 33.80749 69.65162 34.63205z" style="display:inline;fill-opacity:1;fill-rule:evenodd;fill:#000;opacity:1;stroke-dasharray:none;stroke-linecap:butt;stroke-linejoin:miter;stroke-miterlimit:4;stroke-opacity:1;stroke-width:0;stroke:#000"/><path id="path2191-3-5-4" d="m370.47602 268.94019c-.47811 3.70196 1.28161 21.67784-1.70729 40.76662-3.02097 19.29358-3.72102 33.50804-5.34368 37.99863 9.57623 20.96815 15.2788 50.33587.49309 69.00008.49456.58345.99615 1.17702 1.50461 1.78174 15.5706 19.91859 23.92209 57.82149 25.0696 63.38824.0443.21481.0549.36195.0301.43701-.0744.0285-2.87553 1.59116-3.08523 1.61187-.24967.0247-2.66909-2.57614-2.90308-2.47239-3.76548 1.66966-8.26984 3.28806-13.36775 4.81151-.38887.11621.18143 5.35098-.20407 5.48523-4.80255 1.67253-8.41412 2.87423-14.27134 4.09295-.3584.0746-3.66282-5.0851-4.02418-5.01148-5.97891 1.21801-12.36129 2.30427-19.01773 3.21986-.37859.0521-1.00807 5.18203-1.38841 5.23299-5.75087.77059-9.10799.93476-15.17105 1.4249-.36585.0296-3.07311-4.54128-3.43978-4.51282-6.45776.50121-13.03972.82838-19.64707.95182-.30179.006-1.13397 4.60705-1.43585 4.61183-5.72159.0907-10.30978.0277-15.99861-.20823-.27377-.0113-1.16615-4.6193-1.43969-4.63146-6.10964-.27159-12.15979-.744-18.07086-1.44126-.22365-.0264-1.17804 3.64602-1.39891 3.60371-4.16151-.79722-9.05345-1.40536-13.83342-2.35891-.15644-.0312-.50022-3.72498-.65634-3.75657-4.88021-.98762-9.59854-2.16348-14.10199-3.54353-.22729-.0696-1.54686 2.89939-1.77304 2.82869-4.08252-1.27596-7.25595-2.47203-10.93733-4.10025-.17311-.0766.0186-3.44272-.15358-3.52011-3.81009-1.71261-7.37918-3.62316-10.66202-5.74525-.1108-.0716-2.38213 3.17942-2.50159 3.1241-.12098-.056-1.34706-.65058-1.64864-.85193 7.075-21.02738 14.23186-51.02901 25.28533-64.66314-12.03673-43.20489 7.555-80.23569 9.80166-97.33842-1.99165-16.83136-1.98015-40.94233 2.94339-59.87306 3.84463-13.94035 14.84157-26.75278 39.51485-53.30205.49229-.51848 4.11173-2.9638 8.58869-5.36614 9.14993 11.38115 27.18074 3.33614 33.19646-1.93217 1.48672 1.12706 17.29432 7.50546 17.8262 8.84782 5.59696 13.25538 5.60863 25.94395 12.7896 37.87473 7.32565 13.63251 15.69888 21.68742 21.13892 23.53484z" style="display:inline;fill-opacity:1;fill-rule:evenodd;fill:#5f6ea0;opacity:1;stroke-dasharray:none;stroke-linecap:butt;stroke-linejoin:miter;stroke-miterlimit:4;stroke-opacity:1;stroke-width:0;stroke:#000"/><path style="display:inline;fill-opacity:1;fill:#fff;opacity:1;stroke-dasharray:none;stroke-linecap:butt;stroke-linejoin:miter;stroke-miterlimit:4;stroke-opacity:1;stroke-width:0;stroke:#000" d="M388.75048 477.03475C325.88533 502.30439 219.4127 494.2293 202.18095 472.84059l.50934-1.31436c36.77007 27.20814 144.63321 19.97628 185.47388 3.98034.1385.27852.44728 1.28671.58631 1.52818z" id="path2329-3-0-26-1-6-8-4"/><path style="display:inline;fill-opacity:1;fill:#fff;opacity:1;stroke-dasharray:none;stroke-linecap:butt;stroke-linejoin:miter;stroke-miterlimit:4;stroke-opacity:1;stroke-width:0;stroke:#000" d="m387.06239 472.98347c-63.82717 21.90257-166.29566 15.55515-183.2347-4.80909l.49861-1.17863c36.09645 25.322 140.22164 17.52339 182.04308 4.27362.1385.27852.55398 1.38425.69301 1.7141z" id="path2329-3-0-26-1-4-1-4-7"/><path style="display:inline;fill-opacity:1;fill:#e7bb67;opacity:1;stroke-dasharray:none;stroke-linecap:butt;stroke-linejoin:miter;stroke-miterlimit:4;stroke-opacity:1;stroke-width:0;stroke:#000" d="m203.55359 478.92173c8.51495-28.38984 24.90569-58.3362 35.05008-89.27979l1.51993.57841c-8.38453 32.41858-18.87908 63.04264-25.84818 94.53961-4.19544-1.96694-6.85804-3.20798-10.72183-5.83823z" id="path2329-2-7-4"/><path style="display:inline;fill-opacity:1;fill:#e7bb67;opacity:1;stroke-dasharray:none;stroke-linecap:butt;stroke-linejoin:miter;stroke-miterlimit:4;stroke-opacity:1;stroke-width:0;stroke:#000" d="m226.95772 489.464c7.24497-32.07307 17.36955-64.50147 26.93716-96.11001l2.03771.43067c-7.35074 32.55411-9.7067 66.76448-14.70238 99.31859-4.43458-.94634-9.83791-2.1253-14.27249-3.63925z" id="path2329-3-3-6-7"/><path style="display:inline;fill-opacity:1;fill:#e7bb67;opacity:1;stroke-dasharray:none;stroke-linecap:butt;stroke-linejoin:miter;stroke-miterlimit:4;stroke-opacity:1;stroke-width:0;stroke:#000" d="m256.96019 495.62277c4.12528-33.29707 11.21077-67.27028 17.20686-99.63194l1.98474.31888c-1.1273 33.48562 1.58175 67.71877-.94699 100.73724-5.90886-.17424-12.66842-.58459-18.24461-1.42418z" id="path2329-3-0-5-9-9"/><path style="display:inline;fill-opacity:1;fill:#e7bb67;opacity:1;stroke-dasharray:none;stroke-linecap:butt;stroke-linejoin:miter;stroke-miterlimit:4;stroke-opacity:1;stroke-width:0;stroke:#000" d="m293.97998 497.23072c-.55795-32.66775 1.13471-66.01338 1.96298-100.52941l2.53771-.0997c3.73479 35.86669 11.87466 67.7164 15.34928 99.64702-6.4873.7737-15.28556 1.51121-19.84997.98209z" id="path2329-3-0-2-5-3-0"/><path style="display:inline;fill-opacity:1;fill:#e7bb67;opacity:1;stroke-dasharray:none;stroke-linecap:butt;stroke-linejoin:miter;stroke-miterlimit:4;stroke-opacity:1;stroke-width:0;stroke:#000" d="m333.58147 494.15658c-7.04711-32.54953-12.39888-65.66548-16.83289-99.52156l1.96578-.25435c5.55226 34.08301 23.32978 64.51357 34.0336 96.4501-5.88931 1.26555-12.94565 2.47467-19.16649 3.32581z" id="path2329-3-0-2-4-3-4-1"/><path style="display:inline;fill-opacity:1;fill:#e7bb67;opacity:1;stroke-dasharray:none;stroke-linecap:butt;stroke-linejoin:miter;stroke-miterlimit:4;stroke-opacity:1;stroke-width:0;stroke:#000" d="m371.13216 486.30077c-15.12415-30.24903-25.05372-61.32185-35.32911-95.09726l2.09577-.90902c5.05362 15.805 27.87694 64.14372 46.67297 91.17249-4.07146 1.82226-9.20346 3.50567-13.43963 4.83379z" id="path2329-3-0-2-4-9-2-3-4"/><path style="display:inline;fill-opacity:1;fill:#e7bb67;opacity:1;stroke-dasharray:none;stroke-linecap:butt;stroke-linejoin:miter;stroke-miterlimit:4;stroke-opacity:1;stroke-width:0;stroke:#000" d="m373.2337 386.80975c-40.86096 10.96691-119.8662 10.54178-152.56095-.79596l1.02688-13.68308c47.7592 15.19673 118.66515 7.67595 150.25593 1.79037-.1896.57539.94809 9.28483 1.27814 12.68867z" id="path2329-3-0-26-2-5-7"/><path style="display:inline;fill-opacity:1;fill:#fff;opacity:1;stroke-dasharray:none;stroke-linecap:butt;stroke-linejoin:miter;stroke-miterlimit:4;stroke-opacity:1;stroke-width:0;stroke:#000" d="m373.17962 385.09416c-40.86096 10.96691-119.81999 9.85973-152.51474-1.47801l.61917-9.2167c47.7592 15.19673 119.30968 7.11107 150.90046 1.22549.0448.13789.75883 6.90945.99511 9.46922z" id="path2329-3-0-26-7-4-4-5"/><path style="display:inline;fill-opacity:1;fill:#5f6ea0;opacity:1;stroke-dasharray:none;stroke-linecap:butt;stroke-linejoin:miter;stroke-miterlimit:4;stroke-opacity:1;stroke-width:0;stroke:#000" d="m372.8105 381.66898c-41.39444 10.52696-119.67514 10.16579-151.92859-.97304l.1018-3.04244c45.2592 15.44673 118.71422 7.73201 151.555 1.34643.0135.65352.20001 1.79468.27179 2.66905z" id="path2329-3-0-26-0-5-5-9"/><path style="display:inline;fill-opacity:1;fill:ivory;opacity:1;stroke-dasharray:none;stroke-linecap:butt;stroke-linejoin:miter;stroke-miterlimit:4;stroke-opacity:1;stroke-width:0;stroke:#000" d="m370.39741 269.98904c-27.35909-12.76218-35.35546-63.16932-35.34102-63.50197l1.46471.8232c3.25485-.36024 8.38702 43.07969 33.9257 61.60091.0135.65352-.0118.25036-.0494 1.07786z" id="path2329-3-0-26-0-2-7-0-1"/><path style="display:inline;fill-opacity:1;fill:#e7bb67;opacity:1;stroke-dasharray:none;stroke-linecap:butt;stroke-linejoin:miter;stroke-miterlimit:4;stroke-opacity:1;stroke-width:0;stroke:#000" d="m370.03188 272.9477c-30.26029-11.23523-40.87372-67.32092-39.38479-68.42962l1.69673.72376c6.87878 30.31052 13.48493 52.63826 37.8361 66.47198-.0459.19747-2e-4.6498-.14804 1.23388z" id="path2329-3-0-26-0-2-9-3-6-1"/><path style="display:inline;fill-opacity:1;fill:ivory;opacity:1;stroke-dasharray:none;stroke-linecap:butt;stroke-linejoin:miter;stroke-miterlimit:4;stroke-opacity:1;stroke-width:0;stroke:#000" d="m237.88366 256.38538c4.48819-18.82264 38.92913-50.11135 38.94357-50.444l1.06819-.81083c3.25485-.36024-33.82665 36.9433-40.29394 52.32686.0178-.25259.28331-1.1301.28218-1.07203z" id="path2329-3-0-26-0-2-8-9-5-6"/><path style="display:inline;fill-opacity:1;fill:#e7bb67;opacity:1;stroke-dasharray:none;stroke-linecap:butt;stroke-linejoin:miter;stroke-miterlimit:4;stroke-opacity:1;stroke-width:0;stroke:#000" d="m237.14771 259.87448c3.50569-11.84025 43.46987-53.06507 43.05363-56.28867l1.23961-.76888c.92859 4.54771-38.87914 46.18703-45.13889 60.74808.0178-.25259.75839-3.30666.84565-3.69053z" id="path2329-3-0-26-0-2-8-5-5-3-7"/><path id="path3280-7-2-6-1-7-8" class="shadow" d="m329.90024 425.68202c-15.4791 1.19068-42.0365 26.26041-44.6091 30.99635 10.29989-9.14088 29.75948-26.28541 44.6091-30.99635z"/><path id="path3282-5-4-0-6-7-9" class="shadow" d="m262.15818 457.53031c-6.81704-9.41592-28.83006-31.99347-34.93819-34.15183 5.05404 5.44075 26.5203 25.35081 34.93819 34.15183z"/></svg>