<svg viewBox="0 0 560 1e3"><path id="path8042" d="m241.26312 449.05511c.16387-.0681.42921.0125.58133-.0568 7.23911-3.29612 1.24831-8.03913-.55552-7.81226-4.86791 1.7071-2.99535 6.53331-1.4093 6.79929.0228.0164.18936.42329 1.38348 1.06977z" style="fill:#000"/><path id="path8044" d="m239.95564 447.45952c2.59477 1.55367 5.63-.81601 5.60171-2.14272-.75765-2.15028-2.31349-4.07536-4.46006-3.65754-3.35405 1.30422-3.40179 3.9441-1.77611 5.95402.15937.12237.36667-.0939.63446-.15376z" class="areola"/><path id="path8046" d="m256.76995 460.17742c6.80101 1.89494 13.65428 4.09056 16.0042-1.79922.72515-2.03663.25955-3.47765-1.19284-4.00599-5.9958-1.87132-18.75534-7.35357-22.48371-10.86042-.51477-.78812-.42816-.90168-.95178-1.44259-1.11013-1.14677-2.53727-1.02975-3.70365-.96591-.70291.0385-2.56081-.17782-3.12504.0469-.47396.18876-.84384.45653-1.11349.79813-.0838.1062.5569-.23201.61703-.27732 1.69318-1.27594 8.45749 4.09097.91837 7.23407-.69791.29096-2.83584-1.88042-2.81678-1.80636.12195.47405.93608 1.22029 1.65248 1.69782.42776.28512.91445.39179 1.08776.69785 2.08346 3.67912 6.677 7.71882 15.10745 10.68296z" style="fill:#000"/><path id="path8048" d="m239.35954 445.79315c.0369.27001.36967.81735.7297.91598-.003-.0133-.0885-.47933-.092-.4935-.11646-.47851-.63179-1.88727.20895-3.4684-.84579.95732-.99844 1.9052-.84669 3.04592z" style="fill:#000"/><path id="path8050" class="skin penis" d="m257.1765 459.85636c6.7374 1.87723 13.2119 4.46201 15.84838-1.35675.71837-2.01758.67342-3.16527-.76539-3.68868-6.25125-1.49762-19.44377-7.17514-23.13728-10.64919-.50994-.78076-.42415-.89326-.94289-1.42911-1.09974-1.13604-2.06595-1.40958-3.22141-1.34636-.69634.038-2.45104-.0729-3.04743.0222.16841.1.71816.0551 1.44624.558 1.06239.73375 2.17065 1.97835 2.24547 3.2855.0971 1.69593-2.68839 4.11731-5.56154 2.46312-.1438-.0829-.3777.0761-.47814.11064-.11516.0768 2.70127 1.74365 2.64173 1.87316 2.06395 3.64473 6.62064 7.22099 14.97224 10.15741z"/></svg>