<svg viewBox="0 0 560 1e3"><path class="areola" d="m271.54026 376.44844c.0782 1.21363-.39233 3.20481-1.35826 3.28497-.96592.0802-1.48021-1.74966-1.55841-2.96328-.0782-1.21363.42001-3.09486 1.38594-3.17502.96593-.0802 1.45253 1.6397 1.53073 2.85333z" id="path5405-7-9-0-3"/><path class="areola" d="m271.54026 376.44844c.0782 1.21363-.39233 3.20481-1.35826 3.28497-.96592.0802-1.48021-1.74966-1.55841-2.96328-.0782-1.21363.42001-3.09486 1.38594-3.17502.96593-.0802 1.45253 1.6397 1.53073 2.85333z" id="path5405-7-9-0-4-2"/><path id="path4510-8-4" d="m372.04335 267.10594c1.53464 47.47488-14.25563 73.69993-14.9505 81.05484 1.95915 5.74033 28.70997 48.09836 7.43861 69.26648-15.07792 7.92379-52.69892 16.30119-85.65372 15.75745-1.08977-.018-2.54944-9.01788-3.62802-9.05012-.96198-.0288-1.54412 8.91163-2.49572 8.87129-23.13621-.98072-42.99772-7.89336-49.55173-17.41982-3.61419-35.95451-7.58581-35.87317 13.69091-95.47977-1.87782-10.29261-3.19035-20.34715-3.76674-28.39016-5.66195-68.91381 28.97148-80.02705 53.71727-91.0071 9.24713 11.38115 25.18214 3.12903 31.26177-2.13928.12489 7.20108 48.79561 29.49512 53.93787 68.53619z" style="display:inline;fill-opacity:1;fill-rule:evenodd;fill:#000;opacity:1;stroke-dasharray:none;stroke-linecap:butt;stroke-linejoin:miter;stroke-miterlimit:4;stroke-opacity:1;stroke-width:0;stroke:#000"/><path id="path4512-9-0" d="m355.70126 347.98823c1.02533 3.65701 15.2121 28.04034 15.73305 45.62758.13181 8.0687-1.02593 14.04633-6.91104 22.53205-24.61713 10.70423-51.94719 14.99138-85.03902 16.1418-.97712.034-3.40779-9.6656-4.37457-9.65384-.712.009-2.21651 9.5571-2.92232 9.55321-17.83513-.0985-43.03061-8.62195-47.75795-16.35889-1.11584-8.51344-2.02338-17.07071-2.43381-24.27747-.92249-17.23048 2.89987-36.7814 16.23466-71.46024-5.96785-40.25491-12.23333-105.60799 43.87527-117.67313 3.12384-2.05334 5.3098-5.95602 6.93885-10.38042 1.65753 5.04021 26.21695.68309 26.60293.54975 2.99455 5.49381 1.12395 6.57536 6.71301 7.72308 51.82498 10.67434 54.83494 38.37524 49.02452 68.26307.84914 29.59697-8.64203 59.14382-15.68358 79.41345z" style="display:inline;fill-opacity:1;fill-rule:evenodd;fill:#ececec;opacity:1;stroke-dasharray:none;stroke-linecap:butt;stroke-linejoin:miter;stroke-miterlimit:4;stroke-opacity:1;stroke-width:0;stroke:#000"/><path style="display:inline;fill-opacity:1;fill:#000;opacity:1;stroke-dasharray:none;stroke-linecap:butt;stroke-linejoin:miter;stroke-miterlimit:4;stroke-opacity:1;stroke-width:0;stroke:#000" d="m288.65067 205.94096c-.008-.17 5.77348-12.05234 5.84504-12.26958.0.0-5.0441-2.25985-5.19628-2.04286-.92463 1.3184-2.65827 4.70639-4.15936 6.60625.1059.25324 3.5106 7.70619 3.5106 7.70619z" id="path4514-0-5"/><path style="display:inline;fill-opacity:1;fill:#ececec;opacity:1;stroke-dasharray:none;stroke-linecap:butt;stroke-linejoin:miter;stroke-miterlimit:4;stroke-opacity:1;stroke-width:0;stroke:#000" d="m288.66108 203.74098c-.008-.16669 5.35844-10.06772 5.42795-10.28074.0.0-4.89991-2.21585-5.04775-2.00309-.8982 1.29274-2.58228 4.61477-4.04047 6.47765.10291.24831 3.66027 5.80618 3.66027 5.80618z" id="path4516-7-1"/><path style="display:inline;fill-opacity:1;fill:#000;opacity:1;stroke-dasharray:none;stroke-linecap:butt;stroke-linejoin:miter;stroke-miterlimit:4;stroke-opacity:1;stroke-width:0;stroke:#000" d="m303.24206 205.47603c.007-.15238-3.99545-11.03492-4.06234-11.22965.0.0 16.62296-2.66894 16.76522-2.47444.86438 1.18176 2.6413 5.37486 3.07583 6.04657-.099.227-15.77871 7.65752-15.77871 7.65752z" id="path4518-2-1"/><path style="display:inline;fill-opacity:1;fill:#ececec;opacity:1;stroke-dasharray:none;stroke-linecap:butt;stroke-linejoin:miter;stroke-miterlimit:4;stroke-opacity:1;stroke-width:0;stroke:#000" d="m303.64915 204.60393c.007-.14856-3.93866-10.27774-4.00456-10.46759.0.0 15.63782-2.64512 15.77799-2.4555.85164 1.15214 2.60238 5.24014 3.03051 5.89501-.0975.22131-14.80394 7.02808-14.80394 7.02808z" id="path4520-0-3"/><path style="display:inline;fill-opacity:1;fill:#000;opacity:1;stroke-dasharray:none;stroke-linecap:butt;stroke-linejoin:miter;stroke-miterlimit:4;stroke-opacity:1;stroke-width:0;stroke:#000" d="m273.98684 423.54376c-.0592-.48233-.33652-4.64526-.38989-5.15269-2.98361-28.36794 3.23892-96.148 23.42151-224.06832l.80611.10099c.43704 13.20785-29.39797 178.30584-22.0674 223.80494.15338.60365.46055 5.66003 1.3341 8.06271-.31043.0803-.92772-1.6917-1.6382-2.39668-.61537-.6106-1.21223 2.02081-1.33365 1.81459z" id="path4522-4-7"/><path style="display:inline;fill-opacity:1;fill-rule:nonzero;fill:gray;opacity:1;stroke-dasharray:none;stroke-linecap:butt;stroke-linejoin:round;stroke-miterlimit:4;stroke-opacity:1;stroke-width:0;stroke:#000" d="m300.87394 220.43307a2.7544847 2.8454499.0 01-2.75448 2.84545 2.7544847 2.8454499.0 01-2.75449-2.84545 2.7544847 2.8454499.0 012.75449-2.84546 2.7544847 2.8454499.0 012.75448 2.84546z" id="path4524-9-3"/><path style="display:inline;fill-opacity:1;fill-rule:nonzero;fill:gray;opacity:1;stroke-dasharray:none;stroke-linecap:butt;stroke-linejoin:round;stroke-miterlimit:4;stroke-opacity:1;stroke-width:0;stroke:#000" d="m297.69369 242.50598a2.7544847 2.8454499.0 01-2.75448 2.84545 2.7544847 2.8454499.0 01-2.75449-2.84545 2.7544847 2.8454499.0 012.75449-2.84546 2.7544847 2.8454499.0 012.75448 2.84546z" id="path4526-8-0"/><path style="display:inline;fill-opacity:1;fill-rule:nonzero;fill:gray;opacity:1;stroke-dasharray:none;stroke-linecap:butt;stroke-linejoin:round;stroke-miterlimit:4;stroke-opacity:1;stroke-width:0;stroke:#000" d="m294.36894 266.99921a2.7544847 2.8454499.0 01-2.75448 2.84545 2.7544847 2.8454499.0 01-2.75449-2.84545 2.7544847 2.8454499.0 012.75449-2.84546 2.7544847 2.8454499.0 012.75448 2.84546z" id="path4528-5-2"/><path style="display:inline;fill-opacity:1;fill-rule:nonzero;fill:gray;opacity:1;stroke-dasharray:none;stroke-linecap:butt;stroke-linejoin:round;stroke-miterlimit:4;stroke-opacity:1;stroke-width:0;stroke:#000" d="m291.12262 291.4949a2.7544847 2.8454499.0 01-2.75448 2.84545 2.7544847 2.8454499.0 01-2.75449-2.84545 2.7544847 2.8454499.0 012.75449-2.84546 2.7544847 2.8454499.0 012.75448 2.84546z" id="path4530-6-7"/><path style="display:inline;fill-opacity:1;fill-rule:nonzero;fill:gray;opacity:1;stroke-dasharray:none;stroke-linecap:butt;stroke-linejoin:round;stroke-miterlimit:4;stroke-opacity:1;stroke-width:0;stroke:#000" d="m288.19248 313.4826a2.7544847 2.8454499.0 01-2.75448 2.84545 2.7544847 2.8454499.0 01-2.75449-2.84545 2.7544847 2.8454499.0 012.75449-2.84546 2.7544847 2.8454499.0 012.75448 2.84546z" id="path4532-6-1"/><path style="display:inline;fill-opacity:1;fill-rule:nonzero;fill:gray;opacity:1;stroke-dasharray:none;stroke-linecap:butt;stroke-linejoin:round;stroke-miterlimit:4;stroke-opacity:1;stroke-width:0;stroke:#000" d="m285.69616 337.78711a2.7544847 2.8454499.0 01-2.75448 2.84545 2.7544847 2.8454499.0 01-2.75449-2.84545 2.7544847 2.8454499.0 012.75449-2.84546 2.7544847 2.8454499.0 012.75448 2.84546z" id="path4534-8-1"/><path style="display:inline;fill-opacity:1;fill-rule:nonzero;fill:gray;opacity:1;stroke-dasharray:none;stroke-linecap:butt;stroke-linejoin:round;stroke-miterlimit:4;stroke-opacity:1;stroke-width:0;stroke:#000" d="m283.59261 360.44517a2.7544847 2.8454499.0 01-2.75448 2.84545 2.7544847 2.8454499.0 01-2.75449-2.84545 2.7544847 2.8454499.0 012.75449-2.84546 2.7544847 2.8454499.0 012.75448 2.84546z" id="path4536-5-7"/><path style="display:inline;fill-opacity:1;fill-rule:nonzero;fill:gray;opacity:1;stroke-dasharray:none;stroke-linecap:butt;stroke-linejoin:round;stroke-miterlimit:4;stroke-opacity:1;stroke-width:0;stroke:#000" d="m282.01878 380.39507a2.7544847 2.8454499.0 01-2.75448 2.84545 2.7544847 2.8454499.0 01-2.75449-2.84545 2.7544847 2.8454499.0 012.75449-2.84546 2.7544847 2.8454499.0 012.75448 2.84546z" id="path4538-4-4"/><path style="display:inline;fill-opacity:1;fill-rule:nonzero;fill:gray;opacity:1;stroke-dasharray:none;stroke-linecap:butt;stroke-linejoin:round;stroke-miterlimit:4;stroke-opacity:1;stroke-width:0;stroke:#000" d="m281.0045 400.49998a2.7544847 2.8454499.0 01-2.75448 2.84545 2.7544847 2.8454499.0 01-2.75449-2.84545 2.7544847 2.8454499.0 012.75449-2.84546 2.7544847 2.8454499.0 012.75448 2.84546z" id="path4548-1-8"/></svg>