<svg viewBox="0 0 560 1e3"><path style="display:inline;fill-opacity:1;fill-rule:evenodd;fill:#000;stroke-dasharray:none;stroke-linecap:butt;stroke-linejoin:miter;stroke-miterlimit:4;stroke-opacity:0;stroke-width:3.03671026;stroke:#000" d="m300.3629 216.71608c2.89918-3.49959 6.19635-4.56996 3.24687-5.37862-7.88102-2.16075-20.40535-6.02265-44.83986-3.20333-8.79612 2.33315-27.50627 16.84154-42.56869 69.61843 2.69974 2.78118 17.20699 9.61049 32.60925 15.12157 7.48653 2.21612 22.01212-37.59824 31.60679-35.14908 9.96276-18.54956 19.5654-40.62985 19.94564-41.00897z" id="path5145"/><path style="display:inline;fill-opacity:1;fill-rule:evenodd;fill:#502;stroke-dasharray:none;stroke-linecap:butt;stroke-linejoin:miter;stroke-miterlimit:4;stroke-opacity:0;stroke-width:3;stroke:#000" d="m300.48784 216.69956c2.82896-3.50026 6.04627-4.57084 3.16823-5.37966-7.69014-2.16117-19.91112-6.02382-43.75381-3.20395-8.50954 2.3136-28.20608 19.71858-41.82176 69.3569 4.63028 4.46772 19.62651 11.68343 30.8759 16.98195 7.3052 2.21655 22.70662-39.18795 32.0689-36.73831 9.72145-18.55316 19.09151-40.63773 19.46254-41.01693z" id="path5147"/></svg>