<svg viewBox="0 0 560 1e3"><g data-transform="boob" class="scaler_" id="g7187" transform="matrix(1.1899396,0,0,1.1247504,-49.050018,-33.548868)"><path id="path7173" d="m300.39114 266.20081c-1.96797.0449-1.69338-1.39961-1.69338-1.39961-.007-1.25384 1.27054-1.63367 1.7131-1.74049.44256-.1068 1.55429.30871 1.71338 1.56542.0265.20899.38465 1.52635-1.7331 1.57468z" class="shadow"/><path id="path7180" d="m300.39108 265.82377c-.74018.0251-1.82942-.48401-1.80269-1.40279.0341-1.17315 1.32855-1.55885 1.78772-1.58795.54269-.0344 1.84401.413 1.82656 1.62925-.0125.87033-1.06785 1.33628-1.81159 1.36149z" class="areola"/><path id="path7183" d="m218.60903 264.71507c-1.36619.10008-1.31959 1.53746-1.33648-5.16394-.2037-1.85002 1.30204-2.6249 2.00177-2.67973.0.0 4.52105-2.23911 5.20946-1.51284.13687.93065-4.50197 9.25599-5.87475 9.35651z" class="areola"/><path class="shadow" d="m218.52727 259.31601c-.42306.15248-1.10204.15251-1.25633.16971.0133.0306-.007.38148.005.53478.39991-.0356.85599-.39661 1.25119-.70449z" id="path7185"/></g></svg>