<svg viewBox="0 0 560 1e3"><path d="m357.45009 67.069288c10.86378 5.746763 11.74503 15.462496 10.11024 25.22218-.0846.505361 1.48243 7.146334 1.38533 7.651383-.0767.399169-2.97469-2.758186-2.67938-2.376112.0611.07909.084.501001.084.501001.002.666817 1.01552 8.11338.89968 8.57004-.11735.46272-2.45361-3.86329-2.57332-3.40535-.41557 1.58966.13545.74024-.2625 2.24819-1.70653 6.46657-5.96558 8.3317-6.10794 8.35506-.066.0112-1.25874-3.21921-1.5944-3.34532-.19304-.0725-2.18697 9.46409-2.60478 9.47028-.21585.003-4.4895-10.88185-4.68917-10.94105-.17864-.0529.40768 5.4813-.22267 4.57719-.0983-.14113-5.80351-2.33622-6.91163-20.666215-12.63785-3.9152-17.2068-28.931674 1.73079-31.056668 3.9831-.01355 6.87223.582866 8.97859 1.499896 2.222 1.143992 3.70384 2.506181 4.45719 3.695495z" class="hair" id="path2068"/><path d="m256.31705 65.961485c-10.86378 5.746762-11.74503 15.462497-10.11024 25.222182.0846.505361-1.48243 7.146335-1.38532 7.651384.0767.399172 2.97467-2.758188 2.67938-2.376113-.0611.07909-.084.501006-.084.501006-.002.666807-1.01552 8.113376-.89969 8.570036.11736.4627 2.45362-3.86329 2.57333-3.40535.41557 1.58966-.13545.74024.2625 2.24819 1.70653 6.46657 5.96558 8.33169 6.10794 8.35506.066.0112 1.25874-3.21921 1.5944-3.34532.19303-.0725 2.18697 9.46409 2.60478 9.47028.21585.003 4.4895-10.88185 4.68917-10.94105.17864-.0529-.40768 5.4813.22266 4.57719.0983-.14113 9.33905-12.766042 10.44717-31.096042 12.63785-3.915202 13.67127-18.50185-5.26632-20.626842-3.9831-.01353-6.87223.582863-8.9786 1.499895-2.22199 1.143994-3.70383 2.506179-4.45718 3.695494z" class="hair" id="path2070"/><path d="m359.64525 97.436173c2.14864 11.151027 3.71819 24.560937 4.83569 39.574517.052.69814 4.10296 25.89976 4.15298 26.60477.40223 5.66908-3.25791-12.94188-2.97379-6.86714.38789 8.29319.67189 16.93248.86892 25.83072.026 1.17268 2.70207 23.38628 2.72505 24.56776.0894 4.59721-2.49507-11.77693-2.44794-7.06133.20698 20.70684.0282 42.4418-.34348 64.20982-.0571 3.34324.99961 47.27702.93413 50.61821-.0517 2.64077-2.00586-18.24692-1.80672-15.7193.0413.5232.0566 3.31437.0566 3.31437.001 4.41139.68477 53.67466.60667 56.69571-.0791 3.06113-1.6545-25.55786-1.73522-22.52837-.28022 10.51656.0913 4.89714-.17701 14.87311-1.15073 42.78008-4.02265 55.11897-4.11864 55.27352-.0446.0738-.84877-21.29692-1.07512-22.13122-.13016-.47946-1.47469 62.61034-1.75643 62.65127-.14555.0222-3.02731-71.98962-3.16194-72.38124-.12047-.35019.2746 36.26194-.15014 30.2807-.0491-.69093-10.5359-94.31639-16.28775-192.09424-.40466-6.87887-.78588-13.7783-1.13838-20.66737-.0448-.87591-1.76858 10.6227-1.81243 9.74718-.23427-4.67425 1.22438-21.71628 1.01886-26.36769-.27752-6.28068-2.47188 13.27768-2.68993 7.08008-.0395-1.12408 1.8665-28.05579 1.82906-29.17621-.47383-14.18282-.7763-28.06117-.85817-41.34696-8.52182-25.901298 1.64815-48.506811 16.44524-49.351143 2.68584-.08962 4.634 3.855987 6.05435 9.922666 1.49831 7.56816 2.49753 16.579819 3.00552 24.44781z" class="hair" id="path2072"/><path d="m253.95032 102.54386c-1.57628 8.18055-2.84089 17.5768-3.844 27.93007-.10031 1.03524-4.94799 23.95505-5.04312 25.00917-.41336 4.58068 3.9717-12.53785 3.65108-7.62679-.40934 6.26992-.74645 12.7918-1.01991 19.52147-.0356.87489-4.94502 35.62829-4.97844 36.5101-.29087 7.67539 4.37336-18.2655 4.23026-10.13666-.42361 24.06406-.25408 49.83466.1867 75.65175.0571 3.34327-.99961 47.27704-.93414 50.61824.0518 2.64077 2.00586-18.24695 1.80673-15.7193-.0412.5232-.0565 3.31443-.0565 3.31443-.001 4.41133-.68478 53.67459-.60666 56.69567.0791 3.06102 1.65449-25.55787 1.73522-22.52839.28022 10.51656-.0913 4.89713.177 14.87312 1.15073 42.78005 4.02265 55.11888 4.11864 55.2735.0446.0738.84878-21.29691 1.07512-22.13123.13016-.47947 1.4747 62.61037 1.75643 62.65129.14555.0222 3.02732-71.98964 3.16195-72.38125.12045-.35019-.27459 36.26193.15014 30.28071.0533-.75031 11.50393-115.94054 16.38717-224.0872.0434-.9608 2.33625 10.57896 2.37859 9.61936 1.12217-25.43638-.37873-62.92227-.23732-85.87108 7.11153-23.051287-10.46252-35.811272-13.62465-36.137414-2.68584-.08954-6.04429-1.844058-7.46465 4.222627-1.49832 7.568173-2.49752 16.579806-3.00552 24.447807z" class="hair" id="path2074"/></svg>