<svg viewBox="0 0 560 1e3"><path id="path7737" d="m332.11641 378.81779c34.5675 37.13805 56.17641 60.82878 55.84475 84.97898-.0132.95976-.0201 1.91381-.0922 2.86185-.84329-.15883-18.3816 5.26757-21.63648 6.88548-14.49086-15.68658-33.94492-93.4321-34.11603-94.72631z" style="display:inline;fill-opacity:1;fill-rule:evenodd;fill:#000;stroke-dasharray:none;stroke-linecap:butt;stroke-linejoin:miter;stroke-miterlimit:4;stroke-opacity:0;stroke-width:2.97439027;stroke:#000"/><path id="path7739" d="m330.54529 379.68976c29.16485 29.75771 55.26604 59.28567 57.41488 84.12852-.84329-.15883-17.59644 5.26757-20.85132 6.88548-14.49086-15.68658-36.39245-89.71979-36.56356-91.014z" style="display:inline;fill-opacity:1;fill-rule:evenodd;fill:#c8c8c8;stroke-dasharray:none;stroke-linecap:butt;stroke-linejoin:miter;stroke-miterlimit:4;stroke-opacity:0;stroke-width:2.97439027;stroke:#000"/><path style="fill:#502" id="path7741" d="m383.86272 462.60716c-2.91834 1.15884-15.72395 5.48666-16.09784 5.53333.0711-.41289-.24151.46044.19641-2.12944.44841-.21697 16.06102-5.46794 20.1176-6.8196-.0154.24866-.0142 1.64867-.0177 1.9573z"/></svg>