<svg viewBox="0 0 560 1e3"><path id="path2480-0" d="m350.12931 407.06625c8.20773 3.77777 44.23238 26.04029 32.61536 77.49849-7.65858-3.48945-10.08083-13.85381-10.08083-13.85381-7.73135-16.84961-23.08925-47.00857-21.13047-60.16535.0246-.16538-1.56383-3.32192-1.40406-3.47933z" style="display:inline;fill-opacity:1;fill-rule:evenodd;fill:#000;stroke-dasharray:none;stroke-linecap:butt;stroke-linejoin:miter;stroke-miterlimit:4;stroke-opacity:0;stroke-width:3;stroke:#000"/><path id="path2478" d="m349.37494 406.40206c.22265.0924.46533.23825.75647.37712 1.00485.47929 2.31731 1.34889 3.84105 2.57257 11.3192 9.09023 34.29684 37.72015 29.43258 71.03704-.18129 1.24172-.5293 3.08428-.79637 4.33943-10.07289-4.66331-11.49737-4.64987-12.76308-5.39441-4.24176-11.60618-23.63738-68.70386-20.82435-72.84506.0221-.0326.33583-.0799.3537-.0867z" style="display:inline;fill-opacity:1;fill-rule:evenodd;fill:#8aa7ff;stroke-dasharray:none;stroke-linecap:butt;stroke-linejoin:miter;stroke-miterlimit:4;stroke-opacity:0;stroke-width:3;stroke:#000"/><path id="path2480" d="m352.64445 408.33442c5.55607 4.13132 36.75598 21.99939 31.23776 68.15429-7.65859-3.48945-13.19051-4.38368-13.19051-4.38368-7.73135-16.84962-31.21268-54.2152-20.29837-61.81885 1.49335-1.04037 2.09135-1.79434 2.25112-1.95176z" style="display:inline;fill-opacity:1;fill-rule:evenodd;fill:#517cd3;stroke-dasharray:none;stroke-linecap:butt;stroke-linejoin:miter;stroke-miterlimit:4;stroke-opacity:0;stroke-width:3;stroke:#000"/></svg>