<svg viewBox="0 0 560 1e3"><path style="display:inline;fill-opacity:1;fill-rule:evenodd;fill:#000;stroke-dasharray:none;stroke-linecap:butt;stroke-linejoin:miter;stroke-miterlimit:4;stroke-opacity:0;stroke-width:3;stroke:#000" d="m348.54665 406.32194c18.42751 3.49556 62.72438 60.30325 26.83867 101.71439-1.72814 1.36134-16.25202.41884-17.26697.87038-.61793-4.51354-.0158-11.21301 2.74476-18.25958 2.77204-7.07579 6.33615-14.77042 7.44517-22.47054 1.13346-7.86977 1.41455-14.95075-.82965-24.04445-1.03049-4.17562-2.52367-8.91513-4.8354-14.10194-2.58066-5.79021-9.47342-19.19714-9.17347-19.77658.20687-.39965-4.92311-3.93168-4.92311-3.93168z" id="path8197"/><path transform="rotate(-4.2183723,384.23206,440.44436)" style="display:inline;fill-opacity:1;fill-rule:evenodd;fill:#333;stroke-dasharray:none;stroke-linecap:butt;stroke-linejoin:miter;stroke-miterlimit:4;stroke-opacity:0;stroke-width:3;stroke:#000" d="m351.98478 404.5197c35.9329 23.34827 44.7618 80.14394 16.24765 102.87572-1.82359 1.23054-16.96325.54755-18.00866.92321-.28425-4.54677-1.39825-12.7665 1.87319-19.59091 3.28501-6.85272 7.40547-14.26433 9.07789-21.86202 1.70927-7.76507 2.51046-14.80619.94126-24.04034-.72055-4.24011-1.86106-9.07661-3.78499-14.41942-2.14775-5.96435-5.06459-19.26833-4.72284-19.82413.23571-.38335-1.6235-4.06211-1.6235-4.06211z" id="path8199"/></svg>