<svg viewBox="0 0 560 1e3"><path style="display:inline;fill-opacity:.00392157;fill-rule:evenodd;fill:#000;stroke-dasharray:none;stroke-linecap:butt;stroke-linejoin:miter;stroke-miterlimit:4;stroke-opacity:0;stroke-width:3;stroke:#000" d="m350.14921 408.14457c16.76053 10.14197 40.42673 39.6317 30.12197 78.44843-2.0325 7.65618-7.6727 14.67308-14.86121 21.61473-.48811.47135-4.78294 1.16464-8.2276 1.90454-.3894-6.34185-1.13417-7.76336.23655-12.21088 2.54398-8.25437 8.95718-24.93868 9.0449-25.44549 3.94758-22.80708-1.45761-39.66165-14.87973-60.74569-.64573-.86667-.7822-2.64895-1.43488-3.56564z" id="path6159"/><path transform="rotate(-2.1632141,381.23216,599.34386)" style="display:inline;fill-opacity:.39215686;fill-rule:evenodd;fill:#f59;stroke-dasharray:none;stroke-linecap:butt;stroke-linejoin:miter;stroke-miterlimit:4;stroke-opacity:0;stroke-width:3;stroke:#000" d="m357.69377 407.60039c14.61261 10.34736 36.42887 41.03599 24.66626 79.43609-2.32004 7.57401-8.22108 14.37301-15.66649 21.03838-.50555.45259-4.82349.98327-8.29363 1.59262-.14974-6.35203-.84032-7.80064.6973-12.19325.66364-1.89588-.19623-4.74778.78023-7.23458 3.22241-8.20672 9.13674-17.46524 9.2187-17.85137 4.80566-22.64182 2.51361-39.59498-10.1031-61.17063-.61256-.89043-.68166-2.67659-1.29927-3.61726z" id="path6161"/></svg>