<svg viewBox="0 0 560 1e3"><path style="display:inline;fill:#000;stroke-width:.24736041" d="m283.16562 155.76076c-1.02375-1.19208-1.58302-.47375-1.80051-.0958-.054.0939.0245.77429.0107.67922.23572-.59395 1.7902.12826 2.38866-.20158z" id="path3532"/><path id="path3534" d="m279.79488 139.35766c-.17293 1.42638-1.25872 6.54294-2.09074 7.41124-3.58281 3.73903-3.75472 8.89927.67234 9.24327.84188.25123 1.74472.46888 1.19318.44053-5.94068.76128-6.18928-6.1222-2.40859-9.68251 1.13049-1.06459 2.07822-5.69784 2.63381-7.41253z" style="fill:#000;stroke-width:.2152606"/><path id="path3536" d="m286.09838 151.99747c1.42462 2.1659.88348 3.61152-1.49464 4.1654 2.11077-.86434 2.31825-1.82091 1.49464-4.1654z" style="display:inline;fill:#000;stroke-width:.19613324"/></svg>