<svg viewBox="0 0 560 1e3"><path id="path9416" d="m300.27148 120.36328c-4.61537.004-7.85482.89937-9.52929 2.63086-1.11533 1.1533-2.50977 3.11938-2.3711 3.34375.0887.14352 1.74874-.5119 5.25977-2.07812 2.071-.92383 3.86634-1.33984 7.32226-1.69141 7.27906-.27556 11.9666 1.26049 17.14258 5.35547.48116.42269.94887.77334 1.03907.77734.43773.0219.0377-.4521-1.25782-1.49023-4.86952-4.20931-12.19188-7.18194-17.60547-6.84766z" class="eyebrow_hair"/><path id="path9418" d="m260.88281 126.38867c-.0161.29695.23749.17894 2.41211-1.13476 4.01771-2.55502 7.88734-2.33993 11.84961-1.1211 1.21883.59568 3.91381 2.47367 4.00391 2.41797.50531-.3123-1.4689-3.75937-2.76647-4.67134-5.70442-2.29517-11.13078 1.13001-15.49916 4.50923z" class="eyebrow_hair"/></svg>