<svg viewBox="0 0 560 1e3"><path style="display:inline;fill-opacity:1;fill-rule:evenodd;fill:#000;opacity:1;stroke-dasharray:none;stroke-linecap:butt;stroke-linejoin:miter;stroke-miterlimit:4;stroke-opacity:1;stroke-width:0;stroke:#000" d="m370.52949 269.10119c4.95689 27.02974-7.57053 56.18503-9.82887 81.09058-.65233 7.19397 5.62112 14.43267 6.43749 24.43791-13.79439 3.71945-121.9152 19.21027-144.43681-6.91946 1.09157-8.53879 13.33658-40.93302 13.78642-49.08538.66022-7.18176-4.24882-23.17452-1.7031-45.01174 4.1474-34.69597 23.60454-60.35906 50.55649-72.99246 9.24713 11.38115 26.77312 2.86386 32.85275-2.40445 3.60502 2.41128 12.51351 5.15536 13.9274 8.77997 5.80316 14.87672-6.8011 38.98424 32.06295 60.59513z" id="path4467-6-1-8"/><path id="path3371-5" d="m370.55315 268.83036c1.65694 38.34671-10.78673 62.67351-11.39662 82.57427-.21461 7.00257 5.40829 11.83923 5.72398 21.85414-37.1677 8.35602-127.68512 12.51463-140.28749-6.79612 2.83363-11.52951 12.15545-37.70518 12.80969-44.29554 1.60975-16.21545-3.62279-19.21936-1.71887-42.31195.62283-5.80398 1.32021-11.77405 1.93291-17.12971 2.80944-24.25611 17.62018-49.23247 47.6429-61.1382 9.14993 11.38115 27.12715 2.68708 33.14287-2.58123 1.48672 1.12706 17.6131 7.18224 18.14498 8.5246 1.34998 3.19719 2.37503 6.3614 3.25412 9.48996 2.76556 9.84229 4.08656 19.33169 9.53548 28.38477 7.32565 13.63251 15.77601 21.57759 21.21605 23.42501z" style="display:inline;fill-opacity:1;fill-rule:evenodd;fill:#fff;opacity:1;stroke-dasharray:none;stroke-linecap:butt;stroke-linejoin:miter;stroke-miterlimit:4;stroke-opacity:1;stroke-width:0;stroke:#000"/></svg>