<svg viewBox="0 0 560 1e3"><g data-transform="boob" class="scaler_" id="g7218" transform="matrix(1.1899396,0,0,1.1247504,-49.050018,-33.548868)"><path id="path7210" d="m300.49271 265.98555c-7.47615-.0505-6.11197-1.08904.30615-1.35344 7.1813.60957 5.42361 1.25884-.30615 1.35344z" class="shadow"/><path id="path7212" d="m300.69099 264.65179c-2.35016.0251-5.03736.50411-5.27884.82889-.23366-1.17112 3.82355-2.85629 5.2548-2.95327 1.43123-.0969 4.57116 1.72454 4.85994 2.93712-.005-.35477-2.50068-.67819-4.8359-.81274z" class="areola"/><path id="path7214" d="m218.60903 264.71507c-1.36619.10008-1.31959 1.53746-1.33648-5.16394-.2037-1.85002 1.30204-2.6249 2.00177-2.67973.0.0 4.52105-2.23911 5.20946-1.51284.13687.93065-4.50197 9.25599-5.87475 9.35651z" class="areola"/><path class="shadow" d="m219.02051 258.66365c-.72981-.37965-1.12395-.87931-1.28063-.91619-.14254.20588-.32481.42151-.33781.62046.1534.42012.5636.89465 1.22138 1.31616.5248.33631 2.84949 1.62832 3.07742 1.19352.32946-.52147-2.55174-2.14221-2.68036-2.21395z" id="path7216"/></g></svg>