<svg viewBox="0 0 560 1e3"><path style="display:inline;fill-opacity:1;fill-rule:evenodd;fill:#000;opacity:1;stroke-dasharray:none;stroke-linecap:butt;stroke-linejoin:miter;stroke-miterlimit:4;stroke-opacity:1;stroke-width:0;stroke:#000" d="m368.45236 268.83602c.40069 1.40387.82871 12.89967-6.36035 37.77919-5.42713 18.7819-17.12167 31.6625-17.71805 33.12058-6.03534 8.96911-15.45846 21.82266-9.52924 38.69515-33.59892 9.83464-85.2698 13.19244-93.43445-5.62484 2.433-12.49684 2.06627-18.80217 2.23754-34.00531.24452-21.70551-6.08737-33.66342-6.98584-46.20078.40962-35.13389 30.30326-40.0847 52.38713-59.43686.97617-2.02088 1.87249-19.70311-12.03774-26.98259-.63873-.33426 10.68282-5.75669 14.26985-9.78403 4.65338 2.75615 14.52589 1.59778 24.04302-1.20178 1.50252 1.12706 11.88318 8.27222 10.66769 9.07117-25.72677 16.91039-30.9022 28.84774-29.45936 29.06832 3.13994 1.52155 66.54554 33.43249 67.65165 34.25705z" id="path4853"/><path style="display:inline;fill-opacity:1;fill-rule:evenodd;fill:#500;opacity:1;stroke-dasharray:none;stroke-linecap:butt;stroke-linejoin:miter;stroke-miterlimit:4;stroke-opacity:1;stroke-width:0;stroke:#000" d="m368.47602 268.56519c-.47811 3.70196-1.71839 20.80284-7.95729 39.14162-6.28969 18.48806-15.58504 28.98279-16.48061 30.27591-7.21871 10.42316-10.74943 15.63218-11.76336 26.60223-.75365 8.15394.0371 7.00194 1.81456 13.74489-31.15729 6.94181-79.55234 13.8184-92.15471-5.49235 2.40743-12.49684 2.93231-28.9245 3.10178-31.79865 1.27707-21.66848-5.53672-33.8742-6.42575-46.41156-3.37265-53.10898 11.96331-79.40858 38.32548-88.64617.49229-.51848 10.93756-4.73394 14.35202-8.57378 3.61868 1.69365 11.32369 2.50403 23.71441-1.20178 9.70684 6.51875 21.01307 9.98271 21.54495 11.32507 44.27723.50597 34.15478 57.22035 31.92852 61.03457z" id="path4855"/></svg>