<svg viewBox="0 0 560 1e3"><path d="m265.34192 396.21101c-.87878-19.03678 3.15073-35.96944 10.07729-35.85776 6.01051.0969 8.74355 7.47074 8.06077 30.90899-2.4211-1.8911-17.90581-4.90204-18.13806 4.94877z" id="path4582-1-8" style="display:inline;fill-opacity:.31372549;fill:#464646;stroke-width:.97034371"/><path d="m280.77481 455.62436c.28894.66262 2.25177 2.05533 2.21598 2.51956-.43415 5.63179-.33638 10.67219-.6008 10.76924-4.85185 1.78082-16.29502 1.02055-18.13546-.008.0145.17905-.31963-10.72428-.31963-10.72428 1.89353-19.44755 15.76657-1.10185 16.83991-2.55691z" id="path4580" style="display:inline;fill:#000"/><path d="m280.77481 455.62436c.28894.66262 2.07499 1.79016 2.0392 2.25439-.43415 5.63179-.71203 10.25235-.97645 10.3494-4.85185 1.78082-15.78678.88797-17.62722-.14019.0145.17905-.27544-9.90669-.27544-9.90669 1.89353-19.44755 15.76657-1.10185 16.83991-2.55691z" id="path4582" style="fill:#cd87de"/><path class="skin torso" d="m265.41214 396.12285c1.51975-20.39349 4.71491-36.50462 10.07569-36.11702 5.0405.36444 7.20552 13.48175 7.86443 31.26436-2.59469 5.7358-15.83606 3.28957-17.94012 4.85266z" id="path4582-1"/><path id="path4584" d="m348.52978 406.0731c.17594.29463.23456.36287.14343.43358-7.58199 5.88234-28.75619 14.08712-52.70049 35.19948-6.87798 6.06451-12.7957 15.81041-13.00807 16.4538-3.5825-2.3145-16.67981-13.10929-18.83826.27544-3.18111.37789-22.94602-35.81939-38.67143-44.63334.11113-.0316.41697-.90137.51991-1.06255.0911-.14259.27446.0925.40697.19488 8.62097 6.66128 28.54067 25.66388 34.074 30.5294 9.4967 8.35057 14.46863 4.85299 24.82235-1.55712 12.31913-7.62691 34.81663-23.48552 63.14221-35.95854z" style="display:inline;fill-opacity:1;fill-rule:evenodd;fill:#1a1a1a;opacity:1;stroke-dasharray:none;stroke-linecap:butt;stroke-linejoin:miter;stroke-miterlimit:4;stroke-opacity:1;stroke-width:0;stroke:#000"/></svg>