<svg viewBox="0 0 560 1e3"><g data-transform="belly" id="g5839" transform="matrix(1.014792,0,0,1.0059302,-4.1476732,-2.5734225)"><path id="path5831" class="shadow" d="m274.8 433.8c20.7-1.5 47.7-4.5 61.9-42.4 4.19543-14.18761 2.85221-29.50347-1.96679-43.83212-43.36749-19.0604-84.51069-18.11783-121.64223.0303-4.5978 8.46973-9.13616 30.08709-2.77837 51.05309 4.34871 14.34064 24.84131 33.61782 64.48739 35.14868z"/><path style="fill-opacity:1;fill:#212f3d" id="path5837" d="m274.8 433.8c20.8.1 49.4-13 61.9-42.4 5.017-11.79998 3.02659-27.56276-2.93243-43.38966-60.81753-24.37879-92.03396-9.94202-120.63609-.5095-3.26633 10.87644-5.07313 23.72923-4.23148 38.99916 1.8 34.8 45.1 47.2 65.9 47.3z"/></g><path style="display:inline;fill-rule:evenodd;fill:none;opacity:1;stroke-dasharray:none;stroke-linecap:round;stroke-linejoin:miter;stroke-miterlimit:3;stroke-opacity:1;stroke-width:2;stroke:#212f3d" d="m275.54331 285.57202c-.34525 2.21375-.63526 4.43403-.86186 6.66202-1.64705 16.19446-7.93348 31.76684-8.37146 50.25755.0409-1.26589 12.55986 1.54689 12.63603-.40805.37779-9.6961-5.89854-30.61811-3.99773-49.92913.21278-2.16171.48312-4.34852.80365-6.55131" id="path1860-6-0-3-5"/></svg>