<svg viewBox="0 0 560 1e3"><path style="baseline-shift:baseline;clip-rule:nonzero;color-interpolation-filters:linearRGB;color-interpolation:sRGB;color-rendering:auto;color:#000;direction:ltr;display:inline;enable-background:accumulate;fill-opacity:.54901961;fill-rule:evenodd;fill:#00a883;image-rendering:auto;isolation:auto;mix-blend-mode:normal;opacity:1;overflow:visible;shape-rendering:auto;solid-color:#000000;solid-opacity:1;stroke-dasharray:none;stroke-dashoffset:0;stroke-linecap:butt;stroke-linejoin:miter;stroke-miterlimit:4;stroke-opacity:1;stroke-width:1.75001788;stroke:none;visibility:visible;white-space:normal;writing-mode:lr-tb" d="m267.7682 837.25039c.41365-2.64465 1.38896-11.04265 4.372-21.69114 20.33521-72.59001 16.92388-82.34068 17.18609-82.70072 1.01858-1.39861 1.22956-30.67982-4.21579-46.18001-.0592-.16884-.39501-1.28497.13884-2.99269-2.37167.66498-38.67431-1.84724-40.35764-4.11265 2.15087 5.96005 5.2287 138.07772 9.02344 158.53277 7.56373-1.42636 7.83553-1.37942 13.85307-.8555z" id="path3988"/><path style="baseline-shift:baseline;clip-rule:nonzero;color-interpolation-filters:linearRGB;color-interpolation:sRGB;color-rendering:auto;color:#000;direction:ltr;display:inline;enable-background:accumulate;fill-opacity:.54901961;fill-rule:evenodd;fill:#00a883;image-rendering:auto;isolation:auto;mix-blend-mode:normal;opacity:1;overflow:visible;shape-rendering:auto;solid-color:#000000;solid-opacity:1;stroke-dasharray:none;stroke-dashoffset:0;stroke-linecap:butt;stroke-linejoin:miter;stroke-miterlimit:4;stroke-opacity:1;stroke-width:1.80133641;stroke:none;visibility:visible;white-space:normal;writing-mode:lr-tb" d="m336.75824 840.66889c.68158-5.10668 4.55525-23.64366 7.44294-48.74541 3.34918-29.11351 6.95294-67.51818 2.85415-109.7684-22.0274.52273-29.34045-.23391-34.61804-1.25701-16.97736 61.82149 3.29893 96.86991 6.84537 160.45847 7.31542-3.23443 16.16752-.29855 17.47558-.68767z" id="path3990"/><path d="m302.12834 647.39688c-11.23105-21.01448-26.84696-103.7266-26.51341-142.69707 2.30973 34.19739 16.09131 118.00574 26.51341 142.69707z" class="shadow" id="path3996"/></svg>