<svg viewBox="0 0 560 1e3"><path style="baseline-shift:baseline;clip-rule:nonzero;color-interpolation-filters:linearRGB;color-interpolation:sRGB;color-rendering:auto;color:#000;direction:ltr;display:inline;enable-background:accumulate;fill-opacity:.54901961;fill-rule:evenodd;fill:#00a883;image-rendering:auto;isolation:auto;mix-blend-mode:normal;opacity:1;overflow:visible;shape-rendering:auto;solid-color:#000000;solid-opacity:1;stroke-dasharray:none;stroke-dashoffset:0;stroke-linecap:butt;stroke-linejoin:miter;stroke-miterlimit:4;stroke-opacity:1;stroke-width:1.77035642;stroke:none;visibility:visible;white-space:normal;writing-mode:lr-tb" d="m336.795 841.22777c1.65835-6.35668 3.95639-23.51238 6.74561-48.61413 3.235-29.11351 9.23001-70.76818 2.09774-111.0184-14.23294 3.59599-23.52139 3.20616-33.22734-.50699-16.39841 61.82149 2.34167 97.4583 7.01718 160.29686 7.04026-3.30483 14.67986-.89804 17.36681-.15734z" id="path3972"/><path style="baseline-shift:baseline;clip-rule:nonzero;color-interpolation-filters:linearRGB;color-interpolation:sRGB;color-rendering:auto;color:#000;direction:ltr;display:inline;enable-background:accumulate;fill-opacity:.54901961;fill-rule:evenodd;fill:#00a883;image-rendering:auto;isolation:auto;mix-blend-mode:normal;opacity:1;overflow:visible;shape-rendering:auto;solid-color:#000000;solid-opacity:1;stroke-dasharray:none;stroke-dashoffset:0;stroke-linecap:butt;stroke-linejoin:miter;stroke-miterlimit:4;stroke-opacity:1;stroke-width:1.77084005;stroke:none;visibility:visible;white-space:normal;writing-mode:lr-tb" d="m267.06822 838.25749c.42355-2.64465 2.624-11.75604 5.49182-22.4563 19.40779-72.41323 16.58518-83.31924 16.85367-83.67928 1.04296-1.39861.84459-30.00304-4.73112-45.50323-5.91958-.51383-31.11096-4.27854-40.37689-7.10534 2.20237 5.96005 4.47598 108.32702 9.66349 158.79794 6.31619-2.58038 9.49152-.94171 13.09903-.0538z" id="path3974"/><path d="m306.11849 655.03996c-10.15355-19.08679-28.84048-93.01245-30.14379-136.28402 4.78008 41.67157 18.74569 104.95319 30.14379 136.28402z" class="shadow" id="path3980"/></svg>