<svg viewBox="0 0 560 1e3"><path d="m342.21452 104.22065c-.28065 2.15847-1.63084 5.60996-2.09103 7.67018-.56313 2.52115.53379 6.36809-.10028 8.24683-.0278.18726-1.60221 3.46636-3.86583 6.51137-1.73785 2.33776-2.22933 6.57221-3.85212 7.25159-.54931-4.32342.18763-1.55617-1.31653-5.17072-.35524-.8355-1.27887-.96721-3.09003 1.69406-.17121.25156.58944.70314.6854 2.44913.0841 1.52932-1.08985 7.36981-2.32163 10.34644-1.34855 3.25883-.0709 9.20811-.13583 9.62316-.70917 4.53039-4.6091 11.26818-5.45877 10.93148-.23724-.094 4.46754-7.56674 2.87427-9.59469-2.06667-2.6305-.77828-7.95184-.77828-7.95184 1.96647-5.74324 3.96843-12.98676 1.5617-15.08392-2.44025-2.12642.44097-5.18565 1.24572-6.6305.95504-1.71466-.54356-10.25823-2.3769-13.12507-5.76403-9.01338-12.18189-15.745104-12.14405-15.922731-.0804-.208736-44.07133 13.244401-46.93693 4.18003-.11009-.348247-.1444 5.555981-.1757 11.667341-.005 1.04579 1.23937 3.09764 1.23383 4.12526-.007 1.27885-1.67678 4.96804-1.82521 6.02359-.20035 1.4248 2.10605 6.77955 2.13105 7.74377.0249.96203-2.29 8.7536-2.35549 9.83496-.28152 4.64847 2.34335 21.11426 1.97115 19.74157-.2581-.95187-3.68214-14.74828-3.78654-19.35274-.026-1.14504 1.51075-7.77672 1.43389-8.94261-.10325-1.56616-2.87302-7.69825-2.92653-9.13737-.0456-1.22647 1.70914-5.11744 1.63395-6.11122-.78354-2.72408-2.02631-6.51041-1.75769-10.22713.27519-3.80758-.39391-7.364082.66539-9.433015 1.43606-3.689133 2.7074-3.291431 5.09751-6.612154 2.622-3.6429 2.79272-6.227475 6.51017-9.024105 3.56725-2.68364 5.03018-2.120418 9.55639-3.64446 3.50384-1.179795 3.2263-3.672322 8.33956-5.196638 3.15561-.940721 5.53423-.134486 9.1659.322317 2.84803.826734 8.83586-1.122751 11.41344-.39356 2.99868.848318 5.77764 2.187721 8.20481 3.641373 2.76606 1.65662 7.16747 1.675934 9.4571 3.184493 2.21115 1.456855 2.999 3.683151 4.61436 5.465161 2.05893 1.675321 4.00772 2.919626 5.57671 5.277193 1.49944 2.253059 1.04286 4.089682 2.02663 7.634491.58446 4.088194 1.62359 4.170334 1.89644 7.988684z" class="hair" id="path4857"/><path id="path4859" class="hair" d="m322.84768 121.53338c2.07809.73237 4.18812 1.14413 6.34967 1.091 2.11658 2.52119 1.0853 9.82407 2.92603 12.24393 33.63083-69.217716-72.11429-86.220251-69.63276-22.91558.49758-.1737.98816-.34172 1.47195-.50414.12418-.0417 1.8315 2.44905 1.96219 3.27899.1098.69729-.39625 2.15049-.42609 2.4804-.0408.45049.80113 3.76758.81994 3.68034.62373-2.89238 1.69076-5.39776 1.68554-5.54277-.0266-.73891-.78037-1.26977-.98852-2.84254.25839-.91231.54512-1.77515 1.67338-2.52597.1603-.0457-.29648.71722.96465 3.2239 1.33102 2.64559-.67873 3.17382-.67855 4.79094 3e-5.27557 1.31761 2.74166.51544 4.28078-.15887.30482 1.33175 5.34712 1.79076 5.15509.38095-.15937.30096-5.91886.31937-6.59596.0112-.41317-.56999-1.75263.52012-2.68998.17526-.1507 1.35922-1.6391 1.2013-4.7076-.0107-.2089-1.65892-4.40538-.52041-4.51642.55725-.0543 1.39631 2.16875 1.36042 2.2522-.41763.97104-.1158 3.30512.80749 3.77274.72625.36783.74135 4.09818 1.14553 3.84079.3517-.22398.66192-4.42465-.14942-5.75336-.44074-.7218.34516-1.50429.50658-2.13561.36573-1.43033-.56956-2.60594-.44882-2.62693.39617-.0689 1.6764 1.03033 2.16735 2.15133.38021.86816-.0278 1.64106.16314 2.55527.1877.89881.76337.79619 1.01795 2.73185.0862.65513 2.21983-1.12922 2.15281-2.73716-.0795-1.90622 1.39215-2.60687 1.38647-2.84264-.0582-2.41525-.81984-2.53597-.64566-2.54265.85248-.0327 2.25607 1.00793 3.54511 1.82012.97837.61644 1.89075 1.10128 2.44611.88537.67112-.26092 1.44212-.57355 2.24142-.79578 1.44828-.40266 2.98946-.50854 4.19767.52772.38175.32743-.79421 3.24508 1.05527 4.4996 2.4046 1.63107 2.57214 4.7019 2.14041 7.42762-.41392 2.61326 1.92898 4.65812 2.52372 4.6222.12697-.008-1.03485-2.23594-.64562-4.46765.38125-2.1859 1.18522-4.16873-.39909-5.75361-1.47001-1.47055.8007-3.95263 1.02691-3.95213 2.25656.005 2.51166-1.96195 2.78998-1.98078.18363-.0124 2.43479 2.09305 2.83394 3.26206.25604.74988 1.2849 2.88466-1.42782 7.35687-.56006.92332 2.20907 6.46301 3.67681 6.95098-.32997-.37926-.5331-4.38145-.8069-6.09508-.29455-1.84355 1.22574-4.22904 1.98659-5.20785 1.13641-1.46198 2.239-2.94349 2.3783-3.97868.38291.33928 3.87022 1.55194 4.04797 2.82176.1537 1.09801.71208 2.17313 1.65539 2.88062 2.29421 1.72066 1.5049 5.96702 1.11611 6.10216-1.80828.62852-2.68045 3.98667-2.48821 4.39178 3.66761 7.72867.57464 9.87856 1.57345 9.05762.99583-.81849 3.51011-2.84484 3.31168-5.51434-.0336-.45234-1.63211-5.46527 1.56353-6.34387.55307-.15206 1.03655-2.18436.23942-4.56695z"/><path id="path4861" class="hair" d="m262.37581 120.66165c1.55789-5.78692-7.60304 10.878-7.07294 1.83134.0773-1.31993.25561-2.59261.56746-3.79415 2.58726-5.90607 3.70102-21.247007 4.5583-22.11769 3.84974-5.539881 10.16996.460282 12.52678.293266 1.53884-.629811 2.41859.03469 5.48428 1.705224 17.04829 6.86023 53.99482-.674568 60.72062 24.03279-51.92234-30.620438-82.08113-24.313139-76.7845-1.95078z"/><path d="m350.13067 120.67459c-1.44602-2.50689-2.36115-3.90029-2.29073-4.29105.0781-.43347 4.1588-1.28507 6.65554.88671 2.30707 2.00681 2.04251 8.97842 5.35146 12.39092.71114-1.47513 2.37434-2.16734 4.46713-4.26504-2.96935-3.73596-2.75109-10.74273-5.30218-13.79013-4.90403-5.85813-10.45408-8.71668-10.51942-9.35068-.0442-.42908 1.03435-4.421848 2.91456-3.674099 1.54184.61319 2.3826 6.317609 4.80875 7.621569 1.74764.93934 5.44511-1.51927 7.51752-.45978 2.17769 1.11331 3.05723 7.8615 5.367 9.14877 2.19841 1.22522 6.32345-.56243 8.56773.48228 2.77773 1.29303 3.90941 8.85705 6.34434 10.08441 8.07443 4.06998 15.25417 1.0266 14.95849.11587-.24694-.7606-6.01141-.12503-12.71152-4.84397-2.21065-1.55694-3.54646-8.11086-6.11352-9.64182-2.30267-1.37329-5.47611.79111-7.83752-.83177-2.5111-1.72571-3.73821-7.87586-6.24812-9.48329-2.09798-1.343567-5.70196 1.36378-7.63571.0178-2.19339-1.526709-3.90118-8.269072-5.75381-9.527169-5.15349-3.499696-8.72773-3.712922-9.04401-4.254847-.24486-.419576.7339-3.958084 3.35599-3.482227 1.16296.210991 1.96521 3.918561 3.50357 4.321659 1.81881.47659 5.30863-2.0682 7.48053-1.529797 2.97924.73856 3.93032 6.555201 6.97537 7.543622 10.13603 3.290118 21.47672 2.286185 20.72181 1.443797-.61747-.689039-9.72143-.276067-19.65714-4.293105-2.56944-1.038828-4.17631-6.67972-6.90828-7.629933-1.40206-.48767-4.43747 2.28429-5.80424 1.764914-2.51715-.956534-5.29565-5.730326-7.5065-6.503295-6.59623-2.306098-10.67979-1.560995-11.20441-1.975338-.2372-.18738.50015-2.572115 3.60233-3.254215 1.13197-.248922 4.6729 1.871713 6.0681 1.647043 1.51834-.24449 2.55395-2.067301 4.11831-2.392203 1.87017-.388411 3.07981 3.97589 4.86395 3.675042 5.66557-.955378 10.95626-6.197525 10.57666-6.448633-.48682-.321517-4.4354 3.495951-10.13188 3.617199-1.67756.03569-4.09428-4.322305-5.8867-4.126543-1.58512.173145-2.34199 2.8786-3.9894 2.968557-2.00769.109585-6.00403-2.139564-7.77039-1.989325-4.92957.419333-7.90814 2.1229-8.3686 1.888392-.42233-.215065-.31561-1.876536.92963-2.730338.90592-.621118 3.40722.359893 4.68238-.261008 3.32976-1.621317 5.71706-4.689683 4.87344-5.004172-.59121-.220376-2.14665 1.935354-5.38097 2.473423-1.74523.290345-4.76553-1.290247-6.60625-.798705-3.71149.991101-7.29513 2.933831-7.95863 2.763163-16.04871-4.127869-33.95089.11256-41.63748 12.648684-3.41649 9.765414-5.28324 18.255391-5.89565 25.595168 19.75528-19.383953 41.49432-6.27878 60.29787 12.58871 5.39062-3.27371 9.85065-3.79105 19.1606 1.14478z" class="hair" id="path4863"/><path d="m346.41213 113.59491c-.13121-.59583 2.3104-3.17762 6.54149-1.48863 2.32417.92779 4.75256 9.71631 7.88085 11.1786 3.05097 1.42611 7.23942-1.50888 10.72522-.10356 4.74443 1.91277 8.88911 10.49936 13.59712 12.59348 13.77719 6.12802 26.42431 5.45995 26.05775 4.34421-.36477-1.1104-11.77845-2.74042-24.76678-10.86283-4.41291-2.75966-8.10109-11.85277-12.82291-14.393-2.84614-1.53114-7.41672 2.60198-10.11059.99485-3.29681-1.96683-6.21438-9.7626-9.04187-11.42516-7.93481-4.665607-13.04923-6.191137-13.36362-6.860399-.18765-.398469 2.64686-3.455593 5.93996-3.130367 3.04295.300523 6.86359 6.138006 11.53728 7.004596 3.02496.56087 7.29518-3.485021 10.60572-3.055617 4.04134.5242 8.38031 8.672907 12.20485 9.421657 11.62655 2.27609 20.7305-2.48622 20.25327-3.24163-.49109-.77742-8.63354.83481-19.35213-2.67783-3.74671-1.22784-7.76796-7.927246-11.94259-8.907997-3.11804-.732516-7.56459 3.275155-10.59618 2.397589-4.58406-1.326949-8.46281-7.166273-12.30719-8.173977-7.39017-1.937141-13.57042-1.054551-13.99076-1.533653-.28445-.324263-1.71679-4.204194.24921-4.68312 1.61214-.392743 5.60035 3.771611 8.33346 3.43013 1.96878-.245936 3.56005-4.391283 5.86321-4.727291 2.42015-.353078 7.04428 4.639832 9.67284 4.352115 2.50183-.273822 4.83018-4.119653 7.26492-4.567219 3.01344-.553946 8.31549 4.958169 11.01141 4.549154 8.93987-1.356399 13.03185-7.994662 12.26348-8.566035-.6417-.477182-4.97379 3.378477-13.16883 3.410051-2.70388.01044-7.58755-4.559899-10.56697-4.321922-2.67258.213466-4.00692 3.815529-6.87189 3.859498-3.04656.04679-7.60783-4.257272-10.58495-4.114727-2.48846.119185-3.85949 4.413211-6.21545 4.435349-2.6723.0251-7.96837-4.483526-10.20731-4.436701-6.2281.130234-9.26582 2.025757-9.83745 1.767014-.44257-.200334-1.69323-3.652127.7202-4.782246 1.07037-.501286 3.87107 2.057199 5.35874 1.495204 1.75889-.664446 3.13096-4.759835 5.21354-5.578311 2.85673-1.122707 6.99985 3.069246 10.05489 2.112166 10.16928-3.185848 18.83467-10.570314 17.73143-10.820082-.90238-.204313-8.08619 5.40331-18.51301 7.880489-2.69645.640623-7.2725-3.028354-10.05015-2.221385-1.42553.414135-2.29557 4.431654-3.71066 4.799498-2.60616.677439-7.63549-1.606204-9.88563-.956429-6.71338 1.938731-9.61153 4.910508-10.27917 4.876412-.30189-.01544-1.08137-2.386749 1.05307-4.738961.77883-.858334 4.8937-1.179343 5.90121-2.170325 1.09642-1.078416.88546-3.16423 1.97285-4.334854 1.29996-1.399459 4.81303 1.458627 6.09356.180368 4.06628-4.059153 5.34501-11.396484 4.89012-11.381449-.58308.01971-1.59236 5.418382-6.16679 8.815328-1.34714 1.000356-5.84075-1.153728-7.18886.04364-1.19218 1.058907-.24292 3.703002-1.53405 4.730147-1.57352 1.251741-6.13412 1.731653-7.48735 2.876821-3.77654 3.195971-5.21879 6.309469-5.73 6.384855-.46887.06917-1.3438-1.347302-.82281-2.764405.37903-1.030926 2.98644-1.679237 3.66666-2.923765 1.77622-3.249767 1.94622-7.13373 1.07629-6.90172-.60963.162603-.62975 2.820832-2.95533 5.132119-1.25487 1.247165-4.63259 1.707094-5.84883 3.173589-2.45234 2.956929-4.24948 6.615749-4.88928 6.860744-15.47522 5.926047-27.61667 19.748282-26.62591 34.419904 31.92437-20.30214 103.08721 23.19813 88.6415 7.70863-3.07236-2.6075-4.93898-3.97017-4.94036-4.38264z" class="hair" id="path4865"/><path d="m296.64452 60.076382c-.58129.185331-3.3761-2.009253-2.08225-6.377406.71074-2.39948 9.23951-5.623605 10.40871-8.872863 1.14029-3.168895-2.16644-7.070522-1.08672-10.670508 1.46961-4.899857 9.6399-9.814543 11.29342-14.694766 4.83872-14.281125 3.01361-26.8136823 1.93619-26.3463433-1.07226.4650923-1.64868 11.9801363-8.54571 25.6586303-2.34333 4.647385-11.05989 9.15395-13.15637 14.088839-1.26367 2.974567 3.27118 7.146826 1.91788 9.976736-1.65619 3.463284-9.15154 7.083507-10.54778 10.051558-3.91827 8.329253-4.96834 13.56203-5.60594 13.936476-.3798.223058-3.68378-2.318794-3.66193-5.62786.0202-3.057686 5.48268-7.397564 5.91701-12.131035.28111-3.06365-4.13937-6.94483-4.01538-10.28079.15137-4.072402 7.86783-9.140389 8.26266-13.017486 1.20026-11.786292-4.3769-20.415136-5.08536-19.870625-.72907.560375 1.62305 8.520601-.89178 19.516141-.87908 3.843545-7.18146 8.462234-7.77523 12.709222-.44348 3.172085 3.95511 7.232342 3.35925 10.331651-.90096 4.686428-6.35997 9.08435-7.01086 13.004937-1.25123 7.536698.19442 13.609949-.24411 14.072445-.29681.313018-4.02905 2.095092-4.68624.181347-.53891-1.569347 3.24211-5.922639 2.65143-8.612919-.42547-1.937935-4.69927-3.142328-5.24509-5.40497-.57354-2.377577 3.97426-7.440103 3.4467-10.031193-.50211-2.466176-4.54527-4.432035-5.21424-6.815445-.82798-2.949948 4.17466-8.735165 3.52012-11.382212-2.17053-8.777809-9.15609-12.243757-9.65459-11.426223-.41633.682767 3.82039 4.642991 4.60338 12.800615.25837 2.691508-3.84485 7.973748-3.33462 10.918796.45766 2.64174 4.16692 3.64011 4.47344 6.488981.32599 3.029426-3.54162 7.96619-3.12665 10.917672.3469 2.467075 4.74856 3.438524 4.98666 5.782526.27007 2.65875-3.73386 8.345968-3.4819 10.571179.70086 6.189921 2.86697 9.040991 2.66174 9.633941-.1589.45907-3.48145 2.02102-4.82814-.27859-.59734-1.01989 1.69353-4.04341.99746-5.47328-.82295-1.690551-5.02691-2.681251-6.03293-4.680001-1.37996-2.741717 2.41437-7.251821 1.18114-10.206218-4.10503-9.83425-12.25307-17.7859-12.40061-16.664404-.12069.917316 6.12212 7.556582 9.54509 17.712282.8852 2.626327-2.34864 7.519583-1.29034 10.21153.54312 1.38152 4.6235 1.87947 5.11957 3.25486.9136 2.533051-.89919 7.750611-.0458 9.931681 2.54625 6.5073 5.77128 9.12068 5.79856 9.78864.0123.30204-2.27754 1.29567-4.81557-.61402-.92614-.69684-1.62318-4.76493-2.70237-5.6773-1.17442-.99292-3.2321-.59155-4.49751-1.567-1.51279-1.16614 1.01108-4.92653-.37923-6.08442-4.41496-3.67688-11.83864-4.27733-11.78195-3.82572.0731.5788 5.54158 1.08873 9.34372 5.33234 1.11968 1.24971-.61322 5.92194.70274 7.15455 1.16378 1.09006 3.70968-.0977 4.8509 1.0938 1.39078 1.45211 2.28691 5.94947 3.55136 7.19196 3.52884 3.46753 6.76149 4.61818 6.88345 5.12032.11186.46054-1.2184 1.46169-2.67731 1.07285-1.06134-.28289-1.94604-2.81985-3.24771-3.38306-3.39896-1.47071-7.28215-1.2838-6.97134-.43882.21783.59216 2.8667.36841 5.38152 2.47222 1.357 1.13522 2.12475 4.45651 3.69661 5.53314 1.65366 1.13266 3.48125 2.07018 4.89406 2.79515 1.29494.66449 4.71631-25.896434 3.27004-14.81912-2.14532 16.43162 17.07124-12.671331 31.59017-15.003441 20.16703-7.886035 35.91517 37.339401 41.39451 27.735531 10.50904-18.419624-1.14911-37.594434-16.38161-48.301721-.48281-.339382.17591-5.237612 8.18157-9.468369 4.7827-2.527489 15.4902-3.391136 20.98463-6.855488 3.75195-2.365703 2.72987-8.106757 6.96342-10.216739 4.04118-2.01411 14.84228 1.524048 18.51468-.459959 12.84507-6.939423 21.16393-15.075625 20.48094-15.445164-.57492-.311072-11.78775 4.243182-25.27461 6.166061-7.61046 1.085062-16.06894-1.798972-23.44369.839905-5.35927 1.917677-2.41789 9.399083-5.59797 12.881175-3.10319 3.397916-12.33885 2.797732-16.59832 4.645035-12.31877 5.342493-15.22509 11.910981-15.89222 11.660644-.50286-.188679.96308-7.995808 8.32635-17.630236 2.19342-2.869988 12.53063-5.891639 15.14215-9.120954 2.72151-3.365327-.87216-6.26042 1.7885-9.795613 3.65933-4.862097 15.21788-8.2981 19.02512-13.02031 12.18947-15.118837 15.76811-29.423618 15.0997-29.576427-1.09195-.249641-8.35317 13.16749-22.08489 26.747091-5.17674 5.119376-16.41686 8.111909-21.10209 13.53482-3.23669 3.746291 3.25386 7.054135-.0775 10.613633-2.92337 3.123524-13.1245 5.477094-15.68499 8.277147-9.33177 10.204818-13.08392 17.684198-13.88509 17.760687z" class="hair" id="path4781-0-5"/><path d="m328.70995 74.314716c-.57594-.201343-1.49007-3.635223 2.16983-6.348142 2.01044-1.490232 10.76425 1.0604 13.65191-.83331 2.81624-1.846868 2.51922-6.952643 5.54622-9.180422 4.11999-3.032161 13.60362-2.048011 17.85878-4.953923 12.45197-8.503658 18.5275-19.61599 17.38556-19.890223-1.13647-.272928-8.51946 8.582581-22.25401 15.367291-4.66644 2.30516-14.34126.666474-18.98327 3.349782-2.79802 1.617405-1.68226 7.677743-4.46494 9.125666-3.40549 1.771987-11.57158.159137-14.47163 1.691638-8.1384 4.300668-12.12326 7.851085-12.85789 7.767019-.4376-.05007-1.54986-4.06755.45687-6.698792 1.85429-2.431348 8.82848-2.61567 12.02112-6.137233 2.06638-2.279266.86704-8.03824 2.97156-10.629571 2.56911-3.163385 11.78223-2.574566 14.4285-5.435519 8.04457-8.697246 8.77498-18.945571 7.88149-18.936331-.91949.0095-3.82518 7.784783-12.44491 15.059852-3.01307 2.54303-10.82606 2.445247-13.85366 5.482198-2.26132 2.26831-1.18713 8.15723-3.52647 10.275778-3.53726 3.203452-10.54357 3.436245-13.4206 6.17802-5.53064 5.270623-8.02635 10.993008-8.65483 11.098977-.42536.07171-4.47922-.747838-3.85394-2.672246.51277-1.578083 6.15131-2.783946 7.29656-5.288924.825-1.804438-1.8663-5.33613-.94228-7.472401.97097-2.244783 7.64863-3.556462 8.78469-5.944229 1.08131-2.272644-.96792-6.274197-.0697-8.58101 1.11172-2.85514 8.58731-4.470914 9.65554-6.979732 3.5423-8.319448.0435-15.288613-.84633-14.934973-.74315.295341.26182 6.007012-4.01648 12.996721-1.41155 2.306189-7.86601 4.06071-9.22871 6.720918-1.22237 2.386221 1.14164 5.413897-.32603 7.874785-1.56065 2.616879-7.61915 4.236959-9.06184 6.845042-1.20588 2.180057 1.72763 5.602461.50879 7.618761-1.3825 2.287044-8.00108 4.424885-9.13743 6.354587-3.16104 5.367884-3.14397 8.948435-3.66443 9.298904-.40296.271333-3.99709-.477839-3.69084-3.1251.13576-1.174121 3.78407-2.213137 4.0874-3.774237.35864-1.845694-2.40531-5.164633-2.00769-7.366672.54544-3.020564 6.28888-4.343739 7.07943-7.446054 2.63147-10.326621.90031-21.579282.10821-20.771755-.6479.660502.34968 9.719054-3.02009 19.892531-.87144 2.630923-6.39732 4.59723-7.16988 7.384652-.39649 1.430516 2.56493 4.281392 2.13453 5.678725-.79268 2.573456-5.37791 5.653198-6.0071 7.90918-1.87713 6.730881-.87096 10.758066-1.25071 11.308246-.17174.24877-2.59895-.33374-3.47914-3.385592-.3212-1.113622 1.56733-4.783589 1.2534-6.161454-.34162-1.499484-2.22726-2.415726-2.65209-3.955948-.50788-1.841323 3.7696-3.329125 3.35464-5.090225-1.31775-5.592393-6.88928-10.535029-7.11546-10.140053-.28954.506481 3.77395 4.201397 4.26128 9.87828.1435 1.671786-4.05006 4.363764-3.73943 6.139879.27472 1.570716 3.02325 2.152026 3.21896 3.790242.23847 1.996504-1.74902 6.129201-1.4855 7.882241.73548 4.8924 2.62707 7.75525 2.42266 8.22984-.18746.43528-1.85236.43564-2.78447-.75213-.67809-.8641.14003-3.42331-.56159-4.65589-1.83209-3.2186-5.04763-5.403644-5.30722-4.54155-.1819.60417 2.0694 2.01775 2.81435 5.21077.40198 1.72296-.98111 4.83864-.37221 6.64394 1.22773 3.64007 3.3969 7.09136 3.26925 7.76446-3.08725 16.28095 12.01839-12.972446 25.02288-6.107946 43.52311 12.148206 51.14213 43.204996 54.2985 23.367376.14582-.91651.26137-1.84166.34782-2.7731.65889-7.09887-.37227-14.56285-2.56977-21.34907-.18181-.56146 3.2892-4.07978 12.23012-2.64805 5.34142.85536 14.4173 6.60207 20.89069 7.13662 4.42046.365 7.05496-4.83728 11.70655-3.9784 4.44023.81984 10.94473 10.14045 15.07216 10.76265 14.43658 2.1764 25.97557.67545 25.65192-.0305-.27243-.5942-11.97077-3.69543-23.90449-10.26651-6.73405-3.70797-11.75972-11.09757-19.23949-13.42214-5.43559-1.689292-7.58254 6.05756-12.21712 6.92848-4.52254.84988-11.54224-5.18183-16.05663-6.2662-13.05599-3.136167-19.32721.36576-19.70984-.23534-.28843-.45308 5.57636-5.810737 17.25238-9.083425 3.47814-.974906 13.55542 2.824685 17.58369 1.813973 4.19793-1.053282 3.06652-5.5272 7.31794-6.752807 5.84717-1.685621 17.14954 2.517067 23.03082 1.032152 18.82977-4.754145 30.289-14.034213 29.84671-14.558147-.72254-.855929-14.591 5.500982-33.72792 8.097941-7.21444.979018-17.99575-3.386634-24.99988-1.869577-4.83865 1.048018-1.64039 7.593259-6.4424 8.435093-4.21388.7387-13.78078-3.51297-17.51022-2.814618-13.59201 2.545127-21.08675 6.266499-21.77297 5.845995z" class="hair" id="path4781-0-3-8"/><path d="m353.09523 101.78607c-.20267-.57547 1.90716-3.4348 6.31213-2.27246 2.4197.63849 5.89802 9.06679 9.18086 10.13808 3.20165 1.04479 7.00241-2.3774 10.63314-1.40607 4.94171 1.32208 10.09908 9.34139 15.02667 10.84789 14.41974 4.40849 26.89196 2.20855 26.39254 1.14562-.49702-1.05784-12.02417-1.28885-25.90325-7.77279-4.71554-2.20298-9.48134-10.78054-14.47685-12.72816-3.01111-1.17394-7.04557 3.48393-9.91477 2.21606-3.51137-1.55164-7.35463-8.93511-10.3632-10.24176-8.44295-3.66685-13.70485-4.5596-14.09824-5.18569-.23434-.37295 2.20734-3.75163 5.51557-3.828974 3.05692-.07146 7.55858 5.258484 12.30294 5.550734 3.0707.18916 6.81764-4.34566 10.15582-4.32172 4.0751.0292 9.3721 7.59032 13.25929 7.86877 11.81697.84643 20.27477-4.98686 19.70927-5.67868-.58195-.71196-8.46812 1.87772-19.5341-.30641-3.86816-.76347-8.67369-6.924588-12.93656-7.390788-3.18395-.348202-7.11055 4.170106-10.22632 3.667413-4.71133-.760082-9.2709-6.084821-13.20924-6.617901-7.57081-1.024769-13.598.602272-14.07344.177798-.32177-.287293-2.21492-3.964443-.32173-4.6787 1.55249-.585703 6.01716 3.063133 8.68853 2.39208 1.92431-.483363 3.00006-4.791345 5.24532-5.404741 2.35932-.644542 7.55589 3.749471 10.13 3.144482 2.45002-.575803 4.2938-4.676075 6.6561-5.416175 2.9238-.916027 8.85637 3.910963 11.48261 3.177377 8.7088-2.43266 11.96381-9.51897 11.1317-9.99274-.69493-.395675-4.52639 3.957837-12.65688 4.98499-2.68256.338926-8.08541-3.604118-11.01384-3.005846-2.62684.536637-3.51358 4.274157-6.35198 4.66593-3.01829.416648-8.06877-3.301253-11.00649-2.798004-2.45556.420692-3.29464 4.849493-5.63046 5.157745-2.64945.349645-8.45413-3.482023-10.67079-3.163477-6.16613.886076-8.95099 3.136674-9.54983 2.94931-.46363-.145072-2.12446-3.419312.13375-4.834321 1.00153-.627642 4.09235 1.571568 5.50072.832956 1.66512-.873253 2.52937-5.105021 4.49706-6.170499 2.69913-1.461515 7.32093 2.19592 10.23704.874695 9.70679-4.397956 17.41064-12.780675 16.28523-12.894535-.92053-.09314-7.36969 6.345866-17.41823 10.071702-2.59861.963526-7.5866-2.122195-10.24561-.983681-1.36463.584283-1.74004 4.677761-3.09995 5.214834-2.50453.989111-7.77408-.666476-9.92859.251909-6.42806 2.740148-8.9436 6.042062-9.61044 6.089349-.30153.02135-1.36335-2.237677.46941-4.831804.66876-.946613 4.71413-1.765279 5.59375-2.871326.95726-1.203658.4944-3.248381 1.43148-4.542461 1.12028-1.54706 4.95462.862957 6.07032-.56143 3.5429-4.523187 3.92056-11.961531 3.47086-11.891325-.57636.09041-.92214 5.571723-5.04988 9.49935-1.21559 1.156636-5.93766-.435443-7.13028.916869-1.05468 1.195935.20885 3.705083-.9479 4.881507-1.40977 1.433681-5.87825 2.464214-7.08229 3.765332-3.3602 3.631194-4.41344 6.896881-4.9117 7.03383-.45698.12562-1.49754-1.174037-1.15262-2.643944.25095-1.069345 2.76026-2.029692 3.28421-3.347655 1.36816-3.441516 1.06494-7.317359.22966-6.981363-.58536.235486-.28232 2.876457-2.30981 5.453209-1.09403 1.390415-4.39082 2.25737-5.41985 3.860794-2.07486 3.233015-3.41408 7.083101-4.01936 7.404018-14.64044 7.762606-25.01232 22.957787-22.24607 37.400287 11.13851-13.79183 43.73615 10.60024 83.66193 8.4422-1.28864-1.06976-2.06421-1.56085-1.98298-1.79877.17354-.50828 8.02108.72298 17.87189 7.79416 2.93444 2.10641 6.26458 12.34841 9.57072 14.86196 3.44539 2.61941 6.23146-1.05941 9.84481 1.49408 4.9696 3.51195 8.75051 14.96232 13.58472 18.62631 15.4774 11.73082 29.88303 14.87909 30.01573 14.2064.2168-1.09894-13.41194-7.95473-27.39704-21.27326-5.27224-5.02096-8.60033-16.16633-14.16124-20.68691-3.84162-3.12295-6.95344 3.46383-10.61119.24066-3.20974-2.82843-5.86802-12.95443-8.74356-15.42984-10.47995-9.02171-18.06843-12.54799-18.1689-13.3465z" class="hair" id="path4781-0-3-5-1"/><path d="m339.46968 114.69198c.12287-.59762 3.40447-1.96081 6.58052 1.3053 1.74464 1.79412.38223 10.8096 2.64354 13.41942 2.20539 2.54527 7.22616 1.5711 9.83713 4.27453 3.55372 3.6796 3.841 13.20983 7.28758 17.04021 10.08584 11.2089 21.90815 15.75082 22.0279 14.58253.11919-1.16269-9.64047-7.3009-18.19343-20.00984-2.90594-4.31798-2.56997-14.12484-5.84744-18.36826-1.97554-2.55776-7.83338-.64504-9.6389-3.21017-2.20963-3.13925-1.69839-11.44737-3.60337-14.11756-5.34594-7.49333-9.3953-10.97-9.40979-11.70928-.009-.44037 3.82498-2.07763 6.69997-.43909 2.65659 1.51406 3.76784 8.40161 7.68312 11.09696 2.5341 1.74451 8.08212-.21092 10.93058 1.52985 3.47728 2.12505 4.12036 11.33454 7.30817 13.57634 9.69089 6.81497 19.94522 6.17439 19.8171 5.29009-.13183-.91004-8.22477-2.75464-16.58272-10.32901-2.92155-2.64765-3.86489-10.4041-7.2779-13.0004-2.54919-1.93917-8.24266-.0905-10.65381-2.12692-3.6459-3.07926-4.80945-9.99219-7.90988-12.47856-5.96005-4.77965-11.96378-6.49125-12.15249-7.10003-.1277-.41202.14481-4.538908 2.13533-4.175414 1.63231.298093 3.57817 5.725884 6.21333 6.527424 1.89821.5774 5.04014-2.56016 7.28041-1.92879 2.35407.66344 4.54316 7.10701 7.06093 7.91505 2.39638.76909 6.08946-1.79467 8.49533-1.21158 2.97773.72168 5.57444 7.91558 8.20315 8.64027 8.71701 2.40309 15.15829-1.99245 14.68932-2.82728-.39165-.6972-5.91866 1.05929-13.41577-2.2503-2.4736-1.09193-5.07186-7.25532-7.88981-8.2517-2.52773-.89378-5.2137 1.85229-7.84809.72534-2.80137-1.19833-5.21367-6.987196-7.99062-8.069796-2.32119-.904881-5.32255 2.458179-7.48319 1.518642-2.45074-1.065684-5.45077-7.340701-7.51459-8.21001-5.74096-2.4182-9.28736-1.924558-9.70401-2.393725-.32257-.363247-.0586-4.025121 2.60587-4.074063 1.18175-.02177 2.69726 3.455716 4.28485 3.548499 1.87701.109705 4.7984-3.071528 7.03377-2.970637 3.06629.138419 5.14238 5.654552 8.32233 6.025014 10.58505 1.233129 21.50703-1.980828 20.60124-2.658358-.74089-.554193-9.58597 1.640586-20.11753-.344658-2.72353-.513393-5.40806-5.728276-8.27352-6.122831-1.47058-.202501-3.90177 3.11213-5.34398 2.871603-2.65608-.442985-6.31889-4.577346-8.63856-4.900569-6.92088-.964249-10.77825.569153-11.37409.266038-.26941-.137089-.0153-2.620246 2.89223-3.898932 1.06094-.466613 4.94968.916476 6.27348.42189 1.44064-.538229 2.09767-2.529069 3.56762-3.155188 1.75731-.748513 3.80138 3.292791 5.49155 2.647047 5.36716-2.050601 9.52397-8.230605 9.10241-8.402181-.54053-.219532-3.66152 4.299735-9.22298 5.538562-1.6378.364807-4.86415-3.432998-6.5831-2.888661-1.52015.481407-1.73034 3.282862-3.32791 3.694949-1.94697.502167-6.3075-.917393-8.00985-.422814-4.75092 1.380319-7.33643 3.636234-7.83401 3.496832-.45637-.127837-.67838-1.777863.3747-2.85982.76612-.787102 3.41148-.317003 4.53968-1.176486 2.94601-2.244314 4.68347-5.722147 3.79449-5.864641-.623-.09984-1.72426 2.319621-4.78967 3.483067-1.65409.627797-4.92619-.328146-6.63435.515695-3.4442 1.701449-6.57595 4.310818-7.26005 4.273926-16.54704-.892076-33.26615 6.785222-38.33807 20.58789-1.53121 10.972492-1.60753 20.16157-.55437 27.789336 27.56655-11.587591 69.62514 10.18866 77.01529 12.60607-.94886-1.90619-1.49309-2.99303-1.37478-3.26068z" class="hair" id="path4781-0-3-5-5-2"/></svg>