<svg viewBox="0 0 560 1e3"><g data-transform="belly" id="g5981" transform="matrix(1.014792,0,0,1.0059302,-4.1476732,-2.5734225)"><path d="m274.8 433.8c20.7-1.5 47.7-4.5 61.9-42.4 13.1-44.3-27.8-99.6-59.9-101.5-40.1 6.2-61.8 42.8-63.9 96.9 2.2 31 33.1 49 61.9 47z" class="shadow" id="path5977"/><path d="m274.8 433.8c20.8.1 49.4-13 61.9-42.4 6.45338-15.17835 1.31248-36.91345-8.95529-56.90779C318.12412 315.75811 304.00257 298.55225 290.7 289.7c-6.5-4.3-38.7-8.2-40.4.0-2.6 11.6-44.9 33.3-41.4 96.8 1.8 34.8 45.1 47.2 65.9 47.3z" id="path5979" style="fill-opacity:1;fill:#005b96"/><path style="display:inline;fill-opacity:1;fill:#000;stroke-dasharray:none;stroke-linecap:butt;stroke-linejoin:miter;stroke-miterlimit:4;stroke-opacity:1;stroke-width:0;stroke:#000" d="m219.72425 331.08641c0-.39914 4.30319-7.31293 5.80578-10.65956 1.84601-.26447 49.14607 2.17178 96.97491 1.70253.21889-.002 6.6643 12.24162 6.92697 12.33249-56.69812 1.70028-109.70766-3.37546-109.70766-3.37546z" id="path4309-4"/><path style="display:inline;fill-opacity:1;fill:#004878;stroke-dasharray:none;stroke-linecap:butt;stroke-linejoin:miter;stroke-miterlimit:4;stroke-opacity:1;stroke-width:0;stroke:#000" d="m243.3202 331.73743-23.17467-1.67939c1.98697-4.44934 3.66664-6.78166 5.39605-9.02615 1.85263-.26542 51.78023 4.94301 99.52913 4.66264.27378-.002 3.73607 7.8899 4.01419 7.91824-31.3705.8322-83.85267-2.07241-85.7647-1.87534z" id="path4318-1"/><path style="display:inline;fill-opacity:1;fill:#000;stroke-dasharray:none;stroke-linecap:butt;stroke-linejoin:miter;stroke-miterlimit:4;stroke-opacity:1;stroke-width:0;stroke:#000" d="m322.50371 323.70905c-40.71433 3.43308-92.10677-2.43223-96.97444-2.52922 3.15062-6.6225 21.72846-23.9965 25.15592-33.18181.76851-1.14643 1.01129-1.40319 2.06145-1.93213 1.36203-.78626 4.00493-1.40854 12.29136-1.28401 3.04855.0458 8.29241-.027 12.70391.65419 2.81204.43423 5.47883.57699 8.67233 1.51987 8.3121 5.99674 30.93542 28.29249 36.08947 36.75278z" id="path4324-3"/><path style="display:inline;fill-opacity:1;fill:#b669cd;stroke-dasharray:none;stroke-linecap:butt;stroke-linejoin:miter;stroke-miterlimit:4;stroke-opacity:1;stroke-width:0;stroke:#000" d="m324.53651 324.70966c-41.0706.30334-93.88261-4.62746-98.67388-4.35069 6.05521-11.30804 22.17647-24.20791 24.59396-33.19124.64828-.2725-.44509-.35907 2.25396-1.10537 2.26109-.62521 24.31802.55874 31.65612.75503 2.65451.31622 4.79294.89576 5.08576 1.2045 1.82441.84387 17.4057 8.61392 35.08408 36.68777z" id="path4326-84"/><path style="display:inline;fill-opacity:1;fill:#000;stroke-dasharray:none;stroke-linecap:butt;stroke-linejoin:miter;stroke-miterlimit:4;stroke-opacity:1;stroke-width:0;stroke:#000" d="m236.35836 306.58711c1.38072-1.61193 2.18693-2.6488 2.58041-3.1312 25.14233 2.20309 48.59599 3.2507 74.0612 3.62118.20345.003.50005 2.02579.50005 2.02579s-51.62501-.64365-77.14166-2.51577z" id="path4328-4"/><path style="display:inline;fill-opacity:1;fill:maroon;stroke-dasharray:none;stroke-linecap:butt;stroke-linejoin:miter;stroke-miterlimit:4;stroke-opacity:1;stroke-width:0;stroke:#000" d="m235.71019 307.10356c1.05433-1.35434 2.43739-2.65063 2.86007-3.28392 23.18436 3.13636 74.51714 3.89348 74.68424 3.80118.0.0.89912 1.88016 1.4667 2.50388-24.62085.62677-53.67989-1.12712-79.01101-3.02114z" id="path4330-5"/></g></svg>