<svg viewBox="0 0 560 1e3"><path id="path4238-3" d="m370.45236 269.96102c-.72431 13.77887-3.2131 24.26211-9.15217 38.64163-66.74361-8.03197-118.17547-6.70772-123.69546-4.27459-2.92035-11.95942-4.01566-32.10443.94105-52.56737 50.54474.32853 91.32247 2.85689 131.90658 18.20033z" style="display:inline;fill-opacity:1;fill-rule:evenodd;fill:#000;opacity:1;stroke-dasharray:none;stroke-linecap:butt;stroke-linejoin:miter;stroke-miterlimit:4;stroke-opacity:1;stroke-width:0;stroke:#000"/><path id="path4240-6" d="m361.02241 307.58809c-55.12275-8.36934-113.3879-6.88858-122.49841-4.50988-3.69137-14.28461-1.67245-36.4913.71132-50.46562 12.4531.21782 84.70619.6679 130.48398 17.99082-1.49894 15.86805-3.83773 23.0746-8.69689 36.98468z" style="display:inline;fill-opacity:1;fill-rule:evenodd;fill:#333;opacity:1;stroke-dasharray:none;stroke-linecap:butt;stroke-linejoin:miter;stroke-miterlimit:4;stroke-opacity:1;stroke-width:0;stroke:#000"/><path style="display:inline;fill-opacity:1;fill-rule:evenodd;fill:#000;opacity:1;stroke-dasharray:none;stroke-linecap:butt;stroke-linejoin:miter;stroke-miterlimit:4;stroke-opacity:1;stroke-width:0;stroke:#000" d="m362.70993 410.31424c.8928 1.03783-1.43956 8.87944-1.43956 8.87944-8.19048 4.90102-47.93275 7.81786-60.36774 18.32103-4.31136 3.64157-13.47661 8.29154-16.37051 16.44054-2.5916 7.29773-3.32032 16.98798-9.68774 14.34823-.12708-.0527-.25389-.22936-.38798-.17253-3.64553 1.54503-9.41962-.71855-11.29492-12.24341-2.95293-18.14755-12.84146-17.24873-13.71165-17.80621-12.60056-8.07247-21.38891-19.81687-24.85363-25.1259.0593-.70684.27546-6.76254.27546-6.76254 30.95157 34.29024 114.51819 10.32733 137.83827 4.12135z" id="path3581-6-4-0-7-4-3"/><path style="display:inline;fill-opacity:1;fill-rule:evenodd;fill:#333;opacity:1;stroke-dasharray:none;stroke-linecap:butt;stroke-linejoin:miter;stroke-miterlimit:4;stroke-opacity:1;stroke-width:0;stroke:#000" d="m362.84961 411.48304c.8928 1.03783-1.0078 7.94809-1.0078 7.94809-26.45516 18.17615-60.99813 36.74483-77.63339 37.36709-.27428.37469-.68811.67278-.81935 1.10672-3.57923 11.83428-8.32513 9.8537-8.89431 9.63462-.17013-.0655-5.98956 2.88621-10.50307-7.67418-.19489-.456-.68412-.47689-1.06552-.9139-16.27203-7.95813-36.45881-24.8256-39.15367-45.27808.0593-.70684 1.06207-7.18932 1.06207-7.18932 29.78951 36.10978 115.81996 11.95494 138.01504 4.99896z" id="path3581-6-8-0-7-5"/><path id="path3401-2-3-9" class="shadow" d="m329.90806 425.67038c-15.4791 1.19068-42.03653 26.26041-44.60913 30.99635 10.29989-9.14088 29.75951-26.28541 44.60913-30.99635z"/><path id="path3406-2-8-5" class="shadow" d="m262.16597 457.51867c-6.81704-9.41592-28.83006-31.99347-34.93819-34.15183 5.05404 5.44075 26.5203 25.35081 34.93819 34.15183z"/></svg>