<svg viewBox="0 0 560 1e3"><path id="path6049" d="m347.87122 216.10417c-2.2742-3.975-5.32807-5.56966-2.31247-5.91928 8.0577-.9342 6.16932-4.87509 29.22752-4.57909 13.9171-.0228 61.82655-36.21326 71.96193-36.58113.0692-.003-5.4263-.44543-11.3778-4.15901-13.70395-8.5509-26.64927-21.32163-38.6974-31.32407-13.793-11.45105-25.78887-19.62336-25.77794-19.65769 4.72107-14.824794 2.8282-16.884161 5.36226-16.04704.35496.117259.7051.249477 1.04181.407539 97.67659 45.851381 108.66557 69.786411 108.04632 74.496591-37.32592 35.32228-78.13508 66.19722-124.54874 87.73837-6.76698-20.22007-12.61438-43.93416-12.92549-44.37519z" style="display:inline;fill-opacity:.00392157;fill-rule:evenodd;fill:#1a1a1a;stroke-dasharray:none;stroke-linecap:butt;stroke-linejoin:miter;stroke-miterlimit:4;stroke-opacity:0;stroke-width:3.05055022;stroke:#000"/><path id="path6051" d="m347.79149 214.93549c-2.23963-3.9037-5.24707-5.46975-2.27732-5.81311 7.93519-.91744 6.81412-2.33248 29.52175-2.0418 24.17356-5.67925 55.77625-32.19828 70.12924-38.38017.0625-.0269-4.62991-1.71435-10.49092-5.36132-13.64959-8.49335-25.70637-20.78774-37.54164-30.62367-13.26295-11.02242-25.54424-19.14934-25.53359-19.18271 4.64792-14.559336 1.65256-16.131498 4.40716-14.990443.66284.274573 1.33852.507977 1.99476.780374 6.02488 2.500849 11.67395 5.034389 16.876 7.673549 79.29443 40.22858 90.14029 61.20488 89.57012 65.52974-36.75843 34.68874-78.21859 64.83404-123.9266 85.98883-6.66409-19.85739-12.42259-43.14615-12.72896-43.57927z" style="display:inline;fill-opacity:.39215686;fill-rule:evenodd;fill:#f59;stroke-dasharray:none;stroke-linecap:butt;stroke-linejoin:miter;stroke-miterlimit:4;stroke-opacity:0;stroke-width:3;stroke:#000"/></svg>