<svg viewBox="0 0 560 1e3"><path style="display:inline;fill-opacity:1;fill-rule:evenodd;fill:#000;stroke-dasharray:none;stroke-linecap:butt;stroke-linejoin:miter;stroke-miterlimit:4;stroke-opacity:0;stroke-width:3.09411693;stroke:#000" d="m346.23322 215.0979c-2.35682-3.946-20.29304-9.49697-17.17028-9.86339 77.12258-8.49025 65.08099 54.21028 62.45224 113.86458-1.00715 1.55395 19.86467-10.52618 19.86467-10.52618s16.73947 8.24307 20.02053 19.83598c-13.68654 3.93318-65.6483 31.4399-67.98668 13.29269-1.24298-10.83476 1.34017-20.78968-2.44377-43.11079-3.79604-22.39256-3.25959-57.42228-14.73671-83.49289z" id="path5761"/><path style="display:inline;fill-opacity:1;fill-rule:evenodd;fill:#ff6db6;stroke-dasharray:none;stroke-linecap:butt;stroke-linejoin:miter;stroke-miterlimit:4;stroke-opacity:0;stroke-width:3;stroke:#000" d="m347.79149 214.93549c-2.23963-3.9037-19.28401-9.39515-16.31653-9.75765 73.2878-8.39922 61.84496 53.62911 59.34691 112.64388-.95706 1.5373 19.05273-10.46639 19.05273-10.46639s15.49401 9.62303 19.236 19.33716c-12.32623 4.35259-62.7708 31.44207-64.99291 13.48941-1.18117-10.7186 1.27353-20.56679-2.32225-42.64862-3.60729-22.15249-3.09751-56.80667-14.00395-82.59779z" id="path5763"/><path style="display:inline;fill-opacity:1;fill:#3e89b8;stroke-dasharray:none;stroke-linecap:butt;stroke-linejoin:miter;stroke-miterlimit:4;stroke-opacity:1;stroke-width:0;stroke:#000" d="m419.21617 330.53827c.17583-.0291 8.69106-1.83193 10.68421-3.24919-.0772-2.18744-6.79833-11.88244-19.93257-19.99323-2.88786 1.7148-9.55273 5.46905-9.55273 5.46905s11.05532 8.54355 18.80109 17.77337z" id="path4019-8-9-2-7-6-6"/></svg>