<svg viewBox="0 0 560 1e3"><g data-transform="boob" class="scaler_" id="g7226" transform="matrix(1.1899396,0,0,1.1247504,-49.050018,-33.548868)"><path id="path7218" d="m300.31237 268.5442c-2.26324-.10837-3.09117-2.17627-3.18192-3.05299-.11387-1.10087 2.30251-2.09184 3.0245-2.18629.72179-.0948 2.96859 1.07675 3.11011 2.21641.10319.83095-.97744 3.1175-2.95269 3.02287z" class="shadow"/><path id="path7222" d="m300.27406 267.41864c-2.02806-.019-3.0708-1.69326-3.1521-2.42258-.10215-.91578 2.30464-2.10407 2.93015-2.17993.62542-.0757 3.11818 1.10098 3.24437 2.04919.092.69145-.98763 2.57224-3.02242 2.55332z" class="areola"/><path id="path7224" d="m216.61981 259.55853c-.18065-.41215-.24313-.82141-.13325-1.12606.43698-1.21154.21132-1.18032 1.6118-2.37522.21283-.18159 1.21215-.0396 1.21215-.0396s5.39029-1.78666 5.55528-.93335c.18305.9467-1.3802 3.78797-2.86131 6.05171-1.54352 2.35914-3.20934 5.07148-3.90289 4.67218-.61613.58628-.99687-1.3135-1.03413-2.30043-.15081-1.5225-.19136-3.3645-.44765-3.94923z" class="areola"/><path class="shadow" d="m216.5608 259.45925c.75499 1.81762 4.10382.25518 4.2576-.17116-.68699 1.9195-3.92766 3.06883-4.2576.17116z" id="path7220"/></g></svg>