<svg viewBox="0 0 560 1e3"><path id="path5993" d="m347.82542 405.47846c3.27345 53.14308 8.96723 82.99738 8.10578 99.96726-.39691 7.81878 9.72263 9.93326-89.63207 5.65819-17.30311-1.81576-51.1117-.52109-51.07921-.832 3.78245-36.19606 8.45036-78.58082 11.41502-98.65845 36.34163 12.28427 54.05413 11.58297 121.19048-6.135z" style="display:inline;fill-opacity:1;fill-rule:evenodd;fill:#000;opacity:1;stroke-dasharray:none;stroke-linecap:butt;stroke-linejoin:miter;stroke-miterlimit:4;stroke-opacity:1;stroke-width:0;stroke:#000"/><path id="path5999" d="m349.03754 406.58021c27.35538 39.71087 21.22989 72.35374 7.1996 84.71364-.20681 1.25227.12167 9.07119.002 12.48916-.0557 1.59769-.0743 6.49513-.0475 6.58756.0.0-.008.55855-3.5214 1.22136-6.97769 1.31652-26.36578.82202-77.81655-2.52847-17.22485-1.7838-59.58803 1.3944-59.64703 1.09296-5.19847-26.55905-.9059-81.77129 10.51369-97.56597 36.42612 14.76968 76.93272 8.18054 123.31669-6.01024z" style="display:inline;fill-opacity:1;fill-rule:evenodd;fill:#333;opacity:1;stroke-dasharray:none;stroke-linecap:butt;stroke-linejoin:miter;stroke-miterlimit:4;stroke-opacity:1;stroke-width:0;stroke:#000"/></svg>