<svg viewBox="0 0 560 1e3"><path style="display:inline;fill-opacity:1;fill-rule:evenodd;fill:#000;stroke-dasharray:none;stroke-linecap:butt;stroke-linejoin:miter;stroke-miterlimit:4;stroke-opacity:0;stroke-width:3.05055022;stroke:#000" d="m347.87122 216.10417c-2.2742-3.975-5.32807-5.56966-2.31247-5.91928 8.0577-.9342 6.16932-4.87509 29.22752-4.57909-.22504-.0228 64.4782-36.03648 71.96193-36.58113.0691-.005-3.80129 2.30456-9.7528-1.40901-29.39259-18.34019-65.24582-51.47995-65.22534-51.54426 4.72045-14.82499 2.28271-20.075342 4.81677-19.238221.35496.117259.69554.271676 1.04181.407539 88.92614 34.891232 111.91189 70.841872 111.29264 75.552052-37.32592 35.32228-81.71091 66.14544-128.12457 87.68659-6.76698-20.22007-12.61438-43.93416-12.92549-44.37519z" id="path5434"/><path style="display:inline;fill-opacity:1;fill-rule:evenodd;fill:#0b1728;stroke-dasharray:none;stroke-linecap:butt;stroke-linejoin:miter;stroke-miterlimit:4;stroke-opacity:0;stroke-width:3;stroke:#000" d="m347.79149 214.93549c-2.23963-3.9037-5.24707-5.46975-2.27732-5.81311 7.93519-.91744 6.81412-2.33248 29.52175-2.0418-.22163-.0224 66.20608-36.6177 70.12924-38.38017.0621-.0279-3.00491 1.03565-8.86592-2.61132-28.94572-18.01124-63.84539-50.30573-63.82523-50.36888 4.64869-14.55909.8419-19.057514 3.5965-17.916459.66284.274573 1.33358.520192 1.99476.780374 86.77241 34.145955 109.23936 69.208215 108.63178 73.816805-36.75843 34.68874-80.46859 64.95904-126.1766 86.11383-6.66409-19.85739-12.42259-43.14615-12.72896-43.57927z" id="path5436"/><path id="path5438" d="m366.35627 118.46299c4.97981-12.44816 7.34682-20.730622 8.92101-22.251971.36504-.08148 9.67339 2.501166 18.09897 4.950731 7.06908 2.05519 13.51671 4.01651 13.53951 4.2314.92365 8.71024-14.16494 29.98611-16.90791 30.66276-.59296.14613-22.57251-16.75098-23.65158-17.59292z" style="display:inline;fill-opacity:1;fill-rule:evenodd;fill:#000;stroke-dasharray:none;stroke-linecap:butt;stroke-linejoin:miter;stroke-miterlimit:4;stroke-opacity:0;stroke-width:4.92418861;stroke:#000"/><path id="path5440" d="m366.79825 118.24258c4.73524-12.18266 6.49576-20.40921 8.01287-21.892739.6493-.143467 30.86834 8.736909 31.08459 9.243689 59e-5 9e-4 55e-5.003.001.004.97025 8.54887-13.45143 28.70456-16.11143 29.35342-84e-5 2e-4-.002 37e-5-.003 51e-5-.4421.0649-10.91729-7.67105-17.58456-12.64842-2.90051-2.16534-5.08034-3.8086-5.39993-4.06041z" style="display:inline;fill-opacity:1;fill-rule:evenodd;fill:#0b1728;stroke-dasharray:none;stroke-linecap:butt;stroke-linejoin:miter;stroke-miterlimit:4;stroke-opacity:0;stroke-width:4.80764103;stroke:#000"/><path id="path5442" d="m387.57886 101.43504c1.79895 3.11873-2.78512 4.08158-4.03802 2.4028-2.35144-2.89314 2.18523-4.87772 4.03802-2.4028z" style="display:inline;fill-opacity:1;fill-rule:evenodd;fill:#999;stroke-dasharray:none;stroke-linecap:butt;stroke-linejoin:miter;stroke-miterlimit:4;stroke-opacity:0;stroke-width:4.80764103;stroke:#000"/><path id="path5444" d="m399.50617 105.1881c1.79894 3.11873-2.78513 4.08158-4.03804 2.40282-2.35143-2.89316 2.18523-4.87773 4.03804-2.40282z" style="display:inline;fill-opacity:1;fill-rule:evenodd;fill:#999;stroke-dasharray:none;stroke-linecap:butt;stroke-linejoin:miter;stroke-miterlimit:4;stroke-opacity:0;stroke-width:4.80764103;stroke:#000"/></svg>