<svg viewBox="0 0 560 1e3"><path id="path2576" class="skin" d="m268.6 863.6c.7 1.8 1.5 1.7 2.9 4.2.0.0 2 3.6 2.2 8.1.2 5.3-3.9 7.6-9.2 15.1-8.1 11.6-6.2 17.3-12.7 20.7-2.1 1.2-5 1.6-10.8 2.7-.5.1-3.3.3-9 .6-2.4.2-4.6.3-6.3-1.3-.4-.4-1.3-1.2-1.2-2.2.2-1.6 3.1-1.9 5.7-3.1 3.6-1.8 5.5-4.9 7.3-7.6 2.8-4.4 1.8-6 5.5-16.4 1.7-4.6 1.9-4.4 3-8.1 1.6-5 1.6-6.8 3.1-12.3 1.9-7 3.6-12.8 5.2-14.4 4.8-4.9 10.8-2.8 12.4 1.2 1.5 2.9.1 8.2 1.9 12.8z"/><path id="path2578" class="skin" d="m311.5 880.7c.4-6.6 5.7-12.8 8.5-30.2.6-4.1 2.8-4.8 5.2-6 3.7-1.7 10.6-2.7 11 6 .4 6.1-.6 16.4.0 27.2.4 6.5.2 11.4 2 21.2 1.9 10 2.8 15.1 6 20.7 3.9 6.9 8.1 9.2 7.3 12.1-.6 2.4-4.1 2.9-9.2 3.7-4.8.7-9.6 1.4-15.1-1.3-1.4-.7-4-2-6.2-4.7-5.2-6.1-2.2-13.2-4.7-24.4-3.5-15.8-5.4-14.9-4.8-24.3z"/><path id="path2580" d="m298.06827 694.70364c-1.36156 9.76971-1.40988 19.52942-1.34561 21.33738-1.40356 23.18973 11.02539 67.33398 11.02539 67.33398 4.3318 17.75689 7.3388 31.27212 9.49387 44.58583 1.34786 8.32691 1.93307 18.04264 1.77956 24.56261-3.29484 16.01005-8.65817 25.16709-8.59765 29.99609.10091 8.05236 5.48634 21.80333 5.62305 25.46875.56614 15.1789-.39085 21.94235 12.24804 27.59375 5.64359 2.52349 24.23588-.0558 23.87891-4.00391-.34364-3.80047-5.43126-8.89855-6.02149-9.84374-7.6694-12.28198-10.23541-41.34584-9.49609-58.125-.0598-4.10145.36372-8.88292.0937-13.29493-.0743-11.83488.84722-24.96956 2.22656-38.73242.85277-7.72167 1.73779-15.62817 2.77344-24.36328.59433-4.93632 1.15769-9.69765 1.81055-14.96484.1345-.75262.26834-1.57489.40234-2.45899.134-.8841.26859-1.82943.40039-2.83398 1.84527-14.06378 3.39135-39.39288 2.3086-60.86524-.037-.73387-.29476-4.79932-.61204-9.44585-16.03746 2.62299-29.62951 1.20261-47.99152-1.94621zm-58.258-.17522c1.02653 9.05218 1.89676 16.90562 1.89676 17.6708 2.21063 23.41767 4.74478 43.32283 6.48072 61.65379 2.96256 31.28371 4.61457 56.29212 5.71312 74.10507-.0552 1.03782-.19286 1.76056-.83655 2.5825-2.76789 4.43869-5.9372 20.45977-7.2401 24.5102-3.01604 9.37624-5.80709 14.94269-6.86328 22.30664-.0565.39409-2.80558 5.65046-6.98047 9.31055-2.58128 2.26298-7.04467 2.68732-7.73633 4.66406-.35441 1.01289.97841 2.11673 1.50391 2.78516 2.74009 3.48538 26.18586.1837 29.17187-3.69727 1.73201-2.25115 5.24658-11.24156 7.30469-15.08398 2.96583-5.53711 11.87378-14.19464 11.89648-17.68946.0625-9.64329-4.52763-12.11717-5.10351-13.6289-.70099-1.84012-1.17389-4.4732-1.08399-5.01367.1587-6.5119-.94193-8.87676-1.54687-9.53125-.0736-.45491.0812-3.61862.36719-6.96875 1.1874-7.09627 2.56475-15.44337 4.77658-24.31838 21.42249-69.22917 23.38213-80.6115 19.05935-113.17967-.77369-4.2939-1.79269-8.28369-2.60014-11.22078-13.09673 6.38619-35.74713 2.98811-48.17943.74334z" style="fill-opacity:.2745098;fill:#282828"/></svg>