<svg viewBox="0 0 560 1e3"><path id="path3695-2" d="m370.38618 269.63596c.29004 1.01618-.11966 5.03094-2.03636 13.75792-.73125 3.32947-2.13499 7.11824-3.13649 12.02127-.33091-.0469.97907 58.28522.7778 58.54969-.34586.45446-16.79937 18.92297-54.81199 16.78589-.0395-.002-.0853.0139-.11857-.008-23.46376-15.18481-36.76624-85.24462-37.09359-85.25934-.33738-.0152-5.51545 55.82094-25.09162 81.88306-.29361.39089-16.19673-3.208-18.26824-14.32496-.065-.34863 6.82424-61.74816 6.46523-61.66656-1.19314-10.33842-3.10361-20.53793 2.64155-38.89751 1.99575-5.4884 23.27707-30.74995 37.00594-46.86018 6.33801-2.36381 9.26198-5.60042 11.24865-11.57647 1.68017 2.54634 25.48378 1.75976 28.40362.12796 4.6949 7.9179 7.00539 11.20842 20.51801 13.0092.69419 18.83689 16.98492 52.82315 33.49606 62.45803z" style="display:inline;fill-opacity:.39215686;fill-rule:evenodd;fill:#999;opacity:1;stroke-dasharray:none;stroke-linecap:butt;stroke-linejoin:miter;stroke-miterlimit:4;stroke-opacity:1;stroke-width:0;stroke:#000"/><path id="path2316-4-2-8" d="m362.62096 412.36033c.17594.29463.25367.39966.14343.43358-11.64785 3.58424-54.77333 12.56155-66.84263 28.92391-5.44325 7.37942-12.7957 15.81041-13.00807 16.4538-2.1338 6.22432-3.13571 11.30135-8.74014 9.85578-3.7101 1.37219-8.64925-2.20367-10.2075-9.58034-3.18111.37789-22.83664-35.81939-38.56205-44.63334.11113-.0316.41697-.90137.51991-1.06255.0911-.14259.28025.0854.40697.19488 43.76307 37.81395 119.04026-1.93695 136.1807-.71069z" style="display:inline;fill-opacity:.39215686;fill-rule:evenodd;fill:#999;opacity:1;stroke-dasharray:none;stroke-linecap:butt;stroke-linejoin:miter;stroke-miterlimit:4;stroke-opacity:1;stroke-width:0;stroke:#000"/></svg>