<svg viewBox="0 0 560 1e3"><path id="path3320-6" d="m368.45236 268.83602c.40069 1.40387.82871 12.89967-6.36035 37.77919-5.42713 18.7819-20.56882 29.98312-21.1652 31.4412-6.03534 8.96911-19.52432 23.67882-10.94345 41.25841-28.4243 6.21458-77.05741 17.13394-88.57309-6.50872 2.433-12.49684 2.06627-18.80217 2.23754-34.00531.24452-21.70551-6.08737-33.66342-6.98584-46.20078-2.84199-59.52013 49.22582-91.39318 50.18174-91.89098 9.24713 11.38115 25.18214 3.12903 31.26177-2.13928 1.50252 1.12706 9.10193 4.89722 7.88644 5.69617-59.64798 34.7469 1.82837 42.20589 38.19229 63.32537z" style="display:inline;fill-opacity:1;fill-rule:evenodd;fill:#000;opacity:1;stroke-dasharray:none;stroke-linecap:butt;stroke-linejoin:miter;stroke-miterlimit:4;stroke-opacity:1;stroke-width:0;stroke:#000"/><path id="path3340-4" d="m368.47602 268.56519c-.47811 3.70196-1.71839 20.80284-7.95729 39.14162-6.28969 18.48806-17.77339 26.59126-18.77871 27.80104-8.36776 10.0696-14.13604 17.87688-15.47567 28.81193-1.1072 9.03783.12545 9.47682 2.07973 13.83328-31.15729 6.94181-73.8071 13.99518-86.40947-5.31557 2.40743-12.49684 2.93231-28.9245 3.10178-31.79865-.12308-24.22472-6.51822-35.11346-7.4814-51.90867-3.42095-41.19375 19.66545-62.15546 39.38113-83.14906.49229-.51848 5.43756-2.25669 9.91452-4.65903 9.14993 11.38115 24.91744 3.12903 30.93316-2.13928 1.48672 1.12706 18.23182 7.00546 18.7637 8.34782 1.34998 3.19719 2.37503 6.3614 3.25412 9.48996 2.76556 9.84229 4.08656 19.33169 9.53548 28.38477 7.32565 13.63251 13.69888 21.31242 19.13892 23.15984z" style="display:inline;fill-opacity:1;fill-rule:evenodd;fill:#fff;opacity:1;stroke-dasharray:none;stroke-linecap:butt;stroke-linejoin:miter;stroke-miterlimit:4;stroke-opacity:1;stroke-width:0;stroke:#000"/></svg>