<svg viewBox="0 0 560 1e3"><path style="display:inline;fill-opacity:1;fill:#464646;opacity:1;stroke-width:.83701062" d="m270.37447 419.35477c-5.45967-31.28496.77522-62.76515 5.12068-86.02956.0-3.10455 2.72097-12.70444 3.75025-13.23131 2.26402-1.1589 2.37976.88189.32614 5.75034-1.23107 2.91832-2.19252 6.42588-2.13658 7.79449-6.12817 24.10057-9.3277 55.58037-5.66972 82.97556.69415 4.87592-.28869 6.81256-1.39078 2.74048z" id="path4767-2-4-7-1-6-5"/><path id="path6808" d="m347.13398 420.49104c-32.75198 14.03698-65.48424 24.91567-80.17912 16.90739-20.83059 4.09365-37.16498-9.93587-42.26678-23.86238 4.26478 15.21833 21.37989 28.69787 42.28057 25.52878 17.15312 7.09449 47.5212-3.15592 80.16533-18.57379z" style="fill-opacity:1;fill-rule:nonzero;fill:#000;stroke-dasharray:none;stroke-linecap:butt;stroke-linejoin:miter;stroke-miterlimit:4;stroke-opacity:1;stroke-width:0;stroke:#000"/><path style="display:inline;fill-opacity:1;fill-rule:nonzero;fill:#000;stroke-dasharray:none;stroke-linecap:butt;stroke-linejoin:miter;stroke-miterlimit:4;stroke-opacity:1;stroke-width:0;stroke:#000" d="m347.13398 420.49104c-32.75198 14.03698-65.48424 24.91567-80.17912 16.90739-20.83059 4.09365-35.66498-10.43587-40.76678-24.36238 4.26478 15.21833 19.87989 29.19787 40.78057 26.02878 17.15312 7.09449 47.5212-3.15592 80.16533-18.57379z" id="path6742-7"/><path style="display:inline;fill-opacity:1;fill:#464646;opacity:1;stroke-width:.71746141" d="m322.53839 428.89204c25.16343-10.16198 25.56532-20.61217 27.15355-24.773 5.43585 10.84586-13.08805 21.1955-28.14659 27.36712.0.0-15.13357 5.11336.99308-2.59412z" id="path4817-8-4-9-7-90-4"/><path style="display:inline;fill-opacity:1;fill:#464646;opacity:1;stroke-width:.88210374" d="m331.21608 328.37378c-3.1019-2.89856-6.59121-4.34343-14.00973-7.72455 7.79608 1.11988 14.48261 4.63943 18.68711 9.90099.90381 1.13103 1.69292 2.34256 2.35372 3.62806 1.14002 2.21777 1.89809 4.65569 2.20421 7.28021-2.17071-4.30325-7.67111-10.3079-9.23531-13.08471z" id="path4735-6-1-2-5-2-7"/><path style="display:inline;fill-opacity:1;fill:#464646;opacity:1;stroke-width:.75908762" d="m241.36756 322.04079c2.22361-1.61724 12.56754-5.82837 14.31639-5.82837 1.76975.0.12919 1.1632-4.13651 2.9323-8.34605 3.58842-15.63014 7.00098-17.68829 12.26956-.36686-3.17103 4.87251-7.42407 7.50841-9.37349z" id="path4721-0-8-9-7-2-7"/><path style="display:inline;fill-opacity:1;fill:#464646;opacity:1;stroke-width:1.14264047" d="m265.16443 314.33491c1.53153-1.54362 9.18595-3.64847 10.06095-2.76657.45148.45527-1.24018 1.46836-3.7597 2.25129-5.25773 1.63387-7.60119 1.8255-6.30125.51528z" id="path4685-3-53-5-1-7-8"/><path style="display:inline;fill-opacity:1;fill:#464646;opacity:1;stroke-width:1.04571259" d="m301.26603 315.15353c-3.5936-.96226-8.0039-1.76355-9.80065-1.78061-1.79679-.0165-3.26691-.36995-3.26691-.78417.0-1.34408 5.81583-.79875 12.78817 1.19907 11.98029 3.43279 12.21105 4.56065.27951 1.36571z" id="path4683-1-7-8-1-1"/><path style="display:inline;fill-opacity:1;fill:#464646;opacity:1;stroke-width:.42766953" d="m234.1308 425.35943c-9.6832-9.38315-9.83784-19.03243-10.44901-22.87437-2.09179 10.01463 5.03644 19.57105 10.83113 25.26968.0.0 5.82359 4.72146-.38212-2.39531z" id="path4817-8-4-9-7-9-9-5"/></svg>