<svg viewBox="0 0 560 1e3"><path id="path5647" d="m299.86232 216.84741c2.86836-3.54688 6.13047-4.63172 3.21235-5.4513-7.79724-2.18996-20.18841-6.10404-44.36313-3.24662-6.75411 1.83523-23.8959 29.39528-29.98743 38.99036 3.89751 5.89815 9.26543 3.73577 19.1767 18.19004 7.40694 2.24606 22.73528-9.40161 32.22793-6.91934 9.85684-18.80023 19.35738-41.1789 19.73358-41.56314z" style="display:inline;fill-opacity:1;fill-rule:evenodd;fill:#fff;stroke-dasharray:none;stroke-linecap:butt;stroke-linejoin:miter;stroke-miterlimit:4;stroke-opacity:0;stroke-width:3.04086399;stroke:#000"/><path id="path5649" d="m300.48784 216.69956c2.82896-3.50026 6.04627-4.57084 3.16823-5.37966-7.69014-2.16117-23.78612-7.02382-47.62881-4.20395-19.10017-4.12207-36.1021 21.13156-25.25874 39.49013 1.81884 2.11212 9.36012 4.33698 20.51783 15.31355 7.3052 2.21655 20.37667-6.65278 29.73895-4.20314 9.72145-18.55316 19.09151-40.63773 19.46254-41.01693z" style="display:inline;fill-opacity:1;fill-rule:evenodd;fill:#1a1a1a;stroke-dasharray:none;stroke-linecap:butt;stroke-linejoin:miter;stroke-miterlimit:4;stroke-opacity:0;stroke-width:3;stroke:#000"/><path id="path1686-2-6-4-4-3-1" d="m381.21425 303.15839c1.31507 6.93158 5.73055 21.00072-9.17569 30.08527-19.95945 4.73561-38.57743-10.15539-41.6785-13.395-.79843-.59726-1.17634-1.59111-1.26925-2.8005-.26095-3.39678 1.72637-8.49385 2.95909-11.27955.53861-1.21717.93316-1.99307.93316-1.99307s44.58433-9.17009 48.23119-.61715z" style="display:inline;fill-opacity:1;fill:#1a1a1a;stroke-dasharray:none;stroke-linecap:butt;stroke-linejoin:miter;stroke-miterlimit:4;stroke-opacity:1;stroke-width:0;stroke:#83afc8"/></svg>