<svg viewBox="0 0 560 1e3"><path id="path3581" d="m347.88359 215.191c-2.25324-4.00541-13.75526-6.88912-10.82802-7.59701 28.09662-6.79453 58.02841 14.50286 60.4381 19.73901 1.65024 17.16955-4.56731 28.9763-9.14059 38.21906-13.44549-10.65248-35.18265-31.85724-40.46949-50.36106z" style="display:inline;fill-opacity:1;fill-rule:evenodd;fill:#000;stroke-dasharray:none;stroke-linecap:butt;stroke-linejoin:miter;stroke-miterlimit:4;stroke-opacity:0;stroke-width:3.0480547;stroke:#000"/><path id="path3583" d="m347.79149 214.93549c-2.23963-3.9037-13.67257-6.71898-10.7626-7.4041 25.10245-5.91008 57.76539 14.38535 60.16052 19.48853-.69588 19.58766-5.1426 29.19164-8.25344 37.88792-13.89964-10.5704-35.78158-31.56775-41.14448-49.97235z" style="display:inline;fill-opacity:1;fill-rule:evenodd;fill:#ececec;stroke-dasharray:none;stroke-linecap:butt;stroke-linejoin:miter;stroke-miterlimit:4;stroke-opacity:0;stroke-width:3;stroke:#000"/><path style="display:inline;fill-opacity:1;fill-rule:evenodd;fill:#000;stroke-dasharray:none;stroke-linecap:butt;stroke-linejoin:miter;stroke-miterlimit:4;stroke-opacity:0;stroke-width:3.21209121;stroke:#000" d="m413.54085 236.4669c-3.97137-3.73539-11.6712-10.27404-16.07759-13.85381-6.4833 5.18997-18.72754 24.5125-25.62649 31.19837 6.36124 6.27932 12.71394 12.73712 15.43448 15.64265 15.15541-14.72229 25.75911-32.7332 26.2696-32.98721z" id="path3619-7-4-9-7-9"/><path style="display:inline;fill-opacity:1;fill-rule:evenodd;fill:#ececec;stroke-dasharray:none;stroke-linecap:butt;stroke-linejoin:miter;stroke-miterlimit:4;stroke-opacity:0;stroke-width:2.9464376;stroke:#000" d="m412.20367 236.61639c-3.65974-3.42124-10.75438-9.41108-14.81418-12.69063-5.95911 4.73612-17.57456 23.23372-23.91412 29.33705 5.86245 5.75079 11.71733 11.66477 14.22485 14.32537 13.9265-13.43963 24.03401-30.74027 24.50345-30.97179z" id="path3619-7-3-9-8-4-7"/></svg>