<svg viewBox="0 0 560 1e3"><path d="m336.53452 836.46028c1.87549.52406 1.57793 1.82133-.10985 2.14484-3.11215.43841-10.26717.65455-16.57291-.50644-2.46896-.45459-1.82905-2.27775.0408-2.09829 3.35851.32135 8.7678 1.23076 16.64202.45989z" id="path5995-5" style="fill-opacity:1;fill:#ffa000"/><path d="m267.52025 834.28897c1.511.52406 1.27128 1.82133-.0885 2.14484-2.50731.43841-8.2718.65455-13.35206-.50644-1.98914-.45459-1.47358-2.27775.0329-2.09829 2.70581.32135 7.06383 1.23076 13.40775.45989z" id="path5995-7-1" style="fill-opacity:1;fill:#ffa000"/><path d="m320.53145 841.71342c-.16723.46855-.61996.40945-.74551-.003-.17663-.76307-.3078-2.52616.0458-4.09489.13846-.61423.77646-.47645.72882-.0131-.0852.83225-.35853 2.17702-.0291 4.11144z" id="path5995-3-5" style="fill-opacity:1;fill:#ffa000"/><path d="m324.93386 842.24711c-.16723.46855-.61996.40945-.74551-.003-.17663-.76307-.3078-2.52616.0458-4.09489.13846-.61423.77646-.47645.72882-.0131-.0852.83225-.35853 2.17702-.0291 4.11144z" id="path5995-3-2-8" style="fill-opacity:1;fill:#ffa000"/><path d="m330.99636 842.24711c-.16723.46855-.61996.40945-.74551-.003-.17663-.76307-.3078-2.52616.0458-4.09489.13846-.61423.77646-.47645.72882-.0131-.0852.83225-.35853 2.17702-.0291 4.11144z" id="path5995-3-7-6" style="fill-opacity:1;fill:#ffa000"/><path d="m336.37136 842.37211c-.16723.46855-.61996.40945-.74551-.003-.17663-.76307-.3078-2.52616.0458-4.09489.13846-.61423.77646-.47645.72882-.0131-.0852.83225-.35853 2.17702-.0291 4.11144z" id="path5995-3-0-26" style="fill-opacity:1;fill:#ffa000"/><path d="m322.7639 839.9134c-.16723.29277-.61996.25584-.74551-.002-.17663-.47681-.3078-1.57848.0458-2.5587.13846-.38381.77646-.29772.72882-.008-.0852.52003-.35853 1.36032-.0291 2.56905z" id="path5995-3-02-5" style="fill-opacity:1;fill:#ffa000"/><path d="m328.04131 840.24687c-.16723.29278-.61996.25585-.74551-.002-.17663-.47681-.3078-1.57848.0458-2.55871.13846-.3838.77646-.29771.72882-.008-.0852.52003-.35853 1.36032-.0291 2.56904z" id="path5995-3-2-4-5" style="fill-opacity:1;fill:#ffa000"/><path d="m333.79131 840.24687c-.16723.29278-.61996.25585-.74551-.002-.17663-.47681-.3078-1.57848.0458-2.55871.13846-.3838.77646-.29771.72882-.008-.0852.52003-.35853 1.36032-.0291 2.56904z" id="path5995-3-7-2-2" style="fill-opacity:1;fill:#ffa000"/><path d="m266.83775 840.00314c.16723.46855.61996.40945.74551-.003.17663-.76307.3078-2.52616-.0458-4.09489-.13846-.61423-.77646-.47645-.72882-.0131.0852.83225.35853 2.17702.0291 4.11144z" id="path5995-3-4-4" style="fill-opacity:1;fill:#ffa000"/><path d="m262.81034 840.31808c.16723.46855.61996.40945.74551-.003.17663-.76307.3078-2.52616-.0458-4.09489-.13846-.61423-.77646-.47645-.72882-.0131.0852.83225.35853 2.17702.0291 4.11144z" id="path5995-3-2-3-0" style="fill-opacity:1;fill:#ffa000"/><path d="m257.40409 840.13058c.16723.46855.61996.40945.74551-.003.17663-.76307.3078-2.52616-.0458-4.09489-.13846-.61423-.77646-.47645-.72882-.0131.0852.83225.35853 2.17702.0291 4.11144z" id="path5995-3-7-8-6" style="fill-opacity:1;fill:#ffa000"/><path d="m253.18534 839.44308c.16723.46855.61996.40945.74551-.003.17663-.76307.3078-2.52616-.0458-4.09489-.13846-.61423-.77646-.47645-.72882-.0131.0852.83225.35853 2.17702.0291 4.11144z" id="path5995-3-0-2-3" style="fill-opacity:1;fill:#ffa000"/><path d="m264.9803 837.98437c.16723.29277.61996.25584.74551-.002.17663-.47681.3078-1.57848-.0458-2.5587-.13846-.38381-.77646-.29772-.72882-.008.0852.52003.35853 1.36032.0291 2.56905z" id="path5995-3-02-0-0" style="fill-opacity:1;fill:#ffa000"/><path d="m260.17164 838.34909c.16723.29278.61996.25585.74551-.002.17663-.47681.3078-1.57848-.0458-2.55871-.13846-.3838-.77646-.29771-.72882-.008.0852.52003.35853 1.36032.0291 2.56904z" id="path5995-3-2-4-0-0" style="fill-opacity:1;fill:#ffa000"/><path d="m255.04664 838.53659c.16723.29278.61996.25585.74551-.002.17663-.47681.3078-1.57848-.0458-2.55871-.13846-.3838-.77646-.29771-.72882-.008.0852.52003.35853 1.36032.0291 2.56904z" id="path5995-3-7-2-7-4" style="fill-opacity:1;fill:#ffa000"/><ellipse cy="841.93817" cx="320.05362" class="steel_piercing" id="circle3692-3-64" rx=".721398" ry="1.2959223"/><ellipse cy="842.02661" cx="324.4509" class="steel_piercing" id="circle3692-3-5-5" rx=".721398" ry="1.2959223"/><ellipse cy="842.05969" cx="330.51654" class="steel_piercing" id="circle3692-3-51-4" rx=".721398" ry="1.2959223"/><ellipse cy="842.21442" cx="335.84195" class="steel_piercing" id="circle3692-3-51-5-3" rx=".721398" ry="1.2959223"/><ellipse cy="840.13727" cx="322.20807" class="steel_piercing" id="circle3692-3-3-0" rx=".721398" ry="1.2959223"/><ellipse cy="840.40247" cx="327.46713" class="steel_piercing" id="circle3692-3-6-1" rx=".721398" ry="1.2959223"/><ellipse cy="840.40247" cx="333.34497" class="steel_piercing" id="circle3692-3-61-4" rx=".721398" ry="1.2959223"/><ellipse cy="839.67328" cx="257.86133" class="steel_piercing" id="circle3692-3-1-35" rx=".721398" ry="1.2959223"/><ellipse cy="839.43805" cx="253.61333" class="steel_piercing" id="circle3692-3-1-7-4" rx=".721398" ry="1.2959223"/><ellipse cy="839.70367" cx="263.25397" class="steel_piercing" id="circle3692-3-1-8-2" rx=".721398" ry="1.2959223"/><ellipse cy="839.7818" cx="267.22269" class="steel_piercing" id="circle3692-3-1-6-7" rx=".721398" ry="1.2959223"/><ellipse cy="838.20367" cx="265.51956" class="steel_piercing" id="circle3692-3-1-3-4" rx=".721398" ry="1.2959223"/><ellipse cy="838.25055" cx="260.62894" class="steel_piercing" id="circle3692-3-1-71-3" rx=".721398" ry="1.2959223"/><ellipse cy="837.9068" cx="255.50394" class="steel_piercing" id="circle3692-3-1-5-3" rx=".721398" ry="1.2959223"/></svg>