<svg viewBox="0 0 560 1e3"><path d="m344.6 100.2c.23288 1.47838.37308 2.91146.43246 4.29857.063 1.47136.035 2.89099-.0697 4.25811-.0951 1.24187-.25362 2.44041-.46487 3.59502-.0693.37903-.14438.75332-.22472 1.12286-.31174 1.4339-.70343 2.79621-1.15314 4.08573-.24778.7105-.7755 2.63555-1.33793 4.63619-.65914 2.34462-1.36595 4.79305-1.72575 5.51207-.55601 1.11113.0938-3.68531-.50378-2.72329-.63913 1.02897-3.27701 13.89873-3.9121 14.75423-.68614.92426.63306-10.18038.0163-9.46221-.49129.5721-4.7391 17.60594-5.14802 18.04511-1.17712 1.26422 1.74507-14.55398 1.79651-14.42177-61.04212 12.00753-21.76345-6.30262-62.35546 9.20612-.18079-.46953-15.47434-37.35837-9.59107-47.614136.58444-1.322311.82304-11.848731 1.46457-13.079437.54692-1.049195 1.48913 7.184835 2.07588 6.20198 1.48231-2.483007 3.08929-4.754665 4.80859-6.816737 1.08402-1.300143 4.86434-10.471922 6.03456-11.605872 1.03337-1.001343-.55251 6.016896.54354 5.144497 3.17519-2.527292 6.60442-4.514772 10.23585-5.969835 1.30162-.521542 6.75422-5.474682 8.10542-5.859761 1.31558-.374931-1.47148 3.814659-.11337 3.568455 2.75982-.500313 5.60289-.735488 8.51073-.708163 2.66796.02507 5.15526.171541 7.47702.431158C332.68321 69.39104 339.3626 83.262861 344.6 100.2" class="hair" id="path4724"/><path d="m348.03402 64.818502c1.45534 6.111012 1.39973 13.212319-.0455 18.55333-.14846.54863-.0616 5.203686-.23924 5.712187-.15246.436383-.56562-3.268108-.7394-2.865358-.40618.94137-1.68288 7.785722-2.20403 8.508994-.59244.822212-.44598-4.512046-1.18406-4.038122-3.32462 2.134749-10.80442-9.99737-14.93448-11.267563-4.49495-2.128845-17.11417-9.974307-17.75467-14.075526-.0729-.466844-1.79658-4.17473-1.77103-4.626042.0301-.531599 1.82792 2.196593 1.98569 1.689783.20227-.649749.24032-6.18324.6343-6.785674.36604-.559719 1.07561 3.808131 1.59019 3.295401.52088-.519005 1.11367-1.012419 1.76989-1.477171.63547-.450048 1.33042-.87322 2.07718-1.266727 4.76933-2.513237 11.65145-3.816402 18.6422-3.183045 3.60873-.03083 6.22631 1.326695 8.1347 3.414 2.04449 2.236178 3.27503 5.309949 4.03831 8.411533z" class="hair" id="path4724-9"/></svg>