<svg viewBox="0 0 560 1e3"><path style="display:inline;fill-opacity:1;fill-rule:evenodd;fill:#000;opacity:1;stroke-dasharray:none;stroke-linecap:butt;stroke-linejoin:miter;stroke-miterlimit:4;stroke-opacity:1;stroke-width:0;stroke:#000" d="m370.8969 268.8878c2.36849 23.60153-3.24649 50.77091-14.17047 77.92965.0897 2.34411 8.6595 18.11968 11.11537 30.07427-36.77086 9.58655-126.68446 13.76644-145.55622-5.09006 2.433-12.49684 7.10305-30.33653 14.9517-51.41692-2.13048-7.70551.44816-14.37237-.57531-27.78473.40962-35.13389 30.30326-40.0847 52.38713-59.43686.97617-2.02088 2.05999-19.89061-11.85024-27.17009-.63873-.33426 3.66191-3.80977 8.18644-6.21211 9.24713 11.38115 27.34766 3.74775 33.42729-1.52056 1.50252 1.12706 8.39482 5.20658 7.17933 6.00553-25.72677 16.91039-30.9022 28.84774-29.45936 29.06832 3.13994 1.52155 66.54554 33.43249 67.65165 34.25705z" id="path3708"/><path style="display:inline;fill-opacity:1;fill-rule:evenodd;fill:#fff;opacity:1;stroke-dasharray:none;stroke-linecap:butt;stroke-linejoin:miter;stroke-miterlimit:4;stroke-opacity:1;stroke-width:0;stroke:#000" d="m355.86286 347.54922c.49582 5.07437 8.15207 17.16139 10.52716 28.43074-31.28229 8.06681-129.76418 14.04864-142.36655-5.26211 1.76466-12.54996 13.73275-45.3843 14.32574-50.33371-3.0755-26.84168-3.64605-47.62114.88756-72.44709 4.39438-23.68414 15.86738-37.30901 37.69935-41.95594.49229-.51848 3.97915-3.18477 8.45611-5.58711 9.14993 11.38115 27.08296 3.74775 33.09868-1.52056 1.48672 1.12706 17.52471 7.31482 18.05659 8.65718 2.58742.19199 9.57783.93138 12.62329 2.06534 21.32697 11.58453 25.15316 34.74558 21.91064 58.57411 1.82371 35.69041-9.90952 61.65738-15.21857 79.37915z" id="path3710"/></svg>