<svg viewBox="0 0 560 1e3"><path style="display:inline;fill-opacity:1;fill-rule:nonzero;fill:#85929e;opacity:1;stroke-dasharray:none;stroke-linecap:butt;stroke-linejoin:miter;stroke-miterlimit:4;stroke-opacity:1;stroke-width:0;stroke:#000" d="m293.78935 219.82732s-10.96913-8.46365-12.71179-15.33852c-.12533-.49445 1.1153-.81274 1.36032-.83722 1.87606 5.84839 12.7198 15.45568 13.18311 15.5587.45102.10029 23.51884-8.96593 28.02136-15.02582.0933.48674 1.42209.51908 1.2554.97356-2.43634 6.64259-28.06395 15.09834-28.09198 15.11538-.0224.0173-1.51243.49646-1.73051.48664-.12409-.0369-1.22038-.88629-1.28591-.93272z" id="path2341"/><path style="display:inline;fill-opacity:1;fill-rule:evenodd;fill:#85929e;opacity:1;stroke-dasharray:none;stroke-linecap:butt;stroke-linejoin:miter;stroke-miterlimit:4;stroke-opacity:1;stroke-width:0;stroke:#000" d="m348.69105 406.25965c.17594.29463.23456.36287.14343.43358-7.58199 5.88234-28.75619 14.08712-52.70049 35.19948-6.87798 6.06451-12.7957 15.81041-13.00807 16.4538-1.04023 1.75909-1.92047 7.35117-4.50173 9.70959-.97785.89343-3.70051-.0277-4.03805.0431-.91345.19159-2.09488.29968-2.84109.24274-2.38396-.1819-5.58237-2.71336-7.06862-7.83608-2.94705-2.80283-25.83037-38.42104-39.0602-46.51727.11113-.0316.41697-.90137.51991-1.06255.0911-.14259.28025.0854.40697.19488 43.76307 37.81395 58.39812 21.03748 122.03856-6.98626z" id="path2360-8"/><path style="display:inline;fill-opacity:1;fill-rule:nonzero;fill:#85929e;opacity:1;stroke-dasharray:none;stroke-linecap:butt;stroke-linejoin:miter;stroke-miterlimit:4;stroke-opacity:1;stroke-width:0;stroke:#000" d="m238.87821 270.86982c-.12533-.49445.12012-2.27961.12012-2.27961 26.65163-7.75069 36.21504-12.58518 39.54157-15.28407 2.88198-2.73792 5.66754-5.6219 9.10488-1.29544 10.06093 13.80857 49.05109 22.16057 79.32569 19.80612.0169.29411-.25819 2.16976-.2561 2.3755.004.38325-61.59755 2.109-81.03778-20.13351-1.60892-1.85436-2.59027-1.05997-3.33649-.47037-3.1265 2.76859-12.62263 8.91742-43.46165 17.28138z" id="path2364-83"/></svg>