<svg viewBox="0 0 560 1e3"><path style="fill:#000;stroke-width:2.58526635" id="path3836" d="m219.30157 441.2612c.30456-.12558.79776.0232 1.08047-.1048 13.45447-6.08132 2.32009-14.83211-1.03248-14.41357-9.04743 3.14963-5.56712 12.05392-2.61933 12.54464.0423.0303.35195.78095 2.57134 1.97371z"/><path style="fill:#000;stroke-width:2.58526635" id="path3838" d="m248.12233 461.78175c12.64024 3.49613 25.37762 7.54702 29.74513-3.31954 1.34777-3.75756.48242-6.41624-2.21697-7.39098-11.14373-3.45259-34.85838-13.5673-41.78788-20.03738-.95673-1.4541-.79576-1.66362-1.76893-2.66156-2.06329-2.1158-4.71577-1.8999-6.88354-1.78213-1.30643.0711-4.67842-.32805-5.72711.0865-.88089.34826-1.64941.84228-2.15058 1.47255-.15567.1959 1.03501-.42806 1.1468-.51169 3.14693-2.35409 15.71897 7.54781 1.70687 13.34684-1.29713.53679-5.27066-3.4694-5.23521-3.33274.22678.87459 1.73977 2.25142 3.07125 3.13246.79505.52607 1.69959.72284 2.0217 1.28752 3.8723 6.78793 12.40978 14.24114 28.07847 19.70996z"/><path class="areola" id="path3840" d="m216.87153 438.31735c4.82258 2.8665 13.96136-1.05019 16.2596-6.51458-.57873-1.63047-2.56281-4.78289-4.89065-4.70694-6.64369.21663-6.4958-.41227-9.28765.39923-5.58507 2.38616-6.28196 7.39756-3.2605 11.10586.29621.22563.68149-.17343 1.1792-.2837z"/><path style="fill:#000;stroke-width:2.58526635" id="path3842" d="m215.76365 435.24291c.0685.49818.687 1.50801 1.35619 1.68997-.004-.0259-.16452-.88433-.17101-.9105-.2164-.88284-1.17424-3.48197.38836-6.39915-1.57197 1.76625-1.85569 3.51505-1.57366 5.61968z"/><path id="path3844" class="skin penis" d="m248.92618 461.221c12.52205 3.46349 24.55548 8.23233 29.45555-2.50317 1.33521-3.72242 1.25166-5.83987-1.42252-6.80557-11.61845-2.76313-36.13788-13.23813-43.00256-19.64766-3.23173 4.505-6.42559 6.97893-13.26862 7.57636-1.15203-.0138-2.37678-.31553-3.61023-1.02049-.26719-.15283-.70202.1403-.88864.20438-.21436.14158 5.02054 3.217 4.90979 3.45595 3.8361 6.72448 12.30508 13.32266 27.8272 18.74031z"/></svg>