<svg viewBox="0 0 560 1e3"><path id="path4146" d="m368.45236 268.83602c1.90346 38.00112-31.10333 76.4584-25.2815 111.6038-36.77086 9.58655-96.59778 12.99867-105.46954-7.23283 2.433-12.49684 1.05648-27.27371 3.07149-42.3437 3.11952-23.33051-3.08737-24.85092-4.11084-38.26328.40962-35.13389 30.30326-40.0847 52.38713-59.43686.97617-2.02088 2.05999-19.89061-11.85024-27.17009-.63873-.33426 5.12032-2.88169 9.64485-5.28403 9.24713 11.38115 25.18214 3.12903 31.26177-2.13928 1.50252 1.12706 9.10193 4.89722 7.88644 5.69617-25.72677 16.91039-30.9022 28.84774-29.45936 29.06832 3.13994 1.52155 66.54554 33.43249 67.65165 34.25705z" style="display:inline;fill-opacity:1;fill-rule:evenodd;fill:#000;opacity:1;stroke-dasharray:none;stroke-linecap:butt;stroke-linejoin:miter;stroke-miterlimit:4;stroke-opacity:1;stroke-width:0;stroke:#000"/><path id="path4148" d="m368.47602 268.56519c-.82283 35.56451-25.28468 68.64115-27.21167 98.12959-.2322 4.28783 1.00045 9.35182 1.70473 13.58328-31.15729 6.94181-92.6775 12.28087-105.27987-7.02988 1.41111-4.24145 4.10254-39.81108 4.69553-44.76049 2.42309-20.22425-2.88507-21.32305-3.7741-33.86041-3.37265-53.10898 13.20074-79.76214 38.32548-88.64617.49229-.51848 5.43756-2.25669 9.91452-4.65903 9.14993 11.38115 24.91744 3.12903 30.93316-2.13928 1.48672 1.12706 18.23182 7.00546 18.7637 8.34782 2.58742.19199 9.57783.93138 12.62329 2.06534 30.8936 12.50306 20.3557 56.2984 19.30523 58.96923z" style="display:inline;fill-opacity:1;fill-rule:evenodd;fill:#1a1a1a;opacity:1;stroke-dasharray:none;stroke-linecap:butt;stroke-linejoin:miter;stroke-miterlimit:4;stroke-opacity:1;stroke-width:0;stroke:#000"/><path id="path1760-5-4-7" d="m350.44891 411.28161c-41.34356 12.40411-56.35277 29.50718-67.32299 47.0649-1.04023 1.75909-1.92047 7.35117-4.50173 9.70959-.97785.89343-3.70051-.0277-4.03805.0431-.91345.19159-2.09488.29968-2.84109.24274-1.3589-.10369-3.10427-.97079-4.62926-2.64607-1.15035-1.26373-2.1753-2.98733-2.81436-5.19001-8.27893-10.93923-27.60352-39.54369-38.34145-47.86102.0176-.005-.05-.20603.59439-1.93851 16.6623 12.87869 26.04641 28.55393 42.32336 28.99216 18.31235-.0725 28.69369-13.91735 80.95827-30.20977.0.0.63138 1.78415.61291 1.79289z" style="display:inline;fill-opacity:1;fill-rule:evenodd;fill:#c837ab;opacity:1;stroke-dasharray:none;stroke-linecap:butt;stroke-linejoin:miter;stroke-miterlimit:4;stroke-opacity:1;stroke-width:0;stroke:#000"/><path id="path1781-9-7-1" d="m282.94456 458.76549c-.0483.15247-.11284.47208-.19954.90622-.41277 2.06685-1.81439 6.53069-3.87757 8.11265-.26921.20642-1.13559 1.14752-4.57861.28177-.17398-.0437-2.18026 1.1699-4.2783.12449-4.65827-2.32112-6.22252-8.10904-6.31915-8.53686 3.82592 9.08132 8.89939 9.3147 10.40315 7.55401 5.26837 2.79873 7.50839-4.81217 8.85002-8.44228z" style="display:inline;fill-opacity:1;fill-rule:evenodd;fill:#000;opacity:1;stroke-dasharray:none;stroke-linecap:butt;stroke-linejoin:miter;stroke-miterlimit:4;stroke-opacity:1;stroke-width:0;stroke:#000"/><path style="display:inline;fill-opacity:1;fill:#c837ab;stroke-dasharray:none;stroke-linecap:butt;stroke-linejoin:miter;stroke-miterlimit:4;stroke-opacity:1;stroke-width:0;stroke:#000" d="m293.86064 264.57931c-6.26801-3.01132-15.75805-11.63074-17.87259-19.86824-3.04504-11.86272 4.71945-22.57429 21.63478-11.57993 16.13297-8.15503 24.9627 3.10697 17.59197 15.59404-3.32722 5.63676-12.4856 11.01114-21.35416 15.85413z" id="path3267-5-3-7-0-9-2"/></svg>