<svg viewBox="0 0 560 1e3"><path id="path2721" d="m282.10498 155.68553c-.60044-.84901-.35031-1.76738.48138-1.76738.59844.0 2.17457 1.15856 1.93407 1.42169-.0894.0978-.47897.0954-.88747-.005-.79908-.19718-1.0254-.12821-1.0254.31243.0.3581-.26237.37822-.50258.0385zm-4.80429-.88706c-3.16954-2.91631-2.88317-5.80797-.90356-8.45484.61513-.70951.9847-1.47763 1.6764-3.48427.27764-.80543.58061-1.46441.67327-1.46441.20803.0.20792.008-.0222 1.61589-.2587 1.80858-.44962 2.28566-1.65698 4.14075-.57844.88874-1.14704 1.81443-1.26359 2.05708-.56162 1.16935.0621 2.76414 1.86501 4.76877.68539.76205 1.24615 1.42405 1.24615 1.47107.0.28338-.78078-.031-1.61459-.65004z" style="fill:#000;stroke-width:.19310525"/></svg>