<svg viewBox="0 0 560 1e3"><path id="path2162" d="m368.2693 268.62447c-.29569 3.70196-1.38029 18.92573-6.55229 37.61574-5.26688 19.03288-14.89313 28.30872-15.58309 29.72001-8.98727 10.77595-16.29031 22.19622-16.48609 30.38694-.29639 21.90279 43.10834 75.87457 36.70281 107.14688-26.62809 12.91809-96.218 3.03387-150.5054.2004-2.02999.80618 4.1961-43.62156 7.1834-56.20537 2.03661-8.57906 12.83566-31.68328 13.82985-36.7898 2.433-12.49684 5.15367-33.10127 5.32486-35.97542 1.17686-19.75827-3.04833-37.86802-4.48362-50.41278-1.43724-13.39401 1.61249-32.82671 2.76383-35.89612.49308-.63092 40.83391-2.24049 42.28042-1.923 3.13994 1.52155 58.67897 12.39606 59.78508 13.22062z" style="display:inline;fill-opacity:1;fill-rule:evenodd;fill:#000;opacity:1;stroke-dasharray:none;stroke-linecap:butt;stroke-linejoin:miter;stroke-miterlimit:4;stroke-opacity:1;stroke-width:0;stroke:#000"/><path id="path2168" d="m368.47602 268.56519c-.47811 3.70196-3.33538 20.36978-8.58229 39.01662-3.46126 12.30088-5.53629 16.01193-22.37382 37.36063-16.44408 22.68138-8.27126 31.99104 4.17804 47.25332 22.34328 24.39749 31.13369 57.44737 25.45202 78.4893-25.41779 14.33953-86.24235 2.2015-151.79093.37494-2.02825.32824 3.92403-43.35344 8.34366-54.64812 7.94787-20.31139 12.95896-30.22159 14.4427-35.45311 3.47251-12.24371 5.13573-34.29582 5.3052-37.16997 1.27707-21.66848-3.95093-36.6242-4.83996-49.16156-2.15231-8.63346 1.03003-34.18207 4.42347-42.90653 30.93622 7.12848 58.3846-8.87948 92.52114 1.87699 17.70972 10.28479 32.92077 14.96749 32.92077 14.96749z" style="display:inline;fill-opacity:1;fill-rule:evenodd;fill:#1a1a1a;opacity:1;stroke-dasharray:none;stroke-linecap:butt;stroke-linejoin:miter;stroke-miterlimit:4;stroke-opacity:1;stroke-width:0;stroke:#000"/><path id="path3280-7-2-6-6-0-2" class="shadow" d="m329.89929 425.67495c-15.4791 1.19068-42.03653 26.26041-44.60913 30.99635 10.29989-9.14088 29.75951-26.28541 44.60913-30.99635z"/><path id="path3282-5-4-0-8-3-5" class="shadow" d="m262.1572 457.52324c-6.81704-9.41592-28.83006-31.99347-34.93819-34.15183 5.05404 5.44075 26.5203 25.35081 34.93819 34.15183z"/></svg>