<svg viewBox="0 0 560 1e3"><path id="path4739" d="m343.5428 214.6482c-2.42245-3.90715-5.6754-5.47457-2.46322-5.81823 8.58294-.91826 37.77337 4.29602 40.36402 9.4037-.23973-.0224 11.44761 16.96096 17.85403 36.71539 8.37307 25.81865 26.31312 72.47785 22.65805 78.24683-4.11088 6.48847-44.07998 94.88206-52.18912 112.63873-.86018 1.88354-23.57292-28.53521-24.59991-28.88951 17.00846-28.68937 29.44371-56.40907 40.73124-88.88127-12.03607-25.0301-12.81705-31.94219-17.14943-45.1596-10.49245-13.77934-24.70053-67.59523-25.20566-68.25604z" style="display:inline;fill-opacity:1;fill-rule:evenodd;fill:#000;stroke-dasharray:none;stroke-linecap:butt;stroke-linejoin:miter;stroke-miterlimit:4;stroke-opacity:0;stroke-width:3.12141943;stroke:#000"/><path id="path4761" d="m347.79149 214.93549c-2.23963-3.9037-5.24707-5.46975-2.27732-5.81311 7.93519-.91744 33.18912 3.98002 35.58425 9.0832-.22163-.0224 12.14381 17.7578 18.06674 37.49483 7.74115 25.79591 24.50061 71.91444 21.1214 77.67836-3.80063 6.48275-43.25817 91.41714-50.75531 109.15817-.79526 1.88188-20.92333-27.77806-21.87281-28.13205 17.27228-27.65548 27.90036-54.05479 39.2916-86.15367-11.1277-25.00805-11.84974-31.91404-15.85516-45.11981-9.70058-13.7672-22.83638-67.53569-23.30339-68.19592z" style="display:inline;fill-opacity:1;fill-rule:evenodd;fill:#500;stroke-dasharray:none;stroke-linecap:butt;stroke-linejoin:miter;stroke-miterlimit:4;stroke-opacity:0;stroke-width:3;stroke:#000"/></svg>