<svg viewBox="0 0 560 1e3"><path id="path4146" d="m342.19423 817.31142c.79794-5.41001.11768 4.02242.81413-1.05238 15.96101-116.30395 5.48748-133.02327 5.48748-133.02327 36.16013-115.34534 43.68347-221.73648 1.88802-270.52084.0186 1.15703-124.76482.49321-125.49165 1.47635-59.3468 80.27439 7.31779 249.29162 7.83305 252.69352 5.93243 39.16771 15.25479 121.18013 18.31027 177.24821.003.0561 14.30072-3.65048 28.62326.001 11.81531-7.22175 44.10423-330.4995 45.21132-339.71763z" style="baseline-shift:baseline;clip-rule:nonzero;color-interpolation-filters:linearRGB;color-interpolation:sRGB;color-rendering:auto;color:#000;direction:ltr;display:inline;enable-background:accumulate;fill-opacity:1;fill-rule:evenodd;fill:#000;image-rendering:auto;isolation:auto;mix-blend-mode:normal;opacity:1;overflow:visible;shape-rendering:auto;solid-color:#000000;solid-opacity:1;stroke-dasharray:none;stroke-dashoffset:0;stroke-linecap:butt;stroke-linejoin:miter;stroke-miterlimit:4;stroke-opacity:1;stroke-width:3.0980885;stroke:none;visibility:visible;white-space:normal;writing-mode:lr-tb"/><path id="path4148" d="m324.17119 503.78721c.77613-5.41001 16.52089 317.6243 17.1983 312.5495 15.52479-116.30395 6.06701-133.27327 6.06701-133.27327 37.92299-116.05245 46.62343-230.23648 3.53859-272.52084.0181 1.15703-124.75929 1.99321-125.46626 2.97635-57.72483 80.27439 8.09046 250.04162 8.59164 253.44352 5.7703 39.16771 16.07248 121.55364 16.9931 177.24821.001.0705 25.38671.54363 29.628.16513.0.0 43.45153-340.69652 43.44962-340.5886z" style="baseline-shift:baseline;clip-rule:nonzero;color-interpolation-filters:linearRGB;color-interpolation:sRGB;color-rendering:auto;color:#000;direction:ltr;display:inline;enable-background:accumulate;fill-opacity:1;fill-rule:evenodd;fill:#c8c8c8;image-rendering:auto;isolation:auto;mix-blend-mode:normal;opacity:1;overflow:visible;shape-rendering:auto;solid-color:#000000;solid-opacity:1;stroke-dasharray:none;stroke-dashoffset:0;stroke-linecap:butt;stroke-linejoin:miter;stroke-miterlimit:4;stroke-opacity:1;stroke-width:3.05545926;stroke:none;visibility:visible;white-space:normal;writing-mode:lr-tb"/><path d="m287.856 588.5998c-9.8-40.3-16.6-61.7-12.6-107.8-.7 44.5 3.5 67.1 12.6 107.8z" class="shadow" id="path4150"/><path id="path4152" class="shadow" d="m329.91688 425.69464c-15.4791 1.19068-42.03653 26.26041-44.60913 30.99635 10.29989-9.14088 29.75951-26.28541 44.60913-30.99635z"/><path id="path4154" class="shadow" d="m262.17479 457.54293c-6.81704-9.41592-28.83006-31.99347-34.93819-34.15183 5.05404 5.44075 26.5203 25.35081 34.93819 34.15183z"/></svg>