<svg viewBox="0 0 560 1e3"><g data-transform="boob" transform="matrix(1.1247504,0,0,1.1247504,-26.347241,-34.609528)" id="g4675" class="scaler_"><path id="path4610" d="m225.47889 255.87507c.52149-.30191 17.46328-9.33649 27.71573-14.79664 19.22498-10.23864 30.44714-13.99738 32.33808-16.23135" style="display:inline;fill-opacity:1;fill:none;stroke-dasharray:none;stroke-linecap:square;stroke-linejoin:miter;stroke-miterlimit:4;stroke-opacity:1;stroke-width:3;stroke:#000"/><path id="path4623" d="m223.59054 265.1886c29.33713 18.47455 44.24254 2.28668 46.01017 3.28754" style="display:inline;fill-opacity:1;fill:none;stroke-dasharray:none;stroke-linecap:square;stroke-linejoin:miter;stroke-miterlimit:4;stroke-opacity:1;stroke-width:3;stroke:#000"/><path id="path4628" d="m285.56062 224.84336c5.75422 8.17565 14.47119 21.70623 14.17883 31.19943" style="display:inline;fill-opacity:1;fill:none;stroke-dasharray:none;stroke-linecap:square;stroke-linejoin:miter;stroke-miterlimit:4;stroke-opacity:1;stroke-width:3;stroke:#000"/><path id="path4630" d="m270.34895 268.92792c5.24944 2.50613 15.67342 7.30076 23.28646.76884" style="display:inline;fill-opacity:1;fill:none;stroke-dasharray:none;stroke-linecap:square;stroke-linejoin:miter;stroke-miterlimit:4;stroke-opacity:1;stroke-width:3;stroke:#000"/><path id="path4632" d="m216.69413 266.55856c1.59531-.008 5.6522-.75042 7.86563-4.41838 1.14882-2.63141.98079-4.77759-.53708-7.28089" style="display:inline;fill-opacity:1;fill:none;stroke-dasharray:none;stroke-linecap:butt;stroke-linejoin:round;stroke-miterlimit:4;stroke-opacity:1;stroke-width:1.73667407;stroke:#969696"/><path id="path4644" d="m307.45644 269.12479c7.43283 4.97014 11.99917 5.57037 17.55904 5.49616" style="display:inline;fill-opacity:1;fill:none;stroke-dasharray:none;stroke-linecap:square;stroke-linejoin:miter;stroke-miterlimit:4;stroke-opacity:1;stroke-width:3;stroke:#000"/><path id="path4646" d="m300.2633 257.40317c-.15079-18e-5-7.33581-.19932-7.33702 7.11158-72e-5 3.86008 2.02258 7.47532 7.23587 7.47618 6.49284.001 6.84427-4.16026 7.14401-6.18824.59519-6.27797-3.19411-8.2473-7.08075-8.40065" style="display:inline;fill-opacity:1;fill:none;stroke-dasharray:none;stroke-linecap:butt;stroke-linejoin:round;stroke-miterlimit:4;stroke-opacity:1;stroke-width:1.69700003;stroke:#969696"/><path id="path4656" d="m271.42187 233.85246c9.7932-3.72191 15.8564-1.20254 20.23854 1.205" style="display:inline;fill-opacity:1;fill:none;stroke-dasharray:none;stroke-linecap:round;stroke-linejoin:miter;stroke-miterlimit:4;stroke-opacity:1;stroke-width:3;stroke:#000"/><path id="path4648" d="m266.47094 234.7464c10.96008-2.41219 26.47172 1.03672 27.99367 4.3791" style="display:inline;fill-opacity:1;fill:none;stroke-dasharray:none;stroke-linecap:round;stroke-linejoin:miter;stroke-miterlimit:4;stroke-opacity:1;stroke-width:2.6672585;stroke:#000"/><path id="path4661" d="m277.0522 231.43423c7.41549-4.37909 9.0913-.82267 12.76973 1.73534" style="display:inline;fill-opacity:1;fill:none;stroke-dasharray:none;stroke-linecap:square;stroke-linejoin:miter;stroke-miterlimit:4;stroke-opacity:1;stroke-width:3;stroke:#000"/><path id="path4661-8" d="m279.028 229.40894c8.61406-4.97542 6.52819-1.54575 9.80872 1.02823" style="display:inline;fill-opacity:1;fill:none;stroke-dasharray:none;stroke-linecap:square;stroke-linejoin:miter;stroke-miterlimit:4;stroke-opacity:1;stroke-width:3;stroke:#000"/></g></svg>