<svg viewBox="0 0 560 1e3"><path style="fill:#000" id="path3812" d="m249.00797 451.47178c.11738-.0487.30744.009.4164-.0407 5.18523-2.36095.89414-5.75827-.3979-5.59577-3.4868 1.22277-2.14552 4.67968-1.00946 4.8702.0163.0118.13563.30319.99096.76625z"/><path style="fill:#000" id="path3816" d="m260.1152 459.43847c4.87143 1.35731 9.78029 2.92998 11.46349-1.28874.51941-1.4588.18591-2.49098-.85441-2.86941-4.29467-1.34039-13.43406-5.26722-16.10463-7.7791-.36871-.56452-.30667-.64586-.68173-1.0333-.79517-.82141-1.8174-.73759-2.65285-.69187-.50348.0276-1.80301-.12736-2.20716.0336-.33949.13521-.63567.32701-.82882.57169-.06.0761.39889-.16618.44197-.19864 1.21279-.91393 6.05793 2.93028.65781 5.18163-.4999.2084-2.03126-1.34692-2.0176-1.29387.0874.33955.67049.87407 1.18363 1.21612.3064.20423.65501.28063.77915.49985 1.49234 2.63528 4.7826 5.52884 10.82115 7.65199z"/><path class="areola" id="path3814" d="m248.07146 450.32889c1.85858 1.11286 5.38057-.40771 6.26629-2.52915-.22304-.63299-.98769-1.85686-1.88481-1.82737-2.56041.0841-2.50342-.16006-3.57937.15499-2.15243.92637-2.42101 2.87195-1.25656 4.31162.11415.0876.26263-.0673.45445-.11014z"/><path style="fill:#000" id="path3818" d="m247.64448 449.1353c.0264.19341.26478.58546.52267.6561-.002-.01-.0634-.34333-.0659-.35348-.0834-.34274-.45254-1.35181.14967-2.48434-.60583.68571-.71517 1.36465-.60647 2.18172z"/><path id="path3820" class="skin penis" d="m260.42501 459.22077c4.82587 1.34463 9.46343 3.19604 11.35187-.9718.51457-1.44516.48237-2.26722-.54823-2.64213-4.47764-1.07272-13.92718-5.13943-16.57276-7.62781-1.24547 1.74898-2.47635 2.70943-5.11359 2.94137-.44398-.005-.91599-.12249-1.39135-.39618-.10296-.0593-.27054.0545-.34247.0793-.0826.055 1.93486 1.24894 1.89219 1.34171 1.47839 2.61064 4.74225 5.17225 10.72433 7.27554z"/></svg>