<svg viewBox="0 0 560 1000"><path id="path48957" d="m 278.05414,474.57418 c -4.80017,3.62666 -11.18728,3.70948 -14.2298,1.43797 -5.99325,-4.47453 -5.52666,-15.23414 -4.03861,-18.20144 0.60367,-1.20372 1.92188,-2.57736 4.2465,-10.44843 1.55,-5.2482 2.5871,-20.20909 2.52585,-31.93177 -0.01,-1.74208 -1.20064,-0.041 -1.47776,-1.74417 -0.39284,-2.41434 2.13317,-6.52215 2.93352,-7.751 2.93442,-4.50558 4.34751,-1.99154 5.00187,-1.93524 1.72336,0.14827 2.29155,4.78837 2.64248,10.43662 0.0927,1.49236 -0.10003,1.99202 -0.16994,3.54338 -0.40632,9.01652 -1.5909,14.76426 -0.95411,29.73382 0.20059,4.71506 2.204,10.45419 3.00773,12.05135 3.11049,6.18123 3.31758,11.71764 0.51227,14.80891 z" style="display:inline;fill:#000000;opacity:1;stroke-width:1.00070596"/><path class="skin scrotum" d="m 264.95344,475.86452 c -6.36567,-3.30265 -6.42266,-15.56803 -4.03361,-18.78095 1.00396,-1.3502 1.69853,-2.54912 3.87354,-9.78078 1.4928,-4.96342 2.40857,-21.59931 2.35656,-32.83682 -0.008,-1.66996 -1.75128,0.33257 -1.65117,-1.31881 0.14075,-2.3216 1.37651,-4.76023 3.77929,-8.50686 1.43352,-2.23529 4.3836,-2.31225 6.51521,0.0673 1.20814,1.34864 2.85646,4.0702 3.1543,9.4847 0.0787,1.43058 -1.42512,-0.0637 -1.48446,1.42344 -0.34486,8.64334 -1.05153,17.85885 -0.51103,32.20883 0.17025,4.51992 1.3769,7.60146 2.15562,9.0687 3.1449,5.92539 4.33036,15.18801 0.27469,18.16445 -4.05569,2.97642 -11.51677,2.31768 -14.42894,0.80678 z" id="path48959"/></svg>
