<svg viewBox="0 0 560 1e3"><path d="m267.23463 450.73798 3.11592-.15136c.93021-6.40662 3.95894-11.50631 6.66908-16.80443-5.58516-.0849-11.59094-.67726-16.5428.002 1.54591 5.70209 4.03226 11.33653 6.7578 16.95379z" id="path5158-2" class="pubic_hair"/><path d="m363.96648 268.10163c3.47711-4.86808 5.51409-20.47518 3.32753-24.2077-2.60035.69044-1.97503 1.38571-4.4446-.21104.83858 8.14327 2.00713 17.8126 1.11707 24.41874z" id="path5158-3-3" class="underarm_hair"/><path style="display:inline;fill-opacity:1;fill:#000;opacity:1" d="m236.73004 270.99741c-.12551 1.89685-.19342 3.79183-.202 5.67824-1.3755 20.25213 4.90182 44.32565 4.90182 44.32565s-6.59593 66.50653-16.58519 92.37518c16.36196-.34408 93.98705-1.86544 126.96167-1.88004-7.11114-21.64025-9.71489-35.91045-8.13823-48.79635 3.06035-25.01194 16.32479-30.16457 23.19237-81.12915-20.00731-23.65544-37.44304-58.20381-37.48946-76.57605-5.0856-1.53654-9.2662-4.20037-11.97165-6.99799-.44453 1.7818-1.99968 15.88708-2.14306 17.33056-12.09829 5.75915-27.87745 3.2969-33.51216-1.00011.88357-3.08367 2.87976-7.82151 6.26875-14.36009-2.95309 1.88608-8.68497 4.12374-12.65394 6.03362-16.12454 21.61213-36.49699 49.48545-38.62892 64.99653z" id="path6926"/><path id="path6928" d="m351.33187 335.10685c-11.50769 26.18542-11.90439 40.83665.72237 77.67654-40.10653 11.44456-64.97545 42.96388-65.74712 45.30165-.78385 1.88787-4.7912 9.82211-7.2881 11.60252-1.21712.86786-4.56426-.37235-4.8162-.39645-.29397-.0276-.77535.50225-2.98817-.0701-5.65546-1.4629-10.22974-5.40448-10.80185-7.35518-18.43111-29.49711-30.68812-46.0732-35.41353-47.26215 10.41108-24.55365 17.56225-93.09868 17.56225-93.09868s-3.06185-14.34037-3.95088-26.87773c-5.84752-48.51279 18.32727-82.76734 38.32548-88.64617.49229-.51848 5.43756-2.25669 9.91452-4.65903 1.01736-.38611 4.59904-8.26172 5.00699-8.02432 6.65758 3.87428 22.60885-.60503 22.93817.0937.97035 2.05878 1.84469 4.05751 2.988 5.79136 1.48672 1.12706 18.23182 7.00546 18.7637 8.34782.0.0 24.76225-4.8947 34.24132 27.54218.0476.44543-.20742 8.29506-.0211 16.76295.11811 5.36806-.97158 11.24597-1.56133 15.83868-4.48396 23.51326-8.18998 44.84432-17.87452 67.43241z" style="display:inline;fill-opacity:1;fill-rule:evenodd;fill:#0b1728;opacity:1;stroke-dasharray:none;stroke-linecap:butt;stroke-linejoin:miter;stroke-miterlimit:4;stroke-opacity:1;stroke-width:0;stroke:#000"/><path id="path6930" d="m223.46081 414.21749c13.0124 5.20002 31.84447 58.44933 51.86626 56.74714 13.4605-1.86072 15.36894-33.20485 77.69951-58.44767-5.52595-11.9083-11.23731-16.28943-17.77351-27.61382-45.102 11.9464-91.4758 7.08435-96.81614-2.31943.0.0-9.84313 19.91613-14.97612 31.63378z" style="display:inline;fill-opacity:1;fill:#0b1728;stroke-dasharray:none;stroke-linecap:butt;stroke-linejoin:miter;stroke-miterlimit:4;stroke-opacity:1;stroke-width:0;stroke:#000"/><path id="path6932" d="m257.42933 436.58157c.5575-1.06599 6.5423-47.48865 6.58488-47.65285.0.0-24.70711 1.71109-30.75217-6.19629-.14865-.19445-12.79974 37.11247-12.73312 37.19235.063.19141 36.90041 16.65679 36.90041 16.65679z" style="display:inline;fill-opacity:1;fill:#000;opacity:1;stroke-dasharray:none;stroke-linecap:butt;stroke-linejoin:miter;stroke-miterlimit:4;stroke-opacity:1;stroke-width:0;stroke:#000"/><path id="path6934" d="m256.33979 391.23466c-.0664.0413-1.39182-.0733-1.58546-.10885-3.40999-.62801 19.2566-160.50788 24.25915-160.55375.0.0 12.26767-11.59694 15.1958-14.84809-11.66224 14.89533-30.22666 147.63281-30.17154 172.72911-.0426 1.28175-94e-5 2.39529-.0998 2.64799z" style="display:inline;fill-opacity:1;fill:#000;opacity:1;stroke-dasharray:none;stroke-linecap:butt;stroke-linejoin:miter;stroke-miterlimit:4;stroke-opacity:1;stroke-width:0;stroke:#000"/><path id="path6936" d="m256.82347 435.83166c-.005-.12477 6.25247-46.70456 6.29446-46.86401.0.0-21.35284-4.55682-28.81642-7.41863-.2232-.0856-13.35958 38.08968-13.29388 38.16726.0621.18588 35.81584 16.11538 35.81584 16.11538z" style="display:inline;fill-opacity:1;fill:#0b1728;opacity:1;stroke-dasharray:none;stroke-linecap:butt;stroke-linejoin:miter;stroke-miterlimit:4;stroke-opacity:1;stroke-width:0;stroke:#000"/><path id="path6938" d="m255.95357 390.4496c-.0664.0413-1.76682-.0468-1.96046-.0825-3.40999-.62801 19.2566-160.40253 24.25915-160.4484.0.0 14.23398-13.51852 15.68248-14.44775-15.56688 24.4846-34.69807 173.01647-30.414 174.96778z" style="display:inline;fill-opacity:1;fill:#0b1728;opacity:1;stroke-dasharray:none;stroke-linecap:butt;stroke-linejoin:miter;stroke-miterlimit:4;stroke-opacity:1;stroke-width:0;stroke:#000"/><path id="path6940" d="m258.89163 437.11081c.007-.14856 4.42434-52.00177 4.3621-52.19162.0.0 61.49277 5.11776 80.86019-1.05635.29791-.095 10.57838 30.24427 10.481 30.33664-.0921.22131-95.70329 22.91133-95.70329 22.91133z" style="display:inline;fill-opacity:1;fill:#000;opacity:1;stroke-dasharray:none;stroke-linecap:butt;stroke-linejoin:miter;stroke-miterlimit:4;stroke-opacity:1;stroke-width:0;stroke:#000"/><path id="path6942" d="m260.02434 435.69863c.007-.14856 4.18979-50.58257 4.12661-50.77211-.29391-.88173 57.84496-2.06344 79.3134-1.93449.31268.002 10.31321 30.41032 10.21583 30.50269-.0921.22131-93.65584 22.20391-93.65584 22.20391z" style="display:inline;fill-opacity:1;fill:#0b1728;opacity:1;stroke-dasharray:none;stroke-linecap:butt;stroke-linejoin:miter;stroke-miterlimit:4;stroke-opacity:1;stroke-width:0;stroke:#000"/><path style="display:inline;fill-opacity:1;fill-rule:nonzero;fill:#999;opacity:1;stroke-dasharray:none;stroke-linecap:butt;stroke-linejoin:round;stroke-miterlimit:4;stroke-opacity:1;stroke-width:0;stroke:#000" d="m288.03821 262.88906a2.8059697 3.1566737.0 01-2.80597 3.15668 2.8059697 3.1566737.0 01-2.80597-3.15668 2.8059697 3.1566737.0 012.80597-3.15668 2.8059697 3.1566737.0 012.80597 3.15668z" id="path6944"/><path style="display:inline;fill-opacity:1;fill-rule:nonzero;fill:#999;opacity:1;stroke-dasharray:none;stroke-linecap:butt;stroke-linejoin:round;stroke-miterlimit:4;stroke-opacity:1;stroke-width:0;stroke:#000" d="m282.89194 297.67418a2.8059697 3.1566737.0 01-2.80597 3.15667 2.8059697 3.1566737.0 01-2.80597-3.15667 2.8059697 3.1566737.0 012.80597-3.15668 2.8059697 3.1566737.0 012.80597 3.15668z" id="path6948"/><path id="path6950" class="shadow" d="m329.87921 425.70416c-15.4791 1.19068-42.03653 26.26041-44.60913 30.99635 10.29989-9.14088 29.75951-26.28541 44.60913-30.99635z"/><path id="path6952" class="shadow" d="m262.13712 457.55245c-6.81704-9.41592-28.83006-31.99347-34.93819-34.15183 5.05404 5.44075 26.5203 25.35081 34.93819 34.15183z"/><path id="path6954" class="shadow" d="m329.8875 425.70175c-15.4791 1.19068-42.03653 26.26041-44.60913 30.99635 10.29989-9.14088 29.75951-26.28541 44.60913-30.99635z"/><path id="path6956" class="shadow" d="m262.14541 457.55004c-6.81704-9.41592-28.83006-31.99347-34.93819-34.15183 5.05404 5.44075 26.5203 25.35081 34.93819 34.15183z"/><path style="display:inline;fill-opacity:1;fill-rule:nonzero;fill:#999;opacity:1;stroke-dasharray:none;stroke-linecap:butt;stroke-linejoin:round;stroke-miterlimit:4;stroke-opacity:1;stroke-width:0;stroke:#000" d="m296.15903 227.39313a2.8059697 3.1566737.0 01-2.80597 3.15668 2.8059697 3.1566737.0 01-2.80597-3.15668 2.8059697 3.1566737.0 012.80597-3.15668 2.8059697 3.1566737.0 012.80597 3.15668z" id="path6970"/><path style="display:inline;fill-opacity:1;fill-rule:nonzero;fill:#999;opacity:1;stroke-dasharray:none;stroke-linecap:butt;stroke-linejoin:round;stroke-miterlimit:4;stroke-opacity:1;stroke-width:0;stroke:#000" d="m277.43213 332.06503a2.8059697 3.1566737.0 01-2.80597 3.15668 2.8059697 3.1566737.0 01-2.80597-3.15668 2.8059697 3.1566737.0 012.80597-3.15668 2.8059697 3.1566737.0 012.80597 3.15668z" id="path6972"/><path id="path6974" d="m238.63192 351.77189c.54144-4.31831 2.15796-15.32933 1.79316-15.52251.0.0 34.26679 17.07865 109.16745 3.68119.44589-.0798-4.55439 15.48094-5.17706 15.58348-14.57264 6.85213-94.70945 9.51229-105.78358-3.74216z" style="display:inline;fill-opacity:1;fill:#000;opacity:1;stroke-dasharray:none;stroke-linecap:butt;stroke-linejoin:miter;stroke-miterlimit:4;stroke-opacity:1;stroke-width:0;stroke:#000"/><path id="path6976" d="m238.36676 350.88593c.54144-3.88977 1.89279-13.3135 1.52799-13.48751.0.0 34.50867 15.2958 109.40933 3.22788.44589-.0719-4.977 14.44279-4.977 14.44279-19.95115 6.77325-94.88622 7.75593-105.96035-4.18316z" style="display:inline;fill-opacity:1;fill:#1a1a1a;opacity:1;stroke-dasharray:none;stroke-linecap:butt;stroke-linejoin:miter;stroke-miterlimit:4;stroke-opacity:1;stroke-width:0;stroke:#000"/><path style="display:inline;fill-opacity:1;fill-rule:nonzero;fill:#999;opacity:1;stroke-dasharray:none;stroke-linecap:butt;stroke-linejoin:round;stroke-miterlimit:4;stroke-opacity:1;stroke-width:0;stroke:#000" d="m274.98457 344.74372c-.44018 5.33776-.84034 10.10475-1.37916 16.26851-.56855-.0469-7.79095-.21827-7.74241-.63754.0138-.11883-.0823-1.78528.3093-1.83621.42235-.055 5.98947.7961 5.97346.21441-.012-.43819.74182-9.38815.92382-11.59513.0342-.41441-6.21555-.6029-6.21375-.96027.009-1.84868.13101-2.13256.44377-2.28414 5.00728.41295 7.68886.2458 7.68499.83037z" id="path6978"/><path style="display:inline;fill-opacity:1;fill-rule:nonzero;fill:#999;opacity:1;stroke-dasharray:none;stroke-linecap:butt;stroke-linejoin:round;stroke-miterlimit:4;stroke-opacity:1;stroke-width:0;stroke:#000" d="m263.09859 343.67151c-.43629 5.33807-.81905 10.10649-1.2928 16.27559.56856.047 7.72222 1.05541 7.74272.63384.006-.11948.37238-1.74795-.006-1.86207-.40773-.12311-6.03912-.19148-5.92845-.76277.0833-.43036.79938-9.38342.97979-11.59054.0337-.41446 6.23068.41866 6.28717.0661.29266-1.8254.21856-2.12538-.0653-2.32593-5.00758-.40933-7.62599-1.0116-7.71752-.43426z" id="path6980"/><path style="display:inline;fill-opacity:1;fill-rule:evenodd;fill:#000;opacity:1;stroke-dasharray:none;stroke-linecap:butt;stroke-linejoin:miter;stroke-miterlimit:4;stroke-opacity:1;stroke-width:0;stroke:#000" d="m282.45842 458.56662c-.27835.87834-1.09442 7.30349-3.59097 9.21774-.26922.20641-1.13559 1.14752-4.57861.28177-.17398-.0437-1.37228.71664-3.61539.0361-5.82941-1.76869-6.22252-8.10904-6.31915-8.53686 8.23205-5.09165 11.4291-4.00072 18.10412-.99875z" id="path6986"/><path style="display:inline;fill-opacity:1;fill-rule:evenodd;fill:#0b1728;opacity:1;stroke-dasharray:none;stroke-linecap:butt;stroke-linejoin:miter;stroke-miterlimit:4;stroke-opacity:1;stroke-width:0;stroke:#000" d="m282.65569 458.4011c-.78318 1.88787-2.10206 7.06063-4.59684 8.84104-1.21608.86786-3.67141-.009-3.92314-.0331-.29372-.0276-.96753.96577-3.15689.31564-4.33861-1.28834-5.1633-4.97917-6.6404-7.92987 7.24395-6.87766 11.19968-9.59173 18.31727-1.19371z" id="path6988"/><path id="path6191-5" d="m292.37072 216.07858c-.007-.15238 3.8945-21.33661 3.96139-21.53134.0.0-5.93416-2.77563-6.07642-2.58113-.86438 1.18176-2.48505 4.21861-3.88833 5.92157.099.227 6.00336 18.1909 6.00336 18.1909z" style="display:inline;fill-opacity:1;fill:#000;opacity:1;stroke-dasharray:none;stroke-linecap:butt;stroke-linejoin:miter;stroke-miterlimit:4;stroke-opacity:1;stroke-width:0;stroke:#000"/><path id="path6193-7" d="m292.27012 214.99157c-.006-.15465 3.18623-20.56297 3.24155-20.7606.0.0-5.25385-3.42808-5.3715-3.23069-.7148 1.19936-2.05503 4.28144-3.21549 6.00976.0818.23038 5.34544 17.98153 5.34544 17.98153z" style="display:inline;fill-opacity:1;fill:#0b1728;opacity:1;stroke-dasharray:none;stroke-linecap:butt;stroke-linejoin:miter;stroke-miterlimit:4;stroke-opacity:1;stroke-width:0;stroke:#000"/><path id="path6195-3" d="m298.6408 216.19261c.006-.15238 3.40168-21.28705 3.34715-21.48178.0.0 13.52448-3.30688 13.64045-3.11238.70464 1.18176 2.15318 5.37486 2.50741 6.04657-.0807.227-19.49501 18.54759-19.49501 18.54759z" style="display:inline;fill-opacity:1;fill:#000;opacity:1;stroke-dasharray:none;stroke-linecap:butt;stroke-linejoin:miter;stroke-miterlimit:4;stroke-opacity:1;stroke-width:0;stroke:#000"/><path id="path6197-8" d="m299.45773 215.19253c.006-.15052 3.06748-20.24269 3.01643-20.43505.0.0 12.49233-3.75466 12.60093-3.56254.65983 1.16734 2.01625 5.30926 2.34795 5.97277-.0756.22423-17.96531 18.02482-17.96531 18.02482z" style="display:inline;fill-opacity:1;fill:#0b1728;opacity:1;stroke-dasharray:none;stroke-linecap:butt;stroke-linejoin:miter;stroke-miterlimit:4;stroke-opacity:1;stroke-width:0;stroke:#000"/><path id="path6201-4" d="m284.51487 205.20924c.0133-.14802.991-3.76164 1.04686-3.94624.0.0-10.13556 2.84037-10.14148 3.07346-.008.30956-.81107 2.93146-.7689 3.0294.0242.22566 9.86356-2.15662 9.86356-2.15662z" style="display:inline;fill-opacity:1;fill:#000;opacity:1;stroke-dasharray:none;stroke-linecap:butt;stroke-linejoin:miter;stroke-miterlimit:4;stroke-opacity:1;stroke-width:0;stroke:#000"/><path id="path6201-0-3" d="m321.73469 205.93856c-.0135-.25315-2.19351-6.61269-2.32164-6.93919.0.0 28.25558 7.57122 28.23428 7.96573-.0279.52399 1.81929 5.16395 1.68381 5.31746-.10544.37372-27.59656-6.34401-27.59656-6.34401z" style="display:inline;fill-opacity:1;fill:#000;opacity:1;stroke-dasharray:none;stroke-linecap:butt;stroke-linejoin:miter;stroke-miterlimit:4;stroke-opacity:1;stroke-width:0;stroke:#000"/><path id="path6201-07-4" d="m284.41581 204.80064c.0132-.13828.98105-3.51413 1.03635-3.68659.0.0-10.03379 2.65349-10.03965 2.87124-.008.28919-.80292 2.73858-.76118 2.83007.024.21081 9.76452-2.01472 9.76452-2.01472z" style="display:inline;fill-opacity:1;fill:#0b1728;opacity:1;stroke-dasharray:none;stroke-linecap:butt;stroke-linejoin:miter;stroke-miterlimit:4;stroke-opacity:1;stroke-width:0;stroke:#000"/><path id="path6201-0-5-43" d="m321.26188 205.48198c-.0134-.2365-2.17149-6.1776-2.29833-6.48261.0.0 27.97185 7.07304 27.95076 7.4416-.0276.48951 1.80102 4.82417 1.6669 4.96758-.10438.34913-27.31944-5.92658-27.31944-5.92658z" style="display:inline;fill-opacity:1;fill:#0b1728;opacity:1;stroke-dasharray:none;stroke-linecap:butt;stroke-linejoin:miter;stroke-miterlimit:4;stroke-opacity:1;stroke-width:0;stroke:#000"/><path style="display:inline;fill-opacity:1;fill-rule:nonzero;fill:#999;opacity:1;stroke-dasharray:none;stroke-linecap:butt;stroke-linejoin:round;stroke-miterlimit:4;stroke-opacity:1;stroke-width:0;stroke:#000" d="m299.80598 206.99996a2.8059697 3.1566737.0 01-2.80597 3.15668 2.8059697 3.1566737.0 01-2.80597-3.15668 2.8059697 3.1566737.0 012.80597-3.15668 2.8059697 3.1566737.0 012.80597 3.15668z" id="path6212-8-9"/></svg>