<svg viewBox="0 0 560 1e3"><path id="path7149" d="m272.41543 503.87422c-.0588 2.482-3.16257 5.40456-6.27756 6.41402-1.80072.58355-3.86403.31749-5.15458.29578-2.07018-.0348-5.02705-2.74507-5.37708-3.73272.53436-4.25251 8.84406-8.43524 16.80922-2.97708z" style="fill:#000"/><path id="path7151" d="m271.51548 503.79664c-.0549 2.31845-2.66515 4.57967-5.56718 5.52259-1.67765.54511-3.59993.29658-4.80225.27629-1.92866-.0325-4.30842-2.09541-4.63454-3.01799.49783-3.9723 7.58329-7.87938 15.00397-2.78089z" class="areola"/><path id="path7153" d="m257.94082 448.40075c4.9406-9.27481 22.59978-15.34905 24.28339 5.93305.55792 1.19782-.75281 6.57817-2.32846 13.34485-1.80447 6.60632-3.23516 14.11715-3.9371 21.60104-.54975 5.86127-.71125 11.60608-4.3291 15.27142-2.57319 2.18601-6.74117 2.97627-10.28263 2.92184-2.08102-.032-5.72171-.12671-6.35969-.62123-2.5393-1.96831-3.98148-3.94517-6.09182-6.82574-.26344-1.2703.28371-1.90428.16933-2.38571-1.43906-6.05668-.99654-15.1402.85999-25.26926 1.59223-8.68689 4.31474-17.45685 8.01609-23.97026z" style="fill:#000"/><path id="path7155" d="m258.79479 446.58948c4.48955-9.48087 20.53649-15.69008 22.06638 6.06485.50701 1.22445-.68407 6.72432-2.11586 13.64133-1.63973 6.75311-3.55259 14.30511-4.19046 21.95528-.49956 5.99149-.6463 11.86396-3.93383 15.61071-2.33829 2.23458-5.64294 2.94591-8.86108 2.89029-1.89105-.0328-5.75085-.004-6.33061-.50935-2.30745-2.01202-3.48798-3.81063-5.40566-6.75521-.27896-.84478.25783-1.9466.15388-2.43875-1.30769-6.19124-.35403-15.60225 1.333-25.95635 1.44685-8.87988 3.92079-17.84468 7.28424-24.5028z" class="skin penis"/></svg>