<svg viewBox="0 0 560 1e3"><g data-transform="belly" id="g5861" transform="matrix(1.014792,0,0,1.0059302,-4.1476732,-2.5734225)"><path id="path5857" class="shadow" d="m274.8 433.8c20.7-1.5 47.7-4.5 61.9-42.4 13.1-44.3-27.8-99.6-59.9-101.5-40.1 6.2-61.8 42.8-63.9 96.9 2.2 31 33.1 49 61.9 47z"/><path style="fill-opacity:1;fill:#222a12" id="path5859" d="m274.8 433.8c20.8.1 49.4-13 61.9-42.4s-18.5-83.4-46-101.7c-6.5-4.3-38.7-8.2-40.4.0-2.6 11.6-44.9 33.3-41.4 96.8 1.8 34.8 45.1 47.2 65.9 47.3z"/><path id="path3300-2" d="m260.88817 432.7846c-.0664.037-1.81037-.34954-2.00401-.38144-3.40999-.56245-15.43033-84.19867 24.55202-142.60228.0.0 5.54719-.10058 8.15973.27118-35.26367 69.382-28.12767 111.89146-23.44542 143.58146z" style="display:inline;fill-opacity:1;fill:#000;opacity:1;stroke-dasharray:none;stroke-linecap:butt;stroke-linejoin:miter;stroke-miterlimit:4;stroke-opacity:1;stroke-width:0;stroke:#000"/><path id="path3300-2-7" d="m259.5088 432.78461c-.0664.037-1.81037-.34955-2.00401-.38145-3.40999-.56245-15.43032-84.19867 24.55202-142.60228.0.0 6.06979-.80352 8.68233-.43176-35.26367 69.382-28.65027 112.5944-23.96802 144.2844z" style="display:inline;fill-opacity:1;fill:#222a12;opacity:1;stroke-dasharray:none;stroke-linecap:butt;stroke-linejoin:miter;stroke-miterlimit:4;stroke-opacity:1;stroke-width:0;stroke:#000"/><path style="display:inline;fill-opacity:1;fill-rule:nonzero;fill:#806600;opacity:1;stroke-dasharray:none;stroke-linecap:butt;stroke-linejoin:round;stroke-miterlimit:4;stroke-opacity:1;stroke-width:0;stroke:#000" d="m261.8214 378.64011a3.005204 3.1377864.0 01-3.0052 3.13779 3.005204 3.1377864.0 01-3.00521-3.13779 3.005204 3.1377864.0 013.00521-3.13779 3.005204 3.1377864.0 013.0052 3.13779z" id="path2956-2-9-8"/><path style="display:inline;fill-opacity:1;fill-rule:nonzero;fill:#806600;opacity:1;stroke-dasharray:none;stroke-linecap:butt;stroke-linejoin:round;stroke-miterlimit:4;stroke-opacity:1;stroke-width:0;stroke:#000" d="m264.25866 357.01046a3.005204 3.1377864.0 01-3.0052 3.13779 3.005204 3.1377864.0 01-3.00521-3.13779 3.005204 3.1377864.0 013.00521-3.13779 3.005204 3.1377864.0 013.0052 3.13779z" id="path2956-2-80-7"/><path style="display:inline;fill-opacity:1;fill-rule:nonzero;fill:#806600;opacity:1;stroke-dasharray:none;stroke-linecap:butt;stroke-linejoin:round;stroke-miterlimit:4;stroke-opacity:1;stroke-width:0;stroke:#000" d="m269.34743 337.07036a3.005204 3.1377864.0 01-3.0052 3.13779 3.005204 3.1377864.0 01-3.00521-3.13779 3.005204 3.1377864.0 013.00521-3.13779 3.005204 3.1377864.0 013.0052 3.13779z" id="path2956-2-06-3"/><path style="display:inline;fill-opacity:1;fill-rule:nonzero;fill:#806600;opacity:1;stroke-dasharray:none;stroke-linecap:butt;stroke-linejoin:round;stroke-miterlimit:4;stroke-opacity:1;stroke-width:0;stroke:#000" d="m277.80958 311.82032a3.005204 3.1377864.0 01-3.0052 3.13779 3.005204 3.1377864.0 01-3.00521-3.13779 3.005204 3.1377864.0 013.00521-3.13779 3.005204 3.1377864.0 013.0052 3.13779z" id="path2956-2-3-0"/><path style="display:inline;fill-opacity:1;fill-rule:nonzero;fill:#806600;opacity:1;stroke-dasharray:none;stroke-linecap:butt;stroke-linejoin:round;stroke-miterlimit:4;stroke-opacity:1;stroke-width:0;stroke:#000" d="m289.23056 290.67143a3.005204 3.1377864.0 01-3.0052 3.13779 3.005204 3.1377864.0 01-3.00521-3.13779 3.005204 3.1377864.0 013.00521-3.13779 3.005204 3.1377864.0 013.0052 3.13779z" id="path2956-2-0-82"/><path id="path3300-2-7-6" d="m339.34215 382.92277c-.50532 1.57438-80.9612 20.82442-130.68344-2.45229.0.0.0376-3.88878.0181-5.74341 54.57148 17.12626 103.24521 7.80039 130.88932 1.28286.0532 2.19309-.0669 4.72323-.22394 6.91284z" style="display:inline;fill-opacity:1;fill:#000;opacity:1;stroke-dasharray:none;stroke-linecap:butt;stroke-linejoin:miter;stroke-miterlimit:4;stroke-opacity:1;stroke-width:0;stroke:#000"/><path id="path3338-9" d="m250.13386 392.55978c.007-.14856.45758-8.97588.39534-9.16573.0.0 14.91787.0682 14.87904.30034-.0516.30839.2727 9.21838.17532 9.31075-.40146.13292-15.4497-.44536-15.4497-.44536z" style="display:inline;fill-opacity:1;fill:#c8c8c8;opacity:1;stroke-dasharray:none;stroke-linecap:butt;stroke-linejoin:miter;stroke-miterlimit:4;stroke-opacity:1;stroke-width:0;stroke:#000"/></g></svg>