<svg viewBox="0 0 560 1e3"><path id="path3599" d="m347.87122 216.10417c-2.2742-3.975-5.32807-5.56966-2.31247-5.91928 8.0577-.9342 54.27067-19.67224 72.89137-25.43874.49874 1.40225 12.30201 28.99961 13.55439 32.02482-4.75372 2.42248-66.40506 41.47938-71.2078 43.70839-6.76698-20.22007-12.61438-43.93416-12.92549-44.37519z" style="display:inline;fill-opacity:1;fill-rule:evenodd;fill:#000;stroke-dasharray:none;stroke-linecap:butt;stroke-linejoin:miter;stroke-miterlimit:4;stroke-opacity:0;stroke-width:3.05055022;stroke:#000"/><path id="path3601" d="m347.79149 214.93549c-2.23963-3.9037-5.24707-5.46975-2.27732-5.81311 7.93519-.91744 47.44764-14.10634 72.34277-23.62816.64735 1.67147 2.23912 9.9613 13.31925 30.88776-7.62705 4.09797-62.88902 38.53815-70.65574 42.13278-6.66409-19.85739-12.42259-43.14615-12.72896-43.57927z" style="display:inline;fill-opacity:1;fill-rule:evenodd;fill:#ececec;stroke-dasharray:none;stroke-linecap:butt;stroke-linejoin:miter;stroke-miterlimit:4;stroke-opacity:0;stroke-width:3;stroke:#000"/><path style="display:inline;fill-opacity:1;fill-rule:evenodd;fill:#000;stroke-dasharray:none;stroke-linecap:butt;stroke-linejoin:miter;stroke-miterlimit:4;stroke-opacity:0;stroke-width:3.52519441;stroke:#000" d="m413.1573 230.5557c5.64237-2.42131 15.94828-7.44037 21.70004-10.38741-.95526-9.15951-11.33423-30.84958-13.39835-41.13286-9.30447 3.74181-18.76479 7.39239-22.94224 8.89117 4.56586 22.60611 14.70461 41.97922 14.64055 42.6291z" id="path3619-7-4"/><path style="display:inline;fill-opacity:1;fill-rule:evenodd;fill:#ececec;stroke-dasharray:none;stroke-linecap:butt;stroke-linejoin:miter;stroke-miterlimit:4;stroke-opacity:0;stroke-width:3.23364592;stroke:#000" d="m413.78971 229.09135c5.18067-2.24101 14.64515-6.88169 19.92772-9.60553-.84721-8.40314-10.84393-29.05655-12.70426-38.48737-8.54233 3.46509-17.22728 6.847-21.06196 8.23649 4.11559 20.73201 13.89926 39.25973 13.8385 39.85641z" id="path3619-7-3-9"/></svg>