<svg viewBox="0 0 560 1e3"><path id="path2288-2-7" d="m370.8969 268.8878c2.36849 23.60153-3.24649 50.77091-14.17047 77.92965.0897 2.34411 8.6595 18.11968 11.11537 30.07427-36.77086 9.58655-126.68446 13.76644-145.55622-5.09006 2.433-12.49684 7.10305-30.33653 14.9517-51.41692-2.13048-7.70551.44816-14.37237-.57531-27.78473.40962-35.13389 30.30326-40.0847 52.38713-59.43686.97617-2.02088 2.05999-19.89061-11.85024-27.17009-.63873-.33426 3.66191-3.80977 8.18644-6.21211 9.24713 11.38115 27.34766 3.74775 33.42729-1.52056 1.50252 1.12706 8.39482 5.20658 7.17933 6.00553-25.72677 16.91039-30.9022 28.84774-29.45936 29.06832 3.13994 1.52155 66.54554 33.43249 67.65165 34.25705z" style="display:inline;fill-opacity:1;fill-rule:evenodd;fill:#000;opacity:1;stroke-dasharray:none;stroke-linecap:butt;stroke-linejoin:miter;stroke-miterlimit:4;stroke-opacity:1;stroke-width:0;stroke:#000"/><path id="path2290-3-0" d="m355.86286 347.54922c.49582 5.07437 8.15207 17.16139 10.52716 28.43074-31.28229 8.06681-129.76418 14.04864-142.36655-5.26211 1.76466-12.54996 13.73275-45.3843 14.32574-50.33371-3.0755-26.84168-3.64605-47.62114.88756-72.44709 4.39438-23.68414 15.86738-37.30901 37.69935-41.95594.49229-.51848 3.97915-3.18477 8.45611-5.58711 9.14993 11.38115 27.08296 3.74775 33.09868-1.52056 1.48672 1.12706 17.52471 7.31482 18.05659 8.65718 2.58742.19199 9.57783.93138 12.62329 2.06534 21.32697 11.58453 25.15316 34.74558 21.91064 58.57411 1.82371 35.69041-9.90952 61.65738-15.21857 79.37915z" style="display:inline;fill-opacity:1;fill-rule:evenodd;fill:#c8c8c8;opacity:1;stroke-dasharray:none;stroke-linecap:butt;stroke-linejoin:miter;stroke-miterlimit:4;stroke-opacity:1;stroke-width:0;stroke:#000"/><path id="path2276-4-9-6-2" d="m219.45138 465.1272c1.78605-.18069-2.80643 5.58689-3.97335 9.7375-.13898.49434 11.30318-3.00043 23.34645-2.68738 15.39215.40011 32.76084 4.80119 36.36612 6.43486 27.3515-5.55275 87.9134-1.91457 95.21552 1.04811 2.65835-10.3326-5.45294-43.91959-8.30378-48.23452-2.68621-6.082 2.84256-15.41331 2.21369-17.38558-.0813-.25494 3.79143-4.62071 3.79143-4.62071-27.80965 7.38411-106.88735 15.44557-142.24809 2.75914-.0808-.0326-.32662 2.03076-4.70456 21.38233-2.03466 8.99372-2.66555 19.55629-1.70343 31.56625z" style="display:inline;fill-opacity:1;fill:#000;stroke-dasharray:none;stroke-linecap:butt;stroke-linejoin:miter;stroke-miterlimit:4;stroke-opacity:1;stroke-width:0;stroke:#000"/><path style="display:inline;fill-opacity:1;fill:#8aa7ff;stroke-dasharray:none;stroke-linecap:butt;stroke-linejoin:miter;stroke-miterlimit:4;stroke-opacity:1;stroke-width:0;stroke:#000" d="m215.45586 474.91455c20.47367-7.92632 54.41137-.23765 59.78866 3.8022.0798-4.49415 1.05695-10.70077 1.29388-11.83066-42.61622-7.91998-56.23048-3.96035-60.15052-2.37407-.0162.94868-.7698 5.74986-.93202 10.40253z" id="path2292-9-3"/><path style="display:inline;fill-opacity:1;fill:#8aa7ff;stroke-dasharray:none;stroke-linecap:butt;stroke-linejoin:miter;stroke-miterlimit:4;stroke-opacity:1;stroke-width:0;stroke:#000" d="m275.2174 478.60926c20.47367-7.92632 89.98768-2.93349 95.36497 1.10636 1.22885-4.40576 1.05695-7.69556 1.29388-8.82545-45.09109-9.06903-92.17692-4.20895-96.09696-2.62267-.0162.94868-.53225 5.73329-.56189 10.34176z" id="path2294-2-5"/><path style="display:inline;fill-opacity:1;fill:#517cd3;stroke-dasharray:none;stroke-linecap:butt;stroke-linejoin:miter;stroke-miterlimit:4;stroke-opacity:1;stroke-width:0;stroke:#000" d="m216.33481 465.20903c4.88391-4.22638 38.52677-4.01457 51.81541 1.63139 1.97544 1.15064 3.25554 2.1652 6.10367 1.40454 1.48394 1.11892 3.86559.35492 5.71098-.80814 69.74911-5.15378 91.25981 5.37844 91.80614 4.82354-1.44176-18.35508-2.03126-35.40794-7.70444-55.14553.15029-.96669.75131-1.44262 2.67685-4.30363-.0813-.25494-2.03624-2.15105-2.03624-2.15105-45.10201 11.9464-112.2867 13.56479-138.75697 1.68241-.12493-.0561-8.19472 9.32902-9.6154 52.86647z" id="path2296-3-6"/><path style="display:inline;fill-opacity:1;fill:#8aa7ff;stroke-dasharray:none;stroke-linecap:butt;stroke-linejoin:miter;stroke-miterlimit:4;stroke-opacity:1;stroke-width:0;stroke:#000" d="m223.81214 415.89001c35.65478 14.81043 126.84068 6.5298 142.09814-1.79368.89414-2.06033 1.8065-3.10121 1.35561-3.9811-58.31295 15.78964-125.40834 9.96853-141.37854 2.12734-.32556.70561-.85233.93932-2.07521 3.64744z" id="path2298-9-4"/><path style="display:inline;fill-opacity:1;fill:#8aa7ff;stroke-dasharray:none;stroke-linecap:butt;stroke-linejoin:miter;stroke-miterlimit:4;stroke-opacity:1;stroke-width:0;stroke:#000" d="m275.25299 462.86252c-12.30071-3.84341-10.24242-38.06192-8.39422-42.36481.10337-.24065 6.70466-.007 6.80117-.0386-.14286-.008-.28501-.0153-.42641-.0219-4.0967-.18979-7.561.22503-9.12434-.44654-1.55247 9.38892-5.87824 43.63579 11.1438 42.87185z" id="path2300-0-3"/><path style="display:inline;fill-opacity:1;fill:#8aa7ff;stroke-dasharray:none;stroke-linecap:butt;stroke-linejoin:miter;stroke-miterlimit:4;stroke-opacity:1;stroke-width:0;stroke:#000" d="m356.28203 444.8129c-31.56327-6.76001-36.08141-20.9697-36.88946-25.86634-1.02422-.29348-2.03709.77235-2.39603.55362-.0837 1.32642 8.77861 23.21162 39.28549 25.31272z" id="path2302-4-1"/><path style="display:inline;fill-opacity:1;fill:#8aa7ff;stroke-dasharray:none;stroke-linecap:butt;stroke-linejoin:miter;stroke-miterlimit:4;stroke-opacity:1;stroke-width:0;stroke:#000" d="m222.23265 435.35375c9.31024-1.01499 16.40296-13.94481 15.59491-18.84145-1.02422-.29348-.41393-.14186-.77287-.36059-.0837 1.32642-1.64142 12.72594-14.82204 19.20204z" id="path2304-4-0"/><path id="path3280-7-2-6-6-0-7-0" class="shadow" d="m329.89265 425.68684c-15.4791 1.19068-42.03653 26.26041-44.60913 30.99635 10.29989-9.14088 29.75951-26.28541 44.60913-30.99635z"/><path id="path3282-5-4-0-8-3-8-4" class="shadow" d="m262.15056 457.53513c-6.81704-9.41592-28.83006-31.99347-34.93819-34.15183 5.05404 5.44075 26.5203 25.35081 34.93819 34.15183z"/><path d="m262.98857 459.03749c4.57815 9.39542 7.95428 8.94718 11.45233 8.01034.29456-.0789 5.02218 4.77996 9.26343-8.71666-1.38475 8.70911-4.94655 11.61521-9.3291 9.47151-.0226-.0111-2.82256 1.04466-4.71233.003-2.95847-1.63089-6.486-5.556-6.67433-8.7681z" class="shadow" id="path4347-6-2-8-7"/><path d="m274.84429 467.66511c-.33521 1.70859.19151 9.15085.3994 10.94825-1.47124-.0994-1.90021-9.61487-.3994-10.94825z" class="shadow" id="path4347-6-8-2-3-0-7-1"/></svg>