<svg viewBox="0 0 560 1e3"><path style="display:inline;fill-opacity:1;fill-rule:evenodd;fill:#fff;stroke-dasharray:none;stroke-linecap:butt;stroke-linejoin:miter;stroke-miterlimit:4;stroke-opacity:0;stroke-width:3.04086399;stroke:#000" d="m299.86232 216.84741c2.86836-3.54688 6.13047-4.63172 3.21235-5.4513-7.79724-2.18996-20.18841-6.10404-44.36313-3.24662-6.75411 1.83523-25.5209 31.39528-31.61243 40.99036 3.89751 5.89815 9.64043 4.48577 20.8017 16.19004 7.40694 2.24606 22.73528-9.40161 32.22793-6.91934 9.85684-18.80023 19.35738-41.1789 19.73358-41.56314z" id="path5970"/><path style="display:inline;fill-opacity:1;fill-rule:evenodd;fill:#1a1a1a;stroke-dasharray:none;stroke-linecap:butt;stroke-linejoin:miter;stroke-miterlimit:4;stroke-opacity:0;stroke-width:3;stroke:#000" d="m300.48784 216.69956c2.82896-3.50026 6.04627-4.57084 3.16823-5.37966-7.69014-2.16117-23.78612-7.02382-47.62881-4.20395-19.10017-4.12207-37.7271 23.13156-26.88374 41.49013 1.81884 2.11212 9.61012 5.58698 22.14283 13.31355 7.3052 2.21655 20.37667-6.65278 29.73895-4.20314 9.72145-18.55316 19.09151-40.63773 19.46254-41.01693z" id="path5972"/></svg>