<svg viewBox="0 0 560 1e3"><path style="display:inline;fill-opacity:1;fill-rule:evenodd;fill:#000;opacity:1;stroke-dasharray:none;stroke-linecap:butt;stroke-linejoin:miter;stroke-miterlimit:4;stroke-opacity:1;stroke-width:0;stroke:#000" d="m368.45236 268.83602c.40069 1.40387.82871 12.89967-6.36035 37.77919-5.42713 18.7819-20.56882 29.98312-21.1652 31.4412-5.76961 8.24948-15.17503 22.20843-10.37382 32.19769.20871.43423 2.86633 6.1658 5.95239 12.12819 5.12253 9.89693 11.7358 22.29153 12.56986 25.83552.0.0-51.7146 6.85286-63.22382 35.19023-2.06147 4.01155-2.1084 11.81811-3.46792 16.10443-.27859.87834-1.00697 6.35332-3.50565 8.26757-.26944.20641-1.13656 1.14752-4.58251.28177-.17413-.0437-1.37345.71664-3.61847.0361-5.83439-1.76869-6.66978-8.86034-6.76649-9.28816-1.98539-8.78313-6.24957-28.02971-9.43291-34.24779-14.19124-27.72004-27.97462-8.06406-29.28246-10.40039.41618-1.08804 4.02945-13.36841 6.19444-18.09893 11.62539-25.40153 12.08709-42.05871 12.25836-57.26185.24452-21.70551-6.08737-33.66342-6.98584-46.20078.40962-35.13389 30.30326-40.0847 52.38713-59.43686.97617-2.02088 1.41982-19.01301-12.49041-26.29249-.63873-.33426 5.76049-3.75929 10.28502-6.16163 4.60651-7.8312 4.77746-7.85716 4.77746-7.85716 7.59995 3.04875 9.79042 1.79852 23.34377-.13948.0.0 2.20771 4.67981 3.14054 5.85732 1.50252 1.12706 9.10193 4.89722 7.88644 5.69617-25.72677 16.91039-30.9022 28.84774-29.45936 29.06832 3.13994 1.52155 66.54554 33.43249 67.65165 34.25705z" id="path2384"/><path style="display:inline;fill-opacity:1;fill-rule:evenodd;fill:#c8c8c8;opacity:1;stroke-dasharray:none;stroke-linecap:butt;stroke-linejoin:miter;stroke-miterlimit:4;stroke-opacity:1;stroke-width:0;stroke:#000" d="m368.47602 268.56519c-.47811 3.70196-1.71839 20.80284-7.95729 39.14162-6.28969 18.48806-17.77339 26.59126-18.77871 27.80104-8.36776 10.0696-13.07538 17.52333-14.41501 28.45838-1.1072 9.03783 24.36594 44.01876 24.72923 48.81716-40.10653 11.44456-64.97545 42.96388-65.74712 45.30165-.78385 1.88787-4.7912 9.82211-7.2881 11.60252-1.21712.86786-4.56426-.37235-4.8162-.39645-.29397-.0276-.77535.50225-2.98817-.0701-5.65546-1.4629-10.22974-5.40448-10.80185-7.35518-18.43111-29.49711-30.68812-46.0732-35.41353-47.26215 7.94787-20.31139 14.53739-34.53836 15.52113-39.64488 2.40743-12.49684 4.34652-31.04582 4.51599-33.91997 1.27707-21.66848-5.53672-33.8742-6.42575-46.41156-3.37265-53.10898 18.32727-82.76734 38.32548-88.64617.49229-.51848 5.43756-2.25669 9.91452-4.65903 1.01736-.38611 4.59904-8.26172 5.00699-8.02432 6.65758 3.87428 22.60885-.60503 22.93817.0937.97035 2.05878 1.84469 4.05751 2.988 5.79136 1.48672 1.12706 18.23182 7.00546 18.7637 8.34782.0.0 22.76225-4.7697 32.24132 27.66718.0476.44543.64353 8.08167.82984 16.54956.11811 5.36806-.44125 11.33436-1.14264 16.81783z" id="path2386"/><path style="display:inline;fill-opacity:1;fill:#000;stroke-dasharray:none;stroke-linecap:butt;stroke-linejoin:miter;stroke-miterlimit:4;stroke-opacity:1;stroke-width:0;stroke:#000" d="m225.59803 414.50423c13.0124 5.20002 29.36397 56.66207 49.38576 54.95988 13.4605-1.86072 14.12966-32.15215 76.46023-57.39497-1.99871-6.0195-17.05662-30.7307-17.68549-32.70297-.0813-.25494-1.22374-2.21355-1.22374-2.21355-45.102 11.9464-87.26241 7.51113-92.60275-1.89265.0.0-9.20102 27.52661-14.33401 39.24426z" id="path2246-4-4"/><path style="display:inline;fill-opacity:1;fill:#4d4d4d;stroke-dasharray:none;stroke-linecap:butt;stroke-linejoin:miter;stroke-miterlimit:4;stroke-opacity:1;stroke-width:0;stroke:#000" d="m224.05743 416.09574c13.0124 5.20002 31.24785 56.57108 51.26964 54.86889 13.4605-1.86072 14.55644-32.7986 76.88701-58.04142-1.99871-6.0195-17.4834-30.08425-18.11227-32.05652-.0813-.25494-1.22374-2.21355-1.22374-2.21355-45.102 11.9464-87.3508 7.33435-92.69114-2.06943.0.0-10.99651 27.79438-16.1295 39.51203z" id="path2246-4"/><path style="display:inline;fill-opacity:1;fill:#000;opacity:.97000002;stroke-dasharray:none;stroke-linecap:butt;stroke-linejoin:miter;stroke-miterlimit:4;stroke-opacity:1;stroke-width:0;stroke:#000" d="m231.65837 395.41775c-3.13392 21.58364 1.20594 76.3153 8.22163 93.73702 1.37187 3.40671 66.62927 6.90201 68.41648 3.06292 7.90056-16.97113 19.54614-73.74819 33.4034-100.65977-.66531-1.589-7.27297-12.33901-7.75532-13.64583-45.10199 11.9464-89.0579 7.7419-94.39824-1.66193-.0402.57637-6.44091 16.38256-7.88795 19.16759z" id="path2246-4-41-0-9-4-9-20"/><path style="display:inline;fill-opacity:1;fill:#e1e1ff;opacity:1;stroke-dasharray:none;stroke-linecap:butt;stroke-linejoin:miter;stroke-miterlimit:4;stroke-opacity:1;stroke-width:0;stroke:#000" d="m232.28337 395.54275c-3.13392 21.58364 1.45594 75.3153 8.47163 92.73702 1.37187 3.40671 65.12927 6.77701 66.91648 2.93792 7.90056-16.97113 19.04614-72.49819 32.9034-99.40977-.66531-1.589-7.27297-12.33901-7.75532-13.64583-45.10199 11.9464-87.3079 7.6169-92.64824-1.78693-.0402.57637-6.44091 16.38256-7.88795 19.16759z" id="path2246-4-41-0-9-4-9"/><path style="display:inline;fill-opacity:1;fill:#000;opacity:1;stroke-dasharray:none;stroke-linecap:butt;stroke-linejoin:miter;stroke-miterlimit:4;stroke-opacity:1;stroke-width:0;stroke:#000" d="m336.4408 382.30174c-.0508-.13663-.89184-1.65683-.85171-1.62802 2.4837 1.78281 12.1271 1.67817 13.40614.23997 4.76421-5.35705-13.61416-18.33457-14.38708-2.23345-.0727-.19109-.35114-.58128-.36661-.85432-1.35419-23.8996 36.18076 11.72919 2.19926 4.47582z" id="path2246-4-41-0-9-4-9-2-2"/><path style="display:inline;fill-opacity:1;fill:#e1e1ff;opacity:1;stroke-dasharray:none;stroke-linecap:butt;stroke-linejoin:miter;stroke-miterlimit:4;stroke-opacity:1;stroke-width:0;stroke:#000" d="m336.36593 382.12968c-.0508-.13663-.89184-1.65683-.85171-1.62802 2.4837 1.78281 12.1271 1.67817 13.40614.23997 4.76421-5.35705-13.61416-18.33457-14.38708-2.23345-.0727-.19109-.35114-.58128-.36661-.85432-1.35419-23.8996 36.18076 11.72919 2.19926 4.47582z" id="path2246-4-41-0-9-4-9-2"/><path style="display:inline;fill-opacity:1;fill:#000;opacity:1;stroke-dasharray:none;stroke-linecap:butt;stroke-linejoin:miter;stroke-miterlimit:4;stroke-opacity:1;stroke-width:0;stroke:#000" d="m336.95672 382.09938c6.55752 2.66278 9.90514 4.04885 13.0944 3.0818 10.92536-3.3128-2.18327-20.91676-15.60976-7.54261.0803-.0665.0174.13508.10062.0746 17.69527-12.8555 29.88422 14.78059 2.41414 3.75995-.0573-.023 6e-4.62627 6e-4.62627z" id="path2246-4-41-0-9-4-9-2-8-8"/><path style="display:inline;fill-opacity:1;fill:#e1e1ff;opacity:1;stroke-dasharray:none;stroke-linecap:butt;stroke-linejoin:miter;stroke-miterlimit:4;stroke-opacity:1;stroke-width:0;stroke:#000" d="m336.46138 381.89851c6.55752 2.66278 10.15514 4.11135 13.3444 3.1443 10.92536-3.3128-1.7917-21.42732-15.59319-7.27192.0803-.0665.0316.2.11167.13536 17.29752-13.96036 29.8566 14.44913 2.38652 3.42849-.0573-.023-.2494.56377-.2494.56377z" id="path2246-4-41-0-9-4-9-2-8"/><path style="display:inline;fill-opacity:1;fill:#000;opacity:1;stroke-dasharray:none;stroke-linecap:butt;stroke-linejoin:miter;stroke-miterlimit:4;stroke-opacity:1;stroke-width:0;stroke:#000" d="m291.59375 204.88359c-.007-.15238 5.39726-10.80323 5.46415-10.99796.0.0-4.71541-2.02563-4.85767-1.83113-.86438 1.18176-2.48505 4.21861-3.88833 5.92157.099.227 3.28185 6.90752 3.28185 6.90752z" id="path2246-4-41-0-9-4-9-2-8-6-8-4-1-4-1"/><path style="display:inline;fill-opacity:1;fill:#c8c8c8;opacity:1;stroke-dasharray:none;stroke-linecap:butt;stroke-linejoin:miter;stroke-miterlimit:4;stroke-opacity:1;stroke-width:0;stroke:#000" d="m291.36976 204.48024c-.007-.14941 5.24298-10.59292 5.30796-10.78386.0.0-4.58062-1.9862-4.71882-1.79549-.83967 1.15876-2.41401 4.13649-3.77718 5.8063.0962.22258 3.18804 6.77305 3.18804 6.77305z" id="path2246-4-41-0-9-4-9-2-8-6-8-4-7-2"/><path style="display:inline;fill-opacity:1;fill:#000;opacity:1;stroke-dasharray:none;stroke-linecap:butt;stroke-linejoin:miter;stroke-miterlimit:4;stroke-opacity:1;stroke-width:0;stroke:#000" d="m302.66646 205.30254c.007-.15238-3.55351-10.99073-3.6204-11.18546.0.0 15.87166-2.71313 16.01392-2.51863.86438 1.18176 2.6413 5.37486 3.07583 6.04657-.099.227-15.46935 7.65752-15.46935 7.65752z" id="path2246-4-41-0-9-4-9-2-8-6-8-4-2-7-4-5"/><path style="display:inline;fill-opacity:1;fill:#c8c8c8;opacity:1;stroke-dasharray:none;stroke-linecap:butt;stroke-linejoin:miter;stroke-miterlimit:4;stroke-opacity:1;stroke-width:0;stroke:#000" d="m302.32669 204.86794c.007-.14856-3.50116-10.71524-3.56706-10.90509.0.0 15.63782-2.64512 15.77799-2.4555.85164 1.15214 2.60238 5.24014 3.03051 5.89501-.0975.22131-15.24144 7.46558-15.24144 7.46558z" id="path2246-4-41-0-9-4-9-2-8-6-8-4-2-9-5"/><path style="display:inline;fill-opacity:1;fill:#000;opacity:1;stroke-dasharray:none;stroke-linecap:butt;stroke-linejoin:miter;stroke-miterlimit:4;stroke-opacity:1;stroke-width:0;stroke:#000" d="m301.28881 219.64348c.0506-.11381 3.80942-8.09618 3.91422-8.19082.0.0-5.46493-9.89832-5.60966-9.85403-.87929.26907-3.31479 2.08266-3.78445 2.27341-.0283.22814 5.47989 15.77144 5.47989 15.77144z" id="path2246-4-41-0-9-4-9-2-8-6-8-4-2-3-0-3-0"/><path style="display:inline;fill-opacity:1;fill:#474747;opacity:1;stroke-dasharray:none;stroke-linecap:butt;stroke-linejoin:miter;stroke-miterlimit:4;stroke-opacity:1;stroke-width:0;stroke:#000" d="m301.17763 219.40223c.0492-.10991 3.70189-7.81858 3.80373-7.90998.0.0-5.31067-9.55893-5.45131-9.51616-.85448.25985-3.22123 2.01125-3.67763 2.19546-.0275.22032 5.32521 15.23068 5.32521 15.23068z" id="path2246-4-41-0-9-4-9-2-8-6-8-4-2-3-0-1-5-0"/><path style="display:inline;fill-opacity:1;fill:#000;opacity:1;stroke-dasharray:none;stroke-linecap:butt;stroke-linejoin:miter;stroke-miterlimit:4;stroke-opacity:1;stroke-width:0;stroke:#000" d="m291.64344 219.15372c-.0522-.11242-2.92885-8.29413-3.0369-8.38761.0.0 4.63578-9.48002 4.785-9.43627.9066.26577 3.41775 2.05716 3.902 2.24557.0291.22535-5.6501 15.57831-5.6501 15.57831z" id="path2246-4-41-0-9-4-9-2-8-6-8-4-2-3-7-5"/><path style="display:inline;fill-opacity:1;fill:#474747;opacity:1;stroke-dasharray:none;stroke-linecap:butt;stroke-linejoin:miter;stroke-miterlimit:4;stroke-opacity:1;stroke-width:0;stroke:#000" d="m291.59855 218.6915c-.0522-.11242-2.92885-8.29413-3.0369-8.38761.0.0 4.63578-9.48002 4.785-9.43627.9066.26577 3.41775 2.05716 3.902 2.24557.0291.22535-5.6501 15.57831-5.6501 15.57831z" id="path2246-4-41-0-9-4-9-2-8-6-8-4-2-3-5-6-9"/><path style="display:inline;fill-opacity:1;fill:#000;opacity:1;stroke-dasharray:none;stroke-linecap:butt;stroke-linejoin:miter;stroke-miterlimit:4;stroke-opacity:1;stroke-width:0;stroke:#000" d="m296.58503 204.96414c.41937.2053 12.83791 3.582 12.83791 3.582s1.97547-7.01455-.49085-12.98749c-6.51076-.2662-11.57285 2.87409-11.82793 2.94536-.15201-.0921-8.94185-2.5276-9.26538-1.94436-2.50541 4.51663-1.6643 10.93339-1.68826 11.194.14502.0107 9.78903-2.59133 10.43451-2.78951z" id="path2246-4-41-0-9-4-9-2-8-6-8-2-9-4"/><path style="display:inline;fill-opacity:1;fill:#474747;opacity:1;stroke-dasharray:none;stroke-linecap:butt;stroke-linejoin:miter;stroke-miterlimit:4;stroke-opacity:1;stroke-width:0;stroke:#000" d="m296.43205 204.79544c.41707.19379 12.7674 3.38113 12.7674 3.38113s1.96462-6.62119-.48815-12.25918c-6.475-.25128-11.50929 2.71291-11.76297 2.78019-.15117-.0869-8.89273-2.38586-9.21449-1.83533-2.49164 4.26335-1.65515 10.32027-1.67898 10.56627.14422.0101 9.73526-2.44602 10.37719-2.63308z" id="path2246-4-41-0-9-4-9-2-8-6-8-2-5-6-6"/></svg>