<svg viewBox="0 0 560 1e3"><path id="path1906" class="hair" d="m289.04215 82.18432c1.61317-.259913 21.9731-6.659886 23.58919-6.905713 1.27731-.19435-7.72858 5.246242-6.62145 4.649552.22913-.123504 1.54673-.444703 1.54673-.444703 1.47041-.330091 11.51757-3.730957 18.23747-6.637628 2.8447-1.23048 3.95959-.168486 3.94724.225133-.14032 4.460442-6.92063 4.844259-5.44537 4.656614 5.12114-.651329 2.28171-.669685 7.1408-1.283383 20.83716-2.631736 31.84887-17.667675 31.84462-17.490899-.17787 7.401144-13.41358 22.095826-13.70448 22.558064-.16723.26585 26.77172-6.482051 52.83494-.08896.15567.03817-26.32071 1.063281-43.86074 5.688213-12.6878 3.345496-11.25678 3.44448-11.30858 3.555232-.11052.236041 12.36173 3.25266 25.98629 15.800348.052.048-11.64603-5.1975-18.12903-6.3283-9.24621-1.612838-14.5499.79444-16.98429 1.69899-32.81385-1.56029-40.39931-17.372655-49.07334-19.652569z"/><path id="path1908" class="hair" d="m302.09765 58.077357c1.38942.82848 21.25217 9.050315 22.63323 9.890729 1.09157.664186-9.64087-1.103334-8.3753-.834363.26194.05568 1.47798.654317 1.47798.654317 1.33596.688421 11.31875 4.571924 18.46702 6.716612 3.02603.907906 7.86413.918944 7.56138 1.193101-3.43092 3.106739-13.5462.56783-12.31288 1.361332 4.28115 2.754571 2.19047.955464 6.24939 3.572169 17.40571 11.221128 36.78178 7.377286 36.64678 7.50123-5.65217 5.189499-26.422 7.390014-26.98236 7.538142-.32222.08529 24.67584 12.195934 39.2232 33.168524.0868.12515-20.2998-15.79367-36.74871-23.51327-11.89845-5.584058-10.91175-4.61308-11.03272-4.56633-.25783.0996 6.73533 10.10513 7.47357 27.66247.002.0669-4.75433-11.04804-8.71552-15.93571-5.64952-6.97094-11.37575-8.58258-13.85456-9.46582-23.1551-21.756964-16.9826-37.854263-21.7105-44.943133z"/><path id="path1900-3" class="hair" d="m325.14207 49.72347c.53248 1.527527 10.47149 20.58909 10.9899 22.120396.40977 1.21027-6.67914-7.039381-5.88211-6.020182.16496.210952.71223 1.450961.71223 1.450961.58146 1.385841 5.73648 10.775384 9.83647 17.011384 1.73561 2.639847 5.43606 5.756595 5.02792 5.772179-4.62514.176527-10.74553-8.267752-10.31022-6.867324 1.51103 4.861355 1.06477 2.139495 2.49407 6.75241 6.12922 19.781446 23.44698 29.284176 23.2639 29.292426-4.38308.19756-11.92603-3.52929-17.68026-6.80329-4.30915-2.45179-15.99582-14.445737-16.22045-14.551287-.30169-.14176 22.4996-1.52228 9.59137 49.393957-.88057-24.82352-.25792-5.32782-10.25803-14.10529-5.53049-11.92344-.65772-27.04924-.78047-27.09115-.26158-.0893-1.33071 12.07095-12.04487 25.99978-.041.0532 3.45457-11.52078 3.55918-17.81123.14921-8.97154-3.20349-13.88546-4.5356-16.154839-3.76625-31.548997 11.30574-39.919081 12.23697-48.388901z"/><path id="path1910" d="M332.64991 107.46043c-20.85398 17.26329-53.22247-13.110288-26.53439-38.724855 27.18601-12.773889 46.84132 19.405405 26.53439 38.724855z" style="display:inline;fill:#fac;opacity:1;stroke-width:1.40457821"/><path d="m305.87891 66.603511c-7.13671-.023-14.51544 2.031413-21.09384 5.605911-1.78686.970929-3.51468 2.054011-5.16256 3.238077-1.86907 1.343006-3.63531 2.815927-5.26822 4.402463-10.81186 11.773314-16.66175 19.048288-18.67244 32.172358-.0752.63795 2.33235-3.78973 2.2727-3.13914-.25946 2.82961-1.24571 5.93448-1.22718 8.99767.0655.65721-.91013 5.25301-.89063 6.00195.0116.44615 1.0313-2.98051 1.0293-2.50586-.007 1.77104-.5016 4.48383-.6294 6.55224-.0243.39252-1.41902 4.59036-1.44532 4.99023-.0231.3505 1.32293-2.87686 1.29883-2.52148-.24824 3.66194-.89817 8.7168-.96047 12.41655-.0156.92393-.50929 8.93975-.49219 9.83789.0182.95728 1.73754-5.17456 1.80274-4.25977.20397 2.86294 2.3565 17.94369 2.66992 20.2619.72091 5.33285 16.63005 46.43406 16.72425 46.60951-3.24952-14.76402-11.09472-58.80742-12.09612-72.76207-.27607-3.84705 1.4707-11.62109 1.4707-11.62109.63621-1.92837 4.34426-11.9496 5.53907-14.85355.0.0-7.29488 2.27547-8.59773 5.57082-1.33046 3.36514-11.18764 25.51429-11.02044 25.42527.27322-.0922 18.17168-28.46795 21.17833-33.28792 2.76159-4.42712 5.23488-12.50423 5.49864-12.50805.0918.86336-2.01045 11.66149 8.09135 22.0917.17335.17899-3.63097-6.5043-4.52662-9.45791-.8655-2.85422-1.06458-5.90076-.94373-5.66873 2.70524 5.19409 7.69152 11.95684 15.84689 16.27191-4.71436-4.58635-10.72319-10.16438-12.087-13.97695 5.34851 6.16641 14.99536 13.70931 27.67657 21.11632-2.65485-2.82258-16.13173-24.81232-15.72544-29.1812.77613.74536 5.8744 13.94993 15.63169 24.25432.11258.11889-2.59136-5.36291-3.46274-8.05041-1.61518-4.98151-1.95172-8.73846-1.81565-8.4565 2.08527 4.32102 7.65226 12.61018 10.78267 24.42481 4.21577 15.91098 6.16993 36.77757 9.66362 49.34751 6.21396-25.10922 3.55715-69.29832.67222-73.33711-.54075-.75703-14.4415-.54126-14.25502-.5006 3.23858 3.83679 3.06731 7.05789 3.35332 8.89338 2.33945 35.84046-13.17887 81.36893-17.34435 98.4663 16.47535-16.66719 35.21531-72.724 39.07873-94.29443 10.49937-28.060584.42437-37.407164-1.68359-41.134759-5.27966-7.985402-13.25637-13.670675-27.25782-15.236328-1.19735-.127421-2.40647-.191391-3.62304-.195312z" id="path1820-5" class="hair"/></svg>