<svg viewBox="0 0 560 1e3"><path id="path8476" d="m270.09163 474.86821c.003.4542-.7529 6.18727-5.65278 5.9712-2.39934-.10581-5.75628-5.08819-5.76002-5.54239-.35639-.85795.21617-1.15043.39264-1.26618.45695-.29972 1.5159 1.07286 5.47878 1.15457 2.40086.0495 5.53763-.77141 5.54138-.31721z" style="display:inline;fill:#000;opacity:1;stroke-width:.52344018"/><path id="path8478" d="m263.33703 476.66017c-.36514.12763-.62775-.0583-1.03872-.0747-1.16262-8.26297 3.35443-23.76302 4.66432-25.03127.23722.10871 1.12747-.0845 1.03049.23254-.58537 1.91356-4.83679 13.48437-4.65609 24.87343z" style="display:inline;fill:#000;opacity:1;stroke-width:.49782711"/><path id="path8480" d="m268.54787 477.83401c-.3797.12044-.65278-.055-1.08014-.0705.15398-6.79823 3.28865-21.86585 4.85029-23.61982.24667.10258.48344.9459.38259 1.24506-.60871 1.80566-3.52868 12.40819-4.15274 22.44524z" style="display:inline;fill:#000;opacity:1;stroke-width:.49313384"/><path id="path8482" d="m259.38175 475.47314c-.37917.12044-.26266-.055-.68942-.0705-.59221-6.89082 1.75966-19.89074 5.03806-23.09518.24633.10257.36444.45525.18745.72042-.60785.91069-5.21024 9.13692-4.53609 22.44524z" style="display:inline;fill:#000;opacity:1;stroke-width:.49278691"/><path id="path8484" d="m270.12832 475.1131c.004.40905-.74391 5.57235-5.58532 5.37774-2.37072-.0953-5.6876-4.5825-5.69129-4.99155-.35215-.77269.21359-1.0361.38795-1.14035.45149-.26993 1.49781.96623 5.4134 1.03982 2.37221.0446 5.47157-.69474 5.47526-.28568z" style="fill:#bababa;stroke-width:.49377617"/><path id="path8486" d="m263.88146 480.36625c-.39786-.23288-.82308-.78562-.64658-1.30371.21389.30384.42997.93768 1.27847 1.43177-.34817.003-.59175-.10091-.63189-.12806z" style="display:inline;fill:#000;opacity:1;stroke-width:.49377617"/><path id="path8488" d="m258.57804 469.22523c-.0175.61766-.017 1.39343-.0421 2.25861 3.05918 2.05575 10.14782.91601 11.83719.30056.0145-.21451.23092-2.40739.18795-2.39308-1.42774.47535-8.53073 1.30218-11.98309-.16609z" style="display:inline;fill:#000;opacity:1;stroke-width:.50153834"/><path id="path8490" d="m259.06991 464.65191c-.0562.45743-.16611 1.39295-.25741 2.2366 3.05918 2.08494 10.47358.99661 12.16295.37244.0145-.21757.41313-2.44158.37017-2.42707-1.42774.48211-8.82337 1.30716-12.27573-.18197z" style="display:inline;fill:#000;opacity:1;stroke-width:.50508618"/><path id="path8492" d="m260.16192 459.52112c-.0563.44782-.36976 1.34498-.46122 2.17092 3.43979 1.32986 10.52257.84466 12.46509.45821.0145-.213.50925-2.39731.46465-2.39483-2.43132.13505-9.01035.58713-12.46855-.2343z" style="display:inline;fill:#000;opacity:1;stroke-width:.50017822"/><path id="path8494" d="m261.8443 454.85739c-.13447.3371-.59003 1.56623-.69312 1.93682 3.48202 1.15106 9.8237.81005 12.01487.4164.0146-.20998-.14908-2.25824-.19345-2.2502-1.70515.30871-7.59508.52519-11.12832-.10302z" style="display:inline;fill:#000;opacity:1;stroke-width:.49801865"/><path id="path8496" d="m261.93003 455.29524c.011.32959.62627.22542.71523.21121 3.79724-7.00972 8.71689-1.83723 9.67402.12582.29057.18529.63832-.12719.63284-.17108-.6028-4.82804-8.21758-8.42533-11.02212-.16595z" style="display:inline;fill:#000;opacity:1;stroke-width:.45473111"/><path id="path8498" d="m263.45432 476.32913c-.36078.12708-.62026-.0581-1.02633-.0744-1.05727-7.3361 3.68032-23.6909 4.60867-24.92293.23439.10824 1.11402-.0841 1.01819.23153-.57839 1.90528-4.77908 13.42601-4.60053 24.76578z" style="display:inline;fill:#bababa;opacity:1;stroke-width:.49377617"/><path id="path8500" d="m258.75212 469.53474c-.0173.50555-.0168 1.14052-.0416 1.84867 3.02268 1.68262 10.02674.74974 11.69595.24601.0143-.17558.22817-1.97045.18571-1.95874-1.4107.38908-8.42894 1.06584-11.84011-.13594z" style="display:inline;fill:#bababa;opacity:1;stroke-width:.45103088"/><path id="path8502" d="m259.23812 465.02467c-.0555.36916-.16414 1.12416-.25434 1.80503 3.02268 1.68262 10.34861.8043 12.01782.30056.0143-.17558.4082-1.97045.36575-1.95873-1.41071.38908-8.71809 1.05492-12.12925-.14686z" style="display:inline;fill:#bababa;opacity:1;stroke-width:.45103088"/><path id="path8504" d="m260.33788 459.78572c-.0555.36916-.36473 1.10873-.45494 1.78959 3.39301 1.09626 10.37948.69629 12.29558.37772.0143-.17558.50232-1.97621.45833-1.97417-2.39826.11133-8.88782.484-12.29899-.19314z" style="display:inline;fill:#bababa;opacity:1;stroke-width:.45103088"/><path id="path8506" d="m262.06067 455.05526c-.13189.28188-.57875 1.30965-.67987 1.61954 3.41548.96249 9.63598.67735 11.78527.34819.0143-.17559-.14623-1.88831-.18975-1.88159-1.67257.25815-7.44995.43916-10.91567-.0861z" style="display:inline;fill:#bababa;opacity:1;stroke-width:.45103088"/><path id="path8508" d="m262.06411 455.06682c.0108.3197.61879.21865.70669.20486 3.75193-6.79935 8.61288-1.78208 9.5586.12206.28709.17972.63129-.12345.62528-.16596-.63873-4.51381-7.81766-7.79146-10.8906-.16096z" style="display:inline;fill:#bababa;opacity:1;stroke-width:.44517589"/><path id="path8510" d="m268.75593 477.83401c-.36079.12044-.62026-.055-1.02633-.0705.1463-6.79823 3.12482-21.86585 4.60866-23.61982.23439.10258.45936.9459.36354 1.24506-.57839 1.80566-3.3529 12.40819-3.94587 22.44524z" style="display:inline;fill:#bababa;opacity:1;stroke-width:.48069412"/><path id="path8512" d="m259.60576 475.47314c-.36079.12044-.24993-.055-.656-.0705-.5635-6.89082 1.67435-19.89074 4.79383-23.09518.23439.10257.34677.45525.17837.72042-.57839.91069-4.95767 9.13692-4.3162 22.44524z" style="display:inline;fill:#bababa;opacity:1;stroke-width:.48069412"/></svg>