<svg viewBox="0 0 560 1e3"><path d="m262.66941 403.62919c-2.0488-21.88659 4.8885-43.40269 12.7498-43.27594 6.54127.10546 11.17815 9.22529 10.21487 37.98304-1.97152-3.4866-19.74783-4.8608-22.96467 5.2929z" id="path4564" style="display:inline;fill-opacity:.31372549;fill:#464646;stroke-width:.97034371"/><path d="m284.17776 454.43111c.1057.2424.12195.74808.0983 1.31472-.041.98234-.20191 2.14787-.22461 2.44228-.43418 5.63179-.33638 10.67219-.6008 10.76924-4.85185 1.78082-18.63731.88797-20.47775-.14058.0145.17905-.31963-10.72428-.31963-10.72428 1.53086-17.53846 15.9927-4.11006 21.52449-3.66138z" id="path4566" style="display:inline;fill:#000"/><path d="m283.78001 453.72401c.28894.66262-.2673 3.69051-.30309 4.15474-.43415 5.63179-.71203 10.25235-.97645 10.3494-4.85185 1.78082-17.77552.84378-19.61596-.18438.0145.17905-.27544-9.90669-.27544-9.90669.0285-.40946.27349-2.83327.34525-3.136 2.58543-10.90745 19.98261 1.22277 20.82569-1.27707z" id="path4568" style="fill:#cd87de"/><path class="skin torso" d="m262.72209 403.46984c2.10052-23.74394 6.74279-43.89949 12.76574-43.46401 5.69621.41185 8.89066 17.00859 10.06592 38.24788-3.47347-2.07035-18.70738 3.3607-22.83166 5.21613z" id="path4570"/><path id="path4572" d="m348.52978 406.0731c.17594.29463.23456.36287.14343.43358-7.58199 5.88234-28.75619 14.08712-52.70049 35.19948-5.02209 4.42812-9.78222 12.38146-11.93318 15.75841-6.3214-4.1739-15.68468-12.43378-21.32063.12119-5.71087-5.7849-23.14966-35.87278-37.26395-43.78371.11113-.0316.41697-.90137.51991-1.06255.0911-.14259.27446.0925.40697.19488 8.62097 6.66128 28.54067 25.66388 34.074 30.5294 9.4967 8.35057 14.46863 4.85299 24.82235-1.55712 12.31913-7.62691 34.81663-23.48552 63.14221-35.95854z" style="display:inline;fill-opacity:1;fill-rule:evenodd;fill:#1a1a1a;opacity:1;stroke-dasharray:none;stroke-linecap:butt;stroke-linejoin:miter;stroke-miterlimit:4;stroke-opacity:1;stroke-width:0;stroke:#000"/></svg>