<svg viewBox="0 0 560 1e3"><path style="display:inline;fill-opacity:.00392157;fill-rule:evenodd;fill:#1a1a1a;opacity:1;stroke-dasharray:none;stroke-linecap:butt;stroke-linejoin:miter;stroke-miterlimit:4;stroke-opacity:0;stroke-width:3.09411693;stroke:#000" d="m346.23322 215.0979c-2.35682-3.946-20.29304-9.49697-17.17028-9.86339 12.01353.14677 19.74716 3.49883 22.44319 5.19753.76244-.48265 9.52002-2.65524 11.16322-2.39281.88463.40917 1.97576.97888 2.77215 1.4599 7.59857 2.37499 9.65426 3.42466 14.17072 7.69705 12.41792 12.68697 13.8299 42.24628 13.01614 73.42887-.24751 9.4842-1.45092 19.36856-2.92568 28.78654 2.06164-.73858 16.37511-6.18112 16.97743-6.66298.0.0 11.25038 8.26244 13.23915 10.2524-11.18206 14.2295-37.54957 29.12814-53.31806 19.70057-4.18048-10.58476-3.28483-22.47718-3.44377-44.98579-.16037-22.71147-5.44709-56.54728-16.92421-82.61789z" id="path5984-7"/><path style="display:inline;fill-opacity:1;fill-rule:evenodd;fill:#c8c8c8;opacity:1;stroke-dasharray:none;stroke-linecap:butt;stroke-linejoin:miter;stroke-miterlimit:4;stroke-opacity:0;stroke-width:3;stroke:#000" d="m347.79149 214.93549c-2.23963-3.9037-19.28401-9.39515-16.31653-9.75765 11.11544 1.56311 17.03176 3.74594 19.9791 5.44546 8.19188-2.2548 10.75169-2.26243 11.0806-2.34054.99284.41713 2.00331.98859 2.85785 1.49266 5.96673 1.75209 10.89288 3.76181 14.16556 7.2867 12.35736 14.91069 13.3544 43.13611 12.39358 73.4482-36e-5.0116-73e-5.0231-.001.0347-.28591 9.00657-1.18184 20.19697-2.81618 29.3392 4.54294-1.5252 20.67077-9.8245 23.17405-11.85211-4.93163-15.0551-8.47612-29.06798 6.49036-30.18097.75358-.0435.92325-23.89678 3.14597-23.8533 5.09062.0996 1.9877 23.70585 3.29347 23.65 4.21782-.18042 8.99602.36738 9.40339 4.96559 1.06366 12.00635-10.24821 36.96061-10.07279 37.41868-20.25342 20.02208-42.69649 30.8797-57.70113 22.39979-4.43117-11.9686-2.78897-24.06679-3.13475-45.77362-.35748-22.44143-5.03501-55.93167-15.94145-81.72279z" id="path5990-9"/><path id="path5115-8" d="m346.23322 215.0979c-2.35682-3.946-20.29304-9.49697-17.17028-9.86339 43.13972-4.74915 58.38087 12.77657 62.97639 39.58421-5.99504 4.32238-18.19268 11.12694-35.51958 13.72132-1.774-14.9141-4.50711-30.31401-10.28653-43.44214z" style="display:inline;fill-opacity:1;fill-rule:evenodd;fill:#000;stroke-dasharray:none;stroke-linecap:butt;stroke-linejoin:miter;stroke-miterlimit:4;stroke-opacity:0;stroke-width:3.09411693;stroke:#000"/><path id="path5117-9" d="m347.79149 214.93549c-2.23963-3.9037-19.28401-9.39515-16.31653-9.75765 41.56297-4.76337 55.87445 13.12453 60.02083 40.26804-5.28438 2.74352-19.18146 9.0828-33.98254 12.00212-1.68724-14.60929-4.28725-29.66119-9.72176-42.51251z" style="display:inline;fill-opacity:1;fill-rule:evenodd;fill:#333;stroke-dasharray:none;stroke-linecap:butt;stroke-linejoin:miter;stroke-miterlimit:4;stroke-opacity:0;stroke-width:3;stroke:#000"/><path id="path6411-2-9-7-9-9" d="m378.39556 214.25172c-9.81827 8.15464 4.2238 37.41175 7.27162 70.64535 22.048-12.33955 13.21213-76.86677 3.37072-81.48511-1.35258-.63476-5.16177 6.66636-10.64234 10.83976z" style="display:inline;fill-opacity:1;fill:#000;opacity:1;stroke-dasharray:none;stroke-linecap:butt;stroke-linejoin:miter;stroke-miterlimit:4;stroke-opacity:1;stroke-width:0;stroke:#000"/><path id="path6411-2-67-9-3" d="m380.4729 216.50231c-9.20331 7.68959 2.81748 35.16517 5.60536 66.4203 20.65551-11.64971 13.57454-72.31199 4.37426-76.63721-1.26449-.59445-4.84307 6.28064-9.97962 10.21691z" style="display:inline;fill-opacity:1;fill:#aca793;opacity:1;stroke-dasharray:none;stroke-linecap:butt;stroke-linejoin:miter;stroke-miterlimit:4;stroke-opacity:1;stroke-width:0;stroke:#000"/></svg>