<svg viewBox="0 0 560 1e3"><path style="display:inline;fill-opacity:1;fill-rule:evenodd;fill:#000;opacity:1;stroke-dasharray:none;stroke-linecap:butt;stroke-linejoin:miter;stroke-miterlimit:4;stroke-opacity:1;stroke-width:0;stroke:#000" d="m368.45236 268.83602c1.90346 38.00112-31.10333 76.4584-25.2815 111.6038-36.77086 9.58655-96.59778 12.99867-105.46954-7.23283 2.433-12.49684 1.05648-27.27371 3.07149-42.3437 3.11952-23.33051-3.08737-24.85092-4.11084-38.26328.40962-35.13389 30.30326-40.0847 52.38713-59.43686.97617-2.02088 2.05999-19.89061-11.85024-27.17009-.63873-.33426 5.12032-2.88169 9.64485-5.28403 9.24713 11.38115 25.18214 3.12903 31.26177-2.13928 1.50252 1.12706 9.10193 4.89722 7.88644 5.69617-25.72677 16.91039-30.9022 28.84774-29.45936 29.06832 3.13994 1.52155 66.54554 33.43249 67.65165 34.25705z" id="path3668"/><path style="display:inline;fill-opacity:1;fill-rule:evenodd;fill:#fff;opacity:1;stroke-dasharray:none;stroke-linecap:butt;stroke-linejoin:miter;stroke-miterlimit:4;stroke-opacity:1;stroke-width:0;stroke:#000" d="m368.47602 268.56519c-.82283 35.56451-25.28468 68.64115-27.21167 98.12959-.2322 4.28783 1.00045 9.35182 1.70473 13.58328-31.15729 6.94181-92.6775 12.28087-105.27987-7.02988 1.41111-4.24145 4.10254-39.81108 4.69553-44.76049 2.42309-20.22425-2.88507-21.32305-3.7741-33.86041-3.37265-53.10898 13.20074-79.76214 38.32548-88.64617.49229-.51848 5.43756-2.25669 9.91452-4.65903 9.14993 11.38115 24.91744 3.12903 30.93316-2.13928 1.48672 1.12706 18.23182 7.00546 18.7637 8.34782 2.58742.19199 9.57783.93138 12.62329 2.06534 30.8936 12.50306 20.3557 56.2984 19.30523 58.96923z" id="path3670"/></svg>