<svg viewBox="0 0 560 1e3"><path id="path3290" d="m283.36681 155.53041c-1.4353-1.6555-2.21939-.65792-2.52431-.13298-.0757.13034.0344 1.07529.0151.94326.33047-.82485 1.67017-.35221 2.5092-.81028z" style="display:inline;fill:#000;stroke-width:.34515575"/><path style="fill:#000;stroke-width:.22309987" d="m274.38663 152.06826c-.0973-1.26649 1.24864-2.72844 2.30968-4.61927 1.31385-2.18971 1.01312-3.76257 2.21469-5.61646-1.14363 2.28878-.71914 3.78604-1.85043 5.81715-1.00513 1.80017-2.33772 3.30886-2.25268 4.34504-.10724 1.38642 2.00671 3.1117 3.93065 3.72838.84188.26986 1.35141.68996.79987.65951-2.62264-.63096-5.1349-2.82574-5.15178-4.31435z" id="path3847"/><path style="display:inline;fill:#000;stroke-width:.18142612" d="m286.17062 154.72593c.39995-.49865.60204-1.23395.64008-1.13747.038.0966-.0392.94194-.47719 1.34411l-.89008.69997z" id="path7178-0"/></svg>