<svg viewBox="0 0 560 1e3"><path d="m276.72125 132.68746c-.17524 2.25655-.88804 3.44018-1.81078 4.03774-1.54533 1.00075-3.67948.35775-4.86365.35774-1.704-.29307-3.13435-.86737-3.8262-1.92851-1.40399-2.15341-1.39553-4.7862-1.06684-6.81072.0-.5981 6.43935.22954 8.33054.22953 1.89125-2e-5 3.23693 1.4536 3.23693 4.11422z" id="path6897-7-8-1" class="sclera"/><path style="display:inline;fill:#000;stroke-width:.1622853" d="m266.32747 135.14267c.35331.32664.95888 1.0174 1.83455 1.33786l.66604.24373-.32735-.43163c-.18003-.2374-.42779-.77468-.55056-1.19396-.3402-1.96815-.0475.33603-.50211-4.82341-.076-.84672-.0524-1.36781.0733-1.61145.0606-.28164-.40956-.1726-.49867-.1726h-1.74697l-.10618.88106c-.0583.48459-.0218 1.4578.0811 2.16271-.004 1.31161.51808 2.46017 1.07685 3.60769zm-1.46407-2.78847c-.0581-.24054-.27179-.66889-.47463-.9519-.20283-.28301-.66867-1.11934-1.03518-1.85851-.56435-1.13814-.79081-1.42416-1.47892-1.86782-1.36026-.87704-1.12144-.92168 4.86032-.90847 6.06813.0139 8.69925 1.20987 10.56126 1.94556.0627.34147.77776 2.28066 1.70745 2.98367.0543.70956-1.72077-.26118-2.12761-.76768-.27852-.0405-.0484.0686-.14505.20551.21604.81019.18833 2.24916-.062 3.22399-.61054 2.37644-1.58226 3.06439-4.30495 3.04777-.88762-.006-.9576.0409-1.37773-.0308-1.03327-.1-1.96226.21124-2.29344.54481.009-.37948.0879-.55743.29071-.82629-.10607-79e-5-.37897-.14-.65437-.26837-.0748-.0349-1.72372.4017-1.97372.67037-.26246-.38519 1.00855-1.06265.91385-1.10398-.26324-.11489-.15857-.0547-.27697-.0547-.43609-.0554-2.13104.8035-2.35204.94052-.1697-.3489 1.30921-1.30839 1.65445-1.7678-.63082-1.05617-1.18678-2.23162-1.43143-3.15588z" id="path6895"/><path d="m273.99736 137.0876c1.17765-.3405 1.99952-1.993 2.14752-4.31784.12427-1.95316.004-2.40698-.80988-3.04784-.80226-.63192-2.85428-1.0355-5.23866-1.33033-1.70016-.21021-1.85828-.24917-2.13985.1322-.22047.29863-.21639.70561-.19411 1.61477.11079 2.51181-.0641 2.09945.45123 5.01619.27594.90394.81443 1.64685 1.36992 1.81348.6865.20594 3.73183.31658 4.41388.11936z" id="path6893" class="eye"/><path d="m309.88623 130.78617c-.17524 2.24868-.004 5.89444-3.09241 6.62204-2.32534.5704-9.73008.95663-10.94375-.11197-2.15529-.73662-4.35654-3.62447-4.02785-5.64193.0-.59602 11.65426-2.36963 13.54545-2.36964 1.89125-3e-5 4.51856-1.14984 4.51856 1.5015z" id="path6897-7-8-1-0" class="sclera"/><path style="display:inline;fill:#000;stroke-width:.1622853" d="m297.54958 137.73868c-.7971-.34694-1.44924-1.37071-1.45216-2.39653-.0975-1.09796-.0777-2.09384-.0797-3.02545v-1.75843c-1.77539.38109-.89546-.10268-2.50433.6527-.57154.27108-.74554.32743-1.32679.48761.43307 5.22618 3.17437 4.93535 5.36297 6.0401zm11.64376-7.48858c-.16309-.21442-3.15772-.64881-3.15746-.47538 5e-5.0283.14289.44115.31743.91748.65855 1.79716.5299 5.23343-.59844 6.45997 2.94689-.39974 4.52134-4.50457 3.43847-6.90207zm-1.49163 7.02527c.4248.73091 1.34143 1.08141 1.46191 2.19273-.38977-.25519-2.06053-1.5297-2.57744-1.46377.31882.30094.69381 1.48661.54309 1.48638-.89019-.57546-.65665-.68024-1.76696-1.18633-.18579-.16975-1.62954.0449-1.9025-49e-5-.23093-.0385.23369.51068.23135 1.23406-.24951.007-1.36094-1.15382-1.7094-1.14107-1.19399.0437-2.0629-.0876-3.72004-.26679-3.19094-.34508-6.43686-1.68728-6.64277-6.27547-.6887.14887-1.16698.22202-1.50085.13146v-4e-5c-.42507-.11526-.42031-.38035.007-.38035.45562.0 1.90674-1.57626 2.28904-2.48643.17014-.40505.32102-.75697.33526-.78205.21818-.38381 9.3924-.97377 16.48364-1.06001l4.22272-.0513-.0297.45326c-.0429.65162-1.91314 4.60543-3.08123 6.51388-.8562 1.14621-1.4307 2.59589-2.64312 3.08233z" id="path6891"/><path d="m302.57137 137.93233c1.98145-.22417 2.68481-.5761 3.25971-1.63093.66446-1.2192.63134-3.8312-.0763-6.01832l-.21609-.66779-3.09099.0989c-1.70005.0544-3.65471.14135-4.34375.19315-.74931.0563-1.36984.14387-1.5646.43589-.17339.25996-.0684.77081-.062 1.5798-.0261 1.88528.003 2.02379.19534 4.55601.91866 1.5007 2.33925 1.87001 3.59942 1.71738.27965-.0338 1.31439-.15277 2.2994-.26419z" id="path6889" class="eye"/><path style="display:inline;fill:#000;stroke-width:.1622853" d="m275.1324 126.99427c-.39437-.15583-1.27278-.42079-1.95201-.5888-1.43596-.35519-1.64535-.65423-.34729-.49598 1.15591.1409 3.36536 1.07975 3.08541 1.31106-.038.0314-.39172-.0705-.78611-.22628z" id="path6887"/><path style="display:inline;fill:#000;stroke-width:.1622853" d="m292.82062 127.12771c31e-5-.1136.14196-.44705.31471-.74096.17278-.29391.27517-.63974.22752-.76851-.0581-.15738.0867-.2895.44217-.403.61012-.19483 6.7987-.36937 6.9028-.19469.0859.14436-2.33939.33044-4.30703.33044-2.19008.0-2.32443.0501-2.92356 1.08899-.52755.91482-.65766 1.05111-.65661.68773z" id="path6885"/><path style="display:inline;fill:#000;stroke-width:.1622853" d="m263.5578 125.71827c.0577-.0968.58818-.22131 1.17884-.27661.59065-.0553 1.45037-.14086 1.91048-.19015.48647-.0521.83659-.0234.83659.0685.0.157-.58834.25276-2.852.4642-.81797.0764-1.14671.0562-1.07391-.066z" id="path6883"/><path style="display:inline;fill:#000;stroke-width:.1622853" d="m306.20525 125.1985c-.57907-.0534-.92209-.14411-.77795-.20582.31582-.13523 6.31432.0957 6.4619.2487.12383.12843-4.17593.0961-5.68395-.0429z" id="path6847"/><path style="fill-opacity:1;fill-rule:nonzero;fill:#000;opacity:1;stroke-dasharray:none;stroke-dashoffset:0;stroke-linecap:round;stroke-linejoin:bevel;stroke-miterlimit:4;stroke-opacity:1;stroke-width:0;stroke:#000;vector-effect:none" d="m276.31944 131.08996c0 1.59547.20611 4.32837-4.10196 4.46551-4.12321-.18795-3.6997-7.25523.32686-7.18219 1.20962.0 3.7751 1.12122 3.7751 2.71668z" id="path6897"/><path style="display:inline;fill-opacity:1;fill-rule:nonzero;fill:#000;opacity:1;stroke-dasharray:none;stroke-dashoffset:0;stroke-linecap:round;stroke-linejoin:bevel;stroke-miterlimit:4;stroke-opacity:1;stroke-width:0;stroke:#000;vector-effect:none" d="m300.42082 136.74233c-3.13593-.39423-2.68332-4.20285-2.68332-5.90213 2.02864-2.19911 6.48372-2.61261 7.13873 1.22536.71689 2.41801-1.10304 5.45498-4.45541 4.67677z" id="path6897-4"/><path style="display:inline;fill-opacity:1;fill-rule:nonzero;fill:#fff;opacity:1;stroke-dasharray:none;stroke-dashoffset:0;stroke-linecap:round;stroke-linejoin:bevel;stroke-miterlimit:4;stroke-opacity:1;stroke-width:0;stroke:#000;vector-effect:none" d="m273.62865 134.96547c.21737-.50754 1.45241-2.17187 1.65945-2.08319.20707.0887.19867.57199-.0187 1.07953-.33031 1.18034-1.63908 1.00338-1.64075 1.00366z" id="path6897-7"/><path style="display:inline;fill-opacity:1;fill-rule:nonzero;fill:#fff;opacity:1;stroke-dasharray:none;stroke-dashoffset:0;stroke-linecap:round;stroke-linejoin:bevel;stroke-miterlimit:4;stroke-opacity:1;stroke-width:0;stroke:#000;vector-effect:none" d="m269.51092 130.65979c-.19081.36936-.96822.95828-1.12519.87718-.15696-.0811-.12952-.44625.0613-.81561.19081-.36934 1.32711-1.65297 1.48408-1.57189.15697.0811-.22936 1.14096-.42018 1.51032z" id="path6897-7-8"/><path style="display:inline;fill-opacity:1;fill-rule:nonzero;fill:#fff;opacity:1;stroke-dasharray:none;stroke-dashoffset:0;stroke-linecap:round;stroke-linejoin:bevel;stroke-miterlimit:4;stroke-opacity:1;stroke-width:0;stroke:#000;vector-effect:none" d="m298.56726 131.86975c-.17106.26392-1.06959 1.4147-1.28756 1.27341-.21787-.14121-.4226-1.49832-.25155-1.76222.17104-.2639 2.07248-1.29761 2.29037-1.15638.21787.1412-.58022 1.3813-.75126 1.64519z" id="path6897-7-7"/><path style="display:inline;fill-opacity:1;fill-rule:nonzero;fill:#fff;opacity:1;stroke-dasharray:none;stroke-dashoffset:0;stroke-linecap:round;stroke-linejoin:bevel;stroke-miterlimit:4;stroke-opacity:1;stroke-width:0;stroke:#000;vector-effect:none" d="m305.14903 133.90272c0 .34173-.54956 1.61282-.83581 1.6128-.28624.0-.51828-.27701-.51828-.61874.0-.34172.23204-1.8116.51828-1.8116.28624-2e-5.83581.47581.83581.81754z" id="path6897-7-83-1"/></svg>