<svg viewBox="0 0 560 1e3"><path id="path2710" d="m290.14844 121.63529c-.2823.55176-1.35966 4.05192-.70508 4.97626 2.33617-1.51027 12.86948-5.74759 16.3254-6.20461.75808-.15287 8.31293 5.06637 7.73312 4.31764-.28278-.36516-3.75707-5.47482-7.34451-6.95177-4.56178 1.60931-12.97098 2.31704-16.00893 3.86248z" class="eyebrow_hair"/><path id="path2712" d="m277.24499 121.73594c.18157.55175.8745 4.05191.45349 4.97625-1.332-1.2009-8.55568-5.54807-10.77844-6.00509-.0391-.0117-.10867.0152-.20291.0758-1.07857.69308-4.14018 3.75429-4.4924 4.04236-.22939.18759 2.25287-5.08023 4.4604-6.76671.0875-.067.17537-.12869.26338-.18506 2.934 1.60931 8.34256 2.31704 10.29648 3.86248z" class="eyebrow_hair"/></svg>