<svg viewBox="0 0 560 1e3"><defs id="defs4360"><linearGradient id="linearGradient1767" osb:paint="solid"><stop style="stop-color:#969696;stop-opacity:1" offset="0" id="stop1765"/></linearGradient><filter style="color-interpolation-filters:sRGB" id="Filter_Shine_Blur" width="4" x="-2" height="4" y="-2"><feGaussianBlur stdDeviation="1.5 1.5" result="blur" id="feGaussianBlur4091-3"/></filter><pattern y="0" x="0" height="6" width="6" patternUnits="userSpaceOnUse" id="EMFhbasepattern"/><filter y="-2" height="4" x="-2" width="4" id="Filter_Shine_Blur-1" style="color-interpolation-filters:sRGB"><feGaussianBlur id="feGaussianBlur4091-3-4" result="blur" stdDeviation="1.5 1.5"/></filter><filter y="-2" height="4" x="-2" width="4" id="Filter_Shine_Blur-5" style="color-interpolation-filters:sRGB"><feGaussianBlur id="feGaussianBlur4091-3-9" result="blur" stdDeviation="1.5 1.5"/></filter><filter y="-2" height="4" x="-2" width="4" id="Filter_Shine_Blur-51" style="color-interpolation-filters:sRGB"><feGaussianBlur id="feGaussianBlur4091-3-91" result="blur" stdDeviation="1.5 1.5"/></filter><filter y="-2" height="4" x="-2" width="4" id="Filter_Shine_Blur-9" style="color-interpolation-filters:sRGB"><feGaussianBlur id="feGaussianBlur4091-3-90" result="blur" stdDeviation="1.5 1.5"/></filter><filter style="color-interpolation-filters:sRGB" id="Filter_Shine_Blur-11" width="4" x="-2" height="4" y="-2"><feGaussianBlur stdDeviation="1.5 1.5" result="blur" id="feGaussianBlur4091-3-40"/></filter><filter style="color-interpolation-filters:sRGB" id="filter2732" width="4" x="-2" height="4" y="-2"><feGaussianBlur stdDeviation="1.5 1.5" result="blur" id="feGaussianBlur2730"/></filter><filter style="color-interpolation-filters:sRGB" id="Filter_Shine_Blur-7" width="4" x="-2" height="4" y="-2"><feGaussianBlur stdDeviation="1.5 1.5" result="blur" id="feGaussianBlur4091-3-904"/></filter><filter style="color-interpolation-filters:sRGB" id="filter2766" width="4" x="-2" height="4" y="-2"><feGaussianBlur stdDeviation="1.5 1.5" result="blur" id="feGaussianBlur2764"/></filter><filter style="color-interpolation-filters:sRGB" id="Filter_Shine_Blur-3" width="4" x="-2" height="4" y="-2"><feGaussianBlur stdDeviation="1.5 1.5" result="blur" id="feGaussianBlur4091-3-5"/></filter><filter style="color-interpolation-filters:sRGB" id="filter2800" width="4" x="-2" height="4" y="-2"><feGaussianBlur stdDeviation="1.5 1.5" result="blur" id="feGaussianBlur2798"/></filter><filter style="color-interpolation-filters:sRGB" id="Filter_Shine_Blur-92" width="4" x="-2" height="4" y="-2"><feGaussianBlur stdDeviation="1.5 1.5" result="blur" id="feGaussianBlur4091-3-915"/></filter><filter style="color-interpolation-filters:sRGB" id="Filter_Shine_Blur-93" width="4" x="-2" height="4" y="-2"><feGaussianBlur stdDeviation="1.5 1.5" result="blur" id="feGaussianBlur4091-3-46"/></filter><filter style="color-interpolation-filters:sRGB" id="Filter_Shine_Blur-16" width="4" x="-2" height="4" y="-2"><feGaussianBlur stdDeviation="1.5 1.5" result="blur" id="feGaussianBlur4091-3-6"/></filter><filter style="color-interpolation-filters:sRGB" id="Filter_Shine_Blur-96" width="4" x="-2" height="4" y="-2"><feGaussianBlur stdDeviation="1.5 1.5" result="blur" id="feGaussianBlur4091-3-43"/></filter><filter style="color-interpolation-filters:sRGB" id="Filter_Shine_Blur-36" width="4" x="-2" height="4" y="-2"><feGaussianBlur stdDeviation="1.5 1.5" result="blur" id="feGaussianBlur4091-3-65"/></filter><filter style="color-interpolation-filters:sRGB" id="Filter_Shine_Blur-36-5" width="4" x="-2" height="4" y="-2"><feGaussianBlur stdDeviation="1.5 1.5" result="blur" id="feGaussianBlur4091-3-65-8"/></filter><filter style="color-interpolation-filters:sRGB" id="Filter_Shine_Blur-36-5-9" width="4" x="-2" height="4" y="-2"><feGaussianBlur stdDeviation="1.5 1.5" result="blur" id="feGaussianBlur4091-3-65-8-4"/></filter><filter style="color-interpolation-filters:sRGB" id="Filter_Shine_Blur-16-5" width="4" x="-2" height="4" y="-2"><feGaussianBlur stdDeviation="1.5 1.5" result="blur" id="feGaussianBlur4091-3-6-1"/></filter><filter style="color-interpolation-filters:sRGB" id="Filter_Shine_Blur-16-5-5" width="4" x="-2" height="4" y="-2"><feGaussianBlur stdDeviation="1.5 1.5" result="blur" id="feGaussianBlur4091-3-6-1-9"/></filter><filter style="color-interpolation-filters:sRGB" id="Filter_Shine_Blur-16-5-5-3" width="4" x="-2" height="4" y="-2"><feGaussianBlur stdDeviation="1.5 1.5" result="blur" id="feGaussianBlur4091-3-6-1-9-3"/></filter><filter style="color-interpolation-filters:sRGB" id="Filter_Shine_Blur-77" width="4" x="-2" height="4" y="-2"><feGaussianBlur stdDeviation="1.5 1.5" result="blur" id="feGaussianBlur4091-3-94"/></filter><filter style="color-interpolation-filters:sRGB" id="Filter_Shine_Blur-77-8" width="4" x="-2" height="4" y="-2"><feGaussianBlur stdDeviation="1.5 1.5" result="blur" id="feGaussianBlur4091-3-94-4"/></filter><filter style="color-interpolation-filters:sRGB" id="Filter_Shine_Blur-77-8-3" width="4" x="-2" height="4" y="-2"><feGaussianBlur stdDeviation="1.5 1.5" result="blur" id="feGaussianBlur4091-3-94-4-8"/></filter></defs><path id="path2852" d="m364.40926 291.38344c-1.04657 4.23033-2.33446 9.11393-3.90824 14.70144-4.54325 16.13025-10.12644 23.38172-17.08678 34.7393-18.83302 27.12305-8.65054 33.08195-2.11717 52.01406-39.63585 8.44961-66.82645 11.36803-68.08127 9.44986-1.64009.741-39.94366-4.42497-41.2515-6.7613 7.88498-17.78649 12.96746-43.00285 10.9764-77.23211-.10903-.84586-4.14283-11.7431-5.92518-28.16955 23.34027 3.83019 83.07407 6.32881 127.39374 1.2583z" style="display:inline;fill-opacity:1;fill-rule:evenodd;fill:#000;opacity:1;stroke-dasharray:none;stroke-linecap:butt;stroke-linejoin:miter;stroke-miterlimit:4;stroke-opacity:1;stroke-width:0;stroke:#000"/><path id="path2854" d="m363.35896 292.40219c-1.21542 4.86392-2.63518 10.04122-4.25444 15.12784-3.58791 11.27077-13.64208 26.00843-15.88594 30.01703-1.56731 2.79998-13.53859 20.06421-12.34178 30.40293 1.81089 15.64347 9.94237 21.03151 11.71987 26.27185 1.40254 1.90805 4.4197 7.29784 7.43331 11.15298 16.17145 20.68722 18.17857 46.63317 18.57219 51.12829-5.60223 1.84008-49.27936-.17302-50.67679-.9787-43.56877-25.11948-46.04206-35.72251-46.04206-35.72251-2.31489.27292-.74581 8.3089-40.18051 34.82975.0.0-13.5613.20574-14.20896-.26182-.52052-30.98964 14.16413-57.52673 14.1926-58.12059 8.69383-19.49647 9.16566-28.07394 10.60172-33.13448 5.17717-18.24376 1.92316-40.73168 1.51078-45.94078-.30148-3.80824-4.82961-14.60553-5.71864-27.14289 22.02028 6.4806 103.09864 7.65575 125.27865 2.3711z" style="display:inline;fill-opacity:1;fill-rule:evenodd;fill:#333;opacity:1;stroke-dasharray:none;stroke-linecap:butt;stroke-linejoin:miter;stroke-miterlimit:4;stroke-opacity:1;stroke-width:0;stroke:#000"/><path id="path2856" d="m271.82541 419.82176c-2.9499-1.34837 3.10804-84.36657 9.72826-124.86073.044-.26935.0881-.53681.13217-.80236 1.87967.12725.6427.1991 2.36089.0841-.0634.38215-.12639.76442-.1891 1.14677-9.99792 60.95414-11.89037 124.23833-12.03222 124.43221z" style="display:inline;fill-opacity:1;fill:#000"/><path id="path2858" d="m277.26367 407.09589c0 .86028-3.76472 3.3125-6.25 3.3125l.28125-6.65625c2.48528.0 5.96875 2.60847 5.96875 3.34375z" style="display:inline;fill:#000"/><path id="path2860" d="m277.90626 391.4531c0 .86028-3.76472 3.3125-6.25 3.3125l.28125-6.65625c2.48528.0 5.96875 2.60847 5.96875 3.34375z" style="display:inline;fill:#000"/><path id="path2862" d="m279.12501 376.4531c0 .86028-4.04597 3-6.53125 3l.46875-6.65625c2.48528.0 6.0625 2.92097 6.0625 3.65625z" style="display:inline;fill:#000"/><path id="path2864" d="m280.18751 363.2656c0 .86028-4.20222 2.6875-6.6875 2.6875l.59375-6.65625c2.48528.0 6.09375 3.23347 6.09375 3.96875z" style="display:inline;fill:#000"/><path id="path2866" d="m281.25001 348.5781c0 .86028-3.95222 2.875-6.4375 2.875l.625-6.59375c2.48528.0 5.8125 2.98347 5.8125 3.71875z" style="display:inline;fill:#000"/><path id="path2868" d="m283.00001 332.92185c0 .86028-4.13972 2.65625-6.625 2.65625l.6875-6.59375c2.48528.0 5.9375 3.20222 5.9375 3.9375z" style="display:inline;fill:#000"/><path id="path2870" d="m284.7206 318.33666c0 .86028-4.29597 2.28125-6.78125 2.28125l.8125-6.5c2.48528.0 5.96875 3.48347 5.96875 4.21875z" style="display:inline;fill:#000"/><path id="path2872" d="m286.3358 302.31061c0 .86028-3.98347 3-6.46875 3l.9375-6.3125c2.48528.0 5.53125 2.57722 5.53125 3.3125z" style="display:inline;fill:#000"/><path id="path2878" d="m277.18902 406.27379c0 .86028-3.76472 3.3125-6.25 3.3125l.28125-6.65625c2.48528.0 5.96875 2.60847 5.96875 3.34375z" style="display:inline;fill:#787878"/><path id="path2880" d="m277.83161 390.631c0 .86028-3.76472 3.3125-6.25 3.3125l.28125-6.65625c2.48528.0 5.96875 2.60847 5.96875 3.34375z" style="display:inline;fill:#787878"/><path id="path2882" d="m279.05036 375.631c0 .86028-4.04597 3-6.53125 3l.46875-6.65625c2.48528.0 6.0625 2.92097 6.0625 3.65625z" style="display:inline;fill:#787878"/><path id="path2884" d="m280.11286 362.4435c0 .86028-4.20222 2.6875-6.6875 2.6875l.59375-6.65625c2.48528.0 6.09375 3.23347 6.09375 3.96875z" style="display:inline;fill:#787878"/><path id="path2886" d="m281.17536 347.756c0 .86028-3.95222 2.875-6.4375 2.875l.625-6.59375c2.48528.0 5.8125 2.98347 5.8125 3.71875z" style="display:inline;fill:#787878"/><path id="path2888" d="m282.92536 332.09975c0 .86028-4.13972 2.65625-6.625 2.65625l.6875-6.59375c2.48528.0 5.9375 3.20222 5.9375 3.9375z" style="display:inline;fill:#787878"/><path id="path2890" d="m284.64595 317.51456c0 .86028-4.29597 2.28125-6.78125 2.28125l.8125-6.5c2.48528.0 5.96875 3.48347 5.96875 4.21875z" style="display:inline;fill:#787878"/><path id="path2892" d="m286.26115 301.48851c0 .86028-3.98347 3-6.46875 3l.9375-6.3125c2.48528.0 5.53125 2.57722 5.53125 3.3125z" style="display:inline;fill:#787878"/><path style="display:inline;fill:#000;stroke-width:1.02941978" d="m329.36031 205.9463c-25.7741 23.51909-61.67786 5.88391-49.74999-1.41485 4.74048-2.90073 10.95488-5.83765 12.44532-10.45069 1.84657 1.29127 15.45983 1.10207 22.47476.45873 3.01579 4.17869 5.65037 8.23189 14.82991 11.40681z" id="path2942-4-6"/><path id="path2894" d="m314.59488 194.60935c.29213-.0359 2.8391 8.07872 14.85382 11.32872-25.34363 22.57098-61.40082 5.73189-49.67217-1.27263 4.6613-2.7838 10.60875-6.06922 12.07429-10.4963 1.42462 1.28163 15.70147 1.30543 22.74406.44021z" style="display:inline;fill:#787878"/><path id="path2896" d="m299.95201 197.81221c.14641.0141-.42473 3.31239-.28871 3.73225.0.0-.24136.15652 3.61361.58215-.0356.10412-.36289 3.32455-.38037 3.51569-1.23077-.11931-2.50951-.15831-3.58769-.27608.0.0-1.57706 9.12041-1.57407 9.0974.0.0-2.72206-.21537-2.69855-.42733.044-.3781.84627-8.36358.74035-8.8459-.0594-.27256-3.09732-.70092-3.0913-.95022.009-.3533.46259-2.85588.43082-3.15377.13756-.11999 2.86739.44558 2.94484.0385.31835-1.67308.44549-3.3201.56082-3.63272z" style="display:inline;fill-rule:nonzero;fill:#000;stroke-width:3.5649364"/><path id="path4027-70-6-7" d="m325.39146 379.50769c4.22284 7.09969 13.30704 21.13279 19.66871 31.59093-12.96362-6.10053-18.5743-22.88972-19.66871-31.59093z" style="display:inline;fill-rule:evenodd;fill:#fff;filter:url(#Filter_Shine_Blur-93);stroke-dasharray:none;stroke-linecap:butt;stroke-linejoin:miter;stroke-miterlimit:4;stroke-opacity:0;stroke-width:3;stroke:#000"/></svg>