<svg viewBox="0 0 560 1e3"><g data-transform="boob" transform="matrix(1.1247504,0,0,1.1247504,-26.347241,-34.609528)" id="g4683" class="scaler_"><path d="m272.73367 259.52942c-1.36735 3.26621-3.46116 6.42111-2.39092 12.94627 1.83647 8.16488 6.94853 14.47073 13.3338 17.64542 10.04423 4.99389 23.27331 3.62273 32.00152-1.35019 14.24159-8.46859 19.00686-29.49472.12112-46.95807-1.24033-1.44425-2.4413-2.70187-3.54079-3.8753-.36194-.36533-.83711-.69814-1.41789-.98568-.3692-.18279-11.80696-8.63054-12.00962-8.20135-.47009 1.09274-16.38912 18.07184-26.09722 30.7789z" id="path4663" style="fill-opacity:1;fill:#010101"/><path d="m270.97886 272.16426c.12718.41876 1.25999 5.86724 4.85869 10.52823 2.123 2.74967 5.09638 5.02083 8.21123 6.75234.11303.0438.22593.0871.33871.12991 34.5912 13.12294 57.55039-22.51578 31.08151-47.52065-1.21885-1.39111-4.20568-5.32709-4.35427-5.6611-.6987-2.75664-5.28298-7.15561-11.46737-7.54729-6.28084 11.5653-32.03113 29.83779-28.6685 43.31856z" id="path4673" style="fill-opacity:1;fill:#c8c8c8"/><path id="path4675" class="shadow" d="m270.33492 269.98618c-.16754 2.01348.47911 3.25262.89408 5.36257-.66799-1.59942-1.31544-3.72955-.89408-5.36257z"/></g></svg>