<svg viewBox="0 0 560 1e3"><path id="path7882" d="m216.02104 430.77435c.30335-.12599.79454.0231 1.07615-.10515 5.23904-2.38545 13.01609-4.68027 12.69524-7.17468-.49985-3.88595-11.68988-7.54283-13.72359-7.28705-9.01129 3.16012-5.54487 12.09421-2.60884 12.58656.0421.0305.35052.78358 2.56102 1.98032z" style="fill:#000"/><path id="path7884" d="m215.49133 430.2269c.33299.19938.63571.3419.92307.43644 1.42348.46831 2.46982-.2407 4.94954-1.04624 4.24051-1.37754 8.51499-5.95586 8.48424-7.39814-.73019-2.07234-1.33269-4.73751-4.33712-5.60574-2.76643-.79945-7.89209.0995-9.79697.47025-6.20888 2.4143-6.26603 7.30115-3.25661 11.02184.29502.22651 2.53814 2.23231 3.03385 2.12159z" style="fill-opacity:1;fill:#daa595"/><path id="path7886" d="m244.72664 451.3635c12.58975 3.50784 25.27624 7.57227 29.62629-3.33063 1.34238-3.77013.4805-6.4377-2.20813-7.41574-11.09916-3.46408-35.03158-13.51887-41.93339-20.01059-.95291-1.45894-1.07383-1.79415-2.04315-2.79547-2.05503-2.12285-4.72813-1.65623-6.88729-1.53806-1.30119.0712-4.36545-.42289-5.40993-.007-.87738.34944-1.31208.72012-1.81126 1.35248-.1552.19657 1.00401-.49539 1.14222-.51338 9.87726-1.28591 12.58031-.0274 13.77724 3.10109.30288.79164.42362 1.98437-.0244 2.71978-.91499 1.50205-3.26555 3.64481-5.97254 5.16068-1.78111.99739-3.63211 1.6283-6.08028 2.40987-1.3334.42568-5.24957-3.48097-5.2143-3.34388.22576.87755 1.73284 2.25898 3.059 3.14295.79185.52782 1.6928.72527 2.01363 1.29182 3.8568 6.81066 12.36018 14.28876 27.96626 19.77585z" style="fill:#000"/><path id="path7888" d="m212.49724 424.73594c.0682.49985.6843 1.51303 1.35077 1.69563-.006-.0247-.16385-.88733-.17022-.91355-.2156-.88578-1.16957-3.49361.38681-6.42055-1.56572 1.77216-1.84827 3.52682-1.56736 5.63847z" style="fill:#000"/><path id="path7890" class="skin penis" d="m245.24103 450.52475c12.39475 3.45352 24.30588 8.20871 29.15618-2.49599 1.32159-3.71174 1.23891-5.82315-1.40809-6.78605-11.28224-2.70293-35.54206-13.33793-42.84774-19.75459-2.69887 6.44221-10.20519 8.78929-13.25723 9.41257 3.79706 6.70517 12.99248 14.22192 28.35685 19.62401z"/></svg>