<svg viewBox="0 0 560 1e3"><path d="m273.08488 510.88005c-.0674 2.84546-3.62569 6.19599-7.19683 7.35328-2.06442.669-4.42988.36398-5.90941.33909-2.37334-.0399-5.76321-3.14706-6.1645-4.27934.61262-4.87524 10.13918-9.67048 19.27074-3.41303z" id="path7161" style="fill:#000"/><path d="m271.92815 511.0411c-.0629 2.65796-3.05543 5.25031-6.38243 6.33131-1.92333.62494-4.1271.34002-5.50549.31675-2.21109-.0373-4.93934-2.40225-5.31321-3.45994.57073-4.55399 8.69377-9.03322 17.20113-3.18812z" id="path7163" class="areola"/><path d="m256.49063 447.28312c5.6641-10.633 25.90926-17.59675 27.83942 6.80187.63962 1.37323-.86305 7.54147-2.66944 15.29906-2.06871 7.57374-3.70891 16.18444-4.51364 24.76426-.63026 6.71959-.81541 13.30566-4.96305 17.50775-2.95 2.50612-7.72834 3.41211-11.7884 3.34971-2.38577-.0367-6.55959-.14527-7.291-.7122-2.91115-2.25655-4.56452-4.5229-6.9839-7.8253-.30201-1.45632.32526-2.18314.19413-2.73507-1.64979-6.94361-1.14247-17.35731.98593-28.96965 1.82539-9.95899 4.94658-20.01321 9.18995-27.48043z" id="path7165" style="fill:#000"/><path class="skin penis" d="m257.52137 445.20661c5.13653-10.86924 23.49595-17.98772 25.24631 6.95297.58008 1.40376-.78265 7.70902-2.42077 15.63895-1.87603 7.74203-4.06454 16.39993-4.79434 25.17038-.57155 6.86888-.73943 13.60131-4.50072 17.89672-2.67526 2.56181-6.45613 3.37731-10.13803 3.31354-2.16357-.0376-6.5796-.005-7.2429-.58393-2.63998-2.30666-3.99063-4.36866-6.18466-7.74444-.31916-.96849.29498-2.23166.17605-2.79588-1.49613-7.09787-.40504-17.88702 1.5251-29.75736 1.65535-10.18023 4.48581-20.45783 8.33396-28.09095z" id="path7167"/></svg>