<svg viewBox="0 0 560 1e3"><path style="display:inline;fill-opacity:1;fill-rule:evenodd;fill:#917c6f;opacity:1;stroke-dasharray:none;stroke-linecap:butt;stroke-linejoin:miter;stroke-miterlimit:4;stroke-opacity:1;stroke-width:0;stroke:#000" d="m298.46108 438.89935c-6.48422 6.26583-11.19704 12.82415-15.33516 19.44716-1.04023 1.75909-1.92047 7.35117-4.50173 9.70959-.97785.89343-3.70051-.0277-4.03805.0431-.91345.19159-2.09488.29968-2.84109.24274-1.3589-.10369-3.10427-.97079-4.62926-2.64607-1.15035-1.26373-2.1753-2.98733-2.81436-5.19001-3.99405-5.27747-10.5589-14.66641-17.49018-23.90539 4.48963 1.85597 9.35646 2.79339 14.73041 2.73225 1.76498-.0201 3.58467-.14788 5.46366-.38622 9.80224 3.87793 21.03947 2.36746 31.45576-.0471z" id="path5174"/><path style="display:inline;fill-opacity:1;fill-rule:evenodd;fill:#000;opacity:1;stroke-dasharray:none;stroke-linecap:butt;stroke-linejoin:miter;stroke-miterlimit:4;stroke-opacity:1;stroke-width:0;stroke:#000" d="m282.94456 458.76549c-.0483.15247-.11284.47208-.19954.90622-.41277 2.06685-1.81439 6.53069-3.87757 8.11265-.26921.20642-1.13559 1.14752-4.57861.28177-.17398-.0437-2.18026 1.1699-4.2783.12449-4.65827-2.32112-6.22252-8.10904-6.31915-8.53686 3.82592 9.08132 8.89939 9.3147 10.40315 7.55401 5.26837 2.79873 7.50839-4.81217 8.85002-8.44228z" id="path5176"/><path style="display:inline;fill-opacity:1;fill-rule:evenodd;fill:#000;opacity:1;stroke-dasharray:none;stroke-linecap:butt;stroke-linejoin:miter;stroke-miterlimit:4;stroke-opacity:1;stroke-width:0;stroke:#000" d="m293.87419 593.8061c-2.17664.39051-23.36622 7.99058-36.62914-.96416-8.33234-83.82103-5.81758-154.70381-5.81758-154.70381s3.32423 3.73879 15.55963 1.62286c6.92192 4.75471 23.65143.70755 23.65143.70755s-2.66996 82.21993 3.23566 153.33756z" id="path5148-6-1-13"/><path style="display:inline;fill-opacity:1;fill-rule:evenodd;fill:#917c6f;opacity:1;stroke-dasharray:none;stroke-linecap:butt;stroke-linejoin:miter;stroke-miterlimit:4;stroke-opacity:1;stroke-width:0;stroke:#000" d="m292.81353 592.76366c-2.09846.38841-22.52701 7.94751-35.31359-.95897-8.04008-83.44186-5.47613-153.51193-5.47613-153.51193s3.88843 2.78274 15.14414 1.14715c11.09795 3.403 22.53302 1.17062 22.53302 1.17062s-2.5831 81.39211 3.11256 152.15313z" id="path5148-6-5"/></svg>