<svg viewBox="0 0 560 1e3"><path d="m292.1589 124.27507c-.26909.0367-.53827.0717-.80756.10477-.42174.0518-.84375.099-1.26613.14042.66356-1.29344 1.12024-2.18398 1.31052-2.77485 1.28388-.53806 9.5202-1.26097 14.98152-1.26476 1.50772-.056 1.94447-.0326 2.79655.14987.55537.1189 1.38732.27049 1.84875.33686.90322.1299.89491.12796 2.98299.69367l1.36581.37003c.0226.014.71038.19286 1.23922.64422-16.05266-1.43269-14.09216.14615-24.45167 1.59977z" id="path2640" class="eyebrow_hair"/><path d="m264.1942 121.66817c.0514-.007 1.33147-.40811 1.41381-.44165 3.98184-.60819 7.33031-.42814 11.2025.58265.29115.5676.79541 1.64087.7714 2.47731-2.4488-.61924-11.46021-1.98222-13.21493-1.91759.0186-.007-.19779-.69735-.17281-.70072z" id="path2642" class="eyebrow_hair"/></svg>