<svg viewBox="0 0 560 1e3"><path class="eyebrow_hair" id="path2628" d="m316.48306 121.51713c-.1213-.0587-.44051-.10395-.84396-.14332l-.83893-.0821.83503.31302c1.19041.44618.87181.54808-.77399.24755-1.96448-.31371-3.89281-.82982-6.10511-1.20763-6.35176.43102-13.81063 2.45965-16.59426 3.76073-.73636.0966-1.5979.23265-1.91454.30244-.701-.69637-1.3113-1.06444-.82124-2.03656.0611-.39902.15898-.8122.24275-1.1588.0842-.34832.15401-.62942.15758-.76135l.77221-.2017c1.33343-.95909 10.89736-3.03544 16.56942-3.04219 1.5659-.0998 2.01951-.0582 2.90447.26714.5768.21194 1.44085.48215 1.92009.60045.93807.23155.92944.22809 3.0981 1.23647l1.41851.65957c.0235.025.73779.34378 1.28704 1.14833-.14745.21659-1.29576.10647-1.31317.098z"/><path class="eyebrow_hair" id="path2630" d="m264.10591 119.64064c.054-.0138 1.39965-.807 1.4862-.87333 3.64808-1.68511 8.4865.29755 10.24697 1.17816.58004-.13328 2.36534.84791 2.36534.84791.15137.36997.42422 1.07776.4168 2.97414-.17418.37705-1.01665 1.32993-1.72325.80349-.66574-.31222-1.41401-.71406-2.46786-1.03564-1.36115-.78939-9.02603-1.37426-9.92378-.90662-.052.027-.20749-1.61088-.21876-1.60247.0195-.0138-.20792-1.37897-.18166-1.38564z"/></svg>