<svg viewBox="0 0 560 1e3"><path id="path3841" class="skin head" d="m331.87251 135.12433c1.06954-4.24231 1.93783-8.72614 2.12749-14.02432 5.16143-28.729502-14.01634-43.342254-23-44.775005.17808 36.867905 11.27366 59.314685-9.90296 104.360565 23.91013-9.24088 25.76236-25.20657 30.77547-45.56124z"/><path d="M285.18183 79.531418C257.0002 89.440639 261.85849 115.95408 265.3 130.90001c-2.04406 5.71971-1.5314 11.02311-1.5314 11.02311-1.4593 17.55133 15.18885 41.00528 21.18393 42.03908-5.12799-3.17544-2.24808-11.9976-3.58831-20.69693-.48067-3.12004-1.33844-5.5409-1.88985-6.96562-3.45387-1.84877-4.61058-4.02358-4.4263-5.62256.27886-2.41958 6.28553-13.15677 7.02133-19.91958 2.79505-25.6896 3.31536-50.942378 3.11243-51.226092z" class="skin head" id="path931-3-5"/></svg>