<svg viewBox="0 0 560 1e3"><path d="m271.62098 497.2434c-.0502 2.11854-2.69945 4.61312-5.35828 5.47476-1.53703.49809-3.29819.27099-4.39975.25246-1.76703-.0297-4.2909-2.34308-4.58968-3.18611.45611-3.62978 7.54896-7.19999 14.34771-2.54111z" id="path7137" style="fill:#000"/><path d="m270.85282 497.17718c-.0468 1.97893-2.27488 3.90902-4.75194 4.71387-1.43197.46528-3.07275.25314-4.09901.23583-1.64623-.0278-3.6775-1.78857-3.95586-2.57605.42493-3.39059 6.4728-6.72553 12.80681-2.37365z" id="path7139" class="areola"/><path d="m259.26601 449.89338c4.21711-7.91662 19.2903-13.10136 20.72736 5.06421.47623 1.02242-.64256 5.61489-1.98748 11.39066-1.54022 5.6389-2.7614 12.04985-3.36055 18.43781-.46925 5.00296-.6071 9.90651-3.69516 13.0351-2.19637 1.86589-5.754 2.54043-8.77685 2.49397-1.77629-.0273-4.88383-.10815-5.42839-.53025-2.16745-1.68008-3.39844-3.36745-5.19975-5.82619-.22486-1.08429.24217-1.62542.14454-2.03636-1.22832-5.16975-.85061-12.92309.73406-21.56886 1.35906-7.41479 3.99225-17.81732 6.84222-20.46009z" id="path7141" style="fill:#000"/><path class="skin penis" d="m259.94322 448.34735c3.84256-8.09251 17.57702-13.39245 18.88644 5.17672.43395 1.04514-.58549 5.73962-1.81095 11.64372-1.40343 5.76419-3.04064 12.21029-3.58658 18.74017-.42757 5.11411-.55317 10.12663-3.36694 13.32471-2.00132 1.90734-4.82974 2.51451-7.58412 2.46703-1.61854-.028-4.92212-.004-5.41832-.43475-1.97494-1.71739-2.98534-3.25262-4.62667-5.766-.23876-.72106.22067-1.66154.1317-2.08161-1.11923-5.28461-.30301-13.31748 1.14091-22.15535 1.23835-7.57952 3.35578-15.23153 6.23453-20.91464z" id="path7143"/></svg>