<svg viewBox="0 0 560 1e3"><path d="M253.7 861.4H267c3.7 3.2 5.2 18.7 2.6 33.1-.4 1.8-.4 24.1-.4 36.9l-3.1.1c-.6-11.2 1.2-24.3-.9-36.9-8.2 7.5-6.7 40.4-12.8 39.5-6 .1-8.6.2-12-.4-10.4-1.9-13.6-14-15-22.7 3.1-5.4 4.4-4.6 10.2-10 7.1-12.3 9.6-22.4 18.1-39.6z" class="shoe" id="path2410"/><path d="M253.7 861.4H267c3.7 3.2 5.2 18.7 2.6 33.1-.4 1.8-.4 24.1-.4 36.9l-3.1.1c-.6-11.2 1.2-24.3-.9-36.9-8.2 7.5-6.7 40.4-12.8 39.5-6 .1-8.6.2-12-.4-10.4-1.9-13.6-14-15-22.7 3.1-5.4 4.4-4.6 10.2-10 7.1-12.3 9.6-22.4 18.1-39.6z" class="shoe" id="path2412"/><path d="M253.7 861.4H267c3.7 3.2 5.2 18.7 2.6 33.1-.4 1.8-.4 24.1-.4 36.9l-3.1.1c-.6-11.2 1.2-24.3-.9-36.9-8.2 7.5-6.7 40.4-12.8 39.5-6 .1-8.6.2-12-.4-10.4-1.9-13.6-14-15-22.7 3.1-5.4 4.4-4.6 10.2-10 7.1-12.3 9.6-22.4 18.1-39.6z" class="shoe" id="path2414"/><path d="m320.90015 860.8 15.6.1c4.7 13.7 8.6 42.3 9.2 52.3 4.6 4.1 4.9 8.5-2.1 32-2.4 3-11.1 6-20.4.0-7.1-18.7-7.6-24.5-4.1-31.5-.2-7.4-.1-10-1.5-19.5-3.4-15.5 1.9-24.7 3.3-33.4z" class="shoe" id="path2416"/><path d="m320.90015 860.8 15.6.1c4.7 13.7 8.6 42.3 9.2 52.3 4.6 4.1 4.9 8.5-2.1 32-2.4 3-11.1 6-20.4.0-7.1-18.7-7.6-24.5-4.1-31.5-.2-7.4-.1-10-1.5-19.5-3.4-15.5 1.9-24.7 3.3-33.4z" class="shoe" id="path2418"/><path d="m320.90015 860.8 15.6.1c4.7 13.7 8.6 42.3 9.2 52.3 4.6 4.1 4.9 8.5-2.1 32-2.4 3-11.1 6-20.4.0-7.1-18.7-7.6-24.5-4.1-31.5-.2-7.4-.1-10-1.5-19.5-3.4-15.5 1.9-24.7 3.3-33.4z" class="shoe" id="path2420"/><path d="M253.7 861.4H267c3.7 3.2 5.2 18.7 2.6 33.1-.4 1.8-.4 24.1-.4 36.9l-3.1.1c-.6-11.2 1.2-24.3-.9-36.9-8.2 7.5-6.7 40.4-12.8 39.5-6 .1-8.6.2-12-.4-10.4-1.9-13.6-14-15-22.7 3.1-5.4 4.4-4.6 10.2-10 7.1-12.3 9.6-22.4 18.1-39.6z" class="shoe" id="path2422"/><path d="m253.7 861.4c.82427-.41546.13707-9.51852.94088-12.54625 1.34193-5.05472 9.32523-3.86509 11.12584.28349 2.05878 4.74339.5463 12.21249 1.23328 12.26276-4.6 22.1-4.7 36.3-19.2 40.2-4.5 1.2-11.3 2.3-12.2-.6 3.6-9.7 14-34.8 18.1-39.6z" class="skin" id="path2424"/><path d="m320.90015 860.8 15.6.1c4.7 13.7 8.6 42.3 9.2 52.3 4.6 4.1 4.9 8.5-2.1 32-2.4 3-11.1 6-20.4.0-7.1-18.7-7.6-24.5-4.1-31.5-.2-7.4-.1-10-1.5-19.5-3.4-15.5 1.9-24.7 3.3-33.4z" class="shoe" id="path2426"/><path d="m320.90015 860.8c.80268-.61221-1.68352-5.16443-.8272-11.02212.64874-4.43774 11.77516-3.2879 16.01208.36616.89693.77354-.30939 10.4088.41512 10.75596 4.4 9 8.3 30.6 9.2 52.3-8.7-2.2-19.1-.4-22.8-.2-2.8-3.6-2.7-25.8-2-52.2z" class="skin" id="path2428"/><path d="m284.41961 695.11828c.98587 4.14689 1.86401 8.76215 1.92059 9.13699 6.17549 40.91244-7.18386 75.47003-8.8084 86.09473-2.7903 8.19621-7.65221 28.83141-10.04723 45.96907-.76535 4.20198-1.22009 12.39815-1.09772 13.15443 1.01119 3.52949 1.26729 10.17466.54609 14.71781-.6456 3.88243-3.4618 23.52622-7.66883 29.99564-7.74676 11.91268-24.38571 9.1634-24.1289 7.61583.58158-3.50472 12.77441-33.43761 18.25827-40.85757.99293-5.67108.0472-20.33665.28794-26.41221-1.22609-29.18215-2.4744-89.28311-4.47414-123.583.0-.69582-.52508-7.13646-1.19193-14.98522 11.08399 1.17385 26.30578 2.90129 36.40426-.8465z" class="shoe" id="path2430"/><path d="m336.75063 850.31365c-.14311-22.79826 3.37857-50.37906 6.80969-78.0601 2.15208-12.04194 4.34886-41.61821 3.11133-66.15805-.0369-.73158-.29309-4.77362-.60896-9.40165-13.44284 2.49646-29.86002.78194-36.02189-.0311-1.36667 8.52551-1.88566 16.33567-1.82774 17.96495-3.17133 25.48782 4.30858 66.62501 4.30858 66.62501 2.94016 23.68362 6.99767 43.15067 7.16815 67.76331-.67375 2.45293-.24079 6.10355.98337 11.12876.22591.92736.2022 1.30998.12376 1.7181-2.82184 14.68342-.74234 44.14515 1.33727 51.81684.66452 2.4514 23.761 2.09146 23.76391.44094.0239-13.57247-3.00726-37.44539-8.2687-50.95322-.30523-.78361-.41063-1.64468-.632-2.4836-.4723-1.78983.33025-8.48753-.24677-10.37021z" class="shoe" id="path2432"/></svg>