<svg viewBox="0 0 560 1e3"><path id="path3282-5-4-0-5-5-3" class="shadow" d="m390.51251 482.01997c-1.12037.41865-2.58602 1.44755-3.06247 1.62517-.1673.0624-2.8028-2.4716-2.96505-2.44404-4.20533.71443-8.2497 2.30075-13.72624 4.8025-.20903.0955.2654 4.98556.0532 5.08002-4.01596 1.78795-8.60226 3.38146-14.01181 4.36525-.11776.0214-3.43981-5.12788-3.55799-5.10646-6.16654 1.11783-12.90208 2.24471-20.19062 3.39598-.27648.0437-.841 4.99238-1.11901 5.03501-4.65184.7132-9.51697 1.27797-14.58804 1.64304-.17529.0126-2.66326-4.56863-2.83892-4.55624-6.76487.47704-13.80154.78124-21.05615.86426-.16153.002-1.20703 4.77697-1.36876 4.77797-5.03242.0466-10.06996.14151-15.2691-.18842-.15444-.01-.99395-4.48335-1.14851-4.49343-6.23887-.40681-12.5282-.77903-18.91896-1.68502-.16625-.0236-1.14502 3.73391-1.31133 3.70991-4.39186-.6336-8.80568-1.4158-13.22865-2.36212-.10008-.0214-.35484-3.57843-.45492-3.60003-4.94908-1.06624-9.90832-2.31688-14.85963-3.77032-.11868-.0348-1.64361 2.83645-1.76227 2.80136-3.63359-1.07446-6.95022-2.57508-10.56115-3.89118-.19669-.0717.0707-3.45828-.12589-3.53066-3.7333-1.37442-7.24873-4.13613-10.94443-5.76149-.0549-.0242-2.45362 3.12352-2.50854 3.0993-.52139-.22993-1.04611-.51728-1.56633-.75269-.005.0218-.24173.46758-.23893.48419.003.0154.91302.77777 1.92589 1.23673.16458.0746 2.39404-3.102 2.558-2.97372 1.54395 1.208 4.76296 3.1781 9.84565 5.25938.0559.0229.11475 3.75851.17149 3.78018 3.27996 1.25389 7.43116 3.05505 11.81787 4.3439.0814.0239 1.56286-2.94796 1.64321-2.91979 4.20944 1.47594 8.46992 2.2183 13.46922 3.38148.0977.0227.40198 3.8024.49998 3.82507 4.52377 1.04687 9.88271 1.85704 15.02922 2.62866.11331.017 1.34533-3.68723 1.45893-3.6704 5.52798.81914 10.90534.89611 16.96291 1.30337.0926.006 1.37844 4.65281 1.47113 4.65899 5.42991.36223 11.53839.26202 17.35629.18591.16122-.002.80365-4.56223.96515-4.55862 6.84282.15323 12.45492-.30042 19.17925-.87512.12566-.0107 2.96859 4.39992 3.09443 4.38916 5.44977-.46595 11.12398-.58408 16.65632-1.57911.17871-.0321.91308-4.91437 1.09194-4.94718 6.17744-1.13299 11.62959-1.97932 18.03267-3.10243.10455-.0183 3.89322 5.06822 3.99816 5.08497.74663.11916 15.31315-4.38765 15.58689-4.50097.12035-.0498-.15819-5.52773-.0557-5.6093.28486-.22661 6.97662-2.02171 12.4277-4.4786.0531-.024 2.87363 2.26414 2.93127 2.24524 1.23295-.4032 2.26578-1.28644 3.31287-1.71011z"/><path id="path2188-0-6" d="m370.45236 269.21102c4.29375 26.00015-6.42112 57.93186-14.14598 78.56812 11.88028 23.7788 23.11269 53.01654 7.42356 69.63321.0.0-66.36928-2.34168-77.8785 25.99569-2.06147 4.01155-2.1084 11.81811-3.46792 16.10443-.27859.87834-1.00697 6.35332-3.50565 8.26757-.26944.20641-1.13656 1.14752-4.58251.28177-.17413-.0437-1.37345.71664-3.61847.0361-5.83439-1.76869-6.66978-8.86034-6.76649-9.28816-1.6737-7.40423-46.11954 12.61666-60.09263 19.37984-2.60222 1.25951-4.32858 2.9642-4.32858 2.9642 4.3786-21.27912 9.74193-45.66138 23.41574-65.94944-11.70295-42.60692 9.74893-72.50499 14.37893-94.61156-.10903-.84586-.25373-12.27344-2.03608-28.69989-4.14962-62.22279 32.28586-63.07303 42.01804-85.90612-.63873-.33426 3.72755-3.58252 8.25208-5.98486 9.24713 11.38115 27.00795 3.33614 33.08758-1.93217 1.50252 1.12706 8.60193 5.39722 7.38644 6.19617-25.72677 16.91039-30.90218 28.84774-29.45934 29.06832 3.13992 1.52155 68.54552 33.80749 69.65163 34.63205z" style="display:inline;fill-opacity:1;fill-rule:evenodd;fill:#000;opacity:1;stroke-dasharray:none;stroke-linecap:butt;stroke-linejoin:miter;stroke-miterlimit:4;stroke-opacity:1;stroke-width:0;stroke:#000"/><path id="path2191-3-5" d="m370.47602 268.94019c2.13908 27.2998-6.7923 57.44097-15.30097 78.76525 9.57623 20.96815 23.5288 50.33587 8.74309 69.00008.49456.58345.99615 1.17702 1.50461 1.78174 15.5706 19.91859 23.92209 57.82149 25.0696 63.38824.0443.21481.0549.36195.0301.43701-.0744.0285-2.87553 1.59116-3.08523 1.61187-.24967.0247-2.66909-2.57614-2.90308-2.47239-3.76548 1.66966-8.26984 3.28806-13.36775 4.81151-.38887.11621.18143 5.35098-.20407 5.48523-4.80255 1.67253-8.41412 2.87423-14.27134 4.09295-.3584.0746-3.66282-5.0851-4.02418-5.01148-5.97891 1.21801-12.36129 2.30427-19.01773 3.21986-.37859.0521-1.00807 5.18203-1.38841 5.23299-5.75087.77059-9.10799.93476-15.17105 1.4249-.36585.0296-3.07311-4.54128-3.43978-4.51282-6.45776.50121-13.03972.82838-19.64708.95182-.30179.006-1.13397 4.60705-1.43585 4.61183-5.72159.0907-10.30978.0277-15.99861-.20823-.27377-.0113-1.16615-4.6193-1.43969-4.63146-6.10964-.27159-12.15979-.744-18.07086-1.44126-.22365-.0264-1.17804 3.64602-1.39891 3.60371-4.16151-.79722-9.05345-1.40536-13.83342-2.35891-.15644-.0312-.50022-3.72498-.65634-3.75657-4.88021-.98762-9.59854-2.16348-14.10199-3.54353-.22729-.0696-1.54686 2.89939-1.77304 2.82869-4.08252-1.27596-7.25595-2.47203-10.93733-4.10025-.17311-.0766.0186-3.44272-.15358-3.52011-3.81009-1.71261-7.37917-3.62316-10.66201-5.74525-.1108-.0716-2.38213 3.17942-2.50159 3.1241-.12098-.056-1.34706-.65058-1.64864-.85193 7.075-21.02738 13.85685-49.65401 25.28532-64.66314-12.03673-43.20489 11.79764-79.35181 14.0443-96.45454-1.99165-16.83136-4.72279-44.82621.20075-63.75694 3.84463-13.94035 13.34157-23.75278 38.01485-50.30205.49229-.51848 4.11173-2.9638 8.58869-5.36614 9.14993 11.38115 27.18075 3.33614 33.19647-1.93217 1.48672 1.12706 17.29432 7.50546 17.8262 8.84782 5.59696 13.25538 5.60863 25.94395 12.7896 37.87473 7.32565 13.63251 15.69888 21.68742 21.13892 23.53484z" style="display:inline;fill-opacity:1;fill-rule:evenodd;fill:#5f6ea0;opacity:1;stroke-dasharray:none;stroke-linecap:butt;stroke-linejoin:miter;stroke-miterlimit:4;stroke-opacity:1;stroke-width:0;stroke:#000"/><path style="display:inline;fill-opacity:1;fill:#fff;opacity:1;stroke-dasharray:none;stroke-linecap:butt;stroke-linejoin:miter;stroke-miterlimit:4;stroke-opacity:1;stroke-width:0;stroke:#000" d="m388.75048 477.03475c-62.86515 25.26964-169.33779 17.19455-186.56953-4.19416l.50934-1.31436c36.77006 27.20814 144.63321 19.97628 185.47388 3.98034.1385.27852.44728 1.28671.58631 1.52818z" id="path2329-3-0-26-1-6-8"/><path style="display:inline;fill-opacity:1;fill:#fff;opacity:1;stroke-dasharray:none;stroke-linecap:butt;stroke-linejoin:miter;stroke-miterlimit:4;stroke-opacity:1;stroke-width:0;stroke:#000" d="m387.06239 472.98347c-63.82717 21.90257-166.29567 15.55515-183.2347-4.80909l.49861-1.17863c36.09644 25.322 140.22164 17.52339 182.04308 4.27362.1385.27852.55398 1.38425.69301 1.7141z" id="path2329-3-0-26-1-4-1-4"/><path style="display:inline;fill-opacity:1;fill:#e7bb67;opacity:1;stroke-dasharray:none;stroke-linecap:butt;stroke-linejoin:miter;stroke-miterlimit:4;stroke-opacity:1;stroke-width:0;stroke:#000" d="m203.55359 478.92173c8.51494-28.38984 24.90568-58.3362 35.05007-89.27979l1.51993.57841c-8.38453 32.41858-18.87908 63.04264-25.84818 94.53961-4.19544-1.96694-6.85803-3.20798-10.72182-5.83823z" id="path2329-2-7"/><path style="display:inline;fill-opacity:1;fill:#e7bb67;opacity:1;stroke-dasharray:none;stroke-linecap:butt;stroke-linejoin:miter;stroke-miterlimit:4;stroke-opacity:1;stroke-width:0;stroke:#000" d="m226.95771 489.464c7.24497-32.07307 17.36955-64.50147 26.93716-96.11001l2.03771.43067c-7.35074 32.55411-9.7067 66.76448-14.70238 99.31859-4.43458-.94634-9.83791-2.1253-14.27249-3.63925z" id="path2329-3-3-6"/><path style="display:inline;fill-opacity:1;fill:#e7bb67;opacity:1;stroke-dasharray:none;stroke-linecap:butt;stroke-linejoin:miter;stroke-miterlimit:4;stroke-opacity:1;stroke-width:0;stroke:#000" d="m256.96018 495.62277c4.12528-33.29707 11.21077-67.27028 17.20686-99.63194l1.98474.31888c-1.1273 33.48562 1.58175 67.71877-.94699 100.73724-5.90886-.17424-12.66842-.58459-18.24461-1.42418z" id="path2329-3-0-5-9"/><path style="display:inline;fill-opacity:1;fill:#e7bb67;opacity:1;stroke-dasharray:none;stroke-linecap:butt;stroke-linejoin:miter;stroke-miterlimit:4;stroke-opacity:1;stroke-width:0;stroke:#000" d="m293.97997 497.23072c-.55795-32.66775 1.13471-66.01338 1.96298-100.52941l2.53771-.0997c3.7348 35.86669 11.87467 67.7164 15.34929 99.64702-6.4873.7737-15.28557 1.51121-19.84998.98209z" id="path2329-3-0-2-5-3"/><path style="display:inline;fill-opacity:1;fill:#e7bb67;opacity:1;stroke-dasharray:none;stroke-linecap:butt;stroke-linejoin:miter;stroke-miterlimit:4;stroke-opacity:1;stroke-width:0;stroke:#000" d="m333.58147 494.15658c-7.04711-32.54953-12.39888-65.66548-16.83289-99.52156l1.96578-.25435c5.55226 34.08301 23.32978 64.51357 34.0336 96.4501-5.88931 1.26555-12.94565 2.47467-19.16649 3.32581z" id="path2329-3-0-2-4-3-4"/><path style="display:inline;fill-opacity:1;fill:#e7bb67;opacity:1;stroke-dasharray:none;stroke-linecap:butt;stroke-linejoin:miter;stroke-miterlimit:4;stroke-opacity:1;stroke-width:0;stroke:#000" d="m371.13216 486.30077c-15.12415-30.24903-25.05372-61.32185-35.32911-95.09726l2.09577-.90902c5.05362 15.805 27.87694 64.14372 46.67297 91.17249-4.07146 1.82226-9.20346 3.50567-13.43963 4.83379z" id="path2329-3-0-2-4-9-2-3"/><path style="display:inline;fill-opacity:1;fill:#e7bb67;opacity:1;stroke-dasharray:none;stroke-linecap:butt;stroke-linejoin:miter;stroke-miterlimit:4;stroke-opacity:1;stroke-width:0;stroke:#000" d="m364.0462 385.37225c-40.86096 10.96691-110.32516 11.93509-143.01991.59735l1.82238-13.5505c47.7592 15.19673 106.89111 7.15006 138.48189 1.26448-.1896.57539 3.51059 8.15983 2.71564 11.68867z" id="path2329-3-0-26-2-5"/><path style="display:inline;fill-opacity:1;fill:#fff;opacity:1;stroke-dasharray:none;stroke-linecap:butt;stroke-linejoin:miter;stroke-miterlimit:4;stroke-opacity:1;stroke-width:0;stroke:#000" d="m369.55462 385.90666c-40.86096 10.96691-115.62048 9.13562-148.31523-2.20212l1.32628-9.17251c47.7592 15.19673 113.15306 8.29099 144.74384 2.40541.0448.13789 2.00883 6.40945 2.24511 8.96922z" id="path2329-3-0-26-7-4-4"/><path style="display:inline;fill-opacity:1;fill:#5f6ea0;opacity:1;stroke-dasharray:none;stroke-linecap:butt;stroke-linejoin:miter;stroke-miterlimit:4;stroke-opacity:1;stroke-width:0;stroke:#000" d="m368.623 382.73148c-41.39444 10.52696-114.82474 9.23587-147.07819-1.90296l.54374-2.95405c45.2592 15.44673 113.42188 8.57354 146.26266 2.18796.0135.65352.20001 1.79468.27179 2.66905z" id="path2329-3-0-26-0-5-5"/><path style="display:inline;fill-opacity:1;fill:ivory;opacity:1;stroke-dasharray:none;stroke-linecap:butt;stroke-linejoin:miter;stroke-miterlimit:4;stroke-opacity:1;stroke-width:0;stroke:#000" d="m370.39741 269.98904c-27.35909-12.76218-35.35546-63.16932-35.34102-63.50197l1.46471.8232c3.25485-.36024 8.38702 43.07969 33.9257 61.60091.0135.65352-.0118.25036-.0494 1.07786z" id="path2329-3-0-26-0-2-7-0"/><path style="display:inline;fill-opacity:1;fill:#e7bb67;opacity:1;stroke-dasharray:none;stroke-linecap:butt;stroke-linejoin:miter;stroke-miterlimit:4;stroke-opacity:1;stroke-width:0;stroke:#000" d="m370.03188 272.9477c-30.26029-11.23523-40.87372-67.32092-39.38479-68.42962l1.69673.72376c6.87878 30.31052 13.48493 52.63826 37.8361 66.47198-.0459.19747-2e-4.6498-.14804 1.23388z" id="path2329-3-0-26-0-2-9-3-6"/><path style="display:inline;fill-opacity:1;fill:ivory;opacity:1;stroke-dasharray:none;stroke-linecap:butt;stroke-linejoin:miter;stroke-miterlimit:4;stroke-opacity:1;stroke-width:0;stroke:#000" d="m239.57115 253.57288c4.48819-18.82264 37.24163-47.29885 37.25607-47.6315l1.42174-.76664c3.25485-.36024-32.4927 34.08661-38.95999 49.47017.0178-.25259.28331-1.1301.28218-1.07203z" id="path2329-3-0-26-0-2-8-9-5"/><path style="display:inline;fill-opacity:1;fill:#e7bb67;opacity:1;stroke-dasharray:none;stroke-linecap:butt;stroke-linejoin:miter;stroke-miterlimit:4;stroke-opacity:1;stroke-width:0;stroke:#000" d="m238.92359 256.39907c3.50569-11.84025 41.11946-49.01514 40.70322-52.23874l1.50477-.90146c.92859 4.54771-36.35195 41.51838-42.6117 56.07943.0178-.25259.31645-2.55536.40371-2.93923z" id="path2329-3-0-26-0-2-8-5-5-3"/><path id="path3280-7-2-6-1-7" class="shadow" d="m329.90024 425.68202c-15.4791 1.19068-42.03651 26.26041-44.60911 30.99635 10.29989-9.14088 29.75949-26.28541 44.60911-30.99635z"/><path id="path3282-5-4-0-6-7" class="shadow" d="m262.15817 457.53031c-6.81704-9.41592-28.83006-31.99347-34.93819-34.15183 5.05404 5.44075 26.5203 25.35081 34.93819 34.15183z"/></svg>