<svg viewBox="0 0 560 1e3"><path style="display:inline;fill-opacity:1;fill-rule:evenodd;fill:#000;stroke-dasharray:none;stroke-linecap:butt;stroke-linejoin:miter;stroke-miterlimit:4;stroke-opacity:0;stroke-width:3.30025864;stroke:#000" d="m350.12408 408.20733c.50234.30658 1.09365.6164 1.59267 1.07178 10.44968 9.5359 33.49555 37.41698 22.62358 71.24177-2.01783-.42472-3.46737-1.53053-3.46737-1.53053-3.78087-20.011-22.50001-56.97994-20.11699-70.06752.0299-.16451-.82627-.55892-.63189-.7155z" id="path5800"/><path style="display:inline;fill-opacity:1;fill-rule:evenodd;fill:#999;stroke-dasharray:none;stroke-linecap:butt;stroke-linejoin:miter;stroke-miterlimit:4;stroke-opacity:0;stroke-width:3;stroke:#000" d="m349.26166 407.20981c4.28127 2.5952 31.18724 38.74255 25.50548 73.98253-1.65859-.42696-4.59676-1.78994-4.59676-1.78994-4.43195-12.12656-24.23139-76.12873-20.90872-72.19259z" id="path5802"/><path style="display:inline;fill-opacity:1;fill-rule:evenodd;fill:#4d4d4d;stroke-dasharray:none;stroke-linecap:butt;stroke-linejoin:miter;stroke-miterlimit:4;stroke-opacity:0;stroke-width:3;stroke:#000" d="m351.6353 409.52376c.41291.3082.89895.61966 1.30913 1.07745 8.58933 9.58632 27.12139 31.58309 22.50028 63.19916-1.65859-.42696-4.59676-1.78994-4.59676-1.78994-7.73135-16.84962-22.39871-48.61061-20.43994-61.76739.0246-.16538 1.06752-.56187 1.22729-.71928z" id="path5804"/></svg>