<svg viewBox="0 0 560 1e3"><path id="path3543-7" d="m366.98115 291.69749c-25.75939 81.8522 6.62703 87.03059-5.42367 122.40896-39.63585 8.44961-87.08686-9.90018-88.34168-11.81835-1.64009.741-46.07386 10.68531-47.3817 8.34898-8.18183-35.71775 16.17461-57.09398 10.74392-120.01194 31.55028 3.86008 95.35007 6.47864 130.40313 1.07235z" style="display:inline;fill-opacity:1;fill-rule:evenodd;fill:#000;opacity:1;stroke-dasharray:none;stroke-linecap:butt;stroke-linejoin:miter;stroke-miterlimit:4;stroke-opacity:1;stroke-width:0;stroke:#000"/><path id="path3545-8" d="m365.8522 292.50543c-26.12253 72.96577 3.83914 87.35168-3.33999 123.44261-87.98397 16.38228-115.66482 15.96927-136.77918-5.11885-4.89624-35.20911 18.48061-62.61971 12.22228-118.8606 26.56853 7.31487 112.82784 4.7862 127.89689.53684z" style="display:inline;fill-opacity:1;fill-rule:evenodd;fill:maroon;opacity:1;stroke-dasharray:none;stroke-linecap:butt;stroke-linejoin:miter;stroke-miterlimit:4;stroke-opacity:1;stroke-width:0;stroke:#000"/><path id="path3547-0" d="m271.48166 426.63426c-2.96459-1.35508 3.51233-92.0077 10.17092-132.27485.0421-.18953-.065-.55474.12551-.56351.81123-.0373.77997.3603 2.32799.0884.20144-.0354-.067.40493-.1009.60937-10.12688 61.2283-12.38098 131.94573-12.52352 132.14056z" style="display:inline;fill-opacity:1;fill:#000"/><path id="path3549-0" d="m277.26367 407.09589c0 .86028-3.76472 3.3125-6.25 3.3125l.28125-6.65625c2.48528.0 5.96875 2.60847 5.96875 3.34375z" style="display:inline;fill:#000"/><path id="path3551-7" d="m277.90626 391.4531c0 .86028-3.76472 3.3125-6.25 3.3125l.28125-6.65625c2.48528.0 5.96875 2.60847 5.96875 3.34375z" style="display:inline;fill:#000"/><path id="path3553-5" d="m279.12501 376.4531c0 .86028-4.04597 3-6.53125 3l.46875-6.65625c2.48528.0 6.0625 2.92097 6.0625 3.65625z" style="display:inline;fill:#000"/><path id="path3555-3" d="m280.18751 363.2656c0 .86028-4.20222 2.6875-6.6875 2.6875l.59375-6.65625c2.48528.0 6.09375 3.23347 6.09375 3.96875z" style="display:inline;fill:#000"/><path id="path3557-9" d="m281.25001 348.5781c0 .86028-3.95222 2.875-6.4375 2.875l.625-6.59375c2.48528.0 5.8125 2.98347 5.8125 3.71875z" style="display:inline;fill:#000"/><path id="path3559-7" d="m283.00001 332.92185c0 .86028-4.13972 2.65625-6.625 2.65625l.6875-6.59375c2.48528.0 5.9375 3.20222 5.9375 3.9375z" style="display:inline;fill:#000"/><path id="path3561-4" d="m284.7206 318.33666c0 .86028-4.29597 2.28125-6.78125 2.28125l.8125-6.5c2.48528.0 5.96875 3.48347 5.96875 4.21875z" style="display:inline;fill:#000"/><path id="path3563-0" d="m286.3358 302.31061c0 .86028-3.98347 3-6.46875 3l.9375-6.3125c2.48528.0 5.53125 2.57722 5.53125 3.3125z" style="display:inline;fill:#000"/><path id="path3569-2" d="m277.18902 406.27379c0 .86028-3.76472 3.3125-6.25 3.3125l.28125-6.65625c2.48528.0 5.96875 2.60847 5.96875 3.34375z" style="display:inline;fill:#787878"/><path id="path3571-1" d="m277.83161 390.631c0 .86028-3.76472 3.3125-6.25 3.3125l.28125-6.65625c2.48528.0 5.96875 2.60847 5.96875 3.34375z" style="display:inline;fill:#787878"/><path id="path3573-64" d="m279.05036 375.631c0 .86028-4.04597 3-6.53125 3l.46875-6.65625c2.48528.0 6.0625 2.92097 6.0625 3.65625z" style="display:inline;fill:#787878"/><path id="path3575-5" d="m280.11286 362.4435c0 .86028-4.20222 2.6875-6.6875 2.6875l.59375-6.65625c2.48528.0 6.09375 3.23347 6.09375 3.96875z" style="display:inline;fill:#787878"/><path id="path3577-4" d="m281.17536 347.756c0 .86028-3.95222 2.875-6.4375 2.875l.625-6.59375c2.48528.0 5.8125 2.98347 5.8125 3.71875z" style="display:inline;fill:#787878"/><path id="path3583-8" d="m282.92536 332.09975c0 .86028-4.13972 2.65625-6.625 2.65625l.6875-6.59375c2.48528.0 5.9375 3.20222 5.9375 3.9375z" style="display:inline;fill:#787878"/><path id="path3585-0" d="m284.64595 317.51456c0 .86028-4.29597 2.28125-6.78125 2.28125l.8125-6.5c2.48528.0 5.96875 3.48347 5.96875 4.21875z" style="display:inline;fill:#787878"/><path id="path3587-6" d="m286.26115 301.48851c0 .86028-3.98347 3-6.46875 3l.9375-6.3125c2.48528.0 5.53125 2.57722 5.53125 3.3125z" style="display:inline;fill:#787878"/><path style="display:inline;fill-opacity:1;fill-rule:evenodd;fill:#000;opacity:1;stroke-dasharray:none;stroke-linecap:butt;stroke-linejoin:miter;stroke-miterlimit:4;stroke-opacity:1;stroke-width:0;stroke:#000" d="m362.68789 405.48716c2.80181 5.33577 10.09174 42.04249 3.90133 68.39555-20.82093 14.76257-101.55407 3.60363-151.95195.28076.0585-1.03765.0424-2.07139.18689-3.07673 6.24071-43.42968 8.73403-57.26949 10.53306-61.20446.20972-.4587.34723-.67416.34723-.67416 31.73404 35.14115 114.78836 3.69544 136.98344-3.72096z" id="path3581-6-5-2-4-8"/><path style="display:inline;fill-opacity:1;fill-rule:evenodd;fill:maroon;opacity:1;stroke-dasharray:none;stroke-linecap:butt;stroke-linejoin:miter;stroke-miterlimit:4;stroke-opacity:1;stroke-width:0;stroke:#000" d="m363.44218 406.49232c8.55181 12.27339 9.90202 39.49125 3.71161 64.20828-20.82093 13.84609-101.99157 3.49714-152.38945.38057.55367-47.38146 11.00468-61.00809 11.00468-61.00809 29.7895 36.10978 117.10308 4.00022 137.67316-3.58076z" id="path3581-6-5-2-9"/><path id="path3401-2-3" class="shadow" d="m329.90806 425.67038c-15.4791 1.19068-42.03653 26.26041-44.60913 30.99635 10.29989-9.14088 29.75951-26.28541 44.60913-30.99635z"/><path id="path3406-2-8" class="shadow" d="m262.16597 457.51867c-6.81704-9.41592-28.83006-31.99347-34.93819-34.15183 5.05404 5.44075 26.5203 25.35081 34.93819 34.15183z"/></svg>