<svg viewBox="0 0 560 1e3"><path id="path3406" d="m272.03349 513.05568c13.56701 6.44705 55.99577 3.09166 68.26202-4.8875 23.18249 7.13733 44.49217.97705 44.49217.97705-8.16315-19.78776-158.29943-96.81914-160.96326-95.83877-26.3841 45.18762-23.45048 92.60116-23.08306 93.06658 5.50878 6.97808 66.30827 10.28695 71.15099 7.11838.81673-.53438-.072-.26714.14114-.43574z" style="baseline-shift:baseline;clip-rule:nonzero;color-interpolation-filters:linearRGB;color-interpolation:sRGB;color-rendering:auto;color:#000;direction:ltr;display:inline;enable-background:accumulate;fill-opacity:1;fill-rule:evenodd;fill:#000;image-rendering:auto;isolation:auto;mix-blend-mode:normal;opacity:1;overflow:visible;shape-rendering:auto;solid-color:#000000;solid-opacity:1;stroke-dasharray:none;stroke-dashoffset:0;stroke-linecap:butt;stroke-linejoin:miter;stroke-miterlimit:4;stroke-opacity:1;stroke-width:1.77084005;stroke:none;visibility:visible;white-space:normal;writing-mode:lr-tb"/><path id="path3408" d="m384.71564 509.09281c4.33016-55.50031-8.79153-74.03429-27.70593-97.0523-13.38607 6.4024-80.16829 26.55154-85.28119 21.56396.50667 3.8765-.49115 46.0338 1.82649 79.70422 29.5054 2.88364 63.50268-3.67793 66.61171-7.52003 10.5921 3.96119 39.49559 4.37089 44.54892 3.30415z" style="baseline-shift:baseline;clip-rule:nonzero;color-interpolation-filters:linearRGB;color-interpolation:sRGB;color-rendering:auto;color:#000;direction:ltr;display:inline;enable-background:accumulate;fill-opacity:1;fill-rule:evenodd;fill:#c837ab;image-rendering:auto;isolation:auto;mix-blend-mode:normal;opacity:1;overflow:visible;shape-rendering:auto;solid-color:#000000;solid-opacity:1;stroke-dasharray:none;stroke-dashoffset:0;stroke-linecap:butt;stroke-linejoin:miter;stroke-miterlimit:4;stroke-opacity:1;stroke-width:1.67334545;stroke:none;visibility:visible;white-space:normal;writing-mode:lr-tb"/><path id="path3410" d="m272.7568 513.24143c-3.90901-31.70512 7.13896-60.20133 5.50983-70.14005-23.71289-13.25991-51.26995-30.10267-54.41236-29.725-10.00203 23.20555-22.46085 48.91951-22.07319 81.04525.0488 4.04082-.20415 8.16097-.15078 12.37116 6.17374 1.0494 47.28627 8.70442 71.1265 6.44864z" style="baseline-shift:baseline;clip-rule:nonzero;color-interpolation-filters:linearRGB;color-interpolation:sRGB;color-rendering:auto;color:#000;direction:ltr;display:inline;enable-background:accumulate;fill-opacity:1;fill-rule:evenodd;fill:#c837ab;image-rendering:auto;isolation:auto;mix-blend-mode:normal;opacity:1;overflow:visible;shape-rendering:auto;solid-color:#000000;solid-opacity:1;stroke-dasharray:none;stroke-dashoffset:0;stroke-linecap:butt;stroke-linejoin:miter;stroke-miterlimit:4;stroke-opacity:1;stroke-width:1.67334545;stroke:none;visibility:visible;white-space:normal;writing-mode:lr-tb"/><path id="path3412" class="shadow" d="m329.46037 425.76321c-15.4791 1.19068-42.03653 26.26041-44.60913 30.99635 10.29989-9.14088 29.75951-26.28541 44.60913-30.99635z"/><path id="path3414" class="shadow" d="m261.71828 457.6115c-6.81704-9.41592-28.83006-31.99347-34.93819-34.15183 5.05404 5.44075 26.5203 25.35081 34.93819 34.15183z"/><path id="path3416" class="shadow" d="m283.66521 456.38067c-1.54841.73859-1.78928 15.78672-9.24659 11.14886-5.5459 3.1603-10.12915-4.94173-10.42429-8.4126-.25114-2.95343 3.37748-7.20053 3.87403-6.51846 2.14579-.003 16.30971 2.85987 15.79685 3.7822z"/><path id="path3418" class="skin torso" d="m274.36595 467.58332c-3.81452 2.31718-9.64064-2.27902-10.8644-11.68664 5.95334-21.67633 25.49385-8.31185 20.23612.35499-2.87984 4.74713-3.52005 14.37508-9.37172 11.33165z"/><path style="display:inline;fill-opacity:1;fill-rule:evenodd;fill:#fff;opacity:1;stroke-dasharray:none;stroke-linecap:butt;stroke-linejoin:miter;stroke-miterlimit:4;stroke-opacity:1;stroke-width:0;stroke:#000" d="m271.72931 510.3564c-9.47722 3.32694-65.32956-3.38948-70.21911-6.3655.0156.36181-.17087.87816.035 2.6552 16.52371 5.43081 60.98839 7.93906 70.20174 6.58128-.0374-.79532-.0236-2.59976-.0177-2.87098z" id="path3420"/><path style="display:inline;fill-opacity:1;fill-rule:evenodd;fill:#fff;opacity:1;stroke-dasharray:none;stroke-linecap:butt;stroke-linejoin:miter;stroke-miterlimit:4;stroke-opacity:1;stroke-width:0;stroke:#000" d="m273.09381 510.04353c.0204.36181.0162 1.14379.16501 3.05341 15.23297 4.03939 53.70137 2.2558 66.80812-6.65849 13.15179 5.59192 40.96821 4.17817 44.67156 2.65765.0616-.87266.0813-1.08051.089-1.35173-2.24029 1.41082-41.53404 1.62956-44.75715-4.05773-5.95619 8.79549-53.82494 11.18375-66.97646 6.37252z" id="path3422"/><path id="path3424" class="shadow" d="M293.87737 651.87575C283.68075 613.2828 264.75873 518.26264 273.49983 475.7992c-3.08656 73.49978 15.0387 144.29089 20.37754 176.07655z"/><path style="display:inline;fill-opacity:1;fill-rule:evenodd;fill:#fff;opacity:1;stroke-dasharray:none;stroke-linecap:butt;stroke-linejoin:miter;stroke-miterlimit:4;stroke-opacity:1;stroke-width:0;stroke:#000" d="m336.18565 421.8999c4.3624 12.79607 4.98159 76.66552 2.56903 84.00697.35782-.0789.91102-.2158 2.65404-.78531 3.55549-24.08049.004-70.96344-2.37195-83.69902-.7862.17793-2.58093.44294-2.85112.47741z" id="path3426"/></svg>