<svg viewBox="0 0 560 1e3"><path style="fill-opacity:1;fill:gray" id="path2488" d="m353.94055 255.75216c19.64921 17.70888 18.05649 54.69135 28.7 67.6C362.79271 313.35354 335.46811 312.4246 283 313.5c0 0-36.7-17.8-37.9-2.2-3 39.3 20.4 22.7 37.9 14.8 15.01595 6.73485 120.8 33 124.8 16.6 2.8-11.1-12.7-103.2-28.2-120.3-7.1-7.8-8.4-4.8-14.5-9.1-43.7 6.4-25.3 47.1-7 43.7"/><path style="display:inline;fill-opacity:1;fill:#b3b3b3" id="path2488-5" d="m353.94055 255.75216c3.51538 3.16824 15.86819 2.63559 16.60271 4.45276 2.65531 6.56911 8.20397 19.93619 10.26688 27.59618.35921 1.33381-9.04574 3.9147-8.71045 5.23699.67688 2.66942 1.31396 5.30376 1.94739 7.85622.1175.47348 8.73488-3.30585 8.85236-2.8383 1.76938 7.04181 7.49928 24.68383 9.02611 30.18018.0.0-10.03267-5.79082-9.285-4.88403-.64367-.32426 1.40203 4.53506.69645 4.3589C356.75134 321.07357 324.22062 314.40402 283 313.5c0 0-36.7-17.8-37.9-2.2-3 39.3 20.4 22.7 37.9 14.8 37.64371-8.94998 79.0637 2.67228 102.63645 6.72917.30185.052 2.70739 1.0843 4.87176 3.7651.24038.29773-53.63948-6.52255-53.39105-6.21299 1.14077 1.42147-5.27419 4.69492-4.13891 6.11133.26568.33147 62.27727 6.03208 62.53292 6.34915 2.10496 2.61068 3.80724 4.64229 4.07654 4.59939 4.64057-.73919 7.60387-2.24662 8.21229-4.74115.23955-.94963-5.37349-6.44109-5.9518-8.19117-2.58014-7.80791-5.18346-19.12651-10.49207-39.25517-.12065-.4575 10.06776-6.17935 9.97551-6.64487-.6401-3.23021-1.316-6.48558-2.02352-9.73051-.17355-.79594-10.099 5.40875-10.27629 4.61459C383.73388 259.76092 386.54194 230.05853 379.6 222.4c-7.1-7.8-8.4-4.8-14.5-9.1-43.7 6.4-25.3 47.1-7 43.7"/></svg>