<svg viewBox="0 0 560 1e3"><path id="path5043-34-6-2" d="m273.81429 447.35474c-.58321-.0286-4.39619.89467-4.94967.87377 2.21896-.9831 2.08008-.95308 4.94967-.87377zm-5.09375-.0625c-.58321-.0286-4.39619.89467-4.94967.87377 2.21896-.9831 2.08008-.95308 4.94967-.87377zm2.34375-.0937c-.58321-.0286-4.39619.89467-4.94967.87377 2.21896-.9831 2.08008-.95308 4.94967-.87377zm-1.09375.96875c-.58321-.0286-4.39619.89467-4.94967.87377 2.21896-.9831 2.08008-.95308 4.94967-.87377zm3.5625-1.375c-.58321-.0286-4.39619.89467-4.94967.87377 2.21896-.9831 2.08008-.95308 4.94967-.87377zm-5.8125 1.375c-.58321-.0286-4.39619.89467-4.94967.87377 2.21896-.9831 2.08008-.95308 4.94967-.87377zm6.55238-.25746c-.58321-.0286-4.39619.89467-4.94967.87377 2.21896-.9831 2.08008-.95308 4.94967-.87377zm-4.17738 1.55061c-.58321-.0286-4.39619.89467-4.94967.87377 2.21896-.9831 2.08008-.95308 4.94967-.87377zm-3.21875-.4375c-.58321-.0286-4.39619.89467-4.94967.87377 2.21896-.9831 2.08008-.95308 4.94967-.87377zm1.4375.25c-.58321-.0286-4.39619.89467-4.94967.87377 2.21896-.9831 2.08008-.95308 4.94967-.87377zm6.84375-.8125c-.58321-.0286-4.39619.89467-4.94967.87377 2.21896-.9831 2.08008-.95308 4.94967-.87377zm-3.09375.1875c-.58321-.0286-4.39619.89467-4.94967.87377 2.21896-.9831 2.08008-.95308 4.94967-.87377zm-4.1875 1.6875c-.58321-.0286-4.39619.89467-4.94967.87377 2.21896-.9831 2.08008-.95308 4.94967-.87377zm1.61488.46129c-.58321-.0286-4.39619.89467-4.94967.87377 2.21896-.9831 2.08008-.95308 4.94967-.87377zm-.30381.75366c-.58321-.0286-4.39619.89467-4.94967.87377 2.21896-.9831 2.08008-.95308 4.94967-.87377zm4.6875-2.375c-.58321-.0286-4.39619.89467-4.94967.87377 2.21896-.9831 2.08008-.95308 4.94967-.87377zm-.0937.625c-.58321-.0286-4.39619.89467-4.94967.87377 2.21896-.9831 2.08008-.95308 4.94967-.87377zm.40625 1.09375c-.58321-.0286-4.39619.89467-4.94967.87377 2.21896-.9831 2.08008-.95308 4.94967-.87377zm-3.21875-.9375c-.58321-.0286-4.39619.89467-4.94967.87377 2.21896-.9831 2.08008-.95308 4.94967-.87377zm1.25.75c-.58321-.0286-4.39619.89467-4.94967.87377 2.21896-.9831 2.08008-.95308 4.94967-.87377zm-3.44762 1.74254c-.58321-.0286-4.39619.89467-4.94967.87377 2.21896-.9831 2.08008-.95308 4.94967-.87377zm.32262 1.17561c-.58321-.0286-4.39619.89467-4.94967.87377 2.21896-.9831 2.08008-.95308 4.94967-.87377zm1.75-1.9375c-.58321-.0286-4.39619.89467-4.94967.87377 2.21896-.9831 2.08008-.95308 4.94967-.87377zm3.71875.0625c-.58321-.0286-4.39619.89467-4.94967.87377 2.21896-.9831 2.08008-.95308 4.94967-.87377zm-1.125 1.03125c-.58321-.0286-4.39619.89467-4.94967.87377 2.21896-.9831 2.08008-.95308 4.94967-.87377zm-2.21875-.40625c-.58321-.0286-4.39619.89467-4.94967.87377 2.21896-.9831 2.08008-.95308 4.94967-.87377zm-.25.625c-.58321-.0286-4.39619.89467-4.94967.87377 2.21896-.9831 2.08008-.95308 4.94967-.87377zm.42738.64879c-.58321-.0286-4.39619.89467-4.94967.87377 2.21896-.9831 2.08008-.95308 4.94967-.87377z" class="pubic_hair"/></svg>