<svg viewBox="0 0 560 1e3"><path id="path6550" d="m318.4001 422.65902c.55785-.62766 1.80866-1.61636 2.77957-2.19712 1.93351-1.15651 6.8334-6.84067 8.30237-9.63123.7651-1.45342 1.73566-2.4941.8312-5.96278-1.47568-5.65961-1.05377-6.40571.0634-6.40571 1.17947.0 2.16386 3.75493 3.41962 7.62734.91654 2.82627.5266 2.88791-1.76311 5.73495-1.273 1.58288-3.48441 3.90343-4.91418 5.15679-2.90275 3.44545-9.26873 8.51527-9.26873 8.51527s-8.37957 5.59311.54985-2.83751z" style="display:inline;fill-opacity:1;fill:#464646;opacity:1;stroke-width:.55835629"/><path id="path6552" d="m244.40182 432.71216c-2.12471-3.10753-6.66282-11.1811-7.81105-13.89629-.51848-1.22606-1.67415-3.33564-2.56816-4.68796-2.16533-3.27548-2.78311-5.73698-1.92742-7.67986 1.42042-3.22508 2.73773-6.66924 3.21823-8.41421.62339-2.26378 1.43334-3.04639 1.05449-1.01892-.66564 3.56226-2.41895 10.10728-2.99726 11.18866-.57613 1.07728-.56535 1.3942.11156 3.27592.4122 1.14578 1.1782 2.65046 1.70221 3.34371.52405.69325 2.8423 4.54875 5.15166 8.56779 2.30938 4.01902 4.58858 7.90818 5.06491 8.64262 2.21325 3.41253 1.29595 4.03542-.99919.67854z" style="display:inline;fill-opacity:1;fill:#464646;opacity:1;stroke-width:.46036705"/><path id="path6556" d="m239.56794 386.00001c0-1.88731 2.10275-8.98714 2.38053-8.03776.10006.34192-.0902 2.66344-.423 5.15897-.5776 4.33281-1.95753 6.36215-1.95753 2.87879z" style="display:inline;fill-opacity:1;fill:#464646;opacity:1;stroke-width:.93345863"/><path id="path6558" d="m323.70528 371.55332c-.97171-1.95037-2.11766-8.19339-1.78071-9.70125.58017-2.59623 1.99495-.99769 2.3125 2.61291.17472 1.98645.64019 4.75406 1.03442 6.15031.71973 2.54908-.42264 3.23325-1.56621.93803z" style="display:inline;fill-opacity:1;fill:#464646;opacity:1;stroke-width:.75218087"/><path id="path6560" d="m319.15642 347.37063c-.0175-1.6722.32101-5.07433-.59289-7.92208l-1.62336-5.05849-3.88894-4.68548c-2.13891-2.57699-3.59805-4.87287-3.24253-5.10192.7437-.47914 6.95149 4.09795 6.9723 5.14084.009.381.80859 1.33416 1.78002 2.11814l1.76616 1.42541 6.60971-2.97831c3.63537-1.63808 6.79387-2.85801 7.01889-2.71094.22506.14707-2.23788 1.76546-5.47316 3.59649-3.23531 1.83101-6.54022 4.03293-7.34427 4.89316-.0256.19224.34208 1.89843 1.06682 1.98278 2.50174.29114 5.99564.21461 21.34736-7.25711-8.14858 6.86626-18.99504 8.55184-20.6999 11.45575-.63716 1.08528-1.00037 4.11958-.99688 4.60536.032 4.45009-2.66317 4.13901-2.69933.4964z" style="display:inline;fill-opacity:1;fill:#464646;opacity:1;stroke-width:.75218087"/><path id="path6562" d="m247.14596 336.8091c-.0416-.85655-2.76544-1.70819-4.40324-5.06936 2.38328 1.49428 4.45094 2.16274 4.54507 1.6236.19614-1.12344.5618-2.58828 1.46796-3.72382 1.67859-2.10353 9.48718-7.58091 10.80737-7.58091 1.33598.0.0975 1.51296-3.12264 3.81404-5.26836 3.76498-6.95696 6.29559-8.0225 10.99531l-1.0452 4.61003z" style="display:inline;fill-opacity:1;fill:#464646;opacity:1;stroke-width:.75218087"/><path id="path6564" d="m340.98637 325.82252c0-.31996.86132-.72891 1.91406-.90883 1.21754-.20808 1.78197-.068 1.55116.38514-.44558.87457-3.46522 1.33098-3.46522.52369z" style="display:inline;fill-opacity:1;fill:#464646;opacity:1;stroke-width:.75218087"/><path id="path6566" d="m266.0897 317.79777c.98429-1.0408 5.90367-2.46001 6.46602-1.86538.29016.30697-.79704.99005-2.4163 1.51795-3.37907 1.10165-4.88517 1.23086-4.04972.34743z" style="display:inline;fill-opacity:1;fill:#464646;opacity:1;stroke-width:.75218087"/><path id="path6568" d="m297.25548 316.22446c-2.30285-.77691-5.12907-1.42386-6.28048-1.43764-1.15142-.0133-2.09351-.29869-2.09351-.63313.0-1.08519 3.72692-.6449 8.19496.96812 7.67724 2.77159 7.82512 3.68221.17911 1.10265z" style="display:inline;fill-opacity:1;fill:#464646;opacity:1;stroke-width:.75218087"/><path id="path6570" d="m327.6498 390.63771c-.7211-1.85781-1.42393-9.17192-.79568-8.28034.22629.32107.93145 2.63573 1.56684 5.14373 1.10337 4.35443.55978 6.56552-.77116 3.13661z" style="display:inline;fill-opacity:1;fill:#464646;opacity:1;stroke-width:.93345863"/><path style="display:inline;fill-opacity:1;fill:#464646;stroke-width:.76042944" d="m268.75723 419.78693c-1.69242-6.70782-2.60105-20.05559 1.00027-29.36008 1.80476-5.67255 3.29545-10.55241 2.66924-15.45589-.29708-2.32628-11.49832-2.28749-11.58525-2.80262-.0466-.27645 1.61596-1.1928 4.7852-1.13478 2.75445.0504 5.70007.9565 5.65602.715-.97608-5.35093-.8912-10.76618-.69164-17.49218.0336-1.13101.10923-2.29555.23561-3.49836.12739-1.21237.30628-2.46361.54547-3.75858.17577-.95168.38411-1.92698.6285-2.92782.6866-1.72499 1.24834-4.08041 1.24834-5.23425.0-2.92123 2.38679-11.95425 3.28966-12.45001 1.98595-1.09046 2.08747.82982.28607 5.41078-1.07987 2.74601-1.92322 6.04644-1.87416 7.33424.0491 1.28783-.48259 4.92187-1.18142 8.07562-.28701 1.29528-.54251 2.49055-.76277 3.61792-.24435 1.25067-.44534 2.41776-.59789 3.54512-.73067 5.39989-.35002 9.88816 1.69966 18.2822-.0475 1.88236 1.27131.25561 4.20281-.0809 3.72724-.42789 9.53794-.19374 11.13603 1.29856-.22118.71722-7.11968-.36031-11.1135.97753-2.50751.83997-3.44229 1.7838-3.22405 5.6893-.29092 3.80292-.9226 6.27754-2.63611 9.6012-5.28175 10.24501-3.61506 18.63795-2.49613 27.06938.6089 4.58799-.25324 6.41027-1.21996 2.57865z" id="path4767-2-2-20"/></svg>