<svg viewBox="0 0 560 1e3"><g data-transform="boob" transform="matrix(1.1247504,0,0,1.1247504,-26.347241,-34.609528)" id="g4815" class="scaler_"><path d="m271.51118 261.14089c.0661-.75567-15.55212-23.85233-20.78384-21.10049-1.52959.80455-3.42058 1.9614-5.76856 3.60973-9.78469 6.69753-21.31453 10.82141-26.74443 14.7899-.54445.39791-.66828 2.70307-.76291 3.35152-.65836 4.51134-1.66809 9.99655-.19947 14.9545.5788 2.79959 1.92116 5.11459 3.04085 7.21138 2.65234 4.96693 6.04765 7.87695 10.86115 8.57219 21.5829 3.2487 35.13223-12.1343 39.18878-20.05393 1.83647 8.16488 6.94853 14.47073 13.3338 17.64542 10.04423 4.99389 23.27331 3.62273 32.00152-1.35019 14.24159-8.46859 19.00686-29.49472.12112-46.95807-1.24033-1.44425-2.4413-2.70187-3.54079-3.8753-.36194-.36533-.83711-.69814-1.41789-.98568-.3692-.18279-.78107-.34728-1.23367-.49021-4.17723-1.31914-18.96078 7.30779-27.63663 14.95545-5.29365 4.66629-9.38919 8.82318-10.45903 9.72378z" id="path4803" style="fill-opacity:1;fill:#010101"/><path d="m250.80319 239.92519c-2.11217 1.58135-4.28508 3.11053-5.92735 4.27017-5.84025 4.87392-21.34013 11.09517-25.80979 13.9564-.39537.25308-.72231 2.6909-.84921 3.07294-.70752 5.13443-.92153 9.56442-.30576 13.2861 1.01337 6.12496 3.33372 10.46932 6.44535 13.29915 2.48992 2.26451 5.53985 3.63861 8.78962 4.08772 10.49581 1.51314 19.86794-2.43574 27.29744-8.48888 4.20537-3.4345 7.18267-7.02269 9.92412-11.02226.12718.41876 1.87124 5.64497 5.46994 10.30596 2.123 2.74967 5.09638 5.02083 8.21123 6.75234.11303.0438.22593.0871.33871.12991 34.5912 13.12294 57.55039-22.51578 31.08151-47.52065-1.21885-1.39111-4.20568-5.32709-4.35427-5.6611-.6987-2.75664-9.8826-9.0648-16.06697-9.45676-9.71868-.61597-21.08175-.60121-21.2227-.21343-.22117-.36982-16.14896 7.01755-22.98077 13.1738-.0124.0112-.0411.0188-.0411.0289z" id="path4805" style="fill-opacity:1;fill:#222a12"/><path id="path4807" class="shadow" d="m270.33492 269.98618c-.16754 2.01348.47911 3.25262.89408 5.36257-.66799-1.59942-1.31544-3.72955-.89408-5.36257z"/><path id="path2094-6-3" d="m281.21817 244.81799c-.19553 1.50703.0203 1.16959-.0345 1.17435-.0747.006-8.05425 11.65092-8.78558 13.08876-.003-.15048 1.68496-7.16136 1.68496-7.16136-.15017 1.88677-.38463 3.9469-.25663 3.74289.44295-.70601 2.84066-4.21361 7.39178-10.84464z" style="display:inline;fill-opacity:1;fill-rule:nonzero;fill:#000;opacity:1;stroke-dasharray:none;stroke-linecap:butt;stroke-linejoin:miter;stroke-miterlimit:4;stroke-opacity:1;stroke-width:.26756412;stroke:#000"/><path id="path2094-6-3-3" d="m297.35619 227.47809c-17.27003 32.90401-17.16112 58.82267-17.46609 59.06128.0.0-.38735-.88641-.36147-.95204.0889-.22566 2.10094-29.96685 17.36462-58.18003z" style="display:inline;fill-opacity:1;fill-rule:nonzero;fill:#000;opacity:1;stroke-dasharray:none;stroke-linecap:butt;stroke-linejoin:miter;stroke-miterlimit:4;stroke-opacity:1;stroke-width:.28081813;stroke:#000"/><path style="display:inline;fill-opacity:1;fill-rule:nonzero;fill:#806600;opacity:1;stroke-dasharray:none;stroke-linecap:butt;stroke-linejoin:round;stroke-miterlimit:4;stroke-opacity:1;stroke-width:0;stroke:#000" d="m288.34351 238.46516a2.3909267 2.6075836.0 01-2.39093 2.60759 2.3909267 2.6075836.0 01-2.39092-2.60759 2.3909267 2.6075836.0 012.39092-2.60758 2.3909267 2.6075836.0 012.39093 2.60758z" id="path2956"/><path style="display:inline;fill-opacity:1;fill-rule:nonzero;fill:#806600;opacity:1;stroke-dasharray:none;stroke-linecap:butt;stroke-linejoin:round;stroke-miterlimit:4;stroke-opacity:1;stroke-width:0;stroke:#000" d="m278.48849 266.64337a2.3909267 2.6075836.0 01-2.39092 2.60759 2.3909267 2.6075836.0 01-2.39093-2.60759 2.3909267 2.6075836.0 012.39093-2.60759 2.3909267 2.6075836.0 012.39092 2.60759z" id="path2956-2"/></g></svg>