<svg viewBox="0 0 560 1e3"><path style="display:inline;fill-opacity:1;fill-rule:evenodd;fill:#eaf;opacity:1;stroke-dasharray:none;stroke-linecap:butt;stroke-linejoin:miter;stroke-miterlimit:4;stroke-opacity:1;stroke-width:0;stroke:#000" d="m350.44891 411.28161c-41.34356 12.40411-56.35277 29.50718-67.32299 47.0649-1.04023 1.75909-1.92047 7.35117-4.50173 9.70959-.97785.89343-3.70051-.0277-4.03805.0431-.91345.19159-2.09488.29968-2.84109.24274-1.3589-.10369-3.10427-.97079-4.62926-2.64607-1.15035-1.26373-2.1753-2.98733-2.81436-5.19001-8.27893-10.93923-27.60352-39.54369-38.34145-47.86102.0176-.005-.05-.20603.59439-1.93851 29.91996 7.91079 37.53385 11.40066 123.28163-1.21761.0.0.63138 1.78415.61291 1.79289z" id="path5882"/><path style="display:inline;fill-opacity:1;fill:#eaf;stroke-dasharray:none;stroke-linecap:butt;stroke-linejoin:miter;stroke-miterlimit:4;stroke-opacity:1;stroke-width:0;stroke:#83afc8" d="m225.9378 412.66104c.12717-.79329.24724-.90642.25482-.95601 23.02972 9.12926 54.6817 12.66174 123.82806-1.73671.0291.083.24793.57628.45084 1.30322-7.49448 2.32559-13.58511 4.61432-22.50451 8.15633-60.49161 9.75774-83.56164 4.33761-97.57663-2.66633-1.68147-1.78024-2.87542-3.01265-4.45258-4.1005z" id="path5884"/><path style="display:inline;fill-opacity:1;fill:#eaf;stroke-dasharray:none;stroke-linecap:butt;stroke-linejoin:miter;stroke-miterlimit:4;stroke-opacity:1;stroke-width:0;stroke:#83afc8" d="m241.44907 429.61473c16.19921 3.4137 37.32679 4.09867 68.75142-.23858-1.10723.72649-4.9682 3.64884-9.02733 7.02192-26.13262 3.68145-42.62028 3.1439-53.96133.73077-1.89388-2.48871-3.25794-4.54662-5.76276-7.51411z" id="path5886"/><path style="display:inline;fill-opacity:1;fill:#eaf;stroke-dasharray:none;stroke-linecap:butt;stroke-linejoin:miter;stroke-miterlimit:4;stroke-opacity:1;stroke-width:0;stroke:#83afc8" d="m252.70414 444.58541c10.94342 1.31488 24.01095 1.50229 40.32871.0811-1.56759 2.01272-3.58281 4.56444-5.24245 6.66295-12.30604 1.16431-22.00263 1.20882-29.81942.51362-2.04934-2.61037-3.63449-4.68604-5.26684-7.25767z" id="path5891"/><path style="display:inline;fill-opacity:1;fill:#eaf;stroke-dasharray:none;stroke-linecap:butt;stroke-linejoin:miter;stroke-miterlimit:4;stroke-opacity:1;stroke-width:0;stroke:#83afc8" d="m262.53421 458.18295c6.22871.31514 13.08896.30377 20.72809-.0971-.87505 2.4389-1.64015 4.66739-2.42955 6.53665-5.25319.34928-9.97649.47387-14.24234.41152-1.68576-1.69159-2.0194-4.59693-4.0562-6.85107z" id="path5897"/><path style="display:inline;fill-opacity:1;fill-rule:evenodd;fill:#000;opacity:1;stroke-dasharray:none;stroke-linecap:butt;stroke-linejoin:miter;stroke-miterlimit:4;stroke-opacity:1;stroke-width:0;stroke:#000" d="m282.94456 458.76549c-.0483.15247-.11284.47208-.19954.90622-.41277 2.06685-1.81439 6.53069-3.87757 8.11265-.26921.20642-1.13559 1.14752-4.57861.28177-.17398-.0437-2.18026 1.1699-4.2783.12449-4.65827-2.32112-6.22252-8.10904-6.31915-8.53686 3.82592 9.08132 8.89939 9.3147 10.40315 7.55401 5.26837 2.79873 7.50839-4.81217 8.85002-8.44228z" id="path5903"/><path style="display:inline;fill-opacity:1;fill:#eaf;stroke-dasharray:none;stroke-linecap:butt;stroke-linejoin:miter;stroke-miterlimit:4;stroke-opacity:1;stroke-width:0;stroke:#83afc8" d="m271.02081 416.82683c-.40499.0203-2.65956.56808-4.1375-.83724-4.16958-3.96471-10.17596-9.87921-10.68888-9.8703-4.579 14.03976 6.16335 16.1551 5.27505 17.72345 2.40799.6564 7.98463 6.14075 21.22352-.42033-1.20838-1.7332 10.55044-3.69019 5.51126-16.9532-1.34763.35186-8.56003 6.49771-13.30543 9.96822-1.31933.96489-3.20132.3151-3.87831.38931z" id="path5853-7"/><path style="display:inline;fill-opacity:1;fill:#000;stroke-dasharray:none;stroke-linecap:butt;stroke-linejoin:miter;stroke-miterlimit:4;stroke-opacity:1;stroke-width:0;stroke:#000" d="m358.3588 420.46955s.90522-3.71477 1.23561-3.80327c-1.21534-3.75726-8.84438-7.8256-8.90737-7.95693-10.52727-21.94918 14.2534-.93604 1.17112.59258.0295-.17605.20585.63851.20585.63851 18.06723-2.3882-15.05115-26.45838-1.90037-1.10352.0103.0448 6.48299 6.86889 8.19516 11.63263z" id="path4332-3-1"/><path style="display:inline;fill-opacity:1;fill:#eaf;stroke-dasharray:none;stroke-linecap:butt;stroke-linejoin:miter;stroke-miterlimit:4;stroke-opacity:1;stroke-width:0;stroke:#000" d="m358.60185 420.24234s.90522-3.71476 1.2356-3.80326c-1.21533-3.75726-8.84466-7.82546-8.90736-7.95694-10.51953-22.05892 14.79918-.81495 1.17111.59259.0295-.17605.20585.63851.20585.63851 18.59901-2.19315-16.36615-26.99934-1.90036-1.10352.0103.0448 6.48298 6.86889 8.19516 11.63262z" id="path4334-7-0"/><path style="display:inline;fill-opacity:1;fill:#000;stroke-dasharray:none;stroke-linecap:butt;stroke-linejoin:miter;stroke-miterlimit:4;stroke-opacity:1;stroke-width:0;stroke:#000" d="m351.75838 410.19916s-.0402-.24272-.17351-.71431c-20.6074 7.681-6.89527-22.17686-.16577-1.60176.0252.077-3.37763 8.23048-2.89317 10.45879.66187-.20196 3.10181 4.16632 3.10181 4.16632-1.2295-5.89337.27249-14.69057.24656-14.77148-8.33078-25.98859-23.21991 14.23924-.11586 2.46243z" id="path4336-6-2"/><path style="display:inline;fill-opacity:1;fill:#eaf;stroke-dasharray:none;stroke-linecap:butt;stroke-linejoin:miter;stroke-miterlimit:4;stroke-opacity:1;stroke-width:0;stroke:#000" d="m352.00143 409.97197s-.0402-.24273-.17352-.71432c-20.56708 7.61314-6.91981-22.94111-.16578-1.60175.0244.0772-3.37763 8.23048-2.89316 10.45878.66187-.20195 3.10181 4.16632 3.10181 4.16632-1.22951-5.89336.27401-14.69108.24655-14.77148-9.06764-26.54947-23.333 14.16775-.11586 2.46243z" id="path4338-4-6"/><path style="display:inline;fill-opacity:1;fill:#000;stroke-dasharray:none;stroke-linecap:butt;stroke-linejoin:miter;stroke-miterlimit:4;stroke-opacity:1;stroke-width:0;stroke:#000" d="m221.6569 423.82583s-1.4474-3.53892-1.78727-3.57732c.64327-3.89619 7.58295-9.05339 7.6255-9.19269 5.56195-18.20892-10.27027 2.44141-1.07001.76009-.0553-.16971-.10864.66202-.10864.66202-12.47444 1.36473 9.0497-22.8518 1.7152-1.37377-.004.0458-5.38981 7.75633-6.37478 12.72167z" id="path4332-3-9-04"/><path style="display:inline;fill-opacity:1;fill:#eaf;stroke-dasharray:none;stroke-linecap:butt;stroke-linejoin:miter;stroke-miterlimit:4;stroke-opacity:1;stroke-width:0;stroke:#000" d="m221.38278 423.63728s-1.4474-3.53891-1.78727-3.57732c.64327-3.89618 7.57588-9.05573 7.6255-9.1927 6.47204-17.86415-10.93432 2.02596-1.07.76011-.0554-.16971-.10864.66201-.10864.66201-13.43477 2.55476 10.70651-23.48257 1.71519-1.37376-.004.0458-5.38981 7.75633-6.37478 12.72166z" id="path4334-7-2-1"/><path style="display:inline;fill-opacity:1;fill:#000;stroke-dasharray:none;stroke-linecap:butt;stroke-linejoin:miter;stroke-miterlimit:4;stroke-opacity:1;stroke-width:0;stroke:#000" d="m226.65718 412.68834s.004-.246.0654-.73217c21.72011 4.11951 2.88094-20.98739-.0742-1.6086-.0122.0801 4.56365 7.6369 4.41583 9.91247-.68454-.10132-2.44797 4.58114-2.44797 4.58114.33972-6.01066-2.45857-14.48783-2.43976-14.57069 5.31968-23.43106 25.32651 10.578.48063 2.41785z" id="path4336-6-6-2"/><path style="display:inline;fill-opacity:1;fill:#eaf;stroke-dasharray:none;stroke-linecap:butt;stroke-linejoin:miter;stroke-miterlimit:4;stroke-opacity:1;stroke-width:0;stroke:#000" d="m226.38305 412.4998s.004-.246.0654-.73217c21.825 4.21533 4.23573-21.26198-.0742-1.6086-.0173.0791 4.56365 7.6369 4.41583 9.91246-.68454-.10131-2.44798 4.58115-2.44798 4.58115.33974-6.01066-2.45828-14.48778-2.43975-14.57069 5.43171-24.30662 25.31159 10.66734.48064 2.41784z" id="path4338-4-4-2"/><path style="display:inline;fill-opacity:1;fill-rule:evenodd;fill:#fff;opacity:1;stroke-dasharray:none;stroke-linecap:butt;stroke-linejoin:miter;stroke-miterlimit:4;stroke-opacity:1;stroke-width:0;stroke:#000" d="m365.23264 281.798c-.32392 1.07095.008 2.03659-.32786 2.87146-3.33855-.44813-4.51546 1.98352-7.90326 1.58066-2.39768-.28511-4.93525-2.88572-7.34704-3.14801-2.37396-.25819-4.49145 1.93793-6.87069 1.70195-2.5105-.24898-5.28279-2.92878-7.7896-3.15292-3.21669-.28761-5.90388 1.77215-9.09611 1.52569-2.79311-.21563-6.09533-2.74232-8.85486-2.92627-2.72467-.18162-5.82148 2.79351-8.50002 2.64297-2.39954-.13486-4.38607-3.39849-6.73844-3.50829-2.6793-.12506-5.19428 2.4421-7.79906 2.34971-2.98213-.10575-6.0414-2.86593-8.90595-2.92858-3.12907-.0684-6.31222 2.68116-9.27442 2.66449-3.19159-.018-6.14765-2.79803-9.11212-2.75548-2.39007.0343-4.57012 2.53159-6.79223 2.60551-2.89555.0963-5.77142-2.21689-8.34622-2.05288-2.6251.16721-4.41996 2.69662-6.66948 2.93472-2.70271.2861-3.12371-1.89084-5.21661-1.50154-.27376-.78022-.0662-1.6429-.22684-2.57421 13.4127-3.29884 49.92179-6.42454 125.77081 3.67102z" id="path3088-3-0-0-0-2-6-7-4-6-4"/><path style="display:inline;fill-opacity:1;fill-rule:evenodd;fill:#fff;opacity:1;stroke-dasharray:none;stroke-linecap:butt;stroke-linejoin:miter;stroke-miterlimit:4;stroke-opacity:1;stroke-width:0;stroke:#000" d="m368.33246 249.23632-.26536 6.65854-124.11363-5.51138.90164-5.57161c2.67449-1.35916 3.69914-4.26144 6.87077-5.20827 3.7178-1.10988 2.97953 1.18324 7.21503.56708 4.26774-.62084 4.72443-3.74216 9.33581-3.94185 4.36738-.18913 5.29237 1.39878 9.80849 1.51717 1.10405.0289 3.67802-2.1004 6.74188-2.44417 3.0373-.34078 5.71336 2.81672 8.75883 2.95397 3.09551.13951 4.33153-2.65607 7.65979-2.66372 2.91304-.007 4.19623 3.07175 6.97794 3.04709 2.37048-.021 5.15501-2.29174 7.34978-1.72729 2.91941.75082 4.32105 2.99269 6.02742 3.18373 4.10833.45995 5.66055-1.66487 9.53076-1.09895 4.10348.60003 3.86662 2.9234 7.55636 3.57825 3.92305.69626 5.35653-1.68879 8.63655-1.00774 3.60028.74755 5.57368 3.92003 8.4045 4.99337 2.02774.76885 4.66263.11176 6.31821.43594 2.83558.55525 6.3282 2.12088 6.28523 2.23984z" id="path3180-8-0-7-5-5"/><path style="display:inline;fill-opacity:1;fill-rule:evenodd;fill:#eaf;opacity:1;stroke-dasharray:none;stroke-linecap:butt;stroke-linejoin:miter;stroke-miterlimit:4;stroke-opacity:1;stroke-width:0;stroke:#000" d="m368.50271 251.00409c-.22126 1.20922.70102 15.86681-3.4312 31.76896-46.04321-4.89707-105.36149-7.3019-125.38285-4.35099-1.03254-11.48092 4.82597-31.84242 4.82597-31.84242 34.17203-12.61017 70.33434-6.9819 123.98808 4.42445z" id="path3180-8-2-7-0"/><path id="path1686-7-77-70-6-0-7-3-8-7-7-1-1-9" d="m290.4828 246.27599c-.42045-.0293-2.78711.0864-4.23307-.96712-4.07936-2.97227-6.12651-4.89988-6.65802-4.94764-2.48835 4.78237.70672 8.24751-.30659 9.15879-2.31739 2.0841-3.15222 4.05494-3.16822 7.68013-96e-5.29722-5.5977.60726-5.57056.9026.0268.29232 5.67684.57053 5.7327.8589.0759.39408.17958.78439.31184 1.16896.0888.25838-8.04249 1.68375-7.92725 1.9364.1277.27981 8.50495-.61381 8.666-.34255.24586.41405.53127.81726.85826 1.20684.13035.15527-4.15595 2.27192-4.0122 2.42276.12711.13343 4.68283-1.6985 4.82055-1.56891 4.41781 4.42846 13.92157 5.34722 20.57671 2.1051.18223-.11057 3.97297 2.94182 4.14259 2.82217.18236-.12863-3.2574-3.42996-3.08942-3.56848.39439-.32531.74929-.67713 1.0657-1.0516.15779-.18668 7.03634 2.64029 7.17507 2.44283.18053-.25701-6.38538-3.54202-6.23659-3.81542.26723-.49102.48364-1.00679.65084-1.5412.0737-.23526 5.39568.54382 5.45034.30183.0498-.22082-5.16612-1.46216-5.13184-1.68773.54551-3.58837.913-5.55783-1.42804-8.07844-1.14731-1.23532 2.35813-2.30831 1.69914-8.27865-1.41609.0848-4.23032 1.2686-9.35015 2.99542-1.42343.48009-3.33281-.13197-4.03808-.15503z" class="skin"/></svg>