<svg viewBox="0 0 560 1e3"><path class="hair" id="path2154" d="m301.98242 67.177734c-12.20347.332259-23.65934 8.349861-33.13086 20.320313-3.31663 3.490464-5.9587 7.405345-7.95703 11.761719-.13059.22409-.26906.438534-.39844.664062-.57775 1.007152-.82998 1.740422-.81836 2.255862-1.66835 7.8622-2.27727 10.89833 2.60858 31.08644.23574-.49704.4668-.99635.69342-1.49706.044-.0971 1.15025 1.99321 1.19387 1.89599.48559-1.08213.54455-1.79502.99209-2.87996.0391-.0949-.57815-2.75223-.53924-2.84705 5.63868-11.34494 5.18149-23.38631 15.18434-22.42965.13438.0274.27223.0771.41352.15162 2.05791 1.08519 3.14435 4.41673 5.34696 8.86782.28972.58548-1.46375-5.37218-1.13066-4.75053 2.23675 4.17444 7.62103 15.6692 13.46641 20.58282.16493.13864-6.0858-9.27784-7.05867-11.71844-1.81289-4.54794-3.89429-11.6484-3.51643-11.5544 1.55516.3869 4.98938 5.7467 14.29179 4.6266.37428-.0466-3.48671-1.13208-5.24864-2.62071-4.07828-3.44565-.59924-1.9803.71115-.99067 1.04097.37502 7.70867 6.56974 17.12177 8.49509.76441.15635-3.21606-1.94568-4.88867-3.53265-2.5214-2.39231-.95121-3.39116.18244-3.05083 3.25821.97815 12.36773 8.80239 14.79906 9.89425.37793.16972-1.22709-1.40719-1.65208-2.07621-1.02048-1.60645-1.97694-3.45435-1.06613-2.90768 1.14887.68955 2.33196 1.47991 3.60687 2.41146.51668.36967 1.05432.74108 1.61524 1.11523 1.57368 10.71247-2.70959 40.14059.28832 48.83793.1467.1699 2.8528-20.16334 3.10215-21.08441.72947-2.69458.82037 9.56162 1.32925 7.5193.99404-3.98945 1.43659-23.94804 1.90337-23.82109 2.28317-2.45784 5.88644-5.06815 10.03862-20.15332 1.25939-3.26452 1.14251-6.04929.6964-9.21139-2.14168-15.160447-4.61395-26.089453-35.22525-32.708112-2.33922-.505386-4.66027-.714823-6.95508-.652344z"/><path d="m263.20808 165.4618c.93409-5.24648 1.96866-6.17893 1.6772-8.25096-.0538-.38213.34948-1.84974-.0942-3.79548-1.21296-5.31931-1.95624-15.32742-.18477-20.31544.56655-1.59528-1.57327-2.50453-1.58062-2.46055.26706 1.42858-1.71292 21.76556.1824 34.82243z" class="hair" id="path2156"/><path d="m357.45009 67.069287c10.86378 5.746763 11.74503 15.462496 10.11024 25.22218-.0846.505361 1.48243 7.146334 1.38533 7.651383-.0767.39917-2.97469-2.758186-2.67938-2.376112.0611.07909.084.501001.084.501001.002.666817 1.01552 8.113381.89968 8.570041-.11735.46272-2.45361-3.86329-2.57332-3.40535-.41557 1.58966.13545.74024-.2625 2.24819-1.70653 6.46657-5.96558 8.3317-6.10794 8.35506-.066.0112-1.25874-3.21921-1.5944-3.34532-.19304-.0725-2.18697 9.46409-2.60478 9.47028-.21585.003-4.4895-10.88185-4.68917-10.94105-.17864-.0529.40768 5.4813-.22267 4.57719-.0983-.14113-5.80351-2.33622-6.91163-20.666216-12.63785-3.9152-17.2068-28.931674 1.73079-31.056668 3.9831-.01355 6.87223.582866 8.97859 1.499896 2.222 1.143992 3.70384 2.506181 4.45719 3.695495z" class="hair" id="path2068-8"/><path d="m256.31705 65.961484c-10.86378 5.746762-11.74503 15.462497-10.11024 25.222182.0846.505361-1.48243 7.146335-1.38532 7.651384.0767.399172 2.97467-2.758188 2.67938-2.376113-.0611.07909-.084.501006-.084.501006-.002.666807-1.01552 8.113377-.89969 8.570037.11736.4627 2.45362-3.86329 2.57333-3.40535.41557 1.58966-.13545.74024.2625 2.24819 1.70653 6.46657 5.96558 8.33169 6.10794 8.35506.066.0112 1.25874-3.21921 1.5944-3.34532.19303-.0725 2.18697 9.46409 2.60478 9.47028.21585.003 4.4895-10.88185 4.68917-10.94105.17864-.0529-.40768 5.4813.22266 4.57719.0983-.14113 9.33905-12.766043 10.44717-31.096043 12.63785-3.915202 13.67127-18.50185-5.26632-20.626842-3.9831-.01353-6.87223.582863-8.9786 1.499895-2.22199 1.143994-3.70383 2.506179-4.45718 3.695494z" class="hair" id="path2070-4"/><path d="m359.64525 97.436172c1.76532 9.161658 3.13974 19.848118 4.19372 31.695988-2.61229.39324-22.28609 8.93291-29.35502 6.43732-.17973-7.87344-.29734-15.60857-.34383-23.15264-8.52182-25.901299 1.64815-48.506812 16.44524-49.351144 2.68584-.08962 4.634 3.855987 6.05435 9.922666 1.49831 7.56816 2.49753 16.579819 3.00552 24.44781z" class="hair" id="path2072-9"/><path d="m253.95032 102.54386c-1.47962 7.67893-2.68463 16.42905-3.65652 26.0364 6.99793-4.92629 10.94593-2.34484 14.75146-8.56942 2.04936-6.64278 15.04872-22.430933 13.93374-27.313175-2.75415-12.059747-12.3075-18.592084-14.55839-18.82424-2.68584-.08954-6.04429-1.844058-7.46465 4.222627-1.49832 7.568173-2.49752 16.579806-3.00552 24.447808z" class="hair" id="path2074-5"/><path d="m270.26617 87.912237c.85804-6.798028 41.63489-19.245017 64.29058 4.029194 1.01924 1.047066.22484 1.746899.93279 3.134269-27.88117-24.042093-55.70447-10.607389-65.22337-7.163463z" id="path2070-4-8" style="display:inline;fill:#000"/></svg>