<svg viewBox="0 0 560 1e3"><path style="display:inline;fill:#000;opacity:1;stroke-width:1.23896217" d="m275.14349 499.17858c.008 1.07506-1.78207 14.64502-13.37989 14.13357-5.67915-.25043-13.62489-12.04353-13.63374-13.1186-.84356-2.03073.51167-2.72302.92936-2.997 1.08158-.70943 3.58807 2.53941 12.96805 2.73281 5.68274.11706 13.10736-1.82589 13.11622-.75081z" id="path8756"/><path style="display:inline;fill:#000;opacity:1;stroke-width:1.1783371" d="m259.15563 503.42006c-.86427.3021-1.48585-.138-2.45862-.1768-2.75187-19.55811 7.93982-56.24613 11.04026-59.24803.5615.2573 2.66869-.19999 2.43915.5504-1.38557 4.52934-11.44851 31.91698-11.02079 58.87443z" id="path8758"/><path style="display:inline;fill:#000;opacity:1;stroke-width:1.16722834" d="m271.48948 506.19851c-.89873.28507-1.5451-.13021-2.55664-.16683.36445-16.09115 7.7841-51.7556 11.48044-55.90718.58387.2428 1.14427 2.23892.90558 2.947-1.4408 4.27394-8.35224 29.3697-9.82938 53.12701z" id="path8760"/><path style="display:inline;fill:#000;opacity:1;stroke-width:1.16640723" d="m249.79364 500.61042c-.89747.28507-.62171-.13021-1.63183-.16683-1.40173-16.31029 4.16504-47.0806 11.92489-54.66538.58306.24279.86262 1.07756.44369 1.7052-1.43876 2.15558-12.33243 21.62674-10.73675 53.12701z" id="path8762"/><path style="fill:#bababa;stroke-width:1.16874874" d="m275.23034 499.75821c.009.96822-1.7608 13.18953-13.22024 12.72891-5.61138-.22554-13.46231-10.8466-13.47105-11.81482-.83352-1.82891.50555-2.45239.91826-2.69914 1.06867-.63893 3.54526 2.28702 12.81332 2.4612 5.61493.10552 12.95097-1.64441 12.95971-.67619z" id="path8764"/><path style="display:inline;fill:#000;opacity:1;stroke-width:1.16874874" d="m260.44427 512.19222c-.94172-.55121-1.94819-1.85954-1.53042-3.08583.50627.71917 1.01772 2.21945 3.02609 3.38894-.82411.008-1.40066-.23886-1.49567-.30311z" id="path8766"/><path style="display:inline;fill:#000;opacity:1;stroke-width:1.18712151" d="m247.89129 485.82185c-.0415 1.46198-.0403 3.29821-.0996 5.34606 7.24096 4.86586 24.01949 2.16814 28.01816.71141.0344-.50775.54659-5.69821.44488-5.66434-3.3794 1.12515-20.1919 3.08223-28.36351-.39313z" id="path8768"/><path style="display:inline;fill:#000;opacity:1;stroke-width:1.19551909" d="m249.05554 474.99699c-.13301 1.08272-.39319 3.29706-.6093 5.29396 7.24096 4.93495 24.79057 2.35893 28.78923.88153.0344-.51497.97787-5.77913.87617-5.74478-3.37941 1.14114-20.88456 3.094-29.05616-.43071z" id="path8770"/><path style="display:inline;fill:#000;opacity:1;stroke-width:1.18390214" d="m251.64026 462.85261c-.13323 1.05998-.87521 3.18352-1.09167 5.13848 8.14184 3.14774 24.9065 1.99929 29.50437 1.08457.0344-.50415 1.20537-5.67435 1.09981-5.66847-5.75485.31967-21.32716 1.38971-29.51257-.55458z" id="path8772"/><path style="display:inline;fill:#000;opacity:1;stroke-width:1.17879045" d="m255.6224 451.81375c-.31829.7979-1.39659 3.7072-1.6406 4.58438 8.24181 2.72451 23.25233 1.91735 28.43874.9856.0345-.49701-.35287-5.34517-.45789-5.32614-4.03604.73071-17.97726 1.2431-26.34031-.24384z" id="path8774"/><path style="display:inline;fill:#000;opacity:1;stroke-width:1.07633054" d="m255.82531 452.85012c.026.78014 1.48235.53355 1.69293.49992 8.98791-16.59171 20.63253-4.34864 22.89803.29783.68775.43856 1.51086-.30106 1.49789-.40496-1.42679-11.42778-19.45068-19.94242-26.0889-.39278z" id="path8776"/><path style="display:inline;fill:#bababa;opacity:1;stroke-width:1.16874874" d="m259.43325 502.6365c-.85395.3008-1.46812-.1374-2.42928-.17604-2.50252-17.36427 8.71118-56.07543 10.90853-58.9916.5548.25619 2.63684-.19914 2.41003.54802-1.36902 4.50973-11.3119 31.77884-10.88928 58.61962z" id="path8778"/><path style="display:inline;fill:#bababa;opacity:1;stroke-width:1.06757236" d="m248.30332 486.55446c-.041 1.19661-.0399 2.69957-.0984 4.37572 7.15457 3.9827 23.73289 1.77462 27.68385.5823.0339-.4156.54006-4.66398.43958-4.63625-3.33908.92094-19.95098 2.5228-28.02508-.32177z" id="path8780"/><path style="display:inline;fill:#bababa;opacity:1;stroke-width:1.06757236" d="m249.45367 475.87931c-.13141.87379-.3885 2.66084-.60202 4.27242 7.15456 3.98269 24.49476 1.90375 28.44572.71142.0339-.41559.96619-4.66397.8657-4.63625-3.33908.92094-20.63536 2.49698-28.70946-.34759z" id="path8782"/><path style="display:inline;fill:#bababa;opacity:1;stroke-width:1.06757236" d="m252.05677 463.47891c-.13142.87379-.86331 2.62432-1.07683 4.23589 8.03113 2.59481 24.56781 1.64809 29.10314.89405.0339-.4156 1.18898-4.67762 1.08485-4.67278-5.67658.26352-21.03712 1.14561-29.11122-.45716z" id="path8784"/><path style="display:inline;fill:#bababa;opacity:1;stroke-width:1.06757236" d="m256.13454 452.28211c-.31219.66719-1.36989 3.09989-1.60924 3.83337 8.08431 2.27819 22.80798 1.60326 27.89528.82415.0339-.4156-.34611-4.46954-.44914-4.45364-3.9589.61103-17.63372 1.03948-25.83696-.20388z" id="path8786"/><path style="display:inline;fill:#bababa;opacity:1;stroke-width:1.0537138" d="m256.14268 452.30945c.0256.75672 1.46465.51754 1.67271.48491 8.88067-16.09379 20.38634-4.21812 22.62481.2889.67955.4254 1.49426-.2922 1.48003-.39281-1.51184-10.68402-18.5041-18.44209-25.77761-.38098z" id="path8788"/><path style="display:inline;fill:#bababa;opacity:1;stroke-width:1.137784" d="m271.98195 506.19851c-.85396.28507-1.46813-.13021-2.42928-.16683.3463-16.09115 7.39633-51.7556 10.90852-55.90718.5548.2428 1.08728 2.23892.86047 2.947-1.36902 4.27394-7.93616 29.3697-9.33971 53.12701z" id="path8790"/><path style="display:inline;fill:#bababa;opacity:1;stroke-width:1.137784" d="m250.32385 500.61042c-.85396.28507-.59156-.13021-1.55272-.16683-1.33377-16.31029 3.96314-47.0806 11.34681-54.66538.5548.24279.8208 1.07756.42219 1.7052-1.36903 2.15558-11.7346 21.62674-10.21628 53.12701z" id="path8792"/></svg>