<svg viewBox="0 0 560 1e3"><path style="display:inline;fill-opacity:1;fill-rule:evenodd;fill:#221c24;opacity:1;stroke-dasharray:none;stroke-linecap:butt;stroke-linejoin:miter;stroke-miterlimit:4;stroke-opacity:1;stroke-width:0;stroke:#000" d="m350.44891 411.28161c-41.34356 12.40411-56.35277 29.50718-67.32299 47.0649-1.04023 1.75909-1.92047 7.35117-4.50173 9.70959-.97785.89343-3.70051-.0277-4.03805.0431-.91345.19159-2.09488.29968-2.84109.24274-1.3589-.10369-3.10427-.97079-4.62926-2.64607-1.15035-1.26373-2.1753-2.98733-2.81436-5.19001-8.27893-10.93923-27.60352-39.54369-38.34145-47.86102.0176-.005-.05-.20603.59439-1.93851 29.91996 7.91079 37.53385 11.40066 123.28163-1.21761.0.0.63138 1.78415.61291 1.79289z" id="path2039"/><path style="display:inline;fill-opacity:1;fill:#fff;stroke-dasharray:none;stroke-linecap:butt;stroke-linejoin:miter;stroke-miterlimit:4;stroke-opacity:1;stroke-width:0;stroke:#83afc8" d="m225.9378 412.66104c.12717-.79329.24724-.90642.25482-.95601 23.02972 9.12926 54.6817 12.66174 123.82806-1.73671.0291.083.24793.57628.45084 1.30322-7.49448 2.32559-13.58511 4.61432-22.50451 8.15633-60.49161 9.75774-83.56164 4.33761-97.57663-2.66633-1.68147-1.78024-2.87542-3.01265-4.45258-4.1005z" id="path2041"/><path style="display:inline;fill-opacity:1;fill:#000;stroke-dasharray:none;stroke-linecap:butt;stroke-linejoin:miter;stroke-miterlimit:4;stroke-opacity:1;stroke-width:0;stroke:#83afc8" d="m273.84597 422.32819c-.2328.22148-3.10989-1.76118-4.05675-1.7506-.88928.009-1.34282-.11971-2.27558-.12183-.9589.24822-3.85377 1.69706-4.24975 1.33907-.26898-.42126 1.04376-6.70708 1.3731-6.74802.31674-.42391 2.98965 2.31946 3.2433 2.29256.82267.0992 1.17444.13057 1.9392.0571.22272.0471 4.30259-2.4827 4.68361-2.01247.0.0.51598 5.4778-.65713 6.94427z" id="path2043"/><path style="display:inline;fill-opacity:1;fill:#fff;stroke-dasharray:none;stroke-linecap:butt;stroke-linejoin:miter;stroke-miterlimit:4;stroke-opacity:1;stroke-width:0;stroke:#83afc8" d="m241.44907 429.61473c16.19921 3.4137 37.32679 4.09867 68.75142-.23858-1.10723.72649-4.9682 3.64884-9.02733 7.02192-26.13262 3.68145-42.62028 3.1439-53.96133.73077-1.89388-2.48871-3.25794-4.54662-5.76276-7.51411z" id="path2045"/><path style="display:inline;fill-opacity:1;fill:#fff;stroke-dasharray:none;stroke-linecap:butt;stroke-linejoin:miter;stroke-miterlimit:4;stroke-opacity:1;stroke-width:0;stroke:#83afc8" d="m252.70414 444.58541c10.94342 1.31488 24.01095 1.50229 40.32871.0811-1.56759 2.01272-3.58281 4.56444-5.24245 6.66295-12.30604 1.16431-22.00263 1.20882-29.81942.51362-2.04934-2.61037-3.63449-4.68604-5.26684-7.25767z" id="path2047"/><path style="display:inline;fill-opacity:1;fill:#fff;stroke-dasharray:none;stroke-linecap:butt;stroke-linejoin:miter;stroke-miterlimit:4;stroke-opacity:1;stroke-width:0;stroke:#83afc8" d="m262.53421 458.18295c6.22871.31514 13.08896.30377 20.72809-.0971-.87505 2.4389-1.64015 4.66739-2.42955 6.53665-5.25319.34928-9.97649.47387-14.24234.41152-1.68576-1.69159-2.0194-4.59693-4.0562-6.85107z" id="path2049"/><path style="display:inline;fill-opacity:1;fill:#fff;stroke-dasharray:none;stroke-linecap:butt;stroke-linejoin:miter;stroke-miterlimit:4;stroke-opacity:1;stroke-width:0;stroke:#83afc8" d="m273.77656 422.05078c-.22773.20071-3.04222-1.59607-3.96848-1.58649-.86995.007-1.31362-.10844-2.22606-.1104-.93805.22496-3.76994 1.53796-4.1573 1.21353-.26314-.38175 1.02105-6.0783 1.34323-6.11539.30984-.38418 2.9246 2.10201 3.17272 2.07764.80478.0899 1.1489.11833 1.89701.0517.21788.0427 4.20899-2.24995 4.58171-1.8238.0.0.50475 4.96424-.64283 6.29323z" id="path2051"/><path style="display:inline;fill-opacity:1;fill:#000;stroke-dasharray:none;stroke-linecap:butt;stroke-linejoin:miter;stroke-miterlimit:4;stroke-opacity:1;stroke-width:0;stroke:#83afc8" d="m269.77476 420.5497c-.92245.007-1.3929-.11578-2.36041-.11788-.13054-1.1415-.0278-2.30441.3803-3.01559.85335.096 1.21824.12635 2.0115.0552.54236.49792.13588 2.28954-.0314 3.07827z" id="path2053"/><path style="display:inline;fill-opacity:1;fill:#fff;stroke-dasharray:none;stroke-linecap:butt;stroke-linejoin:miter;stroke-miterlimit:4;stroke-opacity:1;stroke-width:0;stroke:#83afc8" d="m269.62401 420.48722c-.78722.007-1.18868-.11089-2.01435-.11289-.1114-1.09313-.0237-2.20674.32455-2.88779.72823.0919 1.03962.121 1.71658.0529.46284.47682.11596 2.19251-.0268 2.94782z" id="path2055"/><path style="display:inline;fill-opacity:1;fill-rule:evenodd;fill:#000;opacity:1;stroke-dasharray:none;stroke-linecap:butt;stroke-linejoin:miter;stroke-miterlimit:4;stroke-opacity:1;stroke-width:0;stroke:#000" d="m282.94456 458.76549c-.0483.15247-.11284.47208-.19954.90622-.41277 2.06685-1.81439 6.53069-3.87757 8.11265-.26921.20642-1.13559 1.14752-4.57861.28177-.17398-.0437-2.18026 1.1699-4.2783.12449-4.65827-2.32112-6.22252-8.10904-6.31915-8.53686 3.82592 9.08132 8.89939 9.3147 10.40315 7.55401 5.26837 2.79873 7.50839-4.81217 8.85002-8.44228z" id="path2057"/><path id="path5105-9" d="m314.29363 275.41775c-11.17521-9.01494-12.4097-15.14101-7.89117-19.74018 4.39197-3.8424 6.88957 2.34093 7.73764 2.30651.91083-.037 3.81637-6.6957 8.90989-1.10433 1.95047 3.23747 3.85989 8.22888-8.75638 18.538z" style="display:inline;fill-opacity:1;fill:#221c24;opacity:1"/><path id="path5108-0" d="m250.89207 252.6388c2.17936 3.1811 1.53948 6.60232-.25668 9.35142-1.76376 4.04756-8.95235 7.38221-13.05084 10.98292-.31955-.6623-.43976-2.94107-.17968-5.70202.36114-3.83527.82687-8.67702 1.38235-11.41026.0255-.12488.018-.28223.10023-.35303.41452-.35698 2.14562-2.10082 3.35102-3.0726 1.76992-1.42689 2.65742-1.49977 3.54382-1.65913.96726-.17389-1.036 1.82822-.91963 2.00476.16707.10437 4.61931-2.05348 6.02941-.14206z" style="display:inline;fill-opacity:1;fill:#221c24;opacity:1;stroke-width:1.0654707"/></svg>