<svg viewBox="0 0 560 1e3"><path style="baseline-shift:baseline;clip-rule:nonzero;color-interpolation-filters:linearRGB;color-interpolation:sRGB;color-rendering:auto;color:#000;direction:ltr;display:inline;enable-background:accumulate;fill-opacity:1;fill-rule:evenodd;fill:#000;image-rendering:auto;isolation:auto;mix-blend-mode:normal;opacity:1;overflow:visible;shape-rendering:auto;solid-color:#000000;solid-opacity:1;stroke-dasharray:none;stroke-dashoffset:0;stroke-linecap:butt;stroke-linejoin:miter;stroke-miterlimit:4;stroke-opacity:1;stroke-width:3.09140849;stroke:none;visibility:visible;white-space:normal;writing-mode:lr-tb" d="M463.29941 584.82708c-60.92356-73.85257-82.29602-171.25738-113.43216-177.32554.0186 1.15703-123.77615 5.6309-124.42682 6.65681-18.48533 29.14598-29.38774 114.59576-79.56582 175.76901 2.75517 5.65293 22.06331-.72531 33.80548 2.88917 12.4756 3.84023 17.86803 17.54855 37.01589 19.32883 13.80944 1.28395 33.83863-14.90609 49.51706-14.5824 17.48367.36097 30.76244 17.12442 48.8053 16.41383 15.30041-.60258 29.7602-18.89134 44.22615-20.17862 17.05717-1.51788 33.84689 13.83977 48.02468 11.48929 12.73624-2.11149 18.98557-15.49302 27.97311-18.17746 13.076-3.90559 26.42049 2.59214 28.05713-2.28292z" id="path8288"/><path style="baseline-shift:baseline;clip-rule:nonzero;color-interpolation-filters:linearRGB;color-interpolation:sRGB;color-rendering:auto;color:#000;direction:ltr;display:inline;enable-background:accumulate;fill-opacity:1;fill-rule:evenodd;fill:#214478;image-rendering:auto;isolation:auto;mix-blend-mode:normal;opacity:1;overflow:visible;shape-rendering:auto;solid-color:#000000;solid-opacity:1;stroke-dasharray:none;stroke-dashoffset:0;stroke-linecap:butt;stroke-linejoin:miter;stroke-miterlimit:4;stroke-opacity:1;stroke-width:3.03410745;stroke:none;visibility:visible;white-space:normal;writing-mode:lr-tb" d="m461.96477 585.87859c-66.34964-83.92017-82.49148-170.8566-111.51189-175.52197.0179 1.15703-123.40461-.0391-123.95083 1.03181-15.29616 29.989-36.27131 139.1656-79.18134 178.79845 4.00291 5.51658 18.3578-2.12271 32.07863 1.23838 12.04412 2.95035 22.545 17.13524 39.48187 18.59057 14.76362 1.26858 31.27873-14.26482 48.03471-14.02196 15.84901.22972 31.87628 16.28703 48.10893 15.68846 15.65678-.57733 29.76151-18.4903 44.53246-19.75878 16.57827-1.42369 33.62852 13.71244 47.45968 11.52237 13.13159-2.0793 18.62585-15.43931 27.76536-18.11255 10.67889-3.1235 24.13918 4.33992 27.18242.54522z" id="path8290"/><path style="display:inline;fill-opacity:1;fill-rule:evenodd;fill:#c8c8c8;opacity:1;stroke-dasharray:none;stroke-linecap:butt;stroke-linejoin:miter;stroke-miterlimit:4;stroke-opacity:1;stroke-width:0;stroke:#000" d="m435.03581 547.30475c.87928 1.27882 1.7109 2.98362 3.05659 4.56259-139.19024 27.10049-253.59686 18.45874-268.49283 8.55681 1.23075-3.80036 3.25332-5.45521 3.25332-5.45521 13.9041 9.88059 125.30889 15.14574 262.18292-7.66419z" id="path8190-64-5-6"/></svg>