<svg viewBox="0 0 560 1e3"><path id="path5958" d="m347.87122 216.10417c-2.2742-3.975-5.32807-5.56966-2.31247-5.91928 8.0577-.9342 10.1468-3.46088 33.205-3.16488 1.51521 8.78268 3.8724 15.92356 7.50736 41.08777-4.75372 2.42248-20.67166 10.14257-25.4744 12.37158-6.76698-20.22007-12.61438-43.93416-12.92549-44.37519z" style="display:inline;fill-opacity:1;fill-rule:evenodd;fill:#fff;stroke-dasharray:none;stroke-linecap:butt;stroke-linejoin:miter;stroke-miterlimit:4;stroke-opacity:0;stroke-width:3.05055022;stroke:#000"/><path id="path5960" d="m347.79149 214.93549c-2.23963-3.9037-4.93456-4.44331-2.27732-5.81311 9.24698-4.76679 17.1151-6.31742 29.52175-2.0418 2.52235 4.42147 4.75505 14.00756 8.94088 42.00509-6.38961 9.04772-16.39674 10.78421-23.45635 9.42909-6.66409-19.85739-12.42259-43.14615-12.72896-43.57927z" style="display:inline;fill-opacity:1;fill-rule:evenodd;fill:#1a1a1a;stroke-dasharray:none;stroke-linecap:butt;stroke-linejoin:miter;stroke-miterlimit:4;stroke-opacity:0;stroke-width:3;stroke:#000"/><path id="path1686-2-6-4-4" d="m323.98663 114.49667c-1.31507-6.93158-5.73055-21.00072 9.17569-30.085263 19.95945-4.73561 38.57743 10.155391 41.6785 13.395001.79843.59726 1.17634 1.59111 1.26925 2.800492.26095 3.39678-1.72637 8.49385-2.95909 11.27955-.53861 1.21717-.93316 1.99307-.93316 1.99307s-44.58433 9.17009-48.23119.61715z" style="display:inline;fill-opacity:1;fill:#1a1a1a;stroke-dasharray:none;stroke-linecap:butt;stroke-linejoin:miter;stroke-miterlimit:4;stroke-opacity:1;stroke-width:0;stroke:#83afc8"/></svg>