<svg viewBox="0 0 560 1e3"><path id="path2316-4" d="m362.62096 412.36033c.17594.29463.25367.39966.14343.43358-11.64785 3.58424-54.77333 12.56155-66.84263 28.92391-5.44325 7.37942-12.7957 15.81041-13.00807 16.4538-3.5825-2.3145-16.67981-13.10929-18.83826.27544-3.18111.37789-22.94602-35.81939-38.67143-44.63334.11113-.0316.41697-.90137.51991-1.06255.0911-.14259.28025.0854.40697.19488 43.76307 37.81395 119.04026-1.93695 136.1807-.71069z" style="display:inline;fill-opacity:1;fill-rule:evenodd;fill:#7d0000;opacity:1;stroke-dasharray:none;stroke-linecap:butt;stroke-linejoin:miter;stroke-miterlimit:4;stroke-opacity:1;stroke-width:0;stroke:#000"/><path id="path2316-9-7-3-04-7" d="m293.83007 219.59713s-10.96913-8.46365-12.71179-15.33852c-.12533-.49445 1.1153-.81274 1.36032-.83722 1.87606 5.84839 12.7198 15.45568 13.18311 15.5587.45102.10029 23.51884-8.96593 28.02136-15.02582.0933.48674 1.42209.51908 1.2554.97356-2.43634 6.64259-28.06395 15.09834-28.09198 15.11538-.0224.0173-1.51243.49646-1.73051.48664-.12409-.0369-1.22038-.88629-1.28591-.93272z" style="display:inline;fill-opacity:1;fill-rule:nonzero;fill:#7d0000;opacity:1;stroke-dasharray:none;stroke-linecap:butt;stroke-linejoin:miter;stroke-miterlimit:4;stroke-opacity:1;stroke-width:0;stroke:#000"/></svg>