<svg viewBox="0 0 560 1e3"><path style="display:inline;fill-opacity:1;fill-rule:evenodd;fill:#000;opacity:1;stroke-dasharray:none;stroke-linecap:butt;stroke-linejoin:miter;stroke-miterlimit:4;stroke-opacity:1;stroke-width:0;stroke:#000" d="m368.45236 268.83602c.40069 1.40387.82871 12.89967-6.36035 37.77919-7.32948 25.39302-46.25579 50.21893-32.10865 72.69961-32.89181 6.65266-76.33001 11.61922-90.69809-5.38372 2.433-12.49684 4.19127-19.92717 4.36254-35.13031.24452-21.70551-6.08737-33.66342-6.98584-46.20078.40962-35.13389 30.30326-40.0847 52.38713-59.43686.97617-2.02088 2.08274-20.02947-11.82749-27.30895-.63873-.33426 5.09757-2.74283 9.6221-5.14517 9.24713 11.38115 25.18214 3.12903 31.26177-2.13928 1.50252 1.12706 9.10193 4.89722 7.88644 5.69617-25.72677 16.91039-30.9022 28.84774-29.45936 29.06832 3.13994 1.52155 66.54554 33.43249 67.65165 34.25705z" id="path3636"/><path style="display:inline;fill-opacity:1;fill-rule:evenodd;fill:#fff;opacity:1;stroke-dasharray:none;stroke-linecap:butt;stroke-linejoin:miter;stroke-miterlimit:4;stroke-opacity:1;stroke-width:0;stroke:#000" d="m368.47602 268.56519c-.47811 3.70196-1.71839 20.80284-7.95729 39.14162-5.70331 22.34363-45.52558 47.64607-32.17465 70.44625-31.15729 6.94181-77.3071 10.62018-87.90947-4.94057 2.40743-12.49684 4.43231-29.2995 4.60178-32.17365 1.27707-21.66848-5.53672-33.8742-6.42575-46.41156-3.49765-53.35898 12.93818-79.84335 38.32548-88.64617.49229-.51848 5.43756-2.25669 9.91452-4.65903 9.14993 11.38115 24.91744 3.12903 30.93316-2.13928 1.48672 1.12706 18.23182 7.00546 18.7637 8.34782 40.52013.35863 36.88575 49.2706 31.92852 61.03457z" id="path3638"/></svg>