<svg viewBox="0 0 560 1e3"><path id="path4680" d="m488.80113 163.95524-2.6-6.85524c19.27977 1.64821 39.14405.56872 58.89887.0l-3.8 7.9c-18.27129.42342-36.80253 1.10677-52.49887-1.04476z" style="fill:#070505" transform="translate(-220)"/><path id="path4685-0-2" d="m290.86192 161.10602c0 4.80488-3.57054 8.7-7.975 8.7-.15658.0-.31212-.005-.46647-.0146-4.18737-.26347-7.50853-4.05131-7.50853-8.68537.0-4.68504 3.39465-8.50514 7.64706-8.69278.10877-.005.2181-.007.32794-.007 4.40446.0 7.975 3.89512 7.975 8.7z" style="display:inline;fill:#000;stroke-width:1.02437401"/><path id="path4685-0" d="m290.48692 161.10602c0 4.80488-3.40264 8.7-7.6 8.7-.14922.0-.29744-.005-.44453-.0146-3.99047-.26347-7.15547-4.05131-7.15547-8.68537.0-4.68504 3.23503-8.50514 7.28748-8.69278.10365-.005.20784-.007.31252-.007 4.19736.0 7.6 3.89512 7.6 8.7z" style="display:inline;fill:#f0f"/><path id="path4685-17" d="m283.96368 156.88609c.0517.85584-.52858 1.62912-1.29611 1.72719-.0275.003-.0545.006-.0815.007-.73254.0463-1.35206-.55444-1.40195-1.37985-.0504-.8345.5-1.59051 1.23903-1.7186.0188-.004.0381-.006.0568-.009.76752-.0981 1.43166.51623 1.48338 1.37207z" style="display:inline;fill:purple;stroke-width:.18116926"/><path id="path4685-17-4" d="m288.00471 161.56163c.0517.85584-.52858 1.62912-1.29611 1.72719-.0275.003-.0545.006-.0815.007-.73254.0463-1.35206-.55444-1.40195-1.37985-.0504-.8345.5-1.59051 1.23903-1.7186.0188-.004.0381-.006.0568-.009.76752-.0981 1.43166.51623 1.48338 1.37207z" style="display:inline;fill:purple;stroke-width:.18116926"/><path id="path4685-17-1" d="m280.32105 161.31699c.0517.85584-.52858 1.62912-1.29611 1.72719-.0275.003-.0545.006-.0815.007-.73254.0463-1.35206-.55444-1.40195-1.37985-.0504-.8345.5-1.59051 1.23903-1.7186.0188-.004.0381-.006.0568-.009.76752-.0981 1.43166.51623 1.48338 1.37207z" style="display:inline;fill:purple;stroke-width:.18116926"/><path id="path4685-17-4-4" d="m283.88979 165.66714c.0517.85584-.52858 1.62912-1.29611 1.72719-.0275.003-.0545.006-.0815.007-.73254.0463-1.35206-.55444-1.40195-1.37985-.0504-.8345.5-1.59051 1.23903-1.7186.0188-.004.0381-.006.0568-.009.76752-.0981 1.43166.51623 1.48338 1.37207z" style="display:inline;fill:purple;stroke-width:.18116926"/></svg>