<svg viewBox="0 0 560 1e3"><path id="path4265" d="m346.23322 215.0979c-2.35682-3.946-20.29304-9.49697-17.17028-9.86339 8.97953-1.42519 26.17306-.73242 35.90971 2.70568 19.94738 7.0436 30.29948 25.05325 29.69168 56.00353-5.99504 4.32238-18.19268 11.12694-35.51958 13.72132-1.774-14.9141-7.13211-49.43901-12.91153-62.56714z" style="display:inline;fill-opacity:1;fill-rule:evenodd;fill:#000;stroke-dasharray:none;stroke-linecap:butt;stroke-linejoin:miter;stroke-miterlimit:4;stroke-opacity:0;stroke-width:3.09411693;stroke:#000"/><path id="path4267" d="m347.79149 214.93549c-2.23963-3.9037-19.28401-9.39515-16.31653-9.75765 10.80402-1.10433 26.89084-.23338 36.55444 4.25891 17.75469 8.25357 26.80604 26.79187 26.09139 55.13413-5.28438 2.74352-19.18146 9.0828-33.98254 12.00212-1.68724-14.60929-6.91225-48.78619-12.34676-61.63751z" style="display:inline;fill-opacity:1;fill-rule:evenodd;fill:#ececec;stroke-dasharray:none;stroke-linecap:butt;stroke-linejoin:miter;stroke-miterlimit:4;stroke-opacity:0;stroke-width:3;stroke:#000"/><path id="path4269" d="m400.93022 276.45253c-.44686-5.43372-1.78456-15.4463-2.65867-21.05585-8.29035-.48887-30.32454 5.65737-39.92549 6.00083.51745 8.92343.90902 17.97366.98294 21.95335 21.11453-.78048 41.05202-7.05166 41.60122-6.89833z" style="display:inline;fill-opacity:1;fill-rule:evenodd;fill:#000;stroke-dasharray:none;stroke-linecap:butt;stroke-linejoin:miter;stroke-miterlimit:4;stroke-opacity:0;stroke-width:3.21209121;stroke:#000"/><path id="path4271" d="m399.83719 275.66787c-.42589-4.99171-1.68181-14.19143-2.49966-19.3459-7.59713-.47477-28.61187 5.48011-37.40727 5.76571.5011 8.19687.88728 16.50986.96709 20.165 19.34288-.65121 38.43619-6.72734 38.93984-6.58481z" style="display:inline;fill-opacity:1;fill-rule:evenodd;fill:#ececec;stroke-dasharray:none;stroke-linecap:butt;stroke-linejoin:miter;stroke-miterlimit:4;stroke-opacity:0;stroke-width:2.9464376;stroke:#000"/></svg>