<svg viewBox="0 0 560 1e3"><path class="skin" d="m226.3 412.5c31.3-22.1 86.4-32 124.3-2.1 25.6 20.2 45.7 60.3 31.5 80.6-10.7 15.2-39.7 17.8-60 10-25.7-9.9-26.6-32.4-47.3-34.5-20-2-27.3 18.1-48.4 14.8-13.3-2.1-26.9-12.7-29.3-25.3-3.9-20.2 22.1-38.5 29.2-43.5z" id="path62"/><path d="m226.3 412.5c27.9-30 93.7-36.4 123.8-1.4 18.2 21.2 25.4 60.2 7 78.9-8.2 8.3-22.1 13.3-35 11-24.2-4.4-25.9-31.9-47.3-34.5C256.7 464.3 248.5 483 231 478 220.9 475.1 221.28701 468.07973 218.48701 460.07973 216.5943 437.63189 223.7 415.2 226.3 412.5z" class="skin" id="Stump_Normal-0"/><path d="m226.3 412.5c20-34.8 104.4-37.1 124-1.5 11.9 21.7 1.4 60.5-22.3 72-.8.4-20.2 9.5-34 1-9.5-5.8-10.3-16.2-19.3-17.5-6.4-1-8.4 3.9-17.8 5.5-9.2 1.5-18.7-1.3-24-5-14.1-9.8-16-38.2-6.6-54.5z" class="skin" id="Stump_Narrow-1"/></svg>