<svg viewBox="0 0 560 1e3"><path style="display:inline;fill-opacity:1;fill-rule:evenodd;fill:#eaf;opacity:1;stroke-dasharray:none;stroke-linecap:butt;stroke-linejoin:miter;stroke-miterlimit:4;stroke-opacity:1;stroke-width:0;stroke:#000" d="m362.3043 413.36134c-51.41983 14.7906-68.20816 27.42745-79.17838 44.98517-1.04023 1.75909-1.92047 7.35117-4.50173 9.70959-.97785.89343-3.70051-.0277-4.03805.0431-.91345.19159-2.09488.29968-2.84109.24274-1.3589-.10369-3.10427-.97079-4.62926-2.64607-1.15035-1.26373-2.1753-2.98733-2.81436-5.19001-7.02893-7.18923-29.10352-25.91869-38.34145-47.86102.0176-.005-.05-.20603.59439-1.93851 29.91996 7.91079 50.09635 9.90066 135.84413-2.71761.0.0-.0757 5.36388-.0942 5.37262z" id="path5930"/><path style="display:inline;fill-opacity:1;fill:#eaf;stroke-dasharray:none;stroke-linecap:butt;stroke-linejoin:miter;stroke-miterlimit:4;stroke-opacity:1;stroke-width:0;stroke:#83afc8" d="m225.9378 412.66104c.12717-.79329.24724-.90642.25482-.95601 23.02972 9.12926 67.15581 11.20593 136.30217-3.19252.0291.083-.0614 2.65341-.12368 3.64552-43.51258 9.82623-92.34712 16.57336-133.4589 6.0264-.19646-.18478-2.83934-5.37591-2.97441-5.52339z" id="path5932"/><path style="display:inline;fill-opacity:1;fill-rule:evenodd;fill:#000;opacity:1;stroke-dasharray:none;stroke-linecap:butt;stroke-linejoin:miter;stroke-miterlimit:4;stroke-opacity:1;stroke-width:0;stroke:#000" d="m282.94456 458.76549c-.0483.15247-.11284.47208-.19954.90622-.41277 2.06685-1.81439 6.53069-3.87757 8.11265-.26921.20642-1.13559 1.14752-4.57861.28177-.17398-.0437-2.18026 1.1699-4.2783.12449-4.65827-2.32112-6.22252-8.10904-6.31915-8.53686 3.82592 9.08132 8.89939 9.3147 10.40315 7.55401 5.26837 2.79873 7.50839-4.81217 8.85002-8.44228z" id="path5934"/><path id="path5936" d="m234.60256 427.93872c16.19921 3.4137 52.20455 5.49343 83.62918 1.15618-1.10723.72649-7.93695 3.83634-12.55858 6.92817-26.13262 3.68145-53.86584 2.2702-65.20689-.14293-1.89388-2.48871-3.84503-4.66458-5.86371-7.94142z" style="display:inline;fill-opacity:1;fill:#eaf;stroke-dasharray:none;stroke-linecap:butt;stroke-linejoin:miter;stroke-miterlimit:4;stroke-opacity:1;stroke-width:0;stroke:#83afc8"/><path id="path5938" d="m247.95327 444.36444c10.94342 1.31488 29.77745 1.94201 46.09521.52033-1.56759 2.01272-4.3557 4.42382-6.01534 6.52233-12.30604 1.16431-24.74234 1.19698-32.55913.50178-2.13773-1.85907-5.40225-4.9733-7.52074-7.54493z" style="display:inline;fill-opacity:1;fill:#eaf;stroke-dasharray:none;stroke-linecap:butt;stroke-linejoin:miter;stroke-miterlimit:4;stroke-opacity:1;stroke-width:0;stroke:#83afc8"/><path id="path5940" d="m262.53421 458.18295c6.22871.31514 13.08896.30377 20.72809-.0971-.87505 2.4389-1.64015 4.66739-2.42955 6.53665-5.25319.34928-9.97649.47387-14.24234.41152-1.68576-1.69159-2.0194-4.59693-4.0562-6.85107z" style="display:inline;fill-opacity:1;fill:#eaf;stroke-dasharray:none;stroke-linecap:butt;stroke-linejoin:miter;stroke-miterlimit:4;stroke-opacity:1;stroke-width:0;stroke:#83afc8"/><path style="display:inline;fill-opacity:1;fill:#eaf;stroke-dasharray:none;stroke-linecap:butt;stroke-linejoin:miter;stroke-miterlimit:4;stroke-opacity:1;stroke-width:0;stroke:#83afc8" d="m271.02081 416.82683c-.40499.0203-2.65956.56808-4.1375-.83724-4.16958-3.96471-10.17596-9.87921-10.68888-9.8703-4.579 14.03976 6.16335 16.1551 5.27505 17.72345 2.40799.6564 7.98463 6.14075 21.22352-.42033-1.20838-1.7332 10.55044-3.69019 5.51126-16.9532-1.34763.35186-8.56003 6.49771-13.30543 9.96822-1.31933.96489-3.20132.3151-3.87831.38931z" id="path5853-4"/><path style="display:inline;fill-opacity:1;fill:#000;stroke-dasharray:none;stroke-linecap:butt;stroke-linejoin:miter;stroke-miterlimit:4;stroke-opacity:1;stroke-width:0;stroke:#000" d="m369.9838 421.84455s.90522-3.71477 1.23561-3.80327c-1.21534-3.75726-8.84438-7.8256-8.90737-7.95693-10.52727-21.94918 14.2534-.93604 1.17112.59258.0295-.17605.20585.63851.20585.63851 18.06723-2.3882-15.05115-26.45838-1.90037-1.10352.0103.0448 6.48299 6.86889 8.19516 11.63263z" id="path4332-3-5"/><path style="display:inline;fill-opacity:1;fill:#eaf;stroke-dasharray:none;stroke-linecap:butt;stroke-linejoin:miter;stroke-miterlimit:4;stroke-opacity:1;stroke-width:0;stroke:#000" d="m370.22685 421.61734s.90522-3.71476 1.2356-3.80326c-1.21533-3.75726-8.84466-7.82546-8.90736-7.95694-10.51953-22.05892 14.79918-.81495 1.17111.59259.0295-.17605.20585.63851.20585.63851 18.59901-2.19315-16.36615-26.99934-1.90036-1.10352.0103.0448 6.48298 6.86889 8.19516 11.63262z" id="path4334-7-3"/><path style="display:inline;fill-opacity:1;fill:#000;stroke-dasharray:none;stroke-linecap:butt;stroke-linejoin:miter;stroke-miterlimit:4;stroke-opacity:1;stroke-width:0;stroke:#000" d="m363.38338 411.57416s-.0402-.24272-.17351-.71431c-20.6074 7.681-6.89527-22.17686-.16577-1.60176.0252.077-3.37763 8.23048-2.89317 10.45879.66187-.20196 3.10181 4.16632 3.10181 4.16632-1.2295-5.89337.27249-14.69057.24656-14.77148-8.33078-25.98859-23.21991 14.23924-.11586 2.46243z" id="path4336-6-1"/><path style="display:inline;fill-opacity:1;fill:#eaf;stroke-dasharray:none;stroke-linecap:butt;stroke-linejoin:miter;stroke-miterlimit:4;stroke-opacity:1;stroke-width:0;stroke:#000" d="m363.62643 411.34697s-.0402-.24273-.17352-.71432c-20.56708 7.61314-6.91981-22.94111-.16578-1.60175.0244.0772-3.37763 8.23048-2.89316 10.45878.66187-.20195 3.10181 4.16632 3.10181 4.16632-1.22951-5.89336.27401-14.69108.24655-14.77148-9.06764-26.54947-23.333 14.16775-.11586 2.46243z" id="path4338-4-5"/><path style="display:inline;fill-opacity:1;fill:#000;stroke-dasharray:none;stroke-linecap:butt;stroke-linejoin:miter;stroke-miterlimit:4;stroke-opacity:1;stroke-width:0;stroke:#000" d="m221.6569 423.82583s-1.4474-3.53892-1.78727-3.57732c.64327-3.89619 7.58295-9.05339 7.6255-9.19269 5.56195-18.20892-10.27027 2.44141-1.07001.76009-.0553-.16971-.10864.66202-.10864.66202-12.47444 1.36473 9.0497-22.8518 1.7152-1.37377-.004.0458-5.38981 7.75633-6.37478 12.72167z" id="path4332-3-9-2"/><path style="display:inline;fill-opacity:1;fill:#eaf;stroke-dasharray:none;stroke-linecap:butt;stroke-linejoin:miter;stroke-miterlimit:4;stroke-opacity:1;stroke-width:0;stroke:#000" d="m221.38278 423.63728s-1.4474-3.53891-1.78727-3.57732c.64327-3.89618 7.57588-9.05573 7.6255-9.1927 6.47204-17.86415-10.93432 2.02596-1.07.76011-.0554-.16971-.10864.66201-.10864.66201-13.43477 2.55476 10.70651-23.48257 1.71519-1.37376-.004.0458-5.38981 7.75633-6.37478 12.72166z" id="path4334-7-2-2"/><path style="display:inline;fill-opacity:1;fill:#000;stroke-dasharray:none;stroke-linecap:butt;stroke-linejoin:miter;stroke-miterlimit:4;stroke-opacity:1;stroke-width:0;stroke:#000" d="m226.65718 412.68834s.004-.246.0654-.73217c21.72011 4.11951 2.88094-20.98739-.0742-1.6086-.0122.0801 4.56365 7.6369 4.41583 9.91247-.68454-.10132-2.44797 4.58114-2.44797 4.58114.33972-6.01066-2.45857-14.48783-2.43976-14.57069 5.31968-23.43106 25.32651 10.578.48063 2.41785z" id="path4336-6-6-7"/><path style="display:inline;fill-opacity:1;fill:#eaf;stroke-dasharray:none;stroke-linecap:butt;stroke-linejoin:miter;stroke-miterlimit:4;stroke-opacity:1;stroke-width:0;stroke:#000" d="m226.38305 412.4998s.004-.246.0654-.73217c21.825 4.21533 4.23573-21.26198-.0742-1.6086-.0173.0791 4.56365 7.6369 4.41583 9.91246-.68454-.10131-2.44798 4.58115-2.44798 4.58115.33974-6.01066-2.45828-14.48778-2.43975-14.57069 5.43171-24.30662 25.31159 10.66734.48064 2.41784z" id="path4338-4-4-0"/><path style="display:inline;fill-opacity:1;fill-rule:evenodd;fill:#fff;opacity:1;stroke-dasharray:none;stroke-linecap:butt;stroke-linejoin:miter;stroke-miterlimit:4;stroke-opacity:1;stroke-width:0;stroke:#000" d="m367.75885 281.798c-.33634 1.07095.008 2.03659-.34043 2.87146-3.46661-.44813-4.68866 1.98352-8.20642 1.58066-2.48965-.28511-5.12455-2.88572-7.62885-3.14801-2.46502-.25819-4.66373 1.93793-7.13424 1.70195-2.60679-.24898-5.48542-2.92878-8.08839-3.15292-3.34007-.28761-6.13034 1.77215-9.44502 1.52569-2.90024-.21563-6.32913-2.74232-9.19452-2.92627-2.82918-.18162-6.04477 2.79351-8.82605 2.64297-2.49159-.13486-4.55431-3.39849-6.99692-3.50829-2.78207-.12506-5.39352 2.4421-8.09821 2.34971-3.09652-.10575-6.27314-2.86593-9.24757-2.92858-3.24909-.0684-6.55434 2.68116-9.63017 2.66449-3.31401-.018-6.38346-2.79803-9.46164-2.75548-2.48175.0343-4.74542 2.53159-7.05277 2.60551-3.00662.0963-5.99279-2.21689-8.66636-2.05288-2.7258.16721-4.5895 2.69662-6.9253 2.93472-2.80639.2861-3.24353-1.89084-5.41672-1.50154-.28425-.78022-.0688-1.6429-.23554-2.57421 13.92719-3.29884 51.83669-6.42454 130.59512 3.67102z" id="path3088-3-0-0-0-2-6-7-4-6"/><path style="display:inline;fill-opacity:1;fill-rule:evenodd;fill:#fff;opacity:1;stroke-dasharray:none;stroke-linecap:butt;stroke-linejoin:miter;stroke-miterlimit:4;stroke-opacity:1;stroke-width:0;stroke:#000" d="m370.97758 249.23632-.27554 6.65854-130.6915-5.76138.93623-5.57161c2.77707-1.35916 3.84102-4.26144 7.13431-5.20827 3.86041-1.10988 4.91095 1.43324 9.30891.81708 4.43144-.62084 4.90565-3.74216 9.69392-3.94185 4.5349-.18913 5.49537 1.39878 10.18472 1.51717 1.1464.0289 3.8191-2.1004 7.00049-2.44417 3.1538-.34078 5.93251 2.81672 9.09479 2.95397 3.21425.13951 4.49768-2.65607 7.95361-2.66372 3.02477-.007 4.35719 3.07175 7.2456 3.04709 2.4614-.021 5.35274-2.29174 7.6317-1.72729 3.03139.75082 4.48679 2.99269 6.25862 3.18373 4.26592.45995 5.87768-1.66487 9.89634-1.09895 4.26088.60003 4.01494 2.9234 7.84621 3.57825 4.07352.69626 5.56199-1.68879 8.96783-1.00774 3.73837.74755 5.78747 3.92003 8.72688 4.99337 2.10551.76885 4.84148.11176 6.56056.43594 2.94435.55525 6.57093 2.12088 6.52632 2.23984z" id="path3180-8-0-7-5"/><path style="display:inline;fill-opacity:1;fill-rule:evenodd;fill:#eaf;opacity:1;stroke-dasharray:none;stroke-linecap:butt;stroke-linejoin:miter;stroke-miterlimit:4;stroke-opacity:1;stroke-width:0;stroke:#000" d="m371.15436 251.00409c-.22975 1.20922.72791 15.86681-3.56282 31.76896-47.80933-4.89707-109.40294-7.3019-130.19228-4.35099-1.07215-11.48092 3.19396-32.09242 3.19396-32.09242 35.4828-12.61017 74.84935-6.7319 130.56114 4.67445z" id="path3180-8-2-7"/><path id="path1686-7-77-70-6-0-7-3-8-7-7-1-1" d="m290.14177 246.27599c-.43658-.0293-2.89403.0864-4.39545-.96712-4.23584-2.97227-6.36151-4.89988-6.9134-4.94764-2.58381 4.78237.73382 8.24751-.31835 9.15879-2.40628 2.0841-3.27314 4.05494-3.28975 7.68013-.001.29722-5.81241.60726-5.78424.9026.0279.29232 5.8946.57053 5.95259.8589.0789.39408.18647.78439.32381 1.16896.0922.25838-8.35098 1.68375-8.23132 1.9364.13259.27981 8.83117-.61381 8.9984-.34255.25529.41405.55165.81726.89119 1.20684.13535.15527-4.31537 2.27192-4.16611 2.42276.13199.13343 4.86246-1.6985 5.00546-1.56891 4.58727 4.42846 14.45557 5.34722 21.366 2.1051.18921-.11057 4.12536 2.94182 4.30148 2.82217.18936-.12863-3.38234-3.42996-3.20792-3.56848.40952-.32531.77804-.67713 1.10658-1.0516.16384-.18668 7.30624 2.64029 7.45029 2.44283.18746-.25701-6.63031-3.54202-6.47582-3.81542.27748-.49102.5022-1.00679.67582-1.5412.0765-.23526 5.60264.54382 5.6594.30183.0517-.22082-5.36428-1.46216-5.32869-1.68773.56643-3.58837.94802-5.55783-1.48281-8.07844-1.19133-1.23532 2.44857-2.30831 1.76431-8.27865-1.47041.0848-4.39258 1.2686-9.7088 2.99542-1.47803.48009-3.46066-.13197-4.19298-.15503z" class="skin"/></svg>