<svg viewBox="0 0 560 1e3"><path id="path2855" d="m226 413.2s-17.1 47.4-18.7 71.7c-3.8 60.3 16.3 123.8 38.4 179.8 7.5 61.7 6.2 123.3 8.8 185.4l11.5-.3c2.2-51.3 34-103.9 16.3-161.5 12.8-54.2 10-72.4 5-160.3-5.4 94.3 16.6 109.1 26.4 153.5-15.6 58 5.6 110.9 6.4 169h16.3c.2-58.5 15.6-94.7 7.8-169 23.8-69.9 25.5-131.2 20.7-194.7-2-26-14.5-75.6-14.5-75.6l-124.4 2" style="fill-opacity:1;fill:gray"/><path id="path2857" class="shadow" d="m293.9 619.8c-9.8-40.3-22.5-96.7-18.5-142.8-.8 44.7 9.4 102.1 18.5 142.8z"/><path d="m226.3 412.5c27.9-30 93.7-36.4 123.8-1.4 18.2 21.2 25.4 60.2 7 78.9-8.2 8.3-22.1 13.3-35 11-24.2-4.4-25.9-31.9-47.3-34.5C256.7 464.3 248.5 483 231 478 220.9 475.1 221.28701 468.07973 218.48701 460.07973 216.5943 437.63189 223.7 415.2 226.3 412.5z" id="Stump_Normal-3-6-5-3" style="fill-opacity:1;fill:gray"/><path d="m226.3 412.5c20-34.8 104.4-37.1 124-1.5 11.9 21.7 1.4 60.5-22.3 72-.8.4-20.2 9.5-34 1-9.5-5.8-10.3-16.2-19.3-17.5-6.4-1-8.4 3.9-17.8 5.5-9.2 1.5-18.7-1.3-24-5-14.1-9.8-16-38.2-6.6-54.5z" id="Stump_Narrow-10-3-0-1" style="fill-opacity:1;fill:gray"/><path style="display:inline;fill-opacity:1;fill:#b3b3b3;stroke-width:.94552505" id="path2496-4-8-3" d="m333.83345 829.57196c-.14663-9.66929.35555-28.36645.94632-49.37836.008-.27199 7.7397.2662 7.77299-.005.48863-3.97529 1.23025-8.4699 1.47091-12.74908.014-.24939-9.03788-.52095-9.03094-.77088.92867-33.42349 1.91472-69.16605.67629-82.22479-.0124-.13082 8.85263-.0201 8.83978-.14633-.12857-1.01983-.18488-2.52394-.23143-2.77868.0562-.33413 1.56341-4.32082 1.61421-5.17952-.31027.031-4.98333-.0112-10.06018-.0459-.0571-39e-5-4.47394-21.7108-9.85609-51.70886-.0819-.4566 33.36628-.23153 33.48626-.68358 1.10649-4.16901 2.16378-10.86103 2.51407-13.76329.0548-.45421-38.65695.92048-38.73532.46735-3.92457-22.69154-8.06569-48.8678-11.23216-73.37227-.059-.45669 55.50731-.53781 55.44898-.99331-.6969-5.44218-.21938-12.92171-.80428-18.13164-.0654-.58254-56.88001.58673-56.94383.008-4.30542-44.85649 20.34751-62.50771 47.42197-97.35999-1.87036-3.6521-4.94006-7.41913-5.65461-8.06776-35.66653 39.36299-56.01145 63.58966-53.27367 105.95096.0315.32654-21.21062.0864-21.17856.41335.6152 6.27414 1.57776 13.19592 2.38557 19.57017.0404.31888 20.05497-1.30675 20.0958-.98778 3.22921 25.22594 8.11642 51.41496 12.49448 73.35846.0521.2611-20.02785 1.59665-19.97578 1.85681.93429 4.66834 2.38896 10.06337 3.74254 14.3937.0812.25991 19.02723-2.2962 19.08318-2.03116 6.354 30.09637 11.78578 51.00052 11.7006 50.99983-6.89693-.0557-13.26536-.0886-14.13202-.003.11519.90904.95291 4.79238 1.10496 5.22553-.0321.25866-.28734 1.68336-.50822 2.6519-.003.14114 14.24229.47847 14.23883.63242-.22573 10.06683-.96754 47.2983-1.60548 81.40691-.006.29528-14.87724-.0282-14.86578.26649.1815 4.66593 1.69195 11.66948 1.88143 13.87257.0329.38299 12.97967-.11608 12.97302.26635-.40944 23.55211-1.02271 43.63116-.85286 48.89443.0115.35502-5.8584.94802-5.80737 1.30181.75002 5.19982 1.28341 15.05954 1.14876 19.76236 8.60784.43817 16.69164-.0977 16.69164-.0977l.41703-20.31547s-3.39525-.12455-3.40103-.50581z"/><path style="display:inline;fill-opacity:1;fill:#b3b3b3;stroke-width:.94552505" id="path2496-4-8-1-5" d="m261.34979 828.41197c-.14663-9.66929-.43995-27.92451.15082-48.93642.008-.27199 18.2852.57426 18.31849.30306.48863-3.97529 2.48025-8.40741 2.72091-12.68659.014-.24939-20.91288-1.33345-20.90594-1.58338.92867-33.42349 2.87811-68.90088 1.63968-81.95962-.0124-.13082 20.11457.59807 20.10172.47184.36305-3.06002 1.48471-5.58141 1.69972-8.26702-.45962.0459-11.84706-.3802-21.07378-.57372-.13282-.003-5.60967-19.75671-11.62009-48.10947-.0524-.24702 39.03918.40626 39.03365.15248-.0191-.87711.12825-10.58476.0721-14.05315-.006-.3586-41.78602-.0427-41.85634-.39634-4.32175-21.73601-7.98069-48.60806-10.36748-72.93168-.0693-.70655 38.7663.11576 38.70005-.58998-.61943-6.59885-1.76838-12.68028-2.25804-20.0163-.0359-.53741-37.22772 1.33721-37.25143.80073 2.10374-62.22402-12.28128-98.37232-14.50041-102.35381.32286-2.75119-4.28397 13.19069-4.34148 15.58668 5.96498 25.16653 8.49118 40.70609 8.7453 86.54831.0172.26978-20.79172 1.17969-20.77418 1.44939.41576 6.3906 1.6836 13.84979 2.28365 20.15297.0261.27445 20.12868-1.18423 20.15512-.91003 2.53365 26.27891 6.48389 51.42835 10.40786 72.61996.0348.18808-12.96762 1.03878-12.93279 1.22626.89561 4.82061 3.207 10.23867 4.44306 13.65968.0866.23979 10.97215-.60565 11.02226-.35714 5.78934 28.70444 11.1295 47.33723 10.91288 47.33477-2.97529-.0338-6.69675-.0843-7.22271-.0321.12826 1.42381.84039 7.3504 1.12708 8.76131-.003.14114 6.99444-.31705 6.99098-.16307-.22573 10.06683.90746 47.4233.26952 81.53191-.006.29528-2.87724-.0282-2.86578.26649.1815 4.66593.067 11.60699.25643 13.81008.0329.38299 2.13515-.26702 2.13723.11546.0325 5.96283.92184 43.71955 1.09169 48.98282.0115.35502-1.97739 1.22001-1.9647 1.57724.1313 3.69722.62272 15.40283.48807 20.10565 8.60784.43817 12.00706-.36287 12.00706-.36287.21814-6.83383 1.09665-13.44754 2.00802-20.0503.0.0-6.8424-.74327-6.84818-1.12453z"/></svg>