<svg viewBox="0 0 560 1e3"><path d="m266.56266 487.41644c-1.02095.32423-2.19079.17635-2.92249.16431-1.17374-.0187-3.47875-1.81699-3.67721-2.36577.30298-2.36283 6.37063-5.59458 10.88669-2.56186-1.46852 3.35279-2.47463 3.76341-4.28699 4.76332z" id="path3792" style="fill:#000;stroke-width:2.09582233"/><path d="m253.39299 441.78835c7.90207-14.41073 36.14612-23.84851 38.83893 9.21837.8924 1.86105-1.20406 10.22084-3.72411 20.73442-2.8861 10.26455-5.17437 21.93442-6.29702 33.56245-.73635 13.30092-3.84637 35.06329-22.65853 33.51877-10.75806-2.49684-16.19822-10.95311-20.62657-16.82184-.42112-1.97365.45396-2.95872.27055-3.70676-2.30172-9.41055-1.59398-23.52398 1.37547-39.26189 2.54663-13.49725 6.90097-27.12345 12.8209-37.24352z" id="path3794" style="fill:#000;stroke-width:5.88638449"/><path d="m277.9038 521.27034c-.0412 1.58556-2.12669 7.16181-4.12366 9.81005-4.54753 5.19656-9.98131 7.50867-16.37281 5.48122-2.98833-.0524-12.55181-7.49558-17.12505-15.06675 1.94644-6.58235 29.10696 3.78937 37.62152-.22429z" id="path3796" class="areola"/><path class="skin penis" d="m254.68681 438.97408c7.25364-14.73087 33.18037-24.37837 35.65216 9.42315.81921 1.90248-1.10522 10.44788-3.41849 21.19521-2.64928 10.49245-5.73987 22.22633-6.7705 34.11278-.12684 6.64744-.75482 10.98265-1.3751 15.05484-4.54851 5.35017-29.37307-2.11766-38.01111-1.38552-2.11289-9.61967-.57205-24.2419 2.15373-40.32949 2.33755-13.79707 6.33467-27.72594 11.76891-38.07097z" id="path3798"/></svg>