<svg viewBox="0 0 560 1e3"><path id="path5659" d="m336.02015 214.93764c-3.82162-2.58674-7.37472-2.68084-4.67775-4.32526 7.20632-4.39393 34.90539-7.29485 39.39109-3.67496-.14722.0521 18.30988 11.78936 26.61247 18.83159-6.97492 17.47991-21.55056 24.13872-24.45301 27.23945-14.84387-16.05176-36.40818-37.81779-36.8728-38.07082z" style="display:inline;fill-opacity:1;fill-rule:evenodd;fill:#fff;stroke-dasharray:none;stroke-linecap:butt;stroke-linejoin:miter;stroke-miterlimit:4;stroke-opacity:0;stroke-width:3.10714054;stroke:#000"/><path id="path5661" d="m338.06035 213.82991c-3.68135-2.5889-7.06896-2.73489-4.52365-4.30291 6.25669-2.46822 13.21976-5.21607 20.27426-5.46959 21.58633-13.26721 45.2708 7.14073 41.2013 20.06035-7.9339 17.38577-18.71842 24.93153-27.74417 26.56053-12.68985-14.04037-28.80013-36.616-29.20774-36.84838z" style="display:inline;fill-opacity:1;fill-rule:evenodd;fill:#1a1a1a;stroke-dasharray:none;stroke-linecap:butt;stroke-linejoin:miter;stroke-miterlimit:4;stroke-opacity:0;stroke-width:3;stroke:#000"/><path id="path1686-2-6-4-4-3-1-7" d="m532.36848 289.32379c4.56231 11.94972-.78032 23.62141-6.4177 27.99065-3.58422 2.77793-7.70885-.23961-8.12631 1.14138 2.64681 7.50828.65579 16.34271-3.31438 18.64305-1.79694-.75981-2.30748-15.58459-6.48696-21.5772-5.79874-8.31435-13.78829-11.95807-14.5901-13.4543-.50954-.6617-.65025-1.65562-.54852-2.82374.28572-3.28083 1.23399-10.43577 2.54446-12.96332.57258-1.10436 1.72567-2.55259 1.72567-2.55259s25.58433-4.87697 35.21384 5.59607z" style="display:inline;fill-opacity:1;fill:#1a1a1a;stroke-dasharray:none;stroke-linecap:butt;stroke-linejoin:miter;stroke-miterlimit:4;stroke-opacity:1;stroke-width:0;stroke:#83afc8"/></svg>