<svg viewBox="0 0 560 1e3"><path d="m329.91688 425.69464c-15.4791 1.19068-42.03653 26.26041-44.60913 30.99635 10.29989-9.14088 29.75951-26.28541 44.60913-30.99635z" class="shadow" id="path8114-9"/><path d="m262.17479 457.54293c-6.81704-9.41592-28.83006-31.99347-34.93819-34.15183 5.05404 5.44075 26.5203 25.35081 34.93819 34.15183z" class="shadow" id="path8116-3"/><path d="m329.91688 425.69464c-15.4791 1.19068-42.03653 26.26041-44.60913 30.99635 10.29989-9.14088 29.75951-26.28541 44.60913-30.99635z" class="shadow" id="path8114-3-8"/><path d="m262.17479 457.54293c-6.81704-9.41592-28.83006-31.99347-34.93819-34.15183 5.05404 5.44075 26.5203 25.35081 34.93819 34.15183z" class="shadow" id="path8116-6-5"/><path style="display:inline;fill-opacity:1;fill-rule:evenodd;fill:#000;opacity:1;stroke-dasharray:none;stroke-linecap:butt;stroke-linejoin:miter;stroke-miterlimit:4;stroke-opacity:1;stroke-width:0;stroke:#000" d="m370.57368 269.7199c3.84595 22.67315 3.96538 50.42966-5.25829 77.88355.67758 1.80275 19.74735 50.40826-1.31941 69.4231.0274-.17435-57.23676 13.3638-77.41671 34.30686-4.92627 5.11256-3.48792 15.45153-7.05147 16.69466-13.46483 4.69716-17.71458-10.66263-17.71458-10.66263-6.67546-8.9041-31.11073-34.49254-36.48399-40.18743-10.24351-21.74018-13.29975-39.8017 7.84416-97.63695-1.60811-23.17054-2.1064-41.44985 4.60853-66.94154 43.76576-4.88221 102.05269.92273 132.79176 17.12038z" id="path4094-7-2-7"/><path style="display:inline;fill-opacity:1;fill-rule:evenodd;fill:#c8c8c8;opacity:1;stroke-dasharray:none;stroke-linecap:butt;stroke-linejoin:miter;stroke-miterlimit:4;stroke-opacity:1;stroke-width:0;stroke:#000" d="m370.59734 269.44907c2.30545 29.29596 2.19749 54.85361-6.82185 78.45467 5.68061 16.08418 16.18221 47.67201-.39272 71.85574-33.98941 14.44552-62.68183 21.69132-82.41255 47.77752-.34473.71459-4.28479 1.02682-6.08184 2.18944-8.64043 5.59002-13.52858-12.764-13.52858-12.764-28.92735-8.27388-37.54872-34.18672-36.48417-41.43342-14.68052-34.18192 1.94639-73.9526 10.43168-96.52678-3.5268-18.8724-2.13547-49.27883 4.28677-65.93515 57.4531-10.65718 112.96792 2.25646 131.00323 16.38198z" id="path4096-6-9-3"/><path id="path3401-2-3-0-1-7" class="shadow" d="m329.90806 425.67038c-15.4791 1.19068-42.03653 26.26041-44.60913 30.99635 10.29989-9.14088 29.75951-26.28541 44.60913-30.99635z"/><path id="path3406-2-8-6-4-6" class="shadow" d="m262.16597 457.51867c-6.81704-9.41592-28.83006-31.99347-34.93819-34.15183 5.05404 5.44075 26.5203 25.35081 34.93819 34.15183z"/></svg>