<svg viewBox="0 0 560 1e3"><path d="m273.6001 78.543222c-15.24126 11.257922-16.4776 30.291048-14.18407 49.410288.11876.99-4.54334 13.69538-4.40716 14.68478-.1372 1.85316 2.3828 4.1698 3.62214 3.8653.87229-1.78491 2.48265-7.23435 2.48265-7.23435-.003 1.30628-3.34086 15.66589-3.17836 16.5605.0859.47313-.91209 2.83412-.0861 4.07241.63909 1.08557 2.54956 2.13889 3.56641 2.00957.8855-1.15959 1.8977-10.85416 2.41432-8.12064 2.39417 12.66803 1.37237 22.14 1.31056 22.98391-.1372 1.87305 4.04459 3.4928 5.47081.76688.20107-.3843 3.95361-13.89948 4.02456-13.9367.12434-.0652 1.26747 8.56853-1.22533 17.89179-.43206 1.61593 4.6957 1.19185 4.87969.66049.0573-.16538 6.29852-21.31754 6.57864-21.43352.25062-.10376-.077 6.50135-.31668 8.99363-.0406.42215 2.60854 2.11216 3.36535.0615 3.9126-10.60159 14.33794-48.57867 15.6406-78.667228 17.73019-7.669877 15.45991-18.583551-11.10845-22.746413-5.58806-.02653-9.64135 1.141836-12.59646 2.938296-3.11733 2.241084-4.07127 1.784616-5.12819 4.114477z" class="hair" id="path2030"/><path d="m332.37734 80.834208c3.35115 2.509098 5.99271 5.417517 8.04699 8.634258.2179.341212-.6333 2.060893-.42846 2.408935.62396 1.060193 1.8206 1.231604 2.1452 2.305202.33825 1.118721-.20065 3.141962.21229 4.366079.13062.387238 1.57023 1.714058 1.68773 2.107228.42548 1.42369 1.70807 2.312 1.98472 4.00694.17756 1.08784-.61058 2.91226-.48626 4.08953.0238.22544-.70331.95235-.68131 1.18068.12451 1.29274.99151 2.28992.95613 3.31264-.0373 1.07701-.97989 2.18234-.95511 3.69099.003.18715 1.1933 1.31218 1.19568 1.50007.0191 1.50264 1.26638 3.34092 1.24651 4.87717-.0241 1.86598-1.32362 3.43491-1.39022 5.30907-.0342.96359 4.33508 13.24594 4.20515 14.20287.13091 1.79234-2.27358 4.03296-3.45611 3.73845-.8323-1.72633-2.36885-6.99694-2.36885-6.99694.003 1.26341 3.18772 15.15178 3.03267 16.01703-.082.4576.87028 2.74111.0822 3.93876-.60979 1.04995-2.43269 2.0687-3.40293 1.94363-.84491-1.12154-1.81071-10.49795-2.30365-7.85414-2.28442 12.25229-1.30946 21.41342-1.25048 22.22963.13091 1.81158-3.8592 3.37818-5.22004.74172-.19185-.37169-3.77238-13.44334-3.84008-13.47934-.11864-.0631-1.20937 8.28734 1.16916 17.30464.41226 1.56289-4.48045 1.15273-4.65601.63881-.0547-.15995-6.0098-20.61797-6.27708-20.73013-.23913-.10036.0735 6.28799.30216 8.69848.0387.4083-2.48897 2.04285-3.21108.0595-3.73326-10.25367-13.68071-46.98445-14.92366-76.085588-16.91746-7.41818-14.75125-17.9737 10.59925-21.99995 5.33191-.0257 9.19941 1.10436 12.01906 2.84187 2.97443 2.16754 4.95808 4.7485 5.96655 7.0019z" class="hair" id="path2032"/><path d="m316.93945 83.564073c16.39252 13.52365 21.67173 42.804627 23.74149 73.142927.10722 1.57091 7.14015 20.11342 7.23127 21.68799.5294 2.84653-1.2703 7.10911-2.4701 6.95968-1.18678-2.54807-3.84731-10.60294-3.84731-10.60294.2881 2.03082 6.46995 23.49297 6.51632 24.92696.0246.7584 1.45188 4.16962.96643 6.31173-.34783 1.8557-1.86546 3.99381-2.82359 4.05868-1.06258-1.57198-4.10132-16.38627-3.978-11.99935.57162 20.33028 3.57063 34.79583 3.81109 36.09228.53375 2.87748-2.93762 6.49083-4.8361 2.62397-.26764-.54512-6.64531-20.58518-6.7183-20.62451-.12805-.0684.70848 13.65917 5.02035 27.5086.74737 2.40041-4.03462 3.08218-4.31869 2.30386-.0884-.24225-10.40667-31.50995-10.68814-31.61703-.25181-.0957 1.48751 10.09212 2.24989 13.90595.12917.64601-1.92522 3.96769-3.06433.97606-5.88896-15.46633-23.70095-71.80915-31.45049-118.2685-17.88667-7.29167-18.1892-24.860846 5.20124-38.286023 5.10468-1.503155 9.06625-.746147 12.16036 1.275065 3.33939 2.670326 5.82231 6.277142 7.29672 9.624554z" class="hair" id="path2034"/><path d="m287.84155 85.638652c-16.39252 13.523648-21.67173 42.804628-23.74149 73.142928-.10722 1.57091-7.14015 20.11342-7.23127 21.68798-.5294 2.84654 1.2703 7.10911 2.4701 6.95969 1.18678-2.54807 3.84731-10.60294 3.84731-10.60294-.2881 2.03082-6.46995 23.49297-6.51632 24.92696-.0246.7584-1.45188 4.16962-.96643 6.31173.34783 1.8557 1.86546 3.99381 2.82359 4.05867 1.06258-1.57197 4.10132-16.38626 3.978-11.99934-.57162 20.33028-3.57063 34.79583-3.81109 36.09228-.53375 2.87748 2.93762 6.49083 4.8361 2.62397.26764-.54513 6.64531-20.58518 6.7183-20.62451.12805-.0684-.70848 13.65917-5.02035 27.5086-.74737 2.40041 4.03462 3.08218 4.31869 2.30386.0884-.24225 10.40667-31.50995 10.68814-31.61703.25181-.0957-1.48751 10.09212-2.24989 13.90595-.12917.64601 1.92522 3.96769 3.06433.97606 5.88896-15.46633 23.70095-71.80915 31.45049-118.26852 17.88667-7.29166 18.1892-24.860829-5.20124-38.286008-5.10468-1.503155-9.06625-.746148-12.16036 1.275064-3.33939 2.670323-5.82231 6.277143-7.29672 9.624557z" class="hair" id="path2036"/><path d="m301.69398 93.683818c14.39436 6.272221 27.60149-9.360266 26.56146-22.469318-.0159-.200993 2.20823-1.323604 2.38706-1.451437 1.23458-.882479 1.13755-4.034565-.49625-4.255491-.23694-.03204-3.30229.188812-3.40667-.02719-.0667-.138014 2.85078-3.487842 2.87888-3.638978.25537-1.373664-1.17384-2.534938-3.10868-2.653074-.14795-.0091-3.34192 1.60987-3.45529 1.511991-.1127-.09727-.29594-1.066047-.29374-1.2165.0186-1.270739-4.80367-3.032245-6.03638-2.790062-.15701.03085-.7829.229563-.93851.182997-.46462-.0346-2.43587-3.761912-2.79781-4.037371-1.9337-1.471691-6.24326-.719956-7.58386 1.73219-.28511.521512.29886 3.718267-.24286 3.940136-.26381.108049-12.49708-13.231764-12.77059-13.30544-1.47576-.397514-4.21611 5.133121-2.28903 7.410599.18652.220439 8.93035 9.591236 8.71108 9.777573-.19121.162493-4.37932-2.38915-4.62822-2.363744-1.29086.131768-2.68653 2.206532-2.17431 4.042458.099.354626 2.81159 2.589031 2.59731 2.886025-7.54114 10.452071-6.71023 25.399479 7.08641 26.724639z" class="hair" id="path2038"/><path d="m315.17624 212.99721c16.39252 13.52365 21.67173 42.80463 23.74149 73.14293.10722 1.57091 7.14015 20.11342 7.23127 21.68799.5294 2.84653-1.2703 7.10911-2.4701 6.95968-1.18678-2.54807-3.84731-10.60294-3.84731-10.60294.2881 2.03082 6.46995 23.49297 6.51632 24.92696.0246.7584 1.45188 4.16962.96643 6.31173-.34783 1.8557-1.86546 3.99381-2.82359 4.05868-1.06258-1.57198-4.10132-16.38627-3.978-11.99935.57162 20.33028 3.57063 34.79583 3.81109 36.09228.53375 2.87748-2.93762 6.49083-4.8361 2.62397-.26764-.54512-6.64531-20.58518-6.7183-20.62451-.12805-.0684.70848 13.65917 5.02035 27.5086.74737 2.40041-4.03462 3.08218-4.31869 2.30386-.0884-.24225-10.40667-31.50995-10.68814-31.61703-.25181-.0957 1.48751 10.09212 2.24989 13.90595.12917.64601-1.92522 3.96769-3.06433.97606-5.88896-15.46633-23.70095-71.80915-31.45049-118.2685-17.88667-7.29167-18.1892-24.86085 5.20124-38.28603 5.10468-1.50315 9.06625-.74614 12.16036 1.27507 3.33939 2.67032 5.82231 6.27714 7.29672 9.62455z" class="hair" id="path2034-7"/></svg>