<svg viewBox="0 0 560 1e3"><path style="display:inline;fill-opacity:1;fill-rule:evenodd;fill:#000;stroke-dasharray:none;stroke-linecap:butt;stroke-linejoin:miter;stroke-miterlimit:4;stroke-opacity:0;stroke-width:3.37624764;stroke:#000" d="m341.79404 393.04542c36.98047 34.62004 56.25842 54.48064 52.15456 88.31479-.015.12339-1.77501 1.0365-3.56842 1.73358-6.03266-2.51604-17.06415-9.88159-18.32308-9.61932-8.07037-19.37381-36.44282-72.61024-30.26306-80.42905z" id="path7486"/><path style="display:inline;fill-opacity:1;fill-rule:evenodd;fill:#5f6ea0;stroke-dasharray:none;stroke-linecap:butt;stroke-linejoin:miter;stroke-miterlimit:4;stroke-opacity:0;stroke-width:3.37624764;stroke:#000" d="m343.31503 396.62183c35.60547 32.37004 53.7812 54.12506 50.05418 84.33443-.014.11371-2.06786 1.05935-2.89072 1.36034-6.23063-2.01294-18.81706-8.29348-20.11598-8.02288-8.07038-19.37383-33.22724-69.85308-27.04748-77.67189z" id="path7488"/><path id="path7490" d="m393.82616 470.7855c-2.54742.87416-7.5311 2.51577-10.19317 3.30074-.55833-.38127-.14842-.59612-.80541-1.8593 2.82598-.72732 8.43635-2.35388 10.86807-3.12429.1385.43477.116 1.2905.13051 1.68285z" style="display:inline;fill-opacity:1;fill:#fff;opacity:1;stroke-dasharray:none;stroke-linecap:butt;stroke-linejoin:miter;stroke-miterlimit:4;stroke-opacity:1;stroke-width:0;stroke:#000"/><path id="path7492" d="m393.85741 475.37925c-2.54742.87416-7.43735 2.45327-10.09942 3.23824-.55833-.38127.008-.28362-.64916-1.5468 2.82598-.72732 8.2801-2.63513 10.71182-3.40554-.0177.27852.0535 1.2905.0368 1.7141z" style="display:inline;fill-opacity:1;fill:#fff;opacity:1;stroke-dasharray:none;stroke-linecap:butt;stroke-linejoin:miter;stroke-miterlimit:4;stroke-opacity:1;stroke-width:0;stroke:#000"/></svg>