<svg viewBox="0 0 560 1e3"><path id="path4527-9-9-6-0" d="m371.45236 272.33602c-3.78105 51.36502 11.51516 119.65223 14.281 185.9788-32.89181 6.65266-156.08001-14.88078-170.44809-31.88372 4.07427-12.93648 2.37683-35.71075 6.05143-58.24852 4.87155-29.87911 14.45002-60.28952 13.07527-76.08257-4.75246-59.46686 61.97762-63.88255 129.77224-24.50872z" style="display:inline;fill-opacity:1;fill-rule:evenodd;fill:#000;opacity:1;stroke-dasharray:none;stroke-linecap:butt;stroke-linejoin:miter;stroke-miterlimit:4;stroke-opacity:1;stroke-width:0;stroke:#000"/><path id="path4529-2-2-1-0" d="m371.47602 272.06519c-6.37431 49.66799 12.54581 137.52982 12.61806 185.08787-31.15729 6.94181-157.0571-15.87982-167.65947-31.44057 4.08039-12.41018 2.71595-35.11917 6.49621-57.51639 4.99253-29.57969 14.49324-59.54584 13.25304-73.71527-3.65952-28.78802 3.24617-54.69258 12.53942-69.35361 18.48356-5.72542 45.83668.20217 69.06052-25.94442 1.48672 1.12706 18.23182 7.00546 18.7637 8.34782 40.52013.35863 35.46633 51.17961 34.92852 64.53457z" style="display:inline;fill-opacity:1;fill-rule:evenodd;fill:#fff;opacity:1;stroke-dasharray:none;stroke-linecap:butt;stroke-linejoin:miter;stroke-miterlimit:4;stroke-opacity:1;stroke-width:0;stroke:#000"/></svg>