<svg viewBox="0 0 560 1e3"><path id="path5061" d="m347.8287 405.48124c32.97194 41.12226 14.0327 81.88857 9.19677 98.32357-2.01061 6.83307 4.74255 12.01889-82.59132 8.00899-17.30311-1.81576-59.24343-1.2282-59.21094-1.53911 3.78245-36.19606 8.45036-78.58082 11.41502-98.65845 36.34163 12.28427 54.05413 11.58297 121.19047-6.135zM242.93462 343.68972c1.28287-22.05665-4.19571-35.80347-5.08878-48.56542.1756-15.42462.20548-34.21245 2.23796-36.68863 4.62462-25.4057 17.90519-39.2866 29.15333-47.16026.1487-.10409.31185-.18844.44501-.30913.19352-.1754-.47033-.23529 1.52161-1.70983.0242.0785-.93287 2.19206-2.72028 5.39547-1.71148 3.06734-4.37167 7.58759-6.7691 12.05698-4.01224 7.47981-7.80555 15.61711-6.38706 23.07265 1.59122 8.36346 12.57896 14.27017 26.57673 14.9132 27.71148-.42916 50.10094-10.37445 56.1924-16.22076 6.07119-5.82685 9.41929-33.57309 9.88915-39.36191.26174.0683 1.17868.25631 1.42618.37805.0.0 22.6334 21.13908 18.88955 59.10524h-3e-5c-.48029 3.76827-2.35404 21.04827-8.62129 39.71557-6.31827 18.81926-16.66355 36.54632-17.25634 38.03052-16.00682-1.65197-43.58459-1.73574-64.94798 1.93939l-4.26043-4.88803-4.08115 3.97966s-21.86912-7.14168-26.19948-3.68276z" style="display:inline;fill-opacity:1;fill-rule:evenodd;fill:#000;opacity:1;stroke-dasharray:none;stroke-linecap:butt;stroke-linejoin:miter;stroke-miterlimit:4;stroke-opacity:1;stroke-width:0;stroke:#000"/><path id="path5063" d="m349.04082 406.58299c32.8228 40.39855 16.08199 78.36119 8.08595 96.98183-2.76395 6.43649 17.95903 12.02833-82.26929 5.50142-17.22485-1.7838-59.61101 1.398-59.64703 1.09296-4.19847-35.55905.5941-81.77129 10.51369-97.56597 36.42612 14.76968 76.93272 8.18054 123.31668-6.01024zm-104.8439-64.50758c1.27707-21.66848-4.69725-34.91081-5.58628-47.44817-1.7631-14.73435-.53339-26.41861 2.54822-37.69558 4.99445-24.55756 16.5437-38.01779 27.19262-45.84823.1171-.0861.24936-.15372.35096-.25628.58692-.59249 2.32307-1.61166 2.62102-1.70829-.0713.43498-4.93127 7.25249-9.72221 15.78235-5.47376 9.74553-11.05509 19.48352-7.60266 26.63097 9.60812 21.96035 54.06337 16.29584 78.97667 2.30303 6.93154-3.35755 9.1016-6.69171 11.17071-13.34732 3.15195-10.20373 4.00709-19.90127 3.97289-31.39279.0912.0396.28022.0678.37266.10193 12.08701 4.46269 14.80049 11.51877 15.25587 12.12236.0.0 10.83058 12.07281 4.72866 47.2458h-3e-5c-.47811 3.70196-2.34339 20.67784-8.58229 39.01662-6.28969 18.48806-18.05395 35.57856-18.64406 37.03664-20.6858-.40723-37.86881-2.70304-63.22622 2.21896l-4.24116-4.80201-4.06269 3.90963s-21.85352-5.667-25.52268-3.86962z" style="display:inline;fill-opacity:1;fill-rule:evenodd;fill:#fff;opacity:1;stroke-dasharray:none;stroke-linecap:butt;stroke-linejoin:miter;stroke-miterlimit:4;stroke-opacity:1;stroke-width:0;stroke:#000"/><path id="path5068" class="shadow" d="m328.65736 423.62671c-15.4791 1.19068-42.03653 26.26041-44.60913 30.99635 10.29989-9.14088 29.75951-26.28541 44.60913-30.99635z"/><path id="path5070" class="shadow" d="m260.91527 455.475c-6.81704-9.41592-28.83006-31.99347-34.93819-34.15183 5.05404 5.44075 26.5203 25.35081 34.93819 34.15183z"/><path style="display:inline;fill-opacity:1;fill:#000;opacity:1;stroke-dasharray:none;stroke-linecap:butt;stroke-linejoin:miter;stroke-miterlimit:4;stroke-opacity:1;stroke-width:0;stroke:#000" d="m273.06851 343.11354c-1.19336-14.58661 2.97344-72.66695 6.47322-77.7662.0.0.98281.0388.98573.0215-2.98971 5.31735-7.5879 63.15012-6.18702 77.63359z" id="path3206-4-8-8"/><path style="display:inline;fill-opacity:1;fill:maroon;opacity:1;stroke-dasharray:none;stroke-linecap:butt;stroke-linejoin:miter;stroke-miterlimit:4;stroke-opacity:1;stroke-width:0;stroke:#000" d="m272.76454 343.3524c-1.19336-14.58661 2.78594-73.02633 6.28572-78.12558.0.0.97176.12719.97468.10989-2.98971 5.31735-7.57685 63.45236-6.17597 77.93583z" id="path3235-2-4-2"/></svg>