<svg viewBox="0 0 560 1e3"><path d="m302.02539 62.744141c-44.12472.927754-78.59658 102.365309-44.79883 128.748049.10462 16.84621 5.15365 31.19849 16.89063 37.88086 8 16.8 54.79962 57.50078 98.09961 9.80078 20.5-36.8-.5-30.90078-14-103.30078-1.65265-11.43639-2.22145-20.6852-12.03125-27.72266-.5368-2.55211-1.06842-5.17575-1.58594-7.95117-2.5-17.300001-2.49883-29.598829-35.79883-36.798829-2.27812-.492188-4.53917-.703268-6.77539-.65625z" id="path1762" class="hair"/><path d="m327.17018 164.08063c44.12472.92775 78.59658 102.36531 44.79883 128.74805-.10462 16.84621-5.15365 31.19849-16.89063 37.88086-8 16.8-54.79962 57.50078-98.0996 9.80078-20.5-36.8.5-30.90078 14-103.30078 1.65265-11.43639 2.22145-20.6852 12.03125-27.72266.5368-2.55211 1.06842-5.17575 1.58594-7.95117 2.49999-17.3 2.49882-29.59883 35.79882-36.79883 2.27812-.49219 4.53917-.70327 6.77539-.65625z" id="path1762-6" class="hair"/></svg>