<svg viewBox="0 0 560 1e3"><path style="display:inline;fill-opacity:1;fill:#000;opacity:1" d="m236.52804 276.67565c-1.3755 20.25213 3.66438 44.32565 3.66438 44.32565-10.73063 51.95886-21.26839 69.51173-15.34775 92.37518 16.36196-.34408 104.86205 3.75956 137.83667 3.74496 4.51386-24.01525-8.46489-53.78545-12.38823-63.29635 2.33014-13.01505 12.88545-29.14985 18.69237-71.62915-20.00731-23.65544-39.56804-58.82881-39.61446-77.20105-5.0856-1.53654-9.2662-4.20037-11.97165-6.99799-.44453 1.7818-1.99968 15.88708-2.14306 17.33056-12.09829 5.75915-27.87745 3.2969-33.51216-1.00011.88357-3.08367.12976-7.88401 3.51875-14.42259-2.95309 1.88608-5.93497 4.18624-9.90394 6.09612-36.32 18.26276-38.69495 47.01317-38.83092 70.67477z" id="path6926-8"/><path id="path6928-6" d="m348.95687 353.98185s16.07416 33.22574 14.34737 63.55154c-40.10653 11.44456-76.22545 38.21388-76.99712 40.55165-.78385 1.88787-4.7912 9.82211-7.2881 11.60252-1.21712.86786-4.56426-.37235-4.8162-.39645-.29397-.0276-.77535.50225-2.98817-.0701-5.65546-1.4629-10.22974-5.40448-10.80185-7.35518-18.43111-29.49711-30.68812-46.0732-35.41353-47.26215-6.02915-22.43233 14.73382-72.80763 16.85514-93.62901-12.79498-68.20209.12343-109.38118 35.08171-114.99357.49229-.51848 2.68756-2.31919 7.16452-4.72153 1.01736-.38611 4.59904-8.26172 5.00699-8.02432 6.65758 3.87428 26.54635-.85503 26.87567-.1563.97035 2.05878 1.71969 4.49501 2.863 6.22886 1.48672 1.12706 17.16932 6.88046 17.7012 8.22282.0.0 24.76225-4.8947 34.24132 27.54218 6.83766 34.59578-10.9494 86.3815-21.83195 118.90904z" style="display:inline;fill-opacity:1;fill-rule:evenodd;fill:maroon;opacity:1;stroke-dasharray:none;stroke-linecap:butt;stroke-linejoin:miter;stroke-miterlimit:4;stroke-opacity:1;stroke-width:0;stroke:#000"/><path id="path6930-5" d="m223.46081 414.21749c-.42263 12.80142 31.84447 58.44933 51.86626 56.74714 13.4605-1.86072 24.20778-26.48734 86.53835-51.73016-5.52595-11.9083-20.07615-23.00694-26.61235-34.33133-45.102 11.9464-91.4758 3.33435-104.81614-.31943.0.0-1.84313 17.91613-6.97612 29.63378z" style="display:inline;fill-opacity:1;fill:#333;stroke-dasharray:none;stroke-linecap:butt;stroke-linejoin:miter;stroke-miterlimit:4;stroke-opacity:1;stroke-width:0;stroke:#000"/><path id="path6932-2" d="m257.42933 436.58157c.5575-1.06599 6.5423-47.48865 6.58488-47.65285.0.0-32.64461 1.46109-38.68967-6.44629-.14865-.19445-12.66693 37.46403-12.60031 37.54391.063.19141 44.7051 16.55523 44.7051 16.55523z" style="display:inline;fill-opacity:1;fill:#000;opacity:1;stroke-dasharray:none;stroke-linecap:butt;stroke-linejoin:miter;stroke-miterlimit:4;stroke-opacity:1;stroke-width:0;stroke:#000"/><path id="path6934-5" d="m256.33979 391.23466c-.0664.0413-1.39182-.0733-1.58546-.10885-3.40999-.62801 19.2566-160.50788 24.25915-160.55375.0.0 12.26767-11.59694 15.1958-14.84809-11.66224 14.89533-30.22666 147.63281-30.17154 172.72911-.0426 1.28175-94e-5 2.39529-.0998 2.64799z" style="display:inline;fill-opacity:1;fill:#000;opacity:1;stroke-dasharray:none;stroke-linecap:butt;stroke-linejoin:miter;stroke-miterlimit:4;stroke-opacity:1;stroke-width:0;stroke:#000"/><path id="path6936-2" d="m256.82347 435.83166c-.005-.12477 6.25247-46.70456 6.29446-46.86401.0.0-28.60284-4.55682-36.06642-7.41863-.2232-.0856-13.35958 38.08968-13.29388 38.16726.0621.18588 43.06584 16.11538 43.06584 16.11538z" style="display:inline;fill-opacity:1;fill:maroon;opacity:1;stroke-dasharray:none;stroke-linecap:butt;stroke-linejoin:miter;stroke-miterlimit:4;stroke-opacity:1;stroke-width:0;stroke:#000"/><path id="path6938-5" d="m255.95357 390.4496c-.0664.0413-1.76682-.0468-1.96046-.0825-3.40999-.62801 19.2566-160.40253 24.25915-160.4484.0.0 14.23398-13.51852 15.68248-14.44775-15.56688 24.4846-34.69807 173.01647-30.414 174.96778z" style="display:inline;fill-opacity:1;fill:maroon;opacity:1;stroke-dasharray:none;stroke-linecap:butt;stroke-linejoin:miter;stroke-miterlimit:4;stroke-opacity:1;stroke-width:0;stroke:#000"/><path id="path6940-7" d="m258.89163 437.11081c.007-.14856 4.09744-51.68483 4.0352-51.87468.0.0 79.13217 8.98832 98.49959 2.81421.29791-.095 6.92825 30.53716 6.83087 30.62953-.0921.22131-109.36566 18.43094-109.36566 18.43094z" style="display:inline;fill-opacity:1;fill:#000;opacity:1;stroke-dasharray:none;stroke-linecap:butt;stroke-linejoin:miter;stroke-miterlimit:4;stroke-opacity:1;stroke-width:0;stroke:#000"/><path id="path6942-2" d="m260.02434 435.69863c.007-.14856 4.18979-50.58257 4.12661-50.77211-.29391-.88173 93.60187-8.39506 96.3759 2.75301.24983 1.004 6.35058 30.45321 6.2532 30.54558-.0921.22131-106.75571 17.47352-106.75571 17.47352z" style="display:inline;fill-opacity:1;fill:maroon;opacity:1;stroke-dasharray:none;stroke-linecap:butt;stroke-linejoin:miter;stroke-miterlimit:4;stroke-opacity:1;stroke-width:0;stroke:#000"/><path style="display:inline;fill-opacity:1;fill-rule:nonzero;fill:#ff0;opacity:1;stroke-dasharray:none;stroke-linecap:butt;stroke-linejoin:round;stroke-miterlimit:4;stroke-opacity:1;stroke-width:0;stroke:#000" d="m288.03821 262.88906a2.8059697 3.1566737.0 01-2.80597 3.15668 2.8059697 3.1566737.0 01-2.80597-3.15668 2.8059697 3.1566737.0 012.80597-3.15668 2.8059697 3.1566737.0 012.80597 3.15668z" id="path6944-2"/><path id="path6946-6" d="m282.87438 204.3332c-4.15702 35.00904 29.34153 106.87057 55.99202 138.20133.29472.34648-8.25873 1.33772-8.89213 1.43009-13.0257-10.2681-55.5504-90.35698-55.12687-136.9443 1.15055-1.56976 4.33512-1.93428 8.02698-2.68712z" style="display:inline;fill-opacity:1;fill:#000;opacity:1;stroke-dasharray:none;stroke-linecap:butt;stroke-linejoin:miter;stroke-miterlimit:4;stroke-opacity:1;stroke-width:0;stroke:#000"/><path style="display:inline;fill-opacity:1;fill-rule:nonzero;fill:#ff0;opacity:1;stroke-dasharray:none;stroke-linecap:butt;stroke-linejoin:round;stroke-miterlimit:4;stroke-opacity:1;stroke-width:0;stroke:#000" d="m282.89194 297.67418a2.8059697 3.1566737.0 01-2.80597 3.15667 2.8059697 3.1566737.0 01-2.80597-3.15667 2.8059697 3.1566737.0 012.80597-3.15668 2.8059697 3.1566737.0 012.80597 3.15668z" id="path6948-2"/><path id="path6950-5" class="shadow" d="m329.87921 425.70416c-15.4791 1.19068-42.03653 26.26041-44.60913 30.99635 10.29989-9.14088 29.75951-26.28541 44.60913-30.99635z"/><path id="path6952-6" class="shadow" d="m262.13712 457.55245c-5.32741-7.35839-28.98018-30.1623-28.98018-30.1623l-2.80403-.77815s24.58999 23.41879 31.78421 30.94045z"/><path id="path6954-6" class="shadow" d="m329.8875 425.70175c-15.4791 1.19068-42.03653 26.26041-44.60913 30.99635 10.29989-9.14088 29.75951-26.28541 44.60913-30.99635z"/><path id="path6956-2" class="shadow" d="m262.14541 457.55004c-5.37406-7.42283-29.21651-30.35505-29.21651-30.35505l-2.57069-.58835s24.59207 23.42079 31.7872 30.9434z"/><path id="path6958-3" d="m294.31526 216.16697c-.007-.15238 3.8945-21.33661 3.96139-21.53134.0.0-9.30916-2.83813-9.45142-2.64363-.86438 1.18176-2.48505 4.21861-3.88833 5.92157.099.227 9.37836 18.2534 9.37836 18.2534z" style="display:inline;fill-opacity:1;fill:#000;opacity:1;stroke-dasharray:none;stroke-linecap:butt;stroke-linejoin:miter;stroke-miterlimit:4;stroke-opacity:1;stroke-width:0;stroke:#000"/><path id="path6960-1" d="m294.46091 215.07996c-.007-.14941 3.74282-19.86681 3.8078-20.05775.0.0-9.54661-3.37453-9.68481-3.18382-.83967 1.15876-2.41401 4.13649-3.77718 5.8063.0962.22258 9.65419 17.43527 9.65419 17.43527z" style="display:inline;fill-opacity:1;fill:maroon;opacity:1;stroke-dasharray:none;stroke-linecap:butt;stroke-linejoin:miter;stroke-miterlimit:4;stroke-opacity:1;stroke-width:0;stroke:#000"/><path id="path6962-3" d="m294.22138 216.19261c.007-.15238 4.17282-21.28705 4.10593-21.48178.0.0 17.62166-3.49438 17.76392-3.29988.86438 1.18176 2.6413 5.37486 3.07583 6.04657-.099.227-24.94568 18.73509-24.94568 18.73509z" style="display:inline;fill-opacity:1;fill:#000;opacity:1;stroke-dasharray:none;stroke-linecap:butt;stroke-linejoin:miter;stroke-miterlimit:4;stroke-opacity:1;stroke-width:0;stroke:#000"/><path id="path6964-1" d="m294.38015 215.19253c.007-.14856 3.95924-19.97917 3.89334-20.16902.0.0 17.15521-3.89328 17.29538-3.70366.85164 1.15214 2.60238 5.24014 3.03051 5.89501-.0975.22131-24.21923 17.97767-24.21923 17.97767z" style="display:inline;fill-opacity:1;fill:maroon;opacity:1;stroke-dasharray:none;stroke-linecap:butt;stroke-linejoin:miter;stroke-miterlimit:4;stroke-opacity:1;stroke-width:0;stroke:#000"/><path id="path6966-6" d="m282.13394 203.4582c-4.08655 35.00904 29.34461 108.24557 55.54329 139.57633.28973.34648-5.90686.83772-6.52953.93009-12.80487-10.2681-55.90788-90.41948-55.49153-137.0068 1.13104-1.56976 2.8485-2.74678 6.47777-3.49962z" style="display:inline;fill-opacity:1;fill:#4d351f;opacity:1;stroke-dasharray:none;stroke-linecap:butt;stroke-linejoin:miter;stroke-miterlimit:4;stroke-opacity:1;stroke-width:0;stroke:#000"/><path id="path6968-0" d="m284.51487 205.20924c.0133-.14802.991-3.76164 1.04686-3.94624.0.0-10.13556 2.84037-10.14148 3.07346-.008.30956-.81107 2.93146-.7689 3.0294.0242.22566 9.86356-2.15662 9.86356-2.15662z" style="display:inline;fill-opacity:1;fill:#00001a;opacity:1;stroke-dasharray:none;stroke-linecap:butt;stroke-linejoin:miter;stroke-miterlimit:4;stroke-opacity:1;stroke-width:0;stroke:#000"/><path style="display:inline;fill-opacity:1;fill-rule:nonzero;fill:#ff0;opacity:1;stroke-dasharray:none;stroke-linecap:butt;stroke-linejoin:round;stroke-miterlimit:4;stroke-opacity:1;stroke-width:0;stroke:#000" d="m296.15903 227.39313a2.8059697 3.1566737.0 01-2.80597 3.15668 2.8059697 3.1566737.0 01-2.80597-3.15668 2.8059697 3.1566737.0 012.80597-3.15668 2.8059697 3.1566737.0 012.80597 3.15668z" id="path6970-4"/><path style="display:inline;fill-opacity:1;fill-rule:nonzero;fill:#ff0;opacity:1;stroke-dasharray:none;stroke-linecap:butt;stroke-linejoin:round;stroke-miterlimit:4;stroke-opacity:1;stroke-width:0;stroke:#000" d="m277.43213 332.06503a2.8059697 3.1566737.0 01-2.80597 3.15668 2.8059697 3.1566737.0 01-2.80597-3.15668 2.8059697 3.1566737.0 012.80597-3.15668 2.8059697 3.1566737.0 012.80597 3.15668z" id="path6972-1"/><path id="path6974-0" d="m238.25957 336.55874s40.85299 16.68803 115.75238 3.28344c.36617-.0655-3.29418 10.02435-4.36672 14.08503.0936.96098.24286 1.67392.47129 1.98459-14.57264 6.85213-97.84906 9.07391-115.88568-4.75417.0.0 4.39353-14.40571 4.02873-14.59889z" style="display:inline;fill-opacity:1;fill:#000;opacity:1;stroke-dasharray:none;stroke-linecap:butt;stroke-linejoin:miter;stroke-miterlimit:4;stroke-opacity:1;stroke-width:0;stroke:#000"/><path id="path6976-1" d="m238.30376 337.44261s36.38804 17.76121 115.28716 3.18369c.33287-.0615-2.98866 7.91191-3.98606 12.50319-.008 1.40158-.0187 2.33735-.0187 2.33735-19.95115 6.77325-99.35627 7.29163-114.825-4.53373.0.0 3.9074-13.31649 3.5426-13.4905z" style="display:inline;fill-opacity:1;fill:#4d351f;opacity:1;stroke-dasharray:none;stroke-linecap:butt;stroke-linejoin:miter;stroke-miterlimit:4;stroke-opacity:1;stroke-width:0;stroke:#000"/><path style="display:inline;fill-opacity:1;fill-rule:nonzero;fill:#ff0;opacity:1;stroke-dasharray:none;stroke-linecap:butt;stroke-linejoin:round;stroke-miterlimit:4;stroke-opacity:1;stroke-width:0;stroke:#000" d="m274.98457 344.74372c-.44018 5.33776-.84034 10.10475-1.37916 16.26851-.56855-.0469-7.79095-.21827-7.74241-.63754.0138-.11883-.0823-1.78528.3093-1.83621.42235-.055 5.98947.7961 5.97346.21441-.012-.43819.74182-9.38815.92382-11.59513.0342-.41441-6.21555-.6029-6.21375-.96027.009-1.84868.13101-2.13256.44377-2.28414 5.00728.41295 7.68886.2458 7.68499.83037z" id="path6978-4"/><path style="display:inline;fill-opacity:1;fill-rule:nonzero;fill:#ff0;opacity:1;stroke-dasharray:none;stroke-linecap:butt;stroke-linejoin:round;stroke-miterlimit:4;stroke-opacity:1;stroke-width:0;stroke:#000" d="m263.09859 343.67151c-.43629 5.33807-.81905 10.10649-1.2928 16.27559.56856.047 7.72222 1.05541 7.74272.63384.006-.11948.37238-1.74795-.006-1.86207-.40773-.12311-6.03912-.19148-5.92845-.76277.0833-.43036.79938-9.38342.97979-11.59054.0337-.41446 6.23068.41866 6.28717.0661.29266-1.8254.21856-2.12538-.0653-2.32593-5.00758-.40933-7.62599-1.0116-7.71752-.43426z" id="path6980-7"/><path id="path6982-4" d="m284.63086 231.65234c-.0165-.008-.0319-.004-.0449.01-.58358.62589-3.38749 2.94487-5.86328 5.07227.96283 3.23986 2.00965 7.26121 3.2539 10.24609.58358-.62589 3.38749-2.94487 5.86328-5.07227-1.06398-3.26131-1.73611-6.93046-3.20898-10.25586zm-.41602 1.57032c.62964 2.61253 1.88016 5.41417 2.43164 8.17578-.16042.15084-3.5544 3.03827-4.29882 4.02148-.62925-2.61242-1.88026-5.41468-2.43164-8.17578.16042-.15084 3.5544-3.03827 4.29882-4.02148z" style="display:inline;fill-opacity:1;fill-rule:nonzero;fill:#ff0;opacity:1;stroke-dasharray:none;stroke-linecap:butt;stroke-linejoin:round;stroke-miterlimit:4;stroke-opacity:1;stroke-width:0;stroke:#000"/><path style="display:inline;fill-opacity:1;fill-rule:nonzero;fill:#ff0;opacity:1;stroke-dasharray:none;stroke-linecap:butt;stroke-linejoin:round;stroke-miterlimit:4;stroke-opacity:1;stroke-width:0;stroke:#000" d="m327.73063 341.84748c.62312-.39305 1.2277-.77507 1.8307-1.15715.0862-.0547 2.57539 2.53005 2.67677 2.47323.92049-.51594 1.89613-1.03744 2.91379-1.68978.0891-.0571-2.23787-2.92048-2.14767-2.97836.53016-.34017 1.0798-.69383 1.6579-1.06689-.3754-.47663-4.94207-6.61521-5.1126-6.49022-.0484.0352-.90573.28522-.68699.63004.2359.37195 4.10012 4.96046 3.81171 5.06264-.21722.077-4.03356 2.50385-4.97706 3.09897-.17702.11194-4.14846-5.19185-4.31795-5.11944-.87939.37589-.93951.53672-.81788.83422 3.30678 4.19735 4.89185 6.52247 5.16925 6.40275z" id="path6984-7"/><path style="display:inline;fill-opacity:1;fill-rule:evenodd;fill:#000;opacity:1;stroke-dasharray:none;stroke-linecap:butt;stroke-linejoin:miter;stroke-miterlimit:4;stroke-opacity:1;stroke-width:0;stroke:#000" d="m282.45842 458.56662c-.27835.87834-1.09442 7.30349-3.59097 9.21774-.26922.20641-1.13559 1.14752-4.57861.28177-.17398-.0437-1.37228.71664-3.61539.0361-5.82941-1.76869-6.22252-8.10904-6.31915-8.53686 8.23205-5.09165 11.4291-4.00072 18.10412-.99875z" id="path6986-5"/><path style="display:inline;fill-opacity:1;fill-rule:evenodd;fill:#333;opacity:1;stroke-dasharray:none;stroke-linecap:butt;stroke-linejoin:miter;stroke-miterlimit:4;stroke-opacity:1;stroke-width:0;stroke:#000" d="m282.65569 458.4011c-.78318 1.88787-2.10206 7.06063-4.59684 8.84104-1.21608.86786-3.67141-.009-3.92314-.0331-.29372-.0276-.96753.96577-3.15689.31564-4.33861-1.28834-5.1633-4.97917-6.6404-7.92987 7.24395-6.87766 11.19968-9.59173 18.31727-1.19371z" id="path6988-2"/><path id="path6990-8" d="m294.61918 212.22372c-.007-.12767 3.40968-15.95979 3.4731-16.12296.0.0-8.18628-2.94035-8.32115-2.77739-.45775.5531-2.1335 1.22971-2.47098 1.71032-.21864.31136-.42508 2.47695-.77782 3.3137.0939.19018 8.09685 13.87633 8.09685 13.87633z" style="display:inline;fill-opacity:1;fill:#00001a;opacity:1;stroke-dasharray:none;stroke-linecap:butt;stroke-linejoin:miter;stroke-miterlimit:4;stroke-opacity:1;stroke-width:0;stroke:#000"/><path id="path6992-9" d="m294.54036 212.31991c.007-.1269 3.35575-15.9674 3.29143-16.12964.0.0 14.27546-3.08395 14.41225-2.92192.38007.45021 2.74166 1.19411 2.97606 1.43523.22717.23367-.62023 3.29838-.39347 3.60207-.0952.18912-20.28627 14.01426-20.28627 14.01426z" style="display:inline;fill-opacity:1;fill:#00001a;opacity:1;stroke-dasharray:none;stroke-linecap:butt;stroke-linejoin:miter;stroke-miterlimit:4;stroke-opacity:1;stroke-width:0;stroke:#000"/><path id="path6994-3" d="m321.73469 205.93856c-.0135-.25315-2.19351-6.61269-2.32164-6.93919.0.0 28.25558 7.57122 28.23428 7.96573-.0279.52399 1.81929 5.16395 1.68381 5.31746-.10544.37372-27.59656-6.34401-27.59656-6.34401z" style="display:inline;fill-opacity:1;fill:#00001a;opacity:1;stroke-dasharray:none;stroke-linecap:butt;stroke-linejoin:miter;stroke-miterlimit:4;stroke-opacity:1;stroke-width:0;stroke:#000"/><path style="display:inline;fill-opacity:1;fill-rule:nonzero;fill:#ff0;opacity:1;stroke-dasharray:none;stroke-linecap:butt;stroke-linejoin:round;stroke-miterlimit:4;stroke-opacity:1;stroke-width:0;stroke:#000" d="m290.29736 197.181c0 1.21518-.6739 2.20029-1.5052 2.20029s-1.50521-.9851-1.50521-2.20029.67391-2.20029 1.50521-2.20029 1.5052.98511 1.5052 2.20029z" id="path6996-1"/><path style="display:inline;fill-opacity:1;fill-rule:nonzero;fill:#ff0;opacity:1;stroke-dasharray:none;stroke-linecap:butt;stroke-linejoin:round;stroke-miterlimit:4;stroke-opacity:1;stroke-width:0;stroke:#000" d="m312.19272 197.49996a1.5052046 2.2002876.0 01-1.5052 2.20029 1.5052046 2.2002876.0 01-1.50521-2.20029 1.5052046 2.2002876.0 011.50521-2.20029 1.5052046 2.2002876.0 011.5052 2.20029z" id="path6998-9"/><path style="display:inline;fill-opacity:1;fill-rule:nonzero;fill:#ff0;opacity:1;stroke-dasharray:none;stroke-linecap:butt;stroke-linejoin:round;stroke-miterlimit:4;stroke-opacity:1;stroke-width:0;stroke:#000" d="m345.49508 207.99597a1.5052046 1.3164052.0 01-1.5052 1.3164 1.5052046 1.3164052.0 01-1.50521-1.3164 1.5052046 1.3164052.0 011.50521-1.31641 1.5052046 1.3164052.0 011.5052 1.31641z" id="path7000-9"/><path style="display:inline;fill-opacity:1;fill-rule:nonzero;fill:#ff0;opacity:1;stroke-dasharray:none;stroke-linecap:butt;stroke-linejoin:round;stroke-miterlimit:4;stroke-opacity:1;stroke-width:0;stroke:#000" d="m278.69108 205.03516a1.5052046 1.3164052.0 01-1.5052 1.3164 1.5052046 1.3164052.0 01-1.50521-1.3164 1.5052046 1.3164052.0 011.50521-1.31641 1.5052046 1.3164052.0 011.5052 1.31641z" id="path7002-1"/></svg>