<svg viewBox="0 0 560 1e3"><path style="stroke-width:1.03580642" id="path3235" d="m231.54168 408.55495c7.29569 4 18.02464 8.7 31.43583 10.4 11.58726 1.4 20.06313-.1 32.93787-2.5 25.74948-4.8 67.47265-17.89727 67.47265-17.89727s.2351 3.86332-.0956 7.54727c-2.72585 4.40415-37.87623 11.80197-42.80774 13.15-4.82803 1.3-11.37269 3.1-20.27772 4.8-9.33418 1.8-17.27361 3.3-27.89527 3.2-3.43326.0-9.07379-.3125-14.97471-1.2125-6.54466-1-29.26491-10.41212-30.08131-11.77624-.71206-.99959-.86097.53322-.7899-1.59876.2022-.939.73166-3.02358 2.15099-4.83125 1.39476-.2 1.85203-.38125 2.92492.71875z"/><path id="path3237" d="m243.86849 414.06206s8.29688 3.2 18.1023 4.7c12.17594 1.9 61.19178-7.16593 101.47408-20.38655.0.0.38422 3.74147-.0142 7.84905-8.48583 4.84078-34.36838 9.97224-43.05847 12.3375-5.92635 1.6-12.39146 3.3-20.36509 4.8-11.85269 2.1-24.9984 4.5-40.62241 2.3-6.71997-.51845-33.97126-11.75289-33.92882-11.99375-.15495-1.36862-.66193-6.79458-.73726-8.69277 5.40006 2.38118 14.43915 7.315 19.14983 9.08652z" class="steel_chastity"/><rect id="rect3239" height="20.000801" width="10.100405" transform="rotate(0.45160762)" y="407.91211" x="266.772"/><rect id="rect3241" height="19.400776" width="9.1003647" class="steel_chastity" transform="rotate(0.45160762)" y="407.9202" x="266.76672"/><circle id="circle3243" cy="271.34311" cx="-414.13986" transform="rotate(-89.548392)" r="2.9001162"/><rect id="rect3245" height="9.8003931" width="1.400056" transform="rotate(0.45160762)" y="413.32043" x="270.67728"/></svg>