<svg viewBox="0 0 560 1e3"><path id="path7174" d="m310.32728 122.92992c-2.34062-.73491-3.95967-.9398-6.47367-.81923-5.49897.26372-8.41111.45534-9.4054.61887-1.16863-.12748-2.90307 1.41592-3.11519 1.08972.2259-1.02561.33475-1.54459.96505-2.63921.0383.10933.0713.56485.18807.50657.12267-.0612.18093-.83633.64685-1.55123.17072.18351.1414.77744.24147.70023.10278-.0793.0993-.78556.82055-1.60671.15251.59315-.1696 1.4168-.003 1.17485.54928-.8042.68454-1.09517 1.54272-1.39675.74554-.47222 7.46206-.72909 10.68247-.0799.768.15482 1.89904.36413 2.51344.46514 1.26363.20775 2.83286.66192 2.9205.84524.0322.0671 5.25036 2.96174 7.03531 6.50461-.49283.16853-7.68912-3.53889-8.55952-3.81217zm-39.08404-4.24075c.93232.10223 1.5093.44353 1.78817.61856.41141.25822.11507-.34349.11288-.70459.32751-.12411.92797.80327 1.21478 1.23029.21453.31939.0157-1.15258.22486-.78546.19435.34107.55858 1.48323.73062 1.82625.1587.31644-.0271-.76835.15952-.51642.92128 1.24371.71568 2.89185.79786 3.14449-.13777.21262-.98361-1.08081-2.72096-.88486-2.54577.2701-5.42281.55437-7.71494 1.79674-.27089.20234-.61654.36789-.76811.36789-.23547.0-.23119-.0643.0294-.44199.3451-.50011.28605-.52524-.55531-.23634-5.23285 1.1397-5.08353 3.49542-4.73965-.64748 3.59257-2.62701 6.84977-4.12475 11.44088-4.76708z" class="eyebrow_hair"/></svg>