<svg viewBox="0 0 560 1e3"><path id="path4485" d="m281.12 204.097c1.76287 4.07228 17.19202 8.59932 13.93858 14.2132-.41019-6.01263 28.73216-11.84833 32.29944-14.59546" style="display:inline;fill-rule:evenodd;fill:none;stroke-dasharray:none;stroke-linecap:butt;stroke-linejoin:miter;stroke-miterlimit:3;stroke-opacity:1;stroke-width:5;stroke:#000"/><path id="path4491" d="m283.20925 457.85928c-10.24818-3.65074-12.19771-8.47811-13.14205-9.13293-3.48868-2.41906-25.29434-31.62162-35.93034-37.68891" style="display:inline;fill:none;stroke-dasharray:none;stroke-linecap:butt;stroke-linejoin:miter;stroke-miterlimit:4;stroke-opacity:1;stroke-width:5;stroke:#000"/><path id="path4495" d="m262.61148 457.66092c.0971-.0743.39896-.14737.48137-.44924.65805-2.41031 8.31304-12.2898 15.48987-17.60178.1214-.0898 31.92814-23.95594 52.99727-31.64452" style="display:inline;fill:none;stroke-dasharray:none;stroke-linecap:butt;stroke-linejoin:miter;stroke-miterlimit:4;stroke-opacity:1;stroke-width:5;stroke:#000"/><path id="path4498" d="m345.69741 401.15953c-27.24808 14.19379-55.9419 22.0963-78.2342 20.34786-12.10128-.94914-22.19066-5.48488-39.73776-13.36417" style="display:inline;fill:none;stroke-dasharray:none;stroke-linecap:butt;stroke-linejoin:miter;stroke-miterlimit:4;stroke-opacity:1;stroke-width:5;stroke:#000"/><path id="path4500" d="m284.55365 435.44823c-1.73883-1.23029-10.50162-4.47957-14.45556-11.33521" style="display:inline;fill:none;stroke-dasharray:none;stroke-linecap:butt;stroke-linejoin:miter;stroke-miterlimit:4;stroke-opacity:1;stroke-width:5;stroke:#000"/><path id="path4502" d="m257.50856 434.0939c-.66616.86984 5.23612-2.12224 12.30421-12.26198" style="display:inline;fill:none;stroke-dasharray:none;stroke-linecap:butt;stroke-linejoin:miter;stroke-miterlimit:4;stroke-opacity:1;stroke-width:5;stroke:#000"/><path id="path4504" d="m302.64498 418.60656c-1.73883-1.23029-28.25772-64.88858-28.1458-68.56224" style="display:inline;fill:none;stroke-dasharray:none;stroke-linecap:butt;stroke-linejoin:miter;stroke-miterlimit:4;stroke-opacity:1;stroke-width:5;stroke:#000"/><path id="path4507" d="m242.05481 413.73414c1.44315-2.82128 28.88103-61.16887 29.47236-62.57393" style="display:inline;fill:none;stroke-dasharray:none;stroke-linecap:butt;stroke-linejoin:miter;stroke-miterlimit:4;stroke-opacity:1;stroke-width:5;stroke:#000"/><path id="path4509" d="M268.46363 421.64667C266.7248 420.41638 256.83701 406.5421 253.13307 391.18646" style="display:inline;fill:none;stroke-dasharray:none;stroke-linecap:butt;stroke-linejoin:miter;stroke-miterlimit:4;stroke-opacity:1;stroke-width:5;stroke:#000"/><path id="path4511" d="m268.99849 422.75277c1.26117-1.73029 20.99838-27.35457 19.79444-35.33521" style="display:inline;fill:none;stroke-dasharray:none;stroke-linecap:butt;stroke-linejoin:miter;stroke-miterlimit:4;stroke-opacity:1;stroke-width:5;stroke:#000"/><path id="path4543" d="m271.3845 351.45024c1.44315-2.82128 25.06635-47.38769 25.00149-49.82391" style="display:inline;fill:none;stroke-dasharray:none;stroke-linecap:butt;stroke-linejoin:miter;stroke-miterlimit:4;stroke-opacity:1;stroke-width:5;stroke:#000"/><path id="path4545" d="m275.36922 353.45714c-.78768-2.18144-11.52383-49.82124-11.41191-53.4949" style="display:inline;fill:none;stroke-dasharray:none;stroke-linecap:butt;stroke-linejoin:miter;stroke-miterlimit:4;stroke-opacity:1;stroke-width:5;stroke:#000"/><path id="path4547" d="m263.9236 300.43482c.006-1.50878 17.79935-27.25511 17.73449-29.81633" style="display:inline;fill:none;stroke-dasharray:none;stroke-linecap:butt;stroke-linejoin:miter;stroke-miterlimit:4;stroke-opacity:1;stroke-width:5;stroke:#000"/><path id="path4550" d="m296.4126 301.75098c-.0161-.29344-14.73727-28.71915-14.80213-31.28037" style="display:inline;fill:none;stroke-dasharray:none;stroke-linecap:butt;stroke-linejoin:miter;stroke-miterlimit:4;stroke-opacity:1;stroke-width:5;stroke:#000"/><path id="path4552" d="m348.42472 328.31556c-3.4588-2.55232-50.3335-20.00943-52.38709-27.38782" style="display:inline;fill:none;stroke-dasharray:none;stroke-linecap:butt;stroke-linejoin:miter;stroke-miterlimit:4;stroke-opacity:1;stroke-width:5;stroke:#000"/><path id="path4554" d="m243.61252 317.35244c2.51117-.35529 19.26094-14.62589 20.4945-17.35653" style="display:inline;fill:none;stroke-dasharray:none;stroke-linecap:butt;stroke-linejoin:miter;stroke-miterlimit:4;stroke-opacity:1;stroke-width:5;stroke:#000"/><path id="path4556" d="m295.1758 217.75274c-.31725 2.29636-10.084 24.46384-13.6234 53.72979" style="display:inline;fill:none;stroke-dasharray:none;stroke-linecap:butt;stroke-linejoin:miter;stroke-miterlimit:4;stroke-opacity:1;stroke-width:5;stroke:#000"/><path id="path4558" d="m268.99395 324.2539c-2.60871 6.67905-9.59488 19.71997-12.42415 22.36891" style="display:inline;fill:none;stroke-dasharray:none;stroke-linecap:butt;stroke-linejoin:miter;stroke-miterlimit:4;stroke-opacity:1;stroke-width:5;stroke:#000"/><path id="path4560" d="m284.21309 326.02717c.97088 9.18802 6.82201 21.98747 9.20623 23.43433" style="display:inline;fill:none;stroke-dasharray:none;stroke-linecap:butt;stroke-linejoin:miter;stroke-miterlimit:4;stroke-opacity:1;stroke-width:5;stroke:#000"/><path id="path4562" d="m334.6922 346.80309c-.90835-.65545-39.2365 4.06508-61.5288 2.31664-12.10128-.94914-25.81459-6.8107-28.33567-7.35376" style="display:inline;fill:none;stroke-dasharray:none;stroke-linecap:butt;stroke-linejoin:miter;stroke-miterlimit:4;stroke-opacity:1;stroke-width:5;stroke:#000"/><path id="path4564" d="m281.16309 367.27287c.65966-1.49283 7.87996-15.67051 11.74615-17.51458" style="display:inline;fill:none;stroke-dasharray:none;stroke-linecap:butt;stroke-linejoin:miter;stroke-miterlimit:4;stroke-opacity:1;stroke-width:5;stroke:#000"/><path id="path4566" d="m264.62194 365.51681c-.85495-1.76062-5.3751-18.09137-5.7935-19.11338" style="display:inline;fill:none;stroke-dasharray:none;stroke-linecap:butt;stroke-linejoin:miter;stroke-miterlimit:4;stroke-opacity:1;stroke-width:5;stroke:#000"/><path id="path4568" d="m362.90559 294.65177c-2.878-.55419-51.44138-4.11597-81.76209-21.82716" style="display:inline;fill:none;stroke-dasharray:none;stroke-linecap:butt;stroke-linejoin:miter;stroke-miterlimit:4;stroke-opacity:1;stroke-width:5;stroke:#000"/><path id="path4570" d="m281.67372 270.99797c-2.60871 6.67905-39.88176 16.26546-43.41814 16.79308" style="display:inline;fill:none;stroke-dasharray:none;stroke-linecap:butt;stroke-linejoin:miter;stroke-miterlimit:4;stroke-opacity:1;stroke-width:5;stroke:#000"/></svg>