<svg viewBox="0 0 560 1e3"><path d="m283.66521 456.38067c-1.54841.73859-1.78928 15.78672-9.24659 11.14886-5.5459 3.1603-10.12915-4.94173-10.42429-8.4126-.25114-2.95343 3.37748-7.20053 3.87403-6.51846 2.14579-.003 16.30971 2.85987 15.79685 3.7822z" class="shadow" id="path4197"/><path d="m274.36595 467.58332c-3.81452 2.31718-9.64064-2.27902-10.8644-11.68664 5.95334-21.67633 25.49385-8.31185 20.23612.35499-2.87984 4.74713-3.52005 14.37508-9.37172 11.33165z" class="skin torso" id="path4199"/><path style="display:inline;fill-opacity:1;fill:#1a1a1a;stroke-dasharray:none;stroke-linecap:butt;stroke-linejoin:miter;stroke-miterlimit:4;stroke-opacity:1;stroke-width:0;stroke:#000" d="m268.15022 466.84042c1.97544 1.15064 3.44304 1.50895 6.29117.74829 1.48394 1.11892 3.67809 1.01117 5.52348-.15189 7.82224-13.26047 17.50609-22.59748 28.5432-30.20656 15.92414-7.32512 35.65563-13.9168 53.63813-16.61521 1.23117-3.1619 1.68227-3.76161 2.13393-4.78976-6.98714 2.20071-22.51132 7.70378-29.76675 10.33389-24.29445 8.80678-49.30882 19.5271-67.78558 12.72247-9.19987 1.7019-17.1878-.81844-23.32533-3.95341-4.55174-2.32496-10.86997-4.23668-19.09203-20.26188.42664 8.69013 22.80751 34.79862 43.83979 52.17406z" id="path4201"/><path style="display:inline;fill-opacity:1;fill:#333;stroke-dasharray:none;stroke-linecap:butt;stroke-linejoin:miter;stroke-miterlimit:4;stroke-opacity:1;stroke-width:0;stroke:#000" d="m275.25299 462.86252c-6.58379-2.05713-8.97807-13.24652-9.4981-23.86278-1.07418.15185-1.78047.0916-3.12071.37515.10978 11.93368 2.68079 23.93364 12.61881 23.48763z" id="path4203"/><path style="display:inline;fill-opacity:1;fill:#333;stroke-dasharray:none;stroke-linecap:butt;stroke-linejoin:miter;stroke-miterlimit:4;stroke-opacity:1;stroke-width:0;stroke:#000" d="m232.01359 429.27083c.26572-.3522.52338-.70987.7725-1.07137-.29849-.3272-.7716-.94227-.7716-.94227-.30788.45912-.65581.94298-1.00603 1.40214.31554.91926.31461.36013 1.00513.6115z" id="path4205"/><path id="path4207" class="shadow" d="m308.2039 435.78241s-21.36416 18.05915-22.90518 20.89604c6.85085-6.07995 28.65766-22.84858 28.65766-22.84858z"/><path id="path4209" class="shadow" d="m262.16576 457.53039c-6.81704-9.41592-28.83006-31.99347-34.93819-34.15183 5.05404 5.44075 26.5203 25.35081 34.93819 34.15183z"/><path d="m262.98857 459.03749c4.57815 9.39542 7.95428 8.94718 11.45233 8.01034.29456-.0789 5.02218 4.77996 9.26343-8.71666-1.38475 8.70911-4.94655 11.74021-9.3291 9.59651-.0226-.0111-2.82256 1.04466-4.71233.003-2.95847-1.63089-6.486-5.681-6.67433-8.8931z" class="shadow" id="path4211"/><path id="path4213" d="m335.37111 425.83232c8.90478-2.06457 25.79776-6.87759 27.68022-6.82607.17382-1.68154 1.0928-2.2079.8411-3.10989-1.75576.62762-16.10436 3.44602-28.52132 9.93596z" style="display:inline;fill-opacity:1;fill:#333;stroke-dasharray:none;stroke-linecap:butt;stroke-linejoin:miter;stroke-miterlimit:4;stroke-opacity:1;stroke-width:0;stroke:#000"/><path id="path4238-3-9-3" d="m371.6898 270.22619c.57746 9.24593 1.7189 28.50735-1.40065 40.696-66.74361-8.03197-132.02579-8.49693-137.54578-6.0638-1.10839-21.54956-.12657-32.63476 4.83014-53.0977 50.54474.32853 93.53218 3.12206 134.11629 18.4655z" style="display:inline;fill-opacity:1;fill-rule:evenodd;fill:#000;opacity:1;stroke-dasharray:none;stroke-linecap:butt;stroke-linejoin:miter;stroke-miterlimit:4;stroke-opacity:1;stroke-width:0;stroke:#000"/><path id="path4240-6-2-0" d="m369.51137 309.78263c-55.12275-8.36934-126.64983-8.64117-135.76034-6.26247-1.34908-23.52121 1.95145-38.87779 4.68879-50.90757 12.4531.21782 86.73913.93307 132.51692 18.25599.51622 10.00929 1.03619 29.36273-1.44537 38.91405z" style="display:inline;fill-opacity:1;fill-rule:evenodd;fill:#1a1a1a;opacity:1;stroke-dasharray:none;stroke-linecap:butt;stroke-linejoin:miter;stroke-miterlimit:4;stroke-opacity:1;stroke-width:0;stroke:#000"/></svg>