<svg viewBox="0 0 560 1e3"><path id="path4195" d="m359.99199 422.07478c-2.85298 17.41215-18.68685 60.35705 6.78006 51.38096 1.89239-.86095 4.34302-1.42655 7.46448-2.58054-1.18594-15.82272-8.34537-36.63001-14.24454-48.80042z" style="baseline-shift:baseline;clip-rule:nonzero;color-interpolation-filters:linearRGB;color-interpolation:sRGB;color-rendering:auto;color:#000;direction:ltr;display:inline;enable-background:accumulate;fill-opacity:1;fill-rule:evenodd;fill:#000;image-rendering:auto;isolation:auto;mix-blend-mode:normal;opacity:1;overflow:visible;shape-rendering:auto;solid-color:#000000;solid-opacity:1;stroke-dasharray:none;stroke-dashoffset:0;stroke-linecap:butt;stroke-linejoin:miter;stroke-miterlimit:4;stroke-opacity:1;stroke-width:3;stroke:none;visibility:visible;white-space:normal;writing-mode:lr-tb"/><path id="path4198" d="m359.83255 419.55194c-2.85298 17.41215-18.68685 60.35705 6.78006 51.38096 1.89239-.86095 4.34302-1.42655 7.46448-2.58054-1.18594-15.82272-8.34537-36.63001-14.24454-48.80042z" style="baseline-shift:baseline;clip-rule:nonzero;color-interpolation-filters:linearRGB;color-interpolation:sRGB;color-rendering:auto;color:#000;direction:ltr;display:inline;enable-background:accumulate;fill-opacity:1;fill-rule:evenodd;fill:#c8c8c8;image-rendering:auto;isolation:auto;mix-blend-mode:normal;opacity:1;overflow:visible;shape-rendering:auto;solid-color:#000000;solid-opacity:1;stroke-dasharray:none;stroke-dashoffset:0;stroke-linecap:butt;stroke-linejoin:miter;stroke-miterlimit:4;stroke-opacity:1;stroke-width:3;stroke:none;visibility:visible;white-space:normal;writing-mode:lr-tb"/><path id="path4200" d="m205.77211 473.45863c.69231-.2253 9.41549.16022 9.89027.19424 8.22418.58936 12.97845-9.08435 6.87327-51.27656-1.69202 2.22818-14.80311 29.57681-16.76354 51.08232z" style="baseline-shift:baseline;clip-rule:nonzero;color-interpolation-filters:linearRGB;color-interpolation:sRGB;color-rendering:auto;color:#000;direction:ltr;display:inline;enable-background:accumulate;fill-opacity:1;fill-rule:evenodd;fill:#000;image-rendering:auto;isolation:auto;mix-blend-mode:normal;opacity:1;overflow:visible;shape-rendering:auto;solid-color:#000000;solid-opacity:1;stroke-dasharray:none;stroke-dashoffset:0;stroke-linecap:butt;stroke-linejoin:miter;stroke-miterlimit:4;stroke-opacity:1;stroke-width:3;stroke:none;visibility:visible;white-space:normal;writing-mode:lr-tb"/><path id="path4202" d="m206.03542 470.94523c.69231-.2253 9.48834.16129 9.721.12393 8.14099-1.30723 13.07358-8.88904 6.9684-51.08125-1.69202 2.22818-14.72897 29.45181-16.6894 50.95732z" style="baseline-shift:baseline;clip-rule:nonzero;color-interpolation-filters:linearRGB;color-interpolation:sRGB;color-rendering:auto;color:#000;direction:ltr;display:inline;enable-background:accumulate;fill-opacity:1;fill-rule:evenodd;fill:#c8c8c8;image-rendering:auto;isolation:auto;mix-blend-mode:normal;opacity:1;overflow:visible;shape-rendering:auto;solid-color:#000000;solid-opacity:1;stroke-dasharray:none;stroke-dashoffset:0;stroke-linecap:butt;stroke-linejoin:miter;stroke-miterlimit:4;stroke-opacity:1;stroke-width:3;stroke:none;visibility:visible;white-space:normal;writing-mode:lr-tb"/><path d="m215.01442 467.52135c-3.91271-.0123-8.20687-.70225-8.58076-.65558.0711-.41289.0347-.25771.47262-2.84759.41527-.0402 3.93467.69919 8.47137.70585-.0154 1.01101-.28236 2.34506-.36323 2.79732z" id="path3978-6-4-8-8-1-6" style="fill:#502"/><path d="m373.81412 465.95511c-2.91834 1.15884-5.86458 2.23666-6.23847 2.28333.0711-.41289-.24151.46044.19641-2.12944.44841-.21697 1.60342-.92494 5.94125-1.9016-.0154.24866.10434 1.43908.10081 1.74771z" id="path3978-6-4-8-8-1-6-0" style="fill:#502"/></svg>