<svg viewBox="0 0 560 1e3"><path style="display:inline;fill-opacity:1;fill-rule:evenodd;fill:#000;opacity:1;stroke-dasharray:none;stroke-linecap:butt;stroke-linejoin:miter;stroke-miterlimit:4;stroke-opacity:1;stroke-width:0;stroke:#000" d="m368.2693 268.62447c-.29569 3.70196-1.38029 18.92573-6.55229 37.61574-5.26688 19.03288-14.89313 28.30872-15.58309 29.72001-8.98727 10.77595-16.29031 22.19622-16.48609 30.38694-.29639 21.90279 43.10834 75.87457 36.70281 107.14688-26.62809 12.91809-96.218 3.03387-150.5054.2004-2.02999.80618 4.1961-43.62156 7.1834-56.20537 2.03661-8.57906 12.83566-31.68328 13.82985-36.7898 2.433-12.49684 5.15367-33.10127 5.32486-35.97542 1.17686-19.75827-3.04833-37.86802-4.48362-50.41278-1.43724-13.39401 1.61249-32.82671 2.76383-35.89612.49308-.63092 40.83391-2.24049 42.28042-1.923 3.13994 1.52155 58.67897 12.39606 59.78508 13.22062z" id="path3970"/><path style="display:inline;fill-opacity:1;fill-rule:evenodd;fill:#c8c8c8;opacity:1;stroke-dasharray:none;stroke-linecap:butt;stroke-linejoin:miter;stroke-miterlimit:4;stroke-opacity:1;stroke-width:0;stroke:#000" d="m368.46202 268.56519c-.47994 3.70196-3.34812 20.36978-8.61506 39.01662-3.47448 12.30088-5.55744 16.01193-22.45928 37.36063-16.50686 22.68138-8.30283 31.99104 4.194 47.25332 22.42862 24.39749 31.25258 57.44737 25.54922 78.4893-25.51486 14.33953-86.57168 2.2015-152.37058.37494-2.03599.32824 3.93903-43.35344 8.37553-54.64812 7.97823-20.31139 13.00844-30.22159 14.49785-35.45311 3.48577-12.24371 5.15535-34.29582 5.32545-37.16997 1.28196-21.66848-3.96602-36.6242-4.85842-49.16156-2.16052-8.63346 1.11636-38.47649 5.15016-47.32595 1.59751-3.7218 9.01511-30.20798 11.03499-36.60224 15.27851 2.79661 29.24595-6.72979 30.68013-7.48082 8.02776 25.37184 21.38068 7.23105 35.44117.19379 14.19958 7.4797 34.65481 15.5952 43.22164 13.0809 2.08399 8.81934 6.24569 21.32392 6.92905 31.91664.71866 11.13973-2.09585 20.15568-2.09585 20.15568z" id="path3976"/><path d="m329.89929 425.67495c-15.4791 1.19068-42.03653 26.26041-44.60913 30.99635 10.29989-9.14088 29.75951-26.28541 44.60913-30.99635z" class="shadow" id="path3978"/><path d="m262.1572 457.52324c-6.81704-9.41592-28.83006-31.99347-34.93819-34.15183 5.05404 5.44075 26.5203 25.35081 34.93819 34.15183z" class="shadow" id="path3981"/><path d="m370.89498 248.91101c-14.28761 3.4517-39.57779.22222-63.55453-.0622-.76871-.009-4.55295 23.36885-5.31895 23.35549-8.14484-.14197-16.64544-1.0597-23.96321-1.69665-.83551-.0727 2.41888-23.00234 1.6011-23.08173-16.6858-1.61975-31.85516-1.06068-34.90441-5.65091.0.0 8.5762-30.08681 9.44936-31.27231.55644-.38434 31.35031-9.72429 31.46955-9.3804 7.71543 22.24762 16.38371 11.37414 34.45274-.3764.0.0 25.77608 5.06465 36.79641 12.04224 17.11913 1.23236 13.97194 36.12287 13.97194 36.12287z" id="path3978-6" style="fill:#502;stroke-width:1.00690186"/><path d="m370.09139 259.29479c-3.7718-.0651-56.04318-.74488-57.23015-.42568-.49741.13377-3.99792 19.68794-4.51295 19.67978-8.48953-.13443-28.85705-1.73335-37.31766-2.24918-.29599-.018.62937-21.38527.33539-21.39932-17.28597-.82592-27.75935-1.37611-30.12112-1.57965.7254-1.46479.66104-5.11893 1.34572-5.00908 8.27579 1.32769 20.33503 2.4968 33.78312 3.47327.41485.0301-1.5189 20.7581-1.10143 20.78786 9.95814.70983 19.25189 1.38798 29.67992 1.87441.38537.018 4.49685-20.73548 4.88151-20.71782 31.24934 1.43402 59.99711 1.79553 60.41692.71697.50559-1.29888 1.34571 3.45536-.15927 4.84844z" id="path3978-6-4" style="fill:#502;stroke-width:1.00190759"/><path d="m367.84367 468.12495c-23.10304 14.64267-144.45888-.0813-152.88732-.59713.0933-.41289-.42922-.20448.14571-2.79436 9.92027.70983 123.24261 14.07679 153.13707 1.14595-.0202 1.01101-.28927 1.98078-.39546 2.24554z" id="path3978-6-4-8-8" style="fill:#502"/></svg>