<svg viewBox="0 0 560 1e3"><path d="m198.6736 432.60045c.44307-.19114 1.16058.0354 1.57185-.1595 19.57319-9.25629 3.37519-22.57575-1.502-21.93869-13.16198 4.79398-8.09894 18.34712-3.81056 19.09401.0615.0463.51199 1.1887 3.74071 3.00415z" id="path3898" style="fill:#000;stroke-width:3.84700394"/><path d="m240.60126 463.83454c18.38871 5.32141 36.91871 11.48722 43.27245-5.05262 1.9607-5.71935.70182-9.76611-3.2252-11.24976-16.2116-5.25509-50.71102-20.6506-60.7919-30.49862-1.39182-2.21323-1.15766-2.53217-2.57337-4.0511-3.00163-3.22044-6.86037-2.89185-10.014-2.71258-1.90056.10821-6.80603-.49931-8.33164.13175-1.2815.53009-2.39953 1.28202-3.12862 2.24136-.22648.29818 1.50573-.65155 1.66836-.77883 4.57804-3.58315 22.86751 11.48842 2.48308 20.31503-1.88702.81709-7.66762-5.2807-7.61602-5.07271.32989 1.33122 2.53096 3.42685 4.46795 4.76789 1.15664.80073 2.47252 1.10022 2.94111 1.95972 5.63334 10.33182 18.05344 21.67625 40.8478 30.00026z" id="path3900" style="fill:#000;stroke-width:3.84700394"/><path d="m195.13843 428.11967c7.0158 4.36308 20.31063-1.59849 23.65406-9.91573-.84193-2.48172-3.7283-7.28001-7.11479-7.16441-9.66508.32976-9.44991-.6275-13.51142.60768-8.12501 3.63195-9.13884 11.25972-4.7433 16.90407.43092.34341.99143-.26397 1.71545-.43181z" id="path3902" class="areola"/><path d="m193.52675 423.44009c.0997.75828.99943 2.29532 1.97295 2.57231-.005-.0394-.23936-1.34604-.24881-1.38587-.31478-1.34374-1.70822-5.29985.56501-9.74006-2.28686 2.68838-2.69962 5.35023-2.28933 8.55362z" id="path3904" style="fill:#000;stroke-width:3.84700394"/><path d="m241.7707 462.98102c18.21673 5.27175 35.72267 12.5303 42.85116-3.81006 1.94242-5.66584 1.82086-8.88878-2.06945-10.35866-16.90219-4.20572-52.57241-20.14959-62.55898-29.90545-4.70143 6.857-9.34778 10.62256-19.30281 11.53189-1.67599-.021-3.45771-.48025-5.25208-1.55327-.3887-.23261-1.02131.21353-1.29278.31109-.31185.21548 7.30375 4.89654 7.14262 5.26023 5.58066 10.23528 17.90111 20.27827 40.48229 28.52439z" class="skin penis" id="path3906"/></svg>