<svg viewBox="0 0 560 1e3"><path id="path2558-9-7" d="m370.26486 269.14852c.40069 1.40387 4.09204 19.96845-3.09702 44.84797-5.42713 18.7819-8.95595 32.11961-9.55233 33.57769 13.91321 32.26409 13.03794 35.89217 4.89476 67.53792.0.0-65.14963-.0414-76.65885 28.29594-2.06147 4.01155-2.1084 11.81811-3.46792 16.10443-.27859.87834-1.00697 6.35332-3.50565 8.26757-.26944.20641-1.13656 1.14752-4.58251.28177-.17413-.0437-1.37345.71664-3.61847.0361-5.83439-1.76869-6.66978-8.86034-6.76649-9.28816-1.98539-8.78313-6.24957-28.02971-9.43291-34.24779-14.19124-27.72004-31.76751-23.57294-33.07535-25.90927-3.76509-24.96141 5.20218-51.88316 15.53337-77.59023-3.76103-19.56254-3.93224-46.76251 1.041-68.02357 14.56506-.6654 72.92031-7.17066 96.82823.27115 10.74133 2.58221 31.96088 12.89422 33.06699 13.71878z" style="display:inline;fill-opacity:1;fill-rule:evenodd;fill:#000;opacity:1;stroke-dasharray:none;stroke-linecap:butt;stroke-linejoin:miter;stroke-miterlimit:4;stroke-opacity:1;stroke-width:0;stroke:#000"/><path id="path2560-4-7" d="m370.60102 269.06519c-.47811 3.70196 1.23244 27.68412-5.00646 46.0229-6.28969 18.48806-8.01805 28.80569-9.64071 33.29628 14.27539 31.48761 10.76224 27.73301 6.17666 66.25518-40.10653 11.44456-76.28916 41.9916-77.06083 44.32937-.78385 1.88787-3.29932 8.5329-5.79622 10.31331-1.21712.86786-4.8236-.18577-5.07554-.20987-.29397-.0276-1.12355.44604-3.33637-.1263-5.65546-1.4629-9.47467-5.19754-10.04678-7.14824-18.43111-29.49711-34.93476-61.44084-39.66017-62.62979-.42438-42.9078 14.75749-67.17885 16.81592-77.45851-2.67333-21.55783-3.38725-48.07577 1.21119-67.78083 20.93782-.29266 64.31561-5.51245 84.95638-2.15674 20.57738 3.34541 45.30886 17.04982 46.46293 17.29324z" style="display:inline;fill-opacity:1;fill-rule:evenodd;fill:#c8c8c8;opacity:1;stroke-dasharray:none;stroke-linecap:butt;stroke-linejoin:miter;stroke-miterlimit:4;stroke-opacity:1;stroke-width:0;stroke:#000"/><path id="path2562-5-5" d="m220.76191 399.9227c13.0124 5.20002 34.23897 71.22457 54.26076 69.52238 13.4605-1.86072 26.62966-27.71465 88.96023-52.95747 13.63574-12.94248 5.53799-35.48021 2.61473-45.02972-45.102 11.9464-139.31118 10.1862-144.65152.78242.0.0-.55121 27.08974-1.1842 27.68239z" style="display:inline;fill-opacity:1;fill:#000;opacity:1;stroke-dasharray:none;stroke-linecap:butt;stroke-linejoin:miter;stroke-miterlimit:4;stroke-opacity:1;stroke-width:0;stroke:#000"/><path id="path2564-7-0" d="m225.10519 414.36072c13.0124 5.20002 30.23897 58.28707 50.26076 56.58488 13.4605-1.86072 24.37966-26.15215 86.71023-51.39497 10.45197-14.82422 7.2056-34.78872 4.031-45.72036-45.102 11.9464-138.95601 8.94181-144.29635-.46202.0.0 6.80235 30.21227 3.29436 40.99242z" style="display:inline;fill-opacity:1;fill:#4d4d4d;opacity:1;stroke-dasharray:none;stroke-linecap:butt;stroke-linejoin:miter;stroke-miterlimit:4;stroke-opacity:1;stroke-width:0;stroke:#000"/><path style="display:inline;fill-opacity:1;fill:#000;opacity:.97000002;stroke-dasharray:none;stroke-linecap:butt;stroke-linejoin:miter;stroke-miterlimit:4;stroke-opacity:1;stroke-width:0;stroke:#000" d="m233.25868 469.23078c1.37187 3.40671 82.62927 6.52701 84.41648 2.68792 7.90056-16.97113 39.85496-54.6367 53.71222-81.54828-.54031-6.464-4.21047-17.21401-4.69282-18.52083-45.10199 11.9464-139.5343 10.44196-144.87464 1.03813-4.51388 19.73376-.62388 65.62988 11.43876 96.34306z" id="path2246-4-41-0-9-4-9-20-3-9-2"/><path id="path2568-5-2" d="m366.01306 378.36359c-.0508-.13663-.32934-1.79746-.28921-1.76865 2.4837 1.78281 12.51773 2.24849 13.79677.81029 4.76421-5.35705-12.89361-17.4965-13.66653-1.39538-.0727-.19109-.008-1.52879-.0247-1.80177-1.4607-23.95073 33.04893 10.48248 1.74614 4.51489z" style="display:inline;fill-opacity:1;fill:#000;opacity:1;stroke-dasharray:none;stroke-linecap:butt;stroke-linejoin:miter;stroke-miterlimit:4;stroke-opacity:1;stroke-width:0;stroke:#000"/><path id="path2570-5-7" d="m366.08663 378.16028c-.0508-.13663-.23362-1.66958-.19408-1.63996 2.2962 1.72031 12.28978 2.08855 13.56882.65035 4.76421-5.35705-12.85197-17.39004-13.62489-1.28892-.0727-.19109-.19351-1.5285-.20898-1.80154-1.35419-23.8996 34.44063 11.33344.45913 4.08007z" style="display:inline;fill-opacity:1;fill:#e1e1ff;opacity:1;stroke-dasharray:none;stroke-linecap:butt;stroke-linejoin:miter;stroke-miterlimit:4;stroke-opacity:1;stroke-width:0;stroke:#000"/><path id="path2572-0-7" d="m368.54461 378.48154c6.55752 2.66278 9.90514 4.04885 13.0944 3.0818 10.92536-3.3128-2.18327-20.91676-15.60976-7.54261.0803-.0665.0174.13508.10062.0746 17.69527-12.8555 29.88422 14.78059 2.41414 3.75995-.0573-.023 6e-4.62627 6e-4.62627z" style="display:inline;fill-opacity:1;fill:#000;opacity:1;stroke-dasharray:none;stroke-linecap:butt;stroke-linejoin:miter;stroke-miterlimit:4;stroke-opacity:1;stroke-width:0;stroke:#000"/><path id="path2566-0-7" d="m234.60182 468.08061c1.37187 3.40671 80.62927 6.27701 82.41648 2.43792 7.90056-16.97113 39.18269-53.58661 53.03995-80.49819-.0586-.91628-1.07858-6.01978-3.40284-17.93428-45.10199 11.9464-138.906 11.33381-144.24634 1.92998-4.00788 30.4474 1.48089 66.97312 12.19275 94.06457z" style="display:inline;fill-opacity:1;fill:#e1e1ff;opacity:1;stroke-dasharray:none;stroke-linecap:butt;stroke-linejoin:miter;stroke-miterlimit:4;stroke-opacity:1;stroke-width:0;stroke:#000"/><path id="path2574-4-6" d="m368.04927 378.28067c6.55752 2.66278 10.15514 4.11135 13.3444 3.1443 10.92536-3.3128-1.7917-21.42732-15.59319-7.27192.0803-.0665.0316.2.11167.13536 17.29752-13.96036 29.8566 14.44913 2.38652 3.42849-.0573-.023-.2494.56377-.2494.56377z" style="display:inline;fill-opacity:1;fill:#e1e1ff;opacity:1;stroke-dasharray:none;stroke-linecap:butt;stroke-linejoin:miter;stroke-miterlimit:4;stroke-opacity:1;stroke-width:0;stroke:#000"/></svg>