<svg viewBox="0 0 560 1e3"><path style="display:inline;fill:#000;stroke-width:1.01138461" d="m206.4365 526.16361c4.15596 36.58918 17.46544 82.36704 25.42201 104.82303 7.35669 20.76292 13.17994 32.756 13.20944 33.04292.51521 5.00362 3.94733 43.85291 3.94733 45.62519 2.2184 37.58412 3.52717 105.98763 4.88945 131.35304.20778 3.86888-2.14469 9.31314-2.64548 10.87231-.94592 3.19846-4.17038 9.57226-4.18981 12.19158-8.99581 16.25696-1.10673 44.07523.10535 53.20125.72384 1.38574-3.22862 13.6349-10.00151 15.06574-5.4131 1.14344-2.03517 10.73493.98584 16.56563 2.35019 1.10568 23.75798.73582 26.42884.33375 5.98211-5.82998 5.34211-40.9119 8.97391-57.39665 2.45699 12.66511.6409 45.5341 1.28199 56.79198h.85465c.8546-10.1522 1.17485-56.79198 4.16597-72.37207-1.28218-7.53876-9.09147-15.57854-12.08248-15.9806-.32333.0205-.96365-10.89038-1.46684-10.92335-.0196-.001-.0381-72e-5-.0576-.002 65e-5-.0996-.007-.19842-.002-.2984 1.47051-25.40059 9.91414-51.15443 15.77142-76.55374 4.11045-16.50009 9.05824-41.55519 4.77615-69.57645-.0576-.37678-.95251-5.01563-1.95577-9.18394-.80344-3.33814-1.7571-6.37559-1.80871-6.67887 5.69686-24.22934 7.90971-41.1885 8.04573-41.76746.15482-.65899 2.54316-19.64319 1.44894-31.05222.1747-.81645.36128-.95766.57441.0884 1.64406 8.06837 4.42558 16.07619 12.96695 38.33381 1.54563 6.06273 8.36349 27.54853 8.32 27.67744-4.02344 11.92964-5.42678 30.39198-5.33266 33.00759-3.22724 25.61954 4.3846 66.9693 4.3846 66.9693 2.948 23.45581 6.90515 44.18492 7.18707 68.4535-.25735.6403-.24055 6.20905.85467 12.59797-1.81605 20.40491-2.5976 36.39963-1.7431 50.5725-2.77749 6.83514 1.38979 28.74937 8.65391 47.84755 3.4183 1.90982 8.22475 2.61304 10.78858-.40246 6.83683-23.01834 12.17874-40.40775 9.82857-47.24289-.64094-10.05167-4.80776-38.80025-9.82857-52.57104-.22263-.0874-.51377-12.348-.78908-12.32116-.005 53e-5-.0124 99e-5-.0179.002-.094-.67473-.62463-1.45514-.61416-2.1144.34942-21.97764 4.00531-47.87743 7.26659-73.86607 2.19004-12.10417 4.42547-41.83345 3.16622-66.5001-.0872-1.70819-1.37914-21.373-1.83853-24.66587-.0958-.68743 23.3933-54.32454 23.30833-146.24602-27.87029 9.70959-71.56556 6.72406-92.06858-2.46776.045.44025.0815.91509.12521 1.36052-.0447-.37403-.1082-.98315-.14906-1.30554-2.41668.59265-42.36796 7.15393-71.14028-5.28787z" id="path2342-1-9"/><path style="display:inline;fill:#000;stroke-width:1.01138461" d="m204.59931 525.22611c4.15596 36.58918 17.40294 83.30454 25.35951 105.76053 7.35669 20.76292 13.17994 32.756 13.20944 33.04292.51521 5.00362 3.94733 43.85291 3.94733 45.62519 2.2184 37.58412 3.52717 105.98763 4.88945 131.35304.20778 3.86888-2.14469 9.31314-2.64548 10.87231-.94592 3.19846-4.17038 9.57226-4.18981 12.19158-8.99581 16.25696-1.10673 44.07523.10535 53.20125.72384 1.38574-3.22862 13.6349-10.00151 15.06574-5.4131 1.14344-2.03517 10.73493.98584 16.56563 2.35019 1.10568 23.75798.73582 26.42884.33375 5.98211-5.82998 5.34211-40.9119 8.97391-57.39665 2.45699 12.66511.6409 45.5341 1.28199 56.79198h.85465c.8546-10.1522 1.17485-56.79198 4.16597-72.37207-1.28218-7.53876-9.09147-15.57854-12.08248-15.9806-.32333.0205-.96365-10.89038-1.46684-10.92335-.0196-.001-.0381-72e-5-.0576-.002 65e-5-.0996-.007-.19842-.002-.2984 1.47051-25.40059 9.91414-51.15443 15.77142-76.55374 4.11045-16.50009 9.05824-41.55519 4.77615-69.57645-.0576-.37678-.95251-5.01563-1.95577-9.18394-.80344-3.33814-1.7571-6.37559-1.80871-6.67887 5.69686-24.22934 7.90971-41.1885 8.04573-41.76746.15482-.65899 2.54316-19.64319 1.44894-31.05222.1747-.81645.36128-.95766.57441.0884 1.64406 8.06837 4.42558 16.07619 12.96695 38.33381 1.54563 6.06273 8.36349 27.54853 8.32 27.67744-4.02344 11.92964-5.42678 30.39198-5.33266 33.00759-3.22724 25.61954 4.3846 66.9693 4.3846 66.9693 2.948 23.45581 6.90515 44.18492 7.18707 68.4535-.25735.6403-.24055 6.20905.85467 12.59797-1.81605 20.40491-2.5976 36.39963-1.7431 50.5725-2.77749 6.83514 1.38979 28.74937 8.65391 47.84755 3.4183 1.90982 8.22475 2.61304 10.78858-.40246 6.83683-23.01834 12.17874-40.40775 9.82857-47.24289-.64094-10.05167-4.80776-38.80025-9.82857-52.57104-.22263-.0874-.51377-12.348-.78908-12.32116-.005 53e-5-.0124 99e-5-.0179.002-.094-.67473-.62463-1.45514-.61416-2.1144.34942-21.97764 4.00531-47.87743 7.26659-73.86607 2.19004-12.10417 4.42547-41.83345 3.16622-66.5001-.0872-1.70819-1.37914-21.373-1.83853-24.66587-.0958-.68743 23.44018-53.65266 23.35521-145.57414-27.87029 9.70959-71.61244 6.05218-92.11546-3.13964.045.44025.0815.91509.12521 1.36052-.0447-.37403-.1082-.98315-.14906-1.30554-2.41668.59265-42.30546 6.21643-71.07778-6.22537z" id="path2342-1"/><path d="m207.42773 527.46875c4.08392 36.40107 17.10128 82.87626 24.91993 105.2168 7.22917 20.65618 12.95147 32.5876 12.98046 32.87304.50628 4.97789 3.87891 43.62745 3.87891 45.39063 2.17994 37.39089 3.46603 105.44272 4.80469 130.67773.20418 3.84899-2.1075 9.26526-2.59961 10.81641-.92953 3.18202-4.0981 9.52305-4.11719 12.12891-8.83988 16.17337-1.08755 43.84863.10352 52.92773.7113 1.37861-3.17265 13.5648-9.82813 14.98828-5.31928 1.13757-1.9999 10.67974.96875 16.48047 2.30944 1.1 23.34615.73203 25.97071.33203 5.87841-5.8 5.24951-40.70156 8.81835-57.10156 2.4144 12.6.62979 45.3 1.25977 56.5h.83984c.83978-10.1 1.15448-56.5 4.09375-72-1.25995-7.5-8.93387-15.49844-11.87304-15.89844-.31772.0204-.94694-10.83439-1.44141-10.86719-.0192-.001-.0375-71e-5-.0566-.002 64e-5-.0991-.007-.1974-.002-.29687 1.44502-25.26999 9.74229-50.89143 15.49804-76.16016 4.0392-16.41526 8.90123-41.34154 4.69336-69.21875-.0566-.37484-.936-4.98983-1.92187-9.13672-.78951-3.32098-1.72664-6.34281-1.77735-6.64453 5.59811-24.10478 7.77259-40.97674 7.90626-41.55273.15214-.6556 2.49908-19.5422 1.42382-30.89258.17168-.81224.35502-.95273.56446.0879 1.61555 8.02688 4.34886 15.99353 12.74218 38.13672 1.51883 6.03156 8.21851 27.4069 8.17578 27.53515-3.95371 11.86831-5.33272 30.23573-5.24023 32.83789-3.1713 25.48782 4.30859 66.625 4.30859 66.625 2.8969 23.33522 6.78546 43.95776 7.0625 68.10157-.2529.637-.23638 6.17713.83985 12.5332-1.78457 20.3-2.55258 36.2125-1.71289 50.3125-2.72934 6.8 1.36571 28.60156 8.5039 47.60156 3.35906 1.9 8.08218 2.59961 10.60157-.40039 6.71833-22.9 11.96763-40.2 9.6582-47-.62983-10-4.72441-38.60078-9.6582-52.30078-.21876-.0869-.50486-12.28451-.77539-12.25781-.005 53e-5-.0122.001-.0176.002-.0923-.67126-.61381-1.44766-.60352-2.10352.34337-21.86466 3.93588-47.6313 7.14063-73.48632 2.15207-12.04194 4.34876-41.61837 3.11133-66.15821-.0857-1.69941-1.35523-21.26312-1.80665-24.53906-.0942-.6839 22.98779-54.04525 22.9043-145.49414-27.38718 9.65966-70.32503 6.68948-90.47265-2.45508.0442.43799.0801.91039.12304 1.35352-.044-.37211-.10632-.97809-.14648-1.29883-2.37478.58961-41.57213 6.18447-69.84571-6.19336z" id="path2342" class="shoe"/><path d="m207.42773 527.46875c4.08392 36.40107 17.10128 82.87626 24.91993 105.2168 7.22917 20.65618 12.95147 32.5876 12.98046 32.87304.50628 4.97789 3.87891 43.62745 3.87891 45.39063 2.17994 37.39089 3.46603 105.44272 4.80469 130.67773.20418 3.84899-2.1075 9.26526-2.59961 10.81641-.92953 3.18202-4.0981 9.52305-4.11719 12.12891-8.83988 16.17337-1.08755 43.84863.10352 52.92773.7113 1.37861-3.17265 13.5648-9.82813 14.98828-5.31928 1.13757-1.9999 10.67974.96875 16.48047 2.30944 1.1 23.34615.73203 25.97071.33203 5.87841-5.8 5.24951-40.70156 8.81835-57.10156 2.4144 12.6.62979 45.3 1.25977 56.5h.83984c.83978-10.1 1.15448-56.5 4.09375-72-1.25995-7.5-8.93387-15.49844-11.87304-15.89844-.31772.0204-.94694-10.83439-1.44141-10.86719-.0192-.001-.0375-71e-5-.0566-.002 64e-5-.0991-.007-.1974-.002-.29687 1.44502-25.26999 9.74229-50.89143 15.49804-76.16016 4.0392-16.41526 8.90123-41.34154 4.69336-69.21875-.0566-.37484-.936-4.98983-1.92187-9.13672-.78951-3.32098-1.72664-6.34281-1.77735-6.64453 5.59811-24.10478 7.77259-40.97674 7.90626-41.55273.15214-.6556 2.49908-19.5422 1.42382-30.89258.17168-.81224.35502-.95273.56446.0879 1.61555 8.02688 4.34886 15.99353 12.74218 38.13672 1.51883 6.03156 8.21851 27.4069 8.17578 27.53515-3.95371 11.86831-5.33272 30.23573-5.24023 32.83789-3.1713 25.48782 4.30859 66.625 4.30859 66.625 2.8969 23.33522 6.78546 43.95776 7.0625 68.10157-.2529.637-.23638 6.17713.83985 12.5332-1.78457 20.3-2.55258 36.2125-1.71289 50.3125-2.72934 6.8 1.36571 28.60156 8.5039 47.60156 3.35906 1.9 8.08218 2.59961 10.60157-.40039 6.71833-22.9 11.96763-40.2 9.6582-47-.62983-10-4.72441-38.60078-9.6582-52.30078-.21876-.0869-.50486-12.28451-.77539-12.25781-.005 53e-5-.0122.001-.0176.002-.0923-.67126-.61381-1.44766-.60352-2.10352.34337-21.86466 3.93588-47.6313 7.14063-73.48632 2.15207-12.04194 4.34876-41.61837 3.11133-66.15821-.0857-1.69941-1.35523-21.26312-1.80665-24.53906-.0942-.6839 22.98779-54.04525 22.9043-145.49414-27.38718 9.65966-70.32503 6.68948-90.47265-2.45508.0442.43799.0801.91039.12304 1.35352-.044-.37211-.10632-.97809-.14648-1.29883-2.37478.58961-41.57213 6.18447-69.84571-6.19336z" id="path2342-5" class="shoe"/><path d="m207.42773 527.46875c4.08392 36.40107 17.10128 82.87626 24.91993 105.2168 7.22917 20.65618 12.95147 32.5876 12.98046 32.87304.50628 4.97789 3.87891 43.62745 3.87891 45.39063 2.17994 37.39089 3.46603 105.44272 4.80469 130.67773.20418 3.84899-2.1075 9.26526-2.59961 10.81641-.92953 3.18202-4.0981 9.52305-4.11719 12.12891-8.83988 16.17337-1.08755 43.84863.10352 52.92773.7113 1.37861-3.17265 13.5648-9.82813 14.98828-5.31928 1.13757-1.9999 10.67974.96875 16.48047 2.30944 1.1 23.34615.73203 25.97071.33203 5.87841-5.8 5.24951-40.70156 8.81835-57.10156 2.4144 12.6.62979 45.3 1.25977 56.5h.83984c.83978-10.1 1.15448-56.5 4.09375-72-1.25995-7.5-8.93387-15.49844-11.87304-15.89844-.31772.0204-.94694-10.83439-1.44141-10.86719-.0192-.001-.0375-71e-5-.0566-.002 64e-5-.0991-.007-.1974-.002-.29687 1.44502-25.26999 9.74229-50.89143 15.49804-76.16016 4.0392-16.41526 8.90123-41.34154 4.69336-69.21875-.0566-.37484-.936-4.98983-1.92187-9.13672-.78951-3.32098-1.72664-6.34281-1.77735-6.64453 5.59811-24.10478 7.77259-40.97674 7.90626-41.55273.15214-.6556 2.49908-19.5422 1.42382-30.89258.17168-.81224.35502-.95273.56446.0879 1.61555 8.02688 4.34886 15.99353 12.74218 38.13672 1.51883 6.03156 8.21851 27.4069 8.17578 27.53515-3.95371 11.86831-5.33272 30.23573-5.24023 32.83789-3.1713 25.48782 4.30859 66.625 4.30859 66.625 2.8969 23.33522 6.78546 43.95776 7.0625 68.10157-.2529.637-.23638 6.17713.83985 12.5332-1.78457 20.3-2.55258 36.2125-1.71289 50.3125-2.72934 6.8 1.36571 28.60156 8.5039 47.60156 3.35906 1.9 8.08218 2.59961 10.60157-.40039 6.71833-22.9 11.96763-40.2 9.6582-47-.62983-10-4.72441-38.60078-9.6582-52.30078-.21876-.0869-.50486-12.28451-.77539-12.25781-.005 53e-5-.0122.001-.0176.002-.0923-.67126-.61381-1.44766-.60352-2.10352.34337-21.86466 3.93588-47.6313 7.14063-73.48632 2.15207-12.04194 4.34876-41.61837 3.11133-66.15821-.0857-1.69941-1.35523-21.26312-1.80665-24.53906-.0942-.6839 22.98779-54.04525 22.9043-145.49414-27.38718 9.65966-70.32503 6.68948-90.47265-2.45508.0442.43799.0801.91039.12304 1.35352-.044-.37211-.10632-.97809-.14648-1.29883-2.37478.58961-41.57213 6.18447-69.84571-6.19336z" id="path2342-5-0" class="shoe"/><path d="m207.42773 527.46875c4.08392 36.40107 17.10128 82.87626 24.91993 105.2168 7.22917 20.65618 12.95147 32.5876 12.98046 32.87304.50628 4.97789 3.87891 43.62745 3.87891 45.39063 2.17994 37.39089 3.46603 105.44272 4.80469 130.67773.20418 3.84899-2.1075 9.26526-2.59961 10.81641-.92953 3.18202-4.0981 9.52305-4.11719 12.12891-8.83988 16.17337-1.08755 43.84863.10352 52.92773.7113 1.37861-3.17265 13.5648-9.82813 14.98828-5.31928 1.13757-1.9999 10.67974.96875 16.48047 2.30944 1.1 23.34615.73203 25.97071.33203 5.87841-5.8 5.24951-40.70156 8.81835-57.10156 2.4144 12.6.62979 45.3 1.25977 56.5h.83984c.83978-10.1 1.15448-56.5 4.09375-72-1.25995-7.5-8.93387-15.49844-11.87304-15.89844-.31772.0204-.94694-10.83439-1.44141-10.86719-.0192-.001-.0375-71e-5-.0566-.002 64e-5-.0991-.007-.1974-.002-.29687 1.44502-25.26999 9.74229-50.89143 15.49804-76.16016 4.0392-16.41526 8.90123-41.34154 4.69336-69.21875-.0566-.37484-.936-4.98983-1.92187-9.13672-.78951-3.32098-1.72664-6.34281-1.77735-6.64453 5.59811-24.10478 7.77259-40.97674 7.90626-41.55273.15214-.6556 2.49908-19.5422 1.42382-30.89258.17168-.81224.35502-.95273.56446.0879 1.61555 8.02688 4.34886 15.99353 12.74218 38.13672 1.51883 6.03156 8.21851 27.4069 8.17578 27.53515-3.95371 11.86831-5.33272 30.23573-5.24023 32.83789-3.1713 25.48782 4.30859 66.625 4.30859 66.625 2.8969 23.33522 6.78546 43.95776 7.0625 68.10157-.2529.637-.23638 6.17713.83985 12.5332-1.78457 20.3-2.55258 36.2125-1.71289 50.3125-2.72934 6.8 1.36571 28.60156 8.5039 47.60156 3.35906 1.9 8.08218 2.59961 10.60157-.40039 6.71833-22.9 11.96763-40.2 9.6582-47-.62983-10-4.72441-38.60078-9.6582-52.30078-.21876-.0869-.50486-12.28451-.77539-12.25781-.005 53e-5-.0122.001-.0176.002-.0923-.67126-.61381-1.44766-.60352-2.10352.34337-21.86466 3.93588-47.6313 7.14063-73.48632 2.15207-12.04194 4.34876-41.61837 3.11133-66.15821-.0857-1.69941-1.35523-21.26312-1.80665-24.53906-.0942-.6839 22.98779-54.04525 22.9043-145.49414-27.38718 9.65966-70.32503 6.68948-90.47265-2.45508.0442.43799.0801.91039.12304 1.35352-.044-.37211-.10632-.97809-.14648-1.29883-2.37478.58961-41.57213 6.18447-69.84571-6.19336z" id="path2342-5-0-0" class="shoe"/><path d="m207.42773 527.46875c4.08392 36.40107 17.10128 82.87626 24.91993 105.2168 7.22917 20.65618 12.95147 32.5876 12.98046 32.87304.50628 4.97789 3.87891 43.62745 3.87891 45.39063 2.17994 37.39089 3.46603 105.44272 4.80469 130.67773.20418 3.84899-2.1075 9.26526-2.59961 10.81641-.92953 3.18202-4.0981 9.52305-4.11719 12.12891-8.83988 16.17337-1.08755 43.84863.10352 52.92773.7113 1.37861-3.17265 13.5648-9.82813 14.98828-5.31928 1.13757-1.9999 10.67974.96875 16.48047 2.30944 1.1 23.34615.73203 25.97071.33203 5.87841-5.8 5.24951-40.70156 8.81835-57.10156 2.4144 12.6.62979 45.3 1.25977 56.5h.83984c.83978-10.1 1.15448-56.5 4.09375-72-1.25995-7.5-8.93387-15.49844-11.87304-15.89844-.31772.0204-.94694-10.83439-1.44141-10.86719-.0192-.001-.0375-71e-5-.0566-.002 64e-5-.0991-.007-.1974-.002-.29687 1.44502-25.26999 9.74229-50.89143 15.49804-76.16016 4.0392-16.41526 8.90123-41.34154 4.69336-69.21875-.0566-.37484-.936-4.98983-1.92187-9.13672-.78951-3.32098-1.72664-6.34281-1.77735-6.64453 5.59811-24.10478 7.77259-40.97674 7.90626-41.55273.15214-.6556 2.49908-19.5422 1.42382-30.89258.17168-.81224.35502-.95273.56446.0879 1.61555 8.02688 4.34886 15.99353 12.74218 38.13672 1.51883 6.03156 8.21851 27.4069 8.17578 27.53515-3.95371 11.86831-5.33272 30.23573-5.24023 32.83789-3.1713 25.48782 4.30859 66.625 4.30859 66.625 2.8969 23.33522 6.78546 43.95776 7.0625 68.10157-.2529.637-.23638 6.17713.83985 12.5332-1.78457 20.3-2.55258 36.2125-1.71289 50.3125-2.72934 6.8 1.36571 28.60156 8.5039 47.60156 3.35906 1.9 8.08218 2.59961 10.60157-.40039 6.71833-22.9 11.96763-40.2 9.6582-47-.62983-10-4.72441-38.60078-9.6582-52.30078-.21876-.0869-.50486-12.28451-.77539-12.25781-.005 53e-5-.0122.001-.0176.002-.0923-.67126-.61381-1.44766-.60352-2.10352.34337-21.86466 3.93588-47.6313 7.14063-73.48632 2.15207-12.04194 4.34876-41.61837 3.11133-66.15821-.0857-1.69941-1.35523-21.26312-1.80665-24.53906-.0942-.6839 22.98779-54.04525 22.9043-145.49414-27.38718 9.65966-70.32503 6.68948-90.47265-2.45508.0442.43799.0801.91039.12304 1.35352-.044-.37211-.10632-.97809-.14648-1.29883-2.37478.58961-41.57213 6.18447-69.84571-6.19336z" id="path2342-5-0-0-9" class="shoe"/><path d="m207.42773 527.46875c4.08392 36.40107 17.10128 82.87626 24.91993 105.2168 7.22917 20.65618 12.95147 32.5876 12.98046 32.87304.50628 4.97789 3.87891 43.62745 3.87891 45.39063 2.17994 37.39089 3.46603 105.44272 4.80469 130.67773.20418 3.84899-2.1075 9.26526-2.59961 10.81641-.92953 3.18202-4.0981 9.52305-4.11719 12.12891-8.83988 16.17337-1.08755 43.84863.10352 52.92773.7113 1.37861-3.17265 13.5648-9.82813 14.98828-5.31928 1.13757-1.9999 10.67974.96875 16.48047 2.30944 1.1 23.34615.73203 25.97071.33203 5.87841-5.8 5.24951-40.70156 8.81835-57.10156 2.4144 12.6.62979 45.3 1.25977 56.5h.83984c.83978-10.1 1.15448-56.5 4.09375-72-1.25995-7.5-8.93387-15.49844-11.87304-15.89844-.31772.0204-.94694-10.83439-1.44141-10.86719-.0192-.001-.0375-71e-5-.0566-.002 64e-5-.0991-.007-.1974-.002-.29687 1.44502-25.26999 9.74229-50.89143 15.49804-76.16016 4.0392-16.41526 8.90123-41.34154 4.69336-69.21875-.0566-.37484-.936-4.98983-1.92187-9.13672-.78951-3.32098-1.72664-6.34281-1.77735-6.64453 5.59811-24.10478 7.77259-40.97674 7.90626-41.55273.15214-.6556 2.49908-19.5422 1.42382-30.89258.17168-.81224.35502-.95273.56446.0879 1.61555 8.02688 4.34886 15.99353 12.74218 38.13672 1.51883 6.03156 8.21851 27.4069 8.17578 27.53515-3.95371 11.86831-5.33272 30.23573-5.24023 32.83789-3.1713 25.48782 4.30859 66.625 4.30859 66.625 2.8969 23.33522 6.78546 43.95776 7.0625 68.10157-.2529.637-.23638 6.17713.83985 12.5332-1.78457 20.3-2.55258 36.2125-1.71289 50.3125-2.72934 6.8 1.36571 28.60156 8.5039 47.60156 3.35906 1.9 8.08218 2.59961 10.60157-.40039 6.71833-22.9 11.96763-40.2 9.6582-47-.62983-10-4.72441-38.60078-9.6582-52.30078-.21876-.0869-.50486-12.28451-.77539-12.25781-.005 53e-5-.0122.001-.0176.002-.0923-.67126-.61381-1.44766-.60352-2.10352.34337-21.86466 3.93588-47.6313 7.14063-73.48632 2.15207-12.04194 4.34876-41.61837 3.11133-66.15821-.0857-1.69941-1.35523-21.26312-1.80665-24.53906-.0942-.6839 22.98779-54.04525 22.9043-145.49414-27.38718 9.65966-70.32503 6.68948-90.47265-2.45508.0442.43799.0801.91039.12304 1.35352-.044-.37211-.10632-.97809-.14648-1.29883-2.37478.58961-41.57213 6.18447-69.84571-6.19336z" id="path2342-5-0-0-9-3" class="shoe"/><path d="m293.30338 619.91049c-5.43698-22.35817-12.29688-58.64326-16.17212-86.40431-.0127-.0908-.0253-.18166-.038-.2725 1.10765-.0109.56665.0805 1.64168-19e-5.0124.0935.0247.18699.0371.28048 3.65738 27.59919 9.52589 64.00982 14.53127 86.39651z" class="shadow" id="XMLID_467_-4-2"/></svg>