<svg viewBox="0 0 560 1e3"><path d="m274.93237 166.08259-5e-5-5e-5c-.64515-.37341-.22979-.95124.48732-.67794 1.41051-1.13078.85662-4.71566 5.72351-3.41421 8.18916-2.06473 14.07197 3.68 14.21541 4.23346.254.98002-7.9849 5.81994-12.35702 6.11208-5.70445-1.45687-7.86395-6.02924-8.06917-6.25334z" id="path2558-9" class="lip"/><path d="m279.64852 171.98808c.62806-.42932.10547-.7828-.39085-1.32489-.48823-.55313-.94513-.83866-.91035-.87323.0348-.0345.60815.26408 1.27417.66364 1.73099 1.03849 2.77547 1.30281 4.5361 1.14792.78844-.0694 1.97989-.31078 2.64763-.5365.66776-.22571 1.16635-.33359 1.10796-.23972-.1986.31932-1.8428 1.04619-2.95728 1.30733-1.08113.25333-2.46722.10658-3.34047-.0974-.87326-.20399-1.21097-.29812-1.96691-.0471zm14.31406-5.35779c-.0721-.0726-1.0223-.2195-2.11174-.32633-2.22376-.10242-6.01541-.40714-7.36097-.18687-.0857.014-.16151.0302-.22634.0487.7512-.51391 5.21556-.11753 7.57782-.0821 1.22762-.0161 2.25313-.12471 2.71831-.28783.81659-.28632 1.48939-.11215 1.31467.34037-.16615.4303-1.60604.80231-1.91175.49392zm-17.47346-.65834c-.25125.30086-.83128.33334-1.28303.0719l-5e-5-5e-5c-.64515-.37341-.22979-.95124.48732-.67794.19492.0742.50293.18208.68449.23954.0863.0273 1.98403-.12754 2.65631-.16398.62172.0499 1.10632.24358 1.04513.13458-.34377-.61121-.28694-.61445.7339-.0419 1.30506.73197 2.45806.85175 3.55539.36936.69408-.30513.80385-.31987.60515-.0812-.34879.41889-1.57055.93384-2.19202.92391-.2924-.005-.95334-.15125-1.46877-.32575v-5e-5c-.51542-.17449-.95402-.34725-.97465-.38389-.009-.0159-.88249-.31153-1.2757-.3485-.60888-.0728-2.54404.24871-2.57347.28397zm4.25467-3.70044c-.34112-.13056-.92397-.2434-1.29521-.25077-.89452-.0177-.67485-.36563.23091-.36563.37776.0.89621.0791 1.15208.1758.33772.1276.81453.0969 1.73914-.11216 1.70188-.38468 3.40942-.38925 4.19819-.0117l.62023.29726-1.50627-.0973c-1.21934-.0788-1.7257-.0287-2.65815.26317-1.32565.4149-1.62825.42719-2.48092.10083z" style="display:inline;fill:#000;stroke-width:.1766593" id="path2558"/></svg>