<svg viewBox="0 0 560 1e3"><path id="path4742" class="hair" d="m344.6 100.2c.27965 1.52212 1.46967-5.18524 1.47925-3.637642.009 1.415019-1.14359 11.084182-1.30591 12.495602-.29589 2.57285-.83261 5.11995-1.4519 7.56926-.24254.95927 2.37725-3.03396 2.11889-2.10901-.26112.93482-3.40047 6.7874-3.65823 7.67827-.0491.33103-5.74031 10.13985-9.47684 11.70414-.25217-2.99258-1.04654-6.08164-2.18912-9.14735-.14269-.38285-.29081-.76533-.44398-1.14722-.13596-.33899-.27591-.67751-.41957-1.0154-.87762-2.06411-4.86373 15.13699-4.86373 15.13699-.56934.009 3.13294-19.57266-1.19443-26.33949-5.76403-9.01338-12.18189-15.745104-12.14405-15.922731-.0804-.208736-44.07137 13.244411-46.93693 4.18003-.22781-.720602-.13112 25.329991-.35478 24.591211-.61438-2.02941-.84948 13.88312-1.41559 11.79528-.6145-2.26629-1.55215-22.53302-2.01219-24.72638-.64222-3.06199-1.08444-5.98101-1.18848-8.5563-.12058-2.984837.21313-5.507917 1.21628-7.256653.33851-.777025 2.05509-8.226168 2.38522-8.925701.47437-1.005192.18121 3.155905.62301 2.314681.63995-1.218529 2.77681-6.161856 3.30221-7.024339 1.02207-1.677814.0476 1.980771.33141 1.72947 9.85695-13.682245 26.83958-18.675144 42.50094-16.787826 12.81033 2.470654 21.22676 7.353896 26.94035 14.995147 1.01394 1.356039 1.94277 2.798936 2.79593 4.330622.82498 1.481091 1.5792 3.045203 2.27121 4.694079 1.20352 2.867642 2.21888 5.991668 3.09103 9.38126"/><path d="m262.63033 114.30711c.44569-.38936.90103-.76726 1.36494-1.1337.26158-.20663.15089 2.27789.41773 2.07854.25794-.1927.89324-3.06949 1.15572-3.25538.3643-.258.7328-.50943 1.10502-.7543.60914-.40073-.6942 2.33181-.0672 1.96625.73168-.4266 3.39654-3.94493 4.14637-4.32361.56521-.28543 1.13463-.55725 1.70684-.81545.5428-.24492-2.34245 3.18403-1.79584 2.96363.64494-.26005 4.72225-4.16462 5.36882-4.39051 3.76352-1.27497 7.66074-2.01256 11.46416-2.23771 4.64576-.40283 8.98385 1.12547 13.16855 3.44738.93949.52128 8.24625 7.39507 9.17202 7.98348.94004.59748-2.29137-3.58697-1.36184-2.94702 2.07479 1.42842 1.91824 1.42646 3.97008 2.84946.79019.54801 6.20518 5.9595 6.99613 6.47592.75764.49466-1.07591-3.02022-.31548-2.56992 1.90086 1.12563 1.7807 1.20528 3.72134 1.88921 2.07809.73237 4.18812 1.14413 6.34967 1.091 2.11658 2.52119 1.0853 9.82407 2.92603 12.24393 33.63083-69.217716-72.11429-86.220251-69.63276-22.91558-.0438 3.99658-.52594 11.17453.13971 2.35438z" class="hair" id="path4744"/></svg>