<svg viewBox="0 0 560 1e3"><path style="display:inline;fill-opacity:1;fill:#000;stroke-dasharray:none;stroke-linecap:butt;stroke-linejoin:miter;stroke-miterlimit:4;stroke-opacity:1;stroke-width:0;stroke:#000" d="m273.33444 478.61218c27.3515-5.55275 104.00008-1.29585 111.3022 1.66683-5.03039-31.77249-20.55402-56.49135-32.99118-74.18742-21.42023 7.01407-42.21578 8.52949-62.70413 9.12434-24.22046.7032-47.2185-2.20107-60.45696-7.53731-6.53457 6.49136-24.25819 38.84923-25.96535 70.30594 14.45962-2.80233 43.10681-5.9261 70.81542.62762z" id="path5724"/><path id="path5726" d="m209.5091 468.99804c2.76219-2.4133 6.2829-3.61362 7.01445-3.93454 1.28162-11.75969 3.06884-31.65281 5.73201-42.53007-.8429 2.00417-12.58424 41.81194-12.74646 46.46461z" style="display:inline;fill-opacity:1;fill:maroon;stroke-dasharray:none;stroke-linecap:butt;stroke-linejoin:miter;stroke-miterlimit:4;stroke-opacity:1;stroke-width:0;stroke:#000"/><path id="path5728" class="shadow" d="m283.66521 456.38067c-1.54841.73859-1.78928 15.78672-9.24659 11.14886-5.5459 3.1603-10.12915-4.94173-10.42429-8.4126-.25114-2.95343 3.37748-7.20053 3.87403-6.51846 2.14579-.003 16.30971 2.85987 15.79685 3.7822z"/><path id="path5730" d="m204.23049 467.13581c9.85266-3.69513 50.63109-5.94135 63.91973-.29539 1.97544 1.15064 3.44304 1.50895 6.29117.74829 1.48394 1.11892 3.67809 1.01117 5.52348-.15189 69.74911-5.15378 103.89934 4.49456 104.44567 3.93966-.40498-21.96515-15.61413-49.27225-32.91536-65.04422-45.10201 11.9464-96.4497 13.39268-122.91997 1.5103-.12493-.0561-17.82049 24.52509-24.34472 59.29325z" style="display:inline;fill-opacity:1;fill:#4d4d4d;stroke-dasharray:none;stroke-linecap:butt;stroke-linejoin:miter;stroke-miterlimit:4;stroke-opacity:1;stroke-width:0;stroke:#000"/><path id="path5732" class="skin torso" d="m274.36595 467.58332c-3.81452 2.31718-9.64064-2.27902-10.8644-11.68664 5.95334-21.67633 25.49385-8.31185 20.23612.35499-2.87984 4.74713-3.52005 14.37508-9.37172 11.33165z"/><path id="path5734" d="m202.21091 478.21633c20.47367-7.92632 65.80016-3.53943 71.17745.50042.0798-4.49415 2.91311-10.70077 3.15004-11.83066-42.61622-7.91998-68.47543-2.34607-72.39547-.75979-.0162.94868-1.7698 7.43736-1.93202 12.09003z" style="display:inline;fill-opacity:1;fill:#999;stroke-dasharray:none;stroke-linecap:butt;stroke-linejoin:miter;stroke-miterlimit:4;stroke-opacity:1;stroke-width:0;stroke:#000"/><path id="path5736" d="m273.36124 478.60926c20.47367-7.92632 106.07436-2.31477 111.45165 1.72508-.009-4.8477-.0921-7.87234-.20872-9.44417-45.09109-9.06903-104.90484-4.20895-108.82488-2.62267-.0162.94868-2.38841 5.73329-2.41805 10.34176z" style="display:inline;fill-opacity:1;fill:#999;stroke-dasharray:none;stroke-linecap:butt;stroke-linejoin:miter;stroke-miterlimit:4;stroke-opacity:1;stroke-width:0;stroke:#000"/><path id="path5738" d="m226.43714 411.39001c35.65478 14.81043 110.86666 5.36222 127.27316-2.51932-1.33441-1.88669-1.31567-1.71418-1.76624-2.59407-58.31295 15.78964-107.46151 9.30714-123.43171 1.46595-.32556.70561-.85233.93932-2.07521 3.64744z" style="display:inline;fill-opacity:1;fill:#999;stroke-dasharray:none;stroke-linecap:butt;stroke-linejoin:miter;stroke-miterlimit:4;stroke-opacity:1;stroke-width:0;stroke:#000"/><path id="path5740" d="m275.25299 462.86252c-12.30071-3.84341-9.97725-39.56452-8.12905-43.86741.10337-.24065 6.70466-.007 6.80117-.0386-.14286-.008-.28501-.0153-.42641-.0219-4.0967-.18979-7.561.22503-9.12434-.44654-1.55247 9.38892-6.14341 45.13839 10.87863 44.37445z" style="display:inline;fill-opacity:1;fill:#8aa7ff;stroke-dasharray:none;stroke-linecap:butt;stroke-linejoin:miter;stroke-miterlimit:4;stroke-opacity:1;stroke-width:0;stroke:#000"/><path id="path5742" d="m356.28203 444.8129c-31.56327-6.76001-36.1698-23.53296-36.97785-28.4296-1.02422-.29348-2.03709.77235-2.39603.55362-.0837 1.32642 8.867 25.77488 39.37388 27.87598z" style="display:inline;fill-opacity:1;fill:#999;stroke-dasharray:none;stroke-linecap:butt;stroke-linejoin:miter;stroke-miterlimit:4;stroke-opacity:1;stroke-width:0;stroke:#000"/><path id="path5744" d="m222.23265 435.35375c9.31024-1.01499 16.8449-15.62419 16.03685-20.52083-1.02422-.29348-.41393-.14186-.77287-.36059-.0837 1.32642-2.08336 14.40532-15.26398 20.88142z" style="display:inline;fill-opacity:1;fill:#999;stroke-dasharray:none;stroke-linecap:butt;stroke-linejoin:miter;stroke-miterlimit:4;stroke-opacity:1;stroke-width:0;stroke:#000"/><path d="m329.90785 425.6821c-15.4791 1.19068-42.03653 26.26041-44.60913 30.99635 10.29989-9.14088 29.75951-26.28541 44.60913-30.99635z" class="shadow" id="path5746"/><path d="m262.16576 457.53039c-6.81704-9.41592-28.83006-31.99347-34.93819-34.15183 5.05404 5.44075 26.5203 25.35081 34.93819 34.15183z" class="shadow" id="path5748"/><path id="path5750" class="shadow" d="m262.98857 459.03749c4.57815 9.39542 7.95428 8.94718 11.45233 8.01034.29456-.0789 5.02218 4.77996 9.26343-8.71666-1.38475 8.70911-4.94655 11.61521-9.3291 9.47151-.0226-.0111-2.82256 1.04466-4.71233.003-2.95847-1.63089-6.486-5.556-6.67433-8.7681z"/><path id="path5752" class="shadow" d="m273.78363 467.66511c-.33521 1.70859-.60399 9.15085-.3961 10.94825-1.47124-.0994-1.10471-9.61487.3961-10.94825z"/></svg>