<svg viewBox="0 0 560 1e3"><path id="path4732" class="hair" d="m344.6 100.2c.23288 1.47838.37308 2.91146.43246 4.29857.063 1.47136.035 2.89099-.0697 4.25811-.0951 1.24187-.25362 2.44041-.46487 3.59502-.0693.37903-.14438.75332-.22472 1.12286-.31174 1.4339-.70343 2.79621-1.15314 4.08573-.24778.7105-.7755 2.63555-1.33793 4.63619-.65914 2.34462-1.36595 4.79305-1.72575 5.51207-.55601 1.11113.0938-3.68531-.50378-2.72329-.63913 1.02897-3.27701 13.89873-3.9121 14.75423-.68614.92426.63306-10.18038.0163-9.46221-.49129.5721-4.7391 17.60594-5.14802 18.04511-1.17712 1.26422 1.74507-14.55398 1.79651-14.42177-1.46837-17.42579-21.32151-38.122426-21.25488-38.435201-.0804-.208736-42.56877 11.741811-45.43433 2.677428-.22781-.720602-2.13372 26.832593-2.35738 26.093813-3.29135-10.87188-5.9598-23.41008-2.89994-28.744053.58444-1.322311.82304-11.848731 1.46457-13.079437.54692-1.049195 1.48913 7.184835 2.07588 6.20198 1.48231-2.483007 3.08929-4.754665 4.80859-6.816737 1.08402-1.300143 4.86434-10.471922 6.03456-11.605872 1.03337-1.001343-.55251 6.016896.54354 5.144497 3.17519-2.527292 6.60442-4.514772 10.23585-5.969835 1.30162-.521542 6.75422-5.474682 8.10542-5.859761 1.31558-.374931-1.47148 3.814659-.11337 3.568455 2.75982-.500313 5.60289-.735488 8.51073-.708163 2.66796.02507 5.15526.171541 7.47702.431158C332.68321 69.391043 339.3626 83.262864 344.6 100.2"/><path d="m262.63033 114.30711c.33677-.20797.0487 51.71527 5.91031 61.18366.49569.8007.18476 1.43686.21782 1.40761.044-.0389.3905-.85171-.0245-2.08965-4.86654-14.51683-4.13788-62.17393-3.73933-62.57241 2.22688-2.22649 1.49231-3.627 6.81007-5.01625.62703-.16381 5.41628 13.8835 6.12146 13.77113.10895-.0174.35996-.30357.29449-.79776-1.10123-8.31224.79838-15.30974 1.62411-15.35172.3433-.0174 6.24163 2.75103 6.59145 2.74513.58284-.01 7.24794-2.28362 7.84871-2.25923.60826.11533 1.40489 3.11183.0147 14.55323-.0526.43297.0902.69301.17637.71466.65882.16561 6.99807-12.71343 7.64282-12.51308 7.18945 2.23413 9.69639 4.81965 15.24999 9.94873 1.63362 1.50875-2.11462 29.15762-10.50886 61.70738-.0322.12488.075.21548.12585.27025 1.37468 1.48077 16.87578-48.11374 18.1457-46.60103 2.11658 2.52119 5.15116-.95931 6.99189 1.46055 34.04139-70.062712-74.71689-86.627596-69.49304-20.56119z" class="hair" id="path4734"/></svg>