<svg viewBox="0 0 560 1e3"><path d="M253.7 861.4H267c3.7 3.2 5.2 18.7 2.6 33.1-.4 1.8-.4 24.1-.4 36.9l-3.1.1c-.6-11.2 1.2-24.3-.9-36.9-8.2 7.5-6.7 40.4-12.8 39.5-6 .1-8.6.2-12-.4-10.4-1.9-13.6-14-15-22.7 3.1-5.4 4.4-4.6 10.2-10 7.1-12.3 9.6-22.4 18.1-39.6z" class="shoe" id="path2888"/><path d="M253.7 861.4H267c3.7 3.2 5.2 18.7 2.6 33.1-.4 1.8-.4 24.1-.4 36.9l-3.1.1c-.6-11.2 1.2-24.3-.9-36.9-8.2 7.5-6.7 40.4-12.8 39.5-6 .1-8.6.2-12-.4-10.4-1.9-13.6-14-15-22.7 3.1-5.4 4.4-4.6 10.2-10 7.1-12.3 9.6-22.4 18.1-39.6z" class="shoe" id="path2890"/><path d="M253.7 861.4H267c3.7 3.2 5.2 18.7 2.6 33.1-.4 1.8-.4 24.1-.4 36.9l-3.1.1c-.6-11.2 1.2-24.3-.9-36.9-8.2 7.5-6.7 40.4-12.8 39.5-6 .1-8.6.2-12-.4-10.4-1.9-13.6-14-15-22.7 3.1-5.4 4.4-4.6 10.2-10 7.1-12.3 9.6-22.4 18.1-39.6z" class="shoe" id="path2892"/><path d="m320.90015 860.8 15.6.1c4.7 13.7 8.6 42.3 9.2 52.3 4.6 4.1 4.9 8.5-2.1 32-2.4 3-11.1 6-20.4.0-7.1-18.7-7.6-24.5-4.1-31.5-.2-7.4-.1-10-1.5-19.5-3.4-15.5 1.9-24.7 3.3-33.4z" class="shoe" id="path2894"/><path d="M253.7 861.4H267c3.7 3.2 5.2 18.7 2.6 33.1-.4 1.8-.4 24.1-.4 36.9l-3.1.1c-.6-11.2 1.2-24.3-.9-36.9-8.2 7.5-6.7 40.4-12.8 39.5-6 .1-8.6.2-12-.4-10.4-1.9-13.6-14-15-22.7 3.1-5.4 4.4-4.6 10.2-10 7.1-12.3 9.6-22.4 18.1-39.6z" class="shoe" id="path2896"/><path d="m320.90015 860.8 15.6.1c4.7 13.7 8.6 42.3 9.2 52.3 4.6 4.1 4.9 8.5-2.1 32-2.4 3-11.1 6-20.4.0-7.1-18.7-7.6-24.5-4.1-31.5-.2-7.4-.1-10-1.5-19.5-3.4-15.5 1.9-24.7 3.3-33.4z" class="shoe" id="path2898"/><path d="m320.90015 860.8 15.6.1c4.7 13.7 8.6 42.3 9.2 52.3 4.6 4.1 4.9 8.5-2.1 32-2.4 3-11.1 6-20.4.0-7.1-18.7-7.6-24.5-4.1-31.5-.2-7.4-.1-10-1.5-19.5-3.4-15.5 1.9-24.7 3.3-33.4z" class="shoe" id="path2900"/><path d="m253.7 861.4c.82427-.41546.13707-9.51852.94088-12.54625 1.34193-5.05472 9.32523-3.86509 11.12584.28349 2.05878 4.74339.5463 12.21249 1.23328 12.26276-4.6 22.1-4.7 36.3-19.2 40.2-4.5 1.2-11.3 2.3-12.2-.6 3.6-9.7 14-34.8 18.1-39.6z" class="skin" id="path2902"/><path d="m320.90015 860.8 15.6.1c4.7 13.7 8.6 42.3 9.2 52.3 4.6 4.1 4.9 8.5-2.1 32-2.4 3-11.1 6-20.4.0-7.1-18.7-7.6-24.5-4.1-31.5-.2-7.4-.1-10-1.5-19.5-3.4-15.5 1.9-24.7 3.3-33.4z" class="shoe" id="path2904"/><path d="m320.90015 860.8c.80268-.61221-1.68352-5.16443-.8272-11.02212.64874-4.43774 11.77516-3.2879 16.01208.36616.89693.77354-.30939 10.4088.41512 10.75596 4.4 9 8.3 30.6 9.2 52.3-8.7-2.2-19.1-.4-22.8-.2-2.8-3.6-2.7-25.8-2-52.2z" class="skin" id="path2906"/><path d="m280.108 574.87467c.91109 6.36479 2.21839 16.18236 3.16672 20.64246.97558 5.57378 2.30861 14.54923 4.10603 23.50527 3.0765 15.32934 6.03888 30.85762 6.05318 31.02477-.36985 11.92867-3.17588 21.20287-6.7707 38.95817.17932 1.01931 2.48174 7.979 3.92697 15.99993 6.17549 40.91244-9.30886 75.22003-10.9334 85.84473-2.7903 8.19621-9.77721 28.33141-12.17223 45.46907-.0262.18719-1.01727 12.22474-.96148 12.40435 1.45337 4.679.89375 8.58178.71983 12.35132-.64454 7.08725-1.71774 11.50153-2.40401 15.21843-2.52081 13.65299-5.88653 18.87346-8.88109 22.45585-13.61762 8.14299-20.47779 4.37041-21.12593 3.49957 6.16111-19.63089 14.09415-34.46966 18.78066-41.78435.0438-.47579.0899-25.42981.0688-25.93124-1.22609-29.18215-8.9744-89.78311-11.97414-122.333.0-1.76318-4.62151-41.16326-5.1278-46.14115-.029-.28544-6.135-15.88478-11.98231-34.49862-6.90034-21.96597-22.3205-83.37731-22.13651-105.91142 28.9012 15.0682 70.55006 7.07935 71.59919 7.07336.0.0 4.62557 32.21427 6.04818 42.1525z" class="shoe" id="path2908"/><path d="m336.75063 850.31365c-.14311-22.79826 3.37857-50.37906 6.80969-78.0601 2.15208-12.04194 4.34878-41.61821 3.11133-66.15805-.0857-1.69941-1.35479-21.26208-1.80621-24.53802-.0942-.68329 32.39685-85.48739 38.01838-149.10815-29.63857 15.24979-92.99797 10.80518-108.85738.26111 2.18644 18.83382 5.41746 48.57033 9.28758 67.12772 2.08148 15.65358 6.12201 32.93301 10.0851 50.09606 2.57067 11.13286 4.91676 22.37035 7.32631 32.5619-3.95373 11.86831-4.09536 30.94365-4.00286 33.54581-1.40356 23.18973 11.0261 67.33212 11.0261 67.33212 3.82404 15.37512 11.68225 42.44356 11.85273 67.0562-.70306 1.163-.27946 5.61072.96666 9.86546-.38903 7.53905-1.97386 43.84964 1.10204 53.52001.20965.65912 24.33481.96728 24.39607.32149 1.47635-15.56446-5.96612-49.00566-9.21479-54.04134.10551-2.85741.29285-8.48954-.10075-9.78222z" class="shoe" id="path2910"/></svg>