<svg viewBox="0 0 560 1e3"><path style="display:inline;fill-opacity:1;fill-rule:evenodd;fill:#000;stroke-dasharray:none;stroke-linecap:butt;stroke-linejoin:miter;stroke-miterlimit:4;stroke-opacity:0;stroke-width:3;stroke:#000" d="m350.02985 408.21382c.4129.3082.48952.2044.99977.54713 12.79275 8.59259 37.34908 36.23366 27.97798 73.84972-1.65859-.42695-7.68537-3.25592-7.68537-3.25592-4.35635-19.09962-20.89871-53.11062-18.93994-66.2674.0246-.16537-2.51221-4.71611-2.35244-4.87353z" id="path2474-7"/><path style="display:inline;fill-opacity:1;fill-rule:evenodd;fill:#8aa7ff;stroke-dasharray:none;stroke-linecap:butt;stroke-linejoin:miter;stroke-miterlimit:4;stroke-opacity:0;stroke-width:3;stroke:#000" d="m349.26166 407.20981c4.28127 2.5952 36.85324 35.70231 29.75727 75.71526-1.65859-.42696-8.53919-3.2575-8.53919-3.2575-4.43195-12.12656-24.54075-76.3939-21.21808-72.45776z" id="path2472"/><path transform="rotate(15.737227,358.78205,354.98403)" style="display:inline;fill-opacity:1;fill-rule:evenodd;fill:#517cd3;stroke-dasharray:none;stroke-linecap:butt;stroke-linejoin:miter;stroke-miterlimit:4;stroke-opacity:0;stroke-width:3;stroke:#000" d="m366.69578 409.41776c.48102.18466.98404.44768 1.55229.682 13.42201 5.53466 39.39872 23.36391 43.52593 55.04823-1.71222.0389-9.63774-.79679-9.63774-.79679-12.0116-14.12108-34.74357-40.71337-36.42668-53.90825-.0212-.16584.87511-.83034.9862-1.02519z" id="path2474"/></svg>