<svg viewBox="0 0 560 1e3"><path id="path4786" class="hair" d="m337.22843 145.31198c-1.10643 10.87975-1.22386 9.31962-.24417 16.4149.26665 1.93114-.92374 6.45029-1.14263 8.17037-.58649 4.6087.0623 3.80375.37226 7.80291.12295 1.58638-1.0682 3.70901-1.03862 4.69676.0404 1.35002.24302 2.76384.24363 4.27829 6e-4 1.47573-.0959 3.04066-.34959 4.71027-.93136 6.12943 5.44235 18.61277 3.53526 16.03514-.51555-.69683-12.60031-8.68523-8.72405-23.13233.18595-.69305-1.24809-2.38928-.39971-4.23644 1.85682-4.04284.19518-7.36593.42589-11.15963.27058-4.44912 2.21486-9.18052 1.62683-11.03314-4.72737 14.15689-5.18887 28.84771-3.44374 35.12877 1.34159 4.82864-.79718 9.49098.13106 11.12124.43163 5.34595-2.52032 11.16608-3.73306 13.27045-.68373 1.18643.15762-5.5128-.63771-10.6545-.83745-5.41403-.73429-19.71062-2.6289-22.98656-.58102 4.89092.96422 14.435-.21513 21.8621-.33224 2.08623 3.16536 12.3564 3.03704 20.36428-.0475 2.96402-.98702 5.76457-.94606 7.98037.0515 2.78386 1.87155 8.25944 1.52999 8.11636-3.03097-1.26974-6.42786-5.02227-6.92985-8.12483-.34025-2.10288 1.107-7.01238.8483-9.38177-.24377-2.23266-2.67507-33.58295-3.61586-34.37113-1.09377-.91633-.67021 28.97806-.22266 29.92478 1.15425 2.44161 3.04342 13.43104 2.34248 17.42216-1.3997 7.97005 3.42307 14.43471 2.94206 15.14325-.60685.89389-5.47189-1.76332-8.46209-9.74943-3.62562-9.68318-15.61039-1.97987-16.39137 2.27112-1.43397 7.80528-5.73647 9.90017-5.60394 9.5141 1.99688-6.14903 2.73574-11.46466 1.35151-16.56848-.68132-2.49467 2.24381-42.61124-.8627-44.87797-.12661-.0924-1.5342 1.91294-1.65439 4.8297-.0602 1.46071 1.27392 3.02471 1.25683 4.95313-.11088 12.51809-.79841 33.1196-.81456 36.16706-.0248 4.68033-2.27 10.0605-2.8899 9.60184-.16067-.11886-.14226-9.47428-.86037-11.40418-.91528-2.45979.62692-21.34941.74946-33.87875.0179-1.8265-1.2921-3.6476-1.28202-5.12672.0274-4.02295.83236-10.55211.52674-10.01134-.65438 1.15786-2.36232 7.456-2.77114 10.3861-.24549 1.75944.9289 3.85765.77305 6.03661-1.16565 16.29768-1.47564 41.96929-2.40389 43.19632-1.63834 2.1657-1.48604 12.18535-2.1462 12.02065-.21206-.0529-4.76926-13.77411-2.74013-18.1895 1.49354-3.24993.0221-11.24741.68554-14.75059.77984-4.11753 1.99743-13.36046 1.41955-22.02269-.24188-3.62575-2.34483-7.09822-2.44762-10.13311-.14998-4.42832 1.11638-11.06516.75109-11.86055-.64952-1.41427-3.41449 5.67548-4.59426 12.10195-.42696 2.32573 1.16122 4.94661.80061 7.70463-.73698 5.63665-2.31762 11.89016-.95335 17.26667 1.13999 4.49263-5.20847 17.2331-6.03365 17.40183-.45005.0921 2.28876-12.71348-.29268-21.21377-1.58149-5.20761 2.18524-8.43297 1.43341-13.83019-.92848-6.66536-1.24202-34.82211-1.67642-34.84686-1.78591-.10177-1.2727 2.81785-1.4159 5.51528-.115 2.16583-1.83735 7.36265-1.70758 11.04004.11824 3.35057 1.46668 9.52613 1.48679 11.53052.0523 5.21675-.39215 14.61397-5.29392 18.10017 2.0688-7.77919.76673-13.24126.13452-17.45371-.97768-6.51444-2.73326-8.86486-2.78723-12.1077.35111-4.43604 4.28798-12.99869 4.00845-19.42892.57641-4.03526-3.04451-10.14666-1.85767-16.26494 1.78519-6.63125-4.00494-20.45676-1.55573-29.89353 2.58726-5.90607 3.70102-21.24701 4.5583-22.117693 3.84974-5.539881 10.16996.460282 12.52678.293266 1.53884-.629811 2.41859.03469 5.48428 1.705224 17.04829 6.860233 53.99482-.674568 60.72062 24.032793 1.89819 6.97305 2.11589 10.25858 1.85429 12.84711-.35055 3.46856-3.65041 8.46385-3.78623 9.85244z"/><path d="m296.64452 60.076418c-.58129.185331-3.3761-2.009253-2.08225-6.377406.71074-2.39948 9.23951-5.623605 10.40871-8.872863 1.14029-3.168895-2.16644-7.070522-1.08672-10.670508 1.46961-4.899857 9.6399-9.814543 11.29342-14.694766 4.83872-14.2811257 3.01361-26.8136827 1.93619-26.3463437-1.07226.465092-1.64868 11.980136-8.54571 25.6586307-2.34333 4.647385-11.05989 9.15395-13.15637 14.088839-1.26367 2.974567 3.27118 7.146826 1.91788 9.976736-1.65619 3.463284-9.15154 7.083507-10.54778 10.051558-3.91827 8.329253-4.96834 13.56203-5.60594 13.936476-.3798.223058-3.68378-2.318794-3.66193-5.62786.0202-3.057686 5.48268-7.397564 5.91701-12.131035.28111-3.06365-4.13937-6.94483-4.01538-10.28079.15137-4.072402 7.86783-9.140389 8.26266-13.017486 1.20026-11.786292-4.3769-20.4151367-5.08536-19.8706257-.72907.560375 1.62305 8.5206017-.89178 19.5161417-.87908 3.843545-7.18146 8.462234-7.77523 12.709222-.44348 3.172085 3.95511 7.232342 3.35925 10.331651-.90096 4.686428-6.35997 9.08435-7.01086 13.004937-1.25123 7.536698.19442 13.609949-.24411 14.072445-.29681.313018-4.02905 2.095092-4.68624.181347-.53891-1.569347 3.24211-5.922639 2.65143-8.612919-.42547-1.937935-4.69927-3.142328-5.24509-5.40497-.57354-2.377577 3.97426-7.440103 3.4467-10.031193-.50211-2.466176-4.54527-4.432035-5.21424-6.815445-.82798-2.949948 4.17466-8.735165 3.52012-11.382212-2.17053-8.777809-9.15609-12.243757-9.65459-11.426223-.41633.682767 3.82039 4.642991 4.60338 12.800615.25837 2.691508-3.84485 7.973748-3.33462 10.918796.45766 2.64174 4.16692 3.64011 4.47344 6.488981.32599 3.029426-3.54162 7.96619-3.12665 10.917672.3469 2.467075 4.74856 3.438524 4.98666 5.782526.27007 2.65875-3.73386 8.345968-3.4819 10.571179.70086 6.18992 2.86697 9.04099 2.66174 9.63394-.1589.45907-3.48145 2.02102-4.82814-.27859-.59734-1.01989 1.69353-4.04341.99746-5.47328-.82295-1.69055-5.02691-2.68125-6.03293-4.68-1.37996-2.741717 2.41437-7.251821 1.18114-10.206218-4.10503-9.83425-12.25307-17.7859-12.40061-16.664404-.12069.917316 6.12212 7.556582 9.54509 17.712282.8852 2.626327-2.34864 7.519583-1.29034 10.21153.54312 1.38152 4.6235 1.87947 5.11957 3.25486.9136 2.53305-.89919 7.75061-.0458 9.93168 2.54625 6.5073 5.77128 9.120685 5.79856 9.788645.0123.30204-2.27754 1.29567-4.81557-.61402-.92614-.69684-1.62318-4.764935-2.70237-5.677305-1.17442-.99292-3.2321-.59155-4.49751-1.567-1.51279-1.16614 1.01108-4.92653-.37923-6.08442-4.41496-3.67688-11.83864-4.27733-11.78195-3.82572.0731.5788 5.54158 1.08873 9.34372 5.33234 1.11968 1.24971-.61322 5.92194.70274 7.15455 1.16378 1.09006 3.70968-.0977 4.8509 1.0938 1.39078 1.452115 2.28691 5.949475 3.55136 7.191965 3.52884 3.46753 6.76149 4.61818 6.88345 5.12032.11186.46054-1.2184 1.46169-2.67731 1.07285-1.06134-.28289-1.94604-2.81985-3.24771-3.38306-3.39896-1.47071-7.28215-1.2838-6.97134-.43882.21783.59216 2.8667.36841 5.38152 2.47222 1.357 1.13522 2.12475 4.45651 3.69661 5.53314 3.16937 2.17083 6.97759 3.62486 7.28022 4.23949 7.32029 14.86653 22.19776 25.68921 36.71669 23.3571 58.84617-23.01097 43.94488-58.900205 20.77026-75.190195-.48281-.339388.17591-5.237612 8.18157-9.468369 4.7827-2.527489 15.4902-3.391136 20.98463-6.855488 3.75195-2.365703 2.72987-8.106757 6.96342-10.216739 4.04118-2.01411 14.84228 1.524048 18.51468-.459959 12.84507-6.939423 21.16393-15.075625 20.48094-15.445164-.57492-.311072-11.78775 4.243182-25.27461 6.166061-7.61046 1.085062-16.06894-1.798972-23.44369.839905-5.35927 1.917677-2.41789 9.399083-5.59797 12.881175-3.10319 3.397916-12.33885 2.797732-16.59832 4.645035-12.31877 5.342493-15.22509 11.910981-15.89222 11.660644-.50286-.188679.96308-7.995808 8.32635-17.630236 2.19342-2.869988 12.53063-5.891639 15.14215-9.120954 2.72151-3.365327-.87216-6.26042 1.7885-9.795613 3.65933-4.862097 15.21788-8.2981 19.02512-13.02031 12.18947-15.1188377 15.76811-29.423618 15.0997-29.576427-1.09195-.249641-8.35317 13.1674893-22.08489 26.7470903-5.17674 5.1193767-16.41686 8.1119097-21.10209 13.5348207-3.23669 3.746291 3.25386 7.054135-.0775 10.613633-2.92337 3.123524-13.1245 5.477094-15.68499 8.277147-9.33177 10.204818-13.08392 17.684198-13.88509 17.760687z" class="hair" id="path4781-0"/><path d="m328.70995 74.314752c-.57594-.201343-1.49007-3.635223 2.16983-6.348142 2.01044-1.490232 10.76425 1.0604 13.65191-.83331 2.81624-1.846868 2.51922-6.952643 5.54622-9.180422 4.11999-3.032161 13.60362-2.048011 17.85878-4.953923 12.45197-8.503658 18.5275-19.61599 17.38556-19.890223-1.13647-.272928-8.51946 8.582581-22.25401 15.367291-4.66644 2.30516-14.34126.666474-18.98327 3.349782-2.79802 1.617405-1.68226 7.677743-4.46494 9.125666-3.40549 1.771987-11.57158.159137-14.47163 1.691638-8.1384 4.300668-12.12326 7.851085-12.85789 7.767019-.4376-.05007-1.54986-4.06755.45687-6.698792 1.85429-2.431348 8.82848-2.61567 12.02112-6.137233 2.06638-2.279266.86704-8.03824 2.97156-10.629571 2.56911-3.163385 11.78223-2.574566 14.4285-5.435519 8.04457-8.697246 8.77498-18.945571 7.88149-18.936331-.91949.0095-3.82518 7.784783-12.44491 15.059852-3.01307 2.54303-10.82606 2.445247-13.85366 5.482198-2.26132 2.26831-1.18713 8.15723-3.52647 10.275778-3.53726 3.203452-10.54357 3.436245-13.4206 6.17802-5.53064 5.270623-8.02635 10.993008-8.65483 11.098977-.42536.07171-4.47922-.747838-3.85394-2.672246.51277-1.578083 6.15131-2.783946 7.29656-5.288924.825-1.804438-1.8663-5.33613-.94228-7.472401.97097-2.244783 7.64863-3.556462 8.78469-5.944229 1.08131-2.272644-.96792-6.274197-.0697-8.58101 1.11172-2.85514 8.58731-4.470914 9.65554-6.979732 3.5423-8.319448.0435-15.288613-.84633-14.934973-.74315.295341.26182 6.007012-4.01648 12.996721-1.41155 2.306189-7.86601 4.06071-9.22871 6.720918-1.22237 2.386221 1.14164 5.413897-.32603 7.874785-1.56065 2.616879-7.61915 4.236959-9.06184 6.845042-1.20588 2.180057 1.72763 5.602461.50879 7.618761-1.3825 2.287044-8.00108 4.424885-9.13743 6.354587-3.16104 5.367884-3.14397 8.948435-3.66443 9.298904-.40296.271333-3.99709-.477839-3.69084-3.1251.13576-1.174121 3.78407-2.213137 4.0874-3.774237.35864-1.845694-2.40531-5.164633-2.00769-7.366672.54544-3.020564 6.28888-4.343739 7.07943-7.446054 2.63147-10.326621.90031-21.579282.10821-20.771755-.6479.660502.34968 9.719054-3.02009 19.892531-.87144 2.630923-6.39732 4.59723-7.16988 7.384652-.39649 1.430516 2.56493 4.281392 2.13453 5.678725-.79268 2.573456-5.37791 5.653198-6.0071 7.90918-1.87713 6.730881-.87096 10.758063-1.25071 11.30825-.17174.248764-2.59895-.333749-3.47914-3.385596-.3212-1.113622 1.56733-4.783589 1.2534-6.161454-.34162-1.499484-2.22726-2.415726-2.65209-3.955948-.50788-1.841323 3.7696-3.329125 3.35464-5.090225-1.31775-5.592393-6.88928-10.535029-7.11546-10.140053-.28954.506481 3.77395 4.201397 4.26128 9.87828.1435 1.671786-4.05006 4.363764-3.73943 6.139879.27472 1.570716 3.02325 2.152026 3.21896 3.790242.23847 1.996504-1.74902 6.129198-1.4855 7.882245.73548 4.892397 2.62707 7.755247 2.42266 8.22984-.18746.435277-1.85236.435632-2.78447-.752136-.67809-.864098.14003-3.423305-.56159-4.655892-1.83209-3.218598-5.04763-5.40364-5.30722-4.541544-.1819.604163 2.0694 2.017744 2.81435 5.210766.40198 1.722959-.98111 4.838643-.37221 6.643946 1.22773 3.640067 3.3969 7.09136 3.26925 7.76446-3.08725 16.28095 2.29567 33.87338 15.30016 40.73788 60.859 16.98701 70.52598-20.6512 61.79927-47.60062-.18181-.56146 3.2892-4.079788 12.23012-2.648058 5.34142.855359 14.4173 6.602078 20.89069 7.136628 4.42046.365 7.05496-4.837283 11.70655-3.978406 4.44023.819846 10.94473 10.140456 15.07216 10.762656 14.43658 2.1764 25.97557.67545 25.65192-.0305-.27243-.5942-11.97077-3.69543-23.90449-10.266513-6.73405-3.707975-11.75972-11.097571-19.23949-13.422145-5.43559-1.689288-7.58254 6.057566-12.21712 6.928486-4.52254.849875-11.54224-5.181832-16.05663-6.266206-13.05599-3.136163-19.32721.365764-19.70984-.235338-.28843-.453077 5.57636-5.810735 17.25238-9.083423 3.47814-.974906 13.55542 2.824685 17.58369 1.813973 4.19793-1.053282 3.06652-5.5272 7.31794-6.752807 5.84717-1.685621 17.14954 2.517067 23.03082 1.032152 18.82977-4.754145 30.289-14.034213 29.84671-14.558147-.72254-.855929-14.591 5.500982-33.72792 8.097941-7.21444.979018-17.99575-3.386634-24.99988-1.869577-4.83865 1.048018-1.64039 7.593259-6.4424 8.435093-4.21388.7387-13.78078-3.51297-17.51022-2.814618-13.59201 2.545127-21.08675 6.266499-21.77297 5.845995z" class="hair" id="path4781-0-3"/><path d="m353.09523 101.78611c-.20267-.57547 1.90716-3.434806 6.31213-2.272468 2.4197.638498 5.89802 9.066798 9.18086 10.138088 3.20165 1.04479 7.00241-2.3774 10.63314-1.40607 4.94171 1.32208 10.09908 9.34139 15.02667 10.84789 14.41974 4.40849 26.89196 2.20855 26.39254 1.14562-.49702-1.05784-12.02417-1.28885-25.90325-7.77279-4.71554-2.20298-9.48134-10.78054-14.47685-12.728164-3.01111-1.173944-7.04557 3.483934-9.91477 2.216064-3.51137-1.55164-7.35463-8.935111-10.3632-10.241766-8.44295-3.666851-13.70485-4.559601-14.09824-5.185693-.23434-.372943 2.20734-3.751625 5.51557-3.828969 3.05692-.07146 7.55858 5.258487 12.30294 5.550738 3.0707.189156 6.81764-4.345669 10.15582-4.321725 4.0751.02923 9.3721 7.59032 13.25929 7.868766 11.81697.846436 20.27477-4.986855 19.70927-5.678676-.58195-.711959-8.46812 1.877721-19.5341-.306406-3.86816-.763478-8.67369-6.924591-12.93656-7.390791-3.18395-.348202-7.11055 4.170106-10.22632 3.667413-4.71133-.760082-9.2709-6.084821-13.20924-6.617901-7.57081-1.024769-13.598.602272-14.07344.177798-.32177-.287293-2.21492-3.964443-.32173-4.6787 1.55249-.585703 6.01716 3.063133 8.68853 2.39208 1.92431-.483363 3.00006-4.791345 5.24532-5.404741 2.35932-.644542 7.55589 3.749471 10.13 3.144482 2.45002-.575803 4.2938-4.676075 6.6561-5.416175 2.9238-.916027 8.85637 3.910963 11.48261 3.177377 8.7088-2.43266 11.96381-9.51897 11.1317-9.99274-.69493-.395675-4.52639 3.957837-12.65688 4.98499-2.68256.338926-8.08541-3.604118-11.01384-3.005846-2.62684.536637-3.51358 4.274157-6.35198 4.66593-3.01829.416648-8.06877-3.301253-11.00649-2.798004-2.45556.420692-3.29464 4.849493-5.63046 5.157745-2.64945.349645-8.45413-3.482023-10.67079-3.163477-6.16613.886076-8.95099 3.136674-9.54983 2.94931-.46363-.145072-2.12446-3.419312.13375-4.834321 1.00153-.627642 4.09235 1.571568 5.50072.832956 1.66512-.873253 2.52937-5.105021 4.49706-6.170499 2.69913-1.461515 7.32093 2.19592 10.23704.874695 9.70679-4.397956 17.41064-12.780675 16.28523-12.894535-.92053-.09314-7.36969 6.345866-17.41823 10.071702-2.59861.963526-7.5866-2.122195-10.24561-.983681-1.36463.584283-1.74004 4.677761-3.09995 5.214834-2.50453.989111-7.77408-.666476-9.92859.251909-6.42806 2.740148-8.9436 6.042062-9.61044 6.089349-.30153.02135-1.36335-2.237677.46941-4.831804.66876-.946613 4.71413-1.765279 5.59375-2.871326.95726-1.203658.4944-3.248381 1.43148-4.542461 1.12028-1.54706 4.95462.862957 6.07032-.56143 3.5429-4.523187 3.92056-11.961531 3.47086-11.891325-.57636.09041-.92214 5.571723-5.04988 9.49935-1.21559 1.156636-5.93766-.435443-7.13028.916869-1.05468 1.195935.20885 3.705083-.9479 4.881507-1.40977 1.433681-5.87825 2.464214-7.08229 3.765332-3.3602 3.631194-4.41344 6.896881-4.9117 7.03383-.45698.12562-1.49754-1.174037-1.15262-2.643944.25095-1.069345 2.76026-2.029692 3.28421-3.347655 1.36816-3.441516 1.06494-7.317359.22966-6.981363-.58536.235486-.28232 2.876457-2.30981 5.453209-1.09403 1.390415-4.39082 2.25737-5.41985 3.860794-2.07486 3.233015-3.41408 7.083101-4.01936 7.404018-14.64044 7.762606-25.01232 22.957787-22.24607 37.400291 24.76446 58.13 60.19092 42.15968 75.77896 18.50721.32476-.49277 5.24053.0188 9.70935 7.89409 2.66971 4.70479 3.85391 15.38158 7.48139 20.76971 2.47711 3.67935 8.18494 2.48566 10.42086 6.65406 2.13434 3.97899-1.07848 14.88129 1.01472 18.49257 7.32132 12.6313 15.70321 20.70255 16.05215 20.00875.2937-.58398-4.59459-11.65526-6.92087-25.07842-1.31268-7.57452 1.31653-16.11564-1.54221-23.40798-2.07746-5.29939-9.46734-2.13508-13.04318-5.20936-3.48941-2.99995-3.16632-12.24945-5.14047-16.45163-5.70933-12.15311-12.36198-14.86124-12.13175-15.53557.17352-.50829 8.02108.72298 17.87189 7.79416 2.93444 2.10641 6.26458 12.34841 9.57072 14.86196 3.44539 2.61941 6.23146-1.05941 9.84481 1.49408 4.9696 3.51195 8.75051 14.96232 13.58472 18.62631 15.4774 11.73082 29.88303 14.87909 30.01573 14.2064.2168-1.09894-13.41194-7.95473-27.39704-21.27326-5.27224-5.02096-8.60033-16.16633-14.16124-20.68691-3.84162-3.12295-6.95344 3.46383-10.61119.24066-3.20974-2.82843-5.86802-12.95443-8.74356-15.42984-10.47995-9.02171-18.06843-12.54799-18.1689-13.3465z" class="hair" id="path4781-0-3-5"/><path d="m339.46968 114.69202c.12287-.59762 3.40447-1.96081 6.58052 1.3053 1.74464 1.79412.38223 10.8096 2.64354 13.41942 2.20539 2.54527 7.22616 1.5711 9.83713 4.27453 3.55372 3.6796 3.841 13.20983 7.28758 17.04021 10.08584 11.2089 21.90815 15.75082 22.0279 14.58253.11919-1.16269-9.64047-7.3009-18.19343-20.00984-2.90594-4.31798-2.56997-14.12484-5.84744-18.36826-1.97554-2.55776-7.83338-.64504-9.6389-3.21017-2.20963-3.13925-1.69839-11.44737-3.60337-14.11756-5.34594-7.49333-9.3953-10.970004-9.40979-11.709285-.009-.440372 3.82498-2.077625 6.69997-.439094 2.65659 1.514067 3.76784 8.401619 7.68312 11.096969 2.5341 1.74451 8.08212-.21092 10.93058 1.52985 3.47728 2.12505 4.12036 11.33454 7.30817 13.57634 9.69089 6.81497 19.94522 6.17439 19.8171 5.29009-.13183-.91004-8.22477-2.75464-16.58272-10.32901-2.92155-2.64765-3.86489-10.4041-7.2779-13.0004-2.54919-1.93917-8.24266-.0905-10.65381-2.12692-3.6459-3.07926-4.80945-9.992192-7.90988-12.478565-5.96005-4.779651-11.96378-6.491248-12.15249-7.100026-.1277-.412025.14481-4.538911 2.13533-4.175417 1.63231.298093 3.57817 5.725883 6.21333 6.527419 1.89821.577406 5.04014-2.560151 7.28041-1.928789 2.35407.663448 4.54316 7.107018 7.06093 7.915049 2.39638.769097 6.08946-1.794668 8.49533-1.211577 2.97773.721678 5.57444 7.915586 8.20315 8.640274 8.71701 2.403092 15.15829-1.992453 14.68932-2.827279-.39165-.697206-5.91866 1.059282-13.41577-2.2503-2.4736-1.091933-5.07186-7.255326-7.88981-8.251704-2.52773-.893782-5.2137 1.852294-7.84809.725342-2.80137-1.198336-5.21367-6.987197-7.99062-8.069797-2.32119-.904881-5.32255 2.458179-7.48319 1.518642-2.45074-1.065684-5.45077-7.340701-7.51459-8.21001-5.74096-2.4182-9.28736-1.924558-9.70401-2.393725-.32257-.363247-.0586-4.025121 2.60587-4.074063 1.18175-.02177 2.69726 3.455716 4.28485 3.548499 1.87701.109705 4.7984-3.071528 7.03377-2.970637 3.06629.138419 5.14238 5.654552 8.32233 6.025014 10.58505 1.233129 21.50703-1.980828 20.60124-2.658358-.74089-.554193-9.58597 1.640586-20.11753-.344658-2.72353-.513393-5.40806-5.728276-8.27352-6.122831-1.47058-.202501-3.90177 3.11213-5.34398 2.871603-2.65608-.442985-6.31889-4.577346-8.63856-4.900569-6.92088-.964249-10.77825.569153-11.37409.266038-.26941-.137089-.0153-2.620246 2.89223-3.898932 1.06094-.466613 4.94968.916476 6.27348.42189 1.44064-.538229 2.09767-2.529069 3.56762-3.155188 1.75731-.748513 3.80138 3.292791 5.49155 2.647047 5.36716-2.050601 9.52397-8.230605 9.10241-8.402181-.54053-.219532-3.66152 4.299735-9.22298 5.538562-1.6378.364807-4.86415-3.432998-6.5831-2.888661-1.52015.481407-1.73034 3.282862-3.32791 3.694949-1.94697.502167-6.3075-.917393-8.00985-.422814-4.75092 1.380319-7.33643 3.636234-7.83401 3.496832-.45637-.127837-.67838-1.777863.3747-2.85982.76612-.787102 3.41148-.317003 4.53968-1.176486 2.94601-2.244314 4.68347-5.722147 3.79449-5.864641-.623-.09984-1.72426 2.319621-4.78967 3.483067-1.65409.627797-4.92619-.328146-6.63435.515695-3.4442 1.701449-6.57595 4.310818-7.26005 4.273926-16.54704-.892076-33.26615 6.785222-38.33807 20.58789-8.73285 62.57885 29.85735 67.14852 55.40493 54.91139.53226-.25495 4.48142 2.71669 4.25284 11.76866-.13657 5.40775-4.62374 15.16795-4.29165 21.65488.22681 4.4297 5.73353 6.34811 5.50162 11.07263-.22136 4.50985-8.59296 12.19742-8.66008 16.37095-.23489 14.59781 2.78902 25.83423 3.4456 25.41947.55263-.34912 2.06871-12.35621 6.99239-25.05858 2.77838-7.16778 9.43306-13.13257 10.74106-20.85525.95053-5.61212-7.0132-6.70851-8.49342-11.18587-1.44446-4.36913 3.59893-12.1294 4.07258-16.74798 1.36994-13.35731-2.93578-19.10644-2.39097-19.5657.41064-.34618 6.50145 4.75306 11.29958 15.88939 1.42932 3.31738-.99473 13.81082.54332 17.66866 1.60283 4.02032 5.88627 2.30332 7.66701 6.3537 2.44912 5.57068-.21132 17.33198 2.04342 22.96319 7.21887 18.02915 17.94203 28.15078 18.40241 27.64268.75211-.83007-7.39469-13.72868-12.51647-32.34946-1.93085-7.01985.96048-18.28643-1.47562-25.02622-1.68291-4.65603-7.74406-.6148-9.21775-5.26197-1.29317-4.07801 1.64688-14.12581.4582-17.72906-4.33215-13.13214-9.01825-20.06468-8.69286-20.80078z" class="hair" id="path4781-0-3-5-5"/><path d="m342.88753 132.51788c.23796-.56179 3.72353-1.25321 6.19546 2.57358 1.35786 2.10211-1.75043 10.67378-.0464 13.67724 1.66193 2.92919 6.77624 2.96113 8.80475 6.12512 2.76094 4.30646 1.16894 13.70717 3.79518 18.14041 7.68529 12.97305 18.38391 19.75063 18.73101 18.62868.34546-1.11656-8.01693-9.05375-13.90434-23.1962-2.0003-4.80503.25717-14.35444-2.12206-19.1594-1.43412-2.89624-7.55368-2.17252-8.81965-5.04256-1.54932-3.5124.58535-11.55786-.75748-14.55046-3.76839-8.39811-7.0552-12.60305-6.92406-13.33075.0777-.43354 4.1588-1.28507 6.65554.88671 2.30707 2.00681 2.04251 8.97842 5.35146 12.39092 2.14167 2.20867 7.96585 1.38217 10.41648 3.64898 2.99162 2.76722 1.81154 11.9234 4.49638 14.74818 8.16191 8.58722 18.34205 9.97518 18.39029 9.08295.0497-.9182-7.52268-4.31789-14.22836-13.38764-2.344-3.17036-1.74398-10.96089-4.57994-14.17753-2.11819-2.4025-8.064-1.70927-10.02772-4.17998-2.96935-3.73596-2.75109-10.74273-5.30218-13.79013-4.90403-5.85813-10.45408-8.71668-10.51942-9.35068-.0442-.42908 1.03435-4.421851 2.91456-3.674102 1.54184.61319 2.3826 6.317612 4.80875 7.621572 1.74764.93934 5.44511-1.51927 7.51752-.45978 2.17769 1.11331 3.05723 7.8615 5.367 9.14877 2.19841 1.22522 6.32345-.56243 8.56773.48228 2.77773 1.29303 3.90941 8.85705 6.34434 10.08441 8.07443 4.06998 15.25417 1.0266 14.95849.11587-.24694-.7606-6.01141-.12503-12.71152-4.84397-2.21065-1.55694-3.54646-8.11086-6.11352-9.64182-2.30267-1.37329-5.47611.79111-7.83752-.83177-2.5111-1.72571-3.73821-7.87586-6.24812-9.48329-2.09798-1.34357-5.70196 1.36378-7.63571.0178-2.19339-1.526712-3.90118-8.269075-5.75381-9.527172-5.15349-3.499696-8.72773-3.712922-9.04401-4.254847-.24486-.419576.7339-3.958084 3.35599-3.482227 1.16296.210991 1.96521 3.918561 3.50357 4.321659 1.81881.47659 5.30863-2.0682 7.48053-1.529797 2.97924.73856 3.93032 6.555201 6.97537 7.543622 10.13603 3.290118 21.47672 2.286185 20.72181 1.443797-.61747-.689039-9.72143-.276067-19.65714-4.293105-2.56944-1.038828-4.17631-6.67972-6.90828-7.629933-1.40206-.48767-4.43747 2.28429-5.80424 1.764914-2.51715-.956534-5.29565-5.730326-7.5065-6.503295-6.59623-2.306098-10.67979-1.560995-11.20441-1.975338-.2372-.18738.50015-2.572115 3.60233-3.254215 1.13197-.248922 4.6729 1.871713 6.0681 1.647043 1.51834-.24449 2.55395-2.067301 4.11831-2.392203 1.87017-.388411 3.07981 3.97589 4.86395 3.675042 5.66557-.955378 10.95626-6.197525 10.57666-6.448633-.48682-.321517-4.4354 3.495951-10.13188 3.617199-1.67756.03569-4.09428-4.322305-5.8867-4.126543-1.58512.173145-2.34199 2.8786-3.9894 2.968557-2.00769.109585-6.00403-2.139564-7.77039-1.989325-4.92957.419333-7.90814 2.1229-8.3686 1.888392-.42233-.215065-.31561-1.876536.92963-2.730338.90592-.621118 3.40722.359893 4.68238-.261008 3.32976-1.621317 5.71706-4.689683 4.87344-5.004172-.59121-.220376-2.14665 1.935354-5.38097 2.473423-1.74523.290345-4.76553-1.290247-6.60625-.798705-3.71149.991101-7.29513 2.933831-7.95863 2.763163-16.04871-4.127869-33.95089.11256-41.63748 12.648684-20.86562 59.640601 16.07301 71.708041 43.52784 64.732481.572-.14533 3.85985 3.54473 1.85608 12.3751-1.19709 5.27537-7.51557 13.96288-8.46531 20.3885-.64851 4.38784 4.37357 7.35144 3.21733 11.93816-1.10369 4.37831-10.82331 10.26996-11.70965 14.34884-3.10028 14.26673-2.34451 25.87836-1.6192 25.60078.61049-.23366 4.45761-11.70834 11.78252-23.19479 4.13337-6.48165 11.83087-11.02169 14.63164-18.33649 2.03534-5.31571-5.55741-7.9564-6.12847-12.63739-.55729-4.56785 5.91337-11.18511 7.2858-15.62044 3.9693-12.82728.87791-19.31073 1.50238-19.65391.47068-.25869 5.44009 5.9385 7.95514 17.80081.74922 3.53365-3.69057 13.34572-2.941 17.43065.78114 4.25698 5.31854 3.41563 6.26821 7.73706 1.30611 5.94346-3.61472 16.95217-2.5111 22.91676 3.53339 19.09653 12.05732 31.12883 12.60861 30.72116.90063-.666-4.55126-14.91456-5.91217-34.17888-.51304-7.26246 4.5369-17.7407 3.47341-24.8279-.73467-4.89602-7.47205-2.12531-8.00333-6.97151-.46618-4.25266 4.39193-13.52635 3.93486-17.29297-1.66578-13.72756-4.89746-21.4461-4.4337-22.10386z" class="hair" id="path4781-0-3-5-5-5"/></svg>