<svg viewBox="0 0 560 1e3"><path style="display:inline;fill-opacity:.31372549;fill:#464646;stroke-width:.97034371" id="path4550" d="m261.93489 420.69535c-1.21567-21.13558 5.60117-41.81355 13.13077-41.69215 6.66973.10753 11.21416 10.60458 9.97914 40.90734-5.9069-15.15579-21.65954-6.44844-23.10991.78481z"/><path style="display:inline;fill:#000" id="path4552" d="m284.17776 454.43111c.1057.2424.12195.74808.0983 1.31472-.041.98234-.20191 2.14787-.22461 2.44228-.43418 5.63179-.33638 10.67219-.6008 10.76924-4.85185 1.78082-18.63731.88797-20.47775-.14058.0145.17905-.31963-10.72428-.31963-10.72428 1.53086-17.53846 15.9927-4.11006 21.52449-3.66138z"/><path style="fill:#cd87de" id="path4554" d="m283.78001 453.72401c.28894.66262-.2673 3.69051-.30309 4.15474-.43415 5.63179-.71203 10.25235-.97645 10.3494-4.85185 1.78082-17.77552.84378-19.61596-.18438.0145.17905-.27544-9.90669-.27544-9.90669.0285-.40946.27349-2.83327.34525-3.136 2.58543-10.90745 19.98261 1.22277 20.82569-1.27707z"/><path id="path4556" d="m262.07507 420.53305c1.09133-27.78889 9.27414-41.89356 13.05921-41.52372 3.82754.37399 9.52906 12.92333 9.70962 40.72078-1.77004-3.01537-20.6064-.65229-22.76883.80294z" class="skin torso"/><path style="display:inline;fill-opacity:1;fill-rule:evenodd;fill:#1a1a1a;opacity:1;stroke-dasharray:none;stroke-linecap:butt;stroke-linejoin:miter;stroke-miterlimit:4;stroke-opacity:1;stroke-width:0;stroke:#000" d="m348.52978 406.0731c.17594.29463.23456.36287.14343.43358-7.58199 5.88234-28.75619 14.08712-52.70049 35.19948-5.02209 4.42812-9.78222 12.38146-11.93318 15.75841-6.3214-4.1739-15.68468-12.43378-21.32063.12119-5.71087-5.7849-23.14966-35.87278-37.26395-43.78371.11113-.0316.41697-.90137.51991-1.06255.0911-.14259.27446.0925.40697.19488 8.62097 6.66128 28.54067 25.66388 34.074 30.5294 9.4967 8.35057 14.46863 4.85299 24.82235-1.55712 12.31913-7.62691 34.81663-23.48552 63.14221-35.95854z" id="path4560"/></svg>