<svg viewBox="0 0 560 1e3"><path style="display:inline;fill-opacity:1;fill:#010101" d="m283.26172 215.74219c-8.43786-.0205-16.09063 1.75625-22.0625 5.75781-4.3 2.9-6.8 6.29922-10 10.69922-13.9 19-12.99883 41.20117-12.29883 57.70117.3 6.4 1.09922 15.89883 3.69922 27.29883 3.8 16.5 1.00078 28.2.80078 32.5-.2 4.5-.70078 12.2-2.30078 21-1.73947 9.06355-5.08596 22.49315-12.84961 38.125l120.80542-.48614c-.46897-.9031-5.12432-17.87272-4.8769-18.36589-.1045-.38128-1.02737-8.03328-.91767-8.33709.0.0.0366-7.44571-.36341-12.04571-.68531-4.23176-.47322-20.139 2.05178-25.814 1.625-2.7 5.55-16.47578 9.25-23.67578 3.7-7.1 5.40078-13.09883 6.80078-18.29883 2.9-11 4.7-22.8 4-28.5-3.42656-29.72344-48.63593-57.4782-81.73828-57.55859z" id="path1724-5-2"/><path d="m225.8 413.2c17.75041 4.41653 19.73516 25.4737 38.4375 47.50625 1.2.9-4.025-2.26875 4.8125-10.44375 15.5 6.7625 12.3875 12.33125 12.5875 11.93125C289.0375 446.29375 296 443.1 308.2 433.2c12.4-10 20-18 41.9-21.9z" id="path1726-0-8" style="display:inline;fill-opacity:1;fill:#010101"/><path d="m243.5092 234.97791c-10.75239 24.03948-12.38717 63.53944-6.25732 85.17501-10.0452 31.13839-25.49139 60.54192-11.65188 93.06569 12.40484 27.58979 26.85091 37.32111 38.6383 47.77849.42469-.9356-2.95753-2.73085 4.9821-9.69564 13.16914 5.79662 12.11622 10.33502 12.27075 11.46729 15.80998-4.79493 46.49937-17.32453 80.5081-44.12882 23.98445-19.32666-3.14292-65.88455-4.94664-71.29572 9.75092-28.89726 21.21381-58.88008 10.79403-116.05618-11.05067-22.38837-23.69995-23.0906-23.86969-23.00604-31.13933-3.64845-30.45769-14.07995-29.08261-49.55191l-24.17697.47132c-.56239 45.60447-3.71324 38.96563-18.7622 47.67994.0.0-17.69357 4.0571-28.44597 28.09657z" id="path1728-2-2" class="outfit_base"/></svg>