<svg viewBox="0 0 560 1e3"><g data-transform="boob" transform="matrix(1.1899396,0,0,1.1247504,-49.050018,-33.548868)" id="g5050" class="scaler_"><path class="areola" d="m300.5924 275.32662c-2.35294-.21148-5.16236-.67622-7.18324-2.83442-1.5673-1.67394-2.26115-3.91008-2.62039-6.51852-.39052-2.83555.89166-5.8967 3.17206-8.19778 1.68665-1.70199 3.05846-2.42092 6.3975-2.83928 2.11757-.26509 5.63912 1.25169 7.59273 3.90812 1.49031 2.02639 2.1703 4.58932 2.09067 7.01364-.0966 2.93996-1.08019 5.2151-2.52928 6.8001-1.90292 2.08112-4.74015 2.8642-6.92005 2.66814z" id="path5026"/><path d="m229.26236 253.74223c-.1044 1.68469-.1152 5.47083-1.43315 8.24938-2.30635 6.21993-8.43119 8.69374-10.31133 9.51858-.13808.0114-.28983-.0613-.39305-.24307-.28119-.49537-.38697-2.19975-.15811-4.26479.31779-2.86857.90905-6.43517 1.39786-8.47948.0224-.0934.0159-.21108.0882-.26404.36476-.267 2.31162-1.34558 3.37233-2.07242 1.55747-1.06724 3.31036-1.89739 4.55585-2.48293 1.34735-.61256 2.35868-1.24439 2.8814.0388z" class="areola" id="path5028"/></g></svg>