<svg viewBox="0 0 560 1e3"><g data-transform="balls" id="g5023"><path style="fill:#000" d="m257.66607 496.61899c4.14944 1.13097 8.46586.43899 9.39342.34412 7.94674 3.97257 15.70719 1.85262 19.64687-6.1883 2.20344-4.85122-.36417-11.7545-3.29443-19.13452-2.1949-5.45385-5.06156-11.54066-6.62573-13.27699-9.84786-9.91781-13.13813-2.67766-21.91172 15.67268-4.86509 8.27714-8.95386 19.27496 2.79159 22.58301z" id="path1992-1"/><path d="m258.20272 495.47299c3.92914 1.10083 8.0164.42729 8.89473.33495 7.52486 3.86671 14.8733 1.80325 18.60382-6.0234 2.08647-4.72194-.0776-11.80627-2.85234-18.98964-2.07837-5.30852-4.29067-11.23314-5.77179-12.9232-9.32505-9.65353-13.21001-2.2413-21.51782 15.62006-4.60678 8.05657-8.4785 18.76133 2.6434 21.98123z" class="skin scrotum" id="path1992"/></g></svg>