<svg viewBox="0 0 560 1e3"><path d="m315.34619 122.67741c-.11679-.0257-.42414-.0457-.8126-.063l-.80776-.0361.804.13744c1.14618.1959.83942.24065-.74523.10869-1.89149-.13774-3.74817-.36434-5.87828-.53023-6.11576.18925-13.2975 1.07996-15.9777 1.65122-.709.0424-1.53853.10215-1.84341.13279-.67495-.30575-1.26258-.46736-.79073-.89419.0588-.17519.15308-.35661.23373-.5088.0811-.15293.14829-.27635.15173-.33428l.74352-.0886c1.28388-.4211 10.49247-1.33276 15.95379-1.33572 1.50772-.0438 1.94447-.0256 2.79655.11729.55537.0931 1.38732.21169 1.84875.26364.90322.10166.89491.10014 2.98299.54289l1.36581.2896c.0226.011.71038.15094 1.23922.50419-.14197.0951-1.24762.0467-1.26438.043z" id="path2646" class="eyebrow_hair"/><path d="m264.1942 121.84615c.0514-.005 1.33147-.3194 1.41381-.34565 3.47039-.66694 8.07315.11777 9.74787.4663.55179-.0528 2.25013.33559 2.25013.33559.144.14643.40356.42656.3965 1.17712-.1657.14923-.96713.52636-1.63932.31801-.63331-.12357-1.34513-.28261-2.34765-.40989-1.29486-.31243-8.5864-.54391-9.44043-.35883-.0495.0107-.19738-.63756-.2081-.63423.0186-.005-.19779-.54578-.17281-.54842z" id="path2648" class="eyebrow_hair"/></svg>