<svg viewBox="0 0 560 1e3"><path id="path2316-4-7-9-9" d="m298.11288 438.67647c-.9189.91706-1.47681 2.07297-2.19112 3.04135-5.44325 7.37942-12.7957 15.81041-13.00807 16.4538-1.50143 5.6769-3.68176 12.0596-8.5563 9.64719-5.54543 2.15203-10.08278-5.25961-10.37035-9.34965-1.73072.2056-8.28194-10.43732-16.50914-21.58435 3.98037 1.53438 7.93097 2.82301 19.41937 1.75411 7.12074 2.42851 17.04659 3.83406 31.21561.0376z" style="display:inline;fill-opacity:1;fill-rule:evenodd;fill:#85929e;opacity:1;stroke-dasharray:none;stroke-linecap:butt;stroke-linejoin:miter;stroke-miterlimit:4;stroke-opacity:1;stroke-width:0;stroke:#000"/><path style="display:inline;fill-opacity:1;fill-rule:nonzero;fill:#85929e;opacity:1;stroke-dasharray:none;stroke-linecap:butt;stroke-linejoin:miter;stroke-miterlimit:4;stroke-opacity:1;stroke-width:0;stroke:#000" d="m235.12644 271.83609c-.12533-.49445.12012-2.27961.12012-2.27961 26.65163-7.75069 39.97154-13.55745 43.29807-16.25634 2.88198-2.73792 5.66754-5.6219 9.10488-1.29544 10.06093 13.80857 52.92609 22.53557 83.20069 20.18112.0169.29411-.25819 2.16976-.2561 2.3755.004.38325-65.47255 1.734-84.91278-20.50851-1.60892-1.85436-2.59027-1.05997-3.33649-.47037-3.1265 2.76859-16.37913 9.88969-47.21815 18.25365z" id="path2364-2"/><path style="display:inline;fill-opacity:1;fill-rule:nonzero;fill:#85929e;opacity:1;stroke-dasharray:none;stroke-linecap:butt;stroke-linejoin:miter;stroke-miterlimit:4;stroke-opacity:1;stroke-width:0;stroke:#000" d="m293.39717 219.15201s-11.30379-8.0112-13.32421-14.80963c-.14531-.48895 1.08137-.85736 1.3252-.89177 2.11202 5.76737 13.33697 14.92636 13.80409 15.01048.45472.0819 22.94782-9.41365 27.20052-15.6514.11299.48255 1.442.4609 1.29391.92178-2.16457 6.73605-27.24014 15.72559-27.26746 15.74375-.0217.0182-1.49102.55747-1.70932.55652-.12548-.0318-1.25536-.836-1.32273-.87973z" id="path2362-0-0-3"/></svg>