<svg viewBox="0 0 560 1000"><path style="display:inline;fill:#000000;opacity:1;stroke-width:1.21454322" d="m 279.6263,478.25725 c -5.93675,4.31943 -13.83619,4.41809 -17.59915,1.71264 -7.41235,-5.32926 -6.83526,-18.14418 -4.99487,-21.67829 0.74661,-1.43369 2.37694,-3.06971 5.252,-12.44432 1.917,-6.25074 3.19967,-24.06947 3.12392,-38.03146 -0.0113,-2.07484 -1.48493,-0.0489 -1.82767,-2.07733 -0.48585,-2.87555 2.63827,-7.76802 3.62813,-9.23163 3.62925,-5.36624 5.37692,-2.37196 6.18623,-2.30491 2.13142,0.17659 2.83415,5.70307 3.26816,12.43026 0.11465,1.77744 -0.12372,2.37254 -0.21019,4.22025 -0.5025,10.73885 -1.96757,17.58454 -1.18,35.41361 0.24806,5.61576 2.72586,12.45118 3.71989,14.35346 3.847,7.36196 4.10312,13.95594 0.63355,17.63772 z" id="path46593"/><path id="path46599" d="m 263.4236,479.79406 c -7.87293,-3.93352 -7.94341,-18.54186 -4.98868,-22.36853 1.24166,-1.6081 2.10071,-3.03603 4.79072,-11.64912 1.84627,-5.91154 2.97887,-25.72524 2.91456,-39.10935 -0.009,-1.98899 -2.16597,0.39607 -2.04215,-1.57075 0.17409,-2.76506 1.70244,-5.66955 4.67415,-10.13187 1.77296,-2.66226 5.42158,-2.75394 8.05792,0.0802 1.49418,1.60626 3.5328,4.84769 3.90117,11.29647 0.0973,1.70387 -1.76256,-0.0758 -1.83596,1.69537 -0.42651,10.29439 -1.30052,21.27027 -0.63202,38.36142 0.21055,5.38332 1.7029,9.05351 2.66602,10.80102 3.88957,7.05726 5.35572,18.08927 0.33973,21.63425 -5.01599,3.545 -14.24373,2.76041 -17.84546,0.96089 z" class="skin scrotum"/></svg>
