<svg viewBox="0 0 560 1e3"><path d="m277.92014 121.44347c.15976.18735.98694 1.31953-.47682 1.07884-.37467-.17995-.77553-.32976-1.19508-.45308-.22121-.065-.44762-.12267-.67812-.17352-.22144-.0488-.44666-.0914-.67468-.12807-1.74463-.28088-3.65312-.22077-5.28783-.0329-1.86304.21945-4.20091.76296-5.41721 1.39032-.11798-.55069-.2088-.80024-.23516-1.22335-.007-.11999-.23947.007-.25786-.077.11859-.0947.81465-.39051.8952-.41521.13064-.0401-.28417-.11537-.15717-.16472.16014-.0623.8551-.11015 1.02202-.16708.4834-.16486.99374-.30749 1.52232-.42797.18647-.0425-.12475-.14053.0659-.17752.11719-.0227.73509.0139.85362-.007.52907-.0922 1.07059-.16362 1.61664-.21434.26197-.0243-.10001-.17215.16318-.18696.21942-.0123 1.06396.10689 1.28312.10116.38826-.0101.77532-.01 1.15835 72e-5.22176.006-.0109-.21743.20757-.20434.19835.0119.84827.25984 1.04308.27744.46541.0421.91958.10043 1.35695.1751.31406.0536-.0368-.19921.25788-.1288.19042.0455 1.0326.40929 1.21351.46177.64623.18752 1.22823.41969 1.72067.69637z" id="path7259" class="eyebrow_hair"/><path d="m298.42518 121.65731c-1.09909.12632-2.17175.31591-3.24494.57073-3.62966.88831-2.64043-.25987-2.59396-.6632.76259-.306 1.5142-.5617 2.26214-.77335.35009-.0991 1.60535-.52651 1.95457-.6069.3564-.082-.19319.18333.16384.11937.43341-.0776.86791-.14242 1.30492-.19562.393-.0479 1.45094-.25941 1.84903-.28936.28039-.0211-.10058.13518.18317.12222.49445-.0226.99461-.0333 1.5024-.0338.32118-31e-5 1.42986-.11195 1.75763-.10449.27686.006-.2282.13066.054.14196.43475.0173.87618.0404 1.32536.0682.24725.0153 1.35864-.0917 1.61077-.0736.28945.0206-.27956.16669.0168.1905.70797.0569 1.43646.12206 2.18914.19242.28501.0477 1.32322.008 1.61271.065.21372.0426-.32185.18104-.10748.22857.84808.18801 1.29752.26435 2.09664.5115.38647.11954 1.19921.22098 1.55786.34937.0697.0249-.29877.0734-.23038.0986.65892.24284 1.65386.64565 2.15429.90097.001.19911-2.42095-.47337.62293.68166-6.02408-1.15303-12.24058-2.14465-18.04144-1.50071z" id="path7261" class="eyebrow_hair"/></svg>