<svg viewBox="0 0 560 1e3"><path style="display:inline;fill:#000;opacity:1;stroke-width:1.06007576" d="m273.94433 492.47128c.007.91984-1.52477 12.53051-11.44805 12.09291-4.85917-.21428-11.65767-10.30464-11.66524-11.22449-.72177-1.73752.43779-2.32986.79517-2.56428.92542-.607 3.07001 2.17276 11.09567 2.33824 4.86224.10016 11.21487-1.56226 11.22245-.64241z" id="ellipse11-0-24"/><path style="display:inline;fill:#000;opacity:1;stroke-width:1.00820398" d="m260.26486 496.10036c-.73948.25848-1.27132-.11808-2.10363-.15128-2.35455-16.73423 6.79343-48.12508 9.44622-50.69355.48043.22015 2.28337-.17112 2.08697.47093-1.18551 3.87537-9.79552 27.30867-9.42956 50.3739z" id="ellipse11-0-2-1"/><path style="display:inline;fill:#000;opacity:1;stroke-width:.99869913" d="m270.8179 498.47764c-.76897.24391-1.32201-.11141-2.1875-.14274.31183-13.76784 6.6602-44.28291 9.82284-47.83507.49957.20774.97906 1.91565.77483 2.5215-1.23277 3.65685-7.14631 25.12918-8.41017 45.45631z" id="ellipse11-0-2-0-8"/><path style="display:inline;fill:#000;opacity:1;stroke-width:.99799651" d="m252.25459 493.69638c-.76789.24391-.53194-.11141-1.39622-.14274-1.19934-13.95534 3.56368-40.28291 10.20313-46.77257.49887.20774.73807.92198.37963 1.459-1.23103 1.84435-10.55183 18.50418-9.18654 45.45631z" id="ellipse11-0-2-0-7-0"/><path transform="rotate(-0.51731229)" style="fill:#bababa" d="m269.55663 495.42115c0 .82846-1.6084 11.27111-11.40932 10.78849-4.79925-.23632-11.43431-9.38414-11.43431-10.2126-.69901-1.57122.45149-2.09431.8065-2.30224.91927-.5384 3.01559 1.98412 10.94382 2.20474 4.80321.13366 11.09331-1.30688 11.09331-.47842z" id="ellipse11-0"/><path style="display:inline;fill:#000;opacity:1" d="m261.36744 503.60596c-.80575-.47163-1.6669-1.59106-1.30945-2.64029.43317.61533.87078 1.899 2.58917 2.89963-.70512.007-1.19843-.20437-1.27972-.25934z" id="ellipse11-0-8"/><path style="display:inline;fill:#000;opacity:1;stroke-width:1.01572001" d="m250.62691 481.04305c-.0355 1.25089-.0345 2.822-.0852 4.57417 6.19548 4.16331 20.55146 1.8551 23.97278.6087.0294-.43444.46767-4.87548.38065-4.8465-2.89147.96269-17.27651 2.6372-24.26827-.33637z" id="ellipse11-0-2-8-6"/><path style="display:inline;fill:#000;opacity:1;stroke-width:1.02290511" d="m251.62306 471.78113c-.1138.92639-.33642 2.82101-.52132 4.52959 6.19548 4.22242 21.2112 2.01834 24.63252.75425.0294-.44061.83668-4.94471.74966-4.91532-2.89147.97638-17.86916 2.64727-24.86091-.36852z" id="ellipse11-0-2-8-7-5"/><path style="display:inline;fill:#000;opacity:1;stroke-width:1.01296544" d="m253.83459 461.3902c-.11399.90694-.74884 2.72387-.93405 4.39657 6.96629 2.69325 21.3104 1.71062 25.24441.92797.0294-.43136 1.03133-4.85506.94101-4.85003-4.92394.27351-18.24785 1.18906-25.25142-.47451z" id="ellipse11-0-2-8-7-3-1"/><path style="display:inline;fill:#000;opacity:1;stroke-width:1.00859189" d="m257.24177 451.94518c-.27233.68269-1.19494 3.17194-1.40372 3.92247 7.05182 2.33113 19.89506 1.64051 24.33264.84329.0295-.42525-.30192-4.57341-.39178-4.55713-3.4533.62521-15.38163 1.06362-22.53719-.20863z" id="ellipse11-0-2-8-7-3-8-9"/><path style="display:inline;fill:#000;opacity:1;stroke-width:.92092556" d="m257.41539 452.83191c.0222.6675 1.26832.45652 1.44849.42774 7.6902-14.19613 17.65352-3.72076 19.59192.25483.58845.37524 1.29272-.25759 1.28162-.34649-1.22078-9.77779-16.64231-17.06305-22.32208-.33607z" id="ellipse11-0-2-8-7-3-8-3-4"/><path style="display:inline;fill:#bababa;opacity:1" d="m260.5024 495.42993c-.73066.25737-1.25615-.11756-2.07853-.15062-2.1412-14.85715 7.45342-47.97903 9.33351-50.47415.47469.2192 2.25612-.17039 2.06206.46889-1.17136 3.8586-9.67864 27.19048-9.31704 50.15588z" id="ellipse11-0-2"/><path style="display:inline;fill:#bababa;opacity:1;stroke-width:.91343182" d="m250.97945 481.66988c-.0351 1.02384-.0341 2.3098-.0842 3.74394 6.12156 3.40766 20.30624 1.51839 23.68674.49822.029-.35559.46209-3.99057.37611-3.96685-2.85697.78797-17.07037 2.15855-23.9787-.27531z" id="ellipse11-0-2-8"/><path style="display:inline;fill:#bababa;opacity:1;stroke-width:.91343182" d="m251.96371 472.53605c-.11244.74763-.33241 2.27666-.5151 3.65555 6.12156 3.40766 20.95811 1.62888 24.33861.60871.029-.35559.82669-3.99057.74071-3.96685-2.85697.78797-17.65594 2.13645-24.56427-.29741z" id="ellipse11-0-2-8-7"/><path style="display:inline;fill:#bababa;opacity:1;stroke-width:.91343182" d="m254.19096 461.92607c-.11244.74763-.73866 2.24541-.92135 3.6243 6.87156 2.22016 21.02061 1.41013 24.90111.76496.029-.35559 1.01731-4.00224.92821-3.9981-4.85697.22547-17.99969.9802-24.90802-.39116z" id="ellipse11-0-2-8-7-3"/><path style="display:inline;fill:#bababa;opacity:1;stroke-width:.91343182" d="m257.67997 452.34591c-.26712.57086-1.1721 2.65232-1.37689 3.2799 6.91706 1.94925 19.51487 1.37177 23.86764.70515.029-.35559-.29614-3.82421-.38429-3.8106-3.3873.5228-15.08769.88939-22.10651-.17445z" id="ellipse11-0-2-8-7-3-8"/><path style="display:inline;fill:#bababa;opacity:1;stroke-width:.90157425" d="m257.68693 452.36931c.0219.64746 1.25318.44281 1.4312.41489 7.59844-13.7701 17.44288-3.60909 19.35815.24719.58143.36398 1.27851-.25001 1.26633-.33609-1.29355-9.14142-15.8324-15.77935-22.05573-.32598z" id="ellipse11-0-2-8-7-3-8-3"/><path style="display:inline;fill:#bababa;opacity:1;stroke-width:.97350609" d="m271.23926 498.47764c-.73066.24391-1.25615-.11141-2.07853-.14274.2963-13.76784 6.32842-44.28291 9.33351-47.83507.47469.20774.93029 1.91565.73623 2.5215-1.17136 3.65685-6.79031 25.12918-7.99121 45.45631z" id="ellipse11-0-2-0"/><path style="display:inline;fill:#bababa;opacity:1;stroke-width:.97350609" d="m252.70825 493.69638c-.73066.24391-.50615-.11141-1.32853-.14274-1.1412-13.95534 3.39092-40.28291 9.70851-46.77257.47469.20774.70229.92198.36123 1.459-1.17136 1.84435-10.04031 18.50418-8.74121 45.45631z" id="ellipse11-0-2-0-7"/></svg>