<svg viewBox="0 0 560 1e3"><path d="m324.8 866c-5.3-.9-12.7 7.6-13 14.8-.2 3.8 1.7 5.5 4 10.2 6.9 14.2 6 31.8 5.8 38.1-.3 4.5-.8 9.3 2 14.1 2.1 3.6 5.2 5.5 6.9 6.7 6.6 4.2 13 3.8 19 3.5 5-.3 6.7-1.2 7.8-2.3 2.2-2.2 2.3-5.3 2.3-6.7.1-4.4-1.9-7.7-3.2-9.8-5.3-8.7-8.1-13.1-10.1-15.3-14.8-16.6-11.2-51.6-21.5-53.3z" class="shoe" id="XMLID_497_"/><path d="m324.8 866c-5.3-.9-12.7 7.6-13 14.8-.2 3.8 1.7 5.5 4 10.2 6.9 14.2 6 31.8 5.8 38.1-.3 4.5-.8 9.3 2 14.1 2.1 3.6 5.2 5.5 6.9 6.7 6.6 4.2 13 3.8 19 3.5 5-.3 6.7-1.2 7.8-2.3 2.2-2.2 2.3-5.3 2.3-6.7.1-4.4-1.9-7.7-3.2-9.8-5.3-8.7-8.1-13.1-10.1-15.3-14.8-16.6-11.2-51.6-21.5-53.3z" class="shoe" id="XMLID_497_-2"/><path d="m324.8 866c-5.3-.9-12.7 7.6-13 14.8-.2 3.8 1.7 5.5 4 10.2 6.9 14.2 6 31.8 5.8 38.1-.3 4.5-.8 9.3 2 14.1 2.1 3.6 5.2 5.5 6.9 6.7 6.6 4.2 13 3.8 19 3.5 5-.3 6.7-1.2 7.8-2.3 2.2-2.2 2.3-5.3 2.3-6.7.1-4.4-1.9-7.7-3.2-9.8-5.3-8.7-8.1-13.1-10.1-15.3-14.8-16.6-11.2-51.6-21.5-53.3z" class="shoe" id="XMLID_497_-2-3"/><path d="m344.2 933.9c1-.5 3.7-1.9 4.8-4.8.8-2.3.0-4-1.3-8.6.0.0-1.6-5.7-2.7-11.8-.8-4.7-.4-6.1-.8-11.3-1.3-17.9-7.3-18.2-6.9-33.1.0-.7-.9-11-.7-16.4-3-.8-16.3-.3-16.4.3-1.6 6.9 1.5 17.4 1 18.4-2.5 4.8-1.3 10-.5 13.4 3.4 14.3 5.1 19.2 6.2 24.3 3.9 17.5-.7 25.9 5.2 29.4 3.2 2.2 8.4 2.1 12.1.2z" class="skin" id="XMLID_498_"/><path d="m252.7 884.3c-8.4 16.1-6.2 25.8-14.7 30.5-1.9 1.1-4.4 3-6.3 3.9-6.1 2.8-9.3 4-9.9 6.8-.4 1.8.5 3.5.8 4 1.2 2 4.3 4.3 8.5 5.4 6.1 1.6 7.7 2.5 14.8.6 2.9-.8 6.2-1.7 9.1-4.4 6.6-6.1 2-13.6 6-25.3 4.7-14 15.2-15.4 14.7-25.3-.4-5.7-4.2-11.8-8.4-12.3-5.8-.7-11.4 10-14.6 16.1z" class="shoe" id="XMLID_500_-15"/><path d="m252.7 884.3c-8.4 16.1-6.2 25.8-14.7 30.5-1.9 1.1-4.4 3-6.3 3.9-6.1 2.8-9.3 4-9.9 6.8-.4 1.8.5 3.5.8 4 1.2 2 4.3 4.3 8.5 5.4 6.1 1.6 7.7 2.5 14.8.6 2.9-.8 6.2-1.7 9.1-4.4 6.6-6.1 2-13.6 6-25.3 4.7-14 15.2-15.4 14.7-25.3-.4-5.7-4.2-11.8-8.4-12.3-5.8-.7-11.4 10-14.6 16.1z" class="shoe" id="XMLID_500_-1"/><path d="m265.9 927.8c-.1.4-1.2.9-1.2-.3-.2-2.4-.1-3.6-.1-4.4.0-1.8 1.2-11.3 1.1-17.5-.2-13.1-.7-15.2.5-18 1.7-4 5.1-7.6 6.3-7.1.5.3 2.4.2.3 8.1-2.4 8.8-2.8 10.8-3.7 16.8-1.6 10.1-1.8 15.2-2.1 18.1-.4 1.3-.5 2.2-1.1 4.3z" class="shoe_shadow" id="XMLID_499_"/><path d="m252.7 884.3c-8.4 16.1-6.2 25.8-14.7 30.5-1.9 1.1-4.4 3-6.3 3.9-6.1 2.8-9.3 4-9.9 6.8-.4 1.8.5 3.5.8 4 1.2 2 4.3 4.3 8.5 5.4 6.1 1.6 7.7 2.5 14.8.6 2.9-.8 6.2-1.7 9.1-4.4 6.6-6.1 2-13.6 6-25.3 4.7-14 15.2-15.4 14.7-25.3-.4-5.7-4.2-11.8-8.4-12.3-5.8-.7-11.4 10-14.6 16.1z" class="shoe" id="XMLID_500_"/><path d="m237.3 918.1c.2 2 3.9 4.4 6.5 3.8 4.1-.9 3.5-8.4 8.2-22.9 3.5-10.8 5.7-16.6 10.8-22.9 1.7-2.1 4-7.1 4-7.1s1.4-14.4-1.4-20c-.1-.2-9.5-3.1-9.7-3.1-.9-.3-2.8 18.7-3.6 20.2-9.6 17.6-9.6 20.8-9.6 20.8-2.1 5.8-2.5 7.3-2.7 8.4-.5 2.8-1.6 8.4-.7 14.3.2 1.5.6 3.5-.3 5.7-.7 1.3-1.6 1.7-1.5 2.8z" class="skin" id="XMLID_501_"/></svg>