<svg viewBox="0 0 560 1e3"><g data-transform="boob" class="scaler_" id="g4555" transform="matrix(1.1899396,0,0,1.1247504,-49.050018,-33.548868)"><path id="path4505" d="m300.40405 272.81951c-1.74158-.15651-3.82104-.50055-5.31684-2.09807-1.16008-1.23895-1.67365-2.89424-1.93955-4.82502-.28905-2.09879.65999-4.36461 2.34788-6.06793 1.24841-1.25981 2.26379-1.79189 4.73526-2.10149 1.56737-.19636 4.17393.92645 5.61994 2.89269 1.10309 1.49995 1.6064 3.39695 1.54746 5.19144-.0715 2.17612-.79953 3.86027-1.87211 5.03339-1.40849 1.54051-3.50853 2.11999-5.12204 1.97499z" class="areola"/><path id="path4503" class="areola" d="m224.77914 254.90979c.31704.023.41938.21924.39927.53505-.0657 1.03152-.0725 3.34975-.90192 5.05104-1.45144 3.80842-5.30595 5.32312-6.48917 5.82816-.0869.007-.1824-.0375-.24736-.14883-.17696-.30331-.24353-1.34689-.0995-2.6113.19999-1.75641.57209-3.94021.87971-5.19193.0141-.0572.01-.12924.0555-.16167.22955-.16348 1.45476-.82389 2.12229-1.26893.98015-.65346 2.01317-1.24596 2.79699-1.60448.7104-.32494 1.1534-.45111 1.48427-.42711z"/></g></svg>