<svg viewBox="0 0 560 1e3"><path id="path1879" class="shadow" d="m283.66521 456.38067c-1.54841.73859-1.78928 15.78672-9.24659 11.14886-5.5459 3.1603-10.12915-4.94173-10.42429-8.4126-.25114-2.95343 3.37748-7.20053 3.87403-6.51846 2.14579-.003 16.30971 2.85987 15.79685 3.7822z"/><path id="path1881" class="skin torso" d="m274.36595 467.58332c-3.81452 2.31718-9.64064-2.27902-10.8644-11.68664 5.95334-21.67633 25.49385-8.31185 20.23612.35499-2.87984 4.74713-3.52005 14.37508-9.37172 11.33165z"/><path style="display:inline;fill-opacity:1;fill:#000;stroke-dasharray:none;stroke-linecap:butt;stroke-linejoin:miter;stroke-miterlimit:4;stroke-opacity:1;stroke-width:0;stroke:#000" d="m349.70238 409.51538c-.0813-.25494-.70857-2.49571-.70857-2.49571-22.65767 4.89275-39.56413 7.60141-60.05248 8.19626-24.22046.7032-47.22387-2.18776-60.45696-7.53731-.0404-.0164-.80202 1.68077-2.10224 5.81027 30.89873 13.95984 100.6663 9.88312 123.32025-3.97351z" id="path1883"/><path id="path1885" d="m268.15022 466.84042c1.97544 1.15064 3.44304 1.50895 6.29117.74829 1.48394 1.11892 3.67809 1.01117 5.52348-.15189 18.69419-31.69091 44.8542-43.45488 76.35811-48.40572-3.14828-4.6033-5.95606-8.61745-6.25571-9.55721-.0813-.25494-1.22374-2.21355-1.22374-2.21355-45.10201 11.9464-93.79959 12.46804-120.26832.58222-.0636-.0285-2.86516 3.55419-5.78851 12.81957 13.67372 9.43951 30.44627 25.13128 45.36352 46.17829z" style="display:inline;fill-opacity:1;fill:#517cd3;stroke-dasharray:none;stroke-linecap:butt;stroke-linejoin:miter;stroke-miterlimit:4;stroke-opacity:1;stroke-width:0;stroke:#000"/><path id="path1887" d="m226.43714 411.39001c35.65478 14.81043 108.78953 7.12999 124.04699-1.19349-.98086-2.37283-1.00632-2.28871-1.45689-3.1686-58.31295 15.78964-105.07502 8.24648-121.04522.40529-.32556.70561-.67555 1.24868-1.54488 3.9568z" style="display:inline;fill-opacity:1;fill:#8aa7ff;stroke-dasharray:none;stroke-linecap:butt;stroke-linejoin:miter;stroke-miterlimit:4;stroke-opacity:1;stroke-width:0;stroke:#000"/><path id="path1889" d="m275.25299 462.86252c-12.30071-3.84341-9.97725-39.56452-8.12905-43.86741.10337-.24065 6.70466-.007 6.80117-.0386-.14286-.008-.28501-.0153-.42641-.0219-4.0967-.18979-7.561.22503-9.12434-.44654-1.55247 9.38892-6.14341 45.13839 10.87863 44.37445z" style="display:inline;fill-opacity:1;fill:#8aa7ff;stroke-dasharray:none;stroke-linecap:butt;stroke-linejoin:miter;stroke-miterlimit:4;stroke-opacity:1;stroke-width:0;stroke:#000"/><path id="path1891" d="m324.23328 427.46565c-3.54385-4.72455-4.58363-8.98886-4.9291-11.08235-1.02422-.29348-2.03709.77235-2.39603.55362-.0361.57214 1.60868 5.44622 5.93925 10.97322.79536-.22124.67963-.24922 1.38588-.44449z" style="display:inline;fill-opacity:1;fill:#8aa7ff;stroke-dasharray:none;stroke-linecap:butt;stroke-linejoin:miter;stroke-miterlimit:4;stroke-opacity:1;stroke-width:0;stroke:#000"/><path id="path1893" d="m233.05215 427.945c3.55397-4.71055 5.66482-10.40051 5.21735-13.11208-1.02422-.29348-.41393-.14186-.77287-.36059-.0557.88313-.96077 6.97597-5.44961 12.86117.31554.91926.31461.36013 1.00513.6115z" style="display:inline;fill-opacity:1;fill:#8aa7ff;stroke-dasharray:none;stroke-linecap:butt;stroke-linejoin:miter;stroke-miterlimit:4;stroke-opacity:1;stroke-width:0;stroke:#000"/><path d="m329.90785 425.6821c-15.4791 1.19068-42.03653 26.26041-44.60913 30.99635 10.29989-9.14088 29.75951-26.28541 44.60913-30.99635z" class="shadow" id="path1895"/><path d="m262.16576 457.53039c-6.81704-9.41592-28.83006-31.99347-34.93819-34.15183 5.05404 5.44075 26.5203 25.35081 34.93819 34.15183z" class="shadow" id="path1897"/><path id="path1899" class="shadow" d="m262.98857 459.03749c4.57815 9.39542 7.95428 8.94718 11.45233 8.01034.29456-.0789 5.02218 4.77996 9.26343-8.71666-1.38475 8.70911-4.94655 11.61521-9.3291 9.47151-.0226-.0111-2.82256 1.04466-4.71233.003-2.95847-1.63089-6.486-5.556-6.67433-8.7681z"/></svg>