<svg viewBox="0 0 560 1e3"><path d="m266.56266 487.41644c-1.02095.32423-2.19079.17635-2.92249.16431-1.17374-.0187-3.47875-1.81699-3.67721-2.36577.30298-2.36283 6.37063-5.59458 10.88669-2.56186-1.46852 3.35279-2.47463 3.76341-4.28699 4.76332z" id="path3732" style="fill:#000;stroke-width:2.09582233"/><path d="m260.79563 452.01085c3.47045-6.51771 15.87474-10.78623 17.05735 4.1693.39194.84172-.52879 4.62269-1.63556 9.37779-1.26752 4.64247-2.27249 9.92053-2.76554 15.17968-.60135 5.93814-1.87816 15.25966-9.7012 15.03492-4.84319-1.02845-7.2991-4.74035-9.30881-7.4832-.18496-.89265.19937-1.33818.11881-1.67649-1.01086-4.25623-.70003-10.63948.60408-17.75744 1.11844-6.10456 3.0308-12.26743 5.63072-16.84456z" id="path3734" style="fill:#000;stroke-width:2.62346387"/><path d="m271.56035 487.95909c-.0181.71712-.93401 3.23915-1.81105 4.4369-1.99718 2.35031-4.3836 3.39604-7.19063 2.47906-1.31243-.0238-5.51253-3.39012-7.52103-6.81442.85486-2.97706 12.78325 1.71388 16.52271-.10142z" id="path3736" class="areola"/><path class="skin penis" d="m261.64352 450.73802c3.10339-6.6625 14.19583-11.02589 15.25337 4.26192.35047.86045-.47287 4.72537-1.46257 9.58619-1.13346 4.74555-2.45573 10.05257-2.89669 15.42858-.0543 3.00651-.32294 4.96725-.58831 6.80902-1.94601 2.41979-12.56693-.95777-16.26259-.62664-.90398-4.35079-.24474-10.96417.92145-18.24028 1.00009-6.24016 2.71021-12.53994 5.03519-17.21879z" id="path3738"/></svg>