<svg viewBox="0 0 560 1e3"><path d="M248.73736 68.964871S250.43597 68.160184 252.81892 68.665659C255.20187 69.171134 276.57623 72.059561 282.64193 74.081461 288.70762 76.103359 289.79078 77.547573 289.79078 77.547573L263.21726 106.7929C259.37619 101.47402 258.28212 98.024552 255.58045 89.177874 253.73907 83.148281 254.02252 80.32849 252.76892 76.892105 252.0226 74.846295 251.37139 72.296931 248.73736 68.964871z" id="path2" class="eart"/><path d="M248.73736 68.964871S250.43597 68.160184 252.81892 68.665659C255.20187 69.171134 276.57623 72.059561 282.64193 74.081461 288.70762 76.103359 289.79078 77.547573 289.79078 77.547573L280.33636 87.952577C271.44237 83.952477 264.65017 79.141537 260.2792 75.53655 257.94063 73.607798 253.47381 70.749735 248.73736 68.964871z" id="path4" class="eart"/><path d="M251.82217 72.78348S256.4114 74.243934 259.08319 73.431563l19.57572 12.076963s-14.32239 6.372867-17.57187 14.965934C261.08704 100.47446 260.79819 98.669197 261.19534 96.936141L260.25662 100.07731S259.93167 97.910985 260.43714 96.25014c0 0-1.08316000000002-.758212-2.45515999999998 1.444213C257.98198 97.694353 258.30692 94.047714 259.82334 92.386867 257.98197 92.567395 255.38239 94.553189 255.38239 94.553189S255.23798 87.512647 260.1483 85.490747C256.03229 85.70738 253.21607 89.281809 253.21607 89.281809S252.85502 82.457899 256.97103 81.266423C253.97428 82.205161 252.67449 84.985273 252.67449 84.985273S252.13292 81.158107 253.61323 78.739049C252.92723 78.522417 251.88018 79.35284 251.88018 79.35284S252.67449 76.933781 255.20187 76.067254C252.61797 75.500635 251.82217 72.78348 251.82217 72.78348z" id="path6" style="fill-opacity:1;fill:#fefefe;stroke-width:1.09067"/></svg>