<svg viewBox="0 0 560 1e3"><path id="path4250" d="m368.45236 268.83602c.40069 1.40387-1.79629 14.64967-8.98535 39.52919-.18796-1.94654-109.04657-13.69639-120.45037-5.6747-2.78817-14.48696-2.95638-34.64087 2.8658-50.95192 44.8531 4.1271 28.54953 7.28465 122.30177 15.85266z" style="display:inline;fill-opacity:1;fill-rule:evenodd;fill:#000;opacity:1;stroke-dasharray:none;stroke-linecap:butt;stroke-linejoin:miter;stroke-miterlimit:4;stroke-opacity:1;stroke-width:0;stroke:#000"/><path id="path4252" d="m368.47602 268.56519c-.47811 3.70196-4.18838 19.77461-9.95729 38.26662-55.60436-8.85553-112.38111-9.96713-118.83869-4.87836-2.48748-13.61941-2.29276-29.37617.86407-42.67607.0444-1.41635 1.81751-7.01487 1.93206-7.54233 51.41817-9.07866 94.28234-2.02149 125.99985 16.83014z" style="display:inline;fill-opacity:1;fill-rule:evenodd;fill:#333;opacity:1;stroke-dasharray:none;stroke-linecap:butt;stroke-linejoin:miter;stroke-miterlimit:4;stroke-opacity:1;stroke-width:0;stroke:#000"/><path style="display:inline;fill-opacity:1;fill-rule:evenodd;fill:#000;opacity:1;stroke-dasharray:none;stroke-linecap:butt;stroke-linejoin:miter;stroke-miterlimit:4;stroke-opacity:1;stroke-width:0;stroke:#000" d="m348.03746 404.569c.8928 1.03783 2.36114 4.19485 2.36114 4.19485-8.19048 4.90102-37.06098 18.24769-49.49597 28.75086-4.31136 3.64157-13.47661 8.29154-16.37051 16.44054-2.5916 7.29773-3.32032 16.98798-9.68774 14.34823-.12708-.0527-.25389-.22936-.38798-.17253-3.64553 1.54503-9.41962-.71855-11.29492-12.24341-2.95293-18.14755-12.84146-17.24873-13.71165-17.80621-12.60056-8.07247-21.38891-19.81687-24.85363-25.1259.0593-.70684 4.38552-10.43066 4.38552-10.43066 30.95157 34.29024 95.73566 8.25021 119.05574 2.04423z" id="path3581-6-4-0-7"/><path style="display:inline;fill-opacity:1;fill-rule:evenodd;fill:#333;opacity:1;stroke-dasharray:none;stroke-linecap:butt;stroke-linejoin:miter;stroke-miterlimit:4;stroke-opacity:1;stroke-width:0;stroke:#000" d="m348.08876 404.41197c.8928 1.03783 6.59359 8.39004 6.59359 8.39004-8.19048 4.90102-41.66843 17.0525-54.10342 27.55567-4.31136 3.64157-11.26256 9.46273-16.37051 16.44054-.27428.37469-.68811.67278-.81935 1.10672-3.57923 11.83428-8.32513 9.8537-8.89431 9.63462-.17013-.0655-5.98956 2.88621-10.50307-7.67418-.19489-.456-.68412-.47689-1.06552-.9139-12.08963-13.85259-12.92985-17.4697-13.80004-18.02718-12.60056-8.07247-21.88891-21.94187-25.35363-27.2509.0593-.70684 5.26052-10.68066 5.26052-10.68066 29.78951 36.10978 96.86066 8.37521 119.05574 1.41923z" id="path3581-6-8-0"/></svg>