<svg viewBox="0 0 560 1e3"><path style="display:inline;fill:#000;opacity:1;stroke-width:.70232069" d="m271.65906 480.95593c.005.60942-1.01019 8.30171-7.58456 8.01179-3.21929-.14196-7.72343-6.82702-7.72844-7.43644-.47819-1.15114.29004-1.54358.52681-1.69889.61311-.40215 2.03394 1.4395 7.3511 1.54913 3.22133.0664 7.43007-1.03502 7.43509-.42561z" id="path8436"/><path style="display:inline;fill:#000;opacity:1;stroke-width:.66795462" d="m262.59614 483.36027c-.48992.17125-.84227-.0782-1.39369-.10023-1.55994-11.08675 4.50078-31.88379 6.2583-33.58545.3183.14585 1.51278-.11337 1.38266.312-.78542 2.5675-6.48972 18.09252-6.24727 33.37368z" id="path8438"/><path style="display:inline;fill:#000;opacity:1;stroke-width:.66165745" d="m269.58774 484.93526c-.50946.1616-.87586-.0738-1.44926-.0946.20659-9.12146 4.41251-29.33829 6.50782-31.69166.33097.13763.64864 1.26915.51334 1.67054-.81674 2.42273-4.73457 16.64857-5.5719 30.11568z" id="path8440"/><path style="display:inline;fill:#000;opacity:1;stroke-width:.661192" d="m257.28919 481.76759c-.50875.16159-.35242-.0738-.92503-.0946-.79458-9.24568 2.36101-26.68821 6.75977-30.98773.33052.13763.48899.61083.25152.96661-.81558 1.22192-6.99079 12.25938-6.08626 30.11569z" id="path8442"/><path style="fill:#bababa;stroke-width:.66251934" d="m271.70829 481.2845c.005.54885-.99813 7.47665-7.49405 7.21554-3.18088-.12785-7.63128-6.14852-7.63623-6.69737-.47249-1.03674.28658-1.39017.52053-1.53004.60578-.36219 2.00967 1.29642 7.26338 1.39516 3.18289.0598 7.34142-.93216 7.34637-.38331z" id="path8444"/><path style="display:inline;fill:#000;opacity:1;stroke-width:.66251934" d="m263.32663 488.33287c-.53383-.31246-1.10436-1.0541-.86754-1.74924.28698.40767.57691 1.25813 1.71537 1.92106-.46715.005-.79398-.1354-.84783-.17182z" id="path8446"/><path style="display:inline;fill:#000;opacity:1;stroke-width:.67293411" d="m256.21082 473.38451c-.0235.82874-.0229 1.86963-.0565 3.03048 4.10463 2.75827 13.61574 1.22904 15.88243.40327.0195-.28782.30984-3.2301.25219-3.2109-1.91566.6378-11.44602 1.7472-16.0782-.22285z" id="path8448"/><path style="display:inline;fill:#000;opacity:1;stroke-width:.67769438" d="m256.87079 467.24831c-.0754.61375-.22289 1.86897-.34539 3.00094 4.10463 2.79744 14.05283 1.33719 16.31952.49971.0195-.29192.55432-3.27597.49667-3.2565-1.91566.64687-11.83867 1.75387-16.47084-.24415z" id="path8450"/><path style="display:inline;fill:#000;opacity:1;stroke-width:.6711092" d="m258.33597 460.36412c-.0755.60086-.49612 1.80461-.61883 2.91281 4.6153 1.78433 14.11855 1.13332 16.72491.6148.0195-.28579.68328-3.21657.62344-3.21324-3.26221.18121-12.08956.78777-16.72956-.31437z" id="path8452"/><path style="display:inline;fill:#000;opacity:1;stroke-width:.66821164" d="m260.59329 454.10661c-.18042.45229-.79167 2.10147-.92999 2.59871 4.67196 1.54442 13.18086 1.08687 16.12084.5587.0196-.28174-.20003-3.02998-.25956-3.01919-2.28788.41421-10.19063.70467-14.93132-.13822z" id="path8454"/><path style="display:inline;fill:#000;opacity:1;stroke-width:.61013097" d="m260.70832 454.69408c.0147.44224.84028.30246.95965.28339 5.0949-9.40521 11.6958-2.46507 12.98002.16883.38986.2486.85646-.17066.8491-.22956-.80879-6.47797-11.02585-11.3046-14.78881-.22265z" id="path8456"/><path style="display:inline;fill:#bababa;opacity:1;stroke-width:.66251934" d="m262.75352 482.9161c-.48408.17051-.83222-.0779-1.37707-.0998-1.41858-9.84315 4.93804-31.78704 6.18363-33.4401.3145.14522 1.49473-.11289 1.36616.31065-.77605 2.55639-6.41229 18.01422-6.17272 33.22924z" id="path8458"/><path style="display:inline;fill:#bababa;opacity:1;stroke-width:.60516626" d="m256.44438 473.7998c-.0232.67831-.0226 1.53028-.0558 2.48043 4.05565 2.25764 13.45327 1.00596 15.69292.33008.0192-.23558.30614-2.64383.24918-2.62811-1.8928.52204-11.30945 1.43008-15.88635-.1824z" id="path8460"/><path style="display:inline;fill:#bababa;opacity:1;stroke-width:.60516626" d="m257.09647 467.74846c-.0745.49532-.22023 1.50833-.34126 2.42187 4.05565 2.25764 13.88515 1.07917 16.1248.40328.0192-.23558.5477-2.64383.49073-2.62811-1.89279.52204-11.6974 1.41544-16.2743-.19704z" id="path8462"/><path style="display:inline;fill:#bababa;opacity:1;stroke-width:.60516626" d="m258.57207 460.71914c-.0745.49532-.48938 1.48763-.61041 2.40117 4.55254 1.4709 13.92656.93424 16.49746.5068.0192-.23558.67399-2.65156.61496-2.64882-3.21784.14938-11.92514.6494-16.50204-.25915z" id="path8464"/><path style="display:inline;fill:#bababa;opacity:1;stroke-width:.60516626" d="m260.88361 454.3721c-.17698.37821-.77654 1.75721-.91222 2.173 4.58268 1.29141 12.92898.90882 15.81277.46717.0192-.23558-.1962-2.53361-.2546-2.52459-2.24415.34636-9.99588.58924-14.64599-.11558z" id="path8466"/><path style="display:inline;fill:#bababa;opacity:1;stroke-width:.59731036" d="m260.88822 454.3876c.0145.42896.83025.29337.94819.27488 5.03412-9.12296 11.55625-2.3911 12.82515.16376.38521.24115.84704-.16563.83897-.22266-.857-6.05637-10.48927-10.45413-14.61235-.21597z" id="path8468"/><path style="display:inline;fill:#bababa;opacity:1;stroke-width:.6449666" d="m269.8669 484.93526c-.48408.1616-.83223-.0738-1.37707-.0946.1963-9.12146 4.1927-29.33829 6.18363-31.69166.31449.13763.61634 1.26915.48777 1.67054-.77605 2.42273-4.49871 16.64857-5.29433 30.11568z" id="path8470"/><path style="display:inline;fill:#bababa;opacity:1;stroke-width:.6449666" d="m257.58974 481.76759c-.48407.16159-.33533-.0738-.88017-.0946-.75607-9.24568 2.24655-26.68821 6.43207-30.98773.31449.13763.46528.61083.23933.96661-.77605 1.22192-6.6519 12.25938-5.79123 30.11569z" id="path8472"/></svg>