<svg viewBox="0 0 560 1e3"><path d="M468.96875 236.49219S466.72914 237.47531 463.73437 238.9375C462.89795 239.3503 462.40491 239.62911 461.40625 240.16016 457.95626 241.9594 454.02172 244.23355 449.49414 247.55664 449.46715 247.57634 449.44301 247.58962 449.41602 247.60937 449.39484 247.62487 449.37275 247.64658 449.35156 247.66211 447.12161 249.30574 444.89222 251.11526 442.68359 253.13867 442.3216 253.46503 441.96844 253.74304 441.60937 254.08008 439.70898 255.89125 437.85556 257.8263 436.12305 259.92969A8 8 0 00436.05078 260.16602C431.07014 266.22794 427.03092 273.46996 425.85352 282.29102 423.27414 301.61556 427.09666 317.00357 433.74805 329.54883 440.39943 342.09409 449.47661 351.90064 457.43945 361.84766c15.9257 19.89402 28.73584 38.93478 16.75391 84.55664C468.0747 469.70144 457.61491 481.55184 445.40039 487.82812 433.18588 494.10441 418.33355 494.72094 403.54687 492.26367 373.97353 487.34913 346.39258 470.39062 346.39258 470.39062A8 8 0 00335.37109 472.94531 8 8 0 00337.92578 483.9668s29.2263 18.46751 63 24.08007C417.81263 510.85316 436.26779 510.50871 452.71289 502.05859 469.158 493.60847 482.70998 476.96912 489.66992 450.46875c13.07518-49.78444-2.94653-77.64521-19.73828-98.62109-8.39587-10.48795-16.64918-19.60863-22.04883-29.79297C442.48317 311.87035 439.5347 300.72706 441.71289 284.4082 442.64578 277.41903 447.1271 270.96598 452.73633 265.63672 453.14413 265.25709 453.57856 264.92125 453.99609 264.55469 455.04316 263.61643 456.12411 262.73773 457.2207 261.88086 462.80676 257.58451 468.55764 254.42198 471.92969 252.75391 473.15373 252.18562 474.91602 251.3457 474.91602 251.3457A8 8 0 00477.06445 250.06445 8 8 0 00478.71289 248.17969 8 8 0 00479.92383 243.38672 8 8 0 00479.36914 240.94531 8 8 0 00475.0918 236.56445 8 8 0 00468.96875 236.49219z" id="path2504-9" class="tail"/></svg>