<svg viewBox="0 0 560 1e3"><path style="display:inline;fill-opacity:1;fill:#c8c8c8" d="m314.59488 194.60935c.29213-.0359 2.8391 8.07872 14.85382 11.32872-25.34363 22.57098-61.00307 5.86447-49.27442-1.14005 4.6613-2.7838 10.91811-6.2018 12.38365-10.62888 1.42462 1.28163 14.99436 1.30543 22.03695.44021z" id="path4060"/><path style="display:inline;fill:#d4aa00;stroke-width:.99172777" d="m365.38214 283.48249s-.60383 3.11335-.8921 3.32459c-78.39856 12.3138-125.86985.82096-125.73807-1.30425l.21664-3.49411c1.40114 1.28163 40.27892 13.06738 126.41349 1.47377z" id="path4065"/><path id="path3864-8-2-6-5" d="m298.24315 487.38778c-16.32907 4.7124-45.44945 1.30232-45.85658-.78649-.81319-4.17215-.85616-153.3644 7.7844-199.01481 17.03396-3.59867 36.57643-3.23747 50.0798.50778-2.53353 4.26374-3.45907 11.36947-5.26534 17.82896-15.44721 55.24147-6.29821 179.57865-6.74228 181.46456z" style="display:inline;fill-opacity:1;fill:#000;stroke-width:.99172777"/><path style="display:inline;fill-opacity:1;fill:#c8c8c8;stroke-width:.99172777" d="m297.2005 485.84787c-16.32906 4.7124-45.44945 1.30232-45.85658-.78649-.81318-4.17215-.85615-153.36441 7.78441-199.01482 17.03396-3.59867 37.79348-1.64648 51.29685 2.09877-24.20039 40.7272-12.72868 195.59611-13.22468 197.70254z" id="path4067"/></svg>