<svg viewBox="0 0 560 1e3"><path id="path2316-9-7-3-04-7-7-0" d="m293.83007 219.59713s-10.96913-8.46365-12.71179-15.33852c-.12533-.49445 1.1153-.81274 1.36032-.83722 1.87606 5.84839 12.7198 15.45568 13.18311 15.5587.45102.10029 23.51884-8.96593 28.02136-15.02582.0933.48674 1.42209.51908 1.2554.97356-2.43634 6.64259-28.06395 15.09834-28.09198 15.11538-.0224.0173-1.51243.49646-1.73051.48664-.12409-.0369-1.22038-.88629-1.28591-.93272z" style="display:inline;fill-opacity:1;fill-rule:nonzero;fill:#7d0000;opacity:1;stroke-dasharray:none;stroke-linecap:butt;stroke-linejoin:miter;stroke-miterlimit:4;stroke-opacity:1;stroke-width:0;stroke:#000"/><path id="path2316-4-7-9" d="m298.11288 438.67647c-.9189.91706-1.47681 2.07297-2.19112 3.04135-5.44325 7.37942-12.7957 15.81041-13.00807 16.4538-3.5825-2.3145-16.67981-13.10929-18.83826.27544-1.73072.2056-8.37033-10.41522-16.59753-21.56225 3.98037 1.53438 7.93097 2.82301 19.41937 1.75411 7.12074 2.42851 17.04659 3.83406 31.21561.0376z" style="display:inline;fill-opacity:1;fill-rule:evenodd;fill:#7d0000;opacity:1;stroke-dasharray:none;stroke-linecap:butt;stroke-linejoin:miter;stroke-miterlimit:4;stroke-opacity:1;stroke-width:0;stroke:#000"/></svg>