<svg viewBox="0 0 560 1e3"><path d="m332.2168 93.527344c-.12508-.0058-.25394.0017-.38672.02344-.1742.07843-.34239.215173-.50196.398438-.32541.375733-.61262.969414-.86328 1.683593-.91626-1.281228-2.14864-2.023146-3.71484-1.826171-.28351.09817-.55477.268688-.81445.498047v.002c-1.98881 1.765855-3.20211 7.097559-2.93946 11.597659-5.62681-3.77361-12.57441-3.57115-19.67382 1.69726-11.51103 1.77529-22.22586 20.84306-18.66407 32.80469-1.43674 4.13033-2.41394 8.94124-2.81054 14.33398-.20735-.16183-.43642-.30049-.68946-.41406-.17507-.0445-.35263-.0505-.53125-.0234-2.56273.39553-5.24216 7.74429-1.50586 9.53516-.32582 1.20145-.39618 2.4705-.0703 3.52149-.19823.33326-.37367.6996-.53125 1.08007-.22819-1.33296-.71593-2.517-1.53711-3.27539.25131-1.89109.11231-3.9314-.56054-5.45703-.0126-.45746-.0587-.9118-.15626-1.34375 1.48447-2.18206 1.7869-6.52472-.5332-8.21094.38856-2.30098-.1326-4.899-2.16797-5.8125-.17506-.0445-.35262-.0505-.53125-.0234-2.56274.39554-5.24214 7.74429-1.50586 9.53515-.32581 1.20146-.39628 2.47051-.0703 3.52149-.92618 1.55715-1.47017 3.75016-1.04492 5.45898-.88425 1.49635-1.41274 3.56852-1.07617 5.24024-1.10623 1.85031-1.68756 4.6259-.7168 6.38867-.96055 1.8897-1.35602 4.46249-.33984 6.07226-.98611 1.8394-1.45772 4.40182-.54102 6.06641-.93424 1.8005-1.36381 4.24832-.52344 5.88477-.95445 1.96487-1.29284 4.60046-.11718 6.15039-1.2359 1.96031-1.86076 5.07053-.58594 6.84375-1.1169 2.57809-1.1977 6.07849 1.66406 6.9082.15514.0574.30529.0861.45508.10351-.66772 2.1335-.88815 4.67993-.16602 6.4668-.95445 2.49679-1.29284 5.843-.11718 7.8125-1.2359 2.49098-1.86076 6.44403-.58594 8.69727-1.1169 3.276-1.1977 7.72303 1.66406 8.77734 2.82241 1.32585 4.83764-6.08145 3.23242-10.19726.70984-2.2546.8295-5.26837-.0352-7.38086.81376-1.53812 1.2622-3.8952 1.11328-6.06446.3561.82397 1.00037 1.47065 2.03125 1.76953.12995.048.25656.0661.38281.0859.0717.61668.20971 1.19689.43164 1.70899-.93425 2.28789-1.36381 5.39906-.52344 7.47851-.95445 2.49677-1.29283 5.84494-.11718 7.81445-1.2359 2.49097-1.86076 6.44401-.58594 8.69727-1.11691 3.27598-1.19966 7.72302 1.66211 8.77734 2.82242 1.32585 4.83764-6.08337 3.23242-10.19921.70983-2.25458.83145-5.26643-.0332-7.37891 1.07079-2.02393 1.5149-5.46847.78906-8.0332.81289-2.09411 1.06704-5.08678.38476-7.35157.3794-.89564.64384-1.98491.77735-3.11914.11114.48268.28131.93539.55664 1.31836-1.11691 2.5781-1.19771 6.07851 1.66406 6.9082.12132.0448.23931.0599.35742.0801-.0922 1.2861.0237 2.53596.45508 3.53125-.93425 2.2879-1.36185 5.39906-.52148 7.47852-.95445 2.49679-1.29479 5.84298-.11914 7.8125-1.2359 2.49097-1.86076 6.44403-.58594 8.69726-1.11691 3.27601-1.19771 7.72305 1.66406 8.77735 2.8224 1.32586 4.83764-6.08142 3.23242-10.19727.70983-2.25456.83144-5.26837-.0332-7.38086 1.07078-2.02393 1.51295-5.46847.78711-8.0332.81289-2.0941 1.06705-5.08677.38477-7.35156.20263-.47835.36888-1.01659.50585-1.58203.30512 1.02331.98453 1.84515 2.18555 2.19336.1638.0606.32266.0933.48047.10937-.25969 1.64433-.21745 3.32199.33203 4.58984-.93426 2.28788-1.36382 5.39906-.52344 7.47852-.95446 2.49678-1.29284 5.84297-.11718 7.8125-1.2359 2.49097-1.86075 6.44403-.58594 8.69727-1.11689 3.276-1.19772 7.72303 1.66406 8.77734 2.8224 1.32584 4.83763-6.08143 3.23242-10.19727.70984-2.25456.82949-5.26838-.0351-7.38086 1.07078-2.02395 1.51489-5.46847.78906-8.0332.81288-2.09412 1.06706-5.08482.38477-7.34961.92096-2.17409 1.2161-5.47483.40429-7.84961.90942-2.09927 1.22626-5.27955.50782-7.65625.68671-1.667 1.01936-3.96542.77343-6.01172.2011-.37247.37503-.80226.5293-1.25976 2.55704.63874 5.22819.62609 7.89453-.1211-.02 1.01781.18941 1.98147.73828 2.70508-1.2359 1.96031-1.8588 5.07053-.58398 6.84375-1.1169 2.57809-1.19966 6.07851 1.66211 6.90821.13998.0517.27644.0747.41211.0937-.17361 1.47664-.0904 2.94305.40234 4.08007-.93425 2.2879-1.36382 5.39906-.52344 7.47852-.95446 2.49677-1.29479 5.84495-.11914 7.81445-1.2359 2.49098-1.8588 6.44403-.58398 8.69727-1.1169 3.276-1.19966 7.72303 1.66211 8.77734 2.8224 1.32584 4.83764-6.08339 3.23242-10.19922.70983-2.25457.83144-5.2664-.0332-7.3789 1.07078-2.02391 1.51293-5.46848.78711-8.03321.81288-2.0941 1.06704-5.08677.38476-7.35156.92095-2.17411 1.21805-5.47287.40625-7.84765.69475-1.60375 1.03847-3.83764.84375-5.86329.16054.0747.33308.13987.51758.19336.14251.0527.28189.0749.41992.0937.0777.53591.19677 1.04819.39258 1.5-.93426 2.28788-1.36186 5.39906-.52149 7.47852-.95445 2.49677-1.2948 5.84299-.11914 7.8125-1.2359 2.49098-1.86074 6.44402-.58593 8.69726-1.1169 3.27598-1.19771 7.72305 1.66406 8.77735 2.8224 1.32585 4.83764-6.08338 3.23242-10.19922.70984-2.25457.83145-5.26641-.0332-7.37891 1.07079-2.02393 1.51294-5.46847.78711-8.0332.81288-2.0941 1.06705-5.08676.38476-7.35156.92096-2.1741 1.21806-5.47288.40625-7.84766.90941-2.09926 1.22431-5.28149.50586-7.6582.11915-.28922.21193-.61685.3086-.93946.27372.18601.59095.33528.95703.44141.0365.0135.0712.0142.10742.0254-.36357 1.78673-.38855 3.67804.18359 5.09375-.95447 2.49677-1.2948 5.843-.11914 7.8125-1.2359 2.49098-1.85879 6.44403-.58398 8.69727-1.11689 3.276-1.19966 7.72302 1.66211 8.77734 2.82241 1.32584 4.83764-6.08142 3.23242-10.19726.70984-2.25457.83145-5.26838-.0332-7.38086 1.07079-2.02395 1.51294-5.46848.78711-8.03321.81288-2.0941 1.06705-5.08676.38476-7.35156.92096-2.17411 1.21806-5.47288.40625-7.84766.90942-2.09927 1.2243-5.27953.50586-7.65625.34336-.8335.59801-1.82649.73633-2.86523.14085.0618.2867.11808.44531.16406.0385.0142.0751.0137.11328.0254-.80794 2.42532-1.03529 5.44936.0606 7.28516-1.2359 2.49098-1.86076 6.44402-.58594 8.69726-1.11691 3.27601-1.19966 7.72303 1.66211 8.77735 1.98038.9303 3.55967-2.43975 3.77344-5.95508.19666.31521.41592.57198.66797.73828-.1476 3.59427.45384 7.30183 2.07226 7.9043.19682 4.15487 1.63459 7.63206 4.89258 7.05469.17623 3.5699 1.77009 7.05321 3.7793 6.10937 2.86177-1.05432 2.77902-5.5033 1.66211-8.7793 1.27482-2.25324.65191-6.20433-.58399-8.69531 1.17565-1.9695.83531-5.31768-.11914-7.81445.84037-2.07946.41081-5.19061-.52344-7.47852.91671-2.11521.44705-5.37164-.53906-7.70898 1.01618-2.04553.61876-5.31359-.3418-7.71485.97078-2.23996.38945-5.76794-.71679-8.11914.33656-2.12427-.18997-4.75872-1.07422-6.66015.42526-2.17141-.12069-4.95687-1.04688-6.93555-.99301-3.69909-3.76806-6.06493-4.73242-3.79883.034-.4938.0447-.99629.043-1.5.0219-.70121-.006-1.40247-.10351-2.07226.96407-1.80985 1.41805-4.76874.98242-7.21875 1.48446-2.77274 1.78494-8.29287-.53516-10.43555.0682-.51334.0985-1.03756.10742-1.56055.65169-2.2439.41913-5.08774-1.35742-6.3789.38284-2.26717-.11841-4.81913-2.08008-5.76758.17544-2.4041-.0725-5.04119-.76367-6.90234.83461-4.31339.025-10.75026-2.55859-11.27344-.20222-3.370081-1.21172-6.465286-3.08789-6.552736zm-56.70703 96.175776c.0927.28892.20612.56745.36328.81641-.11259.21001-.2166.42979-.31446.65625 78e-5-.47653-.0208-.95106-.0762-1.41211.0101-.0187.0174-.0416.0274-.0605zm-.61524 5.50782c.0703.4963.21109.96387.4375 1.375-.11678.22506-.22471.46067-.32422.70312-.0645-.52488-.15507-1.03811-.29883-1.51367.0716-.17378.12191-.37795.18555-.56445zm9.33203 1.47265c.0765.1882.159.37211.26563.54102-.0972.18137-.18511.37447-.27149.56836.0176-.37121.0203-.74087.006-1.10938zm-.74023 4.8418c.0431.6418.1801 1.25053.46484 1.76758-.93425 1.8005-1.36185 4.2483-.52148 5.88476-.3357.69109-.59002 1.46574-.73438 2.2461.002-1.03345-.1192-2.05463-.39258-2.95899.68673-1.66701 1.01939-3.96542.77344-6.01172.15139-.2804.28483-.59707.41016-.92773zm-8.83008.55859c.0488.13039.0897.26476.15234.38672-.20252.41693-.36927.86769-.50781 1.32813-.0346-.12082-.0597-.24863-.0996-.36524.17782-.41046.32597-.87049.45508-1.34961zm-.10547 6.29883c.0487.0775.0854.16347.14063.23633-.0926.14688-.17458.31196-.25977.4707.0444-.23349.0869-.46699.11914-.70703zm8.02734 4.72657c.0496.83482.27173 1.60942.73243 2.21679-.49809.79003-.88647 1.76867-1.10157 2.76953-.0707-.69519-.20611-1.36433-.41406-1.97265.37435-.86415.64083-1.91438.7832-3.01367zm9.1504.0625c.005.009.007.02.0117.0293-.006.0124-.01.0266-.0156.0391.002-.0229.002-.0455.004-.0684zm-.47657 5.55078c.10138.22419.22414.43516.3711.6289-.10979.17414-.20742.3661-.30664.55664-48e-5-.40021-.0248-.79551-.0645-1.18554zm-.83398 5.91992c55e-5.003-56e-5.007.0.01-85e-5-.002-.001-.005-.002-.008l.002-.002zm.006.0312c.10267.56297.29874 1.08397.61328 1.52148-.077.17775-.13463.3674-.20117.55274-.0656-.73082-.19681-1.43563-.41211-2.07422zm65.07812 17.13086c-.0887.004-.17614.0168-.26367.0391-2.03537.9135-2.55457 3.51152-2.16601 5.8125-2.3201 1.68622-2.01962 6.03083-.53516 8.21289-.43563 1.92807.0183 4.25541.98242 5.67969-.34913 1.89067.11548 4.10343 1.05078 5.46679-.24594 1.61038.0867 3.42056.77344 4.73243-.71846 1.87039-.40161 4.37334.50781 6.02539-.81181 1.86887-.51666 4.46485.4043 6.17578-.68228 1.78232-.42812 4.13717.38476 5.78516-.72584 2.01834-.28173 4.72949.78907 6.32226-.86465 1.66245-.74305 4.03431-.0332 5.80859-1.60522 3.239.41002 9.06878 3.23243 8.02539 2.86176-.8297 2.77901-4.33011 1.66211-6.9082 1.27482-1.77322.64996-4.88344-.58594-6.84375 1.17566-1.54993.83726-4.18356-.11719-6.14844.84037-1.63645.4108-4.08621-.52344-5.88671.9167-1.66459.4451-4.22701-.54101-6.06641 1.01618-1.60977.6207-4.18257-.33985-6.07227.97076-1.76277.38944-4.53836-.71679-6.38867.33657-1.67172-.18997-3.74388-1.07422-5.24023.42525-1.70882-.1207-3.90184-1.04688-5.45899.32597-1.05098.2555-2.32002-.0703-3.52148 3.73628-1.79086 1.05688-9.13962-1.50586-9.53516-.0893-.0136-.17886-.0192-.26758-.0156zm-8.84375 26.11719c-.0887.005-.17613.0205-.26367.0488-2.03536 1.1608-2.55456 4.46282-2.16601 7.38672-2.32011 2.14267-2.01962 7.66084-.53516 10.4336-.43563 2.45.0183 5.40891.98242 7.21875-.34913 2.40249.11546 5.21484 1.05078 6.94726-.24595 2.0463.0887 4.34471.77539 6.01172-.71845 2.3767-.40355 5.55893.50586 7.6582-.8118 2.37478-.51666 5.67356.4043 7.84766-.68228 2.26479-.42617 5.25745.38672 7.35156-.72584 2.56473-.28368 6.00927.78711 8.03321-.86465 2.11248-.74304 5.12433-.0332 7.3789-1.60522 4.11585.41001 11.52507 3.23243 10.19922 2.86177-1.05432 2.77902-5.50136 1.66211-8.77734 1.27482-2.25326.64996-6.2063-.58594-8.69727 1.17565-1.96951.83726-5.31573-.11719-7.8125.84037-2.07945.41081-5.19062-.52344-7.47851.91671-2.11522.44511-5.3736-.54101-7.71094 1.01619-2.04553.6207-5.31357-.33985-7.71485.97077-2.23996.38943-5.76795-.71679-8.11914.33656-2.12428-.18997-4.75676-1.07422-6.6582.42526-2.17141-.12069-4.95685-1.04688-6.93555.32587-1.33548.25551-2.94987-.0703-4.47656 3.7363-2.27567 1.05687-11.61263-1.50586-12.11523-.0893-.0172-.17886-.0241-.26758-.0195zm-8.61914 8.52343c-.0887.005-.17809.0206-.26562.0488-2.03536 1.16081-2.55457 4.4609-2.16602 7.38477-2.3201 2.14269-2.01766 7.66278-.5332 10.43554-.43563 2.45001.0164 5.40892.98047 7.21875-.34913 2.40248.11742 5.21485 1.05273 6.94727-.24595 2.04631.0867 4.34472.77344 6.01172-.71846 2.37671-.40355 5.55698.50586 7.65625-.8118 2.37477-.51471 5.67552.40625 7.84961-.68228 2.26479-.42813 5.25551.38476 7.34961-.72584 2.56473-.28171 6.00927.78907 8.0332-.86464 2.11249-.74499 5.1263-.0352 7.38086-1.60522 4.11585.41002 11.52508 3.23242 10.19922 2.86177-1.0543 2.78098-5.50329 1.66406-8.7793 1.27482-2.25323.64997-6.20434-.58593-8.69531 1.17565-1.96952.83726-5.31767-.11719-7.81445.84037-2.07947.41081-5.19062-.52344-7.47852.91671-2.11521.4451-5.37163-.54101-7.70898 1.01618-2.04555.6207-5.3136-.33985-7.71485.97078-2.23997.38945-5.76795-.71679-8.11914.33656-2.12427-.19193-4.75874-1.07618-6.66016.42526-2.17141-.12068-4.95686-1.04687-6.93554.32586-1.33549.2555-2.94791-.0703-4.47461 3.73629-2.27566 1.05882-11.61263-1.50391-12.11524v-.002c-.0893-.0172-.17886-.0222-.26758-.0176zm-8.3125 5.11328c-.0887.005-.17614.0205-.26367.0488-2.03536 1.1608-2.55457 4.46088-2.16601 7.38477-2.32012 2.14268-2.01961 7.66278-.53516 10.43554-.43562 2.45001.0183 5.40891.98242 7.21875-.34915 2.40249.11547 5.21485 1.05078 6.94727-.24593 2.0463.0867 4.34472.77344 6.01172-.71844 2.3767-.40161 5.55698.50781 7.65625-.81181 2.37478-.51666 5.67552.4043 7.84961-.68229 2.26479-.42812 5.25744.38476 7.35156-.72583 2.56473-.28171 6.0073.78907 8.03125-.86464 2.11248-.74305 5.1263-.0332 7.38086-1.60521 4.11584.41003 11.52506 3.23243 10.19922 2.86178-1.05431 2.779-5.5033 1.6621-8.7793 1.27481-2.25324.64997-6.20434-.58593-8.69531 1.17566-1.96953.83727-5.31767-.11719-7.81445.84038-2.07946.41082-5.19064-.52344-7.47852.91672-2.11521.44511-5.37162-.54101-7.70898 1.01619-2.04553.6207-5.3136-.33985-7.71485.97076-2.23996.38944-5.76797-.71679-8.11914.33655-2.12428-.18996-4.75679-1.07422-6.6582.42526-2.17141-.1207-4.95882-1.04688-6.9375.32587-1.33548.2555-2.9479-.0703-4.47461 3.73628-2.27565 1.05688-11.61262-1.50586-12.11524-.0893-.0172-.17885-.0241-.26758-.0195z" id="path6899" class="hair"/></svg>