<svg viewBox="0 0 560 1e3"><path id="path3543-0" d="m364.43839 291.26562c-1.05178 4.25741-2.34896 9.1798-3.93737 14.81926-2.33518 8.29077-6.31171 13.44418-8.52675 19.0776-.33442.8505-4.83547 13.68284-5.34328 15.45275-4.07216 29.7747.63881 60.96426.67649 62.74122-63.77674 29.35319-104.13335 18.82119-118.34838.65563 4.91551-22.9529 14.3985-82.50992 12.5948-90.43788-1.36607-4.81345-3.40634-13.01601-4.53838-23.44906 36.55599 5.5266 105.65612 4.43761 127.42287 1.14048z" style="display:inline;fill-opacity:1;fill-rule:evenodd;fill:#000;opacity:1;stroke-dasharray:none;stroke-linecap:butt;stroke-linejoin:miter;stroke-miterlimit:4;stroke-opacity:1;stroke-width:0;stroke:#000"/><path id="path3545-9" d="m363.35161 292.43161c-1.21379 4.85537-2.63109 10.02205-4.24709 15.09842-1.739 5.46275-5.90058 11.23257-8.68523 16.91704-1.43061 2.9204-4.86935 12.53755-5.32051 14.86148-.59504 3.06514-2.30901 18.50625-1.77547 28.90032.13152 2.562-.47121 20.2423 1.30629 25.48264.35315 1.07888 2.19422 3.6374 2.51896 4.65603 1.12753 3.53676.55813 5.09263 1.11365 6.8505-57.84776 18.23932-76.17133 14.78267-76.51147 14.78064-.27158-.0147-28.33572.16877-42.89271-15.77449 8.27031-24.13563 11.93865-62.91657 14.94092-87.03021-.30148-3.80824-4.82961-14.60553-5.71864-27.14289 28.4163 6.8773 85.36309 6.98579 125.2713 2.40052z" style="display:inline;fill-opacity:1;fill-rule:evenodd;fill:#1a1a1a;opacity:1;stroke-dasharray:none;stroke-linecap:butt;stroke-linejoin:miter;stroke-miterlimit:4;stroke-opacity:1;stroke-width:0;stroke:#000"/><path id="path3547-7" d="m271.82541 419.82176c-2.94829-1.34763 3.10143-84.27598 9.71742-124.79439.05-.3064.10009-.61038.15018-.91187 1.94839.48099-.54632.49909 2.35466.12164-.0627.37838-.12515.75686-.18726 1.13543-10.00035 60.95937-11.89314 124.25529-12.035 124.44919z" style="display:inline;fill-opacity:1;fill:#000"/><path id="path3465-5-1-6" d="m277.18902 406.9809c0 .86028-3.76472 3.3125-6.25 3.3125l.28125-6.65625c2.48528.0 5.96875 2.60847 5.96875 3.34375z" style="display:inline;fill:#000;opacity:1"/><path id="path3569-8" d="m277.18902 406.27379c0 .86028-3.76472 3.3125-6.25 3.3125l.28125-6.65625c2.48528.0 5.96875 2.60847 5.96875 3.34375z" style="display:inline;fill:#787878"/><path id="path3467-3-6-0" d="m277.83161 391.33811c0 .86028-3.76472 3.3125-6.25 3.3125l.28125-6.65625c2.48528.0 5.96875 2.60847 5.96875 3.34375z" style="display:inline;fill:#000;opacity:1"/><path id="path3571-4" d="m277.83161 390.631c0 .86028-3.76472 3.3125-6.25 3.3125l.28125-6.65625c2.48528.0 5.96875 2.60847 5.96875 3.34375z" style="display:inline;fill:#787878"/><path id="path3472-8-9-2" d="m279.05036 376.33811c0 .86028-4.04597 3-6.53125 3l.46875-6.65625c2.48528.0 6.0625 2.92097 6.0625 3.65625z" style="display:inline;fill:#000;opacity:1"/><path id="path3573-6" d="m279.05036 375.631c0 .86028-4.04597 3-6.53125 3l.46875-6.65625c2.48528.0 6.0625 2.92097 6.0625 3.65625z" style="display:inline;fill:#787878"/><path id="path3474-3-6-5" d="m280.11286 363.15061c0 .86028-4.20222 2.6875-6.6875 2.6875l.59375-6.65625c2.48528.0 6.09375 3.23347 6.09375 3.96875z" style="display:inline;fill:#000;opacity:1"/><path id="path3575-6" d="m280.11286 362.4435c0 .86028-4.20222 2.6875-6.6875 2.6875l.59375-6.65625c2.48528.0 6.09375 3.23347 6.09375 3.96875z" style="display:inline;fill:#787878"/><path id="path3477-5-0-4" d="m281.17536 348.46311c0 .86028-3.95222 2.875-6.4375 2.875l.625-6.59375c2.48528.0 5.8125 2.98347 5.8125 3.71875z" style="display:inline;fill:#000;opacity:1"/><path id="path3577-1" d="m281.17536 347.756c0 .86028-3.95222 2.875-6.4375 2.875l.625-6.59375c2.48528.0 5.8125 2.98347 5.8125 3.71875z" style="display:inline;fill:#787878"/><path id="path3479-2-7-8" d="m282.92536 332.73271c0 .86028-4.13972 2.65625-6.625 2.65625l.6875-6.59375c2.48528.0 5.9375 3.20222 5.9375 3.9375z" style="display:inline;fill:#000;opacity:1"/><path id="path3583-1" d="m282.92536 332.09975c0 .86028-4.13972 2.65625-6.625 2.65625l.6875-6.59375c2.48528.0 5.9375 3.20222 5.9375 3.9375z" style="display:inline;fill:#787878"/><path id="path3481-2-1-3" d="m284.64595 318.22167c0 .86028-4.29597 2.28125-6.78125 2.28125l.8125-6.5c2.48528.0 5.96875 3.48347 5.96875 4.21875z" style="display:inline;fill:#000;opacity:1"/><path id="path3585-6" d="m284.64595 317.51456c0 .86028-4.29597 2.28125-6.78125 2.28125l.8125-6.5c2.48528.0 5.96875 3.48347 5.96875 4.21875z" style="display:inline;fill:#787878"/><path id="path3483-4-9-4" d="m286.26115 302.19562c0 .86028-3.98347 3-6.46875 3l.9375-6.3125c2.48528.0 5.53125 2.57722 5.53125 3.3125z" style="display:inline;fill:#000;opacity:1"/><path id="path3587-8" d="m286.26115 301.48851c0 .86028-3.98347 3-6.46875 3l.9375-6.3125c2.48528.0 5.53125 2.57722 5.53125 3.3125z" style="display:inline;fill:#787878"/></svg>