<svg viewBox="0 0 560 1e3"><path id="path4708" style="fill:green;opacity:.23999999" d="m278.5625 173.35028c2.6 3.9 7.0375-1.35 13.4375 2.85.42842.27463.83422.56133 1.21943.85794 6.62801 5.10358 2.3371 30.65052 4.46756 34.97398 4.61682 9.36917 12.16206 5.0988 12.52012-1.86967.71075-1.21618-.18163-25.23516-.44423-27.25859-2.48432-19.14301-23.34757-29.98506-31.26288-26.95366-4.4 1.7-2.6375 13.2.0625 17.4z"/><path id="path4710" d="m270.83406 168.02069-3.48388-7.12041c19.27977 1.64821 36.75756.39194 56.51238-.17678-1.57847 3.06547-3.22426 5.86169-5.03743 7.98839-18.27129.42342-32.29473 1.46033-47.99107-.6912z" style="fill:#070505"/><path id="path4712" d="m290.39999 164.90029c0 4.80488-3.34014 9.8875-7.5375 9.8875-.14922.0-2.39119-.0362-2.53828-.0458-3.99047-.26347-5.12422-5.20756-5.12422-9.84162.0-4.68504.82878-9.28639 4.88123-9.47403.10365-.005 2.30159.0242 2.40627.0242 4.19736.0 7.9125 4.64512 7.9125 9.45z" style="fill:#0f0"/><path id="path4714" d="m288.03751 164.89387c0 4.80488-3.52764 9.8875-7.725 9.8875-.14922.0-.29744-.005-.44453-.0146-3.99047-.26347-7.03047-5.23881-7.03047-9.87287.0-4.68504 3.11003-9.25514 7.16248-9.44278.10365-.005.20784-.007.31252-.007 4.19736.0 7.725 4.64512 7.725 9.45z" style="display:inline;fill:green"/></svg>