<svg viewBox="0 0 560 1e3"><path style="display:inline;fill-opacity:.00392157;fill-rule:evenodd;fill:#000;opacity:1;stroke-dasharray:none;stroke-linecap:butt;stroke-linejoin:miter;stroke-miterlimit:4;stroke-opacity:1;stroke-width:0;stroke:#000" d="m347.82542 405.47846c32.97194 41.12226 14.0327 81.88857 9.19677 98.32357-2.01061 6.83307 4.74255 12.01889-82.59133 8.00899-17.30311-1.81576-59.24343-1.2282-59.21094-1.53911 3.78245-36.19606 8.45036-78.58082 11.41502-98.65845 36.34163 12.28427 54.05413 11.58297 121.19048-6.135z" id="path3202-9-3-8-4"/><path style="display:inline;fill-opacity:.39215686;fill-rule:evenodd;fill:#f59;opacity:1;stroke-dasharray:none;stroke-linecap:butt;stroke-linejoin:miter;stroke-miterlimit:4;stroke-opacity:1;stroke-width:0;stroke:#000" d="m349.03754 406.58021c22.39705 27.56646 23.46636 67.24871 16.85871 85.30034.002 2.71328.26708 6.20438.66474 12.05649.23441 3.44975 1.34341 6.02352-4.03841 7.05809-7.69466 1.47918-36.91447 1.37345-87.66839-1.93167-17.22485-1.7838-68.25001 1.89933-68.27203 1.59296-2.57347-35.80905 10.7191-80.77129 19.13869-98.06597 36.42612 14.76968 76.93272 8.18054 123.31669-6.01024z" id="path3204-7-1-0-3"/></svg>