<svg viewBox="0 0 560 1e3"><path style="display:inline;fill-opacity:1;fill-rule:evenodd;fill:#000;opacity:1;stroke-dasharray:none;stroke-linecap:butt;stroke-linejoin:miter;stroke-miterlimit:4;stroke-opacity:1;stroke-width:0;stroke:#000" d="m370.45236 269.14852c4.967 31.75261-3.66811 69.29459-6.09269 79.62236.0.0 19.75609 47.27632-.008 68.39299.0.0-66.99062-2.0932-78.49984 26.24417-2.06147 4.01155-2.1084 11.81811-3.46792 16.10443-.27859.87834-1.00697 6.35332-3.50565 8.26757-.26944.20641-1.13656 1.14752-4.58251.28177-.17413-.0437-1.37345.71664-3.61847.0361-5.83439-1.76869-6.66978-8.86034-6.76649-9.28816-1.98539-8.78313-6.24957-28.02971-9.43291-34.24779-14.19124-27.72004-28.45317-6.72307-29.76101-9.0594-12.97467-22.11751-9.36815-48.00069 9.14689-96.54886-2.43187-22.91224-1.70668-35.095.99036-54.19369 2.74356-18.25709 18.0449-34.48254 41.97015-59.39195-.63873-.33426 4.18282-3.06919 8.70735-5.47153 9.24713 11.38115 26.49464 3.94153 32.57427-1.32678 1.50252 1.12706 9.10193 4.89722 7.88644 5.69617 18.66409 44.64639 1.82837 42.20589 38.19229 63.32537z" id="path2164-7-0-6"/><path style="display:inline;fill-opacity:1;fill-rule:evenodd;fill:#780f37;opacity:1;stroke-dasharray:none;stroke-linecap:butt;stroke-linejoin:miter;stroke-miterlimit:4;stroke-opacity:1;stroke-width:0;stroke:#000" d="m370.47602 268.87769c1.75483 18.25009.76105 46.79001-7.11674 79.69425 15.24822 43.48407 8.6891 50.26001 1.59965 68.71925-74.20425 17.42464-81.59245 38.36769-82.36412 40.70546-.78385 1.88787-1.88511 7.56063-4.38201 9.34104-1.21712.86786-3.67455-.009-3.92649-.0331-.29397-.0276-.94677.88798-3.15959.31564-5.65546-1.4629-6.20431-7.05369-6.77642-9.00439-24.4023-15.10587-36.03095-38.81432-39.88136-43.12827-16.86289-40.71189 9.84712-88.36715 10.48749-96.33763-1.74485-18.38575-1.79825-39.42608.21189-57.53359 5.4266-22.99891 24.40685-39.96858 41.7678-55.63524.49229-.51848 4.12506-3.06919 8.60202-5.47153 9.14993 11.38115 26.22994 3.94153 32.24566-1.32678 1.48672 1.12706 18.23182 7.00546 18.7637 8.34782 5.59696 13.25538 5.60863 25.94395 12.7896 37.87473 7.32565 13.63251 15.69888 21.62492 21.13892 23.47234z" id="path2166-3-8-2"/></svg>