<svg viewBox="0 0 560 1e3"><path style="display:inline;fill-opacity:1;fill-rule:evenodd;fill:#000;opacity:1;stroke-dasharray:none;stroke-linecap:butt;stroke-linejoin:miter;stroke-miterlimit:4;stroke-opacity:1;stroke-width:0;stroke:#000" d="m370.32736 269.21102c4.28577 34.66716-3.44155 69.52568-5.32092 79.54882 7.90451 19.87043 16.97791 51.46413-1.74433 68.66291-71.30488 20.12453-75.39173 29.49551-84.38426 50.35729-.26944.20641-1.13656 1.14752-4.58251.28177-.17413-.0437-1.37345.71664-3.61847.0361-21.82469-31.74709-34.88407-41.95307-46.13719-52.41857-14.98732-38.31436 2.40674-70.61032 9.25045-96.96415-1.09392-12.81831-1.44271-24.27588-1.32943-36.24472.28672-28.50353 4.15159-54.70322 44.00961-75.6882-.63873-.33426 2.72387-3.1709 7.2484-5.57324 6.38934-8.53563 5.53943-17.91786 6.19018-18.8806 3.41216-5.04803 22.0725-14.82189 24.51892-9.29893.28194.63651-.0963 18.38259 4.92767 25.79025 1.50252 1.12706 7.85193 4.64722 6.63644 5.44617-59.64798 34.7469 1.82837 42.20589 38.19229 63.32537z" id="path1521"/><path style="display:inline;fill-opacity:1;fill-rule:evenodd;fill:#00619e;opacity:1;stroke-dasharray:none;stroke-linecap:butt;stroke-linejoin:miter;stroke-miterlimit:4;stroke-opacity:1;stroke-width:0;stroke:#000" d="m363.77156 348.47536c1.34356 7.732 19.51906 43.70131.31789 68.8284 9.76847 17.81956-78.2481 39.32739-79.01977 41.66516-.78385 1.88787-3.29932 8.5329-5.79622 10.31331-1.21712.86786-4.8236-.18577-5.07554-.20987-.29397-.0276-1.12355.44604-3.33637-.1263-5.65546-1.4629-9.47467-5.19754-10.04678-7.14824-28.68416-20.30472-36.21661-33.10048-35.28517-48.25479-15.86927-39.48018 5.21871-69.90344 10.26782-95.41822-9.73851-74.31843 6.44578-104.84684 49.55322-116.55273 5.33294-8.35978 4.47937-16.82837 5.55606-16.92645 10.85789-.98906 16.98793-11.06455 22.37004-11.2945.95246-.0407-.87894 16.73549 5.50706 26.58167 1.48672 1.12706 17.38807 5.34921 17.91995 6.69157 12.23055 1.62014 29.38973 10.12821 32.6923 22.75496 9.82839 56.90403-2.75346 100.70563-5.62449 119.09603z" id="path1523"/><path id="path1525" class="shadow" d="m329.8875 425.70175c-15.4791 1.19068-42.03653 26.26041-44.60913 30.99635 10.29989-9.14088 29.75951-26.28541 44.60913-30.99635z"/><path id="path1527" class="shadow" d="m262.14541 457.55004c-6.81704-9.41592-28.83006-31.99347-34.93819-34.15183 5.05404 5.44075 26.5203 25.35081 34.93819 34.15183z"/></svg>