<svg viewBox="0 0 560 1e3"><g data-transform="belly" id="g5417"><path id="path5411" class="shadow" d="m276.41794 444.38354c23.86367-1.72925 54.99021-5.18776 71.36045-48.88018 15.10214-51.07057-32.04879-114.82232-69.05478-117.0127-46.22866 7.14757-71.24517 49.34131-73.66612 111.70966 2.53623 35.73787 38.15882 56.48889 71.36045 54.18322z"/><path id="path5413" class="skin" d="m276.41794 444.38354c23.97896.11528 56.95002-14.98685 71.36045-48.88018 14.41044-33.89334-21.32743-96.1464-53.03038-117.24327-7.49342-4.95719-44.61469-9.45324-46.57451.0-2.99737 13.37288-51.76227 38.38939-47.72735 111.59438 2.0751 40.11864 51.99283 54.41379 75.97179 54.52907z"/><path id="path5415" d="m247.13303 400.90787c.14394 1.96845-.72215 5.19806-2.50011 5.32808-1.77796.13-2.72458-2.83787-2.86853-4.80632-.14394-1.96845.77311-5.01973 2.55107-5.14975 1.77795-.13001 2.67363 2.65954 2.81757 4.62799z" class="bellybutton"/></g></svg>