<svg viewBox="0 0 560 1e3"><path style="display:inline;fill-opacity:1;fill-rule:evenodd;fill:#000;stroke-dasharray:none;stroke-linecap:butt;stroke-linejoin:miter;stroke-miterlimit:4;stroke-opacity:0;stroke-width:3;stroke:#000" d="m350.12931 407.62791c8.20773.68418 47.2742 33.22471 36.54106 78.14218-7.65858-3.48945-14.00653-14.4975-14.00653-14.4975-7.73135-16.84961-23.08925-47.00857-21.13047-60.16535.0246-.16538-1.56383-3.32192-1.40406-3.47933z" id="path7607"/><path style="display:inline;fill-opacity:1;fill-rule:evenodd;fill:#8aa7ff;stroke-dasharray:none;stroke-linecap:butt;stroke-linejoin:miter;stroke-miterlimit:4;stroke-opacity:0;stroke-width:3;stroke:#000" d="m349.37494 406.96372c.22265.0924.46533.23825.75647.37712 1.00485.47929 2.31731 1.34889 3.84105 2.57257 11.3192 9.09023 38.09754 38.95759 33.23328 72.27448-.18129 1.24172-.4043 2.49053-.67137 3.74568-10.09609-4.67696-16.03253-6.2881-16.03253-6.2881-4.24176-11.60618-24.29363-68.45386-21.4806-72.59506.0221-.0326.33583-.0799.3537-.0867z" id="path7609"/><path transform="rotate(15.737227,358.78205,354.98403)" style="display:inline;fill-opacity:1;fill-rule:evenodd;fill:#517cd3;stroke-dasharray:none;stroke-linecap:butt;stroke-linejoin:miter;stroke-miterlimit:4;stroke-opacity:0;stroke-width:3;stroke:#000" d="m367.49686 408.5399c3.73409 1.42562 16.93562 4.93965 28.81582 16.49053 8.69909 8.45796 20.68359 21.38523 23.73008 40.79676-8.31794-1.28145-17.9065-1.47599-17.9065-1.47599-12.0116-14.12108-34.72462-40.70723-36.40773-53.90211-.0212-.16584 1.65724-1.71434 1.76833-1.90919z" id="path7611"/></svg>