<svg viewBox="0 0 560 1e3"><path id="path1206" d="m346.15334 145.28857c-.34101-1.06451-15.269 34.57303-17.20968 36.02065-2.73019 2.03655-6.71576 5.79808-9.48632 3.15978-2.23974-2.13282 8.25054-57.93887 8.06171-58.46876-.83509-2.34327-31.11384-39.892253-44.00588-36.882558-8.56588 1.999729-20.94668 19.867098-19.17175 31.815888.0.0 1.51651 8.55891 1.47444 9.30443-.13886 2.4613-1.51335 19.51755-1.7406 18.20487-.0121-.07 1.0261 5.63718.93358 5.38607-.49779-1.35113 5.84354 24.42256 20.81846 30.37626.0494.0197 15.22397-1.58591 23.71109-7.37919-.0235.28247 8.50348-6.7954 10.39196-9.91857-.0864.21939 22.01573-14.92189 26.28938-21.62287 3.52449 65.92013-24.90349 78.25658-25.08641 78.35241-27.71125 14.51779-30.92742 19.48253-56.75444-.41147-11.25228-29.05409-9.65455-81.50107-8.66388-95.11847-.21284-.93702 1.18131-50.142094 41.13104-53.627404 44.69168-5.613155 51.614 56.439184 49.3073 70.808934z" style="display:inline;fill-opacity:1;fill-rule:nonzero;fill:#000;opacity:1;stroke-dasharray:none;stroke-linecap:butt;stroke-linejoin:miter;stroke-miterlimit:4;stroke-opacity:0;stroke-width:2.46809793;stroke:#000"/><path id="path1208" d="m344.93995 145.51461c-.33912-1.06457-15.18449 34.57515-17.11442 36.02286-2.71508 2.03667-6.6786 5.79843-9.43382 3.15997-2.22734-2.13296 8.20488-57.9424 8.01709-58.47233-.83046-2.34342-30.94162-39.894677-43.76231-36.884806-8.51847 1.999853-20.83074 19.868306-19.06564 31.817826.0.0 1.50812 8.55944 1.46629 9.305-.1381 2.46145-1.38067 17.26861-1.60666 15.95585-.0677-.39313 4.05399 30.36394 22.28247 38.57857.011.44892 12.85047-.34152 25.90636-8.3656 7.67594-4.71759 28.1767-29.56055 33.43925-40.49708 2.61083 34.15322-1.31753 68.32926-21.19331 84.7518-17.24552 9.56284-23.7885 13.95249-33.40922 14.88927-11.28972-1.58095-25.54335-12.57506-25.84475-13.5246-13.54248-42.66401-7.85222-93.80447-7.87878-93.9193-.21167-.93708.1803-47.895011 39.16307-53.630671 44.44431-5.613497 51.32832 56.442621 49.03438 70.813241z" style="display:inline;fill-opacity:1;fill-rule:nonzero;fill:#333;opacity:1;stroke-dasharray:none;stroke-linecap:butt;stroke-linejoin:miter;stroke-miterlimit:4;stroke-opacity:0;stroke-width:2.46133304;stroke:#000"/><path id="path1210" d="m264.13095 122.98903c-.50379.16864-3.05176-15.55458.62317-25.284731 3.34237-8.849586 9.71263-13.476798 11.43851-14.663555 2.29582-1.578667 24.5619-14.636429 43.91259-3.132662 15.81173 9.399898 14.81653 33.965348 14.89595 34.482778.081.52745-1.08545 8.40115-2.17483 15.41295-14.55426-4.08869-35.2158-9.67156-45.82439-12.49292-5.92477 1.43417-14.44599 3.56657-22.871 5.67814z" style="display:inline;fill-opacity:1;fill-rule:evenodd;fill:#333;opacity:1;stroke-dasharray:none;stroke-linecap:butt;stroke-linejoin:miter;stroke-miterlimit:4;stroke-opacity:0;stroke-width:3;stroke:#000"/><path id="path1214-7" d="m340.10874 140.49451c-12.39697-19.17499-35.75557-32.37813-54.51453-32.14456-30.6683.38188-27.56804 26.33333-28.42462 23.97746.0361-6.57916 2.93433-19.13919 5.75113-33.344439 1.88507-9.506461-5.74616-25.656055 32.43989-26.821983 50.33078.200849 40.37597 16.144551 42.64828 31.701142 2.05263 14.05262 3.35994 28.23322 2.09985 36.63238z" style="display:inline;fill-opacity:1;fill-rule:evenodd;fill:#000;opacity:1;stroke-dasharray:none;stroke-linecap:butt;stroke-linejoin:miter;stroke-miterlimit:4;stroke-opacity:0;stroke-width:2.96812963;stroke:#000"/><path id="path1214" d="m340.11622 140.84965c-12.1892-18.19731-28.40851-32.95583-54.27772-33.44128-30.15122-.5658-27.10604 24.99069-27.94826 22.75493.0355-6.24371 2.88515-18.16334 5.65474-31.644316 1.85348-9.021763-5.64987-24.347948 31.89623-25.454428 49.48733.190608 39.69933 15.321399 41.93357 30.084804 2.01824 13.33614 3.98042 29.72938 2.74144 37.70029z" style="display:inline;fill-opacity:1;fill-rule:evenodd;fill:#333;opacity:1;stroke-dasharray:none;stroke-linecap:butt;stroke-linejoin:miter;stroke-miterlimit:4;stroke-opacity:0;stroke-width:2.86714172;stroke:#000"/><path id="path1214-3" d="m284.42142 192.41542c-7.48802-6.18951-29.7821-6.61339-20.31347-56.50977 6.10773 1.93397 19.32129 5.16732 21.13604 5.88212 4.14081-.60233 39.57016-6.47613 39.57016-6.47613s3.48272 16.50295 4.22172 26.90718c-11.51503 29.06344-37.89204 34.21479-44.61445 30.1966z" style="display:inline;fill-opacity:1;fill-rule:evenodd;fill:#333;opacity:1;stroke-dasharray:none;stroke-linecap:butt;stroke-linejoin:miter;stroke-miterlimit:4;stroke-opacity:0;stroke-width:2.88784504;stroke:#000"/><path id="path1214-3-2" d="m285.57689 142.80716c-8.57679-2.26795-19.76867-4.50752-21.8196-6.19507.22117-3.41606-.205-12.40859-.36887-14.6897 4.60773-2.44103 20.32129-5.70768 23.63604-6.74288 3.89081.77267 40.07016 11.27387 40.07016 11.27387s-.0173 1.37795-1.65328 9.65718c-4.64003.93844-30.89204 5.71479-39.86445 6.6966z" style="display:inline;fill-opacity:.93467335;fill-rule:evenodd;fill:#333;opacity:1;stroke-dasharray:none;stroke-linecap:butt;stroke-linejoin:miter;stroke-miterlimit:4;stroke-opacity:0;stroke-width:2.88784504;stroke:#000"/></svg>