<svg viewBox="0 0 560 1e3"><path id="path4262" d="m368.45236 268.83602c.40069 1.40387.82872 12.89967-6.36035 37.77919-2.50128 8.65628-7.06607 15.70232-11.31937 20.92641-26.89994 46.17089-11.93186 53.4923-1.6974 80.67619.0.0-51.7146 6.85286-63.22382 35.19023-2.06147 4.01155-2.1084 11.81811-3.46792 16.10443-.27859.87834-1.00697 6.35332-3.50565 8.26757-.26944.20641-1.13656 1.14752-4.58251.28177-.17413-.0437-1.37345.71664-3.61847.0361-5.83439-1.76869-6.66978-8.86034-6.76649-9.28816-1.98539-8.78313-6.24957-28.02971-9.43291-34.24779-14.19124-27.72004-27.97462-8.06406-29.28246-10.40039.41618-1.08804 4.02945-13.36841 6.19444-18.09893 11.62539-25.40153 12.08709-42.05871 12.25836-57.26185.24452-21.70551-6.08737-33.66342-6.98584-46.20078.40962-35.13389 30.30326-40.0847 52.38713-59.43686.97617-2.02088 1.11046-18.85833-12.79977-26.13781-.63873-.33426 5.76049-3.75929 10.28502-6.16163 1.43082-.85664 10.68402 25.74457 10.29068 24.95701-.12491-.25011-.64543-.55498-1.33868.14782-.64398.65286 22.17244-28.24484 22.30977-27.24411 1.50252 1.12706 9.10193 4.89722 7.88644 5.69617-25.72677 16.91039-30.59284 28.69306-29.15 28.91364 3.13994 1.52155 66.54554 33.43249 67.65165 34.25705z" style="display:inline;fill-opacity:1;fill-rule:nonzero;fill:#000;opacity:1;stroke-dasharray:none;stroke-linecap:butt;stroke-linejoin:miter;stroke-miterlimit:4;stroke-opacity:1;stroke-width:0;stroke:#000"/><path id="path4264" d="m368.47602 268.56519c-.47811 3.70196-1.71839 20.80284-7.95729 39.14162-3.69329 10.85613-9.17747 18.13156-13.27942 22.53318-25.83885 40.38822-9.03649 59.96625 4.81493 82.5434-40.10653 11.44456-64.97545 42.96388-65.74712 45.30165-.78385 1.88787-4.7912 9.82211-7.2881 11.60252-1.21712.86786-4.56426-.37235-4.8162-.39645-.29397-.0276-.77535.50225-2.98817-.0701-5.65546-1.4629-10.22974-5.40448-10.80185-7.35518-18.43111-29.49711-30.68812-46.0732-35.41353-47.26215 7.94787-20.31139 15.29006-34.07712 16.58179-39.11455 3.11394-12.14358 4.50988-30.96414 4.51599-33.91997.0448-21.70603-6.59738-34.40453-7.48641-46.94189-3.37265-53.10898 18.32727-82.76734 38.32548-88.64617.49229-.51848 5.43756-2.25669 9.91452-4.65903 9.84838 23.51827 8.84084 25.04443 9.47199 24.50789 1.18842-.79719 21.46117-26.64717 21.46117-26.64717 1.48672 1.12706 18.23182 7.00546 18.7637 8.34782.0.0 24.43535-4.19648 33.91442 28.2404.0476.44543-1.02957 7.50845-.84326 15.97634.11811 5.36806-.44125 11.33436-1.14264 16.81783z" style="display:inline;fill-opacity:1;fill-rule:evenodd;fill:#005b96;opacity:1;stroke-dasharray:none;stroke-linecap:butt;stroke-linejoin:miter;stroke-miterlimit:4;stroke-opacity:1;stroke-width:0;stroke:#000"/><path id="path4266" d="m317.7568 197.70738c.2207.0743 3.8334 2.73309 6.28946 4.18757-.6321 2.54596-22.44225 30.88285-24.69505 35.48871-2.38446-.93979-5.79223-1.49125-7.66316-1.81857-.6168-8.70829 22.22468-33.0033 26.06875-37.85771z" style="display:inline;fill-opacity:1;fill:#000;stroke-dasharray:none;stroke-linecap:butt;stroke-linejoin:miter;stroke-miterlimit:4;stroke-opacity:1;stroke-width:0;stroke:#000"/><path id="path4268" d="m244.44169 332.87608c-.008-5.06807-1.30142-8.72621-1.39513-11.32426 2.26754-.31877 43.20324 1.49721 111.65691-.0574-1.09612 2.00802-5.85432 8.50631-8.66763 11.18988-52.42422 3.39961-95.76771.22949-101.59415.19181z" style="display:inline;fill-opacity:1;fill:#000;stroke-dasharray:none;stroke-linecap:butt;stroke-linejoin:miter;stroke-miterlimit:4;stroke-opacity:1;stroke-width:0;stroke:#000"/><path id="path4270" d="m318.58329 198.16182c.2207.0743 3.8334 2.73309 6.28946 4.18757-.6321 2.54596-22.44225 30.88286-24.69505 35.48872-2.38446-.93979-5.79223-1.49125-7.66316-1.81857-.6168-8.70829 22.22468-33.00331 26.06875-37.85772z" style="display:inline;fill-opacity:1;fill:#327bab;stroke-dasharray:none;stroke-linecap:butt;stroke-linejoin:miter;stroke-miterlimit:4;stroke-opacity:1;stroke-width:0;stroke:#000"/><path id="path4272" d="m279.87719 204.50634c.1767-.15169 5.40226-2.89775 7.90779-4.26525 1.86513 1.84465 29.83123 81.66515 32.63841 85.9557-2.02656 1.56905-4.24242 4.21611-5.48007 5.65685-7.79998-3.92111-32.8587-81.56202-35.06613-87.3473z" style="display:inline;fill-opacity:1;fill:#000;stroke-dasharray:none;stroke-linecap:butt;stroke-linejoin:miter;stroke-miterlimit:4;stroke-opacity:1;stroke-width:0;stroke:#000"/><path id="path4277" d="m279.98305 204.54589c.1767-.15169 4.30851-1.89775 6.81404-3.26525 1.86513 1.84465 29.83123 81.66515 32.63841 85.9557-2.02656 1.56905-4.24242 4.21611-5.48007 5.65685-7.79998-3.92111-31.76495-82.56202-33.97238-88.3473z" style="display:inline;fill-opacity:1;fill:#327bab;stroke-dasharray:none;stroke-linecap:butt;stroke-linejoin:miter;stroke-miterlimit:4;stroke-opacity:1;stroke-width:0;stroke:#000"/><path id="path4279" d="m245.09716 331.64901c-.008-5.06806-1.30142-8.7262-1.39513-11.32425 2.26754-.31877 42.70324 1.37221 111.15691-.1824-1.09612 2.00802-5.97932 8.13131-8.16763 11.31487-52.42422 3.39961-95.76771.22949-101.59415.19181z" style="display:inline;fill-opacity:1;fill:#004878;stroke-dasharray:none;stroke-linecap:butt;stroke-linejoin:miter;stroke-miterlimit:4;stroke-opacity:1;stroke-width:0;stroke:#000"/><path id="path4281" d="m244.09262 323.08881c-4.27408-14.16046-7.67212-37.61241-5.7717-46.44788 2.40938-1.03747 56.53118 4.46589 129.26671-.59374.69478 2.46701-8.00961 40.65802-12.96772 44.79011-55.70342 11.06417-104.3364 2.37416-110.52729 2.25151z" style="display:inline;fill-opacity:1;fill:#000;stroke-dasharray:none;stroke-linecap:butt;stroke-linejoin:miter;stroke-miterlimit:4;stroke-opacity:1;stroke-width:0;stroke:#000"/><path id="path4283" d="m243.77917 321.56978c-4.27408-14.16046-7.29712-34.48741-5.3967-43.32288 2.40938-1.03747 56.53118 4.46589 129.26672-.59374.69478 2.46701-7.50961 37.53302-12.46772 41.66511-55.70343 11.06417-105.21141 2.37416-111.4023 2.25151z" style="display:inline;fill-opacity:1;fill:#004878;stroke-dasharray:none;stroke-linecap:butt;stroke-linejoin:miter;stroke-miterlimit:4;stroke-opacity:1;stroke-width:0;stroke:#000"/><path id="path4285" d="m243.77784 321.88694c-4.52408-15.47326-6.29712-30.03149-6.3967-38.37515 2.40938-1.02375 56.90618 4.40685 129.64172-.58589.69478 2.4344-7.25961 32.53683-11.84272 36.73929-55.70343 10.9179-105.21141 2.34278-111.4023 2.22175z" style="display:inline;fill-opacity:1;fill:#000;stroke-dasharray:none;stroke-linecap:butt;stroke-linejoin:miter;stroke-miterlimit:4;stroke-opacity:1;stroke-width:0;stroke:#000"/><path id="path4287" d="m244.20596 322.12674c-4.52408-15.02035-6.29712-29.15246-6.3967-37.2519 2.40938-.99379 56.53118 4.27786 129.26672-.56874.69478 2.36314-6.88461 31.58447-11.46772 35.66392-55.70343 10.59834-105.21141 2.27421-111.4023 2.15672z" style="display:inline;fill-opacity:1;fill:#b669cd;stroke-dasharray:none;stroke-linecap:butt;stroke-linejoin:miter;stroke-miterlimit:4;stroke-opacity:1;stroke-width:0;stroke:#000"/><path id="path4289" d="m240.39163 306.76493c-.96158-1.61193-.60962-2.71692-.7092-3.35021 41.90938 3.6723 81.80424 3.90771 122.66478.77872.69478.18478-.50756 2.21403-.50756 2.21403-40.51065 3.30805-80.14167 3.38804-121.44802.35746z" style="display:inline;fill-opacity:1;fill:#000;stroke-dasharray:none;stroke-linecap:butt;stroke-linejoin:miter;stroke-miterlimit:4;stroke-opacity:1;stroke-width:0;stroke:#000"/><path id="path4291" d="m240.14374 307.32453c-.96158-1.61193-.60962-2.71692-.7092-3.35021 41.90938 3.6723 81.80424 3.90771 122.66478.77872.69478.18478-.50756 2.21403-.50756 2.21403-40.51065 3.30805-80.14167 3.38804-121.44802.35746z" style="display:inline;fill-opacity:1;fill:maroon;stroke-dasharray:none;stroke-linecap:butt;stroke-linejoin:miter;stroke-miterlimit:4;stroke-opacity:1;stroke-width:0;stroke:#000"/><path id="path4293" d="m338.41512 320.75464s2.87663-3.25572 3.36676-3.23822c42e-5-3.94893-8.64753-10.16687-8.64575-10.31253.38578-31.49315 32.55092-2.93674 1.33707.92432.11811-.15841-.001.67087-.001.67087 37.3907-2.18949-4.8934-38.02177-2.10696-1.63493-.006.0458 5.81658 8.53102 6.04988 13.59049z" style="display:inline;fill-opacity:1;fill:#000;stroke-dasharray:none;stroke-linecap:butt;stroke-linejoin:miter;stroke-miterlimit:4;stroke-opacity:1;stroke-width:0;stroke:#000"/><path id="path4295" d="m338.84728 320.61329s2.87663-3.25572 3.36676-3.23822c42e-5-3.94893-8.64753-10.16687-8.64575-10.31253.38578-31.49315 32.55092-2.93674 1.33707.92432.11811-.15841-.001.67087-.001.67087 37.3907-2.18949-4.8934-38.02177-2.10696-1.63493-.006.0458 5.81658 8.53102 6.04988 13.59049z" style="display:inline;fill-opacity:1;fill:maroon;stroke-dasharray:none;stroke-linecap:butt;stroke-linejoin:miter;stroke-miterlimit:4;stroke-opacity:1;stroke-width:0;stroke:#000"/><path id="path4297" d="m333.94067 308.95116s.0523-.2433.0786-.73304c-32.10822-.66766-2.95893-32.5879.48118-1.57501.009.0808-8.24657 6.79107-8.56942 9.0603.99279.0116 2.39431 4.91885 2.39431 4.91885.9246-5.98567 6.86506-13.89337 6.86121-13.97829-1.67919-37.11742-38.28468 4.77451-1.24583 2.30719z" style="display:inline;fill-opacity:1;fill:#000;stroke-dasharray:none;stroke-linecap:butt;stroke-linejoin:miter;stroke-miterlimit:4;stroke-opacity:1;stroke-width:0;stroke:#000"/><path id="path4299" d="m334.37283 308.80981s.0523-.2433.0786-.73304c-32.10822-.66766-2.95893-32.5879.48118-1.57501.009.0808-8.24657 6.79107-8.56942 9.0603.99279.0116 2.39431 4.91885 2.39431 4.91885.9246-5.98567 6.86506-13.89337 6.86121-13.97829-1.67919-37.11742-38.28468 4.77451-1.24583 2.30719z" style="display:inline;fill-opacity:1;fill:maroon;stroke-dasharray:none;stroke-linecap:butt;stroke-linejoin:miter;stroke-miterlimit:4;stroke-opacity:1;stroke-width:0;stroke:#000"/></svg>