<svg viewBox="0 0 560 1e3"><g data-transform="boob" transform="matrix(1.1247504,0,0,1.1247504,-26.347241,-34.609528)" id="g4118"><path d="m271.51118 261.14089c.0661-.75567-15.55212-23.85233-20.78384-21.10049-1.52959.80455-3.42058 1.9614-5.76856 3.60973-9.78469 6.69753-21.31453 10.82141-26.74443 14.7899-.54445.39791-.66828 2.70307-.76291 3.35152-.65836 4.51134-1.66809 9.99655-.19947 14.9545.5788 2.79959 1.92116 5.11459 3.04085 7.21138 2.65234 4.96693 6.04765 7.87695 10.86115 8.57219 21.5829 3.2487 35.13223-12.1343 39.18878-20.05393 1.83647 8.16488 6.94853 14.47073 13.3338 17.64542 10.04423 4.99389 23.27331 3.62273 32.00152-1.35019 14.24159-8.46859 19.00686-29.49472.12112-46.95807-1.24033-1.44425-2.4413-2.70187-3.54079-3.8753-.36194-.36533-.83711-.69814-1.41789-.98568-.3692-.18279-.78107-.34728-1.23367-.49021-4.17723-1.31914-18.96078 7.30779-27.63663 14.95545-5.29365 4.66629-9.38919 8.82318-10.45903 9.72378z" id="path4110" style="fill-opacity:1;fill:#010101"/><path d="m250.80319 239.92519c-2.11217 1.58135-4.28508 3.11053-5.92735 4.27017-5.84025 4.87392-21.34013 11.09517-25.80979 13.9564-.39537.25308-.72231 2.6909-.84921 3.07294-.70752 5.13443-.92153 9.56442-.30576 13.2861 1.01337 6.12496 3.33372 10.46932 6.44535 13.29915 2.48992 2.26451 5.53985 3.63861 8.78962 4.08772 10.49581 1.51314 19.86794-2.43574 27.29744-8.48888 4.20537-3.4345 7.18267-7.02269 9.92412-11.02226.12718.41876 1.87124 5.64497 5.46994 10.30596 2.123 2.74967 5.09638 5.02083 8.21123 6.75234.11303.0438.22593.0871.33871.12991 34.5912 13.12294 57.55039-22.51578 31.08151-47.52065-1.21885-1.39111-4.20568-5.32709-4.35427-5.6611-.6987-2.75664-9.8826-9.0648-16.06697-9.45676-9.71868-.61597-21.08175-.60121-21.2227-.21343-.22117-.36982-16.14896 7.01755-22.98077 13.1738-.0124.0112-.0411.0188-.0411.0289z" id="path4112" style="fill-opacity:1;fill:#fff"/><path d="m272.19169 258.88792c.80943-1.48623 1.35838-4.75934 1.75336-6.96753.0755-.42195.14376 2.11164-.34789 3.72203 2.50484-3.57809 5.36151-7.40366 7.64284-10.60934.11073-.1769-.23631 1.28365 56e-5 1.09001-3.14159 4.2326-6.6203 9.02137-9.04922 12.76484z" class="shadow" id="path4114"/><path id="path4116" class="shadow" d="m270.33492 269.98618c-.16754 2.01348.47911 3.25262.89408 5.36257-.66799-1.59942-1.31544-3.72955-.89408-5.36257z"/><path id="path1676-3-2-8-3-7-3-2-5-3" d="m272.47396 250.17347c-8.8872-28.93987 30.6312-12.16204 1.95433.45015 34.27089-18.14438 15.45078 28.02535-.14101 2.70967 11.28149 30.85148-30.49519 9.52861-2.52315-1.21756-30.51307 11.43308-6.53856-30.59113.70983-1.94226z" style="display:inline;fill-opacity:1;fill:green;stroke-dasharray:none;stroke-linecap:butt;stroke-linejoin:miter;stroke-miterlimit:4;stroke-opacity:1;stroke-width:0;stroke:#83afc8"/><path id="path1676-3-2-5-8-7-5-2-9" d="m277.81059 250.36078c.97993 7.24108 4.77367 16.05492 13.99306 28.26844-.70792-.33437-3.43627-1.43526-6.50549-2.54235-7.71661-10.14424-10.67522-17.02296-11.34576-22.0963 1.28082-1.19611 2.38058-2.10202 3.85819-3.62979z" style="display:inline;fill-opacity:1;fill:green;stroke-dasharray:none;stroke-linecap:butt;stroke-linejoin:miter;stroke-miterlimit:4;stroke-opacity:1;stroke-width:0;stroke:#83afc8"/><path id="path1676-3-2-8-0-9-1-9-7-2-2" d="m272.61546 250.4084c-7.97764-25.7174 26.30598-10.46769 1.69141.418 29.38347-15.72969 13.63241 24.97242-.0929 2.3983 10.06429 27.43403-26.2166 8.13685-2.19047-1.10325-26.21178 9.82331-5.96827-27.15651.59194-1.71305z" style="display:inline;fill-opacity:1;fill:#afa;stroke-dasharray:none;stroke-linecap:butt;stroke-linejoin:miter;stroke-miterlimit:4;stroke-opacity:1;stroke-width:0;stroke:#83afc8"/><path id="path1676-3-2-3-3-1-4-0-2-3" d="m277.22306 250.6271c.92272 6.42246 4.29054 14.26562 12.37696 25.17329-.61451-.30314-2.98082-1.30509-5.64141-2.31592-6.76747-9.06021-9.39398-15.18135-10.02664-19.68098 1.09266-1.04662 2.03214-1.83801 3.29109-3.17639z" style="display:inline;fill-opacity:1;fill:#afa;stroke-dasharray:none;stroke-linecap:butt;stroke-linejoin:miter;stroke-miterlimit:4;stroke-opacity:1;stroke-width:0;stroke:#83afc8"/><path d="m271.67003 259.50635c.8352-1.47925 1.40163-4.73699 1.80918-6.93482.0779-.41997.14834 2.10173-.35896 3.70456 2.58458-3.56129 5.53219-7.3689 7.88614-10.55953.11426-.17607-.24384 1.27762 58e-5 1.08489-3.2416 4.21273-6.83105 8.97902-9.3373 12.70491z" class="shadow" id="path4114-5"/></g></svg>