<svg viewBox="0 0 560 1e3"><path id="path4301-1-3-7" d="m371.23269 269.28163c4.05669 34.00223-6.87644 74.6207-6.35932 78.80866.81954 6.63722 21.901 48.14122-3.09078 71.47309.0274-.17435-55.02337 10.82697-75.20332 31.77003-4.92627 5.11256-3.48792 15.45153-7.05147 16.69466-13.46483 4.69716-17.71458-10.66263-17.71458-10.66263-6.67546-8.9041-32.29823-36.36754-37.67149-42.06243-20.87394-30.65593 9.88039-94.4572 9.45887-97.4558-1.89656-16.13726-1.77603-28.74926.33126-46.70916 59.03806 8.979 75.23448-67.40334 94.11804-65.97224 8.88597 37.07978 9.68127 53.94635 36.66464 60.74605z" style="display:inline;fill-opacity:1;fill-rule:evenodd;fill:#000;opacity:1;stroke-dasharray:none;stroke-linecap:butt;stroke-linejoin:miter;stroke-miterlimit:4;stroke-opacity:1;stroke-width:0;stroke:#000"/><path id="path4308-7-8-9" d="m370.50635 268.3858c1.71019 40.80996-6.60087 74.27627-6.8633 78.45359-.57424 9.14057 21.62698 42.10018-1.72367 72.70692-.55664.0414-46.48728 11.99836-67.97679 33.44373-6.29106 6.27814-12.67898 13.93878-12.97237 14.54696-.34473.71459-4.28479 1.02682-6.08184 2.18944-8.64043 5.59002-13.52858-12.764-13.52858-12.764-22.17735-10.52388-38.82017-31.62238-37.25562-41.11908-17.10938-33.10921 9.93329-93.18593 10.73011-98.12438.36871-2.28513-2.81772-20.74574-.0932-44.78879 64.05382 4.14601 72.81079-66.77707 93.30036-67.75225.10703.003 6.21586.99425 7.09557 1.49852 5.19982 11.89784 4.74434 25.59674 8.81419 34.78975 5.09034 11.49812 17.15781 16.945 26.55508 26.91959z" style="display:inline;fill-opacity:1;fill-rule:evenodd;fill:#c8c8c8;opacity:1;stroke-dasharray:none;stroke-linecap:butt;stroke-linejoin:miter;stroke-miterlimit:4;stroke-opacity:1;stroke-width:0;stroke:#000"/><path id="path3401-38-7-7" class="shadow" d="m329.89929 425.67495c-15.4791 1.19068-42.03653 26.26041-44.60913 30.99635 10.29989-9.14088 29.75951-26.28541 44.60913-30.99635z"/><path id="path3406-5-2-1" class="shadow" d="m262.1572 457.52324c-6.81704-9.41592-28.83006-31.99347-34.93819-34.15183 5.05404 5.44075 26.5203 25.35081 34.93819 34.15183z"/></svg>