<svg viewBox="0 0 560 1e3"><path d="m226.61405 487.58313c3.68258-11.04469-10.19837-11.78155-10.0793-7.91427-1.45472 9.77651 8.7954 10.61058 10.0793 7.91427z" id="XMLID_885_-0-28" style="fill:#000"/><path d="m226.25878 486.96497c3.26472-9.7915-9.04122-10.44476-8.93566-7.01628-1.28967 8.66721 7.79743 9.40664 8.93566 7.01628z" id="XMLID_885_-0" style="fill-opacity:1;fill:#daa595"/><path d="m260.99716 470.70612c8.97273-9.50247 18.48295-18.83104 10.86544-27.76242-2.70952-2.94523-5.47126-3.42639-7.58997-1.50379-8.23909 8.20418-28.22902 24.36884-37.18976 27.44823-1.73494.16284-1.84616-.077-3.18391.31372-2.8361.82834-3.87611 3.26652-4.77818 5.23176-.54362 1.18434-2.50121 4.04032-2.62016 5.15827-.0999.93911.0194 1.77593.34611 2.51236.10155.22894.0116-1.61585.0384-1.75256.67703-3.46875 10.11859-2.98154 9.39028 5.4513-.12041 1.39451-2.23747 2.81199-2.09975 2.8447.8816.20939 2.80633-.47985 4.20662-1.24096.83611-.45446 1.43082-1.15946 2.08161-1.17916 7.82329-.23684 18.40332-4.27324 30.53327-15.52145z" id="XMLID_885_-1" style="fill:#000"/><path d="m219.48097 484.11977c-.44566.93458-.13092 1.88191.19574 2.67609.13669.33234.99783.92529 1.56732.92419-.009-.0156-.39771-.54203-.40713-.55894-.3186-.57106-1.25496-1.8606-1.3559-3.04135z" id="XMLID_885_-0-2" style="fill:#000"/><path d="m260.49495 469.86003c8.83376-9.35529 18.59361-17.67588 11.38466-26.95742-2.66756-2.89962-4.57402-3.81083-6.65992-1.918-7.79898 8.88961-28.3543 25.4914-37.17625 28.5231-1.70807.16032-1.81757-.0758-3.1346.30886-2.79217.81551-4.06607 2.15343-4.95417 4.08823-.5352 1.166-2.45493 4.01558-2.72321 5.08943-.23098.92456-.3676 2.07987-.046 2.8049.1.22539.54173-1.93333.56813-2.06792.66655-3.41503 9.59204-2.65255 8.87501 5.64968-.11854 1.37291-1.83298 2.48563-1.69739 2.51783.86794.20615 2.76286-.47242 4.14146-1.22174.82316-.44742 1.40866-1.1415 2.04937-1.1609 7.70212-.23317 17.43079-4.58205 29.37286-15.65605z" class="skin penis" id="XMLID_885_-1-9"/></svg>