<svg viewBox="0 0 560 1e3"><path id="path4301-1-3" d="m371.23269 269.28163c4.05669 34.00223-14.2929 74.5136-13.96072 78.72027.64277 8.13982 29.5024 48.22961 4.51062 71.56148.0274-.17435-55.02337 10.82697-75.20332 31.77003-4.92627 5.11256-3.48792 15.45153-7.05147 16.69466-13.46483 4.69716-17.71458-10.66263-17.71458-10.66263-6.67546-8.9041-31.17323-37.74254-36.54649-43.43743-16.62394-36.03093 12.41164-90.42595 11.99012-93.42455-1.89656-16.13726-3.80728-31.28051-1.69999-49.24041 59.03806 8.979 73.60948-67.52834 92.49304-66.09724 8.88597 37.07978 9.68127 53.94635 36.66464 60.74605z" style="display:inline;fill-opacity:1;fill-rule:evenodd;fill:#000;opacity:1;stroke-dasharray:none;stroke-linecap:butt;stroke-linejoin:miter;stroke-miterlimit:4;stroke-opacity:1;stroke-width:0;stroke:#000"/><path id="path4308-7-8" d="m370.50635 268.3858c1.71019 40.80996-14.20227 74.18788-14.4647 78.3652-.57424 9.14057 28.22838 43.18857 5.87773 72.79531-.55664.0414-46.48728 11.99836-67.97679 33.44373-6.29106 6.27814-12.67898 13.93878-12.97237 14.54696-.34473.71459-4.28479 1.02682-6.08184 2.18944-8.64043 5.59002-13.52858-12.764-13.52858-12.764-22.17735-10.52388-37.69517-32.99738-36.13062-42.49408-12.60938-38.23421 12.46454-89.15468 13.26136-94.09313.36871-2.28513-4.84897-23.27699-2.12447-47.32004 64.05382 4.14601 71.18579-66.90207 91.67536-67.87725.10703.003 6.21586.99425 7.09557 1.49852 5.19982 11.89784 4.74434 25.59674 8.81419 34.78975 5.09034 11.49812 17.15781 16.945 26.55508 26.91959z" style="display:inline;fill-opacity:1;fill-rule:evenodd;fill:#c8c8c8;opacity:1;stroke-dasharray:none;stroke-linecap:butt;stroke-linejoin:miter;stroke-miterlimit:4;stroke-opacity:1;stroke-width:0;stroke:#000"/><path id="path3401-38-7" class="shadow" d="m329.89929 425.67495c-15.4791 1.19068-42.03653 26.26041-44.60913 30.99635 10.29989-9.14088 29.75951-26.28541 44.60913-30.99635z"/><path id="path3406-5-2" class="shadow" d="m262.1572 457.52324c-6.81704-9.41592-28.83006-31.99347-34.93819-34.15183 5.05404 5.44075 26.5203 25.35081 34.93819 34.15183z"/></svg>