<svg viewBox="0 0 560 1e3"><path style="display:inline;fill-opacity:1;fill-rule:nonzero;fill:#000;opacity:1;stroke-dasharray:none;stroke-linecap:butt;stroke-linejoin:miter;stroke-miterlimit:4;stroke-opacity:1;stroke-width:0;stroke:#000" d="m370.57368 268.65924c3.3245 28.3395-6.72675 57.10955-13.87012 79.17966 2.56335 6.42529 28.2159 52.28695 5.62168 70.37891.0.0-64.9646-3.14714-76.47382 25.19023-2.06147 4.01155-2.1084 11.81811-3.46792 16.10443-.27859.87834-1.00697 6.35332-3.50565 8.26757-.26944.20641-1.13656 1.14752-4.58251.28177-.17413-.0437-1.37345.71664-3.61847.0361-5.83439-1.76869-6.66978-8.86034-6.76649-9.28816-1.98539-8.78313-6.24957-28.02971-9.43291-34.24779-14.19124-27.72004-27.97462-8.06406-29.28246-10.40039-13.60479-47.50092 6.89154-67.9933 11.63174-93.57803-1.86022-11.21831.44553-19.46724-.16478-27.98353.023-35.68853-4.57783-46.2164 39.58736-85.57467-.63873-.33426 5.76049-3.75929 10.28502-6.16163 1.43082-.85664 10.68402 25.74457 10.29068 24.95701-.12491-.25011-.64543-.55498-1.33868.14782-.64398.65286 22.17244-28.24484 22.30977-27.24411 1.50252 1.12706 9.10193 4.89722 7.88644 5.69617-59.4139 34.61221 2.46751 42.24274 38.50165 63.17069z" id="path4303-3-0"/><path style="display:inline;fill-opacity:1;fill-rule:evenodd;fill:#005b96;opacity:1;stroke-dasharray:none;stroke-linecap:butt;stroke-linejoin:miter;stroke-miterlimit:4;stroke-opacity:1;stroke-width:0;stroke:#000" d="m355.74002 347.38285c3.42867 7.59415 24.97332 48.88966 7.06422 72.40054-40.10653 11.44456-75.72545 35.96388-76.49712 38.30165-.78385 1.88787-4.7912 9.82211-7.2881 11.60252-1.21712.86786-4.56426-.37235-4.8162-.39645-.29397-.0276-.77535.50225-2.98817-.0701-5.65546-1.4629-10.22974-5.40448-10.80185-7.35518-45.47795-24.37059-34.75398-40.41635-35.41353-47.26215-10.22745-55.52343 10.59525-68.88869 13.72038-94.02421-1.74199-10.44301-.24254-16.62598-.99289-25.77542-6.14778-53.43221 7.21115-83.19412 39.20936-88.82295.49229-.51848 5.43756-2.25669 9.91452-4.65903 9.84838 23.51827 8.84084 25.04443 9.47199 24.50789 1.18842-.79719 21.46117-26.64717 21.46117-26.64717 1.48672 1.12706 18.23182 7.00546 18.7637 8.34782.0.0 25.14245-4.55003 34.62152 27.88685 3.43909 48.71951-2.34008 72.46476-15.429 111.96539z" id="path4305-7-2"/><path style="display:inline;fill-opacity:1;fill:#000;stroke-dasharray:none;stroke-linecap:butt;stroke-linejoin:miter;stroke-miterlimit:4;stroke-opacity:1;stroke-width:0;stroke:#000" d="m317.7568 197.70738c.2207.0743 3.8334 2.73309 6.28946 4.18757-.6321 2.54596-22.44225 30.88285-24.69505 35.48871-2.38446-.93979-5.79223-1.49125-7.66316-1.81857-.6168-8.70829 22.22468-33.0033 26.06875-37.85771z" id="path4307-6-4"/><path style="display:inline;fill-opacity:1;fill:#000;stroke-dasharray:none;stroke-linecap:butt;stroke-linejoin:miter;stroke-miterlimit:4;stroke-opacity:1;stroke-width:0;stroke:#000" d="m234.81669 332.87608c-.008-5.06807 3.44858-8.72621 3.35487-11.32426 2.26754-.31877 58.57716.2232 127.03083-1.33145-1.09612 2.00802-2.87316 9.87763-4.43647 13.5612-52.42422 3.39961-120.24779-.74277-126.07423-.78047z" id="path4309-0-6"/><path style="display:inline;fill-opacity:1;fill:#327bab;stroke-dasharray:none;stroke-linecap:butt;stroke-linejoin:miter;stroke-miterlimit:4;stroke-opacity:1;stroke-width:0;stroke:#000" d="m318.58329 198.16182c.2207.0743 3.8334 2.73309 6.28946 4.18757-.6321 2.54596-22.44225 30.88286-24.69505 35.48872-2.38446-.93979-5.79223-1.49125-7.66316-1.81857-.6168-8.70829 22.22468-33.00331 26.06875-37.85772z" id="path4312-1-4"/><path style="display:inline;fill-opacity:1;fill:#000;stroke-dasharray:none;stroke-linecap:butt;stroke-linejoin:miter;stroke-miterlimit:4;stroke-opacity:1;stroke-width:0;stroke:#000" d="m279.87719 204.50634c.1767-.15169 4.3416-3.51647 6.14002-5.59108 1.86513 1.84465 31.599 82.99098 34.40618 87.28153-2.02656 1.56905-4.24242 4.21611-5.48007 5.65685-7.79998-3.92111-32.8587-81.56202-35.06613-87.3473z" id="path4314-2-7"/><path style="display:inline;fill-opacity:1;fill:#327bab;stroke-dasharray:none;stroke-linecap:butt;stroke-linejoin:miter;stroke-miterlimit:4;stroke-opacity:1;stroke-width:0;stroke:#000" d="m279.87367 204.45214c.1767-.15169 3.21124-2.5223 4.92127-4.95046 1.86513 1.84465 31.83338 83.44411 34.64056 87.73466-2.02656 1.56905-4.24242 4.21611-5.48007 5.65685-7.79998-3.92111-31.87433-82.65577-34.08176-88.44105z" id="path4316-4-9"/><path style="display:inline;fill-opacity:1;fill:#004878;stroke-dasharray:none;stroke-linecap:butt;stroke-linejoin:miter;stroke-miterlimit:4;stroke-opacity:1;stroke-width:0;stroke:#000" d="m236.34564 332.05434c-.008-5.06806 2.29217-7.93959 2.19846-10.53764 2.26754-.31877 56.73509 1.25349 125.18876-.30112-.79171 2.81475-2.47786 7.70179-3.43647 11.62553-20.80519 3.71127-121.46437-.94801-123.93298-.69835z" id="path4318-3-0"/><path style="display:inline;fill-opacity:1;fill:#000;stroke-dasharray:none;stroke-linecap:butt;stroke-linejoin:miter;stroke-miterlimit:4;stroke-opacity:1;stroke-width:0;stroke:#000" d="m237.50423 322.07625c-4.27408-14.16046-3.45873-36.47485-1.55831-45.31032 2.40938-1.03747 63.22572 4.23734 135.96125-.82229.69478 2.46701-3.50072 41.46868-8.45883 45.60077-55.70342 11.06417-119.75322.65449-125.94411.53184z" id="path4320-5-9"/><path style="display:inline;fill-opacity:1;fill:#004878;stroke-dasharray:none;stroke-linecap:butt;stroke-linejoin:miter;stroke-miterlimit:4;stroke-opacity:1;stroke-width:0;stroke:#000" d="m238.84167 320.63228c-4.27408-14.16046-3.07929-33.72669-2.23953-42.56216 2.40938-1.03747 61.43023 4.55428 134.16577-.50535.69478 2.46701-3.25333 37.87141-8.21144 42.0035-55.70343 11.06417-117.52391 1.18666-123.7148 1.06401z" id="path4322-2-5"/><path style="display:inline;fill-opacity:1;fill:#000;stroke-dasharray:none;stroke-linecap:butt;stroke-linejoin:miter;stroke-miterlimit:4;stroke-opacity:1;stroke-width:0;stroke:#000" d="m240.40284 320.88694c-4.52408-15.47326-4.42212-29.90649-4.5217-38.25015 2.40938-1.02375 62.09812 5.31846 134.83366.32572.69478 2.4344-4.07655 32.37522-8.65966 36.57768-55.70343 10.9179-115.46141 1.46778-121.6523 1.34675z" id="path4324-9-2"/><path style="display:inline;fill-opacity:1;fill:#b669cd;stroke-dasharray:none;stroke-linecap:butt;stroke-linejoin:miter;stroke-miterlimit:4;stroke-opacity:1;stroke-width:0;stroke:#000" d="m238.70596 321.00174c-4.52408-15.02035-3.63811-29.85957-2.1467-37.2519 2.40938-.99379 60.53118 5.90286 133.26672 1.05626.69478 2.36314-2.69267 31.37108-6.30351 35.18537-55.70343 10.59834-118.62562 1.12776-124.81651 1.01027z" id="path4326-8-3"/><path style="display:inline;fill-opacity:1;fill:#000;stroke-dasharray:none;stroke-linecap:butt;stroke-linejoin:miter;stroke-miterlimit:4;stroke-opacity:1;stroke-width:0;stroke:#000" d="m236.04436 305.85332c-.96158-1.61193-.60962-2.71692-.7092-3.35021 41.90938 3.6723 91.93628 4.79343 132.79682 1.66444.69478.18478-.50756 2.21403-.50756 2.21403-40.51065 3.30805-90.27371 2.50232-131.58006-.52826z" id="path4328-5-1"/><path style="display:inline;fill-opacity:1;fill:maroon;stroke-dasharray:none;stroke-linecap:butt;stroke-linejoin:miter;stroke-miterlimit:4;stroke-opacity:1;stroke-width:0;stroke:#000" d="m235.79647 306.41292c-.96158-1.61193-.60962-2.71692-.7092-3.35021 41.90938 3.6723 91.93628 4.79343 132.79682 1.66444.69478.18478-.50756 2.21403-.50756 2.21403-40.51065 3.30805-90.27371 2.50232-131.58006-.52826z" id="path4330-0-0"/><path style="display:inline;fill-opacity:1;fill:#000;stroke-dasharray:none;stroke-linecap:butt;stroke-linejoin:miter;stroke-miterlimit:4;stroke-opacity:1;stroke-width:0;stroke:#000" d="m338.41512 320.75464s2.87663-3.25572 3.36676-3.23822c42e-5-3.94893-8.64753-10.16687-8.64575-10.31253.38578-31.49315 32.55092-2.93674 1.33707.92432.11811-.15841-.001.67087-.001.67087 37.3907-2.18949-4.8934-38.02177-2.10696-1.63493-.006.0458 5.81658 8.53102 6.04988 13.59049z" id="path4332-8-1"/><path style="display:inline;fill-opacity:1;fill:maroon;stroke-dasharray:none;stroke-linecap:butt;stroke-linejoin:miter;stroke-miterlimit:4;stroke-opacity:1;stroke-width:0;stroke:#000" d="m338.84728 320.61329s2.87663-3.25572 3.36676-3.23822c42e-5-3.94893-8.64753-10.16687-8.64575-10.31253.38578-31.49315 32.55092-2.93674 1.33707.92432.11811-.15841-.001.67087-.001.67087 37.3907-2.18949-4.8934-38.02177-2.10696-1.63493-.006.0458 5.81658 8.53102 6.04988 13.59049z" id="path4334-3-6"/><path style="display:inline;fill-opacity:1;fill:#000;stroke-dasharray:none;stroke-linecap:butt;stroke-linejoin:miter;stroke-miterlimit:4;stroke-opacity:1;stroke-width:0;stroke:#000" d="m333.94067 308.95116s.0523-.2433.0786-.73304c-32.10822-.66766-2.95893-32.5879.48118-1.57501.009.0808-8.24657 6.79107-8.56942 9.0603.99279.0116 2.39431 4.91885 2.39431 4.91885.9246-5.98567 6.86506-13.89337 6.86121-13.97829-1.67919-37.11742-38.28468 4.77451-1.24583 2.30719z" id="path4336-0-6"/><path style="display:inline;fill-opacity:1;fill:maroon;stroke-dasharray:none;stroke-linecap:butt;stroke-linejoin:miter;stroke-miterlimit:4;stroke-opacity:1;stroke-width:0;stroke:#000" d="m334.37283 308.80981s.0523-.2433.0786-.73304c-32.10822-.66766-2.95893-32.5879.48118-1.57501.009.0808-8.24657 6.79107-8.56942 9.0603.99279.0116 2.39431 4.91885 2.39431 4.91885.9246-5.98567 6.86506-13.89337 6.86121-13.97829-1.67919-37.11742-38.28468 4.77451-1.24583 2.30719z" id="path4338-8-9"/><path d="m329.8875 425.70175c-15.4791 1.19068-42.03653 26.26041-44.60913 30.99635 10.29989-9.14088 29.75951-26.28541 44.60913-30.99635z" class="shadow" id="path5772-6-5-7-8"/><path d="m262.14541 457.55004c-6.81704-9.41592-28.83006-31.99347-34.93819-34.15183 5.05404 5.44075 26.5203 25.35081 34.93819 34.15183z" class="shadow" id="path5774-7-1-8-9"/></svg>