<svg viewBox="0 0 560 1e3"><path style="display:inline;fill-opacity:1;fill-rule:evenodd;fill:#000;opacity:1;stroke-dasharray:none;stroke-linecap:butt;stroke-linejoin:miter;stroke-miterlimit:4;stroke-opacity:1;stroke-width:0;stroke:#000" d="m368.45236 268.83602c.23724.8312-.5766 5.28861-2.26041 13.52511-33.60787-4.288-100.37653-11.59278-128.54986-4.97133.0219-3.81638.82017-11.97481 1.84336-14.68467.24324-.11759 5.31515-1.65667 5.73635-1.94116 12.96984-34.21324 14.33596-34.51518 31.51367-55.13078-.20578-.10769.98637-.32991 2.81284-.93373-14.26623 35.27571-10.07743 51.97809-1.78824 61.45129 10.93146-7.63158 34.10888-19.71829 53.08715-60.31847 2.65591.76603 5.77773 1.30178 5.77773 1.30178 1.90789 18.32918-.0619 41.08452 3.67362 52.92764 3.54725 3.99043 24.53566 5.60404 28.15379 8.77432z" id="path2493"/><path style="display:inline;fill-opacity:1;fill-rule:evenodd;fill:#fae;opacity:1;stroke-dasharray:none;stroke-linecap:butt;stroke-linejoin:miter;stroke-miterlimit:4;stroke-opacity:1;stroke-width:0;stroke:#000" d="m368.47602 268.56519c-.23212 1.79731-1.46179 6.53999-2.59824 13.24253-48.30237-7.27876-106.55684-9.94159-127.56058-5.55551.0418-2.81464 1.3045-13.32115 1.3045-13.32115s5.1004-1.54059 5.85086-1.94543c11.82416-30.55624 14.58742-35.11847 31.24259-55.40231.84544-.17546 1.70483-.38601 2.56536-.63893-16.81405 40.48467-8.02175 52.76388-1.59072 61.62392 17.19358-10.88851 38.35632-25.50945 53.62911-60.61021 1.9144.66913 3.96656.65204 5.47599 1.11851-.47031 15.65219.792 46.91864 3.02614 53.74685 3.55484 2.53922 21.72285 5.58886 28.65499 7.74173z" id="path2495"/></svg>