<svg viewBox="0 0 560 1e3"><path style="display:inline;fill-opacity:1;fill-rule:evenodd;fill:#000;stroke-dasharray:none;stroke-linecap:butt;stroke-linejoin:miter;stroke-miterlimit:4;stroke-opacity:0;stroke-width:3.02935934;stroke:#000" d="m300.39583 218.87955c2.88085-3.50481 6.15719-4.57678 3.22635-5.38665-7.83122-2.16398-6.65602-5.15553-29.53589-8.46494.072.004-5.49099-.47931-14.42275-6.81166-13.22617-9.37695-31.23017-25.37688-42.44015-34.0954-5.02375-3.90721-9.54618-5.64474-10.17113-5.89051 38.0651-23.05328 69.79029-37.95664 78.24659-47.73792-2.329-15.130797 5.82239-24.502308-4.51807-21.015672-76.37618 25.752812-113.0731 60.658792-113.20556 65.346972-2.74126 6.32503 70.4485 76.97045 113.00103 105.12602 9.89979-18.57727 19.44175-40.69055 19.81958-41.07024z" id="path5706"/><path style="display:inline;fill-opacity:1;fill-rule:evenodd;fill:#ff80b2;stroke-dasharray:none;stroke-linecap:butt;stroke-linejoin:miter;stroke-miterlimit:4;stroke-opacity:0;stroke-width:3;stroke:#000" d="m300.48784 216.69956c2.82896-3.50026 6.04627-4.57084 3.16823-5.37966-7.69014-2.16117-6.53612-5.14882-29.00381-8.45395.0707.004-7.88471 1.99619-16.65557-4.32794-12.98791-9.36478-30.91758-25.09394-41.92562-33.80114-4.93325-3.90214-10.87422-5.88742-11.4879-6.13287 31.2958-21.07857 61.04792-31.23184 81.72626-49.4857-2.28703-15.111155 6.04223-21.463789-4.21532-18.299109C211.33645 112.64949 169.19 150.04485 169.05991 154.72693c-2.69187 6.31682 69.64909 75.9312 111.43506 104.05022 9.72145-18.55316 19.62184-41.69839 19.99287-42.07759z" id="path5708"/><path style="display:inline;fill-opacity:1;fill-rule:evenodd;fill:#000;stroke-dasharray:none;stroke-linecap:butt;stroke-linejoin:miter;stroke-miterlimit:4;stroke-opacity:0;stroke-width:4.92418861;stroke:#000" d="m270.34591 93.138811c6.44581 11.756139 11.33602 18.847529 11.51011 21.029789-.16909.33362-8.07896 5.87882-15.32505 10.82705-6.07948 4.15158-11.69153 7.88303-11.87192 7.76406-7.31186-4.82267-14.14856-29.99384-12.92768-32.54163.26403-.550674 27.27871-6.781256 28.61454-7.079269z" id="path5710"/><path style="display:inline;fill-opacity:1;fill-rule:evenodd;fill:#ff80b2;stroke-dasharray:none;stroke-linecap:butt;stroke-linejoin:miter;stroke-miterlimit:4;stroke-opacity:0;stroke-width:4.80764103;stroke:#000" d="m270.23518 93.620128c6.39627 11.398572 11.62876 17.986182 11.80994 20.100342-.3019.59247-26.36378 18.27947-26.89249 18.12435-.001-13e-5-.003-.002-.004-.002-7.21688-4.68415-13.6126-28.62849-12.42299-31.09455 37e-5-78e-5 85e-5-.002.002-.003.23087-.38258 12.86099-3.553475 20.9412-5.537643 3.51519-.863187 6.16927-1.501775 6.56681-1.588479z" id="path5712"/><path style="display:inline;fill-opacity:1;fill-rule:evenodd;fill:#1a1a1a;stroke-dasharray:none;stroke-linecap:butt;stroke-linejoin:miter;stroke-miterlimit:4;stroke-opacity:0;stroke-width:4.80764103;stroke:#000" d="m260.9889 102.31482c-3.55117-.59321-1.38115-4.744343.71125-4.644693 3.72813.0233 2.37707 4.787153-.71125 4.644693z" id="path5714"/><path style="display:inline;fill-opacity:1;fill-rule:evenodd;fill:#1a1a1a;stroke-dasharray:none;stroke-linecap:butt;stroke-linejoin:miter;stroke-miterlimit:4;stroke-opacity:0;stroke-width:4.80764103;stroke:#000" d="m250.51091 104.54196c-3.55116-.59322-1.38113-4.744327.71125-4.644717 3.72815.0233 2.37708 4.787157-.71125 4.644717z" id="path5716"/></svg>