<svg viewBox="0 0 560 1e3"><path id="path3249" d="m273.30405 440.76902c-.33276 1.13794-.52327 2.26709-.51533 3.35476.0523 7.15516 6.77566 12.4959 6.88124 12.73802.28894.66262 3.17984.55272 3.14405 1.01695-.43415 5.63179-3.67304 10.16396-3.93746 10.26101-4.85185 1.78082-9.33443.71119-11.17487-.31697.0145.17905-2.99048-4.84651-4.47389-9.8183 3.56445-6.00454 3.53954-7.63892 3.25832-13.81162-.24871-1.66778-.6624-3.32982-1.17083-4.93416.1759-.0694.84617.004 1.7776-.33534 1.60392.96474 5.3399 1.58653 6.21117 1.84565z" class="steel_chastity"/></svg>