<svg viewBox="0 0 560 1e3"><path id="path8018" d="m226.76483 444.17259c.25685-.10668.67277.0196.91121-.089 11.34687-5.16648 1.95664-12.60085-.87074-12.24525-7.63017 2.67578-4.69504 10.24059-2.209 10.65748.0357.0258.2968.66348 2.16851 1.6768z" style="fill:#000"/><path id="path8020" d="m224.71544 441.67159c4.06716 2.43529 8.82469-1.27904 8.78034-3.35858-1.18757-3.37044-3.62625-6.38788-6.99086-5.73296-5.25728 2.04427-5.33213 6.18214-2.78395 9.33257.24981.1918.57473-.14728.99447-.24103z" class="areola"/><path id="path8022" d="m251.07086 461.60615c10.66018 2.97021 21.40228 6.4117 25.08562-2.82016 1.13664-3.19231.40685-5.45103-1.8697-6.27917-9.39805-2.93316-29.39786-11.52628-35.24187-17.02305-.80686-1.23533-.6711-1.41333-1.49186-2.26118-1.74007-1.79749-3.97701-1.61407-5.80525-1.51401-1.10176.0603-4.0139-.2787-4.8983.0735-.74291.29589-1.32267.7156-1.74534 1.25104-.13141.16644.87291-.36366.96716-.4347 2.65396-1.99994 13.25662 6.41236 1.43949 11.33899-1.09392.45606-4.445-2.94746-4.41513-2.83138.19116.74305 1.46725 1.91275 2.59016 2.66124.67049.44692 1.43335.61411 1.70501 1.09383 3.26569 5.76682 10.4658 12.09879 23.68001 16.7449z" style="fill:#000"/><path id="path8024" d="m223.7811 439.05966c.0577.42324.57942 1.28114 1.14375 1.43575-.005-.0209-.13874-.75133-.14414-.77354-.18255-.75002-.99031-2.95816.32753-5.4365-1.32575 1.50055-1.565 2.98628-1.32714 4.77429z" style="fill:#000"/><path id="path8026" class="skin penis" d="m251.67247 461.07827c10.56045 2.94245 20.70888 6.99392 24.84139-2.1266 1.12601-3.16245 1.05557-4.96139-1.1997-5.78179-9.79845-2.34744-30.47696-11.24663-36.2663-16.69199-.7993-1.22378-.66483-1.40011-1.47792-2.24004-1.72377-1.78068-3.23826-2.20944-5.04938-2.11033-1.09146.0597-3.84185-.1142-4.77667.0348.26398.15661 1.12566.0865 2.2669.87462 1.66525 1.1501 3.40238 3.10094 3.51965 5.14983.15212 2.65828-4.21389 6.45364-8.71739 3.8608-.2254-.12976-.59201.11929-.74945.17343-.18052.12022 4.23409 2.73307 4.14074 2.93606 3.23514 5.71289 10.37748 11.31848 23.4681 15.92111z"/></svg>