<svg viewBox="0 0 560 1e3"><path style="display:inline;fill-opacity:1;fill-rule:evenodd;fill:#000;stroke-dasharray:none;stroke-linecap:butt;stroke-linejoin:miter;stroke-miterlimit:4;stroke-opacity:0;stroke-width:2.96638775;stroke:#000" d="m353.2831 410.20815c8.42085 4.38015 27.71218 27.44284 28.39109 45.45615-2.47595.0635-14.71264.97435-16.89367 1.35261-15.05942-14.94993-11.23546-41.36759-11.49742-46.80876z" id="path2685-2"/><path style="display:inline;fill-opacity:1;fill-rule:evenodd;fill:#333;stroke-dasharray:none;stroke-linecap:butt;stroke-linejoin:miter;stroke-miterlimit:4;stroke-opacity:0;stroke-width:2.96638775;stroke:#000" d="m353.20303 410.12495c15.48335 15.94265 25.49343 27.66159 26.17234 45.6749-2.47595.0635-14.71264.97435-16.89367 1.35261-15.05942-14.94993-9.01671-41.58634-9.27867-47.02751z" id="path2685"/><path style="display:inline;fill-opacity:1;fill-rule:nonzero;fill:#1e1e1e;opacity:1;stroke-width:3.5649364" d="m335.59959 163.79141c2.33952 23.91808-16.00495 43.93004-35.17272 45.23412-11.23214.76419-33.49065-6.17401-43.0993-14.30108-.57665-.48773 6.45269-20.58409 4.79466-30.97764-.34374-8.84109 73.77875-6.53861 73.47736.0446z" id="path4011-5-5"/></svg>