<svg viewBox="0 0 560 1e3"><path id="path2355-1" d="m370.45236 268.58602c.88589 28.98145-17.44291 57.03102-20.70969 85.61531.0.0 18.68802 36.12361 12.31152 61.27458 7.12142 29.32451 1.23246 72.20872-2.15438 79.20074-2.388 4.92994 4.26344 27.71161-88.07703 12.38745-17.40785-1.7838-51.89119-.62712-51.9276-.93216-6.49398-34.23271-4.2231-59.5008 3.33121-83.96055.43165-.68959 3.08665-9.23409 2.80431-9.94412-9.94137-18.50725 12.90799-73.94869 14.58158-89.0604.58609-4.28623-7.41706-24.83088-3.54994-62.01009 11.43345-22.90983 40.87503-39.15632 39.76152-55.78876-.63873-.33426 4.08111-2.9638 8.60564-5.36614 9.24713 11.38115 26.59635 3.83614 32.67598-1.43217 1.50252 1.12706 9.10193 4.89722 7.88644 5.69617-59.64798 34.7469 1.82837 42.20589 38.19229 63.32537z" style="display:inline;fill-opacity:1;fill-rule:evenodd;fill:#000;opacity:1;stroke-dasharray:none;stroke-linecap:butt;stroke-linejoin:miter;stroke-miterlimit:4;stroke-opacity:1;stroke-width:0;stroke:#000"/><path id="path2357-1" d="m369.72602 269.56519c-1.14917 32.09291-17.99162 52.21464-20.55484 83.44407 8.36263 24.21106 15.37273 39.16304 12.0497 61.73607 3.76584 6.39876 3.01871 9.85607 3.12694 16.20961 13.1563 23.2988 14.25932 55.19866-6.67511 73.18831.17022.99798.32202 4.29931-.25522 5.02198-3.3103 4.1443-18.27211 5.70763-85.74199-6.1094-17.22485-1.7838-55.91431 5.21907-55.95033 4.91403-5.99489-46.2014.37074-72.91711 8.91305-95.45868.24815-.65481.7497-1.95424.7497-1.95424-3.37313-30.91683 17.94252-77.44771 16.76827-89.95012.26596-7.2986-8.80022-27.19288-3.36208-60.82944.96985-13.85534 33.71321-35.32773 38.14201-53.79631-.63201-.33426 4.02335-2.9638 8.50031-5.36614 9.14993 11.38115 26.33165 3.83614 32.34737-1.43217 1.48672 1.12706 9.00625 4.89722 7.80354 5.69617-1.16159 28.50455 24.89133 50.99274 44.13868 64.68626z" style="display:inline;fill-opacity:1;fill-rule:evenodd;fill:#5e367c;opacity:1;stroke-dasharray:none;stroke-linecap:butt;stroke-linejoin:miter;stroke-miterlimit:4;stroke-opacity:1;stroke-width:0;stroke:#000"/><path id="path3280-7-2-6-6-6-60" class="shadow" d="m329.89484 425.68854c-15.4791 1.19068-42.03653 26.26041-44.60913 30.99635 10.29989-9.14088 29.75951-26.28541 44.60913-30.99635z"/><path id="path3282-5-4-0-8-6-62" class="shadow" d="m262.15275 457.53683c-6.81704-9.41592-28.83006-31.99347-34.93819-34.15183 5.05404 5.44075 26.5203 25.35081 34.93819 34.15183z"/></svg>