<svg viewBox="0 0 560 1e3"><path d="m263.75762 141.7576c.95542 1.00652 6.20863.89186 16.24255-1.737 21.97703 6.23482 38.03624 3.17534 50.12873 1.55279l.55631-2.21332c-14.56411 2.53487-37.20248 4.43516-50.43574-1.99523-8.42229 3.15919-15.47109 3.53737-16.66533 2.39926z" class="skin head" id="path3932-6"/><path d="m273.03175 148.90007c-6.26994 1.66022-8.29867-.67853-8.74521-1.0392.13091 2.41928.88626 6.09404 1.15459 6.58418.64357-.45318 3.47314.2797 7.59062-5.54498z" class="skin head" id="path3932-6-2"/><path d="m273.88891 160.77165c-3.65867.84256-5.92004.22203-6.32507-.27167.28297 1.26273 1.26734 3.51424 1.6419 3.92145.27673-.12656 2.98449-1.60751 4.68317-3.64978z" class="skin head" id="path3932-6-2-7"/><path d="m292.65261 149.17521c12.27308 4.48658 34.78037-1.47721 35.85191-1.90033-.52866 2.9938-3.13182 9.40838-4.37243 12.19661-.26857-.14068-19.86958 1.79989-31.47948-10.29628z" class="skin head" id="path3932-6-2-5"/><path d="m295.49551 161.12629c18.54386 3.8912 26.54949 1.10906 27.52904.92472-.90169 2.14661-2.7629 5.4656-5.92981 8.43792-.31779.20424-12.69605-.45295-21.59923-9.36264z" class="skin head" id="path3932-6-2-7-7"/></svg>