<svg viewBox="0 0 560 1e3"><path style="display:inline;fill:#000;opacity:1;stroke-width:1.5967232" d="m277.54156 511.34332c.0105 1.3855-2.29667 18.87389-17.24346 18.21476-7.31905-.32275-17.55919-15.52121-17.57059-16.90672-1.08716-2.61711.65941-3.50931 1.19771-3.8624 1.3939-.91429 4.62416 3.27268 16.71269 3.52194 7.32367.15086 16.89223-2.35314 16.90365-.96763z" id="path8676"/><path style="display:inline;fill:#000;opacity:1;stroke-width:1.51859212" d="m256.93706 516.80957c-1.11383.38933-1.91491-.17786-3.16856-.22787-3.54651-25.20568 10.2325-72.48768 14.22823-76.3564.72364.3316 3.43929-.25774 3.14346.70933-1.78565 5.83722-14.75435 41.13328-14.20313 75.87494z" id="path8678"/><path style="display:inline;fill:#000;opacity:1;stroke-width:1.50427556" d="m272.83242 520.39031c-1.15825.36739-1.99126-.16781-3.29489-.215.46969-20.7376 10.03183-66.70047 14.7955-72.05086.75247.31291 1.4747 2.88542 1.16708 3.79797-1.85684 5.50808-10.76402 37.85045-12.66769 68.46789z" id="path8680"/><path style="display:inline;fill:#000;opacity:1;stroke-width:1.50321734" d="m244.87171 513.18861c-1.15662.36738-.80123-.16781-2.10304-.215-1.80648-21.02002 5.36774-60.67553 15.36832-70.45048.75141.3129 1.1117 1.38871.57181 2.19759-1.85422 2.77803-15.89354 27.87165-13.83709 68.46789z" id="path8682"/><path style="fill:#bababa;stroke-width:1.506235" d="m277.65349 512.09032c.0113 1.2478-2.26925 16.99812-17.0377 16.40449-7.23172-.29067-17.34968-13.97864-17.36094-15.22645-1.0742-2.35702.65154-3.16053 1.18342-3.47854 1.37725-.82342 4.56898 2.94742 16.51327 3.1719 7.23629.13599 16.69068-2.11925 16.70195-.87145z" id="path8684"/><path style="display:inline;fill:#000;opacity:1;stroke-width:1.506235" d="m258.5978 528.11477c-1.21365-.71039-2.51074-2.39652-1.97234-3.9769.65246.92683 1.3116 2.86034 3.8999 4.36752-1.06207.0106-1.80511-.30783-1.92756-.39062z" id="path8686"/><path style="display:inline;fill:#000;opacity:1;stroke-width:1.52991307" d="m242.42004 494.12972c-.0535 1.88413-.052 4.25059-.12833 6.88977 9.33185 6.27093 30.95533 2.79422 36.10864.91685.0443-.65437.70442-7.34362.57335-7.29997-4.35523 1.45004-26.02249 3.97224-36.55372-.50665z" id="path8688"/><path style="display:inline;fill:#000;opacity:1;stroke-width:1.54073548" d="m243.92048 480.17909c-.17141 1.39536-.50673 4.24911-.78523 6.82263 9.33185 6.35996 31.94905 3.04009 37.10236 1.13608.0443-.66367 1.26024-7.4479 1.12917-7.40363-4.35524 1.47066-26.91516 3.98741-37.44638-.55508z" id="path8690"/><path style="display:inline;fill:#000;opacity:1;stroke-width:1.52576399" d="m247.25156 464.52791c-.17169 1.36606-1.12793 4.10279-1.4069 6.62227 10.49287 4.05666 32.09847 2.57659 38.02402 1.39774.0443-.64973 1.55342-7.31286 1.41738-7.30529-7.41661.41197-27.48555 1.79101-38.03457-.71472z" id="path8692"/><path style="display:inline;fill:#000;opacity:1;stroke-width:1.51917648" d="m252.38358 450.30149c-.4102 1.02829-1.79987 4.77769-2.11434 5.90816 10.6217 3.51123 29.96664 2.47099 36.65068 1.27019.0444-.64052-.45476-6.88863-.59012-6.86411-5.20148.94172-23.16835 1.60207-33.9463-.31424z" id="path8694"/><path style="display:inline;fill:#000;opacity:1;stroke-width:1.38713038" d="m252.64509 451.63711c.0334 1.00541 1.91039.68763 2.18176.64428 11.58325-21.38271 26.59035-5.60434 29.51004.38383.88634.5652 1.94714-.38799 1.93042-.52189-1.83878-14.72765-25.06723-25.70097-33.6223-.5062z" id="path8696"/><path style="display:inline;fill:#bababa;opacity:1;stroke-width:1.506235" d="m257.29485 515.79974c-1.10055.38766-1.89206-.17707-3.13075-.22687-3.22515-22.37836 11.2266-72.26769 14.05846-76.02593.71499.33017 3.39824-.25665 3.10594.70626-1.76434 5.81196-14.5783 40.95525-14.03365 75.54654z" id="path8698"/><path style="display:inline;fill:#bababa;opacity:1;stroke-width:1.37584305" d="m242.95105 495.07387c-.0529 1.54215-.0514 3.4791-.12683 5.63926 9.22051 5.13273 30.58597 2.28705 35.6778.75043.0437-.5356.69602-6.01073.56651-5.97501-4.30327 1.18687-25.71199 3.25129-36.11756-.41468z" id="path8700"/><path style="display:inline;fill:#bababa;opacity:1;stroke-width:1.37584305" d="m244.43358 481.31618c-.16936 1.1261-.50069 3.42918-.77587 5.50612 9.22051 5.13273 31.56784 2.45347 36.65967.91686.0437-.53561 1.24519-6.01074 1.11568-5.97501-4.30326 1.18687-26.59399 3.21799-36.99956-.44797z" id="path8702"/><path style="display:inline;fill:#bababa;opacity:1;stroke-width:1.37584305" d="m247.78834 465.33505c-.16936 1.12611-1.1126 3.38212-1.38777 5.45905 10.35018 3.34409 31.66198 2.12399 37.50692 1.15221.0437-.5356 1.53231-6.02831 1.39811-6.02208-7.31574.33961-27.11177 1.47642-37.51734-.58918z" id="path8704"/><path style="display:inline;fill:#bababa;opacity:1;stroke-width:1.37584305" d="m253.04361 450.90508c-.40235.85985-1.76546 3.99502-2.07392 4.9403 10.41872 2.93603 29.39398 2.06621 35.95027 1.06212.0437-.5356-.44605-5.76016-.57883-5.73966-5.10207.78746-22.72561 1.33964-33.2976-.26276z" id="path8706"/><path style="display:inline;fill:#bababa;opacity:1;stroke-width:1.35798275" d="m253.05409 450.94033c.033.97522 1.88758.66697 2.15572.62492 11.44504-20.74101 26.27308-5.43614 29.15793.37233.87577.54824 1.92573-.37658 1.90739-.50623-1.94839-13.76913-23.84732-23.76741-33.22111-.49101z" id="path8708"/><path style="display:inline;fill:#bababa;opacity:1;stroke-width:1.46632898" d="m273.46708 520.39031c-1.10054.36739-1.89205-.16781-3.13075-.215.4463-20.7376 9.53209-66.70047 14.05846-72.05086.71499.31291 1.40124 2.88542 1.10894 3.79797-1.76435 5.50808-10.22781 37.85045-12.03665 68.46789z" id="path8710"/><path style="display:inline;fill:#bababa;opacity:1;stroke-width:1.46632898" d="m245.55503 513.18861c-1.10055.36738-.76238-.16781-2.00108-.215-1.71892-21.02002 5.10752-60.67553 14.6233-70.45048.71499.3129 1.05781 1.38871.5441 2.19759-1.76435 2.77803-15.12307 27.87165-13.16632 68.46789z" id="path8712"/></svg>