<svg viewBox="0 0 560 1e3"><path d="m266.56266 487.41644c-1.02095.32423-2.19079.17635-2.92249.16431-1.17374-.0187-3.47875-1.81699-3.67721-2.36577.30298-2.36283 6.37063-5.59458 10.88669-2.56186-1.46852 3.35279-2.47463 3.76341-4.28699 4.76332z" id="path3752" style="fill:#000;stroke-width:2.09582233"/><path d="m257.96655 448.58334c4.95361-9.23367 22.65911-15.28092 24.34715 5.90667.55943 1.19247-.75478 6.54899-2.33455 13.28557-1.80923 6.57701-3.24369 14.05446-3.94744 21.50513-.46159 8.52256-2.4112 22.46679-14.20407 21.47714-6.74396-1.59984-10.15427-7.0182-12.93028-10.77858-.26399-1.26462.28457-1.89581.16961-2.3751-1.4429-6.02982-.99923-15.073.86224-25.15705 1.59642-8.64837 4.32605-17.37934 8.03711-23.86378z" id="path3754" style="fill:#000;stroke-width:3.73063874"/><path d="m273.33176 499.5114c-.0259 1.01595-1.33317 4.58893-2.58501 6.28578-2.85074 3.32969-6.25703 4.81119-10.2637 3.5121-1.87331-.0336-7.86843-4.8028-10.73529-9.65402 1.22019-4.21763 18.24644 2.42805 23.584-.1437z" id="path3756" class="areola"/><path class="skin penis" d="m259.1768 446.78011c4.42968-9.4388 20.2627-15.62044 21.77219 6.03788.50026 1.21901-.67496 6.69447-2.08764 13.58081-1.61785 6.72305-3.50523 14.24152-4.13462 21.85776-.0775 4.25933-.46097 7.03712-.83975 9.64638-2.77769 3.42812-17.93764-1.35689-23.21274-.88776-1.2903-6.1638-.34933-15.53301 1.31525-25.84111 1.4275-8.84047 3.86848-17.7654 7.18708-24.39396z" id="path3758"/></svg>