<svg viewBox="0 0 560 1e3"><path id="path2000-7-9" d="m270.90491 491.25491c-.0416 1.75507-2.23632 3.82167-4.43899 4.53548-1.27333.41264-2.73234.2245-3.64491.20915-1.46387-.0246-3.55474-1.94109-3.80226-2.63949.37786-3.00704 6.25383-5.96473 11.88616-2.10514z" style="fill:#000"/><path id="path2000-7" d="m270.26854 491.20005c-.0388 1.63941-1.88459 3.23837-3.93668 3.90514-1.18629.38545-2.54557.20971-3.39576.19537-1.3638-.023-3.04658-1.48172-3.27718-2.1341.35203-2.80888 5.3623-5.57167 10.60962-1.96641z" class="areola"/><path id="path2000-2" d="m260.66961 452.02845c3.49361-6.55842 15.98078-10.85364 17.17129 4.19537.39453.84701-.53232 4.65158-1.6465 9.43643-1.27597 4.67147-2.28764 9.98253-2.784 15.27455-.38874 4.14463-.50294 8.20691-3.0612 10.79874-1.81955 1.54577-4.76682 2.10459-7.27106 2.0661-1.47154-.0226-4.04594-.0896-4.49707-.43928-1.7956-1.39184-2.81539-2.78972-4.30766-4.82663-.18629-.89826.20062-1.34655.11974-1.68699-1.01759-4.28281-.70468-10.70595.60812-17.86842 1.12589-6.14268 3.05104-12.34411 5.66834-16.94987z" style="fill:#000"/><path id="path2000" d="m261.52317 450.74766c3.12412-6.70413 14.29064-11.09479 15.35524 4.28858.35281.86583-.47602 4.75491-1.47236 9.64608-1.14103 4.77526-2.47212 10.11544-2.91599 15.52503-.34763 4.23671-.44974 8.38926-2.73743 11.03867-1.62713 1.58011-3.92672 2.08311-6.16611 2.04377-1.31592-.0232-4.00183-.003-4.40525-.36016-1.60569-1.42275-2.42718-2.69459-3.76162-4.77676-.19412-.59735.1794-1.37648.10707-1.72448-.90997-4.37796-.24636-11.03268.92759-18.35429 1.00682-6.27915 2.72835-12.61835 5.06886-17.32644z" class="skin penis"/></svg>