<svg viewBox="0 0 560 1e3"><path class="hair" id="path1787" d="m304.07864 73.366036c-3.0868-.0093-6.21888.344687-9.31189 1.019802-.96739.211153-8.91364.78421-9.8708 1.056902-.94422.269003 3.41296.611831 2.48368.938226-2.03016.713057-2.33125 1.185113-4.25246 2.153262-.69303.349232-8.35996 2.449292-9.03423 2.82943-.72065.406282 3.61529.157295 2.91892.597452-2.5615 1.619065-3.01122 2.399782-5.15049 4.430333-.64359.610879-6.07724 4.218281-6.67393 4.862068-.5839.629974 2.66811-.516843 2.13291.142743-1.76518 2.175441-2.25527 3.31933-3.40284 5.772966-.36856.788012-3.95178 6.0872-4.24745 6.89931-.35947.9874 2.14908-1.25677 1.90467-.2374-.71965 2.41666-.82515 3.70977-1.20599 6.37466-.11492.80413-2.21507 6.46844-2.30086 7.29462-.0877.84426 1.71467-1.71163 1.65659-.8446-.1319 1.9689-.0636 2.5586-.0501 4.64255.0655.61434-.91013 4.91034-.89063 5.61042.0116.41705 1.1563-1.22358 1.1543-.77989-.007 1.65551 1.45367-.37535 1.32587 1.55813-.0243.36691-1.41902 4.29091-1.44532 4.6647-.0231.32763 1.32293-2.6892 1.29883-2.357-.24824 3.42306-.53926 7.03399-.60156 10.49239-.0156.86366-1.69679 8.32736-1.67969 9.16691.0182.89484 1.86254-2.7745 1.92774-1.91939 1.07897 2.42618 1.67483 5.23528 2.54492 7.26509.15841.36955 1.42142 9.33701 1.51562 9.50102.87548-11.11346-.20563-9.44118-1.20703-22.48551-.27607-3.5961 1.4707-10.86301 1.4707-10.86301-.0865-.64073-.97271-15.18027-.97954-15.34081.40007-.10219-8.85908 18.58959-8.93738 25.9306 1.86762-1.95434 3.60797-3.90486 8.25513-8.62641.56362-.57264 4.03871-5.9993 4.58537-6.55053.62125-.62644-.18225 3.3097.39985 2.72945 3.15611-3.14611 7.36508-8.42185 7.63678-8.34867.77405.0379-1.62592 4.20642-1.62592 4.20642 3.87435-2.33377 7.29689-4.92541 10.84036-7.76073l-1.98503 4.23259c-.10955.23359 9.22557-4.49979 10.36752-4.83424.20092-.0588-.64243 3.52618-.40588 3.31335 2.98793-2.3091 6.76439-4.99706 8.56123-6.81548.47679-.4817-.30858 4.72835.1067 4.19393.50489-.64977 3.96306-8.38273 4.37149-9.11425 1.6223 3.09499 3.80631 13.95022 4.84792 16.54396.32854.81809.88135 9.3263 1.16045 10.10302.288.80151.96366-3.4781 1.20334-2.71622.83795 2.66359.73111 2.44702 1.09909 4.7493.16692 1.04436-.39237 9.24741-.2941 10.24605.10699 1.08726 1.04276-2.20485 1.09004-1.14965.14094 3.14511-.10988 3.37059-.0999 6.63865.003 1.0468-.67241 8.36682-.64209 9.46759.0261.94582.70906-1.59595.76862-.59651.20049 3.36443.67033 4.32872 1.55904 8.61577-.0801-1.10403.89487-4.30296 1.40905-5.85359.25737-.77614.63941 1.65547.67931 1.52366.24315-.80319.97769-5.53684 1.38542-6.34816 4.05541-8.06969 10.47872-15.68738 11.14732-16.37536 1.64491-3.8081 2.7973-7.81963 3.55078-11.83246 1.44058-.46287 9.0813-10.07869 9.09961-10.90865.001-.86793 1.2311-7.83575 1.2153-8.67523-.0148-.78351-1.31894 2.48255-1.34934 1.72709-.72166-5.6387-1.02174-10.26725-1.46006-16.288674-.22816-.859339-1.26777 2.337332-1.52773 1.524042-1.60132-3.252954-1.90764-6.859089-3.70537-10.583323-.5226-.971889-.14689 2.185498-.95896 1.520368-.92918-.761041-2.50073-2.460782-3.24704-3.310372-.47188-.66716-3.08663-6.357112-3.60399-6.988706-.50964-.622182.0791 2.515154-.62856 2.123268-1.90246-1.053516-3.34467-1.697178-5.47751-3.057451-.63365-.404124-4.73885-5.087608-5.42279-5.456946-.68526-.370048.85738 2.911206.11861 2.57762-6.25183-1.486491-10.83028-3.05518-18.7137-4.103602-1.19735-.119108 3.11781 1.886656 1.90124 1.882991z"/></svg>