<svg viewBox="0 0 560 1e3"><path style="display:inline;fill-opacity:1;fill-rule:evenodd;fill:#000;opacity:1;stroke-dasharray:none;stroke-linecap:butt;stroke-linejoin:miter;stroke-miterlimit:4;stroke-opacity:0;stroke-width:3.0649333;stroke:#000" d="m347.04161 402.77706c10.63176 7.73346 39.22012 21.30942 42.25326 64.26536.60691 7.46558-1.39082 31.27152-18.79583 43.22353-3.33339.85196-15.42961 5.54301-15.84941 4.79946-.13207-.23393-2.19467 1.43762-2.19467 1.43762-8.96261-21.73836-1.87485-109.72281-5.41335-113.72597z" id="path7849"/><path style="display:inline;fill-opacity:1;fill-rule:evenodd;fill:#5d536c;stroke-dasharray:none;stroke-linecap:butt;stroke-linejoin:miter;stroke-miterlimit:4;stroke-opacity:0;stroke-width:3.0649333;stroke:#000" d="m346.56325 402.19876c22.99423 15.50567 43.31351 39.27632 40.70423 72.42768-1.20344 15.28979-6.82876 28.90126-20.44802 35.69221-.0512.0738-9.02467 3.39935-10.56458 4.6892-.17143.14359-.46235-.0846-.50882-.24256-6.98303-23.7292-4.66092-107.45085-9.18281-112.56653z" id="path7851"/></svg>