<svg viewBox="0 0 560 1e3"><g data-transform="boob" transform="matrix(1.1899396,0,0,1.1247504,-49.050018,-33.548868)" id="g5100" class="scaler_"><path class="areola" d="m300.59325 278.93019c-3.27364-.29418-7.18241-.94087-9.99406-3.94365-2.1806-2.3288-3.14596-5.44017-3.64577-9.06937-.54333-3.945 1.24058-8.20395 4.41331-11.40561 2.34663-2.36801 4.25524-3.36814 8.90087-3.95007 2.94618-.36909 7.84573 1.74141 10.56379 5.43725 2.07348 2.81939 3.01955 6.3851 2.90876 9.75811-.1344 4.09036-1.50288 7.25598-3.519 9.46104-2.64754 2.89563-6.59498 3.98485-9.6279 3.7123z" id="path5074"/><path d="m234.9399 250.17214c.28136.86787.48983 9.32585-1.58456 13.67346-3.63007 9.73234-12.00967 12.21394-14.96892 13.50456-.21734.0179-.45619-.0958-.61865-.38034-.44258-.7751-1.08178-7.22057-.72156-10.45174.50017-4.48847.64294-4.90132 1.4123-8.10007.0353-.14617.025-.33027.13881-.41314.57411-.41777 3.50327-1.97636 5.25535-2.96489 2.50708-1.4145 5.50185-2.74227 7.46219-3.65846 1.63507-.68104 3.57817-1.55368 3.62504-1.20938z" class="areola" id="path5081"/></g></svg>