<svg viewBox="0 0 560 1e3"><path style="display:inline;fill-opacity:1;fill:#000;opacity:1" d="m235.66938 270.11353c-.85981 16.20652.46562 34.05588 1.63511 50.30792-5.09889 22.83026-25.73967 47.72236-12.45982 92.95503 16.36196-.34408 105.60577 3.89452 138.58039 3.87992 13.09719-11.55422 10.31966-32.99067-6.45231-69.06817 6.32034-21.77853 15.93867-48.45025 14.30715-72.09737-20.00731-23.65544-41.86246-52.72373-41.90888-71.09597-5.0856-1.53654-9.2662-4.20037-11.97165-6.99799-.44453 1.7818-1.99968 15.88708-2.14306 17.33056-12.09829 5.75915-27.87745 3.2969-33.51216-1.00011.88357-3.08367 2.87976-7.82151 6.26875-14.36009-2.95309 1.88608-8.68497 4.12374-12.65394 6.03362-26.99954 15.36213-37.55765 48.60157-39.68958 64.11265z" id="path11635-4-8"/><path id="path11637-0-6" d="m355.17505 347.52867c-29.21784 29.22016-9.37555 47.75607-3.12081 65.25472-40.10653 11.44456-68.87212 43.77714-69.64379 46.11491-.78385 1.88787-1.52083 7.17046-4.01773 8.95087-1.21712.86786-3.81296-.28396-4.0649-.30806-.29397-.0276-.90793 1.12097-3.12075.54862-5.65546-1.4629-6.42904-6.68611-7.00115-8.63681-17.98917-22.24927-34.48124-43.66029-39.20665-44.84924 7.94787-20.31139 14.53739-34.53836 15.52113-39.64488 10.38179-29.98171-1.60628-53.86605-3.8543-79.27087-2.57193-41.40752-.60801-79.25375 46.47223-94.71941 1.01736-.38611 3.91029-7.60359 4.38199-7.58682.0625.002.87941.21258 1.09234.25439.10106.0198 1.21458-8.19442 1.06573-10.68266-.39821-6.65664 17.38652-8.92202 24.52461-9.90337.0892-.0123 2.05342 20.69408 2.14258 20.68153 1.81469-.25539 1.49055-.38138 3.26317-.74859.97035 2.05878 1.7563 4.98559 2.89961 6.71944 1.48672 1.12706 13.50726 6.48585 14.03914 7.82821 25.85476-7e-4 34.52747 29.08831 35.71943 48.98087 1.55035 31.27451-7.36367 66.35117-17.09188 91.01715z" style="display:inline;fill-opacity:1;fill-rule:evenodd;fill:#333;opacity:1;stroke-dasharray:none;stroke-linecap:butt;stroke-linejoin:miter;stroke-miterlimit:4;stroke-opacity:1;stroke-width:0;stroke:#000"/><path id="path11641-6-9" d="m284.70103 205.89909c8.47908 3.49973 16.78281 4.10456 33.81887 1.06136.0.0-1.86037-13.36895-2.09459-13.34424-11.75085 1.23945-23.23623.32794-27.85733-.2623-.14584.19372-3.86695 12.54521-3.86695 12.54521z" style="display:inline;fill-opacity:1;fill:#c8c8c8;opacity:1;stroke-dasharray:none;stroke-linecap:butt;stroke-linejoin:miter;stroke-miterlimit:4;stroke-opacity:1;stroke-width:0;stroke:#000"/><path id="path11643-9-3" d="m367.23624 308.98055c-7.52713 18.00939-25.02123 26.43891-26.02655 27.66423-29.21784 29.59557 4.58981 57.68011 10.84455 75.40358-35.33356 15.83423-68.06904 43.07392-69.54782 47.1211-.78385 1.91213-1.39675 7.02336-3.89365 8.82664-1.21712.87901-4.18926.0916-4.4412.0672-.29397-.0279-1.1191.72745-3.33192.14775-5.65546-1.48169-6.14243-6.77201-6.71454-8.74778-17.10528-23.95405-37.31725-43.48314-39.12584-45.57125 7.94787-20.57234 14.53739-34.98209 15.52113-40.15422 2.40743-12.65739 4.56181-31.43999 4.51599-34.35576-.31392-19.97734-8.18837-33.60229-9.0774-46.30072 12.59934-7.37331 25.27935-12.45731 35.572-13.90821 2.27355-.3205 4.80632-6.21689 7.13623-6.25261 1.73702-.0266 3.36824-.0535 5.45588.26764 2.05379.31597 3.34168 5.89267 5.27067 6.26046 17.29016 3.29664 44.24296 14.75732 77.84248 29.53194z" style="display:inline;fill-opacity:1;fill-rule:evenodd;fill:#000;opacity:1;stroke-dasharray:none;stroke-linecap:butt;stroke-linejoin:miter;stroke-miterlimit:4;stroke-opacity:1;stroke-width:0;stroke:#000"/><path id="path11645-6-2" d="m366.52914 310.18168c-2.92228 17.93631-9.31938 29.11257-10.57541 37.50024 17.19359 36.94867 16.91625 58.53165 7.73439 70.1266 1.17083 7.99741-80.51558 39.06375-81.28725 41.40152-.78385 1.88787-1.2912 6.47836-3.7881 8.25877-1.21712.86786-4.18926.0964-4.4412.0723-.29397-.0276-.7441.846-2.95692.27365-5.65546-1.4629-6.01099-5.87323-6.5831-7.82393-33.43111-16.74711-34.90687-44.1982-39.63228-45.38715-11.28585-53.06005 11.78652-75.65224 13.46164-94.32804-.34145-5.66966-1.67941-19.80296-2.14836-25.47159 12.59934-7.27978 24.92579-11.77793 35.21844-13.21043 2.27355-.31643 4.80632-6.13803 7.13623-6.1733 1.73702-.0263 3.36824-.0528 5.45588.26425 2.05379.31196 3.34168 5.81792 5.27067 6.18105 17.29016 3.25482 43.53586 13.72885 77.13538 28.31606z" style="display:inline;fill-opacity:1;fill-rule:evenodd;fill:#c8c8c8;opacity:1;stroke-dasharray:none;stroke-linecap:butt;stroke-linejoin:miter;stroke-miterlimit:4;stroke-opacity:1;stroke-width:0;stroke:#000"/><path style="display:inline;fill-opacity:1;fill-rule:evenodd;fill:#000;opacity:1;stroke-dasharray:none;stroke-linecap:butt;stroke-linejoin:miter;stroke-miterlimit:4;stroke-opacity:1;stroke-width:0;stroke:#000" d="m282.45842 458.56662c-.27835.87834-1.09442 7.30349-3.59097 9.21774-.26922.20641-1.13559 1.14752-4.57861.28177-.17398-.0437-1.37228.71664-3.61539.0361-5.82941-1.76869-6.22252-8.10904-6.31915-8.53686 8.23205-5.09165 11.4291-4.00072 18.10412-.99875z" id="path11647-8-2"/><path style="display:inline;fill-opacity:1;fill-rule:evenodd;fill:#c8c8c8;opacity:1;stroke-dasharray:none;stroke-linecap:butt;stroke-linejoin:miter;stroke-miterlimit:4;stroke-opacity:1;stroke-width:0;stroke:#000" d="m282.65569 458.4011c-.78318 1.88787-2.10206 7.06063-4.59684 8.84104-1.21608.86786-3.67141-.009-3.92314-.0331-.29372-.0276-.96753.96577-3.15689.31564-4.33861-1.28834-5.1633-4.97917-6.6404-7.92987 7.24395-6.87766 11.19968-9.59173 18.31727-1.19371z" id="path11649-2-2"/><path id="path11651-4-6" d="m264.82065 278.49107c-.0385.10483-5.46248 3.46698-5.52549 3.54379 3.92723 27.86177-5.75934 106.08469-15.35713 149.48007.14099.46278.14882.68187.54193.6861 10.44835-26.60225 20.34069-153.70996 20.34069-153.70996z" style="display:inline;fill-opacity:1;fill:#333;opacity:1;stroke-dasharray:none;stroke-linecap:butt;stroke-linejoin:miter;stroke-miterlimit:4;stroke-opacity:1;stroke-width:0;stroke:#000"/><path id="path11653-2-7" d="m303.35029 280.35522c.0385.10527 5.46248 3.48145 5.52549 3.55859-7.78598 18.03785-20.29212 104.09437-2.94441 153.45275-22.17556-43.19241-2.58108-157.01134-2.58108-157.01134z" style="display:inline;fill-opacity:1;fill:#333;opacity:1;stroke-dasharray:none;stroke-linecap:butt;stroke-linejoin:miter;stroke-miterlimit:4;stroke-opacity:1;stroke-width:0;stroke:#000"/><path id="path11655-5-8" d="m363.04879 325.2924c.0385.10316-.68051 1.86481-.6175 1.9404-24.98357.30989-52.80167-1.38676-65.57744 8.14784.20285-.37473.17796-2.72538.45322-3.07491 8.90331-11.30529 65.74172-7.01333 65.74172-7.01333z" style="display:inline;fill-opacity:1;fill:#333;opacity:1;stroke-dasharray:none;stroke-linecap:butt;stroke-linejoin:miter;stroke-miterlimit:4;stroke-opacity:1;stroke-width:0;stroke:#000"/><path id="path11657-5-4" d="m237.31399 324.78554c-.0116.10316-.18381 1.76884-.20281 1.84443 7.5386.30989 18.53554 2.10457 22.39054 8.10364-.0612-.37473.0237-2.75347-.13676-3.07491-3.12846-6.26715-22.05097-6.87316-22.05097-6.87316z" style="display:inline;fill-opacity:1;fill:#333;opacity:1;stroke-dasharray:none;stroke-linecap:butt;stroke-linejoin:miter;stroke-miterlimit:4;stroke-opacity:1;stroke-width:0;stroke:#000"/><path id="path4386-3-8-7-4-2-6" class="shadow" d="m362.40568 418.62719c-51.47912 13.69068-75.78655 31.26041-78.35915 35.99635 10.29989-9.14088 63.50953-31.28541 78.35915-35.99635z"/><path id="path4388-4-6-2-3-7-9" class="shadow" d="m260.91357 455.47548c-6.81704-9.41592-28.83006-31.99347-34.93819-34.15183 5.05404 5.44075 26.5203 25.35081 34.93819 34.15183z"/></svg>