<svg viewBox="0 0 560 1e3"><path style="fill:#000" id="path2165" d="m219.64496 441.38095c.30335-.12599.79455.0231 1.07615-.10515 13.40073-6.10165 2.31081-14.88169-1.02835-14.46173-9.01129 3.16012-5.54487 12.09421-2.60884 12.58656.0421.0305.35052.78358 2.56102 1.98032z"/><path class="areola" id="path2167" d="m217.22462 438.42725c4.80334 2.87609 10.42202-1.51056 10.36965-3.96651-1.40253-3.98051-4.28263-7.54413-8.25626-6.77067-6.20888 2.4143-6.29728 7.30115-3.28786 11.02184.29502.22651.67876-.17394 1.17447-.28466z"/><path style="fill:#000" id="path2169" d="m248.35056 461.9701c12.58975 3.50784 25.27624 7.57227 29.62629-3.33063 1.34238-3.77013.4805-6.4377-2.20813-7.41574-11.09916-3.46408-34.71908-13.61262-41.62089-20.10434-.95291-1.45894-.79258-1.66915-1.7619-2.67047-2.05503-2.12285-4.69688-1.90623-6.85604-1.78806-1.30119.0712-4.74045-.32914-5.78493.0868-.87738.34944-1.56208.84512-2.06126 1.47748-.1552.19657 1.03092-.42948 1.14222-.51338 3.13435-2.36195 15.65617 7.57304 1.70005 13.39142-1.29192.53861-5.24957-3.48097-5.2143-3.34388.22576.87755 1.73284 2.25898 3.059 3.14295.79185.52782 1.6928.72527 2.01363 1.29182 3.8568 6.81066 12.36018 14.28876 27.96626 19.77585z"/><path style="fill:#000" id="path2171" d="m216.12116 435.34254c.0682.49985.6843 1.51303 1.35077 1.69563-.006-.0247-.16385-.88733-.17022-.91355-.2156-.88578-1.16957-3.49361.38681-6.42055-1.56572 1.77216-1.84827 3.52682-1.56736 5.63847z"/><path id="path2173" class="skin penis" d="m249.0499 461.33828c12.47198 3.47504 24.45734 8.25986 29.33786-2.51155 1.32983-3.73487 1.24663-5.85943-1.41686-6.82834-11.57203-2.77234-35.99349-13.28235-42.83076-19.71335-.94398-1.4453-.78516-1.65354-1.74542-2.64549-2.0358-2.103-3.8244-2.60938-5.96336-2.49232-1.28902.0705-4.53726-.13487-5.64127.0411.31175.18497 1.32941.10208 2.67722 1.03294 1.96666 1.35827 4.01823 3.66222 4.15673 6.08198.17966 3.13944-4.97663 7.62179-10.29531 4.55964-.26619-.15324-.69917.14088-.8851.20482-.21319.14199 5.00049 3.22778 4.89025 3.4675 3.82072 6.74696 12.25587 13.36721 27.71599 18.80296z"/></svg>