<svg viewBox="0 0 560 1e3"><path style="display:inline;fill:#000;stroke-width:1.79057908" d="m459.70921 461.34288c.0522-.0727-11.67013-12.46713-14.18875-15.99117-.062-.0868.24319 6.57332.15329 6.51094-9.01424-6.25439-28.60442-20.58459-42.69357-45.80429-26.58589-47.58898-124.58446 9.50551-129.23486 9.50551l-1.59826 8.34375c4.04301.0 103.64605-56.24068 127.88538-15.52466 16.93272 28.44274 34.94681 42.19845 44.15888 46.72213.0889.0437-4.76008 4.66602-4.66353 4.6586 2.83781-.21792 20.00457 1.82539 20.18142 1.57919z" id="path8383"/><path style="display:inline;fill:maroon;stroke-width:1.79057908" d="m457.3557 460.2162c.0522-.0727-10.45479-10.76565-11.82436-14.86422-.0338-.10119-2.1212 5.44637-2.2111 5.38399-9.01424-6.25439-28.60442-20.58459-42.69357-45.80429-26.58589-47.58898-124.58446 9.50551-129.23486 9.50551l-1.59826 8.34375c4.04301.0 103.64605-56.24068 127.88538-15.52466 16.93272 28.44274 34.94681 42.19845 44.15888 46.72213.0889.0437-2.40768 5.85129-2.32124 5.80765 2.97039-1.49955 17.66228.67634 17.83913.43014z" id="path8385"/><path id="path8387" d="m332.11641 378.81779c34.5675 37.13805 57.10655 57.55733 55.90725 84.35398-.0429.95889-.0201 1.91381-.0922 2.86185-.84329-.15883-20.10035 7.29882-23.35523 8.91673-14.49086-15.68658-32.28867-94.83835-32.45978-96.13256z" style="display:inline;fill-opacity:1;fill-rule:evenodd;fill:#000;stroke-dasharray:none;stroke-linecap:butt;stroke-linejoin:miter;stroke-miterlimit:4;stroke-opacity:0;stroke-width:2.97439027;stroke:#000"/><path id="path8389" d="m330.54529 379.68976c29.16485 29.75771 55.0194 53.93212 57.47738 83.50352-.84329-.15883-17.65894 5.89257-20.91382 7.51048-14.49086-15.68658-36.39245-89.71979-36.56356-91.014z" style="display:inline;fill-opacity:1;fill-rule:evenodd;fill:maroon;stroke-dasharray:none;stroke-linecap:butt;stroke-linejoin:miter;stroke-miterlimit:4;stroke-opacity:0;stroke-width:2.97439027;stroke:#000"/><path id="path8391" d="m352.20866 402.01142c.0688.41134.47209-.12525.58749.88529-.96829.15367-4.4133 1.40713-4.58255 1.41482-.30453-.57217-.50525-.4814-.54378-1.0685.73033-.2578 4.36951-1.22432 4.53884-1.23161z" style="display:inline;fill-opacity:1;fill-rule:evenodd;fill:#000;stroke-dasharray:none;stroke-linecap:butt;stroke-linejoin:miter;stroke-miterlimit:4;stroke-opacity:0;stroke-width:2.97439027;stroke:#000"/></svg>