<svg viewBox="0 0 560 1e3"><path d="M333.33307 123.1343s16.83582-10.30501 25.37582-13.54688C359.99518 109.09913 361.9557 108.10838 362.55195 108.71809 362.7691 109.5347 355.18424 118.21687 350.84671 123.28592 346.50917 128.35499 327.94581 146.75611 327.94581 146.75611 329.37149 137.38878 331.77388 127.49717 333.33307 123.1343z" class="skin" id="path38653-3"/><path id="path38659-2" class="shadow" d="M329.05424 145.6664c13.54737-14.04885 27.09826-28.06527 31.36867-33.74749C351.8311 123.12395 339.61301 135.49808 329.05424 145.6664zM333.90581 138.0492C337.90724 133.28114 338.5314 133.14409 342.80182 127.46188 338.8283 133.54039 338.05642 133.44936 333.90581 138.0492zm26.83446-28.13913C359.03883 111.09865 357.28313 112.11302 355.68656 113.05688 354.91004 113.8048 351.18421 118.51926 347.98705 121.69129 354.32937 114.23909 356.40778 112.50815 352.1968 115.13796 350.97244 115.90259 349.70171 116.66942 348.3715 117.50609 346.41494 118.73671 344.57603 120.42018 340.96418 127.06283 343.9161 120.13505 348.73167 116.94986 344.26088 120.12963 340.13706 123.06166 336.19818 126.35694 332.74885 130.30599 336.502 125.55752 340.85011 121.91752 345.58482 118.73515 350.39849 115.77838 355.50335 113.05696 360.74027 109.91007z"/></svg>