<svg viewBox="0 0 560 1e3"><path d="m304.07864 73.366036c-3.0868-.0093-6.21888.344687-9.31189 1.019802-.96739.211153-8.91364.78421-9.8708 1.056902-.94422.269003 5.10046.236831 4.17118.563226-2.03016.713057-4.01875 1.560113-5.93996 2.528262-.69303.349232-8.35996 2.449292-9.03423 2.82943-.72065.406282 5.55279-.905205 4.85642-.465048-2.5615 1.619065-4.94872 3.462282-7.08799 5.492833-.64359.610879-6.07724 4.218281-6.67393 4.862068-.5839.629974 3.66811-1.704343 3.13291-1.044757-1.76518 2.175441-3.25527 4.50683-4.40284 6.960466-.36856.788012-3.95178 6.0872-4.24745 6.89931-.35947.9874 2.58658-2.50677 2.34217-1.4874-.71965 2.41666-1.26265 4.95977-1.64349 7.62466-.11492.80413-2.21507 6.46844-2.30086 7.29462-.0877.84426 1.83967-3.14913 1.78159-2.2821-.1319 1.9689-.18862 3.9961-.17513 6.08005.0655.61434-.91013 4.91034-.89063 5.61042.0116.41705 1.0313-2.78608 1.0293-2.34239-.007 1.65551 1.57867 1.18715 1.45087 3.12063-.0243.36691-1.41902 4.29091-1.44532 4.6647-.0231.32763 1.32293-2.6892 1.29883-2.357-.24824 3.42306-.53926 7.03399-.60156 10.49239-.0156.86366-1.69679 8.32736-1.67969 9.16691.0182.89484 1.73754-4.837 1.80274-3.98189.20397 2.67618 1.79983 7.29778 2.66992 9.32759.15841.36955 1.42142 9.33701 1.51562 9.50102.87548-11.11346-.20563-9.44118-1.20703-22.48551-.27607-3.5961 1.4707-10.86301 1.4707-10.86301-.0865-.64073-.97271-15.18027-.97954-15.34081.40007-.10219-8.85908 18.58959-8.93738 25.9306 1.86762-1.95434 3.60797-3.90486 8.25513-8.62641.56362-.57264 4.03871-5.9993 4.58537-6.55053.62125-.62644-1.68929 3.62664-1.10719 3.04639 3.15611-3.14611 8.87212-8.73879 9.14382-8.66561.77405.0379-3.12852 3.94125-3.12852 3.94125.53548-.1608 4.84011-3.53018 5.46285-3.51249.29183-.17112 6.88011-3.98307 6.88011-3.98307l-3.7528 3.17193c-.19704.16655 9.97456-2.26968 11.26029-2.64858 1.22244-.36025-3.52003 2.61771-2.40848 2.15488 1.05222-.43813 7.96459-4.31145 8.90543-4.84984 1.61666-.92513 3.06026-2.00426 4.30117-3.258.47679-.4817-2.13885 5.11668-1.7236 4.58226.50489-.64977 4.02556-7.44523 4.43399-8.17675 1.6223 3.09499 3.80631 13.95022 4.84792 16.54396.32854.81809.88135 9.3263 1.16045 10.10302.288.80151.30075-6.12975.54043-5.36787.83795 2.66359 1.39402 5.09867 1.762 7.40095.16692 1.04436-.39237 9.24741-.2941 10.24605.10699 1.08726.86598-5.03328.91326-3.97808.14094 3.14511.0669 6.19902.0769 9.46708.003 1.0468-.67241 8.36682-.64209 9.46759.0261.94582.75325-4.33599.81281-3.33655.20049 3.36443.62614 7.06876 1.51485 11.35581-.0801-1.10403.89487-4.30296 1.40905-5.85359.25737-.77614.63941 1.65547.67931 1.52366.24315-.80319.97769-5.53684 1.38542-6.34816 4.05541-8.06969 10.47872-15.68738 11.14732-16.37536 1.64491-3.8081 2.7973-7.81963 3.55078-11.83246 1.44058-.46287 9.0813-10.07869 9.09961-10.90865.001-.86793 1.2311-7.83575 1.2153-8.67523-.0148-.78351-1.27475 4.55968-1.30515 3.80422-.15725-3.91242-.52882-7.42756-1.16406-10.32624-.18738-.85505-.12404-7.225442-.34019-8.039564-.22816-.859339-.73744 3.839934-.9974 3.026644-.51579-1.613661-1.09393-3.136235-1.73342-4.565945-.37151-.830587-2.08955-6.752425-2.50228-7.51998-.5226-.971889.24774 3.229621-.34024 2.360057-.66401-.982012-3.11945-3.300471-3.86576-4.150061-.47188-.66716-3.08663-6.357112-3.60399-6.988706-.50964-.622182 1.07883 3.813451.52049 3.228122-1.63729-1.716429-4.49372-2.802032-6.62656-4.162305-.63365-.404124-4.73885-5.087608-5.42279-5.456946-.68526-.370048 2.05062 3.574119 1.31185 3.240533-3.07864-1.390135-3.88502-1.522191-8.02844-2.209826-1.17169-.194453-10.61045-2.424143-11.8785-2.556689-1.19735-.119108 5.81365 1.886656 4.59708 1.882991z" id="path4833" class="hair"/></svg>