<svg viewBox="0 0 560 1e3"><path style="display:inline;fill-opacity:1;fill-rule:evenodd;fill:#000;opacity:1;stroke-dasharray:none;stroke-linecap:butt;stroke-linejoin:miter;stroke-miterlimit:4;stroke-opacity:1;stroke-width:0;stroke:#000" d="m370.3969 269.0128c.40069 1.40387-1.11583 12.72289-8.30489 37.60241-5.42713 18.7819-12.19382 45.10812-12.7902 46.5662.0897 2.34411 6.53818 14.05382 8.99405 26.00841-36.77086 9.58655-110.59778 11.99867-129.46954-6.85783 2.433-12.49684 9.93148-36.52371 11.94649-51.5937-2.13048-7.70551-3.08737-14.72592-4.11084-28.13828.40962-35.13389 30.30326-40.0847 52.38713-59.43686.97617-2.02088 2.05999-19.89061-11.85024-27.17009-.63873-.33426 8.50566-6.43477 11.03019-11.08711 10.43463 3.8499 24.81641-.002 28.20854-.86431 2.73996 3.91129 10.76982 9.42533 9.55433 10.22428-25.72677 16.91039-30.9022 28.84774-29.45936 29.06832 3.13994 1.52155 66.54554 33.43249 67.65165 34.25705z" id="path5284"/><path style="display:inline;fill-opacity:1;fill-rule:evenodd;fill:#500;opacity:1;stroke-dasharray:none;stroke-linecap:butt;stroke-linejoin:miter;stroke-miterlimit:4;stroke-opacity:1;stroke-width:0;stroke:#000" d="m360.51873 307.70681c-5.91469 18.86306-11.3485 40.65759-11.27871 44.67604.49582 5.07437 6.22897 14.87586 8.60406 26.14521-31.28229 8.06681-114.6775 12.03087-127.27987-7.27988 1.41111-4.24145 10.72754-45.56108 11.32053-50.51049-2.20191-8.47425-3.26007-13.82305-4.1491-26.36041-3.37265-53.10898 5.76723-81.27991 39.20048-88.39617.49229-.51848 9.06754-5.84416 11.38825-10.15275 6.27493 2.2874 16.17671 2.37275 27.87993-.86431 3.74062 5.41389 19.81132 11.22421 20.3432 12.56657 2.58742.19199 9.57783.93138 12.62329 2.06534 33.53732 18.21703 23.79777 65.06109 11.34794 98.11085z" id="path5286"/><path id="path2114-6" class="shadow" d="m283.66521 456.38067c-1.54841.73859-1.78928 15.78672-9.24659 11.14886-5.5459 3.1603-10.12915-4.94173-10.42429-8.4126-.25114-2.95343 3.37748-7.20053 3.87403-6.51846 2.14579-.003 16.30971 2.85987 15.79685 3.7822z"/><path id="path2116-0" class="skin torso" d="m274.36595 467.58332c-3.81452 2.31718-9.64064-2.27902-10.8644-11.68664 5.95334-21.67633 25.49385-8.31185 20.23612.35499-2.87984 4.74713-3.52005 14.37508-9.37172 11.33165z"/><path style="display:inline;fill-opacity:1;fill:#000;stroke-dasharray:none;stroke-linecap:butt;stroke-linejoin:miter;stroke-miterlimit:4;stroke-opacity:1;stroke-width:0;stroke:#000" d="m362.4682 408.66378c-.0813-.25494-.0369-3.51911-.0369-3.51911-37.18529 8.22641-89.79761 14.83384-136.88585 1.62797-.0404-.0164.30283 2.189.12956 6.49528 30.89873 13.95984 114.13923 9.25249 136.79318-4.60414z" id="path2118-9"/><path id="path2120-4" d="m268.15022 466.84042c1.97544 1.15064 3.44304 1.50895 6.29117.74829 1.48394 1.11892 3.67809 1.01117 5.52348-.15189 12.34413-20.92611 29.1042-34.50275 48.97711-41.71628 10.223-3.71078 22.67972-3.07023 33.381-4.75194.78922-5.4158.35644-11.80495.0568-12.74471-24.81426 5.52337-96.69219 15.64041-136.71081-1.10008-.0611.72891.0943 3.49625.19492 4.48571-1.01232 2.05127-1.8005 5.00623-3.07718 9.05261 4.22581 2.42316 7.46382 4.97797 10.27417 7.74862.42664 8.69013 14.05707 21.05423 35.08935 38.42967z" style="display:inline;fill-opacity:1;fill:#4d4d4d;stroke-dasharray:none;stroke-linecap:butt;stroke-linejoin:miter;stroke-miterlimit:4;stroke-opacity:1;stroke-width:0;stroke:#000"/><path id="path2122-6" d="m225.81842 411.58888c35.65478 14.81043 121.42276 5.37241 136.68022-2.95107.17382-1.68154.2178-2.5829-.0339-3.48489-58.31295 15.78964-120.9211 9.70164-136.8913 1.86045-.19298 1.12545.0537 2.37563.24498 4.57551z" style="display:inline;fill-opacity:1;fill:#999;stroke-dasharray:none;stroke-linecap:butt;stroke-linejoin:miter;stroke-miterlimit:4;stroke-opacity:1;stroke-width:0;stroke:#000"/><path id="path2124-0" d="m275.25299 462.86252c-12.30071-3.84341-9.97725-39.56452-8.12905-43.86741.10337-.24065 6.70466-.007 6.80117-.0386-.14286-.008-.28501-.0153-.42641-.0219-4.0967-.18979-7.561.22503-9.12434-.44654-1.55247 9.38892-6.14341 45.13839 10.87863 44.37445z" style="display:inline;fill-opacity:1;fill:#999;stroke-dasharray:none;stroke-linecap:butt;stroke-linejoin:miter;stroke-miterlimit:4;stroke-opacity:1;stroke-width:0;stroke:#000"/><path id="path2126-0" d="m324.23328 427.46565c-3.54385-4.72455-4.58363-8.98886-4.9291-11.08235-1.02422-.29348-2.03709.77235-2.39603.55362-.0361.57214 1.60868 5.44622 5.93925 10.97322.79536-.22124.67963-.24922 1.38588-.44449z" style="display:inline;fill-opacity:1;fill:#999;stroke-dasharray:none;stroke-linecap:butt;stroke-linejoin:miter;stroke-miterlimit:4;stroke-opacity:1;stroke-width:0;stroke:#000"/><path id="path2128-3" d="m233.05215 427.945c3.55397-4.71055 5.66482-10.40051 5.21735-13.11208-1.02422-.29348-.41393-.14186-.77287-.36059-.0557.88313-.96077 6.97597-5.44961 12.86117.31554.91926.31461.36013 1.00513.6115z" style="display:inline;fill-opacity:1;fill:#999;stroke-dasharray:none;stroke-linecap:butt;stroke-linejoin:miter;stroke-miterlimit:4;stroke-opacity:1;stroke-width:0;stroke:#000"/><path d="m329.90785 425.6821c-15.4791 1.19068-42.03653 26.26041-44.60913 30.99635 10.29989-9.14088 29.75951-26.28541 44.60913-30.99635z" class="shadow" id="path2130-5"/><path d="m262.16576 457.53039c-6.81704-9.41592-28.83006-31.99347-34.93819-34.15183 5.05404 5.44075 26.5203 25.35081 34.93819 34.15183z" class="shadow" id="path2132-6"/><path id="path2134-2" class="shadow" d="m262.98857 459.03749c4.57815 9.39542 7.95428 8.94718 11.45233 8.01034.29456-.0789 5.02218 4.77996 9.26343-8.71666-1.38475 8.70911-4.94655 11.61521-9.3291 9.47151-.0226-.0111-2.82256 1.04466-4.71233.003-2.95847-1.63089-6.486-5.556-6.67433-8.7681z"/></svg>