<svg viewBox="0 0 560 1e3"><path id="path5151" d="m299.86232 216.84741c2.86836-3.54688 6.13047-4.63172 3.21235-5.4513-7.79724-2.18996-20.18841-6.10404-44.36313-3.24662-24.78533 7.31531-36.09349 66.51839-42.18502 76.11347 3.89751 5.89815 20.22558 9.21584 31.37429 12.53318 7.40694 2.24606 22.73528-40.86786 32.22793-38.38559 9.85684-18.80023 19.35738-41.1789 19.73358-41.56314z" style="display:inline;fill-opacity:1;fill-rule:evenodd;fill:#000;stroke-dasharray:none;stroke-linecap:butt;stroke-linejoin:miter;stroke-miterlimit:4;stroke-opacity:0;stroke-width:3.04086399;stroke:#000"/><path id="path5153" d="m300.48784 216.69956c2.82896-3.50026 6.04627-4.57084 3.16823-5.37966-7.69014-2.16117-19.91112-6.02382-43.75381-3.20395-22.44421 6.77437-41.29516 76.34376-41.29516 76.34376 1.99562 2.20051 16.53994 6.97346 29.46542 10.70219 7.3052 2.21655 23.5905-39.89505 32.95278-37.44541 9.72145-18.55316 19.09151-40.63773 19.46254-41.01693z" style="display:inline;fill-opacity:1;fill-rule:evenodd;fill:#502;stroke-dasharray:none;stroke-linecap:butt;stroke-linejoin:miter;stroke-miterlimit:4;stroke-opacity:0;stroke-width:3;stroke:#000"/></svg>