<svg viewBox="0 0 560 1e3"><path d="m231.54168 408.55495c7.29569 4 18.02464 8.7 31.43583 10.4 11.58726 1.4 20.06313-.1 32.93787-2.5 25.74948-4.8 49.79067-15.05 49.79067-15.05s.9864 2.5375 3.08637 6.575c-2.72585 4.40415-23.37623 9.92697-28.30774 11.275-4.82803 1.3-11.37269 3.1-20.27772 4.8-9.33418 1.8-17.27361 3.3-27.89527 3.2-3.43326.0-9.07379-.3125-14.97471-1.2125-6.54466-1-29.26491-10.41212-30.08131-11.77624-.71206-.99959-.86097.53322-.7899-1.59876.2022-.939.73166-3.02358 2.15099-4.83125 1.39476-.2 1.85203-.38125 2.92492.71875z" id="path5" style="stroke-width:1.03580642"/><path class="steel_chastity" d="m243.86849 414.06206s8.29688 3.2 18.1023 4.7c12.17594 1.9 44.57046-2.4625 83.7921-17.3625.0.0 1.3123 2.725 3.16782 6.7-8.22066 5.90144-19.86838 8.09724-28.55847 10.4625-5.92635 1.6-12.39146 3.3-20.36509 4.8-11.85269 2.1-24.9984 4.5-40.62241 2.3-6.71997-.51845-33.97126-11.75289-33.92882-11.99375.72893-.92668 2.43166-5.9107 2.97505-6.925 5.40006 2.38118 10.72684 5.54723 15.43752 7.31875z" id="path7-0"/><rect x="266.772" y="407.91211" transform="rotate(0.45160762)" width="10.100405" height="20.000801" id="rect9"/><rect x="266.76672" y="407.9202" transform="rotate(0.45160762)" class="steel_chastity" width="9.1003647" height="19.400776" id="rect11-4"/><circle r="2.9001162" transform="rotate(-89.548392)" cx="-414.13986" cy="271.34311" id="ellipse13"/><rect x="270.67728" y="413.32043" transform="rotate(0.45160762)" width="1.400056" height="9.8003931" id="rect15"/></svg>