<svg viewBox="0 0 560 1e3"><path id="path1628" d="m368.45236 268.83602c.40069 1.40387.82871 12.89967-6.36035 37.77919-5.42713 18.7819-20.56882 29.98312-21.1652 31.4412-5.76961 8.24948-15.17503 22.20843-10.37382 32.19769.20871.43423 2.86633 6.1658 5.95239 12.12819 5.12253 9.89693 11.7358 22.29153 12.56986 25.83552.0.0-51.7146 6.85286-63.22382 35.19023-2.06147 4.01155-2.1084 11.81811-3.46792 16.10443-.27859.87834-1.00697 6.35332-3.50565 8.26757-.26944.20641-1.13656 1.14752-4.58251.28177-.17413-.0437-1.37345.71664-3.61847.0361-5.83439-1.76869-6.66978-8.86034-6.76649-9.28816-1.98539-8.78313-6.24957-28.02971-9.43291-34.24779-14.19124-27.72004-27.97462-8.06406-29.28246-10.40039.41618-1.08804 4.02945-13.36841 6.19444-18.09893 11.62539-25.40153 12.08709-42.05871 12.25836-57.26185.24452-21.70551-6.08737-33.66342-6.98584-46.20078-.0198-35.49113 4.45784-54.24076 39.89672-85.72935-.63873-.33426 5.76049-3.75929 10.28502-6.16163 8.14833-12.70068 6.58972-19.9665 7.42911-19.7012 7.80794 2.46783 11.66265-2.52162 18.04047-7.12212.74373-.53648-.002 15.72836 5.79219 24.68404 1.50252 1.12706 9.10193 4.89722 7.88644 5.69617-25.72677 16.91039-30.9022 28.84774-29.45936 29.06832 3.13994 1.52155 66.54554 33.43249 67.65165 34.25705z" style="display:inline;fill-opacity:1;fill-rule:evenodd;fill:#000;opacity:1;stroke-dasharray:none;stroke-linecap:butt;stroke-linejoin:miter;stroke-miterlimit:4;stroke-opacity:1;stroke-width:0;stroke:#000"/><path id="path1630" d="m368.47602 268.56519c-.022.17059-.0457.36964-.0714.59595-.53166 4.68472-1.93452 21.05197-7.88592 38.54567-6.28969 18.48806-17.77339 26.59126-18.77871 27.80104-8.36776 10.0696-13.07538 17.52333-14.41501 28.45838-1.1072 9.03783 24.36594 44.01876 24.72923 48.81716-40.10653 11.44456-64.97545 42.96388-65.74712 45.30165-.78385 1.88787-4.7912 9.82211-7.2881 11.60252-1.21712.86786-4.56426-.37235-4.8162-.39645-.29397-.0276-.77535.50225-2.98817-.0701-5.65546-1.4629-10.22974-5.40448-10.80185-7.35518-18.43111-29.49711-30.68812-46.0732-35.41353-47.26215 7.94787-20.31139 14.53739-34.53836 15.52113-39.64488 2.40743-12.49684 4.34652-31.04582 4.51599-33.91997 1.27707-21.66848-5.53672-33.8742-6.42575-46.41156-6.62265-51.35898 18.32727-82.76734 38.32548-88.64617.49229-.51848 5.43756-2.25669 9.91452-4.65903 6.67421-5.15908 6.83554-16.63841 7.30509-16.68638 9.66279-.98707 12.18194-7.30033 16.83937-10.42453 1.18842-.79719-.15736 14.75347 6.7887 24.97163 1.48672 1.12706 18.54432 6.19296 19.0762 7.53532.0.0 22.53186-3.73753 32.01093 28.69935.0476.44543 1.31272 7.24328 1.49903 15.71117.21526 6.04642-.68961 12.74307-1.89391 17.43656z" style="display:inline;fill-opacity:1;fill-rule:evenodd;fill:#502;opacity:1;stroke-dasharray:none;stroke-linecap:butt;stroke-linejoin:miter;stroke-miterlimit:4;stroke-opacity:1;stroke-width:0;stroke:#000"/><path id="path1642-7-3-8" d="m353.29167 412.87178c-41.40442 11.97928-67.44312 45.80393-68.23975 48.25093-.80922 1.97608-3.40609 8.93158-5.9838 10.79518-1.25651.90841-4.97969-.19445-5.23978-.21967-.30349-.0289-1.15991.46687-3.44434-.1322-5.83848-1.53126-9.78129-5.44039-10.3719-7.48223-19.02757-30.87531-32.16744-45.02226-35.10121-49.97907 37.58786 12.93186 55.65063 10.35729 128.38078-1.23294z" style="display:inline;fill-opacity:1;fill-rule:evenodd;fill:#333;opacity:1;stroke-dasharray:none;stroke-linecap:butt;stroke-linejoin:miter;stroke-miterlimit:4;stroke-opacity:1;stroke-width:0;stroke:#000"/><path d="m329.8875 425.70175c-15.4791 1.19068-42.03653 26.26041-44.60913 30.99635 10.29989-9.14088 29.75951-26.28541 44.60913-30.99635z" class="shadow" id="path1650-4-1-0"/><path d="m262.14541 457.55004c-6.81704-9.41592-28.83006-31.99347-34.93819-34.15183 5.05404 5.44075 26.5203 25.35081 34.93819 34.15183z" class="shadow" id="path1652-6-4-7"/><path style="display:inline;fill:none;stroke-dasharray:none;stroke-linecap:butt;stroke-linejoin:miter;stroke-miterlimit:4;stroke-opacity:1;stroke-width:2.5;stroke:#000" d="m351.49306 412.852c-47.6419 8.32523-91.00555 14.20764-126.50377 1.14981" id="path1693-1-8-4-4-7"/></svg>