<svg viewBox="0 0 560 1e3"><g data-transform="art" id="g2584"><path class="areola" d="m267.90201 134.46696c-.63896-.0478-.87743.43939-.88322.91767-.006.45191.18872.89281.71686.96785.69809.0695.89352-.36025.89668-.84099.002-.42327-.10134-.88919-.73032-1.04453z" id="path2575"/><path class="areola" d="m274.31037 136.11918c-.63896-.0477-.87742.43941-.88322.91769-.006.45191.18872.8928.71685.96783.6981.0695.89353-.36023.8967-.84098.002-.42326-.10134-.88918-.73033-1.04454z" id="path2577"/><path class="areola" d="m276.67924 138.99616c-.63895-.0477-.87742.43939-.88321.91767-.006.45191.18872.8928.71685.96785.6981.0695.89353-.36025.89669-.841.002-.42326-.10134-.88918-.73033-1.04452z" id="path2579"/><path class="areola" d="m279.67874 136.39532c-.63896-.0478-.87742.43939-.88322.91767-.006.45191.18872.89281.71685.96784.6981.0695.89353-.36024.8967-.84098.002-.42327-.10135-.8892-.73033-1.04453z" id="path2581"/><path class="areola" d="m273.83652 140.77306c-.63896-.0477-.87742.43939-.88321.91768-.006.4519.18871.89281.71685.96784.6981.0695.89353-.36024.89669-.84098.002-.42327-.10135-.8892-.73033-1.04454z" id="path2583"/><path class="areola" d="m289.78196 139.40856c-.66951-.0493-.91937.45366-.92544.94749-.007.46659.19775.92182.75113.99929.73147.0718.93623-.37194.93955-.86831.002-.43701-.10622-.91809-.76524-1.07847z" id="path2585"/><path class="areola" d="m292.56157 141.60495c-.6695-.0493-.91936.45367-.92543.94749-.007.4666.19773.92183.75111.9993.73148.0719.93625-.37195.93957-.86831.002-.43702-.10622-.91809-.76525-1.07848z" id="path2587"/><path class="areola" d="m292.83674 136.93266c-.66951-.0493-.91937.45366-.92545.94749-.007.46659.19775.92182.75113.99929.73147.0719.93623-.37194.93955-.86831.002-.43701-.10621-.91809-.76523-1.07847z" id="path2589"/><path class="areola" d="m295.93978 143.40556c-.66949-.0493-.91936.45367-.92544.9475-.007.46659.19775.92181.75113.99929.73147.0719.93624-.37195.93955-.86832.002-.43701-.10621-.91807-.76524-1.07847z" id="path2591"/><path class="areola" d="m299.28618 137.37838c-.66951-.0493-.91937.45367-.92545.94749-.007.4666.19775.92183.75113.99929.73147.0719.93623-.37194.93955-.8683.002-.43702-.10621-.91809-.76523-1.07848z" id="path2593"/><path class="areola" d="m302.59403 139.40973c-.66951-.0493-.91937.45368-.92544.9475-.007.46659.19775.92181.75113.99929.73147.0717.93623-.37194.93955-.86832.002-.43701-.10622-.91807-.76524-1.07847z" id="path2595"/><path class="areola" d="m295.51598 139.34164c-.66949-.0493-.91936.45367-.92543.94749-.007.4666.19774.92182.75112.99929.73147.0719.93624-.37194.93956-.86831.002-.43701-.10621-.91809-.76525-1.07847z" id="path2597"/><path class="areola" d="m271.23916 142.53426c-.63895-.0477-.87741.43939-.88321.91768-.006.4519.18872.89281.71685.96784.6981.0695.89353-.36024.89669-.84099.002-.42325-.10134-.88919-.73033-1.04453z" id="path2599"/><path class="areola" d="m267.59038 140.01881c-.63895-.0478-.87741.43939-.88321.91767-.006.45191.18872.89281.71685.96784.6981.0695.89353-.36024.89669-.84098.002-.42326-.10134-.88918-.73033-1.04453z" id="path2601"/><path class="areola" d="m302.63892 144.13646c-.6695-.0493-.91937.45367-.92543.94749-.007.4666.19774.92183.75112.99929.73147.0719.93624-.37194.93956-.8683.002-.43702-.10622-.91809-.76525-1.07848z" id="path2603"/><path class="areola" d="m309.27717 139.72086c-.6695-.0493-.91937.45366-.92543.94749-.007.46659.19773.92182.75112.99929.73146.0718.93624-.37195.93956-.86831.002-.43702-.10622-.91809-.76525-1.07847z" id="path2605"/><path class="areola" d="m280.05907 140.85662c-.63896-.0477-.87743.43939-.88322.91768-.006.4519.18872.89279.71685.96783.6981.0696.89353-.36023.8967-.84099.002-.42326-.10135-.88918-.73033-1.04452z" id="path2609"/><path class="areola" d="m313.36918 136.63921c-.66949-.0493-.91937.45366-.92543.94749-.007.46659.19774.92182.75112.99929.73147.0718.93624-.37195.93956-.86831.002-.43702-.10621-.91809-.76525-1.07847z" id="path2611"/><path class="areola" d="m276.99797 142.71915c-.63896-.0478-.87743.43939-.88322.91767-.006.45191.18872.89281.71685.96785.6981.0695.89353-.36025.8967-.84099.002-.42327-.10135-.88919-.73033-1.04453z" id="path2613"/><path class="areola" d="m306.08685 137.33903c-.66949-.0493-.91935.45367-.92543.94749-.007.4666.19774.92183.75112.99929.73148.0719.93624-.37194.93956-.8683.002-.43702-.10621-.91809-.76525-1.07848z" id="path2615"/><path class="areola" d="m309.77875 144.03942c-.6695-.0493-.91936.45367-.92543.94751-.007.46658.19773.92181.75112.99928.73147.0719.93624-.37195.93956-.86831.002-.43702-.10622-.91808-.76525-1.07848z" id="path2617"/><path class="areola" d="m266.17401 137.49988c-.63896-.0478-.87743.43939-.88322.91767-.006.45191.18872.89281.71686.96785.69809.0695.89352-.36025.89668-.84099.002-.42327-.10134-.88919-.73032-1.04453z" id="path2575-5"/><path class="areola" d="m271.56591 138.17983c-.63896-.0477-.87742.43941-.88322.91769-.006.45191.18872.8928.71685.96783.6981.0695.89353-.36023.8967-.84098.002-.42326-.10134-.88918-.73033-1.04454z" id="path2577-9"/><path class="areola" d="m282.43894 138.87332c-.63896-.0478-.87742.43939-.88322.91767-.006.45191.18872.89281.71685.96784.6981.0695.89353-.36024.8967-.84098.002-.42327-.10135-.8892-.73033-1.04453z" id="path2581-3"/><path class="areola" d="m278.51667 145.9273c-.63896-.0477-.87742.43939-.88321.91768-.006.4519.18871.89281.71685.96784.6981.0695.89353-.36024.89669-.84098.002-.42327-.10135-.8892-.73033-1.04454z" id="path2583-2"/><path class="areola" d="m289.82231 144.23384c-.6695-.0493-.91936.45367-.92543.94749-.007.4666.19773.92183.75111.9993.73148.0719.93625-.37195.93957-.86831.002-.43702-.10622-.91809-.76525-1.07848z" id="path2587-7"/><path class="areola" d="m293.84748 146.12405c-.66951-.0493-.91937.45366-.92545.94749-.007.46659.19775.92182.75113.99929.73147.0719.93623-.37194.93955-.86831.002-.43701-.10621-.91809-.76523-1.07847z" id="path2589-1"/><path class="areola" d="m299.13802 146.28445c-.66949-.0493-.91936.45367-.92544.9475-.007.46659.19775.92181.75113.99929.73147.0719.93624-.37195.93955-.86832.002-.43701-.10621-.91807-.76524-1.07847z" id="path2591-7"/><path class="areola" d="m299.17192 141.38227c-.66951-.0493-.91937.45367-.92545.94749-.007.4666.19775.92183.75113.99929.73147.0719.93623-.37194.93955-.8683.002-.43702-.10621-.91809-.76523-1.07848z" id="path2593-4"/><path class="areola" d="m273.13509 145.56718c-.63895-.0477-.87741.43939-.88321.91768-.006.4519.18872.89281.71685.96784.6981.0695.89353-.36024.89669-.84099.002-.42325-.10134-.88919-.73033-1.04453z" id="path2599-6"/><path class="areola" d="m305.89966 146.89035c-.6695-.0493-.91937.45367-.92543.94749-.007.4666.19774.92183.75112.99929.73147.0719.93624-.37194.93956-.8683.002-.43702-.10622-.91809-.76525-1.07848z" id="path2603-1"/><path class="areola" d="m265.56768 142.33526c-.63896-.0478-.87742.43939-.88322.91767-.006.45191.18872.89281.71685.96784.6981.0695.89354-.36024.8967-.84098.002-.42327-.10134-.8892-.73033-1.04453z" id="path2607-1"/><path class="areola" d="m313.19242 141.5181c-.66949-.0493-.91937.45366-.92543.94749-.007.46659.19774.92182.75112.99929.73147.0718.93624-.37195.93956-.86831.002-.43702-.10621-.91809-.76525-1.07847z" id="path2611-0"/><path class="areola" d="m282.12007 143.80752c-.63896-.0478-.87743.43939-.88322.91767-.006.45191.18872.89281.71685.96785.6981.0695.89353-.36025.8967-.84099.002-.42327-.10135-.88919-.73033-1.04453z" id="path2613-9"/><path class="areola" d="m305.78509 141.78042c-.66949-.0493-.91935.45367-.92543.94749-.007.4666.19774.92183.75112.99929.73148.0719.93624-.37194.93956-.8683.002-.43702-.10621-.91809-.76525-1.07848z" id="path2615-2"/><path class="areola" d="m312.97699 146.29331c-.6695-.0493-.91936.45367-.92543.94751-.007.46658.19773.92181.75112.99928.73147.0719.93624-.37195.93956-.86831.002-.43702-.10622-.91808-.76525-1.07848z" id="path2617-3"/><path class="areola" d="m268.264 144.93012c-.63895-.0477-.87741.43939-.88321.91768-.006.4519.18872.89281.71685.96784.6981.0695.89353-.36024.89669-.84099.002-.42325-.10134-.88919-.73033-1.04453z" id="path2599-6-9"/></g></svg>