<svg viewBox="0 0 560 1e3"><path id="path4900" d="m293.7 188.8c1.8 1 8.4 3.6 18-1.9.3-.2.6.0.7.3l.7 3.5c0 .2-.1.4-.2.5-5.6 3.3-9.7 4.3-13 4.3-5.2.0-7.1-1.8-7.6-2.5-.1-.1-.1-.3-.1-.4l.9-3.4c0-.4.3-.6.6-.4z"/><path style="display:inline" id="path4900-0" d="m293.7 188.8c.77122.42846 2.6514 2.45327 4.81559 1.40359 2.74401-1.33092 3.78913-.56972 5.14181-.2287 2.32076.58507 5.05258-1.36186 8.0426-3.07489.3-.2.6.0.7.3l.7 3.5c0 .2-.1.4-.2.5-3.53821 2.08502-6.47762 3.25187-8.99479 3.82846-.14361.0329 1.17548 7.82312 1.03167 7.82698-.37367.01-3.44099-1.39713-3.75495-1.73943-.21889-.23863-.52624-5.63286-.65822-5.62785-.2111.008-.41894.0119-.62371.0119-.11563.0-2.66108 4.0911-3.03703 3.9383-.25446-.10342-5.24731 2.5402-5.85053 2.46423-.1636-.0206 6.21817-6.58399 6.06373-6.60851-3.10332-.49268-4.37975-1.7391-4.77617-2.29408-.1-.1-.1-.3-.1-.4l.9-3.4c0-.4.3-.6.6-.4z"/></svg>