<svg viewBox="0 0 560 1e3"><path style="baseline-shift:baseline;clip-rule:nonzero;color-interpolation-filters:linearRGB;color-interpolation:sRGB;color-rendering:auto;color:#000;direction:ltr;display:inline;enable-background:accumulate;fill-opacity:1;fill-rule:evenodd;fill:#000;image-rendering:auto;isolation:auto;mix-blend-mode:normal;opacity:1;overflow:visible;shape-rendering:auto;solid-color:#000000;solid-opacity:1;stroke-dasharray:none;stroke-dashoffset:0;stroke-linecap:butt;stroke-linejoin:miter;stroke-miterlimit:4;stroke-opacity:1;stroke-width:3.10294271;stroke:none;visibility:visible;white-space:normal;writing-mode:lr-tb" d="m345.50607 464.05091c.80045-5.41001-3.76716 358.28294-3.06852 353.20814 16.01105-116.30395 6.25706-133.27327 6.25706-133.27327 25.06348-61.21854 26.99218-149.64049 18.15807-203.52893-.18907-1.1533 9.20505-33.6189-17.40501-67.40092.0186 1.15703-123.29902.13221-123.88971 1.19342-56.88531 102.1947 14.43313 248.11224 14.95002 251.51414 5.95103 39.16771 7.25346 122.35075 10.32858 178.39726 4e-4.007 47.29289-.35457 59.92806-.25508 17.98629-89.94467 34.09595-376.53532 34.74145-379.85476z" id="path6166"/><path style="baseline-shift:baseline;clip-rule:nonzero;color-interpolation-filters:linearRGB;color-interpolation:sRGB;color-rendering:auto;color:#000;direction:ltr;display:inline;enable-background:accumulate;fill-opacity:1;fill-rule:evenodd;fill:green;image-rendering:auto;isolation:auto;mix-blend-mode:normal;opacity:1;overflow:visible;shape-rendering:auto;solid-color:#000000;solid-opacity:1;stroke-dasharray:none;stroke-dashoffset:0;stroke-linecap:butt;stroke-linejoin:miter;stroke-miterlimit:4;stroke-opacity:1;stroke-width:3.04837847;stroke:none;visibility:visible;white-space:normal;writing-mode:lr-tb" d="m340.2831 819.16062c.77254-5.41001-.45579 2.25466.21849-2.82014 15.45291-116.30395 6.03894-133.27327 6.03894-133.27327 24.18976-61.21854 29.12229-149.64049 20.59614-203.52893-.18248-1.1533 14.34381-32.20469-16.45705-68.99191.018 1.15703-124.34336 1.4732-124.91347 2.53441-54.90227 102.1947 15.86028 248.36224 16.35914 251.76414 5.74359 39.16771 7.77865 123.67233 8.51832 179.36953 95e-5.0719 44.54216.47574 61.18968.52126 4.28941-10.99814 30.88519-373.92828 34.46022-379.12844z" id="path6168"/><path id="path6170" class="shadow" d="m287.91143 588.60357c-9.8-40.3-16.6-61.7-12.6-107.8-.7 44.5 3.5 67.1 12.6 107.8z"/><path d="m329.94023 425.77356c-15.4791 1.19068-42.03653 26.26041-44.60913 30.99635 10.29989-9.14088 29.75951-26.28541 44.60913-30.99635z" class="shadow" id="path6172"/><path d="m262.19814 457.62185c-6.81704-9.41592-28.83006-31.99347-34.93819-34.15183 5.05404 5.44075 26.5203 25.35081 34.93819 34.15183z" class="shadow" id="path6174"/></svg>