<svg viewBox="0 0 560 1e3"><path id="path3543-7-6-0" d="m370.85615 291.82249c-1.50939 100.8522 19.00203 86.15559-5.54867 125.28396-39.63585 8.44961-90.83686-12.90018-92.09168-14.81835-1.64009.741-47.93002 14.13246-49.23786 11.79613-20.69744-51.23121 12.15577-65.66613 8.47508-123.33409 31.55028 3.86008 103.35007 6.47864 138.40313 1.07235z" style="display:inline;fill-opacity:1;fill-rule:evenodd;fill:#000;opacity:1;stroke-dasharray:none;stroke-linecap:butt;stroke-linejoin:miter;stroke-miterlimit:4;stroke-opacity:1;stroke-width:0;stroke:#000"/><path id="path3545-8-0-2" d="m370.0397 293.00543c-2.87253 94.46577 16.6516 76.60168-3.77749 125.94261-87.98397 16.38228-121.27098 16.41642-142.38534-4.6717-16.69218-57.92967 13.71177-61.69186 9.95344-122.18275 26.56853 7.31487 121.14034 5.1612 136.20939.91184z" style="display:inline;fill-opacity:1;fill-rule:evenodd;fill:maroon;opacity:1;stroke-dasharray:none;stroke-linecap:butt;stroke-linejoin:miter;stroke-miterlimit:4;stroke-opacity:1;stroke-width:0;stroke:#000"/><path id="path3547-0-5-8" d="m270.95133 430.70012c-2.96459-1.35508 3.63641-95.38606 10.295-135.65321.0421-.18953-.065-.55474.12551-.56351.81123-.0373.77997.3603 2.32799.0884.20144-.0354-.067.40493-.1009.60937-10.12688 61.2283-12.50506 135.32409-12.6476 135.51892z" style="display:inline;fill-opacity:1;fill:#000"/><path id="path3549-0-4-9" d="m277.26367 407.09589c0 .86028-3.76472 3.3125-6.25 3.3125l.28125-6.65625c2.48528.0 5.96875 2.60847 5.96875 3.34375z" style="display:inline;fill:#000"/><path id="path3551-7-9-9" d="m277.90626 391.4531c0 .86028-3.76472 3.3125-6.25 3.3125l.28125-6.65625c2.48528.0 5.96875 2.60847 5.96875 3.34375z" style="display:inline;fill:#000"/><path id="path3553-5-8-9" d="m279.12501 376.4531c0 .86028-4.04597 3-6.53125 3l.46875-6.65625c2.48528.0 6.0625 2.92097 6.0625 3.65625z" style="display:inline;fill:#000"/><path id="path3555-3-4-2" d="m280.18751 363.2656c0 .86028-4.20222 2.6875-6.6875 2.6875l.59375-6.65625c2.48528.0 6.09375 3.23347 6.09375 3.96875z" style="display:inline;fill:#000"/><path id="path3557-9-4-9" d="m281.25001 348.5781c0 .86028-3.95222 2.875-6.4375 2.875l.625-6.59375c2.48528.0 5.8125 2.98347 5.8125 3.71875z" style="display:inline;fill:#000"/><path id="path3559-7-1-4" d="m283.00001 332.92185c0 .86028-4.13972 2.65625-6.625 2.65625l.6875-6.59375c2.48528.0 5.9375 3.20222 5.9375 3.9375z" style="display:inline;fill:#000"/><path id="path3561-4-3-7" d="m284.7206 318.33666c0 .86028-4.29597 2.28125-6.78125 2.28125l.8125-6.5c2.48528.0 5.96875 3.48347 5.96875 4.21875z" style="display:inline;fill:#000"/><path id="path3563-0-3-5" d="m286.3358 302.31061c0 .86028-3.98347 3-6.46875 3l.9375-6.3125c2.48528.0 5.53125 2.57722 5.53125 3.3125z" style="display:inline;fill:#000"/><path id="path3569-2-0-7" d="m277.18902 406.27379c0 .86028-3.76472 3.3125-6.25 3.3125l.28125-6.65625c2.48528.0 5.96875 2.60847 5.96875 3.34375z" style="display:inline;fill:#787878"/><path id="path3571-1-8-5" d="m277.83161 390.631c0 .86028-3.76472 3.3125-6.25 3.3125l.28125-6.65625c2.48528.0 5.96875 2.60847 5.96875 3.34375z" style="display:inline;fill:#787878"/><path id="path3573-64-9-4" d="m279.05036 375.631c0 .86028-4.04597 3-6.53125 3l.46875-6.65625c2.48528.0 6.0625 2.92097 6.0625 3.65625z" style="display:inline;fill:#787878"/><path id="path3575-5-3-2" d="m280.11286 362.4435c0 .86028-4.20222 2.6875-6.6875 2.6875l.59375-6.65625c2.48528.0 6.09375 3.23347 6.09375 3.96875z" style="display:inline;fill:#787878"/><path id="path3577-4-4-3" d="m281.17536 347.756c0 .86028-3.95222 2.875-6.4375 2.875l.625-6.59375c2.48528.0 5.8125 2.98347 5.8125 3.71875z" style="display:inline;fill:#787878"/><path id="path3583-8-8-4" d="m282.92536 332.09975c0 .86028-4.13972 2.65625-6.625 2.65625l.6875-6.59375c2.48528.0 5.9375 3.20222 5.9375 3.9375z" style="display:inline;fill:#787878"/><path id="path3585-0-2-9" d="m284.64595 317.51456c0 .86028-4.29597 2.28125-6.78125 2.28125l.8125-6.5c2.48528.0 5.96875 3.48347 5.96875 4.21875z" style="display:inline;fill:#787878"/><path id="path3587-6-4-8" d="m286.26115 301.48851c0 .86028-3.98347 3-6.46875 3l.9375-6.3125c2.48528.0 5.53125 2.57722 5.53125 3.3125z" style="display:inline;fill:#787878"/><path style="display:inline;fill-opacity:1;fill-rule:evenodd;fill:#000;opacity:1;stroke-dasharray:none;stroke-linecap:butt;stroke-linejoin:miter;stroke-miterlimit:4;stroke-opacity:1;stroke-width:0;stroke:#000" d="m369.77336 409.75125c2.80181 5.33577 3.00627 37.7784-3.18414 64.13146-20.82093 14.76257-101.55407 3.60363-151.95195.28076.0585-1.03765.0424-2.07139.18689-3.07673 6.24071-43.42968 7.67337-53.11524 9.4724-57.05021.20972-.4587.34723-.67416.34723-.67416 31.73404 35.14115 122.93449 3.80528 145.12957-3.61112z" id="path3581-6-5-2-4-8-8-6"/><path style="display:inline;fill-opacity:1;fill-rule:evenodd;fill:maroon;opacity:1;stroke-dasharray:none;stroke-linecap:butt;stroke-linejoin:miter;stroke-miterlimit:4;stroke-opacity:1;stroke-width:0;stroke:#000" d="m370.34015 411.00641c4.66272 19.69801 3.00405 34.97716-3.18636 59.69419-20.82093 13.84609-101.99157 3.49714-152.38945.38057.55367-47.38146 9.41369-57.29578 9.41369-57.29578 29.7895 36.10978 125.59204 4.802 146.16212-2.77898z" id="path3581-6-5-2-9-2-0"/><path id="path3401-2-3-1-3" class="shadow" d="m329.90806 425.67038c-15.4791 1.19068-42.03653 26.26041-44.60913 30.99635 10.29989-9.14088 29.75951-26.28541 44.60913-30.99635z"/><path id="path3406-2-8-7-5" class="shadow" d="m262.16597 457.51867c-6.81704-9.41592-28.83006-31.99347-34.93819-34.15183 5.05404 5.44075 26.5203 25.35081 34.93819 34.15183z"/></svg>