<svg viewBox="0 0 560 1e3"><path id="path758-36-9-5" d="m236.73004 270.99741c-.12551 1.89685-.19342 3.79183-.202 5.67824-1.3755 20.25213 5.80721 38.32609 6.31603 57.05357 2.27221 32.09531-8.01014 53.77861-17.9994 79.64726 16.36196-.34408 93.98705-1.86544 126.96167-1.88004-40.65959-64.1873-13.75245-57.36989 6.26462-95.80632 3.6218-8.59036 8.38281-20.72036 8.78952-34.11918-20.00731-23.65544-37.44304-58.20381-37.48946-76.57605-5.0856-1.53654-9.2662-4.20037-11.97165-6.99799-.44453 1.7818-1.99968 15.88708-2.14306 17.33056-12.09829 5.75915-27.87745 3.2969-33.51216-1.00011.88357-3.08367 2.87976-7.82151 6.26875-14.36009-2.95309 1.88608-8.68497 4.12374-12.65394 6.03362-16.12454 21.61213-36.49699 49.48545-38.62892 64.99653z" style="display:inline;fill-opacity:1;fill:#000;opacity:1"/><path style="display:inline;fill-opacity:1;fill-rule:evenodd;fill:#333;opacity:1;stroke-dasharray:none;stroke-linecap:butt;stroke-linejoin:miter;stroke-miterlimit:4;stroke-opacity:1;stroke-width:0;stroke:#000" d="m360.51873 307.70681c-7.52713 17.78095-18.30372 29.41969-19.30904 30.62947-29.21784 29.22016 4.58981 56.94846 10.84455 74.44711-40.10653 11.44456-64.97545 42.96388-65.74712 45.30165-.78385 1.88787-4.7912 9.82211-7.2881 11.60252-1.21712.86786-4.56426-.37235-4.8162-.39645-.29397-.0276-.77535.50225-2.98817-.0701-5.65546-1.4629-10.22974-5.40448-10.80185-7.35518-18.43111-29.49711-30.68812-46.0732-35.41353-47.26215 7.94787-20.31139 14.53739-34.53836 15.52113-39.64488 2.40743-12.49684 4.56181-31.04119 4.51599-33.91997-.31392-19.72394-5.53672-33.8742-6.42575-46.41156-5.84752-48.51279 18.32727-82.76734 38.32548-88.64617.49229-.51848 5.43756-2.25669 9.91452-4.65903 1.01736-.38611 4.59904-8.26172 5.00699-8.02432 6.65758 3.87428 22.60885-.60503 22.93817.0937.97035 2.05878 1.84469 4.05751 2.988 5.79136 1.48672 1.12706 18.23182 7.00546 18.7637 8.34782.0.0 24.76225-4.8947 34.24132 27.54218.0476.44543-.20742 8.29506-.0211 16.76295.11811 5.36806-.97158 11.24597-1.56133 15.83868s-2.44875 21.69359-8.68765 40.03237z" id="path5100"/><path style="display:inline;fill-opacity:1;fill:#333;stroke-dasharray:none;stroke-linecap:butt;stroke-linejoin:miter;stroke-miterlimit:4;stroke-opacity:1;stroke-width:0;stroke:#000" d="m223.46081 414.21749c13.0124 5.20002 31.84447 58.44933 51.86626 56.74714 13.4605-1.86072 15.36894-33.20485 77.69951-58.44767-5.52595-11.9083-11.23731-16.28943-17.77351-27.61382-45.102 11.9464-91.4758 7.08435-96.81614-2.31943.0.0-9.84313 19.91613-14.97612 31.63378z" id="path5104"/><path style="display:inline;fill-opacity:1;fill:#000;opacity:1;stroke-dasharray:none;stroke-linecap:butt;stroke-linejoin:miter;stroke-miterlimit:4;stroke-opacity:1;stroke-width:0;stroke:#000" d="m262.30433 421.58157c.5575-1.06599 1.6673-32.48865 1.70988-32.65285.0.0-20.89461 1.52359-26.93967-6.38379-.14865-.19445-9.61224 22.29997-9.54562 22.37985.063.19141 34.77541 16.65679 34.77541 16.65679z" id="path5155"/><path style="display:inline;fill-opacity:1;fill:#000;opacity:1;stroke-dasharray:none;stroke-linecap:butt;stroke-linejoin:miter;stroke-miterlimit:4;stroke-opacity:1;stroke-width:0;stroke:#000" d="m256.33979 391.23466c-.0664.0413-1.39182-.0733-1.58546-.10885-3.40999-.62801 19.2566-160.50788 24.25915-160.55375.0.0 9.9816.30395 8.15973.3028-4.11982-.71348-23.18044 136.73953-23.13547 157.57822-.0426 1.28175-94e-5 2.39529-.0998 2.64799z" id="path5118"/><path style="display:inline;fill-opacity:1;fill:#333;opacity:1;stroke-dasharray:none;stroke-linecap:butt;stroke-linejoin:miter;stroke-miterlimit:4;stroke-opacity:1;stroke-width:0;stroke:#000" d="m262.94847 420.70666c-.005-.12477.12747-31.57956.16946-31.73901.0.0-17.91534-2.90057-25.37892-5.76238-.2232-.0856-9.79708 21.43343-9.73138 21.51101.0621.18588 34.94084 15.99038 34.94084 15.99038z" id="path5160"/><path style="display:inline;fill-opacity:1;fill:#333;opacity:1;stroke-dasharray:none;stroke-linecap:butt;stroke-linejoin:miter;stroke-miterlimit:4;stroke-opacity:1;stroke-width:0;stroke:#000" d="m255.95357 390.4496c-.0664.0413-1.76682-.0468-1.96046-.0825-3.40999-.62801 19.2566-160.40253 24.25915-160.4484.0.0 9.9816.30394 8.15973.30279-4.43753-.7685-26.3541 158.77919-22.89125 160.21724z" id="path5125"/><path style="display:inline;fill-opacity:1;fill:#000;opacity:1;stroke-dasharray:none;stroke-linecap:butt;stroke-linejoin:miter;stroke-miterlimit:4;stroke-opacity:1;stroke-width:0;stroke:#000" d="m261.89163 421.98581c.007-.14856 1.42434-36.87677 1.3621-37.06662.0.0 53.30527 5.43026 72.67269-.74385.29791-.095 10.39088 17.55677 10.2935 17.64914-.0921.22131-84.32829 20.16133-84.32829 20.16133z" id="path5150"/><path style="display:inline;fill-opacity:1;fill:#333;opacity:1;stroke-dasharray:none;stroke-linecap:butt;stroke-linejoin:miter;stroke-miterlimit:4;stroke-opacity:1;stroke-width:0;stroke:#000" d="m263.02434 420.57363c.007-.14856 1.18885-35.45726 1.12661-35.64711.0.0 51.69598 4.61462 71.0634-1.55949.29791-.095 10.81321 17.41032 10.71583 17.50269-.0921.22131-82.90584 19.70391-82.90584 19.70391z" id="path5162"/><path id="path5182" d="m296.55615 236.72883a4.7552032 5.075284.0 01-4.7552 5.07529 4.7552032 5.075284.0 01-4.75521-5.07529 4.7552032 5.075284.0 014.75521-5.07529 4.7552032 5.075284.0 014.7552 5.07529z" style="display:inline;fill-opacity:1;fill-rule:nonzero;fill:#c8c8c8;opacity:1;stroke-dasharray:none;stroke-linecap:butt;stroke-linejoin:round;stroke-miterlimit:4;stroke-opacity:1;stroke-width:0;stroke:#000"/><path d="m329.87921 425.70416c-15.4791 1.19068-42.03653 26.26041-44.60913 30.99635 10.29989-9.14088 29.75951-26.28541 44.60913-30.99635z" class="shadow" id="path5198"/><path d="m262.13712 457.55245c-6.81704-9.41592-28.83006-31.99347-34.93819-34.15183 5.05404 5.44075 26.5203 25.35081 34.93819 34.15183z" class="shadow" id="path5200"/><path d="m329.8875 425.70175c-15.4791 1.19068-42.03653 26.26041-44.60913 30.99635 10.29989-9.14088 29.75951-26.28541 44.60913-30.99635z" class="shadow" id="path5205"/><path d="m262.14541 457.55004c-6.81704-9.41592-28.83006-31.99347-34.93819-34.15183 5.05404 5.44075 26.5203 25.35081 34.93819 34.15183z" class="shadow" id="path5211"/><path style="display:inline;fill-opacity:1;fill:#c8c8c8;opacity:1;stroke-dasharray:none;stroke-linecap:butt;stroke-linejoin:miter;stroke-miterlimit:4;stroke-opacity:1;stroke-width:0;stroke:#000" d="m305.8244 214.91944c.52333-1.91393-.41387-20.28119-.34889-20.4718.0.0-12.97752-.7475-13.11572-.55711-.83967 1.1568-1.7069 17.0123-3.07007 18.67927.0458.10569 3.34711 6.73091 7.26002 7.26474 4.31331.58847 9.27466-4.9151 9.27466-4.9151z" id="path5111-4"/><path style="display:inline;fill-opacity:1;fill:#1a1a1a;opacity:1;stroke-dasharray:none;stroke-linecap:butt;stroke-linejoin:miter;stroke-miterlimit:4;stroke-opacity:1;stroke-width:0;stroke:#000" d="m306.14469 219.74063c-3.38941-6.13212-4.99806-7.15541-6.5412-9.79351-.0287-.049-.16003-.85142-.1557-.52763 1.19646-3.27092 1.75475-4.61084 2.6709-7.6292.86131-3.02718-1.86068-7.53259-1.84056-7.60502.0.0-3.70764-.28968-3.84584-.0561-.35059.59257-3.3119 3.19023-2.66499 7.44441.72093 4.19168.70793 4.02297 1.4255 7.74374-.014.0531-.21764.57554-.24045.62377-.98974 2.09251-3.54044 5.13908-5.34233 6.91685.0458.12966 1.19086 7.85167 5.10377 8.5066 4.31331.72198 11.43091-5.62391 11.43091-5.62391z" id="path5111-4-7"/><path style="display:inline;fill-opacity:1;fill:#000;opacity:1;stroke-dasharray:none;stroke-linecap:butt;stroke-linejoin:miter;stroke-miterlimit:4;stroke-opacity:1;stroke-width:0;stroke:#000" d="m289.11888 215.04825c-.007-.15238 7.87213-20.96789 7.93902-21.16262.0.0-4.71541-2.02563-4.85767-1.83113-.86438 1.18176-2.48505 4.21861-3.88833 5.92157.099.227.80698 17.07218.80698 17.07218z" id="path5106"/><path style="display:inline;fill-opacity:1;fill:#c8c8c8;opacity:1;stroke-dasharray:none;stroke-linecap:butt;stroke-linejoin:miter;stroke-miterlimit:4;stroke-opacity:1;stroke-width:0;stroke:#000" d="m289.86716 210.04871c-.007-.14941 6.74558-16.16139 6.81056-16.35233.0.0-4.58062-1.9862-4.71882-1.79549-.83967 1.15876-2.41401 4.13649-3.77718 5.8063.0962.22258 1.68544 12.34152 1.68544 12.34152z" id="path5111"/><path style="display:inline;fill-opacity:1;fill:#000;opacity:1;stroke-dasharray:none;stroke-linecap:butt;stroke-linejoin:miter;stroke-miterlimit:4;stroke-opacity:1;stroke-width:0;stroke:#000" d="m304.52262 215.99753c.007-.15238-5.40967-21.68572-5.47656-21.88045.0.0 15.87166-2.71313 16.01392-2.51863.86438 1.18176 2.6413 5.37486 3.07583 6.04657-.099.227-13.61319 18.35251-13.61319 18.35251z" id="path5136"/><path style="display:inline;fill-opacity:1;fill:#c8c8c8;opacity:1;stroke-dasharray:none;stroke-linecap:butt;stroke-linejoin:miter;stroke-miterlimit:4;stroke-opacity:1;stroke-width:0;stroke:#000" d="m305.15512 212.99967c.007-.14856-6.32959-18.84697-6.39549-19.03682.0.0 15.63782-2.64512 15.77799-2.4555.85164 1.15214 2.60238 5.24014 3.03051 5.89501-.0975.22131-12.41301 15.59731-12.41301 15.59731z" id="path5138"/><path style="display:inline;fill-opacity:1;fill:#000;opacity:1;stroke-dasharray:none;stroke-linecap:butt;stroke-linejoin:miter;stroke-miterlimit:4;stroke-opacity:1;stroke-width:0;stroke:#000" d="m282.13394 203.4582c-4.08655 35.00904 28.81336 107.20896 55.01204 138.53972.28973.34648-5.90686.83772-6.52953.93009-12.80487-10.2681-55.37663-89.38287-54.96028-135.97019 1.13104-1.56976 2.8485-2.74678 6.47777-3.49962z" id="path5164-7-0"/><path style="display:inline;fill-opacity:1;fill:#c8c8c8;opacity:1;stroke-dasharray:none;stroke-linecap:butt;stroke-linejoin:miter;stroke-miterlimit:4;stroke-opacity:1;stroke-width:0;stroke:#000" d="m284.51487 205.20924c.0133-.14802.991-3.76164 1.04686-3.94624.0.0-10.13556 2.84037-10.14148 3.07346-.008.30956-.81107 2.93146-.7689 3.0294.0242.22566 9.86356-2.15662 9.86356-2.15662z" id="path5146"/><path style="display:inline;fill-opacity:1;fill:#000;opacity:1;stroke-dasharray:none;stroke-linecap:butt;stroke-linejoin:miter;stroke-miterlimit:4;stroke-opacity:1;stroke-width:0;stroke:#000" d="m294.0013 226.1068c-1.55746-13.09357-1.37426-30.86276-2.09889-34.33078.0.0-5.28137 7.94296-5.45764 8.15272-.24328.28951-9.9989 7.28882-10.05513 7.43632.0.0 8.98019 1.98424 8.4621 1.85987-.27185-.0659-9.07312-.10709-9.07924-.0751-.003.005 7.73437 10.8537 16.43595 18.38414.55532-.2647-1.41646.90148 1.79285-1.42718z" id="path3214-39-3-7-0"/><path style="display:inline;fill-opacity:1;fill:#3c3c3c;opacity:1;stroke-dasharray:none;stroke-linecap:butt;stroke-linejoin:miter;stroke-miterlimit:4;stroke-opacity:1;stroke-width:0;stroke:#000" d="m293.91104 226.68056c-2.31203-13.95836-1.43167-31.00153-2.12266-34.35968.0.0-4.7873 7.51408-5.16763 7.92491-.22714.24535-9.22457 6.66488-9.27449 6.79607.0.0 8.51841 2.38495 8.03158 2.26825-.25542-.0618-9.27745 51e-5-9.28327.0308-.003.005 8.73922 11.31026 17.0217 18.51911 1.45157-1.52676-2.43587 1.75174.44122-1.00268z" id="path3214-39-3-7-5-6"/><path style="display:inline;fill-opacity:1;fill:#000;opacity:1;stroke-dasharray:none;stroke-linecap:butt;stroke-linejoin:miter;stroke-miterlimit:4;stroke-opacity:1;stroke-width:0;stroke:#000" d="m285.45049 231.80261c6.99662-10.68847 26.89722-35.72172 29.31122-40.31703.0.0 5.37281 7.70971 5.8395 8.07901.57885.45805 6.88736 11.8487 6.90296 12.02858.0.0-11.27805-1.41667-10.74571-1.39424.27948.0112 9.49562 2.68758 9.49274 2.72003.002.01-40.80071 18.88365-40.80071 18.88365z" id="path3214-39-3-7"/><path style="display:inline;fill-opacity:1;fill:#3c3c3c;opacity:1;stroke-dasharray:none;stroke-linecap:butt;stroke-linejoin:miter;stroke-miterlimit:4;stroke-opacity:1;stroke-width:0;stroke:#000" d="m286.00097 231.34052c6.57385-10.1174 26.08396-34.56765 28.35209-38.91744.0.0 5.34768 7.08589 6.14325 7.58156.53066.33062 6.24414 10.87389 6.25786 11.03325.0.0-11.02518-.92252-10.52501-.90128.26258.0106 8.92184 2.54399 8.91914 2.5747.002.01-39.14733 18.62921-39.14733 18.62921z" id="path3214-39-3-7-5"/><path id="path5182-3" d="m289.43415 268.61609a4.7552032 5.075284.0 01-4.7552 5.07529 4.7552032 5.075284.0 01-4.75521-5.07529 4.7552032 5.075284.0 014.75521-5.07529 4.7552032 5.075284.0 014.7552 5.07529z" style="display:inline;fill-opacity:1;fill-rule:nonzero;fill:#c8c8c8;opacity:1;stroke-dasharray:none;stroke-linecap:butt;stroke-linejoin:round;stroke-miterlimit:4;stroke-opacity:1;stroke-width:0;stroke:#000"/><path id="path5182-3-9" d="m285.3306 300.64642a4.7552032 5.075284.0 01-4.7552 5.07529 4.7552032 5.075284.0 01-4.75521-5.07529 4.7552032 5.075284.0 014.75521-5.07529 4.7552032 5.075284.0 014.7552 5.07529z" style="display:inline;fill-opacity:1;fill-rule:nonzero;fill:#c8c8c8;opacity:1;stroke-dasharray:none;stroke-linecap:butt;stroke-linejoin:round;stroke-miterlimit:4;stroke-opacity:1;stroke-width:0;stroke:#000"/><path style="display:inline;fill-opacity:1;fill:#000;opacity:1;stroke-dasharray:none;stroke-linecap:butt;stroke-linejoin:miter;stroke-miterlimit:4;stroke-opacity:1;stroke-width:0;stroke:#000" d="m243.58167 352.56531c.54144-3.88977.3018-14.28577-.063-14.45978.0.0 20.41647 14.57797 95.31713 2.51005.44589-.0719-7.05591 14.27275-7.67858 14.36512-14.57264 6.17213-76.50145 9.5237-87.57558-2.41539z" id="path5164-7"/><path id="path5182-3-9-3" d="m283.65015 352.80175a9.0972689 9.697676.0 01-9.09726 9.69769 9.0972689 9.697676.0 01-9.09729-9.69769 9.0972689 9.697676.0 019.09729-9.69769 9.0972689 9.697676.0 019.09726 9.69769z" style="display:inline;fill-opacity:1;fill-rule:nonzero;fill:#c8c8c8;opacity:1;stroke-dasharray:none;stroke-linecap:butt;stroke-linejoin:round;stroke-miterlimit:4;stroke-opacity:1;stroke-width:0;stroke:#000"/><path id="path5182-3-9-3-2" d="m268.85957 344.11872c-.44018 5.33776-.84034 10.10475-1.37916 16.26851-.56855-.0469-7.79095-.21827-7.74241-.63754.0138-.11883-.0823-1.78528.3093-1.83621.42235-.055 5.98947.7961 5.97346.21441-.012-.43819.74182-9.38815.92382-11.59513.0342-.41441-6.21555-.6029-6.21375-.96027.009-1.84868.13101-2.13256.44377-2.28414 5.00728.41295 7.68886.2458 7.68499.83037z" style="display:inline;fill-opacity:1;fill-rule:nonzero;fill:#c8c8c8;opacity:1;stroke-dasharray:none;stroke-linecap:butt;stroke-linejoin:round;stroke-miterlimit:4;stroke-opacity:1;stroke-width:0;stroke:#000"/><path id="path5182-3-9-3-2-6" d="m281.17229 344.78893c-.08 5.35528-.14452 10.1386-.20658 16.32555.57042.009 7.77534.53906 7.76773.11706-.002-.11961.25521-1.76886-.12957-1.85756-.41502-.0957-6.03847.21092-5.96607-.36647.0545-.43495.17302-9.41582.20612-11.63005.006-.41578 6.24473.003 6.27763-.35257.1705-1.84083.0766-2.13521-.21995-2.31643-5.02372-.0751-7.67641-.50175-7.72931.0804z" style="display:inline;fill-opacity:1;fill-rule:nonzero;fill:#c8c8c8;opacity:1;stroke-dasharray:none;stroke-linecap:butt;stroke-linejoin:round;stroke-miterlimit:4;stroke-opacity:1;stroke-width:0;stroke:#000"/><path style="display:inline;fill-opacity:1;fill-rule:nonzero;fill:#c8c8c8;opacity:1;stroke-dasharray:none;stroke-linecap:butt;stroke-linejoin:round;stroke-miterlimit:4;stroke-opacity:1;stroke-width:0;stroke:#000" d="m284.63086 231.65234c-.0165-.008-.0319-.004-.0449.01-.58358.62589-3.38749 2.94487-5.86328 5.07227.96283 3.23986 2.00965 7.26121 3.2539 10.24609.58358-.62589 3.38749-2.94487 5.86328-5.07227-1.06398-3.26131-1.73611-6.93046-3.20898-10.25586zm-.41602 1.57032c.62964 2.61253 1.88016 5.41417 2.43164 8.17578-.16042.15084-3.5544 3.03827-4.29882 4.02148-.62925-2.61242-1.88026-5.41468-2.43164-8.17578.16042-.15084 3.5544-3.03827 4.29882-4.02148z" id="path5182-3-9-3-2-6-1"/><path id="path5182-3-9-3-2-6-11" d="m327.91317 341.63787c.55534-.381 1.09416-.7513 1.63156-1.12166.0768-.053 2.29525 2.45246 2.3856 2.39738.82036-.50012 1.68987-1.00563 2.59683-1.63796.0794-.0554-1.99444-2.83092-1.91405-2.88702.47249-.32974.96234-.67256 1.47756-1.03417-.33457-.46202-4.40448-6.41234-4.55646-6.29119-.0431.0341-.80721.27648-.61226.61072.21024.36054 3.65411 4.80834 3.39708 4.90738-.1936.0746-3.5948 2.42707-4.43567 3.00394-.15776.1085-3.6972-5.03263-3.84825-4.96244-.78373.36436-.83731.52026-.72891.80863 2.94707 4.06863 4.35972 6.32245 4.60695 6.2064z" style="display:inline;fill-opacity:1;fill-rule:nonzero;fill:#c8c8c8;opacity:1;stroke-dasharray:none;stroke-linecap:butt;stroke-linejoin:round;stroke-miterlimit:4;stroke-opacity:1;stroke-width:0;stroke:#000"/><path id="path2965-7-9-2" d="m282.45842 458.56662c-.27835.87834-1.09442 7.30349-3.59097 9.21774-.26922.20641-1.13559 1.14752-4.57861.28177-.17398-.0437-1.37228.71664-3.61539.0361-5.82941-1.76869-6.22252-8.10904-6.31915-8.53686 8.23205-5.09165 11.4291-4.00072 18.10412-.99875z" style="display:inline;fill-opacity:1;fill-rule:evenodd;fill:#000;opacity:1;stroke-dasharray:none;stroke-linecap:butt;stroke-linejoin:miter;stroke-miterlimit:4;stroke-opacity:1;stroke-width:0;stroke:#000"/><path id="path2967-8-1-0" d="m282.65569 458.4011c-.78318 1.88787-2.10206 7.06063-4.59684 8.84104-1.21608.86786-3.67141-.009-3.92314-.0331-.29372-.0276-.96753.96577-3.15689.31564-4.33861-1.28834-5.1633-4.97917-6.6404-7.92987 7.24395-6.87766 11.19968-9.59173 18.31727-1.19371z" style="display:inline;fill-opacity:1;fill-rule:evenodd;fill:#333;opacity:1;stroke-dasharray:none;stroke-linecap:butt;stroke-linejoin:miter;stroke-miterlimit:4;stroke-opacity:1;stroke-width:0;stroke:#000"/></svg>