<svg viewBox="0 0 560 1e3"><path style="display:inline;fill-opacity:1;fill-rule:evenodd;fill:#000;opacity:1;stroke-dasharray:none;stroke-linecap:butt;stroke-linejoin:miter;stroke-miterlimit:4;stroke-opacity:1;stroke-width:0;stroke:#000" d="m376.90052 309.11521c-3.17332 10.98206-8.05362 24.75056-11.49045 38.72326 22.01552 44.1126 8.84784 68.77877-10.28694 72.88783.0274-.17435-48.36391 9.66405-68.54386 30.60711-4.92627 5.11256-3.48792 15.45153-7.05147 16.69466-13.46483 4.69716-17.71458-10.66263-17.71458-10.66263-6.67546-8.9041-31.70356-35.62122-37.07682-41.31611-23.74637-56.69775 14.20818-69.89261 6.7059-124.87614-.41476-12.83179 3.5536-24.11735 6.18329-32.06174 10.85607-32.79663 43.65754-30.65315 39.10988-53.47826-.63873-.33426 8.39821-1.66517 11.86024-12.19251.72296 1.09511 10.10133-1.0257 8.84383 10.11159 1.09292-12.82985 17.13877-9.77547 18.48618-10.46976 3.1819 9.61235 11.24168 12.41637 11.24168 12.41637 26.56852 48.52323 70.02147 32.79868 49.73312 103.61633z" id="path7189-3-5-1-9"/><path style="display:inline;fill-opacity:1;fill-rule:evenodd;fill:green;opacity:1;stroke-dasharray:none;stroke-linecap:butt;stroke-linejoin:miter;stroke-miterlimit:4;stroke-opacity:1;stroke-width:0;stroke:#000" d="m375.32724 310.20681c-2.53292 8.11918-11.37497 37.94452-11.37497 37.94452 18.22287 33.79955 13.78513 66.81028-8.81735 74.9329-31.72833 17.73093-58.80619 14.75061-74.1647 44.45277-.34473.71459-4.28479 1.02682-6.08184 2.18944-8.64043 5.59002-13.52858-12.764-13.52858-12.764-12.68731-6.25306-39.7788-26.62041-36.66095-40.37276-19.03763-60.96324 14.94178-72.51657 8.51899-123.38921-6.62019-43.36611 13.10031-83.21648 43.49725-87.61715 7.28553-1.27853 10.37474-6.78856 11.95132-12.13247 1.08324 1.26797 8.87725-.33586 8.67517 10.21488 2.45278-12.78085 18.51342-10.1323 18.69168-10.5508.72243 2.61789 2.00934 9.58128 11.30402 12.3265 7.00739 2.08643 18.51182 3.12161 19.52469 3.39309 38.24227 15.3092 39.46273 71.84419 28.46527 101.37229z" id="path7191-7-0-4-7"/><path style="display:inline;fill-opacity:1;fill:#9f5;opacity:1;stroke-width:.91142344" id="path7197-9-4-0-8" d="m238.85746 239.44505c32.93553-28.40765 57.42661-36.24595 58.26364-36.3944.28735-.051.52518.97539.6987 1.08111-.40837.29152-22.10961 5.21803-59.95699 38.03801-.22561.19564 1.19471-2.84573.99465-2.72472z"/><path style="display:inline;fill-opacity:1;fill:#9f5;opacity:1;stroke-width:1.60637832" id="path7199-6-0-5-9" d="m304.38992 204.50158c-1.23533.0332-7.02852-.37855-7.45482-.47791-.4985-.11613-6.40518.11179-7.30701-.22153-.40649-.15014-1.01888-2.14439.38507-2.49972.50635-.009 6.57661 1.67895 6.85933 1.74206.31919.0713 6.15088-1.03088 7.40342-1.25412 1.5094.82056.91004 2.45683.11399 2.71122z"/><path style="display:inline;fill-opacity:1;fill:#9f5;opacity:1;stroke-width:1.09277165" id="path7201-9-1-7-9" d="m276.27981 219.85653c-.46763-.67641-2.30821-4.03241-2.40076-4.30174-.10825-.31494-2.3872-3.52676-2.50651-4.13644-.0538-.27477.96318-1.26173 1.6919-.59592.18882.27875 1.33702 4.20247 1.40013 4.38019.0712.20066 2.86602 3.08742 3.45792 3.71182.0365 1.10556-1.19662 1.30245-1.64268.94208z"/><path style="display:inline;fill-opacity:1;fill:#9f5;opacity:1;stroke-width:1.09277165" id="path7203-2-5-3-3" d="m270.24513 223.72541c-.46763-.67641-2.30821-4.03241-2.40076-4.30174-.10825-.31494-2.3872-3.52676-2.50651-4.13644-.0538-.27477.96318-1.26173 1.6919-.59592.18882.27875 1.33702 4.20247 1.40013 4.38019.0712.20066 2.86602 3.08742 3.45792 3.71182.0365 1.10556-1.19662 1.30245-1.64268.94208z"/><path style="display:inline;fill-opacity:1;fill:#9f5;opacity:1;stroke-width:.91142344" id="path7205-3-9-9-7" d="m220.56841 399.76633c2.49305-2.15031 6.99125-4.19678 11.87204-7.34622 7.77729-5.01847 16.52598-11.29838 19.68125-13.6305.44352-.32782-2.17387-6.70231-.85061-13.31045 1.17884-5.88691 6.31058-12.08823 6.68931-12.36036.37438-.269-3.42764 8.73407-3.88051 14.27292-.47868 5.85453 2.38876 8.26367 2.76817 7.99858 13.37625-9.34563 21.56019-12.65135 25.06985-13.76489.29678-.0942 7.32185-10.4257 7.5521-10.49084.67293-.19037-5.69867 9.98632-5.58358 9.96591.15981-.0283 12.59027-4.76165 12.7169-4.46726.10107.23498-12.09522 5.50144-12.0182 5.54837-.0622.0444 5.2967 4.24498 4.6275 4.4077-.22009.0535-6.17661-4.03462-6.46914-3.95184-2.03627.57622-5.8682 1.96012-12.06211 5.5262-.30555.17592-.8371 2.51656 1.23701 4.54479 2.58548 2.52828 7.90437 4.84805 7.49085 5.09813-.45512.27524-4.95288-.42717-8.23822-2.29247-3.06956-1.74277-4.93781-4.65949-5.40381-4.36218-5.11744 3.26497-11.44001 7.74259-19.15739 13.8932-.23512.18739-.11954 8.04989 3.13566 12.17786 3.52947 4.47577 10.22216 5.24415 9.96136 5.4544-.27741.22364-7.6948.57452-11.80497-3.51426-3.69456-3.67535-4.12293-11.83739-4.37824-11.62913-3.01704 2.46105-20.39494 12.16609-23.81729 15.13384-.22561.19564 1.06213-3.02251.86207-2.9015z"/><path style="display:inline;fill-opacity:1;fill:#9f5;opacity:1;stroke-width:.91142344" id="path7207-4-3-6-7" d="m375.10472 378.27642c-1.6871-1.17897-16.8251-10.14663-30.03423-18.94075-10.52815-7.00924-19.66976-14.16614-20.96901-15.30894-.17186-.15117 1.76567-3.41168 2.32807-7.23383.56231-3.82156-.25052-8.20476-.42268-8.35356-.185-.1599-.11064 4.82119-1.03324 8.34989-.91487 3.49916-2.82674 5.54618-3.01045 5.3903-7.58055-6.43247-15.23966-11.72783-21.88067-15.83688-.27415-.16963 1.72764-2.99519 1.95109-5.96044.19916-2.64285-1.37418-5.46092-1.61242-5.60528-.2161-.13094.62361 3.13852-.0466 5.59791-.70489 2.58654-2.9208 4.3699-3.14258 4.23792-7.46144-4.44009-13.27934-7.21612-15.64829-8.24707-.13369-.0582-2.51029-8.68447-2.62168-8.73152-.43655-.18438 1.55447 8.29048 1.48479 8.27812-.14879-.0264-18.75746-7.9841-18.87763-7.7102-.11193.25512 18.26261 8.74033 18.17893 8.79131.0391.0278-5.26377 5.92232-4.79283 6.11275.21977.0889 6.05271-5.59314 6.35975-5.46629 4.06981 1.68128 15.61713 6.7707 29.62522 17.16894.2205.16368-.34296 2.855-3.11509 4.21885-3.38707 1.66639-9.11646 2.05953-8.84386 2.2667.26656.20258 4.90078.87282 8.67703-.32403 3.44039-1.0904 6.05178-4.05985 6.29733-3.86863 4.13349 3.2189 9.53793 8.12345 18.16057 15.46486.28306.241.0507 4.27768-2.17243 6.65282-2.7123 2.8977-7.5244 4.2289-7.15986 4.53731.28371.24003 4.99783.35429 8.17816-1.84884 3.01608-2.08935 4.50596-6.50303 4.7873-6.26636 2.45265 2.06317 36.44881 22.26359 39.39679 24.67661.23108.18914-.10892-1.2346.0469-1.95328z"/><path d="m329.8875 425.70175c-15.4791 1.19068-42.03653 26.26041-44.60913 30.99635 10.29989-9.14088 29.75951-26.28541 44.60913-30.99635z" class="shadow" id="path5772-6-5-0-0"/><path d="m262.14541 457.55004c-6.81704-9.41592-28.83006-31.99347-34.93819-34.15183 5.05404 5.44075 26.5203 25.35081 34.93819 34.15183z" class="shadow" id="path5774-7-1-4-8"/></svg>