<svg viewBox="0 0 560 1e3"><path style="fill:gray" id="path2478" d="m354.7 252.8c16.27647 11.07059 4.68823 71.22941 12.58823 89.42941 13.9 6.4 33.92941.006 56.67647-23.61764.0.0 2.36964-4.89758 5.02681-11.26096 2.30717-5.52522 4.30079-10.56453 5.67855-16.05343.0621-.24735 6.16551-1.93248 6.22281-2.17499.38236-1.61806 3.51661-12.77472 3.64419-14.10698.002-.0196-12.87843-18.06261-12.92394-17.67101-.0706.60754-.0959 3.73077-.15319 4.53776-.008.10797 1.45535 2.47569 3.22369 5.30774.38359.61432 2.25028.063 2.65071.70267.35653.56958-.75372 2.32945-.40166 2.89168 2.04003 3.25788 3.86394 6.17518 3.8381 6.23505-.39664.91893-4.48253 6.93389-4.55442 6.79123-9.05475.18847-16.71185-.30164-26.15721.77969-.0852.1626-2.44384-4.00594-4.14003-7.66389-.0413-.0891 1.89229-3.15251 4.03896-6.5324.35679-.56175-.90554-2.25725-.54507-2.82428.55483-.87277 2.72944-.61233 3.24433-1.42419 1.62677-2.565 2.90703-4.60396 2.91063-4.71357.0292-.88823.16182-3.29687.10844-4.15504-.0223-.35855-13.89355 16.91291-13.99153 16.9258 1.35473 4.69956 2.66568 11.55042 3.6686 16.45514.0259.27207 4.56276.89933 4.59459 1.17441.6809 5.88363 2.64496 12.39356 2.95201 16.8678-9.3 8-15.3 8.15294-24.4 12.1 3.1-11.3 8.6-85.7-9.2-103-8.1-7.9-9.6-4.9-16.6-9.2-50 6.3-29 47.6-8 44.2"/><path style="display:inline;fill:#b3b3b3" id="path2478-1" d="m354.7 252.8c7.24023 4.92451 6.92 19.39451 9.32433 35.18675.0447.29391 6.30781.21029 6.31668.50844.20567 6.91532.60362 13.07111.59459 19.79875-35e-5.26208-6.93951.0897-6.95266.4076-.0987 2.38421.24991 4.61401.20585 6.32538-.008.32953 7.18301.61041 7.21683.93586.65315 6.28467 1.29671 12.0996 2.08414 16.91387.0596.36447-8.00297 2.91017-7.93762 3.26186.43563 2.34418 1.00164 4.39887 1.73609 6.0909.27814.12755 46.58292-25.74385 51.50253-30.41303.17411-.16525 3.04789-.0179 2.48556.71962-4.30068 5.64046-11.93919 11.6824-18.87223 16.12939-.17889.11474-2.83106-4.84444-3.01039-4.73066-1.76996 1.12298-2.54337 1.49175-4.32156 2.51645-.2045.11785 2.11023 5.14056 1.90609 5.25705-13.02407 7.43178-25.22005 12.08328-24.07301 12.34662.1862.2752 6.45158.67444 6.70227.49813 7.93919-2.49575 14.55454-5.49115 20.29239-8.83941.25463-.14858 1.56819 1.42571 1.81941 1.27574 1.2829-.76584 2.61015-1.63786 3.81015-2.43757.26313-.17536-.62465-1.98668-.36519-2.16357 3.35333-2.28622 6.40372-4.69859 9.26943-7.19822.10682-.0932 1.37323 1.22935 1.48778 1.13734.79283-.63675 1.70537-1.54516 2.52467-2.30449.13756-.12749-.91848-1.62519-.78162-1.75305 3.02694-2.82799 5.88415-5.74415 8.73087-8.69612.0.0-.061.14055 2.59613-6.22282 2.27169-5.44024 3.70718-12.07803 3.94528-16.70188.0174-.33724 6.61332-2.03409 7.41349-2.35064.54083-1.46349 2.11535-7.91722 2.36652-9.07911-.81275.83852-5.17841 5.81079-6.60867 7.1773-1.76948-.006-1.99286-.10333-3.67155.0919-6.01413-1.05966-10.95651-1.07475-19.50379.45558-.65235.0497-3.24782-.0759-3.24782-.0759s-4.95575-5.39456-5.91566-6.27092c.14005.57158 2.13995 8.68973 2.24142 9.36419.0356.23697 4.7264.99777 5.10677 1.3369-.2777 5.44649 1.43848 12.38845 1.78253 17.40177.13081.65882-.0462 1.28375-.26196 1.95914-.21093.66025-1.69249 2.13569-3.15759 3.26231-.20364.15659-1.19848-1.71454-1.4214-1.55118-.91746.67235-2.18065 1.21226-3.37254 1.97574-.4024.25777 1.2757 1.89465.84842 2.15991-2.11099 1.31052-5.09953 3.01605-7.58302 4.40337-.20192.11279-1.57557-3.24369-1.77856-3.13102-1.14898.63777-2.71113.80877-3.87194 1.43249-.13411.0721 1.30071 4.07725 1.16673 4.14899-7.89854 4.22933-9.78335 5.14728-11.13711 5.51791-.67931-5.33463-.45576-7.63625-.85878-12.92395-.0168-.22053 8.02722-.4274 8.11458-.88663.41491-2.18114.74576-5.47985.77634-6.81963.01-.4162-9.82516.81129-9.73647.40519.18914-6.14113-.29268-18.26924.0343-20.39363.10892-.70755 10.96106-.95851 11.0333-1.68167.24497-2.45243.16635-5.12158.16512-7.64198-32e-5-.65529-10.57875 1.13627-10.50107.48217 2.61457-22.0147-1.55203-59.02229-2.05839-61.61753-8.1-7.9-9.6-4.9-16.6-9.2-50 6.3-29 47.6-8 44.2"/></svg>