<svg viewBox="0 0 560 1e3"><path d="m262.58376 114.0127c.21917.48832 2.31612-1.93226 2.3643-2.07079 4.38729-4.75506 7.35197-5.82228 14.85013-7.3946.3433-.0174 6.24163 2.75103 6.59145 2.74513.23633 10.87737 10.65884 25.40386 24.35438 36.03372.20017.15536.27566-.16525-.0946-.63887-12.5916-16.10666-14.21229-25.03317-12.64832-23.99524 13.20185 14.1305 15.33012 26.00498 32.60237 36.07754.14864-.0141-9.04274-21.81414-5.51856-21.65624 2.11658 2.52119 5.15116-.95931 6.99189 1.46055 32.13954-56.274313-78.35232-60.270711-69.49304-20.56119z" class="hair" id="path5484"/><path style="display:inline;fill-opacity:1;fill-rule:evenodd;fill:#2b1100;opacity:1;stroke-dasharray:none;stroke-linecap:butt;stroke-linejoin:miter;stroke-miterlimit:4;stroke-opacity:0;stroke-width:2.46133304;stroke:#000" d="m287.05485 64.203969c1.1829 16.575141 14.93532 5.810969 25.40932-1.102977-2.47991-.08776-4.5522.130454-6.36144.493499-2.14202.429817-5.10858-.08641-6.75314.481967-4.07152 1.407168-6.16062 3.568443-12.29474.127511z" id="path5488"/><path style="display:inline;fill-opacity:1;fill-rule:evenodd;fill:#725d49;opacity:1;stroke-dasharray:none;stroke-linecap:butt;stroke-linejoin:miter;stroke-miterlimit:4;stroke-opacity:0;stroke-width:2.46133304;stroke:#000" d="m262.09734 107.99255c-1.16943-9.996715 17.56023-40.453546 24.32044-43.79817 1.00345-.425075 1.46394.308521 3.34953 6.209857-.027.25796-.0855.268337.18732.123479 22.92416-12.170834 27.66849-6.3992 29.13659-3.596706 1.04563 1.859154 22.43908 42.70928 18.57506 44.56511-9.75242-2.87963-49.21372-.4493-53.72533-.64336-3.826-.16456-18.3483-3.37453-21.84361-2.86021z" id="path5490"/><path style="display:inline;fill-opacity:1;fill-rule:evenodd;fill:#725d49;opacity:1;stroke-dasharray:none;stroke-linecap:butt;stroke-linejoin:miter;stroke-miterlimit:4;stroke-opacity:0;stroke-width:2.4802506;stroke:#000" d="m290.47549 68.948716c1.38285-.842826 8.50453-3.368372 15.82295-5.38379-1.81755-.06314-2.76481-1.478555-4.63817-1.403096-1.39795.05631-3.7409 1.579838-5.03274 1.682352-1.66959.132492-2.60785-1.457482-3.8757-1.298495-2.28662.286739-4.30777 2.320098-4.13346 2.432448.31797.20495 1.35324 3.025252 1.85712 3.970581z" id="path5500"/><path id="path5122-6-1" d="m285.98133 91.470948c-.37456.03161-5.4337 2.783591-5.79999 2.841115.0.0 2.55732-5.150847 2.65215-5.674026.0.0-3.35938-3.401135-3.5516-3.8796.0.0 4.94471.751493 5.16802.244265l2.58288-5.866942s1.46244 5.285164 1.73727 5.951265c.28007.678772 5.32983.286306 5.25721.659205-.16454.844802-3.7307 3.047529-3.74776 3.308559-.0226.343793 1.47033 5.966392 1.47033 5.966392-.41554-.174302-5.54-3.569504-5.76851-3.550233z" style="fill:#000"/><path id="path5122-6" d="m286.02726 91.141713c-.34568.02901-5.01472 2.554153-5.35277 2.606936.0.0 2.36013-4.726287 2.44765-5.206343.0.0-3.10035-3.120795-3.27775-3.559823.0.0 4.56344.689551 4.76953.224132l2.38373-5.383359s1.34967 4.849534 1.60331 5.460732c.25848.622823 4.91887.262706 4.85185.604869-.15185.775168-3.44304 2.796336-3.45879 3.035851-.0208.315455 1.35696 5.47461 1.35696 5.47461-.3835-.159936-5.11283-3.275286-5.32372-3.257605z" style="fill:maroon"/><path style="display:inline;fill-opacity:1;fill-rule:evenodd;fill:#2b1100;opacity:1;stroke-dasharray:none;stroke-linecap:butt;stroke-linejoin:miter;stroke-miterlimit:4;stroke-opacity:0;stroke-width:2.46133304;stroke:#000" d="m262.00429 106.41869c1.05235-.052 17.54676 2.33275 21.9677 3.01807 5.78667-.45396 51.28165-1.01244 54.11147.40105-2.15212-.52359-47.62963-.41303-54.14036.0296-3.39885-.3822-21.47649-3.08955-21.93881-3.44872z" id="path5488-4"/></svg>