<svg viewBox="0 0 560 1e3"><path id="path4866" class="hair" d="m354.20726 358.9161c-.15032.57634-3.10063 2.19322-7.25222 4.21473-.3583.17447-.63716-1.76937-1.01233-1.58929-.3501.16805-.79548 2.4597-1.15853 2.63195-2.60626 1.23657-5.5249 2.57293-8.44697 3.88619-.26739.12017-.62319-1.35084-.8904-1.23115-.38326.17167-.6777 1.93374-1.0594 2.10396-8.32854 3.71392-16.12079 7.01393-16.12079 7.01393-7.71614 2.0742-39.91855 3.98267-51.5783-.7507-1.654-1.32025-3.83586-2.58361-6.07536-3.96955-.24853-.1538-.76292-2.69559-1.01222-2.85266-.33751-.21264-.40998 1.95799-.7461 1.73831-3.42196-2.23625-6.69144-4.86882-8.12639-8.53964-.36866-.9431 9.74202-155.52145 9.88745-172.97392.0116-1.3909-1.56666 6.03199-1.55285 4.59538.0162-1.68377 1.62485-12.23477 1.64387-13.96831.97736-22.95847-.0728-48.29414 1.55264-72.65181 45.54428-44.102207 75.16786-41.770949 82.53009-5.83163.63524 3.10097 1.00632 6.86138 1.16357 11.04684.0304.80818 1.55535 7.81939 1.57013 8.65757.0158.89807-1.47967-4.37479-1.48086-3.44629-.003 2.62214-.0729 5.35737-.19844 8.15893-.0522 1.16396.85824 11.08982.78742 12.27333-.0602 1.0054-1.09906-6.7338-1.17171-5.71877-.15686 2.19152-.34182 4.4007-.55042 6.60685-.0746.78877.82008 8.825.73965 9.61205-.0825.80717-1.14021-5.6349-1.2284-4.83155.32669 14.3029.91449 27.22621 1.85983 41.76034.0809 1.23901 1.93142 10.7845 2.01596 12.01478.0735 1.06942-1.61946-6.17474-1.5434-5.11854.45592 6.33091 2.59719 43.41025 7.89734 138.77736.0667 1.19991 1.81326 9.39172 1.88095 10.61014.0634 1.14063-1.55221-4.69329-1.48795-3.53634.21014 3.78382.42501 7.65514.64472 11.61552.0693 1.24833.009 7.76468-.16927 8.96711-.18347 1.23477-.72479-2.85511-.91588-1.66762-.13035.81005-.26225 1.60803-.39538 2.3925z"/></svg>