<svg viewBox="0 0 560 1000"><path id="path48975" d="m 281.43079,485.82082 c -8.90103,5.77294 -20.74475,5.90479 -26.38657,2.28895 -11.1134,-7.12257 -10.24816,-24.24981 -7.48886,-28.97319 1.11939,-1.91613 3.56378,-4.10268 7.87437,-16.63193 2.87418,-8.35415 4.7973,-32.16902 4.68372,-50.82931 -0.017,-2.77304 -2.22637,-0.0652 -2.74023,-2.77639 -0.72846,-3.84317 3.95556,-10.38201 5.43966,-12.33813 5.44138,-7.17201 8.06168,-3.17014 9.27507,-3.08052 3.19565,0.23601 4.24926,7.62217 4.89998,16.61312 0.17192,2.37556 -0.18548,3.17092 -0.31511,5.64039 -0.75343,14.35257 -2.95003,23.50189 -1.76921,47.33057 0.37194,7.50549 4.08691,16.64108 5.57728,19.18348 5.76785,9.83934 6.15185,18.65223 0.9499,23.57296 z" style="display:inline;fill:#000000;opacity:1;stroke-width:1.71927035"/><path class="skin scrotum" d="m 257.13793,487.87478 c -11.80396,-5.25718 -11.90964,-24.78132 -7.47958,-29.89571 1.86165,-2.14923 3.14962,-4.05768 7.18276,-15.56914 2.76814,-7.90081 4.46625,-34.38197 4.36984,-52.26994 -0.0145,-2.65828 -3.24745,0.52938 -3.0618,-2.09929 0.26099,-3.69555 2.55248,-7.57741 7.00798,-13.54134 2.65821,-3.55813 8.1286,-3.68066 12.08129,0.10718 2.24025,2.14678 5.29678,6.47898 5.84907,15.09783 0.14593,2.27722 -2.64262,-0.10142 -2.75265,2.26587 -0.6395,13.75852 -1.94988,28.42787 -0.94762,51.27032 0.3157,7.19485 2.55318,12.10008 3.99721,14.43562 5.83165,9.43211 8.02985,24.17646 0.50934,28.91436 -7.52052,4.73789 -21.35575,3.6893 -26.75584,1.28424 z" id="path48977"/></svg>
