<svg viewBox="0 0 560 1e3"><path style="baseline-shift:baseline;clip-rule:nonzero;color-interpolation-filters:linearRGB;color-interpolation:sRGB;color-rendering:auto;color:#000;direction:ltr;display:inline;enable-background:accumulate;fill-opacity:1;fill-rule:evenodd;fill:#000;image-rendering:auto;isolation:auto;mix-blend-mode:normal;opacity:1;overflow:visible;shape-rendering:auto;solid-color:#000000;solid-opacity:1;stroke-dasharray:none;stroke-dashoffset:0;stroke-linecap:butt;stroke-linejoin:miter;stroke-miterlimit:4;stroke-opacity:1;stroke-width:1.77084005;stroke:none;visibility:visible;white-space:normal;writing-mode:lr-tb" d="m367.17579 511.40169c-13.90377-16.26753-140.60543-98.9851-143.49968-97.91993-13.41268 19.32424-21.26828 68.09414-16.48149 93.64735 9.0987 7.45979 63.48633 10.04211 68.05112 6.09996.74694-.64505 1.56682.0422 1.62705.0798 8.64963 5.4024 54.943 1.95886 62.62728-5.43294 1.96747 3.60501 24.12962 7.11091 27.67572 3.52576z" id="path3435"/><path style="baseline-shift:baseline;clip-rule:nonzero;color-interpolation-filters:linearRGB;color-interpolation:sRGB;color-rendering:auto;color:#000;direction:ltr;display:inline;enable-background:accumulate;fill-opacity:1;fill-rule:evenodd;fill:#333;image-rendering:auto;isolation:auto;mix-blend-mode:normal;opacity:1;overflow:visible;shape-rendering:auto;solid-color:#000000;solid-opacity:1;stroke-dasharray:none;stroke-dashoffset:0;stroke-linecap:butt;stroke-linejoin:miter;stroke-miterlimit:4;stroke-opacity:1;stroke-width:1.67334545;stroke:none;visibility:visible;white-space:normal;writing-mode:lr-tb" d="m367.14933 511.50639c-.58428-9.18224-1.02461-18.9606-2.1055-29.03297 18.86471-31.07961-11.79028-69.26942-12.98387-72.0239-13.38607 6.4024-75.21854 28.14253-80.33144 23.15495.5072 3.88062 2.73437 45.95016 5.05355 79.63917.0.0 45.31953 3.24969 62.90508-7.5128 4.02334 2.68104 13.35911 6.15432 27.46218 5.77555z" id="path3437"/><path style="baseline-shift:baseline;clip-rule:nonzero;color-interpolation-filters:linearRGB;color-interpolation:sRGB;color-rendering:auto;color:#000;direction:ltr;display:inline;enable-background:accumulate;fill-opacity:1;fill-rule:evenodd;fill:#333;image-rendering:auto;isolation:auto;mix-blend-mode:normal;opacity:1;overflow:visible;shape-rendering:auto;solid-color:#000000;solid-opacity:1;stroke-dasharray:none;stroke-dashoffset:0;stroke-linecap:butt;stroke-linejoin:miter;stroke-miterlimit:4;stroke-opacity:1;stroke-width:1.67334545;stroke:none;visibility:visible;white-space:normal;writing-mode:lr-tb" d="m280.24046 512.22032c-3.86376-31.32227-7.78895-62.48196-9.39845-72.30092-23.71289-13.25991-43.84533-26.92069-46.98774-26.54302-13.80127 27.90206-18.12773 60.30062-16.54507 94.10912.0.0 65.64823 10.21888 72.93126 4.73482z" id="path3439"/><path d="m329.46037 425.76321c-15.4791 1.19068-42.03653 26.26041-44.60913 30.99635 10.29989-9.14088 29.75951-26.28541 44.60913-30.99635z" class="shadow" id="path3443"/><path d="m261.71828 457.6115c-6.81704-9.41592-28.83006-31.99347-34.93819-34.15183 5.05404 5.44075 26.5203 25.35081 34.93819 34.15183z" class="shadow" id="path3445"/><path d="m283.66521 456.38067c-1.54841.73859-1.78928 15.78672-9.24659 11.14886-5.5459 3.1603-10.12915-4.94173-10.42429-8.4126-.25114-2.95343 3.37748-7.20053 3.87403-6.51846 2.14579-.003 16.30971 2.85987 15.79685 3.7822z" class="shadow" id="Body_Normal_Pussyshadow-9"/><path d="m274.36595 467.58332c-3.81452 2.31718-9.64064-2.27902-10.8644-11.68664 5.95334-21.67633 25.49385-8.31185 20.23612.35499-2.87984 4.74713-3.52005 14.37508-9.37172 11.33165z" class="skin torso" id="Body_Normal_Pussy-5"/><path id="path3344-1-8" d="m275.36319 510.53226c-9.47722 3.32694-63.43244-2.79757-68.32199-5.77359.0156.36181.0501.92235.25601 2.69939 16.52371 5.43081 58.8703 7.30296 68.08365 5.94518-.0374-.79532-.0236-2.59976-.0177-2.87098z" style="display:inline;fill-opacity:1;fill-rule:evenodd;fill:#fff;opacity:1;stroke-dasharray:none;stroke-linecap:butt;stroke-linejoin:miter;stroke-miterlimit:4;stroke-opacity:1;stroke-width:0;stroke:#000"/><path id="path3344-1-2-3" d="m275.78131 509.66853c.0204.36181.50234 1.54154.65115 3.45116 15.23297 4.03939 56.67418.35805 63.28093-6.68124 2.54519 4.26609 23.72696 6.58676 27.43031 5.06624-.0489-.79532-.0789-1.0308-.0712-1.30202-2.24029 1.41082-23.77903-.82874-27.00214-6.51603-5.95619 8.79549-50.60711 11.47166-63.75863 6.66043z" style="display:inline;fill-opacity:1;fill-rule:evenodd;fill:#fff;opacity:1;stroke-dasharray:none;stroke-linecap:butt;stroke-linejoin:miter;stroke-miterlimit:4;stroke-opacity:1;stroke-width:0;stroke:#000"/><path d="m292.50576 613.76552c-11.69662-41.96795-18.20109-93.73511-19.00593-137.96632 3.81661 43.09419 12.54209 109.05566 19.00593 137.96632z" class="shadow" id="path3441"/><path id="path3344-1-5-8" d="m336.18565 421.8999c4.3624 12.79607 4.98159 76.66552 2.56903 84.00697.35782-.0789.91102-.2158 2.65404-.78531 3.55549-24.08049.004-70.96344-2.37195-83.69902-.7862.17793-2.58093.44294-2.85112.47741z" style="display:inline;fill-opacity:1;fill-rule:evenodd;fill:#fff;opacity:1;stroke-dasharray:none;stroke-linecap:butt;stroke-linejoin:miter;stroke-miterlimit:4;stroke-opacity:1;stroke-width:0;stroke:#000"/></svg>