<svg viewBox="0 0 560 1e3"><path style="display:inline;fill-opacity:1;fill-rule:evenodd;fill:#000;opacity:1;stroke-dasharray:none;stroke-linecap:butt;stroke-linejoin:miter;stroke-miterlimit:4;stroke-opacity:1;stroke-width:0;stroke:#000" d="m368.67614 407.53c.8928 1.03783-5.37284 9.27719-5.37284 9.27719-8.19048 4.90102-49.96568 10.20435-62.40067 20.70752-4.31136 3.64157-13.47661 8.29154-16.37051 16.44054-2.5916 7.29773-3.32032 16.98798-9.68774 14.34823-.12708-.0527-.25389-.22936-.38798-.17253-3.64553 1.54503-9.41962-.71855-11.29492-12.24341-2.95293-18.14755-12.84146-17.24873-13.71165-17.80621-12.60056-8.07247-21.38891-19.81687-24.85363-25.1259.0593-.70684-.14438-7.38126-.14438-7.38126 30.95157 34.29024 120.90424 8.16181 144.22432 1.95583z" id="path3581-6-4-0-7-4-3-0-5"/><path style="display:inline;fill-opacity:1;fill-rule:evenodd;fill:#333;opacity:1;stroke-dasharray:none;stroke-linecap:butt;stroke-linejoin:miter;stroke-miterlimit:4;stroke-opacity:1;stroke-width:0;stroke:#000" d="m367.93194 408.743c.8928 1.03783-4.0572 8.30164-4.0572 8.30164-26.45516 18.17615-63.03106 39.13132-79.66632 39.75358-.27428.37469-.68811.67278-.81935 1.10672-3.57923 11.83428-8.32513 9.8537-8.89431 9.63462-.17013-.0655-5.98956 2.88621-10.50307-7.67418-.19489-.456-.68412-.47689-1.06552-.9139-16.27203-7.95813-36.45881-24.8256-39.15367-45.27808.0593-.70684 1.06207-7.18932 1.06207-7.18932 29.78951 36.10978 120.90229 9.2149 143.09737 2.25892z" id="path3581-6-8-0-7-5-9-9"/><path id="path3401-2-3-9-5-9" class="shadow" d="m329.90806 425.67038c-15.4791 1.19068-42.03653 26.26041-44.60913 30.99635 10.29989-9.14088 29.75951-26.28541 44.60913-30.99635z"/><path id="path3406-2-8-5-8-7" class="shadow" d="m262.16597 457.51867c-6.81704-9.41592-28.83006-31.99347-34.93819-34.15183 5.05404 5.44075 26.5203 25.35081 34.93819 34.15183z"/><path style="display:inline;fill-opacity:1;fill-rule:evenodd;fill:#000;opacity:1;stroke-dasharray:none;stroke-linecap:butt;stroke-linejoin:miter;stroke-miterlimit:4;stroke-opacity:1;stroke-width:0;stroke:#000" d="m370.52949 269.10119c4.95689 27.02974-7.57053 56.18503-9.82887 81.09058-.65233 7.19397 5.62112 14.43267 6.43749 24.43791-13.79439 3.71945-121.9152 19.21027-144.43681-6.91946 1.09157-8.53879 13.33658-40.93302 13.78642-49.08538.66022-7.18176-4.24882-23.17452-1.7031-45.01174 4.1474-34.69597 23.60454-60.35906 50.55649-72.99246 9.24713 11.38115 26.77312 2.86386 32.85275-2.40445 3.60502 2.41128 12.51351 5.15536 13.9274 8.77997 5.80316 14.87672-6.8011 38.98424 32.06295 60.59513z" id="path4467-6-1-8"/><path id="path3371-5" d="m370.55315 268.83036c1.65694 38.34671-10.78673 62.67351-11.39662 82.57427-.21461 7.00257 5.40829 11.83923 5.72398 21.85414-37.1677 8.35602-127.68512 12.51463-140.28749-6.79612 2.83363-11.52951 12.15545-37.70518 12.80969-44.29554 1.60975-16.21545-3.62279-19.21936-1.71887-42.31195.62283-5.80398 1.32021-11.77405 1.93291-17.12971 2.80944-24.25611 17.62018-49.23247 47.6429-61.1382 9.14993 11.38115 27.12715 2.68708 33.14287-2.58123 1.48672 1.12706 17.6131 7.18224 18.14498 8.5246 1.34998 3.19719 2.37503 6.3614 3.25412 9.48996 2.76556 9.84229 4.08656 19.33169 9.53548 28.38477 7.32565 13.63251 15.77601 21.57759 21.21605 23.42501z" style="display:inline;fill-opacity:1;fill-rule:evenodd;fill:#d4aa00;opacity:1;stroke-dasharray:none;stroke-linecap:butt;stroke-linejoin:miter;stroke-miterlimit:4;stroke-opacity:1;stroke-width:0;stroke:#000"/></svg>