<svg viewBox="0 0 560 1e3"><path style="display:inline;fill-opacity:1;fill-rule:evenodd;fill:#000;stroke-dasharray:none;stroke-linecap:butt;stroke-linejoin:miter;stroke-miterlimit:4;stroke-opacity:0;stroke-width:3.02935934;stroke:#000" d="m300.39583 218.87955c2.88085-3.50481 6.15719-4.57678 3.22635-5.38665-7.83122-2.16398-6.65602-5.15553-29.53589-8.46494.072.004-5.49099-.47931-14.42275-6.81166-13.22617-9.37695-31.23017-25.37688-42.44015-34.0954-5.02375-3.90721-9.54618-5.64474-10.17113-5.89051 53.2679-31.00823 58.29981-34.4211 81.2518-40.3133-2.329-15.1308 3.52429-29.098498-6.81617-25.611862-76.37618 25.752802-107.23948 49.521862-113.38234 59.866892-2.74126 6.32503 69.91817 79.6221 112.4707 107.77767 9.89979-18.57727 19.44175-40.69055 19.81958-41.07024z" id="path1609"/><path style="display:inline;fill-opacity:1;fill-rule:evenodd;fill:#00619e;stroke-dasharray:none;stroke-linecap:butt;stroke-linejoin:miter;stroke-miterlimit:4;stroke-opacity:0;stroke-width:3;stroke:#000" d="m300.48784 216.69956c2.82896-3.50026 6.04627-4.57084 3.16823-5.37966-7.69014-2.16117-6.53612-5.14882-29.00381-8.45395.0707.004-5.39207-.47868-14.16293-6.80281-12.98791-9.36478-30.66758-25.34394-41.67562-34.05114-4.93325-3.90214-9.37422-5.63742-9.9879-5.88287 39.95786-25.85154 60.34081-34.76738 78.3675-37.64166-2.28703-15.11115.98912-27.261299-9.16506-23.77919-75.0003 25.71939-107.83825 53.33657-107.96834 58.01865-2.69187 6.31682 69.17942 76.87054 110.96539 104.98956 9.72145-18.55316 19.09151-40.63773 19.46254-41.01693z" id="path1611"/></svg>