<svg viewBox="0 0 560 1e3"><path class="eyebrow_hair" id="path7299" d="m278.3492 122.04728c.18394.63572 1.13631 4.47755-.54899 3.66084-.43138-.61065-.89291-1.119-1.37596-1.53743-.25469-.22059-.51537-.4163-.78075-.5888-.25496-.16554-.51427-.31004-.7768-.43459-2.00868-.95311-4.20602-.74913-6.08815-.11197-2.14501.74467-4.83672 2.58895-6.23711 4.71775-.13584-1.86862-.2404-2.71545-.27075-4.15114-.008-.40716-.27572.0228-.29689-.26136.13654-.3215.93795-1.3251 1.03069-1.40891.15041-.136-.32718-.39151-.18096-.55894.18438-.21122.98452-.37377 1.17671-.56695.55656-.5594 1.14414-1.04342 1.75272-1.45223.21469-.14447-.14363-.47691.0759-.60238.13492-.0771.84634.0471.98281-.0228.60915-.31278 1.23263-.55517 1.86132-.72729.30162-.0826-.11514-.58415.18788-.63438.25263-.0419 1.22499.36267 1.47732.34326.44703-.0343.89267-.0335 1.33367 96e-5.25532.0201-.0125-.73783.23899-.6934.22837.0404.97665.88169 1.20095.94142.53585.14271 1.05876.34078 1.56232.59414.3616.1818-.0424-.67597.29692-.43705.21924.15451 1.18888 1.38883 1.39717 1.56697.74404.63628 1.41413 1.42405 1.9811 2.36294z"/><path class="eyebrow_hair" id="path7301" d="m297.58384 122.71202c-1.2365.39507-2.44327.98797-3.65063 1.78484-4.08344 2.77792-2.97054-.81269-2.91826-2.07396.85793-.95696 1.70351-1.75656 2.54496-2.41842.39385-.30978 1.80605-1.64649 2.19893-1.89792.40096-.25658-.21734.57331.18432.37333.4876-.24274.97642-.44542 1.46806-.61174.44214-.14968 1.63234-.81125 2.0802-.90493.31545-.0661-.11315.42277.20607.38225.55627-.0708 1.11896-.10421 1.69023-.10574.36134-87e-5 1.60863-.35008 1.97737-.32674.31148.0185-.25673.40859.0607.44394.48911.0543.98573.12662 1.49106.21333.27816.0478 1.5285-.28667 1.81215-.23036.32564.0645-.31451.52129.0189.59575.79648.17781 1.61605.38171 2.46283.60174.32064.14906 1.48865.0233 1.81433.20347.24044.13329-.36208.56618-.12091.71481.9541.58793 1.45973.82669 2.35876 1.59959.43479.37379 1.34914.69103 1.75263 1.09252.0784.078-.33613.22939-.25919.30818.7413.7594 1.86063 2.01905 2.42362 2.81752.001.62265-2.72361-1.48033.70081 2.1317-6.77721-3.60577-13.77091-6.70676-20.29699-4.69304z"/></svg>