<svg viewBox="0 0 560 1e3"><path id="path3543-7-6" d="m370.85615 291.82249c-16.75939 94.6022 15.50203 84.90559-5.54867 125.28396-39.63585 8.44961-90.83686-12.90018-92.09168-14.81835-1.64009.741-46.07386 10.68531-47.3817 8.34898-17.19744-51.98121 14.42461-57.21898 8.99392-120.13694 31.55028 3.86008 100.97507 6.72864 136.02813 1.32235z" style="display:inline;fill-opacity:1;fill-rule:evenodd;fill:#000;opacity:1;stroke-dasharray:none;stroke-linecap:butt;stroke-linejoin:miter;stroke-miterlimit:4;stroke-opacity:1;stroke-width:0;stroke:#000"/><path id="path3545-8-0" d="m369.7272 292.63043c-17.37253 83.71577 11.7141 81.97668-3.46499 126.31761-87.98397 16.38228-119.41482 12.96927-140.52918-8.11885-14.44218-52.17967 16.73061-62.74471 10.47228-118.9856 26.56853 7.31487 118.45284 5.0362 133.52189.78684z" style="display:inline;fill-opacity:1;fill-rule:evenodd;fill:maroon;opacity:1;stroke-dasharray:none;stroke-linecap:butt;stroke-linejoin:miter;stroke-miterlimit:4;stroke-opacity:1;stroke-width:0;stroke:#000"/><path id="path3547-0-5" d="m271.48166 426.63426c-2.96459-1.35508 3.51233-92.0077 10.17092-132.27485.0421-.18953-.065-.55474.12551-.56351.81123-.0373.77997.3603 2.32799.0884.20144-.0354-.067.40493-.1009.60937-10.12688 61.2283-12.38098 131.94573-12.52352 132.14056z" style="display:inline;fill-opacity:1;fill:#000"/><path id="path3549-0-4" d="m277.26367 407.09589c0 .86028-3.76472 3.3125-6.25 3.3125l.28125-6.65625c2.48528.0 5.96875 2.60847 5.96875 3.34375z" style="display:inline;fill:#000"/><path id="path3551-7-9" d="m277.90626 391.4531c0 .86028-3.76472 3.3125-6.25 3.3125l.28125-6.65625c2.48528.0 5.96875 2.60847 5.96875 3.34375z" style="display:inline;fill:#000"/><path id="path3553-5-8" d="m279.12501 376.4531c0 .86028-4.04597 3-6.53125 3l.46875-6.65625c2.48528.0 6.0625 2.92097 6.0625 3.65625z" style="display:inline;fill:#000"/><path id="path3555-3-4" d="m280.18751 363.2656c0 .86028-4.20222 2.6875-6.6875 2.6875l.59375-6.65625c2.48528.0 6.09375 3.23347 6.09375 3.96875z" style="display:inline;fill:#000"/><path id="path3557-9-4" d="m281.25001 348.5781c0 .86028-3.95222 2.875-6.4375 2.875l.625-6.59375c2.48528.0 5.8125 2.98347 5.8125 3.71875z" style="display:inline;fill:#000"/><path id="path3559-7-1" d="m283.00001 332.92185c0 .86028-4.13972 2.65625-6.625 2.65625l.6875-6.59375c2.48528.0 5.9375 3.20222 5.9375 3.9375z" style="display:inline;fill:#000"/><path id="path3561-4-3" d="m284.7206 318.33666c0 .86028-4.29597 2.28125-6.78125 2.28125l.8125-6.5c2.48528.0 5.96875 3.48347 5.96875 4.21875z" style="display:inline;fill:#000"/><path id="path3563-0-3" d="m286.3358 302.31061c0 .86028-3.98347 3-6.46875 3l.9375-6.3125c2.48528.0 5.53125 2.57722 5.53125 3.3125z" style="display:inline;fill:#000"/><path id="path3569-2-0" d="m277.18902 406.27379c0 .86028-3.76472 3.3125-6.25 3.3125l.28125-6.65625c2.48528.0 5.96875 2.60847 5.96875 3.34375z" style="display:inline;fill:#787878"/><path id="path3571-1-8" d="m277.83161 390.631c0 .86028-3.76472 3.3125-6.25 3.3125l.28125-6.65625c2.48528.0 5.96875 2.60847 5.96875 3.34375z" style="display:inline;fill:#787878"/><path id="path3573-64-9" d="m279.05036 375.631c0 .86028-4.04597 3-6.53125 3l.46875-6.65625c2.48528.0 6.0625 2.92097 6.0625 3.65625z" style="display:inline;fill:#787878"/><path id="path3575-5-3" d="m280.11286 362.4435c0 .86028-4.20222 2.6875-6.6875 2.6875l.59375-6.65625c2.48528.0 6.09375 3.23347 6.09375 3.96875z" style="display:inline;fill:#787878"/><path id="path3577-4-4" d="m281.17536 347.756c0 .86028-3.95222 2.875-6.4375 2.875l.625-6.59375c2.48528.0 5.8125 2.98347 5.8125 3.71875z" style="display:inline;fill:#787878"/><path id="path3583-8-8" d="m282.92536 332.09975c0 .86028-4.13972 2.65625-6.625 2.65625l.6875-6.59375c2.48528.0 5.9375 3.20222 5.9375 3.9375z" style="display:inline;fill:#787878"/><path id="path3585-0-2" d="m284.64595 317.51456c0 .86028-4.29597 2.28125-6.78125 2.28125l.8125-6.5c2.48528.0 5.96875 3.48347 5.96875 4.21875z" style="display:inline;fill:#787878"/><path id="path3587-6-4" d="m286.26115 301.48851c0 .86028-3.98347 3-6.46875 3l.9375-6.3125c2.48528.0 5.53125 2.57722 5.53125 3.3125z" style="display:inline;fill:#787878"/><path style="display:inline;fill-opacity:1;fill-rule:evenodd;fill:#000;opacity:1;stroke-dasharray:none;stroke-linecap:butt;stroke-linejoin:miter;stroke-miterlimit:4;stroke-opacity:1;stroke-width:0;stroke:#000" d="m367.46086 409.37625c2.80181 5.33577 5.31877 38.1534-.87164 64.50646-20.82093 14.76257-101.55407 3.60363-151.95195.28076.0585-1.03765.0424-2.07139.18689-3.07673 6.24071-43.42968 8.73403-57.26949 10.53306-61.20446.20972-.4587.34723-.67416.34723-.67416 31.73404 35.14115 119.56133 7.58453 141.75641.16813z" id="path3581-6-5-2-4-8-8"/><path style="display:inline;fill-opacity:1;fill-rule:evenodd;fill:maroon;opacity:1;stroke-dasharray:none;stroke-linecap:butt;stroke-linejoin:miter;stroke-miterlimit:4;stroke-opacity:1;stroke-width:0;stroke:#000" d="m368.21515 410.38141c4.66272 19.69801 5.12905 35.60216-1.06136 60.31919-20.82093 13.84609-101.99157 3.49714-152.38945.38057.55367-47.38146 11.00468-61.00809 11.00468-61.00809 29.7895 36.10978 121.87605 7.88931 142.44613.30833z" id="path3581-6-5-2-9-2"/><path id="path3401-2-3-1" class="shadow" d="m329.90806 425.67038c-15.4791 1.19068-42.03653 26.26041-44.60913 30.99635 10.29989-9.14088 29.75951-26.28541 44.60913-30.99635z"/><path id="path3406-2-8-7" class="shadow" d="m262.16597 457.51867c-6.81704-9.41592-28.83006-31.99347-34.93819-34.15183 5.05404 5.44075 26.5203 25.35081 34.93819 34.15183z"/></svg>