<svg viewBox="0 0 560 1e3"><path id="path3958-5-3-0" d="m348.37982 404.66996c.17594.31358.23456.38621.14343.46146-7.58199 6.26056-28.75619 14.9929-52.70049 37.46273-6.87798 6.45444-12.7957 16.82698-13.00807 17.51174-3.5825-2.46332-16.67981-13.95219-18.83826.29316-3.18111.40217-22.94602-38.12251-38.67143-47.50317.11113-.0336.41697-.95933.51991-1.13087.0911-.15176.27396.0981.40697.20741 45.75563 37.58855 59.09594 21.45972 122.03856-7.43546z" style="display:inline;fill-opacity:1;fill-rule:evenodd;fill:#000;opacity:1;stroke-dasharray:none;stroke-linecap:butt;stroke-linejoin:miter;stroke-miterlimit:4;stroke-opacity:1;stroke-width:0;stroke:#000"/><path id="path2316-7-3" d="m348.37982 406.16193c.17594.29463.23456.36287.14343.43358-7.58199 5.88234-28.75619 14.08712-52.70049 35.19948-6.87798 6.06451-12.7957 15.81041-13.00807 16.4538-3.5825-2.3145-16.67981-13.10929-18.83826.27544-3.18111.37789-22.94602-35.81939-38.67143-44.63334.11113-.0316.41697-.90137.51991-1.06255.0911-.14259.28025.0854.40697.19488 43.76307 37.81395 58.39812 21.03748 122.03856-6.98626z" style="display:inline;fill-opacity:1;fill-rule:evenodd;fill:#00a883;opacity:1;stroke-dasharray:none;stroke-linecap:butt;stroke-linejoin:miter;stroke-miterlimit:4;stroke-opacity:1;stroke-width:0;stroke:#000"/><path style="display:inline;fill-opacity:1;fill-rule:evenodd;fill:#000;opacity:1;stroke-dasharray:none;stroke-linecap:butt;stroke-linejoin:miter;stroke-miterlimit:4;stroke-opacity:1;stroke-width:0;stroke:#000" d="m368.97602 268.37769c-.47811 3.70196-1.77082 21.76519-8.08229 40.07912.0.0-60.34257-24.72728-61.43367-4.26877-.69727 13.07402-8.86808 189.99423.066 204.46732-1.46254 2.04111-47.48061 3.55731-56.53595-2.11146-7.49207-23.10344 26.66715-200.10073 27.00217-202.96031 1.77707-15.16848-29.77474-5.70421-31.72443-5.8672-3.86707-13.63683-.19947-35.60707 2.04959-44.64168 7.90614-13.05062 34.74653-35.33257 36.28532-47.67261-.63201-.33426 7.10811-2.90856 10.25925-5.13412 4.11179 9.34821 21.57324 8.46678 31.21288-2.45838 5.02226 4.22066 9.11609 5.43069 9.06243 5.7435-4.97608 21.29673 14.86591 46.82161 41.83874 64.82459z" id="path3956-4-2"/><path style="display:inline;fill-opacity:1;fill-rule:evenodd;fill:#00a883;opacity:1;stroke-dasharray:none;stroke-linecap:butt;stroke-linejoin:miter;stroke-miterlimit:4;stroke-opacity:1;stroke-width:0;stroke:#000" d="m368.47602 268.56519c-.47811 3.70196-1.64582 20.82769-7.95729 39.14162.0.0-60.46757-24.47728-61.55867-4.01877-.69727 13.07402-9.07519 190.14068-.14115 204.61377-1.46254 2.04111-46.24317 3.55731-55.29851-2.11146-7.49207-23.10344 26.63682-200.12218 26.97184-202.98176 1.77707-15.16848-30.46224-5.76671-32.41193-5.9297-3.86707-13.63683-.19947-34.23207 2.04959-43.26668 7.90614-13.05062 35.24653-36.14507 36.78532-48.48511-.63201-.33426 6.73311-2.72106 9.88425-4.94662 4.11179 9.34821 21.69824 8.46678 31.33788-2.45838 5.02226 4.22066 8.74109 5.11819 8.68743 5.431-4.97608 21.29673 14.67841 47.00911 41.65124 65.01209z" id="path3956-8"/></svg>