<svg viewBox="0 0 560 1e3"><path id="path5771" d="m347.88359 215.191c-2.25324-4.00541-13.73665-6.81616-10.82802-7.59701 19.72162-5.29453 43.52841 4.62786 45.9381 9.86401-.22298-.023 31.90628 19.92899 50.67052 37.45953-.0867 1.05301 77.97077 31.26991 77.63689 32.25901-5.34106 15.82348-14.7983 43.2067-16.74921 42.30374-7.85013-3.63339-38.38353-27.32611-49.39397-33.13072-66.71555-35.17195-86.24158-42.54428-97.27431-81.15856z" style="display:inline;fill-opacity:1;fill-rule:evenodd;fill:#000;stroke-dasharray:none;stroke-linecap:butt;stroke-linejoin:miter;stroke-miterlimit:4;stroke-opacity:0;stroke-width:3.0480547;stroke:#000"/><path id="path5773" d="m347.79149 214.93549c-2.23963-3.9037-13.65365-6.64307-10.7626-7.4041 19.60245-5.16008 43.26539 4.51035 45.66052 9.61353-.22163-.0224 31.58925 20.763 50.2401 37.84838-.0862 1.02626 77.29173 31.53124 76.95988 32.49523-5.30879 15.42166-14.37675 39.71402-16.31586 38.83399-7.8027-3.54112-38.15161-26.63219-49.09551-32.2894-66.31243-34.2788-85.72047-41.46392-96.68653-79.09763z" style="display:inline;fill-opacity:1;fill-rule:evenodd;fill:#ff6db6;stroke-dasharray:none;stroke-linecap:butt;stroke-linejoin:miter;stroke-miterlimit:4;stroke-opacity:0;stroke-width:3;stroke:#000"/><path style="display:inline;fill-opacity:1;fill:#3e89b8;stroke-dasharray:none;stroke-linecap:butt;stroke-linejoin:miter;stroke-miterlimit:4;stroke-opacity:1;stroke-width:0;stroke:#000" d="m481.50043 318.88537c.16655.16275 8.88607 7.6417 12.57381 8.37825 3.56734-2.31319 11.62093-26.08951 16.15604-40.21248-4.7828-1.41222-13.32839-5.54623-13.32839-5.54623s-5.34786 19.50244-15.40146 37.38046z" id="path4019-8-9-2-7-6"/></svg>