<svg viewBox="0 0 560 1e3"><path d="m293.50179 79.971626c1.38083-.222479 18.80847-5.700711 20.19181-5.911133 1.09335-.166359-6.61549 4.490664-5.66781 3.979911.19613-.105717 1.32396-.380656 1.32396-.380656 1.25864-.28255 9.85878-3.193614 15.61086-5.681659 2.435-1.053263 5.40841-3.65107 5.39784-3.314141-.1201 3.818037-7.94299 7.653426-6.6802 7.492806 4.38358-.557523 1.95309-.573235 6.11236-1.098546 17.83614-2.252706 27.26191-15.123129 27.25827-14.971813-.15225 6.335211-11.48172 18.913525-11.73072 19.30919-.14315.227563 22.91598-5.548488 45.22551-.07615.13325.03267-22.52993.910144-37.5438 4.868981-10.86047 2.863669-9.63555 2.948397-9.67989 3.043198-.0946.202046 10.58136 2.784203 22.24368 13.524746.0445.0411-9.96874-4.448951-15.51804-5.416889-7.91455-1.380552-12.45439.680021-14.53817 1.454299-28.08791-1.33557-34.58089-14.870599-42.00566-16.822154z" class="hair" id="path1847"/><path d="m291.99733 91.491614c1.04784-.831737 12.7098-13.607486 13.76684-14.430117.83542-.650217-3.01552 6.906737-2.50595 6.030411.10532-.1814.90673-.940248.90673-.940248.90843-.826192 6.54176-7.307916 9.99285-12.104702 1.46095-2.030607 2.47716-5.629269 2.66534-5.33689 2.13243 3.313214-2.2968 10.222208-1.31346 9.49812 3.41357-2.513546 1.33077-1.397042 4.57183-3.778821 13.89846-10.213757 14.40661-25.576234 14.49208-25.445442 3.57841 5.475694 1.27506 21.473996 1.29422 21.927316.01.260692 16.30327-15.387159 38.54005-21.08986.13264-.03402-18.68893 11.250451-29.18091 21.607776-7.58949 7.492086-6.49485 6.994922-6.4772 7.096416.0376.216321 10.65732-2.543802 26.89399 1.197906.062.01439-11.10908.838706-16.41009 2.592712-7.56045 2.501555-10.22754 6.370087-11.5521 7.999386-24.74527 11.918351-38.2074 3.389328-45.68422 5.176037z" class="hair" id="path1849"/><path d="m327.45364 110.48207c-.78817-.9928-13.44221-12.253962-14.21922-13.254499-.61415-.790776 7.24707 3.128609 6.34323 2.61742-.18708-.105754-.92531-.872362-.92531-.872362-.79928-.867045-7.25425-6.325448-12.11985-9.719058-2.05975-1.436599-5.90424-2.567388-5.55846-2.719112 3.91837-1.719311 10.99336 2.68139 10.31598 1.753092-2.35141-3.222509-1.37688-1.281385-3.60423-4.340737-9.55157-13.119325-26.43644-14.500586-26.28161-14.569619 6.48254-2.890253 23.84717.144466 24.34963.154485.28897.0058-14.96181-15.594189-18.50731-35.944431-.0208-.121575 10.10372 17.491823 20.23429 27.55483 7.32804 7.2792 6.91473 6.264413 7.02887 6.254626.2433-.02084-1.49039-9.741773 4.64219-24.125422.0236-.05499-.44643 10.045695.83401 14.920713 1.82618 6.952865 5.76456 9.585251 7.39843 10.875007 10.09276 22.981102-.97851 34.580427.0694 41.415077z" class="hair" id="path1851"/><path d="m336.45358 103.47597c-1.28159-.40106-19.06108-3.08799-20.33753-3.500857-1.0089-.326278 8.19773-1.124545 7.10303-1.081357-.22658.009-1.32933-.235698-1.32933-.235698-1.21614-.294627-10.11469-1.435849-16.39143-1.717939-2.6571-.119423-6.68982.901365-6.47856.606286 2.39378-3.343726 11.20158-3.361727 10.05528-3.766611-3.97916-1.405532-1.96809-.337327-5.74142-1.674215-16.18113-5.732907-31.74986 1.625709-31.65594 1.492703 10.68052-8.377846 7.85429-20.844386 17.84714-19.680302 10.74915 2.163786 9.78173 1.557132 9.87556 1.492046.19996-.138701-7.12377-7.066011-10.36576-21.677345-.0108-.05647 5.61422 8.280939 9.64594 11.548869 5.75012 4.660813 10.76225 4.797311 12.95973 5.012504 22.54781 13.371116 19.81344 28.225664 24.81329 33.181916z" class="hair" id="path1853"/><path d="m312.64196 110.82911c.032-1.26501-2.46957-17.5905-2.42393-18.856153.0361-1.000336 3.57323 6.521668 3.2056 5.605252-.0754-.189879-.15141-1.235423-.15141-1.235423-.0576-1.163828-1.51806-9.248033-3.08356-14.727866-.66269-2.319762-2.89926-5.328993-2.53472-5.274167 4.13071.6213 6.75121 8.134748 6.82712 6.983636.26352-3.995945-.23605-1.824113.018-5.615077 1.08932-16.256695-11.04439-26.419932-10.88046-26.396308 6.86335.988852 18.30129 12.815585 18.68241 13.091547.21909.158759-1.48855-21.243978 8.89468-40.462097.062-.114747-3.48198 20.274374-2.15456 34.236358.96019 10.09956 1.29555 9.015349 1.38988 9.067777.20103.111764 5.13006-9.089727 19.13227-18.075362.0534-.03418-6.81993 8.317692-8.97472 13.150957-3.07329 6.893294-1.73232 11.231328-1.30344 13.199353-7.0289 24.943413-23.04575 28.929213-26.64318 35.307583z" class="hair" id="path1855"/><path d="m304.677 59.336614c1.18931.70916 18.19137 7.746864 19.37353 8.466239.93436.568528-8.25237-.944429-7.16907-.714196.22422.04766 1.26512.560081 1.26512.560081 1.14355.589272 9.68859 3.913463 15.80735 5.749267 2.59021.777147 6.73152.786596 6.47237 1.021268-2.93679 2.659298-11.59524.486049-10.53955 1.16527 3.66457 2.357849 1.875.817854 5.34934 3.057695 14.89889 9.605031 31.48437 6.314788 31.36881 6.420883-4.83813 4.442092-22.61663 6.325683-23.09629 6.452477-.27581.07301 21.12196 10.439452 33.57417 28.391512.0743.10713-17.37617-13.51902-31.45606-20.126829-10.1848-4.779832-9.34021-3.948694-9.44376-3.908679-.22069.0853 5.76529 8.649768 6.39721 23.678458.002.0573-4.0696-9.45687-7.46029-13.64061-4.83586-5.966969-9.73738-7.346504-11.85919-8.102539-19.82024-18.623463-14.53672-32.402386-18.58369-38.470297z" class="hair" id="path1857"/><path d="m324.4025 52.185878c.45579 1.307528 8.96336 17.623793 9.4071 18.934556.35076 1.035964-5.71719-6.02555-5.03495-5.153139.1412.18057.60965 1.24199.60965 1.24199.49772 1.186248 4.9103 9.223484 8.4198 14.561358 1.48564 2.259649 4.65314 4.927515 4.30378 4.940854-3.95901.151103-9.19793-7.077008-8.82531-5.878273 1.29341 4.161209.91142 1.831359 2.13487 5.779909 5.24647 16.932477 20.07008 25.066597 19.91337 25.073657-3.75182.16911-10.20841-3.02099-15.1339-5.82346-3.68854-2.09868-.8524-.91653-1.04468-1.00688-.25824-.12134 9.30841-3.87097-1.74074 39.71218-.75375-21.24837-3.1097-13.44126-11.66957-20.95457-4.73397-10.2062-.56299-23.15354-.66806-23.18941-.22391-.0764-1.13906 10.33246-10.31014 22.25522-.0351.0455 2.95704-9.86153 3.04658-15.24601.12772-7.679438-2.74211-11.88564-3.88237-13.828182-3.22382-27.005225 9.67746-34.169827 10.47457-41.4198z" class="hair" id="path1859"/></svg>