<svg viewBox="0 0 560 1e3"><path id="path3222-7" d="m370.32736 265.46102c.3204 30.00766-17.56932 59.24749-19.54014 89.46197 7.69879 14.50936 16.10618 44.38618 12.20571 64.9948-40.88627-6.42191-64.48223 39.29962-83.46513 48.11028-13.46483 4.69716-17.71458-10.66263-17.71458-10.66263-6.67546-8.9041-31.17323-33.74254-36.54649-43.43743-7.4722-30.61931 12.32209-63.35396 15.00608-93.50226-3.23011-28.04469-4.25329-29.06543-3.36589-59.70123.31637-6.99101 15.76103-35.80064 39.82855-55.09133 2.45486-2.19042 8.36366-2.37802 11.80424-11.95009.43971 1.1041 25.57401 1.13003 27.54816.1128 3.70824 10.06376 11.66308 9.74809 20.64203 13.26548 3.23602 13.74016 10.2242 40.5711 33.59746 58.39964z" style="display:inline;fill-opacity:1;fill-rule:evenodd;fill:#000;opacity:1;stroke-dasharray:none;stroke-linecap:butt;stroke-linejoin:miter;stroke-miterlimit:4;stroke-opacity:1;stroke-width:0;stroke:#000"/><path id="path3224-3" d="m370.47602 265.44019c-4.32813 41.55955-19.34233 57.02197-21.1466 89.79566 3.90265 7.07374 16.00086 41.94193 14.1753 64.91487-34.41267 14.19776-52.40644 36.40748-82.5345 47.38628-.34473.71459-4.28479 1.02682-6.08184 2.18944-18.47205-3.83493-53.03854-38.45373-49.6592-55.25808-5.90583-28.10996 12.59894-60.70618 16.30718-93.67956-2.34044-15.94652-5.13391-29.40016-4.30649-52.17519 1.54167-25.94512 24.88693-46.09222 39.48525-63.03029 4.39276-1.63208 9.921-3.54094 11.89532-11.89005.91331 1.16305 27.3319.72925 27.585.13505 1.87148 7.65603 6.84719 9.74289 20.70437 13.17561 4.14295 30.00824 19.78003 50.47007 33.57618 58.43626z" style="display:inline;fill-opacity:1;fill-rule:evenodd;fill:maroon;opacity:1;stroke-dasharray:none;stroke-linecap:butt;stroke-linejoin:miter;stroke-miterlimit:4;stroke-opacity:1;stroke-width:0;stroke:#000"/><path d="m328.65568 423.62719c-15.47912 1.19068-42.03655 26.26041-44.60915 30.99635 10.29989-9.14088 29.75953-26.28541 44.60915-30.99635z" class="shadow" id="path9711-1-0"/><path d="m260.91357 455.47548c-6.81704-9.41592-28.83006-31.99347-34.93819-34.15183 5.05404 5.44075 26.5203 25.35081 34.93819 34.15183z" class="shadow" id="path9713-8-8"/></svg>