<svg viewBox="0 0 560 1e3"><path style="display:inline;fill:#000;opacity:1;stroke-width:.34455964" d="m268.99208 469.07923c.002.29898-.4956 4.07283-3.72099 3.9306-1.57939-.0697-3.78913-3.34935-3.79159-3.64833-.2346-.56475.1423-.75728.25846-.83348.30079-.19729.99785.70622 3.60646.76001 1.58039.0326 3.6452-.50779 3.64766-.2088z" id="path8516"/><path style="display:inline;fill:#000;opacity:1;stroke-width:.3276996" d="m264.5458 470.25881c-.24035.084-.41322-.0384-.68374-.0492-.76531-5.43917 2.20808-15.64224 3.07033-16.47707.15615.0716.74217-.0556.67833.15306-.38533 1.25963-3.18386 8.87622-3.06492 16.37319z" id="path8518"/><path style="display:inline;fill:#000;opacity:1;stroke-width:.3246102" d="m267.97589 471.0315c-.24994.0793-.4297-.0362-.71101-.0464.10136-4.47501 2.16479-14.39341 3.19275-15.54798.16238.0675.31823.62265.25184.81957-.40069 1.18859-2.32278 8.16781-2.73358 14.7748z" id="path8520"/><path style="display:inline;fill:#000;opacity:1;stroke-width:.32438183" d="m261.9422 469.47743c-.24959.0793-.1729-.0362-.45382-.0464-.38982-4.53595 1.15832-13.09328 3.31636-15.20263.16215.0675.2399.29967.12339.47422-.40012.59948-3.42969 6.01447-2.98593 14.7748z" id="path8522"/><path style="fill:#bababa;stroke-width:.32503304" d="m269.01624 469.24043c.002.26927-.48969 3.66805-3.6766 3.53996-1.56054-.0627-3.74391-3.01648-3.74634-3.28575-.23181-.50862.14059-.68201.25537-.75064.2972-.17769.98595.63603 3.56343.68447 1.56153.0294 3.60171-.45731 3.60414-.18805z" id="path8524"/><path style="display:inline;fill:#000;opacity:1;stroke-width:.32503304" d="m264.90418 472.69837c-.2619-.15329-.5418-.51714-.42561-.85818.14079.2.28303.61724.84156.94248-.22919.002-.38953-.0664-.41595-.0843z" id="path8526"/><path style="display:inline;fill:#000;opacity:1;stroke-width:.33014256" d="m261.41315 465.36468c-.0115.40658-.0112.91725-.0277 1.48676 2.01374 1.35321 6.6799.60297 7.79195.19785.01-.14121.152-1.5847.12372-1.57528-.93982.31291-5.61544.85718-7.88799-.10933z" id="path8528"/><path style="display:inline;fill:#000;opacity:1;stroke-width:.33247796" d="m261.73693 462.35425c-.037.30111-.10934.91692-.16944 1.47227 2.01373 1.37243 6.89434.65603 8.00638.24516.01-.14322.27195-1.6072.24367-1.59765-.93983.31736-5.80807.86045-8.08062-.11978z" id="path8530"/><path style="display:inline;fill:#000;opacity:1;stroke-width:.32924724" d="m262.45575 458.97686c-.037.29478-.24339.88534-.30359 1.42903 2.26427.87539 6.92658.55601 8.20526.30162.01-.14021.33522-1.57806.30586-1.57642-1.60044.0889-5.93115.38648-8.20754-.15423z" id="path8532"/><path style="display:inline;fill:#000;opacity:1;stroke-width:.3278257" d="m263.5632 455.90691c-.0885.2219-.38839 1.03099-.45625 1.27494 2.29207.75769 6.46655.53322 7.90891.27409.01-.13822-.0981-1.48651-.12734-1.48121-1.12244.20321-4.99954.34571-7.32534-.0678z" id="path8534"/><path style="display:inline;fill:#000;opacity:1;stroke-width:.29933125" d="m263.61963 456.19513c.007.21696.41225.14838.47081.13903 2.49957-4.61421 5.73798-1.20937 6.36802.0828.19127.12196.42018-.0837.41657-.11262-.39679-3.17811-5.4093-5.54606-7.25541-.10924z" id="path8536"/><path style="display:inline;fill:#bababa;opacity:1;stroke-width:.32503304" d="m264.62301 470.04089c-.23749.0837-.40829-.0382-.67559-.0489-.69596-4.82907 2.42261-15.59477 3.0337-16.40577.15429.0713.73332-.0554.67024.15241-.38073 1.25417-3.14588 8.8378-3.02835 16.30231z" id="path8538"/><path style="display:inline;fill:#bababa;opacity:1;stroke-width:.29689553" d="m261.52774 465.56842c-.0114.33278-.0111.75076-.0274 1.21691 1.98971 1.1076 6.6002.49352 7.69898.16194.009-.11558.15019-1.29707.12224-1.28936-.92861.25611-5.54843.7016-7.79387-.0895z" id="path8540"/><path style="display:inline;fill:#bababa;opacity:1;stroke-width:.29689553" d="m261.84766 462.59963c-.0365.243-.10805.73999-.16743 1.18817 1.98971 1.1076 6.81208.52944 7.91085.19785.009-.11558.26871-1.29707.24076-1.28936-.92861.25612-5.73876.69442-7.9842-.0967z" id="path8542"/><path style="display:inline;fill:#bababa;opacity:1;stroke-width:.29689553" d="m262.57159 459.15103c-.0365.24301-.24009.72983-.29947 1.17802 2.23348.72163 6.83239.45834 8.09368.24864.009-.11558.33066-1.30086.3017-1.29952-1.57868.0733-5.85049.3186-8.09593-.12714z" id="path8544"/><path style="display:inline;fill:#bababa;opacity:1;stroke-width:.29689553" d="m263.70563 456.03716c-.0868.18555-.38097.8621-.44753 1.06608 2.24827.63357 6.34297.44587 7.75777.2292.009-.11558-.0963-1.243-.12491-1.23857-1.10098.16992-4.904.28908-7.18535-.0567z" id="path8546"/><path style="display:inline;fill:#bababa;opacity:1;stroke-width:.29304141" d="m263.70789 456.04477c.007.21045.40733.14393.46519.13485 2.46974-4.47573 5.66951-1.17307 6.29204.0804.18898.1183.41556-.0813.4116-.10924-.42045-2.97127-5.14606-5.12881-7.16884-.10596z" id="path8548"/><path style="display:inline;fill:#bababa;opacity:1;stroke-width:.31642166" d="m268.11285 471.0315c-.23749.0793-.40829-.0362-.67559-.0464.0963-4.47501 2.05694-14.39341 3.0337-15.54798.15429.0675.30237.62265.23929.81957-.38073 1.18859-2.20707 8.16781-2.5974 14.7748z" id="path8550"/><path style="display:inline;fill:#bababa;opacity:1;stroke-width:.31642166" d="m262.08966 469.47743c-.23749.0793-.16452-.0362-.43182-.0464-.37093-4.53595 1.10216-13.09328 3.15559-15.20263.15429.0675.22826.29967.11741.47422-.38073.59948-3.26343 6.01447-2.84118 14.7748z" id="path8552"/></svg>