<svg viewBox="0 0 560 1e3"><path id="path2268" class="skin" d="m266.5 836c3.5 2.8-.9875 9.45 2.1125 19.25 2.4 7.6 3.8875 7.05 4.7875 10.95 2.8 10.5-8 25-20.6 31.3-10.4 5.2-23.4 5.6-24.7 2.3-.7-1.7 2.1-3.4 6.1-8.5 1.7-2.2 9.3-12.9 10.8-23.4 1.9-13.2 7.6-22.4 8.2-30.7.7-7.5 7.7-5.8 13.3-1.2z"/><path id="path2270" class="shoe" d="m271.2 895.3c6.5-2.7 9.7-4 11-6.6 2.2-4.4.1-9.5-1.5-13.4s-4.7-9-6.6-8.5c-1 .3-.9 2-2 4.4-1.4 3.6-3.8 5.6-6.4 7.9-14.5 12.9-17.5 20.3-25.1 20-4.2-.1-5.3-2.4-11.3-2.1-.8.0-4.9.3-9.7 2.5-2 1-9.2 4.4-8.8 7.3.6 4.1 15.6 4.8 17.4 4.9 6.4.3 12.4.6 18.5-2.8 5.1-2.8 4.1-4.9 10-8.3 4.8-2.6 6.1-1.9 14.5-5.3z"/><path id="path2272" class="shoe" d="m271.2 895.3c6.5-2.7 9.7-4 11-6.6 2.2-4.4.1-9.5-1.5-13.4s-4.7-9-6.6-8.5c-1 .3-.9 2-2 4.4-1.4 3.6-3.8 5.6-6.4 7.9-14.5 12.9-17.5 20.3-25.1 20-4.2-.1-5.3-2.4-11.3-2.1-.8.0-4.9.3-9.7 2.5-2 1-9.2 4.4-8.8 7.3.6 4.1 15.6 4.8 17.4 4.9 6.4.3 12.4.6 18.5-2.8 5.1-2.8 4.1-4.9 10-8.3 4.8-2.6 6.1-1.9 14.5-5.3z"/><path id="path2274" class="shoe" d="m320.7 872.8c-3.4 4.4-1.1 6.9-4.1 23.2-1.2 6.3-1.8 12.7-3.3 18.9-.5 2.1-1.3 5.2-.5 8.8.3 1 1.3 5.1 4.4 7.3 3.2 2.2 2.6 3.5 10.8 3.2 8.3-.3 9-1.3 11-3 5-4 3.5-16.6 2.8-21.3-.7-5.5-1.6-6-2.1-12.4-.6-7.3.5-8.3-.2-13.3-.4-3.6-1.7-13.1-7.6-15.9-4.5-2.3-7.7.0-11.2 4.5z"/><path id="path2276" class="shoe" d="m271.2 895.3c6.5-2.7 9.7-4 11-6.6 2.2-4.4.1-9.5-1.5-13.4s-4.7-9-6.6-8.5c-1 .3-.9 2-2 4.4-1.4 3.6-3.8 5.6-6.4 7.9-14.5 12.9-17.5 20.3-25.1 20-4.2-.1-5.3-2.4-11.3-2.1-.8.0-4.9.3-9.7 2.5-2 1-9.2 4.4-8.8 7.3.6 4.1 15.6 4.8 17.4 4.9 6.4.3 12.4.6 18.5-2.8 5.1-2.8 4.1-4.9 10-8.3 4.8-2.6 6.1-1.9 14.5-5.3z"/><path id="path2278" class="shoe" d="m320.7 872.8c-3.4 4.4-1.1 6.9-4.1 23.2-1.2 6.3-1.8 12.7-3.3 18.9-.5 2.1-1.3 5.2-.5 8.8.3 1 1.3 5.1 4.4 7.3 3.2 2.2 2.6 3.5 10.8 3.2 8.3-.3 9-1.3 11-3 5-4 3.5-16.6 2.8-21.3-.7-5.5-1.6-6-2.1-12.4-.6-7.3.5-8.3-.2-13.3-.4-3.6-1.7-13.1-7.6-15.9-4.5-2.3-7.7.0-11.2 4.5z"/><path id="path2280" class="shoe" d="m320.7 872.8c-3.4 4.4-1.1 6.9-4.1 23.2-1.2 6.3-1.8 12.7-3.3 18.9-.5 2.1-1.3 5.2-.5 8.8.3 1 1.3 5.1 4.4 7.3 3.2 2.2 2.6 3.5 10.8 3.2 8.3-.3 9-1.3 11-3 5-4 3.5-16.6 2.8-21.3-.7-5.5-1.6-6-2.1-12.4-.6-7.3.5-8.3-.2-13.3-.4-3.6-1.7-13.1-7.6-15.9-4.5-2.3-7.7.0-11.2 4.5z"/><path id="path2282" class="skin" d="m321.9 846.6c-1.1 1.1-1.6 2.6-2.5 5.7-1.1 3.3-2.5 8.1-2.4 14.4.1 5.1 1.2 4.6 1.6 10.6.4 5.5-.1 9.9-1 17.2-1.2 9.8-2.1 11.4-.9 13.8 2.4 4.4 8.8 4.4 12.1 4.4 5.6.0 10.6-2 11.7-6.8.3-1.1.0-2-.2-3.1-1.7-8.2.0-9.3-1.3-18.1-1.3-9-2-8.5-1.9-14.6.1-5.1 2.9-7.9.0-17.7-1.4-3.2-2.1-4.6-2.8-5.2-3.2-3.4-9.2-3.9-12.4-.6z"/><path id="path2284" class="shoe" d="m336.75063 850.31365c-.14311-22.79826 3.37857-50.37906 6.80969-78.0601 2.15208-12.04194 4.34886-41.61821 3.11133-66.15805-.0368-.72886-.29119-4.7436-.60544-9.35003-10.13199 1.73628-23.21111 1.49998-36.04624.0476-1.35111 8.47467-1.86453 16.21371-1.80691 17.83469-3.17133 25.48782 4.30858 66.62501 4.30858 66.62501 2.94016 23.68362 6.90928 44.56488 7.07976 69.17752-.70306 1.163-2.57756 9.14625-2.83404 13.57777-.16805 2.90352.44192 7.23557 1.05162 9.936.14296.63319.30461 1.2479.48328 1.84351.78142 2.60504-.29664 10.51979-.85416 16.3172-.49168 5.11272-2.95855 13.20077-.69471 17.29431 2.8249 5.10806 10.56907 3.72595 12.07534 3.88899 2.64008.28577 10.21758.21666 11.93552-7.44698.16309-.72753-.59538-3.81974-.92995-7.09278-.3596-3.51782-.27519-7.23635-.2493-8.03763.20239-6.26318-2.01625-13.19517-2.22879-16.68512-.0818-1.3429-.0606-4.01856.14805-5.51031.37613-2.68936 1.07992-5.60895 1.20328-8.94967.10551-2.85741-1.56331-7.95921-1.95691-9.25189z"/><path id="path2286" class="shoe" d="m284.41961 695.11828c.98587 4.14689 1.86401 8.76215 1.92059 9.13699 6.17549 40.91244-7.18386 75.47003-8.8084 86.09473-2.7903 8.19621-7.65221 28.83141-10.04723 45.96907-.0262.18719-.23576.45854-.0776.56031 1.36499.8783.5402 6.54885.36628 10.31839-.053 1.38878.39636 7.81402 2.59574 11.64996 3.77083 6.57669 5.02085 9.80581 3.98268 11.50676-12.78951 20.95452-28.10469 34.03778-42.15987 27.19347-.1687-.0821-3.28632-.10838-3.06607-.40748 4.41098-5.99016 6.25657-6.01428 12.60045-19.46385 2.90027-6.14882 2.89161-11.89849 4.45855-17.49665 1.23514-4.41274 2.667-8.2196 3.33372-10.23477 1.31113-3.96292 3.12462-8.8497 3.20715-9.84346.1756-.91495.48488-3.41672.5334-3.94431.0438-.47579.44346-1.12301.42239-1.62444-1.22609-29.18215-2.4744-89.28311-4.47414-123.583.0-.6942-.52264-7.10653-1.18728-14.93047 18.93403 2.03153 29.17918 1.83172 36.39964-.90125z"/><path id="path2288" class="shoe" d="m271.2 895.3c6.5-2.7 9.7-4 11-6.6 2.2-4.4.1-9.5-1.5-13.4s-4.7-9-6.6-8.5c-1 .3-.9 2-2 4.4-1.4 3.6-3.8 5.6-6.4 7.9-14.5 12.9-17.5 20.3-25.1 20-4.2-.1-5.3-2.4-11.3-2.1-.8.0-4.9.3-9.7 2.5-2 1-9.2 4.4-8.8 7.3.6 4.1 15.6 4.8 17.4 4.9 6.4.3 12.4.6 18.5-2.8 5.1-2.8 4.1-4.9 10-8.3 4.8-2.6 6.1-1.9 14.5-5.3z"/></svg>