<svg viewBox="0 0 560 1e3"><path style="display:inline;fill-opacity:1;fill-rule:evenodd;fill:#000;stroke-dasharray:none;stroke-linecap:butt;stroke-linejoin:miter;stroke-miterlimit:4;stroke-opacity:0;stroke-width:3.0365386;stroke:#000" d="m368.88209 211.77253c-64.55167-12.51048-92.13064-6.45046-110.87378-3.34556-33.57881 9.07156-65.77514 179.14882-62.10315 199.26427 4.07051 22.29856 223.35326 22.83666 226.26346 4.91244 12.47072-132.09647-48.60225-180.64675-53.28653-200.83115z" id="path5001-3-6-1"/><path style="display:inline;fill-opacity:1;fill-rule:evenodd;fill:#ececec;stroke-dasharray:none;stroke-linecap:butt;stroke-linejoin:miter;stroke-miterlimit:4;stroke-opacity:0;stroke-width:3;stroke:#000" d="m367.23438 211.68716c-63.57211-12.39937-90.73258-6.39317-109.19129-3.31585-33.06926 8.99099-64.77702 177.55778-61.16075 197.49458 4.00874 22.10053 219.96392 22.63385 222.82995 4.86882 12.28148-130.92331-47.86471-179.04241-52.47791-199.04755z" id="path5001-3-6"/><path style="display:inline;fill-opacity:1;fill-rule:evenodd;fill:#000;stroke-dasharray:none;stroke-linecap:butt;stroke-linejoin:miter;stroke-miterlimit:4;stroke-opacity:0;stroke-width:3.0480547;stroke:#000" d="m347.88359 215.191c-2.25324-4.00541-13.73665-6.81616-10.82802-7.59701 19.72162-5.29453 43.52841 4.62786 45.9381 9.86401-.22298-.023 31.90628 19.92899 50.67052 37.45953-.0867 1.05301 71.25326 28.08793 70.91938 29.07703-5.34106 15.82348-8.08079 46.38868-10.0317 45.48572-7.85013-3.63339-38.38353-27.32611-49.39397-33.13072-66.71555-35.17195-86.24158-42.54428-97.27431-81.15856z" id="path4993-6"/><path style="display:inline;fill-opacity:1;fill-rule:evenodd;fill:#ececec;stroke-dasharray:none;stroke-linecap:butt;stroke-linejoin:miter;stroke-miterlimit:4;stroke-opacity:0;stroke-width:3;stroke:#000" d="m347.79149 214.93549c-2.23963-3.9037-13.65365-6.64307-10.7626-7.4041 19.60245-5.16008 43.26539 4.51035 45.66052 9.61353-.22163-.0224 31.58925 20.763 50.2401 37.84838-.0862 1.02626 70.57422 28.34926 70.24237 29.31325-5.30879 15.42166-7.65924 42.896-9.59835 42.01597-7.8027-3.54112-38.15161-26.63219-49.09551-32.2894-66.31243-34.2788-85.72047-41.46392-96.68653-79.09763z" id="path4993"/></svg>