<svg viewBox="0 0 560 1e3"><path d="m337.22843 145.31198c-1.10643 10.87975-1.22386 9.31962-.24417 16.4149.26665 1.93114-.92374 6.45029-1.14263 8.17037-.58649 4.6087.0623 3.80375.37226 7.80291.12295 1.58638-1.0682 3.70901-1.03862 4.69676.0404 1.35002.24302 2.76384.24363 4.27829 6e-4 1.47573-.0959 3.04066-.34959 4.71027-.93136 6.12943 5.44235 18.61277 3.53526 16.03514-.51555-.69683-12.60031-8.68523-8.72405-23.13233.18595-.69305-1.24809-2.38928-.39971-4.23644 1.85682-4.04284.19518-7.36593.42589-11.15963.27058-4.44912 2.21486-9.18052 1.62683-11.03314-4.72737 14.15689-5.18887 28.84771-3.44374 35.12877 1.34159 4.82864-.79718 9.49098.13106 11.12124.43163 5.34595-2.52032 11.16608-3.73306 13.27045-.68373 1.18643.15762-5.5128-.63771-10.6545-.83745-5.41403-.73429-19.71062-2.6289-22.98656-.58102 4.89092.96422 14.435-.21513 21.8621-.33224 2.08623 3.16536 12.3564 3.03704 20.36428-.0475 2.96402-.98702 5.76457-.94606 7.98037.0515 2.78386 1.87155 8.25944 1.52999 8.11636-3.03097-1.26974-6.42786-5.02227-6.92985-8.12483-.34025-2.10288 1.107-7.01238.8483-9.38177-.24377-2.23266-2.67507-33.58295-3.61586-34.37113-1.09377-.91633-.67021 28.97806-.22266 29.92478 1.15425 2.44161 3.04342 13.43104 2.34248 17.42216-1.3997 7.97005 3.42307 14.43471 2.94206 15.14325-.60685.89389-5.47189-1.76332-8.46209-9.74943-3.62562-9.68318-15.61039-1.97987-16.39137 2.27112-1.43397 7.80528-5.73647 9.90017-5.60394 9.5141 1.99688-6.14903 2.73574-11.46466 1.35151-16.56848-.68132-2.49467 2.24381-42.61124-.8627-44.87797-.12661-.0924-1.5342 1.91294-1.65439 4.8297-.0602 1.46071 1.27392 3.02471 1.25683 4.95313-.11088 12.51809-.79841 33.1196-.81456 36.16706-.0248 4.68033-2.27 10.0605-2.8899 9.60184-.16067-.11886-.14226-9.47428-.86037-11.40418-.91528-2.45979.62692-21.34941.74946-33.87875.0179-1.8265-1.2921-3.6476-1.28202-5.12672.0274-4.02295.83236-10.55211.52674-10.01134-.65438 1.15786-2.36232 7.456-2.77114 10.3861-.24549 1.75944.9289 3.85765.77305 6.03661-1.16565 16.29768-1.47564 41.96929-2.40389 43.19632-1.63834 2.1657-1.48604 12.18535-2.1462 12.02065-.21206-.0529-4.76926-13.77411-2.74013-18.1895 1.49354-3.24993.0221-11.24741.68554-14.75059.77984-4.11753 1.99743-13.36046 1.41955-22.02269-.24188-3.62575-2.34483-7.09822-2.44762-10.13311-.14998-4.42832 1.11638-11.06516.75109-11.86055-.64952-1.41427-3.41449 5.67548-4.59426 12.10195-.42696 2.32573 1.16122 4.94661.80061 7.70463-.73698 5.63665-2.31762 11.89016-.95335 17.26667 1.13999 4.49263-5.20847 17.2331-6.03365 17.40183-.45005.0921 2.28876-12.71348-.29268-21.21377-1.58149-5.20761 2.18524-8.43297 1.43341-13.83019-.92848-6.66536-1.24202-34.82211-1.67642-34.84686-1.78591-.10177-1.2727 2.81785-1.4159 5.51528-.115 2.16583-1.83735 7.36265-1.70758 11.04004.11824 3.35057 1.46668 9.52613 1.48679 11.53052.0523 5.21675-.39215 14.61397-5.29392 18.10017 2.0688-7.77919.76673-13.24126.13452-17.45371-.97768-6.51444-2.73326-8.86486-2.78723-12.1077.35111-4.43604 4.28798-12.99869 4.00845-19.42892.57641-4.03526-3.04451-10.14666-1.85767-16.26494 1.78519-6.63125-4.00494-20.45676-1.55573-29.89353 2.58726-5.90607 3.70102-21.24701 4.5583-22.117693 3.84974-5.539881 10.16996.460282 12.52678.293266 1.53884-.629811 2.41859.03469 5.48428 1.705224 17.04829 6.860233 53.99482-.674568 60.72062 24.032793 1.89819 6.97305 2.11589 10.25858 1.85429 12.84711-.35055 3.46856-3.65041 8.46385-3.78623 9.85244z" class="hair" id="path4896"/><path id="path4907" class="hair" d="m342.88753 132.51788c.23796-.56179 3.72353-1.25321 6.19546 2.57358 1.35786 2.10211-1.75043 10.67378-.0464 13.67724 1.66193 2.92919 6.77624 2.96113 8.80475 6.12512 2.76094 4.30646 1.16894 13.70717 3.79518 18.14041 7.68529 12.97305 18.38391 19.75063 18.73101 18.62868.34546-1.11656-8.01693-9.05375-13.90434-23.1962-2.0003-4.80503.25717-14.35444-2.12206-19.1594-1.43412-2.89624-7.55368-2.17252-8.81965-5.04256-1.54932-3.5124.58535-11.55786-.75748-14.55046-3.76839-8.39811-7.0552-12.60305-6.92406-13.33075.0777-.43354 4.1588-1.28507 6.65554.88671 2.30707 2.00681 2.04251 8.97842 5.35146 12.39092 2.14167 2.20867 7.96585 1.38217 10.41648 3.64898 2.99162 2.76722 1.81154 11.9234 4.49638 14.74818 8.16191 8.58722 18.34205 9.97518 18.39029 9.08295.0497-.9182-7.52268-4.31789-14.22836-13.38764-2.344-3.17036-1.74398-10.96089-4.57994-14.17753-2.11819-2.4025-8.064-1.70927-10.02772-4.17998-2.96935-3.73596-2.75109-10.74273-5.30218-13.79013-4.90403-5.85813-10.45408-8.71668-10.51942-9.35068-.0442-.42908 1.03435-4.421851 2.91456-3.674102 1.54184.61319 2.3826 6.317612 4.80875 7.621572 1.74764.93934 5.44511-1.51927 7.51752-.45978 2.17769 1.11331 3.05723 7.8615 5.367 9.14877 2.19841 1.22522 6.32345-.56243 8.56773.48228 2.77773 1.29303 3.90941 8.85705 6.34434 10.08441 8.07443 4.06998 15.25417 1.0266 14.95849.11587-.24694-.7606-6.01141-.12503-12.71152-4.84397-2.21065-1.55694-3.54646-8.11086-6.11352-9.64182-2.30267-1.37329-5.47611.79111-7.83752-.83177-2.5111-1.72571-3.73821-7.87586-6.24812-9.48329-2.09798-1.34357-5.70196 1.36378-7.63571.0178-2.19339-1.526712-3.90118-8.269075-5.75381-9.527172-5.15349-3.499696-8.72773-3.712922-9.04401-4.254847-.24486-.419576.7339-3.958084 3.35599-3.482227 1.16296.210991 1.96521 3.918561 3.50357 4.321659 1.81881.47659 5.30863-2.0682 7.48053-1.529797 2.97924.73856 3.93032 6.555201 6.97537 7.543622 10.13603 3.290118 21.47672 2.286185 20.72181 1.443797-.61747-.689039-9.72143-.276067-19.65714-4.293105-2.56944-1.038828-4.17631-6.67972-6.90828-7.629933-1.40206-.48767-4.43747 2.28429-5.80424 1.764914-2.51715-.956534-5.29565-5.730326-7.5065-6.503295-6.59623-2.306098-10.67979-1.560995-11.20441-1.975338-.2372-.18738.50015-2.572115 3.60233-3.254215 1.13197-.248922 4.6729 1.871713 6.0681 1.647043 1.51834-.24449 2.55395-2.067301 4.11831-2.392203 1.87017-.388411 3.07981 3.97589 4.86395 3.675042 5.66557-.955378 10.95626-6.197525 10.57666-6.448633-.48682-.321517-4.4354 3.495951-10.13188 3.617199-1.67756.03569-4.09428-4.322305-5.8867-4.126543-1.58512.173145-2.34199 2.8786-3.9894 2.968557-2.00769.109585-6.00403-2.139564-7.77039-1.989325-4.92957.419333-7.90814 2.1229-8.3686 1.888392-.42233-.215065-.31561-1.876536.92963-2.730338.90592-.621118 3.40722.359893 4.68238-.261008 3.32976-1.621317 5.71706-4.689683 4.87344-5.004172-.59121-.220376-2.14665 1.935354-5.38097 2.473423-1.74523.290345-4.76553-1.290247-6.60625-.798705-3.71149.991101-7.29513 2.933831-7.95863 2.763163-16.04871-4.127869-33.95089.11256-41.63748 12.648684-20.86562 59.640601 16.07301 71.708041 43.52784 64.732481.572-.14533 3.85985 3.54473 1.85608 12.3751-1.19709 5.27537-7.51557 13.96288-8.46531 20.3885-.64851 4.38784 4.37357 7.35144 3.21733 11.93816-1.10369 4.37831-10.82331 10.26996-11.70965 14.34884-3.10028 14.26673-2.34451 25.87836-1.6192 25.60078.61049-.23366 4.45761-11.70834 11.78252-23.19479 4.13337-6.48165 11.83087-11.02169 14.63164-18.33649 2.03534-5.31571-5.55741-7.9564-6.12847-12.63739-.55729-4.56785 5.91337-11.18511 7.2858-15.62044 3.9693-12.82728.87791-19.31073 1.50238-19.65391.47068-.25869 5.44009 5.9385 7.95514 17.80081.74922 3.53365-3.69057 13.34572-2.941 17.43065.78114 4.25698 5.31854 3.41563 6.26821 7.73706 1.30611 5.94346-3.61472 16.95217-2.5111 22.91676 3.53339 19.09653 12.05732 31.12883 12.60861 30.72116.90063-.666-4.55126-14.91456-5.91217-34.17888-.51304-7.26246 4.5369-17.7407 3.47341-24.8279-.73467-4.89602-7.47205-2.12531-8.00333-6.97151-.46618-4.25266 4.39193-13.52635 3.93486-17.29297-1.66578-13.72756-4.89746-21.4461-4.4337-22.10386z"/><path id="path4907-5" class="hair" d="m346.41213 113.59491c-.13121-.59583 2.3104-3.17762 6.54149-1.48863 2.32417.92779 4.75256 9.71631 7.88085 11.1786 3.05097 1.42611 7.23942-1.50888 10.72522-.10356 4.74443 1.91277 8.88911 10.49936 13.59712 12.59348 13.77719 6.12802 26.42431 5.45995 26.05775 4.34421-.36477-1.1104-11.77845-2.74042-24.76678-10.86283-4.41291-2.75966-8.10109-11.85277-12.82291-14.393-2.84614-1.53114-7.41672 2.60198-10.11059.99485-3.29681-1.96683-6.21438-9.7626-9.04187-11.42516-7.93481-4.66561-13.04923-6.19114-13.36362-6.860402-.18765-.398469 2.64686-3.455593 5.93996-3.130367 3.04295.300523 6.86359 6.138009 11.53728 7.004599 3.02496.56087 7.29518-3.485024 10.60572-3.05562 4.04134.5242 8.38031 8.67291 12.20485 9.42166 11.62655 2.27609 20.7305-2.48622 20.25327-3.24163-.49109-.77742-8.63354.83481-19.35213-2.67783-3.74671-1.22784-7.76796-7.927249-11.94259-8.908-3.11804-.732516-7.56459 3.275155-10.59618 2.397589-4.58406-1.326949-8.46281-7.166273-12.30719-8.173977-7.39017-1.937141-13.57042-1.054551-13.99076-1.533653-.28445-.324263-1.71679-4.204194.24921-4.68312 1.61214-.392743 5.60035 3.771611 8.33346 3.43013 1.96878-.245936 3.56005-4.391283 5.86321-4.727291 2.42015-.353078 7.04428 4.639832 9.67284 4.352115 2.50183-.273822 4.83018-4.119653 7.26492-4.567219 3.01344-.553946 8.31549 4.958169 11.01141 4.549154 8.93987-1.356399 13.03185-7.994662 12.26348-8.566035-.6417-.477182-4.97379 3.378477-13.16883 3.410051-2.70388.01044-7.58755-4.559899-10.56697-4.321922-2.67258.213466-4.00692 3.815529-6.87189 3.859498-3.04656.04679-7.60783-4.257272-10.58495-4.114727-2.48846.119185-3.85949 4.413211-6.21545 4.435349-2.6723.0251-7.96837-4.483526-10.20731-4.436701-6.2281.130234-9.26582 2.025757-9.83745 1.767014-.44257-.200334-1.69323-3.652127.7202-4.782246 1.07037-.501286 3.87107 2.057199 5.35874 1.495204 1.75889-.664446 3.13096-4.759835 5.21354-5.578311 2.85673-1.122707 6.99985 3.069246 10.05489 2.112166 10.16928-3.185848 18.83467-10.570314 17.73143-10.820082-.90238-.204313-8.08619 5.40331-18.51301 7.880489-2.69645.640623-7.2725-3.028354-10.05015-2.221385-1.42553.414135-2.29557 4.431654-3.71066 4.799498-2.60616.677439-7.63549-1.606204-9.88563-.956429-6.71338 1.938731-9.61153 4.910508-10.27917 4.876412-.30189-.01544-1.08137-2.386749 1.05307-4.738961.77883-.858334 4.8937-1.179343 5.90121-2.170325 1.09642-1.078416.88546-3.16423 1.97285-4.334854 1.29996-1.399459 4.81303 1.458627 6.09356.180368 4.06628-4.059153 5.34501-11.396484 4.89012-11.381449-.58308.01971-1.59236 5.418382-6.16679 8.815328-1.34714 1.000356-5.84075-1.153728-7.18886.04364-1.19218 1.058907-.24292 3.703002-1.53405 4.730147-1.57352 1.251741-6.13412 1.731653-7.48735 2.876821-3.77654 3.195971-5.21879 6.309469-5.73 6.384855-.46887.06917-1.3438-1.347302-.82281-2.764405.37903-1.030926 2.98644-1.679237 3.66666-2.923765 1.77622-3.249767 1.94622-7.13373 1.07629-6.90172-.60963.162603-.62975 2.820832-2.95533 5.132119-1.25487 1.247165-4.63259 1.707094-5.84883 3.173589-2.45234 2.956929-4.24948 6.615749-4.88928 6.860744-15.47522 5.926047-27.61667 19.748282-26.62591 34.419907 17.51728 60.70848 54.62185 49.16135 72.9685 27.57834.38223-.44967 5.19941.65546 8.67815 9.01541 2.07837 4.9943 1.95626 15.73592 4.90212 21.52492 2.01165 3.95309 7.82224 3.46183 9.53507 7.87104 1.63501 4.20885-2.87879 14.63996-1.23992 18.47884 5.73217 13.42734 13.07116 22.4573 13.50183 21.81105.36248-.54396-3.14424-12.1272-3.82218-25.73357-.38253-7.6779 3.26508-15.83624 1.31364-23.42192-1.41809-5.51256-9.13774-3.26968-12.3135-6.7557-3.09903-3.40173-1.65437-12.54343-3.10327-16.95437-4.19023-12.75681-10.4645-16.25327-10.15404-16.89464.23399-.48342 7.87378 1.69232 16.79233 9.90811 2.65675 2.44739 4.71766 13.01816 7.69386 15.91483 3.10157 3.01867 6.31401-.29435 9.5903 2.67929 4.50601 4.08981 6.86752 15.91477 11.22067 20.13903 13.93724 13.52463 27.85355 18.40007 28.06702 17.74849.34874-1.06445-12.34593-9.52554-24.609-24.44477-4.62304-5.62441-6.57215-17.09159-11.54253-22.25442-3.43366-3.56661-7.32283 2.59321-10.56179-1.05053-2.84226-3.1975-4.25038-13.5715-6.80365-16.37805-9.30602-10.22832-16.40977-14.65059-16.41247-15.45539z"/></svg>