<svg viewBox="0 0 560 1e3"><path id="path4238" d="m368.45236 268.83602c.40069 1.40387-2.0881 14.13711-9.27717 39.01663-66.74361-8.03197-113.48721-6.66483-119.0072-4.2317-2.92035-11.95942-3.39694-30.95538 1.55977-51.41832 26.8824-1.44965 82.56155-5.01248 122.45645 15.38862z" style="display:inline;fill-opacity:1;fill-rule:evenodd;fill:#000;opacity:1;stroke-dasharray:none;stroke-linecap:butt;stroke-linejoin:miter;stroke-miterlimit:4;stroke-opacity:1;stroke-width:0;stroke:#000"/><path id="path4240" d="m368.47602 268.56519c-.47811 3.70196-4.3097 20.03089-10.07861 38.5229-55.12275-8.36934-108.55319-7.89118-117.6637-5.51248-3.69137-14.28461-.5234-35.7842 1.86037-49.75852 57.4531-10.65718 107.8466 2.62258 125.88191 16.7481z" style="display:inline;fill-opacity:1;fill-rule:evenodd;fill:#333;opacity:1;stroke-dasharray:none;stroke-linecap:butt;stroke-linejoin:miter;stroke-miterlimit:4;stroke-opacity:1;stroke-width:0;stroke:#000"/><path style="display:inline;fill-opacity:1;fill-rule:evenodd;fill:#000;opacity:1;stroke-dasharray:none;stroke-linecap:butt;stroke-linejoin:miter;stroke-miterlimit:4;stroke-opacity:1;stroke-width:0;stroke:#000" d="m348.03746 404.569c.8928 1.03783 2.36114 4.19485 2.36114 4.19485-8.19048 4.90102-37.06098 18.24769-49.49597 28.75086-4.31136 3.64157-13.47661 8.29154-16.37051 16.44054-2.5916 7.29773-3.32032 16.98798-9.68774 14.34823-.12708-.0527-.25389-.22936-.38798-.17253-3.64553 1.54503-9.41962-.71855-11.29492-12.24341-2.95293-18.14755-12.84146-17.24873-13.71165-17.80621-12.60056-8.07247-21.38891-19.81687-24.85363-25.1259.0593-.70684 4.38552-10.43066 4.38552-10.43066 30.95157 34.29024 95.73566 8.25021 119.05574 2.04423z" id="path3581-6-4-0-7-4"/><path style="display:inline;fill-opacity:1;fill-rule:evenodd;fill:#333;opacity:1;stroke-dasharray:none;stroke-linecap:butt;stroke-linejoin:miter;stroke-miterlimit:4;stroke-opacity:1;stroke-width:0;stroke:#000" d="m348.08876 404.41197c.8928 1.03783 5.88649 8.74359 5.88649 8.74359-8.19048 4.90102-40.96133 16.69895-53.39632 27.20212-4.31136 3.64157-11.26256 9.46273-16.37051 16.44054-.27428.37469-.68811.67278-.81935 1.10672-3.57923 11.83428-8.32513 9.8537-8.89431 9.63462-.17013-.0655-5.98956 2.88621-10.50307-7.67418-.19489-.456-.68412-.47689-1.06552-.9139-12.08963-13.85259-12.92985-17.4697-13.80004-18.02718-12.60056-8.07247-21.88891-21.94187-25.35363-27.2509.0593-.70684 5.26052-10.68066 5.26052-10.68066 29.78951 36.10978 96.86066 8.37521 119.05574 1.41923z" id="path3581-6-8-0-7"/></svg>