<svg viewBox="0 0 560 1e3"><path id="path2447-2" d="m350.12408 408.20733c.50234.30658 1.09365.6164 1.59267 1.07178 10.44968 9.5359 33.49555 37.41698 22.62358 71.24177-2.01783-.42472-3.46737-1.53053-3.46737-1.53053-3.78087-20.011-22.50001-56.97994-20.11699-70.06752.0299-.16451-.82627-.55892-.63189-.7155z" style="display:inline;fill-opacity:1;fill-rule:evenodd;fill:#000;stroke-dasharray:none;stroke-linecap:butt;stroke-linejoin:miter;stroke-miterlimit:4;stroke-opacity:0;stroke-width:3.30025864;stroke:#000"/><path id="path2447-3" d="m349.26166 407.20981c4.28127 2.5952 31.18724 38.74255 25.50548 73.98253-1.65859-.42696-4.59676-1.78994-4.59676-1.78994-4.43195-12.12656-24.23139-76.12873-20.90872-72.19259z" style="display:inline;fill-opacity:1;fill-rule:evenodd;fill:#8aa7ff;stroke-dasharray:none;stroke-linecap:butt;stroke-linejoin:miter;stroke-miterlimit:4;stroke-opacity:0;stroke-width:3;stroke:#000"/><path id="path2447" d="m366.69578 409.41776c.48102.18466 1.03332.35262 1.55229.682 10.86742 6.89733 34.67091 23.0432 38.79812 54.72752-1.71222.0389-4.90993-.47608-4.90993-.47608-12.0116-14.12108-34.74357-40.71337-36.42668-53.90825-.0212-.16584.87511-.83034.9862-1.02519z" style="display:inline;fill-opacity:1;fill-rule:evenodd;fill:#517cd3;stroke-dasharray:none;stroke-linecap:butt;stroke-linejoin:miter;stroke-miterlimit:4;stroke-opacity:0;stroke-width:3;stroke:#000" transform="rotate(15.737227,358.78205,354.98403)"/></svg>