<svg viewBox="0 0 560 1e3"><g data-transform="boob" class="scaler_" id="g7198" transform="matrix(1.1899396,0,0,1.1247504,-49.050018,-33.548868)"><path id="path7187" d="m300.45819 267.11215c-1.46536.0326-2.04139-.81563-2.15352-1.80171-.14082-1.23819.88077-2.18287 1.7735-2.28911.89273-.10622 2.00757.51795 2.18259 1.79984.12765.93477-.33019 2.25826-1.80257 2.29098z" class="shadow"/><path class="shadow" d="m219.64286 260.99675c-1.46455-.0609-1.99121-.94432-2.04696-1.93576-.07-1.24492 1.00355-2.12273 1.90071-2.17185.89715-.0491 1.97441.64504 2.07608 1.93576.0742.9412-.45826 2.23309-1.92983 2.17185z" id="path7192"/><path id="path7194" d="m300.43006 266.61929c-1.37099.0266-1.91308-.82382-2.02164-1.81013-.13631-1.23848.81611-2.17873 1.65104-2.28129.83491-.10252 1.88036.52608 2.04882 1.80839.12287.93508-.30065 2.25637-1.67822 2.28303z" class="areola"/><path id="path7196" d="m219.38897 260.49113c-1.36619.10008-2.38483-.75607-2.04214-1.70619.437-1.21153.21133-1.18031 1.6118-2.37522.65351-.55758 1.88217.42662 2.0692 1.70299.13687.93065-.26608 2.2779-1.63886 2.37842z" class="areola"/></g></svg>