<svg viewBox="0 0 560 1e3"><path id="path4602" d="m347.87122 216.10417c-2.2742-3.975-5.32807-5.56966-2.31247-5.91928 8.0577-.9342 29.69965-4.71088 46.00785-9.41488 1.51521 8.78268-1.51928 20.78492-.18242 46.47946-4.75372 2.42248-25.78473 11.00088-30.58747 13.22989-6.76698-20.22007-12.61438-43.93416-12.92549-44.37519z" style="display:inline;fill-opacity:1;fill-rule:evenodd;fill:#000;stroke-dasharray:none;stroke-linecap:butt;stroke-linejoin:miter;stroke-miterlimit:4;stroke-opacity:0;stroke-width:3.05055022;stroke:#000"/><path id="path4605" d="m347.79149 214.93549c-2.23963-3.9037-5.24707-5.46975-2.27732-5.81311 7.93519-.91744 27.56412-3.83248 45.77175-8.2918 2.52235 4.42147-4.79089 17.71987-.60506 45.7174-7.62705 4.09797-22.39369 8.37215-30.16041 11.96678-6.66409-19.85739-12.42259-43.14615-12.72896-43.57927z" style="display:inline;fill-opacity:1;fill-rule:evenodd;fill:#fff;stroke-dasharray:none;stroke-linecap:butt;stroke-linejoin:miter;stroke-miterlimit:4;stroke-opacity:0;stroke-width:3;stroke:#000"/></svg>