<svg viewBox="0 0 560 1e3"><path style="display:inline;fill-opacity:1;fill-rule:evenodd;fill:#000;opacity:1;stroke-dasharray:none;stroke-linecap:butt;stroke-linejoin:miter;stroke-miterlimit:4;stroke-opacity:1;stroke-width:0;stroke:#000" d="m370.45236 269.14852c4.967 31.75261-11.44628 69.47137-13.87086 79.79914.0.0 27.53426 47.09954 7.76976 68.21621.0.0-66.99062-2.0932-78.49984 26.24417-2.06147 4.01155-2.1084 11.81811-3.46792 16.10443-.27859.87834-1.00697 6.35332-3.50565 8.26757-.26944.20641-1.13656 1.14752-4.58251.28177-.17413-.0437-1.37345.71664-3.61847.0361-5.83439-1.76869-6.66978-8.86034-6.76649-9.28816-1.98539-8.78313-6.24957-28.02971-9.43291-34.24779-14.19124-27.72004-27.39251-9.72827-28.70035-12.0646-8.73203-14.95806-7.15844-43.49289 11.3566-92.04106-2.43187-22.91224-2.85573-36.68599-.15869-55.78468 2.74356-18.25709 15.92358-34.39415 39.84883-59.30356-.63873-.33426 4.18282-3.06919 8.70735-5.47153 9.24713 11.38115 26.49464 3.94153 32.57427-1.32678 1.50252 1.12706 9.10193 4.89722 7.88644 5.69617 18.66409 44.64639 1.82837 42.20589 38.19229 63.32537z" id="path2164-7-0"/><path style="display:inline;fill-opacity:1;fill-rule:evenodd;fill:#162d50;opacity:1;stroke-dasharray:none;stroke-linecap:butt;stroke-linejoin:miter;stroke-miterlimit:4;stroke-opacity:1;stroke-width:0;stroke:#000" d="m370.47602 268.87769c1.75483 18.25009-3.30481 45.3758-14.89491 79.87103 17.19276 36.413 16.46727 50.08323 9.37782 68.54247-74.20425 17.42464-81.59245 38.36769-82.36412 40.70546-.78385 1.88787-1.88511 7.56063-4.38201 9.34104-1.21712.86786-3.67455-.009-3.92649-.0331-.29397-.0276-.94677.88798-3.15959.31564-5.65546-1.4629-6.20431-7.05369-6.77642-9.00439-24.4023-15.10587-35.50062-40.58209-39.35103-44.89604-10.49893-38.94412 12.58716-85.09678 13.22753-93.06726-1.74485-18.38575-2.9473-41.01707-.93716-59.12458 5.4266-22.99891 22.28553-39.88019 39.64648-55.54685.49229-.51848 4.12506-3.06919 8.60202-5.47153 9.14993 11.38115 26.22994 3.94153 32.24566-1.32678 1.48672 1.12706 18.23182 7.00546 18.7637 8.34782 5.59696 13.25538 5.60863 25.94395 12.7896 37.87473 7.32565 13.63251 15.69888 21.62492 21.13892 23.47234z" id="path2166-3-8"/></svg>