<svg viewBox="0 0 560 1e3"><path d="m300.65779 118.87093c-4.73386.006-8.05649 1.16819-9.77395 3.41721-1.14396 1.49802-2.57421 4.05173-2.43198 4.34317.0909.18642 1.79364-.6649 5.39482-2.69926 2.12416-1.19995 3.9656-1.7403 7.51025-2.19696 7.46595-.35792 12.27384 1.63724 17.58271 6.95619.49352.54902.97324 1.00448 1.06576 1.00967.44896.0284.0387-.58723-1.29012-1.93564-4.99454-5.46744-12.50491-9.32856-18.05749-8.89438z" id="path9386" class="eyebrow_hair"/><path d="m260.25783 126.69727c-.0165.3857.24359.23242 2.47404-1.47393 4.12086-3.3187 8.08984-3.03932 12.15385-1.45619 1.25012.77372 4.01429 3.21303 4.1067 3.14068.51829-.40565-1.50661-4.88302-2.8375-6.06757-5.85087-2.98117-11.41655 1.46777-15.89709 5.85701z" id="path9382" class="eyebrow_hair"/></svg>