<svg viewBox="0 0 560 1e3"><path style="display:inline;fill-opacity:1;fill-rule:evenodd;fill:#000;opacity:1;stroke-dasharray:none;stroke-linecap:butt;stroke-linejoin:miter;stroke-miterlimit:4;stroke-opacity:1;stroke-width:0;stroke:#000" d="m370.74379 268.90802c.67094 3.08324 3.00215 21.85358-3.30932 40.16751.0.0-66.88331-25.346-67.97441-4.88749-.69727 13.07402-8.86808 189.99423.066 204.46732-1.46254 2.04111-47.48061 3.55731-56.53595-2.11146-7.49207-23.10344 26.66715-200.10073 27.00217-202.96031 1.77707-15.16848-31.80767-5.43904-33.75736-5.60203-1.48059-14.78588.24247-35.51869 2.49153-44.5533 7.90614-13.05062 36.33752-35.68612 37.87631-48.02616-.63201-.33426 5.6939-3.30631 8.84504-5.53187 4.11179 9.34821 22.98745 8.86453 32.62709-2.06063 5.02226 4.22066 9.11609 5.43069 9.06243 5.7435-4.97608 21.29673 16.63368 47.35194 43.60651 65.35492z" id="path3956-4-9-8"/><path style="display:inline;fill-opacity:1;fill-rule:evenodd;fill:#00a883;opacity:1;stroke-dasharray:none;stroke-linecap:butt;stroke-linejoin:miter;stroke-miterlimit:4;stroke-opacity:1;stroke-width:0;stroke:#000" d="m370.24379 269.09552c.49416 3.61357 2.24327 19.67864-2.74238 39.3184.0.0-67.45025-25.18439-68.54135-4.72588-.69727 13.07402-9.07519 190.14068-.14115 204.61377-1.46254 2.04111-46.24317 3.55731-55.29851-2.11146-7.49207-23.10344 26.63682-200.12218 26.97184-202.98176 1.77707-15.16848-32.49517-5.50154-34.44486-5.66453-.68509-14.43233.24247-34.14369 2.49153-43.1783 7.90614-13.05062 36.83752-36.49862 38.37631-48.83866-.63201-.33426 5.3189-3.11881 8.47004-5.34437 4.11179 9.34821 23.11245 8.86453 32.75209-2.06063 5.02226 4.22066 8.74109 5.11819 8.68743 5.431-4.97608 21.29673 16.44618 47.53944 43.41901 65.54242z" id="path3956-2-1"/></svg>