<svg viewBox="0 0 560 1e3"><path d="m290.14844 121.63529c-.2823.55176-1.35966 4.05192-.70508 4.97626 2.33617-1.51027 12.16237-3.58208 15.61829-4.0391.75808-.15287 9.02004 2.90086 8.44023 2.15213-.28278-.36516-3.75707-5.47482-7.34451-6.95177-4.56178 1.60931-12.97098 2.31704-16.00893 3.86248z" id="path2716" class="eyebrow_hair"/><path d="m277.24499 121.73594c.18157.55175.8745 4.05191.45349 4.97625-1.332-1.2009-8.51149-3.8245-10.73425-4.28152-.0391-.0117-.10867.0152-.20291.0758-1.07857.69308-4.18437 2.03072-4.53659 2.31879-.22939.18759 2.25287-5.08023 4.4604-6.76671.0875-.067.17537-.12869.26338-.18506 2.934 1.60931 8.34256 2.31704 10.29648 3.86248z" id="path2718" class="eyebrow_hair"/></svg>