<svg viewBox="0 0 560 1e3"><path style="fill-opacity:1;fill-rule:nonzero;fill:#f6e0e8;stroke:none" d="m16.09586 1000.2965c12.07991-3.03999 30.399775 17.9999 37.999718 30.9598 7.839942 13.5199 9.119933 27.0398 8.559937 37.8397-.479996 7.3599-1.279991 14.5599-4.559966 20.7198-5.679958 10.7199-10.639921 13.7599-14.959889 17.9999-9.359931 20.2398-12.639907 54.7196-20.159851 54.2396-19.999852-1.36-36.39973-154.4789-6.879949-161.7588z" id="path3144"/><path id="path3146" d="m340.88656 405.64323c12.0716-2.9892 30.35826 18.03839 38.00751 31.02603 7.77668 13.47788 9.09742 26.99618 8.49889 37.82873-.47207 7.31661-1.23322 14.57403-4.50473 20.70119-5.72431 10.68891-10.67433 13.7351-14.98996 17.96505-9.32255 20.30599-12.66925 54.76386-20.19901 54.24851-19.95982-1.33988-36.33414-154.45106-6.8127-161.76951z" style="fill-opacity:1;fill:gray"/><path style="display:inline;fill-opacity:1;fill:#b3b3b3;stroke-dasharray:none;stroke-linecap:butt;stroke-linejoin:miter;stroke-miterlimit:4;stroke-opacity:1;stroke-width:0;stroke:#000" d="m355.2172 518.31626 1.24937 17.63765.007.0845c.0458-.0119 3.80332.0163 3.84697.0105.77327-3.27927 5.17478-17.20052 5.5443-17.6282z" id="path3213-6-7"/><path style="display:inline;fill-opacity:1;fill:#b3b3b3;stroke-dasharray:none;stroke-linecap:butt;stroke-linejoin:miter;stroke-miterlimit:4;stroke-opacity:1;stroke-width:0;stroke:#000" d="m351.42113 412.76189 5.61266 8.21902c.0961-.42835 4.29931-5.64331 4.20025-6.20104-.72365-1.4272-6.93303-5.45109-7.17297-5.61635z" id="path3213-5-8-7-5"/></svg>