<svg viewBox="0 0 560 1e3"><path id="path13280" class="hair" d="m332.12338 134.86831c33.63083-69.217716-72.11429-86.220251-69.63276-22.91558 1.32543-.0471 2.40227 3.23986 12.04321 4.17245.0.0-3.28438-2.53801-2.91673-4.15421.049-.21522 5.4438 4.6399 10.59791 4.46205.17903-.006-3.42244-2.86565-2.30487-3.9426.0.0 10.69535 4.67214 12.72732 4.81075.28806.0196-3.19018-2.7339-2.03893-3.43867.15201-.0931 10.33592 5.96512 12.02438 5.78861.15233-.0159-3.12569-2.71237-1.96327-3.63964.0.0 11.34979 8.27129 13.11748 7.64437.18226-.0646-2.44993-2.54514-1.30265-3.64147.0.0 9.08431 10.0108 10.13036 8.66771.092-.11815-2.1618-2.50913-1.49121-4.12736.0.0 7.94369 11.4676 8.83582 10.39396.082-.0987-2.40504-3.65747-1.46454-4.45799.0.0 2.55254 2.81826 3.63848 4.37762z"/><path d="m258.01667 119.05593c-.37139-1.05829-3.95951 6.27593-4.21302 5.33846-.34282-1.26778 1.96911-6.47162 2.81279-11.39931.18886-1.10307.80614-2.26957 1.2127-4.58385.51981-2.95889-.0344-5.09693.0963-6.22599.16407-1.41717-2.57229 2.61713-2.42313 1.70017.474-2.91401 1.21371-3.951623 3.71058-10.086782 4.16898-7.034584 6.53157-10.281795 15.34411-14.537061 2.52763-1.714838 2.76578-1.96116 4.85577-3.209973 1.45872-.871619 4.81383-2.858445 6.27765-3.524932 1.95792-.891457 14.68144-5.29103 16.63093-5.457736 2.48307-.212333-5.84469 3.930531-3.78038 3.670778 1.10704-.1393 1.85838 1.173543 6.93708.475514 6.17905-.849263 17.78019-2.277119 18.95474-2.191471 3.12257.227697-8.18911 2.783305-6.07315 3.154024 1.25076.219134 2.4481 2.600289 6.09957 3.101769 4.63.635867 13.08819 2.739703 14.31269 3.22168 1.86651 2.5322-9.59858.921419-2.35196 4.349032 2.70755 1.164312 8.48806 2.682402 9.28602 3.709329 1.143 1.470987-5.30246-.136537-4.54004.735216 1.59288 1.821303 3.09979 1.616038 4.23364 3.72252 4.49886 8.358053 7.13726 9.607093 8.23578 12.721793.70852 2.00889-4.34956-2.96612-3.9236-.0324 1.21233 8.34953 6.91304 14.43445 6.75127 14.82746-1.05095 2.55314-7.78332-3.99264-7.41897-2.34605.68117 3.07836 5.00093 5.57501 5.05302 8.90982.107 6.8507 6.15479 13.18358 5.7689 13.92327-.80387 1.54087-7.78546-6.00165-7.57988-4.90572.53112 2.83137 4.32409 5.90839 4.88957 8.2753 3.0363 12.70889 6.52148 16.13642 6.60339 16.86381.38408 3.4109-8.33628-4.88986-8.2269-4.64156-49.9212-48.52276-62.88837-67.829655-92.41193-43.36996-.90195.74724.24953 9.29568.81917 13.05697.24602 1.62442-4.68219 1.12348-5.15317 1.28858-1.08014.37865.2476-6.83329-.78954-6.5327z" class="hair" id="path13266-4"/></svg>