<svg viewBox="0 0 560 1e3"><path id="path3222" class="shadow" d="m283.66521 456.38067c-1.54841.73859-1.78928 15.78672-9.24659 11.14886-5.5459 3.1603-10.12915-4.94173-10.42429-8.4126-.25114-2.95343 3.37748-7.20053 3.87403-6.51846 2.14579-.003 16.30971 2.85987 15.79685 3.7822z"/><path id="path3224" class="skin torso" d="m274.36595 467.58332c-3.81452 2.31718-9.64064-2.27902-10.8644-11.68664 5.95334-21.67633 25.49385-8.31185 20.23612.35499-2.87984 4.74713-3.52005 14.37508-9.37172 11.33165z"/><path id="path3226" d="m362.70993 410.31424c.8928 1.03783-1.43956 8.87944-1.43956 8.87944-8.19048 4.90102-47.93275 7.81786-60.36774 18.32103-4.31136 3.64157-13.47661 8.29154-16.37051 16.44054-2.5916 7.29773-3.32032 16.98798-9.68774 14.34823-.12708-.0527-.25389-.22936-.38798-.17253-3.64553 1.54503-9.41962-.71855-11.29492-12.24341-2.95293-18.14755-12.84146-17.24873-13.71165-17.80621-12.60056-8.07247-21.38891-19.81687-24.85363-25.1259.0593-.70684.27546-6.76254.27546-6.76254 30.95157 34.29024 114.51819 10.32733 137.83827 4.12135z" style="display:inline;fill-opacity:1;fill-rule:evenodd;fill:#000;opacity:1;stroke-dasharray:none;stroke-linecap:butt;stroke-linejoin:miter;stroke-miterlimit:4;stroke-opacity:1;stroke-width:0;stroke:#000"/><path id="path3228" d="m362.84961 411.48304c.8928 1.03783-1.0078 7.94809-1.0078 7.94809-26.45516 18.17615-60.99813 36.74483-77.63339 37.36709-.27428.37469-.68811.67278-.81935 1.10672-3.57923 11.83428-8.32513 9.8537-8.89431 9.63462-.17013-.0655-5.98956 2.88621-10.50307-7.67418-.19489-.456-.68412-.47689-1.06552-.9139-16.27203-7.95813-36.45881-24.8256-39.15367-45.27808.0593-.70684 1.06207-7.18932 1.06207-7.18932 29.78951 36.10978 115.81996 11.95494 138.01504 4.99896z" style="display:inline;fill-opacity:1;fill-rule:evenodd;fill:#c837ab;opacity:1;stroke-dasharray:none;stroke-linecap:butt;stroke-linejoin:miter;stroke-miterlimit:4;stroke-opacity:1;stroke-width:0;stroke:#000"/><path d="m329.90806 425.67038c-15.4791 1.19068-42.03653 26.26041-44.60913 30.99635 10.29989-9.14088 29.75951-26.28541 44.60913-30.99635z" class="shadow" id="path3230"/><path d="m262.16597 457.51867c-6.81704-9.41592-28.83006-31.99347-34.93819-34.15183 5.05404 5.44075 26.5203 25.35081 34.93819 34.15183z" class="shadow" id="path3232"/><path style="display:inline;fill-opacity:1;fill-rule:evenodd;fill:#fff;opacity:1;stroke-dasharray:none;stroke-linecap:butt;stroke-linejoin:miter;stroke-miterlimit:4;stroke-opacity:1;stroke-width:0;stroke:#000" d="m338.39967 435.4871c.60089-.41225.80053-1.5423 2.2121-2.28787-1.0628-4.12041-3.85227-13.54936-4.54884-14.58843-.7862.0327-1.8073.5621-1.8073.5621 1.98037 5.88018 2.90456 10.31621 4.14404 16.3142z" id="path3234"/><path id="path2288-2-3" d="m370.3969 269.0128c.40069 1.40387-1.11583 12.72289-8.30489 37.60241-5.42713 18.7819-12.19382 45.10812-12.7902 46.5662.0897 2.34411 6.53818 14.05382 8.99405 26.00841-36.77086 9.58655-110.59778 11.99867-129.46954-6.85783 2.433-12.49684 9.93148-36.52371 11.94649-51.5937-2.13048-7.70551-3.08737-14.72592-4.11084-28.13828.40962-35.13389 30.30326-40.0847 52.38713-59.43686.97617-2.02088 2.05999-19.89061-11.85024-27.17009-.63873-.33426 3.66191-3.80977 8.18644-6.21211 9.24713 11.38115 27.34766 3.74775 33.42729-1.52056 1.50252 1.12706 8.39482 5.20658 7.17933 6.00553-25.72677 16.91039-30.9022 28.84774-29.45936 29.06832 3.13994 1.52155 66.54554 33.43249 67.65165 34.25705z" style="display:inline;fill-opacity:1;fill-rule:evenodd;fill:#000;opacity:1;stroke-dasharray:none;stroke-linecap:butt;stroke-linejoin:miter;stroke-miterlimit:4;stroke-opacity:1;stroke-width:0;stroke:#000"/><path id="path2290-3" d="m360.51873 307.70681c-5.91469 18.86306-11.3485 40.65759-11.27871 44.67604.49582 5.07437 6.22897 14.87586 8.60406 26.14521-31.28229 8.06681-114.6775 12.03087-127.27987-7.27988 1.41111-4.24145 10.72754-45.56108 11.32053-50.51049-2.20191-8.47425-3.26007-13.82305-4.1491-26.36041-3.37265-53.10898 5.76723-81.27991 39.20048-88.39617.49229-.51848 3.97915-3.18477 8.45611-5.58711 9.14993 11.38115 27.08296 3.74775 33.09868-1.52056 1.48672 1.12706 17.52471 7.31482 18.05659 8.65718 2.58742.19199 9.57783.93138 12.62329 2.06534 33.53732 18.21703 23.79777 65.06109 11.34794 98.11085z" style="display:inline;fill-opacity:1;fill-rule:evenodd;fill:#c837ab;opacity:1;stroke-dasharray:none;stroke-linecap:butt;stroke-linejoin:miter;stroke-miterlimit:4;stroke-opacity:1;stroke-width:0;stroke:#000"/></svg>