<svg viewBox="0 0 560 1e3"><g data-transform="art" style="display:inline" id="Arm_Outfit_SluttyJewelry_Left_Thumb"><path d="m423.06882 319.08855c.86757 1.50574-.0813 2.35687-1.32924 1.62969-2.20829-1.46573-6.82-5.46076-10.09013-10.04875-1.28039-1.79642.19207-2.8635 1.25861-1.63314 1.91624 2.20909 4.77233 6.07653 10.1608 10.05224z" id="path5995-5-8-8-9" style="fill-opacity:1;fill:#ffa000"/><path d="m420.24038 322.98634c1.00015 1.55592-.006 2.38517-1.39495 1.60483-2.46311-1.56219-7.63958-5.77098-11.37146-10.53376-1.46117-1.86484.10983-2.89461 1.31768-1.61078 2.17007 2.30517 5.42457 6.32341 11.44877 10.53975z" id="path5995-5-8-8-5-49" style="fill-opacity:1;fill:#ffa000"/></g><g data-transform="art" id="Arm_Outfit_SluttyJewelry_Left_Rebel" style="display:inline"><path d="m497.85835 302.44366c-.97182 1.73176-2.15685 1.22363-2.05367-.46917.34361-3.09478 1.90177-10.07604 4.5861-16.00018 1.05106-2.31957 2.6617-1.39027 2.02558.39428-1.14156 3.20547-3.36035 8.30206-4.55802 16.07513z" id="path5995-5-8-8-9-1" style="fill-opacity:1;fill:#ffa000"/><path d="m493.10144 301.68391c-.95842 1.89659-2.14907 1.31713-2.06033-.55085.31784-3.41158 1.81893-11.09494 4.45661-17.59314 1.03278-2.54429 2.65336-1.4925 2.03155.46773-1.11591 3.52103-3.29443 9.11291-4.42785 17.67632z" id="path5995-5-8-8-5-49-4" style="fill-opacity:1;fill:#ffa000"/></g><g data-transform="art" style="display:inline" id="Arm_Outfit_SluttyJewelry_Left_Low"><path d="m352.62537 412.01247c-1.00159-1.4854-.16602-2.48663 1.12509-1.86233 2.30321 1.29284 7.21028 4.9746 10.87243 9.4303 1.43388 1.74461.11079 3.0316-1.05594 1.85803-2.09609-2.10704-5.28003-5.85178-10.94163-9.42604z" id="path5995-5-8-8-7" style="fill-opacity:1;fill:#ffa000"/><path d="m354.97466 407.59764c-1.13592-1.52327-.24177-2.50797 1.19168-1.84356 2.56142 1.36562 8.04078 5.20869 12.17083 9.79626 1.61706 1.79625.19411 3.0551-1.1158 1.84116-2.3533-2.17953-5.94095-6.03806-12.24675-9.79389z" id="path5995-5-8-8-5-6" style="fill-opacity:1;fill:#ffa000"/></g><g data-transform="art" id="Arm_Outfit_SluttyJewelry_Left_Mid" style="display:inline"/><g data-transform="art" id="Arm_Outfit_SluttyJewelry_Left_High" style="display:inline"><path d="m377.90977 100.30266c1.10112-1.34442 2.23302-.758325 1.99471.66627-.5891 2.58416-2.69292 8.31146-5.82622 12.99397-1.22684 1.8334-2.74606.83403-1.97293-.59898 1.38771-2.57417 3.99368-6.61437 5.80446-13.06131z" id="path5995-5-8-8" style="fill-opacity:1;fill:#ffa000"/><path d="m382.55642 101.56815c1.10112-1.48617 2.23302-.83827 1.99471.73652-.5891 2.85663-2.69292 9.1878-5.82622 14.36403-1.22684 2.0267-2.74606.92196-1.97293-.66214 1.38771-2.84558 3.99368-7.31177 5.80446-14.43846z" id="path5995-5-8-8-5" style="fill-opacity:1;fill:#ffa000"/></g><g data-transform="art" id="Arm_Outfit_SluttyJewelry_Right_Low" style="display:inline"/><g data-transform="art" style="display:inline" id="Arm_Outfit_SluttyJewelry_Right_Mid"/><g data-transform="art" style="display:inline" id="Arm_Outfit_SluttyJewelry_Right_High"><path d="m261.57943 100.89551c-1.10112-1.344423-2.23302-.75833-1.99471.66627.5891 2.58416 2.69292 8.31146 5.82622 12.99397 1.22684 1.8334 2.74606.83403 1.97293-.59898-1.38771-2.57417-3.99368-6.61437-5.80446-13.06131z" id="path5995-5-8-8-0" style="fill-opacity:1;fill:#ffa000"/><path d="m256.93278 102.161c-1.10112-1.48617-2.23302-.83827-1.99471.73652.5891 2.85663 2.69292 9.1878 5.82622 14.36403 1.22684 2.0267 2.74606.92196 1.97293-.66214-1.38771-2.84558-3.99368-7.31177-5.80446-14.43846z" id="path5995-5-8-8-5-4" style="fill-opacity:1;fill:#ffa000"/></g><g data-transform="art" id="Arm_Outfit_SluttyJewelry_Right_None"/><g data-transform="art" id="Arm_Outfit_SluttyJewelry_Left_None"/></svg>