<svg viewBox="0 0 560 1e3"><path id="path7518" d="m367.54522 268.56519c-.48856 3.70196.54216 20.44929-5.83307 38.78807-10.81106 30.00281-24.8089 42.10259-26.16454 56.13923-1.90751 19.75085 7.60351 32.44701 15.17173 47.39315-80.60316 32.22693-85.89838 22.53977-126.03073 2.34672 8.12153-20.31139 13.75148-33.16704 14.75672-38.27356 2.46004-12.49684 4.4415-31.04582 4.61467-33.91997 1.30498-21.66848-5.6577-33.8742-6.56616-46.41156-1.61589-15.64626-5.73785-54.00912 36.91863-87.24708 24.21273 17.59813 47.64655 3.58066 62.11281-.44111 18.69542 19.76167 29.00043 45.49545 31.01994 61.62613z" style="display:inline;fill-opacity:1;fill-rule:evenodd;fill:#000;opacity:1;stroke-dasharray:none;stroke-linecap:butt;stroke-linejoin:miter;stroke-miterlimit:4;stroke-opacity:1;stroke-width:0;stroke:#000"/><path id="path7520" d="m367.08266 268.56519c-.47347 3.70196-1.7017 20.80284-7.88001 39.14162-9.42503 30.80346-25.84697 43.33904-25.57691 58.66814.29492 16.74011 8.5705 29.95442 16.60753 44.60666-83.44851 30.28854-97.01586 20.06673-125.234 3.62207 7.87069-20.31139 14.39621-34.53836 15.3704-39.64488 2.38405-12.49684 4.30431-31.04582 4.47213-33.91997 1.26467-21.66848-5.48295-33.8742-6.36335-46.41156-4.56357-26.55034 6.04547-72.86612 35.98244-87.30183 15.0306 13.93374 36.95254 11.65454 59.99021-.38636 43.3149 1.76167 35.58866 48.65706 33.42706 61.53774z" style="display:inline;fill-opacity:1;fill-rule:evenodd;fill:#d5d5ff;opacity:1;stroke-dasharray:none;stroke-linecap:butt;stroke-linejoin:miter;stroke-miterlimit:4;stroke-opacity:1;stroke-width:0;stroke:#000"/><path id="path7522" d="m348.04007 404.56705c.8928 1.03783 2.36114 4.19485 2.36114 4.19485-8.19048 4.90102-37.06099 18.24769-49.49598 28.75086-4.31136 3.64157-13.47661 8.29154-16.37051 16.44054-2.5916 7.29773-3.38661 17.01008-9.75403 14.37033-.12708-.0527-.25389-.22936-.38798-.17253-3.64553 1.54503-9.35333-.74065-11.22863-12.26551-2.95293-18.14755-12.84146-17.24873-13.71165-17.80621-12.60056-8.07247-21.3889-19.81687-24.85362-25.1259.0593-.70684 4.38552-10.43066 4.38552-10.43066 30.95156 34.29024 95.73566 8.25021 119.05574 2.04423z" style="display:inline;fill-opacity:1;fill-rule:evenodd;fill:#000;opacity:1;stroke-dasharray:none;stroke-linecap:butt;stroke-linejoin:miter;stroke-miterlimit:4;stroke-opacity:1;stroke-width:0;stroke:#000"/><path id="path7524" d="m347.78201 404.41002c.8928 1.03783 4.73614 6.68099 4.73614 6.68099-8.19048 4.90102-39.50163 18.76155-51.93662 29.26472-4.31136 3.64157-11.26256 9.46273-16.37051 16.44054-.27428.37469-.68811.67278-.81935 1.10672-3.57923 11.83428-8.32513 9.8537-8.89431 9.63462-.17013-.0655-6.10005 2.75363-10.61356-7.80676-.19489-.456-.68412-.47689-1.06552-.9139-12.08963-13.85259-12.81936-17.33712-13.68955-17.8946-12.60056-8.07247-21.8889-21.94187-25.35362-27.2509.0593-.70684 5.26052-10.68066 5.26052-10.68066 29.7895 36.10978 96.5513 8.37521 118.74638 1.41923z" style="display:inline;fill-opacity:1;fill-rule:evenodd;fill:#5d536c;opacity:1;stroke-dasharray:none;stroke-linecap:butt;stroke-linejoin:miter;stroke-miterlimit:4;stroke-opacity:1;stroke-width:0;stroke:#000"/><path id="path7526" d="m337.15838 206.847c-22.06732 35.70183-29.96804 209.1616-30.24901 210.80863-1.17383 6.88082-3.93177 9.74981-4.67634 9.75528-1.42095.0104-3.66712-1.64823-5.93653-7.68133-.10303-1.33588 7.0047-180.61676 30.97461-214.20766 1.42104.18586 5.04226-.25248 9.88727 1.32508z" style="display:inline;fill-opacity:1;fill-rule:evenodd;fill:#000;opacity:1;stroke-dasharray:none;stroke-linecap:butt;stroke-linejoin:miter;stroke-miterlimit:4;stroke-opacity:0;stroke-width:4.54145336;stroke:#000"/><path id="path7528" d="m312.26773 271.90694c-33.08833 5.01045-53.17387-3.6678-54.14317-4.62274-.99591-.98114 1.66393-11.93214 1.80895-12.82401 1.34982-.0436 35.94167-6.02144 54.8504 4.89087.47939.83622-2.50374 9.47365-2.51618 12.55588z" style="display:inline;fill-opacity:1;fill-rule:evenodd;fill:#000;opacity:1;stroke-dasharray:none;stroke-linecap:butt;stroke-linejoin:miter;stroke-miterlimit:4;stroke-opacity:0;stroke-width:3.74347663;stroke:#000"/><path id="path7530" d="m282.81453 203.50461c-20.78357 36.05283-30.76313 213.58398-31.28016 215.18002-.77958 2.40649-4.81029 5.82508-5.57566 5.6675-.86228-.17753-2.77154-3.92611-3.25855-8.45428-.10364-1.33578 5.53771-174.72948 29.64931-208.31796 1.24001-.43907 5.84399-4.21539 10.46506-4.07528z" style="display:inline;fill-opacity:1;fill-rule:evenodd;fill:#000;opacity:1;stroke-dasharray:none;stroke-linecap:butt;stroke-linejoin:miter;stroke-miterlimit:4;stroke-opacity:0;stroke-width:4.55469275;stroke:#000"/><path id="path7532" d="m282.41143 203.56449c-21.71476 35.70872-30.69045 213.25563-31.29123 214.7949-1.31977 3.38144-4.80639 5.74338-5.25752 5.47871-.42693-.25046-2.13796-2.82905-2.37092-8.03762-.10139-1.33614 6.08975-174.65068 29.67668-208.24804 1.21303-.4392 4.72247-4.1281 9.24299-3.98795z" style="display:inline;fill-opacity:1;fill-rule:evenodd;fill:#5d536c;opacity:1;stroke-dasharray:none;stroke-linecap:butt;stroke-linejoin:miter;stroke-miterlimit:4;stroke-opacity:0;stroke-width:4.50546169;stroke:#000"/><path id="path7534" d="m312.35504 270.92149c-33.20006 4.4989-53.35342-3.29333-54.32599-4.15077-.99927-.88097 1.66954-10.71393 1.81506-11.51474 1.35437-.0391 36.06303-5.40667 55.03562 4.39153.48101.75085-2.5122 8.50643-2.52469 11.27398z" style="display:inline;fill-opacity:1;fill-rule:evenodd;fill:#5d536c;opacity:1;stroke-dasharray:none;stroke-linecap:butt;stroke-linejoin:miter;stroke-miterlimit:4;stroke-opacity:0;stroke-width:3.5532198;stroke:#000"/><path id="path7536" d="m305.52214 264.68859c-7.23597 5.42794-12.12222-5.12131-11.84038-5.00792 5.2063 5.31348 6.7804 4.32151 11.84038 5.00792z" style="display:inline;fill-opacity:1;fill-rule:evenodd;fill:#ffd42a;opacity:1;stroke-dasharray:none;stroke-linecap:butt;stroke-linejoin:miter;stroke-miterlimit:4;stroke-opacity:0;stroke-width:1.82207179;stroke:#000"/><path id="path7538" d="m336.60459 206.77948c-12.35942 30.9181-15.87816 56.22993-19.53398 85.26584-7.40386 58.93911-10.4479 124.74141-10.62597 125.74809-1.13142 6.39613-3.56331 8.96113-4.24282 8.98417-.64318.0218-2.66824-.45003-4.47552-7.04271-.0631-.8212 2.58658-68.88327 10.1808-129.01245 4.70035-24.84924 7.52621-65.54732 20.65809-85.20557 1.41482.18587 3.21562-.315 8.0394 1.26263z" style="display:inline;fill-opacity:1;fill-rule:evenodd;fill:#5d536c;opacity:1;stroke-dasharray:none;stroke-linecap:butt;stroke-linejoin:miter;stroke-miterlimit:4;stroke-opacity:0;stroke-width:4.53160286;stroke:#000"/><path id="path7540" d="m301.54191 269.41023c-8.48577-3.13267-2.27609-12.96131-2.2184-12.66304-1.6381 7.25639.0493 8.04032 2.2184 12.66304z" style="display:inline;fill-opacity:1;fill-rule:evenodd;fill:#ffd42a;opacity:1;stroke-dasharray:none;stroke-linecap:butt;stroke-linejoin:miter;stroke-miterlimit:4;stroke-opacity:0;stroke-width:1.82207179;stroke:#000"/><path id="path7542" d="m294.57773 269.02066c-.46259-9.03371 11.01732-7.19687 10.76587-7.02637-7.31506 1.35218-7.37106 3.21195-10.76587 7.02637z" style="display:inline;fill-opacity:1;fill-rule:evenodd;fill:#ffd42a;opacity:1;stroke-dasharray:none;stroke-linecap:butt;stroke-linejoin:miter;stroke-miterlimit:4;stroke-opacity:0;stroke-width:1.82207179;stroke:#000"/><path id="path7544" d="m266.43885 263.09473c7.23597 5.42794 12.12222-5.12131 11.84038-5.00792-5.2063 5.31348-6.7804 4.32151-11.84038 5.00792z" style="display:inline;fill-opacity:1;fill-rule:evenodd;fill:#ffd42a;opacity:1;stroke-dasharray:none;stroke-linecap:butt;stroke-linejoin:miter;stroke-miterlimit:4;stroke-opacity:0;stroke-width:1.82207179;stroke:#000"/><path id="path7546" d="m270.41908 267.81637c8.48577-3.13267 2.27609-12.96131 2.2184-12.66304 1.6381 7.25639-.0493 8.04032-2.2184 12.66304z" style="display:inline;fill-opacity:1;fill-rule:evenodd;fill:#ffd42a;opacity:1;stroke-dasharray:none;stroke-linecap:butt;stroke-linejoin:miter;stroke-miterlimit:4;stroke-opacity:0;stroke-width:1.82207179;stroke:#000"/><path id="path7548" d="m277.38326 267.4268c.46259-9.03371-11.01732-7.19687-10.76587-7.02637 7.31506 1.35218 7.37106 3.21195 10.76587 7.02637z" style="display:inline;fill-opacity:1;fill-rule:evenodd;fill:#ffd42a;opacity:1;stroke-dasharray:none;stroke-linecap:butt;stroke-linejoin:miter;stroke-miterlimit:4;stroke-opacity:0;stroke-width:1.82207179;stroke:#000"/><path id="path7550" d="m284.46161 271.14962c.7125-.78688 1.6443-4.736 2.25881-6.49558 1.60163-.89232 2.59833-.81476 2.62243-1.15635.0287-.40677-1.97943-.44574-2.46443-1.32429-.30811-2.15488-.25141-7.21636-.26447-7.12474-.42034.9563-.94681 4.9062-1.57514 6.78077-1.45096 1.25949-2.81138 1.10675-2.82562 1.31895-.0163.24244 1.78437.50973 2.45458 1.35801.10918 1.47512-.26913 4.35839-.20616 6.64323z" style="display:inline;fill-opacity:1;fill-rule:evenodd;fill:#d4aa00;opacity:1;stroke-dasharray:none;stroke-linecap:butt;stroke-linejoin:miter;stroke-miterlimit:4;stroke-opacity:0;stroke-width:1.82207179;stroke:#000"/><path id="path7552" d="m261.61363 263.76668c.55747-.65406 1.65784-2.59665 1.69344-2.82023.0345-.21673-.93787-3.18008-.94673-3.11402-.32494.78536-1.51778 2.84339-1.52675 2.98528-.0109.1726.38506 2.38498.78004 2.94897z" style="display:inline;fill-opacity:1;fill-rule:evenodd;fill:#ffd42a;opacity:1;stroke-dasharray:none;stroke-linecap:butt;stroke-linejoin:miter;stroke-miterlimit:4;stroke-opacity:0;stroke-width:.65154117;stroke:#000"/><path id="path7554" d="m258.16653 291.51375c.55747-.65406 1.65784-2.59665 1.69344-2.82023.0345-.21673-.93787-3.18008-.94673-3.11402-.32494.78536-1.51778 2.84339-1.52675 2.98528-.0109.1726.38506 2.38498.78004 2.94897z" style="display:inline;fill-opacity:1;fill-rule:evenodd;fill:#ffd42a;opacity:1;stroke-dasharray:none;stroke-linecap:butt;stroke-linejoin:miter;stroke-miterlimit:4;stroke-opacity:0;stroke-width:.65154117;stroke:#000"/><path id="path7556" d="m254.27745 319.44447c.55747-.65406 1.65784-2.59665 1.69344-2.82023.0345-.21673-.93787-3.18008-.94673-3.11402-.32494.78536-1.51778 2.84339-1.52675 2.98528-.0109.1726.38506 2.38498.78004 2.94897z" style="display:inline;fill-opacity:1;fill-rule:evenodd;fill:#ffd42a;opacity:1;stroke-dasharray:none;stroke-linecap:butt;stroke-linejoin:miter;stroke-miterlimit:4;stroke-opacity:0;stroke-width:.65154117;stroke:#000"/><path id="path7558" d="m251.62579 346.13775c.55747-.65406 1.65784-2.59665 1.69344-2.82023.0345-.21673-.93787-3.18008-.94673-3.11402-.32494.78536-1.51778 2.84339-1.52675 2.98528-.0109.1726.38506 2.38498.78004 2.94897z" style="display:inline;fill-opacity:1;fill-rule:evenodd;fill:#ffd42a;opacity:1;stroke-dasharray:none;stroke-linecap:butt;stroke-linejoin:miter;stroke-miterlimit:4;stroke-opacity:0;stroke-width:.65154117;stroke:#000"/><path id="path7560" d="m249.68125 371.24004c.55747-.65406 1.65784-2.59665 1.69344-2.82023.0345-.21673-.93787-3.18008-.94673-3.11402-.32494.78536-1.51778 2.84339-1.52675 2.98528-.0109.1726.38506 2.38498.78004 2.94897z" style="display:inline;fill-opacity:1;fill-rule:evenodd;fill:#ffd42a;opacity:1;stroke-dasharray:none;stroke-linecap:butt;stroke-linejoin:miter;stroke-miterlimit:4;stroke-opacity:0;stroke-width:.65154117;stroke:#000"/><path id="path7562" d="m247.38315 400.58498c.55747-.65406 1.65784-2.59665 1.69344-2.82023.0345-.21673-.93787-3.18008-.94673-3.11402-.32494.78536-1.51778 2.84339-1.52675 2.98528-.0109.1726.38506 2.38498.78004 2.94897z" style="display:inline;fill-opacity:1;fill-rule:evenodd;fill:#ffd42a;opacity:1;stroke-dasharray:none;stroke-linecap:butt;stroke-linejoin:miter;stroke-miterlimit:4;stroke-opacity:0;stroke-width:.65154117;stroke:#000"/><path id="path7564" d="m266.47503 236.00586c.55747-.65406 1.65784-2.59665 1.69344-2.82023.0345-.21673-.93787-3.18008-.94673-3.11402-.32494.78536-1.51778 2.84339-1.52675 2.98528-.0109.1726.38506 2.38498.78004 2.94897z" style="display:inline;fill-opacity:1;fill-rule:evenodd;fill:#ffd42a;opacity:1;stroke-dasharray:none;stroke-linecap:butt;stroke-linejoin:miter;stroke-miterlimit:4;stroke-opacity:0;stroke-width:.65154117;stroke:#000"/><path id="path7566" d="m315.35375 267.74416c.55747-.65406 1.65784-2.59665 1.69344-2.82023.0345-.21673-.93787-3.18008-.94673-3.11402-.32494.78536-1.51778 2.84339-1.52675 2.98528-.0109.1726.38506 2.38498.78004 2.94897z" style="display:inline;fill-opacity:1;fill-rule:evenodd;fill:#ffd42a;opacity:1;stroke-dasharray:none;stroke-linecap:butt;stroke-linejoin:miter;stroke-miterlimit:4;stroke-opacity:0;stroke-width:.65154117;stroke:#000"/><path id="path7568" d="m311.90665 293.72346c.55747-.65406 1.65784-2.59665 1.69344-2.82023.0345-.21673-.93787-3.18008-.94673-3.11402-.32494.78536-1.51778 2.84339-1.52675 2.98528-.0109.1726.38506 2.38498.78004 2.94897z" style="display:inline;fill-opacity:1;fill-rule:evenodd;fill:#ffd42a;opacity:1;stroke-dasharray:none;stroke-linecap:butt;stroke-linejoin:miter;stroke-miterlimit:4;stroke-opacity:0;stroke-width:.65154117;stroke:#000"/><path id="path7570" d="m309.07823 322.00773c.55747-.65406 1.65784-2.59665 1.69344-2.82023.0345-.21673-.93787-3.18008-.94673-3.11402-.32494.78536-1.51778 2.84339-1.52675 2.98528-.0109.1726.38506 2.38498.78004 2.94897z" style="display:inline;fill-opacity:1;fill-rule:evenodd;fill:#ffd42a;opacity:1;stroke-dasharray:none;stroke-linecap:butt;stroke-linejoin:miter;stroke-miterlimit:4;stroke-opacity:0;stroke-width:.65154117;stroke:#000"/><path id="path7572" d="m306.07302 346.93325c.55747-.65406 1.65784-2.59665 1.69344-2.82023.0345-.21673-.93787-3.18008-.94673-3.11402-.32494.78536-1.51778 2.84339-1.52675 2.98528-.0109.1726.38506 2.38498.78004 2.94897z" style="display:inline;fill-opacity:1;fill-rule:evenodd;fill:#ffd42a;opacity:1;stroke-dasharray:none;stroke-linecap:butt;stroke-linejoin:miter;stroke-miterlimit:4;stroke-opacity:0;stroke-width:.65154117;stroke:#000"/><path id="path7574" d="m304.48203 372.74264c.55747-.65406 1.65784-2.59665 1.69344-2.82023.0345-.21673-.93787-3.18008-.94673-3.11402-.32494.78536-1.51778 2.84339-1.52675 2.98528-.0109.1726.38506 2.38498.78004 2.94897z" style="display:inline;fill-opacity:1;fill-rule:evenodd;fill:#ffd42a;opacity:1;stroke-dasharray:none;stroke-linecap:butt;stroke-linejoin:miter;stroke-miterlimit:4;stroke-opacity:0;stroke-width:.65154117;stroke:#000"/><path id="path7576" d="m303.24459 402.44114c.55747-.65406 1.65784-2.59665 1.69344-2.82023.0345-.21673-.93787-3.18008-.94673-3.11402-.32494.78536-1.51778 2.84339-1.52675 2.98528-.0109.1726.38506 2.38498.78004 2.94897z" style="display:inline;fill-opacity:1;fill-rule:evenodd;fill:#ffd42a;opacity:1;stroke-dasharray:none;stroke-linecap:butt;stroke-linejoin:miter;stroke-miterlimit:4;stroke-opacity:0;stroke-width:.65154117;stroke:#000"/><path id="path7578" d="m320.92226 239.62978c.55747-.65406 1.65784-2.59665 1.69344-2.82023.0345-.21673-.93787-3.18008-.94673-3.11402-.32494.78536-1.51778 2.84339-1.52675 2.98528-.0109.1726.38506 2.38498.78004 2.94897z" style="display:inline;fill-opacity:1;fill-rule:evenodd;fill:#ffd42a;opacity:1;stroke-dasharray:none;stroke-linecap:butt;stroke-linejoin:miter;stroke-miterlimit:4;stroke-opacity:0;stroke-width:.65154117;stroke:#000"/><path id="path7580" d="m246.57249 421.7932c.55747-.65406 1.40784-1.22165 1.44344-1.44523.0345-.21673-1.37537-1.49258-1.38423-1.42652-.32494.78536-1.08028 1.15589-1.08925 1.29778-.0109.1726.63506 1.00998 1.03004 1.57397z" style="display:inline;fill-opacity:1;fill-rule:evenodd;fill:#d4aa00;opacity:1;stroke-dasharray:none;stroke-linecap:butt;stroke-linejoin:miter;stroke-miterlimit:4;stroke-opacity:0;stroke-width:.65154117;stroke:#000"/><path id="path7582" d="m302.37143 423.83686c.55747-.65406 1.47034-1.40915 1.50594-1.63273.0345-.21673-1.25037-1.68008-1.25923-1.61402-.32494.78536-1.20528 1.34339-1.21425 1.48528-.0109.1726.57256 1.19748.96754 1.76147z" style="display:inline;fill-opacity:1;fill-rule:evenodd;fill:#d4aa00;opacity:1;stroke-dasharray:none;stroke-linecap:butt;stroke-linejoin:miter;stroke-miterlimit:4;stroke-opacity:0;stroke-width:.65154117;stroke:#000"/><path id="path7584" d="m319.99559 283.93587c-.54258 5.32833-1.03419 10.08676-1.69126 16.23903-.56754-.0578-7.78532-.36781-7.72874-.78607.0161-.11855-.048-1.78653.3445-1.82994.42333-.0469 5.97308.91096 5.96824.32907-.004-.43834.92194-9.37218 1.14628-11.57526.0422-.41368-6.20283-.72213-6.19417-1.0794.0445-1.84816.17193-2.12965.48754-2.2752 4.99843.50902 7.68273.39339 7.66763.97777z" style="display:inline;fill-opacity:1;fill-rule:nonzero;fill:#d4aa00;opacity:1;stroke-dasharray:none;stroke-linecap:butt;stroke-linejoin:round;stroke-miterlimit:4;stroke-opacity:1;stroke-width:0;stroke:#000"/><path id="path7586" d="m306.51009 282.47947c-.5387 5.32871-1.01294 10.0889-1.60505 16.24777.56755.0579 7.70053 1.20348 7.72912.78238.008-.11934.40587-1.74047.0297-1.86184-.40529-.13091-6.03433-.30739-5.91271-.87645.0915-.42868.97939-9.36635 1.20215-11.56959.0417-.41374 6.22149.53821 6.28474.1868.32765-1.81945.25933-2.1208-.0206-2.32676-4.9988-.5054-7.60516-1.15783-7.70776-.58235z" style="display:inline;fill-opacity:1;fill-rule:nonzero;fill:#d4aa00;opacity:1;stroke-dasharray:none;stroke-linecap:butt;stroke-linejoin:round;stroke-miterlimit:4;stroke-opacity:1;stroke-width:0;stroke:#000"/><path id="path7588" d="m265.82727 279.97381c-.61601 5.32034-1.17321 10.07153-1.91507 16.21416-.56669-.0656-7.7795-.47515-7.71716-.89259.0177-.11832-.0234-1.78703.36971-1.82502.42393-.0411 5.95994.99326 5.96313.41135.002-.43835 1.05112-9.35857 1.30582-11.55834.0479-.41306-6.19228-.80762-6.17869-1.16473.07-1.84737.20128-2.12708.51887-2.26826 4.99093.57791 7.67657.49931 7.65341 1.08343z" style="display:inline;fill-opacity:1;fill-rule:nonzero;fill:#d4aa00;opacity:1;stroke-dasharray:none;stroke-linecap:butt;stroke-linejoin:round;stroke-miterlimit:4;stroke-opacity:1;stroke-width:0;stroke:#000"/><path id="path7590" d="m252.36314 278.33155c-.61214 5.32077-1.15199 10.07397-1.82899 16.22409.5667.0657 7.6832 1.30957 7.7176.88891.01-.11922.42983-1.73471.0554-1.86126-.40344-.13648-6.02951-.39058-5.90006-.95791.0974-.42738 1.10848-9.35195 1.36161-11.55191.0474-.41313 6.21348.62396 6.28157.27346.35271-1.81476.28855-2.11702.0115-2.32682-4.99135-.5743-7.58847-1.26261-7.699-.6886z" style="display:inline;fill-opacity:1;fill-rule:nonzero;fill:#d4aa00;opacity:1;stroke-dasharray:none;stroke-linecap:butt;stroke-linejoin:round;stroke-miterlimit:4;stroke-opacity:1;stroke-width:0;stroke:#000"/><ellipse ry="2.5314598" rx="3.1445143" cy="423.40643" cx="255.14452" id="ellipse7592" style="display:inline;fill-opacity:1;fill-rule:evenodd;fill:#ffd42a;opacity:1;stroke-dasharray:none;stroke-dashoffset:0;stroke-linecap:butt;stroke-linejoin:miter;stroke-miterlimit:4;stroke-opacity:1;stroke-width:0;stroke:#212f3d;vector-effect:none"/><ellipse ry="2.5314598" rx="3.1445143" cy="424.65601" cx="292.543" id="ellipse7594" style="display:inline;fill-opacity:1;fill-rule:evenodd;fill:#ffd42a;opacity:1;stroke-dasharray:none;stroke-dashoffset:0;stroke-linecap:butt;stroke-linejoin:miter;stroke-miterlimit:4;stroke-opacity:1;stroke-width:0;stroke:#212f3d;vector-effect:none"/><path id="path7596" d="m279.25199 431.10669c-1.37002.64678-5.67692 1.98282-7.41359 1.98282s-6.49308-1.2249-7.46535-2.62299c-.19481-.28013-6.077-6.41699 2.99009-6.52343.26453-.003-7.82926 1.11591-1.31964 6.12521 1.30256 1.00235 5.03332 1.93539 5.59982 1.93538.75212.0 4.56703-.72796 6.98966-1.97266 1.72121-.88432 4.54744-3.51685-1.13108-6.00108 8.7381 1.72082 2.07782 6.92202 1.75009 7.07675z" style="display:inline;fill-opacity:1;fill-rule:evenodd;fill:#d4aa00;opacity:1;stroke-dasharray:none;stroke-dashoffset:0;stroke-linecap:butt;stroke-linejoin:miter;stroke-miterlimit:4;stroke-opacity:1;stroke-width:0;stroke:#212f3d;vector-effect:none"/><path id="path7598" d="m275.19158 431.20514c-.63435.34364-2.62856 1.0535-3.43268 1.0535-.80413.0-3.00647-.65081-3.45666-1.39363-.0902-.14883-2.81381-3.40941 1.38449-3.46596.12249-.002-3.62515.59289-.61103 3.25438.60312.53256 2.33056 1.0283 2.59287 1.02829.34825.0 2.11465-.38677 3.2364-1.04809.79696-.46985 2.10558-1.86854-.52372-3.18844 4.04597.91429.96208 3.67774.81033 3.75995z" style="display:inline;fill-opacity:1;fill-rule:evenodd;fill:#d4aa00;opacity:1;stroke-dasharray:none;stroke-dashoffset:0;stroke-linecap:butt;stroke-linejoin:miter;stroke-miterlimit:4;stroke-opacity:1;stroke-width:0;stroke:#212f3d;vector-effect:none"/><path id="path7600" d="m268.0292 433.5141c.6248-.36072 2.59902-1.1244 3.40284-1.14621.80384-.0218 3.02302.56902 3.49319 1.29937.0942.14632 2.90525 3.33183-1.28998 3.50223-.12239.005 3.60774-.69099.52254-3.26976-.61734-.516-2.35759-.96471-2.6198-.95758-.34813.009-2.10338.44397-3.20679 1.13548-.78392.49129-2.05412 1.92496.61001 3.17306-4.06928-.80422-1.06148-3.65029-.91201-3.73659z" style="display:inline;fill-opacity:1;fill-rule:evenodd;fill:#d4aa00;opacity:1;stroke-dasharray:none;stroke-dashoffset:0;stroke-linecap:butt;stroke-linejoin:miter;stroke-miterlimit:4;stroke-opacity:1;stroke-width:0;stroke:#212f3d;vector-effect:none"/><path id="path7602" d="m281.29101 430.63664c-.35546-.0898-1.34603-.51319-1.64741-.79282-.30139-.27964-.90394-1.29317-.81825-1.73241.0172-.088.11311-2.27594 1.70603-.83749.0465.042-1.56179-1.03503-1.34367 1.02596.0437.41239.52131 1.20176.61963 1.29298.13037.12127.92505.5882 1.572.72662.45963.0983 1.42917.0211.89577-1.39546 1.2033 1.75492-.89906 1.7341-.9841 1.71262z" style="display:inline;fill-opacity:1;fill-rule:evenodd;fill:#d4aa00;opacity:1;stroke-dasharray:none;stroke-dashoffset:0;stroke-linecap:butt;stroke-linejoin:miter;stroke-miterlimit:4;stroke-opacity:1;stroke-width:0;stroke:#212f3d;vector-effect:none"/><path id="path7604" d="m265.56777 428.01031c-.21502.29696-.97505 1.06039-1.34639 1.23684-.37135.17644-1.53594.36095-1.91224.11873-.0754-.0486-2.07235-.94767-.14638-1.89486.0562-.0276-1.53969 1.06763.45561 1.62802.39927.11208 1.30937-.0394 1.43051-.0969.16091-.0762.88887-.64156 1.25697-1.19129.26148-.39058.54871-1.31981-.96467-1.34875 2.07571-.46809 1.27803 1.47718 1.22659 1.54822z" style="display:inline;fill-opacity:1;fill-rule:evenodd;fill:#d4aa00;opacity:1;stroke-dasharray:none;stroke-dashoffset:0;stroke-linecap:butt;stroke-linejoin:miter;stroke-miterlimit:4;stroke-opacity:1;stroke-width:0;stroke:#212f3d;vector-effect:none"/></svg>