<svg viewBox="0 0 560 1e3"><g data-transform="boob" transform="matrix(1.1899396,0,0,1.1247504,-49.050018,-33.548868)" id="g7183" class="scaler_"><path class="shadow" d="m300.32238 268.52436c-1.46536.0326-2.53586-1.56103-2.64799-2.54711-.14082-1.23819 1.51105-2.84968 2.40378-2.95592.89273-.10622 2.68137 1.55073 2.85639 2.83262.12765.93477-1.1398 2.63769-2.61218 2.67041z" id="path7175"/><path id="path7177" d="m219.64286 262.33038c-1.46455-.0609-1.99121-2.27795-2.04696-3.26939-.07-1.24492 1.00355-2.12273 1.90071-2.17185.89715-.0491 3.12993.64504 3.2316 1.93576.0742.9412-1.61378 3.56672-3.08535 3.50548z" class="shadow"/><path class="areola" d="m300.43006 267.73065c-1.37099.0266-2.64841-1.26837-2.75697-2.25468-.13631-1.23848 1.55144-2.84554 2.38637-2.9481.83491-.10252 2.51064 1.30403 2.6791 2.58634.12287.93508-.93093 2.58978-2.3085 2.61644z" id="path7179"/><path class="areola" d="m219.70411 261.60249c-1.36619.10004-2.69997-1.86743-2.35728-2.81755.437-1.21153.21133-1.18031 1.6118-2.37522.65351-.55758 3.66659.65985 3.91126 1.92526.3738 1.9333-1.793 3.16699-3.16578 3.26751z" id="path7181"/></g></svg>