<svg viewBox="0 0 560 1e3"><path style="fill:#000;stroke-width:2.09582233" id="path3762" d="m266.56266 487.41644c-1.02095.32423-2.19079.17635-2.92249.16431-1.17374-.0187-3.47875-1.81699-3.67721-2.36577.30298-2.36283 6.37063-5.59458 10.88669-2.56186-1.46852 3.35279-2.47463 3.76341-4.28699 4.76332z"/><path style="fill:#000;stroke-width:4.26215696" id="path3764" d="m256.69515 447.1106c5.64092-10.58371 25.80308-17.51512 27.72535 6.77028.63704 1.36682-.85952 7.50651-2.65848 15.22803-2.06026 7.53862-3.69375 16.10934-4.49515 24.64936-.52564 9.76863-2.74576 25.75162-16.17491 24.61728-7.67968-1.83376-11.56318-8.04432-14.72437-12.3545-.30061-1.44952.32406-2.17299.19314-2.72236-1.6431-6.91143-1.13787-17.2768.98188-28.83522 1.81793-9.91284 4.92629-19.92035 9.15227-27.35287z"/><path class="areola" id="path3766" d="m274.1923 505.48477c-.0295 1.16449-1.51815 5.25987-2.94369 7.20482-3.24628 3.81652-7.1252 5.51462-11.6878 4.0256-2.13323-.0385-8.96018-5.50501-12.22482-11.06552 1.38949-4.83429 20.77815 2.78304 26.85631-.16472z"/><path id="path3768" d="m258.07332 445.04372c5.0443-10.81883 23.07417-17.90427 24.7931 6.92067.56968 1.39724-.7686 7.67326-2.37729 15.56644-1.84234 7.70601-3.99159 16.32375-4.70831 25.05355-.0882 4.88208-.52492 8.066-.95627 11.05676-3.1631 3.92934-20.42651-1.55528-26.43353-1.01756-1.46933-7.065-.3978-17.80406 1.49774-29.61929 1.62557-10.13303 4.40524-20.36285 8.18429-27.96057z" class="skin penis"/></svg>