<svg viewBox="0 0 560 1e3"><g data-transform="belly" transform="matrix(1.014792,0,0,1.0059302,-4.1714057,-2.5733022)" id="g6018"><path id="path5965" class="shadow" d="m274.8 433.8c20.7-1.5 47.7-4.5 61.9-42.4 13.1-44.3-27.8-99.6-59.9-101.5-40.1 6.2-61.8 42.8-63.9 96.9 2.2 31 33.1 49 61.9 47z"/><path style="fill-opacity:1;fill:maroon" id="path5967" d="m274.8 433.8c20.8.1 49.4-13 61.9-42.4s-18.5-83.4-46-101.7c-6.5-4.3-38.7-8.2-40.4.0-2.6 11.6-44.9 33.3-41.4 96.8 1.8 34.8 45.1 47.2 65.9 47.3z"/><path id="path5972" d="m255.36432 431.58664c-10.43978-28.74238-13.41734-101.79777 11.50546-146.51754.0217-.0969-.0306-.31582.0649-.28911 1.68011.4697 1.027.074 2.33592.13355.12272.006-.0402.24045-.0604.36135-24.39845 41.2521-21.72599 107.00068-13.35936 146.37281-.14061-.0283-.17101.0106-.48652-.0611z" style="display:inline;fill-opacity:1;fill:#000;stroke-width:.99496186"/><path id="path5975" d="m259.76839 420.26715c.18705.83126-2.95443 4.01108-5.38025 4.54603l-1.17273-6.49225c2.42582-.53494 6.39311 1.23574 6.55298 1.94622z" style="display:inline;fill:#000;stroke-width:.99496186"/><path id="path5978" d="m257.65851 405.33006c.12287.8429-3.25288 3.778-5.71267 4.12946L251.2733 402.898c2.45978-.35147 6.28017 1.71165 6.38521 2.43206z" style="display:inline;fill:#000;stroke-width:.99496186"/><path id="path5981" d="m256.21398 390.96766c.10684.84505-3.64205 3.44429-6.10809 3.74986l-.36159-6.59597c2.46604-.30556 6.37834 2.12385 6.46966 2.84611z" style="display:inline;fill:#000;stroke-width:.99496186"/><path id="path5983" d="m255.89197 375.02613c.11105.8445-3.82015 3.17521-6.28464 3.4928l-.27043-6.6101c2.46448-.31758 6.46015 2.3955 6.55507 3.1173z" style="display:inline;fill:#000;stroke-width:.99496186"/><path id="path5989" d="m255.84164 359.3942c.0293.85115-3.85214 2.97754-6.33599 3.0612l.40038-6.54474c2.48384-.0837 5.91061 2.75607 5.93561 3.48354z" style="display:inline;fill:#000;stroke-width:.99496186"/><path id="path5991" d="m257.44405 344.84678c-.0252.85126-4.21563 2.50858-6.69983 2.43663l.88003-6.50478c2.48422.072 5.84131 3.34059 5.8198 4.06815z" style="display:inline;fill:#000;stroke-width:.99496186"/><path id="path5994" d="m260.39259 327.26428c-.0715.84868-4.47079 1.89682-6.94747 1.69223l1.35023-6.3455c2.47668.2046 5.65839 3.92789 5.59724 4.65327z" style="display:inline;fill:#000;stroke-width:.99496186"/><path id="path5996" d="m264.36604 309.71912c-.15438.83781-4.4573 2.21368-6.90221 1.77205l2.05547-5.98095c2.4449.44167 4.97874 3.49282 4.84674 4.2089z" style="display:inline;fill:#000;stroke-width:.99496186"/><path id="path5998" d="m259.51677 419.48885c.18705.83126-2.95442 4.01108-5.38024 4.54603l-1.17274-6.49225c2.42583-.53494 6.39311 1.23575 6.55298 1.94622z" style="display:inline;fill:#787878;stroke-width:.99496186"/><path id="path6000" d="m257.46719 404.53513c.12286.84291-3.25289 3.778-5.71268 4.12948l-.67254-6.56154c2.45978-.35149 6.28017 1.71164 6.38522 2.43206z" style="display:inline;fill:#787878;stroke-width:.99496186"/><path id="path6002" d="m256.0378 390.1693c.10684.84503-3.64204 3.4443-6.10808 3.74987l-.36159-6.59597c2.46603-.30556 6.37834 2.12384 6.46965 2.8461z" style="display:inline;fill:#787878;stroke-width:.99496186"/><path id="path6004" d="m255.71182 374.22863c.11105.84451-3.82015 3.17522-6.28463 3.49281l-.27044-6.61009c2.46449-.3176 6.46016 2.39548 6.55507 3.11728z" style="display:inline;fill:#787878;stroke-width:.99496186"/><path id="path6006" d="m255.73907 358.58335c.0293.85113-3.85215 2.97753-6.33598 3.0612l.40037-6.54474c2.48385-.0837 5.91061 2.75606 5.93561 3.48354z" style="display:inline;fill:#787878;stroke-width:.99496186"/><path id="path6008" d="m257.39349 344.03114c-.0252.85126-4.21563 2.50857-6.69985 2.43662l.88004-6.50477c2.48421.072 5.8413 3.34057 5.81981 4.06815z" style="display:inline;fill:#787878;stroke-width:.99496186"/><path id="path6013" d="m260.38657 326.44711c-.0715.84869-4.47081 1.89683-6.94747 1.69222l1.35023-6.34548c2.47666.20461 5.65839 3.92789 5.59724 4.65326z" style="display:inline;fill:#787878;stroke-width:.99496186"/><path id="path6016" d="m264.44019 308.90523c-.15439.8378-4.45731 2.21369-6.90223 1.77204l2.05547-5.98094c2.44492.44167 4.97874 3.49283 4.84676 4.2089z" style="display:inline;fill:#787878;stroke-width:.99496186"/></g></svg>