<svg viewBox="0 0 560 1e3"><path d="m341.88769 406.58742c25.56211 10.90768 50.63019 47.19052 49.39738 73.13467-1.07533 19.95143-7.36916 28.17469-20.70642 41.06981-9.902 21.56803-13.45696 58.16778-21.45472 57.62045C327.92352 576.9894 310.5313 414.3608 341.88769 406.58742z" id="path3150" style="fill-opacity:1;fill:gray"/><path style="display:inline;fill-opacity:1;fill:#b3b3b3;stroke-dasharray:none;stroke-linecap:butt;stroke-linejoin:miter;stroke-miterlimit:4;stroke-opacity:1;stroke-width:0;stroke:#000" d="m355.2172 518.31626 1.24937 17.63765.007.0845c.0458-.0119 8.57629.10469 8.61994.0989.52263-2.21634 4.31051-11.86858 5.62867-15.30512 1.19046-1.09794 1.96138-1.91929 2.08115-2.05792z" id="path3213-6-7-7"/><path style="display:inline;fill-opacity:1;fill:#b3b3b3;stroke-dasharray:none;stroke-linecap:butt;stroke-linejoin:miter;stroke-miterlimit:4;stroke-opacity:1;stroke-width:0;stroke:#000" d="m351.42113 412.76189 5.61266 8.21902c.0961-.42835 2.15589-2.81488 2.05683-3.37261-.72365-1.4272-6.88883-5.34061-7.12877-5.50587z" id="path3213-5-8-7-5-7"/></svg>