<svg viewBox="0 0 560 1e3"><path style="display:inline;fill-opacity:1;fill:#000;opacity:1" d="m233.44242 319.3763c-22.35563 57.33386-17.14339 72.13673-8.59775 94.00018 16.36196-.34408 104.86205 3.75956 137.83667 3.74496 19.4112-19.47819 6.50262-59.08875 2.57928-68.59965.3856-5.0601 1.09992-20.31102 6.37651-63.49742-20.00731-23.65544-42.21969-61.65724-42.26611-80.02948-5.0856-1.53654-9.2662-4.20037-11.97165-6.99799-.44453 1.7818-1.99968 15.88708-2.14306 17.33056-12.09829 5.75915-27.87745 3.2969-33.51216-1.00011.88357-3.08367.12976-7.88401 3.51875-14.42259-2.95309 1.88608-5.93497 4.18624-9.90394 6.09612-19.66621 9.88875-29.38006 22.85237-34.17501 36.41805-8.21093 17.20176-11.19214 45.53181-7.74153 76.95737z" id="path6926-8-8-5"/><path id="path6928-6-1-7" d="m363.79938 348.80355s18.70221 53.35531-.49514 68.72984c-40.10653 11.44456-76.22545 38.21388-76.99712 40.55165-.78385 1.88787-4.7912 9.82211-7.2881 11.60252-1.21712.86786-4.56426-.37235-4.8162-.39645-.29397-.0276-.77535.50225-2.98817-.0701-5.65546-1.4629-10.22974-5.40448-10.80185-7.35518-18.43111-29.49711-30.68812-46.0732-35.41353-47.26215-18.27915-34.80733 10.35514-95.37901 10.35514-95.37901-2.10939-9.79535-10.34764-107.27782 41.58171-113.24357.49229-.51848 2.68756-2.31919 7.16452-4.72153 1.01736-.38611 4.59904-8.26172 5.00699-8.02432 6.65758 3.87428 26.54635-.85503 26.87567-.1563.97035 2.05878 1.71969 4.49501 2.863 6.22886 1.48672 1.12706 17.16932 6.88046 17.7012 8.22282.0.0 24.76225-4.8947 34.24132 27.54218 6.83766 34.59578-1.76374 79.25865-6.98944 113.73074z" style="display:inline;fill-opacity:1;fill-rule:evenodd;fill:maroon;opacity:1;stroke-dasharray:none;stroke-linecap:butt;stroke-linejoin:miter;stroke-miterlimit:4;stroke-opacity:1;stroke-width:0;stroke:#000"/><path id="path6930-5-0-2" d="m223.46081 414.21749c-.42263 12.80142 31.84447 58.44933 51.86626 56.74714 13.4605-1.86072 24.20778-26.48734 86.53835-51.73016-5.52595-11.9083-20.07615-23.00694-26.61235-34.33133-45.102 11.9464-91.4758 3.33435-104.81614-.31943.0.0-1.84313 17.91613-6.97612 29.63378z" style="display:inline;fill-opacity:1;fill:#333;stroke-dasharray:none;stroke-linecap:butt;stroke-linejoin:miter;stroke-miterlimit:4;stroke-opacity:1;stroke-width:0;stroke:#000"/><path id="path6932-2-2-7" d="m257.42933 436.58157c.5575-1.06599 6.5423-47.48865 6.58488-47.65285.0.0-38.32742-17.84534-44.85496-22.26022-2.89865 7.30555-6.50164 53.27796-6.43502 53.35784.063.19141 44.7051 16.55523 44.7051 16.55523z" style="display:inline;fill-opacity:1;fill:#000;opacity:1;stroke-dasharray:none;stroke-linecap:butt;stroke-linejoin:miter;stroke-miterlimit:4;stroke-opacity:1;stroke-width:0;stroke:#000"/><path id="path6934-5-5-6" d="m256.33979 391.23466c-.0664.0413-1.39182-.0733-1.58546-.10885-3.40999-.62801 19.2566-160.50788 24.25915-160.55375.0.0 12.26767-11.59694 15.1958-14.84809-11.66224 14.89533-30.22666 147.63281-30.17154 172.72911-.0426 1.28175-94e-5 2.39529-.0998 2.64799z" style="display:inline;fill-opacity:1;fill:#000;opacity:1;stroke-dasharray:none;stroke-linecap:butt;stroke-linejoin:miter;stroke-miterlimit:4;stroke-opacity:1;stroke-width:0;stroke:#000"/><path id="path6936-2-0-0" d="m256.82347 435.83166c-.005-.12477 6.43682-46.78082 6.29446-46.86401L221.1893 364.46602c-3.09148 7.86232-7.50086 55.17965-7.43167 55.25026.0621.18588 43.06584 16.11538 43.06584 16.11538z" style="display:inline;fill-opacity:1;fill:maroon;opacity:1;stroke-dasharray:none;stroke-linecap:butt;stroke-linejoin:miter;stroke-miterlimit:4;stroke-opacity:1;stroke-width:0;stroke:#000"/><path id="path6938-5-7-0" d="m255.95357 390.4496c-.0664.0413-1.76682-.0468-1.96046-.0825-3.40999-.62801 19.2566-160.40253 24.25915-160.4484.0.0 14.23398-13.51852 15.68248-14.44775-15.56688 24.4846-34.69807 173.01647-30.414 174.96778z" style="display:inline;fill-opacity:1;fill:maroon;opacity:1;stroke-dasharray:none;stroke-linecap:butt;stroke-linejoin:miter;stroke-miterlimit:4;stroke-opacity:1;stroke-width:0;stroke:#000"/><path id="path6940-7-0-1" d="m258.89163 437.11081c.007-.14856 4.09744-51.68483 4.0352-51.87468.0.0 101.2447.61532 110.3902 2.55165 1.82798.41016 1.00812 31.07449.90647 31.15726-.0921.22131-115.33187 18.16577-115.33187 18.16577z" style="display:inline;fill-opacity:1;fill:#000;opacity:1;stroke-dasharray:none;stroke-linecap:butt;stroke-linejoin:miter;stroke-miterlimit:4;stroke-opacity:1;stroke-width:0;stroke:#000"/><path id="path6942-2-5-3" d="m260.02434 435.69863c.007-.14856 4.18979-50.58257 4.12661-50.77211-.29391-.88173 105.08455-8.8344 107.64151 2.36545 1.00313 4.39384 1.05118 31.10594.9538 31.19831-.0921.22131-112.72192 17.20835-112.72192 17.20835z" style="display:inline;fill-opacity:1;fill:maroon;opacity:1;stroke-dasharray:none;stroke-linecap:butt;stroke-linejoin:miter;stroke-miterlimit:4;stroke-opacity:1;stroke-width:0;stroke:#000"/><path style="display:inline;fill-opacity:1;fill-rule:nonzero;fill:#ff0;opacity:1;stroke-dasharray:none;stroke-linecap:butt;stroke-linejoin:round;stroke-miterlimit:4;stroke-opacity:1;stroke-width:0;stroke:#000" d="m288.03821 262.88906a2.8059697 3.1566737.0 01-2.80597 3.15668 2.8059697 3.1566737.0 01-2.80597-3.15668 2.8059697 3.1566737.0 012.80597-3.15668 2.8059697 3.1566737.0 012.80597 3.15668z" id="path6944-2-8-4"/><path id="path6946-6-9-1" d="m282.87438 204.3332c-4.15702 35.00904 29.34153 106.87057 55.99202 138.20133.29472.34648-8.25873 1.33772-8.89213 1.43009-13.0257-10.2681-55.5504-90.35698-55.12687-136.9443 1.15055-1.56976 4.33512-1.93428 8.02698-2.68712z" style="display:inline;fill-opacity:1;fill:#000;opacity:1;stroke-dasharray:none;stroke-linecap:butt;stroke-linejoin:miter;stroke-miterlimit:4;stroke-opacity:1;stroke-width:0;stroke:#000"/><path style="display:inline;fill-opacity:1;fill-rule:nonzero;fill:#ff0;opacity:1;stroke-dasharray:none;stroke-linecap:butt;stroke-linejoin:round;stroke-miterlimit:4;stroke-opacity:1;stroke-width:0;stroke:#000" d="m282.89194 297.67418a2.8059697 3.1566737.0 01-2.80597 3.15667 2.8059697 3.1566737.0 01-2.80597-3.15667 2.8059697 3.1566737.0 012.80597-3.15668 2.8059697 3.1566737.0 012.80597 3.15668z" id="path6948-2-3-0"/><path id="path6950-5-0-9" class="shadow" d="m329.87921 425.70416c-15.4791 1.19068-42.03653 26.26041-44.60913 30.99635 10.29989-9.14088 29.75951-26.28541 44.60913-30.99635z"/><path id="path6952-6-1-6" class="shadow" d="m262.13712 457.55245c-5.32741-7.35839-28.98018-30.1623-28.98018-30.1623l-2.80403-.77815s24.58999 23.41879 31.78421 30.94045z"/><path id="path6954-6-8-8" class="shadow" d="m329.8875 425.70175c-15.4791 1.19068-42.03653 26.26041-44.60913 30.99635 10.29989-9.14088 29.75951-26.28541 44.60913-30.99635z"/><path id="path6956-2-0-4" class="shadow" d="m262.14541 457.55004c-5.37406-7.42283-29.21651-30.35505-29.21651-30.35505l-2.57069-.58835s24.59207 23.42079 31.7872 30.9434z"/><path id="path6958-3-2-4" d="m294.31526 216.16697c-.007-.15238 3.8945-21.33661 3.96139-21.53134.0.0-9.30916-2.83813-9.45142-2.64363-.86438 1.18176-2.48505 4.21861-3.88833 5.92157.099.227 9.37836 18.2534 9.37836 18.2534z" style="display:inline;fill-opacity:1;fill:#000;opacity:1;stroke-dasharray:none;stroke-linecap:butt;stroke-linejoin:miter;stroke-miterlimit:4;stroke-opacity:1;stroke-width:0;stroke:#000"/><path id="path6960-1-7-4" d="m294.46091 215.07996c-.007-.14941 3.74282-19.86681 3.8078-20.05775.0.0-9.54661-3.37453-9.68481-3.18382-.83967 1.15876-2.41401 4.13649-3.77718 5.8063.0962.22258 9.65419 17.43527 9.65419 17.43527z" style="display:inline;fill-opacity:1;fill:maroon;opacity:1;stroke-dasharray:none;stroke-linecap:butt;stroke-linejoin:miter;stroke-miterlimit:4;stroke-opacity:1;stroke-width:0;stroke:#000"/><path id="path6962-3-6-8" d="m294.22138 216.19261c.007-.15238 4.17282-21.28705 4.10593-21.48178.0.0 17.62166-3.49438 17.76392-3.29988.86438 1.18176 2.6413 5.37486 3.07583 6.04657-.099.227-24.94568 18.73509-24.94568 18.73509z" style="display:inline;fill-opacity:1;fill:#000;opacity:1;stroke-dasharray:none;stroke-linecap:butt;stroke-linejoin:miter;stroke-miterlimit:4;stroke-opacity:1;stroke-width:0;stroke:#000"/><path id="path6964-1-6-0" d="m294.38015 215.19253c.007-.14856 3.95924-19.97917 3.89334-20.16902.0.0 17.15521-3.89328 17.29538-3.70366.85164 1.15214 2.60238 5.24014 3.03051 5.89501-.0975.22131-24.21923 17.97767-24.21923 17.97767z" style="display:inline;fill-opacity:1;fill:maroon;opacity:1;stroke-dasharray:none;stroke-linecap:butt;stroke-linejoin:miter;stroke-miterlimit:4;stroke-opacity:1;stroke-width:0;stroke:#000"/><path id="path6966-6-4-1" d="m282.13394 203.4582c-4.08655 35.00904 29.34461 108.24557 55.54329 139.57633.28973.34648-5.90686.83772-6.52953.93009-12.80487-10.2681-55.90788-90.41948-55.49153-137.0068 1.13104-1.56976 2.8485-2.74678 6.47777-3.49962z" style="display:inline;fill-opacity:1;fill:#4d351f;opacity:1;stroke-dasharray:none;stroke-linecap:butt;stroke-linejoin:miter;stroke-miterlimit:4;stroke-opacity:1;stroke-width:0;stroke:#000"/><path id="path6968-0-3-2" d="m284.51487 205.20924c.0133-.14802.991-3.76164 1.04686-3.94624.0.0-10.13556 2.84037-10.14148 3.07346-.008.30956-.81107 2.93146-.7689 3.0294.0242.22566 9.86356-2.15662 9.86356-2.15662z" style="display:inline;fill-opacity:1;fill:#00001a;opacity:1;stroke-dasharray:none;stroke-linecap:butt;stroke-linejoin:miter;stroke-miterlimit:4;stroke-opacity:1;stroke-width:0;stroke:#000"/><path style="display:inline;fill-opacity:1;fill-rule:nonzero;fill:#ff0;opacity:1;stroke-dasharray:none;stroke-linecap:butt;stroke-linejoin:round;stroke-miterlimit:4;stroke-opacity:1;stroke-width:0;stroke:#000" d="m296.15903 227.39313a2.8059697 3.1566737.0 01-2.80597 3.15668 2.8059697 3.1566737.0 01-2.80597-3.15668 2.8059697 3.1566737.0 012.80597-3.15668 2.8059697 3.1566737.0 012.80597 3.15668z" id="path6970-4-1-6"/><path style="display:inline;fill-opacity:1;fill-rule:nonzero;fill:#ff0;opacity:1;stroke-dasharray:none;stroke-linecap:butt;stroke-linejoin:round;stroke-miterlimit:4;stroke-opacity:1;stroke-width:0;stroke:#000" d="m277.43213 332.06503a2.8059697 3.1566737.0 01-2.80597 3.15668 2.8059697 3.1566737.0 01-2.80597-3.15668 2.8059697 3.1566737.0 012.80597-3.15668 2.8059697 3.1566737.0 012.80597 3.15668z" id="path6972-1-4-7"/><path id="path6974-0-6-4" d="m227.82974 334.96774s63.66509 14.76939 138.56448 1.3648c.36617-.0655-.75183 8.09757-1.82437 12.15825.0936.96098.86786 2.79892 1.09629 3.10959-14.57264 6.85213-124.27045 11.75014-142.30707-2.07794.0.0 4.83547-14.36152 4.47067-14.5547z" style="display:inline;fill-opacity:1;fill:#000;opacity:1;stroke-dasharray:none;stroke-linecap:butt;stroke-linejoin:miter;stroke-miterlimit:4;stroke-opacity:1;stroke-width:0;stroke:#000"/><path id="path6976-1-1-6" d="m228.05071 335.76323s58.964 15.54522 137.86312.96768c.33287-.0615-.7847 7.26731-1.7821 11.85859.21297.87125.7768 2.6909.7768 2.6909-19.95115 6.77325-124.93169 9.79867-140.40042-2.02669.0.0 3.5426-13.89468 3.5426-13.4905z" style="display:inline;fill-opacity:1;fill:#4d351f;opacity:1;stroke-dasharray:none;stroke-linecap:butt;stroke-linejoin:miter;stroke-miterlimit:4;stroke-opacity:1;stroke-width:0;stroke:#000"/><path style="display:inline;fill-opacity:1;fill-rule:nonzero;fill:#ff0;opacity:1;stroke-dasharray:none;stroke-linecap:butt;stroke-linejoin:round;stroke-miterlimit:4;stroke-opacity:1;stroke-width:0;stroke:#000" d="m274.10068 341.20932c-.49922 6.0624-.95306 11.47655-1.56415 18.47709-.64482-.0533-8.83601-.24791-8.78096-.7241.0156-.13496-.0933-2.02764.35079-2.08549.479-.0625 6.79288.90418 6.77472.24352-.0136-.49768.84133-10.66266 1.04774-13.16926.0388-.47067-7.04928-.68475-7.04724-1.09063.0102-2.09966.14858-2.42207.50329-2.59423 5.67895.46901 8.72023.27917 8.71584.9431z" id="path6978-4-7-6"/><path style="display:inline;fill-opacity:1;fill-rule:nonzero;fill:#ff0;opacity:1;stroke-dasharray:none;stroke-linecap:butt;stroke-linejoin:round;stroke-miterlimit:4;stroke-opacity:1;stroke-width:0;stroke:#000" d="m260.62035 339.99155c-.49481 6.06275-.92891 11.47852-1.46621 18.48513.64483.0534 8.75806 1.19869 8.78131.71988.007-.1357.42233-1.98524-.007-2.11486-.46242-.13982-6.84919-.21747-6.72367-.86632.0945-.48878.9066-10.65729 1.11121-13.16405.0382-.47072 7.06645.4755 7.13052.0751.33191-2.07322.24787-2.41392-.0741-2.6417-5.67929-.4649-8.64892-1.14893-8.75273-.49321z" id="path6980-7-9-2"/><path id="path6982-4-4-3" d="m284.63086 231.65234c-.0165-.008-.0319-.004-.0449.01-.58358.62589-3.38749 2.94487-5.86328 5.07227.96283 3.23986 2.00965 7.26121 3.2539 10.24609.58358-.62589 3.38749-2.94487 5.86328-5.07227-1.06398-3.26131-1.73611-6.93046-3.20898-10.25586zm-.41602 1.57032c.62964 2.61253 1.88016 5.41417 2.43164 8.17578-.16042.15084-3.5544 3.03827-4.29882 4.02148-.62925-2.61242-1.88026-5.41468-2.43164-8.17578.16042-.15084 3.5544-3.03827 4.29882-4.02148z" style="display:inline;fill-opacity:1;fill-rule:nonzero;fill:#ff0;opacity:1;stroke-dasharray:none;stroke-linecap:butt;stroke-linejoin:round;stroke-miterlimit:4;stroke-opacity:1;stroke-width:0;stroke:#000"/><path style="display:inline;fill-opacity:1;fill-rule:nonzero;fill:#ff0;opacity:1;stroke-dasharray:none;stroke-linecap:butt;stroke-linejoin:round;stroke-miterlimit:4;stroke-opacity:1;stroke-width:0;stroke:#000" d="m324.6659 338.01952c.68464-.33612 1.34898-.66289 2.01165-.98987.0947-.0468 2.4768 2.75035 2.58759 2.70277 1.00588-.43207 2.06986-.86476 3.18889-1.42408.098-.0489-2.09088-3.1093-1.99169-3.15894.58299-.2917 1.18749-.59512 1.82338-.91533-.35187-.50835-4.60338-7.0316-4.79223-6.92225-.0536.0308-.97085.20349-.77152.56655.21496.39163 3.86396 5.30783 3.55384 5.38394-.23356.0574-4.42836 2.13545-5.46501 2.64436-.19453.0958-3.89483-5.54268-4.07813-5.48563-.95102.29618-1.02752.45107-.92566.75834 3.0996 4.47678 4.55876 6.93472 4.85886 6.84015z" id="path6984-7-7-1"/><path style="display:inline;fill-opacity:1;fill-rule:evenodd;fill:#000;opacity:1;stroke-dasharray:none;stroke-linecap:butt;stroke-linejoin:miter;stroke-miterlimit:4;stroke-opacity:1;stroke-width:0;stroke:#000" d="m282.45842 458.56662c-.27835.87834-1.09442 7.30349-3.59097 9.21774-.26922.20641-1.13559 1.14752-4.57861.28177-.17398-.0437-1.37228.71664-3.61539.0361-5.82941-1.76869-6.22252-8.10904-6.31915-8.53686 8.23205-5.09165 11.4291-4.00072 18.10412-.99875z" id="path6986-5-1-6"/><path style="display:inline;fill-opacity:1;fill-rule:evenodd;fill:#333;opacity:1;stroke-dasharray:none;stroke-linecap:butt;stroke-linejoin:miter;stroke-miterlimit:4;stroke-opacity:1;stroke-width:0;stroke:#000" d="m282.65569 458.4011c-.78318 1.88787-2.10206 7.06063-4.59684 8.84104-1.21608.86786-3.67141-.009-3.92314-.0331-.29372-.0276-.96753.96577-3.15689.31564-4.33861-1.28834-5.1633-4.97917-6.6404-7.92987 7.24395-6.87766 11.19968-9.59173 18.31727-1.19371z" id="path6988-2-6-0"/><path id="path6990-8-4-6" d="m294.61918 212.22372c-.007-.12767 3.40968-15.95979 3.4731-16.12296.0.0-8.18628-2.94035-8.32115-2.77739-.45775.5531-2.1335 1.22971-2.47098 1.71032-.21864.31136-.42508 2.47695-.77782 3.3137.0939.19018 8.09685 13.87633 8.09685 13.87633z" style="display:inline;fill-opacity:1;fill:#00001a;opacity:1;stroke-dasharray:none;stroke-linecap:butt;stroke-linejoin:miter;stroke-miterlimit:4;stroke-opacity:1;stroke-width:0;stroke:#000"/><path id="path6992-9-1-7" d="m294.54036 212.31991c.007-.1269 3.35575-15.9674 3.29143-16.12964.0.0 14.27546-3.08395 14.41225-2.92192.38007.45021 2.74166 1.19411 2.97606 1.43523.22717.23367-.62023 3.29838-.39347 3.60207-.0952.18912-20.28627 14.01426-20.28627 14.01426z" style="display:inline;fill-opacity:1;fill:#00001a;opacity:1;stroke-dasharray:none;stroke-linecap:butt;stroke-linejoin:miter;stroke-miterlimit:4;stroke-opacity:1;stroke-width:0;stroke:#000"/><path id="path6994-3-6-1" d="m321.73469 205.93856c-.0135-.25315-2.19351-6.61269-2.32164-6.93919.0.0 28.25558 7.57122 28.23428 7.96573-.0279.52399 1.81929 5.16395 1.68381 5.31746-.10544.37372-27.59656-6.34401-27.59656-6.34401z" style="display:inline;fill-opacity:1;fill:#00001a;opacity:1;stroke-dasharray:none;stroke-linecap:butt;stroke-linejoin:miter;stroke-miterlimit:4;stroke-opacity:1;stroke-width:0;stroke:#000"/><path style="display:inline;fill-opacity:1;fill-rule:nonzero;fill:#ff0;opacity:1;stroke-dasharray:none;stroke-linecap:butt;stroke-linejoin:round;stroke-miterlimit:4;stroke-opacity:1;stroke-width:0;stroke:#000" d="m290.29736 197.181c0 1.21518-.6739 2.20029-1.5052 2.20029s-1.50521-.9851-1.50521-2.20029.67391-2.20029 1.50521-2.20029 1.5052.98511 1.5052 2.20029z" id="path6996-1-8-0"/><path style="display:inline;fill-opacity:1;fill-rule:nonzero;fill:#ff0;opacity:1;stroke-dasharray:none;stroke-linecap:butt;stroke-linejoin:round;stroke-miterlimit:4;stroke-opacity:1;stroke-width:0;stroke:#000" d="m312.19272 197.49996a1.5052046 2.2002876.0 01-1.5052 2.20029 1.5052046 2.2002876.0 01-1.50521-2.20029 1.5052046 2.2002876.0 011.50521-2.20029 1.5052046 2.2002876.0 011.5052 2.20029z" id="path6998-9-4-3"/><path style="display:inline;fill-opacity:1;fill-rule:nonzero;fill:#ff0;opacity:1;stroke-dasharray:none;stroke-linecap:butt;stroke-linejoin:round;stroke-miterlimit:4;stroke-opacity:1;stroke-width:0;stroke:#000" d="m345.49508 207.99597a1.5052046 1.3164052.0 01-1.5052 1.3164 1.5052046 1.3164052.0 01-1.50521-1.3164 1.5052046 1.3164052.0 011.50521-1.31641 1.5052046 1.3164052.0 011.5052 1.31641z" id="path7000-9-2-1"/><path style="display:inline;fill-opacity:1;fill-rule:nonzero;fill:#ff0;opacity:1;stroke-dasharray:none;stroke-linecap:butt;stroke-linejoin:round;stroke-miterlimit:4;stroke-opacity:1;stroke-width:0;stroke:#000" d="m278.69108 205.03516a1.5052046 1.3164052.0 01-1.5052 1.3164 1.5052046 1.3164052.0 01-1.50521-1.3164 1.5052046 1.3164052.0 011.50521-1.31641 1.5052046 1.3164052.0 011.5052 1.31641z" id="path7002-1-0-3"/></svg>