<svg viewBox="0 0 560 1e3"><path d="m300.27148 121.89692c-4.61537.002-7.85482.4831-9.52929 1.41319-1.11533.6195-2.50977 1.67559-2.3711 1.79611.0887.077 1.74874-.27497 5.25977-1.11627 2.071-.49624 3.86634-.71972 7.32226-.90856 7.27906-.14802 11.9666.67709 17.14258 2.87674.48116.22706.94887.4154 1.03907.41756.43773.0117.0377-.24286-1.25782-.8005-4.86952-2.26106-12.19188-3.85784-17.60547-3.67827z" id="path9404" class="eyebrow_hair"/><path d="m260.88281 125.1335c-.0161.15952.23749.0962 2.41211-.60954 4.01771-1.37244 7.88734-1.25692 11.84961-.60221 1.21883.31997 3.91381 1.32875 4.00391 1.29883.50531-.16775-1.4689-2.01937-2.76647-2.50924-5.70442-1.23288-11.13078.60698-15.49916 2.42216z" id="path9406" class="eyebrow_hair"/></svg>