<svg viewBox="0 0 560 1e3"><path d="m273.6001 78.543222c-15.24126 11.257922-16.4776 30.291048-14.18407 49.410288.11876.99-4.54334 13.69538-4.40716 14.68478-.1372 1.85316 2.3828 4.1698 3.62214 3.8653.87229-1.78491 2.48265-7.23435 2.48265-7.23435-.003 1.30628-3.34086 15.66589-3.17836 16.5605.0859.47313-.91209 2.83412-.0861 4.07241.63909 1.08557 2.54956 2.13889 3.56641 2.00957.8855-1.15959 1.8977-10.85416 2.41432-8.12064 2.39417 12.66803 1.37237 22.14 1.31056 22.98391-.1372 1.87305 4.04459 3.4928 5.47081.76688.20107-.3843 3.95361-13.89948 4.02456-13.9367.12434-.0652 1.26747 8.56853-1.22533 17.89179-.43206 1.61593 4.6957 1.19185 4.87969.66049.0573-.16538 6.29852-21.31754 6.57864-21.43352.25062-.10376-.077 6.50135-.31668 8.99363-.0406.42215 2.60854 2.11216 3.36535.0615 3.9126-10.60159 14.33794-48.57867 15.6406-78.667228 17.73019-7.669877 15.45991-18.583551-11.10845-22.746413-5.58806-.02653-9.64135 1.141836-12.59646 2.938296-3.11733 2.241084-4.07127 1.784616-5.12819 4.114477z" class="hair" id="path1895-7-1"/><path d="m332.37734 80.834208c3.35115 2.509098 5.99271 5.417517 8.04699 8.634258.2179.341212-.6333 2.060893-.42846 2.408935.62396 1.060193 1.8206 1.231604 2.1452 2.305202.33825 1.118721-.20065 3.141962.21229 4.366079.13062.387238 1.57023 1.714058 1.68773 2.107228.42548 1.42369 1.70807 2.312 1.98472 4.00694.17756 1.08784-.61058 2.91226-.48626 4.08953.0238.22544-.70331.95235-.68131 1.18068.12451 1.29274.99151 2.28992.95613 3.31264-.0373 1.07701-.97989 2.18234-.95511 3.69099.003.18715 1.1933 1.31218 1.19568 1.50007.0191 1.50264 1.26638 3.34092 1.24651 4.87717-.0241 1.86598-1.32362 3.43491-1.39022 5.30907-.0342.96359 4.33508 13.24594 4.20515 14.20287.13091 1.79234-2.27358 4.03296-3.45611 3.73845-.8323-1.72633-2.36885-6.99694-2.36885-6.99694.003 1.26341 3.18772 15.15178 3.03267 16.01703-.082.4576.87028 2.74111.0822 3.93876-.60979 1.04995-2.43269 2.0687-3.40293 1.94363-.84491-1.12154-1.81071-10.49795-2.30365-7.85414-2.28442 12.25229-1.30946 21.41342-1.25048 22.22963.13091 1.81158-3.8592 3.37818-5.22004.74172-.19185-.37169-3.77238-13.44334-3.84008-13.47934-.11864-.0631-1.20937 8.28734 1.16916 17.30464.41226 1.56289-4.48045 1.15273-4.65601.63881-.0547-.15995-6.0098-20.61797-6.27708-20.73013-.23913-.10036.0735 6.28799.30216 8.69848.0387.4083-2.48897 2.04285-3.21108.0595-3.73326-10.25367-13.68071-46.98445-14.92366-76.085588-16.91746-7.41818-14.75125-17.9737 10.59925-21.99995 5.33191-.0257 9.19941 1.10436 12.01906 2.84187 2.97443 2.16754 4.95808 4.7485 5.96655 7.0019z" class="hair" id="path1895-1"/><path d="m303.23664 92.103742c12.68266 5.526365 24.31928-8.247198 23.40292-19.797398-.014-.177092 1.94564-1.166209 2.10321-1.278841 1.08777-.777539 1.00228-3.554798-.43724-3.749452-.20877-.02823-2.9096.166359-3.00157-.02396-.0588-.121602 2.51178-3.073088 2.53654-3.206252.225-1.210316-1.03425-2.233498-2.73901-2.337586-.13036-.008-2.94452 1.418434-3.04441 1.332194-.0993-.0857-.26075-.939279-.25881-1.071841.0164-1.11963-4.23245-2.671668-5.31857-2.458284-.13834.02718-.6898.202265-.82691.161236-.40937-.03049-2.14621-3.314567-2.46511-3.55727-1.70375-1.296686-5.50085-.634343-6.68203 1.526208-.25121.459497.26332 3.276112-.21398 3.471598-.23244.0952-11.011-11.65832-11.25199-11.723235-1.30027-.350244-3.71475 4.52272-2.01683 6.529374.16434.194226 7.86841 8.450702 7.67521 8.614881-.16847.14317-3.85856-2.105046-4.07786-2.082661-1.13736.116099-2.36706 1.944144-1.91575 3.561752.0872.312456 2.47725 2.281159 2.28845 2.542836-6.64439 9.209172-5.91229 22.379121 6.24374 23.546701z" class="hair" id="path1895-1-0-2"/><path d="m307.33186 90.322943c3.35115 2.5091 5.99271 5.41752 8.04699 8.63426.2179.34121-.6333 2.060887-.42846 2.408927.62396 1.0602 1.8206 1.23161 2.1452 2.3052.33825 1.11873-.20065 3.14197.21229 4.36608.13062.38724 1.57023 1.71406 1.68773 2.10723.42548 1.42369 1.70807 2.312 1.98472 4.00694.17756 1.08784-.61058 2.91226-.48626 4.08953.0238.22544-.70331.95235-.68131 1.18068.12451 1.29274.99151 2.28992.95613 3.31264-.0373 1.07701-.97989 2.18234-.95511 3.69099.003.18715 1.1933 1.31218 1.19568 1.50007.0191 1.50264 1.26638 3.34092 1.24651 4.87717-.0241 1.86598-1.32362 3.43491-1.39022 5.30907-.0342.96359 4.33508 13.24594 4.20515 14.20287.13091 1.79234-2.27358 4.03296-3.45611 3.73845-.8323-1.72633-2.36885-6.99694-2.36885-6.99694.003 1.26341 3.18772 15.15178 3.03267 16.01703-.082.4576.87028 2.74111.0822 3.93876-.60979 1.04995-2.43269 2.0687-3.40293 1.94363-.84491-1.12154-1.81071-10.49795-2.30365-7.85414-2.28442 12.25229-1.30946 21.41342-1.25048 22.22963.13091 1.81158-3.8592 3.37818-5.22004.74172-.19185-.37169-3.77238-13.44334-3.84008-13.47934-.11864-.0631-1.20937 8.28734 1.16916 17.30464.41226 1.56289-4.48045 1.15273-4.65601.63881-.0547-.15995-6.0098-20.61797-6.27708-20.73013-.23913-.10036.0735 6.28799.30216 8.69848.0387.4083-2.48897 2.04285-3.21108.0595-3.73326-10.25367-13.68071-46.98445-14.92366-76.08559-16.91746-7.418177-14.75125-17.973697 10.59925-21.999947 5.33191-.0257 9.19941 1.10436 12.01906 2.84187 2.97443 2.16754 4.95808 4.7485 5.96655 7.0019z" class="hair" id="path1895-1-9"/></svg>