<svg viewBox="0 0 560 1e3"><path d="m270.68829 455.8303c.0155-.14057 1.32721-.4225 2.15548.45155.64072.63991.78208 1.93606-.0764 2.62377-.71796.70323-1.84249.579-2.49873.0797-.8438-.73349-.78208-1.93606-.70404-1.99858.0781-.0625.21942 1.23363 1.03176 1.60794.48422.12464 1.12453.12424 1.45225-.2664.48381-.51568.49894-1.29656.18635-1.6868-.48462-.76495-1.62468-.74861-1.54663-.81113z" class="steel_piercing" id="XMLID_528_"/><path d="m268.94351 457.18272c.0964.0264.35758 1.34243-.58204 2.12161-.66737.54278-1.93044.61106-2.61318-.30211-.61276-.79027-.41818-1.87753.17921-2.5432.72029-.73565 2.02688-.5846 2.00043-.48816-.0265.0964-1.26307.0683-1.59761.90975-.20226.35929-.19458 1.08726.20824 1.50885.37636.51803 1.20077.53681 1.69234.25688.7109-.32345.61617-1.49008.71261-1.46362z" class="steel_piercing" id="XMLID_529_"/><path d="m269.25168 461.40654c.1.0.8 1.2.3 2.2-.4.8-1.6 1.2-2.6.7-.9-.5-1.1-1.6-.7-2.4.4-1 1.7-1.2 1.7-1.2.1.1-1.2.5-1.2 1.4-.1.4.2 1.1.7 1.3.6.3 1.3.1 1.7-.4.5-.5.0-1.6.1-1.6z" class="steel_piercing" id="XMLID_530_"/><path d="m271.40009 460.40422c.0258-.13906 1.38026-.46355 2.19402.19051.67469.62832.80348 1.87468.0928 2.60603-.65407.81376-1.79228.74683-2.41032.20091-.89616-.59741-.80348-1.87467-.80348-1.87467.0824-.0567.35024 1.21545 1.15884 1.509.47383.15965 1.13821.0669 1.43691-.38115.38111-.50473.31414-1.30817.0309-1.72019-.50989-.74163-1.782-.47379-1.6996-.53044z" class="steel_piercing" id="XMLID_531_"/><path d="m273.13141 464.47745c-.0153-.1406 1.18904-.84036 2.23426-.38483.8267.40813 1.30794 1.56503.83714 2.46966-.47079.90463-1.58029 1.16734-2.25113.88454-1.02996-.31494-1.30793-1.56503-1.30793-1.56503.0627-.0779.68449 1.0637 1.54333 1.11271.49971.0169 1.1095-.26271 1.26696-.77769.22014-.59291-.0747-1.34328-.38643-1.59394-.84196-.54873-1.85827-.0828-1.9362-.14542z" class="steel_piercing" id="XMLID_532_"/><path d="m270.60667 464.80837c.0922-.0387 1.20166.79751 1.12705 1.91305-.0597.89243-1.0118 1.72518-2.12734 1.65057-1.02332-.11321-1.63296-1.05045-1.57327-1.94288-.0176-1.07689 1.10403-1.76384 1.10403-1.76384.13088.0536-.91347.92497-.56559 1.75503.0624.40756.60964.9372 1.14809.92838.66932.0448 1.23761-.41026 1.41325-1.02601.17561-.61576-.61845-1.47564-.52622-1.5143z" class="steel_piercing" id="XMLID_533_"/></svg>