<svg viewBox="0 0 560 1e3"><path style="display:inline;fill-opacity:1;fill-rule:evenodd;fill:#000;stroke-dasharray:none;stroke-linecap:butt;stroke-linejoin:miter;stroke-miterlimit:4;stroke-opacity:0;stroke-width:3.10714054;stroke:#000" d="m345.4742 215.07561c-2.36763-3.9611-5.54697-5.55018-2.40748-5.89858 8.38874-.93095 34.71234 8.16419 37.24437 13.34241-.15544-.0151 14.22429 17.30588 20.766 57.07526-13.71763 12.885-27.49169 12.37396-31.43372 13.95483-6.655-20.82571-23.85531-78.04803-24.16917-78.47392z" id="path5133"/><path style="display:inline;fill-opacity:1;fill-rule:evenodd;fill:#502;stroke-dasharray:none;stroke-linecap:butt;stroke-linejoin:miter;stroke-miterlimit:4;stroke-opacity:0;stroke-width:3;stroke:#000" d="m347.79149 214.93549c-2.23963-3.9037-5.24707-5.46975-2.27732-5.81311 7.93519-.91744 32.83557 8.04588 35.2307 13.14906-.15531-.0157 12.45493 18.09166 19.54173 56.83948-11.17164 9.01883-21.51128 11.29094-30.12822 12.57176-5.55473-18.09169-22.09594-76.36414-22.36689-76.74719z" id="path5135"/></svg>