<svg viewBox="0 0 560 1e3"><path style="display:inline;fill-opacity:1;fill-rule:evenodd;fill:#000;opacity:1;stroke-dasharray:none;stroke-linecap:butt;stroke-linejoin:miter;stroke-miterlimit:4;stroke-opacity:1;stroke-width:0;stroke:#000" d="m368.45236 268.83602c.40069 1.40387-1.73379 14.71217-8.92285 39.59169-48.5907-8.54713-117.83165-10.20685-120.48728-5.51043-2.77185-14.53889-3.13184-30.77759 2.92719-51.31776 22.06237-.31122 74.78796-6.18104 122.21479 15.99173z" id="path4403"/><path style="display:inline;fill-opacity:1;fill-rule:evenodd;fill:#221c24;opacity:1;stroke-dasharray:none;stroke-linecap:butt;stroke-linejoin:miter;stroke-miterlimit:4;stroke-opacity:1;stroke-width:0;stroke:#000" d="m368.47602 268.56519c-.47811 3.70196-4.19922 19.78782-9.96813 38.27983-54.21754-9.25997-112.61958-9.3751-118.99805-4.84714-.51433-2.42647-.90629-4.8009-1.07598-7.19386-1.01459-11.44597-.13881-26.49203 2.11025-35.52664.14512-.56508 1.51742-7.1576 1.62597-7.60304 54.64557-8.60378 92.86034-2.93804 126.30594 16.89085z" id="path4405"/><path id="path1760-5-40" d="m350.44891 411.28161c-41.34356 12.40411-56.35277 29.50718-67.32299 47.0649-1.04023 1.75909-1.92047 7.35117-4.50173 9.70959-.97785.89343-3.70051-.0277-4.03805.0431-.91345.19159-2.09488.29968-2.84109.24274-1.3589-.10369-3.10427-.97079-4.62926-2.64607-1.15035-1.26373-2.1753-2.98733-2.81436-5.19001-8.27893-10.93923-27.60352-39.54369-38.34145-47.86102.0176-.005-.05-.20603.59439-1.93851 16.6623 12.87869 26.04641 28.55393 42.32336 28.99216 18.31235-.0725 28.69369-13.91735 80.95827-30.20977.0.0.63138 1.78415.61291 1.79289z" style="display:inline;fill-opacity:1;fill-rule:evenodd;fill:#221c24;opacity:1;stroke-dasharray:none;stroke-linecap:butt;stroke-linejoin:miter;stroke-miterlimit:4;stroke-opacity:1;stroke-width:0;stroke:#000"/><path id="path1781-9-2" d="m282.94456 458.76549c-.0483.15247-.11284.47208-.19954.90622-.41277 2.06685-1.81439 6.53069-3.87757 8.11265-.26921.20642-1.13559 1.14752-4.57861.28177-.17398-.0437-2.18026 1.1699-4.2783.12449-4.65827-2.32112-6.22252-8.10904-6.31915-8.53686 3.82592 9.08132 8.89939 9.3147 10.40315 7.55401 5.26837 2.79873 7.50839-4.81217 8.85002-8.44228z" style="display:inline;fill-opacity:1;fill-rule:evenodd;fill:#000;opacity:1;stroke-dasharray:none;stroke-linecap:butt;stroke-linejoin:miter;stroke-miterlimit:4;stroke-opacity:1;stroke-width:0;stroke:#000"/></svg>