<svg viewBox="0 0 560 1e3"><path id="path4770-6-1-3-8-0" class="hair" d="m300.78993 82.178141c1.1485-.185046 15.64391-4.741555 16.7945-4.916573.90939-.138369-5.50242 3.735101-4.71419 3.310283.16313-.08793 1.1012-.31661 1.1012-.31661 1.04687-.23501 8.20002-2.656282 12.9843-4.725709 2.02531-.876049 2.81906-.119954 2.81027.160286-.0999 3.175645-4.92719 3.448906-3.87687 3.315311 3.64604-.463719 1.62448-.476787 5.08395-.913714 14.83517-1.873684 22.67504-12.578633 22.67201-12.452776-.12663 5.269299-9.5499 15.731288-9.757 16.060381-.11907.189275 19.06032-4.614944 37.61623-.06334.11083.02717-18.73923.757011-31.22699 4.049766-9.03317 2.381851-8.01435 2.452323-8.05123 2.531174-.0787.168051 8.80103 2.315755 18.50114 11.249181.037.03419-8.29148-3.700406-12.9071-4.505487-6.58291-1.148271-10.35891.565606-12.09209 1.209611-23.36207-1.110856-28.76259-12.36859-34.93813-13.991792z"/><path id="path4770-6-1-3-2-1" class="hair" d="m310.08489 65.01501c.98921.589842 15.13064 6.443439 16.1139 7.041778.77715.472872-6.8639-.785527-5.96286-.594031.18649.03964 1.05226.465846 1.05226.465846.95114.490126 8.05846 3.255015 13.14773 4.781942 2.1544.64639 5.59893.654249 5.38338.849437-2.44267 2.211866-9.64432.404271-8.76625.969211 3.048 1.961137 1.55953.680249 4.4493 2.543232 12.39213 7.988966 26.18707 5.252313 26.09095 5.340557-4.0241 3.694702-18.81134 5.261375-19.21029 5.366836-.22941.06073 17.56815 8.682992 27.92525 23.614582.0618.0891-14.4526-11.24442-26.16352-16.740448-8.47119-3.975616-7.7687-3.284319-7.85483-3.251036-.18356.07095 4.79527 7.194424 5.32087 19.694504.002.0477-3.38488-7.86573-6.20508-11.34555-4.02222-4.963009-8.09905-6.110434-9.86386-6.739265C309.05639 81.522576 313.45095 70.061983 310.08489 65.01501z"/><path id="path4770-6-1-3-2-0-4-1" d="M334.02014 99.445882C319.17299 111.73661 296.128 90.11191 315.12878 71.875428c19.35528-9.094466 33.34903 13.815823 18.89136 27.570454z" style="display:inline;fill:#fac;opacity:1"/><path class="hair" id="path1797" d="m305.87891 66.603516c-7.13671-.023-14.51544 2.031413-21.09384 5.605911-1.78686.970929-3.51468 2.054011-5.16256 3.238077-1.86907 1.343006-3.63531 2.815927-5.26822 4.402463-10.81186 11.773314-12.78675 20.673293-14.79744 33.797363-.0752.63795 2.33235-3.78973 2.2727-3.13914-.25946 2.82961-.77972 4.55948-.76119 7.62267.0655.65721-.91013 5.25301-.89063 6.00195.0116.44615 1.0313-2.98051 1.0293-2.50586-.007 1.77104-.53821 4.44722-.66601 6.51563-.0243.39252-1.41902 4.59036-1.44532 4.99023-.0231.3505 1.32293-2.87686 1.29883-2.52148-.24824 3.66194-.88301 6.52486-.94531 10.22461-.0156.92393-.50929 8.93975-.49219 9.83789.0182.95728 1.73754-5.17456 1.80274-4.25977.20397 2.86294-.0185 8.78531.29492 11.10352.72091 5.33284 10.79642 26.98861 10.89062 27.16406-3.24952-14.76402-7.20563-28.22504-8.20703-42.17969-.27607-3.84705 1.4707-11.62109 1.4707-11.62109.63621-1.92837 4.34426-11.9496 5.53907-14.85355.0.0-7.29488 2.27547-8.59773 5.57082-1.33046 3.36514-6.18764 21.26429-6.02044 21.17527.27322-.0922 13.17168-24.21795 16.17833-29.03792 2.76159-4.42712 5.23488-12.50423 5.49864-12.50805.0918.86336-2.01045 11.66149 8.09135 22.0917.17335.17899-3.63097-6.5043-4.52662-9.45791-.8655-2.85422-1.06458-5.90076-.94373-5.66873 2.70524 5.19409 7.69152 11.95684 15.84689 16.27191-4.71436-4.58635-10.72319-10.16438-12.087-13.97695 5.34851 6.16641 14.99536 13.70931 27.67657 21.11632-2.65485-2.82258-16.13173-24.81232-15.72544-29.1812.77613.74536 5.8744 13.94993 15.63169 24.25432.11258.11889-2.59136-5.36291-3.46274-8.05041-1.61518-4.98151-1.95172-8.73846-1.81565-8.4565 4.89354 10.14021 14.90126 28.56658 20.98918 50.47027 6.21396-25.10921 3.01426-45.99627.12933-50.03506-.54075-.75703-14.4415-.54126-14.25502-.5006 3.23858 3.83679 3.06731 7.05789 3.35332 8.89338 2.33945 35.84046-7.52202 49.54911-11.6875 66.64648 16.47535-16.66719 29.55846-40.90418 33.42188-62.47461 10.49937-28.060589.42437-37.407169-1.68359-41.134764-5.27966-7.985402-13.25637-13.670675-27.25782-15.236328-1.19735-.127421-2.40647-.191391-3.62304-.195312z"/><path id="path4770-6-1-3-2-0-1" class="hair" d="m326.49154 59.0674c.3791 1.087534 7.45525 14.658556 7.82433 15.74878.29175.861661-4.75526-5.011739-4.18781-4.286113.11745.150189.50708 1.033023.50708 1.033023.41398.986659 4.08413 7.671615 7.00315 12.111381 1.23568 1.879459 3.87024 4.098451 3.57966 4.109546-3.2929.12568-7.65036-5.886288-7.34043-4.889242 1.07579 3.461077.75807 1.523229 1.77567 4.807428 4.36374 14.083557 16.69325 20.849097 16.56291 20.854967-3.12057.14066-8.49083-2.5127-12.58759-4.84365-3.06794-1.74557 1.57832 2.56467 1.41839 2.48952-.21479-.10092 5.45495-6.546666-3.73516 29.70354-.62693-17.67329-2.58649-11.17974-9.70614-17.42892-3.93747-8.48899-.46827-19.257916-.55566-19.287752-.18624-.06356-.94741 8.594002-8.57544 18.510742-.0292.0378 2.45951-8.20231 2.53399-12.68084.10623-6.387365-2.28075-9.885866-3.22916-11.501571-2.6814-22.461544 8.04921-28.420688 8.71221-34.450839z"/></svg>