<svg viewBox="0 0 560 1e3"><path style="display:inline;fill-rule:evenodd;fill:none;stroke-dasharray:none;stroke-linecap:round;stroke-linejoin:miter;stroke-miterlimit:3.85714293;stroke-opacity:1;stroke-width:3;stroke:#c8c8c8" d="m281.12 204.097c3.85861 10.06231 38.10313 10.675 43.05604-.38226" id="path4778"/><path style="display:inline;fill:none;stroke-dasharray:none;stroke-linecap:butt;stroke-linejoin:miter;stroke-miterlimit:4;stroke-opacity:1;stroke-width:3;stroke:#c8c8c8" d="m283.20925 457.85928c-10.24818-3.65074-12.19771-8.47811-13.14205-9.13293-3.48868-2.41906-25.29434-31.62162-35.93034-37.68891" id="path4780"/><path style="display:inline;fill:none;stroke-dasharray:none;stroke-linecap:butt;stroke-linejoin:miter;stroke-miterlimit:4;stroke-opacity:1;stroke-width:3;stroke:#c8c8c8" d="m262.61148 457.66092c.0971-.0743.39896-.14737.48137-.44924.65805-2.41031 8.31304-12.2898 15.48987-17.60178.1214-.0898 31.92814-23.95594 52.99727-31.64452" id="path4782"/><path style="display:inline;fill:none;stroke-dasharray:none;stroke-linecap:butt;stroke-linejoin:miter;stroke-miterlimit:4;stroke-opacity:1;stroke-width:3;stroke:#c8c8c8" d="m345.69741 401.15953c-27.24808 14.19379-55.9419 22.0963-78.2342 20.34786-12.10128-.94914-22.19066-5.48488-39.73776-13.36417" id="path4784"/><path style="display:inline;fill:none;stroke-dasharray:none;stroke-linecap:round;stroke-linejoin:miter;stroke-miterlimit:4;stroke-opacity:1;stroke-width:3;stroke:#c8c8c8" d="M339.64498 404.35656c-14.24992-28.99875-42.70268-33.26156-56.97423-84.34993" id="path4786"/><path style="display:inline;fill:none;stroke-dasharray:none;stroke-linecap:round;stroke-linejoin:miter;stroke-miterlimit:4;stroke-opacity:1;stroke-width:3;stroke:#c8c8c8" d="m236.63109 380.71548c.39694-.61873 5.39274-8.2532 5.95569-9.25626 6.74872-12.02481 24.26959-49.12713 24.81539-50.42401" id="path4788"/><path style="display:inline;fill:none;stroke-dasharray:none;stroke-linecap:round;stroke-linejoin:miter;stroke-miterlimit:4;stroke-opacity:1;stroke-width:3;stroke:#c8c8c8" d="m312.23883 372.94157c-5.95666 8.4575-23.51421 11.68169-33.39131 2.81793" id="path4790"/><path style="display:inline;fill:none;stroke-dasharray:none;stroke-linecap:round;stroke-linejoin:miter;stroke-miterlimit:3.85714293;stroke-opacity:1;stroke-width:3;stroke:#c8c8c8" d="m298.13354 211.59436c-7.44225 19.17136-32.15183 16.3733-46.0788 43.24406" id="path4792"/><path style="display:inline;fill:none;stroke-dasharray:none;stroke-linecap:round;stroke-linejoin:miter;stroke-miterlimit:4;stroke-opacity:1;stroke-width:3;stroke:#c8c8c8" d="m299.24078 212.29201c-.75475 3.85886-14.89245 14.64367-18.59792 35.90804" id="path4794"/><path style="display:inline;fill:none;stroke-dasharray:none;stroke-linecap:round;stroke-linejoin:miter;stroke-miterlimit:3.85714293;stroke-opacity:1;stroke-width:3;stroke:#c8c8c8" d="m280.38868 304.77319c.006-1.50878 22.27835-17.45073 31.40589-48.11945" id="path4796"/><path style="display:inline;fill:none;stroke-dasharray:none;stroke-linecap:round;stroke-linejoin:miter;stroke-miterlimit:3.85714293;stroke-opacity:1;stroke-width:3;stroke:#c8c8c8" d="m367.66589 260.65774c-7.79427 1.12077-47.73905 6.517-55.93564-3.99915" id="path4798"/><path style="display:inline;fill:none;stroke-dasharray:none;stroke-linecap:round;stroke-linejoin:miter;stroke-miterlimit:3.85714293;stroke-opacity:1;stroke-width:3;stroke:#c8c8c8" d="M267.84589 303.48244c-15.30684-33.68799-15.93074-45.19904-15.9956-47.76026" id="path4800"/><path style="display:inline;fill:none;stroke-dasharray:none;stroke-linecap:round;stroke-linejoin:miter;stroke-miterlimit:4;stroke-opacity:1;stroke-width:3;stroke:#c8c8c8" d="m258.17818 457.64074c.21772-2.84247.63992-27.22453 2.93504-36.30361" id="path4802"/><path style="display:inline;fill:none;stroke-dasharray:none;stroke-linecap:round;stroke-linejoin:miter;stroke-miterlimit:4;stroke-opacity:1;stroke-width:3;stroke:#c8c8c8" d="m251.85496 446.80191c.21772-2.84247.46314-18.3857 2.75826-27.46478" id="path4804"/><path style="display:inline;fill:none;stroke-dasharray:none;stroke-linecap:round;stroke-linejoin:miter;stroke-miterlimit:4;stroke-opacity:1;stroke-width:3;stroke:#c8c8c8" d="m246.45851 438.03262c.21772-2.84247.10959-11.49141 2.40471-20.57049" id="path4806"/><path style="display:inline;fill:none;stroke-dasharray:none;stroke-linecap:round;stroke-linejoin:miter;stroke-miterlimit:4;stroke-opacity:1;stroke-width:3;stroke:#c8c8c8" d="m302.51657 437.11777c.21772-2.84247-.0735-10.57656 2.22165-19.65564" id="path4808"/><path style="display:inline;fill:none;stroke-dasharray:none;stroke-linecap:round;stroke-linejoin:miter;stroke-miterlimit:4;stroke-opacity:1;stroke-width:3;stroke:#c8c8c8" d="m294.11124 448.58637c.21772-2.84247.58186-19.79516 2.87698-28.87424" id="path4810"/><path style="display:inline;fill:none;stroke-dasharray:none;stroke-linecap:round;stroke-linejoin:miter;stroke-miterlimit:4;stroke-opacity:1;stroke-width:3;stroke:#c8c8c8" d="m286.41301 457.93884c.21772-2.84247.90509-27.77263 3.20021-36.85171" id="path4812"/><path style="display:inline;fill:none;stroke-dasharray:none;stroke-linecap:round;stroke-linejoin:miter;stroke-miterlimit:4;stroke-opacity:1;stroke-width:3;stroke:#c8c8c8" d="m279.22996 467.29652c.21772-2.84247.46314-36.50531 2.75826-45.58439" id="path4814"/><path style="display:inline;fill:none;stroke-dasharray:none;stroke-linecap:round;stroke-linejoin:miter;stroke-miterlimit:4;stroke-opacity:1;stroke-width:3;stroke:#c8c8c8" d="m264.69963 467.31797c.21772-2.84247.99347-36.15176 3.28859-45.23084" id="path4816"/><path style="display:inline;fill:none;stroke-dasharray:none;stroke-linecap:round;stroke-linejoin:miter;stroke-miterlimit:4;stroke-opacity:1;stroke-width:3;stroke:#c8c8c8" d="m272.03801 474.07209c.21772-2.84247.90509-42.78088 3.20021-51.85996" id="path4818"/><path style="display:inline;fill:none;stroke-dasharray:none;stroke-linecap:round;stroke-linejoin:miter;stroke-miterlimit:4;stroke-opacity:1;stroke-width:3;stroke:#c8c8c8" d="m309.1374 428.8275c.21772-2.84247 1.8015-11.07656 2.47165-12.65564" id="path4820"/><path style="display:inline;fill:none;stroke-dasharray:none;stroke-linecap:round;stroke-linejoin:miter;stroke-miterlimit:4;stroke-opacity:1;stroke-width:3;stroke:#c8c8c8" d="m241.25612 426.62407c.21772-2.84247 1.05778-5.87313 2.10293-10.45221" id="path4822"/><path style="display:inline;fill:none;stroke-dasharray:none;stroke-linecap:round;stroke-linejoin:miter;stroke-miterlimit:4;stroke-opacity:1;stroke-width:3;stroke:#c8c8c8" d="m339.11336 405.70365c.93383 2.6935 2.76495 10.87614 2.78008 12.59148" id="path4824"/><path style="display:inline;fill:none;stroke-dasharray:none;stroke-linecap:round;stroke-linejoin:miter;stroke-miterlimit:4;stroke-opacity:1;stroke-width:3;stroke:#c8c8c8" d="m224.29488 420.9774c.59863-2.78723 3.27714-10.73293 4.15389-12.20735" id="path4826"/><path style="display:inline;fill:none;stroke-dasharray:none;stroke-linecap:round;stroke-linejoin:miter;stroke-miterlimit:4;stroke-opacity:1;stroke-width:3;stroke:#c8c8c8" d="m232.04487 423.72739c.59863-2.78723 3.27714-10.73293 4.15389-12.20735" id="path4828"/><path style="display:inline;fill:none;stroke-dasharray:none;stroke-linecap:round;stroke-linejoin:miter;stroke-miterlimit:4;stroke-opacity:1;stroke-width:3;stroke:#c8c8c8" d="m330.98836 409.20365c.93383 2.6935 2.76495 10.87614 2.78008 12.59148" id="path4830"/><path style="display:inline;fill:none;stroke-dasharray:none;stroke-linecap:round;stroke-linejoin:miter;stroke-miterlimit:4;stroke-opacity:1;stroke-width:3;stroke:#c8c8c8" d="m320.61336 412.82865c.93383 2.6935 2.76495 10.87614 2.78008 12.59148" id="path4832"/><path style="display:inline;fill:none;stroke-dasharray:none;stroke-linecap:round;stroke-linejoin:miter;stroke-miterlimit:4;stroke-opacity:1;stroke-width:3;stroke:#c8c8c8" d="m344.65597 402.2889c1.70188 2.28705 5.91301 9.5379 6.4442 11.169" id="path4834"/><path style="display:inline;fill:none;stroke-dasharray:none;stroke-linecap:round;stroke-linejoin:miter;stroke-miterlimit:4;stroke-opacity:1;stroke-width:3;stroke:#c8c8c8" d="m262.04275 374.33434c-5.5121 7.48155-19.16909 4.38252-19.4071-2.82223" id="path4836"/><path style="display:inline;fill:none;stroke-dasharray:none;stroke-linecap:round;stroke-linejoin:miter;stroke-miterlimit:4;stroke-opacity:1;stroke-width:3;stroke:#c8c8c8" d="m268.50591 407.75218c-.5898-6.26843 1.12708-22.36639 1.71841-23.77145" id="path4838"/><path style="display:inline;fill:none;stroke-dasharray:none;stroke-linecap:round;stroke-linejoin:miter;stroke-miterlimit:4;stroke-opacity:1;stroke-width:3;stroke:#c8c8c8" d="m262.94975 396.78351c-.5898-6.26843 1.12708-14.76499 1.71841-16.17005" id="path4840"/><path style="display:inline;fill:none;stroke-dasharray:none;stroke-linecap:round;stroke-linejoin:miter;stroke-miterlimit:4;stroke-opacity:1;stroke-width:3;stroke:#c8c8c8" d="m275.76041 397.29607c-.5898-6.26843.0664-13.52755.65775-14.93261" id="path4842"/><path style="display:inline;fill:none;stroke-dasharray:none;stroke-linecap:round;stroke-linejoin:miter;stroke-miterlimit:4;stroke-opacity:1;stroke-width:3;stroke:#c8c8c8" d="m270.3752 365.58931c-.5898-6.26843 1.65741-38.80662 2.24874-40.21168" id="path4844"/><path style="display:inline;fill:none;stroke-dasharray:none;stroke-linecap:round;stroke-linejoin:miter;stroke-miterlimit:4;stroke-opacity:1;stroke-width:3;stroke:#c8c8c8" d="m358.94746 305.95951c-11.95666 5.4575-65.26421 11.18169-74.89131 5.56793" id="path4846"/><path style="display:inline;fill:none;stroke-dasharray:none;stroke-linecap:round;stroke-linejoin:miter;stroke-miterlimit:4;stroke-opacity:1;stroke-width:3;stroke:#c8c8c8" d="m263.69518 311.06719c-7.45666 4.9575-20.51421 1.68169-21.89131.56793" id="path4848"/><path style="display:inline;fill:none;stroke-dasharray:none;stroke-linecap:round;stroke-linejoin:miter;stroke-miterlimit:4;stroke-opacity:1;stroke-width:3;stroke:#969696" d="m264.44388 380.21249c-6.89282-6.74541 4.70409-19.32187 12.11963-11.75287 7.09509 7.60069-2.40288 21.26182-12.11963 11.75287z" id="path4850"/><path style="display:inline;fill:none;stroke-dasharray:none;stroke-linecap:round;stroke-linejoin:miter;stroke-miterlimit:3.85714293;stroke-opacity:1;stroke-width:3;stroke:#c8c8c8" d="m271.42045 255.48644c-7.42366 3.76671-15.02623 2.26335-19.34899.41778" id="path4852"/><path style="display:inline;fill:none;stroke-dasharray:none;stroke-linecap:round;stroke-linejoin:miter;stroke-miterlimit:3.85714293;stroke-opacity:1;stroke-width:3;stroke:#c8c8c8" d="m311.70759 256.81266c-7.17366 2.39171-15.6235 4.54843-23.86155-.14073" id="path4854"/><path style="display:inline;fill:none;stroke-dasharray:none;stroke-linecap:round;stroke-linejoin:miter;stroke-miterlimit:3.85714293;stroke-opacity:1;stroke-width:3;stroke:#c8c8c8" d="m298.91145 213.25876c-14.26547 16.1107 9.3684 22.60445 12.71804 42.94856" id="path4856"/><path style="display:inline;fill:none;stroke-dasharray:none;stroke-linecap:round;stroke-linejoin:miter;stroke-miterlimit:4;stroke-opacity:1;stroke-width:3;stroke:#c8c8c8" d="m251.86558 255.56135c-3.40749 1.54328-10.05083 3.13727-11.67793 2.52351" id="path4858"/><path style="display:inline;fill:none;stroke-dasharray:none;stroke-linecap:round;stroke-linejoin:miter;stroke-miterlimit:4;stroke-opacity:1;stroke-width:3;stroke:#c8c8c8" d="m273.92546 301.85502c-.30879-6.18197 1.84396-25.58576 4.24874-35.96168" id="path4860"/><path style="display:inline;fill:none;stroke-dasharray:none;stroke-linecap:round;stroke-linejoin:miter;stroke-miterlimit:4;stroke-opacity:1;stroke-width:3.76864791;stroke:#969696" d="m266.04769 320.09918c-8.69315-8.44027 5.93275-24.17671 15.28516-14.70591 8.94826 9.51045-3.03049 26.60409-15.28516 14.70591z" id="path4862"/><path style="display:inline;fill:none;stroke-dasharray:none;stroke-linecap:round;stroke-linejoin:miter;stroke-miterlimit:4;stroke-opacity:1;stroke-width:3;stroke:#969696" d="m273.108 262.60272c-6.89282-6.74542 4.70409-19.32188 12.11963-11.75288 7.09509 7.6007-2.40288 21.26183-12.11963 11.75288z" id="path4864"/><path style="display:inline;fill-rule:evenodd;fill:none;stroke-dasharray:none;stroke-linecap:round;stroke-linejoin:miter;stroke-miterlimit:3.85714293;stroke-opacity:1;stroke-width:2.34078074;stroke:#c8c8c8" d="m284.40572 202.34516c3.25263 7.26728 32.11921 7.70978 36.29429-.27609" id="path4866"/></svg>