<svg viewBox="0 0 560 1e3"><path style="display:inline;fill-opacity:0;fill-rule:evenodd;fill:#464646;opacity:1;stroke-dasharray:none;stroke-linecap:butt;stroke-linejoin:miter;stroke-miterlimit:4;stroke-opacity:1;stroke-width:0;stroke:#b4b4b4" d="m368.98779 245.70708c.74981 17.83147.88327 35.8838-10.26396 61.98834-5.94005 13.91038-11.83378 29.37061-11.971 30.82423-.1212 1.28423-1.07414 4.04824-1.56906 5.19241-2.00333 4.63146-2.24433 9.45877-2.56364 10.47541-.21701.69093-.42618 5.26668.24309 21.89796.009.22205.39043 9.73197 1.93125 17.65645 1.43107 7.36004 3.85253 13.2933 3.76087 13.31826-5.42581 1.47735-48.85559 27.92703-58.02635 39.93166-7.38637 6.63395-8.0001 11.55729-11.46035 19.71474-.69101.48961-1.25351 1.37461-2.45161 1.43348-.10623.005-.87162.20225-2.14789-.30906-.0596-.024.0156-.0351-.0386-.0172-1.52005.50006-3.20634.35316-3.28819.33656-1.2746-.25849-2.1816-.73495-3.0197-1.38283-3.38634-2.70096-4.30599-7.64337-4.48394-7.75892-3.51012-2.27913-16.28917-22.10957-18.14176-25.04798-8.36807-13.27278-20.0551-20.66347-20.03893-20.96999.0738-1.39718 8.23595-24.211 9.49239-30.24185 2.81903-13.53105 4.44562-35.89602 4.61293-38.76814.59997-10.3003 1.8885-18.65599 3.21842-26.29468.19246-1.10557-3.07175-16.39525-3.83488-22.93593-1.31138-11.23957.95684-39.73486 6.91256-53.57639 1.28097-2.9771 3.95463-9.82587 7.9352-15.87195 4.54591-6.90477 11.77203-12.48304 12.43505-13.16908.15278-.1581 1.64082-1.43658 3.68147-2.51481 2.53358-1.33868 2.90883-1.33098 3.03038-1.40759 1.87751-1.18339 3.70657-1.95203 3.85474-2.04364 1.23128-.76141 9.55998-3.66831 12.93381-7.83547 2.17664-2.68843 3.58674-6.14944 3.91962-10.95104.001-.0178-.14595-.0925.009-.24727.15206-.15157 18.33673-.94325 18.3798-.76385.44189 1.84074.92001 3.95514 1.53835 6.52084 2.98793 12.39798 26.96899 15.76538 27.74462 15.39694.36617-.17392 4.71125.4926 4.82056.50076 4.89953.36581 13.37071 10.01394 15.53645 13.16601 5.78394 7.15669 6.99949 15.11853 7.30917 23.75362z" id="path1732"/></svg>