<svg viewBox="0 0 560 1e3"><path style="display:inline;fill-opacity:.31372549;fill:#464646;stroke-width:1.13587761" id="path4619" d="m257.44971 421.4239c-2.68562-21.78512 6.78365-43.10889 17.50779-42.98271 8.97636.10562 15.33561 9.25163 13.99155 38.10765-.74286-7.9654-29.21033-13.58801-31.49934 4.87506z"/><path style="display:inline;fill:#000;stroke-width:1.22414088" id="path4621" d="m287.21025 450.16476c.009 3.27419-.43311 12.89859-1.37001 18.7484-7.2706 1.78082-24.41843 1.02055-27.17637-.008.0218.17905-.10397-10.84928-.10397-10.84928-.43767-3.20694-.0588-7.43095 2.75759-7.70397 10.1957-.98836 27.98359-4.80596 25.89276-.18715z"/><path style="fill:#cd87de;stroke-width:1.22414088" id="path4623" d="m287.41985 449.18686c-1.07131 6.20563-.80162 13.16309-2.40744 19.04129-7.2706 1.78082-23.65682.88797-26.41476-.14019.0218.17905-.41275-9.90669-.41275-9.90669.26013-1.78286-1.10111-7.98935.23658-8.46747 9.12301-3.26075 28.18011 2.68713 28.99837-.52694z"/><path id="path4625" d="m257.58591 421.33499c2.89102-23.64708 9.23827-43.67533 17.46562-43.24122 7.80755.41196 12.18512 17.01756 13.7945 38.26509-2.02991-6.40652-28.14006-7.67822-31.26012 4.97613z" class="skin torso"/><path style="display:inline;fill-opacity:1;fill-rule:evenodd;fill:#1a1a1a;opacity:1;stroke-dasharray:none;stroke-linecap:butt;stroke-linejoin:miter;stroke-miterlimit:4;stroke-opacity:1;stroke-width:0;stroke:#000" d="m348.52978 406.0731c.17594.29463.23456.36287.14343.43358-7.58199 5.88234-28.75619 14.08712-52.70049 35.19948-3.28893 2.89995-6.35829 6.64167-8.68925 9.82738-10.61893-1.94186-21.96654-1.55228-29.16287.50099-7.81232-10.86338-21.34158-31.88544-32.66564-38.23247.11113-.0316.41697-.90137.51991-1.06255.0911-.14259.27446.0925.40697.19488 8.62097 6.66128 28.54067 25.66388 34.074 30.5294 9.4967 8.35057 14.46863 4.85299 24.82235-1.55712 12.31913-7.62691 34.81663-23.48552 63.14221-35.95854z" id="path4627"/></svg>