<svg viewBox="0 0 560 1e3"><path id="path7443" d="m341.79404 393.04542c36.98047 34.62004 54.78967 59.26189 49.31081 89.97104-.0756.42371-17.27761-9.91076-19.04775-9.54199-8.07037-19.37381-36.44282-72.61024-30.26306-80.42905z" style="display:inline;fill-opacity:1;fill-rule:evenodd;fill:#000;stroke-dasharray:none;stroke-linecap:butt;stroke-linejoin:miter;stroke-miterlimit:4;stroke-opacity:0;stroke-width:3.37624764;stroke:#000"/><path id="path7445" d="m343.31503 396.62183c35.60547 32.37004 51.09554 55.68779 47.36668 85.89693-.0527.42716-18.54906-8.59381-20.3192-8.22504-8.07038-19.37383-33.22724-69.85308-27.04748-77.67189z" style="display:inline;fill-opacity:1;fill-rule:evenodd;fill:#5f6ea0;stroke-dasharray:none;stroke-linecap:butt;stroke-linejoin:miter;stroke-miterlimit:4;stroke-opacity:0;stroke-width:3.37624764;stroke:#000"/><path style="display:inline;fill-opacity:1;fill:#fff;opacity:1;stroke-dasharray:none;stroke-linecap:butt;stroke-linejoin:miter;stroke-miterlimit:4;stroke-opacity:1;stroke-width:0;stroke:#000" d="m391.23241 471.598c-2.54742.87416-4.93735 1.70327-7.59942 2.48824-.55833-.38127-.14842-.59612-.80541-1.8593 2.82598-.72732 5.8426-1.54138 8.27432-2.31179.1385.43477.116 1.2905.13051 1.68285z" id="path2329-3-0-26-1-4-2"/><path style="display:inline;fill-opacity:1;fill:#fff;opacity:1;stroke-dasharray:none;stroke-linecap:butt;stroke-linejoin:miter;stroke-miterlimit:4;stroke-opacity:1;stroke-width:0;stroke:#000" d="m391.26366 476.1605c-2.54742.87416-4.8436 1.67202-7.50567 2.45699-.55833-.38127.008-.28362-.64916-1.5468 2.82598-.72732 5.68635-1.85388 8.11807-2.62429-.0177.27852.0535 1.2905.0368 1.7141z" id="path2329-3-0-26-1-4-2-7"/></svg>