<svg viewBox="0 0 560 1e3"><path style="display:inline;fill-opacity:.00392157;fill-rule:evenodd;fill:#1a1a1a;stroke-dasharray:none;stroke-linecap:butt;stroke-linejoin:miter;stroke-miterlimit:4;stroke-opacity:0;stroke-width:3.12141943;stroke:#000" d="m343.5428 214.6482c-2.42245-3.90715-5.61652-5.11615-2.46322-5.81823 3.09936-.69007 7.413-.20451 12.63287 2.97209.55364.0366 4.87055-1.08705 7.56308-1.27836 6.52591 1.57616 12.84553 4.24795 16.73057 8.42872 4.32277 3.44635 12.10795 17.13675 20.40765 36.17342 8.01951 18.39403 20.4448 62.6026 18.85735 71.35254-3.71232 20.46204-34.88437 83.56404-55.36851 100.32071-1.60272 1.31108-13.12989-9.85844-14.15688-10.21274 8.15219-10.15268 17.41405-40.44466 25.70126-59.6424 6.4042-14.83565 10.18563-22.99279 14.82592-30.38011-7.41107-26.4051-9.56705-37.44219-14.89943-49.9096-10.49245-13.77934-29.32553-61.34523-29.83066-62.00604z" id="path6027"/><path style="display:inline;fill-opacity:.39215686;fill-rule:evenodd;fill:#f59;stroke-dasharray:none;stroke-linecap:butt;stroke-linejoin:miter;stroke-miterlimit:4;stroke-opacity:0;stroke-width:3;stroke:#000" d="m347.79149 214.93549c-2.23963-3.9037-5.24707-5.46976-2.27732-5.81311 2.34188-.27076 3.97624.42059 8.17242 2.85366.81782-.12479 6.0486-1.32905 7.73226-1.30779 6.34277 1.60335 12.6838 4.37327 16.49759 8.46541 4.19779 3.33636 12.9578 18.68915 20.62372 37.81675 11.74115 29.29591 18.9066 62.82759 17.8714 69.42836-2.80063 17.85775-30.81407 76.37964-53.68621 98.74567-1.4607 1.42838-11.1456-11.82267-12.09508-12.17666 7.53693-10.14373 15.46986-34.91237 23.13163-54.0932 5.92088-14.82258 10.93098-24.10642 15.22107-31.48724-6.61989-23.77062-10.34714-43.66969-15.67838-52.54444-9.70058-13.7672-25.04609-59.22718-25.5131-59.88741z" id="path6029"/></svg>