<svg viewBox="0 0 560 1e3"><path d="M253.7 861.4H267c3.7 3.2 5.2 18.7 2.6 33.1-.4 1.8-.4 24.1-.4 36.9l-3.1.1c-.6-11.2 1.2-24.3-.9-36.9-8.2 7.5-6.7 40.4-12.8 39.5-6 .1-8.6.2-12-.4-10.4-1.9-13.6-14-15-22.7 3.1-5.4 4.4-4.6 10.2-10 7.1-12.3 9.6-22.4 18.1-39.6z" class="shoe" id="XMLID_482_-8"/><path d="M253.7 861.4H267c3.7 3.2 5.2 18.7 2.6 33.1-.4 1.8-.4 24.1-.4 36.9l-3.1.1c-.6-11.2 1.2-24.3-.9-36.9-8.2 7.5-6.7 40.4-12.8 39.5-6 .1-8.6.2-12-.4-10.4-1.9-13.6-14-15-22.7 3.1-5.4 4.4-4.6 10.2-10 7.1-12.3 9.6-22.4 18.1-39.6z" class="shoe" id="XMLID_482_"/><path d="M253.7 861.4H267c3.7 3.2 5.2 18.7 2.6 33.1-.4 1.8-.4 24.1-.4 36.9l-3.1.1c-.6-11.2 1.2-24.3-.9-36.9-8.2 7.5-6.7 40.4-12.8 39.5-6 .1-8.6.2-12-.4-10.4-1.9-13.6-14-15-22.7 3.1-5.4 4.4-4.6 10.2-10 7.1-12.3 9.6-22.4 18.1-39.6z" class="shoe" id="XMLID_482_-0"/><path d="m320.90015 860.8 15.6.1c4.7 13.7 8.6 42.3 9.2 52.3 4.6 4.1 4.9 8.5-2.1 32-2.4 3-11.1 6-20.4.0-7.1-18.7-7.6-24.5-4.1-31.5-.2-7.4-.1-10-1.5-19.5-3.4-15.5 1.9-24.7 3.3-33.4z" class="shoe" id="XMLID_484_-0"/><path d="M253.7 861.4H267c3.7 3.2 5.2 18.7 2.6 33.1-.4 1.8-.4 24.1-.4 36.9l-3.1.1c-.6-11.2 1.2-24.3-.9-36.9-8.2 7.5-6.7 40.4-12.8 39.5-6 .1-8.6.2-12-.4-10.4-1.9-13.6-14-15-22.7 3.1-5.4 4.4-4.6 10.2-10 7.1-12.3 9.6-22.4 18.1-39.6z" class="shoe" id="XMLID_482_-0-1"/><path d="m320.90015 860.8 15.6.1c4.7 13.7 8.6 42.3 9.2 52.3 4.6 4.1 4.9 8.5-2.1 32-2.4 3-11.1 6-20.4.0-7.1-18.7-7.6-24.5-4.1-31.5-.2-7.4-.1-10-1.5-19.5-3.4-15.5 1.9-24.7 3.3-33.4z" class="shoe" id="XMLID_484_-6"/><path d="m320.90015 860.8 15.6.1c4.7 13.7 8.6 42.3 9.2 52.3 4.6 4.1 4.9 8.5-2.1 32-2.4 3-11.1 6-20.4.0-7.1-18.7-7.6-24.5-4.1-31.5-.2-7.4-.1-10-1.5-19.5-3.4-15.5 1.9-24.7 3.3-33.4z" class="shoe" id="XMLID_484_-3"/><path d="m253.7 861.4c.82427-.41546.13707-9.51852.94088-12.54625 1.34193-5.05472 9.32523-3.86509 11.12584.28349 2.05878 4.74339.5463 12.21249 1.23328 12.26276-4.6 22.1-4.7 36.3-19.2 40.2-4.5 1.2-11.3 2.3-12.2-.6 3.6-9.7 14-34.8 18.1-39.6z" class="skin" id="XMLID_483_"/><path d="m320.90015 860.8 15.6.1c4.7 13.7 8.6 42.3 9.2 52.3 4.6 4.1 4.9 8.5-2.1 32-2.4 3-11.1 6-20.4.0-7.1-18.7-7.6-24.5-4.1-31.5-.2-7.4-.1-10-1.5-19.5-3.4-15.5 1.9-24.7 3.3-33.4z" class="shoe" id="XMLID_484_"/><path d="m320.90015 860.8c.80268-.61221-1.68352-5.16443-.8272-11.02212.64874-4.43774 11.77516-3.2879 16.01208.36616.89693.77354-.30939 10.4088.41512 10.75596 4.4 9 8.3 30.6 9.2 52.3-8.7-2.2-19.1-.4-22.8-.2-2.8-3.6-2.7-25.8-2-52.2z" class="skin" id="XMLID_485_"/></svg>