<svg viewBox="0 0 560 1e3"><path id="path7753" d="m332.11641 378.81779c34.5675 37.13805 57.05325 60.60022 61.14101 85.19237.15739.94686-.0201 1.91381-.0922 2.86185-.84329-.15883-23.67786 5.05418-26.93274 6.67209-14.49086-15.68658-33.94492-93.4321-34.11603-94.72631z" style="display:inline;fill-opacity:1;fill-rule:evenodd;fill:#000;stroke-dasharray:none;stroke-linecap:butt;stroke-linejoin:miter;stroke-miterlimit:4;stroke-opacity:0;stroke-width:2.97439027;stroke:#000"/><path id="path7755" d="m330.54529 379.68976c29.16485 29.75771 58.79453 60.20616 62.09242 86.02129-.84329-.15883-22.27398 3.3748-25.52886 4.99271-14.49086-15.68658-36.39245-89.71979-36.56356-91.014z" style="display:inline;fill-opacity:1;fill-rule:evenodd;fill:#c8c8c8;stroke-dasharray:none;stroke-linecap:butt;stroke-linejoin:miter;stroke-miterlimit:4;stroke-opacity:0;stroke-width:2.97439027;stroke:#000"/><path style="fill:#502" id="path7757" d="m389.15898 462.82055c-2.91834 1.15884-21.02021 5.27327-21.3941 5.31994.0711-.41289-.24151.46044.19641-2.12944.44841-.21697 20.29662-4.98938 24.3532-6.34104-.0154.24866-.0142 1.64867-.0177 1.9573z"/></svg>