<svg viewBox="0 0 560 1e3"><path id="path3616-1-9-5" d="m369.34137 406.72495c-57.45727-.71713-92.98754 16.00678-98.54331 15.49138-5.08786-.24546-32.34086-12.42688-49.90773-16.37316" style="display:inline;fill-rule:evenodd;fill:none;stroke-dasharray:none;stroke-linecap:round;stroke-linejoin:miter;stroke-miterlimit:3;stroke-opacity:1;stroke-width:2;stroke:#ffa000"/><path id="path3618-2-2-6" d="m363.1853 423.64808c-.2357.27481-1.48581 1.72424-8.04503-.0461-.3188-.0861-.4378.0547-.47622.11003-1.32966 1.91526-7.28404 7.44997-24.25753 1.83503-.45715-.15123-.90662.21796-1.30967.38501-5.70325 2.36378-5.4148 11.90297-29.543 4.17481-.22981-.0736-.39894.21044-.54035.31931-18.26161 14.05935-24.00606 2.94835-29.39785 2.44816-9.59822 4.83966-16.11328 6.80793-25.59183-5.08079-.0209-.0262-.33689-.7279-.92746-.48621-9.697 3.96859-17.49193-6.94925-19.13064-9.70705" style="display:inline;fill-rule:evenodd;fill:none;stroke-dasharray:none;stroke-linecap:round;stroke-linejoin:miter;stroke-miterlimit:3;stroke-opacity:1;stroke-width:1;stroke:#ffa000"/><path id="path3620-6-1-2" d="m223.23635 420.10032c.0194-.29292 1.03967-1.32614 1.20518-1.77659" style="display:inline;fill-rule:evenodd;fill:none;stroke-dasharray:none;stroke-linecap:round;stroke-linejoin:miter;stroke-miterlimit:3;stroke-opacity:1;stroke-width:1;stroke:#ffa000"/><path id="path3622-6-7-5" d="m225.67061 423.66795c.0194-.29292 1.03967-1.32614 1.20518-1.77659" style="display:inline;fill-rule:evenodd;fill:none;stroke-dasharray:none;stroke-linecap:round;stroke-linejoin:miter;stroke-miterlimit:3;stroke-opacity:1;stroke-width:1;stroke:#ffa000"/><path id="path3624-7-2-9" d="m228.36646 427.55704c.0194-.29292 1.65839-1.98905 1.8239-2.4395" style="display:inline;fill-rule:evenodd;fill:none;stroke-dasharray:none;stroke-linecap:round;stroke-linejoin:miter;stroke-miterlimit:3;stroke-opacity:1;stroke-width:1;stroke:#ffa000"/><path id="path3626-1-0-6" d="m233.66976 430.58434c.19516-.34431.89926-2.15329 1.29357-2.96983" style="display:inline;fill-rule:evenodd;fill:none;stroke-dasharray:none;stroke-linecap:round;stroke-linejoin:miter;stroke-miterlimit:3;stroke-opacity:1;stroke-width:1;stroke:#ffa000"/><path id="path3628-3-8-7" d="m242.42139 430.36369c.19516-.34431.54571-1.79974.94002-2.61628" style="display:inline;fill-rule:evenodd;fill:none;stroke-dasharray:none;stroke-linecap:round;stroke-linejoin:miter;stroke-miterlimit:3;stroke-opacity:1;stroke-width:1;stroke:#ffa000"/><path id="path3630-1-3-1" d="m247.71772 437.80822c.19516-.34431.98321-3.42474 1.37752-4.24128" style="display:inline;fill-rule:evenodd;fill:none;stroke-dasharray:none;stroke-linecap:round;stroke-linejoin:miter;stroke-miterlimit:3;stroke-opacity:1;stroke-width:1;stroke:#ffa000"/><path id="path3632-2-6-6" d="m254.43647 440.99572c.19516-.34431.67071-3.61224 1.06502-4.42878" style="display:inline;fill-rule:evenodd;fill:none;stroke-dasharray:none;stroke-linecap:round;stroke-linejoin:miter;stroke-miterlimit:3;stroke-opacity:1;stroke-width:1;stroke:#ffa000"/><path id="path3634-5-6-8" d="m262.34272 440.27697c.19516-.34431-.14179-3.36224.25252-4.17878" style="display:inline;fill-rule:evenodd;fill:none;stroke-dasharray:none;stroke-linecap:round;stroke-linejoin:miter;stroke-miterlimit:3;stroke-opacity:1;stroke-width:1;stroke:#ffa000"/><path id="path3636-8-1-3" d="m269.43647 436.08947c.19516-.34431.10821-2.04974.25252-3.11628" style="display:inline;fill-rule:evenodd;fill:none;stroke-dasharray:none;stroke-linecap:round;stroke-linejoin:miter;stroke-miterlimit:3;stroke-opacity:1;stroke-width:1;stroke:#ffa000"/><path id="path3638-4-8-6" d="m277.31253 440.05854c.19516-.34431.10821-2.04974.25252-3.11628" style="display:inline;fill-rule:evenodd;fill:none;stroke-dasharray:none;stroke-linecap:round;stroke-linejoin:miter;stroke-miterlimit:3;stroke-opacity:1;stroke-width:1;stroke:#ffa000"/><path id="path3640-2-1-7" d="m285.50003 440.80854c.19516-.34431.10821-2.04974.25252-3.11628" style="display:inline;fill-rule:evenodd;fill:none;stroke-dasharray:none;stroke-linecap:round;stroke-linejoin:miter;stroke-miterlimit:3;stroke-opacity:1;stroke-width:1;stroke:#ffa000"/><path id="path3642-4-4-3" d="m292.75003 439.37104c.19516-.34431.23321-3.04974-.12248-4.11628" style="display:inline;fill-rule:evenodd;fill:none;stroke-dasharray:none;stroke-linecap:round;stroke-linejoin:miter;stroke-miterlimit:3;stroke-opacity:1;stroke-width:1;stroke:#ffa000"/><path id="path3644-5-5-5" d="m299.61412 434.62089c.19516-.34431.23321-3.04974-.12248-4.11628" style="display:inline;fill-rule:evenodd;fill:none;stroke-dasharray:none;stroke-linecap:round;stroke-linejoin:miter;stroke-miterlimit:3;stroke-opacity:1;stroke-width:1;stroke:#ffa000"/><path id="path3646-3-3-2" d="m308.61412 436.68339c.19516-.34431.23321-3.04974-.12248-4.11628" style="display:inline;fill-rule:evenodd;fill:none;stroke-dasharray:none;stroke-linecap:round;stroke-linejoin:miter;stroke-miterlimit:3;stroke-opacity:1;stroke-width:1;stroke:#ffa000"/><path id="path3648-4-6-9" d="m316.92662 437.24589c.19516-.34431.23321-3.04974-.12248-4.11628" style="display:inline;fill-rule:evenodd;fill:none;stroke-dasharray:none;stroke-linecap:round;stroke-linejoin:miter;stroke-miterlimit:3;stroke-opacity:1;stroke-width:1;stroke:#ffa000"/><path id="path3650-1-9-9" d="m324.98911 433.80839c.19516-.34431.0457-2.54974-.30998-3.61628" style="display:inline;fill-rule:evenodd;fill:none;stroke-dasharray:none;stroke-linecap:round;stroke-linejoin:miter;stroke-miterlimit:3;stroke-opacity:1;stroke-width:1;stroke:#ffa000"/><path id="path3652-3-2-1" d="m330.55046 429.43339c.19516-.34431.0457-2.54974-.30998-3.61628" style="display:inline;fill-rule:evenodd;fill:none;stroke-dasharray:none;stroke-linecap:round;stroke-linejoin:miter;stroke-miterlimit:3;stroke-opacity:1;stroke-width:1;stroke:#ffa000"/><path id="path3654-1-6-9" d="m339.30046 431.49589c.19516-.34431.0457-2.54974-.30998-3.61628" style="display:inline;fill-rule:evenodd;fill:none;stroke-dasharray:none;stroke-linecap:round;stroke-linejoin:miter;stroke-miterlimit:3;stroke-opacity:1;stroke-width:1;stroke:#ffa000"/><path id="path3656-3-8-5" d="m346.48796 431.87089c.19516-.34431.0457-2.54974-.30998-3.61628" style="display:inline;fill-rule:evenodd;fill:none;stroke-dasharray:none;stroke-linecap:round;stroke-linejoin:miter;stroke-miterlimit:3;stroke-opacity:1;stroke-width:1;stroke:#ffa000"/><path id="path3658-1-0-5" d="m352.30046 430.74589c.19516-.34431-1.0793-2.48724-1.43498-3.55378" style="display:inline;fill-rule:evenodd;fill:none;stroke-dasharray:none;stroke-linecap:round;stroke-linejoin:miter;stroke-miterlimit:3;stroke-opacity:1;stroke-width:1;stroke:#ffa000"/><path id="path3660-4-8-3" d="m356.57907 427.65214c.19516-.34431-1.0793-2.48724-1.43498-3.55378" style="display:inline;fill-rule:evenodd;fill:none;stroke-dasharray:none;stroke-linecap:round;stroke-linejoin:miter;stroke-miterlimit:3;stroke-opacity:1;stroke-width:1;stroke:#ffa000"/><path id="path3662-7-1-7" d="m361.20407 428.40214c.19516-.34431-1.0793-2.48724-1.43498-3.55378" style="display:inline;fill-rule:evenodd;fill:none;stroke-dasharray:none;stroke-linecap:round;stroke-linejoin:miter;stroke-miterlimit:3;stroke-opacity:1;stroke-width:1;stroke:#ffa000"/><path id="path3664-7-5-6" d="m364.51657 426.96464c.19516-.34431-1.0793-1.48724-1.43498-2.55378" style="display:inline;fill-rule:evenodd;fill:none;stroke-dasharray:none;stroke-linecap:round;stroke-linejoin:miter;stroke-miterlimit:3;stroke-opacity:1;stroke-width:1;stroke:#ffa000"/><path id="path3666-6-8-6" d="m243.31147 427.37072c.19516-.34431.60821-7.92474 1.00252-8.74128" style="display:inline;fill-rule:evenodd;fill:none;stroke-dasharray:none;stroke-linecap:round;stroke-linejoin:miter;stroke-miterlimit:3;stroke-opacity:1;stroke-width:1;stroke:#ffa000"/><circle cy="439.1481" cx="269.71753" class="steel_piercing" id="circle3668-3-0-5" r="4.5"/><path id="path3670-4-5-4" d="m269.74897 432.74572c.19516-.34431.35821-5.67474.75252-6.49128" style="display:inline;fill-rule:evenodd;fill:none;stroke-dasharray:none;stroke-linecap:round;stroke-linejoin:miter;stroke-miterlimit:3;stroke-opacity:1;stroke-width:1;stroke:#ffa000"/><ellipse cy="421.19263" cx="270.76962" class="steel_piercing" id="ellipse3672-9-8-4" rx="7" ry="10"/><circle cy="443.74545" cx="262.19495" class="steel_piercing" id="circle3674-8-7-7" r="4.5"/><path id="path3676-9-7-5" d="m299.49897 430.12072c.19516-.34431-.39179-9.04974.003-9.86628" style="display:inline;fill-rule:evenodd;fill:none;stroke-dasharray:none;stroke-linecap:round;stroke-linejoin:miter;stroke-miterlimit:3;stroke-opacity:1;stroke-width:1;stroke:#ffa000"/><circle cy="444.21771" cx="276.6889" class="steel_piercing" id="circle3678-1-1-1" r="4.5"/><path id="path3680-0-1-0" d="m330.24896 425.62072c.19516-.34431-2.26679-10.04974-1.87248-10.86628" style="display:inline;fill-rule:evenodd;fill:none;stroke-dasharray:none;stroke-linecap:round;stroke-linejoin:miter;stroke-miterlimit:3;stroke-opacity:1;stroke-width:1;stroke:#ffa000"/><circle cy="445.08755" cx="285.26889" class="steel_piercing" id="circle3682-0-2-5" r="4.5"/><path id="path3684-1-8-5" d="m354.82712 423.74572c.19516-.34431-2.57929-10.17474-2.18498-10.99128" style="display:inline;fill-rule:evenodd;fill:none;stroke-dasharray:none;stroke-linecap:round;stroke-linejoin:miter;stroke-miterlimit:3;stroke-opacity:1;stroke-width:1;stroke:#ffa000"/><circle cy="442.71625" cx="293.59882" class="steel_piercing" id="circle3686-5-2-0" r="4.5"/><path id="path3688-3-8-2" d="m223.7402 417.29532c.19516-.34431 2.46436-3.32855 2.85867-4.14509" style="display:inline;fill-rule:evenodd;fill:none;stroke-dasharray:none;stroke-linecap:round;stroke-linejoin:miter;stroke-miterlimit:3;stroke-opacity:1;stroke-width:1;stroke:#ffa000"/><circle cy="436.80197" cx="300.10556" class="steel_piercing" id="circle3690-4-9-8" r="4.5"/><circle cy="439.18954" cx="308.53906" class="steel_piercing" id="circle3692-7-5-1" r="4.5"/><circle cy="440.12891" cx="317.09753" class="steel_piercing" id="circle3694-5-2-2" r="4.5"/><circle cy="437.72357" cx="325.28104" class="steel_piercing" id="circle3696-0-5-7" r="4.5"/><circle cy="431.59854" cx="330.96457" class="steel_piercing" id="circle3698-3-0-0" r="4.5"/><circle cy="444.45062" cx="253.58946" class="steel_piercing" id="circle3700-6-3-8" r="4.5"/><circle cy="434.45062" cx="232.96448" class="steel_piercing" id="circle3702-2-4-7" r="4.5"/><circle cy="433.57562" cx="241.46448" class="steel_piercing" id="circle3704-9-7-8" r="4.5"/><circle cy="440.70062" cx="245.96448" class="steel_piercing" id="circle3706-2-6-0" r="4.5"/><ellipse cy="457.69293" cx="222.11871" class="steel_piercing" id="ellipse3708-3-0-8" rx="7" ry="10" transform="rotate(-10.024652)"/><ellipse cy="485.68515" cx="188.23273" class="steel_piercing" id="ellipse3710-2-1-2" rx="7" ry="10" transform="rotate(-17.507551)"/><ellipse cy="312.60837" cx="363.74295" class="steel_piercing" id="ellipse3712-4-6-9" rx="7" ry="10" transform="rotate(18.434795)"/><ellipse cy="466.76505" cx="341.07669" class="steel_piercing" id="ellipse3714-1-2-3" rx="3.8993185" ry="11.067118" transform="matrix(0.99058316,-0.13691238,-0.22991978,0.97320958,0,0)"/><path class="steel_piercing" id="path3716-4-7-9" transform="matrix(0.98689684,-0.16135246,0.29903873,0.95424097,0,0)" d="m220.8327 461.95523a5.584075 10.220964.0 01-5.56772 10.22092 5.584075 10.220964.0 01-5.60033-10.16107 5.584075 10.220964.0 015.53493-10.28042 5.584075 10.220964.0 015.63274 10.10087"/><ellipse cy="304.71436" cx="379.88785" class="steel_piercing" id="ellipse3718-8-7-9" rx="3.25" ry="4.5" transform="rotate(23.583121)"/><ellipse cy="334.91016" cx="405.88184" class="steel_piercing" id="ellipse3720-2-5-0" rx="1.3713783" ry="5.3589725" transform="matrix(0.9460643,0.32397892,-0.48625957,0.87381441,0,0)"/><ellipse cy="337.91675" cx="409.8335" class="steel_piercing" id="ellipse3722-1-2-7" rx="2.3335655" ry="4.9708085" transform="matrix(0.94643691,0.32288881,-0.48765793,0.87303479,0,0)"/><circle cy="433.87497" cx="339.12503" class="steel_piercing" id="circle3724-5-2-3" r="4.5"/><ellipse cy="529.38922" cx="168.46951" class="steel_piercing" id="ellipse3726-5-3-3" rx="3.1875" ry="4.5" transform="rotate(-20.975779)"/><ellipse cy="531.02057" cx="174.4707" class="steel_piercing" id="ellipse3728-4-2-1" rx="3.1875" ry="4.5" transform="rotate(-20.975779)"/><ellipse cy="560.08337" cx="117.66714" class="steel_piercing" id="ellipse3730-5-9-8" rx="2.731339" ry="4.4112439" transform="matrix(0.82273256,-0.56842865,0.46444683,0.885601,0,0)"/><ellipse cy="595.09979" cx="111.13579" class="steel_piercing" id="ellipse3732-4-2-5" rx="2.1979663" ry="4.0616369" transform="matrix(0.61972803,-0.78481665,0.49235617,0.87039382,0,0)"/><ellipse cy="597.31372" cx="115.02454" class="steel_piercing" id="ellipse3734-3-0-7" rx="2.1979663" ry="4.0616369" transform="matrix(0.61972803,-0.78481665,0.49235617,0.87039382,0,0)"/><path id="path3736-4-0-8" d="m368.72007 361.6015c-.21128.10913-16.8903 11.34083-42.82418 9.50272-15.88099 7.93986-36.15312 8.34515-54.68516-.66373-.22037.29902-23.43296 8.77932-28.9891 1.0912-.24612-.34057-21.34085-8.74472-21.51415-9.15086" style="display:inline;fill-rule:evenodd;fill:none;stroke-dasharray:none;stroke-linecap:round;stroke-linejoin:miter;stroke-miterlimit:3;stroke-opacity:1;stroke-width:2;stroke:#ffa000"/><path id="path3738-7-2-5" d="m289.20473 377.13207c-16.18117 18.53347-21.95799 21.07463-34.11355-.009" style="display:inline;fill-rule:evenodd;fill:none;stroke-dasharray:none;stroke-linecap:round;stroke-linejoin:miter;stroke-miterlimit:3;stroke-opacity:1;stroke-width:1;stroke:#ffa000"/><path id="path3740-5-0-9" d="m254.82089 376.68415c-16.18117 18.53347-34.70062-2.18146-36.07281-4.88031" style="display:inline;fill-rule:evenodd;fill:none;stroke-dasharray:none;stroke-linecap:round;stroke-linejoin:miter;stroke-miterlimit:3;stroke-opacity:1;stroke-width:1;stroke:#ffa000"/><path id="path3742-4-3-7" d="m289.11557 376.86093c14.57798 18.00314 27.71627 12.76612 32.53126-3.72132" style="display:inline;fill-rule:evenodd;fill:none;stroke-dasharray:none;stroke-linecap:round;stroke-linejoin:miter;stroke-miterlimit:3;stroke-opacity:1;stroke-width:1;stroke:#ffa000"/><path style="display:inline;fill:#787878;stroke-width:3.74999905" d="m275.67548 371.64722c-1e-5.33659-4.31336 6.18535-4.5 6.26777-.14153.0625-4.49998-5.77493-4.5-6.26777-1e-5-.27409 4.29597-6.26777 4.5-6.26777.32903.0 4.50001 5.89993 4.5 6.26777z" id="path3744-5-0-5"/><path style="display:inline;fill:#787878;stroke-width:3.5895772" d="m292.97818 375.36285c.0301.33499-3.38132 6.57611-3.54417 6.67632-.12348.076-4.61904-5.3091-4.66305-5.7996-.0245-.27278 3.35811-6.65644 3.54416-6.67632.30005-.032 4.63024 5.43351 4.66306 5.7996z" id="path3746-3-5-8"/><path style="display:inline;fill:#787878;stroke-width:3.56161857" d="m310.13483 376.31339c.037.33408-3.1818 6.66498-3.33984 6.76953-.11985.0793-4.66391-5.18339-4.71811-5.67255-.0301-.27204 3.15717-6.74466 3.33984-6.76953.2946-.0401 4.67768 5.30745 4.71811 5.67255z" id="path3748-7-9-8"/><path style="display:inline;fill:#787878;stroke-width:3.31919122" d="m258.53239 374.62653c-.0365.33665-3.98213 5.57871-4.1344 5.63485-.11546.0425-2.83125-6.41017-2.77794-6.9031.0296-.27415 3.97769-5.66361 4.13439-5.63485.25271.0464 2.81776 6.53518 2.77795 6.9031z" id="path3750-5-3-2"/><path style="display:inline;fill:#787878;stroke-width:2.57942367" d="m244.23081 373.04463c-.11143.30947-3.75247 4.25386-3.85348 4.26763-.0766.0105.1359-6.80424.29915-7.25736.0908-.25201 3.77289-4.33542 3.85347-4.26764.12994.10931-.17729 6.91918-.29914 7.25737z" id="path3752-5-6-1"/><path id="path3754-6-9-9" d="m321.90943 373.61222c4.39093 11.12191 47.50435 4.58624 48.27855-7.28673" style="display:inline;fill-rule:evenodd;fill:none;stroke-dasharray:none;stroke-linecap:round;stroke-linejoin:miter;stroke-miterlimit:3;stroke-opacity:1;stroke-width:1;stroke:#ffa000"/><path style="display:inline;fill:#787878;stroke-width:3.5006206" d="m325.58565 371.91268c.0691.32711-2.38316 7.02741-2.5243 7.15148-.10703.0941-4.99654-4.55228-5.09773-5.03124-.0563-.26637 2.3515-7.10342 2.52428-7.15148.27866-.0775 5.02224 4.67375 5.09775 5.03124z" id="path3756-6-9-3"/><path id="path3758-3-7-6" d="m322.83505 203.04669c-24.71012 13.94287-36.74028 9.2776-41.33117.83707" style="display:inline;fill-rule:evenodd;fill:none;stroke-dasharray:none;stroke-linecap:round;stroke-linejoin:miter;stroke-miterlimit:3;stroke-opacity:1;stroke-width:2;stroke:#ffa000"/><path id="path3760-7-1-1" d="m319.3583 200.04984c-12.15898 8.81635-30.3826 10.12487-34.97349 1.68434" style="display:inline;fill-rule:evenodd;fill:none;stroke-dasharray:none;stroke-linecap:round;stroke-linejoin:miter;stroke-miterlimit:3;stroke-opacity:1;stroke-width:2;stroke:#ffa000"/><path id="path3762-9-1-7" d="m328.49263 206.04508c-24.71012 13.94287-46.82099 11.24804-49.82089-.81642" style="display:inline;fill-rule:evenodd;fill:none;stroke-dasharray:none;stroke-linecap:round;stroke-linejoin:miter;stroke-miterlimit:3;stroke-opacity:1;stroke-width:2;stroke:#ffa000"/><path id="path3764-7-5-4" d="m329.52609 226.13992c6.67893 9.10866 16.3354 22.17465 16.61608 22.99843 12.38899 36.36045-48.42557 72.30695-63.6428 16.265-17.23013 40.31227-48.85049 31.67689-49.40033 20.15786" style="display:inline;fill-rule:evenodd;fill:none;stroke-dasharray:none;stroke-linecap:round;stroke-linejoin:miter;stroke-miterlimit:3;stroke-opacity:1;stroke-width:2;stroke:#ffa000"/><path id="path3766-2-1-7" d="m318.63776 294.14446c-15.51773 22.42815-62.938 21.24219-69.65021 2.37183" style="display:inline;fill-rule:evenodd;fill:none;stroke-dasharray:none;stroke-linecap:round;stroke-linejoin:miter;stroke-miterlimit:3;stroke-opacity:1;stroke-width:2;stroke:#ffa000"/><path id="path3768-8-2-8" d="m303.07348 306.6678c-15.51774 22.42815-38.43801 18.74219-45.15022-.12817" style="display:inline;fill-rule:evenodd;fill:none;stroke-dasharray:none;stroke-linecap:round;stroke-linejoin:miter;stroke-miterlimit:3;stroke-opacity:1;stroke-width:2;stroke:#ffa000"/><path id="path3770-5-5-9" d="m290.07348 319.04437c-10.76774 20.17815-20.18801 12.49219-23.65022-.62817" style="display:inline;fill-rule:evenodd;fill:none;stroke-dasharray:none;stroke-linecap:round;stroke-linejoin:miter;stroke-miterlimit:3;stroke-opacity:1;stroke-width:2;stroke:#ffa000"/><path id="path3772-7-7-5" d="m276.63611 331.76745c-.11149.67815-.59426 4.92969-.46272 5.93433" style="display:inline;fill-rule:evenodd;fill:none;stroke-dasharray:none;stroke-linecap:round;stroke-linejoin:miter;stroke-miterlimit:3;stroke-opacity:1;stroke-width:2;stroke:#ffa000"/><path id="path3774-0-2-4" d="m266.73427 319.35931c-.11149.67815-.68265 8.37684-.55111 9.38148" style="display:inline;fill-rule:evenodd;fill:none;stroke-dasharray:none;stroke-linecap:round;stroke-linejoin:miter;stroke-miterlimit:3;stroke-opacity:1;stroke-width:2;stroke:#ffa000"/><path id="path3776-5-2-7" d="m290.4675 319.22672c-.11149.67815-.77103 8.20006-.63949 9.2047" style="display:inline;fill-rule:evenodd;fill:none;stroke-dasharray:none;stroke-linecap:round;stroke-linejoin:miter;stroke-miterlimit:3;stroke-opacity:1;stroke-width:2;stroke:#ffa000"/><path id="path3778-6-1-3" d="m302.88515 306.76397c-.11149.67815-.94781 9.08394-.81627 10.08858" style="display:inline;fill-rule:evenodd;fill:none;stroke-dasharray:none;stroke-linecap:round;stroke-linejoin:miter;stroke-miterlimit:3;stroke-opacity:1;stroke-width:2;stroke:#ffa000"/><path id="path3780-5-1-0" d="m257.80649 306.32203c-.11149.67815-1.21298 8.73038-1.08144 9.73502" style="display:inline;fill-rule:evenodd;fill:none;stroke-dasharray:none;stroke-linecap:round;stroke-linejoin:miter;stroke-miterlimit:3;stroke-opacity:1;stroke-width:2;stroke:#ffa000"/><path id="path3782-2-1-7" d="m248.82996 296.59932c-.11149.67815-1.21298 10.67492-1.08144 11.67956" style="display:inline;fill-rule:evenodd;fill:none;stroke-dasharray:none;stroke-linecap:round;stroke-linejoin:miter;stroke-miterlimit:3;stroke-opacity:1;stroke-width:2;stroke:#ffa000"/><path id="path3784-1-8-0" d="m318.12702 294.3896c-.11149.67815-.59426 10.49815-.46272 11.50279" style="display:inline;fill-rule:evenodd;fill:none;stroke-dasharray:none;stroke-linecap:round;stroke-linejoin:miter;stroke-miterlimit:3;stroke-opacity:1;stroke-width:2;stroke:#ffa000"/><path style="display:inline;fill:#787878;stroke-width:3.29897571" d="m278.18571 340.15002c-.16782 4.06965-1.25445 7.32954-2.42707 7.28119-1.17261-.0484-1.98715-3.38665-1.81933-7.45629.16782-4.06965 1.97897-7.28658 2.42706-7.28119.24945.003 1.98716 3.38665 1.81934 7.45629z" id="path3786-7-8-1"/><path style="display:inline;fill:#787878;stroke-width:3.29897571" d="m268.00348 332.14976c-.16782 4.06965-1.25445 7.32954-2.42707 7.28119-1.17261-.0484-1.98715-3.38665-1.81933-7.45629.16782-4.06965 1.97897-7.28658 2.42706-7.28119.24945.003 1.98716 3.38665 1.81934 7.45629z" id="path3788-6-2-6"/><path style="display:inline;fill:#787878;stroke-width:3.29897571" d="m291.91509 331.35687c-.16782 4.06965-1.25445 7.32954-2.42707 7.28119-1.17261-.0484-1.98715-3.38665-1.81933-7.45629.16782-4.06965 1.97897-7.28658 2.42706-7.28119.24945.003 1.98716 3.38665 1.81934 7.45629z" id="path3790-3-5-2"/><path style="display:inline;fill:#787878;stroke-width:3.29897571" d="m304.15146 319.49698c-.16782 4.06965-1.25445 7.32954-2.42707 7.28119-1.17261-.0484-1.98715-3.38665-1.81933-7.45629.16782-4.06965 1.97897-7.28658 2.42706-7.28119.24945.003 1.98716 3.38665 1.81934 7.45629z" id="path3792-2-2-9"/><path style="display:inline;fill:#787878;stroke-width:3.29897571" d="m319.7078 306.68067c-.16782 4.06965-1.25445 7.32954-2.42706 7.28119-1.17261-.0484-1.98715-3.38665-1.81933-7.45629.16782-4.06965 1.97897-7.28658 2.42706-7.28119.24945.003 1.98715 3.38665 1.81933 7.45629z" id="path3794-3-5-2"/><path style="display:inline;fill:#787878;stroke-width:3.29897571" d="m258.80824 318.96665c-.16782 4.06965-1.25445 7.32954-2.42707 7.28119-1.17261-.0484-1.98715-3.38665-1.81933-7.45629.16782-4.06965 1.97897-7.28658 2.42706-7.28119.24945.003 1.98716 3.38665 1.81934 7.45629z" id="path3796-2-8-5"/><path style="display:inline;fill:#787878;stroke-width:3.29897571" d="m250.05779 308.71361c-.16782 4.06965-1.25445 7.32954-2.42707 7.28119-1.17261-.0484-1.98715-3.38665-1.81933-7.45629.16782-4.06965 1.97897-7.28658 2.42706-7.28119.24945.003 1.98716 3.38665 1.81934 7.45629z" id="path3798-8-4-1"/><path id="path3800-1-9-4" d="m371.07724 280.74978c-4.20403 1.92206-24.74257-.83084-26.85858-6.61973" style="display:inline;fill-rule:evenodd;fill:none;stroke-dasharray:none;stroke-linecap:round;stroke-linejoin:miter;stroke-miterlimit:3;stroke-opacity:1;stroke-width:2;stroke:#ffa000"/><path id="path3802-1-9-2" d="m371.23781 271.65203c-4.20403 1.92206-22.25514.44949-24.37115-5.3394" style="display:inline;fill-rule:evenodd;fill:none;stroke-dasharray:none;stroke-linecap:round;stroke-linejoin:miter;stroke-miterlimit:3;stroke-opacity:1;stroke-width:2;stroke:#ffa000"/><path id="path3804-9-0-5" d="m266.83178 227.32942c-2.32535 1.43462-22.04435 16.22658-27.34234 21.7514" style="display:inline;fill-rule:evenodd;fill:none;stroke-dasharray:none;stroke-linecap:round;stroke-linejoin:miter;stroke-miterlimit:3;stroke-opacity:1;stroke-width:2;stroke:#ffa000"/><path id="path3806-7-1-2" d="m329.39296 225.97066c-2.61304-4.08835-8.96808-8.86162-11.08409-14.65051" style="display:inline;fill-rule:evenodd;fill:none;stroke-dasharray:none;stroke-linecap:round;stroke-linejoin:miter;stroke-miterlimit:3;stroke-opacity:1;stroke-width:2;stroke:#ffa000"/><path id="path3808-2-6-6" d="m266.41569 227.4509c1.26196-.83835 11.65692-13.11162 14.79091-17.15051" style="display:inline;fill-rule:evenodd;fill:none;stroke-dasharray:none;stroke-linecap:round;stroke-linejoin:miter;stroke-miterlimit:3;stroke-opacity:1;stroke-width:2;stroke:#ffa000"/><path id="path3810-6-3-5" d="m370.453 254.62335c-11.85102 4.53843-26.06927-6.54746-26.65495-6.75739-30.71232-11.00815-40.61682-19.34988-59.71884 17.77294-.27206.52872-1.1804.0197-1.7609.003-.61878-.0179-1.47969.11768-1.64897-.39763-10.30762-31.37788-6.14603-28.52291-41.2733-16.38289" style="display:inline;fill-rule:evenodd;fill:none;stroke-dasharray:none;stroke-linecap:round;stroke-linejoin:miter;stroke-miterlimit:3;stroke-opacity:1;stroke-width:2;stroke:#ffa000"/><path id="path3812-7-3-2" d="m304.59658 240.08179c-19.26899 10.1878-31.40501 4.2203-34.67319 1.0575" style="display:inline;fill-rule:evenodd;fill:none;stroke-dasharray:none;stroke-linecap:round;stroke-linejoin:miter;stroke-miterlimit:3;stroke-opacity:1;stroke-width:2;stroke:#ffa000"/><path style="display:inline;fill:#787878;stroke-width:2.40921926" d="m341.41453 370.37229c.0439.24407-1.5129 5.24327-1.6025 5.33584-.068.0702-3.17195-3.39653-3.23619-3.75389-.0357-.19874 1.49281-5.29998 1.60249-5.33584.17691-.0578 3.18826 3.48716 3.2362 3.75389z" id="path3756-7-1-3-7"/><path class="steel_piercing" id="path3716-4-1-7-6" transform="matrix(0.91676246,-0.39943285,0.15344214,0.98815763,0,0)" d="m314.65973 536.77295a3.020782 7.9867902.0 01-3.01194 7.98676 3.020782 7.9867902.0 01-3.02957-7.93999 3.020782 7.9867902.0 012.99419-8.03325 3.020782 7.9867902.0 013.04711 7.89295"/><ellipse cy="400.00958" cx="239.97542" class="steel_piercing" id="ellipse3714-1-7-4-9" rx="1.8754634" ry="7.2519011" transform="matrix(0.99964867,0.02650531,-0.04726023,0.99888261,0,0)"/><path style="display:inline;fill:#787878;stroke-width:2.57942367" d="m233.51953 369.24525c-.11143.30947-3.75247 4.25386-3.85348 4.26763-.0766.0105.1359-6.80424.29915-7.25736.0908-.25201 3.77289-4.33542 3.85347-4.26764.12994.10931-.17729 6.91918-.29914 7.25737z" id="path3752-5-6-4-6"/><path style="display:inline;fill:#787878;stroke-width:2.40921926" d="m355.41921 367.45882c.0439.24407-1.5129 5.24327-1.6025 5.33584-.068.0702-3.17195-3.39653-3.23619-3.75389-.0357-.19874 1.49281-5.29998 1.60249-5.33584.17691-.0578 3.18826 3.48716 3.2362 3.75389z" id="path3756-7-1-3-4-6"/></svg>