<svg viewBox="0 0 560 1e3"><path style="display:inline;fill-opacity:1;fill-rule:evenodd;fill:#000;opacity:1;stroke-dasharray:none;stroke-linecap:butt;stroke-linejoin:miter;stroke-miterlimit:4;stroke-opacity:1;stroke-width:0;stroke:#000" d="m370.92186 272.92333c-1.04417.19236-73.5316-5.79647-134.18515-5.26557 3.08213-21.15597 11.34018-37.34036 37.44698-60.5371-.63873-.33426 5.63549-4.38429 10.16002-6.78663 8.14833-12.70068 4.46472-19.8415 5.30411-19.5762 7.80794 2.46783 17.91265-3.14662 24.29047-7.74712.74373-.53648-.752 16.60336 5.04219 25.55904 1.50252 1.12706 8.22693 4.89722 7.01144 5.69617-25.72677 16.91039-30.9022 28.84774-29.45936 29.06832 3.13994 1.52155 73.52821 36.79124 74.63432 37.6158z" id="path2662-8-4-7-7"/><path style="display:inline;fill-opacity:1;fill-rule:evenodd;fill:maroon;opacity:1;stroke-dasharray:none;stroke-linecap:butt;stroke-linejoin:miter;stroke-miterlimit:4;stroke-opacity:1;stroke-width:0;stroke:#000" d="m371.17186 271.39361c-.022.17059-.0457.36964-.0714.59595-76.50814-6.11786-113.29867-5.58943-134.30668-5.48001 6.23266-46.96362 21.75206-55.57048 37.76731-60.27845.49229-.51848 5.31256-2.88169 9.78952-5.28403 5.73671-6.84658 5.96054-16.38841 6.43009-16.43638 9.66279-.98707 17.18194-8.05033 21.83937-11.17453 1.18842-.79719-.90736 15.62847 6.0387 25.84663 1.48672 1.12706 17.66932 6.19296 18.2012 7.53532.0.0 22.53186-3.73753 32.01093 28.69935.0476.44543 1.31272 7.24328 1.49903 15.71117.21526 6.04642 1.12235 14.42244.80193 20.26498z" id="path2664-3-9-7-8"/><path id="path1853-6" d="m298.46108 438.89935c-6.48422 6.26583-11.19704 12.82415-15.33516 19.44716-1.04023 1.75909-1.92047 7.35117-4.50173 9.70959-.97785.89343-3.70051-.0277-4.03805.0431-.91345.19159-2.09488.29968-2.84109.24274-1.3589-.10369-3.10427-.97079-4.62926-2.64607-1.15035-1.26373-2.1753-2.98733-2.81436-5.19001-3.99405-5.27747-10.5589-14.66641-17.49018-23.90539 4.48963 1.85597 9.35646 2.79339 14.73041 2.73225 1.76498-.0201 3.58467-.14788 5.46366-.38622 9.80224 3.87793 21.03947 2.36746 31.45576-.0471z" style="display:inline;fill-opacity:1;fill-rule:evenodd;fill:maroon;opacity:1;stroke-dasharray:none;stroke-linecap:butt;stroke-linejoin:miter;stroke-miterlimit:4;stroke-opacity:1;stroke-width:0;stroke:#000"/><path id="path1855-4" d="m282.94456 458.76549c-.0483.15247-.11284.47208-.19954.90622-.41277 2.06685-1.81439 6.53069-3.87757 8.11265-.26921.20642-1.13559 1.14752-4.57861.28177-.17398-.0437-2.18026 1.1699-4.2783.12449-4.65827-2.32112-6.22252-8.10904-6.31915-8.53686 3.82592 9.08132 8.89939 9.3147 10.40315 7.55401 5.26837 2.79873 7.50839-4.81217 8.85002-8.44228z" style="display:inline;fill-opacity:1;fill-rule:evenodd;fill:#000;opacity:1;stroke-dasharray:none;stroke-linecap:butt;stroke-linejoin:miter;stroke-miterlimit:4;stroke-opacity:1;stroke-width:0;stroke:#000"/></svg>