<svg viewBox="0 0 560 1e3"><path id="path4415" d="m370.45236 269.96102c-.72431 13.77887-3.2131 24.26211-9.15217 38.64163-66.74361-8.03197-118.17547-6.70772-123.69546-4.27459-2.92035-11.95942-4.01566-32.10443.94105-52.56737 50.54474.32853 91.32247 2.85689 131.90658 18.20033z" style="display:inline;fill-opacity:1;fill-rule:evenodd;fill:#000;opacity:1;stroke-dasharray:none;stroke-linecap:butt;stroke-linejoin:miter;stroke-miterlimit:4;stroke-opacity:1;stroke-width:0;stroke:#000"/><path id="path4417" d="m361.02241 307.58809c-55.12275-8.36934-113.3879-6.88858-122.49841-4.50988-3.69137-14.28461-1.67245-36.4913.71132-50.46562 12.4531.21782 84.70619.6679 130.48398 17.99082-1.49894 15.86805-3.83773 23.0746-8.69689 36.98468z" style="display:inline;fill-opacity:1;fill-rule:evenodd;fill:#221c24;opacity:1;stroke-dasharray:none;stroke-linecap:butt;stroke-linejoin:miter;stroke-miterlimit:4;stroke-opacity:1;stroke-width:0;stroke:#000"/><path id="path1833-3" d="m282.94456 458.76549c-.0483.15247-.11284.47208-.19954.90622-.41277 2.06685-1.81439 6.53069-3.87757 8.11265-.26921.20642-1.13559 1.14752-4.57861.28177-.17398-.0437-2.18026 1.1699-4.2783.12449-4.65827-2.32112-6.22252-8.10904-6.31915-8.53686 3.82592 9.08132 8.89939 9.3147 10.40315 7.55401 5.26837 2.79873 7.50839-4.81217 8.85002-8.44228z" style="display:inline;fill-opacity:1;fill-rule:evenodd;fill:#000;opacity:1;stroke-dasharray:none;stroke-linecap:butt;stroke-linejoin:miter;stroke-miterlimit:4;stroke-opacity:1;stroke-width:0;stroke:#000"/><path id="path1760-5-4-2-51" d="m361.63641 418.84411c-26.82642-1.40287-67.54027 21.94468-78.51049 39.5024-1.04023 1.75909-1.92047 7.35117-4.50173 9.70959-.97785.89343-3.70051-.0277-4.03805.0431-.91345.19159-2.80735.34793-3.55356.29099-1.3589-.10369-3.01052-1.81454-4.53551-3.48982-1.15035-1.26373-2.1753-2.98733-2.81436-5.19001-8.77373-7.86601-26.29026-23.86431-37.72273-47.06552.0176-.005-.20468-.75846-.17901-2.20368 16.3118 24.34925 24.23707 27.1224 43.30386 28.66939 25.02987.6346 42.5883-20.51507 92.56367-22.37183.0.0.006 2.09665-.0121 2.10539z" style="display:inline;fill-opacity:1;fill-rule:evenodd;fill:#221c24;opacity:1;stroke-dasharray:none;stroke-linecap:butt;stroke-linejoin:miter;stroke-miterlimit:4;stroke-opacity:1;stroke-width:0;stroke:#000"/><path id="path1781-9-7-8-8" d="m282.94456 458.76549c-.0483.15247-.11284.47208-.19954.90622-.41277 2.06685-1.81439 6.53069-3.87757 8.11265-.26921.20642-1.13559 1.14752-4.57861.28177-.17398-.0437-2.18026 1.1699-4.2783.12449-4.65827-2.32112-6.22252-8.10904-6.31915-8.53686 3.82592 9.08132 8.89939 9.3147 10.40315 7.55401 5.26837 2.79873 7.50839-4.81217 8.85002-8.44228z" style="display:inline;fill-opacity:1;fill-rule:evenodd;fill:#000;opacity:1;stroke-dasharray:none;stroke-linecap:butt;stroke-linejoin:miter;stroke-miterlimit:4;stroke-opacity:1;stroke-width:0;stroke:#000"/></svg>