<svg viewBox="0 0 560 1e3"><path id="path6102" d="m234.96227 274.35617c-.12551 1.89685-.19342 3.79183-.202 5.67824-.052 11.40985 2.25065 22.50562 5.14459 31.79812 2.69013 6.94122-1.14009 15.52225-.94988 22.42702-.99816 31.56498-4.12105 53.24828-14.11031 79.11693 16.36196-.34408 93.98705-1.86544 126.96167-1.88004-9.58974-21.02654-5.72794-27.42821-7.09792-40.63327-1.6861-16.15084 5.88046-39.02223 13.36254-55.17305 3.6218-8.59036 6.79182-19.6597 9.49663-31.82108 9.51148-34.24922 1.022-75.82395-37.51336-78.8252-.2267-.0176-5.39193.65353-14.93321-9.79895-12.65144 6.30667-23.00839 1.9662-23.61615.70042-3.26231 5.50637-9.90079 6.9498-14.90655 9.81903-24.00924 14.14135-37.33738 42.05463-41.63605 68.59183z" style="display:inline;fill-opacity:.00392157;fill:#000;opacity:1"/><path id="path6106" d="m237.26799 275.28201c-.12037 1.86739-.18551 3.73295-.19374 5.59006-.0499 11.23265 1.53995 22.1561 4.31562 31.30428 2.58021 6.83342-1.25242 15.28943-1.06999 22.08696C238.52175 365.41824 234.58104 387.8331 225 413.3c5.37941 2.77631 11.64752 9.21051 17.86114 16.53126.0728.0858.13113.18299.19667.27475 5.20834 7.29198 10.32303 15.69336 15.54972 22.71642.90642 1.13437 3.46143 4.29267 5.02818 6.20334 4.49692-8.41639 7.13441-6.5938 19.16009-.74579 1.77668-4.65836 24.49041-28.02116 42.64907-37.20159.14133-.0715.27851-.15245.42495-.21378 8.03133-3.36391 16.23278-6.42921 25.62531-9.46461-9.19782-20.7-6.89589-28.08259-8.20986-41.08259-1.6172-15.9 3.98621-32.24241 13.16252-54.51741 3.47378-8.45694 7.02292-19.70243 9.61721-31.67495 11.2317-35.56269 7.04202-77.7623-36.31331-78.3183-.22647-.003-5.86118-.34307-14.40229-9.78119-12.45597 5.13207-19.85379 3.02605-24.24957.59863-2.24902 4.43991-12.11628 8.48893-12.43422 8.59413-27.75694 9.18465-41.39566 53.64403-41.39762 70.06369z" style="display:inline;fill-opacity:.39215686;fill:#f59;opacity:1"/></svg>