<svg viewBox="0 0 560 1e3"><path d="m268.6 863.6c.7 1.8 1.5 1.7 2.9 4.2.0.0 2 3.6 2.2 8.1.2 5.3-3.9 7.6-9.2 15.1-8.1 11.6-6.2 17.3-12.7 20.7-2.1 1.2-5 1.6-10.8 2.7-.5.1-3.3.3-9 .6-2.4.2-4.6.3-6.3-1.3-.4-.4-1.3-1.2-1.2-2.2.2-1.6 3.1-1.9 5.7-3.1 3.6-1.8 5.5-4.9 7.3-7.6 2.8-4.4 1.8-6 5.5-16.4 1.7-4.6 1.9-4.4 3-8.1 1.6-5 1.6-6.8 3.1-12.3 1.9-7 3.6-12.8 5.2-14.4 4.8-4.9 10.8-2.8 12.4 1.2 1.5 2.9.1 8.2 1.9 12.8z" class="skin" id="path2584"/><path d="m311.5 880.7c.4-6.6 5.7-12.8 8.5-30.2.6-4.1 2.8-4.8 5.2-6 3.7-1.7 10.6-2.7 11 6 .4 6.1-.6 16.4.0 27.2.4 6.5.2 11.4 2 21.2 1.9 10 2.8 15.1 6 20.7 3.9 6.9 8.1 9.2 7.3 12.1-.6 2.4-4.1 2.9-9.2 3.7-4.8.7-9.6 1.4-15.1-1.3-1.4-.7-4-2-6.2-4.7-5.2-6.1-2.2-13.2-4.7-24.4-3.5-15.8-5.4-14.9-4.8-24.3z" class="skin" id="path2586"/><path id="path2588" d="m308.21289 714.62695c-3.17133 25.48782 4.30859 66.625 4.30859 66.625 1.84276 17.23856 4.30918 32.0418 5.70113 45.0339.84236 7.86243.73105 15.17359 1.44927 21.63993.004.36565.015.72192.0176 1.08984-3.17375 18.20294-9.33043 28.33215-9.26562 33.50391.10091 8.05236 5.48634 21.80333 5.62305 25.46875.56614 15.1789-.39085 21.94235 12.24804 27.59375 5.64359 2.52349 24.23588-.0558 23.87891-4.00391-.34364-3.80047-5.43126-8.89854-6.02149-9.84374-7.6694-12.28197-10.23541-41.34584-9.49609-58.125-.0598-4.10145.36367-8.88292.0937-13.29493-.099-15.77985 1.57117-33.87007 3.73828-52.67968.94948-8.01122 1.96499-16.44746 3.07227-25.38086 2.15208-12.04194 4.34877-41.61837 3.11133-66.15821-.037-.73373-.29468-4.79758-.61192-9.44284-11.78034 1.62887-23.93833 1.43624-35.624-.40736-1.76167 8.93731-2.28099 16.75164-2.22305 18.38145zm-59.00586-3.67773c3.37556 60.27523 3.12513 106.61482 4.81089 137.75013-.45764 1.37885-2.60926 4.10918-4.20347 12.02526-2.09028 4.3483-2.42295 9.45383-3.99023 14.32617-3.01605 9.37624-5.80709 14.94269-6.86328 22.30664-.0565.39409-2.80558 5.65046-6.98047 9.31055-2.58128 2.26298-7.04467 2.68732-7.73633 4.66406-.35441 1.01289.97841 2.11673 1.50391 2.78516 2.74009 3.48538 26.18586.1837 29.17187-3.69727 1.73201-2.25115 5.24658-11.24156 7.30469-15.08398 2.96583-5.53711 11.87378-14.19464 11.89648-17.68946.0625-9.64329-4.52763-12.11717-5.10351-13.6289-.70099-1.84012-1.17389-4.4732-1.08399-5.01367.1587-6.5119-.94193-8.87676-1.54687-9.53125-.12237-.75628.3323-8.95232 1.09766-13.1543.39972-2.86025.88628-5.82367 1.40234-8.80469 2.5325-10.67214 5.37179-22.88389 8.64453-37.16406 1.62454-10.6247 14.98408-45.18131 8.80859-86.09375-.0566-.37484-.93405-4.98983-1.91992-9.13672-11.63782 4.1007-33.28555 1.33545-36.22838.19945.48949 8.48139 1.01549 14.93411 1.01549 15.63063z" style="fill-opacity:.2745098;fill:#282828"/></svg>