<svg viewBox="0 0 560 1000"><path id="path49005" d="m 284.0582,485.14125 c -12.17976,7.89943 -28.38616,8.07986 -36.10616,3.13211 -15.20706,-9.74621 -14.02312,-33.18234 -10.24741,-39.6456 1.53171,-2.62193 4.8765,-5.61391 10.77493,-22.75835 3.93289,-11.43144 6.5644,-44.01862 6.40897,-69.5525 -0.0232,-3.79451 -3.04645,-0.0893 -3.7496,-3.79909 -0.99678,-5.2588 5.41261,-14.20626 7.44338,-16.88291 7.44574,-9.81386 11.03123,-4.33788 12.69158,-4.21525 4.37279,0.32296 5.81449,10.42983 6.70492,22.73264 0.23524,3.25059 -0.2538,4.33893 -0.4312,7.71803 -1.03095,19.63941 -4.03667,32.15891 -2.4209,64.76498 0.50895,10.27017 5.59234,22.77089 7.63171,26.24979 7.89245,13.46369 8.41789,25.52285 1.29978,32.25615 z" style="display:inline;fill:#000000;opacity:1;stroke-width:2.35257006"/><path class="skin scrotum" d="m 250.81698,487.95181 c -16.152,-7.19369 -16.2966,-33.90964 -10.23472,-40.90792 2.54739,-2.94091 4.30979,-5.55235 9.82857,-21.30409 3.78779,-10.81111 6.1114,-47.0467 5.97948,-71.52379 -0.0198,-3.63746 -4.44367,0.72437 -4.18963,-2.87257 0.35712,-5.05682 3.4927,-10.36858 9.58941,-18.52934 3.63736,-4.8688 11.12279,-5.03645 16.53146,0.14665 3.06546,2.93756 7.24787,8.86553 8.00361,20.65917 0.19968,3.11605 -3.61605,-0.13873 -3.76661,3.10052 -0.87504,18.82653 -2.66812,38.89939 -1.29667,70.15595 0.43198,9.8451 3.49365,16.55719 5.46959,19.75305 7.97976,12.90644 10.98768,33.08194 0.69697,39.56506 -10.29074,6.48312 -29.22223,5.04828 -36.61146,1.75731 z" id="path49007"/></svg>
