<svg viewBox="0 0 560 1e3"><path style="fill-opacity:1;fill:gray" id="path2500" d="m267.4 253.7c-28.3-5.9-22.8 53.7-29.6 71.4 18.2.4 50.7875-14.825 103.2875-18.325l1.76061-.38886c4.25033-1.43102 10.04992-4.98088 15.56887-7.13074.25806-.10051-.28502-4.64823-.0284-4.74223 4.49039-2.21326 10.7853-5.21775 14.98806-7.71934.0373.0915 20.26048 9.13243 19.91929 9.24488-.81662.26913-3.18023.75131-4.04686.94818-.10694.0243-2.40381-.69739-5.29736-1.62094-.91585-.29232-1.21507-2.46193-2.19996-2.77744-.63988-.20499-1.96008 1.44584-2.59392 1.24308-3.8136-1.21995-7.26707-2.31396-7.34277-2.25146-3.10862 2.56791-6.54326 5.90605-6.36438 5.94725 3.43994 8.8629 4.90651 16.39421 7.38374 25.10554-.11978.1057 6.73434 2.5337 7.7238 2.68449.0645.01 2.42424-2.49392 5.05871-5.29305.45464-.48306 2.43844.14491 2.89906-.34434.51738-.54948-.48904-2.21549.008-2.74225 2.2914-2.42838 4.21092-4.44408 4.3174-4.46368.79516-.14911 3.82282-.9162 4.42842-1.0019.39035-.0552-13.79898 16.97765-13.81848 16.98065-1.3211.21426-12.90785.01-14.56999.0502-.24911.006-3.42612-5.47138-3.68113-5.46838-5.65888.0584-11.03892-.59294-16.96849-1.42443-.085-.0119-.16976-.0238-.25436-.0358L341.4 321.9c-18.04351 17.54942-130.23052 37.90729-134.13052 21.80729C204.56948 332.80729 230.9 236.6 246.2 219.8c6.9-7.7 8.3-4.7 14.3-8.9 43.1 6.1 25 46.1 6.9 42.8"/><path style="display:inline;fill:#b3b3b3" id="path2478-1-3-0" d="m267.4 253.7c-15.93629-3.32241-24.06052 21.65031-29.22369 43.28238-3.79146 15.88506-6.50456 29.45036-6.91923 31.30971-.10462.46913 6.7018-3.60564 6.54292-3.19209 2.8644.063 6.09301-.19552 9.70467-.69101.12068-.0166-1.52371 1.87346-3.66231 4.29746-.28774.32613 77.79058-16.08806 77.48804-15.74593-1.08697 1.22921.87553 3.04004-.21894 4.27746-.34022.38465-82.17387 17.01221-82.49663 17.37801-2.16989 2.45928-3.8478 4.38741-3.72348 4.36925 19.37665-2.83019 64.0107-10.07022 106.77382-22.3374l1.18301-10.26168c4.76243-1.60344 11.04276-5.02301 16.3818-6.13478.2317-.4539-.22121-5.18436-.001-5.27886.62672-.2691 7.97293-4.26123 8.49035-4.54158-.60446 1.15068-4.56685 7.31186-4.56685 7.31186s.53632 2.54256.74973 3.16102c3.64666 7.88034 4.8847 12.66517 5.38391 18.7515.61431 1.5744.57678 1.81515 1.01945 3.52838 1.68438 1.03722 7.60077 4.00012 8.61791 4.57381-1.18762.0515-7.82968.16405-9.38246.0118-.50902-.69382-3.82219-6.64427-4.15283-6.57567-4.53322.94158-11.3181 1.2353-17.15647.4166L341.4 321.9c-19.07083 5.55368-80.07072 23.87649-111.79114 21.71157-.42658-.0291-8.72059 5.68854-9.13177 5.65292-7.53676-.65296-12.4446-2.40734-13.20761-5.5572.0358-1.25844 13.74508-9.88365 13.9655-10.89706.56544-2.59967 5.82036-28.2642 8.59605-38.14329.15069-.53631-12.07191-3.01832-11.91908-3.55677.81099-2.85737 1.65154-5.74257 2.51588-8.6318.18068-.60396 11.93679 3.30956 12.04511 2.6878C236.46958 262.22607 245.10563 222.3644 246.2 219.8c6.9-7.7 8.3-4.7 14.3-8.9 43.1 6.1 25 46.1 6.9 42.8"/></svg>