<svg viewBox="0 0 560 1e3"><path id="path3286-4-7" d="m370.75046 269.18957c3.41123 24.05604-4.92185 51.64835-13.58555 79.26909 3.18128 8.60057 27.34011 49.51763 4.81503 71.07286.0.0-64.6193-4.46085-76.12852 23.87652-2.06147 4.01155-2.1084 11.81811-3.46792 16.10443-.27859.87834-1.00697 6.35332-3.50565 8.26757-.26944.20641-1.13656 1.14752-4.58251.28177-.17413-.0437-1.37345.71664-3.61847.0361-5.83439-1.76869-6.66978-8.86034-6.76649-9.28816-1.98539-8.78313-6.24957-28.02971-9.43291-34.24779-14.19124-27.72004-27.97462-8.06406-29.28246-10.40039-11.3718-26.3675-.55295-59.92196 12.01105-93.60019-14.75111-82.28318 14.26471-93.88901 39.35263-113.69072-.63873-.33426 4.1695-4.68737 8.69403-7.08971 4.60651-7.8312 3.27486-7.45941 3.27486-7.45941 7.59995 3.04875 12.88401 2.32885 26.43736.39085.0.0 2.20771 4.67981 3.14054 5.85732 1.50252 1.12706 9.10193 4.89722 7.88644 5.69617-59.64798 34.7469 1.82837 42.20589 38.19229 63.32537z" style="display:inline;fill-opacity:1;fill-rule:evenodd;fill:#000;opacity:1;stroke-dasharray:none;stroke-linecap:butt;stroke-linejoin:miter;stroke-miterlimit:4;stroke-opacity:1;stroke-width:0;stroke:#000"/><path id="path3288-5-6" d="m355.26118 347.47283c.44885 2.25875 29.37617 51.36472 5.45512 70.79064-40.10653 11.44456-73.63751 37.4838-74.40918 39.82157-.78385 1.88787-4.7912 9.82211-7.2881 11.60252-1.21712.86786-4.56426-.37235-4.8162-.39645-.29397-.0276-.77535.50225-2.98817-.0701-5.65546-1.4629-10.22974-5.40448-10.80185-7.35518-18.43111-29.49711-30.68812-46.0732-35.41353-47.26215-8.1227-27.92385 1.61168-63.74338 13.68157-93.68976-14.49033-85.78878 4.2507-108.41852 38.25528-114.93282.49229-.51848 3.84657-3.18477 8.32353-5.58711 1.01736-.38611 3.09644-7.86397 3.50439-7.62657 6.65758 3.87428 25.70244-.0747 26.03176.62403.97035 2.05878 1.84469 4.05751 2.988 5.79136 1.48672 1.12706 18.23182 7.00546 18.7637 8.34782 26.81157-1.92368 41.3875 18.73399 33.89632 60.76253 2.59334 21.25199-6.91987 61.90704-15.18264 79.17967z" style="display:inline;fill-opacity:1;fill-rule:evenodd;fill:#222a12;opacity:1;stroke-dasharray:none;stroke-linecap:butt;stroke-linejoin:miter;stroke-miterlimit:4;stroke-opacity:1;stroke-width:0;stroke:#000"/><path id="path3294-7-0" d="m289.11888 215.04825c-.007-.15238 7.87213-20.96789 7.93902-21.16262.0.0-8.15309-1.9826-8.26392-1.76863-.67688 1.30676-2.0163 3.21861-3.07583 5.20282.099.227 3.40073 17.72843 3.40073 17.72843z" style="display:inline;fill-opacity:1;fill:#000;opacity:1;stroke-dasharray:none;stroke-linecap:butt;stroke-linejoin:miter;stroke-miterlimit:4;stroke-opacity:1;stroke-width:0;stroke:#000"/><path id="path3296-2-6" d="m289.86716 210.04871c-.007-.14941 6.74558-16.16139 6.81056-16.35233.0.0-7.77791-1.88503-7.87507-1.67049-.65217 1.44001-1.57026 3.73024-2.93343 5.40005.0962.22258 3.99794 12.62277 3.99794 12.62277z" style="display:inline;fill-opacity:1;fill:#222a12;opacity:1;stroke-dasharray:none;stroke-linecap:butt;stroke-linejoin:miter;stroke-miterlimit:4;stroke-opacity:1;stroke-width:0;stroke:#000"/><path id="path3298-2-2" d="m275.45007 385.34392c-.0664.049-1.39182-.0869-1.58546-.12917-3.40999-.74522 19.2566-190.46416 24.25915-190.51859.0.0 9.9816.36067 8.15973.35931-4.43753-.91193-26.3541 188.41284-22.89125 190.11927z" style="display:inline;fill-opacity:1;fill:#000;opacity:1;stroke-dasharray:none;stroke-linecap:butt;stroke-linejoin:miter;stroke-miterlimit:4;stroke-opacity:1;stroke-width:0;stroke:#000"/><path id="path3300-8-1" d="m275.06385 384.41234c-.0664.049-1.76682-.0556-1.96046-.0979-3.40999-.74522 21.22535-187.33916 23.07165-190.04984.0.0 11.1691.0169 9.34723.0156-4.43753-.91193-26.3541 188.41284-22.89125 190.11927z" style="display:inline;fill-opacity:1;fill:#222a12;opacity:1;stroke-dasharray:none;stroke-linecap:butt;stroke-linejoin:miter;stroke-miterlimit:4;stroke-opacity:1;stroke-width:0;stroke:#000"/><path id="path3290-4-3" d="m225.59803 414.50423c13.0124 5.20002 29.36397 56.66207 49.38576 54.95988 13.4605-1.86072 17.12966-33.52715 79.46023-58.76997-5.49871-5.5195 14.19338-29.9182 13.56451-31.89047-.0813-.25494-2.34874-8.08855-2.34874-8.08855-48.3734 15.03606-138.73026 13.07799-142.47775.6073.0.0-2.36299 11.46606 1.43091 23.69749 12.80973 10.11541 8.0993 12.6061.98508 19.48427z" style="display:inline;fill-opacity:1;fill:#000;stroke-dasharray:none;stroke-linecap:butt;stroke-linejoin:miter;stroke-miterlimit:4;stroke-opacity:1;stroke-width:0;stroke:#000"/><path id="path3292-7-9" d="m224.05743 416.09574c1.16836 10.32654 31.24785 56.57108 51.26964 54.86889 13.4605-1.86072 24.63271-26.08109 86.96328-51.32391-5.52595-11.9083-20.50108-23.41319-27.03728-34.73758-45.102 11.9464-93.2258 10.83435-98.56614 1.43057.0.0-7.49651 18.04438-12.6295 29.76203z" style="display:inline;fill-opacity:1;fill:#222a12;stroke-dasharray:none;stroke-linecap:butt;stroke-linejoin:miter;stroke-miterlimit:4;stroke-opacity:1;stroke-width:0;stroke:#000"/><path id="path3302-7-6" d="m304.52262 215.99753c.007-.15238-5.40967-21.68572-5.47656-21.88045.0.0 16.68416-2.93188 16.82642-2.73738.86438 1.18176 2.6413 5.37486 3.07583 6.04657-.099.227-14.42569 18.57126-14.42569 18.57126z" style="display:inline;fill-opacity:1;fill:#000;opacity:1;stroke-dasharray:none;stroke-linecap:butt;stroke-linejoin:miter;stroke-miterlimit:4;stroke-opacity:1;stroke-width:0;stroke:#000"/><path id="path3304-8-9" d="m305.15512 212.99967c.007-.14856-6.32959-18.84697-6.39549-19.03682.0.0 16.45032-2.86387 16.59049-2.67425.85164 1.15214 2.60238 5.24014 3.03051 5.89501-.0975.22131-13.22551 15.81606-13.22551 15.81606z" style="display:inline;fill-opacity:1;fill:#222a12;opacity:1;stroke-dasharray:none;stroke-linecap:butt;stroke-linejoin:miter;stroke-miterlimit:4;stroke-opacity:1;stroke-width:0;stroke:#000"/><path id="path3322-6-2" d="m318.34141 206.04031c.007-.14856 1.42041-6.72197 1.35451-6.91182.0.0 29.69411 9.43731 29.65299 9.6695-.0546.30839-.36637 2.67764-.46949 2.77001-.0975.22131-30.53801-5.52769-30.53801-5.52769z" style="display:inline;fill-opacity:1;fill:#000;opacity:1;stroke-dasharray:none;stroke-linecap:butt;stroke-linejoin:miter;stroke-miterlimit:4;stroke-opacity:1;stroke-width:0;stroke:#000"/><path id="path3324-9-0" d="m286.36935 205.61511c.0133-.14802-.134-6.60539-.0781-6.78999.0.0-16.13556 7.43412-16.14148 7.66721-.008.30956-.12357 2.68146-.0814 2.7794.0242.22566 16.30106-3.65662 16.30106-3.65662z" style="display:inline;fill-opacity:1;fill:#000;opacity:1;stroke-dasharray:none;stroke-linecap:butt;stroke-linejoin:miter;stroke-miterlimit:4;stroke-opacity:1;stroke-width:0;stroke:#000"/><path id="path3326-4-5" d="m285.63987 205.08424c.0133-.14802.0535-6.76164.10936-6.94624.0.0-16.32306 7.59037-16.32898 7.82346-.008.30956-.12357 2.68146-.0814 2.7794.0242.22566 16.30106-3.65662 16.30106-3.65662z" style="display:inline;fill-opacity:1;fill:#222a12;opacity:1;stroke-dasharray:none;stroke-linecap:butt;stroke-linejoin:miter;stroke-miterlimit:4;stroke-opacity:1;stroke-width:0;stroke:#000"/><path id="path3328-7-8" d="m319.37125 205.43891c.007-.14856 1.34146-6.72197 1.27922-6.91182.0.0 28.04354 9.43731 28.00471 9.6695-.0516.30839-.34601 2.67764-.44339 2.77001-.0921.22131-28.84054-5.52769-28.84054-5.52769z" style="display:inline;fill-opacity:1;fill:#222a12;opacity:1;stroke-dasharray:none;stroke-linecap:butt;stroke-linejoin:miter;stroke-miterlimit:4;stroke-opacity:1;stroke-width:0;stroke:#000"/><path id="path3330-9-9" d="m280.07859 429.19162c.007-.14856 1.42434-36.87677 1.3621-37.06662.0.0 35.11831-1.77555 54.48573-7.94966.29791-.095 33.89088 20.61927 33.7935 20.71164-.0921.22131-89.64133 24.30464-89.64133 24.30464z" style="display:inline;fill-opacity:1;fill:#000;opacity:1;stroke-dasharray:none;stroke-linecap:butt;stroke-linejoin:miter;stroke-miterlimit:4;stroke-opacity:1;stroke-width:0;stroke:#000"/><path id="path3332-9-4" d="m278.6823 429.54052c-.007-.14856 3.58217-36.79466 3.64441-36.98451.0.0-40.92101-1.34785-49.75718-10.49071-.21729-.22483-10.20024 22.16032-10.10286 22.25269.0921.22131 56.21563 25.22253 56.21563 25.22253z" style="display:inline;fill-opacity:1;fill:#000;opacity:1;stroke-dasharray:none;stroke-linecap:butt;stroke-linejoin:miter;stroke-miterlimit:4;stroke-opacity:1;stroke-width:0;stroke:#000"/><path id="path3334-7-8" d="m278.03602 427.71792c-.007-.14856 3.08217-36.54466 3.14441-36.73451.0.0-50.48037-2.5568-59.31654-11.69966-.21729-.22483-1.76588 11.43177.9565 24.39914.0921.22131 55.21563 24.03503 55.21563 24.03503z" style="display:inline;fill-opacity:1;fill:#222a12;opacity:1;stroke-dasharray:none;stroke-linecap:butt;stroke-linejoin:miter;stroke-miterlimit:4;stroke-opacity:1;stroke-width:0;stroke:#000"/><path id="path3336-4-8" d="m280.05402 427.88331c.007-.14856 1.42434-36.87677 1.3621-37.06662.0.0 66.93081-5.65055 86.29823-11.82466 4.48541 14.3425 1.81321 24.84782 1.71583 24.94019-.0921.22131-89.37616 23.95109-89.37616 23.95109z" style="display:inline;fill-opacity:1;fill:#222a12;opacity:1;stroke-dasharray:none;stroke-linecap:butt;stroke-linejoin:miter;stroke-miterlimit:4;stroke-opacity:1;stroke-width:0;stroke:#000"/><path id="path3338-5-4" d="m269.65157 391.89954c.007-.16977.45758-10.25736.39534-10.47431.0.0 14.91787.0779 14.87904.34322-.0516.35242.2727 10.53448.17532 10.64004-.40146.15189-15.4497-.50895-15.4497-.50895z" style="display:inline;fill-opacity:1;fill:#c8c8c8;opacity:1;stroke-dasharray:none;stroke-linecap:butt;stroke-linejoin:miter;stroke-miterlimit:4;stroke-opacity:1;stroke-width:0;stroke:#000"/><path style="display:inline;fill-opacity:1;fill-rule:nonzero;fill:#806600;opacity:1;stroke-dasharray:none;stroke-linecap:butt;stroke-linejoin:round;stroke-miterlimit:4;stroke-opacity:1;stroke-width:0;stroke:#000" d="m298.9294 219.8844a3.005204 3.1377864.0 01-3.0052 3.13779 3.005204 3.1377864.0 01-3.00521-3.13779 3.005204 3.1377864.0 013.00521-3.13779 3.005204 3.1377864.0 013.0052 3.13779z" id="path2956-2-5-47-9"/><path style="display:inline;fill-opacity:1;fill-rule:nonzero;fill:#806600;opacity:1;stroke-dasharray:none;stroke-linecap:butt;stroke-linejoin:round;stroke-miterlimit:4;stroke-opacity:1;stroke-width:0;stroke:#000" d="m286.90859 313.92962a3.005204 3.1377864.0 01-3.0052 3.13779 3.005204 3.1377864.0 01-3.00521-3.13779 3.005204 3.1377864.0 013.00521-3.13779 3.005204 3.1377864.0 013.0052 3.13779z" id="path2956-2-3-8-4"/><path style="display:inline;fill-opacity:1;fill-rule:nonzero;fill:#806600;opacity:1;stroke-dasharray:none;stroke-linecap:butt;stroke-linejoin:round;stroke-miterlimit:4;stroke-opacity:1;stroke-width:0;stroke:#000" d="m289.73701 289.88798a3.005204 3.1377864.0 01-3.0052 3.13779 3.005204 3.1377864.0 01-3.00521-3.13779 3.005204 3.1377864.0 013.00521-3.13779 3.005204 3.1377864.0 013.0052 3.13779z" id="path2956-2-0-4-0"/><path style="display:inline;fill-opacity:1;fill-rule:nonzero;fill:#806600;opacity:1;stroke-dasharray:none;stroke-linecap:butt;stroke-linejoin:round;stroke-miterlimit:4;stroke-opacity:1;stroke-width:0;stroke:#000" d="m292.919 266.1999a3.005204 3.1377864.0 01-3.0052 3.13779 3.005204 3.1377864.0 01-3.00521-3.13779 3.005204 3.1377864.0 013.00521-3.13779 3.005204 3.1377864.0 013.0052 3.13779z" id="path2956-2-57-7-8"/><path style="display:inline;fill-opacity:1;fill-rule:nonzero;fill:#806600;opacity:1;stroke-dasharray:none;stroke-linecap:butt;stroke-linejoin:round;stroke-miterlimit:4;stroke-opacity:1;stroke-width:0;stroke:#000" d="m296.27775 241.98149a3.005204 3.1377864.0 01-3.0052 3.13779 3.005204 3.1377864.0 01-3.00521-3.13779 3.005204 3.1377864.0 013.00521-3.13779 3.005204 3.1377864.0 013.0052 3.13779z" id="path2956-2-8-9-8"/><path style="display:inline;fill-opacity:1;fill-rule:nonzero;fill:#806600;opacity:1;stroke-dasharray:none;stroke-linecap:butt;stroke-linejoin:round;stroke-miterlimit:4;stroke-opacity:1;stroke-width:0;stroke:#000" d="m284.25694 336.55702a3.005204 3.1377864.0 01-3.0052 3.13779 3.005204 3.1377864.0 01-3.00521-3.13779 3.005204 3.1377864.0 013.00521-3.13779 3.005204 3.1377864.0 013.0052 3.13779z" id="path2956-2-06-2-3"/><path style="display:inline;fill-opacity:1;fill-rule:nonzero;fill:#806600;opacity:1;stroke-dasharray:none;stroke-linecap:butt;stroke-linejoin:round;stroke-miterlimit:4;stroke-opacity:1;stroke-width:0;stroke:#000" d="m282.66595 358.65412a3.005204 3.1377864.0 01-3.0052 3.13779 3.005204 3.1377864.0 01-3.00521-3.13779 3.005204 3.1377864.0 013.00521-3.13779 3.005204 3.1377864.0 013.0052 3.13779z" id="path2956-2-80-75-2"/><path style="display:inline;fill-opacity:1;fill-rule:nonzero;fill:#806600;opacity:1;stroke-dasharray:none;stroke-linecap:butt;stroke-linejoin:round;stroke-miterlimit:4;stroke-opacity:1;stroke-width:0;stroke:#000" d="m280.7214 377.92278a3.005204 3.1377864.0 01-3.0052 3.13779 3.005204 3.1377864.0 01-3.00521-3.13779 3.005204 3.1377864.0 013.00521-3.13779 3.005204 3.1377864.0 013.0052 3.13779z" id="path2956-2-9-6-3"/><path style="display:inline;fill-opacity:1;fill-rule:nonzero;fill:#806600;opacity:1;stroke-dasharray:none;stroke-linecap:butt;stroke-linejoin:round;stroke-miterlimit:4;stroke-opacity:1;stroke-width:0;stroke:#000" d="m283.21152 203.83307a1.2374378 1.4584099 83.139098 01-1.59579-1.05436 1.2374378 1.4584099 83.139098 011.30015-1.4028 1.2374378 1.4584099 83.139098 011.59579 1.05436 1.2374378 1.4584099 83.139098 01-1.30015 1.4028z" id="path2956-2-5-8-4-0"/><path style="display:inline;fill-opacity:1;fill-rule:nonzero;fill:#806600;opacity:1;stroke-dasharray:none;stroke-linecap:butt;stroke-linejoin:round;stroke-miterlimit:4;stroke-opacity:1;stroke-width:0;stroke:#000" d="m323.27283 204.04104a1.2374378 1.4584099 83.139098 01-1.59579-1.05436 1.2374378 1.4584099 83.139098 011.30015-1.4028 1.2374378 1.4584099 83.139098 011.59579 1.05436 1.2374378 1.4584099 83.139098 01-1.30015 1.4028z" id="path2956-2-5-8-8-5-4"/><path id="path3280-7-2-6-6-6-5-3-5-0" class="shadow" d="m329.87741 425.71877c-15.4791 1.19068-42.03653 26.26041-44.60913 30.99635 10.29989-9.14088 29.75951-26.28541 44.60913-30.99635z"/><path id="path3282-5-4-0-8-6-46-6-3-2" class="shadow" d="m262.13532 457.56706c-6.81704-9.41592-28.83006-31.99347-34.93819-34.15183 5.05404 5.44075 26.5203 25.35081 34.93819 34.15183z"/></svg>