<svg viewBox="0 0 560 1e3"><path style="display:inline;fill-opacity:1;fill:#c8c8c8;stroke-width:1.79336274" id="path9929-4-6" d="m378.88179 322.03087c5.08171 1.12218 30.79767 12.6282 40.79562 11.99891 1.35379-.0852.61424-20.05132.61424-20.05132-5.71267.18645-30.01188-3.5776-42.96676-5.82168-.96403 6.20885.84552 12.08142 1.5569 13.87409z"/><path style="display:inline;fill-opacity:1;fill:#214478;stroke-width:1.63709426" id="path9929-1-4-5" d="m379.84269 321.52721c4.65609 1.10729 28.31449 12.0335 37.4282 11.62056 1.23405-.0559.2292-18.30538.2292-18.30538-5.21026.0778-27.44784-3.75375-39.3075-6.01328-.77715 5.65568.97128 11.04913 1.6501 12.6981z"/><ellipse style="display:inline;fill-opacity:1;fill-rule:evenodd;fill:#c8c8c8;opacity:1;stroke-dasharray:none;stroke-dashoffset:0;stroke-linecap:butt;stroke-linejoin:miter;stroke-miterlimit:4;stroke-opacity:1;stroke-width:0;stroke:#212f3d;vector-effect:none" id="path9445-4-5-97" cx="514.32013" cy="100.07658" rx="2.6799605" ry="3.1323941" transform="matrix(0.65539437,0.75528685,0.75528685,-0.65539437,0,0)"/></svg>