<svg viewBox="0 0 560 1e3"><path id="path4527-9" d="m368.45236 268.83602c-3.78105 51.36502 14.51516 123.15223 17.281 189.4788-32.89181 6.65266-156.08001-14.88078-170.44809-31.88372 9.47567-30.08684 23.78843-106.12537 21.3767-133.83109-6.00246-59.21686 59.72762-64.38255 127.52224-25.00872z" style="display:inline;fill-opacity:1;fill-rule:evenodd;fill:#000;opacity:1;stroke-dasharray:none;stroke-linecap:butt;stroke-linejoin:miter;stroke-miterlimit:4;stroke-opacity:1;stroke-width:0;stroke:#000"/><path id="path4529-2" d="m368.47602 268.56519c-6.37431 49.66799 15.54581 141.02982 15.61806 188.58787-31.15729 6.94181-157.0571-15.87982-167.65947-31.44057 9.46931-28.80012 24.35529-106.18694 22.17603-131.08521-3.65952-28.78802 3.64782-52.36416 12.94107-67.02519 19.76156-12.92507 47.22363-.50828 66.23209-28.41929 1.48672 1.12706 18.23182 7.00546 18.7637 8.34782 40.52013.35863 36.88575 49.2706 31.92852 61.03457z" style="display:inline;fill-opacity:1;fill-rule:evenodd;fill:#fff;opacity:1;stroke-dasharray:none;stroke-linecap:butt;stroke-linejoin:miter;stroke-miterlimit:4;stroke-opacity:1;stroke-width:0;stroke:#000"/></svg>