<svg viewBox="0 0 560 1e3"><path style="fill-opacity:1;fill:#222a12" d="m266.2 253.7c-28.3-5.9-23.73622 54.91595-30.63622 72.61595 4.3 15.6 16.93052 44.23553 29.63622 84.28405.0.0 36.2-17.5 37.3-2.1 3 38.7-24.5 17.2-41.7 9.6C250.1 413.3 211.93661 341.6754 209.07647 321 206.37647 310.1 229.7 236.8 245 219.9c6.9-7.7 8.3-4.7 14.3-8.9 43 6 24.9 46 6.9 42.7" id="path3513"/><path style="display:inline;fill-opacity:1;fill:#666;stroke-dasharray:none;stroke-linecap:butt;stroke-linejoin:miter;stroke-miterlimit:4;stroke-opacity:1;stroke-width:0;stroke:#000" d="m263.45211 241.27393c-8.84893 6.6342-27.58995 18.39303-38.71483 16.41934.38984-1.28396 1.05736-3.37376 1.45869-3.88888 11.46956 2.57065 32.93224-13.62333 36.34199-14.58905z" id="path3515"/><path style="display:inline;fill-opacity:1;fill:#666;stroke-dasharray:none;stroke-linecap:butt;stroke-linejoin:miter;stroke-miterlimit:4;stroke-opacity:1;stroke-width:0;stroke:#000" d="m208.76903 319.2224c8.71697.28663 17.88118 1.64621 27.34252 5.75477-.43939.87134-.20527 2.54788-.20527 2.54788s-18.29517-5.44409-26.43-3.91174c-.51894-1.65243-.5037-2.94874-.70725-4.39091z" id="path3517"/><path style="display:inline;fill-opacity:1;fill:#666;stroke-dasharray:none;stroke-linecap:butt;stroke-linejoin:miter;stroke-miterlimit:4;stroke-opacity:1;stroke-width:0;stroke:#000" d="m257.66731 374.93172c-13.39734-4.37473-21.34735-22.56182-29.98781-49.3069-.0587-1.52053.75209-.95314 1.53843-.95298 12.39042 43.26563 24.70342 46.04553 27.56107 48.02279z" id="path3519"/><path style="display:inline;fill-opacity:1;fill:#666;stroke-dasharray:none;stroke-linecap:butt;stroke-linejoin:miter;stroke-miterlimit:4;stroke-opacity:1;stroke-width:0;stroke:#000" d="m217.46637 321.10562c6.78834-24.33289 8.77329-29.82516 21.61735-67.4536.59362-.53009-.0641 1.28771.95487 1.24782-12.76477 36.16354-21.26599 65.51844-21.16209 66.60327z" id="path3521"/><path style="display:inline;fill-opacity:1;fill:#666;stroke-dasharray:none;stroke-linecap:butt;stroke-linejoin:miter;stroke-miterlimit:4;stroke-opacity:1;stroke-width:0;stroke:#000" d="m217.99839 322.23553c1.91911 20.64874 20.05068 52.30464 46.4513 93.11342 1.92247 1.86653 1.7085.1934 2.21007-.78025-45.79679-66.72861-47.17664-90.63032-46.96218-91.8828z" id="path3523"/></svg>