<svg viewBox="0 0 560 1e3"><path id="path2307-2" d="m304.96842 890.18736c-2.83246 7.11673 2.18029 11.11841 4.78624 25.86022 1.69959 9.35342 2.73056 15.22857 1.59757 20.31195-.11336.40667.0 2.8467.45321 6.10006.67978 5.28672 1.01969 7.93008 2.94586 10.16676 3.2859 3.66004 9.40428 4.88005 14.04975 5.59172 7.02481 1.11835 14.38956 2.23669 19.37498-.915 4.19218-2.74503 4.41882-7.32007 4.53212-12.50512.22664-9.04842-2.73059-9.84019-5.67643-21.1253-1.58634-6.10006-2.03957-10.57343-2.71937-19.01185-.79313-8.54008-.6798-15.55514-.56651-19.52018.0-1.62668.11332-2.8467.11332-3.1517.40077-8.33608-5.49219-18.14378-5.56667-29.13296 1.25193-51.24435 13.801-90.74718 10.765-146.65494-.0941-1.72775-1.48732-21.61666-1.9829-24.94723-.10341-.6953 10.29762-49.18872 10.20596-142.16264-30.06629 9.82075-58.4525 2.26031-80.57105-7.03675 1.99582 34.79121 11.0922 70.69653 14.04174 81.91819 2.8006 16.15259 13.82019 39.22281 21.70138 67.38951-10.68099 32.3008-7.17972 67.9792-.88562 101.24949 3.22776 24.07858 7.58514 45.30806 7.77228 70.33114-1.25739 7.70701-4.71211 6.9975-6.24396 21.03994-.31393 2.59262-.58116 2.90743-1.55526 5.52958-.67979 2.03336-1.35954 3.1517-1.35954 3.1517-1.81288 2.64336-3.85234 3.7617-5.2121 7.52341z" style="display:inline;fill-opacity:1;fill:#000;opacity:1;stroke-width:1.05647123"/><path id="path2307" class="shoe" d="m306.22617 889.4c-2.58007 7 2.27066 8.6 4.6444 23.1 1.54815 9.2 2.88981 17.5 1.85778 22.5-.10326.4.0 2.8.41283 6 .6192 5.2.92882 7.8 2.68336 10 2.9931 3.6 8.56629 4.8 12.79782 5.5 6.39885 1.1 13.10735 2.2 17.64853-.9 3.81863-2.7 4.02507-7.2 4.12828-12.3.20644-8.9-2.88984-12.2-5.57318-23.3-1.44499-6-1.85783-10.4-2.47706-18.7-.72245-8.4-.61922-15.3-.51603-19.2.0-1.6.10322-2.8.10322-3.1.36506-8.19935-5.00279-17.84617-5.07064-28.6551 1.14038-50.4038 12.57124-89.25868 9.80577-144.2494-.0857-1.69941-1.35479-21.26208-1.80621-24.53802-.0942-.6839 12.02731-49.98024 11.94382-141.42913-27.38718 9.65966-59.36404 2.62282-79.51167-6.52174 1.81798 34.22054 12.55183 71.47337 15.23855 82.51096 2.55104 15.88764 13.61347 37.84175 20.79239 65.54644-9.72924 31.77098-6.53996 66.86415-.80671 99.58872 2.94015 23.68362 6.90925 44.56488 7.07972 69.17752-1.14535 7.58059-4.29223 6.88272-5.68758 20.69482-.28596 2.5501-.81403 5.19579-1.70133 7.77493-.61922 2-1.2384 3.1-1.2384 3.1-1.65134 2.6-3.50907 3.7-4.74766 7.4z"/><path id="path2310-7" d="m276.45019 532.01123c.76644 27.02799 4.01847 44.60181 12.12413 67.86136.75087 2.15465 2.13809 6.62853 1.88853 10.88255-.5 8.52315-1.58792 20.17442-2.67787 31.6022-.14635.58096-.7617 17.59051-3.33254 44.67705 12.85909 35.34027 2.70325 72.60942-5.59443 102.7542-2.95916 10.7262-11.2212 41.89084-12.46329 59.79692-.15077 2.17359.85897 4.24547.34364 6.52052.0.0-.6781 5.54746 2.14689 10.0863 1.24311 2.01726 2.14698 2.11812 3.72891 3.83279 4.18102 4.53884 5.76294 11.49839 4.972 16.6424-.67812 4.23625-2.37292 4.23625-4.63294 9.38026-2.37289 5.64833-2.82486 13.9191-3.50291 30.35977-.11295 1.51294-.45197 5.04316-.67811 6.5561-.67796.30259-3.05094.30259-3.84196.0.11307-1.21036.11307-3.53021.11307-4.94229-.33888-8.47249 1.8079-25.51834-.45203-26.42611-1.35583-.60519-5.53684 5.14401-8.47486 10.99407-6.10173 12.30529-3.27684 17.04584-8.24882 21.48382-4.06784 3.83279-8.6217 2.80434-21.61656 2.0983-13.55972-.8069-16.27168-3.83279-16.94979-4.84142-3.16384-4.03453-3.50291-10.89321-.79096-13.21306 1.01711-.90776 1.80807-.50431 4.52002-1.10949 4.97198-1.00863 8.47489-3.42935 9.49169-4.33711 4.06809-3.22762 4.97192-8.4725 5.53712-11.59925 2.4858-13.31392 4.50356-15.79092 5.97261-21.0358 2.83201-7.54756 11.66204-15.53936 16.22994-27.61692.53879-1.56454 2.79642-6.96437 2.57287-10.84659-1.46564-25.45279-2.60099-94.15487-4.98771-131.86844.0-1.7784-3.69131-40.76204-4.24561-45.78289-.0317-.2879-4.76263-13.96854-9.96783-35.47526-5.59609-23.12185-12.87508-62.77463-17.34639-99.48985 30.95557 12.48465 57.56314 3.65057 60.16319 3.05587z" style="display:inline;fill-opacity:1;fill:#000;opacity:1;stroke-width:1.0508604"/><path id="path2310" class="shoe" d="m277.27278 533.6629c.70004 26.79673 10.40632 46.20307 11.53038 70.13111.31877 6.78588-1.16946 24.26879-2.66184 41.25373-.13367.57599-1.15239 16.57248-3.50049 43.42726 11.74497 35.03789 2.46904 71.98815-5.10973 101.875-2.70278 10.63442-10.24899 41.53241-11.38347 59.28527-.13771 2.15499.78455 4.20915.31387 6.46473.0.0-.61935 5.5 1.96088 10 1.13541 2 1.96097 2.1 3.40584 3.8 3.81877 4.5 5.26364 11.4 4.54122 16.5-.61936 4.2-2.16733 4.2-4.23154 9.3-2.1673 5.6-2.58011 13.8-3.19942 30.1-.10316 1.5-.41281 5-.61935 6.5-.61923.3-2.78661.3-3.5091.0.10328-1.2.10328-3.5.10328-4.9-.30952-8.4 1.65126-25.3-.41287-26.2-1.23836-.6-5.05713 5.1-7.7406 10.9-5.57307 12.2-2.99293 16.9-7.53414 21.3-3.7154 3.8-9.70143 3.4-21.57041 2.7-12.38491-.8-14.8619-3.8-15.48126-4.8-2.88973-4-3.19942-10.8-.72243-13.1.92898-.9 1.65142-.5 4.1284-1.1 4.54121-1 7.74063-3.4 8.66933-4.3 3.71563-3.2 4.54115-8.4 5.05738-11.5 2.27043-13.2 4.11337-15.65581 5.45515-20.85581 2.58664-7.48298 12.47835-16.02605 16.65049-28.00027.49211-1.55115 2.55414-6.90479 2.34996-10.75378-1.33866-25.23501-2.37564-93.34925-4.55558-130.74014.0-1.76318-3.37149-40.41326-3.87777-45.39115-.029-.28544-4.6925-13.84901-9.44672-35.17172-5.11125-22.92401-13.5863-62.98109-17.67022-99.38216 28.27358 12.37783 56.68598 3.24754 59.06076 2.65793z"/><path id="path2307-22" class="shoe" d="m306.22617 889.4c-2.58007 7 2.27066 8.6 4.6444 23.1 1.54815 9.2 2.88981 17.5 1.85778 22.5-.10326.4.0 2.8.41283 6 .6192 5.2.92882 7.8 2.68336 10 2.9931 3.6 8.56629 4.8 12.79782 5.5 6.39885 1.1 13.10735 2.2 17.64853-.9 3.81863-2.7 4.02507-7.2 4.12828-12.3.20644-8.9-2.88984-12.2-5.57318-23.3-1.44499-6-1.85783-10.4-2.47706-18.7-.72245-8.4-.61922-15.3-.51603-19.2.0-1.6.10322-2.8.10322-3.1.36506-8.19935-5.00279-17.84617-5.07064-28.6551 1.14038-50.4038 12.57124-89.25868 9.80577-144.2494-.0857-1.69941-1.35479-21.26208-1.80621-24.53802-.0942-.6839 12.02731-49.98024 11.94382-141.42913-27.38718 9.65966-59.36404 2.62282-79.51167-6.52174 1.81798 34.22054 12.55183 71.47337 15.23855 82.51096 2.55104 15.88764 13.61347 37.84175 20.79239 65.54644-9.72924 31.77098-6.53996 66.86415-.80671 99.58872 2.94015 23.68362 6.90925 44.56488 7.07972 69.17752-1.14535 7.58059-4.29223 6.88272-5.68758 20.69482-.28596 2.5501-.81403 5.19579-1.70133 7.77493-.61922 2-1.2384 3.1-1.2384 3.1-1.65134 2.6-3.50907 3.7-4.74766 7.4z"/><path id="path2310-8" class="shoe" d="m277.27278 533.6629c.70004 26.79673 10.40632 46.20307 11.53038 70.13111.31877 6.78588-1.16946 24.26879-2.66184 41.25373-.13367.57599-1.15239 16.57248-3.50049 43.42726 11.74497 35.03789 2.46904 71.98815-5.10973 101.875-2.70278 10.63442-10.24899 41.53241-11.38347 59.28527-.13771 2.15499.78455 4.20915.31387 6.46473.0.0-.61935 5.5 1.96088 10 1.13541 2 1.96097 2.1 3.40584 3.8 3.81877 4.5 5.26364 11.4 4.54122 16.5-.61936 4.2-2.16733 4.2-4.23154 9.3-2.1673 5.6-2.58011 13.8-3.19942 30.1-.10316 1.5-.41281 5-.61935 6.5-.61923.3-2.78661.3-3.5091.0.10328-1.2.10328-3.5.10328-4.9-.30952-8.4 1.65126-25.3-.41287-26.2-1.23836-.6-5.05713 5.1-7.7406 10.9-5.57307 12.2-2.99293 16.9-7.53414 21.3-3.7154 3.8-9.70143 3.4-21.57041 2.7-12.38491-.8-14.8619-3.8-15.48126-4.8-2.88973-4-3.19942-10.8-.72243-13.1.92898-.9 1.65142-.5 4.1284-1.1 4.54121-1 7.74063-3.4 8.66933-4.3 3.71563-3.2 4.54115-8.4 5.05738-11.5 2.27043-13.2 4.11337-15.65581 5.45515-20.85581 2.58664-7.48298 12.47835-16.02605 16.65049-28.00027.49211-1.55115 2.55414-6.90479 2.34996-10.75378-1.33866-25.23501-2.37564-93.34925-4.55558-130.74014.0-1.76318-3.37149-40.41326-3.87777-45.39115-.029-.28544-4.6925-13.84901-9.44672-35.17172-5.11125-22.92401-13.5863-62.98109-17.67022-99.38216 28.27358 12.37783 56.68598 3.24754 59.06076 2.65793z"/><path id="path2307-22-6" class="shoe" d="m306.22617 889.4c-2.58007 7 2.27066 8.6 4.6444 23.1 1.54815 9.2 2.88981 17.5 1.85778 22.5-.10326.4.0 2.8.41283 6 .6192 5.2.92882 7.8 2.68336 10 2.9931 3.6 8.56629 4.8 12.79782 5.5 6.39885 1.1 13.10735 2.2 17.64853-.9 3.81863-2.7 4.02507-7.2 4.12828-12.3.20644-8.9-2.88984-12.2-5.57318-23.3-1.44499-6-1.85783-10.4-2.47706-18.7-.72245-8.4-.61922-15.3-.51603-19.2.0-1.6.10322-2.8.10322-3.1.36506-8.19935-5.00279-17.84617-5.07064-28.6551 1.14038-50.4038 12.57124-89.25868 9.80577-144.2494-.0857-1.69941-1.35479-21.26208-1.80621-24.53802-.0942-.6839 12.02731-49.98024 11.94382-141.42913-27.38718 9.65966-59.36404 2.62282-79.51167-6.52174 1.81798 34.22054 12.55183 71.47337 15.23855 82.51096 2.55104 15.88764 13.61347 37.84175 20.79239 65.54644-9.72924 31.77098-6.53996 66.86415-.80671 99.58872 2.94015 23.68362 6.90925 44.56488 7.07972 69.17752-1.14535 7.58059-4.29223 6.88272-5.68758 20.69482-.28596 2.5501-.81403 5.19579-1.70133 7.77493-.61922 2-1.2384 3.1-1.2384 3.1-1.65134 2.6-3.50907 3.7-4.74766 7.4z"/><path id="path2310-8-4" class="shoe" d="m277.27278 533.6629c.70004 26.79673 10.40632 46.20307 11.53038 70.13111.31877 6.78588-1.16946 24.26879-2.66184 41.25373-.13367.57599-1.15239 16.57248-3.50049 43.42726 11.74497 35.03789 2.46904 71.98815-5.10973 101.875-2.70278 10.63442-10.24899 41.53241-11.38347 59.28527-.13771 2.15499.78455 4.20915.31387 6.46473.0.0-.61935 5.5 1.96088 10 1.13541 2 1.96097 2.1 3.40584 3.8 3.81877 4.5 5.26364 11.4 4.54122 16.5-.61936 4.2-2.16733 4.2-4.23154 9.3-2.1673 5.6-2.58011 13.8-3.19942 30.1-.10316 1.5-.41281 5-.61935 6.5-.61923.3-2.78661.3-3.5091.0.10328-1.2.10328-3.5.10328-4.9-.30952-8.4 1.65126-25.3-.41287-26.2-1.23836-.6-5.05713 5.1-7.7406 10.9-5.57307 12.2-2.99293 16.9-7.53414 21.3-3.7154 3.8-9.70143 3.4-21.57041 2.7-12.38491-.8-14.8619-3.8-15.48126-4.8-2.88973-4-3.19942-10.8-.72243-13.1.92898-.9 1.65142-.5 4.1284-1.1 4.54121-1 7.74063-3.4 8.66933-4.3 3.71563-3.2 4.54115-8.4 5.05738-11.5 2.27043-13.2 4.11337-15.65581 5.45515-20.85581 2.58664-7.48298 12.47835-16.02605 16.65049-28.00027.49211-1.55115 2.55414-6.90479 2.34996-10.75378-1.33866-25.23501-2.37564-93.34925-4.55558-130.74014.0-1.76318-3.37149-40.41326-3.87777-45.39115-.029-.28544-4.6925-13.84901-9.44672-35.17172-5.11125-22.92401-13.5863-62.98109-17.67022-99.38216 28.27358 12.37783 56.68598 3.24754 59.06076 2.65793z"/><path id="path2307-22-6-2" class="shoe" d="m306.22617 889.4c-2.58007 7 2.27066 8.6 4.6444 23.1 1.54815 9.2 2.88981 17.5 1.85778 22.5-.10326.4.0 2.8.41283 6 .6192 5.2.92882 7.8 2.68336 10 2.9931 3.6 8.56629 4.8 12.79782 5.5 6.39885 1.1 13.10735 2.2 17.64853-.9 3.81863-2.7 4.02507-7.2 4.12828-12.3.20644-8.9-2.88984-12.2-5.57318-23.3-1.44499-6-1.85783-10.4-2.47706-18.7-.72245-8.4-.61922-15.3-.51603-19.2.0-1.6.10322-2.8.10322-3.1.36506-8.19935-5.00279-17.84617-5.07064-28.6551 1.14038-50.4038 12.57124-89.25868 9.80577-144.2494-.0857-1.69941-1.35479-21.26208-1.80621-24.53802-.0942-.6839 12.02731-49.98024 11.94382-141.42913-27.38718 9.65966-59.36404 2.62282-79.51167-6.52174 1.81798 34.22054 12.55183 71.47337 15.23855 82.51096 2.55104 15.88764 13.61347 37.84175 20.79239 65.54644-9.72924 31.77098-6.53996 66.86415-.80671 99.58872 2.94015 23.68362 6.90925 44.56488 7.07972 69.17752-1.14535 7.58059-4.29223 6.88272-5.68758 20.69482-.28596 2.5501-.81403 5.19579-1.70133 7.77493-.61922 2-1.2384 3.1-1.2384 3.1-1.65134 2.6-3.50907 3.7-4.74766 7.4z"/><path id="path2310-8-4-2" class="shoe" d="m277.27278 533.6629c.70004 26.79673 10.40632 46.20307 11.53038 70.13111.31877 6.78588-1.16946 24.26879-2.66184 41.25373-.13367.57599-1.15239 16.57248-3.50049 43.42726 11.74497 35.03789 2.46904 71.98815-5.10973 101.875-2.70278 10.63442-10.24899 41.53241-11.38347 59.28527-.13771 2.15499.78455 4.20915.31387 6.46473.0.0-.61935 5.5 1.96088 10 1.13541 2 1.96097 2.1 3.40584 3.8 3.81877 4.5 5.26364 11.4 4.54122 16.5-.61936 4.2-2.16733 4.2-4.23154 9.3-2.1673 5.6-2.58011 13.8-3.19942 30.1-.10316 1.5-.41281 5-.61935 6.5-.61923.3-2.78661.3-3.5091.0.10328-1.2.10328-3.5.10328-4.9-.30952-8.4 1.65126-25.3-.41287-26.2-1.23836-.6-5.05713 5.1-7.7406 10.9-5.57307 12.2-2.99293 16.9-7.53414 21.3-3.7154 3.8-9.70143 3.4-21.57041 2.7-12.38491-.8-14.8619-3.8-15.48126-4.8-2.88973-4-3.19942-10.8-.72243-13.1.92898-.9 1.65142-.5 4.1284-1.1 4.54121-1 7.74063-3.4 8.66933-4.3 3.71563-3.2 4.54115-8.4 5.05738-11.5 2.27043-13.2 4.11337-15.65581 5.45515-20.85581 2.58664-7.48298 12.47835-16.02605 16.65049-28.00027.49211-1.55115 2.55414-6.90479 2.34996-10.75378-1.33866-25.23501-2.37564-93.34925-4.55558-130.74014.0-1.76318-3.37149-40.41326-3.87777-45.39115-.029-.28544-4.6925-13.84901-9.44672-35.17172-5.11125-22.92401-13.5863-62.98109-17.67022-99.38216 28.27358 12.37783 56.68598 3.24754 59.06076 2.65793z"/><path id="path2307-22-6-2-8" class="shoe" d="m306.22617 889.4c-2.58007 7 2.27066 8.6 4.6444 23.1 1.54815 9.2 2.88981 17.5 1.85778 22.5-.10326.4.0 2.8.41283 6 .6192 5.2.92882 7.8 2.68336 10 2.9931 3.6 8.56629 4.8 12.79782 5.5 6.39885 1.1 13.10735 2.2 17.64853-.9 3.81863-2.7 4.02507-7.2 4.12828-12.3.20644-8.9-2.88984-12.2-5.57318-23.3-1.44499-6-1.85783-10.4-2.47706-18.7-.72245-8.4-.61922-15.3-.51603-19.2.0-1.6.10322-2.8.10322-3.1.36506-8.19935-5.00279-17.84617-5.07064-28.6551 1.14038-50.4038 12.57124-89.25868 9.80577-144.2494-.0857-1.69941-1.35479-21.26208-1.80621-24.53802-.0942-.6839 12.02731-49.98024 11.94382-141.42913-27.38718 9.65966-59.36404 2.62282-79.51167-6.52174 1.81798 34.22054 12.55183 71.47337 15.23855 82.51096 2.55104 15.88764 13.61347 37.84175 20.79239 65.54644-9.72924 31.77098-6.53996 66.86415-.80671 99.58872 2.94015 23.68362 6.90925 44.56488 7.07972 69.17752-1.14535 7.58059-4.29223 6.88272-5.68758 20.69482-.28596 2.5501-.81403 5.19579-1.70133 7.77493-.61922 2-1.2384 3.1-1.2384 3.1-1.65134 2.6-3.50907 3.7-4.74766 7.4z"/><path id="path2310-8-4-2-4" class="shoe" d="m277.27278 533.6629c.70004 26.79673 10.40632 46.20307 11.53038 70.13111.31877 6.78588-1.16946 24.26879-2.66184 41.25373-.13367.57599-1.15239 16.57248-3.50049 43.42726 11.74497 35.03789 2.46904 71.98815-5.10973 101.875-2.70278 10.63442-10.24899 41.53241-11.38347 59.28527-.13771 2.15499.78455 4.20915.31387 6.46473.0.0-.61935 5.5 1.96088 10 1.13541 2 1.96097 2.1 3.40584 3.8 3.81877 4.5 5.26364 11.4 4.54122 16.5-.61936 4.2-2.16733 4.2-4.23154 9.3-2.1673 5.6-2.58011 13.8-3.19942 30.1-.10316 1.5-.41281 5-.61935 6.5-.61923.3-2.78661.3-3.5091.0.10328-1.2.10328-3.5.10328-4.9-.30952-8.4 1.65126-25.3-.41287-26.2-1.23836-.6-5.05713 5.1-7.7406 10.9-5.57307 12.2-2.99293 16.9-7.53414 21.3-3.7154 3.8-9.70143 3.4-21.57041 2.7-12.38491-.8-14.8619-3.8-15.48126-4.8-2.88973-4-3.19942-10.8-.72243-13.1.92898-.9 1.65142-.5 4.1284-1.1 4.54121-1 7.74063-3.4 8.66933-4.3 3.71563-3.2 4.54115-8.4 5.05738-11.5 2.27043-13.2 4.11337-15.65581 5.45515-20.85581 2.58664-7.48298 12.47835-16.02605 16.65049-28.00027.49211-1.55115 2.55414-6.90479 2.34996-10.75378-1.33866-25.23501-2.37564-93.34925-4.55558-130.74014.0-1.76318-3.37149-40.41326-3.87777-45.39115-.029-.28544-4.6925-13.84901-9.44672-35.17172-5.11125-22.92401-13.5863-62.98109-17.67022-99.38216 28.27358 12.37783 56.68598 3.24754 59.06076 2.65793z"/><path id="path2314" class="shadow" d="m293.38932 619.9183c-6.68698-22.42067-13.44532-58.61982-17.32056-86.38087-.0127-.0908-.0253-.18166-.038-.2725 1.10765-.0109.56665.0805 1.64168-19e-5.0124.0935.0247.18699.0371.28048 3.65738 27.59919 10.06893 61.66653 15.13681 84.05322z"/></svg>