<svg viewBox="0 0 560 1e3"><path id="path2511" d="m371.32736 269.11727c.23724.8312.8609 7.69486-.0417 14.27511-33.60787-4.288-107.68903-11.96778-135.86236-5.34633.1469-5.03513.75767-11.97481 1.78086-14.68467.24324-.11759 7.5964-2.31292 8.0176-2.59741 12.96984-34.21324 14.33596-34.51518 31.51367-55.13078-.20578-.10769.98637-.32991 2.81284-.93373-14.26623 35.27571-10.07743 51.97809-1.78824 61.45129 10.93146-7.63158 34.10888-19.71829 53.08715-60.31847 2.65591.76603 5.77773 1.30178 5.77773 1.30178 1.90789 18.32918-.0619 41.08452 3.67362 52.92764 3.54725 3.99043 27.41066 5.88529 31.02879 9.05557z" style="display:inline;fill-opacity:1;fill-rule:evenodd;fill:#000;opacity:1;stroke-dasharray:none;stroke-linecap:butt;stroke-linejoin:miter;stroke-miterlimit:4;stroke-opacity:1;stroke-width:0;stroke:#000"/><path id="path2513" d="m370.62182 268.85749c.0772.34995.89241 7.56019.34971 13.98148-48.30237-7.27876-113.61934-10.19159-134.62308-5.80551-.36445-3.75214.992-13.44615.992-13.44615s7.38165-2.19684 8.13211-2.60168c11.82416-30.55624 14.58742-35.11847 31.24259-55.40231.84544-.17546 1.70483-.38601 2.56536-.63893-16.81405 40.48467-8.02175 52.76388-1.59072 61.62392 17.19358-10.88851 38.35632-25.50945 53.62911-60.61021 1.9144.66913 3.96656.65204 5.47599 1.11851-.47031 15.65219.792 46.91864 3.02614 53.74685 3.55484 2.53922 23.86865 5.88116 30.80079 8.03403z" style="display:inline;fill-opacity:1;fill-rule:evenodd;fill:#fae;opacity:1;stroke-dasharray:none;stroke-linecap:butt;stroke-linejoin:miter;stroke-miterlimit:4;stroke-opacity:1;stroke-width:0;stroke:#000"/></svg>