<svg viewBox="0 0 560 1e3"><path d="m345.1 109.5599c-2.40991 42.16334 1.26598 28.16096-19.23402 61.45269-1.89066-.99898-7.3595-39.84872-23.51619-42.23238-22.75811-3.35759-15.65258 41.88669-20.33113 32.99837-15.13336-18.81342-21.04419-4.90315-18.4681-30.62072 2.98982-29.84794 19.14314-57.367236 45.24944-52.264691 33.3 6.5136 33.8 15.015998 36.3 30.666731" class="hair" id="path2039"/><path d="m339.64662 176.34707c-9.62117-2.43072-11.36232-33.16964-.75186-42.4603 9.034 7.46842 7.9605 44.2815.75186 42.4603z" class="hair" id="path2041"/><path d="m341.62885 154.77494c-9.62117-2.43072-11.36232-33.16964-.75186-42.4603 9.034 7.46843 7.9605 44.28151.75186 42.4603z" class="hair" id="path2043"/><path d="m331.5122 195.64842c11.64629 3.67161 4.48115 22.16072 1.13885 30.26578-10.4098-15.55155-11.29799-25.83273-1.13885-30.26578z" class="hair" id="path2045"/><path d="m328.82845 177.09591c-9.42252-3.76011-8.99733-39.81349 2.2358-49.64282 8.48282 9.58515 4.82401 52.46005-2.2358 49.64282z" class="hair" id="path2047"/><path d="m335.88792 200.3938c-9.62117-2.43072-11.36232-33.16964-.75186-42.46031 9.034 7.46843 7.9605 44.28151.75186 42.46031z" class="hair" id="path2049"/><path d="m327.13792 200.70966c-9.62117-2.43072-11.36232-33.16964-.75186-42.4603 9.034 7.46842 7.9605 44.2815.75186 42.4603z" class="hair" id="path2051"/><path d="m277.1372 190.50164c11.64629 3.67161 4.48115 22.16072 1.13885 30.26578-10.4098-15.55155-11.29799-25.83273-1.13885-30.26578z" class="hair" id="path2053"/><path d="m281.51292 195.24702c-9.62117-2.43072-11.36232-33.16964-.75186-42.46031 9.034 7.46843 7.9605 44.28151.75186 42.46031z" class="hair" id="path2055"/><path d="m272.76292 195.56288c-9.62117-2.43072-11.36232-33.16964-.75186-42.4603 9.034 7.46842 7.9605 44.2815.75186 42.4603z" class="hair" id="path2057"/><path d="m272.38138 173.26793c-9.62117-2.43072-11.36232-33.16964-.75186-42.4603 9.034 7.46842 7.9605 44.2815.75186 42.4603z" class="hair" id="path2057-2"/></svg>