<svg viewBox="0 0 560 1e3"><path style="display:inline;fill-opacity:1;fill-rule:evenodd;fill:#fff;opacity:1;stroke-dasharray:none;stroke-linecap:butt;stroke-linejoin:miter;stroke-miterlimit:4;stroke-opacity:1;stroke-width:0;stroke:#000" d="m362.3043 413.36134c-51.41983 14.7906-68.20816 27.42745-79.17838 44.98517-1.04023 1.75909-1.92047 7.35117-4.50173 9.70959-.97785.89343-3.70051-.0277-4.03805.0431-.91345.19159-2.09488.29968-2.84109.24274-1.3589-.10369-3.10427-.97079-4.62926-2.64607-1.15035-1.26373-2.1753-2.98733-2.81436-5.19001-7.02893-7.18923-29.10352-25.91869-38.34145-47.86102.0176-.005-.05-.20603.59439-1.93851 29.91996 7.91079 50.09635 9.90066 135.84413-2.71761.0.0-.0757 5.36388-.0942 5.37262z" id="path2360-8-9-4-5"/><path style="display:inline;fill-opacity:1;fill:#92b5c9;stroke-dasharray:none;stroke-linecap:butt;stroke-linejoin:miter;stroke-miterlimit:4;stroke-opacity:1;stroke-width:0;stroke:#83afc8" d="m225.9378 412.66104c.12717-.79329.24724-.90642.25482-.95601 23.02972 9.12926 67.15581 11.20593 136.30217-3.19252.0291.083-.0614 2.65341-.12368 3.64552-25.76312 6.9173-52.8305 12.31041-79.13649 13.45614-16.60478-.20862-38.99345-1.46893-53.91616-6.38286-.19646-.18478-3.24559-6.42279-3.38066-6.57027z" id="path1180-5-1-9-6-3-3"/><path style="display:inline;fill-opacity:1;fill:#000;stroke-dasharray:none;stroke-linecap:butt;stroke-linejoin:miter;stroke-miterlimit:4;stroke-opacity:1;stroke-width:0;stroke:#83afc8" d="m273.84597 422.32819c-.2328.22148-3.10989-1.76118-4.05675-1.7506-.88928.009-1.34282-.11971-2.27558-.12183-.9589.24822-3.85377 1.69706-4.24975 1.33907-.26898-.42126 1.04376-6.70708 1.3731-6.74802.31674-.42391 2.98965 2.31946 3.2433 2.29256.82267.0992 1.17444.13057 1.9392.0571.22272.0471 4.30259-2.4827 4.68361-2.01247.0.0.51598 5.4778-.65713 6.94427z" id="path1180-5-1-2-5-5"/><path style="display:inline;fill-opacity:1;fill:#92b5c9;stroke-dasharray:none;stroke-linecap:butt;stroke-linejoin:miter;stroke-miterlimit:4;stroke-opacity:1;stroke-width:0;stroke:#83afc8" d="m234.60256 427.93872c16.19921 3.4137 52.20455 5.49343 83.62918 1.15618-1.10723.72649-7.93695 3.83634-12.55858 6.92817-26.13262 3.68145-53.86584 2.2702-65.20689-.14293-1.89388-2.48871-3.84503-4.66458-5.86371-7.94142z" id="path1180-5-1-9-1-3-2-0"/><path style="display:inline;fill-opacity:1;fill:#92b5c9;stroke-dasharray:none;stroke-linecap:butt;stroke-linejoin:miter;stroke-miterlimit:4;stroke-opacity:1;stroke-width:0;stroke:#83afc8" d="m247.95327 444.36444c10.94342 1.31488 29.77745 1.94201 46.09521.52033-1.56759 2.01272-4.3557 4.42382-6.01534 6.52233-12.30604 1.16431-24.74234 1.19698-32.55913.50178-2.13773-1.85907-5.40225-4.9733-7.52074-7.54493z" id="path1180-5-1-9-7-9-5-2"/><path style="display:inline;fill-opacity:1;fill:#92b5c9;stroke-dasharray:none;stroke-linecap:butt;stroke-linejoin:miter;stroke-miterlimit:4;stroke-opacity:1;stroke-width:0;stroke:#83afc8" d="m262.53421 458.18295c6.22871.31514 13.08896.30377 20.72809-.0971-.87505 2.4389-1.64015 4.66739-2.42955 6.53665-5.25319.34928-9.97649.47387-14.24234.41152-1.68576-1.69159-2.0194-4.59693-4.0562-6.85107z" id="path1180-5-1-9-3-1-8-4"/><path style="display:inline;fill-opacity:1;fill:#92b5c9;stroke-dasharray:none;stroke-linecap:butt;stroke-linejoin:miter;stroke-miterlimit:4;stroke-opacity:1;stroke-width:0;stroke:#83afc8" d="m273.77656 422.05078c-.22773.20071-3.04222-1.59607-3.96848-1.58649-.86995.007-1.31362-.10844-2.22606-.1104-.93805.22496-3.76994 1.53796-4.1573 1.21353-.26314-.38175 1.02105-6.0783 1.34323-6.11539.30984-.38418 2.9246 2.10201 3.17272 2.07764.80478.0899 1.1489.11833 1.89701.0517.21788.0427 4.20899-2.24995 4.58171-1.8238.0.0.50475 4.96424-.64283 6.29323z" id="path1180-5-1-3-6-5-3"/><path style="display:inline;fill-opacity:1;fill:#000;stroke-dasharray:none;stroke-linecap:butt;stroke-linejoin:miter;stroke-miterlimit:4;stroke-opacity:1;stroke-width:0;stroke:#83afc8" d="m269.77476 420.5497c-.92245.007-1.3929-.11578-2.36041-.11788-.13054-1.1415-.0278-2.30441.3803-3.01559.85335.096 1.21824.12635 2.0115.0552.54236.49792.13588 2.28954-.0314 3.07827z" id="path1180-5-1-3-0-1-1-0"/><path style="display:inline;fill-opacity:1;fill:#92b5c9;stroke-dasharray:none;stroke-linecap:butt;stroke-linejoin:miter;stroke-miterlimit:4;stroke-opacity:1;stroke-width:0;stroke:#83afc8" d="m269.62401 420.48722c-.78722.007-1.18868-.11089-2.01435-.11289-.1114-1.09313-.0237-2.20674.32455-2.88779.72823.0919 1.03962.121 1.71658.0529.46284.47682.11596 2.19251-.0268 2.94782z" id="path1180-5-1-3-0-4-7-4-3"/><path style="display:inline;fill-opacity:1;fill-rule:evenodd;fill:#000;opacity:1;stroke-dasharray:none;stroke-linecap:butt;stroke-linejoin:miter;stroke-miterlimit:4;stroke-opacity:1;stroke-width:0;stroke:#000" d="m282.94456 458.76549c-.0483.15247-.11284.47208-.19954.90622-.41277 2.06685-1.81439 6.53069-3.87757 8.11265-.26921.20642-1.13559 1.14752-4.57861.28177-.17398-.0437-2.18026 1.1699-4.2783.12449-4.65827-2.32112-6.22252-8.10904-6.31915-8.53686 3.82592 9.08132 8.89939 9.3147 10.40315 7.55401 5.26837 2.79873 7.50839-4.81217 8.85002-8.44228z" id="path6986-5-1-2-3-6"/></svg>