<svg viewBox="0 0 560 1e3"><path style="display:inline;fill-opacity:1;fill-rule:evenodd;fill:#000;opacity:1;stroke-dasharray:none;stroke-linecap:butt;stroke-linejoin:miter;stroke-miterlimit:4;stroke-opacity:1;stroke-width:0;stroke:#000" d="m368.45236 268.83602c.40069 1.40387.82871 12.89967-6.36035 37.77919-5.42713 18.7819-17.12167 31.6625-17.71805 33.12058-6.03534 8.96911-15.45846 21.82266-9.52924 38.69515-33.59892 9.83464-85.2698 13.19244-93.43445-5.62484 2.433-12.49684 2.06627-18.80217 2.23754-34.00531.24452-21.70551-6.08737-33.66342-6.98584-46.20078.40962-35.13389 30.30326-40.0847 52.38713-59.43686.97617-2.02088 1.87249-19.70311-12.03774-26.98259-.63873-.33426 5.30782-3.06919 9.83235-5.47153 9.24713 11.38115 25.18214 3.12903 31.26177-2.13928 1.50252 1.12706 9.10193 4.89722 7.88644 5.69617-25.72677 16.91039-30.9022 28.84774-29.45936 29.06832 3.13994 1.52155 66.54554 33.43249 67.65165 34.25705z" id="path2268"/><path style="display:inline;fill-opacity:1;fill-rule:evenodd;fill:#c8c8c8;opacity:1;stroke-dasharray:none;stroke-linecap:butt;stroke-linejoin:miter;stroke-miterlimit:4;stroke-opacity:1;stroke-width:0;stroke:#000" d="m368.47602 268.56519c-.47811 3.70196-1.71839 20.80284-7.95729 39.14162-6.28969 18.48806-15.58504 28.98279-16.48061 30.27591-7.21871 10.42316-10.74943 15.63218-11.76336 26.60223-.75365 8.15394.0371 7.00194 1.81456 13.74489-31.15729 6.94181-79.55234 13.8184-92.15471-5.49235 2.40743-12.49684 2.93231-28.9245 3.10178-31.79865 1.27707-21.66848-5.53672-33.8742-6.42575-46.41156-3.37265-53.10898 11.96331-79.40858 38.32548-88.64617.49229-.51848 5.43756-2.25669 9.91452-4.65903 9.14993 11.38115 24.91744 3.12903 30.93316-2.13928 1.48672 1.12706 18.23182 7.00546 18.7637 8.34782 44.27723.50597 34.15478 57.22035 31.92852 61.03457z" id="path2270"/><path id="path2276-4" d="m217.41845 465.03881c.10667-.0923-.68511 4.43784-1.94042 9.82589-.11652.50012 11.30318-3.00043 23.34645-2.68738 15.39215.40011 32.76084 4.80119 36.36612 6.43486 27.3515-5.55275 87.9134-1.91457 95.21552 1.04811 2.65835-10.3326-5.45294-43.91959-8.30378-48.23452-2.68621-6.082-11.77109-19.93812-12.39996-21.91039-.0813-.25494-.70857-2.49571-.70857-2.49571-22.65767 4.89275-39.56413 7.60141-60.05248 8.19626-24.22046.7032-47.2185-2.20107-60.45696-7.53731-.0808-.0326-2.68646 6.70753-7.0644 26.0591-2.03466 8.99372-4.96364 19.29113-4.00152 31.30109z" style="display:inline;fill-opacity:1;fill:#000;stroke-dasharray:none;stroke-linecap:butt;stroke-linejoin:miter;stroke-miterlimit:4;stroke-opacity:1;stroke-width:0;stroke:#000"/><path id="path2272" d="m215.45586 474.91455c20.47367-7.92632 54.41137-.23765 59.78866 3.8022.0798-4.49415 1.05695-10.70077 1.29388-11.83066-42.61622-7.91998-56.23048-3.96035-60.15052-2.37407-.0162.94868-.7698 5.74986-.93202 10.40253z" style="fill-opacity:1;fill:#8aa7ff;stroke-dasharray:none;stroke-linecap:butt;stroke-linejoin:miter;stroke-miterlimit:4;stroke-opacity:1;stroke-width:0;stroke:#000"/><path id="path2274" d="m275.2174 478.60926c20.47367-7.92632 89.98768-2.93349 95.36497 1.10636 1.22885-4.40576 1.05695-7.69556 1.29388-8.82545-45.09109-9.06903-92.17692-4.20895-96.09696-2.62267-.0162.94868-.53225 5.73329-.56189 10.34176z" style="fill-opacity:1;fill:#8aa7ff;stroke-dasharray:none;stroke-linecap:butt;stroke-linejoin:miter;stroke-miterlimit:4;stroke-opacity:1;stroke-width:0;stroke:#000"/><path id="path2276" d="m216.33481 465.20903c4.88391-4.22638 38.52677-4.01457 51.81541 1.63139 1.97544 1.15064 3.50554 1.57145 6.35367.81079 1.48394 1.11892 2.74059 1.07367 4.58598-.0894 69.74911-5.15378 92.13481 5.25344 92.68114 4.69854 2.65835-10.3326-3.86195-34.90398-6.71279-39.21891-2.68621-6.082-14.36208-21.59529-14.99095-23.56756-.0813-.25494-1.22374-2.21355-1.22374-2.21355-45.10201 11.9464-93.79805 12.4646-120.26832.58222-.12493-.0561-10.81972 13.82902-12.2404 57.36647z" style="fill-opacity:1;fill:#517cd3;stroke-dasharray:none;stroke-linecap:butt;stroke-linejoin:miter;stroke-miterlimit:4;stroke-opacity:1;stroke-width:0;stroke:#000"/><path id="path2278" d="m226.43714 411.39001c35.65478 14.81043 108.78953 7.12999 124.04699-1.19349-.98086-2.37283-1.00632-2.28871-1.45689-3.1686-58.31295 15.78964-104.54469 8.55584-120.51489.71465-.32556.70561-.85233.93932-2.07521 3.64744z" style="fill-opacity:1;fill:#8aa7ff;stroke-dasharray:none;stroke-linecap:butt;stroke-linejoin:miter;stroke-miterlimit:4;stroke-opacity:1;stroke-width:0;stroke:#000"/><path id="path2280" d="m275.25299 462.86252c-12.30071-3.84341-9.97725-39.56452-8.12905-43.86741.10337-.24065 6.70466-.007 6.80117-.0386-.14286-.008-.28501-.0153-.42641-.0219-4.0967-.18979-7.561.22503-9.12434-.44654-1.55247 9.38892-6.14341 45.13839 10.87863 44.37445z" style="fill-opacity:1;fill:#8aa7ff;stroke-dasharray:none;stroke-linecap:butt;stroke-linejoin:miter;stroke-miterlimit:4;stroke-opacity:1;stroke-width:0;stroke:#000"/><path id="path2282" d="m356.28203 444.8129c-31.56327-6.76001-36.1698-23.53296-36.97785-28.4296-1.02422-.29348-2.03709.77235-2.39603.55362-.0837 1.32642 8.867 25.77488 39.37388 27.87598z" style="fill-opacity:1;fill:#8aa7ff;stroke-dasharray:none;stroke-linecap:butt;stroke-linejoin:miter;stroke-miterlimit:4;stroke-opacity:1;stroke-width:0;stroke:#000"/><path id="path2284" d="m222.23265 435.35375c9.31024-1.01499 16.8449-15.62419 16.03685-20.52083-1.02422-.29348-.41393-.14186-.77287-.36059-.0837 1.32642-2.08336 14.40532-15.26398 20.88142z" style="fill-opacity:1;fill:#8aa7ff;stroke-dasharray:none;stroke-linecap:butt;stroke-linejoin:miter;stroke-miterlimit:4;stroke-opacity:1;stroke-width:0;stroke:#000"/><path id="path3280-7-2-6-6" class="shadow" d="m329.90828 425.67658c-15.4791 1.19068-42.03653 26.26041-44.60913 30.99635 10.29989-9.14088 29.75951-26.28541 44.60913-30.99635z"/><path id="path3282-5-4-0-8" class="shadow" d="m262.16619 457.52487c-6.81704-9.41592-28.83006-31.99347-34.93819-34.15183 5.05404 5.44075 26.5203 25.35081 34.93819 34.15183z"/><path d="m262.98857 459.03749c4.57815 9.39542 7.95428 8.94718 11.45233 8.01034.29456-.0789 5.02218 4.77996 9.26343-8.71666-1.38475 8.70911-4.94655 11.61521-9.3291 9.47151-.0226-.0111-2.82256 1.04466-4.71233.003-2.95847-1.63089-6.486-5.556-6.67433-8.7681z" class="shadow" id="path4347-6"/><path d="m274.84429 467.66511c-.33521 1.70859.19151 9.15085.3994 10.94825-1.47124-.0994-1.90021-9.61487-.3994-10.94825z" class="shadow" id="path4347-6-8-2-3"/></svg>