<svg viewBox="0 0 560 1e3"><path style="fill:#000" id="path2177" d="m234.25969 446.77676c.21036-.0874.55099.0161.74627-.0729 9.29299-4.2313 1.60247-10.31998-.71313-10.02875-6.24904 2.19144-3.8452 8.38695-1.80915 8.72838.0292.0211.24308.54339 1.77599 1.37329z"/><path class="areola" id="path2179" d="m232.58126 444.72847c3.33096 1.99448 7.22734-1.04753 7.19102-2.75065-.97261-2.76036-2.96987-5.23162-5.72546-4.69525-4.30566 1.67424-4.36696 5.06312-2.28003 7.6433.20459.15708.4707-.12062.81447-.1974z"/><path style="fill:#000" id="path2181" d="m254.16612 461.0547c8.73059 2.43258 17.52828 5.25113 20.54491-2.30969.9309-2.61447.3332-4.46434-1.53127-5.14258-7.69692-2.40224-24.0766-9.43993-28.86279-13.94174-.66081-1.01172-.54963-1.1575-1.22182-1.85188-1.4251-1.47213-3.25714-1.32191-4.75445-1.23996-.90233.0494-3.28735-.22826-4.01167.0602-.60843.24233-1.08325.58607-1.42942 1.02459-.10762.13632.71491-.29783.7921-.35601 2.17357-1.63794 10.85706 5.25167 1.17893 9.28653-.89591.37351-3.64042-2.41394-3.61595-2.31887.15655.60855 1.20166 1.56652 2.12131 2.17953.54913.36602 1.17391.50295 1.39639.89584 2.67458 4.72297 8.5714 9.9088 19.39373 13.71393z"/><path style="fill:#000" id="path2183" d="m231.81604 442.58932c.0473.34663.47454 1.04924.93672 1.17586-.004-.0171-.11363-.61533-.11805-.63352-.14951-.61426-.81105-2.42271.26824-4.45244-1.08577 1.22893-1.28172 2.44573-1.08691 3.9101z"/><path id="path2185" class="skin penis" d="m254.67058 460.63048c8.64894 2.40985 16.96041 5.72797 20.3449-1.74165.92218-2.59002.86449-4.06335-.98255-4.73526-8.02485-1.92253-24.96037-9.21089-29.70179-13.67058-.65462-1.00228-.54449-1.14669-1.2104-1.83458-1.41176-1.45835-2.65211-1.80951-4.1354-1.72834-.8939.0488-3.14645-.0936-3.91205.0285.2162.12827.9219.0709 1.85657.71631 1.36382.94192 2.78651 2.53965 2.88256 4.21766.12459 2.17711-3.45114 5.28548-7.13947 3.16197-.1846-.10626-.48486.0977-.61379.14205-.14784.0985 3.46768 2.23835 3.39123 2.4046 2.64955 4.67879 8.49907 9.26973 19.22017 13.03925z"/></svg>