<svg viewBox="0 0 560 1e3"><path style="fill-opacity:1;fill:gray" id="path2484" d="m361.3 240.3c9.9 3.7 9.74165 11.18206 39.84165 25.68206 28.20186 16.59843 39.42329 23.06542 61.83652 29.41206 21.41162 8.84351 33.73778 1.29722 40.93778 11.59722 3.9 5.5 4.48405 6.60866 4.48405 6.60866 1.8 3.2.8875 1.3875 3.5125 6.9 1.08041 4.85333 3.99953 16.71683 5.53407 24.58517 1.72814-5.61735 1.54975-5.05454 2.3934-7.33784.0.0-1.11292-5.9474-1.73023-8.38967-.6531-.6375-1.48974-1.84874-1.51173-1.61462-.0195.20776.71403-1.71188 1.1256-2.30072-.21114-1.46161-.68948-3.1058-.8353-3.98732-.0451-.2727-.76249-1.49815-.98478-2.08166.5756-1.48929.53012-1.86497 1.09647-2.67334-.02-2.76126.0319-5.49386.13107-8.16316.052-1.40052.11708-2.78361.19162-4.14427.0232-.42353.0474-.84489.0723-1.26392.0154-.25802.031-.51516.047-.77138.10341-1.6621.21873-3.28562.33914-4.86097.0346-.45249.0696-.90099.10485-1.3453.30306-3.81823.62526-7.32606.86425-10.37887-.41249.002 3.27511-4.61587 2.93964-4.867-.1407-.10533 2.56452-.74378 5.09498-1.33628.1058-.0248.81074 1.82591 1.60488 4.00818.20158.55395 1.12766-.71449 1.3324-.14307.15339.42813-.41342 2.69782-.26644 3.11096.73673 2.07091 1.34875 3.82016 1.39429 3.91022 1.37108 2.71147 1.93233 3.82181 3.2092 5.98665-.44879-6.97197-.99714-17.31564-5.186-22.52318-.22196-.25934-11.09788 4.08112-11.2476 4.03519-.50113-.15372-10.72501 8.03016-11.22548 8.04613-9.4.4-22.56378-7.71162-45.46378-17.91162-10.4-4.6-15.01269-4.87073-22.01269-8.97073C425.52353 251.31765 416.9 243.9 410.6 238c-26.2-19-35.6-24.7-38.3-25.4-.4-.1-3.1-.8-6.5-2.3-.9-.4-2-.9-3.2-1.6-11.7 3-19 6.2-23.5 9.2-3.9 2.7-6.8 5.7-6.5 8.7.5 5.6 11.9 7.3 28.7 13.7z"/><path style="display:inline;fill-opacity:1;fill:#b3b3b3" id="path2484-9" d="m361.3 240.3c6.91517 2.58446 14.02215 13.59031 30.04767 20.63715.418.18381 4.33969-6.75523 4.76509-6.56709 6.61429 2.92536 16.7522 7.62946 25.27889 11.737-2.31382 3.97164-3.19294 5.28142-5.03144 8.76139 2.50347 1.43755 4.86704 2.77467 7.12952 4.02513.27084.14969 4.21831-9.63936 4.48632-9.49213 6.19056 3.40082 21.15314 10.15176 26.68933 12.54436.26406.11412-4.03419 9.53993-3.76967 9.65245 5.62814 2.39404 4.57534 1.76985 9.79273 3.16445.65565.17526 2.78533-10.4926 3.66473-10.24359 6.47456 2.01883 12.95838 3.76663 18.6467 5.18466.16128.0402-2.99059 10.20514-2.83061 10.24482 1.85137.45911 4.95839.4138 6.60514.79948.19229.045 2.35175-9.56669 2.54082-9.52269 6.26998 1.45925 10.74286 2.34872 11.76795 2.54791.71184 2.98843 2.83278 13.21804 2.83278 13.21804l2.0778 1.48366c1.925 2.6375 4.3875 6.96164 6.84369 11.93309.36077-4.18171 3.1499-8.53626 3.22529-9.4232-.0346-8.81583.0944-17.44332.8362-23.8596-.26297-.086 5.45919-9.25681 5.652-9.77395.15386-.4127-4.45088 1.06152-4.53011.97363-.31688-.35151-9.21779 7.6439-10.33025 7.56789-1.26354-.0863-3.72807-.0804-3.72807-.0804-4.43185.70625-24.30993-8.95862-40.48118-16.58963-8.40514-3.96628-17.88542-6.74797-28.19232-12.26989-.039-.0209-1.85474 2.38378-1.63879 2.48832 6.59839 3.19414 62.85357 26.39695 69.40792 28.44305-.48112 1.00748-.74148 1.50825-.78309 1.5038-2.56092-.2738-6.81184-1.16959-11.66653-2.41767-.1244-.032.6258-3.6892.50062-3.72164-1.97894-.51286-3.28723-1.60514-5.38299-2.21344-.14834-.043-1.93695 4.06145-2.08549 4.01802-6.84236-2.00094-13.86747-4.40034-18.57206-6.57669-.38272-.17705 1.73152-7.73 1.3427-7.90883-1.76093-.80987-3.58483-1.63758-5.47507-2.47952-.49803-.22028-3.49767 8.47499-4.00266 8.27416-8.31079-3.30519-16.81575-6.6984-26.61507-11.54722-.24399-.12072 5.40934-7.66381 5.17216-7.80982-1.66552-1.0253-3.42893-2.19437-5.31757-3.5447-.23334.90528-5.09577 8.11308-5.46853 7.78941C414.22183 252.14812 398.72544 232.58176 393.35 225.375 379.4 215.875 375 213.3 372.3 212.6c-.4-.1-3.1-.8-6.5-2.3-.9-.4-2-.9-3.2-1.6-11.7 3-19 6.2-23.5 9.2-3.9 2.7-6.8 5.7-6.5 8.7.5 5.6 11.9 7.3 28.7 13.7z"/></svg>