<svg viewBox="0 0 560 1e3"><path id="path4810" class="hair" d="m303.0626 109.79942c-9.40501-10.613542-15.25367-22.300357-19.86275-43.475019-.14817-.680718-1.55604-5.483947-1.60135-6.151724-.0448-.659991 1.27177 2.815287 1.33111 2.173102.30607-3.311903 2.02119-6.352886 5.39507-8.770815.64547-.462585 3.87496-5.030015 4.6436-5.444524.69062-.372429-1.09165 3.403192-.29893 3.073352 2.18248-.908097 4.75677-1.648014 7.74933-2.182427 1.13576-.202825 7.89038-3.519255 9.14808-3.660838 1.22315-.137693-3.05397 2.897744-1.71279 2.821779 1.67485-.09486 3.44278-.140132 5.30637-.132149 1.22634.0053 11.59812-1.82259 12.90805-1.770176 1.17256.421069-6.81555 2.696813-5.75355 3.114858 3.71503 1.462393 6.77058 2.905897 9.28592 4.327808.98996.559621 8.07249 1.490083 8.90236 2.042846.75985.50612-4.7206.635109-4.08329 1.135213 3.45331 2.709831 5.18981 5.329554 6.09741 7.839023.44507 1.230639 3.89345 8.99667 4.04456 10.171904.19951 1.551778-2.96864-3.508722-2.85806-2.063151.78586 10.273063-33.76922 41.373778-38.64114 36.950938z"/><path id="path4812" d="m296.65381 84.935744c2.12991-2.969313 45.04804-34.033469 49.62595-32.328832.0138.453588 3.58529 5.808303 3.11718 5.918709-8.28438 1.953827-50.33153 25.287791-52.74313 26.410123z" style="fill:#2b1100"/><path id="path4814" d="m329.35454 91.472571c-3.29027.30327-51.01073-34.439785-53.19964-39.47284.26415-.330467 3.60252-4.976323 3.99827-4.661812 7.00364 5.565904 46.82832 42.903551 49.20137 44.134652z" style="fill:#2b1100"/></svg>