<svg viewBox="0 0 560 1e3"><g data-transform="belly" transform="matrix(1.014792,0,0,1.0059302,-4.1476732,-2.5734225)" id="g5724"><path d="m274.8 433.8c20.7-1.5 47.7-4.5 61.9-42.4 13.1-44.3-27.8-99.6-59.9-101.5-40.1 6.2-61.8 42.8-63.9 96.9 2.2 31 33.1 49 61.9 47z" class="shadow" id="path5677"/><path d="m274.8 433.8c20.8.1 49.4-13 61.9-42.4s-18.5-83.4-46-101.7c-6.5-4.3-38.7-8.2-40.4.0-2.6 11.6-44.9 33.3-41.4 96.8 1.8 34.8 45.1 47.2 65.9 47.3z" id="path5679" style="fill-opacity:1;fill:#725d49"/><path style="display:inline;fill-opacity:1;fill:#000;opacity:1;stroke-dasharray:none;stroke-linecap:butt;stroke-linejoin:miter;stroke-miterlimit:4;stroke-opacity:1;stroke-width:0;stroke:#000" d="m260.88817 432.7846c-.0664.037-1.81037-.34954-2.00401-.38144-3.40999-.56245-15.43033-84.19867 24.55202-142.60228.0.0 5.54719-.10058 8.15973.27118-35.26367 69.382-28.12767 111.89146-23.44542 143.58146z" id="path5684"/><path style="display:inline;fill-opacity:1;fill:#725d49;opacity:1;stroke-dasharray:none;stroke-linecap:butt;stroke-linejoin:miter;stroke-miterlimit:4;stroke-opacity:1;stroke-width:0;stroke:#000" d="m259.5088 432.78461c-.0664.037-1.81037-.34955-2.00401-.38145-3.40999-.56245-15.43032-84.19867 24.55202-142.60228.0.0 6.06979-.80352 8.68233-.43176-35.26367 69.382-28.65027 112.5944-23.96802 144.2844z" id="path5697"/><path id="path5699" d="m261.57504 382.368a3.005204 3.1377864.0 01-3.0052 3.13779 3.005204 3.1377864.0 01-3.00521-3.13779 3.005204 3.1377864.0 013.00521-3.13779 3.005204 3.1377864.0 013.0052 3.13779z" style="display:inline;fill-opacity:1;fill-rule:nonzero;fill:#c8ab37;opacity:1;stroke-dasharray:none;stroke-linecap:butt;stroke-linejoin:round;stroke-miterlimit:4;stroke-opacity:1;stroke-width:0;stroke:#000"/><path id="path5705" d="m263.95072 361.17327a3.005204 3.1377864.0 01-3.0052 3.13779 3.005204 3.1377864.0 01-3.00521-3.13779 3.005204 3.1377864.0 013.00521-3.13779 3.005204 3.1377864.0 013.0052 3.13779z" style="display:inline;fill-opacity:1;fill-rule:nonzero;fill:#c8ab37;opacity:1;stroke-dasharray:none;stroke-linecap:butt;stroke-linejoin:round;stroke-miterlimit:4;stroke-opacity:1;stroke-width:0;stroke:#000"/><path id="path5713" d="m269.34743 337.07036a3.005204 3.1377864.0 01-3.0052 3.13779 3.005204 3.1377864.0 01-3.00521-3.13779 3.005204 3.1377864.0 013.00521-3.13779 3.005204 3.1377864.0 013.0052 3.13779z" style="display:inline;fill-opacity:1;fill-rule:nonzero;fill:#c8ab37;opacity:1;stroke-dasharray:none;stroke-linecap:butt;stroke-linejoin:round;stroke-miterlimit:4;stroke-opacity:1;stroke-width:0;stroke:#000"/><path id="path5715" d="m277.80958 311.82032a3.005204 3.1377864.0 01-3.0052 3.13779 3.005204 3.1377864.0 01-3.00521-3.13779 3.005204 3.1377864.0 013.00521-3.13779 3.005204 3.1377864.0 013.0052 3.13779z" style="display:inline;fill-opacity:1;fill-rule:nonzero;fill:#c8ab37;opacity:1;stroke-dasharray:none;stroke-linecap:butt;stroke-linejoin:round;stroke-miterlimit:4;stroke-opacity:1;stroke-width:0;stroke:#000"/><path id="path5718" d="m289.23056 290.67143a3.005204 3.1377864.0 01-3.0052 3.13779 3.005204 3.1377864.0 01-3.00521-3.13779 3.005204 3.1377864.0 013.00521-3.13779 3.005204 3.1377864.0 013.0052 3.13779z" style="display:inline;fill-opacity:1;fill-rule:nonzero;fill:#c8ab37;opacity:1;stroke-dasharray:none;stroke-linecap:butt;stroke-linejoin:round;stroke-miterlimit:4;stroke-opacity:1;stroke-width:0;stroke:#000"/><path style="display:inline;fill-opacity:1;fill:#000;opacity:1;stroke-dasharray:none;stroke-linecap:butt;stroke-linejoin:miter;stroke-miterlimit:4;stroke-opacity:1;stroke-width:0;stroke:#000" d="m212.12081 350.93153c.007-.14856 3.7816-12.84615 4.37914-12.47882 5.64391 3.46962 114.97976 6.10479 115.31578 3.11319.0349-.31072 5.20148 11.02384 4.45689 13.17687.0797 2.0576-123.24724-.193-124.15181-3.81124z" id="path5904-4"/><path style="display:inline;fill-opacity:1;fill:#4d351f;opacity:1;stroke-dasharray:none;stroke-linecap:butt;stroke-linejoin:miter;stroke-miterlimit:4;stroke-opacity:1;stroke-width:0;stroke:#000" d="m212.21564 350.3452c.007-.13533 3.47031-11.66633 4.06785-11.33169 5.64391 3.16074 115.35748 5.87842 115.6935 3.15314.0349-.28305 4.39792 10.15879 3.65333 12.12016.0797 1.87442-122.51011-.64543-123.41468-3.94161z" id="path5952-0"/><path id="path5954-8" d="m249.75471 348.27798a1.2374377 1.3479245.0 01-1.23743 1.34792 1.2374377 1.3479245.0 01-1.23744-1.34792 1.2374377 1.3479245.0 011.23744-1.34793 1.2374377 1.3479245.0 011.23743 1.34793z" style="display:inline;fill-opacity:1;fill-rule:nonzero;fill:#000;opacity:1;stroke-dasharray:none;stroke-linecap:butt;stroke-linejoin:round;stroke-miterlimit:4;stroke-opacity:1;stroke-width:0;stroke:#000"/><path id="path5956-7" d="m245.38744 340.9921c-.13407 4.49535-.24689 8.51068-.37141 13.70453.57028.0149 7.76933.54609 7.76598.1917-79e-5-.10042.27306-1.48207-.1108-1.56117-.41402-.0853-6.04016.10448-5.96194-.37944.0589-.36453.26808-7.90349.32354-9.76216.0102-.34903 6.24425.0771 6.28073-.22054.18908-1.54351.0982-1.79181-.19654-1.94752-5.0226-.1235-7.67079-.5136-7.72956-.0255z" style="display:inline;fill-opacity:1;fill-rule:nonzero;fill:#c8ab37;opacity:1;stroke-dasharray:none;stroke-linecap:butt;stroke-linejoin:round;stroke-miterlimit:4;stroke-opacity:1;stroke-width:0;stroke:#000"/><path id="path5958-3" d="m243.84254 349.38064c.007-.34903 4.36392.0771 4.38941-.22054.13214-1.54351.0686-1.79181-.13736-1.94752-3.51014-.1235-3.96314-.1386-4.26628.006-.15519.4129-.14772 1.04986.0142 2.16231z" style="display:inline;fill-opacity:1;fill-rule:nonzero;fill:#c8ab37;opacity:1;stroke-dasharray:none;stroke-linecap:butt;stroke-linejoin:round;stroke-miterlimit:4;stroke-opacity:1;stroke-width:0;stroke:#000"/><path id="path5960-6" d="m264.55861 341.53129c-.13407 4.49535-.24689 8.51068-.37141 13.70453.57028.0149 7.76933.54609 7.76598.1917.12639-4.45155.47388-13.129.33499-13.87083-5.0226-.1235-7.67079-.5136-7.72956-.0255z" style="display:inline;fill-opacity:1;fill-rule:nonzero;fill:#000;opacity:1;stroke-dasharray:none;stroke-linecap:butt;stroke-linejoin:round;stroke-miterlimit:4;stroke-opacity:1;stroke-width:0;stroke:#000"/><path id="path5962-9" d="m264.844 341.7427c-.12429 4.35741-.22887 8.24952-.3443 13.28399.52865.0145 7.20214.52933 7.19904.18582.11716-4.31495.43928-12.72612.31053-13.44519-4.65593-.11972-7.1108-.49784-7.16527-.0247z" style="display:inline;fill-opacity:1;fill-rule:nonzero;fill:#4d351f;opacity:1;stroke-dasharray:none;stroke-linecap:butt;stroke-linejoin:round;stroke-miterlimit:4;stroke-opacity:1;stroke-width:0;stroke:#000"/><path id="path5964-6" d="m258.72613 348.78621a1.2374377 1.3479245.0 01-1.23743 1.34792 1.2374377 1.3479245.0 01-1.23744-1.34792 1.2374377 1.3479245.0 011.23744-1.34793 1.2374377 1.3479245.0 011.23743 1.34793z" style="display:inline;fill-opacity:1;fill-rule:nonzero;fill:#000;opacity:1;stroke-dasharray:none;stroke-linecap:butt;stroke-linejoin:round;stroke-miterlimit:4;stroke-opacity:1;stroke-width:0;stroke:#000"/><path id="path5966-7" d="m279.23223 349.44912a1.2374377 1.3479245.0 01-1.23743 1.34792 1.2374377 1.3479245.0 01-1.23744-1.34792 1.2374377 1.3479245.0 011.23744-1.34793 1.2374377 1.3479245.0 011.23743 1.34793z" style="display:inline;fill-opacity:1;fill-rule:nonzero;fill:#000;opacity:1;stroke-dasharray:none;stroke-linecap:butt;stroke-linejoin:round;stroke-miterlimit:4;stroke-opacity:1;stroke-width:0;stroke:#000"/><path id="path5968-9" d="m291.03207 349.58171a1.2374377 1.3479245.0 01-1.23743 1.34792 1.2374377 1.3479245.0 01-1.23744-1.34792 1.2374377 1.3479245.0 011.23744-1.34793 1.2374377 1.3479245.0 011.23743 1.34793z" style="display:inline;fill-opacity:1;fill-rule:nonzero;fill:#000;opacity:1;stroke-dasharray:none;stroke-linecap:butt;stroke-linejoin:round;stroke-miterlimit:4;stroke-opacity:1;stroke-width:0;stroke:#000"/><path id="path5970-2" d="m238.73199 347.60738a1.2374377 1.3479245.0 01-1.23743 1.34792 1.2374377 1.3479245.0 01-1.23744-1.34792 1.2374377 1.3479245.0 011.23744-1.34793 1.2374377 1.3479245.0 011.23743 1.34793z" style="display:inline;fill-opacity:1;fill-rule:nonzero;fill:#000;opacity:1;stroke-dasharray:none;stroke-linecap:butt;stroke-linejoin:round;stroke-miterlimit:4;stroke-opacity:1;stroke-width:0;stroke:#000"/><path id="path5962-5-8" d="m293.85632 342.80917c-.12429 4.19042-.22887 7.93339-.3443 12.77492.52865.014 7.20214.50904 7.19904.17869 7.9285-2.19551 8.34159-5.6957 8.22628-6.2284-.11049-.51047-1.0958-4.76309-7.91575-6.70154-4.65593-.11513-7.1108-.47876-7.16527-.0237z" style="display:inline;fill-opacity:1;fill-rule:nonzero;fill:#000;opacity:1;stroke-dasharray:none;stroke-linecap:butt;stroke-linejoin:round;stroke-miterlimit:4;stroke-opacity:1;stroke-width:0;stroke:#000"/><path id="path5962-5-4-4" d="m293.23113 343.50505c-.12505 3.7817-.23026 7.15956-.34639 11.52885.53186.0126 7.24588.4594 7.24275.16128 7.97665-1.98137 8.39224-5.14015 8.27624-5.6209-.11116-.46066-1.10246-4.29849-7.96382-6.04786-4.6842-.10391-7.15398-.43206-7.20878-.0214z" style="display:inline;fill-opacity:1;fill-rule:nonzero;fill:#4d351f;opacity:1;stroke-dasharray:none;stroke-linecap:butt;stroke-linejoin:round;stroke-miterlimit:4;stroke-opacity:1;stroke-width:0;stroke:#000"/></g></svg>