<svg viewBox="0 0 560 1e3"><path class="glasses" d="m261.15876 131c-.2143 1-.38395 3.625.90186 5.125 1.28582 1.4 3.32169 1.6 7.60774 1.9 4.71465.3 7.17913.4 8.67924-.8 1.92873-1.5 2.20553-4.725 2.20553-6.125.96436.0 1.82157.0 2.78593-.1h3.00023c-.32145 1.5-.64291 4.5 1.28582 6.6.85721.9 2.35732 2 12.10808 1.7 11.67948-.3 13.28675-1.8 13.8225-2.7 1.17867-1.8.75006-4 .32146-5.5 6.10761.0 12.21523-.1 18.32285-.1v2.1L315.48441 133c.10716 1.2.10716 2.9-.96436 4.4-.6429 1-2.46447 2.8-14.57256 2.9-10.60797.2-12.32238-1.2-13.17959-2.2-1.50012-1.7-1.60727-3.9-1.39297-5.4h-3.85744c-.10715 1.1-.49111 3.625-1.99122 5.025-1.82157 1.6-4.50035 1.5-9.75076 1.2-4.6075-.3-6.96483-.4-8.25064-2.1-.96436-1.2-.90186-3.325-.79471-4.225.10715-.4.2143-.9.4286-1.6z" id="path654"/></svg>