<svg viewBox="0 0 560 1e3"><path style="display:inline;fill-opacity:1;fill-rule:evenodd;fill:#000;opacity:1;stroke-dasharray:none;stroke-linecap:butt;stroke-linejoin:miter;stroke-miterlimit:4;stroke-opacity:1;stroke-width:0;stroke:#000" d="m369.70236 252.58602c.23724.8312-2.3266 34.28861-7.13541 46.40011-33.60787-4.288-97.46882-10.54414-125.64215-3.92269-3.9156-19.75388 5.58242-46.42393 6.60561-49.13379 17.34143-11.82315 22.98495-27.37566 33.20506-40.29646-.20578-.10769.98637-.32991 2.81284-.93373-3.68896 22.23095 44.18084 11.81257 51.29891 1.13282 2.65591.76603 5.77773 1.30178 5.77773 1.30178-2.50817 38.73816 13.81431 35.96141 33.07741 45.45196z" id="path3086"/><path style="display:inline;fill-opacity:1;fill-rule:evenodd;fill:#333;opacity:1;stroke-dasharray:none;stroke-linecap:butt;stroke-linejoin:miter;stroke-miterlimit:4;stroke-opacity:1;stroke-width:0;stroke:#000" d="m369.72602 252.31519c-.23212 1.79731-3.46179 34.91499-7.47324 46.11753-48.30237-7.27876-103.33663-9.01795-124.34037-4.63187-4.0832-13.06464 5.75425-47.64527 5.75425-47.64527 17.76844-9.12056 22.45836-26.39457 33.04849-40.57226.84544-.17546 1.70483-.38601 2.56536-.63893-4.82898 22.98057 45.03234 14.37734 52.03839 1.01371 1.9144.66913 3.96656.65204 5.47599 1.11851-2.52959 33.39255 5.10091 36.93935 32.93113 45.23858z" id="path3088"/></svg>