<svg viewBox="0 0 560 1e3"><path id="path8114" d="m184.80125 426.97769c.53582-.22254 1.40345.0408 1.90085-.18574 23.67014-10.77753 4.08166-26.28601-1.81643-25.54422-15.91692 5.58182-9.79407 21.3624-4.60807 22.23205.0744.054.61915 1.38405 4.52363 3.49791z" style="fill:#000"/><path id="path8116" d="m180.52613 421.76047c8.4843 5.08012 18.40876-2.66816 18.31625-7.00619-2.47733-7.0309-7.56455-13.32544-14.58331-11.95924-10.96694 4.26445-11.12309 12.89626-5.80744 19.46823.5211.4001 1.19891-.30723 2.0745-.5028z" class="areola"/><path id="path8118" d="m235.5049 463.34497c22.23769 6.19602 44.64624 13.37516 52.32987-5.883 2.37111-6.65931.84873-11.37111-3.90028-13.09868-19.60481-6.11871-61.32545-24.0444-73.51634-35.51094-1.68315-2.57698-1.39997-2.94826-3.11209-4.71693-3.62988-3.74967-8.29626-3.36704-12.11005-3.15832-2.29834.12574-8.37323-.58136-10.21811.15333-1.54976.61723-2.75916 1.49276-3.64089 2.60972-.27413.34721 1.82095-.75861 2.01755-.90681 5.5363-4.17199 27.65401 13.37651 3.00285 23.65371-2.28195.95136-9.27248-6.14856-9.21018-5.90641.39876 1.55004 3.06076 3.99011 5.4032 5.55151 1.39868.93229 2.99005 1.28106 3.55676 2.28177 6.81238 12.02989 21.83217 25.2387 49.39771 34.93073z" style="fill:#000"/><path id="path8120" d="m178.57704 416.31183c.12052.8829 1.20871 2.67252 2.38592 2.99506-.0109-.0437-.28942-1.56732-.30067-1.61364-.38082-1.56458-2.06584-6.17088.68324-11.34082-2.76557 3.13022-3.26467 6.22954-2.76849 9.9594z" style="fill:#000"/><path id="path8122" class="skin penis" d="m236.6941 462.19265c22.02968 6.13808 43.19981 14.58967 51.82044-4.43622 2.34891-6.59702 2.20196-10.3497-2.50266-12.06112-20.44006-4.89689-63.57649-23.46105-75.65336-34.82034-1.6674-2.55289-1.38686-2.92071-3.08299-4.67282-3.59593-3.7146-6.75518-4.60905-10.53328-4.40226-2.27686.12456-8.01432-.23823-9.96438.0728.55067.32672 2.3482.1803 4.72885 1.82451 3.47378 2.39915 7.09754 6.46872 7.34218 10.74279.31734 5.54531-8.79037 13.46262-18.18493 8.05386-.47019-.27068-1.23496.24883-1.56338.36178-.37657.2508 8.83252 5.70131 8.6378 6.12477 6.74865 11.91736 21.64794 23.61092 48.95567 33.21227z"/></svg>