<svg viewBox="0 0 560 1e3"><path class="hair" id="path1939" d="m301.98242 67.177734c-12.20347.332259-23.65934 8.349861-33.13086 20.320313-3.31663 3.490464-5.9587 7.405345-7.95703 11.761719-.13059.22409-.26906.438534-.39844.664062-.57775 1.007152-.82998 1.740422-.81836 2.255862-1.66835 7.8622-2.27727 10.89833 2.60858 31.08644.23574-.49704.4668-.99635.69342-1.49706.044-.0971 1.15025 1.99321 1.19387 1.89599.48559-1.08213.54455-1.79502.99209-2.87996.0391-.0949-.57815-2.75223-.53924-2.84705 5.63868-11.34494 5.18149-23.38631 15.18434-22.42965.13438.0274.27223.0771.41352.15162 2.05791 1.08519 3.14435 4.41673 5.34696 8.86782.28972.58548-1.46375-5.37218-1.13066-4.75053 2.23675 4.17444 7.62103 15.6692 13.46641 20.58282.16493.13864-6.0858-9.27784-7.05867-11.71844-1.81289-4.54794-3.89429-11.6484-3.51643-11.5544 1.55516.3869 4.98938 5.7467 14.29179 4.6266.37428-.0466-3.48671-1.13208-5.24864-2.62071-4.07828-3.44565-.59924-1.9803.71115-.99067 1.04097.37502 7.70867 6.56974 17.12177 8.49509.76441.15635-3.21606-1.94568-4.88867-3.53265-2.5214-2.39231-.95121-3.39116.18244-3.05083 3.25821.97815 12.36773 8.80239 14.79906 9.89425.37793.16972-1.22709-1.40719-1.65208-2.07621-1.02048-1.60645-1.97694-3.45435-1.06613-2.90768 1.14887.68955 2.33196 1.47991 3.60687 2.41146.51668.36967 1.05432.74108 1.61524 1.11523 1.57368 10.71247-2.70959 40.14059.28832 48.83793.1467.1699 2.8528-20.16334 3.10215-21.08441.72947-2.69458.82037 9.56162 1.32925 7.5193.99404-3.98945 1.43659-23.94804 1.90337-23.82109 2.28317-2.45784 5.88644-5.06815 10.03862-20.15332 1.25939-3.26452 1.14251-6.04929.6964-9.21139-2.14168-15.160447-4.61395-26.089453-35.22525-32.708112-2.33922-.505386-4.66027-.714823-6.95508-.652344z"/><path d="m263.20808 165.4618c.93409-5.24648 1.96866-6.17893 1.6772-8.25096-.0538-.38213.34948-1.84974-.0942-3.79548-1.21296-5.31931-1.95624-15.32742-.18477-20.31544.56655-1.59528-1.57327-2.50453-1.58062-2.46055.26706 1.42858-1.71292 21.76556.1824 34.82243z" class="hair" id="path1945-2-1"/><path d="m353.22767 72.597619c9.84269 5.146097 10.64111 13.846317 9.15997 22.585895-.0767.452539 1.3431 6.399376 1.25512 6.851636-.0695.35745-2.69509-2.469888-2.42754-2.12775.0554.07082.0761.44863.0761.44863.002.59712.92007 7.26535.81512 7.67428-.10633.41435-2.223-3.45949-2.33146-3.04942-.37651 1.42351.12272.66287-.23783 2.01321-1.54613 5.79067-5.40487 7.46085-5.53385 7.48177-.0598.01-1.14043-2.88273-1.44454-2.99566-.17489-.0649-1.98142 8.47488-2.35996 8.48042-.19556.003-4.06753-9.74445-4.24843-9.79746-.16185-.0474.36936 4.90838-.20174 4.09877-.0891-.12638-10.86368-19.504979-11.86765-35.919081-11.45002-3.505973-9.98389-8.494712 7.17375-10.397596 3.60873-.01213 6.22631.521943 8.1347 1.343123 2.01315 1.024419 3.35571 2.244229 4.03826 3.309233z" class="hair" id="path1945-5"/><path d="m261.60013 71.605606c-9.84269 5.146096-10.64111 13.846318-9.15997 22.585897.0767.452539-1.3431 6.399377-1.25512 6.851637.0695.35745 2.69509-2.46989 2.42754-2.127751-.0554.07082-.0761.44864-.0761.44864-.002.597111-.92007 7.265341-.81512 7.674271.10633.41434 2.223-3.45949 2.33146-3.04942.37651 1.42351-.12272.66287.23783 2.01321 1.54613 5.79067 5.40487 7.46084 5.53385 7.48177.0598.01 1.14043-2.88273 1.44454-2.99566.17489-.0649 1.98142 8.47488 2.35996 8.48042.19556.003 4.06753-9.74445 4.24843-9.79746.16185-.0474-.36936 4.90838.20174 4.09877.0891-.12638 10.86368-19.50498 11.86765-35.919083 11.45002-3.505975 9.98389-8.494712-7.17375-10.397595-3.60873-.01212-6.22631.521941-8.1347 1.343122-2.01315 1.024421-3.35571 2.244227-4.03826 3.309232z" class="hair" id="path1945-2-0"/><path d="m270.26617 87.912232c.85804-6.798028 41.63489-19.245017 64.29058 4.029195 1.01924 1.047066.22484 1.746899.93279 3.134269-27.88117-24.042094-55.70447-10.60739-65.22337-7.163464z" id="path2070-4-8-9-8" style="display:inline;fill:#000"/></svg>