<svg viewBox="0 0 560 1e3"><path d="m257.4783 402.73704c-2.78033-21.86417 6.71761-43.33758 17.4792-43.21096 9.0301.10625 15.41166 9.36146 13.96658 38.62804-1.15047-9.59516-29.81605-15.02161-31.44578 4.58292z" id="path4631" style="display:inline;fill-opacity:.31372549;fill:#464646;stroke-width:1.13587761"/><path d="m287.21025 450.16476c.009 3.27419-.43311 12.89859-1.37001 18.7484-7.2706 1.78082-24.41843 1.02055-27.17637-.008.0218.17905-.10397-10.84928-.10397-10.84928-.42066-3.08233.0677-6.34554 2.52263-7.47405 2.82079-1.29672 25.12433-3.16076 26.12772-.41707z" id="path4633" style="display:inline;fill:#000;stroke-width:1.22414088"/><path d="m287.41985 449.18686c-1.07131 6.20563-.80162 13.16309-2.40744 19.04129-7.2706 1.78082-23.65682.88797-26.41476-.14019.0218.17905-.41275-9.90669-.41275-9.90669.26013-1.78286-1.14605-8.14135.23658-8.46747 10.2409-2.41553 28.34208 2.71174 28.99837-.52694z" id="path4635" style="fill:#cd87de;stroke-width:1.22414088"/><path class="skin torso" d="m257.56469 402.59399c2.88111-23.72279 9.23931-43.85051 17.48684-43.41533 7.86135.4148 12.24529 17.24716 13.82738 38.70495-3.44189-4.47528-25.22995-13.59138-31.31422 4.71038z" id="path4637"/><path id="path4639" d="m348.52978 406.0731c.17594.29463.23456.36287.14343.43358-7.58199 5.88234-28.75619 14.08712-52.70049 35.19948-3.28893 2.89995-6.35829 6.64167-8.68925 9.82738-10.61893-1.94186-22.3248-1.44748-29.52113.60579-7.81232-10.86338-20.98332-31.99024-32.30738-38.33727.11113-.0316.41697-.90137.51991-1.06255.0911-.14259.27446.0925.40697.19488 8.62097 6.66128 28.54067 25.66388 34.074 30.5294 9.4967 8.35057 14.46863 4.85299 24.82235-1.55712 12.31913-7.62691 34.81663-23.48552 63.14221-35.95854z" style="display:inline;fill-opacity:1;fill-rule:evenodd;fill:#1a1a1a;opacity:1;stroke-dasharray:none;stroke-linecap:butt;stroke-linejoin:miter;stroke-miterlimit:4;stroke-opacity:1;stroke-width:0;stroke:#000"/></svg>