<svg viewBox="0 0 560 1e3"><path id="path8160" d="m368.45236 268.83602c.40069 1.40387.82871 12.89967-6.36035 37.77919-5.42713 18.7819-20.56882 29.98312-21.1652 31.4412-2.88475 4.63162-4.57729 5.99939-6.42705 9.48318-2.27853 4.29134-5.98536 8.27662-6.75307 11.59276-71.19648 5.79431-68.99793 1.41474-84.65344-3.11614.76962-6.36272.50236-12.58139.55456-17.21542.24452-21.70551-6.08737-33.66342-6.98584-46.20078-3.93289-35.5451 10.87515-60.07425 40.78061-86.70162-.63873-.33426 5.05338-3.31735 9.40113-5.18936 9.24713 11.38115 25.18214 3.92453 31.26177-1.34378 1.50252 1.12706 19.53176 7.19531 18.31627 7.99426 3.53155 18.54525 9.48855 44.4579 32.03061 61.47651z" style="display:inline;fill-opacity:1;fill-rule:evenodd;fill:#000;opacity:1;stroke-dasharray:none;stroke-linecap:butt;stroke-linejoin:miter;stroke-miterlimit:4;stroke-opacity:1;stroke-width:0;stroke:#000"/><path id="path8162" d="m368.47602 268.56519c-.47811 3.70196-1.71839 20.80284-7.95729 39.14162-6.28969 18.48806-17.77339 26.59126-18.77871 27.80104-8.0044 9.13703-11.39306 15.9744-15.30656 22.88772-53.39723 3.67123-61.25787 2.65673-82.24937-3.27246.55928-6.84973.75931-12.50724.8523-14.08427 1.27762-21.66845-5.53672-33.8742-6.42575-46.41156-4.41986-20.21738 1.06329-35.20856 5.29062-47.82665 14.91222-23.62457 26.70538-34.89741 33.03486-40.81952.49229-.51848 5.26078-2.74283 9.73774-5.14517.95941-.26505 5.67331-7.43059 5.90605-7.38285 2.02768.4159 4.18994.60512 7.08057.54144.11348-.002.006 8.21486.11995 8.21186.10646-.003 1.58306-8.31433 1.68973-8.31755 6.31966-.19114 12.39665-1.10743 12.65494-1.19666.25091-.0867 3.2837 6.67812 3.2837 6.67812s18.60682 6.81796 19.1387 8.16032c2.48078 22.71729 14.36237 51.62007 31.92852 61.03457z" style="display:inline;fill-opacity:1;fill-rule:evenodd;fill:#214478;opacity:1;stroke-dasharray:none;stroke-linecap:butt;stroke-linejoin:miter;stroke-miterlimit:4;stroke-opacity:1;stroke-width:0;stroke:#000"/><path style="display:inline;fill-opacity:1;fill-rule:evenodd;fill:#000;opacity:1;stroke-dasharray:none;stroke-linecap:butt;stroke-linejoin:miter;stroke-miterlimit:4;stroke-opacity:1;stroke-width:0;stroke:#000" d="m326.13583 371.57984c6.12446 15.18639 31.06297 40.67154 31.06297 40.67154-60.7288 16.79299-88.01135 32.91727-134.18415 5.97553 5.28314-10.17122 17.88025-50.36399 17.88025-50.36399 15.21292 8.75927 39.91761 13.13472 85.24093 3.71692z" id="path8190-6"/><path style="display:inline;fill-opacity:1;fill-rule:evenodd;fill:#214478;opacity:1;stroke-dasharray:none;stroke-linecap:butt;stroke-linejoin:miter;stroke-miterlimit:4;stroke-opacity:1;stroke-width:0;stroke:#000" d="m325.87695 373.46373c6.12446 15.18639 30.94685 39.41265 30.94685 39.41265.27389-.29673-23.43194 9.79337-47.17306 24.87782.0.0-27.25743 36.34309-35.46729 33.52591-15.72485 1.8412-50.69607-52.66145-50.5438-52.9282 5.91074-10.35428 17.81591-48.44978 17.81591-48.44978 15.21292 8.75927 39.09807 12.9794 84.42139 3.5616z" id="path8190"/><path d="m328.65568 423.62719c-15.47912 1.19068-42.03655 26.26041-44.60915 30.99635 10.29989-9.14088 29.75953-26.28541 44.60915-30.99635z" class="shadow" id="path8192"/><path d="m260.91357 455.47548c-6.81704-9.41592-28.83006-31.99347-34.93819-34.15183 5.05404 5.44075 26.5203 25.35081 34.93819 34.15183z" class="shadow" id="path8194"/><path style="display:inline;fill-opacity:1;fill:#c8c8c8;opacity:1;stroke-dasharray:none;stroke-linecap:butt;stroke-linejoin:miter;stroke-miterlimit:4;stroke-opacity:1;stroke-width:0;stroke:#000" d="m326.68792 358.29839c.61171-.9449 1.70744-3.1683 1.77242-3.35924.0.0-25.47034 2.39237-48.77263 1.98732-.50133-.009-.31414-18.14372-.81318-18.15508-.78533.021-1.71213-.29659-2.2885.11037-.20179.14248-.87147 18.72005-1.14766 18.72537-.62137.012.28704-18.71786-.0481-18.75209-.67748-.0692-1.73329-.0269-1.95551-.0382-.71275-.0292-1.171 17.8759-1.87389 17.8402-11.87397-.60361-22.22122-2.16536-26.92694-5.45788-1.1725-.82038-.46947 2.19195-.5952 3.86176 15.40185 6.16924 29.68037 7.63552 82.64917 3.23751z" id="path8166-8"/><path style="display:inline;fill-opacity:1;fill:#c8c8c8;opacity:1;stroke-dasharray:none;stroke-linecap:butt;stroke-linejoin:miter;stroke-miterlimit:4;stroke-opacity:1;stroke-width:0;stroke:#000" d="m330.11325 204.67038c.007-.14856 6.1565 2.39569 6.18294 2.59491 4.01875 30.28824 16.75326 50.95772 32.07153 61.23449.0186 1.50531-.34963 3.78303-.29715 5.01243-22.08333-4.52994-39.85407-55.83222-37.95732-68.84183z" id="path8170-0"/><path style="display:inline;fill-opacity:1;fill:#c8c8c8;opacity:1;stroke-dasharray:none;stroke-linecap:butt;stroke-linejoin:miter;stroke-miterlimit:4;stroke-opacity:1;stroke-width:0;stroke:#000" d="m277.5944 205.54042c.007-.14856 5.6565-3.16681 5.68294-2.96759-19.5967 18.22954-36.72444 45.05171-41.53959 50.51994.17744-.35399 1.6614-5.34967 2.57626-7.24402 2.64044-5.46741 17.42742-25.59886 33.28039-40.30833z" id="path8170-0-1"/><path style="display:inline;fill-opacity:1;fill:#c8c8c8;opacity:1;stroke-dasharray:none;stroke-linecap:butt;stroke-linejoin:miter;stroke-miterlimit:4;stroke-opacity:1;stroke-width:0;stroke:#000" d="m283.14035 224.29799c-1.08045 9.12176 5.59895 9.40419 2.07723 26.2948 4.67642 2.76651 3.70561-4.1417 5.72322-8.88211.83714-8.86661-5.46651-12.10922-7.80045-17.41269z" id="path8170-0-1-7-2-3-9"/><path style="display:inline;fill-opacity:1;fill:#c8c8c8;opacity:1;stroke-dasharray:none;stroke-linecap:butt;stroke-linejoin:miter;stroke-miterlimit:4;stroke-opacity:1;stroke-width:0;stroke:#000" d="m296.02078 224.37323c-5.81536 7.11023-.33538 10.93958-12.38609 23.28768 2.45556 4.84693 5.35124-1.49979 9.60113-4.41196 5.47302-7.02592 1.90141-13.14917 2.78496-18.87572z" id="path8170-0-1-7-2-3-9-2"/><path style="display:inline;fill-opacity:1;fill:#c8c8c8;opacity:1;stroke-dasharray:none;stroke-linecap:butt;stroke-linejoin:miter;stroke-miterlimit:4;stroke-opacity:1;stroke-width:0;stroke:#000" d="m308.27067 228.67404c-8.60244 3.22054-5.79206 9.2865-22.41821 13.89803-.31546 5.42429 5.37946 1.39518 10.51739 1.0157 8.26414-3.31985 8.25693-10.40861 11.90082-14.91373z" id="path8170-0-1-7-2-3-9-2-0"/><path style="display:inline;fill-opacity:1;fill:#c8c8c8;opacity:1;stroke-dasharray:none;stroke-linecap:butt;stroke-linejoin:miter;stroke-miterlimit:4;stroke-opacity:1;stroke-width:0;stroke:#000" d="m314.79914 237.57066c-9.13962-.91727-9.30263 5.76612-26.25348 2.54682-2.68251 4.72511 4.20725 3.63099 8.98297 5.56358 8.88015.67854 12.0096-5.68206 17.27051-8.1104z" id="path8170-0-1-7-2-3-9-2-0-2"/><path style="display:inline;fill-opacity:1;fill:#c8c8c8;opacity:1;stroke-dasharray:none;stroke-linecap:butt;stroke-linejoin:miter;stroke-miterlimit:4;stroke-opacity:1;stroke-width:0;stroke:#000" d="m314.69906 251.50152c-7.02854-5.91386-10.93386-.48774-23.11288-12.70929-4.88068 2.38779 1.4251 5.3716 4.27778 9.66166 6.94899 5.57036 13.12141 2.0844 18.8351 3.04763z" id="path8170-0-1-7-2-3-9-2-0-2-2"/><path style="display:inline;fill-opacity:1;fill:#c8c8c8;opacity:1;stroke-dasharray:none;stroke-linecap:butt;stroke-linejoin:miter;stroke-miterlimit:4;stroke-opacity:1;stroke-width:0;stroke:#000" d="m310.41638 262.25626c-4.03545-8.25162-9.80199-4.86912-15.99602-20.97281-5.42943.20931-.86968 5.48896.004 10.56632 4.10164 7.90531 11.15665 7.21424 15.99231 10.40649z" id="path8170-0-1-7-2-3-9-2-0-2-2-7"/><path style="display:inline;fill-opacity:1;fill:#c8c8c8;opacity:1;stroke-dasharray:none;stroke-linecap:butt;stroke-linejoin:miter;stroke-miterlimit:4;stroke-opacity:1;stroke-width:0;stroke:#000" d="m299.08797 268.57958c.82188-9.14869-5.86285-9.24199-2.82052-26.22549-4.75283-2.63308-3.58691 4.2449-5.46933 9.04067-.5859 8.88673 5.807 11.94967 8.2901 17.18497z" id="path8170-0-1-7-2-3-9-2-0-2-2-7-2"/><path style="display:inline;fill-opacity:1;fill:#c8c8c8;opacity:1;stroke-dasharray:none;stroke-linecap:butt;stroke-linejoin:miter;stroke-miterlimit:4;stroke-opacity:1;stroke-width:0;stroke:#000" d="m288.21745 268.1471c4.7449-7.86512-1.22406-10.87608 8.94777-24.81268-3.12-4.44839-5.0835 2.24569-8.87582 5.73299-4.41803 7.73293-.0118 13.28592-.0718 19.07993z" id="path8170-0-1-7-2-3-9-2-0-2-2-7-2-5"/><path style="display:inline;fill-opacity:1;fill:#c8c8c8;opacity:1;stroke-dasharray:none;stroke-linecap:butt;stroke-linejoin:miter;stroke-miterlimit:4;stroke-opacity:1;stroke-width:0;stroke:#000" d="m277.91262 264.57818c7.88316-4.71486 4.02785-10.17663 19.55382-17.70253-.66502-5.39262-5.54265-.40517-10.52859.89227-7.5325 4.75169-6.25077 11.72364-9.02521 16.81055z" id="path8170-0-1-7-2-3-9-2-0-2-2-7-2-5-9"/><path style="display:inline;fill-opacity:1;fill:#c8c8c8;opacity:1;stroke-dasharray:none;stroke-linecap:butt;stroke-linejoin:miter;stroke-miterlimit:4;stroke-opacity:1;stroke-width:0;stroke:#000" d="m270.58269 255.34575c9.15487.75003 9.19568-5.93523 26.20255-3.02632 2.59568-4.77336-4.27293-3.55348-9.08334-5.3982-8.89105-.51611-11.90371 5.90065-17.11936 8.42476z" id="path8170-0-1-7-2-3-9-2-0-2-2-7-2-5-9-8"/><path style="display:inline;fill-opacity:1;fill:#c8c8c8;opacity:1;stroke-dasharray:none;stroke-linecap:butt;stroke-linejoin:miter;stroke-miterlimit:4;stroke-opacity:1;stroke-width:0;stroke:#000" d="m269.50955 245.82629c8.40563 3.704 10.63145-2.59998 25.7506 5.71307 4.01455-3.66141-2.87515-4.75591-6.81727-8.07295-8.23286-3.39664-13.17912 1.6813-18.93355 2.36006z" id="path8170-0-1-7-2-3-9-2-0-2-2-7-2-5-9-8-0"/><path style="display:inline;fill-opacity:1;fill:#c8c8c8;opacity:1;stroke-dasharray:none;stroke-linecap:butt;stroke-linejoin:miter;stroke-miterlimit:4;stroke-opacity:1;stroke-width:0;stroke:#000" d="m271.47638 235.43299c6.24397 6.73699 10.78983 1.83499 21.36541 15.46776 5.13831-1.76644-.75045-5.50654-3.05148-10.11613-6.20744-6.3863-12.76331-3.68971-18.31421-5.35155z" id="path8170-0-1-7-2-3-9-2-0-2-2-7-2-5-9-8-0-0"/><path style="display:inline;fill-opacity:1;fill:#c8c8c8;opacity:1;stroke-dasharray:none;stroke-linecap:butt;stroke-linejoin:miter;stroke-miterlimit:4;stroke-opacity:1;stroke-width:0;stroke:#000" d="m298.49337 312.10909c-.64507 5.41387 3.34279 5.5815 1.24019 15.60628 2.792 1.64195 2.21239-2.45815 3.41699-5.27164.4998-5.26244-3.26373-7.18697-4.65718-10.33464z" id="path8170-0-1-7-2-3-9-7"/><path style="display:inline;fill-opacity:1;fill:#c8c8c8;opacity:1;stroke-dasharray:none;stroke-linecap:butt;stroke-linejoin:miter;stroke-miterlimit:4;stroke-opacity:1;stroke-width:0;stroke:#000" d="m306.1835 312.15375c-3.47201 4.22-.20024 6.49277-7.39499 13.82151 1.46607 2.87671 3.1949-.89014 5.73225-2.61855 3.26761-4.16997 1.13522-7.80419 1.66274-11.20296z" id="path8170-0-1-7-2-3-9-2-6"/><path style="display:inline;fill-opacity:1;fill:#c8c8c8;opacity:1;stroke-dasharray:none;stroke-linecap:butt;stroke-linejoin:miter;stroke-miterlimit:4;stroke-opacity:1;stroke-width:0;stroke:#000" d="m313.49716 314.70633c-5.13599 1.91143-3.45808 5.51165-13.38455 8.24864-.18835 3.21938 3.21175.82806 6.27929.60283 4.93402-1.97037 4.92972-6.17763 7.10526-8.85147z" id="path8170-0-1-7-2-3-9-2-0-4"/><path style="display:inline;fill-opacity:1;fill:#c8c8c8;opacity:1;stroke-dasharray:none;stroke-linecap:butt;stroke-linejoin:miter;stroke-miterlimit:4;stroke-opacity:1;stroke-width:0;stroke:#000" d="m317.39492 319.98658c-5.45672-.54441-5.55404 3.42226-15.67437 1.51157-1.60156 2.8044 2.5119 2.15503 5.36319 3.30205 5.3018.40272 7.17021-3.37237 10.31118-4.81362z" id="path8170-0-1-7-2-3-9-2-0-2-1"/><path style="display:inline;fill-opacity:1;fill:#c8c8c8;opacity:1;stroke-dasharray:none;stroke-linecap:butt;stroke-linejoin:miter;stroke-miterlimit:4;stroke-opacity:1;stroke-width:0;stroke:#000" d="m317.33517 328.25471c-4.19632-3.50995-6.52795-.28948-13.79931-7.54312-2.91396 1.41719.85084 3.18811 2.55401 5.73431 4.14882 3.30608 7.834 1.23712 11.2453 1.80881z" id="path8170-0-1-7-2-3-9-2-0-2-2-2"/><path style="display:inline;fill-opacity:1;fill:#c8c8c8;opacity:1;stroke-dasharray:none;stroke-linecap:butt;stroke-linejoin:miter;stroke-miterlimit:4;stroke-opacity:1;stroke-width:0;stroke:#000" d="m314.77824 334.63777c-2.40932-4.89743-5.85218-2.88988-9.55026-12.44761-3.24158.12423-.51923 3.25777.002 6.27124 2.44884 4.69189 6.66096 4.28174 9.54804 6.17637z" id="path8170-0-1-7-2-3-9-2-0-2-2-7-9"/><path style="display:inline;fill-opacity:1;fill:#c8c8c8;opacity:1;stroke-dasharray:none;stroke-linecap:butt;stroke-linejoin:miter;stroke-miterlimit:4;stroke-opacity:1;stroke-width:0;stroke:#000" d="m308.01473 338.39074c.49069-5.42986-3.50035-5.48523-1.68396-15.56514-2.83763-1.56276-2.14153 2.5194-3.26541 5.36575-.34981 5.27438 3.46701 7.09227 4.94952 10.19948z" id="path8170-0-1-7-2-3-9-2-0-2-2-7-2-6"/><path style="display:inline;fill-opacity:1;fill:#c8c8c8;opacity:1;stroke-dasharray:none;stroke-linecap:butt;stroke-linejoin:miter;stroke-miterlimit:4;stroke-opacity:1;stroke-width:0;stroke:#000" d="m301.5246 338.13406c2.83289-4.66804-.73081-6.45508 5.34217-14.72662-1.86276-2.64018-3.03505 1.33284-5.29921 3.4026-2.63774 4.58958-.007 7.88535-.0429 11.32416z" id="path8170-0-1-7-2-3-9-2-0-2-2-7-2-5-7"/><path style="display:inline;fill-opacity:1;fill:#c8c8c8;opacity:1;stroke-dasharray:none;stroke-linecap:butt;stroke-linejoin:miter;stroke-miterlimit:4;stroke-opacity:1;stroke-width:0;stroke:#000" d="m295.37221 336.01586c4.70656-2.79832 2.40478-6.03995 11.6744-10.50666-.39704-3.20058-3.30918-.24047-6.28598.52957-4.4972 2.82019-3.73196 6.95812-5.38841 9.97726z" id="path8170-0-1-7-2-3-9-2-0-2-2-7-2-5-9-4"/><path style="display:inline;fill-opacity:1;fill:#c8c8c8;opacity:1;stroke-dasharray:none;stroke-linecap:butt;stroke-linejoin:miter;stroke-miterlimit:4;stroke-opacity:1;stroke-width:0;stroke:#000" d="m290.99595 330.5363c5.46582.44516 5.49018-3.52262 15.64396-1.79615 1.54972-2.83305-2.55111-2.10903-5.42312-3.2039-5.3083-.30632-7.10698 3.50211-10.22093 5.0002z" id="path8170-0-1-7-2-3-9-2-0-2-2-7-2-5-9-8-5"/><path style="display:inline;fill-opacity:1;fill:#c8c8c8;opacity:1;stroke-dasharray:none;stroke-linecap:butt;stroke-linejoin:miter;stroke-miterlimit:4;stroke-opacity:1;stroke-width:0;stroke:#000" d="m290.35524 324.88639c5.01849 2.19837 6.3474-1.54312 15.37413 3.39078 2.39684-2.17309-1.71658-2.82269-4.07018-4.7914-4.91534-2.01594-7.86846.99788-11.30408 1.40073z" id="path8170-0-1-7-2-3-9-2-0-2-2-7-2-5-9-8-0-5"/><path style="display:inline;fill-opacity:1;fill:#c8c8c8;opacity:1;stroke-dasharray:none;stroke-linecap:butt;stroke-linejoin:miter;stroke-miterlimit:4;stroke-opacity:1;stroke-width:0;stroke:#000" d="m291.52952 318.71784c3.72789 3.99849 6.44195 1.08909 12.75599 9.1803 3.06778-1.0484-.44805-3.26819-1.82185-6.00404-3.70609-3.79034-7.6202-2.18989-10.93431-3.17621z" id="path8170-0-1-7-2-3-9-2-0-2-2-7-2-5-9-8-0-0-6"/><path style="display:inline;fill-opacity:1;fill:#c8c8c8;opacity:1;stroke-dasharray:none;stroke-linecap:butt;stroke-linejoin:miter;stroke-miterlimit:4;stroke-opacity:1;stroke-width:0;stroke:#000" d="m262.16323 310.8591c.48404 5.31087-2.50832 5.47531-.9306 15.30938-2.09503 1.61071-1.66011-2.41139-2.564-5.17135-.37503-5.16233 2.449-7.05024 3.4946-10.13803z" id="path8170-0-1-7-2-3-9-7-6"/><path style="display:inline;fill-opacity:1;fill:#c8c8c8;opacity:1;stroke-dasharray:none;stroke-linecap:butt;stroke-linejoin:miter;stroke-miterlimit:4;stroke-opacity:1;stroke-width:0;stroke:#000" d="m256.3928 310.90291c2.60529 4.13972.15026 6.36925 5.54897 13.55856-1.1001 2.82198-2.39735-.8732-4.3013-2.56873-2.45191-4.09064-.85183-7.65572-1.24767-10.98983z" id="path8170-0-1-7-2-3-9-2-6-0"/><path style="display:inline;fill-opacity:1;fill:#c8c8c8;opacity:1;stroke-dasharray:none;stroke-linecap:butt;stroke-linejoin:miter;stroke-miterlimit:4;stroke-opacity:1;stroke-width:0;stroke:#000" d="m250.90486 313.40693c3.85389 1.87506 2.59484 5.40679 10.04334 8.09171.14134 3.15813-2.40999.81231-4.71178.59136-3.70233-1.93288-3.6991-6.0601-5.33156-8.68307z" id="path8170-0-1-7-2-3-9-2-0-4-1"/><path style="display:inline;fill-opacity:1;fill:#c8c8c8;opacity:1;stroke-dasharray:none;stroke-linecap:butt;stroke-linejoin:miter;stroke-miterlimit:4;stroke-opacity:1;stroke-width:0;stroke:#000" d="m247.98011 318.58672c4.09455-.53405 4.16757 3.35716 11.76155 1.48282 1.20176 2.75104-1.88485 2.11403-4.02437 3.23923-3.9783.39505-5.3803-3.30822-7.73718-4.72205z" id="path8170-0-1-7-2-3-9-2-0-2-1-2"/><path style="display:inline;fill-opacity:1;fill:#c8c8c8;opacity:1;stroke-dasharray:none;stroke-linecap:butt;stroke-linejoin:miter;stroke-miterlimit:4;stroke-opacity:1;stroke-width:0;stroke:#000" d="m248.02494 326.69756c3.14879-3.44318 4.89837-.28398 10.35457-7.39962 2.18654 1.39023-.63845 3.12746-1.91645 5.62522-3.11314 3.24318-5.87838 1.21358-8.43812 1.7744z" id="path8170-0-1-7-2-3-9-2-0-2-2-2-2"/><path style="display:inline;fill-opacity:1;fill:#c8c8c8;opacity:1;stroke-dasharray:none;stroke-linecap:butt;stroke-linejoin:miter;stroke-miterlimit:4;stroke-opacity:1;stroke-width:0;stroke:#000" d="m249.94358 332.95918c1.80788-4.80426 4.39129-2.8349 7.16621-12.2108 2.43238.12187.38962 3.19579-.001 6.15193-1.83753 4.60263-4.99817 4.20029-7.16454 6.05887z" id="path8170-0-1-7-2-3-9-2-0-2-2-7-9-3"/><path style="display:inline;fill-opacity:1;fill:#c8c8c8;opacity:1;stroke-dasharray:none;stroke-linecap:butt;stroke-linejoin:miter;stroke-miterlimit:4;stroke-opacity:1;stroke-width:0;stroke:#000" d="m255.01871 336.64075c-.3682-5.32656 2.62655-5.38087 1.26358-15.26902 2.12927-1.53303 1.60694 2.47147 2.45026 5.26367.26249 5.17404-2.60153 6.95734-3.71396 10.00544z" id="path8170-0-1-7-2-3-9-2-0-2-2-7-2-6-2"/><path style="display:inline;fill-opacity:1;fill:#c8c8c8;opacity:1;stroke-dasharray:none;stroke-linecap:butt;stroke-linejoin:miter;stroke-miterlimit:4;stroke-opacity:1;stroke-width:0;stroke:#000" d="m259.88869 336.38896c-2.12571-4.57924.54838-6.33228-4.00859-14.44646 1.39775-2.58995 2.2774 1.30749 3.97636 3.33787 1.97927 4.50227.005 7.73533.0322 11.10872z" id="path8170-0-1-7-2-3-9-2-0-2-2-7-2-5-7-3"/><path style="display:inline;fill-opacity:1;fill:#c8c8c8;opacity:1;stroke-dasharray:none;stroke-linecap:butt;stroke-linejoin:miter;stroke-miterlimit:4;stroke-opacity:1;stroke-width:0;stroke:#000" d="m264.50525 334.31105c-3.53165-2.74508-1.80447-5.92504-8.7601-10.30677.29793-3.13969 2.4831-.2359 4.7168.51949 3.37456 2.76654 2.80034 6.82575 4.04329 9.78745z" id="path8170-0-1-7-2-3-9-2-0-2-2-7-2-5-9-4-5"/><path style="display:inline;fill-opacity:1;fill:#c8c8c8;opacity:1;stroke-dasharray:none;stroke-linecap:butt;stroke-linejoin:miter;stroke-miterlimit:4;stroke-opacity:1;stroke-width:0;stroke:#000" d="m267.78905 328.93574c-4.10137.43669-4.11965-3.4556-11.73872-1.76198-1.16286-2.77915 1.91427-2.06891 4.06933-3.14295 3.98318-.30049 5.33285 3.43549 7.66946 4.90508z" id="path8170-0-1-7-2-3-9-2-0-2-2-7-2-5-9-8-5-8"/><path style="display:inline;fill-opacity:1;fill:#c8c8c8;opacity:1;stroke-dasharray:none;stroke-linecap:butt;stroke-linejoin:miter;stroke-miterlimit:4;stroke-opacity:1;stroke-width:0;stroke:#000" d="m268.26982 323.39332c-3.76571 2.15654-4.76288-1.51377-11.53625 3.32627-1.79852-2.13175 1.28806-2.76899 3.05413-4.70025 3.68831-1.97758 5.90424.9789 8.48222 1.37408z" id="path8170-0-1-7-2-3-9-2-0-2-2-7-2-5-9-8-0-5-2"/><path style="display:inline;fill-opacity:1;fill:#c8c8c8;opacity:1;stroke-dasharray:none;stroke-linecap:butt;stroke-linejoin:miter;stroke-miterlimit:4;stroke-opacity:1;stroke-width:0;stroke:#000" d="m267.38868 317.34212c-2.79729 3.92242-4.83383 1.06837-9.57169 9.00565-2.30196-1.02846.33621-3.20601 1.36706-5.88982 2.78093-3.71823 5.71796-2.14822 8.20476-3.11578z" id="path8170-0-1-7-2-3-9-2-0-2-2-7-2-5-9-8-0-0-6-0"/><path style="display:inline;fill-opacity:1;fill-rule:evenodd;fill:#214478;opacity:1;stroke-dasharray:none;stroke-linecap:butt;stroke-linejoin:miter;stroke-miterlimit:4;stroke-opacity:1;stroke-width:0;stroke:#000" d="m328.1714 378.14705c.65831 1.63237 11.75141 17.58794 14.72524 19.45038-34.53844 7.30149-85.16569 11.87716-110.66826-.49963 1.23075-3.80036 7.08413-21.6061 7.08413-21.6061 16.02542 7.75927 42.84807 11.32315 88.85889 2.65535z" id="path8190-64-0"/><path style="display:inline;fill-opacity:1;fill-rule:evenodd;fill:#c8c8c8;opacity:1;stroke-dasharray:none;stroke-linecap:butt;stroke-linejoin:miter;stroke-miterlimit:4;stroke-opacity:1;stroke-width:0;stroke:#000" d="m326.00195 373.43248c.65831 1.63237 1.50141 3.40044 2.53774 5.20038-34.53844 7.30149-63.79069 9.81466-89.29326-2.56213 1.23075-3.80036 2.08413-6.2311 2.08413-6.2311 16.02542 7.75927 38.66057 12.26065 84.67139 3.59285z" id="path8190-64"/><path style="display:inline;fill-opacity:1;fill-rule:evenodd;fill:#c8c8c8;opacity:1;stroke-dasharray:none;stroke-linecap:butt;stroke-linejoin:miter;stroke-miterlimit:4;stroke-opacity:1;stroke-width:0;stroke:#000" d="m342.76187 397.36019c.87928 1.27882 3.25769 3.82331 4.60338 5.40228-34.53844 7.30149-91.79831 12.26441-117.30088-.11238 1.23075-3.80036 2.12832-6.14271 2.12832-6.14271 16.02542 7.75927 64.55836 9.52061 110.56918.85281z" id="path8190-64-5"/><path style="display:inline;fill-opacity:1;fill:#fff;opacity:1;stroke-dasharray:none;stroke-linecap:butt;stroke-linejoin:miter;stroke-miterlimit:4;stroke-opacity:1;stroke-width:0;stroke:#000" d="m238.14291 382.95377c-.25442 2.45271 1.31844 2.52865.48915 7.0703 1.10119.74388.87259-1.11364 1.3477-2.38827.19713-2.38411-1.28726-3.256-1.83685-4.68203z" id="path8170-0-1-7-2-3-9-7-67"/><path style="display:inline;fill-opacity:1;fill:#fff;opacity:1;stroke-dasharray:none;stroke-linecap:butt;stroke-linejoin:miter;stroke-miterlimit:4;stroke-opacity:1;stroke-width:0;stroke:#000" d="m241.17599 382.974c-1.3694 1.91184-.079 2.9415-2.91667 6.26173.57823 1.30327 1.2601-.40327 2.26086-1.18631 1.28878-1.88918.44775-3.53563.65581-5.07542z" id="path8170-0-1-7-2-3-9-2-6-00"/><path style="display:inline;fill-opacity:1;fill:#fff;opacity:1;stroke-dasharray:none;stroke-linecap:butt;stroke-linejoin:miter;stroke-miterlimit:4;stroke-opacity:1;stroke-width:0;stroke:#000" d="m244.06058 384.13043c-2.0257.86596-1.36391 2.49701-5.27902 3.73698-.0743 1.45852 1.26675.37515 2.47662.27311 1.94603-.89266 1.94434-2.79873 2.8024-4.01009z" id="path8170-0-1-7-2-3-9-2-0-4-2"/><path style="display:inline;fill-opacity:1;fill:#fff;opacity:1;stroke-dasharray:none;stroke-linecap:butt;stroke-linejoin:miter;stroke-miterlimit:4;stroke-opacity:1;stroke-width:0;stroke:#000" d="m245.5979 386.52261c-2.15219-.24665-2.19057 1.55042-6.18215.6848-.63168 1.27051.99072.97632 2.1153 1.49597 2.0911.18245 2.82801-1.52783 4.06685-2.18077z" id="path8170-0-1-7-2-3-9-2-0-2-1-3"/><path style="display:inline;fill-opacity:1;fill:#fff;opacity:1;stroke-dasharray:none;stroke-linecap:butt;stroke-linejoin:miter;stroke-miterlimit:4;stroke-opacity:1;stroke-width:0;stroke:#000" d="m245.57434 390.26842c-1.65508-1.59016-2.57471-.13115-5.44261-3.41735-1.1493.64204.33558 1.44434 1.00733 2.59788 1.63634 1.4978 3.08981.56047 4.43528.81947z" id="path8170-0-1-7-2-3-9-2-0-2-2-2-3"/><path style="display:inline;fill-opacity:1;fill:#fff;opacity:1;stroke-dasharray:none;stroke-linecap:butt;stroke-linejoin:miter;stroke-miterlimit:4;stroke-opacity:1;stroke-width:0;stroke:#000" d="m244.56585 393.16021c-.95026-2.21874-2.30816-1.30923-3.76673-5.63929-1.27851.0563-.20479 1.47591 79e-5 2.84114.96585 2.12562 2.62716 1.93981 3.76586 2.79815z" id="path8170-0-1-7-2-3-9-2-0-2-2-7-9-34"/><path style="display:inline;fill-opacity:1;fill:#fff;opacity:1;stroke-dasharray:none;stroke-linecap:butt;stroke-linejoin:miter;stroke-miterlimit:4;stroke-opacity:1;stroke-width:0;stroke:#000" d="m241.89825 394.86047c.19353-2.45996-1.38058-2.48504-.66417-7.05167-1.1192-.70799-.84465 1.1414-1.28792 2.43091-.13797 2.38952 1.36743 3.2131 1.95215 4.6208z" id="path8170-0-1-7-2-3-9-2-0-2-2-7-2-6-4"/><path style="display:inline;fill-opacity:1;fill:#fff;opacity:1;stroke-dasharray:none;stroke-linecap:butt;stroke-linejoin:miter;stroke-miterlimit:4;stroke-opacity:1;stroke-width:0;stroke:#000" d="m239.33846 394.74418c1.11733-2.11482-.28823-2.92442 2.10702-6.67178-.73469-1.19611-1.19706.60383-2.09007 1.54152-1.04035 2.07928-.003 3.5724-.0169 5.13033z" id="path8170-0-1-7-2-3-9-2-0-2-2-7-2-5-7-6"/><path style="display:inline;fill-opacity:1;fill:#fff;opacity:1;stroke-dasharray:none;stroke-linecap:butt;stroke-linejoin:miter;stroke-miterlimit:4;stroke-opacity:1;stroke-width:0;stroke:#000" d="m236.91189 393.78455c1.85632-1.26776.94847-2.73636 4.60452-4.75996-.1566-1.45-1.30518-.10895-2.47926.23991-1.77375 1.27767-1.47194 3.15233-2.12526 4.52013z" id="path8170-0-1-7-2-3-9-2-0-2-2-7-2-5-9-4-51"/><path style="display:inline;fill-opacity:1;fill:#fff;opacity:1;stroke-dasharray:none;stroke-linecap:butt;stroke-linejoin:miter;stroke-miterlimit:4;stroke-opacity:1;stroke-width:0;stroke:#000" d="m235.18585 391.30208c2.15578.20167 2.16539-1.5959 6.17016-.81374.61122-1.28349-1.00619-.95548-2.13895-1.4515-2.09365-.13877-2.80308 1.58661-4.03125 2.2653z" id="path8170-0-1-7-2-3-9-2-0-2-2-7-2-5-9-8-5-83"/><path style="display:inline;fill-opacity:1;fill:#fff;opacity:1;stroke-dasharray:none;stroke-linecap:butt;stroke-linejoin:miter;stroke-miterlimit:4;stroke-opacity:1;stroke-width:0;stroke:#000" d="m234.93314 388.74243c1.97935.99595 2.50349-.6991 6.06373 1.53616.94535-.9845-.67703-1.27879-1.60532-2.1707-1.93867-.91331-3.10341.45208-4.45846.63459z" id="path8170-0-1-7-2-3-9-2-0-2-2-7-2-5-9-8-0-5-8"/><path style="display:inline;fill-opacity:1;fill:#fff;opacity:1;stroke-dasharray:none;stroke-linecap:butt;stroke-linejoin:miter;stroke-miterlimit:4;stroke-opacity:1;stroke-width:0;stroke:#000" d="m235.39629 385.94781c1.47032 1.81149 2.54078.49341 5.03111 4.15907 1.20997-.47497-.17672-1.48063-.71856-2.72009-1.46173-1.71718-3.00549-.99211-4.31261-1.43895z" id="path8170-0-1-7-2-3-9-2-0-2-2-7-2-5-9-8-0-0-6-04"/><path style="display:inline;fill-opacity:1;fill:#fff;opacity:1;stroke-dasharray:none;stroke-linecap:butt;stroke-linejoin:miter;stroke-miterlimit:4;stroke-opacity:1;stroke-width:0;stroke:#000" d="m259.35651 386.76627c-.28126 2.45271 1.45751 2.52865.54074 7.0703 1.21736.74388.96464-1.11364 1.48987-2.38827.21792-2.38411-1.42305-3.256-2.03061-4.68203z" id="path8170-0-1-7-2-3-9-7-67-8"/><path style="display:inline;fill-opacity:1;fill:#fff;opacity:1;stroke-dasharray:none;stroke-linecap:butt;stroke-linejoin:miter;stroke-miterlimit:4;stroke-opacity:1;stroke-width:0;stroke:#000" d="m262.70953 386.7865c-1.51385 1.91184-.0873 2.9415-3.22434 6.26173.63923 1.30327 1.39303-.40327 2.49936-1.18631 1.42473-1.88918.49498-3.53563.72498-5.07542z" id="path8170-0-1-7-2-3-9-2-6-00-3"/><path style="display:inline;fill-opacity:1;fill:#fff;opacity:1;stroke-dasharray:none;stroke-linecap:butt;stroke-linejoin:miter;stroke-miterlimit:4;stroke-opacity:1;stroke-width:0;stroke:#000" d="m265.89841 387.94293c-2.23938.86596-1.50778 2.49701-5.83589 3.73698-.0821 1.45852 1.40038.37515 2.73788.27311 2.15131-.89266 2.14944-2.79873 3.09801-4.01009z" id="path8170-0-1-7-2-3-9-2-0-4-2-4"/><path style="display:inline;fill-opacity:1;fill:#fff;opacity:1;stroke-dasharray:none;stroke-linecap:butt;stroke-linejoin:miter;stroke-miterlimit:4;stroke-opacity:1;stroke-width:0;stroke:#000" d="m267.5979 390.33511c-2.37922-.24665-2.42165 1.55042-6.83429.6848-.69831 1.27051 1.09523.97632 2.33844 1.49597 2.31168.18245 3.12633-1.52783 4.49585-2.18077z" id="path8170-0-1-7-2-3-9-2-0-2-1-3-7"/><path style="display:inline;fill-opacity:1;fill:#fff;opacity:1;stroke-dasharray:none;stroke-linecap:butt;stroke-linejoin:miter;stroke-miterlimit:4;stroke-opacity:1;stroke-width:0;stroke:#000" d="m267.57185 394.08092c-1.82967-1.59016-2.8463-.13115-6.01673-3.41735-1.27054.64204.37098 1.44434 1.11359 2.59788 1.80895 1.4978 3.41575.56047 4.90314.81947z" id="path8170-0-1-7-2-3-9-2-0-2-2-2-3-5"/><path style="display:inline;fill-opacity:1;fill:#fff;opacity:1;stroke-dasharray:none;stroke-linecap:butt;stroke-linejoin:miter;stroke-miterlimit:4;stroke-opacity:1;stroke-width:0;stroke:#000" d="m266.45698 396.97271c-1.0505-2.21874-2.55164-1.30923-4.16407-5.63929-1.41338.0563-.22639 1.47591 87e-5 2.84114 1.06774 2.12562 2.90429 1.93981 4.16311 2.79815z" id="path8170-0-1-7-2-3-9-2-0-2-2-7-9-34-0"/><path style="display:inline;fill-opacity:1;fill:#fff;opacity:1;stroke-dasharray:none;stroke-linecap:butt;stroke-linejoin:miter;stroke-miterlimit:4;stroke-opacity:1;stroke-width:0;stroke:#000" d="m263.50798 398.67297c.21395-2.45996-1.52621-2.48504-.73423-7.05167-1.23726-.70799-.93375 1.1414-1.42378 2.43091-.15252 2.38952 1.51168 3.2131 2.15808 4.6208z" id="path8170-0-1-7-2-3-9-2-0-2-2-7-2-6-4-7"/><path style="display:inline;fill-opacity:1;fill:#fff;opacity:1;stroke-dasharray:none;stroke-linecap:butt;stroke-linejoin:miter;stroke-miterlimit:4;stroke-opacity:1;stroke-width:0;stroke:#000" d="m260.67817 398.55668c1.23519-2.11482-.31864-2.92442 2.32928-6.67178-.81219-1.19611-1.32333.60383-2.31054 1.54152-1.1501 2.07928-.003 3.5724-.0187 5.13033z" id="path8170-0-1-7-2-3-9-2-0-2-2-7-2-5-7-6-8"/><path style="display:inline;fill-opacity:1;fill:#fff;opacity:1;stroke-dasharray:none;stroke-linecap:butt;stroke-linejoin:miter;stroke-miterlimit:4;stroke-opacity:1;stroke-width:0;stroke:#000" d="m257.99563 397.59705c2.05214-1.26776 1.04852-2.73636 5.09023-4.75996-.17311-1.45-1.44285-.10895-2.74079.23991-1.96085 1.27767-1.6272 3.15233-2.34944 4.52013z" id="path8170-0-1-7-2-3-9-2-0-2-2-7-2-5-9-4-51-6"/><path style="display:inline;fill-opacity:1;fill:#fff;opacity:1;stroke-dasharray:none;stroke-linecap:butt;stroke-linejoin:miter;stroke-miterlimit:4;stroke-opacity:1;stroke-width:0;stroke:#000" d="m256.08751 395.11458c2.38319.20167 2.39381-1.5959 6.82103-.81374.6757-1.28349-1.11233-.95548-2.36458-1.4515-2.3145-.13877-3.09876 1.58661-4.45649 2.2653z" id="path8170-0-1-7-2-3-9-2-0-2-2-7-2-5-9-8-5-83-4"/><path style="display:inline;fill-opacity:1;fill:#fff;opacity:1;stroke-dasharray:none;stroke-linecap:butt;stroke-linejoin:miter;stroke-miterlimit:4;stroke-opacity:1;stroke-width:0;stroke:#000" d="m255.80815 392.55493c2.18814.99595 2.76757-.6991 6.70337 1.53616 1.04507-.9845-.74845-1.27879-1.77466-2.1707-2.14317-.91331-3.43078.45208-4.92877.63459z" id="path8170-0-1-7-2-3-9-2-0-2-2-7-2-5-9-8-0-5-8-1"/><path style="display:inline;fill-opacity:1;fill:#fff;opacity:1;stroke-dasharray:none;stroke-linecap:butt;stroke-linejoin:miter;stroke-miterlimit:4;stroke-opacity:1;stroke-width:0;stroke:#000" d="m256.32015 389.76031c1.62542 1.81149 2.8088.49341 5.56183 4.15907 1.3376-.47497-.19536-1.48063-.79436-2.72009-1.61592-1.71718-3.32253-.99211-4.76754-1.43895z" id="path8170-0-1-7-2-3-9-2-0-2-2-7-2-5-9-8-0-0-6-04-1"/><path style="display:inline;fill-opacity:1;fill:#fff;opacity:1;stroke-dasharray:none;stroke-linecap:butt;stroke-linejoin:miter;stroke-miterlimit:4;stroke-opacity:1;stroke-width:0;stroke:#000" d="m289.27853 387.2966c-.28126 2.45271 1.45751 2.52865.54074 7.0703 1.21736.74388.96464-1.11364 1.48987-2.38827.21792-2.38411-1.42305-3.256-2.03061-4.68203z" id="path8170-0-1-7-2-3-9-7-67-6"/><path style="display:inline;fill-opacity:1;fill:#fff;opacity:1;stroke-dasharray:none;stroke-linecap:butt;stroke-linejoin:miter;stroke-miterlimit:4;stroke-opacity:1;stroke-width:0;stroke:#000" d="m292.63155 387.31683c-1.51385 1.91184-.0873 2.9415-3.22434 6.26173.63923 1.30327 1.39303-.40327 2.49936-1.18631 1.42473-1.88918.49498-3.53563.72498-5.07542z" id="path8170-0-1-7-2-3-9-2-6-00-8"/><path style="display:inline;fill-opacity:1;fill:#fff;opacity:1;stroke-dasharray:none;stroke-linecap:butt;stroke-linejoin:miter;stroke-miterlimit:4;stroke-opacity:1;stroke-width:0;stroke:#000" d="m295.82043 388.47326c-2.23938.86596-1.50778 2.49701-5.83589 3.73698-.0821 1.45852 1.40038.37515 2.73788.27311 2.15131-.89266 2.14944-2.79873 3.09801-4.01009z" id="path8170-0-1-7-2-3-9-2-0-4-2-3"/><path style="display:inline;fill-opacity:1;fill:#fff;opacity:1;stroke-dasharray:none;stroke-linecap:butt;stroke-linejoin:miter;stroke-miterlimit:4;stroke-opacity:1;stroke-width:0;stroke:#000" d="m297.51992 390.86544c-2.37922-.24665-2.42165 1.55042-6.83429.6848-.69831 1.27051 1.09523.97632 2.33844 1.49597 2.31168.18245 3.12633-1.52783 4.49585-2.18077z" id="path8170-0-1-7-2-3-9-2-0-2-1-3-1"/><path style="display:inline;fill-opacity:1;fill:#fff;opacity:1;stroke-dasharray:none;stroke-linecap:butt;stroke-linejoin:miter;stroke-miterlimit:4;stroke-opacity:1;stroke-width:0;stroke:#000" d="m297.49387 394.61125c-1.82967-1.59016-2.8463-.13115-6.01673-3.41735-1.27054.64204.37098 1.44434 1.11359 2.59788 1.80895 1.4978 3.41575.56047 4.90314.81947z" id="path8170-0-1-7-2-3-9-2-0-2-2-2-3-50"/><path style="display:inline;fill-opacity:1;fill:#fff;opacity:1;stroke-dasharray:none;stroke-linecap:butt;stroke-linejoin:miter;stroke-miterlimit:4;stroke-opacity:1;stroke-width:0;stroke:#000" d="m296.379 397.50304c-1.0505-2.21874-2.55164-1.30923-4.16407-5.63929-1.41338.0563-.22639 1.47591 87e-5 2.84114 1.06774 2.12562 2.90429 1.93981 4.16311 2.79815z" id="path8170-0-1-7-2-3-9-2-0-2-2-7-9-34-1"/><path style="display:inline;fill-opacity:1;fill:#fff;opacity:1;stroke-dasharray:none;stroke-linecap:butt;stroke-linejoin:miter;stroke-miterlimit:4;stroke-opacity:1;stroke-width:0;stroke:#000" d="m293.43 399.2033c.21395-2.45996-1.52621-2.48504-.73423-7.05167-1.23726-.70799-.93375 1.1414-1.42378 2.43091-.15252 2.38952 1.51168 3.2131 2.15808 4.6208z" id="path8170-0-1-7-2-3-9-2-0-2-2-7-2-6-4-76"/><path style="display:inline;fill-opacity:1;fill:#fff;opacity:1;stroke-dasharray:none;stroke-linecap:butt;stroke-linejoin:miter;stroke-miterlimit:4;stroke-opacity:1;stroke-width:0;stroke:#000" d="m290.60019 399.08701c1.23519-2.11482-.31864-2.92442 2.32928-6.67178-.81219-1.19611-1.32333.60383-2.31054 1.54152-1.1501 2.07928-.003 3.5724-.0187 5.13033z" id="path8170-0-1-7-2-3-9-2-0-2-2-7-2-5-7-6-82"/><path style="display:inline;fill-opacity:1;fill:#fff;opacity:1;stroke-dasharray:none;stroke-linecap:butt;stroke-linejoin:miter;stroke-miterlimit:4;stroke-opacity:1;stroke-width:0;stroke:#000" d="m287.91765 398.12738c2.05214-1.26776 1.04852-2.73636 5.09023-4.75996-.17311-1.45-1.44285-.10895-2.74079.23991-1.96085 1.27767-1.6272 3.15233-2.34944 4.52013z" id="path8170-0-1-7-2-3-9-2-0-2-2-7-2-5-9-4-51-0"/><path style="display:inline;fill-opacity:1;fill:#fff;opacity:1;stroke-dasharray:none;stroke-linecap:butt;stroke-linejoin:miter;stroke-miterlimit:4;stroke-opacity:1;stroke-width:0;stroke:#000" d="m286.00953 395.64491c2.38319.20167 2.39381-1.5959 6.82103-.81374.6757-1.28349-1.11233-.95548-2.36458-1.4515-2.3145-.13877-3.09876 1.58661-4.45649 2.2653z" id="path8170-0-1-7-2-3-9-2-0-2-2-7-2-5-9-8-5-83-1"/><path style="display:inline;fill-opacity:1;fill:#fff;opacity:1;stroke-dasharray:none;stroke-linecap:butt;stroke-linejoin:miter;stroke-miterlimit:4;stroke-opacity:1;stroke-width:0;stroke:#000" d="m285.73017 393.08526c2.18814.99595 2.76757-.6991 6.70337 1.53616 1.04507-.9845-.74845-1.27879-1.77466-2.1707-2.14317-.91331-3.43078.45208-4.92877.63459z" id="path8170-0-1-7-2-3-9-2-0-2-2-7-2-5-9-8-0-5-8-7"/><path style="display:inline;fill-opacity:1;fill:#fff;opacity:1;stroke-dasharray:none;stroke-linecap:butt;stroke-linejoin:miter;stroke-miterlimit:4;stroke-opacity:1;stroke-width:0;stroke:#000" d="m286.24217 390.29064c1.62542 1.81149 2.8088.49341 5.56183 4.15907 1.3376-.47497-.19536-1.48063-.79436-2.72009-1.61592-1.71718-3.32253-.99211-4.76754-1.43895z" id="path8170-0-1-7-2-3-9-2-0-2-2-7-2-5-9-8-0-0-6-04-3"/><path style="display:inline;fill-opacity:1;fill:#fff;opacity:1;stroke-dasharray:none;stroke-linecap:butt;stroke-linejoin:miter;stroke-miterlimit:4;stroke-opacity:1;stroke-width:0;stroke:#000" d="m316.58551 384.69305c-.28126 2.45271 1.45751 2.52865.54074 7.0703 1.21736.74388.96464-1.11364 1.48987-2.38827.21792-2.38411-1.42305-3.256-2.03061-4.68203z" id="path8170-0-1-7-2-3-9-7-67-9"/><path style="display:inline;fill-opacity:1;fill:#fff;opacity:1;stroke-dasharray:none;stroke-linecap:butt;stroke-linejoin:miter;stroke-miterlimit:4;stroke-opacity:1;stroke-width:0;stroke:#000" d="m319.93853 384.71328c-1.51385 1.91184-.0873 2.9415-3.22434 6.26173.63923 1.30327 1.39303-.40327 2.49936-1.18631 1.42473-1.88918.49498-3.53563.72498-5.07542z" id="path8170-0-1-7-2-3-9-2-6-00-4"/><path style="display:inline;fill-opacity:1;fill:#fff;opacity:1;stroke-dasharray:none;stroke-linecap:butt;stroke-linejoin:miter;stroke-miterlimit:4;stroke-opacity:1;stroke-width:0;stroke:#000" d="m323.12741 385.86971c-2.23938.86596-1.50778 2.49701-5.83589 3.73698-.0821 1.45852 1.40038.37515 2.73788.27311 2.15131-.89266 2.14944-2.79873 3.09801-4.01009z" id="path8170-0-1-7-2-3-9-2-0-4-2-6"/><path style="display:inline;fill-opacity:1;fill:#fff;opacity:1;stroke-dasharray:none;stroke-linecap:butt;stroke-linejoin:miter;stroke-miterlimit:4;stroke-opacity:1;stroke-width:0;stroke:#000" d="m324.8269 388.26189c-2.37922-.24665-2.42165 1.55042-6.83429.6848-.69831 1.27051 1.09523.97632 2.33844 1.49597 2.31168.18245 3.12633-1.52783 4.49585-2.18077z" id="path8170-0-1-7-2-3-9-2-0-2-1-3-0"/><path style="display:inline;fill-opacity:1;fill:#fff;opacity:1;stroke-dasharray:none;stroke-linecap:butt;stroke-linejoin:miter;stroke-miterlimit:4;stroke-opacity:1;stroke-width:0;stroke:#000" d="m324.80085 392.0077c-1.82967-1.59016-2.8463-.13115-6.01673-3.41735-1.27054.64204.37098 1.44434 1.11359 2.59788 1.80895 1.4978 3.41575.56047 4.90314.81947z" id="path8170-0-1-7-2-3-9-2-0-2-2-2-3-6"/><path style="display:inline;fill-opacity:1;fill:#fff;opacity:1;stroke-dasharray:none;stroke-linecap:butt;stroke-linejoin:miter;stroke-miterlimit:4;stroke-opacity:1;stroke-width:0;stroke:#000" d="m323.68598 394.89949c-1.0505-2.21874-2.55164-1.30923-4.16407-5.63929-1.41338.0563-.22639 1.47591 87e-5 2.84114 1.06774 2.12562 2.90429 1.93981 4.16311 2.79815z" id="path8170-0-1-7-2-3-9-2-0-2-2-7-9-34-3"/><path style="display:inline;fill-opacity:1;fill:#fff;opacity:1;stroke-dasharray:none;stroke-linecap:butt;stroke-linejoin:miter;stroke-miterlimit:4;stroke-opacity:1;stroke-width:0;stroke:#000" d="m320.73698 396.59975c.21395-2.45996-1.52621-2.48504-.73423-7.05167-1.23726-.70799-.93375 1.1414-1.42378 2.43091-.15252 2.38952 1.51168 3.2131 2.15808 4.6208z" id="path8170-0-1-7-2-3-9-2-0-2-2-7-2-6-4-2"/><path style="display:inline;fill-opacity:1;fill:#fff;opacity:1;stroke-dasharray:none;stroke-linecap:butt;stroke-linejoin:miter;stroke-miterlimit:4;stroke-opacity:1;stroke-width:0;stroke:#000" d="m317.90717 396.48346c1.23519-2.11482-.31864-2.92442 2.32928-6.67178-.81219-1.19611-1.32333.60383-2.31054 1.54152-1.1501 2.07928-.003 3.5724-.0187 5.13033z" id="path8170-0-1-7-2-3-9-2-0-2-2-7-2-5-7-6-3"/><path style="display:inline;fill-opacity:1;fill:#fff;opacity:1;stroke-dasharray:none;stroke-linecap:butt;stroke-linejoin:miter;stroke-miterlimit:4;stroke-opacity:1;stroke-width:0;stroke:#000" d="m315.22463 395.52383c2.05214-1.26776 1.04852-2.73636 5.09023-4.75996-.17311-1.45-1.44285-.10895-2.74079.23991-1.96085 1.27767-1.6272 3.15233-2.34944 4.52013z" id="path8170-0-1-7-2-3-9-2-0-2-2-7-2-5-9-4-51-7"/><path style="display:inline;fill-opacity:1;fill:#fff;opacity:1;stroke-dasharray:none;stroke-linecap:butt;stroke-linejoin:miter;stroke-miterlimit:4;stroke-opacity:1;stroke-width:0;stroke:#000" d="m313.31651 393.04136c2.38319.20167 2.39381-1.5959 6.82103-.81374.6757-1.28349-1.11233-.95548-2.36458-1.4515-2.3145-.13877-3.09876 1.58661-4.45649 2.2653z" id="path8170-0-1-7-2-3-9-2-0-2-2-7-2-5-9-8-5-83-48"/><path style="display:inline;fill-opacity:1;fill:#fff;opacity:1;stroke-dasharray:none;stroke-linecap:butt;stroke-linejoin:miter;stroke-miterlimit:4;stroke-opacity:1;stroke-width:0;stroke:#000" d="m313.03715 390.48171c2.18814.99595 2.76757-.6991 6.70337 1.53616 1.04507-.9845-.74845-1.27879-1.77466-2.1707-2.14317-.91331-3.43078.45208-4.92877.63459z" id="path8170-0-1-7-2-3-9-2-0-2-2-7-2-5-9-8-0-5-8-4"/><path style="display:inline;fill-opacity:1;fill:#fff;opacity:1;stroke-dasharray:none;stroke-linecap:butt;stroke-linejoin:miter;stroke-miterlimit:4;stroke-opacity:1;stroke-width:0;stroke:#000" d="m313.54915 387.68709c1.62542 1.81149 2.8088.49341 5.56183 4.15907 1.3376-.47497-.19536-1.48063-.79436-2.72009-1.61592-1.71718-3.32253-.99211-4.76754-1.43895z" id="path8170-0-1-7-2-3-9-2-0-2-2-7-2-5-9-8-0-0-6-04-37"/></svg>