<svg viewBox="0 0 560 1e3"><path d="m266.56266 487.41644c-1.02095.32423-2.19079.17635-2.92249.16431-1.17374-.0187-3.47875-1.81699-3.67721-2.36577.30298-2.36283 6.37063-5.59458 10.88669-2.56186-1.46852 3.35279-2.47463 3.76341-4.28699 4.76332z" id="path3772" style="fill:#000;stroke-width:2.09582233"/><path d="m255.27995 446.60038c6.50912-11.67963 29.77442-19.32877 31.99255 7.47132.73509 1.50835-.99181 8.28379-3.06764 16.80485-2.37736 8.31923-4.26225 17.77743-5.187 27.20174-.60655 10.78014-3.16835 28.41813-18.66438 27.16633-8.86166-2.02364-13.34286-8.87729-16.99059-13.63378-.34689-1.59961.37393-2.39799.22287-3.00425-1.89599-7.62709-1.31301-19.06576 1.133-31.82103 2.09772-10.93928 5.68448-21.98305 10.56088-30.18518z" id="path3774" style="fill:#000;stroke-width:4.80962086"/><path d="m275.47008 511.01904c-.0341 1.28506-1.7518 5.80451-3.39675 7.95086-3.74591 4.21171-8.22184 6.08564-13.48666 4.44243-2.46156-.0425-10.33923-6.07503-14.10633-12.21132 1.60334-5.33487 23.97611 3.07121 30.98974-.18178z" id="path3776" class="areola"/><path class="skin penis" d="m256.34569 444.31947c5.975-11.93909 27.33148-19.75821 29.36754 7.63729.6748 1.54192-.9104 8.46781-2.8159 17.17831-2.18226 8.50394-4.72807 18.01403-5.57701 27.64777-.10449 5.38762-.62177 8.90122-1.1327 12.20166-3.74672 4.33622-24.1953-1.71632-31.31066-1.12293-1.74043-7.79656-.4712-19.64761 1.77408-32.68629 1.9255-11.18227 5.21802-22.47136 9.69433-30.85581z" id="path3778"/></svg>