<svg viewBox="0 0 560 1e3"><path style="display:inline;fill-opacity:1;fill-rule:evenodd;fill:#1a1a1a;opacity:1;stroke-dasharray:none;stroke-linecap:butt;stroke-linejoin:miter;stroke-miterlimit:4;stroke-opacity:0;stroke-width:3.12141943;stroke:#000" d="m343.5428 214.6482c-2.42245-3.90715-5.61652-5.11615-2.46322-5.81823 3.09936-.69007 7.413-.20451 12.63287 2.97209.55364.0366 4.87055-1.08705 7.56308-1.27836 6.52591 1.57616 12.84553 4.24795 16.73057 8.42871 4.32277 3.44635 12.10795 17.13675 20.40765 36.17342 8.01951 18.39403 20.4448 62.60261 18.85735 71.35255-3.71232 20.46204-34.88437 83.56404-55.36851 100.32071-1.60272 1.31108-13.12989-9.85844-14.15688-10.21274 8.15219-10.15268 17.41405-40.44466 25.70126-59.6424 6.4042-14.83565 10.18563-22.99279 14.82592-30.38011-7.41107-26.40511-9.56705-37.4422-14.89943-49.90961-10.49245-13.77934-29.32553-61.34522-29.83066-62.00603z" id="path6027-4"/><path style="display:inline;fill-opacity:1;fill-rule:evenodd;fill:#c8c8c8;opacity:1;stroke-dasharray:none;stroke-linecap:butt;stroke-linejoin:miter;stroke-miterlimit:4;stroke-opacity:0;stroke-width:3;stroke:#000" d="m347.79149 214.93549c-2.23963-3.9037-5.24707-5.46976-2.27732-5.81311 2.34188-.27076 3.97624.42059 8.17242 2.85366.81782-.12479 6.0486-1.32905 7.73226-1.30779 6.34277 1.60335 12.6838 4.37327 16.49759 8.4654 4.19779 3.33636 12.9578 18.68915 20.62372 37.81675 11.74115 29.29591 18.9066 62.8276 17.8714 69.42837-2.80063 17.85775-30.81407 76.37964-53.68621 98.74567-1.4607 1.42838-11.1456-11.82267-12.09508-12.17666 7.53693-10.14373 15.46986-34.91237 23.13163-54.0932 5.92088-14.82258 10.93098-24.10642 15.22107-31.48724-6.61989-23.77063-10.34714-43.6697-15.67838-52.54445-9.70058-13.7672-25.04609-59.22717-25.5131-59.8874z" id="path6029-2"/><path id="path5127-7" d="m343.5428 214.6482c-2.42245-3.90715-5.6754-5.47457-2.46322-5.81823 28.51677-1.59867 42.42707 10.77471 51.53249 29.36005-12.92757 16.62112-27.7283 25.65125-32.12414 28.4117-8.45824-20.98258-16.56578-51.45726-16.94513-51.95352z" style="display:inline;fill-opacity:1;fill-rule:evenodd;fill:#000;stroke-dasharray:none;stroke-linecap:butt;stroke-linejoin:miter;stroke-miterlimit:4;stroke-opacity:0;stroke-width:3.12141943;stroke:#000"/><path id="path5129-3" d="m347.79149 214.93549c-2.23963-3.9037-5.24707-5.46975-2.27732-5.81311 25.74536-1.43752 38.78709 11.60774 47.04805 29.11226-5.56821 6.0939-19.91553 20.06696-30.56089 24.58859-7.26988-20.62244-13.88098-47.42281-14.20984-47.88774z" style="display:inline;fill-opacity:1;fill-rule:evenodd;fill:#333;stroke-dasharray:none;stroke-linecap:butt;stroke-linejoin:miter;stroke-miterlimit:4;stroke-opacity:0;stroke-width:3;stroke:#000"/><path id="path6411-2-9" d="m368.1298 215.83681c-6.59743 10.92569 16.27035 33.95227 30.05837 64.3439 16.77578-18.89318-12.75186-76.94446-23.56393-78.07642-1.48601-.15558-2.6875 7.99135-6.49444 13.73252z" style="display:inline;fill-opacity:1;fill:#000;opacity:1;stroke-dasharray:none;stroke-linecap:butt;stroke-linejoin:miter;stroke-miterlimit:4;stroke-opacity:1;stroke-width:0;stroke:#000"/><path id="path6411-2" d="m370.83079 217.2808c-6.1692 10.28453 14.20451 32.29179 27.09756 60.89991 15.68689-17.78445-10.9144-72.76102-21.02467-73.82655-1.38955-.14644-2.51306 7.52239-6.07289 12.92664z" style="display:inline;fill-opacity:1;fill:#aca793;opacity:1;stroke-dasharray:none;stroke-linecap:butt;stroke-linejoin:miter;stroke-miterlimit:4;stroke-opacity:1;stroke-width:0;stroke:#000"/></svg>