<svg viewBox="0 0 560 1e3"><path style="display:inline;fill-opacity:1;fill-rule:evenodd;fill:#000;opacity:1;stroke-dasharray:none;stroke-linecap:butt;stroke-linejoin:miter;stroke-miterlimit:4;stroke-opacity:1;stroke-width:0;stroke:#000" d="m367.91666 272.56978c-1.04417.19236-67.69797-5.53131-128.35152-5.00041 3.08213-21.15597 10.88675-37.50197 36.99355-60.69871-.63873-.33426 5.76049-3.75929 10.28502-6.16163 8.14833-12.70068 6.58972-19.9665 7.42911-19.7012 7.80794 2.46783 11.66265-2.52162 18.04047-7.12212.74373-.53648-.002 15.72836 5.79219 24.68404 1.50252 1.12706 9.10193 4.89722 7.88644 5.69617-25.72677 16.91039-30.9022 28.84774-29.45936 29.06832 3.13994 1.52155 70.52301 36.43769 71.62912 37.26225z" id="path2662-8-4"/><path style="display:inline;fill-opacity:1;fill-rule:evenodd;fill:maroon;opacity:1;stroke-dasharray:none;stroke-linecap:butt;stroke-linejoin:miter;stroke-miterlimit:4;stroke-opacity:1;stroke-width:0;stroke:#000" d="m368.16666 271.04006c-.022.17059-.0457.36964-.0714.59595-76.50814-6.11786-107.46504-5.32427-128.47305-5.21485 3.60766-34.58862 21.29863-55.73209 37.31388-60.44006.49229-.51848 5.43756-2.25669 9.91452-4.65903 6.67421-5.15908 6.83554-16.63841 7.30509-16.68638 9.66279-.98707 12.18194-7.30033 16.83937-10.42453 1.18842-.79719-.15736 14.75347 6.7887 24.97163 1.48672 1.12706 18.54432 6.19296 19.0762 7.53532.0.0 22.53186-3.73753 32.01093 28.69935.0476.44543 1.31272 7.24328 1.49903 15.71117.21526 6.04642-.99897 15.21794-2.20327 19.91143z" id="path2664-3-9"/><path id="path1760-5-4-5" d="m350.44891 411.28161c-41.34356 12.40411-56.35277 29.50718-67.32299 47.0649-1.04023 1.75909-1.92047 7.35117-4.50173 9.70959-.97785.89343-3.70051-.0277-4.03805.0431-.91345.19159-2.09488.29968-2.84109.24274-1.3589-.10369-3.10427-.97079-4.62926-2.64607-1.15035-1.26373-2.1753-2.98733-2.81436-5.19001-8.27893-10.93923-27.60352-39.54369-38.34145-47.86102.0176-.005-.05-.20603.59439-1.93851 16.6623 12.87869 26.04641 28.55393 42.32336 28.99216 18.31235-.0725 28.69369-13.91735 80.95827-30.20977.0.0.63138 1.78415.61291 1.79289z" style="display:inline;fill-opacity:1;fill-rule:evenodd;fill:maroon;opacity:1;stroke-dasharray:none;stroke-linecap:butt;stroke-linejoin:miter;stroke-miterlimit:4;stroke-opacity:1;stroke-width:0;stroke:#000"/><path id="path1781-9-7-9" d="m282.94456 458.76549c-.0483.15247-.11284.47208-.19954.90622-.41277 2.06685-1.81439 6.53069-3.87757 8.11265-.26921.20642-1.13559 1.14752-4.57861.28177-.17398-.0437-2.18026 1.1699-4.2783.12449-4.65827-2.32112-6.22252-8.10904-6.31915-8.53686 3.82592 9.08132 8.89939 9.3147 10.40315 7.55401 5.26837 2.79873 7.50839-4.81217 8.85002-8.44228z" style="display:inline;fill-opacity:1;fill-rule:evenodd;fill:#000;opacity:1;stroke-dasharray:none;stroke-linecap:butt;stroke-linejoin:miter;stroke-miterlimit:4;stroke-opacity:1;stroke-width:0;stroke:#000"/></svg>