<svg viewBox="0 0 560 1e3"><path d="m265.37628 132.28711c.25813-3.77403 9.78194-5.76335 10.44932 3.89823-3.09737 3.48781-9.1931 2.75995-10.40615-.14511-.56962-1.36414-1.1657-2.50965-.0432-3.75312z" id="path4059-2-1-0-5-5-5-7" class="sclera"/><path d="m268.15181 133.35098c-.26076.66565 1.18754.20562 2.8955.17023-.003 4.40935 3.16103 3.55505 3.9915 1.86856.88285 3.6425-6.2772 3.10753-6.61328 1.69219-.17675-.45933-.35761-3.68176-.27372-3.73098z" id="path7178-3" class="eye"/><path d="m313.19999 131.1733c-.41093-3.77403-18.49089-5.58657-19.55331 4.07501.60224 2.16099 7.91703 4.83154 12.55497 3.60681 3.87534-1.02336 7.05427-3.65555 6.99834-7.68182z" id="path4059-2-1-0-5-5-3" class="sclera"/><path d="m298.8245 133.80668c-.26076.66565 1.58529.0509 3.29325.0155.2831 2.30674 1.71328 3.24999 2.42071 2.33112.99268-1.28937 2.47013-2.86498 2.89662-3.11421.66034 2.29533.20646 3.73661-.76179 4.58275-2.24288 1.96002-7.24577.72665-7.55297-.48198-.17675-.45933-.37971-3.28401-.29582-3.33323z" id="path7178-3-0" class="eye"/><path style="fill:#000;stroke-width:.18142612" d="m267.42128 138.80002c-.85239-.26839-1.00511-.38255-1.00826-.75354-.002-.31085-.25393-.61747-.86935-1.06076-.47612-.34294-1.04953-.8465-1.27425-1.11902-.22472-.27253-1.72615-3.81908-2.00069-4.00646 1.08738-1.14661 1.81209-2.2437 2.81224-2.39796l94e-5-9e-5c.96444-.14875 1.19205-.33415.86693-.70614-.15931-.18228-.40329-.2471-.68098-.18091-.2965.0706-.43272.0262-.43272-.14124.0-.3079 1.5442-1.68906 2.58801-2.31476.62271-.37328.74628-.52467.58185-.7128-.16597-.1899-.0829-.26586.40523-.3705 1.3605-.29167 4.00024.0809 4.53284.63972.45862.48122.2925.54771-.62142.24871-.4312-.14106-1.39566-.27676-2.14323-.30156l-1.35924-.045-1.42408 1.13629c-.78324.62494-1.38148 1.20173-1.3294 1.28174.17369.26685 1.50453.1498 2.35412-.20707.82822-.34789.85127-.34813 1.74583-.0181.4986.18393 1.28459.46128 1.74667.61631 1.24019.41612 2.09498 1.17955 2.83239 2.52969 1.01045 1.85008 1.44745 3.24761 1.44745 4.62902.0.77286-.0518 1.17145-.25584 1.37397-.99832.89678-5.87674 2.55934-8.51504 1.88046zm7.58415-2.36048c.0645-.38292.062-.6962-.006-.6962-.0674.0-.3755.27353-.68463.60787-.88537.95752-2.16207.91467-2.95136-.0991-.33825-.43446-.40579-.71905-.35484-1.49529.0345-.5273.0365-.95861.004-.95848-.0324 13e-5-.22014.0822-.41736.18247-.21181.10763-.59249.12466-.93002.0417-.61829-.15213-.67391-.44914-.0998-.53235.85165-.12342 2.71603-1.71912 2.71603-2.32463.0-.34914-1.23204-.20695-2.32546.2684-.91428.39746-1.1226.58112-1.45392 1.28175-1.01483 3.64733 1.00476 5.49567 4.24257 5.07666 1.18401-.15297 1.9273-.54748 2.26079-1.3528zm23.0519.74721c-.48961-1.09113-.62493-1.6698-.63216-2.703-.009-1.31478.33422-2.41585 1.01948-3.26898.59367-.7391.58328-.78721-.14328-.66312-1.19945.20485-2.15869.7881-3.19862 1.94488-.9782 1.0881-1.03699 1.20717-1.03699 2.10021.0.52069.084 1.17067.18662 1.44441.93768 1.16055 4.58754 2.2403 3.80495 1.1456zm11.78864-1.41755c.0899-.88836-.21985-2.14743-.5283-2.14743-.0819 1.89422-.32276 2.99336-.94473 4.18462.18907-.0585.36839-.18927.79399-.68177.47675-.50851.51824-.73739.67904-1.35542zm-2.56184 3.34778c-1.25679.37152-3.12933.41723-5.42898.13253l49e-5-1e-5c-4.20329-.87227-6.5424-1.71229-7.87571-3.23592-.31344-.35857-.42533-.65307-.35261-.92816.14914-.56432-.0566-.50189-.39524.11993-.26777.4917-.26042.54439.12343.88397.28197.24944.32535.35935.14032.35546-.71982-.0151-1.14181-.80144-.74751-1.39292.10174-.15267.0869-.37002-.0385-.56054-.16326-.24822-.1033-.45005.29635-.99767.63452-.86945.64062-1.19076.009-.49071-.46777.5187-.47587.52065-.36822.0884.0606-.24309.11124-.57846.11264-.74523 99e-5-.16678.25389-.57507.56108-.9073.69759-.75444.70055-.89376.0162-.76379-.35029.0665-.61856.0158-.75765-.14338-.17771-.20334-.0158-.28365.92684-.45975.77777-.14532 1.59861-.48511 2.57289-1.06507 3.88601-2.31328 5.86851-2.8555 10.55358-2.8865 1.51827-.0104 1.8618-.0609 1.8618-.27537.0-.42749-3.00453-2.05448-4.61733-2.38132-.76799-.15564-1.79203-.36461-2.27563-.46439-.48361-.0998-1.13293-.12851-1.4429-.0639-.34262.0714-.56362.0461-.56362-.0644.0-.38018.59886-.46313 2.54854-.353 2.41293.13629 2.88756.38323 5.51093 1.868 1.98148 1.12146 2.60873 1.63468 2.60873 2.13443.0.56585.46217.80335 1.1319.58165.48-.1589.5636-.14897.48036.057-.0785.19422.0357.22834.51617.15429.84194-.12974 1.01109.20733.40535.80771-.26719.26482-.48579.56426-.48579.66541.0.35652.70185.78059 1.50829.91132.98403.1595 1.07744.41639.55067 1.51443-.21084.43948-.38334.88145-.38334.98217.0.17346.42783.32783 1.21103.43699.77165.10755.44728.43666-.54657.55456-1.01809.12079-1.05066.1431-2.35062 1.60899-1.53268 1.81806-2.85493 3.6404-5.01637 4.32209zm.34364-5.40682c-.19634-.69455-.20479-.70024-.47412-.31837-.15084.21384-.47629.59582-.72326.84886-.24696.25305-.45169.59522-.45495.76037-.019.96279-2.24276 2.14226-2.70371 1.43403-.0689-.1057-.28489-.15252-.48017-.10402-.44636.11084-.90616-.66437-.90616-1.52773v-.60395l-1.27794.0868c-1.42505.0968-2.02682-.2065-.82177-.4142.84256-.14523 1.72766-.55519 2.79789-1.29591 1.82529-1.26334.25714-2.45183-1.75652-1.33124-.90127.50153-1.5999 1.42295-1.91116 2.52058-.26094.92019.0205 2.07351.73427 3.00918.7796 1.02195 1.44417 1.55527 3.61594 1.55919 2.5591.0781 4.85382-1.19683 4.36166-4.62359zm-2.93743 2.0269c.418-.21243.48761-.87775.0918-.87775-.14755.0-.32007.0796-.38334.17679-.0633.0973-.28665.17679-.49637.17679-.27648.0-.34917-.0794-.26443-.28917.10529-.26049.0759-.26337-.29569-.029-.57073.35985-.59747.55449-.10784.78472.55734.26204 1.0178.28029 1.45583.0576zm.99244-1.33569c.16133-.39922-.0245-.60281-.55021-.60281-.31658.0-.45447.0984-.45447.32411.0.17827.0559.37717.12412.44199.23065.21902.76619.11972.88056-.16329zm-10.12753-7.41309c0-.0507.21881-.40618.48626-.78994.43141-.61904.91633-.9616 1.18937-.8402.0512.0228.34443-.12721.65162-.3333.87755-.58872 3.7117-1.29274 4.12785-1.29274.82096.0-.59562.22153-2.74903 1.2279-1.23843.57878-2.53996 1.29264-2.89229 1.58637-.62948.52486-.81378.62492-.81378.44191zm-28.57887 5.2803c.33013-.75027.33242-.7683.0975-.7683-.37225.0-.75271.85889-1.01683 2.29546-.14962.81384-.23136 1.54219-.18164 1.61858.0498.0763.0978.48825.10685.91527.0158.75201 1.12443 1.10323 2.04893 1.54596-.42184-.41193-1.56065-2.51833-1.05481-5.60697zm7.16532 3.18604c.61383-.86367.62345-1.30243.0285-1.30243-.42347.0-.67037.48406-.40296.79004.27316.31252.0389.4475-.77676.4475-.76673.0-1.17585.42925-.68843.7223.64985.39074 1.24611.17767 1.83961-.65741z" id="path7141-3"/></svg>