<svg viewBox="0 0 560 1e3"><g data-transform="boob" class="scaler_" id="g5071" transform="matrix(1.1899396,0,0,1.1247504,-49.050018,-33.548868)"><path class="steel_piercing" id="path5055" d="m304.43052 265.04928a1.492089 1.5189453.0 01-1.492 1.51895 1.492089 1.5189453.0 01-1.49217-1.51895 1.492089 1.5189453.0 011.49217-1.51895 1.492089 1.5189453.0 011.492 1.51895z"/><path class="steel_piercing" id="path5062" d="m220.57269 258.9015a1.1705781 1.5180192 25.769065 011.75832-.36045 1.1705781 1.5180192 25.769065 01-.048 2.03119 1.1705781 1.5180192 25.769065 01-1.75818.36044 1.1705781 1.5180192 25.769065 01.048-2.03118z"/><path class="steel_piercing" id="path5064" d="m217.2762 259.06256a.77320774 1.0079807 75.359354 01-.62609-.54592.77320774 1.0079807 75.359354 01.36017-.76912.77320774 1.0079807 75.359354 01.98487-.22055l-.36237.76718z"/><path class="steel_piercing" id="path5069" d="m298.98391 264.96609a1.492089 1.5189453.0 01-1.492 1.51895 1.492089 1.5189453.0 01-1.49217-1.51895 1.492089 1.5189453.0 011.49217-1.51895 1.492089 1.5189453.0 011.492 1.51895z"/><path id="XMLID_610_" class="steel_piercing" d="m297.96724 265.0808c.10046.0-.50234.67125-.50234 1.63018.0.86304.50234 1.91785 1.70794 2.30142 1.40653.38357 2.91353-.86303 3.3154-1.91785.40187-1.05482-.3014-1.91785-.20093-2.01375.20093-.0959 1.10513 1.15072.9042 2.30143-.20094 1.34249-1.70794 2.97267-3.61681 2.68499-1.40653-.19178-2.81306-1.2466-2.81306-2.68499-.20094-1.3425 1.10513-2.39732 1.2056-2.30143z"/><path id="XMLID_612_" class="steel_piercing" d="m216.69611 261.48851c.009-.005.0741-.10909.10559-.006.60134 1.97252 9.33891 26.58142 37.27224 27.85914 29.13245 1.2452 43.56651-16.8452 45.81406-19.44982.17938-.20787.42176-.0514.44717-.0443.3438.19209-13.23558 21.84332-46.06822 20.49876-31.62935-1.24855-37.74274-28.76177-37.57084-28.8578z"/><path id="XMLID_611_" class="steel_piercing" d="m217.35361 258.94277c-.54264.56923-.70293 1.39877-.4532 2.06056.43127.91955 1.9849.71905 2.90327.0262.86168-.61974 1.05415-1.52407 1.19023-1.53565.1361-.0116-.20369 1.2468-.96324 2.06277-.95231.90067-2.73265 1.39367-3.65158.44732-.60132-.70018.23969-2.54312 1.13022-3.51987.0608-.063-.12984.11048-.1557.45869z"/></g></svg>