<svg viewBox="0 0 560 1e3"><path id="path4510-8-4-5" d="m372.04335 267.10594c1.53464 47.47488-14.25563 73.69993-14.9505 81.05484 1.95915 5.74033 28.70997 48.09836 7.43861 69.26648-26.83331 14.10151-125.06351 21.80146-141.32919-1.8412-3.61419-35.95451-7.58581-35.87317 13.69091-95.47977-1.87782-10.29261-3.19035-20.34715-3.76674-28.39016-5.66195-68.91381 28.97148-80.02705 53.71727-91.0071 9.24713 11.38115 25.18214 3.12903 31.26177-2.13928.12489 7.20108 48.79561 29.49512 53.93787 68.53619z" style="display:inline;fill-opacity:1;fill-rule:evenodd;fill:#000;opacity:1;stroke-dasharray:none;stroke-linecap:butt;stroke-linejoin:miter;stroke-miterlimit:4;stroke-opacity:1;stroke-width:0;stroke:#000"/><path id="path4512-9-0-8" d="m355.70126 347.98823c1.23702 4.41205 21.63123 38.99238 14.07201 55.40963-21.01719 4.68261-62.6695 19.4336-96.79041 19.24523-17.83513-.0985-33.02433-3.64892-48.37667-12.82336-5.05178-23.4018-4.50164-42.58907 13.62407-89.7273-5.96785-40.25491-12.23333-105.60799 43.87527-117.67313 3.12384-2.05334 5.3098-5.95602 6.93885-10.38042 1.65753 5.04021 26.21695.68309 26.60293.54975 2.99455 5.49381 1.12395 6.57536 6.71301 7.72308 51.82498 10.67434 54.83494 38.37524 49.02452 68.26307.84914 29.59697-8.64203 59.14382-15.68358 79.41345z" style="display:inline;fill-opacity:1;fill-rule:evenodd;fill:#c8c8c8;opacity:1;stroke-dasharray:none;stroke-linecap:butt;stroke-linejoin:miter;stroke-miterlimit:4;stroke-opacity:1;stroke-width:0;stroke:#000"/><path style="display:inline;fill-opacity:1;fill:#000;opacity:1;stroke-dasharray:none;stroke-linecap:butt;stroke-linejoin:miter;stroke-miterlimit:4;stroke-opacity:1;stroke-width:0;stroke:#000" d="m288.65067 205.94096c-.008-.17 5.77348-12.05234 5.84504-12.26958.0.0-5.0441-2.25985-5.19628-2.04286-.92463 1.3184-2.65827 4.70639-4.15936 6.60625.1059.25324 3.5106 7.70619 3.5106 7.70619z" id="path4514-0-22"/><path style="display:inline;fill-opacity:1;fill:#c8c8c8;opacity:1;stroke-dasharray:none;stroke-linecap:butt;stroke-linejoin:miter;stroke-miterlimit:4;stroke-opacity:1;stroke-width:0;stroke:#000" d="m288.66108 203.74098c-.008-.16669 5.35844-10.06772 5.42795-10.28074.0.0-4.89991-2.21585-5.04775-2.00309-.8982 1.29274-2.58228 4.61477-4.04047 6.47765.10291.24831 3.66027 5.80618 3.66027 5.80618z" id="path4516-7-0"/><path style="display:inline;fill-opacity:1;fill:#000;opacity:1;stroke-dasharray:none;stroke-linecap:butt;stroke-linejoin:miter;stroke-miterlimit:4;stroke-opacity:1;stroke-width:0;stroke:#000" d="m303.24206 205.47603c.007-.15238-3.99545-11.03492-4.06234-11.22965.0.0 16.62296-2.66894 16.76522-2.47444.86438 1.18176 2.6413 5.37486 3.07583 6.04657-.099.227-15.77871 7.65752-15.77871 7.65752z" id="path4518-2-2"/><path style="display:inline;fill-opacity:1;fill:#c8c8c8;opacity:1;stroke-dasharray:none;stroke-linecap:butt;stroke-linejoin:miter;stroke-miterlimit:4;stroke-opacity:1;stroke-width:0;stroke:#000" d="m303.64915 204.60393c.007-.14856-3.93866-10.27774-4.00456-10.46759.0.0 15.63782-2.64512 15.77799-2.4555.85164 1.15214 2.60238 5.24014 3.03051 5.89501-.0975.22131-14.80394 7.02808-14.80394 7.02808z" id="path4520-0-1"/><path style="display:inline;fill-opacity:1;fill:#000;opacity:1;stroke-dasharray:none;stroke-linecap:butt;stroke-linejoin:miter;stroke-miterlimit:4;stroke-opacity:1;stroke-width:0;stroke:#000" d="m273.58909 423.41117c-3.37067-27.44695 2.88577-98.87995 23.42937-229.08842l.80611.10099c.44243 13.37084-30.31571 185.93927-21.95569 228.96976.0.0-1.85534.73859-2.27979.0177z" id="path4522-4-9"/><path style="display:inline;fill-opacity:1;fill-rule:nonzero;fill:#999;opacity:1;stroke-dasharray:none;stroke-linecap:butt;stroke-linejoin:round;stroke-miterlimit:4;stroke-opacity:1;stroke-width:0;stroke:#000" d="m300.87394 220.43307a2.7544847 2.8454499.0 01-2.75448 2.84545 2.7544847 2.8454499.0 01-2.75449-2.84545 2.7544847 2.8454499.0 012.75449-2.84546 2.7544847 2.8454499.0 012.75448 2.84546z" id="path4524-9-9"/><path style="display:inline;fill-opacity:1;fill-rule:nonzero;fill:#999;opacity:1;stroke-dasharray:none;stroke-linecap:butt;stroke-linejoin:round;stroke-miterlimit:4;stroke-opacity:1;stroke-width:0;stroke:#000" d="m297.69369 242.50598a2.7544847 2.8454499.0 01-2.75448 2.84545 2.7544847 2.8454499.0 01-2.75449-2.84545 2.7544847 2.8454499.0 012.75449-2.84546 2.7544847 2.8454499.0 012.75448 2.84546z" id="path4526-8-5"/><path style="display:inline;fill-opacity:1;fill-rule:nonzero;fill:#999;opacity:1;stroke-dasharray:none;stroke-linecap:butt;stroke-linejoin:round;stroke-miterlimit:4;stroke-opacity:1;stroke-width:0;stroke:#000" d="m294.36894 266.99921a2.7544847 2.8454499.0 01-2.75448 2.84545 2.7544847 2.8454499.0 01-2.75449-2.84545 2.7544847 2.8454499.0 012.75449-2.84546 2.7544847 2.8454499.0 012.75448 2.84546z" id="path4528-5-5"/><path style="display:inline;fill-opacity:1;fill-rule:nonzero;fill:#999;opacity:1;stroke-dasharray:none;stroke-linecap:butt;stroke-linejoin:round;stroke-miterlimit:4;stroke-opacity:1;stroke-width:0;stroke:#000" d="m291.12262 291.4949a2.7544847 2.8454499.0 01-2.75448 2.84545 2.7544847 2.8454499.0 01-2.75449-2.84545 2.7544847 2.8454499.0 012.75449-2.84546 2.7544847 2.8454499.0 012.75448 2.84546z" id="path4530-6-4"/><path style="display:inline;fill-opacity:1;fill-rule:nonzero;fill:#999;opacity:1;stroke-dasharray:none;stroke-linecap:butt;stroke-linejoin:round;stroke-miterlimit:4;stroke-opacity:1;stroke-width:0;stroke:#000" d="m288.19248 313.4826a2.7544847 2.8454499.0 01-2.75448 2.84545 2.7544847 2.8454499.0 01-2.75449-2.84545 2.7544847 2.8454499.0 012.75449-2.84546 2.7544847 2.8454499.0 012.75448 2.84546z" id="path4532-6-80"/><path style="display:inline;fill-opacity:1;fill-rule:nonzero;fill:#999;opacity:1;stroke-dasharray:none;stroke-linecap:butt;stroke-linejoin:round;stroke-miterlimit:4;stroke-opacity:1;stroke-width:0;stroke:#000" d="m285.69616 337.78711a2.7544847 2.8454499.0 01-2.75448 2.84545 2.7544847 2.8454499.0 01-2.75449-2.84545 2.7544847 2.8454499.0 012.75449-2.84546 2.7544847 2.8454499.0 012.75448 2.84546z" id="path4534-8-4"/><path style="display:inline;fill-opacity:1;fill-rule:nonzero;fill:#999;opacity:1;stroke-dasharray:none;stroke-linecap:butt;stroke-linejoin:round;stroke-miterlimit:4;stroke-opacity:1;stroke-width:0;stroke:#000" d="m283.59261 360.44517a2.7544847 2.8454499.0 01-2.75448 2.84545 2.7544847 2.8454499.0 01-2.75449-2.84545 2.7544847 2.8454499.0 012.75449-2.84546 2.7544847 2.8454499.0 012.75448 2.84546z" id="path4536-5-9"/><path style="display:inline;fill-opacity:1;fill-rule:nonzero;fill:#999;opacity:1;stroke-dasharray:none;stroke-linecap:butt;stroke-linejoin:round;stroke-miterlimit:4;stroke-opacity:1;stroke-width:0;stroke:#000" d="m282.01878 380.39507a2.7544847 2.8454499.0 01-2.75448 2.84545 2.7544847 2.8454499.0 01-2.75449-2.84545 2.7544847 2.8454499.0 012.75449-2.84546 2.7544847 2.8454499.0 012.75448 2.84546z" id="path4538-4-90"/><path style="display:inline;fill-opacity:1;fill-rule:nonzero;fill:#999;opacity:1;stroke-dasharray:none;stroke-linecap:butt;stroke-linejoin:round;stroke-miterlimit:4;stroke-opacity:1;stroke-width:0;stroke:#000" d="m281.0045 400.49998a2.7544847 2.8454499.0 01-2.75448 2.84545 2.7544847 2.8454499.0 01-2.75449-2.84545 2.7544847 2.8454499.0 012.75449-2.84546 2.7544847 2.8454499.0 012.75448 2.84546z" id="path4548-1-0"/><path id="path4384-5-4" d="m369.57804 404.39597c1.35149 1.92814-7.6064 18.10846-7.6064 18.10846.27389-.29673-28.57991.16532-52.32103 15.24977.0.0-27.25743 36.34309-35.46729 33.52591-15.72485 1.8412-51.89327-54.06395-52.1688-53.9282-.66293.32662 2.38196-5.95014 2.38196-5.95014 40.84554 26.08339 98.79745 7.18498 145.18143-7.0058z" style="display:inline;fill-opacity:1;fill-rule:evenodd;fill:#333;opacity:1;stroke-dasharray:none;stroke-linecap:butt;stroke-linejoin:miter;stroke-miterlimit:4;stroke-opacity:1;stroke-width:0;stroke:#000"/><path id="path4386-3-8" class="shadow" d="m328.65568 423.62719c-15.47912 1.19068-42.03655 26.26041-44.60915 30.99635 10.29989-9.14088 29.75953-26.28541 44.60915-30.99635z"/><path id="path4388-4-6" class="shadow" d="m260.91357 455.47548c-6.81704-9.41592-28.83006-31.99347-34.93819-34.15183 5.05404 5.44075 26.5203 25.35081 34.93819 34.15183z"/><path id="path4390-1" class="shadow" d="m263.96084 458.59555c4.57815 9.39542 6.98201 9.38912 10.48006 8.45228.29456-.0789 4.22668 4.42641 8.46793-9.07021-1.38475 8.70911-4.15105 11.96876-8.5336 9.82506-.0226-.0111-2.82256 1.04466-4.71233.003-2.95847-1.63089-5.51373-5.99794-5.70206-9.21004z"/></svg>