<svg viewBox="0 0 560 1e3"><path d="m245.79689 232.13385c-13.52893 22.92539-11.00627 60.79492-5.72985 87.55332.82222 7.07373-13.37271 59.36456-14.79917 65.51166-2.32894 15.60416.26969 26.37862 1.05903 27.75724 7.14689 17.05099 22.28943 38.40947 37.34927 44.62262 4.19505 3.59751 7.69563 8.97276 12.37124 10.72841 1.96441-4.71239 4.08592-9.99676 8.2212-13.82212 5.81184-8.10478 17.88524-15.78656 32.2398-23.23719 12.6746-6.57867 26.70872-14.37864 44.60422-12.65486 8.13335-21.86489-6.66093-53.30781-10.7264-64.86043 2.50224-39.03129 18.94909-48.36485 20.4448-89.97313" class="shadow" id="path7186"/><path id="path7198" class="skin torso" d="m273 208.2s-17.0052.58769-27.7052 24.58769-9.14861 65.58718-3.04861 87.18718c-.80901 17.19848-14.10076 57.35457-15.51523 65.36574-2.34632 10.38033-.74492 25.90152-.73096 27.75939-.89074 3.34835 27.55 43.25 49.8 54.3 8.9-18.2 34.54435-46.40381 85.69835-47.93744 4.388-26.71451-8.59863-55.67279-12.72419-65.59421 2.02853-32.60652 15.91893-44.84117 21.56193-86.35806 1.64442-13.7063-1.25277-27.61695-4.63609-37.81029-11.7-21.9-21.9-21-21.9-21-32.6-3.4-28.15-11.875-30.6-50.1l-22.3 1c-.35 44-2.8 39.9-17.9 48.6"/><path id="path7200" class="shadow" d="m283.66521 456.38067c-1.54841.73859-1.78928 15.78672-9.24659 11.14886-5.5459 3.1603-10.12915-4.94173-10.42429-8.4126-.25114-2.95343 3.37748-7.20053 3.87403-6.51846 2.14579-.003 16.30971 2.85987 15.79685 3.7822z"/><path id="path7202" class="skin torso" d="m274.36595 467.58332c-3.81452 2.31718-9.64064-2.27902-10.8644-11.68664 5.95334-21.67633 25.49385-8.31185 20.23612.35499-2.87984 4.74713-3.52005 14.37508-9.37172 11.33165z"/><path class="bellybutton" d="m271.54026 376.44844c.0782 1.21363-.39233 3.20481-1.35826 3.28497-.96592.0802-1.48021-1.74966-1.55841-2.96328-.0782-1.21363.42001-3.09486 1.38594-3.17502.96593-.0802 1.45253 1.6397 1.53073 2.85333z" id="path5405-7-9-0-4-6-8"/></svg>