<svg viewBox="0 0 560 1e3"><path style="baseline-shift:baseline;clip-rule:nonzero;color-interpolation-filters:linearRGB;color-interpolation:sRGB;color-rendering:auto;color:#000;direction:ltr;display:inline;enable-background:accumulate;fill-opacity:1;fill-rule:evenodd;fill:#000;image-rendering:auto;isolation:auto;mix-blend-mode:normal;opacity:1;overflow:visible;shape-rendering:auto;solid-color:#000000;solid-opacity:1;stroke-dasharray:none;stroke-dashoffset:0;stroke-linecap:butt;stroke-linejoin:miter;stroke-miterlimit:4;stroke-opacity:1;stroke-width:3.09140849;stroke:none;visibility:visible;white-space:normal;writing-mode:lr-tb" d="m396.79941 570.32708c-5.42356-64.35257-14.42102-125.13238-36.55716-155.45054.0186 1.15703-134.19109-1.76837-134.80182-.71819-18.98533 32.64598-36.88774 82.59576-33.56582 156.26901 32.18943 11.8979 200.45074 8.59871 204.9248-.10028z" id="path7894"/><path style="baseline-shift:baseline;clip-rule:nonzero;color-interpolation-filters:linearRGB;color-interpolation:sRGB;color-rendering:auto;color:#000;direction:ltr;display:inline;enable-background:accumulate;fill-opacity:1;fill-rule:evenodd;fill:#800033;image-rendering:auto;isolation:auto;mix-blend-mode:normal;opacity:1;overflow:visible;shape-rendering:auto;solid-color:#000000;solid-opacity:1;stroke-dasharray:none;stroke-dashoffset:0;stroke-linecap:butt;stroke-linejoin:miter;stroke-miterlimit:4;stroke-opacity:1;stroke-width:3.03410745;stroke:none;visibility:visible;white-space:normal;writing-mode:lr-tb" d="m395.46477 570.37859c-4.59964-54.67017-2.74148-126.1066-35.76189-158.02197.0179 1.15703-132.54883-1.97818-133.20083-.96819-21.29616 32.989-37.02131 107.9156-33.68134 158.54845 8.86394 6.89418 159.02052 12.40169 202.64406.44171z" id="path7896"/><path style="baseline-shift:baseline;clip-rule:nonzero;color-interpolation-filters:linearRGB;color-interpolation:sRGB;color-rendering:auto;color:#000;direction:ltr;display:inline;enable-background:accumulate;fill-opacity:1;fill-rule:evenodd;fill:#f59;image-rendering:auto;isolation:auto;mix-blend-mode:normal;opacity:1;overflow:visible;shape-rendering:auto;solid-color:#000000;solid-opacity:1;stroke-dasharray:none;stroke-dashoffset:0;stroke-linecap:butt;stroke-linejoin:miter;stroke-miterlimit:4;stroke-opacity:1;stroke-width:3.03410745;stroke:none;visibility:visible;white-space:normal;writing-mode:lr-tb" d="m395.27727 568.00543c.0254-2.54517-.36208-4.25209-.36208-4.25209-51.37492 8.4513-199.08697 2.94969-202.45109 1.04529-.0267.51477.1205 2.98616.14854 3.30798-.24958 2.68114 181.43445 9.20715 202.66459-.10118z" id="path7898"/><path style="baseline-shift:baseline;clip-rule:nonzero;color-interpolation-filters:linearRGB;color-interpolation:sRGB;color-rendering:auto;color:#000;direction:ltr;display:inline;enable-background:accumulate;fill-opacity:1;fill-rule:evenodd;fill:#d40055;image-rendering:auto;isolation:auto;mix-blend-mode:normal;opacity:1;overflow:visible;shape-rendering:auto;solid-color:#000000;solid-opacity:1;stroke-dasharray:none;stroke-dashoffset:0;stroke-linecap:butt;stroke-linejoin:miter;stroke-miterlimit:4;stroke-opacity:1;stroke-width:3.03410745;stroke:none;visibility:visible;white-space:normal;writing-mode:lr-tb" d="m394.65761 559.04031c.0254-2.54517-2.23708-17.12709-2.23708-17.12709-5.87492 6.2013-196.53519.79804-199.89931-1.10636-.0267.51477-.55628 18.01281-.52824 18.33463-.24958 2.68114 181.43445 9.20715 202.66459-.10118z" id="path7900"/><path style="baseline-shift:baseline;clip-rule:nonzero;color-interpolation-filters:linearRGB;color-interpolation:sRGB;color-rendering:auto;color:#000;direction:ltr;display:inline;enable-background:accumulate;fill-opacity:1;fill-rule:evenodd;fill:#f59;image-rendering:auto;isolation:auto;mix-blend-mode:normal;opacity:1;overflow:visible;shape-rendering:auto;solid-color:#000000;solid-opacity:1;stroke-dasharray:none;stroke-dashoffset:0;stroke-linecap:butt;stroke-linejoin:miter;stroke-miterlimit:4;stroke-opacity:1;stroke-width:3.03410745;stroke:none;visibility:visible;white-space:normal;writing-mode:lr-tb" d="m391.65761 536.54031c.0254-2.54517-.27369-2.83788-.27369-2.83788-5.87492 6.2013-195.19788.5632-198.562-1.34119-.0267.51477-.23308 4.40038-.20498 4.7222 18.75042 1.43114 173.23731 7.66425 199.21745.60592z" id="path7902"/></svg>