<svg viewBox="0 0 560 1e3"><g data-transform="belly" id="g5713" transform="matrix(1.014792,0,0,1.0059302,-4.1476732,-2.5734225)"><path id="path5709" class="shadow" d="m274.8 433.8c20.7-1.5 47.7-4.5 61.9-42.4 13.1-44.3-27.8-99.6-59.9-101.5-40.1 6.2-61.8 42.8-63.9 96.9 2.2 31 33.1 49 61.9 47z"/><path style="fill-opacity:1;fill:#0b1728" id="path5711" d="m274.8 433.8c20.8.1 49.4-13 61.9-42.4s-18.5-83.4-46-101.7c-6.5-4.3-38.7-8.2-40.4.0-2.6 11.6-44.9 33.3-41.4 96.8 1.8 34.8 45.1 47.2 65.9 47.3z"/><path style="display:inline;fill-opacity:1;fill:#c8c8c8;opacity:1;stroke-dasharray:none;stroke-linecap:butt;stroke-linejoin:miter;stroke-miterlimit:4;stroke-opacity:1;stroke-width:0;stroke:#000" d="m208.7928 374.59522c9.829 47.57992 110.42045 37.17326 130.71054-.41258.0.0 1.03003 3.73548.46997 7.81036-5.21729 33.92517-37.7343 52.32392-69.46798 51.88869-31.67178-.43439-66.74835-22.11034-61.71247-59.28647z" id="path2246-4-41-0-9-4-9-2-8-6-8-4-2-9-5-3-6-2-4-1-2"/><path style="display:inline;fill-opacity:1;fill:#214478;opacity:1;stroke-dasharray:none;stroke-linecap:butt;stroke-linejoin:miter;stroke-miterlimit:4;stroke-opacity:1;stroke-width:0;stroke:#000" d="m208.87956 371.89547c9.68573 47.29942 110.4541 36.03223 130.44843-1.33203.0.0.28581 3.22758.21324 3.49538-10.30656 38.03161-129.82011 49.99063-130.74104.59492-.12381.24432.0794-2.75827.0794-2.75827z" id="path2246-4-41-0-9-4-9-2-8-6-8-4-2-9-5-3-6-2-4-1"/></g></svg>