<svg viewBox="0 0 560 1e3"><path id="path4152" d="m370.3969 269.0128c.40069 1.40387-1.11583 12.72289-8.30489 37.60241-5.42713 18.7819-12.19382 45.10812-12.7902 46.5662.0897 2.34411 6.53818 14.05382 8.99405 26.00841-36.77086 9.58655-110.59778 11.99867-129.46954-6.85783 2.433-12.49684 9.93148-36.52371 11.94649-51.5937-2.13048-7.70551-3.08737-14.72592-4.11084-28.13828.40962-35.13389 30.30326-40.0847 52.38713-59.43686.97617-2.02088 2.05999-19.89061-11.85024-27.17009-.63873-.33426 3.66191-3.80977 8.18644-6.21211 9.24713 11.38115 27.34766 3.74775 33.42729-1.52056 1.50252 1.12706 8.39482 5.20658 7.17933 6.00553-25.72677 16.91039-30.9022 28.84774-29.45936 29.06832 3.13994 1.52155 66.54554 33.43249 67.65165 34.25705z" style="display:inline;fill-opacity:1;fill-rule:evenodd;fill:#000;opacity:1;stroke-dasharray:none;stroke-linecap:butt;stroke-linejoin:miter;stroke-miterlimit:4;stroke-opacity:1;stroke-width:0;stroke:#000"/><path id="path4154" d="m360.51873 307.70681c-5.91469 18.86306-11.3485 40.65759-11.27871 44.67604.49582 5.07437 6.22897 14.87586 8.60406 26.14521-31.28229 8.06681-114.6775 12.03087-127.27987-7.27988 1.41111-4.24145 10.72754-45.56108 11.32053-50.51049-2.20191-8.47425-3.26007-13.82305-4.1491-26.36041-3.37265-53.10898 5.76723-81.27991 39.20048-88.39617.49229-.51848 3.97915-3.18477 8.45611-5.58711 9.14993 11.38115 27.08296 3.74775 33.09868-1.52056 1.48672 1.12706 17.52471 7.31482 18.05659 8.65718 2.58742.19199 9.57783.93138 12.62329 2.06534 33.53732 18.21703 23.79777 65.06109 11.34794 98.11085z" style="display:inline;fill-opacity:1;fill-rule:evenodd;fill:#1a1a1a;opacity:1;stroke-dasharray:none;stroke-linecap:butt;stroke-linejoin:miter;stroke-miterlimit:4;stroke-opacity:1;stroke-width:0;stroke:#000"/><path id="path1833-7" d="m282.94456 458.76549c-.0483.15247-.11284.47208-.19954.90622-.41277 2.06685-1.81439 6.53069-3.87757 8.11265-.26921.20642-1.13559 1.14752-4.57861.28177-.17398-.0437-2.18026 1.1699-4.2783.12449-4.65827-2.32112-6.22252-8.10904-6.31915-8.53686 3.82592 9.08132 8.89939 9.3147 10.40315 7.55401 5.26837 2.79873 7.50839-4.81217 8.85002-8.44228z" style="display:inline;fill-opacity:1;fill-rule:evenodd;fill:#000;opacity:1;stroke-dasharray:none;stroke-linecap:butt;stroke-linejoin:miter;stroke-miterlimit:4;stroke-opacity:1;stroke-width:0;stroke:#000"/><path id="path1760-5-4-2-5" d="m361.63641 418.84411c-26.82642-1.40287-67.54027 21.94468-78.51049 39.5024-1.04023 1.75909-1.92047 7.35117-4.50173 9.70959-.97785.89343-3.70051-.0277-4.03805.0431-.91345.19159-2.80735.34793-3.55356.29099-1.3589-.10369-3.01052-1.81454-4.53551-3.48982-1.15035-1.26373-2.1753-2.98733-2.81436-5.19001-8.77373-7.86601-26.29026-23.86431-37.72273-47.06552.0176-.005-.20468-.75846-.17901-2.20368 16.3118 24.34925 24.23707 27.1224 43.30386 28.66939 25.02987.6346 42.5883-20.51507 92.56367-22.37183.0.0.006 2.09665-.0121 2.10539z" style="display:inline;fill-opacity:1;fill-rule:evenodd;fill:#c837ab;opacity:1;stroke-dasharray:none;stroke-linecap:butt;stroke-linejoin:miter;stroke-miterlimit:4;stroke-opacity:1;stroke-width:0;stroke:#000"/><path id="path1781-9-7-8-75" d="m282.94456 458.76549c-.0483.15247-.11284.47208-.19954.90622-.41277 2.06685-1.81439 6.53069-3.87757 8.11265-.26921.20642-1.13559 1.14752-4.57861.28177-.17398-.0437-2.18026 1.1699-4.2783.12449-4.65827-2.32112-6.22252-8.10904-6.31915-8.53686 3.82592 9.08132 8.89939 9.3147 10.40315 7.55401 5.26837 2.79873 7.50839-4.81217 8.85002-8.44228z" style="display:inline;fill-opacity:1;fill-rule:evenodd;fill:#000;opacity:1;stroke-dasharray:none;stroke-linecap:butt;stroke-linejoin:miter;stroke-miterlimit:4;stroke-opacity:1;stroke-width:0;stroke:#000"/><path style="display:inline;fill-opacity:1;fill:#c837ab;stroke-dasharray:none;stroke-linecap:butt;stroke-linejoin:miter;stroke-miterlimit:4;stroke-opacity:1;stroke-width:0;stroke:#000" d="m293.86064 264.57931c-6.26801-3.01132-15.75805-11.63074-17.87259-19.86824-3.04504-11.86272 4.71945-22.57429 21.63478-11.57993 16.13297-8.15503 24.9627 3.10697 17.59197 15.59404-3.32722 5.63676-12.4856 11.01114-21.35416 15.85413z" id="path3267-5-3-7-0-9-9"/></svg>