<svg viewBox="0 0 560 1e3"><path d="m290.14844 121.99414c-.2823.42445-1.35966 3.11705-.70508 3.82813 2.071-.92383 13.11634-5.02734 16.57226-5.37891.75808-.1176 8.06607 4.50328 7.48626 3.9273-.28278-.28091-3.75707-4.21166-7.34451-5.34785-4.56178 1.23801-12.97098 1.78245-16.00893 2.97133z" id="path2650" class="eyebrow_hair"/><path d="m277.24499 122.07156c.18157.42445.8745 3.11705.45349 3.82813-1.332-.92383-8.43604-5.02734-10.6588-5.37891-.0391-.009-.10867.0117-.20291.0583-1.07857.53317-4.25982 3.64742-4.61204 3.86902-.22939.14431 2.25287-3.90811 4.4604-5.20548.0875-.0515.17537-.099.26338-.14237 2.934 1.23801 8.34256 1.78245 10.29648 2.97133z" id="path2650-4" class="eyebrow_hair"/></svg>