<svg viewBox="0 0 560 1e3"><path id="path3042" d="m348.2914 405.19186c.17781.17986 1.12967.71929 1.35381.93081 6.95749 6.56591 36.26135 27.9395 33.42042 66.34379-.96674 13.06863-3.75596 23.5307-17.65537 38.46438-.12998.13965-.22346.32146-.38494.40717-5.39478 2.86345-8.41079 3.34042-8.69759 3.50794-6.60238-17.8469-3.50284-103.99626-8.03633-109.65409z" style="display:inline;fill-opacity:1;fill-rule:evenodd;fill:#000;opacity:1;stroke-dasharray:none;stroke-linecap:butt;stroke-linejoin:miter;stroke-miterlimit:4;stroke-opacity:0;stroke-width:3.04869533;stroke:#000"/><path id="path3044" d="m347.8641 404.69506c.17781.17986 1.12967.71929 1.35381.93081 6.95749 6.56591 35.38635 28.40825 32.54542 66.81254-.96674 13.06863-3.84968 23.44401-17.65537 38.46438-1.15373 1.25524-7.1718 3.4701-7.43329 3.78171-6.60238-17.8469-4.27708-104.33161-8.81057-109.98944z" style="display:inline;fill-opacity:1;fill-rule:evenodd;fill:#333;opacity:1;stroke-dasharray:none;stroke-linecap:butt;stroke-linejoin:miter;stroke-miterlimit:4;stroke-opacity:0;stroke-width:3.04869533;stroke:#000"/><path style="display:inline;fill-opacity:1;fill-rule:evenodd;fill:#fff;opacity:1;stroke-dasharray:none;stroke-linecap:butt;stroke-linejoin:miter;stroke-miterlimit:4;stroke-opacity:1;stroke-width:0;stroke:#000" d="m355.68714 513.46243c.3402.2109-.28593.67848.35628 1.21159 2.81365-1.19225 7.70805-3.14666 8.38203-3.64741-.0883-.36153.004.008.004.008-4.57688 1.25427-4.62117.83623-8.74249 2.42815z" id="path3046"/></svg>