<svg viewBox="0 0 560 1e3"><path d="m353.22767 72.597624c9.84269 5.146097 10.64111 13.846317 9.15997 22.585895-.0767.452539 1.3431 6.399381 1.25512 6.851641-.0695.35745-2.69509-2.469893-2.42754-2.127755.0554.07082.0761.448635.0761.448635.002.59712.92007 7.26535.81512 7.67428-.10633.41435-2.223-3.45949-2.33146-3.04942-.37651 1.42351.12272.66287-.23783 2.01321-1.54613 5.79067-5.40487 7.46085-5.53385 7.48177-.0598.01-1.14043-2.88273-1.44454-2.99566-.17489-.0649-1.98142 8.47488-2.35996 8.48042-.19556.003-4.06753-9.74445-4.24843-9.79746-.16185-.0474.36936 4.90838-.20174 4.09877-.0891-.12638-10.86368-19.504984-11.86765-35.919086-11.45002-3.505973-9.98389-8.494712 7.17375-10.397596 3.60873-.01213 6.22631.521943 8.1347 1.343123 2.01315 1.024419 3.35571 2.244229 4.03826 3.309233z" class="hair" id="path1945"/><path d="m261.60013 71.605611c-9.84269 5.146096-10.64111 13.846318-9.15997 22.585897.0767.452539-1.3431 6.399382-1.25512 6.851642.0695.35745 2.69509-2.469895 2.42754-2.127756-.0554.07082-.0761.44864-.0761.44864-.002.597111-.92007 7.265346-.81512 7.674276.10633.41434 2.223-3.45949 2.33146-3.04942.37651 1.42351-.12272.66287.23783 2.01321 1.54613 5.79067 5.40487 7.46084 5.53385 7.48177.0598.01 1.14043-2.88273 1.44454-2.99566.17489-.0649 1.98142 8.47488 2.35996 8.48042.19556.003 4.06753-9.74445 4.24843-9.79746.16185-.0474-.36936 4.90838.20174 4.09877.0891-.12638 10.86368-19.504985 11.86765-35.919088 11.45002-3.505975 9.98389-8.494712-7.17375-10.397595-3.60873-.01212-6.22631.521941-8.1347 1.343122-2.01315 1.024421-3.35571 2.244227-4.03826 3.309232z" class="hair" id="path1945-2"/></svg>