<svg viewBox="0 0 560 1e3"><path style="baseline-shift:baseline;clip-rule:nonzero;color-interpolation-filters:linearRGB;color-interpolation:sRGB;color-rendering:auto;color:#000;direction:ltr;display:inline;enable-background:accumulate;fill-opacity:.54901961;fill-rule:evenodd;fill:#00a883;image-rendering:auto;isolation:auto;mix-blend-mode:normal;opacity:1;overflow:visible;shape-rendering:auto;solid-color:#000000;solid-opacity:1;stroke-dasharray:none;stroke-dashoffset:0;stroke-linecap:butt;stroke-linejoin:miter;stroke-miterlimit:4;stroke-opacity:1;stroke-width:1.7108202;stroke:none;visibility:visible;white-space:normal;writing-mode:lr-tb" d="m336.84734 841.1336c2.11375-5.40321 4.42062-22.8556 7.00955-48.11166 3.00277-29.29251 9.14709-64.66342 3.45529-112.70723-7.77432 5.44271-45.11417.58095-48.16818 1.12268-13.01638 58.28869 9.40018 92.49211 19.66631 160.06864 6.93227-1.76391 12.25172-.37224 18.03703-.37244z" id="path4004"/><path style="baseline-shift:baseline;clip-rule:nonzero;color-interpolation-filters:linearRGB;color-interpolation:sRGB;color-rendering:auto;color:#000;direction:ltr;display:inline;enable-background:accumulate;fill-opacity:.54901961;fill-rule:evenodd;fill:#00a883;image-rendering:auto;isolation:auto;mix-blend-mode:normal;opacity:1;overflow:visible;shape-rendering:auto;solid-color:#000000;solid-opacity:1;stroke-dasharray:none;stroke-dashoffset:0;stroke-linecap:butt;stroke-linejoin:miter;stroke-miterlimit:4;stroke-opacity:1;stroke-width:1.7108202;stroke:none;visibility:visible;white-space:normal;writing-mode:lr-tb" d="m267.52958 838.3537c.39312-2.66081 2.12933-11.98672 5.39521-22.33892 16.48164-51.81379 26.90799-81.72269 15.8019-127.70215-.0555-.1698-.37515-1.29277.13208-3.01112-2.8117-.44426-46.45224-6.49175-51.25476-7.41501 2.04309 5.99672 9.93881 100.06848 15.94993 160.27943 5.02042-1.47635 9.07657.18792 13.97564.18777z" id="path4006"/><path d="m299.9047 682.7851c-10.41359-40.3-31.35413-152.73686-27.10362-198.93686-.85014 44.7 17.32759 158.23686 27.10362 198.93686z" class="shadow" id="path4012"/></svg>