<svg viewBox="0 0 560 1e3"><g data-transform="belly" transform="matrix(1.014792,0,0,1.0059302,-4.1476732,-2.5734225)" id="g6009"><path d="m274.8 433.8c20.7-1.5 47.7-4.5 61.9-42.4 13.1-44.3-27.8-99.6-59.9-101.5-40.1 6.2-61.8 42.8-63.9 96.9 2.2 31 33.1 49 61.9 47z" class="shadow" id="path5825"/><path d="m274.8 433.8c20.8.1 49.4-13 61.9-42.4s-18.5-83.4-46-101.7c-6.5-4.3-38.7-8.2-40.4.0-2.6 11.6-44.9 33.3-41.4 96.8 1.8 34.8 45.1 47.2 65.9 47.3z" id="path5839" style="fill-opacity:1;fill:#333"/><path style="display:inline;fill-opacity:1;fill:#000;opacity:1;stroke-dasharray:none;stroke-linecap:butt;stroke-linejoin:miter;stroke-miterlimit:4;stroke-opacity:1;stroke-width:0;stroke:#000" d="m260.88817 432.7846c-.0664.037-1.81037-.34954-2.00401-.38144-3.40999-.56245-30.20421-89.10771 9.77814-147.51132.0.0 5.41654.27286 8.02908.64462-35.26367 69.382-13.22314 116.42706-8.54089 148.11706z" id="path5852"/><path style="display:inline;fill-opacity:1;fill:#333;opacity:1;stroke-dasharray:none;stroke-linecap:butt;stroke-linejoin:miter;stroke-miterlimit:4;stroke-opacity:1;stroke-width:0;stroke:#000" d="m259.5088 432.78461c-.0664.037-1.81037-.34955-2.00401-.38145-3.40999-.56245-29.67787-89.23391 10.30447-147.63752.0.0 5.23177.20005 7.84431.57181-35.26367 69.382-13.5647 116.62607-8.88245 148.31607z" id="path5973"/><path id="path5800-9" d="m281.08402 307.1105a4.7552032 5.075284.0 01-4.7552 5.07529 4.7552032 5.075284.0 01-4.75521-5.07529 4.7552032 5.075284.0 014.75521-5.07529 4.7552032 5.075284.0 014.7552 5.07529z" style="display:inline;fill-opacity:1;fill-rule:nonzero;fill:#c8c8c8;opacity:1;stroke-dasharray:none;stroke-linecap:butt;stroke-linejoin:round;stroke-miterlimit:4;stroke-opacity:1;stroke-width:0;stroke:#000"/><path style="display:inline;fill-opacity:1;fill:#000;opacity:1;stroke-dasharray:none;stroke-linecap:butt;stroke-linejoin:miter;stroke-miterlimit:4;stroke-opacity:1;stroke-width:0;stroke:#000" d="m215.97146 339.06558s40.94627 15.83613 115.84693 3.76821c.44589-.0719 5.38452 13.42659 4.76185 13.51896-14.57264 6.17213-113.69734 7.61352-124.77148-4.32557.20985-4.33685 2.83843-10.5717 4.1627-12.9616z" id="path5804-5"/><path id="path5808-5" d="m256.70404 345.38526c-.44018 5.33776-.84034 10.10475-1.37916 16.26851-.56855-.0469-7.79095-.21827-7.74241-.63754.0138-.11883-.0823-1.78528.3093-1.83621.42235-.055 5.98947.7961 5.97346.21441-.012-.43819.74182-9.38815.92382-11.59513.0342-.41441-6.21555-.6029-6.21375-.96027.009-1.84868.13101-2.13256.44377-2.28414 5.00728.41295 7.68886.2458 7.68499.83037z" style="display:inline;fill-opacity:1;fill-rule:nonzero;fill:#c8c8c8;opacity:1;stroke-dasharray:none;stroke-linecap:butt;stroke-linejoin:round;stroke-miterlimit:4;stroke-opacity:1;stroke-width:0;stroke:#000"/><path id="path5806-9" d="m271.49462 354.06829a9.0972689 9.697676.0 01-9.09726 9.69769 9.0972689 9.697676.0 01-9.09729-9.69769 9.0972689 9.697676.0 019.09729-9.69769 9.0972689 9.697676.0 019.09726 9.69769z" style="display:inline;fill-opacity:1;fill-rule:nonzero;fill:#c8c8c8;opacity:1;stroke-dasharray:none;stroke-linecap:butt;stroke-linejoin:round;stroke-miterlimit:4;stroke-opacity:1;stroke-width:0;stroke:#000"/><path id="path5810-3" d="m269.01676 346.05547c-.08 5.35528-.14452 10.1386-.20658 16.32555.57042.009 7.77534.53906 7.76773.11706-.002-.11961.25521-1.76886-.12957-1.85756-.41502-.0957-6.03847.21092-5.96607-.36647.0545-.43495.17302-9.41582.20612-11.63005.006-.41578 6.24473.003 6.27763-.35257.1705-1.84083.0766-2.13521-.21995-2.31643-5.02372-.0751-7.67641-.50175-7.72931.0804z" style="display:inline;fill-opacity:1;fill-rule:nonzero;fill:#c8c8c8;opacity:1;stroke-dasharray:none;stroke-linecap:butt;stroke-linejoin:round;stroke-miterlimit:4;stroke-opacity:1;stroke-width:0;stroke:#000"/></g></svg>