<svg viewBox="0 0 560 1e3"><path style="display:inline;fill-opacity:1;fill-rule:evenodd;fill:#000;opacity:1;stroke-dasharray:none;stroke-linecap:butt;stroke-linejoin:miter;stroke-miterlimit:4;stroke-opacity:1;stroke-width:0;stroke:#000" d="m365.4537 411.98124c32.97194 41.12226-3.5923 75.38857-8.42823 91.82357-2.01061 6.83307 4.74255 12.01889-82.59132 8.00899-17.30311-1.81576-59.24343-1.2282-59.21094-1.53911 3.78245-36.19606 6.33034-77.34468 9.295-97.42231 36.34163 12.28427 73.79915 16.84683 140.93549-.87114zM226.40775 341.70673c1.28287-22.05665 6.83484-32.58304 5.94177-45.34499.1756-15.42462.3985-19.89355 4.64069-38.72157 4.62462-25.4057 22.14783-39.64015 33.39597-47.51381.1487-.10409.31185-.18844.44501-.30913.19352-.1754-.47033-.23529 1.52161-1.70983.0242.0785-.93287 2.19206-2.72028 5.39547-1.71148 3.06734-5.52072 8.73664-7.91815 13.20603-4.01224 7.47981-7.80555 15.61711-6.38706 23.07265 1.59122 8.36346 12.57896 14.27017 26.57673 14.9132 27.71148-.42916 50.10094-10.37445 56.1924-16.22076 6.07119-5.82685 9.41929-33.57309 9.88915-39.36191.26174.0683 1.17868.25631 1.42618.37805.0.0 24.8834 22.26408 21.13955 60.23024h-3e-5c4.61032 24.27184 1.23569 44.08092-5.74025 77.69692-16.00682-1.65197-65.92778-2.5464-87.29117 1.12873l-4.26043-4.88803-4.08115 3.97966s-38.44018-9.38984-42.77054-5.93092z" id="path3202-3-1-3"/><path style="display:inline;fill-opacity:1;fill-rule:evenodd;fill:#fff;opacity:1;stroke-dasharray:none;stroke-linecap:butt;stroke-linejoin:miter;stroke-miterlimit:4;stroke-opacity:1;stroke-width:0;stroke:#000" d="m366.66582 413.08299c32.8228 40.39855-1.54301 71.86119-9.53905 90.48183-2.76395 6.43649 17.95903 12.02833-82.26929 5.50142-17.22485-1.7838-59.61101 1.398-59.64703 1.09296-4.19847-35.55905-1.52592-80.53515 8.39367-96.32983 36.42612 14.76968 96.67774 13.4444 143.0617-.74638zM227.67005 340.09242c1.27707-21.66848 6.9583-31.81538 6.0693-44.35274-2.47126-23.52522-.66908-56.98814 24.13621-82.9303.11948-.0828.23934-.16472.35096-.25628 4.83692-3.96749 13.94807-4.48666 14.24602-4.58329-.0713.43498-6.08032 8.40154-10.87126 16.9314-5.47376 9.74553-11.05509 19.48352-7.60266 26.63097 9.60812 21.96035 54.06337 16.29584 78.97667 2.30303 6.93154-3.35755 9.1016-6.69171 11.17071-13.34732 3.15195-10.20373 4.00709-19.90127 3.97289-31.39279.0912.0396.28022.0678.37266.10193 27.91074 9.51757 24.26268 47.61937 22.23453 60.49316h-3e-5c2.51971 29.8616-1.02153 44.89092-7.08897 76.00409-20.6858-.40723-60.212-3.5137-85.56941 1.4083l-4.24116-4.80201-4.06269 3.90963s-38.42458-7.91516-42.09374-6.11778z" id="path3204-6-8-8"/><path style="display:inline;fill-opacity:1;fill:#000;opacity:1;stroke-dasharray:none;stroke-linecap:butt;stroke-linejoin:miter;stroke-miterlimit:4;stroke-opacity:1;stroke-width:0;stroke:#000" d="m273.06851 343.11354c-1.19336-14.58661 2.97344-72.66695 6.47322-77.7662.0.0.98281.0388.98573.0215-2.98971 5.31735-7.5879 63.15012-6.18702 77.63359z" id="path3206-4-4-5"/><path style="display:inline;fill-opacity:1;fill:maroon;opacity:1;stroke-dasharray:none;stroke-linecap:butt;stroke-linejoin:miter;stroke-miterlimit:4;stroke-opacity:1;stroke-width:0;stroke:#000" d="m272.76454 343.3524c-1.19336-14.58661 2.78594-73.02633 6.28572-78.12558.0.0.97176.12719.97468.10989-2.98971 5.31735-7.57685 63.45236-6.17597 77.93583z" id="path3235-2-0-0"/></svg>