<svg viewBox="0 0 560 1e3"><path id="path7856" d="m214.96629 456.45579c.2203-.24364.63147-.46613.92775-.55536 9.66383-2.91049 2.60729-16.30985-1.49901-15.4884-1.68682.79277-4.36724 2.05863-5.86214 3.10514-6.37657 6.62403.44234 13.04491 3.2714 12.24409.0511.01.65201.55834 3.16198.69454z" style="fill:#000"/><path id="path7858" d="m214.20261 456.25874c9.66791.15815 5.40597-14.99985.51471-15.06617-1.34094-.0182-4.52989 1.95677-5.94463 3.04771-4.57949 4.83811-2.50914 9.26478 1.80258 11.34064.36356.0786 3.22663.98994 3.62734.67782z" style="fill-opacity:1;fill:#daa595"/><path id="path7860" d="m249.72018 462.78758c12.88033-2.2145 26.08617-3.96727 25.3545-15.6831-.39929-3.98202-2.31938-6.02456-5.16798-5.75856-11.51427 1.61645-37.20529 2.54654-46.22064-.36909-1.48539-.91113-1.43038-1.16972-2.73486-1.66019-2.76558-1.03981-5.06088.28605-6.962 1.31642-.31683.17172-4.10369 2.14322-4.30287 2.20725.34421.21863 3.60878-1.47793 5.04318-.82302 2.31392 1.05649 8.67505 8.16369.91431 13.81058-.98473.99472-6.23406-.90096-6.14354-.79213.57944.69665 2.53259 1.30067 4.10942 1.53243.94152.13838 1.84035-.0685 2.37268.30635 6.3994 4.50641 17.28432 7.62857 33.73772 5.91289z" style="fill:#000"/><path id="path7862" d="m208.1497 451.64402c.11992.46711.76663 1.30648 1.3523 1.33287-.008-.0225-.24904-.8196-.25768-.84348-.29254-.80646-.0496-3.69204.49937-6.26008-.72859 1.35165-1.78494 3.64934-1.59399 5.77069z" style="fill:#000"/><path id="path7864" class="skin penis" d="m249.82636 461.8094c12.68083-2.18018 25.48131-2.97691 25.28659-14.72758-.3931-3.92034-1.37099-5.79347-4.17548-5.53159-11.57368 2.42883-37.9793 3.36918-46.85502.49872-1.93911-1.13102-3.1745-3.12648-5.98385-2.60515-2.43352.30345-5.47148 1.94819-6.66055 2.59266.0632.0542 2.45315-.93839 3.66897-.47754 1.69998.64437 9.95358 8.5593.68365 14.63243.13382.0928.48639.23485 1.14527.50938 6.30027 4.43661 16.69183 6.79782 32.89039 5.10871z"/></svg>