<svg viewBox="0 0 560 1e3"><path style="fill:#000;stroke-width:.18142612" d="m278.94709 155.71201c-.31236-.29661-.81977-.58713-1.12757-.64558-.30781-.0585-.59589-.23345-.6402-.38886-.0443-.15542-.34733-.40871-.67335-.56287-.71-.3357-1.47352-1.33098-1.97502-2.5745-.43128-1.06942-.31583-1.70574.55046-3.03368.9334-1.4308 1.52265-2.55236 2.06139-3.92354.45976-1.17016.52191-1.25325.52898-.70717.0148 1.14974-.93464 3.59192-2.04016 5.24725-.79829 1.1953-.84841 1.66132-.30087 2.797.63331 1.3136 2.35897 2.80311 3.4848 3.00791.51226.0932.91431.53449.91431 1.00356.0.43986-.12541.40469-.78277-.21952zm2.27221-.39601c0-.28685.77111-1.0094 1.07723-1.0094.29303.0 2.27403.83966 2.27403.96386.0.0547-.57202.0489-1.27114-.0128-.82821-.0731-1.41207-.0405-1.67562.0934-.32311.16421-.4045.15714-.4045-.035zm4.95132-.59007c.39995-.49865.75829-.8277.79633-.73122.038.0966-.28922.50444-.72719.90661l-.79633.73122zm-6.25458-4.03315c0-.23737.0686-.47183.15249-.52105.0839-.0492.11626.14497.0719.43156-.0977.63183-.22445.68238-.22445.0894z" id="path7178"/></svg>