<svg viewBox="0 0 560 1e3"><path d="m305.87891 66.603516c-18.24856-.05881-38.07953 13.465013-42.06641 31.253906-1.66262 5.972928-2.38239 12.667868-2.33789 20.023438.0655.65721-.91013 5.25301-.89063 6.00195.0116.44615 1.0313-2.98051 1.0293-2.50586-.007 1.77104-.10071 3.72847-.22851 5.79688-.0243.39252-1.41902 4.59036-1.44532 4.99023-.0231.3505 1.32293-2.87686 1.29883-2.52148-.24824 3.66194-.53926 7.52486-.60156 11.22461-.0156.92393-1.69679 8.9085-1.67969 9.80664.0182.95728 1.73754-5.17456 1.80274-4.25977.20397 2.86294 2.74135 30.78642 2.41992 33.10352-1.73068 12.47592 12.92938 40.01374 16.92983 41.18919-3.83289-17.41455-13.0615-49.37155-15.90111-74.88371-.34682-3.11592-.51622-6.23066-.56907-9.19836-.0373-2.0953 1.3941-5.58705 1.41597-5.79592.0208-.19833-1.17573-4.7376-1.03225-6.6107.32954-4.30196.74121-7.07269.73866-7.12238.39957-.10914.81815-.21594 1.26953-.31445.372-.0812.76174.123 1.16602.0488.34972-.0641.76103-.26966 1.08203-.4668 1.03415-.63512 1.65184-.32953 2.46875-.33594.45205-.004.73604-.90016 1.20507-.94726.45027-.0452 1.11548.848 1.54883.66992.7227-.29699 1.58439-.41808 2.6875-.19922.42114.0836.89118.30651 1.32813.2832.43346-.0231.86347-.28277 1.28125-.42382.52417-.17696 1.19711-4.27523 1.74805-4.28321.54027-.008.95813 4.07233 1.51562 4.16993.39415.069.8165.246 1.21875.23828.40039-.008.80658-.15535 1.1875-.28321.75722-.25416 1.43777-.21109 2.07813-.0176.30934.0935.69299.26513 1.01562.26562.39649 6e-4.75669-.16913 1.14062-.26172 1.05017-.25326 2.09244-.25805 3.1211.0449.20563.0606.4296.18619.64258.19141.22912.006.46813-.0852.68359-.1582.77732-.26341 1.54927-.37146 2.32227.0762.21512.12456.49501.17498.74023.18554.29278.0126.59593-.0294.87109-.11523.48528-.15123 1.31994-5.52107 1.79493-5.48437.40168.031.44414 5.43901.83789 5.63086.3148.15336.71063.35875 1.04882.38281.38338.0273.74744-.16833 1.11133-.22852 1.25549-.20767 2.31858-.0882 3.18555.30664.51311.23371.94448.44354 1.43359.51367.68332.098 1.43469-.11008 1.96094-.002.64234-.0768 2.67369-13.02935 3.13086-12.92969.71463.1558-.24766 13.44767.27344 13.65625.47662.19077.88693.48163 1.28906.57813.53878.12929 1.05507-.0204 1.43945.084 2.06434.56095 2.10384.793 2.11914 1.02735 2.33945 35.84046-8.77202 86.04911-12.9375 103.14648 30.97921-34.17794 28.66446-79.76334 29.6211-80.81641 1.64491-4.07384 2.7973-8.36533 3.55078-12.6582 2.5646-3.32232 4.8741-7.18305 6.29687-11.35156 1.35152-.10865 2.39354-.24873 2.80274-.31836.001-.9285 1.49627 4.34534 1.48047 3.44727-.0148-.83818-1.53992-7.85003-1.57032-8.65821-.15725-4.18546-.52882-7.9459-1.16406-11.04687-1.62029-7.909577-4.3201-14.189843-8.02929-18.707034-5.27942-7.986214-13.25522-13.670547-27.25782-15.236328-1.19735-.127421-2.40647-.191391-3.62304-.195312z" id="path4841" class="hair"/></svg>