<svg viewBox="0 0 560 1e3"><path d="m277.92014 121.58316c.15976.42943.98694 3.02459-.47682 2.4729-.37467-.41249-.77553-.75588-1.19508-1.03853-.22121-.149-.44762-.28122-.67812-.39774-.22144-.11182-.44666-.20944-.67468-.29357-1.74463-.64383-3.65312-.50604-5.28783-.0756-1.86304.50303-4.20091 1.74885-5.41721 3.18686-.11798-1.26227-.2088-1.8343-.23516-2.80411-.007-.27504-.23947.0154-.25786-.17656.11859-.21716.81465-.8951.8952-.95172.13064-.0919-.28417-.26446-.15717-.37757.16014-.14266.8551-.25248 1.02202-.38297.4834-.37788.99374-.70484 1.52232-.98098.18647-.0976-.12475-.32215.0659-.40691.11719-.0521.73509.0318.85362-.0154.52907-.21129 1.07059-.37503 1.61664-.4913.26197-.0558-.10001-.39459.16318-.42853.21942-.0283 1.06396.24499 1.28312.23188.38826-.0232.77532-.0226 1.15835.001.22176.0136-.0109-.49839.20757-.46839.19835.0273.84827.59559 1.04308.63594.46541.0964.91958.2302 1.35695.40135.31406.1228-.0368-.45662.25788-.29524.19042.10438 1.0326.93817 1.21351 1.05849.64623.42982 1.22823.96197 1.72067 1.59618z" id="path7293" class="eyebrow_hair"/><path d="m298.38099 122.23518c-1.09909.28957-2.17175.72415-3.24494 1.30824-3.62966 2.03615-2.64043-.59568-2.59396-1.52018.76259-.70142 1.5142-1.28751 2.26214-1.77264.35009-.22707 1.60535-1.20685 1.95457-1.39114.3564-.18807-.19319.42023.16384.27365.43341-.17794.86791-.32648 1.30492-.4484.393-.10968 1.45094-.59463 1.84903-.66328.28039-.0485-.10058.30987.18317.28016.49445-.0519.99461-.0764 1.5024-.0775.32118-69e-5 1.42986-.2566 1.75763-.2395.27686.0136-.2282.29949.054.3254.43475.0399.87618.0928 1.32536.15636.24725.0351 1.35864-.21011 1.61077-.16884.28945.0473-.27956.38209.0168.43666.70797.13034 1.43646.27979 2.18914.44107.28501.1093 1.32322.017 1.61271.14914.21372.0977-.32185.41499-.10748.52394.84808.43094 1.29752.60595 2.09664 1.17246.38647.27398 1.19921.50652 1.55786.8008.0697.0572-.29877.16814-.23038.22588.65892.55663 1.65386 1.47994 2.15429 2.06518.001.4564-2.42095-1.08504.62293 1.5625-6.02408-2.64296-12.24058-4.91591-18.04144-3.4399z" id="path7295" class="eyebrow_hair"/></svg>