<svg viewBox="0 0 560 1e3"><path id="path2868" d="m205.06877 525.86719c5.1396 72.89862 31.76437 137.38536 31.82616 137.98752.5138 5.00658 5.60735 44.63317 5.60735 46.40651 3.63398 35.54178 9.71508 98.53111 11.48228 126.52372-.1849 5.24688-.27639 9.72329-2.39436 15.03143-.24703 2.35929-3.9432 10.7697-4.10096 12.93151-8.20873 16.3574-.68152 43.50464.48958 52.50001.81432 3.51112-4.95316 12.403-11.16316 13.22223-6.92783.91394-2.31056 13.06382 1.32404 19.99935 2.30462 1.10634 27.96282-.9374 30.58174-1.3397 5.86637-5.83342 5.23681-40.93414 8.79852-57.42864 2.4094 12.67261.62819 45.56104 1.25666 56.82557h.83841c.83808-10.1582 1.152-56.82557 4.0851-72.41488-1.257-7.54322-9.53224-15.58971-12.46539-15.99202-1.06726-.17541-3.20375-9.83525-4.68765-10.73533-69e-5-.13094-.008-.26123-.002-.39287.83417-17.91802 9.56988-48.30248 13.20075-58.87246 1.64863-10.68592 17.48987-45.31596 11.22262-86.46413-.1034-.67891-3.63849-15.18981-3.75409-15.87219 5.23397-24.80784 6.5734-39.94308 6.73715-40.8807.89702 4.37416 1.84849 8.69217 2.97512 12.87258 1.54139 6.06631 5.0204 21.52043 4.97704 21.64942-4.0124 11.9367-4.06598 30.49837-3.97212 33.11551-1.06557 23.32335 11.18893 66.65337 11.18893 66.65337 5.02432 22.0821 11.2046 42.92267 11.63491 66.98927-.63526 1.73109-2.93634 10.22606-3.49246 11.43465-1.78735 20.41698-3.4951 37.61551-2.65402 51.79676-2.7336 6.83919 1.36762 28.76637 8.51705 47.87586 3.36446 2.01152 13.45834 3.11747 15.98165.10017 6.72889-23.03196 11.9857-40.43164 9.67262-47.27083-.63078-10.05762-4.73109-38.82321-9.67262-52.60215-.83646-.32175-.66236-12.50147-1.02276-13.28117-.0506-.60503-.21933-1.16628-.22597-1.18256-.007-.0171.002-.0366.002-.055.35574-21.97412 3.99603-47.85954 7.24455-73.83317 2.18401-12.11133 4.41329-41.85818 3.15748-66.53943-.087-1.7092-1.37529-21.38566-1.83345-24.68046-.095-.68404 31.26641-58.04052 36.91152-147.07506-21.86249 8.38754-81.7762 9.50716-108.87744-1.40846 2.04227 20.03797 6.09966 45.26914 8.52104 60.27305.84892 5.2603 1.79974 10.2951 2.79079 15.43021.68579 3.55346 1.30027 7.2414 2.05543 10.89641-.55406-2.39084-1.11363-4.84323-1.64911-7.38607-2.99893-14.24112-5.87609-31.05483-8.1028-46.70901-1.20729-8.48746-2.9935-25.83718-3.74022-32.64014-19.36286 3.03914-49.02742 4.61406-69.26993-5.45869z" style="display:inline;fill:#000;stroke-width:1.01028728"/><path id="path2870" d="m201.54523 524.19133c5.1396 72.89862 33.2875 139.06122 33.34929 139.66338.5138 5.00658 5.60735 44.63317 5.60735 46.40651 3.63398 35.54178 9.71508 98.53111 11.48228 126.52372-.1849 5.24688-.27639 9.72329-2.39436 15.03143-.24703 2.35929-3.9432 10.7697-4.10096 12.93151-8.20873 16.3574-.68152 43.50464.48958 52.50001.81432 3.51112-4.95316 12.403-11.16316 13.22223-6.92783.91394-2.31056 13.06382 1.32404 19.99935 2.30462 1.10634 27.96282-.9374 30.58174-1.3397 5.86637-5.83342 5.23681-40.93414 8.79852-57.42864 2.4094 12.67261.62819 45.56104 1.25666 56.82557h.83841c.83808-10.1582 1.152-56.82557 4.0851-72.41488-1.257-7.54322-9.53224-15.58971-12.46539-15.99202-1.06726-.17541-3.20375-9.83525-4.68765-10.73533-69e-5-.13094-.008-.26123-.002-.39287.83417-17.91802 9.56988-48.30248 13.20075-58.87246 1.64863-10.68592 17.48987-45.31596 11.22262-86.46413-.1034-.67891-3.63849-15.18981-3.75409-15.87219 5.23397-24.80784 6.5734-39.94308 6.73715-40.8807.89702 4.37416 1.84849 8.69217 2.97512 12.87258 1.54139 6.06631 5.0204 21.52043 4.97704 21.64942-4.0124 11.9367-4.06598 30.49837-3.97212 33.11551-1.06557 23.32335 11.18893 66.65337 11.18893 66.65337 5.02432 22.0821 11.2046 42.92267 11.63491 66.98927-.63526 1.73109-2.93634 10.22606-3.49246 11.43465-1.78735 20.41698-3.4951 37.61551-2.65402 51.79676-2.7336 6.83919 1.36762 28.76637 8.51705 47.87586 3.36446 2.01152 13.45834 3.11747 15.98165.10017 6.72889-23.03196 11.9857-40.43164 9.67262-47.27083-.63078-10.05762-4.73109-38.82321-9.67262-52.60215-.83646-.32175-.66236-12.50147-1.02276-13.28117-.0506-.60503-.21933-1.16628-.22597-1.18256-.007-.0171.002-.0366.002-.055.35574-21.97412 3.99603-47.85954 7.24455-73.83317 2.18401-12.11133 4.41329-41.85818 3.15748-66.53943-.087-1.7092-1.37529-21.38566-1.83345-24.68046-.095-.68404 31.20391-57.22802 36.84902-146.26256-21.86249 8.38754-81.7137 8.69466-108.81494-2.22096 2.04227 20.03797 6.09966 45.26914 8.52104 60.27305.84892 5.2603 1.79974 10.2951 2.79079 15.43021.68579 3.55346 1.30027 7.2414 2.05543 10.89641-.55406-2.39084-1.11363-4.84323-1.64911-7.38607-2.99893-14.24112-5.87609-31.05483-8.1028-46.70901-1.20729-8.48746-2.9935-25.83718-3.74022-32.64014-19.36286 3.03914-50.55055 2.9382-70.79306-7.13455z" style="display:inline;fill:#000;stroke-width:1.01028728"/><path class="shoe" id="path2872" d="m204.04523 526.69133c5.06448 72.48096 32.82551 138.26855 32.88641 138.86726.50628 4.97789 5.52539 44.37745 5.52539 46.14063 3.58086 35.33815 9.57308 97.9666 11.31445 125.79883-.1822 5.21682-.27235 9.66758-2.35937 14.94531-.24341 2.34577-3.88556 10.708-4.04102 12.85742-8.08875 16.26368-.67155 43.25539.48243 52.19922.80242 3.49101-4.88076 12.33194-11 13.14648-6.82657.9087-2.27679 12.98897 1.30468 19.88477 2.27095 1.1 27.55413-.93203 30.13477-1.33203 5.78062-5.8 5.16026-40.69961 8.66992-57.09961 2.37418 12.6.619 45.3 1.23828 56.5h.82617c.82582-10.1 1.13515-56.5 4.02539-72-1.23863-7.5-9.39292-15.50039-12.2832-15.90039-1.05166-.17441-3.15692-9.7789-4.61914-10.67383-68e-5-.13019-.008-.25973-.002-.39062.82198-17.81536 9.43001-48.02574 13.00781-58.53516 1.62454-10.6247 17.23424-45.05633 11.05859-85.96875-.10189-.67502-3.58531-15.10278-3.69922-15.78125 5.15747-24.66571 6.47732-39.71424 6.63868-40.64649.88391 4.3491 1.82147 8.64237 2.93164 12.79883 1.51886 6.03156 4.94702 21.39714 4.90429 21.52539-3.95375 11.86831-4.00655 30.32363-3.91406 32.92578-1.05 23.18972 11.02539 66.27149 11.02539 66.27149 4.95088 21.95559 11.04083 42.67675 11.46485 66.60547-.62598 1.72117-2.89342 10.16747-3.44141 11.36914-1.76123 20.3-3.44401 37.4-2.61523 51.5-2.69365 6.8 1.34763 28.60156 8.39257 47.60156 3.31528 2 13.26163 3.09961 15.74805.0996 6.63054-22.9 11.81053-40.2 9.53125-47-.62156-10-4.66194-38.60078-9.53125-52.30078-.82423-.31991-.65267-12.42984-1.00781-13.20508-.0499-.60156-.21612-1.15959-.22266-1.17578-.007-.017.002-.0364.002-.0547.35054-21.84822 3.93763-47.58533 7.13867-73.41015 2.15209-12.04194 4.34879-41.61837 3.11133-66.15821-.0857-1.69941-1.35519-21.26313-1.80665-24.53906-.0937-.68012 30.82438-57.70799 36.38698-146.23242-21.54295 8.33948-80.59592 9.45269-107.30104-1.40039 2.01242 19.92317 6.0105 45.00978 8.39649 59.92773.83652 5.23016 1.77344 10.23611 2.75 15.3418.67577 3.5331 1.28126 7.19991 2.02539 10.83398-.54596-2.37714-1.09735-4.81548-1.625-7.34375-2.95511-14.15953-5.79021-30.87691-7.98438-46.4414-1.18964-8.43883-2.94975-25.68915-3.68555-32.45313-19.07985 3.02172-49.83624 2.91731-69.78289-7.09773z"/><path class="shoe" id="path2874" d="m205.72461 527.39844c5.06448 72.48096 31.14613 137.56144 31.20703 138.16015.50628 4.97789 5.52539 44.37745 5.52539 46.14063 3.58086 35.33815 9.57308 97.9666 11.31445 125.79883-.1822 5.21682-.27235 9.66758-2.35937 14.94531-.24341 2.34577-3.88556 10.708-4.04102 12.85742-8.08875 16.26368-.67155 43.25539.48243 52.19922.80242 3.49101-4.88076 12.33194-11 13.14648-6.82657.9087-2.27679 12.98897 1.30468 19.88477 2.27095 1.1 27.55413-.93203 30.13477-1.33203 5.78062-5.8 5.16026-40.69961 8.66992-57.09961 2.37418 12.6.619 45.3 1.23828 56.5h.82617c.82582-10.1 1.13515-56.5 4.02539-72-1.23863-7.5-9.39292-15.50039-12.2832-15.90039-1.05166-.17441-3.15692-9.7789-4.61914-10.67383-68e-5-.13019-.008-.25973-.002-.39062.82198-17.81536 9.43001-48.02574 13.00781-58.53516 1.62454-10.6247 17.23424-45.05633 11.05859-85.96875-.10189-.67502-3.58531-15.10278-3.69922-15.78125 5.15747-24.66571 6.47732-39.71424 6.63868-40.64649.88391 4.3491 1.82147 8.64237 2.93164 12.79883 1.51886 6.03156 4.94702 21.39714 4.90429 21.52539-3.95375 11.86831-4.00655 30.32363-3.91406 32.92578-1.05 23.18972 11.02539 66.27149 11.02539 66.27149 4.95088 21.95559 11.04083 42.67675 11.46485 66.60547-.62598 1.72117-2.89342 10.16747-3.44141 11.36914-1.76123 20.3-3.44401 37.4-2.61523 51.5-2.69365 6.8 1.34763 28.60156 8.39257 47.60156 3.31528 2 13.26163 3.09961 15.74805.0996 6.63054-22.9 11.81053-40.2 9.53125-47-.62156-10-4.66194-38.60078-9.53125-52.30078-.82423-.31991-.65267-12.42984-1.00781-13.20508-.0499-.60156-.21612-1.15959-.22266-1.17578-.007-.017.002-.0364.002-.0547.35054-21.84822 3.93763-47.58533 7.13867-73.41015 2.15209-12.04194 4.34879-41.61837 3.11133-66.15821-.0857-1.69941-1.35519-21.26313-1.80665-24.53906-.0937-.68012 30.82438-57.88477 36.38698-146.4092-21.54295 8.33948-80.59592 9.62947-107.30104-1.22361 2.01242 19.92317 6.0105 45.00978 8.39649 59.92773.83652 5.23016 1.77344 10.23611 2.75 15.3418.67577 3.5331 1.28126 7.19991 2.02539 10.83398-.54596-2.37714-1.09735-4.81548-1.625-7.34375-2.95511-14.15953-5.79021-30.87691-7.98438-46.4414-1.18964-8.43883-2.94975-25.68915-3.68555-32.45313-19.07985 3.02172-48.15686 3.62442-68.10351-6.39062z"/><path class="shoe" id="path2876" d="m205.72461 527.39844c5.06448 72.48096 31.14613 137.56144 31.20703 138.16015.50628 4.97789 5.52539 44.37745 5.52539 46.14063 3.58086 35.33815 9.57308 97.9666 11.31445 125.79883-.1822 5.21682-.27235 9.66758-2.35937 14.94531-.24341 2.34577-3.88556 10.708-4.04102 12.85742-8.08875 16.26368-.67155 43.25539.48243 52.19922.80242 3.49101-4.88076 12.33194-11 13.14648-6.82657.9087-2.27679 12.98897 1.30468 19.88477 2.27095 1.1 27.55413-.93203 30.13477-1.33203 5.78062-5.8 5.16026-40.69961 8.66992-57.09961 2.37418 12.6.619 45.3 1.23828 56.5h.82617c.82582-10.1 1.13515-56.5 4.02539-72-1.23863-7.5-9.39292-15.50039-12.2832-15.90039-1.05166-.17441-3.15692-9.7789-4.61914-10.67383-68e-5-.13019-.008-.25973-.002-.39062.82198-17.81536 9.43001-48.02574 13.00781-58.53516 1.62454-10.6247 17.23424-45.05633 11.05859-85.96875-.10189-.67502-3.58531-15.10278-3.69922-15.78125 5.15747-24.66571 6.47732-39.71424 6.63868-40.64649.88391 4.3491 1.82147 8.64237 2.93164 12.79883 1.51886 6.03156 4.94702 21.39714 4.90429 21.52539-3.95375 11.86831-4.00655 30.32363-3.91406 32.92578-1.05 23.18972 11.02539 66.27149 11.02539 66.27149 4.95088 21.95559 11.04083 42.67675 11.46485 66.60547-.62598 1.72117-2.89342 10.16747-3.44141 11.36914-1.76123 20.3-3.44401 37.4-2.61523 51.5-2.69365 6.8 1.34763 28.60156 8.39257 47.60156 3.31528 2 13.26163 3.09961 15.74805.0996 6.63054-22.9 11.81053-40.2 9.53125-47-.62156-10-4.66194-38.60078-9.53125-52.30078-.82423-.31991-.65267-12.42984-1.00781-13.20508-.0499-.60156-.21612-1.15959-.22266-1.17578-.007-.017.002-.0364.002-.0547.35054-21.84822 3.93763-47.58533 7.13867-73.41015 2.15209-12.04194 4.34879-41.61837 3.11133-66.15821-.0857-1.69941-1.35519-21.26313-1.80665-24.53906-.0937-.68012 30.82438-57.6196 36.38698-146.14403-21.54295 8.33948-80.59592 9.3643-107.30104-1.48878 2.01242 19.92317 6.0105 45.00978 8.39649 59.92773.83652 5.23016 1.77344 10.23611 2.75 15.3418.67577 3.5331 1.28126 7.19991 2.02539 10.83398-.54596-2.37714-1.09735-4.81548-1.625-7.34375-2.95511-14.15953-5.79021-30.87691-7.98438-46.4414-1.18964-8.43883-2.94975-25.68915-3.68555-32.45313-19.07985 3.02172-48.15686 3.62442-68.10351-6.39062z"/><path class="shoe" id="path2878" d="m205.72461 527.39844c5.06448 72.48096 31.14613 137.56144 31.20703 138.16015.50628 4.97789 5.52539 44.37745 5.52539 46.14063 3.58086 35.33815 9.57308 97.9666 11.31445 125.79883-.1822 5.21682-.27235 9.66758-2.35937 14.94531-.24341 2.34577-3.88556 10.708-4.04102 12.85742-8.08875 16.26368-.67155 43.25539.48243 52.19922.80242 3.49101-4.88076 12.33194-11 13.14648-6.82657.9087-2.27679 12.98897 1.30468 19.88477 2.27095 1.1 27.55413-.93203 30.13477-1.33203 5.78062-5.8 5.16026-40.69961 8.66992-57.09961 2.37418 12.6.619 45.3 1.23828 56.5h.82617c.82582-10.1 1.13515-56.5 4.02539-72-1.23863-7.5-9.39292-15.50039-12.2832-15.90039-1.05166-.17441-3.15692-9.7789-4.61914-10.67383-68e-5-.13019-.008-.25973-.002-.39062.82198-17.81536 9.43001-48.02574 13.00781-58.53516 1.62454-10.6247 17.23424-45.05633 11.05859-85.96875-.10189-.67502-3.58531-15.10278-3.69922-15.78125 5.15747-24.66571 6.47732-39.71424 6.63868-40.64649.88391 4.3491 1.82147 8.64237 2.93164 12.79883 1.51886 6.03156 4.94702 21.39714 4.90429 21.52539-3.95375 11.86831-4.00655 30.32363-3.91406 32.92578-1.05 23.18972 11.02539 66.27149 11.02539 66.27149 4.95088 21.95559 11.04083 42.67675 11.46485 66.60547-.62598 1.72117-2.89342 10.16747-3.44141 11.36914-1.76123 20.3-3.44401 37.4-2.61523 51.5-2.69365 6.8 1.34763 28.60156 8.39257 47.60156 3.31528 2 13.26163 3.09961 15.74805.0996 6.63054-22.9 11.81053-40.2 9.53125-47-.62156-10-4.66194-38.60078-9.53125-52.30078-.82423-.31991-.65267-12.42984-1.00781-13.20508-.0499-.60156-.21612-1.15959-.22266-1.17578-.007-.017.002-.0364.002-.0547.35054-21.84822 3.93763-47.58533 7.13867-73.41015 2.15209-12.04194 4.34879-41.61837 3.11133-66.15821-.0857-1.69941-1.35519-21.26313-1.80665-24.53906-.0937-.68012 30.82438-57.70799 36.38698-146.23242-21.54295 8.33948-80.59592 9.45269-107.30104-1.40039 2.01242 19.92317 6.0105 45.00978 8.39649 59.92773.83652 5.23016 1.77344 10.23611 2.75 15.3418.67577 3.5331 1.28126 7.19991 2.02539 10.83398-.54596-2.37714-1.09735-4.81548-1.625-7.34375-2.95511-14.15953-5.79021-30.87691-7.98438-46.4414-1.18964-8.43883-2.94975-25.68915-3.68555-32.45313-19.07985 3.02172-48.15686 3.62442-68.10351-6.39062z"/><path class="shoe" id="path2880" d="m205.72461 527.39844c5.06448 72.48096 31.14613 137.56144 31.20703 138.16015.50628 4.97789 5.52539 44.37745 5.52539 46.14063 3.58086 35.33815 9.57308 97.9666 11.31445 125.79883-.1822 5.21682-.27235 9.66758-2.35937 14.94531-.24341 2.34577-3.88556 10.708-4.04102 12.85742-8.08875 16.26368-.67155 43.25539.48243 52.19922.80242 3.49101-4.88076 12.33194-11 13.14648-6.82657.9087-2.27679 12.98897 1.30468 19.88477 2.27095 1.1 27.55413-.93203 30.13477-1.33203 5.78062-5.8 5.16026-40.69961 8.66992-57.09961 2.37418 12.6.619 45.3 1.23828 56.5h.82617c.82582-10.1 1.13515-56.5 4.02539-72-1.23863-7.5-9.39292-15.50039-12.2832-15.90039-1.05166-.17441-3.15692-9.7789-4.61914-10.67383-68e-5-.13019-.008-.25973-.002-.39062.82198-17.81536 9.43001-48.02574 13.00781-58.53516 1.62454-10.6247 17.23424-45.05633 11.05859-85.96875-.10189-.67502-3.58531-15.10278-3.69922-15.78125 5.15747-24.66571 6.47732-39.71424 6.63868-40.64649.88391 4.3491 1.82147 8.64237 2.93164 12.79883 1.51886 6.03156 4.94702 21.39714 4.90429 21.52539-3.95375 11.86831-4.00655 30.32363-3.91406 32.92578-1.05 23.18972 11.02539 66.27149 11.02539 66.27149 4.95088 21.95559 11.04083 42.67675 11.46485 66.60547-.62598 1.72117-2.89342 10.16747-3.44141 11.36914-1.76123 20.3-3.44401 37.4-2.61523 51.5-2.69365 6.8 1.34763 28.60156 8.39257 47.60156 3.31528 2 13.26163 3.09961 15.74805.0996 6.63054-22.9 11.81053-40.2 9.53125-47-.62156-10-4.66194-38.60078-9.53125-52.30078-.82423-.31991-.65267-12.42984-1.00781-13.20508-.0499-.60156-.21612-1.15959-.22266-1.17578-.007-.017.002-.0364.002-.0547.35054-21.84822 3.93763-47.58533 7.13867-73.41015 2.15209-12.04194 4.34879-41.61837 3.11133-66.15821-.0857-1.69941-1.35519-21.26313-1.80665-24.53906-.0937-.68012 30.91277-57.70799 36.47537-146.23242-21.54295 8.33948-80.68431 9.45269-107.38943-1.40039 2.01242 19.92317 6.0105 45.00978 8.39649 59.92773.83652 5.23016 1.77344 10.23611 2.75 15.3418.67577 3.5331 1.28126 7.19991 2.02539 10.83398-.54596-2.37714-1.09735-4.81548-1.625-7.34375-2.95511-14.15953-5.79021-30.87691-7.98438-46.4414-1.18964-8.43883-2.94975-25.68915-3.68555-32.45313-19.07985 3.02172-48.15686 3.62442-68.10351-6.39062z"/><path class="shoe" id="path2882" d="m203.86845 526.60294c5.06448 72.48096 33.00229 138.35694 33.06319 138.95565.50628 4.97789 5.52539 44.37745 5.52539 46.14063 3.58086 35.33815 9.57308 97.9666 11.31445 125.79883-.1822 5.21682-.27235 9.66758-2.35937 14.94531-.24341 2.34577-3.88556 10.708-4.04102 12.85742-8.08875 16.26368-.67155 43.25539.48243 52.19922.80242 3.49101-4.88076 12.33194-11 13.14648-6.82657.9087-2.27679 12.98897 1.30468 19.88477 2.27095 1.1 27.55413-.93203 30.13477-1.33203 5.78062-5.8 5.16026-40.69961 8.66992-57.09961 2.37418 12.6.619 45.3 1.23828 56.5h.82617c.82582-10.1 1.13515-56.5 4.02539-72-1.23863-7.5-9.39292-15.50039-12.2832-15.90039-1.05166-.17441-3.15692-9.7789-4.61914-10.67383-68e-5-.13019-.008-.25973-.002-.39062.82198-17.81536 9.43001-48.02574 13.00781-58.53516 1.62454-10.6247 17.23424-45.05633 11.05859-85.96875-.10189-.67502-3.58531-15.10278-3.69922-15.78125 5.15747-24.66571 6.47732-39.71424 6.63868-40.64649.88391 4.3491 1.82147 8.64237 2.93164 12.79883 1.51886 6.03156 4.94702 21.39714 4.90429 21.52539-3.95375 11.86831-4.00655 30.32363-3.91406 32.92578-1.05 23.18972 11.02539 66.27149 11.02539 66.27149 4.95088 21.95559 11.04083 42.67675 11.46485 66.60547-.62598 1.72117-2.89342 10.16747-3.44141 11.36914-1.76123 20.3-3.44401 37.4-2.61523 51.5-2.69365 6.8 1.34763 28.60156 8.39257 47.60156 3.31528 2 13.26163 3.09961 15.74805.0996 6.63054-22.9 11.81053-40.2 9.53125-47-.62156-10-4.66194-38.60078-9.53125-52.30078-.82423-.31991-.65267-12.42984-1.00781-13.20508-.0499-.60156-.21612-1.15959-.22266-1.17578-.007-.017.002-.0364.002-.0547.35054-21.84822 3.93763-47.58533 7.13867-73.41015 2.15209-12.04194 4.34879-41.61837 3.11133-66.15821-.0857-1.69941-1.35519-21.26313-1.80665-24.53906-.0937-.68012 30.91277-57.70799 36.47537-146.23242-21.54295 8.33948-80.68431 9.45269-107.38943-1.40039 2.01242 19.92317 6.0105 45.00978 8.39649 59.92773.83652 5.23016 1.77344 10.23611 2.75 15.3418.67577 3.5331 1.28126 7.19991 2.02539 10.83398-.54596-2.37714-1.09735-4.81548-1.625-7.34375-2.95511-14.15953-5.79021-30.87691-7.98438-46.4414-1.18964-8.43883-2.94975-25.68915-3.68555-32.45313-19.07985 3.02172-50.01302 2.82892-69.95967-7.18612z"/><path id="path2884" class="shadow" d="m293.1 648.9c-6.03499-24.81736-15.93524-79.10121-19.88662-115.27192-.0228-.20845-.0454-.41659-.0678-.62443.77404.34213 1.18251.0797 1.62662-.12686.0212.19757.0426.39544.064.59358 3.89885 36.01115 12.63295 90.51913 18.26382 115.42962z"/></svg>