<svg viewBox="0 0 560 1e3"><path d="m266.5 836c3.5 2.8-.9875 9.45 2.1125 19.25 2.4 7.6 3.8875 7.05 4.7875 10.95 2.8 10.5-8 25-20.6 31.3-10.4 5.2-23.4 5.6-24.7 2.3-.7-1.7 2.1-3.4 6.1-8.5 1.7-2.2 9.3-12.9 10.8-23.4 1.9-13.2 7.6-22.4 8.2-30.7.7-7.5 7.7-5.8 13.3-1.2z" class="skin" id="path2220"/><path d="m271.2 895.3c6.5-2.7 9.7-4 11-6.6 2.2-4.4.1-9.5-1.5-13.4s-4.7-9-6.6-8.5c-1 .3-.9 2-2 4.4-1.4 3.6-3.8 5.6-6.4 7.9-14.5 12.9-17.5 20.3-25.1 20-4.2-.1-5.3-2.4-11.3-2.1-.8.0-4.9.3-9.7 2.5-2 1-9.2 4.4-8.8 7.3.6 4.1 15.6 4.8 17.4 4.9 6.4.3 12.4.6 18.5-2.8 5.1-2.8 4.1-4.9 10-8.3 4.8-2.6 6.1-1.9 14.5-5.3z" class="shoe" id="path2222"/><path d="m271.2 895.3c6.5-2.7 9.7-4 11-6.6 2.2-4.4.1-9.5-1.5-13.4s-4.7-9-6.6-8.5c-1 .3-.9 2-2 4.4-1.4 3.6-3.8 5.6-6.4 7.9-14.5 12.9-17.5 20.3-25.1 20-4.2-.1-5.3-2.4-11.3-2.1-.8.0-4.9.3-9.7 2.5-2 1-9.2 4.4-8.8 7.3.6 4.1 15.6 4.8 17.4 4.9 6.4.3 12.4.6 18.5-2.8 5.1-2.8 4.1-4.9 10-8.3 4.8-2.6 6.1-1.9 14.5-5.3z" class="shoe" id="path2224"/><path d="m320.7 872.8c-3.4 4.4-1.1 6.9-4.1 23.2-1.2 6.3-1.8 12.7-3.3 18.9-.5 2.1-1.3 5.2-.5 8.8.3 1 1.3 5.1 4.4 7.3 3.2 2.2 2.6 3.5 10.8 3.2 8.3-.3 9-1.3 11-3 5-4 3.5-16.6 2.8-21.3-.7-5.5-1.6-6-2.1-12.4-.6-7.3.5-8.3-.2-13.3-.4-3.6-1.7-13.1-7.6-15.9-4.5-2.3-7.7.0-11.2 4.5z" class="shoe" id="path2226"/><path d="m271.2 895.3c6.5-2.7 9.7-4 11-6.6 2.2-4.4.1-9.5-1.5-13.4s-4.7-9-6.6-8.5c-1 .3-.9 2-2 4.4-1.4 3.6-3.8 5.6-6.4 7.9-14.5 12.9-17.5 20.3-25.1 20-4.2-.1-5.3-2.4-11.3-2.1-.8.0-4.9.3-9.7 2.5-2 1-9.2 4.4-8.8 7.3.6 4.1 15.6 4.8 17.4 4.9 6.4.3 12.4.6 18.5-2.8 5.1-2.8 4.1-4.9 10-8.3 4.8-2.6 6.1-1.9 14.5-5.3z" class="shoe" id="path2228"/><path d="m320.7 872.8c-3.4 4.4-1.1 6.9-4.1 23.2-1.2 6.3-1.8 12.7-3.3 18.9-.5 2.1-1.3 5.2-.5 8.8.3 1 1.3 5.1 4.4 7.3 3.2 2.2 2.6 3.5 10.8 3.2 8.3-.3 9-1.3 11-3 5-4 3.5-16.6 2.8-21.3-.7-5.5-1.6-6-2.1-12.4-.6-7.3.5-8.3-.2-13.3-.4-3.6-1.7-13.1-7.6-15.9-4.5-2.3-7.7.0-11.2 4.5z" class="shoe" id="path2230"/><path d="m320.7 872.8c-3.4 4.4-1.1 6.9-4.1 23.2-1.2 6.3-1.8 12.7-3.3 18.9-.5 2.1-1.3 5.2-.5 8.8.3 1 1.3 5.1 4.4 7.3 3.2 2.2 2.6 3.5 10.8 3.2 8.3-.3 9-1.3 11-3 5-4 3.5-16.6 2.8-21.3-.7-5.5-1.6-6-2.1-12.4-.6-7.3.5-8.3-.2-13.3-.4-3.6-1.7-13.1-7.6-15.9-4.5-2.3-7.7.0-11.2 4.5z" class="shoe" id="path2232"/><path d="m321.9 846.6c-1.1 1.1-1.6 2.6-2.5 5.7-1.1 3.3-2.5 8.1-2.4 14.4.1 5.1 1.2 4.6 1.6 10.6.4 5.5-.1 9.9-1 17.2-1.2 9.8-2.1 11.4-.9 13.8 2.4 4.4 8.8 4.4 12.1 4.4 5.6.0 10.6-2 11.7-6.8.3-1.1.0-2-.2-3.1-1.7-8.2.0-9.3-1.3-18.1-1.3-9-2-8.5-1.9-14.6.1-5.1 2.9-7.9.0-17.7-1.4-3.2-2.1-4.6-2.8-5.2-3.2-3.4-9.2-3.9-12.4-.6z" class="skin" id="path2234"/><path d="m336.75063 850.31365c-.14311-22.79826 3.37857-50.37906 6.80969-78.0601 2.15208-12.04194 4.34886-41.61821 3.11133-66.15805-.0368-.72924-.29146-4.74775-.60593-9.35719-12.57764 1.76569-21.77451 2.27092-47.99958-2.01472-1.35915 9.76338-1.40779 19.5116-1.34357 21.31834-1.40356 23.18973 11.0261 67.33212 11.0261 67.33212 3.82404 15.37512 11.68225 42.44356 11.85273 67.0562-.70306 1.163-2.57756 9.14625-2.83404 13.57777-.16805 2.90352.44192 7.23557 1.05162 9.936.14296.63319.30461 1.2479.48328 1.84351.78142 2.60504-.29664 10.51979-.85416 16.3172-.49168 5.11272-2.95855 13.11238-.69471 17.20592 2.8249 5.10806 10.56907 3.77014 12.07534 3.93318 2.64008.28577 10.21758.26086 11.93552-7.40278.16309-.72753-.59538-3.81974-.92995-7.09278-.3596-3.51782-.27519-7.23635-.2493-8.03763.20239-6.26318-2.01625-13.19517-2.22879-16.68512-.0818-1.3429-.0606-4.01856.14805-5.51031.37613-2.68936 1.07992-5.60895 1.20328-8.94967.10551-2.85741-1.56331-7.95921-1.95691-9.25189z" class="shoe" id="path2236"/><path d="m288.02046 693.89758c.80271 2.92599 1.80594 6.86863 2.56974 11.10769 6.17549 40.91244-9.30886 75.22003-10.9334 85.84473-2.7903 8.19621-9.77721 28.33141-12.17223 45.46907-.0262.18719-.23576.45854-.0776.56031 1.36499.8783.5402 6.54885.36628 10.31839-.053 1.38878.39636 7.81402 2.59574 11.64996 3.77083 6.57669 5.06543 9.83384 3.98268 11.50676-10.85201 16.76702-26.72969 36.13153-42.22237 27.09972-.1621-.0945-3.22355-.0144-3.00357-.31373 4.37973-5.95891 6.25657-6.01428 12.60045-19.46385 2.90027-6.14882 2.89161-11.89849 4.45855-17.49665 1.23514-4.41274 2.667-8.2196 3.33372-10.23477 1.31113-3.96292 3.12462-8.8497 3.20715-9.84346.1756-.91495.48488-3.41672.5334-3.94431.0438-.47579.44346-1.12301.42239-1.62444-1.22609-29.18215-8.9744-89.78311-11.97414-122.333.0-.76424-.86826-8.59945-1.89332-17.63767 8.79847 1.51163 34.70785 5.86454 48.20653-.66475z" class="shoe" id="path2238"/><path d="m271.2 895.3c6.5-2.7 9.7-4 11-6.6 2.2-4.4.1-9.5-1.5-13.4s-4.7-9-6.6-8.5c-1 .3-.9 2-2 4.4-1.4 3.6-3.8 5.6-6.4 7.9-14.5 12.9-17.5 20.3-25.1 20-4.2-.1-5.3-2.4-11.3-2.1-.8.0-4.9.3-9.7 2.5-2 1-9.2 4.4-8.8 7.3.6 4.1 15.6 4.8 17.4 4.9 6.4.3 12.4.6 18.5-2.8 5.1-2.8 4.1-4.9 10-8.3 4.8-2.6 6.1-1.9 14.5-5.3z" class="shoe" id="path2240"/></svg>