<svg viewBox="0 0 560 1e3"><path id="path8556" d="m282.38865 525.21543c.0141 1.85114-3.06854 25.2172-23.03879 24.33655-9.77891-.43123-23.46065-20.73772-23.47588-22.58889-1.45254-3.49669.88103-4.68876 1.60025-5.16052 1.86237-1.22157 6.17828 4.3726 22.32964 4.70562 9.78508.20157 22.56953-3.14399 22.58478-1.29282z" style="display:inline;fill:#000;opacity:1;stroke-width:2.13336468"/><path id="path8558" d="m254.8592 532.51882c-1.48817.52018-2.55848-.23763-4.23348-.30444-4.73845-33.67705 13.67154-96.85002 19.01019-102.01897.96684.44304 4.5952-.34437 4.19995.94773-2.3858 7.79904-19.71314 54.95773-18.97666 101.37568z" style="display:inline;fill:#000;opacity:1;stroke-width:2.02897477"/><path id="path8560" d="m276.09682 537.30301c-1.54752.49086-2.6605-.2242-4.40226-.28726.62754-27.70728 13.40341-89.11778 19.76811-96.26637 1.00537.41807 1.97033 3.85517 1.55932 5.07443-2.48091 7.35928-14.38169 50.57158-16.92517 91.4792z" style="display:inline;fill:#000;opacity:1;stroke-width:2.00984645"/><path id="path8562" d="m238.73882 527.6809c-1.54535.49086-1.07051-.22421-2.80984-.28726-2.41363-28.08463 7.17178-81.06793 20.53343-94.12814 1.00396.41807 1.48534 1.85546.764 2.93619-2.47741 3.71169-21.23519 37.239-18.48759 91.47921z" style="display:inline;fill:#000;opacity:1;stroke-width:2.00843239"/><path id="path8564" d="m282.5382 526.21348c.015 1.66718-3.03192 22.71101-22.76389 21.91788-9.66222-.38837-23.18071-18.67672-23.19576-20.3439-1.43523-3.14919.87051-4.22276 1.58115-4.64764 1.84014-1.10017 6.10457 3.93801 22.06321 4.23793 9.66833.1817 22.30024-2.83151 22.31529-1.16433z" style="fill:#bababa;stroke-width:2.01246452"/><path id="path8566" d="m257.07811 547.62358c-1.62155-.94914-3.35458-3.20196-2.63522-5.31349.87173 1.23833 1.75241 3.82167 5.21061 5.8354-1.41903.0141-2.4118-.41129-2.57539-.52191z" style="display:inline;fill:#000;opacity:1;stroke-width:2.01246452"/><path id="path8568" d="m235.46317 502.21652c-.0714 2.51737-.0694 5.67918-.17146 9.20536 12.46818 8.37851 41.35908 3.73332 48.24437 1.22498.0592-.87429.94117-9.81173.76604-9.75341-5.81898 1.93738-34.76836 5.30728-48.83903-.67693z" style="display:inline;fill:#000;opacity:1;stroke-width:2.04410052"/><path id="path8570" d="m237.46789 483.57724c-.22902 1.86432-.67703 5.67718-1.04914 9.11564 12.46818 8.49747 42.68679 4.06183 49.57207 1.5179.0592-.88672 1.68379-9.95106 1.50867-9.89191-5.81899 1.96493-35.96105 5.32754-50.0317-.74163z" style="display:inline;fill:#000;opacity:1;stroke-width:2.05856013"/><path id="path8572" d="m241.91851 462.66586c-.2294 1.82518-1.50701 5.48169-1.87974 8.84794 14.01941 5.42007 42.88642 3.44256 50.80348 1.86751.0592-.8681 2.07551-9.77064 1.89375-9.76052-9.90926.55043-36.72315 2.39294-50.81759-.95493z" style="display:inline;fill:#000;opacity:1;stroke-width:2.03855705"/><path id="path8574" d="m248.77534 443.65809c-.54805 1.37389-2.40477 6.38342-2.82493 7.89383 14.19153 4.69132 40.0381 3.30147 48.96857 1.69709.0594-.8558-.6076-9.20382-.78844-9.17106-6.94965 1.25822-30.95499 2.1405-45.3553-.41986z" style="display:inline;fill:#000;opacity:1;stroke-width:2.02975535"/><path id="path8576" d="m249.12475 445.4426c.0447 1.34332 2.55245.91873 2.91503.86082 15.47626-28.56921 35.52708-7.4879 39.42804.51283 1.18424.75516 2.60156-.51839 2.57922-.6973-2.45678-19.67745-33.49206-34.33878-44.92239-.67633z" style="display:inline;fill:#000;opacity:1;stroke-width:1.8533299"/><path id="path8578" d="m255.33724 531.16961c-1.47042.51794-2.52795-.23659-4.18296-.30312-4.30909-29.89949 14.99974-96.55609 18.78335-101.57743.9553.44113 4.54037-.34291 4.14983.94362-2.35732 7.7653-19.47792 54.71987-18.75022 100.93693z" style="display:inline;fill:#bababa;opacity:1;stroke-width:2.01246452"/><path id="path8580" d="m236.17265 503.47799c-.0706 2.06045-.0686 4.64839-.16945 7.53455 12.31942 6.8578 40.86558 3.05571 47.66872 1.00265.0584-.71561.92994-8.03088.75691-7.98314-5.74955 1.58576-34.35352 4.344-48.25628-.55406z" style="display:inline;fill:#bababa;opacity:1;stroke-width:1.83824909"/><path id="path8582" d="m238.15343 485.09649c-.22628 1.50457-.66896 4.58169-1.03662 7.35666 12.31943 6.8578 42.17746 3.27806 48.98059 1.22501.0584-.71561 1.66369-8.03088 1.49065-7.98315-5.74955 1.58576-35.53195 4.29953-49.43472-.59852z" style="display:inline;fill:#bababa;opacity:1;stroke-width:1.83824909"/><path id="path8584" d="m242.6357 463.74428c-.22629 1.50458-1.48653 4.51881-1.85419 7.29377 13.82877 4.468 42.30323 2.83784 50.1126 1.53946.0584-.71561 2.0473-8.05437 1.86799-8.04604-9.77448.45375-36.22374 1.97262-50.1265-.78719z" style="display:inline;fill:#bababa;opacity:1;stroke-width:1.83824909"/><path id="path8586" d="m249.6572 444.46455c-.53756 1.14883-2.35881 5.3377-2.77094 6.60068 13.92034 3.9228 39.27298 2.76064 48.03278 1.41909.0584-.71561-.59597-7.69609-.77337-7.6687-6.81682 1.05212-30.36344 1.78987-44.48857-.35107z" style="display:inline;fill:#bababa;opacity:1;stroke-width:1.83824909"/><path id="path8588" d="m249.67121 444.51164c.0441 1.30299 2.52198.89114 2.88024.83495 15.29159-27.71184 35.10318-7.26317 38.95759.49746 1.17011.7325 2.57296-.50314 2.54844-.67637-2.60322-18.39678-31.86214-31.75538-44.38637-.65602z" style="display:inline;fill:#bababa;opacity:1;stroke-width:1.81438613"/><path id="path8590" d="m276.94479 537.30301c-1.47042.49086-2.52795-.2242-4.18296-.28726.59629-27.70728 12.73572-89.11778 18.78335-96.26637.9553.41807 1.87218 3.85517 1.48164 5.07443-2.35732 7.35928-13.66526 50.57158-16.08203 91.4792z" style="display:inline;fill:#bababa;opacity:1;stroke-width:1.95914638"/><path id="path8592" d="m239.65179 527.6809c-1.47042.49086-1.0186-.22421-2.67361-.28726-2.29663-28.08463 6.8241-81.06793 19.53803-94.12814.95529.41807 1.41333 1.85546.72696 2.93619-2.35732 3.71169-20.20577 37.239-17.59138 91.47921z" style="display:inline;fill:#bababa;opacity:1;stroke-width:1.95914638"/></svg>