<svg viewBox="0 0 560 1e3"><path style="fill:#000;stroke-width:2.09582233" id="path3802" d="m266.56266 487.41644c-1.02095.32423-2.19079.17635-2.92249.16431-1.17374-.0187-3.47875-1.81699-3.67721-2.36577.30298-2.36283 6.37063-5.59458 10.88669-2.56186-1.46852 3.35279-2.47463 3.76341-4.28699 4.76332z"/><path style="fill:#000;stroke-width:6.43194914" id="path3804" d="m251.94557 439.82825c8.60331-15.80335 39.35376-26.15319 42.28554 10.10922.9716 2.0409-1.3109 11.20856-4.05459 22.73816-3.14221 11.25649-5.63355 24.05411-6.85582 36.80586-.80169 14.5863-4.18771 38.45174-24.66928 36.75796-11.71274-2.73814-17.63567-12.0116-22.457-18.44747-.45849-2.16438.49425-3.24465.29456-4.06498-2.50598-10.31996-1.73543-25.79729 1.49753-43.05609 2.77263-14.80159 7.51337-29.7446 13.95864-40.84266z"/><path class="areola" id="path3806" d="m278.6315 526.99123c-.0448 1.73879-2.31542 7.85392-4.4896 10.75807-4.95109 5.69875-10.86706 8.23429-17.82575 6.01092-3.25352-.0574-13.66568-8.21995-18.64475-16.52277 2.11916-7.21846 31.68994 4.15557 40.9601-.24597z"/><path id="path3808" d="m253.3542 436.74202c7.89734-16.15443 36.12484-26.73425 38.81599 10.33378.8919 2.08633-1.2033 11.45754-3.72186 23.24347-2.88438 11.50644-6.24924 24.37424-7.37133 37.40939-.13809 7.28983-.82179 12.04398-1.49712 16.5097-4.95216 5.86721-31.97967-2.3223-41.38426-1.51941-2.30039-10.5493-.62282-26.58459 2.34486-44.22686 2.54499-15.13038 6.89682-30.40532 12.81328-41.75007z" class="skin penis"/></svg>