<svg viewBox="0 0 560 1e3"><path style="display:inline;fill-rule:evenodd;fill:none;stroke-dasharray:none;stroke-linecap:round;stroke-linejoin:miter;stroke-miterlimit:3.85714293;stroke-opacity:1;stroke-width:3;stroke:#c8c8c8" d="m279.35224 205.15766c3.5539 9.14818 39.71477 9.14596 44.8238-1.44292" id="path4778-4"/><path style="display:inline;fill:none;stroke-dasharray:none;stroke-linecap:butt;stroke-linejoin:miter;stroke-miterlimit:4;stroke-opacity:1;stroke-width:3;stroke:#c8c8c8" d="m283.20926 457.85928c-10.24818-3.65074-12.19771-8.47811-13.14205-9.13293-3.48868-2.41906-25.29434-31.62162-35.93034-37.68891" id="path4780-4"/><path style="display:inline;fill:none;stroke-dasharray:none;stroke-linecap:butt;stroke-linejoin:miter;stroke-miterlimit:4;stroke-opacity:1;stroke-width:3;stroke:#c8c8c8" d="m262.61149 457.66092c.0971-.0743.39896-.14737.48137-.44924.65805-2.41031 8.31304-12.2898 15.48987-17.60178.1214-.0898 31.92814-23.95594 52.99726-31.64452" id="path4782-9"/><path style="display:inline;fill:none;stroke-dasharray:none;stroke-linecap:round;stroke-linejoin:miter;stroke-miterlimit:4;stroke-opacity:1;stroke-width:3;stroke:#c8c8c8" d="m361.96087 394.08846c-27.24807 14.19379-72.20535 29.16737-94.49765 27.41893-12.10128-.94914-24.66553-6.54554-42.21264-14.42483" id="path4784-9"/><path style="display:inline;fill:none;stroke-dasharray:none;stroke-linecap:round;stroke-linejoin:miter;stroke-miterlimit:4;stroke-opacity:1;stroke-width:3;stroke:#c8c8c8" d="M339.64498 404.35656c-14.24992-28.99875-42.70267-33.26156-56.97422-84.34993" id="path4786-6"/><path style="display:inline;fill:none;stroke-dasharray:none;stroke-linecap:round;stroke-linejoin:miter;stroke-miterlimit:4;stroke-opacity:1;stroke-width:3;stroke:#c8c8c8" d="m225.14061 391.67563c.39694-.61873 16.88323-19.21335 17.44618-20.21641 6.74872-12.02481 24.26959-49.12713 24.81539-50.42401" id="path4788-1"/><path style="display:inline;fill:none;stroke-dasharray:none;stroke-linecap:round;stroke-linejoin:miter;stroke-miterlimit:4;stroke-opacity:1;stroke-width:3;stroke:#c8c8c8" d="m312.23884 372.94157c-5.95666 8.4575-23.51421 11.68169-33.39131 2.81793" id="path4790-9"/><path style="display:inline;fill:none;stroke-dasharray:none;stroke-linecap:round;stroke-linejoin:miter;stroke-miterlimit:3.85714293;stroke-opacity:1;stroke-width:3;stroke:#c8c8c8" d="m298.13355 211.59436c-7.44225 19.17136-32.15183 16.3733-46.0788 43.24406" id="path4792-8"/><path style="display:inline;fill:none;stroke-dasharray:none;stroke-linecap:round;stroke-linejoin:miter;stroke-miterlimit:4;stroke-opacity:1;stroke-width:3;stroke:#c8c8c8" d="m299.24079 212.29201c-.75475 3.85886-14.89245 14.64367-18.59792 35.90804" id="path4794-9"/><path style="display:inline;fill:none;stroke-dasharray:none;stroke-linecap:round;stroke-linejoin:miter;stroke-miterlimit:3.85714293;stroke-opacity:1;stroke-width:3;stroke:#c8c8c8" d="m280.38869 304.77319c.006-1.50878 22.27835-17.45073 31.40589-48.11945" id="path4796-9"/><path style="display:inline;fill:none;stroke-dasharray:none;stroke-linecap:round;stroke-linejoin:miter;stroke-miterlimit:3.85714293;stroke-opacity:1;stroke-width:3;stroke:#c8c8c8" d="m370.49432 260.65774c-7.79427 1.12077-50.56747 6.517-58.76406-3.99915" id="path4798-6"/><path style="display:inline;fill:none;stroke-dasharray:none;stroke-linecap:round;stroke-linejoin:miter;stroke-miterlimit:3.85714293;stroke-opacity:1;stroke-width:3;stroke:#c8c8c8" d="M267.8459 303.48244c-15.30684-33.68799-15.93074-45.19904-15.9956-47.76026" id="path4800-7"/><path style="display:inline;fill:none;stroke-dasharray:none;stroke-linecap:round;stroke-linejoin:miter;stroke-miterlimit:4;stroke-opacity:1;stroke-width:3;stroke:#c8c8c8" d="m258.17819 457.64074c.21772-2.84247.63992-27.22453 2.93504-36.30361" id="path4802-3"/><path style="display:inline;fill:none;stroke-dasharray:none;stroke-linecap:round;stroke-linejoin:miter;stroke-miterlimit:4;stroke-opacity:1;stroke-width:3;stroke:#c8c8c8" d="m251.85497 446.80191c.21772-2.84247.46314-18.3857 2.75826-27.46478" id="path4804-1"/><path style="display:inline;fill:none;stroke-dasharray:none;stroke-linecap:round;stroke-linejoin:miter;stroke-miterlimit:4;stroke-opacity:1;stroke-width:3;stroke:#c8c8c8" d="m246.45852 438.03262c.21772-2.84247.10959-11.49141 2.40471-20.57049" id="path4806-9"/><path style="display:inline;fill:none;stroke-dasharray:none;stroke-linecap:round;stroke-linejoin:miter;stroke-miterlimit:4;stroke-opacity:1;stroke-width:3;stroke:#c8c8c8" d="m302.51658 437.11777c.21772-2.84247-.0735-10.57656 2.22165-19.65564" id="path4808-2"/><path style="display:inline;fill:none;stroke-dasharray:none;stroke-linecap:round;stroke-linejoin:miter;stroke-miterlimit:4;stroke-opacity:1;stroke-width:3;stroke:#c8c8c8" d="m294.11125 448.58637c.21772-2.84247.58186-19.79516 2.87698-28.87424" id="path4810-6"/><path style="display:inline;fill:none;stroke-dasharray:none;stroke-linecap:round;stroke-linejoin:miter;stroke-miterlimit:4;stroke-opacity:1;stroke-width:3;stroke:#c8c8c8" d="m286.41302 457.93884c.21772-2.84247.90509-27.77263 3.20021-36.85171" id="path4812-7"/><path style="display:inline;fill:none;stroke-dasharray:none;stroke-linecap:round;stroke-linejoin:miter;stroke-miterlimit:4;stroke-opacity:1;stroke-width:3;stroke:#c8c8c8" d="m279.22997 467.29652c.21772-2.84247.46314-36.50531 2.75826-45.58439" id="path4814-4"/><path style="display:inline;fill:none;stroke-dasharray:none;stroke-linecap:round;stroke-linejoin:miter;stroke-miterlimit:4;stroke-opacity:1;stroke-width:3;stroke:#c8c8c8" d="m264.69964 467.31797c.21772-2.84247.99347-36.15176 3.28859-45.23084" id="path4816-9"/><path style="display:inline;fill:none;stroke-dasharray:none;stroke-linecap:round;stroke-linejoin:miter;stroke-miterlimit:4;stroke-opacity:1;stroke-width:3;stroke:#c8c8c8" d="m272.03802 474.07209c.21772-2.84247.90509-42.78088 3.20021-51.85996" id="path4818-8"/><path style="display:inline;fill:none;stroke-dasharray:none;stroke-linecap:round;stroke-linejoin:miter;stroke-miterlimit:4;stroke-opacity:1;stroke-width:3;stroke:#c8c8c8" d="m313.20327 428.47395c.21772-2.84247-2.26436-10.72301-1.59421-12.30209" id="path4820-5"/><path style="display:inline;fill:none;stroke-dasharray:none;stroke-linecap:round;stroke-linejoin:miter;stroke-miterlimit:4;stroke-opacity:1;stroke-width:3;stroke:#c8c8c8" d="m241.25613 426.62407c.21772-2.84247 1.05778-5.87313 2.10293-10.45221" id="path4822-8"/><path style="display:inline;fill:none;stroke-dasharray:none;stroke-linecap:round;stroke-linejoin:miter;stroke-miterlimit:4;stroke-opacity:1;stroke-width:3;stroke:#c8c8c8" d="m339.11336 405.70365c.93383 2.6935 2.76495 10.87614 2.78008 12.59148" id="path4824-4"/><path style="display:inline;fill:none;stroke-dasharray:none;stroke-linecap:round;stroke-linejoin:miter;stroke-miterlimit:4;stroke-opacity:1;stroke-width:3;stroke:#c8c8c8" d="m224.29488 420.9774c.59863-2.78723 3.27714-10.73293 4.15389-12.20735" id="path4826-9"/><path style="display:inline;fill:none;stroke-dasharray:none;stroke-linecap:round;stroke-linejoin:miter;stroke-miterlimit:4;stroke-opacity:1;stroke-width:3;stroke:#c8c8c8" d="m232.04487 423.72739c.59863-2.78723 3.27715-10.73293 4.1539-12.20735" id="path4828-8"/><path style="display:inline;fill:none;stroke-dasharray:none;stroke-linecap:round;stroke-linejoin:miter;stroke-miterlimit:4;stroke-opacity:1;stroke-width:3;stroke:#c8c8c8" d="m330.98836 409.20365c.93383 2.6935 2.76495 10.87614 2.78008 12.59148" id="path4830-5"/><path style="display:inline;fill:none;stroke-dasharray:none;stroke-linecap:round;stroke-linejoin:miter;stroke-miterlimit:4;stroke-opacity:1;stroke-width:3;stroke:#c8c8c8" d="m320.61337 412.82865c.93383 2.6935 2.76494 10.87614 2.78007 12.59148" id="path4832-7"/><path style="display:inline;fill:none;stroke-dasharray:none;stroke-linecap:round;stroke-linejoin:miter;stroke-miterlimit:4;stroke-opacity:1;stroke-width:3;stroke:#c8c8c8" d="m344.65597 402.2889c1.70188 2.28705 5.91301 9.5379 6.4442 11.169" id="path4834-7"/><path style="display:inline;fill:none;stroke-dasharray:none;stroke-linecap:round;stroke-linejoin:miter;stroke-miterlimit:4;stroke-opacity:1;stroke-width:3;stroke:#c8c8c8" d="m262.04276 374.33434c-5.5121 7.48155-19.16909 4.38252-19.4071-2.82223" id="path4836-5"/><path style="display:inline;fill:none;stroke-dasharray:none;stroke-linecap:round;stroke-linejoin:miter;stroke-miterlimit:4;stroke-opacity:1;stroke-width:3;stroke:#c8c8c8" d="m268.50592 407.75218c-.5898-6.26843 1.12708-22.36639 1.71841-23.77145" id="path4838-5"/><path style="display:inline;fill:none;stroke-dasharray:none;stroke-linecap:round;stroke-linejoin:miter;stroke-miterlimit:4;stroke-opacity:1;stroke-width:3;stroke:#c8c8c8" d="m262.94976 396.78351c-.5898-6.26843 1.12708-14.76499 1.71841-16.17005" id="path4840-0"/><path style="display:inline;fill:none;stroke-dasharray:none;stroke-linecap:round;stroke-linejoin:miter;stroke-miterlimit:4;stroke-opacity:1;stroke-width:3;stroke:#c8c8c8" d="m275.76042 397.29607c-.5898-6.26843.0664-13.52755.65775-14.93261" id="path4842-0"/><path style="display:inline;fill:none;stroke-dasharray:none;stroke-linecap:round;stroke-linejoin:miter;stroke-miterlimit:4;stroke-opacity:1;stroke-width:3;stroke:#c8c8c8" d="m270.37521 365.58931c-.5898-6.26843 1.65741-38.80662 2.24874-40.21168" id="path4844-2"/><path style="display:inline;fill:none;stroke-dasharray:none;stroke-linecap:round;stroke-linejoin:miter;stroke-miterlimit:4;stroke-opacity:1;stroke-width:3;stroke:#c8c8c8" d="m361.06878 306.13629c-11.95666 5.4575-67.38552 11.00491-77.01262 5.39115" id="path4846-4"/><path style="display:inline;fill:none;stroke-dasharray:none;stroke-linecap:round;stroke-linejoin:miter;stroke-miterlimit:4;stroke-opacity:1;stroke-width:3;stroke:#c8c8c8" d="m263.69519 311.06719c-7.45666 4.9575-22.81231 1.68169-24.18941.56793" id="path4848-9"/><path style="display:inline;fill:none;stroke-dasharray:none;stroke-linecap:round;stroke-linejoin:miter;stroke-miterlimit:4;stroke-opacity:1;stroke-width:3;stroke:#969696" d="m264.44389 380.21249c-6.89282-6.74541 4.70409-19.32187 12.11963-11.75287 7.09509 7.60069-2.40288 21.26182-12.11963 11.75287z" id="path4850-7"/><path style="display:inline;fill:none;stroke-dasharray:none;stroke-linecap:round;stroke-linejoin:miter;stroke-miterlimit:3.85714293;stroke-opacity:1;stroke-width:3;stroke:#c8c8c8" d="m271.42046 255.48644c-7.42366 3.76671-15.02623 2.26335-19.34899.41778" id="path4852-7"/><path style="display:inline;fill:none;stroke-dasharray:none;stroke-linecap:round;stroke-linejoin:miter;stroke-miterlimit:3.85714293;stroke-opacity:1;stroke-width:3;stroke:#c8c8c8" d="m311.7076 256.81266c-7.17366 2.39171-15.6235 4.54843-23.86155-.14073" id="path4854-4"/><path style="display:inline;fill:none;stroke-dasharray:none;stroke-linecap:round;stroke-linejoin:miter;stroke-miterlimit:3.85714293;stroke-opacity:1;stroke-width:3;stroke:#c8c8c8" d="m298.91146 213.25876c-14.26547 16.1107 9.3684 22.60445 12.71804 42.94856" id="path4856-6"/><path style="display:inline;fill:none;stroke-dasharray:none;stroke-linecap:round;stroke-linejoin:miter;stroke-miterlimit:4;stroke-opacity:1;stroke-width:3;stroke:#c8c8c8" d="m251.86559 255.56135c-3.40749 1.54328-11.99537 3.13727-13.62247 2.52351" id="path4858-4"/><path style="display:inline;fill:none;stroke-dasharray:none;stroke-linecap:round;stroke-linejoin:miter;stroke-miterlimit:4;stroke-opacity:1;stroke-width:3;stroke:#c8c8c8" d="m273.92547 301.85502c-.30879-6.18197 1.84396-25.58576 4.24874-35.96168" id="path4860-7"/><path style="display:inline;fill:none;stroke-dasharray:none;stroke-linecap:round;stroke-linejoin:miter;stroke-miterlimit:4;stroke-opacity:1;stroke-width:3.76864791;stroke:#969696" d="m266.0477 320.09918c-8.69315-8.44027 5.93275-24.17671 15.28516-14.70591 8.94826 9.51045-3.03049 26.60409-15.28516 14.70591z" id="path4862-6"/><path style="display:inline;fill:none;stroke-dasharray:none;stroke-linecap:round;stroke-linejoin:miter;stroke-miterlimit:4;stroke-opacity:1;stroke-width:3;stroke:#969696" d="m273.10801 262.60272c-6.89282-6.74542 4.70409-19.32188 12.11963-11.75288 7.09509 7.6007-2.40288 21.26183-12.11963 11.75288z" id="path4864-0"/><path style="display:inline;fill-rule:evenodd;fill:none;stroke-dasharray:none;stroke-linecap:round;stroke-linejoin:miter;stroke-miterlimit:3.85714293;stroke-opacity:1;stroke-width:2.34078074;stroke:#c8c8c8" d="m282.46119 202.34516c3.25263 7.26728 33.17987 7.35623 37.35495-.62964" id="path4866-8"/><path style="display:inline;fill:none;stroke-dasharray:none;stroke-linecap:round;stroke-linejoin:miter;stroke-miterlimit:4;stroke-opacity:1;stroke-width:3;stroke:#c8c8c8" d="m351.92534 398.14611c1.70188 2.28705 5.91301 9.5379 6.4442 11.169" id="path4834-7-1"/><path style="display:inline;fill:none;stroke-dasharray:none;stroke-linecap:round;stroke-linejoin:miter;stroke-miterlimit:4;stroke-opacity:1;stroke-width:3;stroke:#c8c8c8" d="m360.76417 394.25702c1.70188 2.28705 2.90781 10.24501 3.439 11.87611" id="path4834-7-6"/></svg>