<svg viewBox="0 0 560 1e3"><path style="display:inline;fill-opacity:1;fill-rule:evenodd;fill:#000;opacity:1;stroke-dasharray:none;stroke-linecap:butt;stroke-linejoin:miter;stroke-miterlimit:4;stroke-opacity:1;stroke-width:0;stroke:#000" d="m370.57736 269.08602c.23724.8312 1.1109 5.60111 1.42709 14.27511-33.60787-4.288-110.31403-11.96778-138.48736-5.34633 1.1469-3.06638 1.13267-12.09981 2.15586-14.80967.24324-.11759 9.12765-2.15667 9.54885-2.44116 12.96984-34.21324 14.33596-34.51518 31.51367-55.13078-.20578-.10769.98637-.32991 2.81284-.93373-14.26623 35.27571-10.07743 51.97809-1.78824 61.45129 10.93146-7.63158 34.10888-19.71829 53.08715-60.31847 2.65591.76603 5.77773 1.30178 5.77773 1.30178 1.90789 18.32918-.0619 41.08452 3.67362 52.92764 3.54725 3.99043 26.66066 5.85404 30.27879 9.02432z" id="path2517"/><path style="display:inline;fill-opacity:1;fill-rule:evenodd;fill:#fae;opacity:1;stroke-dasharray:none;stroke-linecap:butt;stroke-linejoin:miter;stroke-miterlimit:4;stroke-opacity:1;stroke-width:0;stroke:#000" d="m370.60102 268.81519c-.23212 1.79731.85071 6.78999.52676 13.99253-48.30237-7.27876-115.61934-10.44159-136.62308-6.05551.0418-2.81464 1.3045-13.32115 1.3045-13.32115s8.9129-2.04059 9.66336-2.44543c11.82416-30.55624 14.58742-35.11847 31.24259-55.40231.84544-.17546 1.70483-.38601 2.56536-.63893-16.81405 40.48467-8.02175 52.76388-1.59072 61.62392 17.19358-10.88851 38.35632-25.50945 53.62911-60.61021 1.9144.66913 3.96656.65204 5.47599 1.11851-.47031 15.65219.792 46.91864 3.02614 53.74685 3.55484 2.53922 23.84785 5.83886 30.77999 7.99173z" id="path2519"/></svg>