<svg viewBox="0 0 560 1e3"><path d="m344.6 100.2c1.36849 7.4486-.90601 15.38855-2.8179 21.99648-.0491.33103-5.74031 10.13985-9.47684 11.70414-.31161-3.69804-1.4512-7.54339-3.05267-11.30997-.87762-2.06411-6.64394 35.24158-7.73873 33.26199-.97509-1.76316 6.00794-37.69766 1.68057-44.46449-5.76403-9.01338-12.18189-15.745104-12.14405-15.922731-.0804-.208736-44.07137 13.244411-46.93693 4.18003-.22781-.720602-.13112 25.329991-.35478 24.591211-.61438-2.02941-1.47448 36.25812-2.04059 34.17028-.6145-2.26629-.92716-44.90802-1.38719-47.10138-1.38658-6.61094-1.84086-12.555426.0278-15.812953.9403-2.19456 5.62321-23.942509 14.49018-25.448918-5.03923 3.600095-5.70814 8.861459-8.28583 14.418029 3.51664-4.85178 7.81559-9.006138 12.88833-12.117863 1.30072-.797889 7.24851-8.863461 14.48447-11.286195-2.92868 1.951296-6.19379 5.049302-6.57715 7.540229 3.82036-1.327187 7.97239-2.133075 12.45369-2.320009.95409-.0398 7.37211-3.312839 7.34454-3.096786-.0228.179086-4.40586 2.80723-1.65195 3.186773 1.29837.178941 2.63952.2361 3.99651.431025 14.63671 1.636658 22.69471 7.769994 27.96478 16.332408.49228.79983 1.02274-2.441644 1.46947-1.601108.4949.931198.90124 5.948841 1.34822 6.925639.77441 1.692363 1.4832 3.449727 2.1482 5.260176.37884 1.031382 1.45058-4.814299 1.80504-3.750665.366 1.098246.014 9.106801.36281 10.234658" class="hair" id="path4724-7"/><path id="path4719" class="hair" d="m262.63033 114.30711c.21917.48832 2.31612-1.93226 2.3643-2.07079 4.38729-4.75506 7.35197-5.82228 14.85013-7.3946.3433-.0174 6.24163 2.75103 6.59145 2.74513.23633 10.87737 10.65884 25.40386 24.35438 36.03372.20017.15536.27566-.16525-.0946-.63887-12.5916-16.10666-14.21229-25.03317-12.64832-23.99524 13.20185 14.1305 15.33012 26.00498 32.60237 36.07754.14864-.0141-9.04274-21.81414-5.51856-21.65624 2.11658 2.52119 5.15116-.95931 6.99189 1.46055 34.04139-70.062712-74.71689-86.627596-69.49304-20.56119z"/></svg>