<svg viewBox="0 0 560 1e3"><path style="display:inline;fill-opacity:1;fill-rule:evenodd;fill:#000;stroke-dasharray:none;stroke-linecap:butt;stroke-linejoin:miter;stroke-miterlimit:4;stroke-opacity:0;stroke-width:3.05055022;stroke:#000" d="m347.87122 216.10417c-2.2742-3.975-5.32807-5.56966-2.31247-5.91928 8.0577-.9342 54.27067-19.67224 72.89137-25.43874.49874 1.40225 12.30201 28.99961 13.55439 32.02482-4.75372 2.42248-66.40506 41.47938-71.2078 43.70839-6.76698-20.22007-12.61438-43.93416-12.92549-44.37519z" id="path5139"/><path style="display:inline;fill-opacity:1;fill-rule:evenodd;fill:#502;stroke-dasharray:none;stroke-linecap:butt;stroke-linejoin:miter;stroke-miterlimit:4;stroke-opacity:0;stroke-width:3;stroke:#000" d="m347.79149 214.93549c-2.23963-3.9037-5.24707-5.46975-2.27732-5.81311 7.93519-.91744 47.44764-14.10634 72.34277-23.62816.64735 1.67147 2.23912 9.9613 13.31925 30.88776-7.62705 4.09797-62.88902 38.53815-70.65574 42.13278-6.66409-19.85739-12.42259-43.14615-12.72896-43.57927z" id="path5141"/></svg>