<svg viewBox="0 0 560 1e3"><path id="path2158" d="m368.45236 268.83602c.40069 1.40387.82871 12.89967-6.36035 37.77919-5.42713 18.7819-17.81882 32.23312-18.4152 33.6912-5.67024 10.65228-17.09038 24.43202-2.6956 51.34096.0.0-43.62056 23.4233-55.12978 51.76067-2.06147 4.01155-2.1084 11.81811-3.46792 16.10443-.27859.87834-1.00697 6.35332-3.50565 8.26757-.26944.20641-1.13656 1.14752-4.58251.28177-.17413-.0437-1.37345.71664-3.61847.0361-5.83439-1.76869-6.66978-8.86034-6.76649-9.28816-1.98539-8.78313-6.24957-28.02971-9.43291-34.24779-14.19124-27.72004-18.3769-29.52726-19.68474-31.86359 8.0323-20.31139 3.32526-6.74241 4.31944-11.84893 2.433-12.49684 4.36437-26.84551 4.53564-42.04865.24452-21.70551-6.08737-33.66342-6.98584-46.20078.40962-35.13389 30.30326-40.0847 52.38713-59.43686.97617-2.02088 1.68499-20.51561-12.22524-27.79509-.63873-.33426 5.49532-2.25669 10.01985-4.65903 9.24713 11.38115 25.18214 3.12903 31.26177-2.13928 1.50252 1.12706 9.10193 4.89722 7.88644 5.69617-25.72677 16.91039-30.9022 28.84774-29.45936 29.06832 3.13994 1.52155 66.54554 33.43249 67.65165 34.25705z" style="display:inline;fill-opacity:1;fill-rule:evenodd;fill:#000;opacity:1;stroke-dasharray:none;stroke-linecap:butt;stroke-linejoin:miter;stroke-miterlimit:4;stroke-opacity:1;stroke-width:0;stroke:#000"/><path id="path2160-1" d="m368.47602 268.56519c-.47811 3.70196-1.46839 19.80284-7.70729 38.14162-6.28969 18.48806-14.96309 28.5403-15.90371 29.80104-5.36776 7.1946-10.45038 18.14833-11.79001 29.08338-1.1072 9.03783 4.31479 14.51787 9.51907 29.12433-40.10653 11.44456-59.2276 60.94332-59.99927 63.28109-.78385 1.88787-1.88511 7.56063-4.38201 9.34104-1.21712.86786-3.67455-.009-3.92649-.0331-.29397-.0276-.94677.88798-3.15959.31564-5.65546-1.4629-6.20431-7.05369-6.77642-9.00439-18.43111-29.49711-27.64295-59.66118-32.36836-60.85013 8.031-22.70725 11.98718-33.93175 13.05445-56.72687 1.27707-21.66848-5.53672-33.8742-6.42575-46.41156-3.09439-19.23326.0417-29.91265 2.8921-40.0563 5.93388-21.11676 19.29724-31.24421 35.43338-48.58987.49229-.51848 5.43756-2.25669 9.91452-4.65903 9.14993 11.38115 24.91744 3.12903 30.93316-2.13928 1.48672 1.12706 18.23182 7.00546 18.7637 8.34782 5.59696 13.25538 5.60863 25.94395 12.7896 37.87473 7.32565 13.63251 13.69888 21.31242 19.13892 23.15984z" style="display:inline;fill-opacity:1;fill-rule:evenodd;fill:#162d50;opacity:1;stroke-dasharray:none;stroke-linecap:butt;stroke-linejoin:miter;stroke-miterlimit:4;stroke-opacity:1;stroke-width:0;stroke:#000"/></svg>