<svg viewBox="0 0 560 1e3"><g data-transform="belly" id="g7940"><path id="XMLID_543_" class="shadow" d="m274.8 433.8c20.7-1.5 47.7-4.5 61.9-42.4 13.1-44.3-27.8-99.6-59.9-101.5-40.1 6.2-61.8 42.8-63.9 96.9 2.2 31 33.1 49 61.9 47z"/><path id="XMLID_544_" class="skin belly" d="m274.8 433.8c20.8.1 49.4-13 61.9-42.4s-18.5-83.4-46-101.7c-6.5-4.3-38.7-8.2-40.4.0-2.6 11.6-44.9 33.3-41.4 96.8 1.8 34.8 45.1 47.2 65.9 47.3z"/><path id="XMLID_545_" d="m249.39747 396.08802c.12486 1.70749-.62641 4.50894-2.16866 4.62172-1.54225.11277-2.36338-2.46164-2.48824-4.16913-.12486-1.70749.67061-4.35425 2.21286-4.46703 1.54225-.11278 2.31918 2.30695 2.44404 4.01444z" class="bellybutton"/></g></svg>