<svg viewBox="0 0 560 1e3"><path style="display:inline;fill-opacity:1;fill-rule:evenodd;fill:#221c24;opacity:1;stroke-dasharray:none;stroke-linecap:butt;stroke-linejoin:miter;stroke-miterlimit:4;stroke-opacity:1;stroke-width:0;stroke:#000" d="m298.46108 438.89935c-6.48422 6.26583-11.19704 12.82415-15.33516 19.44716-1.04023 1.75909-1.92047 7.35117-4.50173 9.70959-.97785.89343-3.70051-.0277-4.03805.0431-.91345.19159-2.09488.29968-2.84109.24274-1.3589-.10369-3.10427-.97079-4.62926-2.64607-1.15035-1.26373-2.1753-2.98733-2.81436-5.19001-3.99405-5.27747-10.5589-14.66641-17.49018-23.90539 4.48963 1.85597 9.35646 2.79339 14.73041 2.73225 1.76498-.0201 3.58467-.14788 5.46366-.38622 9.80224 3.87793 21.03947 2.36746 31.45576-.0471z" id="path2129"/><path style="display:inline;fill-opacity:1;fill-rule:evenodd;fill:#000;opacity:1;stroke-dasharray:none;stroke-linecap:butt;stroke-linejoin:miter;stroke-miterlimit:4;stroke-opacity:1;stroke-width:0;stroke:#000" d="m282.94456 458.76549c-.0483.15247-.11284.47208-.19954.90622-.41277 2.06685-1.81439 6.53069-3.87757 8.11265-.26921.20642-1.13559 1.14752-4.57861.28177-.17398-.0437-2.18026 1.1699-4.2783.12449-4.65827-2.32112-6.22252-8.10904-6.31915-8.53686 3.82592 9.08132 8.89939 9.3147 10.40315 7.55401 5.26837 2.79873 7.50839-4.81217 8.85002-8.44228z" id="path2131"/><path style="display:inline;fill-opacity:1;fill:#fff;stroke-dasharray:none;stroke-linecap:butt;stroke-linejoin:miter;stroke-miterlimit:4;stroke-opacity:1;stroke-width:0;stroke:#83afc8" d="m252.70414 444.58541c10.94342 1.31488 24.01095 1.50229 40.32871.0811-1.56759 2.01272-3.58281 4.56444-5.24245 6.66295-12.30604 1.16431-22.00263 1.20882-29.81942.51362-2.04934-2.61037-3.63449-4.68604-5.26684-7.25767z" id="path2047-7-2-9"/><path style="display:inline;fill-opacity:1;fill:#fff;stroke-dasharray:none;stroke-linecap:butt;stroke-linejoin:miter;stroke-miterlimit:4;stroke-opacity:1;stroke-width:0;stroke:#83afc8" d="m262.53421 458.18295c6.22871.31514 13.08896.30377 20.72809-.0971-.87505 2.4389-1.64015 4.66739-2.42955 6.53665-5.25319.34928-9.97649.47387-14.24234.41152-1.68576-1.69159-2.0194-4.59693-4.0562-6.85107z" id="path2049-2-5-8"/><path id="path5105-9-6-2-2-3" d="m314.29363 275.41775c-11.17521-9.01494-12.4097-15.14101-7.89117-19.74018 4.39197-3.8424 6.88957 2.34093 7.73764 2.30651.91083-.037 3.81637-6.6957 8.90989-1.10433 1.95047 3.23747 3.85989 8.22888-8.75638 18.538z" style="display:inline;fill-opacity:1;fill:#221c24;opacity:1"/><path id="path5108-0-3-4-1-1" d="m250.89207 252.6388c2.17936 3.1811 1.53948 6.60232-.25668 9.35142-1.76376 4.04756-8.95235 7.38221-13.05084 10.98292-.31955-.6623-.43976-2.94107-.17968-5.70202.36114-3.83527.82687-8.67702 1.38235-11.41026.0255-.12488.018-.28223.10023-.35303.41452-.35698 2.14562-2.10082 3.35102-3.0726 1.76992-1.42689 2.65742-1.49977 3.54382-1.65913.96726-.17389-1.036 1.82822-.91963 2.00476.16707.10437 4.61931-2.05348 6.02941-.14206z" style="display:inline;fill-opacity:1;fill:#221c24;opacity:1;stroke-width:1.0654707"/></svg>