<svg viewBox="0 0 560 1e3"><path d="M308.1475 77.54163s12.76065-8.72344 26.22373-9.571872C345.38538 67.275655 353.67173 65.875307 353.67173 65.875307 352.49653 73.891944 345.71352 97.010094 331.25477 112.72416c0 0 1.03532000000001-26.317653-23.10727-35.18253z" id="path2-5" class="eart"/><path d="M353.67173 65.875307C352.49653 73.891944 345.71352 97.010094 331.25477 112.72416 331.25477 112.72416 331.27217 112.2821 331.24977 111.49327 331.14127 107.65265 330.09229 95.591853 321.51681 86.308139 329.05503 74.803696 341.04385 69.388272 353.67162 65.875307z" id="path4-7" class="eart"/><path style="display:inline;fill-opacity:1;fill:#fefefe;stroke-linecap:butt;stroke-linejoin:miter;stroke-opacity:1;stroke-width:1px;stroke:none" d="M329.49165 100.71363C328.13171 96.112323 325.73465 90.874322 321.51681 86.308139 326.3717 78.898855 333.07263 74.015194 340.60136 70.538778c0 0 5.17674-.182269999999988 8.51755000000003 1.867294C348.95668 72.484602 346.34671 73.012501 345.03101 73.436747 347.5285 73.566382 348.57695 74.803178 348.57695 74.803178S347.6623 74.857568 346.26505 75.698638C349.11579 76.593218 350.89723 81.157279 350.89723 81.157279S348.70231 80.806552 346.03227 81.306532C348.09739 82.242395 349.28418 86.197097 349.28418 86.197097S347.1007 85.670146 343.28054 85.403524C347.58399 86.924137 347.76753 91.427508 347.76753 91.427508S343.93744 88.779513 343.45459 88.261921C345.24317 91.036311 345.136 94.092781 345.136 94.092781S343.85595 92.563219 342.11692 91.954141C342.66068 93.063919 342.66169 95.216809 342.66169 95.216809S340.53522 94.032502 339.96918 93.217135C340.42735 96.51061 339.52477 101.78259 339.52477 101.78259S337.19827 98.585659 336.36078 96.750149C336.61263 99.768343 335.45502 102.67922 335.45502 102.67922S335.35922 98.183131 334.52842 96.928342C334.81793 100.79529 333.8457 102.81817 332.63242 105.39173 332.63242 105.39173 330.8544 102.92991 329.49165 100.71363z" id="path6-3"/></svg>