<svg viewBox="0 0 560 1e3"><path id="path5043-34-6-2-6" d="m367.7004 260.21275c.11703-.85444-.21517-6.69299-.11028-7.50528.63394 3.49908.6254 3.28725.11028 7.50528zm.83701-7.50514c.11703-.85444-.21517-6.693-.11028-7.50529.63394 3.49908.6254 3.28725.11028 7.50529zm-.26409 3.48112c.11702-.85444-.21518-6.693-.11029-7.5053.63394 3.4991.62541 3.28725.11029 7.5053zm-.79101-1.8348c.11703-.85442-.21517-6.693-.11028-7.50529.63394 3.49908.6254 3.28725.11028 7.50529zm.8168 5.5715c.11702-.85444-.21518-6.69301-.11029-7.5053.63394 3.4991.62541 3.28725.11029 7.5053zm-.47436-8.89294c.11703-.85442-.21518-6.69299-.11028-7.50528.63393 3.49908.6254 3.28724.11028 7.50528zm-.74277 9.7311c.11703-.85442-.21518-6.693-.11028-7.50529.63393 3.49909.6254 3.28725.11028 7.50529zm-.89678-6.5191c.11703-.85442-.21517-6.693-.11028-7.50529.63394 3.49909.6254 3.28725.11028 7.50529zm.92228-4.65204c.11703-.85443-.21517-6.693-.11028-7.50529.63393 3.4991.6254 3.28725.11028 7.50529zm-.46587 2.0652c.11703-.85442-.21517-6.69299-.11028-7.50528.63394 3.49908.6254 3.28724.11028 7.50528zm-.23854 10.28739c.11703-.85443-.21517-6.693-.11028-7.50529.63394 3.49909.6254 3.28725.11028 7.50529zm.28554-4.60959c.11702-.85444-.21518-6.693-.11029-7.5053.63394 3.4991.62541 3.28726.11029 7.5053zm-1.03053-6.56516c.11702-.85443-.21518-6.69299-.11029-7.50529.63394 3.49909.62541 3.28726.11029 7.50529zm-.70169 2.27902c.11702-.85443-.21518-6.693-.11029-7.50529.63394 3.49909.62541 3.28725.11029 7.50529zm-.69865-.6198c.11703-.85442-.21517-6.693-.11028-7.50529.63394 3.49909.6254 3.28725.11028 7.50529zm1.63393 7.45952c.11703-.85441-.21518-6.69299-.11028-7.50529.63393 3.49909.6254 3.28726.11028 7.50529zm-.60346-.28039c.11703-.85442-.21518-6.693-.11028-7.50528.63393 3.4991.6254 3.28724.11028 7.50528zm-1.14284.35109c.11703-.85443-.21517-6.693-.11028-7.50529.63394 3.49909.6254 3.28725.11028 7.50529zm1.41645-4.53838c.11703-.85444-.21517-6.693-.11028-7.50529.63394 3.49908.6254 3.28724.11028 7.50529zm-.9315 1.67474c.11703-.85443-.21518-6.69299-.11028-7.50529.63393 3.49909.6254 3.28726.11028 7.50529zm-1.19754-5.48546c.11703-.85442-.21517-6.693-.11028-7.50528.63394 3.49908.6254 3.28724.11028 7.50528zm-1.21101.20901c.11703-.85441-.21518-6.69299-.11028-7.50527.63393 3.49907.6254 3.28724.11028 7.50527zm1.64859 3.02377c.11703-.85443-.21518-6.69299-.11028-7.50529.63393 3.49909.6254 3.28725.11028 7.50529zm-.62774 5.47539c.11702-.85444-.21518-6.693-.11029-7.50529.63394 3.49909.62541 3.28725.11029 7.50529zm-.84802-1.89514c.11703-.85443-.21518-6.693-.11028-7.50529.63393 3.49909.6254 3.28725.11028 7.50529zm.7392-3.18296c.11702-.85441-.21518-6.69299-.11029-7.50528.63394 3.49908.62541 3.28725.11029 7.50528zm-.57967-.51111c.11702-.85443-.21518-6.693-.11029-7.50529.63394 3.49909.6254 3.28724.11029 7.50529zm-.70628.48341c.11703-.85442-.21518-6.693-.11028-7.50529.63393 3.49908.6254 3.28725.11028 7.50529z" class="underarm_hair"/></svg>