<svg viewBox="0 0 560 1e3"><path d="m342.21452 104.22065c-.28065 2.15847-1.63084 5.60996-2.09103 7.67018-.56313 2.52115.53379 6.36809-.10028 8.24683-.0278.18726-1.60221 3.46636-3.86583 6.51137-1.73785 2.33776-2.22933 6.57221-3.85212 7.25159-.54931-4.32342.18763-1.55617-1.31653-5.17072-.35524-.8355-1.27887-.96721-3.09003 1.69406-.17121.25156.58944.70314.6854 2.44913.0841 1.52932-1.08985 7.36981-2.32163 10.34644-1.34855 3.25883-.0709 9.20811-.13583 9.62316-.70917 4.53039-4.6091 11.26818-5.45877 10.93148-.23724-.094 4.46754-7.56674 2.87427-9.59469-2.06667-2.6305-.77828-7.95184-.77828-7.95184 1.96647-5.74324 3.96843-12.98676 1.5617-15.08392-2.44025-2.12642.44097-5.18565 1.24572-6.6305.95504-1.71466-.54356-10.25823-2.3769-13.12507-5.76403-9.01338-12.18189-15.745104-12.14405-15.922731-.0804-.208736-44.07133 13.244401-46.93693 4.18003-.11009-.348247-.1444 5.555981-.1757 11.667341-.005 1.04579 1.23937 3.09764 1.23383 4.12526-.007 1.27885-1.67678 4.96804-1.82521 6.02359-.20035 1.4248 2.10605 6.77955 2.13105 7.74377.0249.96203-2.29 8.7536-2.35549 9.83496-.28152 4.64847 2.34335 21.11426 1.97115 19.74157-.2581-.95187-3.68214-14.74828-3.78654-19.35274-.026-1.14504 1.51075-7.77672 1.43389-8.94261-.10325-1.56616-2.87302-7.69825-2.92653-9.13737-.0456-1.22647 1.70914-5.11744 1.63395-6.11122-.78354-2.72408-2.02631-6.51041-1.75769-10.22713.27519-3.80758-.39391-7.364082.66539-9.433015 1.43606-3.689133 2.7074-3.291431 5.09751-6.612154 2.622-3.6429 2.79272-6.227475 6.51017-9.024105 3.56725-2.68364 5.03018-2.120418 9.55639-3.64446 3.50384-1.179795 3.2263-3.672322 8.33956-5.196638 3.15561-.940721 5.53423-.134486 9.1659.322317 2.84803.826734 8.83586-1.122751 11.41344-.39356 2.99868.848318 5.77764 2.187721 8.20481 3.641373 2.76606 1.65662 7.16747 1.675934 9.4571 3.184493 2.21115 1.456855 2.999 3.683151 4.61436 5.465161 2.05893 1.675321 4.00772 2.919626 5.57671 5.277193 1.49944 2.253059 1.04286 4.089682 2.02663 7.634491.58446 4.088194 1.62359 4.170334 1.89644 7.988684z" class="hair" id="path4758"/><path id="path4760" class="hair" d="m322.84768 121.53338c2.07809.73237 4.18812 1.14413 6.34967 1.091 2.11658 2.52119 1.0853 9.82407 2.92603 12.24393 33.63083-69.217716-72.11429-86.220251-69.63276-22.91558.49758-.1737.98816-.34172 1.47195-.50414.12418-.0417 1.8315 2.44905 1.96219 3.27899.1098.69729-.39625 2.15049-.42609 2.4804-.0408.45049.80113 3.76758.81994 3.68034.62373-2.89238 1.69076-5.39776 1.68554-5.54277-.0266-.73891-.78037-1.26977-.98852-2.84254.25839-.91231.54512-1.77515 1.67338-2.52597.1603-.0457-.29648.71722.96465 3.2239 1.33102 2.64559-.67873 3.17382-.67855 4.79094 3e-5.27557 1.31761 2.74166.51544 4.28078-.15887.30482 1.33175 5.34712 1.79076 5.15509.38095-.15937.30096-5.91886.31937-6.59596.0112-.41317-.56999-1.75263.52012-2.68998.17526-.1507 1.35922-1.6391 1.2013-4.7076-.0107-.2089-1.65892-4.40538-.52041-4.51642.55725-.0543 1.39631 2.16875 1.36042 2.2522-.41763.97104-.1158 3.30512.80749 3.77274.72625.36783.74135 4.09818 1.14553 3.84079.3517-.22398.66192-4.42465-.14942-5.75336-.44074-.7218.34516-1.50429.50658-2.13561.36573-1.43033-.56956-2.60594-.44882-2.62693.39617-.0689 1.6764 1.03033 2.16735 2.15133.38021.86816-.0278 1.64106.16314 2.55527.1877.89881.76337.79619 1.01795 2.73185.0862.65513 2.21983-1.12922 2.15281-2.73716-.0795-1.90622 1.39215-2.60687 1.38647-2.84264-.0582-2.41525-.81984-2.53597-.64566-2.54265.85248-.0327 2.25607 1.00793 3.54511 1.82012.97837.61644 1.89075 1.10128 2.44611.88537.67112-.26092 1.44212-.57355 2.24142-.79578 1.44828-.40266 2.98946-.50854 4.19767.52772.38175.32743-.79421 3.24508 1.05527 4.4996 2.4046 1.63107 2.57214 4.7019 2.14041 7.42762-.41392 2.61326 1.92898 4.65812 2.52372 4.6222.12697-.008-1.03485-2.23594-.64562-4.46765.38125-2.1859 1.18522-4.16873-.39909-5.75361-1.47001-1.47055.8007-3.95263 1.02691-3.95213 2.25656.005 2.51166-1.96195 2.78998-1.98078.18363-.0124 2.43479 2.09305 2.83394 3.26206.25604.74988 1.2849 2.88466-1.42782 7.35687-.56006.92332 2.20907 6.46301 3.67681 6.95098-.32997-.37926-.5331-4.38145-.8069-6.09508-.29455-1.84355 1.22574-4.22904 1.98659-5.20785 1.13641-1.46198 2.239-2.94349 2.3783-3.97868.38291.33928 3.87022 1.55194 4.04797 2.82176.1537 1.09801.71208 2.17313 1.65539 2.88062 2.29421 1.72066 1.5049 5.96702 1.11611 6.10216-1.80828.62852-2.68045 3.98667-2.48821 4.39178 3.66761 7.72867.57464 9.87856 1.57345 9.05762.99583-.81849 3.51011-2.84484 3.31168-5.51434-.0336-.45234-1.63211-5.46527 1.56353-6.34387.55307-.15206 1.03655-2.18436.23942-4.56695z"/><path d="m337.22843 125.90211c-57.55821-58.849461-85.77269-13.0148-74.72994 12.40057 1.83958 4.23388-6.68248-3.72842-5.07243-10.36659 1.78519-4.11166-4.00494-12.68407-1.55573-18.53527 2.58726-3.66202 3.70102-13.174058 4.5583-13.713919 3.84974-3.434964 10.16996.285395 12.52678.181838 1.53884-.39051 2.41859.02151 5.48428 1.057312 17.04829 4.253639 53.99482-.418261 60.72062 14.901359 1.89819 4.32359 2.11589 6.36076 1.85429 7.96576-.35055 2.15066-3.65041 5.24795-3.78623 6.10894z" class="hair" id="path4781-09"/></svg>