<svg viewBox="0 0 560 1e3"><path d="m262.58376 114.0127c.21917.48832 2.31612-1.93226 2.3643-2.07079 4.38729-4.75506 7.35197-5.82228 14.85013-7.3946.3433-.0174 6.24163 2.75103 6.59145 2.74513.23633 10.87737 10.65884 25.40386 24.35438 36.03372.20017.15536.27566-.16525-.0946-.63887-12.5916-16.10666-14.21229-25.03317-12.64832-23.99524 13.20185 14.1305 15.33012 26.00498 32.60237 36.07754.14864-.0141-9.04274-21.81414-5.51856-21.65624 2.11658 2.52119 5.15116-.95931 6.99189 1.46055 32.13954-56.274313-78.35232-60.270711-69.49304-20.56119z" class="hair" id="path8623"/><path style="display:inline;fill-opacity:1;fill-rule:evenodd;fill:maroon;opacity:1;stroke-dasharray:none;stroke-linecap:butt;stroke-linejoin:miter;stroke-miterlimit:4;stroke-opacity:0;stroke-width:2.63688636;stroke:#000" d="m287.64153 105.53963c-5.53712-.11481-15.53443.5474-25.38128-.008.17198-4.23541-.73175-30.601955-3.27811-36.785273 24.9489-5.849378 48.75898-6.214525 80.71224 4.508327-10.47894 20.362496-.66552 27.246156-2.41558 37.487486-15.24022-2.56556-28.71159-5.83999-49.63727-5.20209z" id="path8625"/><path style="display:inline;fill-opacity:1;fill-rule:evenodd;fill:#fff;opacity:1;stroke-dasharray:none;stroke-linecap:butt;stroke-linejoin:miter;stroke-miterlimit:4;stroke-opacity:0;stroke-width:2.60880613;stroke:#000" d="m287.63633 104.61732c-5.53878-.11235-15.54027.5463-25.39009.002-5.21603-11.106437-2.60405-31.372462-2.52909-33.071771 27.25388-.609379 32.51225-5.345803 78.61723 4.004265-.0312 1.882335-.41703 21.394796-1.04364 34.155396-15.24482-2.51046-28.72241-5.71455-49.65441-5.09036z" id="path8631"/><ellipse ry="12.49299" rx="12.36194" cy="89.181564" cx="289.59634" id="ellipse8621" style="display:inline;fill-opacity:1;fill-rule:evenodd;fill:maroon;opacity:1;stroke-dasharray:none;stroke-dashoffset:0;stroke-linecap:butt;stroke-linejoin:miter;stroke-miterlimit:4;stroke-opacity:1;stroke-width:0;stroke:#212f3d;vector-effect:none"/><path id="path4602-5-8-8-1-6" d="m292.59441 78.632395c-.11803 1.871782-.62251 7.528261-.50981 7.897304.36236.199091 7.41444-.06824 7.94159.197344.0166.952908.1104 4.275168.119 5.332812-2.18073-.03935-7.35964-.29476-8.20795-.255902-.0701.417637-.20501 6.888723-.33042 8.263397-1.06943.0527-4.98494.19716-5.94605.19813.013-.621844.41417-7.454588.51618-7.82554-.49388-.190823-7.10853.03007-7.99546-.179919.009-.850705.005-4.654977.1805-5.495224 1.6397-.03035 7.89879.02699 8.33098.09426.31214-.246532-.0288-6.72927.418-8.620016.85477-.0052 3.70781.01948 5.48344.393354z" style="display:inline;fill-opacity:1;fill:#fff;opacity:1;stroke-dasharray:none;stroke-linecap:butt;stroke-linejoin:miter;stroke-miterlimit:4;stroke-opacity:1;stroke-width:0;stroke:#000"/></svg>