<svg viewBox="0 0 560 1e3"><path id="path3467-0-3-1" d="m459.70715 461.33418c.0522-.0727-11.67013-12.46713-14.18875-15.99117-.062-.0868.24319 6.57332.15329 6.51094-9.01424-6.25439-28.60442-20.58459-42.69357-45.80429-26.58589-47.58898-124.58446 9.50551-129.23486 9.50551l-1.59826 8.34375c4.04301.0 103.64605-56.24068 127.88538-15.52466 16.93272 28.44274 34.94681 42.19845 44.15888 46.72213.0889.0437-4.76008 4.66602-4.66353 4.6586 2.83781-.21792 20.00457 1.82539 20.18142 1.57919z" style="display:inline;fill:#000;stroke-width:1.79057908"/><path id="path3467-0-4" d="m457.35364 460.2075c.0522-.0727-10.45479-10.76565-11.82436-14.86422-.0338-.10119-2.1212 5.44637-2.2111 5.38399-9.01424-6.25439-28.60442-20.58459-42.69357-45.80429-26.58589-47.58898-124.58446 9.50551-129.23486 9.50551l-1.59826 8.34375c4.04301.0 103.64605-56.24068 127.88538-15.52466 16.93272 28.44274 34.94681 42.19845 44.15888 46.72213.0889.0437-2.40768 5.85129-2.32124 5.80765 2.97039-1.49955 17.66228.67634 17.83913.43014z" style="display:inline;fill:maroon;stroke-width:1.79057908"/><path style="display:inline;fill-opacity:1;fill-rule:evenodd;fill:#000;stroke-dasharray:none;stroke-linecap:butt;stroke-linejoin:miter;stroke-miterlimit:4;stroke-opacity:0;stroke-width:2.98052025;stroke:#000" d="m331.73047 378.14251c49.00736 57.53431 48.44026 73.22914 44.22078 87.41844-.23739.79832-.0649 1.65973-.1119 2.48551-.0463.81306-9.86051 6.18026-9.86051 6.18026-2.74425-17.9562-32.70456-89.23653-34.24837-96.08421z" id="path3785"/><path style="display:inline;fill-opacity:1;fill-rule:evenodd;fill:maroon;stroke-dasharray:none;stroke-linecap:butt;stroke-linejoin:miter;stroke-miterlimit:4;stroke-opacity:0;stroke-width:2.98052025;stroke:#000" d="m332.68791 381.79345c41.8693 49.34904 46.10318 64.86651 43.28874 83.77391-.1199.8055-8.9945 5.15264-9.07484 5.26903-2.74425-17.9562-32.67009-82.19526-34.2139-89.04294z" id="path3787"/><path style="display:inline;fill-opacity:1;fill-rule:evenodd;fill:#000;stroke-dasharray:none;stroke-linecap:butt;stroke-linejoin:miter;stroke-miterlimit:4;stroke-opacity:0;stroke-width:2.97439027;stroke:#000" d="m351.05703 402.25389c.0688.41134.59363.0515.70903 1.06206-.96829.15367-4.44645 1.31322-4.6157 1.32091-.30453-.57217-.50525-.4814-.54378-1.0685.73033-.2578 4.28112-1.30718 4.45045-1.31447z" id="path3773-3-5-5"/></svg>