<svg viewBox="0 0 560 1e3"><path class="areola" d="m271.54026 376.44844c.0782 1.21363-.39233 3.20481-1.35826 3.28497-.96592.0802-1.48021-1.74966-1.55841-2.96328-.0782-1.21363.42001-3.09486 1.38594-3.17502.96593-.0802 1.45253 1.6397 1.53073 2.85333z" id="path5405-7-9-0-4"/><path id="path4510-8" d="m370.45236 272.58602c-3.06155 32.80241-11.78076 43.11756-19.90025 81.23161 1.95915 5.74033 18.81048 39.25953 11.68125 62.37219-26.83331 14.10151-122.76541 23.0389-139.03109-.60376-3.61419-35.95451 12.56673-65.57166 17.22644-94.59589-1.87782-10.29261-3.19035-20.34715-3.76674-28.39016-5.66195-68.91381 25.43595-80.91093 50.18174-91.89098 9.24713 11.38115 25.18214 3.12903 31.26177-2.13928.12489 7.20108 47.20462 34.9752 52.34688 74.01627z" style="display:inline;fill-opacity:1;fill-rule:evenodd;fill:#000;opacity:1;stroke-dasharray:none;stroke-linecap:butt;stroke-linejoin:miter;stroke-miterlimit:4;stroke-opacity:1;stroke-width:0;stroke:#000"/><path id="path4512-9" d="m363.85542 299.71521c-4.48796 17.83618-10.83213 36.66476-15.04845 53.39954 1.23702 4.41205 14.20661 32.62842 13.18813 50.28311-21.01719 4.68261-53.52062 14.54707-87.63724 15.12023-16.46013.27654-33.64933-3.02392-49.75167-8.69836-5.05178-23.4018 14.23669-64.68616 17.1596-88.84342-5.96785-40.25491-15.76886-106.49187 40.33974-118.55701 3.12384-2.05334 5.3098-5.95602 6.93885-10.38042 1.65753 5.04021 26.21695.68309 26.60293.54975 2.99455 5.49381 1.12395 6.57536 6.71301 7.72308 69.725 14.36119 51.09071 59.5419 41.4951 99.4035z" style="display:inline;fill-opacity:1;fill-rule:evenodd;fill:#ff80b2;opacity:1;stroke-dasharray:none;stroke-linecap:butt;stroke-linejoin:miter;stroke-miterlimit:4;stroke-opacity:1;stroke-width:0;stroke:#000"/><path style="display:inline;fill-opacity:1;fill:#000;opacity:1;stroke-dasharray:none;stroke-linecap:butt;stroke-linejoin:miter;stroke-miterlimit:4;stroke-opacity:1;stroke-width:0;stroke:#000" d="m288.65067 205.94096c-.008-.17 5.77348-12.05234 5.84504-12.26958.0.0-5.0441-2.25985-5.19628-2.04286-.92463 1.3184-2.65827 4.70639-4.15936 6.60625.1059.25324 3.5106 7.70619 3.5106 7.70619z" id="path4514-0"/><path style="display:inline;fill-opacity:1;fill:#ff80b2;opacity:1;stroke-dasharray:none;stroke-linecap:butt;stroke-linejoin:miter;stroke-miterlimit:4;stroke-opacity:1;stroke-width:0;stroke:#000" d="m288.66108 203.74098c-.008-.16669 5.35844-10.06772 5.42795-10.28074.0.0-4.89991-2.21585-5.04775-2.00309-.8982 1.29274-2.58228 4.61477-4.04047 6.47765.10291.24831 3.66027 5.80618 3.66027 5.80618z" id="path4516-7"/><path style="display:inline;fill-opacity:1;fill:#000;opacity:1;stroke-dasharray:none;stroke-linecap:butt;stroke-linejoin:miter;stroke-miterlimit:4;stroke-opacity:1;stroke-width:0;stroke:#000" d="m303.24206 205.47603c.007-.15238-3.99545-11.03492-4.06234-11.22965.0.0 16.62296-2.66894 16.76522-2.47444.86438 1.18176 2.6413 5.37486 3.07583 6.04657-.099.227-15.77871 7.65752-15.77871 7.65752z" id="path4518-2"/><path style="display:inline;fill-opacity:1;fill:#ff80b2;opacity:1;stroke-dasharray:none;stroke-linecap:butt;stroke-linejoin:miter;stroke-miterlimit:4;stroke-opacity:1;stroke-width:0;stroke:#000" d="m303.64915 204.60393c.007-.14856-3.93866-10.27774-4.00456-10.46759.0.0 15.63782-2.64512 15.77799-2.4555.85164 1.15214 2.60238 5.24014 3.03051 5.89501-.0975.22131-14.80394 7.02808-14.80394 7.02808z" id="path4520-0"/><path style="display:inline;fill-opacity:1;fill:#000;opacity:1;stroke-dasharray:none;stroke-linecap:butt;stroke-linejoin:miter;stroke-miterlimit:4;stroke-opacity:1;stroke-width:0;stroke:#000" d="m273.76587 419.87564c-3.37067-27.44695 2.70899-95.34442 23.25259-225.55289l.80611.10099c.44243 13.37084-30.13893 182.40374-21.77891 225.43423.0.0-1.85534.73859-2.27979.0177z" id="path4522-4"/><path style="display:inline;fill-opacity:1;fill-rule:nonzero;fill:#f59;opacity:1;stroke-dasharray:none;stroke-linecap:butt;stroke-linejoin:round;stroke-miterlimit:4;stroke-opacity:1;stroke-width:0;stroke:#000" d="m300.87394 220.43307a2.7544847 2.8454499.0 01-2.75448 2.84545 2.7544847 2.8454499.0 01-2.75449-2.84545 2.7544847 2.8454499.0 012.75449-2.84546 2.7544847 2.8454499.0 012.75448 2.84546z" id="path4524-9"/><path style="display:inline;fill-opacity:1;fill-rule:nonzero;fill:#f59;opacity:1;stroke-dasharray:none;stroke-linecap:butt;stroke-linejoin:round;stroke-miterlimit:4;stroke-opacity:1;stroke-width:0;stroke:#000" d="m297.69369 242.50598a2.7544847 2.8454499.0 01-2.75448 2.84545 2.7544847 2.8454499.0 01-2.75449-2.84545 2.7544847 2.8454499.0 012.75449-2.84546 2.7544847 2.8454499.0 012.75448 2.84546z" id="path4526-8"/><path style="display:inline;fill-opacity:1;fill-rule:nonzero;fill:#f59;opacity:1;stroke-dasharray:none;stroke-linecap:butt;stroke-linejoin:round;stroke-miterlimit:4;stroke-opacity:1;stroke-width:0;stroke:#000" d="m294.36894 266.99921a2.7544847 2.8454499.0 01-2.75448 2.84545 2.7544847 2.8454499.0 01-2.75449-2.84545 2.7544847 2.8454499.0 012.75449-2.84546 2.7544847 2.8454499.0 012.75448 2.84546z" id="path4528-5"/><path style="display:inline;fill-opacity:1;fill-rule:nonzero;fill:#f59;opacity:1;stroke-dasharray:none;stroke-linecap:butt;stroke-linejoin:round;stroke-miterlimit:4;stroke-opacity:1;stroke-width:0;stroke:#000" d="m291.12262 291.4949a2.7544847 2.8454499.0 01-2.75448 2.84545 2.7544847 2.8454499.0 01-2.75449-2.84545 2.7544847 2.8454499.0 012.75449-2.84546 2.7544847 2.8454499.0 012.75448 2.84546z" id="path4530-6"/><path style="display:inline;fill-opacity:1;fill-rule:nonzero;fill:#f59;opacity:1;stroke-dasharray:none;stroke-linecap:butt;stroke-linejoin:round;stroke-miterlimit:4;stroke-opacity:1;stroke-width:0;stroke:#000" d="m288.19248 313.4826a2.7544847 2.8454499.0 01-2.75448 2.84545 2.7544847 2.8454499.0 01-2.75449-2.84545 2.7544847 2.8454499.0 012.75449-2.84546 2.7544847 2.8454499.0 012.75448 2.84546z" id="path4532-6"/><path style="display:inline;fill-opacity:1;fill-rule:nonzero;fill:#f59;opacity:1;stroke-dasharray:none;stroke-linecap:butt;stroke-linejoin:round;stroke-miterlimit:4;stroke-opacity:1;stroke-width:0;stroke:#000" d="m285.69616 337.78711a2.7544847 2.8454499.0 01-2.75448 2.84545 2.7544847 2.8454499.0 01-2.75449-2.84545 2.7544847 2.8454499.0 012.75449-2.84546 2.7544847 2.8454499.0 012.75448 2.84546z" id="path4534-8"/><path style="display:inline;fill-opacity:1;fill-rule:nonzero;fill:#f59;opacity:1;stroke-dasharray:none;stroke-linecap:butt;stroke-linejoin:round;stroke-miterlimit:4;stroke-opacity:1;stroke-width:0;stroke:#000" d="m283.59261 360.44517a2.7544847 2.8454499.0 01-2.75448 2.84545 2.7544847 2.8454499.0 01-2.75449-2.84545 2.7544847 2.8454499.0 012.75449-2.84546 2.7544847 2.8454499.0 012.75448 2.84546z" id="path4536-5"/><path style="display:inline;fill-opacity:1;fill-rule:nonzero;fill:#f59;opacity:1;stroke-dasharray:none;stroke-linecap:butt;stroke-linejoin:round;stroke-miterlimit:4;stroke-opacity:1;stroke-width:0;stroke:#000" d="m282.01878 380.39507a2.7544847 2.8454499.0 01-2.75448 2.84545 2.7544847 2.8454499.0 01-2.75449-2.84545 2.7544847 2.8454499.0 012.75449-2.84546 2.7544847 2.8454499.0 012.75448 2.84546z" id="path4538-4"/><path style="display:inline;fill-opacity:1;fill-rule:nonzero;fill:#f59;opacity:1;stroke-dasharray:none;stroke-linecap:butt;stroke-linejoin:round;stroke-miterlimit:4;stroke-opacity:1;stroke-width:0;stroke:#000" d="m281.0045 400.49998a2.7544847 2.8454499.0 01-2.75448 2.84545 2.7544847 2.8454499.0 01-2.75449-2.84545 2.7544847 2.8454499.0 012.75449-2.84546 2.7544847 2.8454499.0 012.75448 2.84546z" id="path4548-1"/><path style="display:inline;fill-opacity:1;fill-rule:evenodd;fill:#000;opacity:1;stroke-dasharray:none;stroke-linecap:butt;stroke-linejoin:miter;stroke-miterlimit:4;stroke-opacity:1;stroke-width:0;stroke:#000" d="m349.47664 406.52097c1.35149 1.92814 5.53455 8.44835 5.53455 8.44835-45.39345 19.19025-98.71965 21.32265-129.07173 8.86993-4.57236-1.57-3.7546-2.15944-3.74803-2.2226.33144-3.18682.79097-11.40942.79097-11.40942 36.42612 14.76968 80.11026 10.50452 126.49424-3.68626z" id="path4455-8-9-5-7"/><path style="display:inline;fill-opacity:1;fill-rule:evenodd;fill:#4b3832;opacity:1;stroke-dasharray:none;stroke-linecap:butt;stroke-linejoin:miter;stroke-miterlimit:4;stroke-opacity:1;stroke-width:0;stroke:#000" d="m363.2047 405.3348c.64789 1.9614-1.26693 10.08968-1.26693 10.08968-20.78729 8.80508-57.16797 14.36742-86.43676 14.77248-17.13786.23718-32.97317-2.06522-52.91184-8.6466-.66293.32662.21645-10.72442.21645-10.72442 50.08266 16.50539 78.79459 7.52882 140.39908-5.49114z" id="path4455-4-4-0"/><path style="display:inline;fill-opacity:1;fill-rule:nonzero;fill:#4b3832;opacity:1;stroke-dasharray:none;stroke-linecap:butt;stroke-linejoin:round;stroke-miterlimit:4;stroke-opacity:1;stroke-width:0;stroke:#000" d="m298.54058 193.96049c-.22272 1.55564-1.26393 2.69352-2.32564 2.54152-1.0617-.152-1.74184-1.53631-1.51913-3.09195.22271-1.55565 1.04263-1.58873 2.10434-1.43673 1.0617.15199 1.96314.43152 1.74043 1.98716z" id="path4439-9-13-9"/><path style="display:inline;fill-opacity:1;fill-rule:nonzero;fill:#4b3832;opacity:1;stroke-dasharray:none;stroke-linecap:butt;stroke-linejoin:round;stroke-miterlimit:4;stroke-opacity:1;stroke-width:0;stroke:#000" d="m315.52612 189.11398c.0576.35127-.11316.34643-.66436.47653-4.13467.97592-17.40139 4.51357-18.29818 4.38518-.86595-.12398-5.38498-3.42227-7.04422-4.25831-.37635-.18963-.60041-.20129-.54402-.51681.0646-.26175.2988-.17142.69799-.048 1.91722.59277 6.06641 3.39796 6.92304 3.52059.89428.12802 14.05544-3.42019 18.19736-3.77375.46783-.0399.72918-.0739.73239.21455z" id="path4439-9-1-2-7"/><path style="display:inline;fill-opacity:1;fill-rule:nonzero;fill:#4b3832;opacity:1;stroke-dasharray:none;stroke-linecap:butt;stroke-linejoin:round;stroke-miterlimit:4;stroke-opacity:1;stroke-width:0;stroke:#000" d="m297.69274 194.11892c-.046.62756-.16377 18.44531-1.03291 19.12038-.72098.55998.46004-18.50374-.40011-17.30381-.28279.3945-3.553 16.71952-3.93136 16.52557-.63911-.69387 2.65063-19.02289 3.71234-18.87089 1.0617.15199 1.63168-.31979 1.65204.52875z" id="path4439-9-1-5-0-8"/></svg>