<svg viewBox="0 0 560 1e3"><path d="m262.58376 114.0127c.21917.48832 2.31612-1.93226 2.3643-2.07079 4.38729-4.75506 7.35197-5.82228 14.85013-7.3946.3433-.0174 6.24163 2.75103 6.59145 2.74513.23633 10.87737 10.65884 25.40386 24.35438 36.03372.20017.15536.27566-.16525-.0946-.63887-12.5916-16.10666-14.21229-25.03317-12.64832-23.99524 13.20185 14.1305 15.33012 26.00498 32.60237 36.07754.14864-.0141-9.04274-21.81414-5.51856-21.65624 2.11658 2.52119 5.15116-.95931 6.99189 1.46055 32.13954-56.274313-78.35232-60.270711-69.49304-20.56119z" class="hair" id="path6714"/><path style="display:inline;fill-opacity:1;fill-rule:evenodd;fill:#2b1100;opacity:1;stroke-dasharray:none;stroke-linecap:butt;stroke-linejoin:miter;stroke-miterlimit:4;stroke-opacity:0;stroke-width:2.46133304;stroke:#000" d="m284.79886 106.2673c-3.76916.19959-49.04838-1.7688-50.22337-5.75424 2.8893-7.750851 18.33048 1.97369 47.40997-3.426447.47078-.01864 3.99565-37.517496 4.45114-37.266074 7.49479 4.136951 20.46278 4.447672 35.38782.72747.48152-.120025-8.5645 36.890008-8.0869 37.025947 26.2106 7.460374 32.17177 7.331244 59.38462 17.314174-.4173-.0134-.83484-.0286-1.25262-.0455-27.58396-1.11196-56.20856-9.51272-87.07066-8.57538z" id="path6716"/><path style="display:inline;fill-opacity:1;fill-rule:evenodd;fill:#725d49;opacity:1;stroke-dasharray:none;stroke-linecap:butt;stroke-linejoin:miter;stroke-miterlimit:4;stroke-opacity:0;stroke-width:2.46133304;stroke:#000" d="m286.56663 105.20664c-12.76717-.26376-49.8197-2.1827-51.81151-3.75379-52.36587-13.23011 23.16979-10.049863 32.78979-10.292701.54709-.02166 7.7286-24.204973 8.33662-24.387825 8.89941-8.046475 17.99457-16.471144 26.36314-16.138052 11.976.476679 22.46398 12.863125 28.76076 18.730875.68671-.152781 1.71474 26.641936 2.2948 26.902157 26.92915 4.867806 82.47392 15.047436 39.82214 18.695056-37.52268-4.75656-51.58961-10.81771-86.55574-9.75572z" id="path6720"/><path style="display:inline;fill-opacity:1;fill-rule:evenodd;fill:#2b1100;opacity:1;stroke-dasharray:none;stroke-linecap:butt;stroke-linejoin:miter;stroke-miterlimit:4;stroke-opacity:0;stroke-width:2.46133304;stroke:#000" d="m282.95415 65.481745s8.61815-11.454644 20.0504-12.114261c7.75206 1.342073 19.30952 10.887357 20.49543 15.180316-7.38705 1.272008-38.98702-1.070962-40.54583-3.066055z" id="path6718"/><path style="display:inline;fill-opacity:1;fill-rule:evenodd;fill:#725d49;opacity:1;stroke-dasharray:none;stroke-linecap:butt;stroke-linejoin:miter;stroke-miterlimit:4;stroke-opacity:0;stroke-width:2.4802506;stroke:#000" d="m262.43945 107.637c-.28781-2.12466.35156-2.33933.40532-2.53311.13488-.48616-9.5989.24655-28.11271-3.88556 13.46239 5.64059 26.41532 5.651 27.70739 6.41867z" id="path6724"/><path style="display:inline;fill-opacity:1;fill-rule:evenodd;fill:#725d49;opacity:1;stroke-dasharray:none;stroke-linecap:butt;stroke-linejoin:miter;stroke-miterlimit:4;stroke-opacity:0;stroke-width:2.47631788;stroke:#000" d="m337.80142 115.41855c-.0437-3.2915-.52116-4.22418-.57496-4.4172-.0633-.22688 1.45627-.22508 7.78564.82453 7.17942 1.19056 17.21679 2.30059 28.08887 3.0222-14.87664 1.14557-33.75657.47045-35.29955.57047z" id="path6726"/><path style="display:inline;fill-opacity:1;fill-rule:evenodd;fill:#4d351f;opacity:1;stroke-dasharray:none;stroke-linecap:butt;stroke-linejoin:miter;stroke-miterlimit:4;stroke-opacity:0;stroke-width:2.46133304;stroke:#000" d="m269.86269 86.507489s23.88975 4.271172 62.45624 4.983466c.31175.0058.97221 4.338654.90062 4.723968-21.35125.960455-54.45144-.420319-65.61616-5.06838-.14937-.06218 2.19706-4.545371 2.2593-4.639054z" id="path6734"/><path style="display:inline;fill-opacity:1;fill-rule:evenodd;fill:#725d49;opacity:1;stroke-dasharray:none;stroke-linecap:butt;stroke-linejoin:miter;stroke-miterlimit:4;stroke-opacity:0;stroke-width:2.40126991;stroke:#000" d="m280.91758 64.77085s8.51388-11.035937 19.80781-11.671442c7.65827 1.293015 19.0759 10.489386 20.24746 14.625423-7.29767 1.225512-38.51531-1.031814-40.05527-2.953981z" id="path6718-0"/></svg>