<svg viewBox="0 0 560 1e3"><path id="path5771" d="m346.23322 215.0979c-2.35682-3.946-20.29304-9.49697-17.17028-9.86339 77.12258-8.49025 65.08099 54.21028 62.45224 113.86458-1.00715 1.55395 14.67881-7.01806 14.91493-6.72548 6.24189 5.90997 13.68788 10.13744 15.67665 12.1274-5.27042 6.82525-14.67074 12.4069-23.97526 17.58172-17.46579 9.7138-32.66097 8.91808-34.7178-.38115-1.24298-10.83476 1.34017-20.78968-2.44377-43.11079-3.79604-22.39256-3.25959-57.42228-14.73671-83.49289z" style="display:inline;fill-opacity:1;fill-rule:evenodd;fill:#000;stroke-dasharray:none;stroke-linecap:butt;stroke-linejoin:miter;stroke-miterlimit:4;stroke-opacity:0;stroke-width:3.09411693;stroke:#000"/><path id="path5773" d="m347.79149 214.93549c-2.23963-3.9037-19.28401-9.39515-16.31653-9.75765 73.2878-8.39922 61.84496 53.62911 59.34691 112.64388-.95706 1.5373 15.32642-5.73903 15.5172-5.51664 5.99987 6.52378 15.33315 10.95816 15.82106 12.23223-20.25342 20.02208-54.69313 32.17996-58.04244 15.64459-1.18117-10.7186 1.27353-20.56679-2.32225-42.64862-3.60729-22.15249-3.09751-56.80667-14.00395-82.59779z" style="display:inline;fill-opacity:1;fill-rule:evenodd;fill:#333;stroke-dasharray:none;stroke-linecap:butt;stroke-linejoin:miter;stroke-miterlimit:4;stroke-opacity:0;stroke-width:3;stroke:#000"/><path id="path5779" d="m408.73169 333.46731c-2.31314-.13438-1.70077-2.797-.38221-2.86979 2.322-.22348 2.32757 2.75956.38221 2.86979z" style="display:inline;fill-opacity:1;fill-rule:evenodd;fill:#c8c8c8;stroke-dasharray:none;stroke-linecap:butt;stroke-linejoin:miter;stroke-miterlimit:4;stroke-opacity:0;stroke-width:3;stroke:#000"/><path id="path5781" d="m414.96632 327.3009c-2.31314-.13438-1.70077-2.797-.38221-2.86979 2.322-.22348 2.32757 2.75956.38221 2.86979z" style="display:inline;fill-opacity:1;fill-rule:evenodd;fill:#c8c8c8;stroke-dasharray:none;stroke-linecap:butt;stroke-linejoin:miter;stroke-miterlimit:4;stroke-opacity:0;stroke-width:3;stroke:#000"/></svg>