<svg viewBox="0 0 560 1e3"><path id="path2704" class="shadow" d="m283.66521 456.38067c-1.54841.73859-1.78928 15.78672-9.24659 11.14886-5.5459 3.1603-10.12915-4.94173-10.42429-8.4126-.25114-2.95343 3.37748-7.20053 3.87403-6.51846 2.14579-.003 16.30971 2.85987 15.79685 3.7822z"/><path id="path2706" class="skin torso" d="m274.36595 467.58332c-3.81452 2.31718-9.64064-2.27902-10.8644-11.68664 5.95334-21.67633 25.49385-8.31185 20.23612.35499-2.87984 4.74713-3.52005 14.37508-9.37172 11.33165z"/><path style="display:inline;fill-opacity:1;fill-rule:evenodd;fill:#000;opacity:1;stroke-dasharray:none;stroke-linecap:butt;stroke-linejoin:miter;stroke-miterlimit:4;stroke-opacity:1;stroke-width:0;stroke:#000" d="m348.04007 404.56705c.8928 1.03783 2.36114 4.19485 2.36114 4.19485-8.19048 4.90102-37.06099 18.24769-49.49598 28.75086-4.31136 3.64157-13.47661 8.29154-16.37051 16.44054-2.5916 7.29773-3.38661 17.01008-9.75403 14.37033-.12708-.0527-.25389-.22936-.38798-.17253-3.64553 1.54503-9.35333-.74065-11.22863-12.26551-2.95293-18.14755-12.84146-17.24873-13.71165-17.80621-12.60056-8.07247-21.3889-19.81687-24.85362-25.1259.0593-.70684 4.38552-10.43066 4.38552-10.43066 30.95156 34.29024 95.73566 8.25021 119.05574 2.04423z" id="path2708"/><path style="display:inline;fill-opacity:1;fill-rule:evenodd;fill:#333;opacity:1;stroke-dasharray:none;stroke-linecap:butt;stroke-linejoin:miter;stroke-miterlimit:4;stroke-opacity:1;stroke-width:0;stroke:#000" d="m348.09137 404.41002c.8928 1.03783 7.65296 10.61427 7.65296 10.61427-8.19048 4.90102-42.72781 14.82827-55.1628 25.33144-4.31136 3.64157-11.26256 9.46273-16.37051 16.44054-.27428.37469-.68811.67278-.81935 1.10672-3.57923 11.83428-8.32513 9.8537-8.89431 9.63462-.17013-.0655-6.10005 2.75363-10.61356-7.80676-.19489-.456-.68412-.47689-1.06552-.9139-12.08963-13.85259-12.89657-16.10688-13.68955-16.7696-11.01462-9.20529-21.8838-23.07051-25.35362-28.3759.0593-.70684 5.26052-10.68066 5.26052-10.68066 29.7895 36.10978 96.86066 8.37521 119.05574 1.41923z" id="path2710"/><path style="display:inline;fill-opacity:1;fill-rule:evenodd;fill:#fff;opacity:1;stroke-dasharray:none;stroke-linecap:butt;stroke-linejoin:miter;stroke-miterlimit:4;stroke-opacity:1;stroke-width:0;stroke:#000" d="m336.64967 423.6121c.60089-.41225 1.13199-.59213 2.54356-1.3377-1.0628-4.12041-4.37123-12.28078-5.0678-13.31985-.7862.0327-1.83855.6871-1.83855.6871 2.88662 6.66143 3.12331 7.97246 4.36279 13.97045z" id="path2712"/><path id="path3251-2" d="m369.70236 252.58602c.23724.8312-2.3266 34.28861-7.13541 46.40011-33.60787-4.288-97.46882-10.54414-125.64215-3.92269-3.9156-19.75388 5.58242-46.42393 6.60561-49.13379 17.34143-11.82315 22.98495-27.37566 33.20506-40.29646-.20578-.10769.98637-.32991 2.81284-.93373-3.68896 22.23095 44.18084 11.81257 51.29891 1.13282 2.65591.76603 5.77773 1.30178 5.77773 1.30178-2.50817 38.73816 13.81431 35.96141 33.07741 45.45196z" style="display:inline;fill-opacity:1;fill-rule:evenodd;fill:#000;opacity:1;stroke-dasharray:none;stroke-linecap:butt;stroke-linejoin:miter;stroke-miterlimit:4;stroke-opacity:1;stroke-width:0;stroke:#000"/><path id="path3253-6" d="m369.72602 252.31519c-.23212 1.79731-3.46179 34.91499-7.47324 46.11753-48.30237-7.27876-103.33663-9.01795-124.34037-4.63187-4.0832-13.06464 5.75425-47.64527 5.75425-47.64527 17.76844-9.12056 22.45836-26.39457 33.04849-40.57226.84544-.17546 1.70483-.38601 2.56536-.63893-4.82898 22.98057 45.03234 14.37734 52.03839 1.01371 1.9144.66913 3.96656.65204 5.47599 1.11851-2.52959 33.39255 5.10091 36.93935 32.93113 45.23858z" style="display:inline;fill-opacity:1;fill-rule:evenodd;fill:#333;opacity:1;stroke-dasharray:none;stroke-linecap:butt;stroke-linejoin:miter;stroke-miterlimit:4;stroke-opacity:1;stroke-width:0;stroke:#000"/></svg>