<svg viewBox="0 0 560 1e3"><path d="m315.34619 121.99106c-.11679-.0465-.42414-.0824-.8126-.11361l-.80776-.0651.804.24813c1.14618.35369.83942.43447-.74523.19624-1.89149-.24868-3.74817-.6578-5.87828-.95729-6.11576.34167-13.2975 1.94976-15.9777 2.98113-.709.0766-1.53853.18442-1.84341.23974-.67495-.55201-1.26258-.84378-.79073-1.61438.0588-.3163.15308-.64383.23373-.91858.0811-.27611.14829-.49894.15173-.60352l.74352-.15989c1.28388-.76027 10.49247-2.40619 15.95379-2.41154 1.50772-.0791 1.94447-.0461 2.79655.21176.55537.16801 1.38732.3822 1.84875.47598.90322.18355.89491.18081 2.98299.98015l1.36581.52284c.0226.0198.71038.27251 1.23922.91028-.14197.17169-1.24762.0844-1.26438.0777z" id="path2604" class="eyebrow_hair"/><path d="m264.1942 120.30943c.0514-.0107 1.33147-.62373 1.41381-.67499 3.47039-1.30241 8.07315.22997 9.74787.91059.55179-.10301 2.25013.65534 2.25013.65534.144.28595.40356.83299.3965 2.29869-.1657.29142-.96713 1.02789-1.63932.62101-.63331-.24131-1.34513-.55189-2.34765-.80044-1.29486-.61011-8.5864-1.06215-9.44043-.70072-.0495.0209-.19738-1.24503-.2081-1.23853.0186-.0107-.19779-1.0658-.17281-1.07095z" id="path2606" class="eyebrow_hair"/></svg>