<svg viewBox="0 0 560 1e3"><path style="baseline-shift:baseline;clip-rule:nonzero;color-interpolation-filters:linearRGB;color-interpolation:sRGB;color-rendering:auto;color:#000;direction:ltr;display:inline;enable-background:accumulate;fill-opacity:1;fill-rule:evenodd;fill:#000;image-rendering:auto;isolation:auto;mix-blend-mode:normal;opacity:1;overflow:visible;shape-rendering:auto;solid-color:#000000;solid-opacity:1;stroke-dasharray:none;stroke-dashoffset:0;stroke-linecap:butt;stroke-linejoin:miter;stroke-miterlimit:4;stroke-opacity:1;stroke-width:3.10294271;stroke:none;visibility:visible;white-space:normal;writing-mode:lr-tb" d="m359.9403 476.94293c4.47143-16.2648.18717-49.70382-9.43197-65.47799.0186 1.15703-124.35967 1.72321-124.95037 2.78441-9.70749 17.43956-14.40332 42.68056-16.74894 57.32172 49.32366 16.4989 146.94772 9.70258 151.13128 5.37186z" id="path4414"/><path style="baseline-shift:baseline;clip-rule:nonzero;color-interpolation-filters:linearRGB;color-interpolation:sRGB;color-rendering:auto;color:#000;direction:ltr;display:inline;enable-background:accumulate;fill-opacity:1;fill-rule:evenodd;fill:#ccb144;image-rendering:auto;isolation:auto;mix-blend-mode:normal;opacity:1;overflow:visible;shape-rendering:auto;solid-color:#000000;solid-opacity:1;stroke-dasharray:none;stroke-dashoffset:0;stroke-linecap:butt;stroke-linejoin:miter;stroke-miterlimit:4;stroke-opacity:1;stroke-width:3.04837847;stroke:none;visibility:visible;white-space:normal;writing-mode:lr-tb" d="m359.11397 475.70015c2.61401-10.59808 1.00376-43.53128-8.43438-65.15378.018 1.15703-124.42671 1.43248-124.91347 2.53441-7.67717 17.37945-13.48069 40.85912-15.55398 57.81322 58.5871 16.53667 146.41105 8.55773 148.9018 4.80615z" id="path4416"/><path id="path2985-7-67-4" class="shadow" d="m329.46037 425.76321c-15.4791 1.19068-42.03653 26.26041-44.60913 30.99635 10.29989-9.14088 29.75951-26.28541 44.60913-30.99635z"/><path id="path2985-7-2-1-9" class="shadow" d="m261.71828 457.6115c-6.81704-9.41592-28.83006-31.99347-34.93819-34.15183 5.05404 5.44075 26.5203 25.35081 34.93819 34.15183z"/></svg>