<svg viewBox="0 0 560 1e3"><path d="m344.51312 107.38376c.8727 2.28794 1.42675 4.10745 1.50148 7.09698.038 1.52112.23165 3.78123-.2945 5.66433-.1963.70255-.86692 11.90911-1.11532 12.64814-.30573.90966-.20283-8.63871-.58994-7.67277-.73765 1.84062-1.62553 3.78444-2.67307 5.83537-.31842.62341-2.97187 12.41028-3.32006 13.05359-.53954.99685 1.23648-9.11679.5925-8.09047-.28456.45351-5.4332 9.51813-5.4332 9.51813-.33828.39312-1.22565 3.13149-1.53685 3.62555-.25045.3976.25059-1.33734-.13124-.95335-.28158.28317-3.79003 5.60764-3.85381 5.85442-.10522.40712-1.5375 3.16481-1.84028 3.50588-.28759.32397.38471-1.85992.0716-1.51277-1.84787 2.04901-4.15205 4.51483-7.06088 7.55243-45.31546-34.53741-33.81788-48.6547-12.58453-56.28729 16.15741-5.80796 24.01684-29.146022 38.26802.16182z" class="hair" id="path4830"/></svg>