<svg viewBox="0 0 560 1e3"><path id="path7113" d="m269.00351 477.05575c-.0244 1.02816-1.31007 2.23881-2.60044 2.65697-.74594.24173-1.60066.13151-2.13525.12252-.85756-.0144-2.08244-1.13712-2.22744-1.54626.22136-1.76158 3.66361-3.49425 6.96313-1.23323z" style="fill:#000"/><path id="path7115" d="m268.63072 477.02361c-.0228.9604-1.10403 1.8971-2.30618 2.2877-.69495.22581-1.49124.12286-1.9893.11445-.79894-.0134-1.78475-.86801-1.91983-1.25019.20622-1.64549 3.14133-3.26399 6.21531-1.15196z" class="areola"/><path id="path7117" d="m263.00749 454.07616c2.04662-3.84205 9.36184-6.35826 10.05926 2.45773.23112.49619-.31185 2.72498-.96455 5.52803-.74749 2.73664-1.34015 5.84796-1.63092 8.94812-.22773 2.428-.29463 4.80776-1.79331 6.3261-1.06593.90554-2.79249 1.2329-4.25952 1.21036-.86206-.0132-2.37019-.0525-2.63447-.25734-1.05189-.81536-1.6493-1.63427-2.52351-2.82753-.10913-.52621.11753-.78883.0701-.98827-.59613-2.50895-.41282-6.27175.35625-10.46765.65957-3.5985 1.78735-7.23141 3.32062-9.92955z" style="fill:#000"/><path id="path7119" d="m263.50751 453.32585c1.83017-3.9274 8.37173-6.49954 8.99539 2.51233.20668.50722-.27886 2.78551-.86253 5.65086-.66844 2.79743-1.44822 5.9258-1.70825 9.09485-.20365 2.48194-.26346 4.91457-1.60363 6.46665-.9532.92566-2.30035 1.22032-3.61222 1.19728-.77089-.0136-2.34435-.001-2.58068-.21099-.94064-.83347-1.42189-1.57854-2.20363-2.79831-.11372-.34994.1051-.80637.0627-1.01023-.53307-2.5647-.14432-6.46316.54341-10.75229.58981-3.67844 1.59831-7.39207 2.96942-10.15015z" class="skin penis"/></svg>