<svg viewBox="0 0 560 1e3"><path style="display:inline;fill-opacity:.39215686;fill-rule:evenodd;fill:#999;opacity:1;stroke-dasharray:none;stroke-linecap:butt;stroke-linejoin:miter;stroke-miterlimit:4;stroke-opacity:1;stroke-width:0;stroke:#000" d="m368.51302 268.50835c.30182 1.05746-.42725 5.27777-2.57344 14.75318-.70306 3.10399-1.95271 6.53521-2.84757 10.91618-.78454-.11985 3.21852 60.08837 2.65942 60.57845-22.09769 19.36975-54.57557 15.99774-54.57557 15.99774-23.62422-15.62578-36.84957-85.18101-37.30229-85.18437-.2954-.002-6.15539 59.17101-25.01319 81.5451-1.21812 1.44525-16.23723-3.82784-18.57337-13.4429-.29929-1.23182 6.8616-61.32849 6.72685-61.91449-1.29943-10.92778-.42352-24.25096 5.11165-42.02949 4.9743-10.52654 23.50764-30.52537 34.58185-44.11998.665-.15749 12.71852-3.49644 15.68055-12.27378 1.72567 2.46645 18.29751 1.62496 21.71735-.25684 1.34395 2.71489 4.86361 6.26147 9.20529 8.66429 6.36588 3.52307 13.60685 5.44494 13.60685 5.44494 1.69803 19.36997 12.50058 48.96044 31.59562 61.32197z" id="path3699"/><path style="display:inline;fill-opacity:.39215686;fill-rule:evenodd;fill:#999;opacity:1;stroke-dasharray:none;stroke-linecap:butt;stroke-linejoin:miter;stroke-miterlimit:4;stroke-opacity:1;stroke-width:0;stroke:#000" d="m348.70505 406.25842c.17594.29463.23456.36287.14343.43358-7.58199 5.88234-28.75619 14.08712-52.70049 35.19948-6.87798 6.06451-12.7957 15.81041-13.00807 16.4538-1.04023 1.75909-1.92047 7.35117-4.50173 9.70959-.97785.89343-3.70051-.0277-4.03805.0431-.91345.19159-2.09488.29968-2.84109.24274-2.38396-.1819-5.58237-2.71336-7.06862-7.83608-2.94705-2.80283-25.83037-38.42104-39.0602-46.51727.11113-.0316.41697-.90137.51991-1.06255.0911-.14259.28025.0854.40697.19488 43.76307 37.81395 58.39812 21.03748 122.03856-6.98626z" id="path2360-8-8-5"/></svg>