<svg viewBox="0 0 560 1e3"><path id="path3778" d="m370.8969 268.8878c2.36849 23.60153 1.75351 51.52091-5.54547 78.55465.0897 2.34411 4.6595 17.11968 7.11537 29.07427-36.77086 9.58655-135.02177 13.96466-153.89353-4.89184 2.433-12.49684 7.69036-32.03475 15.53901-53.11514-2.13048-7.70551 3.57316-12.49737 2.54969-25.90973.40962-35.13389 30.30326-40.0847 52.38713-59.43686.97617-2.02088 2.05999-19.89061-11.85024-27.17009-.63873-.33426 3.66191-3.80977 8.18644-6.21211 9.24713 11.38115 27.34766 3.74775 33.42729-1.52056 1.50252 1.12706 8.39482 5.20658 7.17933 6.00553-25.72677 16.91039-30.9022 28.84774-29.45936 29.06832 3.13994 1.52155 66.54554 33.43249 67.65165 34.25705z" style="display:inline;fill-opacity:1;fill-rule:evenodd;fill:#000;opacity:1;stroke-dasharray:none;stroke-linecap:butt;stroke-linejoin:miter;stroke-miterlimit:4;stroke-opacity:1;stroke-width:0;stroke:#000"/><path id="path3780" d="m364.11286 347.17422c.49582 5.07437 4.52707 17.16139 6.90216 28.43074-31.28229 8.06681-138.10149 14.24686-150.70386-5.06389 1.76466-12.54996 14.32006-47.08252 14.91305-52.03193-3.0755-26.84168-.52105-45.74614 4.01256-70.57209 4.39438-23.68414 15.86738-37.30901 37.69935-41.95594.49229-.51848 3.97915-3.18477 8.45611-5.58711 9.14993 11.38115 27.08296 3.74775 33.09868-1.52056 1.48672 1.12706 17.52471 7.31482 18.05659 8.65718 2.58742.19199 9.57783.93138 12.62329 2.06534 21.32697 11.58453 25.15316 34.74558 21.91064 58.57411 1.82371 35.69041-1.65952 61.28238-6.96857 79.00415z" style="display:inline;fill-opacity:1;fill-rule:evenodd;fill:#fff;opacity:1;stroke-dasharray:none;stroke-linecap:butt;stroke-linejoin:miter;stroke-miterlimit:4;stroke-opacity:1;stroke-width:0;stroke:#000"/><path id="path1774-9" d="m282.94456 458.76549c-.0483.15247-.11284.47208-.19954.90622-.41277 2.06685-1.81439 6.53069-3.87757 8.11265-.26921.20642-1.13559 1.14752-4.57861.28177-.17398-.0437-2.18026 1.1699-4.2783.12449-4.65827-2.32112-6.22252-8.10904-6.31915-8.53686 3.82592 9.08132 8.89939 9.3147 10.40315 7.55401 5.26837 2.79873 7.50839-4.81217 8.85002-8.44228z" style="display:inline;fill-opacity:1;fill-rule:evenodd;fill:#000;opacity:1;stroke-dasharray:none;stroke-linecap:butt;stroke-linejoin:miter;stroke-miterlimit:4;stroke-opacity:1;stroke-width:0;stroke:#000"/><path id="path1758-4-7" d="m298.46108 438.89935c-6.48422 6.26583-11.19704 12.82415-15.33516 19.44716-1.04023 1.75909-1.92047 7.35117-4.50173 9.70959-.97785.89343-3.70051-.0277-4.03805.0431-.91345.19159-2.09488.29968-2.84109.24274-1.3589-.10369-3.10427-.97079-4.62926-2.64607-1.15035-1.26373-2.1753-2.98733-2.81436-5.19001-3.99405-5.27747-10.5589-14.66641-17.49018-23.90539 4.48963 1.85597 9.35646 2.79339 14.73041 2.73225 1.76498-.0201 3.58467-.14788 5.46366-.38622 9.80224 3.87793 21.03947 2.36746 31.45576-.0471z" style="display:inline;fill-opacity:1;fill-rule:evenodd;fill:#afa;opacity:1;stroke-dasharray:none;stroke-linecap:butt;stroke-linejoin:miter;stroke-miterlimit:4;stroke-opacity:1;stroke-width:0;stroke:#000"/><path id="path1764-1-4" d="m282.94456 458.76549c-.0483.15247-.11284.47208-.19954.90622-.41277 2.06685-1.81439 6.53069-3.87757 8.11265-.26921.20642-1.13559 1.14752-4.57861.28177-.17398-.0437-2.18026 1.1699-4.2783.12449-4.65827-2.32112-6.22252-8.10904-6.31915-8.53686 3.82592 9.08132 8.89939 9.3147 10.40315 7.55401 5.26837 2.79873 7.50839-4.81217 8.85002-8.44228z" style="display:inline;fill-opacity:1;fill-rule:evenodd;fill:#000;opacity:1;stroke-dasharray:none;stroke-linecap:butt;stroke-linejoin:miter;stroke-miterlimit:4;stroke-opacity:1;stroke-width:0;stroke:#000"/><path style="display:inline;fill-opacity:1;fill:#fff;stroke-dasharray:none;stroke-linecap:butt;stroke-linejoin:miter;stroke-miterlimit:4;stroke-opacity:1;stroke-width:0;stroke:#83afc8" d="m252.70414 444.58541c10.94342 1.31488 24.01095 1.50229 40.32871.0811-1.56759 2.01272-3.58281 4.56444-5.24245 6.66295-12.30604 1.16431-22.00263 1.20882-29.81942.51362-2.04934-2.61037-3.63449-4.68604-5.26684-7.25767z" id="path1180-5-1-9-7-9-6-5-8"/><path style="display:inline;fill-opacity:1;fill:#fff;stroke-dasharray:none;stroke-linecap:butt;stroke-linejoin:miter;stroke-miterlimit:4;stroke-opacity:1;stroke-width:0;stroke:#83afc8" d="m262.53421 458.18295c6.22871.31514 13.08896.30377 20.72809-.0971-.87505 2.4389-1.64015 4.66739-2.42955 6.53665-5.25319.34928-9.97649.47387-14.24234.41152-1.68576-1.69159-2.0194-4.59693-4.0562-6.85107z" id="path1180-5-1-9-3-1-2-91-4"/><path id="path1676-3-2-5-8-7-5-2" d="m297.45414 247.91914c1.06817 8.18282 5.20354 18.14296 15.25313 31.94492-.77167-.37786-3.7457-1.62192-7.09131-2.873-8.41148-11.46356-11.63651-19.2369-12.36744-24.97006 1.39616-1.35167 2.59495-2.3754 4.20562-4.10186z" style="display:inline;fill-opacity:1;fill:green;stroke-dasharray:none;stroke-linecap:butt;stroke-linejoin:miter;stroke-miterlimit:4;stroke-opacity:1;stroke-width:0;stroke:#83afc8"/><path id="path1676-3-2-8-3-7-3-2-5" d="m291.63695 247.70747c-9.68748-32.70368 33.38952-13.74379 2.13032.50869 37.35696-20.50416 16.84211 31.67022-.15371 3.06208 12.29738 34.8639-33.24126 10.76787-2.75036-1.37591-33.26075 12.92002-7.12735-34.56969.77375-2.19486z" style="display:inline;fill-opacity:1;fill:green;stroke-dasharray:none;stroke-linecap:butt;stroke-linejoin:miter;stroke-miterlimit:4;stroke-opacity:1;stroke-width:0;stroke:#83afc8"/><path id="path1676-3-2-3-3-1-4-0-2" d="m296.81371 248.22009c1.00581 7.25775 4.6769 16.12096 13.4915 28.44723-.66985-.34256-3.24925-1.47482-6.14942-2.61711-7.37688-10.23855-10.2399-17.15578-10.92953-22.24062 1.19105-1.18273 2.21513-2.07705 3.58745-3.5895z" style="display:inline;fill-opacity:1;fill:#afa;stroke-dasharray:none;stroke-linecap:butt;stroke-linejoin:miter;stroke-miterlimit:4;stroke-opacity:1;stroke-width:0;stroke:#83afc8"/><path id="path1676-3-2-8-0-9-1-9-7-2" d="m291.79119 247.97295c-8.69602-29.0621 28.67482-11.82907 1.84373.47236 32.02943-17.77543 14.86 28.22024-.10125 2.71022 10.97057 31.00199-28.57739 9.1951-2.38772-1.24673-28.57213 11.10088-6.50571-30.68838.64524-1.93585z" style="display:inline;fill-opacity:1;fill:#afa;stroke-dasharray:none;stroke-linecap:butt;stroke-linejoin:miter;stroke-miterlimit:4;stroke-opacity:1;stroke-width:0;stroke:#83afc8"/></svg>