<svg viewBox="0 0 560 1e3"><g data-transform="boob" class="scaler_" id="g5134" transform="matrix(1.1899396,0,0,1.1247504,-49.050018,-33.548868)"><path id="path5122" d="m300.62045 270.66918c-3.02356-.27183-8.80223 4.32923-9.23091 3.64118.0.0 3.72621-7.0235 3.65224-7.66249-.0915-.7954-5.57017-3.25531-5.91313-3.82233.0.0 8.84242-1.55928 9.14622-2.18391l2.44979-5.03516s2.38486 4.95986 2.87368 5.74883c.49809.80397 8.71842 1.38977 8.63849 1.84403-.18116 1.02913-5.97066 3.07165-5.81795 3.87156.20124 1.05437 3.09429 7.45321 3.09429 7.45321-.27745.84548-6.09129-3.60291-8.89272-3.85492z" class="areola"/><path id="path5124" class="areola" d="m224.99051 256.76243c-.18624.51081 6.66476 2.31414 6.39664 2.76507-.39287.31094-7.46356 2.51778-7.46356 2.51778-.0323.22035 1.34048 8.06155.75151 8.63979-.18192.0154-5.3791-5.52249-5.51489-5.76182-.3702-.65214-2.78604 7.67772-2.48477 4.95912.41843-3.77659 1.19675-8.47201 1.8404-11.16345.03-.12316.0203-.27785.11592-.34761.48031-.35152 3.04332-1.77143 4.43977-2.7284 2.8743-1.65061 4.15153-2.15198 4.33831-2.04411.26107-.01-2.18768 2.52871-2.41933 3.16363z"/></g></svg>