<svg viewBox="0 0 560 1e3"><path id="path4770" class="hair" d="m332.47767 75.071551c9.84269 13.080543 10.64111 35.195089 9.15997 57.409679-.0767 1.15028 1.3431 16.26618 1.25512 17.41576-.0695.90858-2.69509-6.27807-2.42754-5.40841.0554.18001.0761 1.14037.0761 1.14037.002 1.51776.92007 18.46732.81512 19.50676-.10633 1.0532-2.223-8.79346-2.33146-7.75113-.37651 3.61833.12272 1.6849-.23783 5.11726-1.54613 14.71894-5.40487 18.96425-5.53385 19.01743-.0598.0247-1.14043-7.32742-1.44454-7.61448-.17489-.16508-1.98142 21.54177-2.35996 21.55585-.19556.007-4.06753-24.7688-4.24843-24.90355-.16185-.12056.36936 12.47632-.20174 10.41842-.0891-.32125-10.86368-49.57851-11.86765-91.300491-11.45002-8.911613-9.98389-21.592179 7.17375-26.429001 3.60873-.03083 6.22631 1.326695 8.1347 3.414 2.01315 2.603909 3.35571 5.704468 4.03826 8.411533z"/></svg>