<svg viewBox="0 0 560 1e3"><path style="display:inline;fill-opacity:1;fill:#000;opacity:1" d="m236.73004 270.99741c-.12551 1.89685-.19342 3.79183-.202 5.67824-1.3755 20.25213 4.90182 44.32565 4.90182 44.32565s-6.59593 66.50653-16.58519 92.37518c16.36196-.34408 93.98705-1.86544 126.96167-1.88004-7.11114-21.64025-9.71489-35.91045-8.13823-48.79635 3.06035-25.01194 16.32479-30.16457 23.19237-81.12915-20.00731-23.65544-37.44304-58.20381-37.48946-76.57605-5.0856-1.53654-9.2662-4.20037-11.97165-6.99799-.44453 1.7818-1.99968 15.88708-2.14306 17.33056-12.09829 5.75915-27.87745 3.2969-33.51216-1.00011.88357-3.08367 2.87976-7.82151 6.26875-14.36009-2.95309 1.88608-8.68497 4.12374-12.65394 6.03362-16.12454 21.61213-36.49699 49.48545-38.62892 64.99653z" id="path6926"/><path id="path6928" d="m351.33187 335.10685c-11.50769 26.18542-11.90439 40.83665.72237 77.67654-40.10653 11.44456-64.97545 42.96388-65.74712 45.30165-.78385 1.88787-4.7912 9.82211-7.2881 11.60252-1.21712.86786-4.56426-.37235-4.8162-.39645-.29397-.0276-.77535.50225-2.98817-.0701-5.65546-1.4629-10.22974-5.40448-10.80185-7.35518-18.43111-29.49711-30.68812-46.0732-35.41353-47.26215 10.41108-24.55365 17.56225-93.09868 17.56225-93.09868s-3.06185-14.34037-3.95088-26.87773c-5.84752-48.51279 18.32727-82.76734 38.32548-88.64617.49229-.51848 5.43756-2.25669 9.91452-4.65903 1.01736-.38611 4.59904-8.26172 5.00699-8.02432 6.65758 3.87428 22.60885-.60503 22.93817.0937.97035 2.05878 1.84469 4.05751 2.988 5.79136 1.48672 1.12706 18.23182 7.00546 18.7637 8.34782.0.0 24.76225-4.8947 34.24132 27.54218.0476.44543-.20742 8.29506-.0211 16.76295.11811 5.36806-.97158 11.24597-1.56133 15.83868-4.48396 23.51326-8.18998 44.84432-17.87452 67.43241z" style="display:inline;fill-opacity:1;fill-rule:evenodd;fill:maroon;opacity:1;stroke-dasharray:none;stroke-linecap:butt;stroke-linejoin:miter;stroke-miterlimit:4;stroke-opacity:1;stroke-width:0;stroke:#000"/><path id="path6930" d="m223.46081 414.21749c13.0124 5.20002 31.84447 58.44933 51.86626 56.74714 13.4605-1.86072 15.36894-33.20485 77.69951-58.44767-5.52595-11.9083-11.23731-16.28943-17.77351-27.61382-45.102 11.9464-91.4758 7.08435-96.81614-2.31943.0.0-9.84313 19.91613-14.97612 31.63378z" style="display:inline;fill-opacity:1;fill:#333;stroke-dasharray:none;stroke-linecap:butt;stroke-linejoin:miter;stroke-miterlimit:4;stroke-opacity:1;stroke-width:0;stroke:#000"/><path id="path6932" d="m257.42933 436.58157c.5575-1.06599 6.5423-47.48865 6.58488-47.65285.0.0-24.70711 1.71109-30.75217-6.19629-.14865-.19445-12.79974 37.11247-12.73312 37.19235.063.19141 36.90041 16.65679 36.90041 16.65679z" style="display:inline;fill-opacity:1;fill:#000;opacity:1;stroke-dasharray:none;stroke-linecap:butt;stroke-linejoin:miter;stroke-miterlimit:4;stroke-opacity:1;stroke-width:0;stroke:#000"/><path id="path6934" d="m256.33979 391.23466c-.0664.0413-1.39182-.0733-1.58546-.10885-3.40999-.62801 19.2566-160.50788 24.25915-160.55375.0.0 12.26767-11.59694 15.1958-14.84809-11.66224 14.89533-30.22666 147.63281-30.17154 172.72911-.0426 1.28175-94e-5 2.39529-.0998 2.64799z" style="display:inline;fill-opacity:1;fill:#000;opacity:1;stroke-dasharray:none;stroke-linecap:butt;stroke-linejoin:miter;stroke-miterlimit:4;stroke-opacity:1;stroke-width:0;stroke:#000"/><path id="path6936" d="m256.82347 435.83166c-.005-.12477 6.25247-46.70456 6.29446-46.86401.0.0-21.35284-4.55682-28.81642-7.41863-.2232-.0856-13.35958 38.08968-13.29388 38.16726.0621.18588 35.81584 16.11538 35.81584 16.11538z" style="display:inline;fill-opacity:1;fill:maroon;opacity:1;stroke-dasharray:none;stroke-linecap:butt;stroke-linejoin:miter;stroke-miterlimit:4;stroke-opacity:1;stroke-width:0;stroke:#000"/><path id="path6938" d="m255.95357 390.4496c-.0664.0413-1.76682-.0468-1.96046-.0825-3.40999-.62801 19.2566-160.40253 24.25915-160.4484.0.0 14.23398-13.51852 15.68248-14.44775-15.56688 24.4846-34.69807 173.01647-30.414 174.96778z" style="display:inline;fill-opacity:1;fill:maroon;opacity:1;stroke-dasharray:none;stroke-linecap:butt;stroke-linejoin:miter;stroke-miterlimit:4;stroke-opacity:1;stroke-width:0;stroke:#000"/><path id="path6940" d="m258.89163 437.11081c.007-.14856 4.42434-52.00177 4.3621-52.19162.0.0 61.49277 5.11776 80.86019-1.05635.29791-.095 10.57838 30.24427 10.481 30.33664-.0921.22131-95.70329 22.91133-95.70329 22.91133z" style="display:inline;fill-opacity:1;fill:#000;opacity:1;stroke-dasharray:none;stroke-linecap:butt;stroke-linejoin:miter;stroke-miterlimit:4;stroke-opacity:1;stroke-width:0;stroke:#000"/><path id="path6942" d="m260.02434 435.69863c.007-.14856 4.18979-50.58257 4.12661-50.77211-.29391-.88173 57.84496-2.06344 79.3134-1.93449.31268.002 10.31321 30.41032 10.21583 30.50269-.0921.22131-93.65584 22.20391-93.65584 22.20391z" style="display:inline;fill-opacity:1;fill:maroon;opacity:1;stroke-dasharray:none;stroke-linecap:butt;stroke-linejoin:miter;stroke-miterlimit:4;stroke-opacity:1;stroke-width:0;stroke:#000"/><path style="display:inline;fill-opacity:1;fill-rule:nonzero;fill:#ff0;opacity:1;stroke-dasharray:none;stroke-linecap:butt;stroke-linejoin:round;stroke-miterlimit:4;stroke-opacity:1;stroke-width:0;stroke:#000" d="m288.03821 262.88906a2.8059697 3.1566737.0 01-2.80597 3.15668 2.8059697 3.1566737.0 01-2.80597-3.15668 2.8059697 3.1566737.0 012.80597-3.15668 2.8059697 3.1566737.0 012.80597 3.15668z" id="path6944"/><path id="path6946" d="m282.87438 204.3332c-4.15702 35.00904 28.81028 105.83396 55.46077 137.16472.29472.34648-8.25873 1.33772-8.89213 1.43009-13.0257-10.2681-55.01915-89.32037-54.59562-135.90769 1.15055-1.56976 4.33512-1.93428 8.02698-2.68712z" style="display:inline;fill-opacity:1;fill:#000;opacity:1;stroke-dasharray:none;stroke-linecap:butt;stroke-linejoin:miter;stroke-miterlimit:4;stroke-opacity:1;stroke-width:0;stroke:#000"/><path style="display:inline;fill-opacity:1;fill-rule:nonzero;fill:#ff0;opacity:1;stroke-dasharray:none;stroke-linecap:butt;stroke-linejoin:round;stroke-miterlimit:4;stroke-opacity:1;stroke-width:0;stroke:#000" d="m282.89194 297.67418a2.8059697 3.1566737.0 01-2.80597 3.15667 2.8059697 3.1566737.0 01-2.80597-3.15667 2.8059697 3.1566737.0 012.80597-3.15668 2.8059697 3.1566737.0 012.80597 3.15668z" id="path6948"/><path id="path6950" class="shadow" d="m329.87921 425.70416c-15.4791 1.19068-42.03653 26.26041-44.60913 30.99635 10.29989-9.14088 29.75951-26.28541 44.60913-30.99635z"/><path id="path6952" class="shadow" d="m262.13712 457.55245c-6.81704-9.41592-28.83006-31.99347-34.93819-34.15183 5.05404 5.44075 26.5203 25.35081 34.93819 34.15183z"/><path id="path6954" class="shadow" d="m329.8875 425.70175c-15.4791 1.19068-42.03653 26.26041-44.60913 30.99635 10.29989-9.14088 29.75951-26.28541 44.60913-30.99635z"/><path id="path6956" class="shadow" d="m262.14541 457.55004c-6.81704-9.41592-28.83006-31.99347-34.93819-34.15183 5.05404 5.44075 26.5203 25.35081 34.93819 34.15183z"/><path id="path6958" d="m294.31526 216.16697c-.007-.15238 3.8945-21.33661 3.96139-21.53134.0.0-5.93416-2.77563-6.07642-2.58113-.86438 1.18176-2.48505 4.21861-3.88833 5.92157.099.227 6.00336 18.1909 6.00336 18.1909z" style="display:inline;fill-opacity:1;fill:#000;opacity:1;stroke-dasharray:none;stroke-linecap:butt;stroke-linejoin:miter;stroke-miterlimit:4;stroke-opacity:1;stroke-width:0;stroke:#000"/><path id="path6960" d="m294.46091 215.07996c-.007-.14941 3.74282-19.86681 3.8078-20.05775.0.0-6.17161-3.31203-6.30981-3.12132-.83967 1.15876-2.41401 4.13649-3.77718 5.8063.0962.22258 6.27919 17.37277 6.27919 17.37277z" style="display:inline;fill-opacity:1;fill:maroon;opacity:1;stroke-dasharray:none;stroke-linecap:butt;stroke-linejoin:miter;stroke-miterlimit:4;stroke-opacity:1;stroke-width:0;stroke:#000"/><path id="path6962" d="m294.22138 216.19261c.007-.15238 4.17282-21.28705 4.10593-21.48178.0.0 16.59041-3.30688 16.73267-3.11238.86438 1.18176 2.6413 5.37486 3.07583 6.04657-.099.227-23.91443 18.54759-23.91443 18.54759z" style="display:inline;fill-opacity:1;fill:#000;opacity:1;stroke-dasharray:none;stroke-linecap:butt;stroke-linejoin:miter;stroke-miterlimit:4;stroke-opacity:1;stroke-width:0;stroke:#000"/><path id="path6964" d="m294.38015 215.19253c.007-.14856 3.95924-19.97917 3.89334-20.16902.0.0 16.12396-3.70578 16.26413-3.51616.85164 1.15214 2.60238 5.24014 3.03051 5.89501-.0975.22131-23.18798 17.79017-23.18798 17.79017z" style="display:inline;fill-opacity:1;fill:maroon;opacity:1;stroke-dasharray:none;stroke-linecap:butt;stroke-linejoin:miter;stroke-miterlimit:4;stroke-opacity:1;stroke-width:0;stroke:#000"/><path id="path6966" d="m282.13394 203.4582c-4.08655 35.00904 28.81336 107.20896 55.01204 138.53972.28973.34648-5.90686.83772-6.52953.93009-12.80487-10.2681-55.37663-89.38287-54.96028-135.97019 1.13104-1.56976 2.8485-2.74678 6.47777-3.49962z" style="display:inline;fill-opacity:1;fill:#4d351f;opacity:1;stroke-dasharray:none;stroke-linecap:butt;stroke-linejoin:miter;stroke-miterlimit:4;stroke-opacity:1;stroke-width:0;stroke:#000"/><path id="path6968" d="m284.51487 205.20924c.0133-.14802.991-3.76164 1.04686-3.94624.0.0-10.13556 2.84037-10.14148 3.07346-.008.30956-.81107 2.93146-.7689 3.0294.0242.22566 9.86356-2.15662 9.86356-2.15662z" style="display:inline;fill-opacity:1;fill:#00001a;opacity:1;stroke-dasharray:none;stroke-linecap:butt;stroke-linejoin:miter;stroke-miterlimit:4;stroke-opacity:1;stroke-width:0;stroke:#000"/><path style="display:inline;fill-opacity:1;fill-rule:nonzero;fill:#ff0;opacity:1;stroke-dasharray:none;stroke-linecap:butt;stroke-linejoin:round;stroke-miterlimit:4;stroke-opacity:1;stroke-width:0;stroke:#000" d="m296.15903 227.39313a2.8059697 3.1566737.0 01-2.80597 3.15668 2.8059697 3.1566737.0 01-2.80597-3.15668 2.8059697 3.1566737.0 012.80597-3.15668 2.8059697 3.1566737.0 012.80597 3.15668z" id="path6970"/><path style="display:inline;fill-opacity:1;fill-rule:nonzero;fill:#ff0;opacity:1;stroke-dasharray:none;stroke-linecap:butt;stroke-linejoin:round;stroke-miterlimit:4;stroke-opacity:1;stroke-width:0;stroke:#000" d="m277.43213 332.06503a2.8059697 3.1566737.0 01-2.80597 3.15668 2.8059697 3.1566737.0 01-2.80597-3.15668 2.8059697 3.1566737.0 012.80597-3.15668 2.8059697 3.1566737.0 012.80597 3.15668z" id="path6972"/><path id="path6974" d="m238.63192 351.77189c.54144-4.31831 2.15796-15.32933 1.79316-15.52251.0.0 34.26679 17.07865 109.16745 3.68119.44589-.0798-4.55439 15.48094-5.17706 15.58348-14.57264 6.85213-94.70945 9.51229-105.78358-3.74216z" style="display:inline;fill-opacity:1;fill:#000;opacity:1;stroke-dasharray:none;stroke-linecap:butt;stroke-linejoin:miter;stroke-miterlimit:4;stroke-opacity:1;stroke-width:0;stroke:#000"/><path id="path6976" d="m238.36676 350.88593c.54144-3.88977 1.89279-13.3135 1.52799-13.48751.0.0 34.50867 15.2958 109.40933 3.22788.44589-.0719-4.977 14.44279-4.977 14.44279-19.95115 6.77325-94.88622 7.75593-105.96035-4.18316z" style="display:inline;fill-opacity:1;fill:#4d351f;opacity:1;stroke-dasharray:none;stroke-linecap:butt;stroke-linejoin:miter;stroke-miterlimit:4;stroke-opacity:1;stroke-width:0;stroke:#000"/><path style="display:inline;fill-opacity:1;fill-rule:nonzero;fill:#ff0;opacity:1;stroke-dasharray:none;stroke-linecap:butt;stroke-linejoin:round;stroke-miterlimit:4;stroke-opacity:1;stroke-width:0;stroke:#000" d="m274.98457 344.74372c-.44018 5.33776-.84034 10.10475-1.37916 16.26851-.56855-.0469-7.79095-.21827-7.74241-.63754.0138-.11883-.0823-1.78528.3093-1.83621.42235-.055 5.98947.7961 5.97346.21441-.012-.43819.74182-9.38815.92382-11.59513.0342-.41441-6.21555-.6029-6.21375-.96027.009-1.84868.13101-2.13256.44377-2.28414 5.00728.41295 7.68886.2458 7.68499.83037z" id="path6978"/><path style="display:inline;fill-opacity:1;fill-rule:nonzero;fill:#ff0;opacity:1;stroke-dasharray:none;stroke-linecap:butt;stroke-linejoin:round;stroke-miterlimit:4;stroke-opacity:1;stroke-width:0;stroke:#000" d="m263.09859 343.67151c-.43629 5.33807-.81905 10.10649-1.2928 16.27559.56856.047 7.72222 1.05541 7.74272.63384.006-.11948.37238-1.74795-.006-1.86207-.40773-.12311-6.03912-.19148-5.92845-.76277.0833-.43036.79938-9.38342.97979-11.59054.0337-.41446 6.23068.41866 6.28717.0661.29266-1.8254.21856-2.12538-.0653-2.32593-5.00758-.40933-7.62599-1.0116-7.71752-.43426z" id="path6980"/><path id="path6982" d="m284.63086 231.65234c-.0165-.008-.0319-.004-.0449.01-.58358.62589-3.38749 2.94487-5.86328 5.07227.96283 3.23986 2.00965 7.26121 3.2539 10.24609.58358-.62589 3.38749-2.94487 5.86328-5.07227-1.06398-3.26131-1.73611-6.93046-3.20898-10.25586zm-.41602 1.57032c.62964 2.61253 1.88016 5.41417 2.43164 8.17578-.16042.15084-3.5544 3.03827-4.29882 4.02148-.62925-2.61242-1.88026-5.41468-2.43164-8.17578.16042-.15084 3.5544-3.03827 4.29882-4.02148z" style="display:inline;fill-opacity:1;fill-rule:nonzero;fill:#ff0;opacity:1;stroke-dasharray:none;stroke-linecap:butt;stroke-linejoin:round;stroke-miterlimit:4;stroke-opacity:1;stroke-width:0;stroke:#000"/><path style="display:inline;fill-opacity:1;fill-rule:nonzero;fill:#ff0;opacity:1;stroke-dasharray:none;stroke-linecap:butt;stroke-linejoin:round;stroke-miterlimit:4;stroke-opacity:1;stroke-width:0;stroke:#000" d="m327.91317 341.63787c.55534-.381 1.09416-.7513 1.63156-1.12166.0768-.053 2.29525 2.45246 2.3856 2.39738.82036-.50012 1.68987-1.00563 2.59683-1.63796.0794-.0554-1.99444-2.83092-1.91405-2.88702.47249-.32974.96234-.67256 1.47756-1.03417-.33457-.46202-4.40448-6.41234-4.55646-6.29119-.0431.0341-.80721.27648-.61226.61072.21024.36054 3.65411 4.80834 3.39708 4.90738-.1936.0746-3.5948 2.42707-4.43567 3.00394-.15776.1085-3.6972-5.03263-3.84825-4.96244-.78373.36436-.83731.52026-.72891.80863 2.94707 4.06863 4.35972 6.32245 4.60695 6.2064z" id="path6984"/><path style="display:inline;fill-opacity:1;fill-rule:evenodd;fill:#000;opacity:1;stroke-dasharray:none;stroke-linecap:butt;stroke-linejoin:miter;stroke-miterlimit:4;stroke-opacity:1;stroke-width:0;stroke:#000" d="m282.45842 458.56662c-.27835.87834-1.09442 7.30349-3.59097 9.21774-.26922.20641-1.13559 1.14752-4.57861.28177-.17398-.0437-1.37228.71664-3.61539.0361-5.82941-1.76869-6.22252-8.10904-6.31915-8.53686 8.23205-5.09165 11.4291-4.00072 18.10412-.99875z" id="path6986"/><path style="display:inline;fill-opacity:1;fill-rule:evenodd;fill:#333;opacity:1;stroke-dasharray:none;stroke-linecap:butt;stroke-linejoin:miter;stroke-miterlimit:4;stroke-opacity:1;stroke-width:0;stroke:#000" d="m282.65569 458.4011c-.78318 1.88787-2.10206 7.06063-4.59684 8.84104-1.21608.86786-3.67141-.009-3.92314-.0331-.29372-.0276-.96753.96577-3.15689.31564-4.33861-1.28834-5.1633-4.97917-6.6404-7.92987 7.24395-6.87766 11.19968-9.59173 18.31727-1.19371z" id="path6988"/><path id="path6990" d="m294.61918 212.22372c-.007-.12767 3.40968-15.95979 3.4731-16.12296.0.0-5.12378-2.7841-5.25865-2.62114-.45775.5531-2.1335 1.22971-2.47098 1.71032-.21864.31136-.42508 2.47695-.77782 3.3137.0939.19018 5.03435 13.72008 5.03435 13.72008z" style="display:inline;fill-opacity:1;fill:#00001a;opacity:1;stroke-dasharray:none;stroke-linecap:butt;stroke-linejoin:miter;stroke-miterlimit:4;stroke-opacity:1;stroke-width:0;stroke:#000"/><path id="path6992" d="m294.54036 212.31991c.007-.1269 3.35575-15.9674 3.29143-16.12964.0.0 14.27546-3.08395 14.41225-2.92192.38007.45021 2.74166 1.19411 2.97606 1.43523.22717.23367-.62023 3.29838-.39347 3.60207-.0952.18912-20.28627 14.01426-20.28627 14.01426z" style="display:inline;fill-opacity:1;fill:#00001a;opacity:1;stroke-dasharray:none;stroke-linecap:butt;stroke-linejoin:miter;stroke-miterlimit:4;stroke-opacity:1;stroke-width:0;stroke:#000"/><path id="path6994" d="m321.73469 205.93856c-.0135-.25315-2.19351-6.61269-2.32164-6.93919.0.0 28.25558 7.57122 28.23428 7.96573-.0279.52399 1.81929 5.16395 1.68381 5.31746-.10544.37372-27.59656-6.34401-27.59656-6.34401z" style="display:inline;fill-opacity:1;fill:#00001a;opacity:1;stroke-dasharray:none;stroke-linecap:butt;stroke-linejoin:miter;stroke-miterlimit:4;stroke-opacity:1;stroke-width:0;stroke:#000"/><path style="display:inline;fill-opacity:1;fill-rule:nonzero;fill:#ff0;opacity:1;stroke-dasharray:none;stroke-linecap:butt;stroke-linejoin:round;stroke-miterlimit:4;stroke-opacity:1;stroke-width:0;stroke:#000" d="m293.35986 197.33725a1.5052046 2.2002876.0 01-1.5052 2.20029 1.5052046 2.2002876.0 01-1.50521-2.20029 1.5052046 2.2002876.0 011.50521-2.20029 1.5052046 2.2002876.0 011.5052 2.20029z" id="path6996"/><path style="display:inline;fill-opacity:1;fill-rule:nonzero;fill:#ff0;opacity:1;stroke-dasharray:none;stroke-linecap:butt;stroke-linejoin:round;stroke-miterlimit:4;stroke-opacity:1;stroke-width:0;stroke:#000" d="m312.19272 197.49996a1.5052046 2.2002876.0 01-1.5052 2.20029 1.5052046 2.2002876.0 01-1.50521-2.20029 1.5052046 2.2002876.0 011.50521-2.20029 1.5052046 2.2002876.0 011.5052 2.20029z" id="path6998"/><path style="display:inline;fill-opacity:1;fill-rule:nonzero;fill:#ff0;opacity:1;stroke-dasharray:none;stroke-linecap:butt;stroke-linejoin:round;stroke-miterlimit:4;stroke-opacity:1;stroke-width:0;stroke:#000" d="m345.49508 207.99597a1.5052046 1.3164052.0 01-1.5052 1.3164 1.5052046 1.3164052.0 01-1.50521-1.3164 1.5052046 1.3164052.0 011.50521-1.31641 1.5052046 1.3164052.0 011.5052 1.31641z" id="path7000"/><path style="display:inline;fill-opacity:1;fill-rule:nonzero;fill:#ff0;opacity:1;stroke-dasharray:none;stroke-linecap:butt;stroke-linejoin:round;stroke-miterlimit:4;stroke-opacity:1;stroke-width:0;stroke:#000" d="m278.69108 205.03516a1.5052046 1.3164052.0 01-1.5052 1.3164 1.5052046 1.3164052.0 01-1.50521-1.3164 1.5052046 1.3164052.0 011.50521-1.31641 1.5052046 1.3164052.0 011.5052 1.31641z" id="path7002"/></svg>