<svg viewBox="0 0 560 1e3"><path id="path2480-0" d="m350.12931 407.62791c8.20773 3.77777 44.35738 25.44654 32.74036 76.90474-7.65858-3.48945-10.20583-13.26006-10.20583-13.26006-7.73135-16.84961-23.08925-47.00857-21.13047-60.16535.0246-.16538-1.56383-3.32192-1.40406-3.47933z" style="display:inline;fill-opacity:1;fill-rule:evenodd;fill:#000;stroke-dasharray:none;stroke-linecap:butt;stroke-linejoin:miter;stroke-miterlimit:4;stroke-opacity:0;stroke-width:3;stroke:#000"/><path id="path2478" d="m349.37494 406.96372c.22265.0924.46533.23825.75647.37712 1.00485.47929 2.31731 1.34889 3.84105 2.57257 11.3192 9.09023 34.29684 37.72015 29.43258 71.03704-.18129 1.24172-.4043 2.49053-.67137 3.74568-10.09609-4.67696-12.23183-5.05066-12.23183-5.05066-4.24176-11.60618-24.29363-68.45386-21.4806-72.59506.0221-.0326.33583-.0799.3537-.0867z" style="display:inline;fill-opacity:1;fill-rule:evenodd;fill:#8aa7ff;stroke-dasharray:none;stroke-linecap:butt;stroke-linejoin:miter;stroke-miterlimit:4;stroke-opacity:0;stroke-width:3;stroke:#000"/><path id="path2480" d="m367.49686 408.5399c6.46833 2.46951 41.34501 11.20559 48.55204 57.12709-8.31794-1.28145-13.91264-1.31579-13.91264-1.31579-12.0116-14.12108-34.72462-40.70723-36.40773-53.90211-.0212-.16584 1.65724-1.71434 1.76833-1.90919z" style="display:inline;fill-opacity:1;fill-rule:evenodd;fill:#517cd3;stroke-dasharray:none;stroke-linecap:butt;stroke-linejoin:miter;stroke-miterlimit:4;stroke-opacity:0;stroke-width:3;stroke:#000" transform="rotate(15.737227,358.78205,354.98403)"/></svg>