<svg viewBox="0 0 560 1e3"><path id="path3601-5" d="m368.91886 268.56519c-.49013 3.70196-2.19006 20.25106-8.58587 38.58984-6.44789 18.48806-14.13438 29.53457-15.05247 30.82769-7.01585 12.29816-11.27609 15.00718-12.31553 25.97723-.13188 8.27894.29432 7.62694 2.1165 14.36989-31.94095 6.94181-82.0658 13.8184-94.98514-5.49235 2.46798-12.49684 3.00606-27.9245 3.1798-30.79865 1.30919-21.66848-4.90712-34.9992-5.81851-47.53656-3.45748-53.10898 15.30541-76.48091 39.03314-88.52117.50468-.51848 5.57433-2.25669 10.16389-4.65903 9.02652 9.87855 25.54415 3.12903 31.71118-2.13928 1.52411 1.12706 17.27618 7.00546 17.82143 8.34782 37.00618 6.18852 32.76994 46.2496 32.73158 61.03457z" style="display:inline;fill-opacity:1;fill-rule:evenodd;fill:#000;opacity:1;stroke-dasharray:none;stroke-linecap:butt;stroke-linejoin:miter;stroke-miterlimit:4;stroke-opacity:1;stroke-width:0;stroke:#000"/><path id="path3601" d="m368.47602 268.56519c-.47811 3.70196-3.34339 20.42784-9.58229 38.76662-6.28969 18.48806-13.96004 29.35779-14.85561 30.65091-6.84371 12.29816-10.99943 15.00718-12.01336 25.97723-.12865 8.27894.2871 7.62694 2.06456 14.36989-31.15729 6.94181-80.05234 13.8184-92.65471-5.49235 2.40743-12.49684 2.93231-27.9245 3.10178-30.79865 1.27707-21.66848-4.78672-34.9992-5.67575-47.53656-3.37265-53.10898 12.68818-77.71835 38.07548-88.52117.49229-.51848 5.43756-2.25669 9.91452-4.65903 9.14993 11.38115 24.91744 3.12903 30.93316-2.13928 1.48672 1.12706 18.23182 7.00546 18.7637 8.34782 42.13364-2.11999 37.31157 47.48704 31.92852 61.03457z" style="display:inline;fill-opacity:1;fill-rule:evenodd;fill:#222a12;opacity:1;stroke-dasharray:none;stroke-linecap:butt;stroke-linejoin:miter;stroke-miterlimit:4;stroke-opacity:1;stroke-width:0;stroke:#000"/><path style="display:inline;fill-opacity:1;fill-rule:evenodd;fill:#000;opacity:1;stroke-dasharray:none;stroke-linecap:butt;stroke-linejoin:miter;stroke-miterlimit:4;stroke-opacity:1;stroke-width:0;stroke:#000" d="m348.04267 404.56575c.8928 1.03783 2.36114 4.19485 2.36114 4.19485-8.19048 4.90102-37.06099 18.24769-49.49598 28.75086-4.31136 3.64157-13.47661 8.29154-16.37051 16.44054-2.5916 7.29773-3.38661 16.96588-9.75403 14.32613-.12708-.0527-.25389-.22936-.38798-.17253-3.64553 1.54503-9.35333-.69645-11.22863-12.22131-2.95293-18.14755-12.84146-17.24873-13.71165-17.80621-12.60056-8.07247-21.3889-19.81687-24.85362-25.1259.0593-.70684 4.38552-10.43066 4.38552-10.43066 30.95156 34.29024 95.73566 8.25021 119.05574 2.04423z" id="path3581-6-4-1"/><path style="display:inline;fill-opacity:1;fill-rule:evenodd;fill:#222a12;opacity:1;stroke-dasharray:none;stroke-linecap:butt;stroke-linejoin:miter;stroke-miterlimit:4;stroke-opacity:1;stroke-width:0;stroke:#000" d="m348.09397 404.40872c.8928 1.03783 6.28792 11.93792 6.28792 11.93792-8.19048 4.90102-41.36277 13.50462-53.79776 24.00779-4.31136 3.64157-11.26256 9.46273-16.37051 16.44054-.27428.37469-.68811.67278-.81935 1.10672-3.57923 11.83428-8.32513 9.8537-8.89431 9.63462-.17013-.0655-6.10005 2.79782-10.61356-7.76257-.19489-.456-.68412-.47689-1.06552-.9139-12.08963-13.85259-12.81936-17.38131-13.68955-17.93879-12.60056-8.07247-21.8889-21.94187-25.35362-27.2509.0593-.70684 5.26052-10.68066 5.26052-10.68066 29.7895 36.10978 96.86066 8.37521 119.05574 1.41923z" id="path3581-6-5"/></svg>