<svg viewBox="0 0 560 1e3"><path id="path1773" class="hair" d="m344.6 100.2c13.5 72.4.25 2.25-20.25 39.05-1.57733 1.50875-40.53886 6.77557-53.93007 19.24086-6.13531 5.71109 6.64479 24.24643 6.8019 24.54493-17.82219-10.14694-36.96615-27.30495-30.03016-54.70927C256.25087 92.533359 281.27441 57.453114 308.8 63.4c33.3 7.2 33.3 19.5 35.8 36.8"/><path id="path1773-0" class="hair" d="m344.6 100.2c13.5 72.4.25 2.25-20.25 39.05-1.57733 1.50875-40.53886 6.77557-53.93007 19.24086-6.13531 5.71109 6.64479 24.24643 6.8019 24.54493-17.82219-10.14694-36.96615-27.30495-30.03016-54.70927 9.0592-35.793159 34.08274-70.873404 61.60833-64.926518 33.3 7.2 33.3 19.5 35.8 36.799998"/></svg>