<svg viewBox="0 0 560 1e3"><path style="display:inline;fill-opacity:1;fill-rule:nonzero;fill:#000;opacity:1;stroke-dasharray:none;stroke-linecap:butt;stroke-linejoin:miter;stroke-miterlimit:4;stroke-opacity:0;stroke-width:2.49378181;stroke:#000" d="m346.23354 145.63979c-.34666-1.06752-15.52249 34.78786-17.49539 36.25027-2.77552 2.05735-8.32727 5.8526-11.14383 3.21543-2.27691-2.13193 8.01881-58.70029 7.82685-59.23158-.84895-2.34951-29.76167-39.444686-42.86774-36.364832-8.7081 2.046354-20.24267 19.867962-18.43828 31.859592.0.0 1.61491 8.1466 1.57217 8.89547-.14118 2.47236-2.09447 17.96581-2.32549 16.64856-.0693-.39448 3.70229 30.47293 22.33654 38.64035.0113.45077 13.13651-.40044 26.48303-8.51655 7.8468-4.7717 28.80392-29.81044 34.18361-40.81631 2.66894 34.28452 21.65401 89.60848 7.7249 93.85947-12.88631 6.18634-88.30268 9.94543-105.29684-.17698-6.68813-8.16891 7.30688-101.00748 7.27974-101.12268-.21639-.94005.18431-48.096343 40.03484-54.030492 45.43365-5.835919 52.47089 56.449212 50.12589 70.890282z" id="path2154-9"/><path style="display:inline;fill-opacity:1;fill-rule:nonzero;fill:#ececec;opacity:1;stroke-dasharray:none;stroke-linecap:butt;stroke-linejoin:miter;stroke-miterlimit:4;stroke-opacity:0;stroke-width:2.46133304;stroke:#000" d="m344.93995 145.51461c-.33912-1.06457-15.18449 34.57515-17.11442 36.02286-2.71508 2.03667-6.6786 5.79843-9.43382 3.15997-2.22734-2.13296 8.20488-57.9424 8.01709-58.47233-.83046-2.34342-30.94162-39.894677-43.76231-36.884806-8.51847 1.999853-20.83074 19.868306-19.06564 31.817826.0.0 1.50812 8.55944 1.46629 9.305-.1381 2.46145-1.38067 17.26861-1.60666 15.95585-.0677-.39313 4.05399 30.36394 22.28247 38.57857.011.44892 12.85047-.34152 25.90636-8.3656 7.67594-4.71759 28.1767-29.56055 33.43925-40.49708 2.61083 34.15322 21.18247 89.32926 7.55669 93.5018-12.60572 6.10436-86.37985 9.51899-103.00397-.63533-6.54248-8.16401 7.14778-100.55447 7.12122-100.6693-.21167-.93708.1803-47.895011 39.16307-53.630671 44.44431-5.613497 51.32832 56.442621 49.03438 70.813241z" id="path2154"/><path style="display:inline;fill-opacity:1;fill-rule:evenodd;fill:#ececec;opacity:1;stroke-dasharray:none;stroke-linecap:butt;stroke-linejoin:miter;stroke-miterlimit:4;stroke-opacity:0;stroke-width:3;stroke:#000" d="m264.92645 130.94398c-.50379.16864-3.84726-23.50953-.17233-33.239681 3.34237-8.849586 9.71263-13.476798 11.43851-14.663555 2.29582-1.578667 24.5619-14.636429 43.91259-3.132662 15.81173 9.399898 14.81653 33.965348 14.89595 34.482778.081.52745.0636 8.31276-1.02578 15.32456-4.24385-1.19221-11.9324 5.34041-17.7584 3.96874-2.11641-8.77407-18.62381-13.985-30.09892 2.27667-9.78353-12.70689-20.77518-11.48166-21.19162-5.01685z" id="path2156"/><path style="display:inline;fill-opacity:1;fill-rule:evenodd;fill:#000;opacity:1;stroke-dasharray:none;stroke-linecap:butt;stroke-linejoin:miter;stroke-miterlimit:4;stroke-opacity:0;stroke-width:2.92175102;stroke:#000" d="m338.31494 136.00984c-12.4689-18.47322-24.9661-20.78645-51.42889-21.27926-30.84305-.57438-26.87251 14.11475-27.73407 11.84508.0364-6.33837 4.80245-14.08291 4.72384-28.058251-.0485-8.628225 15.22144-55.752482 47.29991-80.205161 4.87211 34.649261 26.64555 73.454024 25.74908 84.021862-1.15758 13.64586 2.65753 25.58396 1.39013 33.67573z" id="path2160-0"/><path style="display:inline;fill-opacity:1;fill-rule:evenodd;fill:#ececec;opacity:1;stroke-dasharray:none;stroke-linecap:butt;stroke-linejoin:miter;stroke-miterlimit:4;stroke-opacity:0;stroke-width:2.89074636;stroke:#000" d="m340.09823 142.92458c-12.18384-18.50631-27.15912-25.60519-53.01696-26.09889-30.13795-.57541-28.33101 17.5048-29.17286 15.23108.0355-6.34973 2.88388-18.47177 5.65225-32.181662 1.85267-9.174959 16.78451-55.271086 47.25501-79.640439 4.76074 34.71132 24.30906 69.335344 26.54232 84.349441 2.01735 13.5626 3.97867 30.23421 2.74024 38.34047z" id="path2160"/><path style="display:inline;fill-opacity:1;fill-rule:evenodd;fill:#ececec;opacity:1;stroke-dasharray:none;stroke-linecap:butt;stroke-linejoin:miter;stroke-miterlimit:4;stroke-opacity:0;stroke-width:2.88784504;stroke:#000" d="m284.42142 192.41542c-7.37148-6.09318-32.74787-10.76363-24.36783-58.4992.13249-.75471 4.60337-1.16672 4.75074-1.94331 1.42316 9.35859 17.20549 5.50571 21.5887-2.02918 12.96265 15.75319 35.76947 1.56721 35.76947 1.56721s6.02633-3.22392 6.4754-1.6595c1.64885 5.74398-.18284 24.19026.39797 32.36738-11.51503 29.06344-37.89204 34.21479-44.61445 30.1966z" id="path2162"/></svg>