<svg viewBox="0 0 560 1e3"><path style="display:inline;fill-opacity:1;fill-rule:evenodd;fill:#000;opacity:1;stroke-dasharray:none;stroke-linecap:butt;stroke-linejoin:miter;stroke-miterlimit:4;stroke-opacity:1;stroke-width:0;stroke:#000" d="m368.45236 268.83602c.40069 1.40387.82872 12.89967-6.36035 37.77919-3.2166 11.13183-8.87972 20.3911-13.08354 26.39068-8.39212 23.38802-6.09833 60.8984 1.54549 78.42531.0.0-53.19331 3.63947-64.70253 31.97684-2.06147 4.01155-2.1084 11.81811-3.46792 16.10443-.27859.87834-1.00697 6.35332-3.50565 8.26757-.26944.20641-1.13656 1.14752-4.58251.28177-.17413-.0437-1.37345.71664-3.61847.0361-5.83439-1.76869-6.66978-8.86034-6.76649-9.28816-1.98539-8.78313-6.24957-28.02971-9.43291-34.24779-14.19124-27.72004-27.8769-8.77726-29.18474-11.11359 10.23291-38.37355 14.44658-76.35346 16.89342-93.24495-1.86683-11.02512-4.92079-19.18359-5.52418-27.60341.22636-19.41542.70656-32.42602 5.64702-40.80573.0.0 66.39151 6.34849 121.87522 15.79701z" id="path3717"/><path style="display:inline;fill-opacity:1;fill-rule:evenodd;fill:#333;opacity:1;stroke-dasharray:none;stroke-linecap:butt;stroke-linejoin:miter;stroke-miterlimit:4;stroke-opacity:1;stroke-width:0;stroke:#000" d="m368.47602 268.56519c-.47811 3.70196-1.46839 19.80284-7.70729 38.14162-4.21343 12.38505-9.49656 20.98445-12.80819 25.69128-11.07363 28.08007-4.96951 72.21173 2.55542 78.98935-41.35653 15.56956-67.02448 44.61519-67.79615 46.95296-.78385 1.88787-2.07261 6.65438-4.56951 8.43479-1.21712.86786-3.67455-.009-3.92649-.0331-.29397-.0276-1.00544 1.07969-3.15959.31564-5.02013-1.78057-5.70316-4.92926-6.40142-6.81689-11.53358-10.8084-24.59838-41.24223-39.40007-47.07157 11.8465-30.48207 13.79865-67.90001 18.45959-93.45957-1.76792-9.76145-4.56401-17.35901-5.11168-25.08242-1.19702-18.84935.27439-32.25068 3.73881-42.8448.46633-.72632 74.02997-14.85205 126.12657 16.78271z" id="path3719"/><path id="path3401-0" class="shadow" d="m330.97739 420.24734c-27.76035 9.69068-41.78653 28.32291-44.35913 33.05885 10.29989-9.14088 23.16576-22.06666 44.35913-33.05885z"/><path id="path3406-4" class="shadow" d="m262.15947 457.51688c-6.81704-9.41592-11.96578-25.28452-25.82391-35.94288 6.67904 9.06575 17.40602 27.14186 25.82391 35.94288z"/></svg>