<svg viewBox="0 0 560 1e3"><path id="path6021" d="m368.45236 268.83602c.40069 1.40387.82871 12.89967-6.36035 37.77919-5.42713 18.7819-14.38164 31.75089-14.97802 33.20897-8.09549 12.99543.20494 58.31464 1.6077 65.38842.0.0-51.36105 9.85807-62.87027 38.19544-2.06147 4.01155-2.1084 11.81811-3.46792 16.10443-.27859.87834-1.00697 6.35332-3.50565 8.26757-.26944.20641-1.13656 1.14752-4.58251.28177-.17413-.0437-1.37345.71664-3.61847.0361-5.83439-1.76869-6.66978-8.86034-6.76649-9.28816-1.98539-8.78313-6.24957-28.02971-9.43291-34.24779-14.19124-27.72004-27.39251-9.19794-28.70035-11.53427.30582-1.66444 7.73907-25.86552 11.14917-45.31899 3.69422-21.07431 2.75764-39.45668 5.3073-51.005-.10903-.84586-3.78927-7.67724-5.57162-24.10369.40962-35.13389 30.30326-40.0847 52.38713-59.43686.97617-2.02088 1.33144-19.1014-12.57879-26.38088-.63873-.33426 5.84887-3.6709 10.3734-6.07324 6.38934-8.53563 6.28943-17.66786 6.94018-18.6306 3.41216-5.04803 16.1975-13.69689 18.64392-8.17393.28194.63651.65372 17.25759 5.67767 24.66525 1.50252 1.12706 9.10193 4.89722 7.88644 5.69617-25.72677 16.91039-30.9022 28.84774-29.45936 29.06832 3.13994 1.52155 66.54554 33.43249 67.65165 34.25705z" style="display:inline;fill-opacity:1;fill-rule:evenodd;fill:#000;opacity:1;stroke-dasharray:none;stroke-linecap:butt;stroke-linejoin:miter;stroke-miterlimit:4;stroke-opacity:1;stroke-width:0;stroke:#000"/><path id="path6023" d="m368.55336 268.57624c-.008.0651-.0944.12326-.10329.19656-.49732 4.09604-1.80213 20.91765-7.93134 38.93401-6.28969 18.48806-13.44374 28.43697-15.0664 32.92756-1.49967 4.15024-4.23654 10.9826-3.98518 21.38732.2199 9.10274 7.74892 46.49363 9.7032 50.85009-40.10653 11.44456-65.329 43.75937-66.10067 46.09714-.78385 1.88787-3.29932 8.5329-5.79622 10.31331-1.21712.86786-4.8236-.18577-5.07554-.20987-.29397-.0276-1.12355.44604-3.33637-.1263-5.65546-1.4629-9.47467-5.19754-10.04678-7.14824-18.43111-29.49711-30.55976-47.06584-35.28517-48.25479 6.35688-20.66495 13.89397-45.93932 14.10692-51.13537.81644-19.92146 3.469-42.18238 3.6321-45.0569.21641-3.81403-3.76895-10.18612-4.65798-22.72348-1.84282-29.01893 6.12989-55.53045 15.23671-70.20607 3.56218-5.74045 12.34388-12.87297 12.49602-13.03103.38744-.40252 10.4025-5.23785 10.59275-5.40907.49229-.51848 5.43756-2.25669 9.91452-4.65903 7.20794-6.48478 6.35437-16.82837 7.43106-16.92645 10.85789-.98906 11.61293-7.93955 16.99504-8.1695.95246-.0407.12106 13.11049 6.50706 22.95667 1.48672 1.12706 18.38807 6.09921 18.91995 7.44157.16579.0672 10.36774 1.98587 11.99832 2.67358 10.59091 4.46683 18.74373 19.37238 18.69398 19.83138 1.76822 2.98105 2.39976 13.65864 2.50353 22.43206.1031 8.7164-1.23817 16.79895-1.34622 17.01485z" style="display:inline;fill-opacity:1;fill-rule:evenodd;fill:#ececec;opacity:1;stroke-dasharray:none;stroke-linecap:butt;stroke-linejoin:miter;stroke-miterlimit:4;stroke-opacity:1;stroke-width:0;stroke:#000"/><path style="display:inline;fill-opacity:1;fill-rule:nonzero;fill:#000;opacity:1;stroke-dasharray:none;stroke-dashoffset:0;stroke-linecap:round;stroke-linejoin:bevel;stroke-miterlimit:4;stroke-opacity:1;stroke-width:0;stroke:#000;vector-effect:none" d="m337.64352 257.62623c0 12.05744-9.65838 21.12482-22.00872 21.12481-12.35032-1e-5-19.88736-8.1835-19.88736-20.24093s7.18349-22.00869 19.53381-22.0087c12.35034-1e-5 22.36227 9.06737 22.36227 21.12482z" id="path1626-5"/><path style="display:inline;fill-opacity:1;fill-rule:nonzero;fill:maroon;opacity:1;stroke-dasharray:none;stroke-dashoffset:0;stroke-linecap:round;stroke-linejoin:bevel;stroke-miterlimit:4;stroke-opacity:1;stroke-width:0;stroke:#000;vector-effect:none" d="m335.88464 257.47534c0 11.11008-8.8643 19.46505-20.19925 19.46504-11.33492-1e-5-18.25229-7.54053-18.25229-18.65061.0-11.11007 6.59289-20.27947 17.92781-20.27948 11.33495-1e-5 20.52373 8.35496 20.52373 19.46505z" id="path1626-1-9"/><path style="display:inline;fill-opacity:1;fill-rule:nonzero;fill:#000;opacity:1;stroke-dasharray:none;stroke-dashoffset:0;stroke-linecap:round;stroke-linejoin:bevel;stroke-miterlimit:4;stroke-opacity:1;stroke-width:0;stroke:#000;vector-effect:none" d="m332.13464 257.85034c0 1.07575-.1163 3.28388-.22379 4.24996-4.84718-.34911-11.93835-.85256-13.51634-.93559.12383.70926.8116 7.39477 1.67901 12.94663-.74707.0528-4.2098.079-5.01313.079-.74773.0-3.45666-.2094-4.12864-.2536.72554-4.50941 1.98264-11.92327 1.97052-12.70919-.86746-.004-6.83155.66357-11.67213 1.11013-.0324-.79201.078-3.43283.078-4.29795.0-1.08475.0223-3.42179.0732-4.38754 3.97131.6151 10.06547 1.47574 11.16789 1.36756-.44591-2.06727-.53984-7.0986-1.49337-12.69678.90273-.0839 2.87765-.18772 3.9301-.18772 1.08.0 3.92238.1043 4.90189.18956-.48493 3.32213-.8388 10.9689-1.0758 12.58219 2.08648-.3006 7.95423-.8584 13.18238-1.44686.0518.68473.1403 3.64793.1403 4.39016z" id="path1626-1-2-2"/><path style="display:inline;fill-opacity:1;fill-rule:nonzero;fill:#ececec;opacity:1;stroke-dasharray:none;stroke-dashoffset:0;stroke-linecap:round;stroke-linejoin:bevel;stroke-miterlimit:4;stroke-opacity:1;stroke-width:0;stroke:#000;vector-effect:none" d="m330.9856 257.7809c0 1.0105-.23732 2.22232-.33744 3.12979-.40686.086-.65494-.86561-1.0922-.86629-4.32188-.007-10.40707.23321-11.74164.16229.10665.61614-.30227 6.684-.14503 11.64862.0128.40372.77813.80469.79361 1.20013-.69575.0495-2.63052.0743-3.37867.0743-.69637.0-2.05814-.19671-2.68395-.23821.0343-.38364.81933-.65826.85234-1.08207.32779-4.20795.6445-11.02921.63423-11.6999-.72233-.004-5.99296-.14362-10.14198-.25347-.49125-.013-.93459.77059-1.41185.76022-.0301-.74396-.0564-1.8448-.0564-2.65745.0-1.01894-.0223-2.17936.0251-3.08654.48622.0262.92982.97904 1.48839 1.0021 3.49265.1442 8.86322.0109 9.74835-.0767-.0648-1.64989-.29294-7.71904-.44407-11.42887-.0149-.36563-.73657-.71532-.75065-1.04397.84072-.0788 1.6909-.30569 2.67108-.30569 1.0058.0 2.70687.0548 3.61908.13494-.0129.37951-.64754.86406-.66542 1.34775-.13115 3.54845.0946 9.94717.16523 11.24286 1.79477-.0218 6.69443.29048 11.3364.0814.38375-.0173.92043-.98566 1.29879-1.00482.0483.64319.21667 2.26244.21667 2.95965z" id="path1626-1-2-0-43"/><path style="display:inline;fill-opacity:1;fill-rule:nonzero;fill:#000;opacity:1;stroke-dasharray:none;stroke-dashoffset:0;stroke-linecap:round;stroke-linejoin:bevel;stroke-miterlimit:4;stroke-opacity:1;stroke-width:0;stroke:#000;vector-effect:none" d="m319.79428 257.64898c-1.27548 1.74405-2.39556 3.08262-3.93289 4.49761-1.7765-1.68029-2.29676-2.34954-3.85126-4.31466 1.07619-1.43453 2.21492-2.91493 3.62931-4.55558 1.89608 1.54764 2.48077 2.27482 4.15484 4.37263z" id="path1626-1-7-38"/><path style="display:inline;fill-opacity:1;fill-rule:nonzero;fill:#fff;opacity:1;stroke-dasharray:none;stroke-dashoffset:0;stroke-linecap:round;stroke-linejoin:bevel;stroke-miterlimit:4;stroke-opacity:1;stroke-width:0;stroke:#000;vector-effect:none" d="m319.26303 257.68134c-1.09114 1.49521-2.04934 2.64278-3.36449 3.85587-1.51975-1.44053-1.96482-2.0143-3.29467-3.69904.92067-1.22983 1.89482-2.49901 3.1048-3.90557 1.62205 1.32682 2.12224 1.95025 3.55436 3.74874z" id="path1626-1-7-8-7"/><path style="display:inline;fill-opacity:1;fill-rule:nonzero;fill:maroon;opacity:1;stroke-dasharray:none;stroke-dashoffset:0;stroke-linecap:round;stroke-linejoin:bevel;stroke-miterlimit:4;stroke-opacity:1;stroke-width:0;stroke:#000;vector-effect:none" d="m317.40987 258.40558c0 .90125-.70487 1.57899-1.6062 1.57899s-1.45138-.61168-1.45138-1.51293c0-.90124.34748-2.57314 2.33156-2.66153-2.45743 2.43068.72602 1.69422.72602 2.59547z" id="path1626-1-8-3"/></svg>