<svg viewBox="0 0 560 1e3"><path d="m266.49997 479.72152c-.75726.23851-1.62496.12972-2.16768.12087-.87058-.0137-2.58026-1.33662-2.72746-1.74031.22472-1.73814 4.72523-4.11548 8.07489-1.88455-1.08923 2.46638-1.83549 2.76844-3.17975 3.50399z" id="path3712" style="fill:#000;stroke-width:1.54810905"/><path d="m263.05282 454.42613c2.07772-3.79093 9.50404-6.27366 10.21207 2.42502.23464.48958-.31659 2.68872-.9792 5.45446-.75885 2.70023-1.36052 5.77014-1.6557 8.82905-.23119 2.39568-.29911 4.74378-1.82054 6.2419-1.08214.8935-2.83491 1.2165-4.32424 1.19426-.87516-.0138-2.40619-.0517-2.67449-.25392-1.06787-.8045-1.67435-1.61251-2.56184-2.78989-.11072-.51921.11936-.77834.0711-.97512-.60519-2.47557-.4191-6.1883.36166-10.32836.6696-3.55062 1.81451-7.13518 3.37106-9.7974z" id="path3714" style="fill:#000;stroke-width:1.54810905"/><path d="m269.49755 475.33492c-.0108.4171-.5592 1.88401-1.08427 2.58066-1.19569 1.36703-2.62442 1.97525-4.30495 1.4419-.78574-.0138-3.3003-1.9718-4.50277-3.9635.5118-1.73157 7.65321.99684 9.89199-.059z" id="path3716" class="areola"/><path class="skin penis" d="m263.56044 453.68581c1.85797-3.87515 8.4989-6.41305 9.13204 2.47889.20982.50046-.2831 2.74844-.87564 5.57566-.67858 2.76019-1.47022 5.84694-1.7342 8.97382-.0326 1.74869-.19336 2.88913-.35223 3.96037-1.16505 1.40744-7.52369-.55707-9.73624-.36448-.54119-2.53057-.14653-6.37715.55166-10.60919.59875-3.6295 1.62258-7.29369 3.01451-10.01507z" id="path3718"/></svg>