<svg viewBox="0 0 560 1e3"><path d="m288 588.6c-9.8-40.3-16.6-61.7-12.6-107.8-.7 44.5 3.5 67.1 12.6 107.8z" class="shadow" id="path6320"/><path id="path6322" d="m256.80933 693.52275c-.55671-1.25983-1.07284-1.71306-2.21372-1.94401-1.23625-.25026-1.80348-.82844-3.35527-3.41982-1.02711-1.71527-2.40362-3.64847-3.05884-4.29602-2.28016-2.25329-3.04447-4.53182-3.00163-8.94798.0215-2.20165.12125-4.85072.22214-5.88681.21211-2.17937.82499-5.29272 1.39533-16.25549.21617-91e-5 1.14225 11.201.97918 12.84114-.76053 7.64957-.7927 8.97295-.28119 11.57369.47208 2.40061.73164 2.85586 2.07215 3.63486 1.74158 1.01207 3.951 3.84156 5.05316 6.4714.65562 1.56427.85388 1.72079 1.61974 1.27852.64932-.90088 3.7344-4.1822 5.27081-8.3305.091 2.91682-2.09446 6.68383-3.35241 9.54463-.6784 1.54259-.66888 2.7457.0357 4.55508.61788 1.58619-.65499.83397-1.38536-.81869z" style="fill-opacity:1;fill:#464646;stroke-width:.45336175"/><path id="path6324" d="m327.41373 693.31133c-8.42187-2.27417-8.11104-18.63459-4.09583-26.78486-.17074-.20327.2402-1.06107.91315-1.90622 1.27358-1.59949 4.22041-2.92914 5.94874-2.68414.48996.0694 1.67293 1.14763 2.63781 2.40416.96218 1.25305 1.95805 2.27208 2.21305 2.26452 2.43444-1.88858 4.35903-6.42147 5.14196-10.02834 1.33468-2.38948 2.05609-1.97187 1.11624.64614-.38908 1.08364-1.35554 3.81021-2.14778 6.05903-1.38485 3.93101-3.03279 6.47136-4.20129 6.47652-1.25657.006-2.75116-1.33355-2.85192-2.5552-.12198-1.4787-1.50093-3.17402-2.58174-3.17402-.42111.0-1.48059.36056-2.3544.80124-4.79525 1.98634-6.82605 12.79193-3.16416 17.46742 2.20975-.003 8.75015 3.52507 8.0597 4.34732-.20433.24333-2.9521-.25327-5.19225-.93842-.63395-.19389-3.50043-.70922-3.49177-.21399 1.15605 2.56831 7.04774 7.94567 10.09798 6.14761.66567-.48994 1.30294-.4961 1.30294-.0127.0.84971-3.33606 2.49262-5.06147 2.49262-.34937.0-1.37941-.36396-2.28897-.8088z" style="fill-opacity:1;fill:#464646;stroke-width:.4175593"/><path id="path6326" d="m313.05908 650.46008c-3.46901-15.6659-2.80904-19.20114.76932-4.12121 2.9052 12.24243 4.19705 15.45316 8.0664 20.04555 1.66188 1.97252 1.84472 2.55089.87158 2.75625-4.82768-2.0734-9.1647-16.27053-9.7073-18.68059z" style="fill-opacity:1;fill:#464646;stroke-width:1.08744872"/><path id="path6328" d="m317.32786 784.74624c-.54988-4.48972-1.17272-8.46927-1.38412-8.84341-.21138-.37415-.34676-2.03758-.30083-3.69651.0669-2.41752-.42568-10.47192-1.07715-17.61218-.0523-.57313.1011-1.11128.3409-1.19582.43302-.15267.56901.8451 1.56257 11.4642l.51737 5.52985 1.42997-2.33754c1.09278-1.7864 2.05422-4.98604 4.07743-13.56949 3.81886-16.20145 6.52917-24.99515 3.71096-12.04033-4.1007 18.85024-5.54648 24.6035-6.77686 26.96767-.72982 1.40238-1.53155 2.54978-1.78157 2.54978-.56184.0-.12358 7.25332.7747 12.82204.69564 4.31243.82086 8.12488.26685 8.12488-.19824.0-.81035-3.67341-1.36022-8.16314z" style="fill-opacity:1;fill:#464646;stroke-width:.51827115"/><path id="path6330" d="m270.60163 794.72611c.003-1.59961.60332-5.72077 1.28215-8.80593 1.35235-6.14656 2.77814-21.60281 2.21042-23.96199-1.10349-4.58569-1.56375-25.0702-.58881-26.20616.30101-.35071.53519-.49048.5204-.31058-.0892 1.08526.38603 20.57579.52966 21.72228.0961.76679.4418 2.13254.76827 3.03499l.59362 1.64085 1.14348-1.67051c.62891-.91879 1.35079-1.65346 1.60419-1.63263.83624.0688.31799 1.99969-.77754 2.89688-1.19163.97587-2.12354 4.76289-3.36286 13.66546-1.33459 9.58686-3.92908 22.56757-3.92298 19.62734z" style="fill-opacity:1;fill:#464646;stroke-width:.58542353"/></svg>