<svg viewBox="0 0 560 1e3"><path style="display:inline;fill-opacity:1;fill-rule:evenodd;fill:#000;opacity:1;stroke-dasharray:none;stroke-linecap:butt;stroke-linejoin:miter;stroke-miterlimit:4;stroke-opacity:1;stroke-width:0;stroke:#000" d="m370.7693 268.87447c-.85328 27.98717-20.14637 67.4897-20.53836 84.5777 1.34819 6.95104 21.5825 36.29726 11.79288 63.26226 10.57756 21.02839 7.69401 40.34072 4.32682 56.77962-28.74941 10.97356-96.218 3.03387-150.5054.20032-2.02999.80617 4.19609-43.62157 7.1834-56.20536.77197-3.25187 1.21188 2.016 3.49057-3.63848-11.7697-22.64931 9.8894-67.88152 13.24535-92.2721-1.27663-12.43192-1.8239-22.77044-2.39548-30.7463-1.71481-8.40571 3.20346-34.92484 3.50129-35.38878 3.63412-5.66102 10.92759 6.32338 18.12086 6.86147 8.69146.65015 17.55283-9.17274 23.75275-5.81295 3.13994 1.52156 58.67897 12.39605 59.78508 13.22063z" id="path3995-7"/><path style="display:inline;fill-opacity:1;fill-rule:evenodd;fill:#c8c8c8;opacity:1;stroke-dasharray:none;stroke-linecap:butt;stroke-linejoin:miter;stroke-miterlimit:4;stroke-opacity:1;stroke-width:0;stroke:#000" d="m348.60923 353.05532c11.34128 24.12529 18.5759 42.77617 13.43114 63.41084 10.64422 16.38765 10.61462 33.83845 5.09054 54.21891-26.39875 10.6272-86.57169 2.2015-152.37059.37493-2.03599.32806 4.05176-43.3098 8.37553-54.64812-2.27646-31.58494 14.27836-78.08413 19.18179-93.57267-1.28457-11.15048-3.94305-19.88088-4.51492-27.9151-3.20227-29.1905-.33067-54.07112 19.698-85.56413 15.74989 2.628 27.88781-8.02562 28.01763-7.59445 7.15246 23.75343 21.44285 10.11127 35.74357 1.61406.4901-.29121 12.74485 18.90619 43.07923 14.71327 2.64376 1.54772 5.52026 17.19226 5.86683 30.63013 2.18965 7.03822.0651 22.60991-3.30237 39.8147-9.89972 30.40139-17.63735 54.77469-18.29638 64.51763z" id="path3997-4"/><path d="m329.89929 425.67494c-15.4791 1.1907-42.03653 26.26042-44.60913 30.99636 10.29989-9.14087 29.75951-26.28541 44.60913-30.99636z" class="shadow" id="path3999-9"/><path d="m262.1572 457.52324c-6.81704-9.4159-28.83006-31.99347-34.93819-34.15181 5.05404 5.44074 26.5203 25.3508 34.93819 34.15181z" class="shadow" id="path4001-9"/><path d="m370.89498 248.85339c-14.28762 3.46024-39.57781.22277-63.55452-.0624-.76871-.009-4.55296 23.42666-5.31897 23.41328-8.14483-.14249-16.64543-1.06231-23.96321-1.70086-.83551-.0729 2.41889-23.05924 1.60111-23.13883-16.6858-1.62375-32.89304-3.42788-37.96691-5.60239-.51151-.21921 11.87522-30.24142 12.54312-31.4554 11.99393-3.25194 31.3522-9.53386 31.47144-9.18913 7.71543 22.30266 16.35056 11.23103 34.41959-.54857.0.0 29.3116 7.03593 36.79641 12.07205 17.24413 5.61042 13.97194 36.21225 13.97194 36.21225z" id="path3978-6-1-3" style="display:inline;fill:#502;stroke-width:1.00814641"/><path d="m369.91774 259.25062c-3.7718-.065-55.86953-.70072-57.05651-.3815-.4974.13379-3.99791 19.68793-4.51296 19.67977-8.48951-.13455-28.85702-1.73333-37.31764-2.24916-.29597-.0189.62937-21.38529.3354-21.39934-17.28598-.82592-30.13434-1.75111-32.49612-1.95465.13164-1.49604.66104-5.11893 1.34572-5.00908 8.27579 1.32769 22.71003 2.8718 36.15812 3.84827.41486.0302-1.5189 20.7581-1.10143 20.78785 9.95814.70983 19.25189 1.38799 29.67992 1.87441.38537.0189 4.49685-20.73547 4.88151-20.71781 31.24932 1.43402 59.99712 1.79553 60.41691.71697.50558-1.29888 1.17208 3.41117-.33291 4.80427z" id="path3978-6-4-2-6" style="display:inline;fill:#502;stroke-width:1.00190759"/><path d="m367.84367 468.12497c-26.81535 11.46066-145.0815-.0265-153.50995-.54391.0933-.41288-.35901-.19125.21593-2.78132 9.92027.70983 121.67372 11.18207 153.6895 1.07966-.02 1.01102-.28929 1.98081-.39546 2.24557z" id="path3978-6-4-8-8-3-5" style="display:inline;fill:#502;stroke-width:.99999994"/></svg>