<svg viewBox="0 0 560 1e3"><path d="m275.57759 522.14995c-.0846 3.57238-4.55193 7.77886-9.03538 9.2318-2.59181.83991-5.56157.45697-7.41907.42572-2.97965-.0501-7.23552-3.95103-7.73932-5.37257.76912-6.12071 12.7294-12.14097 24.19377-4.28495z" id="path7904" style="fill:#000"/><path d="m274.40729 522.28828c-.079 3.33698-3.83599 6.59159-8.01293 7.94875-2.41468.78459-5.18144.42688-6.91196.39767-2.77595-.0468-6.20118-3.01595-6.67056-4.34384.71653-5.71739 10.91474-11.34091 21.59545-4.00258z" id="path7906" class="areola"/><path d="m254.74406 442.3061c7.11109-13.34938 32.52822-22.09213 34.95147 8.53953.80303 1.72404-1.08353 9.46806-3.35139 19.20746-2.5972 9.50858-4.65641 20.31903-5.66673 31.09071-.79127 8.43623-1.02372 16.70482-6.23094 21.98041-3.70363 3.14635-9.70268 4.28379-14.79995 4.20545-2.99525-.0461-8.23535-.18239-9.15361-.89415-3.65485-2.83302-5.7306-5.67835-8.76805-9.8244-.37917-1.82836.40835-2.74086.24372-3.43379-2.07126-8.71748-1.43433-21.79153 1.2378-36.37044 2.29172-12.50319 6.21027-25.12593 11.53768-34.50078z" id="path7908" style="fill:#000"/><path class="skin penis" d="m256.06193 439.69911c6.51982-13.64597 29.82348-22.58298 32.04521 8.72923.7363 1.76237-.99342 9.67842-3.07269 19.63418-2.38124 9.71987-5.15912 20.58958-6.08546 31.60059-.72548 8.62365-.93856 17.07599-5.71278 22.46874-3.39572 3.21627-8.19479 4.2401-12.86823 4.16004-2.74623-.0472-8.3515-.006-9.19343-.73311-3.35094-2.89593-5.06532-5.48471-7.8502-9.72289-.40511-1.2159.37441-2.80177.22345-3.51013-1.89905-8.91114-.51412-22.45656 1.93582-37.35938 2.10113-12.78095 5.69384-25.68414 10.57831-35.26727z" id="path7910"/></svg>