<svg viewBox="0 0 560 1e3"><path d="M273.55059 132.3996C265.25906 125.35329 256.92484 118.25555 248.27514 112.99009 247.3457 111.89701 245.7023 112.66355 247.07455 114.3665 252.29011 123.09499 257.68959 131.65786 263.53089 139.49648 265.40376 142.0204 268.04597 143.17468 269.906 141.8792 271.90686 140.57279 273.21769 137.7564 273.68441 134.50059 273.74756 133.83843 273.73041 133.11468 273.55059 132.3996z" class="skin" id="path38485-6"/><path id="path38602-2" class="shadow" d="M248.10403 116.09666C252.8371 123.992 257.73913 131.7057 262.90769 138.9917 263.48164 139.71905 263.87308 139.71107 263.13373 138.80847 258.16175 131.18389 252.95753 123.8878 248.10403 116.09666zM247.99517 114.0282C249.5105 115.50308 251.07644 116.80702 252.63603 118.12412 254.35223 121.7145 256.0776 125.35077 258.20596 128.50941 256.68976 125.45956 254.91938 122.6442 253.52872 119.48202 254.26274 118.60908 255.73909 121.17984 256.72649 121.5812 259.28812 123.70322 261.80533 125.99137 264.28633 128.39037 265.47743 129.47728 266.66725 130.58095 267.89846 131.51245 264.20304 127.58475 260.32541 124.18146 256.40492 121.00906 253.59787 118.69785 250.78229 116.42017 247.99517 114.0282z"/></svg>