<svg viewBox="0 0 560 1e3"><path transform="rotate(15.737227,358.78205,354.98403)" style="display:inline;fill-opacity:.54773865;fill-rule:evenodd;fill:#333;stroke-dasharray:none;stroke-linecap:butt;stroke-linejoin:miter;stroke-miterlimit:4;stroke-opacity:0;stroke-width:3;stroke:#000" d="m364.2029 408.16751c.49561.84093 1.15535 2.09365 2.11752 3.46902 1.24656 1.78188 16.21097 12.30565 24.93031 28.55026 3.54342 6.60158 6.25095 15.22054 6.9178 23.69134.22263 2.82803.58752 6.46189-.77063 11.98985-1.62683 6.62158-3.99227 11.81054-3.99227 11.81054-.006-.0378 4.20923 13.85518 4.44271 14.40159.34948.81789 2.19064 7.35558 2.34251 7.61118.9674-.31933.29546-6.86453 1.05228-8.33077 1.4313-2.40376 2.40201-4.97418 3.49701-7.36083 2.82036-6.14728 4.41894-12.22196 4.24837-18.14226-.48471-16.82422-6.49729-31.65959-14.69593-43.21161-8.97326-12.6435-22.21486-21.6075-30.08966-24.47831z" id="path3832"/></svg>