<svg viewBox="0 0 560 1e3"><path id="path6014" d="m347.82542 405.47846c15.72194 42.87226 16.4077 85.76357 18.82177 101.19857 1.10063 7.03719-12.8374 8.26001-100.17128 4.25011-17.30311-1.81576-59.42021.18601-59.38772-.1249 3.78245-36.19606 16.58209-79.11115 19.54675-99.18878 36.34163 12.28427 54.05413 11.58297 121.19048-6.135z" style="display:inline;fill-opacity:1;fill-rule:evenodd;fill:#000;opacity:1;stroke-dasharray:none;stroke-linecap:butt;stroke-linejoin:miter;stroke-miterlimit:4;stroke-opacity:1;stroke-width:0;stroke:#000"/><path id="path6022" d="m349.03754 406.58021c22.39705 27.56646 21.71636 53.99871 16.48371 73.92534.002 2.71328.64208 17.57938 1.03974 23.43149.23441 3.44975 1.34341 6.02352-4.03841 7.05809-7.69466 1.47918-36.91447 1.37345-87.66839-1.93167-17.22485-1.7838-68.21474 1.89473-68.27203 1.59296-6.32347-33.30905 8.4691-79.77129 19.13869-98.06597 36.42612 14.76968 76.93272 8.18054 123.31669-6.01024z" style="display:inline;fill-opacity:1;fill-rule:evenodd;fill:#333;opacity:1;stroke-dasharray:none;stroke-linecap:butt;stroke-linejoin:miter;stroke-miterlimit:4;stroke-opacity:1;stroke-width:0;stroke:#000"/></svg>