<svg viewBox="0 0 560 1e3"><g data-transform="boob" class="scaler_" id="g4801" transform="matrix(1.1247504,0,0,1.1247504,-26.347241,-34.609528)"><path style="fill-opacity:1;fill:#010101" id="path4773" d="m271.51118 261.14089c.0661-.75567-15.55212-23.85233-20.78384-21.10049-1.52959.80455-3.42058 1.9614-5.76856 3.60973-9.78469 6.69753-21.31453 10.82141-26.74443 14.7899-.54445.39791-.66828 2.70307-.76291 3.35152-.65836 4.51134-1.66809 9.99655-.19947 14.9545.5788 2.79959 1.92116 5.11459 3.04085 7.21138 2.65234 4.96693 6.04765 7.87695 10.86115 8.57219 21.5829 3.2487 35.13223-12.1343 39.18878-20.05393 1.83647 8.16488 6.94853 14.47073 13.3338 17.64542 10.04423 4.99389 23.27331 3.62273 32.00152-1.35019 14.24159-8.46859 19.00686-29.49472.12112-46.95807-1.24033-1.44425-2.4413-2.70187-3.54079-3.8753-.36194-.36533-.83711-.69814-1.41789-.98568-.3692-.18279-.78107-.34728-1.23367-.49021-4.17723-1.31914-18.96078 7.30779-27.63663 14.95545-5.29365 4.66629-9.38919 8.82318-10.45903 9.72378z"/><path style="fill-opacity:1;fill:#fff" id="path4776" d="m250.80319 239.92519c-2.11217 1.58135-4.28508 3.11053-5.92735 4.27017-5.84025 4.87392-21.34013 11.09517-25.80979 13.9564-.39537.25308-.72231 2.6909-.84921 3.07294-.70752 5.13443-.92153 9.56442-.30576 13.2861 1.01337 6.12496 3.33372 10.46932 6.44535 13.29915 2.48992 2.26451 5.53985 3.63861 8.78962 4.08772 10.49581 1.51314 19.86794-2.43574 27.29744-8.48888 4.20537-3.4345 7.18267-7.02269 9.92412-11.02226.12718.41876 1.87124 5.64497 5.46994 10.30596 2.123 2.74967 5.09638 5.02083 8.21123 6.75234.11303.0438.22593.0871.33871.12991 34.5912 13.12294 57.55039-22.51578 31.08151-47.52065-1.21885-1.39111-4.20568-5.32709-4.35427-5.6611-.6987-2.75664-9.88258-9.06508-16.06697-9.45676-.1345-.009-10.74246.007-10.64383.29587.23653.69283 3.44684 11.17287-.33053 18.67342-4.51419 8.9636-12.68404 13.88913-12.83163 13.89491-.21819.009-1.02916-8.25907 2.19227-16.64668 3.14969-8.20084 12.15334-16.02095 10.96644-16.02052-3.39903.001-10.51241-.58379-10.57542-.41043-.22117-.36982-16.14896 7.01755-22.98077 13.1738-.0124.0112-.0411.0188-.0411.0289z"/><path d="m270.33492 269.98618c-.16754 2.01348.47911 3.25262.89408 5.36257-.66799-1.59942-1.31544-3.72955-.89408-5.36257z" class="shadow" id="path4799"/><path style="display:inline;fill-opacity:1;fill:#000;opacity:1;stroke-dasharray:none;stroke-linecap:butt;stroke-linejoin:miter;stroke-miterlimit:4;stroke-opacity:1;stroke-width:0;stroke:#000" d="m269.64165 273.82995c-1.53468-6.2378.0135-10.79872 1.50739-15.05075.0.0.10182.80154.18781.83766.15134.0636.96233-.53526.98097-.51485-2.05537 4.04893-2.60464 9.23417-1.43494 14.78054l-.39428-1.2138z" id="path4400-3"/><path id="path4402-1" d="m295.00084 245.19773a3.0981078 3.1554572.0 01-3.09811 3.15546 3.0981078 3.1554572.0 01-3.09811-3.15546 3.0981078 3.1554572.0 013.09811-3.15546 3.0981078 3.1554572.0 013.09811 3.15546z" style="display:inline;fill-opacity:1;fill-rule:nonzero;fill:#999;opacity:1;stroke-dasharray:none;stroke-linecap:butt;stroke-linejoin:round;stroke-miterlimit:4;stroke-opacity:1;stroke-width:0;stroke:#000"/><path id="path4404-1" d="m280.14094 267.27136a3.0981078 3.1554572.0 01-3.0981 3.15545 3.0981078 3.1554572.0 01-3.09812-3.15545 3.0981078 3.1554572.0 013.09812-3.15548 3.0981078 3.1554572.0 013.0981 3.15548z" style="display:inline;fill-opacity:1;fill-rule:nonzero;fill:#999;opacity:1;stroke-dasharray:none;stroke-linecap:butt;stroke-linejoin:round;stroke-miterlimit:4;stroke-opacity:1;stroke-width:0;stroke:#000"/></g></svg>