<svg viewBox="0 0 560 1e3"><path style="display:inline;fill-opacity:1;fill-rule:evenodd;fill:#000;stroke-dasharray:none;stroke-linecap:butt;stroke-linejoin:miter;stroke-miterlimit:4;stroke-opacity:0;stroke-width:2.97377706;stroke:#000" d="m331.46144 378.14692c58.32588 59.64207 48.9267 81.33778 48.80306 87.14477-.0347 1.63031.0352 2.57669.14772 2.8459-2.42764.69709-14.30102 5.41685-14.91906 5.75046-30.45656-19.29465-34.03172-95.74113-34.03172-95.74113z" id="path4280"/><path style="display:inline;fill-opacity:1;fill-rule:evenodd;fill:#c8c8c8;stroke-dasharray:none;stroke-linecap:butt;stroke-linejoin:miter;stroke-miterlimit:4;stroke-opacity:0;stroke-width:2.97377706;stroke:#000" d="m332.13237 381.3923c54.58917 54.26145 48.03222 82.68041 48.11055 84.03832-2.42764.69709-12.57201 4.95836-13.19005 5.29197-30.45656-19.29465-34.9205-89.33029-34.9205-89.33029z" id="path4282"/><path d="m380.45647 462.90404c-2.91834 1.15884-12.41145 5.23666-12.78534 5.28333.0711-.41289-.24151.46044.19641-2.12944.44841-.21697 8.57217-3.73744 12.62875-5.0891-.0154.24866-.0363 1.62658-.0398 1.93521z" id="path3978-6-4-8-8-1-6-0-4-1-0" style="fill:#502"/></svg>