<svg viewBox="0 0 560 1e3"><path style="display:inline;fill-opacity:1;fill-rule:evenodd;fill:#000;stroke-dasharray:none;stroke-linecap:butt;stroke-linejoin:miter;stroke-miterlimit:4;stroke-opacity:0;stroke-width:3.03671026;stroke:#000" d="m300.3629 216.71608c2.89918-3.49959 6.19635-4.56996 3.24687-5.37862-13.21512 9.9273-36.86807 28.61133-63.95418 10.90686-1.55702 1.92348-16.92191 41.04673-18.39066 43.24021 2.69974 2.78118 5.89328 8.37305 20.58843 20.24809 7.48653 2.21612 28.96923-30.45673 38.5639-28.00757 9.96276-18.54956 19.5654-40.62985 19.94564-41.00897z" id="path4846"/><path style="display:inline;fill-opacity:1;fill-rule:evenodd;fill:#fff;stroke-dasharray:none;stroke-linecap:butt;stroke-linejoin:miter;stroke-miterlimit:4;stroke-opacity:0;stroke-width:3;stroke:#000" d="m300.48784 216.69956c2.82896-3.50026 3.16823-5.37966 3.16823-5.37966s-41.22115 26.60513-62.85548 11.48509c-1.30012 1.68036-16.42009 40.52056-17.65638 42.39983 4.63028 4.46772 10.43412 13.09764 19.91574 20.51748 7.3052 2.21655 28.60307-30.45545 37.96535-28.00581 9.72145-18.55316 19.09151-40.63773 19.46254-41.01693z" id="path4848"/></svg>