<svg viewBox="0 0 560 1e3"><path id="path7266" d="m347.88359 215.191c-2.25324-4.00541-13.73665-6.81616-10.82802-7.59701 19.72162-5.29453 43.52841 4.62786 45.9381 9.86401-.22298-.023 31.90628 19.92899 50.67052 37.45953-.0867 1.05301 71.25326 28.08793 70.91938 29.07703-5.34106 15.82348-5.7827 29.24134-7.73361 28.33838-7.85013-3.63339-40.68162-10.17877-51.69206-15.98338-66.71555-35.17195-86.24158-42.54428-97.27431-81.15856z" style="display:inline;fill-opacity:1;fill-rule:evenodd;fill:#000;stroke-dasharray:none;stroke-linecap:butt;stroke-linejoin:miter;stroke-miterlimit:4;stroke-opacity:0;stroke-width:3.0480547;stroke:#000"/><path id="path7268" d="m347.79149 214.93549c-2.23963-3.9037-13.65365-6.64307-10.7626-7.4041 19.60245-5.16008 43.26539 4.51035 45.66052 9.61353-.22163-.0224 31.58925 20.763 50.2401 37.84838-.0862 1.02626 70.57422 28.34926 70.24237 29.31325-5.30879 15.42166-5.00759 27.69321-6.9467 26.81318-7.8027-3.54112-40.80326-11.4294-51.74716-17.08661-66.31243-34.2788-85.72047-41.46392-96.68653-79.09763z" style="display:inline;fill-opacity:1;fill-rule:evenodd;fill:#333;stroke-dasharray:none;stroke-linecap:butt;stroke-linejoin:miter;stroke-miterlimit:4;stroke-opacity:0;stroke-width:3;stroke:#000"/><path id="path7271" d="m399.71894 228.92704s-16.6116 32.22101-16.45414 32.39299c.20901.22848 26.4597 15.14817 26.55802 15.18944.174.14573 15.12661-28.47426 15.12661-28.47426-8.00352-6.00465-18.01723-14.66291-25.23049-19.10817z" style="display:inline;fill-opacity:1;fill:maroon;opacity:1;stroke-dasharray:none;stroke-linecap:butt;stroke-linejoin:miter;stroke-miterlimit:4;stroke-opacity:1;stroke-width:0;stroke:#000"/><path style="display:inline;fill-opacity:1;fill-rule:nonzero;fill:#c8c8c8;opacity:1;stroke-dasharray:none;stroke-linecap:butt;stroke-linejoin:round;stroke-miterlimit:4;stroke-opacity:1;stroke-width:0;stroke:#000" d="m424.26913 247.23986c-.13385.27846-.28996.54686-.46891.80385-2.87095 4.12324-9.844 2.93556-16.42269-1.64512-5.54699-5.55278-9.47883-10.78083-6.25042-16.57229 1.18839.76589 15.85171 11.38972 23.14202 17.41356z" id="path7273"/></svg>