<svg viewBox="0 0 560 1e3"><path style="display:inline;fill-opacity:1;fill-rule:evenodd;fill:#000;stroke-dasharray:none;stroke-linecap:butt;stroke-linejoin:miter;stroke-miterlimit:4;stroke-opacity:0;stroke-width:3.01035047;stroke:#000" d="m331.57314 378.3368c24.18021 19.31629 47.47548 69.08726 40.28948 90.22947-.29346.86341-.20575 1.80138-.35593 2.67966-.0906.0643-.39723.27412-.55644.36065-1.2493.67899-4.64397 1.90427-4.64397 1.90427-8.38545 2.52174-30.68773-90.32334-34.73314-95.17405z" id="path4292"/><path style="display:inline;fill-opacity:1;fill-rule:evenodd;fill:#c8c8c8;stroke-dasharray:none;stroke-linecap:butt;stroke-linejoin:miter;stroke-miterlimit:4;stroke-opacity:0;stroke-width:2.97172689;stroke:#000" d="m331.31352 379.52769c16.25271 13.86517 45.37997 59.95473 40.53677 89.0414-.0882.0643-.21475.1416-.36985.22816-1.21698.67925-4.37926 1.89717-4.37926 1.89717-.34633.10695-1.18928.89344-1.58868.68531-9.02097-4.70078-30.42527-87.20524-34.19898-91.85204z" id="path4294"/><path d="m372.18728 466.34154c-2.91834 1.15884-5.66145 2.42416-6.03534 2.47083.0711-.41289-.24151.46044.19641-2.12944.44841-.21697 1.97842-.92494 6.035-2.2766-.0154.24866-.19255 1.62658-.19607 1.93521z" id="path3978-6-4-8-8-1-6-0-4" style="fill:#502"/></svg>