<svg viewBox="0 0 560 1e3"><path style="display:inline;fill-opacity:1;fill-rule:evenodd;fill:#fff;opacity:1;stroke-dasharray:none;stroke-linecap:butt;stroke-linejoin:miter;stroke-miterlimit:4;stroke-opacity:1;stroke-width:0;stroke:#000" d="m298.46108 438.89935c-6.48422 6.26583-11.19704 12.82415-15.33516 19.44716-1.04023 1.75909-1.92047 7.35117-4.50173 9.70959-.97785.89343-3.70051-.0277-4.03805.0431-.91345.19159-2.09488.29968-2.84109.24274-1.3589-.10369-3.10427-.97079-4.62926-2.64607-1.15035-1.26373-2.1753-2.98733-2.81436-5.19001-3.99405-5.27747-10.5589-14.66641-17.49018-23.90539 5.96418 2.46553 12.594 3.31007 20.19407 2.34603 9.80224 3.87793 21.03947 2.36746 31.45576-.0471z" id="path2360-8-9-7"/><path style="display:inline;fill-opacity:1;fill:#92b5c9;stroke-dasharray:none;stroke-linecap:butt;stroke-linejoin:miter;stroke-miterlimit:4;stroke-opacity:1;stroke-width:0;stroke:#83afc8" d="m252.70414 444.58541c10.94342 1.31488 24.01095 1.50229 40.32871.0811-1.56759 2.01272-3.58281 4.56444-5.24245 6.66295-12.30604 1.16431-22.00263 1.20882-29.81942.51362-2.04934-2.61037-3.63449-4.68604-5.26684-7.25767z" id="path1180-5-1-9-7-9-6"/><path style="display:inline;fill-opacity:1;fill:#92b5c9;stroke-dasharray:none;stroke-linecap:butt;stroke-linejoin:miter;stroke-miterlimit:4;stroke-opacity:1;stroke-width:0;stroke:#83afc8" d="m262.53421 458.18295c6.22871.31514 13.08896.30377 20.72809-.0971-.87505 2.4389-1.64015 4.66739-2.42955 6.53665-5.25319.34928-9.97649.47387-14.24234.41152-1.68576-1.69159-2.0194-4.59693-4.0562-6.85107z" id="path1180-5-1-9-3-1-2"/><path style="display:inline;fill-opacity:1;fill-rule:evenodd;fill:#000;opacity:1;stroke-dasharray:none;stroke-linecap:butt;stroke-linejoin:miter;stroke-miterlimit:4;stroke-opacity:1;stroke-width:0;stroke:#000" d="m282.94456 458.76549c-.0483.15247-.11284.47208-.19954.90622-.41277 2.06685-1.81439 6.53069-3.87757 8.11265-.26921.20642-1.13559 1.14752-4.57861.28177-.17398-.0437-2.18026 1.1699-4.2783.12449-4.65827-2.32112-6.22252-8.10904-6.31915-8.53686 3.82592 9.08132 8.89939 9.3147 10.40315 7.55401 5.26837 2.79873 7.50839-4.81217 8.85002-8.44228z" id="path6986-5-1-2-1"/></svg>