<svg viewBox="0 0 560 1e3"><g data-transform="boob" transform="matrix(1.1247504,0,0,1.1247504,-26.347241,-34.609528)" id="g7482" class="scaler_"><path d="m271.51118 261.14089c.0661-.75567-15.55212-23.85233-20.78384-21.10049-1.52959.80455-3.42058 1.9614-5.76856 3.60973-9.78469 6.69753-21.31453 10.82141-26.74443 14.7899-.54445.39791-.66828 2.70307-.76291 3.35152-.65836 4.51134-1.66809 9.99655-.19947 14.9545.5788 2.79959 1.92116 5.11459 3.04085 7.21138 2.65234 4.96693 6.04765 7.87695 10.86115 8.57219 21.5829 3.2487 35.13223-12.1343 39.18878-20.05393 1.83647 8.16488 6.94853 14.47073 13.3338 17.64542 10.04423 4.99389 23.27331 3.62273 32.00152-1.35019 14.24159-8.46859 19.00686-29.49472.12112-46.95807-1.24033-1.44425-2.4413-2.70187-3.54079-3.8753-.36194-.36533-.83711-.69814-1.41789-.98568-.3692-.18279-.78107-.34728-1.23367-.49021-4.17723-1.31914-18.96078 7.30779-27.63663 14.95545-5.29365 4.66629-9.38919 8.82318-10.45903 9.72378z" id="path7474" style="fill-opacity:1;fill:#010101"/><path d="m250.80319 239.92519c-2.11217 1.58135-4.28508 3.11053-5.92735 4.27017-5.84025 4.87392-21.34013 11.09517-25.80979 13.9564-.39537.25308-.72231 2.6909-.84921 3.07294-.70752 5.13443-.92153 9.56442-.30576 13.2861 1.01337 6.12496 3.33372 10.46932 6.44535 13.29915 2.48992 2.26451 5.53985 3.63861 8.78962 4.08772 10.49581 1.51314 19.86794-2.43574 27.29744-8.48888 4.20537-3.4345 7.18267-7.02269 9.92412-11.02226.12718.41876 1.87124 5.64497 5.46994 10.30596 2.123 2.74967 5.09638 5.02083 8.21123 6.75234.11303.0438.22593.0871.33871.12991 34.5912 13.12294 57.55039-22.51578 31.08151-47.52065-1.21885-1.39111-4.20568-5.32709-4.35427-5.6611-.6987-2.75664-9.8826-9.0648-16.06697-9.45676-9.71868-.61597-21.08175-.60121-21.2227-.21343-.22117-.36982-16.14896 7.01755-22.98077 13.1738-.0124.0112-.0411.0188-.0411.0289z" id="path7476" style="fill-opacity:1;fill:#d5d5ff"/><path d="m272.19169 258.88792c.80943-1.48623 1.35838-4.75934 1.75336-6.96753.0755-.42195.14376 2.11164-.34789 3.72203 2.50484-3.57809 5.36151-7.40366 7.64284-10.60934.11073-.1769-.23631 1.28365 56e-5 1.09001-3.14159 4.2326-6.6203 9.02137-9.04922 12.76484z" class="shadow" id="path7478"/><path id="path7480" class="shadow" d="m270.33492 269.98618c-.16754 2.01348.47911 3.25262.89408 5.36257-.66799-1.59942-1.31544-3.72955-.89408-5.36257z"/><path id="path7624-4-3" d="m314.26 239.89043c2.56768 4.87157.8174 37.51006-9.04307 51.72064-5.75358.80594-8.44058.84589-9.80357.80565 4.05815-1.56081 14.96207-32.00763 11.49205-60.82591.61297-.86743 5.41012 2.93687 7.35459 8.29962z" style="display:inline;fill-opacity:1;fill-rule:evenodd;fill:#000;opacity:1;stroke-dasharray:none;stroke-linecap:butt;stroke-linejoin:miter;stroke-miterlimit:4;stroke-opacity:0;stroke-width:4.11770916;stroke:#000"/><path id="path7624-4-1-6" d="m220.50194 262.84539c-.0571 2.55651-7.84299 41.8538 36.98227 22.8956-23.75544 14.15981-43.84038 4.62628-38.44235-24.05761.55604-.79447 1.29316.31447 1.46008 1.16201z" style="display:inline;fill-opacity:1;fill-rule:evenodd;fill:#000;opacity:1;stroke-dasharray:none;stroke-linecap:butt;stroke-linejoin:miter;stroke-miterlimit:4;stroke-opacity:0;stroke-width:3.75330663;stroke:#000"/><path id="path7618" d="m306.06954 272.51997c-55.48541 4.77478-86.72161-3.27303-88.34702-4.18304-.99529-.55723-.15463-6.12683.59094-9.80907 1.95857-1.47206 4.70175-2.69705 4.80001-3.04044 2.2635-.0416 53.68943-5.77635 85.39725 4.6227.80388.79688-2.42032 9.47259-2.44118 12.40985z" style="display:inline;fill-opacity:1;fill-rule:evenodd;fill:#000;opacity:1;stroke-dasharray:none;stroke-linecap:butt;stroke-linejoin:miter;stroke-miterlimit:4;stroke-opacity:0;stroke-width:4.73222637;stroke:#000"/><path id="path7624-4-1" d="m219.81779 260.48323c-.0596 2.79631-8.51531 45.82255 38.27708 25.08612-24.79794 15.48796-45.43615 5.01724-39.80123-26.35712.58044-.869 1.3499.34397 1.52415 1.271z" style="display:inline;fill-opacity:1;fill-rule:evenodd;fill:#5d536c;opacity:1;stroke-dasharray:none;stroke-linecap:butt;stroke-linejoin:miter;stroke-miterlimit:4;stroke-opacity:0;stroke-width:4.01059341;stroke:#000"/><path id="path7634-2-3" d="m221.87111 257.56885c2.63535 2.76632 48.41286-26.43102 46.52614-28.58557-2.11181 1.18487-6.73066 2.03054-10.64633 6.20995-5.64065 5.43116-16.17465 11.71443-26.54523 17.3381-4.9667 2.69329-8.55411 3.81793-9.33458 5.03752z" style="display:inline;fill-opacity:1;fill-rule:evenodd;fill:#000;opacity:1;stroke-dasharray:none;stroke-linecap:butt;stroke-linejoin:miter;stroke-miterlimit:4;stroke-opacity:0;stroke-width:2.91385651;stroke:#000"/><path id="path7624" d="m305.54914 271.80314c-17.23232 1.32704-29.25678 1.53187-41.99192 1.15785-4.78347-.1405-9.22818-.36265-13.31797-.63769-20.19899-1.35836-31.74042-4.00651-32.67689-4.4757-1.00411-.50307.2288-5.74089.81084-8.95961 1.37388-.98699 4.68902-2.68999 4.78682-2.99584 2.27112-.0373 52.80739-4.94801 84.62229 4.38933.8066.71554-2.21223 8.88428-2.23317 11.52166z" style="display:inline;fill-opacity:1;fill-rule:evenodd;fill:#5d536c;opacity:1;stroke-dasharray:none;stroke-linecap:butt;stroke-linejoin:miter;stroke-miterlimit:4;stroke-opacity:0;stroke-width:4.49171782;stroke:#000"/><path id="path7626" d="m297.20293 265.8634c-12.13391 5.17264-20.3276-4.88042-19.85498-4.77237 8.73038 5.06356 11.36996 4.11825 19.85498 4.77237z" style="display:inline;fill-opacity:1;fill-rule:evenodd;fill:#ffd42a;opacity:1;stroke-dasharray:none;stroke-linecap:butt;stroke-linejoin:miter;stroke-miterlimit:4;stroke-opacity:0;stroke-width:2.30332828;stroke:#000"/><path id="path7630" d="m290.52853 270.36296c-14.22968-2.98532-3.81674-12.35167-3.72-12.06743-2.74691 6.91508.0827 7.66214 3.72 12.06743z" style="display:inline;fill-opacity:1;fill-rule:evenodd;fill:#ffd42a;opacity:1;stroke-dasharray:none;stroke-linecap:butt;stroke-linejoin:miter;stroke-miterlimit:4;stroke-opacity:0;stroke-width:2.30332828;stroke:#000"/><path id="path7634" d="m231.66465 264.34451c12.13391 5.17264 20.3276-4.88043 19.85498-4.77237-8.73038 5.06356-11.36997 4.11825-19.85498 4.77237z" style="display:inline;fill-opacity:1;fill-rule:evenodd;fill:#ffd42a;opacity:1;stroke-dasharray:none;stroke-linecap:butt;stroke-linejoin:miter;stroke-miterlimit:4;stroke-opacity:0;stroke-width:2.30332828;stroke:#000"/><path id="path7632" d="m278.85039 269.99171c-.77571-8.6088 18.4748-6.85836 18.05315-6.69588-12.26653 1.28858-12.36044 3.06088-18.05315 6.69588z" style="display:inline;fill-opacity:1;fill-rule:evenodd;fill:#ffd42a;opacity:1;stroke-dasharray:none;stroke-linecap:butt;stroke-linejoin:miter;stroke-miterlimit:4;stroke-opacity:0;stroke-width:2.30332828;stroke:#000"/><path id="path7638" d="m250.01719 268.47282c.77571-8.60881-18.47481-6.85836-18.05315-6.69588 12.26653 1.28858 12.36044 3.06087 18.05315 6.69588z" style="display:inline;fill-opacity:1;fill-rule:evenodd;fill:#ffd42a;opacity:1;stroke-dasharray:none;stroke-linecap:butt;stroke-linejoin:miter;stroke-miterlimit:4;stroke-opacity:0;stroke-width:2.30332828;stroke:#000"/><path id="path7636" d="m238.33904 268.84407c14.22969-2.98533 3.81675-12.35167 3.72001-12.06743 2.74691 6.91508-.0827 7.66214-3.72001 12.06743z" style="display:inline;fill-opacity:1;fill-rule:evenodd;fill:#ffd42a;opacity:1;stroke-dasharray:none;stroke-linecap:butt;stroke-linejoin:miter;stroke-miterlimit:4;stroke-opacity:0;stroke-width:2.30332828;stroke:#000"/><path id="path7640" d="m261.88679 272.02054c1.19478-.74987 2.75731-4.51324 3.78777-6.19006 2.68575-.85035 4.35711-.77644 4.39752-1.10196.0481-.38764-3.31928-.42478-4.13257-1.262-.51667-2.05353-.42159-6.87694-.44349-6.78963-.70486.91132-1.58769 4.67544-2.64133 6.46183-2.4331 1.20025-4.71437 1.0547-4.73825 1.25692-.0273.23103 2.99219.48575 4.11606 1.29413.18308 1.40574-.4513 4.15339-.34571 6.33077z" style="display:inline;fill-opacity:1;fill-rule:evenodd;fill:#d4aa00;opacity:1;stroke-dasharray:none;stroke-linecap:butt;stroke-linejoin:miter;stroke-miterlimit:4;stroke-opacity:0;stroke-width:2.30332828;stroke:#000"/><path id="path7624-4" d="m313.98379 239.07109c1.66117 4.08555 1.16428 37.02172-9.29987 52.92766-5.44827.8074-6.9403.51341-8.23096.4731 3.82419-1.45786 14.20031-31.77881 11.17989-60.93605.58044-.869 4.50965 2.16283 6.35094 7.53529z" style="display:inline;fill-opacity:1;fill-rule:evenodd;fill:#5d536c;opacity:1;stroke-dasharray:none;stroke-linecap:butt;stroke-linejoin:miter;stroke-miterlimit:4;stroke-opacity:0;stroke-width:4.01059341;stroke:#000"/><path id="path7634-2" d="m220.96697 257.36127c2.34305 2.4595 48.4296-26.12388 46.75214-28.03946-1.51849.6562-6.79413 1.70487-10.2755 5.42073-5.01502 4.82877-18.95706 13.14002-28.1774 18.13994-4.41582 2.39457-7.60534 3.39447-8.29924 4.47879z" style="display:inline;fill-opacity:1;fill-rule:evenodd;fill:#5d536c;opacity:1;stroke-dasharray:none;stroke-linecap:butt;stroke-linejoin:miter;stroke-miterlimit:4;stroke-opacity:0;stroke-width:2.59066939;stroke:#000"/></g></svg>