<svg viewBox="0 0 560 1e3"><path id="path1899" class="hair" d="m345.1 109.5599c-2.40991 42.16334 1.26598 28.16096-19.23402 61.45269-1.89066-.99898-7.3595-39.84872-23.51619-42.23238-22.75811-3.35759-15.65258 41.88669-20.33113 32.99837-15.13336-18.81342-21.04419-4.90315-18.4681-30.62072 2.98982-29.84794 19.14314-57.367236 45.24944-52.264691 33.3 6.5136 33.8 15.015998 36.3 30.666731"/><path id="path1899-6-7" class="hair" d="m339.64662 162.99486c-9.62117-1.92386-11.36232-26.25302-.75186-33.60637 9.034 5.91109 7.9605 35.04781.75186 33.60637z"/><path id="path1899-6-3" class="hair" d="m341.62885 145.92101c-9.62117-1.92386-11.36232-26.25302-.75186-33.60637 9.034 5.91109 7.9605 35.04781.75186 33.60637z"/><path id="path1899-6-6" class="hair" d="m331.5122 178.27144c11.64629 2.906 4.48115 17.53971 1.13885 23.95468-10.4098-12.3087-11.29799-20.44602-1.13885-23.95468z"/><path id="path1899-6-6-3" class="hair" d="m328.82845 163.58755c-9.42252-2.97604-8.99733-31.51148 2.2358-39.29117 8.48282 7.58643 4.82401 41.52094-2.2358 39.29117z"/><path id="path1899-6-7-1" class="hair" d="m335.88792 182.0273c-9.62117-1.92386-11.36232-26.25302-.75186-33.60637 9.034 5.91109 7.9605 35.04781.75186 33.60637z"/><path id="path1899-6-7-7" class="hair" d="m327.13792 182.2773c-9.62117-1.92386-11.36232-26.25302-.75186-33.60637 9.034 5.91109 7.9605 35.04781.75186 33.60637z"/><path id="path1899-6-6-2" class="hair" d="m277.1372 174.19788c11.64629 2.906 4.48115 17.53971 1.13885 23.95468-10.4098-12.3087-11.29799-20.44602-1.13885-23.95468z"/><path id="path1899-6-7-1-7" class="hair" d="m281.51292 177.95374c-9.62117-1.92386-11.36232-26.25302-.75186-33.60637 9.034 5.91109 7.9605 35.04781.75186 33.60637z"/><path id="path1899-6-7-7-4" class="hair" d="m272.76292 178.20374c-9.62117-1.92386-11.36232-26.25302-.75186-33.60637 9.034 5.91109 7.9605 35.04781.75186 33.60637z"/></svg>