<svg viewBox="0 0 560 1e3"><path d="m330.9668 93.777344c-.12508-.0038-.25394.0014-.38672.01563-.1742.05124-.34239.140041-.50196.259765-2.28712 1.725173-2.93649 9.986381.99219 9.675791-.002 1.29129.25108 2.51029.81836 3.3164-.47161 1.94037-.43036 4.27065.39453 5.63672-.44782 1.86156-.41853 4.07071.31446 5.44922-.0817.33348-.14314.68044-.19336 1.03125-5.4581-14.88559-17.05483-20.485828-29.08203-11.56056-11.51103 1.77529-22.22586 20.84306-18.66407 32.80469-1.43674 4.13033-2.41394 8.94124-2.81054 14.33398-.20735-.16183-.43642-.30049-.68946-.41406-.17507-.0445-.35263-.0505-.53125-.0234-2.56273.39553-5.24216 7.74429-1.50586 9.53516-.32582 1.20145-.39618 2.4705-.0703 3.52149-.92619 1.55716-1.47018 3.74821-1.04492 5.45703-.88425 1.49636-1.41273 3.5685-1.07617 5.24023-1.10622 1.8503-1.68757 4.62786-.7168 6.39063-.96055 1.88972-1.35603 4.4625-.33984 6.07226-.98612 1.8394-1.45773 4.40181-.54102 6.06641-.93425 1.80049-1.36381 4.24831-.52344 5.88476-.95445 1.96487-1.29283 4.59851-.11718 6.14844-1.2359 1.96031-1.86076 5.07247-.58594 6.8457-1.11691 2.57808-1.19966 6.07654 1.66211 6.90625 2.82242 1.0434 4.83764-4.78637 3.23242-8.02539.70983-1.77427.83145-4.14614-.0332-5.80859 1.07079-1.59276 1.5149-4.30196.78906-6.32031.81289-1.64799 1.06704-4.00285.38476-5.78516.92096-1.71094 1.2161-4.30691.4043-6.17578.90941-1.65205 1.22626-4.15696.50781-6.02734.68673-1.31188 1.01939-3.1201.77344-4.73047.93532-1.36335 1.40187-3.57613 1.05274-5.4668.0491-.0726.0903-.15723.13671-.23437.74462 2.44871 1.81077 4.68072 3.15626 6.63281-.59374 1.36226-.89423 2.97731-.6211 4.33398-1.10624 1.8503-1.68953 4.62786-.71875 6.39063-.96055 1.8897-1.35602 4.46055-.33984 6.07031-.98611 1.83941-1.45773 4.40377-.54102 6.06836-.93425 1.8005-1.36185 4.2483-.52148 5.88476-.95445 1.96488-1.29479 4.5985-.11914 6.14844-1.2359 1.9603-1.86076 5.07054-.58594 6.84375-1.11691 2.5781-1.19771 6.07851 1.66406 6.9082 2.8224 1.0434 4.83764-4.78637 3.23242-8.02539.70983-1.77426.83144-4.14614-.0332-5.80859 1.07078-1.59276 1.51295-4.30196.78711-6.32031.81289-1.64798 1.06705-4.00285.38477-5.78516.92096-1.71093 1.21805-4.30887.40625-6.17773.90941-1.65205 1.22431-4.15501.50586-6.02539.68673-1.31187 1.01938-3.1201.77343-4.73047.16667-.24295.31236-.52026.44727-.81055.91771.70399 1.8824 1.32569 2.88867 1.86133-.0353.52829-.0175 1.04841.0801 1.5332-1.10623 1.85029-1.68756 4.6259-.7168 6.38867-.96055 1.8897-1.35603 4.46251-.33984 6.07227-.98612 1.83942-1.45774 4.40181-.54102 6.06641-.93426 1.80048-1.36382 4.2483-.52344 5.88476-.95446 1.96488-1.29284 4.60044-.11718 6.15039-1.2359 1.9603-1.86075 5.07053-.58594 6.84375-1.11689 2.57809-1.19772 6.07851 1.66406 6.90821 2.8224 1.04339 4.83763-4.78833 3.23242-8.02735.70984-1.77426.82949-4.14419-.0351-5.80664 1.07078-1.59277 1.51489-4.30391.78906-6.32226.81288-1.648 1.06706-4.00285.38477-5.78516.92096-1.71093 1.2161-4.30692.40429-6.17578.90942-1.65205 1.22626-4.15697.50782-6.02735.68671-1.31187 1.01936-3.12009.77343-4.73046.20373-.29697.37953-.64037.53516-1.00586 3.74338.73528 7.7301.38088 11.58594-1.28907-.7254 1.73938-.98371 3.86084-.1875 5.30664-.96054 1.88971-1.35604 4.46251-.33985 6.07227-.98612 1.8394-1.45577 4.40181-.53906 6.06641-.93425 1.80049-1.36382 4.2483-.52344 5.88476-.95446 1.96487-1.29479 4.60046-.11914 6.15039-1.2359 1.96031-1.8588 5.07053-.58398 6.84375-1.1169 2.57809-1.19966 6.07851 1.66211 6.90821 2.8224 1.04339 4.83764-4.78834 3.23242-8.02735.70983-1.77427.83144-4.14418-.0332-5.80664 1.07078-1.59275 1.51293-4.30391.78711-6.32226.81288-1.64798 1.06704-4.00285.38476-5.78516.92095-1.71094 1.21805-4.30691.40625-6.17578.90941-1.65204 1.22431-4.15696.50586-6.02735.68673-1.31187 1.01939-3.12009.77344-4.73046.8085-1.17851 1.26466-2.99037 1.14843-4.68164.14133-.13011.27976-.26968.41993-.4043.0621.16952.12159.34096.20703.49609-.96056 1.88971-1.35603 4.46252-.33985 6.07227-.98611 1.83941-1.45772 4.4018-.54101 6.0664-.93426 1.80048-1.36186 4.25026-.52149 5.88672-.95445 1.96487-1.2948 4.59851-.11914 6.14844-1.2359 1.96031-1.86074 5.07053-.58593 6.84375-1.1169 2.57808-1.19771 6.0785 1.66406 6.9082 2.8224 1.04339 4.83764-4.78637 3.23242-8.02539.70984-1.77426.83145-4.14613-.0332-5.80859 1.07079-1.59276 1.51294-4.30392.78711-6.32227.81288-1.64798 1.06705-4.00284.38476-5.78515.92096-1.71094 1.21806-4.30691.40625-6.17578.90941-1.65204 1.22431-4.15501.50586-6.02539.68673-1.31189 1.01938-3.12206.77344-4.73243.89328-1.3021 1.35011-3.37589 1.08594-5.20703.0611-.12208.12313-.24357.18359-.36719.0446.7336.21838 1.42346.57617 1.99024-.98612 1.8394-1.45577 4.40182-.53906 6.06641-.93425 1.80049-1.36383 4.2483-.52344 5.88476-.95447 1.96487-1.2948 4.59851-.11914 6.14844-1.2359 1.96031-1.85879 5.07248-.58398 6.8457-1.11689 2.57809-1.19966 6.07654 1.66211 6.90625 2.82241 1.04339 4.83764-4.78637 3.23242-8.02539.70984-1.77427.83145-4.14419-.0332-5.80664 1.07079-1.59277 1.51294-4.30392.78711-6.32227.81288-1.64798 1.06705-4.00283.38476-5.78515.92096-1.71094 1.21806-4.30692.40625-6.17578.90942-1.65205 1.2243-4.15696.50586-6.02735.68672-1.31187 1.01938-3.1201.77344-4.73047.10105-.14729.19354-.30895.2832-.4746-.085.97281.0224 1.91897.41602 2.68554-.95445 1.96487-1.29284 4.59851-.11719 6.14844-1.2359 1.96031-1.86076 5.07053-.58594 6.84375-1.11691 2.57809-1.19966 6.07849 1.66211 6.9082 2.8224 1.04339 4.83764-4.78638 3.23242-8.02539.70983-1.77427.83145-4.14613-.0332-5.80859.33202-.49387.59587-1.10104.79101-1.75586.14016.11454.28749.21563.45118.28711-.18824 3.03371.83378 6.20643 3.64258 5.05664 2.84061-.93348 2.8125-7.45746.36914-9.2832.0771-2.04899-.55724-4.24025-1.84766-5.1504.18882-.88117.21136-1.86014.0937-2.80078.52291 1.01519 1.41765 1.58688 2.78906 1.23243 2.89006-.52277 3.30382-7.01736.9961-9.1836.2156-2.02801-.26776-4.30038-1.49024-5.39062.59734-2.05009.33142-4.80945-.85156-6.30469.19606-1.12218.15523-2.35747-.10938-3.45703.25845-1.11644.3066-2.33987.0586-3.4375 1.48446-2.18205 1.78494-6.52668-.53516-8.21289.38855-2.30099-.13065-4.89899-2.16601-5.8125-.17506-.0445-.35262-.0486-.53125-.0215-.0234.004-.0469.0167-.0703.0215-.10261-.4715-.23445-.92673-.42187-1.33203.52877-1.76474.40708-4.07078-.39258-5.64649.54026-1.83669.37783-4.24579-.51172-5.81054.83461-2.81786.025-7.0215-2.55859-7.363281-.20222-2.20162-1.21172-4.224121-3.08789-4.28125zm-57.66602 50.523436c-.0887-.004-.17826.002-.26758.0156-2.56274.39554-5.24214 7.74429-1.50586 9.53515-.32581 1.20146-.39628 2.47051-.0703 3.52149-.92618 1.55715-1.47017 3.75016-1.04492 5.45898-.88425 1.49635-1.41274 3.56852-1.07617 5.24024-1.10623 1.85031-1.68756 4.6259-.7168 6.38867-.96055 1.8897-1.35602 4.46249-.33984 6.07226-.98611 1.8394-1.45772 4.40182-.54102 6.06641-.93424 1.8005-1.36381 4.24832-.52344 5.88477-.95445 1.96487-1.29284 4.60046-.11718 6.15039-1.2359 1.96031-1.86076 5.07053-.58594 6.84375-1.1169 2.57809-1.1977 6.07849 1.66406 6.9082 2.82241 1.04339 4.83764-4.78834 3.23242-8.02734.70984-1.77429.8295-4.1442-.0352-5.80665 1.0708-1.59277 1.5149-4.30391.78906-6.32226.81289-1.64798 1.06704-4.00284.38477-5.78516.92095-1.71093 1.2161-4.30691.40429-6.17578.90942-1.65205 1.22627-4.15695.50781-6.02734.68674-1.31187 1.01938-3.1201.77344-4.73047.9353-1.36336 1.40187-3.57613 1.05274-5.4668.96407-1.42428 1.4161-3.75357.98046-5.68164 1.48447-2.18206 1.7869-6.52472-.5332-8.21094.38856-2.30098-.1326-4.899-2.16797-5.8125-.0875-.0223-.17495-.0354-.26367-.0391zm65.14844 9.13672c.23208.43439.52763.79384.9082 1.02148-.0982.74801-.12341 1.51365-.0586 2.23243-.21847-.49079-.49074-.92561-.82031-1.26563.0678-.6521.0528-1.3287-.0293-1.98828z" id="path2767" class="hair"/></svg>