<svg viewBox="0 0 560 1e3"><path style="display:inline;fill-opacity:1;fill-rule:evenodd;fill:#000;stroke-dasharray:none;stroke-linecap:butt;stroke-linejoin:miter;stroke-miterlimit:4;stroke-opacity:0;stroke-width:3.22879934;stroke:#000" d="m340.81693 392.34583c12.99663 4.01297 45.48364 44.94317 44.71736 61.11171.26168 1.45465-17.43022 2.32976-18.43626 2.76202-7.62604-18.75096-32.12062-56.30628-26.2811-63.87373z" id="path2679-9"/><path style="display:inline;fill-opacity:1;fill-rule:evenodd;fill:#333;stroke-dasharray:none;stroke-linecap:butt;stroke-linejoin:miter;stroke-miterlimit:4;stroke-opacity:0;stroke-width:3.22879934;stroke:#000" d="m340.76565 392.15744c15.38311 12.76341 43.27393 45.91544 42.50765 62.08398.26168 1.45465-17.43022 2.32976-18.43626 2.76202-7.62604-18.75096-29.91091-57.27855-24.07139-64.846z" id="path2679"/><path style="display:inline;fill-opacity:1;fill-rule:nonzero;fill:#1e1e1e;opacity:1;stroke-width:3.5649364" d="m335.59959 163.79141c2.33952 23.91808-16.00495 43.93004-35.17272 45.23412-11.23214.76419-33.49065-6.17401-43.0993-14.30108-.57665-.48773 6.45269-20.58409 4.79466-30.97764-.34374-8.84109 73.77875-6.53861 73.47736.0446z" id="path4011-5-07"/></svg>