<svg viewBox="0 0 560 1e3"><path id="path6034" d="m368.45236 268.83602c.40069 1.40387.82872 12.89967-6.36035 37.77919-3.17332 10.98206-8.42862 19.50056-12.36545 24.97326-11.87357 37.51165-.33781 66.96398 1.89137 80.32932.0274-.17435-44.85871 18.47256-65.03866 39.41562-4.92627 5.11256-3.48792 15.45153-7.05147 16.69466-13.46483 4.69716-17.71458-10.66263-17.71458-10.66263-6.67546-8.9041-31.17323-37.74254-36.54649-43.43743 5.25011-15.02478 6.73476-17.51758 11.65794-38.45361.558-33.24684 4.55187-49.34551 4.59814-51.17365.54922-21.69994-4.26783-16.7152-5.0413-34.00256.11596-7.75253 1.85986-29.35579 2.55041-29.69867 5.00095-2.4832 43.59968-33.7311 37.70355-54.96633-.63873-.33426 12.15471-1.79775 15.61674-12.32509.72296 1.09511 6.34483-.89312 5.08733 10.24417 1.09292-12.82985 15.23842-9.68708 16.58583-10.38137 3.31448 6.69553 13.14203 12.32798 13.14203 12.32798-9.79403 31.72187 34.98404 60.97377 37.01681 62.09237z" style="display:inline;fill-opacity:1;fill-rule:evenodd;fill:#000;opacity:1;stroke-dasharray:none;stroke-linecap:butt;stroke-linejoin:miter;stroke-miterlimit:4;stroke-opacity:1;stroke-width:0;stroke:#000"/><path id="path6058" d="m368.47602 268.56519c-.47811 3.70196-2.18838 20.64961-7.95729 39.14162-2.53292 8.11918-11.62497 22.94452-11.62497 22.94452-7.67752 17.94294-7.06348 61.90145 2.86096 81.24939-.55664.0414-40.74204 16.9923-62.23155 38.43767-6.29106 6.27814-8.25956 16.59043-8.55295 17.19861-.34473.71459-4.28479 1.02682-6.08184 2.18944-8.64043 5.59002-13.52858-12.764-13.52858-12.764-15.42735-18.27388-33.94517-40.49738-36.13062-42.49408 6.29836-9.7513 13.87956-38.80828 13.86855-39.37667-.4442-22.92329 4.31363-49.92789 4.31363-49.92789 1.07119-21.03281-4.0885-19.94742-4.97753-32.48478-1.01459-11.44597-.13881-24.36703 2.11025-33.40164 1.35717-13.02057 13.08731-41.02714 36.17104-53.69406 7.28553-1.27853 13.7335-3.91594 15.70782-12.26505 1.08324 1.26797 5.12075-.20328 4.91867 10.34746 2.45278-12.78085 16.61307-10.04391 16.79133-10.46241.72243 2.61789 3.90969 9.49289 13.20437 12.23811 7.00739 2.08643 18.51182 3.12161 19.52469 3.39309 20.24025 5.42488 26.63715 33.6283 21.61399 59.73067z" style="display:inline;fill-opacity:1;fill-rule:evenodd;fill:green;opacity:1;stroke-dasharray:none;stroke-linecap:butt;stroke-linejoin:miter;stroke-miterlimit:4;stroke-opacity:1;stroke-width:0;stroke:#000"/><path d="m283.66521 456.38067c-1.54841.73859-1.78928 15.78672-9.24659 11.14886-5.5459 3.1603-10.12915-4.94173-10.42429-8.4126-.25114-2.95343 3.37748-7.20053 3.87403-6.51846 2.14579-.003 16.30971 2.85987 15.79685 3.7822z" class="shadow" id="Body_Unnatural_Pussyshadow-2-9"/><path d="m274.36595 467.58332c-3.81452 2.31718-9.64064-2.27902-10.8644-11.68664 5.95334-21.67633 25.49385-8.31185 20.23612.35499-2.87984 4.74713-3.52005 14.37508-9.37172 11.33165z" id="Body_Unnatural_Pussy-4-6" style="display:inline;fill-opacity:1;fill:green;opacity:1"/><path d="m248.31977 234.89067c32.93553-28.40765 47.9643-31.69157 48.80133-31.84002.28735-.051.52518.97539.6987 1.08111-.40837.29152-12.86827.66365-50.71565 33.48363-.22561.19564 1.41568-2.84573 1.21562-2.72472z" id="Body_Unnatural_Pussy-4-5-5" style="display:inline;fill-opacity:1;fill:#9f5;opacity:1;stroke-width:.91142344"/><path d="m304.38992 204.50158c-1.23533.0332-7.02852-.37855-7.45482-.47791-.4985-.11613-6.40518.11179-7.30701-.22153-.40649-.15014-1.01888-2.14439.38507-2.49972.50635-.009 6.57661 1.67895 6.85933 1.74206.31919.0713 6.15088-1.03088 7.40342-1.25412 1.5094.82056.91004 2.45683.11399 2.71122z" id="Body_Unnatural_Pussy-4-5-7-4-3" style="display:inline;fill-opacity:1;fill:#9f5;opacity:1;stroke-width:1.60637832"/><path d="m276.27981 219.85653c-.46763-.67641-2.30821-4.03241-2.40076-4.30174-.10825-.31494-2.3872-3.52676-2.50651-4.13644-.0538-.27477.96318-1.26173 1.6919-.59592.18882.27875 1.33702 4.20247 1.40013 4.38019.0712.20066 2.86602 3.08742 3.45792 3.71182.0365 1.10556-1.19662 1.30245-1.64268.94208z" id="Body_Unnatural_Pussy-4-5-7-4-5-6" style="display:inline;fill-opacity:1;fill:#9f5;opacity:1;stroke-width:1.09277165"/><path d="m270.24513 223.72541c-.46763-.67641-2.30821-4.03241-2.40076-4.30174-.10825-.31494-2.3872-3.52676-2.50651-4.13644-.0538-.27477.96318-1.26173 1.6919-.59592.18882.27875 1.33702 4.20247 1.40013 4.38019.0712.20066 2.86602 3.08742 3.45792 3.71182.0365 1.10556-1.19662 1.30245-1.64268.94208z" id="Body_Unnatural_Pussy-4-5-7-4-5-0-7" style="display:inline;fill-opacity:1;fill:#9f5;opacity:1;stroke-width:1.09277165"/><path d="m233.71508 393.38244c6.46559-5.57672 13.2712-10.79714 18.40662-14.59283.44352-.32782-2.17387-6.70231-.85061-13.31045 1.17884-5.88691 6.31058-12.08823 6.68931-12.36036.37438-.269-3.42764 8.73407-3.88051 14.27292-.47868 5.85453 2.38876 8.26367 2.76817 7.99858 13.37625-9.34563 21.56019-12.65135 25.06985-13.76489.29678-.0942 7.32185-10.4257 7.5521-10.49084.67293-.19037-5.69867 9.98632-5.58358 9.96591.15981-.0283 12.59027-4.76165 12.7169-4.46726.10107.23498-12.09522 5.50144-12.0182 5.54837-.0622.0444 5.2967 4.24498 4.6275 4.4077-.22009.0535-6.17661-4.03462-6.46914-3.95184-2.03627.57622-5.8682 1.96012-12.06211 5.5262-.30555.17592-.8371 2.51656 1.23701 4.54479 2.58548 2.52828 7.90437 4.84805 7.49085 5.09813-.45512.27524-4.95288-.42717-8.23822-2.29247-3.06956-1.74277-4.93781-4.65949-5.40381-4.36218-5.11744 3.26497-11.44001 7.74259-19.15739 13.8932-.23512.18739-.11954 8.04989 3.13566 12.17786 3.52947 4.47577 10.22216 5.24415 9.96136 5.4544-.27741.22364-7.6948.57452-11.80497-3.51426-3.69456-3.67535-4.12293-11.83739-4.37824-11.62913-3.01704 2.46105-7.24827 5.7822-10.67062 8.74995-.22561.19564 1.06213-3.02251.86207-2.9015z" id="Body_Unnatural_Pussy-4-5-1-6" style="display:inline;fill-opacity:1;fill:#9f5;opacity:1;stroke-width:.91142344"/><path d="m343.79222 360.30767c-3.03178-2.11866-16.76138-13.70433-19.69074-16.28094-.17186-.15117 1.76567-3.41168 2.32807-7.23383.56231-3.82156-.25052-8.20476-.42268-8.35356-.185-.1599-.11064 4.82119-1.03324 8.34989-.91487 3.49916-2.82674 5.54618-3.01045 5.3903-7.58055-6.43247-15.23966-11.72783-21.88067-15.83688-.27415-.16963 1.72764-2.99519 1.95109-5.96044.19916-2.64285-1.37418-5.46092-1.61242-5.60528-.2161-.13094.62361 3.13852-.0466 5.59791-.70489 2.58654-2.9208 4.3699-3.14258 4.23792-7.46144-4.44009-13.27934-7.21612-15.64829-8.24707-.13369-.0582-2.51029-8.68447-2.62168-8.73152-.43655-.18438 1.55447 8.29048 1.48479 8.27812-.14879-.0264-18.75746-7.9841-18.87763-7.7102-.11193.25512 18.26261 8.74033 18.17893 8.79131.0391.0278-5.26377 5.92232-4.79283 6.11275.21977.0889 6.05271-5.59314 6.35975-5.46629 4.06981 1.68128 15.61713 6.7707 29.62522 17.16894.2205.16368-.34296 2.855-3.11509 4.21885-3.38707 1.66639-9.11646 2.05953-8.84386 2.2667.26656.20258 4.90078.87282 8.67703-.32403 3.44039-1.0904 6.05178-4.05985 6.29733-3.86863 4.13349 3.2189 9.53793 8.12345 18.16057 15.46486.28306.241.0507 4.27768-2.17243 6.65282-2.7123 2.8977-7.5244 4.2289-7.15986 4.53731.28371.24003 4.99783.35429 8.17816-1.84884 3.01608-2.08935 4.50596-6.50303 4.7873-6.26636 2.45265 2.06317 5.13631 4.29484 8.08429 6.70786.23108.18914-.10892-1.2346.0469-1.95328z" id="Body_Unnatural_Pussy-4-5-4-9" style="display:inline;fill-opacity:1;fill:#9f5;opacity:1;stroke-width:.91142344"/></svg>