<svg viewBox="0 0 560 1e3"><path style="display:inline;fill-rule:evenodd;fill:none;stroke-dasharray:none;stroke-linecap:butt;stroke-linejoin:miter;stroke-miterlimit:3;stroke-opacity:1;stroke-width:5;stroke:#000" d="m281.12 204.097c1.76287 4.07228 17.19202 8.59932 13.93858 14.2132-.41019-6.01263 28.73216-11.84833 32.29944-14.59546" id="path4574"/><path style="display:inline;fill:none;stroke-dasharray:none;stroke-linecap:butt;stroke-linejoin:miter;stroke-miterlimit:4;stroke-opacity:1;stroke-width:5;stroke:#000" d="m283.20925 457.85928c-10.24818-3.65074-12.19771-8.47811-13.14205-9.13293-3.48868-2.41906-25.29434-31.62162-35.93034-37.68891" id="path4576"/><path style="display:inline;fill:none;stroke-dasharray:none;stroke-linecap:butt;stroke-linejoin:miter;stroke-miterlimit:4;stroke-opacity:1;stroke-width:5;stroke:#000" d="m262.61148 457.66092c.0971-.0743.39896-.14737.48137-.44924.65805-2.41031 8.31304-12.2898 15.48987-17.60178.1214-.0898 31.92814-23.95594 52.99727-31.64452" id="path4578"/><path style="display:inline;fill:none;stroke-dasharray:none;stroke-linecap:butt;stroke-linejoin:miter;stroke-miterlimit:4;stroke-opacity:1;stroke-width:5;stroke:#000" d="m345.69741 401.15953c-27.24808 14.19379-55.9419 22.0963-78.2342 20.34786-12.10128-.94914-22.09783-5.46971-39.64493-13.349" id="path4580"/><path style="display:inline;fill:none;stroke-dasharray:none;stroke-linecap:butt;stroke-linejoin:miter;stroke-miterlimit:4;stroke-opacity:1;stroke-width:5;stroke:#000" d="m284.55365 435.44823c-1.73883-1.23029-10.50162-4.47957-14.45556-11.33521" id="path4582"/><path style="display:inline;fill:none;stroke-dasharray:none;stroke-linecap:butt;stroke-linejoin:miter;stroke-miterlimit:4;stroke-opacity:1;stroke-width:5;stroke:#000" d="m257.50856 434.0939c-.66616.86984 5.23612-2.12224 12.30421-12.26198" id="path4584"/><path style="display:inline;fill:none;stroke-dasharray:none;stroke-linecap:butt;stroke-linejoin:miter;stroke-miterlimit:4;stroke-opacity:1;stroke-width:5;stroke:#000" d="m302.64498 418.60656c-1.73883-1.23029-28.25772-64.88858-28.1458-68.56224" id="path4587"/><path style="display:inline;fill:none;stroke-dasharray:none;stroke-linecap:butt;stroke-linejoin:miter;stroke-miterlimit:4;stroke-opacity:1;stroke-width:5;stroke:#000" d="m242.05481 413.73414c1.44315-2.82128 28.88103-61.16887 29.47236-62.57393" id="path4589"/><path style="display:inline;fill:none;stroke-dasharray:none;stroke-linecap:butt;stroke-linejoin:miter;stroke-miterlimit:4;stroke-opacity:1;stroke-width:5;stroke:#000" d="M268.46363 421.64667C266.7248 420.41638 256.83701 406.5421 253.13307 391.18646" id="path4591"/><path style="display:inline;fill:none;stroke-dasharray:none;stroke-linecap:butt;stroke-linejoin:miter;stroke-miterlimit:4;stroke-opacity:1;stroke-width:5;stroke:#000" d="m268.99849 422.75277c1.26117-1.73029 20.99838-27.35457 19.79444-35.33521" id="path4593"/><path style="display:inline;fill:none;stroke-dasharray:none;stroke-linecap:butt;stroke-linejoin:miter;stroke-miterlimit:4;stroke-opacity:1;stroke-width:5;stroke:#000" d="m271.3845 351.45024c1.44315-2.82128 25.06635-47.38769 25.00149-49.82391" id="path4595"/><path style="display:inline;fill:none;stroke-dasharray:none;stroke-linecap:butt;stroke-linejoin:miter;stroke-miterlimit:4;stroke-opacity:1;stroke-width:5;stroke:#000" d="m275.36922 353.45714c-.78768-2.18144-11.52383-49.82124-11.41191-53.4949" id="path4597"/><path style="display:inline;fill:none;stroke-dasharray:none;stroke-linecap:butt;stroke-linejoin:miter;stroke-miterlimit:4;stroke-opacity:1;stroke-width:5;stroke:#000" d="m263.9236 300.43482c.006-1.50878 17.79935-27.25511 17.73449-29.81633" id="path4599"/><path style="display:inline;fill:none;stroke-dasharray:none;stroke-linecap:butt;stroke-linejoin:miter;stroke-miterlimit:4;stroke-opacity:1;stroke-width:5;stroke:#000" d="m296.4126 301.75098c-.0161-.29344-14.73727-28.71915-14.80213-31.28037" id="path4601"/><path style="display:inline;fill:none;stroke-dasharray:none;stroke-linecap:butt;stroke-linejoin:miter;stroke-miterlimit:4;stroke-opacity:1;stroke-width:5;stroke:#000" d="m349.61222 328.50306c-3.9588-2.30232-51.521-20.19693-53.57459-27.57532" id="path4603"/><path style="display:inline;fill:none;stroke-dasharray:none;stroke-linecap:butt;stroke-linejoin:miter;stroke-miterlimit:4;stroke-opacity:1;stroke-width:5;stroke:#000" d="m243.17058 317.17566c2.51117-.35529 19.70288-14.44911 20.93644-17.17975" id="path4605"/><path style="display:inline;fill:none;stroke-dasharray:none;stroke-linecap:butt;stroke-linejoin:miter;stroke-miterlimit:4;stroke-opacity:1;stroke-width:5;stroke:#000" d="m295.1758 217.75274c-.31725 2.29636-10.084 24.46384-13.6234 53.72979" id="path4607"/><path style="display:inline;fill:none;stroke-dasharray:none;stroke-linecap:butt;stroke-linejoin:miter;stroke-miterlimit:4;stroke-opacity:1;stroke-width:5;stroke:#000" d="m268.99395 324.2539c-2.60871 6.67905-9.59488 19.71997-12.42415 22.36891" id="path4609"/><path style="display:inline;fill:none;stroke-dasharray:none;stroke-linecap:butt;stroke-linejoin:miter;stroke-miterlimit:4;stroke-opacity:1;stroke-width:5;stroke:#000" d="m284.21309 326.02717c.97088 9.18802 6.82201 21.98747 9.20623 23.43433" id="path4611"/><path style="display:inline;fill:none;stroke-dasharray:none;stroke-linecap:butt;stroke-linejoin:miter;stroke-miterlimit:4;stroke-opacity:1;stroke-width:5;stroke:#000" d="m337.6922 348.92809c-.90835-.65545-42.2365 1.94008-64.5288.19164-12.10128-.94914-26.25653-6.45715-28.77761-7.00021" id="path4613"/><path style="display:inline;fill:none;stroke-dasharray:none;stroke-linecap:butt;stroke-linejoin:miter;stroke-miterlimit:4;stroke-opacity:1;stroke-width:5;stroke:#000" d="m281.16309 367.27287c.65966-1.49283 7.87996-15.67051 11.74615-17.51458" id="path4615"/><path style="display:inline;fill:none;stroke-dasharray:none;stroke-linecap:butt;stroke-linejoin:miter;stroke-miterlimit:4;stroke-opacity:1;stroke-width:5;stroke:#000" d="m264.62194 365.51681c-.85495-1.76062-5.3751-18.09137-5.7935-19.11338" id="path4617"/><path style="display:inline;fill:none;stroke-dasharray:none;stroke-linecap:butt;stroke-linejoin:miter;stroke-miterlimit:4;stroke-opacity:1;stroke-width:5;stroke:#000" d="m362.90559 294.65177c-2.878-.55419-51.44138-4.11597-81.76209-21.82716" id="path4619"/><path style="display:inline;fill:none;stroke-dasharray:none;stroke-linecap:butt;stroke-linejoin:miter;stroke-miterlimit:4;stroke-opacity:1;stroke-width:5;stroke:#000" d="m281.67372 270.99797c-2.60871 6.67905-39.88176 16.08868-43.41814 16.6163" id="path4621"/></svg>