<svg viewBox="0 0 560 1e3"><path d="m323.4 161.20001c6-14.4 8.4-24.7 10.6-40.1 4.5-31.300005-16.1-52.400005-42.5-43.900005-34.2 11-29.4 33.100005-26.2 53.700005-1.16906 3.21971-1.63659 6.99403-1.5314 11.02311.14072 5.39012 1.30645 11.23617 3.18876 16.82016 1.79046 5.31154 4.78114 10.47993 7.73853 14.60539C281.69792 183.11628 283.49849 183.95695 286 184c10.1-1.7 28.3-4.2 37.4-22.79999z" class="skin head" id="path931-5"/><path id="path3870-6" class="skin head" d="m270.2908 112.99645c-1.4225 4.9014-1.88887 29.5024-.53882 36.52031 1.47956-7.11284 1.38577-31.39185.53882-36.52031z"/><path id="path3870-6-3" class="skin head" d="m301.92289 111.99651c-1.45797 4.93396-1.79451 32.37496-.19582 39.29685 1.47935-7.13552 1.21215-34.23267.19582-39.29685z"/><path id="path3870-6-3-1" class="skin head" d="m268.06299 162.51285c.67211 2.9928 7.4371 4.63587 15.35582 4.91252 9.21502.32194 19.99243-1.20654 24.54873-4.61171-3.11148 1.52533-7.9117 1.38238-13.01957 1.8267-6.90769.60088-14.89324.15921-20.27091-.63944-4.22098-.62686-6.60586-.38711-6.61407-1.48807z"/><path id="path3870-6-3-8" class="skin head" d="m319.77726 130.67435c-15.21028-12.2342-32.05252-2.31993-31.19791 5.55839 1.56079 3.34866 19.19036 8.33094 31.19791-5.55839z"/><path id="path3870-6-3-8-3" class="skin head" d="m264.98101 130.38769c-.0358-.21636-.83747-4.97382-.95579-5.37959 9.57286-.79207 14.11178 2.60248 14.8648 10.46257-.44381 1.77978-9.41954 6.56306-15.33287 2.44241.0451-1.58318.67339-4.60419 1.42386-7.52539z"/></svg>