<svg viewBox="0 0 560 1e3"><path style="display:inline;fill-opacity:1;fill-rule:evenodd;fill:#eaf;opacity:1;stroke-dasharray:none;stroke-linecap:butt;stroke-linejoin:miter;stroke-miterlimit:4;stroke-opacity:1;stroke-width:0;stroke:#000" d="m298.46108 438.89935c-6.48422 6.26583-11.19704 12.82415-15.33516 19.44716-1.04023 1.75909-1.92047 7.35117-4.50173 9.70959-.97785.89343-3.70051-.0277-4.03805.0431-.91345.19159-2.09488.29968-2.84109.24274-1.3589-.10369-3.10427-.97079-4.62926-2.64607-1.15035-1.26373-2.1753-2.98733-2.81436-5.19001-3.99405-5.27747-10.5589-14.66641-17.49018-23.90539 4.48963 1.85597 9.35646 2.79339 14.73041 2.73225 1.76498-.0201 3.58467-.14788 5.46366-.38622 9.80224 3.87793 21.03947 2.36746 31.45576-.0471z" id="path5950"/><path style="display:inline;fill-opacity:1;fill-rule:evenodd;fill:#000;opacity:1;stroke-dasharray:none;stroke-linecap:butt;stroke-linejoin:miter;stroke-miterlimit:4;stroke-opacity:1;stroke-width:0;stroke:#000" d="m282.94456 458.76549c-.0483.15247-.11284.47208-.19954.90622-.41277 2.06685-1.81439 6.53069-3.87757 8.11265-.26921.20642-1.13559 1.14752-4.57861.28177-.17398-.0437-2.18026 1.1699-4.2783.12449-4.65827-2.32112-6.22252-8.10904-6.31915-8.53686 3.82592 9.08132 8.89939 9.3147 10.40315 7.55401 5.26837 2.79873 7.50839-4.81217 8.85002-8.44228z" id="path5956"/><path id="path5962" d="m252.70414 444.58541c10.94342 1.31488 24.01095 1.50229 40.32871.0811-1.56759 2.01272-3.58281 4.56444-5.24245 6.66295-12.30604 1.16431-22.00263 1.20882-29.81942.51362-2.04934-2.61037-3.63449-4.68604-5.26684-7.25767z" style="display:inline;fill-opacity:1;fill:#eaf;stroke-dasharray:none;stroke-linecap:butt;stroke-linejoin:miter;stroke-miterlimit:4;stroke-opacity:1;stroke-width:0;stroke:#83afc8"/><path id="path5964" d="m262.53421 458.18295c6.22871.31514 13.08896.30377 20.72809-.0971-.87505 2.4389-1.64015 4.66739-2.42955 6.53665-5.25319.34928-9.97649.47387-14.24234.41152-1.68576-1.69159-2.0194-4.59693-4.0562-6.85107z" style="display:inline;fill-opacity:1;fill:#eaf;stroke-dasharray:none;stroke-linecap:butt;stroke-linejoin:miter;stroke-miterlimit:4;stroke-opacity:1;stroke-width:0;stroke:#83afc8"/><path style="display:inline;fill-opacity:1;fill-rule:evenodd;fill:#fff;opacity:1;stroke-dasharray:none;stroke-linecap:butt;stroke-linejoin:miter;stroke-miterlimit:4;stroke-opacity:1;stroke-width:0;stroke:#000" d="m370.58728 282.32833c-.33634 1.07095.008 2.03659-.34043 2.87146-3.46661-.44813-7.51709 1.45319-11.03485 1.05033-2.48965-.28511-5.12455-2.88572-7.62885-3.14801-2.46502-.25819-4.66373 1.93793-7.13424 1.70195-2.60679-.24898-5.48542-2.92878-8.08839-3.15292-3.34007-.28761-6.13034 1.77215-9.44502 1.52569-2.90024-.21563-6.32913-2.74232-9.19452-2.92627-2.82918-.18162-6.04477 2.79351-8.82605 2.64297-2.49159-.13486-4.55431-3.39849-6.99692-3.50829-2.78207-.12506-5.39352 2.4421-8.09821 2.34971-3.09652-.10575-6.27314-2.86593-9.24757-2.92858-3.24909-.0684-6.55434 2.68116-9.63017 2.66449-3.31401-.018-6.38346-2.79803-9.46164-2.75548-2.48175.0343-4.74542 2.53159-7.05277 2.60551-3.00662.0963-5.99279-2.21689-8.66636-2.05288-2.7258.16721-4.5895 2.69662-6.9253 2.93472-2.80639.2861-4.30603-1.70334-6.47922-1.31404-.28425-.78022-.0688-1.6429-.23554-2.57421 13.92719-3.29884 55.72762-6.08171 134.48605 4.01385z" id="path3088-3-0-0-0-2-6-7-4"/><path style="display:inline;fill-opacity:1;fill-rule:evenodd;fill:#fff;opacity:1;stroke-dasharray:none;stroke-linecap:butt;stroke-linejoin:miter;stroke-miterlimit:4;stroke-opacity:1;stroke-width:0;stroke:#000" d="m368.67948 248.88277.78512 6.48176-129.76656-5.29355 1.24873-5.50911c2.77707-1.35916 3.84102-4.26144 7.13431-5.20827 3.86041-1.10988 4.91095 1.43324 9.30891.81708 4.43144-.62084 4.90565-3.74216 9.69392-3.94185 4.5349-.18913 5.49537 1.39878 10.18472 1.51717 1.1464.0289 3.8191-2.1004 7.00049-2.44417 3.1538-.34078 5.93251 2.81672 9.09479 2.95397 3.21425.13951 4.49768-2.65607 7.95361-2.66372 3.02477-.007 4.35719 3.07175 7.2456 3.04709 2.4614-.021 5.35274-2.29174 7.6317-1.72729 3.03139.75082 4.48679 2.99269 6.25862 3.18373 4.26592.45995 5.87768-1.66487 9.89634-1.09895 4.26088.60003 4.01494 2.9234 7.84621 3.57825 4.07352.69626 5.56199-1.68879 8.96783-1.00774 3.73837.74755 5.78747 3.92003 8.72688 4.99337 2.10551.76885 4.84148.11176 6.56056.43594 2.94435.55525 4.27283 1.76733 4.22822 1.88629z" id="path3180-8-0-7"/><path style="display:inline;fill-opacity:1;fill-rule:evenodd;fill:#eaf;opacity:1;stroke-dasharray:none;stroke-linecap:butt;stroke-linejoin:miter;stroke-miterlimit:4;stroke-opacity:1;stroke-width:0;stroke:#000" d="m368.85626 250.65054c-.22975 1.20922 3.99828 18.69523 1.56371 32.65284-47.80933-4.89707-113.29387-7.64473-134.08321-4.69382-1.07215-11.48092 4.25646-32.27992 4.25646-32.27992 35.4828-12.61017 72.55125-7.08545 128.26304 4.3209z" id="path3180-8-2"/><path id="path1686-7-77-70-6-0-7-3-8-7-7-1" d="m290.14177 246.27599c-.43658-.0293-2.89403.0864-4.39545-.96712-4.23584-2.97227-6.36151-4.89988-6.9134-4.94764-2.58381 4.78237.73382 8.24751-.31835 9.15879-2.40628 2.0841-3.27314 4.05494-3.28975 7.68013-.001.29722-5.81241.60726-5.78424.9026.0279.29232 5.8946.57053 5.95259.8589.0789.39408.18647.78439.32381 1.16896.0922.25838-8.35098 1.68375-8.23132 1.9364.13259.27981 8.83117-.61381 8.9984-.34255.25529.41405.55165.81726.89119 1.20684.13535.15527-4.31537 2.27192-4.16611 2.42276.13199.13343 4.86246-1.6985 5.00546-1.56891 4.58727 4.42846 14.45557 5.34722 21.366 2.1051.18921-.11057 4.12536 2.94182 4.30148 2.82217.18936-.12863-3.38234-3.42996-3.20792-3.56848.40952-.32531.77804-.67713 1.10658-1.0516.16384-.18668 7.30624 2.64029 7.45029 2.44283.18746-.25701-6.63031-3.54202-6.47582-3.81542.27748-.49102.5022-1.00679.67582-1.5412.0765-.23526 5.60264.54382 5.6594.30183.0517-.22082-5.36428-1.46216-5.32869-1.68773.56643-3.58837.94802-5.55783-1.48281-8.07844-1.19133-1.23532 2.44857-2.30831 1.76431-8.27865-1.47041.0848-4.39258 1.2686-9.7088 2.99542-1.47803.48009-3.46066-.13197-4.19298-.15503z" class="skin"/></svg>