<svg viewBox="0 0 560 1e3"><path d="m245.79689 232.13385c-13.52893 22.92539-14.89536 58.85038-12.09381 85.07845.82222 7.07373-12.75875 31.08943-16.18521 61.48653-.62455 15.6822 3.07067 33.54851 10.30432 41.76736 7.70225 11.48232 23.28994 30.95333 35.85398 37.1125 4.19505 3.59751 7.69563 8.97276 12.37124 10.72841 1.96441-4.71239 3.73237-10.61548 7.86765-14.44084 15.06094-15.70168 53.17525-30.24957 77.19757-35.27333 24.04326-15.85449 7.67486-58.67177 3.60939-70.22439 2.75224-20.78129 10.1133-52.00089 6.10901-84.60917" class="shadow" id="path7231"/><path id="path7238" class="skin torso" d="m273 208.2s-17.0052.58769-27.7052 24.58769-14.27513 62.93553-9.58934 85.06586c-6.05901 19.54468-16.06003 48.22589-16.4745 61.73706-1.09271 11.59875.83705 24.91633 5.2162 33.84828 2.01287 3.95273 3.47051 6.5607 5.86517 9.40259 5.77491 9.18693 28.0761 34.97087 45.48767 44.55852 8.9-18.2 25.73844-35.43369 85.69835-47.93744 19.59079-20.7041 5.48716-62.53675 1.3616-72.45817 2.27853-9.60652 9.83314-37.72721 7.47614-79.4941 1.64442-13.7063-1.25277-27.61695-4.63609-37.81029-11.7-21.9-21.9-21-21.9-21-32.6-3.4-28.15-11.875-30.6-50.1l-22.3 1c-.35 44-2.8 39.9-17.9 48.6"/><path id="path7240" class="shadow" d="m283.66521 456.38067c-1.54841.73859-1.78928 15.78672-9.24659 11.14886-5.5459 3.1603-10.12915-4.94173-10.42429-8.4126-.25114-2.95343 3.37748-7.20053 3.87403-6.51846 2.14579-.003 16.30971 2.85987 15.79685 3.7822z"/><path id="path7253" class="skin torso" d="m274.36595 467.58332c-3.81452 2.31718-9.64064-2.27902-10.8644-11.68664 5.95334-21.67633 25.49385-8.31185 20.23612.35499-2.87984 4.74713-3.52005 14.37508-9.37172 11.33165z"/><path style="display:inline;fill-opacity:1;fill-rule:nonzero;fill:#000;stroke-dasharray:none;stroke-linecap:butt;stroke-linejoin:miter;stroke-miterlimit:4;stroke-opacity:1;stroke-width:0;stroke:#000" d="m347.13398 420.49104c-32.75198 14.03698-65.48424 24.91567-80.17912 16.90739-20.83059 4.09365-37.16498-9.93587-42.26678-23.86238 4.26478 15.21833 21.37989 28.69787 42.28057 25.52878 17.15312 7.09449 47.5212-3.15592 80.16533-18.57379z" id="path7254"/><path style="display:inline;fill-opacity:1;fill-rule:nonzero;fill:#000;stroke-dasharray:none;stroke-linecap:butt;stroke-linejoin:miter;stroke-miterlimit:4;stroke-opacity:1;stroke-width:0;stroke:#000" d="m363.51926 346.71833c-.21437.0622.19258 1.0796.0585 1.26722-4.55196 6.36982-19.79686 13.94142-22.25581 16.13334 1.7124-2.30461 20.21985-12.75701 21.94736-17.77556z" id="path7254-3-0"/><path class="bellybutton" d="m271.54026 376.44844c.0782 1.21363-.39233 3.20481-1.35826 3.28497-.96592.0802-1.48021-1.74966-1.55841-2.96328-.0782-1.21363.42001-3.09486 1.38594-3.17502.96593-.0802 1.45253 1.6397 1.53073 2.85333z" id="path5405-7-9-0-4-6-8-4-7"/></svg>