<svg viewBox="0 0 560 1e3"><path id="path4596" class="shadow" d="m274.8 433.8c20.7-1.5 47.7-4.5 61.9-42.4 13.1-44.3-27.8-99.6-59.9-101.5-40.1 6.2-61.8 42.8-63.9 96.9 2.2 31 33.1 49 61.9 47z"/><path id="path4598" class="skin" d="m274.8 433.8c20.8.1 49.4-13 61.9-42.4s-18.5-83.4-46-101.7c-6.5-4.3-38.7-8.2-40.4.0-2.6 11.6-44.9 33.3-41.4 96.8 1.8 34.8 45.1 47.2 65.9 47.3z"/><path id="path4600" d="m249.83484 395.7339a3.0999447 2.7999501 78.497917 01-2.12558 3.59601 3.0999447 2.7999501 78.497917 01-3.36186-2.47937 3.0999447 2.7999501 78.497917 012.12558-3.59601 3.0999447 2.7999501 78.497917 013.36186 2.47937z" class="areola"/></svg>