<svg viewBox="0 0 560 1e3"><path d="m283.66521 456.38067c-1.54841.73859-1.78928 15.78672-9.24659 11.14886-5.5459 3.1603-10.12915-4.94173-10.42429-8.4126-.25114-2.95343 3.37748-7.20053 3.87403-6.51846 2.14579-.003 16.30971 2.85987 15.79685 3.7822z" class="shadow" id="path3878"/><path d="m274.36595 467.58332c-3.81452 2.31718-9.64064-2.27902-10.8644-11.68664 5.95334-21.67633 25.49385-8.31185 20.23612.35499-2.87984 4.74713-3.52005 14.37508-9.37172 11.33165z" class="skin torso" id="path3880"/><path style="display:inline;fill-opacity:1;fill:#500;stroke-dasharray:none;stroke-linecap:butt;stroke-linejoin:miter;stroke-miterlimit:4;stroke-opacity:1;stroke-width:0;stroke:#000" d="m268.15022 466.84042c1.97544 1.15064 3.44304 1.50895 6.29117.74829 1.48394 1.11892 3.67809 1.01117 5.52348-.15189 7.82224-13.26047 17.50609-22.59748 28.5432-30.20656 15.92414-7.32512 35.65563-13.9168 53.63813-16.61521 1.23117-3.1619 1.68227-3.76161 2.13393-4.78976-6.98714 2.20071-22.51132 7.70378-29.76675 10.33389-24.29445 8.80678-49.30882 19.5271-67.78558 12.72247-9.19987 1.7019-17.1878-.81844-23.32533-3.95341-4.55174-2.32496-10.86997-4.23668-19.09203-20.26188.42664 8.69013 22.80751 34.79862 43.83979 52.17406z" id="path3882"/><path style="display:inline;fill-opacity:1;fill:#2b0000;stroke-dasharray:none;stroke-linecap:butt;stroke-linejoin:miter;stroke-miterlimit:4;stroke-opacity:1;stroke-width:0;stroke:#000" d="m275.25299 462.86252c-6.58379-2.05713-8.97807-13.24652-9.4981-23.86278-1.07418.15185-1.78047.0916-3.12071.37515.10978 11.93368 2.68079 23.93364 12.61881 23.48763z" id="path3884"/><path style="display:inline;fill-opacity:1;fill:#2b0000;stroke-dasharray:none;stroke-linecap:butt;stroke-linejoin:miter;stroke-miterlimit:4;stroke-opacity:1;stroke-width:0;stroke:#000" d="m232.01359 429.27083c.26572-.3522.52338-.70987.7725-1.07137-.29849-.3272-.7716-.94227-.7716-.94227-.30788.45912-.65581.94298-1.00603 1.40214.31554.91926.31461.36013 1.00513.6115z" id="path3886"/><path id="path3888" class="shadow" d="m308.2039 435.78241s-21.36416 18.05915-22.90518 20.89604c6.85085-6.07995 28.65766-22.84858 28.65766-22.84858z"/><path id="path3890" class="shadow" d="m262.16576 457.53039c-6.81704-9.41592-28.83006-31.99347-34.93819-34.15183 5.05404 5.44075 26.5203 25.35081 34.93819 34.15183z"/><path d="m262.98857 459.03749c4.57815 9.39542 7.95428 8.94718 11.45233 8.01034.29456-.0789 5.02218 4.77996 9.26343-8.71666-1.38475 8.70911-4.94655 11.74021-9.3291 9.59651-.0226-.0111-2.82256 1.04466-4.71233.003-2.95847-1.63089-6.486-5.681-6.67433-8.8931z" class="shadow" id="path3892"/><path id="path3894" d="m335.37111 425.83232c8.90478-2.06457 25.79776-6.87759 27.68022-6.82607.17382-1.68154 1.0928-2.2079.8411-3.10989-1.75576.62762-16.10436 3.44602-28.52132 9.93596z" style="display:inline;fill-opacity:1;fill:#2b0000;stroke-dasharray:none;stroke-linecap:butt;stroke-linejoin:miter;stroke-miterlimit:4;stroke-opacity:1;stroke-width:0;stroke:#000"/><path id="path5105-9-0-7-3-3-7-8" d="m314.29363 275.41775c-11.17521-9.01494-12.4097-15.14101-7.89117-19.74018 4.39197-3.8424 6.88957 2.34093 7.73764 2.30651.91083-.037 3.81637-6.6957 8.90989-1.10433 1.95047 3.23747 3.85989 8.22888-8.75638 18.538z" style="display:inline;fill-opacity:1;fill:maroon;opacity:1"/><path id="path5108-0-36-8-9-1-3-0" d="m250.89207 252.6388c2.17936 3.1811 1.53948 6.60232-.25668 9.35142-1.76376 4.04756-8.95235 7.38221-13.05084 10.98292-.31955-.6623-.43976-2.94107-.17968-5.70202.36114-3.83527.82687-8.67702 1.38235-11.41026.0255-.12488.018-.28223.10023-.35303.41452-.35698 2.14562-2.10082 3.35102-3.0726 1.76992-1.42689 2.65742-1.49977 3.54382-1.65913.96726-.17389-1.036 1.82822-.91963 2.00476.16707.10437 4.61931-2.05348 6.02941-.14206z" style="display:inline;fill-opacity:1;fill:maroon;opacity:1;stroke-width:1.0654707"/></svg>