<svg viewBox="0 0 560 1e3"><path id="path1960" d="m370.51486 269.33602c.23724.8312-.5766 5.28861-2.26041 13.52511-33.60787-4.288-103.68903-11.96778-131.86236-5.34633.1469-4.00388.13267-11.53731 1.15586-14.24717.24324-.11759 7.25265-2.21917 7.67385-2.50366 12.96984-34.21324 14.33596-34.51518 31.51367-55.13078-.20578-.10769.98637-.32991 2.81284-.93373-14.26623 35.27571-10.07743 51.97809-1.78824 61.45129 10.93146-7.63158 34.10888-19.71829 53.08715-60.31847 2.65591.76603 5.77773 1.30178 5.77773 1.30178 1.90789 18.32918-.0619 41.08452 3.67362 52.92764 3.54725 3.99043 26.59816 6.10404 30.21629 9.27432z" style="display:inline;fill-opacity:1;fill-rule:evenodd;fill:#000;opacity:1;stroke-dasharray:none;stroke-linecap:butt;stroke-linejoin:miter;stroke-miterlimit:4;stroke-opacity:1;stroke-width:0;stroke:#000"/><path id="path1962" d="m370.53852 269.06519c-.23212 1.79731-1.46179 6.53999-2.59824 13.24253-48.30237-7.27876-109.55684-10.44159-130.56058-6.05551-.7082-2.93964.3045-12.75865.3045-12.75865s7.0379-2.10309 7.78836-2.50793c11.82416-30.55624 14.58742-35.11847 31.24259-55.40231.84544-.17546 1.70483-.38601 2.56536-.63893-16.81405 40.48467-8.02175 52.76388-1.59072 61.62392 17.19358-10.88851 38.35632-25.50945 53.62911-60.61021 1.9144.66913 3.96656.65204 5.47599 1.11851-.47031 15.65219.792 46.91864 3.02614 53.74685 3.55484 2.53922 23.78535 6.08886 30.71749 8.24173z" style="display:inline;fill-opacity:1;fill-rule:evenodd;fill:#fff;opacity:1;stroke-dasharray:none;stroke-linecap:butt;stroke-linejoin:miter;stroke-miterlimit:4;stroke-opacity:1;stroke-width:0;stroke:#000"/><path style="display:inline;fill-opacity:1;fill-rule:evenodd;fill:#92b5c9;opacity:1;stroke-dasharray:none;stroke-linecap:butt;stroke-linejoin:miter;stroke-miterlimit:4;stroke-opacity:1;stroke-width:0;stroke:#000" d="m369.22893 276.30359c-.36918 1.80415-.77195 3.88148-1.16365 6.19163-48.30237-7.27876-109.75712-10.46683-130.76086-6.08075-.069-.4883-.34453-4.39605-.1139-6.11317 28.97645-5.96462 109.56573 1.85208 132.03841 6.00229z" id="path1944-5-2-8-6"/><path style="display:inline;fill-opacity:1;fill-rule:evenodd;fill:#92b5c9;opacity:1;stroke-dasharray:none;stroke-linecap:butt;stroke-linejoin:miter;stroke-miterlimit:4;stroke-opacity:1;stroke-width:0;stroke:#000" d="m275.3075 263.17949c-15.5547-.0617-30.42964 1.24273-38.15901 2.83939.005-.3433.14997-1.96737.31884-2.43564 1.96052-.81732 7.63798-2.34161 7.99185-2.72606.5763-1.29429.72688-1.72419.94882-2.30238 7.24698-.76586 16.11763-1.11114 25.86119-1.06368 1.0929 2.28123 2.22717 4.5625 3.03831 5.68837zm64.55138-2.47738c2.63643 2.29632 28.58714 7.33482 30.67091 8.37671.0.0-.15278 1.26516-.27245 1.96334-27.74868-4.13636-61.7597-7.21255-87.50424-7.76809-.23575-.005 7.90377-5.4459 7.79093-5.46476 16.90013.49494 34.58228 1.54368 49.31485 2.8928z" id="path1944-5-5-2-3-5"/><path style="display:inline;fill-opacity:1;fill-rule:evenodd;fill:#92b5c9;opacity:1;stroke-dasharray:none;stroke-linecap:butt;stroke-linejoin:miter;stroke-miterlimit:4;stroke-opacity:1;stroke-width:0;stroke:#000" d="m270.63031 252.56065c-.56129-.15591-18.51769.13605-22.19364.7143.5763-1.29429 1.85188-4.64338 2.07382-5.22157 7.24698-.76586 9.47053-.85356 19.21409-.8061.0764.35878.73541 5.00509.90573 5.31337zm67.62414-2.36916c-.004.15333.0494 1.14864.57402 5.4717-28.42662-2.24219-41.70048-1.66901-42.88644-1.99214-.23575-.005 5.69168-4.89922 5.57884-4.91808.52513.0574 27.18852.9019 36.73358 1.43852z" id="path1944-5-5-4-6-1-4"/><path style="display:inline;fill-opacity:1;fill-rule:evenodd;fill:#92b5c9;opacity:1;stroke-dasharray:none;stroke-linecap:butt;stroke-linejoin:miter;stroke-miterlimit:4;stroke-opacity:1;stroke-width:0;stroke:#000" d="m269.5915 242.39188c-.56129-.15591-13.23644-.1452-16.91239.43305.5763-1.29429 1.85188-4.64338 2.07382-5.22157 7.24698-.76586 5.47053-.50981 15.21409-.46235.0764.35878-.54584 4.94259-.37552 5.25087zm67.90539-2.71291c-.004.15333-.1381 1.08614.38652 5.4092-28.42662-2.24219-29.88798-1.35651-31.07394-1.67964-.23575-.005 4.50418-4.83672 4.39134-4.85558.52513.0574 16.75102.5894 26.29608 1.12602z" id="path1944-5-5-4-0-5-4-8"/><path style="display:inline;fill-opacity:1;fill-rule:evenodd;fill:#92b5c9;opacity:1;stroke-dasharray:none;stroke-linecap:butt;stroke-linejoin:miter;stroke-miterlimit:4;stroke-opacity:1;stroke-width:0;stroke:#000" d="m270.69848 232.49286c-.56129-.15591-11.51287-.1231-13.15589.0132.5763-1.29429 2.77996-4.97484 3.0019-5.55303.63995.008 1.55935-.0458 11.30291.002.0764.35878-1.31924 5.22985-1.14892 5.53813zm66.2923-3.39792c-.004.15333.14315 1.27364.23027 5.44045-10.48912-.64844-21.04423-.79401-22.07394-.77339.70175-1.13 3.91043-5.08672 3.79759-5.10558.52513.0574 8.50102-.0981 18.04608.43852z" id="path1944-5-5-4-0-1-4-7-0"/><path style="display:inline;fill-opacity:1;fill-rule:evenodd;fill:#92b5c9;opacity:1;stroke-dasharray:none;stroke-linecap:butt;stroke-linejoin:miter;stroke-miterlimit:4;stroke-opacity:1;stroke-width:0;stroke:#000" d="m273.34372 221.57013c-.53311-.15591-7.6224-.0762-9.05794-.0649.813-1.62241 3.67165-4.81858 3.88245-5.39677.60782.008 6.6217.0323 6.92298.0333-.0993.35878-1.64364 5.01109-1.74749 5.42875zm63.46431-3.03854c-.004.15333-.006 1.14595.077 5.31276-6.21255-.21094-14.64291-.26007-14.82405-.23945.66652-1.13 3.15162-5.11797 3.04445-5.13683.49876.0574 6.1055-.0356 11.70263.0635z" id="path1944-5-5-4-0-1-7-7-2-8"/><path style="display:inline;fill-opacity:1;fill-rule:evenodd;fill:#92b5c9;opacity:1;stroke-dasharray:none;stroke-linecap:butt;stroke-linejoin:miter;stroke-miterlimit:4;stroke-opacity:1;stroke-width:0;stroke:#000" d="m276.71307 211.63041c-.13998 34e-5-4.61113-.0146-4.87766-.0346 1.27715-1.63804 3.89488-4.88016 4.01421-5.02085.36621-.0233 2.56186-.15517 2.84406-.15417-.093.35878-1.88333 4.79234-1.98061 5.21zm60.04588-2.91354c-.004.15333.005 1.157-.0273 5.31276-5.81924-.21094-9.15338-.11944-9.32305-.0988.62432-1.13 2.60834-5.14922 2.50796-5.16808.46718.0574 1.59965-.14498 6.84243-.0459z" id="path1944-5-5-4-0-1-7-5-8-0-0"/></svg>