<svg viewBox="0 0 560 1e3"><path style="display:inline;fill-opacity:1;fill-rule:evenodd;fill:#000;opacity:1;stroke-dasharray:none;stroke-linecap:butt;stroke-linejoin:miter;stroke-miterlimit:4;stroke-opacity:1;stroke-width:0;stroke:#000" d="m370.22013 269.18957c3.73673 28.99805.68442 47.63566-5.56172 78.89654.72875 2.76416 4.57892 15.3363 7.53111 26.27528-35.12136 9.39542-145.63978 15.57404-153.40546-3.56862 1.47691-13.28062 12.48816-39.61404 15.11064-52.15289-1.60763-20.98077-1.39015-31.76838.39221-44.67379 2.94669-27.86219 18.42748-50.40293 42.53695-67.09803-.63873-.33426 4.78821-4.28702 8.78241-7.57324 9.24713 11.38115 26.77313 3.92452 32.85276-1.34379 1.50252 2.01095 8.74838 5.51594 7.53289 6.31489 2.93097 3.6342 17.5615 30.53863 38.19229 63.32537z" id="path3619-9-7-1"/><path style="display:inline;fill-opacity:1;fill-rule:evenodd;fill:#222a12;opacity:1;stroke-dasharray:none;stroke-linecap:butt;stroke-linejoin:miter;stroke-miterlimit:4;stroke-opacity:1;stroke-width:0;stroke:#000" d="m370.59734 268.91874c2.04809 22.99652-1.25185 54.20327-7.18638 78.79191.94189 3.11422 3.72682 13.17674 6.9858 25.78188-31.15729 6.94181-137.96178 16.4754-150.56415-2.83535 3.11188-19.46291 13.57608-40.55919 15.47979-51.8454-3.23035-23.00658-.20845-43.01444 1.25552-60.19625 1.88912-24.13638 10.11778-45.91174 40.3682-52.63442.49229-.51848 4.81884-2.87541 8.67708-6.07324 9.14993 11.38115 26.50843 3.92452 32.52415-1.34379 8.11585 7.31425 17.87827 7.62418 18.41015 8.96654 43.43464-.61809 35.5656 49.11043 34.04984 61.38812z" id="path3621-1-6-4"/><path style="display:inline;fill-opacity:1;fill-rule:evenodd;fill:#000;opacity:1;stroke-dasharray:none;stroke-linecap:butt;stroke-linejoin:miter;stroke-miterlimit:4;stroke-opacity:1;stroke-width:0;stroke:#000" d="m369.5546 404.66367c.8928 1.03783-10.43113 8.96262-10.43113 8.96262-8.19048 4.90102-45.78585 13.38525-58.22084 23.88842-4.31136 3.64157-13.47661 8.29154-16.37051 16.44054-2.5916 7.29773-3.32032 16.98798-9.68774 14.34823-.12708-.0527-.25389-.22936-.38798-.17253-3.64553 1.54503-9.41962-.71855-11.29492-12.24341-2.95293-18.14755-12.84146-17.24873-13.71165-17.80621-12.60056-8.07247-21.38891-19.81687-24.85363-25.1259.0593-.70684-4.63009-11.49131-4.63009-11.49131 30.95157 34.29024 126.26841 9.40553 149.58849 3.19955z" id="path3581-6-4-0-9-7-4"/><path style="display:inline;fill-opacity:1;fill-rule:evenodd;fill:#222a12;opacity:1;stroke-dasharray:none;stroke-linecap:butt;stroke-linejoin:miter;stroke-miterlimit:4;stroke-opacity:1;stroke-width:0;stroke:#000" d="m369.78267 405.39052c1.40713 1.42357-6.98302 14.70098-7.78813 14.09715-25.79541 8.52083-71.12379 28.94047-79.99015 41.90487-1.8785 3.64948-2.53889 7.43148-7.50963 6.14702-.17013-.0655-5.98956 2.88621-10.50307-7.67418-.19489-.456-.68412-.47689-1.06552-.9139-13.44512-.96612-36.54764-20.75453-39.15367-45.27808.0593-.70684-3.48993-11.03421-3.48993-11.03421 29.78951 36.10978 127.30502 9.70731 149.5001 2.75133z" id="path3581-6-8-6-8-3"/><path id="path4386-3-8-7-4-0" class="shadow" d="m328.65568 423.62719c-15.47912 1.19068-42.03655 26.26041-44.60915 30.99635 10.29989-9.14088 29.75953-26.28541 44.60915-30.99635z"/><path id="path4388-4-6-2-3-9" class="shadow" d="m260.91357 455.47548c-6.81704-9.41592-28.83006-31.99347-34.93819-34.15183 5.05404 5.44075 26.5203 25.35081 34.93819 34.15183z"/></svg>