<svg viewBox="0 0 560 1e3"><path style="display:inline;fill-opacity:1;fill-rule:evenodd;fill:#fff;stroke-dasharray:none;stroke-linecap:butt;stroke-linejoin:miter;stroke-miterlimit:4;stroke-opacity:0;stroke-width:3.10714054;stroke:#000" d="m343.35288 214.72206c-2.36763-3.9611-5.54697-5.55018-2.40748-5.89858 8.38874-.93095 34.18201 2.86089 36.71404 8.03911-.15544-.0151 11.59929 18.43088 16.141 28.32526-13.71763 12.885-29.74169 12.74896-33.68372 14.32983-6.655-20.82571-16.44998-44.36973-16.76384-44.79562z" id="path5653"/><path style="display:inline;fill-opacity:1;fill-rule:evenodd;fill:#1a1a1a;stroke-dasharray:none;stroke-linecap:butt;stroke-linejoin:miter;stroke-miterlimit:4;stroke-opacity:0;stroke-width:3;stroke:#000" d="m345.67017 214.58194c-2.23963-3.9037-5.24707-5.46975-2.27732-5.81311 6.71331.41185 9.41201-1.95911 20.15344-1.67791 25.17282-2.88406 37.99383 25.63015 28.83866 35.61315-14.54664 12.39383-27.51128 14.66594-36.37822 12.32176-5.55473-18.09169-10.06561-40.06084-10.33656-40.44389z" id="path5655"/><path id="path1686-2-6-4-4-3-1-73" d="m412.27303 278.3013c2.78199-1.15291 4.73014-1.01396 7.0247-1.59236.80099-7.56493.60409-24.04729 2.95227-23.83924 2.48889-.19194 3.08248 14.61946 3.81856 24.22051 2.46964.64153 6.96942 1.59792 10.24213 4.56621 3.53995 14.36455-5.33553 31.25316-8.01336 33.43133-.49716.56401-2.43491 2.94636-3.41829 2.99662-2.76203.14114-9.24525-7.22651-11.48827-8.14732-.98005-.40233-1.60403-.69548-1.60403-.69548s-7.01407-25.56774.48629-30.94027z" style="display:inline;fill-opacity:1;fill:#1a1a1a;stroke-dasharray:none;stroke-linecap:butt;stroke-linejoin:miter;stroke-miterlimit:4;stroke-opacity:1;stroke-width:0;stroke:#83afc8"/></svg>