<svg viewBox="0 0 560 1e3"><path style="display:inline;fill-opacity:1;fill-rule:evenodd;fill:#000;opacity:1;stroke-dasharray:none;stroke-linecap:butt;stroke-linejoin:miter;stroke-miterlimit:4;stroke-opacity:1;stroke-width:0;stroke:#000" d="m370.52949 269.10119c-1.40707 42.23254-16.76292 56.89214-19.02126 81.79769-.65233 7.19397 5.62112 14.43267 6.43749 24.43791-13.79439 3.71945-105.97281 20.50316-128.49442-5.62657 1.09157-8.53879 5.83658-24.30802 6.28642-32.46038 1.41022-25.55676-3.49882-41.79952-.9531-63.63674 4.1474-34.69597 23.60454-60.35906 50.55649-72.99246 9.24713 11.38115 26.77312 2.86386 32.85275-2.40445 3.60502 2.41128 12.51351 5.15536 13.9274 8.77997 5.80316 14.87672-6.8011 38.98424 32.06295 60.59513z" id="path4467-6-1"/><path id="path3371-8" d="m370.55315 268.83036c-5.06057 43.11968-19.97912 63.38062-20.58901 83.28138-.21461 7.00257 5.40829 11.83923 5.72398 21.85414-37.1677 8.35602-111.74273 13.80752-124.3451-5.50323 2.83363-11.52951 5.0372-19.94343 5.55969-26.54554 2.98475-37.71545-3.12279-38.96936-1.21887-62.06195.62283-5.80398 1.32021-11.77405 1.93291-17.12971 2.80944-24.25611 17.62018-49.23247 47.6429-61.1382 9.14993 11.38115 27.12715 2.68708 33.14287-2.58123 1.48672 1.12706 17.6131 7.18224 18.14498 8.5246 1.34998 3.19719 2.37503 6.3614 3.25412 9.48996 2.76556 9.84229 4.08656 19.33169 9.53548 28.38477 7.32565 13.63251 15.77601 21.57759 21.21605 23.42501z" style="display:inline;fill-opacity:1;fill-rule:evenodd;fill:#fff;opacity:1;stroke-dasharray:none;stroke-linecap:butt;stroke-linejoin:miter;stroke-miterlimit:4;stroke-opacity:1;stroke-width:0;stroke:#000"/></svg>