<svg viewBox="0 0 560 1e3"><path style="display:inline;fill-opacity:1;fill:#464646;opacity:1;stroke-width:.81192213" d="m270.55125 415.94962c-5.45967-29.4376.77522-59.0589 5.12068-80.94956.0-2.92123 2.72097-11.95425 3.75025-12.45001 2.26402-1.09046 2.37976.82982.32614 5.41078-1.23107 2.74601-2.19252 6.04644-2.13658 7.33424-6.12817 22.67744-9.3277 52.29838-5.66972 78.0759.69415 4.58799-.28869 6.41027-1.39078 2.57865z" id="path6883-9"/><path id="path6847" d="m347.13398 420.49104c-32.75198 14.03698-65.48424 24.91567-80.17912 16.90739-20.83059 4.09365-35.66498-10.43587-40.76678-24.36238 4.26478 15.21833 19.87989 29.19787 40.78057 26.02878 17.15312 7.09449 47.5212-3.15592 80.16533-18.57379z" style="fill-opacity:1;fill-rule:nonzero;fill:#000;stroke-dasharray:none;stroke-linecap:butt;stroke-linejoin:miter;stroke-miterlimit:4;stroke-opacity:1;stroke-width:0;stroke:#000"/><path id="path6851" d="m321.23473 428.89204c20.7508-10.16198 21.08221-20.61217 22.39193-24.773 4.48263 10.84586-10.79294 21.1955-23.21082 27.36712.0.0-12.47977 5.11336.81893-2.59412z" style="display:inline;fill-opacity:1;fill:#464646;opacity:1;stroke-width:.65152484"/><path id="path6857" d="m245.40006 322.33229c1.62661-1.35128 9.19337-4.86987 10.47268-4.86987 1.2946.0.0945.9719-3.02593 2.45008-6.10527 2.99828-11.4337 5.84964-12.93927 10.25178-.26837-2.64955 3.56432-6.20315 5.49252-7.83199z" style="display:inline;fill-opacity:1;fill:#464646;opacity:1;stroke-width:.59345704"/><path id="path6859" d="m265.04571 314.61579c1.01515-1.0408 6.08875-2.46001 6.66873-1.86538.29926.30697-.82203.99005-2.49205 1.51795-3.485 1.10165-5.03832 1.23086-4.17668.34743z" style="display:inline;fill-opacity:1;fill:#464646;opacity:1;stroke-width:.76388013"/><path id="path6861" d="m298.312 315.51735c-2.78124-.77691-6.19455-1.42386-7.58513-1.43764-1.39061-.0133-2.5284-.29869-2.5284-.63313.0-1.08519 4.50111-.6449 9.8973.96812 9.27204 2.77159 9.45064 3.68221.21632 1.10265z" style="display:inline;fill-opacity:1;fill:#464646;opacity:1;stroke-width:.82662278"/><path id="path6863" d="m234.5004 425.35943c-8.43217-9.38315-8.56683-19.03243-9.09904-22.87437-1.82154 10.01463 4.38575 19.57105 9.43179 25.26968.0.0 5.07121 4.72146-.33275-2.39531z" style="display:inline;fill-opacity:1;fill:#464646;opacity:1;stroke-width:.39908788"/><path style="display:inline;fill-opacity:1;fill:#464646;opacity:1;stroke-width:.49076402" d="m331.43287 329.23944c-1.59216-1.74796-3.38317-2.61927-7.19099-4.65823 3.43696.186 5.9201 1.90349 8.48362 3.30859l1.40851.76087c3.10054-.82904 2.06237-.76327 5.24019-1.09569-2.31267 1.57261-1.37991.66686-4.59328 2.59051-.1909.96086 1.37064 4.96931 1.3923 6.98457-1.1142-2.59503-3.93747-6.21609-4.74035-7.89062z" id="path4735-6-1-2-5-2-3"/></svg>