<svg viewBox="0 0 560 1e3"><path style="display:inline;fill-opacity:1;fill-rule:evenodd;fill:#000;opacity:1;stroke-dasharray:none;stroke-linecap:butt;stroke-linejoin:miter;stroke-miterlimit:4;stroke-opacity:1;stroke-width:0;stroke:#000" d="m370.32736 269.21102c.40069 1.40387-1.04629 12.52467-8.23535 37.40419-5.42713 18.7819-10.38164 33.12589-11.60302 47.33397 7.90451 19.87043 17.68286 46.27479 10.96062 62.22357-71.30488 20.12453-73.57923 30.74551-82.57176 51.60729-.26944.20641-1.13656 1.14752-4.58251.28177-.17413-.0437-1.37345.71664-3.61847.0361-21.82469-31.74709-33.64663-44.60472-44.89975-55.07022-7.03237-24.349 8.99404-55.91641 14.42354-92.52329-.10903-.84586-1.75634-11.47794-3.53869-27.90439.0144-35.51834-5.15732-62.14362 39.80834-85.81774-.63873-.33426 2.72387-3.1709 7.2484-5.57324 6.38934-8.53563 5.53943-17.91786 6.19018-18.8806 3.41216-5.04803 22.0725-14.82189 24.51892-9.29893.28194.63651-.0963 18.38259 4.92767 25.79025 1.50252 1.12706 7.85193 4.64722 6.63644 5.44617-59.64798 34.7469 1.82837 42.20589 38.19229 63.32537z" id="path1465"/><path style="display:inline;fill-opacity:1;fill-rule:evenodd;fill:#00619e;opacity:1;stroke-dasharray:none;stroke-linecap:butt;stroke-linejoin:miter;stroke-miterlimit:4;stroke-opacity:1;stroke-width:0;stroke:#000" d="m349.07733 353.13437c1.34356 7.732 17.40079 35.2923 13.19962 62.91939 9.76847 17.81956-76.4356 40.57739-77.20727 42.91516-.78385 1.88787-3.29932 8.5329-5.79622 10.31331-1.21712.86786-4.8236-.18577-5.07554-.20987-.29397-.0276-1.12355.44604-3.33637-.1263-5.65546-1.4629-9.47467-5.19754-10.04678-7.14824-28.68416-20.30472-36.21661-33.10048-35.28517-48.25479-4.73234-25.16126 17.10932-81.72603 15.97125-93.45223-14.71707-78.38797.74235-106.81283 43.84979-118.51872 5.33294-8.35978 4.47937-16.82837 5.55606-16.92645 10.85789-.98906 16.98793-11.06455 22.37004-11.2945.95246-.0407-.87894 16.73549 5.50706 26.58167 1.48672 1.12706 17.38807 5.34921 17.91995 6.69157 12.23055 1.62014 28.63973 9.37821 31.9423 22.00496 15.66202 45.7671-13.38703 74.54294-19.56872 124.50504z" id="path1467"/><path id="path1469" class="shadow" d="m329.8875 425.70175c-15.4791 1.19068-42.03653 26.26041-44.60913 30.99635 10.29989-9.14088 29.75951-26.28541 44.60913-30.99635z"/><path id="path1471" class="shadow" d="m262.14541 457.55004c-6.81704-9.41592-28.83006-31.99347-34.93819-34.15183 5.05404 5.44075 26.5203 25.35081 34.93819 34.15183z"/></svg>