<svg viewBox="0 0 560 1e3"><path d="m267.23463 450.73798 3.11592-.15136c.93021-6.40662 3.95894-11.50631 6.66908-16.80443-5.58516-.0849-11.59094-.67726-16.5428.002 1.54591 5.70209 4.03226 11.33653 6.7578 16.95379z" id="path5158-25" class="pubic_hair"/><path d="m363.96648 268.10163c3.47711-4.86808 5.51409-20.47518 3.32753-24.2077-2.60035.69044-1.97503 1.38571-4.4446-.21104.83858 8.14327 2.00713 17.8126 1.11707 24.41874z" id="path5158-3-8" class="underarm_hair"/><path style="display:inline;fill-opacity:1;fill:#000;opacity:1" d="m236.52804 276.67565c-1.3755 20.25213 3.66438 44.32565 3.66438 44.32565-10.73063 51.95886-21.26839 69.51173-15.34775 92.37518 16.36196-.34408 104.86205 3.75956 137.83667 3.74496 4.51386-24.01525-8.46489-53.78545-12.38823-63.29635 2.33014-13.01505 12.88545-29.14985 18.69237-71.62915-20.00731-23.65544-39.56804-58.82881-39.61446-77.20105-5.0856-1.53654-9.2662-4.20037-11.97165-6.99799-.44453 1.7818-1.99968 15.88708-2.14306 17.33056-12.09829 5.75915-27.87745 3.2969-33.51216-1.00011.88357-3.08367.12976-7.88401 3.51875-14.42259-2.95309 1.88608-5.93497 4.18624-9.90394 6.09612-36.32 18.26276-38.69495 47.01317-38.83092 70.67477z" id="path6926-8"/><path id="path6928-6" d="m348.95687 353.98185s16.07416 33.22574 14.34737 63.55154c-40.10653 11.44456-76.22545 38.21388-76.99712 40.55165-.78385 1.88787-4.7912 9.82211-7.2881 11.60252-1.21712.86786-4.56426-.37235-4.8162-.39645-.29397-.0276-.77535.50225-2.98817-.0701-5.65546-1.4629-10.22974-5.40448-10.80185-7.35518-18.43111-29.49711-30.68812-46.0732-35.41353-47.26215-6.02915-22.43233 14.73382-72.80763 16.85514-93.62901-12.79498-68.20209.12343-109.38118 35.08171-114.99357.49229-.51848 2.68756-2.31919 7.16452-4.72153 1.01736-.38611 4.59904-8.26172 5.00699-8.02432 6.65758 3.87428 26.54635-.85503 26.87567-.1563.97035 2.05878 1.71969 4.49501 2.863 6.22886 1.48672 1.12706 17.16932 6.88046 17.7012 8.22282.0.0 24.76225-4.8947 34.24132 27.54218 6.83766 34.59578-10.9494 86.3815-21.83195 118.90904z" style="display:inline;fill-opacity:1;fill-rule:evenodd;fill:#0b1728;opacity:1;stroke-dasharray:none;stroke-linecap:butt;stroke-linejoin:miter;stroke-miterlimit:4;stroke-opacity:1;stroke-width:0;stroke:#000"/><path id="path6930-5" d="m223.46081 414.21749c-.42263 12.80142 31.84447 58.44933 51.86626 56.74714 13.4605-1.86072 24.20778-26.48734 86.53835-51.73016-5.52595-11.9083-20.07615-23.00694-26.61235-34.33133-45.102 11.9464-91.4758 3.33435-104.81614-.31943.0.0-1.84313 17.91613-6.97612 29.63378z" style="display:inline;fill-opacity:1;fill:#0b1728;stroke-dasharray:none;stroke-linecap:butt;stroke-linejoin:miter;stroke-miterlimit:4;stroke-opacity:1;stroke-width:0;stroke:#000"/><path id="path6932-2" d="m257.42933 436.58157c.5575-1.06599 6.5423-47.48865 6.58488-47.65285.0.0-32.64461 1.46109-38.68967-6.44629-.14865-.19445-12.66693 37.46403-12.60031 37.54391.063.19141 44.7051 16.55523 44.7051 16.55523z" style="display:inline;fill-opacity:1;fill:#000;opacity:1;stroke-dasharray:none;stroke-linecap:butt;stroke-linejoin:miter;stroke-miterlimit:4;stroke-opacity:1;stroke-width:0;stroke:#000"/><path id="path6934-5" d="m256.33979 391.23466c-.0664.0413-1.39182-.0733-1.58546-.10885-3.40999-.62801 19.2566-160.50788 24.25915-160.55375.0.0 12.26767-11.59694 15.1958-14.84809-11.66224 14.89533-30.22666 147.63281-30.17154 172.72911-.0426 1.28175-94e-5 2.39529-.0998 2.64799z" style="display:inline;fill-opacity:1;fill:#000;opacity:1;stroke-dasharray:none;stroke-linecap:butt;stroke-linejoin:miter;stroke-miterlimit:4;stroke-opacity:1;stroke-width:0;stroke:#000"/><path id="path6936-2" d="m256.82347 435.83166c-.005-.12477 6.25247-46.70456 6.29446-46.86401.0.0-28.60284-4.55682-36.06642-7.41863-.2232-.0856-13.35958 38.08968-13.29388 38.16726.0621.18588 43.06584 16.11538 43.06584 16.11538z" style="display:inline;fill-opacity:1;fill:#0b1728;opacity:1;stroke-dasharray:none;stroke-linecap:butt;stroke-linejoin:miter;stroke-miterlimit:4;stroke-opacity:1;stroke-width:0;stroke:#000"/><path id="path6938-5" d="m255.95357 390.4496c-.0664.0413-1.76682-.0468-1.96046-.0825-3.40999-.62801 19.2566-160.40253 24.25915-160.4484.0.0 14.23398-13.51852 15.68248-14.44775-15.56688 24.4846-34.69807 173.01647-30.414 174.96778z" style="display:inline;fill-opacity:1;fill:#0b1728;opacity:1;stroke-dasharray:none;stroke-linecap:butt;stroke-linejoin:miter;stroke-miterlimit:4;stroke-opacity:1;stroke-width:0;stroke:#000"/><path id="path6940-7" d="m258.89163 437.11081c.007-.14856 4.09744-51.68483 4.0352-51.87468.0.0 79.13217 8.98832 98.49959 2.81421.29791-.095 6.92825 30.53716 6.83087 30.62953-.0921.22131-109.36566 18.43094-109.36566 18.43094z" style="display:inline;fill-opacity:1;fill:#000;opacity:1;stroke-dasharray:none;stroke-linecap:butt;stroke-linejoin:miter;stroke-miterlimit:4;stroke-opacity:1;stroke-width:0;stroke:#000"/><path id="path6942-2" d="m260.02434 435.69863c.007-.14856 4.18979-50.58257 4.12661-50.77211-.29391-.88173 93.60187-8.39506 96.3759 2.75301.24983 1.004 6.35058 30.45321 6.2532 30.54558-.0921.22131-106.75571 17.47352-106.75571 17.47352z" style="display:inline;fill-opacity:1;fill:#0b1728;opacity:1;stroke-dasharray:none;stroke-linecap:butt;stroke-linejoin:miter;stroke-miterlimit:4;stroke-opacity:1;stroke-width:0;stroke:#000"/><path style="display:inline;fill-opacity:1;fill-rule:nonzero;fill:#999;opacity:1;stroke-dasharray:none;stroke-linecap:butt;stroke-linejoin:round;stroke-miterlimit:4;stroke-opacity:1;stroke-width:0;stroke:#000" d="m288.03821 262.88906a2.8059697 3.1566737.0 01-2.80597 3.15668 2.8059697 3.1566737.0 01-2.80597-3.15668 2.8059697 3.1566737.0 012.80597-3.15668 2.8059697 3.1566737.0 012.80597 3.15668z" id="path6944-2"/><path style="display:inline;fill-opacity:1;fill-rule:nonzero;fill:#999;opacity:1;stroke-dasharray:none;stroke-linecap:butt;stroke-linejoin:round;stroke-miterlimit:4;stroke-opacity:1;stroke-width:0;stroke:#000" d="m282.89194 297.67418a2.8059697 3.1566737.0 01-2.80597 3.15667 2.8059697 3.1566737.0 01-2.80597-3.15667 2.8059697 3.1566737.0 012.80597-3.15668 2.8059697 3.1566737.0 012.80597 3.15668z" id="path6948-2"/><path id="path6950-5" class="shadow" d="m329.87921 425.70416c-15.4791 1.19068-42.03653 26.26041-44.60913 30.99635 10.29989-9.14088 29.75951-26.28541 44.60913-30.99635z"/><path id="path6952-6" class="shadow" d="m262.13712 457.55245c-5.32741-7.35839-28.98018-30.1623-28.98018-30.1623l-2.80403-.77815s24.58999 23.41879 31.78421 30.94045z"/><path id="path6954-6" class="shadow" d="m329.8875 425.70175c-15.4791 1.19068-42.03653 26.26041-44.60913 30.99635 10.29989-9.14088 29.75951-26.28541 44.60913-30.99635z"/><path id="path6956-2" class="shadow" d="m262.14541 457.55004c-5.37406-7.42283-29.21651-30.35505-29.21651-30.35505l-2.57069-.58835s24.59207 23.42079 31.7872 30.9434z"/><path style="display:inline;fill-opacity:1;fill-rule:nonzero;fill:#999;opacity:1;stroke-dasharray:none;stroke-linecap:butt;stroke-linejoin:round;stroke-miterlimit:4;stroke-opacity:1;stroke-width:0;stroke:#000" d="m296.15903 227.39313a2.8059697 3.1566737.0 01-2.80597 3.15668 2.8059697 3.1566737.0 01-2.80597-3.15668 2.8059697 3.1566737.0 012.80597-3.15668 2.8059697 3.1566737.0 012.80597 3.15668z" id="path6970-4"/><path style="display:inline;fill-opacity:1;fill-rule:nonzero;fill:#999;opacity:1;stroke-dasharray:none;stroke-linecap:butt;stroke-linejoin:round;stroke-miterlimit:4;stroke-opacity:1;stroke-width:0;stroke:#000" d="m277.43213 332.06503a2.8059697 3.1566737.0 01-2.80597 3.15668 2.8059697 3.1566737.0 01-2.80597-3.15668 2.8059697 3.1566737.0 012.80597-3.15668 2.8059697 3.1566737.0 012.80597 3.15668z" id="path6972-1"/><path id="path6974-0" d="m238.25957 336.55874s40.85299 16.68803 115.75238 3.28344c.36617-.0655-3.29418 10.02435-4.36672 14.08503.0936.96098.24286 1.67392.47129 1.98459-14.57264 6.85213-97.84906 9.07391-115.88568-4.75417.0.0 4.39353-14.40571 4.02873-14.59889z" style="display:inline;fill-opacity:1;fill:#000;opacity:1;stroke-dasharray:none;stroke-linecap:butt;stroke-linejoin:miter;stroke-miterlimit:4;stroke-opacity:1;stroke-width:0;stroke:#000"/><path id="path6976-1" d="m238.30376 337.44261s36.38804 17.76121 115.28716 3.18369c.33287-.0615-2.98866 7.91191-3.98606 12.50319-.008 1.40158-.0187 2.33735-.0187 2.33735-19.95115 6.77325-99.35627 7.29163-114.825-4.53373.0.0 3.9074-13.31649 3.5426-13.4905z" style="display:inline;fill-opacity:1;fill:#1a1a1a;opacity:1;stroke-dasharray:none;stroke-linecap:butt;stroke-linejoin:miter;stroke-miterlimit:4;stroke-opacity:1;stroke-width:0;stroke:#000"/><path style="display:inline;fill-opacity:1;fill-rule:nonzero;fill:#999;opacity:1;stroke-dasharray:none;stroke-linecap:butt;stroke-linejoin:round;stroke-miterlimit:4;stroke-opacity:1;stroke-width:0;stroke:#000" d="m274.98457 344.74372c-.44018 5.33776-.84034 10.10475-1.37916 16.26851-.56855-.0469-7.79095-.21827-7.74241-.63754.0138-.11883-.0823-1.78528.3093-1.83621.42235-.055 5.98947.7961 5.97346.21441-.012-.43819.74182-9.38815.92382-11.59513.0342-.41441-6.21555-.6029-6.21375-.96027.009-1.84868.13101-2.13256.44377-2.28414 5.00728.41295 7.68886.2458 7.68499.83037z" id="path6978-4"/><path style="display:inline;fill-opacity:1;fill-rule:nonzero;fill:#999;opacity:1;stroke-dasharray:none;stroke-linecap:butt;stroke-linejoin:round;stroke-miterlimit:4;stroke-opacity:1;stroke-width:0;stroke:#000" d="m263.09859 343.67151c-.43629 5.33807-.81905 10.10649-1.2928 16.27559.56856.047 7.72222 1.05541 7.74272.63384.006-.11948.37238-1.74795-.006-1.86207-.40773-.12311-6.03912-.19148-5.92845-.76277.0833-.43036.79938-9.38342.97979-11.59054.0337-.41446 6.23068.41866 6.28717.0661.29266-1.8254.21856-2.12538-.0653-2.32593-5.00758-.40933-7.62599-1.0116-7.71752-.43426z" id="path6980-7"/><path style="display:inline;fill-opacity:1;fill-rule:evenodd;fill:#000;opacity:1;stroke-dasharray:none;stroke-linecap:butt;stroke-linejoin:miter;stroke-miterlimit:4;stroke-opacity:1;stroke-width:0;stroke:#000" d="m282.45842 458.56662c-.27835.87834-1.09442 7.30349-3.59097 9.21774-.26922.20641-1.13559 1.14752-4.57861.28177-.17398-.0437-1.37228.71664-3.61539.0361-5.82941-1.76869-6.22252-8.10904-6.31915-8.53686 8.23205-5.09165 11.4291-4.00072 18.10412-.99875z" id="path6986-5"/><path style="display:inline;fill-opacity:1;fill-rule:evenodd;fill:#0b1728;opacity:1;stroke-dasharray:none;stroke-linecap:butt;stroke-linejoin:miter;stroke-miterlimit:4;stroke-opacity:1;stroke-width:0;stroke:#000" d="m282.65569 458.4011c-.78318 1.88787-2.10206 7.06063-4.59684 8.84104-1.21608.86786-3.67141-.009-3.92314-.0331-.29372-.0276-.96753.96577-3.15689.31564-4.33861-1.28834-5.1633-4.97917-6.6404-7.92987 7.24395-6.87766 11.19968-9.59173 18.31727-1.19371z" id="path6988-2"/><path id="path6201-81" d="m284.51487 205.20924c.0133-.14802.991-3.76164 1.04686-3.94624.0.0-10.13556 2.84037-10.14148 3.07346-.008.30956-.81107 2.93146-.7689 3.0294.0242.22566 9.86356-2.15662 9.86356-2.15662z" style="display:inline;fill-opacity:1;fill:#000;opacity:1;stroke-dasharray:none;stroke-linecap:butt;stroke-linejoin:miter;stroke-miterlimit:4;stroke-opacity:1;stroke-width:0;stroke:#000"/><path id="path6201-0-39" d="m321.73469 205.93856c-.0135-.25315-2.19351-6.61269-2.32164-6.93919.0.0 28.25558 7.57122 28.23428 7.96573-.0279.52399 1.81929 5.16395 1.68381 5.31746-.10544.37372-27.59656-6.34401-27.59656-6.34401z" style="display:inline;fill-opacity:1;fill:#000;opacity:1;stroke-dasharray:none;stroke-linecap:butt;stroke-linejoin:miter;stroke-miterlimit:4;stroke-opacity:1;stroke-width:0;stroke:#000"/><path id="path6201-07-8" d="m284.41581 204.80064c.0132-.13828.98105-3.51413 1.03635-3.68659.0.0-10.03379 2.65349-10.03965 2.87124-.008.28919-.80292 2.73858-.76118 2.83007.024.21081 9.76452-2.01472 9.76452-2.01472z" style="display:inline;fill-opacity:1;fill:#0b1728;opacity:1;stroke-dasharray:none;stroke-linecap:butt;stroke-linejoin:miter;stroke-miterlimit:4;stroke-opacity:1;stroke-width:0;stroke:#000"/><path id="path6201-0-5-5" d="m321.26188 205.48198c-.0134-.2365-2.17149-6.1776-2.29833-6.48261.0.0 27.97185 7.07304 27.95076 7.4416-.0276.48951 1.80102 4.82417 1.6669 4.96758-.10438.34913-27.31944-5.92658-27.31944-5.92658z" style="display:inline;fill-opacity:1;fill:#0b1728;opacity:1;stroke-dasharray:none;stroke-linecap:butt;stroke-linejoin:miter;stroke-miterlimit:4;stroke-opacity:1;stroke-width:0;stroke:#000"/><path style="display:inline;fill-opacity:1;fill-rule:nonzero;fill:#999;opacity:1;stroke-dasharray:none;stroke-linecap:butt;stroke-linejoin:round;stroke-miterlimit:4;stroke-opacity:1;stroke-width:0;stroke:#000" d="m299.80598 206.99996a2.8059697 3.1566737.0 01-2.80597 3.15668 2.8059697 3.1566737.0 01-2.80597-3.15668 2.8059697 3.1566737.0 012.80597-3.15668 2.8059697 3.1566737.0 012.80597 3.15668z" id="path6212-8-3"/><path id="path6191-7-5-1" d="m292.37072 216.07858c-.007-.15238 3.8945-21.33661 3.96139-21.53134.0.0-8.30916-2.77563-8.45142-2.58113-.86438 1.18176-2.11005 6.96861-3.51333 8.67157.099.227 8.00336 15.4409 8.00336 15.4409z" style="display:inline;fill-opacity:1;fill:#000;opacity:1;stroke-dasharray:none;stroke-linecap:butt;stroke-linejoin:miter;stroke-miterlimit:4;stroke-opacity:1;stroke-width:0;stroke:#000"/><path id="path6193-1-4-5" d="m292.27012 214.99157c-.006-.15465 3.18623-20.56297 3.24155-20.7606.0.0-7.62885-3.42808-7.7465-3.23069-.7148 1.19936-1.68003 7.03144-2.84049 8.75976.0818.23038 7.34544 15.23153 7.34544 15.23153z" style="display:inline;fill-opacity:1;fill:#0b1728;opacity:1;stroke-dasharray:none;stroke-linecap:butt;stroke-linejoin:miter;stroke-miterlimit:4;stroke-opacity:1;stroke-width:0;stroke:#000"/><path id="path6195-5-77-8" d="m298.6408 216.19261c.006-.15238 3.40168-21.28705 3.34715-21.48178.0.0 16.14948-3.80688 16.26545-3.61238.70464 1.18176 2.15318 9.74986 2.50741 10.42157-.0807.227-22.12001 14.67259-22.12001 14.67259z" style="display:inline;fill-opacity:1;fill:#000;opacity:1;stroke-dasharray:none;stroke-linecap:butt;stroke-linejoin:miter;stroke-miterlimit:4;stroke-opacity:1;stroke-width:0;stroke:#000"/><path id="path6197-5-6-5" d="m299.45773 215.19253c.006-.15052 3.06748-20.24269 3.01643-20.43505.0.0 15.11733-4.25466 15.22593-4.06254.65983 1.16734 2.01625 9.68426 2.34795 10.34777-.0756.22423-20.59031 14.14982-20.59031 14.14982z" style="display:inline;fill-opacity:1;fill:#0b1728;opacity:1;stroke-dasharray:none;stroke-linecap:butt;stroke-linejoin:miter;stroke-miterlimit:4;stroke-opacity:1;stroke-width:0;stroke:#000"/><path style="display:inline;fill-opacity:1;fill-rule:nonzero;fill:#999;opacity:1;stroke-dasharray:none;stroke-linecap:butt;stroke-linejoin:round;stroke-miterlimit:4;stroke-opacity:1;stroke-width:0;stroke:#000" d="m299.80598 206.99996a2.8059697 3.1566737.0 01-2.80597 3.15668 2.8059697 3.1566737.0 01-2.80597-3.15668 2.8059697 3.1566737.0 012.80597-3.15668 2.8059697 3.1566737.0 012.80597 3.15668z" id="path6212-8-0-3"/></svg>