<svg viewBox="0 0 560 1e3"><path id="path9398" d="m300.27148 121.15228c-4.61537.003-7.85482.67127-9.52929 1.96363-1.11533.8608-2.50977 2.32824-2.3711 2.49571.0887.10712 1.74874-.38207 5.25977-1.55107 2.071-.68953 3.86634-1.00004 7.32226-1.26244 7.27906-.20567 11.9666.94081 17.14258 3.99723.48116.31549.94887.5772 1.03907.58019.43773.0163.0377-.33744-1.25782-1.11228-4.86952-3.14176-12.19188-5.36047-17.60547-5.11097z" class="eyebrow_hair"/><path id="path9400" d="m260.88281 125.64952c-.0161.22164.23749.13356 2.41211-.84696 4.01771-1.90702 7.88734-1.74649 11.84961-.83677 1.21883.4446 3.91381 1.8463 4.00391 1.80473.50531-.2331-1.4689-2.80593-2.76647-3.48661-5.70442-1.71307-11.13078.84342-15.49916 3.36561z" class="eyebrow_hair"/></svg>