<svg viewBox="0 0 560 1e3"><path id="path6106-5-0-0" d="m233.43956 275.20879c.0502 13.91321-1.90924 30.86337.86668 43.43723-12.73879 39.27821-23.73713 66.45566-10.01335 95.00753 7.25733 16.23416 21.7576 35.2542 39.34282 45.37222 4.49692-8.41639 7.13441-6.5938 19.16009-.74579 44.07165-29.89332 48.81305-33.25075 80.48854-38.93176 18.17655-20.44479 7.86604-52.27866 1.10017-70.82155 5.27276-27.97786 7.68696-46.13903 6.71602-61.5303 2.78996-27.57405 2.67947-66.75235-24.38694-78.13486-11.87802-1.91625-24.24303-2.06144-29.61419-12.83595-12.45597 5.13207-25.22879 2.90105-29.62457.47363-1.99902 6.18991-13.47707 10.92635-13.80922 10.96913-29.1393 3.75267-39.3402 51.49758-40.22605 67.74047z" style="display:inline;fill-opacity:.39215686;fill:#f59;opacity:1"/></svg>