<svg viewBox="0 0 560 1e3"><g data-transform="belly" transform="matrix(1.014792,0,0,1.0059302,-4.1476732,-2.5734225)" id="g11076"><path id="path11060" class="shadow" d="m274.8 433.8c20.7-1.5 47.7-4.5 61.9-42.4 13.1-44.3-27.8-99.6-59.9-101.5-40.1 6.2-61.8 42.8-63.9 96.9 2.2 31 33.1 49 61.9 47z"/><path style="fill-opacity:1;fill:#fff" id="path11062" d="m274.8 433.8c20.8.1 49.4-13 61.9-42.4s-18.5-83.4-46-101.7c-6.5-4.3-38.7-8.2-40.4.0-2.6 11.6-44.9 33.3-41.4 96.8 1.8 34.8 45.1 47.2 65.9 47.3z"/><path style="display:inline;fill-opacity:1;fill:#000;opacity:1;stroke-dasharray:none;stroke-linecap:butt;stroke-linejoin:miter;stroke-miterlimit:4;stroke-opacity:1;stroke-width:0;stroke:#000" d="m255.60087 415.65584c-25.14752-56.89067 3.50628-112.06515 20.00136-129.75508.0.0 2.52362-.28574 2.17298.13293-17.15145 17.43078-44.76854 71.55926-20.83461 129.61336z" id="path11064" transform="matrix(1.1247504,0,0,1.1247504,-26.347241,-34.609528)"/><path id="path11066" d="m278.2865 315.42225a3.0981078 3.1554572.0 01-3.0981 3.15546 3.0981078 3.1554572.0 01-3.09811-3.15546 3.0981078 3.1554572.0 013.09811-3.15546 3.0981078 3.1554572.0 013.0981 3.15546z" style="display:inline;fill-opacity:1;fill-rule:nonzero;fill:#999;opacity:1;stroke-dasharray:none;stroke-linecap:butt;stroke-linejoin:round;stroke-miterlimit:4;stroke-opacity:1;stroke-width:0;stroke:#000"/><path id="path11068" d="m264.13371 396.5393a3.0981078 3.1554572.0 01-3.0981 3.15545 3.0981078 3.1554572.0 01-3.09811-3.15545 3.0981078 3.1554572.0 013.09811-3.15548 3.0981078 3.1554572.0 013.0981 3.15548z" style="display:inline;fill-opacity:1;fill-rule:nonzero;fill:#999;opacity:1;stroke-dasharray:none;stroke-linecap:butt;stroke-linejoin:round;stroke-miterlimit:4;stroke-opacity:1;stroke-width:0;stroke:#000"/><path id="path11070" d="m268.08638 341.68356a3.0981078 3.1554572.0 01-3.0981 3.15545 3.0981078 3.1554572.0 01-3.09811-3.15545 3.0981078 3.1554572.0 013.09811-3.15547 3.0981078 3.1554572.0 013.0981 3.15547z" style="display:inline;fill-opacity:1;fill-rule:nonzero;fill:#999;opacity:1;stroke-dasharray:none;stroke-linecap:butt;stroke-linejoin:round;stroke-miterlimit:4;stroke-opacity:1;stroke-width:0;stroke:#000"/><path id="path11072" d="m263.13664 368.37684a3.0981078 3.1554572.0 01-3.0981 3.15545 3.0981078 3.1554572.0 01-3.09811-3.15545 3.0981078 3.1554572.0 013.09811-3.15547 3.0981078 3.1554572.0 013.0981 3.15547z" style="display:inline;fill-opacity:1;fill-rule:nonzero;fill:#999;opacity:1;stroke-dasharray:none;stroke-linecap:butt;stroke-linejoin:round;stroke-miterlimit:4;stroke-opacity:1;stroke-width:0;stroke:#000"/><path id="path11074" d="m270.03093 424.59184a3.0981078 3.1554572.0 01-3.0981 3.15545 3.0981078 3.1554572.0 01-3.09812-3.15545 3.0981078 3.1554572.0 013.09812-3.15547 3.0981078 3.1554572.0 013.0981 3.15547z" style="display:inline;fill-opacity:1;fill-rule:nonzero;fill:#999;opacity:1;stroke-dasharray:none;stroke-linecap:butt;stroke-linejoin:round;stroke-miterlimit:4;stroke-opacity:1;stroke-width:0;stroke:#000"/></g></svg>