<svg viewBox="0 0 560 1e3"><path id="path5666" d="m345.4742 215.07561c-2.36763-3.9611-5.54697-5.55018-2.40748-5.89858 8.38874-.93095 34.71234 8.16419 37.24437 13.34241 5.24579 8.99291 9.08725 17.259 14.5374 33.66688 10.17885 30.64379 18.41513 85.4021 14.84277 91.25077-4.01785 6.57809-66.3478-2.40167-81.14498-8.24531-1.99733-.78879 25.98399-22.31749 24.98024-22.67669-.15309-.0548 10.06574 1.34579 18.07817 3.96454.57039.18642 1.12961.37902 1.6731.57771 5.78942 2.11646 8.57164 3.67314 8.57164 3.67314.0955-.0794-2.6005-3.26025-4.73046-9.06137-2.28221-6.21574-4.26216-15.53064-7.38319-25.29594-10.25503-32.08666-23.76787-74.62762-24.26158-75.29756z" style="display:inline;fill-opacity:1;fill-rule:evenodd;fill:#000;stroke-dasharray:none;stroke-linecap:butt;stroke-linejoin:miter;stroke-miterlimit:4;stroke-opacity:0;stroke-width:3.10714054;stroke:#000"/><path id="path5668" d="m347.79149 214.93549c-2.23963-3.9037-5.24707-5.46975-2.27732-5.81311 7.93519-.91744 29.47682 9.46009 33.46294 12.79551 3.81211 7.31111 8.35723 15.94134 11.13737 24.1156 8.95873 26.34071 18.51952 59.12189 19.30596 100.58272-3.80063 6.48275-66.42238-2.87182-80.41952-8.63079-1.88935-.77735 27.357-22.72654 26.40752-23.08053-.14481-.054 9.52153 1.32629 17.10075 3.90708.53956.18372 1.06854.37353 1.58265.56934 5.47639 2.08578 8.1082 3.61991 8.1082 3.61991.0903-.0782-2.4599-3.21301-4.47471-8.93005-2.15881-6.12566-4.03171-15.30556-6.984-24.92935-9.70058-31.62165-22.48283-73.5461-22.94984-74.20633z" style="display:inline;fill-opacity:1;fill-rule:evenodd;fill:#ff80b2;stroke-dasharray:none;stroke-linecap:butt;stroke-linejoin:miter;stroke-miterlimit:4;stroke-opacity:0;stroke-width:3;stroke:#000"/></svg>