<svg viewBox="0 0 560 1e3"><g data-transform="boob" transform="matrix(1.1247504,0,0,1.1247504,-26.347242,-34.609525)" id="g1988" style="display:inline"><path d="m271.73345 260.91862c.065-.74329-1.70819-18.48926-1.12521-34.69038.003-.0964-19.79517 13.76707-19.8809 13.81216-1.52959.80455-3.42058 1.9614-5.76856 3.60973-9.78469 6.69753-21.31453 10.82141-26.74443 14.7899-.54445.39791-.66828 2.70307-.76291 3.35152-.65836 4.51134-1.66809 9.99655-.19947 14.9545.5788 2.79959 1.92116 5.11459 3.04085 7.21138 2.65234 4.96693 6.04765 7.87695 10.86115 8.57219 21.5829 3.2487 35.13223-12.1343 39.18878-20.05393 1.83647 8.16488 6.94853 14.47073 13.3338 17.64542 10.04423 4.99389 23.27331 3.62273 32.00152-1.35019 14.24159-8.46859 19.00686-29.49472.12112-46.95807-1.24033-1.44425-2.4413-2.70187-3.54079-3.8753-.36194-.36533-9.51822-9.25858-10.099-9.54612-8.93387 9.09968-21.67826 23.74747-30.42595 32.52719z" id="path1980" style="fill-opacity:1;fill:#010101"/><path d="m250.80319 239.92519c-2.11217 1.58135-4.28508 3.11053-5.92735 4.27017-5.84025 4.87392-21.34013 11.09517-25.80979 13.9564-.39537.25308-.72231 2.6909-.84921 3.07294-.70752 5.13443-.92153 9.56442-.30576 13.2861 1.01337 6.12496 3.33372 10.46932 6.44535 13.29915 2.48992 2.26451 5.53985 3.63861 8.78962 4.08772 10.49581 1.51314 19.86794-2.43574 27.29744-8.48888 4.20537-3.4345 7.18267-7.02269 9.92412-11.02226.12718.41876 1.87124 5.64497 5.46994 10.30596 2.123 2.74967 5.09638 5.02083 8.21123 6.75234.11303.0438.22593.0871.33871.12991 34.5912 13.12294 57.55039-22.51578 31.08151-47.52065-1.21885-1.39111-13.04097-13.66227-13.18956-13.99628-6.58839 8.98509-30.43267 32.86711-30.65476 33.47808-.20068-.33557-2.67856-26.68436-.65788-35.98931.0712-.32779-19.70137 13.93246-20.12251 14.35002-.0119.0118-.0411.0188-.0411.0289z" id="path1982" style="fill-opacity:1;fill:#fff"/><path d="m272.19169 258.88792c.80943-1.48623 1.35838-4.75934 1.75336-6.96753.0755-.42195.14376 2.11164-.34789 3.72203 2.50484-3.57809 5.36151-7.40366 7.64284-10.60934.11073-.1769-.23631 1.28365 56e-5 1.09001-3.14159 4.2326-6.6203 9.02137-9.04922 12.76484z" class="shadow" id="path1984"/><path id="path1986" class="shadow" d="m270.33492 269.98618c-.16754 2.01348.47911 3.25262.89408 5.36257-.66799-1.59942-1.31544-3.72955-.89408-5.36257z"/><path style="display:inline;fill-opacity:1;fill:#92b5c9;stroke-dasharray:none;stroke-linecap:butt;stroke-linejoin:miter;stroke-miterlimit:4;stroke-opacity:1;stroke-width:0;stroke:#83afc8" d="m326.50057 270.82754s-27.55214 4.89116-55.92783-1.59427c-.57402-.36921-.46139 3.07872.53528 5.65146 9.61225 3.47523 41.16116 3.98402 53.79161 1.53671.25519.0364 1.90875-4.87711 1.60094-5.5939z" id="path1180-5-1-9-6-3-3-5-2-6"/><path style="display:inline;fill-opacity:1;fill:#92b5c9;stroke-dasharray:none;stroke-linecap:butt;stroke-linejoin:miter;stroke-miterlimit:4;stroke-opacity:1;stroke-width:0;stroke:#83afc8" d="m220.15643 282.01956s15.66059 5.05497 43.17336-1.05233c.0249.0645-3.05978 2.81528-5.79813 4.60651-9.31994 3.27261-20.9868 4.52063-33.23318 2.21602-.24741.0342-4.44051-5.09519-4.14205-5.7702z" id="path1180-5-1-9-6-3-3-5"/><path style="display:inline;fill-opacity:1;fill:#92b5c9;stroke-dasharray:none;stroke-linecap:butt;stroke-linejoin:miter;stroke-miterlimit:4;stroke-opacity:1;stroke-width:0;stroke:#83afc8" d="m321.78929 281.54665s-19.70502 5.59373-47.22547-.75816c-.55672-.36161 1.59357 3.41951 4.33269 5.28248 9.32253 3.40367 24.16615 4.14339 36.41592 1.74648.24749.0356 6.7754-5.56877 6.47686-6.2708z" id="path1180-5-1-9-6-3-3-5-2"/><path style="display:inline;fill-opacity:1;fill:#92b5c9;stroke-dasharray:none;stroke-linecap:butt;stroke-linejoin:miter;stroke-miterlimit:4;stroke-opacity:1;stroke-width:0;stroke:#83afc8" d="m217.5227 271.27488s24.82128 5.12292 52.93997-2.06394c.0135.0402.34664 1.12296.16585 2.26761-.16086 1.01856-.77783 2.06585-1.63311 2.78237-9.5252 3.85109-38.15986 5.60842-50.67592 2.89643-.25288.0403-1.10183-5.08816-.79679-5.88247z" id="path1180-5-1-9-6-3-3-5-7"/><path id="path1986-6" class="shadow" d="m270.33543 269.58543c-.18844 2.26466.53888 3.65839 1.00561 6.03155-.75132-1.79895-1.47954-4.19481-1.00561-6.03155z"/><path style="display:inline;fill-opacity:1;fill:#92b5c9;stroke-dasharray:none;stroke-linecap:butt;stroke-linejoin:miter;stroke-miterlimit:4;stroke-opacity:1;stroke-width:0;stroke:#83afc8" d="m326.43604 259.96998s-24.20959 6.7921-53.12399-.39476c-.30151.408-1.45425 1.55047-2.36742 2.62173-.58895.69094-.74094 1.60148-.3038 2.21186 9.79476 3.85109 43.60736 4.35774 56.47761 1.64575.26004.0403-.36875-5.29026-.6824-6.08458z" id="path1180-5-1-9-6-3-3-5-2-6-3"/><path style="display:inline;fill-opacity:1;fill:#92b5c9;stroke-dasharray:none;stroke-linecap:butt;stroke-linejoin:miter;stroke-miterlimit:4;stroke-opacity:1;stroke-width:0;stroke:#83afc8" d="m218.31024 260.18477s24.4717 6.38887 53.06547-.79799c.0147.0432.16025 1.53687.3239 2.80738.13028 1.01144.0398 2.1371-.38431 2.1771-9.68612 3.85109-41.02986 4.29364-53.75738 1.58166-.25716.0403.44214-4.97383.75232-5.76815z" id="path1180-5-1-9-6-3-3-5-7-1"/><path style="display:inline;fill-opacity:1;fill:#92b5c9;stroke-dasharray:none;stroke-linecap:butt;stroke-linejoin:miter;stroke-miterlimit:4;stroke-opacity:1;stroke-width:0;stroke:#83afc8" d="m231.85183 251.59024c4.14259.61986 9.11014 3.78892 38.91183-.92422.0263.0759.1572 1.86952.31357 4.49186-20.62011 4.09362-34.90555 3.4284-47.8582.71643-.26171.0402 8.29244-4.10874 8.6328-4.28406z" id="path1180-5-1-9-6-3-3-5-5"/><path style="display:inline;fill-opacity:1;fill:#92b5c9;stroke-dasharray:none;stroke-linecap:butt;stroke-linejoin:miter;stroke-miterlimit:4;stroke-opacity:1;stroke-width:0;stroke:#83afc8" d="m270.15898 241.29712c.0218.0735.28751 1.76938.18417 4.36988-19.33814 3.93726-24.97323 1.25507-29.32237 1.0984-.17128.0616 5.17851-3.57442 5.17851-3.57442s9.29759 1.1254 23.95969-1.89386z" id="path1180-5-1-9-6-3-3-5-5-4"/><path style="display:inline;fill-opacity:1;fill:#92b5c9;stroke-dasharray:none;stroke-linecap:butt;stroke-linejoin:miter;stroke-miterlimit:4;stroke-opacity:1;stroke-width:0;stroke:#83afc8" d="m322.36729 250.32787s-23.53184 5.02001-40.23642.11971c-.35876.50549-2.16049 2.03976-4.3025 4.43344 9.78278 3.85109 34.05687 2.9858 46.9114.27382.25971.0402-1.55194-3.91833-2.37248-4.82697z" id="path1180-5-1-9-6-3-3-5-2-8"/><path style="display:inline;fill-opacity:1;fill:#92b5c9;stroke-dasharray:none;stroke-linecap:butt;stroke-linejoin:miter;stroke-miterlimit:4;stroke-opacity:1;stroke-width:0;stroke:#83afc8" d="m314.50576 240.88787c.10987-.3822-12.3247 3.3977-23.6003.17212-.23263.4919-2.10065 1.9849-3.76949 4.06388 10.26077 3.10839 22.89401 1.66952 30.64343-.87389.16841.0391-2.51766-2.45009-3.27364-3.36211z" id="path1180-5-1-9-6-3-3-5-2-8-8"/><path style="display:inline;fill-opacity:1;fill:#92b5c9;stroke-dasharray:none;stroke-linecap:butt;stroke-linejoin:miter;stroke-miterlimit:4;stroke-opacity:1;stroke-width:0;stroke:#83afc8" d="m270.23697 233.41381c.077.25969.003 1.7561-.10008 4.22432-8.50721 1.05368-13.17807.9971-17.507.84841-.17049.0584 6.23493-4.48813 6.23493-4.48813.41849-.066 6.56001.13917 11.37216-.5846z" id="path1180-5-1-9-6-3-3-5-5-4-9"/><path style="display:inline;fill-opacity:1;fill:#92b5c9;stroke-dasharray:none;stroke-linecap:butt;stroke-linejoin:miter;stroke-miterlimit:4;stroke-opacity:1;stroke-width:0;stroke:#83afc8" d="m307.3224 233.29338c.1072-.43732-4.09248 1.51029-9.68747.3558-.22696.50548-2.04955 2.03976-3.6778 4.17619 8.30519.77231 9.15954 1.14306 16.55928-1.07696.16432.0402-2.45642-2.51781-3.19401-3.45503z" id="path1180-5-1-9-6-3-3-5-2-8-8-0"/></g></svg>