<svg viewBox="0 0 560 1e3"><path style="display:inline;fill:#000;stroke-width:.15514293" d="m276.07156 136.1121c1.20623-1.01195.89479-.4216 1.55696-.98553.45337.024.68555-.44968.61045-1.24536-.51704-2.67005-1.21959-4.58243-2.88748-5.49078-1.53928-.83448-3.03862-1.26809-4.95055-1.43165l-1.37416-.11756-.76192-.7364c-.41903-.40502-.83664-.97488-.92799-1.2664-.12684-.40468-.20068-.48349-.31228-.33335-.13579.18286.1982 1.01916.82247 2.05892l.26383.43935-1.43476.48108c-.14591.0488-1.69978-1.83337-1.91305-2.57324-.48769.50545 1.19668 2.83113 1.06612 2.88336-.41628.16654-.73036.31704-.80421.39272-.11895.122-.28618.19786-.37154.1686-.32285-.11064-1.63142-1.47195-1.91515-1.99231-.16272-.29846-.35801-.52366-.43391-.50044-.23673.0724.96993 2.19577 1.43151 2.51917.38708.27119.40791.34634.17901.64535-.13129.17152-.26518.37835-.39501.60509-.074.12919-1.99314-.90672-2.94454-1.58399.1439.69899 2.5982 2.2532 2.5378 2.38819-.27294.60998-.47903 1.23684-.52388 1.66196-.0749.71041-.027.87083.33761 1.12619.23376.16378.40922.35837.38994.43244-.019.0743.076.0126.21168-.13656l.24679-.27123.11026.41223c.15094.56411 1.29502 2.02041 2.19405 2.79282 3.48932 1.70004 7.63137 1.4635 9.99195-.34267z" id="path3400-1"/><path style="display:inline;fill:#000;stroke-width:.141739" d="m268.57752 125.86376c-1.36358-.28533-1.56242-.52555-.32979-.39843 3.44775.36171 8.33822 3.53296 8.07239 3.71877-2.13455-.68278-4.42711-2.92626-7.7426-3.32034z" id="path3301"/><path style="display:inline;fill:#000;stroke-width:.16125156" d="m291.15517 128.57559c36e-5-.0984.16185-.38711.35881-.64162 1.03516-2.24812 6.80776-2.44732 9.63137-2.69846-3.87008 1.03149-7.93894 1.04824-9.24155 2.74455-.60148.79218-.74983.9102-.74863.59553z" id="path3303"/><path style="display:inline;fill:#000;stroke-width:.141739" d="m264.58251 127.9773c.0548-.0777.55853-.17777 1.11942-.2222.56087-.0445 1.37725-.11316 1.81417-.15274.46194-.0419.79441-.0188.79441.055.0.12612-.55868.20306-2.70823.3729-.77673.0614-1.0889.0452-1.01977-.053z" id="path3305"/><path style="display:inline;fill:#000;stroke-width:.1496281" d="m303.99914 125.2655c.31004-.11709 7.30319.73233 8.67519 2.38022-1.68114-1.00199-6.27657-1.56732-8.67519-2.38022z" id="path3307"/><path style="display:inline;fill-opacity:1;fill-rule:nonzero;fill:#fff;opacity:1;stroke-dasharray:none;stroke-dashoffset:0;stroke-linecap:round;stroke-linejoin:bevel;stroke-miterlimit:4;stroke-opacity:1;stroke-width:0;stroke:#000;vector-effect:none" d="m295.58538 134.88309c.0707-1.10738 1.58606-5.10396 2.17584-5.08183.58987.0222 1.01051.9377.93973 2.0451.26608 2.45279-3.11178 3.03505-3.11563 3.03674z" id="path3309"/><path style="display:inline;fill-opacity:1;fill-rule:nonzero;fill:#fff;opacity:1;stroke-dasharray:none;stroke-dashoffset:0;stroke-linecap:round;stroke-linejoin:bevel;stroke-miterlimit:4;stroke-opacity:1;stroke-width:0;stroke:#000;vector-effect:none" d="m308.21037 132.20648c.31073.64057.12166 3.40597-.57889 3.6053-.7005.19937-1.52023-.15827-1.83098-.79884-.31072-.64054-1.07945-3.55742-.37895-3.75679.70046-.19939 2.47809.30976 2.78882.95033z" id="path3315"/><path style="fill:#000;stroke-width:.19091532" d="m292.306 134.98356c-.63364.026-.95816-.48723-.85319-1.34933.72262-2.89293 1.70455-4.96494 4.03568-5.94914 2.15137-.90412 4.2469-1.37392 6.91912-1.55113l1.92059-.12738 1.06489-.79788c.58567-.43883 1.16933-1.05627 1.29701-1.37212.17727-.43848.28048-.52385.43646-.36117.18978.19812-.27702 1.10423-1.14952 2.23078l-.36874.47604 2.00527.52123c.25526.0664 2.36827-2.06754 3.04047-2.9935.35832.47449-1.93358 3.30511-1.76964 3.35674.5382.16949.93887.32042 1.03689.39827.16624.13219.39999.21439.51928.18268.45124-.11987 2.28015-1.59483 2.6767-2.15864.22743-.32336.50038-.56735.60647-.54221.33084.0784-1.35563 2.37908-2.00075 2.72947-.54101.29383-.57012.37525-.25021.69922.44483.73895 2.47611-.17584 3.91802-.95734-.35039 1.0282-3.17598 1.87635-3.05671 2.06053.50563.78071.91522 1.66424.99147 2.22445.10468.7697.0376.94353-.47186 1.22019-.32672.17747-.57195.38829-.545.46855.0267.0804-.10615.0136-.29587-.14795l-.3449-.29388-.15413.44663c-.21097.61122-1.80997 2.18908-3.06652 3.02597-6.37414 3.85855-12.23417.40839-16.14128-1.43908z" id="path3400"/><path d="m306.13529 137.16754c1.94587-.65445 3.10795-1.39721 4.17657-2.66953 2.20764-1.70532-1.29024-4.5088-4.21082-5.32533-1.9734-.40568-3.50143-.31946-6.2143.35068-3.25651.80514-4.93789 1.85806-6.04363 3.78766-.28373.4951-.25025.62418.36439 1.40545 3.09305 2.66659 5.94237 3.54107 10.04272 3.037.26118-.0616 1.10959-.3251 1.88507-.58593z" id="path3398" class="sclera"/><path style="fill:#000;stroke-width:.23606861" d="m302.85629 138.23726c-1.77405.0627-3.37816-.37345-4.30776-1.02883-1.26924-.8949-2.51932-4.01504-2.19832-5.26725.37037-1.44539 1.02577-2.01701 3.22699-2.81445 2.41549-.8752 3.93275-.9525 5.59745-.2857 3.30553 1.32406 4.49659 4.83845 2.43216 7.17659-1.23504 1.39878-2.84828 2.15261-4.75041 2.21962z" id="path3396"/><path d="m306.81845 136.24995c1.6114-1.42522 1.85217-2.70137.87687-4.6475-.60308-1.20343-.89613-1.52441-1.85819-2.03579-1.94097-1.03165-2.66329-1.0764-5.24904-.32529-2.79805.81277-3.52385 1.50033-3.7639 3.16571-.1852 1.61523 1.03656 3.94735 2.50748 4.78626 2.23647 1.2756 5.43342.87273 7.48678-.94339z" id="path3394" class="eye"/><path style="fill:#000;stroke-width:.62665313" d="m300.06475 136.68088c-2.05657-.96332-2.15303-1.75298-2.08932-4.1955 1.37713-3.50756 7.47766-3.90094 9.07293-.58496.79316 1.64872-.90535 4.42223-3.09263 5.04993-1.00991.28981-2.66555.17517-3.89094-.26947z" id="path3392"/><path style="fill:#fff;stroke-width:.30623198" d="m301.38941 132.4303c.80843-1.03481-.50542-2.26992-1.97099-1.85282-.73125.20813-1.38379 1.32122-1.10785 1.89002.22292.45953 1.48312.81923 2.17757.6216.27342-.0779.67899-.37428.90127-.6588z" id="path3390"/><path d="m267.92658 136.90909c-1.39225-.61222-2.2237-1.30709-2.98829-2.49734-.75393-1.17368-.8859-2.19804-.37614-2.91935.49079-.69439 2.22448-1.7495 3.38893-2.06251 1.41195-.37952 2.50523-.29884 4.44626.32806 2.33.75321 3.53302 1.73822 4.32415 3.54336.20301.46318.17905.58392-.26071 1.31481-2.1447 3.04275-4.74966 3.0381-8.5342 2.29297z" id="path3398-7" class="sclera"/><path style="display:inline;fill:#000;stroke-width:.20054673" d="m271.73464 137.52393c1.44756.0553 2.75648-.33031 3.51502-.90997 1.03566-.79148 2.05572-3.55113 1.79377-4.65868-.30222-1.27838-.83701-1.78396-2.63313-2.48924-1.97099-.77409-3.20901-.84248-4.56739-.25273-2.69724 1.1711-3.66912 4.27944-1.98456 6.34742 1.00776 1.23719 2.3241 1.90391 3.8762 1.96316z" id="path3396-1"/><path d="m268.77227 135.78124c-1.34007-1.29201-1.5403-2.44887-.7292-4.21306.50149-1.09095.74522-1.3819 1.54527-1.8455.59061-.34216 2.02072-.48275 2.46551-.59387 4.2317.66617 5.20869 5.10934 3.85355 6.65769-.27663.35323-.58553.64889-.90891.84994-1.85993 1.15637-4.51858.79116-6.22622-.8552z" id="path3394-8" class="eye"/><path style="display:inline;fill:#000;stroke-width:.50803548" d="m270.26108 130.33666c-1.43389 1.30473-2.03089 2.93158-.45866 4.89681 2.25782 2.82215 7.16659 1.23174 6.99399-1.94221-.0855-1.57809-1.24918-3.31033-2.96751-3.47648-.79338-.0768-2.90597-.0805-3.56781.52188z" id="path3392-8"/><path style="display:inline;fill:#fff;stroke-width:.25772637" d="m270.90986 130.75497c.67843-.95367 2.37949-.88304 2.55183.10601.086.49351-.72867 1.40418-1.3833 1.54627-.52893.11471-1.36756-.37137-1.44922-.84002-.0321-.18455.0942-.55004.28069-.81226z" id="path3390-8"/><path style="display:inline;fill:#fff;stroke-width:.17876253" d="m305.95905 135.58674c.47191-.60407-.29504-1.32506-1.15056-1.08158-.42688.12149-.80779.77126-.64671 1.10329.13013.26825.86578.47823 1.27114.36286.15963-.0455.39637-.21849.52613-.38457z" id="path3390-3"/><path style="display:inline;fill:#fff;stroke-width:.14563826" d="m274.66495 135.11151c-.33765-.56038.21109-1.22923.8232-1.00335.30543.11271.57797.71548.46272 1.02349-.0931.24884-.61944.44364-.90948.33663-.11421-.0421-.2836-.20269-.37644-.35677z" id="path3390-8-9"/></svg>