<svg viewBox="0 0 560 1e3"><path d="m283.66521 456.38067c-1.54841.73859-1.78928 15.78672-9.24659 11.14886-5.5459 3.1603-10.12915-4.94173-10.42429-8.4126-.25114-2.95343 3.37748-7.20053 3.87403-6.51846 2.14579-.003 16.30971 2.85987 15.79685 3.7822z" class="shadow" id="path5203"/><path style="display:inline;fill-opacity:1;fill:#1a1a1a;opacity:1;stroke-dasharray:none;stroke-linecap:butt;stroke-linejoin:miter;stroke-miterlimit:4;stroke-opacity:1;stroke-width:0;stroke:#000" d="m204.23049 467.13581c9.85266-3.69513 50.63109-5.94135 63.91973-.29539 1.97544 1.15064 3.44304 1.50895 6.29117.74829 1.48394 1.11892 3.67809 1.01117 5.52348-.15189 69.74911-5.15378 103.89934 4.49456 104.44567 3.93966-.40498-21.96515-15.61413-49.27225-32.91536-65.04422-45.10201 11.9464-96.4497 13.39268-122.91997 1.5103-.12493-.0561-17.82049 24.52509-24.34472 59.29325z" id="path5205"/><path d="m274.36595 467.58332c-3.81452 2.31718-9.64064-2.27902-10.8644-11.68664 5.95334-21.67633 25.49385-8.31185 20.23612.35499-2.87984 4.74713-3.52005 14.37508-9.37172 11.33165z" class="skin torso" id="path5207"/><path style="display:inline;fill-opacity:1;fill:#000;stroke-dasharray:none;stroke-linecap:butt;stroke-linejoin:miter;stroke-miterlimit:4;stroke-opacity:1;stroke-width:0;stroke:#000" d="m226.43714 411.39001c35.65478 14.81043 110.86666 5.36222 127.27316-2.51932-1.33441-1.88669-1.31567-1.71418-1.76624-2.59407-58.31295 15.78964-107.46151 9.30714-123.43171 1.46595-.32556.70561-.85233.93932-2.07521 3.64744z" id="path5209"/><path style="display:inline;fill-opacity:1;fill:#8aa7ff;stroke-dasharray:none;stroke-linecap:butt;stroke-linejoin:miter;stroke-miterlimit:4;stroke-opacity:1;stroke-width:0;stroke:#000" d="m275.25299 462.86252c-12.30071-3.84341-9.97725-39.56452-8.12905-43.86741.10337-.24065 6.70466-.007 6.80117-.0386-.14286-.008-.28501-.0153-.42641-.0219-4.0967-.18979-7.561.22503-9.12434-.44654-1.55247 9.38892-6.14341 45.13839 10.87863 44.37445z" id="path5211"/><path id="path5213" class="shadow" d="m329.90785 425.6821c-15.4791 1.19068-42.03653 26.26041-44.60913 30.99635 10.29989-9.14088 29.75951-26.28541 44.60913-30.99635z"/><path id="path5215" class="shadow" d="m262.16576 457.53039c-6.81704-9.41592-28.83006-31.99347-34.93819-34.15183 5.05404 5.44075 26.5203 25.35081 34.93819 34.15183z"/><path d="m262.98857 459.03749c4.57815 9.39542 7.95428 8.94718 11.45233 8.01034.29456-.0789 5.02218 4.77996 9.26343-8.71666-1.38475 8.70911-4.94655 11.61521-9.3291 9.47151-.0226-.0111-2.82256 1.04466-4.71233.003-2.95847-1.63089-6.486-5.556-6.67433-8.7681z" class="shadow" id="path5217"/></svg>