<svg viewBox="0 0 560 1e3"><path d="m339.34739 405.05894c11.66744-2.88915 29.34188 17.43453 36.73509 29.98739 12.01399 20.8218 8.08635 41.74324 6.12252 52.0047-6.50305 14.12929-12.02078 17.29388-16.75028 21.92942-9.01048 19.62629-12.24502 52.93063-19.52273 52.4325-19.29169-1.29514-35.11781-149.28057-6.5846-156.35401z" id="path3095" style="fill-opacity:1;fill:gray"/><path style="display:inline;fill-opacity:1;fill:#b3b3b3;stroke-dasharray:none;stroke-linecap:butt;stroke-linejoin:miter;stroke-miterlimit:4;stroke-opacity:1;stroke-width:0;stroke:#000" d="m355.2172 518.31626 1.24937 17.63765.007.0845c.0458-.0119.30332-.0149.34697-.0207.77327-3.27927 4.7415-17.16927 5.11102-17.59695z" id="path3213-6"/><path style="display:inline;fill-opacity:1;fill:#b3b3b3;stroke-dasharray:none;stroke-linecap:butt;stroke-linejoin:miter;stroke-miterlimit:4;stroke-opacity:1;stroke-width:0;stroke:#000" d="m351.42113 412.76189 5.61266 8.21902c.0961-.42835 3.85737-4.82572 3.75831-5.38345-.72365-1.4272-6.77835-5.73835-7.01829-5.90361z" id="path3213-5-8-7"/></svg>