<svg viewBox="0 0 560 1e3"><path style="baseline-shift:baseline;clip-rule:nonzero;color-interpolation-filters:linearRGB;color-interpolation:sRGB;color-rendering:auto;color:#000;direction:ltr;display:inline;enable-background:accumulate;fill-opacity:1;fill-rule:evenodd;fill:#000;image-rendering:auto;isolation:auto;mix-blend-mode:normal;opacity:1;overflow:visible;shape-rendering:auto;solid-color:#000000;solid-opacity:1;stroke-dasharray:none;stroke-dashoffset:0;stroke-linecap:butt;stroke-linejoin:miter;stroke-miterlimit:4;stroke-opacity:1;stroke-width:1.77084005;stroke:none;visibility:visible;white-space:normal;writing-mode:lr-tb" d="m367.17579 511.40169c-13.90377-16.26753-140.60543-98.9851-143.49968-97.91993-13.41268 19.32424-21.26828 68.09414-16.48149 93.64735 9.0987 7.45979 63.48633 10.04211 68.05112 6.09996.74694-.64505 1.55832.0619 1.62705.0798 27.7362 7.23424 81.62706 6.86429 90.303-1.90718z" id="path3435"/><path style="baseline-shift:baseline;clip-rule:nonzero;color-interpolation-filters:linearRGB;color-interpolation:sRGB;color-rendering:auto;color:#000;direction:ltr;display:inline;enable-background:accumulate;fill-opacity:1;fill-rule:evenodd;fill:#333;image-rendering:auto;isolation:auto;mix-blend-mode:normal;opacity:1;overflow:visible;shape-rendering:auto;solid-color:#000000;solid-opacity:1;stroke-dasharray:none;stroke-dashoffset:0;stroke-linecap:butt;stroke-linejoin:miter;stroke-miterlimit:4;stroke-opacity:1;stroke-width:1.67334545;stroke:none;visibility:visible;white-space:normal;writing-mode:lr-tb" d="m367.14933 511.50639c-.58428-9.18224-1.46655-18.87221-2.54744-28.94458 18.86471-31.07961-11.34834-69.35781-12.54193-72.11229-13.38607 6.4024-75.21854 28.14253-80.33144 23.15495.5072 3.88062 2.73437 45.95016 5.05355 79.63917.0.0 81.06353 6.89398 90.36726-1.73725z" id="path3437"/><path style="baseline-shift:baseline;clip-rule:nonzero;color-interpolation-filters:linearRGB;color-interpolation:sRGB;color-rendering:auto;color:#000;direction:ltr;display:inline;enable-background:accumulate;fill-opacity:1;fill-rule:evenodd;fill:#333;image-rendering:auto;isolation:auto;mix-blend-mode:normal;opacity:1;overflow:visible;shape-rendering:auto;solid-color:#000000;solid-opacity:1;stroke-dasharray:none;stroke-dashoffset:0;stroke-linecap:butt;stroke-linejoin:miter;stroke-miterlimit:4;stroke-opacity:1;stroke-width:1.67334545;stroke:none;visibility:visible;white-space:normal;writing-mode:lr-tb" d="m280.24046 512.22032c-3.86376-31.32227-7.78895-62.48196-9.39845-72.30092-23.71289-13.25991-43.84533-26.92069-46.98774-26.54302-13.80127 27.90206-18.12773 60.30062-16.54507 94.10912.0.0 65.64823 10.21888 72.93126 4.73482z" id="path3439"/><path d="m292.50576 613.76552c-11.69662-41.96795-18.20109-93.73511-19.00593-137.96632 3.81661 43.09419 12.54209 109.05566 19.00593 137.96632z" class="shadow" id="path3441"/><path d="m329.46037 425.76321c-15.4791 1.19068-42.03653 26.26041-44.60913 30.99635 10.29989-9.14088 29.75951-26.28541 44.60913-30.99635z" class="shadow" id="path3443"/><path d="m261.71828 457.6115c-6.81704-9.41592-28.83006-31.99347-34.93819-34.15183 5.05404 5.44075 26.5203 25.35081 34.93819 34.15183z" class="shadow" id="path3445"/></svg>