<svg viewBox="0 0 560 1e3"><path id="path2558" d="m368.13986 268.64852c.40069 1.40387 1.14121 13.08717-6.04785 37.96669-5.42713 18.7819-14.38164 31.75089-14.97802 33.20897-8.09549 12.99543.20494 58.31464 1.6077 65.38842.0.0-51.36105 9.85807-62.87027 38.19544-2.06147 4.01155-2.1084 11.81811-3.46792 16.10443-.27859.87834-1.00697 6.35332-3.50565 8.26757-.26944.20641-1.13656 1.14752-4.58251.28177-.17413-.0437-1.37345.71664-3.61847.0361-5.83439-1.76869-6.66978-8.86034-6.76649-9.28816-1.98539-8.78313-6.24957-28.02971-9.43291-34.24779-14.19124-27.72004-27.39251-9.19794-28.70035-11.53427.30582-1.66444 7.73907-25.86552 11.14917-45.31899 3.69422-21.07431 2.75764-39.45668 5.3073-51.005-.10903-.84586-3.78927-7.67724-5.57162-24.10369.24815-21.28398 4.40894-37.18474 5.11522-39.64951 14.56506-.6654 69.11961-7.08227 93.02753.35954 10.74133 2.58221 29.83588 12.39422 30.94199 13.21878z" style="display:inline;fill-opacity:1;fill-rule:evenodd;fill:#000;opacity:1;stroke-dasharray:none;stroke-linecap:butt;stroke-linejoin:miter;stroke-miterlimit:4;stroke-opacity:1;stroke-width:0;stroke:#000"/><path id="path2560" d="m368.47602 268.56519c-.47811 3.70196-1.71839 20.80284-7.95729 39.14162-6.28969 18.48806-13.44374 28.43697-15.0664 32.92756-1.49967 4.15024-4.23654 10.9826-3.98518 21.38732.2199 9.10274 7.74892 46.49363 9.7032 50.85009-40.10653 11.44456-65.329 43.75937-66.10067 46.09714-.78385 1.88787-3.29932 8.5329-5.79622 10.31331-1.21712.86786-4.8236-.18577-5.07554-.20987-.29397-.0276-1.12355.44604-3.33637-.1263-5.65546-1.4629-9.47467-5.19754-10.04678-7.14824-18.43111-29.49711-30.55976-47.06584-35.28517-48.25479 6.35688-20.66495 13.89397-45.93932 14.10692-51.13537.81644-19.92146 3.469-42.18238 3.6321-45.0569.21641-3.81403-3.76895-10.18612-4.65798-22.72348-.94593-14.89563 1.31937-28.47434 4.37177-40.78698 20.93782-.29266 60.51491-5.42406 81.15568-2.06835 20.57738 3.34541 43.18386 16.54982 44.33793 16.79324z" style="display:inline;fill-opacity:1;fill-rule:evenodd;fill:#c8c8c8;opacity:1;stroke-dasharray:none;stroke-linecap:butt;stroke-linejoin:miter;stroke-miterlimit:4;stroke-opacity:1;stroke-width:0;stroke:#000"/><path id="path2562" d="m225.13691 414.2977c13.0124 5.20002 29.86397 56.84957 49.88576 55.14738 13.4605-1.86072 14.12966-32.15215 76.46023-57.39497-4.56293-11.87186-5.59818-24.25089-7.89644-37.5504-45.102 11.9464-101.7752 9.64501-107.11554.24123.0.0-10.70102 38.96411-11.33401 39.55676z" style="display:inline;fill-opacity:1;fill:#000;stroke-dasharray:none;stroke-linecap:butt;stroke-linejoin:miter;stroke-miterlimit:4;stroke-opacity:1;stroke-width:0;stroke:#000"/><path id="path2564" d="m225.10519 414.36072c13.0124 5.20002 30.23897 58.28707 50.26076 56.58488 13.4605-1.86072 14.37966-33.15215 76.71023-58.39497-1.11726-2.05457-2.05295-4.07219-2.84801-6.08941-3.60541-9.14766-4.31862-18.28707-5.95538-30.82657-45.102 11.9464-101.68412 9.44993-107.02446.0461.0.0-7.63515 27.89977-11.14314 38.67992z" style="display:inline;fill-opacity:1;fill:#4d4d4d;stroke-dasharray:none;stroke-linecap:butt;stroke-linejoin:miter;stroke-miterlimit:4;stroke-opacity:1;stroke-width:0;stroke:#000"/><path style="display:inline;fill-opacity:1;fill:#000;opacity:.97000002;stroke-dasharray:none;stroke-linecap:butt;stroke-linejoin:miter;stroke-miterlimit:4;stroke-opacity:1;stroke-width:0;stroke:#000" d="m228.90837 400.04275c-3.13392 21.58364-2.66538 51.76631 4.35031 69.18803 1.37187 3.40671 82.62927 6.52701 84.41648 2.68792 7.90056-16.97113 15.41746-50.6992 29.27472-77.61078-.66531-1.589-12.52297-15.08901-13.00532-16.39583-45.10199 11.9464-93.1829 6.8669-98.52324-2.53693-.0402.57637-5.06591 21.88256-6.51295 24.66759z" id="path2246-4-41-0-9-4-9-20-3"/><path id="path2566" d="m229.5925 400.15927c-3.13392 21.58364-2.00637 50.49962 5.00932 67.92134 1.37187 3.40671 80.62927 6.27701 82.41648 2.43792 7.90056-16.97113 15.24519-49.52411 29.10245-76.43569-.0586-.91628-1.14108-6.08228-2.77784-18.62178-45.10199 11.9464-101.86311 9.91776-107.20345.51393-3.84094 12.86235-2.44827 11.41137-6.54696 24.18428z" style="display:inline;fill-opacity:1;fill:#e1e1ff;opacity:1;stroke-dasharray:none;stroke-linecap:butt;stroke-linejoin:miter;stroke-miterlimit:4;stroke-opacity:1;stroke-width:0;stroke:#000"/><path id="path2568" d="m345.11477 382.91299c-.0508-.13663-.32934-1.79746-.28921-1.76865 2.4837 1.78281 12.51773 2.24849 13.79677.81029 4.76421-5.35705-12.89361-17.4965-13.66653-1.39538-.0727-.19109-.008-1.52879-.0247-1.80177-1.4607-23.95073 33.04893 10.48248 1.74614 4.51489z" style="display:inline;fill-opacity:1;fill:#000;opacity:1;stroke-dasharray:none;stroke-linecap:butt;stroke-linejoin:miter;stroke-miterlimit:4;stroke-opacity:1;stroke-width:0;stroke:#000"/><path id="path2570" d="m345.18834 382.70968c-.0508-.13663-.23362-1.66958-.19408-1.63996 2.2962 1.72031 12.28978 2.08855 13.56882.65035 4.76421-5.35705-12.85197-17.39004-13.62489-1.28892-.0727-.19109-.19351-1.5285-.20898-1.80154-1.35419-23.8996 34.44063 11.33344.45913 4.08007z" style="display:inline;fill-opacity:1;fill:#e1e1ff;opacity:1;stroke-dasharray:none;stroke-linecap:butt;stroke-linejoin:miter;stroke-miterlimit:4;stroke-opacity:1;stroke-width:0;stroke:#000"/><path id="path2572" d="m347.64632 383.03094c6.55752 2.66278 9.90514 4.04885 13.0944 3.0818 10.92536-3.3128-2.18327-20.91676-15.60976-7.54261.0803-.0665.0174.13508.10062.0746 17.69527-12.8555 29.88422 14.78059 2.41414 3.75995-.0573-.023 6e-4.62627 6e-4.62627z" style="display:inline;fill-opacity:1;fill:#000;opacity:1;stroke-dasharray:none;stroke-linecap:butt;stroke-linejoin:miter;stroke-miterlimit:4;stroke-opacity:1;stroke-width:0;stroke:#000"/><path id="path2574" d="m347.15098 382.83007c6.55752 2.66278 10.15514 4.11135 13.3444 3.1443 10.92536-3.3128-1.7917-21.42732-15.59319-7.27192.0803-.0665.0316.2.11167.13536 17.29752-13.96036 29.8566 14.44913 2.38652 3.42849-.0573-.023-.2494.56377-.2494.56377z" style="display:inline;fill-opacity:1;fill:#e1e1ff;opacity:1;stroke-dasharray:none;stroke-linecap:butt;stroke-linejoin:miter;stroke-miterlimit:4;stroke-opacity:1;stroke-width:0;stroke:#000"/><path id="path2576" d="m291.58613 204.88832c-.007-.15238 5.39726-10.80323 5.46415-10.99796.0.0-4.71541-2.02563-4.85767-1.83113-.86438 1.18176-2.48505 4.21861-3.88833 5.92157.099.227 3.28185 6.90752 3.28185 6.90752z" style="display:inline;fill-opacity:1;fill:#000;opacity:1;stroke-dasharray:none;stroke-linecap:butt;stroke-linejoin:miter;stroke-miterlimit:4;stroke-opacity:1;stroke-width:0;stroke:#000"/><path id="path2578" d="m291.36214 204.48497c-.007-.14941 5.24298-10.59292 5.30796-10.78386.0.0-4.58062-1.9862-4.71882-1.79549-.83967 1.15876-2.41401 4.13649-3.77718 5.8063.0962.22258 3.18804 6.77305 3.18804 6.77305z" style="display:inline;fill-opacity:1;fill:#c8c8c8;opacity:1;stroke-dasharray:none;stroke-linecap:butt;stroke-linejoin:miter;stroke-miterlimit:4;stroke-opacity:1;stroke-width:0;stroke:#000"/><path id="path2580" d="m302.65884 205.30727c.007-.15238-3.55351-10.99073-3.6204-11.18546.0.0 15.87166-2.71313 16.01392-2.51863.86438 1.18176 2.6413 5.37486 3.07583 6.04657-.099.227-15.46935 7.65752-15.46935 7.65752z" style="display:inline;fill-opacity:1;fill:#000;opacity:1;stroke-dasharray:none;stroke-linecap:butt;stroke-linejoin:miter;stroke-miterlimit:4;stroke-opacity:1;stroke-width:0;stroke:#000"/><path id="path2582" d="m302.31907 204.87267c.007-.14856-3.50116-10.71524-3.56706-10.90509.0.0 15.63782-2.64512 15.77799-2.4555.85164 1.15214 2.60238 5.24014 3.03051 5.89501-.0975.22131-15.24144 7.46558-15.24144 7.46558z" style="display:inline;fill-opacity:1;fill:#c8c8c8;opacity:1;stroke-dasharray:none;stroke-linecap:butt;stroke-linejoin:miter;stroke-miterlimit:4;stroke-opacity:1;stroke-width:0;stroke:#000"/><path id="path2584" d="m301.28119 219.64821c.0506-.11381 3.80942-8.09618 3.91422-8.19082.0.0-5.46493-9.89832-5.60966-9.85403-.87929.26907-3.31479 2.08266-3.78445 2.27341-.0283.22814 5.47989 15.77144 5.47989 15.77144z" style="display:inline;fill-opacity:1;fill:#000;opacity:1;stroke-dasharray:none;stroke-linecap:butt;stroke-linejoin:miter;stroke-miterlimit:4;stroke-opacity:1;stroke-width:0;stroke:#000"/><path id="path2586" d="m301.17001 219.40696c.0492-.10991 3.70189-7.81858 3.80373-7.90998.0.0-5.31067-9.55893-5.45131-9.51616-.85448.25985-3.22123 2.01125-3.67763 2.19546-.0275.22032 5.32521 15.23068 5.32521 15.23068z" style="display:inline;fill-opacity:1;fill:#474747;opacity:1;stroke-dasharray:none;stroke-linecap:butt;stroke-linejoin:miter;stroke-miterlimit:4;stroke-opacity:1;stroke-width:0;stroke:#000"/><path id="path2588" d="m291.63582 219.15845c-.0522-.11242-2.92885-8.29413-3.0369-8.38761.0.0 4.63578-9.48002 4.785-9.43627.9066.26577 3.41775 2.05716 3.902 2.24557.0291.22535-5.6501 15.57831-5.6501 15.57831z" style="display:inline;fill-opacity:1;fill:#000;opacity:1;stroke-dasharray:none;stroke-linecap:butt;stroke-linejoin:miter;stroke-miterlimit:4;stroke-opacity:1;stroke-width:0;stroke:#000"/><path id="path2590" d="m291.59093 218.69623c-.0522-.11242-2.92885-8.29413-3.0369-8.38761.0.0 4.63578-9.48002 4.785-9.43627.9066.26577 3.41775 2.05716 3.902 2.24557.0291.22535-5.6501 15.57831-5.6501 15.57831z" style="display:inline;fill-opacity:1;fill:#474747;opacity:1;stroke-dasharray:none;stroke-linecap:butt;stroke-linejoin:miter;stroke-miterlimit:4;stroke-opacity:1;stroke-width:0;stroke:#000"/><path id="path2592" d="m296.57741 204.96887c.41937.2053 12.83791 3.582 12.83791 3.582s1.97547-7.01455-.49085-12.98749c-6.51076-.2662-11.57285 2.87409-11.82793 2.94536-.15201-.0921-8.94185-2.5276-9.26538-1.94436-2.50541 4.51663-1.6643 10.93339-1.68826 11.194.14502.0107 9.78903-2.59133 10.43451-2.78951z" style="display:inline;fill-opacity:1;fill:#000;opacity:1;stroke-dasharray:none;stroke-linecap:butt;stroke-linejoin:miter;stroke-miterlimit:4;stroke-opacity:1;stroke-width:0;stroke:#000"/><path id="path2594" d="m296.42443 204.80017c.41707.19379 12.7674 3.38113 12.7674 3.38113s1.96462-6.62119-.48815-12.25918c-6.475-.25128-11.50929 2.71291-11.76297 2.78019-.15117-.0869-8.89273-2.38586-9.21449-1.83533-2.49164 4.26335-1.65515 10.32027-1.67898 10.56627.14422.0101 9.73526-2.44602 10.37719-2.63308z" style="display:inline;fill-opacity:1;fill:#474747;opacity:1;stroke-dasharray:none;stroke-linecap:butt;stroke-linejoin:miter;stroke-miterlimit:4;stroke-opacity:1;stroke-width:0;stroke:#000"/></svg>