<svg viewBox="0 0 560 1e3"><path id="path4719" class="hair" d="m262.58376 114.0127c.21917.48832 2.31612-1.93226 2.3643-2.07079 4.38729-4.75506 7.35197-5.82228 14.85013-7.3946.3433-.0174 6.24163 2.75103 6.59145 2.74513.23633 10.87737 10.65884 25.40386 24.35438 36.03372.20017.15536.27566-.16525-.0946-.63887-12.5916-16.10666-14.21229-25.03317-12.64832-23.99524 13.20185 14.1305 15.33012 26.00498 32.60237 36.07754.14864-.0141-9.04274-21.81414-5.51856-21.65624 2.11658 2.52119 5.15116-.95931 6.99189 1.46055 32.13954-56.274313-78.35232-60.270711-69.49304-20.56119z"/><path id="path4493" d="m284.79886 106.2673c-3.76916.19959-49.04838-1.7688-50.22337-5.75424 2.8893-7.750851 18.33048 1.97369 47.40997-3.426447.47078-.01864 3.99565-37.517496 4.45114-37.266074 7.49479 4.136951 20.46278 4.447672 35.38782.72747.48152-.120025-8.58249 36.994819-8.0869 37.025947 34.34233 2.157075 61.33993 7.154464 59.38462 17.314174-.4173-.0134-.83484-.0286-1.25262-.0455-27.58396-1.11196-56.20856-9.51272-87.07066-8.57538z" style="display:inline;fill-opacity:1;fill-rule:evenodd;fill:#2b1100;opacity:1;stroke-dasharray:none;stroke-linecap:butt;stroke-linejoin:miter;stroke-miterlimit:4;stroke-opacity:0;stroke-width:2.46133304;stroke:#000"/><path id="path4493-3-3" d="m284.64165 60.544245s8.93065.420356 21.9254 1.385739c21.12643 3.657507-19.46307 1.765751-21.9254-1.385739z" style="display:inline;fill-opacity:1;fill-rule:evenodd;fill:#2b1100;opacity:1;stroke-dasharray:none;stroke-linecap:butt;stroke-linejoin:miter;stroke-miterlimit:4;stroke-opacity:0;stroke-width:2.46133304;stroke:#000"/><path id="path4493-9" d="m286.56663 105.20664c-12.76717-.26376-49.8197-2.1827-51.81151-3.75379-6.81544-5.375806-3.31163-13.404011 3.96732-15.636885 1.00391.222343 1.94482.467946 2.83101.730605 11.84056 3.509417 13.9139 9.813637 25.99146 4.613579.54709-.02166 15.9786-33.579973 16.58662-33.762825.29439-.08853 1.35465.261558 2.26719.643308.28744.12025.66675.157212.95862.403494 4.02971 3.400283 6.80501 5.206743 11.03739 5.583032 5.1986.462194 17.58789-.503725 25.43245-4.337533.29708-.145187.64854-.146801.97828-.221019.6961-.156676 1.59587.183753 2.32497.02154.68671-.152781 5.58974 36.516937 6.1698 36.777158 12.03217 8.233626 12.38109 1.398932 25.11858 2.164272 6.619.52995 17.01386 9.656794 14.70356 16.530784-37.52268-4.75656-51.58961-10.81771-86.55574-9.75572z" style="display:inline;fill-opacity:1;fill-rule:evenodd;fill:#725d49;opacity:1;stroke-dasharray:none;stroke-linecap:butt;stroke-linejoin:miter;stroke-miterlimit:4;stroke-opacity:0;stroke-width:2.46133304;stroke:#000"/><path id="path4493-3" d="m238.93061 90.571422s12.19762 1.914098 19.6715 2.711564c4.37894.467235 6.67326-1.318204 5.32004-.446757-2.95915 2.050122-13.52688 4.828397-24.99154-2.264807z" style="display:inline;fill-opacity:1;fill-rule:evenodd;fill:#2b1100;opacity:1;stroke-dasharray:none;stroke-linecap:butt;stroke-linejoin:miter;stroke-miterlimit:4;stroke-opacity:0;stroke-width:2.46133304;stroke:#000"/><path id="path4493-3-0" d="m262.31445 110.762c-.28781-2.12466.47656-5.46433.53032-5.65811.13488-.48616-9.5989.24655-28.11271-3.88556 9.21239 8.51559 26.29032 8.776 27.58239 9.54367z" style="display:inline;fill-opacity:1;fill-rule:evenodd;fill:#725d49;opacity:1;stroke-dasharray:none;stroke-linecap:butt;stroke-linejoin:miter;stroke-miterlimit:4;stroke-opacity:0;stroke-width:2.4802506;stroke:#000"/><path id="path4493-3-0-4" d="m337.53625 119.39603c.57506-3.2915-.25599-8.20166-.30979-8.39468-.0633-.22688 1.45627-.22508 7.78564.82453 7.17942 1.19056 17.21679 2.30059 28.08887 3.0222-9.21979 8.4818-34.02174 4.44793-35.56472 4.54795z" style="display:inline;fill-opacity:1;fill-rule:evenodd;fill:#725d49;opacity:1;stroke-dasharray:none;stroke-linecap:butt;stroke-linejoin:miter;stroke-miterlimit:4;stroke-opacity:0;stroke-width:2.47631788;stroke:#000"/><path id="path4493-3-09" d="m324.70932 96.856577s12.19762 1.914099 19.6715 2.711559c4.37894.467244 6.67326-1.3182 5.32004-.44675-2.95915 2.050124-13.52688 4.828394-24.99154-2.264809z" style="display:inline;fill-opacity:1;fill-rule:evenodd;fill:#2b1100;opacity:1;stroke-dasharray:none;stroke-linecap:butt;stroke-linejoin:miter;stroke-miterlimit:4;stroke-opacity:0;stroke-width:2.46133304;stroke:#000"/><path id="path4493-3-0-49" d="m325.78052 60.029789c-15.01809.799094-23.80241 2.502608-30.47385 2.468081 4.07582 3.09942 28.93719-2.025755 30.47385-2.468081z" style="display:inline;fill-opacity:1;fill-rule:evenodd;fill:#725d49;opacity:1;stroke-dasharray:none;stroke-linecap:butt;stroke-linejoin:miter;stroke-miterlimit:4;stroke-opacity:0;stroke-width:2.4802506;stroke:#000"/><path id="path4493-3-0-49-6" d="m306.87579 61.83941c-2.90889-.526732-17.07839-1.949361-19.78108-3.499513.36466.139666.0669 1.867827.50906 1.999418 5.73263 1.706019 17.8454 1.910746 19.27202 1.500095z" style="display:inline;fill-opacity:1;fill-rule:evenodd;fill:#725d49;opacity:1;stroke-dasharray:none;stroke-linecap:butt;stroke-linejoin:miter;stroke-miterlimit:4;stroke-opacity:0;stroke-width:2.4802506;stroke:#000"/><path id="path4493-3-09-7" d="m269.86269 86.507489s23.88975 4.271172 62.45624 4.983466c.31175.0058.97221 4.338654.90062 4.723968-21.35125.960455-54.45144-.420319-65.61616-5.06838-.14937-.06218 2.19706-4.545371 2.2593-4.639054z" style="display:inline;fill-opacity:1;fill-rule:evenodd;fill:#28170b;opacity:1;stroke-dasharray:none;stroke-linecap:butt;stroke-linejoin:miter;stroke-miterlimit:4;stroke-opacity:0;stroke-width:2.46133304;stroke:#000"/></svg>