<svg viewBox="0 0 560 1e3"><path d="m353.97219 105.96955c.27902.62619.53016 1.2173.74957 1.8069.58225 1.56466.94103 3.11876 1.00444 5.29008.0444 1.52112.27061 3.78123-.34403 5.66433-.0864 1.31284.32385 17.24161.23085 18.53619-.12696 1.76726-1.20195-6.5998-1.34094-4.86712-.25847 3.22209-.0956 1.87601-.3943 4.97529-.1385 1.43701.21875 12.98559.0719 14.39553-.17118 1.64311-1.22365-3.54275-1.40595-1.93701-.42909 3.77945-.51295 4.13994-1.0011 7.70627-.24917 1.82045.7045 16.47463.4406 18.23785-.1888 1.26163-1.22949-3.44605-1.42559-2.21422-.21793 1.36896-.41926 1.26322-.71562 13.01706-.0153.60811 1.07639 9.60554 1.06089 10.23398-.0193.7816-1.64023-2.70781-1.68044-1.8968-1.80944 36.49355-2.34971 99.33043-2.9754 131.21164-.0235 1.19904 1.54393 11.8076 1.52034 12.90719-.026 1.21185-2.20999-2.26158-2.23621-1.17911-.3653 6.74247.74852 13.34977-.44317 20.309-.21534.91876-1.6661-3.82656-1.88627-2.93434-1.71111 6.93471-2.62806 8.37554-4.59607 13.62634-.57766.76673.82528-14.53389.14545-13.99036-1.58806 1.26967-3.93408 14.37111-6.67534 17.56263-.28142.32764 1.37958-13.09111 1.0953-12.85099-.45469.38408-3.76701 12.16865-4.26792 12.70072-.58949.62615-.47101-8.48825-.65705-7.94997-.9676 2.79957-5.00284 7.96762-5.51324 8.14008-9.32461 3.1507-30.07676-6.04301-43.31034-3.52823-5.15986.98053-16.90531-10.46502-17.17501-5.76653-.15002 2.61365-.34264-194.52815-.17811-197.67336.22862-4.37-1.10311-14.9328 2.28051-20.5576 10.88718-18.09849 21.31401-67.677233 32.83733-71.223062 1.40717-.432998 2.2026-.753845 3.6334-1.022553.54601-.102541-2.56272-1.224189-2.01385-1.302305.472-.06718 5.22624.874731 5.70013.825809 1.83819-.189768 2.78359-.241552 4.64272-.150221.85835.04217-2.34421-1.822661-1.48327-1.718976.93395.112476 6.83784 2.198946 7.7734 2.385055 1.863.370601 2.63396.513468 4.49444 1.183693.75095.270522-1.90505-2.371635-1.15587-2.051135.77221.330354 6.04328 3.999936 6.81277 4.384111 2.15629 1.076545 2.92522 1.490841 5.04739 3.000957.78447.558224-.99653-2.540878-.21847-1.921899.52618.418607 4.98829 5.413701 5.51117 5.860407 2.4188 2.066421 3.39445 3.028591 5.72491 5.711488.53889.620388-.0812-2.523658.45199-1.869484.54394.667338 3.64733 6.539836 4.18497 7.242656 2.17576 2.844175 2.95469 3.948979 5.01164 7.387779.44433.74283-.0207-2.906463.41741-2.13527z" class="hair" id="path4862"/></svg>