<svg viewBox="0 0 560 1e3"><path style="baseline-shift:baseline;clip-rule:nonzero;color-interpolation-filters:linearRGB;color-interpolation:sRGB;color-rendering:auto;color:#000;direction:ltr;display:inline;enable-background:accumulate;fill-opacity:1;fill-rule:evenodd;fill:#000;image-rendering:auto;isolation:auto;mix-blend-mode:normal;opacity:1;overflow:visible;shape-rendering:auto;solid-color:#000000;solid-opacity:1;stroke-dasharray:none;stroke-dashoffset:0;stroke-linecap:butt;stroke-linejoin:miter;stroke-miterlimit:4;stroke-opacity:1;stroke-width:1.77035642;stroke:none;visibility:visible;white-space:normal;writing-mode:lr-tb" d="m336.67812 841.60277c2.22085-6.48168 4.07327-23.88738 6.86249-48.98913 3.235-29.11351 9.23009-70.7682 2.09774-111.0184-.32901-1.85668 15.63814-45.44096 11.27711-141.02252-.25839-5.66319-1.40475-2.19834-1.59364-5.85976-18.35816 5.1524-64.27852 5.74594-77.62644 2.38332.93627 6.39984-3.79386 11.29263-2.65491 17.47692 2.35463 12.78537 6.22047 23.42494 8.22336 32.62077.0425.19537.0873.38952.1244.58402.95096 4.98748 1.64899 6.14898 3.08327 11.76174 3.46039 22.89029 18.66659 61.42323 25.93951 81.54848-16.39841 61.82149.63945 103.58958 6.56496 160.42814 7.04026-3.30483 15.0152-.65432 17.70215.0864z" id="path11108"/><path style="baseline-shift:baseline;clip-rule:nonzero;color-interpolation-filters:linearRGB;color-interpolation:sRGB;color-rendering:auto;color:#000;direction:ltr;display:inline;enable-background:accumulate;fill-opacity:1;fill-rule:evenodd;fill:#000;image-rendering:auto;isolation:auto;mix-blend-mode:normal;opacity:1;overflow:visible;shape-rendering:auto;solid-color:#000000;solid-opacity:1;stroke-dasharray:none;stroke-dashoffset:0;stroke-linecap:butt;stroke-linejoin:miter;stroke-miterlimit:4;stroke-opacity:1;stroke-width:1.77084005;stroke:none;visibility:visible;white-space:normal;writing-mode:lr-tb" d="m267.23872 838.4191c10.43665-36.80217 22.57936-85.45793 22.66016-114.6076-.11382-9.97652-1.4161-26.62836-5.21629-37.19282-.50064-1.39178 8.0704-62.82592 7.16821-91.96966-.0185-.59897 1.54741-2.89277 1.49723-3.45798-.12842-1.44489-.40044-2.84549-.59652-4.05342-1.78565-11.00008-11.04331-29.37927-14.86188-50.18047-26.36653 9.36509-60.85848-55.27836-63.75273-54.21319-.91813 20.74228-1.29578 86.17077 28.15769 181.12232 1.41175 4.55119 2.0997 14.18196 2.01111 15.64706 2.20237 5.96005 4.21082 108.63638 9.39833 159.1073 6.31619-2.58038 9.92718-1.08946 13.53469-.20155z" id="path11110"/><path style="baseline-shift:baseline;clip-rule:nonzero;color-interpolation-filters:linearRGB;color-interpolation:sRGB;color-rendering:auto;color:#000;direction:ltr;display:inline;enable-background:accumulate;fill-opacity:1;fill-rule:evenodd;fill:#c8c8c8;image-rendering:auto;isolation:auto;mix-blend-mode:normal;opacity:1;overflow:visible;shape-rendering:auto;solid-color:#000000;solid-opacity:1;stroke-dasharray:none;stroke-dashoffset:0;stroke-linecap:butt;stroke-linejoin:miter;stroke-miterlimit:4;stroke-opacity:1;stroke-width:1.67334545;stroke:none;visibility:visible;white-space:normal;writing-mode:lr-tb" d="m336.77474 841.54046c.58817-5.10668 2.47122-22.66511 4.96313-47.76686 2.89017-29.11351 8.80445-64.26817 3.32592-112.0184-.0815-.71031 9.09907-42.18011 10.73147-87.25098.56277-15.53831 1.31163-39.22913 1.38523-59.78018.02-5.59679.3829-11.1506.38548-16.08694.008-15.47907-.93381-26.27125-.93381-26.27125 33.72956-32.16254-3.24916-78.8631-4.5722-81.91633-13.38607 6.4024-75.21854 28.14253-80.33144 23.15495.83647 6.39984 7.79328 115.94444 8.81082 122.12873 2.10365 12.78537 5.55742 23.42494 7.34682 32.62077.038.19537.078.38952.11114.58402.84959 4.98748 1.47322 14.81104 2.75462 20.4238 4.18309 18.32272 6.88096 25.30567 7.63764 27.21176 8.0663 20.31924 14.76729 43.90236 14.64351 44.42466-14.65047 61.82149 2.8402 96.72715 5.90058 160.31571 6.37574-2.12547 17.96684.47627 17.84113.22654z" id="path11112"/><path style="baseline-shift:baseline;clip-rule:nonzero;color-interpolation-filters:linearRGB;color-interpolation:sRGB;color-rendering:auto;color:#000;direction:ltr;display:inline;enable-background:accumulate;fill-opacity:1;fill-rule:evenodd;fill:#c8c8c8;image-rendering:auto;isolation:auto;mix-blend-mode:normal;opacity:1;overflow:visible;shape-rendering:auto;solid-color:#000000;solid-opacity:1;stroke-dasharray:none;stroke-dashoffset:0;stroke-linecap:butt;stroke-linejoin:miter;stroke-miterlimit:4;stroke-opacity:1;stroke-width:1.67334545;stroke:none;visibility:visible;white-space:normal;writing-mode:lr-tb" d="m267.42374 838.30762c6.58782-34.96088 20.0387-76.85945 20.87124-108.68302.18761-8.60134-.92674-29.46227-4.90433-41.84596-.44704-1.39178 6.25913-62.82592 5.45355-91.96966-.0165-.59897 1.38171-2.89277 1.33691-3.45798-.11467-1.44489-.35756-2.84549-.53265-4.05342-1.59444-11.00008-15.39677-127.57698-18.80645-148.37818-23.71289-13.25991-43.84533-26.92069-46.98774-26.54302-18.47183 33.11664-8.3994 172.96177 20.7402 251.64986 1.63965 4.42769 1.87486 14.18196 1.79576 15.64706 1.96654 5.96005 3.74509 97.07442 7.3358 157.83455 6.91548-1.42636 8.19592-.72406 13.69772-.20018z" id="path11114"/><path style="baseline-shift:baseline;clip-rule:nonzero;color-interpolation-filters:linearRGB;color-interpolation:sRGB;color-rendering:auto;color:#000;direction:ltr;display:inline;enable-background:accumulate;fill-opacity:1;fill-rule:evenodd;fill:#333;image-rendering:auto;isolation:auto;mix-blend-mode:normal;opacity:1;overflow:visible;shape-rendering:auto;solid-color:#000000;solid-opacity:1;stroke-dasharray:none;stroke-dashoffset:0;stroke-linecap:butt;stroke-linejoin:miter;stroke-miterlimit:4;stroke-opacity:1;stroke-width:1.69410849;stroke:none;visibility:visible;white-space:normal;writing-mode:lr-tb" d="m337.26173 841.54046c.60285-5.10668 2.53292-22.66511 5.08705-47.76686 2.96234-29.11351 9.0243-64.26817 3.40897-112.0184-22.05275-2.02369-24.1376-2.85269-32.83053-.75699-15.03753 61.82149 1.08486 96.72715 6.04791 160.31571 6.53495-2.12547 18.41548.47627 18.28664.22654z" id="path11112-2"/><path d="M306.25237 658.37575C284.05575 618.9078 274.30467 520.03041 273.49983 475.7992c3.81661 43.09419 14.7887 152.91589 32.75254 182.57655z" class="shadow" id="path11116"/><path style="baseline-shift:baseline;clip-rule:nonzero;color-interpolation-filters:linearRGB;color-interpolation:sRGB;color-rendering:auto;color:#000;direction:ltr;display:inline;enable-background:accumulate;fill-opacity:1;fill-rule:evenodd;fill:#333;image-rendering:auto;isolation:auto;mix-blend-mode:normal;opacity:1;overflow:visible;shape-rendering:auto;solid-color:#000000;solid-opacity:1;stroke-dasharray:none;stroke-dashoffset:0;stroke-linecap:butt;stroke-linejoin:miter;stroke-miterlimit:4;stroke-opacity:1;stroke-width:1.69237423;stroke:none;visibility:visible;white-space:normal;writing-mode:lr-tb" d="m267.4459 838.30762c6.7385-34.96088 20.49704-76.85945 21.34862-108.68302.19191-8.60134-.94792-29.46227-5.01649-41.84596-6.23901-4.7039-29.52942-15.78939-39.68356-22.7524 1.67715 4.42769 1.91774 14.18196 1.83684 15.64706 2.01152 5.96005 3.83075 97.07442 7.50358 157.83455 7.07366-1.42636 8.38338-.72406 14.01102-.20018z" id="path11114-3"/><path id="path6411-6-8-3" d="m312.66339 657.0585c-4.84341 26.6202-.82148 37.24639 4.05778 45.66543 4.9748 7.73154 18.96984 11.28701 25.61851 1.0227 5.85225-10.69073 9.67748-22.06379 3.30234-46.61643-1.53778-12.44227-27.88109-15.13119-32.97863-.0717z" style="display:inline;fill-opacity:1;fill:#000;opacity:1;stroke-dasharray:none;stroke-linecap:butt;stroke-linejoin:miter;stroke-miterlimit:4;stroke-opacity:1;stroke-width:0;stroke:#000"/><path id="path6411-6-8" d="m313.53325 657.7455c-4.58569 25.65479-.77777 35.89561 3.84186 44.00932 4.71008 7.45115 17.96042 10.87768 24.2553.98562 5.54085-10.30302 9.16253-21.26362 3.12662-44.92584-1.45595-11.99104-26.3975-14.58244-31.22378-.0691z" style="display:inline;fill-opacity:1;fill:#aca793;opacity:1;stroke-dasharray:none;stroke-linecap:butt;stroke-linejoin:miter;stroke-miterlimit:4;stroke-opacity:1;stroke-width:0;stroke:#000"/><path id="path6411-6-8-2-4" d="m247.19302 710.08404c3.45471.33077 6.98118-1.42558 9.2932-6.30511 4.28089-10.69072 7.07902-22.06378 2.41565-46.61643-6.78484-11.84448-14.46154-10.00243-20.29185-9.8518-9.46202 18.68247 2.35913 48.47929 8.583 62.77334z" style="display:inline;fill-opacity:1;fill:#000;opacity:1;stroke-dasharray:none;stroke-linecap:butt;stroke-linejoin:miter;stroke-miterlimit:4;stroke-opacity:1;stroke-width:0;stroke:#000"/><path id="path6411-6-8-2" d="m247.22788 708.84801c3.21274.31877 6.49222-1.37388 8.64231-6.07644 3.98106-10.30302 6.5832-21.26362 2.24645-44.92584-6.30963-11.41492-13.44865-9.63967-18.87061-9.49452-8.7993 18.00493 2.1939 46.72114 7.98185 60.4968z" style="display:inline;fill-opacity:1;fill:#aca793;opacity:1;stroke-dasharray:none;stroke-linecap:butt;stroke-linejoin:miter;stroke-miterlimit:4;stroke-opacity:1;stroke-width:0;stroke:#000"/><path id="path6411-6-8-2-0-1" d="m283.46202 565.31836c-5.10606-13.67802 65.23775-40.77708 74.47463-54.11823-6.9673 16.20875-78.16485 42.02145-74.47463 54.11823z" style="display:inline;fill-opacity:1;fill:#333;opacity:1;stroke-dasharray:none;stroke-linecap:butt;stroke-linejoin:miter;stroke-miterlimit:4;stroke-opacity:1;stroke-width:0;stroke:#000"/><path id="path6411-6-8-2-0-1-1" d="m291.61495 617.30909c-4.52535-13.67802 57.81836-40.77708 66.00474-54.11823-6.17492 16.20875-69.27527 42.02145-66.00474 54.11823z" style="display:inline;fill-opacity:1;fill:#333;opacity:1;stroke-dasharray:none;stroke-linecap:butt;stroke-linejoin:miter;stroke-miterlimit:4;stroke-opacity:1;stroke-width:0;stroke:#000"/><path id="path6411-6-8-2-0-1-14" d="m282.47103 567.60727c5.10606-13.67802-57.86275-32.02708-67.09963-45.36823 6.9673 16.20875 70.78985 33.27145 67.09963 45.36823z" style="display:inline;fill-opacity:1;fill:#333;opacity:1;stroke-dasharray:none;stroke-linecap:butt;stroke-linejoin:miter;stroke-miterlimit:4;stroke-opacity:1;stroke-width:0;stroke:#000"/><path id="path6411-6-8-2-0-1-1-6" d="m288.81379 617.47668c4.52535-13.67802-60.19336-35.02708-68.37974-48.36823 6.17492 16.20875 71.65027 36.27145 68.37974 48.36823z" style="display:inline;fill-opacity:1;fill:#333;opacity:1;stroke-dasharray:none;stroke-linecap:butt;stroke-linejoin:miter;stroke-miterlimit:4;stroke-opacity:1;stroke-width:0;stroke:#000"/></svg>