<svg viewBox="0 0 560 1e3"><path id="path6028" d="m347.82542 405.47846c25.59694 43.62226 27.18892 82.95443 27.22799 102.38943.0143 7.12273-23.29908 6.55398-110.63296 2.54408-18.36377-.22477-58.73302.92085-58.70053.60994 3.78245-36.19606 17.95036-79.33082 20.91502-99.40845 36.34163 12.28427 54.05413 11.58297 121.19048-6.135z" style="display:inline;fill-opacity:1;fill-rule:evenodd;fill:#000;opacity:1;stroke-dasharray:none;stroke-linecap:butt;stroke-linejoin:miter;stroke-miterlimit:4;stroke-opacity:1;stroke-width:0;stroke:#000"/><path id="path6031" d="m349.03754 406.58021c26.68233 40.62495 28.15258 63.29193 26.71584 97.71038.23441 3.44975 1.34341 6.02352-4.03841 7.05809-7.69466 1.47918-46.10686 1.0199-96.86078-2.28522-17.22485-1.7838-70.10199 2.14681-70.14703 1.84296-6.97512-47.05753 12.5941-82.4355 21.01369-98.31597 36.42612 14.76968 76.93272 8.18054 123.31669-6.01024z" style="display:inline;fill-opacity:1;fill-rule:evenodd;fill:#333;opacity:1;stroke-dasharray:none;stroke-linecap:butt;stroke-linejoin:miter;stroke-miterlimit:4;stroke-opacity:1;stroke-width:0;stroke:#000"/></svg>