<svg viewBox="0 0 560 1e3"><path style="display:inline;fill-opacity:1;fill-rule:nonzero;fill:#000;opacity:1;stroke-dasharray:none;stroke-linecap:butt;stroke-linejoin:miter;stroke-miterlimit:4;stroke-opacity:1;stroke-width:0;stroke:#000" d="m368.45236 268.83602c.40069 1.40387.82871 12.89967-6.36035 37.77919-5.42713 18.7819-20.56882 29.98312-21.1652 31.4412-5.76961 8.24948-15.17503 22.20843-10.37382 32.19769.20871.43423 2.86633 6.1658 5.95239 12.12819 5.12253 9.89693 11.7358 22.29153 12.56986 25.83552.0.0-51.7146 6.85286-63.22382 35.19023-2.06147 4.01155-2.1084 11.81811-3.46792 16.10443-.27859.87834-1.00697 6.35332-3.50565 8.26757-.26944.20641-1.13656 1.14752-4.58251.28177-.17413-.0437-1.37345.71664-3.61847.0361-5.83439-1.76869-6.66978-8.86034-6.76649-9.28816-1.98539-8.78313-6.24957-28.02971-9.43291-34.24779-14.19124-27.72004-27.97462-8.06406-29.28246-10.40039.41618-1.08804 4.02945-13.36841 6.19444-18.09893 11.62539-25.40153 12.08709-42.05871 12.25836-57.26185.24452-21.70551-6.08737-33.66342-6.98584-46.20078-3.12591-70.13568 30.30326-40.0847 52.38713-59.43686.97617-2.02088 1.11046-18.85833-12.79977-26.13781-.63873-.33426 5.76049-3.75929 10.28502-6.16163 1.43082-.85664 10.68402 25.74457 10.29068 24.95701-.12491-.25011-.64543-.55498-1.33868.14782-.64398.65286 22.17244-28.24484 22.30977-27.24411 1.50252 1.12706 9.10193 4.89722 7.88644 5.69617-25.72677 16.91039-30.59284 28.69306-29.15 28.91364 3.13994 1.52155 66.54554 33.43249 67.65165 34.25705z" id="path3994-7-8"/><path style="display:inline;fill-opacity:1;fill-rule:evenodd;fill:#ff6db6;opacity:1;stroke-dasharray:none;stroke-linecap:butt;stroke-linejoin:miter;stroke-miterlimit:4;stroke-opacity:1;stroke-width:0;stroke:#000" d="m368.47602 268.56519c-.47811 3.70196-1.71839 20.80284-7.95729 39.14162-6.28969 18.48806-17.77339 26.59126-18.77871 27.80104-8.36776 10.0696-13.07538 17.52333-14.41501 28.45838-1.1072 9.03783 24.36594 44.01876 24.72923 48.81716-40.10653 11.44456-64.97545 42.96388-65.74712 45.30165-.78385 1.88787-4.7912 9.82211-7.2881 11.60252-1.21712.86786-4.56426-.37235-4.8162-.39645-.29397-.0276-.77535.50225-2.98817-.0701-5.65546-1.4629-10.22974-5.40448-10.80185-7.35518-18.43111-29.49711-30.68812-46.0732-35.41353-47.26215 7.94787-20.31139 14.53739-34.53836 15.52113-39.64488 2.40743-12.49684 4.34652-31.04582 4.51599-33.91997 1.27707-21.66848-5.53672-33.8742-6.42575-46.41156-6.20108-50.45733 18.32727-82.76734 38.32548-88.64617.49229-.51848 5.43756-2.25669 9.91452-4.65903 9.84838 23.51827 8.84084 25.04443 9.47199 24.50789 1.18842-.79719 21.46117-26.64717 21.46117-26.64717 1.48672 1.12706 18.23182 7.00546 18.7637 8.34782.0.0 25.14245-4.0197 34.62152 28.41718.0476.44543-1.73667 7.33167-1.55036 15.79956.11811 5.36806-.44125 11.33436-1.14264 16.81783z" id="path3998-9-0"/><path style="display:inline;fill-opacity:1;fill:#000;stroke-dasharray:none;stroke-linecap:butt;stroke-linejoin:miter;stroke-miterlimit:4;stroke-opacity:1;stroke-width:0;stroke:#000" d="M95.342618 843.58884C116.4048 576.55377 241.95988 326.45877 243.25266 319.21917l111.18557 2.13254S461.8326 572.88188 498.24492 845.33733C469.5415 883.9015 99.033509 884.7115 95.342618 843.58884z" id="path4019-2-8"/><path style="display:inline;fill-opacity:1;fill:#fff;stroke-dasharray:none;stroke-linecap:butt;stroke-linejoin:miter;stroke-miterlimit:4;stroke-opacity:1;stroke-width:0;stroke:#000" d="m287.16658 200.45746c-.22893.0426-4.1786 2.16887-6.81426 3.26478.19397 1.8812 9.40764 18.57713 15.12903 29.57646 2.86255-.15662 6.59884-.12905 7.28265-7.15631-5.45611-10.51551-13.64965-22.35416-15.59742-25.68493z" id="path4019-8-1"/><path style="display:inline;fill-opacity:1;fill:#1e7bb6;stroke-dasharray:none;stroke-linecap:butt;stroke-linejoin:miter;stroke-miterlimit:4;stroke-opacity:1;stroke-width:0;stroke:#000" d="m284.03456 201.91659c-.22893.0426-9.8036 4.79386-12.43927 5.88977.19447 1.88608 11.83049 19.78885 17.54849 30.78695 3.07553-2.99339 11.44714-8.96947 10.40457-11.15266-5.45583-10.47509-13.57594-22.21027-15.51379-25.52406z" id="path4019-8-9-9"/><path style="display:inline;fill-opacity:1;fill:#fff;stroke-dasharray:none;stroke-linecap:butt;stroke-linejoin:miter;stroke-miterlimit:4;stroke-opacity:1;stroke-width:0;stroke:#000" d="m324.54387 203.65532c-.12458-.19676-4.31778-4.35181-6.31344-6.39266-1.04706.54898-14.38968 17.39522-26.50854 33.34093-.64624.85031-15.94218 89.06051-16.57941 89.90309 1.89905 3.70374 9.21321-3.81421 10.35881-1.16913.91653-1.21918 14.23196-81.67571 15.13655-82.88937 11.74091-15.75234 22.18949-30.58793 23.90603-32.79286z" id="path4019-6-4"/><path style="display:inline;fill-opacity:1;fill:#1e7bb6;stroke-dasharray:none;stroke-linecap:butt;stroke-linejoin:miter;stroke-miterlimit:4;stroke-opacity:1;stroke-width:0;stroke:#000" d="m332.55607 204.81471c-.1201-.1938-9.32772-3.37994-11.85418-5.14391-1.00377.53771-14.87571 18.11974-26.49296 33.81128-.72428.97829-15.57153 88.00313-16.28597 88.96833.51948 1.43014 12.22386-4.32894 14.80609.99828.72129-1.01259 12.66269-79.95727 13.40358-80.98044 11.76374-16.24574 24.74694-35.45328 26.42344-37.65354z" id="path4019-81-7"/><path style="display:inline;fill-opacity:1;fill:#3e89b8;stroke-dasharray:none;stroke-linecap:butt;stroke-linejoin:miter;stroke-miterlimit:4;stroke-opacity:1;stroke-width:0;stroke:#000" d="m97.40242 847.45958c19.50361-235.78756 123.08909-474.26299 142.57889-521.60249 1.97876-4.8063 2.22684-3.91685 2.34004-4.55074l110.93838.0865s107.0138 259.49888 140.6559 525.66899c-10.64379 20.01032-296.22374 41.57276-396.513211.39771z" id="path4019-2-2-5-5"/><path style="display:inline;fill-opacity:1;fill:#1e7bb6;stroke-dasharray:none;stroke-linecap:butt;stroke-linejoin:miter;stroke-miterlimit:4;stroke-opacity:1;stroke-width:0;stroke:#000" d="m338.10766 318.31218c27.06453 104.41657 107.55568 542.74271 108.50071 542.4271 5.94685-.53108 27.062-4.68578 30.06753-5.91002-1.01211-5.17108-109.64436-480.15568-138.56824-536.51708z" id="path4019-8-9-4-1-2"/><path style="display:inline;fill-opacity:1;fill:#1e7bb6;stroke-dasharray:none;stroke-linecap:butt;stroke-linejoin:miter;stroke-miterlimit:4;stroke-opacity:1;stroke-width:0;stroke:#000" d="m276.87512 317.52904c-.19447 1.88608-61.77052 551.75832-62.71555 551.44271-6.43429-.6953-28.10489-1.11807-31.83529-3.65481 1.01211-5.17108 79.06199-502.74021 94.55084-547.7879z" id="path4019-8-9-4-1-5-6"/><path style="display:inline;fill-opacity:1;fill:#1e7bb6;stroke-dasharray:none;stroke-linecap:butt;stroke-linejoin:miter;stroke-miterlimit:4;stroke-opacity:1;stroke-width:0;stroke:#000" d="m293.58556 316.57607c-.19447 1.88608 13.35958 552.81897 12.94488 554.09435-5.19685.71892-28.10488 1.00326-32.54239-.11927 1.01211-5.17108 11.53329-515.99846 19.59751-553.97508z" id="path4019-8-9-4-1-5-3-9"/><path style="display:inline;fill-opacity:1;fill:#1e7bb6;stroke-dasharray:none;stroke-linecap:butt;stroke-linejoin:miter;stroke-miterlimit:4;stroke-opacity:1;stroke-width:0;stroke:#000" d="m315.94956 319.46455c.19447 1.88608 49.27052 549.6422 50.21555 549.32659 3.95941-.34174 28.45844-1.29485 31.83529-2.59415-1.01211-5.17108-66.56199-501.68475-82.05084-546.73244z" id="path4019-8-9-4-1-5-5-9"/><path id="path1674-1-7" d="m315.99461 252.88845c-1.37945.98862-17.34452-8.27371-22.95509-8.22648-5.26939.0402-7.9568-.53436-13.48383-.54382-5.6819 1.10798-22.06175 10.04898-24.40811 8.45101-1.59383-1.88039 1.23401-29.11395 3.1855-29.29671 1.87682-1.89222 21.89219 7.05508 23.39518 6.935 6.35901-2.51072 7.58527-.66317 11.49063.25487 1.31971.21024 25.26269-7.6188 27.52041-5.51982.0.0 2.20651 21.40039-4.74469 27.94631z" style="display:inline;fill-opacity:1;fill:#000;stroke-dasharray:none;stroke-linecap:butt;stroke-linejoin:miter;stroke-miterlimit:4;stroke-opacity:1;stroke-width:0;stroke:#83afc8"/><path style="display:inline;fill-opacity:1;fill:#1e7bb6;stroke-dasharray:none;stroke-linecap:butt;stroke-linejoin:miter;stroke-miterlimit:4;stroke-opacity:1;stroke-width:0;stroke:#000" d="M249.49097 318.13219C222.42644 422.54876 143.10134 859.95701 142.15631 859.6414c-4.48974-.87207-26.86745-4.83039-30.42108-7.36713 1.01211-5.17108 108.83186-477.78068 137.75574-534.14208z" id="path4019-8-9-4-1-1-6"/><path style="display:inline;fill-opacity:1;fill:#1e7bb6;stroke-dasharray:none;stroke-linecap:butt;stroke-linejoin:miter;stroke-miterlimit:4;stroke-opacity:1;stroke-width:0;stroke:#000" d="m241.44845 317.24524c.11256.38409 1.02669 3.74741.79135 4.17594.19447 1.88608 111.84251 1.80599 112.78754 1.49038.0.0.88128-2.53229 1.25293-3.65482-13.58756-1.2827-112.18686-1.87969-114.83182-2.0115z" id="path4019-8-9-4-3"/><path id="path1686-2-1-7-7" d="m271.52009 353.72765c-1.19524-.14596-12.84541-3.14232-13.07284-3.26583-.65939-1.12584 16.58569-120.05835 29.52529-119.89876 11.02917-.30893 10.69385 114.75002 11.66368 118.3863-1.61972.95124-11.03187 3.81514-12.43323 4.14596-.65748-1.56373-.0891-117.7173.46134-119.97986-9.06295 32.34178-13.91483 73.67671-16.14424 120.61219z" style="display:inline;fill-opacity:1;fill:#000;stroke-dasharray:none;stroke-linecap:butt;stroke-linejoin:miter;stroke-miterlimit:4;stroke-opacity:1;stroke-width:0;stroke:#83afc8"/><path style="display:inline;fill-opacity:1;fill:#ff6db6;stroke-dasharray:none;stroke-linecap:butt;stroke-linejoin:miter;stroke-miterlimit:4;stroke-opacity:1;stroke-width:0;stroke:#83afc8" d="m299.03146 348.94936c-1.48451.95124-9.86966 3.33082-11.15404 3.66163-.57144-1.48288.8767-107.95019.1796-118.95443-.038-.59991-.0824-2.75985-.14882-2.84855 9.79123-.0998 10.23439 114.50507 11.12326 118.14135z" id="path5759-6"/><path style="display:inline;fill-opacity:1;fill:#3e89b8;stroke-dasharray:none;stroke-linecap:butt;stroke-linejoin:miter;stroke-miterlimit:4;stroke-opacity:1;stroke-width:0;stroke:#83afc8" d="m287.01547 233.61602c-14.61613 51.07412-12.41183 76.69661-16.16365 119.38514-1.09546-.14596-11.32731-2.95397-11.53575-3.07748 3.62062-39.6346 16.90366-119.24133 27.889-119.24067-.085.35013-.10632 2.64198-.1896 2.93301z" id="path1686-2-1-71"/><path style="display:inline;fill-opacity:1;fill:#ff6db6;stroke-dasharray:none;stroke-linecap:butt;stroke-linejoin:miter;stroke-miterlimit:4;stroke-opacity:1;stroke-width:0;stroke:#83afc8" d="m279.96087 243.66343c-5.55836 1.00416-21.56502 9.3388-23.8603 7.89064-1.55922-1.70403 1.09945-26.30726 3.0085-26.47282 1.83594-1.71488 21.50675 6.08443 22.97697 5.97565 2.22583.1873.51321 2.78358 2.05515 2.97821-2.00513.0154-1.45984 9.63272-4.18032 9.62832z" id="path5755-5"/><path style="display:inline;fill-opacity:1;fill:#3e89b8;stroke-dasharray:none;stroke-linecap:butt;stroke-linejoin:miter;stroke-miterlimit:4;stroke-opacity:1;stroke-width:0;stroke:#83afc8" d="m293.32666 231.28762c1.29104.1906 24.70809-6.57988 26.91662-4.67766.0.0 2.13996 19.10801-4.65995 25.04025v-9e-5c-1.34941.89591-16.94355-7.53671-22.43206-7.49395-2.56105.0156-2.49862-9.35383-4.43195-9.60549 1.81043-.0665 2.24355-3.10425 4.60734-3.26306z" id="path1682-7-7"/><path id="path1684-01-5" d="m292.95384 244.53747c-5.63989 1.45296-8.51351 1.60763-13.98648-.52618-.77351-5.09534-.16474-10.28625 2.25344-13.46075 5.05648.42851 7.21862.56398 11.91904.24638 3.21373 2.22258.80515 10.21988-.18607 13.74055z" style="display:inline;fill-opacity:1;fill:#000;stroke-dasharray:none;stroke-linecap:butt;stroke-linejoin:miter;stroke-miterlimit:4;stroke-opacity:1;stroke-width:0;stroke:#83afc8"/><path id="path1686-2-5" d="m292.06058 244.25858c-4.9209 1.23323-7.50376 1.66397-11.93592-.50391-.6601-4.87943-.14044-9.85028 1.9231-12.8903 6.32888-2.24755 7.12844-.73773 10.1715.23613 2.74253 2.1284.68711 9.78676-.1588 13.15826z" style="display:inline;fill-opacity:1;fill:#ff6db6;stroke-dasharray:none;stroke-linecap:butt;stroke-linejoin:miter;stroke-miterlimit:4;stroke-opacity:1;stroke-width:0;stroke:#83afc8"/></svg>