<svg viewBox="0 0 560 1e3"><path id="path4164" d="m370.8969 268.8878c2.36849 23.60153 1.75351 51.52091-5.54547 78.55465.0897 2.34411 4.6595 17.11968 7.11537 29.07427-36.77086 9.58655-135.02177 13.96466-153.89353-4.89184 2.433-12.49684 7.69036-32.03475 15.53901-53.11514-2.13048-7.70551 3.57316-12.49737 2.54969-25.90973.40962-35.13389 30.30326-40.0847 52.38713-59.43686.97617-2.02088 2.05999-19.89061-11.85024-27.17009-.63873-.33426 3.66191-3.80977 8.18644-6.21211 9.24713 11.38115 27.34766 3.74775 33.42729-1.52056 1.50252 1.12706 8.39482 5.20658 7.17933 6.00553-25.72677 16.91039-30.9022 28.84774-29.45936 29.06832 3.13994 1.52155 66.54554 33.43249 67.65165 34.25705z" style="display:inline;fill-opacity:1;fill-rule:evenodd;fill:#000;opacity:1;stroke-dasharray:none;stroke-linecap:butt;stroke-linejoin:miter;stroke-miterlimit:4;stroke-opacity:1;stroke-width:0;stroke:#000"/><path id="path4166" d="m364.11286 347.17422c.49582 5.07437 4.52707 17.16139 6.90216 28.43074-31.28229 8.06681-138.10149 14.24686-150.70386-5.06389 1.76466-12.54996 14.32006-47.08252 14.91305-52.03193-3.0755-26.84168-.52105-45.74614 4.01256-70.57209 4.39438-23.68414 15.86738-37.30901 37.69935-41.95594.49229-.51848 3.97915-3.18477 8.45611-5.58711 9.14993 11.38115 27.08296 3.74775 33.09868-1.52056 1.48672 1.12706 17.52471 7.31482 18.05659 8.65718 2.58742.19199 9.57783.93138 12.62329 2.06534 21.32697 11.58453 25.15316 34.74558 21.91064 58.57411 1.82371 35.69041-1.65952 61.28238-6.96857 79.00415z" style="display:inline;fill-opacity:1;fill-rule:evenodd;fill:#1a1a1a;opacity:1;stroke-dasharray:none;stroke-linecap:butt;stroke-linejoin:miter;stroke-miterlimit:4;stroke-opacity:1;stroke-width:0;stroke:#000"/><path id="path1863-0" d="m282.94456 458.76549c-.0483.15247-.11284.47208-.19954.90622-.41277 2.06685-1.81439 6.53069-3.87757 8.11265-.26921.20642-1.13559 1.14752-4.57861.28177-.17398-.0437-2.18026 1.1699-4.2783.12449-4.65827-2.32112-6.22252-8.10904-6.31915-8.53686 3.82592 9.08132 8.89939 9.3147 10.40315 7.55401 5.26837 2.79873 7.50839-4.81217 8.85002-8.44228z" style="display:inline;fill-opacity:1;fill-rule:evenodd;fill:#000;opacity:1;stroke-dasharray:none;stroke-linecap:butt;stroke-linejoin:miter;stroke-miterlimit:4;stroke-opacity:1;stroke-width:0;stroke:#000"/><path id="path1865-2" d="m298.46108 438.89935c-6.48422 6.26583-11.19704 12.82415-15.33516 19.44716-1.04023 1.75909-1.92047 7.35117-4.50173 9.70959-.97785.89343-3.70051-.0277-4.03805.0431-.91345.19159-2.09488.29968-2.84109.24274-1.3589-.10369-3.10427-.97079-4.62926-2.64607-1.15035-1.26373-2.1753-2.98733-2.81436-5.19001-3.99405-5.27747-10.5589-14.66641-17.49018-23.90539 4.48963 1.85597 9.35646 2.79339 14.73041 2.73225 1.76498-.0201 3.58467-.14788 5.46366-.38622 9.80224 3.87793 21.03947 2.36746 31.45576-.0471z" style="display:inline;fill-opacity:1;fill-rule:evenodd;fill:#c837ab;opacity:1;stroke-dasharray:none;stroke-linecap:butt;stroke-linejoin:miter;stroke-miterlimit:4;stroke-opacity:1;stroke-width:0;stroke:#000"/><path id="path1868-9" d="m282.94456 458.76549c-.0483.15247-.11284.47208-.19954.90622-.41277 2.06685-1.81439 6.53069-3.87757 8.11265-.26921.20642-1.13559 1.14752-4.57861.28177-.17398-.0437-2.18026 1.1699-4.2783.12449-4.65827-2.32112-6.22252-8.10904-6.31915-8.53686 3.82592 9.08132 8.89939 9.3147 10.40315 7.55401 5.26837 2.79873 7.50839-4.81217 8.85002-8.44228z" style="display:inline;fill-opacity:1;fill-rule:evenodd;fill:#000;opacity:1;stroke-dasharray:none;stroke-linecap:butt;stroke-linejoin:miter;stroke-miterlimit:4;stroke-opacity:1;stroke-width:0;stroke:#000"/><path style="display:inline;fill-opacity:1;fill:#c837ab;stroke-dasharray:none;stroke-linecap:butt;stroke-linejoin:miter;stroke-miterlimit:4;stroke-opacity:1;stroke-width:0;stroke:#000" d="m293.86064 264.57931c-6.26801-3.01132-15.75805-11.63074-17.87259-19.86824-3.04504-11.86272 4.71945-22.57429 21.63478-11.57993 16.13297-8.15503 24.9627 3.10697 17.59197 15.59404-3.32722 5.63676-12.4856 11.01114-21.35416 15.85413z" id="path3267-5-3-7-0-9"/></svg>