<svg viewBox="0 0 560 1e3"><path id="path3153" d="m368.88209 211.77253c-64.55167-12.51048-92.13064-6.45046-110.87378-3.34556-33.57881 9.07156-65.77514 179.14882-62.10315 199.26427 4.07051 22.29856 223.35326 22.83666 226.26346 4.91244 12.47072-132.09647-48.60225-180.64675-53.28653-200.83115z" style="display:inline;fill-opacity:1;fill-rule:evenodd;fill:#000;stroke-dasharray:none;stroke-linecap:butt;stroke-linejoin:miter;stroke-miterlimit:4;stroke-opacity:0;stroke-width:3.0365386;stroke:#000"/><path id="path3155" d="m367.23438 211.68716c-63.57211-12.39937-90.73258-6.39317-109.19129-3.31585-33.06926 8.99099-64.77702 177.55778-61.16075 197.49458 4.00874 22.10053 219.96392 22.63385 222.82995 4.86882 12.28148-130.92331-47.86471-179.04241-52.47791-199.04755z" style="display:inline;fill-opacity:1;fill-rule:evenodd;fill:maroon;stroke-dasharray:none;stroke-linecap:butt;stroke-linejoin:miter;stroke-miterlimit:4;stroke-opacity:0;stroke-width:3;stroke:#000"/><path id="path3157" d="m347.87122 216.10417c-2.2742-3.975-5.32807-5.56966-2.31247-5.91928 8.0577-.9342 6.16932-4.87509 29.22752-4.57909-.22504-.0228 64.4782-36.03648 71.96193-36.58113.0691-.005-3.80129 2.30456-9.7528-1.40901-29.39259-18.34019-67.87082-20.16745-67.85034-20.23176 4.72045-14.82499-2.71729-54.512837 7.44177-50.550715 89.78858 35.018315 112.95611 71.231065 112.33445 75.959585-37.32592 35.32228-81.71091 66.14544-128.12457 87.68659-6.76698-20.22007-12.61438-43.93416-12.92549-44.37519z" style="display:inline;fill-opacity:1;fill-rule:evenodd;fill:#000;stroke-dasharray:none;stroke-linecap:butt;stroke-linejoin:miter;stroke-miterlimit:4;stroke-opacity:0;stroke-width:3.05055022;stroke:#000"/><path id="path3159" d="m347.79149 214.93549c-2.23963-3.9037-5.24707-5.46975-2.27732-5.81311 7.93519-.91744 6.81412-2.33248 29.52175-2.0418-.22163-.0224 66.20608-36.6177 70.12924-38.38017.0621-.0279-3.00491 1.03565-8.86592-2.61132-28.94572-18.01124-65.84539-19.80573-65.82523-19.86888 4.64869-14.55909-4.4081-52.307509 5.5965-48.416453 88.42345 34.390223 111.23875 69.953463 110.62654 74.597173-36.75843 34.68874-80.46859 64.95904-126.1766 86.11383-6.66409-19.85739-12.42259-43.14615-12.72896-43.57927z" style="display:inline;fill-opacity:1;fill-rule:evenodd;fill:maroon;stroke-dasharray:none;stroke-linecap:butt;stroke-linejoin:miter;stroke-miterlimit:4;stroke-opacity:0;stroke-width:3;stroke:#000"/></svg>