<svg viewBox="0 0 560 1e3"><g data-transform="boob" class="scaler_" id="g5029" transform="matrix(1.1247504,0,0,1.1247504,-26.347241,-34.609528)"><path style="display:inline;fill-opacity:1;fill:none;stroke-dasharray:none;stroke-linecap:round;stroke-linejoin:miter;stroke-miterlimit:4;stroke-opacity:1;stroke-width:3;stroke:#c8c8c8" d="m225.50667 255.84728c.62954-.0858 17.4355-9.3087 27.68795-14.76885 19.22498-10.23864 30.44714-13.99738 32.33808-16.23135" id="path4859"/><path style="display:inline;fill-opacity:1;fill:none;stroke-dasharray:none;stroke-linecap:round;stroke-linejoin:miter;stroke-miterlimit:4;stroke-opacity:1;stroke-width:3;stroke:#c8c8c8" d="m223.26469 264.98399c29.33713 18.47455 44.62396 2.88027 46.57218 3.74221" id="path4868"/><path style="display:inline;fill-opacity:1;fill:none;stroke-dasharray:none;stroke-linecap:round;stroke-linejoin:miter;stroke-miterlimit:4;stroke-opacity:1;stroke-width:3;stroke:#c8c8c8" d="m285.56062 224.84336c5.75422 8.17565 14.23544 22.21703 13.94308 31.71023" id="path4870"/><path style="display:inline;fill-opacity:1;fill:none;stroke-dasharray:none;stroke-linecap:round;stroke-linejoin:miter;stroke-miterlimit:4;stroke-opacity:1;stroke-width:3;stroke:#c8c8c8" d="m269.93219 268.59451c5.24944 2.50613 16.09018 7.51629 23.70322.98437" id="path4872"/><path style="display:inline;fill-opacity:1;fill:none;stroke-dasharray:none;stroke-linecap:butt;stroke-linejoin:round;stroke-miterlimit:4;stroke-opacity:1;stroke-width:1.73667407;stroke:#969696" d="m216.69412 266.50299c1.59531-.008 5.67999-.72264 7.89342-4.3906 1.14882-2.63141.98079-4.77759-.53708-7.28089" id="path4874"/><path style="display:inline;fill-opacity:1;fill:none;stroke-dasharray:none;stroke-linecap:round;stroke-linejoin:miter;stroke-miterlimit:4;stroke-opacity:1;stroke-width:3;stroke:#c8c8c8" d="m307.1786 268.89577c10.14401 7.05265 17.30644 5.48505 18.74061 5.76447" id="path4876"/><path style="display:inline;fill-opacity:1;fill:none;stroke-dasharray:none;stroke-linecap:butt;stroke-linejoin:round;stroke-miterlimit:4;stroke-opacity:1;stroke-width:1.69700003;stroke:#969696" d="m300.2633 257.28529c-.15079-18e-5-7.33581-.19932-7.33702 7.11158-72e-5 3.86008 2.02258 7.47532 7.23587 7.47618 6.49284.001 6.84427-4.16026 7.14401-6.18824.59519-6.27797-3.19411-8.2473-7.08075-8.40065" id="path4878"/><path style="display:inline;fill-opacity:1;fill:none;stroke-dasharray:none;stroke-linecap:butt;stroke-linejoin:miter;stroke-miterlimit:4;stroke-opacity:1;stroke-width:3;stroke:#c8c8c8" d="m271.42187 233.85246c9.7932-3.72191 15.8564-1.20254 20.23854 1.205" id="path4880"/><path style="display:inline;fill-opacity:1;fill:none;stroke-dasharray:none;stroke-linecap:butt;stroke-linejoin:miter;stroke-miterlimit:4;stroke-opacity:1;stroke-width:3.19337869;stroke:#c8c8c8" d="m264.27601 235.441c12.87717-3.80139 28.66665.34212 30.1886 3.6845" id="path4882"/><path style="display:inline;fill-opacity:1;fill:none;stroke-dasharray:none;stroke-linecap:butt;stroke-linejoin:miter;stroke-miterlimit:4;stroke-opacity:1;stroke-width:3;stroke:#c8c8c8" d="m277.0522 231.43423c7.41549-4.37909 9.0913-.82267 12.76973 1.73534" id="path4884"/><path style="display:inline;fill-opacity:1;fill:none;stroke-dasharray:none;stroke-linecap:butt;stroke-linejoin:miter;stroke-miterlimit:4;stroke-opacity:1;stroke-width:3;stroke:#c8c8c8" d="m279.028 229.40894c8.61406-4.97542 6.52819-1.54575 9.80872 1.02823" id="path4886"/></g></svg>