<svg viewBox="0 0 560 1e3"><path d="m264.54423 126.97056c9.6686-29.245322 21.24646-25.2176 24.76331-23.80643 1.82919-.49855 3.41372-1.42715 5.503-1.56832 1.56729-.1059 3.59626.49094 5.2478.61568 1.9382.14638 4.04108-.38344 6.01561.11848 1.6158.41074 3.10436 1.79112 4.69208 2.46485 1.56061.66222 3.37751.80066 4.86581 1.73846 1.27706.80468 2.238 2.37098 3.43118 3.39313 1.05867.90691 2.14126 1.21457 3.11287 2.30267.76259.85401 1.43282 2.45277 2.13091 3.42356 2.58233 3.59106 6.83502 1.94441 9.92893 6.25481 17.70284-63.188891-85.51516-64.76605-72.0153-3.01723.0122.0557.36815.0958.38055.15155.24969 1.1266.46003 1.63359.78872 2.8022.0143.0509-.23693.75812-.22243.80912.39981 1.40871.85796 2.84786 1.37697 4.31747z" id="path1885" class="hair"/><path id="path1887" class="hair" d="m307.75202 101.74928c-5.59957-.42276-10.4082-.91678-14.41788-.0435-.75585.16462-1.46579 3.33493-4.7888 8.48871-1.74218 2.70201-6.06077 7.76205-7.47538 9.31227-1.02565 1.12396-3.51296-.62745-3.77221-.50746-.39547.18304 3.69034-3.86737 6.17249-7.33316 2.75316-3.84419 3.93635-7.14183 3.52216-6.86508-2.0977 1.40161-4.04643 3.33043-5.93116 5.94586-6.50564 9.02782-18.63949 18.23925-22.19757 19.81942-.009.004-1.88739-1.63711-1.50218-2.00251 2.50175-2.37317 17.66764-16.28259 17.99033-16.82287 4.48373-14.366192 4.15125-4.08334 1.73515.19497-3.63734 6.16968-16.21953 16.83913-16.35691 17.14666-.45035-1.3072-1.03908-1.39439-1.27944-2.20497-.13654-.46044.0788-1.54345-.10149-2.24556-.0106-.0414.20718-.69823.18613-.77775-.0783-.2958-.63629-.53376-.78574-1.04404-.14832-.50646.11174-1.2858.0753-1.43719-.0995-.41365-.35055-.1372-.44075-.54567-.13085-.59253-.64974-.73767-.76135-1.31932-.1077-.56125.19123-1.55938.10112-2.1105-.0158-.0965.10934-.224.0941-.32015-.12157-.76708-.95843-1.06806-1.02947-1.80262-.0576-.5958.64561-1.62805.59565-2.22127-.0106-.12626-.22391-.26785-.23358-.39353-.0434-.56413-.4749-1.12234-.49919-1.67464-.0276-.6272.35481-1.24677.35137-1.85872-53e-5-.0939.31172-.20332.31175-.2969 22e-5-.63016-.69026-1.24844-.66118-1.85852.0304-.63726.78145-1.26555.83448-1.88908.007-.0842-.31358-.16821-.30594-.25208.0733-.80516-.40594-1.68382-.28949-2.45925.11209-.74644.81834-1.39074.96897-2.10967.0255-.12169.47138-.15461.49796-.27552.19223-.874486-.42706-1.867945-.17981-2.666264.21954-.708855 1.29995-1.226454 1.56094-1.933962.0451-.122337-.32898-.465179-.28264-.58656.4071-1.066382-.20005-2.493138.29666-3.484855.39228-.783227 3.02121-5.476476 3.4658-6.213224.0942-.156131.8083-.06817.90479-.222228.53989-.862032.55808-2.296362 1.13916-3.040009.62478-.799583 1.81739-.903108 2.54278-1.68463.12016-.129455-.26697-.721921-.14495-.849307 1.00712-1.051399 1.19359-3.181649 2.31881-4.09287 1.30965-1.060567 3.5775-.877285 5.0226-1.748589.0986-.05944.83823.345623.93736.287073 1.30418-.770299 1.62511-2.29668 2.8921-2.871499.9233-.418895 2.76351.08204 3.81538-.288245.0993-.03496-18e-5-.688252.0994-.722485.92879-.319296 1.42854-1.933301 2.38064-2.19043 1.43316-.387048 3.33181.622085 4.8035.375528.0824-.0138.43001.701814.5125.688449 1.16127-.188144 2.20082-1.358693 3.3381-1.454419 1.1889-.100071 2.4759.878726 3.71.867866.12541-.0011.14035-.753023.26576-.753145.38934-379e-6 1.61964-.445303 2.18123-.472009.55315-.0263 1.65393.334936 2.35561.259527.12451-.01338.31353.428699.46974.419731.66195-.038 1.59976-.46966 2.45295-.445596 1.01151.02853 1.92942.520168 2.48637.557218.11511.0077.3504-.469397.42062-.462703.69043.06582 1.49254-.321053 2.37238-.243354 1.37983.121854 1.7516.697214 2.42552.821491.16708.03295.33338.691356.49891.725258 1.39908.286548 3.01658-.258588 4.24944.128769 1.22377.384505 2.06351 1.70066 3.28928 2.21233.0755.03152.43225-.592881.50759-.560746 1.38591.594428 3.41309-.142445 4.66726.608642 1.31778.789187 1.8557 3.074006 3.02789 4.015396.1723.138376-.0105.852814.15864.994209 1.02549.857243 2.37138 1.065794 3.22398 1.979736.7937.8508 1.10157 2.400437 1.84807 3.369958.11865.154103.81057-.08866.92668.06718.9409 1.262843 2.81495 2.140277 3.58914 3.503217.92816 1.634009.71998 3.772576 1.40824 5.509467.10259.258903-.42248.893694-.32522 1.154311.47821 1.28143 1.77085 2.182337 2.05958 3.403983.30775 1.302152-4.28654 5.57782-4.06111 6.99105.0456.28567.96314.5714 1.00271.85713.19206 1.38684 1.08684 2.77342 1.13747 4.14969.055 1.49506-.74686 2.97794-.85891 4.43575-.0153.19922-.65719.33547-.67562.53372-.0757.81406.33799 1.70544.2253 2.46117-.11217.75227-.75047 1.369-.93043 2.13673-.0346.14744.49241.51314.45593.6596-.2173.87233-.0781 1.86787-.36378 2.70201-.29483.86098-1.0167 1.5592-1.38439 2.3722-.0392.0868-.5208-.0257-.56088.0605-.29939.64384-.11784 1.45005-.44636 2.01847-.30257.52353-1.11158.81182-1.46936 1.33943-.07.10318.23498.55922.16352.66106-.15312.21821-.15345.49585-.31348.70781-.15546.20591-.47044.34632-.63242.54613-.34678-.21506-.47461-.77093-.82121-1.06866-.34211-.29387-.903-.32861-1.24538-.69297-.3811-.40557-1.25667 4.22533-1.63868 3.74549-.38271-.48071-1.11154 1.6944-1.49577 1.15296-.47041-.66288.35062-9.39839-.1231-10.12921-.31692-.48893-1.08784-.72461-1.40666-1.23446-.3765-.6021-.33256-1.34114-.71221-1.96085-.35499-.57945-1.13336-1.03886-1.49157-1.62311-3.79495-6.18967-7.78353-12.3617-12.23426-12.4292z"/><path id="path1993-6-1" class="hair" d="m332.37734 80.834205c3.35115 2.509098 5.99271 5.417517 8.04699 8.634258.2179.341212-.6333 2.060893-.42846 2.408935.62396 1.060193 1.8206 1.231604 2.1452 2.305202.33825 1.118721-.20065 3.141962.21229 4.366079.13062.387238 1.57023 1.714061 1.68773 2.107231.42548 1.42369 1.70807 2.312 1.98472 4.00694.17756 1.08784-.61058 2.91226-.48626 4.08953.0238.22544-.70331.95235-.68131 1.18068.12451 1.29274.99151 2.28992.95613 3.31264-.0373 1.07701-.97989 2.18234-.95511 3.69099.003.18715 1.1933 1.31218 1.19568 1.50007.0191 1.50264 1.26638 3.34092 1.24651 4.87717-.0241 1.86598-1.32362 3.43491-1.39022 5.30907-.0342.96359 4.33508 13.24594 4.20515 14.20287.13091 1.79234-2.27358 4.03296-3.45611 3.73845-.8323-1.72633-2.36885-6.99694-2.36885-6.99694.003 1.26341 3.18772 15.15178 3.03267 16.01703-.082.4576.87028 2.74111.0822 3.93876-.60979 1.04995-2.43269 2.0687-3.40293 1.94363-.84491-1.12154-1.81071-10.49795-2.30365-7.85414-2.28442 12.25229-1.30946 21.41342-1.25048 22.22963.13091 1.81158-3.8592 3.37818-5.22004.74172-.19185-.37169-3.77238-13.44334-3.84008-13.47934-.11864-.0631-1.20937 8.28734 1.16916 17.30464-15.63794-16.61982 8.14183-34.41348 4.99118-59.82659-1.67821-9.70862-33.36124-18.32984-33.75685-27.592341-16.91746-7.41818-14.75125-17.9737 10.59925-21.99995 5.33191-.0257 9.19941 1.10436 12.01906 2.84187 2.97443 2.16754 4.95808 4.7485 5.96655 7.0019z"/></svg>