<svg viewBox="0 0 560 1e3"><g data-transform="art" style="display:none" id="Arm_Outfit_Huipil_Left_Thumb"><path style="display:inline;fill-opacity:1;fill-rule:evenodd;fill:#000;stroke-dasharray:none;stroke-linecap:butt;stroke-linejoin:miter;stroke-miterlimit:4;stroke-opacity:0;stroke-width:3.09411693;stroke:#000" d="m346.23322 215.0979c-2.35682-3.946-20.29304-9.49697-17.17028-9.86339 77.12258-8.49025 65.08099 54.21028 62.45224 113.86458-1.00715 1.55395 15.01027-8.01243 16.32914-5.57643 9.11767 9.52298 25.04797 36.17379 15.77789 46.52926-16.69175-6.14309-57.87013-.20313-60.20851-18.35034-1.24298-10.83476 1.34017-20.78968-2.44377-43.11079-3.79604-22.39256-3.25959-57.42228-14.73671-83.49289z" id="path5165"/><path style="display:inline;fill-opacity:1;fill-rule:evenodd;fill:#502;stroke-dasharray:none;stroke-linecap:butt;stroke-linejoin:miter;stroke-miterlimit:4;stroke-opacity:0;stroke-width:3;stroke:#000" d="m347.79149 214.93549c-2.23963-3.9037-19.28401-9.39515-16.31653-9.75765 73.2878-8.39922 61.84496 53.62911 59.34691 112.64388-.95706 1.5373 14.26392-7.92653 15.5172-5.51664 8.66432 9.42089 23.80251 35.78598 14.99336 46.03044-15.86177-6.07724-54.99263-.20096-57.21474-18.15362-1.18117-10.7186 1.27353-20.56679-2.32225-42.64862-3.60729-22.15249-3.09751-56.80667-14.00395-82.59779z" id="path5167"/></g><g data-transform="art" id="Arm_Outfit_Huipil_Left_Rebel" style="display:none"><path id="path5171" d="m347.88359 215.191c-2.25324-4.00541-13.73665-6.81616-10.82802-7.59701 19.72162-5.29453 43.52841 4.62786 45.9381 9.86401-.22298-.023 31.90628 19.92899 50.67052 37.45953-.0867 1.05301 71.25326 28.08793 70.91938 29.07703-5.34106 15.82348-8.08079 46.38868-10.0317 45.48572-7.85013-3.63339-38.38353-27.32611-49.39397-33.13072-66.71555-35.17195-86.24158-42.54428-97.27431-81.15856z" style="display:inline;fill-opacity:1;fill-rule:evenodd;fill:#000;stroke-dasharray:none;stroke-linecap:butt;stroke-linejoin:miter;stroke-miterlimit:4;stroke-opacity:0;stroke-width:3.0480547;stroke:#000"/><path id="path5173" d="m347.79149 214.93549c-2.23963-3.9037-13.65365-6.64307-10.7626-7.4041 19.60245-5.16008 43.26539 4.51035 45.66052 9.61353-.22163-.0224 31.58925 20.763 50.2401 37.84838-.0862 1.02626 70.57422 28.34926 70.24237 29.31325-5.30879 15.42166-7.65924 42.896-9.59835 42.01597-7.8027-3.54112-38.15161-26.63219-49.09551-32.2894-66.31243-34.2788-85.72047-41.46392-96.68653-79.09763z" style="display:inline;fill-opacity:1;fill-rule:evenodd;fill:#502;stroke-dasharray:none;stroke-linecap:butt;stroke-linejoin:miter;stroke-miterlimit:4;stroke-opacity:0;stroke-width:3;stroke:#000"/></g><g data-transform="art" style="display:none" id="Arm_Outfit_Huipil_Left_Low"><path style="display:inline;fill-opacity:1;fill-rule:evenodd;fill:#000;stroke-dasharray:none;stroke-linecap:butt;stroke-linejoin:miter;stroke-miterlimit:4;stroke-opacity:0;stroke-width:3.12141943;stroke:#000" d="m343.5428 214.6482c-2.42245-3.90715-5.6754-5.47457-2.46322-5.81823 8.58294-.91826 37.77337 4.29602 40.36402 9.4037-.23973-.0224 11.44761 16.96096 17.85403 36.71539 8.37307 25.81865 26.31312 72.47785 22.65805 78.24683-4.11088 6.48847-42.48899 122.98956-50.59813 140.74623-.86018 1.88354-26.93168-59.29436-27.95867-59.64866 8.15219-10.15268 19.13588-36.65177 27.42309-55.84951 6.4042-14.83565 10.43563-22.99279 15.07592-30.38011-12.03607-25.0301-12.81705-31.94219-17.14943-45.1596C358.25601 269.1249 344.04793 215.30901 343.5428 214.6482z" id="path5177"/><path style="display:inline;fill-opacity:1;fill-rule:evenodd;fill:#502;stroke-dasharray:none;stroke-linecap:butt;stroke-linejoin:miter;stroke-miterlimit:4;stroke-opacity:0;stroke-width:3;stroke:#000" d="m347.79149 214.93549c-2.23963-3.9037-5.24707-5.46975-2.27732-5.81311 7.93519-.91744 33.18912 3.98002 35.58425 9.0832-.22163-.0224 12.14381 17.7578 18.06674 37.49483 7.74115 25.79591 24.50061 71.91444 21.1214 77.67836-3.80063 6.48275-42.55106 120.40852-50.0482 138.14955-.79526 1.88188-21.63044-56.76944-22.57992-57.12343 7.53693-10.14373 17.69169-36.61948 25.35346-55.80031 5.92088-14.82258 9.64805-22.97254 13.93814-30.35336-11.1277-25.00805-11.84974-31.91404-15.85516-45.11981-9.70058-13.7672-22.83638-67.53569-23.30339-68.19592z" id="path5179"/></g><g data-transform="art" id="Arm_Outfit_Huipil_Left_Mid" style="display:none"><path id="path5183" d="m345.4742 215.07561c-2.36763-3.9611-5.54697-5.55018-2.40748-5.89858 8.38874-.93095 34.71234 8.16419 37.24437 13.34241-.23429-.0227 8.98304 13.63961 15.24451 33.66688 8.18361 26.17525 17.70802 85.4021 14.13566 91.25077-4.01785 6.57809-74.8478 13.09833-89.64498 7.25469-1.99733-.78879 34.48399-37.81749 33.48024-38.17669-.15309-.0548 10.06574 1.34579 18.07817 3.96454.57039.18642 1.12961.37902 1.6731.57771 5.78942 2.11646 8.57164 3.67314 8.57164 3.67314.0955-.0794-2.6005-3.26025-4.73046-9.06137-2.28221-6.21574-4.26216-15.53064-7.38319-25.29594-10.25503-32.08666-23.76787-74.62762-24.26158-75.29756z" style="display:inline;fill-opacity:1;fill-rule:evenodd;fill:#000;stroke-dasharray:none;stroke-linecap:butt;stroke-linejoin:miter;stroke-miterlimit:4;stroke-opacity:0;stroke-width:3.10714054;stroke:#000"/><path id="path5185" d="m347.79149 214.93549c-2.23963-3.9037-5.24707-5.46975-2.27732-5.81311 7.93519-.91744 32.83557 8.04588 35.2307 13.14906-.22163-.0224 8.49736 13.44194 14.42029 33.17897 7.74115 25.79591 16.75061 84.16444 13.3714 89.92836-3.80063 6.48275-70.80106 12.90851-84.7982 7.14954-1.88935-.77735 32.61956-37.26943 31.67008-37.62342-.14481-.054 9.52153 1.32629 17.10075 3.90708.53956.18372 1.06854.37353 1.58265.56934 5.47639 2.08578 8.1082 3.61991 8.1082 3.61991.0903-.0782-2.4599-3.21301-4.47471-8.93005-2.15881-6.12566-4.03171-15.30556-6.984-24.92935-9.70058-31.62165-22.48283-73.5461-22.94984-74.20633z" style="display:inline;fill-opacity:1;fill-rule:evenodd;fill:#502;stroke-dasharray:none;stroke-linecap:butt;stroke-linejoin:miter;stroke-miterlimit:4;stroke-opacity:0;stroke-width:3;stroke:#000"/></g><g data-transform="art" id="Arm_Outfit_Huipil_Left_High" style="display:none"><path id="path5189" d="m347.87122 216.10417c-2.2742-3.975-5.32807-5.56966-2.31247-5.91928 8.0577-.9342 6.16932-4.87509 29.22752-4.57909-.22504-.0228 64.4782-36.03648 71.96193-36.58113.0691-.005-3.80129 2.30456-9.7528-1.40901-29.39259-18.34019-67.87082-20.16745-67.85034-20.23176 4.72045-14.82499-2.71729-54.512841 7.44177-50.550719 89.78858 35.018319 112.95611 71.231069 112.33445 75.959589-37.32592 35.32228-81.71091 66.14544-128.12457 87.68659-6.76698-20.22007-12.61438-43.93416-12.92549-44.37519z" style="display:inline;fill-opacity:1;fill-rule:evenodd;fill:#000;stroke-dasharray:none;stroke-linecap:butt;stroke-linejoin:miter;stroke-miterlimit:4;stroke-opacity:0;stroke-width:3.05055022;stroke:#000"/><path id="path5191" d="m347.79149 214.93549c-2.23963-3.9037-5.24707-5.46975-2.27732-5.81311 7.93519-.91744 6.81412-2.33248 29.52175-2.0418-.22163-.0224 66.20608-36.6177 70.12924-38.38017.0621-.0279-3.00491 1.03565-8.86592-2.61132-28.94572-18.01124-65.84539-19.80573-65.82523-19.86888 4.64869-14.55909-4.4081-52.307513 5.5965-48.416457 88.42345 34.390227 111.23875 69.953467 110.62654 74.597177-36.75843 34.68874-80.46859 64.95904-126.1766 86.11383-6.66409-19.85739-12.42259-43.14615-12.72896-43.57927z" style="display:inline;fill-opacity:1;fill-rule:evenodd;fill:#502;stroke-dasharray:none;stroke-linecap:butt;stroke-linejoin:miter;stroke-miterlimit:4;stroke-opacity:0;stroke-width:3;stroke:#000"/></g><g data-transform="art" id="Arm_Outfit_Huipil_Right_Low" style="display:none"><path id="path5195" d="m300.3629 216.71608c2.89918-3.49959 6.19635-4.56996 3.24687-5.37862-7.88102-2.16075-20.40535-6.02265-44.83986-3.20333-33.89009 8.98925-54.87527 96.37126-55.70669 116.6132-.23971 5.83594 32.24489 72.6492 35.18206 71.85488 4.76171-1.28772 16.96073-8.54816 16.75752-37.40006-.0263-3.74559-14.79851-27.40581-14.60705-31.18508 1.55677-30.72846 9.63455-59.55501 15.30901-79.33712 7.48653 2.21612 15.11783 6.59594 24.7125 9.0451 9.96276-18.54956 19.5654-40.62985 19.94564-41.00897z" style="display:inline;fill-opacity:1;fill-rule:evenodd;fill:#000;stroke-dasharray:none;stroke-linecap:butt;stroke-linejoin:miter;stroke-miterlimit:4;stroke-opacity:0;stroke-width:3.03671026;stroke:#000"/><path id="path5197" d="m300.48784 216.69956c2.82896-3.50026 6.04627-4.57084 3.16823-5.37966-7.69014-2.16117-19.91112-6.02382-43.75381-3.20395-33.06925 8.99099-53.54615 96.38995-54.35744 116.63581-.2339 5.83707 31.4639 72.66329 34.32993 71.86882 4.64638-1.28797 12.40287-5.04914 12.20458-33.90664-.0257-3.74631-13.22036-30.16165-13.03353-33.94166 1.51906-30.73442 12.32853-60.3167 17.86555-80.10265 7.3052 2.21655 14.75167 6.59722 24.11395 9.04686 9.72145-18.55316 19.09151-40.63773 19.46254-41.01693z" style="display:inline;fill-opacity:1;fill-rule:evenodd;fill:#502;stroke-dasharray:none;stroke-linecap:butt;stroke-linejoin:miter;stroke-miterlimit:4;stroke-opacity:0;stroke-width:3;stroke:#000"/></g><g data-transform="art" style="display:none" id="Arm_Outfit_Huipil_Right_Mid"><path style="display:inline;fill-opacity:1;fill-rule:evenodd;fill:#000;stroke-dasharray:none;stroke-linecap:butt;stroke-linejoin:miter;stroke-miterlimit:4;stroke-opacity:0;stroke-width:3.04086399;stroke:#000" d="m299.86232 216.84741c2.86836-3.54688 6.13047-4.63172 3.21235-5.4513-7.79724-2.18996-20.18841-6.10404-44.36313-3.24662-33.52978 9.11072-61.6644 138.12271-56.90681 145.95428 5.06745 8.34162 137.22791-10.49908 140.13385-11.30413 4.71109-1.30511-.45915-13.47405-.6602-42.71584-.0261-3.79619-102.64851 29.14344-102.45908 25.31309 1.54022-31.14369 11.24555-56.10425 16.85968-76.15368 7.40694 2.24606 14.95711 6.68507 24.44976 9.16734 9.85684-18.80023 19.35738-41.1789 19.73358-41.56314z" id="path5201"/><path style="display:inline;fill-opacity:1;fill-rule:evenodd;fill:#502;stroke-dasharray:none;stroke-linecap:butt;stroke-linejoin:miter;stroke-miterlimit:4;stroke-opacity:0;stroke-width:3;stroke:#000" d="m300.48784 216.69956c2.82896-3.50026 6.04627-4.57084 3.16823-5.37966-7.69014-2.16117-19.91112-6.02382-43.75381-3.20395-33.06925 8.99099-60.81745 136.30755-56.1252 144.0362 4.99785 8.232 135.3431-10.3611 138.20913-11.15557 4.64638-1.28797-.45284-13.29698-.65113-42.15448-.0257-3.74631-101.23865 28.76044-101.05182 24.98043 1.51906-30.73442 11.09109-55.36695 16.62811-75.1529 7.3052 2.21655 14.75167 6.59722 24.11395 9.04686 9.72145-18.55316 19.09151-40.63773 19.46254-41.01693z" id="path5203"/></g><g data-transform="art" style="display:none" id="Arm_Outfit_Huipil_Right_High"><path style="display:inline;fill-opacity:1;fill-rule:evenodd;fill:#000;stroke-dasharray:none;stroke-linecap:butt;stroke-linejoin:miter;stroke-miterlimit:4;stroke-opacity:0;stroke-width:3.02935934;stroke:#000" d="m300.39583 218.87955c2.88085-3.50481 6.15719-4.57678 3.22635-5.38665-7.83122-2.16398-6.65602-5.15553-29.53589-8.46494.072.004-5.49099-.47931-14.42275-6.81166-13.22617-9.37695-31.23017-25.37688-42.44015-34.0954-5.02375-3.90721-9.54618-5.64474-10.17113-5.89051 18.61966-10.32536 67.84575-43.08316 76.30205-52.86444-2.329-15.130801 7.76693-19.375788-2.57353-15.889152-76.37618 25.752812-113.0731 60.658792-113.20556 65.346972-2.74126 6.32503 70.4485 76.97045 113.00103 105.12602 9.89979-18.57727 19.44175-40.69055 19.81958-41.07024z" id="path5207"/><path style="display:inline;fill-opacity:1;fill-rule:evenodd;fill:#502;stroke-dasharray:none;stroke-linecap:butt;stroke-linejoin:miter;stroke-miterlimit:4;stroke-opacity:0;stroke-width:3;stroke:#000" d="m300.48784 216.69956c2.82896-3.50026 6.04627-4.57084 3.16823-5.37966-7.69014-2.16117-6.53612-5.14882-29.00381-8.45395.0707.004-5.39207-.47868-14.16293-6.80281-12.98791-9.36478-30.66758-25.34394-41.67562-34.05114-4.93325-3.90214-9.37422-5.63742-9.9879-5.88287 45.43793-28.85674 66.528-43.07588 74.83197-52.84446-2.28703-15.111151 8.59051-15.947588-1.56367-12.465479-75.0003 25.719389-111.90411 57.225659-112.0342 61.907739-2.69187 6.31682 69.17942 76.87054 110.96539 104.98956 9.72145-18.55316 19.09151-40.63773 19.46254-41.01693z" id="path5209"/></g><g data-transform="art" id="Arm_Outfit_Huipil_Right_None"/><g data-transform="art" id="Arm_Outfit_Huipil_Left_None"/></svg>