<svg viewBox="0 0 560 1e3"><path id="path2558-9-7-6" d="m370.26486 269.14852c2.61895 21.32451 2.90301 48.7597-5.57828 78.77921 13.91321 32.26409 11.96687 60.91362-2.17631 67.18437.0.0-65.14963-.0414-76.65885 28.29594-2.06147 4.01155-2.1084 11.81811-3.46792 16.10443-.27859.87834-1.00697 6.35332-3.50565 8.26757-.26944.20641-1.13656 1.14752-4.58251.28177-.17413-.0437-1.37345.71664-3.61847.0361-5.83439-1.76869-6.66978-8.86034-6.76649-9.28816-1.98539-8.78313-6.24957-28.02971-9.43291-34.24779-14.19124-27.72004-35.30304-24.45682-36.61088-26.79315-3.76509-24.96141 5.55573-53.20899 15.88692-78.91606-3.76103-19.56254-.75026-44.5528 4.22298-65.81386 14.56506-.6654 72.92031-7.17066 96.82823.27115 10.74133 2.58221 31.96088 12.89422 33.06699 13.71878z" style="display:inline;fill-opacity:1;fill-rule:evenodd;fill:#000;opacity:1;stroke-dasharray:none;stroke-linecap:butt;stroke-linejoin:miter;stroke-miterlimit:4;stroke-opacity:1;stroke-width:0;stroke:#000"/><path id="path2560-4-7-5" d="m370.60102 269.06519c.31749 28.20912 1.01011 52.67993-7.5761 79.67273 14.27539 31.48761 3.69117 27.37946-.89441 65.90163-40.10653 11.44456-76.28916 41.9916-77.06083 44.32937-.78385 1.88787-3.29932 8.5329-5.79622 10.31331-1.21712.86786-4.8236-.18577-5.07554-.20987-.29397-.0276-1.12355.44604-3.33637-.1263-5.65546-1.4629-9.47467-5.19754-10.04678-7.14824-18.43111-29.49711-38.47029-62.32472-43.1957-63.51367-.42438-42.9078 15.11104-68.50468 17.16947-78.78434-2.67333-21.55783-.20527-45.86606 4.39317-65.57112 20.93782-.29266 64.31561-5.51245 84.95638-2.15674 20.57738 3.34541 45.30886 17.04982 46.46293 17.29324z" style="display:inline;fill-opacity:1;fill-rule:evenodd;fill:#c8c8c8;opacity:1;stroke-dasharray:none;stroke-linecap:butt;stroke-linejoin:miter;stroke-miterlimit:4;stroke-opacity:1;stroke-width:0;stroke:#000"/><path id="path2562-5-5-3" d="m219.63691 399.9227c13.0124 5.20002 35.36397 71.22457 55.38576 69.52238 13.4605-1.86072 25.75466-25.83965 88.08523-51.08247 13.63574-12.94248 10.16299-38.48021 7.23973-48.02972-45.102 11.9464-146.21911 10.95765-151.55945 1.55387.0.0 1.48172 27.44329.84873 28.03594z" style="display:inline;fill-opacity:1;fill:#000;opacity:1;stroke-dasharray:none;stroke-linecap:butt;stroke-linejoin:miter;stroke-miterlimit:4;stroke-opacity:1;stroke-width:0;stroke:#000"/><path id="path2564-7-0-1" d="m225.10519 414.36072c13.0124 5.20002 30.23897 58.28707 50.26076 56.58488 13.4605-1.86072 25.50466-26.83965 87.83523-52.08247 10.45197-14.82422 9.8306-35.22622 6.656-46.15786-45.102 11.9464-144.73894 9.71326-150.07928.30943.0.0 8.83528 30.56582 5.32729 41.34597z" style="display:inline;fill-opacity:1;fill:#4d4d4d;opacity:1;stroke-dasharray:none;stroke-linecap:butt;stroke-linejoin:miter;stroke-miterlimit:4;stroke-opacity:1;stroke-width:0;stroke:#000"/><path style="display:inline;fill-opacity:1;fill:#000;opacity:.97000002;stroke-dasharray:none;stroke-linecap:butt;stroke-linejoin:miter;stroke-miterlimit:4;stroke-opacity:1;stroke-width:0;stroke:#000" d="m233.25868 469.23078c1.37187 3.40671 82.62927 6.52701 84.41648 2.68792 7.90056-16.97113 41.44595-56.40447 55.30321-83.31605-.54031-6.464-5.80146-15.44624-6.28381-16.75306-45.10199 11.9464-142.69223 10.08841-148.03257.68458-4.51388 19.73376 2.53405 65.98343 14.59669 96.69661z" id="path2246-4-41-0-9-4-9-20-3-9-2-3"/><path id="path2568-5-2-6" d="m369.38806 377.36359c-.0508-.13663-.32934-1.79746-.28921-1.76865 2.4837 1.78281 12.51773 2.24849 13.79677.81029 4.76421-5.35705-12.89361-17.4965-13.66653-1.39538-.0727-.19109-.008-1.52879-.0247-1.80177-1.4607-23.95073 33.04893 10.48248 1.74614 4.51489z" style="display:inline;fill-opacity:1;fill:#000;opacity:1;stroke-dasharray:none;stroke-linecap:butt;stroke-linejoin:miter;stroke-miterlimit:4;stroke-opacity:1;stroke-width:0;stroke:#000"/><path id="path2570-5-7-6" d="m369.46163 377.16028c-.0508-.13663-.23362-1.66958-.19408-1.63996 2.2962 1.72031 12.28978 2.08855 13.56882.65035 4.76421-5.35705-12.85197-17.39004-13.62489-1.28892-.0727-.19109-.19351-1.5285-.20898-1.80154-1.35419-23.8996 34.44063 11.33344.45913 4.08007z" style="display:inline;fill-opacity:1;fill:#e1e1ff;opacity:1;stroke-dasharray:none;stroke-linecap:butt;stroke-linejoin:miter;stroke-miterlimit:4;stroke-opacity:1;stroke-width:0;stroke:#000"/><path id="path2572-0-7-6" d="m371.91961 377.48154c6.55752 2.66278 9.90514 4.04885 13.0944 3.0818 10.92536-3.3128-2.18327-20.91676-15.60976-7.54261.0803-.0665.0174.13508.10062.0746 17.69527-12.8555 29.88422 14.78059 2.41414 3.75995-.0573-.023 6e-4.62627 6e-4.62627z" style="display:inline;fill-opacity:1;fill:#000;opacity:1;stroke-dasharray:none;stroke-linecap:butt;stroke-linejoin:miter;stroke-miterlimit:4;stroke-opacity:1;stroke-width:0;stroke:#000"/><path id="path2566-0-7-6" d="m234.60182 468.08061c1.37187 3.40671 80.62927 6.27701 82.41648 2.43792 7.90056-16.97113 41.40236-56.31148 55.25962-83.22306-.0586-.91628.45173-4.41991-1.87251-16.33441-45.10199 11.9464-145.81393 12.10526-151.15427 2.70143-4.00788 30.4474 4.63882 67.32667 15.35068 94.41812z" style="display:inline;fill-opacity:1;fill:#e1e1ff;opacity:1;stroke-dasharray:none;stroke-linecap:butt;stroke-linejoin:miter;stroke-miterlimit:4;stroke-opacity:1;stroke-width:0;stroke:#000"/><path id="path2574-4-6-0" d="m371.42427 377.28067c6.55752 2.66278 10.15514 4.11135 13.3444 3.1443 10.92536-3.3128-1.7917-21.42732-15.59319-7.27192.0803-.0665.0316.2.11167.13536 17.29752-13.96036 29.8566 14.44913 2.38652 3.42849-.0573-.023-.2494.56377-.2494.56377z" style="display:inline;fill-opacity:1;fill:#e1e1ff;opacity:1;stroke-dasharray:none;stroke-linecap:butt;stroke-linejoin:miter;stroke-miterlimit:4;stroke-opacity:1;stroke-width:0;stroke:#000"/></svg>