<svg viewBox="0 0 560 1e3"><path d="m344.61613 114.43545c-.0604.36831-.568-6.68099-.63863-6.29913-.28781 1.55607-1.22857 24.65522-2.77673 35.66121-.1032.73364-.38509-11.87378-.492-11.13106-1.67501 11.63705-3.79074 24.13654-5.89251 29.58887-.18969.49209.38615-10.48143.21945-9.97313-.80566 2.45666-.11551 10.00538-5.59459 21.42646-.34481.71876 2.33195-12.48116 2.0308-11.74316-2.14213 5.2495-4.5673 10.3294-7.04008 14.56761-3.56758 6.11463-9.70912 15.25024-12.76785 15.84249 1.79308-9.04176 4.49542-19.16842 6.9438-29.50473.34948-1.4754-3.61216 4.24192-3.09547 2.81353 12.32787-34.08029 9.56158-34.55564 8.59489-46.46504-.84799-9.90073-3.82238-14.9045-8.30683-18.75395-.0206-.0536 7.62519 10.36291 6.9464 28.68555-.0236.6362-3.5796-8.14985-6.67613-12.47469-5.74703-8.0267-12.93629-14.51503-14.34405-14.35052.0.0 7.81906 5.21673 11.26423 16.79564.0798.16726-9.98763-8.91867-11.62295-9.92866-4.90203-3.02757-11.60487-5.72528-12.15934-5.68813 1.70441 1.79797 7.03078 2.81599 12.16036 11.61592.39657.68032-11.01538-8.88475-23.80992-11.3045-4.38788-.34147-6.9211-.37887-8.58418-.96602-1.74538-.50247-4.66584-1.60279-4.86135-3.204561-.20523-1.500838-4.82458-8.337697-3.49958-17.632876.10934-.766988.23469 3.416343 1.22904 5.105573 1.55268 2.637734 2.77333 3.554686 3.12278 2.450042.14495-.458211.53609-5.017449 2.50374-10.870532 1.67384-4.979087 11.1681-12.633222 9.99811-10.86457-4.31178 6.518052-4.99774 9.910296-4.50281 9.504664 2.13846-1.752631 4.21536-3.574758 6.48664-4.993895 1.30072-.797889 7.43601-8.363461 14.67197-10.786195-2.92868 1.951296-3.63129 3.736802-4.01465 6.227729 3.82036-1.327187 5.22239-1.320575 9.70369-1.507509.95409-.0398 8.18461-2.437839 8.15704-2.221786-.0228.179086-2.90586 2.18223-.15195 2.561773 1.29837.178941.32702-.0139 1.68401.181025 2.34815.262567 4.46784.574895 6.39369.949615.70305.136794 4.1203-.336816 4.77337-.182778.54593.128766-1.66506.882491-1.1519 1.024096 7.67316 2.117375 11.79361 4.585096 17.52652 10.728213 1.45161 1.929443 11.78004 10.626193 8.97694 21.859332.0.0-.63998-4.995334-1.06078-6.359475-1.23453-4.002003-4.5537-7.635043-4.26224-6.625895 2.61542 3.905119 6.6004 14.30351 3.91905 26.24345z" class="hair" id="path1982"/></svg>