<svg viewBox="0 0 560 1e3"><path id="path2336" d="m371.32736 269.11727c.23724.8312.8609 7.69486-.0417 14.27511-33.60787-4.288-107.68903-11.96778-135.86236-5.34633.1469-5.03513.75767-11.97481 1.78086-14.68467.24324-.11759 7.5964-2.31292 8.0176-2.59741 12.96984-34.21324 14.33596-34.51518 31.51367-55.13078-.20578-.10769.98637-.32991 2.81284-.93373-14.26623 35.27571-10.07743 51.97809-1.78824 61.45129 10.93146-7.63158 34.10888-19.71829 53.08715-60.31847 2.65591.76603 5.77773 1.30178 5.77773 1.30178 1.90789 18.32918-.0619 41.08452 3.67362 52.92764 3.54725 3.99043 27.41066 5.88529 31.02879 9.05557z" style="display:inline;fill-opacity:1;fill-rule:evenodd;fill:#000;opacity:1;stroke-dasharray:none;stroke-linecap:butt;stroke-linejoin:miter;stroke-miterlimit:4;stroke-opacity:1;stroke-width:0;stroke:#000"/><path id="path2338" d="m370.62182 268.85749c.0772.34995.89241 7.56019.34971 13.98148-48.30237-7.27876-113.61934-10.19159-134.62308-5.80551-.36445-3.75214.992-13.44615.992-13.44615s7.38165-2.19684 8.13211-2.60168c11.82416-30.55624 14.58742-35.11847 31.24259-55.40231.84544-.17546 1.70483-.38601 2.56536-.63893-16.81405 40.48467-8.02175 52.76388-1.59072 61.62392 17.19358-10.88851 38.35632-25.50945 53.62911-60.61021 1.9144.66913 3.96656.65204 5.47599 1.11851-.47031 15.65219.792 46.91864 3.02614 53.74685 3.55484 2.53922 23.86865 5.88116 30.80079 8.03403z" style="display:inline;fill-opacity:1;fill-rule:evenodd;fill:#fff;opacity:1;stroke-dasharray:none;stroke-linecap:butt;stroke-linejoin:miter;stroke-miterlimit:4;stroke-opacity:1;stroke-width:0;stroke:#000"/><path id="path2340" d="m371.26018 276.64734c-.0254.5854-.0532 4.56898-.22615 6.37913-48.30237-7.27876-113.75712-10.24808-134.76086-5.862-.069-.4883-.0945-4.39605.1361-6.11317 28.97645-5.96462 112.37823 1.44583 134.85091 5.59604z" style="display:inline;fill-opacity:1;fill-rule:evenodd;fill:#92b5c9;opacity:1;stroke-dasharray:none;stroke-linecap:butt;stroke-linejoin:miter;stroke-miterlimit:4;stroke-opacity:1;stroke-width:0;stroke:#000"/><path id="path2342" d="m275.3075 263.17949c-15.5547-.0617-30.42964 1.24273-38.15901 2.83939.005-.3433.14997-1.96737.31884-2.43564 1.96052-.81732 7.63798-2.34161 7.99185-2.72606.5763-1.29429.72688-1.72419.94882-2.30238 7.24698-.76586 16.11763-1.11114 25.86119-1.06368 1.0929 2.28123 2.22717 4.5625 3.03831 5.68837zm64.55138-2.47738c2.63643 2.29632 28.86839 7.14732 30.95216 8.18921.0.0.19097 1.35891.0713 2.05709-27.74868-4.13636-62.3847-7.1188-88.12924-7.67434-.23575-.005 7.90377-5.4459 7.79093-5.46476 16.90013.49494 34.58228 1.54368 49.31485 2.8928z" style="display:inline;fill-opacity:1;fill-rule:evenodd;fill:#92b5c9;opacity:1;stroke-dasharray:none;stroke-linecap:butt;stroke-linejoin:miter;stroke-miterlimit:4;stroke-opacity:1;stroke-width:0;stroke:#000"/><path id="path2344" d="m270.63031 252.56065c-.56129-.15591-18.51769.13605-22.19364.7143.5763-1.29429 1.85188-4.64338 2.07382-5.22157 7.24698-.76586 9.47053-.85356 19.21409-.8061.0764.35878.73541 5.00509.90573 5.31337zm67.62414-2.36916c-.004.15333.0494 1.14864.57402 5.4717-28.42662-2.24219-41.70048-1.66901-42.88644-1.99214-.23575-.005 5.69168-4.89922 5.57884-4.91808.52513.0574 27.18852.9019 36.73358 1.43852z" style="display:inline;fill-opacity:1;fill-rule:evenodd;fill:#92b5c9;opacity:1;stroke-dasharray:none;stroke-linecap:butt;stroke-linejoin:miter;stroke-miterlimit:4;stroke-opacity:1;stroke-width:0;stroke:#000"/><path id="path2346" d="m269.5915 242.39188c-.56129-.15591-13.23644-.1452-16.91239.43305.5763-1.29429 1.85188-4.64338 2.07382-5.22157 7.24698-.76586 5.47053-.50981 15.21409-.46235.0764.35878-.54584 4.94259-.37552 5.25087zm67.90539-2.71291c-.004.15333-.1381 1.08614.38652 5.4092-28.42662-2.24219-29.88798-1.35651-31.07394-1.67964-.23575-.005 4.50418-4.83672 4.39134-4.85558.52513.0574 16.75102.5894 26.29608 1.12602z" style="display:inline;fill-opacity:1;fill-rule:evenodd;fill:#92b5c9;opacity:1;stroke-dasharray:none;stroke-linecap:butt;stroke-linejoin:miter;stroke-miterlimit:4;stroke-opacity:1;stroke-width:0;stroke:#000"/><path id="path2348" d="m270.69848 232.49286c-.56129-.15591-11.51287-.1231-13.15589.0132.5763-1.29429 2.77996-4.97484 3.0019-5.55303.63995.008 1.55935-.0458 11.30291.002.0764.35878-1.31924 5.22985-1.14892 5.53813zm66.2923-3.39792c-.004.15333.14315 1.27364.23027 5.44045-10.48912-.64844-21.04423-.79401-22.07394-.77339.70175-1.13 3.91043-5.08672 3.79759-5.10558.52513.0574 8.50102-.0981 18.04608.43852z" style="display:inline;fill-opacity:1;fill-rule:evenodd;fill:#92b5c9;opacity:1;stroke-dasharray:none;stroke-linecap:butt;stroke-linejoin:miter;stroke-miterlimit:4;stroke-opacity:1;stroke-width:0;stroke:#000"/><path id="path2350" d="m273.34372 221.57013c-.53311-.15591-7.6224-.0762-9.05794-.0649.813-1.62241 3.67165-4.81858 3.88245-5.39677.60782.008 6.6217.0323 6.92298.0333-.0993.35878-1.64364 5.01109-1.74749 5.42875zm63.46431-3.03854c-.004.15333-.006 1.14595.077 5.31276-6.21255-.21094-14.64291-.26007-14.82405-.23945.66652-1.13 3.15162-5.11797 3.04445-5.13683.49876.0574 6.1055-.0356 11.70263.0635z" style="display:inline;fill-opacity:1;fill-rule:evenodd;fill:#92b5c9;opacity:1;stroke-dasharray:none;stroke-linecap:butt;stroke-linejoin:miter;stroke-miterlimit:4;stroke-opacity:1;stroke-width:0;stroke:#000"/><path id="path2352" d="m276.71307 211.63041c-.13998 34e-5-4.61113-.0146-4.87766-.0346 1.27715-1.63804 3.89488-4.88016 4.01421-5.02085.36621-.0233 2.56186-.15517 2.84406-.15417-.093.35878-1.88333 4.79234-1.98061 5.21zm60.04588-2.91354c-.004.15333.005 1.157-.0273 5.31276-5.81924-.21094-9.15338-.11944-9.32305-.0988.62432-1.13 2.60834-5.14922 2.50796-5.16808.46718.0574 1.59965-.14498 6.84243-.0459z" style="display:inline;fill-opacity:1;fill-rule:evenodd;fill:#92b5c9;opacity:1;stroke-dasharray:none;stroke-linecap:butt;stroke-linejoin:miter;stroke-miterlimit:4;stroke-opacity:1;stroke-width:0;stroke:#000"/><path style="display:inline;fill-opacity:1;fill-rule:evenodd;fill:#fff;opacity:1;stroke-dasharray:none;stroke-linecap:butt;stroke-linejoin:miter;stroke-miterlimit:4;stroke-opacity:1;stroke-width:0;stroke:#000" d="m298.46108 438.89935c-6.48422 6.26583-11.19704 12.82415-15.33516 19.44716-1.04023 1.75909-1.92047 7.35117-4.50173 9.70959-.97785.89343-3.70051-.0277-4.03805.0431-.91345.19159-2.09488.29968-2.84109.24274-1.3589-.10369-3.10427-.97079-4.62926-2.64607-1.15035-1.26373-2.1753-2.98733-2.81436-5.19001-3.99405-5.27747-10.5589-14.66641-17.49018-23.90539 5.96418 2.46553 12.594 3.31007 20.19407 2.34603 9.80224 3.87793 21.03947 2.36746 31.45576-.0471z" id="path2360-8-9-7-2"/><path style="display:inline;fill-opacity:1;fill:#92b5c9;stroke-dasharray:none;stroke-linecap:butt;stroke-linejoin:miter;stroke-miterlimit:4;stroke-opacity:1;stroke-width:0;stroke:#83afc8" d="m252.70414 444.58541c10.94342 1.31488 24.01095 1.50229 40.32871.0811-1.56759 2.01272-3.58281 4.56444-5.24245 6.66295-12.30604 1.16431-22.00263 1.20882-29.81942.51362-2.04934-2.61037-3.63449-4.68604-5.26684-7.25767z" id="path1180-5-1-9-7-9-6-70"/><path style="display:inline;fill-opacity:1;fill:#92b5c9;stroke-dasharray:none;stroke-linecap:butt;stroke-linejoin:miter;stroke-miterlimit:4;stroke-opacity:1;stroke-width:0;stroke:#83afc8" d="m262.53421 458.18295c6.22871.31514 13.08896.30377 20.72809-.0971-.87505 2.4389-1.64015 4.66739-2.42955 6.53665-5.25319.34928-9.97649.47387-14.24234.41152-1.68576-1.69159-2.0194-4.59693-4.0562-6.85107z" id="path1180-5-1-9-3-1-2-9"/><path style="display:inline;fill-opacity:1;fill-rule:evenodd;fill:#000;opacity:1;stroke-dasharray:none;stroke-linecap:butt;stroke-linejoin:miter;stroke-miterlimit:4;stroke-opacity:1;stroke-width:0;stroke:#000" d="m282.94456 458.76549c-.0483.15247-.11284.47208-.19954.90622-.41277 2.06685-1.81439 6.53069-3.87757 8.11265-.26921.20642-1.13559 1.14752-4.57861.28177-.17398-.0437-2.18026 1.1699-4.2783.12449-4.65827-2.32112-6.22252-8.10904-6.31915-8.53686 3.82592 9.08132 8.89939 9.3147 10.40315 7.55401 5.26837 2.79873 7.50839-4.81217 8.85002-8.44228z" id="path6986-5-1-2-1-9"/></svg>