<svg viewBox="0 0 560 1e3"><path d="m307.96882 121.55328c-6.11576.24181-13.36 2.06739-16.0402 2.79731-.709.0542-1.53853.13052-1.84341.16967-.67495-.39067-1.26258-.59716-.79073-1.14253.0588-.22385.15308-.45565.23373-.6501.0811-.19541.14829-.35311.15173-.42712l.74352-.11316c1.28388-.53806 10.49247-1.70291 15.95379-1.7067 1.50772-.056 1.94447-.0326 2.79655.14987.55537.1189 1.38732.27049 1.84875.33686.90322.1299.77338.10586 2.86146.67157l1.36581.37003c.0226.014.71038.12657 1.23922.57793-6.19147-1.02244-7.82522-1.01243-8.52022-1.03363z" id="path2634" class="eyebrow_hair"/><path d="m264.1942 121.66817c.0514-.007 1.33147-.40811 1.41381-.44165 3.47039-.85217 8.07315.15047 9.74787.5958.55179-.0674 2.25013.42879 2.25013.42879.144.1871.40356.54503.3965 1.50404-.1657.19068-.96713.67255-1.63932.40633-.63331-.15789-1.34513-.3611-2.34765-.52373-.58581-.17973-5.45345-1.91253-9.64853-1.26886.0186-.007-.19779-.69735-.17281-.70072z" id="path2636" class="eyebrow_hair"/></svg>