<svg viewBox="0 0 560 1e3"><path style="display:inline;fill-opacity:1;fill-rule:evenodd;fill:#000;opacity:1;stroke-dasharray:none;stroke-linecap:butt;stroke-linejoin:miter;stroke-miterlimit:4;stroke-opacity:1;stroke-width:0;stroke:#000" d="m368.45236 268.83602c.40069 1.40387.82871 12.89967-6.36035 37.77919-5.42713 18.7819-17.12167 31.6625-17.71805 33.12058-6.03534 8.96911-15.45846 21.82266-9.52924 38.69515-30.1743 9.46458-84.91877 16.26782-93.43445-5.62484 2.433-12.49684 2.06627-18.80217 2.23754-34.00531.24452-21.70551-6.08737-33.66342-6.98584-46.20078-1.42778-60.22724 49.22582-91.39318 50.18174-91.89098 9.24713 11.38115 25.18214 3.12903 31.26177-2.13928 1.50252 1.12706 9.10193 4.89722 7.88644 5.69617-59.64798 34.7469 1.82837 42.20589 38.19229 63.32537z" id="path3350"/><path style="display:inline;fill-opacity:1;fill-rule:evenodd;fill:#fff;opacity:1;stroke-dasharray:none;stroke-linecap:butt;stroke-linejoin:miter;stroke-miterlimit:4;stroke-opacity:1;stroke-width:0;stroke:#000" d="m368.47602 268.56519c-.47811 3.70196-1.71839 20.80284-7.95729 39.14162-6.28969 18.48806-15.58504 28.98279-16.48061 30.27591-7.21871 10.42316-10.74943 15.63218-11.76336 26.60223-.75365 8.15394.0371 7.00194 1.81456 13.74489-31.15729 6.94181-79.55234 13.8184-92.15471-5.49235 2.40743-12.49684 2.93231-28.9245 3.10178-31.79865 1.27707-21.66848-5.53672-33.8742-6.42575-46.41156-3.37265-53.10898 14.43818-62.96835 38.32548-88.64617.49229-.51848 5.43756-2.25669 9.91452-4.65903 9.14993 11.38115 24.91744 3.12903 30.93316-2.13928 1.48672 1.12706 18.23182 7.00546 18.7637 8.34782 1.34998 3.19719 2.37503 6.3614 3.25412 9.48996 2.76556 9.84229 4.08656 19.33169 9.53548 28.38477 7.32565 13.63251 13.69888 21.31242 19.13892 23.15984z" id="path3353-1"/></svg>