<svg viewBox="0 0 560 1e3"><path style="display:inline;fill-opacity:.00392157;fill-rule:evenodd;fill:#000;opacity:1;stroke-dasharray:none;stroke-linecap:butt;stroke-linejoin:miter;stroke-miterlimit:4;stroke-opacity:1;stroke-width:0;stroke:#000" d="m347.82542 405.47846c32.97194 41.12226 14.0327 81.88857 9.19677 98.32357-2.01061 6.83307 4.74255 12.01889-82.59133 8.00899-17.30311-1.81576-59.24343-1.2282-59.21094-1.53911 3.78245-36.19606 8.45036-78.58082 11.41502-98.65845 36.34163 12.28427 54.05413 11.58297 121.19048-6.135z" id="path3202-9-3-8"/><path style="display:inline;fill-opacity:.39215686;fill-rule:evenodd;fill:#f59;opacity:1;stroke-dasharray:none;stroke-linecap:butt;stroke-linejoin:miter;stroke-miterlimit:4;stroke-opacity:1;stroke-width:0;stroke:#000" d="m349.03754 406.58021c27.35538 39.71087 21.22989 72.35374 7.1996 84.71364-.20681 1.25227.12167 9.07119.002 12.48916-.0557 1.59769-.0743 6.49513-.0475 6.58756.0.0-.008.55855-3.5214 1.22136-6.97769 1.31652-26.36578.82202-77.81655-2.52847-17.22485-1.7838-59.61101 1.398-59.64703 1.09296-4.19847-35.55905.5941-81.77129 10.51369-97.56597 36.42612 14.76968 76.93272 8.18054 123.31669-6.01024z" id="path3204-7-1-0"/></svg>