<svg viewBox="0 0 560 1e3"><path style="display:inline;fill-opacity:1;fill-rule:evenodd;fill:#000;opacity:1;stroke-dasharray:none;stroke-linecap:butt;stroke-linejoin:miter;stroke-miterlimit:4;stroke-opacity:1;stroke-width:0;stroke:#000" d="m364.46748 291.14778c-1.05693 4.28434-2.36337 9.24554-3.96646 14.9371-4.54325 16.13025-10.12644 23.38172-17.08678 34.7393-18.83302 27.12305-2.02141 45.10277 4.51196 64.03488-64.40662 28.6795-107.44194 17.77405-119.4619-1.83226 7.88498-17.78649 17.34246-50.75285 14.4764-84.73211-.10903-.84586-4.14283-11.7431-5.92518-28.16955 26.89723 2.84755 81.86295 6.92242 127.45196 1.02264z" id="path3493-2"/><path style="display:inline;fill-opacity:1;fill-rule:evenodd;fill:#1a1a1a;opacity:1;stroke-dasharray:none;stroke-linecap:butt;stroke-linejoin:miter;stroke-miterlimit:4;stroke-opacity:1;stroke-width:0;stroke:#000" d="m363.38835 292.28448c-1.2219 4.89805-2.6515 10.11787-4.28383 15.24555-3.58791 11.27077-13.64208 26.00843-15.88594 30.01703-9.56591 14.16095-15.64931 36.40315-1.204 53.49167 2.68477 6.06193 4.73928 9.70544 6.24763 13.98254-38.51054 15.23616-75.11809 15.78497-76.2905 15.7529-3.61091-.30159-32.25718-2.68635-43.54158-17.38067 1.88169-4.38023 3.24766-6.96354 3.25632-7.14426 8.69383-19.49647 9.16566-28.07394 10.60172-33.13448 5.17717-18.24376 1.92316-40.73168 1.51078-45.94078-.30148-3.80824-4.82961-14.60553-5.71864-27.14289 22.81124 6.6433 101.54077 7.33643 125.30804 2.25339z" id="path3495-7"/><path style="display:inline;fill-opacity:1;fill:#000" d="m271.82541 419.82176c-2.95421-1.35033 3.12574-84.60904 9.75724-125.03773.057-.34767.1141-.69217.1712-1.03342 2.38534.67195-.0951.10074 2.35106.14181-.0742.446-.14793.89215-.22123 1.33844-10.02068 61.00294-11.9163 124.39685-12.05827 124.5909z" id="path3497-3"/><path id="path3465-5-1-1" d="m277.18902 406.9809c0 .86028-3.76472 3.3125-6.25 3.3125l.28125-6.65625c2.48528.0 5.96875 2.60847 5.96875 3.34375z" style="display:inline;fill:#000;opacity:1"/><path style="display:inline;fill:#787878" d="m277.18902 406.27379c0 .86028-3.76472 3.3125-6.25 3.3125l.28125-6.65625c2.48528.0 5.96875 2.60847 5.96875 3.34375z" id="path3519-0"/><path id="path3467-3-6-1" d="m277.83161 391.33811c0 .86028-3.76472 3.3125-6.25 3.3125l.28125-6.65625c2.48528.0 5.96875 2.60847 5.96875 3.34375z" style="display:inline;fill:#000;opacity:1"/><path style="display:inline;fill:#787878" d="m277.83161 390.631c0 .86028-3.76472 3.3125-6.25 3.3125l.28125-6.65625c2.48528.0 5.96875 2.60847 5.96875 3.34375z" id="path3521-6"/><path id="path3472-8-9-7" d="m279.05036 376.33811c0 .86028-4.04597 3-6.53125 3l.46875-6.65625c2.48528.0 6.0625 2.92097 6.0625 3.65625z" style="display:inline;fill:#000;opacity:1"/><path style="display:inline;fill:#787878" d="m279.05036 375.631c0 .86028-4.04597 3-6.53125 3l.46875-6.65625c2.48528.0 6.0625 2.92097 6.0625 3.65625z" id="path3523-6"/><path id="path3474-3-6-7" d="m280.11286 363.15061c0 .86028-4.20222 2.6875-6.6875 2.6875l.59375-6.65625c2.48528.0 6.09375 3.23347 6.09375 3.96875z" style="display:inline;fill:#000;opacity:1"/><path style="display:inline;fill:#787878" d="m280.11286 362.4435c0 .86028-4.20222 2.6875-6.6875 2.6875l.59375-6.65625c2.48528.0 6.09375 3.23347 6.09375 3.96875z" id="path3525-4"/><path id="path3477-5-0-9" d="m281.17536 348.46311c0 .86028-3.95222 2.875-6.4375 2.875l.625-6.59375c2.48528.0 5.8125 2.98347 5.8125 3.71875z" style="display:inline;fill:#000;opacity:1"/><path style="display:inline;fill:#787878" d="m281.17536 347.756c0 .86028-3.95222 2.875-6.4375 2.875l.625-6.59375c2.48528.0 5.8125 2.98347 5.8125 3.71875z" id="path3527-3"/><path id="path3479-2-7-2" d="m282.89411 332.73271c0 .86028-4.13972 2.65625-6.625 2.65625l.6875-6.59375c2.48528.0 5.9375 3.20222 5.9375 3.9375z" style="display:inline;fill:#000;opacity:1"/><path style="display:inline;fill:#787878" d="m282.92536 332.09975c0 .86028-4.13972 2.65625-6.625 2.65625l.6875-6.59375c2.48528.0 5.9375 3.20222 5.9375 3.9375z" id="path3529-6"/><path id="path3481-2-1-0" d="m284.64595 318.22167c0 .86028-4.29597 2.28125-6.78125 2.28125l.8125-6.5c2.48528.0 5.96875 3.48347 5.96875 4.21875z" style="display:inline;fill:#000;opacity:1"/><path style="display:inline;fill:#787878" d="m284.64595 317.51456c0 .86028-4.29597 2.28125-6.78125 2.28125l.8125-6.5c2.48528.0 5.96875 3.48347 5.96875 4.21875z" id="path3531-9"/><path id="path3483-4-9-5" d="m286.26115 302.19562c0 .86028-3.98347 3-6.46875 3l.9375-6.3125c2.48528.0 5.53125 2.57722 5.53125 3.3125z" style="display:inline;fill:#000;opacity:1"/><path style="display:inline;fill:#787878" d="m286.26115 301.48851c0 .86028-3.98347 3-6.46875 3l.9375-6.3125c2.48528.0 5.53125 2.57722 5.53125 3.3125z" id="path3533-7"/></svg>