<svg viewBox="0 0 560 1e3"><path id="path4912" d="m368.45236 268.83602c.40069 1.40387.82871 12.89967-6.36035 37.77919-5.42713 18.7819-17.12167 31.6625-17.71805 33.12058-6.03534 8.96911-15.45846 21.82266-9.52924 38.69515-33.59892 9.83464-85.2698 13.19244-93.43445-5.62484 2.433-12.49684 2.06627-18.80217 2.23754-34.00531.24452-21.70551-6.08737-33.66342-6.98584-46.20078.40962-35.13389 30.30326-40.0847 52.38713-59.43686.97617-2.02088 1.87249-19.70311-12.03774-26.98259-.63873-.33426 10.68282-5.75669 14.26985-9.78403 4.65338 2.75615 14.52589 1.59778 24.04302-1.20178 1.50252 1.12706 11.88318 8.27222 10.66769 9.07117-25.72677 16.91039-30.9022 28.84774-29.45936 29.06832 3.13994 1.52155 66.54554 33.43249 67.65165 34.25705z" style="display:inline;fill-opacity:1;fill-rule:evenodd;fill:#000;opacity:1;stroke-dasharray:none;stroke-linecap:butt;stroke-linejoin:miter;stroke-miterlimit:4;stroke-opacity:1;stroke-width:0;stroke:#000"/><path id="path4915" d="m368.47602 268.56519c-.47811 3.70196-1.71839 20.80284-7.95729 39.14162-6.28969 18.48806-15.58504 28.98279-16.48061 30.27591-7.21871 10.42316-10.74943 15.63218-11.76336 26.60223-.75365 8.15394.0371 7.00194 1.81456 13.74489-31.15729 6.94181-79.55234 13.8184-92.15471-5.49235 2.40743-12.49684 2.93231-28.9245 3.10178-31.79865 1.27707-21.66848-5.53672-33.8742-6.42575-46.41156-3.37265-53.10898 11.96331-79.40858 38.32548-88.64617.49229-.51848 10.93756-4.73394 14.35202-8.57378 3.61868 1.69365 11.32369 2.50403 23.71441-1.20178 9.70684 6.51875 21.01307 9.98271 21.54495 11.32507 44.27723.50597 34.15478 57.22035 31.92852 61.03457z" style="display:inline;fill-opacity:1;fill-rule:evenodd;fill:#d4aa00;opacity:1;stroke-dasharray:none;stroke-linecap:butt;stroke-linejoin:miter;stroke-miterlimit:4;stroke-opacity:1;stroke-width:0;stroke:#000"/><path id="path1664-8-4" d="m350.44891 411.28161c-41.34356 12.40411-56.35277 29.50718-67.32299 47.0649-1.04023 1.75909-1.92047 7.35117-4.50173 9.70959-.97785.89343-3.70051-.0277-4.03805.0431-.91345.19159-2.09488.29968-2.84109.24274-1.3589-.10369-3.10427-.97079-4.62926-2.64607-1.15035-1.26373-2.1753-2.98733-2.81436-5.19001-8.27893-10.93923-27.60352-39.54369-38.34145-47.86102.0176-.005-.05-.20603.59439-1.93851 29.91996 7.91079 37.53385 11.40066 123.28163-1.21761.0.0.63138 1.78415.61291 1.79289z" style="display:inline;fill-opacity:1;fill-rule:evenodd;fill:#d4aa00;opacity:1;stroke-dasharray:none;stroke-linecap:butt;stroke-linejoin:miter;stroke-miterlimit:4;stroke-opacity:1;stroke-width:0;stroke:#000"/><path id="path1667-0-7" d="m225.9378 412.66104c.12717-.79329.24724-.90642.25482-.95601 23.02972 9.12926 54.6817 12.66174 123.82806-1.73671.0291.083.24793.57628.45084 1.30322-7.49448 2.32559-13.58511 4.61432-22.50451 8.15633-60.49161 9.75774-83.56164 4.33761-97.57663-2.66633-1.68147-1.78024-2.87542-3.01265-4.45258-4.1005z" style="display:inline;fill-opacity:1;fill:#1a1a1a;stroke-dasharray:none;stroke-linecap:butt;stroke-linejoin:miter;stroke-miterlimit:4;stroke-opacity:1;stroke-width:0;stroke:#83afc8"/><path id="path1676-2-7" d="m241.44907 429.61473c16.19921 3.4137 37.32679 4.09867 68.75142-.23858-1.10723.72649-4.9682 3.64884-9.02733 7.02192-26.13262 3.68145-42.62028 3.1439-53.96133.73077-1.89388-2.48871-3.25794-4.54662-5.76276-7.51411z" style="display:inline;fill-opacity:1;fill:#1a1a1a;stroke-dasharray:none;stroke-linecap:butt;stroke-linejoin:miter;stroke-miterlimit:4;stroke-opacity:1;stroke-width:0;stroke:#83afc8"/><path id="path1678-02-0" d="m252.70414 444.58541c10.94342 1.31488 24.01095 1.50229 40.32871.0811-1.56759 2.01272-3.58281 4.56444-5.24245 6.66295-12.30604 1.16431-22.00263 1.20882-29.81942.51362-2.04934-2.61037-3.63449-4.68604-5.26684-7.25767z" style="display:inline;fill-opacity:1;fill:#1a1a1a;stroke-dasharray:none;stroke-linecap:butt;stroke-linejoin:miter;stroke-miterlimit:4;stroke-opacity:1;stroke-width:0;stroke:#83afc8"/><path id="path1680-7-9" d="m262.53421 458.18295c6.22871.31514 13.08896.30377 20.72809-.0971-.87505 2.4389-1.64015 4.66739-2.42955 6.53665-5.25319.34928-9.97649.47387-14.24234.41152-1.68576-1.69159-2.0194-4.59693-4.0562-6.85107z" style="display:inline;fill-opacity:1;fill:#1a1a1a;stroke-dasharray:none;stroke-linecap:butt;stroke-linejoin:miter;stroke-miterlimit:4;stroke-opacity:1;stroke-width:0;stroke:#83afc8"/><path id="path1688-0-9" d="m282.94456 458.76549c-.0483.15247-.11284.47208-.19954.90622-.41277 2.06685-1.81439 6.53069-3.87757 8.11265-.26921.20642-1.13559 1.14752-4.57861.28177-.17398-.0437-2.18026 1.1699-4.2783.12449-4.65827-2.32112-6.22252-8.10904-6.31915-8.53686 3.82592 9.08132 8.89939 9.3147 10.40315 7.55401 5.26837 2.79873 7.50839-4.81217 8.85002-8.44228z" style="display:inline;fill-opacity:1;fill-rule:evenodd;fill:#000;opacity:1;stroke-dasharray:none;stroke-linecap:butt;stroke-linejoin:miter;stroke-miterlimit:4;stroke-opacity:1;stroke-width:0;stroke:#000"/><path id="path1686-7-77-3" d="m270.82275 435.43438c-.27348.009-1.79592.25253-2.79392-.37218-2.81558-1.76243-4.25483-2.94688-4.60119-2.94292-1.31947 3.46278.95439 5.62557.35455 6.32275-1.37181 1.59444-1.79238 3.00827-1.58396 5.50362.0171.20458-3.58077.80557-3.54542 1.00689.035.19926 3.703-.001 3.75649.19384.0729.26588.16339.52725.27207.78268.073.17162-5.09572 1.71557-5.006 1.88142.0994.18367 5.45913-1.01146 5.57958-.83598.18386.26785.39264.5255.62747.77089.0936.0978-2.54862 1.85103-2.44663 1.94485.0902.083 2.92371-1.49299 3.02053-1.41337 3.12217 2.74088 9.31925 2.71469 13.42439.023.11108-.0887 2.74498 1.74885 2.84737 1.65478.11009-.10113-2.31201-2.13427-2.21182-2.24122.23524-.25114.44336-.51778.62524-.79735.0907-.13937 4.70644 1.32919 4.78417 1.18372.10116-.18933-4.34018-1.99469-4.26053-2.19311.14306-.35634.2518-.7262.3276-1.10547.0334-.16697 3.51968 4e-4 3.5404-.16988.0189-.15538-3.42675-.64815-3.41821-.80572.13599-2.5067.25463-3.8872-1.41033-5.45929-.81598-.77046 1.3846-1.75153.59847-5.81365-.91001.15641-2.65721 1.16587-5.86162 2.70862-.8909.42892-2.16174.14007-2.6189.17306z" style="display:inline;fill-opacity:1;fill:#fff;stroke-dasharray:none;stroke-linecap:butt;stroke-linejoin:miter;stroke-miterlimit:4;stroke-opacity:1;stroke-width:0;stroke:#83afc8"/></svg>