<svg viewBox="0 0 560 1e3"><path id="path3801" d="m368.45236 268.83602c.40069 1.40387.82872 12.89967-6.36035 37.77919-2.51105 8.6901-7.10177 15.75735-11.36921 20.98756-14.79909 24.95922-19.51494 42.56353-14.21742 54.77952 5.12253 9.89693 11.7358 22.29153 12.56986 25.83552.0.0-51.7146 6.85286-63.22382 35.19023-2.06147 4.01155-2.1084 11.81811-3.46792 16.10443-.27859.87834-1.00697 6.35332-3.50565 8.26757-.26944.20641-1.13656 1.14752-4.58251.28177-.17413-.0437-1.37345.71664-3.61847.0361-5.83439-1.76869-6.66978-8.86034-6.76649-9.28816-1.98539-8.78313-6.24957-28.02971-9.43291-34.24779-14.19124-27.72004-27.97462-8.06406-29.28246-10.40039.41618-1.08804 4.02945-13.36841 6.19444-18.09893 11.62539-25.40153 12.08709-42.05871 12.25836-57.26185.24452-21.70551-6.08737-33.66342-6.98584-46.20078.40962-35.13389 30.30326-40.0847 52.38713-59.43686-.22204 1.98499 4.34434 5.11885 7.48346.17105 3.13994 1.52155 66.54554 33.43249 67.65165 34.25705z" style="display:inline;fill-opacity:1;fill-rule:evenodd;fill:#000;opacity:1;stroke-dasharray:none;stroke-linecap:butt;stroke-linejoin:miter;stroke-miterlimit:4;stroke-opacity:1;stroke-width:0;stroke:#000"/><path id="path3803" d="m360.51873 307.70681c-3.46089 10.17301-8.49438 17.20178-12.48946 21.66796-14.52035 26.23115-18.52848 38.26979-13.26214 53.09968 7.20819 12.79186 17.06214 27.33752 17.28711 30.30894-40.10653 11.44456-64.97545 42.96388-65.74712 45.30165-.78385 1.88787-4.7912 9.82211-7.2881 11.60252-1.21712.86786-4.56426-.37235-4.8162-.39645-.29397-.0276-.77535.50225-2.98817-.0701-5.65546-1.4629-10.22974-5.40448-10.80185-7.35518-18.43111-29.49711-30.68812-46.0732-35.41353-47.26215 7.94787-20.31139 14.53739-34.53836 15.52113-39.64488 2.40743-12.49684 4.34652-31.04582 4.51599-33.91997 1.27707-21.66848-5.53672-33.8742-6.42575-46.41156-3.37265-53.10898 18.32727-82.76734 38.32548-88.64617.49229-.51848 5.43756-2.25669 9.91452-4.65903.0468.55566-2.05276 9.74242 9.91861 18.91595 17.44276-9.38368 18.83875-15.7246 21.14713-21.1436 2.01705.7735 18.09924 7.09385 18.63112 8.43621.0.0 23.51225-5.2697 32.99132 27.16718.0476.44543.33547 8.58167.52174 17.04956.11811 5.36806-.44125 11.33436-1.03098 15.92707s-2.27195 21.69359-8.51085 40.03237z" style="display:inline;fill-opacity:1;fill-rule:evenodd;fill:#333;opacity:1;stroke-dasharray:none;stroke-linecap:butt;stroke-linejoin:miter;stroke-miterlimit:4;stroke-opacity:1;stroke-width:0;stroke:#000"/><path id="path3809" d="m224.05743 416.09574c13.0124 5.20002 31.24785 56.57108 51.26964 54.86889 13.4605-1.86072 14.55644-32.7986 76.88701-58.04142-5.52595-11.9083-10.42481-16.69568-16.96101-28.02007-45.102 11.9464-91.4758 7.08435-96.81614-2.31943.0.0-9.24651 21.79438-14.3795 33.51203z" style="display:inline;fill-opacity:1;fill:#333;stroke-dasharray:none;stroke-linecap:butt;stroke-linejoin:miter;stroke-miterlimit:4;stroke-opacity:1;stroke-width:0;stroke:#000"/><path id="path3811" d="m280.16698 426.00964c.007-.14856-4.47624-37.37265-4.53848-37.5625.0.0 40.9305 1.90231 60.29792-4.2718.29791-.095 10.39088 17.55677 10.2935 17.64914-.0921.22131-66.05294 24.18516-66.05294 24.18516z" style="display:inline;fill-opacity:1;fill:#000;opacity:1;stroke-dasharray:none;stroke-linecap:butt;stroke-linejoin:miter;stroke-miterlimit:4;stroke-opacity:1;stroke-width:0;stroke:#000"/><path id="path3813" d="m271.8764 424.67916c-.007-.59051 6.00259-39.31886 6.06483-39.50871.0.0-29.47303 1.44396-38.3092-7.6989-.21729-.22483-10.82524 26.44157-10.72786 26.53394.0921.22131 42.97223 20.67367 42.97223 20.67367z" style="display:inline;fill-opacity:1;fill:#000;opacity:1;stroke-dasharray:none;stroke-linecap:butt;stroke-linejoin:miter;stroke-miterlimit:4;stroke-opacity:1;stroke-width:0;stroke:#000"/><path id="path3815" d="m270.52301 422.32623c-.007-.14856 5.08477-37.14821 5.14701-37.33806.0.0-26.3013-1.69958-35.84458-7.43948-.26794-.16115-10.10243 25.66683-10.00505 25.7592.0921.22131 40.70262 19.01834 40.70262 19.01834z" style="display:inline;fill-opacity:1;fill:#333;opacity:1;stroke-dasharray:none;stroke-linecap:butt;stroke-linejoin:miter;stroke-miterlimit:4;stroke-opacity:1;stroke-width:0;stroke:#000"/><path id="path3817" d="m281.57872 423.75116c.007-.14856-4.09105-35.68318-4.15329-35.87303.0.0 38.00166.80123 57.36908-5.37288.29791-.095 10.94265 17.54068 10.84527 17.63305-.0921.22131-64.06106 23.61286-64.06106 23.61286z" style="display:inline;fill-opacity:1;fill:#333;opacity:1;stroke-dasharray:none;stroke-linecap:butt;stroke-linejoin:miter;stroke-miterlimit:4;stroke-opacity:1;stroke-width:0;stroke:#000"/><path style="display:inline;fill-opacity:1;fill-rule:nonzero;fill:#000;opacity:1;stroke-dasharray:none;stroke-linecap:butt;stroke-linejoin:round;stroke-miterlimit:4;stroke-opacity:1;stroke-width:0;stroke:#000" d="m275.55831 326.20226a4.9538808 5.0687276.0 01-4.95389 5.06874 4.9538808 5.0687276.0 01-4.95389-5.06874 4.9538808 5.0687276.0 014.95389-5.06873 4.9538808 5.0687276.0 014.95389 5.06873z" id="path3821"/><path style="display:inline;fill-opacity:1;fill-rule:nonzero;fill:#000;opacity:1;stroke-dasharray:none;stroke-linecap:butt;stroke-linejoin:round;stroke-miterlimit:4;stroke-opacity:1;stroke-width:0;stroke:#000" d="m273.21301 357.31488a4.9538808 5.0687276.0 01-4.95387 5.06873 4.9538808 5.0687276.0 01-4.95389-5.06873 4.9538808 5.0687276.0 014.95389-5.06874 4.9538808 5.0687276.0 014.95387 5.06874z" id="path3823"/><path id="path3825" class="shadow" d="m329.87921 425.70416c-15.4791 1.19068-42.03653 26.26041-44.60913 30.99635 10.29989-9.14088 29.75951-26.28541 44.60913-30.99635z"/><path id="path3827" class="shadow" d="m262.13712 457.55245c-6.81704-9.41592-28.83006-31.99347-34.93819-34.15183 5.05404 5.44075 26.5203 25.35081 34.93819 34.15183z"/><path id="path3829" class="shadow" d="m329.8875 425.70175c-15.4791 1.19068-42.03653 26.26041-44.60913 30.99635 10.29989-9.14088 29.75951-26.28541 44.60913-30.99635z"/><path id="path3831" class="shadow" d="m262.14541 457.55004c-6.81704-9.41592-28.83006-31.99347-34.93819-34.15183 5.05404 5.44075 26.5203 25.35081 34.93819 34.15183z"/><path style="display:inline;fill-opacity:1;fill:#000;opacity:1;stroke-dasharray:none;stroke-linecap:butt;stroke-linejoin:miter;stroke-miterlimit:4;stroke-opacity:1;stroke-width:0;stroke:#000" d="m296.62879 220.18919c1.06858-.83912 8.5308-4.71832 13.55746-9.55492 5.1177-4.92419 6.74306-10.74206 7.93422-10.97277.0.0 12.60629 4.24062 12.6337 4.55667.0.0-14.52805 5.95833-13.99571 5.98076.27948.0112-.69114 5.29504-.69402 5.32749.002.01-19.43565 4.66277-19.43565 4.66277z" id="path3214-39-1"/><path style="display:inline;fill-opacity:1;fill:#333;opacity:1;stroke-dasharray:none;stroke-linecap:butt;stroke-linejoin:miter;stroke-miterlimit:4;stroke-opacity:1;stroke-width:0;stroke:#000" d="m297.17958 220.06456c1.00862-.82608 7.51601-3.32991 12.50512-7.84755 4.65959-4.21926 7.74274-10.87414 8.36114-12.61793.0.0 10.20394 4.09789 10.23022 4.41389.0.0-11.98708 6.03414-11.9004 6.0566.22667.0583-.91939 4.95712-.92215 4.98959.002.01-18.27393 5.0054-18.27393 5.0054z" id="path3221-1-0"/><path style="display:inline;fill-opacity:1;fill:#000;opacity:1;stroke-dasharray:none;stroke-linecap:butt;stroke-linejoin:miter;stroke-miterlimit:4;stroke-opacity:1;stroke-width:0;stroke:#000" d="m296.82849 220.23453c-.36502-.60704-4.86232-3.87182-7.56024-8.73696-2.57329-4.6404-3.03954-10.19381-3.158-10.23388.0.0-9.83812 3.10874-9.86553 3.42474.0.0 3.69183 3.36251 3.75897 3.66998.0.0 1.53352 5.10831 1.61731 5.71468.10169.0853 15.20749 6.16144 15.20749 6.16144z" id="path3223-7-2"/><path style="display:inline;fill-opacity:1;fill:#333;opacity:1;stroke-dasharray:none;stroke-linecap:butt;stroke-linejoin:miter;stroke-miterlimit:4;stroke-opacity:1;stroke-width:0;stroke:#000" d="m296.85558 220.4714c-.2026-.005-6.20219-4.1737-8.77331-9.15056-2.46951-4.78017-1.52622-10.37445-1.16535-10.47578.0.0-8.901 3.8035-9.05986 4.07535.0.0 3.3529 3.10962 3.41727 3.41722.0.0 1.10709 4.71681 1.25349 5.36732.0975.0854 14.32776 6.76645 14.32776 6.76645z" id="path3225-5-7"/><path style="display:inline;fill-opacity:1;fill:#c8c8c8;opacity:1;stroke-dasharray:none;stroke-linecap:butt;stroke-linejoin:miter;stroke-miterlimit:4;stroke-opacity:1;stroke-width:0;stroke:#000" d="m296.64318 220.20298c19.65132-9.77368 20.50644-20.55136 21.33306-21.08865.0.0 7.55275 4.5 7.57686 4.81611.0.0-10.49608 5.94799-10.41655 5.97046.20799.0582-1.03938 4.18965-1.04198 4.22205-.23539.0883-17.46615 6.69246-17.4514 6.08003z" id="path3227-64-2"/><path style="display:inline;fill-opacity:1;fill:#c8c8c8;opacity:1;stroke-dasharray:none;stroke-linecap:butt;stroke-linejoin:miter;stroke-miterlimit:4;stroke-opacity:1;stroke-width:0;stroke:#000" d="m296.83585 220.19366c-12.64654-8.32171-9.82105-19.35465-9.95084-19.37273.0.0-6.62137 3.8232-6.64549 4.13929.0.0 3.05282 2.98344 3.0456 3.05213.0.0.3767 4.02552.51419 5.02959-.0834.43129 12.63971 7.94539 13.03654 7.15172z" id="path3229-9-6"/><path style="display:inline;fill-opacity:1;fill:#000;opacity:1;stroke-dasharray:none;stroke-linecap:butt;stroke-linejoin:miter;stroke-miterlimit:4;stroke-opacity:1;stroke-width:0;stroke:#000" d="m275.66315 385.30704c-3.37067-27.44695 11.62557-130.34179 20.16917-165.30025l.80611.10099c.44243 13.37083-22.81287 103.05921-18.69549 165.18159.32638.0933-1.98643.0282-2.27979.0177z" id="path3851-9-5"/></svg>