<svg viewBox="0 0 560 1e3"><path id="path2845" d="m225.8 413.1s-18.61299 38.81162-20.11299 63.21162C201.88701 536.61162 215 608.9 237.1 664.9c7.5 61.7 14.8 123 17.3 185.1l11.5-.3c2.3-52.9 39.2-99.2 20.2-160.8 13.6-57.7 6.2-71.9 1-161-5.4 94.3 4.4 110.4 14.2 154.8-15.6 58 17.8 109.6 18.6 167.8h16.3C336.4 792 352.6 755.3 344.7 681c23.8-69.9 34.02165-148.52893 29.22165-211.92893-2-25.9-23.52165-57.67107-23.52165-57.67107l-124.6 1.7" style="fill-opacity:1;fill:gray"/><path id="path2847" class="shadow" d="M289.6 630.9C279.8 590.6 268.8 530 272.8 483.8c-.8 44.7 7.6 106.4 16.8 147.1z"/><path d="m226.3 412.5c27.9-30 93.7-36.4 123.8-1.4 18.2 21.2 25.4 60.2 7 78.9-8.2 8.3-22.1 13.3-35 11-24.2-4.4-25.9-31.9-47.3-34.5C256.7 464.3 248.5 483 231 478 220.9 475.1 221.28701 468.07973 218.48701 460.07973 216.5943 437.63189 223.7 415.2 226.3 412.5z" id="Stump_Normal-3-6-5" style="fill-opacity:1;fill:gray"/><path d="m226.3 412.5c20-34.8 104.4-37.1 124-1.5 11.9 21.7 1.4 60.5-22.3 72-.8.4-20.2 9.5-34 1-9.5-5.8-10.3-16.2-19.3-17.5-6.4-1-8.4 3.9-17.8 5.5-9.2 1.5-18.7-1.3-24-5-14.1-9.8-16-38.2-6.6-54.5z" id="Stump_Narrow-10-3-0" style="fill-opacity:1;fill:gray"/><path style="display:inline;fill-opacity:1;fill:#b3b3b3;stroke-width:.94552505" id="path2496-4-8-3-3" d="m333.83345 829.57196c-.14663-9.66929.35555-28.36645.94632-49.37836.008-.27199 7.7397.2662 7.77299-.005.48863-3.97529 1.23025-8.4699 1.47091-12.74908.014-.24939-9.03788-.52095-9.03094-.77088.92867-33.42349 1.91472-69.16605.67629-82.22479-.0124-.13082 9.38388-.19198 9.37103-.31821-.12857-1.01983-.18488-2.52394-.23143-2.77868.0562-.33413 1.34466-4.32082 1.52046-5.17952-.31027.031-5.42083.16068-10.49768.12598-.0571-39e-5-1.09894-21.6483-3.60609-51.70886-.0386-.46228 28.44211-.0548 28.56209-.5068 1.10649-4.16901 2.42894-11.21459 2.77923-14.11685.0548-.45421-32.73493.56693-32.8133.1138-3.92457-22.69154-6.21474-47.15181-9.38121-71.65628-.059-.45669 52.50081-1.45604 52.53737-1.9138.54054-6.76801 1.10644-13.98238.78671-18.30842-.0432-.58461-53.49873 1.70545-53.56255 1.12671 4.17986-35.31055 8.56934-59.11863 35.99735-98.5671-1.87036-3.6521-4.94006-7.41913-5.65461-8.06776-35.66653 39.36299-56.01145 63.58966-53.27367 105.95096.0315.32654-24.52312.4614-24.49106.78835.6152 6.27414.70276 13.19592 1.51057 19.57017.0404.31888 24.24247-1.68175 24.2833-1.36278 3.22921 25.22594 8.11642 51.41496 12.49448 73.35846.0521.2611-26.09035 2.47165-26.03828 2.73181.93429 4.66834 1.82646 9.00087 2.80504 13.3312.06.2656 26.02723-2.1087 26.08318-1.84366 6.354 30.09637 11.78578 51.00052 11.7006 50.99983-6.89693-.0557-25.81651.44173-26.68317.52733.11519.90904.95291 4.79238 1.10496 5.22553-.0321.25866-.28734 1.68336-.50822 2.6519-.003.14114 26.79344-.0519 26.78998.10209-.22573 10.06683-.96754 47.2983-1.60548 81.40691-.006.29528-14.87724-.0282-14.86578.26649.1815 4.66593 1.69195 11.66948 1.88143 13.87257.0329.38299 12.97967-.11608 12.97302.26635-.40944 23.55211-1.02271 43.63116-.85286 48.89443.0115.35502-5.8584.94802-5.80737 1.30181.75002 5.19982 1.28341 15.05954 1.14876 19.76236 8.60784.43817 16.69164-.0977 16.69164-.0977l.41703-20.31547s-3.39525-.12455-3.40103-.50581z"/><path style="display:inline;fill-opacity:1;fill:#b3b3b3;stroke-width:.94552505" id="path2496-4-8-1-5-6" d="m261.34979 828.41197c-.14663-9.66929-.43995-27.92451.15082-48.93642.008-.27199 20.38486.79168 20.43981.52403.79799-3.8869 2.8338-8.93774 3.29543-12.37723.0332-.24756-23.60872-1.86378-23.60178-2.11371.92867-33.42349 2.87811-68.90088 1.63968-81.95962-.0124-.13082 23.92707 1.09807 23.91422.97184.36305-3.06002 1.48471-5.51891 1.69972-8.20452-.45962.0459-15.65956-.9427-24.88628-1.13622-.13282-.003.0472-19.40316-5.96324-47.75592-.0524-.24702 30.63233.0527 30.6268-.20107-.0191-.87711-2.55925-10.58476-2.8654-13.49065-.0376-.35668-31.14877-.6052-31.21909-.95884-4.32175-21.73601-9.92524-48.43128-12.31203-72.7549-.0693-.70655 31.6361-.061 31.56985-.76676-.61943-6.59885-1.08088-12.49278-1.57054-19.8288-.0359-.53741-30.07791.97293-30.10162.43645 2.10374-62.22402-15.99359-98.19554-18.21272-102.17703.32286-2.75119-6.15897 11.31569-6.21648 13.71168 5.96498 25.16653 5.76999 42.93464 6.02411 88.77686.0172.26978-18.09588 1.1355-18.07834 1.4052.41576 6.3906 1.15327 13.84979 1.75332 20.15297.0261.27445 17.78639-1.22842 17.81283-.95422 2.53365 26.27891 8.42843 51.16318 12.3524 72.35479.0348.18808-16.88919.97628-16.85436 1.16376.89561 4.82061 2.832 11.55117 4.06806 14.97218.0866.23979 16.32938-1.5021 16.37949-1.25359 5.78934 28.70444 12.89727 46.98368 12.68065 46.98122-2.97529-.0338-15.00925.7282-15.53521.7804.12826 1.42381.84039 7.3504 1.12708 8.76131-.003.14114 15.30694-1.12955 15.30348-.97557-.22573 10.06683.90746 47.4233.26952 81.53191-.006.29528-6.67794.36955-6.66648.66424.1815 4.66593 1.03927 11.60699 1.2287 13.81008.0329.38299 4.96358-.66477 4.96566-.28229.0325 5.96283.92184 43.71955 1.09169 48.98282.0115.35502-2.24256 1.17582-2.22987 1.53305.1313 3.69722.88789 15.44702.75324 20.14984 8.60784.43817 12.00706-.36287 12.00706-.36287.21814-6.83383 1.22923-13.35915 2.1406-19.96191.0.0-6.97498-.83166-6.98076-1.21292z"/></svg>