<svg viewBox="0 0 560 1e3"><path id="path3135-2" d="m344.30163 390.0989c-40.86096 10.78471-77.9004 9.52738-110.59515-1.622l1.48973-5.81684c47.7592 14.94425 76.64153 7.03207 108.23231 1.24427.11976.26161.63612 4.46094.87311 6.19457z" style="display:inline;fill-opacity:1;fill:#1c1f24;opacity:1;stroke-dasharray:none;stroke-linecap:butt;stroke-linejoin:miter;stroke-miterlimit:4;stroke-opacity:1;stroke-width:0;stroke:#000"/><path style="display:inline;fill-opacity:1;fill-rule:evenodd;fill:#000;opacity:1;stroke-dasharray:none;stroke-linecap:butt;stroke-linejoin:miter;stroke-miterlimit:4;stroke-opacity:1;stroke-width:0;stroke:#000" d="m370.07736 269.08602c.40069 1.40387 1.5261 14.023-7.95134 38.12386-7.12242 18.11212-12.05753 46.24818-12.05753 46.24818s17.32725 37.91328 12.88911 56.19084c0 0-65.59696 5.42177-77.10618 33.75914-2.06147 4.01155-2.1084 11.81811-3.46792 16.10443-.27859.87834-1.00697 6.35332-3.50565 8.26757-.26944.20641-1.13656 1.14752-4.58251.28177-.17413-.0437-1.37345.71664-3.61847.0361-5.83439-1.76869-6.66978-8.86034-6.76649-9.28816-1.98539-8.78313-6.24957-28.02971-9.43291-34.24779-14.19124-27.72004-21.20533-26.69883-22.51317-29.03516 1.83125-7.53342 6.04042-23.55478 6.04585-24.03842.35179-31.36774-.97175-37.41484 2.2789-50.36527-.10903-.84586-1.49118-14.57152-3.27353-30.99797-10.22192-68.93112 33.83753-85.1372 46.51351-88.58365 2.47787-1.9143 3.55938-3.768 5.02929-7.59089 8.05292 4.57688 18.99158.58504 27.21157-1.25346.71304 2.32502 2.46817 6.04939 2.46817 6.04939s8.96935 4.72044 7.75386 5.51939c-25.72677 16.91039-30.9022 28.84774-29.45936 29.06832 3.13994 1.52155 66.54554 33.43249 67.65165 34.25705z" id="path3117-2"/><path style="display:inline;fill-opacity:1;fill-rule:evenodd;fill:#c8c8c8;opacity:1;stroke-dasharray:none;stroke-linecap:butt;stroke-linejoin:miter;stroke-miterlimit:4;stroke-opacity:1;stroke-width:0;stroke:#000" d="m359.10452 307.53003c-3.58791 11.27077-13.20083 27.26932-14.13594 31.76703-.19231.92498-3.78859 24.43921-3.59178 28.65293.73474 15.73079.19237 21.15651 1.96987 26.39685 1.40254 1.90805 3.6697 7.17284 6.68331 11.02798 34.58055 95.29315-179.98991 135.2691-118.28103-7.56308 6.57635-18.38141 7.72377-25.36711 7.71079-26.2117-.61985-40.31794 4.75159-49.21696 4.33921-54.42606-.30148-3.80824-4.82961-14.60553-5.71864-27.14289-5.16796-42.43545-.91538-78.23572 45.39812-88.05358 3.30015-2.30374 4.15718-5.29187 5.56014-8.26454 4.84781 2.29581 10.96544 3.06148 26.11199-1.96857.23809-.0791 2.76554 7.54927 2.9426 7.39421 1.48672 1.12706 17.92246 7.04965 18.45434 8.39201 10.94112-.42928 25.50214 5.68255 31.23355 24.77875 5.45886 28.93973 6.17379 36.85529-8.67653 75.22066z" id="path3119-9"/><path id="path3121-4" d="m389.75048 479.5035c.0218.0352 1.0853 3.08403 1.00804 3.13019-.65016.38847-2.25374 1.05942-3.45208 1.4977-.11447.0419-2.60411-2.6977-2.71885-2.65607-4.27881 1.55252-8.73882 2.97465-13.33844 4.27159-.14587.0411-.0106 6.20714-.15679 6.24802-5.90081 1.65048-8.17335 2.99738-14.45125 4.011-.12954.0209-4.38403-5.7371-4.51347-5.71144-6.02034 1.19334-12.16746 2.20809-18.3642 3.05386-.21287.0291-.98829 6.43291-1.20127 6.46156-6.3312.85182-9.56248 1.27794-15.87283 1.37345-.22843.003-3.08247-5.6736-3.31214-5.6555-6.46262.50767-12.8877.8439-19.18837 1.01951-.17706.005-1.41654 5.416-1.59343 5.42068-6.35406.16818-10.09123.0167-16.12724-.13068-.094-.002-1.34423-5.255-1.43814-5.257-6.2547-.15783-12.29156-.47926-18.01651-.95187-.14841-.0123-1.24639 3.491-1.39361 3.48278-5.44524-.30417-8.924-1.42407-13.7992-2.22416-.0778-.0128-.68588-3.87031-.76355-3.88283-5.08329-.81964-9.70966-2.45079-13.97008-3.60642-.09-.0244-1.68235 3.02261-1.77192 2.99805-4.68813-1.28512-7.67978-2.31877-11.06999-4.13779-.0815-.0437.0834-3.4682.001-3.50886-2.51321-1.24065-4.61555-2.58593-6.35499-4.03294-.37587-.31268-3.45047-.9982-4.25668-1.77098-.15151-.14522-2.25898 3.02021-2.41758 3.08855.0.0-2.61914-.96421-2.69519-1.09059 1.09831-17.99136 18.96811-65.93218 33.95446-88.37588 1.23742-1.85317 1.27031-4.13723 1.74035-5.8536 60.81168 14.65699 68.7818 7.00312 109.53408 1.87894.72316.65561 1.83271 8.39288 1.83271 8.39288 10.21621 14.1931 30.66884 48.07818 44.16716 82.51787z" style="display:inline;fill-opacity:1;fill:#17280b;opacity:1;stroke-dasharray:none;stroke-linecap:butt;stroke-linejoin:miter;stroke-miterlimit:4;stroke-opacity:1;stroke-width:0;stroke:#000"/><path id="path3123-4" d="m203.55359 478.92173c8.51492-28.38984 24.90566-58.3362 35.05005-89.27979l1.51993.57841c-8.38453 32.41858-18.87908 63.04264-25.84818 94.53961-4.19544-1.96694-6.85801-3.20798-10.7218-5.83823z" style="display:inline;fill-opacity:1;fill:#1c1f24;opacity:1;stroke-dasharray:none;stroke-linecap:butt;stroke-linejoin:miter;stroke-miterlimit:4;stroke-opacity:1;stroke-width:0;stroke:#000"/><path id="path3127-3" d="m256.96016 495.62277c4.12528-33.29707 11.21077-67.27028 17.20686-99.63194l1.98474.31888c-1.1273 33.48562 1.58175 67.71877-.94699 100.73724-5.90886-.17424-12.66842-.58459-18.24461-1.42418z" style="display:inline;fill-opacity:1;fill:#1c1f24;opacity:1;stroke-dasharray:none;stroke-linecap:butt;stroke-linejoin:miter;stroke-miterlimit:4;stroke-opacity:1;stroke-width:0;stroke:#000"/><path id="path3125-4" d="m226.95769 489.464c7.24497-32.07307 17.36955-64.50147 26.93716-96.11001l2.03771.43067c-7.35074 32.55411-9.7067 66.76448-14.70238 99.31859-4.43458-.94634-9.83791-2.1253-14.27249-3.63925z" style="display:inline;fill-opacity:1;fill:#1c1f24;opacity:1;stroke-dasharray:none;stroke-linecap:butt;stroke-linejoin:miter;stroke-miterlimit:4;stroke-opacity:1;stroke-width:0;stroke:#000"/><path id="path3129-5" d="m293.97995 497.23072c-.55795-32.66775 1.13471-66.01338 1.96298-100.52941l2.53771-.0997c3.73482 35.86669 11.87469 67.7164 15.34931 99.64702-6.4873.7737-15.28559 1.51121-19.85.98209z" style="display:inline;fill-opacity:1;fill:#1c1f24;opacity:1;stroke-dasharray:none;stroke-linecap:butt;stroke-linejoin:miter;stroke-miterlimit:4;stroke-opacity:1;stroke-width:0;stroke:#000"/><path id="path3131-2" d="m333.58147 494.15658c-7.04711-32.54953-12.39888-65.66548-16.83289-99.52156l1.96578-.25435c5.55226 34.08301 23.32978 64.51357 34.0336 96.4501-5.88931 1.26555-12.94565 2.47467-19.16649 3.32581z" style="display:inline;fill-opacity:1;fill:#1c1f24;opacity:1;stroke-dasharray:none;stroke-linecap:butt;stroke-linejoin:miter;stroke-miterlimit:4;stroke-opacity:1;stroke-width:0;stroke:#000"/><path id="path3133-8" d="m371.13216 486.30077c-15.12415-30.24903-25.05372-61.32185-35.32911-95.09726l2.09577-.90902c5.05362 15.805 27.87694 64.14372 46.67297 91.17249-4.07146 1.82226-9.20346 3.50567-13.43963 4.83379z" style="display:inline;fill-opacity:1;fill:#1c1f24;opacity:1;stroke-dasharray:none;stroke-linecap:butt;stroke-linejoin:miter;stroke-miterlimit:4;stroke-opacity:1;stroke-width:0;stroke:#000"/><path id="path3137-1" d="m356.82205 414.47941c-63.82717 21.90257-108.66551 10.29492-136.56468.27212 1.76517-4.76502 5.17312-11.14345 7.68829-14.54369 35.33835 11.44808 61.45448 17.52812 119.62732-.15928 4.10725 5.18477 9.11004 14.101 9.24907 14.43085z" style="display:inline;fill-opacity:1;fill:#1c1f24;opacity:1;stroke-dasharray:none;stroke-linecap:butt;stroke-linejoin:miter;stroke-miterlimit:4;stroke-opacity:1;stroke-width:0;stroke:#000"/><path id="path3153-2" d="m349.09317 417.01723c-.17346-.002-3.93924 1.90229-4.88399 1.43955l-5.03629-16.12571s3.01476-.81269 3.02351-.8428c-.1896.57539 6.9339 15.42981 6.89677 15.52896z" style="display:inline;fill-opacity:1;fill:#0b280b;opacity:1;stroke-dasharray:none;stroke-linecap:butt;stroke-linejoin:miter;stroke-miterlimit:4;stroke-opacity:1;stroke-width:0;stroke:#000"/><path style="display:inline;fill-opacity:1;fill-rule:evenodd;fill:#0b1728;opacity:1;stroke-dasharray:none;stroke-linecap:butt;stroke-linejoin:miter;stroke-miterlimit:4;stroke-opacity:1;stroke-width:0;stroke:#000" d="m370.401 268.81519c.47539 4.67168-2.59427 21.95495-9.41466 38.46484-4.60442 11.14577-11.13658 40.26932-12.07601 44.76703-.19321.92498 13.13793 32.2854 13.33569 49.87412-15.6007 11.79561-134.11044 3.60912-136.78734-7.18726-2.03694-6.37681 15.47536-57.14805 15.59144-72.96375.028-3.82016-2.90734-19.3785-3.80045-31.91586-1.37639-16.00688-1.27764-26.36727-.16043-37.0745 14.23272-11.14159 30.36025-30.02542 41.9419-49.52919 1.91832-.5271 3.49025-1.14788 4.98584-1.66681-3.3876 14.74467 21.2699 21.46547 37.03004-1.16357 1.49356 1.12706 15.11916 5.76802 15.65345 7.11038 5.62277 13.25538 5.63445 25.94395 12.84849 37.87473 7.35938 13.63251 15.38696 21.56242 20.85204 23.40984z" id="path3119-7-2"/><path id="path3139-2" d="m375.67723 448.31229c-63.82716 21.90257-141.2784 10.39561-169.17758.37281 1.76517-4.76502 3.73811-11.06265 5.56578-15.08789 35.33836 11.44808 98.70823 19.25039 156.88106 1.56299 3.46643 5.62672 6.59171 12.82224 6.73074 13.15209z" style="display:inline;fill-opacity:1;fill:#1c1f24;opacity:1;stroke-dasharray:none;stroke-linecap:butt;stroke-linejoin:miter;stroke-miterlimit:4;stroke-opacity:1;stroke-width:0;stroke:#000"/><path id="path3141-7" d="m389.51673 479.18301c-52.86701 22.4329-147.20291 25.8047-190.65843-2.60288 1.07767-4.76502 1.98562-9.58095 3.37579-13.85619 39.05066 26.4741 113.2961 24.73155 182.25232 4.21572 3.41975 6.37227 4.89129 11.9135 5.03032 12.24335z" style="display:inline;fill-opacity:1;fill:#1c1f24;opacity:1;stroke-dasharray:none;stroke-linecap:butt;stroke-linejoin:miter;stroke-miterlimit:4;stroke-opacity:1;stroke-width:0;stroke:#000"/><path id="path3143-3" d="m232.17646 418.94752c-.17346-.002-3.23213-.92613-4.17688-1.38887l6.18903-15.4628s2.52863.8004 2.53738.77029c-.1896.57539-4.5124 15.98223-4.54953 16.08138z" style="display:inline;fill-opacity:1;fill:#0b280b;opacity:1;stroke-dasharray:none;stroke-linecap:butt;stroke-linejoin:miter;stroke-miterlimit:4;stroke-opacity:1;stroke-width:0;stroke:#000"/><path id="path3145-6" d="m250.40744 423.81644c-.17346-.002-4.39619-.78551-5.34094-1.24825l4.7485-15.92777s3.34623.87774 3.35498.84763c-.1896.57539-2.72541 16.22924-2.76254 16.32839z" style="display:inline;fill-opacity:1;fill:#0b280b;opacity:1;stroke-dasharray:none;stroke-linecap:butt;stroke-linejoin:miter;stroke-miterlimit:4;stroke-opacity:1;stroke-width:0;stroke:#000"/><path id="path3147-5" d="m276.00119 427.26956c-.17346-.002-6.79463-.17613-7.73938-.63887l3.10995-16.04832s4.53947.42475 4.54822.39464c-.1896.57539.11834 16.1934.0812 16.29255z" style="display:inline;fill-opacity:1;fill:#0b280b;opacity:1;stroke-dasharray:none;stroke-linecap:butt;stroke-linejoin:miter;stroke-miterlimit:4;stroke-opacity:1;stroke-width:0;stroke:#000"/><path id="path3149-7" d="m302.65744 426.67581c-.17346-.002-6.82588.98012-7.77063.51738l.56403-16.43155s4.77863-.35585 4.78738-.38596c-.1896.57539 2.45635 16.20098 2.41922 16.30013z" style="display:inline;fill-opacity:1;fill:#0b280b;opacity:1;stroke-dasharray:none;stroke-linecap:butt;stroke-linejoin:miter;stroke-miterlimit:4;stroke-opacity:1;stroke-width:0;stroke:#000"/><path id="path3151-5" d="m326.12783 423.02113c-.17346-.002-4.38118 1.48245-5.32593 1.01971l-2.31981-16.68545s2.90363-.4496 2.91238-.47971c-.1896.57539 4.77049 16.0463 4.73336 16.14545z" style="display:inline;fill-opacity:1;fill:#0b280b;opacity:1;stroke-dasharray:none;stroke-linecap:butt;stroke-linejoin:miter;stroke-miterlimit:4;stroke-opacity:1;stroke-width:0;stroke:#000"/><path id="path3155-4" d="m222.34662 453.61905c-.17346-.002-7.60735-2.11937-8.5521-2.58211l6.32161-15.33022s6.28514 1.81687 6.64744 1.83095c-.1896.57539-4.37982 15.98223-4.41695 16.08138z" style="display:inline;fill-opacity:1;fill:#0b280b;opacity:1;stroke-dasharray:none;stroke-linecap:butt;stroke-linejoin:miter;stroke-miterlimit:4;stroke-opacity:1;stroke-width:0;stroke:#000"/><path id="path3157-0" d="m245.93869 458.17581c-.17346-.002-9.76338-1.33238-10.70813-1.79512l4.40778-15.8378s8.24738 1.64415 8.25613 1.61404c-.1896.57539-1.91865 15.91973-1.95578 16.01888z" style="display:inline;fill-opacity:1;fill:#0b280b;opacity:1;stroke-dasharray:none;stroke-linecap:butt;stroke-linejoin:miter;stroke-miterlimit:4;stroke-opacity:1;stroke-width:0;stroke:#000"/><path id="path3159-3" d="m241.3254 493.12165c-.17346-.002-13.13163-2.6055-14.51832-3.73116l3.49319-14.22536s13.13523 3.45205 13.14398 3.42194c-.1896.57539-2.08172 14.43543-2.11885 14.53458z" style="display:inline;fill-opacity:1;fill:#0b280b;opacity:1;stroke-dasharray:none;stroke-linecap:butt;stroke-linejoin:miter;stroke-miterlimit:4;stroke-opacity:1;stroke-width:0;stroke:#000"/><path id="path3161-6" d="m214.34494 484.80081c-.17346-.002-9.98213-4.67613-11.05188-5.70137l4.84528-13.86905s9.62238 5.14415 9.63113 5.11404c-.1896.57539-3.3874 14.35723-3.42453 14.45638z" style="display:inline;fill-opacity:1;fill:#0b280b;opacity:1;stroke-dasharray:none;stroke-linecap:butt;stroke-linejoin:miter;stroke-miterlimit:4;stroke-opacity:1;stroke-width:0;stroke:#000"/><path id="path3163-5" d="m275.29767 497.03066c-.17346-.002-11.23128.002-18.49579-1.52145l1.99058-14.26956s16.80335 1.37493 17.25404 1.34482c-.1896.57539-.7117 14.34704-.74883 14.44619z" style="display:inline;fill-opacity:1;fill:#0b280b;opacity:1;stroke-dasharray:none;stroke-linecap:butt;stroke-linejoin:miter;stroke-miterlimit:4;stroke-opacity:1;stroke-width:0;stroke:#000"/><path id="path3165-8" d="m313.99352 496.27936c-.17346-.002-11.27547 1.54875-20.26356.99762l-.0865-14.84408s17.81982-1.09995 18.40309-1.08587c-.1896.57539 1.98415 14.83318 1.94702 14.93233z" style="display:inline;fill-opacity:1;fill:#0b280b;opacity:1;stroke-dasharray:none;stroke-linecap:butt;stroke-linejoin:miter;stroke-miterlimit:4;stroke-opacity:1;stroke-width:0;stroke:#000"/><path id="path3167-4" d="m352.95062 490.80189c-.17346-.002-18.6117 3.71426-19.55645 3.25152l-3.26852-14.88828s17.37787-3.0003 17.38662-3.03041c-.1896.57539 5.47548 14.56802 5.43835 14.66717z" style="display:inline;fill-opacity:1;fill:#0b280b;opacity:1;stroke-dasharray:none;stroke-linecap:butt;stroke-linejoin:miter;stroke-miterlimit:4;stroke-opacity:1;stroke-width:0;stroke:#000"/><path id="path3169-8" d="m384.80548 481.4167c-.17346-.002-12.95485 5.21686-13.8996 4.75412l-6.45051-13.87181s12.16296-3.13288 12.17171-3.16299c-.1896.57539 8.21553 12.18153 8.1784 12.28068z" style="display:inline;fill-opacity:1;fill:#0b280b;opacity:1;stroke-dasharray:none;stroke-linecap:butt;stroke-linejoin:miter;stroke-miterlimit:4;stroke-opacity:1;stroke-width:0;stroke:#000"/><path id="path3171-0" d="m366.38881 451.33932c-.17346-.002-9.45754 2.45704-9.6068 2.55778l-5.39367-14.19796s7.84113-1.5746 8.00613-1.82346c-.1896.57539 7.03147 13.36449 6.99434 13.46364z" style="display:inline;fill-opacity:1;fill:#0b280b;opacity:1;stroke-dasharray:none;stroke-linecap:butt;stroke-linejoin:miter;stroke-miterlimit:4;stroke-opacity:1;stroke-width:0;stroke:#000"/><path id="path3173-2" d="m339.81369 457.42581c-.17346-.002-12.20088 2.32387-13.14563 1.86113l-2.65472-14.93155s9.80988-1.29335 9.81863-1.32346c-.1896.57539 6.01885 14.29473 5.98172 14.39388z" style="display:inline;fill-opacity:1;fill:#0b280b;opacity:1;stroke-dasharray:none;stroke-linecap:butt;stroke-linejoin:miter;stroke-miterlimit:4;stroke-opacity:1;stroke-width:0;stroke:#000"/><path id="path3175-5" d="m308.68416 460.95484c-.17346-.002-13.79454.88583-14.73929.42309l.44379-15.50699s11.58843-.17188 11.59718-.20199c-.1896.57539 2.73545 15.18674 2.69832 15.28589z" style="display:inline;fill-opacity:1;fill:#0b280b;opacity:1;stroke-dasharray:none;stroke-linecap:butt;stroke-linejoin:miter;stroke-miterlimit:4;stroke-opacity:1;stroke-width:0;stroke:#000"/><path id="path3177-8" d="m276.51214 461.13162c-.17346-.002-13.3526-.70516-14.29735-1.1679l2.78608-15.4628s10.57197.7562 11.33202.81448c-.1896.57539.21638 15.71707.17925 15.81622z" style="display:inline;fill-opacity:1;fill:#0b280b;opacity:1;stroke-dasharray:none;stroke-linecap:butt;stroke-linejoin:miter;stroke-miterlimit:4;stroke-opacity:1;stroke-width:0;stroke:#000"/><path style="display:inline;fill-opacity:1;fill:#000;opacity:1;stroke-dasharray:none;stroke-linecap:butt;stroke-linejoin:miter;stroke-miterlimit:4;stroke-opacity:1;stroke-width:0;stroke:#000" d="m291.5592 206.29028c-.007-.15238 4.20976-11.80323 4.27665-11.99796.0.0-6.84041-2.15063-6.98267-1.95613-.86438 1.18176-2.48505 4.21861-3.88833 5.92157.099.227 6.59435 8.03252 6.59435 8.03252z" id="path2246-4-41-0-9-4-9-2-8-6-8-4-1-4-1-6-7"/><path style="display:inline;fill-opacity:1;fill:#c8c8c8;opacity:1;stroke-dasharray:none;stroke-linecap:butt;stroke-linejoin:miter;stroke-miterlimit:4;stroke-opacity:1;stroke-width:0;stroke:#000" d="m291.33521 205.88693c-.007-.14941 4.05548-11.59292 4.12046-11.78386.0.0-6.70562-2.1112-6.84382-1.92049-.83967 1.15876-2.41401 4.13649-3.77718 5.8063.0962.22258 6.50054 7.89805 6.50054 7.89805z" id="path2246-4-41-0-9-4-9-2-8-6-8-4-7-2-7-4"/><path style="display:inline;fill-opacity:1;fill:#000;opacity:1;stroke-dasharray:none;stroke-linecap:butt;stroke-linejoin:miter;stroke-miterlimit:4;stroke-opacity:1;stroke-width:0;stroke:#000" d="m301.91631 206.61548c.007-.15238-3.55795-12.34742-3.62484-12.54215.0.0 17.37271-2.7418 17.4996-2.53694.77063 1.24426 1.90692 5.43736 2.34145 6.10907-.099.227-16.21621 8.97002-16.21621 8.97002z" id="path2246-4-41-0-9-4-9-2-8-6-8-4-2-7-4-5-3-6"/><path style="display:inline;fill-opacity:1;fill:#c8c8c8;opacity:1;stroke-dasharray:none;stroke-linecap:butt;stroke-linejoin:miter;stroke-miterlimit:4;stroke-opacity:1;stroke-width:0;stroke:#000" d="m301.8859 206.18088c.007-.14856-3.06366-12.02774-3.12956-12.21759.0.0 16.39131-2.72036 16.51237-2.518.72664 1.21464 1.868 5.30264 2.29613 5.95751-.0975.22131-15.67894 8.77808-15.67894 8.77808z" id="path2246-4-41-0-9-4-9-2-8-6-8-4-2-9-5-3-5"/><path id="path3280-7-2-6-6-6-5-6" class="shadow" d="m329.87921 425.71197c-15.4791 1.19068-42.03653 26.26041-44.60913 30.99635 10.29989-9.14088 29.75951-26.28541 44.60913-30.99635z"/><path id="path3282-5-4-0-8-6-46-4" class="shadow" d="m262.13712 457.56026c-6.81704-9.41592-28.83006-31.99347-34.93819-34.15183 5.05404 5.44075 26.5203 25.35081 34.93819 34.15183z"/><path style="display:inline;fill-opacity:1;fill:#214478;opacity:1;stroke-dasharray:none;stroke-linecap:butt;stroke-linejoin:miter;stroke-miterlimit:4;stroke-opacity:1;stroke-width:0;stroke:#000" d="m370.41119 272.85948c-23.06236-5.36348-36.02143-66.58631-36.08733-66.77616.0.0 1.9906 1.00368 2.18424 1.13825 1.9123 1.32892 15.3056 50.49058 34.64884 61.75205-.0975.22131-.74575 3.88586-.74575 3.88586z" id="path2246-4-41-0-9-4-9-2-8-6-8-4-2-9-5-3-6-9"/><path style="display:inline;fill-opacity:1;fill:#214478;opacity:1;stroke-dasharray:none;stroke-linecap:butt;stroke-linejoin:miter;stroke-miterlimit:4;stroke-opacity:1;stroke-width:0;stroke:#000" d="m237.32534 251.86985c11.09862-9.58054 41.65694-48.71031 41.59104-48.90016.0.0 4.29427-1.51769 4.47852-1.37053 1.58085 1.26263-28.67466 39.76054-47.10506 56.29108-.0975.22131 1.0355-6.02039 1.0355-6.02039z" id="path2246-4-41-0-9-4-9-2-8-6-8-4-2-9-5-3-6-2-8"/><path style="display:inline;fill-opacity:1;fill:#214478;opacity:1;stroke-dasharray:none;stroke-linecap:butt;stroke-linejoin:miter;stroke-miterlimit:4;stroke-opacity:1;stroke-width:0;stroke:#000" d="m225.5356 393.41152c43.61544 16.95575 136.81799 7.676 136.75209 7.48615.0.0.6026 4.48949.45417 4.67272-6.66137 8.22321-120.37539 8.77032-137.10604-6.48239-.51056-.0541-.38958-5.86939-.10022-5.67648z" id="path2246-4-41-0-9-4-9-2-8-6-8-4-2-9-5-3-6-2-4-5"/><path style="display:inline;fill-opacity:1;fill:#c8c8c8;opacity:1;stroke-dasharray:none;stroke-linecap:butt;stroke-linejoin:miter;stroke-miterlimit:4;stroke-opacity:1;stroke-width:0;stroke:#000" d="m225.47063 399.18683c43.61544 16.95575 137.23042 6.77283 137.16452 6.58298.0.0-.6929 9.89849-.84133 10.08172-6.66137 8.22321-119.19054 11.9209-135.92119-3.33181-.2225-.52869-.402-13.33289-.402-13.33289z" id="path2246-4-41-0-9-4-9-2-8-6-8-4-2-9-5-3-6-2-4-5-0"/></svg>