<svg viewBox="0 0 560 1e3"><path id="path2965" d="m368.45236 268.83602c.40069 1.40387.82871 12.89967-6.36035 37.77919-5.42713 18.7819-14.38164 31.75089-14.97802 33.20897-6.5045 10.167-4.21448 45.05639-2.81172 52.13017.0.0-46.94163 23.11632-58.45085 51.45369-2.06147 4.01155-2.1084 11.81811-3.46792 16.10443-.27859.87834-1.00697 6.35332-3.50565 8.26757-.26944.20641-1.13656 1.14752-4.58251.28177-.17413-.0437-1.37345.71664-3.61847.0361-5.83439-1.76869-6.66978-8.86034-6.76649-9.28816-1.98539-8.78313-6.24957-28.02971-9.43291-34.24779-14.19124-27.72004-21.20533-26.69883-22.51317-29.03516 7.88498-17.78649 6.07317-55.02367 10.9764-77.23211-.10903-.84586-4.49638-9.26823-6.27873-25.69468.40962-35.13389 30.30326-40.0847 52.38713-59.43686.97617-2.02088 1.99435-19.89689-11.91588-27.17637-.63873-.33426 5.18596-2.87541 9.71049-5.27775 3.28532 4.0435 9.77633 12.09193 11.24885 12.16253 1.27588.0612 16.09326-10.90523 20.01292-14.30181 1.50252 1.12706 9.10193 4.89722 7.88644 5.69617-25.72677 16.91039-30.9022 28.84774-29.45936 29.06832 3.13994 1.52155 66.54554 33.43249 67.65165 34.25705z" style="display:inline;fill-opacity:1;fill-rule:evenodd;fill:#000;opacity:1;stroke-dasharray:none;stroke-linecap:butt;stroke-linejoin:miter;stroke-miterlimit:4;stroke-opacity:1;stroke-width:0;stroke:#000"/><path id="path2967" d="m368.47602 268.56519c-.47811 3.70196-1.71839 20.80284-7.95729 39.14162-6.28969 18.48806-13.44374 28.43697-15.0664 32.92756-1.49967 4.15024-4.23654 10.9826-3.98518 21.38732.2199 9.10274 8.90272 44.90174 10.857 49.2582-40.10653 11.44456-68.88315 44.77912-69.65482 47.11689-.78385 1.88787-2.10386 7.06063-4.60076 8.84104-1.21712.86786-3.67455-.009-3.92649-.0331-.29397-.0276-.96836.96577-3.15959.31564-4.34231-1.28834-5.1677-4.97917-6.64606-7.92987-3.42483-1.93016-36.06734-44.42375-40.79275-45.6127 6.35688-20.66495 15.87989-46.37408 16.09284-51.57013.81644-19.92146 3.469-42.18238 3.6321-45.0569.21641-3.81403-3.76895-10.18612-4.65798-22.72348-3.37265-53.10898 21.71552-84.35843 38.32548-88.64617.49229-.51848 5.43756-2.25669 9.91452-4.65903 3.23382 4.0224 9.94563 11.8822 11.01669 11.89566 1.60851.0202 16.02686-10.62859 19.91647-14.03494 1.48672 1.12706 18.23182 6.38046 18.7637 7.72282 24.59696.63038 30.73363 23.56895 32.6646 29.12473 2.95065 8.88251-1.42612 32.31242-.73608 32.53484z" style="display:inline;fill-opacity:1;fill-rule:evenodd;fill:teal;opacity:1;stroke-dasharray:none;stroke-linecap:butt;stroke-linejoin:miter;stroke-miterlimit:4;stroke-opacity:1;stroke-width:0;stroke:#000"/><path id="path2985-7-6-6-2" class="shadow" d="m350.4258 405.5083c-13.64358-3.69118-122.4312-5.3061-125.15053 2.17939 6.82038-.39611 123.88737-.0953 125.15053-2.17939z"/><path style="display:inline;fill-opacity:1;fill:teal;stroke-dasharray:none;stroke-linecap:butt;stroke-linejoin:miter;stroke-miterlimit:4;stroke-opacity:1;stroke-width:0;stroke:#000" d="m225.54255 407.08606c2.57926-2.60371 27.81901-2.03821 123.1567-1.9121-15.72738-23.54066-34.70088-21.92387-52.1217-32.34034-67.74212 4.43169-66.66961 28.56296-71.035 34.25244z" id="path3016-2-0"/></svg>