<svg viewBox="0 0 560 1e3"><path class="underarm_hair" id="path6194" d="m365.80063 265.90556c.21643-.47602.42201-.95753.61698-1.44305.13944-.34737 1.29001.72587 1.41873.37492.12775-.34825-.76626-2.12067-.64894-2.47139.24475-.73171 1.60817.99104 1.6802.56351.0876-.5201-.74311-3.79189-.62403-4.30255.14751-.63246 1.46085.80201 1.57759.17832.0843-.4506-1.00758-2.96102-.9519-3.40544.14554-1.16012 1.21693-.007 1.3373-.32654.12595-.33394-1.10329-3.54797-1.0892-3.88503.0313-.7458 1.24409.94746 1.24441.2533 17e-5-.38787-1.20051-3.18475-1.21153-3.55106-.0298-.98904 1.69618.47831 1.57005-.30114-.1243-.76815-2.09908-3.78666-2.33797-4.27738-.92287-.67191-3.07849-2.06127-3.5098-2.00489-.30891.0403-2.41499 1.24997-3.74587 1.72581.0878 1.02464-2.78352 3.897-2.628 5.02742.0789.57266 3.16243-.62603 3.25521-.0365.0879.55841-2.44768 3.61654-2.34926 4.18404.10751.6202 2.85005-1.24961 2.96777-.62588.1294.6855-1.71073 3.69234-1.57229 4.37238.13023.63951 2.23848-1.04717 2.37374-.42124.13879.64234-1.06337 2.71413-.92218 3.33311.10422.45703 1.55169-.53241 1.65577-.0925.14933.63108-.74769 2.96268-.60169 3.54944.14999.60274 1.34259-.54073 1.4851.004.0999.38146-.55386 2.09107-.45928 2.43893.1029.37843.95361-.60815 1.0486-.27449.15262.53626.29405 1.01128.42046 1.41425z"/></svg>