<svg viewBox="0 0 560 1e3"><path d="m344.6 105.2c6.21057 34.20274 8.00561 51.42944 8.62641 76.65843-.57711-5.43301-3.04783-8.45212-4.64239-12.57113.91426 9.42398 2.93574 16.31068 1.8795 25.70878-1.63722-5.11153-4.37326-8.51881-5.76609-11.14984.0176 9.26205 1.86521 13.7161 1.38694 22.96725-.016 1.3036-4.36211-5.05788-4.57191-4.55274-.0898 1.45635-.13608 14.8374-2.83085 20.22826-.95301-2.62002-4.32815-12.41402-5.68706-13.58447l-2.92628 23.64327s-2.26213-11.62997-2.36423-11.37238c-45.47035-34.84512-44.5371-42.19277-62.75418-72.56869-.18079-.46953-10.47434-37.85837-4.59107-48.11414C272.52904 79.277309 290.08628 64.356912 308.8 68.4c33.3 7.2 33.3 19.5 35.8 36.8" class="hair" id="path1782"/><path d="m263.65037 183.58538c.69102-5.43301 3.64942-8.45212 5.55872-12.57113-1.09472 9.42398-3.51521 16.31068-2.25048 25.70878 1.96038-5.11153 5.23647-8.51881 6.90422-11.14984-.0211 9.26205-2.23337 13.7161-1.6607 22.96725.0192 1.3036 5.22312-5.05788 5.47433-4.55274.10753 1.45635.16294 14.8374 3.38962 20.22826 1.14111-2.62002 5.18245-12.41402 6.80959-13.58447l3.50388 23.64327s2.70864-11.62997 2.83089-11.37238c14.10484-49.00322-15.90966-115.02687-17.98585-115.60043-9.68153 33.82774-11.83088 51.05444-12.57422 76.28343z" class="hair" id="path1784"/></svg>