<svg viewBox="0 0 560 1e3"><path id="path3254" class="shadow" d="m283.66521 456.38067c-1.54841.73859-1.78928 15.78672-9.24659 11.14886-5.5459 3.1603-10.12915-4.94173-10.42429-8.4126-.25114-2.95343 3.37748-7.20053 3.87403-6.51846 2.14579-.003 16.30971 2.85987 15.79685 3.7822z"/><path id="path3256" class="skin torso" d="m274.36595 467.58332c-3.81452 2.31718-9.64064-2.27902-10.8644-11.68664 5.95334-21.67633 25.49385-8.31185 20.23612.35499-2.87984 4.74713-3.52005 14.37508-9.37172 11.33165z"/><path id="path3258" d="m368.67614 407.53c.8928 1.03783-5.37284 9.27719-5.37284 9.27719-8.19048 4.90102-49.96568 10.20435-62.40067 20.70752-4.31136 3.64157-13.47661 8.29154-16.37051 16.44054-2.5916 7.29773-3.32032 16.98798-9.68774 14.34823-.12708-.0527-.25389-.22936-.38798-.17253-3.64553 1.54503-9.41962-.71855-11.29492-12.24341-2.95293-18.14755-12.84146-17.24873-13.71165-17.80621-12.60056-8.07247-21.82641-18.94187-25.29113-24.2509-2.6282-5.08184-3.01938-9.25626-3.01938-9.25626 30.95157 34.29024 124.21674 9.16181 147.53682 2.95583z" style="display:inline;fill-opacity:1;fill-rule:evenodd;fill:#000;opacity:1;stroke-dasharray:none;stroke-linecap:butt;stroke-linejoin:miter;stroke-miterlimit:4;stroke-opacity:1;stroke-width:0;stroke:#000"/><path id="path3260" d="m367.93194 408.743c.8928 1.03783-4.0572 8.30164-4.0572 8.30164-26.45516 18.17615-63.03106 39.13132-79.66632 39.75358-.27428.37469-.68811.67278-.81935 1.10672-3.57923 11.83428-8.32513 9.8537-8.89431 9.63462-.17013-.0655-5.98956 2.88621-10.50307-7.67418-.19489-.456-.68412-.47689-1.06552-.9139-16.27203-7.95813-36.45881-24.8256-39.15367-45.27808.0593-.70684-3.12543-9.00182-3.12543-9.00182 29.78951 36.10978 125.08979 11.0274 147.28487 4.07142z" style="display:inline;fill-opacity:1;fill-rule:evenodd;fill:#c837ab;opacity:1;stroke-dasharray:none;stroke-linecap:butt;stroke-linejoin:miter;stroke-miterlimit:4;stroke-opacity:1;stroke-width:0;stroke:#000"/><path d="m329.90806 425.67038c-15.4791 1.19068-42.03653 26.26041-44.60913 30.99635 10.29989-9.14088 29.75951-26.28541 44.60913-30.99635z" class="shadow" id="path3262"/><path d="m262.16597 457.51867c-6.81704-9.41592-28.83006-31.99347-34.93819-34.15183 5.05404 5.44075 26.5203 25.35081 34.93819 34.15183z" class="shadow" id="path3264"/><path style="display:inline;fill-opacity:1;fill-rule:evenodd;fill:#fff;opacity:1;stroke-dasharray:none;stroke-linecap:butt;stroke-linejoin:miter;stroke-miterlimit:4;stroke-opacity:1;stroke-width:0;stroke:#000" d="m338.28443 433.89335c.52476-.49047.98857-.70449 2.2213-1.59153-.92815-4.90225-3.59867-14.29854-4.20699-15.53477-.68659.039-1.82436.50498-1.82436.50498 2.5209 7.92543 2.7276 9.48522 3.81005 16.62132z" id="path3266"/><path id="path2288-2-7-3" d="m370.8969 268.8878c2.36849 23.60153 1.75351 51.52091-5.54547 78.55465.0897 2.34411 4.6595 17.11968 7.11537 29.07427-36.77086 9.58655-135.02177 13.96466-153.89353-4.89184 2.433-12.49684 7.69036-32.03475 15.53901-53.11514-2.13048-7.70551 3.57316-12.49737 2.54969-25.90973.40962-35.13389 30.30326-40.0847 52.38713-59.43686.97617-2.02088 2.05999-19.89061-11.85024-27.17009-.63873-.33426 3.66191-3.80977 8.18644-6.21211 9.24713 11.38115 27.34766 3.74775 33.42729-1.52056 1.50252 1.12706 8.39482 5.20658 7.17933 6.00553-25.72677 16.91039-30.9022 28.84774-29.45936 29.06832 3.13994 1.52155 66.54554 33.43249 67.65165 34.25705z" style="display:inline;fill-opacity:1;fill-rule:evenodd;fill:#000;opacity:1;stroke-dasharray:none;stroke-linecap:butt;stroke-linejoin:miter;stroke-miterlimit:4;stroke-opacity:1;stroke-width:0;stroke:#000"/><path id="path2290-3-0-0" d="m364.11286 347.17422c.49582 5.07437 4.52707 17.16139 6.90216 28.43074-31.28229 8.06681-138.10149 14.24686-150.70386-5.06389 1.76466-12.54996 14.32006-47.08252 14.91305-52.03193-3.0755-26.84168-.52105-45.74614 4.01256-70.57209 4.39438-23.68414 15.86738-37.30901 37.69935-41.95594.49229-.51848 3.97915-3.18477 8.45611-5.58711 9.14993 11.38115 27.08296 3.74775 33.09868-1.52056 1.48672 1.12706 17.52471 7.31482 18.05659 8.65718 2.58742.19199 9.57783.93138 12.62329 2.06534 21.32697 11.58453 25.15316 34.74558 21.91064 58.57411 1.82371 35.69041-1.65952 61.28238-6.96857 79.00415z" style="display:inline;fill-opacity:1;fill-rule:evenodd;fill:#c837ab;opacity:1;stroke-dasharray:none;stroke-linecap:butt;stroke-linejoin:miter;stroke-miterlimit:4;stroke-opacity:1;stroke-width:0;stroke:#000"/></svg>