<svg viewBox="0 0 560 1e3"><path d="m305.87891 66.603516c-18.24856-.05881-38.07953 13.465013-42.06641 31.253906-1.66262 5.972928-2.38239 12.667868-2.33789 20.023438.0655.65721-.91013 5.25301-.89063 6.00195.0116.44615 1.0313-2.98051 1.0293-2.50586-.007 1.77104-.10071 3.72847-.22851 5.79688-.0243.39252-1.41902 4.59036-1.44532 4.99023-.0231.3505 1.32293-2.87686 1.29883-2.52148-.24824 3.66194-.53926 7.52486-.60156 11.22461-.0156.92393-1.69679 8.9085-1.67969 9.80664.0182.95728 1.73754-5.17456 1.80274-4.25977.20397 2.86294-.57517 8.93206.29492 11.10352.15841.39534 10.79642 26.98861 10.89062 27.16406-3.24952-14.76402-7.20563-28.22504-8.20703-42.17969-.27607-3.84705 1.4707-11.62109 1.4707-11.62109-.0865-.68545-.44238-13.61341-.44921-13.78516.40007-.10932.81945-.21579 1.27148-.31445.372-.0812.76174.12297 1.16602.0488.34972-.0641.76103-.26966 1.08203-.4668 1.03415-.63512 1.65184-.32953 2.46875-.33594.45205-.004.73603-.90016 1.20507-.94726.45027-.0452 1.11548.848 1.54883.66992.7227-.29699 1.58439-.41808 2.6875-.19922.42114.0836.89118.30651 1.32813.2832.43346-.0231.86347-.28277 1.28125-.42382.52417-.17696 1.19712-4.27523 1.74805-4.28321.54027-.008.95813 4.07234 1.51562 4.16993.39415.069.8165.246 1.21875.23828.40039-.008.80658-.15535 1.1875-.28321.75722-.25416 1.43778-.21112 2.07813-.0176.30934.0935.69299.26513 1.01562.26562.39649 6e-4.75668-.16913 1.14062-.26172 1.05017-.25326 2.09244-.25807 3.1211.0449.20563.0606.4296.18619.64258.19141.22912.006.46813-.0852.68359-.1582.77732-.26341 1.54927-.37143 2.32227.0762.21512.12456.49501.17497.74023.18554.29278.0126.59593-.0294.87109-.11523.48528-.15123 1.31994-5.52107 1.79493-5.48437.40168.031.44414 5.43901.83789 5.63086.3148.15336.71062.35875 1.04882.38281.38338.0273.74744-.16833 1.11133-.22852 1.25549-.20767 2.31858-.0882 3.18555.30664.51311.23371.94448.44354 1.43359.51367.68332.098 1.43469-.11013 1.96094-.002.64234-.0768 2.67369-13.02935 3.13086-12.92969.71463.1558-.24766 13.44767.27344 13.65625.47662.19077.88693.48163 1.28906.57813.53878.12929 1.05507-.0204 1.43945.084 2.06434.56095 2.10384.793 2.11914 1.02735 2.33945 35.84046-7.52202 49.54911-11.6875 66.64648 30.97921-34.17794 27.41446-43.26335 28.3711-44.31641 1.64491-4.07385 2.7973-8.36533 3.55078-12.6582 2.56381-3.32129 4.86099-7.18302 6.2832-11.35156 1.35795-.10877 2.40592-.24851 2.81641-.31836.001-.9285 1.49627 4.34534 1.48047 3.44727-.0148-.83818-1.53992-7.85003-1.57032-8.65821-.15725-4.18546-.52882-7.9459-1.16406-11.04687-1.62029-7.909577-4.3201-14.189843-8.02929-18.707034-5.27966-7.985402-13.25637-13.670675-27.25782-15.236328-1.19735-.127421-2.40647-.191391-3.62304-.195312z" id="path4813" class="hair"/></svg>