<svg viewBox="0 0 560 1e3"><path id="path3467-0-3-0" d="m459.70724 461.34092c.0522-.0727-11.67013-12.46713-14.18875-15.99117-.062-.0868.24319 6.57332.15329 6.51094-9.01424-6.25439-28.60442-20.58459-42.69357-45.80429-26.58589-47.58898-124.58446 9.50551-129.23486 9.50551l-1.59826 8.34375c4.04301.0 103.64605-56.24068 127.88538-15.52466 16.93272 28.44274 34.94681 42.19845 44.15888 46.72213.0889.0437-4.76008 4.66602-4.66353 4.6586 2.83781-.21792 20.00457 1.82539 20.18142 1.57919z" style="display:inline;fill:#000;stroke-width:1.79057908"/><path id="path3467-0-2" d="m457.35373 460.21424c.0522-.0727-10.45479-10.76565-11.82436-14.86422-.0338-.10119-2.1212 5.44637-2.2111 5.38399-9.01424-6.25439-28.60442-20.58459-42.69357-45.80429-26.58589-47.58898-124.58446 9.50551-129.23486 9.50551l-1.59826 8.34375c4.04301.0 103.64605-56.24068 127.88538-15.52466 16.93272 28.44274 34.94681 42.19845 44.15888 46.72213.0889.0437-2.40768 5.85129-2.32124 5.80765 2.97039-1.49955 17.66228.67634 17.83913.43014z" style="display:inline;fill:maroon;stroke-width:1.79057908"/><path style="display:inline;fill-opacity:1;fill-rule:evenodd;fill:#000;stroke-dasharray:none;stroke-linecap:butt;stroke-linejoin:miter;stroke-miterlimit:4;stroke-opacity:0;stroke-width:2.97377706;stroke:#000" d="m331.46144 378.14692c58.32588 59.64207 48.9267 81.33778 48.80306 87.14477-.0347 1.63031.0352 2.57669.14772 2.8459-2.42764.69709-14.21263 6.03557-14.83067 6.36918-30.45656-19.29465-34.12011-96.35985-34.12011-96.35985z" id="path3779"/><path style="display:inline;fill-opacity:1;fill-rule:evenodd;fill:maroon;stroke-dasharray:none;stroke-linecap:butt;stroke-linejoin:miter;stroke-miterlimit:4;stroke-opacity:0;stroke-width:2.97377706;stroke:#000" d="m332.13237 381.3923c54.58917 54.26145 48.03222 82.68041 48.11055 84.03832-2.42764.69709-12.57201 4.95836-13.19005 5.29197-30.45656-19.29465-34.9205-89.33029-34.9205-89.33029z" id="path3781"/><path style="display:inline;fill-opacity:1;fill-rule:evenodd;fill:#000;stroke-dasharray:none;stroke-linecap:butt;stroke-linejoin:miter;stroke-miterlimit:4;stroke-opacity:0;stroke-width:2.97439027;stroke:#000" d="m351.5991 402.2007c.0688.41134.47209-.12525.58749.88529-.96829.15367-4.4133 1.40713-4.58255 1.41482-.30453-.57217-.50525-.4814-.54378-1.0685.73033-.2578 4.36951-1.22432 4.53884-1.23161z" id="path3773-3-5"/></svg>