<svg viewBox="0 0 560 1e3"><path d="m310.07728 121.93067c-2.34062-.81869-3.95967-1.04693-6.47367-.91262-5.49897.29379-8.41111.50725-9.4054.68942-1.16863-.14201-2.90307 1.57734-3.11519 1.21395.2259-1.14253.33475-1.72067.96505-2.94008.0383.12179.0713.62924.18807.56432.12267-.0682.18093-.93167.64685-1.72807.17072.20443.1414.86607.24147.78006.10278-.0883.0993-.87512.82055-1.78988.15251.66077-.1696 1.57832-.003 1.30878.54928-.89587.68454-1.22002 1.54272-1.55598.74554-.52605 7.46206-.8122 10.68247-.089.768.17247 1.89904.40564 2.51344.51816 1.26363.23144 2.83286.73738 2.9205.9416.0322.0747 5.25036 3.29938 7.03531 7.24614-.49283.18774-7.68912-3.94233-8.55952-4.24676zm-38.83404-3.05319c.93232.11388 1.5093.49409 1.78817.68907.41141.28766.11507-.38264.11288-.78491.32751-.13826.92797.89484 1.21478 1.37054.21453.3558.0157-1.28397.22486-.875.19435.37995.55858 1.65232.73062 2.03444.1587.35252-.0271-.85594.15952-.57529.92128 1.3855.71568 3.22152.79786 3.50296-.13777.23686-.98361-1.20402-2.72096-.98573-2.54577.30089-5.42281.61757-7.71494 2.00157-.27089.22541-.61654.40983-.76811.40983-.23547.0-.23119-.0716.0294-.49238.3451-.55712.28605-.58512-.55531-.26328-5.23285 1.26962-5.08353 3.8939-4.73965-.72129 3.59257-2.92649 6.84977-4.59498 11.44088-5.31053z" id="path7289" class="eyebrow_hair"/></svg>