<svg viewBox="0 0 560 1e3"><g data-transform="belly" id="g6085" transform="matrix(1.014792,0,0,1.0059302,-4.1476732,-2.5734225)"><path id="path6081" class="shadow" d="m339.27524 380.99726c.26468-3.31639-67e-5-8.77174-.2179-12.11663C336.55298 330.31708 303.60773 291.48675 276.8 289.9c-36.89069 5.7038-63.19743 37.75765-68.00849 84.8749 8.47831 3.12433 23.76563 4.99434 40.97089 6.06148.0818.005.16908.0453.24545.0152.2409-.0951 2.58048-3.57749 2.95741-3.50814.35708.0657 3.1351 3.77632 3.51103 3.86538.0998.0236.20478.0101.30724.0151 37.10931 1.8094 79.80576.33093 82.49171-.22658z"/><path style="fill-opacity:1;fill:#fff" id="path6083" d="M339.29607 381.00482C342.49399 350.66918 315.20717 306.00841 290.7 289.7c-6.5-4.3-38.7-8.2-40.4.0-2.43273 10.85373-39.62171 30.54973-41.5296 85.05506 1.11422-.0729 8.6519 3.14413 40.87011 5.09832.0625.004.14571.0584.18784.0114.0536-.0598 2.92478-3.71635 3.13738-3.60077.14042.0763 3.40186 4.00246 3.5421 3.96648.11003-.0282.22706.0112.34098.0168 19.13385.93692 45.68704 1.42116 82.44726.75759z"/><path style="display:inline;fill-opacity:1;fill:#000;opacity:1;stroke-dasharray:none;stroke-linecap:butt;stroke-linejoin:miter;stroke-miterlimit:4;stroke-opacity:1;stroke-width:0;stroke:#000" d="m252.09529 376.99991c-1.19336-14.58661-.89156-43.08826 31.51121-90.70231.0.0.98281.0388.98573.0215-31.36237 48.89281-32.62589 76.08623-31.22501 90.5697z" id="path5080-2"/><path style="display:inline;fill-opacity:1;fill:maroon;opacity:1;stroke-dasharray:none;stroke-linecap:butt;stroke-linejoin:miter;stroke-miterlimit:4;stroke-opacity:1;stroke-width:0;stroke:#000" d="m251.93195 376.64502c-1.19336-14.58661-1.57324-44.62166 31.18308-90.46794.0.0.97176.12719.97468.10989-32.51142 49.59991-32.47421 75.79472-31.07333 90.27819z" id="path5086-8"/></g></svg>