<svg viewBox="0 0 560 1e3"><path style="fill-opacity:1;fill:#222a12" d="M281.8 204.7C260 208.1 230.03529 168.97647 207.73529 155.67647 235.83529 143.87647 229 138.3 275.7 106.8c0 0 42 18 43.4 2.2 3.5-39.9-31.1-22.5-48.4-9.9-14.8 1.2-92.9 44.3-88.9 57.8 6.1 20.6 48.4 58 75.4 76 8.9 4.4 28.5-13.6 24.6-28.2" id="path3497"/><path style="display:inline;fill-opacity:1;fill:#666;stroke-dasharray:none;stroke-linecap:butt;stroke-linejoin:miter;stroke-miterlimit:4;stroke-opacity:1;stroke-width:0;stroke:#000" d="m263.05449 224.21467c-6.15018-7.61421-17.23749-24.33497-16.24665-36.58437 1.10964.0781 3.02413 2.58257 3.48424 2.8723-1.05024 9.6632 13.42301 28.86656 14.44766 32.21335z" id="path3499"/><path style="display:inline;fill-opacity:1;fill:#666;stroke-dasharray:none;stroke-linecap:butt;stroke-linejoin:miter;stroke-miterlimit:4;stroke-opacity:1;stroke-width:0;stroke:#000" d="m181.67496 154.01973c8.93846-.77801 18.17169-2.3752 27.70324.9799-.42983.62743.0162 1.68037-.61077 1.55841-8.46537-2.10121-18.84232-1.3957-27.14174.52555-.28709-.93765-.20739-1.97637.0492-3.06386z" id="path3501"/><path style="display:inline;fill-opacity:1;fill:#666;stroke-dasharray:none;stroke-linecap:butt;stroke-linejoin:miter;stroke-miterlimit:4;stroke-opacity:1;stroke-width:0;stroke:#000" d="m241.4134 133.17088c-10.02529-3.8032-23.4234 5.40539-41.31929 20.54557-.76125 1.08741-.01 1.09501.45589 1.50695 28.01011-25.32407 36.63117-20.91628 39.26843-20.87289z" id="path3503"/><path style="display:inline;fill-opacity:1;fill:#666;stroke-dasharray:none;stroke-linecap:butt;stroke-linejoin:miter;stroke-miterlimit:4;stroke-opacity:1;stroke-width:0;stroke:#000" d="m187.34449 154.57742c24.62377-18.79183 37.01295-30.40414 84.87561-53.20604.45959.33829.37154.74203.49732 1.32101-48.06797 22.1066-82.30748 51.33544-83.1034 52.49546z" id="path3505"/><path style="display:inline;fill-opacity:1;fill:#666;stroke-dasharray:none;stroke-linecap:butt;stroke-linejoin:miter;stroke-miterlimit:4;stroke-opacity:1;stroke-width:0;stroke:#000" d="m198.55403 155.16595c8.12113 17.01318 28.13677 33.77252 55.4471 53.51997 1.60523.4644.91807-.87826.83002-2.04389-45.96538-30.67724-54.94672-50.8872-55.27451-52.12224z" id="path3507"/><path style="display:inline;fill-opacity:1;fill:#666;stroke-dasharray:none;stroke-linecap:butt;stroke-linejoin:miter;stroke-miterlimit:4;stroke-opacity:1;stroke-width:0;stroke:#000" d="m274.56681 107.27717c-1.64756-3.1202-3.71813-6.31698-3.53076-9.783036.35336.130471.77839-.06142.81193.163275.24178 3.049191 2.06262 6.678101 4.14941 9.535461-.39433.13215-.8884.13856-1.43058.0843z" id="path3509"/></svg>