<svg viewBox="0 0 560 1e3"><path id="path9370" d="m324.75826 91.37182s4.64722-63.236639-8.44878-79.78968c-20.01738 21.884832-44.96204 60.28523-46.144 79.810151 7.36243 5.785249 53.03916 9.053469 54.59278-.02047z" style="display:inline;fill-opacity:1;fill-rule:evenodd;fill:#c8c8c8;opacity:1;stroke-dasharray:none;stroke-linecap:butt;stroke-linejoin:miter;stroke-miterlimit:4;stroke-opacity:0;stroke-width:5.24036551;stroke:#000"/><path id="path9370-8" d="m326.46012 87.287353s-.26925-61.937035-9.96154-74.219946c-7.72621 6.103918-44.39476 56.572074-45.57672 76.096995 7.36243 5.785248 53.98465 7.196888 55.53826-1.877049z" style="display:inline;fill-opacity:1;fill-rule:evenodd;fill:#214478;opacity:1;stroke-dasharray:none;stroke-linecap:butt;stroke-linejoin:miter;stroke-miterlimit:4;stroke-opacity:0;stroke-width:5.24036551;stroke:#000"/><ellipse style="display:inline;fill-opacity:1;fill-rule:evenodd;fill:#c8c8c8;opacity:1;stroke-dasharray:none;stroke-dashoffset:0;stroke-linecap:butt;stroke-linejoin:miter;stroke-miterlimit:4;stroke-opacity:1;stroke-width:0;stroke:#212f3d;vector-effect:none" id="path9445" cx="295.47134" cy="65.994064" rx="5.8619409" ry="5.430491"/><path id="path9364" class="hair" d="m262.58376 114.0127c.21917.48832 2.31612-1.93226 2.3643-2.07079 4.38729-4.75506 7.35197-5.82228 14.85013-7.3946.3433-.0174 6.24163 2.75103 6.59145 2.74513.23633 10.87737 10.65884 25.40386 24.35438 36.03372.20017.15536.27566-.16525-.0946-.63887-12.5916-16.10666-14.21229-25.03317-12.64832-23.99524 13.20185 14.1305 15.33012 26.00498 32.60237 36.07754.14864-.0141-9.04274-21.81414-5.51856-21.65624 2.11658 2.52119 5.15116-.95931 6.99189 1.46055 32.13954-56.274313-78.35232-60.270711-69.49304-20.56119z"/><path id="path9368-3" d="m287.64153 105.53963c-5.53712-.11481-15.53443.5474-25.38128-.008.17198-4.23541-7.98175-33.476955-7.02811-39.535273 5.45285-2.183187 16.80235-4.478816 31.26174-2.60825 3.5598.460521 2.98721 21.841995 5.86253 21.9751 3.38066.156498 8.23701-21.07215 12.85589-21.105548 17.13307-.852043 35.8704 2.167535 49.23208 7.747025-1.85394 31.362496-12.04052 27.996156-17.16558 38.737486-15.24022-2.56556-28.71159-5.83999-49.63727-5.20209z" style="display:inline;fill-opacity:1;fill-rule:evenodd;fill:#c8c8c8;opacity:1;stroke-dasharray:none;stroke-linecap:butt;stroke-linejoin:miter;stroke-miterlimit:4;stroke-opacity:0;stroke-width:2.63688636;stroke:#000"/><path id="path9376" d="m253.02762 190.21725s4.84536-33.28093 9.30266-87.07327c.0351-.43488 2.46377-1.31047 2.66591-1.20653-1.73035 29.79487-5.97463 75.95476-9.68233 91.48039-.0494.20773-2.24181-3.11279-2.28624-3.20059z" style="display:inline;fill-opacity:1;fill-rule:evenodd;fill:#c8c8c8;opacity:1;stroke-dasharray:none;stroke-linecap:butt;stroke-linejoin:miter;stroke-miterlimit:4;stroke-opacity:0;stroke-width:2.14614916;stroke:#000"/><path id="path9376-4" d="m332.83056 195.67185s-5.5969-34.89142-10.74555-91.28683c-.0407-.4559-2.84589-1.37388-3.07938-1.26492 1.99873 31.23669 6.90131 79.63028 11.18408 95.90722.0571.21778 2.58954-3.26343 2.64085-3.35547z" style="display:inline;fill-opacity:1;fill-rule:evenodd;fill:#c8c8c8;opacity:1;stroke-dasharray:none;stroke-linecap:butt;stroke-linejoin:miter;stroke-miterlimit:4;stroke-opacity:0;stroke-width:2.36173964;stroke:#000"/><path id="path9368" d="m287.63633 104.61732c-5.53878-.11235-15.54027.5463-25.39009.002.0582-1.40168-4.18486-6.04627-4.78465-11.147424-1.17367-9.981749-2.87575-23.626123-2.24444-27.549347 5.45449-2.136292 17.54312-2.484343 30.7039-1.902422 2.7796.122903 3.16567 23.178762 6.04186 23.309008 3.38169.153136 10.11663-22.154 13.53316-21.99399 9.48363-1.536364 32.12173 1.51653 48.96331 6.466669-2.03118 30.132336-12.04203 27.394796-17.16864 37.905396-15.24482-2.51046-28.72241-5.71455-49.65441-5.09036z" style="display:inline;fill-opacity:1;fill-rule:evenodd;fill:#214478;opacity:1;stroke-dasharray:none;stroke-linecap:butt;stroke-linejoin:miter;stroke-miterlimit:4;stroke-opacity:0;stroke-width:2.60880613;stroke:#000"/><path id="path9376-5" d="m253.64217 190.97077s4.79908-34.37758 9.25638-88.16992c.0351-.43488 1.52779-.52279 1.72993-.41885-1.73035 29.79487-5.9851 74.8713-9.6928 90.39694-.0494.20772-1.24908-1.72037-1.29351-1.80817z" style="display:inline;fill-opacity:1;fill-rule:evenodd;fill:#214478;opacity:1;stroke-dasharray:none;stroke-linecap:butt;stroke-linejoin:miter;stroke-miterlimit:4;stroke-opacity:0;stroke-width:2.14614916;stroke:#000"/><path id="path9376-4-0" d="m332.19544 195.37647s-5.62361-35.38509-10.77227-91.7805c-.0406-.4559-1.3804-.81691-1.61389-.70794 1.99873 31.23669 6.46536 78.68083 10.74813 94.95777.0571.21778 1.58671-2.37729 1.63803-2.46933z" style="display:inline;fill-opacity:1;fill-rule:evenodd;fill:#214478;opacity:1;stroke-dasharray:none;stroke-linecap:butt;stroke-linejoin:miter;stroke-miterlimit:4;stroke-opacity:0;stroke-width:2.36173964;stroke:#000"/><path style="display:inline;fill-opacity:1;fill-rule:evenodd;fill:#c8c8c8;opacity:1;stroke-dasharray:none;stroke-dashoffset:0;stroke-linecap:butt;stroke-linejoin:miter;stroke-miterlimit:4;stroke-opacity:1;stroke-width:0;stroke:#212f3d;vector-effect:none" d="m324.88236 50.641131c-.0668.275121-.0121.966975-.0121.966975-10.8958-.510558-18.57534-.267927-36.11389-1.689014.30085-.37358.2177-.507496.7141-1.163894 3.43695.587621 8.02941.863918 35.41191 1.885933z" id="path9445-9"/><path style="display:inline;fill-opacity:1;fill-rule:evenodd;fill:#c8c8c8;opacity:1;stroke-dasharray:none;stroke-dashoffset:0;stroke-linecap:butt;stroke-linejoin:miter;stroke-miterlimit:4;stroke-opacity:1;stroke-width:0;stroke:#212f3d;vector-effect:none" d="m323.66239 37.073194c-.0494.275121-.009.966975-.009.966975-8.04765-.510558-13.71977-.267927-26.67378-1.689014.22221-.373578.1608-.507494.52744-1.163893 2.53853.587622 5.93053.863918 26.1553 1.885932z" id="path9445-9-7"/><path style="display:inline;fill-opacity:1;fill-rule:evenodd;fill:#c8c8c8;opacity:1;stroke-dasharray:none;stroke-dashoffset:0;stroke-linecap:butt;stroke-linejoin:miter;stroke-miterlimit:4;stroke-opacity:1;stroke-width:0;stroke:#212f3d;vector-effect:none" d="m348.93808 94.274073c-22.79602 1.589917-44.78255-37.945257-48.28152.805307-1.31947-38.633365 30.07097-3.371319 48.28152-.805307z" id="path9445-9-5"/><path style="display:inline;fill-opacity:1;fill-rule:evenodd;fill:#c8c8c8;opacity:1;stroke-dasharray:none;stroke-dashoffset:0;stroke-linecap:butt;stroke-linejoin:miter;stroke-miterlimit:4;stroke-opacity:1;stroke-width:0;stroke:#212f3d;vector-effect:none" d="m257.4763 93.468876c12.30728-2.337656 23.71207-35.791674 25.61255.885089.71078-36.264188-15.118-7.418272-25.70543-1.621678.0596.57637.0441.425849.0928.736589z" id="path9445-9-5-6"/></svg>