<svg viewBox="0 0 560 1e3"><path id="path4751" class="hair" d="m347.20083 89.460782c.27086 1.823148.43392 3.590431.50299 5.301023.0733 1.814487.0407 3.565189-.0811 5.251125-.1106 1.53148-.29498 3.00953-.54069 4.4334-.0805.46743-.16791.929-.26136 1.38472-.36258 1.7683-.81815 3.44831-1.3412 5.03855-.28819.87619-.90198 3.25017-1.55613 5.71737-.76664 2.89141-1.58873 5.91083-2.0072 6.79752-.64669 1.37026.10909-4.54474-.58595-3.35837-.74336 1.26893-3.81144 17.14-4.55011 18.195-.79804 1.13981.73631-12.5545.019-11.66885-.57141.70552-5.51199 21.71176-5.98759 22.25334-1.3691 1.55905 1.8087-17.94805 1.86853-17.78501-70.99732 14.80776-16.2348-8.32484-63.44686 10.80063-.21027-.57902-17.998-46.070572-11.15525-58.718049.67976-1.630682.95727-14.611929 1.70343-16.129643.63611-1.293874 1.73198 8.860384 2.41443 7.64832 1.72405-3.062059 3.59311-5.863483 5.59281-8.406442 1.2608-1.603345 5.65765-12.91404 7.01872-14.312434 1.2019-1.234862-.64261 7.420074.63219 6.344227 3.69302-3.116673 7.68151-5.567646 11.90518-7.362038 1.5139-.643169 7.85574-6.751412 9.42732-7.226294 1.53012-.462367-1.71146 4.704261-.13187 4.40064 3.20991-.616988 6.51666-.907007 9.89872-.87331 3.10308.03091 5.99602.211545 8.69643.531707 26.96233 3.196656 25.87402 20.855883 31.96557 41.742868"/><path id="path4753" class="hair" d="m355.6844 44.361957c2.01049 8.442104 1.93366 18.252259-.0629 25.63064-.20508.757908-.0851 7.188671-.33049 7.891144-.21061.602844-.78138-4.514753-1.02146-3.958371-.56111 1.300463-2.32482 10.755646-3.04477 11.754815-.81843 1.135851-.6161-6.233201-1.63572-5.578495-4.59282 2.949066-14.92585-13.810943-20.63136-15.565661-6.20958-2.940908-23.6425-13.779082-24.52731-19.444742-.10076-.644925-2.48191-5.767213-2.44661-6.390681.0415-.734382 2.52519 3.0345 2.74314 2.334364.27943-.897601.332-8.541885.87627-9.374121.50566-.773228 1.48591 5.260771 2.19677 4.552456.71957-.716983 1.53849-1.398614 2.44503-2.040649.87788-.621722 1.83792-1.206317 2.86953-1.749929 6.58864-3.471931 16.09599-5.272199 25.75342-4.397242 4.9853-.04259 8.60138 1.832773 11.23774 4.716296 2.82438 3.089186 4.52431 7.33547 5.57875 11.620176z"/></svg>