<svg viewBox="0 0 560 1e3"><path style="display:inline;fill-opacity:1;fill-rule:evenodd;fill:#000;opacity:1;stroke-dasharray:none;stroke-linecap:butt;stroke-linejoin:miter;stroke-miterlimit:4;stroke-opacity:1;stroke-width:0;stroke:#000" d="m367.91666 272.56978c-1.04417.19236-70.5264-5.44292-131.17995-4.91202 3.08213-21.15597 11.34018-37.34036 37.44698-60.5371-.63873-.33426 5.63549-4.38429 10.16002-6.78663 8.14833-12.70068 4.46472-19.8415 5.30411-19.5762 7.80794 2.46783 17.91265-3.14662 24.29047-7.74712.74373-.53648-.752 16.60336 5.04219 25.55904 1.50252 1.12706 8.22693 4.89722 7.01144 5.69617-25.72677 16.91039-30.9022 28.84774-29.45936 29.06832 3.13994 1.52155 70.52301 36.43769 71.62912 37.26225z" id="path2662-8-4-7"/><path style="display:inline;fill-opacity:1;fill-rule:evenodd;fill:maroon;opacity:1;stroke-dasharray:none;stroke-linecap:butt;stroke-linejoin:miter;stroke-miterlimit:4;stroke-opacity:1;stroke-width:0;stroke:#000" d="m368.16666 271.04006c-.022.17059-.0457.36964-.0714.59595-76.50814-6.11786-110.29347-5.23588-131.30148-5.12646 6.23266-46.96362 21.75206-55.57048 37.76731-60.27845.49229-.51848 5.31256-2.88169 9.78952-5.28403 5.73671-6.84658 5.96054-16.38841 6.43009-16.43638 9.66279-.98707 17.18194-8.05033 21.83937-11.17453 1.18842-.79719-.90736 15.62847 6.0387 25.84663 1.48672 1.12706 17.66932 6.19296 18.2012 7.53532.0.0 22.53186-3.73753 32.01093 28.69935.0476.44543 1.31272 7.24328 1.49903 15.71117.21526 6.04642-.99897 15.21794-2.20327 19.91143z" id="path2664-3-9-7"/><path id="path1833-4" d="m282.94456 458.76549c-.0483.15247-.11284.47208-.19954.90622-.41277 2.06685-1.81439 6.53069-3.87757 8.11265-.26921.20642-1.13559 1.14752-4.57861.28177-.17398-.0437-2.18026 1.1699-4.2783.12449-4.65827-2.32112-6.22252-8.10904-6.31915-8.53686 3.82592 9.08132 8.89939 9.3147 10.40315 7.55401 5.26837 2.79873 7.50839-4.81217 8.85002-8.44228z" style="display:inline;fill-opacity:1;fill-rule:evenodd;fill:#000;opacity:1;stroke-dasharray:none;stroke-linecap:butt;stroke-linejoin:miter;stroke-miterlimit:4;stroke-opacity:1;stroke-width:0;stroke:#000"/><path id="path1760-5-4-2-1" d="m361.63641 418.84411c-26.82642-1.40287-67.54027 21.94468-78.51049 39.5024-1.04023 1.75909-1.92047 7.35117-4.50173 9.70959-.97785.89343-3.70051-.0277-4.03805.0431-.91345.19159-2.80735.34793-3.55356.29099-1.3589-.10369-3.01052-1.81454-4.53551-3.48982-1.15035-1.26373-2.1753-2.98733-2.81436-5.19001-8.77373-7.86601-26.29026-23.86431-37.72273-47.06552.0176-.005-.20468-.75846-.17901-2.20368 16.3118 24.34925 24.23707 27.1224 43.30386 28.66939 25.02987.6346 42.5883-20.51507 92.56367-22.37183.0.0.006 2.09665-.0121 2.10539z" style="display:inline;fill-opacity:1;fill-rule:evenodd;fill:maroon;opacity:1;stroke-dasharray:none;stroke-linecap:butt;stroke-linejoin:miter;stroke-miterlimit:4;stroke-opacity:1;stroke-width:0;stroke:#000"/><path id="path1781-9-7-8-7" d="m282.94456 458.76549c-.0483.15247-.11284.47208-.19954.90622-.41277 2.06685-1.81439 6.53069-3.87757 8.11265-.26921.20642-1.13559 1.14752-4.57861.28177-.17398-.0437-2.18026 1.1699-4.2783.12449-4.65827-2.32112-6.22252-8.10904-6.31915-8.53686 3.82592 9.08132 8.89939 9.3147 10.40315 7.55401 5.26837 2.79873 7.50839-4.81217 8.85002-8.44228z" style="display:inline;fill-opacity:1;fill-rule:evenodd;fill:#000;opacity:1;stroke-dasharray:none;stroke-linecap:butt;stroke-linejoin:miter;stroke-miterlimit:4;stroke-opacity:1;stroke-width:0;stroke:#000"/></svg>