<svg viewBox="0 0 560 1e3"><path id="path4934" d="m342.9 208.1c-9.88237-1.85334-16.5407-4.71955-22.48178-8.46734-6.02966 4.4654-31.71201 7.12913-32.72558.53174-5.0436 3.6897-11.37611 5.42275-17.23909 9.28915C281.52891 225.69313 325.25981 223.86208 342.9 208.1z"/><path style="display:inline;fill-opacity:1;fill:#f7d548" id="path4934-6" d="m342.41386 207.87903c-9.88237-1.85334-16.14295-4.3218-22.08403-8.06959-6.02966 4.4654-31.49862 7.2961-32.51219.69871-5.0436 3.6897-11.06361 5.0165-16.92659 8.8829 11.34053 15.57667 53.88262 14.25006 71.52281-1.51202z"/><path style="display:inline;fill-opacity:1;fill:#000" id="path4934-6-4-84" d="m280.42739 206.19911c-4.15466.3404-6.74862 2.1711-7.38719 4.69871 2.45101.30746 5.58471.361 7.38719-4.69871z"/><path style="display:inline;fill-opacity:1;fill:teal" id="path4934-6-4" d="m280.11489 205.94911c-4.15466.3404-6.74862 2.1711-7.38719 4.69871 2.45101.30746 5.58471.361 7.38719-4.69871z"/><path style="display:inline;fill-opacity:1;fill:#000" id="path4934-6-4-1-8" d="m285.63442 208.65026c-3.97733 1.24818-6.10374 3.60582-6.16921 6.21203 2.45847-.24059 5.52684-.8794 6.16921-6.21203z"/><path style="display:inline;fill-opacity:1;fill:teal" id="path4934-6-4-1" d="m285.32192 208.40026c-3.97733 1.24818-6.10374 3.60582-6.16921 6.21203 2.45847-.24059 5.52684-.8794 6.16921-6.21203z"/><path style="display:inline;fill-opacity:1;fill:#000" id="path4934-6-4-3-3" d="m291.90533 210.24472c-3.48601 2.28579-4.88866 5.13407-4.24072 7.6593 2.29961-.9021 5.07735-2.35367 4.24072-7.6593z"/><path style="display:inline;fill-opacity:1;fill:teal" id="path4934-6-4-3" d="m291.59283 209.99472c-3.48601 2.28579-4.88866 5.13407-4.24072 7.6593 2.29961-.9021 5.07735-2.35367 4.24072-7.6593z"/><path style="display:inline;fill-opacity:1;fill:#000" id="path4934-6-4-8-8" d="m298.00103 210.52042c-2.53141 3.31195-2.91079 6.46412-1.46255 8.63188 1.87066-1.61326 4.01032-3.90341 1.46255-8.63188z"/><path style="display:inline;fill-opacity:1;fill:teal" id="path4934-6-4-8" d="m297.68853 210.27042c-2.53141 3.31195-2.91079 6.46412-1.46255 8.63188 1.87066-1.61326 4.01032-3.90341 1.46255-8.63188z"/><path style="display:inline;fill-opacity:1;fill:#000" id="path4934-6-4-2-3" d="m305.55947 210.74511c-1.55177 3.86899-1.07295 7.00759.90302 8.70822 1.37017-2.05538 2.81822-4.83497-.90302-8.70822z"/><path style="display:inline;fill-opacity:1;fill:teal" id="path4934-6-4-2" d="m305.24697 210.49511c-1.55177 3.86899-1.07295 7.00759.90302 8.70822 1.37017-2.05538 2.81822-4.83497-.90302-8.70822z"/><path style="display:inline;fill-opacity:1;fill:#000" id="path4934-6-4-19-5" d="m312.76626 210.18388c-.57111 4.12927.65177 7.05923 2.98005 8.23211.83304-2.32551 1.56668-5.3726-2.98005-8.23211z"/><path style="display:inline;fill-opacity:1;fill:teal" id="path4934-6-4-19" d="m312.45376 209.93388c-.57111 4.12927.65177 7.05923 2.98005 8.23211.83304-2.32551 1.56668-5.3726-2.98005-8.23211z"/><path style="display:inline;fill-opacity:1;fill:#000" id="path4934-6-4-4-2" d="m319.12532 208.87995c.6628 4.11555 2.68988 6.55913 5.25953 6.99899.11572-2.46751-.0749-5.59587-5.25953-6.99899z"/><path style="display:inline;fill-opacity:1;fill:teal" id="path4934-6-4-4" d="m318.81282 208.62995c.6628 4.11555 2.68988 6.55913 5.25953 6.99899.11572-2.46751-.0749-5.59587-5.25953-6.99899z"/><path style="display:inline;fill-opacity:1;fill:#000" id="path4934-6-4-10-2" d="m324.93243 206.68575c1.89381 3.71356 4.57296 5.41715 7.15361 5.04721-.6471-2.38396-1.78852-5.30288-7.15361-5.04721z"/><path style="display:inline;fill-opacity:1;fill:teal" id="path4934-6-4-10" d="m324.61993 206.43575c1.89381 3.71356 4.57296 5.41715 7.15361 5.04721-.6471-2.38396-1.78852-5.30288-7.15361-5.04721z"/><path style="display:inline;fill-opacity:1;fill:#000;stroke-width:1.03401637" id="path4934-6-3-7" d="m325.12347 202.29278c-.52061-.27443-1.03323-.55683-1.53968-.84761-4.80955 6.50536-36.83206 8.50308-39.01997.84703-.56334.30455-2.13377 1.19872-2.71006 1.48535 4.50163 8.82165 35.21794 7.42781 43.26971-1.48477z"/><path style="display:inline;fill-opacity:1;fill:teal" id="path4934-6-3" d="m325.12347 202.50309c-.52061-.25667-1.03323-.52079-1.53968-.79275-4.80955 6.08438-37.40658 8.49016-39.01997.79221-.56334.28484-2.13377 1.12115-2.71006 1.38923 5.34132 8.04411 35.21794 6.94714 43.26971-1.38869z"/></svg>