<svg viewBox="0 0 560 1e3"><path id="path3282-5-4-0-5-7" class="shadow" d="m390.51251 482.01997c-1.12037.41865-2.58602 1.44755-3.06247 1.62517-.1673.0624-2.8028-2.4716-2.96505-2.44404-4.20533.71443-8.2497 2.30075-13.72624 4.8025-.20903.0955.2654 4.98556.0532 5.08002-4.01596 1.78795-8.60226 3.38146-14.01181 4.36525-.11776.0214-3.43981-5.12788-3.55799-5.10646-6.16654 1.11783-12.90208 2.24471-20.19062 3.39598-.27648.0437-.841 4.99238-1.11901 5.03501-4.65184.7132-9.51697 1.27797-14.58804 1.64304-.17529.0126-2.66326-4.56863-2.83892-4.55624-6.76487.47704-13.80154.78124-21.05616.86426-.16153.002-1.20703 4.77697-1.36876 4.77797-5.03242.0466-10.06996.14151-15.2691-.18842-.15444-.01-.99395-4.48335-1.14851-4.49343-6.23887-.40681-12.5282-.77903-18.91896-1.68502-.16625-.0236-1.14502 3.73391-1.31133 3.70991-4.39186-.6336-8.80568-1.4158-13.22865-2.36212-.10008-.0214-.35484-3.57843-.45492-3.60003-4.94908-1.06624-9.90832-2.31688-14.85963-3.77032-.11868-.0348-1.64361 2.83645-1.76227 2.80136-3.63359-1.07446-6.95022-2.57508-10.56115-3.89118-.19669-.0717.0707-3.45828-.12589-3.53066-3.7333-1.37442-7.24872-4.13613-10.94442-5.76149-.0549-.0242-2.45362 3.12352-2.50854 3.0993-.52139-.22993-1.04611-.51728-1.56633-.75269-.005.0218-.24173.46758-.23893.48419.003.0154.91302.77777 1.92589 1.23673.16458.0746 2.39404-3.102 2.558-2.97372 1.54395 1.208 4.76296 3.1781 9.84564 5.25938.0559.0229.11475 3.75851.17149 3.78018 3.27996 1.25389 7.43116 3.05505 11.81787 4.3439.0814.0239 1.56286-2.94796 1.64321-2.91979 4.20944 1.47594 8.46992 2.2183 13.46922 3.38148.0977.0227.40198 3.8024.49998 3.82507 4.52377 1.04687 9.88271 1.85704 15.02922 2.62866.11331.017 1.34533-3.68723 1.45893-3.6704 5.52798.81914 10.90534.89611 16.96291 1.30337.0926.006 1.37844 4.65281 1.47113 4.65899 5.42991.36223 11.53839.26202 17.35629.18591.16122-.002.80365-4.56223.96515-4.55862 6.84283.15323 12.45493-.30042 19.17926-.87512.12566-.0107 2.96859 4.39992 3.09443 4.38916 5.44977-.46595 11.12398-.58408 16.65632-1.57911.17871-.0321.91308-4.91437 1.09194-4.94718 6.17744-1.13299 11.62959-1.97932 18.03267-3.10243.10455-.0183 3.89322 5.06822 3.99816 5.08497.74663.11916 15.31315-4.38765 15.58689-4.50097.12035-.0498-.15819-5.52773-.0557-5.6093.28486-.22661 6.97662-2.02171 12.4277-4.4786.0531-.024 2.87363 2.26414 2.93127 2.24524 1.23295-.4032 2.26578-1.28644 3.31287-1.71011z"/><path id="path2263" d="m368.45236 268.83602c.40069 1.40387-.93027 12.32141-7.95134 37.24886-4.54325 16.13025-11.37644 22.38172-18.33678 33.7393-18.83302 27.12305-15.40054 29.58195-.86717 53.01406.0.0-43.93643 22.23243-55.44565 50.5698-2.06147 4.01155-2.1084 11.81811-3.46792 16.10443-.27859.87834-1.00697 6.35332-3.50565 8.26757-.26944.20641-1.13656 1.14752-4.58251.28177-.17413-.0437-1.37345.71664-3.61847.0361-5.83439-1.76869-6.66978-8.86034-6.76649-9.28816-1.72385-7.62612-46.60182 16.38992-60.49099 19.58277-2.10722.48441-4.12171 3.55614-3.96367 2.6496 7.07093-31.26655 30.78925-80.42726 39.76647-110.80037 7.22713-24.45196 4.86759-29.39347 3.71851-51.94706-.10903-.84586-4.14283-11.7431-5.92518-28.16955 1.2935-80.38873 29.94971-37.60983 52.03358-56.96199.97617-2.02088 1.68499-20.51561-12.22524-27.79509-.63873-.33426 5.49532-2.25669 10.01985-4.65903 9.24713 11.38115 25.18214 3.12903 31.26177-2.13928 1.50252 1.12706 9.10193 4.89722 7.88644 5.69617-25.72677 16.91039-30.9022 28.84774-29.45936 29.06832 3.13994 1.52155 66.54554 33.43249 67.65165 34.25705z" style="display:inline;fill-opacity:1;fill-rule:evenodd;fill:#000;opacity:1;stroke-dasharray:none;stroke-linecap:butt;stroke-linejoin:miter;stroke-miterlimit:4;stroke-opacity:1;stroke-width:0;stroke:#000"/><path id="path2265" d="m368.47602 268.56519c-.77107 3.92168-3.9552 21.95053-9.3715 38.96484-3.58791 11.27077-14.76708 25.38343-17.01094 29.39203-1.56731 2.79998-15.78859 20.06421-14.59178 30.40293 1.81089 15.64347 13.31737 21.65651 15.09487 26.89685 1.40254 1.90805 4.4197 7.29784 7.43331 11.15298 16.17145 20.68722 41.15954 74.91744 40.4925 76.93769-1.9885 1.55582.22213.10288-3.08523 1.61187-.22825.10414-2.66909-2.57614-2.90308-2.47239-3.76548 1.66966-8.26984 3.28806-13.36775 4.81151-.38887.11621.18143 5.35098-.20407 5.48523-4.80255 1.67253-8.41412 2.87423-14.27134 4.09295-.3584.0746-3.66282-5.0851-4.02418-5.01148-5.97891 1.21801-12.36129 2.30427-19.01773 3.21986-.37859.0521-1.00807 5.18203-1.38841 5.23299-5.75087.77059-9.10799.93476-15.17105 1.4249-.36585.0296-3.07311-4.54128-3.43978-4.51282-6.45776.50121-13.03972.82838-19.6471.95182-.30179.006-1.13397 4.60705-1.43585 4.61183-5.72159.0907-10.30978.0277-15.99861-.20823-.27377-.0113-1.16615-4.6193-1.43969-4.63146-6.10964-.27159-12.15979-.744-18.07086-1.44126-.22365-.0264-1.17804 3.64602-1.39891 3.60371-4.16151-.79722-9.05345-1.40536-13.83342-2.35891-.15644-.0312-.50022-3.72498-.65634-3.75657-4.88021-.98762-9.59854-2.16348-14.10199-3.54353-.22729-.0696-1.54686 2.89939-1.77304 2.82869-4.08252-1.27596-7.25595-2.47203-10.93733-4.10025-.17311-.0766.0186-3.44272-.15358-3.52011-3.81009-1.71261-7.37915-3.62316-10.66199-5.74525-.1108-.0716-2.39145 3.19621-2.50159 3.1241-.64051-.4193-1.03065-.4162-1.64864-.85193 11.70436-34.78621 31.76706-83.81468 31.79553-84.40854 8.69383-19.49647 9.66566-28.57394 11.10172-33.63448 5.17717-18.24376 1.92316-40.73168 1.51078-45.94078-.30148-3.80824-4.82961-14.60553-5.71864-27.14289 1.22354-53.46254 14.96851-58.37216 38.85581-84.04998.49229-.51848 5.43756-2.25669 9.91452-4.65903 9.14993 11.38115 24.91744 3.12903 30.93316-2.13928 1.48672 1.12706 18.23182 7.00546 18.7637 8.34782 5.59696 13.25538 5.60863 25.94395 12.7896 37.87473 7.32565 13.63251 13.69888 21.31242 19.13892 23.15984z" style="display:inline;fill-opacity:1;fill-rule:evenodd;fill:#5f6ea0;opacity:1;stroke-dasharray:none;stroke-linecap:butt;stroke-linejoin:miter;stroke-miterlimit:4;stroke-opacity:1;stroke-width:0;stroke:#000"/><path style="display:inline;fill-opacity:1;fill:#fff;stroke-dasharray:none;stroke-linecap:butt;stroke-linejoin:miter;stroke-miterlimit:4;stroke-opacity:1;stroke-width:0;stroke:#000" d="m388.68798 477.0035c-62.86515 25.26964-169.27531 17.2258-186.50703-4.16291l.50934-1.31436c36.77004 27.20814 144.47696 20.00753 185.31763 4.01159.1385.27852.54103 1.22421.68006 1.46568z" id="path2267"/><path style="display:inline;fill-opacity:1;fill:#fff;stroke-dasharray:none;stroke-linecap:butt;stroke-linejoin:miter;stroke-miterlimit:4;stroke-opacity:1;stroke-width:0;stroke:#000" d="m386.87489 473.01472c-63.82717 21.90257-166.10819 15.5239-183.0472-4.84034l.49861-1.17863c36.09642 25.322 140.00289 17.64839 181.82433 4.39862.1385.27852.58523 1.2905.72426 1.62035z" id="path2269"/><path style="fill-opacity:1;fill:#e7bb67;stroke-dasharray:none;stroke-linecap:butt;stroke-linejoin:miter;stroke-miterlimit:4;stroke-opacity:1;stroke-width:0;stroke:#000" d="m203.55359 478.92173c8.51492-28.38984 24.90566-58.3362 35.05005-89.27979l1.51993.57841c-8.38453 32.41858-18.87908 63.04264-25.84818 94.53961-4.19544-1.96694-6.85801-3.20798-10.7218-5.83823z" id="path2271"/><path style="display:inline;fill-opacity:1;fill:#e7bb67;stroke-dasharray:none;stroke-linecap:butt;stroke-linejoin:miter;stroke-miterlimit:4;stroke-opacity:1;stroke-width:0;stroke:#000" d="m226.95769 489.464c7.24497-32.07307 17.36955-64.50147 26.93716-96.11001l2.03771.43067c-7.35074 32.55411-9.7067 66.76448-14.70238 99.31859-4.43458-.94634-9.83791-2.1253-14.27249-3.63925z" id="path2273"/><path style="display:inline;fill-opacity:1;fill:#e7bb67;stroke-dasharray:none;stroke-linecap:butt;stroke-linejoin:miter;stroke-miterlimit:4;stroke-opacity:1;stroke-width:0;stroke:#000" d="m256.96016 495.62277c4.12528-33.29707 11.21077-67.27028 17.20686-99.63194l1.98474.31888c-1.1273 33.48562 1.58175 67.71877-.94699 100.73724-5.90886-.17424-12.66842-.58459-18.24461-1.42418z" id="path2275"/><path style="display:inline;fill-opacity:1;fill:#e7bb67;stroke-dasharray:none;stroke-linecap:butt;stroke-linejoin:miter;stroke-miterlimit:4;stroke-opacity:1;stroke-width:0;stroke:#000" d="m293.97995 497.23072c-.55795-32.66775 1.13471-66.01338 1.96298-100.52941l2.53771-.0997c3.73482 35.86669 11.87469 67.7164 15.34931 99.64702-6.4873.7737-15.28559 1.51121-19.85.98209z" id="path2277"/><path style="display:inline;fill-opacity:1;fill:#e7bb67;stroke-dasharray:none;stroke-linecap:butt;stroke-linejoin:miter;stroke-miterlimit:4;stroke-opacity:1;stroke-width:0;stroke:#000" d="m333.58147 494.15658c-7.04711-32.54953-12.39888-65.66548-16.83289-99.52156l1.96578-.25435c5.55226 34.08301 23.32978 64.51357 34.0336 96.4501-5.88931 1.26555-12.94565 2.47467-19.16649 3.32581z" id="path2279"/><path style="display:inline;fill-opacity:1;fill:#e7bb67;stroke-dasharray:none;stroke-linecap:butt;stroke-linejoin:miter;stroke-miterlimit:4;stroke-opacity:1;stroke-width:0;stroke:#000" d="m371.13216 486.30077c-15.12415-30.24903-25.05372-61.32185-35.32911-95.09726l2.09577-.90902c5.05362 15.805 27.87694 64.14372 46.67297 91.17249-4.07146 1.82226-9.20346 3.50567-13.43963 4.83379z" id="path2281"/><path style="display:inline;fill-opacity:1;fill:#e7bb67;stroke-dasharray:none;stroke-linecap:butt;stroke-linejoin:miter;stroke-miterlimit:4;stroke-opacity:1;stroke-width:0;stroke:#000" d="m340.66882 391.0694c-40.86096 10.96691-73.41182 9.17934-106.10657-2.1584l4.49103-12.95767c47.7592 15.19673 60.89874 9.50085 92.48952 3.61527.0604.16914 7.29424 9.58949 9.12602 11.5008z" id="path2283"/><path style="display:inline;fill-opacity:1;fill:#fff;stroke-dasharray:none;stroke-linecap:butt;stroke-linejoin:miter;stroke-miterlimit:4;stroke-opacity:1;stroke-width:0;stroke:#000" d="m338.51928 388.56061c-40.86096 10.96691-70.41216 9.26839-103.10691-2.06935l2.68807-7.77659c47.7592 15.19673 63.16399 8.48549 94.75477 2.59991 3.75126 4.85724 5.37537 6.89207 5.66407 7.24603z" id="path2285"/><path style="display:inline;fill-opacity:1;fill:#6e7dc8;stroke-dasharray:none;stroke-linecap:butt;stroke-linejoin:miter;stroke-miterlimit:4;stroke-opacity:1;stroke-width:0;stroke:#000" d="m336.64678 386.11362c-48.39444 10.52696-68.04452 8.84848-100.29797-2.29035l.91716-2.78153c47.7592 15.19673 65.62891 8.11018 97.21969 2.2246.2242.34538 1.85106 2.39869 2.16112 2.84728z" id="path2287"/><path style="display:inline;fill-opacity:1;fill:ivory;stroke-dasharray:none;stroke-linecap:butt;stroke-linejoin:miter;stroke-miterlimit:4;stroke-opacity:1;stroke-width:0;stroke:#000" d="m368.39741 269.61404c-27.35909-12.76218-33.35546-62.79432-33.34102-63.12697l1.46471.8232c3.25485-.36024 6.38702 42.70469 31.9257 61.22591.0135.65352-.0118.25036-.0494 1.07786z" id="path2289"/><path style="display:inline;fill-opacity:1;fill:#e7bb67;stroke-dasharray:none;stroke-linecap:butt;stroke-linejoin:miter;stroke-miterlimit:4;stroke-opacity:1;stroke-width:0;stroke:#000" d="m368.03188 272.5727c-30.26029-11.23523-38.87372-66.94592-37.38479-68.05462l1.69673.72376c6.87878 30.31052 11.48493 52.26326 35.8361 66.09698-.0459.19747-2e-4.6498-.14804 1.23388z" id="path2291"/><path style="display:inline;fill-opacity:1;fill:ivory;stroke-dasharray:none;stroke-linecap:butt;stroke-linejoin:miter;stroke-miterlimit:4;stroke-opacity:1;stroke-width:0;stroke:#000" d="m244.87443 245.70632c2.853-12.94481 31.93833-39.43229 31.95277-39.76494l1.42174-.76664c3.25485-.36024-27.27779 25.91069-33.65669 41.60361.0178-.25259.28331-1.1301.28218-1.07203z" id="path2293"/><path style="display:inline;fill-opacity:1;fill:#e7bb67;stroke-dasharray:none;stroke-linecap:butt;stroke-linejoin:miter;stroke-miterlimit:4;stroke-opacity:1;stroke-width:0;stroke:#000" d="m243.78493 249.06284c3.50569-11.84025 37.31876-42.73957 36.46058-44.54896l1.32799-.5479c3.1383.74701-31.93253 31.88405-38.19228 46.4451.0178-.25259.31645-.96437.40371-1.34824z" id="path2295"/><path id="path3280-7" class="shadow" d="m329.90707 425.69622c-15.4791 1.19068-42.03653 26.26041-44.60913 30.99635 10.29989-9.14088 29.75951-26.28541 44.60913-30.99635z"/><path id="path3282-5" class="shadow" d="m262.16498 457.54451c-6.81704-9.41592-28.83006-31.99347-34.93819-34.15183 5.05404 5.44075 26.5203 25.35081 34.93819 34.15183z"/></svg>