<svg viewBox="0 0 560 1e3"><path style="display:inline;fill-opacity:1;fill-rule:evenodd;fill:#000;opacity:1;stroke-dasharray:none;stroke-linecap:butt;stroke-linejoin:miter;stroke-miterlimit:4;stroke-opacity:1;stroke-width:0;stroke:#000" d="m370.52949 269.10119c4.95689 27.02974-1.94553 51.18503-4.20387 76.09058-.65233 7.19397 5.12112 19.68267 5.93749 29.68791-13.79439 3.71945-130.92929 18.42994-153.4509-7.69979 1.09157-8.53879 13.33658-40.93302 13.78642-49.08538.66022-7.18176-2.48473-22.76919.061-44.60641 4.1474-34.69597 25.72954-60.23406 52.68149-72.86746 9.24713 11.38115 26.77312 2.86386 32.85275-2.40445 3.60502 2.41128 12.51351 5.15536 13.9274 8.77997 5.80316 14.87672-6.8011 38.98424 32.06295 60.59513z" id="path4467-6-1-8-5"/><path id="path3371-5-7" d="m370.55315 268.83036c1.65694 38.34671-5.16173 57.67351-5.77162 77.57427-.21461 7.00257 4.90829 17.08923 5.22398 27.10414-37.1677 8.35602-136.69921 11.7343-149.30158-7.57645 2.83363-11.52951 12.15545-37.70518 12.80969-44.29554 1.60975-16.21545-1.8587-18.81403.0452-41.90662.62283-5.80398 1.32021-11.77405 1.93291-17.12971 3.18444-29.50611 19.74518-49.10747 49.7679-61.0132 9.14993 11.38115 27.12715 2.68708 33.14287-2.58123 1.48672 1.12706 17.6131 7.18224 18.14498 8.5246 1.34998 3.19719 2.37503 6.3614 3.25412 9.48996 2.76556 9.84229 4.08656 19.33169 9.53548 28.38477 7.32565 13.63251 15.77601 21.57759 21.21605 23.42501z" style="display:inline;fill-opacity:1;fill-rule:evenodd;fill:#fff;opacity:1;stroke-dasharray:none;stroke-linecap:butt;stroke-linejoin:miter;stroke-miterlimit:4;stroke-opacity:1;stroke-width:0;stroke:#000"/></svg>