<svg viewBox="0 0 560 1e3"><g data-transform="boob" class="scaler_" id="g4781" transform="matrix(1.1247504,0,0,1.1247504,-26.347241,-34.609528)"><path style="fill-opacity:1;fill:#010101" id="path4775" d="m226.54656 253.75066c-3.36507 1.67191-6.28302 3.1917-8.33221 4.68937-.54445.39791-.66828 2.70307-.76291 3.35152-.65836 4.51134-1.66809 9.99655-.19947 14.9545.5788 2.79959 1.92116 5.11459 3.04085 7.21138 2.65234 4.96693 6.04765 7.87695 10.86115 8.57219 21.5829 3.2487 35.13223-12.1343 39.18878-20.05393 1.83647 8.16488 6.94853 14.47073 13.3338 17.64542 10.04423 4.99389 23.27331 3.62273 32.00152-1.35019 10.55597-6.27698 15.90576-19.45293 10.27729-32.96347-.10014-.24038-1.10748-2.3276-1.21461-2.56815-44.60848 9.13357-64.17272 11.64213-98.19419.51136z"/><path style="fill-opacity:1;fill:#c8c8c8" id="path4777" d="m226.61703 254.26275c-3.24805 1.56057-6.03443 2.9182-7.55098 3.88901-.39536.25309-.72231 2.6909-.84921 3.07294-.70752 5.13443-.92153 9.56442-.30576 13.2861 1.01337 6.12496 3.33372 10.46932 6.44535 13.29915 2.48992 2.26451 5.53985 3.63861 8.78962 4.08772 10.49581 1.51314 19.86794-2.43574 27.29744-8.48888 4.20537-3.4345 7.18267-7.02269 9.92412-11.02226.12718.41876 1.87124 5.64497 5.46994 10.30596 2.123 2.74967 5.09638 5.02083 8.21123 6.75234.11303.0438.22591.0871.33871.12991 28.39866 10.77366 48.95726-11.31838 40.76152-33.40986-.046-.12396-.89862-2.10945-.94642-2.23341-38.7538 7.91357-61.21049 12.91457-97.58556.33128z"/><path d="m270.33492 269.98618c-.16754 2.01348.47911 3.25262.89408 5.36257-.66799-1.59942-1.31544-3.72955-.89408-5.36257z" class="shadow" id="path4779"/></g></svg>