<svg viewBox="0 0 560 1e3"><path style="display:inline;fill-opacity:1;fill:#000;opacity:1" d="m234.07839 270.11353c-.85981 16.20652-1.30215 32.99522-.13266 49.24726-5.09889 22.83026-28.56809 57.97541-9.63139 95.07635 16.36196-.34408 106.1361 2.83386 139.11072 2.81926 13.09719-11.55422 18.27461-32.63712 1.50264-68.71462 6.32034-21.77853 7.98372-48.8038 6.3522-72.45092-20.00731-23.65544-41.86246-52.72373-41.90888-71.09597-5.0856-1.53654-9.2662-4.20037-11.97165-6.99799-.44453 1.7818-1.99968 15.88708-2.14306 17.33056-12.09829 5.75915-27.87745 3.2969-33.51216-1.00011.88357-3.08367 2.87976-7.82151 6.26875-14.36009-2.95309 1.88608-8.68497 4.12374-12.65394 6.03362-26.99954 15.36213-39.14864 48.60157-41.28057 64.11265z" id="path11635-4-8-0"/><path id="path11637-0-6-0" d="m361.17505 347.77867c-29.21784 29.22016-15.37555 47.50607-9.12081 65.00472-40.10653 11.44456-68.87212 43.77714-69.64379 46.11491-.78385 1.88787-1.52083 7.17046-4.01773 8.95087-1.21712.86786-3.81296-.28396-4.0649-.30806-.29397-.0276-.90793 1.12097-3.12075.54862-5.65546-1.4629-6.42904-6.68611-7.00115-8.63681-17.98917-22.24927-34.48124-43.66029-39.20665-44.84924 7.94787-20.31139 14.53739-34.53836 15.52113-39.64488 10.38179-29.98171-3.55082-53.86605-5.79884-79.27087-2.57193-41.40752 1.83653-80.75375 48.41677-94.71941 1.01736-.38611 3.91029-7.60359 4.38199-7.58682.0625.002.87941.21258 1.09234.25439.10106.0198 1.21458-8.19442 1.06573-10.68266-.39821-6.65664 17.38652-8.92202 24.52461-9.90337.0892-.0123 2.05342 20.69408 2.14258 20.68153 1.81469-.25539 1.49055-.38138 3.26317-.74859.97035 2.05878 1.7563 4.98559 2.89961 6.71944 1.48672 1.12706 13.50726 6.48585 14.03914 7.82821 25.85476-7e-4 34.52747 29.08831 35.71943 48.98087 1.55035 31.27451-1.36367 66.60117-11.09188 91.26715z" style="display:inline;fill-opacity:1;fill-rule:evenodd;fill:#333;opacity:1;stroke-dasharray:none;stroke-linecap:butt;stroke-linejoin:miter;stroke-miterlimit:4;stroke-opacity:1;stroke-width:0;stroke:#000"/><path id="path11641-6-9-0" d="m284.70103 205.89909c8.47908 3.49973 16.78281 4.10456 33.81887 1.06136.0.0-1.86037-13.36895-2.09459-13.34424-11.75085 1.23945-23.23623.32794-27.85733-.2623-.14584.19372-3.86695 12.54521-3.86695 12.54521z" style="display:inline;fill-opacity:1;fill:#c8c8c8;opacity:1;stroke-dasharray:none;stroke-linecap:butt;stroke-linejoin:miter;stroke-miterlimit:4;stroke-opacity:1;stroke-width:0;stroke:#000"/><path id="path11643-9-3-1" d="m370.77177 309.95282c-7.52713 18.00939-28.55676 25.46664-29.56208 26.69196-29.21784 29.59557 4.58981 57.68011 10.84455 75.40358-35.33356 15.83423-68.06904 43.07392-69.54782 47.1211-.78385 1.91213-1.39675 7.02336-3.89365 8.82664-1.21712.87901-4.18926.0916-4.4412.0672-.29397-.0279-1.1191.72745-3.33192.14775-5.65546-1.48169-6.14243-6.77201-6.71454-8.74778-17.10528-23.95405-37.31725-43.48314-39.12584-45.57125 7.94787-20.57234 14.53739-34.98209 15.52113-40.15422 2.40743-12.65739 4.56181-31.43999 4.51599-34.35576-.31392-19.97734-9.95614-32.89518-10.84517-45.59361 12.59934-7.37331 27.04712-13.16442 37.33977-14.61532 2.27355-.3205 4.80632-6.21689 7.13623-6.25261 1.73702-.0266 3.36824-.0535 5.45588.26764 2.05379.31597 3.34168 5.89267 5.27067 6.26046 17.29016 3.29664 47.77849 15.72959 81.37801 30.50421z" style="display:inline;fill-opacity:1;fill-rule:evenodd;fill:#000;opacity:1;stroke-dasharray:none;stroke-linecap:butt;stroke-linejoin:miter;stroke-miterlimit:4;stroke-opacity:1;stroke-width:0;stroke:#000"/><path id="path11645-6-2-1" d="m370.02914 310.93168c-.17228 18.93631-4.95282 29.77678-6.20885 38.16445 17.19359 36.94867 9.04969 57.11744-.13217 68.71239 1.17083 7.99741-80.51558 39.06375-81.28725 41.40152-.78385 1.88787-1.2912 6.47836-3.7881 8.25877-1.21712.86786-4.18926.0964-4.4412.0723-.29397-.0276-.7441.846-2.95692.27365-5.65546-1.4629-6.01099-5.87323-6.5831-7.82393-33.43111-16.74711-38.79596-40.13234-40.33939-44.85682-17.47303-41.56956 11.1678-84.22591 11.25193-96.71453-.34145-5.66966-1.50263-15.02999-1.26447-22.64316 12.59934-7.27978 26.95872-12.7502 37.25137-14.1827 2.27355-.31643 4.80632-6.13803 7.13623-6.1733 1.73702-.0263 3.36824-.0528 5.45588.26425 2.05379.31196 3.34168 5.81792 5.27067 6.18105 17.29016 3.25482 47.03586 14.47885 80.63538 29.06606z" style="display:inline;fill-opacity:1;fill-rule:evenodd;fill:#c8c8c8;opacity:1;stroke-dasharray:none;stroke-linecap:butt;stroke-linejoin:miter;stroke-miterlimit:4;stroke-opacity:1;stroke-width:0;stroke:#000"/><path style="display:inline;fill-opacity:1;fill-rule:evenodd;fill:#000;opacity:1;stroke-dasharray:none;stroke-linecap:butt;stroke-linejoin:miter;stroke-miterlimit:4;stroke-opacity:1;stroke-width:0;stroke:#000" d="m282.45842 458.56662c-.27835.87834-1.09442 7.30349-3.59097 9.21774-.26922.20641-1.13559 1.14752-4.57861.28177-.17398-.0437-1.37228.71664-3.61539.0361-5.82941-1.76869-6.22252-8.10904-6.31915-8.53686 8.23205-5.09165 11.4291-4.00072 18.10412-.99875z" id="path11647-8-2-5"/><path style="display:inline;fill-opacity:1;fill-rule:evenodd;fill:#c8c8c8;opacity:1;stroke-dasharray:none;stroke-linecap:butt;stroke-linejoin:miter;stroke-miterlimit:4;stroke-opacity:1;stroke-width:0;stroke:#000" d="m282.65569 458.4011c-.78318 1.88787-2.10206 7.06063-4.59684 8.84104-1.21608.86786-3.67141-.009-3.92314-.0331-.29372-.0276-.96753.96577-3.15689.31564-4.33861-1.28834-5.1633-4.97917-6.6404-7.92987 7.24395-6.87766 11.19968-9.59173 18.31727-1.19371z" id="path11649-2-2-2"/><path id="path11651-4-6-5" d="m264.82065 278.49107c-.0385.10483-5.46248 3.46698-5.52549 3.54379 3.92723 27.86177-7.17355 107.85246-16.77134 151.24784.14099.46278.14882.68187.54193.6861 10.44835-26.60225 21.7549-155.47773 21.7549-155.47773z" style="display:inline;fill-opacity:1;fill:#333;opacity:1;stroke-dasharray:none;stroke-linecap:butt;stroke-linejoin:miter;stroke-miterlimit:4;stroke-opacity:1;stroke-width:0;stroke:#000"/><path id="path11653-2-7-8" d="m303.35029 280.35522c.0385.10527 5.46248 3.48145 5.52549 3.55859-7.78598 18.03785-20.29212 104.09437-2.94441 153.45275-22.17556-43.19241-2.58108-157.01134-2.58108-157.01134z" style="display:inline;fill-opacity:1;fill:#333;opacity:1;stroke-dasharray:none;stroke-linecap:butt;stroke-linejoin:miter;stroke-miterlimit:4;stroke-opacity:1;stroke-width:0;stroke:#000"/><path id="path11655-5-8-9" d="m368.88242 326.35306c.0385.10316-.59212 2.48353-.52911 2.55912-24.98357.30989-58.72369-3.06614-71.49946 6.46846.20285-.37473.17796-2.72538.45322-3.07491 8.90331-11.30529 71.57535-5.95267 71.57535-5.95267z" style="display:inline;fill-opacity:1;fill:#333;opacity:1;stroke-dasharray:none;stroke-linecap:butt;stroke-linejoin:miter;stroke-miterlimit:4;stroke-opacity:1;stroke-width:0;stroke:#000"/><path id="path11657-5-4-1" d="m233.86684 324.52037c-.0116.10316-.44897 1.68046-.46797 1.75605 7.5386.30989 22.24785 2.45812 26.10285 8.45719-.0612-.37473.0237-2.75347-.13676-3.07491-3.12846-6.26715-25.49812-7.13833-25.49812-7.13833z" style="display:inline;fill-opacity:1;fill:#333;opacity:1;stroke-dasharray:none;stroke-linecap:butt;stroke-linejoin:miter;stroke-miterlimit:4;stroke-opacity:1;stroke-width:0;stroke:#000"/><path id="path4386-3-8-7-4-2-6-8" class="shadow" d="m362.40568 418.62719c-51.47912 13.69068-75.78655 31.26041-78.35915 35.99635 10.29989-9.14088 63.50953-31.28541 78.35915-35.99635z"/><path id="path4388-4-6-2-3-7-9-4" class="shadow" d="m260.91357 455.47548c-6.81704-9.41592-28.83006-31.99347-34.93819-34.15183 5.05404 5.44075 26.5203 25.35081 34.93819 34.15183z"/></svg>