<svg viewBox="0 0 560 1e3"><path id="path9410" d="m300.27148 120.36328c-4.61537.004-7.85482.89937-9.52929 2.63086-1.11533 1.1533-2.50977 3.11938-2.3711 3.34375.0887.14352 1.74874-.5119 5.25977-2.07812 2.071-.92383 3.86634-1.33984 7.32226-1.69141 6.3903-.35846 11.90098 2.03176 11.90098 2.03176s-4.45367-3.19972-12.58262-4.23684z" class="eyebrow_hair"/><path id="path9412" d="m263.52711 124.62742s6.45962-1.89097 11.61742-.49461c1.21883.59568 3.91381 2.47367 4.00391 2.41797.50531-.3123-1.4689-3.75937-2.76647-4.67134-4.29579-1.77724-12.85486 2.74798-12.85486 2.74798z" class="eyebrow_hair"/></svg>