<svg viewBox="0 0 560 1e3"><path style="display:inline;fill-opacity:1;fill-rule:evenodd;fill:#000;opacity:1;stroke-dasharray:none;stroke-linecap:butt;stroke-linejoin:miter;stroke-miterlimit:4;stroke-opacity:1;stroke-width:0;stroke:#000" d="m370.92723 269.0128c4.31437 33.4361-12.09084 64.5577-13.88328 79.28343 4.67093 8.15023 25.75919 49.84807 6.88053 70.17463-34.55753 14.24364-57.45436 26.1744-85.04663 49.30918-.26944.20641-1.13656 1.14752-4.58251.28177-.17413-.0437-1.37345.71664-3.61847.0361-25.78105-20.6634-34.30892-43.92241-45.48186-53.93634-15.64306-38.00619 12.10833-81.47025 11.89743-93.4769.0.0-9.19786-50.57967 6.19085-84.01634 9.97025-7.3845 35.36355 5.61035 45.76581-3.50518-.22204 1.98499 4.34434 5.11885 7.48346.17105 3.13994 1.52155 66.54554 33.43249 67.65165 34.25705z" id="path3847-2-8"/><path style="display:inline;fill-opacity:1;fill-rule:evenodd;fill:#333;opacity:1;stroke-dasharray:none;stroke-linecap:butt;stroke-linejoin:miter;stroke-miterlimit:4;stroke-opacity:1;stroke-width:0;stroke:#000" d="m355.015 348.84443c7.17406 11.26933 25.51083 45.9874 7.41056 69.46929-40.10653 11.44456-75.34677 37.43355-76.11844 39.77132-.78385 1.88787-4.7912 9.82211-7.2881 11.60252-1.21712.86786-4.56426-.37235-4.8162-.39645-.29397-.0276-.77535.50225-2.98817-.0701-5.65546-1.4629-10.22974-5.40448-10.80185-7.35518-18.43111-29.49711-30.68812-46.0732-35.41353-47.26215-10.98249-42.08723 13.21571-80.31304 13.17428-93.97437-5.93533-36.36152-13.29526-104.87005 38.76257-114.64821.49229-.51848 5.43756-2.25669 9.91452-4.65903-.5808 8.37929 2.67887 12.85688 9.77996 18.84574 2.42202-.72926 9.54207-4.86976 14.57323-10.06152 4.88127-5.03709 6.58236-10.03929 6.57997-10.92348 1.6193.46415 18.23182 7.00546 18.7637 8.34782.0.0 23.13725-5.1447 32.61632 27.29218 10.17964 42.51929-5.17433 82.965-14.14882 114.02162z" id="path3849-8-3"/><path style="display:inline;fill-opacity:1;fill:#000;opacity:1;stroke-dasharray:none;stroke-linecap:butt;stroke-linejoin:miter;stroke-miterlimit:4;stroke-opacity:1;stroke-width:0;stroke:#000" d="m275.66315 385.30704c-3.37067-27.44695 11.62557-130.34179 20.16917-165.30025l.80611.10099c.44243 13.37083-23.43787 107.05921-19.32049 169.18159.32638.0933-1.36143-3.9718-1.65479-3.9823z" id="path3851-9-2"/><path style="display:inline;fill-opacity:1;fill:#333;stroke-dasharray:none;stroke-linecap:butt;stroke-linejoin:miter;stroke-miterlimit:4;stroke-opacity:1;stroke-width:0;stroke:#000" d="m224.05743 416.09574c.7624 11.95002 31.24785 56.57108 51.26964 54.86889 13.4605-1.86072 25.30644-25.7986 87.63701-51.04142-5.52595-11.9083-21.17481-23.69568-27.71101-35.02007-45.102 11.9464-91.4758 7.08435-96.81614-2.31943.0.0-9.24651 21.79438-14.3795 33.51203z" id="path3855-4-7"/><path id="path3867-4-7" d="m275.55831 326.20226a4.9538808 5.0687276.0 01-4.95389 5.06874 4.9538808 5.0687276.0 01-4.95389-5.06874 4.9538808 5.0687276.0 014.95389-5.06873 4.9538808 5.0687276.0 014.95389 5.06873z" style="display:inline;fill-opacity:1;fill-rule:nonzero;fill:#000;opacity:1;stroke-dasharray:none;stroke-linecap:butt;stroke-linejoin:round;stroke-miterlimit:4;stroke-opacity:1;stroke-width:0;stroke:#000"/><path id="path3869-9-1" d="m273.21301 357.31488a4.9538808 5.0687276.0 01-4.95387 5.06873 4.9538808 5.0687276.0 01-4.95389-5.06873 4.9538808 5.0687276.0 014.95389-5.06874 4.9538808 5.0687276.0 014.95387 5.06874z" style="display:inline;fill-opacity:1;fill-rule:nonzero;fill:#000;opacity:1;stroke-dasharray:none;stroke-linecap:butt;stroke-linejoin:round;stroke-miterlimit:4;stroke-opacity:1;stroke-width:0;stroke:#000"/><path d="m329.87921 425.70416c-15.4791 1.19068-42.03653 26.26041-44.60913 30.99635 10.29989-9.14088 29.75951-26.28541 44.60913-30.99635z" class="shadow" id="path3871-9-9"/><path d="m262.13712 457.55245c-6.81704-9.41592-28.83006-31.99347-34.93819-34.15183 5.05404 5.44075 26.5203 25.35081 34.93819 34.15183z" class="shadow" id="path3873-2-2"/><path d="m329.8875 425.70175c-15.4791 1.19068-42.03653 26.26041-44.60913 30.99635 10.29989-9.14088 29.75951-26.28541 44.60913-30.99635z" class="shadow" id="path3875-2-8"/><path d="m262.14541 457.55004c-6.81704-9.41592-28.83006-31.99347-34.93819-34.15183 5.05404 5.44075 26.5203 25.35081 34.93819 34.15183z" class="shadow" id="path3877-7-4"/><path id="path3811-9-0-9" d="m280.17134 425.98848c.007-.14856-4.47624-37.37265-4.53848-37.5625.0.0 40.9305 1.90231 60.29792-4.2718.29791-.095 32.23968 23.29757 32.1423 23.38994-.0921.22131-87.90174 18.44436-87.90174 18.44436z" style="display:inline;fill-opacity:1;fill:#000;opacity:1;stroke-dasharray:none;stroke-linecap:butt;stroke-linejoin:miter;stroke-miterlimit:4;stroke-opacity:1;stroke-width:0;stroke:#000"/><path id="path3813-3-8-1" d="m271.88076 424.658c-.007-.59051 5.00259-38.81886 5.06483-39.00871.0.0-28.64491 1.50646-37.48108-7.6364-.21729-.22483-15.19625 32.30585-15.09887 32.39822.0921.22131 47.51512 14.24689 47.51512 14.24689z" style="display:inline;fill-opacity:1;fill:#000;opacity:1;stroke-dasharray:none;stroke-linecap:butt;stroke-linejoin:miter;stroke-miterlimit:4;stroke-opacity:1;stroke-width:0;stroke:#000"/><path id="path3815-9-9-0" d="m270.52737 422.30507c-.007-.14856 5.08477-37.14821 5.14701-37.33806.0.0-28.4888-2.44958-38.03208-8.18948-.26794-.16115-13.16493 32.66683-13.06755 32.7592.0921.22131 45.95262 12.76834 45.95262 12.76834z" style="display:inline;fill-opacity:1;fill:#333;opacity:1;stroke-dasharray:none;stroke-linecap:butt;stroke-linejoin:miter;stroke-miterlimit:4;stroke-opacity:1;stroke-width:0;stroke:#000"/><path id="path3817-4-3-1" d="m281.58308 423.73c.007-.14856-4.09105-35.68318-4.15329-35.87303.0.0 38.00166.80123 57.36908-5.37288.29791-.095 32.48209 23.1047 32.38471 23.19707-.0921.22131-85.6005 18.04884-85.6005 18.04884z" style="display:inline;fill-opacity:1;fill:#333;opacity:1;stroke-dasharray:none;stroke-linecap:butt;stroke-linejoin:miter;stroke-miterlimit:4;stroke-opacity:1;stroke-width:0;stroke:#000"/><path style="display:inline;fill-opacity:1;fill:#000;opacity:1;stroke-dasharray:none;stroke-linecap:butt;stroke-linejoin:miter;stroke-miterlimit:4;stroke-opacity:1;stroke-width:0;stroke:#000" d="m296.62879 220.18919c1.06858-.83912 8.5308-4.71832 13.55746-9.55492 5.1177-4.92419 6.74306-10.74206 7.93422-10.97277.0.0 12.60629 4.24062 12.6337 4.55667.0.0-14.52805 5.95833-13.99571 5.98076.27948.0112-.69114 5.29504-.69402 5.32749.002.01-19.43565 4.66277-19.43565 4.66277z" id="path3214-39-0-2"/><path style="display:inline;fill-opacity:1;fill:#333;opacity:1;stroke-dasharray:none;stroke-linecap:butt;stroke-linejoin:miter;stroke-miterlimit:4;stroke-opacity:1;stroke-width:0;stroke:#000" d="m297.17958 220.06456c1.00862-.82608 7.51601-3.32991 12.50512-7.84755 4.65959-4.21926 7.74274-10.87414 8.36114-12.61793.0.0 10.20394 4.09789 10.23022 4.41389.0.0-11.98708 6.03414-11.9004 6.0566.22667.0583-.91939 4.95712-.92215 4.98959.002.01-18.27393 5.0054-18.27393 5.0054z" id="path3221-1-1-7"/><path style="display:inline;fill-opacity:1;fill:#000;opacity:1;stroke-dasharray:none;stroke-linecap:butt;stroke-linejoin:miter;stroke-miterlimit:4;stroke-opacity:1;stroke-width:0;stroke:#000" d="m296.82849 220.23453c-.36502-.60704-4.86232-3.87182-7.56024-8.73696-2.57329-4.6404-3.03954-10.19381-3.158-10.23388.0.0-9.83812 3.10874-9.86553 3.42474.0.0 3.69183 3.36251 3.75897 3.66998.0.0 1.53352 5.10831 1.61731 5.71468.10169.0853 15.20749 6.16144 15.20749 6.16144z" id="path3223-7-28-9"/><path style="display:inline;fill-opacity:1;fill:#333;opacity:1;stroke-dasharray:none;stroke-linecap:butt;stroke-linejoin:miter;stroke-miterlimit:4;stroke-opacity:1;stroke-width:0;stroke:#000" d="m296.85558 220.4714c-.2026-.005-6.20219-4.1737-8.77331-9.15056-2.46951-4.78017-1.52622-10.37445-1.16535-10.47578.0.0-8.901 3.8035-9.05986 4.07535.0.0 3.3529 3.10962 3.41727 3.41722.0.0 1.10709 4.71681 1.25349 5.36732.0975.0854 14.32776 6.76645 14.32776 6.76645z" id="path3225-5-9-0"/><path style="display:inline;fill-opacity:1;fill:#c8c8c8;opacity:1;stroke-dasharray:none;stroke-linecap:butt;stroke-linejoin:miter;stroke-miterlimit:4;stroke-opacity:1;stroke-width:0;stroke:#000" d="m296.64318 220.20298c19.73971-9.50851 20.70859-20.85739 21.22937-20.97751.0.0 7.65644 4.38886 7.68055 4.70497.0.0-10.49608 5.94799-10.41655 5.97046.20799.0582-1.03938 4.18965-1.04198 4.22205-.23539.0883-17.46615 6.69246-17.4514 6.08003z" id="path3227-64-1-9"/><path style="display:inline;fill-opacity:1;fill:#c8c8c8;opacity:1;stroke-dasharray:none;stroke-linecap:butt;stroke-linejoin:miter;stroke-miterlimit:4;stroke-opacity:1;stroke-width:0;stroke:#000" d="m296.83585 220.19366c-12.64654-8.32171-9.82105-19.35465-9.95084-19.37273.0.0-6.62137 3.8232-6.64549 4.13929.0.0 3.05282 2.98344 3.0456 3.05213.0.0.3767 4.02552.51419 5.02959-.0834.43129 12.63971 7.94539 13.03654 7.15172z" id="path3229-9-7-7"/></svg>