<svg viewBox="0 0 560 1e3"><path d="m225.8 413.1s-22.14852 39.87228-23.29497 68.51492C198.70503 541.91492 215 608.9 237.1 664.9c7.5 61.7 14.8 123 17.3 185.1l11.5-.3c2.3-52.9 39.2-99.2 20.2-160.8 13.6-57.7 6.2-71.9 1-161-5.4 94.3 4.4 110.4 14.2 154.8-15.6 58 17.8 109.6 18.6 167.8h16.3c.2-58.5 16.4-95.2 8.5-169.5 23.8-69.9 44.2747-144.9934 39.4747-208.3934-3.35528-37.31145-32.71901-66.98036-40.61356-74.13075L225.8 413.1" id="path2833" style="fill-opacity:1;fill:gray"/><path d="M289.6 630.9C279.8 590.6 268.8 530 272.8 483.8c-.8 44.7 7.6 106.4 16.8 147.1z" class="shadow" id="path2835"/><path d="m226.3 412.5c27.9-30 93.7-36.4 123.8-1.4 18.2 21.2 25.4 60.2 7 78.9-8.2 8.3-22.1 13.3-35 11-24.2-4.4-25.9-31.9-47.3-34.5C256.7 464.3 248.5 483 231 478 220.9 475.1 221.28701 468.07973 218.48701 460.07973 216.5943 437.63189 223.7 415.2 226.3 412.5z" id="Stump_Normal-3-6" style="fill-opacity:1;fill:gray"/><path d="m226.3 412.5c20-34.8 104.4-37.1 124-1.5 11.9 21.7 1.4 60.5-22.3 72-.8.4-20.2 9.5-34 1-9.5-5.8-10.3-16.2-19.3-17.5-6.4-1-8.4 3.9-17.8 5.5-9.2 1.5-18.7-1.3-24-5-14.1-9.8-16-38.2-6.6-54.5z" id="Stump_Narrow-10-3" style="fill-opacity:1;fill:gray"/><path style="display:inline;fill-opacity:1;fill:#b3b3b3;stroke-width:.94552505" id="path2496-4-8-3-3-1" d="m333.83345 829.57196c-.14663-9.66929.35555-28.36645.94632-49.37836.008-.27199 7.7397.2662 7.77299-.005.48863-3.97529 1.23025-8.4699 1.47091-12.74908.014-.24939-9.03788-.52095-9.03094-.77088.92867-33.42349 1.91472-69.16605.67629-82.22479-.0124-.13082 9.38388-.19198 9.37103-.31821-.12857-1.01983-.18488-2.52394-.23143-2.77868.0562-.33413 1.34466-4.32082 1.52046-5.17952-.31027.031-5.42083.16068-10.49768.12598-.0571-39e-5.47581-21.35725-4.90634-51.35531-.0819-.4566 31.86736-.53335 31.98734-.98535 1.10649-4.16901 3.55394-11.46459 3.90423-14.36685.0548-.45421-38.24226 1.83151-38.27301 1.37268-1.4497-21.63088-6.65148-52.40333-8.05018-73.01871-.0312-.45943 61.36585.068 61.40241-.38975.54054-6.76801 2.17338-14.9761 1.85365-19.30214-.0432-.58461-64.43071.093-64.49453-.48573-4.30542-44.85649 14.60227-65.15936 41.67673-100.01164-1.87036-3.6521-5.82394-7.41913-6.53849-8.06776-35.66653 39.36299-58.92827 66.59486-56.19049 108.95616.0315.32654-24.52312.4614-24.49106.78835.6152 6.27414.70276 13.19592 1.51057 19.57017.0404.31888 24.24247-1.68175 24.2833-1.36278 3.22921 25.22594 8.11642 51.41496 12.49448 73.35846.0521.2611-26.09035 2.47165-26.03828 2.73181.93429 4.66834 1.82646 9.00087 2.80504 13.3312.06.2656 26.02723-2.1087 26.08318-1.84366 6.354 30.09637 11.78578 51.00052 11.7006 50.99983-6.89693-.0557-25.81651.44173-26.68317.52733.11519.90904.95291 4.79238 1.10496 5.22553-.0321.25866-.28734 1.68336-.50822 2.6519-.003.14114 26.79344-.0519 26.78998.10209-.22573 10.06683-.96754 47.2983-1.60548 81.40691-.006.29528-21.26607.32738-21.22974.62004.57925 4.66593 2.841 11.75787 3.25145 13.6516.0814.37568 17.97361-.24866 17.96696.13377-.40944 23.55211-1.02271 43.63116-.85286 48.89443.0115.35502-5.8584.94802-5.80737 1.30181.75002 5.19982 1.28341 15.05954 1.14876 19.76236 8.60784.43817 16.69164-.0977 16.69164-.0977l.41703-20.31547s-3.39525-.12455-3.40103-.50581z"/><path style="display:inline;fill-opacity:1;fill:#b3b3b3;stroke-width:.94552505" id="path2496-4-8-1-5-6-0" d="m261.34979 828.41197c-.14663-9.66929-.43995-27.92451.15082-48.93642.008-.27199 20.38486.79168 20.43981.52403.79799-3.8869 3.01058-8.93774 3.47221-12.37723.0332-.24756-23.7855-1.86378-23.77856-2.11371.92867-33.42349 2.87811-68.90088 1.63968-81.95962-.0124-.13082 23.92707 1.09807 23.91422.97184.36305-3.06002 1.48471-5.51891 1.69972-8.20452-.45962.0459-15.65956-.9427-24.88628-1.13622-.13282-.003-2.23467-19.88171-8.24509-48.23447-.0524-.24702 32.91418.53126 32.90865.27748-.0191-.87711-2.55925-10.58476-2.8654-13.49065-.0376-.35668-32.34852-.6052-32.41884-.95884-4.32175-21.73601-10.1397-48.60806-12.52649-72.93168-.0693-.70655 33.05031.11576 32.98406-.58998-.61943-6.59885-1.08088-12.49278-1.57054-19.8288-.0359-.53741-32.55278 1.14971-32.57649.61323 2.10374-62.22402-13.78389-98.81426-16.00302-102.79575.32286-2.75119-6.75884 11.33453-6.81635 13.73052 5.96498 25.16653 4.51371 43.7113 4.76783 89.55352.0172.26978-19.03706 1.21944-19.01952 1.48914.41576 6.3906 1.21577 13.34979 1.81582 19.65297.0261.27445 18.48829-1.25431 18.51473-.98011 2.53365 26.27891 11.67996 51.62657 15.60393 72.81818.0348.18808-18.90328.86645-18.86845 1.05393.89561 4.82061 3.45072 11.55117 4.68678 14.97218.0866.23979 16.91409-1.74582 16.9642-1.49731 5.78934 28.70444 12.7545 46.96223 12.53788 46.95977-2.97529-.0338-15.00925.7282-15.53521.7804.12826 1.42381.84039 7.3504 1.12708 8.76131-.003.14114 15.30694-1.12955 15.30348-.97557-.22573 10.06683.90746 47.4233.26952 81.53191-.006.29528-6.67794.36955-6.66648.66424.1815 4.66593 1.03927 11.60699 1.2287 13.81008.0329.38299 4.96358-.66477 4.96566-.28229.0325 5.96283.92184 43.71955 1.09169 48.98282.0115.35502-2.24256 1.17582-2.22987 1.53305.1313 3.69722.88789 15.44702.75324 20.14984 8.60784.43817 12.00706-.36287 12.00706-.36287.21814-6.83383 1.22923-13.35915 2.1406-19.96191.0.0-6.97498-.83166-6.98076-1.21292z"/></svg>