<svg viewBox="0 0 560 1e3"><path d="m274.22874 163.7403.18459.0441c1.13336-.15224 4.12051-4.54566 6.71792-2.9431 1.78388-1.79923 9.75547 2.22742 14.80161 2.90764-1.02718 1.59873-5.43201 6.65963-13.0452 7.65887-5.95821-1.45687-8.44457-7.44345-8.65892-7.66755z" id="path2558-9-2" class="lip"/><path id="path7182" d="m280.95347 171.29059c-.58826-.18813-1.31019-.3473-1.60431-.35374-.51647-.0113-.74054-.27347-.338-.39545.10822-.0327-.15431-.44588-.58339-.91795-1.04984-1.15501-1.01367-1.62472.0463-.60134.99214.95792 1.58361 1.24733 3.55337 1.73862 1.42849.35628 1.55672.36075 2.72119.0948.67215-.15349 1.90318-.51752 2.73563-.80894.83245-.29142 1.54302-.50305 1.57904-.47031.0359.0327-.29569.27686-.73716.54248-2.16975 1.30539-5.36635 1.81346-7.37268 1.17181zm7.97297-5.4506c-.37435-.0311-1.51195-.2231-2.52801-.42663-2.76997-.55486-2.85132-.56102-3.33611-.25231-.55134.35108-1.02176.35956-1.58093.0285-.3724-.22049-.70594-.22215-2.46434-.0123-1.11852.13351-2.10116.20479-2.18369.15842-.0826-.0464-.33272.005-.55601.11324-.51122.24872-1.19961-.12195-1.74972-.94216-.80227-1.1962-.2784-1.3484 1.03196-.29978.82253.65824.96494.70717 2.05776.70717.64573.0 1.22816-.0796 1.29426-.17678.0661-.0973.38775-.1768.71478-.1768.49884.0.57821-.057.49289-.35359-.13445-.46735-.0596-.45123.94204.20271l.85205.55629.97469-.36824c.55741-.21061 1.02286-.29739 1.08724-.20273.0619.0911.39176.1665.73305.16766.6426.002 1.99402.31269 3.34301.76813.5638.19034 1.23273.23688 2.43078.16909 1.49605-.0847 1.75234-.15463 2.70019-.73741.57598-.35414 1.27604-.7827 1.5557-.95235 1.26097-.76498 1.66078.1109.55247 1.21036-.48044.47661-.87397.67226-1.60431.79754-.88624.15202-3.07347.1621-4.75975.0219zm-8.70817-4.90432c-.49422-.19524-.74631-.20711-1.11897-.0528-.65678.27204-.84032.0378-.3323-.42408.37704-.34278.4904-.3593 1.17854-.17188 1.01091.27537 1.59587.26148 2.43641-.0578 1.01178-.38434 1.43606-.33538 2.9508.34038 1.51906.67771 1.32456.81557-.39279.2784-.62175-.19447-1.29524-.3536-1.49666-.3536-.20143.0-.70929.15913-1.12859.3536-.89352.41442-1.23342.42864-2.09644.0877z" style="fill:#000;stroke-width:.18541756"/></svg>