<svg viewBox="0 0 560 1e3"><path id="path1656" d="m370.32736 269.21102c4.28577 34.66716-11.3965 68.46502-13.27587 78.48816 7.90451 19.87043 24.93286 52.52479 6.21062 69.72357-71.30488 20.12453-75.39173 29.49551-84.38426 50.35729-.26944.20641-1.13656 1.14752-4.58251.28177-.17413-.0437-1.37345.71664-3.61847.0361-21.82469-31.74709-33.64663-44.60472-44.89975-55.07022-14.98732-38.31436 4.70483-66.54446 11.54854-92.89829-.10903-.84586-2.00634-16.72794-2.03869-27.65439-.1106-32.76834-3.78232-62.01862 41.18334-85.69274-.63873-.33426 2.72387-3.1709 7.2484-5.57324 6.38934-8.53563 5.53943-17.91786 6.19018-18.8806 3.41216-5.04803 22.0725-14.82189 24.51892-9.29893.28194.63651-.0963 18.38259 4.92767 25.79025 1.50252 1.12706 7.85193 4.64722 6.63644 5.44617-59.64798 34.7469 1.82837 42.20589 38.19229 63.32537z" style="display:inline;fill-opacity:1;fill-rule:evenodd;fill:#000;opacity:1;stroke-dasharray:none;stroke-linecap:butt;stroke-linejoin:miter;stroke-miterlimit:4;stroke-opacity:1;stroke-width:0;stroke:#000"/><path id="path1658" d="m355.63983 346.88437c1.34356 7.732 25.65079 47.5423 8.44962 70.41939 9.76847 17.81956-78.2481 39.32739-79.01977 41.66516-.78385 1.88787-3.29932 8.5329-5.79622 10.31331-1.21712.86786-4.8236-.18577-5.07554-.20987-.29397-.0276-1.12355.44604-3.33637-.1263-5.65546-1.4629-9.47467-5.19754-10.04678-7.14824-28.68416-20.30472-36.21661-33.10048-35.28517-48.25479-12.33374-38.77307 8.04714-68.31245 13.09625-93.82723-10.09207-76.26297 3.61735-106.43783 46.72479-118.14372 5.33294-8.35978 4.47937-16.82837 5.55606-16.92645 10.85789-.98906 16.98793-11.06455 22.37004-11.2945.95246-.0407-.87894 16.73549 5.50706 26.58167 1.48672 1.12706 17.38807 5.34921 17.91995 6.69157 12.23055 1.62014 28.38973 10.37821 31.6923 23.00496 15.66202 45.7671-8.82453 104.16794-12.75622 117.25504z" style="display:inline;fill-opacity:1;fill-rule:evenodd;fill:#502;opacity:1;stroke-dasharray:none;stroke-linecap:butt;stroke-linejoin:miter;stroke-miterlimit:4;stroke-opacity:1;stroke-width:0;stroke:#000"/><path id="path1668-1-8" d="m364.08945 417.43131c9.76847 18.79787-78.2481 41.4865-79.01977 43.95261-.78385 1.99152-3.29932 9.00137-5.79622 10.87952-1.21712.91551-4.8236-.19597-5.07554-.22139-.29397-.0291-1.12355.47053-3.33637-.13323-5.65546-1.54322-9.47467-5.48289-10.04678-7.54069-28.68416-21.41947-37.46661-33.4013-36.53517-49.3876 18.51826 7.13307 74.7395 18.13652 139.80985 2.45078z" style="display:inline;fill-opacity:1;fill-rule:evenodd;fill:#333;opacity:1;stroke-dasharray:none;stroke-linecap:butt;stroke-linejoin:miter;stroke-miterlimit:4;stroke-opacity:1;stroke-width:0;stroke:#000"/><path d="m329.8875 425.70175c-15.4791 1.19068-42.03653 26.26041-44.60913 30.99635 10.29989-9.14088 29.75951-26.28541 44.60913-30.99635z" class="shadow" id="path1660"/><path d="m262.14541 457.55004c-6.81704-9.41592-28.83006-31.99347-34.93819-34.15183 5.05404 5.44075 26.5203 25.35081 34.93819 34.15183z" class="shadow" id="path1662"/><path style="display:inline;fill:none;stroke-dasharray:none;stroke-linecap:butt;stroke-linejoin:miter;stroke-miterlimit:4;stroke-opacity:1;stroke-width:2.5;stroke:#000" d="m364.39776 417.404c-47.6419 8.32523-108.735 13.21262-139.84597-3.08969" id="path1693-1"/></svg>