<svg viewBox="0 0 560 1e3"><path id="path756" class="shadow" d="m226 413.2c18.5 5 17.1 34.5 49.8 54.3 7.3-16.9 20.1-24.2 32.6-34.3 12.4-10 20-18 41.9-21.9-7-14.9-12.2-22.2-15.8-26.1-.9-1-3.9-4.1-6-9 0 0-1.9-4.4-2.3-9-.4-4.8 1.1-10.5 13.5-27.3 9-12.2 10.8-12.6 14.5-19.8 3.7-7.1 5.4-13.1 6.8-18.3 2.9-11 4.7-22.8 4-28.5-4.3-37.3-74.4-71.5-103.8-51.8-4.3 2.9-6.8 6.3-10 10.7-13.9 19-15.0481 41.62678-14.3481 58.12678.3 6.4 3.1481 15.47322 5.7481 26.87322 3.8 16.5 1 28.2.8 32.5-.2 4.5-.7 12.2-2.3 21-1.9 9.9-5.7 25-15.1 42.5z"/><path id="path758" class="skin torso" d="m272.9 208.2s-12.16653 5.2045-24.7 28.3c-13.02433 24-11.89644 59.4-4.4 81 2.2 23 .8 29.8-1.3 49.9-1.1 10.1-9.65 25.2-17.25 45.9 17.9 5.5 32.55 50.5 50.55 54.3 8.9-18.2 32.8-45.5 74.6-56.2-9.1-20.7-25.12583-29.83259-26.42583-42.83259C322.37417 352.66741 348.2 331.7 355.3 315.8c8.9-21.9 18.3-62.5 10.5-86-11.7-22-21.9-21.1-21.9-21.1-32.7-3.4-35-14-30.7-50.1l-22.3 1c8.3 43.5-2.9 39.9-18 48.6" transform="translate(0.50000002)"/><path d="m283.66521 456.38067c-1.54841.73859-1.78928 15.78672-9.24659 11.14886-5.5459 3.1603-10.12915-4.94173-10.42429-8.4126-.25114-2.95343 3.37748-7.20053 3.87403-6.51846 2.14579-.003 16.30971 2.85987 15.79685 3.7822z" class="shadow" id="Body_Unnatural_Pussyshadow"/><path d="m274.36595 467.58332c-3.81452 2.31718-9.64064-2.27902-10.8644-11.68664 5.95334-21.67633 25.49385-8.31185 20.23612.35499-2.87984 4.74713-3.52005 14.37508-9.37172 11.33165z" class="skin torso" id="Body_Unnatural_Pussy"/><path class="bellybutton" d="m271.54026 376.44844c.0782 1.21363-.39233 3.20481-1.35826 3.28497-.96592.0802-1.48021-1.74966-1.55841-2.96328-.0782-1.21363.42001-3.09486 1.38594-3.17502.96593-.0802 1.45253 1.6397 1.53073 2.85333z" id="path5405-7-9-0-4-6"/></svg>