<svg viewBox="0 0 560 1e3"><path style="display:inline;fill-opacity:1;fill-rule:evenodd;fill:#000;opacity:1;stroke-dasharray:none;stroke-linecap:butt;stroke-linejoin:miter;stroke-miterlimit:4;stroke-opacity:1;stroke-width:0;stroke:#000" d="m370.7693 268.87447c3.52172 20.48717.86803 56.80588-5.35086 79.7652 3.97319 8.70104 17.9575 44.73476-1.45712 68.69976 10.57756 21.02839 5.75651 39.71572 2.38932 56.15462-28.74941 10.97356-96.21798 3.03387-150.5054.20032-2.02999.80617 4.19609-43.62157 7.1834-56.20536.77197-3.25187-.20233 4.75604 2.07638-.89844-18.15881-31.18484-.13173-73.01617 8.52752-97.7603-1.37727-8.79357-2.55728-42.69181 4.05587-62.85659 3.63412-5.66102 14.10957 5.79305 21.30284 6.33114 8.69146.65015 17.55283-9.17274 23.75275-5.81295 3.13994 1.52156 58.67895 12.39605 59.78506 13.22063z" id="path3995-7-9-1"/><path style="display:inline;fill-opacity:1;fill-rule:evenodd;fill:#c8c8c8;opacity:1;stroke-dasharray:none;stroke-linecap:butt;stroke-linejoin:miter;stroke-miterlimit:4;stroke-opacity:1;stroke-width:0;stroke:#000" d="m363.79673 348.24282c11.34128 24.12529 13.0759 51.08867.18114 68.84834 10.64422 16.38765 8.67712 33.21345 3.15304 53.59391-26.39875 10.6272-86.57167 2.2015-152.37059.37493-2.03599.32806 4.05176-43.3098 8.37553-54.64812-6.02646-34.08494-7.95996-41.12004 12.14628-96.56011-7.72835-55.96882 5.28965-83.20127 22.21861-110.49179 15.74989 2.628 27.88781-8.02562 28.01763-7.59445 7.15246 23.75343 21.44285 10.11127 35.74355 1.61406.4901-.29121 12.74485 18.90619 43.07923 14.71327 2.64376 1.54772 5.52026 17.19226 5.86683 30.63013 4.4302 35.978.24924 77.40663-6.41125 99.51983z" id="path3997-4-9-7"/><path d="m329.89929 425.67494c-15.4791 1.1907-42.03651 26.26042-44.60911 30.99636 10.29989-9.14087 29.75949-26.28541 44.60911-30.99636z" class="shadow" id="path3999-9-3-2"/><path d="m262.15722 457.52324c-6.81704-9.4159-28.83006-31.99347-34.93819-34.15181 5.05404 5.44074 26.5203 25.3508 34.93819 34.15181z" class="shadow" id="path4001-9-9-2"/><path d="m370.89498 248.85339c-14.28762 3.46024-39.57781.22277-63.5545-.0624-.76871-.009-4.55296 23.42666-5.31897 23.41328-8.14483-.14249-16.64543-1.06231-23.96321-1.70086-.83551-.0729 2.41889-23.05924 1.60111-23.13883-16.6858-1.62375-33.60015-3.51627-38.67402-5.69078-.51151-.21921 12.58233-30.15303 13.25023-31.36701 11.99393-3.25194 31.3522-9.53386 31.47144-9.18913 7.71543 22.30266 16.35056 11.23103 34.41957-.54857.0.0 29.3116 7.03593 36.79641 12.07205 17.24413 5.61042 13.97194 36.21225 13.97194 36.21225z" id="path3978-6-1-3-3-9" style="display:inline;fill:#502;stroke-width:1.00814641"/><path d="m369.91774 259.25062c-3.7718-.065-55.86951-.70072-57.05649-.3815-.4974.13379-3.99791 19.68793-4.51296 19.67977-8.48951-.13455-28.85702-1.73333-37.31764-2.24916-.29597-.0189.62937-21.38529.3354-21.39934-17.28598-.82592-31.72533-1.75111-34.08711-1.95465.13164-1.49604.66104-5.11893 1.34572-5.00908 8.27579 1.32769 24.30102 2.8718 37.74911 3.84827.41486.0302-1.5189 20.7581-1.10143 20.78785 9.95814.70983 19.25189 1.38799 29.67992 1.87441.38537.0189 4.49685-20.73547 4.88151-20.71781 31.2493 1.43402 59.9971 1.79553 60.41689.71697.50558-1.29888 1.17208 3.41117-.33291 4.80427z" id="path3978-6-4-2-6-9-9" style="display:inline;fill:#502;stroke-width:1.00190759"/><path d="m367.84367 468.12497c-26.81535 11.46066-145.0815-.0265-153.50995-.54391.0933-.41288-.35901-.19125.21593-2.78132 9.92029.70983 121.67372 11.18207 153.6895 1.07966-.02 1.01102-.28929 1.98081-.39546 2.24557z" id="path3978-6-4-8-8-3-5-7-6" style="display:inline;fill:#502;stroke-width:.99999994"/></svg>