<svg viewBox="0 0 560 1e3"><path d="m192.05284 429.99976c.48932-.20323 1.28167.0372 1.73591-.16962 21.61626-9.84235 3.72749-24.00515-1.65881-23.32772-14.5358 5.09748-8.94423 19.50876-4.20823 20.30295.068.0493.56542 1.26396 4.13111 3.19439z" id="path2225" style="fill:#000"/><path d="m188.14867 425.23525c7.74811 4.63931 16.81142-2.43664 16.72694-6.39826-2.26237-6.42082-6.90817-12.16918-13.3179-10.92153-10.01534 3.89442-10.15794 11.77724-5.30353 17.77895.47588.36539 1.09488-.28056 1.89449-.45916z" id="path2227" class="areola"/><path d="m238.35689 463.21142c20.3081 5.65838 40.77224 12.21458 47.78916-5.37252 2.16536-6.08148.77508-10.38443-3.56185-11.9621-17.90369-5.58778-56.00418-21.95805-67.13726-32.42962-1.53711-2.35338-1.2785-2.69245-2.84206-4.30764-3.31491-3.42431-7.57638-3.07489-11.05925-2.88427-2.09891.11483-7.64667-.53092-9.33147.14002-1.41529.56368-2.51975 1.36324-3.32496 2.38328-.25035.31708 1.66294-.69279 1.84248-.82813 5.05591-3.80998 25.25444 12.21581 2.74229 21.60126-2.08395.86881-8.4679-5.61505-8.41101-5.39391.36417 1.41554 2.79518 3.64389 4.93436 5.0698 1.27732.8514 2.7306 1.1699 3.24814 2.08378 6.22126 10.98605 19.93777 23.04872 45.11143 31.89976z" id="path2229" style="fill:#000"/><path d="m186.36871 420.25939c.11006.80629 1.10383 2.44062 2.17889 2.73518-.01-.0399-.2643-1.43133-.27458-1.47363-.34777-1.42882-1.88659-5.63542.62395-10.35676-2.5256 2.8586-2.98138 5.68899-2.52826 9.09521z" id="path2231" style="fill:#000"/><path d="m239.44856 462.16343c20.11815 5.60547 39.45134 13.3237 47.32393-4.05129 2.14509-6.02459 2.0109-9.45165-2.2855-11.01456-18.66645-4.47198-58.05989-21.42532-69.08886-31.79895-1.5227-2.33139-1.26651-2.66728-2.81547-4.26736-3.28389-3.39228-6.16902-4.20911-9.61929-4.02027-2.07929.11375-7.31891-.21756-9.09976.0664.50289.29836 2.14444.16467 4.31853 1.6662 3.17235 2.19097 6.48168 5.90743 6.70508 9.81064.28982 5.06413-8.02762 12.29444-16.607 7.355-.4294-.24719-1.12781.22725-1.42772.33041-.3439.22902 8.06611 5.20659 7.88828 5.59331 6.16307 10.88328 19.76953 21.56217 44.70775 30.33041z" class="skin penis" id="path2233"/></svg>