<svg viewBox="0 0 560 1e3"><path id="path5658" d="m208.08928 477.72908c.69918-.5941 5.36337-2.15652 7.61566-2.92917.23605-4.57227.74589-9.21024.98282-10.34013-1.16514.44919-2.98834.15509-6.56463 2.08512-.0474.21431-1.87163 6.53151-2.03385 11.18418z" style="display:inline;fill-opacity:1;fill:maroon;stroke-dasharray:none;stroke-linecap:butt;stroke-linejoin:miter;stroke-miterlimit:4;stroke-opacity:1;stroke-width:0;stroke:#000"/><path id="path5660" d="m209.5091 468.99804c2.76219-2.4133 6.2829-3.61362 7.01445-3.93454 1.28162-11.75969 3.06884-31.65281 5.73201-42.53007-.8429 2.00417-12.58424 41.81194-12.74646 46.46461z" style="display:inline;fill-opacity:1;fill:maroon;stroke-dasharray:none;stroke-linecap:butt;stroke-linejoin:miter;stroke-miterlimit:4;stroke-opacity:1;stroke-width:0;stroke:#000"/><path id="path5662" class="shadow" d="m283.66521 456.38067c-1.54841.73859-1.78928 15.78672-9.24659 11.14886-5.5459 3.1603-10.12915-4.94173-10.42429-8.4126-.25114-2.95343 3.37748-7.20053 3.87403-6.51846 2.14579-.003 16.30971 2.85987 15.79685 3.7822z"/><path id="path5664" class="skin torso" d="m274.36595 467.58332c-3.81452 2.31718-9.64064-2.27902-10.8644-11.68664 5.95334-21.67633 25.49385-8.31185 20.23612.35499-2.87984 4.74713-3.52005 14.37508-9.37172 11.33165z"/><path style="display:inline;fill-opacity:1;fill:#000;stroke-dasharray:none;stroke-linecap:butt;stroke-linejoin:miter;stroke-miterlimit:4;stroke-opacity:1;stroke-width:0;stroke:#000" d="m275.1906 478.61218c27.3515-5.55275 87.9134-1.91457 95.21552 1.04811 2.65835-10.3326-5.45294-43.91959-8.30378-48.23452-2.68621-6.082-11.77109-19.93812-12.39996-21.91039-.0813-.25494-.70857-2.49571-.70857-2.49571-22.65767 4.89275-39.56413 7.60141-60.05248 8.19626-24.22046.7032-47.2185-2.20107-60.45696-7.53731-6.53457 6.49136-19.11282 42.88324-20.04853 69.75416 14.45962-2.80233 39.04615-5.37432 66.75476 1.1794z" id="path5666"/><path id="path5668" d="m208.12773 477.66455c20.47367-7.92632 61.7395-2.98765 67.11679 1.0522.0798-4.49415 1.05695-10.70077 1.29388-11.83066-42.61622-7.91998-62.55861-2.89785-66.47865-1.31157-.0162.94868-1.7698 7.43736-1.93202 12.09003z" style="display:inline;fill-opacity:1;fill:#999;stroke-dasharray:none;stroke-linecap:butt;stroke-linejoin:miter;stroke-miterlimit:4;stroke-opacity:1;stroke-width:0;stroke:#000"/><path id="path5670" d="m275.2174 478.60926c20.47367-7.92632 89.98768-2.93349 95.36497 1.10636 1.22885-4.40576 1.05695-7.69556 1.29388-8.82545-45.09109-9.06903-92.17692-4.20895-96.09696-2.62267-.0162.94868-.53225 5.73329-.56189 10.34176z" style="display:inline;fill-opacity:1;fill:#999;stroke-dasharray:none;stroke-linecap:butt;stroke-linejoin:miter;stroke-miterlimit:4;stroke-opacity:1;stroke-width:0;stroke:#000"/><path id="path5672" d="m210.02231 465.70903c9.85266-3.69513 44.83927-4.51457 58.12791 1.13139 1.97544 1.15064 3.44304 1.50895 6.29117.74829 1.48394 1.11892 3.67809 1.01117 5.52348-.15189 69.74911-5.15378 91.25981 5.37844 91.80614 4.82354 2.65835-10.3326-3.86195-34.90398-6.71279-39.21891-2.68621-6.082-14.36208-21.59529-14.99095-23.56756-.0813-.25494-1.22374-2.21355-1.22374-2.21355-45.10201 11.9464-93.79805 12.4646-120.26832.58222-.12493-.0561-10.13222 11.32902-18.5529 57.86647z" style="display:inline;fill-opacity:1;fill:#4d4d4d;stroke-dasharray:none;stroke-linecap:butt;stroke-linejoin:miter;stroke-miterlimit:4;stroke-opacity:1;stroke-width:0;stroke:#000"/><path id="path5674" d="m226.43714 411.39001c35.65478 14.81043 108.78953 7.12999 124.04699-1.19349-.98086-2.37283-1.00632-2.28871-1.45689-3.1686-58.31295 15.78964-104.54469 8.55584-120.51489.71465-.32556.70561-.85233.93932-2.07521 3.64744z" style="display:inline;fill-opacity:1;fill:#8aa7ff;stroke-dasharray:none;stroke-linecap:butt;stroke-linejoin:miter;stroke-miterlimit:4;stroke-opacity:1;stroke-width:0;stroke:#000"/><path id="path5676" d="m275.25299 462.86252c-12.30071-3.84341-9.97725-39.56452-8.12905-43.86741.10337-.24065 6.70466-.007 6.80117-.0386-.14286-.008-.28501-.0153-.42641-.0219-4.0967-.18979-7.561.22503-9.12434-.44654-1.55247 9.38892-6.14341 45.13839 10.87863 44.37445z" style="display:inline;fill-opacity:1;fill:#8aa7ff;stroke-dasharray:none;stroke-linecap:butt;stroke-linejoin:miter;stroke-miterlimit:4;stroke-opacity:1;stroke-width:0;stroke:#000"/><path id="path5678" d="m356.28203 444.8129c-31.56327-6.76001-36.1698-23.53296-36.97785-28.4296-1.02422-.29348-2.03709.77235-2.39603.55362-.0837 1.32642 8.867 25.77488 39.37388 27.87598z" style="display:inline;fill-opacity:1;fill:#999;stroke-dasharray:none;stroke-linecap:butt;stroke-linejoin:miter;stroke-miterlimit:4;stroke-opacity:1;stroke-width:0;stroke:#000"/><path id="path5680" d="m222.23265 435.35375c9.31024-1.01499 16.8449-15.62419 16.03685-20.52083-1.02422-.29348-.41393-.14186-.77287-.36059-.0837 1.32642-2.08336 14.40532-15.26398 20.88142z" style="display:inline;fill-opacity:1;fill:#999;stroke-dasharray:none;stroke-linecap:butt;stroke-linejoin:miter;stroke-miterlimit:4;stroke-opacity:1;stroke-width:0;stroke:#000"/><path d="m329.90785 425.6821c-15.4791 1.19068-42.03653 26.26041-44.60913 30.99635 10.29989-9.14088 29.75951-26.28541 44.60913-30.99635z" class="shadow" id="path5682"/><path d="m262.16576 457.53039c-6.81704-9.41592-28.83006-31.99347-34.93819-34.15183 5.05404 5.44075 26.5203 25.35081 34.93819 34.15183z" class="shadow" id="path5684"/><path id="path5686" class="shadow" d="m262.98857 459.03749c4.57815 9.39542 7.95428 8.94718 11.45233 8.01034.29456-.0789 5.02218 4.77996 9.26343-8.71666-1.38475 8.70911-4.94655 11.61521-9.3291 9.47151-.0226-.0111-2.82256 1.04466-4.71233.003-2.95847-1.63089-6.486-5.556-6.67433-8.7681z"/><path id="path5688" class="shadow" d="m274.84429 467.66511c-.33521 1.70859.19151 9.15085.3994 10.94825-1.47124-.0994-1.90021-9.61487-.3994-10.94825z"/></svg>