<svg viewBox="0 0 560 1e3"><path id="path3397-1-0" d="m370.7693 265.62447c4.15259 34.1206-9.10331 68.01197-13.71729 82.52441 1.34819 4.45103 27.59811 46.17117 7.76991 69.43427 3.32756 13.77838 4.89591 39.472 1.52872 55.91089-26.62809 12.91809-96.218 3.03387-150.5054.2004-2.02999.80618 4.19609-43.62156 7.1834-56.20537-3.22837-27.33171-7.73596-37.32805 13.92526-96.7338-2.13067-18.82483-3.8788-45.36021.91647-63.56183 36.56608 2.75868 87.00631 15.07452 132.89893 8.43103z" style="display:inline;fill-opacity:1;fill-rule:evenodd;fill:#000;opacity:1;stroke-dasharray:none;stroke-linecap:butt;stroke-linejoin:miter;stroke-miterlimit:4;stroke-opacity:1;stroke-width:0;stroke:#000"/><path id="path3399-0-0" d="m369.97602 266.81519c3.82231 32.65192-9.74038 64.80659-13.7043 81.43682 7.87423 20.8753 22.69116 48.6046 7.57156 68.53736 1.31474 4.13765 8.80975 33.51522 3.30669 53.89569-25.41779 14.33953-86.24235 2.2015-151.79093.37494-2.02825.32824 3.92404-43.35344 8.34366-54.64812-5.45978-37.41745 4.38021-65.78801 14.82328-95.18877-1.53879-8.37113-4.34618-47.57888.1574-64.99286 30.93622 7.12848 60.98533-9.63902 95.12187 1.11745 17.70972 10.28479 36.17077 9.46749 36.17077 9.46749z" style="display:inline;fill-opacity:1;fill-rule:evenodd;fill:#1a1a1a;opacity:1;stroke-dasharray:none;stroke-linecap:butt;stroke-linejoin:miter;stroke-miterlimit:4;stroke-opacity:1;stroke-width:0;stroke:#000"/><path id="path3401-5-8" class="shadow" d="m329.89929 425.67495c-15.4791 1.19068-42.03653 26.26041-44.60913 30.99635 10.29989-9.14088 29.75951-26.28541 44.60913-30.99635z"/><path id="path3406-9-9" class="shadow" d="m262.1572 457.52324c-6.81704-9.41592-28.83006-31.99347-34.93819-34.15183 5.05404 5.44075 26.5203 25.35081 34.93819 34.15183z"/></svg>