<svg viewBox="0 0 560 1e3"><path id="path6021-0-3-4" d="m370.32736 269.21102c4.28577 34.66716-3.44155 69.52568-5.32092 79.54882 7.90451 19.87043 16.97791 51.46413-1.74433 68.66291-71.30488 20.12453-75.39173 29.49551-84.38426 50.35729-.26944.20641-1.13656 1.14752-4.58251.28177-.17413-.0437-1.37345.71664-3.61847.0361-21.82469-31.74709-34.88407-41.95307-46.13719-52.41857-14.98732-38.31436 2.40674-70.61032 9.25045-96.96415-1.09392-12.81831-1.44271-24.27588-1.32943-36.24472.28672-28.50353 4.15159-54.70322 44.00961-75.6882-.63873-.33426 2.72387-3.1709 7.2484-5.57324 6.38934-8.53563 5.53943-17.91786 6.19018-18.8806 3.41216-5.04803 22.0725-14.82189 24.51892-9.29893.28194.63651-.0963 18.38259 4.92767 25.79025 1.50252 1.12706 7.85193 4.64722 6.63644 5.44617-59.64798 34.7469 1.82837 42.20589 38.19229 63.32537z" style="display:inline;fill-opacity:1;fill-rule:evenodd;fill:#000;opacity:1;stroke-dasharray:none;stroke-linecap:butt;stroke-linejoin:miter;stroke-miterlimit:4;stroke-opacity:1;stroke-width:0;stroke:#000"/><path id="path6023-6-1-1" d="m363.77156 348.47536c1.34356 7.732 19.51906 43.70131.31789 68.8284 9.76847 17.81956-78.2481 39.32739-79.01977 41.66516-.78385 1.88787-3.29932 8.5329-5.79622 10.31331-1.21712.86786-4.8236-.18577-5.07554-.20987-.29397-.0276-1.12355.44604-3.33637-.1263-5.65546-1.4629-9.47467-5.19754-10.04678-7.14824-28.68416-20.30472-36.21661-33.10048-35.28517-48.25479-15.86927-39.48018 5.21871-69.90344 10.26782-95.41822-9.73851-74.31843 6.44578-104.84684 49.55322-116.55273 5.33294-8.35978 4.47937-16.82837 5.55606-16.92645 10.85789-.98906 16.98793-11.06455 22.37004-11.2945.95246-.0407-.87894 16.73549 5.50706 26.58167 1.48672 1.12706 17.38807 5.34921 17.91995 6.69157 12.23055 1.62014 29.38973 10.12821 32.6923 22.75496 9.82839 56.90403-2.75346 100.70563-5.62449 119.09603z" style="display:inline;fill-opacity:1;fill-rule:evenodd;fill:#ececec;opacity:1;stroke-dasharray:none;stroke-linecap:butt;stroke-linejoin:miter;stroke-miterlimit:4;stroke-opacity:1;stroke-width:0;stroke:#000"/><path d="m329.8875 425.70175c-15.4791 1.19068-42.03653 26.26041-44.60913 30.99635 10.29989-9.14088 29.75951-26.28541 44.60913-30.99635z" class="shadow" id="path5772-6-5-0-04-3-5"/><path d="m262.14541 457.55004c-6.81704-9.41592-28.83006-31.99347-34.93819-34.15183 5.05404 5.44075 26.5203 25.35081 34.93819 34.15183z" class="shadow" id="path5774-7-1-4-05-1-0"/><path style="display:inline;fill-opacity:1;fill-rule:nonzero;fill:#000;opacity:1;stroke-dasharray:none;stroke-dashoffset:0;stroke-linecap:round;stroke-linejoin:bevel;stroke-miterlimit:4;stroke-opacity:1;stroke-width:0;stroke:#000;vector-effect:none" d="m337.64352 257.62623c0 12.05744-9.65838 21.12482-22.00872 21.12481-12.35032-1e-5-19.88736-8.1835-19.88736-20.24093s7.18349-22.00869 19.53381-22.0087c12.35034-1e-5 22.36227 9.06737 22.36227 21.12482z" id="path1626-11-9-3"/><path style="display:inline;fill-opacity:1;fill-rule:nonzero;fill:maroon;opacity:1;stroke-dasharray:none;stroke-dashoffset:0;stroke-linecap:round;stroke-linejoin:bevel;stroke-miterlimit:4;stroke-opacity:1;stroke-width:0;stroke:#000;vector-effect:none" d="m335.88464 257.47534c0 11.11008-8.8643 19.46505-20.19925 19.46504-11.33492-1e-5-18.25229-7.54053-18.25229-18.65061.0-11.11007 6.59289-20.27947 17.92781-20.27948 11.33495-1e-5 20.52373 8.35496 20.52373 19.46505z" id="path1626-1-24-4-5"/><path style="display:inline;fill-opacity:1;fill-rule:nonzero;fill:#000;opacity:1;stroke-dasharray:none;stroke-dashoffset:0;stroke-linecap:round;stroke-linejoin:bevel;stroke-miterlimit:4;stroke-opacity:1;stroke-width:0;stroke:#000;vector-effect:none" d="m332.13464 257.85034c0 1.07575-.1163 3.28388-.22379 4.24996-4.84718-.34911-11.93835-.85256-13.51634-.93559.12383.70926.8116 7.39477 1.67901 12.94663-.74707.0528-4.2098.079-5.01313.079-.74773.0-3.45666-.2094-4.12864-.2536.72554-4.50941 1.98264-11.92327 1.97052-12.70919-.86746-.004-6.83155.66357-11.67213 1.11013-.0324-.79201.078-3.43283.078-4.29795.0-1.08475.0223-3.42179.0732-4.38754 3.97131.6151 10.06547 1.47574 11.16789 1.36756-.44591-2.06727-.53984-7.0986-1.49337-12.69678.90273-.0839 2.87765-.18772 3.9301-.18772 1.08.0 3.92238.1043 4.90189.18956-.48493 3.32213-.8388 10.9689-1.0758 12.58219 2.08648-.3006 7.95423-.8584 13.18238-1.44686.0518.68473.1403 3.64793.1403 4.39016z" id="path1626-1-2-21-7-0"/><path style="display:inline;fill-opacity:1;fill-rule:nonzero;fill:#ececec;opacity:1;stroke-dasharray:none;stroke-dashoffset:0;stroke-linecap:round;stroke-linejoin:bevel;stroke-miterlimit:4;stroke-opacity:1;stroke-width:0;stroke:#000;vector-effect:none" d="m330.9856 257.7809c0 1.0105-.23732 2.22232-.33744 3.12979-.40686.086-.65494-.86561-1.0922-.86629-4.32188-.007-10.40707.23321-11.74164.16229.10665.61614-.30227 6.684-.14503 11.64862.0128.40372.77813.80469.79361 1.20013-.69575.0495-2.63052.0743-3.37867.0743-.69637.0-2.05814-.19671-2.68395-.23821.0343-.38364.81933-.65826.85234-1.08207.32779-4.20795.6445-11.02921.63423-11.6999-.72233-.004-5.99296-.14362-10.14198-.25347-.49125-.013-.93459.77059-1.41185.76022-.0301-.74396-.0564-1.8448-.0564-2.65745.0-1.01894-.0223-2.17936.0251-3.08654.48622.0262.92982.97904 1.48839 1.0021 3.49265.1442 8.86322.0109 9.74835-.0767-.0648-1.64989-.29294-7.71904-.44407-11.42887-.0149-.36563-.73657-.71532-.75065-1.04397.84072-.0788 1.6909-.30569 2.67108-.30569 1.0058.0 2.70687.0548 3.61908.13494-.0129.37951-.64754.86406-.66542 1.34775-.13115 3.54845.0946 9.94717.16523 11.24286 1.79477-.0218 6.69443.29048 11.3364.0814.38375-.0173.92043-.98566 1.29879-1.00482.0483.64319.21667 2.26244.21667 2.95965z" id="path1626-1-2-0-8-1-9"/><path style="display:inline;fill-opacity:1;fill-rule:nonzero;fill:#000;opacity:1;stroke-dasharray:none;stroke-dashoffset:0;stroke-linecap:round;stroke-linejoin:bevel;stroke-miterlimit:4;stroke-opacity:1;stroke-width:0;stroke:#000;vector-effect:none" d="m319.79428 257.64898c-1.27548 1.74405-2.39556 3.08262-3.93289 4.49761-1.7765-1.68029-2.29676-2.34954-3.85126-4.31466 1.07619-1.43453 2.21492-2.91493 3.62931-4.55558 1.89608 1.54764 2.48077 2.27482 4.15484 4.37263z" id="path1626-1-7-05-7-3"/><path style="display:inline;fill-opacity:1;fill-rule:nonzero;fill:#fff;opacity:1;stroke-dasharray:none;stroke-dashoffset:0;stroke-linecap:round;stroke-linejoin:bevel;stroke-miterlimit:4;stroke-opacity:1;stroke-width:0;stroke:#000;vector-effect:none" d="m319.26303 257.68134c-1.09114 1.49521-2.04934 2.64278-3.36449 3.85587-1.51975-1.44053-1.96482-2.0143-3.29467-3.69904.92067-1.22983 1.89482-2.49901 3.1048-3.90557 1.62205 1.32682 2.12224 1.95025 3.55436 3.74874z" id="path1626-1-7-8-90-5-4"/><path style="display:inline;fill-opacity:1;fill-rule:nonzero;fill:maroon;opacity:1;stroke-dasharray:none;stroke-dashoffset:0;stroke-linecap:round;stroke-linejoin:bevel;stroke-miterlimit:4;stroke-opacity:1;stroke-width:0;stroke:#000;vector-effect:none" d="m317.40987 258.40558c0 .90125-.70487 1.57899-1.6062 1.57899s-1.45138-.61168-1.45138-1.51293c0-.90124.34748-2.57314 2.33156-2.66153-2.45743 2.43068.72602 1.69422.72602 2.59547z" id="path1626-1-8-93-6-0"/></svg>