<svg viewBox="0 0 560 1e3"><path style="display:inline;fill-opacity:1;fill-rule:evenodd;fill:#000;opacity:1;stroke-dasharray:none;stroke-linecap:butt;stroke-linejoin:miter;stroke-miterlimit:4;stroke-opacity:1;stroke-width:0;stroke:#000" d="m368.45236 268.83602c.40069 1.40387.82871 12.89967-6.36035 37.77919-5.42713 18.7819-20.56882 29.98312-21.1652 31.4412-5.76961 8.24948-15.17503 22.20843-10.37382 32.19769.20871.43423 2.86633 6.1658 5.95239 12.12819 5.12253 9.89693 11.7358 22.29153 12.56986 25.83552.0.0-51.7146 6.85286-63.22382 35.19023-2.06147 4.01155-2.1084 11.81811-3.46792 16.10443-.27859.87834-1.00697 6.35332-3.50565 8.26757-.26944.20641-1.13656 1.14752-4.58251.28177-.17413-.0437-1.37345.71664-3.61847.0361-5.83439-1.76869-6.66978-8.86034-6.76649-9.28816-1.98539-8.78313-6.24957-28.02971-9.43291-34.24779-14.19124-27.72004-27.97462-8.06406-29.28246-10.40039.41618-1.08804 4.02945-13.36841 6.19444-18.09893 11.62539-25.40153 12.08709-42.05871 12.25836-57.26185.24452-21.70551-6.08737-33.66342-6.98584-46.20078.40962-35.13389 30.30326-40.0847 52.38713-59.43686.97617-2.02088 1.41982-19.01301-12.49041-26.29249-.63873-.33426 5.76049-3.75929 10.28502-6.16163 4.60651-7.8312 4.77746-7.85716 4.77746-7.85716 7.59995 3.04875 9.79042 1.79852 23.34377-.13948.0.0 2.20771 4.67981 3.14054 5.85732 1.50252 1.12706 9.10193 4.89722 7.88644 5.69617-25.72677 16.91039-30.9022 28.84774-29.45936 29.06832 3.13994 1.52155 66.54554 33.43249 67.65165 34.25705z" id="path5140"/><path style="display:inline;fill-opacity:1;fill-rule:evenodd;fill:#725d49;opacity:1;stroke-dasharray:none;stroke-linecap:butt;stroke-linejoin:miter;stroke-miterlimit:4;stroke-opacity:1;stroke-width:0;stroke:#000" d="m360.51873 307.70681c-6.28969 18.48806-17.77339 26.59126-18.77871 27.80104-8.36776 10.0696-13.07538 17.52333-14.41501 28.45838-1.1072 9.03783 24.36594 44.01876 24.72923 48.81716-40.10653 11.44456-64.97545 42.96388-65.74712 45.30165-.78385 1.88787-4.7912 9.82211-7.2881 11.60252-1.21712.86786-4.56426-.37235-4.8162-.39645-.29397-.0276-.77535.50225-2.98817-.0701-5.65546-1.4629-10.22974-5.40448-10.80185-7.35518-18.43111-29.49711-30.68812-46.0732-35.41353-47.26215 7.94787-20.31139 14.53739-34.53836 15.52113-39.64488 2.40743-12.49684 4.34652-31.04582 4.51599-33.91997 1.27707-21.66848-5.53672-33.8742-6.42575-46.41156-3.37265-53.10898 18.32727-82.76734 38.32548-88.64617.49229-.51848 5.43756-2.25669 9.91452-4.65903 1.01736-.38611 4.59904-8.26172 5.00699-8.02432 6.65758 3.87428 22.60885-.60503 22.93817.0937.97035 2.05878 1.84469 4.05751 2.988 5.79136 1.48672 1.12706 18.23182 7.00546 18.7637 8.34782.0.0 24.76225-4.8947 34.24132 27.54218.0476.44543-.20742 8.29506-.0211 16.76295.11811 5.36806-.97158 11.24597-1.56133 15.83868s-2.44875 21.69359-8.68765 40.03237z" id="path5143"/><path style="display:inline;fill-opacity:1;fill:#000;stroke-dasharray:none;stroke-linecap:butt;stroke-linejoin:miter;stroke-miterlimit:4;stroke-opacity:1;stroke-width:0;stroke:#000" d="m225.59803 414.50423c13.0124 5.20002 29.36397 56.66207 49.38576 54.95988 13.4605-1.86072 14.12966-32.15215 76.46023-57.39497-1.99871-6.0195-17.05662-30.7307-17.68549-32.70297-.0813-.25494-1.22374-2.21355-1.22374-2.21355-45.102 11.9464-87.26241 7.51113-92.60275-1.89265.0.0-9.20102 27.52661-14.33401 39.24426z" id="path5148"/><path style="display:inline;fill-opacity:1;fill:#725d49;stroke-dasharray:none;stroke-linecap:butt;stroke-linejoin:miter;stroke-miterlimit:4;stroke-opacity:1;stroke-width:0;stroke:#000" d="m224.05743 416.09574c13.0124 5.20002 31.24785 56.57108 51.26964 54.86889 13.4605-1.86072 14.55644-32.7986 76.88701-58.04142-5.52595-11.9083-10.42481-16.69568-16.96101-28.02007-45.102 11.9464-91.4758 7.08435-96.81614-2.31943.0.0-9.24651 21.79438-14.3795 33.51203z" id="path5156"/><path style="display:inline;fill-opacity:1;fill:#000;opacity:1;stroke-dasharray:none;stroke-linecap:butt;stroke-linejoin:miter;stroke-miterlimit:4;stroke-opacity:1;stroke-width:0;stroke:#000" d="m289.11888 215.04825c-.007-.15238 7.87213-20.96789 7.93902-21.16262.0.0-4.71541-2.02563-4.85767-1.83113-.86438 1.18176-2.48505 4.21861-3.88833 5.92157.099.227.80698 17.07218.80698 17.07218z" id="path5161"/><path style="display:inline;fill-opacity:1;fill:#725d49;opacity:1;stroke-dasharray:none;stroke-linecap:butt;stroke-linejoin:miter;stroke-miterlimit:4;stroke-opacity:1;stroke-width:0;stroke:#000" d="m289.86716 210.04871c-.007-.14941 6.74558-16.16139 6.81056-16.35233.0.0-4.58062-1.9862-4.71882-1.79549-.83967 1.15876-2.41401 4.13649-3.77718 5.8063.0962.22258 1.68544 12.34152 1.68544 12.34152z" id="path5163"/><path style="display:inline;fill-opacity:1;fill:#000;opacity:1;stroke-dasharray:none;stroke-linecap:butt;stroke-linejoin:miter;stroke-miterlimit:4;stroke-opacity:1;stroke-width:0;stroke:#000" d="m275.45007 385.34392c-.0664.049-1.39182-.0869-1.58546-.12917-3.40999-.74522 19.2566-190.46416 24.25915-190.51859.0.0 9.9816.36067 8.15973.35931-4.05459-.91193-25.06749 186.14721-24.62563 189.69739z" id="path5166"/><path style="display:inline;fill-opacity:1;fill:#725d49;opacity:1;stroke-dasharray:none;stroke-linecap:butt;stroke-linejoin:miter;stroke-miterlimit:4;stroke-opacity:1;stroke-width:0;stroke:#000" d="m275.06385 384.41234c-.0664.049-1.76682-.0556-1.96046-.0979-3.40999-.74522 19.2566-190.33916 24.25915-190.39359.0.0 9.9816.36067 8.15973.35931-4.72947-.95364-25.12648 185.84267-24.485 189.58802z" id="path5168"/><path style="display:inline;fill-opacity:1;fill:#000;opacity:1;stroke-dasharray:none;stroke-linecap:butt;stroke-linejoin:miter;stroke-miterlimit:4;stroke-opacity:1;stroke-width:0;stroke:#000" d="m304.52262 215.99753c.007-.15238-5.40967-21.68572-5.47656-21.88045.0.0 15.87166-2.71313 16.01392-2.51863.86438 1.18176 2.6413 5.37486 3.07583 6.04657-.099.227-13.61319 18.35251-13.61319 18.35251z" id="path5174"/><path style="display:inline;fill-opacity:1;fill:#725d49;opacity:1;stroke-dasharray:none;stroke-linecap:butt;stroke-linejoin:miter;stroke-miterlimit:4;stroke-opacity:1;stroke-width:0;stroke:#000" d="m305.15512 212.99967c.007-.14856-6.32959-18.84697-6.39549-19.03682.0.0 15.63782-2.64512 15.77799-2.4555.85164 1.15214 2.60238 5.24014 3.03051 5.89501-.0975.22131-12.41301 15.59731-12.41301 15.59731z" id="path5180"/><path style="display:inline;fill-opacity:1;fill:#000;opacity:1;stroke-dasharray:none;stroke-linecap:butt;stroke-linejoin:miter;stroke-miterlimit:4;stroke-opacity:1;stroke-width:0;stroke:#000" d="m318.34141 206.04031c.007-.14856 1.42041-6.72197 1.35451-6.91182.0.0 29.69411 9.43731 29.65299 9.6695-.0546.30839-.36637 2.67764-.46949 2.77001-.0975.22131-30.53801-5.52769-30.53801-5.52769z" id="path5184"/><path style="display:inline;fill-opacity:1;fill:#000;opacity:1;stroke-dasharray:none;stroke-linecap:butt;stroke-linejoin:miter;stroke-miterlimit:4;stroke-opacity:1;stroke-width:0;stroke:#000" d="m286.36935 205.61511c.0133-.14802.0535-6.76164.10936-6.94624.0.0-16.32306 7.59037-16.32898 7.82346-.008.30956-.12357 2.68146-.0814 2.7794.0242.22566 16.30106-3.65662 16.30106-3.65662z" id="path5187"/><path style="display:inline;fill-opacity:1;fill:#725d49;opacity:1;stroke-dasharray:none;stroke-linecap:butt;stroke-linejoin:miter;stroke-miterlimit:4;stroke-opacity:1;stroke-width:0;stroke:#000" d="m285.63987 205.08424c.0133-.14802.0535-6.76164.10936-6.94624.0.0-16.32306 7.59037-16.32898 7.82346-.008.30956-.12357 2.68146-.0814 2.7794.0242.22566 16.30106-3.65662 16.30106-3.65662z" id="path5190"/><path style="display:inline;fill-opacity:1;fill:#725d49;opacity:1;stroke-dasharray:none;stroke-linecap:butt;stroke-linejoin:miter;stroke-miterlimit:4;stroke-opacity:1;stroke-width:0;stroke:#000" d="m319.37125 205.43891c.007-.14856 1.34146-6.72197 1.27922-6.91182.0.0 28.04354 9.43731 28.00471 9.6695-.0516.30839-.34601 2.67764-.44339 2.77001-.0921.22131-28.84054-5.52769-28.84054-5.52769z" id="path5193"/><path style="display:inline;fill-opacity:1;fill:#000;opacity:1;stroke-dasharray:none;stroke-linecap:butt;stroke-linejoin:miter;stroke-miterlimit:4;stroke-opacity:1;stroke-width:0;stroke:#000" d="m278.97374 429.3684c.007-.14856 2.52919-37.05355 2.46695-37.2434.0.0 35.11831-1.77555 54.48573-7.94966.29791-.095 10.39088 17.55677 10.2935 17.64914-.0921.22131-67.24618 27.54392-67.24618 27.54392z" id="path5196"/><path style="display:inline;fill-opacity:1;fill:#000;opacity:1;stroke-dasharray:none;stroke-linecap:butt;stroke-linejoin:miter;stroke-miterlimit:4;stroke-opacity:1;stroke-width:0;stroke:#000" d="m278.6823 429.54052c-.007-.14856 4.33217-40.73216 4.39441-40.92201.0.0-36.17101 1.96465-45.00718-7.17821-.21729-.22483-9.26274 22.47282-9.16536 22.56519.0921.22131 49.77813 25.53503 49.77813 25.53503z" id="path5199"/><path style="display:inline;fill-opacity:1;fill:#725d49;opacity:1;stroke-dasharray:none;stroke-linecap:butt;stroke-linejoin:miter;stroke-miterlimit:4;stroke-opacity:1;stroke-width:0;stroke:#000" d="m278.03602 427.71792c-.007-.15017 2.93507-44.01036 2.99731-44.20227.0.0-33.89577-4.92731-40.23194-8.66938-.27074-.1599-11.07838 28.10327-10.981 28.19664.0921.22372 48.21563 24.67501 48.21563 24.67501z" id="path5206"/><path style="display:inline;fill-opacity:1;fill:#725d49;opacity:1;stroke-dasharray:none;stroke-linecap:butt;stroke-linejoin:miter;stroke-miterlimit:4;stroke-opacity:1;stroke-width:0;stroke:#000" d="m279.21433 427.75073c.007-.14856 2.02384-37.68465 2.48906-44.20398.0.0 30.16606-1.34184 49.53348-7.51595.29791-.095 14.79069 24.74655 14.69331 24.83892-.0921.22131-66.71585 26.88101-66.71585 26.88101z" id="path5212"/><path style="display:inline;fill-opacity:1;fill:#000;opacity:1;stroke-dasharray:none;stroke-linecap:butt;stroke-linejoin:miter;stroke-miterlimit:4;stroke-opacity:1;stroke-width:0;stroke:#000" d="m244.00941 350.31528c.007-.14856.46922-13.723 1.06676-13.35567 5.64391 3.46962 92.52993 6.33589 92.86595 3.34429.0349-.31072-7.32459 11.35706-8.06918 13.51009.0797 2.0576-84.95896.11958-85.86353-3.49871z" id="path5214"/><path id="path5216" d="m299.09689 220.15135a3.005204 3.1377864.0 01-3.0052 3.13779 3.005204 3.1377864.0 01-3.00521-3.13779 3.005204 3.1377864.0 013.00521-3.13779 3.005204 3.1377864.0 013.0052 3.13779z" style="display:inline;fill-opacity:1;fill-rule:nonzero;fill:#c8ab37;opacity:1;stroke-dasharray:none;stroke-linecap:butt;stroke-linejoin:round;stroke-miterlimit:4;stroke-opacity:1;stroke-width:0;stroke:#000"/><path id="path5219" d="m287.07608 314.19657a3.005204 3.1377864.0 01-3.00521 3.13779 3.005204 3.1377864.0 01-3.00521-3.13779 3.005204 3.1377864.0 013.00521-3.13779 3.005204 3.1377864.0 013.00521 3.13779z" style="display:inline;fill-opacity:1;fill-rule:nonzero;fill:#c8ab37;opacity:1;stroke-dasharray:none;stroke-linecap:butt;stroke-linejoin:round;stroke-miterlimit:4;stroke-opacity:1;stroke-width:0;stroke:#000"/><path id="path5222" d="m289.9045 290.15493a3.005204 3.1377864.0 01-3.0052 3.13779 3.005204 3.1377864.0 01-3.00522-3.13779 3.005204 3.1377864.0 013.00522-3.13779 3.005204 3.1377864.0 013.0052 3.13779z" style="display:inline;fill-opacity:1;fill-rule:nonzero;fill:#c8ab37;opacity:1;stroke-dasharray:none;stroke-linecap:butt;stroke-linejoin:round;stroke-miterlimit:4;stroke-opacity:1;stroke-width:0;stroke:#000"/><path id="path5225" d="m293.08649 266.46685a3.005204 3.1377864.0 01-3.0052 3.13779 3.005204 3.1377864.0 01-3.00521-3.13779 3.005204 3.1377864.0 013.00521-3.13779 3.005204 3.1377864.0 013.0052 3.13779z" style="display:inline;fill-opacity:1;fill-rule:nonzero;fill:#c8ab37;opacity:1;stroke-dasharray:none;stroke-linecap:butt;stroke-linejoin:round;stroke-miterlimit:4;stroke-opacity:1;stroke-width:0;stroke:#000"/><path id="path5228" d="m296.44524 242.24844a3.005204 3.1377864.0 01-3.0052 3.13779 3.005204 3.1377864.0 01-3.00521-3.13779 3.005204 3.1377864.0 013.00521-3.13779 3.005204 3.1377864.0 013.0052 3.13779z" style="display:inline;fill-opacity:1;fill-rule:nonzero;fill:#c8ab37;opacity:1;stroke-dasharray:none;stroke-linecap:butt;stroke-linejoin:round;stroke-miterlimit:4;stroke-opacity:1;stroke-width:0;stroke:#000"/><path id="path5231" d="m284.42442 336.82397a3.005204 3.1377864.0 01-3.0052 3.13779 3.005204 3.1377864.0 01-3.00521-3.13779 3.005204 3.1377864.0 013.00521-3.13779 3.005204 3.1377864.0 013.0052 3.13779z" style="display:inline;fill-opacity:1;fill-rule:nonzero;fill:#c8ab37;opacity:1;stroke-dasharray:none;stroke-linecap:butt;stroke-linejoin:round;stroke-miterlimit:4;stroke-opacity:1;stroke-width:0;stroke:#000"/><path id="path5234" d="m282.83343 358.92107a3.005204 3.1377864.0 01-3.0052 3.13779 3.005204 3.1377864.0 01-3.00521-3.13779 3.005204 3.1377864.0 013.00521-3.13779 3.005204 3.1377864.0 013.0052 3.13779z" style="display:inline;fill-opacity:1;fill-rule:nonzero;fill:#c8ab37;opacity:1;stroke-dasharray:none;stroke-linecap:butt;stroke-linejoin:round;stroke-miterlimit:4;stroke-opacity:1;stroke-width:0;stroke:#000"/><path id="path5237" d="m280.88888 378.18973a3.005204 3.1377864.0 01-3.0052 3.13779 3.005204 3.1377864.0 01-3.00521-3.13779 3.005204 3.1377864.0 013.00521-3.13779 3.005204 3.1377864.0 013.0052 3.13779z" style="display:inline;fill-opacity:1;fill-rule:nonzero;fill:#c8ab37;opacity:1;stroke-dasharray:none;stroke-linecap:butt;stroke-linejoin:round;stroke-miterlimit:4;stroke-opacity:1;stroke-width:0;stroke:#000"/><path id="path5240" d="m283.379 204.10002a1.2374378 1.4584099 83.139098 01-1.59579-1.05436 1.2374378 1.4584099 83.139098 011.30015-1.4028 1.2374378 1.4584099 83.139098 011.59579 1.05436 1.2374378 1.4584099 83.139098 01-1.30015 1.4028z" style="display:inline;fill-opacity:1;fill-rule:nonzero;fill:#c8ab37;opacity:1;stroke-dasharray:none;stroke-linecap:butt;stroke-linejoin:round;stroke-miterlimit:4;stroke-opacity:1;stroke-width:0;stroke:#000"/><path id="path5242" d="m323.44032 204.30799a1.2374378 1.4584099 83.139098 01-1.59579-1.05436 1.2374378 1.4584099 83.139098 011.30015-1.4028 1.2374378 1.4584099 83.139098 011.59579 1.05436 1.2374378 1.4584099 83.139098 01-1.30015 1.4028z" style="display:inline;fill-opacity:1;fill-rule:nonzero;fill:#c8ab37;opacity:1;stroke-dasharray:none;stroke-linecap:butt;stroke-linejoin:round;stroke-miterlimit:4;stroke-opacity:1;stroke-width:0;stroke:#000"/><path d="m329.87921 425.70416c-15.4791 1.19068-42.03653 26.26041-44.60913 30.99635 10.29989-9.14088 29.75951-26.28541 44.60913-30.99635z" class="shadow" id="path5244"/><path d="m262.13712 457.55245c-6.81704-9.41592-28.83006-31.99347-34.93819-34.15183 5.05404 5.44075 26.5203 25.35081 34.93819 34.15183z" class="shadow" id="path5246"/><path d="m329.8875 425.70175c-15.4791 1.19068-42.03653 26.26041-44.60913 30.99635 10.29989-9.14088 29.75951-26.28541 44.60913-30.99635z" class="shadow" id="path5248"/><path d="m262.14541 457.55004c-6.81704-9.41592-28.83006-31.99347-34.93819-34.15183 5.05404 5.44075 26.5203 25.35081 34.93819 34.15183z" class="shadow" id="path5250"/><path id="path5122-6-4" d="m290.73517 200.30981c-.0591-.0482-1.09627-.0769-1.15683-.11691.0.0.90981-.99335.97761-1.11923.0.0-.15252-1.4205-.13214-1.57786.0.0.6608.95037.74613.84823l.98706-1.18144s-.32375 1.6382-.35104 1.85837c-.0278.22437.76596.88401.71688.97297-.11118.20153-.86921.25184-.89852.31922-.0386.0887-.39243 1.822-.39243 1.822-.0441-.10966-.46065-1.79591-.49672-1.82535z" style="fill:maroon"/><path id="path5122-6-4-1" d="m306.68951 198.95155c.12445.0382 2.03328-.56036 2.15766-.53581.0.0-1.3308 2.10593-1.41247 2.34335.0.0.75849 2.11027.77426 2.36716.0.0-1.53058-1.06541-1.65235-.85396l-1.4088 2.44576s.0401-2.74346.0158-3.10212c-.0247-.36553-1.70076-.89719-1.6409-1.06571.1356-.38174 1.50658-.92986 1.53758-1.05252.0408-.16163.10389-3.07133.10389-3.07133.11787.14279 1.4494 2.50186 1.52527 2.52526z" style="fill:maroon"/><path style="display:inline;fill-opacity:1;fill:#4d351f;opacity:1;stroke-dasharray:none;stroke-linecap:butt;stroke-linejoin:miter;stroke-miterlimit:4;stroke-opacity:1;stroke-width:0;stroke:#000" d="m244.00941 349.99437c.007-.13533.46922-12.50133 1.06676-12.16669 5.64391 3.16074 92.52993 5.77184 92.86595 3.04656.0349-.28305-7.32459 10.34601-8.06918 12.30738.0797 1.87442-84.95896.10893-85.86353-3.18725z" id="path5214-3"/><path id="path5234-5" d="m273.38517 346.92057a1.2374377 1.3479245.0 01-1.23743 1.34792 1.2374377 1.3479245.0 01-1.23744-1.34792 1.2374377 1.3479245.0 011.23744-1.34793 1.2374377 1.3479245.0 011.23743 1.34793z" style="display:inline;fill-opacity:1;fill-rule:nonzero;fill:#000;opacity:1;stroke-dasharray:none;stroke-linecap:butt;stroke-linejoin:round;stroke-miterlimit:4;stroke-opacity:1;stroke-width:0;stroke:#000"/><path id="path5182-3-9-3-2-6-9" d="m269.26425 339.82109c-.13407 4.49535-.24689 8.51068-.37141 13.70453.57028.0149 7.76933.54609 7.76598.1917-79e-5-.10042.27306-1.48207-.1108-1.56117-.41402-.0853-6.04016.10448-5.96194-.37944.0589-.36453.26808-7.90349.32354-9.76216.0102-.34903 6.24425.0771 6.28073-.22054.18908-1.54351.0982-1.79181-.19654-1.94752-5.0226-.1235-7.67079-.5136-7.72956-.0255z" style="display:inline;fill-opacity:1;fill-rule:nonzero;fill:#c8ab37;opacity:1;stroke-dasharray:none;stroke-linecap:butt;stroke-linejoin:round;stroke-miterlimit:4;stroke-opacity:1;stroke-width:0;stroke:#000"/><path id="path5182-3-9-3-2-6-9-5" d="m267.41141 348.08536c.007-.34903 4.36392.0771 4.38941-.22054.13214-1.54351.0686-1.79181-.13736-1.94752-3.51014-.1235-3.96314-.1386-4.26628.006-.15519.4129-.14772 1.04986.0142 2.16231z" style="display:inline;fill-opacity:1;fill-rule:nonzero;fill:#c8ab37;opacity:1;stroke-dasharray:none;stroke-linecap:butt;stroke-linejoin:round;stroke-miterlimit:4;stroke-opacity:1;stroke-width:0;stroke:#000"/><path id="path5182-3-9-3-2-6-9-8" d="m288.23571 340.73565c-.13407 4.49535-.24689 8.51068-.37141 13.70453.57028.0149 7.76933.54609 7.76598.1917.12639-4.45155.47388-13.129.33499-13.87083-5.0226-.1235-7.67079-.5136-7.72956-.0255z" style="display:inline;fill-opacity:1;fill-rule:nonzero;fill:#000;opacity:1;stroke-dasharray:none;stroke-linecap:butt;stroke-linejoin:round;stroke-miterlimit:4;stroke-opacity:1;stroke-width:0;stroke:#000"/><path id="path5182-3-9-3-2-6-9-8-0" d="m288.5211 340.94706c-.12429 4.35741-.22887 8.24952-.3443 13.28399.52865.0145 7.20214.52933 7.19904.18582.11716-4.31495.43928-12.72612.31053-13.44519-4.65593-.11972-7.1108-.49784-7.16527-.0247z" style="display:inline;fill-opacity:1;fill-rule:nonzero;fill:#4d351f;opacity:1;stroke-dasharray:none;stroke-linecap:butt;stroke-linejoin:round;stroke-miterlimit:4;stroke-opacity:1;stroke-width:0;stroke:#000"/><path id="path5234-5-7" d="m282.35659 347.4288a1.2374377 1.3479245.0 01-1.23743 1.34792 1.2374377 1.3479245.0 01-1.23744-1.34792 1.2374377 1.3479245.0 011.23744-1.34793 1.2374377 1.3479245.0 011.23743 1.34793z" style="display:inline;fill-opacity:1;fill-rule:nonzero;fill:#000;opacity:1;stroke-dasharray:none;stroke-linecap:butt;stroke-linejoin:round;stroke-miterlimit:4;stroke-opacity:1;stroke-width:0;stroke:#000"/><path id="path5234-5-3" d="m302.86269 348.09171a1.2374377 1.3479245.0 01-1.23743 1.34792 1.2374377 1.3479245.0 01-1.23744-1.34792 1.2374377 1.3479245.0 011.23744-1.34793 1.2374377 1.3479245.0 011.23743 1.34793z" style="display:inline;fill-opacity:1;fill-rule:nonzero;fill:#000;opacity:1;stroke-dasharray:none;stroke-linecap:butt;stroke-linejoin:round;stroke-miterlimit:4;stroke-opacity:1;stroke-width:0;stroke:#000"/><path id="path5234-5-6" d="m314.66253 348.2243a1.2374377 1.3479245.0 01-1.23743 1.34792 1.2374377 1.3479245.0 01-1.23744-1.34792 1.2374377 1.3479245.0 011.23744-1.34793 1.2374377 1.3479245.0 011.23743 1.34793z" style="display:inline;fill-opacity:1;fill-rule:nonzero;fill:#000;opacity:1;stroke-dasharray:none;stroke-linecap:butt;stroke-linejoin:round;stroke-miterlimit:4;stroke-opacity:1;stroke-width:0;stroke:#000"/><path id="path5234-5-4" d="m262.36245 346.24997a1.2374377 1.3479245.0 01-1.23743 1.34792 1.2374377 1.3479245.0 01-1.23744-1.34792 1.2374377 1.3479245.0 011.23744-1.34793 1.2374377 1.3479245.0 011.23743 1.34793z" style="display:inline;fill-opacity:1;fill-rule:nonzero;fill:#000;opacity:1;stroke-dasharray:none;stroke-linecap:butt;stroke-linejoin:round;stroke-miterlimit:4;stroke-opacity:1;stroke-width:0;stroke:#000"/><path id="path5962-5-2" d="m317.5428 354.15841c.52865.0143 6.84859.27668 6.84549-.0606 7.9285-2.2417 8.69514-5.57246 8.57983-6.11637-.11049-.5212-1.36143-4.30079-8.18138-6.28002-4.65593-.11755-6.87642-.12945-7.04393-.0235-.0894 2.37162-.0846 7.53708-.20001 12.48047z" style="display:inline;fill-opacity:1;fill-rule:nonzero;fill:#000;opacity:1;stroke-dasharray:none;stroke-linecap:butt;stroke-linejoin:round;stroke-miterlimit:4;stroke-opacity:1;stroke-width:0;stroke:#000"/><path id="path5962-5-4-6" d="m316.80843 353.91923c.53186.013 7.199.0674 7.19587-.23996 7.97665-2.04296 8.39224-5.29992 8.27624-5.79561-.11116-.47498-.83683-3.9321-7.69819-5.73584-4.6842-.10714-6.74773-.16424-7.50954-.0654-.0899 2.16135-.14825 7.3317-.26438 11.8368z" style="display:inline;fill-opacity:1;fill-rule:nonzero;fill:#4d351f;opacity:1;stroke-dasharray:none;stroke-linecap:butt;stroke-linejoin:round;stroke-miterlimit:4;stroke-opacity:1;stroke-width:0;stroke:#000"/></svg>