<svg viewBox="0 0 560 1000"><path id="path48981" d="m 283.38228,486.66445 c -9.97603,6.47015 -23.25012,6.61793 -29.5733,2.5654 -12.45559,-7.98278 -11.48586,-27.17851 -8.39331,-32.47234 1.25457,-2.14753 3.99417,-4.59817 8.82537,-18.64058 3.22131,-9.3631 5.37667,-36.05413 5.24936,-56.96805 -0.019,-3.10796 -2.49523,-0.0731 -3.07116,-3.1117 -0.81643,-4.30732 4.43328,-11.63587 6.09662,-13.82822 6.09855,-8.03819 9.03531,-3.55302 10.39524,-3.45256 3.5816,0.26451 4.76245,8.54271 5.49175,18.6195 0.19269,2.66246 -0.20787,3.55389 -0.35316,6.32159 -0.84443,16.08596 -3.30631,26.34026 -1.98288,53.04677 0.41685,8.41193 4.58049,18.65086 6.25085,21.50029 6.46444,11.02765 6.89481,20.9049 1.06462,26.4199 z" style="display:inline;fill:#000000;opacity:1;stroke-width:1.92690921"/><path class="skin scrotum" d="m 256.15555,488.96647 c -13.22957,-5.8921 -13.348,-27.77421 -8.38292,-33.50624 2.0865,-2.40882 3.53001,-4.54775 8.05026,-17.44945 3.10244,-8.85501 5.00563,-38.53435 4.89757,-58.58269 -0.0161,-2.97932 -3.63965,0.59332 -3.43158,-2.35282 0.29252,-4.14186 2.86075,-8.49254 7.85436,-15.17674 2.97924,-3.98787 9.1103,-4.12518 13.54035,0.12012 2.51082,2.40604 5.93648,7.26145 6.55548,16.92121 0.16356,2.55224 -2.96177,-0.11363 -3.08509,2.53953 -0.71674,15.42017 -2.18538,31.86115 -1.06207,57.46231 0.35382,8.0638 2.86153,13.56144 4.47995,16.17905 6.53595,10.57124 8.99964,27.09629 0.57087,32.40639 -8.42879,5.3101 -23.93492,4.13487 -29.98718,1.43933 z" id="path48983"/></svg>
