<svg viewBox="0 0 560 1e3"><path id="path5952" d="m345.4742 215.07561c-2.36763-3.9611-5.54697-5.55018-2.40748-5.89858 8.38874-.93095 34.71234 8.16419 37.24437 13.34241-.15544-.0151 11.59929 18.43088 16.141 28.32526-13.71763 12.885-29.74169 12.74896-33.68372 14.32983-6.655-20.82571-16.98031-49.67303-17.29417-50.09892z" style="display:inline;fill-opacity:1;fill-rule:evenodd;fill:#fff;stroke-dasharray:none;stroke-linecap:butt;stroke-linejoin:miter;stroke-miterlimit:4;stroke-opacity:0;stroke-width:3.10714054;stroke:#000"/><path id="path5954" d="m347.79149 214.93549c-2.23963-3.9037-5.24707-5.46975-2.27732-5.81311 6.71331.41185 14.18498.86932 20.68377 3.62539 25.17282-2.88406 37.99383 25.63015 28.83866 35.61315-14.54664 12.39383-27.51128 14.66594-36.37822 12.32176-5.55473-18.09169-10.59594-45.36414-10.86689-45.74719z" style="display:inline;fill-opacity:1;fill-rule:evenodd;fill:#1a1a1a;stroke-dasharray:none;stroke-linecap:butt;stroke-linejoin:miter;stroke-miterlimit:4;stroke-opacity:0;stroke-width:3;stroke:#000"/></svg>