<svg viewBox="0 0 560 1e3"><path d="m303.3127 103.68275c-8.5656-8.863739-13.89226-18.623806-18.08997-36.307505-.13495-.568491-1.41716-4.579835-1.45843-5.137519-.0408-.551182 1.15826 2.351145 1.21231 1.814833.27875-2.765886 1.84079-5.305516 4.91355-7.324814.58786-.38632 3.52911-4.20074 4.22915-4.546911.62898-.311029-.99422 2.842124-.27225 2.566663 1.98769-.758383 4.33222-1.376313 7.05769-1.822621 1.03439-.169386 7.18615-2.939052 8.3316-3.057293 1.11398-.114993-2.7814 2.420006-1.55992 2.356566 2.52915-.131358 5.29133-.148849 8.2973-.03856 4.80364 1.581778 8.56285 3.138543 11.50856 4.66549.9016.467357 7.352 1.24442 8.10781 1.706052.69203.422678-4.29928.530402-3.71885.948056 3.14509 2.263074 4.72661 4.450896 5.5532 6.546642.40535 1.027749 3.54596 7.513433 3.68358 8.494911.1817 1.295944-2.70368-2.930256-2.60297-1.723009.71572 8.579393-30.75527 34.552689-35.19236 30.859019z" class="hair" id="path4802"/><path d="m297.4759 82.918227c1.93981-2.479777 41.02744-28.422537 45.19676-26.998935.0126.378807 3.2653 4.850716 2.83897 4.94292-7.54499 1.631709-45.83937 21.118716-48.03573 22.056015z" id="path4804" style="fill:#2b1100"/><path d="m327.25804 88.377359c-2.99661.253272-46.45794-28.761866-48.45149-32.965146.24057-.275984 3.28099-4.1559 3.64142-3.893241 6.37855 4.64828 42.64882 35.830251 44.81007 36.858387z" id="path4806" style="fill:#2b1100"/></svg>