<svg viewBox="0 0 560 1e3"><path id="path5861" d="m368.45236 268.83602c.40069 1.40387.82871 12.89967-6.36035 37.77919-5.42713 18.7819-17.06882 33.73312-17.6652 35.1912-5.76961 8.24948-14.92503 20.20843-10.12382 30.19769.20871.43423-.88367 4.4158 2.20239 10.37819 5.12253 9.89693 11.7358 22.29153 12.56986 25.83552.0.0-51.7146 6.85286-63.22382 35.19023-2.06147 4.01155-2.1084 11.81811-3.46792 16.10443-.27859.87834-1.00697 6.35332-3.50565 8.26757-.26944.20641-1.13656 1.14752-4.58251.28177-.17413-.0437-1.37345.71664-3.61847.0361-5.83439-1.76869-6.66978-8.86034-6.76649-9.28816-1.98539-8.78313-6.24957-28.02971-9.43291-34.24779-14.19124-27.72004-27.97462-8.06406-29.28246-10.40039.41618-1.08804 4.02945-13.36841 6.19444-18.09893 11.62539-25.40153 12.08709-42.05871 12.25836-57.26185.24452-21.70551-6.08737-33.66342-6.98584-46.20078-3.12591-70.13568 30.30326-40.0847 52.38713-59.43686 4.62538-2.28504 6.71006 1.05395 7.48346.17109 3.13994 1.52155 66.54554 33.43249 67.65165 34.25705z" style="display:inline;fill-opacity:1;fill-rule:nonzero;fill:#000;opacity:1;stroke-dasharray:none;stroke-linecap:butt;stroke-linejoin:miter;stroke-miterlimit:4;stroke-opacity:1;stroke-width:0;stroke:#000"/><path id="path5863" d="m368.47602 268.56519c-.47811 3.70196-1.71839 20.80284-7.95729 39.14162-6.28969 18.48806-13.77339 28.84126-14.77871 30.05104-8.36776 10.0696-13.32538 17.02333-14.66501 27.95838-1.1072 9.03783 20.61594 42.26876 20.97923 47.06716-40.10653 11.44456-64.97545 42.96388-65.74712 45.30165-.78385 1.88787-4.7912 9.82211-7.2881 11.60252-1.21712.86786-4.56426-.37235-4.8162-.39645-.29397-.0276-.77535.50225-2.98817-.0701-5.65546-1.4629-10.22974-5.40448-10.80185-7.35518-18.43111-29.49711-30.68812-46.0732-35.41353-47.26215 7.94787-20.31139 14.53739-34.53836 15.52113-39.64488 2.40743-12.49684 4.34652-31.04582 4.51599-33.91997 1.27707-21.66848-5.53672-33.8742-6.42575-46.41156-6.20108-50.45733 18.32727-82.76734 38.32548-88.64617 5.65511 21.68836 47.15836 12.8615 59.61138 1.54951.0.0 25.14245-4.0197 34.62152 28.41718.0476.44543-1.73667 7.33167-1.55036 15.79956.11811 5.36806-.44125 11.33436-1.14264 16.81783z" style="display:inline;fill-opacity:1;fill-rule:evenodd;fill:#1a1a1a;opacity:1;stroke-dasharray:none;stroke-linecap:butt;stroke-linejoin:miter;stroke-miterlimit:4;stroke-opacity:1;stroke-width:0;stroke:#000"/><path id="path5865" d="M119.84262 559.24598C166.36276 448.57227 239.51913 374.77277 240.6226 367.10804l89.12794 1.58139s98.16088 120.46171 128.49438 195.05453c-1.10151 1.92828-5.06784 1.45972-7.90471 3.18731-2.18445 1.33027-2.90764 4.8982-6.01064 6.10612-3.42199 1.3321-9.49466-.23953-13.91095.94002-3.45311.9223-5.06915 4.62579-9.05997 5.45269-4.33285.89776-10.55545-.73613-15.44643.0469-4.44375.71142-7.51061 3.84984-12.353 4.46464-4.19467.53256-12.59369-1.44634-17.04612-.98754-6.63486.68369-9.46872 3.75972-16.56971 4.27639-4.01891.29242-8.98617-2.27065-13.1225-2.03271-4.24452.24418-7.66091 3.28791-12.00448 3.47398-5.3052.22725-11.55888-2.77109-16.97058-2.63177-4.63113.11923-8.40907 3.38798-13.08736 3.44187-5.22866.0602-11.00823-3.98648-16.25819-4.00902-4.89364-.021-9.25757 3.98765-14.13639 3.89373-5.39388-.10384-11.12244-3.6113-16.45684-3.80553-5.65945-.20606-10.91963 2.89539-16.46173 2.58606-4.83115-.26966-9.60786-3.40728-14.31295-3.75654-5.89246-.43739-11.67259 1.89081-17.30662 1.32672-6.05625-.60636-11.59014-4.11494-17.26684-4.87017-6.65645-.88556-13.37669.95408-19.38602-.13997-6.5393-1.19054-11.06445-5.8645-16.67031-7.30702-5.60596-1.44254-12.29262.34636-16.79089-1.35347-5.03288-1.90184-7.01983-6.61804-10.43502-8.849-3.15113-2.05846-7.85982-1.60693-9.43405-3.95165z" style="display:inline;fill-opacity:1;fill:#fff;stroke-dasharray:none;stroke-linecap:butt;stroke-linejoin:miter;stroke-miterlimit:4;stroke-opacity:1;stroke-width:0;stroke:#000"/><path id="path5867" d="M119.84262 548.58883C166.36276 444.05376 239.51913 374.34764 240.6226 367.10804l89.12794 1.49367s98.16088 113.78016 128.49438 184.23561c6.49984 35.06417-344.7519 33.37417-338.4023-4.24849z" style="display:inline;fill-opacity:1;fill:#1a1a1a;stroke-dasharray:none;stroke-linecap:butt;stroke-linejoin:miter;stroke-miterlimit:4;stroke-opacity:1;stroke-width:0;stroke:#000"/><path id="path5869" d="m122.61595 523.9989s46.40281-76.62356 68.37955-81.73343l192.53035 5.51991c37.6092 16.95787 48.73275 50.62346 66.65117 79.16257-.95842 1.3636-6.21893-.24212-10.54216.84653-3.23791.81535-4.86344 4.38393-9.70467 5.05175-4.32797.59702-11.89966-1.6922-17.32483-1.20876-5.55931.4954-8.99739 3.76068-15.52399 4.14118-3.81485.2224-9.54673-1.87254-13.64142-1.6882-4.72707.21281-7.8604 2.69864-12.90678 2.86199-5.0501.16347-11.30636-2.52592-16.61865-2.41063-4.00428.0869-7.01421 2.98873-11.13877 3.04893-5.05527.0738-11.0755-2.87746-16.2702-2.84281-5.94483.0397-11.0822 3.05923-17.14584 3.04914-6.09755-.0101-12.59151-2.34315-18.74016-2.40199-5.18669-.0496-10.0257 2.18181-15.20335 2.09861-5.56533-.0894-10.93665-3.0264-16.44172-3.15345-4.57042-.10547-9.28796 2.60472-13.7843 2.47409-5.19146-.15083-11.20758-3.14662-16.25786-3.32999-4.42837-.16079-7.90984 2.49455-12.19686 2.30951-5.00865-.21618-9.73359-3.9842-14.50394-4.2324-4.73186-.24621-9.51124 3.02765-13.96075 2.75106-5.4269-.33735-9.56539-3.70208-14.49351-4.08277-5.07554-.39208-10.92425 2.1986-15.37755 1.76275-5.4174-.53022-8.92519-4.45077-13.2667-5.04212-4.52745-.61668-9.95468 2.50422-13.00618 1.41454-1.58972-.56768-2.86528-3.51089-4.13062-3.92447-3.30662-1.08077-5.51304.68724-5.38026-.44154z" style="display:inline;fill-opacity:1;fill:#fff;stroke-dasharray:none;stroke-linecap:butt;stroke-linejoin:miter;stroke-miterlimit:4;stroke-opacity:1;stroke-width:0;stroke:#000"/><path id="path5871" d="m124.03011 516.43695s46.10232-69.53437 67.93674-74.17148l191.28352 5.00921c37.36564 15.38893 48.41716 45.9398 66.21954 71.83848-12.29315 15.9754-327.15492 10.64182-325.4398-2.67621z" style="display:inline;fill-opacity:1;fill:#1a1a1a;stroke-dasharray:none;stroke-linecap:butt;stroke-linejoin:miter;stroke-miterlimit:4;stroke-opacity:1;stroke-width:0;stroke:#000"/><path id="path5873" d="m148.30205 479.76695s77.5338-104.6772 96.12001-109.57845l75.45367.30426c31.80691 16.26551 92.82364 82.83515 107.97763 110.20905-.58425 1.60742-5.80534.23429-10.01327 1.54147-3.19545.99265-4.68411 4.72831-9.61747 5.55187-2.96317.49467-7.62665-2.22283-11.12913-1.78816-3.42689.42529-5.68196 4.00403-9.56283 4.37261-3.23828.30756-7.1542-1.70261-10.66921-1.43409-3.08218.23546-5.73355 2.75408-9.00267 2.95983-18.54189 1.16693-39.89648 1.85815-61.86146 2.09906-5.3073.0582-9.65025-2.4099-14.99775-2.4039-4.33697.005-9.67694 2.493-14.00335 2.4636-5.02648-.0338-9.53465-3.5903-14.49851-3.66932-5.82679-.0927-12.09252 3.28356-17.75516 3.12938-4.92504-.13409-9.5221-3.29123-14.26352-3.47111-4.33856-.16459-8.83867 2.65179-12.97914 2.44937-3.4161-.167-6.50756-3.8468-9.76249-4.03924-4.59818-.27187-9.27366 2.93101-13.4929 2.60903-4.30878-.32881-6.90246-4.43356-10.74532-4.81382-4.52488-.44775-10.20201 2.81911-13.97304 2.30127-16.59025-2.2782-25.32067-5.22818-21.22409-8.79268z" style="display:inline;fill-opacity:1;fill:#fff;stroke-dasharray:none;stroke-linecap:butt;stroke-linejoin:miter;stroke-miterlimit:4;stroke-opacity:1;stroke-width:0;stroke:#000"/><path id="path5875" d="m152.17092 472.23567s71.51747-101.01092 89.72892-105.58598l86.60624-.046c31.16558 15.183 82.73107 80.95254 97.57951 106.50464-6.86845 18.00222-293.7434 15.56386-273.91467-.87262z" style="display:inline;fill-opacity:1;fill:#1a1a1a;stroke-dasharray:none;stroke-linecap:butt;stroke-linejoin:miter;stroke-miterlimit:4;stroke-opacity:1;stroke-width:0;stroke:#000"/><path style="display:inline;fill-opacity:1;fill:#fff;stroke-dasharray:none;stroke-linecap:butt;stroke-linejoin:miter;stroke-miterlimit:4;stroke-opacity:1;stroke-width:0;stroke:#83afc8" d="m368.60057 502.77966c-1.26153 1.37587-20.52337-7.04823-26.54903-6.12525-5.66018.86196-8.68087.60179-14.62943 1.44517-5.86359 2.18144-21.47335 15.22842-24.35752 13.71199-2.13813-1.9649-5.22711-34.42852-3.16868-34.94516 1.59321-2.5154 25.14175 4.912 26.73176 4.53843 6.27626-3.93574 8.01153-1.95263 12.41992-1.47682 1.46718.0432 25.46431-12.86542 28.36591-10.74611.0.0 7.19205 24.82551 1.18715 33.59817z" id="path5877"/><path id="path5879" d="m332.37618 482.76264c-.80293 1.33144-2.76337 5.12558-3.58695 5.75201-.21885-.40326.19813-10.20527-3.31779-23.16583-.85162-3.13928-4.28978-6.00776-5.2932-9.54299-.93795-3.3046.0897-7.13442-.90403-10.68762-.92791-3.31796-4.26865-6.2181-5.25776-9.65889-1.01324-3.52471.72846-8.34829-.26595-11.92473-.87672-3.15315-3.77621-5.66827-4.6849-8.76719-1.06724-3.63959-.47961-7.86067-1.47755-11.36373-.66166-2.32264-3.32684-4.22137-3.98803-6.43359-.98519-3.2963-.26408-6.96961-1.0894-9.97302-3.51135-12.77809-7.22554-21.98105-8.1034-24.99793-.18402-.63244-.78111-2.92917-.85141-3.00974 2.23215-.70699 8.31422 10.60034 13.674 27.26708.91498 2.84522-.25417 6.33205.74097 9.42241.72306 2.24547 3.32081 4.29841 4.03818 6.64479 1.05775 3.45973.63371 7.74897 1.72008 11.31856.9986 3.28122 3.98011 5.72442 4.93255 9.04398 1.02514 3.57293-.0827 8.38234.91722 11.88051.97209 3.40082 3.90934 6.61992 4.79967 9.86369.89888 3.27497-.48237 7.31579.34694 10.32634.95344 3.46113 3.96111 6.09752 4.7554 9.09014 2.77128 10.44126 2.53139 18.0661 2.89536 18.91575z" style="display:inline;fill-opacity:1;fill:#fff;stroke-dasharray:none;stroke-linecap:butt;stroke-linejoin:miter;stroke-miterlimit:4;stroke-opacity:1;stroke-width:0;stroke:#83afc8"/><path id="path5881" d="m257.35232 363.0451c-7.30723 7.67108-16.34474 14.1102-22.0958 20.83405-2.94785 3.44647-2.8166 7.61941-5.75048 10.71723-3.31142 3.49646-8.66108 5.69289-11.38803 9.15404-2.46828 3.13285-2.35093 7.61357-4.6274 10.63597-2.62202 3.48117-7.61139 5.66638-10.06374 9.06446-2.40375 3.33074-2.27292 7.8753-4.59999 11.19081-1.92424 2.74156-5.80393 4.62826-7.65479 7.43187-2.34077 3.54571-2.18716 8.13777-4.58581 11.81428-1.82031 2.79005-5.52863 4.51398-7.39212 7.4404-1.73443 2.72375-1.63232 6.50806-3.45948 9.36686-2.66411 4.16831-7.79018 8.37147-10.67102 12.90302-1.2387-.7538-5.78568-3.05446-5.966-3.30551 2.41345-3.76676 8.34883-7.71909 11.24838-12.01854 1.80304-2.67355 1.30208-6.30845 3.23463-9.13337 2.02522-2.96036 6.87545-5.36318 9.0349-8.43444 2.31267-3.28917 2.17686-7.6319 4.5757-10.99811 1.84077-2.58309 5.71225-4.30089 7.6055-6.89035 2.36561-3.23551 2.27564-7.70968 4.66489-10.92105 2.54483-3.42047 7.56947-5.57474 10.10614-8.90558 2.1937-2.88049 1.90272-7.12967 4.06516-9.89835 3.24336-4.15263 8.79928-6.88286 12.01223-10.60693 3.16175-3.66473 3.19503-8.02042 6.08343-11.22741 12.61027-14.00116 25.36522-22.0709 30.02406-19.99415-.30519.34784-4.13144 1.49847-4.40036 1.7808z" style="display:inline;fill-opacity:1;fill:#fff;stroke-dasharray:none;stroke-linecap:butt;stroke-linejoin:miter;stroke-miterlimit:4;stroke-opacity:1;stroke-width:0;stroke:#83afc8"/><path id="path5883" d="m327.75566 497.5022c-5.75405 2.04024-21.09882 14.31645-23.89431 12.9683-2.06119-1.76286-4.73997-31.10708-2.72333-31.59694 1.58914-2.30053 24.50853 3.83013 26.06582 3.47491 2.4369-.12387 1.17885 3.19412 2.88161 3.18461-2.15381.3281.59812 11.55369-2.32979 11.96912z" style="display:inline;fill-opacity:1;fill:#1a1a1a;stroke-dasharray:none;stroke-linecap:butt;stroke-linejoin:miter;stroke-miterlimit:4;stroke-opacity:1;stroke-width:0;stroke:#83afc8"/><path id="path5885" d="m339.34934 480.88191c1.43192.0245 25.10154-11.55794 27.90592-9.66239.0.0 6.60434 22.13997.62405 30.16755l-2e-5-1e-4c-1.25011 1.26221-19.92605-6.2435-25.8214-5.34465-2.75187.41431-4.79415-10.61371-6.93084-10.61076 1.93283-.3581 1.71489-3.99743 4.22229-4.54965z" style="display:inline;fill-opacity:1;fill:#1a1a1a;stroke-dasharray:none;stroke-linecap:butt;stroke-linejoin:miter;stroke-miterlimit:4;stroke-opacity:1;stroke-width:0;stroke:#83afc8"/><path style="display:inline;fill-opacity:1;fill:#fff;stroke-dasharray:none;stroke-linecap:butt;stroke-linejoin:miter;stroke-miterlimit:4;stroke-opacity:1;stroke-width:0;stroke:#83afc8" d="m341.93133 496.52125c-5.74074 2.58063-8.79759 3.2068-15.16625 1.54363-1.97937-5.87249-2.4931-12.07106-.60615-16.17811 5.53665-.27785 7.89336-.45282 12.87893-1.55304 3.95799 2.11686 3.16717 11.89401 2.89338 16.18753z" id="path5888"/><path style="display:inline;fill-opacity:1;fill:#1a1a1a;stroke-dasharray:none;stroke-linecap:butt;stroke-linejoin:miter;stroke-miterlimit:4;stroke-opacity:1;stroke-width:0;stroke:#83afc8" d="m340.9075 496.33137c-5.01665 2.21109-7.69852 3.11695-12.95508 1.25279-1.80875-5.6361-2.3688-11.56212-.83311-15.45619 6.30309-3.6216 7.50325-1.96967 10.99648-1.2949 3.42982 2.07897 2.94264 11.4029 2.79161 15.49854z" id="path5890"/><path style="display:inline;fill-opacity:1;fill:#fff;stroke-dasharray:none;stroke-linecap:butt;stroke-linejoin:miter;stroke-miterlimit:4;stroke-opacity:1;stroke-width:0;stroke:#83afc8" d="m313.77589 380.22484c-1.85865 1.41416-25.01635-11.64879-32.89198-11.54545-7.39707.0912-11.21691-.70823-18.97976-.68606-7.89148 1.61159-25.68408 14.42639-29.10634 12.1701-2.38789-2.6626-.58221-41.39188 2.14391-41.66425 2.48529-2.70179 26.8061 9.8872 28.90735 9.70684 8.73082-3.60988 10.59989-.9916 16.15753.28816 1.87009.29032 34.8727-10.99264 38.21031-8.02362.0.0 4.80061 30.40526-4.441 39.75478z" id="path5892"/><path id="path5894" d="m300.80935 365.37436c-.68836.9912-4.22224-.0759-4.78789.24306-.50867-13.28222 4.17527-22.13724 6.2854-39.04797.63203-5.06512-.63043-13.45253.20548-18.60802.75679-4.66748 4.84419-9.34979 5.7569-14.00669 1.13267-5.77919-.86868-11.51927.4858-17.14335 1.39159-5.77817 5.39488-10.68391 6.99887-16.13386 1.52977-5.19777.65113-10.95835 2.35453-15.70943 2.35574-6.57057 6.86839-11.1448 9.51268-16.53141 3.90254-7.94973 6.0918-15.90176 10.48658-20.2412.32438-.32029.64988-.62908.97647-.92611-3.99674 7.04372-5.58074 15.5956-8.79425 22.63467-2.49849 5.47287-6.77301 9.43799-8.84343 14.88554-2.11435 5.56311-1.51583 11.8579-3.22561 17.37386-1.57276 5.07396-5.48331 9.37354-6.74811 14.39058-1.50068 5.95275.45383 11.85969-.66396 17.70718-.95524 4.9972-5.03071 9.95097-5.74355 14.85282-.70392 4.84044 1.70198 12.63024 1.20118 17.36121-1.54631 14.6076-5.20321 25.65435-5.45709 38.89912z" style="display:inline;fill-opacity:1;fill:#fff;stroke-dasharray:none;stroke-linecap:butt;stroke-linejoin:miter;stroke-miterlimit:4;stroke-opacity:1;stroke-width:0;stroke:#83afc8"/><path id="path5896" d="m257.16054 362.75307c-.68836.9912-2.82579-1.73278-3.39144-1.41379-.37269-9.73158-.70877-20.69679-.8256-32.21201-.0702-6.9179 2.94392-14.56464 3.0716-21.73134.0808-4.53327-2.79617-8.55634-2.61037-13.09234.20964-5.11793 3.6745-10.3905 4.04501-15.41027.51355-6.95766-1.98652-13.59248-1.09792-20.11455.65478-4.8059 4.427-10.51525 5.32158-14.94932 1.02898-5.10026.89976-11.59034 1.91557-15.90331 2.3965-10.17515 6.32321-16.30417 12.04737-21.51028-4.83912 7.49122-8.15575 13.90871-9.97772 23.04242-.87328 4.37786-.58619 10.74138-1.49671 15.58304-.80025 4.25531-4.46778 9.67523-5.01405 14.10846-.80389 6.52387 1.82554 13.03115 1.45463 19.7799-.28688 5.21977-3.64708 10.65501-3.74888 15.90799-.087 4.49163 2.88699 8.44891 2.89154 12.90488.008 7.74657-2.88142 15.92785-2.76351 23.33804.17961 11.28706.36398 22.01553.17887 31.67248z" style="display:inline;fill-opacity:1;fill:#fff;stroke-dasharray:none;stroke-linecap:butt;stroke-linejoin:miter;stroke-miterlimit:4;stroke-opacity:1;stroke-width:0;stroke:#83afc8"/><path id="path5898" d="m263.00877 367.34438c-6.86092 1.46321-26.23427 13.41368-29.19899 11.37002-2.06484-2.41214-.4866-37.40147 1.88248-37.64912 2.16849-2.44945 27.25075 8.50997 29.07658 8.34588 2.78907.25188.83659 3.95341 2.77329 4.22012-2.49951.0349-1.14033 13.70181-4.53336 13.7131z" style="display:inline;fill-opacity:1;fill:#1a1a1a;stroke-dasharray:none;stroke-linecap:butt;stroke-linejoin:miter;stroke-miterlimit:4;stroke-opacity:1;stroke-width:0;stroke:#83afc8"/><path id="path5900" d="m280.22357 349.66662c1.82829.26255 34.17646-9.51233 37.42934-6.82266.0.0 4.52487 27.1472-4.55308 35.62342v-13e-5c-1.82387 1.28219-24.39462-10.60374-32.09921-10.50756-3.59547.0388-4.25287-13.27984-6.98802-13.6251 2.53724-.10617 2.90394-4.42699 6.21097-4.66797z" style="display:inline;fill-opacity:1;fill:#1a1a1a;stroke-dasharray:none;stroke-linecap:butt;stroke-linejoin:miter;stroke-miterlimit:4;stroke-opacity:1;stroke-width:0;stroke:#83afc8"/><path style="display:inline;fill-opacity:1;fill:#fff;stroke-dasharray:none;stroke-linecap:butt;stroke-linejoin:miter;stroke-miterlimit:4;stroke-opacity:1;stroke-width:0;stroke:#83afc8" d="m278.75367 367.75297c-7.80505 2.10166-9.82842 3.09006-17.68425.0923-1.4915-7.23777-1.04937-14.62028 2.09424-19.14826 7.13533.57649 8.1826.005 14.75852-.47668 4.69006 3.13855 1.94346 14.52183.83138 19.53267z" id="path5902"/><path style="display:inline;fill-opacity:1;fill:#1a1a1a;stroke-dasharray:none;stroke-linecap:butt;stroke-linejoin:miter;stroke-miterlimit:4;stroke-opacity:1;stroke-width:0;stroke:#83afc8" d="m277.10203 367.86229c-6.81278 1.78473-8.03087 2.66364-14.42773-.3893-1.31507-6.93158-.98055-14.00072 1.67569-18.33526 8.70945-3.23561 7.57743-1.34461 11.9285.02 4.02082 3.00774 1.74324 13.90693.82336 18.70478z" id="path5904"/><path style="display:inline;fill-opacity:1;fill:#1a1a1a;stroke-dasharray:none;stroke-linecap:butt;stroke-linejoin:miter;stroke-miterlimit:4;stroke-opacity:1;stroke-width:0;stroke:#83afc8" d="m305.87224 222.21733c-.45343 1.1261-.93755 1.64261-1.30992 2.61597-1.08472-9.83839-13.98297-21.44959-15.50771-25.41569.30878-.3607.94227-1.04539 1.36879-1.63093.34127 1.91591 14.70506 16.00518 15.27204 23.37042z" id="path5906"/><path style="display:inline;fill-opacity:1;fill:#1a1a1a;stroke-dasharray:none;stroke-linecap:butt;stroke-linejoin:miter;stroke-miterlimit:4;stroke-opacity:1;stroke-width:0;stroke:#83afc8" d="m284.7864 219.81889c.89028 1.01267 1.34082.97715 2.07195 1.85246 2.12978-8.84735 28.8713-20.62478 31.0647-22.15359-.53142-.54893-1.02241-1.16575-1.60078-2.02642-1.82631 1.12917-30.07551 14.7508-31.18874 21.37412z" id="path5908"/><path id="path5910" d="m336.39247 207.55942c-3.08103 2.5253-5.59756 6.26249-8.58715 8.06792-2.60954 1.5759-5.70579 1.30118-8.21274 2.38327-2.97468 1.28397-5.42439 3.56407-8.20739 4.23121-3.05414.73213-6.41937-.20739-9.17792-.11065-2.54037.0891-5.38297.72809-7.61746.36995-3.00239-.48122-5.32161-2.35206-7.61591-3.53383-2.76925-1.42642-6.81922-.72621-8.39977-2.74187-2.16886-2.76596-1.65911-7.43152-1.20583-10.25321-.16631 1.59936 1.26371 3.74817 4.45127 5.18615 1.65026.74448 4.38394.003 6.71108.55078 2.31024.54413 4.56314 1.93803 7.39169 2.18607 1.92312.16864 4.37778-.51493 6.4523-.46769 2.57061.0586 5.67806 1.34361 8.38559 1.18838 3.11822-.17878 5.85024-1.8352 8.99918-2.34077 2.49556-.40067 5.50573.67976 7.92966.0478 3.20681-.83609 5.78542-3.47569 8.7034-4.76349z" style="display:inline;fill-opacity:1;fill:#fff;stroke-dasharray:none;stroke-linecap:butt;stroke-linejoin:miter;stroke-miterlimit:4;stroke-opacity:1;stroke-width:0;stroke:#83afc8"/><path style="display:inline;fill-opacity:1;fill:#fff;stroke-dasharray:none;stroke-linecap:butt;stroke-linejoin:miter;stroke-miterlimit:4;stroke-opacity:1;stroke-width:0;stroke:#83afc8" d="m319.28311 252.17778c-.0967-1.35041-.65455-1.61923-.69335-2.76127-18.35158-.21551-52.79273-3.34505-56.7681-3.62799.1093.76405.10839 1.55293-.017 2.58364 11.40029 1.02084 39.20366 4.29703 57.47857 3.80562z" id="path5912"/><path style="display:inline;fill-opacity:1;fill:#fff;stroke-dasharray:none;stroke-linecap:butt;stroke-linejoin:miter;stroke-miterlimit:4;stroke-opacity:1;stroke-width:0;stroke:#83afc8" d="m316.1339 264.24306c-.0983-1.35041-.66562-1.61923-.70508-2.76127-18.662-.21551-53.68574-3.34505-57.72835-3.62799.11114.76405.11022 1.55293-.0173 2.58364 11.59313 1.02084 39.8668 4.29703 58.45084 3.80562z" id="path5914"/><path style="display:inline;fill-opacity:1;fill:#fff;stroke-dasharray:none;stroke-linecap:butt;stroke-linejoin:miter;stroke-miterlimit:4;stroke-opacity:1;stroke-width:0;stroke:#83afc8" d="m309.94673 277.32454c-.0879-1.35041-.59517-1.61923-.63045-2.76127-16.68657-.21551-48.00295-3.34505-51.61764-3.62799.0994.76405.0985 1.55293-.0155 2.58364 10.36596 1.02084 35.64679 4.29703 52.26366 3.80562z" id="path5921"/><path id="path1674-1-4-3-7" d="m174.95416 498.26644c-.94254.87836-12.99463-6.26384-16.74654-7.05301-3.52369-.74575-5.30858-1.77924-9.00349-2.61814-3.82139.36449-14.237 6.13747-15.77285 4.03174-1.02695-2.30291 2.57012-25.69455 3.87855-25.60263 1.29359-1.79566 12.62509 6.53404 13.6324 6.62753 4.30287-1.80268 5.08476.40909 7.67684 2.00219.87798.42859 17.04584-4.57591 18.51215-1.93356.0.0 2.60456 18.40313-2.17709 24.54627z" style="display:inline;fill-opacity:1;fill:#fff;stroke-dasharray:none;stroke-linecap:butt;stroke-linejoin:miter;stroke-miterlimit:4;stroke-opacity:1;stroke-width:0;stroke:#83afc8"/><path style="display:inline;fill-opacity:1;fill:#1a1a1a;stroke-dasharray:none;stroke-linecap:butt;stroke-linejoin:miter;stroke-miterlimit:4;stroke-opacity:1;stroke-width:0;stroke:#83afc8" d="m149.48435 488.15692c-3.73666.26902-13.89032 5.43238-15.39511 3.49876-1.00743-2.10415 2.42253-22.63397 3.70224-22.52954 1.26262-1.60713 12.38734 5.41084 13.37249 5.51182 1.48424.53925.28593 3.13233 1.31282 3.5771-1.34084-.28368-1.17374 10.35449-2.99244 9.94186z" id="path5755-7-0-7"/><path style="display:inline;fill-opacity:1;fill:#1a1a1a;stroke-dasharray:none;stroke-linecap:butt;stroke-linejoin:miter;stroke-miterlimit:4;stroke-opacity:1;stroke-width:0;stroke:#83afc8" d="m158.67417 476.57616c.85922.4027 16.65374-3.51868 18.09119-1.09966.0.0 2.60714 15.87691-2.06075 21.36913l1e-5-1e-4c-.92057.7811-12.74168-5.39476-16.41192-6.17054-1.71252-.36676-1.4784-10.64174-2.76577-11.20777 1.21173.1984 1.56366-3.07107 3.14724-2.89106z" id="path1682-7-73-9-4"/><path id="path1684-01-7-6-1" d="m158.11754 491.66876c-3.80243.78402-5.72647.51776-9.33545-2.74992-.40069-5.91133.12461-11.71863 1.81316-14.95534 3.36959 1.26504 4.81151 1.75168 7.96013 2.11377 2.0971 3.02102.3049 11.74172-.4379 15.59147z" style="display:inline;fill-opacity:1;fill:#fff;stroke-dasharray:none;stroke-linecap:butt;stroke-linejoin:miter;stroke-miterlimit:4;stroke-opacity:1;stroke-width:0;stroke:#83afc8"/><path id="path1686-2-6-6-7" d="m157.52691 491.21428c-3.31689.64488-5.05289.73717-7.96553-2.40913-.32982-5.64843.13092-11.21928 1.5794-14.35767 4.28102-1.58132 4.78092.2581 6.79243 1.83329 1.78433 2.84146.23589 11.23115-.40638 14.9337z" style="display:inline;fill-opacity:1;fill:#1a1a1a;stroke-dasharray:none;stroke-linecap:butt;stroke-linejoin:miter;stroke-miterlimit:4;stroke-opacity:1;stroke-width:0;stroke:#83afc8"/></svg>