<svg viewBox="0 0 560 1e3"><defs><filter style="color-interpolation-filters:sRGB" id="filter43708"><feGaussianBlur stdDeviation="1 1" result="blur" id="feGaussianBlur43706"/></filter><clipPath clipPathUnits="userSpaceOnUse" id="clipPath43791"><path id="path43793" d="m286.54519 878.37265c-2.9693 11.41526-10.863 21.52522-21.7167 30.85055-5.87316-3.82093-8.88099-2.19809-17.94629.32302-6.57911 1.82968-18.05444 10.28013-27.75939 6.96183-8.06564-2.75779 3.88971-22.35942 3.94751-34.18451.16603-33.97083-19.07208-22.79854-12.13859-44.16876 2.08534-6.42735 7.4336-13.82439 8.53632-17.08844 2.56927-7.60505 10.85035-20.66009 15.94049-20.69583 1.30389-.009 2.39839.83599 3.13387 2.84587-.6081 1.69181-.60047 1.56952-2.41645 4.35539 2.29049-.37057-4.22375 22.75458-2.926 24.16384 6.78464 3.78512 12.22528 8.33514 17.03648 13.04881 8.88531 8.70519 6.01716 10.10233 24.6312 23.93122 4.13649 3.07313 7.78955 6.43743 11.67755 9.65701z" style="display:inline;fill-opacity:.5;fill:#0ff;opacity:1;stroke-width:1"/></clipPath><clipPath clipPathUnits="userSpaceOnUse" id="clipPath43795"><path id="path43797" d="m215.40937 858.03179c7.64408-4.22932 15.87617-3.53201 24.4617.12665-.65126 7.21177 1.15365 8.79297 5.17768 14.95696 2.92042 4.47349 11.15597 9.17306 11.86928 19.32248.59282 8.43502-14.43763 9.91003-21.51784 16.83862-20.33986 19.90429-8.32215 29.55001-23.01428 36.30727-4.41883 2.03232-10.32325 1.88273-12.57944 2.87793-5.25679 2.31875-15.35584 3.03222-16.79101-1.24302-.36763-1.09515-.16676-2.51763.82963-4.32434 1.17957-.48498 1.1044-.41927 3.27304-.53029-.85757-1.71463 14.76648-9.86125 15.24789-11.78814.3767-7.95998 1.58365-15.23688 3.06319-22.07906 2.73241-12.63613 4.36369-11.03965 7.45471-34.91053.68691-5.3047 1.68204-10.37316 2.52545-15.55453z" style="display:inline;fill-opacity:.5;fill:#0ff;opacity:1"/></clipPath><clipPath clipPathUnits="userSpaceOnUse" id="clipPath43795-2"><path id="path43797-4" d="m215.40937 858.03179c7.64408-4.22932 15.87617-3.53201 24.4617.12665-.65126 7.21177 1.15365 8.79297 5.17768 14.95696 2.92042 4.47349 11.15597 9.17306 11.86928 19.32248.59282 8.43502-14.43763 9.91003-21.51784 16.83862-20.33986 19.90429-8.32215 29.55001-23.01428 36.30727-4.41883 2.03232-10.32325 1.88273-12.57944 2.87793-5.25679 2.31875-15.35584 3.03222-16.79101-1.24302-.36763-1.09515-.16676-2.51763.82963-4.32434 1.17957-.48498 1.1044-.41927 3.27304-.53029-.85757-1.71463 14.76648-9.86125 15.24789-11.78814.3767-7.95998 1.58365-15.23688 3.06319-22.07906 2.73241-12.63613 4.36369-11.03965 7.45471-34.91053.68691-5.3047 1.68204-10.37316 2.52545-15.55453z" style="display:inline;fill-opacity:.5;fill:#0ff;opacity:1"/></clipPath><filter style="color-interpolation-filters:sRGB" id="filter43708-2"><feGaussianBlur stdDeviation="1 1" result="blur" id="feGaussianBlur43706-2"/></filter><clipPath clipPathUnits="userSpaceOnUse" id="clipPath43791-1"><path id="path43793-5" d="m286.54519 878.37265c-2.9693 11.41526-10.863 21.52522-21.7167 30.85055-5.87316-3.82093-8.88099-2.19809-17.94629.32302-6.57911 1.82968-18.05444 10.28013-27.75939 6.96183-8.06564-2.75779 3.88971-22.35942 3.94751-34.18451.16603-33.97083-19.07208-22.79854-12.13859-44.16876 2.08534-6.42735 7.4336-13.82439 8.53632-17.08844 2.56927-7.60505 10.85035-20.66009 15.94049-20.69583 1.30389-.009 2.39839.83599 3.13387 2.84587-.6081 1.69181-.60047 1.56952-2.41645 4.35539 2.29049-.37057-4.22375 22.75458-2.926 24.16384 6.78464 3.78512 12.22528 8.33514 17.03648 13.04881 8.88531 8.70519 6.01716 10.10233 24.6312 23.93122 4.13649 3.07313 7.78955 6.43743 11.67755 9.65701z" style="display:inline;fill-opacity:.5;fill:#0ff;opacity:1;stroke-width:1"/></clipPath></defs><g id="g44268" style="display:inline"><path id="path44266" d="m240.6456 905.54495c-1.95135 1.08206-3.77081 2.28852-5.24541 3.73155-20.33986 19.90429-8.32215 29.55001-23.01428 36.30727-4.41883 2.03232-10.32325 1.88273-12.57944 2.87793-5.25679 2.31875-15.35584 3.03222-16.79101-1.24302-1.87057 2.67898.56572 3.68944 4.15576 4.56922 6.64561 1.6286 19.82389-1.85517 30.23225-8.61289 4.71958-3.06423 6.48664-16.25452 11.99589-24.78457 3.39189-5.2517 7.17004-10.04997 11.24624-12.84549z" class="shoe_accent"/></g><g id="g44312" style="display:inline"><path id="path44270" d="m215.41016 857.99219c-.0204-.006-.0348.001-.0391.0273-.84105 5.1669-2.47735 10.14524-3.16797 15.47852-3.08654 23.83641-4.6984 22.15036-7.44531 34.85351-1.47644 6.82786-2.39525 14.19556-2.78125 22.1543.0258-.11431-.1726.25215-.60547.62891-.43834.38152-1.06922.85546-1.81836 1.3789-1.49827 1.04688-3.468 2.29727-5.40039 3.54492-1.93238 1.24765-3.89454 2.82503-5.28125 3.88672-.69335.53084-1.25793 1.00896-1.66015 1.46289-.20111.22696-.36601.44513-.48047.70703-.002.005.002.0142.0.0195-.5867.027-1.15841.0458-1.5.0957-.47147.0688-.83284.20463-1.42774.44922-.14536.0596-.26597.1671-.34179.30469-1.05123 1.90614-1.45286 2.74069-1.00391 4.07812.43813 1.30514 1.53742 2.197 2.88477 2.74219s2.9793.7862 4.71679.82031c3.47499.0682 7.36573-.69564 10.11914-1.91016.91353-.40295 2.97484-.6547 5.30274-.99804 2.3279-.34335 4.9661-.81533 7.28711-1.88282 3.76186-1.73016 5.91197-3.71261 7.24219-6.0039 1.33021-2.29129 1.75108-4.4481 2.43554-7.3086 1.36892-5.72098 3.35376-12.88606 13.43555-22.75195 3.38358-3.31112 8.84837-5.41885 13.46484-7.73242 2.30824-1.15678 4.40899-2.3678 5.94141-3.89649 1.53242-1.52867 2.10397-3.31391 1.94141-5.62695-.73824-10.50414-8.88624-15.61307-11.60352-19.77539-2.02304-3.09888-3.45919-5.02028-4.28516-6.97656-.82597-1.95628-1.75955-3.9104-1.43945-7.45508.002-.0275-.0132-.0355-.0371-.0352-.62086 7.11099 1.18361 8.71361 5.18555 14.84375 2.92042 4.47349 11.15583 9.17285 11.86914 19.32227.59282 8.43502-14.43737 9.91125-21.51758 16.83984-20.33986 19.90429-8.32154 29.54938-23.01367 36.30664-4.41883 2.03232-10.32389 1.88176-12.58008 2.87696-5.25679 2.31875-15.35584 3.03305-16.79102-1.24219-.36762-1.09515-.16631-2.51751.83008-4.32422 1.17957-.48498 1.10285-.42023 3.27149-.53125-.85757-1.71463 14.76663-9.86022 15.24804-11.78711.3767-7.95998 1.58492-15.2379 3.06446-22.08008 2.73241-12.63613 4.36406-11.03927 7.45508-34.91015.68691-5.3047 1.68198-10.37332 2.52539-15.55469.0111-.006.0221-.0114.0332-.0176-.0107-.007-.0248-.0191-.0332-.0215z" class="shadow"/><path id="path44272" d="m215.40937 858.03179c7.64408-4.22932 15.87617-3.53201 24.4617.12665-.65126 7.21177 1.15365 8.79297 5.17768 14.95696 2.92042 4.47349 11.15597 9.17306 11.86928 19.32248.59282 8.43502-14.43763 9.91003-21.51784 16.83862-20.33986 19.90429-8.32215 29.55001-23.01428 36.30727-4.41883 2.03232-10.32325 1.88273-12.57944 2.87793-5.25679 2.31875-15.35584 3.03222-16.79101-1.24302-.36763-1.09515-.16676-2.51763.82963-4.32434 1.17957-.48498 1.1044-.41927 3.27304-.53029-.85757-1.71463 14.76648-9.86125 15.24789-11.78814.3767-7.95998 1.58365-15.23688 3.06319-22.07906 2.73241-12.63613 4.36369-11.03965 7.45471-34.91053.68691-5.3047 1.68204-10.37316 2.52545-15.55453z" class="skin feet"/><path id="path44274" d="m191.09009 938.61665.88388-.58556s.52237.044.14364.18229c-.90329.32981-1.02752.40327-1.02752.40327zm-.91878.65248c-.4724.32007-.89255.64015-1.30317.96023.0.0 1.41704-.44559 1.90384-.97095.3917-.42273-.60067.0107-.60067.0107zm-1.93727 1.49094c-.72481.56642-.76807.68685-1.07171 1.10486.0.0 1.10607-.0918 1.81196-.88074.52045-.58165-.74025-.22412-.74025-.22412zm-5.24039 4.14282c2.12632-.73279 1.81683-.36112 4.39879-.54059.0695-.80479.18124-1.41777.49464-2.03153-1.69487.0281-2.62583-.0512-3.99904.49457-.46179.84454-.62301 1.01712-.89439 2.07755z" class="feet_nails"/><g id="g44284" style="display:inline;stroke-width:1.06482" transform="matrix(1,0,0,0.8819522,0,100.9461)"><path d="m196.12474 952.72445c-1.36741.0749-4.1194.48538-5.69017 1.32388-.90006-.18233-2.21612-.1882-3.33371-.0833l.0215.0964c1.12452-.10559 2.41984-.0623 3.28488.12511l.11133.0234c1.85497-.60496 3.71646-1.31793 5.5842-1.45133z" id="path44276" class="shadow"/><path d="m193.27114 949.69444c-1.18153.11101-2.00158.25474-2.615.45608l-.25996.207c.82825-.38081 1.82304-.43914 2.91489-.55139.25448-.0907.0507-.0898-.04-.11155z" id="path44278" class="shadow"/><path d="m233.85987 867.97191c.20162 4.06516 1.78152 9.60173 1.27913 14.11442-.33424 3.00226-1.53099 4.29435-2.39316 7.57098.49516-3.07468 1.67721-4.53532 2.00285-7.58158.49663-4.64584-.91468-10.475-.88882-14.10382z" class="shadow" id="path44280"/><path d="m194.86521 950.89545c-1.41595.0228-2.77104.0112-3.98825.34647-.90906.25038-1.74356.62845-2.50882.8487l-.12988.12928c.99461-.34165 1.85167-.67608 2.68436-.85698 1.16156-.25236 2.40708-.23745 3.92062-.43331z" id="path44282" class="shadow"/></g><g id="g44296" style="filter:url(#filter43708-2)" clip-path="url(#clipPath43795-2)"><g id="g44294" style="display:inline;opacity:1;stroke-width:1.06482" clip-path="none" transform="matrix(1,0,0,0.8819522,-42,100.9461)"><path d="m267.94884 934.06743s1.81696-17.80622 13.64918-23.92439c5.93982-3.07134 11.76986-5.3462 16.52891 3.65706-15.96942 13.41019-19.24622 16.70881-30.17809 20.26733z" id="path44286" class="feet_shade"/><path d="m267.94884 934.06743s1.81696-17.80622 13.64918-23.92439c5.93982-3.07134 11.76986-5.3462 16.52891 3.65706-15.96942 13.41019-19.24622 16.70881-30.17809 20.26733z" id="path44288" class="feet_shade"/><path d="m269.19884 934.91782s1.81696-17.80622 13.64918-23.92439c5.93982-3.07134 11.76986-5.3462 16.52891 3.65706-15.96942 13.41019-19.24622 16.70881-30.17809 20.26733z" id="path44290" class="feet_shade"/><path d="m269.94884 935.69734s1.81696-17.80622 13.64918-23.92439c5.93982-3.07134 11.76986-5.3462 16.52891 3.65706-15.96942 13.41019-19.24622 16.70881-30.17809 20.26733z" id="path44292" class="feet_shade"/></g></g><path id="path44298" d="m215.40937 858.03179c7.64408-4.22932 15.87617-3.53201 24.4617.12665-.65126 7.21177 1.15365 8.79297 5.17768 14.95696 2.92042 4.47349 11.15597 9.17306 11.86928 19.32248.59282 8.43502-14.43763 9.91003-21.51784 16.83862-20.33986 19.90429-8.32215 29.55001-23.01428 36.30727-4.41883 2.03232-10.32325 1.88273-12.57944 2.87793-5.25679 2.31875-15.35584 3.03222-16.79101-1.24302-.36763-1.09515-.16676-2.51763.82963-4.32434 1.17957-.48498 1.1044-.41927 3.27304-.53029-.85757-1.71463 14.76648-9.86125 15.24789-11.78814.3767-7.95998 1.58365-15.23688 3.06319-22.07906 2.73241-12.63613 4.36369-11.03965 7.45471-34.91053.68691-5.3047 1.68204-10.37316 2.52545-15.55453z" class="stockings_primary"/><g id="g44310" style="filter:url(#filter43708-2);stroke-width:1.22342" clip-path="url(#clipPath43791-1)" transform="matrix(-0.27775722,-0.84404937,0.59738728,-0.59004834,-229.72928,1618.1724)"><g id="g44308" style="display:inline;opacity:1;stroke-width:1.30271" clip-path="none" transform="matrix(1,0,0,0.8819522,-42,100.9461)"><path d="m267.94884 934.06743s1.81696-17.80622 13.64918-23.92439c5.93982-3.07134 11.76986-5.3462 16.52891 3.65706-15.96942 13.41019-19.24622 16.70881-30.17809 20.26733z" id="path44300" class="feet_shade"/><path d="m267.94884 934.06743s1.81696-17.80622 13.64918-23.92439c5.93982-3.07134 11.76986-5.3462 16.52891 3.65706-15.96942 13.41019-19.24622 16.70881-30.17809 20.26733z" id="path44302" class="feet_shade"/><path d="m269.19884 934.91782s1.81696-17.80622 13.64918-23.92439c5.93982-3.07134 11.76986-5.3462 16.52891 3.65706-15.96942 13.41019-19.24622 16.70881-30.17809 20.26733z" id="path44304" class="feet_shade"/><path d="m269.94884 935.69734s1.81696-17.80622 13.64918-23.92439c5.93982-3.07134 11.76986-5.3462 16.52891 3.65706-15.96942 13.41019-19.24622 16.70881-30.17809 20.26733z" id="path44306" class="feet_shade"/></g></g></g><g id="g44322" style="display:inline"><path id="path44314" d="m246.32218 908.50664c1.18908.18104 2.39984.91814 2.55282 2.24337.91262 7.90594 1.66832 26.66011 2.15288 34.2356l-1.60868-.25628c-2.31495-26.72149-1.07371-11.78654-3.09702-36.22269z" class="shadow"/><path id="path44316" d="m246.68678 908.47349c1.18908.18104 2.03524.95129 2.18822 2.27652.91262 7.90594 1.70738 26.09761 2.19194 33.6731l-1.15555-.25628c-2.31495-26.72149-1.2013-11.25719-3.22461-35.69334z" class="shoe_accent"/><path id="path44621" d="m240.33008 860.91406c-.32457 93e-5-.54883.0859-.54883.0859-.0571 1.01766.0471 2.00307.40625 2.9375-8.25854 1.83709-17.2607 2.18693-26.25 2.5625L213 872c.003-14e-5.007 14e-5.01.0-.25191.71625-.2478 1.4684-.16993 1.48633 2.29151.78374 10.9998 3.7856 20.11133 7.22851 5.31055 2.00666 10.70188 4.28017 14.90039 6.56055 2.09926 1.14019 3.89975 2.28331 5.23047 3.375.87896.72108 1.4803 1.40143 1.88086 2.02344-.0347.27043-.0743.53877-.125.80273-1.62376 1.12771-4.30475 1.50815-7.77148 1.22656-4.07532-.331-9.0348-1.46115-14.0293-2.68359-4.99451-1.22244-10.02521-2.53698-14.32617-3.22656-3.21032-.51472-6.0253-.73969-8.18555-.17578-.44073 1.96407-.48317 2.28379-.92578 4.23633.1289.14644.26447.2915.40625.4375.95507.98348 2.21843 1.97157 3.67969 2.97851 2.92251 2.01388 6.63886 4.09974 10.16797 6.14844 3.5291 2.0487 6.87434 4.06814 8.97656 5.85156 1.05111.89171 1.77864 1.73244 2.07617 2.37891.0292.0633.0414.11205.0644.16992-.61665.71451-1.22423 1.46134-1.82226 2.23633-1.05979.29624-2.47877.36025-4.17578.18554-2.85027-.29342-6.33542-1.1816-9.75977-2.17187s-6.78898-2.08053-9.48047-2.76953c-1.34574-.3445-2.51903-.58985-3.49023-.66797-.22813-.0183-.44984-.0328-.66407-.0352l-.73242 3.49414c.88699 1.04518 2.13229 2.02063 3.55078 3.00977 2.3262 1.62209 5.17956 3.23314 7.89258 4.8457 2.71302 1.61257 5.28613 3.23385 7.00391 4.79492.85889.78054 1.49821 1.54342 1.84961 2.23829.12542.248.19533.48018.24023.70703-.19537.50115-.38894 1.00094-.57617 1.50195-1.00313.72692-2.53283 1.29004-4.41406 1.61914-2.38149.41662-5.21388.51524-7.91797.45313-5.40818-.12424-10.28906-.87891-10.28906-.87891l-.17383 1.12305c-.008-.0155-.0236-.0395-.0312-.0547-1.20912.75905-2.28943 1.43179-3.28125 2.07422 4.70119 7.3386 6.20199 12.3616 7.08398 16.46289-1.39274.62122-3.2894 1.1459-4.97461 1.6582-5.39944 1.49689-10.32794 1.95344-13.63671 1.14258-3.59004-.87979-6.02682-1.88938-4.15626-4.56836-6.00233 7.77524 12.68445 6.42604 18.35352 5.49219 3.00619-.4952 8.63976-1.99893 13.87109-5.15625 13.84533-8.35621 7.17645-12.86412 24.53516-35.27735 3.61354-4.66574 8.70168-4.97457 9.09961-1.52734.91261 7.90594 1.70685 26.09834 2.19141 33.67383l3.30859-.875s-1.16339-18.22562-.0859-33.11719c.50456-6.97336 3.98932-12.98805 3.77344-18.36914-.25876-6.44998-6.4878-13.62193-10.98242-20.38672-2.30045-3.46238-3.96279-7.13794-4.85938-9.26953-.52975-1.25944-1.34967-1.49373-1.89062-1.49219zm1.91992 7.92969s2.00842 3.55724 2.93164 5c1.51192 2.36276 5.08804 5.37555 7.93945 9.89453 1.21579 1.92681 1.85182 4.27662 1.94141 6.58984-.30512-.29444-.63743-.58626-.99414-.8789-1.44917-1.18887-3.32076-2.36922-5.47461-3.53906-4.3077-2.33969-9.74591-4.62769-15.09375-6.64844-9.39327-3.54937-18.21789-6.57945-20.25781-7.27539 9.50681-.4409 20.07857-1.35052 29.00781-3.14258zm-27.64062 21.10156c1.14926.0294 2.4402.15591 3.85546.38281 4.1823.67057 9.19329 1.97498 14.20313 3.20118 5.00984 1.22619 10.01734 2.37697 14.27344 2.72265 2.78727.22639 5.28988.11754 7.25976-.62304-.43224 1.06617-1.01575 2.01659-1.76367 2.76562-3.1498 3.15447-11.79102 7.15039-11.79102 7.15039-1.56848 1.07569-3.09316 2.45272-4.56836 4.0332-.49732-.85361-1.26413-1.66245-2.24218-2.49218-2.27688-1.9316-5.65907-3.95547-9.20117-6.01172-3.5421-2.05625-7.23867-4.13736-10.06641-6.08594-1.41387-.97429-2.60989-1.917-3.44727-2.7793-.61835-.63675-.79956-1.12749-.99609-1.61132 1.04713-.47987 2.56893-.70129 4.48438-.65235zm-8.81446 19.23242c.0608-.0101.14282-.0125.32227.002.80403.0647 1.92501.29081 3.23047.625 2.61091.66838 5.97852 1.7567 9.43359 2.75586 3.45507.99915 6.99616 1.91195 10.0332 2.22461 1.05252.10835 2.05471.1453 2.98243.084-.81819 1.13893-1.61989 2.31604-2.39844 3.52148-1.23844 1.9175-2.28051 4.07442-3.2168 6.29493-.47009-.72794-1.09653-1.41843-1.8418-2.09571-1.88906-1.71673-4.52471-3.35596-7.25781-4.98046-2.7331-1.62451-5.56296-3.22683-7.79492-4.78321-1.84544-1.28685-3.05705-2.52647-3.68945-3.60547.097-.0151.13649-.0329.19726-.043zm18.17188 21.27149c-2.06371 5.7216-3.81844 10.94495-6.5625 12.72656-1.40851.91449-2.86856 1.76857-4.35547 2.5586-3.57131-4.31104-9.00167-11.57993-10.77735-14.77149.81078.11988 5.15742.73451 10.16797.84961 2.7656.0635 5.67602-.0294 8.22071-.47461 1.19664-.20934 2.31559-.49268 3.30664-.88867z" class="shoe_primary"/><path id="path44682" d="m240.40625 860.60938c-.41272 99e-5-.72656.11718-.72656.11718-.18817.0711-.20742.57455-.21875.77539-.0487.86795.0127 1.45834.24609 2.29493-8.05982 1.72817-17.06128 2.13982-25.86914 2.50781-.23956.01-.20534-.14247-.24609.0937.0629 2.27898-1.45661 5.58659-.94727 7.83398 2.28857.78273 10.96172 3.73815 20.06445 7.17774 5.2982 2.00199 10.67526 4.27036 14.8379 6.53125 2.08114 1.13035 3.57775 2.19839 4.86914 3.25781.79268.6503 1.65251 1.35442 2.01953 1.89648-.015.10611-.0315.21078-.0488.31446-1.47612.93628-3.99942 1.20909-7.29492.9414-4.01538-.32613-8.95993-1.44875-13.94922-2.66992-4.98933-1.22117-10.02768-2.53861-14.36719-3.23437-3.23334-.51842-6.23841-.67178-8.53516-.0723-.18397.0483-.16935-.0548-.21093.13086-.44179 1.96877-.48427 2.28667-.92578 4.23437-.0366.15924.006.32636.11328.44922.13569.15417.27763.30454.42382.45508.99264 1.02216 2.21688 2.18179 3.69336 3.19922 2.95329 2.03509 6.67651 4.1238 10.20118 6.16992 3.52428 2.04591 6.86063 4.06704 8.90429 5.80078.96245.8165 1.65782 1.42325 1.92774 1.93946-.50312.59124-1.00023 1.19979-1.49024 1.83007-.95705.24423-2.29146.4861-3.88281.32227-2.78827-.28704-6.25803-1.16707-9.67187-2.1543-3.41406-.98729-6.77643-2.07772-9.49415-2.77343-1.35835-.34773-2.5215-.66378-3.54492-.7461-.23302-.0187-.46602-.0326-.69922-.0352-.24296-.003-.45403.0571-.5039.29492l-.73242 3.49414c-.0324.15366-.0369.6008.0645.7207.93795 1.10523 2.12011 2.06156 3.55273 3.06055 2.35667 1.64333 5.21755 3.25668 7.92383 4.86523 2.70572 1.60824 5.26149 3.22546 6.92188 4.73438.82978.75408 1.49385 1.54736 1.80078 2.15429.0813.16081.11744.30791.15429.45899-.15035.38637-.29908.774-.44531 1.16211-.91079.62931-2.50783.98468-4.28125 1.29492-2.32747.40717-5.13478.50891-7.81836.44727-5.36792-.12331-9.95703-1.00586-9.95703-1.00586-.27711-.0427-.53654.14684-.58008.42382l-.125.81055c-1.14126.71603-2.18556 1.36633-3.13671 1.98242-.23435.15266-.30151.46583-.1504.70118 4.51241 7.0439 6.01714 11.86819 6.9043 15.85742-1.30302.53635-2.95921 1.03076-4.51562 1.5039-5.34348 1.47996-10.21715 1.90673-13.36719 1.13477-1.77717-.43552-3.24076-.93096-3.91797-1.50391-.3386-.28647-.48149-.54369-.49609-.87304-.012-.26971-.0174-.83618.25195-1.29493-.72106-1.97611-.61572.10122-.75816.86654-.25953 1.68559 1.90464 2.59013 4.79918 3.29948 3.30877.81086 8.23727.35431 13.63671-1.14258 1.68521-.5123 3.58187-1.03698 4.97461-1.6582-.88199-4.10129-2.38279-9.12429-7.08398-16.46289.99182-.64243 2.07213-1.31517 3.28125-2.07422.008.0152.0234.0392.0312.0547l.17383-1.12305s4.88088.75467 10.28906.87891c2.70409.0621 5.53648-.0365 7.91797-.45313 1.88123-.3291 3.41093-.89222 4.41406-1.61914.18723-.50101.3808-1.0008.57617-1.50195-.0449-.22685-.11481-.45903-.24023-.70703-.3514-.69487-.99072-1.45775-1.84961-2.23829-1.71778-1.56107-4.29089-3.18235-7.00391-4.79492-2.71302-1.61256-5.56638-3.22361-7.89258-4.8457-1.41849-.98914-2.66379-1.96459-3.55078-3.00977l.73242-3.49414c.21423.002.43594.0169.66407.0352.9712.0781 2.14449.32347 3.49023.66797 2.69149.689 6.05612 1.77926 9.48047 2.76953s6.9095 1.87845 9.75977 2.17187c1.69701.17471 3.11599.1107 4.17578-.18554.59803-.77499 1.20561-1.52182 1.82226-2.23633-.0231-.0579-.0353-.10657-.0644-.16992-.29753-.64647-1.02506-1.4872-2.07617-2.37891-2.10222-1.78342-5.44746-3.80286-8.97656-5.85156-3.52911-2.0487-7.24546-4.13456-10.16797-6.14844-1.46126-1.00694-2.72462-1.99503-3.67969-2.97851-.14178-.146-.27735-.29106-.40625-.4375.44261-1.95254.48505-2.27226.92578-4.23633 2.16025-.56391 4.97523-.33894 8.18555.17578 4.30096.68958 9.33166 2.00412 14.32617 3.22656 4.9945 1.22244 9.95398 2.35259 14.0293 2.68359 3.46673.2816 6.14772-.0988 7.77148-1.22656.0507-.26396.0903-.5323.125-.80273-.40056-.62201-1.0019-1.30236-1.88086-2.02344-1.33072-1.09169-3.13121-2.23481-5.23047-3.375-4.19851-2.28038-9.58984-4.55389-14.90039-6.56055-9.11153-3.44291-17.81982-6.44477-20.11133-7.22851-.0779-.0179-.082-.77008.16993-1.48633-.003 14e-5-.007-14e-5-.01.0l.9375-5.5c8.9893-.37557 17.99146-.72541 26.25-2.5625-.35915-.93443-.46335-1.91984-.40625-2.9375.0.0.22426-.085.54883-.0859.54095-.002 1.36087.23275 1.89062 1.49219.89659 2.13159 2.55893 5.80715 4.85938 9.26953 4.49462 6.76479 10.72366 13.93674 10.98242 20.38672.21588 5.38109-3.26888 11.39578-3.77344 18.36914-1.07745 14.89157.0859 33.11719.0859 33.11719l-3.30859.875c-.48456-7.57549-1.2788-25.76789-2.19141-33.67383-.39793-3.44723-5.48607-3.1384-9.09961 1.52734-17.35871 22.41323-10.68983 26.92114-24.53516 35.27735-5.23133 3.15732-10.8649 4.66105-13.87109 5.15625-5.43958.89605-22.85858 2.17293-18.9574-4.59389.40964-.81684.27124-.74261.20154-1.20885-.78713 1.01963-1.20835 1.92946-1.27148 2.7793-.0631.84984.27744 1.6099.86132 2.16797 1.1678 1.11614 3.19663 1.61689 5.55665 1.88086 4.72003.52794 10.80718-.0483 13.6914-.52344 3.06859-.50548 8.74425-2.01877 14.05274-5.22266 6.98825-4.21768 8.90897-7.60247 11.15039-12.59375 2.24142-4.99127 4.8735-11.63996 13.52343-22.80859 1.73932-2.24578 3.82396-3.40503 5.41797-3.61133.79701-.10315 1.45672.0272 1.91992.32813.46323.30091 1.02242.67725 1.10764 1.41551.90627 7.85103 1.70384 26.05651 2.18945 33.64844.0206.32014.0469.70178.41218.58053l3.30859-.875c.2351-.0625.36545-.31581.34933-.55855.0.0-1.1594-18.21139-.0859-33.04687.4939-6.8262 3.99871-12.81042 3.77343-18.42578-.27126-6.76163-6.59996-13.92606-11.0664-20.64844-2.27113-3.41825-4.08021-7.0372-4.97071-9.1543-.59374-1.41158-1.43765-1.63282-2.12695-1.63085zm1.84375 8.23437c-8.92924 1.79206-19.501 2.70168-29.00781 3.14258 2.03992.69594 10.86454 3.72602 20.25781 7.27539 5.34784 2.02075 10.78605 4.30875 15.09375 6.64844 2.15385 1.16984 4.02544 2.35019 5.47461 3.53906.35671.29264.68902.58446.99414.8789-.0896-2.31321-.72562-4.66303-1.94141-6.58984-2.85141-4.51898-6.42753-7.53177-7.93945-9.89453-.92322-1.44276-2.93164-5-2.93164-5zm-.35547.85742c.22077.39068 1.97059 3.02708 2.85938 4.41602 1.60239 2.50414 5.13407 5.44964 7.9375 9.89258.92768 1.47021 1.5693 3.4484 1.80859 5.23242-1.48127-1.20858-3.35655-2.39212-5.50781-3.56055-4.34327-2.35901-9.79631-4.65241-15.15625-6.67773-8.34873-3.15468-15.34461-5.43298-18.43946-6.4961 8.76189-.47163 18.33771-1.19721 26.49805-2.80664zm-27.28515 20.24414c-1.91546-.0489-3.43725.17248-4.48438.65235.19653.48383.37774.97457.99609 1.61132.83738.8623 2.0334 1.80501 3.44727 2.7793 2.82774 1.94858 6.52431 4.02969 10.06641 6.08594 3.5421 2.05625 6.92429 4.08012 9.20117 6.01172.97805.82973 1.74486 1.63857 2.24218 2.49218 1.4752-1.58048 2.99988-2.95751 4.56836-4.0332.0.0 8.64122-3.99592 11.79102-7.15039.74792-.74903 1.33143-1.69945 1.76367-2.76562-1.96988.74058-4.47249.84943-7.25976.62304-4.2561-.34568-9.2636-1.49646-14.27344-2.72265-5.00984-1.2262-10.02083-2.53061-14.20313-3.20118-1.41526-.2269-2.7062-.35344-3.85546-.38281zm-.45313.60742c.87472-.0265 1.86576.0975 4.21289.4336 4.14319.6643 9.14743 1.96597 14.16211 3.19336 5.01448 1.22732 10.03871 2.38588 14.35352 2.73633 2.33158.18937 4.50172.2226 6.35742-.23633-.33132.59876-.71517.90592-1.16407 1.35547-1.48643 1.48864-4.42303 3.28738-6.96093 4.67187-2.53791 1.38449-4.6836 2.37695-4.6836 2.37695-.0258.0116-.0507.0253-.0742.041-1.45788.99984-2.86118 2.26959-4.22461 3.68555-.51856-.72858-1.22195-1.2688-2.03321-1.95703-2.33272-1.97898-5.72759-4.00408-9.27344-6.0625-3.5461-2.05858-7.23667-4.13739-10.0332-6.06446-1.39799-.96335-2.69827-1.95578-3.49609-2.77734-.35001-.36042-.52078-.64717-.65625-.92774 1.88054-.26515 2.63895-.44222 3.51367-.46875zm-8.36133 18.625c-.0608.0101-.10026.0279-.19726.043.6324 1.079 1.84401 2.31862 3.68945 3.60547 2.23196 1.55638 5.06182 3.1587 7.79492 4.78321 2.7331 1.62449 5.36875 3.26373 7.25781 4.98046.74527.67728 1.37171 1.36777 1.8418 2.09571.93629-2.22051 1.97836-4.37742 3.2168-6.29493.77855-1.20543 1.58025-2.38255 2.39844-3.52148-.92772.0613-1.92991.0244-2.98243-.084-3.03704-.31266-6.57813-1.22546-10.0332-2.22461-3.45507-.99916-6.82268-2.08748-9.43359-2.75586-1.30546-.33419-2.42644-.5603-3.23047-.625-.17945-.0145-.2615-.012-.32227-.002zm.64258.66797c.76016.10547 1.92301.38995 2.75195.62305 2.5842.66154 5.95491 1.74991 9.41993 2.75195 3.46475 1.00195 7.02379 1.92332 10.12109 2.24219.73186.0753 1.30576.21985 1.99023.21875-.63659.90717-1.13879 1.48725-1.75 2.43359-1.12365 1.73979-2.20436 3.92191-3.0664 5.90039-.41653-.52826-.82065-1.0596-1.36328-1.55273-1.94407-1.76672-4.60103-3.41313-7.33985-5.04101-2.73939-1.62825-5.56282-3.22899-7.76367-4.76368-1.33149-.92847-2.43507-2.15394-3-2.8125zm17.5293 20.60352c-.99105.39599-2.11.67933-3.30664.88867-2.54469.44521-5.45511.53811-8.22071.47461-5.01055-.1151-9.35719-.72973-10.16797-.84961 1.77568 3.19156 7.20604 10.46045 10.77735 14.77149 1.48691-.79004 2.94696-1.64411 4.35547-2.5586 2.74406-1.78161 4.49879-7.00496 6.5625-12.72656zm-.83399.88086c-.89631 2.49294-1.75175 4.79825-2.65429 6.74609-1.02327 2.20837-2.12844 3.8797-3.35157 4.67383-1.2766.82885-2.60433 1.5936-3.94922 2.32031-3.32051-4.03728-8.13481-10.03834-10.125-13.33398 1.5768.21357 4.86494.6193 9.10938.71679 2.78518.064 5.72259-.026 8.32031-.48046.85393-.14938 1.87992-.40204 2.65039-.64258z" class="shadow"/></g><path id="path44479-3" d="m379.68164 879.41016c-.1542 11.27806-8.98523 47.20923-8.19141 58.71289-.15948-10.39357 8.3147-46.94922 8.19141-58.71289zm20.62891 11.41211c.54846 11.03156 1.66914 32.09267 6.05468 46.61132-3.71827-17.56903-5.43981-35.88333-6.05468-46.61132z" class="shadow"/><path id="path44491-0" d="m371.77528 942.28204c1.70067 13.00617 10.84172 15.15448 27.11997 9.29853 5.6573-2.03516 8.4317-4.51326 8.37128-9.11182.47257 8.82141-3.01725 9.56109-12.25913 12.47857-11.91903 3.76261-21.66452 1.58276-23.23212-12.66528z" class="shoe_primary"/><path id="path21983-0-2" class="shoe_accent" d="m398.89525 951.58057c7.44113-2.67688 9.89469-6.12005 7.47009-14.14686-4.38554-14.51865-5.50704-35.58009-6.0555-46.61165l-20.6286-11.41207c.12329 11.76367-8.35109 48.31893-8.19161 58.7125.25572 16.66517 9.52487 19.89052 27.40562 13.45808z"/><g id="g44112-3-4" style="display:inline"><path id="path22370-6-3-1" d="m400.70278 890.7189c.1251 16.07088 1.36398 32.9983 2.52353 39.79464 1.19848 7.0245 4.23078 6.84273 4.2683 10.82121.0186 1.96827.34418 5.21407-2.95537 5.13548-.84227 4.75496-2.39304 4.21964-5.61961 4.25193-2.07305 2.02638-3.9434 2.32322-6.93271 1.00485-.6477.96945-2.40797 1.37474-3.65994 1.38084-2.09335.0102-2.35423-.37169-3.14109-1.65473-3.56006 1.44678-8.10936.61417-9.32013-.14431-2.01518-1.26239-.75901-4.86123-3.38575-6.69804-1.0476-.73256-1.10773-7.62967-.96282-8.62467.54058-3.71174.41165-2.91264 1.10714-6.30686.64402-3.14301 2.12899-6.95792 2.85196-9.77856 1.54378-6.02297.53287-23.19287 1.82992-27.74591.58785-2.06353.66089-2.42415.81789-3.99404.4239-4.23882-1.30943-6.86082-2.15547-10.41915 1.53488-3.81106 3.75773-7.41574 3.75747-11.68734 7.40541-1.69937 13.30033-1.15704 20.93729 1.73437-.54348 5.61968.32614 10.96792 1.61199 16.17184-.64128 2.19443-1.5993 3.32884-1.5726 6.75845z" class="skin feet"/><g id="g22632-3-8-6" style="display:inline;opacity:1"><path d="m400.36523 937.45448c-.2948-.74318-.4149.0207-.56055.0605.1102 1.0887.93413 2.19401 1.62113 3.10514.77251 1.02455 1.55161.84449 1.95238 2.23509.43018 1.49267.89534 1.87763 1.22544 3.53244l.21875.0117c-.3258-1.77618-.84756-2.3529-1.11941-3.48555-.37154-1.54801-.94023-1.44017-1.77821-2.62374-.59821-.84493-1.4586-1.83882-1.55953-2.83564zm-5.29369 1.88331c.1556.45453.48733 1.73183 1.97498 3.63307.82507 1.05445 1.55223 1.92117 1.7226 3.51093.14395 1.34317.23248 2.77199.19081 4.24812l.22658-.0312c.0777-.6999.0613-2.04106.0108-3.53908-.0667-1.97647-.72874-3.01059-1.74329-4.48702-1.79818-2.61682-1.70518-3.03432-1.74188-3.11212-.27713-.61224-.40113-.43395-.64063-.22265zm-6.33107-.34091c.11985 1.40735.9469 3.0156 1.83191 4.35142 1.19986 1.81106 1.16941 2.93954 1.2202 3.94867.10486 2.08433.7298 2.32886.20162 4.43593l.16446.0625c.56406-1.691.21521-2.32332.10914-4.43153-.0525-1.0446.15102-2.661-1.13949-3.97394-1.06693-1.08548-1.68218-2.75493-1.76477-4.10399-.0642-.76611-.31014-.68374-.62304-.28906zm-6.50057-.58727c-.1792-.26765-.8625-.0259-.81055.32812.12532.85413 1.31484 2.4455 1.6505 3.72967.49471 1.89268.24223 3.00014 1.61443 4.00421.66539.48687 1.51943 3.20491.39165 4.95358l.14064.12109c.98394-2.48991.71484-4.29855-.37975-5.30799-1.41733-1.30707-.92336-2.47104-1.39341-3.78079-.78768-2.19483-1.06181-3.2303-1.21353-4.04789z" id="path22368-7-7-2" class="shadow"/><path d="m396.35932 879.09548c.33577 5.97053 1.94225 6.86306 4.45368 11.7344-4.10767-5.64573-4.49649-6.43544-4.45368-11.7344z" class="shadow" id="XMLID_590_-04-8-55-8-75-5-39-2-0"/><path d="m378.16403 886.94416c3.50178-2.27327 4.23806-2.786 5.89065-7.82868-.78635 4.34205-1.48231 5.32462-5.89065 7.82868z" class="shadow" id="XMLID_590_-04-8-55-8-75-5-3-69-1-4"/></g><path id="path43974-5-1" d="m404.46508 943.6782c.47188-.68218.96673-1.22651 1.61309-.86178.0.0-.47753-1.3923-1.25953-1.19325-.9319.2372-.35356 2.05503-.35356 2.05503zm-4.11006 3.40295c.93099-1.69053 1.57905-1.56225 2.49763-1.34366.0.0-.83677-2.04301-2.053-1.20259-1.03631.71609-.44463 2.54625-.44463 2.54625zm-6.36396 1.32583c1.01277-.77873 2.16409-.83702 3.38465-.53523.0.0-.82691-2.08744-2.39674-1.89989-1.3865.16564-.98791 2.43512-.98791 2.43512zm-4.37522.35355c-.75796-.39481-1.25973-.67212-3.0494.0221.0.0-.42481-2.14622 1.01647-2.27286 2.16979-.19064 2.03293 2.25076 2.03293 2.25076zm-12.24179-.83969c1.51694-.70935 3.06265-1.3533 5.21492-.61871-.0789-.77354-.28522-1.53859-1.23744-2.25391-1.64019-.33912-3.14012-.25745-4.48571.28726.0304 1.00079.0218 2.04056.50823 2.58536z" class="feet_nails"/><path id="path43992-4-4" d="m379.68164 866.0332c26e-5 4.17195-2.38625 7.94708-3.93359 11.78907-.0225.0551-.0273.11586-.0137.17382.85912 3.61337 2.52048 5.98477 2.10546 10.13477-.15655 1.56539-.22143 1.8842-.80859 3.94531-.33998 1.19345-.51485 3.12141-.62695 5.47266-.11211 2.35125-.15583 5.11508-.20703 7.92187-.1024 5.61359-.2462 11.42413-.99805 14.35742-.71496 2.7894-2.08601 6.60972-2.73828 9.79297-.69511 3.39236-.56889 2.61309-1.10938 6.32422-.0435.29838-.0641.90116-.0625 1.70508.002.80392.0293 1.78806.0937 2.76563.0644.97756.16551 1.94832.32031 2.73437.0774.39303.16789.73963.2793 1.02539s.23403.51808.45117.66992c1.22357.85562 1.42333 2.11036 1.6875 3.38868.13209.63914.24669 1.27629.4668 1.85546.22011.57918.55781 1.10759 1.125 1.46289.70244.44005 2.1459.81695 3.91211.94141 1.6954.11947 3.66093-.10973 5.44141-.78125.33131.53493.61021 1.03395 1.05273 1.29883.49892.29864 1.14482.388 2.20898.38281.65632-.003 1.4806-.19092 2.19336-.42578.63022-.20767 1.17175-.57155 1.5625-1.0332 1.43725.61039 2.78432.912 3.90821.74609 1.13514-.16757 2.07511-.81527 3.10156-1.79297 1.54622-.009 2.68448.0812 3.66992-.42969.50376-.26115.92545-.69879 1.25977-1.35742.31217-.61498.52356-1.37174.72851-2.45703.74255-.0229 1.37616-.10808 1.81641-.4375.49202-.36816.67882-.93283.85547-1.49609.35328-1.12653.25525-2.45405.24609-3.42383-.0195-2.06221-.81864-3.06248-1.72461-4.38281-.90596-1.32033-1.93103-2.96718-2.52343-6.43946-1.15196-6.75183-2.30665-23.69035-2.43165-39.74804-.0263-3.37567.78992-4.27288 1.44532-6.51563.0143-.0483.0156-.0995.004-.14844-1.28209-5.18869-2.26749-10.44837-1.72851-16.02148-.0226.0312-.0456.059-.0684.0898-.47819 5.49781.37245 10.73907 1.63281 15.83985-.64128 2.19443-1.59896 3.3282-1.57227 6.75781.1251 16.07088 1.36389 32.99858 2.52344 39.79492 1.19848 7.0245 4.23006 6.84183 4.26758 10.82031.0186 1.96827.34447 5.21531-2.95508 5.13672-.84227 4.75496-2.39257 4.21967-5.61914 4.25196-2.07305 2.02638-3.94428 2.32227-6.93359 1.0039-.6477.96945-2.40819 1.37476-3.66016 1.38086-2.09335.0102-2.35376-.37126-3.14062-1.6543-3.56006 1.44678-8.10955.61395-9.32032-.14453-2.01518-1.26239-.75802-4.86045-3.38476-6.69726-1.0476-.73256-1.1078-7.63-.96289-8.625.54058-3.71174.41193-2.91242 1.10742-6.30664.64402-3.14301 2.12859-6.95866 2.85156-9.7793 1.54378-6.02297.53303-23.19305 1.83008-27.74609.58785-2.06353.66136-2.42425.81836-3.99414.4239-4.23882-1.31021-6.85964-2.15625-10.41797 1.53015-3.79932 3.74249-7.39409 3.75586-11.64844-.0157-.0225-.0271-.0379-.043-.0606z" class="shadow"/><path id="path43999-1-6" d="m400.70278 890.7189c.1251 16.07088 1.36398 32.9983 2.52353 39.79464 1.19848 7.0245 4.23078 6.84273 4.2683 10.82121.0186 1.96827.34418 5.21407-2.95537 5.13548-.84227 4.75496-2.39304 4.21964-5.61961 4.25193-2.07305 2.02638-3.9434 2.32322-6.93271 1.00485-.6477.96945-2.40797 1.37474-3.65994 1.38084-2.09335.0102-2.35423-.37169-3.14109-1.65473-3.56006 1.44678-8.10936.61417-9.32013-.14431-2.01518-1.26239-.75901-4.86123-3.38575-6.69804-1.0476-.73256-1.10773-7.62967-.96282-8.62467.54058-3.71174.41165-2.91264 1.10714-6.30686.64402-3.14301 2.12899-6.95792 2.85196-9.77856 1.54378-6.02297.53287-23.19287 1.82992-27.74591.58785-2.06353.66089-2.42415.81789-3.99404.4239-4.23882-1.30943-6.86082-2.15547-10.41915 1.53488-3.81106 3.75773-7.41574 3.75747-11.68734 7.40541-1.69937 13.30033-1.15704 20.93729 1.73437-.54348 5.61968.32614 10.96792 1.61199 16.17184-.64128 2.19443-1.5993 3.32884-1.5726 6.75845z" class="stockings_primary"/></g><path id="path44493-2" d="m407.28957 944.82c-.28337 6.6344-3.93759 7.49318-12.28176 10.12727-11.91903 3.7626-21.66482 1.58202-23.23242-12.66602-.0126-.0553-.109-.0534-.0818.12824 1.74574 11.65457 9.88934 14.61004 23.89735 10.27866l-.74735-.0822c-6.2342 1.85258-11.21051 2.27723-14.88657 1.11666-1.44313-.45561-2.6969-1.16501-3.76048-2.13777-.82783-.20793-1.22367-.82267-1.43166-1.62827-1.37768-1.94061-2.28413-4.54396-2.71606-7.84724l-.5957.13871c.79313 7.17963 3.73522 11.64233 7.95703 13.54297 4.22463 1.90191 9.70996 1.48495 15.70703-.40821 4.61761-1.45769 7.82597-2.36168 9.87304-4.08008 1.85165-1.55435 2.65157-3.89661 2.611-7.62286zm-1.15091 1.43315c-.29592.54867-.67126 1.05423-1.12694 1.52805-.27095.28173-.57131.552-.90125.81225l-.18247.50788c1.20438-.87141 2.08175-1.86302 2.63399-3.03955zm-5.97746 4.52505c-.43411.17843-.88951.35298-1.36628.52449-.22568.0812-.44995.16081-.67283.23886l-.54079.49882c.43245-.14747.8702-.30091 1.31323-.46029.70039-.25196 1.3566-.5107 1.9687-.77941z" class="shadow"/><path id="path44697" style="baseline-shift:baseline;clip-rule:nonzero;color-interpolation-filters:linearRGB;color-interpolation:sRGB;color-rendering:auto;color:#000;direction:ltr;display:inline;dominant-baseline:auto;enable-background:accumulate;fill-opacity:.501961;fill-rule:nonzero;fill:#44a8ac;image-rendering:auto;inline-size:0;isolation:auto;mix-blend-mode:normal;opacity:1;overflow:visible;shape-margin:0;shape-padding:0;shape-rendering:auto;solid-color:#000000;solid-opacity:1;stop-color:#000000;stop-opacity:1;stroke-dasharray:none;stroke-dashoffset:0;stroke-linecap:butt;stroke-linejoin:round;stroke-miterlimit:4;stroke-opacity:1;stroke-width:1.554;stroke:none;vector-effect:none;visibility:visible;white-space:normal;writing-mode:lr-tb" d="m386.12305 878.46684c-3.32378.96506-6.21763 3.59604-8.34766 6.60156.0479.83983.15412 1.4478.0879 2.74414.20159-.35178.41497-.70154.63867-1.04688 2.4454-3.77508 6.14136-6.95255 9.97852-7.13281.2461-.0182.30644-.0194.53906.006 1.29993.13833 3.01081 1.01911 4.72852 2.4043 1.80769 1.45776 3.6315 3.43315 5.13867 5.47851.81152 1.10131 1.53145 2.22612 2.11328 3.29493.0257-1.12056.0977-1.96323.18555-2.71094-.33008-.50298-.68082-1.00643-1.04883-1.50586-1.57783-2.14126-3.46924-4.19887-5.41211-5.76563-1.31087-1.0571-2.63909-1.90006-3.95117-2.36914l-1e-5-18e-5v-4e-5c5.3142-.21375 9.83208-1.12769 10.11718-2.4375-.16455-1.09397-.24987-2.22812-.29687-3.38086-1.16683 2.06326-5.03971 2.54383-10.83398 2.54883-4.0822-.0298-10.12112.0291-11.3418-3.44531v4e-5l-1.20508 2.78125c.14263 2.91134 4.77065 3.74321 8.91016 3.93555zm4.92187 16.40035c-.81182-.01-1.70236-.009-2.68554.006-.27446.007-.42881.01-.64454.0137-3.96705.19711-8.01379.43114-11.21093 1.17969-.0626.44628-.0855.99508-.10743 1.54297 2.1589-.52504 5.02075-.76167 7.97266-.94532-4.33485 2.55624-6.97114 5.95115-8.48242 9.16406-.075.15936-.14671.31846-.2168.47657-.54647 2.6943-.88805 4.68082-1.64258 9.3125.023.002.0467.002.0703.002 1.85352-.027 3.96525-.69758 6.29882-1.35156.92637-.25962 1.90322-.49763 2.88282-.7207-.26541.19907-.52615.33291-.79297.55078-1.77312 1.44777-3.55962 3.30458-5.18164 5.23046-1.62202 1.9259-3.07674 3.91919-4.17188 5.6504-.2968.46919-.56744.91322-.80859 1.33203-.19638 1.51164-.25976 1.96785-.45899 3.79883 3.9283 1.02876 9.08047 1.30463 14.85352 1.22851.54745-.0138.49804.37031.51758.76172-7.75464.40567-14.69966 2.4163-15.7461 5.02539v.99805c41e-5 1.25369.11137 2.92819.23243 4.03125.98821-3.52666 8.71986-6.22027 17.68554-6.21289 5.79427.005 16.32714.41977 17.39453 2.46093-.57054-1.88882-.79262-1.76485-1.27148-3.86718-.57544-1.36295-8.59722-2.6136-16.10742-2.51563.0575-.36561.0613-.70531.48242-.68359 7.13891-.25304 11.73503-.70504 15.0293-1.26367-.19313-1.11012-.36996-2.17091-.60157-3.39649-.25155-.41353-.53655-.86201-.85351-1.3457-1.09108-1.66502-2.54296-3.65508-4.20117-5.61133-1.91347-2.25739-4.08701-4.40882-6.34375-6.01172.88297.21092 1.76535.42343 2.59375.65235 2.28564.63152 4.45697 1.24806 7.16797 1.25976-.53989-4.27607-.8451-6.93427-.99024-8.29297-.076-.1475-.15585-.29557-.23828-.44531-1.7118-3.10978-4.97456-6.69832-10.56836-10.31641 5.17027.12286 7.31307.66589 10.21094 1.12696l-.0488-1.63477c-2.52276-.49068-4.33482-1.12014-10.01758-1.18945zM388 896.54297c6.83291 3.96574 10.33769 7.8709 12.10742 11.08594 1.53421 2.78715 1.74395 4.88446 1.78516 6.3457-2.08935-.12158-3.946-.55924-5.95117-1.11328-2.02282-.55892-4.25251-1.16952-7.03711-1.41406-1.02961-.0904-1.66079-.0983-2.52539-.0176-2.27906.21259-4.44557.79341-6.40235 1.34179-1.95091.54675-3.5042.89754-4.88672 1.07032.13201-.66517.24052-1.2303.46289-2.19336.34553-1.49643.86384-3.29502 1.74024-5.15821 1.71629-3.64877 4.80644-7.52271 10.70703-9.94726zm-.23047 16.38672c3.13169.54796 7.13909 4.03536 10.32422 7.79297 1.6108 1.90031 3.02983 3.84929 4.08594 5.46093.78327 1.19529 1.09599 1.86553 1.39843 2.48829-3.3614.51066-7.9422.93255-15.19531 1.15234l-.002-.0644c-6.08261.14592-11.39298-.1387-15.375-1.06446.25486-.69082.60658-1.56507 1.44141-2.88476 1.05076-1.66106 2.47072-3.61099 4.04687-5.48243 1.57615-1.8714 3.31017-3.66635 4.97461-5.02539 1.60312-1.30897 3.13908-2.15583 4.30078-2.37304z"/><path id="path44702" d="m386.12305 878.46684c-3.32378.96506-6.21763 3.59604-8.34766 6.60156.0479.83983.15412 1.4478.0879 2.74414.20159-.35178.41497-.70154.63867-1.04688 2.4454-3.77508 6.14136-6.95255 9.97852-7.13281.2461-.0182.30644-.0194.53906.006 1.29993.13833 3.01081 1.01911 4.72852 2.4043 1.80769 1.45776 3.6315 3.43315 5.13867 5.47851.81152 1.10131 1.53145 2.22612 2.11328 3.29493.0257-1.12056.0977-1.96323.18555-2.71094-.33008-.50298-.68082-1.00643-1.04883-1.50586-1.57783-2.14126-3.46924-4.19887-5.41211-5.76563-1.31087-1.0571-2.63909-1.90006-3.95117-2.36914l-1e-5-18e-5v-4e-5c5.3142-.21375 9.83208-1.12769 10.11718-2.4375-.16455-1.09397-.24987-2.22812-.29687-3.38086-1.16683 2.06326-5.03971 2.54383-10.83398 2.54883-4.0822-.0298-10.12112.0291-11.3418-3.44531v4e-5l-1.20508 2.78125c.14263 2.91134 4.77065 3.74321 8.91016 3.93555zm4.92187 16.40035c-.81182-.01-1.70236-.009-2.68554.006-.27446.007-.42881.01-.64454.0137-3.96705.19711-8.01379.43114-11.21093 1.17969-.0626.44628-.0855.99508-.10743 1.54297 2.1589-.52504 5.02075-.76167 7.97266-.94532-4.33485 2.55624-6.97114 5.95115-8.48242 9.16406-.075.15936-.14671.31846-.2168.47657-.54647 2.6943-.88805 4.68082-1.64258 9.3125.023.002.0467.002.0703.002 1.85352-.027 3.96525-.69758 6.29882-1.35156.92637-.25962 1.90322-.49763 2.88282-.7207-.26541.19907-.52615.33291-.79297.55078-1.77312 1.44777-3.55962 3.30458-5.18164 5.23046-1.62202 1.9259-3.07674 3.91919-4.17188 5.6504-.2968.46919-.56744.91322-.80859 1.33203-.19638 1.51164-.25976 1.96785-.45899 3.79883 3.9283 1.02876 9.08047 1.30463 14.85352 1.22851.54745-.0138.49804.37031.51758.76172-7.75464.40567-14.69966 2.4163-15.7461 5.02539v.99805c41e-5 1.25369.11137 2.92819.23243 4.03125.98821-3.52666 8.71986-6.22027 17.68554-6.21289 5.79427.005 16.32714.41977 17.39453 2.46093-.57054-1.88882-.79262-1.76485-1.27148-3.86718-.57544-1.36295-8.59722-2.6136-16.10742-2.51563.0575-.36561.0613-.70531.48242-.68359 7.13891-.25304 11.73503-.70504 15.0293-1.26367-.19313-1.11012-.36996-2.17091-.60157-3.39649-.25155-.41353-.53655-.86201-.85351-1.3457-1.09108-1.66502-2.54296-3.65508-4.20117-5.61133-1.91347-2.25739-4.08701-4.40882-6.34375-6.01172.88297.21092 1.76535.42343 2.59375.65235 2.28564.63152 4.45697 1.24806 7.16797 1.25976-.53989-4.27607-.8451-6.93427-.99024-8.29297-.076-.1475-.15585-.29557-.23828-.44531-1.7118-3.10978-4.97456-6.69832-10.56836-10.31641 5.17027.12286 7.31307.66589 10.21094 1.12696l-.0488-1.63477c-2.52276-.49068-4.33482-1.12014-10.01758-1.18945zM388 896.54297c6.83291 3.96574 10.33769 7.8709 12.10742 11.08594 1.53421 2.78715 1.74395 4.88446 1.78516 6.3457-2.08935-.12158-3.946-.55924-5.95117-1.11328-2.02282-.55892-4.25251-1.16952-7.03711-1.41406-1.02961-.0904-1.66079-.0983-2.52539-.0176-2.27906.21259-4.44557.79341-6.40235 1.34179-1.95091.54675-3.5042.89754-4.88672 1.07032.13201-.66517.24052-1.2303.46289-2.19336.34553-1.49643.86384-3.29502 1.74024-5.15821 1.71629-3.64877 4.80644-7.52271 10.70703-9.94726zm-.23047 16.38672c3.13169.54796 7.13909 4.03536 10.32422 7.79297 1.6108 1.90031 3.02983 3.84929 4.08594 5.46093.78327 1.19529 1.09599 1.86553 1.39843 2.48829-3.3614.51066-7.9422.93255-15.19531 1.15234l-.002-.0644c-6.08261.14592-11.39298-.1387-15.375-1.06446.25486-.69082.60658-1.56507 1.44141-2.88476 1.05076-1.66106 2.47072-3.61099 4.04687-5.48243 1.57615-1.8714 3.31017-3.66635 4.97461-5.02539 1.60312-1.30897 3.13908-2.15583 4.30078-2.37304z" class="shoe_primary"/><path id="path44704" d="m378.39844 871.4082c-.12909.007-.24308.0866-.29492.20508l-1.20508 2.78125c-.0216.0485-.0316.10129-.0293.1543.0401.81764.40929 1.51057.97852 2.04883.56922.53826 1.33163.93587 2.20703 1.24414 1.36786.48169 3.02195.70475 4.67383.84179-2.86657 1.23135-5.35519 3.53672-7.23243 6.18555-.0451.0637-.0671.14085-.0625.21875.049.85923.15287 1.43483.0879 2.70703-.0137.35626.4576.49461.63868.1875.19843-.34628.40854-.68909.6289-1.0293 2.40739-3.71639 6.0484-6.80468 9.70703-6.97656.003-6e-4.007-.001.01-.002.24322-.018.2516-.0188.47656.006 1.179.12546 2.86442.97017 4.55078 2.33008 1.77756 1.43346 3.58679 3.39019 5.07813 5.41406.80282 1.0895 1.51456 2.20266 2.08789 3.25586.16819.3085.63629.19502.64453-.15625.0254-1.10981.0967-1.93812.18359-2.67774.009-.0802-.0101-.16114-.0547-.22851-.33363-.50839-.68898-1.01722-1.06055-1.52149-1.59325-2.16218-3.50021-4.23947-5.47266-5.83007-.94807-.76454-1.91211-1.36126-2.88086-1.85352 2.16148-.13744 4.18519-.36549 5.73633-.7207.93097-.21319 1.70784-.4605 2.29492-.75391.58709-.29341 1.02715-.63525 1.13672-1.13867.009-.0404.01-.0821.004-.12305-.16196-1.07672-.24629-2.19874-.29297-3.34375-.0115-.34737-.47281-.45953-.64258-.15625-.50894.89994-1.65683 1.51125-3.45117 1.88086-1.79389.36952-4.19527.49159-7.08203.49414-2.04399-.0149-4.55692-.0102-6.67969-.42383-2.12277-.41359-3.78837-1.22137-4.33984-2.79101-.0509-.14426-.19105-.23745-.34375-.22852zm.0195.3418c1.22068 3.47441 7.2596 3.41551 11.3418 3.44531 5.79427-.005 9.66715-.48557 10.83398-2.54883.047 1.15274.13232 2.28689.29687 3.38086-.2851 1.30981-4.80298 2.22375-10.11718 2.4375 1.31208.46908 2.6403 1.31204 3.95117 2.36914 1.94287 1.56676 3.83428 3.62437 5.41211 5.76563.36801.49943.71875 1.00288 1.04883 1.50586-.0879.74771-.15985 1.59038-.18555 2.71094-.58183-1.06881-1.30176-2.19362-2.11328-3.29493-1.50717-2.04536-3.33098-4.02075-5.13867-5.47851-1.71771-1.38519-3.42859-2.26597-4.72852-2.4043-.23262-.0254-.29296-.0241-.53906-.006-3.83716.18026-7.53312 3.35773-9.97852 7.13281-.2237.34535-.43708.6951-.63867 1.04688.0662-1.29634-.04-1.90431-.0879-2.74414 2.13003-3.00552 5.02388-5.6365 8.34766-6.60156-4.13951-.19234-8.76753-1.02421-8.91016-3.93555zm12.63086 22.77344c-.81516-.01-1.70918-.009-2.69531.006h-.002c-.27365.007-.42719.01-.64258.0137-.004-7e-5-.008-7e-5-.0117.0-3.96895.1972-8.02722.42987-11.27149 1.18945-.13822.0324-.24224.14649-.26172.28711-.0664.47321-.0894 1.02789-.11133 1.57617-.01.22897.20339.40297.42579.34766 1.80473-.43891 4.18193-.66155 6.6621-.83594-3.7368 2.49493-5.96783 5.59511-7.36914 8.57422-.0766.16273-.15003.32496-.2207.48438-.01.0226-.0169.0462-.0215.0703-.54746 2.6992-.80783 4.69364-1.5625 9.32617-.0317.19667.0281.3789.22657.39648.0438.004.0765.004.0996.004.002 2e-5.004 2e-5.006.0 1.93247-.0281 3.86278-.71319 6.18945-1.36523.41736-.11697.86797-.21714 1.30274-.32618-1.63539 1.3993-3.26189 3.07137-4.74805 4.83594-1.63205 1.93781-3.04156 3.95645-4.14648 5.70312-.29871.47221-.46087.904-.70509 1.32813-.0225.0391-.0371.0822-.043.12695-.19631 1.51104-.26153 1.97397-.46094 3.80665-.0184.16893.0896.32591.2539.36914 3.9849 1.04358 8.99458 1.31653 14.78126 1.24023.001 1e-5.003 1e-5.004.0.0941-.002.12733.0139.13086.0156.003.008.005.0761.008.0977-3.76578.22206-7.33548.80091-10.11914 1.66406-2.87402.89118-4.96469 2.01931-5.57421 3.53907-.0164.0403-.0251.0834-.0254.12695v.99805c42e-5 1.27384.18903 3.07199.31172 4.18989.0412.37562.49866.33583.60005-.0282.43749-1.56126 2.49999-3.14135 5.62925-4.23788 3.12926-1.09655 7.27232-1.76539 11.7207-1.76172 2.88913.002 6.96497.10747 10.43555.46484 1.73529.17868 3.31989.42035 4.51758.73828 1.19768.31793 2.43601 1.08346 2.59766 1.39258.1931.36796.13464-.0862.0156-.48438-.28944-.9582-.3402-1.51537-.52344-1.9746-.18324-.45925-.34938-.92436-.58594-1.9629-.004-.0194-.0101-.0383-.0176-.0566-.12385-.29332-.37426-.48534-.69532-.66796-.32105-.18264-.72942-.34954-1.21875-.50782-.97865-.31655-2.28302-.59872-3.80273-.83594-2.92714-.45689-6.65135-.7267-10.29492-.70312 36e-5-85e-5.002-.007.002-.008-.005.002-.002-.005.0508-.002.01.001.0195.002.0293.002 7.14816-.25337 11.75815-.70721 15.07422-1.26953.18731-.0316.31335-.20927.28125-.39649-.19287-1.1086-.36917-2.17258-.60156-3.40234-.008-.0401-.0233-.0785-.0449-.11328-.25411-.41774-.5408-.86932-.85937-1.35547-1.09887-1.67691-2.55801-3.67804-4.22656-5.64649-1.5895-1.87518-3.3802-3.60416-5.23633-5.09179.3779.0949.77272.18564 1.13281.28515 2.28415.63111 4.49557 1.26152 7.25781 1.27344.20735 79e-5.36806-.18104.3418-.38672-.53969-4.27448-.84352-6.93193-.98828-8.28711-.005-.0417-.0176-.082-.0371-.11914-.078-.15137-.15882-.30363-.24219-.45508-1.63635-2.9727-4.72171-6.34273-9.72265-9.75 4.25159.17378 6.34751.64283 9.00976 1.06641.21325.0349.40527-.13364.39844-.34961l-.0488-1.63476c-.005-.16012-.1201-.2955-.27734-.32618-2.499-.48605-4.37287-1.12765-10.08008-1.19726zm-.004.34375c5.68276.0693 7.49482.69877 10.01758 1.18945l.0488 1.63477c-2.89787-.46107-5.04067-1.0041-10.21094-1.12696 5.5938 3.61809 8.85656 7.20663 10.56836 10.31641.0824.14974.16228.29781.23828.44531.14514 1.3587.45035 4.0169.99024 8.29297-2.711-.0117-4.88233-.62824-7.16797-1.25976-.8284-.22893-1.71078-.44143-2.59375-.65235 2.25674 1.6029 4.43028 3.75433 6.34375 6.01172 1.65821 1.95625 3.11009 3.94631 4.20117 5.61133.31696.48369.60196.93217.85351 1.3457.23161 1.22558.40844 2.28637.60157 3.39649-3.29427.55863-7.89039 1.01063-15.0293 1.26367-.42112-.0217-.42492.31798-.48242.68359 7.5102-.098 15.53198 1.15268 16.10742 2.51563.47886 2.10233.70094 1.97836 1.27148 3.86718-1.06739-2.04116-11.60026-2.45593-17.39453-2.46093-8.96568-.007-16.69733 2.68623-17.68554 6.21289-.12106-1.10306-.23202-2.77756-.23243-4.03125V937.125c1.04644-2.60909 7.99146-4.61972 15.7461-5.02539-.0195-.39141.0299-.77552-.51758-.76172-5.77305.0761-10.76116-.19975-14.68946-1.22851.19923-1.83099.26261-2.28719.45899-3.79883.24115-.41881.40242-.84722.69922-1.31641 1.09514-1.73121 2.49517-3.74012 4.11719-5.66602 1.62202-1.92588 3.40852-3.78269 5.18164-5.23046.26682-.21787.52756-.35171.79297-.55078-.9796.22306-1.95645.46108-2.88282.7207-2.33357.65398-4.16796 1.32456-6.02148 1.35156-.0236.0-.0473 5e-5-.0703-.002.55406-4.68896.98213-6.64815 1.64258-9.3125.0416-.16787.1418-.31721.2168-.47657 1.51128-3.2129 3.87023-6.60782 8.20508-9.16406-2.95191.18365-5.81376.42028-7.97266.94532.0219-.54789.0448-1.09669.10743-1.54297 3.19714-.74855 7.24388-.98258 11.21093-1.17969.21573-.004.37008-.007.64454-.0137.98317-.015 1.87372-.0159 2.68554-.006zM388 896.54297c-5.90059 2.42455-8.99074 6.29849-10.70703 9.94726-.8764 1.86319-1.39471 3.66178-1.74024 5.15821-.22237.96306-.33088 1.52819-.46289 2.19336 1.38252-.17278 2.93581-.52357 4.88672-1.07032 1.95678-.54838 4.12329-1.1292 6.40235-1.34179.8646-.0807 1.49578-.0728 2.52539.0176 2.7846.24454 5.01429.85514 7.03711 1.41406 2.00517.55404 3.86182.9917 5.95117 1.11328-.0412-1.46124-.25095-3.55855-1.78516-6.3457-1.76973-3.21504-5.27451-7.1202-12.10742-11.08594zm-.0273.39258c6.68408 3.90904 10.11395 7.73463 11.83398 10.85937 1.3782 2.50374 1.64796 4.38037 1.7168 5.78711-1.89271-.14898-3.62386-.53509-5.49024-1.05078-2.02337-.55907-4.28131-1.17828-7.09961-1.42578-1.04005-.0913-1.70389-.0999-2.58593-.0176-2.3166.21609-4.50337.80437-6.46289 1.35352-1.72904.48456-3.10955.78885-4.35547.97461.0991-.49834.18607-.94737.35742-1.68946.34216-1.48186.85442-3.25647 1.7168-5.08984 1.67231-3.55527 4.65788-7.30588 10.36914-9.70117zm-.20313 15.99414c-1.1617.21721-2.69766 1.06407-4.30078 2.37304-1.66444 1.35904-3.39846 3.154-4.97461 5.02539-1.57615 1.87145-2.99611 3.82137-4.04687 5.48243-.83483 1.31969-1.18655 2.19394-1.44141 2.88476 3.98202.92576 9.24551 1.26897 15.32812 1.12305l.0488.006c7.25311-.21979 11.83391-.64168 15.19531-1.15234-.30243-.62277-.61516-1.293-1.39843-2.48829-1.05611-1.61164-2.47514-3.56062-4.08594-5.46093-3.18513-3.75761-7.19253-7.24501-10.32422-7.79297zm.0117.35742c2.93104.55413 6.9139 3.95751 10.05078 7.6582 1.60024 1.88786 3.01216 3.82593 4.06055 5.42578.637.97208.87172 1.48394 1.13281 2.01758-3.2683.47476-7.6444.86981-14.46094 1.08203-.0648-.0133-.13141-.005-.19921-.004-5.87599.14096-10.98884-.18604-14.87891-1.03321.24279-.62143.56305-1.35044 1.25195-2.43945 1.04095-1.64556 2.45167-3.58602 4.01758-5.44531 1.56591-1.85923 3.28947-3.64121 4.92969-4.98047 1.55488-1.26958 3.04087-2.06985 4.0957-2.28125z" class="shadow"/></svg>