<svg viewBox="0 0 560 1e3"><path d="m354.20431 225.28332c-.61112.0223 1.18028-.1941 1.52525 4.27681.31193-3.28492-.95671-4.75569.56442-6.43901 1.30627.85471 5.90336.91135 3.71313 4.98017 2.25343-2.86011-.98533-5.63205-1.90592-8.25103-.39041 1.41519 10.77036 3.34558 4.32719 7.43534 8.5248-4.57088-5.60608-14.3046 5.01736-8.4047-3.0312-1.74236-3.14502-4.92117-.87788-5.45267 1.31482 2.14877.7096 4.94138-1.3553 5.0962 2.64273-.41036 3.62136-2.83526 4.1705-5.66937-.75797 1.1599.29507 4.79417 2.76613 2.46231-1.45473 1.23233-2.63489-.86465-.43645-2.30346 2.07516 1.23475 1.62919 3.21634-.11115 3.28731 3.94931-.29507 2.23064-3.03628 2.35691-3.88021.67358 1.25061.49749 1.49403 1.53676 2.24415-1.02483-1.3448.3076-2.81529.72915-3.20865.86312-.0346 1.27103-.54702 1.85896-.87047-.6731.32102-1.5432-.54456-2.31305-1.72962-.2374-.36546.98951-1.49356 1.11803-2.66756-.68914 1.5688-2.21073.66309-2.37984.26276-.23543-.55727-.41307-1.06893-.50614-1.45692 1.13002.29438 1.42264-.21138 1.72133-.71135-1.32214.59302-1.44554-.15189-1.40844-1.07596 1.72125-.87267 2.55204.23313 3.60677.84136-.62544-1.93202-1.6831-3.38747-3.66192-3.82713.81617-.7038 1.73649-.55881 2.65202-.45302-.85236-.65929-1.81572-1.14737-3.08406-1.16507-3.6659.85993-12.95933 3.61857-17.02603 17.95061.0.0-1.8106 7.37519-2.59771 8.72919z" class="armpit_hair" id="path3321"/></svg>