<svg viewBox="0 0 560 1e3"><path d="m300.64144 184.10882s-.1.0-.1.0c-.3-.2-.7-1.3-.7-1.7-.1-.3-.4-1.5-.2-1.8v-.1l.1-.1c.1.0.1.0.2.0.3.2.7 1.3.7 1.7v0c.1.3.4 1.5.2 1.8v.1l-.2.1zm-.7-2.8c0 .3.1.6.2 1 .1.4.2.8.3 1 0-.3-.1-.6-.2-1v0c-.1-.5-.2-.8-.3-1z" id="path7-5"/><path d="m301.44144 187.50882c-.6.0-1.2-.7-1.5-1.8-.4-1.2-.2-2.4.5-2.7.7-.3 1.5.5 1.8 1.7v0c.4 1.2.2 2.4-.5 2.7-.1.0-.2.1-.3.1zm-.8-4.2c-.1.0-.1.0-.2.0-.5.2-.6 1.2-.3 2.2s1 1.7 1.4 1.5c.5-.2.6-1.2.3-2.2v0c-.2-.9-.8-1.5-1.2-1.5z" id="path9-02"/><path d="m302.84144 191.00882c-.2.0-.4-.2-.9-2.1-.6-2.2-.4-2.2-.3-2.3.2-.1.3.2.5.7.1.4.3.9.4 1.4.7 2.2.5 2.2.3 2.3z" id="path11-94"/><path d="m304.04144 194.40882c-.6.0-1.4-.7-1.8-1.8-.2-.6-.3-1.2-.3-1.6.1-.5.3-.9.6-1 .4-.1.8.0 1.2.3s.7.8.9 1.4c.5 1.2.3 2.4-.4 2.7.0.0-.1.0-.2.0zm-1.1-4.1h-.1c-.2.1-.3.3-.4.7.0.4.0.9.2 1.5.4 1.1 1.2 1.7 1.6 1.5.4-.2.6-1.1.2-2.2-.2-.5-.5-1-.8-1.2s-.5-.3-.7-.3z" id="path13-35"/><path d="m313.78193 195.91021c-.29138-.0714-.46183-.21615-.63228-.36089-.46373-.62844.0161-1.74634 1.12834-2.50337 1.11216-.75702 2.27576-.88368 2.73949-.25523.46374.62845-.0161 1.74635-1.12833 2.50337-.74938.53706-1.52447.75894-2.10722.61612zm2.50807-3.09186c-.48564-.11901-1.16361.12666-1.79205.59039-.87031.61038-1.3026 1.53403-.98551 1.92062.29329.48372 1.26263.30945 2.13294-.30093s1.3026-1.53403.98551-1.92062c-.0495-.21806-.14664-.24186-.34089-.28946z" id="path15-1"/><path d="m319.14469 191.25287c-.19425-.0477-.29137-.0714-.3647-.19234-.48754-.53133-.12857-1.5759.81315-2.47766.94172-.90175 2.0558-1.24647 2.54333-.71515.24378.26567.24568.67797.12666 1.1636-.21614.46182-.52941.89984-.9398 1.31407-.4104.41421-.89412.7075-1.35403.90366-.31518.0257-.63036.0514-.82461.004zm2.43475-3.21279c-.38851-.0952-1.06648.15046-1.74253.80846-.8208.82843-1.13215 1.67875-.79126 1.96822.17045.14473.3647.19234.70369.0695.43611-.099.8227-.41613 1.20929-.73322.41039-.41422.69986-.75511.79508-1.14362.0952-.3885.14282-.58275-.0276-.72748.0476-.19426-.0495-.21806-.14664-.24186z" id="path17-7"/><path d="m316.14717 193.4011v0c-.17044-.14474-.41421-.41039 1.39781-1.92253.4104-.41422.89412-.7075 1.25691-.92747.48372-.29329.70177-.34281.87222-.19807l.0971.0238-.0238.0971c.002.4123-1.15786 1.36358-1.52065 1.58354-.4342.51134-1.6673 1.34168-2.0796 1.3436zm2.60902-2.24344c-.24186.14664-.60465.36661-.89411.7075-.38659.31709-.65226.56086-.91792.80463.24186-.14664.60465-.36661.89411-.7075.38659-.3171.65226-.56087.91792-.80463z" id="path19-4"/><path d="m324.96737 186.39938c-.19425-.0477-.29138-.0714-.46183-.21615-.24376-.26566-.3428-.70177-.22379-1.1874s.33517-.94746.72176-1.26454c.82079-.82844 1.93487-1.17316 2.42241-.64182.24377.26565.3428.70177.22378 1.18739-.11901.48563-.33516.94745-.72175 1.26455v0c-.4104.41421-.79698.7313-1.23309.83034-.21806.0495-.53324.0752-.72749.0276zm2.02244-3.21088c-.3885-.0952-1.06647.15046-1.6216.73513-.28947.34089-.60274.77891-.67414 1.07029-.0715.29137-.0457.60656.12474.75129.17045.14473.46183.21614.80081.0933.33899-.12285.7989-.31901 1.08837-.6599.28946-.3409.60273-.77892.67415-1.0703.0714-.29137.0457-.60655-.12475-.75129-.0971-.0238-.17045-.14473-.26758-.16853z" id="path21-3"/><path d="m321.92033 188.32955-.0733-.12093.0238-.0971c.0476-.19427.57892-.6818 1.61777-1.55975.74938-.53706 1.64349-1.24456 1.86155-1.29408l.0971.0238.0733.12092-.0238.0971c-.0476.19425-.57894.68178-1.61779 1.55974v0c-.67605.65799-1.64348 1.24456-1.95866 1.27028z" id="path23-1"/><path d="m311.24241 197.44996-.0733-.12093.0238-.0971c.0238-.0971-.0257-.31518 1.27879-1.43691v0c1.47305-1.38929 1.54638-1.26836 1.71681-1.12363.17045.14474.24378.26567-1.22927 1.65496-1.40163 1.09792-1.61969 1.14743-1.71681 1.12363z" id="path25-4"/><path d="m305.04144 197.50882v0c-.2-.1-.5-.8-.8-2-.5-2.1-.4-2.2-.2-2.2v0c.2.0.3-.1.9 2 .3 1.2.4 1.9.3 2.1v.1z" id="path27-6"/><path d="m329.69595 180.96886c.0257.31518-.81888 1.24073-.98742 1.50831v0c-.26566.24377-1.11026 1.16933-1.42543 1.19505l-.0971-.0238-.0971-.0238s0 0-.0971-.0238l-.0733-.12094c-.0258-.31517.81888-1.24073.98741-1.5083.26566-.24378 1.11025-1.16933 1.42544-1.19504" id="path29-9"/><path d="m329.0675 181.43259c-.24186.14665-.41039.41422-.79698.73131-.28947.3409-.55514.58467-.69986.75512.24185-.14665.41039-.41422.79698-.73132v0c.26566-.24376.55513-.58466.69986-.75511z" id="path31"/><path d="m304.24144 196.80882 7.3.5-.2 3.5-7.3-.4z" id="polygon35"/><path id="path37-4" d="m304.74144 197.40882 6.3.4-.1 2.5-6.3-.4.1-2.5m-.5-.6-.2 3.6 7.3.4.2-3.6z"/><rect id="rect41" height="3.399874" width="7.0997367" transform="rotate(3.3047751)" y="178.83395" x="315.06049"/><path id="path43-2" d="m304.74144 197.30882 6.1.4-.1 2.4-6.1-.4.1-2.4m-.5-.6-.2 3.4 7.1.4.2-3.4z" class="steel_chastity"/><text transform="rotate(3.3047751)" name="Collar_Text" x="315.78552" y="181.51642" style="fill:red" id="text1009">8888</text><path style="display:inline" d="m329.50389 181.73735c-.19425-.0477-.29138-.0714-.46183-.21615-.24376-.26566-.3428-.70177-.22379-1.1874s.33517-.94746.72176-1.26454c.82079-.82844 1.93487-1.17316 2.42241-.64182.24377.26565.3428.70177.22378 1.18739-.11901.48563-.33516.94745-.72175 1.26455v0c-.4104.41421-.79698.7313-1.23309.83034-.21806.0495-.53324.0752-.72749.0276zm2.02244-3.21088c-.3885-.0952-1.06647.15046-1.6216.73513-.28947.34089-.60274.77891-.67414 1.07029-.0715.29137-.0457.60656.12474.75129.17045.14473.46183.21614.80081.0933.33899-.12285.7989-.31901 1.08837-.6599.28946-.3409.60273-.77892.67415-1.0703.0714-.29137.0457-.60655-.12475-.75129-.0971-.0238-.17045-.14473-.26758-.16853z" id="path21-3-5"/><path style="display:inline" d="m334.23247 176.30683c.0257.31518-.81888 1.24073-.98742 1.50831v0c-.26566.24377-1.11026 1.16933-1.42543 1.19505l-.0971-.0238-.0971-.0238s0 0-.0971-.0238l-.0733-.12094c-.0258-.31517.81888-1.24073.98741-1.5083.26566-.24378 1.11025-1.16933 1.42544-1.19504" id="path29-9-9"/><path style="display:inline" d="m333.60402 176.77056c-.24186.14665-.41039.41422-.79698.73131-.28947.3409-.55514.58467-.69986.75512.24185-.14665.41039-.41422.79698-.73132v0c.26566-.24376.55513-.58466.69986-.75511z" id="path31-3"/><path style="display:inline" d="m333.76864 177.5389c-.19425-.0477-.29138-.0714-.46183-.21615-.24376-.26566-.3428-.70177-.22379-1.1874s.33517-.94746.72176-1.26454c.82079-.82844 1.93487-1.17316 2.42241-.64182.24377.26565.3428.70177.22378 1.18739-.11901.48563-.33516.94745-.72175 1.26455v0c-.4104.41421-.79698.7313-1.23309.83034-.21806.0495-.53324.0752-.72749.0276zm2.02244-3.21088c-.3885-.0952-1.06647.15046-1.6216.73513-.28947.34089-.60274.77891-.67414 1.07029-.0715.29137-.0457.60656.12474.75129.17045.14473.46183.21614.80081.0933.33899-.12285.7989-.31901 1.08837-.6599.28946-.3409.60273-.77892.67415-1.0703.0714-.29137.0457-.60655-.12475-.75129-.0971-.0238-.17045-.14473-.26758-.16853z" id="path21-3-7"/><path style="display:inline" d="m338.49722 172.10838c.0257.31518-.81888 1.24073-.98742 1.50831v0c-.26566.24377-1.11026 1.16933-1.42543 1.19505l-.0971-.0238-.0971-.0238s0 0-.0971-.0238l-.0733-.12094c-.0258-.31517.81888-1.24073.98741-1.5083.26566-.24378 1.11025-1.16933 1.42544-1.19504" id="path29-9-7"/><path style="display:inline" d="m337.86877 172.57211c-.24186.14665-.41039.41422-.79698.73131-.28947.3409-.55514.58467-.69986.75512.24185-.14665.41039-.41422.79698-.73132v0c.26566-.24376.55513-.58466.69986-.75511z" id="path31-6"/></svg>