<svg viewBox="0 0 560 1e3"><g id="g26969" style="fill-opacity:.333333;fill:#00c0a9"><path d="m238.7457 954.74124c-1.53017 7.1014-4.11602 16.95196-5.41868 23.16837-1.3564 6.47287-3.05786 12.87985-5.34768 16.47272-1.88087 2.95121-4.96327 3.02538-7.03668 3.03939-3.83347.0259-6.10508-.0332-6.11573-.71055-71e-5-.0452.10685-.46545.0225-.79275-.63642-2.46818-.47503-2.28791-.50011-5.51221-.0514-6.61616.35544-17.148-.17328-19.67652-.0562-.26881.26056-.37417.37859-.38451.341.76357.11149 9.17741.2218 16.43567.0724 4.76054-.27965 8.75512 1.07274 8.97019 1.26389.28657 2.31452.10029 3.44544.16452 3.51288.19953 6.74519.10262 8.6609-3.89794 1.78032-3.71782 3.10273-9.01329 4.32128-15.01069.98326-4.83936 2.12801-9.96979 3.37328-15.14211.9961-4.13732 2.1353-8.30144 2.72499-12.36482 1.08616-7.48442.0947-12.87275.75076-19.23704.60384-5.85778 2.60338-12.54237 8.90327-22.44916.45768.15231.79705 1.06385.94436.72201 2.32164-3.61138 6.08729-10.00814 6.23883-9.79676-2.48996 4.21047-4.31738 7.66475-6.04975 10.42608-4.16041 6.63153-4.85552 5.88255-7.9099 16.44481-1.90519 6.58828-.2293 11.65992-1.3671 22.70859-.24777 2.40599-.73237 4.53188-1.13979 6.42271z" id="path26963" class="shadow"/><path id="path26967" d="m214.61047 970.34631c.17226.93762 1.22291 1.4175 1.85825 1.55994 6.56222 1.47124 14.65949.65514 19.74902-12.2692-1.80781 6.27522-5.48914 27.88771-8.45566 32.89158-2.32683 3.92484-4.97364 3.42136-7.26235 3.44337-3.13423.0301-5.5969.26799-5.64663-1.43028-.44348-7.76122.0413-14.74032-.24263-24.19541z" class="shoe_primary"/><path id="path27036" style="display:inline;fill-opacity:1;fill:#000;opacity:1;stroke-dasharray:none;stroke-dashoffset:0;stroke-linecap:butt;stroke-linejoin:miter;stroke-miterlimit:4;stroke-opacity:1;stroke-width:.453543;stroke:none;vector-effect:none" d="m250.45117 963.14258c1.07391 13.5669 1.75466 17.93675 3.47852 31.60742l-6.10938.40234c-.50079-11.08485-.56206-16.20233-1.55469-31.66796l-.51171.0332c.99225 15.45976 1.20834 21.96025 1.70936 33.05032.013.28656.25866.50667.54493.48828l6.10937-.40234c.29462-.0195.53398-.3827.49671-.67561-1.72426-13.67384-2.40136-18.02544-3.47461-31.58399-.08-1.4389-.45152-.88553-.6885-1.25166z"/><path id="path25525-3" d="m246.26563 963.48438 4.18543-.34199c1.07391 13.5669 1.75472 17.93617 3.47858 31.60684l-6.10885.40304c-.50079-11.08485-.56253-16.20225-1.55516-31.66789z" class="shoe_primary"/></g><path id="path27043" style="fill-opacity:1;fill:#000;stroke-dasharray:none;stroke-dashoffset:0;stroke-linecap:butt;stroke-linejoin:miter;stroke-miterlimit:4;stroke-opacity:1;stroke-width:.453543;stroke:none;vector-effect:none" d="m399.45117 969.88086c-2.14389 7.32998-1.67575 17.57804-1.56055 22.43555.16105 6.79143-.36882 6.74499-9.69531 6.08007-10.93617-.77969-10.76836-1.01991-10.27539-8.46484.33538-5.06511.21701-16.6205-.79101-21.65625l-.69631-.007c.97894 4.89048 1.28936 16.62422.95802 21.62806-.12311 1.85945-.23196 3.28043-.14062 4.43164.0913 1.15124.41845 2.08409 1.17578 2.73633.75733.65225 1.86324 1.45916 3.41663 1.71404s3.60183.41626 6.33789.61133c2.33154.16623 4.11701.29559 5.51172.28711 1.39471-.008 2.39582-.60539 3.17907-1.06755.78325-.46218 1.21835-1.26631 1.40625-2.28907.18791-1.02276.18301-2.31089.14258-4.01562-.11559-4.87388-.40497-15.1153 1.6957-22.29749z"/><path id="path26987" d="m377.12888 968.27539c2.86618 3.41793 6.02396 5.73855 11.38281 6.29412 4.94775.51295 7.09859.87078 10.93889-4.68895-2.14389 7.32998-1.67529 17.57851-1.56009 22.43602.16105 6.79143-.36872 6.74437-9.69521 6.07945-10.93617-.77969-10.76833-1.0189-10.27536-8.46383.33538-5.06511.21698-16.62106-.79104-21.65681z" class="shoe_primary"/></svg>