<svg viewBox="0 0 560 1e3"><defs><filter style="color-interpolation-filters:sRGB" id="filter13632"><feGaussianBlur stdDeviation="4 4" result="blur" id="feGaussianBlur13630"/></filter><clipPath clipPathUnits="userSpaceOnUse" id="clipPath14227"><path style="fill-opacity:.5;fill:#00fffe" d="m232.87501 280.12497c15.56544 6.85375 19.54278 15.11844 27.01701 18.0087 2.52422 1.62458 3.82765 1.51846 11.4846 1.49516 8.09303-.0246 9.68574-.0741 11.36626-.0452 10.1033-4.8534 16.89574-20.2445 31.13213-19.89617 26.31576.64389 41.11936-20.42378 42.62501-37.4375 1.40326-15.85667-11.73444-37.08566-23.89197-40.90384-20.11587-6.63352-37.79502.083-57.2779-1.95987-16.83778 5.1067-17.61315 15.25459-32.52836 20.47224-4.96818 1.22398-19.28353 7.05834-24.08525 16.59858-7.29187 14.48778-1.72618 36.6736 14.15847 43.6679z" id="path14229"/></clipPath><clipPath clipPathUnits="userSpaceOnUse" id="clipPath16531"><path d="m344.34504 176.36818c-14.62958 18.46411-28.69871 25.7354-77.39259 64.05886.99797-24.92527 16.9773-45.12773 16.42706-52.59869-4.99086.81134-10.46154 2.4236-10.46154 2.4236-21.38677.24939-52.87987 2.2374-76.87404 8.21245-19.0712 23.58917-14.3369 116.36959-14.3369 116.36959 64.5475 29.82926 235.06961 1.8748 240.18509-5.69624 6.19586-1.49448-3.22108-107.15474 2.95786-109.00773-2.78172-17.50024-55.92652-17.97439-69.07068-22.32338-5.63691-.66054-6.71089-.7659-11.43426-1.43846z" id="path16533" style="fill-opacity:.5;fill:teal"/></clipPath></defs><path d="m341.43164 175.43555-.33008.39648c-13.87958 17.08911-51.3931 39.2007-71.49804 58.23047 5.22706-23.77752 17.90176-43.00058 17.70507-47.20117-4.99086.81134-14.18164 3.14844-14.18164 3.14844-.0113.0134-.21871.20777-.27734.26367.0142-.004.0479-.0119.0625-.0156 22e-5-8e-5.006-.006.006-.006s.0291-.004.0293-.004c2.51683-.64454 10.06102-2.56174 14.32226-3.33594-1.74786 8.97356-14.69924 26.44308-17.97265 47.73243 20.52458-19.11667 57.53521-41.21468 72.20898-59.14845 4.33282.9235 8.61035 1.64403 14.21875 2.30274.0127-.0161.0263-.0308.0391-.0469-5.63691-.66054-9.61971-1.48916-14.33203-2.3164zm-78.38672 25.31836c-7.71669 9.31325-17.48594 23.96904-20.18164 41.11132.0721-.0246.14452-.0482.2168-.0723.0858-.38275.18004-.73819.28906-1.02539.0528-.28998.1191-.57469.17578-.86328.0419-.21354.0869-.42592.13086-.63868.11344-.54844.2287-1.09549.35547-1.63867.0165-.0706.0341-.1404.0508-.21093.30922-1.30582.65336-2.59622 1.0332-3.86914.16697-.55953.34209-1.11329.52149-1.66602.0607-.1871.12157-.37425.18359-.56055.17599-.52801.35643-1.05277.54297-1.57422.057-.15956.11587-.31763.17383-.47656.19344-.52981.38827-1.05937.5918-1.58203.71458-1.83505 1.49085-3.62134 2.31054-5.36133.067-.14239.13356-.28407.20117-.42578.5363-1.12308 1.08716-2.22957 1.65626-3.30859.56112-1.0639 1.13752-2.09895 1.72265-3.11719.085-.14792.16854-.29645.25391-.44336.56511-.97209 1.13765-1.92065 1.71679-2.84766.73454-1.17603 1.47631-2.31349 2.22071-3.41211.22478-.33176.44703-.64041.67187-.96484.53458-.7713 1.06649-1.52747 1.59766-2.25586.12323-.16902.24822-.35677.37109-.52344 1.38103-1.87319 2.30998-3.106 3.19336-4.27343z" id="path99835-0" class="shadow"/><g id="g99719"><path class="top_primary" d="m344.34504 176.36818c-14.62958 18.46411-56.41481 45.66316-75.88999 61.93754-.85818-18.56131 15.4747-43.00641 14.92446-50.47737-4.99086.81134-12.2735 2.88764-12.2735 2.88764-.62413.7803-2.75743 3.47035-8.22364 10.15946-7.54088 9.22794-17.00913 23.75372-19.67534 40.70854 1.16138.21629 2.77193 1.20862 3.93218 1.40292 3.47111.58126 6.93713 1.06481 10.39843 1.45507 3.46131.39026 6.91715.68842 10.36914.89649 3.452.20807 6.90057.32662 10.34375.36133 6.88638.0694 13.75524-.19838 20.60938-.76953 6.85414-.57116 13.69166-1.44478 20.51758-2.58594 6.82592-1.14116 13.46293-2.81596 20.26463-4.45658 6.19586-1.49448 11.52892-5.90474 17.70786-7.75773-2.78172-17.50024-2.67652-47.22439-1.57068-52.32338-5.63691-.66054-6.71089-.7659-11.43426-1.43846z" id="path99715"/><path style="baseline-shift:baseline;clip-rule:nonzero;color-interpolation-filters:linearRGB;color-interpolation:sRGB;color-rendering:auto;color:#000;direction:ltr;display:inline;dominant-baseline:auto;enable-background:accumulate;fill-opacity:.295533;fill-rule:nonzero;fill:#000;image-rendering:auto;isolation:auto;mix-blend-mode:normal;opacity:1;overflow:visible;shape-padding:0;shape-rendering:auto;solid-color:#000000;solid-opacity:1;stroke-dasharray:none;stroke-dashoffset:0;stroke-linecap:butt;stroke-linejoin:miter;stroke-miterlimit:4;stroke-opacity:1;stroke-width:.45354301;stroke:none;vector-effect:none;visibility:visible;white-space:normal;writing-mode:lr-tb" d="m355.50391 177.77734c-1.02885 11.46883-.30334 29.84986.40625 39.88086 1.00793 14.24856 3.12609 21.91987 4.53711 24.60352l.11913-.41407c-1.32622-2.52237-3.19731-10.00228-4.20312-24.2207-.70837-10.01377-1.43148-28.40178-.4082-39.80859z" id="path99717"/></g><g clip-path="url(#clipPath16531)" id="g99775"><g style="display:inline;mix-blend-mode:normal" id="g99773" data-transform="boob_outfit" clip-path="none"><path id="path99721" d="m232.87501 280.12497c15.56544 6.85375 19.54278 15.11844 27.01701 18.0087 2.52422 1.62458 3.82765 1.51846 11.4846 1.49516 8.09303-.0246 9.68574-.0741 11.36626-.0452 10.1033-4.8534 16.89574-20.2445 31.13213-19.89617 26.31576.64389 41.11936-20.42378 42.62501-37.4375 1.40326-15.85667-11.72924-37.16732-23.88677-40.9855-20.11587-6.63352-37.92522.2584-57.4081-1.78446-17.68153 5.51295-16.86315 14.91084-32.40336 20.37849-4.96818 1.22398-19.28353 7.05834-24.08525 16.59858-7.29187 14.48778-1.72618 36.6736 14.15847 43.6679z" class="top_primary"/><g id="g99743"><g transform="matrix(2.6967083,0.05891276,-0.44603976,0.88261107,-358.38607,41.170686)" style="display:inline;stroke-width:.64463502;stroke:none" id="g99731"><path class="top_primary_strong_highlight" d="m257.78463 231.41908 25.46538-1.91912c-1.75833-1.43306-8.91975-1.9852-14.375-1.125-5.21054.7236-7.94775 1.92284-11.09038 3.04412z" id="path99723"/><path class="top_primary_strong_shade" id="path99725" d="m257.77115 231.41459 25.46476-1.92729c-1.52315 1.68089-8.52041 3.30234-14.04298 3.27122-5.26011.0672-8.14639-.70736-11.42178-1.34393z"/><path class="top_primary_strong_shade" d="m261.35088 231.14146 18.93637-1.43319c-1.13266 1.24996-6.33604 2.45572-10.44279 2.43258-3.91157.05-6.0579-.52602-8.49358-.99939z" id="path99727"/><path class="top_primary_strong_highlight" id="path99729" d="m280.36534 229.70219-18.93637 1.43319c1.13266-1.24996 6.33604-2.45572 10.44279-2.43258 3.91157-.05 6.0579.52602 8.49358.99939z"/></g><g transform="matrix(2.2993528,0.04081446,-0.38031654,0.61146839,-266.47753,100.54926)" style="display:inline;stroke-width:.83873701;stroke:none" id="g99741"><path class="top_primary_strong_highlight" d="m257.78463 231.41908 25.46538-1.91912c-1.75833-1.43306-8.91975-1.9852-14.375-1.125-5.21054.7236-7.94775 1.92284-11.09038 3.04412z" id="path99733"/><path class="top_primary_strong_shade" id="path99735" d="m257.77115 231.41459 25.46476-1.92729c-1.52315 1.68089-8.52041 3.30234-14.04298 3.27122-5.26011.0672-8.14639-.70736-11.42178-1.34393z"/><path class="top_primary_strong_shade" d="m261.35088 231.14146 18.93637-1.43319c-1.13266 1.24996-6.33604 2.45572-10.44279 2.43258-3.91157.05-6.0579-.52602-8.49358-.99939z" id="path99737"/><path class="top_primary_strong_highlight" id="path99739" d="m280.36534 229.70219-18.93637 1.43319c1.13266-1.24996 6.33604-2.45572 10.44279-2.43258 3.91157-.05 6.0579.52602 8.49358.99939z"/></g></g><g id="g99753" style="filter:url(#filter13632)" clip-path="url(#clipPath14227)"><path d="m270.67765 238.2501c20.65734-1.41297 46.35182-8.9235 57.03575-10.77131 7.60197-1.31478 14.7106-3.0271 17.83602-2.44986 17.52916 3.23751 14.80574-1.70922-2.92171-11.41438-6.26703-3.43098-32.90621-2.50559-40.56413-2.31026-10.31541.26311-31.86115 2.84169-41.83384 3.64574-16.41381 1.32336-31.61743 9.5306-37.31389 11.99825 18.36475 15.45066 24.5992 12.88616 47.7618 11.30182z" id="path99745" class="top_primary_highlight"/><path class="top_primary_highlight" id="path99747" d="m270.92765 232.6251c20.65734-1.41297 42.47682-7.7985 53.16075-9.64631 12.40269-1.67309 35.41667.25519 13.53931-8.11424-6.26703-3.43098-31.28121 1.11941-38.93913 1.31474-10.31541.26311-38.23615 4.09169-48.20884 4.89574-16.41381 1.32336-18.86743-.9694-24.56389 1.49825 18.36475 15.45066 21.8492 11.63616 45.0118 10.05182z"/><path class="top_primary_shade" id="path99749" d="m202.71307 257.65989c-1.1245 12.47637 18.32508 23.5252 27.04959 26.37844 13.47365 4.40639 44.96513-.32749 49.49736-.54362 17.71589-.84482 39.91542 1.55475 51.47236-1.0085 23.5121-5.21483 27.43362-24.94393 29.32364-34.19187 3.16523-15.48755-7.5998-14.2938-33.94279.69796-5.40858 3.46712-22.94455 5.45375-49.62888 6.23504-26.8559.78631-63.82297-5.81599-74.14628-19.31741z"/><path d="m202.71307 257.65989c4.2505 3.35137 19.45008 17.0252 28.17459 19.87844 13.47365 4.40639 44.84013.29751 49.37236.0814 17.71589-.84482 37.41542.42975 48.97236-2.1335 23.5121-5.21483 22.43362-11.81893 24.32364-21.06686 3.16523-15.48756-2.2248-14.04381-28.56779.94796-5.40858 3.46711-22.94455 5.45374-49.62888 6.23503-26.8559.78631-62.69797-5.19098-73.02128-18.69241z" id="path99751" class="top_primary_shade"/></g><g transform="matrix(-0.51251014,0.26357184,0.2634415,0.51166189,328.83547,168.04658)" style="stroke-width:1.73638999;stroke:none" id="g99755"/><g transform="matrix(1.233083,0,0,1.233083,-72.575419,-74.417995)" style="display:inline;stroke-width:.81097502" id="g99769"><g id="g99761" style="stroke-width:.551534"><path id="path99757" d="m314.76435 249.09669c-.36404 1.48643-1.67517 2.08222-3.38065 1.66452-4.94027-2.02185 3.994-3.9641 3.38065-1.66452z" class="top_primary_strong_shade"/><path d="m308.95482 247.31348c.36405-1.48643 2.04174-2.3528 3.74722-1.9351 4.94565 1.92801-4.04228 3.98008-3.74722 1.9351z" id="path99759" class="top_primary_strong_highlight"/></g><g id="g99767" style="display:inline;stroke-width:.81097502" transform="rotate(26.197764,242.87155,70.374699)"><path id="path99763" d="m323.87031 235.27842c-.33036 1.39469-1.55402 1.96201-3.15424 1.58297-4.64113-1.85832 3.71228-3.74097 3.15424-1.58297z" class="top_primary_strong_shade"/><path class="top_primary_strong_highlight" id="path99765" d="m318.97801 233.52009c.3572-1.37108 1.92207-2.15031 3.49519-1.74046 4.55214 1.85201-3.79613 3.62955-3.49519 1.74046z"/></g></g><path id="path99771" d="m242.80273 219.85936c-4.34318.72398-19.72171 6.74491-24.52343 16.28515-7.29187 14.48778-1.53895 38.11117 14.5957 43.98047-15.88465-6.9943-21.45007-29.18019-14.1582-43.66797 4.80172-9.54024 19.11775-15.37367 24.08593-16.59765z" class="shadow"/></g></g><g transform="translate(2.3735158e-6)" style="display:inline;opacity:1" id="g99899-9-1"><path id="path99891-0-3" d="m341.50556 175.49535c-14.67377 17.93377-50.24058 38.77554-72.14644 59.07159 4.45171-23.54455 16.16162-38.68206 17.90948-47.65562-1.38158.25101-3.0577.64637-5.01207 1.09655-5.26979 18.20251-16.95418 29.2928-16.85853 47.43566.0124 2.36024.27241 4.87268.68339 7.5702 40.001-36.15479 60.28626-39.76833 79.67081-66.69975-1.23239-.2297-3.03555-.5605-4.24664-.81863z" class="top_accent"/><path id="path99893-7-9" d="m269.46702 234.2001-3.98024 3.47264.0124.30005 3.98343-3.50316z" style="baseline-shift:baseline;clip-rule:nonzero;color-interpolation-filters:linearRGB;color-interpolation:sRGB;color-rendering:auto;color:#000;direction:ltr;display:inline;dominant-baseline:auto;enable-background:accumulate;fill-opacity:1;fill-rule:nonzero;fill:#000;image-rendering:auto;isolation:auto;mix-blend-mode:normal;opacity:1;overflow:visible;shape-padding:0;shape-rendering:auto;solid-color:#000000;solid-opacity:1;stroke-dasharray:none;stroke-dashoffset:0;stroke-linecap:butt;stroke-linejoin:miter;stroke-miterlimit:4;stroke-opacity:1;stroke-width:.22677165;stroke:none;vector-effect:none;visibility:visible;white-space:normal;writing-mode:lr-tb"/></g></svg>