<svg viewBox="0 0 560 1e3"><path d="m243.04492 241.47656c-.75039 4.81647-1.0999 9.83614-.67969 14.83985-.0509 3.69004.83759 9.69602 1.46485 15.36914 1.40092 12.67038 4.0722 23.33075 3.40625 33.83984-1.70216 26.86095-10.84762 39.2012-11.83008 61.95313l-2.02734 13.76757-4.73047 22.36719c8.68229 15.51699 30.34969 20.13268 54.63476 17.33594 34.70982-3.99728 75.04379-22.67612 92.81055-42.38281l-12.00586-22.08008-7.4707-16.91211c-3.61777-11.04746-6.19573-21.31959-6.45313-23.42774-1.10225-13.06068-.97107-22.57055 2.37305-38.34179 4.17155-15.36432 5.08728-19.91845 7.99414-35.77344l-.0391-.0352c-.001.006-1.5024 7.35826-3.84571 17.35938-.12117.51725-.22193.97079-.34765 1.50195-.14021.59228-.30359 1.24754-.44922 1.85547-.9173 3.82925-1.91892 7.89649-3.01758 12.09375-16e-5 62e-5 16e-5.001.0.002-.63633 2.43109-1.29883 4.88741-1.98047 7.32618-.66664 3.16993-1.16193 6.11652-1.51953 8.90429-8e-5 62e-5 8e-5.001.0.002-.17869 1.39346-.3236 2.74748-.4375 4.07031-.56996 6.61805-.38079 12.4548.0488 18.54883.072.46275.132.829.20312 1.2832 1.23728 6.82842 7.07672 28.4875 13.9961 42.47852l.94531-.7168 11.47461 21.41992c-30.19745 33.49466-125.20526 62.91756-146.29688 25.22266l4.20118-21.61524c.16923.1817.52539.5293.52539.5293.85653-7.07781 1.31737-13.05622 2.07031-21.44531.003-.0333.005-.0663.008-.0996.0164-.18239.0282-.31528.0449-.5.002.002.004.003.006.004.47673-4.34507 1.39123-8.5285 2.50586-12.73242.55732-2.10196 1.16558-4.2089 1.79297-6.34375 3.13695-10.67424 6.77668-22.04391 7.19531-36.94922.0631-2.24622-.17701-5.61809-.58203-9.59375-.40501-3.97566-.97536-8.55526-1.56836-13.21875-1.18599-9.32697-2.46739-18.98782-2.72461-24.8164-.5583-5.18733-.29122-10.21144.47071-15.05664-.0553-.0106-.11072-.0229-.16602-.0332z" id="path99153" class="shadow"/><path class="top_primary" id="path99072" d="m357.37207 230.09688c-6.17894 1.85299-11.79926 5.76606-17.99512 7.26054-6.8017 1.64062-13.61548 3.05025-20.4414 4.19141-6.82592 1.14116-13.66344 2.01478-20.51758 2.58594-6.85414.57115-13.723.83894-20.60938.76953-3.44318-.0347-6.89175-.15326-10.34375-.36133-3.45199-.20807-6.90783-.50623-10.36914-.89649-3.4613-.39026-6.92732-.87381-10.39843-1.45507-1.16025-.1943-2.32495-.46535-3.48633-.68164-.76193 4.8452-1.02901 9.86931-.47071 15.05664.51443 11.65717 5.12736 38.64403 4.875 47.6289-.66982 23.8485-9.58722 38.64511-11.49414 56.02539-.002-.001-.004-.002-.006-.004-.0167.18472-.0285.31761-.0449.5-.003.0333-.005.0663-.008.0996-1.20439 13.41903-1.66357 20.66796-4.18555 36.11914 7.04049 13.78174 25.66003 16.39857 50.31641 13.20507 29.53525-3.82539 57.20697-12.19824 87.08203-40.56054-1.6411-3.45083-2.24103-4.55467-4.01953-8.16406-8.34178-14.34503-15.68468-42.46709-16.3125-47.75586-.68733-9.74952-.75896-18.84283 1.9082-31.52539 5.45445-19.51494 9.64063-40.14258 9.64063-40.14258-1.03569-1.94472-1.78279-5.25016-2.49035-9.42044z"/><path id="path99072-2" d="M375.56252 378.12497C345.36507 411.61963 250.35808 441.043 229.26648 403.3481l4.20115-21.61546c8.71987 9.36233 22.03611 14.54242 46.6041 11.61408 29.57262-3.52485 51.64079-11.46695 84.01585-36.64175z" class="top_accent"/></svg>