<svg viewBox="0 0 560 1e3"><path id="path5004" class="shadow" d="m332.63747 138.35517c-.35487.99033-.64411 2.11234-.51515 2.90387.27355 1.67885 1.20129 4.37062 2.89399 4.20297 1.86365-.18458 2.15241-3.2909 2.21664-5.16257.0541-1.57662-1.56471-4.46652-1.56471-4.46652s1.14219 3.06735.85842 4.60168c-.18646 1.00815-.58481 2.5595-1.60815 2.62183-1.0571.0643-1.70231-1.46399-1.97763-2.48664-.14777-.54887-.0878-1.32309.0428-2.07009-.12035-.0988-.21861-.11454-.34615-.14453z"/><path d="m332.82158 138.5639c-.32261.9003-.58556 1.92031-.46832 2.63988.24868 1.52623 1.09208 3.97329 2.6309 3.82088 1.69423-.1678 1.95674-2.99172 2.01513-4.69324.0492-1.43329-1.42247-4.06047-1.42247-4.06047s1.03836 2.7885.78039 4.18334c-.16951.9165-.53165 2.32682-1.46196 2.38348-.961.0585-1.54755-1.3309-1.79784-2.26058-.13434-.49897-.0798-1.20281.0389-1.8819-.10941-.0898-.19874-.10413-.31469-.13139z" class="steel_piercing" id="XMLID_525_-3-7"/></svg>