<svg viewBox="0 0 560 1e3"><defs><filter style="color-interpolation-filters:sRGB" id="filter7076"><feGaussianBlur stdDeviation="1 1" result="blur" id="feGaussianBlur7074"/></filter><clipPath clipPathUnits="userSpaceOnUse" id="clipPath7078"><path style="fill-opacity:.38838477;fill:#b4e0e8;stroke-dasharray:none;stroke-miterlimit:4;stroke-opacity:1;stroke-width:.01889764;stroke:#000" d="m288.57635 449.56374c1-.1 3.3.7 3.7 1.5.3.7.2-.2-.4.4-.3.1-.8.3-1.4.6-1.4.6-1.6.6-2.1 1s-.9.9-1.1 1.1c-.2.2-.4.5-.6.9-.1.1-.1.2-.2.3-.1.1-.1.2-.1.3-.4 1.3-1 2.5-.8 3.7v.3.3c-.3.6.5.5.7 1 .1.7.0 1.3-.1 1.9.0.1-.1.2-.1.3-.3 1-.8 1.4-.8 1.4-.1.1-.3.3-.6.5-.1.1-.2.1-.3.1-1.6.5-2.3-1.3-2.6-2.5.0-.1-.1-.3-.1-.4-.1-.5-.1-1.1.2-1.4l.2-.2c.1-.1.1-.1.1-.2-.5-1.7-.1-3.3.1-4.9.0-.1.0-.2.1-.3.1-.8.1-1 .4-1.7.1-.3.5-1.4 1.5-2.4 1.9-1.6 3.2-1.5 4.3-1.6z" id="path7080"/></clipPath></defs><path id="path6" d="m285.17635 460.26374c0 .1.2.1.3.1 1.1.1 1.1 1.7.8 2.7.0.1.0.2-.1.3-.3 1.2-.8 1.7-.8 1.7-.1.1-.5.5-.9.6-.1.0-.2.1-.4.1-1.5-.1-2.2-1.5-2.4-2.8.0-.1-.1-.3-.1-.4-.1-.6-.11527-1.2161.2-1.5l.2-.2.2-.2"/><path id="path8" d="m281.87635 458.56374v-.8c0-.2.0-.8.2-1.7.1-.5.2-1 .2-1.1.6-2.8 2.6-4.3 2.6-4.3.2-.2.8-.5 1-.7.5-.3 1.9-1 3.9-.3.3.1 2.2.9 2.6 1.4.4.7-.3-.4-.4-.3-.1.1-.2.1-.3.3-.2.2-.2.4-.3.5-.2.4-.6.5-1.1.7-.7.3-1.2.5-1.7.8-.3.3-.6.5-1 1.1-.4.5-.6.8-.8 1.2-.1.1-.2.5-.4 1.1-.1.4-.2.5-.2.7-.1.3-.2.6-.2.8-.1.5-.4 1.4-1.3 2.2-.4.4-.9.9-1.5.7-1 0-1.3-2.1-1.3-2.3z"/><path id="path10" d="m288.57635 449.56374c1-.1 3.3.7 3.7 1.5.3.7.2-.2-.4.4-.3.1-.8.3-1.4.6-1.4.6-1.6.6-2.1 1s-.9.9-1.1 1.1c-.2.2-.4.5-.6.9-.1.1-.1.2-.2.3-.1.1-.1.2-.1.3-.4 1.3-1 2.5-.8 3.7v.3.3c-.3.6.5.5.7 1 .1.7.0 1.3-.1 1.9.0.1-.1.2-.1.3-.3 1-.8 1.4-.8 1.4-.1.1-.3.3-.6.5-.1.1-.2.1-.3.1-1.6.5-2.3-1.3-2.6-2.5.0-.1-.1-.3-.1-.4-.1-.5-.1-1.1.2-1.4l.2-.2c.1-.1.1-.1.1-.2-.5-1.7-.1-3.3.1-4.9.0-.1.0-.2.1-.3.1-.8.1-1 .4-1.7.1-.3.5-1.4 1.5-2.4 1.9-1.6 3.2-1.5 4.3-1.6z" class="skin penis"/><g id="g7070" style="filter:url(#filter7076)" clip-path="url(#clipPath7078)"><path class="skin_highlight" id="path7046" d="m293.82498 450.11397c-6.3261-1.4225-10.04592 3.21287-12.55115 7.31413-1.35694-9.57619 4.09432-11.74746 12.55115-7.31413z"/><path class="skin_shade" d="m295.26362 451.2048c-12.73856-1.73782-9.84679 12.39452-8.70858 13.75841 5.21232-.25982 6.65293-9.60695 8.70858-13.75841z" id="path7048"/><path d="m281.5906 459.55147c1.44443 2.09891-.81569 3.95898-1.70739 2.62663.98681-2.38869.71932-2.20058 1.70739-2.62663z" id="path7072" class="skin_highlight"/></g></svg>