<svg viewBox="0 0 560 1e3"><defs><filter style="color-interpolation-filters:sRGB" id="filter48851"><feGaussianBlur stdDeviation="4 4" result="blur" id="feGaussianBlur48849"/></filter><clipPath clipPathUnits="userSpaceOnUse" id="clipPath48855"><path style="fill-opacity:.5;fill:#0ff" d="m253.75852 214.94538c-4.27433 4.36538-6.36783 7.06705-10.26378 11.73513-3.95619 3.70799-12.02904 9.47255-13.2895 13.49661-.25263 11.99342 6.49739 19.92485 14.18855 21.69176 7.18368 1.2755 22.4475.1166 33.41479.28831 11.10987.0613 27.548-1.46253 37.2075-1.56994 4.9304.42791 17.62879-1.86696 23.09709-12.11679 4.09891-7.68303 2.82152-22.10404-3.5052-27.87894-6.93323-6.32852-16.44191-8.10797-26.48618-6.80591-8.52251-8.57045-8.11262-7.91557-11.58529-8.0288-11.30357-.023-38.93316 7.80365-42.77798 9.18857z" id="path48857"/></clipPath></defs><g id="g16157" data-transform="boob_outfit"><path d="m253.38122 215.63394c-2.96625 1.36352-6.23359 6.46688-10.12954 11.13496-8.75127 7.08885-11.89536 9.3451-13.15582 13.36916-1.65527 9.93314 5.13089 19.08003 13.0323 21.73082 3.71665-22.20757 9.0839-37.96022 10.25306-46.23494z" id="path19939" class="shadow"/><path id="path8467" d="m253.75852 214.94538c-4.27433 4.36538-6.36783 7.06705-10.26378 11.73513-3.95619 3.70799-12.02904 9.47255-13.2895 13.49661-.25263 11.99342 6.49739 19.92485 14.18855 21.69176 7.18368 1.2755 22.4475.1166 33.41479.28831 11.10987.0613 27.548-1.46253 37.2075-1.56994 4.9304.42791 17.62879-1.86696 23.09709-12.11679 4.09891-7.68303 2.82152-22.10404-3.5052-27.87894-6.93323-6.32852-16.44191-8.10797-26.48618-6.80591-8.52251-8.57045-8.11262-7.91557-11.58529-8.0288-11.30357-.023-38.93316 7.80365-42.77798 9.18857z" class="top_primary"/><g id="g48847" style="filter:url(#filter48851)" clip-path="url(#clipPath48855)"><path class="top_primary_shade" id="path16138" d="m284.16411 238.63346c-6.83759 1.71373-10.61047 1.49858-14.32964.50981-27.20233-4.68891-38.36877-2.99021-39.62923 1.03385-.25263 11.99342 6.49739 19.92485 14.18855 21.69176 7.18368 1.2755 18.32495-6.46429 29.69849-5.48008 11.10987.0613 31.2643 4.30586 40.9238 4.19845 4.9304.42791 18.89395.14145 22.09709-12.24179-6.28094-19.15115-21.37186-16.01155-23.42291-16.26345-17.6028 2.47515-14.95342 1.15048-29.52615 6.55145z"/><path class="top_primary_shade" d="m283.05258 243.37031c-6.15334 1.19828-9.54866 1.04784-12.89564.35647-24.48014-3.27858-38.32983-3.06309-39.46415-.24938-.22735 8.38606 5.93557 17.37903 16.56937 16.13962 6.46479.89186 16.41159-5.63242 26.64695-4.94424 9.99809.0429 28.21516 4.1232 36.90802 4.0481 4.437.2992 20.09678 1.42473 22.62582-8.38295-.87942-11.0928-18.03985-11.01954-20.19505-11.28336-15.84125 1.73068-17.08092.53927-30.19532 4.31574z" id="path16140"/><path class="top_primary_highlight" id="path16142" d="m241.63858 225.9734c-20.14756 15.16256 26.26247 6.82654 36.36838 7.5601 13.49993 1.23534 23.33267-4.23125 35.41813-2.99829 13.19362 1.34602 20.88843.40115 21.56148-3.52884.7981-4.66011-9.84461-11.77088-25.62734-11.58557-10.61271.12461-23.66256 3.07424-27.13523 2.96101-19.17833-2.87529-29.63691-4.05943-40.58542 7.59159z"/><path class="top_primary_highlight" id="path62013" d="m238.19344 226.88318c-14.99845 13.69832 30.05358 3.39271 40.15949 4.12627 13.49993 1.23534 22.84653-4.65803 34.93199-3.42507 13.19362 1.34602 18.40544 1.51543 19.07849-2.41456.7981-4.66011-5.30594-7.95264-21.08867-7.76733-10.61271.12461-26.05976 3.51305-29.53243 3.39982-19.17833-2.87529-28.55042-7.61745-43.54887 6.08087z"/></g><g id="g48864"><path id="path16144" d="m300.08971 205.60969c-1.80428 3.35073-4.21925 5.90773-5.48192 7.50234-17.23662 21.76778-17.39771 28.90583-12.65144 42.05696.83356 2.30967-.62368 6.09182-.38399 7.09764" style="fill-opacity:1;fill:none;opacity:1;stroke-dasharray:none;stroke-dashoffset:0;stroke-linecap:butt;stroke-linejoin:miter;stroke-miterlimit:4;stroke-opacity:1;stroke-width:.453543;stroke:#333;vector-effect:none"/><path id="path16146" d="m293.88 205.34452c-1.80428 3.35073-4.30764 6.1729-5.57031 7.76751-17.23662 21.76778-17.39771 28.90583-12.65144 42.05696.83356 2.30967-.62368 6.09182-.38399 7.09764" style="fill-opacity:1;fill:none;opacity:1;stroke-dasharray:none;stroke-dashoffset:0;stroke-linecap:butt;stroke-linejoin:miter;stroke-miterlimit:4;stroke-opacity:1;stroke-width:.453543;stroke:#818181;vector-effect:none"/><path class="top_accent" d="m279.21161 253.73609c.17038.78599-.23104 1.54013-.89658 1.68439-.66555.14427-1.3432-.37595-1.51358-1.16194-.17038-.786.23104-1.54013.89657-1.6844.66556-.14426 1.34321.37595 1.51359 1.16195z" id="path4492-5-0"/><path class="top_accent" d="m279.79519 232.21422c-.39514.75343-1.27113 1.07277-1.95659.71329-.68545-.35949-.92082-1.26169-.52569-2.01511.39514-.75342 1.27113-1.07277 1.95659-.71328.68545.35948.92082 1.26169.52569 2.0151z" id="path4492-8-23-7"/><path class="top_accent" d="m294.29555 211.29307c-.48039.70529-1.39186.92145-2.03584.48283-.64401-.43862-.77664-1.36594-.29628-2.07123.48038-.70529 1.39185-.92146 2.03583-.48284.64401.43863.77664 1.36595.29629 2.07124z" id="path4492-9-6-9"/></g><g id="g48868"><path class="top_primary_strong_highlight" d="m231.21291 242.04609c2.39403 11.14646 6.10393 16.02549 12.57616 20.2254.87353 1.406 1.48779 2.1997 2.12525 5.613.0358-4.84355-.11751-5.38191-.87007-6.65596-4.92413-2.5441-11.23494-8.20496-13.62056-19.3123-.14492-.16756-.1862.009-.21083.13012z" id="path16132"/><path class="top_primary_strong_highlight" d="m312.83412 238.01638c-.8219 17.476-2.17593 18.07936-2.96332 28.10798-.78739 10.02862-1.47953 32.88236-1.97202 42.90458.6664-5.48017 3.56961-33.50009 3.95993-38.50478.78614-10.01251 1.9725-11.76079 1.26277-32.56037-.10952-.44621-.27723-.17938-.28736.0526z" id="path16130"/></g></g></svg>