<svg viewBox="0 0 560 1e3"><defs/><path class="shadow" d="m361.49685 353.61489c-24.7956 12.79359-57.8917 24.02476-84.52443 27.302-18.36566 2.25994-30.96072.9514-42.29045-8.1108-.29752 2.67614-.64307 5.37588-1.02557 8.08213.24146-1.6801.72395-4.62896 1.11645-7.94883 11.33293 9.06198 23.85785 10.27026 42.22118 8.01061 26.63657-3.27768 59.57635-14.29091 84.37393-27.08461.64583 1.08393 1.33844 2.24443 2.10875 3.51327 6.09952 9.35655 8.82905 17.70897 14.05412 25.62254 11.15201 16.89012 21.81057 31.84456 24.5173 54.34258.65258 5.42416-.0979 13.76218-1.11258 22.06833.0973.01.26172.0.26172.0 1.00919-8.3229 1.75518-16.68807 1.10024-22.13085-2.70698-22.49594-13.30201-37.39234-24.4498-54.28092-5.22369-7.91376-8.14395-16.51547-14.24248-25.87214-.77017-1.26885-1.46266-2.42937-2.10838-3.51331zm-127.9418 27.97188c-2.85276 19.85024-7.2691 37.53397-11.22183 54.18464-1.90498 8.03638-3.50598 15.96974-4.71408 23.6407.1238.01.3418.0.3418.0 1.12907-7.67782 2.64932-15.59678 4.55378-23.6401 4.36267-18.4253 7.96143-34.0055 11.01039-53.4763-.0485.0318-.0321-.22646.0299-.70894h5e-5z" id="path34627-4-9"/><path class="bottoms_primary" d="m361.36796 353.86539c-24.79758 12.7937-57.73736 23.80693-84.37393 27.08462-18.36333 2.25964-30.88825 1.05136-42.22118-8.01062-.58823 4.97549-1.44157 9.48358-1.24774 9.35632-3.04896 19.4708-6.64772 35.051-11.01039 53.4763-1.90446 8.04332-3.42471 15.96228-4.55378 23.6401 61.01384.01 182.97461.0 182.97461.0 1.01469-8.30615 1.76517-16.64417 1.11258-22.06833-2.70673-22.49802-13.36529-37.45246-24.5173-54.34258-5.22507-7.91357-7.9546-16.26599-14.05412-25.62254-.77031-1.26884-1.46292-2.42934-2.10875-3.51327z" id="path34629-0-6"/><g id="g34659-3-3"><path class="bottoms_primary_strong_shade" d="m291.15261 448.24828c-1.10487-2.8359-1.47039-6.64815-2.4326-9.75116-3.53195-11.39007-6.0867-24.02784-7.73104-34.78265-1.65267-10.80926-2.33749-19.39059-2.42842-22.90561.0.0-3.69155.84634-4.41137 2.31803-.34851 18.9103 6.36706 46.97476 12.11872 58.83838 1.96188 4.04666 5.06375 8.25935 4.88471 6.28301z" id="path34631-4-3"/><path class="bottoms_primary" d="m267.03848 381.91563c1.97573 21.04992 5.29759 47.73583 10.08216 60.01519 1.92889 4.95039 7.88821 6.72685 13.81966 6.92915-4.50967-11.14236-7.88489-25.22474-10.115-37.71343-2.2644-12.68077-3.29423-23.375-3.56553-28.66449-.36097-.97459-1.22962-1.34657-2.59301-1.19863-2.29246.24802-5.58773.57277-7.62828.63221z" id="path34633-7-3"/><path style="baseline-shift:baseline;clip-rule:nonzero;color-interpolation-filters:linearRGB;color-interpolation:sRGB;color-rendering:auto;color:#000;direction:ltr;display:inline;dominant-baseline:auto;enable-background:accumulate;fill-opacity:.586998;fill-rule:nonzero;fill:#4d4d4a;image-rendering:auto;isolation:auto;mix-blend-mode:normal;opacity:1;overflow:visible;shape-padding:0;shape-rendering:auto;solid-color:#000000;solid-opacity:1;stroke-dasharray:none;stroke-dashoffset:0;stroke-linecap:butt;stroke-linejoin:miter;stroke-miterlimit:4;stroke-opacity:1;stroke-width:.453543;stroke:none;vector-effect:none;visibility:visible;white-space:normal;writing-mode:lr-tb" d="m267.25831 381.89576c-.137.0228-.44026.0383-.44026.0383 1.97496 21.05228 5.28016 47.72005 10.09267 60.07366.9901 2.54158 3.01828 4.26919 5.53079 5.37493 2.51209 1.10556 5.51151 1.60035 8.49562 1.70214.012-.14048.005-.45119.005-.45119-2.94386-.10039-5.89131-.59216-8.32525-1.66317-2.43428-1.07117-4.34676-2.70745-5.28552-5.11626-4.75665-12.20519-8.09677-38.91076-10.07324-59.9584l1e-5-4e-5z" id="path34635-2-7"/><path style="baseline-shift:baseline;clip-rule:nonzero;color-interpolation-filters:linearRGB;color-interpolation:sRGB;color-rendering:auto;color:#000;direction:ltr;display:inline;dominant-baseline:auto;enable-background:accumulate;fill-opacity:.586998;fill-rule:nonzero;fill:#4d4d4a;image-rendering:auto;isolation:auto;mix-blend-mode:normal;opacity:1;overflow:visible;shape-padding:0;shape-rendering:auto;solid-color:#000000;solid-opacity:1;stroke-dasharray:none;stroke-dashoffset:0;stroke-linecap:butt;stroke-linejoin:miter;stroke-miterlimit:4;stroke-opacity:1;stroke-width:.453543;stroke:none;vector-effect:none;visibility:visible;white-space:normal;writing-mode:lr-tb" d="m267.25831 381.89576c-.137.0228-.44026.0383-.44026.0383 1.97496 21.05228 5.28016 47.72005 10.09267 60.07366.9901 2.54158 3.01828 4.26919 5.53079 5.37493 2.51209 1.10556 5.51151 1.60035 8.49562 1.70214.012-.14048.005-.45119.005-.45119-2.94386-.10039-5.89131-.59216-8.32525-1.66317-2.43428-1.07117-4.34676-2.70745-5.28552-5.11626-4.75665-12.20519-8.09677-38.91076-10.07324-59.9584l1e-5-4e-5z" id="path34637-9-8"/><path style="baseline-shift:baseline;clip-rule:nonzero;color-interpolation-filters:linearRGB;color-interpolation:sRGB;color-rendering:auto;color:#000;direction:ltr;display:inline;dominant-baseline:auto;enable-background:accumulate;fill-opacity:.586998;fill-rule:nonzero;fill:#4d4d4a;image-rendering:auto;isolation:auto;mix-blend-mode:normal;opacity:1;overflow:visible;shape-padding:0;shape-rendering:auto;solid-color:#000000;solid-opacity:1;stroke-dasharray:none;stroke-dashoffset:0;stroke-linecap:butt;stroke-linejoin:miter;stroke-miterlimit:4;stroke-opacity:1;stroke-width:.453543;stroke:none;vector-effect:none;visibility:visible;white-space:normal;writing-mode:lr-tb" d="m267.25831 381.89576c-.137.0228-.44026.0383-.44026.0383 1.97496 21.05228 5.28016 47.72005 10.09267 60.07366.9901 2.54158 3.01828 4.26919 5.53079 5.37493 2.51209 1.10556 5.51151 1.60035 8.49562 1.70214.012-.14048.005-.45119.005-.45119-2.94386-.10039-5.89131-.59216-8.32525-1.66317-2.43428-1.07117-4.34676-2.70745-5.28552-5.11626-4.75665-12.20519-8.09677-38.91076-10.07324-59.9584l1e-5-4e-5z" id="path34639-4-8"/><path style="baseline-shift:baseline;clip-rule:nonzero;color-interpolation-filters:linearRGB;color-interpolation:sRGB;color-rendering:auto;color:#000;direction:ltr;display:inline;dominant-baseline:auto;enable-background:accumulate;fill-opacity:.586998;fill-rule:nonzero;fill:#4d4d4a;image-rendering:auto;isolation:auto;mix-blend-mode:normal;opacity:1;overflow:visible;shape-padding:0;shape-rendering:auto;solid-color:#000000;solid-opacity:1;stroke-dasharray:none;stroke-dashoffset:0;stroke-linecap:butt;stroke-linejoin:miter;stroke-miterlimit:4;stroke-opacity:1;stroke-width:.453543;stroke:none;vector-effect:none;visibility:visible;white-space:normal;writing-mode:lr-tb" d="m267.25831 381.89576c-.137.0228-.44026.0383-.44026.0383 1.97496 21.05228 5.28016 47.72005 10.09267 60.07366.9901 2.54158 3.01828 4.26919 5.53079 5.37493 2.51209 1.10556 5.51151 1.60035 8.49562 1.70214.012-.14048.005-.45119.005-.45119-2.94386-.10039-5.89131-.59216-8.32525-1.66317-2.43428-1.07117-4.34676-2.70745-5.28552-5.11626-4.75665-12.20519-8.09677-38.91076-10.07324-59.9584l1e-5-4e-5z" id="path34641-8-1"/><path class="bottoms_primary_shade" d="m267.25831 381.89576c-.137.0228-.44026.0383-.44026.0383 1.97496 21.05228 5.28016 47.72005 10.09267 60.07366.9901 2.54158 3.01828 4.26919 5.53079 5.37493 2.51209 1.10556 5.51151 1.60035 8.49562 1.70214.012-.14048.005-.45119.005-.45119-2.94386-.10039-5.89131-.59216-8.32525-1.66317-2.43428-1.07117-4.34676-2.70745-5.28552-5.11626-4.75665-12.20519-8.09677-38.91076-10.07324-59.9584l1e-5-4e-5z" id="path34643-5-6"/></g><path style="baseline-shift:baseline;clip-rule:nonzero;color-interpolation-filters:linearRGB;color-interpolation:sRGB;color-rendering:auto;color:#000;direction:ltr;display:inline;dominant-baseline:auto;enable-background:accumulate;fill-opacity:.784314;fill-rule:nonzero;fill:#1e1e1e;image-rendering:auto;isolation:auto;mix-blend-mode:normal;opacity:1;overflow:visible;shape-padding:0;shape-rendering:auto;solid-color:#000000;solid-opacity:1;stroke-dasharray:none;stroke-dashoffset:0;stroke-linecap:butt;stroke-linejoin:miter;stroke-miterlimit:4;stroke-opacity:1;stroke-width:.453543;stroke:none;vector-effect:none;visibility:visible;white-space:normal;writing-mode:lr-tb" d="m370.39134 369.89083c-10.68924 6.92801-21.77084 13.00305-36.0825 18.22633-14.31323 5.22386-31.83602 9.58074-54.97648 13.02407-9.45655 1.40714-18.99168 2.07676-27.4275.81759-7.99112-1.19279-14.95287-4.10175-20.02463-9.73344-.0246.1872-.10131.53131-.10131.53131 5.1295 5.57837 12.11807 8.46246 20.07241 9.64936 8.50418 1.26894 18.07801.59284 27.55783-.81767 23.14988-3.4445 40.70081-7.80973 55.04376-13.043 14.34152-5.23276 25.45437-11.3184 36.15465-18.25171-.003-.006-.21307-.39696-.21623-.40284z" id="path34645-8-3"/></svg>