<svg viewBox="0 0 560 1e3"><path class="shadow" id="path98920" d="m355.59766 343.47266c-3.70204-5.61347-10.24768-12.12776-15.92383-18.9668-3.14552-3.78995-4.5435-12.00847-4.5-13.56641.11806-4.22645.59303-17.98888 5.0664-29.80859 1.32182-3.49255 11.48142-18.36648 15.30079-26.91406 3.28806-7.35855 4.99023-12.18555 4.99023-12.18555l-.041-.0371c-.002.007-5.01153 15.38194-16.69921 32.11914-4.45828 5.63678-9.17183 23.87004-9.46875 35.45117-.32753 12.77551 10.37189 20.0625 18.42187 30.42774 1.10125 1.40186 2.03354 2.68505 2.85126 3.89174l7.44577 13.72192c-29.00448 27.51199-51.90387 48.78595-80.84773 52.53474-24.65638 3.19348-43.27592.57667-50.31641-13.20507 2.52198-15.45118 2.98116-22.70011 4.18555-36.11914.003-.0333.005-.0663.008-.0996.0164-.18239.0282-.31528.0449-.5.002.002.004.003.006.004 1.75343-26.15604 11.87033-33.83478 11.86133-55.84765-.007-16.35403-4.29406-29.21825-5.24219-47.80664-.53908-5.00868-.36241-9.88632.33594-14.57813-.17656-.14443-.38133-.30508-.55469-.44726l-39e-5-8e-5c-.57382 4.08424-.68896 8.72281-.0312 13.96289.69389 23.09976 5.12143 36.88302 5.01563 49.08984-.19009 21.92983-11.12229 30.82417-12.33203 63.07227-.0184 1.60616-.73825 7.42405-1.87311 13.91471-1.76773 10.11025-4.23043 21.85286-4.21478 21.85286 9.85302 18.44182 36.30134 19.45661 54.07617 17.16211 25.54434-3.29744 58.49029-9.60124 92.87745-42.36677-.22375-.29195-11.5118-21.88095-11.91103-21.99732-3.80307-5.86712-5.73757-8.50923-8.53094-12.75896z"/><path class="top_primary" id="path98922" d="m243.14624 241.49571c-.76055 4.84194-.96391 9.88719-.40601 15.0707.94813 18.58839 5.23519 31.45222 5.24173 47.80625.009 22.01287-10.10744 29.692-11.86087 55.84804-.002-.001-.004-.002-.006-.004-.0167.18472-.0285.31761-.0449.5-.003.0333-.005.0663-.008.0996-1.20439 13.41903-1.66357 20.66796-4.18555 36.11914 7.04049 13.78174 25.66003 16.39856 50.31641 13.20507 29.53525-3.82539 57.20697-12.19824 87.08203-40.56054-1.6411-3.45083-2.24103-4.55467-4.01953-8.16406-5.0098-8.46001-5.7401-12.80402-12.51134-21.42364-8.04998-10.36524-18.74925-17.65306-18.42172-30.42857.29692-11.58113 5.01026-29.81305 9.46854-35.44983 11.69026-16.7409 16.70085-32.12179 16.70085-32.12179-1.23417-2.31741-2.22215-6.6153-2.99544-11.93962-44.02018 18.50933-91.8004 15.5267-114.3502 11.44325z"/><g id="g98938" style="display:inline;opacity:1"><path id="path98924" d="m360.43953 242.24933c-3.72079 10.04922-5.39438 12.94011-9.39172 20.29081-.002-7.35687 2.26957-22.35444 6.44118-32.47497.59983 3.69261 2.67594 11.78676 2.95054 12.18416z" class="top_primary_shade"/><path class="top_primary_shade" d="m360.43953 242.24933c-3.72079 10.04922-5.01547 12.26433-9.01281 19.61503-.002-7.35687 2.07296-19.71754 6.24457-29.83807.59983 3.69261 2.49364 9.82564 2.76824 10.22304z" id="path98926"/><path id="path98928" d="m360.43953 242.24933c-3.72079 10.04922-4.53109 10.88933-8.52843 18.24003.31222-7.40923 1.97703-16.82525 5.97113-26.91619.59983 3.69261 2.2827 8.27876 2.5573 8.67616z" class="top_primary_shade"/><path class="top_primary_shade" d="m360.43953 242.24933c-3.84268 9.4142-4.46041 10.61678-7.90399 17.27719.24679-6.38493 1.80147-14.56691 5.72234-24.47285.59983 3.69261 1.90705 6.79826 2.18165 7.19566z" id="path98930"/><path id="path98932" d="m360.43953 242.24933c-3.15632 7.81154-4.15156 9.86895-7.0038 15.62227.32326-5.19144 1.74563-11.90822 5.2199-21.16065.62228 3.67016 1.68275 4.96753 1.7839 5.53838z" class="top_primary_shade"/><path class="top_primary_shade" d="m360.43953 242.24933c-2.99943 7.6077-3.22115 7.85727-6.19933 14.28549.39581-4.05928 1.74067-9.52212 4.85737-18.18869.86155 2.85277 1.09861 3.38861 1.34196 3.9032z" id="path98934"/><path id="path98936" d="m360.43953 242.24933c-1.9303 5.3811-2.38214 5.95389-4.83258 11.45324.6154-2.89733 1.84326-7.02507 3.95466-13.96432.4518 1.60235.66191 2.07852.87792 2.51108z" class="top_primary_shade"/></g><path id="path99072-2-7" d="M375.56252 378.12497C345.36507 411.61963 250.35808 441.043 229.26648 403.3481l4.20115-21.61546c8.71987 9.36233 22.03611 14.54242 46.6041 11.61408 29.57262-3.52485 51.64079-11.46695 84.01585-36.64175z" class="top_accent"/></svg>