<svg viewBox="0 0 560 1e3"><g data-transform="boob_right" id="g231088"><path id="path231086" d="m162.46954 313.2445c-5.53358 1.13228-12.13092-2.11049-16.4197-6.34198-1.38851-1.36997-2.31806-2.68322-2.94171-4.03941 1.42306-8.57124 5.14919-17.82672 16.26526-27.60523.34424-.0592.69365-.10684 1.04782-.14136 10.75161-1.0435 23.85952 4.80764 23.16043 17.55772-.46179 8.42267-9.96576 20.57026-21.11434 20.57026z" class="areola"/></g><g data-transform="boob_left" id="g231092"><path class="areola" d="m297.02289 304.20424c-13.74784-1.51645-27.64097-11.64851-27.70617-20.7298-.0833-11.58965 17.45308-23.68566 32.85819-23.01156 14.4864.63388 29.60388 10.08215 26.63425 24.12917-2.96963 14.04704-15.34827 21.42535-31.78627 19.61219z" id="path231090"/></g></svg>