<svg viewBox="0 0 560 1e3"><defs><clipPath clipPathUnits="userSpaceOnUse" id="clipPath21378"><path style="display:inline;fill-opacity:.5;fill:#08ffff;opacity:1" d="m357.37109 230.09765c-6.17894 1.85299-11.79828 5.76528-17.99414 7.25976-6.8017 1.64062-13.61548 3.05025-20.4414 4.19141-6.82592 1.14116-13.66344 2.01478-20.51758 2.58594-6.85414.57115-13.723.83894-20.60938.76953-3.44318-.0347-6.89175-.15326-10.34375-.36133-3.45199-.20807-6.90783-.50623-10.36914-.89649-3.4613-.39026-6.92732-.87381-10.39843-1.45507-1.16025-.1943-2.32495-.46535-3.48633-.68164-.76193 4.8452-.72677 9.84564-.47071 15.05664.7416 15.09207 8.87668 28.84113 8.23376 49.30828-.6879 10.16836-.57408 18.49906-3.28177 24.52257-5.06914 11.27678-9.42273 17.5322-11.9047 29.9852-2.59553 13.02284-4.52213 26.33745-6.9008 39.72496-3.50976 19.75346-7.33314 39.67111-10.32422 59.06055-2.75255 17.84315-4.71972 35.2386-6.89648 51.64453-4.71472 35.53421-7.42175 69.24179-7.83008 97.93164-.51006 35.83712 2.88531 56.0485 1.39258 73.90625.007.0133.0146.0204.0215.0332.0435-1.9379.76188-4.10619 2.28516-6.53906 8.4939-47.84325-.35923-129.19873 12.21093-191.625 16.88392-83.84937 45.15513-147.28202 54.44727-160.16015 11.68202 8.9616 90.56343 101.89785 117.18945 161.57421 28.12851 62.95446 33.3208 95.60154 39.59961 166.16993 1.38775 15.59709 7.469 19.64653 11.57617 29.38086-2.35247-8.09353-6.42028-27.5131-10.62109-53.37696-3.19967-19.69991-6.07002-43.08356-10.38867-67.91211-3.90284-22.43797-9.45822-48.25781-11.28321-73.04883-1.85361-25.17984-.005-49.29825-7.64257-67.73828-7.90405-19.0822-16.07507-27.13591-22.80274-36.08593-7.03829-9.36324-11.5446-16.72855-14.56445-21.90625-2.16992-3.72045-5.13911-10.74027-8.30245-15.51236-9.77683-14.7489-18.69629-19.34946-24.71545-30.38734-5.94707-10.90569-.11253-26.64882 3.67597-33.028 4.46588-7.51977 10.80455-13.35246 15.26116-20.66826 5.86862-9.63371 9.3171-19.82787 9.3171-19.82787-1.03569-1.94472-1.78268-5.24964-2.49024-9.41992z" id="path21381"/></clipPath></defs><path class="top_primary" id="path21261" d="m357.37109 230.09766c-6.17894 1.85299-11.79828 5.76528-17.99414 7.25976-6.8017 1.64062-13.61548 3.05025-20.4414 4.19141-6.82592 1.14116-13.66344 2.01478-20.51758 2.58594-6.85414.57115-13.723.83894-20.60938.76953-3.44318-.0347-6.89175-.15326-10.34375-.36133-3.45199-.20807-6.90783-.50623-10.36914-.89649-3.4613-.39026-6.92732-.87381-10.39843-1.45507-1.16025-.1943-2.32495-.46535-3.48633-.68164-.76193 4.8452-.72677 9.84564-.47071 15.05664.7416 15.09207 8.87668 28.84113 8.23376 49.30828-.6879 10.16836-.57408 18.49906-3.28177 24.52257-5.06914 11.27678-9.42273 17.5322-11.9047 29.9852-2.59553 13.02284-4.52213 26.33745-6.9008 39.72496-3.50976 19.75346-7.33314 39.67111-10.32422 59.06055-2.75255 17.84315-4.71972 35.2386-6.89648 51.64453-4.71472 35.53421-7.42175 69.24179-7.83008 97.93164-.51006 35.83712 2.88531 56.0485 1.39258 73.90625.007.0133.0146.0204.0215.0332.0435-1.9379.76188-4.10619 2.28516-6.53906 8.4939-47.84325-.35923-129.19873 12.21093-191.625 16.88392-83.84937 45.15513-147.28202 54.44727-160.16015 11.68202 8.9616 90.56343 101.89785 117.18945 161.57421 28.12851 62.95446 33.3208 95.60154 39.59961 166.16993 1.38775 15.59709 7.469 19.64653 11.57617 29.38086-2.35247-8.09353-6.42028-27.5131-10.62109-53.37696-3.19967-19.69991-6.07002-43.08356-10.38867-67.91211-3.90284-22.43797-9.45822-48.25781-11.28321-73.04883-1.85361-25.17984-.005-49.29825-7.64257-67.73828-7.90405-19.0822-16.07507-27.13591-22.80274-36.08593-7.03829-9.36324-11.5446-16.72855-14.56445-21.90625-2.16992-3.72045-5.13911-10.74027-8.30245-15.51236-9.77683-14.7489-18.69629-19.34946-24.71545-30.38734-5.94707-10.90569-.11253-26.64882 3.67597-33.028 4.46588-7.51977 10.80455-13.35246 15.26116-20.66826 5.86862-9.63371 9.3171-19.82787 9.3171-19.82787-1.03569-1.94472-1.78268-5.24964-2.49024-9.41992z"/><g clip-path="url(#clipPath21378)" id="g21311" transform="translate(1.4746094e-6,6.4172364e-6)"><path id="path21269" class="highlight2" d="m287.98074 308.15638c-6.89741-2.20649 7.16347 22.60145 9.20732 22.90539 5.87187.87322 1.50503-19.4785-9.20732-22.90539z"/><path id="path21271" class="highlight2" d="M409.23793 473.779C436.339 435.42779 397.053 368.02639 382.2203 382.29428c2.92206 13.33619 10.29426 24.0245 16.36717 40.93398 5.69223 15.84949 8.31079 34.46112 10.65046 50.55074z"/><path id="path21273" class="highlight2" d="m259.46481 317.8912c3.81106-4.72868 4.32793 26.64722 3.46918 31.78806-.89979 5.38646-3.69793 6.81229-7.40761 10.65309-1.45787 2.83953-3.21094-1.97552-2.53359-4.3188 1.01782-18.60717 3.28264-36.49395 6.47202-38.12235z"/><path d="M412.11293 473.279C439.214 434.92779 399.928 367.52639 385.0953 381.79428c2.92206 13.33619 10.29426 24.0245 16.36717 40.93398 5.69223 15.84949 8.31079 34.46112 10.65046 50.55074z" class="highlight1" id="path21275"/><path id="path21277" class="highlight2" d="m356.60776 367.2413c4.9167 2.3183 11.31738 5.96627 18.11022 10.24657-10.79074-15.62942 1.31474.83202 1.97661 1.25625 20.72152 13.28139 44.06109 31.72072 39.90577 36.08489-6.88172-10.0057-49.95286-42.02319-59.9926-47.58771z"/><path d="m352.18834 358.57924c4.32404 2.03885 9.79588 5.10614 15.67282 8.72752-8.67285-16.87451 1.75512 1.08822 2.64366 1.64913 21.13469 13.34158 45.95026 32.7221 41.67612 37.21106-7.41205-13.54123-49.95286-42.02319-59.9926-47.58771z" class="highlight2" id="path21279"/><path id="path21281" class="highlight2" d="m345.91277 347.79586c4.53162 2.13673 10.32388 5.403 16.52192 9.25284-17.60438-41.72233-17.24626-60.13509 5.25211 3.33903 20.27724 13.1799 42.26146 30.74976 38.21857 34.99584-7.41205-13.54123-49.95286-42.02319-59.9926-47.58771z"/><path id="path21283" class="highlight2" d="m212.50319 577.622c3.81106-4.72868 6.07793 80.52222 5.21918 85.66306-.89979 5.38646-3.69793 6.81229-7.40761 10.65309-1.45787 2.83953-3.21094-1.97552-2.53359-4.3188.48939-8.94676 1.73749-27.93238 2.34753-47.75194.6587-21.40049.71864-43.39998 2.37449-44.24541z"/><path id="path21285" class="highlight2" d="m429.40516 639.76142c-1.43173 5.51577.507 24.48784 6.37387 28.86664 4.78306-6.0711-3.97262-25.94812-6.37387-28.86664z"/><path d="m434.62374 655.30423c-1.43396 5.52444-.17642 10.34078 1.1318 13.26731 1.00142-3.20834 1.27323-10.34422-1.1318-13.26731z" class="highlight1" id="path21287"/><path d="m241.21481 355.3912c-5.65917 31.07609-4.57222 48.40264-13.93843 77.44115-1.55589-5.12566 6.73657-55.96695 13.93843-77.44115z" class="highlight2" id="path21289"/><path d="m234.89678 388.78559c-2.45217 9.37633-3.90316 16.89383-5.05221 27.3038 4.09959-11.20089 4.14727-17.64749 5.05221-27.3038z" class="highlight1" id="path21291"/><path id="path21293" class="highlight2" d="m330.32358 378.9716c-1.12064-15.06409-3.10086-21.96394-23.95885-36.56694 3.97343 9.11743 14.40224 24.33952 23.95885 36.56694z"/><path d="m328.25042 372.62072c-4.8133-17.02156-15.03477-24.42735-13.15183-20.68485.13643 2.92554 9.27856 11.70021 13.15183 20.68485z" class="highlight1" id="path21295"/><path id="path21297" class="highlight2" d="m335.79395 402.28459c-13.47602 12.46326 17.72801 52.38896 32.5374 59.93081 10.63485-4.20547-17.94021-62.27131-32.5374-59.93081z"/><path d="m342.89678 409.16059c-6.45217 6.75133 18.09684 26.14383 19.19779 31.4288 5.34959-4.45089-14.60273-34.52249-19.19779-31.4288z" class="highlight1" id="path21299"/><path d="m259.33428 327.47309c-1.55841-1.61744-1.73461 14.13819-1.36471 21.6163.90188.0968 1.69426-3.06185 2.11349-5.08514.87632-4.22933.66834-11.69056-.74878-16.53116z" class="highlight1" id="path21301"/><path d="m292.16684 315.63689c2.66332-2.72075-.58013-4.61035-1.62242-4.75527-5.21152-.7246.64382 5.75497 1.62242 4.75527z" class="highlight1" id="path21305"/><path d="m296.75534 321.41168c-1.4815-3.50726-2.98157-4.89895-3.07983-3.85122-.41495 4.4247 6.24878 11.35333 3.07983 3.85122z" class="highlight1" id="path21307"/><path d="m255.36826 322.59659c-2.19851.16467-3.3009.32849-4.48394.0736-.23887-4.08466.5838-9.4171-4.16509-8.2005l2.04392 9.21246c2.13981-.19681 4.22743-.25444 6.60511-1.08558z" class="highlight2" id="path21309"/><path id="path21358" class="highlight2" d="m246.65673 307.00094 2.04392 9.21246c2.13981-.19681 11.69526-1.97319 13.631-3.99757-2.29251.76235-7.47979 2.36362-10.60522 2.59301.0682-5.44328 2.00754-9.36178-5.0697-7.8079z"/><path d="m246.47995 297.455 2.04392 9.21246c2.13981-.19681 9.44136-1.26608 11.3771-3.29046-2.29251.76235-5.1817 1.7449-8.30713 1.97429-.6389-5.08973 1.30044-7.77079-5.11389-7.89629z" class="highlight2" id="path21368"/><path id="path21370" class="highlight2" d="m341.90788 328.2057c-3.79214-2.68971-8.55685-5.83838-1.35817-7.60996l4.25578 8.93831c-2.08722.51091-9.95476-.48858-15.3485-1.81243 6.09369-1.20442 10.64264 1.54777 12.45089.48408z"/><path d="m336.73854 311.70144 1.06828 9.37581c-2.08722.51092-17.88767 1.75637-20.37724.47291 2.41581-.026 13.96677-.45164 16.99647-1.25279-6.77499-8.56172-4.88493-7.75983 2.31249-8.59593z" class="highlight2" id="path21372"/><path id="path21374" class="highlight2" d="m333.35883 298.99352-.68173 10.81331c-2.08722.51091-12.40136 2.81575-14.89093 1.53229 2.41581-.026 8.52998-.9756 11.55968-1.77672-.3663-6.08276-2.01067-8.36092 4.01298-10.56888z"/></g><path d="m243.21094 241.50977c-.76193 4.8452-1.22677 9.09564-.97071 14.30664.7416 15.09207 9.09019 29.59144 8.44727 50.05859-.6879 10.16836-.42903 18.49797-3.13672 24.52148-5.06914 11.27678-9.43795 17.51771-11.91992 29.97071-2.59553 13.02284-4.53735 26.2746-6.91602 39.66211-3.50976 19.75346-8.04603 40.19064-11.03711 59.58008-2.75255 17.84314-4.27636 34.79719-6.45312 51.20312-4.71472 35.53421-7.85534 69.24179-8.26367 97.93164-.51006 35.83712 3.76031 56.0485 2.26758 73.90625 1.49273-17.85775-1.90264-38.06913-1.39258-73.90625.40833-28.68985 3.11536-62.39743 7.83008-97.93164 2.17676-16.40593 4.14393-33.80138 6.89648-51.64453 2.99108-19.38944 6.81446-39.30709 10.32422-59.06055 2.37867-13.38751 4.30486-26.70177 6.90039-39.72461 2.48197-12.453 6.83516-18.70955 11.9043-29.98633 2.70769-6.02351 2.5953-14.35312 3.2832-24.52148.64292-20.46715-7.49278-34.21652-8.23438-49.30859-.25606-5.211-.29122-10.21144.47071-15.05664zm117.28125.48242s-3.44779 10.19441-9.31641 19.82812c-4.45661 7.3158-10.79584 13.1482-15.26172 20.66797-3.7885 6.37918-9.62285 22.12166-3.67578 33.02734 6.01916 11.03789 14.93801 15.63978 24.71484 30.38868 3.16334 4.77209 6.13282 11.79127 8.30274 15.51172 3.01985 5.1777 7.52616 12.54301 14.56445 21.90625 6.72767 8.95002 14.89869 17.00373 22.80274 36.08593 7.63757 18.44003 5.78896 42.55844 7.64257 67.73828 1.825 24.79102 7.38037 50.61086 11.28321 73.04883 4.31865 24.82855 7.189 48.2122 10.38867 67.91211 4.20081 25.86386 8.26862 45.28343 10.62109 53.37696-4.10717-9.73434-10.18842-13.78377-11.57617-29.38086-6.27881-70.56839-11.4711-103.21547-39.59961-166.16993-26.62602-59.67636-105.50743-152.61262-117.18945-161.57421-9.29214 12.87813-37.56335 76.31078-54.44727 160.16015-12.57016 62.42627-3.71703 143.78175-12.21093 191.625 10.2439-47.34325.17202-128.81982 12.74218-191.24609 16.88392-83.84937 44.71372-147.28203 54.00586-160.16016 11.68202 8.9616 90.29586 101.96036 116.92188 161.63672 28.12851 62.95446 33.25633 95.09372 39.53515 165.66211 1.38775 15.59709 7.83123 20.92526 12.06836 30.00977-2.10247-8.24978-6.59215-28.12247-10.79297-53.98633-3.19967-19.69991-5.71064-42.84919-10.02929-67.67774-3.90284-22.43797-9.58712-48.49023-11.41211-73.28125-1.85361-25.17984.0848-49.69473-7.55274-68.13476-7.90405-19.0822-16.161-26.88201-22.88867-35.83203-7.03829-9.36324-11.5446-16.85355-14.56445-22.03125-2.16992-3.72045-5.18627-10.55995-8.34961-15.33204-9.77683-14.7489-18.56482-19.65938-24.58398-30.69726-5.94707-10.90569-.33343-25.76535 3.45507-32.14453 4.46588-7.51977 10.61466-13.00762 15.08594-20.31446 5.86399-9.58277 9.21627-19.52152 9.31641-20.62304z" id="path23854" class="shadow"/></svg>