<svg viewBox="0 0 560 1e3"><path d="m243.04492 241.47656c-.75037 4.81647-1.0999 9.83614-.67969 14.83985-.0509 3.69004.83759 9.69602 1.46485 15.36914 1.40092 12.67038 4.0722 23.33075 3.40625 33.83984-.33787 5.33175-.96914 10.0921-1.77149 14.47461 3.88454 6.34609 8.00107 10.49903 30.4375 11.50781 25.77417-.66299 53.97285-6.9525 73.86524-20.85156-.60074-10.46152-.0894-19.36847 2.76953-32.85156 4.17155-15.36432 5.08728-19.91845 7.99414-35.77344l-.0391-.0352c-.001.006-1.5024 7.35826-3.84571 17.35938-.12117.51725-.22193.97079-.34765 1.50195-.14021.59228-.30359 1.24754-.44922 1.85547-.9173 3.82925-1.91892 7.89649-3.01758 12.09375-16e-5 62e-5 16e-5.001.0.002-.63633 2.43109-1.29883 4.88741-1.98047 7.32618-2.4017 11.42027-2.54431 19.93731-2.05468 28.63671-1.57194 1.09902-3.00098 2.25593-4.76172 3.27344-3.1796 1.83745-6.64053 3.53896-10.29493 5.09961s-7.50142 2.98034-11.44921 4.25c-3.9478 1.26966-7.99687 2.38904-12.05664 3.35352-4.05978.96447-8.13074 1.77287-12.1211 2.41797-3.99036.64509-7.9011 1.12792-11.64062 1.43945-3.73953.31153-7.30795.45225-10.61524.41601-4.40525-.0483-8.35751-.26951-11.88476-.78906-1.76363-.25977-3.42094-.59434-4.97461-1.01953s-3.0054-.94016-4.35547-1.5625-2.59912-1.35191-3.75196-2.20312c-1.15282-.85122-2.20796-1.82373-3.16992-2.93555-.66861-.77278-1.23349-1.70551-1.8125-2.61719.89563-4.82923 1.54676-9.9929 1.70703-15.69922.0631-2.24622-.17701-5.61809-.58203-9.59375-.40501-3.97566-.97536-8.55526-1.56836-13.21875-1.18599-9.32697-2.46739-18.98782-2.72461-24.8164-.5583-5.18733-.29122-10.21144.47071-15.05664-.0553-.0106-.11072-.0229-.16602-.0332z" id="path37563" class="shadow"/><path d="m357.37109 230.09766c-6.17894 1.85299-11.79828 5.76528-17.99414 7.25976-6.8017 1.64062-13.61548 3.05025-20.4414 4.19141-6.82592 1.14116-13.66344 2.01478-20.51758 2.58594-6.85414.57115-13.723.83894-20.60938.76953-3.44318-.0347-6.89175-.15326-10.34375-.36133-3.45199-.20807-6.90783-.50623-10.36914-.89649-3.4613-.39026-6.92732-.87381-10.39843-1.45507-1.16025-.1943-2.32495-.46535-3.48633-.68164-.76193 4.8452-1.02901 9.86931-.47071 15.05664.51443 11.65717 5.12736 38.64403 4.875 47.6289-.16027 5.70632-.8114 10.86999-1.70703 15.69922.57901.91168 1.14389 1.84441 1.8125 2.61719.96196 1.11182 2.01709 2.08433 3.16992 2.93555 1.15284.85121 2.40189 1.58078 3.75196 2.20312s2.8018 1.13731 4.35547 1.5625 3.21098.75976 4.97461 1.01953c3.52725.51955 7.47951.7408 11.88476.78906 3.30729.0362 6.87571-.10448 10.61524-.41601 3.73952-.31153 7.65026-.79436 11.64062-1.43945 3.99036-.6451 8.06132-1.4535 12.1211-2.41797 4.05977-.96448 8.10884-2.08386 12.05664-3.35352 3.94779-1.26966 7.79481-2.68935 11.44921-4.25s7.11533-3.26216 10.29493-5.09961c1.76074-1.01751 3.18979-2.17442 4.76172-3.27344-.48962-8.6994-.34702-17.21644 2.05468-28.63671 5.45445-19.51494 9.64063-40.14258 9.64063-40.14258-1.03569-1.94472-1.78268-5.24964-2.49024-9.41992z" id="path37565" class="top_primary"/><g id="g37581" style="display:inline;opacity:1"><path id="path37567" d="m360.43953 242.24933c-2.32867 11.24246-4.88615 22.66283-7.71234 33.41648-5.3495-13.25679.59019-35.48011 4.7618-45.60064.59983 3.69261 2.67594 11.78676 2.95054 12.18416z" class="top_primary_shade"/><path class="top_primary_shade" d="m360.43953 242.24933c-2.83691 12.76716-4.92708 23.114-7.31133 32.25456-4.53191-10.07481.37148-32.35707 4.54309-42.4776.59983 3.69261 2.49364 9.82564 2.76824 10.22304z" id="path37569"/><path id="path37571" d="m360.43953 242.24933c-2.01519 9.77077-3.92747 18.78288-7.26864 31.23977-2.12875-6.20385-2.3817-21.99564 4.71134-39.91593.59983 3.69261 2.2827 8.27876 2.5573 8.67616z" class="top_primary_shade"/><path class="top_primary_shade" d="m360.43953 242.24933c-2.01519 9.77077-3.15407 16.74994-6.49524 29.20683-2.12875-6.20385-2.77945-18.4822 4.31359-36.40249.59983 3.69261 1.90705 6.79826 2.18165 7.19566z" id="path37573"/><path id="path37575" d="m360.43953 242.24933c-2.01519 9.77077-2.73422 14.54023-5.81023 26.99712-1.73762-6.23394-2.69188-14.64404 4.02633-32.5355.62228 3.67016 1.68275 4.96753 1.7839 5.53838z" class="top_primary_shade"/><path class="top_primary_shade" d="m360.43953 242.24933c-2.01519 9.77077-2.18179 12.06536-5.2578 24.52225-1.41555-6.35243-2.4762-10.6512 3.91584-28.42545.86155 2.85277 1.09861 3.38861 1.34196 3.9032z" id="path37577"/><path id="path37579" d="m360.43953 242.24933c-2.01519 9.77077-2.02711 10.18711-4.5065 20.96462-1.41555-6.35243-1.50393-6.60743 3.62858-23.4757.4518 1.60235.66191 2.07852.87792 2.51108z" class="top_primary_shade"/></g><g id="g52581"><path class="top_primary_strong_shade" id="path37623" d="m348.6691 308.4994c-7.1168 5.10633-16.41488 9.37966-26.40152 12.65099-15.45011 5.06101-32.5407 7.74767-45.69727 7.60352-8.7837-.0962-15.72243-.8889-21.00976-3.32618-3.8647-1.78148-6.87099-4.42445-9.13217-8.38013l-.25352 1.49515c2.2932 3.58022 5.27021 6.08967 8.96576 7.79319 5.51325 2.54141 12.58067 3.32114 21.41797 3.41797 13.30176.14574 30.46182-2.55609 46.01953-7.65235 9.80009-3.21023 18.96764-7.36107 26.12544-12.38224z"/><path class="top_primary_strong_highlight" id="path37661" d="m348.62786 306.92354c-7.14519 5.17791-16.53398 9.50696-26.62591 12.81279-15.45011 5.06101-32.54069 7.74766-45.69726 7.60351-8.78112-.0962-15.51561-.95421-20.60157-3.45312-3.83323-1.8834-6.76-4.6864-8.98271-8.87567l-.24305 1.59158c2.23918 3.74724 5.13084 6.38742 8.78436 8.18253 5.31687 2.61236 12.19331 3.45783 21.0332 3.55468 13.30176.14574 30.46182-2.55608 46.01953-7.65234 9.91511-3.2479 19.18195-7.45864 26.37526-12.5594z"/></g><g style="stroke-width:1.22285461" transform="matrix(0.8599837,-0.1755567,0.1523898,0.7464981,-0.21418832,130.99583)" id="g37593"><path class="top_primary_strong_highlight" id="path37589" d="m349.73025 315.136c-22.71127 7.78237-43.5508 10.08793-59.21463 4.26049l-.0937.1914c15.82561 5.88764 36.01594 6.49863 58.77511-1.30016z"/><path class="top_primary_strong_shade" d="m348.7927 321.33701c-22.71127 7.78237-42.75388 4.23067-58.41771-1.59677l.0469-.15235c15.82561 5.88764 36.00543 6.54199 58.7646-1.2568z" id="path37591"/></g><g style="stroke-width:.94345552" transform="matrix(-1.0648259,-0.31563657,-0.3723442,0.9446927,711.99319,110.04666)" id="g37611"><path class="top_primary_strong_highlight" id="path37607" d="m323.90663 322.09037c-12.50591 1.73822-23.69822.91214-33.39101-2.69388l-.0937.1914c9.54728 3.5519 20.7342 5.21156 33.10478 4.25705z"/><path class="top_primary_strong_shade" d="m323.20936 325.41958c-12.33734.18991-23.58575-2.23856-32.83437-5.67934l.0469-.15235c9.52883 3.54503 20.79591 5.20905 33.13645 4.27078z" id="path37609"/></g></svg>