<svg viewBox="0 0 560 1e3"><path d="m268.76369 348.80925c0 1.10235-1.23611 2.33846-2.33846 2.33846s-2.33846-1.23611-2.33846-2.33846 1.23611-2.33846 2.33846-2.33846 2.33846 1.23611 2.33846 2.33846z" id="path5495" class="shadow"/><path d="m269.51369 360.80925c0 1.10235-1.23611 2.33846-2.33846 2.33846s-2.33846-1.23611-2.33846-2.33846 1.23611-2.33846 2.33846-2.33846 2.33846 1.23611 2.33846 2.33846z" id="path5497" class="shadow"/><path class="steel_piercing" id="path2749-8-0-9" d="m268.5511 348.80925c0 1.00214-1.12373 2.12587-2.12587 2.12587s-2.12587-1.12373-2.12587-2.12587 1.12373-2.12587 2.12587-2.12587 2.12587 1.12373 2.12587 2.12587z"/><path class="steel_piercing" id="path2749-8-6-3" d="m269.3011 360.80925c0 1.00214-1.12373 2.12587-2.12587 2.12587s-2.12587-1.12373-2.12587-2.12587 1.12373-2.12587 2.12587-2.12587 2.12587 1.12373 2.12587 2.12587z"/></svg>