<svg viewBox="0 0 560 1e3"><defs><clipPath clipPathUnits="userSpaceOnUse" id="clipPath13613"><path d="m131.74321 573.69194 315.75864-8.79774c13.0539 8.0333 2.38259-383.9505 7.79017-388.03777l-85.55784 2.24903c-27.21476-3.74253-39.04027 2.7738-39.27246-32.77588l-33.94646 3.49567c-.60044 11.74636 4.52731 21.84761 4.14186 32.15688-5.80032 4.30093-13.259 4.44692-29.51965 8.86728l-133.98159-.0572z" class="shadow torso" id="path13615"/></clipPath><filter style="color-interpolation-filters:sRGB" id="filter29391"><feGaussianBlur stdDeviation="4 6" result="blur" id="feGaussianBlur29389"/></filter><clipPath clipPathUnits="userSpaceOnUse" id="clipPath29585"><path style="fill-opacity:.5;fill:#0ff" d="m345.29102 222.71094c-1.13297-.057-2.22268.17654-4.19532.61914-1.16315.55571-2.54298 2.09337-4.71875 3.80078-38.51878 24.76501-97.21138 66.1034-126.36028 64.73866-21.86267-4.66544-29.22002-18.3044-30.2865-30.54197-11.13323 5.79593-21.29958 12.61007-29.56611 23.22128-11.63356 14.93322-14.72789 46.37079-3.80859 73.08203 8.28313 20.2625 24.55508 38.24463 51.76562 41.16211 16.84221 1.8058 40.85875-2.70942 59.1543-15.13867 22.54938 10.95125 48.41381 12.72416 71.23242 8.32617 58.78688-11.3304 79.59153-62.20371 79.80274-90.11133.36825-48.65913-37.29566-56.67057-54.125-73.64453-.87117-.71732-3.47-3.67157-4.44336-4.38477-2.14223-.72372-3.31821-1.07188-4.45117-1.1289z" id="path29587"/></clipPath></defs><g id="g28863" data-transform="boob_outfit"><path d="m345.29102 222.71094c-1.13297-.057-2.22268.17654-4.19532.61914-1.16315.55571-2.54298 2.09337-4.71875 3.80078-38.51878 24.76501-97.21138 66.1034-126.36028 64.73866-21.86267-4.66544-29.22002-18.3044-30.2865-30.54197-11.13323 5.79593-21.29958 12.61007-29.56611 23.22128-11.63356 14.93322-14.72789 46.37079-3.80859 73.08203 8.28313 20.2625 24.55508 38.24463 51.76562 41.16211 16.84221 1.8058 40.85875-2.70942 59.1543-15.13867 22.54938 10.95125 48.41381 12.72416 71.23242 8.32617 58.78688-11.3304 79.59153-62.20371 79.80274-90.11133.36825-48.65913-37.29566-56.67057-54.125-73.64453-.87117-.71732-3.47-3.67157-4.44336-4.38477-2.14223-.72372-3.31821-1.07188-4.45117-1.1289z" id="path28855" class="bra_primary"/><path class="shadow" id="path28859" d="m180.67383 260.83984c-11.50228 5.90255-22.31101 12.42369-30.81055 23.33399-11.63356 14.93322-14.72399 47.12079-3.80469 73.83203 8.28313 20.2625 24.85013 38.62708 52.0625 41.52734 16.35547 1.74315 44.34012-4.26636 60.36914-15.98437l-.6981-.27942c-17.20032 11.87835-39.66633 16.71953-56.38979 15.78918-.003-14e-5-.005 15e-5-.008.0-1.11738-.0623-2.20959-.15156-3.27344-.26562-.85098-.0912-1.68985-.19609-2.51953-.31641-1.6581-.2404-3.27358-.53877-4.84765-.89062-3.14881-.70385-6.12993-1.62399-8.95118-2.73633-.70461-.27779-1.39935-.56782-2.08398-.86914-54e-5-24e-5-.001 24e-5-.002.0-.68462-.30134-1.35863-.61536-2.02344-.93945-52e-5-26e-5-.001 25e-5-.002.0-.6648-.32412-1.31967-.65978-1.96485-1.00586-5e-4-27e-5-.001 27e-5-.002.0-1.29134-.69276-2.54206-1.42897-3.75586-2.20508-.60736-.38835-1.20475-.78531-1.79297-1.19336-.58778-.40773-1.16552-.82534-1.73437-1.25195-2.27547-1.70649-4.39919-3.56157-6.37891-5.53907-1.48474-1.4831-2.88883-3.03356-4.21289-4.64453-32e-5-39e-5 32e-5-.002.0-.002-.88236-1.07361-1.73017-2.17428-2.54297-3.29688-1.21965-1.68451-2.3626-3.41998-3.42969-5.19726-.3557-.59243-.7019-1.18984-1.04101-1.79102-.67821-1.20234-1.32458-2.42164-1.9375-3.65429-.30621-.61581-.60435-1.23523-.89453-1.85743-25e-5-53e-5 25e-5-.001.0-.002-.29017-.62219-.57334-1.24719-.84766-1.875-24e-5-55e-5 24e-5-.001.0-.002-.2743-.62781-.54215-1.25798-.80078-1.89063-23e-5-56e-5 23e-5-.001.0-.002-.34123-.83473-.6684-1.67231-.98242-2.51563-.62805-1.68663-1.20141-3.38834-1.72266-5.10156-18e-5-6e-4 18e-5-.001.0-.002-1.30295-4.28236-2.27655-8.6318-2.94141-12.9668-9e-5-64e-5 1e-4-.001.0-.002-.26578-1.73366-.48198-3.4655-.65039-5.18945-.50549-5.1736-.57931-10.2802-.25586-15.17969.0539-.81597.11961-1.62781.19532-2.43164 6e-5-65e-5-6e-5-.001.0-.002.0758-.80446.16246-1.60155.25976-2.39257.27577-2.24205.64044-4.42306 1.08399-6.53711.0259-.12336.0478-.25018.0742-.37305 13e-5-63e-5-14e-5-.001.0-.002.037-.1721.081-.33865.11914-.50977.29088-1.30554.60762-2.58913.96093-3.83398.20007-.70493.40929-1.39837.62891-2.08203.21924-.68253.44911-1.35363.6875-2.01368 21e-5-57e-5-21e-5-.001.0-.002.2384-.66002.48692-1.30906.74414-1.94531 23e-5-56e-5-23e-5-.001.0-.002.25746-.63679.5248-1.25943.80078-1.8711.27622-.6122.56104-1.21113.85547-1.79687.15582-.31002.32157-.60588.48242-.90821.1429-.26855.28091-.54429.42774-.80664.31173-.55706.63172-1.09884.96093-1.62695 3e-4-47e-5-29e-5-.001.0-.002.21675-.34767.44377-.67902.66797-1.01368.11675-.17423.22891-.35671.34766-.52734.3464-.49782.70124-.97903 1.06445-1.44531 32e-5-4e-4-31e-5-.002.0-.002.53091-.6815 1.07086-1.34716 1.61719-1.99805 32e-5-38e-5-32e-5-.002.0-.002.54666-.65126 1.10051-1.28611 1.66211-1.90821.56194-.62245 1.13062-1.23143 1.70703-1.82617.28835-.29754.58508-.58021.87695-.87109.57227-.57028 1.1489-1.13005 1.73438-1.67579 2.69525-2.51256 5.52331-4.78016 8.4707-6.85546.65242-.45935 1.31121-.90957 1.97461-1.35157 1.32668-.88397 2.67335-1.73515 4.04102-2.55859 2.73533-1.64688 5.55021-3.18452 8.42578-4.66016z"/><path class="shadow" id="path28861" d="m355.82422 229.79102c2.12849 1.93856 4.5522 3.77191 7.11133 5.58593-2.57289-1.81335-4.98018-3.64807-7.11133-5.58593zm7.83984 6.0996c18.47047 12.91346 44.95577 25.11141 44.64649 65.97852-.21121 27.90762-21.01586 78.78093-79.80274 90.11133-36.46257 7.02768-80.70345-1.70033-106.76562-38.45899-.0364.0819-.071.15626-.10742.23829 23.24709 36.21942 70.83883 46.37514 107.31054 39.3457 58.78688-11.3304 79.65403-63.32871 79.86524-91.23633.3093-40.87071-26.56289-53.0638-45.14649-65.97852z"/><path d="m343.47462 221.71678c-22.49552 14.33843-49.65228 32.72061-74.41016 46.95312-12.37893 7.11626-24.15983 13.19453-34.43164 17.20703-10.27181 4.0125-19.04238 5.92777-25.2832 4.86719-6.76869-1.15029-13.98899-4.30031-19.4707-9.29687-5.48172-4.99656-9.23756-11.79896-9.21485-20.4043l-1.51172-.004c-.0239 9.05002 3.97197 16.29791 9.70704 21.52539 5.73506 5.22749 13.19477 8.47326 20.23632 9.66993 6.75826 1.14851 15.69924-.89108 26.08789-4.94922 10.38865-4.05815 22.21912-10.16733 34.63477-17.30469 24.19929-13.9114 50.61579-31.73167 72.73933-45.88401 2.06008-1.19407 3.73496-1.19548 6.09815.61973 2.83552 2.98876 5.50885 5.54611 8.12886 7.63373 2.3494 1.872 5.54173 4.51231 14.52389 8.65594-5.92678-4.10643-13.7962-8.79656-22.85351-18.71484-1.59353-1.10737-3.52003-1.1333-4.98047-.57413z" id="path29370" class="bra_accent"/><g id="g29103-7-0" style="display:inline;filter:url(#filter29391)" clip-path="url(#clipPath29585)"><path class="bra_primary_shade" id="path29091-5-4" d="m239.26333 339.92999c30.72216.34819 82.24659-11.08279 118.27734-33.60666 45.44916-28.41159 60.44911-59.74461 68.03225-65.23784l6.64613 133.26763c-17.52783 22.83845-27.12211 49.49675-93.44816 48.83976-76.79021 2.89607-87.83556 3.7556-153.62617 3.97363-64.24294-1.75727-75.67742-53.76683-76.52021-73.56799l3.22292-41.43929c30.57864 20.08577 88.72594 26.78302 127.4159 27.77076z"/><path d="m114.47805 272.14327c5.64274 22.31633 52.77007 48.20439 101.35733 47.08921 51.49145-1.18187 111.42544 1.88493 200.47385-85.76303l-11.33982-32.89142-103.9305 37.52606-154.52968 3.97363z" id="path29097-0-2-5" class="bra_primary_highlight"/><path d="m239.26333 366.09294c30.72216.34819 82.24659-11.08279 118.27734-33.60666 45.44916-28.41159 60.44911-59.74461 68.03225-65.23784l6.64613 133.26763c-17.52783 22.83845-27.12211 49.49675-93.44816 48.83976-76.79021 2.89607-87.83556 3.7556-153.62617 3.97363-64.24294-1.75727-75.67742-53.76683-76.52021-73.56799l3.22292-41.43929c30.57864 20.08577 88.72594 26.78302 127.4159 27.77076z" id="path29375" class="bra_primary_shade"/><path class="bra_primary_shade" id="path29377" d="m239.26333 385.89193c30.72216.34819 82.24659-11.08279 118.27734-33.60666 45.44916-28.41159 60.44911-59.74461 68.03225-65.23784l6.64613 133.26763c-17.52783 22.83845-27.12211 49.49675-93.44816 48.83976-76.79021 2.89607-87.83556 3.7556-153.62617 3.97363-64.24294-1.75727-75.67742-53.76683-76.52021-73.56799l3.22292-41.43929c30.57864 20.08577 88.72594 26.78302 127.4159 27.77076z"/><path d="m239.26333 404.98381c30.72216.34819 82.24659-11.08279 118.27734-33.60666 45.44916-28.41159 60.44911-59.74461 68.03225-65.23784l6.64613 133.26763c-17.52783 22.83845-27.12211 49.49675-93.44816 48.83976-76.79021 2.89607-87.83556 3.7556-153.62617 3.97363-64.24294-1.75727-75.67742-53.76683-76.52021-73.56799l3.22292-41.43929c30.57864 20.08577 88.72594 26.78302 127.4159 27.77076z" id="path29379" class="bra_primary_shade"/><path class="bra_primary_highlight" id="path29383" d="m114.47805 253.75849c5.64274 22.31633 52.77007 48.20439 101.35733 47.08921 51.49145-1.18187 111.42544 1.88493 200.47385-85.76303l-11.33982-32.89142-103.9305 37.52606-154.52968 3.97363z"/><path d="m114.47805 238.90925c5.64274 22.31633 52.77007 48.20439 101.35733 47.08921 51.49145-1.18187 111.42544 1.88493 200.47385-85.76303l-11.33982-32.89142-103.9305 37.52606-154.52968 3.97363z" id="path29385" class="bra_primary_highlight"/></g></g><g clip-path="url(#clipPath13613)" id="g28879"><g style="display:inline" data-transform="boob_outfit" id="g28877"><path d="m347.18211 168.95467c-4.25979 7.66354-.58913 51.62132-6.14514 54.39315 2.27434-.7607 6.03723-.65285 8.855.60024-2.50441-2.80335-.1766-49.9731 2.00288-54.85501z" id="path28865" class="bra_accent bra_strap2"/><path class="bra_accent bra_strap1" id="path28867" d="m352.20063 169.25198c-10.08637 23.6447-5.64804 50.57658-11.18552 54.12031 3.07827-.88626 6.16169-.4119 8.94236.65727-2.9295-3.02393 3.35718-46.68199 5.40378-54.70048z"/><path class="bra_accent bra_strap3" id="path28869" d="m341.41002 168.92913c-3.49006 32.35902 4.24925 51.20672-.37267 54.42277 3.30941-.7794 7.08972.21411 9.09271.82278-3.76948-3.73502-5.22279-29.51137-3.96659-55.21946z"/><path class="bra_accent bra_strap2" id="path28871" d="m287.67466 180.26839c-4.71063 5.73681-44.84836 41.98014-60.36147 54.38633 1.53851-.47682 2.94276-2.12681 4.10378-2.64863 5.50143-3.88712 23.61964-19.80202 29.63396-24.90648 13.25314-11.24818 27.3085-23.42965 28.33126-25.72057z"/><path d="m286.84476 176.96635c-5.44137 6.32763-46.71364 46.85915-59.16361 57.53877 1.02367-.44221 3.34365-2.50942 4.48754-2.95163 4.77591-3.79982 21.13228-17.81923 26.45543-22.79762 10.26542-9.60058 28.60389-27.97941 30.51076-31.2437z" id="path28873" class="bra_accent bra_strap1"/><path d="m288.20455 181.66277c-7.09029 5.87744-40.41453 38.83725-58.65481 51.58024l6.23316-4.26737c5.79728-4.00338 19.75752-15.0334 26.14532-20.65934 10.51392-9.25994 19.83991-18.95198 27.23463-25.75844z" id="path28875" class="bra_accent bra_strap3"/></g></g></svg>