<svg viewBox="0 0 560 1e3"><defs><filter style="color-interpolation-filters:sRGB" id="filter78301"><feGaussianBlur stdDeviation="2 2" result="blur" id="feGaussianBlur78299"/></filter><filter style="color-interpolation-filters:sRGB" id="filter78415"><feGaussianBlur stdDeviation="2 2" result="blur" id="feGaussianBlur78413"/></filter><clipPath clipPathUnits="userSpaceOnUse" id="clipPath37164"><path id="path37166" d="m364.63835 386.10502c-.15123.002-.28945.0292-.41564.0807-1.12611.45995-2.13732.89201-2.98386 1.29035 2.73421 9.0066 13.09164 27.88346 21.47496 47.96885 8.3477 20.00004 14.97328 41.5009 16.18603 56.04915 2.45333-1.53329 8.24731-3.77135 13.65958-6.3154 5.44573-2.55978 10.40473-5.37789 11.78596-8.11921-.55506 1.10162-3.69754-4.05971-8.13785-12.34066-4.44687-8.29318-10.20074-19.73776-16.71736-31.36002-6.73445-12.01079-13.64874-23.04526-20.47338-32.36442-6.53695-8.9263-12.02225-14.92258-14.37844-14.88933v2e-5zm-22.36028 10.09692c-.52133-.0211-1.05447.0134-1.60229.11087 3.83855 8.21816 10.79781 26.03734 15.5452 45.88228 5.19046 21.697 7.00764 41.82282 7.60056 64.7679 11.96365-2.94913 23.37547-7.67723 35.10761-10.23138-2.54428.5539-10.4292 2.31349-18.42103-1.70961-8.27282-4.16456-15.55358-13.60325-19.25318-36.27741-.44724-3.27534-.56323-18.60206-3.26461-33.35221-1.3504-7.37355-3.28061-14.5939-5.85994-20.00628-2.57995-5.41365-5.80989-9.02049-9.85232-9.18416zm-18.31668 6.48732c-3.67282 1.04015-11.00477 3.08523-11.00477 3.08523.36554 1.61112 2.25977 10.95637 3.89213 20.50597 1.87756 10.98406 3.48102 22.5614 4.37889 35.84862.8768 12.97554.88597 24.80061.92218 34.99413.0475 13.36035.13876 13.67183.24669 19.22196 5.88516-1.71571 12.54806-3.98003 20.82368-6.56819 1.79056-.55999 2.90502-.72106 3.86661-.74111-.14544.003-.28786.001-.44237.0122-3.58977.4204-5.90147-4.92887-7.40526-13.38851-1.50868-8.48711-2.20686-20.03263-3.31795-32.32517-1.16563-12.89602-2.61828-24.62176-4.86915-36.29317-2.10978-10.93983-4.62507-20.17582-7.09069-24.35202.0-1e-5 1e-5 1e-5 1e-5 1e-5zm-112.14611 6.67932c.54611 3.44699-.60442 3.18108-1.24307 4.85821-1.05209 2.76278-1.18141 7.8775-1.17869 14.68386.003 7.06545.10187 14.57422-.61416 23.41148-.72126 8.90172-2.10165 16.94328-4.11659 25.55452-1.92437 8.2242-4.13544 15.86886-5.69527 22.10397 7.04888 2.68842 22.08867 8.24316 22.08867 8.24316 1.14904-7.60268 3.60939-18.85072 4.86613-25.34122 1.57454-8.13172 2.72262-15.38371 3.44682-23.09788 1.49615-15.93676.79111-29.02926-.46534-46.42879-3.84106-1.18473-12.2205-3.15925-17.0885-3.98731zm85.49662.63715c-4.87775 1.06289-14.54538 3.1625-14.54538 3.1625 1.05956 6.43848 2.71685 14.71855 3.77642 21.15703 1.62163 9.74891 2.91258 19.55671 3.65977 30.8193.74249 11.19193.77381 21.05559.87703 30.75934.10676 10.03681.30733 16.36948.82932 22.02353-5.00286.23534-15.00982.67509-15.00982.67509.26706.60601.7796 1.79521.7796 1.79521 3.74902.94172 22.02296-.84668 31.23358-3.2825-.76271.19775-1.49274.35827-2.19094.4845-2.79924-14.92591-1.71043-32.82268-2.24812-52.18849-.55507-19.99172-2.80533-38.06691-7.16146-55.40551zm-20.41266 108.59679c-4.17625-.0353-8.9904.10354-13.38057.18326 5.72796-.009 9.16817-.21893 13.38057-.18326zm-37.44231-104.0998c-.19404-.0434.67467 5.67259 1.66835 14.3616 1.05385 9.21509 1.90971 19.79578 1.47911 32.06173-.43394 12.36107-2.03564 23.07238-3.58837 33.46967-1.46429 9.80509-2.34011 17.56913-2.66543 20.73604-.25653-.0496-.54594-.11659-.81937-.17473 10.76999 2.69906 22.96488 5.53906 27.29052 7.36804-.0247-1.16837-.0554-3.52366-.0554-3.52366-4.32586-.0142-7.51206-.10619-10.34925-.34219-.20368-14.8561 1.76206-33.89736 1.68713-52.79371-.0749-18.89636-2.65368-37.76651-1.43988-50.35859-.81059.10969-12.40301-.6243-13.20739-.8042zm168.9566 11.32182c2.06416 3.91659 4.00197 8.11553 6.27616 14.71387 2.41713 7.01308 4.76476 15.30521 8.48652 29.49834 2.76404-2.63258 4.01943-4.08893 4.54421-4.4879-.0341-.0749-3.04787-6.56019-6.19978-13.23484-3.46622-7.34028-8.03467-16.89804-13.10711-26.48947zm-45.43024 81.34458c-.38733.0925-.77448.18382-1.16311.27228.38837-.0884.77603-.17985 1.16311-.27228zm-2.74234.61658c-.38756.082-.77519.1658-1.16421.24315.38926-.0774.77642-.16115 1.16421-.24315zm-3.06244.59547c-.28567.0505-.56985.10595-.85642.15376.28665-.0478.57066-.10316.85642-.15376zm-9.8338.64659c-.0255-12e-5-.0538.002-.0793.002.2979-95e-5.58443.01.87277.0274-.26102-.016-.52563-.0283-.79344-.0294l-1e-5-1e-4zm1.1274.0521c.23038.0164.46172.031.71131.047-.24956-.0161-.48081-.0306-.71131-.047zm3.36035.0407c-.11656.008-.22882.0142-.33918.0198.11112-.006.22181-.012.33918-.0198zm-2.28918.0211c.36829.0188.78459.0234 1.24071.0172-.45341.006-.87419.001-1.24071-.0172zm-128.14493 1.91564c1.66814.56818 3.88236 1.20173 6.28299 1.85676-2.22293-.64019-4.41708-1.29626-6.28299-1.85676zm98.14838 5.26838c-3.13008.059-6.83091.33843-8.71712.5768.26701.63106.55079 1.24247.9283 2.00479 3.36806-.57487 6.84182-1.45503 10.62676-2.55818-.82603-.0384-1.79901-.043-2.83794-.0234v1e-5z" style="display:inline;fill-opacity:.5;fill:#80aab6"/></clipPath><clipPath clipPathUnits="userSpaceOnUse" id="clipPath37168"><path id="path37170" d="m368.6745 366.51952c-6.26493 2.96572-12.94498 6.05722-19.56316 8.88359-4.3107 1.84096-8.6906 3.64062-13.11491 5.37241-4.42506 1.73208-8.90723 3.4011-13.42759 4.9824-4.52101 1.58154-9.0906 3.0788-13.69645 4.46717-4.60654 1.38856-9.25424 2.6703-13.94297 3.82289-4.68913 1.15269-9.42309 2.17702-14.19888 3.05072-4.77614.87378-9.59681 1.59652-14.47044 2.14818-2.65464.30049-5.33128.5062-8.03413.6245-2.7028.11828-5.43121.15002-8.18935.10601-5.51588-.0881-11.15153-.48089-16.91787-1.09867-5.76513-.61764-11.66376-1.46084-17.69493-2.44702-2.23336-.36518-3.96396-.67772-6.2369-1.07873.65388 3.59352 2.06664 10.4679 2.62857 14.01473 4.86804.82806 13.24654 2.80248 17.08762 3.98722 1.25651 17.39968 1.96184 30.49197.46596 46.42895-.72407 7.71419-1.87204 14.96625-3.44648 23.09798-1.25658 6.49003-3.71704 17.73908-4.86603 25.34126.11541.95313.34193 2.83473.34193 2.83473 4.46774 1.34206 10.854 3.281 14.95219 4.07309.32535-3.16691 1.20118-10.93093 2.66543-20.73599 1.55268-10.39725 3.15429-21.10854 3.58812-33.46957.43049-12.26591-.42546-22.84659-1.47938-32.06165-.99374-8.68898-1.8625-14.40495-1.66845-14.36155.80437.1799 12.39666.91391 13.20724.80419-1.21378 12.59209 1.36514 31.46251 1.44012 50.35911.075 18.8966-1.89078 37.93809-1.68704 52.7942 2.83768.23605 6.02546.32752 10.35244.34168 4.5786-.0761 9.72114-.23656 14.12917-.19923 5.00601-.21462 15.01038-.67438 15.01038-.67438-.52199-5.6539-.72251-11.98684-.82913-22.02346-.10309-9.70374-.13423-19.56731-.87652-30.7592-.74697-11.26253-2.03772-21.07029-3.65916-30.81915-1.17457-7.06202-2.60154-14.09493-3.7761-21.15696 4.81487-1.046 14.54424-3.16291 14.54424-3.16291 4.35611 17.33857 6.6063 35.41374 7.1613 55.40539.53762 19.36573-.55123 37.26247 2.24802 52.18837.69819-.12623 1.42772-.28765 2.19042-.4854.86683-.22924 1.37745-.204 1.91866-.21269 2.51401-.31771 8.25394-.70753 11.56671-.55217-.10788-5.55392-.19933-5.85088-.247-19.21769-.0363-10.19289-.0455-22.01952-.92224-34.99575-.89788-13.28862-2.50146-24.86689-4.3794-35.85255-1.63261-9.55055-3.52734-18.89761-3.89284-20.50853 3.66642-1.01811 11.0054-3.08498 11.0054-3.08498 2.46562 4.17621 4.98099 13.41219 7.09087 24.35202 2.25099 11.67142 3.70374 23.39712 4.86949 36.29316 1.1112 12.29255 1.8095 23.83802 3.31828 32.32516 1.5039 8.45964 3.81567 13.80891 7.40543 13.38852 1.9567-.13463 3.0449.40866 6.85226-.0904 3.50563-.45952 6.93828-1.15138 10.32418-1.98597-.59261-22.94635-2.4093-43.07369-7.59993-64.77263-4.74758-19.8468-11.70758-37.66756-15.54647-45.88644 4.38933-.77803 7.89438 2.34248 10.68849 7.55262 2.79167 5.2056 4.88839 12.52229 6.35837 20.10094 2.94237 15.16975 3.071 31.39664 3.53266 34.77764 3.69959 22.67414 10.98067 32.11264 19.25378 36.27695 7.99213 4.02287 15.87733 2.26306 18.42161 1.70915 1.04979-1.89983-.95686-5.37303-.0294-5.23647-1.21275-14.54821-7.83876-36.04929-16.18691-56.04944-8.38378-20.08553-18.74179-38.96253-21.47601-47.96914.84653-.39833 1.8579-.82987 2.984-1.28981 2.00088-.81723 7.32599 4.76924 13.86862 13.5547 6.81679 9.15362 13.90042 20.32564 20.77701 32.51125 6.66755 11.81517 12.56687 23.54393 17.12767 32.0698 4.55337 8.51197 7.78619 13.85827 8.35073 12.73784-.32444-2.69504.0427-4.19946-1.16961-7.02275-3.73437-14.24122-6.08649-22.54562-8.50965-29.56652-2.27935-6.60423-4.22198-10.80127-6.29518-14.72788-5.10582-9.64954-10.31757-18.57103-15.38193-26.24675-4.88491-7.40372-9.0873-12.80161-11.13024-14.03585-5.26619-3.18157-5.9554-5.07082-6.45195-6.14047-2.27436-4.23539-4.58877-8.58751-6.73276-12.79979z" clip-path="none" style="display:inline;fill-opacity:.5;fill:#80122f"/></clipPath></defs><path id="path35348" d="m368.6745 366.51952c-6.26493 2.96572-12.94498 6.05722-19.56316 8.88359-4.3107 1.84096-8.6906 3.64062-13.11491 5.37241-4.42506 1.73208-8.90723 3.4011-13.42759 4.9824-4.52101 1.58154-9.0906 3.0788-13.69645 4.46717-4.60654 1.38856-9.25424 2.6703-13.94297 3.82289-4.68913 1.15269-9.42309 2.17702-14.19888 3.05072-4.77614.87378-9.59681 1.59652-14.47044 2.14818-2.65464.30049-5.33128.5062-8.03413.6245-2.7028.11828-5.43121.15002-8.18935.10601-5.51588-.0881-11.15153-.48089-16.91787-1.09867-5.76513-.61764-11.66376-1.46084-17.69493-2.44702-2.23336-.36518-3.96396-.67772-6.2369-1.07873.65388 3.59352 2.06664 10.4679 2.62857 14.01473.54611 3.44699-.60533 3.18099-1.24398 4.85811-1.05208 2.76278-1.18133 7.87755-1.17852 14.68398.003 7.06551.10208 14.57437-.61385 23.41172-.72115 8.90181-2.10148 16.94345-4.11636 25.55474-1.92432 8.22427-4.13537 15.86897-5.6952 22.10407 7.04899 2.6883 22.08898 8.24279 22.08898 8.24279.11541.95313.34193 2.83473.34193 2.83473 9.73706 3.31647 34.89601 8.50654 41.42338 11.26648-.0251-1.17139-.0563-3.53266-.0563-3.53266 6.23346.012 9.72353-.22693 14.13279-.18959.26725.60625.78017 1.79592.78017 1.79592 3.749.94172 22.02263-.8478 31.23328-3.28362.86683-.22924 1.37745-.20399 1.91866-.21269.26703.63109.54928 1.24309.92681 2.00546 8.53795-1.45728 17.90737-4.89126 31.46225-9.13048 4.94841-1.54758 4.78277-.0979 10.27791-.8182 15.89433-2.08336 30.37925-8.95051 45.43268-12.22774 1.0498-1.89983-.95685-5.37303-.0294-5.23647 2.45333-1.53329 8.2472-3.7714 13.65936-6.31549 5.44561-2.55983 10.40451-5.378 11.78574-8.11931-.32444-2.69503.0428-4.19946-1.16961-7.02275 2.76404-2.63258 4.01883-4.08961 4.54361-4.48858-.0441-.0969-2.98634-6.42812-6.09522-13.01494-3.40039-7.20444-7.91406-16.65897-12.90569-26.13268-5.14865-9.77175-10.41018-18.81832-15.55775-26.64428-4.958-7.53776-9.23566-13.04817-11.30196-14.29652-5.26619-3.18157-5.9554-5.07082-6.45194-6.14047-2.27436-4.23537-4.58876-8.58745-6.73276-12.79971z" class="bottoms_primary"/><g id="g35392" style="filter:url(#filter78301)" clip-path="url(#clipPath37168)"><g style="display:inline" id="g35360"><path id="path35350" d="m297.09173 519.92023c-.94256-10.39719-.97798-19.55581-1.4178-32.63877-.42877-12.75434-1.17272-23.78698-2.97683-36.22793-1.70343-11.74671-4.02061-22.19326-5.86592-30.03766-1.82278-7.74864-3.04149-12.53467-3.04149-12.53467-6.65173.35372-19.63269 1.02388-19.63269 1.02388-1.26427 14.34983 1.53663 33.18149 2.09361 52.77374.55697 19.59224-1.63235 39.87778-.80433 59.38564 1.91631-.10588 29.72913-1.63834 31.64545-1.74423z" class="bottoms_primary_highlight"/><path id="path35352" d="m297.09173 519.92023c-.851-10.38303-.80444-19.57023-1.1218-32.64037-.30986-12.76109-.94761-23.78481-2.62516-36.23255-1.58249-11.74242-3.78576-22.20052-5.53847-30.03899-1.73246-7.74797-2.89142-12.53378-2.89142-12.53378-5.03126.34314-14.93385.99414-14.93385.99414 1.89257 9.73082 4.21226 21.48984 5.70177 33.93754 1.56022 13.0386 1.94413 24.35284 1.73372 36.4539-.19861 11.42275-.78372 21.63344-.87991 29.07994-.0962 7.44686.19363 12.10486.19363 12.10486 1.0556-.0584 19.30588-1.0663 20.36149-1.12469z" class="bottoms_primary_highlight"/><path id="path35354" d="m297.09173 519.92023c-.69551-10.35943-.50797-19.59429-.61713-32.6431-.10685-12.77279-.56387-23.78091-2.02516-36.24041-1.3763-11.73477-3.38465-22.21327-4.97957-30.04125-1.57839-7.74684-2.63549-12.53229-2.63549-12.53229-2.28875.3257-6.85849.94411-6.85849.94411 1.53465 9.62628 3.46692 21.38281 4.62917 33.72658 1.22161 12.97425 1.40059 24.23037 1.00051 36.29027-.32799 9.88689-1.02147 19.07436-1.34946 28.96125-.23927 7.41136-.0749 12.04051-.0749 12.04051 1.70641-.0668 11.2041-.43882 12.91052-.50567z" class="bottoms_primary_highlight"/><path id="path35356" d="m297.09173 519.92023c-.69551-10.35943-.50797-19.59429-.61713-32.6431-.10685-12.77279-.56387-23.78091-2.02516-36.24041-1.3763-11.73477-3.38465-22.21327-4.97957-30.04125-1.57839-7.74684-2.63549-12.53229-2.63549-12.53229-2.28875.3257-6.85849.94411-6.85849.94411 2.03008 9.70329 4.50234 21.39738 6.22384 33.82266 1.79986 12.99085 2.46542 24.31812 2.59133 36.40058.10114 9.70616-.19206 19.3677-.0909 29.07385.0761 7.44269.42351 12.09129.42351 12.09129.11143-.0123 7.85665-.86318 7.96808-.87544z" class="bottoms_primary_highlight"/><path id="path35358" d="m297.09173 519.92023c-.69551-10.35943-.50797-19.59429-.61713-32.6431-.10685-12.77279-.56387-23.78091-2.02516-36.24041-1.3763-11.73477-3.38465-22.21327-4.97957-30.04125-1.57839-7.74684-2.63549-12.53229-2.63549-12.53229-2.28875.3257-6.85849.94411-6.85849.94411 2.03008 9.70329 4.50234 21.39738 6.22384 33.82266 1.79986 12.99085 2.46542 24.31812 2.59133 36.40058.10114 9.70616-.19206 19.3677-.0909 29.07385.0761 7.44269.42351 12.09129.42351 12.09129.11143-.0123 7.85665-.86318 7.96808-.87544z" class="bottoms_primary_highlight"/></g><g style="display:inline" id="g35372"><path id="path35362" d="m328.0813 516.08103c-.45389-9.31385-.47103-20.82472-.79049-32.94468-.33887-12.85678-1.03701-24.1378-2.56017-36.63852-1.43242-11.75601-3.36453-22.45609-4.81622-30.22816-1.45163-7.77176-2.3825-12.56472-2.3825-12.56472-4.54635 1.10166-13.57602 3.26542-13.57602 3.26542 2.03789 9.44609 4.24581 21.57753 5.69928 34.09208 1.54554 13.30726 2.02579 24.79475 2.16977 37.17034.14371 12.35294-.0105 21.20022.63338 29.15495.58525 7.23056 1.74246 11.31352 3.28882 10.31272.72963-.0959 11.60452-1.52351 12.33415-1.61943z" class="bottoms_primary_highlight"/><path id="path35364" d="m326.81612 516.0818c-.46648-9.31257-.49325-20.82024-.82675-32.93732-.35378-12.85384-1.06991-24.13276-2.62106-36.63341-1.45858-11.75467-3.42155-22.45862-4.89531-30.2309-1.47394-7.77328-2.41854-12.56721-2.41854-12.56721-1.52838.31836-4.6183.92444-4.6183.92444 1.74094 9.57388 4.04143 21.60049 5.734 33.9767 1.78914 13.08243 2.65439 24.55675 3.01727 36.77876.28746 9.68144.25425 23.75886.31299 29.39751.0782 7.50493.29363 12.16728.29363 12.16728.18545-.027 5.83662-.84886 6.02207-.87585z" class="bottoms_primary_highlight"/><path id="path35366" d="m326.81612 516.0818c-.46648-9.31257-.49325-20.82024-.82675-32.93732-.35378-12.85384-1.06991-24.13276-2.62106-36.63341-1.45858-11.75467-3.42155-22.45862-4.89531-30.2309-1.47394-7.77328-2.41854-12.56721-2.41854-12.56721-1.52838.31836-4.6183.92444-4.6183.92444 1.74094 9.57388 4.04143 21.60049 5.734 33.9767 1.78914 13.08243 2.65439 24.55675 3.01727 36.77876.28746 9.68144.25425 23.75886.31299 29.39751.0782 7.50493.29363 12.16728.29363 12.16728.18545-.027 5.83662-.84886 6.02207-.87585z" class="bottoms_primary_highlight"/><path id="path35368" d="m326.81612 516.0818c-.46648-9.31257-.49325-20.82024-.82675-32.93732-.35378-12.85384-1.06991-24.13276-2.62106-36.63341-1.45858-11.75467-3.42155-22.45862-4.89531-30.2309-1.47394-7.77328-2.41854-12.56721-2.41854-12.56721-1.23813.27435-3.74926.79247-3.74926.79247 1.77481 9.58685 4.11486 21.61794 5.85053 34.01125 1.83398 13.09521 2.74024 24.58581 3.14815 36.82188.32414 9.7232.3419 23.7602.42083 29.43571.10452 7.51468.33401 12.18273.33401 12.18273.0891-.0164 4.66833-.85879 4.7574-.8752z" class="bottoms_primary_highlight"/><path id="path35370" d="m326.81612 516.0818c-.46648-9.31257-.49325-20.82024-.82675-32.93732-.35378-12.85384-1.06991-24.13276-2.62106-36.63341-1.45858-11.75467-3.42155-22.45862-4.89531-30.2309-1.47394-7.77328-2.41854-12.56721-2.41854-12.56721-.55926.18584-1.71527.52698-1.71527.52698 1.68027 9.55372 3.91937 21.61077 5.56072 33.97236 1.73735 13.08454 2.57564 24.5641 2.91578 36.79317.27384 9.84543.20923 23.61389.25363 29.41189.0575 7.50707.25152 12.16878.25152 12.16878.0725-.0105 3.42276-.49387 3.49528-.50434z" class="bottoms_primary_highlight"/></g><g style="display:inline" id="g35378"><path id="path35374" d="m227.78651 516.37163c.80472-9.70834 2.78118-18.51665 4.95848-30.76791 2.14444-12.06633 3.44429-22.50446 3.57539-34.40639.12332-11.19594-.86975-21.28225-1.75675-28.79984-.87915-7.45103-1.5609-12.06186-1.5609-12.06186-2.83623-.39708-8.45868-1.21633-8.45868-1.21633 1.01147 9.23371 2.28689 20.65566 2.34638 32.45267.0626 12.41158-1.18624 23.21411-3.50971 34.60788-2.19836 10.78022-4.89124 20.3469-6.48864 27.31253-1.59748 6.96599-2.19632 11.31329-2.19632 11.31329-1.03716-.12393 14.12791 1.68989 13.09075 1.56596z" class="bottoms_primary_highlight"/><path id="path35376" d="m222.63706 513.93877c1.29824-9.60752 3.52398-17.89613 6.04095-30.03199 2.43989-11.76424 3.93512-22.06381 4.30999-33.68073.35291-10.93639-.4085-20.86703-1.10357-28.19713-.69146-7.29195-1.24533-11.80448-1.24533-11.80448-2.03084-.3591-6.09505-1.10514-6.09505-1.10514 1.01147 9.23371 2.28689 20.65566 2.34638 32.45267.0626 12.41158-1.18624 23.21411-3.50971 34.60788-2.19836 10.78022-4.89124 20.3469-6.48864 27.31253-1.59748 6.96599-2.19632 11.31329-2.19632 11.31329.0235-.003 7.91778-.86433 7.9413-.8669z" class="bottoms_primary_highlight"/></g><g id="g35384"><path id="path35380" d="m359.23261 510.26662c-3.67618 1.1018-6.39634-2.93626-8.4336-10.14606-2.08713-7.38628-3.31669-17.40357-4.84036-29.27799-1.59791-12.4531-3.19945-24.01959-5.99995-37.34789-2.62959-12.51494-5.96427-24.66061-9.34592-34.02051 13.89235-5.61172 3.58284-1.44667 17.47519-7.05839 5.81632-2.35152 10.4232-4.22623 10.4232-4.22623 3.7358 9.52105 8.19661 19.57449 12.40363 29.69163 4.3195 10.38762 8.06393 20.03071 11.44226 30.15873 6.46545 19.38302 10.82303 38.52874 11.39277 52.52038-11.27761 3.22903-23.05618 6.51525-34.51722 9.70633z" class="bottoms_primary_highlight"/><path id="path35382" d="m365.56281 508.33497c-3.42424.27467-6.04274-4.23308-8.1065-11.68016-2.10477-7.59505-3.52423-17.69439-5.28098-29.46386-1.84778-12.37929-3.6873-23.76673-6.6401-36.92742-2.76524-12.32476-6.13702-24.357-9.38126-33.68624 1.625-.3755 4.82308-1.15453 4.82308-1.15453 8.72413 20.10108 14.10322 39.1908 17.89222 59.62955 3.61355 19.49231 5.35716 37.54661 8.92436 51.35702.0958-.0826-2.32656 2.00821-2.23082 1.92564z" class="bottoms_primary_highlight"/></g><g id="g35390"><path id="path35386" d="m424.19573 479.69206c-6.29983-21.83494-12.74581-39.46725-21.42949-55.7448-8.69202-16.29316-18.77924-29.63244-30.31364-42.71274 4.19357-.63026 12.13142-1.89227 12.13142-1.89227 11.49402 11.36003 21.23225 23.3676 28.69328 39.27624 7.32754 15.624 12.36483 34.9796 15.28628 59.79189-1.44303.4278-2.8995.85507-4.36785 1.28168z" class="bottoms_primary_highlight"/><path id="path35388" d="m426.38554 479.75838c-6.37818-21.87658-12.423-39.76445-20.62457-56.38229-8.17649-16.56703-17.74107-30.28443-29.0487-43.31691 2.69773-.23112 7.87175-.71693 7.87175-.71693 11.49402 11.36003 21.23225 23.3676 28.69328 39.27624 7.32754 15.624 12.36483 34.9796 15.28628 59.79189-.72155.44961-1.44765.89895-2.17804 1.348z" class="bottoms_primary_highlight"/></g></g><path id="path35396" d="m368.67661 366.51888c-6.2624 2.96455-12.94966 6.05895-19.56527 8.88423-4.3107 1.84096-8.6906 3.64062-13.11491 5.37241-4.42506 1.73208-8.90723 3.4011-13.42759 4.9824-4.52101 1.58154-9.0906 3.0788-13.69645 4.46717-4.60654 1.38856-9.25424 2.6703-13.94297 3.82289-4.68913 1.15269-9.42309 2.17702-14.19888 3.05072-4.77614.87378-9.59681 1.59652-14.47044 2.14818-2.65464.30049-5.33128.5062-8.03413.6245-2.7028.11828-5.43121.15002-8.18935.10601-5.51588-.0881-11.15153-.48089-16.91787-1.09867-5.76513-.61764-11.66376-1.46084-17.69493-2.44702-1.93909-.31707-4.25879-.72144-6.25071-1.07705.87384 5.04274 1.91916 9.13648 2.76259 15.13122 19.57632 3.63928 41.12546 6.38323 60.41704 4.11387 17.65007-2.0622 36.38174-7.02135 54.3092-13.20455 17.99125-6.20521 35.10978-13.62348 49.37497-20.74293-2.48109-4.66494-5.02958-9.4952-7.3603-14.13338z" class="bottoms_accent"/><g id="g35446" style="filter:url(#filter78415)" clip-path="url(#clipPath37164)"><g transform="translate(220.8719,-12.948485)" id="g35404"><g id="g35402"><path id="path35398" d="m136.75747 399.01852c1.24183-.33242 3.66931-1.02447 3.66931-1.02447 9.13158 10.71064 16.58861 21.99426 22.84659 33.37472 6.25507 11.37517 10.96092 22.17967 15.18479 32.00086 8.34632 19.40655 14.52273 33.70259 22.79651 34.0616-13.85097 5.01032-22.07989 15.23681-32.65018 6.8699-7.99011-34.79658-18.91721-69.83558-31.84702-105.28261z" class="bottoms_primary_shade"/><path id="path35400" d="m136.75747 399.01852c6.8722 6.64964 12.93141 15.91637 18.15874 26.06718 5.33005 10.35029 9.56932 21.12997 13.54252 31.85129 7.85224 21.18859 13.94312 39.87212 24.07082 44.7995-7.09743 2.47881-10.50693 5.21255-13.38417 6.28135-2.88231 1.07069-5.2541.46805-10.54089-3.71671-7.99011-34.79658-18.91721-69.83558-31.84702-105.28261z" class="bottoms_primary_shade"/></g></g><g id="g35410"><path id="path35406" d="m277.42848 410.92897c4.08611-.56657 12.36977-1.73599 12.36977-1.73599 4.00419 21.16291 6.49764 36.44127 7.50662 56.95193.92163 18.735-.36668 37.28346 2.13852 57.36679-9.06617.0104-27.228.001-27.228.001.66921-37.66587 7.89652-73.80608 5.21309-112.58398z" class="bottoms_primary_shade"/><path id="path35408" d="m277.42848 410.92897c2.14171-.21579 6.42227-.6788 6.42227-.6788 4.27705 21.10195 6.88128 36.19321 8.04048 56.30967 1.06093 18.41127-.11821 36.63135 2.51358 56.70389-7.39234.0931-22.18942.24922-22.18942.24922.66921-37.66587 7.89652-73.80608 5.21309-112.58398z" class="bottoms_primary_shade"/></g><g id="g35416"><path id="path35412" d="m246.11767 412.16361c3.47148.24075 10.48617.69495 10.48617.69495 2.70017 9.893 5.70846 21.39545 7.81796 33.96136 2.18312 13.00444 2.95903 24.32624 3.24214 36.39421.26768 11.41027.20201 21.63557.58735 29.114.38544 7.4804 1.07739 12.17803 1.07739 12.17803-1.81484 1.78959-6.19941 1.00113-11.29407-.42067-5.09412-1.42164-10.78596-3.44551-15.18527-4.15184.14959-9.85845 1.54325-19.9216 2.79677-30.78508 1.30904-11.34454 2.10719-20.82065 2.12975-31.7764.0218-10.57957-.70364-19.55229-1.32274-27.79099-.60347-8.03069-.96231-13.95677-.33545-17.41757z" class="bottoms_primary_shade"/><path id="path35414" d="m251.03361 413.1545c1.85435-.0883 5.57023-.29594 5.57023-.29594 2.70017 9.893 5.70846 21.39545 7.81796 33.96136 2.18312 13.00444 2.95903 24.32624 3.24214 36.39421.26768 11.41027.20201 21.63557.58735 29.114.38544 7.4804 1.07739 12.17803 1.07739 12.17803-3.62402 3.57361-10.4009-1.4274-19.20669-2.84798-.94045-10.20323-.19692-20.77884.58895-31.67537.85451-11.84831 1.45113-20.66154 1.41617-31.94658-.033-10.64876-.64748-19.3622-1.12276-27.6148-.45796-7.95185-.64988-13.81258.0293-17.26693z" class="bottoms_primary_shade"/></g><g id="g35426"><path id="path35418" d="m231.02155 487.72284c-.73054-.0516-1.00086.0429-1.64641-.0151.67222-.0777.82651-.18968 1.64641.0151z" style="fill:#010101"/><path id="path35420" d="m221.14367 409.90594c4.77246.61195 14.57569 1.82021 14.57569 1.82021 1.08266 8.96761 2.37021 19.88702 2.63864 31.33508.28076 11.97388-.56954 22.46906-2.27314 33.5052-1.6145 10.45898-3.64909 19.75816-4.84359 26.52239-1.19446 6.76408-1.62885 10.97837-1.62885 10.97837-7.71361-2.21509-22.90542-6.61827-22.90542-6.61827 2.89204-7.2871 5.88124-16.1055 8.0553-24.9537 2.28128-9.28456 3.59265-18.17203 4.09733-27.70961.97759-18.475-1.75017-35.99725 2.28404-44.87967z" class="bottoms_primary_shade"/><path id="path35422" d="m226.23446 410.25309c3.14206.49935 9.4849 1.47306 9.4849 1.47306 1.08266 8.96761 2.37021 19.88702 2.63864 31.33508.28076 11.97388-.56954 22.46906-2.27314 33.5052-1.6145 10.45898-3.64909 19.75816-4.84359 26.52239-1.19446 6.76408-1.62885 10.97837-1.62885 10.97837-6.14542-2.09477-18.26176-6.26705-18.26176-6.26705 2.85359-7.29998 5.78273-16.12132 7.92269-24.98013 2.24545-9.29552 3.54477-18.17852 4.08853-27.71857 1.04599-18.3516-1.3283-36.08428 2.87258-44.84835z" class="bottoms_primary_shade"/><path id="path35424" d="m230.69787 410.6056c1.68293.38349 5.02149 1.12055 5.02149 1.12055 1.08266 8.96761 2.37021 19.88702 2.63864 31.33508.28076 11.97388-.56954 22.46906-2.27314 33.5052-1.6145 10.45898-3.64909 19.75816-4.84359 26.52239-1.19446 6.76408-1.62885 10.97837-1.62885 10.97837-4.78776-1.97426-14.23238-5.9137-14.23238-5.9137 2.82292-7.31012 5.70744-16.13656 7.82516-25.00303 2.22245-9.30495 3.51969-18.18327 4.10427-27.72519 1.12568-18.37398-1.00502-36.03741 3.3884-44.81967z" class="bottoms_primary_shade"/></g><g id="g35434"><path id="path35428" d="m342.22348 438.11416c3.01536 3.80407 2.81086 2.51716 5.11078 3.61019-2.09197-1.2824-2.06781.0472-5.11078-3.61019z" style="fill:#010101"/><path id="path35430" d="m305.92646 405.14956c4.04055-1.02852 12.15529-3.11805 12.15529-3.11805 2.63248 7.53004 5.45394 18.92725 7.60821 30.90939 2.3122 12.8605 3.59134 24.66282 4.55003 37.5633.9309 12.52641 1.38344 23.11498 2.65519 31.80156 1.22348 8.35689 3.11478 13.82775 5.78554 14.26335-10.36845 2.07609-30.87456 6.19744-30.87456 6.19744-.58599-39.24529 2.51819-77.36434-1.8797-117.61699z" class="bottoms_primary_shade"/><path id="path35432" d="m305.92646 405.14956c2.87199-.34513 8.57996-1.06479 8.57996-1.06479 1.05504 2.56061 3.23821 11.69896 5.3828 22.74009 2.38038 12.25502 4.19166 24.22104 5.65115 38.58095 1.36312 13.41172 2.15476 26.39434 3.59982 36.21741 1.44476 9.821 3.5625 16.48668 6.24951 16.92598-9.23777 1.4161-27.58354 4.21735-27.58354 4.21735-.58599-39.24529 2.51819-77.36434-1.8797-117.61699z" class="bottoms_primary_shade"/></g><g id="g35444"><path id="path35436" d="m335.1685 394.96548c4.9318-1.78347 14.67641-5.35143 14.67641-5.35143 4.18177 14.58025 8.69154 28.87595 12.92457 46.3625 3.71033 15.32726 5.75695 27.45913 5.75695 27.45913 2.14471 14.86893-2.74102 30.7363 17.79208 41.6092-9.38105 2.3334-28.34033 6.93957-28.34033 6.93957-5.08014-38.74669-11.69046-77.31393-22.80968-117.01897z" class="bottoms_primary_shade"/><path id="path35438" d="m335.1685 394.96548c4.9318-1.78347 14.67641-5.35143 14.67641-5.35143 4.18177 14.58025 8.69154 28.87595 12.92457 46.3625 3.71033 15.32726 5.75695 27.45913 5.75695 27.45913-5.40763 2.49402-14.52336-6.21215-18.44245-9.08112-4.12391-22.26088-8.56926-36.66368-14.91548-59.38908z" class="bottoms_primary_shade"/><path id="path35440" d="m335.1685 394.96548c1.91992-.15833 5.68716-.50384 5.68716-.50384.45057 2.62905 5.0447 3.14052 9.53729 10.58429 2.22934 3.69378 4.48981 9.20483 6.07271 17.46743 1.56726 8.18102 2.54542 19.51104 1.69436 34.33408-5.56013 2.54445-4.22287.32784-8.07604-2.49288-4.12391-22.26088-8.56926-36.66368-14.91548-59.38908z" class="bottoms_primary_shade"/><path id="path35442" d="m335.1685 394.96548c9.60394 4.8111 14.60068 13.5559 17.16283 24.46426 2.57308 10.95494 2.67227 24.03247 2.03403 37.70434-5.57696 2.54376-.42844.0411-4.28138-2.77952-4.12391-22.26088-8.56926-36.66368-14.91548-59.38908z" class="bottoms_primary_shade"/></g></g></svg>