<svg viewBox="0 0 560 1e3"><defs><clipPath clipPathUnits="userSpaceOnUse" id="clipPathTorsoUnnatural"><path style="display:inline;fill-opacity:1;fill:#0ff;opacity:1" d="m330.55078 146.24219-33.94726 3.49414c-.60023 11.74644 4.71263 22.22405 4.14257 32.1582-3.83498 2.97182-5.98164 3.47574-13.82226 5.20313-.50811.12713-.99038.25932-1.45703.39453-3.72264.82253-9.04126 2.01096-14.32032 3.34179-8.65971 10.94361-15.77788 17.65645-24.83789 40.22852-7.97663 19.22419-2.76622 39.20128 6.8418 56.00977-1.06764 11.32585-1.52592 26.55771 1 35.50195-11.37059 21.52353-15.89766 23.525-18.09766 43.625-1.1 10.1-2.23134 20.37109-6.00781 40.87109 1.79918 21.68192 24.06434 28.08621 33.55274 33.19727 14.43169 10.04215 15.75568 13.80686 22.99414 21.73047 2.40278 1.2769 6.48148.50653 7.11523-.33399l1.04492-.0117c1.31243 1.17872 7.86741 1.71406 11.33008.17774 1.25908-5.51105 3.06526-22.40357 25.5332-37.0293 9.99479-6.9207 28.66489-25.38486 47.28125-34.05664-9.1-20.7-12.62221-28.06668-19.58398-39.49609-3.8841-8.49646-20.35167-24.94928-20.57812-24.78321.17394-.53763-12.86413-13.70783-12.93165-15.85937 2.56898-6.32141 6.07277-31.48998 8.07422-32.87695 17.10876-11.85604 23.08422-25.51867 27.05078-41.16602-.3269-2.17434-.47181-3.26841-.6582-5.75-1.66961-10.3676-2.48045-23.52968-5.33008-34.10742.025-10.96207 3.83399-17.95313 3.83399-17.95313-3.25954-.78952-9.49632-1.47902-12.42774-1.80664.0206-.0319.042-.0618.0625-.0937-7.39171-1.56131-16.05124-2.24254-15.85742-30.60937z" id="path13423"/></clipPath><clipPath clipPathUnits="userSpaceOnUse" id="clipPathTorsoHourglass"><path style="display:inline;fill-opacity:1;fill:#f0f;opacity:1" d="m330.55078 146.24219-33.94726 3.49414c-.60023 11.74644 4.71263 22.22405 4.14257 32.1582-3.83498 2.97182-5.98164 3.47574-13.82226 5.20313-.56276.1408-1.09742.28682-1.60938.4375-3.67844.81605-7.62914 1.65042-14.16797 3.29882-8.65971 10.94361-15.77788 17.65645-24.83789 40.22852-5.87551 18.9358-2.9645 38.67948 2.8418 56.00977-1.06764 11.32585-1.52592 26.55771 1 35.50195-11.37059 21.52353-11.89766 23.525-14.09766 43.625-1.1 10.1-2.23134 20.37109-6.00781 40.87109 1.79918 21.68192 24.06434 28.08621 33.55274 33.19727 14.43169 10.04215 15.75568 13.80686 22.99414 21.73047 1.37693.26708 4.09368 1.61095 7.06445-.26758l1.11133-.0781c1.17404 1.57274 8.90177 1.53055 11.31445.17774 1.25908-5.51105 3.06526-22.40357 25.5332-37.0293 9.99479-6.9207 28.66489-25.38486 47.28125-34.05664-9.1-20.7-12.62221-28.06668-19.58398-39.49609-3.8841-8.49646-20.35168-24.94928-20.57812-24.78321.17394-.53763-7.38366-13.70783-7.45118-15.85937 2.56898-6.32141 6.52259-31.00027 8.07422-32.87695 3.11188-3.76379 5.69391-7.22683 7.88672-10.51954 7.0161-10.53536 10.04592-19.32698 13.68359-30.64648-.3269-2.17434-.47181-3.26841-.6582-5.75-1.66961-10.3676-2.48045-23.52968-5.33008-34.10742.025-10.96207 3.83399-17.95313 3.83399-17.95313-4.4617-1.08069-8.62379-1.33294-12.38086-1.87695.005-.008.0105-.0154.0156-.0234-7.39171-1.56131-16.05124-2.24254-15.85742-30.60937z" id="path13449"/></clipPath><clipPath clipPathUnits="userSpaceOnUse" id="clipPathTorsoNormal"><path style="display:inline;fill-opacity:1;fill:#f9ff00;opacity:1" d="m330.55078 146.24219-33.94726 3.49414c-.60023 11.74644 4.71263 22.22405 4.14257 32.1582-3.83498 2.97182-5.98164 3.47574-13.82226 5.20313-.58083.14532-1.12952.29729-1.65625.45312-3.72076.82535-7.55904 1.62893-14.1211 3.2832-8.65971 10.94361-15.77788 17.65645-24.83789 40.22852-5.87551 18.9358-2.9645 38.67948 2.8418 56.00977-1.06764 11.32585-1.52592 26.55771 1 35.50195-11.37059 21.52353-11.89766 23.525-14.09766 43.625-1.1 10.1-2.23134 20.37109-6.00781 40.87109 1.79918 21.68192 24.06434 28.08621 33.55274 33.19727 14.43169 10.04215 15.75568 13.80686 22.99414 21.73047.78119.55861 4.78693 1.49428 7.05664-.26758l1.14258-.0781c1.51181 1.59807 9.57688 1.45961 11.29101.17774 1.25908-5.51105 3.06526-22.40357 25.5332-37.0293 9.99479-6.9207 28.66489-25.38486 47.28125-34.05664-9.1-20.7-12.62221-28.06668-19.58398-39.49609-23.58113-57.47054-9.98057-57.2743 1.61523-114.68555-.3269-2.17434-.47181-3.26841-.6582-5.75-1.66961-10.3676-2.48045-23.52968-5.33008-34.10742.025-10.96207 3.83399-17.95313 3.83399-17.95313-4.46045-1.0804-8.62863-1.32705-12.38672-1.86914.007-.0108.0146-.0205.0215-.0312-7.39171-1.56131-16.05124-2.24254-15.85742-30.60937z" id="path13552"/></clipPath><clipPath clipPathUnits="userSpaceOnUse" id="clipPath65823"><path id="path65825" class="shadow torso" d="m131.74321 573.69194 315.75864-8.79774c13.0539 8.0333 2.38259-383.9505 7.79017-388.03777l-85.55784 2.24903c-15.5475-3.91931-39.04027 2.7738-39.27246-32.77588l-33.94646 3.49567c-.60044 11.74636 4.52731 21.84761 4.14186 32.15688-5.80032 4.30093-13.259 4.44692-29.51965 8.86728l-133.98159-.0572z"/></clipPath><filter style="color-interpolation-filters:sRGB" id="filter29135"><feGaussianBlur stdDeviation="4 4" result="blur" id="feGaussianBlur29133"/></filter><clipPath clipPathUnits="userSpaceOnUse" id="clipPath29142"><path id="path29144" d="m322.53906 278.7832c26.3774-5.31244 34.03285-26.5806 34.01953-37.50976-.0183-15.04831-7.83716-25.29451-15.61523-31.90235-2.0249-.59497-3.28043-.85578-4.60547-.80273-.79503.0318-1.87917.7079-2.90579.96002-6.28681 2.88318-11.19691 5.12771-20.96335 9.69818-9.95731 4.6598-35.87851 20.45164-45.61914 22.13672-5.71305.57795-5.80996-.0364-7.60352.0-10.5758.29659-25.50439-9.72349-26.31445-17.24414-4.80618 2.46635-9.0714 5.47289-12.74805 9.9043-8.20599 9.89055-6.64213 45.44732 19.73047 48.13476 1.06899-.0406 3.32624.58293 4.38707.58735 10.01221.0418 20.31157-1.21675 30.27359-1.44784 26.46828-.61399 46.05384-.55342 47.96434-2.51451z" style="fill-opacity:.5;fill:#00f4ff"/></clipPath></defs><g id="g28929" select_clip="torso" select_clip_options="clip-path=url(#clipPathTorsoUnnatural) url(#clipPathTorsoHourglass) url(#clipPathTorsoNormal)"><g id="g28927" data-transform="boob_outfit"><path class="bra_primary" id="path28923" d="m279.59961 263.60742c-3.87807-.0282-5.58426 1.43822-6.49219 1.22461.0534.0363.0366.0497.0898.0859-.78544 1.54873-1.68207 3.01614-2.67578 4.36913-.99371 1.353-2.10172 2.59057-3.27734 3.7422s-2.43446 2.21745-3.76562 3.1621c-1.33117.94465-2.77185 1.77711-4.23219 2.50916-1.46035.73204-2.82514 1.2468-4.38829 1.76061-1.56316.51381-3.45822 1.00546-5.09782 1.29542-1.6396.28997-3.04514.42265-4.73483.48314-1.68969.0605-3.33542.0306-5.04883-.14403-1.94581-.2379-4.50688-.81569-4.85351-.91015l-.0293.37695c.37149.65011-3.35843 1.73065.27671 1.55717 15.58436.056 28.53711-1.12601 38.65727-1.66472 13.13778-.69934 26.43777-.40224 42.15609-.68534 26.30353-.47376 37.67954-4.52538 62.30994-4.45371l.38128-34.78598-22.40809.1492c-.16899 5.07038-1.45479 8.88596-1.57617 9.27481-.564 1.80686-1.28957 3.60741-2.20117 5.48057-.9116 1.87316-2.00818 3.79729-3.31055 5.63405-1.30236 1.83675-2.85477 3.67467-4.59107 5.37231-1.73631 1.69764-3.67854 3.30004-5.89196 4.75586-2.21343 1.45582-4.69855 2.74162-7.43226 3.85291s-5.71588 2.0254-9.01306 2.68945c-1.75359.35318-3.48968.55863-5.36083.69799-1.87114.13936-3.76753.19064-5.70641.1022-1.93888-.0885-3.94287-.29473-5.89967-.625-1.9568-.33028-3.93313-.85129-5.85803-1.43738-1.9249-.5861-3.77668-1.16972-5.61987-2.02563s-3.5879-1.961-5.29956-3.10072c-1.71166-1.13973-3.32454-2.40364-4.85485-3.84118-1.71664-1.62296-3.17192-3.28115-4.25184-4.90185z"/><path d="m378.49805 276.19336c-24.77665-.0721-36.16327 3.98169-62.33789 4.45312-15.68823.28256-28.99817-.0154-42.20313.6875-10.15151.54038-24.69979 1.6749-40.2168 1.61914l-.01 2.64454c15.65171.0562 30.27838-1.08601 40.36719-1.62305 13.0706-.69576 26.36096-.39995 42.10937-.68359 26.43244-.47609 37.79906-4.52437 62.2832-4.45313z" id="path29003" class="bra_accent"/><path d="m378.86133 241.46303-22.11488.15588c-.0962.82496-.10338 1.33016-.0331 1.51339l22.13633-.051z" id="path29045" class="bra_accent"/></g></g><g id="g28937" data-transform="boob_outfit"><path d="m279.5293 263.82031c10.39323 13.99485 28.98101 17.7883 43.00976 14.96289 26.3774-5.31244 34.03285-26.5806 34.01953-37.50976-.0183-15.04831-7.83716-25.29451-15.61523-31.90235-2.0249-.59497-3.28043-.85578-4.60547-.80273-.79503.0318-1.87917.7079-2.90579.96002-6.28681 2.88318-11.19691 5.12771-20.96335 9.69818-9.95731 4.6598-35.87851 20.45164-45.61914 22.13672-5.71305.57795-5.80996-.0364-7.60352.0-10.5758.29659-25.50439-9.72349-26.31445-17.24414-4.80618 2.46635-9.0714 5.47289-12.74805 9.9043-8.20599 9.89055-6.64213 45.44732 19.73047 48.13476 13.70723 1.3968 27.07782-4.81913 33.36133-17.20898z" id="path28933" class="bra_primary"/><path class="shadow" d="m340.94336 209.37109c7.77807 6.60784 15.59693 16.85404 15.61523 31.90235-.0343 3.72327.0376 2.21767-.38573 6.35505.48287-2.26813.69657-4.38182.69433-6.22224-.0183-15.04831-8.05737-25.78087-15.92383-32.03516zm-108.01172 14.74805c-6.36868 2.65385-9.5089 5.66039-13.18555 10.0918-7.1719 8.64417-6.59514 37.03636 11.2702 45.84892 1.1918.62669.77199.47731 4.23957 1.22334-1.45814-.41046-2.82232-.93422-4.09766-1.55859-1.27533-.62437-2.46263-1.3485-3.5625-2.1582-1.09987-.80971-2.11317-1.70542-3.04492-2.67188-.93175-.96645-1.78176-2.00498-2.55273-3.09961-.77098-1.09462-1.46254-2.24524-2.08008-3.43945-1.23509-2.38843-2.17051-4.9472-2.83594-7.5625s-1.06033-5.28686-1.21484-7.90039c-.15451-2.61353-.0691-5.16963.22851-7.55274.29766-2.3831.80697-4.59354 1.49805-6.51757.69108-1.92404 1.5641-3.56251 2.58984-4.79883 1.83833-2.21571 3.82433-4.07513 5.95118-5.68946 2.12684-1.61432 4.39378-2.98166 6.79687-4.21484z" id="path28935"/><path d="m337.33398 207.57617c-21.40852 7.94814-35.56898 15.86869-46.26953 21.96094-10.90567 6.20904-18.20113 10.46466-25.92773 11.04883-13.89938 1.05085-26.07103-5.28991-32.07422-16.16016l-1.32227.73047c6.30148 11.41037 19.08659 18.02795 33.50977 16.9375 8.20078-.62002 15.66504-5.03782 26.5625-11.24219 10.32918-5.88081 23.79001-13.41561 43.89881-21.05105.89076-.27048 2.63365-.60583 4.09076.60147 5.06688 4.25376 9.59083 9.06035 13.99676 16.28161-.2664-.71343-2.83919-8.65127-12.66406-17.14648-.78737-.67033-1.59973-1.31357-2.41211-1.95899-.73009-.25518-.74668-.12521-1.38868-.002z" id="path29003-6-0" class="bra_accent"/><g id="g29103" style="filter:url(#filter29135)" clip-path="url(#clipPath29142)"><path class="bra_primary_shade" id="path29091" d="m200.64156 234.38009c12.41794 8.13209 33.26083 22.07828 65.05383 21.03643 33.69336-1.10414 88.97527-27.8011 107.30346-35.53211l9.54594 70.00357-65.23061 13.25825c-24.84214-32.1413-60.66875-22.91558-101.11627 3.71231l-30.93592-33.05724 2.12132-38.7141z"/><path d="m200.64156 245.57248c12.41794 8.13209 33.26083 22.07828 65.05383 21.03643 33.69336-1.10414 88.97527-27.8011 107.30346-35.53211l9.54594 70.00357-65.23061 13.25825c-28.94005-50.35288-64.62269-27.70998-101.11627 3.71231l-30.93592-33.05724 2.12132-38.7141z" id="path29093" class="bra_primary_shade"/><path class="bra_primary_shade" id="path29095" d="m200.64156 253.05256c12.41794 8.13209 33.26083 22.07828 65.05383 21.03643 33.69336-1.10414 88.97527-27.8011 107.30346-35.53211l9.54594 70.00357-65.23061 13.25825c-30.27649-60.05477-65.61966-29.54263-101.11627 3.71231l-30.93592-33.05724 2.12132-38.7141z"/><path d="m204.00031 224.12703c12.41794 8.13209 33.26083 22.07828 65.05383 21.03643 33.69336-1.10414 88.97527-27.8011 107.30346-35.53211l.35355-50.38137-65.23061 13.25825-101.11627 3.71231c-42.17418 3.07457-39.60732 48.38638-19.62221 48.6136z" id="path29097-0" class="bra_primary_highlight"/><path class="bra_primary_highlight" id="path29120" d="m204.00031 218.11662c12.41794 8.13209 33.26083 22.07828 65.05383 21.03643 33.69336-1.10414 88.97527-27.8011 107.30346-35.53211l.35355-50.38137-65.23061 13.25825-101.11627 3.71231c-42.17418 3.07457-39.60732 48.38638-19.62221 48.6136z"/><path d="m204.00031 212.10621c12.41794 8.13209 33.26083 22.07828 65.05383 21.03643 33.69336-1.10414 88.97527-27.8011 107.30346-35.53211l.35355-50.38137-65.23061 13.25825-101.11627 3.71231c-42.17418 3.07457-39.60732 48.38638-19.62221 48.6136z" id="path29122" class="bra_primary_highlight"/></g></g><g clip-path="url(#clipPath65823)" id="g28953"><g style="display:inline" data-transform="boob_outfit" id="g28951"><path d="m349.01617 169.08726c-10.88891 21.84987-9.94648 37.21885-15.50249 39.99068 2.45673-.54791 4.96867-.68179 7.65954.52637-3.34816-2.67835 9.93427-35.36418 12.11375-40.24609z" id="path28939" class="bra_accent bra_strap2"/><path class="bra_accent bra_strap1" id="path28941" d="m354.68504 169.04238c-15.87581 27.13604-15.2262 36.94243-21.04493 40.04866 2.91754-.78982 4.34759-.54219 7.37986.37602-3.34934-2.82506 14.16037-31.53359 16.20697-39.55208z"/><path class="bra_accent bra_strap3" id="path28943" d="m345.69556 168.76687c-9.91024 29.68498-7.80147 38.26616-12.02563 40.31107 3.30941-.7794 5.36615-.22783 7.36914.38084-3.39383-2.78484 2.81145-15.16798 7.4212-40.35646z"/><path class="bra_accent bra_strap2" id="path28945" d="m285.28817 180.62194c-4.71063 5.73681-31.51917 28.8182-47.03228 41.22439 1.41687-.59847 2.69585-1.1142 3.90491-1.58797 5.50143-3.88712 11.99193-8.58462 18.00625-13.68908 13.25314-11.24818 25.80589-22.54577 26.82865-24.83669z"/><path d="m284.59768 178.02885c-7.25387 5.76513-34.75587 33.52985-47.20584 44.20947 1.02367-.44221 2.03115-.88442 3.17504-1.32663 4.77591-3.79982 10.60909-8.42743 15.93224-13.40582 10.26542-9.60058 28.48181-25.66691 30.38868-28.9312z" id="path28947" class="bra_accent bra_strap1"/><path d="m288.57955 183.03777c-7.09029 5.87744-33.38539 26.64887-51.62567 39.39186l3.47363-1.43016c5.79728-4.00338 12.56351-8.41967 19.0397-13.25011 11.23045-8.37652 22.67592-17.01004 30.07064-23.8165z" id="path28949" class="bra_accent bra_strap3"/></g></g></svg>