<svg viewBox="0 0 560 1e3"><defs><clipPath clipPathUnits="userSpaceOnUse" id="clipPathTorsoUnnatural"><path style="display:inline;fill-opacity:1;fill:#0ff;opacity:1" d="m330.55078 146.24219-33.94726 3.49414c-.60023 11.74644 4.71263 22.22405 4.14257 32.1582-3.83498 2.97182-5.98164 3.47574-13.82226 5.20313-.50811.12713-.99038.25932-1.45703.39453-3.72264.82253-9.04126 2.01096-14.32032 3.34179-8.65971 10.94361-15.77788 17.65645-24.83789 40.22852-7.97663 19.22419-2.76622 39.20128 6.8418 56.00977-1.06764 11.32585-1.52592 26.55771 1 35.50195-11.37059 21.52353-15.89766 23.525-18.09766 43.625-1.1 10.1-2.23134 20.37109-6.00781 40.87109 1.79918 21.68192 24.06434 28.08621 33.55274 33.19727 14.43169 10.04215 15.75568 13.80686 22.99414 21.73047 2.40278 1.2769 6.48148.50653 7.11523-.33399l1.04492-.0117c1.31243 1.17872 7.86741 1.71406 11.33008.17774 1.25908-5.51105 3.06526-22.40357 25.5332-37.0293 9.99479-6.9207 28.66489-25.38486 47.28125-34.05664-9.1-20.7-12.62221-28.06668-19.58398-39.49609-3.8841-8.49646-20.35167-24.94928-20.57812-24.78321.17394-.53763-12.86413-13.70783-12.93165-15.85937 2.56898-6.32141 6.07277-31.48998 8.07422-32.87695 17.10876-11.85604 23.08422-25.51867 27.05078-41.16602-.3269-2.17434-.47181-3.26841-.6582-5.75-1.66961-10.3676-2.48045-23.52968-5.33008-34.10742.025-10.96207 3.83399-17.95313 3.83399-17.95313-3.25954-.78952-9.49632-1.47902-12.42774-1.80664.0206-.0319.042-.0618.0625-.0937-7.39171-1.56131-16.05124-2.24254-15.85742-30.60937z" id="path13423"/></clipPath><clipPath clipPathUnits="userSpaceOnUse" id="clipPathTorsoHourglass"><path style="display:inline;fill-opacity:1;fill:#f0f;opacity:1" d="m330.55078 146.24219-33.94726 3.49414c-.60023 11.74644 4.71263 22.22405 4.14257 32.1582-3.83498 2.97182-5.98164 3.47574-13.82226 5.20313-.56276.1408-1.09742.28682-1.60938.4375-3.67844.81605-7.62914 1.65042-14.16797 3.29882-8.65971 10.94361-15.77788 17.65645-24.83789 40.22852-5.87551 18.9358-2.9645 38.67948 2.8418 56.00977-1.06764 11.32585-1.52592 26.55771 1 35.50195-11.37059 21.52353-11.89766 23.525-14.09766 43.625-1.1 10.1-2.23134 20.37109-6.00781 40.87109 1.79918 21.68192 24.06434 28.08621 33.55274 33.19727 14.43169 10.04215 15.75568 13.80686 22.99414 21.73047 1.37693.26708 4.09368 1.61095 7.06445-.26758l1.11133-.0781c1.17404 1.57274 8.90177 1.53055 11.31445.17774 1.25908-5.51105 3.06526-22.40357 25.5332-37.0293 9.99479-6.9207 28.66489-25.38486 47.28125-34.05664-9.1-20.7-12.62221-28.06668-19.58398-39.49609-3.8841-8.49646-20.35168-24.94928-20.57812-24.78321.17394-.53763-7.38366-13.70783-7.45118-15.85937 2.56898-6.32141 6.52259-31.00027 8.07422-32.87695 3.11188-3.76379 5.69391-7.22683 7.88672-10.51954 7.0161-10.53536 10.04592-19.32698 13.68359-30.64648-.3269-2.17434-.47181-3.26841-.6582-5.75-1.66961-10.3676-2.48045-23.52968-5.33008-34.10742.025-10.96207 3.83399-17.95313 3.83399-17.95313-4.4617-1.08069-8.62379-1.33294-12.38086-1.87695.005-.008.0105-.0154.0156-.0234-7.39171-1.56131-16.05124-2.24254-15.85742-30.60937z" id="path13449"/></clipPath><clipPath clipPathUnits="userSpaceOnUse" id="clipPathTorsoNormal"><path style="display:inline;fill-opacity:1;fill:#f9ff00;opacity:1" d="m330.55078 146.24219-33.94726 3.49414c-.60023 11.74644 4.71263 22.22405 4.14257 32.1582-3.83498 2.97182-5.98164 3.47574-13.82226 5.20313-.58083.14532-1.12952.29729-1.65625.45312-3.72076.82535-7.55904 1.62893-14.1211 3.2832-8.65971 10.94361-15.77788 17.65645-24.83789 40.22852-5.87551 18.9358-2.9645 38.67948 2.8418 56.00977-1.06764 11.32585-1.52592 26.55771 1 35.50195-11.37059 21.52353-11.89766 23.525-14.09766 43.625-1.1 10.1-2.23134 20.37109-6.00781 40.87109 1.79918 21.68192 24.06434 28.08621 33.55274 33.19727 14.43169 10.04215 15.75568 13.80686 22.99414 21.73047.78119.55861 4.78693 1.49428 7.05664-.26758l1.14258-.0781c1.51181 1.59807 9.57688 1.45961 11.29101.17774 1.25908-5.51105 3.06526-22.40357 25.5332-37.0293 9.99479-6.9207 28.66489-25.38486 47.28125-34.05664-9.1-20.7-12.62221-28.06668-19.58398-39.49609-23.58113-57.47054-9.98057-57.2743 1.61523-114.68555-.3269-2.17434-.47181-3.26841-.6582-5.75-1.66961-10.3676-2.48045-23.52968-5.33008-34.10742.025-10.96207 3.83399-17.95313 3.83399-17.95313-4.46045-1.0804-8.62863-1.32705-12.38672-1.86914.007-.0108.0146-.0205.0215-.0312-7.39171-1.56131-16.05124-2.24254-15.85742-30.60937z" id="path13552"/></clipPath><clipPath clipPathUnits="userSpaceOnUse" id="clipPath65823"><path id="path65825" class="shadow torso" d="m131.74321 573.69194 315.75864-8.79774c13.0539 8.0333 2.38259-383.9505 7.79017-388.03777l-85.55784 2.24903c-15.5475-3.91931-39.04027 2.7738-39.27246-32.77588l-33.94646 3.49567c-.60044 11.74636 4.52731 21.84761 4.14186 32.15688-5.80032 4.30093-13.259 4.44692-29.51965 8.86728l-133.98159-.0572z"/></clipPath><clipPath clipPathUnits="userSpaceOnUse" id="clipPath14254"><path style="fill-opacity:.38823529;fill:#0ff;opacity:1;stroke-dasharray:none;stroke-dashoffset:0;stroke-linecap:butt;stroke-linejoin:miter;stroke-miterlimit:4;stroke-opacity:1;stroke-width:.45354331;stroke:none;vector-effect:none" d="m330.13914 222.55492c-16.24226 4.13328-23.31139 8.67215-31.70784 13.96119-3.8588 3.10763-4.63988 3.39807-9.93668 8.51548 5.17639 9.92717 17.66824 16.39105 26.80495 16.08612 18.33877-.61204 23.25091-10.93264 24.46893-18.28546 1.67709-10.12407-.30674-13.8948-4.7967-19.21268-2.07235-1.00404-2.91573-1.20952-4.83266-1.06465z" id="path14256"/></clipPath><clipPath clipPathUnits="userSpaceOnUse" id="clipPath14281"><path id="path14283" d="m267.29864 246.26464c-4.6302 9.12984-9.74946 16.26764-20.38735 16.26744-4.08881-8e-5-7.56013-2.1281-10.02502-4.38557-5.89313-5.39722-7.19273-14.4368-6.63506-18.00185.16825-1.07558 1.08684-2.45839 2.30661-4.04501.90292-1.17449 2.08805-2.33682 3.35911-3.25219 7.49742 11.18928 17.92267 11.62411 31.38171 13.41718z" style="fill-opacity:.3886179;fill:#00fdff;opacity:1;stroke-dasharray:none;stroke-dashoffset:0;stroke-linecap:butt;stroke-linejoin:miter;stroke-miterlimit:4;stroke-opacity:1;stroke-width:.45354331;stroke:none;vector-effect:none"/></clipPath></defs><g id="g13715" select_clip="torso" select_clip_options="clip-path=url(#clipPathTorsoUnnatural) url(#clipPathTorsoHourglass) url(#clipPathTorsoNormal)"><g id="g13713" data-transform="boob_outfit"><path class="bra_primary" id="path13709" d="m267.18682 246.26798c-1.25016 2.79276-2.85619 5.01348-4.21491 7.08356-1.54586 2.35521-3.44377 4.20982-5.77451 5.94098-2.13304 1.58433-5.0449 2.61305-8.00749 2.89522-3.60085.34296-4.79517-.0807-6.30541-.47724-1.23955-.49904-1.13007-.35306-2.48367-.97543.39175.24917 1.50941.98609 2.82156 1.54769 1.29502.55427 4.21401 1.03848 7.3804.45875 15.08973-2.95825 14.98255-5.88058 25.10428-6.38889 12.16551-.61096 24.6808 6.23782 40.38833 5.59022 4.6936-.19351 11.92665-1.40738 16.4115-5.04901 7.89687-6.41215 17.45169-5.54373 25.05675-5.65541 10.96187-.16094 23.93528-3.38361 23.93528-3.38361l-1.13389-13.19042c-8.5455 1.65405-37.77378 5.86971-40.29289-1.4902.50171 3.45038-.25917 8.29775-1.1203 11.63787-1.98507 7.69912-6.81224 11.7256-11.38079 13.47578-7.77072 2.97693-16.40989 3.73723-24.30767-.18178-5.53996-2.74905-11.0067-6.71455-14.71445-13.08221-12.93598 5.47559-13.63167 2.98446-21.36212 1.24417z"/><path d="m340.22656 233.19727c.017.11682-.13376-.0612-.10742.0566.002.01.004.0216.006.0312 2.78586 7.19936 31.73999 3.02419 40.24023 1.3789l1.13282 13.19141s-12.97173 3.22187-23.9336 3.38281c-7.60506.11168-17.15977-.7559-25.05664 5.65625-4.48485 3.64163-11.71851 4.85532-16.41211 5.04883-15.70753.6476-28.22316-6.2008-40.38867-5.58984-10.12173.50831-10.01378 3.43042-25.10351 6.38867-3.16639.57973-6.08584.0953-7.38086-.45899-1.31215-.5616-2.43052-1.29966-2.82227-1.54882.39175.24916 1.20553.9274 2.46875 1.59179 1.51599.79734 4.89056 1.27455 8.05078.66211 15.0961-2.92558 14.60288-5.81395 24.72461-6.32226 12.16551-.61096 24.65575 6.10072 40.36328 5.45312 4.6936-.19351 12.14015-1.33298 16.625-4.97461 7.89687-6.41215 17.59026-5.57387 25.19531-5.68555 10.96187-.16094 23.93555-3.38281 23.93555-3.38281l-1.19922-13.65429c-5.97116 1.15576-22.02258 3.58139-31.95703 2.48046-4.28301-.47464-7.62198-1.4879-8.38086-3.70507zm-11.42773 24.81835c-.35341.15345-.71543.32075-1.05078.44922.34878-.13361.69941-.28654 1.05078-.44922z" id="path13753" class="shadow"/></g></g><g id="g13723" data-transform="boob_outfit"><path class="bra_primary" id="path13717" d="m330.13914 222.55492c-16.24226 4.13328-23.31139 8.67215-31.70784 13.96119-3.8588 3.10763-4.63988 3.39807-9.93668 8.51548 5.17639 9.92717 17.66824 16.39105 26.80495 16.08612 18.33877-.61204 23.25091-10.93264 24.46893-18.28546 1.67709-10.12407-.30674-13.8948-4.7967-19.21268-2.07235-1.00404-2.91573-1.20952-4.83266-1.06465z"/><path class="bra_primary" d="m267.29864 246.26464c-4.6302 9.12984-9.74946 16.26764-20.38735 16.26744-4.08881-8e-5-7.56013-2.1281-10.02502-4.38557-5.89313-5.39722-7.19273-14.4368-6.63506-18.00185.16825-1.07558 1.08684-2.45839 2.30661-4.04501.90292-1.17449 2.08805-2.33682 3.35911-3.25219 7.49742 11.18928 17.92267 11.62411 31.38171 13.41718z" id="path13719"/><path d="m236.00977 232.75391c-1.28668.79037-2.70451 1.95246-3.60743 3.12695-1.21977 1.58662-2.20089 3.09434-2.36914 4.16992-.55767 3.56505.77289 12.88598 6.66602 18.2832 2.46489 2.25747 6.12408 4.19719 10.21289 4.19727-4.08881-8e-5-7.5605-2.1273-10.02539-4.38477-5.89313-5.39722-7.19244-14.4369-6.63477-18.00195.16825-1.07558 1.08687-2.4583 2.30664-4.04492.90292-1.17449 2.08637-2.33658 3.35743-3.25195 1.84754 2.7573 3.82194 4.68566 5.95898 6.10156-2.0719-1.45879-4.00588-3.42038-5.86523-6.19531z" id="path13743" class="shadow"/><path d="m334.97266 223.61914c2.70554 3.20442 4.49205 5.85655 5.125 9.66602.0479-.0272.11478-.0583.14648-.082-.63437-3.80427-2.56823-6.38227-5.27148-9.58398z" id="path13748" class="shadow"/><path d="m287.39638 244.76519c8.06354 18.81547 20.75333 18.62289 39.0812 18.24207 16.16469-13.95263 17.20277-17.65285 13.7721-36.58737-12.63882-12.95509-30.02331-3.52348-52.8533 18.3453zm50.96106-17.69394c-.51964.42736-1.11524.51402-1.7264.0242.0302-.53921.12167-1.08206.25711-1.61078zm-22.97974-.20877c.2734.47789.44728.97615.43433 1.5262-.67136 2.5051-1.60831 1.12189-2.49118-.62971zm10.4845-3.63195c.50769.76427.19699 1.67008-1.85159 1.96817-.0812-.15488-.46959-.54908-.88175-1.00603zm3.01273-1.10904c1.68925 1.38133-1.81226 1.81071.0.0zm-1.16561.0971c1.78015 1.07651-1.79485 1.9906.0.0zm-5.32626 2.18367c.89091 1.19623 1.27433 2.63996.31938 4.45425-1.59625.12734-3.57587-.34999-4.16785-1.55268-.21935-.45312-.24158-1.00779.0332-1.6672zm5.87247-.80424c.50455.65873-1.36128.40574.0.0zm3.41942-.0986c1.48638 1.39231-1.76815 1.7357.0.0zm-.82023.21411c.0544 1.37354-.60596 1.01529.0.0zm4.48661.4687c1.48558.0926.85115 1.90623.0772 3.07083-.72161 1.0858-1.76732 1.76312-.99386-.89348-.0189-1.12936-.73255-2.20159.91669-2.17735zm-8.7146.7623c1.99785 1.73431.134 7.22404-2.76132 4.29336-1.126-2.10722.81994-4.0375 2.76132-4.29336zm2.74459-.0517c.97973 2.18649-.0527 2.62041-.8383 2.28504-.77761-.33195-1.30346-1.44349.8383-2.28504zm2.71029.0201c1.03173 1.03803-1.61185 1.8246.0.0zm-1.16061.0579c1.42714 1.07051-.9835.9891.0.0zm-18.58203 2.99168c.54673 1.08029.55983 2.08887-1.00653.95215-2.33176.55748-.83504 5.25656-3.58163 2.30169-.48559.062-.91387-.15878-1.24925-.51571zm20.88561-1.97798c.82942 1.97544-1.40702 6.75361-1.24346 2.15579-.32158-1.05854.94086-1.2551 1.24346-2.15579zm-27.61736 5.6103c-.03 1.1113-.46873 2.06635-1.6106 2.47984-.47495-.2834-.9058-.54267-1.29553-.78011zm25.13288-4.3239c1.55059 1.43204 1.01413 5.84263-1.89809 4.06427-3.38618-.83945-.002-4.08815 1.89809-4.06427zm-14.14069.86727c.40255.50126 1.16255.79639 1.90652 1.02779 1.64444.5023 3.24144.71478 1.02163 2.19649-.41647.44895-.76088.83963-1.05147 1.11946-.79447.77725-1.18672.70248-1.51284-1.45275-1.69729-.18005-.43861-1.61148-.36384-2.89099zm19.34825.0332c2.20237-.29391 1.73568 2.82427-.33852 2.51586-4.51942 1.6054-1.05133-.36421.33852-2.51586zm3.03071.46157c1.57249 1.35181-1.7225 1.51852.0.0zm-27.5242 1.58186c1.52341 1.22024-1.23424 1.17969.0.0zm10.37557-.0422c2.14532-.0536 3.2861.81016 1.99928 3.40183-1.9375 1.20351-3.02671 1.12875-4.28682-.64298-.86253-.43882 1.772-1.96681 2.28754-2.75885zm3.43959.70824c1.43131.0659 3.10514 1.63145 3.80119 3.12956.69476 1.49532.46781 3.03215-1.99967 3.15285-1.40046.25089-3.07492-3.15929-2.12043-5.12366.10504-.38554.21135-.77185.31891-1.15875zm-14.31292.43887c1.25398.96141-.80207 1.81126.0 3e-5.01.0109.0-3e-5.0-3e-5zm3.55708.008c1.75865 1.46114-1.59191 1.75449.0.0zm24.94549-1.44951c1.04071 1.15645-1.82151 1.73879.0.0zm-27.2715 1.47784c1.551 2.03068-1.78953 1.23271.0.0zm26.28361-1.33122c.57594.74706-.25833 1.47667.0.0zm-25.12297 1.46684c2.00041 1.44448-1.90387 1.32397.0.0zm2.00773.46973c1.62086-.1091-.22096 1.35775.0.0zm-8.34173.22669c1.28057.34119-.32249.58219.0.0zm30.1315-1.07865c1.31968 2.09539-3.06646 6.05051-4.13119 2.49316-1.63234-.92965-.70633-1.41243.6809-1.72989 1.38736-.3175 3.2264-.47237 3.45029-.76327zm-20.86389 1.61308c.47341 1.18268-1.43204 1.13123.0.0zm22.53186-1.47528c.96299.95877-.2939.87464.0.0zm-26.09833 1.57195c1.75154 1.53757-1.64532 1.41875.0.0zm1.2554-.001c1.67926 1.45247-1.65331 1.72295.0.0zm1.15826-.013c1.83125 1.55711-1.78818 1.60542.0.0zm-8.46947-.053c1.75801 1.14062-1.37849 1.83503.0.0zm1.21203.0394c1.91007 1.2788-1.69024 1.80826.0.0zm3.6593.0473c1.8669 1.24599-1.65478 1.84884.0.0zm-9.69354 1.10815c.74924.2819 1.45111.59625 1.88072 1.10218 1.76619 2.94605-2.10993 3.82598-3.9273 2.70537-.52787-.47809-1.1009-1.05803-1.47684-1.65277zm6.83411-.46704c1.03979.65849.19291.93295.0.0zm29.37899-.76935c3.23881 1.90039-.61575 4.55654-1.9556 2.76201.63478-.92686 1.28564-1.84551 1.9556-2.76201zm-23.57219 1.58445c1.50097.27519-1.08682 1.17003.0.0zm-7.26264-.0509c2.07662 1.10951-1.59598 1.96028.0.0zm1.38809.0322c1.77327 2.08199-2.08014 1.01665.0.0zm10.66819-.0887c1.64575 1.98842-1.97368 1.12464.0.0zm11.93295-.57071c1.02034.22195.59911 1.4944.0.0zm-12.81299.8213c.37137 2.10618-1.86806.41613.0.0zm-9.00211.082c1.40573 1.38845-.54449 1.30076.0.0zm31.07052-1.59537.20063 1.35095c-.55436.52056-1.3268.70085-.71688-1.10224-.002 95e-5.5182-.24961.51622-.24867.007.01 3e-5-4e-5 3e-5-4e-5zm-16.62842 1.5595c2.97202 1.5497.77027 6.51328-1.47196 5.57422-.13415-2.45339-2.2648-5.18865 1.04062-5.43065 36e-5-11e-5.43099-.14351.43133-.14362.009.0103 1e-5 5e-5 1e-5 5e-5zm-17.2804.60758c-.48599.66895-1.20717-.17499.0.0zm6.18995.17924c2.44111 1.38868-1.10152 5.00301-.66282.69291 46e-5-92e-5.24041-.50104.24085-.50197 25e-5-12e-5.42172-.19083.42197-.19094zm19.35175-.68493c1.02844.87901-.33788.75407.0.0zm-24.14976 1.01942c1.62376 1.40942-1.81304 1.84491.0.0zm10.68959-.0501c.81396.69968.26976 1.21017-.15643 1.23733-.34061.0218-.60042-.27406-.004-1.04528.0479-.061.10129-.12496.16048-.19205h3e-5zm-1.19093.0482c1.31256 1.19981-.21761 1.42984.0.0zm-10.75404.002c1.94362 1.44921-1.75475 1.67392.0.0zm2.48626.0728c1.4139 1.41379-1.78172 1.23416.0.0zm-3.7543-.10116c1.92765 2.26722-1.78795.87827.0.0zm13.92301.38544c1.15538.51572.30759 1.7529.0.0zm11.33587-.78546c1.07643.21997 4.42231 4.9394.64339 4.0455-.25091-1.29991-.64641-2.72247-.64339-4.0455zm2.1486-.10465c1.31494.75925-.4313 1.05862.0.0zm-17.0985 1.50784c2.0131.76185 1.11483 1.87225.0597 2.28499-1.06894.41814-2.22421.10986-.70761-1.89746.21639-.12862.43233-.25778.64793-.38753.009.0105-2e-5.0-2e-5.0zm-18.25055-.24628c1.65294 1.1754 2.71422 5.85081-1.55319 2.74034-1.46426-.23529 1.59357-1.73008 1.55319-2.74034zm20.5628.68107c1.2465.68765-.71354 2.12323-1e-5 1e-4.009.0104 1e-5-1e-4 1e-5-1e-4zm-11.97312-.0165c2.00359 1.09401-1.73267 2.02471.0.0zm14.22297-.0612c2.01425 1.32256-1.66216 1.76924.0.0zm-1.09228.0576c1.55557 1.81215-1.6224 1.38221.0.0zm14.35788-1.12825c1.42632.41181-.46824 1.1341.0.0zm-26.20853 1.19522c1.73598 1.37088-1.73767 1.80334.0.0zm27.08749-.6448c1.49492-.0907-.17693 1.21295.0.0zm-24.27338 1.45694c2.08976.52164 1.73775 1.46676.88708 1.86039-.83946.38845-2.17718.2171-1.96615-1.49564 3e-5-1e-5.46397-.27893.464-.27895-8e-4 12e-5.61587-.0859.61507-.0858v1e-5zm19.59392-.87033c1.46098 2.99226.42393 6.84211-2.54068 4.14206-1.81173-2.04197.24553-4.1002 2.54068-4.14206zm-23.087 1.48571c2.08803 1.09209-1.59696 1.89102.0.0zm13.16753-.0582c1.66062 1.90738-1.94963 1.12079.0.0zm-14.32533.0299c1.54401 1.38455-1.69765 1.40752.0.0zm13.12212.0621c1.06467.8132.35919 1.17524-.13398 1.05941-.33468-.0802-.55758-.38775-.01-.92942.0431-.0419.0909-.0852.14357-.12999h-2e-5zm21.13806-1.92305c.56686.53443-1.4289.59215.0.0zm-3.46372.46209c1.61469.49102-1.26126.46689.0.0zm-28.72871 1.64179c.88808 1.44876-.16767 1.19483.0.0zm-3.04365-.0239c.70435 1.65664-1.86462.60281.0.0zm32.95905-1.6084c1.35273.42179-1.32078.61035.0.0zm1.05923-.1269c1.1572.29515-1.30515.64381.0.0zm-20.65448 1.89434c.30079 1.34409-1.43595 1.07044.0.0zm-15.22005.081c1.50861 2.23925 1.60957 3.29421-.9031 4.20373-1.84044.19014-3.44151-5.05962-.11533-4.185-.0447 65e-5 1.06299-.0196 1.01845-.0187.01.0108-2e-5 5e-5-2e-5 5e-5v-5e-5zm31.03581-1.01272c2.27732-.0469 5.44844 1.78319 2.69789 4.64954-1.69703-.47072-4.33373-2.12753-2.69789-4.64954zm-15.70651 1.94281c.26665.0493.42044.101.49592.15119.0864.0565.071.11087.002.15561-.25205.16565-1.25949.19733-.49786-.30679l29e-5-1e-5zm-10.6347.004c1.70321 1.34941-1.7803 1.69789.0.0zm-1.2821-.0374c2.10016 1.31933-1.90566 1.6074.0.0zm14.2936-.0564c1.63279 1.0768-1.62253.95268.0.0zm-1.13571.0582c1.46455.9323-1.53409.72992.0.0zm-14.39279-.0434c1.73534 1.58413-1.37741.64971.0.0zm20.7788-.16957c.39083 1.0417-.20965 1.03297.0.0zm-17.3829.51516c1.58534.76479-.7854 1.54771.0.0zm31.54138-1.96407c.88817 1.09598.8647 1.20292.55483 3.58546-.54162-.23708-1.77536-.8821-2.32455-1.60078-.54521-.71345-.41586-1.50666 1.76972-1.98468zm-45.77091 1.31196c-.14732 1.32422.50011 3.08343-.0386 4.18393-.2132.39449-.58584.70225-1.21782.86979-.47616.52844-.93781.81113-1.3586.90846-1.16353.26052-2.02578-.87322-2.00909-2.21265l4.6241-3.74956zm.91289.20201c2.06907.51854 4.32878.94108 5.11298 3.17637.69784 1.28464-.27162.22867-1.33652-.60441-1.05877-.82827-2.21199-1.42654-1.83064.84523-.28751.43747-.54123.67145-.76232.75263.01.0107-1e-5.0-1e-5.0-.15647.0545-.29468.0373-.41586-.0359-.74851-.45431-.94461-3.01248-.76762-4.13398l-1e-5 4e-5zm30.26875.45538c.28228.71433-.95958.55125.0.0zm-11.13466.68207c1.94916.0908 2.27354 1.38416 1.9301 2.14823-.33909.7544-1.36226 1.00966-2.12717-1.03154.0192-.26727-.31862-1.10135.19707-1.11669zm-1.89142.20712c2.35515 2.05002-1.59483 5.23474-1.40415 1.50096.24708-.66844.72016-1.34626 1.40415-1.50096zm13.31292-.24146c.56669 1.87795-1.32435.65453.0.0zm-1.12191.10543c1.59867 1.25233-1.541 1.72187.0.0zm-6.87062.49532c1.60689.81797-1.14874 1.7532.0.0zm13.99029-1.06101c1.32509.23832 2.59166 1.36534 2.68196 2.80352-.0275.60282-.27196 1.26598-.81318 1.94353-1.47039 2.27517-1.59791.26999-1.56083-1.6421-.0658-.83959-.0994-1.6635-.18557-2.04579-.0381-.35281-.0824-.70575-.12238-1.05916zm-13.04111 1.18394c.0266.008.0524.0166.0773.0249 1.20199.39444.49443.91939.0141.84942-.271-.0404-.44889-.28336-.0914-.87432l-3e-5-3e-5zm5.11275-.10301c.38183 1.48238-1.77476.30496.0.0zm-4.06769.38674c1.46342.21088-.26923.9873.0.0zm2.75429-.0163c.90808.35808-.92595.48981.0.0zm-12.57521.29981c-.0549.70502-1.18228.33023.0.0zm-4.66782-.0388c2.69751.0164.95901 1.84098-.97545 2.39192-.73891.19996-1.48677.21991-1.97825-.0935-.003-.009-.006-.0191-.009-.0289-.206-.76079 2.24624-1.61726 2.96187-2.26966l46e-5 8e-5zm21.56516-.26434c1.41463.39566 2.83483.98635 2.78022 1.94755-.0727.49584-.56276 1.10457-1.69109 1.8248-1.74042 1.91631-3.38938 2.76842-2.88477-.5865-.12969-.30956-.14493-.55861-.083-.7712.22708-1.07004 1.65157-1.3446 1.87866-2.41465zm-1.65828.43172c.33238.44366-.88787.47557.0.0zm-4.55241.35112c1.67923 1.2771-1.58689 1.50985.0.0zm-2.31519.11465c.25369.12121.41489.24368.50757.36139.15177.1895.12241.36676.01.50163-.37925.46143-1.44217.38161-.51731-.86302h2e-5zm1.29563-.0575c1.67572 1.85809-1.94092 1.09154.0.0zm4.4081-.27785c1.74655.52113-1.33518.97882.0.0zm-14.85347.40982c.89384 2.11397-1.99505.66697.0.0zm.60392.0942c.63766 1.03696-.48071 1.32903.0.0zm12.45644.67783c.68799-.0443 1.24523.26459 1.66252.75921.86349 1.09675.93979 3.15214.16217 4.2067-3.40254 3.11976-4.63486-1.90451-2.83819-4.01961.23941-.31217.54132-.58336.9101-.79089zm-13.89341.43406c.32635.26855.45019.49762.4543.67934-.0157.58134-1.27423.65029-.955-.0331.0683-.16876.22283-.38163.5007-.64615v-5e-5zm10.66822-.0377c.30904.24443.42708.46474.43197.64703-.0112.29716-.33092.49035-.59712.50863-.24573.0173-.44408-.12017-.29581-.46837.0482-.13569.14428-.30234.30441-.50445.0468-.0581.0988-.11892.15655-.18284zm-1.16129.0802c.34358.23706.49856.44399.53592.61382.0941.57743-1.18053.69721-.96111.0347.0438-.16613.17232-.37955.42519-.6485v-5e-5zm-8.28083.0433c.21653.25687.3414.46342.40021.62654.25205.78818-1.05564.53305-.94352-.0257.0257-.17615.17949-.38164.54331-.60075v-4e-5zm29.32778-1.96994c.22469.16951.33348.31584.36587.43599.0587.43825-.85441.52234-.7366.0941.0189-.12908.12463-.3046.37072-.53005zm-.78407.17726c.079.148.11798.2779.1282.38958-.0233.63266-.89031.66802-.49344.064.0664-.12416.18219-.27531.36524-.4536zm-39.1711 1.56334c.25373.10029.43784.20157.567.29788.72931.5442-.38743.92167-.54012-.0419-.0149-.0768-.0242-.16191-.0269-.25595l1e-5-5e-5zm18.19175.60952c.0113.0862.0146.16389.0114.23369-.0977.90526-1.28565.45361-.61504.0167.12511-.0869.31906-.17316.60363-.25044h3e-5zm22.54392-2.13704c.0489.0547.093.106.13275.1541.6473.94735-.27448.62434-.16721.0209.002-.0561.0132-.11469.0345-.17501l-2e-5-1e-5zm-4.47988.74932c.01-55e-5.02-.001.0299-.002 2.15958-.09.0917 3.66135 1.30739 5.13447-2.52886.71411-3.24246-3.11534-1.33962-5.13027.009.008.003-.003.003-.003l-31e-5 69e-5zm-24.86313 1.70606c.97982.27737.23068.84053.0.0zm5.0091.0439c1.61254.15758-.87033.68824.0.0zm-19.88197-.58677c3.04725.58396 2.83577 1.92219 1.52227 2.74185-1.30393.81369-3.69281 1.09623-4.97058-.42821.36321-1.05004 2.3507-1.82716 3.44831-2.31364zm19.45941 1.17048c.97819.49284.0153 1.88806.0.0zm-4.83396-.01c2.07656 1.35745-1.81822 1.50243.0.0zm9.42838-.10581c.13871.9181-1.03242.97082.0.0zm-3.41638.12448c1.49345 1.69057-1.68324 1.24721.0.0zm23.30579-2.20143c1.33461 1.55506-1.63244 1.39932.0.0zm-22.1822 2.17441c1.45647.9095-1.54962 1.29366.0.0zm-17.13477-.4972c1.77043 1.33879-1.89357 1.54594.0.0zm11.29986.54819c1.63098 1.23674-1.77023 1.67833.0.0zm26.94909-2.07795c1.42981 1.03655-1.67877 1.89977.0.0zm-19.89448 2.01393c.21074.14907.328.26803.37959.36131.0497.0883.0394.15349-.008.19848-.24032.23376-1.48911-.0887-.37206-.55978l42e-5-1e-5zm-19.57767-.55641c.82504.37765.22551.87794.0.0zm10.36176.66942c.3672 1.19615-.2887 1.16988.0.0zm3.46009.079c.64534 2.08305-1.64392.31426.0.0zm-7.13768-.21041c.041 1.83481-1.97135.29705.0.0zm31.84485-1.72798c.97831.61427-1.11145 1.84838.0.0zm-36.22252 1.52589c2.10887.87639-1.57538 1.44585.0.0zm38.87785-1.74871c.55432.74676-.30472.98894.0.0zm-37.41499 2.20771c1.78427.71951-1.79474.43986.0.0zm1.30237.0817c1.56399.74449-1.58593.44007.0.0zm25.99612-.64783c.279.65078-1.36762.87656.0.0zm-22.94019 1.31999c1.46058.30532 1.33726 1.71542.57811 2.65054-.75597.9312-2.17255 1.42169-3.29608-.0725-1.90708.29926-1.3101-.28954-.23304-.96257 1.04309-.65179 2.76517-1.52268 2.95101-1.61548zm-6.29879-.15291c1.57511.81123-1.2886.21146.0.0zm8.80282.48756c1.12846.92883-1.58458 1.18457 4e-5.0.01.01-4e-5.0-4e-5.0zm1.14735.0305c1.2088.27494.18287 1.77476.0.0zm6.02068-.009c.71144.79338-1.38158.52994.0.0zm-14.78839-.3833c1.84527 1.16937-1.59655.67436.0.0zm35.76088-1.56219c1.75989.72421-1.51864 1.98634.0.0zm2.31218-.29152c.84155 2.26885-1.71985.61547.0.0zm-36.75221 1.94554c1.9116.42751-1.48877.89903.0.0zm8.72297.38146c1.86891 1.39762-1.82072 1.25037.0.0zm17.3515-.94363c.71435 1.98409-1.871.75243.0.0zm9.49328-1.20086c1.66208 1.1836-1.69442 1.48457.0.0zm-7.67255 1.02994c.30283.93193.16258 3.07609-.21741 4.37207-.3753 1.27993-1.06947 1.90338-1.91312-.25131.82841-1.28238 1.30815-2.79557 2.13053-4.12076zm-16.85241 1.31525c1.02963 2.75747 3.16875.31477 4.52823.20675.36983-.0292.68554.10749.91709.55064 1.17429 1.64406.24346 1.96758-.9969 2.06283-1.63677.12642-3.87835-.19265-1.77406 1.98228.61051.22011 1.21109.48005 1.71819.76277 1.50939.82632 2.29412 1.92732-.0177 2.80229-.19082.0733-.40348.14466-.63931.2134-.81448-1.84602-3.50547-1.83963-4.23297-3.71141.13111-1.59714.23406-3.22262.4975-4.86955h-3e-5zm13.99563-.36148c.0913.63021-.86274.44689.0.0zm-29.29255.19642c1.65515.91733 5.6259 1.94635 1.6414 2.31553.20489 3.06636-3.33128.59738-4.33229-.46786.31887-1.01777 1.85026-1.24839 2.69089-1.84767zm14.39813 1.15617c.41085 2.73267-1.01179 6.42966-4.1855 4.36493-2.05002-.3728-1.83684-1.76733-.87359-2.75877.9681-.99643 2.66035-1.56745 3.58564-.24462.70941-.14233 1.10617-.7887 1.47345-1.36154zm15.06776-.83956c1.58605 1.12433-1.51898 1.67597.0.0zm9.72749-1.21273c1.55817 1.1148-1.52735 1.70977.0.0zm1.13707-.12673c1.3084 1.63978-1.66331 1.27942.0.0zm-2.06429.36106c.8087.41291-.29816 1.293.0.0zm-9.61528 1.18189c.91823 1.62965-2.07729.96577.0.0zm-36.95788-.62948c1.45613 2.23401-1.71717.23898.0.0zm41.47092.19976c1.46843-.26138 2.82401 1.4627 3.27194 2.79247.26655 1.71508-.18136 2.68953-1.81527 2.48234-.78736-1.34656-1.30764-3.45743-1.45667-5.27481zm-5.59801 1.16167c.0798.6449-.78458.41606.0.0zm-34.07327-.35523c4.2987-.27447 2.9466 3.23371 2.76607 5.22233.38906 1.94851-2.66152-.44402-.87038-1.5574.8094-1.89751-3.05156-2.08487-1.89569-3.66493zm45.14233-.46154c.91097.38903.0219 1.87181.0.0zm-9.68831 1.22639c1.18702 1.1025-1.47841 1.37373.0.0zm-1.16362.12202c1.49425 1.26656-1.58527 1.50093.0.0zm11.92033-1.43875c1.64672 1.21052-1.68493 1.60421.0.0zm-13.02804 1.55853c1.68374.9367-1.57251 1.75783.0.0zm-.73495.51322c.1918 1.14627-1.59396.59672.0.0zm2.42061.58052c.39218.71847-1.32099.83894.0.0zm-4.41728.4155c1.58048 1.67843-1.93361 1.06139.0.0zm2.10201-.16504c1.84892.76626-1.4818 1.88803.0.0zm1.24825-.11206c1.55702 1.65371-1.89505 1.1054.0.0zm-2.25642.19684c1.70259 1.39758-1.85472 1.19847.0.0zm14.21515-1.58981c.76654.38094-.20787.70491.0.0zm-36.74041 1.53713c.61226.6138-.41663 1.7146.0.0zm2.4346.17782c1.70317 1.31951-1.98107 1.26667.0.0zm.68307.0431c1.80087 1.11007-.18469 1.711.0.0zm17.13175.0967c1.52839.96837-1.52547 1.24409.0.0zm14.98531-1.48763c.6186.30033 1.10341.7267 1.45279 1.25502l-1.6306 2.10942c-.26007-.33137-.43926-.58982-.4573-.65568.21539-.85563-.60794-2.78911.63511-2.70876zm-15.84419 1.6951c.6049 1.44712-1.88827.21385.0.0zm-18.69701-.23331c2.45701.41444-.87353 1.4042.0.0zm16.12153.48829c.20832.0818.32925.15157.38774.21022.0657.0648.0537.11574-.003.15302-.24857.16565-1.45198.0516-.3846-.36323l29e-5-1e-5zm1.09284-.0455c1.48414.81972-1.43366.7214.0.0zm-13.28515.0957c.94974.64186-.81773.29302.0.0zm22.26479-.40311c1.41774.27616 1.58064 1.71931 1.22097 2.65711-.35037.91357-1.27108 1.39469-1.99483-.3391-.77485-1.06556-.004-1.58912.77386-2.31801zm-35.63072-.008c1.73637 1.34685-1.9944 1.48185.0.0zm11.69951.90578c1.61729 1.28411-1.91203 1.51792.0.0zm17.83604.0268c1.47346 1.10821-1.70698 1.76474.0.0zm3.34591-.24743c.85165.3902-1.16877.64131.0.0zm-22.46579.17105c1.94121 1.32526-1.84137 1.38301.0.0zm16.86047.23644c1.36476 1.05708-1.64436.58285.0.0zm1.10526-.0585c1.66178 1.14684-1.42882 1.19254.0.0zm2.26875-.14738c1.51686 1.13252-1.75178 1.52917.0.0zm1.1561-.0777c1.31829.8021-1.37839 1.01712.0.0zm-26.53362-.31892c1.67225 1.98069-1.91132.73204.0.0zm3.88048.29528c1.89383 2.08674-2.10043.66249.0.0zm3.73174.23683c1.73282 1.19454-1.77199 1.33571.0.0zm26.20811-.72683c.61747.6152-.20443 1.37632.0.0zm-33.01834.74701c1.1571.45841.30832 1.22728.0.0zm14.54006 1.15671c1.41645.61541 2.42212 3.41926.49178 3.59935-1.54961-.0999-1.66216.71986-1.46256 1.53867.1997.81923.70854 1.6258.37343 1.58176-3.3418.78917-4.48087-1.68332-2.66879-3.90688-.3992-2.05145 1.91987-2.15399 3.26614-2.8129zm13.26882-.47775c.79796 1.43267 3.17311 4.02689.70835 4.88912-1.97076-.16931-3.07722-1.13899-2.62265-3.29124-.28446-1.20964 1.40033-.90682 1.9143-1.59788zm-24.13167.29566c1.42965.75011-1.68152.58647.0.0zm-3.93297-.2628c2.25508 1.41394-1.91419 1.32377.0.0zm33.12143-.39559c1.53134 1.02178-1.51153 1.83879.0.0zm-28.07424.80233c2.15412.5394-1.4339.94421.0.0zm-3.88797-.24801c2.29826.80129-1.47 1.83639.0.0zm-2.29586-.14302c1.55993 1.82775-2.09971.60437.0.0zm9.86227.6693c2.06142.47299-1.04073 1.93266.0.0zm1.14747.21277c2.27115.77623-1.04855 1.22943.0.0zm-1.70023.0991c-.004 1.03366-1.50953.24405-3e-5-1e-5.01.009 3e-5 1e-5 3e-5 1e-5zm14.45778.37679c1.082.2091 3.33211-.94079 2.8373.99988.77419 2.48095-3.92755 3.49-3.16042.74875-.50466-.47766.22354-1.19312.32312-1.74863zm13.4784-.85173c.45159-.12238.86352-.0528 1.24943.13048l-1.02939 2.03279c-1.22006-.67692-1.82895-1.65028-.22004-2.16327zm-36.65067.71424c1.83958 1.88065-2.22604.73156.0.0zm1.18831.0916c2.14193 1.05322-1.71425 1.57814.0.0zm6.46929.42767c1.75274 1.82028-2.14769.78034.0.0zm1.13855.0576c2.05193.98515-1.65266 1.61804.0.0zm24.28589-.8381c1.85879.72605-1.36885 1.91855.0.0zm-30.55021.48468c2.03359 1.45824-1.93449 1.06742.0.0zm7.55319.44222c1.93548 1.38691-1.85343 1.12336.0.0zm-3.43707.04c.5167.55913-.574.8813.0.0zm-1.81072-.0607c1.72823 1.00684-1.93878 1.40208.0.0zm27.58919-.42354c.17289.88561-.97551.91515.0.0zm-14.37387.97611c1.19295.42203-.0962 1.13741.0.0zm15.66891-.37302c.30428.74956-1.14971 1.86333.0.0zm-24.30046.94519c1.89992 1.25074-1.78415 1.39082.0.0zm1.30512.0531c.70249.91818-1.37652.14977.0.0zm7.20376.10176c1.47926 2.02894-1.30181.3872.0.0zm-9.68803-.2052c1.97822 1.47251-2.1383 1.13486.0.0zm24.41664-.71436c1.83396 1.25123-1.80481 1.48639.0.0zm-25.6624.65185c1.48805 1.22109-1.19849.33525.0.0zm-5.16618-.33215c1.9238.78999-1.8543 1.71142.0.0zm-1.24528-.0819c2.154 1.73169-2.18548.85073.0.0zm2.37452.23466c.63724.22906-.94792.55273.0.0zm15.81885.55047c1.16213 1.12173-.7467 1.08816.0.0zm13.06411-.80876c.39253 1.17715-.98792 1.56289.0.0zm-10.27049.96197c.83065 1.10187-1.70701.52058.0.0zm13.0262-.38783c.16459.33248.34869.65097.54817.95922l-.89106.46146c-.002-.43704.10176-.90749.34289-1.42068zm-12.67932 1.21228c.29747.64172-1.00472.45938.0.0zm11.42948-.82057c.0671 1.88058-.97418.50797.0.0zm-14.91858.93869c1.2315.45649-.6105.51497.0.0zm2.30785-.0412c.95095.41953.33827.82589-.0928.82735-.29876 6e-4-.49761-.19584-.0102-.72276.0315-.0335.0657-.0684.10299-.10458l5e-5-1e-5zm-15.66944-.3224c1.76753 1.31364-1.79106 1.29851.0.0zm27.0517-.42363c1.67473 1.26009-1.52072 1.43886.0.0zm-23.23777.64477c1.64449 1.53767-1.69797.25847.0.0zm.85009.11072c1.03572.64089-.77067 1.33818.0.0zm21.59221-.57145c.60266 1.14105-.87009 1.29643.0.0zm-27.27026.27965c.57455 1.28773-1.49015.85397.0.0zm1.96396.17055c2.10013.72171-.91128 1.50277.0.0zm10.12275.68671c1.39533.70736-1.46815.50224.0.0zm10.40991-.18612c1.62446.3011 5.46087 1.77451 1.60279 2.62768-1.29249.92143-3.34206.31463-4.30908-.4935-.97483-.81466-.90743-1.87688 1.85392-1.90303.28505-.0761.56905-.15319.85237-.23115zm-9.54924.3597c1.27493.41932-.54654.42467.0.0zm2.15892.4958c1.38957.70974.81848 1.15705.16186 1.20137-.66699.045-1.33996-.31612-.16186-1.20137zm-2.55068.0453c1.82869.49522-1.47868 1.49016.0.0zm-11.03025-.35398c2.09327.99308-1.67134 1.56552.0.0zm1.41546.0797c1.71161 1.81354-2.11144.71196.0.0zm24.7433-.44005c1.67473 1.66314-1.79314 1.02791.0.0zm-27.30168.29276c1.94334 1.56718-2.10247.87347.0.0zm28.38055-.39184c1.83233 1.35745-1.7351 1.21486.0.0zm-17.24212.82424c1.55526 1.34733-1.46109.41481.0.0zm5.70797.58612c1.41077.32169-.94578.44077.0.0zm-11.11453-.0472c.18346.70869.25545 1.49031.17203 2.17783l-2.39061-.81925c.65198-.37296 1.3754-.7508 1.5965-1.37019.0966.002.52548.01.62208.0116.01.009.0-2e-5.0-2e-5v-2e-5zm-2.59155.33373c.0355.67865-.97837.0603.0.0zm13.37869.2293c.68872.75865.135 1.04923-.242.94797-.25087-.0685-.40794-.31472-.0255-.71526.0704-.0724.15849-.15.26716-.23271h3e-4zm1.06761-.0262c1.57406 1.60685-1.71637 1.05791.0.0zm-4.42383.54482c.42624 1.1396-1.52176.10095.0.0zm-5.47051.47086c2.7926-.032 3.98989.6681 4.2804 1.54746l-4.96193-.40825c-.23539-.71036-.21269-1.27883.68153-1.13921zm5.78032.20266c-.16293 1.59166-.92256.40103.0.0zm1.29045.0125c1.43881 1.14968-1.52536 1.45966.0.0zm3.45091-.0698c.13262.61377-1.00486.30215.0.0zm-5.91093.0997c1.68652 1.11157-1.67178 1.52849.0.0zm4.69237-.0493c1.53291.55116-.79868.53094.0.0zm2.56423.072c.59794.0237 1.02681.24684 1.31814.57234l-2.31511.0333c.28387-.24281.62409-.45507.99695-.60567h3e-5z" id="path67970-2" class="bra_accent" clip-path="url(#clipPath14254)"/><path d="m236.66174 232.36493c-6.57103.69942-10.3825 11.07855-5.29498 19.38138 4.45462 11.63978 6.94631 9.09233 15.32572 12.201 5.04822-.83084 18.50881-4.28428 21.07355-18.03303-10.24985-2.62455-20.52668-5.68061-31.10429-13.54935zm2.64109 3.92766c-1.1016.35345-1.92575.62157-1.24921 1.02915.0227-.86162-.18148-1.76832-.34469-2.59454zm-5.28823-2.57236c1.20864.80109-.7427 2.08725.0 9e-5.009.0106.0-9e-5.0-9e-5zm2.20192.12332c1.92489 1.5485-1.72185 1.67354.0.0zm-1.0721-.0423c1.45689 1.9852-1.63547 1.27296.0.0zm.56217 1.53371c1.51175 2.13336-1.94579.9529.0.0zm-1.16008-.0276c1.72783 1.63735-1.70004 1.32201.0.0zm-.71864.24895c.24505 1.39503-1.41302.94611.0.0zm.0671 1.03994c1.6023.49576-1.11997.65136.0.0zm2.26658.1708c1.49903 1.30395-1.62004.7976.0.0zm-1.08691-.0693c1.33992 1.11937-1.49536.58054.0.0zm-3.84827.84437c.84731.51698.92849 1.4322.66673 1.99838-.3026.65451-1.01271.81605-1.62107-.48829zm9.87714.97748c.36851 2.08154-1.41185.49703.0.0zm-1.13964-.0547c1.46235 1.55472-1.71421 1.60071.0.0zm-6.61639-.36979c1.46024 1.00542-1.16074 1.66773.0.0zm16.62733 4.69833c-.14221.49111-.42821.99315-.89289 1.48422-1.2701 1.66693-1.64244 1.01259-1.71013-.27501-.0328-.62383.012-1.3979.0589-2.11036zm-15.74249-4.46513c1.8956.89035-1.01382 1.54552.0.0zm4.87938.56314c.22998 1.61287-1.76402.0635.0.0zm-3.92366-.14551c1.35007.39844-.31759.98837.0.0zm2.61118.34738c.84245.50128-.93542.3823.0.0zm4.2893.64885c2.14317.99387 4.33775 2.52651.77007 4.23972-1.91281 1.77889-3.51895 2.34343-2.88623-1.13962-.56518-1.76652 1.57524-1.44099 2.11616-3.1001zm-1.72423.19653c.2817.52082-.93479.36416.0.0zm-4.42174-.29433c1.46925 1.54097-1.60296 1.35224.0.0zm-2.15422-.17593c1.72888 1.16833-1.47185 1.83596.0.0zm1.20191.10189c1.42052 2.12228-1.87224.87668.0.0zm4.21137.32688c1.65384.81128-1.40779.82879.0.0zm-1.84041.96852c2.1979.18402 2.612 4.18421 1.48483 5.57171-1.76855 1.40415-2.92642.41668-3.29242-1.1063-.36478-1.51791.058-3.59957 1.6955-4.31906-2e-5 4e-5.11211-.14639.11209-.14635zm-3.01988-.0383c1.31422 1.44784-1.6645 1.69694.0.0zm-1.07021-.0648c1.57036 1.48848-1.56904 1.54391.0.0zm-.67734.3457c.0874 1.49549-1.71917.29587.0.0zm19.54915 2.41975c.0166 1.30382-.68207 3.24072.21275 4.25866-2.62826.48345-3.56785-2.67521-2.05581-4.85759zm-21.17549-2.24729c1.44608.33354-.78048.6319.0.0zm-.37704.56786c.86098.60785.014 1.99317.0.0zm4.1477.43976c.1051.99321-.95758.88491.0.0zm-3.09441-.30366c1.3264 1.94009-1.52318 1.12575.0.0zm1.01102.104c1.30271 1.13506-1.41616 1.17515.0.0zm1.10726.14253c1.31133 1.28385-1.42304.48372.0.0zm11.22883 1.51883c.26861.75736-1.51106.70965.0.0zM232.1348 243.4268c.62227.92111-1.24413.39057.0.0zm21.6591.83567c1.05129.44884.59204.9465.0882 1.08709-.49582.13836-1.02632-.082-.0882-1.08709zm2.84338-.16236c1.03818 2.43372-2.14821.56306.0.0zm-12.39451.425c.65968 2.26318-2.02065.47609.0.0zm10.92911-.30099c1.00481.67707.49702 1.04336-.0288 1.05883-.51455.0151-1.02152-.32193.0288-1.05883zm-8.95136.42492c.32087 1.17039-.0338 3.78137-.61477 4.98796-.005.0102-.0103.0204-.0156.0304-.3505.71358-.87556.92458-1.49279-.0798-.12685-.23946-.25486-.54583-.38057-.92833.8424-1.05731 1.40839-2.38164 2.21036-3.5743.0942-.14727.19165-.2928.29331-.43588l4e-5-9e-5zm-16.2436-1.18303c.55521 1.88595 1.4857 1.67008 2.45102 1.26412.95279-.40069 1.93079-.99047 2.39274.20969 1.15251 2.19863-.19965 2.1325-1.49431 1.99306-1.3002-.14003-2.55947-.35293-1.36416 1.5449.0714.0984.15039.20245.23731.31236 2.38159 1.27616 4.46549 3.14079.98135 3.81281-.28044-.71728-.8081-1.19555-1.38948-1.6271-1.57939-3.8602-1.33028-3.01607-1.91998-6.74975.0331-.25274.0681-.50606.10554-.76009zm13.13552 1.71656c.0639.69189-.91949.32366.0.0zm.15567.58084c.79703.73929.38947 1.11602-.0261 1.12091-.40532.005-.8107-.3621.0261-1.12091zm11.11042-.21997c.93443.63004.46832 1.05224-.0128 1.10868-.47262.0554-.9446-.25627.0128-1.10868zm4.07856-.25262c1.97868 1.22321-1.96636 1.71832.0.0zm4.24804-.29679c2.07302 1.19772-2.01332 1.7304.0.0zm-1.36208.10405c2.20823 1.36786-2.49548 1.55886.0.0zm-5.55697.37858c1.58845 1.77136-2.08657 1.25222.0.0zm4.14108-.26942c1.69175 1.73944-2.16583 1.27472.0.0zm-6.68572.52094c.96611.49107-.39601 1.33459.0.0zm-10.8294.10563c.42987.94664-.11064 1.1115-.49377.95504-.37908-.1548-.59624-.62786.49377-.95504zm21.54105-.79144c1.87063 1.7495-1.45637 1.007.0.0zm-16.6763 1.04178c1.62767-.13183 3.1667 1.82161 3.62595 3.18584.008.0666.0163.1318.0226.19584.24346 1.51685-.35168 2.31984-2.1683 2.03653-.35789-.51896-.67284-1.17345-.93298-1.90322-.31753-1.12217-.50014-2.37136-.54732-3.51499zm-6.00542.33301c.0483.69611-.80822.29987.0.0zm12.38595.48351c1.10181.46056-.0341 1.92813.0.0zm-10.99694.19708c1.16689 1.36808-1.59298 1.17747.0.0zm-1.19637-.0802c.71885.79558.31024 1.11895-.0865 1.08175-.38692-.0363-.75233-.43241.0865-1.08175zm13.51326-.14933c.99586.66281.47497 1.05304-.0511 1.08447-.51657.0309-1.01836-.2978.0511-1.08447zm4.12565-.26665c2.09502 1.3046-2.21049 1.58193.0.0zm1.38641-.0968c1.88963 1.33421-2.0725 1.54777.0.0zm1.4851-.10676c1.96833 1.19087-2.08462 1.70498.0.0zm1.41865-.10439c2.19234 1.26999-2.26385 1.61261.0.0zm-23.04198.65302c.8056.63885.40331 1.02898-.009 1.06626-.40252.0364-.81114-.27974.009-1.06626zm17.46355-.24073c1.51331.78879-1.73034 2.06695.0.0zm-1.74442.18766c.44607.89469-1.00466 1.21895.0.0zm-16.46514.46346c.13066 1.23339-1.57383.34658.0.0zm27.07716-.71779c.60925.45059-1.32079.87875.0.0zm-24.6918 1.75208c.36352.81474-1.38871.63505.0.0zm13.62417-.226c.62187.53979.62843.85831.40403 1.01252-.18105.12166-.52572.13071-.78909.0491-.41211-.13978-.6129-.52668.38506-1.06163zm-17.96499-.1068c.43842.62911.42383.9365.24656 1.04485-.1262.0759-.34727.0436-.53369-.0519-.35072-.19249-.55955-.63618.28713-.99297v1e-5zm2.01713.18524c.82354.52187.54728.92391.16465 1.03556-.16359.0456-.34847.0366-.46914-.0408-.18403-.12794-.1983-.43696.30449-.99479v-2e-5zm1.23794.10218c.46073.62374.44824.93096.26247 1.04236-.13264.0778-.36468.0486-.55983-.0444-.36789-.18782-.58719-.6285.29736-.998v2e-5zm17.33784-.32868c1.07192.37562.73109.82258.24613.99889-.20937.0736-.4467.0967-.60215.0405-.24005-.0952-.26906-.39973.35602-1.03934v-2e-5zm1.585-.10908c.61031.5405.60459.84865.37203.9901-.16861.0999-.46558.10969-.7162.0498-.47593-.12431-.77315-.52482.34417-1.03996v2e-5zm2.69348-.19329c1.11766.36673.76575.81854.26529.99848-.21707.0755-.46355.10056-.62529.0453-.25076-.0936-.28252-.39834.36-1.04376zm-23.83185.44386c.77395.86578.33035 1.1018-.10315.99947-.42155-.0995-.81253-.53377.10315-.99947zm22.52834-.34731c2.14598 1.43294-2.39726 1.26406.0.0zm-6.84605.46928c.9333.42614-.28353.70422.0.0zM236.54358 248.059c1.35367 1.24751-1.45956 1.05121.0.0zm20.8794.18154c.37153 1.13302-.47091.6591.0.0zm8.42851-.60049c1.06991.97963-1.93139 1.24231-2e-5.0.0111.009 2e-5.0 2e-5.0zm-13.34056.92978c.44893.21057.83946.46199 1.16809.74942 1.11365.87296 1.57792 2.0797 1.31307 3.44852 1.04347 3.47649-3.52839-2.31031-3.2978-1.63035.14394-.41363-.0766-1.13299-.083-1.70551.0219-.53459.19954-.93656.89967-.86208h1e-5zm-16.76171-.42942c.47978 1.60036-1.72152-.0682.0.0zm-2.31796-.1093c1.30925.8167-1.36583.40175.0.0zm.9756.10649c.55702.46419.38497.62716.11427.61925-.0357-.001-.0734-.005-.11124-.0115-.32964-.0599-.6696-.32996-.003-.60724v-46e-5zm8.6212 1.17313c.18378.0671.34666.14872.4901.24216 1.12485.67551 1.1475 1.95535.71946 2.63704-.42186.67183-1.33268.8233-2.01964-.78172-.71435-1.00623-.15966-1.42336.53731-1.90478.089-.0625.18064-.12635.27277-.1927zm-6.02195-.10199c.68738.65363.30299 1.01553-.0692 1.03499-.36503.0191-.71203-.30485.0692-1.03499zm22.00334-.0364c1.84338 1.04366-2.06965 1.74522.0.0zm-1.42114.10265c1.80455 1.16139-.9083 1.19255.0.0zm-17.37365.23752c.84443.52095-1.15053.42639.0.0zm-5.2724-.4873c1.24113 1.23554-1.46683.3377.0.0zm1.00109.10527c1.52481 1.36884-1.28132.95291.0.0zm2.10964.21018c.71957.66979.31874.97066-.0738.95418-.38329-.0161-.74691-.34971.0738-.95418zm1.1084.11305c1.27841.9934-1.32131.75979.0.0zm22.6665-.43744c2.02561.40688-1.87492 1.52283.0.0zm-1.40051.10273c1.88185 1.6222-2.09009 1.04182.0.0zm4.52355-.22174c1.22335 1.15709-1.72785 1.41069.0.0zm-18.176 1.19338c.68219.6324-.22401 1.28991.0.0zm-5.55138.58575c.8468 1.56009 3.21849 4.1536.68077 4.55817-1.97988-.42415-3.00838-1.42625-2.57128-3.35987-.27694-1.17378 1.37359-.62586 1.89051-1.1983zm5.3807.40966c.83578.52945.42585.92714.001.99666-.41631.0682-.83874-.19172-.001-.99666zm17.77554-.93687c.73958 1.05607-1.28041 1.13649.0.0zm-7.91353.66758c1.82286.67549-.44957 1.19493.0.0zm5.90122-.11308c1.11018.56421-.98246.80074.0.0zm-26.33963.46642c.95318.3403 3.12773-.38408 2.64837 1.35274.34598 1.13281-.57925 1.81706-1.49822 1.91563-.91866.0985-1.79844-.39489-1.43955-1.65932-.45624-.51153.20211-1.09236.2894-1.60905zm13.96842.95116c1.88557-.30967 3.24594 1.55236 4.65395 2.31488-.91876.64747-3.0773.25827-4.4594-.38269-1.38915-.64422-2.05667-1.5579-.19455-1.93219zm6.39339-.32375c1.02898.85044-.83953 1.60195.0.0zm-10.43214.51885c1.44571.56789.0584 1.13292-.29579.87144-.10573-.085-.1369-.23068-.0134-.45151.0609-.11649.16052-.2555.30934-.41993h-12e-5zm11.60893-.58132c1.16985.3521.72882.78338.21357.91111-.51374.12736-1.09626-.0472-.21357-.91111zm2.94349-.18778c2.07126 1.52452-2.40605 1.01466.0.0zm1.31548-.0854c2.42313.70072-1.84602 1.75872.0.0zm-2.79438.27865c1.92812.89684-1.76551 1.10023.0.0zm-13.79465.94006c.17816.82552-1.07382.6793.0.0zm1.40641.66112c.31565.67866-1.29523 1.59857.0.0zm11.68254-.54446c2.20002.96914-1.9375 1.50264.0.0zm-12.84526.62564c.0725.0511.13719.0996.19457.14587.59009.43674.38417.68772.0303.76329-.54296.0671-1.37977-.29939-.22447-.90916h-39e-5zm11.5241-.54118c1.13117.57894.55917.90411-.015.92229-.57183.0181-1.13341-.26859.015-.92229zm4.22943-.25651c2.33521 1.16612-2.39986 1.32867.0.0zm-1.42608.0955c1.85527 1.46289-2.07861 1.08891.0.0zm2.58373-.0567c.88564.99615-.73786 1.30322.0.0zm-17.80151.826c.39872 1.09553-1.08557 1.24653.0.0zm-9.99916-.59247c.73651 1.13393-1.52295.28897.0.0zm12.99918 1.3508c1.66194 2.87344 5.44812 4.43221 6.41353 7.5476l-1.6596.32272c-.10729-.88801-.13247-1.82086-1.28026-2.39654-1.66338-1.57127-5.13146-2.91586-3.47367-5.47378zM234.8959 253.709c.26129.63051-.90249.31242.0.0zm11.30872.81877c.0142.99472-.38742.94203-.46169.62706-.0104-.045-.0138-.0943-.007-.14481.0213-.16976.14805-.3638.46891-.48225h-17e-5zm-12.35866-.87596c1.45331.85591-1.29512 1.17569.0.0zm25.24855.25341c2.21646 1.09496-2.08746 1.32645.0.0zm-14.22667.61689c.87762.66772.47982.92627.0349.88814-.43026-.0369-.874-.36889-.0349-.88814zm15.61488-.69417c2.08389 1.14862-2.01799 1.27263.0.0zm1.48678-.0835c2.06141 1.02499-1.97295 1.43354.0.0zm-4.17601.24628c1.7788 1.27223-1.98274.72317.0.0zm-13.7809.57457c.6072 1.07655-.9497 1.00716.0.0zm-4.83541.15217c.80116.25139 2.15817.84535 2.79699 1.35871.65225.52415.61586 1.01239-1.30354 1.13625-1.35878.64869-3.22689-.0968-4.07353-.93024-.86317-.84973-.73884-1.79603 1.76353-1.47234 4e-4-4e-5.81614-.0923.81655-.0924zm16.85132.42237c3.37944.5744 3.69024 2.93954.12243 2.52786-1.32816.14739-3.38822-.59509-4.40084-1.26276-1.03572-.6829-1.01579-1.26681 1.70062-.84916.87313-.016 1.70871-.25115 2.57778-.41594.0111.009 2e-5.0 2e-5.0zm3.86533-.13987c1.46643.45552-1.5198.39382.0.0zm-15.47114.61393c.85222.82161.39691.98694-.0832.85469-.45865-.12633-.8918-.54009.0832-.85469zm1.16531.0696c.0713.0522.13488.1015.19126.14813.57237.43271.38134.64609.0413.69235-.52534.021-1.35571-.37965-.23284-.84048h29e-5zm15.80039-.74316c1.19075.51776-1.90426.34733.0.0zm-27.08614.51397c1.24361.42409-.8466.31491.0.0zm26.75184 1.29436.35142-.6713zm-17.28574-.1899c1.47807.91979-1.05923 1.25584.0.0zm2.36126.16699c1.25852.84265.0487 1.08752-.24259.7762-.0861-.0977-.11492-.23446-.0287-.40828.0487-.10614.13536-.22859.27126-.36792h6e-5zM234.95142 255.969c1.36224 1.59174-1.56367.7956.0.0zm10.06717.72236c.82399.80551.42221.98041-.0204.85868-.42341-.11646-.84278-.52084.0204-.85868zm.59297 1.07208c.11987.0643.22201.125.30824.18209.60281.34974.40138.59475.0529.67953-.50947.0685-1.28947-.2249-.36163-.86162h46e-5zm-1.1406-.065c.84472.73795.46449.95787.0319.88032-.41564-.0745-.84474-.44258-.0319-.88032zm2.4352.0549c.87787.458.4795.81411.0533.88049-.42136.0656-.8603-.15831-.0533-.88049zm-4.82423-.071c.7313.49139 1.57347 1.51551 1.79617 2.28551.22429.77547-.17465 1.32994-1.87871.92001-1.20309-2.27087-4.35303.71622-3.00749-2.23433-.0539-1.20581 2.23543-.58666 3.09003-.97119zm-5.38008-.38c1.46531-.25361 1.87125 1.19434 1.69539 2.26412l-2.53602-1.90106c.24195-.15028.5251-.27624.84066-.36306h-2e-5zm23.32634.0853c.32211.32418.39734.38366.0151.38931-.72074-.0297-1.21642-.0626-.0151-.38931zm-14.81937 1.42708c.91974.78284.44716.94633-.0562.8255-.48158-.11562-.95056-.50888.0562-.8255zm1.10753.0344c1.49011.48095.11614 1.01674-.25727.78588-.11118-.0785-.14954-.20988-.0351-.40521.0561-.1055.15017-.23165.29261-.38067h-28e-5zm1.26238-.0287c1.02601.51157.60282.78393.12143.79411-.47335.01-.9869-.24178-.12143-.79411zm.73637-.0211c1.5984.66588.18949 1.53069.0.0zm8.22103-.20054c2.28823.65634-1.83368.46519.0.0zm1.38617-.0563c2.16669.60316-1.82239 1.09002.0.0zm-4.76618.32331c1.47862-.23984 2.3647.68433 2.84562 1.8346l-1.57533.35738c-.3757-.74802-.91726-1.43812-1.27029-2.19192v-4e-5zm-6.0853.94459c.87524.44445.46437.78746.0351.85048-.42581.0625-.86243-.15449-.0351-.85048zm2.35767-.10258c1.10539.56604.70706.84592.2227.84583-.47941-9e-5-1.03042-.27841-.2227-.84583zm-3.70408.13332c.15079.0467.2709.0903.36484.13043.44885.148.28136.28248.0294.31576-.29099.005-.68356-.13034-.39378-.44619h-45e-5zm2.59452-.0777c.86132.67354.43048.90773-.0138.85722-.43562-.0495-.86946-.38235.0138-.85722zm-.62619 1.02196c.84916.063.32697.48195.0.0zm2.58077-.0851c1.89126.94765-1.63984 1.2736.0.0zm-1.35245.0717c1.90803.89028-1.17616.81815.0.0zm-3.63392.10199c.41582.27146.7312.52413.9598.75889.63865.60029.5732 1.12264.15165 1.52591.64592-.29427-3.98101-.51186-3.54339-1.59597.82797-.18837 1.62605-.43526 2.43194-.68883zm-4.92821-.18051c1.97061.86718-.93292.93808.0.0zm9.40291 1.04789c1.10434.40015.25866.64822.0.0zm1.14923-.0287c1.86614.75404-1.39334 1.40467.0.0zm-2.6293.46532c.38967.13444.71527.40121.99825.72394l-.71935-.0838c-.0839-.21043-.1753-.42447-.2789-.64015z" id="path67970-2-5" class="bra_accent" clip-path="url(#clipPath14281)"/></g><g clip-path="url(#clipPath65823)" id="g13739"><g style="display:inline" data-transform="boob_outfit" id="g13737"><path d="m353.61237 165.06559c-2.10894 3.79407-9.10385 20.33869-13.18907 32.28314-4.16639 12.18179-7.63982 23.89727-10.44515 25.29682 2.23581-.22881 2.76187.004 5.07418 1.0567-2.44218-3.0761 18.26487-53.61637 20.44435-58.49828z" id="path13725" class="bra_primary bra_strap2"/><path class="bra_primary bra_strap1" id="path13727" d="m358.66252 164.3578c-7.16956 10.03289-22.93809 55.19462-28.75682 58.30085 2.4756-.30368 3.22064.16488 5.10386 1.03894-1.01545-.8565.70811-5.49264 3.29068-11.63815 5.93571-14.12469 19.57902-42.09959 21.75513-47.62454z"/><path class="bra_primary bra_strap3" id="path13729" d="m348.83335 164.7452c-1.53415 7.03338-6.89123 25.48341-10.65349 37.33074-3.38411 10.65653-5.86875 19.32024-8.25792 20.56699 3.01948-.28238 3.59503.46766 5.12628 1.0769-3.05132-3.8234 10.83523-32.96456 15.09143-58.86015z"/><path class="bra_primary bra_strap2" id="path13731" d="m286.34883 180.48936c-4.71063 5.73681-34.26733 34.23203-45.46794 48.51322.44514-.18802 1.59226-.83055 2.95799-1.78639 1.46221-2.77712 4.87857-6.63259 7.04067-9.27033 15.47964-14.46365 27.94408-27.59537 36.11615-36.21327z"/><path d="m284.80218 177.84005c-4.28914 6.59036-34.76869 39.42286-44.03566 51.23926 1.02367-.44221 1.96865-1.38442 3.11254-1.82663 1.88939-3.3695 4.5265-6.86683 7.73177-10.01545 12.74541-12.52009 27.08516-28.31829 34.95114-40.0446z" id="path13733" class="bra_primary bra_strap1"/><path d="m288.57955 183.03777c-7.62123 7.212-33.19454 26.21231-47.55981 45.84421l2.87854-1.67001c1.74222-3.22962 4.54219-6.87314 8.99199-11.16225 16.72778-14.84427 21.5115-19.30199 36.69177-33.13333z" id="path13735" class="bra_primary bra_strap3"/></g></g></svg>