<svg viewBox="0 0 560 1e3"><g id="g2999" transform="matrix(1.0081159,0,0,1.0081159,-2.6203467,-1.6676415)" style="fill-opacity:1;fill:#c0c6c7;stroke-opacity:1;stroke:none"/><g id="g3009" style="fill-opacity:1;fill:#c0c6c7;stroke-opacity:1;stroke:none" data-transform="boob_left"><path class="shadow" id="path3001" d="m320.838 300.42301c0 2.87694-3.22596 6.1029-6.1029 6.1029-2.87695.0-6.1029-3.22596-6.1029-6.1029.0-2.87695 3.22595-6.10291 6.1029-6.10291 2.87694.0 6.1029 3.22596 6.1029 6.10291z"/><path class="shadow" id="path3003" d="m283.71672 307.00571c-2.87695.0-6.26071-3.23031-6.10291-6.1029.17577-3.20337 4.63316-6.01926 7.5101-6.01926-2.62789 4.62834-2.98229 6.9904-1.40689 12.12216z"/><path d="m320.28319 300.42301c0 2.61539-2.93269 5.54809-5.54809 5.54809s-5.54809-2.9327-5.54809-5.54809c0-2.6154 2.93269-5.5481 5.54809-5.5481s5.54809 2.9327 5.54809 5.5481z" id="path3005" class="steel_piercing"/><path d="m283.71244 306.4509c-2.6154.0-5.68401-2.93625-5.5481-5.54809.15246-2.93197 4.22542-5.54809 6.84082-5.54809-2.74753 4.21399-2.80783 6.40674-1.29257 11.09618z" id="path3007" class="steel_piercing"/></g><g style="display:inline" id="g3019" data-transform="boob_right"><path d="m166.29885 318.09995c0 2.89033-3.21258 6.1596-6.1029 6.1596s-6.1029-3.26927-6.1029-6.1596 3.21258-6.15959 6.1029-6.15959 6.1029 3.26926 6.1029 6.15959z" id="path3011" class="shadow"/><path d="m138.41836 322.14978c-1.31694-1.20508-2.78451-2.15494-2.78451-3.7218.0-2.90367 3.22596-6.1596 6.1029-6.1596-2.99581 3.44609-3.62277 4.3199-3.31839 9.8814z" id="path3013" class="shadow"/><path class="steel_piercing" id="path3015" d="m165.74404 318.09995c0 2.62759-2.9205 5.59964-5.54809 5.59964s-5.54809-2.97205-5.54809-5.59964c0-2.62754 2.9205-5.59963 5.54809-5.59963s5.54809 2.97209 5.54809 5.59963z"/><path class="steel_piercing" id="path3017" d="m138.37899 322.11278c-1.19723-1.09551-2.46773-2.3385-2.46773-3.76289.0-2.6397 2.77801-5.71013 5.39341-5.71013-1.9038 3.26496-2.81998 4.05509-2.92568 9.47302z"/></g></svg>