<svg viewBox="0 0 560 1e3"><path id="path1870" class="shadow" d="m319.82283 81.675368s-.65917-8.673598 2.23411-11.127725c7.14334-5.724641 18.94094-7.545827 30.37885-5.60319 7.68733.857379 53.28065 12.258095 58.17741 68.148697C404.27037 81.183182 358.53094 67.513851 354.69664 69.300816 369.24025 70.199709 457.7122 108.12592 403.91606 304.6c21.96478-94.05504 13.88231-138.81409 2.62408-158.36045 24.12376 55.30107-17.46485 145.74995 1.74519 188.94352-17.12403-29.31398-7.49415-79.31753-12.03945-106.71949 3.37199 39.54901-20.73196 122.22655 21.05195 122.3318-31.82187 2.54373-32.99476-59.16049-33.7548-62.90312.60569 18.5066.68398 43.88267 5.57256 62.19475-44.3735-111.09609 37.30742-180.76178-66.61553-264.766873z"/><path d="m319.82283 81.675368s-.65917-8.673598 2.23411-11.127725c7.63242-5.072538 19.45177-6.864727 30.37885-5.60319 7.42264.85695 52.57662 12.203348 58.17741 68.148697-5.72719-52.212727-51.84731-65.639554-55.91656-63.792334 13.83781.898893 102.5555 38.756764 49.21942 235.299184 22.36584-94.04121 13.88475-138.81401 2.62408-158.36045 22.64943 56.03823-17.85233 145.94369 1.74519 188.94352-16.91022-29.29022-6.98477-79.26093-12.03945-106.71949 2.56264 39.88624-20.81182 122.25983 21.05195 122.3318-31.67293 2.51665-32.30196-59.28645-33.7548-62.90312.17568 18.56803.57097 43.89881 5.57256 62.19475-43.20507-111.21293 37.68242-183.63678-66.61553-264.766873z" class="hair" id="path3021-5-5"/><path id="path1872" class="shadow" d="m290.42061 81.749671s.41274-8.673598-1.39887-11.127724c-4.19184-5.392817-11.47281-7.250286-19.02162-5.60319-4.79686.85695-33.6356 12.203347-36.4276 68.148693 4.19589-51.951375 32.62103-65.57226 35.01198-63.79233-9.38927.717704-64.75109 38.99255-30.81858 235.29918-13.56291-94.08645-8.38357-139.0002-1.64306-158.36045-14.84497 56.20402 11.17751 145.94387-1.09275 188.94353 10.68537-29.33183 4.66704-79.38673 7.53847-106.71949-2.09638 40.03378 13.00067 122.269-13.18161 122.3318 19.86619 2.52645 20.55857-59.19136 21.13546-62.90312-.45127 18.56803-.38185 43.89881-3.48925 62.19475 27.15233-111.84774-21.83113-185.64689 41.71109-264.76688z"/><path d="m290.42061 81.749671s.41274-8.673598-1.39887-11.127724c-4.77902-5.072538-12.17967-6.864727-19.02162-5.60319-4.64766.85695-32.92067 12.203347-36.4276 68.148693 3.58607-52.212724 32.46402-65.63955 35.01198-63.79233-8.66451.898893-64.21479 38.75676-30.81858 235.29918-14.0043-94.0412-8.69389-138.81401-1.64306-158.36045-14.18187 56.03824 11.17818 145.9437-1.09275 188.94353 10.58828-29.29022 4.3735-79.26093 7.53847-106.71949-1.60459 39.88624 13.03125 122.25983-13.18161 122.3318 19.8319 2.51665 20.22577-59.28645 21.13546-62.90312-.11 18.56803-.35751 43.89881-3.48925 62.19475 27.05271-111.21293-23.59471-183.63679 41.71109-264.76688z" class="hair" id="path3021-5-7-5"/></svg>