<svg viewBox="0 0 560 1e3"><defs><filter style="color-interpolation-filters:sRGB" id="filter13596"><feGaussianBlur stdDeviation="1 1" result="blur" id="feGaussianBlur13594"/></filter><clipPath clipPathUnits="userSpaceOnUse" id="clipPath13600"><path style="fill-opacity:.45166961;fill:#00e0e8" id="path13602" d="m201.9 382.1c1.3.9 1.3 3 1.3 3.4.1 4.2 10.7 25.7 31.6 43.9 15.7 13.6 46.1 33.1 56.5 24.5 1.8-1.6 2.5-3.7 2.9-5.1 4.7-15.3-18.1-35-24.9-40.9-22-19.1-34.8-30.1-39.6-33.4-.6-.4-2.9-1.8-3.4-4.2-.3-1.8.6-2.8.9-4.2.5-4.2-6.6-9.1-11.8-11.4-4-1.7-13-5.6-19-1.3-9.4 6.8-3.4 27.8 1.3 28.7 1.2.3 2.8-.9 4.2.0z"/></clipPath></defs><path d="m202.1 382.1c1.2.8 1.2 2.9 1.2 3.2.0 6.2 11.8 27.5 22.6 38 32.5 31.5 64.6 39.6 61.4 25.2-.4-2.2 2.7-3.4 3.1-4.7 4.2-13.5-16.1-34-38.6-52.7-18.8-15.7-19.3-14.9-23.6-17.8-.6-.4-1.6-1.1-1.9-3.1-.3-1.6 1.1-3.5 1.2-4.8.8-4.9-6-8.6-12.1-11.7-4.8-2.4-14.3-5.3-19.5-1.2-11.2 8.9-2.4 32.9 2.5 30.2 1-.3 2.6-1.4 3.7-.6z" class="shadow" id="XMLID_880_"/><path d="m201.9 382.1c1.3.9 1.3 3 1.3 3.4.1 4.2 10.7 25.7 31.6 43.9 15.7 13.6 46.1 33.1 56.5 24.5 1.8-1.6 2.5-3.7 2.9-5.1 4.7-15.3-18.1-35-24.9-40.9-22-19.1-34.8-30.1-39.6-33.4-.6-.4-2.9-1.8-3.4-4.2-.3-1.8.6-2.8.9-4.2.5-4.2-6.6-9.1-11.8-11.4-4-1.7-13-5.6-19-1.3-9.4 6.8-3.4 27.8 1.3 28.7 1.2.3 2.8-.9 4.2.0z" class="skin penis" id="XMLID_881_"/><g id="g13592" style="filter:url(#filter13596)" clip-path="url(#clipPath13600)"><path class="skin_highlight" id="path7046-2-8-2-6" d="m279.12304 416.60112c-9.47768-1.09955-41.77358-28.92381-49.75179-37.55979-9.44232-12.82921 42.69705-10.92923 49.75179 37.55979z"/><path class="skin_shade" d="m202.34835 385.16642c-22.67994-2.5456 33.80477 100.19122 78.11526 70.51274-11.09855-3.75371-63.18692-45.49835-78.11526-70.51274z" id="path7048-5-1-3-3"/><path d="m194.67052 354.49937c-5.41258-16.07552 39.37374-8.31137 32.52638 12.09276 2.59464-2.88209-21.49406-14.56292-32.52638-12.09276z" id="path7134-38-2-1" class="skin_highlight"/><path id="path13470-1" d="m190.54484 361.24591c-12.0906-6.98046-2.08584 37.68931 11.18831 21.00896-6.34556-5.36245-6.95829-9.36398-11.18831-21.00896z" class="skin_shade"/><path id="path18131" d="m203.97335 382.91642c-22.67994-2.5456 33.80477 100.19122 78.11526 70.51274-11.09855-3.75371-63.18692-45.49835-78.11526-70.51274z" class="skin_shade"/><path d="m278.12304 418.10112c-9.47768-1.09955-41.77358-28.92381-49.75179-37.55979-9.44232-12.82921 42.69705-10.92923 49.75179 37.55979z" id="path18133" class="skin_highlight"/><path class="skin_shade" d="m190.54484 361.24591c-12.0906-6.98046-2.08584 37.68931 11.18831 21.00896-6.34556-5.36245-6.95829-9.36398-11.18831-21.00896z" id="path18135"/><path class="skin_highlight" id="path18137" d="m194.67052 354.49937c-5.41258-16.07552 39.37374-8.31137 32.52638 12.09276 2.59464-2.88209-21.49406-14.56292-32.52638-12.09276z"/></g></svg>