<svg viewBox="0 0 560 1e3"><path d="m305.80825 157.94409c-.8548-.20715-1.63651 1.18171-2.24611 1.38466-1.65756.55182-3.23335.94823-4.6915 1.22616-.25799.0491-.47638-.0203-.72681.0217-.17097.0286-.37606.17057-.54336.19602-.56454.0858-1.10774.15389-1.62721.20654-.24658.025-.48781-.0684-.72344-.0501-.24098.0187-.4761.14908-.70508.16146-1.01288.0547-1.64256.0771-2.18978.0581-.33886-.0117-.63527-.73644-.99312-.59295-.2332.0935-.341.51787-.20093.72644.2359.35127 1.08425.12218 1.26053.14968 3.52088.54577 8.29972-.19908 12.32373-2.04708 1.11562-.51234 1.36939-.11604 1.54245-.6459.096-.29404-.17874-.72172-.47937-.79457z" class="shadow" id="path1703"/><path d="m301.48312 165.24997c-2.02347.86053-3.10624.92883-5.4758.64055 2.47756 1.53907 4.80114 1.46264 5.4758-.64055z" class="shadow" id="path1849"/><path d="m302.18075 156.95554c-1.9255-.43023-2.47083-.86137-4.58948.56243 1.20293-.76676 2.88849-.83196 4.58948-.56243z" class="shadow" id="path1851"/><path id="path1853" class="shadow" d="m296.50014 157.54366c-1.4946-.56084-1.90245-.29834-3.21761.49033 1.26388-.42143 1.56627-.69239 3.21761-.49033z"/><path d="m305.00323 159.5936c-1.57237.33775-3.25518 2.42923-5.72311 3.3054 2.88785 1.72878 3.97733-2.30303 5.72311-3.3054z" class="highlight2" id="path1464-41"/><path d="m297.54742 164.54976c-2.43561-2.0083-2.72271-.94021-5.37767-2.86824.45583.53411 2.339 2.89509 5.37767 2.86824z" class="highlight2" id="path1466-5"/><path d="m296.55384 158.8863c-.78327.45697-1.68507.80569-2.66354.0334 1.02344-.85695 1.58478-.42485 2.66354-.0334z" class="highlight2" id="path1468-0"/></svg>