<svg viewBox="0 0 560 1e3"><defs><clipPath clipPathUnits="userSpaceOnUse" id="clipPathTorsoUnnatural"><path style="display:inline;fill-opacity:1;fill:#0ff;opacity:1" d="m330.55078 146.24219-33.94726 3.49414c-.60023 11.74644 4.71263 22.22405 4.14257 32.1582-3.83498 2.97182-5.98164 3.47574-13.82226 5.20313-.50811.12713-.99038.25932-1.45703.39453-3.72264.82253-9.04126 2.01096-14.32032 3.34179-8.65971 10.94361-15.77788 17.65645-24.83789 40.22852-7.97663 19.22419-2.76622 39.20128 6.8418 56.00977-1.06764 11.32585-1.52592 26.55771 1 35.50195-11.37059 21.52353-15.89766 23.525-18.09766 43.625-1.1 10.1-2.23134 20.37109-6.00781 40.87109 1.79918 21.68192 24.06434 28.08621 33.55274 33.19727 14.43169 10.04215 15.75568 13.80686 22.99414 21.73047 2.40278 1.2769 6.48148.50653 7.11523-.33399l1.04492-.0117c1.31243 1.17872 7.86741 1.71406 11.33008.17774 1.25908-5.51105 3.06526-22.40357 25.5332-37.0293 9.99479-6.9207 28.66489-25.38486 47.28125-34.05664-9.1-20.7-12.62221-28.06668-19.58398-39.49609-3.8841-8.49646-20.35167-24.94928-20.57812-24.78321.17394-.53763-12.86413-13.70783-12.93165-15.85937 2.56898-6.32141 6.07277-31.48998 8.07422-32.87695 17.10876-11.85604 23.08422-25.51867 27.05078-41.16602-.3269-2.17434-.47181-3.26841-.6582-5.75-1.66961-10.3676-2.48045-23.52968-5.33008-34.10742.025-10.96207 3.83399-17.95313 3.83399-17.95313-3.25954-.78952-9.49632-1.47902-12.42774-1.80664.0206-.0319.042-.0618.0625-.0937-7.39171-1.56131-16.05124-2.24254-15.85742-30.60937z" id="path13423"/></clipPath><clipPath clipPathUnits="userSpaceOnUse" id="clipPathTorsoHourglass"><path style="display:inline;fill-opacity:1;fill:#f0f;opacity:1" d="m330.55078 146.24219-33.94726 3.49414c-.60023 11.74644 4.71263 22.22405 4.14257 32.1582-3.83498 2.97182-5.98164 3.47574-13.82226 5.20313-.56276.1408-1.09742.28682-1.60938.4375-3.67844.81605-7.62914 1.65042-14.16797 3.29882-8.65971 10.94361-15.77788 17.65645-24.83789 40.22852-5.87551 18.9358-2.9645 38.67948 2.8418 56.00977-1.06764 11.32585-1.52592 26.55771 1 35.50195-11.37059 21.52353-11.89766 23.525-14.09766 43.625-1.1 10.1-2.23134 20.37109-6.00781 40.87109 1.79918 21.68192 24.06434 28.08621 33.55274 33.19727 14.43169 10.04215 15.75568 13.80686 22.99414 21.73047 1.37693.26708 4.09368 1.61095 7.06445-.26758l1.11133-.0781c1.17404 1.57274 8.90177 1.53055 11.31445.17774 1.25908-5.51105 3.06526-22.40357 25.5332-37.0293 9.99479-6.9207 28.66489-25.38486 47.28125-34.05664-9.1-20.7-12.62221-28.06668-19.58398-39.49609-3.8841-8.49646-20.35168-24.94928-20.57812-24.78321.17394-.53763-7.38366-13.70783-7.45118-15.85937 2.56898-6.32141 6.52259-31.00027 8.07422-32.87695 3.11188-3.76379 5.69391-7.22683 7.88672-10.51954 7.0161-10.53536 10.04592-19.32698 13.68359-30.64648-.3269-2.17434-.47181-3.26841-.6582-5.75-1.66961-10.3676-2.48045-23.52968-5.33008-34.10742.025-10.96207 3.83399-17.95313 3.83399-17.95313-4.4617-1.08069-8.62379-1.33294-12.38086-1.87695.005-.008.0105-.0154.0156-.0234-7.39171-1.56131-16.05124-2.24254-15.85742-30.60937z" id="path13449"/></clipPath><clipPath clipPathUnits="userSpaceOnUse" id="clipPathTorsoNormal"><path style="display:inline;fill-opacity:1;fill:#f9ff00;opacity:1" d="m330.55078 146.24219-33.94726 3.49414c-.60023 11.74644 4.71263 22.22405 4.14257 32.1582-3.83498 2.97182-5.98164 3.47574-13.82226 5.20313-.58083.14532-1.12952.29729-1.65625.45312-3.72076.82535-7.55904 1.62893-14.1211 3.2832-8.65971 10.94361-15.77788 17.65645-24.83789 40.22852-5.87551 18.9358-2.9645 38.67948 2.8418 56.00977-1.06764 11.32585-1.52592 26.55771 1 35.50195-11.37059 21.52353-11.89766 23.525-14.09766 43.625-1.1 10.1-2.23134 20.37109-6.00781 40.87109 1.79918 21.68192 24.06434 28.08621 33.55274 33.19727 14.43169 10.04215 15.75568 13.80686 22.99414 21.73047.78119.55861 4.78693 1.49428 7.05664-.26758l1.14258-.0781c1.51181 1.59807 9.57688 1.45961 11.29101.17774 1.25908-5.51105 3.06526-22.40357 25.5332-37.0293 9.99479-6.9207 28.66489-25.38486 47.28125-34.05664-9.1-20.7-12.62221-28.06668-19.58398-39.49609-23.58113-57.47054-9.98057-57.2743 1.61523-114.68555-.3269-2.17434-.47181-3.26841-.6582-5.75-1.66961-10.3676-2.48045-23.52968-5.33008-34.10742.025-10.96207 3.83399-17.95313 3.83399-17.95313-4.46045-1.0804-8.62863-1.32705-12.38672-1.86914.007-.0108.0146-.0205.0215-.0312-7.39171-1.56131-16.05124-2.24254-15.85742-30.60937z" id="path13552"/></clipPath><clipPath clipPathUnits="userSpaceOnUse" id="clipPath13344"><path id="path13346" d="m296.51526 149.82524c-.60044 11.74636 4.52731 21.84761 4.14186 32.15688.0.0 29.989-1.7219 36.03381-9.31622-3.81788-3.83803-6.1307-11.25313-6.22921-26.33633l97.0383-51.829609L545.88646 179.7561 531.74432 683.21615 41.012195 681.80194 57.982758 266.02313 166.87721 188.94849l70.35713-39.95154z"/></clipPath><filter style="color-interpolation-filters:sRGB" id="filter26288"><feGaussianBlur stdDeviation="4 8" result="blur" id="feGaussianBlur26286"/></filter><filter style="color-interpolation-filters:sRGB" id="filter26310"><feGaussianBlur stdDeviation="4 8" result="blur" id="feGaussianBlur26308"/></filter><filter style="color-interpolation-filters:sRGB" id="filter26310-1"><feGaussianBlur stdDeviation="4 8" result="blur" id="feGaussianBlur26308-9"/></filter><filter style="color-interpolation-filters:sRGB" id="filter26288-2"><feGaussianBlur stdDeviation="4 8" result="blur" id="feGaussianBlur26286-3"/></filter><filter style="color-interpolation-filters:sRGB" id="filter26288-2-1"><feGaussianBlur stdDeviation="4 8" result="blur" id="feGaussianBlur26286-3-8"/></filter><filter style="color-interpolation-filters:sRGB" id="filter26310-1-3"><feGaussianBlur stdDeviation="4 8" result="blur" id="feGaussianBlur26308-9-6"/></filter><clipPath clipPathUnits="userSpaceOnUse" id="clipPath27210"><path style="fill-opacity:.3886179;fill:#0ff;opacity:1;stroke-dasharray:none;stroke-dashoffset:0;stroke-linecap:butt;stroke-linejoin:miter;stroke-miterlimit:4;stroke-opacity:1;stroke-width:.45354331;stroke:none;vector-effect:none" d="m248.42752 262.36994c3.36303-.49794 4.94812-.87285 7.25329-1.36603-10.66151-9.76087-16.59905-12.68952-15.38763-19.5515.98117-5.55773 6.498-12.54795 10.28083-17.66711l-2.41456-.5422c-9.07715 6.97307-16.40542 10.70334-17.9034 18.32166-.72743 3.69951 1.01853 9.9745 4.24566 13.7566 4.92681 5.77408 7.5147 7.25263 13.92581 7.04858z" id="path27212"/></clipPath><clipPath clipPathUnits="userSpaceOnUse" id="clipPath27226"><path style="fill-opacity:.3886179;fill:#0ff;opacity:1;stroke-dasharray:none;stroke-dashoffset:0;stroke-linecap:butt;stroke-linejoin:miter;stroke-miterlimit:4;stroke-opacity:.47154475;stroke-width:.45354334;stroke:none;vector-effect:none" d="m295.17837 259.2815c.3886.0475.77403.14116 1.16506.1849 6.48576.72557 13.30879.95363 20.57576 1.48237 6.10767-17.8192 7.39616-28.5411 8.14402-44.18436l-5.05968-1.4178c-12.2182 7.96618-24.06671 23.01745-24.82516 43.93489z" id="path27228"/></clipPath></defs><g select_clip_options="clip-path=url(#clipPathTorsoUnnatural) url(#clipPathTorsoHourglass) url(#clipPathTorsoNormal)" select_clip="torso" id="g26910"><g data-transform="boob_outfit" id="g26908"><path d="m278.32617 257.50781c-8.35512.0808-16.43974.95688-27.59375 3.23047l.22656 1.11133c22.21013-4.52722 32.01738-3.48593 56.50196-1.66992l.0156.002h.0176c11.42858.19085 28.7199 4.19444 42.98828 7.55078 3.91795.92161 7.60921 1.7949 10.89649 2.52539l.24609-1.10742c-3.27618-.72803-6.9642-1.59972-10.88281-2.52148-14.27082-3.35692-31.55801-7.38516-43.23047-7.58008h.0332c-12.23759-.90766-20.86362-1.62184-29.21875-1.54102z" id="path27012" class="bra_accent"/></g></g><g data-transform="boob_outfit" id="g26988"><path d="m295.17837 259.2815c.3886.0475.77403.14116 1.16506.1849 6.48576.72557 13.30879.95363 20.57576 1.48237 6.41703-17.90759 7.39616-28.45271 8.14402-44.09597l-4.79451-1.462c-11.51109 8.23135-23.13864 22.92907-25.09033 43.8907z" id="path26914" class="bra_primary"/><path id="path26916" d="m248.42752 262.36994c3.36303-.49794 4.94812-.87285 7.25329-1.36603-10.66151-9.76087-16.59905-12.68952-15.38763-19.5515.98117-5.55773 6.498-12.54795 10.28083-17.66711l-2.41456-.5422c-9.07715 6.97307-16.40542 10.70334-17.9034 18.32166-.72743 3.69951 1.01853 9.9745 4.24566 13.7566 4.92681 5.77408 7.5147 7.25263 13.92581 7.04858z" class="bra_primary"/><g clip-path="url(#clipPath27210)" id="g26938" style="display:inline"><g style="display:inline;filter:url(#filter26288-2-1);stroke-width:1.38733399" id="g26936" clip-path="none"><path class="bra_primary_shade" id="path26918" d="m226.04438 245.90878 3.44185 20.75891 26.5514-3.12205-2.51311-18.18459c-3.38613 1.90563-20.28203 4.29157-27.48014.54773z"/><path d="m226.53608 249.14038 2.95015 17.52731 26.5514-3.12205-2.02141-14.953c-3.38615 1.90564-20.28204 4.29158-27.48014.54774z" id="path26920" class="bra_primary_shade"/><path class="bra_primary_shade" id="path26922" d="m227.13704 252.5363 2.34919 14.13139 26.5514-3.12205-1.42046-11.55708c-3.38613 1.90563-20.28203 4.29158-27.48013.54774z"/><path d="m227.5741 255.71312 1.91213 10.95457 26.5514-3.12205-.98339-8.38025c-3.38614 1.90562-20.28204 4.29157-27.48014.54773z" id="path26924" class="bra_primary_shade"/><path class="bra_primary_shade" id="path26926" d="m228.01116 259.49245 1.47507 7.17524 26.5514-3.12205-.54633-4.60092c-3.38614 1.90562-20.28203 4.29156-27.48014.54773z"/><path d="m227.96368 240.48592 4.76274-20.49485 26.297 4.8229-3.67123 17.98557c-3.25725-2.11944-19.96573-5.5869-27.38851-2.31362z" id="path26928" class="bra_primary_highlight"/><path class="bra_primary_highlight" id="path26930" d="m228.61926 236.98046 4.10716-16.98939 26.297 4.8229-3.01563 14.4801c-3.25727-2.11944-19.96574-5.58689-27.38853-2.31361z"/><path d="m229.60265 233.52978 3.12377-13.53871 26.297 4.8229-2.03225 11.02941c-3.25726-2.11943-19.96574-5.58689-27.38852-2.3136z" id="path26932" class="bra_primary_highlight"/><path class="bra_primary_highlight" id="path26934" d="m230.53141 230.68159 2.19501-10.69052 26.297 4.8229-1.1035 8.18123c-3.25725-2.11944-19.96574-5.5869-27.38851-2.31361z"/></g></g><path class="bra_accent" id="path26940" d="m234.79142 233.64331c5.13153-3.92883 8.72352-6.52744 13.62552-9.83271l1.47015.38046c-3.92476 5.26832-9.84318 10.67176-10.29804 18.32294-.48714 8.19407 9.6991 14.0358 15.26737 18.5717l1.30938-.26872c-4.64025-4.44117-16.26347-11.11873-15.58626-18.29358.59045-6.25554 5.83683-12.36663 10.23188-18.7768l-2.67337-.60066c-6.2745 4.75163-11.23903 8.10475-13.34663 10.49737z"/><g style="display:inline;filter:url(#filter26310-1-3)" id="g26960" clip-path="url(#clipPath27226)"><path class="bra_primary_shade" id="path26942" d="m291.63188 239.1998-2.87226 26.3771 37.01744 5.61169 3.19448-22.92845c-5.26729 1.11134-28.96794-1.97579-37.33966-9.06034z"/><path d="m291.12514 243.29039-2.36552 22.28651 37.01744 5.61169 2.68772-18.83785c-5.26728 1.11132-28.96793-1.9758-37.33964-9.06035z" id="path26944" class="bra_primary_shade"/><path class="bra_primary_shade" id="path26946" d="m290.70651 247.6188-1.94689 17.9581 37.01744 5.61169 2.26909-14.50946c-5.2673 1.11134-28.96793-1.97578-37.33964-9.06033z"/><path d="m290.14578 251.62366-1.38614 13.95324 37.01744 5.61169 1.70834-10.50458c-5.26727 1.11134-28.96792-1.97578-37.33962-9.06034z" id="path26948" class="bra_primary_shade"/><path class="bra_primary_shade" id="path26950" d="m289.36665 256.35876-.60703 9.21814 37.01744 5.61169.92924-5.7695c-5.26728 1.11133-28.96794-1.97578-37.33965-9.06033z"/><path d="m295.49856 236.19345 10.25033-33.22268 36.83059 11.79488-8.26766 29.22879c-4.30701-3.97955-27.64076-12.14076-38.81326-7.80099z" id="path26952" class="bra_primary_highlight"/><path class="bra_primary_highlight" id="path26954" d="m297.02417 230.48793 8.72472-27.51716 36.83059 11.79488-6.74206 23.52328c-4.30701-3.97955-27.64076-12.14076-38.81325-7.801z"/><path d="m299.00976 224.92059 6.73913-21.94982 36.83059 11.79488-4.75646 17.95595c-4.30701-3.97955-27.64076-12.14076-38.81326-7.80101z" id="path26956" class="bra_primary_highlight"/><path class="bra_primary_highlight" id="path26958" d="m300.81622 220.34232 4.93267-17.37155 36.83059 11.79488-2.95001 13.37767c-4.307-3.97955-27.64075-12.14076-38.81325-7.801z"/></g><path class="bra_accent" id="path26962" d="m320.13364 214.55577-.24102.16841c-20.26658 14.12187-24.26306 32.33079-24.72286 44.56746.31561.0458.78854.13335 1.18281.17053.42917-11.97599 4.22078-29.67492 24.00511-43.58229l4.0248 1.26847c-.59931 18.3684-3.12109 30.03144-8.54749 43.72421l1.24525.10254c5.42103-13.76661 7.95904-25.64513 8.52745-44.23773l.0139-.45269z"/><g id="g27202"><path d="m296.42982 258.2138c3.93145.39527 16.83424 1.1451 19.83971 1.45121l.10152-.29665c-3.63888-.51426-15.65754-1.06015-19.96719-1.41925z" id="path26976" class="bra_primary_shade"/><path class="bra_primary_shade" id="path26978" d="m296.42982 258.2138c3.93145.39527 16.83424 1.1451 19.83971 1.45121l.10152-.29665c-3.63888-.51426-15.65754-1.06015-19.96719-1.41925z"/><path d="m296.42982 258.2138c3.93145.39527 16.83424 1.1451 19.83971 1.45121l.10152-.29665c-3.63888-.51426-15.65754-1.06015-19.96719-1.41925z" id="path26980" class="bra_primary_shade"/><path class="bra_primary_shade" id="path26982" d="m296.42982 258.2138c3.93145.39527 16.83424 1.1451 19.83971 1.45121l.10152-.29665c-3.63888-.51426-15.65754-1.06015-19.96719-1.41925z"/><path d="m296.42982 258.2138c3.93145.39527 16.83424 1.1451 19.83971 1.45121l.10152-.29665c-3.63888-.51426-15.65754-1.06015-19.96719-1.41925z" id="path26984" class="bra_primary_shade"/></g><g id="g27195"><path d="m241.58157 261.39158c4.12675-.097 7.40993-.13165 12.14196-1.22808l-.37333-.26348c-4.44047 1.05505-7.76648 1.27647-12.09459 1.37194z" id="path26972" class="bra_primary_shade"/><path class="bra_primary_shade" id="path27182" d="m241.58157 261.39158c4.12675-.097 7.40993-.13165 12.14196-1.22808l-.37333-.26348c-4.44047 1.05505-7.76648 1.27647-12.09459 1.37194z"/><path d="m241.58157 261.39158c4.12675-.097 7.40993-.13165 12.14196-1.22808l-.37333-.26348c-4.44047 1.05505-7.76648 1.27647-12.09459 1.37194z" id="path27184" class="bra_primary_shade"/><path class="bra_primary_shade" id="path27186" d="m241.58157 261.39158c4.12675-.097 7.40993-.13165 12.14196-1.22808l-.37333-.26348c-4.44047 1.05505-7.76648 1.27647-12.09459 1.37194z"/><path d="m241.58157 261.39158c4.12675-.097 7.40993-.13165 12.14196-1.22808l-.37333-.26348c-4.44047 1.05505-7.76648 1.27647-12.09459 1.37194z" id="path27188" class="bra_primary_shade"/></g></g><g clip-path="url(#clipPath13344)" id="g26998"><g style="display:inline" id="g26996" data-transform="boob_outfit"><path class="bra_accent bra_strap2" id="path26990" d="m325.00525 170.34566c-1.24733-.0612-2.59523-.0469-3.99024.14453-.005 69e-5-.0103-.001-.0156.0-6.65352 1.82723-15.03678 6.97987-19.97329 9.92505-13.83943 8.25678-22.47686 15.04686-32.64764 22.71156-10.27461 7.74294-17.1365 16.42237-20.26072 20.06048l.31301.58732c1.62481-1.51339 4.66918-5.5417 6.36383-7.20402-.92444 1.64646-3.74409 5.96281-4.84398 7.54616l.77011-.30171c3.49076-4.64779 5.34679-9.26428 12.46244-15.13354 3.65486-3.01466 7.50179-6.34865 10.92505-8.66655 10.8306-7.33343 17.70462-13.29787 28.24606-19.15101 7.63051-4.23684 12.47085-7.95781 18.85611-8.87574.0121-.002.0231-45e-5.0351-.002 1.26104-.16293 2.50001-.16903 3.67578-.10156 2.40937.20843 5.22781.52711 7.48438.69718 4.13895-.12084 5.5823 2.06113 4.92754 5.54342-.63371 3.37033-1.67124 6.79504-2.91 9.72102-1.39303 3.29036-2.35369 4.95352-4.10115 8.46462-3.62997 7.29357-7.36728 15.83092-10.40422 18.40388l.44819 1.09906c1.93898-1.64274 3.39507-4.75819 5.64376-8.61867-1.15679 3.2786-1.47794 6.75017-1.61949 9.47481l1.21698-.0766c.18737-3.60642 1.79121-10.6115 3.94744-15.50373 2.89654-6.57192 5.11623-9.31499 7.22538-15.62772 1.0786-3.22827 2.90635-9.1352 1.0396-12.00904-1.12047-1.72496-3.00842-2.2755-4.80957-2.41389-2.52781.0383-5.88821-.58083-8.00491-.6937z"/><path d="m322.04718 163.12201c-.005 69e-5-.0102-71e-5-.0156.0-1.12202.14855-2.27938.5383-3.4336.98047-.28789.11029-.56919.113-.85742.24414-.002 91e-5-.004.001-.006.002-.0206.01-.0399.0218-.0605.0312-5.54604 2.52609-11.15097 5.54063-16.25594 8.56055-12.65824 7.48818-26.64653 22.07584-36.17601 31.03619-3.95178 3.71577-6.31383 5.79746-9.04141 9.04448-3.74169 4.45428-6.14245 7.9662-8.10412 10.22674l.31444.57031c1.37985-1.15887 4.49742-6.1452 5.98894-7.3544-.59631 1.36521-3.55845 6.36939-4.53191 7.70792l.82032-.26172c2.86483-3.82326 6.88255-11.53929 14.95332-18.87312 13.91568-12.64504 22.82151-23.14317 36.12604-30.89327 5.14889-2.99931 11.15531-5.89468 16.59773-8.42188.002-92e-5.004-.001.006-.002 1.29008-.5862 2.59348-.92319 3.8711-1.09961.0121-.002.0231-45e-5.0351-.002 1.26104-.16293 10.43029-1.61988 11.60777-1.64261 3.22114-.0622 5.61798.21678 8.42188.25968 4.14023.0633 5.57684 4.50821 4.70971 7.94379-1.61141 6.38442-12.0254 19.69702-16.20884 25.39716-4.82031 6.56792-7.97907 15.67389-11.01601 18.24685l.5879 1.04493c1.93898-1.64274 3.4694-4.86857 5.63997-8.74468-1.23492 3.24735-1.51079 6.85153-1.65234 9.57617l1.22851.0156c.18737-3.60642 1.34873-10.95918 3.95849-15.62526 4.11483-7.35706 18.83424-23.92361 18.98017-32.14617.0725-4.08529-1.64883-6.32778-5.3106-6.75121-8.662-1.00165-15.65246.39271-21.17709.92978z" id="path26992" class="bra_accent bra_strap1"/><path d="m325.31055 172.35547c-1.24733-.0612-2.59522-.0468-3.99024.14453-.005 75e-5-.0102-75e-5-.0156.0-1.12202.14851-2.27975.53734-3.4336.98047-.28826.10933-.56919.11301-.85742.24414-.002 92e-5-.004.001-.006.002-.0206.01-.0399.0217-.0605.0312-5.54608 2.52599-9.50958 4.99085-14.64258 7.96289-12.74467 7.37923-24.21982 12.23604-35.5625 20.81836-10.2596 7.76282-15.55938 17.4286-18.62837 20.62477l.29091.63151c1.60272-1.42501 3.82858-5.13225 5.31141-6.77345-.70125 1.58114-3.03416 6.04047-3.76945 7.11559l.8143-.34591c2.67414-3.38262 6.28496-11.74006 10.9475-15.39604 1.57008-1.23113 4.56235-4.04842 6.29894-5.37002 11.51071-8.76002 23.93869-13.78536 35.39687-20.47668 5.14562-3.00493 8.79196-4.922 14.23437-7.44922.002-9e-4.004-.001.006-.002 1.29008-.58621 2.59344-.92352 3.8711-1.09961.0121-.002.0231-4e-4.0351-.002 3.51641-.33736 3.62221 3.35701 6.8495 3.40704 4.14022.0642 4.93919 1.67101 5.01592 6.33892.0571 3.4713 1.18656 3.45456-3.44772 13.01085-3.55488 7.33047-6.99163 15.33374-10.02857 17.9067l.40399 1.1543c1.93898-1.64274 3.68992-5.17303 6.24621-9.43347-1.23492 3.24735-2.05276 7.62021-2.19431 10.34485l1.2004-.18706c.18737-3.60642 1.76819-9.07458 3.33977-14.16686 2.74655-8.89943 8.7957-14.09923 4.87834-24.09716-.75039-1.91516-3.00842-2.2755-4.80957-2.41389-2.52781.0383-1.57755-3.39225-3.69425-3.50512z" id="path26994" class="bra_accent bra_strap3"/></g></g></svg>