<svg viewBox="0 0 560 1e3"><defs><filter style="color-interpolation-filters:sRGB" id="filter53308"><feGaussianBlur stdDeviation="2 2" result="blur" id="feGaussianBlur53306"/></filter><filter style="color-interpolation-filters:sRGB" id="filter53308-4"><feGaussianBlur stdDeviation="2 2" result="blur" id="feGaussianBlur53306-6"/></filter><filter style="color-interpolation-filters:sRGB" id="filter22405"><feGaussianBlur stdDeviation="0.5 0.5" result="blur" id="feGaussianBlur22403"/></filter><clipPath clipPathUnits="userSpaceOnUse" id="clipPath22436"><path d="m276.30107 122.10587c3.19627-5.68597 5.11411-15.63337.10729-24.25983-22.11905 3.36707-43.79013 15.63904-68.35786 29.33128-7.38656 4.11673-21.98627 19.60524-22.06975 27.30467-.10129 9.34224 15.03244 17.33819 39.92201 39.36161 7.97202 7.05401 27.22718 18.93611 24.32965 27.04708 12.21477-16.33671 13.82714-17.51412 24.42514-30.36177-3.25543-4.05319-11.73539-8.82885-24.57823-15.8014-8.43099-4.5773-17.3944-11.93513-27.07357-18.28063-5.30916-3.4806-3.66143-4.35561.95832-7.26051 31.42731-19.76147 26.0957-23.87295 52.337-27.0805z" id="path22438" style="fill-opacity:.5;fill:#0ff"/></clipPath></defs><path class="top_primary" id="path21509" d="m276.30107 122.10587c3.19627-5.68597 5.11411-15.63337.10729-24.25983-22.11905 3.36707-43.79013 15.63904-68.35786 29.33128-7.38656 4.11673-21.98627 19.60524-22.06975 27.30467-.10129 9.34224 15.03244 17.33819 39.92201 39.36161 7.97202 7.05401 27.22718 18.93611 24.32965 27.04708 12.21477-16.33671 13.82714-17.51412 24.42514-30.36177-3.25543-4.05319-11.73539-8.82885-24.57823-15.8014-8.43099-4.5773-17.3944-11.93513-27.07357-18.28063-5.30916-3.4806-3.66143-4.35561.95832-7.26051 31.42731-19.76147 26.0957-23.87295 52.337-27.0805z"/><g id="g22434" clip-path="url(#clipPath22436)"><g id="g21547" clip-path="none"><g clip-path="none" style="display:inline;filter:url(#filter53308-4);opacity:1" id="g21535" transform="translate(-0.25000163,0.24999718)"><g style="display:inline;opacity:1" id="g21517"><path d="m287.35256 197.69514c-22.90903 5.15253-68.91538-38.50191-56.5119-38.62219 29.32135-6.51464 62.15514 43.69753 56.5119 38.62219z" id="path21513" class="top_primary_highlight"/><path d="m288.65037 195.53566c-22.90903 5.15253-68.91538-38.50191-56.51191-38.62219 29.32136-6.51464 62.15515 43.69753 56.51191 38.62219z" id="path21515" class="top_primary_highlight"/></g><g style="display:inline;opacity:1" id="g21525"><path d="m276.57094 222.81708c.84943-.3328-73.37976-67.54194-97.02515-66.40179-16.42424 41.0706 85.92195 98.57977 97.02515 66.40179z" id="path21519" class="top_primary_shade"/><path class="top_primary_shade" id="path21521" d="m274.57094 226.44208c.84943-.3328-73.37976-67.54194-97.02515-66.40179-16.42424 41.0706 85.92195 98.57977 97.02515 66.40179z"/><path d="m272.07094 229.31708c.84943-.3328-73.37976-67.54194-97.02515-66.40179-16.42424 41.0706 85.92195 98.57977 97.02515 66.40179z" id="path21523" class="top_primary_shade"/></g><g style="display:inline;opacity:1" id="g21533"><path d="m323.35982 96.900801c6.58934 14.076129-31.77136 3.582739-62.90581 14.083379-38.23389 12.89505-100.52572 60.32447-80.83457 25.9192 23.79632-34.43743 133.21155-86.042225 143.74038-40.002579z" id="path21527" class="top_primary_highlight"/><path class="top_primary_highlight" id="path21529" d="m323.73482 93.400801c6.58934 14.076129-31.77136 3.582739-62.90581 14.083379-38.23389 12.89505-100.52572 60.32447-80.83457 25.9192 23.79632-34.43743 133.21155-86.042225 143.74038-40.002579z"/><path d="m321.85982 90.150801c6.58934 14.076129-31.77136 3.582739-62.90581 14.083379-38.23389 12.89505-100.52572 60.32447-80.83457 25.9192 23.79632-34.43743 133.21155-86.042225 143.74038-40.002579z" id="path21531" class="top_primary_highlight"/></g></g></g><g style="filter:url(#filter22405)" clip-path="none" id="g22746-4-7-2"><path d="m210.06955 161.99506c24.30395 20.17591 41.60405 34.65085 67.43931 50.88354-2.03329-5.26699-47.87915-40.27482-67.43931-50.88354z" class="highlight2" id="path22967-5-5-4"/><path d="m225.61795 173.02404c7.90364 5.60902 31.84575 22.31202 39.41503 29.55038-10.33833-5.94857-32.51706-22.73267-39.41503-29.55038z" class="highlight1" id="path2688-9-7-4-0-8-3"/><path d="m207.90658 145.64874c24.28201-13.12843 28.95143-24.11972 67.46873-36.36445-14.07371-1.35383-52.28592 20.36892-67.46873 36.36445z" class="highlight2" id="path22967-5-5-3-1"/><path d="m219.08146 137.54404c7.94186-6.11982 29.15098-22.17119 45.16517-25.27514-13.69341 3.57875-32.32716 17.22651-45.16517 25.27514z" class="highlight1" id="path2688-9-7-4-0-8-6-7"/><path id="path2655-5-7-5-3-0" class="highlight2" d="m197.31417 152.6694c-1.7713 4.14721.95774 3.79314 6.66349 8.02238-2.09282-.86806-14.24523-4.72192-6.66349-8.02238z"/><path d="m200.23099 149.35484c-.75483 1.67234-1.07519 1.8044-2.13115 2.27714.29366-1.88453 1.53209-2.20285 2.13115-2.27714z" class="highlight2" id="path22395"/><path d="m206.50167 152.6069c2.7287.95971 14.27024 1.60564 20.72599 1.64738-1.34282 1.00694-19.49523.84058-20.72599-1.64738z" class="highlight2" id="path22397"/><path id="path22399" class="highlight2" d="m209.93917 155.4819c2.48184.60929 12.97927 1.01936 18.85099 1.04586-1.22134.63928-17.73157.53366-18.85099-1.04586z"/><path d="m218.36046 157.77959c2.36296.29644 12.22976-.13255 17.73678-.53005-1.10746.5834-16.59404 1.67693-17.73678.53005z" class="highlight2" id="path22401"/></g></g><path d="m272.71289 98.496094c-20.86149 4.044986-41.58849 15.252436-64.78711 28.181636-7.38656 4.11673-22.36183 20.04276-22.44531 27.74219-.10129 9.34224 15.2198 18.15041 40.10937 40.17383 7.97202 7.05401 26.57136 17.71716 24.64258 26.29687.0938-.44613.16146-.76688.25196-1.19921.80136-8.04714-16.99384-19.13327-24.58204-25.84766-24.88957-22.02342-40.02316-30.01909-39.92187-39.36133.0835-7.69943 14.68375-23.18796 22.07031-27.30469 23.19805-12.92888 43.81357-24.58669 64.66211-28.681636zm-.97851 24.224606c-3.38358.50663-6.10625 1.0666-8.49219 1.70508 2.33146-.64179 5.07498-1.19303 8.49219-1.70508zm-8.72266 1.76953c-12.32192 3.36317-14.45075 9.22929-39.04688 24.69532-4.61975 2.9049-6.26814 3.78112-.95898 7.26172 9.67917 6.3455 18.64323 13.70199 27.07422 18.27929 12.84284 6.97255 21.32269 11.74955 24.57812 15.80274-3.25543-4.05319-11.17278-9.08019-24.01562-16.05274-8.43099-4.5773-17.64505-12.05879-27.32422-18.40429-5.30916-3.4806-2.34827-4.23182 2.27148-7.13672 24.49228-15.40073 25.67311-21.14208 37.42188-24.44532z" id="path23882" class="shadow"/></svg>