<svg viewBox="0 0 560 1e3"><defs><filter style="color-interpolation-filters:sRGB" id="filter21948"><feGaussianBlur stdDeviation="1 1" result="blur" id="feGaussianBlur21946"/></filter><clipPath clipPathUnits="userSpaceOnUse" id="clipPath21952"><path style="fill-opacity:.755068;fill:#0ff;opacity:1;stroke-dasharray:none;stroke-dashoffset:0;stroke-linecap:butt;stroke-linejoin:miter;stroke-miterlimit:4;stroke-opacity:1;stroke-width:.453543;stroke:none;vector-effect:none" d="m240.84099 879.83425c-16.23916 23.48242-31.34183 54.2303-53.89277 37.36244-8.9605 6.21208-17.94691 9.3562-22.35171 15.11688-1.15191 1.50648-.59564 5.64677 3.0625 6.0625 19.11778 2.17263 39.76286 1.27924 46.3125-6.5625 6.92076-7.23269 10.90373-14.48659 21.90349-20.06358 4.9209-2.49494.875 10.79167 1.3125 16.1875l5.125-2.6875s.9315-5.18806 1.76371-11.71805c.91761-7.20015 2.33322-16.12019 1.62753-21.42732-.77247-5.80935-4.86275-12.27037-4.86275-12.27037z" id="path21954"/></clipPath><filter style="color-interpolation-filters:sRGB" id="filter22159"><feGaussianBlur stdDeviation="1 1" result="blur" id="feGaussianBlur22157"/></filter><clipPath clipPathUnits="userSpaceOnUse" id="clipPath22164"><path id="path22166" d="m371.56037 934.39132c-1.29725 11.84109 9.6483 11.78958 14.41249 11.7787 14.58911-.0181 23.56777-1.56857 20.72834-14.76558-3.10491-14.43089-3.83132-32.02203-5.64389-43.05359-.29319 3.95398-.56383 8.46645-.0399 14.85021 1.14699 13.97424 1.1678 17.84781-.63696 19.30508-3.47814 2.80848-4.1978.93912-11.68976 1.35588-3.28433.1827-6.3035 1.77582-8.69558.90124-4.93802-1.80541-7.20377-8.82689-3.61351-23.33995 1.86187-7.52632 2.42282-15.52926.79779-18.69709-1.97815 4.91704-2.50176 10.66373-2.43894 16.65818.12329 11.76367-1.78947 22.3133-3.18012 35.00692z" style="display:inline;fill-opacity:1;fill:#0ff;opacity:1;stroke-width:.999995"/></clipPath></defs><g id="g22028"><path d="m240.06844 870.41317c-.0733 4.89104.91774 9.02313 1.13535 13.55254l-59.0794 37.6377c2.69664-1.40782 3.68872-3.5333 5.56787-5.0945 4.56151-3.78969 7.53866-8.01363 12.28973-12.69337 6.08944-8.25009 10.48105-17.72113 14.4615-27.43088-.0956-5.73589.13586-11.55515 1.02011-17.54087 8.4132 1.08105 16.55765 2.94479 24.36444.35459.41252 4.45065.51888 7.00164.2404 11.21479z" class="shadow" id="path22020"/><path id="path22022" class="skin feet" d="m240.06844 870.41317c-.37007 4.91618.75309 9.03708 1.13535 13.55254 1.94804 6.81925 2.57818 11.07651 3.11397 15.15037-1.6319 6.59752-9.43431 11.31237-17.45276 17.33069-18.19874 13.65924-70.16732 34.85953-47.85243 5.70528 10.00386-4.88969 15.66054-11.88602 21.65692-18.77401 6.96321-7.99858 10.09179-17.30889 13.774-26.99338l1.02011-17.54087c5.85473-.31465 16.44743-.39841 24.3555.31082.12829 3.80177.31762 7.71989.24934 11.25856z"/><path id="path22024" class="shadow" d="m234.52645 865.29347c.50349 3.55547 2.48986 8.2877 2.32516 12.29588-.10957 2.66661-1.20588 3.90311-1.82107 6.85539.26453-2.74383 1.33364-4.12721 1.43137-6.83177.14905-4.1247-1.69112-9.12829-1.93546-12.3195z"/><path id="path22026" class="stockings_primary" d="m240.06844 870.41317c-.37007 4.91618.75309 9.03708 1.13535 13.55254 1.94804 6.81925 2.57818 11.07651 3.11397 15.15037-1.6319 6.59752-9.43431 11.31237-17.45276 17.33069-18.19874 13.65924-70.16732 34.85953-47.85243 5.70528 10.00386-4.88969 15.66054-11.88602 21.65692-18.77401 6.96321-7.99858 10.09179-17.30889 13.774-26.99338l1.02011-17.54087c5.85473-.31465 16.44743-.39841 24.3555.31082.12829 3.80177.31762 7.71989.24934 11.25856z"/></g><path d="m240.84099 879.83425c-16.23916 23.48242-31.34183 54.2303-53.89277 37.36244-8.9605 6.21208-17.94691 9.3562-22.35171 15.11688-1.15191 1.50648-.59564 5.64677 3.0625 6.0625 19.11778 2.17263 39.76286 1.27924 46.3125-6.5625 6.24866-6.5303 10.10243-13.07789 18.88823-18.39289 6.26934-4.60579 4.68634 7.99591 4.34017 13.86998 48e-5.82462 1.80119 1.03724 2.03796-.26158.0.0.8915-6.07493 1.52508-12.62717.54638-5.65047 1.34971-7.31657 2.82774-9.43529 1.96973-2.82356 3.5598-4.95843 2.11304-12.86205-.77247-5.80935-4.86275-12.27037-4.86275-12.27037z" id="path22030" class="shoe_primary"/><g id="g22036"><path id="path22032" style="fill-opacity:.991554;fill:#000;opacity:1;stroke-dasharray:none;stroke-dashoffset:0;stroke-linecap:butt;stroke-linejoin:miter;stroke-miterlimit:4;stroke-opacity:1;stroke-width:.453543;stroke:none;vector-effect:none" d="m210.86914 934.44531c-8.60664 5.38559-26.4928 5.83157-43.21094 3.93164-.422-.048-.79708-.15173-1.13867-.28906.0531.89833.37345 1.56333 1.13867 1.47656 8.66534.98477 17.64432 1.33969 25.48242.70313 7.6949-.62493 13.79447-2.74388 17.72852-5.82227z"/><path id="path22034" d="m210.86914 934.44531c-3.93405 3.07839-10.03362 5.19734-17.72852 5.82227-7.83809.63656-16.81708.28164-25.48242-.70313-.73155.083-1.04948-.52896-1.12304-1.36718-.0573-.0161-.1318-.0229-.18164-.043.0531.89833.53802 1.52464 1.30468 1.59765 8.68185.8267 17.88651 1.39438 25.72461.75782 7.6949-.62493 14.2554-3.04857 17.48633-6.06446z" class="shadow"/></g><path id="path22038" d="m240.85156 879.64258c-.0664-.004-.12996.0275-.16797.082-8.12604 11.75055-15.96292 25.30191-24.55664 33.78516-4.29685 4.24162-8.77638 7.21051-13.5625 8.07812-4.78611.86761-9.89486-.35088-15.50195-4.54492-.0662-.0495-.1567-.0508-.22461-.004-8.93603 6.19512-17.93366 9.32419-22.39453 15.15821-.63658.83252-.77249 2.29115-.30078 3.62109s1.59508 2.53418 3.49414 2.75c9.56953 1.08752 19.52099 1.40703 27.91211.47266 8.38459-.93365 15.22153-3.10538 18.56055-7.09375l.008-.01c6.28492-6.57056 10.00864-13.31054 18.94336-18.41406 5.61677-3.20831 4.02264 8.19977 3.9375 13.71484.0198 1.29912 2.35369 1.4495 2.45507-.5.0.0.91872-5.53351 1.49024-12.11328.2444-2.81373.67974-6.26627 2.21289-8.55664 1.05519-1.57635 2.14174-2.95694 2.96094-5.44922.96191-2.92645.0714-6.31249-.22461-8.53906-.7817-5.87868-4.88867-12.34961-4.88867-12.34961-.0336-.0522-.0904-.0849-.15235-.0879zm-.01.1914s.20255.3323.49218.83204c43e-5 72e-5-42e-5.001.0.002.23822.40686.46599.80423.8418 1.51758.33086.62801.69587 1.38225 1.06445 2.18164.13934.3021.27173.59155.41016.91211.0861.1992.16926.39041.25391.5957.24823.60206.49124 1.22055.71289 1.86133.1651.47732.31497.96414.45508 1.45312.0316.1103.0617.21945.0918.33008.13475.49579.25921.99309.35742 1.49024.0724.36643.13337.73261.18164 1.0957.16953.92609.29045 1.76099.38086 2.53906.0731.63001.12211 1.21645.14844 1.76172.004.08.009.15995.0117.23828.0204.55013.0198 1.06533-.004 1.53906-.003.0644-.01.12435-.0137.1875-.0602.95449-.20426 1.76777-.41601 2.48438-.0145.0489-.0279.10037-.043.14844-.0961.30675-.20779.59381-.32617.87109-.11118.26042-.23549.50815-.36329.75-.0572.10817-.10984.22263-.16992.32812-.17064.29973-.35306.59078-.54297.87891-.0206.0313-.0378.0644-.0586.0957-.0612.0919-.13261.19131-.19531.28321-.17084.25022-.34237.4991-.52149.75586-.0218.0313-.041.0607-.0625.0918-1.43667 2.07524-2.22535 3.77669-2.76367 9.34375-.63358 6.55224-1.52539 12.62696-1.52539 12.62696-.23677 1.29882-2.03858 1.08634-2.03906.26172.19472-3.30417.7809-8.73751.14062-12.03907-.0786-.40534-.17941-.77193-.29882-1.10351-.0793-.22264-.17014-.42291-.26954-.60742-.0612-.11292-.12235-.22471-.1914-.32227-.0308-.0435-.0593-.0924-.0918-.13281-31e-5-38e-5 31e-5-.002.0-.002-.0393-.0486-.0852-.0853-.12695-.1289-.0437-.0456-.0844-.0967-.13086-.13672-.091-.0782-.18692-.14562-.28906-.20117-.10216-.0555-.21034-.0994-.32422-.13086-.22777-.0628-.47784-.0756-.75586-.0332-.13962.0212-.28632.0556-.43945.10547-.15192.0496-.3108.11401-.47657.19336-.3327.15928-.6941.38011-1.08593.66797-.51617.31224-1.01251.63068-1.4961.95117-.22551.14947-.4393.30195-.6582.45313-.0263.0181-.0519.0365-.0781.0547-.11191.0774-.22392.15444-.33398.23242-.13019.0902-.26264.18005-.38867.27148l-.002.002c-.18638.13526-.36638.27144-.54687.4082-.0214.0162-.043.0326-.0644.0488-.0144.0109-.0286.0223-.043.0332-.23353.17654-.46906.3527-.69532.53125-.19587.15457-.38406.31074-.57421.4668-.0121.01-.0249.0193-.0371.0293-.001.001-.002.003-.004.004-.23717.19447-.47534.38931-.70508.58594l-.006.006c-.17282.14809-.34079.29804-.50976.44726-.20069.17722-.4002.3544-.59571.53321-.61949.56657-1.20925 1.14347-1.78515 1.7246l-.002.002c-.43099.43497-.84695.87629-1.25976 1.31836-.009.01-.0182.0195-.0273.0293-.27736.29651-.55942.59106-.83008.89063-.4366.48323-.8649.97125-1.29102 1.46094-.26087.29977-.52594.59674-.78516.89843-.002.002-.004.005-.006.008-.003.003-.007.006-.01.01-.60031.69981-1.19659 1.40277-1.80078 2.11133-.022.0258-.0444.0504-.0664.0762-.36228.42468-.73601.85248-1.10547 1.2793-.0498.0576-.10037.11427-.15039.17187-.0379.0434-.0753.0872-.11328.13086-.23975.27552-.47222.55008-.71679.82618-.70708.7982-1.4357 1.59845-2.20118 2.39843-.20467.24506-.42256.48325-.65429.71485-.18706.18695-.38713.36775-.59375.54492-.1904.16629-.39089.32743-.59571.48633-.22831.17713-.46523.3495-.71093.51757-77e-5 53e-5-.001.001-.002.002-74e-5 51e-5-.001.001-.002.002-.46698.3192-.9576.62683-1.48438.91406-.42377.23108-.87181.44726-1.33203.65821-.009.004-.0179.009-.0273.0137-.014.006-.029.0112-.043.0176-.59542.27058-1.21328.52943-1.86523.76757-.78881.28814-1.61782.55254-2.48243.79493-.79664.22333-1.62986.42552-2.48828.60937-.80784.17577-1.64739.33087-2.50195.47461-.0226.004-.0437.008-.0664.0117-.006 99e-5-.0117 97e-5-.0176.002-.28384.0473-.56494.0967-.85352.14063-.007.001-.0142.003-.0215.004-.12436.0189-.25565.0325-.38086.0508-1.3398.19518-2.73023.35095-4.15821.47656-.36903.0326-.72719.0735-1.10156.10156-.0775.006-.15082.0139-.22851.0195-.0138.001-.0271.003-.041.004-2.183.15661-4.44925.2386-6.76758.2539-2.31833.0154-4.68742-.0357-7.08008-.14648-1.56774-.0726-3.14469-.18137-4.72265-.30273-.46856-.036-.93387-.0732-1.40235-.11329-1.56659-.13404-3.1327-.28033-4.6875-.45703-.22932-.0261-.4451-.0673-.65039-.12109-.20459-.0536-.3966-.1193-.57812-.19727-.16748-.0719-.32243-.15589-.47071-.24609-.002-.002-.005-.002-.008-.004-.0339-.0208-.0647-.0448-.0976-.0664-.0813-.0534-.15709-.11146-.23243-.16992-.19173-.1487-.37125-.3061-.52539-.48243-.23235-.2656-.42267-.55762-.57422-.86523-.15134-.30721-.26365-.62887-.33984-.95313-.0762-.32425-.11657-.65033-.12305-.96679v-.002c-.003-.15823.002-.31322.0156-.46484.0166-.19175.0521-.37326.0937-.54883.007-.0285.0138-.056.0215-.084 94e-5-.004.003-.006.004-.01.0439-.16391.0969-.31835.16211-.46093.0159-.0348.0278-.0741.0449-.10743v-.002c.0583-.11318.12332-.21639.19531-.31055.25133-.32869.52243-.64627.80274-.95898.0731-.0816.14955-.16158.22461-.24219.21957-.23592.44632-.46925.68164-.69726.006-.006.0116-.0118.0176-.0176.077-.0744.15374-.149.23242-.22266.002-.002.004-.004.006-.006.3108-.29088.62975-.57748.96484-.85742.26354-.22015.54145-.43443.82031-.64844.0274-.0211.0548-.0413.082-.0625.006-.004.0101-.009.0156-.0137.0824-.0631.15863-.1287.24219-.19141l.002-.002c.11281-.0846.2347-.16606.34961-.25 1.18132-.86285 2.49379-1.69084 3.86719-2.51562.0169-.0101.0319-.0212.0488-.0312.17224-.10328.34334-.2072.51172-.31055.0921-.0544.18098-.10969.26954-.16406.11259-.0661.21456-.13109.32812-.19727l.002-.002c.84054-.48979 1.78654-1.02339 2.67383-1.52539.0427-.0242.0862-.05.12891-.0742 1.72145-.97458 3.46013-1.97144 5.29297-3.07227.009-.005.0183-.0102.0273-.0156.0274-.0164.0547-.0324.082-.0488.44271-.26636.87816-.51547 1.32422-.79297l.002-.002c.55518-.3454 1.11353-.69931 1.67188-1.06446l.002-.002c.55911-.36567 1.1177-.74065 1.67774-1.1289.35235.26356.70202.51536 1.05078.75585 42e-5 3e-4.002-29e-5.002.0.34829.24019.6943.46989 1.03906.6875.34567.21822.68906.4232 1.03125.61915.34145.19557.68144.38087 1.01953.55468 5e-4 26e-5.001-25e-5.002.0.3378.17361.67334.33793 1.00781.49024 52e-5 24e-5.001-24e-5.002.0.33444.15225.66688.2944.99805.42578 55e-5 22e-5.001-22e-5.002.0.42759.16963.85143.31575 1.27344.45117.008.002.0157.005.0234.008.12443.0398.24907.0764.37304.11328.42641.12697.85012.24473 1.27149.33789.64456.14254 1.28338.24622 1.91601.3125.31633.0331.62992.0576.94336.0723 65e-5 3e-5.001-3e-5.002.0.62686.0294 1.24756.0223 1.86328-.0195.56696-.0385 1.12956-.11085 1.6875-.20703.004-67e-5.008-.001.0117-.002.1597-.0281.31751-.0693.47656-.10157.53723-.10891 1.07161-.24055 1.60156-.39648.54429-.16433 1.08677-.34696 1.62305-.5625l.002-.002c1.17009-.47047 2.32203-1.05913 3.45703-1.75391l.002-.002c.50705-.31046 1.00911-.64864 1.50976-1 .10996-.0772.22042-.15337.33008-.23243.23197-.16727.46074-.35173.69141-.52734.44477-.33853.88799-.68842 1.32812-1.05664.15409-.12895.30737-.26218.46094-.39453.0708-.0611.14218-.11982.21289-.18164.41742-.36489.83254-.7452 1.24609-1.13477.0613-.0578.12207-.11671.1836-.17383.1549-.14747.31241-.28673.46679-.4375.007-.007.014-.0161.0215-.0234.5201-.50845 1.03628-1.03615 1.55078-1.58008.0185-.0196.0381-.037.0566-.0566.0601-.0637.12163-.12141.18164-.18555v-.002c.57465-.61423 1.14641-1.25221 1.71484-1.90625.004-.004.008-.009.0117-.0137.12503-.14392.24831-.29569.37305-.44141.44532-.52019.89009-1.04613 1.33203-1.58789.003-.003.005-.007.008-.01.14646-.17961.2914-.36503.4375-.54687.41752-.51961.83515-1.04541 1.25-1.58203.18599-.24059.37116-.48476.55664-.72852.33599-.44149.67138-.88676 1.00586-1.33789.004-.006.009-.0116.0137-.0176.18591-.25089.37115-.50415.55664-.75781.80388-1.09926 1.60144-2.23953 2.39843-3.38281.3499-.50196.70195-.9894 1.05078-1.49805 1.06748-1.55637 2.13051-3.13608 3.19141-4.73437 1.75107-2.63805 3.49714-5.30625 5.24805-7.94532.35255-.53139.70551-1.06184 1.05859-1.58984.9196-1.37497 1.84036-2.74016 2.76563-4.07813z" class="shadow"/><g id="g22055" style="filter:url(#filter21948)" clip-path="url(#clipPath21952)"><path d="M162 930.6875C194.16217 938.17624 214.64752 926.22088 213.6875 915 199.80804 879.14787 160.31678 921.79119 162 930.6875z" id="path22040" class="shoe_primary_highlight"/><path d="M162 930.6875C194.16217 938.17624 214.64752 926.22088 213.6875 915 199.80804 879.14787 160.31678 921.79119 162 930.6875z" id="path22042" class="shoe_primary_highlight"/><path d="M162 930.6875C194.16217 938.17624 214.64752 926.22088 213.6875 915 199.80804 879.14787 160.31678 921.79119 162 930.6875z" id="path22044" class="shoe_primary_highlight"/><path d="m157.6875 928.25c32.16217 7.48874 52.64752-4.46662 51.6875-15.6875-13.87946-35.85213-53.37072 6.79119-51.6875 15.6875z" id="path22046" class="shoe_primary_highlight"/><path d="m180.6451 927.32338c16.846-1.70695 26.58624-9.88091 25.9174-17.69838-9.36462-23.59022-38.01809 18.48295-25.9174 17.69838z" id="path22051" class="shoe_primary_highlight"/><path d="m184.62504 923.43765c12.08119-3.04286 18.80961-9.83381 18.24996-16.37515-12.48767 5.86089-23.72584 17.26196-18.24996 16.37515z" id="path22053" class="shoe_primary_highlight"/></g><g id="g22067"><path id="path22057" class="shadow" d="m375.5847 902.04598c.52386-4.42278 1.19018-8.77106 2.62778-13.11184-.18418-4.15006-1.53153-7.58074-2.24386-11.19255 1.41187-3.81106 3.55196-7.41574 3.75747-11.68734l9.5403 1.19132 11.39699.54305c-.13161 5.61968.61689 10.96792 1.61199 16.17184-.39734 2.28591-1.32892 4.4142-1.48163 6.5833.19655 4.23326.43486 8.67491.6404 13.13785z"/><path d="m375.5847 902.04598c.75862-4.37061 1.32442-8.74123 2.62778-13.11184.0883-4.25905-1.39782-7.63422-2.24386-11.19255 1.53488-3.81106 3.75773-7.41574 3.75747-11.68734 7.1647-2.30115 13.32653-.95897 20.93729 1.73437-.54348 5.61968.32614 10.96792 1.61199 16.17184-.64128 2.19443-1.39646 4.38887-1.48163 6.5833.11788 3.79832.22972 7.57856.33238 11.33121 1.16458 14.8059 9.30648 39.26119-18.37285 39.15873-13.68601-2.79091-8.88675-22.36864-7.16857-38.98772z" class="skin feet" id="path22059"/><path d="m396.35931 879.09549c.33577 5.97053 1.94225 6.86306 4.45368 11.7344-4.10767-5.64573-4.49649-6.43544-4.45368-11.7344z" class="shadow" id="path22061"/><path d="m378.16402 886.94417c3.50178-2.27327 4.23806-2.786 5.89065-7.82868-.78635 4.34205-1.48231 5.32462-5.89065 7.82868z" class="shadow" id="path22063"/><path d="m375.5847 902.04598c.75862-4.37061 1.32442-8.74123 2.62778-13.11184.0883-4.25905-1.39782-7.63422-2.24386-11.19255 1.53488-3.81106 3.75773-7.41574 3.75747-11.68734 7.1647-2.30115 13.32653-.95897 20.93729 1.73437-.54348 5.61968.32614 10.96792 1.61199 16.17184-.64128 2.19443-1.39646 4.38887-1.48163 6.5833.12638 4.0724.24583 8.124.35445 12.14311 6.00128 31.52071-.78896 41.13462-19.16504 38.52621-6.37512-.90492-9.8957-10.25636-6.39845-39.1671z" class="stockings_primary" id="path22065"/></g><path id="path22069" d="m377.16211 882.4707c-.0982.007-.184.0688-.2207.16016-1.99811 4.96664-2.52004 10.74476-2.45703 16.75586.12297 11.73429-1.78599 22.27294-3.17774 34.97656-.32856 2.99904.11638 5.27392 1.06445 6.98828.94807 1.71436 2.39389 2.85537 4.01563 3.60547 3.24349 1.5002 7.20431 1.47419 9.58594 1.46875 7.30356-.009 13.22191-.38474 17.02343-2.47266 1.90077-1.04394 3.26827-2.53364 3.95899-4.5957.69072-2.06206.7121-4.6804-.004-8.00781-3.09763-14.39707-3.82472-31.97531-5.64258-43.03906-.0514-.2955-.48151-.27731-.50781.0215-.29339 3.95676-.56434 8.48991-.0391 14.89063.57335 6.98532.86538 11.4453.78906 14.31836-.0382 1.43652-.16914 2.47534-.39258 3.22656s-.52967 1.20975-.9375 1.53906c-1.71072 1.38135-2.64743 1.5806-4.16797 1.51758-1.52054-.063-3.60734-.42834-7.375-.21875-1.67908.0934-3.26971.54396-4.72265.85351-1.45294.30955-2.75686.47256-3.87305.0645-1.99544-.72957-3.70697-2.27906-4.41291-5.02679-1.08241-4.21308.73312-16.36101 1.70515-21.39965.51348-2.66166.84929-5.2856.96948-7.64388.17116-3.35834-.0775-6.17117-.93555-7.84374-.0469-.0913-.14369-.14591-.24609-.13868zm.0176.25586c1.62503 3.16783 1.06304 11.17095-.79883 18.69727-3.59026 14.51306-1.32474 21.53443 3.61328 23.33984 2.39208.87458 5.41294-.71964 8.69727-.90234 7.49196-.41676 8.21131 1.45301 11.68945-1.35547 1.80476-1.45727 1.78371-5.33045.63672-19.30469-.52393-6.38376-.25413-10.89563.0391-14.84961 1.81257 11.03156 2.53962 28.62185 5.64453 43.05274 2.83943 13.19701-6.1394 14.74752-20.72851 14.76562-4.76419.0109-15.70936.0618-14.41211-11.7793 1.39065-12.69362 3.30297-23.24218 3.17968-35.00585-.0628-5.99445.46131-11.74117 2.43946-16.65821z" class="shadow"/><path id="path22071" class="shoe_primary" d="m371.56037 934.39132c-1.29725 11.84109 9.6483 11.78958 14.41249 11.7787 14.58911-.0181 23.56777-1.56857 20.72834-14.76558-3.10491-14.43089-3.83132-32.02203-5.64389-43.05359-.29319 3.95398-.56383 8.46645-.0399 14.85021 1.14699 13.97424 1.1678 17.84781-.63696 19.30508-3.47814 2.80848-4.1978.93912-11.68976 1.35588-3.28433.1827-6.3035 1.77582-8.69558.90124-4.93802-1.80541-7.20377-8.82689-3.61351-23.33995 1.86187-7.52632 2.42282-15.52926.79779-18.69709-1.97815 4.91704-2.50176 10.66373-2.43894 16.65818.12329 11.76367-1.78947 22.3133-3.18012 35.00692z"/><path id="path22073" d="m373.70205 942.75374c3.2207 3.44863 9.10794 3.4235 12.27081 3.41628 7.57926-.009 13.64429-.43239 17.32467-2.68711-5.73629 3.65755-6.37452 3.50908-16.87082 4.50989-3.35813-.0462-11.87778-.47341-12.72466-5.23906z" style="display:inline;fill-opacity:1;fill:#000;opacity:1;stroke-width:.999995"/><g id="g22087" style="filter:url(#filter22159)" clip-path="url(#clipPath22164)"><path d="m385.90352 940.54041c-11.29536-2.98711-14.66555-13.32033-5.30329-22.98098l12.28597.88389c9.35938-6.60521 11.53605 10.24934 9.55936 14.23643-2.03405 4.10278-5.5335 6.51356-16.54204 7.86066z" id="path22075" class="shoe_primary_highlight"/><path d="m385.90352 940.54041c-11.29536-2.98711-14.66555-13.32033-5.30329-22.98098l12.28597.88389c9.35938-6.60521 11.53605 10.24934 9.55936 14.23643-2.03405 4.10278-5.5335 6.51356-16.54204 7.86066z" id="path22077" class="shoe_primary_highlight"/><path d="m385.90352 940.54041c-11.29536-2.98711-14.66555-13.32033-5.30329-22.98098l12.28597.88389c9.35938-6.60521 11.53605 10.24934 9.55936 14.23643-2.03405 4.10278-5.5335 6.51356-16.54204 7.86066z" id="path22079" class="shoe_primary_highlight"/><path d="m385.78291 937.80037c-9.86633-2.98711-12.81014-13.32033-4.63234-22.98098l10.73161.88389c8.17528-6.60521 10.07657 10.24934 8.34996 14.23643-1.77671 4.10278-4.83343 6.51356-14.44923 7.86066z" id="path22081" class="shoe_primary_highlight"/><path d="m386.45077 934.53c-8.61593-2.98711-11.18666-13.32033-4.04527-22.98098l9.37155.88389c7.1392-6.60521 8.79953 10.24934 7.29174 14.23643-1.55154 4.10278-4.22087 6.51356-12.61802 7.86066z" id="path22083" class="shoe_primary_highlight"/><path d="m386.46539 930.81769c-7.79424-2.98711-10.1198-13.32033-3.65947-22.98098l8.47779.88389c6.45834-6.60521 7.96033 10.24934 6.59634 14.23643-1.40358 4.10278-3.81833 6.51356-11.41466 7.86066z" id="path22085" class="shoe_primary_highlight"/></g></svg>