<svg viewBox="0 0 560 1e3"><path class="areola" d="m245.56185 251.55642c-.86254-.78552-2.03098-2.55215-3.02546-4.70061.0345-2.27912.76432-8.12108 3.10818-14.05758 1.421.25373 2.07623 1.82455 2.07623 1.82455s3.32805-3.93385 6.38833.80632c3.06028 4.74018-5.55654 14.38093-8.54728 16.12699z" id="path2482-8-7"/><path class="areola" d="m311.20178 248.40454c-3.18669-2.26963-9.63881-12.72964-4.55598-16.92564 5.08282-4.19601 7.31661-.008 7.31661-.008s4.25554-3.93385 8.16868.80632c3.91314 4.74018-7.10509 14.38093-10.92931 16.12699z" id="path2482-8"/><path class="shadow" d="m313.47573 239.66032c-1.94762-.0319-2.30525-.47307-2.84254-1.38769-.0692-.11498-.14074-.6753-.039-1.04629.26998-.9844 1.38054-1.82945 2.49788-1.77138 1.83776.0955 2.2692 2.11008 2.25662 2.11245-.19082.92279-.63028 2.09291-1.87298 2.09291z" id="path3454"/><path id="path3456" d="m313.47573 239.66032c-1.94762-.0319-2.40618-.60407-2.84254-1.38769-.0133.01-.14074-.6753-.039-1.04629.26998-.9844 1.53307-1.84755 2.49788-1.77138 1.78528.14096 2.2692 2.11008 2.25662 2.11245-.15647.78536-.63028 2.09291-1.87298 2.09291z" class="areola"/><path class="shadow" d="m311.35893 236.87262c.87662-.34085 1.71217.12006 2.25579.57658-.65277-.31849-1.48757-.75499-2.25579-.57658z" id="path3458"/><path id="path3460" d="m312.37165 236.86687c.50004-.43498.80129-.55077 1.55144-.47994-.70137.0247-1.0201.15274-1.55144.47994z" class="shadow"/><path class="shadow" d="m246.84943 242.44113c-1.78297-.0319-2.11037-.47307-2.60223-1.38769-.0634-.11498-.12885-.6753-.0357-1.04629.24716-.9844 1.26383-1.82945 2.28672-1.77138 1.68239.0955 2.07736 2.11008 2.06584 2.11245-.17469.92279-.57699 2.09291-1.71464 2.09291z" id="path3464"/><path id="path3466" d="m246.84943 242.44113c-1.78297-.0319-2.20276-.60407-2.60223-1.38769-.0122.01-.12885-.6753-.0357-1.04629.24716-.9844 1.40347-1.84755 2.28672-1.77138 1.63435.14096 2.07736 2.11008 2.06584 2.11245-.14324.78536-.57699 2.09291-1.71464 2.09291z" class="areola"/><path class="shadow" d="m244.21552 240.06223c.80251-.34085 1.56743.12006 2.06509.57658-.59758-.31849-1.36181-.75499-2.06509-.57658z" id="path3468"/><path id="path3470" d="m245.14263 240.05648c.45777-.43498.73355-.55077 1.42028-.47994-.64208.0247-.93386.15274-1.42028.47994z" class="shadow"/></svg>