<svg viewBox="0 0 560 1e3"><g id="g4410"><path style="fill-opacity:1;fill:#000;opacity:1;stroke-dasharray:none;stroke-dashoffset:0;stroke-linecap:butt;stroke-linejoin:miter;stroke-miterlimit:4;stroke-opacity:1;stroke-width:.45354331;stroke:none;vector-effect:none" d="m398.09087 260.28647c1.24099-.28261 2.66801-.71056 3.83971-1.27725l-.12625-.14136-3.87399.28099z" id="path4359"/><path id="path4357" d="m398.07524 260.20444c1.24099-.28261 2.4727-.74572 3.65221-1.17178l-.42698-.52809-3.37009.64429z" class="top_primary"/><path style="fill-opacity:.39347079;fill:#000;opacity:1;stroke-dasharray:none;stroke-dashoffset:0;stroke-linecap:butt;stroke-linejoin:miter;stroke-miterlimit:4;stroke-opacity:1;stroke-width:.45354331;stroke:none;vector-effect:none" d="m398.07524 260.20444c1.24099-.28261 2.4727-.74572 3.65221-1.17178l-.42698-.52809-3.37009.64429z" id="path53839"/></g><path d="m356.86719 177.63281c-.67732-.014-1.07682.007-1.125.0488.005.0455.031.10532.041.1543 1.14979-.32645 23.34712.76214 30.32032 9.94336 11.64087 15.13126 8.78933 16.45707 11.06836 41.36718 2.38711 18.20395 2.35213 17.67654 4.48242 29.46094-17.14012 1.41581-23.83667 5.32284-38.42383 8.89063-2.12582-15.02965-1.94282-17.39836-2.86133-25.60352.69976 8.20516.12613 11.06996 2.50195 26.19336 14.58716-3.56779 21.93215-7.66427 39.07227-9.08008-2.13029-11.7844-2.32772-11.65738-4.71484-29.86133-2.27903-24.91011.57055-26.28085-11.07032-41.4121-6.2286-8.20086-24.54979-10.00366-29.29101-10.10157z" id="path4355" class="shadow"/><g id="g4396" transform="translate(0.078125,0.31250001)"><path style="fill-opacity:.99553576;fill:#000;opacity:.2;stroke-dasharray:none;stroke-dashoffset:0;stroke-linecap:butt;stroke-linejoin:miter;stroke-miterlimit:4;stroke-opacity:1;stroke-width:.45354331;stroke:none;vector-effect:none" d="m364.42961 262.51203.46691 2.08363c11.09598-1.44538 22.73935-4.25923 33.09478-3.85324l-1.03477-6.71567z" id="path4376"/><path id="path4361" d="m364.86711 264.91828.46691 2.08363c11.09598-1.44538 22.73935-4.25923 33.09478-3.85324l-1.03477-6.71567z" style="fill-opacity:.99553576;fill:#000;opacity:.2;stroke-dasharray:none;stroke-dashoffset:0;stroke-linecap:butt;stroke-linejoin:miter;stroke-miterlimit:4;stroke-opacity:1;stroke-width:.45354331;stroke:none;vector-effect:none"/><path style="fill-opacity:.99553576;fill:#000;opacity:.2;stroke-dasharray:none;stroke-dashoffset:0;stroke-linecap:butt;stroke-linejoin:miter;stroke-miterlimit:4;stroke-opacity:1;stroke-width:.45354331;stroke:none;vector-effect:none" d="m364.55461 264.16828.46691 2.08363c11.09598-1.44538 22.73935-4.25923 33.09478-3.85324l-1.03477-6.71567z" id="path4372"/><path id="path4374" d="m364.49211 263.41828.46691 2.08363c11.09598-1.44538 22.73935-4.25923 33.09478-3.85324l-1.03477-6.71567z" style="fill-opacity:.99553576;fill:#000;opacity:.2;stroke-dasharray:none;stroke-dashoffset:0;stroke-linecap:butt;stroke-linejoin:miter;stroke-miterlimit:4;stroke-opacity:1;stroke-width:.45354331;stroke:none;vector-effect:none"/></g><path id="path3149-7" d="m363.23055 267.49791c14.58716-3.56779 21.28433-7.47406 38.42445-8.88987-2.13029-11.7844-2.09549-11.25787-4.48261-29.46182-2.27903-24.91011.57142-26.23555-11.06945-41.36681-7.1184-9.3724-30.15965-10.31746-30.42011-9.92677-2.50151 5.59877-7.23558 11.28652-2.38037 29.25795.79847 6.13455 3.13468 26.51215 7.06667 34.78418.91851 8.20516.7356 10.57349 2.86142 25.60314z" class="top_primary"/><path d="m400.25 250.77344c-17.00826 1.51157-23.48292 5.47275-38.07421 8.85937l.0353.31641c12.75344-2.9241 20.72168-7.27558 38.10546-8.78321z" id="path4400" class="top_accent"/><g transform="translate(-2.2305712e-6)" style="display:inline" id="g92948"><path class="top_primary_shade" d="m361.95552 259.27154c-.62068-5.92926-1.02221-10.40981-1.5377-17.02274-1.70127-2.62549-3.67203-9.67227-2.91856-12.1486 5.36189 3.27522 11.1049 24.20773 4.45626 29.17134z" id="path97159"/><path id="path97157" d="m361.86713 257.96781c-.62068-5.92926-.93382-9.10608-1.44931-15.71901-1.70127-2.62549-3.38297-7.70743-2.6295-10.18376 4.93355 3.40257 9.67284 21.25269 4.07881 25.90277z" class="top_primary_shade"/><path class="top_primary_shade" d="m361.74994 256.92875c-.62068-5.92926-.81663-8.06702-1.33212-14.67995-1.70127-2.62549-2.9797-6.13301-2.22623-8.60934 4.60441 3.61857 8.2132 19.25555 3.55835 23.28929z" id="path92794-9-02"/><path id="path92935" d="m361.6505 256.07801c-.62068-5.92926-.71719-7.21628-1.23268-13.82921-1.70127-2.62549-2.8195-4.66908-2.06603-7.14541 4.50015 3.6424 7.13484 17.12802 3.29871 20.97462z" class="top_primary_shade"/><path class="top_primary_shade" d="m361.48477 254.79638c-.62068-5.92926-.55146-5.93465-1.06695-12.54758-1.70127-2.62549-2.35546-2.84607-1.60199-5.3224 4.26282 4.08315 5.20513 13.91376 2.66894 17.86998z" id="path92937"/><path id="path92939" d="m361.36324 253.1612c-.62068-5.92926-.42993-4.29947-.94542-10.9124-.76214-1.17813-1.38319-2.66929-1.20424-3.7756 3.74354 4.71291 3.54785 9.99152 2.14966 14.688z" class="top_primary_shade"/><path class="top_primary_shade" d="m361.04283 249.62567c-.49914-5.94031-.10952-.76394-.62501-7.37687-.76214-1.17813-1.00754-1.15564-.82859-2.26195 2.937 5.19905 2.0563 4.92024 1.4536 9.63882z" id="path92941"/></g></svg>