<svg viewBox="0 0 560 1e3"><path d="m320.51267 221.72628c-2.38805 2.39003-4.7273 4.96985-7.20994 7.53739-2.46082-2.462-4.71259-4.62173-7.04491-7.17578l-8.02819 6.89625c2.55375 2.79654 4.41454 5.73276 6.95982 8.28344-2.65836 2.65954-5.22219 5.24181-7.91356 7.67211l7.20569 8.16076c2.85862-2.58132 5.95018-4.8466 8.67662-7.5692 2.26753 2.31832 4.42689 4.49926 6.70899 7.08593l8.70898-7.56054c-2.51585-2.85161-4.88413-5.17966-7.29492-7.64648 2.55687-2.64771 5.10369-5.25995 7.4668-7.625zm.0264.14481 7.96094 7.95508c-2.31677 2.31868-4.87413 4.9882-7.38086 7.58399 2.36352 2.41845 4.68582 4.70039 7.15234 7.49609l-8.43945 7.44727c-2.23735-2.53595-4.45466-4.70956-6.67773-6.98243-2.67298 2.66922-5.81071 4.99859-8.61328 7.5293l-7.04297-7.97851c2.6386-2.38266 5.23752-5.04495 7.84375-7.65235-2.49537-2.50066-4.42797-5.50829-6.93164-8.25l7.87304-6.77734c2.28658 2.50397 4.60502 4.64486 7.01758 7.05859 2.43397-2.5172 4.89705-5.08652 7.23828-7.42969z" id="path19776" class="shadow"/><path d="m320.53906 221.87109c-2.34123 2.34317-4.80431 4.91249-7.23828 7.42969-2.41256-2.41373-4.731-4.55462-7.01758-7.05859l-7.87304 6.77734c2.50367 2.74171 4.43627 5.74934 6.93164 8.25-2.60623 2.6074-5.20515 5.2697-7.84375 7.65235l7.04297 7.97851c2.80257-2.53071 5.9403-4.86008 8.61328-7.5293 2.22307 2.27287 4.44038 4.44648 6.67773 6.98243l8.43945-7.44727c-2.46652-2.7957-4.78882-5.07764-7.15234-7.49609 2.50673-2.59579 5.06409-5.26531 7.38086-7.58399z" id="path163227" class="bra_primary"/><path d="m254.83789 225.42383c-2.35889 2.36082-4.61494 4.50863-6.98632 6.79101-.45904-.6489-.8431-1.28706-1.24404-1.95329-2.95867 2.74046-5.32491 20.74738-3.70518 23.06853l1.36133.82031c1.06951-1.73508 2.17877-3.23028 3.35155-4.72656 2.27907 2.30393 4.41302 4.50585 6.55665 6.93555l8.60742-7.7062c-2.62241-2.97238-5.09496-5.42851-7.41184-7.83482 2.39311-2.32263 4.8841-4.55713 7.61306-7.28834zm.0117.14844 7.96094 7.95507c-2.67545 2.67766-5.17725 5.01393-7.52344 7.29102 2.27145 2.35913 4.72393 4.87496 7.29492 7.78906l-8.43945 7.44727c-2.10158-2.38205-4.34764-4.61821-6.58203-6.87696-1.14978 1.46694-2.25224 3.01769-3.30078 4.71875l-1.18165-.72851c-1.58797-2.27564.62474-20.11016 3.5254-22.79688.39308.65317.81558 1.29546 1.26562 1.93164 2.32488-2.23763 4.66784-4.41593 6.98047-6.73046z" id="path19781" class="shadow"/><path d="m254.84961 225.57227c-2.31263 2.31453-4.65559 4.49283-6.98047 6.73046-.45004-.63618-.87317-1.2785-1.26625-1.93167-2.90066 2.68672-5.11232 20.52153-3.52435 22.79717l1.18123.72825c1.04854-1.70106 2.151-3.25181 3.30078-4.71875 2.23439 2.25875 4.48045 4.49491 6.58203 6.87696l8.43945-7.44727c-2.57099-2.9141-5.02347-5.42993-7.29492-7.78906 2.34619-2.27709 4.84799-4.61336 7.52344-7.29102z" id="path163227-8" class="bra_primary"/></svg>