<svg viewBox="0 0 560 1e3"><path d="m229.65252 424.39751c-.68023.82738-2.39065 3.07003-2.22742 4.51877.22781 2.02187 1.90352 4.72055 3.93739 4.66429 1.99279-.0551 3.3524-2.79812 3.59928-4.77632.21075-1.68867-1.97614-4.70734-1.97614-4.70734s1.43068 3.19836.9344 4.72534c-.35572 1.0945-1.3826 2.37703-2.53304 2.34603-1.30096-.0351-2.40484-1.54007-2.71746-2.8034-.27797-1.12331.63356-3.08985 1.05392-3.91108-.0426-.0292-.0579-.0459-.071-.0563z" class="shadow" id="path5229"/><path d="m211.97551 403.00927s-2.70247 3.03537-2.49919 4.83954c.22782 2.02186 1.90352 4.72055 3.93739 4.66428 1.9928-.0551 3.3524-2.79812 3.59928-4.77632.21076-1.68867-1.97614-4.70734-1.97614-4.70734s1.4307 3.19836.9344 4.72535c-.35572 1.09449-1.3826 2.37702-2.53304 2.34602-1.30096-.0351-2.40484-1.54006-2.71746-2.80339-.35775-1.44571 1.25476-4.28814 1.25476-4.28814z" class="shadow" id="path5231"/><path d="m241.45688 434.60316c-.77805.99531-2.09814 2.89659-1.95382 4.17737.22782 2.02188 1.90351 4.72055 3.93739 4.66429 1.99279-.0551 3.3524-2.79812 3.59928-4.77632.21075-1.68867-1.97614-4.70734-1.97614-4.70734s1.43068 3.19836.9344 4.72534c-.35573 1.0945-1.3826 2.37703-2.53304 2.34603-1.30097-.0351-2.40484-1.54006-2.71746-2.8034-.24061-.97233.41001-2.57646.86188-3.52271-.0791-.0596-.0699-.0612-.15249-.10329z" class="shadow" id="path5233"/><path id="path4909" class="steel_piercing" d="m229.79276 424.8013c-.61839.75216-2.17332 2.79093-2.02493 4.10797.2071 1.83806 1.73047 4.29141 3.57945 4.24026 1.81162-.0501 3.04763-2.54374 3.27207-4.34211.19159-1.53515-1.79649-4.2794-1.79649-4.2794s1.30062 2.9076.84945 4.29577c-.32338.995-1.25691 2.16093-2.30276 2.13275-1.18269-.0319-2.18622-1.40006-2.47042-2.54854-.2527-1.02119.57596-2.80896.95811-3.55553-.0387-.0265-.0526-.0417-.0645-.0512z"/><path d="m220.3718 414.34448s-2.70248 3.03537-2.49919 4.83954c.22781 2.02186 1.90351 4.72055 3.93739 4.66428 1.99279-.0551 3.3524-2.79811 3.59928-4.77632.21075-1.68866-1.97614-4.70734-1.97614-4.70734s1.43068 3.19836.9344 4.72535c-.35573 1.0945-1.38261 2.37702-2.53304 2.34602-1.30097-.0351-2.40484-1.54006-2.71746-2.80339-.35775-1.44571 1.25476-4.28814 1.25476-4.28814z" class="shadow" id="path5235"/><path id="path4911" class="steel_piercing" d="m212.09104 403.4413s-2.45679 2.75943-2.27199 4.39958c.20711 1.83806 1.73047 4.29141 3.57945 4.24026 1.81163-.0501 3.04763-2.54375 3.27207-4.34211.1916-1.53516-1.79649-4.2794-1.79649-4.2794s1.30063 2.9076.84945 4.29577c-.32338.99499-1.25691 2.16093-2.30276 2.13275-1.18269-.0319-2.18622-1.40006-2.47042-2.54854-.32523-1.31428 1.14069-3.89831 1.14069-3.89831z"/><path d="m255.56137 444.44249c-.74541 1.04331-1.61436 2.51345-1.49586 3.56518.22781 2.02187 1.90351 4.72055 3.93739 4.66429 1.99279-.0551 3.3524-2.79813 3.59928-4.77632.21075-1.68867-1.97614-4.70734-1.97614-4.70734s1.43068 3.19836.9344 4.72534c-.35573 1.0945-1.3826 2.37703-2.53304 2.34603-1.30097-.0351-2.40484-1.54007-2.71746-2.8034-.189-.76376.1719-1.91735.55442-2.83571-.11719-.0833-.29943-.17598-.30299-.17807z" class="shadow" id="path5237"/><path id="path4913" class="steel_piercing" d="m241.62199 434.97591c-.70732.90483-1.9074 2.63326-1.7762 3.79761.20711 1.83807 1.73046 4.29141 3.57945 4.24026 1.81162-.0501 3.04763-2.54374 3.27207-4.34211.19159-1.53515-1.79649-4.2794-1.79649-4.2794s1.30062 2.9076.84945 4.29577c-.32339.995-1.25691 2.16093-2.30276 2.13275-1.1827-.0319-2.18622-1.40005-2.47042-2.54854-.21874-.88394.37274-2.34224.78353-3.20247-.0719-.0542-.0635-.0556-.13863-.0939z"/><path d="m266.54347 450.5247c-.75852 1.04733-1.6814 2.57183-1.5595 3.65365.22782 2.02187 1.90351 4.72055 3.93739 4.66429 1.99279-.0551 3.35239-2.79813 3.59928-4.77632.21075-1.68868-1.97614-4.70734-1.97614-4.70734s1.43068 3.19836.9344 4.72534c-.35573 1.09449-1.38261 2.37703-2.53304 2.34603-1.30097-.0351-2.40484-1.54007-2.71746-2.8034-.19895-.80396.21142-2.03988.61493-2.9787-.15649-.0805-.2441-.10054-.29986-.12355z" class="shadow" id="path5239"/><path id="path4915" class="steel_piercing" d="m220.48733 414.77651s-2.4568 2.75943-2.27199 4.39958c.2071 1.83806 1.73046 4.29141 3.57945 4.24026 1.81162-.0501 3.04763-2.54374 3.27207-4.34211.19159-1.53515-1.79649-4.2794-1.79649-4.2794s1.30062 2.9076.84945 4.29577c-.32339.995-1.25692 2.16093-2.30276 2.13275-1.1827-.0319-2.18622-1.40006-2.47042-2.54854-.32523-1.31428 1.14069-3.89831 1.14069-3.89831z"/><path d="m274.30295 453.83511c-.6088.9513-1.15982 2.07671-1.0639 2.928.22781 2.02187 1.90351 4.72055 3.93739 4.66429 1.99279-.0551 3.3524-2.79813 3.59928-4.77632.21075-1.68868-1.97614-4.70734-1.97614-4.70734s1.43068 3.19834.9344 4.72534c-.35573 1.09449-1.3826 2.37703-2.53304 2.34603-1.30097-.0351-2.40484-1.54007-2.71746-2.8034-.14709-.59441.0388-1.42494.30891-2.19694-.22639-.11977-.26392-.11153-.48944-.17966z" class="shadow" id="path5241"/><path id="path4917" class="steel_piercing" d="m255.76811 444.75959c-.67764.94846-1.4676 2.28495-1.35987 3.24107.2071 1.83806 1.73046 4.29141 3.57945 4.24026 1.81162-.0501 3.04763-2.54375 3.27207-4.34211.19159-1.53515-1.79649-4.2794-1.79649-4.2794s1.30062 2.9076.84945 4.29577c-.32339.995-1.25691 2.16093-2.30276 2.13275-1.1827-.0319-2.18622-1.40006-2.47042-2.54854-.17182-.69433.15627-1.74305.50402-2.57792-.10654-.0757-.27221-.15998-.27545-.16188z"/><path id="path4919" class="steel_piercing" d="m266.74443 450.84984c-.68957.95212-1.52855 2.33803-1.41773 3.3215.20711 1.83806 1.73046 4.29141 3.57945 4.24026 1.81162-.0501 3.04762-2.54375 3.27207-4.34211.19159-1.53516-1.79649-4.2794-1.79649-4.2794s1.30062 2.9076.84945 4.29577c-.32339.99499-1.25692 2.16093-2.30276 2.13275-1.1827-.0319-2.18622-1.40006-2.47042-2.54854-.18086-.73088.1922-1.85444.55903-2.70791-.14227-.0732-.22191-.0914-.2726-.11232z"/><path id="path4919-3" class="steel_piercing" d="m274.54896 454.09428c-.55345.86482-1.05438 1.88792-.96718 2.66182.2071 1.83806 1.73046 4.29141 3.57945 4.24026 1.81162-.0501 3.04763-2.54375 3.27207-4.34211.19159-1.53516-1.79649-4.2794-1.79649-4.2794s1.30062 2.90759.84945 4.29577c-.32339.99499-1.25691 2.16093-2.30276 2.13275-1.1827-.0319-2.18622-1.40006-2.47042-2.54854-.13372-.54038.0353-1.2954.28083-1.99722-.20581-.10888-.23993-.10139-.44495-.16333z"/></svg>