<svg viewBox="0 0 560 1e3"><path d="m252.68555 300.86133c-2.21146 7.48465-4.57402 13.76847-6.86133 19.31445-6.98412 16.93416-13.16295 26.99071-12.2793 43.41602.10225 1.90062 1.57469 7.21366 1.20489 12.45581 16.91859 3.62318 30.21118-78.87283 17.93574-75.18628z" id="path16052-4-4-5" class="top_primary"/><path d="m282.80909 265.97185-9.36685-.33269c-3.26386 49.27996-4.52897 69.12497 4.85228 144.93462 1.29185-.13744 2.60206-.29255 3.92978-.46452 1.44125-.18667 2.87806-.38417 4.3109-.59429-4.12386-49.46153-7.77907-98.66061-3.72611-143.54312z" id="path16052-4-9-8" class="top_primary"/><g transform="translate(3.9012433e-6)" style="display:inline;opacity:1" id="g24010-1-4-5-5-9"><g style="display:inline;opacity:1" id="g8259-4-4-3-8-6-6"><path d="m267.10987 347.87261c-.0442.85757-.67113 1.52643-1.40033 1.49393-.72917-.0326-1.28446-.75405-1.24027-1.61163.0442-.85756.67113-1.52643 1.40032-1.49393.72917.0325 1.28446.75405 1.24028 1.61163z" id="path4492-4-55-06-1-5-2-7" class="top_accent"/><path d="m272.54878 316.76399c-.27155.83927-1.08939 1.32405-1.82672 1.08279-.73733-.24126-1.11491-1.1172-.84337-1.95648.27155-.83927 1.08939-1.32405 1.82672-1.08279.73732.24126 1.11491 1.1172.84337 1.95648z" id="path4492-94-7-6-6-1-8-6" class="top_accent"/><path d="m277.72573 282.05885c.0554.8804-.5767 1.6367-1.41183 1.68924-.83512.0525-1.55704-.61855-1.61243-1.49895-.0554-.8804.5767-1.6367 1.41183-1.68924.83512-.0526 1.55704.61855 1.61243 1.49895z" id="path4492-94-7-9-2-4-0-0-4" class="top_accent"/><path d="m269.6721 377.92968c.1619.84332-.28705 1.64257-1.00289 1.78521-.71583.14262-1.42741-.42537-1.58937-1.26867-.1619-.84331.28705-1.64257 1.00288-1.78521.71583-.14262 1.42741.42537 1.58938 1.26867z" id="path4492-4-55-06-9-0-7-7-8" class="top_accent"/></g><path style="display:inline;fill-opacity:1;fill:none;opacity:1;stroke-dasharray:none;stroke-dashoffset:0;stroke-linecap:butt;stroke-linejoin:miter;stroke-miterlimit:4;stroke-opacity:1;stroke-width:.453543;stroke:#343434;vector-effect:none" d="m281.09973 265.84445c-.0203.16557-.0404.33112-.0604.49666-1.00078 8.28924-.99135 19.15101-1.26581 29.91017-.38074 14.9249-9.17465 22.75462-9.81154 40.0406-.38443 10.43379-4.66522 32.5664 12.02093 73.82266" id="path16108-6-7-9-8"/><path style="display:inline;fill-opacity:1;fill:none;opacity:1;stroke-dasharray:none;stroke-dashoffset:0;stroke-linecap:butt;stroke-linejoin:miter;stroke-miterlimit:4;stroke-opacity:1;stroke-width:.453543;stroke:#7f7f7f;vector-effect:none" d="m274.91153 265.6637c-.0435.39443-.0857.78895-.12651 1.18364-.78348 7.57382-1.07775 15.21162-1.14402 23.51305-.11775 14.7501-7.95034 27.31436-10.33212 39.65591-1.9292 9.99643-4.65896 48.32299 12.99334 80.68749" id="path16110-1-5-2-0"/></g></svg>