<svg viewBox="0 0 560 1e3"><defs><filter style="color-interpolation-filters:sRGB" id="filter13790"><feGaussianBlur stdDeviation="1 1" result="blur" id="feGaussianBlur13788"/></filter><clipPath clipPathUnits="userSpaceOnUse" id="clipPath13794"><path style="fill-opacity:.38488578;fill:#00e0e8" id="path13796" d="m243.6 491.575c-.3 5.7 2 12.8 7.1 16.5 5.6 4.1 9.8.5 21.8 3.5 9.4 2.4 9.1 5.3 16.5 6.5 1.7.3 15.7 2.3 24.2-6.5 6.2-6.3 6-15.1 5.9-28.3-.2-9.7-2.1-16.3-3.5-19.9-2.4-6.6-3.9-10.4-7.7-13-8.3-5.4-20.9.6-27.1 3.5-7 3.3-10.9 7-18.9 14.1-11.8 10.9-17.8 16.3-18.3 23.6z"/></clipPath></defs><path d="m243.6 499.375c3.3 8.9 7.4 10.4 10.4 11.3 6.6 2 10.1-.6 21 2.7 5 1.5 8.3 5.6 16.6 5.6 1.5.0 13.3 2.3 22.7-7 5.9-5.7 5.6-14.1 5.4-26.3-.2-9.1-2-15.1-3.3-18.6-2.3-6.2-3.6-9.8-7.1-12.1-7.7-5-19.3.5-25.2 3.3-6.3 3-11.6-1.4-19 5.4-10.8 10.2-25.4 25-21.5 35.7z" class="shadow" id="XMLID_868_"/><path d="m243.6 491.575c-.3 5.7 2 12.8 7.1 16.5 5.6 4.1 9.8.5 21.8 3.5 9.4 2.4 9.1 5.3 16.5 6.5 1.7.3 15.7 2.3 24.2-6.5 6.2-6.3 6-15.1 5.9-28.3-.2-9.7-2.1-16.3-3.5-19.9-2.4-6.6-3.9-10.4-7.7-13-8.3-5.4-20.9.6-27.1 3.5-7 3.3-10.9 7-18.9 14.1-11.8 10.9-17.8 16.3-18.3 23.6z" class="skin scrotum" id="XMLID_869_"/><g id="g13786" style="filter:url(#filter13790)"><path class="skin_shade" d="m251.79017 474.99766c-70.654 34.94035 94.51551 119.31395 68.75586 4.47415-.85204-.27292-7.62351 27.70575-21.27674 29.64699-8.01873 1.14014-13.7022-3.94338-21.98145-6.54248-9.24601-2.9026-16.86179 5.38407-25.98888-2.76164-6.97107-6.22155.27773-21.54144.49121-24.81702z" id="path7048-5-1-3-89-2-7" clip-path="url(#clipPath13794)"/></g></svg>