<svg viewBox="0 0 560 1e3"><path class="areola" d="m245.94542 243.7292c-1.59722 1.06191-2.35083 2.49876-3.47795 3.76961l.38363-4.00428c.095-.99136.34029-1.49665.68952-2.17377l-.31673-.21132c.16594-1.07326.34368-2.14356.74577-3.07275.37871-.20231.7193-.2331 1.0392-.17079 1.01956-2.12609 3.72149-6.1021 3.72149-6.1021s-.79365 4.08678-.92235 6.011c1.85312.24383 5.32849.96237 5.32849.96237s-3.2575 1.66352-4.54841 2.77169c.4372 2.531 2.06436 7.47727 2.06436 7.47727s-3.66477-3.07349-4.70702-5.25693z" id="path2472-3-6"/><path class="areola" d="m312.50785 241.03136-7.06793 5.17136 3.4237-7.5798-5.8564-2.5784 8.08136-.87646 2.8937-6.1021 1.34811 6.011 8.07479.96237-6.89265 2.77169 3.12832 7.47727z" id="path2472-3"/><path class="shadow" d="m313.47573 239.66032c-1.94762-.0319-2.30525-.47307-2.84254-1.38769-.0692-.11498-.14074-.6753-.039-1.04629.26998-.9844 1.38054-1.82945 2.49788-1.77138 1.83776.0955 2.2692 2.11008 2.25662 2.11245-.19082.92279-.63028 2.09291-1.87298 2.09291z" id="path3476"/><path id="path3478" d="m313.47573 239.66032c-1.94762-.0319-2.40618-.60407-2.84254-1.38769-.0133.01-.14074-.6753-.039-1.04629.26998-.9844 1.53307-1.84755 2.49788-1.77138 1.78528.14096 2.2692 2.11008 2.25662 2.11245-.15647.78536-.63028 2.09291-1.87298 2.09291z" class="areola"/><path class="shadow" d="m311.35893 236.87262c.87662-.34085 1.71217.12006 2.25579.57658-.65277-.31849-1.48757-.75499-2.25579-.57658z" id="path3480"/><path id="path3482" d="m312.37165 236.86687c.50004-.43498.80129-.55077 1.55144-.47994-.70137.0247-1.0201.15274-1.55144.47994z" class="shadow"/><path class="shadow" d="m246.84943 242.44113c-1.78297-.0319-2.11037-.47307-2.60223-1.38769-.0634-.11498-.12885-.6753-.0357-1.04629.24716-.9844 1.26383-1.82945 2.28672-1.77138 1.68239.0955 2.07736 2.11008 2.06584 2.11245-.17469.92279-.57699 2.09291-1.71464 2.09291z" id="path3486"/><path id="path3488" d="m246.84943 242.44113c-1.78297-.0319-2.20276-.60407-2.60223-1.38769-.0122.01-.12885-.6753-.0357-1.04629.24716-.9844 1.40347-1.84755 2.28672-1.77138 1.63435.14096 2.07736 2.11008 2.06584 2.11245-.14324.78536-.57699 2.09291-1.71464 2.09291z" class="areola"/><path class="shadow" d="m244.21552 240.06223c.80251-.34085 1.56743.12006 2.06509.57658-.59758-.31849-1.36181-.75499-2.06509-.57658z" id="path3490"/><path id="path3492" d="m245.14263 240.05648c.45777-.43498.73355-.55077 1.42028-.47994-.64208.0247-.93386.15274-1.42028.47994z" class="shadow"/></svg>