<svg viewBox="0 0 560 1e3"><g data-transform="boob_left" id="g202228"><path d="m322.84571 226.55156c-3.90405 2.08876-12.93765 6.74644-9.34876 13.15571 7.35993-.12333 10.29966-9.90761 9.34876-13.15571z" class="highlight2" id="path202216"/><path d="m306.04383 259.67783c-6.1261 5.66572-10.01104 14.4965-3.2788 17.92498 5.19209-1.91178 6.56013-10.12439 3.2788-17.92498z" class="highlight2" id="path202218"/><path d="m306.52428 253.77798c-2.52203 2.11585-.96028 2.736-.51477 3.56296 1.58801-.85495 1.95344-1.31749.51477-3.56296z" class="highlight2" id="path202220"/><path d="m326.06932 222.13512c-1.22147.36424-3.31869.26994-2.06748 2.69367 3.7576-.35326 2.5202-1.85988 2.06748-2.69367z" class="highlight2" id="path202222"/><path d="m309.37239 245.89609c-1.93318-2.66464-3.81134-1.62939-4.6676-1.24318.95615.97412 2.75662 1.24892 4.6676 1.24318z" class="highlight2" id="path202224"/><path d="m309.15278 241.11139c-2.2507-.40995-3.28079.27589-3.81171 1.05069 1.96976.38023 2.33023.47184 3.81171-1.05069z" class="highlight2" id="path202226"/></g><g data-transform="boob_right" id="g202244"><path d="m254.80018 240.05528c-13.2387-3.4516-26.21833 10.25679-30.87194 13.30955 7.08138 1.9892 29.9217 5.05076 30.87194-13.30955z" class="highlight2" id="path202230"/><path d="m268.48041 225.56618c-1.65505-.30083-3.56173.99968-3.43768 2.35862 1.13081.18865 3.45979.51451 3.43768-2.35862z" class="highlight2" id="path202232"/><path d="m222.68456 252.96266c-1.27153-.37317-8.95444.34278-9.78367.43799 1.30626 1.23617 9.7053 2.47659 9.78367-.43799z" class="highlight2" id="path202234"/><path d="m205.48818 264.78295c-.0493 9.26158 3.88982 24.27852 6.34232 26.98811.29977-.56475-5.89685-25.33946-6.34232-26.98811z" class="highlight2" id="path202236"/><path d="m205.50735 260.31837c-1.65275 1.11903-.81284 2.68327-.10109 3.3073 1.03475-.61238.56423-2.42886.10109-3.3073z" class="highlight2" id="path202238"/><path d="m206.03398 251.34414c-1.04048.29573-1.90535.62505-2.62968 1.25415 1.26017.37339 2.45457.23967 2.62968-1.25415z" class="highlight2" id="path202240"/><path d="m206.08216 248.29748c-.46798.0545-1.465.36461-1.60379 1.22943.47811-.51926 1.49742-.44964 1.60379-1.22943z" class="highlight2" id="path202242"/></g></svg>