<svg viewBox="0 0 560 1e3"><g data-transform="boob_left" id="g202150"><path d="m317.11029 238.88185s-.23388-7.76502 2.48391-9.70547c3.22407-2.30193 9.25839-2.04781 11.84634.95151 2.49197 2.88809 1.67649 8.48672-.76428 11.4182-1.97632 2.37366-8.98029 2.28363-8.98029 2.28363s6.14089-1.50116 7.45173-3.99636c1.06864-2.03419.83001-5.19619-.76428-6.85092-1.78723-1.85498-5.35001-2.31581-7.6428-1.14182-2.35047 1.20353-3.63033 7.04123-3.63033 7.04123z" class="shadow" id="path202142"/><path d="m299.74672 240.82868s.23389-7.76502-2.48391-9.70547c-3.22406-2.30193-9.25838-2.04781-11.84634.95152-2.49199 2.8881-1.67648 8.48669.76428 11.41819 1.97632 2.37366 8.98029 2.28365 8.98029 2.28365s-6.14089-1.50117-7.45173-3.99637c-1.06864-2.0342-.83001-5.1962.76428-6.85092 1.78723-1.85499 5.35001-2.31582 7.6428-1.14183 2.35046 1.20352 3.63033 7.04123 3.63033 7.04123z" class="shadow" id="path202144"/><path id="path202146" class="steel_piercing" d="m317.83054 238.59602s-.21263-7.0591 2.2581-8.82316c2.93096-2.09263 8.4167-1.86163 10.7694.86503 2.26543 2.62554 1.52408 7.71518-.6948 10.38017-1.79665 2.15789-8.1639 2.07605-8.1639 2.07605s5.58261-1.3647 6.7743-3.63308c.97149-1.84924.75455-4.72379-.6948-6.2281-1.62476-1.68635-4.86365-2.10528-6.948-1.03801-2.13679 1.09412-3.3003 6.4011-3.3003 6.4011z"/><path id="path202148" class="steel_piercing" d="m299.02647 240.54287s.21263-7.05912-2.2581-8.82316c-2.93096-2.09267-8.4167-1.86165-10.7694.86501-2.26543 2.62552-1.52408 7.71518.6948 10.38019 1.79665 2.15786 8.1639 2.07602 8.1639 2.07602s-5.58263-1.36469-6.7743-3.63305c-.97148-1.84926-.75455-4.72381.6948-6.22812 1.62476-1.68633 4.86365-2.10528 6.948-1.03801 2.13679 1.0941 3.3003 6.40112 3.3003 6.40112z"/></g><g data-transform="boob_right" id="g202156"><path d="m209.18111 247.85654s1.059-3.99267 2.68149-4.91487c3.70872-2.10796 10.05458-2.7927 12.78872.48186 1.24782 1.49446.56735 4.42144-.82508 5.78221-2.32758 2.27462-9.69466 1.15642-9.69466 1.15642s6.61005.34009 8.04451-2.02377c.61667-1.01624.0813-2.70024-.82509-3.46933-2.1022-1.78376-5.64626-1.48234-8.25078-.5782-1.66848.57919-3.91911 3.56568-3.91911 3.56568z" class="shadow" id="path202152"/><path id="path202154" class="steel_piercing" d="m209.91423 247.6789s.96271-3.62971 2.43772-4.46807c3.37157-1.91633 9.14053-2.53881 11.62611.43804 1.13438 1.35861.51576 4.01952-.75008 5.25656-2.11597 2.06786-8.81332 1.0513-8.81332 1.0513s6.00911.30919 7.31318-1.83979c.5606-.92384.0738-2.45477-.75007-3.15393-1.9111-1.62161-5.13296-1.3476-7.50071-.52565-1.5168.52654-3.56283 3.24154-3.56283 3.24154z"/><path id="path225329" class="shadow" d="m204.43959 247.54638s.42415-3.87594.0549-5.07091c-.84414-2.73145-2.86186-4.73704-4.4316-2.34189-.71638 1.09313-1.0599 3.9137-.85463 5.45904.34308 2.58322 3.06088 3.16475 3.06088 3.16475s-2.30841-1.12731-2.33106-3.59775c-.0104-1.06203.50226-2.48318.96049-2.98824 1.06291-1.17144 2.20568-.12524 2.91155 1.26679.45219.89178.62949 4.10823.62949 4.10823z"/><path d="m204.22581 247.22473s.38572-3.5236.05-4.60993c-.76743-2.48315-2.60172-4.30644-4.02873-2.12901-.65125.99376-.96357 3.55792-.77699 4.96277.31187 2.34839 2.78258 2.87704 2.78258 2.87704s-2.09854-1.02483-2.11914-3.27068c-.009-.96548.45656-2.25744.87319-2.7166.96628-1.06494 2.00514-.11395 2.64684 1.15165.4111.81071.57227 3.73476.57227 3.73476z" class="steel_piercing" id="path225331"/></g></svg>