<svg viewBox="0 0 560 1e3"><defs><clipPath clipPathUnits="userSpaceOnUse" id="clipPathLeg_Wide"><path style="display:inline;fill-opacity:.19607843;fill:#00e0e8" id="path21190" d="m230.16344 406.75684s-12.5877 51.7189-12.8877 76.1189c-.36782 31.77965 6.95433 107.50343 14.46929 134.30347.36107 4.69556-3.03695 10.79151-.74046 25.66374 1.36037 8.80989 2.21605 9.30911 4.7938 18.63204-1.57612 59.1823-15.41843 146.40806-20.39721 197.39564l24.44118.2386c2.2-51.3 58.93707-110.66217 52.70766-170.90923.25772-5.16551-5.34658-15.66345-4.685-24.33327.61317-8.03525.74534-18.83014-.0492-29.59286-.40774-5.52344-2.62982-10.65541-1.88678-16.19898 6.92108-17.8404 9.4852-38.19731 12.06178-60.7189 6.60293-16.1781 6.40904-83.41622 3.24159-86.25025l-13.51105-9.85687s15.5597-.57049 15.07622-.62421l3.14438.23429c-3.40993 15.37588 9.52981 126.20607 35.11482 167.99625.38726 6.28143 1.71425 11.94402 3.58293 16.51999 2.67979 6.56225 8.31026 16.27188 8.31026 16.27188s9.20796 30.31083 14.92797 58.18868c2.6121 12.73068 7.26837 28.37709 9.61479 46.06708 3.65301 27.54048 4.30844 56.8825 2.2074 100.15166l21.00588 2.05882c.2-58.5 48.21749-148.87213.36161-213.23096 1.59844-15.40469-6.10129-30.01447-3.83238-43.53363 7.82094-46.6006.35954-101.22443-3.58425-152.08653-.3-26-14.75479-68.54216-14.75479-68.54216L230.1634 406.75684"/></clipPath><clipPath clipPathUnits="userSpaceOnUse" id="clipPathLeg_Normal"><path style="display:inline;fill-opacity:.19607843;fill:#f600e8" d="m230.16344 406.75684s-12.57114 51.7189-12.8877 76.1189c-.38812 31.77965 6.95433 107.50343 14.46929 134.30347.36107 4.69556-3.03695 10.79151-.74046 25.66374 1.36037 8.80989 2.21605 9.30911 4.7938 18.63204-1.57612 59.1823-15.41843 146.43931-20.39721 197.42689l24.44118.20735c2.2-51.3 52.61985-110.66217 46.04662-170.90923.27194-5.16551-3.68895-15.66345-2.99085-24.33327.64701-8.03525.78648-18.83014-.0519-29.59286-.43024-5.52344-2.77497-10.65541-1.99091-16.19898 7.30308-17.8404 5.81436-41.11413 10.77156-62.48667 6.96737-16.1781 12.773-81.64845 9.60555-84.48248l-13.51105-9.85687s15.5597-.57049 15.07622-.62421l3.14438.23429c-3.40993 15.37588 29.27461 149.20607 37.85962 167.99625.38726 6.28143 1.71425 11.94402 3.58293 16.51999 2.67979 6.56225 8.31026 16.27188 8.31026 16.27188s6.46316 30.31083 12.18317 58.18868c2.6121 12.73068 7.26837 28.37709 9.61479 46.06708 3.65301 27.54048 4.30844 56.8825 2.2074 100.15166l21.00588 2.05882c.2-58.5 36.78335-146.87213-3.32253-213.23096 1.59844-15.40469-2.8685-29.85933-3.83238-43.53363-3.17906-45.1006 4.04368-101.22443.0999-152.08653-.3-26-14.75479-68.54216-14.75479-68.54216l-148.7328 16.03681" id="path21196"/></clipPath><clipPath clipPathUnits="userSpaceOnUse" id="clipPathLeg_Narrow"><path style="display:inline;fill-opacity:.19607843;fill:#f6e000;opacity:1" id="path21202" d="m230.16344 406.75684s-12.5877 51.7189-12.8877 76.1189c-.36782 31.77965 6.95433 107.50343 14.46929 134.30347.36107 4.69556-3.03695 10.79151-.74046 25.66374 1.36037 8.80989 2.21605 9.30911 4.7938 18.63204-1.57612 59.1823-15.41843 146.47056-20.39721 197.45814l24.44118.1761c2.2-51.3 48.68707-110.66217 42.45766-170.90923.25772-5.16551-6.84658-15.66345-6.185-24.33327.61317-8.03525.74534-18.83014-.0492-29.59286-.40774-5.52344-2.62982-10.65541-1.88678-16.19898 6.92108-17.8404 8.86083-41.11413 13.55873-62.48667 6.60293-16.1781 16.66209-81.64845 13.49464-84.48248l-13.51105-9.85687s15.5597-.57049 15.07622-.62421l3.14438.23429c-3.40993 15.37588 32.27981 149.20607 40.86482 167.99625.38726 6.28143 1.71425 11.94402 3.58293 16.51999 2.67979 6.56225 8.31026 16.27188 8.31026 16.27188s3.45796 30.31083 9.17797 58.18868c2.6121 12.73068 7.26837 28.37709 9.61479 46.06708 3.65301 27.54048 4.30844 56.8825 2.2074 100.15166l21.00588 2.05882c.2-58.5 32.71749-146.87213-7.38839-213.23096 1.59844-15.40469-2.8685-29.85933-3.83238-43.53363-3.17906-45.1006 8.10954-101.22443 4.16575-152.08653-.3-26-14.75479-68.54216-14.75479-68.54216L230.1634 406.75684"/></clipPath></defs><g select_clip_options="clip-path=url(#clipPathLeg_Narrow) url(#clipPathLeg_Normal) url(#clipPathLeg_Wide)" select_clip="leg_size" id="g20459"><g id="g20457" style="display:inline"><path d="m411.18555 671.65625c-13.97858 8.30908-26.74144 13.89281-51.49219 13.9707 2.71584 10.212 5.75321 22.36395 8.18359 34.20899 2.6121 12.73068 7.26882 28.37641 9.61524 46.0664 3.65301 27.54048 4.30807 56.88319 2.20703 100.15235l21.00586 2.05859c.18316-53.57608 40.45958-133.88043 10.48047-196.45703zm-176.33789 10.40039c-3.58445 57.45645-15.01882 131.46278-19.44727 176.81445l24.44141.23829c2.2-51.3 58.93839-110.6631 52.70898-170.91016.0665-1.3328-.26379-3.02955-.76953-4.94922-29.36133 5.41393-44.87169 2.98724-56.93359-1.19336z" transform="translate(-5.1099825e-6)" id="path20441" class="stockings_primary"/><g id="g20520"><path class="stockings_primary" d="m415.193 669.23824c-16.33961 10.02713-29.40822 16.87106-58.88961 16.38477l-59.81854-3.27817c-40.73726 8.25656-56.35386 2.27175-70.832-3.91421v7.25m0 0c14.47814 6.18596 30.09474 12.17077 70.832 3.91421l59.81854 3.27817c29.48139.48629 42.55-6.35764 58.88961-16.38477v-7.25" id="path20465"/><path id="path20504" d="m415.193 669.23824c-16.33961 10.02713-29.40822 16.87106-58.88961 16.38477l-59.81854-3.27817c-40.73726 8.25656-56.35386 2.27175-70.832-3.91421v7.25m0 0c14.47814 6.18596 30.09474 12.17077 70.832 3.91421l59.81854 3.27817c29.48139.48629 42.55-6.35764 58.88961-16.38477v-7.25" class="stockings_primary"/><path class="stockings_primary" d="m415.193 669.23824c-16.33961 10.02713-29.40822 16.87106-58.88961 16.38477l-59.81854-3.27817c-40.73726 8.25656-56.35386 2.27175-70.832-3.91421v7.25m0 0c14.47814 6.18596 30.09474 12.17077 70.832 3.91421l59.81854 3.27817c29.48139.48629 42.55-6.35764 58.88961-16.38477v-7.25" id="path20506"/><path id="path20508" d="m415.193 669.23824c-16.33961 10.02713-29.40822 16.87106-58.88961 16.38477l-59.81854-3.27817c-40.73726 8.25656-56.35386 2.27175-70.832-3.91421v7.25m0 0c14.47814 6.18596 30.09474 12.17077 70.832 3.91421l59.81854 3.27817c29.48139.48629 42.55-6.35764 58.88961-16.38477v-7.25" class="stockings_primary"/><path class="stockings_primary" d="m415.193 669.23824c-16.33961 10.02713-29.40822 16.87106-58.88961 16.38477l-59.81854-3.27817c-40.73726 8.25656-56.35386 2.27175-70.832-3.91421v7.25m0 0c14.47814 6.18596 30.09474 12.17077 70.832 3.91421l59.81854 3.27817c29.48139.48629 42.55-6.35764 58.88961-16.38477v-7.25" id="path20510"/><path id="path20512" d="m415.193 669.23824c-16.33961 10.02713-29.40822 16.87106-58.88961 16.38477l-59.81854-3.27817c-40.73726 8.25656-56.35386 2.27175-70.832-3.91421v7.25m0 0c14.47814 6.18596 30.09474 12.17077 70.832 3.91421l59.81854 3.27817c29.48139.48629 42.55-6.35764 58.88961-16.38477v-7.25" class="stockings_primary"/></g></g></g><path d="m376.04029 704.37274c-3.05193-4.73424-5.97148-6.21733-6.55219-8.74767.72809-2.69162 1.42013-5.40362 3.47551-7.34533-1.42482-.0946-2.91353-.1125-3.90814-.72403.49313-4.40403.77079-7.08359 2.94028-7.74062 2.02229-.61244 3.46998.90891 6.14591 4.88743l3.58609-.18646c1.00158-3.87988 2.69442-6.01223 4.39374-5.9523 1.98003.0698 4.50571 3.28032 4.36419 7.50067 1.72322.7174 3.39004 1.46333 4.12455 2.68111-.22092 3.88245-.83182 7.47537-2.26566 10.45731-3.91374-1.43175-6.49719-6.02734-10.807-8.85809l-.95089-1.99429.18982 2.4817c-1.45851 4.8352-3.61008 9.00411-4.73621 13.54057z" id="path20533-0" class="stockings_accent"/><path d="m236.5096 703.44578c-1.24591-3.10271-2.3268-6.34884-2.65886-10.24582.65402-1.29334 1.98146-2.19468 3.22912-3.14245l-2.60018-.43436c.38511-3.55546 1.98843-6.01044 3.38901-8.6486 4.71377.93303 6.16541 2.88621 6.84004 5.0824.86485-.29632 1.63939.0189 2.38885.50371 1.61393-2.32768 3.25951-4.62677 5.91537-6.01321 2.12166 2.90879 2.99826 5.82502 3.38341 8.7442-1.11521.6751-2.58096.97347-4.27399 1.02755.94287 2.0926 2.20844 3.72378 3.48403 5.34066-2.21047 2.37131-3.87654 4.82303-5.30265 7.31022-1.88411-2.17591-3.58347-5.1535-4.72513-10.55107.57449-1.51908.70239-2.24691.36895-2.1574-.22715-.39076-.68006.74678-1.13433 1.89352z" id="path20551-6" class="stockings_accent"/></svg>