<svg viewBox="0 0 560 1e3"><g id="g4822" transform="matrix(1.0017766,0,0,1.0017766,-0.63254292,-0.30724415)"><path id="XMLID_511_-1-8-2-9" class="shadow" d="m222.31309 230.41353c27.62761-2.84004 54.98628-6.21798 80.98167-12.32247l-1.38826-3.79634c-24.90326 5.69686-50.40708 10.1926-77.19019 12.12975z"/><path id="XMLID_511_-1-8-2" class="shadow" d="m212.5985 231.94358c-.26979 1.40375-1.14168 4.52761-.71231 6.04134 4.21188-1.0921 8.69472-3.92289 11.42312-7.59136 2.22607-2.99304 3.41407-7.35824 3.25049-10.70782-1.0224-.0113-3.74679.90991-4.05819 1.48623l1.54493-.28257c-.80164 3.27918-1.61019 5.62444-3.35983 7.88176-2.06572 2.66511-6.05614 5.00466-8.0223 6.1622z"/><path id="XMLID_511_-1-8-2-9-8" class="shadow" d="m326.40919 217.07208c9.16891.60183 19.58559 1.46163 28.7545 6.66542l-.76326-3.96821c-7.37379-4.43842-17.0551-5.84118-25.58802-6.68627z"/><path id="XMLID_511_-1-8-2-9-2" class="shadow" d="m319.33812 223.52443c3.13149 14.52631 2.89341 28.68012-4.75134 43.25235l-4.21669-.17242c8.29737-13.11032 9.07293-28.18441 5.62601-43.09152z"/><path id="XMLID_511_-1-8-2-8" class="shadow" d="m311.78146 205.54126s-4.06911.83634-4.75478 1.23338c-3.06248 1.77333-6.34186 4.91937-4.95242 9.39071 1.38944 4.47134 9.79756 8.93051 15.3809 8.32756s11.38232-6.15933 12.03225-10.55334c.64993-4.39401-2.92629-6.78148-5.99024-8.33911-1.53648-.7811-6.39247-.64798-6.39247-.64798.43132.28882.76656.59341 1.0155.9021.0.0 2.86473.19978 4.09027 1.15267 2.09399 1.62813 4.90222 3.22496 4.36182 6.65545s-5.49858 7.36518-9.65134 7.74193c-4.54706.41253-10.62186-2.21016-12.22062-6.41495-.98964-2.60278 1.92904-5.99888 3.85457-7.00098.68954-.35886 1.99763-.90354 1.99763-.90354.26018-.62451.61169-1.00862 1.22893-1.5439z"/><path id="XMLID_511_-1-8-2-9-2-1" class="shadow" d="m213.87832 237.17918c-2.24796 16.04054 3.36292 28.33477 21.43031 35.21675l-1.9186.0485C218.02546 272.2753 210.15789 252.8513 211.92692 237.85504z"/><path id="XMLID_511_-1-8-2-9-28" class="shadow" d="m248.16035 269.85576 64.35095-3.16234-15.11323-3.41196-42.937 2.58394z"/></g></svg>