<svg viewBox="0 0 560 1e3"><defs/><path d="m335.70508 175.06445c5.45867.36287 14.07785 1.5485 20.05664 2.73828.0115-.0386.0346-.10786.0449-.14453-3.0522-.47043-9.71172-1.76272-13.30664-2.21679-3.59492-.45411-4.06311-.19536-6.79492-.37696zm0 0c-28.27537 3.89632-18.20383 2.54876-34.74414 7.55664-6.43301 1.26996-27.59375 7.34961-27.59375 7.34961-.005.001-.15796.2117-.1836.24219 3.43449-.96561 21.66267-6.07936 27.53321-7.23828 16.54031-5.00788 6.71291-4.01384 34.98828-7.91016zm-87.52149 49.35938c-3.19697 4.6287-7.70127 19.89264-5.88086 30.58008.31025 9.20828 3.42808 21.65734 7.08204 32.75.49149 1.49207 3.43037 16.10657-.71875 33.75-2.32734 9.89663-7.55575 16.92152-10.66016 28.96289 3.9539-12.78546 12.52392-23.57112 13.25781-46 .62286-19.03574-7.62999-29.312-8.57812-47.90039-1.25548-11.66481 1.36114-22.61946 5.49804-32.14258zm112.30664 17.57031c-.005.0131-5.56826 15.81844-17.82421 32.36914-4.2769 5.77561-12.85933 15.49504-14.09375 31.45117-.88818 11.48056 12.89437 21.60231 21.52343 31.07617-2.79653-3.18949-6.43421-7.03401-11.40625-11.96289-6.00123-6.93335-9.94725-13.47394-10.03125-17.4414.34827-5.60155 3.5987-19.59006 9.75586-27.19531 7.37887-9.11429 13.63905-18.80827 17.12696-26.07422 3.4879-7.26596 4.99023-12.18555 4.99023-12.18555zm-7.32812 98.54492c6.3712 8.25365 7.19305 12.60118 12.09375 20.87696 1.7785 3.60939 2.37843 4.71323 4.01953 8.16406-29.87506 28.3623-57.54678 36.73515-87.08203 40.56054-24.65638 3.19349-43.27592.57667-50.31641-13.20507 1.49162-9.13855 2.2456-15.43495 2.875-21.8086-.70338 5.45106-1.74427 12.98693-3 21.81446 8.00952 18.44509 40.10177 16.06112 65.60352 11.13867 22.52393-4.34765 47.81606-14.42898 72.02539-38.48438-1.43666-3.18334-3.71045-8.00069-7.45313-14.88672-2.63605-4.84999-4.02568-8.23736-8.76562-14.16992z" id="path4468-7" class="shadow"/><path d="m335.70508 175.06445c-28.27537 3.89632-18.44797 2.90228-34.98828 7.91016-6.43301 1.26996-29.70899 7.83984-29.70899 7.83984-.1208.0302-3.04001 3.76529-8.84829 10.93815-9.65005 11.9172-21.92674 32.02994-19.47453 54.81381.94813 18.58839 9.20108 28.86426 8.57822 47.9-.9103 27.82035-13.88869 37.72325-15.14212 55.75429-.002-.001-.004-.002-.006-.004-.0214.22721-.0355.40277-.0529.5996-1.20439 13.41903-1.66357 20.66796-4.18555 36.11914 7.04049 13.78174 25.66003 16.39856 50.31641 13.20507 29.53525-3.82539 57.20697-12.19824 87.08203-40.56054-1.6411-3.45083-2.24103-4.55467-4.01953-8.16406-5.0098-8.46001-5.7401-12.80402-12.51134-21.42364-8.04998-10.36524-25.15746-21.43694-24.17172-34.17857 1.23442-15.95613 9.81664-25.67422 14.09354-31.44983 12.26103-16.55755 17.82585-32.37179 17.82585-32.37179-5.38186-10.10555-6.08224-57.87148-4.71289-64.18555-5.97941-1.19087-14.6106-2.37899-20.07422-2.74219z" id="path16052-7" class="top_primary"/><g transform="translate(3.9012434e-6)" style="display:inline;opacity:1" id="g24010-1-4"><g style="display:inline;opacity:1" id="g8259-4-4-3"><path d="m305.82278 192.12114c-.36179.71828-1.14813 1.05222-1.75633.74587-.60821-.30635-.80797-1.13697-.44618-1.85525.36179-.71828 1.14813-1.05222 1.75633-.74587.60821.30635.80797 1.13697.44618 1.85525z" id="path4492-5-6-2" class="top_accent"/><path d="m278.03787 347.64508c.10363.85244-.39913 1.61899-1.12308 1.71215-.72393.0931-1.39484-.52236-1.49852-1.37479-.10363-.85243.39913-1.61899 1.12307-1.71215.72393-.0931 1.39484.52236 1.49853 1.37479z" id="path4492-4-55-06-1" class="top_accent"/><path d="m292.30029 217.58632c-.32864.78471-1.17381 1.17846-1.88774.87947-.71392-.299-1.02626-1.17752-.69762-1.96223.32864-.78471 1.17381-1.17846 1.88774-.87947.71392.299 1.02626 1.17752.69762 1.96223z" id="path4492-8-23-2-1" class="top_accent"/><path d="m281.95532 247.37732c-.17011.83621-.92699 1.38817-1.69052 1.23284-.76354-.15533-1.2446-.95913-1.07449-1.79534.17011-.83621.92699-1.38817 1.69052-1.23284.76354.15533 1.2446.95913 1.07449 1.79534z" id="path4492-9-6-7-5" class="top_accent"/><path d="m277.05554 316.36029c-.0179.88193-.66112 1.58203-1.4367 1.56372-.77558-.0183-1.3898-.74808-1.37191-1.63001.0179-.88193.66112-1.58203 1.4367-1.56372.77557.0183 1.3898.74808 1.37191 1.63001z" id="path4492-94-7-6-6" class="top_accent"/><path d="m277.72573 282.05885c.0554.8804-.5767 1.6367-1.41183 1.68924-.83512.0525-1.55704-.61855-1.61243-1.49895-.0554-.8804.5767-1.6367 1.41183-1.68924.83512-.0526 1.55704.61855 1.61243 1.49895z" id="path4492-94-7-9-2-4" class="top_accent"/><path d="m279.9846 377.92968c.1619.84332-.28705 1.64257-1.00289 1.78521-.71583.14262-1.42741-.42537-1.58937-1.26867-.1619-.84331.28705-1.64257 1.00288-1.78521.71583-.14262 1.42741.42537 1.58938 1.26867z" id="path4492-4-55-06-9-0" class="top_accent"/></g><path style="display:inline;fill-opacity:1;fill:none;opacity:1;stroke-dasharray:none;stroke-dashoffset:0;stroke-linecap:butt;stroke-linejoin:miter;stroke-miterlimit:4;stroke-opacity:1;stroke-width:.453543;stroke:#343434;vector-effect:none" d="m309.91353 188.94849c-10.42014 16.02775-19.27203 35.11292-23.84893 51.23003-2.63435 9.27664-4.06858 17.72596-5.02525 26.16259-1.62252 12.92631-1.06108 32.12357-1.55411 47.44048.0252 5.3538.0498 10.55981.0227 15.88116-.0532 10.44074 2.11051 47.59687 6.06874 80.01429" id="path16108-6"/><path style="display:inline;fill-opacity:1;fill:none;opacity:1;stroke-dasharray:none;stroke-dashoffset:0;stroke-linecap:butt;stroke-linejoin:miter;stroke-miterlimit:4;stroke-opacity:1;stroke-width:.453543;stroke:#7f7f7f;vector-effect:none" d="m302.7953 189.94257c-5.06404 7.89593-9.76365 16.49358-13.76684 25.08584-4.01675 8.62137-7.02304 17.08741-9.19735 25.01311-4.85037 17.68027-6.04758 32.46472-6.19011 50.31887-.11775 14.7501-.54525 26.73324-.6094 39.30236-.0542 10.62143 2.09764 48.06226 6.18744 80.86426" id="path16110-1"/></g><path style="baseline-shift:baseline;clip-rule:nonzero;color-interpolation-filters:linearRGB;color-interpolation:sRGB;color-rendering:auto;color:#000;direction:ltr;display:inline;dominant-baseline:auto;enable-background:accumulate;fill-opacity:.295533;fill-rule:nonzero;fill:#000;image-rendering:auto;isolation:auto;mix-blend-mode:normal;opacity:1;overflow:visible;shape-padding:0;shape-rendering:auto;solid-color:#000000;solid-opacity:1;stroke-dasharray:none;stroke-dashoffset:0;stroke-linecap:butt;stroke-linejoin:miter;stroke-miterlimit:4;stroke-opacity:1;stroke-width:.453543;stroke:none;vector-effect:none;visibility:visible;white-space:normal;writing-mode:lr-tb" d="m355.50391 177.77734c-1.02885 11.46883-.30334 29.84986.40625 39.88086 1.00793 14.24856 3.12609 21.91987 4.53711 24.60352l.11913-.41407c-1.32622-2.52237-3.19731-10.00228-4.20312-24.2207-.70837-10.01377-1.43148-28.40178-.4082-39.80859z" id="path49661-3"/><g transform="translate(-1.8515465e-6)" style="display:inline;opacity:1" id="g16076-6-6"><path id="path2840-7-7-8-9" d="m306.1115 174.72723 3.10935 13.7728c-3.58883.28907-4.19632.25785-6.36265-.32791 1.00219-12.04918 3.2533-13.44489 3.2533-13.44489z" class="top_primary"/><path d="m300.08667 172.57237c-2.03237 3.63344-2.40946 7.63281-3.39194 11.16176-.11097 2.48059 4.02564 5.20338 6.30994 6.62117-.11352-4.35414 2.20104-11.31333 2.96606-15.5101-2.0837-.64114-4.38743-1.29276-5.88406-2.27283z" id="path2842-6-6-2-0" style="display:inline;fill:#000;opacity:1"/><path d="m333.1721 164.81697c3.12234 3.33135 7.8525 6.78145 9.92028 10.58149-7.93754 9.36149-23.35479 13.30607-33.9727 15.90151-.57861-4.86704-2.13199-11.9051-3.13395-16.71185 8.60186-2.43964 22.03678-4.58024 27.18637-9.77115z" id="path2844-5-2-5-3" style="display:inline;fill:#000;opacity:1"/><path id="path2858-1-1-2-8" d="m333.1721 164.81697 9.92028 10.58149c-8.50147 8.95868-23.58459 13.14193-33.9727 15.90151-.35332-4.82062-1.60248-11.89123-3.13395-16.71185 8.60186-1.844 22.03678-4.11883 27.18637-9.77115z" class="top_primary"/><path id="path2860-6-7-8-4" d="m300.08667 172.57237-3.39194 11.16176c.27347 2.33273 4.1548 5.1537 6.30994 6.62117-.5339-4.37642 1.60936-11.42013 2.96606-15.5101-2.28233-.52764-4.46978-1.2457-5.88406-2.27283z" class="top_primary"/></g><g id="g92882"><path class="top_primary_shade" d="m360.43953 242.24933c-3.72079 10.04922-5.47724 12.76333-9.47458 20.11403-.002-7.35687 2.26957-22.35444 6.44118-32.47497.59983 3.69261 2.7588 11.96354 3.0334 12.36094z" id="path97121-3"/><path id="path97119-4" d="m360.43953 242.24933c-3.72079 10.04922-5.06519 11.99916-9.06253 19.34986-.002-7.35687 2.12268-19.45237 6.29429-29.5729.59983 3.69261 2.49364 9.82564 2.76824 10.22304z" class="top_primary_shade"/><path class="top_primary_shade" d="m360.43953 242.24933c-3.72079 10.04922-4.53109 10.88933-8.52843 18.24003.31222-7.40923 1.97703-16.82525 5.97113-26.91619.59983 3.69261 2.2827 8.27876 2.5573 8.67616z" id="path44014-2-0"/><path id="path92788-6" d="m360.43953 242.24933c-3.84268 9.4142-4.46041 10.61678-7.90399 17.27719.24679-6.38493 1.80147-14.56691 5.72234-24.47285.59983 3.69261 1.90705 6.79826 2.18165 7.19566z" class="top_primary_shade"/><path class="top_primary_shade" d="m360.43953 242.24933c-3.15632 7.81154-4.15156 9.86895-7.0038 15.62227.32326-5.19144 1.74563-11.90822 5.2199-21.16065.62228 3.67016 1.68275 4.96753 1.7839 5.53838z" id="path92790-7"/><path id="path92792-7" d="m360.43953 242.24933c-2.99943 7.6077-3.22115 7.85727-6.19933 14.28549.39581-4.05928 1.74067-9.52212 4.85737-18.18869.86155 2.85277 1.09861 3.38861 1.34196 3.9032z" class="top_primary_shade"/><path class="top_primary_shade" d="m360.43953 242.24933c-1.9303 5.3811-2.38214 5.95389-4.83258 11.45324.6154-2.89733 1.84326-7.02507 3.95466-13.96432.4518 1.60235.66191 2.07852.87792 2.51108z" id="path92794-9"/></g></svg>