<svg viewBox="0 0 560 1e3"><defs><filter style="color-interpolation-filters:sRGB" id="filter63536"><feGaussianBlur stdDeviation="1 1" result="blur" id="feGaussianBlur63534"/></filter><filter style="color-interpolation-filters:sRGB" id="filter69634"><feGaussianBlur stdDeviation="1 1" result="blur" id="feGaussianBlur69632"/></filter><clipPath clipPathUnits="userSpaceOnUse" id="clipPath13848"><path style="fill-opacity:.42355012;fill:#79e039" id="path13850" d="m255.75908 214.31503c-1.0502.4877-2.67386 1.23142-4.59487 3.3812-2.68734 3.00735-5.71197 6.68702-7.20588 9.48209-3.56921 2.17714-6.35109 4.54015-8.88713 6.96119-3.15484 2.7791-4.95075 6.24062-4.53998 10.20771.41077 3.96709 2.57358 9.90312 7.53857 14.31899 5.33842 4.14835 10.82706 4.43966 16.12536 1.55926 5.91739-3.95363 9.42562-10.31602 13.06002-19.68726-.79806-12.2272 5.66519-22.13913-11.49609-26.22318z"/></clipPath><clipPath clipPathUnits="userSpaceOnUse" id="clipPath13874"><path style="fill-opacity:.49033395;fill:#00e0e8" d="m336.95255 248.83566c4.97335-8.63123 2.74215-20.44871-2.41205-27.77552-2.33733-4.04838-18.81605-10.00744-26.83307-6.79494-7.93085 6.3092-16.93792 18.52934-15.49055 30.34683 4.03797 18.96933 35.3916 21.67155 44.73567 4.22363z" id="path13876"/></clipPath></defs><g id="g2754" data-transform="boob_right"><path id="path2750" class="shadow" d="m255.75908 214.67441c-.8692.8692-2.6705.95025-4.70192 3.0866-2.83243 2.97872-6.06347 6.52426-7.09883 9.41731-4.06866 2.13076-6.94164 4.5236-9.3999 7.00539-3.228 3.50068-4.5448 5.91264-4.35066 9.15948.65622 5.80962 2.38935 11.02466 7.86202 15.32302 4.91986 4.69139 10.57965 4.76064 16.12536 1.55926 4.46587-5.10449 6.37564-8.08665 11.8324-19.68726-8.52164-9.57815 6.17011-17.80274-10.26847-25.8638z"/><path d="m255.75908 214.31503c-1.0502.4877-2.67386 1.23142-4.59487 3.3812-2.68734 3.00735-5.71197 6.68702-7.20588 9.48209-3.56921 2.17714-6.35109 4.54015-8.88713 6.96119-3.15484 2.7791-4.95075 6.24062-4.53998 10.20771.41077 3.96709 2.57358 9.90312 7.53857 14.31899 5.33842 4.14835 10.82706 4.43966 16.12536 1.55926 5.91739-3.95363 9.42562-10.31602 13.06002-19.68726-.79806-12.2272 5.66519-22.13913-11.49609-26.22318z" class="skin boob" id="path2752"/><g id="g69630" style="filter:url(#filter69634)" clip-path="url(#clipPath13848)"><path class="boob_shade" d="m231.93852 249.84507c1.1889 2.98592 3.15744 6.17621 6.13127 8.82114 5.33842 4.14835 10.78287 4.08611 16.08117 1.20571 1.86532-2.82532-17.06353-6.41062-22.21244-10.02685z" id="path69622"/><path id="path69626" d="m234.44773 254.54944c.99102 1.44291 2.18998 2.84307 3.62206 4.11677 4.5463 3.53281 9.20155 4.26829 13.7554 2.62972.85834-1.23981-15.07131-5.78978-17.37746-6.74649z" class="boob_shade"/><path id="path13824" class="boob_highlight" d="m243.95833 227.17832c-5.16296-.10411-7.35109 3.8839-9.88713 6.30494 8.94902 6.42114 22.72581 1.58954 17.6847-2.59284-3.13908-2.53619-6.30348-3.6488-7.79757-3.7121z"/></g></g><g id="g2762" data-transform="boob_left"><path d="m336.95255 248.83566c5.64923-8.50834 1.06413-19.66204-2.99918-27.77552-3.69232-3.69233-16.70814-6.56732-25.76556-6.79494-7.52733 8.00867-13.15304 18.78217-15.97093 30.34683 4.25608 19.27946 35.56203 22.35634 44.73567 4.22363z" class="shadow" id="path2756"/><path id="path2760" class="skin boob" d="m336.95255 248.83566c4.97335-8.63123 2.74215-20.44871-2.41205-27.77552-2.33733-4.04838-18.81605-10.00744-26.83307-6.79494-7.93085 6.3092-16.93792 18.52934-15.49055 30.34683 4.03797 18.96933 35.3916 21.67155 44.73567 4.22363z"/><g id="g63440" style="filter:url(#filter63536)" clip-path="url(#clipPath13874)"><path clip-path="none" d="m336.95255 248.83566c6.66429-15.18699-5.95461-4.39733-19.31517-.57472-12.34662 3.53251-22.63894 4.18435-17.34256 7.95305 11.06679 7.38088 29.79624 5.43394 36.65773-7.37833z" class="boob_shade" id="path43880"/><path clip-path="none" d="m336.95255 248.83566c3.79167-7.85076-3.81037 1.76756-17.23804 5.3473-8.35314 2.22689-21.82999.94904-17.96319 2.92451 11.18653 6.30153 28.63242 3.99394 35.20123-8.27181z" class="boob_shade" id="path43884"/><path id="path13854" class="boob_highlight" d="m323.62214 219.15918c-9.66277-2.93818-18.32004 1.29478-24.29821 7.93269-9.14578 10.92244 5.38889 2.03001 15.12295 1.06508 11.65353-1.1552 31.9825 1.66501 9.17526-8.99777z"/></g></g></svg>