<svg viewBox="0 0 560 1e3"><g id="g2929" transform="matrix(1.0263785,0,0,1.0263785,-8.6733354,-5.3910578)" style="fill-opacity:1;fill:#c0c6c7;stroke-opacity:1;stroke:none"/><g id="g2931" transform="matrix(1.0228023,0,0,1.0228023,-5.1326497,-5.0109358)" style="fill-opacity:1;fill:#c0c6c7;stroke-opacity:1;stroke:none"/><g id="g3099" data-transform="boob_left"><path class="shadow" id="path2935" d="m300.97927 323.05282c0 2.869-3.23394 6.06912-6.1029 6.06912-2.869.0-6.10294-3.20012-6.1029-6.06912.0-2.86896 3.2339-6.06909 6.1029-6.06909 2.86896.0 6.10286 3.20013 6.1029 6.06909z"/><path d="m300.42446 323.05282c0 2.60818-2.93996 5.51737-5.54809 5.51737-2.60818.0-5.54813-2.90919-5.5481-5.51737.0-2.60814 2.93992-5.51733 5.5481-5.51733 2.60813.0 5.54805 2.90919 5.54809 5.51733z" id="path2941" class="steel_piercing"/><path d="m310.34851 281.71618c.94509 2.70886-1.05412 6.79568-3.76298 7.74078-2.70887.9451-6.81645-1.01111-7.76155-3.71996-.94508-2.70883 1.05417-6.79566 3.76299-7.74075 2.70883-.94509 6.81645 1.01111 7.76154 3.71993z" id="path2939-1" class="shadow"/><path class="steel_piercing" id="path2945-4" d="m309.82466 281.89895c.85918 2.46259-.95829 6.17787-3.42089 7.03705-2.46259.85918-6.19676-.91917-7.05594-3.38177-.85917-2.46256.95831-6.17784 3.4209-7.03702 2.46257-.85917 6.19676.91917 7.05593 3.38174z"/></g><g id="g3105" data-transform="boob_right"><path class="shadow" id="path2939" d="m167.08127 302.60096c0 2.86899-3.2339 6.06912-6.1029 6.06912s-6.1029-3.20013-6.1029-6.06912c0-2.86896 3.23394-6.06909 6.1029-6.06909 2.86896.0 6.1029 3.20013 6.1029 6.06909z"/><path class="shadow" id="path2943" d="m146.71545 340.80683c0 2.86896-3.23394 6.06908-6.1029 6.06908-2.86896.0-6.1029-3.20012-6.1029-6.06908.0-2.86896 3.23394-6.06909 6.1029-6.06909 2.86896.0 6.1029 3.20013 6.1029 6.06909z"/><path d="m166.52646 302.60096c0 2.60817-2.93991 5.51737-5.54809 5.51737-2.60817.0-5.54809-2.9092-5.54809-5.51737.0-2.60814 2.93992-5.51734 5.54809-5.51734 2.60814.0 5.54809 2.9092 5.54809 5.51734z" id="path2945" class="steel_piercing"/><path d="m146.16064 340.80683c0 2.60817-2.93992 5.51737-5.54809 5.51737-2.60818.0-5.54809-2.9092-5.54809-5.51737.0-2.60818 2.93991-5.51738 5.54809-5.51738 2.60817.0 5.54809 2.9092 5.54809 5.51738z" id="path2947" class="steel_piercing"/></g></svg>