<svg viewBox="0 0 560 1e3"><defs><filter style="color-interpolation-filters:sRGB" id="filter13628"><feGaussianBlur stdDeviation="1 1" result="blur" id="feGaussianBlur13626"/></filter><clipPath clipPathUnits="userSpaceOnUse" id="clipPath13632"><path style="fill-opacity:.42706502;fill:#00e0e8" id="path13634" d="m252 422.1c.6.4.5 1.3.5 1.5.0 1.9 4.9 11.6 14.3 19.9 7.1 6.2 21 15 25.6 11.1.9-.7 1.2-1.7 1.3-2.3 2.1-6.9-8.2-15.9-11.3-18.6-10-8.6-15.7-13.7-17.9-15.1-.3-.2-1.3-.8-1.5-2-.2-.8.3-1.2.4-2 .3-2-3-4.2-5.3-5.2-1.8-.8-5.9-2.6-8.6-.5-4.3 3.1-1.5 12.6.5 13 .5.3 1.3-.2 2 .2z"/></clipPath></defs><path d="m251.7 421.6c.5.4.5 1.3.5 1.5.0 2.8 5.5 12.7 10.5 17.6 15 14.6 29.9 18.3 28.4 11.7-.2-1 1.2-1.5 1.4-2.1 2-6.3-7.5-15.7-17.9-24.4-8.7-7.3-9-6.9-10.9-8.3-.3-.2-.7-.5-.9-1.5-.2-.7.4-1.6.5-2.2.4-2.3-2.8-4-5.6-5.4-2.2-1.2-6.7-2.5-9.1-.5-5.2 4.1-1.2 15.3 1.2 14 .6-.2 1.3-.7 1.9-.4z" class="shadow" id="XMLID_886_"/><path d="m252 422.1c.6.4.5 1.3.5 1.5.0 1.9 4.9 11.6 14.3 19.9 7.1 6.2 21 15 25.6 11.1.9-.7 1.2-1.7 1.3-2.3 2.1-6.9-8.2-15.9-11.3-18.6-10-8.6-15.7-13.7-17.9-15.1-.3-.2-1.3-.8-1.5-2-.2-.8.3-1.2.4-2 .3-2-3-4.2-5.3-5.2-1.8-.8-5.9-2.6-8.6-.5-4.3 3.1-1.5 12.6.5 13 .5.3 1.3-.2 2 .2z" class="skin penis" id="XMLID_887_"/><g id="g13624" style="filter:url(#filter13628)" clip-path="url(#clipPath13632)"><path class="skin_highlight" id="path7046-2-8-2-15" d="m289.44133 440.56684c-4.77301-.55483-21.03742-14.59465-25.0553-18.95228-4.75522-6.47347 21.50249-5.51477 25.0553 18.95228z"/><path class="skin_shade" d="m252.23578 424.14423c-10.35821-1.16261 15.51842 44.83963 35.75557 31.2851-5.06034-1.62081-28.81119-18.47002-35.75557-31.2851z" id="path7048-5-1-3-4"/><path d="m248.26699 410.00727c-2.47198-7.34189 18.30474-4.83629 15.17747 4.48253 1.185-1.31629-8.90143-6.84812-15.17747-4.48253z" id="path7134-38-2-0" class="skin_highlight"/><path id="path13470-29" d="m247.3365 411.4036c-5.52193-3.18806-1.82175 18.16342 4.24072 10.54529-3.36727-3.44962-2.81643-6.45966-4.24072-10.54529z" class="skin_shade"/><path id="path18155" d="m252.23578 424.14423c-10.35821-1.16261 15.51842 44.83963 35.75557 31.2851-5.06034-1.62081-28.81119-18.47002-35.75557-31.2851z" class="skin_shade"/><path d="m289.44133 440.56684c-4.77301-.55483-21.03742-14.59465-25.0553-18.95228-4.75522-6.47347 21.50249-5.51477 25.0553 18.95228z" id="path18157" class="skin_highlight"/><path class="skin_highlight" id="path18159" d="m248.26699 410.00727c-2.47198-7.34189 18.30474-4.83629 15.17747 4.48253 1.185-1.31629-8.90143-6.84812-15.17747-4.48253z"/><path class="skin_shade" d="m247.3365 411.4036c-5.52193-3.18806-1.82175 18.16342 4.24072 10.54529-3.36727-3.44962-2.81643-6.45966-4.24072-10.54529z" id="path18161"/></g></svg>