<svg viewBox="0 0 560 1e3"><path style="fill:#010101" d="m376.25774 383.17349c.10591.23296.2121.46251.31801.69809 6e-4-.004.001-.009.002-.0138-.10657-.23707-.21383-.44971-.32036-.68434l-4e-5 2e-5z" id="path14895"/><path class="shadow" d="m360.44732 351.69636c-24.55854 3.85776-52.4462 8.65843-79.94823 11.77752-13.31756 1.51039-25.81528 2.52182-36.77174 2.64566-11.07441.12518-20.44137-.63837-29.14553-2.65577-.65558 11.11281-.24433 20.57488.9138 32.12673.55907 5.57644 1.27253 11.37403 1.84151 17.57039.57478 6.25943.96845 12.72845.77491 19.9969-.21892 8.22168-.59613 17.7857-.22688 26.25443.16665.01.46503 1e-5.46503 1e-5-.36336-8.46497-.0494-17.59228.15476-25.90795.17837-7.26567-.23412-13.74347-.82473-20.00268-.58497-6.19941-1.31197-12.00089-1.88014-17.58093-1.17517-11.54161-1.59029-21.04479-.90425-32.13378 8.67284 2.01604 18.00475 2.77901 29.01873 2.65408 10.8987-.12363 23.31573-1.13404 36.55426-2.64351 27.31386-3.11436 55.13-7.92062 79.73104-11.7812 3.53369 7.86807 9.01387 16.30633 14.68133 28.19889-5.63338-11.93364-10.91031-20.65158-14.43387-28.51879z" id="path14897"/><path class="bottoms_primary" d="m360.19986 352.01626c-24.60104 3.86058-52.41718 8.66684-79.73104 11.7812-13.23853 1.50947-25.65556 2.51988-36.55426 2.64351-11.01398.12493-20.34589-.63804-29.01873-2.65408-.68604 11.08899-.27092 20.59217.90425 32.13378.56817 5.58004 1.29517 11.38152 1.88014 17.58093.59061 6.25921 1.0031 12.73701.82473 20.00268-.20413 8.31541-.51776 17.44357-.15476 25.90795 58.57212.0104 175.58778-16e-5 175.58778-16e-5.10744-11.14322-1.62219-23.45584-4.07933-34.64715-2.50464-11.40766-5.7244-21.50521-8.57282-29.32715-7.52187-20.65551-16.20816-32.56064-21.08596-43.42151z" id="path14899"/></svg>