<svg viewBox="0 0 560 1e3"><defs><filter style="color-interpolation-filters:sRGB" id="filter14341"><feGaussianBlur stdDeviation="4 6" result="blur" id="feGaussianBlur14339"/></filter><clipPath clipPathUnits="userSpaceOnUse" id="clipPath14343"><path style="fill-opacity:.5;fill:#0ff" id="path14345" d="m344.4707 197.11914c-16.88618-7.87324-20.50231-2.91514-89.10251 14.59249-10.26962 15.70737-32.45276 37.55041-46.58671 49.38557-34.3193 28.73751-76.83374 30.87812-79.46215 80.88415-1.42501 27.11119 8.38956 53.82091 26.76395 72.39368 13.44721 13.5924 32.75201 25.87579 57.344 26.02547 11.82911.072 40.482-4.76134 44.12936-5.49816 10.20619-2.06179 32.81345.50997 63.48047-4.1875 23.64888-3.62246 42.81924-10.54878 57.57065-22.9377 15.50281-13.01999 25.99445-32.13855 26.14224-62.5623.11991-24.68319-12.53851-47.8246-21.86133-62.13672-23.13716-35.5195-31.5147-62.11874-38.41797-85.95898z"/></clipPath><clipPath clipPathUnits="userSpaceOnUse" id="clipPath15041"><path class="top_primary" d="M72.207023 210.08399C41.526766 275.31016-101.22777 372.7437 204.21239 351.79794c274.21125-18.80423 254.56065-49.46808 319.1376-150.16792C495.3545 115.50876 108.38159 92.196931 72.207023 210.08399z" id="path15044"/></clipPath><clipPath clipPathUnits="userSpaceOnUse" id="clipPath15202"><path id="path15204" d="m344.34504 176.36818c-14.62958 18.46411-36.88098 36.29399-50.61092 34.44876-8.54797-1.1488-9.80437-15.51763-10.35461-22.98859-4.99086.81134-10.46154 2.4236-10.46154 2.4236-.27579.069-196.112057-9.41293-200.710947 19.83204C-44.740265 454.56174-34.759725 593.36103 275.98373 590.80004 550.82965 588.5349 577.27305 361.32986 523.34999 201.63002 520.56827 184.12978 354.67346 182.90563 355.7793 177.80664c-5.63691-.66054-6.71089-.7659-11.43426-1.43846z" class="top_primary"/></clipPath></defs><path class="shadow" id="path13752" d="m344.2168 176.33008c-14.62958 18.46411-36.65288 36.25538-50.38282 34.41015-8.54797-1.1488-9.85405-15.55638-10.40429-23.02734-4.99086.81134-10.30274 2.29688-10.30274 2.29688-.0451.0534-.49448.46642-1.10351 1.04687.43598-.40461.86822-.7981.89453-.80469.0.0 5.47008-1.61248 10.46094-2.42383.55024 7.47097 1.80749 21.83949 10.35547 22.98829 13.72994 1.84523 35.98174-15.98316 50.61132-34.44727 4.70209.66953 5.80817.77904 11.37891 1.43164.013-.0165.026-.0323.0391-.0488-5.63691-.66054-6.8235-.74931-11.54687-1.42187zM269.44141 193.625c-7.25193 7.43243-23.03375 25.70105-26.57813 48.24023.11435-.0391.22939-.0762.34375-.11523 3.71943-22.41049 19.23341-40.85242 26.23438-48.125z"/><g id="g13758"><path id="path13754" d="m344.34504 176.36818c-14.62958 18.46411-36.88098 36.29399-50.61092 34.44876-8.54797-1.1488-9.80437-15.51763-10.35461-22.98859-4.99086.81134-12.2735 2.86554-12.2735 2.86554-.139.0348-4.70476 5.203-11.58604 14.50377-6.77209 9.15319-14.03188 21.88079-16.31294 36.38633 1.16138.21629 2.77193 1.20862 3.93218 1.40292 3.47111.58126 6.93713 1.06481 10.39843 1.45507 3.46131.39026 6.91715.68842 10.36914.89649 3.452.20807 6.90057.32662 10.34375.36133 6.88638.0694 13.75524-.19838 20.60938-.76953 6.85414-.57116 13.69166-1.44478 20.51758-2.58594 6.82592-1.14116 13.46293-2.81596 20.26463-4.45658 5.86849-1.41552 17.8692 8.36566 20.36028 3.2441-1.2405-3.73638-2.65076-10.21642-2.65242-11.00183-2.78172-17.50024-2.67652-47.22439-1.57068-52.32338-5.63691-.66054-6.71089-.7659-11.43426-1.43846z" class="top_primary"/><path id="path13756" d="m355.50391 177.77734c-1.02885 11.46883-.30334 29.84986.40625 39.88086 1.00793 14.24856 3.12609 21.91987 4.53711 24.60352l.11913-.41407c-1.32622-2.52237-3.19731-10.00228-4.20312-24.2207-.70837-10.01377-1.43148-28.40178-.4082-39.80859z" style="baseline-shift:baseline;clip-rule:nonzero;color-interpolation-filters:linearRGB;color-interpolation:sRGB;color-rendering:auto;color:#000;direction:ltr;display:inline;dominant-baseline:auto;enable-background:accumulate;fill-opacity:.295533;fill-rule:nonzero;fill:#000;image-rendering:auto;isolation:auto;mix-blend-mode:normal;opacity:1;overflow:visible;shape-padding:0;shape-rendering:auto;solid-color:#000000;solid-opacity:1;stroke-dasharray:none;stroke-dashoffset:0;stroke-linecap:butt;stroke-linejoin:miter;stroke-miterlimit:4;stroke-opacity:1;stroke-width:.45354301;stroke:none;vector-effect:none;visibility:visible;white-space:normal;writing-mode:lr-tb"/></g><g id="g15096" clip-path="url(#clipPath15202)"><g id="g13872" data-transform="boob_outfit" style="display:inline;stroke-width:1.06676996"><g clip-path="url(#clipPath15041)" id="g15013"><path class="top_primary" id="path13760" d="m344.4707 197.11914c-16.88618-7.87324-20.50231-2.91514-89.10251 14.59249-10.26962 15.70737-32.45276 37.55041-46.58671 49.38557-34.3193 28.73751-76.83374 30.87812-79.46215 80.88415-1.42501 27.11119 8.38956 53.82091 26.76395 72.39368 13.44721 13.5924 32.75201 25.87579 57.344 26.02547 11.82911.072 40.482-4.76134 44.12936-5.49816 10.20619-2.06179 32.81345.50997 63.48047-4.1875 23.64888-3.62246 42.81924-10.54878 57.57065-22.9377 15.50281-13.01999 25.99445-32.13855 26.14224-62.5623.11991-24.68319-12.53851-47.8246-21.86133-62.13672-23.13716-35.5195-31.5147-62.11874-38.41797-85.95898z"/><g id="g13779" style="display:inline;stroke-width:.234982" transform="matrix(4.2556534,0,0,4.2556534,-1030.2461,-712.19766)"><g style="stroke-width:.211325" transform="matrix(1.0886486,0.22640499,-0.22640499,1.0886486,26.166501,-91.7597)" id="g13766"><path class="top_primary_strong_shade" d="m314.11185 238.36779c0 1.15936-.85739 1.83405-2.18761 1.83405-3.99957-.59742 2.22451-3.63669 2.18761-1.83405z" id="path13762"/><path class="top_primary_strong_highlight" id="path13764" d="m309.51566 238.10262c0-1.15937 1.07836-2.09922 2.40858-2.09922 3.98661.52741-2.25716 3.65716-2.40858 2.09922z"/></g><g transform="rotate(33.082737,288.55055,177.56216)" style="display:inline;stroke-width:.234982" id="g13777"><path class="top_primary_strong_shade" d="m315.06029 237.73885c0 1.15936-.85739 1.83405-2.18761 1.83405-.38164-.057-.70732-.0954-.9171-.19058l-.24357-1.03802c.81364-.89141 3.37163-1.74621 3.34828-.60545z" id="path13769"/><path class="top_primary_strong_highlight" id="path13772" d="m312.17266 235.4645c.22152-.0586.45655-.09.70002-.09 2.85866.37819.45703 2.09446-1.18664 2.46094.11126-1.32806.4169-2.28871.48662-2.3709z"/></g></g><g id="g13850"><g id="g13791" style="display:inline;stroke-width:.35857499;stroke:none" transform="matrix(4.6589916,-0.23305892,-0.64799242,1.7017645,-893.88977,-18.833533)"><path id="path13781" d="m257.78463 231.41908 25.46538-1.91912c-1.75833-1.43306-8.91975-1.9852-14.375-1.125-5.21054.7236-7.94775 1.92284-11.09038 3.04412z" class="top_primary_strong_highlight"/><path d="m257.77115 231.41459 25.46476-1.92729c-1.52315 1.68089-8.52041 3.30234-14.04298 3.27122-5.26011.0672-8.14639-.70736-11.42178-1.34393z" id="path13785" class="top_primary_strong_shade"/><path id="path13787" d="m261.35088 231.14146 18.93637-1.43319c-1.13266 1.24996-6.33604 2.45572-10.44279 2.43258-3.91157.05-6.0579-.52602-8.49358-.99939z" class="top_primary_strong_shade"/><path d="m280.36534 229.70219-18.93637 1.43319c1.13266-1.24996 6.33604-2.45572 10.44279-2.43258 3.91157-.05 6.0579.52602 8.49358.99939z" id="path13789" class="top_primary_strong_highlight"/></g><g id="g13801" style="display:inline;stroke-width:.43688601;stroke:none" transform="matrix(3.7337814,-0.38131294,-0.44163202,1.4482895,-687.65863,135.53723)"><path id="path13793" d="m257.78463 231.41908 25.46538-1.91912c-1.75833-1.43306-8.91975-1.9852-14.375-1.125-5.21054.7236-7.94775 1.92284-11.09038 3.04412z" class="top_primary_strong_highlight"/><path d="m257.77115 231.41459 25.46476-1.92729c-1.52315 1.68089-8.52041 3.30234-14.04298 3.27122-5.26011.0672-8.14639-.70736-11.42178-1.34393z" id="path13795" class="top_primary_strong_shade"/><path id="path13797" d="m261.35088 231.14146 18.93637-1.43319c-1.13266 1.24996-6.33604 2.45572-10.44279 2.43258-3.91157.05-6.0579-.52602-8.49358-.99939z" class="top_primary_strong_shade"/><path d="m280.36534 229.70219-18.93637 1.43319c1.13266-1.24996 6.33604-2.45572 10.44279-2.43258 3.91157-.05 6.0579.52602 8.49358.99939z" id="path13799" class="top_primary_strong_highlight"/></g><g id="g13814" style="display:inline;stroke-width:.301826;stroke:none" transform="matrix(4.2152715,-0.33302951,-0.38767755,2.634758,-822.31498,-128.76766)"><path id="path13804" d="m257.78463 231.41908 25.46538-1.91912c-1.75833-1.43306-8.91975-1.9852-14.375-1.125-5.21054.7236-7.94775 1.92284-11.09038 3.04412z" class="top_primary_strong_highlight"/><path d="m257.77115 231.41459 25.46476-1.92729c-1.52315 1.68089-8.52041 3.30234-14.04298 3.27122-5.26011.0672-8.14639-.70736-11.42178-1.34393z" id="path13806" class="top_primary_strong_shade"/><path id="path13808" d="m261.35088 231.14146 18.93637-1.43319c-1.13266 1.24996-6.33604 2.45572-10.44279 2.43258-3.91157.05-6.0579-.52602-8.49358-.99939z" class="top_primary_strong_shade"/><path d="m280.36534 229.70219-18.93637 1.43319c1.13266-1.24996 6.33604-2.45572 10.44279-2.43258 3.91157-.05 6.0579.52602 8.49358.99939z" id="path13811" class="top_primary_strong_highlight"/></g><g id="g13828" style="display:inline;stroke-width:.427062;stroke:none" transform="matrix(3.7889809,-0.49957967,-0.40389075,1.5003464,-693.63679,195.71692)"><path id="path13816" d="m257.78463 231.41908 25.46538-1.91912c-1.75833-1.43306-8.91975-1.9852-14.375-1.125-5.21054.7236-7.94775 1.92284-11.09038 3.04412z" class="top_primary_strong_highlight"/><path d="m257.77115 231.41459 25.46476-1.92729c-1.52315 1.68089-8.52041 3.30234-14.04298 3.27122-5.26011.0672-8.14639-.70736-11.42178-1.34393z" id="path13818" class="top_primary_strong_shade"/><path id="path13820" d="m261.35088 231.14146 18.93637-1.43319c-1.13266 1.24996-6.33604 2.45572-10.44279 2.43258-3.91157.05-6.0579-.52602-8.49358-.99939z" class="top_primary_strong_shade"/><path d="m280.36534 229.70219-18.93637 1.43319c1.13266-1.24996 6.33604-2.45572 10.44279-2.43258 3.91157-.05 6.0579.52602 8.49358.99939z" id="path13826" class="top_primary_strong_highlight"/></g><g id="g13838" style="display:inline;stroke-width:.42247099;stroke:none" transform="matrix(3.9703784,-0.58703934,-0.42079675,1.4733732,-730.28653,240.21759)"><path id="path13830" d="m257.78463 231.41908 25.46538-1.91912c-1.75833-1.43306-8.91975-1.9852-14.375-1.125-5.21054.7236-7.94775 1.92284-11.09038 3.04412z" class="top_primary_strong_highlight"/><path d="m257.77115 231.41459 25.46476-1.92729c-1.52315 1.68089-8.52041 3.30234-14.04298 3.27122-5.26011.0672-8.14639-.70736-11.42178-1.34393z" id="path13832" class="top_primary_strong_shade"/><path id="path13834" d="m261.35088 231.14146 18.93637-1.43319c-1.13266 1.24996-6.33604 2.45572-10.44279 2.43258-3.91157.05-6.0579-.52602-8.49358-.99939z" class="top_primary_strong_shade"/><path d="m280.36534 229.70219-18.93637 1.43319c1.13266-1.24996 6.33604-2.45572 10.44279-2.43258 3.91157-.05 6.0579.52602 8.49358.99939z" id="path13836" class="top_primary_strong_highlight"/></g><g id="g13848" style="display:inline;stroke-width:.436957;stroke:none" transform="matrix(3.9689819,-0.16280317,-0.57355607,1.3431297,-725.9077,74.705546)"><path id="path13840" d="m257.78463 231.41908 25.46538-1.91912c-1.75833-1.43306-8.91975-1.9852-14.375-1.125-5.21054.7236-7.94775 1.92284-11.09038 3.04412z" class="top_primary_strong_highlight"/><path d="m257.77115 231.41459 25.46476-1.92729c-1.52315 1.68089-8.52041 3.30234-14.04298 3.27122-5.26011.0672-8.14639-.70736-11.42178-1.34393z" id="path13842" class="top_primary_strong_shade"/><path id="path13844" d="m261.35088 231.14146 18.93637-1.43319c-1.13266 1.24996-6.33604 2.45572-10.44279 2.43258-3.91157.05-6.0579-.52602-8.49358-.99939z" class="top_primary_strong_shade"/><path d="m280.36534 229.70219-18.93637 1.43319c1.13266-1.24996 6.33604-2.45572 10.44279-2.43258 3.91157-.05 6.0579.52602 8.49358.99939z" id="path13846" class="top_primary_strong_highlight"/></g></g><path class="shadow" d="m255.36914 211.71094c-10.26962 15.70737-32.95394 37.17656-47.08789 49.01172-34.3193 28.73751-76.95167 31.16389-79.58008 81.16992-1.42501 27.11119 8.38342 54.90965 26.75781 73.48242 13.44721 13.5924 33.75176 25.75071 58.34375 25.90039 11.82911.072 40.98155-5.13623 44.62891-5.87305 10.20619-2.06179 32.06345.88497 62.73047-3.8125 23.64888-3.62246 43.9439-11.42358 58.69531-23.8125 15.50281-13.01999 24.99479-32.01375 25.14258-62.4375.11991-24.68319-12.72601-48.5121-22.04883-62.82422-11.70749-17.97299-19.69094-33.10608-25.5625-47.30078 5.87075 14.20428 13.79155 29.88881 25.5 47.86328 9.32282 14.31212 21.98124 37.45353 21.86133 62.13672-.14779 30.42375-10.63977 49.54251-26.14258 62.5625-14.75141 12.38892-33.92143 19.31504-57.57031 22.9375-30.66702 4.69747-53.27428 2.12571-63.48047 4.1875-3.64736.73682-32.2998 5.57005-44.12891 5.49805-24.59199-.14968-43.89654-12.43299-57.34375-26.02539-18.37439-18.57277-28.19063-45.28334-26.76562-72.39453 2.62841-50.00603 45.14359-52.1453 79.46289-80.88281 14.13395-11.83516 36.31827-33.67935 46.58789-49.38672zm94.71094 3.74218c.18943.57356.39352 1.1584.58789 1.73633-.19434-.57786-.39849-1.16284-.58789-1.73633zm1.61719 4.77344c.23445.67433.48639 1.36232.72851 2.04297-.24207-.68054-.4941-1.36874-.72851-2.04297zm1.75585 4.9043c.28887.7858.59817 1.58814.89844 2.38281-.30043-.79511-.60941-1.59658-.89844-2.38281zm1.88282 4.9707c.33287.85467.68781 1.72637 1.03515 2.5918-.34728-.86526-.70234-1.73729-1.03515-2.5918z" id="path13852"/><g clip-path="url(#clipPath14343)" style="filter:url(#filter14341)" id="g13870"><path id="path13856" d="m291.05932 326.80069c-28.71004 2.76088-71.57588 23.98211-101.39325 22.07562-28.79517-1.84114-90.590148-27.18661-97.613384-12.08363-20.290212 43.63268 15.115274 67.0522 35.786584 92.28769 23.3749 24.35832 49.34909 27.82384 56.80664 27.875 11.81311.61934 34.87217-3.82568 38.51953-4.5625 10.20619-2.06179 32.43845.38497 63.10547-4.3125 48.50237-7.42943 113.8398-32.74216 113.37584-92.11396-.42627-54.54887-89.00869-31.04849-108.58743-29.16572z" class="top_primary_shade"/><path class="top_primary_shade" d="m285.40247 339.17506c-28.71004 2.76088-71.57588 23.98211-101.39325 22.07562-28.79517-1.84114-90.590152-27.18661-97.613388-12.08363-20.290212 43.63268 15.115278 67.0522 35.786588 92.28769 23.3749 24.35832 49.34909 27.82384 56.80664 27.875 11.81311.61934 34.87217-3.82568 38.51953-4.5625 10.20619-2.06179 32.43845.38497 63.10547-4.3125 48.50237-7.42943 113.8398-32.74216 113.37584-92.11396-.42627-54.54887-89.00869-31.04849-108.58743-29.16572z" id="path13858"/><path id="path13860" d="m312.97963 302.40551c-28.70098 2.8535-71.57588 23.98211-101.39325 22.07562-28.79517-1.84114-82.45842-7.03407-97.61338-12.08363-45.652226-15.21111-13.89945-92.20547 6.77186-66.96998 70.13814-3.51609 289.53734-41.79731 308.95393 38.06045 4.16993 75.55878-47.9965 12.08502-116.71916 18.91754z" class="top_primary_highlight"/><path id="path13862" d="m268.4319 362.15603c-28.71004 2.76088-71.57588 23.98211-101.39325 22.07562-28.79517-1.84114-90.590145-27.18661-97.613381-12.08363-20.290212 43.63268 15.115278 67.0522 35.786581 92.28769 23.3749 24.35832 49.34909 27.82384 56.80664 27.875 11.81311.61934 34.87217-3.82568 38.51953-4.5625 10.20619-2.06179 32.43845.38497 63.10547-4.3125 48.50237-7.42943 113.8398-32.74216 113.37584-92.11396-.42627-54.54887-89.00869-31.04849-108.58743-29.16572z" class="top_primary_shade"/><path class="top_primary_highlight" d="m312.97963 287.90551c-28.70098 2.8535-71.57588 23.98211-101.39325 22.07562-28.79517-1.84114-82.45842-7.03407-97.61338-12.08363-45.652226-15.21111-15.14945-63.95547 5.52186-38.71998 70.13814-3.51609 288.28734-29.79731 310.20393 9.81045 4.16993 75.55878-47.9965 12.08502-116.71916 18.91754z" id="path13864"/><path id="path13866" d="m312.97963 273.90551c-28.70098 2.8535-71.57588 23.98211-101.39325 22.07562-28.79517-1.84114-82.45842-7.03407-97.61338-12.08363-45.652226-15.21111-17.64945-40.20547 3.02186-14.96998 70.13814-3.51609 293.53734-26.79731 315.45393 12.81045 9.41993 42.30878-50.7465-14.66498-119.46916-7.83246z" class="top_primary_highlight"/><path class="top_primary_shade" d="m278.93189 351.40603c-28.71004 2.76088-71.57588 23.98211-101.39325 22.07562-28.79516-1.84114-90.590134-27.18661-97.613371-12.08363-20.290211 43.63268 15.115279 67.0522 35.786581 92.28769 23.3749 24.35832 49.34909 27.82384 56.80664 27.875 11.8131.61934 34.87216-3.82568 38.51952-4.5625 10.20619-2.06179 32.43845.38497 63.10547-4.3125 48.50237-7.42943 113.8398-32.74216 113.37584-92.11396-.42627-54.54887-89.00869-31.04849-108.58743-29.16572z" id="path13868"/></g></g></g></g><g style="display:inline" id="g13882"><path class="top_primary_strong_highlight" id="path13878" d="m344.38867 176.36914c-6.90958 8.90494-15.68114 18.04606-24.77344 24.85938-9.0923 6.81331-18.37793 11.0216-26.00195 9.8125-2.36196-.37459-4.14593-1.5435-5.55078-3.22852-1.40485-1.68502-2.41103-3.89223-3.12109-6.28125-1.42014-4.77804-1.66014-10.30176-1.76563-13.66015l-1.03515.17182c.10584 3.36978.31758 8.82977 1.79101 13.78712.73672 2.47867 1.78691 4.81666 3.32227 6.6582 1.53535 1.84155 3.57508 3.1782 6.19531 3.59375 8.1223 1.28813 17.59739-3.11614 26.79687-10.00976 9.19948-6.89363 18.32497-16.5714 25.28321-25.53907z"/><path class="top_primary_strong_shade" id="path13880" d="m345.5664 176.54493c-6.91269 8.90895-15.58776 18.26407-24.85546 25.3164-9.2677 7.05232-18.91893 11.50924-27.35547 10.30469-2.54574-.36348-4.4751-1.57662-5.99414-3.33008-1.51904-1.75346-2.6098-4.05577-3.38281-6.54102-1.54604-4.97049-1.81845-10.87328-1.92384-14.22851l-1.04296.19136c.10594 3.37294.35805 9.19633 1.96094 14.34961.80144 2.57664 1.94021 5.00926 3.59375 6.91797 1.65353 1.90871 3.83988 3.28371 6.64062 3.68359 8.90384 1.27129 18.76571-3.37241 28.14258-10.50781s18.44722-17.0305 25.40235-25.99414z"/></g></svg>