<svg viewBox="0 0 560 1e3"><defs><filter style="color-interpolation-filters:sRGB" id="filter13625"><feGaussianBlur stdDeviation="4 4" result="blur" id="feGaussianBlur13623"/></filter><filter style="color-interpolation-filters:sRGB" id="filter13625-4"><feGaussianBlur stdDeviation="4 4" result="blur" id="feGaussianBlur13623-2"/></filter><clipPath clipPathUnits="userSpaceOnUse" id="clipPath20002"><path style="display:inline;fill-opacity:.5;fill:#0ff" d="m350.16992 177.15039c-.0376.48619-.0858.97018-.14453 1.45313-3.70054 30.42527-48.88109 54.23991-72.03906 50.48632-8.51371-1.37995-19.61968-5.60326.20508-40.19922-3.75649.88947-5.27344 1.36133-5.27344 1.36133-.27579.069-53.11205-2.91294-110.96094 23.83203 5.83805 40.98859-47.42916 102.03201 113.93359 101.50586 181.70215-.59248 156.21006-42.94372 159.95899-81.20898 1.46828-68.75024-81.60779-51.3307-80.50195-56.42969-2.91035-.33241-2.73562-.51884-5.17774-.80078z" id="path20005"/></clipPath><clipPath clipPathUnits="userSpaceOnUse" id="clipPath20008"><path style="fill-opacity:.5;fill:#80fd80" d="m245.95794 223.43593c-.70035.89904-1.50592 1.95983-2.4632 3.24458-4.39813 3.6638-13.07902 9.38213-13.42208 13.585-.86302 10.57289 6.14774 20.37558 13.87919 21.95692 7.14805 1.46202 22.88944-.23695 33.85673-.0652 11.10987.0613 28.86223-.96959 38.52-.75744 4.94774.10869 14.81629-1.42946 21.40959-13.05429 4.29608-7.57454 2.39833-21.66841-3.6302-27.75394-16.92001-12.27388-29.86403.52783-46.76386 1.60552-7.28109-.0148-17.70956-2.65652-24.91628-5.76938-3.90901-1.68845-3.31512-1.26931-5.08958-1.52647-5.60483 3.96069-9.37278 5.97157-11.38031 8.5347z" id="path20011"/></clipPath><filter style="color-interpolation-filters:sRGB" id="filter21939"><feGaussianBlur stdDeviation="0.5 0.5" result="blur" id="feGaussianBlur21937"/></filter><filter style="color-interpolation-filters:sRGB" id="filter21939-2"><feGaussianBlur stdDeviation="0.5 0.5" result="blur" id="feGaussianBlur21937-2"/></filter></defs><g transform="translate(1.9955784e-6,4.2837327e-6)" style="display:inline" id="g21397" data-transform="boob_outfit"/><g id="g21401"><path id="path21399" d="m350.16926 177.14943c-2.40532 31.11605-48.65742 55.75302-72.18298 51.93985-8.51371-1.37995-19.61903-5.60247.20573-40.19843-3.75649.88947-5.27404 1.3611-5.27404 1.3611-2.34417.41798-1.4955.21605-3.17292 2.18138-1.55239 1.81886-4.1045 5.01595-7.3086 8.99125-7.45858 9.25383-16.61551 23.53717-19.22942 40.15941 1.16138.21629 2.77193 1.20862 3.93218 1.40292 3.47111.58126 6.93713 1.06481 10.39843 1.45507 3.46131.39026 6.91715.68842 10.36914.89649 3.452.20807 6.90057.32662 10.34375.36133 6.88638.0694 13.75524-.19838 20.60938-.76953 6.85414-.57116 13.69166-1.44478 20.51758-2.58594 6.82592-1.14116 13.46293-2.81596 20.26463-4.45658 6.19586-1.49448 17.15392-4.70161 17.70786-7.75773-1.26302-17.91443-2.05124-47.36881-2.00157-52.17975-2.91035-.33241-2.73703-.5189-5.17915-.80084z" class="top_primary"/></g><g clip-path="url(#clipPath20002)" id="g21436" style="display:inline" transform="translate(-3.29032e-6)"><g style="display:inline" id="g21434" data-transform="boob_outfit" clip-path="none"><path id="path21403" d="m257.60227 214.86725c-.64004.15666-2.7589 1.63673-3.14246 1.95195-3.30698 2.71779-6.0089 3.20973-10.96507 9.86131-4.39813 3.6638-13.07902 9.38213-13.42208 13.585-.86302 10.57289 6.14774 20.37558 13.87919 21.95692 7.14805 1.46202 22.88944-.23695 33.85673-.0652 11.10987.0613 28.86223-.96959 38.52-.75744 4.94774.10869 14.81629-1.42946 21.40959-13.05429 4.29608-7.57454 2.39833-21.66841-3.6302-27.75394-16.92001-12.27388-29.86403.52783-46.76386 1.60552-13.31361 1.83085-21.47095-5.58328-29.74184-7.32983z" class="top_primary"/><g style="display:inline" id="g21417"><g id="g21409" style="stroke-width:.89932698"><path id="path21405" d="m316.03227 237.87686c-.37567 1.24084-1.51194 1.68513-2.93564 1.2541-4.08708-1.93536 3.55922-3.17148 2.93564-1.2541z" class="top_primary_strong_shade"/><path d="m311.19898 236.10378c.37566-1.24086 1.83434-1.89734 3.25805-1.46632 4.09589 1.85624-3.6008 3.18281-3.25805 1.46632z" id="path21407" class="top_primary_strong_highlight"/></g><g id="g21415" style="display:inline"><path id="path21411" d="m234.1215 241.68159c-.42182 1.0799-1.46592 1.3964-2.70497.91242-3.50809-2.01166 3.39521-2.57809 2.70497-.91242z" class="top_primary_strong_shade"/><path d="m232.69569 238.42963c.22766.026.458.0823.68479.17086 2.52513 1.39236-.0504 1.98755-2.00069 1.86054-1.42914-.0931-.32323-2.1665 1.31588-2.03136z" id="path21413" class="top_primary_strong_highlight"/></g></g><g id="g21430" clip-path="none"><g clip-path="url(#clipPath20008)" style="filter:url(#filter13625-4)" id="g21428"><path d="m276.20217 252.04715c-22.81108-.94652-50.73414-3.48769-69.08387-13.58134-.25263 11.99342 32.9241 21.37209 40.81355 21.19176 30.41688-.69525 49.79191 3.01921 76.12229-3.53163 11.70052-2.91102 20.62034-19.19168 10.81649-18.26288-4.75682 1.02472-9.80184 3.86862-15.76731 6.63264-6.953 3.22158-27.98106 8.17054-42.90115 7.55145z" id="path21420" class="top_primary_shade"/><path class="top_primary_shade" id="path21422" d="m276.20217 257.29715c-22.81108-.94652-50.73414-3.48769-69.08387-13.58134-.25263 11.99342 31.37239 17.54985 39.06355 19.31676 30.31046-2.63553 48.73955-.66097 75.87229-.53163 19.22312-17.9728 28.20288-25.76612-2.95082-12.75524-6.953 3.22158-27.98106 8.17054-42.90115 7.55145z"/><path d="m273.57717 242.42215c-34.86256-7.47102-51.05366-10.20828-50.34018-12.38549 1.10351-3.36735 36.55408-3.30682 58.69215-1.16072 4.38603-.1612 73.07076-14.87041 46.60713-.0619-3.51792 1.96855-7.51583 4.01128-12.05795 6.0567-6.953 3.22158-27.98106 8.17054-42.90115 7.55145z" id="path21424" class="top_primary_highlight"/><path class="top_primary_highlight" id="path21426" d="m272.57717 236.79715c-54.30593-3.28191-41.20893-15.86348-20.07849-13.56166 11.07745 1.20671 32.20114 3.75491 30.18317 3.17208 22.60185-1.32016 60.73799-12.67356 32.79647 2.83813-6.953 3.22158-27.98106 8.17054-42.90115 7.55145z"/></g></g><path d="m246.40234 222.88867c-.86238 1.00269-1.80477 2.10317-3.1289 3.66016-4.39813 3.6638-13.12374 9.51393-13.4668 13.71679-.86302 10.5729 6.10372 20.41989 14.14453 21.95704-7.73145-1.58134-14.74192-11.38414-13.8789-21.95704.34306-4.20286 9.02374-9.92213 13.42187-13.58593 1.2021-1.61332 2.09251-2.76083 2.9082-3.79102z" id="path21432" class="shadow"/><g transform="translate(4.2366701e-6)" id="g21935" style="display:inline;filter:url(#filter21939-2)"><path d="m318.74023 224.61068c-1.62017 1.02694-5.39423 3.3169-2.71145 6.46803 3.60085-.0606 3.64434-4.87109 2.71145-6.46803z" class="highlight2" id="path2507-9"/><path d="m312.80248 241.75129c-3.01191 2.78556-4.92195 7.12723-1.61202 8.81285 2.5527-.93993 3.2253-4.97767 1.61202-8.81285z" class="highlight2" id="path2509-2"/><path d="m313.0387 238.85061c-1.23996 1.04026-.47212 1.34516-.25309 1.75174.78075-.42034.96042-.64775.25309-1.75174z" class="highlight2" id="path2511-7"/><path d="m319.69236 222.43932c-.54835.17909-1.59297.13273-.63054 1.32435 1.79681-.17367.97258-.91441.63054-1.32435z" class="highlight2" id="path2513-3"/><path d="m314.43898 234.97546c-.95045-1.31007-1.87386-.80109-2.29484-.61121.4701.47893 1.3553.61403 2.29484.61121z" class="highlight2" id="path2515-7"/><path d="m314.33101 232.62305c-1.10656-.20155-1.61301.13564-1.87404.51658.96844.18694 1.14566.23198 1.87404-.51658z" class="highlight2" id="path2517-9"/><path d="m256.39655 227.6088c-6.50884-1.69698-12.8903 5.04278-15.17826 6.54367 3.48157.97799 14.71107 2.48322 15.17826-6.54367z" class="highlight2" id="path2522-6"/><path d="m261.57459 220.73874c-.81371-.14791-1.75114.49149-1.69014 1.15962.55596.0927 1.70101.25296 1.69014-1.15962z" class="highlight2" id="path2526-9"/><path d="m240.23605 231.93825c-.7562-.33489-1.81759.0664-1.91525.73019.51863.22074 1.59401.64543 1.91525-.73019z" class="highlight2" id="path2531-2"/><path d="m238.42087 239.0463c-.62515-.18347-4.40247.16853-4.81016.21534.64222.60776 4.77163 1.21762 4.81016-.21534z" class="highlight2" id="path2534-1"/><path d="m230.98526 244.85777c-.0243 4.55348 4.66759 11.33272 5.87337 12.6649.14739-.27766-5.65436-11.85433-5.87337-12.6649z" class="highlight2" id="path2536-8"/><path d="m230.80598 242.66275c-.81259.55018-.39964 1.31924-.0497 1.62604.50874-.30107.27741-1.19415.0497-1.62604z" class="highlight2" id="path2545-6"/><path d="m231.20684 240.32768c-.51155.1454-.93677.30731-1.29288.61661.61956.18357 1.20679.11783 1.29288-.61661z" class="highlight2" id="path2556-5"/><path d="m231.23053 238.82978c-.23008.0268-.72027.17927-.7885.60446.23506-.2553.7362-.22107.7885-.60446z" class="highlight2" id="path2558-3"/><path id="path2564-0" class="highlight1" d="m317.59128 226.4773c-1.6326 1.03482-1.62611 2.77851-1.31194 4.0206 1.04429-.54438 2.25198-2.41141 1.31194-4.0206z"/><path id="path2567-9" class="highlight1" d="m312.29923 243.72881c-1.45086 1.51813-1.49605 3.79881-1.24849 4.98721 1.20292-1.00084 1.71959-3.37801 1.24849-4.98721z"/><path id="path2571-9" class="highlight1" d="m253.81921 229.28725c-4.06172.65281-6.73313 2.18166-9.14605 3.42557 3.50829.9855 8.21883.91812 9.14605-3.42557z"/></g></g></g><path class="shadow" id="path21438" d="m350.10547 177.07031c-2.38224 17.93488-14.94339 30.49021-27.81836 38.69531-15.72117 10.01897-30.13268 13.59511-41.14063 13.34961-25.53843-.56956-9.1978-27.22825-2.81054-40.32421-4.49086.85821-5.20899 1.21875-5.20899 1.21875-.0339.0401-.44292.42191-.83007.78711.22208-.19412.60276-.54034.62109-.54493.0.0 1.51695-.47186 5.27344-1.36133-19.82476 34.59596-8.71879 38.81927-.20508 40.19922 23.14008 3.75069 68.26761-20.02446 72.02929-50.41601.052-.50789.11487-1.0134.1543-1.52344.61053.0705 1.05704.13494 1.42969.19727 51e-5 8e-5.001-9e-5.002.0 1.13438.18808 1.62848.35883 3.75196.60156-.002-.002-.004.004-.006.002-.004.0202-.007.0572-.0117.0781.0349-.0778.0717-.12608.11133-.12891-2.99717-.40429-3.14274-.72359-5.3418-.83008z"/><g id="g22972"/><g id="g22962"/><g id="g23003"><path class="top_accent" id="path22638" d="m278.2626 188.88112c-3.9482 7.54199-10.91156 20.73606-11.05588 29.73269-.0689 4.29608 2.67695 10.58162 13.99062 10.49963 7.54382-.0547 14.62868-.68216 22.86334-4.08982 13.35839-5.52796 21.59677-10.46292 29.87275-18.18874 12.23225-11.4191 15.87134-24.69412 16.17834-29.68621-8.65479-.744-14.2046-2.16321-16.97609-10.5624-11.10514 4.12032-22.4641 11.28641-32.95185 7.998.54499 2.68604.68784 6.58671.40284 7.40367-4.9168 3.80883-11.60046 4.62318-22.32407 6.89318z"/><path d="m337.33717 173.33464c-1.78712-1.51444-3.1822-3.65935-4.20149-6.74837-11.10514 4.12032-22.4641 11.28641-32.95185 7.998.54499 2.68604.68784 6.58671.40284 7.40367 1.7057.85617 11.36648 4.2285 36.7505-8.6533z" id="path22640" class="top_accent_highlight"/><path class="top_accent_strong_shade" id="path22642" d="m337.33717 173.33464c-.12033-.10197-.23889-.20681-.35567-.31459-9.36672 4.66365-24.40242 12.07034-36.3326 8.70263-.0178.10809-.0385.19733-.0622.26526 1.7057.85617 11.36648 4.2285 36.7505-8.6533z"/><g class="top_primary" transform="matrix(0.6736911,-0.073934,-0.30929245,0.69868429,195.07513,86.272703)" id="g22996"><path style="baseline-shift:baseline;clip-rule:nonzero;color-interpolation-filters:linearRGB;color-interpolation:sRGB;color-rendering:auto;color:#000;direction:ltr;display:inline;dominant-baseline:auto;enable-background:accumulate;fill-opacity:1;fill-rule:nonzero;fill:#000;image-rendering:auto;isolation:auto;mix-blend-mode:normal;opacity:1;overflow:visible;shape-padding:0;shape-rendering:auto;solid-color:#000000;solid-opacity:1;stroke-dasharray:none;stroke-dashoffset:0;stroke-linecap:butt;stroke-linejoin:miter;stroke-miterlimit:4;stroke-opacity:1;stroke-width:7.70172024;stroke:none;vector-effect:none;visibility:visible;white-space:normal;writing-mode:lr-tb" d="m238.62891 171.20703-4.70313 3.77735 1.35547 1.68945c-.24702 2.29006-.54165 4.94543-.9082 8.15625-1.74891-.11554-3.56569-.21166-5.44141-.29102l-1.53516-1.73437-4.51562 4 4 4.51562 1.83984-1.63086c1.74317.0737 3.43619.16225 5.0625.26758-.90253 7.78346-1.8979 16.13124-2.72851 22.92774l-2.03516 1.57226 3.6875 4.77344 4.77344-3.6875-1.34375-1.74024c.84512-6.90872 1.86791-15.50434 2.78906-23.45117 2.2039.20038 4.29558.43145 6.29297.6875l1.43164 1.73828 4.6543-3.83593-3.83399-4.6543-1.93945 1.59766c-1.91978-.2421-3.92081-.46031-6.01563-.65235.34319-3.00798.61762-5.47243.85743-7.6875l2.0332-1.63281z" id="path22985"/></g></g></svg>