<svg viewBox="0 0 560 1e3"><g data-transform="boob_right" id="g202034"><path class="areola" d="m207.13492 261.56316c-2.21401.45302-4.85373-.84436-6.56963-2.53748-1.41607-1.39716-1.63903-2.64681-1.68322-4.40962-.005-.22703.0709-1.06568.12507-1.28847.75451-3.10319 2.51477-4.60121 3.11331-5.09064.79235-.64792 2.32916-1.74798 4.19492-1.92906 4.3018-.41749 9.54636 1.92357 9.26665 7.02496-.18476 3.36997-3.98737 8.23031-8.44798 8.23031z" id="path202036-3"/></g><g data-transform="boob_left" id="g202038"><path class="areola" d="m308.64744 256.17286c-5.91687-.65266-11.89626-5.01334-11.92433-8.9218-.036-4.988 7.51155-10.19395 14.14168-9.90384 6.23473.27282 12.74107 4.33922 11.46298 10.38485-1.27808 6.04563-6.60567 9.22114-13.68033 8.44079z" id="path202036"/></g></svg>