<svg viewBox="0 0 560 1e3"><path id="path1854" class="shadow" d="m299.69743 74.555383s-.63732-3.017815.22766-4.013515c4.01915-3.809172 26.24755-9.526275 39.27726 2.342494-11.89448-8.151704-25.957-5.212471-28.2585-4.283817 25.24032-4.017055 40.56854 15.83806 40.49619 33.625705-.97195-4.014181-2.02286-6.466908-4.92688-9.083932 4.58612 8.428322 5.0357 23.918442-.75306 43.041042.52309-3.45429.40876-4.02191-.72505-7.49395-.50181 2.68254-3.55216 13.99345-4.23531 24.25449-.31569-1.07388-.30347-1.79704-1.03325-2.27003-.90001 5.97796.0744 13.86655 1.86663 20.47385-20.08037-38.57405-31.37219-54.41403-37.77157-79.965702z"/><path d="m299.69743 74.555383s-.63732-3.017815.22766-4.013515c3.94404-3.583841 26.20709-9.404909 39.27726 2.342494-11.1632-8.409802-25.75104-5.285164-28.2585-4.283817 25.01632-3.967277 40.26478 15.905562 40.49619 33.625705-.86843-4.053001-1.89138-6.516213-4.92688-9.083932 4.27556 8.490432 4.52368 24.020842-.75306 43.041042.54446-3.45734.57215-4.04525-.72505-7.49395-.56043 2.6932-3.90813 14.05817-4.23531 24.25449-.26939-1.08049-.20774-1.81072-1.03325-2.27003-1.17224 6.09463-.23619 13.99965 1.86663 20.47385-18.47736-38.86551-31.35676-54.35244-37.77157-79.965702z" class="hair" id="path3021-5-0-4-2"/></svg>