<svg viewBox="0 0 560 1e3"><g id="g202172" data-transform="boob_left"><path d="m300.83221 238.19868s-4.33227 15.95216-1.70791 23.27547c1.81386 5.06159 5.76291 12.00762 11.12945 11.67577 5.31011-.32836 7.98123-7.72447 9.50514-12.8218 2.14451-7.17321-1.27774-22.42433-1.27774-22.42433s.19718 3.1709.28971 6.37453c-.29405.0104-4.08283-71e-5-4.08283-71e-5.0971.64405-.0299.91901-.0316 1.57039.0.0 3.65325-.0174 4.14668-.0287.0684 5.13017-.22012 10.93191-1.89561 14.6732-1.36092 3.03857-3.66401 6.35815-6.76445 6.38462-3.45142.0295-6.09611-3.60754-7.65046-6.97775-1.6411-3.55837-1.96389-9.0635-1.93068-13.99064.7795.0 1.55448-.0931 1.55448-.0931l.35051-1.58282s-1.09447-.0229-1.8801-.0229c.0693-3.00037.24534-6.01235.24534-6.01235z" class="shadow" id="path202160"/><path d="m310.27511 267.29206s-3.21729 16.49316-3.3358 24.84994c-.13549 9.54895 3.00488 28.49172 3.00488 28.49172s-.64289-17.01291 1.90489-34.06153c-1.69921-5.65783-1.57397-19.28013-1.57397-19.28013z" class="shadow" id="path202162"/><path d="m309.83356 317.14257s-1.8865 6.23665-1.71707 9.4258c.16119 3.03532 2.5756 8.74749 2.5756 8.74749s1.82538-5.77799 1.71708-8.74749c-.11864-3.25495-2.57561-9.4258-2.57561-9.4258z" class="shadow" id="path202164"/><path id="path202166" class="steel_piercing" d="m301.60863 239.77451s-3.93842 14.50195-1.55264 21.15951c1.64897 4.60143 5.23902 10.91602 10.11768 10.61432 4.82738-.29852 7.25567-7.02224 8.64104-11.65619 1.94955-6.52108-1.16159-20.38575-1.16159-20.38575s.17926 2.08009.26338 4.99247c-.26732.009-3.22561-64e-5-3.22561-64e-5-.0174.70452-.0156.86207-.14781 1.42085.0.0 2.95409-.009 3.40267-.0193.0622 4.66381-.2001 10.74067-1.72327 14.14182-1.23722 2.76234-3.33091 5.78013-6.1495 5.80421-3.13765.0267-5.54192-3.27958-6.95497-6.3434-1.49191-3.23489-1.78536-9.0421-1.75517-13.52132.70865.0.80743-.0846.80743-.0846l.27919-1.43893s-.34968-.0208-1.06397-.0208c.063-2.72761.22303-4.66324.22303-4.66324z"/><path id="path202168" class="steel_piercing" d="m310.19483 269.71669s-2.9248 14.99378-3.03255 22.59085c-.12315 8.68086 2.73172 25.90155 2.73172 25.90155s-.58445-15.46628 1.73171-30.96503c-1.54473-5.14348-1.43088-17.52737-1.43088-17.52737z"/><path id="path202170" class="steel_piercing" d="m309.87232 317.96862s-1.71501 5.66971-1.56099 8.56893c.1466 2.75937 2.34146 7.95225 2.34146 7.95225s1.65944-5.25271 1.56099-7.95225c-.10787-2.95906-2.34146-8.56893-2.34146-8.56893z"/></g><g id="g202186" data-transform="boob_right"><path d="m212.73861 245.07319s3.21128 15.77854 1.17572 23.27551c-1.21976 4.49238-3.01349 11.92895-7.66163 11.67574-4.79124-.26098-5.51345-8.13534-6.54343-12.82183-1.60572-7.30614.87961-22.42429.87961-22.42429s-.13583 3.0209-.19946 6.22452c.20243.0104 1.82863-71e-5 1.82863-71e-5l-.95302 1.57037s-.55805-.0174-.89774-.0287c-.0471 5.13016.15164 11.08194 1.30494 14.82321.93689 3.03858 2.02269 6.36301 4.65674 6.38458 2.91396.0238 4.19663-3.60748 5.26666-6.97768 1.12976-3.55838 1.35197-9.21352 1.3291-14.14064-.53662.0-3.25935-.0931-3.25935-.0931.10353-.62848.11864-.80491.3785-1.58284.0.0 2.32285-.0229 2.8637-.0229-.0478-3.00036-.16883-5.86236-.16883-5.86236z" class="shadow" id="path202174"/><path d="m206.91417 275.69165s-3.21729 16.49317-3.33581 24.84993c-.13548 9.54896 3.00489 28.49173 3.00489 28.49173s-.6429-17.01294 1.90488-34.06153c-1.6992-5.65782-1.57396-19.28013-1.57396-19.28013z" class="shadow" id="path202176"/><path d="m206.47262 325.54215s-1.8865 6.23668-1.71707 9.42583c.16119 3.0353 2.5756 8.74744 2.5756 8.74744s1.82538-5.77795 1.71708-8.74744c-.11864-3.25497-2.57561-9.42583-2.57561-9.42583z" class="shadow" id="path202178"/><path id="path202180" class="steel_piercing" d="m212.20514 246.64886s2.91936 14.34414 1.06884 21.15956c-1.10886 4.084-2.73954 10.84451-6.96512 10.61432-4.35567-.23726-5.01224-7.39578-5.94858-11.65623-1.45974-6.64194.79964-20.38571.79964-20.38571s-.12333 2.0801-.18131 4.99247c.18402.009 1.09058-64e-5 1.09058-64e-5l-.58942 1.42759s-.21249-.0156-.52129-.0261c-.0429 4.66378.13775 10.74066 1.18632 14.14182.85172 2.76235 1.83881 5.78458 4.2334 5.80419 2.64906.0217 3.81511-3.27954 4.78787-6.34337 1.02705-3.2349 1.22906-9.04209 1.20827-13.52131-.48784.0-2.96304-.0846-2.96304-.0846.094-.57135.28622-.93096.28116-1.43895.0.0 2.17461-.0208 2.6663-.0208-.0434-2.7276-.15355-4.66324-.15355-4.66324z"/><path id="path202182" class="steel_piercing" d="m206.83388 278.11628s-2.92479 14.99379-3.03254 22.59083c-.12315 8.68087 2.73171 25.90157 2.73171 25.90157s-.58445-15.4663 1.73172-30.96503c-1.54473-5.14348-1.43089-17.52737-1.43089-17.52737z"/><path id="path202184" class="steel_piercing" d="m206.51137 326.36821s-1.71502 5.66971-1.56099 8.56894c.14661 2.75936 2.34146 7.95221 2.34146 7.95221s1.65945-5.25267 1.56099-7.95221c-.10786-2.95905-2.34146-8.56894-2.34146-8.56894z"/></g></svg>