<svg viewBox="0 0 560 1e3"><path id="path1856" class="shadow" d="m292.41179 90.173647s-.58802-8.011387 1.99294-10.278149c1.31949-15.799925 40.61464-16.459005 52.44183-7.836903-.27554-.533626-11.64522-3.670256-15.32538-2.189732 41.60243 7.468418 55.47665 35.146917 50.79109 80.959147-.66089-10.76385-2.10227-17.47899-5.07335-25.16856 4.80076 23.40881 2.28552 63.57575-9.05416 110.81434 1.15096-8.64153.88067-9.99237.40068-19.59387-.95192 6.81813-7.175 35.07435-10.33569 61.11161-.23778-2.85977-.13229-4.68431-.99597-6.22018-2.0405 15.40632-2.76694 36.0676-1.25156 53.49144-18.62077-105.59871 10.36565-196.99026-55.9522-210.72265z"/><path d="m292.41179 90.173647s-.58802-8.011387 1.99294-10.278149c2.18353-15.367906 41.39973-16.066458 52.44183-7.836903-.34272-.835921-11.69537-3.895921-15.32538-2.189732 40.31621 7.468418 53.77515 35.146917 50.79109 80.959147-.43739-10.76385-1.38321-17.47899-5.07335-25.16856 4.28949 23.40881 1.7364 63.57575-9.05416 110.81434 1.39191-8.73189 1.53949-10.23943.40068-19.59387-1.27146 6.75422-7.98647 34.91206-10.33569 61.11161-.16862-2.88282.0521-4.74577-.99597-6.22018-2.74544 15.3182-2.93295 36.04685-1.25156 53.49144-18.13263-106.77222 11.58744-197.78666-55.9522-210.72265z" class="hair" id="path3021-5-0-4"/></svg>