<svg viewBox="0 0 560 1e3"><defs><filter style="color-interpolation-filters:sRGB" id="filter23283"><feGaussianBlur stdDeviation="4 4" result="blur" id="feGaussianBlur23281"/></filter><clipPath clipPathUnits="userSpaceOnUse" id="clipPath23285"><path id="path23287" style="fill-opacity:.19607843;fill:#0ff" d="m214.90079 855.1436c2.42987-23.5062 4.66739-47.07318 6.73202-70.67094 2.18112-24.92913 4.18153-49.88939 6.05274-74.83399 1.8712-24.9446 3.6127-49.87479 5.27343-74.74609 1.66074-24.87131 3.24132-49.68335 4.79102-74.39258.0833-2.96268.36643-6.71976.26562-10.26172-.0504-1.77098-.19655-3.48768-.51171-5.02539-.31517-1.53771-.79965-2.89489-1.52539-3.94727-.36288-.52618-.78644-.97639-1.2793-1.33398s-1.05425-.62376-1.69531-.78125c-.64107-.15749-1.36047-.20693-2.16797-.13281-.80751.0741-1.70314.27213-2.69532.60937-.99217.33724-2.08228.81345-3.27734 1.44532-1.19506.63186-2.49593 1.41895-3.91211 2.37695-1.04223.70503-2.49155 2.01953-3.66211 2.91601 2.89904 43.62032 8.45635 85.48369 8.99024 99.50977 2.67542 70.2876-13.8233 137.97648-20.2168 201.75 2.88303 2.67211 5.89538 4.84856 8.83829 7.5186zm183.2203 10.56734c-5.77918-51.35287-11.21547-103.32377-17.19921-154.86133-3.01437-25.96247-6.16697-51.81239-9.57422-77.41602-1.70363-12.80181-3.47172-25.54199-5.31641-38.20312s-3.76694-25.244-5.78125-37.73047c-1.27022-10.08876-2.17934-21.62892-3.4668-31.64844-.64373-5.00976-1.38116-9.63984-2.30664-13.51758-.46274-1.93886-.97316-3.68856-1.54101-5.20507-.56786-1.51652-1.19453-2.79951-1.89063-3.80079-.69609-1.00127-1.46114-1.72208-2.30859-2.11523-.42373-.19657-.86809-.31077-1.33399-.33789-.4659-.0271-.95388.0336-1.46484.1875-1.02193.30788-2.13594.98999-3.35547 2.0918-1.21953 1.1018-2.54413 2.62271-3.98437 4.61132-1.44025 1.98862-2.99756 4.44379-4.68164 7.41211-1.68409 2.96833-3.49427 6.44932-5.44532 10.49024-1.95104 4.04092-4.04208 8.64124-6.2832 13.84765-1.062 2.46716-2.27529 5.54092-3.40625 8.28516 3.16113 14.16201 6.42632 28.15223 9.69531 40.7168 24.84432 95.49067 33.96282 163.89477 44.74024 267.69726 2.93247 2.87681 15.19855 6.05227 24.77734 9.53321.0553-.0149.072-.0223.12695-.0371z"/></clipPath><filter style="color-interpolation-filters:sRGB" id="filter34490"><feGaussianBlur stdDeviation="4 4" result="blur" id="feGaussianBlur34488"/></filter><clipPath clipPathUnits="userSpaceOnUse" id="clipPath34496"><path d="m359.16406 546.32034c.34626 2.7119.26267 4.46759.4102 6.18946.14749 1.72186.40151 3.41085.67578 4.99023 2.01431 12.48647 3.93632 25.05884 5.7793 37.70117 1.84298 12.64233 3.60789 25.35542 5.30859 38.125 3.4014 25.53917 6.54619 51.30315 9.55273 77.17969 5.99455 51.59337 11.43651 103.62856 17.24415 155.20117 12.74019-3.43371 17.13459-4.91175 27.83593-9.49219.0.0-5.30894-102.77874-9.78125-153.58203-.71065-8.07264-7.94551-38.97366-12.09179-75.63086-1.98316-17.53312-3.2204-36.20493-4.11318-55.13216-28.31993-17.51966-42.30225-31.68147-40.82046-25.54948zm-52.83789-57.78909L306.125 486.5c-.17683-2.41349-.49309-4.65306-.91992-6.74805-.42684-2.09498-.96505-4.04537-1.58203-5.88281-.61699-1.83744-1.31327-3.56227-2.06055-5.20312-.74728-1.64086-1.54557-3.19791-2.36328-4.70313-1.63542-3.01044-3.35023-5.81088-4.9082-8.64453-.77899-1.41682-1.51962-2.84063-2.18946-4.30469-.66983-1.46406-1.26871-2.96877-1.76953-4.54101-1.58654-4.98068-2.91061-9.53582-4.04687-14.0918-1.13627-4.55598-2.08483-9.11131-2.92578-14.09375-.84096-4.98244-1.57284-10.39229-2.27344-16.65234-.67859-6.06337-1.32953-13.02825-2.01953-21.07618-.0697.009-.1432.0247-.21289.0332-18.6283 2.27144-31.73829 1.11357-44.14258-7.86719-.63493 4.993-1.55918 9.51997-1.34766 9.39062-3.23578 19.21876-7.12994 35.513-11.21484 53.63282-3.66767 16.26905-5.52506 32.04385-6.21485 46.29687-2.82534 58.37994 9.54106 142.69073 10.34571 163.83008 2.67542 70.2876-13.8233 137.97648-20.2168 201.75 3.24227 3.30778 4.56495 2.70405 8.84233 7.39523 10.55346 1.07781 33.68402-2.5409 43.00487-6.38622 5.50556-49.28202 28.66045-89.93618 32.20944-137.1301.58354-7.75984-1.08098-52.32432 2.00977-101.4961 2.62779-41.80623 9.80059-86.31989 12.9082-121.01758.27824-3.41369.85609-2.12531 1.28906-.45898z" style="fill-opacity:.32136446;fill:#0ff" id="path34498"/></clipPath></defs><path d="m217.75 458.59961c-1.17036 8.12753-1.95614 16.00121-2.31641 23.44531-2.82534 58.37994 9.60356 142.69073 10.40821 163.83008 2.67542 70.2876-13.8233 138.35148-20.2168 202.125 2.35839 2.4239 5.81308 4.1337 8.94141 7.32227 1.09777.0527 2.35984.0609 3.70117.0449-1.24499-.0185-2.4234-.065-3.45117-.16992-3.12833-3.18857-6.39552-5.14837-8.75391-7.57227 6.3935-63.77352 22.89222-131.4624 20.2168-201.75-.80465-21.13935-13.17105-105.45014-10.34571-163.83008.36027-7.4441 1.06148-15.31779 2.15039-23.44531zm183.3125.0-.0352.0352c-1.60779 13.51335-4.18606 27.16735-4.13281 28.27148 1.8416 42.37348 2.19684 95.83514 7.20313 140.0957 4.14628 36.6572 11.38114 67.55822 12.09179 75.63086 4.47231 50.80329 9.78125 153.58203 9.78125 153.58203-10.75244 4.60231-15.0947 6.06415-27.97656 9.53321-9.57879-3.48094-21.84487-6.6564-24.77734-9.53321-10.77742-103.80249-19.89592-172.20659-44.74024-267.69726-7.84566-30.1553-15.8403-68.0735-21.77344-98.57617-.0466-.23953-.0896-.46137-.13085-.66602-.41634-2.06095-1.20654-4.31691-1.53516-.28516-3.10761 34.69769-10.28041 79.21135-12.9082 121.01758-3.09075 49.17178-1.42623 93.73626-2.00977 101.4961-3.54899 47.19392-26.61553 87.93477-32.12109 137.21679-5.32248 2.19579-15.20323 4.34299-24.66797 5.58399 9.66995-1.11697 19.7646-3.00561 25.10547-5.20899 5.50556-49.28202 28.7596-90.39787 32.30859-137.59179.58354-7.75984-1.26458-52.32432 1.82617-101.4961 2.62779-41.80623 9.62481-86.05426 12.73242-120.75195.46642-3.38582.80835-.79798 1.13477.81836 5.93313 30.50267 13.752 68.28806 21.59766 98.44336 24.84432 95.49067 34.09172 164.01977 44.86914 267.82226 2.93247 2.87681 15.82355 6.36477 25.40234 9.84571 12.88186-3.46906 17.06787-5.14965 27.82031-9.75196.0.0-5.15269-102.99749-9.625-153.80078-.71065-8.07264-7.94551-38.97366-12.09179-75.63086-5.00629-44.26056-5.36153-97.84722-7.20313-140.2207-.0532-1.1028 2.4936-14.7025 4.08399-28.18164z" id="path115770" class="shadow"/><path d="M401.03125 458.59961H218.08398c-1.08891 8.12752-1.79012 16.00121-2.15039 23.44531-2.82534 58.37994 9.54106 142.69073 10.34571 163.83008 2.67542 70.2876-13.8233 137.97648-20.2168 201.75 2.35839 2.4239 5.62558 4.3837 8.75391 7.57227 10.55346 1.07782 33.86079-2.63125 43.18164-6.47657 5.50556-49.28202 28.5721-90.02287 32.12109-137.21679.58354-7.75984-1.08098-52.32432 2.00977-101.4961 2.62779-41.80623 9.80059-86.31989 12.9082-121.01758.32862-4.03175 1.11882-1.77579 1.53516.28516.0413.20465.0843.42649.13085.66602 5.93314 30.50267 13.92778 68.42087 21.77344 98.57617 24.84432 95.49067 33.96282 163.89477 44.74024 267.69726 2.93247 2.87681 15.19855 6.05227 24.77734 9.53321 12.88186-3.46906 17.22412-4.9309 27.97656-9.53321.0.0-5.30894-102.77874-9.78125-153.58203-.71065-8.07264-7.94551-38.97366-12.09179-75.63086-5.00629-44.26056-5.36153-97.72222-7.20313-140.0957-.0533-1.10509 2.52922-14.7818 4.13672-28.30664z" id="path115766" class="bottoms_primary"/><g style="filter:url(#filter34490)" clip-path="url(#clipPath34496)" id="g115732"><path d="m275.85403 702.83389c-1.08808-48.46645 9.37058-196.9615 24.26471-240.19522l32.8758 64.20368c-1.09385.0 65.26983 93.28086 71.41205 144.51972 2.87106 23.95059.96814 6.12707 4.24148 39.72093 7.56016 77.58916 12.49584 153.49518 8.72693 162.40554l-105.18734-8.89949c-44.30662 29.63638-33.74103-46.27281-36.33363-161.75516z" id="path115720" class="bottoms_primary_shade"/><path class="bottoms_primary_shade" id="path115722" d="m309.00568 615.51067c-11.01188-24.88262-11.68387-74.58101-9.81562-130.37593.36563-10.91969 3.83377-21.71934 9.37367-20.67976l22.4633 45.63737c-1.09385.0 54.51983 84.28086 60.66205 135.51972 2.87106 23.95059 6.96814 31.87707 10.24148 65.47093 7.56016 77.58916 12.49584 153.49518 8.72693 162.40554l-98.46983-8.89949z"/><path d="m312.01088 615.51067c-10.8311-24.47412-11.65902-72.95589-9.90555-127.63297 2.7492-24.33671 10.77922-27.71168 40.6769-1.03535-1.09385.0 21.26983 85.03086 27.41205 136.26972 2.87106 23.95059 7.96814 52.37707 11.24148 85.97093 7.56016 77.58916 17.49584 147.49518 17.47693 161.90554l-83.71983-6.39949z" id="path115724" class="bottoms_primary_shade"/><path class="bottoms_primary_shade" id="path115726" d="m275.85403 702.83389c-1.08808-48.46645 9.37058-196.9615 24.26471-240.19522l32.8758 64.20368c-.68951 113.73658-17.01181 121.25045-20.80688 337.7467-44.30662 29.63638-33.74103-46.27281-36.33363-161.75516z"/><path d="m280.85403 702.83389c-1.08808-48.46645 9.37058-196.9615 24.26471-240.19522l32.8758 64.20368c-.68951 113.73658-17.01181 121.25045-20.80688 337.7467-44.30662 29.63638-33.74103-46.27281-36.33363-161.75516z" id="path115728" class="bottoms_primary_shade"/><path class="bottoms_primary_shade" id="path115730" d="m286.35403 702.83389c-1.08808-48.46645 9.37058-196.9615 24.26471-240.19522l32.8758 64.20368c-.68951 113.73658-17.01181 121.25045-20.80688 337.7467-44.30662 29.63638-33.74103-46.27281-36.33363-161.75516z"/></g><g clip-path="url(#clipPath23285)" style="filter:url(#filter23283)" id="g115740"><path d="m235.50001 866.99999-43.5-4.5 19.5-230.00001 38-98c43.66667 115.50001 29.66415 336.08573 135.5 340.00002-12.35679-99.86777-25.77216-198.67696-45.08801-291.58567-3.38519-51.90899 23.24057-24.77358 24.84976-7.39757l14.23826 22.98322 18 80.00001 18.56279 205.12826L352.50002 914.5z" id="path115734" class="bottoms_primary_highlight"/><g clip-path="none" id="g115738"><path d="m235.50001 866.99999-25.82233-5.20711 7.83274-223.63605 33.4038-80.67588c8.3585 151.62556-11.41779 223.29408-15.41421 309.51904z" id="path115736" class="bottoms_primary_highlight"/></g></g></svg>