<svg viewBox="0 0 560 1e3"><path id="path37485" d="m360.53068 242.0313s-1.5014 4.92035-4.98931 12.1863c-1.33791 2.78711-3.16582 6.0021-5.39999 9.33918-11.31064 14.27467-15.24894 17.64888-19.05845 31.98366-2.32889 8.76339-1.93108 15.71067 3.54275 23.73019-12.28316 8.30953-73.16539 19.37913-85.27021 5.37402 1.49412-6.56465 1.25728-12.37525 1.57963-19.55523.55134-12.28061-1.3439-19.01261-5.19881-30.69874-1.88173-6.73898-3.00206-14.02186-3.18284-19.38743-.70472-4.13732-.49556-8.96509.20991-13.59724 46.62205 13.56882 103.98838-5.58911 114.44748-11.08311.81936 5.18529 1.792 9.39863 3.15577 11.55995z" class="shadow"/><path d="m357.49805 230.06641c-49.88118 16.16626-72.61195 16.52565-114.35157 11.42968-.76058 4.842-.96415 9.88674-.40625 15.07032.13153 3.90391.64823 8.57927 2.00782 13.16797 4.58009 15.45809 7.11428 21.32684 6.59179 34.5625-.24951 6.32059.28983 12.72931-1.54687 20.13281.37623.32493.69827.72268 1.09765 1.01758 1.15284.85121 2.40189 1.58078 3.75196 2.20312s2.8018 1.13731 4.35547 1.5625 3.21098.75976 4.97461 1.01953c3.52725.51955 7.47951.7408 11.88476.78906 3.30729.0362 6.87571-.10448 10.61524-.41601 3.73952-.31153 7.65026-.79436 11.64062-1.43945 3.99036-.6451 8.06132-1.4535 12.1211-2.41797 4.05977-.96448 8.10884-2.08386 12.05664-3.35352 3.94779-1.26966 7.79481-2.68935 11.44921-4.25.16782-.0717.30567-.16211.47266-.23437-3.36951-4.95157-6.45987-11.92215-4.01367-21.02539 6.18485-23.01618 8.88791-19.12327 18.33008-32.67774 8.1747-11.82703 11.96289-23.21484 11.96289-23.21484-1.23312-2.31543-2.22114-6.60776-2.99414-11.92578z" id="path37487" class="top_primary"/><g transform="translate(-43.840614,-6.8058913)" id="g37493" style="display:inline;opacity:1"><path class="top_primary_strong_highlight" id="path37489" d="m374.30843 318.46636c-21.9574 5.51384-61.21723 4.55121-79.22597 1.77929l.002.71155c18.03674 4.33139 57.51401 4.40614 79.50499-1.61332z"/><path class="top_primary_strong_shade" d="m375.19232 320.83056c-22.78508 6.92984-62.92238 6.49413-80.14296 1.18071l.0154-.76219c18.06929 4.31066 57.61225 4.2882 79.59435-1.74582z" id="path37491"/></g><g id="g37523" transform="matrix(0.86994867,-0.11653934,0.10116052,0.75514808,18.621593,88.979978)" style="display:inline;opacity:1;stroke-width:1.22285461"><path d="m321.54278 322.50144c-11.88607 1.46344-21.73404.35238-31.02716-3.10495l-.0937.1914c9.59561 3.56988 18.16883 5.32703 30.61406 4.34107z" id="path37519" class="top_primary_strong_highlight"/><path id="path37521" d="m320.39752 325.64019c-11.85701.0173-21.08088-2.57337-30.02253-5.89995l.0469-.15235c9.20671 3.4252 18.71785 5.18709 30.56362 4.44983z" class="top_primary_strong_shade"/></g><g id="g37529" transform="matrix(-0.87631392,-0.04965901,-0.04310588,0.76067335,550.89148,63.798569)" style="display:inline;opacity:1;stroke-width:1.22285461"><path d="m326.44843 322.86381c-11.88607 1.46344-26.63969-.01-35.93281-3.46732l-.0937.1914c9.59561 3.56988 23.29651 5.67868 35.74174 4.69272z" id="path37525" class="top_primary_strong_highlight"/><path id="path37527" d="m326.05314 325.91456c-13.06742.47907-25.96631-2.56121-35.67815-6.17432l.0469-.15235c9.59767 3.57065 23.36406 5.90699 35.81091 4.92401z" class="top_primary_strong_shade"/></g><g style="display:inline;opacity:1;stroke-width:1.17464101" id="g37535" transform="matrix(1,0,0,0.7247525,-43.663837,73.736918)"><path d="m372.97566 318.78826c-22.2277 5.16379-60.40482 4.1699-78.00524 1.44008l-.0189.69688c17.55212 4.26026 55.73929 4.4463 78.05193-1.16536z" id="path37531" class="top_primary_strong_highlight"/><path id="path37533" d="m373.09305 321.4352c-23.12275 6.30722-61.49362 5.72758-78.14371.54507l-.005-.7601c17.57459 4.23394 55.76402 4.32843 78.07418-1.28578z" class="top_primary_strong_shade"/></g><g style="display:inline;opacity:1;stroke-width:.94345552" transform="matrix(-1.1019556,-0.13847171,-0.21394084,0.99262974,664.42977,22.299767)" id="g37547"><path class="top_primary_strong_highlight" id="path37543" d="m312.12128 322.95828c-7.84713.0313-15.07513-1.13222-21.60566-3.56179l-.0937.1914c6.447 2.39849 13.65801 3.93014 21.47196 4.3777z"/><path class="top_primary_strong_shade" d="m311.71572 324.83335c-7.84822-.8965-15.06638-2.75885-21.34073-5.09311l.0469-.15235c6.44091 2.39623 13.65095 3.92762 21.46082 4.3782z" id="path37545"/></g><g style="display:inline;opacity:1" id="g52581-9-3"><path class="top_primary_strong_shade" id="path37623-9-8" d="m333.06096 317.08757c-3.45092 1.48741-7.0744 2.84459-10.79338 4.06282-15.45011 5.06101-32.5407 7.74767-45.69727 7.60352-8.7837-.0962-15.72243-.8889-21.00976-3.32618-2.00335-.92347-3.72565-1.99865-5.23492-3.3711l-.22914 1.08737c1.48826 1.28428 3.15841 2.32269 5.04413 3.19194 5.51325 2.54142 12.58067 3.32114 21.41797 3.41797 13.30176.14574 30.46182-2.5561 46.01953-7.65235 3.79252-1.24232 7.49032-2.62551 11.01357-4.14549z"/><path class="top_primary_strong_highlight" id="path37661-4-9" d="m332.35877 315.86058c-3.31948 1.41431-6.79434 2.70878-10.35682 3.87575-15.45011 5.06103-32.54069 7.74766-45.69726 7.60351-8.78112-.0962-15.51561-.95421-20.60157-3.45312-1.98908-.97731-3.64573-2.0718-5.08993-3.48404l-.19117 1.15817c1.40352 1.28347 2.98757 2.31429 4.8397 3.22431 5.31687 2.61236 12.19331 3.45783 21.0332 3.55468 13.30176.14574 30.46182-2.5561 46.01953-7.65234 3.62121-1.1862 7.15595-2.50083 10.53478-3.94035z"/></g></svg>