<svg viewBox="0 0 560 1e3"><g id="g3997" style="fill-opacity:1;fill:#c0c6c7;stroke-opacity:1;stroke:none"><path class="shadow" id="path5146" d="m249.37141 236.16209c0 .75293-.84427 1.5972-1.5972 1.5972s-1.5972-.84427-1.5972-1.5972.84427-1.5972 1.5972-1.5972 1.5972.84427 1.5972 1.5972z"/><path d="m249.22621 236.16209c0 .68448-.76752 1.452-1.452 1.452s-1.452-.76752-1.452-1.452.76752-1.452 1.452-1.452 1.452.76752 1.452 1.452z" id="path2749-8-7" class="steel_piercing"/><path class="shadow" id="path5148" d="m248.77479 245.35448c0 .75293-.84427 1.5972-1.5972 1.5972s-1.5972-.84427-1.5972-1.5972.84427-1.5972 1.5972-1.5972 1.5972.84427 1.5972 1.5972z"/><path d="m248.62959 245.35448c0 .68448-.76752 1.452-1.452 1.452s-1.452-.76752-1.452-1.452.76752-1.452 1.452-1.452 1.452.76752 1.452 1.452z" id="path2749-8-5" class="steel_piercing"/><path class="shadow" id="path5150" d="m315.53009 232.95802c0 .75293-.84427 1.5972-1.5972 1.5972s-1.5972-.84427-1.5972-1.5972.84427-1.5972 1.5972-1.5972 1.5972.84427 1.5972 1.5972z"/><path d="m315.38489 232.95802c0 .68448-.76752 1.452-1.452 1.452s-1.452-.76752-1.452-1.452.76752-1.452 1.452-1.452 1.452.76752 1.452 1.452z" id="path2749-8-76" class="steel_piercing"/><path class="shadow" id="path5152" d="m314.20427 242.60621c0 .75293-.84427 1.5972-1.5972 1.5972s-1.5972-.84427-1.5972-1.5972.84427-1.5972 1.5972-1.5972 1.5972.84427 1.5972 1.5972z"/><path d="m314.05907 242.60621c0 .68448-.76752 1.452-1.452 1.452s-1.452-.76752-1.452-1.452.76752-1.452 1.452-1.452 1.452.76752 1.452 1.452z" id="path2749-8-4" class="steel_piercing"/></g></svg>