<svg viewBox="0 0 560 1e3"><defs><filter style="color-interpolation-filters:sRGB" id="filter11746"><feGaussianBlur stdDeviation="5.48 5.22" result="blur" id="feGaussianBlur11744"/></filter><clipPath clipPathUnits="userSpaceOnUse" id="clipPath11748"><path d="m402.04135 437.32717c-2.71181-22.47351-13.4586-37.47502-24.43313-54.38031-5.14872-7.93116-7.81073-16.2984-13.80729-25.67932-20.2068 18.72451-47.27309 31.26623-77.47869 35.88748-.40169 4.48931-25.06334 64.00074 7.84709 59.36545z" id="path11750" style="fill-opacity:.22488038;fill:#0ff"/></clipPath><clipPath clipPathUnits="userSpaceOnUse" id="clipPath11748-6-4-6"><path d="m402.04135 437.32717c-2.71181-22.47351-13.4586-37.47502-24.43313-54.38031-5.14872-7.93116-7.81073-16.2984-13.80729-25.67932-20.2068 18.72451-47.27309 31.26623-77.47869 35.88748-.40169 4.48931-25.06334 64.00074 7.84709 59.36545z" id="path11750-1-1-4" style="fill-opacity:.22488038;fill:#0ff"/></clipPath><filter style="color-interpolation-filters:sRGB" id="filter11746-2-3-0"><feGaussianBlur stdDeviation="5.48 5.22" result="blur" id="feGaussianBlur11744-4-8-4"/></filter></defs><path style="fill:#010101" d="m363.13183 356.46912c-13.47402 9.9809-31.32113 18.10125-50.79097 24.37515-19.2792 6.21247-39.66254 10.43972-58.19871 12.22934-18.99622 1.83404-29.48004-.68068-36.0156-3.90455-6.32653-3.12077-9.17657-7.17159-9.84228-8.06202-.13576 9.82091 1.32963 18.62865 3.13545 28.24642 1.96024 10.44017 3.23088 16.87979 4.09038 26.11275.74963 7.99811 1.42243 16.40775 2.51754 23.94597.12912.01.34984 1e-5.34984 1e-5-1.09156-7.59203-1.79034-15.77207-2.56881-23.84628-.95663-9.92215-2.50767-17.34352-4.32265-27.02542-1.71687-9.15847-3.08408-17.65359-3.03143-27.07832.66449.88739 3.50907 5.05684 9.83962 8.28683 6.53982 3.33677 17.04097 5.96378 35.97337 4.12937 18.47134-1.78975 38.787-6.05383 58.04509-12.30245 19.44723-6.30999 37.32855-14.46866 50.82671-24.4522 5.39284 9.28539 8.02481 17.66217 13.61232 25.62317 6.20272 8.83753 11.66423 16.16468 16.31722 25.23014 4.44741 8.66494 7.67603 18.1582 8.98947 29.34889.63774 5.43354-.21032 13.76952-1.37274 22.08619.14606.01.40818.0.40818.0 1.15397-8.3147 1.99533-16.64336 1.3548-22.0871-1.31609-11.18555-4.57332-20.71997-9.04062-29.41354-4.67895-9.10543-10.15472-16.45167-16.35215-25.29613-5.57832-7.96094-8.56242-16.86596-13.92403-26.14622z" id="path35836-1-1"/><path style="fill-opacity:1;fill:#232323" d="m363.13938 357.12372c-13.49816 9.98354-31.37948 18.14221-50.82671 24.4522-19.25809 6.24862-39.57375 10.5127-58.04509 12.30245-18.9324 1.83441-29.43355-.7926-35.97337-4.12937-6.33055-3.22999-9.17513-7.39944-9.83962-8.28683-.0526 9.42473 1.31456 17.91985 3.03143 27.07832 1.81498 9.6819 3.36602 17.10327 4.32265 27.02542.77847 8.07421 1.47725 16.25425 2.56881 23.84628 60.8233.0124 182.30817-8e-5 182.30817-8e-5 1.16242-8.31667 2.01048-16.65265 1.37274-22.08619-1.31344-11.19069-4.54206-20.68395-8.98947-29.34889-4.65299-9.06546-10.1145-16.39261-16.31722-25.23014-5.58751-7.961-8.21948-16.33778-13.61232-25.62317z" id="path35838-2-98"/><g id="g35940-4-5" transform="translate(2.7053959e-6)"><g id="g35870-4-25"><g style="stroke-width:.963262" transform="matrix(0.89206961,-0.65422114,0.57613954,0.78560069,-217.29918,284.46538)" id="g35844-0-4"><path style="fill-opacity:1;fill:none;opacity:1;stroke-dasharray:none;stroke-dashoffset:0;stroke-linecap:butt;stroke-linejoin:miter;stroke-miterlimit:4;stroke-opacity:1;stroke-width:2.62129;stroke:#000;vector-effect:none" d="m284.09775 432.93347c-1.54294-.96619-4.62272-2.93693-4.62272-2.93693" id="path35840-3-61"/><path style="baseline-shift:baseline;clip-rule:nonzero;color-interpolation-filters:linearRGB;color-interpolation:sRGB;color-rendering:auto;color:#000;direction:ltr;display:inline;dominant-baseline:auto;enable-background:accumulate;fill-opacity:1;fill-rule:nonzero;fill:#484848;image-rendering:auto;isolation:auto;mix-blend-mode:normal;opacity:1;overflow:visible;shape-padding:0;shape-rendering:auto;solid-color:#000000;solid-opacity:1;stroke-dasharray:none;stroke-dashoffset:0;stroke-linecap:butt;stroke-linejoin:miter;stroke-miterlimit:4;stroke-opacity:1;stroke-width:1.89281;stroke:none;vector-effect:none;visibility:visible;white-space:normal;writing-mode:lr-tb" d="m279.93323 429.05791c-.0387.79569-.15518 2.29559-.15518 2.29559 1.51576.8809 2.37464 1.64757 3.8904 2.52847.0881-.72004.22694-2.2462.22694-2.2462-1.517-.88148-2.44517-1.69638-3.96216-2.57786z" id="path35842-3-3"/></g><g id="g35850-8-09" transform="matrix(0.89206961,-0.65422114,0.57613954,0.78560069,-218.56553,274.78481)" style="stroke-width:.963262"><path style="fill-opacity:1;fill:none;opacity:1;stroke-dasharray:none;stroke-dashoffset:0;stroke-linecap:butt;stroke-linejoin:miter;stroke-miterlimit:4;stroke-opacity:1;stroke-width:2.62129;stroke:#000;vector-effect:none" d="m280.34025 429.77804c-1.58058-.99513-4.6982-2.99747-4.6982-2.99747" id="path35846-2-5"/><path style="baseline-shift:baseline;clip-rule:nonzero;color-interpolation-filters:linearRGB;color-interpolation:sRGB;color-rendering:auto;color:#000;direction:ltr;display:inline;dominant-baseline:auto;enable-background:accumulate;fill-opacity:1;fill-rule:nonzero;fill:#484848;image-rendering:auto;isolation:auto;mix-blend-mode:normal;opacity:1;overflow:visible;shape-padding:0;shape-rendering:auto;solid-color:#000000;solid-opacity:1;stroke-dasharray:none;stroke-dashoffset:0;stroke-linecap:butt;stroke-linejoin:miter;stroke-miterlimit:4;stroke-opacity:1;stroke-width:1.89281;stroke:none;vector-effect:none;visibility:visible;white-space:normal;writing-mode:lr-tb" d="m276.03766 425.78019c.003.83255-.0154 2.43072-.0154 2.43072 1.5223.88628 2.43055 1.69229 3.95285 2.57857.0407-.7694.0977-2.37183.0977-2.37183-1.55111-.9071-2.484-1.73036-4.03512-2.63746z" id="path35848-2-71"/></g><g style="stroke-width:.963262" transform="matrix(0.89206961,-0.65422114,0.57613954,0.78560069,-220.46258,264.74837)" id="g35856-9-3"><path style="fill-opacity:1;fill:none;opacity:1;stroke-dasharray:none;stroke-dashoffset:0;stroke-linecap:butt;stroke-linejoin:miter;stroke-miterlimit:4;stroke-opacity:1;stroke-width:2.62129;stroke:#000;vector-effect:none" d="m277.33034 426.83924c-2.04859-1.2736-5.99726-3.75946-5.99726-3.75946" id="path35852-7-7"/><path style="baseline-shift:baseline;clip-rule:nonzero;color-interpolation-filters:linearRGB;color-interpolation:sRGB;color-rendering:auto;color:#000;direction:ltr;display:inline;dominant-baseline:auto;enable-background:accumulate;fill-opacity:1;fill-rule:nonzero;fill:#484848;image-rendering:auto;isolation:auto;mix-blend-mode:normal;opacity:1;overflow:visible;shape-padding:0;shape-rendering:auto;solid-color:#000000;solid-opacity:1;stroke-dasharray:none;stroke-dashoffset:0;stroke-linecap:butt;stroke-linejoin:miter;stroke-miterlimit:4;stroke-opacity:1;stroke-width:1.89281;stroke:none;vector-effect:none;visibility:visible;white-space:normal;writing-mode:lr-tb" d="m271.54506 421.98961c-.009.82355-.0367 2.42693-.0367 2.42693 1.55277.91188 3.76683 2.35261 5.36014 3.2952.0485-.77096.13482-2.35425.13482-2.35425-1.60464-.95212-3.89769-2.44931-5.45826-3.36788z" id="path35854-1-24"/></g><g id="g35862-5-31" transform="matrix(0.89206961,-0.65422114,0.57613954,0.78560069,-221.32437,254.49532)" style="stroke-width:.963262"><path style="fill-opacity:1;fill:none;opacity:1;stroke-dasharray:none;stroke-dashoffset:0;stroke-linecap:butt;stroke-linejoin:miter;stroke-miterlimit:4;stroke-opacity:1;stroke-width:2.62129;stroke:#000;vector-effect:none" d="m273.71619 423.6642c-2.13934-1.34898-6.21015-3.94159-6.21015-3.94159" id="path35858-5-6"/><path style="baseline-shift:baseline;clip-rule:nonzero;color-interpolation-filters:linearRGB;color-interpolation:sRGB;color-rendering:auto;color:#000;direction:ltr;display:inline;dominant-baseline:auto;enable-background:accumulate;fill-opacity:1;fill-rule:nonzero;fill:#484848;image-rendering:auto;isolation:auto;mix-blend-mode:normal;opacity:1;overflow:visible;shape-padding:0;shape-rendering:auto;solid-color:#000000;solid-opacity:1;stroke-dasharray:none;stroke-dashoffset:0;stroke-linecap:butt;stroke-linejoin:miter;stroke-miterlimit:4;stroke-opacity:1;stroke-width:1.89281;stroke:none;vector-effect:none;visibility:visible;white-space:normal;writing-mode:lr-tb" d="m267.80606 418.70246c-.0661.77976-.19594 2.30159-.19594 2.30159 1.60393.95555 3.89263 2.46027 5.55152 3.45846.0999-.72831.30157-2.22202.30157-2.22202-1.6718-1.00924-4.04318-2.57375-5.65715-3.53803z" id="path35860-9-3"/></g><g style="stroke-width:.963262" transform="matrix(0.89206961,-0.65422114,0.57613954,0.78560069,-222.84907,244.08759)" id="g35868-1-4"><path style="fill-opacity:1;fill:none;opacity:1;stroke-dasharray:none;stroke-dashoffset:0;stroke-linecap:butt;stroke-linejoin:miter;stroke-miterlimit:4;stroke-opacity:1;stroke-width:2.62129;stroke:#000;vector-effect:none" d="m271.13765 421.33115c-2.22499-1.42225-6.42622-4.12991-6.42622-4.12991" id="path35864-7-8"/><path style="baseline-shift:baseline;clip-rule:nonzero;color-interpolation-filters:linearRGB;color-interpolation:sRGB;color-rendering:auto;color:#000;direction:ltr;display:inline;dominant-baseline:auto;enable-background:accumulate;fill-opacity:1;fill-rule:nonzero;fill:#484848;image-rendering:auto;isolation:auto;mix-blend-mode:normal;opacity:1;overflow:visible;shape-padding:0;shape-rendering:auto;solid-color:#000000;solid-opacity:1;stroke-dasharray:none;stroke-dashoffset:0;stroke-linecap:butt;stroke-linejoin:miter;stroke-miterlimit:4;stroke-opacity:1;stroke-width:1.89281;stroke:none;vector-effect:none;visibility:visible;white-space:normal;writing-mode:lr-tb" d="m265.14463 416.2926c-.15304.707-.4469 2.09229-.4469 2.09229 1.66112 1.0053 4.02438 2.57517 5.7501 3.63122.18167-.66025.55633-2.00922.55633-2.00922-1.73881-1.06736-4.18708-2.69911-5.85953-3.71429z" id="path35866-3-2"/></g></g><path style="fill-opacity:1;fill:#232323;opacity:1;stroke-dasharray:none;stroke-dashoffset:0;stroke-linecap:butt;stroke-linejoin:miter;stroke-miterlimit:4;stroke-opacity:1;stroke-width:.755906;stroke:#000;vector-effect:none" d="m241.34126 396.01678c2.6702 6.8929 6.49801 13.0706 10.06988 18.17156 3.46985 4.95525 7.36777 9.80769 10.23483 13.34635 6.55472 8.09015 9.91351 12.1294 13.26308 17.00124.60265.83602 1.29693 1.18109 2.00204 1.07383.0.0 2.81182-.3846 4.21725-.57749 1.63644-.22459 4.12801.93135 5.76444.70676 1.59693-.21965 2.33206-1.82308 3.92899-2.04273 1.73585-.22826 5.17552-.71685 5.17552-.71685.49759-.06.73185-.61187.51346-1.0962-4.06399-9.06437-9.67265-17.57712-13.64664-25.744-4.04451-8.31182-6.50604-15.84567-7.15521-23.70436-4.49577.77584-8.84 1.4583-13.04722 2.08919-1.55698.23312-1.68664 1.09745-1.36216 2.14502 1.23529 3.77015 3.01324 7.95396 5.6853 12.84967 2.6584 4.87069 5.70228 9.54249 8.79832 14.16397 3.46462 5.17165 5.28851 7.81197 7.53127 11.39134 1.8103 2.88919 2.77825 4.66254 2.77825 4.66254 1.00592 1.79578-.12907 3.02822-.87435 3.18649-1.40977.29938-3.8965-1.13799-4.70996-2.47559-4.29647-7.07212-12.86616-17.79716-18.7896-26.78937-5.96911-9.06155-8.7544-16.20231-8.7544-16.20231-.38084-1.07054-1.29706-1.74478-2.36093-1.71562-3.08619.21401-6.14884.34675-9.26216.27656z" id="path35872-3-0"/><g id="g35894-5-0"><path style="baseline-shift:baseline;clip-rule:nonzero;color-interpolation-filters:linearRGB;color-interpolation:sRGB;color-rendering:auto;color:#000;direction:ltr;display:inline;dominant-baseline:auto;enable-background:accumulate;fill-opacity:1;fill-rule:nonzero;fill:#a0a5a6;image-rendering:auto;isolation:auto;mix-blend-mode:normal;opacity:1;overflow:visible;shape-padding:0;shape-rendering:auto;solid-color:#000000;solid-opacity:1;stroke-dasharray:none;stroke-dashoffset:0;stroke-linecap:butt;stroke-linejoin:miter;stroke-miterlimit:4;stroke-opacity:1;stroke-width:.623622;stroke:none;vector-effect:none;visibility:visible;white-space:normal;writing-mode:lr-tb" d="m265.97737 394.91395c-1.43207-.002-2.37693 1.06013-2.10445 2.33293.27247 1.2728 1.66719 2.33905 3.07954 2.34048 1.41167.001 2.27993-1.06238 2.02095-2.33479-.25897-1.27244-1.56522-2.3369-2.99604-2.33862zm.10669.6309c.98896.001 1.94233.74747 2.13915 1.70709.19682.95962-.44832 1.70306-1.42756 1.70204-.97836-.001-1.97986-.74624-2.18388-1.70607-.20402-.95981.48394-1.70423 1.47229-1.70306z" id="path35874-4-5"/><path style="baseline-shift:baseline;clip-rule:nonzero;color-interpolation-filters:linearRGB;color-interpolation:sRGB;color-rendering:auto;color:#000;direction:ltr;display:inline;dominant-baseline:auto;enable-background:accumulate;fill-opacity:1;fill-rule:nonzero;fill:#a0a5a6;image-rendering:auto;isolation:auto;mix-blend-mode:normal;opacity:1;overflow:visible;shape-padding:0;shape-rendering:auto;solid-color:#000000;solid-opacity:1;stroke-dasharray:none;stroke-dashoffset:0;stroke-linecap:butt;stroke-linejoin:miter;stroke-miterlimit:4;stroke-opacity:1;stroke-width:.623622;stroke:none;vector-effect:none;visibility:visible;white-space:normal;writing-mode:lr-tb" d="m269.17524 405.20643c-1.40253-94e-5-2.11924 1.06284-1.61491 2.33633.50431 1.27351 2.05662 2.33884 3.43357 2.33941 1.37674 57e-5 2.03756-1.0637 1.55068-2.33668-.48688-1.27301-1.96809-2.33812-3.36934-2.33906zm.22561.63158c.96785 61e-5 2.04204.74722 2.41123 1.70729.36919.96006-.12847 1.70397-1.08385 1.70354-.95457-43e-5-2.06677-.74513-2.44527-1.70547-.3785-.96033.1504-1.70598 1.11789-1.70536z" id="path35876-1-2"/><path style="baseline-shift:baseline;clip-rule:nonzero;color-interpolation-filters:linearRGB;color-interpolation:sRGB;color-rendering:auto;color:#000;direction:ltr;display:inline;dominant-baseline:auto;enable-background:accumulate;fill-opacity:1;fill-rule:nonzero;fill:#a0a5a6;image-rendering:auto;isolation:auto;mix-blend-mode:normal;opacity:1;overflow:visible;shape-padding:0;shape-rendering:auto;solid-color:#000000;solid-opacity:1;stroke-dasharray:none;stroke-dashoffset:0;stroke-linecap:butt;stroke-linejoin:miter;stroke-miterlimit:4;stroke-opacity:1;stroke-width:.623622;stroke:none;vector-effect:none;visibility:visible;white-space:normal;writing-mode:lr-tb" d="m274.51829 415.99555c-1.36249 5e-5-1.89316 1.06268-1.22641 2.33294.66674 1.27028 2.30284 2.33136 3.6349 2.33096 1.33259-4e-4 1.84356-1.06198 1.19741-2.33177-.64614-1.26979-2.24459-2.33219-3.6059-2.33213zm.31462.63033c.93953-8e-5 2.0927.74448 2.58238 1.70212.48969.95763.1006 1.69983-.82427 1.70008-.92423 24e-5-2.09656-.74161-2.59724-1.6995-.50068-.9579-.10043-1.70263.83913-1.7027z" id="path35878-0-0"/><path style="baseline-shift:baseline;clip-rule:nonzero;color-interpolation-filters:linearRGB;color-interpolation:sRGB;color-rendering:auto;color:#000;direction:ltr;display:inline;dominant-baseline:auto;enable-background:accumulate;fill-opacity:1;fill-rule:nonzero;fill:#a0a5a6;image-rendering:auto;isolation:auto;mix-blend-mode:normal;opacity:1;overflow:visible;shape-padding:0;shape-rendering:auto;solid-color:#000000;solid-opacity:1;stroke-dasharray:none;stroke-dashoffset:0;stroke-linecap:butt;stroke-linejoin:miter;stroke-miterlimit:4;stroke-opacity:1;stroke-width:.623622;stroke:none;vector-effect:none;visibility:visible;white-space:normal;writing-mode:lr-tb" d="m280.74961 426.26319c-1.2397.1279-1.49921 1.27999-.65751 2.53683.8417 1.25685 2.4977 2.20406 3.70905 2.07713 1.21278-.12709 1.50756-1.27803.68554-2.53421-.82195-1.25608-2.49824-2.20754-3.73708-2.07975zm.41531.62391c.85444-.0883 2.05528.57539 2.67749 1.52274.62219.94734.3912 1.75504-.44986 1.84301-.8408.0879-2.02893-.57169-2.66163-1.51937-.63273-.94775-.421-1.75797.434-1.84638z" id="path35880-0-43"/><path style="baseline-shift:baseline;clip-rule:nonzero;color-interpolation-filters:linearRGB;color-interpolation:sRGB;color-rendering:auto;color:#000;direction:ltr;display:inline;dominant-baseline:auto;enable-background:accumulate;fill-opacity:1;fill-rule:nonzero;fill:#a0a5a6;image-rendering:auto;isolation:auto;mix-blend-mode:normal;opacity:1;overflow:visible;shape-padding:0;shape-rendering:auto;solid-color:#000000;solid-opacity:1;stroke-dasharray:none;stroke-dashoffset:0;stroke-linecap:butt;stroke-linejoin:miter;stroke-miterlimit:4;stroke-opacity:1;stroke-width:.623622;stroke:none;vector-effect:none;visibility:visible;white-space:normal;writing-mode:lr-tb" d="m287.22913 436.28157c-1.17068.17277-1.41217 1.34855-.64846 2.58969.76371 1.24114 2.27612 2.13988 3.4345 1.96836 1.16081-.17189 1.49612-1.34428.74005-2.58594-.75585-1.24131-2.35597-2.14478-3.52609-1.97211zm.39553.6166c.80779-.11932 1.94877.50965 2.51988 1.44582.57107.93613.31728 1.76028-.48555 1.87915-.80293.11888-1.89496-.50601-2.47012-1.44188-.57528-.93607-.37316-1.76361.43579-1.88309z" id="path35882-7-2"/><path style="baseline-shift:baseline;clip-rule:nonzero;color-interpolation-filters:linearRGB;color-interpolation:sRGB;color-rendering:auto;color:#000;direction:ltr;display:inline;dominant-baseline:auto;enable-background:accumulate;fill-opacity:1;fill-rule:nonzero;fill:#a0a5a6;image-rendering:auto;isolation:auto;mix-blend-mode:normal;opacity:1;overflow:visible;shape-padding:0;shape-rendering:auto;solid-color:#000000;solid-opacity:1;stroke-dasharray:none;stroke-dashoffset:0;stroke-linecap:butt;stroke-linejoin:miter;stroke-miterlimit:4;stroke-opacity:1;stroke-width:.623622;stroke:none;vector-effect:none;visibility:visible;white-space:normal;writing-mode:lr-tb" d="m275.4437 437.94672c-.98786.38124-.91874 1.68055.0475 2.86561.96617 1.18495 2.52482 1.87487 3.53909 1.49264 1.01595-.38286 1.0366-1.67263.0473-2.8619-.98865-1.18851-2.64612-1.87757-3.63391-1.49635zm.50578.58967c.68498-.26366 1.86116.21071 2.60467 1.10679.74348.89602.7127 1.80797.0136 2.07243-.69933.26456-1.82147-.20913-2.55268-1.10295-.73157-.89425-.75141-1.81228-.0656-2.07627z" id="path35884-8-4"/><path style="baseline-shift:baseline;clip-rule:nonzero;color-interpolation-filters:linearRGB;color-interpolation:sRGB;color-rendering:auto;color:#000;direction:ltr;display:inline;dominant-baseline:auto;enable-background:accumulate;fill-opacity:1;fill-rule:nonzero;fill:#a0a5a6;image-rendering:auto;isolation:auto;mix-blend-mode:normal;opacity:1;overflow:visible;shape-padding:0;shape-rendering:auto;solid-color:#000000;solid-opacity:1;stroke-dasharray:none;stroke-dashoffset:0;stroke-linecap:butt;stroke-linejoin:miter;stroke-miterlimit:4;stroke-opacity:1;stroke-width:.623622;stroke:none;vector-effect:none;visibility:visible;white-space:normal;writing-mode:lr-tb" d="m268.3106 428.02518c-1.10651.2413-1.13688 1.468-.14797 2.70545.98886 1.23741 2.66885 2.07884 3.76926 1.83819 1.10168-.24092 1.17181-1.46513.18676-2.7026-.98483-1.23722-2.70207-2.08222-3.80805-1.84104zm.49466.6145c.76435-.16681 1.9896.41986 2.73301 1.35295.74341.93308.67234 1.79487-.0897 1.96151-.76191.16661-1.96575-.41643-2.71119-1.34949-.74557-.9332-.69699-1.79806.0679-1.96497z" id="path35886-4-5"/><path style="baseline-shift:baseline;clip-rule:nonzero;color-interpolation-filters:linearRGB;color-interpolation:sRGB;color-rendering:auto;color:#000;direction:ltr;display:inline;dominant-baseline:auto;enable-background:accumulate;fill-opacity:1;fill-rule:nonzero;fill:#a0a5a6;image-rendering:auto;isolation:auto;mix-blend-mode:normal;opacity:1;overflow:visible;shape-padding:0;shape-rendering:auto;solid-color:#000000;solid-opacity:1;stroke-dasharray:none;stroke-dashoffset:0;stroke-linecap:butt;stroke-linejoin:miter;stroke-miterlimit:4;stroke-opacity:1;stroke-width:.623622;stroke:none;vector-effect:none;visibility:visible;white-space:normal;writing-mode:lr-tb" d="m260.53992 417.75987c-1.14502.22502-1.24521 1.44646-.27681 2.69527.96832 1.24871 2.67993 2.11246 3.80775 1.8882 1.12819-.22434 1.22213-1.44621.26653-2.69385-.95553-1.24757-2.65308-2.1145-3.79747-1.88962zm.46891.61956c.79023-.15557 2.00629.44697 2.72851 1.38791.72226.941.63042 1.80035-.15155 1.95561-.78162.1552-2.00409-.44362-2.73314-1.38518-.72907-.94158-.63411-1.80276.15618-1.95834z" id="path35888-5-36"/><path style="baseline-shift:baseline;clip-rule:nonzero;color-interpolation-filters:linearRGB;color-interpolation:sRGB;color-rendering:auto;color:#000;direction:ltr;display:inline;dominant-baseline:auto;enable-background:accumulate;fill-opacity:1;fill-rule:nonzero;fill:#a0a5a6;image-rendering:auto;isolation:auto;mix-blend-mode:normal;opacity:1;overflow:visible;shape-padding:0;shape-rendering:auto;solid-color:#000000;solid-opacity:1;stroke-dasharray:none;stroke-dashoffset:0;stroke-linecap:butt;stroke-linejoin:miter;stroke-miterlimit:4;stroke-opacity:1;stroke-width:.623622;stroke:none;vector-effect:none;visibility:visible;white-space:normal;writing-mode:lr-tb" d="m253.6051 407.2618c-1.1504.27995-1.33047 1.53605-.43685 2.77707.89346 1.24083 2.55586 2.05424 3.67903 1.77556 1.12289-.27859 1.2687-1.53861.39616-2.77718-.87254-1.23861-2.48854-2.05526-3.63834-1.77545zm.42058.61504c.7932-.19356 1.9545.3726 2.61497 1.30687.66057.93439.53045 1.82123-.24913 2.01416-.7791.19283-1.9645-.36941-2.63622-1.30497-.6717-.93552-.52253-1.82257.27038-2.01606z" id="path35890-4-7"/><path style="baseline-shift:baseline;clip-rule:nonzero;color-interpolation-filters:linearRGB;color-interpolation:sRGB;color-rendering:auto;color:#000;direction:ltr;display:inline;dominant-baseline:auto;enable-background:accumulate;fill-opacity:1;fill-rule:nonzero;fill:#a0a5a6;image-rendering:auto;isolation:auto;mix-blend-mode:normal;opacity:1;overflow:visible;shape-padding:0;shape-rendering:auto;solid-color:#000000;solid-opacity:1;stroke-dasharray:none;stroke-dashoffset:0;stroke-linecap:butt;stroke-linejoin:miter;stroke-miterlimit:4;stroke-opacity:1;stroke-width:.623622;stroke:none;vector-effect:none;visibility:visible;white-space:normal;writing-mode:lr-tb" d="m249.1834 396.96426c-1.29105.10046-1.93643 1.23978-1.44998 2.50977.48639 1.26989 1.93792 2.25224 3.20572 2.15196 1.26711-.10022 1.8505-1.24288 1.38048-2.5118-.47002-1.26899-1.84614-2.25032-3.13622-2.14993zm.21304.62935c.89092-.0695 1.88924.61634 2.24557 1.57338.35635.95711-.0852 1.75784-.96445 1.82724-.87857.0693-1.91774-.61485-2.28284-1.57246-.36508-.95756.11136-1.75873 1.00172-1.82816z" id="path35892-1-7"/></g><g id="g35920-9-9"><g id="g35900-4-8"><path style="fill-opacity:1;fill:none;opacity:1;stroke-dasharray:none;stroke-dashoffset:0;stroke-linecap:round;stroke-linejoin:miter;stroke-miterlimit:4;stroke-opacity:1;stroke-width:2.72126;stroke:#000;vector-effect:none" d="m288.60389 438.50042c-5.84831-2.70411-18.60835-8.32732-18.60835-8.32732" id="path35896-0-9"/><path style="fill-opacity:1;fill:none;opacity:1;stroke-dasharray:none;stroke-dashoffset:0;stroke-linecap:round;stroke-linejoin:miter;stroke-miterlimit:4;stroke-opacity:1;stroke-width:1.96535;stroke:#484848;vector-effect:none" d="m288.60389 438.50042c-5.84831-2.70411-18.60835-8.32732-18.60835-8.32732" id="path35898-8-4"/></g><g id="g35906-3-4" transform="matrix(1.025689,0,0,1,-8.7280577,-9.9687505)" style="stroke-width:.987398"><path style="fill-opacity:1;fill:none;opacity:1;stroke-dasharray:none;stroke-dashoffset:0;stroke-linecap:round;stroke-linejoin:miter;stroke-miterlimit:4;stroke-opacity:1;stroke-width:2.68697;stroke:#000;vector-effect:none" d="m283.59 438.4778c-2.87426-1.25805-9.11988-3.9734-11.99414-5.23145-4.01635-1.75384-7.19938-3.1613-7.19938-3.1613" id="path35902-2-0"/><path style="fill-opacity:1;fill:none;opacity:1;stroke-dasharray:none;stroke-dashoffset:0;stroke-linecap:round;stroke-linejoin:miter;stroke-miterlimit:4;stroke-opacity:1;stroke-width:1.94059;stroke:#484848;vector-effect:none" d="m283.59 438.4778c-2.87426-1.25805-9.11988-3.9734-11.99414-5.23145-4.01635-1.75384-7.19938-3.1613-7.19938-3.1613" id="path35904-2-8"/></g><g style="stroke-width:.936586" transform="matrix(1.0782795,0,0,1.0572394,-25.092964,-45.065984)" id="g35912-9-5"><path style="fill-opacity:1;fill:none;opacity:1;stroke-dasharray:none;stroke-dashoffset:0;stroke-linecap:round;stroke-linejoin:miter;stroke-miterlimit:4;stroke-opacity:1;stroke-width:2.54869;stroke:#000;vector-effect:none" d="m278.84171 438.38424c-3.50393-1.51908-7.76326-3.37684-11.97795-5.2629-3.94046-1.76332-6.98943-3.17775-6.98943-3.17775" id="path35908-4-2"/><path style="fill-opacity:1;fill:none;opacity:1;stroke-dasharray:none;stroke-dashoffset:0;stroke-linecap:round;stroke-linejoin:miter;stroke-miterlimit:4;stroke-opacity:1;stroke-width:1.84072;stroke:#484848;vector-effect:none" d="m278.84171 438.38424c-3.50393-1.51908-7.76326-3.37684-11.97795-5.2629-3.94046-1.76332-6.98943-3.17775-6.98943-3.17775" id="path35910-0-8"/></g><g id="g35918-5-4" transform="matrix(1.106252,0,0,0.97422031,-33.926354,-19.43417)" style="stroke-width:.963262"><path style="fill-opacity:1;fill:none;opacity:1;stroke-dasharray:none;stroke-dashoffset:0;stroke-linecap:round;stroke-linejoin:miter;stroke-miterlimit:4;stroke-opacity:1;stroke-width:2.62129;stroke:#000;vector-effect:none" d="m274.56092 438.2572c-3.40288-1.55331-7.29343-3.36097-11.26806-5.28068-3.65957-1.76755-6.453-3.18512-6.453-3.18512" id="path35914-1-8"/><path style="fill-opacity:1;fill:none;opacity:1;stroke-dasharray:none;stroke-dashoffset:0;stroke-linecap:round;stroke-linejoin:miter;stroke-miterlimit:4;stroke-opacity:1;stroke-width:1.89315;stroke:#484848;vector-effect:none" d="m274.56092 438.2572c-3.40288-1.55331-7.29343-3.36097-11.26806-5.28068-3.65957-1.76755-6.453-3.18512-6.453-3.18512" id="path35916-1-30"/></g></g><g id="g35938-5-8" style="display:inline;stroke-width:1.11601"><path style="fill-opacity:1;fill:none;opacity:1;stroke-dasharray:none;stroke-dashoffset:0;stroke-linecap:round;stroke-linejoin:miter;stroke-miterlimit:4;stroke-opacity:1;stroke-width:3.03696;stroke:#000;vector-effect:none" d="m277.56953 439.97328c.99349-2.17841 1.90905-4.43763 2.96959-7.11073.94413-2.37965 1.71118-4.29161 1.71118-4.29161" id="path35922-9-8"/><path style="fill-opacity:1;fill:none;opacity:1;stroke-dasharray:none;stroke-dashoffset:0;stroke-linecap:round;stroke-linejoin:miter;stroke-miterlimit:4;stroke-opacity:1;stroke-width:2.19336;stroke:#484848;vector-effect:none" d="m277.56953 439.97328c.99349-2.17841 1.90905-4.43763 2.96959-7.11073.94413-2.37965 1.71118-4.29161 1.71118-4.29161" id="path35924-8-16"/><path style="fill-opacity:1;fill:none;opacity:1;stroke-dasharray:none;stroke-dashoffset:0;stroke-linecap:round;stroke-linejoin:miter;stroke-miterlimit:4;stroke-opacity:1;stroke-width:3.03696;stroke:#000;vector-effect:none" d="m270.19445 430.17422c.89114-2.14081 1.96098-4.74041 3.18096-7.39145 1.13637-2.46938 2.18519-4.45514 2.18519-4.45514" id="path35926-1-40"/><path style="fill-opacity:1;fill:none;opacity:1;stroke-dasharray:none;stroke-dashoffset:0;stroke-linecap:round;stroke-linejoin:miter;stroke-miterlimit:4;stroke-opacity:1;stroke-width:2.19336;stroke:#484848;vector-effect:none" d="m270.19445 430.17422c.89114-2.14081 1.96098-4.74041 3.18096-7.39145 1.13637-2.46938 2.18519-4.45514 2.18519-4.45514" id="path35928-9-74"/><path style="fill-opacity:1;fill:none;opacity:1;stroke-dasharray:none;stroke-dashoffset:0;stroke-linecap:round;stroke-linejoin:miter;stroke-miterlimit:4;stroke-opacity:1;stroke-width:3.03696;stroke:#000;vector-effect:none" d="m262.41983 419.92773c1.14608-2.31496 2.54082-4.94568 4.34248-7.79411 1.64608-2.60244 3.22367-4.69095 3.22367-4.69095" id="path35930-9-6"/><path style="fill-opacity:1;fill:none;opacity:1;stroke-dasharray:none;stroke-dashoffset:0;stroke-linecap:round;stroke-linejoin:miter;stroke-miterlimit:4;stroke-opacity:1;stroke-width:2.19336;stroke:#484848;vector-effect:none" d="m262.41983 419.92773c1.14608-2.31496 2.54082-4.94568 4.34248-7.79411 1.64608-2.60244 3.22367-4.69095 3.22367-4.69095" id="path35932-6-2"/><path style="fill-opacity:1;fill:none;opacity:1;stroke-dasharray:none;stroke-dashoffset:0;stroke-linecap:round;stroke-linejoin:miter;stroke-miterlimit:4;stroke-opacity:1;stroke-width:3.03696;stroke:#000;vector-effect:none" d="m255.27706 409.5081c1.66535-2.29158 3.69908-4.849 6.32001-7.66073 2.38392-2.55746 4.6098-4.60431 4.6098-4.60431" id="path35934-5-23"/><path style="fill-opacity:1;fill:none;opacity:1;stroke-dasharray:none;stroke-dashoffset:0;stroke-linecap:round;stroke-linejoin:miter;stroke-miterlimit:4;stroke-opacity:1;stroke-width:2.19336;stroke:#484848;vector-effect:none" d="m255.27706 409.5081c1.66535-2.29158 3.69908-4.849 6.32001-7.66073 2.38392-2.55746 4.6098-4.60431 4.6098-4.60431" id="path35936-2-5"/></g></g><g id="g35948-8-5" style="filter:url(#filter11746-2-3-0)" clip-path="url(#clipPath11748-6-4-6)" transform="translate(2.7053959e-6)"><path style="display:inline;fill-opacity:.294258;fill:#373e40;opacity:1;stroke-dasharray:none;stroke-dashoffset:0;stroke-linecap:butt;stroke-linejoin:miter;stroke-miterlimit:4;stroke-opacity:1;stroke-width:.453543;stroke:none;vector-effect:none" d="m323.96146 378.78839c12.86696-3.75965 19.44345-2.95607 22.19902.42254 2.7646 3.3897 1.73106 9.40268-.99784 16.14818-2.62377 6.48564-7.2067 14.48623-11.40127 20.50419-4.36777 6.26644-8.9476 11.35085-13.80648 13.26614-6.33706 2.45679-14.96247 1.60962-24.69671-3.89405-4.76484-2.69401-10.13998-6.73493-14.80351-11.94394-4.63463-5.17671-8.97335-11.97346-10.25249-19.97905 5.47411-1.2579 16.04329-3.60551 25.4873-5.96129 10.03298-2.50271 20.55069-5.42448 28.27198-8.56272z" id="path35942-7-72"/><path style="display:inline;fill-opacity:.294258;fill:#373e40;opacity:1;stroke-dasharray:none;stroke-dashoffset:0;stroke-linecap:butt;stroke-linejoin:miter;stroke-miterlimit:4;stroke-opacity:1;stroke-width:.453543;stroke:none;vector-effect:none" d="m320.51169 383.67686c10.21738-3.02654 15.66676-2.37359 17.99554.32883 2.33788 2.71299 1.62756 7.54156-.44313 12.94088-2.0101 5.24133-5.54079 11.55355-8.96784 16.41589-3.53299 5.01266-7.34682 9.09052-11.36316 10.62354-5.23003 1.96349-12.43132 1.29654-20.22705-3.12084-3.83617-2.17372-7.98446-5.37897-11.57171-9.56041-3.56102-4.15085-6.81378-9.56262-8.00436-15.9771 4.67606-1.0661 12.65511-2.837 20.33067-4.7813 7.90437-2.00226 16.18291-4.35378 22.25104-6.86949z" id="path35944-9-5"/><path style="display:inline;fill-opacity:.294258;fill:#373e40;opacity:1;stroke-dasharray:none;stroke-dashoffset:0;stroke-linecap:butt;stroke-linejoin:miter;stroke-miterlimit:4;stroke-opacity:1;stroke-width:.453543;stroke:none;vector-effect:none" d="m315.259 383.32313c8.20404-2.42211 12.61443-1.90253 14.47768.26054 1.86897 2.16972 1.25502 6.03663-.49542 10.35604-1.71088 4.2218-4.6688 9.21694-7.63688 13.13638-3.03773 4.01141-6.34759 7.27941-9.75939 8.50716-4.43069 1.56855-10.51352 1.04004-16.70593-2.50904-5.8091-3.3294-12.97157-10.28514-14.28495-20.43676 7.74001-1.71949 24.83967-5.36549 34.40489-9.31432z" id="path35946-4-3"/></g><g id="g35970-6-3" transform="translate(2.7053959e-6)"><path style="display:inline;fill-opacity:.821306;fill:none;opacity:1;stroke-dasharray:none;stroke-dashoffset:0;stroke-linecap:butt;stroke-linejoin:miter;stroke-miterlimit:4;stroke-opacity:.986965;stroke-width:.755906;stroke:#000;vector-effect:none" d="m370.07335 370.95452c-11.861 9.03104-26.80408 16.74466-42.62219 23.05638-15.67712 6.25546-32.24091 11.14162-47.99093 14.17805" id="path35950-2-4"/><path style="display:inline;fill-opacity:.821306;fill:none;opacity:1;stroke-dasharray:none;stroke-dashoffset:0;stroke-linecap:butt;stroke-linejoin:miter;stroke-miterlimit:4;stroke-opacity:1;stroke-width:.755906;stroke:#000;vector-effect:none" d="m363.91031 358.31818c-13.57766 10.0685-31.56644 18.30573-51.05152 24.67057-19.30266 6.30526-39.61948 10.60925-58.1418 12.41515-18.98897 1.85139-29.62916-.79962-36.25812-4.16878-6.41824-3.26205-9.30772-7.47195-9.98279-8.36908" id="path35952-0-7"/><path style="display:inline;fill-opacity:.821306;fill:none;opacity:1;stroke-dasharray:none;stroke-dashoffset:0;stroke-linecap:butt;stroke-linejoin:miter;stroke-miterlimit:4;stroke-opacity:1;stroke-width:.755906;stroke:#000;vector-effect:none" d="m249.34912 411.11713c-14.35962.53676-23.67324-2.35421-29.67576-5.61349-5.84379-3.17309-8.8915-6.96392-9.92562-7.87418" id="path35954-9-8"/><path style="fill-opacity:1;fill:none;opacity:1;stroke-dasharray:none;stroke-dashoffset:0;stroke-linecap:butt;stroke-linejoin:miter;stroke-miterlimit:4;stroke-opacity:1;stroke-width:.755906;stroke:#060000;vector-effect:none" d="m370.75382 372.46383c-6.70023 5.27924-16.70928 10.89633-26.59108 15.77494-9.59528 4.73715-18.36946 8.45377-21.75867 9.15571.16525.49378.31133.91705.35076 1.02825 1.4007 3.95023 3.10197 8.54859 9.63162 22.3336 5.63943 11.90563 12.43147 25.71563 12.66436 38.66113" id="path35956-7-39"/><path style="fill-opacity:1;fill:none;opacity:1;stroke-dasharray:none;stroke-dashoffset:0;stroke-linecap:butt;stroke-linejoin:miter;stroke-miterlimit:4;stroke-opacity:1;stroke-width:.755906;stroke:#040000;vector-effect:none" d="m209.8649 399.06771c1.27165 1.43539 3.28538 3.17688 5.42977 4.76888 2.1014 1.56008 4.123 2.81955 4.83846 3.13742.84945 3.20484 3.33558 10.80325 6.68046 20.3847 3.37945 9.68049 7.15151 21.03109 6.54453 32.09888" id="path35958-1-33"/><path style="fill-opacity:1;fill:none;opacity:1;stroke-dasharray:none;stroke-dashoffset:0;stroke-linecap:butt;stroke-linejoin:miter;stroke-miterlimit:4;stroke-opacity:1;stroke-width:.755906;stroke:#060000;vector-effect:none" d="m327.51645 410.15137c9.19834-.8004 23.48197-1.38408 35.91821-2.41636 12.5567-1.04228 22.8507-2.49931 26.65675-5.17974" id="path35960-5-5"/><path style="fill-opacity:1;fill:none;opacity:1;stroke-dasharray:none;stroke-dashoffset:0;stroke-linecap:butt;stroke-linejoin:miter;stroke-miterlimit:4;stroke-opacity:1;stroke-width:.755906;stroke:#000;vector-effect:none" d="m223.41827 417.87335c-3.12569 1.31106-6.47308 1.93533-9.78861 2.20342" id="path35962-7-8"/><path style="fill-opacity:1;fill:none;opacity:1;stroke-dasharray:none;stroke-dashoffset:0;stroke-linecap:butt;stroke-linejoin:miter;stroke-miterlimit:4;stroke-opacity:1;stroke-width:.755906;stroke:#000;vector-effect:none" d="m286.85733 445.72767c2.48068 4.08025 4.57036 9.01897 5.77358 13.70985" id="path35964-8-92"/><path style="fill-opacity:1;fill:none;opacity:1;stroke-dasharray:none;stroke-dashoffset:0;stroke-linecap:butt;stroke-linejoin:miter;stroke-miterlimit:4;stroke-opacity:1;stroke-width:.755906;stroke:#000;vector-effect:none" d="m223.92444 419.27429c-3.19474 1.32749-6.63899 1.9519-10.05981 2.21562" id="path35966-4-6"/><path style="fill-opacity:1;fill:none;opacity:1;stroke-dasharray:none;stroke-dashoffset:0;stroke-linecap:butt;stroke-linejoin:miter;stroke-miterlimit:4;stroke-opacity:1;stroke-width:.755906;stroke:#060000;vector-effect:none" d="m328.0799 411.49324c9.28738-.8147 23.80168-1.40594 36.31961-2.4728 12.63607-1.07693 22.87214-2.59535 26.28671-5.40515" id="path35968-3-74"/></g></svg>