<svg viewBox="0 0 560 1e3"><defs><filter style="color-interpolation-filters:sRGB" id="filter11746"><feGaussianBlur stdDeviation="5.48 5.22" result="blur" id="feGaussianBlur11744"/></filter><clipPath clipPathUnits="userSpaceOnUse" id="clipPath11748"><path d="m402.04135 437.32717c-2.71181-22.47351-13.4586-37.47502-24.43313-54.38031-5.14872-7.93116-7.81073-16.2984-13.80729-25.67932-20.2068 18.72451-47.27309 31.26623-77.47869 35.88748-.40169 4.48931-25.06334 64.00074 7.84709 59.36545z" id="path11750" style="fill-opacity:.22488038;fill:#0ff"/></clipPath><clipPath clipPathUnits="userSpaceOnUse" id="clipPath11748-6-18-3"><path d="m402.04135 437.32717c-2.71181-22.47351-13.4586-37.47502-24.43313-54.38031-5.14872-7.93116-7.81073-16.2984-13.80729-25.67932-20.2068 18.72451-47.27309 31.26623-77.47869 35.88748-.40169 4.48931-25.06334 64.00074 7.84709 59.36545z" id="path11750-1-71-6" style="fill-opacity:.22488038;fill:#0ff"/></clipPath><filter style="color-interpolation-filters:sRGB" id="filter11746-2-5-8"><feGaussianBlur stdDeviation="5.48 5.22" result="blur" id="feGaussianBlur11744-4-64-1"/></filter></defs><path style="fill:#010101" d="m363.00839 356.42953c-13.11016 10.31794-30.03048 18.79697-48.22479 25.29565-18.08604 6.46001-37.12093 10.84275-54.84876 12.82469-18.13694 2.02767-28.46245-.30857-34.92419-3.40869-6.28522-3.01542-9.20812-7.02879-9.91402-7.9435.32621 9.90764 1.40205 18.572 2.21916 27.7933.84805 9.57061 1.09616 16.62206.79654 25.02909-.27601 7.88951-.51286 15.65387-.0806 23.39215.12821.01.34976 1e-5.34976 1e-5-.43521-7.73996-.24485-15.38569.0142-23.29912.57742-17.64225-2.38034-33.92119-3.11681-52.55792.70435.91128 3.62306 5.03946 9.90994 8.15956 6.46364 3.20782 16.80344 5.65221 34.89327 3.62789 17.68003-1.97846 36.65894-6.3906 54.72234-12.88081 18.16977-6.52843 35.1068-15.04057 48.22625-25.35708 5.55177 9.5616 8.44009 17.96089 14.02571 25.89186 6.16793 8.75776 11.54767 16.0901 16.10572 25.06089 4.37178 8.60418 7.5888 18.08805 8.89795 29.26977.63675 5.43846-.21107 13.7618-1.37433 22.08483.14607.01.40818.0.40818.0 1.15475-8.31965 1.99532-16.63844 1.35561-22.08639-1.31252-11.17805-4.55987-20.70275-8.9535-29.33635-4.58575-9.01112-9.98073-16.36224-16.14432-25.12764-5.57715-7.93141-8.83317-16.86422-14.34323-26.43219z" id="path14927"/><path style="fill-opacity:1;fill:#232323" d="m363.0306 357.10475c-13.11945 10.31651-30.05648 18.82865-48.22625 25.35708-18.0634 6.49021-37.04231 10.90235-54.72234 12.88081-18.08983 2.02432-28.42963-.42007-34.89327-3.62789-6.28688-3.1201-9.20559-7.24828-9.90994-8.15956.73647 18.63673 3.69423 34.91567 3.11681 52.55792-.259 7.91343-.44936 15.55916-.0142 23.29912 60.81121.0105 182.30419-13e-5 182.30419-13e-5 1.16326-8.32303 2.01108-16.64637 1.37433-22.08483-1.30915-11.18172-4.52617-20.66559-8.89795-29.26977-4.55805-8.97079-9.93779-16.30313-16.10572-25.06089-5.58562-7.93097-8.47394-16.33026-14.02571-25.89186z" id="path14929"/><g id="g15031" transform="translate(4.5576272e-6)"><g id="g14961"><g id="g14935" transform="matrix(0.89206961,-0.65422114,0.57613954,0.78560069,-217.29918,284.46538)" style="stroke-width:.963262"><path style="fill-opacity:1;fill:none;opacity:1;stroke-dasharray:none;stroke-dashoffset:0;stroke-linecap:butt;stroke-linejoin:miter;stroke-miterlimit:4;stroke-opacity:1;stroke-width:2.62129;stroke:#000;vector-effect:none" d="m284.87999 433.68571c-1.54546-.96967-4.63082-2.94581-4.63082-2.94581" id="path14931"/><path style="baseline-shift:baseline;clip-rule:nonzero;color-interpolation-filters:linearRGB;color-interpolation:sRGB;color-rendering:auto;color:#000;direction:ltr;display:inline;dominant-baseline:auto;enable-background:accumulate;fill-opacity:1;fill-rule:nonzero;fill:#484848;image-rendering:auto;isolation:auto;mix-blend-mode:normal;opacity:1;overflow:visible;shape-padding:0;shape-rendering:auto;solid-color:#000000;solid-opacity:1;stroke-dasharray:none;stroke-dashoffset:0;stroke-linecap:butt;stroke-linejoin:miter;stroke-miterlimit:4;stroke-opacity:1;stroke-width:1.89281;stroke:none;vector-effect:none;visibility:visible;white-space:normal;writing-mode:lr-tb" d="m280.80212 429.9091c-.10167.72106-.33603 2.09039-.33603 2.09039 1.52412.89056 2.3705 1.64236 3.89462 2.53292.14475-.65866.40405-2.04508.40405-2.04508-1.52527-.89086-2.43737-1.68737-3.96264-2.57823z" id="path14933"/></g><g style="stroke-width:.963262" transform="matrix(0.89206961,-0.65422114,0.57613954,0.78560069,-218.56553,274.78481)" id="g14941"><path style="fill-opacity:1;fill:none;opacity:1;stroke-dasharray:none;stroke-dashoffset:0;stroke-linecap:butt;stroke-linejoin:miter;stroke-miterlimit:4;stroke-opacity:1;stroke-width:2.62129;stroke:#000;vector-effect:none" d="m282.07265 431.65878c-1.56988-.98472-4.67516-2.97096-4.67516-2.97096" id="path14937"/><path style="baseline-shift:baseline;clip-rule:nonzero;color-interpolation-filters:linearRGB;color-interpolation:sRGB;color-rendering:auto;color:#000;direction:ltr;display:inline;dominant-baseline:auto;enable-background:accumulate;fill-opacity:1;fill-rule:nonzero;fill:#484848;image-rendering:auto;isolation:auto;mix-blend-mode:normal;opacity:1;overflow:visible;shape-padding:0;shape-rendering:auto;solid-color:#000000;solid-opacity:1;stroke-dasharray:none;stroke-dashoffset:0;stroke-linecap:butt;stroke-linejoin:miter;stroke-miterlimit:4;stroke-opacity:1;stroke-width:1.89281;stroke:none;vector-effect:none;visibility:visible;white-space:normal;writing-mode:lr-tb" d="m277.89156 427.81004c-.0628.74973-.21081 2.18845-.21081 2.18845 1.52546.88923 2.40652 1.66506 3.93198 2.5543.10272-.69321.28587-2.13813.28587-2.13813-1.54516-.9025-2.46188-1.70212-4.00704-2.60462z" id="path14939"/></g><g id="g14947" transform="matrix(0.89206961,-0.65422114,0.57613954,0.78560069,-220.46258,264.74837)" style="stroke-width:.963262"><path style="fill-opacity:1;fill:none;opacity:1;stroke-dasharray:none;stroke-dashoffset:0;stroke-linecap:butt;stroke-linejoin:miter;stroke-miterlimit:4;stroke-opacity:1;stroke-width:2.62129;stroke:#000;vector-effect:none" d="m279.96289 429.90739c-2.01162-1.2349-5.91585-3.66405-5.91585-3.66405" id="path14943"/><path style="baseline-shift:baseline;clip-rule:nonzero;color-interpolation-filters:linearRGB;color-interpolation:sRGB;color-rendering:auto;color:#000;direction:ltr;display:inline;dominant-baseline:auto;enable-background:accumulate;fill-opacity:1;fill-rule:nonzero;fill:#484848;image-rendering:auto;isolation:auto;mix-blend-mode:normal;opacity:1;overflow:visible;shape-padding:0;shape-rendering:auto;solid-color:#000000;solid-opacity:1;stroke-dasharray:none;stroke-dashoffset:0;stroke-linecap:butt;stroke-linejoin:miter;stroke-miterlimit:4;stroke-opacity:1;stroke-width:1.89281;stroke:none;vector-effect:none;visibility:visible;white-space:normal;writing-mode:lr-tb" d="m274.33402 425.25976c-.0603.75132-.19402 2.20584-.19402 2.20584 1.54082.8975 3.72361 2.30091 5.29698 3.22215.0977-.70062.27952-2.14847.27952-2.14847-1.5809-.9263-3.83712-2.37926-5.38248-3.27952z" id="path14945"/></g><g style="stroke-width:.963262" transform="matrix(0.89206961,-0.65422114,0.57613954,0.78560069,-221.32437,254.49532)" id="g14953"><path style="fill-opacity:1;fill:none;opacity:1;stroke-dasharray:none;stroke-dashoffset:0;stroke-linecap:butt;stroke-linejoin:miter;stroke-miterlimit:4;stroke-opacity:1;stroke-width:2.62129;stroke:#000;vector-effect:none" d="m276.92359 427.65008c-2.07691-1.27914-6.05927-3.7597-6.05927-3.7597" id="path14949"/><path style="baseline-shift:baseline;clip-rule:nonzero;color-interpolation-filters:linearRGB;color-interpolation:sRGB;color-rendering:auto;color:#000;direction:ltr;display:inline;dominant-baseline:auto;enable-background:accumulate;fill-opacity:1;fill-rule:nonzero;fill:#484848;image-rendering:auto;isolation:auto;mix-blend-mode:normal;opacity:1;overflow:visible;shape-padding:0;shape-rendering:auto;solid-color:#000000;solid-opacity:1;stroke-dasharray:none;stroke-dashoffset:0;stroke-linecap:butt;stroke-linejoin:miter;stroke-miterlimit:4;stroke-opacity:1;stroke-width:1.89281;stroke:none;vector-effect:none;visibility:visible;white-space:normal;writing-mode:lr-tb" d="m271.19927 422.93876c-.0915.73074-.27837 2.14965-.27837 2.14965 1.57289.91795 3.80616 2.35493 5.42444 3.3068.12489-.6818.37049-2.08732.37049-2.08732-1.62743-.95818-3.9372-2.44695-5.51656-3.36913z" id="path14951"/></g><g id="g14959" transform="matrix(0.89206961,-0.65422114,0.57613954,0.78560069,-222.84907,244.08759)" style="stroke-width:.963262"><path style="fill-opacity:1;fill:none;opacity:1;stroke-dasharray:none;stroke-dashoffset:0;stroke-linecap:butt;stroke-linejoin:miter;stroke-miterlimit:4;stroke-opacity:1;stroke-width:2.62129;stroke:#000;vector-effect:none" d="m274.49631 425.81052c-2.14187-1.32383-6.21239-3.86377-6.21239-3.86377" id="path14955"/><path style="baseline-shift:baseline;clip-rule:nonzero;color-interpolation-filters:linearRGB;color-interpolation:sRGB;color-rendering:auto;color:#000;direction:ltr;display:inline;dominant-baseline:auto;enable-background:accumulate;fill-opacity:1;fill-rule:nonzero;fill:#484848;image-rendering:auto;isolation:auto;mix-blend-mode:normal;opacity:1;overflow:visible;shape-padding:0;shape-rendering:auto;solid-color:#000000;solid-opacity:1;stroke-dasharray:none;stroke-dashoffset:0;stroke-linecap:butt;stroke-linejoin:miter;stroke-miterlimit:4;stroke-opacity:1;stroke-width:1.89281;stroke:none;vector-effect:none;visibility:visible;white-space:normal;writing-mode:lr-tb" d="m268.70621 421.0552c-.14884.69124-.44166 2.03715-.44166 2.03715 1.6111.94317 3.89712 2.41585 5.56362 3.40108.17815-.64496.53865-1.97094.53865-1.97094-1.6765-.99227-4.04147-2.51864-5.66061-3.46729z" id="path14957"/></g></g><path style="fill-opacity:1;fill:#232323;opacity:1;stroke-dasharray:none;stroke-dashoffset:0;stroke-linecap:butt;stroke-linejoin:miter;stroke-miterlimit:4;stroke-opacity:1;stroke-width:.755906;stroke:#000;vector-effect:none" d="m247.70353 397.59762c4.79586 12.17513 13.31502 24.58412 17.19345 30.41498 5.0558 7.60093 7.90616 11.92748 10.53463 16.51831.49863.82271 1.15152 1.16214 1.86012 1.05527.0.0 2.82498-.384 4.23754-.57635 1.64451-.22393 3.99393.91495 5.63843.69102 1.60564-.21881 2.50167-1.80216 4.10731-2.02097 1.74441-.22698 5.20373-.71192 5.20373-.71192.49916-.0596.79057-.60393.62895-1.08048-3.0023-8.9201-7.11411-17.14021-10.25051-25.05546-3.18356-8.03426-5.40644-15.40008-6.35269-23.14917-4.25055.81526-8.37188 1.53612-12.37194 2.20371-1.48081.24679-1.57971 1.10043-1.25091 2.12699 2.90495 8.59852 6.82342 16.01594 12.3363 26.18672 2.56341 4.72926 4.21009 7.82649 5.77128 11.04135 1.3665 2.81392 2.09133 4.55247 2.09133 4.55247.75676 1.75945-.50583 2.97409-1.26331 3.13132-1.43357.29757-3.71613-1.11518-4.33866-2.4228-3.29153-6.92313-9.85077-17.25194-14.78618-25.92094-4.96032-8.71275-7.7865-15.7044-7.7865-15.7044-.3758-1.04693-1.271-1.70004-2.29094-1.65933-2.95935.24554-5.90512.41142-8.91143.37968z" id="path14963"/><g id="g14985"><path style="baseline-shift:baseline;clip-rule:nonzero;color-interpolation-filters:linearRGB;color-interpolation:sRGB;color-rendering:auto;color:#000;direction:ltr;display:inline;dominant-baseline:auto;enable-background:accumulate;fill-opacity:1;fill-rule:nonzero;fill:#a0a5a6;image-rendering:auto;isolation:auto;mix-blend-mode:normal;opacity:1;overflow:visible;shape-padding:0;shape-rendering:auto;solid-color:#000000;solid-opacity:1;stroke-dasharray:none;stroke-dashoffset:0;stroke-linecap:butt;stroke-linejoin:miter;stroke-miterlimit:4;stroke-opacity:1;stroke-width:.623622;stroke:none;vector-effect:none;visibility:visible;white-space:normal;writing-mode:lr-tb" d="m271.31121 396.23527c-1.36718.0136-2.23891 1.07093-1.95927 2.31898.27964 1.24808 1.61415 2.2791 2.96426 2.26616 1.34984-.0129 2.17641-1.06489 1.90824-2.31381-.26814-1.24885-1.54705-2.28492-2.91323-2.27133zm.1189.62065c.94421-.009 1.87454.71606 2.07808 1.65782.20353.94173-.40867 1.67783-1.34457 1.68685-.93526.009-1.89577-.71182-2.10542-1.65311-.20967-.94134.42803-1.68221 1.37191-1.69156z" id="path14965"/><path style="baseline-shift:baseline;clip-rule:nonzero;color-interpolation-filters:linearRGB;color-interpolation:sRGB;color-rendering:auto;color:#000;direction:ltr;display:inline;dominant-baseline:auto;enable-background:accumulate;fill-opacity:1;fill-rule:nonzero;fill:#a0a5a6;image-rendering:auto;isolation:auto;mix-blend-mode:normal;opacity:1;overflow:visible;shape-padding:0;shape-rendering:auto;solid-color:#000000;solid-opacity:1;stroke-dasharray:none;stroke-dashoffset:0;stroke-linecap:butt;stroke-linejoin:miter;stroke-miterlimit:4;stroke-opacity:1;stroke-width:.623622;stroke:none;vector-effect:none;visibility:visible;white-space:normal;writing-mode:lr-tb" d="m274.36449 406.29603c-1.34244.0121-2.06262 1.05716-1.63703 2.29281.42559 1.23567 1.85201 2.25872 3.17439 2.24764 1.32239-.0111 2.01651-1.05226 1.60429-2.28924-.41218-1.23693-1.80006-2.2633-3.14165-2.25121zm.19571.61423c.92677-.008 1.93174.71052 2.24417 1.64323.31242.93268-.20509 1.66107-1.12209 1.66884-.91649.008-1.9419-.70739-2.26147-1.63938-.31958-.93203.21276-1.66441 1.13939-1.67269z" id="path14967"/><path style="baseline-shift:baseline;clip-rule:nonzero;color-interpolation-filters:linearRGB;color-interpolation:sRGB;color-rendering:auto;color:#000;direction:ltr;display:inline;dominant-baseline:auto;enable-background:accumulate;fill-opacity:1;fill-rule:nonzero;fill:#a0a5a6;image-rendering:auto;isolation:auto;mix-blend-mode:normal;opacity:1;overflow:visible;shape-padding:0;shape-rendering:auto;solid-color:#000000;solid-opacity:1;stroke-dasharray:none;stroke-dashoffset:0;stroke-linecap:butt;stroke-linejoin:miter;stroke-miterlimit:4;stroke-opacity:1;stroke-width:.623622;stroke:none;vector-effect:none;visibility:visible;white-space:normal;writing-mode:lr-tb" d="m278.83642 416.75039c-1.31198.01-1.92242 1.04523-1.41055 2.27253.51186 1.22731 1.97225 2.24639 3.26186 2.23782 1.29009-.009 1.90087-1.04187 1.40377-2.27079-.49708-1.2289-1.94377-2.24936-3.25508-2.23956zm.24525.60972c.9054-.007 1.94919.7082 2.32581 1.6348.37662.92658-.0799 1.64925-.97448 1.65529-.89425.006-1.94449-.70621-2.329-1.63195-.38452-.92575.0722-1.65147.97767-1.65814z" id="path14969"/><path style="baseline-shift:baseline;clip-rule:nonzero;color-interpolation-filters:linearRGB;color-interpolation:sRGB;color-rendering:auto;color:#000;direction:ltr;display:inline;dominant-baseline:auto;enable-background:accumulate;fill-opacity:1;fill-rule:nonzero;fill:#a0a5a6;image-rendering:auto;isolation:auto;mix-blend-mode:normal;opacity:1;overflow:visible;shape-padding:0;shape-rendering:auto;solid-color:#000000;solid-opacity:1;stroke-dasharray:none;stroke-dashoffset:0;stroke-linecap:butt;stroke-linejoin:miter;stroke-miterlimit:4;stroke-opacity:1;stroke-width:.623622;stroke:none;vector-effect:none;visibility:visible;white-space:normal;writing-mode:lr-tb" d="m283.70995 426.67878c-1.2206.13003-1.62882 1.25011-.98273 2.46727.6461 1.21719 2.12887 2.13305 3.3311 2.00487 1.20327-.1283 1.64731-1.2496 1.01348-2.46792-.6338-1.2183-2.14162-2.13419-3.36185-2.00422zm.32178.60402c.84237-.0897 1.92418.54932 2.40365 1.46796.47945.91863.14415 1.70537-.68953 1.79425-.83361.0889-1.90055-.54837-2.38656-1.46639-.48601-.91804-.17039-1.70602.67244-1.79582z" id="path14971"/><path style="baseline-shift:baseline;clip-rule:nonzero;color-interpolation-filters:linearRGB;color-interpolation:sRGB;color-rendering:auto;color:#000;direction:ltr;display:inline;dominant-baseline:auto;enable-background:accumulate;fill-opacity:1;fill-rule:nonzero;fill:#a0a5a6;image-rendering:auto;isolation:auto;mix-blend-mode:normal;opacity:1;overflow:visible;shape-padding:0;shape-rendering:auto;solid-color:#000000;solid-opacity:1;stroke-dasharray:none;stroke-dashoffset:0;stroke-linecap:butt;stroke-linejoin:miter;stroke-miterlimit:4;stroke-opacity:1;stroke-width:.623622;stroke:none;vector-effect:none;visibility:visible;white-space:normal;writing-mode:lr-tb" d="m288.66472 436.40996c-1.17293.17162-1.57585 1.32121-.98874 2.53513.58711 1.21394 1.96884 2.09491 3.13482 1.9245 1.16763-.17066 1.64158-1.32302 1.05861-2.53789-.58291-1.21473-2.03189-2.09333-3.20469-1.92174zm.30462.6018c.81024-.11856 1.84667.4936 2.28687 1.40961.44019.91599.0873 1.72543-.72013 1.84348-.80766.11808-1.80651-.49368-2.24891-1.40918-.44244-.91559-.12889-1.72524.68217-1.84391z" id="path14973"/><path style="baseline-shift:baseline;clip-rule:nonzero;color-interpolation-filters:linearRGB;color-interpolation:sRGB;color-rendering:auto;color:#000;direction:ltr;display:inline;dominant-baseline:auto;enable-background:accumulate;fill-opacity:1;fill-rule:nonzero;fill:#a0a5a6;image-rendering:auto;isolation:auto;mix-blend-mode:normal;opacity:1;overflow:visible;shape-padding:0;shape-rendering:auto;solid-color:#000000;solid-opacity:1;stroke-dasharray:none;stroke-dashoffset:0;stroke-linecap:butt;stroke-linejoin:miter;stroke-miterlimit:4;stroke-opacity:1;stroke-width:.623622;stroke:none;vector-effect:none;visibility:visible;white-space:normal;writing-mode:lr-tb" d="m276.83862 438.06876c-1.02781.37532-1.14979 1.64401-.35811 2.80309.7917 1.15909 2.2466 1.83393 3.29657 1.45656 1.05117-.3778 1.23747-1.64536.4277-2.8064-.80952-1.16068-2.33823-1.82862-3.36616-1.45325zm.41268.57466c.71259-.25972 1.80112.20057 2.40989 1.07578.60873.87515.45911 1.7705-.26517 2.03144-.72453.26104-1.77248-.20155-2.37158-1.07572-.59927-.87439-.48636-1.77153.22686-2.0315z" id="path14975"/><path style="baseline-shift:baseline;clip-rule:nonzero;color-interpolation-filters:linearRGB;color-interpolation:sRGB;color-rendering:auto;color:#000;direction:ltr;display:inline;dominant-baseline:auto;enable-background:accumulate;fill-opacity:1;fill-rule:nonzero;fill:#a0a5a6;image-rendering:auto;isolation:auto;mix-blend-mode:normal;opacity:1;overflow:visible;shape-padding:0;shape-rendering:auto;solid-color:#000000;solid-opacity:1;stroke-dasharray:none;stroke-dashoffset:0;stroke-linecap:butt;stroke-linejoin:miter;stroke-miterlimit:4;stroke-opacity:1;stroke-width:.623622;stroke:none;vector-effect:none;visibility:visible;white-space:normal;writing-mode:lr-tb" d="m271.34026 428.45061c-1.11588.23948-1.33202 1.42863-.55402 2.62407.77801 1.19547 2.29506 2.00666 3.4111 1.76803 1.11696-.23883 1.36977-1.4289.59091-2.62545-.77878-1.19645-2.33227-2.00608-3.44799-1.76665zm.39194.59309c.77166-.16555 1.88223.39676 2.46964 1.29894.58741.90218.38781 1.73966-.3844 1.90488-.77225.16522-1.86213-.3962-2.44907-1.2978-.587-.90167-.40826-1.74039.36383-1.90602z" id="path14977"/><path style="baseline-shift:baseline;clip-rule:nonzero;color-interpolation-filters:linearRGB;color-interpolation:sRGB;color-rendering:auto;color:#000;direction:ltr;display:inline;dominant-baseline:auto;enable-background:accumulate;fill-opacity:1;fill-rule:nonzero;fill:#a0a5a6;image-rendering:auto;isolation:auto;mix-blend-mode:normal;opacity:1;overflow:visible;shape-padding:0;shape-rendering:auto;solid-color:#000000;solid-opacity:1;stroke-dasharray:none;stroke-dashoffset:0;stroke-linecap:butt;stroke-linejoin:miter;stroke-miterlimit:4;stroke-opacity:1;stroke-width:.623622;stroke:none;vector-effect:none;visibility:visible;white-space:normal;writing-mode:lr-tb" d="m265.13745 418.56408c-1.13591.2263-1.37649 1.40941-.59246 2.60967.78401 1.20024 2.33352 2.02505 3.46226 1.80035 1.12908-.22478 1.37759-1.40766.59824-2.60909-.77931-1.20139-2.3324-2.02717-3.46804-1.80093zm.38466.59602c.78499-.15639 1.8981.41738 2.48651 1.32326.58842.90588.38942 1.73802-.39221 1.89364-.78149.15561-1.89182-.41578-2.48273-1.32104-.59092-.90528-.39667-1.73946.38843-1.89586z" id="path14979"/><path style="baseline-shift:baseline;clip-rule:nonzero;color-interpolation-filters:linearRGB;color-interpolation:sRGB;color-rendering:auto;color:#000;direction:ltr;display:inline;dominant-baseline:auto;enable-background:accumulate;fill-opacity:1;fill-rule:nonzero;fill:#a0a5a6;image-rendering:auto;isolation:auto;mix-blend-mode:normal;opacity:1;overflow:visible;shape-padding:0;shape-rendering:auto;solid-color:#000000;solid-opacity:1;stroke-dasharray:none;stroke-dashoffset:0;stroke-linecap:butt;stroke-linejoin:miter;stroke-miterlimit:4;stroke-opacity:1;stroke-width:.623622;stroke:none;vector-effect:none;visibility:visible;white-space:normal;writing-mode:lr-tb" d="m259.30794 408.44672c-1.12486.2831-1.37333 1.5065-.59832 2.70117.77494 1.1946 2.31499 1.96883 3.42604 1.6882 1.11095-.28059 1.3475-1.50321.58237-2.69896-.76512-1.19573-2.28555-1.97343-3.41009-1.69041zm.37204.59368c.77681-.19561 1.86843.34303 2.44668 1.24464.57829.90166.38661 1.76284-.38333 1.95722-.76967.19432-1.87121-.34052-2.45473-1.24157-.58353-.90103-.3853-1.7647.39138-1.96029z" id="path14981"/><path style="baseline-shift:baseline;clip-rule:nonzero;color-interpolation-filters:linearRGB;color-interpolation:sRGB;color-rendering:auto;color:#000;direction:ltr;display:inline;dominant-baseline:auto;enable-background:accumulate;fill-opacity:1;fill-rule:nonzero;fill:#a0a5a6;image-rendering:auto;isolation:auto;mix-blend-mode:normal;opacity:1;overflow:visible;shape-padding:0;shape-rendering:auto;solid-color:#000000;solid-opacity:1;stroke-dasharray:none;stroke-dashoffset:0;stroke-linecap:butt;stroke-linejoin:miter;stroke-miterlimit:4;stroke-opacity:1;stroke-width:.623622;stroke:none;vector-effect:none;visibility:visible;white-space:normal;writing-mode:lr-tb" d="m255.26853 398.43699c-1.23919.11318-1.85113 1.2396-1.39071 2.47682.46038 1.23718 1.83814 2.18066 3.06236 2.06897 1.22389-.11164 1.80342-1.23378 1.3532-2.47213-.45019-1.23831-1.78635-2.18679-3.02485-2.07366zm.21024.61533c.85577-.0781 1.82235.58373 2.16309 1.51748.34072.93375-.0949 1.72107-.94325 1.79848-.84788.0773-1.83704-.57989-2.18321-1.51303-.34616-.93316.10791-1.72481.96337-1.80293z" id="path14983"/></g><g id="g15011"><g id="g14991"><path style="fill-opacity:1;fill:none;opacity:1;stroke-dasharray:none;stroke-dashoffset:0;stroke-linecap:round;stroke-linejoin:miter;stroke-miterlimit:4;stroke-opacity:1;stroke-width:2.72126;stroke:#000;vector-effect:none" d="m289.71826 438.57768c-5.49891-2.68333-17.05271-8.05265-17.05271-8.05265" id="path14987"/><path style="fill-opacity:1;fill:none;opacity:1;stroke-dasharray:none;stroke-dashoffset:0;stroke-linecap:round;stroke-linejoin:miter;stroke-miterlimit:4;stroke-opacity:1;stroke-width:1.96535;stroke:#484848;vector-effect:none" d="m289.71826 438.57768c-5.49891-2.68333-17.05271-8.05265-17.05271-8.05265" id="path14989"/></g><g style="stroke-width:.987398" transform="matrix(1.025689,0,0,1,-8.7280577,-9.9687505)" id="g14997"><path style="fill-opacity:1;fill:none;opacity:1;stroke-dasharray:none;stroke-dashoffset:0;stroke-linecap:round;stroke-linejoin:miter;stroke-miterlimit:4;stroke-opacity:1;stroke-width:2.68697;stroke:#000;vector-effect:none" d="m286.14755 438.82316c-5.83457-2.68048-17.59312-8.02425-17.59312-8.02425" id="path14993"/><path style="fill-opacity:1;fill:none;opacity:1;stroke-dasharray:none;stroke-dashoffset:0;stroke-linecap:round;stroke-linejoin:miter;stroke-miterlimit:4;stroke-opacity:1;stroke-width:1.94059;stroke:#484848;vector-effect:none" d="m286.14755 438.82316c-5.83457-2.68048-17.59312-8.02425-17.59312-8.02425" id="path14995"/></g><g id="g15003" transform="matrix(1.0782795,0,0,1.0572394,-25.092964,-45.065984)" style="stroke-width:.936586"><path style="fill-opacity:1;fill:none;opacity:1;stroke-dasharray:none;stroke-dashoffset:0;stroke-linecap:round;stroke-linejoin:miter;stroke-miterlimit:4;stroke-opacity:1;stroke-width:2.54869;stroke:#000;vector-effect:none" d="m282.59549 439.02422c-3.16749-1.42191-7.22938-3.2489-11.0845-5.01363-3.66261-1.67661-6.5202-3.02012-6.5202-3.02012" id="path14999"/><path style="fill-opacity:1;fill:none;opacity:1;stroke-dasharray:none;stroke-dashoffset:0;stroke-linecap:round;stroke-linejoin:miter;stroke-miterlimit:4;stroke-opacity:1;stroke-width:1.84072;stroke:#484848;vector-effect:none" d="m282.59549 439.02422c-3.16749-1.42191-7.22938-3.2489-11.0845-5.01363-3.66261-1.67661-6.5202-3.02012-6.5202-3.02012" id="path15001"/></g><g style="stroke-width:.963262" transform="matrix(1.106252,0,0,0.97422031,-33.926354,-19.43417)" id="g15009"><path style="fill-opacity:1;fill:none;opacity:1;stroke-dasharray:none;stroke-dashoffset:0;stroke-linecap:round;stroke-linejoin:miter;stroke-miterlimit:4;stroke-opacity:1;stroke-width:2.62129;stroke:#000;vector-effect:none" d="m279.1497 439.3108c-3.18501-1.47126-6.89576-3.20786-10.66468-5.02863-3.48565-1.68393-6.17238-3.0369-6.17238-3.0369" id="path15005"/><path style="fill-opacity:1;fill:none;opacity:1;stroke-dasharray:none;stroke-dashoffset:0;stroke-linecap:round;stroke-linejoin:miter;stroke-miterlimit:4;stroke-opacity:1;stroke-width:1.89315;stroke:#484848;vector-effect:none" d="m279.1497 439.3108c-3.18501-1.47126-6.89576-3.20786-10.66468-5.02863-3.48565-1.68393-6.17238-3.0369-6.17238-3.0369" id="path15007"/></g></g><g style="display:inline;stroke-width:1.11601" id="g15029"><path style="fill-opacity:1;fill:none;opacity:1;stroke-dasharray:none;stroke-dashoffset:0;stroke-linecap:round;stroke-linejoin:miter;stroke-miterlimit:4;stroke-opacity:1;stroke-width:3.03696;stroke:#000;vector-effect:none" d="m278.64502 440.04483c1.26625-2.11279 2.52816-4.36593 3.94095-6.94952 1.26737-2.31765 2.27653-4.18119 2.27653-4.18119" id="path15013"/><path style="fill-opacity:1;fill:none;opacity:1;stroke-dasharray:none;stroke-dashoffset:0;stroke-linecap:round;stroke-linejoin:miter;stroke-miterlimit:4;stroke-opacity:1;stroke-width:2.19336;stroke:#484848;vector-effect:none" d="m278.64502 440.04483c1.26625-2.11279 2.52816-4.36593 3.94095-6.94952 1.26737-2.31765 2.27653-4.18119 2.27653-4.18119" id="path15015"/><path style="fill-opacity:1;fill:none;opacity:1;stroke-dasharray:none;stroke-dashoffset:0;stroke-linecap:round;stroke-linejoin:miter;stroke-miterlimit:4;stroke-opacity:1;stroke-width:3.03696;stroke:#000;vector-effect:none" d="m272.86 430.52517c1.16333-2.02527 2.65117-4.66283 4.13426-7.18371 1.41233-2.4006 2.62303-4.33464 2.62303-4.33464" id="path15017"/><path style="fill-opacity:1;fill:none;opacity:1;stroke-dasharray:none;stroke-dashoffset:0;stroke-linecap:round;stroke-linejoin:miter;stroke-miterlimit:4;stroke-opacity:1;stroke-width:2.19336;stroke:#484848;vector-effect:none" d="m272.86 430.52517c1.16333-2.02527 2.65117-4.66283 4.13426-7.18371 1.41233-2.4006 2.62303-4.33464 2.62303-4.33464" id="path15019"/><path style="fill-opacity:1;fill:none;opacity:1;stroke-dasharray:none;stroke-dashoffset:0;stroke-linecap:round;stroke-linejoin:miter;stroke-miterlimit:4;stroke-opacity:1;stroke-width:3.03696;stroke:#000;vector-effect:none" d="m266.70889 420.64798c1.39506-2.24454 3.02946-4.81021 4.97483-7.58744 1.77968-2.54068 3.37486-4.59092 3.37486-4.59092" id="path15021"/><path style="fill-opacity:1;fill:none;opacity:1;stroke-dasharray:none;stroke-dashoffset:0;stroke-linecap:round;stroke-linejoin:miter;stroke-miterlimit:4;stroke-opacity:1;stroke-width:2.19336;stroke:#484848;vector-effect:none" d="m266.70889 420.64798c1.39506-2.24454 3.02946-4.81021 4.97483-7.58744 1.77968-2.54068 3.37486-4.59092 3.37486-4.59092" id="path15023"/><path style="fill-opacity:1;fill:none;opacity:1;stroke-dasharray:none;stroke-dashoffset:0;stroke-linecap:round;stroke-linejoin:miter;stroke-miterlimit:4;stroke-opacity:1;stroke-width:3.03696;stroke:#000;vector-effect:none" d="m260.78758 410.61285c1.76275-2.2381 3.8419-4.75117 6.39034-7.52482 2.3193-2.52427 4.40439-4.56203 4.40439-4.56203" id="path15025"/><path style="fill-opacity:1;fill:none;opacity:1;stroke-dasharray:none;stroke-dashoffset:0;stroke-linecap:round;stroke-linejoin:miter;stroke-miterlimit:4;stroke-opacity:1;stroke-width:2.19336;stroke:#484848;vector-effect:none" d="m260.78758 410.61285c1.76275-2.2381 3.8419-4.75117 6.39034-7.52482 2.3193-2.52427 4.40439-4.56203 4.40439-4.56203" id="path15027"/></g></g><g clip-path="url(#clipPath11748-6-18-3)" style="filter:url(#filter11746-2-5-8)" id="g15039" transform="translate(4.5576272e-6)"><path style="display:inline;fill-opacity:.294258;fill:#373e40;opacity:1;stroke-dasharray:none;stroke-dashoffset:0;stroke-linecap:butt;stroke-linejoin:miter;stroke-miterlimit:4;stroke-opacity:1;stroke-width:.453543;stroke:none;vector-effect:none" d="m325.8106 379.534c12.17075-3.93188 18.61787-3.17368 21.42825.20571 2.81602 3.38617 2.0394 9.43792-.46268 16.16532-2.44939 6.58575-6.7604 14.3057-11.09761 20.35258-4.44052 6.19091-9.27514 11.18055-14.18604 13.07548-6.40534 2.4325-14.76204 1.59669-23.57884-3.71994-7.85434-4.73625-19.67359-15.68714-22.62407-31.0039 5.32856-1.34051 14.97888-3.69936 23.99175-6.18861 9.40665-2.59801 19.30046-5.64445 26.52924-8.88664z" id="path15033"/><path style="display:inline;fill-opacity:.294258;fill:#373e40;opacity:1;stroke-dasharray:none;stroke-dashoffset:0;stroke-linecap:butt;stroke-linejoin:miter;stroke-miterlimit:4;stroke-opacity:1;stroke-width:.453543;stroke:none;vector-effect:none" d="m322.78384 384.48808c9.62988-3.14326 14.92629-2.54286 17.28121.14801 2.36083 2.69761 1.84963 7.53543-.0509 12.91089-1.86911 5.2865-5.21485 11.41535-8.71149 16.27849-3.56177 4.95373-7.51516 8.95594-11.52936 10.47646-5.22655 1.94851-12.14515 1.30295-19.24395-2.95703-6.53836-3.92365-15.23338-12.44651-17.80722-24.82657 4.47999-1.11331 11.90432-2.91763 19.17553-4.9425 7.43068-2.06927 15.21403-4.50327 20.8862-7.08775z" id="path15035"/><path style="display:inline;fill-opacity:.294258;fill:#373e40;opacity:1;stroke-dasharray:none;stroke-dashoffset:0;stroke-linecap:butt;stroke-linejoin:miter;stroke-miterlimit:4;stroke-opacity:1;stroke-width:.453543;stroke:none;vector-effect:none" d="m317.73388 384.18694c7.71618-2.51669 11.99308-2.04041 13.88902.114 1.89962 2.15858 1.47702 6.03496-.0871 10.34208-3.08383 8.49194-10.54295 19.15634-16.84601 21.46445-4.3442 1.56596-10.13492 1.07059-15.84409-2.34512-5.39488-3.22768-11.76741-9.90447-13.43097-19.93295 7.31761-1.78678 23.37974-5.57434 32.31914-9.64246z" id="path15037"/></g><g id="g15061" transform="translate(4.5576272e-6)"><path style="display:inline;fill-opacity:.821306;fill:none;opacity:1;stroke-dasharray:none;stroke-dashoffset:0;stroke-linecap:butt;stroke-linejoin:miter;stroke-miterlimit:4;stroke-opacity:.986965;stroke-width:.755906;stroke:#000;vector-effect:none" d="m370.25739 371.18154c-11.42385 9.23226-25.51869 17.13876-40.42742 23.54917-14.83213 6.37748-30.47696 11.27796-45.73173 14.38484" id="path15041"/><path style="display:inline;fill-opacity:.821306;fill:none;opacity:1;stroke-dasharray:none;stroke-dashoffset:0;stroke-linecap:butt;stroke-linejoin:miter;stroke-miterlimit:4;stroke-opacity:1;stroke-width:.755906;stroke:#000;vector-effect:none" d="m363.82227 358.33296c-13.17956 10.39189-30.19702 18.97092-48.40607 25.54305-18.10812 6.5357-37.10858 10.97564-54.86236 12.96473-18.16814 2.03551-28.63868-.42706-35.17688-3.65527-6.36213-3.14128-9.30732-7.29319-10.01851-8.21065" id="path15043"/><path style="display:inline;fill-opacity:.821306;fill:none;opacity:1;stroke-dasharray:none;stroke-dashoffset:0;stroke-linecap:butt;stroke-linejoin:miter;stroke-miterlimit:4;stroke-opacity:1;stroke-width:.755906;stroke:#000;vector-effect:none" d="m254.91981 412.2298c-14.01076.65865-23.02633-2.02263-28.80147-5.09313-5.64584-3.00175-8.53366-6.62618-9.56244-7.51523" id="path15045"/><path style="fill-opacity:1;fill:none;opacity:1;stroke-dasharray:none;stroke-dashoffset:0;stroke-linecap:butt;stroke-linejoin:miter;stroke-miterlimit:4;stroke-opacity:1;stroke-width:.755906;stroke:#060000;vector-effect:none" d="m370.96586 372.70227c-6.4165 5.36428-16.02988 11.17002-25.31498 16.11517-9.08068 4.83628-17.31787 8.58372-20.56135 9.31572.16416.48458.31045.90764.34836 1.01452.63281 1.78367 4.00611 10.519 8.68965 21.92673 4.85698 11.83017 10.07935 25.09217 10.9214 38.34262" id="path15047"/><path style="fill-opacity:1;fill:none;opacity:1;stroke-dasharray:none;stroke-dashoffset:0;stroke-linecap:butt;stroke-linejoin:miter;stroke-miterlimit:4;stroke-opacity:1;stroke-width:.755906;stroke:#040000;vector-effect:none" d="m216.59672 401.02723c1.21667 1.37768 3.16982 3.04739 5.22306 4.55688 2.01448 1.48099 3.94981 2.67511 4.6392 2.9713.5758 3.09239 2.21651 10.37229 4.0767 19.55371 1.91541 9.454 3.62876 20.01491 2.82244 31.34847" id="path15049"/><path style="fill-opacity:1;fill:none;opacity:1;stroke-dasharray:none;stroke-dashoffset:0;stroke-linecap:butt;stroke-linejoin:miter;stroke-miterlimit:4;stroke-opacity:1;stroke-width:.755906;stroke:#060000;vector-effect:none" d="m329.89155 410.67759c8.80464-.85028 22.46454-1.52378 34.4532-2.63823 12.08938-1.12381 22.15766-2.65894 25.88994-5.36799" id="path15051"/><path style="fill-opacity:1;fill:none;opacity:1;stroke-dasharray:none;stroke-dashoffset:0;stroke-linecap:butt;stroke-linejoin:miter;stroke-miterlimit:4;stroke-opacity:1;stroke-width:.755906;stroke:#000;vector-effect:none" d="m228.5281 419.02752c-3.32875 1.29881-6.82267 1.94156-10.26082 2.2458" id="path15053"/><path style="fill-opacity:1;fill:none;opacity:1;stroke-dasharray:none;stroke-dashoffset:0;stroke-linecap:butt;stroke-linejoin:miter;stroke-miterlimit:4;stroke-opacity:1;stroke-width:.755906;stroke:#000;vector-effect:none" d="m287.13367 445.68966c2.00235 3.92783 3.90663 9.06359 5.49544 13.74747" id="path15055"/><path style="fill-opacity:1;fill:none;opacity:1;stroke-dasharray:none;stroke-dashoffset:0;stroke-linecap:butt;stroke-linejoin:miter;stroke-miterlimit:4;stroke-opacity:1;stroke-width:.755906;stroke:#000;vector-effect:none" d="m228.84363 420.36883c-3.40317 1.31398-6.98981 1.95667-10.52623 2.25683" id="path15057"/><path style="fill-opacity:1;fill:none;opacity:1;stroke-dasharray:none;stroke-dashoffset:0;stroke-linecap:butt;stroke-linejoin:miter;stroke-miterlimit:4;stroke-opacity:1;stroke-width:.755906;stroke:#060000;vector-effect:none" d="m330.39207 411.99383c10.06835-.97505 24.80501-1.71106 34.87336-2.68611 12.17844-1.1554 22.20262-2.74923 25.55379-5.58359" id="path15059"/></g></svg>