<svg viewBox="0 0 560 1e3"><defs><filter style="color-interpolation-filters:sRGB" id="filter11746"><feGaussianBlur stdDeviation="5.48 5.22" result="blur" id="feGaussianBlur11744"/></filter><clipPath clipPathUnits="userSpaceOnUse" id="clipPath11748"><path d="m402.04135 437.32717c-2.71181-22.47351-13.4586-37.47502-24.43313-54.38031-5.14872-7.93116-7.81073-16.2984-13.80729-25.67932-20.2068 18.72451-47.27309 31.26623-77.47869 35.88748-.40169 4.48931-25.06334 64.00074 7.84709 59.36545z" id="path11750" style="fill-opacity:.22488038;fill:#0ff"/></clipPath><clipPath clipPathUnits="userSpaceOnUse" id="clipPath11748-6-9-5"><path d="m402.04135 437.32717c-2.71181-22.47351-13.4586-37.47502-24.43313-54.38031-5.14872-7.93116-7.81073-16.2984-13.80729-25.67932-20.2068 18.72451-47.27309 31.26623-77.47869 35.88748-.40169 4.48931-25.06334 64.00074 7.84709 59.36545z" id="path11750-1-5-9" style="fill-opacity:.22488038;fill:#0ff"/></clipPath><filter style="color-interpolation-filters:sRGB" id="filter11746-2-10-4"><feGaussianBlur stdDeviation="5.48 5.22" result="blur" id="feGaussianBlur11744-4-2-3"/></filter></defs><path style="fill:#010101" d="m363.00927 355.72081c-12.62418 9.75395-30.6653 17.741-51.48596 24.20359-20.41543 6.33682-42.39864 10.83366-61.95779 12.86383-20.11435 2.08781-31.15898-.26849-38.03443-3.45054-6.65549-3.08023-9.54412-7.167-10.23333-8.08271-.41435 10.22916 1.61353 18.71724 5.015 28.509 3.67978 10.5929 6.40924 16.55472 8.5402 25.8588 1.86186 8.10396 2.95905 15.98222 3.18 23.78906.12802.01.35009 1e-5.35009 1e-5-.16814-7.73088-1.31641-15.64325-3.18823-23.69341-2.22421-9.56573-5.69729-17.33796-8.93668-26.76917-3.20102-9.31954-5.09294-17.5321-4.78964-27.33311.68985.91392 3.56912 5.1162 10.24054 8.3062 6.88848 3.29379 17.97021 5.7614 37.99453 3.6746 19.46895-2.02892 41.35754-6.56227 61.76144-12.93757 20.80729-6.50135 38.92808-14.53086 51.62281-24.29323 6.01895 8.60287 8.46303 17.04669 14.36447 25.69717 6.09593 8.93078 11.45344 16.51387 15.93135 25.67995 4.28193 8.76492 7.40933 18.41208 8.68853 29.57545.62271 5.43426-.20594 13.7768-1.38642 22.09335.14605.01.40816 1e-5.40816 1e-5 1.16843-8.31641 1.98924-16.64491 1.36182-22.09083-1.28489-11.15297-4.44282-20.84557-8.74106-29.63684-4.50136-9.20677-9.86974-16.80988-15.95988-25.74808-5.50544-8.08008-8.26779-17.01909-14.74552-26.21553z" id="path35836-1-0"/><path style="fill-opacity:.995146;fill:#232323" d="m363.08782 356.36616c-12.69473 9.76237-30.81552 17.79188-51.62281 24.29323-20.4039 6.3753-42.29249 10.90865-61.76144 12.93757-20.02432 2.0868-31.10605-.38081-37.99453-3.6746-6.67142-3.19-9.55069-7.39228-10.24054-8.3062-.30325 9.80101 1.58862 18.01357 4.78964 27.33311 3.23939 9.43121 6.71247 17.20344 8.93668 26.76917 1.87182 8.05016 3.02009 15.96253 3.18822 23.69341 60.84955.0112 182.30271 23e-5 182.30271 23e-5 1.18048-8.31655 2.00913-16.65909 1.38642-22.09335-1.2792-11.16337-4.4066-20.81053-8.68853-29.57545-4.47791-9.16608-9.83542-16.74917-15.93135-25.67995-5.89314-8.63368-8.35404-17.11103-14.36447-25.69717z" id="path35838-2-2"/><g id="g35940-4-51" transform="translate(-4.6326002e-6)"><g id="g35870-4-5"><g style="stroke-width:.963262" transform="matrix(0.89206961,-0.65422114,0.57613954,0.78560069,-217.29918,284.46538)" id="g35844-0-47"><path style="fill-opacity:1;fill:none;opacity:1;stroke-dasharray:none;stroke-dashoffset:0;stroke-linecap:butt;stroke-linejoin:miter;stroke-miterlimit:4;stroke-opacity:1;stroke-width:2.62129;stroke:#000;vector-effect:none" d="m286.34179 434.45169c-1.52172-.9399-4.58595-2.87746-4.58595-2.87746" id="path35840-3-80"/><path style="baseline-shift:baseline;clip-rule:nonzero;color-interpolation-filters:linearRGB;color-interpolation:sRGB;color-rendering:auto;color:#000;direction:ltr;display:inline;dominant-baseline:auto;enable-background:accumulate;fill-opacity:1;fill-rule:nonzero;fill:#484848;image-rendering:auto;isolation:auto;mix-blend-mode:normal;opacity:1;overflow:visible;shape-padding:0;shape-rendering:auto;solid-color:#000000;solid-opacity:1;stroke-dasharray:none;stroke-dashoffset:0;stroke-linecap:butt;stroke-linejoin:miter;stroke-miterlimit:4;stroke-opacity:1;stroke-width:1.89281;stroke:none;vector-effect:none;visibility:visible;white-space:normal;writing-mode:lr-tb" d="m282.13261 430.55921c.0178.84094-.0113 2.42802-.0113 2.42802 1.50705.86317 2.35638 1.62016 3.86343 2.48333.048-.76367.0818-2.38273.0818-2.38273-1.493-.85201-2.44095-1.67661-3.93395-2.52862z" id="path35842-3-2"/></g><g id="g35850-8-6" transform="matrix(0.89206961,-0.65422114,0.57613954,0.78560069,-218.56553,274.78481)" style="stroke-width:.963262"><path style="fill-opacity:1;fill:none;opacity:1;stroke-dasharray:none;stroke-dashoffset:0;stroke-linecap:butt;stroke-linejoin:miter;stroke-miterlimit:4;stroke-opacity:1;stroke-width:2.62129;stroke:#000;vector-effect:none" d="m281.4331 430.28724c-1.57199-.97271-4.68835-2.94172-4.68835-2.94172" id="path35846-2-52"/><path style="baseline-shift:baseline;clip-rule:nonzero;color-interpolation-filters:linearRGB;color-interpolation:sRGB;color-rendering:auto;color:#000;direction:ltr;display:inline;dominant-baseline:auto;enable-background:accumulate;fill-opacity:1;fill-rule:nonzero;fill:#484848;image-rendering:auto;isolation:auto;mix-blend-mode:normal;opacity:1;overflow:visible;shape-padding:0;shape-rendering:auto;solid-color:#000000;solid-opacity:1;stroke-dasharray:none;stroke-dashoffset:0;stroke-linecap:butt;stroke-linejoin:miter;stroke-miterlimit:4;stroke-opacity:1;stroke-width:1.89281;stroke:none;vector-effect:none;visibility:visible;white-space:normal;writing-mode:lr-tb" d="m276.98531 426.21163c.10718.92119.282 2.67956.282 2.67956 1.50932.86032 2.43719 1.67471 3.94651 2.53502-.0509-.84601-.18915-2.61612-.18915-2.61612-1.53906-.88074-2.50025-1.71772-4.03932-2.59846h-4e-5z" id="path35848-2-35"/></g><g style="stroke-width:.963262" transform="matrix(0.89206961,-0.65422114,0.57613954,0.78560069,-220.46258,264.74837)" id="g35856-9-5"><path style="fill-opacity:1;fill:none;opacity:1;stroke-dasharray:none;stroke-dashoffset:0;stroke-linecap:butt;stroke-linejoin:miter;stroke-miterlimit:4;stroke-opacity:1;stroke-width:2.62129;stroke:#000;vector-effect:none" d="m276.80845 425.98333c-2.07682-1.26773-6.0787-3.73963-6.0787-3.73963" id="path35852-7-6"/><path style="baseline-shift:baseline;clip-rule:nonzero;color-interpolation-filters:linearRGB;color-interpolation:sRGB;color-rendering:auto;color:#000;direction:ltr;display:inline;dominant-baseline:auto;enable-background:accumulate;fill-opacity:1;fill-rule:nonzero;fill:#484848;image-rendering:auto;isolation:auto;mix-blend-mode:normal;opacity:1;overflow:visible;shape-padding:0;shape-rendering:auto;solid-color:#000000;solid-opacity:1;stroke-dasharray:none;stroke-dashoffset:0;stroke-linecap:butt;stroke-linejoin:miter;stroke-miterlimit:4;stroke-opacity:1;stroke-width:1.89281;stroke:none;vector-effect:none;visibility:visible;white-space:normal;writing-mode:lr-tb" d="m270.78303 421.02108c.0999.91143.28779 2.69211.28779 2.69211 1.56245.89753 3.80911 2.33381 5.41451 3.26429-.0519-.85593-.16604-2.60559-.16604-2.60559-1.62386-.94454-3.95999-2.44298-5.53628-3.35081h2e-5z" id="path35854-1-28"/></g><g id="g35862-5-2" transform="matrix(0.89206961,-0.65422114,0.57613954,0.78560069,-221.32437,254.49532)" style="stroke-width:.963262"><path style="fill-opacity:1;fill:none;opacity:1;stroke-dasharray:none;stroke-dashoffset:0;stroke-linecap:butt;stroke-linejoin:miter;stroke-miterlimit:4;stroke-opacity:1;stroke-width:2.62129;stroke:#000;vector-effect:none" d="m271.79266 421.63269c-2.2219-1.37852-6.43489-4.01373-6.43489-4.01373" id="path35858-5-0"/><path style="baseline-shift:baseline;clip-rule:nonzero;color-interpolation-filters:linearRGB;color-interpolation:sRGB;color-rendering:auto;color:#000;direction:ltr;display:inline;dominant-baseline:auto;enable-background:accumulate;fill-opacity:1;fill-rule:nonzero;fill:#484848;image-rendering:auto;isolation:auto;mix-blend-mode:normal;opacity:1;overflow:visible;shape-padding:0;shape-rendering:auto;solid-color:#000000;solid-opacity:1;stroke-dasharray:none;stroke-dashoffset:0;stroke-linecap:butt;stroke-linejoin:miter;stroke-miterlimit:4;stroke-opacity:1;stroke-width:1.89281;stroke:none;vector-effect:none;visibility:visible;white-space:normal;writing-mode:lr-tb" d="m265.54591 416.50365c.0129.84358.0473 2.5005.0473 2.5005 1.65004.96426 4.02225 2.49664 5.73448 3.50979.0261-.79039.0865-2.40294.0865-2.40294-1.7332-1.02967-4.20082-2.62944-5.86832-3.60735z" id="path35860-9-4"/></g><g style="stroke-width:.963262" transform="matrix(0.89206961,-0.65422114,0.57613954,0.78560069,-222.84907,244.08759)" id="g35868-1-46"><path style="fill-opacity:1;fill:none;opacity:1;stroke-dasharray:none;stroke-dashoffset:0;stroke-linecap:butt;stroke-linejoin:miter;stroke-miterlimit:4;stroke-opacity:1;stroke-width:2.62129;stroke:#000;vector-effect:none" d="m268.38493 418.59516c-2.31001-1.4562-6.79127-4.29822-6.79127-4.29822" id="path35864-7-54"/><path style="baseline-shift:baseline;clip-rule:nonzero;color-interpolation-filters:linearRGB;color-interpolation:sRGB;color-rendering:auto;color:#000;direction:ltr;display:inline;dominant-baseline:auto;enable-background:accumulate;fill-opacity:1;fill-rule:nonzero;fill:#484848;image-rendering:auto;isolation:auto;mix-blend-mode:normal;opacity:1;overflow:visible;shape-padding:0;shape-rendering:auto;solid-color:#000000;solid-opacity:1;stroke-dasharray:none;stroke-dashoffset:0;stroke-linecap:butt;stroke-linejoin:miter;stroke-miterlimit:4;stroke-opacity:1;stroke-width:1.89281;stroke:none;vector-effect:none;visibility:visible;white-space:normal;writing-mode:lr-tb" d="m261.98925 413.35108c-.1216.73349-.34225 2.18208-.34225 2.18208 1.74682 1.0412 4.2435 2.67237 6.06389 3.77201.15209-.68764.47746-2.08152.47746-2.08152-1.84021-1.11579-4.43424-2.81665-6.1991-3.87257z" id="path35866-3-99"/></g></g><path style="fill-opacity:1;fill:#232323;opacity:1;stroke-dasharray:none;stroke-dashoffset:0;stroke-linecap:butt;stroke-linejoin:miter;stroke-miterlimit:4;stroke-opacity:1;stroke-width:.755906;stroke:#000;vector-effect:none" d="m236.08081 395.92148c3.0853 6.935 7.97158 13.01816 12.69363 18.12695 4.45513 4.81999 9.84523 9.86352 13.44605 13.27902 8.22402 7.8008 12.67232 12.36657 15.91688 17.00657.61597.8407 1.29858 1.18858 2.01174 1.07844.0.0 2.82437-.39349 4.23054-.59086 1.63411-.22938 4.102.93406 5.73611.70468 1.59136-.22423 2.31813-1.84453 3.8954-2.07013 1.71846-.23376 5.0957-.73163 5.0957-.73163.48984-.0614.70076-.61952.46022-1.10901-4.47775-9.15808-12.32857-17.70225-17.76123-25.90248-5.58195-8.42557-8.74309-15.83265-9.3594-23.82261-4.77736.82974-9.38409 1.56653-13.8389 2.25254-1.64861.25351-1.77527 1.12549-1.4016 2.17626 1.41866 3.78723 3.58869 7.96527 7.06125 12.86938 3.46387 4.89186 7.51526 9.52472 11.64402 14.16942 4.44374 4.99904 7.12606 8.00384 9.79043 11.42062 2.2614 2.9 3.37136 4.68964 3.37136 4.68964 1.17376 1.80822.0805 3.0561-.65258 3.21663-1.38344.30295-3.93423-1.13854-4.86819-2.485-4.92938-7.11288-16.38152-17.82219-24.13484-26.79517-7.83864-9.07174-11.00317-16.18966-11.00317-16.18966-.44687-1.07255-1.42966-1.73961-2.55592-1.6963-3.25889.25576-6.49013.43052-9.7775.4027z" id="path35872-3-75"/><g id="g35894-5-89"><path style="baseline-shift:baseline;clip-rule:nonzero;color-interpolation-filters:linearRGB;color-interpolation:sRGB;color-rendering:auto;color:#000;direction:ltr;display:inline;dominant-baseline:auto;enable-background:accumulate;fill-opacity:1;fill-rule:nonzero;fill:#a0a5a6;image-rendering:auto;isolation:auto;mix-blend-mode:normal;opacity:1;overflow:visible;shape-padding:0;shape-rendering:auto;solid-color:#000000;solid-opacity:1;stroke-dasharray:none;stroke-dashoffset:0;stroke-linecap:butt;stroke-linejoin:miter;stroke-miterlimit:4;stroke-opacity:1;stroke-width:.623622;stroke:none;vector-effect:none;visibility:visible;white-space:normal;writing-mode:lr-tb" d="m262.1269 394.49627c-1.51898.015-2.508 1.09563-2.17885 2.37397.32913 1.27829 1.86127 2.33571 3.3536 2.32114 1.49095-.0146 2.35736-1.09549 2.04659-2.37425-.31078-1.27874-1.7039-2.33586-3.22134-2.32086zm.122.6341c1.04868-.0103 2.0686.73033 2.30502 1.6946.23643.96431-.41269 1.72023-1.44798 1.73036-1.03405.0101-2.12946-.72868-2.37568-1.69275-.24623-.96406.47104-1.72187 1.51864-1.73221z" id="path35874-4-09"/><path style="baseline-shift:baseline;clip-rule:nonzero;color-interpolation-filters:linearRGB;color-interpolation:sRGB;color-rendering:auto;color:#000;direction:ltr;display:inline;dominant-baseline:auto;enable-background:accumulate;fill-opacity:1;fill-rule:nonzero;fill:#a0a5a6;image-rendering:auto;isolation:auto;mix-blend-mode:normal;opacity:1;overflow:visible;shape-padding:0;shape-rendering:auto;solid-color:#000000;solid-opacity:1;stroke-dasharray:none;stroke-dashoffset:0;stroke-linecap:butt;stroke-linejoin:miter;stroke-miterlimit:4;stroke-opacity:1;stroke-width:.623622;stroke:none;vector-effect:none;visibility:visible;white-space:normal;writing-mode:lr-tb" d="m266.05956 404.82519c-1.47727.0139-2.12434 1.09274-1.44299 2.36897.68132 1.2762 2.45674 2.33272 3.8955 2.31981 1.43844-.0129 1.98941-1.09062 1.33389-2.36799-.6555-1.27736-2.31119-2.33469-3.7864-2.32079zm.30039.63354c1.01836-.009 2.22026.73119 2.71757 1.69436s.072 1.71693-.92745 1.72597c-.9983.009-2.26416-.72929-2.77527-1.69185-.51109-.96256-.0326-1.71895.98515-1.72848z" id="path35876-1-0"/><path style="baseline-shift:baseline;clip-rule:nonzero;color-interpolation-filters:linearRGB;color-interpolation:sRGB;color-rendering:auto;color:#000;direction:ltr;display:inline;dominant-baseline:auto;enable-background:accumulate;fill-opacity:1;fill-rule:nonzero;fill:#a0a5a6;image-rendering:auto;isolation:auto;mix-blend-mode:normal;opacity:1;overflow:visible;shape-padding:0;shape-rendering:auto;solid-color:#000000;solid-opacity:1;stroke-dasharray:none;stroke-dashoffset:0;stroke-linecap:butt;stroke-linejoin:miter;stroke-miterlimit:4;stroke-opacity:1;stroke-width:.623622;stroke:none;vector-effect:none;visibility:visible;white-space:normal;writing-mode:lr-tb" d="m273.13497 415.63477c-1.41576.0116-1.77491 1.08548-.8459 2.35738.92899 1.2719 2.82763 2.32681 4.19566 2.31662 1.36924-.0107 1.69449-1.08214.79681-2.35575-.89767-1.27359-2.73305-2.32986-4.14657-2.31825zm.43688.63168c.9745-.007 2.29711.73208 2.9777 1.69235.68061.96026.41974 1.71-.53207 1.7172-.95065.007-2.30551-.73013-3.00284-1.68949-.69733-.95938-.41744-1.71216.55721-1.72006z" id="path35878-0-27"/><path style="baseline-shift:baseline;clip-rule:nonzero;color-interpolation-filters:linearRGB;color-interpolation:sRGB;color-rendering:auto;color:#000;direction:ltr;display:inline;dominant-baseline:auto;enable-background:accumulate;fill-opacity:1;fill-rule:nonzero;fill:#a0a5a6;image-rendering:auto;isolation:auto;mix-blend-mode:normal;opacity:1;overflow:visible;shape-padding:0;shape-rendering:auto;solid-color:#000000;solid-opacity:1;stroke-dasharray:none;stroke-dashoffset:0;stroke-linecap:butt;stroke-linejoin:miter;stroke-miterlimit:4;stroke-opacity:1;stroke-width:.623622;stroke:none;vector-effect:none;visibility:visible;white-space:normal;writing-mode:lr-tb" d="m281.50416 425.92222c-1.24021.13624-1.26958 1.29642-.17063 2.55635 1.09894 1.25994 2.94942 2.20518 4.14744 2.07208 1.20081-.13343 1.29304-1.29407.22258-2.55511-1.07033-1.26089-2.96085-2.20937-4.19939-2.07332zm.54559.6255c.85287-.0938 2.20289.56766 3.01345 1.51845.81053.95078.72378 1.76534-.10964 1.85784-.83291.0924-2.15869-.56565-2.98443-1.51583-.82581-.95026-.77338-1.76648.0806-1.86046z" id="path35880-0-33"/><path style="baseline-shift:baseline;clip-rule:nonzero;color-interpolation-filters:linearRGB;color-interpolation:sRGB;color-rendering:auto;color:#000;direction:ltr;display:inline;dominant-baseline:auto;enable-background:accumulate;fill-opacity:1;fill-rule:nonzero;fill:#a0a5a6;image-rendering:auto;isolation:auto;mix-blend-mode:normal;opacity:1;overflow:visible;shape-padding:0;shape-rendering:auto;solid-color:#000000;solid-opacity:1;stroke-dasharray:none;stroke-dashoffset:0;stroke-linecap:butt;stroke-linejoin:miter;stroke-miterlimit:4;stroke-opacity:1;stroke-width:.623622;stroke:none;vector-effect:none;visibility:visible;white-space:normal;writing-mode:lr-tb" d="m289.80255 435.98167c-1.14767.1779-1.22451 1.36344-.32983 2.61269.8947 1.24928 2.46091 2.15331 3.5985 1.97785 1.14205-.17617 1.38463-1.36008.49452-2.61154-.88971-1.25092-2.61659-2.15672-3.76319-1.979zm.47798.62037c.79115-.12263 2.01554.50797 2.68738 1.45127.67178.94322.48889 1.7756-.2995 1.89737-.78857.1218-1.92415-.50661-2.5984-1.44869-.67447-.9424-.58277-1.77698.21052-1.89995z" id="path35882-7-7"/><path style="baseline-shift:baseline;clip-rule:nonzero;color-interpolation-filters:linearRGB;color-interpolation:sRGB;color-rendering:auto;color:#000;direction:ltr;display:inline;dominant-baseline:auto;enable-background:accumulate;fill-opacity:1;fill-rule:nonzero;fill:#a0a5a6;image-rendering:auto;isolation:auto;mix-blend-mode:normal;opacity:1;overflow:visible;shape-padding:0;shape-rendering:auto;solid-color:#000000;solid-opacity:1;stroke-dasharray:none;stroke-dashoffset:0;stroke-linecap:butt;stroke-linejoin:miter;stroke-miterlimit:4;stroke-opacity:1;stroke-width:.623622;stroke:none;vector-effect:none;visibility:visible;white-space:normal;writing-mode:lr-tb" d="m278.18391 437.6994c-.94606.38615-.71774 1.69433.35552 2.8829 1.07304 1.18832 2.66488 1.8822 3.6643 1.49322 1.00235-.39012.9357-1.68691-.18456-2.88298-1.11896-1.19477-2.8893-1.87925-3.8353-1.49314h4e-5zm.58367.59125c.65773-.26702 1.9066.20443 2.74611 1.10504.83942.90051.87558 1.8182.18944 2.08719-.68648.2692-1.83867-.20662-2.65309-1.1032-.81512-.89732-.94186-1.82138-.28265-2.08903h19e-5z" id="path35884-8-75"/><path style="baseline-shift:baseline;clip-rule:nonzero;color-interpolation-filters:linearRGB;color-interpolation:sRGB;color-rendering:auto;color:#000;direction:ltr;display:inline;dominant-baseline:auto;enable-background:accumulate;fill-opacity:1;fill-rule:nonzero;fill:#a0a5a6;image-rendering:auto;isolation:auto;mix-blend-mode:normal;opacity:1;overflow:visible;shape-padding:0;shape-rendering:auto;solid-color:#000000;solid-opacity:1;stroke-dasharray:none;stroke-dashoffset:0;stroke-linecap:butt;stroke-linejoin:miter;stroke-miterlimit:4;stroke-opacity:1;stroke-width:.623622;stroke:none;vector-effect:none;visibility:visible;white-space:normal;writing-mode:lr-tb" d="m269.16481 427.77163c-1.08316.24991-.85243 1.48031.40502 2.71585 1.25733 1.23543 3.1231 2.07096 4.19689 1.82355 1.07629-.24798.91948-1.47799-.33303-2.71531-1.25208-1.23689-3.18686-2.07372-4.26888-1.82409zm.63476.61343c.74721-.17247 2.12255.40841 3.06775 1.34108.94521.93268 1.03624 1.79868.29221 1.97024-.74379.1715-2.07999-.40715-3.02779-1.33885-.94804-.93193-1.08047-1.79976-.33217-1.97247z" id="path35886-4-32"/><path style="baseline-shift:baseline;clip-rule:nonzero;color-interpolation-filters:linearRGB;color-interpolation:sRGB;color-rendering:auto;color:#000;direction:ltr;display:inline;dominant-baseline:auto;enable-background:accumulate;fill-opacity:1;fill-rule:nonzero;fill:#a0a5a6;image-rendering:auto;isolation:auto;mix-blend-mode:normal;opacity:1;overflow:visible;shape-padding:0;shape-rendering:auto;solid-color:#000000;solid-opacity:1;stroke-dasharray:none;stroke-dashoffset:0;stroke-linecap:butt;stroke-linejoin:miter;stroke-miterlimit:4;stroke-opacity:1;stroke-width:.623622;stroke:none;vector-effect:none;visibility:visible;white-space:normal;writing-mode:lr-tb" d="m258.97062 417.5352c-1.14477.23745-.99415 1.46298.27535 2.70675 1.26933 1.24359 3.22695 2.09466 4.34003 1.86056 1.11412-.23433.95208-1.46207-.29437-2.70605-1.24633-1.24388-3.17763-2.09843-4.32102-1.86126h1e-5zm.61248.61725c.78828-.16386 2.16956.42973 3.11226 1.3677.94279.93808 1.03004 1.80161.25673 1.96399-.77261.16224-2.16614-.42751-3.12114-1.36536-.95504-.93787-1.03642-1.80242-.24788-1.96633h3e-5z" id="path35888-5-03"/><path style="baseline-shift:baseline;clip-rule:nonzero;color-interpolation-filters:linearRGB;color-interpolation:sRGB;color-rendering:auto;color:#000;direction:ltr;display:inline;dominant-baseline:auto;enable-background:accumulate;fill-opacity:1;fill-rule:nonzero;fill:#a0a5a6;image-rendering:auto;isolation:auto;mix-blend-mode:normal;opacity:1;overflow:visible;shape-padding:0;shape-rendering:auto;solid-color:#000000;solid-opacity:1;stroke-dasharray:none;stroke-dashoffset:0;stroke-linecap:butt;stroke-linejoin:miter;stroke-miterlimit:4;stroke-opacity:1;stroke-width:.623622;stroke:none;vector-effect:none;visibility:visible;white-space:normal;writing-mode:lr-tb" d="m249.94126 407.06918c-1.17227.29593-1.18506 1.55862-.0552 2.79482 1.12959 1.2359 3.00961 2.03264 4.13303 1.74097 1.12316-.29159 1.07263-1.56021-.0194-2.79446-1.09208-1.23432-2.88736-2.03698-4.05844-1.74133zm.5239.61294c.80615-.20431 2.0968.35157 2.92466 1.28249.82805.93112.8331 1.824.0512 2.02623-.78102.20204-2.11574-.34837-2.96381-1.28032-.84799-.93187-.81787-1.82417-.0121-2.0284h-1e-5z" id="path35890-4-9"/><path style="baseline-shift:baseline;clip-rule:nonzero;color-interpolation-filters:linearRGB;color-interpolation:sRGB;color-rendering:auto;color:#000;direction:ltr;display:inline;dominant-baseline:auto;enable-background:accumulate;fill-opacity:1;fill-rule:nonzero;fill:#a0a5a6;image-rendering:auto;isolation:auto;mix-blend-mode:normal;opacity:1;overflow:visible;shape-padding:0;shape-rendering:auto;solid-color:#000000;solid-opacity:1;stroke-dasharray:none;stroke-dashoffset:0;stroke-linecap:butt;stroke-linejoin:miter;stroke-miterlimit:4;stroke-opacity:1;stroke-width:.623622;stroke:none;vector-effect:none;visibility:visible;white-space:normal;writing-mode:lr-tb" d="m244.39805 396.76947c-1.36211.11827-1.99499 1.27331-1.40055 2.54452.59436 1.27105 2.2102 2.23974 3.53591 2.12277 1.32447-.11685 1.84995-1.2738 1.28126-2.54453-.56869-1.2708-2.05591-2.2409-3.41662-2.12276zm.25178.63058c.93897-.0817 2.02078.5957 2.45255 1.55401.4318.95843.0265 1.76958-.89456 1.85065-.91953.0809-2.07076-.59343-2.5163-1.55201-.44547-.95852.0203-1.77102.95831-1.85265z" id="path35892-1-74"/></g><g id="g35920-9-91"><g id="g35900-4-29"><path style="fill-opacity:1;fill:none;opacity:1;stroke-dasharray:none;stroke-dashoffset:0;stroke-linecap:round;stroke-linejoin:miter;stroke-miterlimit:4;stroke-opacity:1;stroke-width:2.72126;stroke:#000;vector-effect:none" d="m291.45049 438.21503c-3.55663-1.57482-7.54233-3.26133-12.29419-5.18512-4.27887-1.7323-7.82656-3.11323-7.82656-3.11323" id="path35896-0-37"/><path style="fill-opacity:1;fill:none;opacity:1;stroke-dasharray:none;stroke-dashoffset:0;stroke-linecap:round;stroke-linejoin:miter;stroke-miterlimit:4;stroke-opacity:1;stroke-width:1.96535;stroke:#484848;vector-effect:none" d="m291.45049 438.21503c-3.55663-1.57482-7.54233-3.26133-12.29419-5.18512-4.27887-1.7323-7.82656-3.11323-7.82656-3.11323" id="path35898-8-03"/></g><g id="g35906-3-20" transform="matrix(1.025689,0,0,1,-8.7280577,-9.9687505)" style="stroke-width:.987398"><path style="fill-opacity:1;fill:none;opacity:1;stroke-dasharray:none;stroke-dashoffset:0;stroke-linecap:round;stroke-linejoin:miter;stroke-miterlimit:4;stroke-opacity:1;stroke-width:2.68697;stroke:#000;vector-effect:none" d="m284.77538 438.14357c-4.08768-1.62229-8.17493-3.20934-13.29004-5.1808-4.4848-1.72852-8.07644-3.11212-8.07644-3.11212" id="path35902-2-5"/><path style="fill-opacity:1;fill:none;opacity:1;stroke-dasharray:none;stroke-dashoffset:0;stroke-linecap:round;stroke-linejoin:miter;stroke-miterlimit:4;stroke-opacity:1;stroke-width:1.94059;stroke:#484848;vector-effect:none" d="m284.77538 438.14357c-4.08768-1.62229-8.17493-3.20934-13.29004-5.1808-4.4848-1.72852-8.07644-3.11212-8.07644-3.11212" id="path35904-2-85"/></g><g style="stroke-width:.936586" transform="matrix(1.0782795,0,0,1.0572394,-25.092964,-45.065984)" id="g35912-9-1"><path style="fill-opacity:1;fill:none;opacity:1;stroke-dasharray:none;stroke-dashoffset:0;stroke-linecap:round;stroke-linejoin:miter;stroke-miterlimit:4;stroke-opacity:1;stroke-width:2.54869;stroke:#000;vector-effect:none" d="m277.99689 438.04915c-3.77124-1.45192-8.77647-3.37805-13.36008-5.18037-4.40266-1.73117-7.80127-3.1145-7.80127-3.1145" id="path35908-4-35"/><path style="fill-opacity:1;fill:none;opacity:1;stroke-dasharray:none;stroke-dashoffset:0;stroke-linecap:round;stroke-linejoin:miter;stroke-miterlimit:4;stroke-opacity:1;stroke-width:1.84072;stroke:#484848;vector-effect:none" d="m277.99689 438.04915c-3.77124-1.45192-8.77647-3.37805-13.36008-5.18037-4.40266-1.73117-7.80127-3.1145-7.80127-3.1145" id="path35910-0-9"/></g><g id="g35918-5-7" transform="matrix(1.106252,0,0,0.97422031,-33.926354,-19.43417)" style="stroke-width:.963262"><path style="fill-opacity:1;fill:none;opacity:1;stroke-dasharray:none;stroke-dashoffset:0;stroke-linecap:round;stroke-linejoin:miter;stroke-miterlimit:4;stroke-opacity:1;stroke-width:2.62129;stroke:#000;vector-effect:none" d="m271.99786 437.87533c-3.71832-1.51944-8.00209-3.29893-12.32044-5.17054-3.98707-1.72802-7.00731-3.11213-7.00731-3.11213" id="path35914-1-9"/><path style="fill-opacity:1;fill:none;opacity:1;stroke-dasharray:none;stroke-dashoffset:0;stroke-linecap:round;stroke-linejoin:miter;stroke-miterlimit:4;stroke-opacity:1;stroke-width:1.89315;stroke:#484848;vector-effect:none" d="m271.99786 437.87533c-3.71832-1.51944-8.00209-3.29893-12.32044-5.17054-3.98707-1.72802-7.00731-3.11213-7.00731-3.11213" id="path35916-1-17"/></g></g><g id="g35938-5-20" style="display:inline;stroke-width:1.11601"><path style="fill-opacity:1;fill:none;opacity:1;stroke-dasharray:none;stroke-dashoffset:0;stroke-linecap:round;stroke-linejoin:miter;stroke-miterlimit:4;stroke-opacity:1;stroke-width:3.03696;stroke:#000;vector-effect:none" d="m280.5562 439.73114c.78495-2.18833 1.38365-4.48062 1.98562-7.16725.53661-2.39496.93768-4.32732.93768-4.32732" id="path35922-9-9"/><path style="fill-opacity:1;fill:none;opacity:1;stroke-dasharray:none;stroke-dashoffset:0;stroke-linecap:round;stroke-linejoin:miter;stroke-miterlimit:4;stroke-opacity:1;stroke-width:2.19336;stroke:#484848;vector-effect:none" d="m280.5562 439.73114c.78495-2.18833 1.38365-4.48062 1.98562-7.16725.53661-2.39496.93768-4.32732.93768-4.32732" id="path35924-8-12"/><path style="fill-opacity:1;fill:none;opacity:1;stroke-dasharray:none;stroke-dashoffset:0;stroke-linecap:round;stroke-linejoin:miter;stroke-miterlimit:4;stroke-opacity:1;stroke-width:3.03696;stroke:#000;vector-effect:none" d="m271.53297 429.91659c.4649-2.08963 1.03115-4.83723 1.72393-7.44625.66114-2.48991 1.37674-4.49738 1.37674-4.49738" id="path35926-1-78"/><path style="fill-opacity:1;fill:none;opacity:1;stroke-dasharray:none;stroke-dashoffset:0;stroke-linecap:round;stroke-linejoin:miter;stroke-miterlimit:4;stroke-opacity:1;stroke-width:2.19336;stroke:#484848;vector-effect:none" d="m271.53297 429.91659c.4649-2.08963 1.03115-4.83723 1.72393-7.44625.66114-2.48991 1.37674-4.49738 1.37674-4.49738" id="path35928-9-6"/><path style="fill-opacity:1;fill:none;opacity:1;stroke-dasharray:none;stroke-dashoffset:0;stroke-linecap:round;stroke-linejoin:miter;stroke-miterlimit:4;stroke-opacity:1;stroke-width:3.03696;stroke:#000;vector-effect:none" d="m261.36582 419.69304c.69877-2.33017 1.6281-4.9925 3.05548-7.87186 1.30539-2.63331 2.72852-4.75293 2.72852-4.75293" id="path35930-9-96"/><path style="fill-opacity:1;fill:none;opacity:1;stroke-dasharray:none;stroke-dashoffset:0;stroke-linecap:round;stroke-linejoin:miter;stroke-miterlimit:4;stroke-opacity:1;stroke-width:2.19336;stroke:#484848;vector-effect:none" d="m261.36582 419.69304c.69877-2.33017 1.6281-4.9925 3.05548-7.87186 1.30539-2.63331 2.72852-4.75293 2.72852-4.75293" id="path35932-6-6"/><path style="fill-opacity:1;fill:none;opacity:1;stroke-dasharray:none;stroke-dashoffset:0;stroke-linecap:round;stroke-linejoin:miter;stroke-miterlimit:4;stroke-opacity:1;stroke-width:3.03696;stroke:#000;vector-effect:none" d="m252.01063 409.30628c1.39891-2.32272 3.22002-4.91563 5.7761-7.77778 2.32464-2.603 4.63212-4.68937 4.63212-4.68937" id="path35934-5-66"/><path style="fill-opacity:1;fill:none;opacity:1;stroke-dasharray:none;stroke-dashoffset:0;stroke-linecap:round;stroke-linejoin:miter;stroke-miterlimit:4;stroke-opacity:1;stroke-width:2.19336;stroke:#484848;vector-effect:none" d="m252.01063 409.30628c1.39891-2.32272 3.22002-4.91563 5.7761-7.77778 2.32464-2.603 4.63212-4.68937 4.63212-4.68937" id="path35936-2-6"/></g></g><g id="g35948-8-8" style="filter:url(#filter11746-2-10-4)" clip-path="url(#clipPath11748-6-9-5)" transform="translate(-4.6326002e-6)"><path style="display:inline;fill-opacity:.294258;fill:#373e40;opacity:1;stroke-dasharray:none;stroke-dashoffset:0;stroke-linecap:butt;stroke-linejoin:miter;stroke-miterlimit:4;stroke-opacity:1;stroke-width:.453543;stroke:none;vector-effect:none" d="m323.71836 377.81289c13.43051-3.79281 20.12395-2.97775 22.89158.42289 2.78726 3.42474 1.56808 9.43036-1.31492 16.25481-2.64301 6.25632-7.52823 14.92951-11.22715 20.74315-4.04264 6.35387-8.03241 11.50297-12.64852 13.44907-6.03744 2.5015-14.56267 1.63528-25.36206-3.87119-5.21565-2.65941-11.6171-6.77834-17.19194-11.94935-5.60771-5.2015-10.92233-11.9559-12.26562-20.02746 5.48449-1.25435 17.38848-3.88154 27.13895-6.25386 10.70018-2.60338 21.86429-5.59928 29.97968-8.76806z" id="path35942-7-3"/><path style="display:inline;fill-opacity:.294258;fill:#373e40;opacity:1;stroke-dasharray:none;stroke-dashoffset:0;stroke-linecap:butt;stroke-linejoin:miter;stroke-miterlimit:4;stroke-opacity:1;stroke-width:.453543;stroke:none;vector-effect:none" d="m319.96262 382.73336c10.7527-3.07503 16.34215-2.41633 18.67865.30237 2.35199 2.73675 1.48334 7.58441-.68814 13.04739-2.04592 5.14712-5.70634 11.83617-8.80998 16.61819-3.29654 5.07923-6.70372 9.22038-10.55798 10.77648-5.02982 1.99592-12.29696 1.33664-20.95873-3.08806-4.22498-2.15825-9.0845-5.40321-13.3257-9.574-4.23552-4.16521-8.18143-9.57719-9.50165-16.03455 4.83803-1.09841 13.5089-3.00958 21.56004-5.00284 8.39624-2.07871 17.1847-4.49473 23.60349-7.04498z" id="path35944-9-63"/><path style="display:inline;fill-opacity:.294258;fill:#373e40;opacity:1;stroke-dasharray:none;stroke-dashoffset:0;stroke-linecap:butt;stroke-linejoin:miter;stroke-miterlimit:4;stroke-opacity:1;stroke-width:.453543;stroke:none;vector-effect:none" d="m314.48335 382.40013c8.66716-2.47083 13.21813-1.95628 15.08847.215 1.87993 2.18244 1.12086 6.06721-.75558 10.43517-1.80122 4.19288-4.91138 9.39476-7.75271 13.29853-2.95807 4.06418-6.07112 7.39055-9.43582 8.64054-4.37311 1.59753-10.67086 1.09695-17.5369-2.45296-3.36962-1.74218-6.99182-4.31061-9.9996-7.66538-3.00576-3.35253-5.53698-7.64941-6.19106-12.83009 8.16476-1.79773 26.48707-5.65092 36.5832-9.64081z" id="path35946-4-49"/></g><g id="g35970-6-0" transform="translate(-4.6326002e-6)"><path style="display:inline;fill-opacity:.821306;fill:none;opacity:1;stroke-dasharray:none;stroke-dashoffset:0;stroke-linecap:butt;stroke-linejoin:miter;stroke-miterlimit:4;stroke-opacity:.986965;stroke-width:.755906;stroke:#000;vector-effect:none" d="m370.76538 370.16447c-11.72137 8.88381-27.14706 16.51692-43.81517 22.96091-16.366 6.3272-33.73483 11.42473-49.78199 14.60337" id="path35950-2-32"/><path style="display:inline;fill-opacity:.821306;fill:none;opacity:1;stroke-dasharray:none;stroke-dashoffset:0;stroke-linecap:butt;stroke-linejoin:miter;stroke-miterlimit:4;stroke-opacity:1;stroke-width:.755906;stroke:#000;vector-effect:none" d="m363.98606 357.55215c-12.85564 9.85251-31.14972 17.9646-52.00408 24.52396-20.45784 6.43464-42.29571 11.0067-61.77828 13.05104-20.04117 2.10297-31.29829-.38435-38.30535-3.70395-6.7924-3.21791-9.73287-7.44997-10.43898-8.37456" id="path35952-0-3"/><path style="display:inline;fill-opacity:.821306;fill:none;opacity:1;stroke-dasharray:none;stroke-dashoffset:0;stroke-linecap:butt;stroke-linejoin:miter;stroke-miterlimit:4;stroke-opacity:1;stroke-width:.755906;stroke:#000;vector-effect:none" d="m246.07054 410.99173c-14.89891.71071-25.14082-2.04364-31.80074-5.21763-6.55323-3.12314-9.90489-6.82436-11.08556-7.76357" id="path35954-9-9"/><path style="fill-opacity:1;fill:none;opacity:1;stroke-dasharray:none;stroke-dashoffset:0;stroke-linecap:butt;stroke-linejoin:miter;stroke-miterlimit:4;stroke-opacity:1;stroke-width:.755906;stroke:#060000;vector-effect:none" d="m371.4649 371.67949c-6.65027 5.20791-16.73553 10.69725-27.08881 15.62562-9.96162 4.74192-19.21304 8.53916-22.711 9.25024.17431.5006.32767.9235.37032 1.03798 1.48335 3.98111 3.30648 8.63841 10.99634 22.59973 6.6226 12.02365 14.80836 26.14369 12.02844 39.22385" id="path35956-7-36"/><path style="fill-opacity:1;fill:none;opacity:1;stroke-dasharray:none;stroke-dashoffset:0;stroke-linecap:butt;stroke-linejoin:miter;stroke-miterlimit:4;stroke-opacity:1;stroke-width:.755906;stroke:#040000;vector-effect:none" d="m203.42932 399.45945c1.44199 1.43408 3.67625 3.13981 6.09674 4.71085 2.3623 1.53327 4.64023 2.76296 5.42982 3.07093 1.50111 3.54527 5.24678 10.41239 10.85595 20.23497 5.40266 9.46093 11.51495 20.89282 7.5463 31.98139" id="path35958-1-5"/><path style="fill-opacity:1;fill:none;opacity:1;stroke-dasharray:none;stroke-dashoffset:0;stroke-linecap:butt;stroke-linejoin:miter;stroke-miterlimit:4;stroke-opacity:1;stroke-width:.755906;stroke:#060000;vector-effect:none" d="m327.33094 409.45042c9.43344-.82307 24.06193-1.39999 36.60511-2.3497 12.67154-.95942 22.83696-2.26293 26.56434-4.8702" id="path35960-5-0"/><path style="fill-opacity:1;fill:none;opacity:1;stroke-dasharray:none;stroke-dashoffset:0;stroke-linecap:butt;stroke-linejoin:miter;stroke-miterlimit:4;stroke-opacity:1;stroke-width:.755906;stroke:#000;vector-effect:none" d="m220.3201 418.08422c-3.01325 1.34966-6.42493 2.01664-9.90197 2.33184" id="path35962-7-61"/><path style="fill-opacity:1;fill:none;opacity:1;stroke-dasharray:none;stroke-dashoffset:0;stroke-linecap:butt;stroke-linejoin:miter;stroke-miterlimit:4;stroke-opacity:1;stroke-width:.755906;stroke:#000;vector-effect:none" d="m290.08078 445.51485c2.42373 4.19882 3.66452 9.05155 2.55994 13.92224" id="path35964-8-80"/><path style="fill-opacity:1;fill:none;opacity:1;stroke-dasharray:none;stroke-dashoffset:0;stroke-linecap:butt;stroke-linejoin:miter;stroke-miterlimit:4;stroke-opacity:1;stroke-width:.755906;stroke:#000;vector-effect:none" d="m221.13257 419.47291c-3.08631 1.36499-6.61324 2.03173-10.21892 2.34251" id="path35966-4-29"/><path style="fill-opacity:1;fill:none;opacity:1;stroke-dasharray:none;stroke-dashoffset:0;stroke-linecap:butt;stroke-linejoin:miter;stroke-miterlimit:4;stroke-opacity:1;stroke-width:.755906;stroke:#060000;vector-effect:none" d="m327.98576 410.8088c9.49917-.83609 24.32976-1.41782 36.93082-2.39979 12.72823-.99188 22.81673-2.35503 26.16047-5.10012" id="path35968-3-5"/></g></svg>