<svg viewBox="0 0 560 1e3"><defs><radialGradient xlink:href="#linearGradient20577" id="radialGradient20579" cx="357.7821" cy="559.23431" fx="357.7821" fy="559.23431" r="25.938064" gradientTransform="matrix(1.3713002,-0.21586265,0.76990695,4.8909514,-565.47982,-2111.7669)" gradientUnits="userSpaceOnUse"/><radialGradient xlink:href="#linearGradient24585" id="radialGradient24587" cx="281.03125" cy="402.75" fx="281.03125" fy="402.75" r="2.78125" gradientUnits="userSpaceOnUse"/><radialGradient xlink:href="#linearGradient20577" id="radialGradient24640" gradientUnits="userSpaceOnUse" gradientTransform="matrix(1.3863858,0.07067677,-0.2520796,4.9447566,-124.12305,-2244.6097)" cx="352.95432" cy="560.73334" fx="352.95432" fy="560.73334" r="25.938064"/><clipPath clipPathUnits="userSpaceOnUse" id="clipPath51477"><path id="path51479" d="M162.00002 459.15622H459.00005V879.15625H162.00002z" style="display:inline;fill-opacity:.22486291;fill:#010101;opacity:1;stroke-dasharray:none;stroke-linejoin:miter;stroke-miterlimit:4;stroke-opacity:1;stroke-width:.24566929;stroke:#ff01ff"/></clipPath><linearGradient id="linearGradient24585"><stop style="stop-color:#787878;stop-opacity:0" offset="0" id="stop24581"/><stop style="stop-color:#b4b4b4;stop-opacity:.71157163" offset="1" id="stop24583"/></linearGradient><linearGradient id="linearGradient20577"><stop style="stop-color:#ffffff;stop-opacity:.33333334" offset="0" id="stop20573"/><stop style="stop-color:#ffffff;stop-opacity:0" offset="1" id="stop20575"/></linearGradient></defs><g id="g88747" clip-path="url(#clipPath51477)"><path id="path28950-4" d="m363.83008 356.99414c-21.7501 20.1546-51.47119 33.32726-84.47656 36.98829-5.66053.5103-13.11062.91292-20.45586.0221-10.17033-1.23348-20.19957-4.97135-25.30782-12.17834-3.11078 18.46876-7.44244 35.79424-11.52734 53.91406-3.66767 16.26905-4.66568 32.05167-5.35547 46.30469-2.82534 58.37994 12.20211 136.24293 12.41797 157.39649.0219 2.15754.97553 7.10028 1.07812 10.92187.0556 2.07266.30285 1.02262.20508 4.14649-.0458 1.4645-1.31207.5358-1.37109 1.70703-.0378.74897 1.05247 1.00383 1.13281 1.77539.43796 4.20604-.0928 5.70501-.69922 6.3125-.29261.29329-1.00989.47842-1.03515.92187-.0261.45717 1.37516 1.44557 1.34765 1.91211-.007.1108-.0894.20368-.21093.28906.19613-.12606.35669-.25557.36523-.40039.0275-.46654-1.38352-1.39829-1.35742-1.85546.0253-.44346.6527-.51726.94531-.81055.60651-.60749 1.22312-2.25685.78516-6.46289-.0803-.77156-1.16422-1.02613-1.13282-1.77539.0436-1.04802 1.21974-.1249 1.26954-1.6211.10394-3.12367-.0772-2.17734-.13282-4.25-.10259-3.82159-1.01325-8.71941-1.03515-10.87695-.21586-21.15356-15.28823-98.95014-12.46289-157.33008.68979-14.25302 1.66436-30.02782 5.33203-46.29687 4.0849-18.11982 8.41265-35.11913 11.52344-53.58789 1.60424 1.96032 11.78374 15.69167 45.68164 11.93164 33.00537-3.66103 62.70302-16.654 84.45312-36.8086 5.99656 9.38092 8.65792 17.74853 13.80664 25.67969 10.97453 16.90529 21.72178 31.90735 24.4336 54.38086 1.69832 14.07413-4.65538 47.09659-4.32813 50.15625 3.59528 33.61487 5.17206 64.18067 5.69336 78.47266.97073 19.6185-6.02392 45.90842-1.74023 75.69726.97757 4.98913 1.37694 4.82794 1.78906 6.15625.51232 1.65124-2.16774 2.72894-1.96289 4.38672.10013.81019 1.70748.53989 2.75586.76953-.97546-.22119-2.1684-.24932-2.25586-.95703-.20485-1.65778 2.31896-2.45423 1.80664-4.10547-.41212-1.32831-.82517-1.08899-1.80274-6.07812-4.28368-29.78884 2.7637-52.18619 1.79297-71.80469-.64093-14.45849-1.68742-49.41672-5.70703-83.04297-.20927-1.75066 6.45224-35.66415 4.75391-49.73828-2.71181-22.47351-13.87899-37.57518-24.85352-54.48047-5.14872-7.93116-8.16164-16.40033-14.1582-25.78125zM305.4375 483.09375c-1.00938 4.51755-1.3569 4.62993-1.08789 8.02148C306.97856 524.26011 298.59654 573.75486 294 606c-2.67077 18.73565-3.03061 39.85981-2.04883 58.85742.55953 10.82706 2.59482 20.41039 3.09375 29.8086.38227 7.20065-.007 21.71289-.91992 25.83398-8.34564 37.66114-49.3125 133.3125-49.3125 133.3125-10.16667.12391-20.33333.60485-30.5-.9375 4.67157-49.6769 9.44016-100.73753 12.42578-152.96289.62395-10.91448 2.52195-16.80292 3.39063-29.3457.0372-.5376-1.64137-1.78961-1.60547-2.31836.0207-.30426.61694-.54643 1.02929-.80664-.37639.25404-1.08444.43542-1.10742.77343-.0359.52875 1.54504 2.03662 1.50781 2.57422-.86868 12.54278-3.03229 18.25154-3.65624 29.16602-2.98563 52.22536-7.57844 103.70786-12.25 153.38476 10.16667 1.54235 20.88606.83876 31.05273.71485.0.0 41.44342-95.1123 49.78906-132.77344.91322-4.12109 1.30415-18.63529.92188-25.83594-.49893-9.39821-2.53422-18.97958-3.09375-29.80664-.98178-18.99761-.49499-40.15302 2.17578-58.88867 4.59654-32.24514 11.56003-83.82804 9.77148-114.86133-.19537-3.38987-.20472-3.62893.80469-8.14648.089.51224.15032.9108.21484 1.32226-.0456-.33722-.0679-.44568-.24609-1.9707zm.56641 5.80078c-.0396.41303-.0929.74468-.0254 1.49414 2.6991 29.97177 6.75453 63.16635 14.7832 93.27344 5.70686 21.4004 17.29616 40.50726 22.87695 62.13281.0.0 13.88058 34.78153 30.39258 115.58008 7.91604 38.73574 5.43555 95.46484 5.43555 95.46484 8.42683.91961 17.2071.40755 25.30078-.42187.0.0 21.6347-91.16588 19.51367-142.04297-.3947-9.46802-3.47969-28.00562-16.33594-50.29883-1.39685-2.42219-3.30936-3.60991-3.57226-6.71094-.10848-1.28005 1.39634-2.77635 1.10547-3.61718-.13134-.37968-.52908-.56837-1-.69922.29486.0981.53272.24496.625.51172.29087.84083-1.21395 2.33713-1.10547 3.61718.2629 3.10103 2.37333 4.72767 3.76757 7.17969 12.35881 21.735 15.39924 40.67751 15.85938 50.14258.50661 10.42101-.0364 27.73302-2.64258 46.61523-5.34036 38.6915-16.19993 91.24612-16.51172 95.09961-8.09368.82942-16.32707.91961-24.7539.0.0.0 2.69924-56.7291-5.2168-95.46484-16.512-80.79855-30.89258-115.38867-30.89258-115.38867-5.58079-21.62555-16.14079-40.21679-21.84765-61.61719-8.02867-30.10709-13.46667-63.24634-15.6875-93.92578-.0496-.68539-.0358-.46473-.0684-.92383z" class="shadow"/><path id="path24849" d="m233.6723 382.15919c-3.11078 18.46876-7.43945 35.46992-11.52435 53.58974-3.66767 16.26905-4.64154 32.0423-5.33133 46.29532-2.82534 58.37994 12.2469 136.17774 12.46276 157.3313.0219 2.15754.93153 7.05468 1.03412 10.87627.0556 2.07266.23694 1.12649.133 4.25016-.0498 1.4962-1.22545.57237-1.26907 1.62039-.0314.74926 1.05239 1.00539 1.13273 1.77695.43796 4.20604-.17843 5.85365-.78494 6.46114-.29261.29329-.92051.36775-.94577.8112-.0261.45717 1.38643 1.38973 1.35892 1.85627-.0265.44924-1.3839.76366-1.41491 1.21981-.0359.52875 1.64351 1.78178 1.60628 2.31938-.86868 12.54278-2.76722 18.42985-3.39117 29.34433-2.98562 52.22536-7.75451 103.28667-12.42608 152.96357 10.16667 1.54235 20.33333 1.06138 30.5.93747.0.0 40.96687-95.65136 49.31251-133.3125.91322-4.12109 1.30286-18.63341.92059-25.83406-.49893-9.39821-2.53395-18.98048-3.09348-29.80754-.98178-18.99761-.62287-40.12275 2.0479-58.8584 4.59654-32.24514 12.97876-81.73905 10.34981-114.88393-.26901-3.39155.0783-3.50479 1.08768-8.02234.50005 4.28039.2099.85154.6351 6.72544 2.22083 30.67944 7.65856 63.81759 15.68723 93.92468 5.70686 21.4004 16.26718 39.9918 21.84797 61.61735.0.0 14.38021 34.59027 30.89221 115.38882 7.91604 38.73574 5.21635 95.46426 5.21635 95.46426 8.42683.91961 16.66132.82942 24.755.0.31179-3.85349 11.17108-56.40821 16.51144-95.09971 2.60619-18.88221 3.14883-36.19354 2.64222-46.61455-.46014-9.46507-3.50154-28.40673-15.86035-50.14173-1.39425-2.45202-3.50303-4.07991-3.76593-7.18094-.10848-1.28005 1.39517-2.77538 1.1043-3.61621-.41212-1.19138-3.467-.22564-3.60586-1.34918-.20485-1.65778 2.47616-2.73532 1.96384-4.38656-.41212-1.32831-.81226-1.16563-1.78983-6.15476-4.28368-29.78884 2.7116-56.08031 1.74087-75.69881-.5213-14.29199-2.09799-44.85697-5.69327-78.47184-.32725-3.05966 6.02641-36.08211 4.32808-50.15624-2.71181-22.47351-13.4586-37.47502-24.43313-54.38031-5.14872-7.93116-7.81073-16.2984-13.80729-25.67932-21.7501 20.1546-51.4475 33.14592-84.45287 36.80695-33.8979 3.76003-44.07705-9.97155-45.6813-11.93187z" class="bottoms_primary"/><path id="path24857" d="m364.63703 358.47352c-21.92593 20.31863-51.86341 33.41569-85.13561 37.10652-34.17194 3.79063-44.43338-10.05271-46.05059-12.02898" style="display:inline;fill-opacity:.821306;fill:none;opacity:1;stroke-dasharray:none;stroke-dashoffset:0;stroke-linecap:butt;stroke-linejoin:miter;stroke-miterlimit:4;stroke-opacity:.496564;stroke-width:.453543;stroke:#000;vector-effect:none"/><path style="display:inline;fill-opacity:.821306;fill:none;opacity:1;stroke-dasharray:none;stroke-dashoffset:0;stroke-linecap:butt;stroke-linejoin:miter;stroke-miterlimit:4;stroke-opacity:.588235;stroke-width:.453543;stroke:#fff;vector-effect:none" d="m285.87478 393.49506c-2.02797.29912-4.06976.56288-6.12426.79079-34.17194 3.79063-44.39186-9.73441-46.00907-11.71068" id="path24861"/><path style="display:inline;fill-opacity:.821306;fill:none;opacity:1;stroke-dasharray:none;stroke-dashoffset:0;stroke-linecap:butt;stroke-linejoin:miter;stroke-miterlimit:4;stroke-opacity:.588235;stroke-width:.453543;stroke:#fff;vector-effect:none" d="m363.91288 357.55365c-20.06145 18.59082-46.9277 30.94033-76.82073 35.76654-4.32471.92307-8.02144 1.56858-12.21471 2.19437.6532 5.24839 1.64992 10.70288 3.04113 16.39408 36.95218-4.26562 68.72772-16.74246 93.57734-40.20523" id="path24863"/><path style="display:inline;fill-opacity:.821306;fill:none;opacity:1;stroke-dasharray:none;stroke-dashoffset:0;stroke-linecap:butt;stroke-linejoin:miter;stroke-miterlimit:4;stroke-opacity:.496564;stroke-width:.453543;stroke:#000;vector-effect:none" d="m371.22641 371.171c-23.50841 21.79504-55.60639 35.84572-91.28022 39.80277-.31005.0344-1.26177.15741-1.56813.18916-.25663-.47456-2.81344-14.86778-2.77713-15.25483" id="path24865"/><path id="path24867" d="m277.53672 411.32113c-34.17194 3.79063-45.45056-10.47481-47.06777-12.45108" style="display:inline;fill-opacity:.821306;fill:none;opacity:1;stroke-dasharray:none;stroke-dashoffset:0;stroke-linecap:butt;stroke-linejoin:miter;stroke-miterlimit:4;stroke-opacity:.588235;stroke-width:.453543;stroke:#fff;vector-effect:none"/><path id="path24869" d="m277.30288 410.48247c-34.16257 4.01555-43.79887-10.1166-46.53523-12.21601" style="display:inline;fill-opacity:.821306;fill:none;opacity:1;stroke-dasharray:none;stroke-dashoffset:0;stroke-linecap:butt;stroke-linejoin:miter;stroke-miterlimit:4;stroke-opacity:.496564;stroke-width:.453543;stroke:#000;vector-effect:none"/><path style="fill-opacity:.441581;fill:#000;opacity:1;stroke-dasharray:none;stroke-dashoffset:0;stroke-linecap:butt;stroke-linejoin:miter;stroke-miterlimit:4;stroke-opacity:1;stroke-width:.453543;stroke:none;vector-effect:none" d="m281.09375 402.0625h7l-6.90625 1.5z" id="path24871"/><circle style="fill-opacity:1;fill:#787878;opacity:1;stroke-dasharray:none;stroke-linejoin:miter;stroke-miterlimit:4;stroke-opacity:1;stroke-width:.453543;stroke:none" id="circle24873" cx="281.03125" cy="402.75" r="2.78125"/><circle r="2.78125" cy="402.75" cx="281.03125" id="circle24875" style="fill-opacity:1;fill:url(#radialGradient24587);opacity:1;stroke-dasharray:none;stroke-linejoin:miter;stroke-miterlimit:4;stroke-opacity:1;stroke-width:.453543;stroke:none"/><path style="fill-opacity:1;fill:none;opacity:1;stroke-dasharray:none;stroke-dashoffset:0;stroke-linecap:butt;stroke-linejoin:miter;stroke-miterlimit:4;stroke-opacity:.498039;stroke-width:.453543;stroke:#000;vector-effect:none" d="m277.59465 412.02966c3.60269 22.31973 2.96011 49.8054 19.53035 56.34534-29.15321 84.22213-26.61275 138.6417-29.65338 199.45255-5.52385 72.5286-19.61184 130.27014-35.40625 184.125" id="path24889"/><path style="fill-opacity:1;fill:none;opacity:1;stroke-dasharray:none;stroke-dashoffset:0;stroke-linecap:butt;stroke-linejoin:miter;stroke-miterlimit:4;stroke-opacity:.498039;stroke-width:.453543;stroke:#000;vector-effect:none" d="m297.31631 468.45458c2.27607.89523 5.95225 1.88498 6.91638 3.42504 1.69224 2.7031 2.62601 16.30243 3.89231 24.43288" id="path24891"/><path id="path24893" d="m278.16917 412.09596c3.89044 22.16828 3.72698 48.08942 18.559 55.54421-29.15321 84.22213-27.74062 141.56415-30.78125 202.375-5.52385 72.5286-18.739 128.08616-34.53341 181.94102" style="fill-opacity:1;fill:none;opacity:1;stroke-dasharray:none;stroke-dashoffset:0;stroke-linecap:butt;stroke-linejoin:miter;stroke-miterlimit:4;stroke-opacity:.588235;stroke-width:.453543;stroke:#fff;vector-effect:none"/><path style="fill-opacity:1;fill:none;opacity:1;stroke-dasharray:none;stroke-dashoffset:0;stroke-linecap:butt;stroke-linejoin:miter;stroke-miterlimit:4;stroke-opacity:.588235;stroke-width:.453543;stroke:#fff;vector-effect:none" d="m296.9517 467.75299c3.34755.66509 6.24889 1.69767 7.69333 3.74115 1.66613 2.35711 2.79425 17.50103 3.8745 26.54843" id="path24895"/><path style="fill-opacity:1;fill:none;opacity:1;stroke-dasharray:none;stroke-dashoffset:0;stroke-linecap:butt;stroke-linejoin:miter;stroke-miterlimit:4;stroke-opacity:.588235;stroke-width:.453543;stroke:#fff;vector-effect:none" d="m287.17187 410.89063c1.14247 15.2394 8.88028 41.10535-.57265 44.2836" id="path24897"/><path id="path24899" d="m288.09443 410.747c.83596 11.15084 4.95102 28.03352 3.78746 37.58792-.4295 3.52681-2.32719 6.84821-4.91807 7.679" style="fill-opacity:1;fill:none;opacity:1;stroke-dasharray:none;stroke-dashoffset:0;stroke-linecap:butt;stroke-linejoin:miter;stroke-miterlimit:4;stroke-opacity:.588235;stroke-width:.453543;stroke:#fff;vector-effect:none"/><path style="fill-opacity:1;fill:none;opacity:1;stroke-dasharray:none;stroke-dashoffset:0;stroke-linecap:butt;stroke-linejoin:miter;stroke-miterlimit:4;stroke-opacity:.498039;stroke-width:.453543;stroke:#000;vector-effect:none" d="m367.75 375.59375c23.66955 48.27234 27.00362 81.59212 28.375 113.46875" id="path24901"/><path id="path24903" d="m368.14844 375.09375c23.20242 48.3954 26.39661 76.92342 28.35156 108.6875" style="fill-opacity:1;fill:none;opacity:1;stroke-dasharray:none;stroke-dashoffset:0;stroke-linecap:butt;stroke-linejoin:miter;stroke-miterlimit:4;stroke-opacity:.588235;stroke-width:.453543;stroke:#fff;vector-effect:none"/><path style="fill-opacity:1;fill:none;opacity:1;stroke-dasharray:none;stroke-dashoffset:0;stroke-linecap:butt;stroke-linejoin:miter;stroke-miterlimit:4;stroke-opacity:.498039;stroke-width:.453543;stroke:#000;vector-effect:none" d="m380.48082 405.77027c-22.4408 8.68871-46.51887 22.05476-52.06364-5.80529 15.91818-6.68852 28.20458-14.30518 39.16786-24.05301" id="path24905"/><path id="path24913" d="m380.69176 406.31714c-22.45946 8.93126-47.45377 22.23192-52.93864-6.40685" style="fill-opacity:1;fill:none;opacity:1;stroke-dasharray:none;stroke-dashoffset:0;stroke-linecap:butt;stroke-linejoin:miter;stroke-miterlimit:4;stroke-opacity:.588235;stroke-width:.453543;stroke:#fff;vector-effect:none"/><path style="fill-opacity:1;fill:none;opacity:1;stroke-dasharray:none;stroke-dashoffset:0;stroke-linecap:butt;stroke-linejoin:miter;stroke-miterlimit:4;stroke-opacity:.588235;stroke-width:.453543;stroke:#fff;vector-effect:none" d="m381.03155 407.23476c-22.38583 9.27488-48.53164 22.44284-54.18468-6.98072" id="path24915"/><path style="fill-opacity:1;fill:none;opacity:1;stroke-dasharray:none;stroke-dashoffset:0;stroke-linecap:butt;stroke-linejoin:miter;stroke-miterlimit:4;stroke-opacity:.498039;stroke-width:.453543;stroke:#000;vector-effect:none" d="m243.30936 408.19064c-2.73764 9.51142-5.35161 21.93068-18.29373 15.19998" id="path24917"/><path id="path24919" d="m244.01248 408.47189c-2.59575 9.63912-5.94457 22.54546-19.1531 15.57498" style="fill-opacity:1;fill:none;opacity:1;stroke-dasharray:none;stroke-dashoffset:0;stroke-linecap:butt;stroke-linejoin:miter;stroke-miterlimit:4;stroke-opacity:.588235;stroke-width:.453543;stroke:#fff;vector-effect:none"/><path style="fill-opacity:1;fill:none;opacity:1;stroke-dasharray:none;stroke-dashoffset:0;stroke-linecap:butt;stroke-linejoin:miter;stroke-miterlimit:4;stroke-opacity:.588235;stroke-width:.453543;stroke:#fff;vector-effect:none" d="m244.9031 408.78439c-2.30923 9.73463-6.59879 23.30655-20.26247 16.18435" id="path24921"/><path style="fill-opacity:1;fill:none;opacity:1;stroke-dasharray:none;stroke-dashoffset:0;stroke-linecap:butt;stroke-linejoin:miter;stroke-miterlimit:4;stroke-opacity:.498039;stroke-width:.453543;stroke:#000;vector-effect:none" d="m232.09675 425.04485c1.25671-4.06896 2.7171-7.83444 4.56305-12.07606-3.92608-.72293-6.24559-2.48778-8.05873-4.9715" id="path24925"/><path id="path24927" d="m231.35649 425.06142c1.25671-4.06896 2.61767-7.45326 4.46362-11.69488-3.48189-.76014-5.02399-1.93863-7.32436-4.54963" style="fill-opacity:1;fill:none;opacity:1;stroke-dasharray:none;stroke-dashoffset:0;stroke-linecap:butt;stroke-linejoin:miter;stroke-miterlimit:4;stroke-opacity:.588235;stroke-width:.453543;stroke:#fff;vector-effect:none"/><path style="fill-opacity:1;fill:none;opacity:1;stroke-dasharray:none;stroke-dashoffset:0;stroke-linecap:butt;stroke-linejoin:miter;stroke-miterlimit:4;stroke-opacity:.588235;stroke-width:.453543;stroke:#fff;vector-effect:none" d="m235.18926 414.3094c-3.48189-.76014-4.74778-1.7729-7.04815-4.3839" id="path24929"/><g id="g24935"><path id="path24931" d="m265.40004 650.89737c-10.58213 2.30863-21.45752 5.6001-35.26723 4.50888-.41742.12836-.91798.1815-.91801.6875 13.86717 1.09576 25.5818-2.76919 36.19446-5.08448z" style="baseline-shift:baseline;clip-rule:nonzero;color-interpolation-filters:linearRGB;color-interpolation:sRGB;color-rendering:auto;color:#000;direction:ltr;display:inline;dominant-baseline:auto;enable-background:accumulate;fill-opacity:.392157;fill-rule:nonzero;fill:#fff;image-rendering:auto;isolation:auto;mix-blend-mode:normal;opacity:1;overflow:visible;shape-padding:0;shape-rendering:auto;solid-color:#000000;solid-opacity:1;stroke-dasharray:none;stroke-dashoffset:0;stroke-linecap:butt;stroke-linejoin:miter;stroke-miterlimit:4;stroke-opacity:1;stroke-width:.453543;stroke:none;vector-effect:none;visibility:visible;white-space:normal;writing-mode:lr-tb"/><path style="baseline-shift:baseline;clip-rule:nonzero;color-interpolation-filters:linearRGB;color-interpolation:sRGB;color-rendering:auto;color:#000;direction:ltr;display:inline;dominant-baseline:auto;enable-background:accumulate;fill-opacity:.392157;fill-rule:nonzero;fill:#000;image-rendering:auto;isolation:auto;mix-blend-mode:normal;opacity:1;overflow:visible;shape-padding:0;shape-rendering:auto;solid-color:#000000;solid-opacity:1;stroke-dasharray:none;stroke-dashoffset:0;stroke-linecap:butt;stroke-linejoin:miter;stroke-miterlimit:4;stroke-opacity:1;stroke-width:.453543;stroke:none;vector-effect:none;visibility:visible;white-space:normal;writing-mode:lr-tb" d="m265.40004 651.03018c-10.58213 2.30863-22.37158 6.1626-36.18129 5.07138-.12674.46193.37606.66349.49605.88281 13.86717 1.09576 25.0818-3.527 35.69446-5.84229z" id="path24933"/></g><g id="g24941" transform="translate(-0.17677669,9.1039998)"><path style="baseline-shift:baseline;clip-rule:nonzero;color-interpolation-filters:linearRGB;color-interpolation:sRGB;color-rendering:auto;color:#000;direction:ltr;display:inline;dominant-baseline:auto;enable-background:accumulate;fill-opacity:.392157;fill-rule:nonzero;fill:#fff;image-rendering:auto;isolation:auto;mix-blend-mode:normal;opacity:1;overflow:visible;shape-padding:0;shape-rendering:auto;solid-color:#000000;solid-opacity:1;stroke-dasharray:none;stroke-dashoffset:0;stroke-linecap:butt;stroke-linejoin:miter;stroke-miterlimit:4;stroke-opacity:1;stroke-width:.453543;stroke:none;vector-effect:none;visibility:visible;white-space:normal;writing-mode:lr-tb" d="m262.40004 654.24112c-10.58213 2.30863-18.96023 2.23425-32.76994 1.14303-.41189.23332-.69148.24779-.81857.65436 13.86717 1.09576 22.98507.6298 33.59773-1.68549z" id="path24937"/><path id="path24939" d="m262.15004 654.43643c-10.58213 2.30863-19.52485 2.69006-33.33456 1.59884-.18198.23543.87324 1.07781.99323 1.29713 13.86717 1.09576 21.73789-.46878 32.35055-2.78407z" style="baseline-shift:baseline;clip-rule:nonzero;color-interpolation-filters:linearRGB;color-interpolation:sRGB;color-rendering:auto;color:#000;direction:ltr;display:inline;dominant-baseline:auto;enable-background:accumulate;fill-opacity:.392157;fill-rule:nonzero;fill:#000;image-rendering:auto;isolation:auto;mix-blend-mode:normal;opacity:1;overflow:visible;shape-padding:0;shape-rendering:auto;solid-color:#000000;solid-opacity:1;stroke-dasharray:none;stroke-dashoffset:0;stroke-linecap:butt;stroke-linejoin:miter;stroke-miterlimit:4;stroke-opacity:1;stroke-width:.453543;stroke:none;vector-effect:none;visibility:visible;white-space:normal;writing-mode:lr-tb"/></g><g transform="translate(-0.30177669,12.26025)" id="g24947"><path id="path24943" d="m257.83754 654.92862c-10.58213 2.30863-14.39773 1.54675-28.20744.45553-.41189.23332-.69148.24779-.81857.65436 13.86717 1.09576 18.42257 1.3173 29.03523-.99799z" style="baseline-shift:baseline;clip-rule:nonzero;color-interpolation-filters:linearRGB;color-interpolation:sRGB;color-rendering:auto;color:#000;direction:ltr;display:inline;dominant-baseline:auto;enable-background:accumulate;fill-opacity:.392157;fill-rule:nonzero;fill:#fff;image-rendering:auto;isolation:auto;mix-blend-mode:normal;opacity:1;overflow:visible;shape-padding:0;shape-rendering:auto;solid-color:#000000;solid-opacity:1;stroke-dasharray:none;stroke-dashoffset:0;stroke-linecap:butt;stroke-linejoin:miter;stroke-miterlimit:4;stroke-opacity:1;stroke-width:.453543;stroke:none;vector-effect:none;visibility:visible;white-space:normal;writing-mode:lr-tb"/><path style="baseline-shift:baseline;clip-rule:nonzero;color-interpolation-filters:linearRGB;color-interpolation:sRGB;color-rendering:auto;color:#000;direction:ltr;display:inline;dominant-baseline:auto;enable-background:accumulate;fill-opacity:.392157;fill-rule:nonzero;fill:#000;image-rendering:auto;isolation:auto;mix-blend-mode:normal;opacity:1;overflow:visible;shape-padding:0;shape-rendering:auto;solid-color:#000000;solid-opacity:1;stroke-dasharray:none;stroke-dashoffset:0;stroke-linecap:butt;stroke-linejoin:miter;stroke-miterlimit:4;stroke-opacity:1;stroke-width:.453543;stroke:none;vector-effect:none;visibility:visible;white-space:normal;writing-mode:lr-tb" d="m257.80629 655.06143c-10.58213 2.30863-15.1811 2.06506-28.99081.97384-.18198.23543.87324 1.07781.99323 1.29713 13.86717 1.09576 17.39414.15622 28.0068-2.15907z" id="path24945"/></g><g id="g24953" transform="matrix(-1.4970889,0,0,1.3798567,746.60597,-257.23949)" style="stroke-width:.69576"><path style="baseline-shift:baseline;clip-rule:nonzero;color-interpolation-filters:linearRGB;color-interpolation:sRGB;color-rendering:auto;color:#000;direction:ltr;display:inline;dominant-baseline:auto;enable-background:accumulate;fill-opacity:.392157;fill-rule:nonzero;fill:#fff;image-rendering:auto;isolation:auto;mix-blend-mode:normal;opacity:1;overflow:visible;shape-padding:0;shape-rendering:auto;solid-color:#000000;solid-opacity:1;stroke-dasharray:none;stroke-dashoffset:0;stroke-linecap:butt;stroke-linejoin:miter;stroke-miterlimit:4;stroke-opacity:1;stroke-width:.315557;stroke:none;vector-effect:none;visibility:visible;white-space:normal;writing-mode:lr-tb" d="m265.40004 650.89737c-10.58213 2.30863-21.78575 5.3222-35.59546 4.23098-.21529.23099-.5808.47986-.60283.9654 13.86717 1.09576 25.59485-2.76919 36.20751-5.08448z" id="path24949"/><path id="path24951" d="m265.40004 651.03018c-10.58213 2.30863-22.39245 6.15411-36.20216 5.06289-.12674.46193.35518 1.00886.46734 1.19704 13.86717 1.09576 25.13138-3.83274 35.74404-6.14803z" style="baseline-shift:baseline;clip-rule:nonzero;color-interpolation-filters:linearRGB;color-interpolation:sRGB;color-rendering:auto;color:#000;direction:ltr;display:inline;dominant-baseline:auto;enable-background:accumulate;fill-opacity:.392157;fill-rule:nonzero;fill:#000;image-rendering:auto;isolation:auto;mix-blend-mode:normal;opacity:1;overflow:visible;shape-padding:0;shape-rendering:auto;solid-color:#000000;solid-opacity:1;stroke-dasharray:none;stroke-dashoffset:0;stroke-linecap:butt;stroke-linejoin:miter;stroke-miterlimit:4;stroke-opacity:1;stroke-width:.315557;stroke:none;vector-effect:none;visibility:visible;white-space:normal;writing-mode:lr-tb"/></g><g style="stroke-width:.69576" transform="matrix(-1.4970889,0,0,1.3798567,747.7466,-251.06762)" id="g24959"><path id="path24955" d="m267.34131 651.73532c-10.58213 2.30863-23.72702 4.48425-37.53673 3.39303-.36141.12908-.89391.12883-.91594.61437 13.86717 1.09576 27.84923-1.58021 38.46189-3.8955z" style="baseline-shift:baseline;clip-rule:nonzero;color-interpolation-filters:linearRGB;color-interpolation:sRGB;color-rendering:auto;color:#000;direction:ltr;display:inline;dominant-baseline:auto;enable-background:accumulate;fill-opacity:.392157;fill-rule:nonzero;fill:#fff;image-rendering:auto;isolation:auto;mix-blend-mode:normal;opacity:1;overflow:visible;shape-padding:0;shape-rendering:auto;solid-color:#000000;solid-opacity:1;stroke-dasharray:none;stroke-dashoffset:0;stroke-linecap:butt;stroke-linejoin:miter;stroke-miterlimit:4;stroke-opacity:1;stroke-width:.315557;stroke:none;vector-effect:none;visibility:visible;white-space:normal;writing-mode:lr-tb"/><path style="baseline-shift:baseline;clip-rule:nonzero;color-interpolation-filters:linearRGB;color-interpolation:sRGB;color-rendering:auto;color:#000;direction:ltr;display:inline;dominant-baseline:auto;enable-background:accumulate;fill-opacity:.392157;fill-rule:nonzero;fill:#000;image-rendering:auto;isolation:auto;mix-blend-mode:normal;opacity:1;overflow:visible;shape-padding:0;shape-rendering:auto;solid-color:#000000;solid-opacity:1;stroke-dasharray:none;stroke-dashoffset:0;stroke-linecap:butt;stroke-linejoin:miter;stroke-miterlimit:4;stroke-opacity:1;stroke-width:.315557;stroke:none;vector-effect:none;visibility:visible;white-space:normal;writing-mode:lr-tb" d="m267.46655 651.95872c-10.58213 2.30863-24.74076 4.90851-38.55047 3.81729-.12674.46193.42824 1.28063.5404 1.46881 13.86717 1.09576 27.40663-2.85891 38.01929-5.1742z" id="path24957"/></g><path style="fill-opacity:1;fill:none;opacity:1;stroke-dasharray:none;stroke-dashoffset:0;stroke-linecap:butt;stroke-linejoin:miter;stroke-miterlimit:4;stroke-opacity:.498039;stroke-width:.453543;stroke:#000;vector-effect:none" d="m214.39063 852.59375c9.77315 1.49688 20.14281 1.08185 30.40167.93403" id="path24961"/><path id="path24963" d="m214.43071 851.90435c9.77315 1.49688 20.35273 1.115 30.61159.96718" style="fill-opacity:1;fill:none;opacity:1;stroke-dasharray:none;stroke-dashoffset:0;stroke-linecap:butt;stroke-linejoin:miter;stroke-miterlimit:4;stroke-opacity:.588235;stroke-width:.453543;stroke:#fff;vector-effect:none"/><path style="fill-opacity:1;fill:none;opacity:1;stroke-dasharray:none;stroke-dashoffset:0;stroke-linecap:butt;stroke-linejoin:miter;stroke-miterlimit:4;stroke-opacity:.588235;stroke-width:.453543;stroke:#fff;vector-effect:none" d="m214.51119 851.10938c9.77315 1.49688 20.58475 1.08185 30.84361.93403" id="path24965"/><path style="display:inline;fill-opacity:1;fill:none;opacity:1;stroke-dasharray:none;stroke-dashoffset:0;stroke-linecap:butt;stroke-linejoin:miter;stroke-miterlimit:4;stroke-opacity:.498039;stroke-width:.453543;stroke:#000;vector-effect:none" d="m379.77564 855.92877c9.56047.98523 17.19572.62631 24.69854.0161" id="path24967"/><path id="path24969" d="m379.77564 855.27252c9.56047.98523 17.29516.61526 24.79798.005" style="display:inline;fill-opacity:1;fill:none;opacity:1;stroke-dasharray:none;stroke-dashoffset:0;stroke-linecap:butt;stroke-linejoin:miter;stroke-miterlimit:4;stroke-opacity:.588235;stroke-width:.453543;stroke:#fff;vector-effect:none"/><path style="display:inline;fill-opacity:1;fill:none;opacity:1;stroke-dasharray:none;stroke-dashoffset:0;stroke-linecap:butt;stroke-linejoin:miter;stroke-miterlimit:4;stroke-opacity:.588235;stroke-width:.453543;stroke:#fff;vector-effect:none" d="m379.77564 854.35065c9.56047.98523 17.46089.60421 24.96371-.006" id="path24971"/><g id="g24881-0-8" style="display:inline"><path class="bottoms_primary" id="path24877-03-2" d="m311.29932 387.80107 2.41114-.79376c2.35529 7.72385 3.33123 15.32052 4.20728 23.37309l-2.5688.72832c-.45637-8.23645-1.75995-15.73785-4.04962-23.30765z"/><path style="fill-opacity:.498039;fill:#000;opacity:1;stroke-dasharray:none;stroke-linejoin:miter;stroke-miterlimit:4;stroke-opacity:.588235;stroke-width:.453543;stroke:none" d="m310.9404 388.14153c2.99622 9.74006 3.91517 20.85059 3.92215 22.88784-.59373-8.55094-2.61787-15.53224-3.92215-22.88784z" id="path24879-57-9"/><path style="fill-opacity:.819608;fill:none;opacity:1;stroke-dasharray:none;stroke-linejoin:miter;stroke-miterlimit:4;stroke-opacity:.588235;stroke-width:.453543;stroke:#fff" d="m313.88724 386.75872c2.35529 7.72385 3.40836 15.73708 4.28441 23.78965l-3.03365.86113c-.45637-8.23645-1.80313-16.14912-4.0928-23.71892" id="path37489-1-2"/></g><g id="g24887-22-9" transform="matrix(-0.99357915,0.11313916,0.11313916,0.99357915,520.61822,-26.479592)" style="display:inline"><path class="bottoms_primary" d="m311.31394 387.80454 2.41967-.78369c2.35529 7.72385 3.32056 15.30784 4.19661 23.36041l-2.57161.71956c-.45637-8.23645-1.755-15.72648-4.04467-23.29628z" id="path24883-2-3"/><path id="path24885-52-0" d="m310.9404 388.14153c2.99622 9.74006 3.80681 19.79315 3.92215 22.88784-.59373-8.55094-2.61787-15.53224-3.92215-22.88784z" style="fill-opacity:.498039;fill:#000;opacity:1;stroke-dasharray:none;stroke-linejoin:miter;stroke-miterlimit:4;stroke-opacity:.588235;stroke-width:.453543;stroke:none"/><path id="path37487-4-3" d="m313.92982 386.93735c2.35529 7.72385 3.40836 15.73708 4.28441 23.78965l-3.02267.85988c-.45637-8.23645-1.80313-16.14912-4.0928-23.71892" style="fill-opacity:.819608;fill:none;opacity:1;stroke-dasharray:none;stroke-linejoin:miter;stroke-miterlimit:4;stroke-opacity:.588235;stroke-width:.453543;stroke:#fff"/></g><g id="g24911-3-5" transform="matrix(0.88304795,-0.2303426,0.23135947,0.88694624,-7.2906805,91.050608)" style="display:inline;stroke-width:1.09336"><path class="bottoms_primary" d="m311.38875 387.97911 2.28008-1.05466c2.35529 7.72385 3.25572 15.10128 4.13177 23.15385l-2.43417.96076c-.45637-8.23645-1.68801-15.49015-3.97768-23.05995z" id="path24907-5-5"/><path id="path24909-3-2" d="m310.9404 388.14153c2.99622 9.74006 3.95649 21.68083 3.92215 22.88784-.59373-8.55094-2.61787-15.53224-3.92215-22.88784z" style="fill-opacity:.498039;fill:#000;opacity:1;stroke-dasharray:none;stroke-linejoin:miter;stroke-miterlimit:4;stroke-opacity:.588235;stroke-width:.495888;stroke:none"/><path id="path37491-8-9" d="m313.89014 386.81999c2.35529 7.72385 3.3204 15.37967 4.19645 23.43224l-2.94859 1.15727c-.45637-8.23645-1.6982-15.78553-3.98787-23.35533" style="fill-opacity:.819608;fill:none;opacity:1;stroke-dasharray:none;stroke-linejoin:miter;stroke-miterlimit:4;stroke-opacity:.588235;stroke-width:.495888;stroke:#fff"/></g></g><path id="path24859" d="m395.65342 556.3184c-3.05909 83.33219 7.48099 98.73648-21.37388 104.57407-27.10487 12.5876-32.83894-32.05394-50.52241-83.08232-22.34147-64.46979-24.18894-143.44255 14.37388-150.07407 32.98831-5.67289 60.60665 44.5649 57.52241 128.58232z" style="fill-opacity:1;fill:url(#radialGradient20579);opacity:1;stroke-dasharray:none;stroke-linejoin:miter;stroke-miterlimit:4;stroke-opacity:.588235;stroke-width:.453543;stroke:none"/><path style="fill-opacity:1;fill:url(#radialGradient24640);opacity:1;stroke-dasharray:none;stroke-linejoin:miter;stroke-miterlimit:4;stroke-opacity:1;stroke-width:.453543;stroke:none" d="m263.31378 566.04617c-20.12616 80.92311-3.13536 95.66944-32.57399 95.45-.21077-12.78766-4.64614-54.55837-11.13834-108.17229-5.6151-46.37062-2.28069-96.97682 3.29219-118.9283 1.58332-6.23667 6.80789-8.28492 15.18997-7.97659 33.44991 1.23042 45.52182 58.03865 25.23017 139.62718z" id="path24923"/></svg>