<svg viewBox="0 0 560 1e3"><g data-transform="boob_left" id="g2663"><path d="m300.95202 242.92691c-4.72638 8.51628-15.87209 27.89773-1.59553 35.46652 13.45836-9.00369 7.22627-30.59593 1.59553-35.46652z" class="highlight2" id="path2651"/><path d="m292.23006 323.31796c-13.47602 12.46326-22.02199 31.88896-7.2126 39.43081 11.42139-4.20547 14.43077-22.27131 7.2126-39.43081z" class="highlight2" id="path2653"/><path d="m293.28695 310.33963c-5.54791 4.65439-2.11241 6.01857-1.1324 7.83771 3.49328-1.8807 4.29714-2.89819 1.1324-7.83771z" class="highlight2" id="path2655"/><path d="m301.64512 230.91903c-1.82369 2.12979-5.81301 4.45613-.61007 7.44469 6.52501-5.13348 2.44113-6.44313.61007-7.44469z" class="highlight2" id="path2657"/><path d="m299.55212 293.0013c-4.25254-5.8616-8.38407-3.58429-10.26763-2.73472 2.1033 2.14285 6.06392 2.74733 10.26763 2.73472z" class="highlight2" id="path2659"/><path d="m299.06904 282.47605c-4.95103-.90179-7.21699.60689-8.38488 2.31129 4.33301.83641 5.12594 1.03793 8.38488-2.31129z" class="highlight2" id="path2661"/><path d="m208.7299 336.0992c-6.80211 85.1179 63.5208 90.86927 87.50823 91.7878-90.04729-14.42271-85.50297-81.1935-87.50823-91.7878z" class="highlight2" id="path2673-6"/></g><g data-transform="boob_right" id="g2681"><path d="m227.52738 250.77543c-15.73626 9.94255-46.85922 35.14388-57.95708 42.00456 12.51159.21933 55.11842-4.16099 57.95708-42.00456z" class="highlight2" id="path2665"/><path d="m246.12541 235.88771c-3.64073-.66176-7.835 2.19906-7.56211 5.18842 2.48751.415 7.61075 1.13182 7.56211-5.18842z" class="highlight2" id="path2667"/><path d="m185.98616 316.19059c-2.79708-.8209-19.69771.75404-21.52182.96347 2.87347 2.71929 21.34942 5.44794 21.52182-.96347z" class="highlight2" id="path2671"/><path d="m134.09525 346.51445c-2.97553 28.64332 24.96531 69.6146 34.96716 75.12926-8.28943-10.07254-31.88415-53.59755-34.96716-75.12926z" class="highlight2" id="path2673"/><path d="m135.51244 336.69341c-3.63569 2.4616-1.78808 5.90256-.22239 7.2753 2.27621-1.3471 1.24118-5.34295.22239-7.2753z" class="highlight2" id="path2675"/><path d="m155.72267 303.6146c-2.28882.65053-4.19133 1.37495-5.78469 2.75884 2.7721.82136 5.39949.52722 5.78469-2.75884z" class="highlight2" id="path2677"/><path d="m159.96589 299.21075c-1.02945.11997-3.22267.80206-3.52796 2.70446 1.05173-1.14225 3.29396-.9891 3.52796-2.70446z" class="highlight2" id="path2679"/></g></svg>