<svg viewBox="0 0 560 1e3"><g id="g3755" style="fill-opacity:1;fill:#c0c6c7;stroke-opacity:1;stroke:none"><path d="m309.14219 234.55641s-1.66351 6.13387-.6555 8.95038c.69607 1.9449 2.20975 4.61726 4.27152 4.4898 2.04057-.12615 3.06329-2.97147 3.6481-4.93052.82353-2.7587-.4904-8.62306-.4904-8.62306s.0757.87987.1112 2.11179c-.11286.003-.5941-28e-5-.5941-28e-5l.18681.60388s.23025-.007.41963-.011c.0263 1.97276-.0845 4.54326-.72754 5.98192-.52233 1.16847-1.40518 2.44497-2.59622 2.45515-1.32582.0113-2.33971-1.38723-2.93627-2.68322-.62986-1.36835-.75375-3.82476-.74101-5.71945.29918.0 1.29193-.0359 1.29193-.0359l.0835-.60866s-1.06431-.009-1.36586-.009c.0266-1.15377.0942-1.97253.0942-1.97253z" class="shadow" id="path5128"/><path d="m249.30676 237.70242s1.66352 6.13388.6555 8.95038c-.69607 1.9449-2.20974 4.61726-4.27152 4.4898-2.04056-.12615-3.06329-2.97147-3.6481-4.93052-.82353-2.7587.4904-8.62306.4904-8.62306s-.0757.87987-.1112 2.11179c.11286.003 1.62535-28e-5 1.62535-28e-5l-.0321.60388s-1.41619-.007-1.60557-.011c-.0263 1.97276.0845 4.54326.72754 5.98192.52233 1.16847 1.40518 2.44498 2.59622 2.45515 1.32583.0113 2.33971-1.38723 2.93627-2.68322.62986-1.36835.75375-3.82476.74101-5.71945-.29918.0-1.29193-.0359-1.29193-.0359l-.0835-.60866s1.06431-.009 1.36586-.009c-.0266-1.15377-.0942-1.97253-.0942-1.97253z" class="shadow" id="path5130"/><path d="m312.76639 245.60534s-1.2348 6.34214-1.28029 9.55581c-.052 3.67206 1.15328 10.95624 1.15328 10.95624s-.24674-6.54217.73111-13.09806c-.65216-2.17566-.6041-7.41399-.6041-7.41399z" class="shadow" id="path5132"/><path d="m312.59693 264.7749s-.72404 2.39816-.65902 3.62462c.0619 1.16743.98852 3.36375.98852 3.36375s.70059-2.22176.65903-3.36375c-.0456-1.25189-.98853-3.62462-.98853-3.62462z" class="shadow" id="path5134"/><path d="m245.85647 248.53096s-1.2348 6.34215-1.28029 9.55581c-.052 3.67207 1.15328 10.95624 1.15328 10.95624s-.24674-6.54217.73111-13.09806c-.65216-2.17566-.6041-7.41399-.6041-7.41399z" class="shadow" id="path5136"/><path id="XMLID_525_-3-62-9" class="steel_piercing" d="m309.44017 235.16237s-1.51228 5.57625-.59591 8.13671c.63279 1.76809 2.00887 4.19751 3.8832 4.08164 1.85507-.11468 2.78481-2.70134 3.31646-4.48229.74866-2.50791-.44582-7.83915-.44582-7.83915s.0688.79988.10109 1.91981c-.1026.003-.54009-25e-5-.54009-25e-5l.16983.54898s.20931-.006.38148-.01c.0239 1.79342-.0768 4.13023-.6614 5.43811-.47485 1.06224-1.27744 2.2227-2.3602 2.23195-1.20529.0103-2.12701-1.26112-2.66934-2.43929-.5726-1.24395-.68523-3.47705-.67364-5.1995.27198.0 1.17448-.0326 1.17448-.0326l.0759-.55333s-.96756-.008-1.24169-.008c.0242-1.04888.0856-1.79321.0856-1.79321z"/><path d="m245.68701 267.70052s-.72404 2.39816-.65902 3.62462c.0619 1.16743.98852 3.36375.98852 3.36375s.70059-2.22176.65903-3.36375c-.0456-1.25189-.98853-3.62462-.98853-3.62462z" class="shadow" id="path5138"/><path id="XMLID_525_-3-62-9-0" class="steel_piercing" d="m249.00878 238.30838s1.51229 5.57626.59591 8.13671c-.63279 1.76809-2.00886 4.19751-3.8832 4.08164-1.85506-.11468-2.78481-2.70134-3.31646-4.48229-.74866-2.50791.44582-7.83915.44582-7.83915s-.0688.79988-.10109 1.91981c.1026.003 1.47759-25e-5 1.47759-25e-5l-.0292.54898s-1.28744-.006-1.45961-.01c-.0239 1.79342.0768 4.13023.6614 5.43811.47485 1.06224 1.27744 2.22271 2.3602 2.23195 1.2053.0103 2.12701-1.26112 2.66934-2.43929.5726-1.24395.68523-3.47705.67364-5.1995-.27198.0-1.17448-.0326-1.17448-.0326l-.0759-.55333s.96756-.008 1.24169-.008c-.0242-1.04888-.0856-1.79321-.0856-1.79321z"/><path id="XMLID_513_-8-0" class="steel_piercing" d="m312.73558 246.53771s-1.12255 5.76559-1.1639 8.6871c-.0473 3.33824 1.04844 9.96021 1.04844 9.96021s-.22431-5.94742.66464-11.90732c-.59287-1.97788-.54918-6.73999-.54918-6.73999z"/><path id="XMLID_514_-2-7" class="steel_piercing" d="m312.6118 265.09255s-.65822 2.18015-.59911 3.29511c.0563 1.0613.89866 3.05796.89866 3.05796s.63689-2.01978.59911-3.05796c-.0414-1.13808-.89866-3.29511-.89866-3.29511z"/><path id="XMLID_513_-8-0-5" class="steel_piercing" d="m245.82566 249.46333s-1.12255 5.76559-1.1639 8.6871c-.0472 3.33824 1.04844 9.96021 1.04844 9.96021s-.22431-5.94742.66464-11.90732c-.59287-1.97788-.54918-6.73999-.54918-6.73999z"/><path id="XMLID_514_-2-7-4" class="steel_piercing" d="m245.70188 268.01817s-.65822 2.18015-.59911 3.29511c.0563 1.0613.89866 3.05796.89866 3.05796s.63689-2.01978.59911-3.05796c-.0414-1.13808-.89866-3.29511-.89866-3.29511z"/></g></svg>