<svg viewBox="0 0 560 1e3"><defs><filter style="color-interpolation-filters:sRGB" id="filter34731"><feGaussianBlur stdDeviation="4 4" result="blur" id="feGaussianBlur34729"/></filter><clipPath clipPathUnits="userSpaceOnUse" id="clipPath34733"><path id="path34735" d="m299.64971 486.0023c-1.18329-13.77189-4.61319-24.07177-9.2122-32.56483-7.87764.86001-15.34045 2.58738-17.8125 14.75l-.0573 21.43609c5.84892-.17661 15.93071-1.4535 27.08202-3.62126z" style="fill-opacity:.63321791;fill:#0ff;opacity:1;stroke-dasharray:none;stroke-dashoffset:0;stroke-linecap:butt;stroke-linejoin:miter;stroke-miterlimit:4;stroke-opacity:1;stroke-width:.45354331;stroke:none;vector-effect:none"/></clipPath></defs><path d="m217.33203 458.59961c-2.03518 11.0631-4.10636 22.29675-6.29297 33.27344 24.78939 3.3982 64.97081 5.39102 95.97266-2.52149 7.41696 3.37589 19.302 4.82868 28.18359 5.66602 19.18162 1.95591 42.44864-.26668 52.15821-6.16016 3.96158-3.49464 7.34704-7.50136 7.99023-13.04687-18e-5-.003 2e-4-.004.0-.006-1.68043 4.73826-4.21969 8.83308-7.73633 11.90625-.056.0503-.11527.0968-.17187.14648-.23382.2003-.4587.41043-.70117.60156-9.70958 5.89348-32.29495 7.32701-51.47657 5.3711-4.15926-.36124-8.03373-.89247-11.60156-1.51563-3.56783-.62315-6.8283-1.33808-9.76172-2.06445-3.24048-.80241-5.04202-1.41215-7.45312-2.13672l-3.27735-.9375c-.75209-.2309-2.1346-.60587-2.76367-.79297-.19471.0497-.39099.0937-.58594.14258-3.62748.9108-7.29393 1.69792-10.98242 2.36328-3.88672.70113-7.79568 1.27245-11.70508 1.72852s-7.81925.79786-11.70507 1.03711c-3.88588.23924-7.74842.37713-11.56446.42773-7.63208.1013-15.07689-.14714-22.15234-.63086-5.35586-.36616-14.92273-1.39863-19.77344-1.98633 1.63479-8.43691 3.84701-20.10159 5.86524-30.86523zm184.49414.0c-.47429 6.63345-1.08542 13.09563-1.41797 18.23047.005.01.0102.0195.0156.0293-.1536 2.2796-.26281 4.35436-.25781 5.98046-.47796.61958-1.46658 1.45867-2.51368 1.98047-.12428.0442-.25089.0882-.37109.13086-.0333.0155-.0535.0292-.0879.0449-.0537.019-.10843.0284-.16211.0449-.12951.0459-.25094.0887-.39258.13867-.193.0398-.34035.0504-.49414.0664-.0764.0136-.14752.0291-.22656.043-29e-5-.006 29e-5-.006.0-.0117 29e-5.006-.37529.41215-.375.41797 1.82791.18813 3.4969-1.05983 4.91992-2.57422-.005-1.6261.0496-3.88251.20313-6.16211.29208-6.10556.97905-12.26047 1.50781-18.35937zm-6.46289 17.52148c.14786 2.18374.24199 3.58774.33203 5.10547-.0899-1.51152-.1856-2.95759-.33203-5.10547z" id="path103150" class="shadow"/><path d="M401.82617 458.59961H217.79688c-2.01821 10.76364-4.23045 22.42832-5.86524 30.86523 4.85071.5877 14.41758 1.62017 19.77344 1.98633 7.07545.48372 14.52026.73216 22.15234.63086 3.81604-.0506 7.6786-.18849 11.56446-.42773 3.88583-.23925 7.79567-.58104 11.70507-1.03711s7.81836-1.02739 11.70508-1.72852c3.88672-.70112 7.75056-1.53145 11.56836-2.50586.62907.1871 2.01158.56207 2.76367.79297l3.27735.9375c2.4111.72457 4.21264 1.33431 7.45312 2.13672 2.93342.72637 6.19389 1.4413 9.76172 2.06445 3.56783.62316 7.4423 1.15439 11.60156 1.51563 4.15927.36124 8.60283.55155 13.31055.49219 4.70771-.0594 9.67939-.36915 14.89258-1.00782 2.60659-.31933 5.27314-.72092 7.99804-1.21484 2.72491-.49392 5.50787-1.07924 8.34571-1.76758 2.27624-.55211 4.57765-1.18839 6.92383-1.87695 4.68891-3.72751 7.5515-9.72238 8.61328-12.66406.27471 4.05477.31957 4.36684.57617 9.49804.45638-.0802.86464-.1479 1.27539-.29297 1.46838-.67304 1.96138-1.09702 2.96875-2.17773-.0313-5.20944.9786-14.63193 1.66406-24.21875z" id="path103147" class="bottoms_primary"/><path class="bottoms_accent" id="path103093" d="m301.72749 485.55113c-29.50869 6.69616-65.98659 5.10952-89.43754 1.8948l-.78604 3.94079c24.78939 3.3982 63.76377 5.0961 94.76562-2.81641-.6008-4.09658-1.29561-3.75755-4.54204-3.01918z"/><path d="m398.03711 458.59961h-4.02539c-.0964 3.85419-.36421 7.57414-1.05664 10.90234-2.07568 9.97684-6.72534 16.90738-15.77344 19.29493-.41117.10849-.91386.19283-1.49609.3125-37.63861 7.73455-65.52048-2.96192-76.21485-6.14258l.34375 3.55859c.19495-.0489.39123-.0929.58594-.14258.62907.1871 2.01158.56207 2.76367.79297l3.27735.9375c2.4111.72457 4.21264 1.33431 7.45312 2.13672 2.93342.72637 6.19389 1.4413 9.76172 2.06445 3.56783.62316 7.4423 1.15439 11.60156 1.51563 19.18162 1.95591 41.767.52238 51.47657-5.3711 3.98721-3.14308 6.79919-7.53966 8.61718-12.67578.63226 1.3591 1.48784 2.59323 2.28125 3.96485-.51505.44344-1.18312 1.02045-1.70703 1.45507-.0824.0442-.1736.0792-.23633.10547l.22657 3.96875c.17854-.0172.44036-.0394.72265-.0976.36587-.12899.67397-.23866 1.01367-.35938 1.0471-.5218 2.03572-1.36089 2.51368-1.98047-.005-1.6261.10421-3.70086.25781-5.98046-1.46184-2.6307-2.60667-5.2039-3.34571-7.63868.62088-3.33845.86769-6.93306.95899-10.62109z" id="path103157" class="bottoms_accent"/><g clip-path="url(#clipPath34733)" style="filter:url(#filter34731)" id="g103109"><path class="bottoms_primary_shade" d="m292.10813 459.71609c-6.29731 5.05202-4.92693 28.92396 7.53049 27.08964 6.3534-17.0244 10.19322-20.71489-7.53049-27.08964z" id="path103101"/><path class="bottoms_primary_shade" id="path103103" d="m290.54563 460.09109c-6.29731 5.05202-4.92693 28.92396 7.53049 27.08964 6.84043-17.58094 5.88128-20.87907-7.53049-27.08964z"/><path class="bottoms_primary_shade" d="m289.17063 459.65359c-6.29731 5.05202-4.92693 28.92396 7.53049 27.08964 9.28938-17.86559 3.36031-20.24994-7.53049-27.08964z" id="path103105"/><path class="bottoms_primary_shade" id="path103107" d="m287.29563 461.71609c-6.29731 5.05202-4.92693 28.92396 7.53049 27.08964 16.15647-20.86979 7.13941-22.00902-7.53049-27.08964z"/></g></svg>