<svg viewBox="0 0 560 1e3"><defs><clipPath clipPathUnits="userSpaceOnUse" id="clipPathTorsoUnnatural"><path style="display:inline;fill-opacity:1;fill:#0ff;opacity:1" d="m330.55078 146.24219-33.94726 3.49414c-.60023 11.74644 4.71263 22.22405 4.14257 32.1582-3.83498 2.97182-5.98164 3.47574-13.82226 5.20313-.50811.12713-.99038.25932-1.45703.39453-3.72264.82253-9.04126 2.01096-14.32032 3.34179-8.65971 10.94361-15.77788 17.65645-24.83789 40.22852-7.97663 19.22419-2.76622 39.20128 6.8418 56.00977-1.06764 11.32585-1.52592 26.55771 1 35.50195-11.37059 21.52353-15.89766 23.525-18.09766 43.625-1.1 10.1-2.23134 20.37109-6.00781 40.87109 1.79918 21.68192 24.06434 28.08621 33.55274 33.19727 14.43169 10.04215 15.75568 13.80686 22.99414 21.73047 2.40278 1.2769 6.48148.50653 7.11523-.33399l1.04492-.0117c1.31243 1.17872 7.86741 1.71406 11.33008.17774 1.25908-5.51105 3.06526-22.40357 25.5332-37.0293 9.99479-6.9207 28.66489-25.38486 47.28125-34.05664-9.1-20.7-12.62221-28.06668-19.58398-39.49609-3.8841-8.49646-20.35167-24.94928-20.57812-24.78321.17394-.53763-12.86413-13.70783-12.93165-15.85937 2.56898-6.32141 6.07277-31.48998 8.07422-32.87695 17.10876-11.85604 23.08422-25.51867 27.05078-41.16602-.3269-2.17434-.47181-3.26841-.6582-5.75-1.66961-10.3676-2.48045-23.52968-5.33008-34.10742.025-10.96207 3.83399-17.95313 3.83399-17.95313-3.25954-.78952-9.49632-1.47902-12.42774-1.80664.0206-.0319.042-.0618.0625-.0937-7.39171-1.56131-16.05124-2.24254-15.85742-30.60937z" id="path13423"/></clipPath><clipPath clipPathUnits="userSpaceOnUse" id="clipPathTorsoHourglass"><path style="display:inline;fill-opacity:1;fill:#f0f;opacity:1" d="m330.55078 146.24219-33.94726 3.49414c-.60023 11.74644 4.71263 22.22405 4.14257 32.1582-3.83498 2.97182-5.98164 3.47574-13.82226 5.20313-.56276.1408-1.09742.28682-1.60938.4375-3.67844.81605-7.62914 1.65042-14.16797 3.29882-8.65971 10.94361-15.77788 17.65645-24.83789 40.22852-5.87551 18.9358-2.9645 38.67948 2.8418 56.00977-1.06764 11.32585-1.52592 26.55771 1 35.50195-11.37059 21.52353-11.89766 23.525-14.09766 43.625-1.1 10.1-2.23134 20.37109-6.00781 40.87109 1.79918 21.68192 24.06434 28.08621 33.55274 33.19727 14.43169 10.04215 15.75568 13.80686 22.99414 21.73047 1.37693.26708 4.09368 1.61095 7.06445-.26758l1.11133-.0781c1.17404 1.57274 8.90177 1.53055 11.31445.17774 1.25908-5.51105 3.06526-22.40357 25.5332-37.0293 9.99479-6.9207 28.66489-25.38486 47.28125-34.05664-9.1-20.7-12.62221-28.06668-19.58398-39.49609-3.8841-8.49646-20.35168-24.94928-20.57812-24.78321.17394-.53763-7.38366-13.70783-7.45118-15.85937 2.56898-6.32141 6.52259-31.00027 8.07422-32.87695 3.11188-3.76379 5.69391-7.22683 7.88672-10.51954 7.0161-10.53536 10.04592-19.32698 13.68359-30.64648-.3269-2.17434-.47181-3.26841-.6582-5.75-1.66961-10.3676-2.48045-23.52968-5.33008-34.10742.025-10.96207 3.83399-17.95313 3.83399-17.95313-4.4617-1.08069-8.62379-1.33294-12.38086-1.87695.005-.008.0105-.0154.0156-.0234-7.39171-1.56131-16.05124-2.24254-15.85742-30.60937z" id="path13449"/></clipPath><clipPath clipPathUnits="userSpaceOnUse" id="clipPathTorsoNormal"><path style="display:inline;fill-opacity:1;fill:#f9ff00;opacity:1" d="m330.55078 146.24219-33.94726 3.49414c-.60023 11.74644 4.71263 22.22405 4.14257 32.1582-3.83498 2.97182-5.98164 3.47574-13.82226 5.20313-.58083.14532-1.12952.29729-1.65625.45312-3.72076.82535-7.55904 1.62893-14.1211 3.2832-8.65971 10.94361-15.77788 17.65645-24.83789 40.22852-5.87551 18.9358-2.9645 38.67948 2.8418 56.00977-1.06764 11.32585-1.52592 26.55771 1 35.50195-11.37059 21.52353-11.89766 23.525-14.09766 43.625-1.1 10.1-2.23134 20.37109-6.00781 40.87109 1.79918 21.68192 24.06434 28.08621 33.55274 33.19727 14.43169 10.04215 15.75568 13.80686 22.99414 21.73047.78119.55861 4.78693 1.49428 7.05664-.26758l1.14258-.0781c1.51181 1.59807 9.57688 1.45961 11.29101.17774 1.25908-5.51105 3.06526-22.40357 25.5332-37.0293 9.99479-6.9207 28.66489-25.38486 47.28125-34.05664-9.1-20.7-12.62221-28.06668-19.58398-39.49609-23.58113-57.47054-9.98057-57.2743 1.61523-114.68555-.3269-2.17434-.47181-3.26841-.6582-5.75-1.66961-10.3676-2.48045-23.52968-5.33008-34.10742.025-10.96207 3.83399-17.95313 3.83399-17.95313-4.46045-1.0804-8.62863-1.32705-12.38672-1.86914.007-.0108.0146-.0205.0215-.0312-7.39171-1.56131-16.05124-2.24254-15.85742-30.60937z" id="path13552"/></clipPath><filter style="color-interpolation-filters:sRGB" id="filter13632"><feGaussianBlur stdDeviation="4 4" result="blur" id="feGaussianBlur13630"/></filter><clipPath clipPathUnits="userSpaceOnUse" id="clipPath14227"><path style="fill-opacity:.5;fill:#00fffe" d="m232.87501 280.12497c15.56544 6.85375 19.54278 15.11844 27.01701 18.0087 2.52422 1.62458 3.82765 1.51846 11.4846 1.49516 8.09303-.0246 9.68574-.0741 11.36626-.0452 10.1033-4.8534 16.89574-20.2445 31.13213-19.89617 26.31576.64389 41.11936-20.42378 42.62501-37.4375 1.40326-15.85667-11.73444-37.08566-23.89197-40.90384-20.11587-6.63352-37.79502.083-57.2779-1.95987-16.83778 5.1067-17.61315 15.25459-32.52836 20.47224-4.96818 1.22398-19.28353 7.05834-24.08525 16.59858-7.29187 14.48778-1.72618 36.6736 14.15847 43.6679z" id="path14229"/></clipPath><clipPath clipPathUnits="userSpaceOnUse" id="clipPath15355"><path id="path15357" d="m196.04393 198.4644c-19.0712 23.58917-15.22078 56.44229-15.22078 56.44229 22.27571 10.29425 57.17277 13.70657 93.53704 13.44975 69.00716-.48735 143.82828-22.49627 147.17838-27.4545 6.19586-1.49448-2.86753-38.91893 3.31141-40.77192C370.57359 58.250095 277.02692 82.574271 196.04393 198.4644z" class="top_primary"/></clipPath><clipPath clipPathUnits="userSpaceOnUse" id="clipPath15395"><path id="path15397" d="m344.34504 176.36818c-14.62958 18.46411-36.88098 36.29399-50.61092 34.44876-8.54797-1.1488-9.80437-15.51763-10.35461-22.98859-4.99086.81134-10.46154 2.4236-10.46154 2.4236-21.38677.24939-97.12987 2.2374-121.12404 8.21245-19.0712 23.58917-15.22078 160.69229-15.22078 160.69229 22.27571 10.29425 101.42277 13.70657 137.78704 13.44975 69.00716-.48735 212.32828-22.49627 215.67838-27.4545 6.19586-1.49448-2.86753-143.16893 3.31141-145.02192-2.78172-17.50024-124.42652-17.97439-137.57068-22.32338-5.63691-.66054-6.71089-.7659-11.43426-1.43846z" class="top_primary"/></clipPath></defs><g style="display:inline" id="g13715-4-3" select_clip="torso" select_clip_options="clip-path=url(#clipPathTorsoUnnatural) url(#clipPathTorsoHourglass) url(#clipPathTorsoNormal)"><g id="g13713-49-1" data-transform="boob_outfit"><path id="path14273-2-0" d="m319.03473 263.79688c10.55553.62183 47.5767-3.37064 63.763-13.80894.20225-7.07443.84627-23.10117 1.7135-28.47556-5.45646.15066-50.02819-9.11808-64.53529 7.00511z" class="top_primary"/></g></g><path class="shadow" id="path14103" d="m344.2168 176.33008c-14.62958 18.46411-36.65288 36.25538-50.38282 34.41015-8.54797-1.1488-9.85405-15.55638-10.40429-23.02734-4.99086.81134-10.30274 2.29688-10.30274 2.29688-.0451.0534-.49448.46642-1.10351 1.04687.43598-.40461.86822-.7981.89453-.80469.0.0 5.47008-1.61248 10.46094-2.42383.55024 7.47097 1.80749 21.83949 10.35547 22.98829 13.72994 1.84523 35.98174-15.98316 50.61132-34.44727 4.70209.66953 5.80817.77904 11.37891 1.43164.013-.0165.026-.0323.0391-.0488-5.63691-.66054-6.8235-.74931-11.54687-1.42187zM269.44141 193.625c-7.25193 7.43243-23.03375 25.70105-26.57813 48.24023.11435-.0391.22939-.0762.34375-.11523 3.71943-22.41049 19.23341-40.85242 26.23438-48.125z"/><g id="g14109"><path class="top_primary" d="m344.34504 176.36818c-14.62958 18.46411-36.88098 36.29399-50.61092 34.44876-8.54797-1.1488-9.80437-15.51763-10.35461-22.98859-4.99086.81134-12.2514 2.88764-12.2514 2.88764-.11738.0294-2.89361 3.5704-8.45496 10.41625-7.50581 9.23942-16.82451 23.65337-19.46612 40.45175 1.16138.21629 2.77193 1.20862 3.93218 1.40292 3.47111.58126 6.93713 1.06481 10.39843 1.45507 3.46131.39026 6.91715.68842 10.36914.89649 3.452.20807 6.90057.32662 10.34375.36133 6.88638.0694 13.75524-.19838 20.60938-.76953 6.85414-.57116 13.69166-1.44478 20.51758-2.58594 6.82592-1.14116 13.46293-2.81596 20.26463-4.45658 6.19586-1.49448 11.52892-5.90474 17.70786-7.75773-2.78172-17.50024-2.67652-47.22439-1.57068-52.32338-5.63691-.66054-6.71089-.7659-11.43426-1.43846z" id="path14105"/><path style="baseline-shift:baseline;clip-rule:nonzero;color-interpolation-filters:linearRGB;color-interpolation:sRGB;color-rendering:auto;color:#000;direction:ltr;display:inline;dominant-baseline:auto;enable-background:accumulate;fill-opacity:.295533;fill-rule:nonzero;fill:#000;image-rendering:auto;isolation:auto;mix-blend-mode:normal;opacity:1;overflow:visible;shape-padding:0;shape-rendering:auto;solid-color:#000000;solid-opacity:1;stroke-dasharray:none;stroke-dashoffset:0;stroke-linecap:butt;stroke-linejoin:miter;stroke-miterlimit:4;stroke-opacity:1;stroke-width:.45354301;stroke:none;vector-effect:none;visibility:visible;white-space:normal;writing-mode:lr-tb" d="m355.50391 177.77734c-1.02885 11.46883-.30334 29.84986.40625 39.88086 1.00793 14.24856 3.12609 21.91987 4.53711 24.60352l.11913-.41407c-1.32622-2.52237-3.19731-10.00228-4.20312-24.2207-.70837-10.01377-1.43148-28.40178-.4082-39.80859z" id="path14107"/></g><g id="g15387" clip-path="url(#clipPath15395)"><g style="display:inline;mix-blend-mode:normal" id="g14163" data-transform="boob_outfit" clip-path="none"><g clip-path="url(#clipPath15355)" id="g14522"><path class="top_primary" d="m232.87501 280.12497c15.56544 6.85375 19.54278 15.11844 27.01701 18.0087 2.52422 1.62458 3.82765 1.51846 11.4846 1.49516 8.09303-.0246 9.68574-.0741 11.36626-.0452 10.1033-4.8534 16.89574-20.2445 31.13213-19.89617 26.31576.64389 41.11936-20.42378 42.62501-37.4375 1.40326-15.85667-11.72924-37.16732-23.88677-40.9855-20.11587-6.63352-37.92522.2584-57.4081-1.78446-17.68153 5.51295-16.86315 14.91084-32.40336 20.37849-4.96818 1.22398-19.28353 7.05834-24.08525 16.59858-7.29187 14.48778-1.72618 36.6736 14.15847 43.6679z" id="path14111"/><g id="g14133"><g id="g14121" style="display:inline;stroke-width:.64463502;stroke:none" transform="matrix(2.6967083,0.05891276,-0.44603976,0.88261107,-358.38607,41.170686)"><path id="path14113" d="m257.78463 231.41908 25.46538-1.91912c-1.75833-1.43306-8.91975-1.9852-14.375-1.125-5.21054.7236-7.94775 1.92284-11.09038 3.04412z" class="top_primary_strong_highlight"/><path d="m257.77115 231.41459 25.46476-1.92729c-1.52315 1.68089-8.52041 3.30234-14.04298 3.27122-5.26011.0672-8.14639-.70736-11.42178-1.34393z" id="path14115" class="top_primary_strong_shade"/><path id="path14117" d="m261.35088 231.14146 18.93637-1.43319c-1.13266 1.24996-6.33604 2.45572-10.44279 2.43258-3.91157.05-6.0579-.52602-8.49358-.99939z" class="top_primary_strong_shade"/><path d="m280.36534 229.70219-18.93637 1.43319c1.13266-1.24996 6.33604-2.45572 10.44279-2.43258 3.91157-.05 6.0579.52602 8.49358.99939z" id="path14119" class="top_primary_strong_highlight"/></g><g id="g14131" style="display:inline;stroke-width:.83873701;stroke:none" transform="matrix(2.2993528,0.04081446,-0.38031654,0.61146839,-266.47753,100.54926)"><path id="path14123" d="m257.78463 231.41908 25.46538-1.91912c-1.75833-1.43306-8.91975-1.9852-14.375-1.125-5.21054.7236-7.94775 1.92284-11.09038 3.04412z" class="top_primary_strong_highlight"/><path d="m257.77115 231.41459 25.46476-1.92729c-1.52315 1.68089-8.52041 3.30234-14.04298 3.27122-5.26011.0672-8.14639-.70736-11.42178-1.34393z" id="path14125" class="top_primary_strong_shade"/><path id="path14127" d="m261.35088 231.14146 18.93637-1.43319c-1.13266 1.24996-6.33604 2.45572-10.44279 2.43258-3.91157.05-6.0579-.52602-8.49358-.99939z" class="top_primary_strong_shade"/><path d="m280.36534 229.70219-18.93637 1.43319c1.13266-1.24996 6.33604-2.45572 10.44279-2.43258 3.91157-.05 6.0579.52602 8.49358.99939z" id="path14129" class="top_primary_strong_highlight"/></g></g><g clip-path="url(#clipPath14227)" style="filter:url(#filter13632)" id="g14143"><path class="top_primary_highlight" id="path14135" d="m270.67765 238.2501c20.65734-1.41297 46.35182-8.9235 57.03575-10.77131 7.60197-1.31478 14.7106-3.0271 17.83602-2.44986 17.52916 3.23751 14.80574-1.70922-2.92171-11.41438-6.26703-3.43098-32.90621-2.50559-40.56413-2.31026-10.31541.26311-31.86115 2.84169-41.83384 3.64574-16.41381 1.32336-31.61743 9.5306-37.31389 11.99825 18.36475 15.45066 24.5992 12.88616 47.7618 11.30182z"/><path d="m270.92765 232.6251c20.65734-1.41297 42.47682-7.7985 53.16075-9.64631 12.40269-1.67309 35.41667.25519 13.53931-8.11424-6.26703-3.43098-31.28121 1.11941-38.93913 1.31474-10.31541.26311-38.23615 4.09169-48.20884 4.89574-16.41381 1.32336-18.86743-.9694-24.56389 1.49825 18.36475 15.45066 21.8492 11.63616 45.0118 10.05182z" id="path14137" class="top_primary_highlight"/><path d="m202.71307 257.65989c-1.1245 12.47637 18.32508 23.5252 27.04959 26.37844 13.47365 4.40639 44.96513-.32749 49.49736-.54362 17.71589-.84482 39.91542 1.55475 51.47236-1.0085 23.5121-5.21483 27.43362-24.94393 29.32364-34.19187 3.16523-15.48755-7.5998-14.2938-33.94279.69796-5.40858 3.46712-22.94455 5.45375-49.62888 6.23504-26.8559.78631-63.82297-5.81599-74.14628-19.31741z" id="path14139" class="top_primary_shade"/><path class="top_primary_shade" id="path14141" d="m202.71307 257.65989c4.2505 3.35137 19.45008 17.0252 28.17459 19.87844 13.47365 4.40639 44.84013.29751 49.37236.0814 17.71589-.84482 37.41542.42975 48.97236-2.1335 23.5121-5.21483 22.43362-11.81893 24.32364-21.06686 3.16523-15.48756-2.2248-14.04381-28.56779.94796-5.40858 3.46711-22.94455 5.45374-49.62888 6.23503-26.8559.78631-62.69797-5.19098-73.02128-18.69241z"/></g><g id="g14145" style="stroke-width:1.73638999;stroke:none" transform="matrix(-0.51251014,0.26357184,0.2634415,0.51166189,328.83547,168.04658)"/><g id="g14159" style="display:inline;stroke-width:.81097502" transform="matrix(1.233083,0,0,1.233083,-72.575419,-74.417995)"><g style="stroke-width:.551534" id="g14151"><path class="top_primary_strong_shade" d="m314.76435 249.09669c-.36404 1.48643-1.67517 2.08222-3.38065 1.66452-4.94027-2.02185 3.994-3.9641 3.38065-1.66452z" id="path14147"/><path class="top_primary_strong_highlight" id="path14149" d="m308.95482 247.31348c.36405-1.48643 2.04174-2.3528 3.74722-1.9351 4.94565 1.92801-4.04228 3.98008-3.74722 1.9351z"/></g><g transform="rotate(26.197764,242.87155,70.374699)" style="display:inline;stroke-width:.81097502" id="g14157"><path class="top_primary_strong_shade" d="m323.87031 235.27842c-.33036 1.39469-1.55402 1.96201-3.15424 1.58297-4.64113-1.85832 3.71228-3.74097 3.15424-1.58297z" id="path14153"/><path d="m318.97801 233.52009c.3572-1.37108 1.92207-2.15031 3.49519-1.74046 4.55214 1.85201-3.79613 3.62955-3.49519 1.74046z" id="path14155" class="top_primary_strong_highlight"/></g></g><path class="shadow" d="m337.25977 209.97656c.10999.0429.22051.0845.33007.12891-.10971-.0445-.21994-.086-.33007-.12891zm1.87695.81055c.12178.0584.24215.1213.36328.18164-.12123-.0604-.2414-.12315-.36328-.18164zm1.73828.91211c.0662.0377.13321.073.19922.11133-.066-.0383-.13297-.0736-.19922-.11133zm1.70703 1.05469c.0957.0637.192.12652.28711.1914-.0951-.0649-.19136-.12772-.28711-.1914zm1.73828 1.24414c.0625.0483.12342.0996.18555.14843-.0623-.049-.12298-.10001-.18555-.14843zm1.47852 1.22656c.0718.0632.14546.12355.21679.1875-.0714-.064-.14493-.12427-.21679-.1875zm1.54687 1.45703c.068.0686.13571.13774.20313.20703-.0675-.0694-.13508-.13837-.20313-.20703zm1.47657 1.5918c.0422.0488.0831.0993.125.14844-.0419-.0492-.0828-.0995-.125-.14844zm1.22461 1.51562c.0676.0887.13636.17608.20312.26563-.0668-.0896-.1355-.17688-.20312-.26563zm-107.24415.0703c-4.34318.72398-19.72171 6.74491-24.52343 16.28515-7.29187 14.48778-1.53895 38.11117 14.5957 43.98047-15.88465-6.9943-21.45007-29.18019-14.1582-43.66797 4.80172-9.54024 19.11775-15.37367 24.08593-16.59765zm108.51172 1.71093c.0642.0973.12623.19675.18946.29492-.0633-.0983-.12518-.19746-.18946-.29492zm1.11524 1.82031c.0273.0481.0569.0943.084.14258-.0271-.0483-.0566-.0944-.084-.14258zm.96484 1.8379c.0593.12205.11794.24417.17578.36718-.0579-.12303-.11648-.24512-.17578-.36718zm.92383 2.08203c.0469.11705.0911.2357.13672.35351-.0457-.11786-.0898-.23641-.13672-.35351zm.74023 2.05078c.0223.0688.0484.13599.0703.20508-.0219-.0692-.048-.13614-.0703-.20508zm.60547 2.11328c.0304.12159.0608.24303.0899.36523-.029-.12219-.0595-.24366-.0899-.36523zm.49024 2.30859c.0415.23981.0771.48274.11328.72461-.0326-.20749-.0594-.42878-.0937-.63086-.005-.0317-.014-.0621-.0195-.0937zm.20703 1.36133c.29582 2.2894.35463 4.66514.13867 7.10547-1.1285 12.75196-9.72765 27.78013-25.04492 34.23828 15.33588-6.42011 24.10393-21.11154 25.23242-33.86328.21719-2.45421.015-5.09716-.32617-7.48047zm-25.0586 41.40625c-.50385.20998-1.01883.40658-1.53711.59766.51902-.19071 1.03222-.38867 1.53711-.59766zm-2.18554.83008c-.17772.062-.3597.11796-.53907.17773.003.004.005.008.008.0117.17957-.0598.35329-.12742.53125-.18945z" id="path14161"/></g></g></g><g id="g14171" style="display:inline"><path d="m344.38867 176.36914c-6.90958 8.90494-15.68114 18.04606-24.77344 24.85938-9.0923 6.81331-18.37793 11.0216-26.00195 9.8125-2.36196-.37459-4.14593-1.5435-5.55078-3.22852-1.40485-1.68502-2.41103-3.89223-3.12109-6.28125-1.42014-4.77804-1.66014-10.30176-1.76563-13.66015l-1.03515.17182c.10584 3.36978.31758 8.82977 1.79101 13.78712.73672 2.47867 1.78691 4.81666 3.32227 6.6582 1.53535 1.84155 3.57508 3.1782 6.19531 3.59375 8.1223 1.28813 17.59739-3.11614 26.79687-10.00976 9.19948-6.89363 18.32497-16.5714 25.28321-25.53907z" id="path14167" class="top_primary_strong_highlight"/><path d="m345.5664 176.54493c-6.91269 8.90895-15.58776 18.26407-24.85546 25.3164-9.2677 7.05232-18.91893 11.50924-27.35547 10.30469-2.54574-.36348-4.4751-1.57662-5.99414-3.33008-1.51904-1.75346-2.6098-4.05577-3.38281-6.54102-1.54604-4.97049-1.81845-10.87328-1.92384-14.22851l-1.04296.19136c.10594 3.37294.35805 9.19633 1.96094 14.34961.80144 2.57664 1.94021 5.00926 3.59375 6.91797 1.65353 1.90871 3.83988 3.28371 6.64062 3.68359 8.90384 1.27129 18.76571-3.37241 28.14258-10.50781s18.44722-17.0305 25.40235-25.99414z" id="path14169" class="top_primary_strong_shade"/></g></svg>