<svg viewBox="0 0 560 1e3"><path d="m251.99197 509.9025c-5.23668 7.36843-4.53715 18.6497-2.744 23.55798 1.47494-6.06602 4.11072-17.56782 2.744-23.55798z" class="highlight1" id="path1141-07-4-0"/><path d="m356.65399 517.81824c6.76776 9.52278 5.86371 24.10242 3.54628 30.44576-1.90617-7.83958-5.31259-22.70422-3.54628-30.44576z" class="highlight1" id="path1141-07-4-0-3"/><path d="m360.4759 558.09508c.81932 1.60231.35659 3.80443-.13802 4.71965-.11582-1.23741-.30375-3.57904.13802-4.71965z" class="highlight1" id="path1141-07-4-0-3-9"/><path d="m247.61623 559.01301c-.81932 1.60231-.35659 3.80443.13802 4.71965.11582-1.23741.30375-3.57904-.13802-4.71965z" class="highlight1" id="path1141-07-4-0-3-9-2"/><path d="m239.97063 629.98426c-1.13405 1.65477-.53336 6.49014.13802 7.3759-.10399-1.20078.025-6.18884-.13802-7.3759z" class="highlight1" id="path1141-07-4-0-3-9-2-6"/><path d="m370.086 637.36953c1.64444 1.34354 1.87091 6.96776 1.08314 8.01095-.0993-1.27689-1.05116-6.87277-1.08314-8.01095z" class="highlight1" id="path1141-07-4-0-3-9-5"/></svg>