<svg viewBox="0 0 560 1e3"><path id="path1698" d="m310.73047 80.589844c1.40134 5.684874 3.88498 16.679847-.0527 22.017576-22.08349 12.02878-58.19886 92.57214-61.47656 159.24024 2.29686.58163 4.74217.81688 7.53711.23632 4.72951-39.00118 12.89748-67.64191 21.15625-88.08593-8.1831 28.99048-11.34543 65.15038-10.02734 113.21679 2.46029.32552 4.92057.59982 7.38086-.38086.90311-64.30461 7.06202-96.79564 13.14257-115.6582-5.11645 36.12863-4.07002 76.11845-.49804 123.72266l6.375-1.16406c-3.89207-93.38906 4.5884-136.21194 11.80859-158.16797.88567-7.04056 4.32315-16.48981 8.5918-17.37696 8.28645 21.93661 16.14566 53.13437 20.3418 158.16602l7.13476 1.16601c.21856-43.85517-1.17115-91.17043-9.16211-132.74414 10.62867 31.89643 16.94192 78.38175 19.13086 125.63282 2.45677.88423 4.98043 1.2334 7.67188.24023 3.069-39.08437-7.68917-98.82198-22.82422-139.85547 11.39286 21.53581 18.85313 60.12397 26.31445 116.0625 1.903.52992 3.85908.95368 6.45703.0937-3.91679-68.58413-12.97933-136.883-59.00199-166.361276z" class="shadow"/><path d="m310.73047 80.589844c1.40134 5.684874 3.88498 16.679847-.0527 22.017576-22.03692 12.02878-56.59987 92.57214-61.47656 159.24024l7.53711.23632c3.86701-39.00118 12.09374-67.64191 21.15625-88.08593-7.0958 28.86967-11.02434 65.1147-10.02734 113.21679l7.38086-.38086c-.1311-64.30461 6.09672-96.79564 13.14257-115.6582-4.10897 35.87676-3.853 76.0642-.49804 123.72266l6.375-1.16406c-5.60727-93.65938 4.35837-136.23788 11.80859-158.16797.88567-7.04056 4.32315-16.48981 8.5918-17.37696 8.33862 21.93009 18.50561 52.83938 20.3418 158.16602l7.13476 1.16601c-1.06969-43.85517-2.54895-91.17043-9.16211-132.74414 11.46787 31.53677 18.3996 77.75703 19.13086 125.63282l7.67188.24023c1.34232-39.85178-8.94672-99.38089-22.82422-139.85547 12.06965 21.987 20.24323 61.0507 26.31445 116.0625l6.45703.0937c-4.2884-68.58413-14.46314-136.883-59.00199-166.361276z" id="path1654" class="hair"/></svg>