<svg viewBox="0 0 560 1e3"><defs><filter style="color-interpolation-filters:sRGB" id="filter78301"><feGaussianBlur stdDeviation="2 2" result="blur" id="feGaussianBlur78299"/></filter><filter style="color-interpolation-filters:sRGB" id="filter78415"><feGaussianBlur stdDeviation="2 2" result="blur" id="feGaussianBlur78413"/></filter><clipPath clipPathUnits="userSpaceOnUse" id="clipPath37315"><path id="path37317" d="m362.57288 386.21612c-.15892.002-.30672.0297-.44429.081-1.22764.45793-2.33398.88769-3.26452 1.28342 1.03685 4.63009 3.86358 11.11275 8.04638 19.55027 4.0899 8.25014 9.19924 17.89453 13.88598 27.91527 9.55756 20.43509 16.59451 41.20136 17.99915 56.31407 2.46392-1.53262 8.30137-3.7572 13.74302-6.27895 5.48011-2.53958 10.4388-5.32268 11.81896-8.05619-.55996 1.10905-3.68177-4.10233-8.2088-12.42997-4.76618-8.76756-10.31694-19.46015-17.56424-31.50929-7.19497-11.96215-14.76744-23.03884-21.69483-32.18529-6.67837-8.81768-11.86984-14.72399-14.3168-14.68436l-1e-5 2e-5zm-24.63927 9.99978c-.55364-.0198-1.12471.0149-1.71718.11163 1.41421 3.40391 4.4665 11.28271 7.0849 18.24334 2.87678 7.64747 6.32003 17.07765 9.34348 27.02548 3.1231 10.27574 5.69793 20.72549 7.59636 32.04234 1.88899 11.26066 2.91285 22.2241 3.4236 33.23293 11.96963-2.96342 23.40826-7.70951 35.20423-10.24202-2.56619.55094-10.46532 2.29778-18.62592-1.7806-4.09472-2.0464-8.20641-5.52581-11.89035-11.35731-3.68687-5.83613-6.90751-13.96419-9.48268-25.32395-.65385-3.28942-1.71392-18.63431-4.8635-33.21993-1.55986-7.22373-3.59945-14.46687-6.11214-19.71945-2.54574-5.32165-5.67101-8.85897-9.9608-9.01246zm-20.07384 6.37731c-4.00593 1.0221-11.93273 3.01594-11.93273 3.01594.85725 4.72793 1.16078 7.52373 3.84782 20.05817 2.2533 10.51112 5.05282 22.54037 7.26696 35.63665 2.27306 13.44481 3.38422 24.75012 4.14152 35.51366.58875 8.36808 1.11557 19.12013 1.13111 19.50058 5.85667-1.72856 12.47423-4.01336 20.7136-6.62342 1.78272-.56472 2.89825-.72658 3.8639-.74601-.14606.003-.28921.001-.44417.012-3.60399.42287-6.03366-4.98554-8.0389-13.58662-1.8296-7.84775-3.80584-21.15929-5.87705-32.76212-2.31487-12.96777-4.80334-24.66538-7.52921-36.14235-2.50936-10.56539-4.9398-20.00086-7.14285-23.8765v2e-5zm-113.54891 6.26194c.5608 3.34569-.44524 2.96612-.94513 4.61858-.80683 2.66714-.54735 7.45327.17789 14.0501.73161 6.6547 1.79805 14.27912 2.09735 22.9214.307 8.86413-.25415 17.06329-1.69832 25.95222-1.35027 8.31093-3.42334 16.6849-4.87801 22.99324 6.91068 2.87976 21.7621 8.59798 21.7621 8.59798 1.08247-9.34255 2.45255-18.00407 3.22532-26.22001.78595-8.35614 1.02885-15.84846.76579-23.57511-.51661-15.17382-3.41254-29.60002-4.7063-45.43213-3.56666-1.13493-11.52512-3.11029-15.80069-3.90627zm84.82698.86645c-5.18306 1.02838-15.32837 3.04872-15.32837 3.04872.71224 4.81203 2.05975 10.92111 4.45512 20.6506 2.34524 9.5258 4.87046 19.39501 7.04027 30.71323 2.19373 11.44302 3.42841 21.28619 4.41312 31.35442.92881 9.49669 1.54838 17.50053 2.11369 22.42137-5.00105.23692-15.00003.67962-15.00003.67962.28114.61202.81389 1.80678.81389 1.80678 3.76067.94539 22.02034-.84917 31.18476-3.30366-.75896.19926-1.48618.36097-2.18224.48811-3.07308-14.76497-3.89061-33.79401-6.65219-53.07998-2.83651-19.80919-7.14865-38.30483-10.85802-54.77921zm-12.3062 108.86796c-4.17847-.0358-8.98822.10392-13.37647.18409 5.72665-.009 9.16254-.22025 13.37647-.18409zM230.19715 413.91582c-.23591-.0536.61102 5.44453 2.20499 13.87164 1.6224 8.57748 3.87603 19.70831 5.02792 31.69657 1.21325 12.62688.9799 23.36.30149 34.27229-.62989 10.13181-1.2601 18.09367-1.50267 21.31293-.25712-.0505-.54745-.11876-.82161-.17801 10.81459 2.75077 23.06516 5.60887 27.40441 7.43981-.0351-1.17049-.10839-3.54168-.10839-3.54168-4.32482-.0146-7.51224-.10748-10.35228-.34591-.25744-7.49811-.32744-16.22928-.70078-25.47872-.39186-9.70828-1.08967-18.55647-2.45541-28.58415-2.62541-19.27654-7.29707-37.35869-6.04937-49.63217-.38378.0489-3.47998-.11352-6.51909-.31084-3.05067-.19808-6.02492-.42995-6.42921-.52176zM407.906 425.64434c2.16725 3.90618 4.2177 8.13748 6.58367 14.74046 2.50299 6.98537 4.96407 15.40258 8.69411 29.60081 2.76859-2.60957 4.01758-4.05206 4.54039-4.44561-.0186-.0413-3.04641-6.62728-6.22936-13.30742-3.62125-7.60004-8.12452-16.77311-13.58881-26.58824zm-45.07986 81.43442c-.38753.093-.77487.18472-1.16372.2736.38859-.0888.77645-.18072 1.16372-.2736zm-2.74397.61956c-.38781.0824-.77564.16662-1.16495.24432.38954-.0778.77691-.16193 1.16495-.24432zm-3.06498.59823c-.28596.0508-.57029.10646-.85718.15446.28697-.048.57114-.10363.85718-.15446zm-9.86631.64425c-.0256-14e-5-.0539.002-.0796.002.29931-7e-4.58752.0102.87772.0285-.2627-.0164-.52893-.0291-.79806-.0305l-2e-5-1e-4zm1.13423.0536c.23192.0168.46476.0317.71595.048-.25116-.0164-.48391-.0313-.71595-.048zm3.37741.0441c-.1169.008-.22954.0141-.34029.0197.11149-.006.22257-.0119.34029-.0197zm-2.2995.0193c.37052.0193.78891.0243 1.24703.0185-.45541.005-.87829 68e-5-1.24703-.0185zm-128.11922 1.84173c1.67076.5847 3.88332 1.23411 6.29062 1.90528-2.23815-.65827-4.41575-1.32581-6.29062-1.90528zm98.21624 5.39855c-3.13376.059-6.83217.3402-8.71532.58033.28303.63862.57753 1.24976.96948 2.01901 3.36138-.57829 6.82139-1.46373 10.58847-2.57527-.82809-.0389-1.80262-.0436-2.84263-.0241v1e-5z" style="display:inline;fill-opacity:.5;fill:#80aab6"/></clipPath><clipPath clipPathUnits="userSpaceOnUse" id="clipPath37319"><path id="path37321" d="m369.37595 366.74677c-6.79969 3.00789-14.07783 6.08902-21.43751 8.93729-4.77045 1.84623-9.63547 3.64544-14.55459 5.37352-4.91897 1.72804-9.9029 3.38864-14.91279 4.958-5.01033 1.56949-10.05916 3.05149-15.11446 4.42199-5.05622 1.37075-10.12651 2.6326-15.19482 3.76427-5.06905 1.13185-10.14152 2.13458-15.2015 2.98749-5.06062.85301-10.11157 1.55581-15.15101 2.0902-2.74486.29107-5.48738.48963-8.23168.60318-2.74418.11354-5.48974.14293-8.24002.0989-5.49966-.0881-11.021-.47144-16.5622-1.07093-5.5407-.59943-11.10451-1.41564-16.68447-2.36802-2.04419-.34889-3.67594-.6579-5.73167-1.04091.29049 3.42832 1.38525 9.97247 1.9518 13.35255 4.27567.796 12.23318 2.77124 15.79988 3.90618 1.29371 15.8321 4.18992 30.25836 4.70679 45.43224.26319 7.72667.0204 15.21904-.76544 23.5752-.77266 8.21596-2.14267 16.87749-3.22516 26.22004.14301.98103.41686 2.91214.41686 2.91214 4.49599 1.38956 10.84487 3.35504 14.985 4.16828.24258-3.21925.87279-11.1811 1.50261-21.31287.67834-10.91225.9116-21.64535-.30175-34.27218-1.15198-11.9882-3.40569-23.11904-5.02814-31.69646-1.59401-8.42708-2.44095-13.92516-2.20505-13.87159.4043.0918 3.37851.32369 6.42914.52176 3.03907.19733 6.13523.35969 6.519.31082-1.24771 12.27353 3.42411 30.35583 6.04961 49.63267 1.36578 10.02782 2.06361 18.87611 2.45548 28.5845.37335 9.24954.44336 17.98077.70081 25.47888 2.84053.23848 6.02952.33089 10.35547.34539 4.57682-.0765 9.71407-.238 14.12458-.20016 5.00125-.21605 15.00061-.67889 15.00061-.67889-.56532-4.92084-1.18481-12.92466-2.11348-22.42131-.98456-10.0682-2.21905-19.91129-4.41257-31.35428-2.16958-11.31814-4.69459-21.18734-7.03964-30.71309-2.39523-9.72955-3.7426-15.8384-4.45486-20.65053 5.02721-1.0046 15.32719-3.04914 15.32719-3.04914 3.70939 16.4744 8.02145 34.96996 10.85789 54.7791 2.76151 19.28592 3.57899 38.3149 6.65207 53.07987.69606-.12714 1.42275-.28975 2.18171-.48901.86254-.23101 1.37417-.2055 1.9159-.2142 2.51001-.32006 8.24747-.71222 11.56965-.55503-.0155-.37901-.54212-11.12688-1.13094-19.49619-.75724-10.76323-1.86827-22.0695-4.14146-35.5154-2.21438-13.0981-5.01415-25.12762-7.26809-35.64068-2.68756-12.53561-2.99142-15.33272-3.84871-20.06069 3.95303-.99071 11.93338-3.01569 11.93338-3.01569 2.20307 3.87563 4.63365 13.31111 7.14314 23.8765 2.72602 11.477 5.21461 23.17455 7.5296 36.14235 2.07133 11.60287 4.04768 24.91433 5.87737 32.76212 2.00532 8.60109 4.43505 14.0095 8.03903 13.58662 1.96242-.1344 3.0693.41541 6.88296-.0853 3.51128-.46103 6.94604-1.15639 10.33353-1.995-.51048-11.00934-1.53405-21.97357-3.42288-33.23506-1.89826-11.31776-4.47308-21.76834-7.59637-32.04505-3.02365-9.94882-6.4672-19.37973-9.34434-27.02801-2.61863-6.96109-5.67144-14.84101-7.08568-18.24496 4.7505-.77188 8.17316 2.28616 10.92331 7.4062 2.71101 5.04716 4.88936 12.38249 6.55751 19.80436 3.36975 14.99257 4.49831 31.23355 5.17325 34.62908 2.57518 11.35976 5.79589 19.48777 9.48287 25.32381 3.68406 5.83141 7.7959 9.3107 11.89077 11.35699 8.16089 4.07816 16.06031 2.33108 18.62649 1.78014 1.04316-1.90783-1.01163-5.40954-.0735-5.26834-1.40464-15.11266-8.442-35.87918-18.00005-56.31436-4.68699-10.02081-9.7966-19.66528-13.88672-27.91547-4.18301-8.43757-7.00987-14.92028-8.04671-19.55036.93053-.39572 2.03698-.82497 3.26461-1.2829 2.17084-.80975 7.16368 4.68503 13.81749 13.36424 6.85019 8.93538 14.64538 20.22823 21.97062 32.31657 7.45966 12.31018 13.09105 23.14244 18.01613 32.2171 4.64559 8.55969 7.85636 13.95837 8.42616 12.82984-.32454-2.69559.041-4.20713-1.17422-7.03947-3.74263-14.24614-6.20893-22.67638-8.71822-29.66918-2.37149-6.6088-4.42714-10.8382-6.60397-14.75431-5.36393-9.62919-10.92737-18.55858-16.088-26.14178-4.97774-7.31445-9.10433-12.69995-11.11334-13.89309-5.26515-3.12694-5.79135-5.01779-6.19318-6.06717-1.9365-4.21957-3.69983-8.48573-5.09112-12.71334z" clip-path="none" style="display:inline;fill-opacity:.5;fill:#80122f"/></clipPath></defs><path id="path35452" d="m369.37595 366.74677c-6.79969 3.00789-14.07783 6.08902-21.43751 8.93729-4.77045 1.84623-9.63547 3.64544-14.55459 5.37352-4.91897 1.72804-9.9029 3.38864-14.91279 4.958-5.01033 1.56949-10.05916 3.05149-15.11446 4.42199-5.05622 1.37075-10.12651 2.6326-15.19482 3.76427-5.06905 1.13185-10.14152 2.13458-15.2015 2.98749-5.06062.85301-10.11157 1.55581-15.15101 2.0902-2.74486.29107-5.48738.48963-8.23168.60318-2.74418.11354-5.48974.14293-8.24002.0989-5.49966-.0881-11.021-.47144-16.5622-1.07093-5.5407-.59943-11.10451-1.41564-16.68447-2.36802-2.04419-.34889-3.67594-.6579-5.73167-1.04091.29049 3.42832 1.38525 9.97247 1.9518 13.35255.56078 3.34569-.44608 2.96604-.94596 4.61849-.80684 2.66714-.54731 7.4533.17801 14.05019.73169 6.65476 1.79823 14.27926 2.09764 22.92162.3071 8.8642-.25397 17.06344-1.69808 25.95243-1.35021 8.311-3.42325 16.68499-4.87793 22.99334 6.91078 2.87964 21.76239 8.59759 21.76239 8.59759.14301.98103.41686 2.91214.41686 2.91214 9.7435 3.40979 35.01596 8.66561 41.56784 11.43018-.0355-1.17351-.10949-3.55076-.10949-3.55076 6.23237.0125 9.71755-.22827 14.1284-.19043.28134.61226.81448 1.80751.81448 1.80751 3.76066.94539 22.01999-.8503 31.18445-3.30479.86254-.23101 1.37417-.2055 1.9159-.2142.28304.63864.57603 1.2504.96799 2.01968 8.56891-1.47418 17.78025-4.91568 31.31382-9.20283 4.92673-1.56068 4.79988-.0956 10.30412-.81826 15.92065-2.09029 30.40314-8.99805 45.53847-12.2475 1.04315-1.90783-1.01164-5.40954-.0735-5.26834 2.46392-1.53262 8.30126-3.75725 13.7428-6.27905 5.48-2.53963 10.43858-5.32278 11.81873-8.05629-.32454-2.69559.041-4.20713-1.17422-7.03947 2.76859-2.60957 4.01699-4.05275 4.53979-4.44629-.026-.0576-2.98796-6.50033-6.1233-13.0863-3.55151-7.46013-7.99772-16.53647-13.37268-26.23229-5.41111-9.76101-11.02332-18.80178-16.2783-26.5419-5.05547-7.44625-9.25922-12.94608-11.28904-14.15158-5.26514-3.12694-5.79135-5.01779-6.19318-6.06717-1.9365-4.21955-3.69982-8.48567-5.09112-12.71326z" class="bottoms_primary"/><g clip-path="url(#clipPath37319)" style="filter:url(#filter78301)" id="g35496"><g id="g35464" style="display:inline"><path id="path35454" d="m297.05632 519.91601c-.93408-8.79719-1.95005-21.51324-3.54662-33.23287-1.77569-13.03441-4.0977-24.25944-7.33058-36.67051-3.02713-11.62121-6.18982-22.06141-8.19103-29.60281-2.00137-7.54201-2.92264-12.18408-2.92264-12.18408-1.50296.0727-11.24439.53236-12.74735.60503-4.19821.19828-7.48849.35425-7.48849.35425-1.96948 14.11282 2.68008 31.8556 5.90621 51.87587 1.6707 10.36784 2.73073 19.64471 3.39722 30.37026.63609 10.23636.77226 20.4539 1.29647 30.23754.9875-.0548 30.6393-1.69787 31.62681-1.75268z" class="bottoms_primary_highlight"/><path id="path35456" d="m297.05632 519.91601c-.85749-8.79239-1.76124-21.51819-3.24721-33.23323-1.65398-13.03954-3.86288-24.25515-6.96152-36.67177-2.9003-11.62185-5.93686-22.06293-7.84379-29.60507-1.90705-7.54261-2.7675-12.18539-2.7675-12.18539-5.29749.32981-15.46907.94084-15.46907.94084 1.6222 10.35129 4.13268 19.87532 7.14494 33.13497 2.98651 13.14631 5.00281 24.09847 6.31703 36.7068 1.18594 11.37759 1.56169 22.49143 1.86369 29.78637.31428 7.59147.61342 12.25694.61342 12.25694.56915-.0317 19.78085-1.09882 20.35001-1.13046z" class="bottoms_primary_highlight"/><path id="path35458" d="m297.05632 519.91601c-.77151-9.32083-1.37983-20.99126-2.73663-33.23384-1.44612-13.04858-3.46218-24.24758-6.331-36.67395-2.27037-9.83417-4.97923-19.7748-7.2496-29.60898-1.74574-7.54366-2.50238-12.18761-2.50238-12.18761-2.41311.3147-7.17706.90685-7.17706.90685 1.21831 10.21935 3.37113 19.86088 5.94912 32.97178 2.57729 13.10731 4.33269 23.94668 5.41949 36.51503.98684 11.41224 1.18959 22.27452 1.36105 29.6265.17612 7.55153.36024 12.1927.36024 12.1927.79652-.0314 12.11025-.4771 12.90677-.50848z" class="bottoms_primary_highlight"/><path id="path35460" d="m297.05632 519.91601c-.77151-9.32083-1.37983-20.99126-2.73663-33.23384-1.44612-13.04858-3.46218-24.24758-6.331-36.67395-2.27037-9.83417-4.97923-19.7748-7.2496-29.60898-1.74574-7.54366-2.50238-12.18761-2.50238-12.18761-2.41311.3147-7.17706.90685-7.17706.90685 1.77452 10.29333 4.4033 19.88141 7.60003 33.07775 3.17753 13.11708 5.4061 24.06043 7.01609 36.6377 1.46528 11.44678 2.11593 22.35415 2.58303 29.72713.47999 7.57653.83982 12.23465.83982 12.23465.0482-.005 7.90949-.87437 7.9577-.8797z" class="bottoms_primary_highlight"/><path id="path35462" d="m297.05632 519.91601c-.77151-9.32083-1.37983-20.99126-2.73663-33.23384-1.44612-13.04858-3.46218-24.24758-6.331-36.67395-2.27037-9.83417-4.97923-19.7748-7.2496-29.60898-1.74574-7.54366-2.50238-12.18761-2.50238-12.18761-2.41311.3147-7.17706.90685-7.17706.90685 1.77452 10.29333 4.4033 19.88141 7.60003 33.07775 3.17753 13.11708 5.4061 24.06043 7.01609 36.6377 1.46528 11.44678 2.11593 22.35415 2.58303 29.72713.47999 7.57653.83982 12.23465.83982 12.23465.0482-.005 7.90949-.87437 7.9577-.8797z" class="bottoms_primary_highlight"/></g><g id="g35476" style="display:inline"><path id="path35466" d="m328.00249 516.05293c-.64384-9.34311-1.31364-21.17702-2.67669-33.45378-1.45638-13.11737-3.40879-24.41631-6.01405-36.91319-2.43955-11.70209-4.88839-22.22018-6.34931-29.81908-1.4608-7.59832-2.02737-12.27813-2.02737-12.27813-4.89893 1.07307-14.62507 3.18394-14.62507 3.18394 2.04286 11.91587 3.57888 18.30874 6.62956 33.42679 2.72811 13.51956 4.56475 24.4208 6.05572 37.33721 1.36467 11.82231 2.08563 22.37419 3.03222 29.70894.94595 7.32989 2.10803 11.45897 3.65734 10.43735.33536-.0444 11.98229-1.58561 12.31765-1.63005z" class="bottoms_primary_highlight"/><path id="path35468" d="m326.73528 516.05348c-.66035-9.34658-1.34981-21.17204-2.74279-33.45212-1.4879-13.11684-3.47572-24.41464-6.12346-36.91067-2.47931-11.70113-4.96489-22.21822-6.4479-29.81645-1.48288-7.59762-2.05835-12.2771-2.05835-12.2771-1.65063.31166-4.97347.90313-4.97347.90313 1.27103 10.18098 3.52442 20.22147 6.32483 33.31967 2.84184 13.29196 4.94924 24.13882 6.58688 36.87916 1.50904 11.7399 2.20957 22.27342 2.6807 29.91689.47017 7.62798.74097 12.31925.74097 12.31925.0813-.0119 5.93126-.86982 6.01259-.88175z" class="bottoms_primary_highlight"/><path id="path35470" d="m326.73528 516.05348c-.66035-9.34658-1.34981-21.17204-2.74279-33.45212-1.4879-13.11684-3.47572-24.41464-6.12346-36.91067-2.47931-11.70113-4.96489-22.21822-6.4479-29.81645-1.48288-7.59762-2.05835-12.2771-2.05835-12.2771-1.65063.31166-4.97347.90313-4.97347.90313 1.27103 10.18098 3.52442 20.22147 6.32483 33.31967 2.84184 13.29196 4.94924 24.13882 6.58688 36.87916 1.50904 11.7399 2.20957 22.27342 2.6807 29.91689.47017 7.62798.74097 12.31925.74097 12.31925.0813-.0119 5.93126-.86982 6.01259-.88175z" class="bottoms_primary_highlight"/><path id="path35472" d="m326.73528 516.05348c-.66035-9.34658-1.34981-21.17204-2.74279-33.45212-1.4879-13.11684-3.47572-24.41464-6.12346-36.91067-2.47931-11.70113-4.96489-22.21822-6.4479-29.81645-1.48288-7.59762-2.05835-12.2771-2.05835-12.2771-1.3381.26849-4.04156.77428-4.04156.77428 1.30659 10.19309 3.59299 20.24389 6.43284 33.35762 2.8812 13.30463 5.01941 24.16893 6.69281 36.92128 1.54213 11.75192 2.27346 22.30016 2.76643 29.95102.49205 7.6367.7757 12.3334.7757 12.3334.0418-.008 4.7045-.87349 4.74628-.88125z" class="bottoms_primary_highlight"/><path id="path35474" d="m326.73528 516.05348c-.66035-9.34658-1.34981-21.17204-2.74279-33.45212-1.4879-13.11684-3.47572-24.41464-6.12346-36.91067-2.47931-11.70113-4.96489-22.21822-6.4479-29.81645-1.48288-7.59762-2.05835-12.2771-2.05835-12.2771-.60873.18169-1.86189.51482-1.86189.51482 1.19906 10.17448 3.37589 20.23384 6.08691 33.32561 2.75458 13.30215 4.80051 24.13388 6.38629 36.88354 1.46156 11.75096 2.12858 22.2652 2.57462 29.91947.44454 7.62872.69653 12.32064.69653 12.32064.0301-.004 3.45995-.50335 3.49004-.50773z" class="bottoms_primary_highlight"/></g><g id="g35482" style="display:inline"><path id="path35478" d="m227.71567 516.32583c.56517-8.8831 2.24251-20.0185 3.12977-31.69599.94632-12.45493.74684-23.11418-.61909-34.95881-1.16471-10.09979-3.42671-21.97936-4.48089-28.18698-1.21932-7.18004-1.73422-11.59649-1.73422-11.59649-2.73061-.39593-7.9982-1.20191-7.9982-1.20191.85024 8.80623 2.92878 19.79721 4.33619 31.36253 1.49982 12.32465 1.81405 22.94975.69315 34.78447-1.00877 10.65084-3.21661 21.48078-4.47092 28.26386-1.33347 7.21117-1.91919 11.63067-1.91919 11.63067.62064.0762 12.44276 1.5224 13.0634 1.59865z" class="bottoms_primary_highlight"/><path id="path35480" d="m222.53924 513.84752c.97552-8.69054 3.037-19.58134 4.23744-30.99972 1.27716-12.14819 1.30364-22.62964.21613-34.17959-.92275-9.80006-2.90719-21.56318-3.79316-27.55866-1.03736-7.01996-1.44204-11.33881-1.44204-11.33881-1.93925-.35504-5.74457-1.08509-5.74457-1.08509.85024 8.80623 2.92878 19.79721 4.33619 31.36253 1.49982 12.32465 1.81405 22.94975.69315 34.78447-1.00877 10.65084-3.21661 21.48078-4.47092 28.26386-1.33347 7.21117-1.91919 11.63067-1.91919 11.63067-.12182.0136 8.0088-.89326 7.88697-.87966z" class="bottoms_primary_highlight"/></g><g id="g35488"><path id="path35484" d="m359.11978 510.20155c-3.68123 1.11221-6.44429-2.96567-8.78911-10.27289-2.33913-7.2895-4.28688-17.87739-6.71029-29.68423-2.67362-13.02588-5.14945-23.73126-8.82441-37.3687-2.80678-10.41565-7.3823-26.2472-9.58561-33.43414 4.79671-1.72886 13.18558-4.75224 19.25789-6.95829 6.40715-2.3277 11.45085-4.19065 11.45085-4.19065 2.95599 9.30577 7.49282 19.34314 11.98527 29.27895 4.76537 10.53943 8.85883 19.62482 12.8366 30.03116 7.53047 19.70066 12.23885 38.51586 12.94496 52.8652-10.9299 3.11221-23.51405 6.6334-34.56615 9.73359z" class="bottoms_primary_highlight"/><path id="path35486" d="m365.44182 508.25825c-3.44362.27429-6.12665-4.27539-8.50882-11.82518-2.35503-7.46378-4.50483-18.19169-7.08184-29.83322-2.88431-13.02979-5.43302-23.32788-9.17001-36.89181-.25028-.90844-9.90855-35.25286-9.30559-33.11319 1.76603-.37109 5.24373-1.14153 5.24373-1.14153 8.02551 21.39961 13.92098 36.78125 19.52162 58.99656 4.9283 19.54846 7.65523 37.92445 11.50755 51.86771.0467-.041-2.25336 1.9817-2.20664 1.94066z" class="bottoms_primary_highlight"/></g><g id="g35494"><path id="path35490" d="m424.20872 479.65891c-6.37779-22.17096-12.86564-39.40588-22.24004-55.92347-9.44833-16.64786-19.79113-29.08195-30.75298-42.36536 4.34692-.62955 12.71502-1.92029 12.71502-1.92029 11.10214 11.39982 21.18291 22.97293 29.02598 39.04692 7.68513 15.75029 12.68586 34.94839 15.60688 59.91367-1.43526.41621-2.88773.83248-4.35486 1.24853z" class="bottoms_primary_highlight"/><path id="path35492" d="m426.39452 479.74173c-6.44739-22.23746-12.4508-39.65841-21.27755-56.55534-8.81074-16.86629-18.66535-29.80848-29.37312-42.99702 2.8184-.23957 8.18687-.73958 8.18687-.73958 11.10214 11.39982 21.18291 22.97293 29.02598 39.04692 7.68513 15.75029 12.68586 34.94839 15.60688 59.91367-.71768.44381-1.44086.88763-2.16906 1.33135z" class="bottoms_primary_highlight"/></g></g><path id="path35500" d="m369.37816 366.74613c-6.7979 3.00713-14.0818 6.09034-21.43972 8.93793-4.77045 1.84623-9.63547 3.64544-14.55459 5.37352-4.91897 1.72804-9.9029 3.38864-14.91279 4.958-5.01033 1.56949-10.05916 3.05149-15.11446 4.42199-5.05622 1.37075-10.12651 2.6326-15.19482 3.76427-5.06905 1.13185-10.14152 2.13458-15.2015 2.98749-5.06062.85301-10.11157 1.55581-15.15101 2.0902-2.74486.29107-5.48738.48963-8.23168.60318-2.74418.11354-5.48974.14293-8.24002.0989-5.49966-.0881-11.021-.47144-16.5622-1.07093-5.5407-.59943-11.10451-1.41564-16.68447-2.36802-1.80673-.30837-3.91435-.69423-5.74466-1.03933.31406 4.11384 1.30449 9.39835 2.09589 14.41639 17.62219 3.58482 38.75525 6.35846 58.5916 4.2124 18.06573-1.94096 38.21001-6.74667 57.80538-12.80639 19.7917-6.12042 38.6179-13.39441 54.14985-20.54569-2.14825-4.65384-4.10632-9.3707-5.6108-14.03392z" class="bottoms_accent"/><g clip-path="url(#clipPath37315)" style="filter:url(#filter78415)" id="g35550"><g id="g35508" transform="translate(220.8719,-12.948485)"><g id="g35506"><path id="path35502" d="m134.34387 399.15213c1.3431-.33253 3.96323-1.02377 3.96323-1.02377 8.55432 10.73897 16.11928 21.47626 22.95379 32.9711 6.84007 11.50418 11.85611 21.89837 16.51654 31.97021 9.03582 19.52768 15.18247 33.90665 23.49198 34.31995-6.89506 2.4537-12.47176 6.2593-17.61441 8.3901-5.15413 2.13557-9.84919 2.58235-15.26747-1.65134-8.65615-35.10118-24.41298-70.02465-34.04366-104.97625z" class="bottoms_primary_shade"/><path id="path35504" d="m134.34387 399.15213c6.37479 6.43837 12.52283 15.76666 17.97111 25.70424 5.65659 10.31752 10.35924 20.88692 14.83096 31.70153 8.7679 21.20464 15.2882 40.1524 25.37829 45.09793-7.12685 2.45126-10.55198 5.18874-13.44331 6.25381-2.90424 1.06982-5.27501.45251-10.69339-3.78126-8.65615-35.10118-24.41298-70.02465-34.04366-104.97625z" class="bottoms_primary_shade"/></g></g><g id="g35514"><path id="path35510" d="m268.35799 410.58856c4.26308-.54408 12.93501-1.66527 12.93501-1.66527 2.84202 18.78298 8.18794 37.33867 11.40993 56.27018 3.222 18.93152 4.16238 38.24412 6.74095 58.32288-9.06733.0109-27.23014.003-27.23014.003.48935-37.64716-2.6267-75.35988-3.85575-112.93058z" class="bottoms_primary_shade"/><path id="path35512" d="m268.35799 410.58856c2.21227-.20437 6.68249-.64713 6.68249-.64713 3.21492 18.77458 8.77909 37.01633 12.16756 55.63433s4.46692 37.61791 7.19567 57.69292c-7.39292.0936-22.18997.25046-22.18997.25046.48935-37.64716-2.6267-75.35988-3.85575-112.93058z" class="bottoms_primary_shade"/></g><g id="g35520"><path id="path35516" d="m236.70666 411.69514c3.38129.24266 10.39531.7061 10.39531.7061 2.44567 9.3149 6.34738 20.94786 9.84304 33.18719 3.7368 13.08369 6.17733 24.24304 7.93366 36.79229 1.52055 10.86461 2.46293 23.08552 3.09707 29.85289.71264 7.60506 1.35418 12.2774 1.35418 12.2774-3.6276 3.57266-17.72338-3.16207-26.51454-4.58136.008-9.71611.80337-20.57112.94538-31.56311.15006-11.61472-.41744-21.49651-1.82586-32.40617-1.32832-10.28915-3.18921-19.74567-4.34488-27.43589-1.17674-7.8305-1.56307-13.47503-.88336-16.82934z" class="bottoms_primary_shade"/><path id="path35518" d="m241.545 412.66729c1.83182-.0779 5.55697-.26605 5.55697-.26605 2.44567 9.3149 6.34738 20.94786 9.84304 33.18719 3.7368 13.08369 6.17733 24.24304 7.93366 36.79229 1.52055 10.86461 2.46293 23.08552 3.09707 29.85289.71264 7.60506 1.35418 12.2774 1.35418 12.2774-3.62013 3.5653-10.39904-1.42208-19.22329-2.84794-1.01642-9.95867-.95164-21.45661-1.27662-32.41063-.35493-11.96387-1.08851-21.49048-2.58625-32.58424-1.26563-9.37447-2.89044-17.91836-4.15606-27.29283-1.03653-7.76149-1.27082-13.35874-.5427-16.70808z" class="bottoms_primary_shade"/></g><g id="g35530"><path id="path35522" d="m229.3708 486.81093c-.7108-.0578-.96378.0383-1.59169-.0258.64263-.0763.78124-.1912 1.59169.0258z" style="fill:#010101"/><path id="path35524" d="m212.83879 409.42031c4.46535.61498 13.76149 1.81227 13.76149 1.81227.95235 8.53605 2.9917 19.19289 4.55744 30.40363 1.66808 11.9435 2.36601 22.24575 1.968 33.7057-.36234 10.43327-1.67012 20.68664-2.4533 27.37344-.81777 6.98213-1.1863 11.26714-1.1863 11.26714-4.18895-1.22448-9.33279-2.74087-14.38403-4.25612-4.74195-1.42246-8.44571-2.56098-8.44571-2.56098 2.81141-7.65277 5.3446-16.59809 6.8267-25.88669 1.53366-9.61172 1.83043-18.68755 1.19819-28.23309-.61195-9.23931-2.08604-18.02956-2.89053-25.5677-.81424-7.6296-.85846-13.73461 1.04805-18.0576z" class="bottoms_primary_shade"/><path id="path35526" d="m217.59122 409.77773c2.92413.48825 9.00906 1.45485 9.00906 1.45485.95235 8.53605 2.9917 19.19289 4.55744 30.40363 1.66808 11.9435 2.36601 22.24575 1.968 33.7057-.36234 10.43327-1.67012 20.68664-2.4533 27.37344-.81777 6.98213-1.1863 11.26714-1.1863 11.26714-3.35419-1.16193-7.43454-2.58734-11.48662-4.02448-3.79186-1.34486-6.76602-2.42168-6.76602-2.42168 2.72847-7.65989 5.1311-16.58839 6.50934-25.88412 1.42572-9.61594 1.64805-18.68189 1.01537-28.2336-.61206-9.24055-2.00759-18.03326-2.68126-25.57438-.6815-7.62861-.55201-13.74491 1.51429-18.0665z" class="bottoms_primary_shade"/><path id="path35528" d="m221.80928 410.13603c1.58933.37321 4.791 1.09655 4.791 1.09655.95235 8.53605 2.9917 19.19289 4.55744 30.40363 1.66808 11.9435 2.36601 22.24575 1.968 33.7057-.36234 10.43327-1.67012 20.68664-2.4533 27.37344-.81777 6.98213-1.1863 11.26714-1.1863 11.26714-4.81738-2.01468-14.27043-6.07513-14.27043-6.07513 2.66515-7.66501 4.97019-16.58132 6.27428-25.8823 1.3488-9.61985 1.52284-18.67734.90186-28.23462-.60047-9.24176-1.92203-18.03671-2.4834-25.58039-.56763-7.62798-.29488-13.75349 1.90085-18.07402z" class="bottoms_primary_shade"/></g><g id="g35538"><path id="path35532" d="m337.43782 437.46158c3.42674 3.79208 3.14429 2.51384 5.66365 3.61324-2.3073-1.28661-2.21439.0335-5.66365-3.61324z" style="fill:#010101"/><path id="path35534" d="m298.51438 404.99986c4.33548-.99898 13.13508-3.04538 13.13508-3.04538 1.6496 5.5539 5.39744 20.27311 7.82214 30.30572 3.13 12.95094 5.54772 24.24991 7.76562 37.54777 2.05848 12.34197 3.45966 23.81334 5.10857 32.3032 1.64964 8.49369 3.58929 13.99448 6.28177 14.4352-10.3507 2.08857-30.82318 6.22405-30.82318 6.22405-.80004-39.28247-7.48991-78.56286-9.29-117.77056z" class="bottoms_primary_shade"/><path id="path35536" d="m298.51438 404.99986c3.05727-.33554 9.17545-1.03935 9.17545-1.03935 1.02787 2.74591 2.67339 11.15592 5.34661 22.25318 2.907 12.06779 5.9179 23.91651 8.82821 38.41826 2.37807 11.84962 4.27874 24.9295 6.65681 36.77911 1.98671 9.99276 4.13195 16.68326 6.83952 17.12705-9.22873 1.42311-27.5566 4.23231-27.5566 4.23231-.80004-39.28247-7.48991-78.56286-9.29-117.77056z" class="bottoms_primary_shade"/></g><g id="g35548"><path id="path35540" d="m330.48643 395.01601c5.40698-1.75308 16.13381-5.29467 16.13381-5.29467 2.71343 13.75856 7.84607 28.93336 12.80455 45.73284 4.50561 15.26516 7.33771 27.47491 7.33771 27.47491 2.96894 14.97344-1.31414 31.02385 19.49232 42.0393-9.4185 2.33836-28.36313 6.96484-28.36313 6.96484-5.75294-39.06706-19.69819-77.99736-27.40526-116.91722z" class="bottoms_primary_shade"/><path id="path35542" d="m330.48643 395.01601c5.40698-1.75308 16.13381-5.29467 16.13381-5.29467 2.71343 13.75856 7.84607 28.93336 12.80455 45.73284 4.50561 15.26516 7.33771 27.47491 7.33771 27.47491-2.81433 1.2524-6.65952-.34152-10.41187-2.60838-3.75018-2.26556-7.42178-5.1996-9.56223-6.62863-5.10979-19.58726-12.4445-39.11178-16.30197-58.67607z" class="bottoms_primary_shade"/><path id="path35544" d="m330.48643 395.01601c2.05679-.15917 6.09649-.50609 6.09649-.50609.21896 2.58053 4.96127 3.06939 9.45832 10.38401 2.24003 3.64347 4.49206 9.03454 6.28214 17.20515 1.74737 7.97568 3.2073 19.39962 3.16983 34.14478-5.72928 2.5121-4.43188.30096-8.70481-2.55178-5.10979-19.58726-12.4445-39.11178-16.30197-58.67607z" class="bottoms_primary_shade"/><path id="path35546" d="m330.48643 395.01601c9.66816 4.67979 14.57347 13.29878 17.35307 24.0294 2.76461 10.67278 3.48233 23.87994 3.65882 37.46014-5.7391 2.51365-.44004.0373-4.70992-2.81347-5.10979-19.58726-12.4445-39.11178-16.30197-58.67607z" class="bottoms_primary_shade"/></g></g></svg>