<svg viewBox="0 0 560 1e3"><defs><clipPath clipPathUnits="userSpaceOnUse" id="clipPathTorsoUnnatural"><path style="display:inline;fill-opacity:1;fill:#0ff;opacity:1" d="m330.55078 146.24219-33.94726 3.49414c-.60023 11.74644 4.71263 22.22405 4.14257 32.1582-3.83498 2.97182-5.98164 3.47574-13.82226 5.20313-.50811.12713-.99038.25932-1.45703.39453-3.72264.82253-9.04126 2.01096-14.32032 3.34179-8.65971 10.94361-15.77788 17.65645-24.83789 40.22852-7.97663 19.22419-2.76622 39.20128 6.8418 56.00977-1.06764 11.32585-1.52592 26.55771 1 35.50195-11.37059 21.52353-15.89766 23.525-18.09766 43.625-1.1 10.1-2.23134 20.37109-6.00781 40.87109 1.79918 21.68192 24.06434 28.08621 33.55274 33.19727 14.43169 10.04215 15.75568 13.80686 22.99414 21.73047 2.40278 1.2769 6.48148.50653 7.11523-.33399l1.04492-.0117c1.31243 1.17872 7.86741 1.71406 11.33008.17774 1.25908-5.51105 3.06526-22.40357 25.5332-37.0293 9.99479-6.9207 28.66489-25.38486 47.28125-34.05664-9.1-20.7-12.62221-28.06668-19.58398-39.49609-3.8841-8.49646-20.35167-24.94928-20.57812-24.78321.17394-.53763-12.86413-13.70783-12.93165-15.85937 2.56898-6.32141 6.07277-31.48998 8.07422-32.87695 17.10876-11.85604 23.08422-25.51867 27.05078-41.16602-.3269-2.17434-.47181-3.26841-.6582-5.75-1.66961-10.3676-2.48045-23.52968-5.33008-34.10742.025-10.96207 3.83399-17.95313 3.83399-17.95313-3.25954-.78952-9.49632-1.47902-12.42774-1.80664.0206-.0319.042-.0618.0625-.0937-7.39171-1.56131-16.05124-2.24254-15.85742-30.60937z" id="path13423"/></clipPath><clipPath clipPathUnits="userSpaceOnUse" id="clipPathTorsoHourglass"><path style="display:inline;fill-opacity:1;fill:#f0f;opacity:1" d="m330.55078 146.24219-33.94726 3.49414c-.60023 11.74644 4.71263 22.22405 4.14257 32.1582-3.83498 2.97182-5.98164 3.47574-13.82226 5.20313-.56276.1408-1.09742.28682-1.60938.4375-3.67844.81605-7.62914 1.65042-14.16797 3.29882-8.65971 10.94361-15.77788 17.65645-24.83789 40.22852-5.87551 18.9358-2.9645 38.67948 2.8418 56.00977-1.06764 11.32585-1.52592 26.55771 1 35.50195-11.37059 21.52353-11.89766 23.525-14.09766 43.625-1.1 10.1-2.23134 20.37109-6.00781 40.87109 1.79918 21.68192 24.06434 28.08621 33.55274 33.19727 14.43169 10.04215 15.75568 13.80686 22.99414 21.73047 1.37693.26708 4.09368 1.61095 7.06445-.26758l1.11133-.0781c1.17404 1.57274 8.90177 1.53055 11.31445.17774 1.25908-5.51105 3.06526-22.40357 25.5332-37.0293 9.99479-6.9207 28.66489-25.38486 47.28125-34.05664-9.1-20.7-12.62221-28.06668-19.58398-39.49609-3.8841-8.49646-20.35168-24.94928-20.57812-24.78321.17394-.53763-7.38366-13.70783-7.45118-15.85937 2.56898-6.32141 6.52259-31.00027 8.07422-32.87695 3.11188-3.76379 5.69391-7.22683 7.88672-10.51954 7.0161-10.53536 10.04592-19.32698 13.68359-30.64648-.3269-2.17434-.47181-3.26841-.6582-5.75-1.66961-10.3676-2.48045-23.52968-5.33008-34.10742.025-10.96207 3.83399-17.95313 3.83399-17.95313-4.4617-1.08069-8.62379-1.33294-12.38086-1.87695.005-.008.0105-.0154.0156-.0234-7.39171-1.56131-16.05124-2.24254-15.85742-30.60937z" id="path13449"/></clipPath><clipPath clipPathUnits="userSpaceOnUse" id="clipPathTorsoNormal"><path style="display:inline;fill-opacity:1;fill:#f9ff00;opacity:1" d="m330.55078 146.24219-33.94726 3.49414c-.60023 11.74644 4.71263 22.22405 4.14257 32.1582-3.83498 2.97182-5.98164 3.47574-13.82226 5.20313-.58083.14532-1.12952.29729-1.65625.45312-3.72076.82535-7.55904 1.62893-14.1211 3.2832-8.65971 10.94361-15.77788 17.65645-24.83789 40.22852-5.87551 18.9358-2.9645 38.67948 2.8418 56.00977-1.06764 11.32585-1.52592 26.55771 1 35.50195-11.37059 21.52353-11.89766 23.525-14.09766 43.625-1.1 10.1-2.23134 20.37109-6.00781 40.87109 1.79918 21.68192 24.06434 28.08621 33.55274 33.19727 14.43169 10.04215 15.75568 13.80686 22.99414 21.73047.78119.55861 4.78693 1.49428 7.05664-.26758l1.14258-.0781c1.51181 1.59807 9.57688 1.45961 11.29101.17774 1.25908-5.51105 3.06526-22.40357 25.5332-37.0293 9.99479-6.9207 28.66489-25.38486 47.28125-34.05664-9.1-20.7-12.62221-28.06668-19.58398-39.49609-23.58113-57.47054-9.98057-57.2743 1.61523-114.68555-.3269-2.17434-.47181-3.26841-.6582-5.75-1.66961-10.3676-2.48045-23.52968-5.33008-34.10742.025-10.96207 3.83399-17.95313 3.83399-17.95313-4.46045-1.0804-8.62863-1.32705-12.38672-1.86914.007-.0108.0146-.0205.0215-.0312-7.39171-1.56131-16.05124-2.24254-15.85742-30.60937z" id="path13552"/></clipPath></defs><g id="g18652" transform="matrix(0.85420876,0,0.01984634,0.85420876,30.19177,55.210385)" style="stroke-width:1.17067"><path d="m311.04401 327.6899c.0522-.10709 7.00362.37294 7.78287 2.98975 1.09373 1.91041-2.71095 5.0065-2.81525 4.94713-.0624-.10254 7.16168-.42581 8.18384 2.13824.82618 2.04666-4.36222 4.60347-4.41092 4.5368.18756-.13865 8.76141.0136 9.37508 2.95661 1.12339 2.7339-5.04179 6.86259-5.08064 6.76687.17801-.0914 6.83044.80604 7.29555 3.1376.99465 2.53804-4.0223 6.41207-4.07764 6.30604.17207-.0883 8.56703 1.55963 8.9644 4.56029 1.01602 2.6197-4.88943 6.28089-5.03113 6.20815.1094-.0749 8.97405 1.71591 9.66103 4.9139 1.38429 3.32371-5.67328 8.79376-5.84007 8.74239.0763-.0104 8.03849 4.78518 7.56356 8.27073.0883 3.45544-7.85098 7.31249-7.90197 7.27062.15001-.0548 9.02844 6.59283 6.18398 9.86775-2.11902 3.09446-12.21137-.21607-12.26513-.39269.0165-.0806 2.22395 9.26158-1.73237 12.2649-5.26342 3.32418-17.88837-.8649-17.59669-1.01463.17956.0164-1.34524 8.44366-5.82577 9.89737-4.5076 1.64849-13.55715-4.10713-13.55715-4.30795.17277.2838-4.10847 6.59393-8.12207 6.7862.0.0-10.48671-4.77116-10.17145-4.94609.29167.0989-5.79892 4.83916-10.43279 4.62568-3.91425-.0968-8.69575-5.63783-8.57089-5.76602.18168.12789-7.46896 4.76081-11.76673 3.19345-3.81063-1.2341-5.11346-7.4931-4.96204-7.47396-.0296.21811-10.64044 3.62348-14.26381.83998-3.65492-2.13109-1.49016-10.09638-1.34588-10.10822-.13832.0568-7.77646-3.2513-8.37111-6.44327-1.27342-3.07674 3.11397-8.91689 3.39631-8.83959-.14867.0305-3.34488-5.29429-2.02206-7.96607.54322-2.43642 5.99585-5.00377 6.09658-4.93483-.0881.0362-1.90373-4.97675-.46419-7.36633.79291-2.30555 6.32486-4.80668 6.46038-4.75899-.13335.0274-1.42641-4.03491-.05-5.8995.70184-1.71401 4.30644-3.15261 4.34563-3.02387-.25505.0524-1.32182-3.33886-.27293-4.90796.86407-1.96083 4.77924-3.72749 4.75483-3.52701-.048.0.12068-3.08126 1.40387-4.44066.88392-1.8868 4.23392-4.31588 4.29183-4.20491-.1068.0329 1.54301-4.29535 3.4155-6.4064 1.05336-1.94277 5.13741-5.29514 5.24937-5.29514-.0584.006.95294-3.0619 2.45542-4.48355 1.19345-1.94404 4.55632-4.3091 4.56262-4.26767 21.08 4.88646 37.63366.81147 55.50803-.44514z" class="shadow" id="path18052-2"/><path id="path18054-0" d="m311.04401 327.6899s6.84733.37283 7.78287 2.98975c.6387 1.78662-2.81525 4.94713-2.81525 4.94713s7.42648-.57766 8.18384 2.13824c.56655 2.03169-4.41092 4.5368-4.41092 4.5368s8.37349-.16331 9.37508 2.95661c.86218 2.68563-5.08064 6.76687-5.08064 6.76687s6.52509.60499 7.29555 3.1376c.72854 2.39482-4.07764 6.30604-4.07764 6.30604s8.26692 1.28109 8.9644 4.56029c.55415 2.60533-5.03113 6.20815-5.03113 6.20815s8.74735 1.41837 9.66103 4.9139c.88626 3.39062-5.84007 8.74239-5.84007 8.74239s7.72456 4.5383 7.56356 8.27073c-.15425 3.57598-7.90197 7.27062-7.90197 7.27062s8.1178 6.50196 6.18398 9.86775c-2.03778 3.54675-12.26513-.39269-12.26513-.39269s1.46134 9.64806-1.73237 12.2649c-4.54459 3.7237-17.59669-1.01463-17.59669-1.01463s-2.2505 8.52889-5.82577 9.89737c-4.42841 1.69502-13.55715-4.30795-13.55715-4.30795s-4.62018 6.35786-8.12207 6.7862c-3.7422.45774-10.17145-4.94609-10.17145-4.94609s-6.64323 4.95785-10.43279 4.62568c-3.43015-.30068-8.57089-5.76602-8.57089-5.76602s-7.96291 4.62455-11.76673 3.19345c-2.79886-1.05301-4.96204-7.47396-4.96204-7.47396s-10.5899 3.87098-14.26381.83998c-2.622-2.16317-1.34588-10.10822-1.34588-10.10822s-7.41836-3.05339-8.37111-6.44327c-.85408-3.03879 3.39631-8.83959 3.39631-8.83959s-2.8861-5.36632-2.02206-7.96607c.82459-2.48106 6.09658-4.93483 6.09658-4.93483s-1.5043-5.13669-.46419-7.36633c1.13073-2.4239 6.46038-4.75899 6.46038-4.75899s-.95325-4.15262-.05-5.8995c.81052-1.56758 4.34563-3.02387 4.34563-3.02387s-.96863-3.42448-.27293-4.90796c.83789-1.78667 4.75483-3.52701 4.75483-3.52701s.59123-3.11792 1.40387-4.44066c1.0484-1.70649 4.29183-4.20491 4.29183-4.20491s1.97917-4.45875 3.4155-6.4064c1.47514-2.00028 5.24937-5.29514 5.24937-5.29514s1.41081-3.13734 2.45542-4.48355c1.27666-1.64525 4.56262-4.26767 4.56262-4.26767 21.08 4.88646 37.63366.81147 55.50803-.44514z" class="top_accent"/><path id="path18056-0" class="shadow" d="m309.71288 327.6899c.17826-.0554 11.29343 14.89769 12.56072 23.45 5.35408 18.68238 17.63515 40.72923 4.38693 56.74234-20.35084 24.59804-79.88819 32.00846-104.40557 3.84551-10.16656-11.67826.99038-31.4387 9.04984-47.4412 5.24788-12.61332 23.50188-36.42668 24.91963-36.16771 20.31304 4.70868 36.26441.78195 53.48845-.42894z"/><path d="m309.71288 327.6899s10.07222 14.93896 12.56072 23.45c5.32378 18.20822 17.01533 42.58588 4.38693 56.74234-23.18276 25.98792-81.71681 30.26582-104.40557 3.84551-10.48841-12.21341 2.84148-32.58757 9.04984-47.4412 5.64594-13.50803 24.91963-36.16771 24.91963-36.16771 20.31304 4.70868 36.26441.78195 53.48845-.42894z" id="path18058-9" class="top_accent"/></g><g style="display:inline;opacity:1" select_clip_options="clip-path=url(#clipPathTorsoUnnatural) url(#clipPathTorsoHourglass) url(#clipPathTorsoNormal)" select_clip="torso" id="g52723-7-8"><path d="m360.16602 315.31139c-12.97746.29931-23.46414 2.50829-36.72461 5.16601-15.21533 3.04953-32.46118 5.76234-47.46875 6.81446-9.31456.65299-18.71311-.47851-27.39063-2.51368-10.49878-2.46231-24.7167-5.06046-31.7168-5.82812l-.99609 11.56863c6.05519.66404 20.54107 3.27411 30.62305 5.63867 9.36782 2.19707 19.6496 3.46653 30.12109 2.73242 15.60959-1.09432 33.13159-3.86349 48.625-6.96875 17.75044-3.55762 29.03015-6.05805 48.25-4.62304l.67969-11.59598c-5.07429-.37886-9.67614-.49039-14.00195-.39062z" id="path35754-1" class="top_accent"/></g></svg>