<svg viewBox="0 0 560 1e3"><g data-transform="boob_outfit" id="g6066"><path class="bra_primary" id="path6058" d="m328.18215 234.26446c-8.11033 5.96944-19.22626 13.90486-27.17954 22.13008-7.88333-7.88718-20.26214-13.19558-28.5507-19.53957l-25.72605 22.14571c9.40637 7.73348 18.86582 12.63124 27.83664 23.86584-8.51614 8.51994-17.1046 18.19519-24.11108 27.20778l23.01371 26.0707c8.47803-11.09473 18.32454-18.51695 27.05881-27.23895 7.26417 7.42688 12.87397 14.68446 19.98056 25.01318 6.9337-5.10016 18.36248-16.1938 27.57684-24.33478-8.26387-10.15637-13.51951-18.35583-21.24255-26.25839 8.191-8.48203 18.71272-16.25782 27.35663-23.06748z"/><path d="m188.07448 257.52089c-7.01031 4.51255-16.85302 10.11449-23.87716 16.54209-.41218-.49689-.87403-1.04723-1.32065-1.52686-7.76517 5.17115-14.78755 14.23857-17.70678 22.2912-3.88575 10.71873-5.31226 25.66552-4.33973 30.93388 5.06534-4.43127 10.22978-8.24152 15.06705-12.5142 5.47317 6.74445 9.60384 13.23821 14.76507 22.42277 5.99306-3.85514 16.04088-12.47856 24.09119-18.75291-6.11868-9.11438-8.13249-14.78943-13.95098-21.96543 7.23478-6.62898 16.33139-12.50982 23.83113-17.69711z" id="path85873" class="bra_primary"/></g></svg>