<svg viewBox="0 0 560 1e3"><defs><filter style="color-interpolation-filters:sRGB" id="filter27375"><feGaussianBlur stdDeviation="2 8" result="blur" id="feGaussianBlur27373"/></filter><clipPath clipPathUnits="userSpaceOnUse" id="clipPath27377"><path style="display:inline;fill-opacity:.588561;fill:#0ff;opacity:1;stroke-dasharray:none;stroke-dashoffset:0;stroke-linecap:butt;stroke-linejoin:miter;stroke-miterlimit:4;stroke-opacity:1;stroke-width:.453543;stroke:none;vector-effect:none" d="m304.05591 761.554 24.74874-317.13739 21.56676-3.18198 78.48885 346.48233c-19.00335-30.92459-93.69999-43.73294-124.80435-26.16296z" id="path27379"/></clipPath></defs><g id="g27365" style="filter:url(#filter27375)" clip-path="url(#clipPath27377)"><path d="m304.05591 761.554 24.74874-317.13739 21.56676-3.18198 78.48885 346.48233c-19.00335-30.92459-93.69999-43.73294-124.80435-26.16296z" id="path27335" class="top_primary"/><path d="m304.05591 761.554 24.74874-317.13739 21.56676-3.18198 78.48885 346.48233c-19.00335-30.92459-93.69999-43.73294-124.80435-26.16296z" id="path27341" class="top_primary_strong_shade"/><path d="m304.05591 761.554 3.99354-51.17432c46.82887-4.01375 87.92796-4.84429 105.0265 7.65881l15.78431 69.67847c-19.00335-30.92459-93.69999-43.73294-124.80435-26.16296z" id="path27343" class="top_primary_strong_shade"/><path d="m305.55591 787.804 3.99354-51.17432c46.82887-4.01375 87.92796-4.84429 105.0265 7.65881l15.78431 69.67847c-19.00335-30.92459-93.69999-43.73294-124.80435-26.16296z" id="path27345" class="top_primary_strong_shade"/><path d="m305.30591 800.804 3.99354-51.17432c46.82887-4.01375 87.92796-4.84429 105.0265 7.65881l15.78431 69.67847c-19.00335-30.92459-93.69999-43.73294-124.80435-26.16296z" id="path27347" class="top_primary_strong_shade"/></g></svg>