<svg viewBox="0 0 560 1e3"><path d="m338.84761 173.73169c-.2.2-.4.3-.7.4-6 2.3-29.80237 10.05946-33.20237 9.95946-5.9-.2-7.5-2.3-7.7-2.5-.7-.8-.4-2.1.8-2.6 1.3-.5 2.5-.5 3.2.3.009 3.44028 22.58334-3.43594 34.70237-8.25946 1.2-.5 2.7-.1 3.3.7.5.6.3 1.4-.4 2" id="path11-0"/><path class="steel_chastity" d="m305.44524 184.09115c-6 0-7.8-2-8-2.1-.8-.8-.7-2 .5-2.5 1.2-.6 2.76576-.84472 3.2.2 1.15585 2.7808 23.09391-3.71229 34.60237-8.75946 1.2-.5 2.7-.2 3.4.6.7.8.3 1.9-.9 2.3-5.7 2.3-29.40237 10.25946-32.80237 10.25946z" id="path13"/><circle r="3.5999207" transform="rotate(-59.999272)" style="fill:none;stroke-dasharray:19;stroke-linecap:round;stroke-miterlimit:10;stroke:#fefff2" cx="-7.6341872" cy="357.4375" id="ellipse15"/></svg>