<svg viewBox="0 0 560 1e3"><path class="shadow" id="path1834" d="m302.73925 58.747091c-.66863 1.431833-.77276 3.016242-.65235 4.677734-.0762-1.607311-.1766-3.230465-1.57812-4.880859-4.62563-.137333-8.7103.506789-11.71289 3.304687-.25799.414945.0868.531166.23437.746094-5.88016-.207413-11.15666 1.798436-15.69336 5.488281-13.19037 6.887976-18.99903 21.559234-26.26953 40.314452.6635 1.06499 1.30966.32919 2.19532.33789 1.51133-1.99594 2.10356-4.13924 3.12695-6.10742-5.36014 18.9608-5.19431 50.44751 4.86523 67.82226-1.19174 71.9606-17.94879 84.4876 1.07176 152.44539 1.78714 3.05531 5.12167.81146 6.16232.44728-17.04482-67.61599 1.18062-101.54271.5628-153.56649-3.03519-13.19404-4.89985-34.15728-4.66016-44.40624.22225 12.80778 2.50277 34.97415 7.94727 45.38085-4.73086 15.89634-11.85425 108.23539 1.18 151.88415 1.70854 2.58089 4.73123.62089 6.47518.27508-8.41848-44.63325-2.84268-134.26907.52841-152.29595-.42229-4.74607-2.34764-18.52021-3.24414-22.83788 1.13461 4.48852 2.18831 18.11652 4.93555 22.2871-16.98706 58.36062.52341 110.53525 1.11177 152.60788.99341 1.97597 3.78767.77852 4.09133.23734 1.80466-42.60431-10.56852-106.9705.4551-152.85692-10.89729-68.56535 6.43042-98.960544 14.32031-94.720706 9.11456.339635 1.88008-1.411502 12.74805 1.294922 7.80628-8.360189 31.91246 20.145412 18.40039 93.425784 16.96192 70.70335.57175 91.83947.73624 149.145 1.04583 1.24472 4.68457.23094 5.28968-.0739.56308-56.83328 21.62707-79.13318.52291-149.0594 2.9946-3.7014 4.25628-17.73889 5.70312-22.26367-1.31637 4.37234-3.27467 18.28307-3.74804 22.81445 10.10006 39.9706 6.45588 110.82591.4312 136.26062 2.08982 2.16324 6.80734.18548 8.05046-.32744 8.74151-28.86841 12.91353-94.91917.99099-135.79646 6.94776-10.48418 8.63939-32.61854 9.20508-45.1914-.21867 10.09109-2.07548 30.93466-5.40234 44.21679 17.32233 67.7207-.0553 69.29578.58452 126.06591 1.10567.54585 7.22674 1.25034 8.39806.93777.7632-57.38122 18.64819-59.34033.0389-126.32986 11.89595-17.37415 12.14872-48.85993 5.63281-67.82031 1.18052 1.9725 2.14813 4.13297 3.61719 6.10547 1.03917-.0422 1.80635.68898 2.54102-.33789-8.22267-18.353944-15.15721-32.969414-30.39649-40.312499-6.37358-4.853722-13.92674-6.416327-21.89648-5.285156.41416-.313714.48769-.767743.59961-1.197265-5.08144-2.580686-11.04736-4.297016-17.5-2.855469z"/><path d="m302.73925 58.747091c-.44424 1.476711-.6472 3.041354-.65235 4.677734-.19108-1.607311-.65462-3.230465-1.57812-4.880859-4.28264-137e-6-8.34135.65437-11.71289 3.304687.067.252451.1528.49818.23437.746094-5.62322.01282-10.9152 2.005401-15.69336 5.488281-12.81171 7.342365-18.66616 21.958675-26.26953 40.314452.74952.84994 1.36458.1919 2.19532.33789 1.0601-2.12486 2.09723-4.14105 3.12695-6.10742-5.09747 18.9608-4.494 50.44751 4.86523 67.82226.0 71.77433-17.13748 84.4876 1.07176 152.44539 1.60069 2.6358 5.03049.6063 6.16232.44728-18.28655-68.24633.5628-101.71923.5628-153.56649-3.77905-13.19404-5.07807-34.15728-4.66016-44.40624.55089 12.61998 3.14837 34.60524 7.94727 45.38085-4.71039 17.57941-10.49131 108.32625 1.18 151.88415 1.70854 2.58089 4.73123.62089 6.47518.27508-8.88553-44.82007-4.30147-134.27059.52841-152.29595-1.30135-4.74607-2.37288-18.52021-3.24414-22.83788 1.30909 4.48852 2.94302 18.11652 4.93555 22.2871-15.48801 57.80203 1.11177 110.80474 1.11177 152.60788.75439 1.59354 3.5234.35568 4.09133.23734.0-42.70898-11.765-107.25089.4551-152.85692-12.70803-68.33901 6.20214-98.932009 14.32031-94.720706 9.11456.339635 1.88008-1.411502 12.74805 1.294922 7.86123-8.360189 34.16995 20.145412 18.40039 93.425784 18.82041 70.23873.73624 91.79835.73624 149.145 1.01071 1.03399 4.64848.0144 5.28968-.0739.0-57.05851 19.14892-79.5462.52291-149.0594 2.30179-4.16328 4.18952-17.78339 5.70312-22.26367-1.00726 4.31052-2.24484 18.0771-3.74804 22.81445 10.67906 39.8548 7.29117 110.65885.4312 136.26062 2.02241 1.28686 6.7772-.20633 8.05046-.32744 7.65185-28.55708 12.01297-94.66187.99099-135.79646 5.52545-10.72123 8.54678-32.63398 9.20508-45.1914.45604 10.20354-1.0562 31.10454-5.40234 44.21679 18.10383 67.5644.58452 69.16782.58452 126.06591 1.17088.15461 7.25995 1.05108 8.39806.93777.0-57.38122 17.98869-59.34033.0389-126.32986 10.83048-17.37415 11.53114-48.85993 5.63281-67.82031 1.19126 1.96579 2.3908 3.9813 3.61719 6.10547.96136-.14599 1.67365.51205 2.54102-.33789-8.79803-18.353944-15.57337-32.969414-30.39649-40.312499-6.57653-4.143409-13.99343-6.182917-21.89648-5.285156.23304-.391338.43507-.790293.59961-1.197265-5.48888-2.363385-11.69615-3.950996-17.5-2.855469z" id="path1575-8" class="hair"/></svg>