<svg viewBox="0 0 560 1e3"><path d="m316.18849 80.668819s-.63732-3.017815.22766-4.013515c11.39823-17.314923 37.72427 1.754696 38.02454-1.9306 12.64279 14.039464 1.07092 24.388615 6.44221 24.53105 2.94955 10.461296-4.8603 35.046286-1.47811 35.547086-2.08039 8.14455-8.11894 22.34052-5.26856 21.98446-.0746 2.71488-1.05093 6.34977-2.18695 9.17123.33596 11.362-29.75626 8.67164-2.65035.85866-19.97262 5.97504.61923 7.15458.86686-.63214-.60543-3.94043-.99436-9.48169-2.08596-9.18848-1.64452-13.35118-1.62747-21.69189-3.75767-21.34629-2.21029-2.21333-3.82381-35.3619-9.1955-35.14278-27.78609 1.77628-11.91834-13.225787-18.93817-19.838681z" class="shadow" id="path1589"/><path id="path1606" class="hair" d="m316.18849 80.668819s-.63732-3.017815.22766-4.013515c10.35885-16.572505 37.142 2.170603 38.02454-1.9306 11.46102 14.137945.99889 24.394617 6.44221 24.53105 2.07016 10.725116-5.07081 35.109436-1.47811 35.547086-2.39365 7.36141-8.26327 21.97968-5.26856 21.98446-.50383 2.61949-1.36807 6.27929-2.18695 9.17123.0 11.12864-29.13399 8.35929-2.65035.85866-20.60824 5.8691.86686 7.73321.86686-.63214-.2389-3.98625-.93474-9.48914-2.08596-9.18848-1.15311-13.54774-1.59653-21.70427-3.75767-21.34629-1.67399-2.21333-3.42137-35.3619-9.1955-35.14278-28.57577.46015-11.91834-13.225787-18.93817-19.838681z"/><path id="path1591" class="shadow" d="m274.96943 80.668819s.46338-3.017815-.16553-4.013515c-7.53181-17.192321-27.00555 2.018381-27.64723-1.9306-9.14348 14.285272-.7446 24.397948-4.68406 24.53105-2.12341 10.848756 3.53202 35.140416 1.07472 35.547086 1.19804 7.48193 5.84547 22.01583 3.83071 21.98446.27554 2.61949.6225 6.27929 1.59011 9.17123-.52073 11.4356 21.71121 8.26325 1.92704.85866 14.62711 5.77775-.53781 7.38187-.63029-.63214.63779-4.03266.74485-9.49566 1.51668-9.18848 1.32557-13.69389 1.19596-21.71481 2.73216-21.34629 1.38146-2.12204 2.83867-35.16688 6.68595-35.14278 20.40674 1.57131 8.66569-13.225787 13.76974-19.838681z"/><path d="m274.96943 80.668819s.46338-3.017815-.16553-4.013515c-7.53181-16.572505-27.00555 2.170603-27.64723-1.9306-8.33318 14.137945-.72628 24.394617-4.68406 24.53105-1.50519 10.725116 3.68693 35.109436 1.07472 35.547086 1.74039 7.36141 6.00813 21.97968 3.83071 21.98446.36633 2.61949.99471 6.27929 1.59011 9.17123.0 11.12864 21.183 8.35929 1.92704.85866 14.98402 5.8691-.63029 7.73321-.63029-.63214.1737-3.98625.67964-9.48914 1.51668-9.18848.83841-13.54774 1.16082-21.70427 2.73216-21.34629 1.21714-2.21333 2.48764-35.3619 6.68595-35.14278 20.77713.46015 8.66569-13.225787 13.76974-19.838681z" class="hair" id="path1608"/></svg>