<svg viewBox="0 0 560 1e3"><defs><filter style="color-interpolation-filters:sRGB" id="filter77123"><feGaussianBlur stdDeviation="2 2" result="blur" id="feGaussianBlur77121"/></filter><clipPath clipPathUnits="userSpaceOnUse" id="clipPath77131"><path id="path77133" d="m368.51562 365.93359c-5.71739 3.05093-11.44856 6.10827-17.32226 9-3.69689 1.82006-7.42678 3.59249-11.19336 5.29688s-7.56982 3.34058-11.41211 4.88867c-3.84228 1.54809-7.72444 3.00823-11.64844 4.35938-3.92399 1.35114-7.88868 2.59346-11.90039 3.70703-4.0117 1.11357-8.07036 2.09823-12.17578 2.93359s-8.25774 1.5206-12.46289 2.03711c-2.29034.28132-4.59286.4696-6.91016.57227-2.3173.10266-4.64928.12058-7 .0645-4.70142-.11226-9.47777-.52208-14.35156-1.15039s-9.84559-1.47542-14.94336-2.46094c-1.90583-.36844-3.92509-.82735-5.86719-1.23047-2.75508 14.01352-5.86357 27.63477-9.05273 41.78125-2.62261 13.10161-4.15434 27.33135-5.11719 38.92188 21.84749 5.29743 62.26938 1.63078 85.29883.68554-.10716-1.84883-.22674-5.78282 1.1582-5.69336 1.66965-.15131 1.66092 6.30519 1.96485 6.3086 29.45353.33039 78.76589.81919 89.76172-3.2207-.38359-7.38959 8.52993-25.63001 2.22461-49.91797-3.9208-15.10283-10.04128-23.26313-20.83399-38.61914-3.02405-5.88224-5.22372-11.98452-8.2168-18.26368z" style="fill-opacity:.63321791;fill:#0ff"/></clipPath></defs><path id="path36275" d="m368.64062 365.43359c-14.04939 8.06166-29.50378 15.04997-46.20059 20.80796-16.32138 5.62853-32.85854 9.71947-47.33139 11.50261-16.96352 2.09-31.45915-.56038-43.58755-3.85379-2.53673 13.62162-5.65117 28.25535-8.88056 42.00493-2.92775 13.67352-4.79448 26.87644-5.85276 39.07291 8.83562 2.14299 20.96132 2.5739 33.61653 2.52788 18.63297-.0678 38.50478-1.42207 52.2244-1.98634-.13617-1.85145-.51721-5.49112.8487-5.40255 1.66488-.15184 1.55123 5.56158 1.85524 5.565.0386 44e-5.0922.002.13091.002-.24008-1.23002-.56601-6.19182-2.07444-6.05425-1.36144-.0883-1.08937 3.86602-.95076 5.71761-11.50852.47339-27.3595 1.62784-43.07408 2.00054-15.70964.37258-31.29021-.0356-42.20082-2.68206 1.05451-12.1401 2.89556-25.14737 5.78558-38.76648 3.18626-13.67521 6.2708-28.08486 8.816-41.6269 1.49727.39354 3.05408.83543 4.57531 1.19357 4.04675.95273 8.17782 1.766 12.40216 2.36554 4.22218.59923 8.53661.9849 12.92619 1.08029 2.19517.0477 4.40995.0232 6.64416-.0842 2.23428-.10735 4.48833-.29837 6.76155-.58056 4.17372-.5181 8.39176-1.20069 12.63645-2.03107 4.24445-.83034 8.5175-1.80802 12.79324-2.91449 4.27571-1.10647 8.5561-2.34212 12.81973-3.68865 4.26424-1.34674 8.51008-2.80441 12.71285-4.35416 4.20467-1.55044 8.35874-3.19006 12.44968-4.90429 4.09432-1.71565 8.10193-3.49596 12.03679-5.33316 6.29528-2.93928 12.15097-5.97717 17.98253-9.07437 2.87147 6.32212 5.05386 12.42471 8.10891 18.30297 5.56753 7.79803 9.71426 13.4089 13.17573 19.3801 3.38556 5.84022 5.87058 11.65409 7.80719 19.20067 3.11467 12.13723 2.47347 22.77356 1.0806 31.29217-1.39308 8.51985-3.52822 14.92672-3.33636 18.62142-6.75025 2.47971-27.96011 3.24708-50.13043 3.39794 22.24701.093 43.54727-.35964 50.2867-2.83545-.19184-3.69471 2.02949-10.17968 3.50759-18.77781 1.47831-8.59938 2.20088-19.30928-.91255-31.44902-3.92178-15.29159-10.19915-23.86154-21.28113-39.39305-3.05378-5.87877-5.30051-11.91944-8.1713-18.24346z" class="shadow"/><path id="path36277" d="m368.50567 365.93711c-5.83156 3.0972-11.68725 6.13509-17.98253 9.07437-3.93486 1.8372-7.94247 3.61751-12.03679 5.33316-4.09094 1.71423-8.24501 3.35385-12.44968 4.90429-4.20277 1.54975-8.44861 3.00742-12.71285 4.35416-4.26363 1.34653-8.54402 2.58218-12.81973 3.68865-4.27574 1.10647-8.54879 2.08415-12.79324 2.91449-4.24469.83038-8.46273 1.51297-12.63645 2.03107-2.27322.28219-4.52727.47321-6.76155.58056-2.23421.10733-4.44899.13186-6.64416.0842-4.38958-.0954-8.70401-.48106-12.92619-1.08029-4.22434-.59954-8.35541-1.41281-12.40216-2.36554-1.52124-.35814-3.07805-.80003-4.57531-1.19357-2.54521 13.54204-5.62974 27.95169-8.816 41.6269-2.89002 13.61911-4.73107 26.62638-5.78558 38.76648 10.91061 2.64645 26.49118 3.05464 42.20082 2.68206 15.71458-.3727 31.56556-1.52715 43.07408-2.00054-.13861-1.85159-.41068-5.80592.95076-5.71761.83412-.0761 1.3352 1.51056 1.63529 3.1125.30015 1.60222.39432 3.21979.54632 3.2215 29.45947.33121 78.77428.8202 89.77102-3.21947-.19186-3.6947 1.94328-10.10157 3.33636-18.62142 1.39287-8.51861 2.03407-19.15494-1.0806-31.29217-1.93661-7.54658-4.42163-13.36045-7.80719-19.20067-3.46147-5.9712-7.6082-11.58207-13.17573-19.3801-3.05505-5.87826-5.23746-11.98085-8.10891-18.30297v-5e-5z" class="bottoms_primary"/><g clip-path="url(#clipPath77131)" style="filter:url(#filter77123)" id="g36287"><path id="path36279" d="m302.20446 464.95926c-3.25001-7.39029-19.85071-8.99512-21.30311 3.51258 14.79992 10.54315 10.55834 11.95731 21.30311-3.51258z" style="fill-opacity:.04;fill:#404040"/><path style="fill-opacity:.04;fill:#404040" d="m295.67063 452.65359c-6.29731 5.05202-6.48943 27.86146 5.96799 26.02714 6.84043-17.58094 7.44378-19.81657-5.96799-26.02714z" id="path36281"/><path id="path36283" d="m294.17063 456.27859c-6.29731 5.05202-6.67693 24.04896 5.78049 22.21464 9.28938-17.86559 5.11031-15.37494-5.78049-22.21464z" style="fill-opacity:.04;fill:#404040"/><path style="fill-opacity:.04;fill:#404040" d="m290.48313 455.96609c-6.29731 5.05202-6.92693 24.17396 5.53049 22.33964 16.15647-20.86979 9.13941-17.25902-5.53049-22.33964z" id="path36285"/></g><path id="path36289" d="m368.50567 365.93711c-5.83156 3.0972-11.68725 6.13509-17.98253 9.07437-3.93486 1.8372-7.94247 3.61751-12.03679 5.33316-4.09094 1.71423-8.24501 3.35385-12.44968 4.90429-4.20277 1.54975-8.44861 3.00742-12.71285 4.35416-4.26363 1.34653-8.54402 2.58218-12.81973 3.68865-4.27574 1.10647-8.54879 2.08415-12.79324 2.91449-4.24469.83038-8.46273 1.51297-12.63645 2.03107-2.27322.28219-4.52727.47321-6.76155.58056-2.23421.10733-4.44899.13186-6.64416.0842-4.38958-.0954-8.70401-.48106-12.92619-1.08029-4.22434-.59954-8.35541-1.41281-12.40216-2.36554-1.52124-.35814-3.07805-.80003-4.57531-1.19357-.60324 3.2096-1.31936 6.3853-1.9537 9.5576 2.46877.67803 5.03538 1.37759 7.61753 1.96852 4.0772.93306 8.286 1.73429 12.58086 2.3252 4.29511.59094 8.68154.97253 13.12305 1.06609 2.22148.0468 4.45744.0219 6.70669-.0854 2.24938-.10726 4.51187-.29584 6.78697-.57714 4.17736-.5165 8.38604-1.19798 12.61173-2.02408 4.2253-.82603 8.46856-1.79794 12.71571-2.89725 4.24657-1.09914 8.50037-2.32636 12.74024-3.66275 4.23986-1.33637 8.47075-2.78338 12.6677-4.32067 4.19828-1.53777 8.36255-3.1657 12.4743-4.86675 4.11469-1.70227 8.16289-3.47186 12.14671-5.29748 7.17522-3.28812 13.88701-6.68125 20.52384-10.17039-1.30275-3.08969-2.54742-6.14073-4.00099-9.34106v-1e-5z" class="bottoms_accent"/></svg>