<svg viewBox="0 0 560 1e3"><path style="display:inline;fill-opacity:1;fill:none;opacity:1;stroke-dasharray:none;stroke-dashoffset:0;stroke-linecap:butt;stroke-linejoin:miter;stroke-miterlimit:4;stroke-opacity:1;stroke-width:.453543;stroke:#ff9300;vector-effect:none" d="m274.47204 285.28621c-1.0292 11.41023-19.9491 23.34147-19.07996 69.73207.17424 40.53654 12.09136 55.28886 21.15982 66.33152" id="path7032-3-4-0"/><path id="path2666" class="shadow" d="m274.33657 422.30952c15.98049 15e-5 35.23877-29.47005 47.55679-50.4297 10.42451-22.58756-3.38822-62.55399-31.19336-80.85399-6.5-4.3-36.31351-9.61422-38.01351-1.41423-3.04373 11.64438-34.24697 29.97538-28.97985 78.50362-1.03288 28.54814 34.54738 54.19415 50.62993 54.1943z"/><path id="path2656" d="m234.5027 317.88177c-6.54184 11.81606-12.03392 27.77521-10.79606 50.23345 1.38291 26.7363 34.64962 54.11747 50.62993 54.1943 15.98031.0768 37.95324-27.84215 47.55679-50.4297 5.81811-13.6842 3.2311-34.23356-5.82713-52.37649-46.49014 10.13848-63.48936 9.79881-81.56353-1.62156zm81.56353 1.62156C310.17266 307.69899 301.5397 296.91333 290.7 289.7c-14.38458-7.74548-36.44206-7.01039-38.01351-.0884-1.40311 6.26004-10.51478 14.4182-18.18379 28.27017 17.24262 20.43098 54.17377 10.86007 81.56353 1.62156z" class="skin belly"/><path d="m256.74018 369.64681c.48219-2.95995.50103-5.52426-.57274-9.24552l-.0242.001c-.78458 4.82879-.38541 6.45786.59697 9.24433z" class="shadow belly_details" id="path1454-6-5-1"/><path id="path1459-5-05-8" class="muscle_tone belly_details" d="m256.16744 360.40129c-2.33392-7.76332.81606-35.04811.81606-35.04811l.001.003s-3.96483 25.46463-.84168 35.04655z"/></svg>