<svg viewBox="0 0 560 1e3"><defs><filter style="color-interpolation-filters:sRGB" id="filter77123"><feGaussianBlur stdDeviation="2 2" result="blur" id="feGaussianBlur77121"/></filter><clipPath clipPathUnits="userSpaceOnUse" id="clipPath77131"><path id="path77133" d="m368.51562 365.93359c-5.71739 3.05093-11.44856 6.10827-17.32226 9-3.69689 1.82006-7.42678 3.59249-11.19336 5.29688s-7.56982 3.34058-11.41211 4.88867c-3.84228 1.54809-7.72444 3.00823-11.64844 4.35938-3.92399 1.35114-7.88868 2.59346-11.90039 3.70703-4.0117 1.11357-8.07036 2.09823-12.17578 2.93359s-8.25774 1.5206-12.46289 2.03711c-2.29034.28132-4.59286.4696-6.91016.57227-2.3173.10266-4.64928.12058-7 .0645-4.70142-.11226-9.47777-.52208-14.35156-1.15039s-9.84559-1.47542-14.94336-2.46094c-1.90583-.36844-3.92509-.82735-5.86719-1.23047-2.75508 14.01352-5.86357 27.63477-9.05273 41.78125-2.62261 13.10161-4.15434 27.33135-5.11719 38.92188 21.84749 5.29743 62.26938 1.63078 85.29883.68554-.10716-1.84883-.22674-5.78282 1.1582-5.69336 1.66965-.15131 1.66092 6.30519 1.96485 6.3086 29.45353.33039 78.76589.81919 89.76172-3.2207-.38359-7.38959 8.52993-25.63001 2.22461-49.91797-3.9208-15.10283-10.04128-23.26313-20.83399-38.61914-3.02405-5.88224-5.22372-11.98452-8.2168-18.26368z" style="fill-opacity:.63321791;fill:#0ff"/></clipPath></defs><path class="shadow" id="path87974" d="m280.40039 397.65625c-17.0456 2.07798-33.50011-.67949-49.40373-4.08068-2.75508 14.01352-5.90711 28.01042-9.09627 42.1569-2.62261 13.10161-4.15434 27.64385-5.11719 39.23438 8.84605 2.14493 20.96207 2.57623 33.6207 2.5302 18.60494-.0677 38.53581-1.42277 52.24063-1.98528-.10716-1.84883-.35174-5.47032 1.0332-5.38086 1.66965-.15131 1.36404 5.53956 1.66797 5.54297 29.45353.33039 79.15652 1.66294 90.15235-2.37695-.38359-7.38959 8.87368-25.94251 2.56836-50.23047-3.9208-15.10283-10.35378-24.07563-21.14649-39.43164-3.02405-5.88224-5.28622-11.92202-8.2793-18.20118-27.33732 15.74987-58.90099 28.64595-88.24023 32.22261z"/><path d="m368.51562 365.93359c-5.71739 3.05093-11.44856 6.10827-17.32226 9-3.69689 1.82006-7.42678 3.59249-11.19336 5.29688s-7.56982 3.34058-11.41211 4.88867c-3.84228 1.54809-7.72444 3.00823-11.64844 4.35938-3.92399 1.35114-7.88868 2.59346-11.90039 3.70703-4.0117 1.11357-8.07036 2.09823-12.17578 2.93359s-8.25774 1.5206-12.46289 2.03711c-2.29034.28132-4.59286.4696-6.91016.57227-2.3173.10266-4.64928.12058-7 .0645-4.70142-.11226-9.47777-.52208-14.35156-1.15039s-9.84559-1.47542-14.94336-2.46094c-1.90583-.36844-3.92509-.82735-5.86719-1.23047-2.75508 14.01352-5.86357 27.63477-9.05273 41.78125-2.62261 13.10161-4.15434 27.33135-5.11719 38.92188 21.84749 5.29743 62.26938 1.63078 85.29883.68554-.10716-1.84883-.22674-5.78282 1.1582-5.69336 1.66965-.15131 1.66092 6.30519 1.96485 6.3086 29.45353.33039 78.76589.81919 89.76172-3.2207-.38359-7.38959 8.52993-25.63001 2.22461-49.91797-3.9208-15.10283-10.04128-23.26313-20.83399-38.61914-3.02405-5.88224-5.22372-11.98452-8.2168-18.26368z" id="path77095" class="panties_primary"/><g id="g77119" style="filter:url(#filter77123)" clip-path="url(#clipPath77131)"><path style="fill-opacity:.04;fill:#404040" d="m302.20446 464.95926c-3.25001-7.39029-19.85071-8.99512-21.30311 3.51258 14.79992 10.54315 10.55834 11.95731 21.30311-3.51258z" id="path77069"/><path id="path77071" d="m295.67063 452.65359c-6.29731 5.05202-6.48943 27.86146 5.96799 26.02714 6.84043-17.58094 7.44378-19.81657-5.96799-26.02714z" style="fill-opacity:.04;fill:#404040"/><path style="fill-opacity:.04;fill:#404040" d="m294.17063 456.27859c-6.29731 5.05202-6.67693 24.04896 5.78049 22.21464 9.28938-17.86559 5.11031-15.37494-5.78049-22.21464z" id="path77073"/><path id="path77075" d="m290.48313 455.96609c-6.29731 5.05202-6.92693 24.17396 5.53049 22.33964 16.15647-20.86979 9.13941-17.25902-5.53049-22.33964z" style="fill-opacity:.04;fill:#404040"/></g><path d="m368.51562 365.93359c-5.71739 3.05093-11.44856 6.10827-17.32226 9-3.69689 1.82006-7.42678 3.59249-11.19336 5.29688s-7.56982 3.34058-11.41211 4.88867c-3.84228 1.54809-7.72444 3.00823-11.64844 4.35938-3.92399 1.35114-7.88868 2.59346-11.90039 3.70703-4.0117 1.11357-8.07036 2.09823-12.17578 2.93359s-8.25774 1.5206-12.46289 2.03711c-2.29034.28132-4.59286.4696-6.91016.57227-2.3173.10266-4.64928.12058-7 .0645-4.70142-.11226-9.47777-.52208-14.35156-1.15039s-9.84559-1.47542-14.94336-2.46094c-1.90583-.36844-3.92509-.82735-5.86719-1.23047-.63209 3.21509-1.41016 6.40107-2.07617 9.58594 3.31714.71126 6.67518 1.45335 9.88672 2.07422 5.09777.98552 10.07153 1.83262 14.94531 2.46094 4.87379.62831 9.64819 1.03812 14.34961 1.15039 2.35072.0561 4.6827.0382 7-.0645 2.3173-.10266 4.61982-.28899 6.91016-.57031 4.20515-.51651 8.35942-1.2037 12.46484-2.03906 4.10543-.83536 8.16213-1.82002 12.17383-2.9336 4.01171-1.11357 7.97835-2.35588 11.90235-3.70703 3.92399-1.35114 7.80615-2.81129 11.64843-4.35937 3.84229-1.54809 7.64553-3.18429 11.41211-4.88867 3.76659-1.70439 7.49647-3.47683 11.19336-5.29688 6.60759-3.25304 13.07465-6.68338 19.48633-10.125-1.30553-3.05355-2.60887-6.15679-4.10938-9.30469z" id="path77097" class="panties_accent"/></svg>