<svg viewBox="0 0 560 1e3"><path d="m299.76916 182.31783s-.1.0-.1.0c-.3-.2-.7-1.3-.7-1.7-.1-.3-.4-1.5-.2-1.8v-.1l.1-.1c.1.0.1.0.2.0.3.2.7 1.3.7 1.7v0c.1.3.4 1.5.2 1.8v.1l-.2.1zm-.7-2.8c0 .3.1.6.2 1 .1.4.2.8.3 1 0-.3-.1-.6-.2-1v0c-.1-.5-.2-.8-.3-1z" id="path7-4"/><path d="m300.56916 185.71783c-.6.0-1.2-.7-1.5-1.8-.4-1.2-.2-2.4.5-2.7.7-.3 1.5.5 1.8 1.7v0c.4 1.2.2 2.4-.5 2.7-.1.0-.2.1-.3.1zm-.8-4.2c-.1.0-.1.0-.2.0-.5.2-.6 1.2-.3 2.2s1 1.7 1.4 1.5c.5-.2.6-1.2.3-2.2v0c-.2-.9-.8-1.5-1.2-1.5z" id="path9-49"/><path d="m301.96916 189.21783c-.2.0-.4-.2-.9-2.1-.6-2.2-.4-2.2-.3-2.3.2-.1.3.2.5.7.1.4.3.9.4 1.4.7 2.2.5 2.2.3 2.3z" id="path11-9"/><path d="m303.16916 192.61783c-.6.0-1.4-.7-1.8-1.8-.2-.6-.3-1.2-.3-1.6.1-.5.3-.9.6-1 .4-.1.8.0 1.2.3s.7.8.9 1.4c.5 1.2.3 2.4-.4 2.7.0.0-.1.0-.2.0zm-1.1-4.1h-.1c-.2.1-.3.3-.4.7.0.4.0.9.2 1.5.4 1.1 1.2 1.7 1.6 1.5.4-.2.6-1.1.2-2.2-.2-.5-.5-1-.8-1.2s-.5-.3-.7-.3z" id="path13-3"/><path d="m313.01655 195.31378c-.29028-.0758-.45854-.22303-.62681-.3703-.45428-.63532.0423-1.74591 1.16566-2.48621 1.12337-.7403 2.28873-.84954 2.74301-.21422.45428.63531-.0423 1.74591-1.16566 2.48621-.75733.52578-1.53565.73604-2.1162.58452zm2.55404-3.05399c-.48379-.12628-1.16536.10923-1.80068.56352-.87934.59729-1.3254 1.51436-1.01413 1.90566.28602.48805 1.25786.3283 2.13721-.26899.87934-.59729 1.3254-1.51437 1.01413-1.90566-.0463-.21877-.14301-.24403-.33653-.29453z" id="path15"/><path d="m318.44839 190.73719c-.19352-.0505-.29028-.0758-.36178-.19777-.47954-.53856-.10498-1.57765.85012-2.46522.95511-.88756 2.07422-1.21557 2.55375-.67701.23977.26928.23551.68156.10924 1.16536-.22303.45854-.54281.89182-.95936 1.29985-.41655.40803-.9046.69405-1.3674.88331-.31553.021-.63106.042-.82457-.009zm2.48254-3.176c-.38704-.10101-1.06861.1345-1.75443.78229-.83309.81606-1.15714 1.66164-.82061 1.95617.16826.14727.36178.19778.70256.08.43754-.0925.82884-.40377 1.22013-.71504.41654-.40803.71108-.74456.81209-1.13159.10102-.38704.15153-.58056-.0167-.72782.0505-.19352-.0462-.21877-.14301-.24403z" id="path17"/><path d="m315.41907 192.84034v0c-.16827-.14727-.40804-.41655 1.42641-1.90141.41655-.40803.9046-.69404 1.27064-.90856.48805-.28602.70682-.33227.87508-.185l.0968.0253-.0253.0967c-.004.41229-1.17814 1.34611-1.54417 1.56062-.4418.50479-1.71244 1.41335-2.09947 1.31234zm2.64228-2.20416c-.24402.14301-.61006.35752-.90459.69405-.3913.31127-.66058.55104-.92986.7908.24403-.143.61007-.35752.9046-.69404.39129-.31128.66057-.55104.92985-.79081z" id="path19"/><path d="m324.34303 185.97135c-.19352-.0505-.29028-.0758-.45854-.22302-.23977-.26928-.33227-.70683-.206-1.19062s.3493-.94233.74059-1.2536c.83309-.81607 1.95221-1.14408 2.43174-.60552.23977.26928.33227.70683.206 1.19062s-.3493.94233-.74059 1.2536v0c-.41655.40803-.80784.71931-1.24539.81181-.21877.0462-.5343.0672-.72781.0167zm2.07025-3.18026c-.38704-.10101-1.0686.1345-1.63242.71079-.29453.33653-.61432.76981-.69008 1.06009-.0758.29027-.0548.6058.1135.75307.16826.14727.45853.22303.79932.10528.34078-.11776.80358-.30702 1.09811-.64355.29454-.33652.61432-.76981.69009-1.06008.0758-.29028.0548-.60581-.1135-.75307-.0968-.0253-.16826-.14727-.26502-.17253z" id="path21"/><path d="m321.26745 187.85573-.0715-.12202.0253-.0968c.0505-.19351.58907-.67305 1.64094-1.53536.75733-.52579 1.66192-1.21983 1.88069-1.26608l.0968.0252.0715.12201-.0253.0968c-.0505.19352-.58906.67305-1.64093 1.53537v0c-.68582.64779-1.56517 1.24508-1.97746 1.24083z" id="path23"/><path d="m310.45428 196.81537-.0715-.12201.0253-.0968c.0253-.0968-.021-.31553 1.30014-1.41761v0c1.49367-1.3671 1.56517-1.24509 1.73344-1.09782.16826.14726.23976.26928-1.2539 1.63638-1.4179 1.07682-1.63667 1.12307-1.73343 1.09782z" id="path27"/><path d="m304.16916 195.81783v0c-.2-.1-.5-.8-.8-2-.5-2.1-.4-2.2-.2-2.2v0c.2.0.3-.1.9 2 .3 1.2.4 1.9.3 2.1v.1z" id="path29"/><path id="path33" d="m311.56916 198.41783c-.5 2.1-2.9 4.3-5.7 5.9-1.7-2-3.1-5.4-2.8-7.8.3-2 2.7-3.6 4.3 1.1 3-4.5 4.7-1.1 4.2.8z"/><path id="path35" d="m310.96916 198.11783c-.5 2-2.8 4.1-5.4 5.6-1.6-1.9-2.9-5.1-2.6-7.3.2-1.9 2.5-3.4 4 1 2.8-4.3 4.4-1.1 4 .7z" class="steel_chastity"/><rect x="337.68442" y="139.20795" transform="rotate(10.64922)" width=".40000939" height="1.8000422" id="rect39"/><circle r=".79999298" transform="rotate(-83.724979)" cx="-164.25607" cy="326.31647" id="ellipse41-6"/><path d="m326.43427 183.10662s-.0715-.12201-.0715-.12201c-.021-.31553.83735-1.22835 1.00987-1.49337.26928-.23977 1.12763-1.15259 1.44316-1.17358l.0968.0252.0968.0252c.0967.0253.0715.12202.0462.21878.021.31553-.83736 1.22835-1.00988 1.49337v0c-.26928.23976-1.12762 1.15258-1.44315 1.17358l-.0968-.0252-.0715-.12202c-.0253.0968.0.0.0.0zm2.08274-2.04015c-.24403.14301-.41655.40803-.80784.7193-.29454.33653-.56382.5763-.71108.74456.24402-.14301.41654-.40803.80784-.7193v0c.26928-.23977.56381-.5763.71108-.74456z" id="path43"/><path style="display:inline" d="m328.8365 181.40598c-.19352-.0505-.29028-.0758-.45854-.22302-.23977-.26928-.33227-.70683-.206-1.19062s.3493-.94233.74059-1.2536c.83309-.81607 1.95221-1.14408 2.43174-.60552.23977.26928.33227.70683.206 1.19062s-.3493.94233-.74059 1.2536v0c-.41655.40803-.80784.71931-1.24539.81181-.21877.0462-.5343.0672-.72781.0167zm2.07025-3.18026c-.38704-.10101-1.0686.1345-1.63242.71079-.29453.33653-.61432.76981-.69008 1.06009-.0758.29027-.0548.6058.1135.75307.16826.14727.45853.22303.79932.10528.34078-.11776.80358-.30702 1.09811-.64355.29454-.33652.61432-.76981.69009-1.06008.0758-.29028.0548-.60581-.1135-.75307-.0968-.0253-.16826-.14727-.26502-.17253z" id="path21-36"/><path style="display:inline" d="m330.92774 178.54125s-.0715-.12201-.0715-.12201c-.021-.31553.83735-1.22835 1.00987-1.49337.26928-.23977 1.12763-1.15259 1.44316-1.17358l.0968.0252.0968.0252c.0967.0253.0715.12202.0462.21878.021.31553-.83736 1.22835-1.00988 1.49337v0c-.26928.23976-1.12762 1.15258-1.44315 1.17358l-.0968-.0252-.0715-.12202c-.0253.0968.0.0.0.0zm2.08274-2.04015c-.24403.14301-.41655.40803-.80784.7193-.29454.33653-.56382.5763-.71108.74456.24402-.14301.41654-.40803.80784-.7193v0c.26928-.23977.56381-.5763.71108-.74456z" id="path43-6"/><path style="display:inline" d="m333.24275 177.15598c-.19352-.0505-.29028-.0758-.45854-.22302-.23977-.26928-.33227-.70683-.206-1.19062s.3493-.94233.74059-1.2536c.83309-.81607 1.95221-1.14408 2.43174-.60552.23977.26928.33227.70683.206 1.19062s-.3493.94233-.74059 1.2536v0c-.41655.40803-.80784.71931-1.24539.81181-.21877.0462-.5343.0672-.72781.0167zm2.07025-3.18026c-.38704-.10101-1.0686.1345-1.63242.71079-.29453.33653-.61432.76981-.69008 1.06009-.0758.29027-.0548.6058.1135.75307.16826.14727.45853.22303.79932.10528.34078-.11776.80358-.30702 1.09811-.64355.29454-.33652.61432-.76981.69009-1.06008.0758-.29028.0548-.60581-.1135-.75307-.0968-.0253-.16826-.14727-.26502-.17253z" id="path21-34"/><path style="display:inline" d="m335.33399 174.29125s-.0715-.12201-.0715-.12201c-.021-.31553.83735-1.22835 1.00987-1.49337.26928-.23977 1.12763-1.15259 1.44316-1.17358l.0968.0252.0968.0252c.0967.0253.0715.12202.0462.21878.021.31553-.83736 1.22835-1.00988 1.49337v0c-.26928.23976-1.12762 1.15258-1.44315 1.17358l-.0968-.0252-.0715-.12202c-.0253.0968.0.0.0.0zm2.08274-2.04015c-.24403.14301-.41655.40803-.80784.7193-.29454.33653-.56382.5763-.71108.74456.24402-.14301.41654-.40803.80784-.7193v0c.26928-.23977.56381-.5763.71108-.74456z" id="path43-0"/></svg>