<svg viewBox="0 0 560 1e3"><defs><filter style="color-interpolation-filters:sRGB" id="filter7204"><feGaussianBlur stdDeviation="1 1" result="blur" id="feGaussianBlur7202"/></filter><clipPath clipPathUnits="userSpaceOnUse" id="clipPath7208"><path style="fill-opacity:.29349736;fill:#00e0e8" d="m284.475 448.125c2.7-.2 8.7 1.7 9.7 4 .9 1.9.4-.6-.9 1.1-.8.4-2.1.9-3.7 1.6-3.6 1.4-4.3 1.6-5.6 2.5-1.4 1-2.4 2.3-2.9 2.9-.4.5-1 1.3-1.6 2.3-.2.3-.3.6-.5.8s-.3.5-.4.7c-1.1 3.3-2.5 6.6-2 9.7v.9c0 .3.0.6-.1.9-.9 1.7 1.3 1.3 1.7 2.8.4 1.8.0 3.3-.1 5.1-.1.3-.1.6-.2.8-.8 2.6-2 3.6-2 3.6-.2.2-.8.8-1.5 1.2-.2.1-.5.3-.8.4-4.2 1.3-6-3.5-6.9-6.5-.1-.3-.2-.7-.2-1-.2-1.4-.2-2.8.5-3.6.2-.2.4-.3.5-.4.2-.1.3-.3.4-.5-1.4-4.5-.3-8.6.2-12.8.0-.3.1-.6.1-.9.3-2.1.3-2.6 1.2-4.6.3-.7 1.3-3.7 4-6.4 4.8-4.7 8.2-4.4 11.1-4.6z" id="path7210"/></clipPath></defs><path id="path6-5" d="m275.575 476.125c.1.1.4.3.8.4 2.8.3 2.8 4.4 2.2 7-.1.2-.1.5-.2.7-.9 3.1-2.2 4.4-2.2 4.4-.3.3-1.2 1.2-2.4 1.7-.3.1-.6.2-1 .2-4-.1-5.8-3.9-6.3-7.3-.1-.4-.2-.7-.2-1.1-.3-1.5-.2-3.1.6-3.9.2-.2.4-.3.6-.5.2-.1.3-.3.4-.6"/><path id="path8-3" d="m266.875 471.725c0-.5.0-1.2.1-2.1.0-.4.1-2.1.5-4.5.2-1.4.4-2.5.5-2.8 1.5-7.5 6.9-11.2 6.9-11.2.6-.5 2-1.3 2.6-1.8 1.2-.8 4.9-2.5 10.1-.9.7.2 5.9 2.4 6.7 3.8 1 1.8-.7-1.1-1-.8-.2.1-.5.4-.8.8-.4.6-.6 1.1-.7 1.3-.4.9-1.5 1.2-3 1.8-2 .8-3.2 1.3-4.4 2.2-.9.7-1.5 1.4-2.7 2.9-1.1 1.3-1.7 2-2.2 3.2-.2.4-.5 1.2-1.1 2.8-.4 1-.5 1.4-.7 1.9-.3.9-.4 1.6-.5 2.2-.3 1.3-1.2 3.8-3.4 5.8-1.1 1-2.5 2.3-3.9 1.9-2.4-.6-2.9-6.1-3-6.5z"/><path id="path10-5" d="m284.475 448.125c2.7-.2 8.7 1.7 9.7 4 .9 1.9.4-.6-.9 1.1-.8.4-2.1.9-3.7 1.6-3.6 1.4-4.3 1.6-5.6 2.5-1.4 1-2.4 2.3-2.9 2.9-.4.5-1 1.3-1.6 2.3-.2.3-.3.6-.5.8s-.3.5-.4.7c-1.1 3.3-2.5 6.6-2 9.7v.9c0 .3.0.6-.1.9-.9 1.7 1.3 1.3 1.7 2.8.4 1.8.0 3.3-.1 5.1-.1.3-.1.6-.2.8-.8 2.6-2 3.6-2 3.6-.2.2-.8.8-1.5 1.2-.2.1-.5.3-.8.4-4.2 1.3-6-3.5-6.9-6.5-.1-.3-.2-.7-.2-1-.2-1.4-.2-2.8.5-3.6.2-.2.4-.3.5-.4.2-.1.3-.3.4-.5-1.4-4.5-.3-8.6.2-12.8.0-.3.1-.6.1-.9.3-2.1.3-2.6 1.2-4.6.3-.7 1.3-3.7 4-6.4 4.8-4.7 8.2-4.4 11.1-4.6z" class="skin penis"/><g id="g7200" style="filter:url(#filter7204)" clip-path="url(#clipPath7208)"><path class="skin_highlight" id="path7046-2-7" d="m293.82498 450.11397c-9.52455-6.42128-27.38176 9.27717-27.11365 17.50163-3.27797-11.88142 10.56477-31.64542 27.11365-17.50163z"/><path class="skin_shade" d="m292.82612 454.5798c-18.45952-5.83567-21.98619 25.84193-13.39803 32.94277 5.21232-.25982 11.34238-28.79131 13.39803-32.94277z" id="path7048-5-8"/><path d="m262.59198 482.08977c-.25578-4.95229-.73575-6.86216 1.97329-7.38123 1.6768-1.75407 7.05377 8.54302-1.97329 7.38123z" id="path7134-5" class="skin_highlight"/></g></svg>