<svg viewBox="0 0 560 1e3"><path id="path1074" d="m312.6125 241.81215c-2.0933-.29336-4.20874-2.25346-4.21867-4.01028-.0126-2.24206 2.65749-4.58209 5.00314-4.45169 2.20577.12263 4.50762 1.95044 4.05546 4.6679-.45217 2.71747-2.337 4.14484-4.83993 3.79407z" class="areola"/><path id="path1082" d="m313.47573 239.66032c-1.94762-.0319-2.30525-.47307-2.84254-1.38769-.0692-.11498-.14074-.6753-.039-1.04629.26998-.9844 1.38054-1.82945 2.49788-1.77138 1.83776.0955 2.2692 2.11008 2.25662 2.11245-.19082.92279-.63028 2.09291-1.87298 2.09291z" class="shadow"/><path class="areola" d="m313.47573 239.66032c-1.94762-.0319-2.40618-.60407-2.84254-1.38769-.0133.01-.14074-.6753-.039-1.04629.26998-.9844 1.53307-1.84755 2.49788-1.77138 1.78528.14096 2.2692 2.11008 2.25662 2.11245-.15647.78536-.63028 2.09291-1.87298 2.09291z" id="path1084"/><path id="path1086" d="m311.35893 236.87262c.87662-.34085 1.71217.12006 2.25579.57658-.65277-.31849-1.48757-.75499-2.25579-.57658z" class="shadow"/><path class="shadow" d="m312.37165 236.86687c.50004-.43498.80129-.55077 1.55144-.47994-.70137.0247-1.0201.15274-1.55144.47994z" id="path1088"/><path id="path1074-8" d="m247.22158 244.74921c-1.54529-.29336-3.10693-2.25346-3.11426-4.01028-.009-2.24206 1.96178-4.58209 3.69336-4.45169 1.62832.12263 3.32757 1.95044 2.99378 4.6679-.33379 2.71747-1.72519 4.14484-3.57288 3.79407z" class="areola"/><path id="path1082-6" d="m246.84943 242.44113c-1.78297-.0319-2.11037-.47307-2.60223-1.38769-.0634-.11498-.12885-.6753-.0357-1.04629.24716-.9844 1.26383-1.82945 2.28672-1.77138 1.68239.0955 2.07736 2.11008 2.06584 2.11245-.17469.92279-.57699 2.09291-1.71464 2.09291z" class="shadow"/><path class="areola" d="m246.84943 242.44113c-1.78297-.0319-2.20276-.60407-2.60223-1.38769-.0122.01-.12885-.6753-.0357-1.04629.24716-.9844 1.40347-1.84755 2.28672-1.77138 1.63435.14096 2.07736 2.11008 2.06584 2.11245-.14324.78536-.57699 2.09291-1.71464 2.09291z" id="path1084-7"/><path id="path1086-5" d="m244.21552 240.06223c.80251-.34085 1.56743.12006 2.06509.57658-.59758-.31849-1.36181-.75499-2.06509-.57658z" class="shadow"/><path class="shadow" d="m245.14263 240.05648c.45777-.43498.73355-.55077 1.42028-.47994-.64208.0247-.93386.15274-1.42028.47994z" id="path1088-1"/></svg>