<svg viewBox="0 0 560 1e3"><defs><filter style="color-interpolation-filters:sRGB" id="filter13779"><feGaussianBlur stdDeviation="1 1" result="blur" id="feGaussianBlur13777"/></filter><clipPath clipPathUnits="userSpaceOnUse" id="clipPath13781"><path d="m259.2 473.675c-.2 3.4 1.2 7.6 4.2 9.7 3.3 2.4 5.8.3 12.8 2 5.5 1.4 5.3 3.1 9.7 3.8 1 .2 9.2 1.3 14.2-3.8 3.6-3.7 3.6-8.9 3.5-16.6-.1-5.7-1.2-9.6-2-11.7-1.4-3.9-2.3-6.1-4.5-7.6-4.9-3.2-12.3.4-15.9 2-4.1 2-6.4 4.1-11.1 8.3-7.1 6.4-10.7 9.6-10.9 13.9z" id="path13783" style="fill-opacity:.42706502;fill:#00e0e8"/></clipPath></defs><path d="m259.2 478.275c2 5.2 4.4 6.1 6.1 6.7 3.9 1.2 6-.4 12.4 1.6 2.9.9 4.9 3.3 9.8 3.3.9.0 7.8 1.3 13.3-4.1 3.5-3.4 3.3-8.3 3.2-15.5-.1-5.3-1.2-8.9-2-10.9-1.3-3.6-2.1-5.8-4.2-7.1-4.5-2.9-11.4.3-14.8 2-3.7 1.8-6.8-.8-11.2 3.2-6.3 5.8-14.9 14.5-12.6 20.8z" class="shadow" id="XMLID_872_"/><path d="m259.2 473.675c-.2 3.4 1.2 7.6 4.2 9.7 3.3 2.4 5.8.3 12.8 2 5.5 1.4 5.3 3.1 9.7 3.8 1 .2 9.2 1.3 14.2-3.8 3.6-3.7 3.6-8.9 3.5-16.6-.1-5.7-1.2-9.6-2-11.7-1.4-3.9-2.3-6.1-4.5-7.6-4.9-3.2-12.3.4-15.9 2-4.1 2-6.4 4.1-11.1 8.3-7.1 6.4-10.7 9.6-10.9 13.9z" class="skin scrotum" id="XMLID_873_" clip-path="none"/><g id="g13775" style="filter:url(#filter13779)" clip-path="url(#clipPath13781)"><path clip-path="none" class="skin_shade" d="m264.04199 462.87268c-43.1337 21.3308 55.94579 74.44275 40.21973 4.33397-.52016-.16661-3.20417 14.47217-11.53936 15.65729-4.89537.69604-7.52566-3.55208-12.58007-5.13881-5.64462-1.77201-9.30194 5.0421-14.87395.0692-4.25578-3.7982-1.35668-12.92193-1.22635-14.92165z" id="path7048-5-1-3-89-2"/></g></svg>