<svg viewBox="0 0 560 1e3"><path style="display:inline;fill-opacity:1;fill:none;opacity:1;stroke-dasharray:none;stroke-dashoffset:0;stroke-linecap:butt;stroke-linejoin:miter;stroke-miterlimit:4;stroke-opacity:1;stroke-width:.453543;stroke:#ff9300;vector-effect:none" d="m274.38914 295.3721c-.67275 11.22954-9.39908 23.46844-8.30207 55.58032 1.10075 32.22134 6.08027 45.81471 10.58993 55.0831" id="path7032-3-4"/><path d="m309.64993 374.76916c12.5-29.4 8.55007-52.64416-18.94993-70.94416-6.5-4.3-36.31351-11.16339-38.01351-2.9634-10.79598 30.33834-20.73387 40.93304-19.14201 62.73091 13.54816 66.20577 69.47852 44.89789 76.10545 11.17665z" class="shadow" id="path2644"/><path id="path2640" d="m245.82368 320.1752c-6.98412 16.93416-13.25298 26.9971-12.2792 43.41731 15.71331 67.71903 71.01706 43.47533 77.69644 11.17665 8.55095-20.11183 8.65947-38.68835-.92871-54.27677-23.1485 5.53162-45.32224 7.73758-64.48853-.31719zm64.48853.31719C305.88414 313.29324 299.38792 306.73141 290.7 300.95c-5.20612-5.0539-35.64473-12.8791-38.01351-.0884-2.21146 7.48465-4.5755 13.76762-6.86281 19.3136 23.33155 10.12967 44.19234 6.76521 64.48853.31719z" class="skin belly"/><path d="m267.14919 359.30734c.48219-2.95995.50103-5.52426-.57274-9.24552l-.0242.001c-.78458 4.82879-.38541 6.45786.59697 9.24433z" class="shadow belly_details" id="path1454-6-5"/><path id="path1459-5-05" class="muscle_tone belly_details" d="m266.57645 350.06182c-2.33392-7.76332.81606-35.04811.81606-35.04811l.001.003s-3.96483 25.46463-.84168 35.04655z"/></svg>