<svg viewBox="0 0 560 1e3"><path class="shadow" id="path5267" d="m287.73632 451.02625c0 .62226-.69774 1.32-1.32 1.32s-1.32-.69774-1.32-1.32.69774-1.32 1.32-1.32 1.32.69774 1.32 1.32z"/><path class="shadow" id="path5269" d="m282.2575 447.6875c0 .62226-.69774 1.32-1.32 1.32s-1.32-.69774-1.32-1.32.69774-1.32 1.32-1.32 1.32.69774 1.32 1.32z"/><path class="shadow" id="path5271" d="m276.6325 442.8125c0 .62226-.69774 1.32-1.32 1.32s-1.32-.69774-1.32-1.32.69774-1.32 1.32-1.32 1.32.69774 1.32 1.32z"/><path class="shadow" id="path5273" d="m273.94109 444.62629c-.25717.37024-.68749.65747-1.08674.65747-.62226.0-1.32-.69774-1.32-1.32.0-.47297.40311-.98955.86978-1.2102.66825.97802.44108.72428 1.53696 1.87273z"/><path d="m287.61632 451.02625c0 .56569-.63431 1.2-1.2 1.2-.56569.0-1.2-.63431-1.2-1.2.0-.56569.63431-1.2 1.2-1.2.56569.0 1.2.63431 1.2 1.2z" id="XMLID_537_-4-55" class="steel_piercing"/><path class="shadow" id="path5275" d="m280.11673 450.22081c-.24774.40879-.71164.73912-1.13979.73912-.62226.0-1.32-.69774-1.32-1.32.0-.33978.20803-.70206.49822-.96096.83618.60481 1.08354.74483 1.96157 1.54184z"/><path d="m282.1375 447.6875c0 .56569-.63431 1.2-1.2 1.2-.56569.0-1.2-.63431-1.2-1.2.0-.56569.63431-1.2 1.2-1.2.56569.0 1.2.63431 1.2 1.2z" id="XMLID_537_-4-55-9" class="steel_piercing"/><path class="shadow" id="path5277" d="m286.15871 454.02657c-.19261.50414-.74564.96114-1.24924.96114-.62226.0-1.32-.69774-1.32-1.32.0-.30757.17046-.63359.41803-.88466 1.26624.66409 1.25398.715 2.15121 1.24352z"/><path d="m276.5125 442.8125c0 .56569-.63431 1.2-1.2 1.2-.56569.0-1.2-.63431-1.2-1.2.0-.56569.63431-1.2 1.2-1.2.56569.0 1.2.63431 1.2 1.2z" id="XMLID_537_-4-55-0" class="steel_piercing"/><path d="m273.83169 444.57105c-.23379.33658-.62499.5977-.98794.5977-.56569.0-1.2-.63431-1.2-1.2.0-.42997.36646-.89959.79071-1.10018.6075.88911.40098.65844 1.39723 1.70248z" id="XMLID_537_-4-55-8" class="steel_piercing"/><path d="m280.00492 450.18432c-.22522.37163-.64694.67193-1.03617.67193-.56569.0-1.2-.63431-1.2-1.2.0-.30889.18912-.63824.45293-.8736.76016.54983.98503.67712 1.78324 1.40167z" id="XMLID_537_-4-55-1" class="steel_piercing"/><path d="m286.04193 454.01373c-.1751.45831-.67786.87377-1.13568.87377-.56569.0-1.2-.63431-1.2-1.2.0-.27961.15497-.57599.38003-.80424 1.15113.60372 1.13998.65 1.95565 1.13047z" id="XMLID_537_-4-55-6" class="steel_piercing"/></svg>