<svg viewBox="0 0 560 1e3"><defs><clipPath clipPathUnits="userSpaceOnUse" id="clipPath13344"><path id="path13346" d="m296.51526 149.82524c-.60044 11.74636 4.52731 21.84761 4.14186 32.15688.0.0 29.989-1.7219 36.03381-9.31622-3.81788-3.83803-6.1307-11.25313-6.22921-26.33633l97.0383-51.829609L545.88646 179.7561 531.74432 683.21615 41.012195 681.80194 57.982758 266.02313 166.87721 188.94849l70.35713-39.95154z"/></clipPath><filter style="color-interpolation-filters:sRGB" id="filter26288"><feGaussianBlur stdDeviation="4 8" result="blur" id="feGaussianBlur26286"/></filter><clipPath clipPathUnits="userSpaceOnUse" id="clipPath26302"><path style="fill-opacity:.3886179;fill:#00fffb;opacity:1;stroke-dasharray:none;stroke-dashoffset:0;stroke-linecap:butt;stroke-linejoin:miter;stroke-miterlimit:4;stroke-opacity:1;stroke-width:.36817819;stroke:none;vector-effect:none" d="m152.63407 343.10198c8.87207-1.16731 17.10153-2.5055 24.20055-3.69401.95494-.45684 1.29269-.49096 2.09464-.60166-6.18266-27.89621-3.66247-29.49277-.22559-44.01729 3.00641-11.70892 7.5071-23.35531 16.31659-33.76135l-5.82847-4.58563c-22.15275 8.75889-37.42992 21.09768-43.83801 36.18998-5.75425 13.5524-7.08976 31.91776 4.36944 50.62223z" id="path26304"/></clipPath><filter style="color-interpolation-filters:sRGB" id="filter26310"><feGaussianBlur stdDeviation="4 8" result="blur" id="feGaussianBlur26308"/></filter><clipPath clipPathUnits="userSpaceOnUse" id="clipPath27231"><path d="m266.98656 331.70052c.87297.10515 1.81114.17134 2.69161.22154 7.1137.40562 15.91388.21899 22.94596.4017 8.89815.2312 15.89405 1.0698 23.36202 1.31511 6.98259-40.74954 7.71796-61.36063 4.99141-95.96673l-10.47789-3.40705c-24.79816 17.62285-44.42294 51.42694-43.51311 97.43543z" id="path27233" class="bra_primary"/></clipPath></defs><g id="g13541" data-transform="boob_outfit"><path d="m180.90029 336.01015c-14.32975 2.11431-27.36501 4.53394-38.83744 5.52327-.27506.47981-.5072 2.16386.81271 2.70818 11.10569-.96356 24.4399-3.40678 38.39952-5.60972 18.90981-2.98409 35.28477-5.91797 86.49251-6.54816 16.94706-.20856 24.74335-.6188 47.78906 1.55346 12.01643 1.13265 46.4853 5.43034 58.94897 7.58603 5.50249.9517 15.11607 2.89911 19.43135 3.77944 1.15656.39684 2.29548-1.44056 1.31805-2.37139-5.54432-1.11152-17.36065-3.48545-17.65079-3.53884-13.34021-2.4547-48.80322-7.02989-61.72288-8.08021-27.12804-2.20541-31.06594-1.50267-47.81984-1.55689-56.15166-.18171-78.20932 5.234-87.16122 6.55483z" id="path13482" class="bra_accent"/><path class="bra_primary" id="path13484" d="m266.98656 331.70052c.87297.10515 1.81114.17134 2.69161.22154 7.1137.40562 15.91388.21899 22.94596.4017 8.89815.2312 15.89405 1.0698 23.36202 1.31511 9.01552-39.33533 7.80635-61.27224 5.0798-95.87834l-11.09661-3.49544c-26.30077 18.94868-43.71583 50.98499-42.98278 97.43543z"/><path class="bra_primary" d="m152.63407 343.10198c8.87207-1.16731 17.10153-2.5055 24.20055-3.69401.95494-.45684 1.29269-.49096 2.09464-.60166-6.18266-27.89621-3.66247-29.49277-.22559-44.01729 3.00641-11.70892 7.5071-23.35531 16.31659-33.76135l-5.82847-4.58563c-22.15275 8.75889-37.42992 21.09768-43.83801 36.18998-5.75425 13.5524-7.08976 31.91776 4.36944 50.62223z" id="path13500"/><g id="g26300" clip-path="url(#clipPath26302)"><g clip-path="none" id="g26147" style="display:inline;filter:url(#filter26288)"><path d="m127.37501 304.74997 7.875 47.375 60.75-7.125-5.75-41.50001c-7.74754 4.34893-46.40563 9.79402-62.875 1.25001z" id="path26120" class="bra_primary_shade"/><path class="bra_primary_shade" id="path26122" d="m128.50001 312.12497 6.75 40 60.75-7.125-4.625-34.12501c-7.74754 4.34893-46.40563 9.79402-62.875 1.25001z"/><path d="m129.87501 319.87497 5.375 32.25 60.75-7.125-3.25-26.37501c-7.74754 4.34893-46.40563 9.79402-62.875 1.25001z" id="path26124" class="bra_primary_shade"/><path class="bra_primary_shade" id="path26126" d="m130.87501 327.12497 4.375 25 60.75-7.125-2.25-19.12501c-7.74754 4.34893-46.40563 9.79402-62.875 1.25001z"/><path d="m131.87501 335.74997 3.375 16.375 60.75-7.125-1.25-10.50001c-7.74754 4.34893-46.40563 9.79402-62.875 1.25001z" id="path26128" class="bra_primary_shade"/><path class="bra_primary_highlight" id="path26130" d="m138.595 289.01813 10.89725-46.77239 60.16795 11.00661-8.39982 41.04579c-7.45267-4.83688-45.68194-12.75015-62.66538-5.28001z"/><path d="m140.095 281.01813 9.39725-38.77239 60.16795 11.00661-6.89982 33.04579c-7.45267-4.83688-45.68194-12.75015-62.66538-5.28001z" id="path26132" class="bra_primary_highlight"/><path class="bra_primary_highlight" id="path26134" d="m142.345 273.14313 7.14725-30.89739 60.16795 11.00661-4.64982 25.17079c-7.45267-4.83688-45.68194-12.75015-62.66538-5.28001z"/><path d="m144.47 266.64313 5.02225-24.39739 60.16795 11.00661-2.52482 18.67079c-7.45267-4.83688-45.68194-12.75015-62.66538-5.28001z" id="path26136" class="bra_primary_highlight"/></g></g><path d="m141.09352 317.6553c1.04834 9.09036 3.72508 18.30752 8.71866 25.80321l2.96198-.31924c-5.62364-8.0147-8.09535-18.52129-9.61417-28.62727-1.30203-8.66349-.27085-11.25032.13224-16.20204-1.61514 6.28057-3.07847 11.71679-2.19871 19.34534zm6.61616-29.65206c8.75706-12.45545 22.3793-20.9264 41.82423-28.86906l2.18064 1.66112c-8.59318 10.70474-14.00571 24.36549-17.40609 40.71662-3.3328 16.02616-.91748 25.66328 2.57811 37.92225l2.76388-.57998c-3.45775-12.24442-6.00431-21.82227-2.71702-37.01416 3.4608-15.99374 8.89466-29.31653 17.69317-40.39873l.90236-1.06299-5.59858-4.26899-.70066.28369c-3.32186 1.35708-6.51223 2.65607-9.56597 3.94104-26.12955 11.76247-30.00356 25.05038-31.95407 27.66919z" id="path13517" class="bra_accent"/><g id="g26223"><g id="g26202"><path d="m151.12072 340.54675c8.56279-1.08999 16.78147-2.65715 25.06416-3.86136l-.31542-.65624c-8.31472 1.27782-16.32146 2.94925-25.07604 3.97073z" id="path13521" class="bra_primary_shade"/><path class="bra_primary_shade" id="path13533" d="m151.12072 340.54675c8.56279-1.08999 16.78147-2.65715 25.06416-3.86136l-.31542-.65624c-8.31472 1.27782-16.32146 2.94925-25.07604 3.97073z"/><path d="m151.12072 340.54675c8.56279-1.08999 16.78147-2.65715 25.06416-3.86136l-.31542-.65624c-8.31472 1.27782-16.32146 2.94925-25.07604 3.97073z" id="path13535" class="bra_primary_shade"/><path class="bra_primary_shade" id="path13537" d="m151.12072 340.54675c8.56279-1.08999 16.78147-2.65715 25.06416-3.86136l-.31542-.65624c-8.31472 1.27782-16.32146 2.94925-25.07604 3.97073z"/><path d="m151.12072 340.54675c8.56279-1.08999 16.78147-2.65715 25.06416-3.86136l-.31542-.65624c-8.31472 1.27782-16.32146 2.94925-25.07604 3.97073z" id="path13539" class="bra_primary_shade"/></g><g id="g26209"><path d="m269.64351 329.40105c8.80785-.32426 37.68649.31961 44.57718 1.42913l.14148-.65625c-20.25124-2.02506-38.93547-1.31735-44.85022-1.35841z" id="path13523" class="bra_primary_shade"/><path class="bra_primary_shade" id="path13561" d="m269.64351 329.40105c8.80785-.32426 37.68649.31961 44.57718 1.42913l.14148-.65625c-20.25124-2.02506-38.93547-1.31735-44.85022-1.35841z"/><path d="m269.64351 329.40105c8.80785-.32426 37.68649.31961 44.57718 1.42913l.14148-.65625c-20.25124-2.02506-38.93547-1.31735-44.85022-1.35841z" id="path13563" class="bra_primary_shade"/><path class="bra_primary_shade" id="path13565" d="m269.64351 329.40105c8.80785-.32426 37.68649.31961 44.57718 1.42913l.14148-.65625c-20.25124-2.02506-38.93547-1.31735-44.85022-1.35841z"/><path d="m269.64351 329.40105c8.80785-.32426 37.68649.31961 44.57718 1.42913l.14148-.65625c-20.25124-2.02506-38.93547-1.31735-44.85022-1.35841z" id="path13567" class="bra_primary_shade"/></g></g><g clip-path="url(#clipPath27231)" id="g26280" style="display:inline;filter:url(#filter26310)"><path d="m260.87186 289.50372-.36385 48.02393 67.76601 3.35014 1.57427-41.87243c-9.29394 2.96253-52.58922 1.72842-68.97643-9.50164z" id="path26262" class="bra_primary_shade"/><path class="bra_primary_shade" id="path26264" d="m260.70488 296.96251-.19687 40.56514 67.76601 3.35014 1.40729-34.41363c-9.29393 2.96252-52.58922 1.72841-68.97643-9.50165z"/><path d="m260.74018 304.83348-.23217 32.69417 67.76601 3.35014 1.44259-26.54267c-9.29393 2.96253-52.58921 1.72842-68.97643-9.50164z" id="path26266" class="bra_primary_shade"/><path class="bra_primary_shade" id="path26268" d="m260.46023 312.14777.0478 25.37988 67.76601 3.35014 1.16264-19.22838c-9.29393 2.96253-52.58922 1.72842-68.97643-9.50164z"/><path d="m259.91983 320.81687.58818 16.71078 67.76601 3.35014.62223-10.55927c-9.29392 2.96252-52.58922 1.72841-68.97642-9.50165z" id="path26270" class="bra_primary_shade"/><path class="bra_primary_highlight" id="path26272" d="m264.91904 281.47164 12.41676-61.69785 68.55779 14.51891-9.57109 54.14385c-8.49187-6.38037-52.05185-16.81883-71.40346-6.96491z"/><path d="m266.6282 270.91877 10.7076-51.14498 68.55779 14.51891-7.86193 43.59098c-8.49187-6.38037-52.05185-16.81883-71.40346-6.96491z" id="path26274" class="bra_primary_highlight"/><path class="bra_primary_highlight" id="path26276" d="m269.19194 260.53079 8.14386-40.757 68.55779 14.51891-5.29819 33.203c-8.49187-6.38037-52.05184-16.81883-71.40346-6.96491z"/><path d="m271.61325 251.95659 5.72255-32.1828 68.55779 14.51891-2.87688 24.6288c-8.49187-6.38037-52.05184-16.81883-71.40346-6.96491z" id="path26278" class="bra_primary_highlight"/></g><path d="m309.66703 232.75802-.48602.37256c-40.87891 31.24049-44.62044 71.52236-42.21067 98.59237.71101.10127 1.78175.295 2.66437.37726-2.40453-26.49336 1.0266-65.64702 40.89877-96.41298l9.25894 2.80612c3.74549 39.85918 1.59199 65.44551-6.20228 94.99742l2.75224.32951c7.78661-29.7705 9.92438-55.83958 6.04533-96.23609l-.096-1.00146z" id="path13519" class="bra_accent"/></g><g id="g13557" clip-path="url(#clipPath13344)"><g data-transform="boob_outfit" id="g13555" style="display:inline"><path class="bra_accent bra_strap1" id="path13551" d="m320.05974 166.91751c-.005 69e-5-.0102-71e-5-.0156.0-1.12202.14855-2.27938.5383-3.4336.98047-.28789.11029-.56919.113-.85742.24414-.002 91e-5-.004.001-.006.002-.0206.01-.0399.0218-.0605.0312-5.54604 2.52609-10.28853 4.62013-15.3935 7.64005-12.65824 7.48818-23.33403 19.01334-33.55101 26.72369-6.37566 4.81146-31.35138 24.33671-51.54269 38.38039-12.33116 8.5767-23.74002 14.63864-25.52364 15.42739l1.45507 1.60157c1.3486-.59637 12.40934-7.22774 14.13524-8.32756-1.14319 1.08396-10.89363 8.96172-11.69521 9.81587l1.78907.97266c1.11498-1.18813 9.88846-9.0475 21.03954-17.79858 17.69281-13.88487 40.89688-30.96298 45.39731-34.39205 14.21229-10.82894 25.9164-23.32515 39.22093-31.07525 5.14889-2.99931 9.91787-5.09918 15.36029-7.62638.002-92e-5.004-.001.006-.002 1.29008-.5862 2.59348-.92319 3.8711-1.09961.0121-.002.0231-45e-5.0351-.002 1.26104-.16293 12.94348-2.63502 14.11925-2.56755 2.07314.11898 5.58281.32344 7.08594.33008.21161 94e-5.55304.0683.75.0605.31071-.0122.49438.0638.77344.0566 4.13934-.10675 5.70628 4.09659 4.83915 7.53217-1.61141 6.38442-11.55952 19.31929-15.60604 26.39717-1.68792 2.95239-4.35889 8.76308-8.42975 14.71845-5.68119 8.31118-13.02276 16.90415-14.79197 18.40307l1.74276 1.80741c1.93898-1.64274 10.97085-13.60117 13.70392-17.2429-1.23492 3.24735-4.41558 16.82647-4.55713 19.55111l2.37848-.0933c.10316-1.98561 2.06402-11.90452 4.29743-19.62481 1.82308-6.30187 3.84862-10.55481 5.0215-12.65185 4.11484-7.35706 18.60828-27.24055 18.25421-33.71311-.22318-4.07983-2.58711-6.19605-6.2481-6.62621-12.28592-1.44359-18.03894 1.63015-23.56357 2.16722z"/><path d="m326.9668 168.76172c-1.24733-.0612-2.59522-.0468-3.99024.14453-.005 75e-5-.0102-75e-5-.0156.0-1.12202.14851-2.27975.53734-3.4336.98047-.28826.10933-.56919.11301-.85742.24414-.002 92e-5-.004.001-.006.002-.0206.01-.0399.0217-.0605.0312-5.54608 2.52599-10.83551 5.3656-15.98633 8.30664-.7623.4336-1.47586.87883-2.23047 1.31836-3.89041 2.2797-7.64415 4.58434-11.26172 6.95508-2.04202 1.32146-3.97705 2.5981-5.92773 3.92383-1.16383.79956-2.26208 1.57291-3.39063 2.36719-4.72869 3.30033-9.07082 6.44736-13.06445 9.5039-5.82845 4.36495-27.61547 21.55373-46.87888 34.99814-14.7715 10.3094-28.34233 17.92784-30.38399 18.8307l1.48632 1.82032c1.3486-.59637 11.99518-7.11839 13.72108-8.21821-1.14319 1.08396-10.20358 8.68854-11.00516 9.54269l1.60157 1.03516c1.22295-1.30318 12.00671-10.81701 24.64602-20.70111 17.1677-13.42536 37.70594-28.32595 41.86773-31.628 1.56299-1.24011 3.50784-2.67035 5.23828-4 1.97422-1.48461 3.49518-2.64483 5.64257-4.22461 2.49585-1.83612 5.19499-3.74845 7.9043-5.65625 1.17719-.82204 2.30352-1.63105 3.51953-2.45703 1.87083-1.28469 3.85382-2.56105 5.81055-3.84375 3.65672-2.36708 7.40933-4.71565 11.30664-6.98438.71168-.41673 1.403-.84261 2.12305-1.2539 5.17896-2.94709 10.51071-5.76575 15.95312-8.29297.002-9e-4.004-.001.006-.002 1.29011-.58613 2.59344-.92352 3.8711-1.09961.0121-.002.0231-4e-4.0351-.002 1.26105-.16288 2.50001-.16903 3.67578-.10156 2.07314.11898 3.7703.391 5.27344.39258.21153.006.55304.0683.75.0605.31071-.0122.49437.0497.77344.0566 4.13895-.12084 5.04099 2.92779 4.48559 6.42731-.95259 6.00228-3.11516 16.70318-6.03129 22.82969-1.50364 3.159-4.10685 8.80244-8.24053 14.92202-5.49214 8.13067-12.739 16.76363-14.47177 18.23167l1.95079 1.28688c1.93898-1.64274 10.36324-12.68603 13.09631-16.32776-1.23492 3.24735-4.39505 15.88453-4.5366 18.60917l2.17267.0339c.18737-3.60642 3.83115-18.15945 5.99143-23.04989 1.40635-3.1837 6.49416-15.82271 7.87605-20.07794 2.24251-6.90533 4.0363-14.31075 4.02958-19.26008-.0488-1.04392-.40047-1.94853-.9082-2.75391-1.18066-1.68433-3.00842-2.2755-4.80957-2.41389-2.52781.0383-5.20071-.39333-7.31741-.5062z" id="path13549" class="bra_accent bra_strap2"/><path class="bra_accent bra_strap3" id="path13553" d="m325.32495 171.4313c-1.24733-.0612-2.59522-.0468-3.99024.14453-.005 75e-5-.0102-75e-5-.0156.0-1.12202.14851-2.27975.53734-3.4336.98047-.28826.10933-.56919.11301-.85742.24414-.002 92e-5-.004.001-.006.002-.0206.01-.0399.0217-.0605.0312-5.54608 2.52599-7.21148 3.66502-12.34448 6.63706-12.74467 7.37923-26.53232 14.48604-37.875 23.06836-6.82102 5.16106-35.53905 27.15654-56.05708 41.33952-10.34344 7.14985-19.3282 11.65504-20.90483 12.35225l1.27423 1.73638c1.3486-.59637 12.15289-7.14352 13.87879-8.24334-1.14319 1.08396-10.37516 8.72569-11.17674 9.57984l1.63191 1.03516c.96962-1.03323 7.97671-7.49875 17.12666-14.67151 18.06584-14.16205 44.48527-33.64297 49.28175-37.44861 1.56299-1.24011 3.50169-2.6784 5.23828-4 11.51071-8.76002 26.84846-16.7286 38.30664-23.41992 5.14562-3.00493 6.86886-4.09617 12.31127-6.62339.002-9e-4.004-.001.006-.002 1.29008-.58621 2.59344-.92352 3.8711-1.09961.0121-.002.0231-4e-4.0351-.002 3.51641-.33736 4.68287-.26691 7.91016-.21688 4.14022.0642 4.90903 2.29627 4.4414 5.80859-.83884 6.3004-.24206 18.07893-3.15277 23.9671-1.48478 3.0036-4.37622 8.52187-8.13976 13.93659-5.38762 7.75135-11.97217 15.48726-13.76013 17.00205l1.72852 1.7168c1.93898-1.64274 11.1831-13.61236 13.91617-17.25409-1.23492 3.24735-4.22954 16.57028-4.37109 19.29492l2.07226.0781c.11791-2.26944 2.32337-12.53114 4.9603-21.05923 1.55347-5.02409 3.70558-9.4465 4.46158-11.27866 3.66566-8.88369 4.12843-19.37107 3.85639-28.85236-.03-1.04462-.0911-1.68336-.59884-2.48874-1.18066-1.68433-3.00842-2.2755-4.80957-2.41389-2.52781.0383-2.63821.23167-4.75491.1188z"/></g></g></svg>