<svg viewBox="0 0 560 1e3"><path class="shadow" id="path5024" d="m314.37536 109.81126c.26426.70503-.22998 1.7919-.93501 2.05616-.70503.26426-1.79191-.22998-2.05617-.93501-.26426-.70503.22998-1.7919.93501-2.05616.70503-.26426 1.79191.22998 2.05617.93501z"/><path d="m314.2394 109.86222c.24024.64093-.20908 1.629-.85001 1.86924-.64094.24024-1.62901-.20907-1.86925-.85001-.24024-.64093.20908-1.629.85001-1.86924.64094-.24024 1.62901.20907 1.86925.85001z" id="path2790" class="steel_piercing"/><path class="shadow" id="path5026" d="m316.42844 114.50526c.26426.70503-.22998 1.7919-.93501 2.05616-.70503.26426-1.79191-.22998-2.05617-.93501-.26426-.70503.22998-1.7919.93501-2.05616.70503-.26426 1.79191.22998 2.05617.93501z"/><path d="m316.29248 114.55622c.24024.64093-.20908 1.629-.85001 1.86924-.64094.24024-1.62901-.20907-1.86925-.85001-.24024-.64093.20908-1.629.85001-1.86924.64094-.24024 1.62901.20907 1.86925.85001z" id="path2792" class="steel_piercing"/></svg>