<svg viewBox="0 0 560 1e3"><path id="path1099" class="armpit_hair" d="m360.24347 231.86792.62233 4.65711c.55578.2551-7.99816 5.95284-3.27038-.65737-3.09359 5.37627 2.92909-.003 2.17022-2.14111-1.53423.28812-5.71284 3.52639-5.25133 8.12415-.98363-3.5058 2.9824-9.77272 4.83736-11.83806-.18244 1.45667-8.26869-.51242-3.88775 5.73641-5.3105-5.44303 2.41392-7.14507 3.39202-9.43961.45356 1.56568-1.24519 3.2832-7.4966 4.08414 3.46772-.44603 7.11012-4.45071 7.06734-6.77892-2.40629-.74554-6.1703 2.17421-5.81219 4.21371-.25259-2.66244 3.06309-5.85365 5.67489-7.08339-.9377 1.02012-4.71933.89387-3.06732-2.07507-.83642 1.71326 1.4865 2.34105 2.34002-.14383-1.70746-1.70745-3.52581-1.63585-3.89757.0658.97561-3.83828 3.37716-1.67017 4.2302-1.64816-.32331-.41565-.17879-.76893-.0751-1.12765-2.01181.29687-4.33853-2.08468-4.3297-2.13619 1.72132.72587 4.20901 1.47818 4.21081.17288.0.0-.11184-2.03629-.16497-3.11735 1.19043 6.54449 2.70769 21.13294 2.70769 21.13294z"/></svg>