<svg viewBox="0 0 560 1e3"><defs><filter style="color-interpolation-filters:sRGB" id="filter13816"><feGaussianBlur stdDeviation="1 1" result="blur" id="feGaussianBlur13814"/></filter><clipPath clipPathUnits="userSpaceOnUse" id="clipPath13820"><path style="fill-opacity:.47803165;fill:#00e0e8" id="path13822" d="m280.9 463.575c-.1 1.2.4 2.7 1.5 3.5 1.2.9 2 .1 4.5.7 2 .5 1.9 1.2 3.5 1.3.4.1 3.3.4 5.1-1.3 1.3-1.3 1.2-3.2 1.2-5.9.0-2-.4-3.4-.7-4.2-.5-1.4-1.37452-4.32132-2.17452-4.82132-1.7-1.2-4.4.1-5.6.7-1.4.7-1.72548 3.52132-3.32548 5.02132-2.7 2.3-3.9 3.5-4 5z"/></clipPath></defs><path d="m280.8 465.675c.7 2 1.6 2.3 2.3 2.5 1.4.4 2.2-.1 4.6.6 1.1.4 1.8 1.2 3.6 1.2.4.0 2.9.4 5-1.5 1.3-1.2 1.2-3 1.2-5.7.0-2-.4-3.3-.7-4.1-.5-1.3-.8-2.1-1.5-2.6-1.7-1.1-4.2.1-5.5.7-1.4.7-3.1-.2-4.7 1.3-2.6 2.1-5.2 5.2-4.3 7.6z" class="shadow" id="XMLID_876_"/><path d="m280.9 463.575c-.1 1.2.4 2.7 1.5 3.5 1.2.9 2 .1 4.5.7 2 .5 1.9 1.2 3.5 1.3.4.1 3.3.4 5.1-1.3 1.3-1.3 1.2-3.2 1.2-5.9.0-2-.4-3.4-.7-4.2-.5-1.4-1.37452-4.32132-2.17452-4.82132-1.7-1.2-4.4.1-5.6.7-1.4.7-1.72548 3.52132-3.32548 5.02132-2.7 2.3-3.9 3.5-4 5z" class="skin scrotum" id="XMLID_877_"/><g id="g13812" style="filter:url(#filter13816)"><path class="skin_shade" d="m281.85238 460.99009c-13.46821 6.6604 20.16455 24.12814 15.25419 2.23713-1.31146 1.58308-.24917 4.38626-5.68021 4.57953-1.54296.0549-2.92436-.84395-4.50257-1.3394-1.76249-.55329-2.32995 1.3092-4.06977-.24347-1.01866-.58076-.92043-3.51202-1.00164-5.23379z" id="path7048-5-1-3-89-2-8" clip-path="url(#clipPath13820)"/></g></svg>