<svg viewBox="0 0 560 1e3"><path id="path5191" class="shadow" d="m284.18101 449.97594c-.78541 1.03482-1.92995 2.77411-1.79506 3.97127.22781 2.02187 1.90351 4.72055 3.93739 4.66429 1.99279-.0551 3.3524-2.79813 3.59928-4.77632.21075-1.68867-1.97614-4.70734-1.97614-4.70734s1.43068 3.19836.9344 4.72534c-.35573 1.09449-1.3826 2.37703-2.53304 2.34603-1.30096-.0351-2.40484-1.54007-2.71746-2.8034-.21938-.88656.30217-2.29839.73842-3.25786-.0868-.10945-.1164-.10648-.18779-.16201z"/><path d="m284.36055 450.32995c-.71401.94075-1.7545 2.52192-1.63187 3.61025.2071 1.83806 1.73046 4.29141 3.57945 4.24026 1.81162-.0501 3.04763-2.54375 3.27207-4.34211.19159-1.53515-1.79649-4.2794-1.79649-4.2794s1.30062 2.9076.84945 4.29577c-.32339.99499-1.25691 2.16093-2.30276 2.13275-1.18269-.0319-2.18622-1.40006-2.47042-2.54854-.19944-.80597.2747-2.08945.67129-2.96169-.0789-.0995-.10582-.0968-.17072-.14729z" class="steel_piercing" id="XMLID_525_-3-90-02-3"/><path id="path5189" class="shadow" d="m280.62794 446.4892c-.78562 1.03346-1.93876 2.78083-1.80339 3.98224.22781 2.02187 1.90351 4.72055 3.93739 4.66429 1.99279-.0551 3.3524-2.79813 3.59928-4.77632.21075-1.68867-1.97614-4.70734-1.97614-4.70734s1.43068 3.19836.9344 4.72534c-.35573 1.09449-1.3826 2.37703-2.53304 2.34603-1.30096-.0351-2.40484-1.54007-2.71746-2.8034-.21815-.88157.29632-2.2825.73104-3.24159-.0715-.10439-.10219-.12545-.17208-.18925z"/><path d="m280.80673 446.84421c-.7142.93951-1.76251 2.52803-1.63945 3.62022.2071 1.83806 1.73046 4.29141 3.57945 4.24026 1.81162-.0501 3.04763-2.54375 3.27207-4.34211.19159-1.53515-1.79649-4.2794-1.79649-4.2794s1.30062 2.9076.84945 4.29577c-.32339.99499-1.25691 2.16093-2.30276 2.13275-1.18269-.0319-2.18622-1.40006-2.47042-2.54854-.19832-.80143.26938-2.075.66458-2.9469-.065-.0949-.0929-.11405-.15643-.17205z" class="steel_piercing" id="XMLID_525_-3-90-6"/></svg>