<svg viewBox="0 0 560 1e3"><g id="g2981" data-transform="boob_left"><path d="m279.96728 285.7626s-9.52999 35.09103-3.75699 51.20067c3.99007 11.13432 12.67708 26.414 24.48221 25.684 11.68103-.72236 17.55689-16.99207 20.90913-28.20502 4.71744-15.77939-2.81073-49.32835-2.81073-49.32835s.43376 6.97524.6373 14.0225c-.64685.0229-8.9813-.002-8.9813-.002.2136 1.41675-.0657 2.02162-.0695 3.45449.0.0 8.03629-.0382 9.12172-.063.15055 11.28521-.4842 24.04769-4.16989 32.27767-2.99372 6.68415-8.05998 13.98646-14.88024 14.04469-7.59233.065-13.41003-7.93576-16.82925-15.34945-3.61004-7.82759-4.3201-19.9376-4.24704-30.77617 1.71471.0 3.41949-.2048 3.41949-.2048l.77104-3.48185s-2.40758-.0504-4.13578-.0504c.15246-6.60013.53968-13.22578.53968-13.22578z" class="shadow" id="path2969"/><path d="m300.7395 349.76133s-7.07729 36.28116-7.338 54.66414c-.29804 21.00549 6.61006 62.67521 6.61006 62.67521s-1.41423-37.42448 4.1903-74.92751c-3.73785-12.44592-3.46236-42.41184-3.46236-42.41184z" class="shadow" id="path2971"/><path d="m299.7682 459.42097s-4.14987 13.71919-3.77717 20.73458c.35459 6.67697 5.66574 19.24248 5.66574 19.24248s4.01541-12.71029 3.77717-19.24248c-.26097-7.16017-5.66574-20.73458-5.66574-20.73458z" class="shadow" id="path2973"/><path id="path2975" class="steel_piercing" d="m281.67523 289.22904s-8.66362 31.90092-3.41544 46.54605c3.62735 10.1221 11.52464 24.01269 22.25656 23.34906 10.61914-.65668 15.96082-15.44735 19.00829-25.64093 4.28858-14.34492-2.55521-44.84395-2.55521-44.84395s.39432 4.57573.57938 10.98228c-.58806.0191-7.0956-.001-7.0956-.001-.0382 1.5498-.0344 1.89636-.32517 3.12554.0.0 6.49834-.0191 7.48511-.0424.13679 10.2593-.44018 23.627-3.79081 31.10874-2.72159 6.0765-7.32723 12.71495-13.52749 12.76791-6.9021.0588-12.19094-7.21431-15.29932-13.95402-3.28186-7.116-3.92738-19.89052-3.86097-29.74377 1.55885.0 1.77615-.18609 1.77615-.18609l.61415-3.16531s-.7692-.0459-2.34047-.0459c.1387-6.00012.49061-10.25805.49061-10.25805z"/><path id="path2977" class="steel_piercing" d="m300.56289 355.09495s-6.43387 32.98287-6.67089 49.69466c-.27091 19.09587 6.00913 56.97745 6.00913 56.97745s-1.28565-34.02226 3.80939-68.11593c-3.39805-11.31448-3.14763-38.55618-3.14763-38.55618z"/><path id="path2979" class="steel_piercing" d="m299.85345 461.23808s-3.77263 12.47202-3.43382 18.84969c.32249 6.06996 5.15067 17.49311 5.15067 17.49311s3.65039-11.55475 3.43382-17.49311c-.23729-6.50927-5.15067-18.84969-5.15067-18.84969z"/></g><g id="g2995" data-transform="boob_right"><path d="m163.6696 300.95595s7.06408 34.70916 2.58632 51.20075c-2.68318 9.88221-6.62897 26.24095-16.85382 25.68396-10.53961-.57414-12.12831-17.89592-14.39405-28.20509-3.53221-16.07182 1.93496-49.32827 1.93496-49.32827s-.2988 6.64529-.43877 13.69251c.4453.0229 4.02256-.002 4.02256-.002l-2.09643 3.45446s-1.22757-.0382-1.97481-.063c-.10355 11.28517.33358 24.37771 2.87057 32.60765 2.06093 6.68419 4.44944 13.99712 10.24375 14.04462 6.41004.0523 9.23162-7.93564 11.58543-15.3493 2.48522-7.82763 2.97404-20.26762 2.92371-31.10615-1.18042.0-5.45105-.17356-5.45105-.17356.22773-1.38251.26098-1.77061.8326-3.48188.0.0 3.391-.0817 4.58074-.0817-.10508-6.60009-.3714-12.89584-.3714-12.89584z" class="shadow" id="path2983"/><path d="m150.85718 368.30952s-7.0773 36.28116-7.338 54.6641c-.29804 21.00549 6.61006 62.67525 6.61006 62.67525s-1.41423-37.42455 4.1903-74.92751c-3.73786-12.44592-3.46236-42.41184-3.46236-42.41184z" class="shadow" id="path2985"/><path d="m149.88588 477.96912s-4.14991 13.71927-3.77717 20.73466c.35459 6.67697 5.66574 19.24236 5.66574 19.24236s4.01541-12.71017 3.77717-19.24236c-.26097-7.16017-5.66574-20.73466-5.66574-20.73466z" class="shadow" id="path2987"/><path id="path2989" class="steel_piercing" d="m162.4961 304.42205s6.42191 31.55378 2.35121 46.54617c-2.43925 8.98382-6.02636 23.85542-15.32167 23.34906-9.58147-.52195-11.02577-16.26902-13.08551-25.64102-3.21113-14.61074 1.75903-44.84386 1.75903-44.84386s-.27129 4.57572-.39883 10.98228c.40479.0191 2.39901-.001 2.39901-.001l-1.29658 3.14037s-.46742-.0344-1.14672-.0573c-.0944 10.25924.303 23.62697 2.60963 31.10875 1.87359 6.07654 4.04495 12.7247 9.3125 12.76787 5.82733.0478 8.39237-7.21424 10.53221-13.95394 2.25928-7.11604 2.70366-19.89053 2.65792-29.74378-1.07313.0-4.45551-.18608-4.45551-.18608.20671-1.25684.62962-2.0479.6185-3.16535.0.0 2.72113-.0459 3.80274-.0459-.0955-6.00007-.33778-10.25804-.33778-10.25804z"/><path id="path2991" class="steel_piercing" d="m150.68057 373.64314s-6.43387 32.98283-6.67089 49.69462c-.27091 19.09591 6.00913 56.9775 6.00913 56.9775s-1.28565-34.0223 3.80939-68.11594c-3.39806-11.31448-3.14763-38.55618-3.14763-38.55618z"/><path id="path2993" class="steel_piercing" d="m149.97113 479.78628s-3.77267 12.47205-3.43382 18.84968c.32249 6.06996 5.15067 17.49303 5.15067 17.49303s3.65039-11.5547 3.43382-17.49303c-.23729-6.50927-5.15067-18.84968-5.15067-18.84968z"/></g></svg>