<svg viewBox="0 0 560 1e3"><defs/><g id="g202102" data-transform="boob_right"><path class="areola" d="m202.13962 255.15455c-.69143-.96371-.9411-2.70861-.51036-3.66641 1.12702-2.50628 3.3324-4.12808 5.8873-3.82262 2.82094.30532 2.74093 1.52313 3.20539 2.82968 1.03539 4.63029-5.90184 8.36081-8.58233 4.65935z" id="path202106-2"/><path id="path202096" class="shadow" d="m203.11544 250.92186c1.34721-.38202 2.26694.18193 4.23817 1.50718-1.8997-.90275-2.51559-1.79024-4.23817-1.50718z"/><path id="path202098" class="shadow" d="m204.82593 251.04613c.18271-.49875.76532-1.32202 1.91603-.96923-1.41399-.13983-1.49111.47651-1.91603.96923z"/><path id="path202100" class="shadow" d="m201.35156 255.23285c2.21873 2.20215 6.47585 2.22178 8.15254.18138-1.0645 1.18995-4.51786 3.21932-8.15254-.18138z"/><path style="baseline-shift:baseline;clip-rule:nonzero;color-interpolation-filters:linearRGB;color-interpolation:sRGB;color-rendering:auto;color:#000;direction:ltr;display:inline;dominant-baseline:auto;enable-background:accumulate;fill-opacity:1;fill-rule:nonzero;fill:#000;image-rendering:auto;isolation:auto;mix-blend-mode:normal;opacity:1;overflow:visible;shape-padding:0;shape-rendering:auto;solid-color:#000000;solid-opacity:1;stroke-dasharray:none;stroke-dashoffset:0;stroke-linecap:butt;stroke-linejoin:miter;stroke-miterlimit:4;stroke-opacity:1;stroke-width:.0755906;stroke:none;vector-effect:none;visibility:visible;white-space:normal;writing-mode:lr-tb" d="m203.6588 248.6943c-1.11538.88208-1.87061 2.11961-2.16736 3.26033-.2968 1.14072-.13774 2.2865.53481 3.14805.63862.71231 1.50876.67708 2.68014.65676 1.17136-.0203 2.19706-.51775 3.31244-1.39983 1.11538-.88208 1.96715-1.86964 2.26392-3.01038.2968-1.14072.42482-1.75621-.2477-2.61776-.67256-.86157-1.90913-1.23238-3.08051-1.21204-1.17139.0203-2.18037.29278-3.29574 1.17487zm.0542.0848c1.09424-.86535 2.05919-1.08475 3.19851-1.10449 1.13933-.0198 2.36077.32581 3.00456 1.15078.64382.82473.50368 1.3678.21506 2.47731-.28868 1.10951-1.26424 2.18685-2.35848 3.05223-1.09426.86535-2.09304 1.31324-3.23234 1.33299-1.13933.0198-1.86734-.15651-2.3483-.68961-.64382-.82474-.86327-1.89951-.57463-3.00902.28867-1.10951 1.00138-2.34481 2.09562-3.21019z" id="path202327"/><path id="path202100-5" class="shadow" d="m203.22129 256.14651c3.0958 1.73466 7.19067-1.11734 7.56397-3.97142.10857-.48818-.0726-1.72922-.18316-2.11136.0221.0726.22572 1.83629.10022 2.26856-.66371 2.4326-4.01528 5.19479-7.481 3.81422z"/></g><g id="g202116" data-transform="boob_left"><path id="path202104" d="m303.20199 248.11708c-1.1279-1.40091-.94171-3.59113-.63061-4.61367.75-2.74913 4.05492-4.14761 6.93393-4.10885 2.52457.0339 3.95489.39053 5.08762 2.56228 1.22969.92417 1.31109 2.50296 1.24706 2.57423-.33588 2.28473-1.90285 5.5644-6.50069 5.38126-3.68893.17947-4.94902-.0476-6.13731-1.79525z" class="shadow"/><path class="areola" d="m303.20199 248.11708c-.77032-1.43543-.93296-3.60793-.63061-4.61367.79106-2.63169 4.361-4.07903 6.93393-4.10885 2.5365-.0292 3.96946.72809 5.08762 2.56228 1.03051 1.09896 1.28531 2.5256 1.24706 2.57423-.44116 2.13792-2.00306 5.42467-6.50069 5.38126-3.47751.003-4.84974-.12958-6.13731-1.79525z" id="path202106"/><path id="path202108" d="m304.86192 243.67503c2.50891-.9755 4.90025.34363 6.4561 1.6502-1.86823-.91154-4.25742-2.16078-6.4561-1.6502z" class="shadow"/><path class="shadow" d="m307.76033 243.65861c1.43114-1.24494 2.29333-1.57634 4.44024-1.37363-2.00732.0707-2.91951.43715-4.44024 1.37363z" id="path202110"/><path id="path202112" d="m303.95582 248.72152c12.089 2.51288 11.04126-5.86358 10.82213-6.69722.73003 5.08611-2.31818 9.39453-10.82213 6.69722z" class="shadow"/><path id="path202114" class="shadow" d="m306.83201 250.75516c6.37847-.65193 8.28966-2.04671 8.95872-5.79941-.0778 4.35072-3.54791 5.48074-8.95872 5.79941z"/></g></svg>