<svg viewBox="0 0 560 1e3"><g data-transform="boob_left" id="g231474"><path id="path231462" class="shadow" d="m306.29388 226.79478s-3.07025 11.30518-1.21038 16.49516c1.28547 3.58711 4.08413 8.50972 7.88736 8.27454 3.76324-.23271 5.65624-5.47428 6.73623-9.08673 1.5198-5.0836-.90553-15.89196-.90553-15.89196s.13975 2.24719.20532 4.51758c-.2084.007-2.89348-5e-4-2.89348-5e-4.0688.45643-.0212.6513-.0224 1.11292.0.0 2.58903-.0123 2.93872-.0203.0485 3.63572-.156 7.74737-1.34341 10.3988-.96447 2.15341-2.59666 4.50598-4.79392 4.52474-2.44599.0209-4.32027-2.55664-5.42183-4.94509-1.16303-2.52179-1.39179-6.42324-1.36825-9.91507.55242.0 1.10164-.066 1.10164-.066l.24841-1.12173s-.77564-.0162-1.33241-.0162c.0491-2.12635.17386-4.26091.17386-4.26091z"/><path id="path231464" class="shadow" d="m312.986 247.41305s-2.28007 11.68859-2.36406 17.61098c-.096 6.76728 2.12954 20.19189 2.12954 20.19189s-.45562-12.05693 1.34998-24.13917c-1.20422-4.00967-1.11546-13.6637-1.11546-13.6637z"/><path id="path231466" class="shadow" d="m312.67308 282.74177s-1.33695 4.41987-1.21688 6.67999c.11423 2.15112 1.82531 6.1993 1.82531 6.1993s1.29364-4.09483 1.21688-6.1993c-.0841-2.30675-1.82531-6.67999-1.82531-6.67999z"/><path d="m306.84412 227.91155s-2.79113 10.27743-1.10034 14.9956c1.16861 3.261 3.71285 7.73611 7.17033 7.5223 3.42113-.21156 5.14204-4.97662 6.12384-8.26067 1.38164-4.62144-.82321-14.44723-.82321-14.44723s.12704 1.47414.18666 3.53812c-.18945.006-2.28597-45e-5-2.28597-45e-5-.0123.49929-.0111.61094-.10475 1.00694.0.0 2.09355-.006 2.41145-.0137.0441 3.30521-.14181 7.61184-1.22127 10.02221-.87681 1.95765-2.36059 4.09634-4.35811 4.1134-2.22363.019-3.92752-2.32421-4.92894-4.49553-1.05731-2.29254-1.26527-6.40807-1.24388-9.58246.50222.0.57222-.06.57222-.06l.19786-1.01976s-.24781-.0148-.75402-.0148c.0447-1.93304.15806-3.3048.15806-3.3048z" class="steel_piercing" id="path231468"/><path d="m312.9291 249.13137s-2.07278 10.62599-2.14914 16.00998c-.0873 6.15207 1.93594 18.35625 1.93594 18.35625s-.41419-10.96085 1.22726-21.9447c-1.09474-3.64515-1.01406-12.42153-1.01406-12.42153z" class="steel_piercing" id="path231470"/><path d="m312.70054 283.32718s-1.21541 4.01808-1.10626 6.07275c.1039 1.95554 1.65937 5.6357 1.65937 5.6357s1.17604-3.72256 1.10627-5.6357c-.0764-2.09707-1.65938-6.07275-1.65938-6.07275z" class="steel_piercing" id="path231472"/></g><g data-transform="boob_right" id="g231488"><path id="path231476" class="shadow" d="m229.31549 231.66669s2.27582 11.18215.83323 16.49519c-.86443 3.18373-2.13564 8.45397-5.42974 8.27453-3.39552-.18496-3.90734-5.76547-4.63729-9.08675-1.13796-5.17781.62338-15.89194.62338-15.89194s-.0963 2.14089-.14136 4.41127c.14346.007 1.29594-5e-4 1.29594-5e-4l-.6754 1.11291s-.39549-.0123-.63622-.0203c-.0334 3.63571.10747 7.85369.9248 10.5051.66397 2.15343 1.43346 4.50943 3.3002 4.52472 2.0651.0169 2.97412-2.5566 3.73244-4.94504.80066-2.5218.95814-6.52956.94193-10.02137-.3803.0-2.30988-.066-2.30988-.066.0734-.4454.0841-.57043.26824-1.12174.0.0 1.64619-.0163 2.02949-.0163-.0339-2.12633-.11966-4.15462-.11966-4.15462z"/><path id="path231478" class="shadow" d="m225.18775 253.36579s-2.28007 11.68859-2.36406 17.61097c-.096 6.76728 2.12955 20.19189 2.12955 20.19189s-.45562-12.05695 1.34997-24.13917c-1.20421-4.00966-1.11546-13.66369-1.11546-13.66369z"/><path id="path231480" class="shadow" d="m224.87483 288.69449s-1.33695 4.41989-1.21688 6.68002c.11424 2.1511 1.82532 6.19926 1.82532 6.19926s1.29363-4.0948 1.21688-6.19926c-.0841-2.30677-1.82532-6.68002-1.82532-6.68002z"/><path d="m228.93743 232.78336s2.06893 10.16559.75748 14.99563c-.78584 2.8943-1.94149 7.68543-4.93613 7.5223-3.08683-.16814-3.55214-5.24134-4.21572-8.26069-1.03451-4.7071.5667-14.44721.5667-14.44721s-.0874 1.47415-.12849 3.53813c.13041.006.77288-46e-5.77288-46e-5l-.41771 1.01172s-.15059-.0111-.36944-.0185c-.0304 3.30518.0976 7.61182.84074 10.02221.60361 1.95766 1.30315 4.09949 3.00018 4.11339 1.87737.0154 2.70374-2.32419 3.39313-4.49551.72786-2.29255.87103-6.40806.85629-9.58246-.34572.0-2.09989-.0599-2.09989-.0599.0666-.40491.20285-.65976.19926-1.01977.0.0 1.54113-.0148 1.88959-.0148-.0308-1.93303-.10882-3.30481-.10882-3.30481z" class="steel_piercing" id="path231482"/><path d="m225.13086 255.0841s-2.07278 10.626-2.14914 16.00997c-.0873 6.15207 1.93594 18.35627 1.93594 18.35627s-.41419-10.96086 1.22726-21.94471c-1.09474-3.64515-1.01406-12.42153-1.01406-12.42153z" class="steel_piercing" id="path231484"/><path d="m224.9023 289.27992s-1.21543 4.01808-1.10626 6.07274c.10389 1.95554 1.65937 5.63568 1.65937 5.63568s1.17604-3.72253 1.10626-5.63568c-.0764-2.09706-1.65937-6.07274-1.65937-6.07274z" class="steel_piercing" id="path231486"/></g></svg>