<svg viewBox="0 0 560 1e3"><defs><filter style="color-interpolation-filters:sRGB" id="filter53277"><feGaussianBlur stdDeviation="2 2" result="blur" id="feGaussianBlur53275"/></filter><filter style="color-interpolation-filters:sRGB" id="filter53277-8"><feGaussianBlur stdDeviation="2 2" result="blur" id="feGaussianBlur53275-6"/></filter><clipPath clipPathUnits="userSpaceOnUse" id="clipPath34241"><path style="display:inline;fill-opacity:.5;fill:teal" id="path34243" d="m252.16186 205.25451c-8.01108 14.27327-.57234 8.73771-15.32584 55.05586-5.30702 16.66124-8.22787 34.77499-11.65315 45.85088-2.49841 8.07878-5.91208 13.38402-9.04742 27.87053-5.52213 25.51443-3.55838 33.99215-12.59189 97.48779-.61703-1.49535-1.38136 9.59005-2.16767 14.85548.69913.51823 1.81398.4316 2.25115.50565-.16868-.68758-.13963-.79291-.22503-1.17543 8.81707-2.78303 13.80798-2.5044 21.7968-.60893-.009.26564-.0169.14109.0228.51698.32905-.044.54969-.1657.80256-.31814.68097-4.92618 3.40375-15.26022 2.18931-14.42864 8.12702-49.25387 20.69046-85.61162 22.89782-108.32308.48106-4.94958 7.89246-30.41147 9.08602-34.83434 4.76983-17.67518 9.39733-46.81328 9.92011-50.04434 2.83026-17.49246 4.08277-42.25564 2.97693-47.35463-9.76934 1.08946-15.73606 5.68598-20.93246 14.94436z"/></clipPath></defs><path class="top_primary" id="path33751" d="m252.16186 205.25451c-8.01108 14.27327-.57234 8.73771-15.32584 55.05586-5.30702 16.66124-8.22787 34.77499-11.65315 45.85088-2.49841 8.07878-5.91208 13.38402-9.04742 27.87053-5.52213 25.51443-3.55838 33.99215-12.59189 97.48779-.61703-1.49535-1.38136 9.59005-2.16767 14.85548.69913.51823 1.81398.4316 2.25115.50565-.16868-.68758-.13963-.79291-.22503-1.17543 8.81707-2.78303 13.80798-2.5044 21.7968-.60893-.009.26564-.0169.14109.0228.51698.32905-.044.54969-.1657.80256-.31814.68097-4.92618 3.40375-15.26022 2.18931-14.42864 8.12702-49.25387 20.69046-85.61162 22.89782-108.32308.48106-4.94958 7.89246-30.41147 9.08602-34.83434 4.76983-17.67518 9.39733-46.81328 9.92011-50.04434 2.83026-17.49246 4.08277-42.25564 2.97693-47.35463-9.76934 1.08946-15.73606 5.68598-20.93246 14.94436z"/><path class="top_primary_strong_shade" id="path33753" d="m228.28516 430.91992c-1.66905-.531-3.33583-1.07057-5.06641-1.35547-2.34167-.38549-4.73965-.54313-7.19727-.46484-2.45761.0783-4.97538.39199-7.55273.94922-1.65018.35677-3.36783.98477-5.06836 1.54297 5.82486-1.42039 15.10403-2.78191 24.88479-.67188z"/><path id="path33755" d="m215.34483 443.64639c-3.49093.003-7.26093.55677-11.92981 1.91337-.66993.19467-1.32339.52704-2.03217.75548l.005.0494.0448.0275c.63452-.20451 1.21424-.44957 1.81715-.6269 8.8552-2.6045 14.44488-2.33441 21.00572-.87849.5661.12562 1.12229.24894 1.69214.38241l.11335-.10728-.66453-.16865c-3.45968-.87802-6.62878-1.34939-10.05248-1.34677z" style="baseline-shift:baseline;clip-rule:nonzero;color-interpolation-filters:linearRGB;color-interpolation:sRGB;color-rendering:auto;color:#000;direction:ltr;display:inline;dominant-baseline:auto;enable-background:accumulate;fill-opacity:1;fill-rule:nonzero;fill:#000;image-rendering:auto;isolation:auto;mix-blend-mode:normal;opacity:1;overflow:visible;shape-padding:0;shape-rendering:auto;solid-color:#000000;solid-opacity:1;stroke-dasharray:none;stroke-dashoffset:0;stroke-linecap:butt;stroke-linejoin:miter;stroke-miterlimit:4;stroke-opacity:1;stroke-width:.1511811;stroke:none;vector-effect:none;visibility:visible;white-space:normal;writing-mode:lr-tb"/><g clip-path="url(#clipPath34241)" id="g33795"><g transform="rotate(-47.552632,273.56465,397.03027)" style="display:inline;opacity:1" id="g33761"><path d="m349.07422 314.55079c-22.71127 7.78237-42.89477 10.67314-58.5586 4.8457l-.0937.1914c15.82561 5.88764 36.64493 6.40191 59.4041-1.39688z" id="path33757" class="top_primary_strong_highlight"/><path id="path33759" d="m350.68731 321.77654c-22.71127 7.78237-44.64849 3.79114-60.31232-2.0363l.0469-.15235c15.82561 5.88764 36.64493 6.40191 59.4041-1.39688z" class="top_primary_strong_shade"/></g><g transform="translate(0,2.4103812e-6)" id="g33787" style="display:inline;filter:url(#filter53277-8);opacity:1" clip-path="none"><g id="g33767" style="display:inline;opacity:1"><path class="top_primary_highlight" id="path33763" d="m274.74721 175.86151c-.95233 23.462-55.0266 56.60212-51.93253 44.59015 1.29627-30.00837 58.29551-48.72751 51.93253-44.59015z"/><path class="top_primary_highlight" id="path33765" d="m272.99721 174.04901c-.95233 23.462-55.0266 56.60212-51.93253 44.59015 1.29627-30.00837 58.29551-48.72751 51.93253-44.59015z"/></g><g id="g33777" style="display:inline;opacity:1"><path d="m223.51387 461.33743c31.47443-16.4578 36.58586-182.68208 33.06547-204.04193-2.93272-17.7942-5.10194 14.01888-13.71662 41.36181-3.01447 9.56789-6.91941 22.52038-8.09068 30.13147-2.12775 13.82653-8.20805 90.01345-11.25817 132.54865z" id="path33769" class="top_primary_shade"/><path class="top_primary_shade" id="path33771" d="m228.9873 441.39291c22.09943-3.8328 35.62024-164.41694 32.09985-185.77679-2.93272-17.7942-5.10194 14.01888-13.71662 41.36181-3.01447 9.56789-7.16941 22.77038-8.34068 30.38147-2.12775 13.82653-10.61743 96.74831-10.04255 114.03351z"/><path d="m239.77912 375.77419c16.34943-.5828 27.74524-99.41694 24.22485-120.77679-2.93272-17.7942-5.10194 14.01888-13.71662 41.36181-3.01447 9.56789-6.66941 21.52038-7.84068 29.13147-2.12775 13.82653-2.86743 36.87331-2.66755 50.28351z" id="path33773" class="top_primary_shade"/><path class="top_primary_shade" id="path33775" d="m247.57094 372.06708c14.47443-3.2078 22.87024-96.41694 19.34985-117.77679-2.93272-17.7942-5.10194 14.01888-13.71662 41.36181-3.01447 9.56789-6.41941 21.64538-7.59068 29.25647-2.12775 13.82653-2.24243 31.12331 1.95745 47.15851z"/></g><g id="g33785" style="display:inline;opacity:1"><path class="top_primary_highlight" id="path33779" d="m242.42491 231.72969c4.91739 7.80767-5.09062 62.86029-17.58246 94.38238-6.04674 15.2584-18.05046 190.87841-32.97507 128.20777 1.29627-30.00837 32.79551-221.47751 50.55753-222.59015z"/><path d="m240.04991 230.72969c4.8868 7.7591-4.9667 62.17729-17.34967 93.79149-6.10904 15.59663-20.78868 168.30186-26.66281 164.45746-26.81123-.48666 26.25046-257.13631 44.01248-258.24895z" id="path33781" class="top_primary_highlight"/><path class="top_primary_highlight" id="path33783" d="m224.12591 303.55228c1.61093 12.41346-4.73363 33.35598-12.6881 40.17073 1.29627-30.00837-7.73059-27.24915 12.6881-40.17073z"/></g></g><g id="g33793" style="display:inline;opacity:1" transform="rotate(-55.504935,278.15536,381.7482)"><path class="top_primary_strong_highlight" id="path33789" d="m349.07422 314.55079c-22.71127 7.78237-42.89477 10.67314-58.5586 4.8457l-.0937.1914c15.82561 5.88764 36.64493 6.40191 59.4041-1.39688z"/><path class="top_primary_strong_shade" d="m350.68731 321.77654c-22.71127 7.78237-44.64849 3.79114-60.31232-2.0363l.0469-.15235c15.82561 5.88764 36.64493 6.40191 59.4041-1.39688z" id="path33791"/></g></g><path d="m202.87468 434.68182c.23296-.8167.75885-1.22716 1.17456-.9168.41569.3104.56385 1.22401.33088 2.0407-.23299.8167-.75885 1.22716-1.17457.9168-.41573-.3103-.56386-1.22402-.33087-2.0407z" id="path4492-94-7-9-2-4-0-9-8" class="top_accent"/><path class="top_accent" id="path34144-02" d="m202.15114 441.03797c.23298-.8167.75885-1.22717 1.17456-.9168.4157.3104.56387 1.22401.33088 2.04069-.23297.81671-.75884 1.22717-1.17457.91682-.41572-.31031-.56385-1.22402-.33087-2.04071z"/></svg>