<svg viewBox="0 0 560 1e3"><path style="display:inline;fill-opacity:1;fill:none;opacity:1;stroke-dasharray:none;stroke-dashoffset:0;stroke-linecap:butt;stroke-linejoin:miter;stroke-miterlimit:4;stroke-opacity:1;stroke-width:.453543;stroke:#ff9300;vector-effect:none" d="m276.66592 271.86349c-.83697 17.84758-48.16557 70.41034-48.49655 129.37428-.82389 38.46193 13.3747 64.20377 27.70728 74.44742m20.92079 2.6501c5.64727-4.01127 8.86867-13.25937 7.11682-28.21962" id="path7032-3-4-0-1-3-0-9-5"/><path d="m279.4638 479.2097c30.33614 1.12304 69.13838-16.88088 86.51694-59.26201 18.66908-35.65017-19.0161-98.03839-37.9801-117.97744-2.15761-2.26855-26.31359-24.16751-26.31359-24.16751L248.556 277.67919c-5.20107 14.68308.90988 7.19559-14.30237 18.20009-24.08168 17.42062-52.02069 63.92765-46.89752 117.21974 2.85628 52.58607 63.15057 65.79712 92.10769 66.11068z" class="shadow" id="path2668"/><path id="path2670" d="m207.8619 328.25355c-12.53436 20.03142-22.58119 47.19177-20.50579 84.84547 2.51584 48.63957 63.03576 65.97091 92.10769 66.11068 29.07193.13977 69.04583-18.16996 86.51694-59.26201 11.3436-26.68015-2.94351-67.8549-24.88092-100.45578-54.64309 34.99223-153.31807 74.86703-133.23792 8.76164zm133.23792-8.76164c-11.85-17.61012-25.93225-32.7185-39.41277-41.68917-9.08497-6.01006-50.75498-11.58459-53.13105-.12355-2.09226 9.33472-23.68382 23.38988-40.6941 50.57436-35.7971 77.89658 152.23681 38.14407 133.23792-8.76164z" class="skin belly"/><path id="path1329-7" class="shadow belly_details" d="m229.73798 426.38469c.6843-3.19765.13727-8.57118-.57274-9.24552l-.0242.001c-1.11133 4.1119-.35187 6.27483.59697 9.24433z"/><path d="m229.16524 417.13917c-2.73244-11.59717 3.64449-55.02388 3.64449-55.02388l.001.003c-3.20829 21.99827-7.36761 44.34013-3.67011 55.02232z" class="muscle_tone belly_details" id="path1463-4"/></svg>