<svg viewBox="0 0 560 1e3"><path id="path5044" class="shadow" d="m309.92988 118.59175s2.75725 3.54411 4.68204 3.40522c2.2748-.16413 4.85394-2.49685 4.89836-4.77713.0429-2.20447-2.38464-4.39429-4.55201-4.79923-1.74836-.32666-4.82212 2.28441-4.82212 2.28441s3.27788-1.58605 4.77677-.96062c1.22569.51143 2.28736 2.00446 2.18933 3.32896-.10945 1.47904-1.51765 2.99524-2.96542 3.31693-1.48877.33081-4.20693-1.79852-4.20693-1.79852z"/><path d="m310.36538 118.46492s2.50659 3.22192 4.2564 3.09566c2.068-.14921 4.41267-2.26987 4.45305-4.34285.039-2.00406-2.16785-3.99481-4.13819-4.36294-1.58942-.29696-4.38374 2.07674-4.38374 2.07674s2.97989-1.44186 4.34251-.87329c1.11427.46494 2.07942 1.82224 1.9903 3.02633-.0995 1.34458-1.37968 2.72294-2.69583 3.01539-1.35343.30073-3.82448-1.63502-3.82448-1.63502z" class="steel_piercing" id="XMLID_525_-3-5-9-5"/><path id="path5046" class="shadow" d="m303.91363 119.36583s3.47606 2.84255 5.32182 2.2793c2.18141-.66569 4.1775-3.51335 3.71395-5.74645-.44816-2.15886-3.30176-3.7543-5.50493-3.66733-1.77724.0702-4.19369 3.29913-4.19369 3.29913s2.84333-2.27499 4.44373-1.99838c1.30872.22619 2.67569 1.44588 2.87453 2.75904.22203 1.46635-.81388 3.25764-2.15392 3.8931-1.378.65345-4.50147-.8184-4.50147-.8184z"/><path d="m304.29729 119.14834s3.16005 2.58414 4.83802 2.07209c1.9831-.60517 3.79772-3.19395 3.37631-5.22404-.40741-1.9626-3.0016-3.413-5.00448-3.33394-1.61567.0638-3.81244 2.99921-3.81244 2.99921s2.58484-2.06817 4.03975-1.81671c1.18975.20563 2.43245 1.31444 2.61321 2.50822.20185 1.33305-.73989 2.96149-1.95811 3.53918-1.25273.59405-4.09224-.744-4.09224-.744z" class="steel_piercing" id="XMLID_525_-3-5-1-3-7"/><path id="path5048" class="shadow" d="m296.05236 118.32866s3.34357 2.99728 5.21298 2.51831c2.20935-.56606 4.33252-3.32027 3.97072-5.5721-.34976-2.17695-3.12809-3.90016-5.33293-3.91322-1.77858-.011-4.33899 3.10556-4.33899 3.10556s2.94357-2.14369 4.52979-1.7948c1.29712.28532 2.60736 1.56574 2.74643 2.88656.15531 1.47492-.96077 3.21739-2.32826 3.79141-1.40621.5903-4.45972-1.02171-4.45972-1.02171z"/><path id="path5050" class="shadow" d="m272.23123 125.77891s-2.3587 2.9851-3.98857 2.85515c-1.92625-.1536-4.09651-2.14644-4.11957-4.07868-.0223-1.86799 2.04843-3.70781 3.88731-4.03705 1.48337-.26558 4.07089 1.96626 4.07089 1.96626s-2.76703-1.3647-4.04094-.84439c-1.04172.42549-1.95074 1.68366-1.87615 2.80645.0833 1.25381 1.26669 2.54738 2.49124 2.82918 1.25925.28979 3.57578-1.49691 3.57578-1.49691z"/><path d="m271.86267 125.66876s-2.14427 2.71373-3.62597 2.59559c-1.75114-.13963-3.7241-1.95131-3.74507-3.70789-.0203-1.69817 1.86221-3.37073 3.53392-3.67004 1.34852-.24144 3.70081 1.78751 3.70081 1.78751s-2.51548-1.24064-3.67358-.76763c-.94702.38681-1.7734 1.5306-1.70559 2.55132.0757 1.13982 1.15153 2.3158 2.26476 2.57198 1.14477.26344 3.25071-1.36083 3.25071-1.36083z" class="steel_piercing" id="XMLID_525_-3-5-5-1-2-6-8"/><path id="path5052" class="shadow" d="m275.01907 124.10563s-2.43255 2.92523-4.05867 2.75458c-1.92182-.20168-4.04159-2.24814-4.01637-4.18035.0244-1.86796 2.14045-3.65546 3.98699-3.93864 1.48954-.22843 4.02049 2.06738 4.02049 2.06738s-2.73206-1.43343-4.01858-.94511c-1.05204.39932-1.99221 1.63438-1.9457 2.75869.0519 1.25548 1.20263 2.57823 2.41976 2.89056 1.2516.32115 3.61207-1.40709 3.61207-1.40709z"/><path d="m274.65201 123.9866s-2.21141 2.6593-3.6897 2.50417c-1.74711-.18335-3.67417-2.04377-3.65124-3.80032.0222-1.69815 1.94586-3.32315 3.62453-3.58058 1.35413-.20767 3.65499 1.87943 3.65499 1.87943s-2.48369-1.30312-3.65325-.85919c-.9564.36302-1.8111 1.4858-1.76882 2.5079.0472 1.14135 1.0933 2.34385 2.19978 2.62778 1.13782.29196 3.2837-1.27917 3.2837-1.27917z" class="steel_piercing" id="XMLID_525_-3-5-5-1-1-9-2"/><path id="path5054" class="shadow" d="m278.26657 121.99166s-1.6907 3.4082-3.31224 3.61796c-1.91641.2479-4.45172-1.25329-4.87371-3.13902-.40796-1.82305 1.23775-4.05116 2.96887-4.75341 1.39642-.56648 4.38941 1.0823 4.38941 1.0823s-2.98937-.76326-4.12821.009c-.93128.63163-1.56058 2.05053-1.25551 3.13366.34069 1.20949 1.7659 2.23052 3.02225 2.2531 1.29195.0232 3.18914-2.20374 3.18914-2.20374z"/><path d="m296.44945 118.1288s3.03961 2.7248 4.73907 2.28937c2.0085-.5146 3.93866-3.01842 3.60975-5.06554-.31797-1.97905-2.84372-3.5456-4.84812-3.55747-1.61689-.01-3.94454 2.82323-3.94454 2.82323s2.67598-1.94881 4.11799-1.63163c1.1792.25938 2.37033 1.4234 2.49676 2.62414.14119 1.34084-.87343 2.9249-2.1166 3.44674-1.27837.53663-4.05429-.92883-4.05429-.92883z" class="steel_piercing" id="XMLID_525_-3-5-5-7-0"/><path d="m277.89162 121.95765s-1.537 3.09837-3.01112 3.28906c-1.74219.22536-4.04702-1.13936-4.43065-2.85366-.37087-1.65731 1.12523-3.68287 2.69897-4.32128 1.26948-.51498 3.99038.98391 3.99038.98391s-2.71761-.69387-3.75292.008c-.84662.57421-1.41871 1.86412-1.14137 2.84878.30971 1.09954 1.60536 2.02775 2.7475 2.04828 1.1745.0211 2.89921-2.0034 2.89921-2.0034z" class="steel_piercing" id="XMLID_525_-3-5-5-1-5-0"/></svg>