<svg viewBox="0 0 560 1e3"><path id="XMLID_511_-1-8-0-3-9-7-7-7" class="highlight2" d="m265.77944 193.45942c-4.10072 1.03769-6.4965 4.8075-7.88783 5.69551 1.54928-.0618 6.54674-.73329 7.88783-5.69551z"/><path id="XMLID_511_-1-8-0-3-9-7-7-7-7" class="highlight2" d="m376.43971 182.92074c1.39814 3.96435 9.20533 8.8149 11.5112 9.59607-.012-1.47027-4.46242-9.07782-11.5112-9.59607z"/><path id="XMLID_511_-1-8-0-3-9-7-7-7-7-9" class="highlight2" d="m376.65484 195.65209c-.43813 1.40732.73929 4.4073 1.22362 5.11026.30485-.41575.64886-3.48691-1.22362-5.11026z"/><path id="XMLID_511_-1-8-0-3-9-7-7-7-7-9-0" class="highlight2" d="m393.88595 237.77147c-.32539.74013.13184 2.44777.35259 2.86072.19174-.20786.56818-1.86069-.35259-2.86072z"/><path id="XMLID_511_-1-8-0-3-9-7-7-7-7-9-0-4" class="highlight2" d="m385.14008 263.75716c-.78222 2.40877.79804 8.13462 1.18455 9.61072.30165-.60698 1.05052-6.02219-1.18455-9.61072z"/><path id="XMLID_511_-1-8-0-3-9-7-7-7-7-9-0-4-2" class="highlight2" d="m395.8318 320.41341c-.78222 2.40877.26679 5.72837.6533 7.20447.30165-.60698 1.58177-3.61594-.6533-7.20447z"/><path id="XMLID_511_-1-8-0-3-9-7-7-7-7-9-0-4-2-3" class="highlight2" d="m403.73963 350.27896c-.78222 2.40877 7.11689 32.90779 7.5034 34.38389.30165-.60698-5.26833-30.79536-7.5034-34.38389z"/><path id="XMLID_511_-1-8-0-3-9-7-7-7-7-9-0-4-2-3-9" class="highlight2" d="m401.89462 412.05807c-.78222 2.40877 1.74189 13.28279 2.1284 14.75889.30165-.60698.10667-11.17036-2.1284-14.75889z"/><path id="XMLID_511_-1-8-0-3-9-7-7-7-7-9-0-4-2-3-9-9" class="highlight2" d="m426.17396 448.15929c-.29986.92338.66774 5.09182.8159 5.65767.11563-.23268.0409-4.28204-.8159-5.65767z"/><path id="XMLID_511_-1-8-0-3-9-7-7-7-7-9-0-4-2-3-9-9-9" class="highlight2" d="m419.66199 478.73368c-.29986.92338.16774 2.27932.3159 2.84517.11563-.23268.5409-1.46954-.3159-2.84517z"/><path id="XMLID_511_-1-8-0-3-9-7-7-7-7-9-0-4-2-3-9-9-9-7" class="highlight2" d="m224.70264 318.95995c.32134 5.04063-7.00595 19.45209-8.15426 21.83013-.30999-1.13135 3.20436-18.68405 8.15426-21.83013z"/><path id="XMLID_511_-1-8-0-3-9-7-7-7-7-9-0-4-2-3-9-9-9-7-5" class="highlight2" d="m212.63145 385.55078c1.44309 8.15138-3.97322 45.41148-7.54093 49.38775 2.98356-1.72687 4.87317-42.0146 7.54093-49.38775z"/><path id="XMLID_511_-1-8-0-3-9-7-7-7-7-9-0-4-2-3-9-9-9-7-5-5" class="highlight2" d="m206.90405 453.66964c1.84328 3.70775 1.06078 14.41863-.7066 16.30014 1.40444-.81288-.54919-12.82939.7066-16.30014z"/></svg>