<svg viewBox="0 0 560 1e3"><defs><filter style="color-interpolation-filters:sRGB" id="filter43708"><feGaussianBlur stdDeviation="1 1" result="blur" id="feGaussianBlur43706"/></filter><filter style="color-interpolation-filters:sRGB" id="filter43708-2"><feGaussianBlur stdDeviation="1 1" result="blur" id="feGaussianBlur43706-2"/></filter><filter style="color-interpolation-filters:sRGB" id="filter43708-2-5"><feGaussianBlur stdDeviation="1 1" result="blur" id="feGaussianBlur43706-2-2"/></filter><clipPath clipPathUnits="userSpaceOnUse" id="clipPath25079"><path id="path25081" d="m283.301 876.27241c-2.9693 11.41526-10.863 21.52522-21.7167 30.85055-5.87316-3.82093-10.68295-5.12844-19.7483-2.60728-6.57911 1.82968-11.72007 7.47599-21.42502 4.15769-8.06563-2.75779-4.28932-20.7297-7.814-25.44908-3.62374-4.85199-8.48199-5.65033-23.77097-15.69486-2.05041-1.34707-6.44602-5.133-9.82987-9.53974-3.24128-4.22108-5.78975-8.69128-5.37179-10.89193.3298-1.73647.68256-5.29178 5.73201-9.13193-.65376-1.58603 3.80041-8.45921 8.40482-5.66729 3.03283-4.50294 6.82118-1.15487 25.21158 7.33092 7.13852 3.29397 17.18714 5.97983 22.97484 9.53254 11.04555 6.78018 24.46043 10.41243 35.67585 17.4534 4.39029 2.75619 7.78955 6.43743 11.67755 9.65701z" style="fill-opacity:.2;fill:#0ff;stroke-width:1"/></clipPath><filter style="color-interpolation-filters:sRGB" id="filter24998"><feGaussianBlur stdDeviation="1 1" result="blur" id="feGaussianBlur24996"/></filter><filter style="color-interpolation-filters:sRGB" id="filter25142"><feGaussianBlur stdDeviation="1 1" result="blur" id="feGaussianBlur25140"/></filter><clipPath clipPathUnits="userSpaceOnUse" id="clipPath25597"><path id="path25599" style="display:inline;fill-opacity:.2;fill:#0ff;opacity:1;stroke-dasharray:none;stroke-dashoffset:0;stroke-linecap:butt;stroke-linejoin:miter;stroke-miterlimit:4;stroke-opacity:1;stroke-width:.453543;stroke:none;vector-effect:none" d="m366.73175 907.65992c.53616.42815.87503.79949.95603 1.05867-6.69423 7.18788-6.8742 12.55965-8.25888 19.43306 3.37554 11.17187 4.84152 22.88798 5.51563 35.23438l4.18543-.34199s-5.78718-43.08019 3.08333-60.36526c3.44187-6.70683 3.94565-12.4904-1.98115-22.16402-9.79149-10.95116-8.39053-8.81191-11.05305-21.2694-.12335-.67428-.57978-.5825-.66154-.63363-.0295.11069-.0413.30667-.0338.64331-3.68564 2.12804-24.87172 1.90192-24.88593-.72485-4.02783 14.5711-3.01988 15.90441-3.52224 46.4273-.0521 2.14531.11636 3.76949.0185 5.41634-.41712 10.12028 1.13244 23.6287 1.18973 29.40321-1.18979 23.80903 1.45651 27.48232 2.00556 30.47092.17226.93762.69166 1.94875 1.327 2.09119 9.32256 2.09011 18.95393 1.0667 22.4375-22.9375 2.08589-14.3732-3.49047-21.01601 9.65403-41.6862z"/></clipPath></defs><g id="g25501" style="display:inline"><path id="path25479" d="m215.40937 858.03179c7.64408-4.22932 15.87617-3.53201 24.4617.12665-.65126 7.21177-.0964 12.04297 3.92768 18.20696 2.92042 4.47349 7.72139 5.48112 8.4347 15.63054.59282 8.43502-11.19227 15.85192-13.03256 21.61159-1.892 5.92152-1.0195 10.49318-2.77335 29.32459-.23521 2.52549-1.27596 8.46948-2.9686 13.92581-1.62133 5.22644-3.58392 10.01511-5.01465 10.96082-1.12895.74623-3.35083 2.54629-7.04741.55018-.76588 1.48764-6.10901 1.78361-5.72006-3.75011-3.53239.0971-2.58454-5.07598-2.6233-25.60541-.015-7.96887-1.20158-18.03519-.68681-25.01656.98241-13.32363-.57381-26.78965.51721-40.41053.42708-5.33191 1.68204-10.37316 2.52545-15.55453z" class="skin feet"/><g id="g25483" style="display:inline;stroke-width:1.06482" transform="matrix(1,0,0,0.8819522,0,100.9461)"><path d="m233.85987 867.97191c.20162 4.06516 1.78152 9.60173 1.27913 14.11442-.33424 3.00226-1.53099 4.29435-2.39316 7.57098.49516-3.07468 1.67721-4.53532 2.00285-7.58158.49663-4.64584-.91468-10.475-.88882-14.10382z" class="shadow" id="path25481"/></g><path id="path25485" d="m215.40937 858.03179c7.64408-4.22932 15.87617-3.53201 24.4617.12665-.65126 7.21177-.0964 12.04297 3.92768 18.20696 2.92042 4.47349 7.72139 5.48112 8.4347 15.63054.59282 8.43502-11.19227 15.85192-13.03256 21.61159-1.892 5.92152-1.0195 10.49318-2.77335 29.32459-.23521 2.52549-1.27596 8.46948-2.9686 13.92581-1.62133 5.22644-3.58392 10.01511-5.01465 10.96082-1.12895.74623-3.35083 2.54629-7.04741.55018-.76588 1.48764-6.10901 1.78361-5.72006-3.75011-3.53239.0971-2.58454-5.07598-2.6233-25.60541-.015-7.96887-1.20158-18.03519-.68681-25.01656.98241-13.32363-.57381-26.78965.51721-40.41053.42708-5.33191 1.68204-10.37316 2.52545-15.55453z" class="stockings_primary"/><g id="g25497" style="filter:url(#filter43708-2-5);stroke-width:1.22342" clip-path="url(#clipPath25079)" transform="matrix(-0.27775722,-0.84404937,0.59738728,-0.59004834,-229.37572,1614.1949)"><g id="g25495" style="display:inline;opacity:1;stroke-width:1.30271" clip-path="none" transform="matrix(1,0,0,0.8819522,-42,100.9461)"><path d="m267.94884 934.06743s1.81696-17.80622 13.64918-23.92439c5.93982-3.07134 11.76986-5.3462 16.52891 3.65706-15.96942 13.41019-19.24622 16.70881-30.17809 20.26733z" id="path25487" class="feet_shade"/><path d="m267.94884 934.06743s1.81696-17.80622 13.64918-23.92439c5.93982-3.07134 11.76986-5.3462 16.52891 3.65706-15.96942 13.41019-19.24622 16.70881-30.17809 20.26733z" id="path25489" class="feet_shade"/><path d="m269.19884 934.91782s1.81696-17.80622 13.64918-23.92439c5.93982-3.07134 11.76986-5.3462 16.52891 3.65706-15.96942 13.41019-19.24622 16.70881-30.17809 20.26733z" id="path25491" class="feet_shade"/><path d="m269.94884 935.69734s1.81696-17.80622 13.64918-23.92439c5.93982-3.07134 11.76986-5.3462 16.52891 3.65706-15.96942 13.41019-19.24622 16.70881-30.17809 20.26733z" id="path25493" class="feet_shade"/></g></g><path id="path25499" d="m215.44922 857.93555c-.83888 5.15354-2.44976 10.24497-2.88121 15.63147-1.09632 13.68703.39371 26.55739-.58387 39.81549-.52174 7.07595.66869 17.13832.6836 25.05664.0194 10.25668-.0561 17.21991.15663 21.11883.10633 1.94946.30614 3.27461.78516 4.20312.39209.76001 1.06457 1.00796 1.84509 1.1278-.0272 2.62759 1.00054 4.26564 2.4946 4.73219.79151.24717 1.42832.17784 2.124.004.50895-.12715 1.05881-.57794 1.38845-.90982 1.78424.86898 3.39948 1.10184 4.59229.79921 1.27368-.32315 2.13959-.9109 2.67456-1.26451.47997-.31726.88481-.84081 1.31445-1.53516.42963-.69434.86801-1.56384 1.31055-2.5625.88506-1.9973 1.78467-4.51364 2.5996-7.14062 1.70638-5.50061 2.7489-11.43998 2.99024-14.03125 1.75604-18.85491.72075-22.88058 2.57517-28.68452.84219-2.63585 4.20468-5.96989 7.32813-9.62304 3.12345-3.65316 6.03177-8.1526 5.71779-12.62018-.36227-5.1546-1.79408-8.08179-3.50195-10.22851-1.70787-2.14672-3.61867-3.5056-5.01758-5.64844-3.96827-6.0785-4.75822-10.9384-4.11119-18.10328.0204-.22379-.0626.0857-.0626.0857-.65126 7.21177-.0963 12.04304 3.92774 18.20703 2.92042 4.47349 7.72223 5.48144 8.43555 15.63086.59281 8.43502-11.19292 15.85166-13.03321 21.61133-1.892 5.92152-1.01959 10.49281-2.77344 29.32422-.23521 2.52549-1.27611 8.46945-2.96875 13.92578-1.62133 5.22644-3.58489 10.01523-5.01562 10.96094-1.12895.74623-3.3503 2.54689-7.04688.55078-.76588 1.48764-6.1077 1.78372-5.71875-3.75-3.53239.0971-2.58624-5.07604-2.625-25.60547-.015-7.96887-1.20031-18.03621-.68554-25.01758.98241-13.32363-.57344-26.78927.51758-40.41015.42708-5.33191 1.74057-10.39285 2.58398-15.57422z" class="shadow"/></g><g id="g25515" style="display:inline"><path id="path25503" d="m379.69858 865.9884c26e-5 4.13534-2.36933 7.83207-3.92124 11.68542-.0374.0926-.0381.19598-.002.28907 3.67304 9.47437.61334 21.84474.12109 34.98438-.10602 2.83019-1.40165 13.58169-2.03125 16.65429-.69496 3.39167-.50458 2.59512-1.04503 6.30603-.0709.48689-.3971 2.6076-.6875 4.95569-.29041 2.34809-.52766 4.76056-.45642 6.33885.13458 2.98155 1.00299 8.07811 2.17919 12.44826.5881 2.18508 1.23096 4.22714 1.85937 5.81641.31421.79463.62323 1.47568.92774 2.01172.3045.53603.58431.93229.95117 1.1621.6201.38847 1.25371.6886 2.30273.78712.97949.092 2.47538-.2249 4.11329-.84962.35716.6901.76966 1.22315 1.35156 1.38868.68014.19348 1.4388.22272 2.4707.23633 1.47149.0194 2.34173-.20136 2.99414-.81641.59914-.56483.79049-1.4501 1.13477-2.69922 1.90156.14654 3.37219-.473 4.19034-1.45668.80525-.96817.88225-2.13661.91993-3.4537 1.98766-.46206 3.21097-1.58909 3.74207-2.99614.52801-1.39881.48183-3.01653.44342-5.16044.86089-.14608 1.74649-.72072 2.44057-1.5971.80133-1.01182 1.52451-2.35533 2.14257-3.75782.61807-1.40247 1.06083-3.15125 1.41809-4.39272.35726-1.24148.524-2.4703.5183-3.07315-.0375-3.97633-.11386-10.00634-1.3192-17.07123-1.17242-6.8718-4.73835-17.00899-5.36133-33.0254-.13001-3.34262.77126-4.2175 1.43511-6.48918.0191-.0662.0204-.13624.004-.20312-1.2807-5.18309-2.34881-10.76123-1.81149-16.31723l-.0592.0955c-.54348 5.61968.32548 10.96796 1.61133 16.17188-.64128 2.19443-1.70557 3.33069-1.57227 6.75781.6251 16.07088 4.36389 25.99858 5.52344 32.79492 1.19848 7.0245 1.23006 13.84183 1.26758 17.82031.0186 1.96827-3.21803 12.09031-6.51758 12.01172.0858 4.62238.0797 7.36167-4.11914 8.18946.004 2.73349-1.11531 5.35758-5.12109 4.8789-.78028 2.8698-1.09723 3.48146-3.98438 3.44336-2.0932-.0276-2.99293.19569-3.6914-1.5293-3.56006 1.44678-5.04705.73894-6.25782-.0195-2.01518-1.26239-5.55899-15.11475-5.82226-20.94726-.1367-3.02854 1.0172-10.38 1.16211-11.375.54058-3.71174.41193-2.91242 1.10742-6.30664.64402-3.14301 1.93005-13.80702 2.03906-16.7168.49041-13.09053 3.41899-25.57542-.32031-35.2207 1.53488-3.81106 3.75807-7.4159 3.75781-11.6875z" class="shadow"/><path id="path25505" d="m400.70278 890.7189c.6251 16.07088 4.36398 25.9983 5.52353 32.79464 1.19848 7.0245 1.23078 13.84273 1.2683 17.82121.0186 1.96827-3.21832 12.08907-6.51787 12.01048.0858 4.62238.0792 7.36164-4.11961 8.18943.004 2.73349-1.11443 5.35853-5.12021 4.87985-.78028 2.8698-1.09731 3.48103-3.98446 3.44293-2.0932-.0276-2.9931.19566-3.69157-1.52932-3.56006 1.44678-5.04686.73917-6.25763-.0193-2.01518-1.26239-5.55998-15.11553-5.82325-20.94804-.1367-3.02854 1.01727-10.37967 1.16218-11.37467.54058-3.71174.41165-2.91264 1.10714-6.30686.64402-3.14301 1.93045-13.80628 2.03946-16.71606.49041-13.09053 3.41914-25.57632-.32016-35.2216 1.53488-3.81106 3.75773-7.41574 3.75747-11.68734 7.40541-1.69937 13.30033-1.15704 20.93729 1.73437-.54348 5.61968.32614 10.96792 1.61199 16.17184-.64128 2.19443-1.7059 3.33133-1.5726 6.75845z" class="skin feet"/><path id="path25507" d="m400.70278 890.7189c.6251 16.07088 4.36398 25.9983 5.52353 32.79464 1.19848 7.0245 1.23078 13.84273 1.2683 17.82121.0186 1.96827-3.21832 12.08907-6.51787 12.01048.0858 4.62238.0792 7.36164-4.11961 8.18943.004 2.73349-1.11443 5.35853-5.12021 4.87985-.78028 2.8698-1.09731 3.48103-3.98446 3.44293-2.0932-.0276-2.9931.19566-3.69157-1.52932-3.56006 1.44678-5.04686.73917-6.25763-.0193-2.01518-1.26239-5.55998-15.11553-5.82325-20.94804-.1367-3.02854 1.01727-10.37967 1.16218-11.37467.54058-3.71174.41165-2.91264 1.10714-6.30686.64402-3.14301 1.93045-13.80628 2.03946-16.71606.49041-13.09053 3.41914-25.57632-.32016-35.2216 1.53488-3.81106 3.75773-7.41574 3.75747-11.68734 7.40541-1.69937 13.30033-1.15704 20.93729 1.73437-.54348 5.61968.32614 10.96792 1.61199 16.17184-.64128 2.19443-1.7059 3.33133-1.5726 6.75845z" class="stockings_primary"/><g id="g25513" style="display:inline;opacity:1"><path d="m396.35932 879.09548c.33577 5.97053 1.94225 6.86306 4.45368 11.7344-4.10767-5.64573-4.49649-6.43544-4.45368-11.7344z" class="shadow" id="path25509"/><path d="m378.16403 886.94416c3.50178-2.27327 4.23806-2.786 5.89065-7.82868-.78635 4.34205-1.48231 5.32462-5.89065 7.82868z" class="shadow" id="path25511"/></g></g><path d="m387.84806 976.60285c7.98253.63871 7.74341-.38568 9.73583-3.37707-1.91808 2.1383-5.34051 2.394-9.07291 2.00705-4.67161-.48432-8.01125-1.70533-10.25194-4.18764.29258 2.5415 4.33387 5.13717 9.58902 5.55766z" id="path25517" class="shadow"/><g id="g25527"><path d="m239.71875 949.71875c-2.8381 22.21824-12.04015 24.99202-19.98458 25.04568-3.83347.0259-4.8082-.79877-4.81885-1.47617-71e-5-.0452.2425-.42908.30371-.7615.0249-.13554.0196-.26252-.0448-.35449-.0212-.42679.44271.191.76329.26523 9.32252 2.09027 18.95393 1.0667 22.4375-22.9375 1.08617-7.48442.0947-12.87275.75076-19.23704.60384-5.85778 2.60338-12.54237 8.90327-22.44916.45768.15231.79705 1.06385.94436.72201 2.32164-3.61138 6.08729-10.00814 6.23883-9.79676-2.48996 4.21047-4.31738 7.66475-6.04975 10.42608-4.16041 6.63153-4.85552 5.88255-7.9099 16.44481-1.98395 6.86063.002 12.08587-1.53382 24.10881z" id="path25521" class="shadow"/><path id="path25582" d="m214.91211 858.07031c-.24931.003-.46681.16984-.5332.41016-2.01828 7.30132-2.78568 11.34746-3.10157 17.35156-.31585 6.00345-.18848 13.95901-.43945 29.21094v.002.002c-.0526 2.17918.1138 3.80675.0195 5.39257-3e-5.003-3e-5.007.0.01-.42012 10.19306 1.13175 23.73224 1.18946 29.41992-.59434 11.91193-.23232 18.81132.35546 23.125.58818 4.31656 1.40517 6.0758 1.65821 7.45313.0977.53171.28753 1.06802.56054 1.52734.27302.45931.63169.88189 1.19336 1.00781 4.72039 1.05831 9.67467 1.34982 13.86524-1.78125s7.49591-9.54765 9.24804-21.62109c1.05488-7.26878.1806-12.55303.6836-18.51367.18427-2.18368.66923-4.55283 1.3789-7.07618-.25996 1.35312-.49994 2.71329-.78906 4.14844-.0182.0909-.0135.18484.0137.27344 3.35721 11.11118 4.97569 24.1257 5.64844 36.44726.0179.31357.29048.55088.60352.5254l4.18554-.3418c.31925-.0255.55191-.31338.50977-.63086.0.0-1.60056-12.08725-1.9375-24.98438-.33694-12.89712.48202-27.96376 4.80859-36.39453 1.74569-3.40165 2.7735-6.64008 2.58203-10.25586-.19146-3.61577-1.59293-7.5719-4.58593-12.45703-.0177-.0285-.038-.0553-.0606-.0801-9.79243-10.95221-8.25603-8.5379-10.91797-20.99804l-.002-.004c-.0855-.45952-.36674-.8094-.65235-.94726-.14328-.0692-.27259-.0931-.3496-.10547-.0233-.004-.028-.004-.0391-.006-.30393-.0977-.62784.0785-.71093.38672-.0298.1119-.0168.26184-.0234.38086-.82498.38863-2.64673.78472-4.96289 1.0039-2.47628.23434-5.45438.32268-8.31446.26367-2.86007-.059-5.60747-.26628-7.60547-.61523-.99898-.17448-1.81458-.38912-2.33007-.61133-.25775-.1111-.43705-.2264-.52149-.30469-.0844-.0783-.0626-.0823-.0625-.0586-.002-.30916-.25529-.55768-.56445-.55469zm.006.5586c.0142 2.62677 21.20108 2.85265 24.88672.72461-.007-.33664.004-.53189.0332-.64258.0818.0511.53876-.0415.66211.63281 2.66252 12.45749 1.26124 10.31837 11.05273 21.26953 5.9268 9.67362 5.4243 15.45723 1.98243 22.16406-8.87051 17.28507-3.08399 60.36524-3.08399 60.36524l-4.18555.3418c-.67411-12.3464-2.14008-24.06251-5.51562-35.23438 1.38468-6.87341 1.56554-12.24571 8.25977-19.43359-.081-.25918-.42088-.63045-.95704-1.0586l-.0234.0566c-13.1445 20.67019-7.56841 27.31235-9.6543 41.68555-3.48357 24.0042-13.11494 25.02761-22.4375 22.9375-.63534-.14244-1.15391-1.15418-1.32617-2.0918-.54905-2.9886-3.19565-6.66167-2.00586-30.4707-.0573-5.77451-1.60657-19.28206-1.18945-29.40234.0979-1.64685-.0716-3.27071-.0195-5.41602.50236-30.52289-.50634-31.85663 3.52149-46.42773zm33.25976 50.04882c.0308.0372.0985.0954.11719.11915-.21046.23173-.3806.45318-.57812.68164.17223-.28103.28139-.5142.46093-.80079z" class="shadow"/><path id="path25525" d="m248.05285 907.75827c.53616.42815.87503.79949.95603 1.05867-6.69423 7.18788-6.8742 12.55965-8.25888 19.43306 3.37554 11.17187 4.84152 22.88798 5.51563 35.23438l4.18543-.34199s-5.78718-43.08019 3.08333-60.36526c3.44187-6.70683 3.94565-12.4904-1.98115-22.16402-9.79149-10.95116-8.39053-8.81191-11.05305-21.2694-.12335-.67428-.57978-.5825-.66154-.63363-.0295.11069-.0413.30667-.0338.64331-3.68564 2.12804-24.87172 1.90192-24.88593-.72485-4.02783 14.5711-3.01988 15.90441-3.52224 46.4273-.0521 2.14531.11636 3.76949.0185 5.41634-.41712 10.12028 1.13244 23.6287 1.18973 29.40321-1.18979 23.80903 1.45651 27.48232 2.00556 30.47092.17226.93762.69166 1.94875 1.327 2.09119 9.32256 2.09011 18.95393 1.0667 22.4375-22.9375 2.08589-14.3732-3.49047-21.01601 9.65403-41.6862z" class="shoe_primary"/></g><g id="g25541" clip-path="url(#clipPath25597)" transform="translate(-118.6789,0.09834957)" style="filter:url(#filter24998)"><g id="g25539"><path d="m324.5 945.3125c15.51256-17.1266 26.70978-12.38823 25.85305-2.66754-.6711 7.61455.0539 23.71525-22.29055 27.73004-15.64567 4.28425-25.74725-48.49564-3.5625-25.0625z" id="path25529" class="shoe_primary_highlight"/><path d="m324.5 945.3125c14.04375-33.21677 25.59626-24.5863 25.85305-2.66754.0896 7.64354.0539 23.71525-22.29055 27.73004-15.64567 4.28425-25.74725-48.49564-3.5625-25.0625z" id="path25531" class="shoe_primary_highlight"/><path d="m321 946.8125c15.85876-23.01203 27.50316-25.87572 25.85305-2.66754-.54213 7.62482.0539 23.71525-22.29055 27.73004-15.64567 4.28425-25.74725-48.49564-3.5625-25.0625z" id="path25533" class="shoe_primary_highlight"/><path d="m315.875 949.5625c9.36457-38.25894 29.88352-34.7882 25.85305-2.66754-.95171 7.58459.0539 23.71525-22.29055 27.73004-15.64567 4.28425-25.74725-48.49564-3.5625-25.0625z" id="path25535" class="shoe_primary_highlight"/><path d="m310.875 951.8125c16.09907-18.38605 44.79838-30.62872 34.6035-.85558-2.47632 7.23185-8.69655 21.90329-31.041 25.91808-15.64567 4.28425-25.74725-48.49564-3.5625-25.0625z" id="path25537" class="shoe_primary_highlight"/></g></g><path id="path25618" d="m379.31641 867.16992a.67320957.67320957.0 00-.59571.44727c-1.35327 3.82068-3.24369 6.8894-3.48828 11.73047-.13119 2.59662.36917 3.14109.0527 16.46093-.50072 21.08215-3.14864 32.60603-4.21289 42.24024-1.06426 9.63421-.49135 17.39387 5.44335 30.5039 1.1721 2.58919 2.79605 4.32685 4.8125 5.44336 2.01646 1.11652 4.39079 1.624 7.11329 1.90625 2.95518.30638 5.37422.61931 7.57812-.69531 2.2039-1.31461 3.96445-4.09897 5.92774-9.625 3.16777-8.9163 6.88659-16.77904 6.76367-26.29101-.22314-17.26772-5.24899-26.92824-5.10938-45.07813.006-.72194-.0982-2.49953-.25976-4.875-.16159-2.37547-.38251-5.31036-.6211-8.20117-.23859-2.89081-.49371-5.73616-.7207-7.93555-.1135-1.09969-.21948-2.03758-.31445-2.74414-.0475-.35328-.092-.64743-.13477-.88281-.0427-.23539-.0583-.37259-.1543-.58984a.67320957.67320957.0 00-1.07226-.22266c-.11594.10684-.56359.34865-1.20313.54883-.63953.20018-1.47511.38821-2.43164.54492-1.91304.31341-4.3129.5063-6.69726.49414-2.38436-.0122-4.75869-.23177-6.60352-.71289s-3.07024-1.24335-3.41211-2.05664a.67320957.67320957.0 00-.66015-.41016zm.0391.67188c1.93917 4.61326 19.27418 3.39681 21.42578 1.41406.49934 1.13058 2.16628 22.38334 2.14648 24.95117-.14058 18.27518 4.8879 27.95244 5.10938 45.0918.12058 9.33097-3.54339 17.10446-6.72461 26.05859-3.88814 10.94388-6.87961 10.48887-12.80078 9.875-5.35885-.55557-9.13535-1.9923-11.38281-6.95703-11.80173-26.07053-2.17376-30.18578-1.16993-72.45117.3168-13.33707-.1811-13.94114-.0547-16.44336.23646-4.68012 2.07107-7.64263 3.45117-11.53906z" class="shadow"/><path id="path25545" d="m379.3555 867.84222c-1.3801 3.89643-3.21515 6.85851-3.45161 11.53863-.12642 2.50222.3719 3.10672.0551 16.44379-1.00383 42.26539-10.63184 46.38022 1.16989 72.45075 2.24746 4.96473 6.02396 6.40146 11.38281 6.95703 5.92117.61387 8.91264 1.06888 12.80078-9.875 3.18122-8.95413 6.84519-16.72762 6.72461-26.05859-.22148-17.13936-5.25038-26.81662-5.1098-45.0918.0198-2.56783-1.64672-23.82017-2.14606-24.95075-2.1516 1.98275-19.48658 3.1992-21.42575-1.41406z" class="shoe_primary"/><g id="g25567" clip-path="none" transform="translate(8.899096,-2.0671493)" style="display:inline;opacity:1"><g id="g25565" transform="translate(0.75,-5.75)" style="filter:url(#filter25142)"><path d="m380.27113 942.16013c11.10755-.90196 17.6129 2.26497 8.87903 24.07946-2.17594 5.43481-4.38123 12.82559-11.09026 10.77925-4.01374-1.22423-7.291-4.72334-9.10261-8.72794-7.24426-16.0136-2.48871-25.00998 11.31384-26.13077z" id="path25553" class="shoe_primary_highlight"/><path d="m379.77113 945.22263c11.14289-.16469 18.1129-.79753 9.37903 21.01696-2.17594 5.43481-4.38123 12.82559-11.09026 10.77925-4.01374-1.22423-6.89854-5.71249-7.66511-10.04044-3.18601-17.98788-2.48264-21.5805 9.37634-21.75577z" id="path25555" class="shoe_primary_highlight"/><path d="m379.27113 938.66013c11.10755-.90196 18.6129 5.76497 9.87903 27.57946-2.17594 5.43481-4.38123 12.82559-11.09026 10.77925-4.01374-1.22423-4.791-7.66084-6.60261-11.66544-7.24426-16.0136-5.98871-25.57248 7.81384-26.69327z" id="path25557" class="shoe_primary_highlight"/><path d="m379.42621 945.2042c8.74404-.71003 14.62445 3.31378 7.74902 20.48648-1.71294 4.27837-3.44898 10.09651-8.73043 8.4856-3.15968-.96374-4.60796-4.75151-6.03409-7.90399-5.7028-12.60616-3.85008-20.18578 7.0155-21.06809z" id="path25559" class="shoe_primary_highlight"/><path d="m379.94352 957.65011c5.44944-.4425 8.76366-3.4269 4.47877 7.27544-1.06753 2.66635-2.14947 6.29232-5.44096 5.28838-1.96917-.60062-2.87176-2.96123-3.76055-4.92591-3.55409-7.85639-2.04888-7.08803 4.72274-7.63791z" id="path25561" class="shoe_primary_highlight"/><path d="m379.91405 960.01973c3.30079-.26803 5.30825-2.07572 2.71284 4.40682-.64661 1.61504-1.30196 3.81133-3.29565 3.20323-1.19275-.3638-1.73946-1.79365-2.27781-2.98368-2.15276-4.75871-1.24103-4.2933 2.86062-4.62637z" id="path25563" class="shoe_primary_highlight"/></g></g><path id="path25607" d="m242.579 867.7517c-7.16088 3.69723-21.89129 3.13203-30.0232-.39727l-.0747.84092c3.38928 1.43457 7.74702 2.31049 12.23965 2.67574 6.66083.54153 13.59131-.0852 18.09249-2.36927zm-1.32006-6.09923c-.25612.1631-.61269.35037-1.04996.52331-.7857.31074-1.82494.60868-3.02929.86524-2.4087.5131-5.47783.86331-8.61133.92187-3.13351.0586-6.33753-.17724-9.00781-.80664-2.38542-.56226-4.31611-1.45192-5.43519-2.60921l-.24708.83835c5.54328 5.02413 23.09971 3.57517 27.57361 1.06211z" class="shadow"/><path d="m227.74023 864.24805-4.81054 3.17578 4.17383 3.37695.28515-.35156-3.69336-2.98633 4.29492-2.83594z" id="path25616" class="shadow"/><path id="path25607-8" d="m402.09187 878.06122c-7.74599 2.08211-19.42875 1.22402-26.34222-1.77647l-.0747.84092c3.38928 1.43457 7.74702 2.31049 12.23965 2.67574 4.995.4061 10.14164.15521 14.30173-.95891zm-.63504-6.34301c-.34298.0879-.70499.17254-1.08329.25313-2.4087.51312-5.47783.86331-8.61133.92187-3.13351.0586-6.33753-.17724-9.00781-.80664-1.89598-.4469-3.50469-1.10062-4.64694-1.93117-.18756.37506-.30785.37933-.34819.70853 5.15888 3.6428 17.44354 3.24601 23.86447 1.60931z" class="shadow"/><path d="m379.94435 871.3089 2.83995 4.11971-4.31104 2.46199-.1401-.49118 3.63837-2.15598-2.36253-3.71175z" id="path25616-8" class="shadow"/><path id="path35164-6" style="baseline-shift:baseline;clip-rule:nonzero;color-interpolation-filters:linearRGB;color-interpolation:sRGB;color-rendering:auto;color:#000;direction:ltr;display:inline;dominant-baseline:auto;enable-background:accumulate;fill-opacity:1;fill-rule:nonzero;fill:#000;image-rendering:auto;inline-size:0;isolation:auto;mix-blend-mode:normal;overflow:visible;shape-margin:0;shape-padding:0;shape-rendering:auto;solid-color:#000000;solid-opacity:1;stop-color:#000000;stroke-dasharray:none;stroke-dashoffset:0;stroke-linecap:butt;stroke-linejoin:miter;stroke-miterlimit:4;stroke-opacity:1;stroke-width:1.55399;stroke:none;vector-effect:none;visibility:visible;white-space:normal;writing-mode:lr-tb" d="m236.31698 860.40528c-.13948.0159-.31454.0249-.45858.04.60003 10.17612 1.75671 20.99253 3.17407 32.26212.20932 1.662-.66129 3.11797-1.94935 3.26027-1.28793.14335-2.49548-1.08235-2.70399-2.74444-1.41227-11.22916-2.60988-22.10829-3.24455-32.46495-.15315.005-.30581.0103-.46006.015.63754 10.37924 1.84199 21.26958 3.25443 32.50002.24783 1.97564 1.69642 3.44569 3.22731 3.27529 1.53106-.16913 2.5752-1.91575 2.32639-3.89128-1.41828-11.27697-2.56905-22.09045-3.16567-32.25211zm-2.04035.17778c-.52799.0419-.99617.0932-1.5571.12513.62433 10.28015 1.80657 21.12112 3.21783 32.34227l1.53689-.17029C236.06031 881.6378 234.88876 870.8104 234.27663 860.583z"/><path id="path25547" style="fill-opacity:1;fill:none;opacity:1;stroke-dasharray:none;stroke-dashoffset:0;stroke-linecap:butt;stroke-linejoin:miter;stroke-miterlimit:4;stroke-opacity:1;stroke-width:.854;stroke:#efefef;vector-effect:none" d="m235.10657 867.04311-3.94401.63276m2.48719-4.05743c4.69224-.61325 4.15301.96913 4.45062 2.67505.37419 2.1449-.14559 3.8907-3.53135 4.42536-3.57721.56489-4.58077-.80359-4.61915-2.9898-.0581-3.3067.73725-3.72341 3.69988-4.11061z"/></svg>