<svg viewBox="0 0 560 1e3"><path class="shadow" id="path5056" d="m311.38854 114.66866c0 .75293-.84427 1.5972-1.5972 1.5972s-1.5972-.84427-1.5972-1.5972.84427-1.5972 1.5972-1.5972 1.5972.84427 1.5972 1.5972z"/><path class="shadow" id="path5058" d="m311.66352 119.78463c0 .75293-.84427 1.5972-1.5972 1.5972s-1.5972-.84427-1.5972-1.5972.84427-1.5972 1.5972-1.5972 1.5972.84427 1.5972 1.5972z"/><path d="m311.24334 114.66866c0 .68448-.76752 1.452-1.452 1.452s-1.452-.76752-1.452-1.452.76752-1.452 1.452-1.452 1.452.76752 1.452 1.452z" id="path2778" class="steel_piercing"/><path d="m311.51832 119.78463c0 .68448-.76752 1.452-1.452 1.452s-1.452-.76752-1.452-1.452.76752-1.452 1.452-1.452 1.452.76752 1.452 1.452z" id="path2780" class="steel_piercing"/></svg>