<svg viewBox="0 0 560 1e3"><path id="path1660" class="shadow" d="m301.38156 164.58663c-2.02347.86053-3.10624.92883-5.4758.64055 2.47756 1.53907 4.80114 1.46264 5.4758-.64055z"/><path id="path1662" class="shadow" d="m305.80825 157.94409c-.8548-.20715-1.63651 1.18171-2.24611 1.38466-1.65756.55182-3.23335.94823-4.6915 1.22616-.25799.0491-.47638-.0203-.72681.0217-.17097.0286-.37606.17057-.54336.19602-.56454.0858-1.10774.15389-1.62721.20654-.24658.025-.48781-.0684-.72344-.0501-.24098.0187-.4761.14908-.70508.16146-1.01288.0547-1.64256.0771-2.18978.0581-.33886-.0117-.63527-.73644-.99312-.59295-.2332.0935-.35349.52681-.20093.72644.25514.33384 1.08425-.0325 1.26053-.005 3.52088.54577 8.29972-.19908 12.32373-2.04708 1.11562-.51234 1.35245.0138 1.54245-.49122.10894-.28951-.17874-.72172-.47937-.79457z"/><path id="path1664" class="shadow" d="m302.18075 157.42694c-1.9255-.43023-2.47083-.86137-4.58948.56243 1.20293-.76676 2.88849-.83196 4.58948-.56243z"/><path d="m296.50014 158.01506c-1.4946-.56084-1.90245-.29834-3.21761.49033 1.26388-.42143 1.56627-.69239 3.21761-.49033z" class="shadow" id="path1666"/><path d="m304.65008 159.73418c-2.57237.619-4.51401 1.67544-5.50214 2.48781 2.32077.82031 5.0459-.55284 5.50214-2.48781z" class="highlight2" id="path1464-3"/><path d="m296.13953 164.13548c-.65684-.38361-2.57404-2.6532-3.68212-2.55645.45583.75233 1.34698 2.55192 3.68212 2.55645z" class="highlight2" id="path1466-96"/><path d="m296.90779 158.62789c-.78327.45697-2.77887 1.31392-3.75734.54162.78037-.73541 2.67858-.93308 3.75734-.54162z" class="highlight2" id="path1468-9"/></svg>