<svg viewBox="0 0 560 1e3"><defs><filter style="color-interpolation-filters:sRGB" id="filter13660"><feGaussianBlur stdDeviation="1 1" result="blur" id="feGaussianBlur13658"/></filter><clipPath clipPathUnits="userSpaceOnUse" id="clipPath13664"><path style="fill-opacity:.44815464;fill:#00e0e8" id="path13666" d="m278.5 442.5c.2.2.2.4.2.5.0.6 1.6 3.9 4.8 6.6 2.4 2 6.9 5 8.5 3.6.3-.3.4-.5.4-.8.7-2.3-2.8-5.2-3.7-6.1-3.3-2.8-5.2-4.5-6-5-.1-.1-.4-.3-.5-.6s.1-.4.1-.6c.1-.6-1-1.3-1.8-1.7-.6-.3-2-.8-2.8-.2-1.4 1.1-.5 4.2.2 4.4.2.0.4-.2.6-.1z"/></clipPath></defs><path d="m278.4 442.4c.2.1.2.4.2.5.0 1 1.5 4.4 3.3 6 4.8 4.2 10.2 6.1 9.7 3.9-.1-.4.4-.5.4-.7.6-2.1-2.1-5.3-5.6-8.3-2.9-2.5-3.4-2.2-4-2.7-.1-.1-.3-.2-.3-.5-.1-.3.2-.5.2-.7.1-.8-.9-1.3-1.9-1.8-.7-.4-2.2-.8-3-.2-1.7 1.3-.7 5.3.4 4.7.2-.1.4-.3.6-.2z" class="shadow" id="XMLID_890_"/><path d="m278.5 442.5c.2.2.2.4.2.5.0.6 1.6 3.9 4.8 6.6 2.4 2 6.9 5 8.5 3.6.3-.3.4-.5.4-.8.7-2.3-2.8-5.2-3.7-6.1-3.3-2.8-5.2-4.5-6-5-.1-.1-.4-.3-.5-.6s.1-.4.1-.6c.1-.6-1-1.3-1.8-1.7-.6-.3-2-.8-2.8-.2-1.4 1.1-.5 4.2.2 4.4.2.0.4-.2.6-.1z" class="skin penis" id="XMLID_891_"/><g id="g13656" style="filter:url(#filter13660)" clip-path="url(#clipPath13664)"><path class="skin_highlight" id="path7046-2-8-2-68" d="m290.91753 448.4282c-1.55197-.18005-7.37074-4.86884-8.67717-6.28298-1.54618-2.10078 7.52196-1.65708 8.67717 6.28298z"/><path class="skin_shade" d="m278.72949 443.18518c-3.71383-.41685 5.2764 15.25631 12.53223 10.39647-1.81434-.58113-10.04239-5.80175-12.53223-10.39647z" id="path7048-5-1-3-89"/><path d="m277.28151 438.60588c-.8863-2.63236 6.24694-1.65639 5.12569 1.68478.42487-.47194-3.6948-2.50912-5.12569-1.68478z" id="path7134-38-2-9" class="skin_highlight"/><path id="path13470-5" d="m277.0174 439.04282c-1.97983-1.14305-.70813 6.28466 1.46551 3.55325-1.10642-.5018-1.08742-1.9558-1.46551-3.55325z" class="skin_shade"/></g></svg>