<svg viewBox="0 0 560 1e3"><path id="path1452" class="shadow" d="m295.39868 97.782137c-11.23648-4.625355-14.19612-24.815202-6.95505-37.439332 1.18194-1.65828 4.71911-3.47969 6.37539-4.132126-2.62437.537896-3.9476 1.836217-5.26357 3.10078.8625-1.446758 1.62138-3.450098 3.0553-4.499971 3.12773-3.116604 7.98503-4.711232 13.32394-5.059668.62573-.120246 10.06181 1.418011 13.23007 3.491133-3.06056-1.662217-3.07786-1.770888-10.7135-2.922572 8.33062-1.036876 17.02537 1.386801 22.162 6.081456.57097.382239 3.1429 7.40309 3.03983 9.20906-.0434-3.658318-1.26121-4.333012-2.36247-7.557002 1.04149 1.202742 3.42754 3.618877 3.48706 4.839529.93206 2.719068 1.04501 5.637636-.11126 8.660507-3.01519 5.273524-4.13366 5.159852-5.54882 6.494393 1.8352-1.260797.93749.513765 4.87694-5.53008-5.05166 14.374804-25.94518 30.471406-38.59591 25.263893z"/><path id="path1456" class="shadow" d="m311.16723 65.043359c11.34461-8.069351 13.63324-8.04549 30.03889-10.925222-18.81983 2.736747-20.23866 3.438175-30.03889 10.925222z"/><path id="path1458" class="shadow" d="m276.52502 54.426478c14.11556 5.643554 14.33081 4.078369 25.39549 15.938037-11.93088-13.539528-13.28406-10.905138-25.39549-15.938037z"/><path d="m295.39868 97.782137c-11.23648-4.625355-13.15877-25.40797-6.95505-37.439332 1.29467-1.577761 4.92522-3.332476 6.37539-4.132126-2.72835.446915-4.02863 1.76531-5.26357 3.10078.91716-1.446758 1.86576-3.450098 3.0553-4.499971 3.26049-2.877641 8.08319-4.534545 13.32394-5.059668.53396-.0535 9.80928 1.601667 13.23007 3.491133-2.91596-1.742544-2.92715-1.854612-10.7135-2.922572 8.16183-.221101 17.01868 1.419171 22.162 6.081456.4696.425683 3.01521 7.457811 3.03983 9.20906.0267-3.690687-.9393-4.481582-2.36247-7.557002.74904 1.121504 3.12936 3.536053 3.48706 4.839529.75165 2.739114.65222 5.681279-.11126 8.660507-2.93752 4.600346-4.12299 5.067353-5.54882 6.494393 1.85948-1.260797 1.26227.513765 4.87694-5.53008-5.8499 14.374804-25.94518 30.471406-38.59591 25.263893z" class="hair" id="path1460"/><path id="path1462" class="shadow" d="M275.44738 61.803974c13.95555-1.341758 22.89503-1.754154 33.76282 10.868418-11.98009-14.770017-20.54087-11.777451-33.76282-10.868418z"/><path id="path1465" class="shadow" d="m307.32942 67.248982c13.8866-.98842 15.82864.222743 31.33708 6.299436-17.49572-7.454912-19.07232-7.594127-31.33708-6.299436z"/><path id="path1467" class="shadow" d="m290.27094 47.364564c6.01092 1.258667 5.98714.620855 11.21873 4.566113-5.69368-4.553093-6.04792-3.410307-11.21873-4.566113z"/><path id="path1469" class="shadow" d="m317.83147 54.352337c5.27414-3.146232 4.82457-3.59928 11.34548-4.241376-7.27259.508031-6.75898 1.588609-11.34548 4.241376z"/></svg>