<svg viewBox="0 0 560 1e3"><g id="g3085" data-transform="boob_left"><path d="m317.76718 292.75493s-.5145-17.08125 5.46403-21.3498c7.09219-5.06371 20.36631-4.50473 26.05922 2.0931 5.48179 6.35314 3.68791 18.6688-1.68124 25.11742-4.34746 5.22151-19.75457 5.02347-19.75457 5.02347s13.50853-3.30222 16.39209-8.79109c2.35075-4.47473 1.82582-11.43041-1.68124-15.07044-3.93147-4.08053-11.7688-5.09424-16.8124-2.51174-5.17047 2.64746-7.98589 15.48908-7.98589 15.48908z" class="shadow" id="path2953"/><path d="m280.40716 292.50006s.51449-17.08124-5.46403-21.34979c-7.0922-5.06371-20.36632-4.5047-26.05922 2.09314-5.48176 6.35314-3.68788 18.66876 1.68124 25.11738 4.34742 5.22151 19.75457 5.02351 19.75457 5.02351s-13.50854-3.30223-16.39209-8.79109c-2.35076-4.47474-1.82583-11.43041 1.68124-15.07045 3.93146-4.08052 11.76879-5.09427 16.8124-2.51177 5.17046 2.64746 7.98589 15.48907 7.98589 15.48907z" class="shadow" id="path2955"/><path id="path2959" class="steel_piercing" d="m319.35155 292.12618s-.46773-15.52843 4.9673-19.40892c6.44748-4.60335 18.51485-4.09516 23.6902 1.90286 4.98343 5.77555 3.35262 16.97162-1.5284 22.83399-3.95221 4.74682-17.9587 4.56682-17.9587 4.56682s12.28051-3.00205 14.9019-7.99193c2.13705-4.06795 1.65985-10.39129-1.5284-13.70039-3.57408-3.70958-10.69891-4.63113-15.284-2.28339-4.70044 2.40677-7.2599 14.08096-7.2599 14.08096z"/><path id="path2961" class="steel_piercing" d="m278.82278 291.87136s.46773-15.52843-4.9673-19.40893c-6.44744-4.60334-18.51481-4.09519-23.6902 1.90282-4.98346 5.7756-3.35266 16.97166 1.5284 22.83403 3.95221 4.74683 17.9587 4.56679 17.9587 4.56679s-12.2805-3.00201-14.9019-7.99189c-2.13709-4.06795-1.65984-10.39129 1.5284-13.70043 3.57409-3.70958 10.69891-4.63113 15.284-2.28339 4.70044 2.40681 7.2599 14.081 7.2599 14.081z"/></g><g id="g3109" data-transform="boob_right"><path d="m172.15378 318.21375s9.013 1.15468 12.23781-1.38589c7.37129-5.80726 14.03073-18.16797 9.62747-26.45482-2.00957-3.78203-8.53738-4.82387-12.46486-3.1158-6.56507 2.85512-10.39847 18.79209-10.39847 18.79209s4.79064-13.74912 10.79665-14.71063c2.582-.41332 5.56881 2.07444 6.38377 4.55906 1.89021 5.7627-1.66394 12.73309-5.66666 17.2894-2.56416 2.91878-10.51571 5.02659-10.51571 5.02659z" class="shadow" id="path2957"/><path id="path2963" class="steel_piercing" d="m173.12386 316.8675s8.19363 1.04969 11.12529-1.2599c6.7012-5.27934 12.75525-16.5163 8.75229-24.04983-1.82689-3.43824-7.76122-4.38533-11.3317-2.83255-5.96829 2.59555-9.45317 17.0837-9.45317 17.0837s4.35514-12.49917 9.81513-13.37326c2.34727-.37579 5.06246 1.88598 5.80342 4.14456 1.71839 5.23878-1.51265 11.57556-5.15148 15.71764-2.33103 2.65344-9.55978 4.56964-9.55978 4.56964z"/></g></svg>