<svg viewBox="0 0 560 1e3"><path d="m289.94777 295.4534c-1.6989 1.77767-.82374 4.35987-.53385 5.75144 1.26028-1.19667.74988-3.92307.53385-5.75144z" class="highlight1" id="path1141-0"/><path d="m264.42812 302.28055c-1.6989 1.77767-.82374 4.35987-.53385 5.75144 1.26028-1.19667.74988-3.92307.53385-5.75144z" class="highlight1" id="path1141-0-8"/><path d="m264.66554 309.1915c-.66567.91065-.10291 1.90971.20025 2.42067.49089-.59211.16685-1.69027-.20025-2.42067z" class="highlight1" id="path1141-0-8-7"/><path d="m289.8216 345.80715c-.88546.69883-.61117 1.8122-.45611 2.38573.63167-.43881.61393-1.58365.45611-2.38573z" class="highlight1" id="path1141-0-8-7-5"/><path d="m337.466 377.21609c-2.30617.13597-2.84869 1.67314-2.48904 3.26962 2.13427-.43881 2.64686-2.46754 2.48904-3.26962z" class="highlight1" id="path1141-0-8-7-5-0"/><path d="m248.30395 412.94797c-1.46912-3.58912-3.04506-5.40954-5.40786-5.39969-.8259 3.89201 3.18008 5.39446 5.40786 5.39969z" class="highlight1" id="path1141-0-8-7-5-0-9"/></svg>