<svg viewBox="0 0 560 1e3"><defs><clipPath clipPathUnits="userSpaceOnUse" id="clipPath13344"><path id="path13346" d="m296.51526 149.82524c-.60044 11.74636 4.52731 21.84761 4.14186 32.15688.0.0 29.989-1.7219 36.03381-9.31622-3.81788-3.83803-6.1307-11.25313-6.22921-26.33633l97.0383-51.829609L545.88646 179.7561 531.74432 683.21615 41.012195 681.80194 57.982758 266.02313 166.87721 188.94849l70.35713-39.95154z"/></clipPath><filter style="color-interpolation-filters:sRGB" id="filter26288"><feGaussianBlur stdDeviation="4 8" result="blur" id="feGaussianBlur26286"/></filter><filter style="color-interpolation-filters:sRGB" id="filter26310"><feGaussianBlur stdDeviation="4 8" result="blur" id="feGaussianBlur26308"/></filter><clipPath clipPathUnits="userSpaceOnUse" id="clipPath21992"><path style="display:inline;fill-opacity:.5;fill:#04ffff" d="m285.36156 333.32552c8.57434-5.41383 10.02931-2.85574 21.74959-.56165 13.52351-34.9776 22.15376-55.10724 13.9548-95.00334l-11.09661-3.49544c-34.8065 20.53642-41.33171 55.59495-24.60778 99.06043z" id="path21994"/></clipPath><clipPath clipPathUnits="userSpaceOnUse" id="clipPath22047"><path style="display:inline;fill-opacity:.5;fill:#0ff" id="path22049" d="m165.49423 342.96056c8.04491-30.12923 12.93586-61.8836 29.52603-81.93289l-5.82847-4.58563c-22.15275 8.75889-37.42992 21.09768-43.83801 36.18998-5.75425 13.5524-7.08976 31.91776 4.36944 50.62223 6.57592-3.01812 7.89355-5.48639 15.77101-.29369z"/></clipPath></defs><g data-transform="boob_outfit" id="g20848"><path class="bra_accent" id="path20769" d="m308.61631 333.09632c2.08508.53574 4.30823 1.1216 6.69831 1.76596 11.6536 3.1418 44.90497 13.18771 56.82698 17.41329 3.71245 1.31582 9.35742 3.46466 13.80233 5.17649 1.40253.55742 1.87179-.43178 1.22795-1.53646-5.40999-2.08226-11.59618-4.48551-11.80436-4.56182-12.73556-4.66819-46.92012-15.15504-59.47791-18.36793-2.33372-.59708-4.49222-1.14108-6.49969-1.63873z"/><path d="m285.36156 333.32552c8.57434-5.41383 10.02931-2.85574 21.74959-.56165 13.52351-34.9776 22.15376-55.10724 13.9548-95.00334l-11.09661-3.49544c-34.8065 20.53642-41.33171 55.59495-24.60778 99.06043z" id="path20771" class="bra_primary"/><path id="path20773" d="m165.49423 342.96056c8.04491-30.12923 12.93586-61.8836 29.52603-81.93289l-5.82847-4.58563c-22.15275 8.75889-37.42992 21.09768-43.83801 36.18998-5.75425 13.5524-7.08976 31.91776 4.36944 50.62223 6.57592-3.01812 7.89355-5.48639 15.77101-.29369z" class="bra_primary"/><g style="display:inline;filter:url(#filter26310)" id="g20843" clip-path="url(#clipPath21992)"><path class="bra_primary_shade" id="path20825" d="m260.87186 289.50372-.36385 48.02393 67.76601 3.35014 1.57427-41.87243c-9.29394 2.96253-52.58922 1.72842-68.97643-9.50164z"/><path d="m260.70488 296.96251-.19687 40.56514 67.76601 3.35014 1.40729-34.41363c-9.29393 2.96252-52.58922 1.72841-68.97643-9.50165z" id="path20827" class="bra_primary_shade"/><path class="bra_primary_shade" id="path20829" d="m260.74018 304.83348-.23217 32.69417 67.76601 3.35014 1.44259-26.54267c-9.29393 2.96253-52.58921 1.72842-68.97643-9.50164z"/><path d="m260.46023 312.14777.0478 25.37988 67.76601 3.35014 1.16264-19.22838c-9.29393 2.96253-52.58922 1.72842-68.97643-9.50164z" id="path20831" class="bra_primary_shade"/><path class="bra_primary_shade" id="path20833" d="m259.91983 320.81687.58818 16.71078 67.76601 3.35014.62223-10.55927c-9.29392 2.96252-52.58922 1.72841-68.97642-9.50165z"/><path d="m264.91904 281.47164 12.41676-61.69785 68.55779 14.51891-9.57109 54.14385c-8.49187-6.38037-52.05185-16.81883-71.40346-6.96491z" id="path20835" class="bra_primary_highlight"/><path class="bra_primary_highlight" id="path20837" d="m266.6282 270.91877 10.7076-51.14498 68.55779 14.51891-7.86193 43.59098c-8.49187-6.38037-52.05185-16.81883-71.40346-6.96491z"/><path d="m269.19194 260.53079 8.14386-40.757 68.55779 14.51891-5.29819 33.203c-8.49187-6.38037-52.05184-16.81883-71.40346-6.96491z" id="path20839" class="bra_primary_highlight"/><path class="bra_primary_highlight" id="path20841" d="m271.61325 251.95659 5.72255-32.1828 68.55779 14.51891-2.87688 24.6288c-8.49187-6.38037-52.05184-16.81883-71.40346-6.96491z"/></g><path class="bra_accent" id="path20846" d="m309.66703 232.75802-.48602.37256c-49.01868 32.24011-32.84323 74.89475-25.2843 101.33241.7994-.73842 1.20722-.98663 2.08984-1.4789-6.63679-26.578-22.69259-66.67825 24.54693-97.29686l9.25894 2.80612c9.36522 39.12063-1.67789 66.78367-13.27335 94.11354l2.44288.59467c12.10875-31.04563 22.77002-52.7485 13.42576-95.61737l-.096-1.00146z"/><g id="g22026"><path d="m285.37664 330.5501c7.02791-5.5553 14.6298-1.23831 22.03815-.25025l.14148-.65625c-7.70959-1.19825-16.06171-5.47392-22.31119.32097z" id="path20811" class="bra_primary_shade"/><path class="bra_primary_shade" id="path22013" d="m285.37664 330.5501c7.02791-5.5553 14.6298-1.23831 22.03815-.25025l.14148-.65625c-7.70959-1.19825-16.06171-5.47392-22.31119.32097z"/><path d="m285.37664 330.5501c7.02791-5.5553 14.6298-1.23831 22.03815-.25025l.14148-.65625c-7.70959-1.19825-16.06171-5.47392-22.31119.32097z" id="path22015" class="bra_primary_shade"/><path class="bra_primary_shade" id="path22017" d="m285.37664 330.5501c7.02791-5.5553 14.6298-1.23831 22.03815-.25025l.14148-.65625c-7.70959-1.19825-16.06171-5.47392-22.31119.32097z"/><path d="m285.37664 330.5501c7.02791-5.5553 14.6298-1.23831 22.03815-.25025l.14148-.65625c-7.70959-1.19825-16.06171-5.47392-22.31119.32097z" id="path22019" class="bra_primary_shade"/></g><path d="m148.83926 341.35548c-2.04299.94194-4.06379 1.83609-6.07483 2.67452-.42864.63448-.73898 1.83396.6839 1.95114 2.11114-.88145 4.29274-1.85082 6.53613-2.88972z" id="path22028" class="bra_accent"/><g clip-path="url(#clipPath22047)" id="g20795"><g style="display:inline;filter:url(#filter26288)" id="g20793" clip-path="none"><path class="bra_primary_shade" id="path20775" d="m127.37501 304.74997 7.875 47.375 60.75-7.125-5.75-41.50001c-7.74754 4.34893-46.40563 9.79402-62.875 1.25001z"/><path d="m128.50001 312.12497 6.75 40 60.75-7.125-4.625-34.12501c-7.74754 4.34893-46.40563 9.79402-62.875 1.25001z" id="path20777" class="bra_primary_shade"/><path class="bra_primary_shade" id="path20779" d="m129.87501 319.87497 5.375 32.25 60.75-7.125-3.25-26.37501c-7.74754 4.34893-46.40563 9.79402-62.875 1.25001z"/><path d="m130.87501 327.12497 4.375 25 60.75-7.125-2.25-19.12501c-7.74754 4.34893-46.40563 9.79402-62.875 1.25001z" id="path20781" class="bra_primary_shade"/><path class="bra_primary_shade" id="path20783" d="m131.87501 335.74997 3.375 16.375 60.75-7.125-1.25-10.50001c-7.74754 4.34893-46.40563 9.79402-62.875 1.25001z"/><path d="m138.595 289.01813 10.89725-46.77239 60.16795 11.00661-8.39982 41.04579c-7.45267-4.83688-45.68194-12.75015-62.66538-5.28001z" id="path20785" class="bra_primary_highlight"/><path class="bra_primary_highlight" id="path20787" d="m140.095 281.01813 9.39725-38.77239 60.16795 11.00661-6.89982 33.04579c-7.45267-4.83688-45.68194-12.75015-62.66538-5.28001z"/><path d="m142.345 273.14313 7.14725-30.89739 60.16795 11.00661-4.64982 25.17079c-7.45267-4.83688-45.68194-12.75015-62.66538-5.28001z" id="path20789" class="bra_primary_highlight"/><path class="bra_primary_highlight" id="path20791" d="m144.47 266.64313 5.02225-24.39739 60.16795 11.00661-2.52482 18.67079c-7.45267-4.83688-45.68194-12.75015-62.66538-5.28001z"/></g></g><path class="bra_accent" id="path20797" d="m141.09352 317.6553c1.03706 8.99256 3.66767 18.10921 8.5583 25.56069l2.38801-1.16447c-5.10804-7.864-7.42881-17.88458-8.87984-27.53952-1.30203-8.66349-.27085-11.25032.13224-16.20204-1.61514 6.28057-3.07847 11.71679-2.19871 19.34534zm6.61616-29.65206c8.75706-12.45545 22.3793-20.9264 41.82423-28.86906l2.18064 1.66112c-8.59318 10.70474-14.00571 24.36549-17.40609 40.71662-3.3328 16.02616-8.65146 34.23695-10.76853 40.22035l2.54291 1.49714c4.93914-19.09451 7.5633-26.19749 10.85059-41.38938 3.4608-15.99374 8.89466-29.31653 17.69317-40.39873l.90236-1.06299-5.59858-4.26899-.70066.28369c-3.32186 1.35708-6.51223 2.65607-9.56597 3.94104-26.12955 11.76247-30.00356 25.05038-31.95407 27.66919z"/><g id="g22069"><path d="m150.78926 339.99432c4.1673-2.19627 8.50342-3.55831 13.66207-.85615l.12652-.67834c-3.84257-1.73412-7.63932-2.32146-14.11589.98762z" id="path20799" class="bra_primary_shade"/><path class="bra_primary_shade" id="path22056" d="m150.78926 339.99432c4.1673-2.19627 8.50342-3.55831 13.66207-.85615l.12652-.67834c-3.84257-1.73412-7.63932-2.32146-14.11589.98762z"/><path d="m150.78926 339.99432c4.1673-2.19627 8.50342-3.55831 13.66207-.85615l.12652-.67834c-3.84257-1.73412-7.63932-2.32146-14.11589.98762z" id="path22058" class="bra_primary_shade"/><path class="bra_primary_shade" id="path22060" d="m150.78926 339.99432c4.1673-2.19627 8.50342-3.55831 13.66207-.85615l.12652-.67834c-3.84257-1.73412-7.63932-2.32146-14.11589.98762z"/><path d="m150.78926 339.99432c4.1673-2.19627 8.50342-3.55831 13.66207-.85615l.12652-.67834c-3.84257-1.73412-7.63932-2.32146-14.11589.98762z" id="path22062" class="bra_primary_shade"/></g></g><g clip-path="url(#clipPath13344)" id="g20858"><g style="display:inline" id="g20856" data-transform="boob_outfit"><path d="m320.05974 166.91751c-.005 69e-5-.0102-71e-5-.0156.0-1.12202.14855-2.27938.5383-3.4336.98047-.28789.11029-.56919.113-.85742.24414-.002 91e-5-.004.001-.006.002-.0206.01-.0399.0218-.0605.0312-5.54604 2.52609-10.28853 4.62013-15.3935 7.64005-12.65824 7.48818-23.33403 19.01334-33.55101 26.72369-6.37566 4.81146-31.35138 24.33671-51.54269 38.38039-12.33116 8.5767-23.74002 14.63864-25.52364 15.42739l1.45507 1.60157c1.3486-.59637 12.40934-7.22774 14.13524-8.32756-1.14319 1.08396-10.89363 8.96172-11.69521 9.81587l1.78907.97266c1.11498-1.18813 9.88846-9.0475 21.03954-17.79858 17.69281-13.88487 40.89688-30.96298 45.39731-34.39205 14.21229-10.82894 25.9164-23.32515 39.22093-31.07525 5.14889-2.99931 9.91787-5.09918 15.36029-7.62638.002-92e-5.004-.001.006-.002 1.29008-.5862 2.59348-.92319 3.8711-1.09961.0121-.002.0231-45e-5.0351-.002 1.26104-.16293 12.94348-2.63502 14.11925-2.56755 2.07314.11898 5.58281.32344 7.08594.33008.21161 94e-5.55304.0683.75.0605.31071-.0122.49438.0638.77344.0566 4.13934-.10675 5.70628 4.09659 4.83915 7.53217-1.61141 6.38442-11.55952 19.31929-15.60604 26.39717-1.68792 2.95239-4.35889 8.76308-8.42975 14.71845-5.68119 8.31118-13.02276 16.90415-14.79197 18.40307l1.74276 1.80741c1.93898-1.64274 10.97085-13.60117 13.70392-17.2429-1.23492 3.24735-4.41558 16.82647-4.55713 19.55111l2.37848-.0933c.10316-1.98561 2.06402-11.90452 4.29743-19.62481 1.82308-6.30187 3.84862-10.55481 5.0215-12.65185 4.11484-7.35706 18.60828-27.24055 18.25421-33.71311-.22318-4.07983-2.58711-6.19605-6.2481-6.62621-12.28592-1.44359-18.03894 1.63015-23.56357 2.16722z" id="path20850" class="bra_accent bra_strap1"/><path class="bra_accent bra_strap2" id="path20852" d="m326.9668 168.76172c-1.24733-.0612-2.59522-.0468-3.99024.14453-.005 75e-5-.0102-75e-5-.0156.0-1.12202.14851-2.27975.53734-3.4336.98047-.28826.10933-.56919.11301-.85742.24414-.002 92e-5-.004.001-.006.002-.0206.01-.0399.0217-.0605.0312-5.54608 2.52599-10.83551 5.3656-15.98633 8.30664-.7623.4336-1.47586.87883-2.23047 1.31836-3.89041 2.2797-7.64415 4.58434-11.26172 6.95508-2.04202 1.32146-3.97705 2.5981-5.92773 3.92383-1.16383.79956-2.26208 1.57291-3.39063 2.36719-4.72869 3.30033-9.07082 6.44736-13.06445 9.5039-5.82845 4.36495-27.61547 21.55373-46.87888 34.99814-14.7715 10.3094-28.34233 17.92784-30.38399 18.8307l1.48632 1.82032c1.3486-.59637 11.99518-7.11839 13.72108-8.21821-1.14319 1.08396-10.20358 8.68854-11.00516 9.54269l1.60157 1.03516c1.22295-1.30318 12.00671-10.81701 24.64602-20.70111 17.1677-13.42536 37.70594-28.32595 41.86773-31.628 1.56299-1.24011 3.50784-2.67035 5.23828-4 1.97422-1.48461 3.49518-2.64483 5.64257-4.22461 2.49585-1.83612 5.19499-3.74845 7.9043-5.65625 1.17719-.82204 2.30352-1.63105 3.51953-2.45703 1.87083-1.28469 3.85382-2.56105 5.81055-3.84375 3.65672-2.36708 7.40933-4.71565 11.30664-6.98438.71168-.41673 1.403-.84261 2.12305-1.2539 5.17896-2.94709 10.51071-5.76575 15.95312-8.29297.002-9e-4.004-.001.006-.002 1.29011-.58613 2.59344-.92352 3.8711-1.09961.0121-.002.0231-4e-4.0351-.002 1.26105-.16288 2.50001-.16903 3.67578-.10156 2.07314.11898 3.7703.391 5.27344.39258.21153.006.55304.0683.75.0605.31071-.0122.49437.0497.77344.0566 4.13895-.12084 5.04099 2.92779 4.48559 6.42731-.95259 6.00228-3.11516 16.70318-6.03129 22.82969-1.50364 3.159-4.10685 8.80244-8.24053 14.92202-5.49214 8.13067-12.739 16.76363-14.47177 18.23167l1.95079 1.28688c1.93898-1.64274 10.36324-12.68603 13.09631-16.32776-1.23492 3.24735-4.39505 15.88453-4.5366 18.60917l2.17267.0339c.18737-3.60642 3.83115-18.15945 5.99143-23.04989 1.40635-3.1837 6.49416-15.82271 7.87605-20.07794 2.24251-6.90533 4.0363-14.31075 4.02958-19.26008-.0488-1.04392-.40047-1.94853-.9082-2.75391-1.18066-1.68433-3.00842-2.2755-4.80957-2.41389-2.52781.0383-5.20071-.39333-7.31741-.5062z"/><path d="m325.32495 171.4313c-1.24733-.0612-2.59522-.0468-3.99024.14453-.005 75e-5-.0102-75e-5-.0156.0-1.12202.14851-2.27975.53734-3.4336.98047-.28826.10933-.56919.11301-.85742.24414-.002 92e-5-.004.001-.006.002-.0206.01-.0399.0217-.0605.0312-5.54608 2.52599-7.21148 3.66502-12.34448 6.63706-12.74467 7.37923-26.53232 14.48604-37.875 23.06836-6.82102 5.16106-35.53905 27.15654-56.05708 41.33952-10.34344 7.14985-19.3282 11.65504-20.90483 12.35225l1.27423 1.73638c1.3486-.59637 12.15289-7.14352 13.87879-8.24334-1.14319 1.08396-10.37516 8.72569-11.17674 9.57984l1.63191 1.03516c.96962-1.03323 7.97671-7.49875 17.12666-14.67151 18.06584-14.16205 44.48527-33.64297 49.28175-37.44861 1.56299-1.24011 3.50169-2.6784 5.23828-4 11.51071-8.76002 26.84846-16.7286 38.30664-23.41992 5.14562-3.00493 6.86886-4.09617 12.31127-6.62339.002-9e-4.004-.001.006-.002 1.29008-.58621 2.59344-.92352 3.8711-1.09961.0121-.002.0231-4e-4.0351-.002 3.51641-.33736 4.68287-.26691 7.91016-.21688 4.14022.0642 4.90903 2.29627 4.4414 5.80859-.83884 6.3004-.24206 18.07893-3.15277 23.9671-1.48478 3.0036-4.37622 8.52187-8.13976 13.93659-5.38762 7.75135-11.97217 15.48726-13.76013 17.00205l1.72852 1.7168c1.93898-1.64274 11.1831-13.61236 13.91617-17.25409-1.23492 3.24735-4.22954 16.57028-4.37109 19.29492l2.07226.0781c.11791-2.26944 2.32337-12.53114 4.9603-21.05923 1.55347-5.02409 3.70558-9.4465 4.46158-11.27866 3.66566-8.88369 4.12843-19.37107 3.85639-28.85236-.03-1.04462-.0911-1.68336-.59884-2.48874-1.18066-1.68433-3.00842-2.2755-4.80957-2.41389-2.52781.0383-2.63821.23167-4.75491.1188z" id="path20854" class="bra_accent bra_strap3"/></g></g><path d="m166.05959 341.26858c-.9727.0537-1.21502 1.3791-.32422 1.77343.7717.35458 3.8543 1.98543 7.6211 4.25586 4.044 2.43751 8.58126 5.6428 13.81445 9.91602 10.46638 8.54644 22.15907 20.24414 33.94727 33.16797 11.61371 12.73253 23.96219 23.93396 35.0957 31.3457 8.3343 5.54827 14.29091 8.9142 23.26367 13.17774 1.14323.47135 1.85026-1.2435.70703-1.71485-10.142-4.71191-15.60415-8.13649-22.79883-12.90039-11.13693-7.37422-23.28071-18.77132-35.08007-31.33203-11.78822-12.54885-23.48088-24.62403-33.96094-33.18164-5.24003-4.27881-9.72543-7.29722-13.85547-9.94531-3.72862-2.39071-6.65441-3.86622-7.97852-4.47461-.14063-.0667-.29579-.0969-.45117-.0879z" id="path22096" class="panties_accent" data-transform="bra_trans_a"/><path d="m283.88086 332.37305a.92709269.92709269.0 00-.6543.24023c-1.87842 1.65167-2.81173 4.42545-3.24023 7.93164-.42851 3.50619-.32696 7.8001.12109 12.62696.89611 9.6537 3.19234 21.42848 5.61328 32.95117 2.42095 11.52268 4.96714 22.79405 6.36328 31.35547.69808 4.2807 1.10583 7.8904 1.07813 10.45703-.0138 1.28331-.14422 2.30675-.35547 2.97656s-.45199.90689-.64453.98437a.92709269.92709269.0 10.69141 1.71875c.88533-.35627 1.42031-1.18782 1.72265-2.14648s.42447-2.12308.43945-3.51172c.03-2.77727-.3955-6.44767-1.10156-10.77734-1.41212-8.65936-3.96175-19.93288-6.3789-31.4375-2.41716-11.50462-4.70011-23.2393-5.58204-32.74024-.44096-4.75046-.5288-8.94431-.12695-12.23242.40185-3.28811 1.31746-5.61396 2.625-6.76367a.92709269.92709269.0 00-.57031-1.63281z" id="path22098" class="panties_accent" data-transform="bra_trans_b"/></svg>