<svg viewBox="0 0 560 1e3"><defs><filter style="color-interpolation-filters:sRGB" id="filter13644"><feGaussianBlur stdDeviation="1 1" result="blur" id="feGaussianBlur13642"/></filter><clipPath clipPathUnits="userSpaceOnUse" id="clipPath13648"><path style="fill-opacity:.41476273;fill:#00e0e8" id="path13650" d="m268 434.6c.4.3.4.9.4 1 0 1.2 3 7.3 9 12.4 4.4 3.9 13.1 9.3 16 6.9.5-.4.7-1.1.8-1.4 1.3-4.3-5.1-9.9-7-11.6-6.2-5.4-9.9-8.5-11.2-9.4-.2-.1-.8-.5-1-1.2-.1-.5.2-.8.3-1.2.2-1.2-1.9-2.6-3.4-3.2-1.2-.4-3.6-1.6-5.3-.4-2.7 2-1 7.9.4 8.1.2.1.7-.3 1 0z"/></clipPath></defs><path d="m268 434.4c.4.3.4.8.4 1 0 1.8 2.4 7.6 6.3 11.2 9.7 8.8 18.8 11.3 17.9 7.1-.2-.6.8-1 .9-1.3.8-3-4.1-10-10.7-15.3-5.5-4.4-6-4.3-7.3-5.1-.2-.1-.4-.3-.5-.9-.1-.4.3-1 .4-1.3.2-1.4-1.8-2.5-3.6-3.4-1.4-.7-4.2-1.5-5.6-.4-3.2 2.6-1.1 9.7.7 8.7.3-.2.7-.6 1.1-.3z" class="shadow" id="XMLID_888_"/><path d="m268 434.6c.4.3.4.9.4 1 0 1.2 3 7.3 9 12.4 4.4 3.9 13.1 9.3 16 6.9.5-.4.7-1.1.8-1.4 1.3-4.3-5.1-9.9-7-11.6-6.2-5.4-9.9-8.5-11.2-9.4-.2-.1-.8-.5-1-1.2-.1-.5.2-.8.3-1.2.2-1.2-1.9-2.6-3.4-3.2-1.2-.4-3.6-1.6-5.3-.4-2.7 2-1 7.9.4 8.1.2.1.7-.3 1 0z" class="skin penis" id="XMLID_889_"/><g id="g13640" style="filter:url(#filter13644)" clip-path="url(#clipPath13648)"><path class="skin_highlight" id="path7046-2-8-2-8" d="m290.35453 444.97994c-2.65413-.30792-13.19828-8.72483-15.4325-11.14325-2.64423-3.59269 13.45689-2.43562 15.4325 11.14325z"/><path class="skin_shade" d="m268.64826 436.68205c-6.3513-.71287 10.29313 27.22751 22.70185 18.91634-3.10283-.99383-18.4438-11.05857-22.70185-18.91634z" id="path7048-5-1-3-1"/><path d="m265.88563 427.09634c-1.51574-4.50179 11.43623-2.965 9.5187 2.74898.70071-.83669-6.92106-4.00284-9.5187-2.74898z" id="path7134-38-2-02" class="skin_highlight"/><path id="path13470-8" d="m265.14766 428.37191c-3.38585-1.95481-1.30408 11.06833 2.41322 6.39716-1.93139-1.70698-1.82114-3.8295-2.41322-6.39716z" class="skin_shade"/><path d="m290.35453 444.97994c-2.65413-.30792-13.19828-8.72483-15.4325-11.14325-2.64423-3.59269 13.45689-2.43562 15.4325 11.14325z" id="path18163" class="skin_highlight"/><path id="path18165" d="m268.64826 436.68205c-6.3513-.71287 10.29313 27.22751 22.70185 18.91634-3.10283-.99383-18.4438-11.05857-22.70185-18.91634z" class="skin_shade"/><path class="skin_highlight" id="path18167" d="m265.88563 427.09634c-1.51574-4.50179 11.43623-2.965 9.5187 2.74898.70071-.83669-6.92106-4.00284-9.5187-2.74898z"/><path class="skin_shade" d="m265.14766 428.37191c-3.38585-1.95481-1.30408 11.06833 2.41322 6.39716-1.93139-1.70698-1.82114-3.8295-2.41322-6.39716z" id="path18169"/></g></svg>