<svg viewBox="0 0 560 1e3"><defs/><path class="shadow" d="m361.86535 353.56786c-12.83703 6.31667-28.27042 12.05831-44.58355 16.89148-16.02227 4.747-32.33951 8.44427-45.54494 10.17487-9.19432 1.20494-16.39914 1.5358-22.37965.46263-6.00816-1.07812-10.67279-3.54073-14.92135-7.95939-.37332 2.52367-.82903 5.55576-1.21186 8.10367.3349-2.20258.94144-5.76956 1.27634-7.97214 4.24839 4.41801 8.90683 6.85659 14.90198 7.90983 5.96881 1.04862 13.15792.69316 22.35273-.51175 13.21033-1.73112 29.47667-5.37312 45.45446-10.06721 16.25602-4.77583 31.67385-10.47261 44.51619-16.78584.60488 1.06649 1.26334 2.21643 1.99994 3.46828 5.86679 9.24951 8.65143 17.57884 13.96733 25.51577 11.4853 17.14817 21.68783 31.86976 24.36622 54.54418.6432 5.44514-.10251 13.74377-1.12361 22.06987.0972.01.26171.0.26171.0 1.01517-8.34365 1.75475-16.66761 1.1083-22.13192-2.68108-22.66278-12.81617-37.34213-24.2862-54.48071-5.31209-7.93737-8.29083-16.51538-14.15494-25.76376-.73628-1.2517-1.39447-2.40151-1.9991-3.46786zM233.1175 381.94078c-1.37087 9.11895-2.91751 19.47931-4.49607 28.25422-1.75945 9.78043-3.46572 17.29346-5.60883 25.74123-1.97889 7.81005-4.05727 16.00723-5.3918 23.47614.12359.01.34178.0.34178.0 1.26635-7.53933 3.22711-15.59668 5.21266-23.47712 5.01413-19.90063 6.5447-32.18436 9.89053-53.28621-.0378.0327-.0154-.22514.0517-.70826h4e-5z" id="path34627-4-5"/><path class="bottoms_primary" d="m361.7257 353.81401c-12.84234 6.31323-28.26017 12.01001-44.51619 16.78584-15.97779 4.69409-32.24413 8.33609-45.45446 10.06721-9.19481 1.20491-16.38392 1.56037-22.35273.51175-5.99515-1.05324-10.65359-3.49182-14.90198-7.90983-.7672 4.99057-1.59109 9.51558-1.43457 9.38006-3.34583 21.10185-4.8764 33.38558-9.89053 53.28621-1.98555 7.88044-3.94631 15.93779-5.21266 23.47712 61.01068.01 182.973-26e-5 182.973-26e-5 1.02107-8.3261 1.76682-16.62473 1.12361-22.06987-2.67839-22.67442-12.88092-37.39601-24.36622-54.54418-5.3159-7.93693-8.10054-16.26626-13.96733-25.51577-.7366-1.25185-1.39506-2.40179-1.99994-3.46828z" id="path34629-0-4"/><g id="g34659-3-9"><path class="bottoms_primary_strong_shade" d="m290.6111 448.19801c-1.35878-2.85422-2.16158-6.69589-3.52815-9.82327-5.24907-12.01237-9.42851-23.68318-11.76239-34.97942-2.26862-10.98043-2.25896-19.22278-2.00155-22.88151.0.0-3.73058.87944-4.54777 2.34895-.95667 9.80795.79114 20.74588 4.44697 32.06904 3.40242 10.53828 8.48766 21.37397 11.83429 26.94109 2.4635 4.09803 5.90922 8.29217 5.5586 6.32512z" id="path34631-4-4"/><path class="bottoms_primary" d="m262.01812 381.72476c.041 11.07013 1.51385 21.86524 4.43293 33.27237 2.68272 10.48348 6.50788 21.0148 9.45438 26.85222 2.5135 4.97957 8.56399 6.76184 14.54603 6.96439-5.48134-11.24081-11.36789-25.40535-14.74778-37.95876-3.53825-13.14162-4.01402-22.97204-3.82321-28.66211-.27456-.9688-1.0938-1.33336-2.44487-1.17355-2.25092.26552-5.50225.62517-7.41748.70544z" id="path34633-7-5"/><path style="baseline-shift:baseline;clip-rule:nonzero;color-interpolation-filters:linearRGB;color-interpolation:sRGB;color-rendering:auto;color:#000;direction:ltr;display:inline;dominant-baseline:auto;enable-background:accumulate;fill-opacity:.586998;fill-rule:nonzero;fill:#4d4d4a;image-rendering:auto;isolation:auto;mix-blend-mode:normal;opacity:1;overflow:visible;shape-padding:0;shape-rendering:auto;solid-color:#000000;solid-opacity:1;stroke-dasharray:none;stroke-dashoffset:0;stroke-linecap:butt;stroke-linejoin:miter;stroke-miterlimit:4;stroke-opacity:1;stroke-width:.453543;stroke:none;vector-effect:none;visibility:visible;white-space:normal;writing-mode:lr-tb" d="m262.22875 381.70256c-.13235.0242-.4215.043-.4215.043.042 11.06918 1.50999 21.86346 4.42652 33.27389 2.68133 10.49028 6.50839 21.03171 9.47171 26.90763 1.28965 2.55724 3.48503 4.29233 6.10412 5.40393 2.61722 1.1108 5.65783 1.60737 8.65767 1.70899 23e-5-.14135-.0332-.45407-.0332-.45407-2.96002-.10017-5.95038-.59372-8.48874-1.66985-2.54009-1.07687-4.6144-2.72035-5.83892-5.14419-2.92961-5.79886-6.75336-16.3206-9.43781-26.79763-2.92203-11.40428-4.40008-22.20057-4.43986-33.27168l2e-5-4e-5z" id="path34635-2-5"/><path style="baseline-shift:baseline;clip-rule:nonzero;color-interpolation-filters:linearRGB;color-interpolation:sRGB;color-rendering:auto;color:#000;direction:ltr;display:inline;dominant-baseline:auto;enable-background:accumulate;fill-opacity:.586998;fill-rule:nonzero;fill:#4d4d4a;image-rendering:auto;isolation:auto;mix-blend-mode:normal;opacity:1;overflow:visible;shape-padding:0;shape-rendering:auto;solid-color:#000000;solid-opacity:1;stroke-dasharray:none;stroke-dashoffset:0;stroke-linecap:butt;stroke-linejoin:miter;stroke-miterlimit:4;stroke-opacity:1;stroke-width:.453543;stroke:none;vector-effect:none;visibility:visible;white-space:normal;writing-mode:lr-tb" d="m262.22875 381.70256c-.13235.0242-.4215.043-.4215.043.042 11.06918 1.50999 21.86346 4.42652 33.27389 2.68133 10.49028 6.50839 21.03171 9.47171 26.90763 1.28965 2.55724 3.48503 4.29233 6.10412 5.40393 2.61722 1.1108 5.65783 1.60737 8.65767 1.70899 23e-5-.14135-.0332-.45407-.0332-.45407-2.96002-.10017-5.95038-.59372-8.48874-1.66985-2.54009-1.07687-4.6144-2.72035-5.83892-5.14419-2.92961-5.79886-6.75336-16.3206-9.43781-26.79763-2.92203-11.40428-4.40008-22.20057-4.43986-33.27168l2e-5-4e-5z" id="path34637-9-3"/><path style="baseline-shift:baseline;clip-rule:nonzero;color-interpolation-filters:linearRGB;color-interpolation:sRGB;color-rendering:auto;color:#000;direction:ltr;display:inline;dominant-baseline:auto;enable-background:accumulate;fill-opacity:.586998;fill-rule:nonzero;fill:#4d4d4a;image-rendering:auto;isolation:auto;mix-blend-mode:normal;opacity:1;overflow:visible;shape-padding:0;shape-rendering:auto;solid-color:#000000;solid-opacity:1;stroke-dasharray:none;stroke-dashoffset:0;stroke-linecap:butt;stroke-linejoin:miter;stroke-miterlimit:4;stroke-opacity:1;stroke-width:.453543;stroke:none;vector-effect:none;visibility:visible;white-space:normal;writing-mode:lr-tb" d="m262.22875 381.70256c-.13235.0242-.4215.043-.4215.043.042 11.06918 1.50999 21.86346 4.42652 33.27389 2.68133 10.49028 6.50839 21.03171 9.47171 26.90763 1.28965 2.55724 3.48503 4.29233 6.10412 5.40393 2.61722 1.1108 5.65783 1.60737 8.65767 1.70899 23e-5-.14135-.0332-.45407-.0332-.45407-2.96002-.10017-5.95038-.59372-8.48874-1.66985-2.54009-1.07687-4.6144-2.72035-5.83892-5.14419-2.92961-5.79886-6.75336-16.3206-9.43781-26.79763-2.92203-11.40428-4.40008-22.20057-4.43986-33.27168l2e-5-4e-5z" id="path34639-4-2"/><path style="baseline-shift:baseline;clip-rule:nonzero;color-interpolation-filters:linearRGB;color-interpolation:sRGB;color-rendering:auto;color:#000;direction:ltr;display:inline;dominant-baseline:auto;enable-background:accumulate;fill-opacity:.586998;fill-rule:nonzero;fill:#4d4d4a;image-rendering:auto;isolation:auto;mix-blend-mode:normal;opacity:1;overflow:visible;shape-padding:0;shape-rendering:auto;solid-color:#000000;solid-opacity:1;stroke-dasharray:none;stroke-dashoffset:0;stroke-linecap:butt;stroke-linejoin:miter;stroke-miterlimit:4;stroke-opacity:1;stroke-width:.453543;stroke:none;vector-effect:none;visibility:visible;white-space:normal;writing-mode:lr-tb" d="m262.22875 381.70256c-.13235.0242-.4215.043-.4215.043.042 11.06918 1.50999 21.86346 4.42652 33.27389 2.68133 10.49028 6.50839 21.03171 9.47171 26.90763 1.28965 2.55724 3.48503 4.29233 6.10412 5.40393 2.61722 1.1108 5.65783 1.60737 8.65767 1.70899 23e-5-.14135-.0332-.45407-.0332-.45407-2.96002-.10017-5.95038-.59372-8.48874-1.66985-2.54009-1.07687-4.6144-2.72035-5.83892-5.14419-2.92961-5.79886-6.75336-16.3206-9.43781-26.79763-2.92203-11.40428-4.40008-22.20057-4.43986-33.27168l2e-5-4e-5z" id="path34641-8-3"/><path class="bottoms_primary_shade" d="m262.22875 381.70256c-.13235.0242-.4215.043-.4215.043.042 11.06918 1.50999 21.86346 4.42652 33.27389 2.68133 10.49028 6.50839 21.03171 9.47171 26.90763 1.28965 2.55724 3.48503 4.29233 6.10412 5.40393 2.61722 1.1108 5.65783 1.60737 8.65767 1.70899 23e-5-.14135-.0332-.45407-.0332-.45407-2.96002-.10017-5.95038-.59372-8.48874-1.66985-2.54009-1.07687-4.6144-2.72035-5.83892-5.14419-2.92961-5.79886-6.75336-16.3206-9.43781-26.79763-2.92203-11.40428-4.40008-22.20057-4.43986-33.27168l2e-5-4e-5z" id="path34643-5-5"/></g><path style="baseline-shift:baseline;clip-rule:nonzero;color-interpolation-filters:linearRGB;color-interpolation:sRGB;color-rendering:auto;color:#000;direction:ltr;display:inline;dominant-baseline:auto;enable-background:accumulate;fill-opacity:.784314;fill-rule:nonzero;fill:#1e1e1e;image-rendering:auto;isolation:auto;mix-blend-mode:normal;opacity:1;overflow:visible;shape-padding:0;shape-rendering:auto;solid-color:#000000;solid-opacity:1;stroke-dasharray:none;stroke-dashoffset:0;stroke-linecap:butt;stroke-linejoin:miter;stroke-miterlimit:4;stroke-opacity:1;stroke-width:.453543;stroke:none;vector-effect:none;visibility:visible;white-space:normal;writing-mode:lr-tb" d="m370.48927 369.69716c-11.17353 6.83744-23.2567 12.79064-38.95842 17.9893-15.91669 5.26982-34.60816 9.45596-57.98322 13.14067-9.35816 1.47515-18.34673 2.23678-25.79173 1.09619-7.09923-1.08761-12.63105-3.84673-16.22605-9.34154-.0226.18688-.0869.53104-.0869.53104 3.64003 5.44006 9.20815 8.17488 16.27946 9.2577 7.51098 1.15015 16.54029.38232 25.9198-1.09592 23.37403-3.68382 42.09295-7.88137 58.03306-13.15986 15.73-5.20891 27.84454-11.17277 39.02987-18.01633 93e-5.002-.21678-.40299-.21585-.40125z" id="path34645-8-6"/></svg>