<svg viewBox="0 0 560 1e3"><defs><filter style="color-interpolation-filters:sRGB" id="filter13722"><feGaussianBlur stdDeviation="4 4" result="blur" id="feGaussianBlur13720"/></filter><clipPath clipPathUnits="userSpaceOnUse" id="clipPath13724"><path style="fill-opacity:.5;fill:#00fffd" id="path13726" d="m193.8107 268.91795c0 23.22061 13.20858 47.75815 38.10497 47.23238 22.85936-.48275 21.74666-4.65439 42.40531-5.39776 15.31454-.55107 19.77877 2.2839 39.13157 1.68682 36.63949-1.13042 55.66589-26.43248 57.7354-52.40767 2.20477-27.67293-17.68989-49.8037-34.37391-58.13013-7.1581-3.57236-13.61499-5.46708-26.82742-7.90481-14.3652-2.65041-25.84599 1.82396-33.0518 4.97616-15.82961 8.25139-24.91192 19.62404-50.43876 31.00121-13.5554 6.04157-32.68536 14.54714-32.68536 38.94376z"/></clipPath><clipPath clipPathUnits="userSpaceOnUse" id="clipPath13724-1"><path style="fill-opacity:.5;fill:#00fffd" id="path13726-4" d="m193.8107 268.91795c0 23.22061 13.20858 47.75815 38.10497 47.23238 22.85936-.48275 21.74666-4.65439 42.40531-5.39776 15.31454-.55107 19.77877 2.2839 39.13157 1.68682 36.63949-1.13042 55.66589-26.43248 57.7354-52.40767 2.20477-27.67293-17.68989-49.8037-34.37391-58.13013-7.1581-3.57236-13.61499-5.46708-26.82742-7.90481-14.3652-2.65041-25.84599 1.82396-33.0518 4.97616-15.82961 8.25139-24.91192 19.62404-50.43876 31.00121-13.5554 6.04157-32.68536 14.54714-32.68536 38.94376z"/></clipPath><filter style="color-interpolation-filters:sRGB" id="filter13722-1"><feGaussianBlur stdDeviation="4 4" result="blur" id="feGaussianBlur13720-3"/></filter><clipPath clipPathUnits="userSpaceOnUse" id="clipPath13724-1-5"><path style="fill-opacity:.5;fill:#00fffd" id="path13726-4-4" d="m193.8107 268.91795c0 23.22061 13.20858 47.75815 38.10497 47.23238 22.85936-.48275 21.74666-4.65439 42.40531-5.39776 15.31454-.55107 19.77877 2.2839 39.13157 1.68682 36.63949-1.13042 55.66589-26.43248 57.7354-52.40767 2.20477-27.67293-17.68989-49.8037-34.37391-58.13013-7.1581-3.57236-13.61499-5.46708-26.82742-7.90481-14.3652-2.65041-25.84599 1.82396-33.0518 4.97616-15.82961 8.25139-24.91192 19.62404-50.43876 31.00121-13.5554 6.04157-32.68536 14.54714-32.68536 38.94376z"/></clipPath><filter style="color-interpolation-filters:sRGB" id="filter13722-1-7"><feGaussianBlur stdDeviation="4 4" result="blur" id="feGaussianBlur13720-3-1"/></filter><clipPath clipPathUnits="userSpaceOnUse" id="clipPath20816"><path id="path20818" d="m395.27681 243.46279c-28.22401-10.98744-50.67923-13.0251-66.29525-13.13106-11.81447-.0802-23.6131.39442-34.38519 1.55496-18.24954 1.96614-22.80618 6.9386-43.83407 8.10748-17.59311.97795-17.86659-.57301-38.01254-1.39833-44.33935-1.81647-27.17864-2.02942-39.4844 36.53766 17.79242 95.17444 241.25922 69.92808 222.01145-31.67071z" style="display:inline;fill-opacity:.5;fill:#0ff"/></clipPath></defs><g style="display:inline" data-transform="boob_outfit" id="g28097-2-2-3" clip-path="none" transform="translate(-1.0022322e-6,-2.1968839e-6)"><g id="g20800" clip-path="url(#clipPath20816)"><path class="shadow" d="m246.71094 219.15039c-5.75297 3.4504-12.5783 7.014-20.58985 10.57422-25.42423 11.29819-32.40226 21.6887-32.62304 39.19336-.29284 23.21876 13.02158 48.44569 38.04297 47.85742 7.27689-.17108 12.50038-1.30673 16.39453-1.97851.13454-.0232.24853-.0487.38086-.0723-3.96251.70509-8.87108 1.26677-16.40039 1.42578-24.89639.52577-38.10547-24.01181-38.10547-47.23242.0-24.39662 19.13014-32.90179 32.68554-38.94336 8.17387-3.64305 14.65175-7.28443 20.21485-10.82422zm116.96289 8.71875c-.001 63e-5-.003.001-.004.002.32709.57216.65038 1.14729.96094 1.73243-.31152-.58505-.63087-1.1638-.95703-1.73438zm.95703 1.73438c4.70188 8.85882 7.45233 19.1856 6.55664 30.42773-2.06951 25.97519-21.09488 51.27778-57.73438 52.4082-2.61535.0807-4.94111.0942-7.07617.0664.0884.001.1589.007.24805.008 2.06314.023 4.82129.44062 7.32812.36328 36.6395-1.13042 55.41487-26.65176 57.48438-52.62695.89579-11.24342-2.07657-21.76318-6.80664-30.64648zm-87.55859 81.08398c-.0437 48e-5-.0929.003-.13672.004.23166-.003.44902-.003.67578-.004-.18377.001-.35208-.002-.53906.0zm2.14257.004c1.23978.0131 2.40799.0499 3.5293.10351-1.12137-.0536-2.28944-.0904-3.5293-.10351zm-4.89453.0605c-1.61096.058-3.05009.142-4.41797.23828 1.3663-.0961 2.80923-.18039 4.41797-.23828zm9.08789.0762c.68395.0374 1.33317.0882 1.98828.13672-.65448-.0485-1.305-.0993-1.98828-.13672zm-14.51953.24219c-1.01026.0808-1.96574.17061-2.86133.26953.89698-.0991 1.84932-.18866 2.86133-.26953zm18.87695.0859c.60404.0557 1.20832.11152 1.80665.17187-.59493-.06-1.20606-.11651-1.80665-.17187zm-22.65429.28516c-1.06995.12968-2.08007.26722-3.01758.41797.93773-.15082 1.94734-.28823 3.01758-.41797zm27.53515.19921c.79476.0821 1.62109.15764 2.44922.23633-.82426-.0783-1.65803-.15458-2.44922-.23633zm-31.1289.32032c-.78126.13203-1.53192.26766-2.24805.41015.71561-.14239 1.4674-.27821 2.24805-.41015zm35.49414.0898c.95867.0803 1.99374.14647 3.03711.21094-1.04257-.0644-2.07911-.13071-3.03711-.21094zm4.62109.31055c.15447.008.31984.0144.47657.0215-.15624-.007-.32257-.014-.47657-.0215zm-43.10742.16211c-.51548.10716-1.01597.21576-1.51172.32617.49574-.11041.99625-.21901 1.51172-.32617zm-4.59961 1.02929c-1.13595.26321-2.30712.52101-3.53125.77149 1.22417-.25047 2.3953-.50828 3.53125-.77149z" id="path13670-3-3"/><path class="top_primary" id="path28095-3-2-3" d="m193.8107 268.91795c0 23.22061 13.20858 47.75815 38.10497 47.23238 22.85936-.48275 21.74666-4.65439 42.40531-5.39776 15.31454-.55107 19.77877 2.2839 39.13157 1.68682 36.63949-1.13042 55.66589-26.43248 57.7354-52.40767 2.20477-27.67293-16.98278-50.33403-34.37391-58.13013-7.30007-3.27248-13.61499-5.46708-26.82742-7.90481-14.3652-2.65041-25.84599 1.82396-33.0518 4.97616-15.82961 8.25139-24.91192 19.62404-50.43876 31.00121-13.5554 6.04157-32.68536 14.54714-32.68536 38.94376z"/><g id="g10562-2-7"><g id="g78266-6-8-1-4-27-55-4-2-60-5-6-7-4" style="display:inline;stroke-width:.70919698;stroke:none" transform="matrix(2.6961968,-0.07160897,-0.41308278,0.74839154,-376.95949,134.2555)"><path id="path78258-5-3-5-7-4-27-7-6-8-5-1-8-9" d="m257.78463 231.41908 25.46538-1.91912c-1.75833-1.43306-8.91975-1.9852-14.375-1.125-5.21054.7236-7.94775 1.92284-11.09038 3.04412z" class="top_primary_strong_highlight"/><path d="m257.77115 231.41459 25.46476-1.92729c-1.52315 1.68089-8.52041 3.30234-14.04298 3.27122-5.26011.0672-8.14639-.70736-11.42178-1.34393z" id="path78260-3-6-3-9-66-21-7-3-7-3-9-47-2" class="top_primary_strong_shade"/><path id="path78262-1-0-7-4-1-1-8-1-2-9-2-4-1" d="m261.35088 231.14146 18.93637-1.43319c-1.13266 1.24996-6.33604 2.45572-10.44279 2.43258-3.91157.05-6.0579-.52602-8.49358-.99939z" class="top_primary_strong_shade"/><path d="m280.36534 229.70219-18.93637 1.43319c1.13266-1.24996 6.33604-2.45572 10.44279-2.43258 3.91157-.05 6.0579.52602 8.49358.99939z" id="path78264-7-6-7-6-34-83-1-9-42-8-6-0-5" class="top_primary_strong_highlight"/></g><g id="g78266-6-8-1-4-27-55-4-2-60-5-6-02-1-0" style="display:inline;stroke-width:.53838098;stroke:none" transform="matrix(3.0662691,-0.09267002,-0.4459684,1.1386296,-472.00786,40.481941)"><path id="path78258-5-3-5-7-4-27-7-6-8-5-1-5-8-9" d="m257.78463 231.41908 25.46538-1.91912c-1.75833-1.43306-8.91975-1.9852-14.375-1.125-5.21054.7236-7.94775 1.92284-11.09038 3.04412z" class="top_primary_strong_highlight"/><path d="m257.77115 231.41459 25.46476-1.92729c-1.52315 1.68089-8.52041 3.30234-14.04298 3.27122-5.26011.0672-8.14639-.70736-11.42178-1.34393z" id="path78260-3-6-3-9-66-21-7-3-7-3-9-40-3-5" class="top_primary_strong_shade"/><path id="path78262-1-0-7-4-1-1-8-1-2-9-2-9-5-1" d="m261.35088 231.14146 18.93637-1.43319c-1.13266 1.24996-6.33604 2.45572-10.44279 2.43258-3.91157.05-6.0579-.52602-8.49358-.99939z" class="top_primary_strong_shade"/><path d="m280.36534 229.70219-18.93637 1.43319c1.13266-1.24996 6.33604-2.45572 10.44279-2.43258 3.91157-.05 6.0579.52602 8.49358.99939z" id="path78264-7-6-7-6-34-83-1-9-42-8-6-5-7-9" class="top_primary_strong_highlight"/></g><g id="g78266-6-8-1-4-27-55-4-2-60-5-6-2-3-5" style="display:inline;stroke-width:.72861201;stroke:none" transform="matrix(2.6945077,-0.11828224,-0.40311507,0.71677803,-383.26641,133.4289)"><path id="path78258-5-3-5-7-4-27-7-6-8-5-1-7-8-7" d="m257.78463 231.41908 25.46538-1.91912c-1.75833-1.43306-8.91975-1.9852-14.375-1.125-5.21054.7236-7.94775 1.92284-11.09038 3.04412z" class="top_primary_strong_highlight"/><path d="m257.77115 231.41459 25.46476-1.92729c-1.52315 1.68089-8.52041 3.30234-14.04298 3.27122-5.26011.0672-8.14639-.70736-11.42178-1.34393z" id="path78260-3-6-3-9-66-21-7-3-7-3-9-7-2-0" class="top_primary_strong_shade"/><path id="path78262-1-0-7-4-1-1-8-1-2-9-2-2-2-3" d="m261.35088 231.14146 18.93637-1.43319c-1.13266 1.24996-6.33604 2.45572-10.44279 2.43258-3.91157.05-6.0579-.52602-8.49358-.99939z" class="top_primary_strong_shade"/><path d="m280.36534 229.70219-18.93637 1.43319c1.13266-1.24996 6.33604-2.45572 10.44279-2.43258 3.91157-.05 6.0579.52602 8.49358.99939z" id="path78264-7-6-7-6-34-83-1-9-42-8-6-2-4-6" class="top_primary_strong_highlight"/></g><g transform="matrix(2.2846764,-0.07914649,-0.33668017,0.7492189,-282.19741,144.32207)" style="display:inline;stroke-width:.77035397;stroke:none" id="g10422-6-0"><path class="top_primary_strong_highlight" d="m257.78463 231.41908 25.46538-1.91912c-1.75833-1.43306-8.91975-1.9852-14.375-1.125-5.21054.7236-7.94775 1.92284-11.09038 3.04412z" id="path10414-1-3"/><path class="top_primary_strong_shade" id="path10416-3-4" d="m257.77115 231.41459 25.46476-1.92729c-1.52315 1.68089-8.52041 3.30234-14.04298 3.27122-5.26011.0672-8.14639-.70736-11.42178-1.34393z"/><path class="top_primary_strong_shade" d="m261.35088 231.14146 18.93637-1.43319c-1.13266 1.24996-6.33604 2.45572-10.44279 2.43258-3.91157.05-6.0579-.52602-8.49358-.99939z" id="path10418-5-6"/><path class="top_primary_strong_highlight" id="path10420-3-8" d="m280.36534 229.70219-18.93637 1.43319c1.13266-1.24996 6.33604-2.45572 10.44279-2.43258 3.91157-.05 6.0579.52602 8.49358.99939z"/></g></g><g transform="matrix(1.5972753,0,0,1.5972753,-193.79872,-140.0444)" id="g9947-6-6-0-6" style="display:inline;stroke-width:.62606603"><g style="stroke-width:.43917" transform="matrix(1.3957022,0.29026258,-0.29026258,1.3957022,-53.058053,-181.41081)" id="g9918-0-9-8-3"><path class="top_primary_strong_shade" d="m315.06029 237.73885c0 1.15936-.85739 1.83405-2.18761 1.83405-3.99957-.59742 2.22451-3.63669 2.18761-1.83405z" id="path9914-1-6-7-1"/><path class="top_primary_strong_highlight" id="path9911-1-0-2-9" d="m310.4641 237.47368c0-1.15937 1.07836-2.09922 2.40858-2.09922 3.98661.52741-2.25716 3.65716-2.40858 2.09922z"/></g><g transform="matrix(0.89464062,0.72928318,-0.72928318,0.89464062,143.38911,-195.30746)" style="display:inline;stroke-width:.54241198" id="g9918-7-4-7-0-0"><path class="top_primary_strong_shade" d="m315.06029 237.73885c0 1.15936-.85739 1.83405-2.18761 1.83405-3.99957-.59742 2.22451-3.63669 2.18761-1.83405z" id="path9914-7-0-2-5-2"/><path d="m310.79531 237.57833c-.0813-1.18198.9521-2.21579 2.30826-2.30911 4.10131.25801-2.0446 3.88679-2.30826 2.30911z" id="path9911-1-0-9-3-2" class="top_primary_strong_highlight"/></g></g><g clip-path="url(#clipPath13724-1-5)" style="filter:url(#filter13722-1-7)" id="g13718-1-8"><path id="path52413-1-9-2" d="m228.29175 321.01168c34.27606-1.16849 31.78361-5.103 47.53183-5.04421 18.26342.0682 23.13753.7813 42.49033.18422 36.63949-1.13041 29.08529-5.72402 41.14428-31.11051 23.29847-49.04778-13.84086-35.88118-43.03199-27.36627-6.22204 1.81494-55.25845 10.84532-62.26123 11.608-9.12062.99334-66.92063-2.31715-72.10992-20.69433-21.29238 24.44043-1.91095 74.06448 46.2367 72.4231z" class="top_primary_shade"/><path id="path52427-0-5-8" d="m192.78386 232.98719c33.40653 16.68384 45.56964 13.05203 65.02661 13.63121 13.40181.39894 26.71649-13.2122 51.61991-13.72635 63.25139-1.30587 21.20577-25.25529.70878-25.67496-5.64663-.11562-40.0845 7.17456-47.93302 10.94056-17.16586 8.2368-38.21969-17.21787-55.02794-2.37881-16.645 18.06076-37.6282 6.7252-14.39434 17.20835z" class="top_primary_highlight"/><path class="top_primary_shade" d="m220.86713 318.89035c34.27606-1.16849 31.78361-5.103 47.53183-5.04421 18.26342.0682 23.13753.7813 42.49033.18422 36.63949-1.13041 32.97438 3.11482 45.03337-22.27167 23.29847-49.04778-13.84086-35.88118-43.03199-27.36627-6.22204 1.81494-55.25845 10.84532-62.26123 11.608-9.12062.99334-66.92063-2.31715-72.10992-20.69433-21.29238 24.44043-5.80004 65.22564 42.34761 63.58426z" id="path13704-7-0"/><path id="path13706-3-2" d="m213.79606 312.52639c34.27606-1.16849 31.78361-5.103 47.53183-5.04421 18.26342.0682 23.13753.7813 42.49033.18422 36.63949-1.13041 38.27768-1.83493 43.97271-10.25085 30.43184-44.97118-14.19441-31.28499-43.38554-22.77008-6.22204 1.81494-55.25845 10.84532-62.26123 11.608-9.12062.99334-66.92063-2.31715-72.10992-20.69433-21.29238 24.44043-4.38583 48.60863 43.76182 46.96725z" class="top_primary_shade"/><path class="top_primary_highlight" d="m200.20848 228.92133c33.40653 16.68384 38.49857 12.16814 57.95554 12.74732 13.40181.39894 24.59517-13.38897 49.49859-13.90312 63.25139-1.30587 21.38255-15.17902.88556-15.59869-5.64663-.11562-39.73095 7.70489-47.57947 11.47089-17.16586 8.2368-42.99266-16.33399-53.7905-7.85889-16.645 18.06076-30.20358 2.65934-6.96972 13.14249z" id="path13708-4-7"/><path id="path13710-8-6" d="m201.97625 225.91613c33.40653 16.68384 38.32179 10.9307 57.77876 11.50988 13.40181.39894 23.0129-11.12274 47.9076-11.95858 44.15951-1.48264 20.32189-6.69374-.1751-7.11341-5.64663-.11562-39.3774 7.88167-47.22592 11.64767-17.16586 8.2368-50.2405-19.16242-61.03834-10.68732-16.645 18.06076-20.48086-3.88139 2.753 6.60176z" class="top_primary_highlight"/></g></g></g></svg>