<svg viewBox="0 0 560 1e3"><ellipse id="ellipse9-3" ry=".80003262" rx="4.6001873" cy="490.9444" cx="267.79684" transform="rotate(-0.51733349)"/><ellipse id="ellipse11-2" ry=".80003262" rx="4.6001873" cy="491.14282" cx="267.59525" class="steel_chastity" transform="rotate(-0.51733349)"/><ellipse transform="rotate(-17.980187)" cx="129.94711" cy="519.67291" rx=".70002699" ry="6.100235" id="ellipse17-1"/><ellipse transform="rotate(-17.980187)" class="steel_chastity" cx="129.70938" cy="519.41577" rx=".70002699" ry="6.0002313" id="ellipse19-5"/><ellipse transform="rotate(-26.992949)" cx="42.951714" cy="533.26959" rx=".80003381" ry="6.9002914" id="ellipse23-4"/><ellipse transform="rotate(-26.992949)" class="steel_chastity" cx="42.74955" cy="533.06342" rx=".80003381" ry="6.8002872" id="ellipse25-7"/><ellipse transform="rotate(-54.237185)" cx="-214.39348" cy="492.40952" rx=".79995733" ry="7.199616" id="ellipse29-56"/><ellipse transform="rotate(-54.237185)" class="steel_chastity" cx="-214.64661" cy="492.15811" rx=".79995733" ry="7.199616" id="ellipse31-93"/><ellipse transform="rotate(-80.822144)" cx="-421.52307" cy="343.36212" rx=".80000162" ry="7.0000143" id="ellipse35-4"/><ellipse transform="rotate(-80.822144)" class="steel_chastity" cx="-421.71213" cy="343.17468" rx=".80000162" ry="6.9000144" id="ellipse37-5"/><ellipse transform="rotate(-0.44004565)" cx="268.19629" cy="485.07492" rx=".80002362" ry="6.4001889" id="ellipse41-5"/><ellipse transform="rotate(-0.44004565)" class="steel_chastity" cx="267.99811" cy="484.87354" rx=".80002362" ry="6.3001862" id="ellipse43-4"/><path id="path49-4" d="m279 482.7875c-.3 3.5-2.1 6.1-2.5 6.1-.4-.1.6-2.8.9-6.2.3-3.5-.2-6.2.2-6.1.5.0 1.7 2.7 1.4 6.2z"/><path id="path51-3" d="m278.8 482.5875c-.3 3.5-1.9 6.1-2.3 6-.4-.1.6-2.7.8-6.2.3-3.4-.3-6.1.1-6.1.4.1 1.7 2.8 1.4 6.3z" class="steel_chastity"/><path id="path57-8" d="m266.5 482.9875c.3 3.3 1.2 5.8.8 6.2s-2.2-2-2.5-6.1c-.3-4 1.1-7.2 1.6-6.9.4.3-.2 3.4.1 6.8z"/><path id="path59-6" d="m266.8 482.8875c.3 3.2 1.2 5.7.8 6-.3.4-2.1-2-2.4-5.9-.3-3.9 1.1-7 1.5-6.7.3.4-.3 3.4.1 6.6z" class="steel_chastity"/><ellipse transform="rotate(-12.809092)" cx="180.00468" cy="505.48141" rx=".59999132" ry="5.4999199" id="ellipse63-84"/><ellipse transform="rotate(-12.809092)" class="steel_chastity" cx="179.84734" cy="505.24936" rx=".49999273" ry="5.4999199" id="ellipse65-3"/><ellipse transform="rotate(-0.51733119)" cx="267.35156" cy="484.94016" rx="6.2002525" ry=".80003262" id="ellipse69-4"/><ellipse transform="rotate(-0.51733119)" class="steel_chastity" cx="267.14996" cy="485.13806" rx="6.2002525" ry=".80003262" id="ellipse71-9"/><ellipse transform="rotate(-41.042549)" cx="-91.814835" cy="527.70331" rx=".79997647" ry="7.1997881" id="ellipse75-0"/><ellipse transform="rotate(-41.042549)" class="steel_chastity" cx="-91.98201" cy="527.42474" rx=".79997647" ry="7.099791" id="ellipse77-68"/><ellipse transform="rotate(-68.216677)" cx="-331.52155" cy="426.40738" rx=".80000526" ry="7.200047" id="ellipse81-2"/><ellipse transform="rotate(-68.216677)" class="steel_chastity" cx="-331.67984" cy="426.07828" rx=".80000526" ry="7.200047" id="ellipse83-6"/><path id="path85-6" d="m290 452.2875c.1.2-3.8 1.1-8.4 4.1-1.6 1.1-3.4 2.3-5.2 4.5-2.3 2.8-3.1 5.6-3.4 6.3-.6 1.9-.8 3.8-.9 5.2-.2 1.5-.3 3.7-.3 3.7s0 0 0 0v0s.2.0.2.1c0 0-.2.1-.4.0s-.3-.5-.3-.7c-.2-2-.1-2.6-.1-2.6-.2-1.1.0-2.1.4-4.1.2-1 .5-2.7 1.4-4.8.5-1.2 1.4-2.9 2.8-4.6 1.3-1.2 3.3-2.8 6.1-4.2 4.2-2.4 8.1-3.1 8.1-2.9z"/><path id="path87-4" d="m290.1 452.1875c0 .1-2.6.7-6.1 2.5-.4.2-.9.4-1.5.8-1.5.9-5 2.9-7.5 6.8-.1.2-.4.7-.8 1.5-3.3 6.7-2 13.4-2.6 13.4-.2.0-.4-.6-.5-1-.3-1-1.1-4.3.9-10.4.4-1.1 1-2.6 1.9-4.3 1-1.5 2-2.6 2.8-3.4l.1-.1c3.9-3.8 10.4-5.4 10.4-5.4 1.6-.3 2.9-.5 2.9-.4z" class="steel_chastity"/><ellipse transform="rotate(-87.809755)" cx="-465.82806" cy="290.11841" rx=".80002451" ry="6.5001988" id="ellipse91-5"/><ellipse transform="rotate(-87.809755)" class="steel_chastity" cx="-465.95081" cy="289.81277" rx=".80002451" ry="6.5001988" id="ellipse93-0"/><ellipse transform="rotate(-1.8915592)" cx="275.63971" cy="461.45648" rx=".60002697" ry="5.2002335" id="ellipse97-8"/><ellipse transform="rotate(-1.8915592)" class="steel_chastity" cx="275.54593" cy="461.25238" rx=".50002247" ry="5.1002293" id="ellipse99-7"/></svg>