<svg viewBox="0 0 560 1e3"><defs><filter style="color-interpolation-filters:sRGB" id="filter52987"><feGaussianBlur stdDeviation="4 8" result="blur" id="feGaussianBlur52985"/></filter><filter style="color-interpolation-filters:sRGB" id="filter53043"><feGaussianBlur stdDeviation="4 8" result="blur" id="feGaussianBlur53041"/></filter><clipPath clipPathUnits="userSpaceOnUse" id="clipPath53045"><path style="fill-opacity:.4340949;fill:#00e0e8" d="m274.61896 204.20231c-9.59066 3.57542-17.65428 9.04821-25.29277 15.58829-24.50709 18.63376-46.15491 29.61281-70.70066 42.74063-32.51272 17.56768-34.9103 32.07559-37.91261 54.32414-.48625 18.20577 2.97615 36.26863 14.10645 55.1454 17.17149 25.01366 45.65084 29.54392 71.94775 23.14608 31.03255-7.54998 49.36907-23.65718 59.6635-60.87691 9.62075-23.37389 33.29218-45.45986 36.4474-61.74715 3.69316-16.60525 18.59184-53.9014 1.88006-70.37636-11.91192-11.74312-34.46577-3.78718-50.13912 2.05588z" id="path53047"/></clipPath><clipPath clipPathUnits="userSpaceOnUse" id="clipPath79482"><path d="m394.17995 344.402c20.40104-35.40595 13.2162-66.38194-.20445-95.10154-11.16292-23.8882-35.34072-43.21384-60.56994-50.87829-12.2471-3.72059-18.95855-4.18032-38.17232 4.16923-75.66569 42.52088-90.49962 76.00877-84.56238 124.48492 16.56403 77.81359 145.17895 88.89833 183.509 17.32568z" id="path79484" style="fill-opacity:.38488578;fill:#00e0e8"/></clipPath></defs><g data-transform="boob_right" id="g231066"><path d="m275.0609 205.26297c-14.58622 4.82874-36.94461 23.20985-55.16065 34.13865-16.72372 10.03347-35.25303 18.42483-52.87544 29.55494-15.4388 10.09736-24.90289 23.15512-27.13709 49.64503-.73859 17.61566 5.18328 37.9188 14.71068 53.39918 14.62319 23.76016 43.16953 31.64844 73.04372 24.02108 32.01411-8.17372 50.57751-23.142 58.7885-61.75191 1.53216-25.7413 29.87261-47.03812 33.02783-63.32541 3.69315-16.60525 22.41859-46.6397.69635-65.51007-15.73789-13.67171-25.90197-5.11159-45.0939-.17149z" class="shadow" id="path231062"/><path id="path231064" class="skin boob" d="m274.61896 204.20231c-9.59066 3.57542-17.65428 9.04821-25.29277 15.58829-24.50709 18.63376-46.15491 29.61281-70.70066 42.74063-32.51272 17.56768-34.9103 32.07559-37.91261 54.32414-.48625 18.20577 2.97615 36.26863 14.10645 55.1454 17.17149 25.01366 45.65084 29.54392 71.94775 23.14608 31.03255-7.54998 49.36907-23.65718 59.6635-60.87691 9.62075-23.37389 33.29218-45.45986 36.4474-61.74715 3.69316-16.60525 18.59184-53.9014 1.88006-70.37636-11.91192-11.74312-34.46577-3.78718-50.13912 2.05588z"/><g id="g26521-5-4" style="display:inline;filter:url(#filter53043);opacity:1" clip-path="url(#clipPath53045)"><path id="path26499-7-3" class="boob_shade" d="m140.69973 301.10946c-13.44246 43.25039-9.38867 111.61488 82.92647 109.6623 81.38658-18.2775 69.72742-58.69976 71.62849-105.23891-57.40115 21.88849-109.70339 24.1349-154.55496-4.42339z"/><path d="m142.87794 331.94586c-23.36005 35.34545 39.20608 89.56118 82.04828 82.07592 60.98493-22.33099 67.29148-53.61834 56.83402-76.98183-67.1674 31.74674-118.41598 6.54448-138.8823-5.09409z" class="boob_shade" id="path26506-9-2"/><path id="path26510-6-8" class="boob_shade" d="m152.5145 352.58365c-36.78984-4.2558 37.85774 58.78338 72.19504 52.33807 18.41301-4.47975 68.94685-27.74555 57.47418-50.94494-53.3801 24.35964-100.5465 14.47031-129.66922-1.39313z"/><path id="path26512-8-1" class="boob_highlight" d="m224.051 228.64808c-17.01792 4.14891-42.78027 6.34639-55.79215 13.37715-14.53445 7.85339-12.25036 19.10496-17.58333 26.69077 6.42253 17.30171 122.03126 29.16868 130.82038 2.03539 8.78914-27.13333-3.52344-32.17177-9.40219-35.91686-18.02725-11.48424-41.18843-9.64548-48.04271-6.18645z"/><path d="m203.00006 234.6311c-9.76233 2.6553-23.83425 3.37624-30.88352 7.44104-22.3755 12.90232-17.59177 11.10684-11.20831 18.20241 3.68428 11.07309 70.00315 18.66797 75.04507 1.30267 5.0419-17.36534-2.02123-20.58993-5.39358-22.98681-10.3413-7.34991-23.62773-6.17309-27.55966-3.95931z" class="boob_highlight" id="path26514-3-7"/><path d="m150.59394 364.58712c-36.78983-4.2558 37.85775 58.78338 72.19504 52.33806 18.41302-4.47974 68.94686-27.74555 57.47418-50.94494-53.3801 24.35964-100.54649 14.47032-129.66922-1.39312z" class="boob_shade" id="path33461-1"/></g></g><g data-transform="boob_left" id="g231072"><path id="path231068" class="shadow" d="m394.17995 344.402c34.72093-55.30266-6.48508-111.03406-21.73067-112.75356-34.09621-26.87152-33.55663-29.67711-72.61976-30.64803-78.17041 41.17222-98.34522 75.85011-89.15857 126.07591 17.25844 79.05051 146.04466 91.35145 183.509 17.32568z"/><path d="m394.17995 344.402c20.40104-35.40595 13.2162-66.38194-.20445-95.10154-11.16292-23.8882-35.34072-43.21384-60.56994-50.87829-12.2471-3.72059-18.95855-4.18032-38.17232 4.16923-75.66569 42.52088-90.49962 76.00877-84.56238 124.48492 16.56403 77.81359 145.17895 88.89833 183.509 17.32568z" class="skin boob" id="path231070"/><g id="g26457-8-5" style="filter:url(#filter52987)" clip-path="url(#clipPath79482)"><g id="g52981"><path id="path26448-1-5" class="boob_highlight" d="m379.08181 232.81483c-27.92903-25.68689-104.43628-15.07421-155.60574 22.65476-32.98378 47.56191 26.05428 41.21947 89.65825 27.04954 42.04758-12.66624 102.3542-10.90089 65.94749-49.7043z"/><path id="path26442-1-0" class="boob_shade" d="m401.77922 264.27127c-24.3563 60.75778-192.436 68.44227-192.54627 59.98925.57558 2.70403 1.28519 5.3282 2.1205 7.87192-.71294 151.22673 278.5195 64.97611 190.42577-67.86117z"/><path d="m406.99867 303.99895c-36.57509 54.8002-176.52402 62.95342-185.2758 48.40301-24.74238 65.10358 203.05856 89.05986 185.2758-48.40301z" class="boob_shade" id="path26444-3-0"/><path id="path26446-0-1" class="boob_shade" d="m399.67451 331.59562c-49.4779 43.45553-136.75892 45.8774-158.95681 39.36215 10.43688 53.82057 164.61261 24.72301 158.95681-39.36215z"/><path d="m341.72638 238.06706c-23.44083-25.21486-58.42644-14.95385-79.79809 13.32722-16.8877 24.35168 13.33976 21.10437 45.90502 13.84937 21.52833-6.48511 52.53335-7.30928 33.89307-27.17659z" class="boob_highlight" id="path26450-4-1"/><path d="m404.01791 342.67128c-49.4779 43.45553-136.75892 45.87742-158.9568 39.36216 10.43687 53.82058 164.6126 24.723 158.9568-39.36216z" class="boob_shade" id="path33406-4"/></g></g></g></svg>