<svg viewBox="0 0 560 1e3"><g id="g231174" data-transform="boob_left"><path d="m298.56422 297.54506c0 2.24696-2.51874 4.75326-4.75327 4.75326s-4.75326-2.5063-4.75326-4.75326c0-2.24694 2.51873-4.75327 4.75326-4.75327s4.75327 2.50633 4.75327 4.75327z" id="path231166" class="shadow"/><path class="steel_piercing" id="path231168" d="m298.13211 297.54506c0 2.04269-2.28977 4.32115-4.32116 4.32115-2.03138.0-4.32115-2.27846-4.32115-4.32115.0-2.0427 2.28977-4.32116 4.32115-4.32116 2.03139.0 4.32116 2.27846 4.32116 4.32116z"/><path d="m313.49145 270.05107c-1.94595 1.12347-5.37582.19523-6.4931-1.73983-1.11725-1.93517-.20623-5.36959 1.73983-6.49309 1.94592-1.12347 5.37582-.19523 6.4931 1.73983 1.11725 1.93517.20624 5.36962-1.73983 6.49309z" id="path231170" class="shadow"/><path class="steel_piercing" id="path231172" d="m313.27539 269.67684c-1.76902 1.02133-4.88709.17767-5.9028-1.58166-1.01568-1.75923-.18749-4.88144 1.58165-5.9028 1.76902-1.02134 4.8871-.17767 5.90281 1.58165 1.01568 1.75924.18749 4.88145-1.58166 5.90281z"/></g><g id="g231184" data-transform="boob_right"><path d="m168.18125 278.33262c0 2.24697-2.51873 4.75327-4.75326 4.75327-2.2345.0-4.75327-2.5063-4.75327-4.75327.0-2.24696 2.51877-4.75326 4.75327-4.75326 2.23453.0 4.75326 2.5063 4.75326 4.75326z" id="path231176" class="shadow"/><path d="m164.91497 307.97543c0 2.24694-2.51873 4.75327-4.75326 4.75327-2.2345.0-4.75327-2.50633-4.75327-4.75327.0-2.24697 2.51877-4.75327 4.75327-4.75327 2.23453.0 4.75326 2.5063 4.75326 4.75327z" id="path231178" class="shadow"/><path class="steel_piercing" id="path231180" d="m167.74914 278.33262c0 2.0427-2.28977 4.32116-4.32115 4.32116-2.03136.0-4.32116-2.27846-4.32116-4.32116.0-2.04269 2.2898-4.32115 4.32116-4.32115 2.03138.0 4.32115 2.27846 4.32115 4.32115z"/><path class="steel_piercing" id="path231182" d="m164.48286 307.97543c0 2.04267-2.28976 4.32115-4.32115 4.32115-2.03136.0-4.32115-2.27848-4.32115-4.32115.0-2.0427 2.28979-4.32115 4.32115-4.32115 2.03139.0 4.32115 2.27845 4.32115 4.32115z"/></g></svg>