<svg viewBox="0 0 560 1e3"><path id="XMLID_511_-1-8-0-3-9-7-7-7-7-9-0-4-2-3-9-9-9-7-5-8-8-4-2-7-6-6" class="highlight2" d="m252.40264 490.48989c10.07018 29.84487-3.27803 57.85752-3.82385 61.89524-3.30803-1.62614-7.09693-44.45212 3.82385-61.89524z"/><path id="XMLID_511_-1-8-0-3-9-7-7-7-7-9-0-4-2-3-9-9-9-7-5-8-8-4-2-7-6-6-0" class="highlight2" d="m247.84341 555.55395c2.9926 8.86913.40085 10.94377.23865 12.14368-.98306-.48325-3.48403-6.96003-.23865-12.14368z"/><path id="XMLID_511_-1-8-0-3-9-7-7-7-7-9-0-4-2-3-9-9-9-7-5-8-8-4-2-7-6-6-0-8" class="highlight2" d="m240.30654 628.14692c2.9926 8.86913.40085 10.94377.23865 12.14368-.98306-.48325-3.48403-6.96003-.23865-12.14368z"/><path id="XMLID_511_-1-8-0-3-9-7-7-7-7-9-0-4-2-3-9-9-9-7-5-8-8-4-2-7-6-6-0-0" class="highlight2" d="m369.91756 635.45313c-1.97841 9.14894.82978 10.91963 1.12561 12.09376.92262-.59052 2.68097-7.30704-1.12561-12.09376z"/><path id="XMLID_511_-1-8-0-3-9-7-7-7-7-9-0-4-2-3-9-9-9-7-5-8-8-4-2-7-6-6-5" class="highlight2" d="m353.92504 483.09326c-3.41721 37.99625 7.60129 92.56555 9.59682 99.67367 3.83375-17.75114 7.1206-59.60555-9.59682-99.67367z"/></svg>