<svg viewBox="0 0 560 1e3"><g id="g2489" data-transform="boob_left"><path class="shadow" id="path5171" d="m313.69251 241.24464c0 .64121-.72279 1.35646-1.36401 1.35646-.64123.0-1.36401-.71525-1.36401-1.35646.0-.64123.72278-1.35645 1.36401-1.35645.64122.0 1.36401.71522 1.36401 1.35645z"/><path d="m313.5685 241.24464c0 .58293-.65707 1.23314-1.24 1.23314-.58293.0-1.24001-.65021-1.24001-1.23314.0-.58294.65708-1.23315 1.24001-1.23315s1.24.65021 1.24 1.23315z" id="path2749-8-42" class="steel_piercing"/><path class="shadow" id="path5171-4" d="m317.21979 232.92168c0 .64121-.72279 1.35646-1.36401 1.35646-.64123.0-1.36401-.71525-1.36401-1.35646.0-.64123.72278-1.35645 1.36401-1.35645.64122.0 1.36401.71522 1.36401 1.35645z"/><path d="m317.09578 232.92168c0 .58293-.65707 1.23314-1.24 1.23314-.58293.0-1.24001-.65021-1.24001-1.23314.0-.58294.65708-1.23315 1.24001-1.23315s1.24.65021 1.24 1.23315z" id="path2749-8-42-2" class="steel_piercing"/></g><g id="g2495" data-transform="boob_right"><path class="shadow" id="path5173" d="m235.67875 236.49242c0 .64122-.72278 1.35645-1.36401 1.35645-.64122.0-1.364-.71523-1.364-1.35645s.72278-1.35646 1.364-1.35646c.64123.0 1.36401.71524 1.36401 1.35646z"/><path class="shadow" id="path5175" d="m233.34969 246.15125c0 .64123-.72278 1.35646-1.36401 1.35646-.64122.0-1.36401-.71523-1.36401-1.35646.0-.64121.72279-1.35645 1.36401-1.35645.64123.0 1.36401.71524 1.36401 1.35645z"/><path d="m235.55475 236.49242c0 .58292-.65707 1.23314-1.24001 1.23314-.58293.0-1.24-.65022-1.24-1.23314.0-.58293.65707-1.23314 1.24-1.23314.58294.0 1.24001.65021 1.24001 1.23314z" id="path2749-8-40" class="steel_piercing"/><path d="m233.22569 246.15125c0 .58294-.65708 1.23315-1.24001 1.23315s-1.24001-.65021-1.24001-1.23315c0-.58292.65708-1.23314 1.24001-1.23314s1.24001.65022 1.24001 1.23314z" id="path2749-8-2" class="steel_piercing"/></g></svg>