<svg viewBox="0 0 560 1e3"><path id="path9-9" d="m300.45955 176.79435c5.75393 4.57809 15.10826-1.25778 32.69185-10.78675.25346-.26166.59427-.13296.75882.13764l1.45752 3.26042c.0437.19518-.0117.41252-.0889.53226-4.82606 4.46138-25.17723 13.55643-28.52657 13.55643-5.27775.0-6.06553-1.19062-6.573-1.89062-.1015-.1-.1015-.3-.1015-.4l-.22717-4.00938c0-.4.30448-.6.60897-.4z" style="stroke-width:1.00745"/><path id="path13-6" d="m299.96797 179.10998c7.00222 2.06304 7.82277 2.97274 34.52324-11.76259l.27371.75854c-4.77068 4.24404-24.96781 13.18842-28.11416 13.18842-5.07476.0-6.87776-1.28437-6.67477-1.28437" class="steel_chastity"/></svg>