<svg viewBox="0 0 560 1e3"><g data-transform="boob_right" id="g2470"><path d="m236.98334 232.4169c-3.21761 3.62155-3.73944 5.38914-3.73944 5.38914s4.79265-.81014 9.53918.33616c-5.35783 1.14505-8.5785 3.63721-8.5785 3.63721s.71084 5.88731 2.60066 10.09887c-2.25871-1.74443-5.36244-7.77023-5.36244-7.77023s-.35108.3453-.82613.92226c-.46642-3.60736.4016-5.35786 1.25143-7.06135 1.83041-3.20975 5.11524-5.55206 5.11524-5.55206z" class="areola" id="path2468"/></g><g data-transform="boob_left" id="g2474"><path class="areola" d="m312.55389 240.46432c-3.21588 1.53-5.84273 4.51699-8.62738 6.31236 1.23732-2.78735 2.39494-6.70408 4.17909-9.25218-1.97849-1.65655-4.42703-2.5317-7.14853-3.1473 3.04286-.922 6.65441-1.54689 9.86441-1.06983 1.20865-1.70632 2.46264-2.30371 4.43953-3.76559.40252 1.50022.92811 1.94284 2.0351 3.65439 3.76549-.48758 7.47823.29047 11.38219 1.1747-4.05106.67144-7.17333 1.52586-9.93922 3.38322 1.16192 2.50446 1.80216 6.38434 2.52162 9.12704-2.55735-2.07199-5.36886-5.01897-8.70681-6.41681z" id="path2472"/></g></svg>