<svg viewBox="0 0 560 1e3"><path class="areola" d="m312.46321 243.66341c-3.01435-.42244-6.06059-3.24498-6.07488-5.77481-.0181-3.22857 3.82679-6.5982 7.20452-6.41043 3.17631.17658 6.49097 2.80863 5.83986 6.72178-.65113 3.91315-3.36528 5.96856-6.9695 5.46346z" id="path3518"/><path class="shadow" d="m313.47573 239.66032c-1.94762-.0319-2.30525-.47307-2.84254-1.38769-.0692-.11498-.14074-.6753-.039-1.04629.26998-.9844 1.38054-1.82945 2.49788-1.77138 1.83776.0955 2.2692 2.11008 2.25662 2.11245-.19082.92279-.63028 2.09291-1.87298 2.09291z" id="path3520"/><path id="path3522" d="m313.47573 239.66032c-1.94762-.0319-2.40618-.60407-2.84254-1.38769-.0133.01-.14074-.6753-.039-1.04629.26998-.9844 1.53307-1.84755 2.49788-1.77138 1.78528.14096 2.2692 2.11008 2.25662 2.11245-.15647.78536-.63028 2.09291-1.87298 2.09291z" class="areola"/><path class="shadow" d="m311.35893 236.87262c.87662-.34085 1.71217.12006 2.25579.57658-.65277-.31849-1.48757-.75499-2.25579-.57658z" id="path3524"/><path id="path3526" d="m312.37165 236.86687c.50004-.43498.80129-.55077 1.55144-.47994-.70137.0247-1.0201.15274-1.55144.47994z" class="shadow"/><path class="areola" d="m247.11138 246.60047c-1.68167-.31925-3.377-2.00927-4.10929-3.90778.20255-2.75186 1.18188-5.68828 1.49412-6.5277.99819-1.12304 2.26263-1.8391 3.44907-1.74976 2.34478.17657 4.7917 2.80863 4.31104 6.72178s-2.48428 5.96856-5.14494 5.46346z" id="path3528"/><path class="shadow" d="m246.84943 242.44113c-1.78297-.0319-2.11037-.47307-2.60223-1.38769-.0634-.11498-.12885-.6753-.0357-1.04629.24716-.9844 1.26383-1.82945 2.28672-1.77138 1.68239.0955 2.07736 2.11008 2.06584 2.11245-.17469.92279-.57699 2.09291-1.71464 2.09291z" id="path3530"/><path id="path3532" d="m246.84943 242.44113c-1.78297-.0319-2.20276-.60407-2.60223-1.38769-.0122.01-.12885-.6753-.0357-1.04629.24716-.9844 1.40347-1.84755 2.28672-1.77138 1.63435.14096 2.07736 2.11008 2.06584 2.11245-.14324.78536-.57699 2.09291-1.71464 2.09291z" class="areola"/><path class="shadow" d="m244.21552 240.06223c.80251-.34085 1.56743.12006 2.06509.57658-.59758-.31849-1.36181-.75499-2.06509-.57658z" id="path3534"/><path id="path3536" d="m245.14263 240.05648c.45777-.43498.73355-.55077 1.42028-.47994-.64208.0247-.93386.15274-1.42028.47994z" class="shadow"/></svg>