<svg viewBox="0 0 560 1e3"><defs/><path id="path30636" d="m246.32218 908.50664c1.18908.18104 2.39984.91814 2.55282 2.24337.91262 7.90594 1.66832 26.66011 2.15288 34.2356l-1.60868-.25628c-2.31495-26.72149-1.07371-11.78654-3.09702-36.22269z" class="shadow"/><path id="path30638" d="m246.68678 908.47349c1.18908.18104 2.03524.95129 2.18822 2.27652.91262 7.90594 1.70738 26.09761 2.19194 33.6731l-1.15555-.25628c-2.31495-26.72149-1.2013-11.25719-3.22461-35.69334z" class="shoe_accent"/><path id="path30640" d="m200.06236 931.7654c-6.96026 4.13288-15.82828 5.76479-20.09707 14.62214.4114 1.40623 1.74601 2.57083 3.58151 3.50734 5.09137 2.5977 14.0366 2.11458 17.82217 1.49099 3.00619-.4952 8.63916-.67381 13.87049-3.83113 13.84533-8.35621 7.17702-12.86501 24.53573-35.27824 3.61354-4.66574 8.70188-4.97372 9.09981-1.52649.91261 7.90594 1.70738 26.09761 2.19194 33.6731l3.30806-.875s-1.16305-18.22522-.0856-33.11679c.50456-6.97336 3.98896-12.98772 3.77308-18.36881-.22987-5.72979-4.75052-11.57964-9.77675-17.39999-5.09121-5.8956-6.5928-11.30205-5.80861-21.73415-8.80272 1.5017-17.98357 2.46608-27.9009 2.38387-.37607-.38542-.48657-.51282-.68306-.67907-1.38961 9.90593-2.84443 20.06625-4.37184 30.56104-1.02229 7.02411-3.45739 15.47985-5.08081 23.75614-2.28804 11.66451-2.30826 21.58599-4.37815 22.81505z" class="shoe_primary"/><path id="path30642" d="m213.44036 854.11303c-1.43711 10.03711-2.93226 20.34093-4.48333 30.99832-1.01309 6.96093-3.44614 15.42049-5.07617 23.73047-1.14984 5.86192-1.72916 11.275-2.27734 15.35351-.2741 2.03926-.54047 3.74741-.85743 4.98633s-.74663 1.95838-.97461 2.09375c-3.41696 2.02894-7.37176 3.46927-11.04687 5.53125-3.67511 2.06198-7.07787 4.77643-9.27344 9.33203-.0612.12728-.073.27272-.0332.40821.48099 1.64409 1.96274 2.88278 3.86914 3.85546 5.35792 2.7337 14.29446 2.18624 18.17578 1.54688 2.91518-.48021 8.69392-.6602 14.07227-3.90625 6.99625-4.22252 8.93337-7.62761 11.17578-12.62109 2.24241-4.99349 4.86928-11.63093 13.51562-22.79493 1.73109-2.23515 3.80484-3.38638 5.37696-3.58984.78605-.10173 1.43109.0294 1.8789.32031.44781.29091.74269.7358.82617 1.45899.9055 7.84432 1.70176 26.05059 2.1875 33.64453.0227.35956.36869.60845.7168.51562l3.30859-.875c.26427-.0698.44198-.31711.42383-.58984.0.0-1.16077-18.21042-.0879-33.03906.49262-6.80825 4.00182-12.78965 3.77539-18.4336-.24032-5.99024-4.74182-11.97547-9.88281-17.71094-7.40035-9.11677-6.06557-16.06984-5.81246-21.40938l-.56426.0663c-1.23786 15.01339 3.47589 18.56492 5.9119 21.67703 4.74009 6.05565 9.54747 11.6706 9.77734 17.40039.21588 5.38109-3.26888 11.39578-3.77344 18.36914-1.07745 14.89157.0859 33.11719.0859 33.11719l-3.30859.875c-.48456-7.57549-1.2788-25.76789-2.19141-33.67383-.39793-3.44723-5.48607-3.1384-9.09961 1.52734-17.35871 22.41323-10.68983 26.92114-24.53516 35.27735-5.23133 3.15732-10.8649 3.33683-13.87109 3.83203-3.78557.62359-12.73089 1.10551-17.82226-1.49219-1.8355-.93651-3.17064-2.10158-3.58204-3.50781 4.26879-8.85735 13.1374-10.48821 20.09766-14.6211 2.06989-1.22906 2.09087-11.14994 4.37891-22.81445 1.62342-8.27629 4.05778-16.7337 5.08007-23.75781 1.53148-10.52278 2.99989-20.70125 4.40849-30.61889z" class="shadow"/><path id="path30644" style="display:inline;fill-opacity:1;fill:#000" d="m404.96026 864.07058c-2.21057 14.77372-3.92238 29.18245-3.03434 41.74778.67958 9.61569 1.43283 17.35542 2.14844 21.81445 1.58272 9.86204 2.7441 7.57531 3.32422 12.28711 1.0795 8.76786 1.17775 15.14811-15.87891 9.58399-17.41535 8.86966-22.2513-1.76684-19.92187-17.38672.56107-3.76225 2.00693-10.81301 3.39648-21.06446 1.54853-15.02774-.12543-27.41003.77539-44.03906.16118-2.97538.32608-5.88982.4874-8.76327l-.54448-.28375c-.16581 2.95513-.33567 5.95371-.50165 9.01759-.90365 16.68133.76767 29.05598-.77344 44.01171-1.38634 10.22288-2.82625 17.24158-3.39258 21.03907-1.17577 7.88406-.60795 14.59358 2.69141 18.32812 1.13215 1.28148 2.5949 2.18319 4.36927 2.62079 4.37209 1.19675 18.491.7751 25.67501-1.039 1.22207-.25697 2.17198-.75273 2.87759-1.46655 1.12036-1.1334 1.56212-2.73212 1.67188-4.54688s-.1062-3.88097-.37696-6.08008c-.29692-2.41169-.78597-3.16001-1.33007-4.37304-.5441-1.21304-1.2092-3.03038-1.9961-7.9336-.7087-4.416-1.4199-12.16192-2.14453-21.76953l.002.004c-.88766-12.55999.84933-27.02298 3.07696-41.87785z"/><path id="path30646" d="m404.92838 864.27989c-2.19534 14.70031-3.88679 29.03219-3.00294 41.53823.72499 9.61237 1.43369 17.35591 2.1493 21.81494 1.58272 9.86204 2.74295 7.57579 3.32307 12.28759 1.0795 8.76786 1.17904 15.1471-15.87762 9.58298-17.41535 8.86966-22.25112-1.76637-19.92169-17.38625.56107-3.76225 2.00609-10.81269 3.39564-21.06414 1.54853-15.02774-.12499-27.40971.77583-44.03874.15942-2.94278.32245-5.82598.48205-8.66888 7.5703 3.14091 14.70078 5.18604 22.0459 7.77445 2.31275-.61339 4.64143-1.22679 6.63046-1.84018z" class="shoe_primary"/><g id="g34653"><path id="path34649" style="baseline-shift:baseline;clip-rule:nonzero;color-interpolation-filters:linearRGB;color-interpolation:sRGB;color-rendering:auto;color:#000;direction:ltr;display:inline;dominant-baseline:auto;enable-background:accumulate;fill-opacity:1;fill-rule:nonzero;fill:#000;image-rendering:auto;inline-size:0;isolation:auto;mix-blend-mode:normal;opacity:1;overflow:visible;shape-margin:0;shape-padding:0;shape-rendering:auto;solid-color:#000000;solid-opacity:1;stop-color:#000000;stop-opacity:1;stroke-dasharray:none;stroke-dashoffset:0;stroke-linecap:round;stroke-linejoin:miter;stroke-miterlimit:4;stroke-opacity:1;stroke-width:.454;stroke:none;vector-effect:none;visibility:visible;white-space:normal;writing-mode:lr-tb" d="m235.51562 853.98047c-.15281.0201-.30784.0369-.46093.0566-.0121 8.03678.52005 16.59501 1.28711 25.51172.11181 1.29634-.84422 2.43198-2.14063 2.54297-1.29634.11181-2.43198-.84422-2.54297-2.14063-.75514-8.77815-1.31707-17.28268-1.34179-25.37695-.15322.0152-.30548.0321-.45899.0469.0278 8.10147.59351 16.60258 1.34766 25.36914.13192 1.54098 1.49426 2.6876 3.03515 2.55469 1.54098-.13192 2.6876-1.49426 2.55469-3.03515-.76837-8.93199-1.29533-17.49688-1.2793-25.5293z"/><path id="path34645" style="baseline-shift:baseline;clip-rule:nonzero;color-interpolation-filters:linearRGB;color-interpolation:sRGB;color-rendering:auto;color:#000;direction:ltr;display:inline;dominant-baseline:auto;enable-background:accumulate;fill-opacity:1;fill-rule:nonzero;fill:#000;image-rendering:auto;inline-size:0;isolation:auto;mix-blend-mode:normal;opacity:1;overflow:visible;shape-margin:0;shape-padding:0;shape-rendering:auto;solid-color:#000000;solid-opacity:1;stop-color:#000000;stop-opacity:1;stroke-dasharray:none;stroke-dashoffset:0;stroke-linecap:butt;stroke-linejoin:miter;stroke-miterlimit:4;stroke-opacity:1;stroke-width:1.554;stroke:none;vector-effect:none;visibility:visible;white-space:normal;writing-mode:lr-tb" d="m233.4668 854.23242c-.52052.062-1.04061.12437-1.56446.18164.0136 8.06985.56587 16.58684 1.32422 25.40235l1.54688-.13282c-.76243-8.86285-1.30589-17.39869-1.30664-25.45117z"/></g></svg>