<svg viewBox="0 0 560 1e3"><path d="m295.33765 162.17245s-2.08612.01-2.64758.73347c-1.39732 1.80052-1.62729 5.11545-.1327 6.83609.67047.77187 2.22215.97724 3.04478.37013 1.35438-.99956.89536-4.96985.89536-4.96985s-.009 3.44588-1.29877 3.97542c-.61991.25456-1.43486-.35074-1.78719-.9208-.7795-1.26122-.68967-3.10819-.054-4.44769.36174-.76225 1.98011-1.57677 1.98011-1.57677z" class="shadow" id="path5064"/><path d="m303.13824 160.88999s-2.08613.01-2.64758.73347c-1.39732 1.80052-1.62729 5.11545-.1327 6.83609.67046.77187 2.22215.97724 3.04478.37013 1.35437-.99956.89536-4.96985.89536-4.96985s-.009 3.44588-1.29877 3.97542c-.61991.25456-1.43486-.35074-1.78719-.9208-.77951-1.26122-.68967-3.10819-.054-4.44769.36174-.76225 1.98011-1.57677 1.98011-1.57677z" class="shadow" id="path5066"/><path id="path3193" class="steel_piercing" d="m295.22093 162.54945s-1.89647.009-2.40689.66679c-1.27029 1.63684-1.47936 4.65041-.12064 6.21463.60952.7017 2.02014.8884 2.76798.33648 1.23126-.90869.81397-4.51805.81397-4.51805s-.008 3.13262-1.1807 3.61402c-.56356.23142-1.30442-.31885-1.62472-.83709-.70864-1.14656-.62697-2.82563-.0491-4.04335.32885-.69296 1.8001-1.43343 1.8001-1.43343z"/><path id="path3195" class="steel_piercing" d="m303.02152 161.26699s-1.89648.009-2.40689.66679c-1.27029 1.63684-1.47936 4.65041-.12064 6.21463.60951.7017 2.02014.8884 2.76798.33648 1.23125-.90869.81397-4.51805.81397-4.51805s-.008 3.13262-1.1807 3.61402c-.56356.23142-1.30442-.31885-1.62472-.83709-.70865-1.14656-.62697-2.82563-.0491-4.04335.32885-.69296 1.8001-1.43343 1.8001-1.43343z"/></svg>