<svg viewBox="0 0 560 1e3"><defs><filter style="color-interpolation-filters:sRGB" id="filter11610"><feGaussianBlur stdDeviation="5.48 5.22" result="blur" id="feGaussianBlur11608"/></filter><clipPath clipPathUnits="userSpaceOnUse" id="clipPath11622"><path style="fill-opacity:.29425839;fill:#0ff;opacity:1;stroke-dasharray:none;stroke-dashoffset:0;stroke-linecap:butt;stroke-linejoin:miter;stroke-miterlimit:4;stroke-opacity:1;stroke-width:.45354331;stroke:none;vector-effect:none" d="m354.79084 594.12069c-7.77642-26.24567-4.1383-75.39406-8.3085-108.18734-2.08315-16.38131-4.71671-32.76262-7.24785-49.14393l11.13694-20.15254 36.59277-1.76777 13.43503 28.28428-5.3033 43.13351-3.71231 106.94991z" id="path11624"/></clipPath><filter style="color-interpolation-filters:sRGB" id="filter11661"><feGaussianBlur stdDeviation="5.48 5.22" result="blur" id="feGaussianBlur11659"/></filter><clipPath clipPathUnits="userSpaceOnUse" id="clipPath11663"><path style="fill-opacity:.29411765;fill:#008085;opacity:1;stroke-dasharray:none;stroke-dashoffset:0;stroke-linecap:butt;stroke-linejoin:miter;stroke-miterlimit:4;stroke-opacity:1;stroke-width:.75590551;stroke:none;vector-effect:none" d="m285.70737 465.32036c2.44869 2.70661-22.48946-32.9691-21.07648-32.38195-.94528 5.91125-26.7337 1.41133-29.15446 22.27983-1.44612 12.46647-2.5826 24.88599-2.72496 34.01379-.37516 24.05508 2.78091 48.78934 2.9301 72.84688.15933 25.69322 2.47066 74.23964 2.47066 74.23964.25104 88.8391 37.04598-45.56993 51.84545-71.99954-.4484-33.52676 18.79513-77.62882-4.29031-98.99865z" id="path11665"/></clipPath><filter style="color-interpolation-filters:sRGB" id="filter11677"><feGaussianBlur stdDeviation="5.48 5.22" result="blur" id="feGaussianBlur11675"/></filter><filter style="color-interpolation-filters:sRGB" id="filter11692"><feGaussianBlur stdDeviation="5.48 5.22" result="blur" id="feGaussianBlur11690"/></filter><clipPath clipPathUnits="userSpaceOnUse" id="clipPath11694"><path id="path11696" d="m237.90223 636.3498c.25104 88.8391-10.45402 144.43008-18.90455 215.50047 101.46366-133.06693 58.31838-193.06524 18.90455-215.50047z" style="fill-opacity:.29411765;fill:#008085;opacity:1;stroke-dasharray:none;stroke-dashoffset:0;stroke-linecap:butt;stroke-linejoin:miter;stroke-miterlimit:4;stroke-opacity:1;stroke-width:.75590551;stroke:none;vector-effect:none"/></clipPath><filter style="color-interpolation-filters:sRGB" id="filter11712"><feGaussianBlur stdDeviation="5.48 5.22" result="blur" id="feGaussianBlur11710"/></filter><clipPath clipPathUnits="userSpaceOnUse" id="clipPath11714"><path id="path11716" d="m208.24295 649.4518c29.48131 118.64785 27.16612 172.69896 23.76755 214.69008 26.82384-93.99796 71.87614-147.41782-23.76755-214.69008z" style="fill-opacity:.29411765;fill:#008085;opacity:1;stroke-dasharray:none;stroke-dashoffset:0;stroke-linecap:butt;stroke-linejoin:miter;stroke-miterlimit:4;stroke-opacity:1;stroke-width:.75590551;stroke:none;vector-effect:none"/></clipPath></defs><path style="fill:#010101" d="m401.20117 458.59961h-.39866l-.25965.19887H218.76117l-.26116-.19887h-.35548c-.88675 8.12889-1.38092 16.00331-1.74023 23.42773-.99542 20.56825-.12488 43.5692 2.12109 65.60938 2.42067 23.75456 7.23527 47.27191 7.85547 62.61914.73147 18.1006 4.17481 36.30918 4.36133 54.46094.61636 59.98153-10.0021 133.4368-15.72852 188.40625 10.16667 1.54235 16.44466 1.23914 26.61133 1.11523.0881-6.10892 15.30097-49.78086 32.61328-89.93164 7.2409-16.79312 10.39703-32.75163 12.95508-43.57226 1.26679-5.35853 1.2143-18.67826.83203-25.87891-.49893-9.39821-2.57719-18.93661-3.13672-29.76367-.98178-18.99761-.53405-40.12178 2.13672-58.85742 4.59654-32.24514 15.02939-80.48706 16.60938-114.81836.15641-3.39861-.23207-13.90291.43359-15.10352.78417 1.35183 1.1607 7.92416 2.28516 13.70508 5.93314 30.50267 13.11195 60.72299 21.14062 90.83008 5.70686 21.4004 12.33913 42.43304 17.91992 64.05859.0.0 11.86105 35.55887 28.37305 116.35742 7.91604 38.73574 5.2168 95.28711 5.2168 95.28711 8.42683.91961 15.45514.75331 23.54882-.0762.0.0 4.18306-32.84723 10.91993-72.87695 3.41753-20.30658 4.80936-46.78743 3.36718-64.86328-2.0627-31.21206-14.55604-58.60321-17.55078-76.43946-4.98329-29.67982-5.39073-47.29642-5.15429-66.9375.17432-14.48058 4.09125-55.4307 2.48828-88.55664-.0533-1.10383 2.77518-14.71716 4.57812-28.20117z" id="path78031"/><path style="fill-opacity:1;fill:#232323" d="M400.79297 458.59961H218.49023c-.85746 8.12196-1.31965 15.98841-1.67968 23.42773-.99542 20.56825 12e-5 43.5692 2.24609 65.60938 2.42067 23.75456 7.70402 47.33441 8.32422 62.68164.73147 18.1006 3.97168 36.24668 4.1582 54.39844.61636 59.98153-10.35756 133.26102-16.08398 188.23047 10.16667 1.54235 15.472 1.06141 25.63867.9375.0881-6.10892 15.39081-49.69102 32.70313-89.8418 7.2409-16.79312 10.41669-32.45302 12.82226-43.30859.91323-4.12109 1.30415-18.63529.92188-25.83594-.49893-9.39821-2.53422-18.97958-3.09375-29.80664-.98178-18.99761-.6239-40.12178 2.04687-58.85742 4.59654-32.24514 15.06064-80.61206 16.64063-114.94336.15641-3.39861-.26332-16.27791.87109-16.10352 1.09667-.11692 1.56695 8.95541 2.69141 14.73633 5.93314 30.50267 13.3932 60.69174 21.42187 90.79883 5.70686 21.4004 12.21413 42.49554 17.79492 64.12109.0.0 12.06808 35.09207 28.58008 115.89063 7.91604 38.73573 5.2168 95.46289 5.2168 95.46289 8.42683.91961 14.31843.98567 22.41211.15625.0.0 4.34711-32.77107 11.08398-72.80079 3.41753-20.30658 4.85429-46.74251 3.41211-64.81835-2.0627-31.21206-14.77674-58.60321-17.77148-76.43946-4.98329-29.67982-5.21496-47.29446-4.97852-66.93554.17432-14.48059 3.91547-55.34281 2.3125-88.46876-.0533-1.10465 2.79619-14.77132 4.61133-28.29101z" id="path78028"/><g clip-path="url(#clipPath11622)" style="filter:url(#filter11610)" id="g77938"><path id="path77932" d="m346.40175 456.18855c-.19997-38.27664 28.35811-25.1491 32.47666 11.10661l-2.1356 85.08951-21.74702 29.97004c-4.3224-20.65849-3.33538-56.76902-4.32537-88.75771-.32974-10.65459-3.67471-27.65222-4.26867-37.40845z" style="fill-opacity:.294258;fill:#373e40;opacity:1;stroke-dasharray:none;stroke-dashoffset:0;stroke-linecap:butt;stroke-linejoin:miter;stroke-miterlimit:4;stroke-opacity:1;stroke-width:.453543;stroke:none;vector-effect:none"/><path style="fill-opacity:.294258;fill:#373e40;opacity:1;stroke-dasharray:none;stroke-dashoffset:0;stroke-linecap:butt;stroke-linejoin:miter;stroke-miterlimit:4;stroke-opacity:1;stroke-width:.453543;stroke:none;vector-effect:none" d="m345.27675 458.06355c-.19997-38.27664 24.00304-26.67055 28.12159 9.58516l-2.1356 85.08951-17.26695 28.11649c-4.3224-20.65849-2.21038-53.76902-3.20037-85.75771-.32974-10.65459-4.92471-27.27722-5.51867-37.03345z" id="path77934"/><path id="path77936" d="m344.27675 457.81355c-.19997-38.27664 18.63908-26.95088 22.75763 9.30483l-2.1356 85.08951-10.40299 29.77182c-4.3224-20.65849-4.46038-56.26902-5.45037-88.25771-.32974-10.65459-4.17471-26.15222-4.76867-35.90845z" style="fill-opacity:.294258;fill:#373e40;opacity:1;stroke-dasharray:none;stroke-dashoffset:0;stroke-linecap:butt;stroke-linejoin:miter;stroke-miterlimit:4;stroke-opacity:1;stroke-width:.453543;stroke:none;vector-effect:none"/></g><g style="filter:url(#filter11677)" id="g77946"><path id="path77940" d="m238.54499 624.13656c-.36774-6.43928-.10432-12.91298 4.04962-11.49201 4.81396 1.64675 8.75348 2.59017 10.31517 4.52938 3.1438 3.90378-1.70103 7.7355-5.89187 10.07801-4.98666 2.78734-8.11407 3.16821-8.47292-3.11538z" style="fill-opacity:.294258;fill:#373e40;opacity:1;stroke-dasharray:none;stroke-dashoffset:0;stroke-linecap:butt;stroke-linejoin:miter;stroke-miterlimit:4;stroke-opacity:1;stroke-width:.453543;stroke:none;vector-effect:none"/><path style="fill-opacity:.294258;fill:#373e40;opacity:1;stroke-dasharray:none;stroke-dashoffset:0;stroke-linecap:butt;stroke-linejoin:miter;stroke-miterlimit:4;stroke-opacity:1;stroke-width:.453543;stroke:none;vector-effect:none" d="m239.55707 623.44616c-.0322-5.15971-.22423-8.61321 3.23969-9.19361 8.01561-1.34307 8.8519 1.86925 7.07418 5.32248-1.07043 2.0793-1.586 5.92532-3.55526 7.23741-2.66119 1.77311-6.73566.30626-6.75861-3.36628z" id="path77942"/><path id="path77944" d="m240.36673 622.89384c-.6006-4.08393.10604-8.66491 2.59175-7.35489 6.80698 3.5874 8.71327 10.0765 6.2528 12.25807-2.08929 1.85247-8.09157.21685-8.84455-4.90318z" style="fill-opacity:.294258;fill:#373e40;opacity:1;stroke-dasharray:none;stroke-dashoffset:0;stroke-linecap:butt;stroke-linejoin:miter;stroke-miterlimit:4;stroke-opacity:1;stroke-width:.453543;stroke:none;vector-effect:none"/></g><g clip-path="url(#clipPath11663)" style="filter:url(#filter11661)" id="g77954"><path style="fill-opacity:.294258;fill:#373e40;opacity:1;stroke-dasharray:none;stroke-dashoffset:0;stroke-linecap:butt;stroke-linejoin:miter;stroke-miterlimit:4;stroke-opacity:1;stroke-width:.453543;stroke:none;vector-effect:none" d="m234.81213 489.47561c-1.5654-10.0282 4.43867-16.78476 8.67462-20.36701 8.75445 1.38544 39.69769 6.38648 36.67552 20.2028l-6.84502 69.1246c-2.67272 17.15632-21.2325 32.29047-32.37339 42.9328z" id="path77948"/><path id="path77950" d="m235.4891 497.37823c-1.25232-8.02256 4.42593-19.42781 7.81469-22.29361 7.00356 1.10835 29.84017 9.62426 27.42243 20.67732l-4.6982 60.67369c-2.13817 13.72505-16.97083 29.69329-25.88354 38.20715z" style="fill-opacity:.294258;fill:#373e40;opacity:1;stroke-dasharray:none;stroke-dashoffset:0;stroke-linecap:butt;stroke-linejoin:miter;stroke-miterlimit:4;stroke-opacity:1;stroke-width:.453543;stroke:none;vector-effect:none"/><path style="fill-opacity:.294258;fill:#373e40;opacity:1;stroke-dasharray:none;stroke-dashoffset:0;stroke-linecap:butt;stroke-linejoin:miter;stroke-miterlimit:4;stroke-opacity:1;stroke-width:.453543;stroke:none;vector-effect:none" d="m234.73457 505.62532c-1.00185-6.41804 3.54075-15.54224 6.25175-17.83488 5.60285.88668 21.46798 8.74239 19.53379 17.58484l-5.95059 47.21312c-1.71054 10.98004-8.98048 24.03748-16.11064 30.84856z" id="path77952"/></g><g clip-path="url(#clipPath11694)" style="filter:url(#filter11692)" id="g77962"><path id="path77956" d="m235.64182 720.40378c3.00398-19.87738 2.53098-40.47947 8.54962-41.24201 7.322-.92767 9.3261 44.38327 7.66359 51.57412-9.24367 39.98171-23.73909 91.64606-27.45648 90.06108-1.59746-.68111 5.002-59.09467 11.24327-100.39319z" style="fill-opacity:.294258;fill:#373e40;opacity:1;stroke-dasharray:none;stroke-dashoffset:0;stroke-linecap:butt;stroke-linejoin:miter;stroke-miterlimit:4;stroke-opacity:1;stroke-width:.453543;stroke:none;vector-effect:none"/><path style="fill-opacity:.294258;fill:#373e40;opacity:1;stroke-dasharray:none;stroke-dashoffset:0;stroke-linecap:butt;stroke-linejoin:miter;stroke-miterlimit:4;stroke-opacity:1;stroke-width:.453543;stroke:none;vector-effect:none" d="m235.64182 720.40378c3.00398-19.87738.40598-30.47947 6.42462-31.24201 7.322-.92767 6.3261 32.63327 4.66359 39.82412-9.24367 39.98171-18.48909 102.52106-22.20648 100.93608-1.59746-.68111 4.877-68.21967 11.11827-109.51819z" id="path77958"/><path id="path77960" d="m235.64182 720.40378c3.00398-19.87738-.96902-19.47947 5.04962-20.24201 7.322-.92767 2.8261 21.63327 1.16359 28.82412-9.24367 39.98171-12.98909 91.39606-16.70648 89.81108-1.59746-.68111 4.252-57.09467 10.49327-98.39319z" style="fill-opacity:.294258;fill:#373e40;opacity:1;stroke-dasharray:none;stroke-dashoffset:0;stroke-linecap:butt;stroke-linejoin:miter;stroke-miterlimit:4;stroke-opacity:1;stroke-width:.453543;stroke:none;vector-effect:none"/></g><g transform="translate(157.33127,-9.0156119)" id="g77968" style="filter:url(#filter11712)" clip-path="url(#clipPath11714)"><path id="path77964" d="m226.36105 721.11089c-3.90212-19.72074-9.93546-32.24724-3.91682-33.00978 7.322-.92767 18.77835 30.32806 19.07089 37.7028 1.6281 41.04237-.0159 91.5609-3.73332 89.97592-1.59746-.68111-2.72439-50.71877-11.42075-94.66894z" style="fill-opacity:.294258;fill:#373e40;opacity:1;stroke-dasharray:none;stroke-dashoffset:0;stroke-linecap:butt;stroke-linejoin:miter;stroke-miterlimit:4;stroke-opacity:1;stroke-width:.453543;stroke:none;vector-effect:none"/><path style="fill-opacity:.294258;fill:#373e40;opacity:1;stroke-dasharray:none;stroke-dashoffset:0;stroke-linecap:butt;stroke-linejoin:miter;stroke-miterlimit:4;stroke-opacity:1;stroke-width:.453543;stroke:none;vector-effect:none" d="m226.80299 722.43671c-3.56963-19.78363-9.10075-28.76024-3.08211-29.52278 7.322-.92767 9.45523 20.5726 10.44437 29.708 4.41742 40.7979 7.95894 83.61788 4.24155 82.0329-1.59746-.68111-4.0565-40.38927-11.60381-82.21812z" id="path77966"/></g><g id="g78002"><path style="fill-opacity:1;fill:none;opacity:1;stroke-dasharray:none;stroke-dashoffset:0;stroke-linecap:butt;stroke-linejoin:miter;stroke-miterlimit:4;stroke-opacity:.994413;stroke-width:.755906;stroke:#000;vector-effect:none" d="m215.63439 851.45262c8.28515 1.13622 16.97468.97383 25.64379.82154" id="path77984"/><path style="display:inline;fill-opacity:1;fill:none;opacity:1;stroke-dasharray:none;stroke-dashoffset:0;stroke-linecap:butt;stroke-linejoin:miter;stroke-miterlimit:4;stroke-opacity:1;stroke-width:.755906;stroke:#000;vector-effect:none" d="m379.81348 854.47465c8.63564.85518 15.70412.61399 22.55359.0983" id="path77986"/><path style="fill-opacity:1;fill:none;opacity:1;stroke-dasharray:none;stroke-dashoffset:0;stroke-linecap:butt;stroke-linejoin:miter;stroke-miterlimit:4;stroke-opacity:1;stroke-width:.755906;stroke:#060000;vector-effect:none" d="m344.90436 458.56945c1.3361 8.04171 2.48213 15.53864 3.20726 21.45752 3.13618 25.59907 1.84041 68.40973 5.19504 93.9811 3.91566 29.84785 14.03533 66.42812 14.03533 66.42812 29.48131 118.64785 27.16612 172.69896 23.76755 214.69008" id="path77988"/><path style="fill-opacity:1;fill:none;opacity:1;stroke-dasharray:none;stroke-dashoffset:0;stroke-linecap:butt;stroke-linejoin:miter;stroke-miterlimit:4;stroke-opacity:1;stroke-width:.755906;stroke:#040000;vector-effect:none" d="m233.46451 458.49602c-1.25798 11.29877-2.20865 22.31459-2.33804 30.61101-.37516 24.05508 2.78091 48.78934 2.9301 72.84688.15933 25.69322 2.47066 74.23964 2.47066 74.23964.25104 88.8391-10.45402 144.43008-18.90455 215.50047" id="path77990"/><path style="fill-opacity:1;fill:none;opacity:1;stroke-dasharray:none;stroke-dashoffset:0;stroke-linecap:butt;stroke-linejoin:miter;stroke-miterlimit:4;stroke-opacity:1;stroke-width:.755906;stroke:#000;vector-effect:none" d="m292.18915 458.52844c2.23661 4.7821 5.72083 10.15343 11.86678 16.70992" id="path77996"/></g></svg>