<svg viewBox="0 0 560 1e3"><defs><filter style="color-interpolation-filters:sRGB" id="filter78301"><feGaussianBlur stdDeviation="2 2" result="blur" id="feGaussianBlur78299"/></filter><filter style="color-interpolation-filters:sRGB" id="filter78415"><feGaussianBlur stdDeviation="2 2" result="blur" id="feGaussianBlur78413"/></filter><clipPath clipPathUnits="userSpaceOnUse" id="clipPath36711"><path id="path36713" d="m363.64687 385.68922c-.1379.001-.26549.0281-.38362.0788-1.05414.45364-2.00083.87988-2.7955 1.27298 2.01107 9.69172 9.83559 26.95892 18.56541 47.81867 8.51915 20.35636 16.59469 41.50525 18.5896 56.45592 4.88505-3.06151 23.40784-8.87394 26.33975-14.29984-.58896 1.08996-4.04114-4.09218-9.05159-12.45371-5.01291-8.36566-11.61184-19.92144-18.52852-31.60758-6.90148-11.66047-14.14959-23.53044-20.05146-32.40703-5.9181-8.90099-10.52646-14.88351-12.68407-14.85826.0-1e-5.0 1e-5.0 1e-5zm-20.94204 9.94404c-.46135-.0226-.93833.01-1.43471.1044 2.26885 7.31385 7.19478 26.58654 11.37897 45.62234 4.49949 20.47018 8.75417 43.46107 10.55847 65.45442 11.72057-2.96116 22.8485-7.70348 34.69863-10.22429-2.58252.54936-10.48306 2.28731-18.76938-1.80411-8.22318-4.06024-17.05252-14.04802-21.38074-36.78154-.54186-3.3003-.98468-18.69546-2.86229-33.37272-1.87637-14.66755-5.12011-28.65185-12.18895-28.9985zm-16.94495 6.34642c-3.36307 1.01279-10.06447 2.99918-10.06447 2.99918.11185 2.3692.26318 10.01245.76771 20.25115.54954 11.15219 1.31898 22.15924 2.3768 35.85904 1.10794 14.34893 1.90399 23.97472 2.67883 35.61561.68289 10.25959 1.00214 17.30578 1.06269 19.56366 5.80429-1.7339 12.31824-4.02437 20.37067-6.63718 1.74223-.5653 2.83477-.72689 3.78464-.74578-.14362.003-.2845.001-.43668.0118-3.51819.41973-6.06138-5.00208-8.13813-13.62544-2.0458-8.49485-3.72951-20.57596-5.12912-32.84954-1.52586-13.38078-2.45559-24.41183-3.60477-36.34371-1.04881-10.88976-2.05125-19.93401-3.66817-24.09877v2e-5zm-96.49454 5.94491c-.66841 3.35743-1.53177 3.05812-2.62467 4.69077-3.53128 5.27529-7.37008 20.27278-11.80319 37.44072-4.41263 17.08861-9.56106 36.12606-12.98264 49.1544 6.9557 2.89321 21.35116 8.644 21.35116 8.644.50712-2.66435 9.759-50.81585 9.59754-49.98041 2.77659-14.36625 6.00151-30.76644 9.59619-45.9319-2.87443-1.17464-9.36619-3.18042-13.13439-4.01758zm72.14977 1.15062c-4.41005 1.02229-13.15006 3.03399-13.15006 3.03399-.58109 10.74026-.26781 27.64677 1.09457 51.78633 1.23269 21.8414 2.53304 44.0648 3.07394 53.96211-4.94868.2365-14.87005.67926-14.87005.67926.22797.61647.65062 1.81871.65062 1.81871 3.65425.95559 21.92641-.85412 31.03996-3.31405-.75568.19997-1.47956.36226-2.17173.48982-2.38979-14.25828-3.5347-34.47634-4.19716-53.25278-.68321-19.36463-.75576-39.06548-1.47009-55.20339zm-23.8516 109.46169c-4.12838-.0372-8.89554.10206-13.24613.18159 5.66659-.007 9.08283-.21915 13.24613-.18159zM251.00144 413.14245c-.15127-.0434-1.05706 5.51326-2.18843 14.05651-1.24449 9.39742-2.36385 19.21095-3.81847 31.98229-3.00054 26.34429-5.57597 46.78773-7.19892 55.79968-.24877-.0509-.52851-.11971-.79323-.17944 10.35479 2.76055 22.21732 5.66596 26.27935 7.5002.10994-1.18024.29015-3.56758.29015-3.56758-4.27774-.0159-7.42257-.11026-10.20638-.35116 1.17321-15.10063 1.2789-35.03666 2.06001-54.27057.7912-19.48231 2.38055-37.53623 6.58986-50.08966-.73798.10447-10.38359-.69956-11.01394-.88027zm154.8946 12.39335c4.50811 7.94233 8.46781 16.68684 16.71911 44.43642 3.00434-2.60352 4.41828-4.04242 5.00445-4.43454-.63137-1.24363-10.88262-20.96778-21.72356-40.00188zm-43.50963 81.48561c-.37955.0929-.7589.18457-1.13984.27338.38068-.0888.76054-.18057 1.13984-.27338zm-2.68832.61902c-.38008.0823-.76005.16646-1.14173.24409.38191-.0777.76142-.16178 1.14173-.24409zM356.693 508.238c-.2805.0507-.55923.10633-.84071.15427.28156-.0479.56013-.10352.84071-.15427zm-9.70169.63952c-.0252-15e-5-.053.002-.0783.002.29447-51e-5.57832.0106.86436.0291-.25893-.0166-.5212-.0295-.78603-.031l-2e-5-1e-4zm1.11745.0545c.22867.017.45826.0321.70595.0486-.24766-.0167-.47716-.0317-.70595-.0486zm3.32708.0463c-.11497.008-.22578.014-.33473.0195.10968-.006.21895-.0118.33473-.0195zm-2.26437.0179c.36531.0196.77747.0249 1.22855.0193-.44843.005-.865 13e-5-1.22855-.0193zm-125.79155 1.78408c1.60311.5883 3.73592 1.24308 6.05069 1.91885-2.14364-.66115-4.24982-1.33729-6.05069-1.91885zm96.38463 5.46671c-3.09284.0581-6.74844.33922-8.61421.57987.26136.64399.53125 1.25388.89366 2.02942 3.3472-.58043 6.79203-1.46899 10.52576-2.58405-.8169-.0393-1.77858-.0445-2.80521-.0253v1e-5z" style="display:inline;fill-opacity:.5;fill:#80aab6"/></clipPath><clipPath clipPathUnits="userSpaceOnUse" id="clipPath36715"><path id="path36717" d="m368.1629 366.12921c-5.68187 2.97526-11.60817 6.02625-17.56524 8.85205-3.86197 1.83198-7.77352 3.61571-11.73236 5.33285-3.95806 1.7168-7.95994 3.36538-11.9965 4.92588-4.03627 1.56038-8.10781 3.03274-12.20334 4.39543-4.09553 1.36268-8.21463 2.61612-12.35123 3.73985-4.13665 1.12375-8.29146 2.11784-12.45269 2.96147-4.16133.84365-8.32971 1.53612-12.50074 2.05852-2.27177.28454-4.53894.47548-6.80343.58026-2.26448.10477-4.52626.12426-6.78868.0692-4.52499-.11024-9.05187-.52025-13.59925-1.15115-4.54854-.63107-9.11441-1.48286-13.73332-2.47611-1.70677-.36702-3.02749-.68219-4.75288-1.08451-.63143 3.49094-1.733 10.1529-2.41744 13.5908 3.76824.83716 10.2592 2.84283 13.13364 4.01748-3.59474 15.16568-6.81939 31.56549-9.59587 45.93203.17345-.89751-9.10187 47.37831-9.59716 49.98053.067.98558.17362 2.92712.17362 2.92712 4.32169 1.39559 10.42674 3.38265 14.41576 4.19918 1.62291-9.01179 4.19826-29.45548 7.19866-55.79953 1.45456-12.77128 2.57387-22.58481 3.81832-31.98218 1.13133-8.54322 2.03709-14.09982 2.18837-14.05646.63034.18071 10.27582.98477 11.0138.88026-4.20933 12.55344-5.79866 30.6076-6.58984 50.09017-.78109 19.23416-.88676 39.17044-2.05997 54.27107 2.78428.24095 5.93072.33486 10.20958.35064 4.53747-.0757 9.63018-.23687 13.98793-.19756 4.96681-.21619 14.87056-.67853 14.87056-.67853-.54089-9.89731-1.8409-32.12061-3.07325-53.9619-1.36203-24.13975-1.67503-41.04556-1.09394-51.78612 4.35462-1.00083 13.14917-3.03441 13.14917-3.03441.71433 16.13791.78684 35.8387 1.47 55.20328.66242 18.7764 1.80727 38.99436 4.19706 53.25266.69217-.12756 1.41555-.29075 2.17123-.49073.85896-.23185 1.36259-.20603 1.8977-.21459 2.48749-.32083 8.15444-.71247 11.43094-.55338-.0604-2.25448-.37958-9.3004-1.06249-19.55927-.77486-11.64029-1.57112-21.26761-2.67935-35.61734-1.05814-13.70119-1.82789-24.70937-2.3777-35.86308-.50476-10.24001-.65621-17.88431-.76807-20.25369 3.34868-.98767 10.06499-2.99893 10.06499-2.99893 1.61693 4.16475 2.61945 13.20902 3.66838 24.09877 1.1493 11.93181 2.07917 22.963 3.60518 36.34371 1.39974 12.27358 3.08359 24.3547 5.12948 32.84955 2.07684 8.62335 4.6201 14.04517 8.13828 13.62543 1.92735-.13355 3.03047.41839 6.77522-.0811 3.44831-.46002 6.81485-1.15463 10.13211-1.99266-1.8037-21.99449-6.05855-44.98719-10.55846-65.45926-4.18454-19.03732-9.11121-38.31233-11.38016-45.62651 7.86055-1.4931 11.4007 12.37621 13.43831 27.47541 2.03627 15.08923 2.48867 31.38408 3.048 34.79084 4.32823 22.73352 13.15786 32.72107 21.38132 36.78108 8.28661 4.09119 16.18743 2.35301 18.76995 1.80365.98071-1.90841-1.24184-5.41599-.28342-5.2734-1.99491-14.95066-10.0709-36.09971-18.59053-56.45621-8.73029-20.85987-16.55529-38.12726-18.56634-47.81896.79468-.3931 1.74145-.81881 2.79559-1.27244 1.88268-.81019 6.34467 4.77258 12.2318 13.52847 5.8435 8.69099 13.22242 20.731 20.22876 32.54492 7.04373 11.87696 13.80549 23.7193 18.94843 32.31982 5.14028 8.59606 8.69313 13.96192 9.2916 12.85437-.37535-2.68898.007-4.21556-1.34784-7.04364-8.279-27.84273-12.23812-36.55618-16.76473-44.51901-5.39622-9.47227-10.97174-18.86074-15.71063-26.30665-4.7104-7.40113-8.53202-12.79277-10.43472-14.03252-4.85122-3.16094-5.42165-5.10809-5.82853-6.14676-1.95952-4.26861-3.8788-8.56009-5.71364-12.8381z" clip-path="none" style="display:inline;fill-opacity:.5;fill:#80122f"/></clipPath></defs><path id="path35036" d="m368.1629 366.12921c-5.68187 2.97526-11.60817 6.02625-17.56524 8.85205-3.86197 1.83198-7.77352 3.61571-11.73236 5.33285-3.95806 1.7168-7.95994 3.36538-11.9965 4.92588-4.03627 1.56038-8.10781 3.03274-12.20334 4.39543-4.09553 1.36268-8.21463 2.61612-12.35123 3.73985-4.13665 1.12375-8.29146 2.11784-12.45269 2.96147-4.16133.84365-8.32971 1.53612-12.50074 2.05852-2.27177.28454-4.53894.47548-6.80343.58026-2.26448.10477-4.52626.12426-6.78868.0692-4.52499-.11024-9.05187-.52025-13.59925-1.15115-4.54854-.63107-9.11441-1.48286-13.73332-2.47611-1.70677-.36702-3.02749-.68219-4.75288-1.08451-.63143 3.49094-1.733 10.1529-2.41744 13.5908-.66841 3.35742-1.53251 3.05802-2.6254 4.69067-3.53128 5.27528-7.36999 20.27295-11.80301 37.44104-4.41254 17.08878-9.56089 36.12638-12.98246 49.15472 6.95581 2.89308 21.35148 8.64361 21.35148 8.64361.067.98558.17362 2.92712.17362 2.92712 9.35464 3.43288 33.72912 8.73264 39.90193 11.52003.10988-1.18329.28996-3.57672.28996-3.57672 6.16506.0143 9.63286-.22708 13.99072-.18777.22814.61671.65113 1.81944.65113 1.81944 3.65425.95559 21.92615-.85526 31.0397-3.31519.85896-.23185 1.36259-.20603 1.8977-.21459.26136.64398.52978 1.25457.89217 2.0301 8.56653-1.48549 17.66355-4.92788 30.90807-9.22538 4.81496-1.56232 4.71985-.0931 10.12462-.81413 15.63296-2.08544 29.62623-8.99301 44.83107-12.22745.98071-1.90841-1.24184-5.41599-.28342-5.2734 4.88504-3.0615 23.4074-8.87413 26.33931-14.30003-.37535-2.68898.007-4.21556-1.34784-7.04364 3.00434-2.60352 4.4176-4.04311 5.00378-4.43523-.61125-1.20399-10.69515-20.60974-21.39198-39.4222-5.45255-9.58937-11.1009-19.11839-15.92146-26.70761-4.78618-7.53511-8.67624-13.0394-10.60042-14.29315-4.85122-3.16093-5.42164-5.10808-5.82853-6.14675-1.95952-4.26858-3.8788-8.56003-5.71364-12.83802z" class="bottoms_primary"/><g clip-path="url(#clipPath36715)" style="filter:url(#filter78301)" id="g35080"><g id="g35048" style="display:inline"><path id="path35038" d="m297.48361 519.87672c-1.11966-24.41053-3.11302-41.13857-5.34898-70.17378-.94617-12.28652-1.47303-21.64276-1.7714-29.85996-.27684-7.62432-.29262-12.32682-.29262-12.32682-5.76756.31716-16.90619.90573-16.90619.90573-4.51163 14.28261-5.87378 32.25257-6.22727 52.36351-.34914 19.86341.23997 41.13366-.97466 60.84924 7.96154-.44401 23.55957-1.31392 31.52112-1.75792z" class="bottoms_primary_highlight"/><path id="path35040" d="m297.48361 519.87672c-.91126-24.39997-2.76139-41.14925-4.74672-70.17452-.84039-12.28636-1.28711-21.64363-1.51545-29.8605-.21187-7.62451-.18793-12.32691-.18793-12.32691-4.37778.31422-12.92664.90202-12.92664.90202-1.35517 22.57042-.99901 43.2764-.70254 70.39184.13781 12.60379.16557 21.35818.0671 29.87777-.0881 7.62433-.24871 12.32357-.24871 12.32357 15.18613-.84942 5.07476-.28385 20.2609-1.13327z" class="bottoms_primary_highlight"/><path id="path35042" d="m297.48361 519.87672c-.55645-24.3861-2.16146-41.16332-3.71901-70.1758-.65958-12.28579-.96913-21.64542-1.0777-29.86146-.10076-7.62482-.009-12.32707-.009-12.32707-2.0236.30934-6.05227.89397-6.05227.89397-1.59978 22.45154-1.46001 43.03328-1.41163 70.0093.0225 12.55934-.0252 21.21844-.19865 29.71468-.15481 7.58223-.35665 12.25504-.35665 12.25504-6.4086.25418 19.23348-.76284 12.82488-.50866z" class="bottoms_primary_highlight"/><path id="path35044" d="m297.48361 519.87672c-.55645-24.3861-2.16146-41.16332-3.71901-70.1758-.65958-12.28579-.96913-21.64542-1.0777-29.86146-.10076-7.62482-.009-12.32707-.009-12.32707-2.0236.30934-6.05227.89397-6.05227.89397-.62909 22.52682.41382 43.17223 1.64258 70.24112.57188 12.59819.90216 21.29412 1.09676 29.81575.17373 7.60785.17207 12.29684.17207 12.29684.69313-.077 7.25341-.80631 7.94654-.88335z" class="bottoms_primary_highlight"/><path id="path35046" d="m297.48361 519.87672c-.55645-24.3861-2.16146-41.16332-3.71901-70.1758-.65958-12.28579-.96913-21.64542-1.0777-29.86146-.10076-7.62482-.009-12.32707-.009-12.32707-2.0236.30934-6.05227.89397-6.05227.89397-.62909 22.52682.41382 43.17223 1.64258 70.24112.57188 12.59819.90216 21.29412 1.09676 29.81575.17373 7.60785.17207 12.29684.17207 12.29684.69313-.077 7.25341-.80631 7.94654-.88335z" class="bottoms_primary_highlight"/></g><g id="g35060" style="display:inline"><path id="path35050" d="m328.19939 516.00409c-1.16502-18.85343-3.96008-47.06291-5.86034-70.60166-.9966-12.34505-1.58092-21.79872-1.94296-30.04563-.33671-7.67001-.40369-12.39939-.40369-12.39939-4.12768 1.06911-12.30678 3.16211-12.30678 3.16211.39333 18.65473 1.23142 47.53425 2.64037 71.24666.68227 11.48242 1.45925 22.80236 2.26095 29.78982.84383 7.35473 1.86147 11.50813 3.42024 10.48102-.74065.0992 12.93286-1.73214 12.19221-1.63293z" class="bottoms_primary_highlight"/><path id="path35052" d="m326.94827 516.00415c-1.16919-18.85319-3.98678-47.06136-5.89711-70.59949-1.00182-12.34387-1.58728-21.79917-1.94811-30.04527-.33562-7.67008-.39993-12.3996-.39993-12.3996-1.37917.3082-4.15649.89325-4.15649.89325.0655 22.44091 1.66911 43.65451 3.71379 70.67561 1.77957 23.51743 2.73996 42.35885 2.73996 42.35885-.17012.0253 6.11801-.90861 5.94789-.88335z" class="bottoms_primary_highlight"/><path id="path35054" d="m326.94827 516.00415c-1.16919-18.85319-3.98678-47.06136-5.89711-70.59949-1.00182-12.34387-1.58728-21.79917-1.94811-30.04527-.33562-7.67008-.39993-12.3996-.39993-12.3996-1.37917.3082-4.15649.89325-4.15649.89325.0655 22.44091 1.66911 43.65451 3.71379 70.67561 1.77957 23.51743 2.73996 42.35885 2.73996 42.35885-.17012.0253 6.11801-.90861 5.94789-.88335z" class="bottoms_primary_highlight"/><path id="path35056" d="m326.94827 516.00415c-1.16919-18.85319-3.98678-47.06136-5.89711-70.59949-1.00182-12.34387-1.58728-21.79917-1.94811-30.04527-.33562-7.67008-.39993-12.3996-.39993-12.3996-1.11951.26585-3.38123.7666-3.38123.7666.16576 22.45699 1.86158 43.71142 4.01555 70.7545 1.87532 23.54454 2.91377 42.40656 2.91377 42.40656-.17831.0335 4.87537-.91683 4.69706-.8833z" class="bottoms_primary_highlight"/><path id="path35058" d="m326.94827 516.00415c-1.16919-18.85319-3.98678-47.06136-5.89711-70.59949-1.00182-12.34387-1.58728-21.79917-1.94811-30.04527-.33562-7.67008-.39993-12.3996-.39993-12.3996-.51459.18105-1.57202.5128-1.57202.5128.0659 22.42385 1.63998 43.67384 3.65301 70.67973 1.75311 23.51885 2.71311 42.36042 2.71311 42.36042-.0497.007 3.50075-.51591 3.45105-.50859z" class="bottoms_primary_highlight"/></g><g id="g35066" style="display:inline"><path id="path35062" d="m229.22859 516.24273c1.69488-9.34834 3.54849-19.70548 5.55394-31.81776 2.06036-12.44391 3.70579-23.23656 5.50587-35.12922 1.86047-12.29169 3.04459-20.08256 4.42523-28.49344 1.19456-7.27726 2.01152-11.76488 2.01152-11.76488-2.27125-.40808-6.72549-1.24597-6.72549-1.24597-3.91675 17.89356-9.00372 44.57813-14.00785 66.80024-2.52073 11.19395-4.904 21.0312-6.68544 28.34757-1.76092 7.2321-2.84738 11.68898-2.84738 11.68898.44529.0564 12.32432 1.55807 12.7696 1.61448z" class="bottoms_primary_highlight"/><path id="path35064" d="m224.37852 513.74609c1.95233-9.07903 4.15272-19.32649 6.50891-31.11049 2.42848-12.14554 4.39155-22.74628 6.49886-34.35369 2.24891-12.38734 3.47843-19.27321 5.119-27.86509 1.35888-7.11658 2.26941-11.50507 2.26941-11.50507-1.60189-.3652-4.77504-1.12029-4.77504-1.12029-3.91675 17.89356-9.00372 44.57813-14.00785 66.80024-2.52073 11.19395-4.904 21.0312-6.68544 28.34757-1.76092 7.2321-2.84738 11.68898-2.84738 11.68898.12193-.0136 7.7976-.86858 7.91953-.88216z" class="bottoms_primary_highlight"/></g><g id="g35072"><path id="path35068" d="m358.82922 510.14914c-7.09952 2.19213-11.56652-16.31476-15.69673-40.05731-4.12649-23.72121-7.46801-52.64769-11.11437-71.26236 8.66421-3.68714 25.93198-11.08831 25.93198-11.08831 5.26436 18.67808 13.83864 40.14737 20.79897 59.71372 7.08775 19.92454 12.75441 38.45189 14.08222 52.97183 6.20668-1.77285-40.20874 11.49528-34.00207 9.72243z" class="bottoms_primary_highlight"/><path id="path35070" d="m365.01542 508.20539c-6.67884.5356-11.46909-18.23238-15.9353-41.75933-4.46618-23.52679-8.23246-51.84247-11.83749-70.46143 1.4736-.36571 4.38948-1.12678 4.38948-1.12678 5.37743 19.16054 9.65472 39.56594 13.66645 59.41224 3.88982 19.24321 7.59448 38.39282 11.82779 51.9921-.042.0387-2.0689 1.90453-2.11093 1.9432z" class="bottoms_primary_highlight"/></g><g id="g35078"><path id="path35074" d="m423.82502 479.64983c-6.97864-21.80293-14.8954-39.83947-23.97283-56.05444-9.08989-16.23721-18.84813-29.7805-28.7853-42.72881 3.84312-.60549 11.42516-1.83932 11.42516-1.83932 10.5675 11.30344 20.5739 23.47168 28.70524 39.37381 8.08162 15.80491 14.16056 35.05285 17.36629 60.00931-.0589.0154-4.67965 1.22401-4.73856 1.23945z" class="bottoms_primary_highlight"/><path id="path35076" d="m426.19621 479.73717c-6.97971-21.80648-14.49235-40.14904-23.15184-56.67751-8.66351-16.53614-18.03297-30.41394-27.98432-43.34937 2.49589-.21819 7.432-.68303 7.432-.68303 10.5675 11.30344 20.5739 23.47168 28.70524 39.37381 8.08162 15.80491 14.16056 35.05285 17.36629 60.00931-.0221.0124-2.34527 1.31439-2.36737 1.32679z" class="bottoms_primary_highlight"/></g></g><g clip-path="url(#clipPath36711)" style="filter:url(#filter78415)" id="g35132"><g id="g35090" transform="translate(220.8719,-12.948485)"><g id="g35088"><path id="path35084" d="m136.44079 398.58066c1.1368-.32622 3.37366-1.00755 3.37366-1.00755 15.5696 22.08818 26.01177 44.85978 35.7462 65.40111 9.27399 19.56971 16.64093 33.98833 25.22702 34.4033-14.69723 4.9016-22.45195 15.17817-33.67128 6.69379-10.14489-35.15298-21.67838-70.21404-30.6756-105.49065z" class="bottoms_primary_shade"/><path id="path35086" d="m136.44079 398.58066c11.29695 13.19449 20.23205 36.75805 28.54271 57.83801 8.35421 21.19045 16.23537 40.33767 26.68147 45.21185-14.75157 4.89684-13.32554 10.92798-24.54858 2.44079-10.14489-35.15298-21.67838-70.21404-30.6756-105.49065z" class="bottoms_primary_shade"/></g></g><g id="g35096"><path id="path35092" d="m284.13414 409.88535c3.60848-.53396 10.94605-1.64308 10.94605-1.64308-1.05061 39.61782 2.20833 73.22743 4.54005 115.25805-9.03383.01-27.12472 4e-5-27.12472 4e-5 4.89249-37.94565 5.85411-75.59317 11.63862-113.61501z" class="bottoms_primary_shade"/><path id="path35094" d="m284.13414 409.88535c1.87482-.20042 5.63645-.63361 5.63645-.63361-.96572 39.46194 2.50395 72.12042 4.84848 113.99867-7.36623.0933-22.12355.24995-22.12355.24995 4.89249-37.94565 5.85411-75.59317 11.63862-113.61501z" class="bottoms_primary_shade"/></g><g id="g35102"><path id="path35098" d="m257.26009 410.90986c2.85958.25734 8.70355.74641 8.70355.74641-.25418 22.82501.91568 43.14269 2.2147 70.53349.59526 12.55153.93671 21.4917 1.13642 29.95254.18044 7.64475.18387 12.3578.18387 12.3578-4.08007 3.60249-17.23101-3.19013-25.76277-4.62254 2.91488-21.97114 4.20468-41.14469 6.36581-64.23777 1.97343-21.08737 4.2143-37.82974 7.15842-44.72993z" class="bottoms_primary_shade"/><path id="path35100" d="m261.16479 411.90954c1.59379-.0739 4.79885-.25327 4.79885-.25327-.25418 22.82501.91568 43.14269 2.2147 70.53349.59526 12.55153.93671 21.4917 1.13642 29.95254.18044 7.64475.18387 12.3578.18387 12.3578-4.07959 3.60207-10.2211-1.44086-18.75834-2.87382.67018-18.97892 1.80837-46.07903 3.32976-65.2706 1.66764-21.03627 4.13961-37.56698 7.09474-44.44614z" class="bottoms_primary_shade"/></g><g id="g35112"><path id="path35104" d="m233.12639 486.61135c-.70295-.0584-.9631.0379-1.58441-.0267.6472-.0761.79526-.19135 1.58441.0267z" style="fill:#010101"/><path id="path35106" d="m236.91135 408.52727c3.79153.63038 11.70055 1.88303 11.70055 1.88303-3.20415 17.32671-7.0122 43.17515-10.54623 64.69887-3.53259 21.51489-6.82311 38.77558-6.82311 38.77558-7.4196-2.27881-22.08797-6.86475-22.08797-6.86475 6.73167-15.66837 10.78998-35.45931 14.56785-54.33639 3.72672-18.62147 7.05115-35.56146 13.18891-44.15634z" class="bottoms_primary_shade"/><path id="path35108" d="m241.07265 408.90559c2.47544.50794 7.53925 1.50471 7.53925 1.50471-3.20415 17.32671-7.0122 43.17515-10.54623 64.69887-3.53259 21.51489-6.82311 38.77558-6.82311 38.77558-5.8843-2.15392-17.54276-6.48966-17.54276-6.48966 6.63447-15.68876 10.45654-35.43572 14.13083-54.33277 3.62766-18.65723 6.9756-35.52386 13.24202-44.15673z" class="bottoms_primary_shade"/><path id="path35110" d="m244.71257 409.28271c1.29715.38457 3.89933 1.12759 3.89933 1.12759-3.20415 17.32671-7.0122 43.17515-10.54623 64.69887-3.53259 21.51489-6.82311 38.77558-6.82311 38.77558-4.55645-2.02905-13.60381-6.11482-13.60381-6.11482 6.55854-15.70489 10.19546-35.41765 13.7885-54.33036 3.54944-18.68326 6.91758-35.4964 13.28532-44.15686z" class="bottoms_primary_shade"/></g><g id="g35120"><path id="path35114" d="m339.25356 437.16993c2.71172 3.79519 2.64578 2.5587 4.78725 3.6446-1.92661-1.25955-2.05478-.009-4.78725-3.6446z" style="fill:#010101"/><path id="path35116" d="m309.69148 404.33599c3.66008-.99594 11.02271-3.02617 11.02271-3.02617 2.45007 15.20029 4.25849 43.56268 7.05836 68.32434 1.37663 12.17471 2.92827 24.07765 4.59951 32.38553 1.71255 8.51325 3.68102 14.04364 6.32769 14.48397-10.22484 2.09169-30.70779 6.24688-30.70779 6.24688 1.37467-39.52722-1.11744-78.78763 1.69952-118.41455z" class="bottoms_primary_shade"/><path id="path35118" d="m309.69148 404.33599c2.53408-.32779 7.60845-1.01564 7.60845-1.01564.56523 2.67425 1.01972 11.38281 1.88029 22.46869.91716 11.81493 2.12671 24.44375 3.87011 38.64615 1.62766 13.25947 3.64256 27.18534 5.59453 36.87984 2.01607 10.01289 4.17811 16.74709 6.82199 17.18734-9.14905 1.42602-27.47489 4.24817-27.47489 4.24817 1.37467-39.52722-1.11744-78.78763 1.69952-118.41455z" class="bottoms_primary_shade"/></g><g id="g35130"><path id="path35122" d="m336.56252 394.38742c4.52684-1.7466 13.50912-5.25852 13.50912-5.25852 2.36338 14.14066 5.38295 28.93561 9.08586 46.07837 3.3124 15.33492 6.03112 27.585 6.03112 27.585 2.75973 14.9528-.77569 31.14052 20.38272 42.1336-9.31759 2.33396-27.90436 6.95879-27.90436 6.95879-6.81357-39.17715-15.97569-78.18782-21.10446-117.49724z" class="bottoms_primary_shade"/><path id="path35124" d="m336.56252 394.38742c4.52684-1.7466 13.50912-5.25852 13.50912-5.25852 2.36338 14.14066 5.38295 28.93561 9.08586 46.07837 3.3124 15.33492 6.03112 27.585 6.03112 27.585-5.38413 2.49243-14.71192-6.41349-18.54171-9.29949-3.72202-19.30322-7.56758-39.71149-10.08439-59.10536z" class="bottoms_primary_shade"/><path id="path35126" d="m336.56252 394.38742c1.69777-.15044 5.06445-.4813 5.06445-.4813.11845 2.60398 4.08553 3.12274 7.55363 10.51113 3.49228 7.43989 6.43694 21.59343 5.45611 51.65147-5.4231 2.50376-4.17201.30102-7.9898-2.57594-3.72202-19.30322-7.56758-39.71149-10.08439-59.10536z" class="bottoms_primary_shade"/><path id="path35128" d="m336.56252 394.38742c15.70456 9.56068 14.97205 34.55685 14.33599 61.93684-5.41938 2.50439-.43481.0448-4.2516-2.83148-3.72202-19.30322-7.56758-39.71149-10.08439-59.10536z" class="bottoms_primary_shade"/></g></g><path id="path35082" d="m368.1648 366.12858c-5.67948 2.97402-11.61252 6.02804-17.56714 8.85268-3.86197 1.83198-7.77352 3.61571-11.73236 5.33285-3.95806 1.7168-7.95994 3.36538-11.9965 4.92588-4.03627 1.56038-8.10781 3.03274-12.20334 4.39543-4.09553 1.36268-8.21463 2.61612-12.35123 3.73985-4.13665 1.12375-8.29146 2.11784-12.45269 2.96147-4.16133.84365-8.32971 1.53612-12.50074 2.05852-2.27177.28454-4.53894.47548-6.80343.58026-2.26448.10477-4.52626.12426-6.78868.0692-4.52499-.11024-9.05187-.52025-13.59925-1.15115-4.54854-.63107-9.11441-1.48286-13.73332-2.47611-1.48709-.31978-3.24904-.72517-4.76473-1.08297-.92193 4.89851-1.43029 8.86182-2.66842 14.67266 15.22301 3.6995 32.90389 6.56662 50.0116 4.44791 15.62965-1.92222 32.72199-6.69786 49.28713-12.74255 16.68567-6.08868 32.50403-13.33635 46.10729-20.41328-2.14536-4.70956-4.24644-9.44986-6.24419-14.17064z" class="bottoms_accent"/></svg>