<svg viewBox="0 0 560 1e3"><g id="g231370" data-transform="boob_right"><path id="path231368" class="areola" d="m230.45435 226.01325c-1.9984 3.10503-1.17336 3.19545-2.19199 6.98287 3.82771.0201 5.23159-1.66683 11.20064-2.20233-5.17143 2.50842-9.25475 7.45608-10.69031 8.2872.0.0.4786 5.35184 2.4117 12.39356-3.46016-3.34134-7.77281-9.65988-7.77281-9.65988s-4.6193 2.86962-6.96809 5.48015c.22872-1.63306.21961-1.66984.33671-2.40708 1.50951-2.54371 3.75405-5.18359 3.75142-6.3526-.44043-.5334-.9389-1.24128-1.39939-2.00535.63143-1.32328 2.00377-3.39671 2.82285-4.10431.22646.11731 1.6058.51696 1.85346.65538 4.19445-5.01639 6.64581-7.06765 6.64581-7.06765z"/></g><g id="g231374" data-transform="boob_left"><path id="path231372" d="m310.37206 237.96919c-4.63554 2.20542-8.42203 6.51102-12.43596 9.09896 1.78353-4.01784 3.45219-9.66361 6.02396-13.33658-2.85191-2.38783-6.38136-3.64931-10.30427-4.53668 4.38614-1.32901 9.59201-2.22977 14.21907-1.54211 1.74221-2.45957 3.54979-3.32068 6.39938-5.42791.58021 2.16249 1.33781 2.8005 2.9335 5.26762 5.42777-.70282 10.77951.4187 16.40688 1.69328-5.83941.96785-10.34001 2.19945-14.32691 4.87676 1.67485 3.61005 2.59772 9.20271 3.63478 13.15618-3.68629-2.98667-7.73895-7.23461-12.55043-9.24952z" class="areola"/></g></svg>