<svg viewBox="0 0 560 1e3"><path d="m235.60742 164.44531c-7.18683 14.4017-12.46289 31.70703-12.46289 31.70703 11.11005 9.62585 15.58218 10.45162 24.99805 28.8711.0361-.0505.0675-.0922.10351-.14258-6.27793-15.20861-15.99414-21.53655-24.72656-28.75977.0.0 6.13628-17.5397 12.27539-31.0039 5.82302 4.26291 11.96252 9.91574 14.77735 11.4082 4.36395 2.31383 17.07601 6.699 22.97656 13.85352.0853-.12508.17064-.24549.25586-.3711-7.60362-7.49948-17.56718-10.8705-22.58399-13.52148-6.6214-3.49887-11.03057-9.20462-15.61328-12.04102z" id="path19968" class="shadow"/><path id="path19970" d="m223.51926 196.1208c8.82769 7.30202 18.66682 13.67396 24.93674 29.24589 7.36171-4.26714 17.05516-15.70852 25.29678-34.75597-5.81193-7.29488-18.76764-11.74676-23.17956-14.08602-2.81483-1.49246-8.95491-7.14398-14.77793-11.40689-6.13911 13.4642-12.27603 31.00299-12.27603 31.00299z" class="top_primary"/><path id="path19972" d="m242.83259 170.62954.41696.36368c-6.02487 14.47925-12.29304 31.18515-12.31515 31.14831l-.51696-.42317c.0368.0 6.42153-16.87461 12.41515-31.08882z" class="top_accent"/><g id="g44046"><path id="path97163" d="m223.51926 196.1208c8.82769 7.30202 18.66682 13.67396 24.93674 29.24589.48671-3.26714 4.09094-9.10322 5.39506-14.21317.48269-2.63077-11.1723-11.32738-25.24327-19.30133-3.70116-2.09743-4.65352 3.42508-5.08853 4.26861z" class="top_primary_shade"/><path class="top_primary_shade" d="m223.51926 196.1208c8.82769 7.30202 18.66682 13.67396 24.93674 29.24589.48671-3.26714 3.05969-8.35322 4.36381-13.46317.48269-2.63077-10.0473-11.20238-24.11827-19.17633-3.70116-2.09743-4.74727 2.55008-5.18228 3.39361z" id="path97161"/><path id="path44031" d="m223.51926 196.1208c8.82769 7.30202 18.66682 13.67396 24.93674 29.24589.48671-3.26714 2.05969-7.97822 3.36381-13.08817.48269-2.63077-9.00242-9.47265-23.36827-18.45758-1.66742-1.04287-4.49727 1.45633-4.93228 2.29986z" class="top_primary_shade"/><path d="m223.51926 196.1208c8.82769 7.30202 18.66682 13.67396 24.93674 29.24589.48671-3.26714 1.23157-8.25947 1.84819-11.93192.17019-2.56827-4.646-7.35878-17.68077-15.66071-5.72587-3.04887-8.70099-2.56205-9.10416-1.6533z" id="path44033" class="top_primary_shade"/><path id="path44035" d="m226.36301 198.5583c8.82769 7.30202 14.13557 10.04896 22.09299 26.80839-.10704-4.45464.49719-5.72822.48881-11.27567.17019-2.56827-5.69287-7.78065-18.72764-16.08258-3.26035-1.50296-4.55294-.53916-3.85416.54986z" class="top_primary_shade"/><path d="m232.58176 203.71455c7.32769 7.67702 7.35432 5.14271 15.87424 21.65214-.10704-4.45464-.22156-6.57197-.66744-10.08817-.17356-1.03702.979-4.45253-12.05577-12.75446-9.57395-6.16169-8.99236-2.26819-3.15103 1.19049z" id="path44037" class="top_primary_shade"/><path id="path44039" d="m238.92551 209.90205c2.82769 3.73952 3.94807 5.04896 9.53049 15.46464-.10704-4.45464-.97156-6.41572-1.41744-9.93192-.36106-1.16202-1.92725-5.45253-7.52452-8.78571-9.57395-6.16169-3.30486.66931-.58853 3.25299z" class="top_primary_shade"/></g></svg>