<svg viewBox="0 0 560 1e3"><path id="path1618" class="shadow" d="m266.34659 144.54138-2.41338-7.27285c4.6902-8.38077.50567-25.52624 1.36037-34.13263 21.08768 5.4249 43.57585-6.58963 57.38033-11.97917 4.54626 10.24925 3.99238 32.04574 11.3849 42.16532 38.32417-8.60685 64.01971-43.161639 56.11646-74.081254C380.7456 18.680826 320.18713-2.1969621 277.40909 6.8250908 239.77451 13.026828 198.27485 50.683365 200.60062 88.226122c1.00178 29.226468 29.04996 48.041758 65.74597 56.315258z"/><path d="m266.34659 144.54138-2.41338-7.27285c4.6902-8.38077.50567-25.52624 1.36037-34.13263 21.08768 5.4249 43.57585-6.58963 57.38033-11.97917 4.54626 10.24925 3.99238 32.04574 11.3849 42.16532 37.59131-10.07256 63.59154-44.017989 56.11646-74.081254C380.17326 19.014691 318.11678-.98925638 277.40909 6.8250908 240.77197 13.858042 198.62192 50.972588 200.60062 88.226122c1.5305 28.815238 30.54095 46.882098 65.74597 56.315258z" class="hair" id="path2641"/></svg>