<svg viewBox="0 0 560 1e3"><g id="g231118" data-transform="boob_right"><path id="path231116" class="areola" d="m174.63465 265.02014c-4.83124 7.50655-2.83666 7.72516-5.29924 16.88142 9.25366.0485 12.64761-4.02965 27.07805-5.32424-12.50217 6.06423-22.37377 18.02542-25.84432 20.0347.0.0 1.15704 12.93831 5.8304 29.96201-8.36509-8.07785-18.79112-23.35321-18.79112-23.35321s-11.16738 6.93745-16.84568 13.2485c.55294-3.94799.53092-4.03691.814-5.81921 3.64932-6.14955 9.07561-12.53158 9.06924-15.35771-1.06476-1.28953-2.26983-3.00085-3.38309-4.84802 1.52651-3.19911 4.84421-8.21171 6.82435-9.92237.5475.28361 3.88211 1.24977 4.48085 1.58442 10.14027-12.12738 16.06656-17.08638 16.06656-17.08638z"/></g><g id="g231122" data-transform="boob_left"><path id="path231120" d="m297.00402 293.92419c-11.20663 5.33171-20.36063 15.74069-30.0645 21.99716 4.31178-9.71331 8.34583-23.36223 14.5632-32.24181-6.89461-5.77269-15.42722-8.82238-24.91105-10.96763 10.6037-3.21295 23.18914-5.39057 34.37527-3.72812 4.21187-5.94614 8.58177-8.02791 15.4708-13.12223 1.40267 5.22791 3.23422 6.77034 7.09186 12.73472 13.1219-1.69911 26.05997 1.01223 39.6644 4.09358-14.11704 2.33982-24.99745 5.31728-34.63597 11.78978 4.04903 8.72748 6.28011 22.24798 8.78727 31.8057-8.91178-7.22043-18.70928-17.49001-30.34128-22.36115z" class="areola"/></g></svg>