<svg viewBox="0 0 560 1e3"><path class="shadow" d="m363.87869 356.49653c-11.66653 9.97581-26.44035 18.18218-42.68971 24.52652-16.14383 6.30314-33.37434 10.60678-49.52329 12.55735-16.55122 1.99915-25.56985-.33204-30.89588-3.42924-5.1965-3.02188-7.08237-7.00808-7.56114-7.90686-1.37436 9.02257-2.98323 19.24397-4.63952 27.98351-1.86598 9.84602-3.6086 17.08691-5.81711 25.67906-1.93039 8.17205-3.8326 15.68117-5.57261 23.5055.1646.01.46481.0.46481.0 1.84378-8.1877 3.62404-15.21643 5.52676-23.49256 5.04106-20.00546 6.84099-32.78464 10.1034-53.24722.47957.89883 2.36834 4.90111 7.58005 7.94014 5.34024 3.11398 14.38524 5.46314 30.94147 3.46457 16.16006-1.95076 33.29865-6.18205 49.36-12.41708 16.15222-6.27031 30.87732-14.41987 42.56423-24.39334 5.86637 9.24943 8.65092 17.57869 13.96683 25.51557 11.48558 17.14845 21.68816 31.86931 24.36644 54.54415.70804 5.99426.31676 14.10689-.27411 22.08551.1194.01.32812.0.32812.0.67152-7.54977 1.12338-14.94319.37708-22.08471-2.10057-17.73397-8.9151-31.23674-17.35026-44.32881-3.05041-4.92399-6.09302-8.89036-8.76177-13.38687-.58124-.98147-1.13364-1.96998-1.67062-2.96559-3.68363-6.5904-7.69894-15.62192-10.82317-20.1496z" id="path34818-5-2"/><path class="bottoms_primary" d="m363.72015 357.26688c-11.68691 9.97347-26.41201 18.12303-42.56423 24.39334-16.06135 6.23503-33.19994 10.46632-49.36 12.41708-16.55623 1.99857-25.60123-.35059-30.94147-3.46457-5.21171-3.03903-7.10048-7.04131-7.58005-7.94014-3.26241 20.46258-5.06234 33.24176-10.1034 53.24722-1.90272 8.27613-3.68298 15.30486-5.52676 23.49256 61.39812.01 184.13507-26e-5 184.13507-26e-5.59087-7.97862.98215-16.09126.27411-22.08551-2.67828-22.67484-12.88086-37.3957-24.36644-54.54415-5.31591-7.93688-8.10046-16.26614-13.96683-25.51557z" id="path34820-6-1"/><path class="bottoms_accent" d="m373.87625 376.37511c-13.59616 10.22293-28.31388 18.52112-44.2346 24.73376-16.06262 6.26802-33.49862 10.48289-53.43331 12.8522-14.04106 1.66884-24.24417.8007-31.61566-1.35272-7.38794-2.15822-11.83318-5.57746-14.66112-9.05784-.0443.28431-.153.82331-.153.82331 2.89068 3.54821 7.39421 6.95366 14.83334 9.07857 7.42382 2.12054 17.66851 2.93608 31.78097 1.26017 19.6354-2.33178 36.82772-6.45842 52.67794-12.57112 15.70919-6.05831 30.25645-14.14023 43.71236-24.07391-.0889.094-.29819.25194-.29819.25194.74816.79123 2.31582 3.23935 4.00565 6.64315 1.69035 3.40487 3.61204 7.83589 5.53237 12.94043 3.87327 10.2957 7.62173 23.02834 9.92264 35.9643 1.57357 8.84674 2.355 17.65525 2.06032 25.54477 1.35334.01 4.02926.0 4.02926.0.29625-8.26232-.57218-17.27084-2.16621-26.25974-2.34059-13.19879-6.09954-26.15097-9.98624-36.61974-.42092-1.13375-.84224-2.22021-1.26185-3.28695-2.26018-3.50187-4.54234-6.89247-6.93394-10.46324-1.29817-1.93822-2.43772-3.89693-3.51309-5.88913.005.0145-.0166.0136-.0166.0136.006.0109-.28683-.54269-.28108-.5318z" id="path34822-1-9"/><path class="bottoms_accent" d="m364.28823 358.18383c-11.74485 10.02701-26.544 18.22457-42.76567 24.53046-16.13248 6.27123-33.34107 10.52723-49.59359 12.48835-16.63393 2.00714-25.72215-.35792-31.07358-3.46602-2.66202-1.5461-4.40814-3.29223-5.56524-4.75255-1.15471-1.4573-1.89266-2.90759-2.15623-3.4017-.0475.31979-.16083.92936-.16083.92936.23934.4488.76776 1.55725 1.94093 3.04348 1.1867 1.50339 2.97255 3.29106 5.68609 4.86813 5.45284 3.16912 14.68942 5.54515 31.43206 3.52569 16.32501-1.96909 33.56158-6.22348 49.72993-12.50836 16.25234-6.31753 31.10285-14.5459 42.91617-24.63432.001.002-.3914-.62469-.39004-.62252z" id="path34824-5-1"/><path class="bottoms_accent" id="path103099" d="m273.06249 401.4375c-3.39859-.0699-4.38014 2.3046-4.71875 3.1875-1.462 3.81206-1.55623 6.62439-2.0625 9.78125-1.08578 1.02014-1.06524 2.27185-1.28125 3.625.44441.4202.92076.55803 1.78125.3125-.62735 3.9239-.18451 10.37647.0 14.1875l2.9375-.125c-1.22458-4.94869-.95525-8.937-1.09375-13.1875.46854-3.41667 1.49763-6.83333 2.625-10.25l.25 1.3125c-.92762 2.66056-1.96937 5.5589-2 7.96875-.0358 2.81322 1.73602 4.47415 3.6875 4.46875 1.49187-.004 2.71944-.74704 3.625-2.09375.14213-1.44829.23667-2.98958.375-4.6875-.80044-1.94682-2.20049-4.29338-4-6.90625.20432-.70699.0914-1.30826.0625-1.9375.5277.27326.89935.19542 1.09375-.28125.7839-.0803 2.03337.38268 2.34375-.25 1.53807 3.10552 3.35088 3.32619 5.21875 2.96875.24605-.94359.4414-2.16607.84375-2.25l-.0625-.78125c-2.17468-1.20086-4.45052-2.57032-6.875-4.1875-.70103-.54324-1.55053-.85033-2.75-.875zm-1.53125.8125-.125 2.125c-.62634.2405-.81979.66652-.28125 1.40625-1.82588 3.24555-2.93947 7.28254-4.03125 11.34375.93334-6.08898 1.29566-13.36077 4.4375-14.875zm2.28125 2.3125c.5664.34407 1.04638.62335 1.28125.71875-.31604.12845-.4942.32582-1.28125.21875-.17979-.3125-.0558-.625.0-.9375zm-1.65625 7.5625c1.64244 2.16554 3.46391 4.39075 3.90625 6.15625l-1.34375 1.75c-.67225-.0427-1.26849-.0845-1.875.34375-.71813.50704-1.53974.57369-2.125-.375-.25955-2.74164.11515-5.38313 1.4375-7.875z"/></svg>