<svg viewBox="0 0 560 1e3"><path id="path9-8" d="m300.925 176.875c1.8 1 23.0875-2.8375 32.6875-8.3375.3-.2.6.0.7.3l1.8875 2.71875c0 .2-.1.4-.2.5-5.6 3.3-26.1375 9.51875-29.4375 9.51875-5.2.0-6.5375.2-7.0375-.5-.1-.1-.1-.3-.1-.4l.9-3.4c0-.4.3-.5.6-.4z"/><path d="m297.17442 186.03142 9.80069 2.63749 2.01146 23.34275-22.06661-4.46708-2.81659-5.63621z" id="polygon12"/><path id="path14" d="m304.28395 193.89936-6.61047-1.70345 2.965-11.16552 6.59411 1.80211zm-5.23045-2.69116 4.37409 1.13019 2.35903-8.73184-4.37409-1.13019z"/><path id="path16" d="m303.97048 192.73243-6.79143-1.8348 2.73557-10.39263 6.79143 1.8348zm-5.34545-2.60885 4.47274 1.14653 2.14596-8.0576-4.47275-1.14653z" class="steel_chastity"/><path style="fill:#bababa" d="m297.07576 186.01507 9.32377 2.45711 1.11893 18.32943-23.41509-4.89324z" id="polygon18"/><path d="m302.32515 180.06063-.85064 3.30581 2.90499.74858.85064-3.3058z" id="line20"/></svg>