<svg viewBox="0 0 560 1e3"><defs><filter style="color-interpolation-filters:sRGB" id="filter33085"><feGaussianBlur stdDeviation="2 2" result="blur" id="feGaussianBlur33083"/></filter><filter style="color-interpolation-filters:sRGB" id="filter33085-1"><feGaussianBlur stdDeviation="2 2" result="blur" id="feGaussianBlur33083-9"/></filter><filter style="color-interpolation-filters:sRGB" id="filter21944"><feGaussianBlur stdDeviation="0.5 0.5" result="blur" id="feGaussianBlur21942"/></filter><clipPath clipPathUnits="userSpaceOnUse" id="clipPath22265"><path style="display:inline;fill-opacity:.5;fill:#0ff" d="m406.57821 136.81444c-13.1645-6.90825-44.32599-18.2419-72.20943-20.02106-3.19627-5.68597-5.11411-15.63337-.10729-24.25984 38.73606 1.157369 73.45663 11.67642 91.92556 18.2976 7.9602 2.85376 25.00522 17.79138 24.06455 29.02585-1.34093 16.0148-34.44839 34.50841-77.75296 77.95158-6.51655 6.53742-9.56377 15.1176-11.99349 24.24465-.70571.50439-2.4205-6.50079-3.42034-11.74642-2.78172-17.50024-3.34793-51.76566-1.71176-52.31265 12.21926-11.2694 28.94473-13.26064 51.17417-34.18114 3.90619-3.67617 2.64752-5.62549.031-6.99856z" id="path22267"/></clipPath></defs><path d="m406.57821 136.81444c-13.1645-6.90826-44.32599-18.24191-72.20943-20.02107-3.19627-5.68597-5.11411-15.63337-.10729-24.259835 38.73606 1.157369 73.45663 11.676415 91.92556 18.297595 7.9602 2.85376 25.00522 17.79138 24.06455 29.02586-1.34093 16.01479-34.44839 34.5084-77.75296 77.95158-6.51655 6.53742-9.56377 15.1176-11.99349 24.24465-.70571.50439-2.4205-6.50079-3.42034-11.74642-2.78172-17.50024-3.34793-51.76567-1.71176-52.31266 12.21926-11.2694 28.94473-13.26064 51.17417-34.18114 3.90619-3.67617 2.64752-5.62549.031-6.99856z" id="path21648" class="top_primary"/><g id="g21975" clip-path="url(#clipPath22265)"><g id="g21700"><g clip-path="none" style="display:inline;filter:url(#filter33085-1);opacity:1" id="g21698" transform="translate(4.449751e-6)"><g transform="translate(2.1396059e-6)" style="display:inline" id="g21668"><path class="top_primary_highlight" id="path21664" d="m354.99167 175.28988c22.53795 7.93705 42.29722-12.34221 43.03764-24.46114-18.58641-.95137-41.05575 10.69219-43.03764 24.46114z"/><path d="m352.82616 172.15209c22.53795 7.93705 42.29722-12.34221 43.03764-24.46114-18.58641-.95137-41.05575 10.69219-43.03764 24.46114z" id="path21666" class="top_primary_highlight"/></g><g transform="translate(2.1396059e-6)" style="display:inline" id="g21676"><path class="top_primary_highlight" id="path21670" d="m284.95116 99.777087c9.74421 3.431563 45.79721-2.743741 81.9454 3.344963 47.46103 7.99422 102.29694 42.07325 99.34225 16.8189C460.78052 84.687071 247.33451 58.822042 284.95116 99.777087z"/><path d="m285.20116 96.027087c9.74421 3.431563 45.79721-2.743741 81.9454 3.344963 47.46103 7.99422 102.29694 42.07325 99.34225 16.8189C461.03052 80.937071 247.58451 55.072042 285.20116 96.027087z" id="path21672" class="top_primary_highlight"/><path class="top_primary_highlight" id="path21674" d="m284.57616 92.652087c9.74421 3.431563 45.79721-2.743741 81.9454 3.344963 47.46103 7.99422 102.29694 42.07325 99.34225 16.8189C460.40552 77.562071 246.95951 51.697042 284.57616 92.652087z"/></g><g style="display:inline" id="g21685"><path class="top_primary_shade" id="path21678" d="m363.20116 237.15209c22.53795 7.93705 94.54722-80.09221 95.28764-92.21114-10.80655-3.24519-39.78107 17.13223-65.63245 35.07565-23.59165 16.37494-41.2004 20.87832-29.65519 57.13549z"/><path d="m367.70116 238.65209c22.53795 7.93705 93.92222-79.21721 94.66264-91.33614-10.80655-3.24519-39.15252 16.26234-65.00745 34.20065-23.63617 16.39892-46.80432 24.16203-29.65519 57.13549z" id="path21680" class="top_primary_shade"/><path class="top_primary_shade" id="path21682" d="m370.45116 239.90209c22.53795 7.93705 93.92222-79.21721 94.66264-91.33614-10.80655-3.24519-39.15252 16.26234-65.00745 34.20065-23.63617 16.39892-46.80432 24.16203-29.65519 57.13549z"/></g><g transform="translate(2.1396059e-6)" style="display:inline" id="g21696"><path d="m427.33427 137.21629c-6.10362 5.37566-16.19814 8.54097-28.40036 10.04928-4.02407-12.52976-38.3608-24.4459-100.86831-10.88709-20.09403-5.99128-31.78553-12.92222-23.86271-17.49833 10.80654-3.24519 69.34995-14.71123 104.63244-3.54935 11.89688 3.76367 20.99869 8.70217 27.22387 11.40799 8.54043 3.71216 24.70678 7.67388 21.27507 10.4775z" id="path21690" class="top_primary_shade"/><path class="top_primary_shade" id="path21692" d="m421.30372 137.91061c-6.10362 5.37566-16.59589 5.97771-28.79811 7.48602-4.02407-12.52976-33.0575-19.45196-95.56501-5.89315-20.09403-5.99128-31.78553-12.92222-23.86271-17.49833 10.80654-3.24519 69.34995-14.71123 104.63244-3.54935 11.89688 3.76367 20.99869 8.70217 27.22387 11.40799 8.54043 3.71216 19.80123 5.2432 16.36952 8.04682z"/><path d="m418.20997 138.41061c-6.10362 5.37566-17.72089 3.35271-29.92311 4.86102-4.02407-12.52976-29.08875-15.57696-91.59626-2.01815-20.09403-5.99128-31.78553-12.92222-23.86271-17.49833 10.80654-3.24519 69.34995-14.71123 104.63244-3.54935 11.89688 3.76367 20.99869 8.70217 27.22387 11.40799 8.54043 3.71216 16.95748 3.9932 13.52577 6.79682z" id="path21694" class="top_primary_shade"/></g></g></g><g style="filter:url(#filter21944)" clip-path="none" id="g22746-4-7" transform="translate(-294.41312,-225.08469)"><path d="m725.58062 371.829c-24.30395 20.17591-41.60405 34.65085-67.43931 50.88354 2.03329-5.26699 47.87915-40.27482 67.43931-50.88354z" class="highlight2" id="path22967-5-5"/><path d="m710.03222 382.85798c-7.90364 5.60902-31.84575 22.31202-39.41503 29.55038 10.33833-5.94857 32.51706-22.73267 39.41503-29.55038z" class="highlight1" id="path2688-9-7-4-0-8"/><path d="m722.08674 351.77037c-25.34267-11.18388-41.50258-14.22022-86.47223-23.37136 5.50004-2.06094 71.28942 7.37583 86.47223 23.37136z" class="highlight2" id="path22967-5-5-3"/><path d="m706.13889 343.84245c-6.70443-2.58429-30.65359-11.12265-50.73364-12.90077 10.51143 2.69486 39.22145 8.29929 50.73364 12.90077z" class="highlight1" id="path2688-9-7-4-0-8-6"/><path id="path2655-5-7-5-3" class="highlight2" d="m731.5301 356.00679c5.76582 1.68392 7.65595 5.50014-3.5699 13.90021-4.05017 2.66747 20.91855-10.59975 3.5699-13.90021z"/></g></g><path d="m334.26172 92.533203c38.73606 1.157369 73.45685 11.677647 91.92578 18.298827 7.9602 2.85376 25.00512 17.79091 24.06445 29.02539-1.34093 16.01479-34.44933 34.50799-77.7539 77.95117-6.51655 6.53742-9.56247 15.11709-11.99219 24.24414 2.42972-9.12705 6.62603-17.70672 13.14258-24.24414 43.30457-43.44318 75.79188-61.7606 77.13281-77.77539.94067-11.23448-11.25855-23.84155-24.34375-29.44531-7.63643-3.27032-18.93853-7.17818-32.00291-10.38854-17.79092-4.371837-39.01014-7.610385-60.17287-7.666147zm26.24414 149.519527c-.0191.0136-.042.001-.0625.004.0192.0125.0394.0126.0625-.004zM334.36914 116.79297c27.70666 3.10499 59.398 14.26166 72.5625 21.16992 2.57447 2.17999 1.70919 1.71012-1.44531 5.84961-21.53409 20.26609-36.90627 22.77102-48.95508 33.15234 12.11119-10.38215 28.48085-12.88561 50.01563-33.15234 3.90618-3.67617 2.64776-5.62498.0312-6.99805-13.16449-6.90826-44.32554-18.24232-72.20898-20.02148z" id="path23864" class="shadow"/></svg>