<svg viewBox="0 0 560 1e3"><path d="M296.71866 97.884396C286.62945 93.731299 283.972 75.602879 290.47374 64.267699c1.06126-1.488966 4.23728-3.124406 5.72445-3.710227-2.35642.482976-3.54454 1.648735-4.72615 2.784184.77444-1.299041 1.45583-3.097836 2.74335-4.040515 2.80838-2.798392 7.16974-4.230205 11.96353-4.543065.56185-.107968 9.03448 1.273229 11.87926 3.134681-2.74807-1.492501-2.76361-1.590076-9.61963-2.624171 7.48004-.931009 15.28704 1.245206 19.89921 5.460526.51267.343212 2.822 6.647219 2.72946 8.268796-.039-3.284796-1.13244-3.890602-2.12126-6.785416.93515 1.079939 3.07758 3.249382 3.13102 4.345403.8369 2.441445.93832 5.062021-.0999 7.77625-2.70733 4.735086-3.7116 4.633021-4.98227 5.831302 1.64782-1.132067.84177.461309 4.37899-4.965447-4.53587 12.907106-23.29612 27.36021-34.65518 22.684396z" class="shadow" id="path1741"/><path d="m310.87721 68.488317c10.1863-7.245453 12.24126-7.224029 26.97186-9.809734-16.89829 2.457319-18.17225 3.08713-26.97186 9.809734z" class="shadow" id="XMLID_511_-3-7"/><path d="m279.77204 58.955442c12.67434 5.067335 12.86761 3.661959 22.80256 14.310729-10.71271-12.157113-11.92773-9.7917-22.80256-14.310729z" class="shadow" id="XMLID_511_-3-7-9-2"/><path id="path1723" class="hair" d="m296.71866 97.884396c-10.08921-4.153097-11.81523-22.813762-6.24492-33.616697 1.16248-1.416668 4.42234-2.992223 5.72445-3.710227-2.44978.401284-3.6173 1.585068-4.72615 2.784184.82352-1.299041 1.67526-3.097836 2.74335-4.040515 2.92758-2.583827 7.25788-4.071558 11.96353-4.543065.47945-.04804 8.80774 1.438134 11.87926 3.134681-2.61824-1.564626-2.62829-1.665252-9.61963-2.624171 7.32849-.198526 15.28103 1.274271 19.89921 5.460526.42165.38222 2.70735 6.696353 2.72946 8.268796.024-3.31386-.8434-4.024003-2.12126-6.785416.67256 1.006996 2.80985 3.175014 3.13102 4.345403.67491 2.459444.58563 5.101208-.0999 7.77625-2.63759 4.130641-3.70202 4.549966-4.98227 5.831302 1.66962-1.132067 1.13339.461309 4.37899-4.965447-5.25261 12.907106-23.29612 27.36021-34.65518 22.684396z"/><path d="M278.80443 65.57968c12.53066-1.204762 20.5574-1.575051 30.31557 9.758729-10.7569-13.261967-18.44361-10.574948-30.31557-9.758729z" class="shadow" id="XMLID_511_-3-7-9"/><path d="m307.43125 70.468741c12.46875-.8875 14.2125.2 28.1375 5.65625-15.70937-6.69375-17.125-6.81875-28.1375-5.65625z" class="shadow" id="XMLID_511_-3"/><path d="m292.11448 52.614564c5.39719 1.130155 5.37584.557465 10.07327 4.099903-5.11234-4.088212-5.43041-3.062107-10.07327-4.099903z" class="shadow" id="XMLID_511_-3-7-9-2-1"/><path d="m316.86102 58.888871c4.73564-2.824995 4.33197-3.231786 10.18708-3.808323-6.53004.45616-6.06887 1.426409-10.18708 3.808323z" class="shadow" id="XMLID_511_-3-7-9-2-1-7"/></svg>