<svg viewBox="0 0 560 1e3"><path d="m258.28967 359.76941c0 1.10235-1.23611 2.33846-2.33846 2.33846s-2.33846-1.23611-2.33846-2.33846 1.23611-2.33846 2.33846-2.33846 2.33846 1.23611 2.33846 2.33846z" id="path5491" class="shadow"/><path d="m259.03967 371.76941c0 1.10235-1.23611 2.33846-2.33846 2.33846s-2.33846-1.23611-2.33846-2.33846 1.23611-2.33846 2.33846-2.33846 2.33846 1.23611 2.33846 2.33846z" id="path5493" class="shadow"/><path class="steel_piercing" id="path2749-8-0-59" d="m258.07708 359.76941c0 1.00214-1.12373 2.12587-2.12587 2.12587-1.00214.0-2.12587-1.12373-2.12587-2.12587s1.12373-2.12587 2.12587-2.12587c1.00214.0 2.12587 1.12373 2.12587 2.12587z"/><path class="steel_piercing" id="path2749-8-6-1" d="m258.82708 371.76941c0 1.00214-1.12373 2.12587-2.12587 2.12587s-2.12587-1.12373-2.12587-2.12587 1.12373-2.12587 2.12587-2.12587 2.12587 1.12373 2.12587 2.12587z"/></svg>