<svg viewBox="0 0 560 1e3"><defs><filter style="color-interpolation-filters:sRGB" id="filter53308"><feGaussianBlur stdDeviation="2 2" result="blur" id="feGaussianBlur53306"/></filter><filter style="color-interpolation-filters:sRGB" id="filter53308-4"><feGaussianBlur stdDeviation="2 2" result="blur" id="feGaussianBlur53306-6"/></filter><clipPath clipPathUnits="userSpaceOnUse" id="clipPath34202"><path style="display:inline;fill-opacity:.5;fill:teal" id="path34204" d="m276.30107 122.10587c3.19627-5.68597 5.11411-15.63337.10729-24.25983-5.07036.771835-16.48114 3.31532-15.18075 3.62912-17.02586 5.4388-34.24105 15.1486-53.17711 25.70216-7.38656 4.11673-21.98627 19.60524-22.06975 27.30467-.10129 9.34224 15.03244 17.33819 39.92201 39.36161 7.97202 7.05401 27.22718 18.93611 24.32965 27.04708 12.21477-16.33671 13.82714-17.51412 24.42514-30.36177-3.25543-4.05319-11.73539-8.82885-24.57823-15.8014-8.43099-4.5773-17.3944-11.93513-27.07357-18.28063-5.30916-3.4806-3.66143-4.35561.95832-7.26051 24.23858-15.2412 26.6115-21.17317 38.46769-24.56102-.35867 1.15147 7.86683-1.78578 13.86931-2.51948z"/></clipPath></defs><path class="top_primary" id="path33799" d="m276.30107 122.10587c3.19627-5.68597 5.11411-15.63337.10729-24.25983-5.07036.771835-16.48114 3.31532-15.18075 3.62912-17.02586 5.4388-34.24105 15.1486-53.17711 25.70216-7.38656 4.11673-21.98627 19.60524-22.06975 27.30467-.10129 9.34224 15.03244 17.33819 39.92201 39.36161 7.97202 7.05401 27.22718 18.93611 24.32965 27.04708 12.21477-16.33671 13.82714-17.51412 24.42514-30.36177-3.25543-4.05319-11.73539-8.82885-24.57823-15.8014-8.43099-4.5773-17.3944-11.93513-27.07357-18.28063-5.30916-3.4806-3.66143-4.35561.95832-7.26051 24.23858-15.2412 26.6115-21.17317 38.46769-24.56102-.35867 1.15147 7.86683-1.78578 13.86931-2.51948z"/><path class="top_primary_strong_shade" id="path33801" d="m262.3187 124.67844c2.5143-7.02393 4.69401-19.31211-1.32424-23.17716 1.72264.41082 5.70898 6.37875 1.32424 23.17716z"/><g clip-path="url(#clipPath34202)" id="g33837"><g transform="translate(-1.6249742e-6,-2.8235027e-6)" id="g33825" style="display:inline;filter:url(#filter53308-4);opacity:1" clip-path="none"><g id="g33807" style="display:inline;opacity:1"><path class="top_primary_highlight" id="path33803" d="m287.35256 197.69514c-22.90903 5.15253-68.91538-38.50191-56.5119-38.62219 29.32135-6.51464 62.15514 43.69753 56.5119 38.62219z"/><path class="top_primary_highlight" id="path33805" d="m288.65037 195.53566c-22.90903 5.15253-68.91538-38.50191-56.51191-38.62219 29.32136-6.51464 62.15515 43.69753 56.51191 38.62219z"/></g><g id="g33815" style="display:inline;opacity:1"><path class="top_primary_shade" id="path33809" d="m276.57094 222.81708c.84943-.3328-73.37976-67.54194-97.02515-66.40179-16.42424 41.0706 85.92195 98.57977 97.02515 66.40179z"/><path d="m274.57094 226.44208c.84943-.3328-73.37976-67.54194-97.02515-66.40179-16.42424 41.0706 85.92195 98.57977 97.02515 66.40179z" id="path33811" class="top_primary_shade"/><path class="top_primary_shade" id="path33813" d="m272.07094 229.31708c.84943-.3328-73.37976-67.54194-97.02515-66.40179-16.42424 41.0706 85.92195 98.57977 97.02515 66.40179z"/></g><g id="g33823" style="display:inline;opacity:1"><path class="top_primary_highlight" id="path33817" d="m323.35982 96.900801c6.58934 14.076129-31.77136 3.582739-62.90581 14.083379-38.23389 12.89505-100.52572 60.32447-80.83457 25.9192 23.79632-34.43743 133.21155-86.042225 143.74038-40.002579z"/><path d="m323.73482 93.400801c6.58934 14.076129-31.77136 3.582739-62.90581 14.083379-38.23389 12.89505-100.52572 60.32447-80.83457 25.9192 23.79632-34.43743 133.21155-86.042225 143.74038-40.002579z" id="path33819" class="top_primary_highlight"/><path class="top_primary_highlight" id="path33821" d="m321.85982 90.150801c6.58934 14.076129-31.77136 3.582739-62.90581 14.083379-38.23389 12.89505-100.52572 60.32447-80.83457 25.9192 23.79632-34.43743 133.21155-86.042225 143.74038-40.002579z"/></g></g><g transform="rotate(-180,262.66349,237.84322)" style="display:inline;opacity:1" id="g33831"><path d="m349.07422 314.55079c-22.71127 7.78237-41.39217 9.74506-57.056 3.91762l-1.68469 1.07529c15.82561 5.88764 36.73332 6.4461 59.49249-1.35269z" id="path33827" class="top_primary_strong_highlight"/><path id="path33829" d="m348.03566 320.62749c-22.71127 7.78237-41.5549 8.38734-57.21873 2.5599l-.39504-3.5995c15.82561 5.88764 36.64493 6.40191 59.4041-1.39688z" class="top_primary_strong_shade"/></g><path id="path33833" d="m234.96023 159.05342c-9.75086-2.71343-19.2487-3.60092-27.47214-3.55l-.008.1592c8.45424-.0524 17.62259 1.58994 27.01849 5.1421z" class="top_primary_strong_shade"/><path class="top_primary_strong_shade" d="m238.27273 162.36592c-9.75086-2.71343-19.2487-3.60092-27.47214-3.55l-.008.1592c8.45424-.0524 17.62259 1.58994 27.01849 5.1421z" id="path33835"/></g><path d="m272.76555 98.838099c.84927.0052 1.38582.401621 1.19842.885389-.18743.483752-1.02775.871702-1.877.866462-.84926-.005-1.38581-.40162-1.19842-.885382.18733-.483765 1.02776-.871692 1.877-.866469z" id="path4492-94-7-9-2-4-0-9-9" class="top_accent"/><path class="top_accent" id="path34144-0" d="m266.86341 100.04783c.84917-.0138 1.39446.37048 1.21795.85833-.17654.48784-1.00797.89449-1.85712.90828-.84917.0138-1.39446-.37048-1.21795-.85832.17644-.48784 1.00797-.8945 1.85712-.90829z"/></svg>