<svg viewBox="0 0 560 1e3"><defs><filter style="color-interpolation-filters:sRGB" id="filter145901"><feGaussianBlur stdDeviation="4 4" result="blur" id="feGaussianBlur145899"/></filter><clipPath clipPathUnits="userSpaceOnUse" id="clipPath145903"><path d="m360.62447 352.29016c-43.5525 7.44838-89.45193 18.37151-124.95838 10.62177-2.375 20.43241-5.9392 40.48333-12.87046 70.13916-3.86757 16.54764-5.40821 32.57873-6.46016 49.53974-.99679 16.07173.99165 42.20005 1.65569 54.66458.30249 5.67794 8.59897 7.19066 11.38427 7.03615 55.02098-3.75039 109.65737-1.78946 164.02596.33165 2.74364-25.43521 3.24313-47.91758 2.01419-68.1257-.35189-5.78632-.84549-11.38618-1.4687-16.8155.0435-22.47947-7.2262-48.85557-12.41465-64.29686-6.94813-20.67826-14.98353-32.50677-20.90776-43.09499z" id="path145905" style="fill-opacity:.5;fill:#00fff3"/></clipPath></defs><path style="fill:#010101" d="m376.88867 383.11914c.0983.23266.19673.46195.29492.69727 5e-4-.004 96e-5-.009.002-.0137-.0988-.23682-.19801-.44927-.29688-.68359z" id="path38814"/><path d="m229.375 544.29102c55.59071-3.00225 109.71549-1.57777 164.02734.33203-54.36859-2.12111-109.00636-4.08242-164.02734-.33203z" id="path38812" class="shadow"/><path d="m218.42773 458.59961h-.46093c-.96871 7.92344-1.65938 15.88647-2.16211 23.99219-.99679 16.07173 1.0801 42.37531 1.74414 54.83984.30249 5.67794 9.04087 7.01389 11.82617 6.85938-2.7853.15451-11.08228-1.35722-11.38477-7.03516-.66404-12.46453-2.65108-38.59233-1.65429-54.66406.50627-8.16285 1.15451-16.09857 2.09179-23.99219z" id="path38810" class="shadow"/><path d="M393.9082 458.59961H218.42773c-.93757 7.89331-1.58552 15.82934-2.09179 23.99219-.99679 16.07173.99025 42.19953 1.65429 54.66406.30249 5.67794 8.59947 7.18967 11.38477 7.03516 55.02098-3.75039 109.65875-1.78908 164.02734.33203 2.74364-25.43521 3.24262-47.91688 2.01368-68.125-.35189-5.78632-.84554-11.38709-1.46875-16.81641 68e-5-.3542-.0362-.72595-.0391-1.08203z" id="path38807" class="bottoms_primary"/><g id="g38775"><g style="display:inline" id="g38761" transform="translate(3.75,2.2500008)"><path class="bottoms_primary_strong_highlight" id="path38757" d="m253.50002 452.25c30.83333-3.75032 61.66667-3.24196 92.5.0z"/><path d="m345.98278 452.25h-92.62109c38.03877 3.58799 59.3988 1.64951 92.62109.0z" id="path38759" class="bottoms_primary_strong_shade"/></g><g transform="matrix(0.80434663,0,0,0.91940458,62.80851,55.804171)" id="g38767" style="display:inline;stroke-width:1.16285"><path d="m253.50002 452.25c30.83333-3.75032 61.66667-3.24196 92.5.0z" id="path38763" class="bottoms_primary_strong_highlight"/><path class="bottoms_primary_strong_shade" id="path38765" d="m345.98278 452.25h-92.62109c38.03877 3.58799 59.3988 1.64951 92.62109.0z"/></g><g style="display:inline;stroke-width:1.20351" id="g38773" transform="matrix(0.75091575,-0.00763298,0,0.91940458,78.93163,68.929571)"><path class="bottoms_primary_strong_highlight" id="path38769" d="m253.50002 452.25c30.83333-3.75032 61.66667-3.24196 92.5.0z"/><path d="m345.98278 452.25h-92.62109c38.03877 3.58799 59.3988 1.64951 92.62109.0z" id="path38771" class="bottoms_primary_strong_shade"/></g></g><g clip-path="url(#clipPath145903)" style="filter:url(#filter145901)" id="g38781"><path class="bottoms_primary_highlight" id="path38777" d="m350.13744 453.89929c-7.33544 2.81486 3.29582 148.31024 16.17288 155.00028 13.20006 6.85784-14.14133-155.77985-16.17288-155.00028z"/><path d="m350.13744 453.89929c-16.14278 4.21687 1.71617 148.58318 16.17288 155.00028 12.88222 5.71821 2.63517-159.91338-16.17288-155.00028z" id="path38779" class="bottoms_primary_highlight" clip-path="none"/></g></svg>