<svg viewBox="0 0 560 1e3"><path id="path1800" class="shadow" d="m252.24794 87.851267c-1.13687 2.645274-6.14044 11.585875-16.09966 16.313633.064.005 5.22227.38081 8.29456-2.58391-5.34426 3.90728-5.49562 18.58176-3.29992 27.63194.68663-6.90476 3.95123-10.17009 9.6255-10.18716 5.44863 21.53039 13.14175 27.90058 10.13527 48.01843 14.63618-25.18817.0843-39.4535 3.8181-58.22642-2.95294 14.22676 3.81815 18.34505 21.11279 19.1702-18.75868-6.3055-18.18439-15.45156-11.67742-24.02979 6.61915 5.53384 9.17179 8.6696 8.13844 21.50826 2.87879-8.66938 4.4017-15.95291-.0264-23.94855 4.60181-.70351 9.0609-1.22468 13.24637-1.47899.20542 9.85866-.62953 18.41802 8.78124 22.22829-7.76693-4.47255-4.03327-13.11604.20557-21.57268-.0769 9.56283 7.29365 16.37785 7.31115 16.37202.0269.01-1.70668-5.24763 3.58414-13.42544.67576 7.26957 3.51452 18.4879 11.10138 17.85561-5.81745-2.65696-4.70778-9.0825-3.57123-12.7119 2.77456 3.00705 5.60099.0765 8.18901 3.36818-6.29863 12.33899 4.04246 17.53323-1.71924 38.15569 12.47299-20.05132 9.14047-28.22364 9.35597-25.96754-.58069 11.43244 7.69194 11.05865 14.6621 29.15227-2.13864-18.96925-11.14982-36.06904-1.55693-46.31717 3.32621 3.35173.30664 9.63251.30694 9.63251 3.18937-5.08732 5.93389-12.03138-1.22236-22.591314 2.47276.835703 5.69119-1.876942 5.67703-1.990207-.0154.591043-9.1047-1.089804-10.71289-12.479758-6.72252-10.285346-14.12978-8.015858-20.54471-9.984927 6.23807.06739 8.53105-3.122705 8.51686-3.151083-17.90786 1.365493-27.19526-14.478236-44.13502-5.567255-8.10684-.507366-14.18187.355908-19.27144 7.130407-4.77808.971587-10.5158 4.083939-12.21377 10.970282-1.0881.991109-7.39481 3.751387-14.45192 13.965866 4.15336-3.580789 9.37976-5.101034 8.44052-5.259494z"/><path d="m252.24794 87.851267c-.96052 2.704059-5.64352 11.751516-16.09966 16.313633.0.0 4.03128.28156 8.29456-2.58391-5.07301 4.10103-5.36534 18.67481-3.29992 27.63194.6688-6.98502 3.86138-10.57443 9.6255-10.18716 6.00939 21.64254 13.3869 27.94961 10.13527 48.01843 13.55475-25.18817-.46211-39.4535 3.8181-58.22642-2.67998 14.07078 4.12804 18.16797 21.11279 19.1702-19.55073-6.2395-18.28832-15.4429-11.67742-24.02979 6.89861 5.53384 9.47546 8.6696 8.13844 21.50826 2.74298-8.72031 3.91426-16.1357-.0264-23.94855 4.31985-.96378 8.80138-1.46424 13.24637-1.47899.46387 9.89097-.58619 18.42344 8.78124 22.22829-7.79939-4.47951-4.51784-13.21988.20557-21.57268.1274 9.49472 7.31115 16.37202 7.31115 16.37202s-2.19736-5.42287 3.58414-13.42544c.94867 7.23925 3.59301 18.47918 11.10138 17.85561-5.99502-2.6731-4.9839-9.1076-3.57123-12.7119 2.92323 2.73449 5.70019-.10535 8.18901 3.36818-5.94376 12.13621 4.26425 17.40649-1.71924 38.15569 11.99178-20.14756 9.09871-28.23199 9.35597-25.96754-.44553 11.39382 7.95963 10.98217 14.6621 29.15227-2.68582-19.03005-11.66307-36.12607-1.55693-46.31717 3.52936 3.35173.30694 9.63251.30694 9.63251 3.0793-5.12735 5.21747-12.29189-1.22236-22.591314 2.43101.501678 5.67703-1.990207 5.67703-1.990207-.0718.605141-9.67706-.946715-10.71289-12.479758-7.39693-9.948141-14.1874-7.987047-20.54471-9.984927 6.09505-.218646 8.51686-3.151083 8.51686-3.151083-18.10109 1.586325-27.5723-14.047336-44.13502-5.567255-7.96307-.219831-14.09272.534207-19.27144 7.130407-4.5012 1.094643-10.26256 4.196488-12.21377 10.970282-.94277 1.115678-7.13478 3.974269-14.45192 13.965866 4.28041-4.088984 9.41938-5.259494 8.44052-5.259494z" class="hair" id="path1521"/></svg>