<svg viewBox="0 0 560 1e3"><path d="m342.42713 163.49241c-.73609-4.10476-.81277-3.8555-.80418-3.85979.0586.0.9668 3.66634-1.90203 13.67755.002-4.93435-.46563-7.08865-.40926-7.08865-.42661 2.45237-1.07122 4.86114-2.00118 7.21284-.17864.0596-.87253-8.6997-2.36313-12.11531-.0857 12.45573-4.08762 11.16405-8.15382 27.84975-1.20771-8.93468-3.12354-17.5111-10.3615-21.79354-.51076 9.28714-3.16997 18.82068-5.50555 28.2989-.33247-7.66643-.68165-15.10756-4.04292-22.3501-3.41858 11.6889-2.63242 21.90923-3.37763 32.63108-7.69557-10.82578-11.6826-24.27219-11.56512-24.31625.003-.001-1.01723 4.81655-.47737 13.32661-4.97957-9.01997-8.20604-18.19237-8.1658-18.19684.002-87e-5.58 4.49214 1.73544 10.06693-3.02743-2.93947-2.78987-4.28114-3.82411-6.07813-.0684-.008.77007 1.47744 1.39029 5.41992-6.9933-12.17645-8.07493-12.62213-10.52384-22.97368.50772 9.52419.38557 7.23816 1.41357 16.46521-11.97986-25.71784-43.38141-99.38074 11.96742-112.069623 79.6559-20.799771 60.21867 92.469533 56.97072 95.893123z" class="shadow" id="path1844"/><path id="path1692" class="hair" d="m342.42713 163.49241c-.38125-4.28218-.80418-3.85979-.80418-3.85979s.61523 3.66634-1.90203 13.67755c.31196-4.93435-.40926-7.08865-.40926-7.08865l-2.00118 7.21284s-.75141-8.74007-2.36313-12.11531c-.22156 12.44063-4.39081 11.13036-8.15382 27.84975-1.02435-9.03946-2.95453-17.60768-10.3615-21.79354-.81629 9.1853-3.30249 18.77651-5.50555 28.2989-.24395-7.6775-.39104-15.14389-4.04292-22.3501-3.69516 11.6889-2.74285 21.90923-3.37763 32.63108-7.42378-10.9277-11.56512-24.31625-11.56512-24.31625s-1.43982 5.00437-.47737 13.32661c-4.61582-9.06039-8.1658-18.19684-8.1658-18.19684s.20189 4.63393 1.73544 10.06693c-2.75457-2.97845-2.74333-4.28779-3.82411-6.07813-.069-.008.42507 1.47744 1.39029 5.41992-6.75316-12.29652-7.91578-12.70171-10.52384-22.97368.4982 9.52514-.0609 7.28281 1.41357 16.46521-10.7425-26.61774-42.81958-98.846887 11.96742-112.069623 77.3128-20.018738 60.19197 92.478433 56.97072 95.893123z"/></svg>