<svg viewBox="0 0 560 1e3"><path id="path5399" class="shadow" d="m285.40123 448.94099s-1.67464 5.40465-.69373 7.83675c.74696 1.85198 2.52759 4.05625 4.52062 3.93117 1.92675-.12093 3.23431-2.491 3.86084-4.31705.81869-2.38612-.519-7.55016-.519-7.55016s.0802.77039.11768 1.84903c-.11944.003-2.65252-24e-5-2.65252-24e-5-.10417.14351-.18318.29506-.005.52875.0.0 2.47093-.006 2.67135-.01.0278 1.72731-.0894 3.97797-.76995 5.23764-.55281 1.02308-1.5848 2.14004-2.74763 2.14966-1.2985.011-2.47615-1.21463-3.1075-2.34937-.66659-1.19808-.79771-3.34886-.78421-5.00781.31662.0 2.29279-.0314 2.29279-.0314l.0708-.53294s-2.03465-.008-2.35378-.008c.0283-1.01022.0997-1.72711.0997-1.72711z"/><path d="m285.71719 449.47161s-1.5224 4.91332-.63066 7.12432c.67905 1.68362 2.29781 3.6875 4.10965 3.57379 1.75159-.10993 2.94028-2.26454 3.50986-3.92459.74426-2.1692-.47182-6.86378-.47182-6.86378s.0729.70035.10698 1.68094c-.10858.003-2.41138-22e-5-2.41138-22e-5-.0947.13046-.16653.26823-.005.48068.0.0 2.2463-.005 2.4285-.009.0253 1.57028-.0813 3.61634-.69996 4.76149-.50255.93007-1.44072 1.94549-2.49784 1.95424-1.18046.01-2.25105-1.10421-2.825-2.13579-.60599-1.08917-.72519-3.04442-.71292-4.55256.28784.0 2.08435-.0285 2.08435-.0285l.0644-.48449s-1.84968-.007-2.1398-.007c.0257-.91838.0906-1.5701.0906-1.5701z" class="steel_piercing" id="XMLID_525_-3-62-4"/><path transform="rotate(41.517924)" d="m517.66855 149.21064h7.3005v7.30051h-7.3005z" id="XMLID_542_" class="smart_piercing"/></svg>