<svg viewBox="0 0 560 1e3"><path d="m257.9291 106.09219c-.19133-.0554-2.9316 20.06637 7.31403 35.72092l1.2243 1.66065c-1.0829-2.32949-1.59392-4.89291-2.54128-7.42183.59713 1.08477 1.16635.9431 1.767 1.00595-.78883-1.50187-1.95045-2.87782-2.33322-4.64904.54248.17604 1.10893.40897 1.45152-.54409-.74503-1.60123-1.2827-3.22443-1.6482-4.86777.4416.44485.15755.63606.87018.19913-.30577-2.8814-1.28828-7.29117-1.08235-8.64893.30773.48617.61821.29966.98826-.31398.20896-3.75337.35878-7.18569 1.31829-10.30654-.16645 1.41258-.19192 2.78556.74567 4.05426.31931-2.93001.85793-5.71643 1.92528-8.06648.30682 1.20113.62632 2.40082 2.03109 3.21587.64977-3.03472 1.62294-5.75505 3.39306-7.710822.18461 1.492342.70077 2.841392 2.32632 3.777832.56266-2.63176 1.46593-5.186218 3.35799-7.648123.006 2.011255 1.18198 3.533641 2.99614 4.796803.31223-1.741219.45261-3.524766 1.5581-5.087975.37974 1.56741 1.58666 2.715238 4.02664 3.242071 1.06483-1.987104 1.90021-4.047156 3.75035-5.799213.0109 1.964078 1.76048 3.329215 4.48858 4.128202 1.48861-1.509028 3.53959-2.817938 3.67916-4.808874 1.74996 1.119058 3.09148 2.551986 4.30027 4.108084 1.48646-.948679 2.60722-2.044503 2.81784-3.467529.96067 1.141819 1.93284 2.292258 2.38154 3.762186 1.73153-.465567 2.89407-1.311757 3.03223-2.832939 1.04024 1.093809 2.02314 2.257469 2.32609 4.150576 1.91739-.183832 2.181-1.39483 2.46879-2.543759 1.08375 1.444497 1.63528 3.120311 1.90186 4.92097 1.25184.21524 1.81967-.745651 1.97168-2.072767.62613 1.627097 1.84433 2.771787 1.45372 5.479337.63533-.26651 1.26752-.57484 1.07086-1.71862.43597 1.68689 1.24132 3.26727 1.14726 5.31687.48364-.47133.59389-1.16629.39158-2.09463.47434 1.74464.69999 3.36521.88175 5.03529.37208-.58229.79199-1.07987.66618-1.97567-.003 1.53244.10467 3.06487.22437 4.59731.42098-.59521.707-1.21259.65467-2.05091.24715 1.6627.17111 3.36068.1896 5.06453.0476.64638.24021 1.23834.45209 1.8231.47209-.45453.57369-.93775.52728-1.43381.0586 1.55949.25949 3.05527.2042 4.59115.43847-.31761.40048-.77294.42885-1.18558.15694 1.27396.19877 2.60743.2242 4.02794.30822 1.56352.7166 3.10199 1.19132 4.62388.26004-.52413.57333-1.00033.63651-1.70163-.0369 1.33702-.0838 2.67504.0816 3.99182.46088 1.51424 1.13046 2.88934 1.77109 4.28375.39524-1.05136.8384-2.08675 1.05646-3.19717 11.90069-21.27589 7.00195-64.195469-37.5191-61.322495-15.65245-1.109698-36.68517 5.581542-38.54171 35.892695z" class="shadow" id="path1728"/><path id="path1717" class="hair" d="m257.9291 106.09219c-.007.006-1.97567 20.38501 7.31403 35.72092l1.2243 1.66065c-1.10711-2.32949-1.79314-4.89291-2.54128-7.42183.62095.84654 1.184.76662 1.767 1.00595-.93454-1.48366-2.13701-2.8545-2.33322-4.64904.52732.12299 1.04691.1919 1.45152-.54409-.88984-1.58675-1.5469-3.19801-1.6482-4.86777.45664.29442.18353.37621.87018.19913-.52127-2.6659-1.42219-7.15726-1.08235-8.64893.35307.36829.67669.14762.98826-.31398.025-3.66975.33847-7.17646 1.31829-10.30654-.0544 1.37896-.0959 2.75675.74567 4.05426.2328-2.94443.69913-5.7429 1.92528-8.06648.39239 1.17546.74775 2.36439 2.03109 3.21587.59247-3.07292 1.55541-5.80007 3.39306-7.710822.30776 1.430762.78432 2.799622 2.32632 3.777832.53632-2.64932 1.37507-5.246793 3.35799-7.648123.14111 1.937462 1.27409 3.483398 2.99614 4.796803.26667-1.769696.3381-3.596335 1.5581-5.087975.45789 1.532677 1.69497 2.667101 4.02664 3.242071 1.01846-2.01029 1.78624-4.10414 3.75035-5.799213.0885 1.929566 1.86922 3.280887 4.48858 4.128202 1.44492-1.525413 3.42384-2.861344 3.67916-4.808874 1.86112 1.054215 3.2297 2.471357 4.30027 4.108084 1.44759-.96034 2.45275-2.090843 2.81784-3.467529 1.0588 1.098207 2.02213 2.252575 2.38154 3.762186 1.67284-.502914 2.73401-1.413613 3.03223-2.832939 1.11987 1.053994 2.14954 2.19427 2.32609 4.150576 1.869-.197658 2.0868-1.421744 2.46879-2.543759 1.12659 1.426136 1.73345 3.078236 1.90186 4.92097 1.23123.20751 1.68979-.794357 1.97168-2.072767.71793 1.600868 1.89588 2.757057 1.45372 5.479337.60707-.27862 1.16002-.62091 1.07086-1.71862.59248 1.65559 1.27676 3.26018 1.14726 5.31687.42286-.5408.50965-1.26256.39158-2.09463.63988 1.67843.72087 3.35686.88175 5.03529.28783-.60101.68913-1.10273.66618-1.97567l.22437 4.59731c.39693-.62407.63258-1.3019.65467-2.05091.29253 1.6627.2675 3.36068.1896 5.06453l.45209 1.8231c.38638-.45453.51462-.93775.52728-1.43381.16555 1.50601.36084 3.00459.2042 4.59115.34432-.32807.30713-.78331.42885-1.18558.1847 1.26933.28877 2.59243.2242 4.02794l1.19132 4.62388.63651-1.70163.0816 3.99182 1.77109 4.28375 1.05646-3.19717c10.71484-22.20048 5.99108-64.270356-37.5191-61.322495-15.38241-.812657-36.14212 6.178893-38.54171 35.892695z"/></svg>