<svg viewBox="0 0 560 1e3"><path d="m352.83394 345.64275c-4.44072-10.25826-10.06176-20.39053-16.36519-29.75798-3.67025-5.45431-7.57179-10.64931-11.60638-15.45891 2.51644 15.68453.61113 25.51327 27.97157 45.21689z" id="path16052-4-4-16" class="top_primary"/><path d="m282.80909 265.97185-9.36685-.33269c-3.26386 49.27996-4.52897 69.12497 4.85228 144.93462 1.29185-.13744 2.60206-.29255 3.92978-.46452 1.44125-.18667 2.87806-.38417 4.3109-.59429-4.12386-49.46153-7.77907-98.66061-3.72611-143.54312z" id="path16052-4-9-82" class="top_primary"/><path class="top_primary" id="path19291" d="m250.81445 277.18359c-1.93653 8.63989-21.92189 21.64953-37.66601 46.81055-11.35146 18.14102-20.49781 42.59845-19.08712 76.2907 7.51504 5.4428 51.46031 11.86872 71.759 11.04524z"/><path d="m194.06055 400.28516c.0864.0626-.12823.0445-.0352.11132 8.23247 5.91215 51.00303 12.19655 71.06836 11.36329l-.0449-.41602c-20.60365.64506-63.56231-5.6803-70.98828-11.05859z" id="path19293" class="shadow"/><g transform="translate(5.6174022e-6)" style="display:inline;opacity:1" id="g24010-1-4-5-5-8-8"><g style="display:inline;opacity:1" id="g8259-4-4-3-8-6-4-05"><path d="m257.87279 315.73948c-.24179.82398-1.00662 1.32935-1.70843 1.12874-.70177-.20065-1.07474-1.0312-.83301-1.85518.24178-.82397 1.00662-1.32935 1.70842-1.12875.70177.20066 1.07474 1.0312.83302 1.85519z" id="path4492-4-55-06-1-5-2-3-2" class="top_accent"/><path d="m241.49304 347.36029c-.0179.88193-.66112 1.58203-1.4367 1.56372-.77558-.0183-1.3898-.74808-1.37191-1.63001.0179-.88193.66112-1.58203 1.4367-1.56372.77557.0183 1.3898.74808 1.37191 1.63001z" id="path4492-94-7-6-6-1-8-1-7" class="top_accent"/><path d="m277.72573 282.05885c.0554.8804-.5767 1.6367-1.41183 1.68924-.83512.0525-1.55704-.61855-1.61243-1.49895-.0554-.8804.5767-1.6367 1.41183-1.68924.83512-.0526 1.55704.61855 1.61243 1.49895z" id="path4492-94-7-9-2-4-0-0-3-31" class="top_accent"/><path d="m234.63371 378.87303c-.0451.85754-.67256 1.52581-1.40172 1.49263-.72914-.0332-1.28376-.75526-1.23876-1.61279s.67256-1.52581 1.40171-1.49263c.72914.0332 1.28376.75526 1.23877 1.61279z" id="path4492-4-55-06-9-0-7-7-4-4" class="top_accent"/></g><path style="display:inline;fill-opacity:1;fill:none;opacity:1;stroke-dasharray:none;stroke-dashoffset:0;stroke-linecap:butt;stroke-linejoin:miter;stroke-miterlimit:4;stroke-opacity:1;stroke-width:.453543;stroke:#343434;vector-effect:none" d="m281.09647 265.87108c-.0192.15669-.0382.31336-.0571.47003-.4884 4.0453-.69349 7.9683-.95392 13.66193-.71552 15.64299-8.56665 23.52418-17.10417 33.35567-21.21589 25.02109-29.12021 64.19902-26.22616 96.42945" id="path16108-6-7-9-1-5"/><path style="display:inline;fill-opacity:1;fill:none;opacity:1;stroke-dasharray:none;stroke-dashoffset:0;stroke-linecap:butt;stroke-linejoin:miter;stroke-miterlimit:4;stroke-opacity:1;stroke-width:.453543;stroke:#7f7f7f;vector-effect:none" d="m274.91569 265.62602c-.045.40699-.0885.81406-.13067 1.22132-.40982 3.96175-.7157 7.82301-.89644 12.02294-.61176 14.21528-10.65972 22.51277-20.19281 33.76499-12.02634 14.01706-17.34882 31.7395-20.96089 47.2784-1.56247 6.8376-2.90372 14.42835-3.61658 22.30537-.78393 8.66232-.95153 17.58449-.4504 26.48583" id="path16110-1-5-2-8-2"/></g></svg>