<svg viewBox="0 0 560 1e3"><defs><filter style="color-interpolation-filters:sRGB" id="filter33085"><feGaussianBlur stdDeviation="2 2" result="blur" id="feGaussianBlur33083"/></filter><clipPath clipPathUnits="userSpaceOnUse" id="clipPath33087"><path style="fill-opacity:.48506153;fill:#00e0e8" id="path33089" d="m416.34015 137.87596c27.19781.73794 6.76862 2.55782-8.23561-1.90481-12.93847-3.90325-22.17008-11.8098-32.16663-14.92538-27.21775-8.48286-35.15592-5.52718-35.15592-5.52718-4.43404-.99709-8.59402-1.23228-8.1843-1.25056-2.51009.47312-4.29552 1.78509-6.17593 2.9871-4.50142 4.17994-8.35339 10.0525-13.57388 12.35835-1.86742 1.32643-4.6509 1.27068-6.42427 1.56556-3.17523 1.49929-5.84837 5.36864-10.25413 1.05927-.56736-.68182-.85844-1.80974-1.17931-2.88952-2.40238-.47006-4.81155-.45831-7.22331-.265-2.2793-2.88904-4.539-5.79859-5.29842-10.2787-.26857-2.7479-.67956-5.50083 1.73934-8.15351-.23326-3.18411 1.20628-5.72923 3.36731-7.9988.31255-3.064215 1.08954-5.971585 4.81868-7.881954.11652-2.52493.88382-2.643795 1.40361-3.677788 8.70196-.809319 17.4938-1.580034 33.40821.707292.86624-.406652 1.55594-.886827 2.97187-1.064521 1.97166.503435 2.26133 2.699256 4.17997 2.916577.0.0 11.28571-1.354883 28.23967 2.846153 21.50866 5.329651 36.63325 6.513511 50.90227 11.342701 15.63351 5.29098 29.05276 12.30963 35.49429 28.83661 3.29595 8.45637-8.6973 18.99285-12.5715 20.29065-7.2367 5.35747-46.31131 39.41941-72.2799 58.06348-.96906 8.75577-.54078 11.07961-3.36964 21.87094-11.12304-2.0731-20.03076-45.4356-20.03076-45.4356 3.13687-5.26914 14.04976-13.48866 22.24901-18.61451 6.35608-3.97357 14.1103-5.30921 20.52656-9.18485 11.91046-7.19433 15.85835-11.28231 32.82272-25.792z"/></clipPath></defs><path id="path3228" class="shadow" d="m416.96515 136.81346c32.11702-.95542 12.44417 5.83226-8.86061-.84231-13.17517-3.55885-22.10975-11.35491-32.16663-14.92538-26.00796-7.28693-35.18199-5.36422-35.15592-5.52718-5.7001-.621-8.60045-1.23038-8.1843-1.25056-2.1832.69779-4.14081 1.89142-6.17593 2.9871-4.21706 4.76934-8.18639 10.39866-13.57388 12.35835-1.92294 1.53597-4.68187 1.38752-6.42427 1.56556-3.17523 1.49929-6.0303 5.71999-10.25413 1.05927-.71753-.67242-1.08803-1.79537-1.17931-2.88952-2.44492-.27198-4.8582-.24109-7.22331-.265-2.49592-2.52948-4.91084-5.18137-5.29842-10.2787-.57251-2.93616-1.19034-5.8172 1.73934-8.15351-.63334-3.27898.8596-5.81144 3.36731-7.9988.0414-3.142308.47692-6.148001 4.81868-7.881954-.35575-2.53162.83749-2.644437 1.40361-3.677788 8.67897-.933389 17.44184-1.860384 33.40821.707292.76908-.432375 1.18909-.984061 2.97187-1.064521 2.02588.323394 2.29331 2.593018 4.17997 2.916577.017-.122533 11.07469-.519229 28.23967 2.846153 22.33718 4.993821 38.1414 6.556701 50.90227 11.342701 15.98778 2.32201 35.44598 17.35468 35.9125 31.34547.25313 7.59105-9.11293 16.51703-12.98971 17.78179-6.90871 5.56547-44.3556 39.86919-72.2799 58.06348-.7002 9.13287-.10078 10.74565-2.89629 20.82773-11.42113-1.91438-27.03119-39.56658-26.93196-39.61942 8.12889-3.15008 13.68165-10.49055 19.97602-16.62467 6.29362-1.56423 11.88648-5.46072 17.60239-8.94768 24.72621-14.49206 27.79345-19.88621 45.07272-33.85449z"/><path d="m416.34015 137.87596c27.19781.73794 6.76862 2.55782-8.23561-1.90481-12.93847-3.90325-22.17008-11.8098-32.16663-14.92538-27.21775-8.48286-35.15592-5.52718-35.15592-5.52718-4.43404-.99709-8.59402-1.23228-8.1843-1.25056-2.51009.47312-4.29552 1.78509-6.17593 2.9871-4.50142 4.17994-8.35339 10.0525-13.57388 12.35835-1.86742 1.32643-4.6509 1.27068-6.42427 1.56556-3.17523 1.49929-5.84837 5.36864-10.25413 1.05927-.56736-.68182-.85844-1.80974-1.17931-2.88952-2.40238-.47006-4.81155-.45831-7.22331-.265-2.2793-2.88904-4.539-5.79859-5.29842-10.2787-.26857-2.7479-.67956-5.50083 1.73934-8.15351-.23326-3.18411 1.20628-5.72923 3.36731-7.9988.31255-3.064215 1.08954-5.971585 4.81868-7.881954.11652-2.52493.88382-2.643795 1.40361-3.677788 8.70196-.809319 17.4938-1.580034 33.40821.707292.86624-.406652 1.55594-.886827 2.97187-1.064521 1.97166.503435 2.26133 2.699256 4.17997 2.916577.0.0 11.28571-1.354883 28.23967 2.846153 21.50866 5.329651 36.63325 6.513511 50.90227 11.342701 15.63351 5.29098 29.05276 12.30963 35.49429 28.83661 3.29595 8.45637-8.6973 18.99285-12.5715 20.29065-7.2367 5.35747-46.31131 39.41941-72.2799 58.06348-.96906 8.75577-.54078 11.07961-3.36964 21.87094-11.12304-2.0731-20.03076-45.4356-20.03076-45.4356 3.13687-5.26914 14.04976-13.48866 22.24901-18.61451 6.35608-3.97357 14.1103-5.30921 20.52656-9.18485 11.91046-7.19433 15.85835-11.28231 32.82272-25.792z" class="skin arm" id="path3230"/><path d="m295.18882 129.21753c5.34665-3.49364 4.94695-6.10534 5.3092-7.81066-.937 2.89145-1.33607 3.38261-5.3092 7.81066z" class="shadow" id="path3234"/><path d="m300.37099 121.58603c-4.87738-.98168-4.57091-.48934-6.46034.11744 1.79618-.32021 1.5622-.45178 6.46034-.11744z" class="shadow" id="path3236"/><path d="m304.25086 124.04729c-3.73519-3.29389-7.7306-6.63208-10.0306-6.82802 2.14005.77849 6.26034 4.08751 10.0306 6.82802z" class="shadow" id="path3242"/><path d="m293.91881 121.74899c-2.2385-.52137-2.5242-.52537-4.84179-.25747 2.24964.0618 2.53867.0349 4.84179.25747z" class="shadow" id="path3244"/><path d="m293.8827 123.52006c-1.50826 1.75414-2.66361 2.30138-4.6134 3.12696 2.46702-.46549 3.21838-1.14883 4.6134-3.12696z" class="shadow" id="path3246"/><path d="m294.93289 112.54791c-4.05406-2.84524-8.44042-1.75817-10.74039-1.95411 2.22191.51402 6.97014-.78639 10.74039 1.95411z" class="shadow" id="path3248"/><path d="m296.36587 104.19814c-3.97505-2.90663-6.59037-1.31213-8.89036-1.50807 2.2402.3267 5.12011-1.23244 8.89036 1.50807z" class="shadow" id="path3250"/><path d="m299.03763 96.545358c-4.03843-2.845022-4.24231-1.560849-6.5423-1.756785 2.22279.451523 2.77205-.983725 6.5423 1.756785z" class="shadow" id="path3252"/><path d="m415.57013 138.34367c4.33424-2.83585 8.46725 1.10257 16.32437-3.88923-8.00202 4.48396-11.55736.31819-16.32437 3.88923z" class="shadow" id="path3232"/><g id="g33081" style="filter:url(#filter33085)" clip-path="url(#clipPath33087)"><g id="g32981" style="display:inline" transform="translate(2.1396059e-6)"><path d="m354.99167 175.28988c22.53795 7.93705 42.29722-12.34221 43.03764-24.46114-18.58641-.95137-41.05575 10.69219-43.03764 24.46114z" id="path32922" class="arm_highlight"/><path class="arm_highlight" id="path32924" d="m352.82616 172.15209c22.53795 7.93705 42.29722-12.34221 43.03764-24.46114-18.58641-.95137-41.05575 10.69219-43.03764 24.46114z"/></g><g id="g32947" style="display:inline" transform="translate(2.1396059e-6)"><path d="m284.95116 99.777087c9.74421 3.431563 45.79721-2.743741 81.9454 3.344963 47.46103 7.99422 102.29694 42.07325 99.34225 16.8189C460.78052 84.687071 247.33451 58.822042 284.95116 99.777087z" id="path32926" class="arm_highlight"/><path class="arm_highlight" id="path32928" d="m285.20116 96.027087c9.74421 3.431563 45.79721-2.743741 81.9454 3.344963 47.46103 7.99422 102.29694 42.07325 99.34225 16.8189C461.03052 80.937071 247.58451 55.072042 285.20116 96.027087z"/><path d="m284.57616 92.652087c9.74421 3.431563 45.79721-2.743741 81.9454 3.344963 47.46103 7.99422 102.29694 42.07325 99.34225 16.8189C460.40552 77.562071 246.95951 51.697042 284.57616 92.652087z" id="path32931" class="arm_highlight"/></g><g id="g32942" style="display:inline"><path d="m363.20116 237.15209c22.53795 7.93705 94.54722-80.09221 95.28764-92.21114-10.80655-3.24519-39.78107 17.13223-65.63245 35.07565-23.59165 16.37494-41.2004 20.87832-29.65519 57.13549z" id="path32933" class="arm_shade"/><path class="arm_shade" id="path32935" d="m367.70116 238.65209c22.53795 7.93705 93.92222-79.21721 94.66264-91.33614-10.80655-3.24519-39.15252 16.26234-65.00745 34.20065-23.63617 16.39892-46.80432 24.16203-29.65519 57.13549z"/><path d="m370.45116 239.90209c22.53795 7.93705 93.92222-79.21721 94.66264-91.33614-10.80655-3.24519-39.15252 16.26234-65.00745 34.20065-23.63617 16.39892-46.80432 24.16203-29.65519 57.13549z" id="path32937" class="arm_shade"/></g><g id="g32977" style="display:inline" transform="translate(2.1396059e-6)"><path class="arm_shade" id="path32937-7" d="m427.33427 137.21629c-6.10362 5.37566-16.19814 8.54097-28.40036 10.04928-4.02407-12.52976-38.3608-24.4459-100.86831-10.88709-20.09403-5.99128-31.78553-12.92222-23.86271-17.49833 10.80654-3.24519 69.34995-14.71123 104.63244-3.54935 11.89688 3.76367 20.99869 8.70217 27.22387 11.40799 8.54043 3.71216 24.70678 7.67388 21.27507 10.4775z"/><path d="m421.30372 137.91061c-6.10362 5.37566-16.59589 5.97771-28.79811 7.48602-4.02407-12.52976-33.0575-19.45196-95.56501-5.89315-20.09403-5.99128-31.78553-12.92222-23.86271-17.49833 10.80654-3.24519 69.34995-14.71123 104.63244-3.54935 11.89688 3.76367 20.99869 8.70217 27.22387 11.40799 8.54043 3.71216 19.80123 5.2432 16.36952 8.04682z" id="path32964" class="arm_shade"/><path class="arm_shade" id="path32966" d="m418.20997 138.41061c-6.10362 5.37566-17.72089 3.35271-29.92311 4.86102-4.02407-12.52976-29.08875-15.57696-91.59626-2.01815-20.09403-5.99128-31.78553-12.92222-23.86271-17.49833 10.80654-3.24519 69.34995-14.71123 104.63244-3.54935 11.89688 3.76367 20.99869 8.70217 27.22387 11.40799 8.54043 3.71216 16.95748 3.9932 13.52577 6.79682z"/></g></g></svg>