<svg viewBox="0 0 560 1e3"><path id="path25926" d="m239.72656 907.41016c.34008 1.31351-.0334 35.87519.0469 36.92578.14435 1.88905-1.00688 3.76792-4.50782 5.08203-3.61859 1.35828-8.63481 2.90461-9.68164.79492-9.38869 2.35742-18.52692 6.04-28.03125 8.10742-8.48797 1.84634-14.65945 4.4321-25.77929 3.8125-9.8959-.55141-15.00016-1.16007-14.57032-8.63672.25521-4.43864-.33342-30.64023-.0117-35.52734l-.10547-.68359c-.16518 2.50928-.40713 10.9027-.33203 18.61914.075 7.71643.15513 15.41468.0312 17.56836-.11021 1.91695.13016 3.43542.74804 4.64062s1.61262 2.07076 2.9043 2.67774c2.58336 1.21396 6.35999 1.4838 11.3125 1.75976 11.19314.62369 17.44281-1.98228 25.89258-3.82031 9.47533-2.06111 18.54843-5.69865 27.82226-8.04883.36143.46055.86719.78091 1.48438.90039.75259.1457 1.62955.0981 2.57617-.0527 1.89325-.30158 4.06676-1.03561 5.88672-1.71875 1.79786-.67485 3.02873-1.50587 3.79883-2.45313s1.0599-2.01325.98047-3.05273c-.001-.016-.006-.23567-.008-.54492-.002-.30926-.003-.73429-.002-1.25782.002-1.04706.008-2.48738.0176-4.1914.0184-3.40806-.0626-7.86942-.0421-12.33789.0973-6.50318-.0451-11.17036-.21177-16.72851-.0113-.53862-.0247-.98005-.041-1.3125-.10998-.35723.01-.61366-.16992-.94142z" class="shadow"/><path style="fill-opacity:1;fill:#795b45" id="path25741" d="m235.26656 949.41776c3.50094-1.31411 4.6512-3.19251 4.50685-5.08156-.0803-1.05059.29388-35.613-.0462-36.92651-1.53087 4.31615-7.85477 3.66931-15.97542 6.34573-2.13073.70225-4.65237.85565-7.02435 1.56553-22.29812 6.67335-53.21298 13.37735-59.5355 2.64825-.32171 4.88711.26721 31.08728.012 35.52592-.42984 7.47665 4.67383 8.08691 14.56973 8.63832 11.11984.6196 17.29084-1.96729 25.77881-3.81363 9.50433-2.06742 18.64253-5.74874 28.03122-8.10616 1.04683 2.10969 6.06424.56239 9.68283-.79589z"/><path id="path25919" style="display:inline;fill-opacity:1;fill:#000;opacity:1" d="m404.1038 930.94074c.39852 11.76072-.005 19.87394-.014 29.14324-.0145 15.85368-7.04185 14.85378-22.26757 14.76368-8.47165-.0501-13.71558-.77003-13.73438-7.625.13502-13.56703-.93001-22.27319.28616-36.71618.0809-2.09132.20772-3.01373-.32585-.043-1.22008 14.48952-.34121 23.2199-.47593 36.75329-2e-5.003-2e-5.005.0.008.01 3.55885 1.48744 5.72662 4.00585 6.83398 2.51842 1.10737 5.99045 1.27954 10.24024 1.30469 7.60205.045 13.19789.36364 17.06055-1.45117 1.93132-.90741 3.40146-2.38808 4.34179-4.62109.94034-2.23302 1.3811-5.20554 1.38477-9.20704.009-9.24849.41331-17.37547.014-29.16082.27724-5.28899-.29379-.57741-.51563.0174z"/><path id="path25839-6" d="m368.19726 930.48437c-1.21617 14.443.0257 23.17163-.10932 36.73866.0188 6.85497 5.26273 7.57487 13.73438 7.625 15.22572.0901 22.25304 1.09001 22.26757-14.76367.009-9.2693.57745-17.39481.17893-29.15553-2.89738 11.99786-10.07565 15.02103-20.19904 15.02294-5.40344-.14401-11.27305-.74311-14.12749-6.0481-.41526-.77175-.9542-1.62747-1.23112-2.61149-.15488-.55041-.099-1.15169-.20533-1.77488-.24945-1.46136-.36037-3.12916-.30858-5.03293z" style="display:inline;fill-opacity:1;fill:#795b45;opacity:1"/></svg>