<svg viewBox="0 0 560 1e3"><path class="shadow" id="path1796" d="m309.69307 97.65617c-17.4674-1.204639-25.4308 1.644362-36.16819 4.11569-.68003.0694-4.23105.97759-4.61142.86607 1.30915-.0859 1.38463-.84993 1.79541-1.23573-.59338-.0515-3.18368 1.17982-4.30919 1.05469.71359-.17669.91897-1.36908.90981-1.42157-.64987-.005-2.13797 1.39599-4.39802 1.39922.56662-.29106-.59356-.45916-1.61309-.36171-.33267-1.17402-1.77827-10.716878-1.66288-10.716878.0411-.02351 1.41393 1.33787 2.62874 2.036298.0465-1.356947-.65787-6.95987-.0834-8.238226.0131 1.726882.98178 2.683342 1.84777 3.003499.34939-1.354546 1.70899-8.504441 2.69342-9.792634-.68727 1.361666.35317 3.283134 1.05233 3.910535.85309-1.275177 4.47656-7.895821 5.99977-9.005718-.68317.865843-.24969 2.360332.45554 3.339084 1.89973-1.69551 7.33581-6.910625 9.98442-7.73019-1.29807.670437-1.42423 2.480578-1.29445 3.568105 2.01406-.907847 11.23667-5.245425 13.94334-5.514426-1.61184.466575-2.21351 1.645167-2.07998 3.218871 3.47306-.550899 16.27769-1.943806 19.86634-1.225144-2.87382.102291-3.91037 1.662458-4.25189 2.643461 3.3576.307421 18.52325 4.29018 20.85226 5.605272-3.16427-.704476-7.36201-.311871-7.82812.392727 1.72391.815389 13.17558 7.834721 14.09859 9.103109-1.52344-1.055356-5.21954-1.913664-7.23933-1.815917 2.09269 2.60075 9.00221 17.188672 9.32433 20.682252-.58176-2.10303-3.71936-7.150209-5.66374-7.520508-.30151.242836.22145 1.465174.55147 1.942155-1.44561-.267194-6.40156-3.13381-6.88678-4.034918.35373.637004.58313 1.430424 1.22174 1.654983-1.35757.235461-5.14516-.191863-6.72537-1.350775-.0542.247243.87189 2.273199 2.1583 2.389433-1.05732.276563-7.27001-.738695-9.7834-1.533585.01.199902.60945 1.172429 2.03967 1.298771-2.64339.629993-4.41634.07421-6.82398-.726287z"/><path d="m309.69307 97.65617c-17.37586-2.120034-25.41574 1.493793-36.16819 4.11569-.47841-.0516-4.1493.92854-4.61142.86607 1.42837-.0859 1.55789-.84993 1.79541-1.23573-.87421-.12174-3.37014 1.13321-4.30919 1.05469.82987-.19607 1.1481-1.40727.90981-1.42157-.76096-.0457-2.62442 1.2191-4.39802 1.39922.94231-.45804-.466-.51585-1.61309-.36171.0-1.17402-1.66288-10.716878-1.66288-10.716878s1.08606 1.525225 2.62874 2.036298c.30509-1.356947-.58608-6.95987-.0834-8.238226-.0568 1.740861.77245 2.725209 1.84777 3.003499.64286-1.39647 1.8062-8.518328 2.69342-9.792634-.74512 1.390593.0862 3.416617 1.05233 3.910535 1.07459-1.275177 4.66705-7.895821 5.99977-9.005718-.72972.904639-.52345 2.588469.45554 3.339084 2.12596-1.393868 7.45598-6.750392 9.98442-7.73019-1.37352.683011-1.68065 2.523315-1.29445 3.568105 2.25579-.756764 11.46628-5.10192 13.94334-5.514426-1.6692.482964-2.53104 1.73589-2.07998 3.218871 3.50849-.232022 16.3006-1.737588 19.86634-1.225144-2.92418-.06557-4.03046 1.262169-4.25189 2.643461 2.70475.699132 18.35415 4.391638 20.85226 5.605272-3.19823-.908232-7.38666-.459771-7.82812.392727 1.30998.96591 12.95417 7.915235 14.09859 9.103109-1.63457-1.134733-5.85679-2.368843-7.23933-1.815917 1.66096 2.654716 8.7825 17.216132 9.32433 20.682252-.57672-2.11564-3.61976-7.399215-5.66374-7.520508-.48776.296049-.004 1.529588.55147 1.942155-1.14866-.394459-6.30994-3.173076-6.88678-4.034918.24198.637004.40367 1.430424 1.22174 1.654983-1.04773.04956-4.86607-.359315-6.72537-1.350775-.14014.284063.57145 2.401961 2.1583 2.389433-.8921.15855-7.02602-.912975-9.7834-1.533585-.17058.299994.27003 1.360996 2.03967 1.298771-2.4806.467202-4.17031-.171814-6.82398-.726287z" id="path3172-2" class="hair"/></svg>