<svg viewBox="0 0 560 1e3"><g data-transform="boob_outfit" id="g22281"><path d="m337.67662 310.89073a37.311413 29.12985.0 01-37.3115 29.12987 37.311413 29.12985.0 01-37.31145-29.12987 37.311413 29.12985.0 0137.31145-29.12979 37.311413 29.12985.0 0137.3115 29.12979z" id="path22095-06-8-9-7-6" class="bra_primary"/><path d="m298.47437 307.25306-.396 27.57551c-1.63118.14871-2.91924.60571-3.80347 1.42636-.5011 2.44284-.38349 4.57634-.47524 6.81463-3.90392 3.005-3.65753 4.97248-4.38228 7.18263.0.0-1.43296 36.77582-3.21711 55.08053-.38392 3.9395-1.60989 11.76502-1.60989 11.76502 1.00859.32372 1.42383-.68197 3.02573-1.45681 1.60407-.77593 1.8972 1.63245 3.44269 1.54564 1.21525-.0684 2.17432-2.70147 3.21935-2.56383 1.93158.25459 2.7464 2.69926 4.69304 2.62269 1.84488-.0721.85599-3.07082 2.74151-3.08223 1.71993-.0108 2.24979 2.97058 3.94377 3.26793 2.89974.50907 2.10978-4.38539 4.87399-3.37204 1.66938.61198 3.69118 4.11929 4.65578 3.30642-1.03499-2.79646-2.14458-4.3533-2.70822-10.90134l-4.88048-56.69197c-.67535-2.53782-1.76362-4.66275-3.28417-6.35547-.0325-2.55873.11695-5.1175-.47621-7.67624-1.17463-.674-2.18926-.85002-4.09869-.93615l.40242-27.51126z" id="path22113-4-5-4-0-5" class="bra_accent"/><path class="bra_primary" id="path85877" d="m185.08057 328.53329c-2.86413 15.831-21.62407 25.69058-41.90144 22.02196-3.66284-.66268-7.12464-1.72145-10.32164-3.1049.55508-33.72065 13.73415-43.35824 29.01756-51.92796 15.65813 5.91378 25.65825 19.45373 23.20552 33.0109z"/><path class="bra_accent" id="path22115-7-6-2-4-6" d="m143.38207 314.24694-.40132 27.94509c-1.65309.15068-2.95839.61379-3.85453 1.44542-.50778 2.47554-.38864 4.63766-.48154 6.90593-3.95624 3.04522-3.70657 5.03905-4.44102 7.27885.0.0-1.4521 37.26859-3.26026 55.81859-.389 3.99232-1.63138 11.92266-1.63138 11.92266 1.02212.32799 1.44295-.69119 3.06626-1.47639 1.62557-.78633 1.92261 1.65437 3.48884 1.5664 1.23148-.0695 2.20349-2.73771 3.26248-2.59824 1.95737.25801 2.78312 2.73542 4.75592 2.65785 1.8696-.0735.86747-3.11194 2.77824-3.12351 1.74301-.0111 2.27991 3.01036 3.99659 3.31168 2.93859.51589 2.13808-4.44411 4.9393-3.41718 1.69178.62016 3.74069 4.17454 4.71815 3.35067-1.0488-2.83391-2.17325-4.41157-2.74449-11.04736l-4.9459-57.45155c-.68439-2.57186-1.78722-4.7253-3.32815-6.44065-.0326-2.59301.11848-5.18604-.48254-7.77913-1.1905-.68297-2.21861-.8614-4.15367-.94859l.40789-27.87991z"/></g></svg>