<svg viewBox="0 0 560 1e3"><defs><clipPath clipPathUnits="userSpaceOnUse" id="clipPathTorsoUnnatural"><path style="display:inline;fill-opacity:1;fill:#0ff;opacity:1" d="m330.55078 146.24219-33.94726 3.49414c-.60023 11.74644 4.71263 22.22405 4.14257 32.1582-3.83498 2.97182-5.98164 3.47574-13.82226 5.20313-.50811.12713-.99038.25932-1.45703.39453-3.72264.82253-9.04126 2.01096-14.32032 3.34179-8.65971 10.94361-15.77788 17.65645-24.83789 40.22852-7.97663 19.22419-2.76622 39.20128 6.8418 56.00977-1.06764 11.32585-1.52592 26.55771 1 35.50195-11.37059 21.52353-15.89766 23.525-18.09766 43.625-1.1 10.1-2.23134 20.37109-6.00781 40.87109 1.79918 21.68192 24.06434 28.08621 33.55274 33.19727 14.43169 10.04215 15.75568 13.80686 22.99414 21.73047 2.40278 1.2769 6.48148.50653 7.11523-.33399l1.04492-.0117c1.31243 1.17872 7.86741 1.71406 11.33008.17774 1.25908-5.51105 3.06526-22.40357 25.5332-37.0293 9.99479-6.9207 28.66489-25.38486 47.28125-34.05664-9.1-20.7-12.62221-28.06668-19.58398-39.49609-3.8841-8.49646-20.35167-24.94928-20.57812-24.78321.17394-.53763-12.86413-13.70783-12.93165-15.85937 2.56898-6.32141 6.07277-31.48998 8.07422-32.87695 17.10876-11.85604 23.08422-25.51867 27.05078-41.16602-.3269-2.17434-.47181-3.26841-.6582-5.75-1.66961-10.3676-2.48045-23.52968-5.33008-34.10742.025-10.96207 3.83399-17.95313 3.83399-17.95313-3.25954-.78952-9.49632-1.47902-12.42774-1.80664.0206-.0319.042-.0618.0625-.0937-7.39171-1.56131-16.05124-2.24254-15.85742-30.60937z" id="path13423"/></clipPath><clipPath clipPathUnits="userSpaceOnUse" id="clipPathTorsoHourglass"><path style="display:inline;fill-opacity:1;fill:#f0f;opacity:1" d="m330.55078 146.24219-33.94726 3.49414c-.60023 11.74644 4.71263 22.22405 4.14257 32.1582-3.83498 2.97182-5.98164 3.47574-13.82226 5.20313-.56276.1408-1.09742.28682-1.60938.4375-3.67844.81605-7.62914 1.65042-14.16797 3.29882-8.65971 10.94361-15.77788 17.65645-24.83789 40.22852-5.87551 18.9358-2.9645 38.67948 2.8418 56.00977-1.06764 11.32585-1.52592 26.55771 1 35.50195-11.37059 21.52353-11.89766 23.525-14.09766 43.625-1.1 10.1-2.23134 20.37109-6.00781 40.87109 1.79918 21.68192 24.06434 28.08621 33.55274 33.19727 14.43169 10.04215 15.75568 13.80686 22.99414 21.73047 1.37693.26708 4.09368 1.61095 7.06445-.26758l1.11133-.0781c1.17404 1.57274 8.90177 1.53055 11.31445.17774 1.25908-5.51105 3.06526-22.40357 25.5332-37.0293 9.99479-6.9207 28.66489-25.38486 47.28125-34.05664-9.1-20.7-12.62221-28.06668-19.58398-39.49609-3.8841-8.49646-20.35168-24.94928-20.57812-24.78321.17394-.53763-7.38366-13.70783-7.45118-15.85937 2.56898-6.32141 6.52259-31.00027 8.07422-32.87695 3.11188-3.76379 5.69391-7.22683 7.88672-10.51954 7.0161-10.53536 10.04592-19.32698 13.68359-30.64648-.3269-2.17434-.47181-3.26841-.6582-5.75-1.66961-10.3676-2.48045-23.52968-5.33008-34.10742.025-10.96207 3.83399-17.95313 3.83399-17.95313-4.4617-1.08069-8.62379-1.33294-12.38086-1.87695.005-.008.0105-.0154.0156-.0234-7.39171-1.56131-16.05124-2.24254-15.85742-30.60937z" id="path13449"/></clipPath><clipPath clipPathUnits="userSpaceOnUse" id="clipPathTorsoNormal"><path style="display:inline;fill-opacity:1;fill:#f9ff00;opacity:1" d="m330.55078 146.24219-33.94726 3.49414c-.60023 11.74644 4.71263 22.22405 4.14257 32.1582-3.83498 2.97182-5.98164 3.47574-13.82226 5.20313-.58083.14532-1.12952.29729-1.65625.45312-3.72076.82535-7.55904 1.62893-14.1211 3.2832-8.65971 10.94361-15.77788 17.65645-24.83789 40.22852-5.87551 18.9358-2.9645 38.67948 2.8418 56.00977-1.06764 11.32585-1.52592 26.55771 1 35.50195-11.37059 21.52353-11.89766 23.525-14.09766 43.625-1.1 10.1-2.23134 20.37109-6.00781 40.87109 1.79918 21.68192 24.06434 28.08621 33.55274 33.19727 14.43169 10.04215 15.75568 13.80686 22.99414 21.73047.78119.55861 4.78693 1.49428 7.05664-.26758l1.14258-.0781c1.51181 1.59807 9.57688 1.45961 11.29101.17774 1.25908-5.51105 3.06526-22.40357 25.5332-37.0293 9.99479-6.9207 28.66489-25.38486 47.28125-34.05664-9.1-20.7-12.62221-28.06668-19.58398-39.49609-23.58113-57.47054-9.98057-57.2743 1.61523-114.68555-.3269-2.17434-.47181-3.26841-.6582-5.75-1.66961-10.3676-2.48045-23.52968-5.33008-34.10742.025-10.96207 3.83399-17.95313 3.83399-17.95313-4.46045-1.0804-8.62863-1.32705-12.38672-1.86914.007-.0108.0146-.0205.0215-.0312-7.39171-1.56131-16.05124-2.24254-15.85742-30.60937z" id="path13552"/></clipPath><clipPath clipPathUnits="userSpaceOnUse" id="clipPath65823"><path id="path65825" class="shadow torso" d="m131.74321 573.69194 315.75864-8.79774c13.0539 8.0333 2.38259-383.9505 7.79017-388.03777l-85.55784 2.24903c-15.5475-3.91931-39.04027 2.7738-39.27246-32.77588l-33.94646 3.49567c-.60044 11.74636 4.52731 21.84761 4.14186 32.15688-5.80032 4.30093-13.259 4.44692-29.51965 8.86728l-133.98159-.0572z"/></clipPath><filter style="color-interpolation-filters:sRGB" id="filter13632"><feGaussianBlur stdDeviation="4 4" result="blur" id="feGaussianBlur13630"/></filter><clipPath clipPathUnits="userSpaceOnUse" id="clipPath65823-9"><path id="path65825-7" class="shadow torso" d="m131.74321 573.69194 315.75864-8.79774c13.0539 8.0333 2.38259-383.9505 7.79017-388.03777l-85.55784 2.24903c-15.5475-3.91931-39.04027 2.7738-39.27246-32.77588l-33.94646 3.49567c-.60044 11.74636 4.52731 21.84761 4.14186 32.15688-5.80032 4.30093-13.259 4.44692-29.51965 8.86728l-133.98159-.0572z"/></clipPath><filter style="color-interpolation-filters:sRGB" id="filter13632-3"><feGaussianBlur stdDeviation="4 4" result="blur" id="feGaussianBlur13630-2"/></filter><clipPath clipPathUnits="userSpaceOnUse" id="clipPath20675"><path d="m232.87501 280.12497c15.56544 6.85375 19.54278 15.11844 27.01701 18.0087 2.52422 1.62458 3.82765 1.51846 11.4846 1.49516 8.09303-.0246 9.68574-.0741 11.36626-.0452 10.1033-4.8534 16.89574-20.2445 31.13213-19.89617 6.2611.1532 11.87052-.92263 16.80423-2.88047 3.05277-30.95044 5.74109-47.13456 11.5144-69.25046-3.06957-3.0408-6.3592-5.28043-9.58039-6.29207-20.11587-6.63352-37.92522.2584-57.4081-1.78446-17.68153 5.51295-16.86315 14.91084-32.40336 20.37849-4.96818 1.22398-19.28353 7.05834-24.08525 16.59858-7.29187 14.48778-1.72618 36.6736 14.15847 43.6679z" id="path20677" style="fill-opacity:.5;fill:teal"/></clipPath><clipPath clipPathUnits="userSpaceOnUse" id="clipPath20679"><path clip-path="none" id="path20681" d="m269.6931 219.47947c-105.51399 2.35364-72.22238 3.92641-86.37805 4.26444-19.0712 23.58917-1.60802 91.09007-1.60802 91.09007l35.1582 4.11524c7.0001.76766 21.21802 3.36581 31.7168 5.82812 8.67752 2.03517 18.07607 3.16667 27.39063 2.51368 15.00757-1.05212 32.25342-3.76493 47.46875-6.81446 13.26047-2.65772 23.74715-4.8667 36.72461-5.16601 4.32581-.0998 8.92766.0118 14.00195.39062l47.72461-6.5625c6.19586-1.49448-2.5148-111.39746 3.66414-113.25045-43.36889 6.5615-90.18201 22.12614-155.86362 23.59125z" style="fill-opacity:.5;fill:#098080"/></clipPath><clipPath clipPathUnits="userSpaceOnUse" id="clipPath20749"><path id="path20751" d="m344.3457 176.36914c-14.62958 18.46411-49.43217 45.13234-63.16211 43.28711-9.0211-43.70583-24.84623-35.67157-85.14062-21.19141-19.0712 23.58917-14.33594 116.36914-14.33594 116.36914l35.1582 4.11524c7.0001.76766 21.21802 3.36581 31.7168 5.82812 8.67752 2.03517 18.07607 3.16667 27.39063 2.51368 15.00757-1.05212 35.4354 8.60944 50.65073 5.55991 13.26047-2.65772 22.33294-4.33637 35.3104-4.63568 4.32581-.0998 7.15989-12.8929 12.23418-12.51408l47.72461-6.5625c6.19586-1.49448-3.22191-107.15482 2.95703-109.00781-2.78172-17.50024-55.92615-17.97523-69.07031-22.32422-5.63691-.66054-6.71023-.76494-11.4336-1.4375z" style="fill-opacity:.5;fill:#098080"/></clipPath></defs><g style="display:inline" id="g58883" clip-path="url(#clipPath65823-9)"><g id="g58881" data-transform="boob_outfit" style="display:inline"><path d="m285.28817 180.62194c-4.71063 5.73681-31.51917 28.8182-47.03228 41.22439 1.41687-.59847 4.0396-1.64545 5.24866-2.11922 5.50143-3.88712 12.52318-7.92837 18.5375-13.03283 13.25314-11.24818 25.80589-22.54577 26.82865-24.83669z" id="path58875" class="top_primary bra_strap2"/><path class="top_primary bra_strap1" id="path58877" d="m284.59768 178.02885c-7.25387 5.76513-34.75587 33.52985-47.20584 44.20947 1.02367-.44221 4.15615-1.79067 5.30004-2.23288 4.77591-3.79982 9.85909-7.39618 15.18224-12.37457 10.26542-9.60058 28.48181-25.66691 30.38868-28.9312z"/><path class="top_primary bra_strap3" id="path58879" d="m288.57955 183.03777c-7.09029 5.87744-33.38539 26.64887-51.62567 39.39186 1.91157-.83193 3.80058-1.67138 5.88221-2.44663 5.79728-4.00338 12.77729-7.07396 19.19362-11.98364 11.35545-8.68902 22.67592-17.01004 30.07064-23.8165z"/></g></g><g id="g58901" clip-path="url(#clipPath20749)"><g clip-path="none" data-transform="bra_trans_b" id="g58891" style="display:inline"><path class="top_primary bra_strap1" id="path58885" d="m352.47266 157.12695c-2.0234 16.63702-7.21631 27.27087-12.5625 37.97071-5.3462 10.69983-10.88168 21.50293-12.73438 37.46093-37.18031 19.60829-27.35537 64.10066-18.98116 101.30143l30.7546-7.36197c-8.13247-36.12688-7.35554-78.6087-5.6582-93.22852 1.72892-14.89192 6.7618-24.68215 12.12695-35.41992 5.36515-10.73777 11.0264-22.38589 13.16601-39.97852z"/><path class="top_primary bra_strap2" id="path58887" d="m352.47266 157.12695c-2.04107 16.78231-6.28662 28.981-10.56641 41.0586s-8.60735 24.05408-10.44141 39.85156c-33.39219-4.90951-31.32661 57.93305-22.91666 95.29258l30.40104-6.83164c-8.09673-35.96811-3.14228-72.47725-1.36914-87.75 1.74756-15.05246 5.84135-26.40636 10.1289-38.50586 4.28756-12.09951 8.75306-24.92375 10.875-42.3711z"/><path class="top_primary bra_strap3" id="path58889" d="m352.47266 157.12695c-4.10218 33.72948-14.92921 52.60675-18.57618 84.01953-35.82405-16.24012-33.95531 55.08713-25.52508 92.53676l30.57782-7.18519c-8.07645-35.87802-.75169-68.99936 1.06445-84.64258 3.51628-30.28707 14.34647-49.25456 18.57031-83.98438z"/></g><g data-transform="bra_trans_a" id="g58899"><path class="top_primary bra_strap2" id="path58893" d="m233.08398 275.7793-1.88476 3.52929c10.33973 5.52261 18.95811 20.24248 20.89258 34.30469 1.1215 8.15253.59057 16.13132-2.14258 21.66016l3.58594 1.77148c3.29972-6.67494 15.95956-21.20087 14.76953-29.85156-2.09597-15.23619-23.16364-24.97421-35.22071-31.41406z"/><path class="top_primary bra_strap1" id="path58895" d="m239.94922 265.01758-1.97656 3.47656c3.97273 2.26028 7.40265 9.76671 9.62695 18.69336s3.48104 19.0755 4.49219 26.42578c1.1215 8.15253.59057 16.13132-2.14258 21.66016l3.58594 1.77148c3.29972-6.67494 25.45956-22.32587 24.26953-30.97656-1.00408-7.29892-2.26418-17.57887-4.57422-26.84961s-27.18058-10.73022-33.28125-14.20117z"/><path class="top_primary bra_strap3" id="path58897" d="m229.21484 281.90039-1.88476 3.52734c11.00867 5.8799 22.88459 14.54023 24.76172 28.18555 1.1215 8.15253.59057 16.13132-2.14258 21.66016l3.58594 1.77148c3.29972-6.67494 21.33456-23.95087 20.14453-32.60156-2.15332-15.65307-33.07672-16.4604-44.46485-22.54297z"/></g></g><path d="m252.7168 258.98438c2.73193 13.84975 2.81696 49.01221 2.10742 67.06445 6.85969 1.19324 14.02719 1.74142 21.14844 1.24219 14.57179-1.02157 31.23852-3.61183 46.12304-6.55274l-1.48242-70.57226z" id="path58903" class="top_primary"/><g clip-path="url(#clipPath20679)" id="g58959" style="display:inline"><g style="display:inline;mix-blend-mode:normal" id="g58957" data-transform="boob_outfit" clip-path="none"><path id="path58905" d="m232.87501 280.12497c15.56544 6.85375 19.54278 15.11844 27.01701 18.0087 2.52422 1.62458 3.82765 1.51846 11.4846 1.49516 8.09303-.0246 9.68574-.0741 11.36626-.0452 10.1033-4.8534 16.89574-20.2445 31.13213-19.89617 6.2611.1532 11.87052-.92263 16.80423-2.88047 3.05277-30.95044 5.74109-47.13456 11.5144-69.25046-3.06957-3.0408-6.3592-5.28043-9.58039-6.29207-20.11587-6.63352-37.92522.2584-57.4081-1.78446-17.68153 5.51295-16.86315 14.91084-32.40336 20.37849-4.96818 1.22398-19.28353 7.05834-24.08525 16.59858-7.29187 14.48778-1.72618 36.6736 14.15847 43.6679z" class="top_primary"/><g id="g58927"><g transform="matrix(2.6967083,0.05891276,-0.44603976,0.88261107,-358.38607,41.170686)" style="display:inline;stroke-width:.644635;stroke:none" id="g58915"><path class="top_primary_strong_highlight" d="m257.78463 231.41908 25.46538-1.91912c-1.75833-1.43306-8.91975-1.9852-14.375-1.125-5.21054.7236-7.94775 1.92284-11.09038 3.04412z" id="path58907"/><path class="top_primary_strong_shade" id="path58909" d="m257.77115 231.41459 25.46476-1.92729c-1.52315 1.68089-8.52041 3.30234-14.04298 3.27122-5.26011.0672-8.14639-.70736-11.42178-1.34393z"/><path class="top_primary_strong_shade" d="m261.35088 231.14146 18.93637-1.43319c-1.13266 1.24996-6.33604 2.45572-10.44279 2.43258-3.91157.05-6.0579-.52602-8.49358-.99939z" id="path58911"/><path class="top_primary_strong_highlight" id="path58913" d="m280.36534 229.70219-18.93637 1.43319c1.13266-1.24996 6.33604-2.45572 10.44279-2.43258 3.91157-.05 6.0579.52602 8.49358.99939z"/></g><g transform="matrix(2.2993528,0.04081446,-0.38031654,0.61146839,-266.47753,100.54926)" style="display:inline;stroke-width:.838737;stroke:none" id="g58925"><path class="top_primary_strong_highlight" d="m257.78463 231.41908 25.46538-1.91912c-1.75833-1.43306-8.91975-1.9852-14.375-1.125-5.21054.7236-7.94775 1.92284-11.09038 3.04412z" id="path58917"/><path class="top_primary_strong_shade" id="path58919" d="m257.77115 231.41459 25.46476-1.92729c-1.52315 1.68089-8.52041 3.30234-14.04298 3.27122-5.26011.0672-8.14639-.70736-11.42178-1.34393z"/><path class="top_primary_strong_shade" d="m261.35088 231.14146 18.93637-1.43319c-1.13266 1.24996-6.33604 2.45572-10.44279 2.43258-3.91157.05-6.0579-.52602-8.49358-.99939z" id="path58921"/><path class="top_primary_strong_highlight" id="path58923" d="m280.36534 229.70219-18.93637 1.43319c1.13266-1.24996 6.33604-2.45572 10.44279-2.43258 3.91157-.05 6.0579.52602 8.49358.99939z"/></g></g><g id="g58937" style="filter:url(#filter13632-3)" clip-path="url(#clipPath20675)"><path d="m270.67765 238.2501c20.65734-1.41297 46.35182-8.9235 57.03575-10.77131 7.60197-1.31478 14.7106-3.0271 17.83602-2.44986 17.52916 3.23751 14.80574-1.70922-2.92171-11.41438-6.26703-3.43098-32.90621-2.50559-40.56413-2.31026-10.31541.26311-31.86115 2.84169-41.83384 3.64574-16.41381 1.32336-31.61743 9.5306-37.31389 11.99825 18.36475 15.45066 24.5992 12.88616 47.7618 11.30182z" id="path58929" class="top_primary_highlight"/><path class="top_primary_highlight" id="path58931" d="m270.92765 232.6251c20.65734-1.41297 42.47682-7.7985 53.16075-9.64631 12.40269-1.67309 35.41667.25519 13.53931-8.11424-6.26703-3.43098-31.28121 1.11941-38.93913 1.31474-10.31541.26311-38.23615 4.09169-48.20884 4.89574-16.41381 1.32336-18.86743-.9694-24.56389 1.49825 18.36475 15.45066 21.8492 11.63616 45.0118 10.05182z"/><path class="top_primary_shade" id="path58933" d="m202.71307 257.65989c-1.1245 12.47637 18.32508 23.5252 27.04959 26.37844 13.47365 4.40639 44.96513-.32749 49.49736-.54362 17.71589-.84482 39.91542 1.55475 51.47236-1.0085 23.5121-5.21483 27.43362-24.94393 29.32364-34.19187 3.16523-15.48755-7.5998-14.2938-33.94279.69796-5.40858 3.46712-22.94455 5.45375-49.62888 6.23504-26.8559.78631-63.82297-5.81599-74.14628-19.31741z"/><path d="m202.71307 257.65989c4.2505 3.35137 19.45008 17.0252 28.17459 19.87844 13.47365 4.40639 44.84013.29751 49.37236.0814 17.71589-.84482 37.41542.42975 48.97236-2.1335 23.5121-5.21483 22.43362-11.81893 24.32364-21.06686 3.16523-15.48756-2.2248-14.04381-28.56779.94796-5.40858 3.46711-22.94455 5.45374-49.62888 6.23503-26.8559.78631-62.69797-5.19098-73.02128-18.69241z" id="path58935" class="top_primary_shade"/></g><g transform="matrix(-0.51251014,0.26357184,0.2634415,0.51166189,328.83547,168.04658)" style="stroke-width:1.73639;stroke:none" id="g58939"/><g transform="matrix(1.233083,0,0,1.233083,-72.575419,-74.417995)" style="display:inline;stroke-width:.810975" id="g58953"><g id="g58945" style="stroke-width:.551534"><path id="path58941" d="m314.76435 249.09669c-.36404 1.48643-1.67517 2.08222-3.38065 1.66452-4.94027-2.02185 3.994-3.9641 3.38065-1.66452z" class="top_primary_strong_shade"/><path d="m308.95482 247.31348c.36405-1.48643 2.04174-2.3528 3.74722-1.9351 4.94565 1.92801-4.04228 3.98008-3.74722 1.9351z" id="path58943" class="top_primary_strong_highlight"/></g><g id="g58951" style="display:inline;stroke-width:.810975" transform="rotate(26.197764,242.87155,70.374699)"><path id="path58947" d="m323.87031 235.27842c-.33036 1.39469-1.55402 1.96201-3.15424 1.58297-4.64113-1.85832 3.71228-3.74097 3.15424-1.58297z" class="top_primary_strong_shade"/><path class="top_primary_strong_highlight" id="path58949" d="m318.97801 233.52009c.3572-1.37108 1.92207-2.15031 3.49519-1.74046 4.55214 1.85201-3.79613 3.62955-3.49519 1.74046z"/></g></g><path id="path58955" d="m242.80273 219.85936c-4.34318.72398-19.72171 6.74491-24.52343 16.28515-7.29187 14.48778-1.53895 38.11117 14.5957 43.98047-15.88465-6.9943-21.45007-29.18019-14.1582-43.66797 4.80172-9.54024 19.11775-15.37367 24.08593-16.59765z" class="shadow"/></g></g><g id="g58965" select_clip="torso" select_clip_options="clip-path=url(#clipPathTorsoUnnatural) url(#clipPathTorsoHourglass) url(#clipPathTorsoNormal)" style="display:inline;opacity:1"><path d="m363.64258 314.74609c-1.11903-.002-2.21738.0102-3.29883.0352-12.97746.29931-23.46414 2.5083-36.72461 5.16602-15.21533 3.04953-32.46118 5.76233-47.46875 6.81445-9.31456.65299-18.7131-.4785-27.39062-2.51367-10.49878-2.46231-24.7167-5.06047-31.7168-5.82813l-.0371.54688c7.04362.78474 21.14012 3.36295 31.57617 5.81054 8.67752 2.03517 18.07607 3.16667 27.39063 2.51368 15.00757-1.05212 32.25342-3.76493 47.46875-6.81446 13.26047-2.65772 23.74715-4.8667 36.72461-5.16601 4.32581-.0998 8.92766.0118 14.00195.39062l-.67969 16.59766c-19.21985-1.43501-30.49956 1.06543-48.25 4.62305-15.49341 3.10526-33.01541 5.87443-48.625 6.96874-10.47149.73412-20.75327-.53535-30.12109-2.73242-10.06237-2.35996-24.50593-4.96251-30.58203-5.63281l-.041.61914c6.05519.66404 20.54107 3.27411 30.62305 5.63867 9.36782 2.19707 19.6496 3.46653 30.12109 2.73242 15.60959-1.09431 33.13159-3.86349 48.625-6.96874 17.75044-3.55762 29.03015-6.05806 48.25-4.62305l.85742-17.75195c-3.80571-.28415-7.34604-.41875-10.70312-.42579z" id="path58961" class="top_primary_strong_shade"/><path class="top_primary" id="path58963" d="m360.16602 315.31139c-12.97746.29931-23.46414 2.50829-36.72461 5.16601-15.21533 3.04953-32.46118 5.76234-47.46875 6.81446-9.31456.65299-18.71311-.47851-27.39063-2.51368-10.49878-2.46231-24.7167-5.06046-31.7168-5.82812l-.99609 16.56863c6.05519.66404 20.54107 3.27411 30.62305 5.63867 9.36782 2.19707 19.6496 3.46653 30.12109 2.73242 15.60959-1.09432 33.13159-3.86349 48.625-6.96875 17.75044-3.55762 29.03015-6.05805 48.25-4.62304l.67969-16.59598c-5.07429-.37886-9.67614-.49039-14.00195-.39062z"/></g></svg>