<svg viewBox="0 0 560 1e3"><path d="m391.80078 156.69531c-6.41677 3.91916-13.61102 7.12809-20.23242 10.62696-4.64694 2.45553-11.35514 6.81771-15.06641 9.77539 1.78495-1.38218 3.91483-2.49259 6.23828-4.22852 8.68983-6.49246 22.45628-11.58279 28.87305-15.50195 6.13911 13.4642 12.99414 32.66015 12.99414 32.66015-8.82769 7.30202-18.38633 12.01792-35.78125 27.21485-3.35166 8.74564-5.52942 14.02878-8.35351 24.79492.0147.007.0199.0172.0371.0234 2.82886-10.79133 5.27336-15.75009 8.6289-24.50586 15.29087-13.38823 17.1087-12.99525 35.75-27.46485.0.0-5.93231-19.93033-13.08789-33.39453zm-35.87109 20.86328c-.0913.0757-.20855.16308-.29492.23633.0.0.01.0269.01.0274.0959-.0866.18674-.17981.28516-.26368zm4.38476 64.16211c-.002.15689.0398.24154.12305.29297-.0428-.0951-.0807-.19709-.12305-.29297z" id="path4462" class="shadow"/><path d="m404.60733 190.02705c-8.82769 7.30202-18.38557 12.01771-35.78049 27.21464-3.35554 8.75577-5.53582 14.03962-8.36468 24.83095-9.44367-20.89982-7.21335-61.21192-7.21335-61.21192 2.03068-3.88863 5.49159-5.00339 9.49206-7.99227 8.68983-6.49246 22.45491-11.58148 28.87168-15.50064 6.13911 13.4642 12.99478 32.65924 12.99478 32.65924z" id="path3230-1" class="top_primary"/><path d="m384.06445 161.27734-.45117.21094c6.02487 14.47925 13.37242 34.28685 13.39453 34.25001l.52344-.36525c-.0368.0-7.47318-19.88149-13.4668-34.0957z" id="path4464" class="top_accent"/><g id="g93019"><path class="top_primary_shade" d="m399.69383 176.26921 4.89732 13.8302c-9.98627 7.68375-26.37091 19.55183-35.58883 27.35494-5.67228 14.84737-6.68321 18.00584-8.5845 24.79445-1.70127-2.62549-3.78624-9.42547-3.03277-11.9018 2.03727-5.33081-2.70875-20.47776 5.43588-33.69287 9.40793-15.26487 32.25284-21.70284 36.8729-20.38492z" id="path97117"/><path id="path97115" d="m400.88133 179.45671 3.70982 10.6427c-9.98627 7.68375-26.37091 19.55183-35.58883 27.35494-5.67228 14.84737-6.68321 18.00584-8.5845 24.79445-1.70127-2.62549-3.47688-7.61351-2.72341-10.08984 2.03727-5.33081-1.64311-20.85222 6.50152-34.06733 9.40793-15.26487 32.06534-19.95284 36.6854-18.63492z" class="top_primary_shade"/><path class="top_primary_shade" d="m401.61053 181.57802 2.98062 8.52139c-9.98627 7.68375-26.37091 19.55183-35.58883 27.35494-5.67228 14.84737-6.68321 18.00584-8.5845 24.79445-1.70127-2.62549-3.11228-6.27664-2.35881-8.75297 2.03727-5.33081-1.07021-20.37659 7.07442-33.5917 9.40793-15.26487 31.85704-19.64403 36.4771-18.32611z" id="path92794-9-02-2"/><path id="path93006" d="m402.63447 184.26855 1.95668 5.83086c-9.98627 7.68375-26.37091 19.55183-35.58883 27.35494-5.67228 14.84737-6.68321 18.00584-8.5845 24.79445-1.70127-2.62549-2.74768-4.78509-1.99421-7.26142 2.03727-5.33081.42457-20.86814 8.5692-34.08325 9.40793-15.26487 31.0216-17.9535 35.64166-16.63558z" class="top_primary_shade"/><path class="top_primary_shade" d="m403.36368 187.20746 1.22747 2.89195c-9.98627 7.68375-26.37091 19.55183-35.58883 27.35494-5.67228 14.84737-6.68321 18.00584-8.5845 24.79445-1.70127-2.62549-2.46042-3.05047-1.70695-5.5268 2.03727-5.33081 1.63991-20.12789 9.78454-33.343 9.40793-15.26487 30.24821-17.48946 34.86827-16.17154z" id="path93008"/><path id="path93010" d="m394.60589 197.47993c-9.98627 7.68375-16.38565 12.17131-25.60357 19.97442-5.67228 14.84737-6.68321 18.00584-8.5845 24.79445-1.70127-2.62549-1.98386-1.41766-1.23039-3.89399 2.03727-5.33081 3.73153-19.43748 11.65173-32.78831 7.131-12.0205 28.30613-12.08797 23.76673-8.08657z" class="top_primary_shade"/><path class="top_primary_shade" d="m390.49524 200.572c-9.98627 7.68375-12.275 9.07924-21.49292 16.88235-5.67228 14.84737-6.68321 18.00584-8.5845 24.79445-1.70127-2.62549-1.58542.0745-.83195-2.4018 2.03727-5.33081 4.23934-18.99217 12.15954-32.343 7.131-12.0205 20.85856-8.54691 18.74983-6.932z" id="path93012"/></g></svg>