<svg viewBox="0 0 560 1e3"><path d="m239.37456 391.23566c0 1.10235-1.23611 2.33846-2.33846 2.33846s-2.33846-1.23611-2.33846-2.33846 1.23611-2.33846 2.33846-2.33846 2.33846 1.23611 2.33846 2.33846z" id="path5479" class="shadow"/><path d="m240.12456 403.23566c0 1.10235-1.23611 2.33846-2.33846 2.33846s-2.33846-1.23611-2.33846-2.33846 1.23611-2.33846 2.33846-2.33846 2.33846 1.23611 2.33846 2.33846z" id="path5481" class="shadow"/><path class="steel_piercing" id="path2749-8-0-6" d="m239.16197 391.23566c0 1.00214-1.12373 2.12587-2.12587 2.12587s-2.12587-1.12373-2.12587-2.12587 1.12373-2.12587 2.12587-2.12587 2.12587 1.12373 2.12587 2.12587z"/><path class="steel_piercing" id="path2749-8-6-0" d="m239.91197 403.23566c0 1.00214-1.12373 2.12587-2.12587 2.12587s-2.12587-1.12373-2.12587-2.12587 1.12373-2.12587 2.12587-2.12587 2.12587 1.12373 2.12587 2.12587z"/></svg>