<svg viewBox="0 0 560 1e3"><defs/><path class="shadow" d="m361.5265 353.41344c-14.42623 6.33802-32.6473 12.00766-52.70733 16.85424-19.53129 4.71884-39.71088 8.38178-55.45402 9.96875-11.03892 1.11276-19.50077 1.31948-26.59398.10531-7.16256-1.22604-12.67944-3.83352-18.25195-8.34452-.21301 2.66274-.34107 5.30742-.36043 8.02711.017-1.85587.15086-4.43564.45106-7.89514 5.56784 4.51191 11.07476 7.09565 18.21925 8.29622 7.0765 1.18915 15.51874.95725 26.55724-.15554 15.75156-1.58792 35.85653-5.19473 55.32846-9.86101 19.97733-4.7874 38.1957-10.41629 52.63716-16.74912.53417 1.06613 1.125 2.2259 1.79182 3.47943 5.39369 9.28552 8.02633 17.66235 13.61408 25.62338 6.20295 8.8375 11.66426 16.16477 16.317 25.23016 4.44716 8.66483 7.67576 18.15828 8.98926 29.34886.63743 5.43062-.0986 13.75876-1.12849 22.07054.0972.01.26171.0.26171.0 1.02251-8.3306 1.75248-16.68125 1.11171-22.1324-1.31512-11.18799-4.52658-20.66976-8.94699-29.31666-4.62437-9.04588-10.05866-16.36495-16.25104-25.19893-5.58059-7.96121-8.40838-16.58793-13.79475-25.87187-.66592-1.25329-1.25611-2.41292-1.78977-3.47881zm-153.37181 27.3083c-.003 10.0071 1.45705 18.68798 3.33387 28.55407 2.02526 10.64647 3.2766 17.00318 4.15093 26.30312.76919 8.15231 1.07533 16.15744 1.96795 23.83323.12658.01.34203 2e-5.34203 2e-5-.93146-7.67349-1.34439-15.67865-2.13028-23.8303-.93747-9.72391-2.55697-17.36347-4.37465-26.76533-1.72334-8.91396-3.25504-17.74999-3.22659-27.38601-.036.031-.0572-.22631-.0633-.7088h4e-5z" id="path34627-4-4"/><path class="bottoms_primary" d="m361.35196 353.65974c-14.44146 6.33283-32.65983 11.96172-52.63716 16.74912-19.47193 4.66628-39.5769 8.27309-55.32846 9.86101-11.0385 1.11279-19.48074 1.34469-26.55724.15554-7.14449-1.20057-12.65141-3.78431-18.21925-8.29622-.42404 4.88673-.57303 9.4575-.3919 9.30135-.0284 9.63602 1.50325 18.47205 3.22659 27.38601 1.81768 9.40186 3.43718 17.04142 4.37465 26.76533.78589 8.15165 1.19882 16.15681 2.13028 23.8303 61.04965.0124 182.98616-7e-5 182.98616-7e-5 1.02986-8.31178 1.76593-16.63992 1.12849-22.07054-1.3135-11.19058-4.5421-20.68403-8.98926-29.34886-4.65274-9.06539-10.11405-16.39266-16.317-25.23016-5.58775-7.96103-8.22039-16.33786-13.61408-25.62338-.66682-1.25353-1.25765-2.4133-1.79182-3.47943z" id="path34629-0-98"/><g id="g34659-3-92" transform="translate(4.6751944e-6)"><path class="bottoms_primary_strong_shade" d="m291.21572 448.3971c-1.71769-2.81657-3.43058-6.62273-5.81468-9.73566-4.36416-5.6983-9.498-11.78018-14.05896-17.80897-4.6979-6.20981-8.38251-11.82108-11.11338-17.4674-5.42201-11.21048-5.36042-19.53475-4.96617-23.25244.0.0-4.49433.85048-5.44407 2.32339-.48902 4.82473.19652 10.06828 2.2676 15.71618 2.08102 5.67501 5.36856 11.26065 9.44546 16.89486 3.95565 5.46664 8.62136 10.91121 12.59889 15.48242 2.32594 2.6731 9.28236 10.60804 10.15488 11.58732 1.65175 1.85388 3.89723 4.2489 5.05918 5.3839 1.2943 1.26428 2.18085 1.89796 1.87125.8764z" id="path34631-4-58"/><path class="bottoms_primary" d="m241.76621 381.20935c.26574 11.46429 4.3862 22.00906 12.26734 33.8618 3.61226 5.43261 7.80068 10.81633 11.3804 15.34144 2.56893 3.24739 7.93599 9.9625 9.34566 11.68866 4.04375 4.95165 10.19563 6.70375 16.36192 6.90349-3.56603-5.88328-8.06198-11.51195-13.60915-18.38594-5.49854-6.81371-10.46229-13.00008-14.64106-19.66153-8.50688-13.56095-9.59228-23.19347-9.34972-29.14168-.32647-.9838-1.29447-1.36249-2.91486-1.21726-2.70917.24208-6.55415.55897-8.84053.61102z" id="path34633-7-2"/><path style="baseline-shift:baseline;clip-rule:nonzero;color-interpolation-filters:linearRGB;color-interpolation:sRGB;color-rendering:auto;color:#000;direction:ltr;display:inline;dominant-baseline:auto;enable-background:accumulate;fill-opacity:.586998;fill-rule:nonzero;fill:#4d4d4a;image-rendering:auto;isolation:auto;mix-blend-mode:normal;opacity:1;overflow:visible;shape-padding:0;shape-rendering:auto;solid-color:#000000;solid-opacity:1;stroke-dasharray:none;stroke-dashoffset:0;stroke-linecap:butt;stroke-linejoin:miter;stroke-miterlimit:4;stroke-opacity:1;stroke-width:.453543;stroke:none;vector-effect:none;visibility:visible;white-space:normal;writing-mode:lr-tb" d="m242.01617 381.19012c-.15693.0225-.50016.037-.50016.037.27686 11.46329 4.39893 22.00755 12.28541 33.86432 5.53674 8.3241 17.93035 23.60225 20.77137 27.0866 2.07478 2.54461 4.66864 4.26158 7.53551 5.3625 2.8619 1.09903 5.99238 1.58816 9.05186 1.68736-.0134-.1393-.0804-.44794-.0804-.44794-3.02216-.0978-6.11223-.58428-8.90017-1.64944-2.79344-1.06727-5.25909-2.69356-7.23211-5.10584-1.45734-1.7818-6.69695-8.33679-9.31672-11.64918-3.57091-4.51501-7.75643-9.8966-11.36496-15.32527-7.87635-11.8492-11.9953-22.39477-12.24967-33.86011l2e-5-4e-5z" id="path34635-2-8"/><path style="baseline-shift:baseline;clip-rule:nonzero;color-interpolation-filters:linearRGB;color-interpolation:sRGB;color-rendering:auto;color:#000;direction:ltr;display:inline;dominant-baseline:auto;enable-background:accumulate;fill-opacity:.586998;fill-rule:nonzero;fill:#4d4d4a;image-rendering:auto;isolation:auto;mix-blend-mode:normal;opacity:1;overflow:visible;shape-padding:0;shape-rendering:auto;solid-color:#000000;solid-opacity:1;stroke-dasharray:none;stroke-dashoffset:0;stroke-linecap:butt;stroke-linejoin:miter;stroke-miterlimit:4;stroke-opacity:1;stroke-width:.453543;stroke:none;vector-effect:none;visibility:visible;white-space:normal;writing-mode:lr-tb" d="m242.01617 381.19012c-.15693.0225-.50016.037-.50016.037.27686 11.46329 4.39893 22.00755 12.28541 33.86432 5.53674 8.3241 17.93035 23.60225 20.77137 27.0866 2.07478 2.54461 4.66864 4.26158 7.53551 5.3625 2.8619 1.09903 5.99238 1.58816 9.05186 1.68736-.0134-.1393-.0804-.44794-.0804-.44794-3.02216-.0978-6.11223-.58428-8.90017-1.64944-2.79344-1.06727-5.25909-2.69356-7.23211-5.10584-1.45734-1.7818-6.69695-8.33679-9.31672-11.64918-3.57091-4.51501-7.75643-9.8966-11.36496-15.32527-7.87635-11.8492-11.9953-22.39477-12.24967-33.86011l2e-5-4e-5z" id="path34637-9-36"/><path style="baseline-shift:baseline;clip-rule:nonzero;color-interpolation-filters:linearRGB;color-interpolation:sRGB;color-rendering:auto;color:#000;direction:ltr;display:inline;dominant-baseline:auto;enable-background:accumulate;fill-opacity:.586998;fill-rule:nonzero;fill:#4d4d4a;image-rendering:auto;isolation:auto;mix-blend-mode:normal;opacity:1;overflow:visible;shape-padding:0;shape-rendering:auto;solid-color:#000000;solid-opacity:1;stroke-dasharray:none;stroke-dashoffset:0;stroke-linecap:butt;stroke-linejoin:miter;stroke-miterlimit:4;stroke-opacity:1;stroke-width:.453543;stroke:none;vector-effect:none;visibility:visible;white-space:normal;writing-mode:lr-tb" d="m242.01617 381.19012c-.15693.0225-.50016.037-.50016.037.27686 11.46329 4.39893 22.00755 12.28541 33.86432 5.53674 8.3241 17.93035 23.60225 20.77137 27.0866 2.07478 2.54461 4.66864 4.26158 7.53551 5.3625 2.8619 1.09903 5.99238 1.58816 9.05186 1.68736-.0134-.1393-.0804-.44794-.0804-.44794-3.02216-.0978-6.11223-.58428-8.90017-1.64944-2.79344-1.06727-5.25909-2.69356-7.23211-5.10584-1.45734-1.7818-6.69695-8.33679-9.31672-11.64918-3.57091-4.51501-7.75643-9.8966-11.36496-15.32527-7.87635-11.8492-11.9953-22.39477-12.24967-33.86011l2e-5-4e-5z" id="path34639-4-9"/><path style="baseline-shift:baseline;clip-rule:nonzero;color-interpolation-filters:linearRGB;color-interpolation:sRGB;color-rendering:auto;color:#000;direction:ltr;display:inline;dominant-baseline:auto;enable-background:accumulate;fill-opacity:.586998;fill-rule:nonzero;fill:#4d4d4a;image-rendering:auto;isolation:auto;mix-blend-mode:normal;opacity:1;overflow:visible;shape-padding:0;shape-rendering:auto;solid-color:#000000;solid-opacity:1;stroke-dasharray:none;stroke-dashoffset:0;stroke-linecap:butt;stroke-linejoin:miter;stroke-miterlimit:4;stroke-opacity:1;stroke-width:.453543;stroke:none;vector-effect:none;visibility:visible;white-space:normal;writing-mode:lr-tb" d="m242.01617 381.19012c-.15693.0225-.50016.037-.50016.037.27686 11.46329 4.39893 22.00755 12.28541 33.86432 5.53674 8.3241 17.93035 23.60225 20.77137 27.0866 2.07478 2.54461 4.66864 4.26158 7.53551 5.3625 2.8619 1.09903 5.99238 1.58816 9.05186 1.68736-.0134-.1393-.0804-.44794-.0804-.44794-3.02216-.0978-6.11223-.58428-8.90017-1.64944-2.79344-1.06727-5.25909-2.69356-7.23211-5.10584-1.45734-1.7818-6.69695-8.33679-9.31672-11.64918-3.57091-4.51501-7.75643-9.8966-11.36496-15.32527-7.87635-11.8492-11.9953-22.39477-12.24967-33.86011l2e-5-4e-5z" id="path34641-8-9"/><path class="bottoms_primary_shade" d="m242.01617 381.19012c-.15693.0225-.50016.037-.50016.037.27686 11.46329 4.39893 22.00755 12.28541 33.86432 5.53674 8.3241 17.93035 23.60225 20.77137 27.0866 2.07478 2.54461 4.66864 4.26158 7.53551 5.3625 2.8619 1.09903 5.99238 1.58816 9.05186 1.68736-.0134-.1393-.0804-.44794-.0804-.44794-3.02216-.0978-6.11223-.58428-8.90017-1.64944-2.79344-1.06727-5.25909-2.69356-7.23211-5.10584-1.45734-1.7818-6.69695-8.33679-9.31672-11.64918-3.57091-4.51501-7.75643-9.8966-11.36496-15.32527-7.87635-11.8492-11.9953-22.39477-12.24967-33.86011l2e-5-4e-5z" id="path34643-5-2"/></g><path style="baseline-shift:baseline;clip-rule:nonzero;color-interpolation-filters:linearRGB;color-interpolation:sRGB;color-rendering:auto;color:#000;direction:ltr;display:inline;dominant-baseline:auto;enable-background:accumulate;fill-opacity:.784314;fill-rule:nonzero;fill:#1e1e1e;image-rendering:auto;isolation:auto;mix-blend-mode:normal;opacity:1;overflow:visible;shape-padding:0;shape-rendering:auto;solid-color:#000000;solid-opacity:1;stroke-dasharray:none;stroke-dashoffset:0;stroke-linecap:butt;stroke-linejoin:miter;stroke-miterlimit:4;stroke-opacity:1;stroke-width:.453543;stroke:none;vector-effect:none;visibility:visible;white-space:normal;writing-mode:lr-tb" d="m369.45707 369.61017c-12.49546 6.83267-26.75828 12.83648-45.13198 18.06518-18.56267 5.28248-40.64664 9.56926-66.75626 13.0836-10.45294 1.40695-20.32048 2.04317-28.85146.69867-8.14207-1.28321-14.82018-4.30054-19.99422-10.05738.0251.18871.049.53561.049.53561 5.21954 5.70688 11.93623 8.69929 20.04558 9.97693 8.60408 1.35559 18.5051.7124 28.96353-.69813 26.06041-3.51478 48.14356-7.81523 66.70994-13.10704 18.38598-5.2404 32.67334-11.25491 45.17629-18.09433 28e-5 53e-5-.21068-.40363-.2104-.40311z" id="path34645-8-4"/></svg>