<svg viewBox="0 0 560 1e3"><ellipse id="ellipse9-7" ry="1.300053" rx="7.2002935" cy="507.01486" cx="260.22626" transform="rotate(-0.51733349)"/><ellipse id="ellipse11-27" ry="1.2000489" rx="7.1002893" cy="507.31244" cx="259.92389" class="steel_chastity" transform="rotate(-0.51733349)"/><ellipse transform="rotate(-17.980187)" cx="129.64604" cy="517.00818" rx="1.1000425" ry="9.3003588" id="ellipse17-6"/><ellipse transform="rotate(-17.980187)" class="steel_chastity" cx="129.44194" cy="516.61993" rx="1.0000386" ry="9.3003588" id="ellipse19-1"/><ellipse transform="rotate(-26.992949)" cx="41.019997" cy="530.41113" rx="1.3000548" ry="10.700452" id="ellipse23-1"/><ellipse transform="rotate(-26.992949)" class="steel_chastity" cx="40.770897" cy="530.04755" rx="1.2000507" ry="10.600448" id="ellipse25-5"/><ellipse transform="rotate(-54.237185)" cx="-219.3932" cy="488.16318" rx="1.2999306" ry="11.199403" id="ellipse29-4"/><ellipse transform="rotate(-54.237185)" class="steel_chastity" cx="-219.66667" cy="487.7753" rx="1.199936" ry="11.099408" id="ellipse31-90"/><ellipse transform="rotate(-80.822144)" cx="-429.20181" cy="336.93039" rx="1.3000026" ry="10.700022" id="ellipse35-1"/><ellipse transform="rotate(-80.822144)" class="steel_chastity" cx="-429.53076" cy="336.53275" rx="1.2000026" ry="10.600022" id="ellipse37-7"/><ellipse transform="rotate(-0.44004565)" cx="260.47058" cy="498.15396" rx="1.3000383" ry="9.8002892" id="ellipse41-1"/><ellipse transform="rotate(-0.44004565)" class="steel_chastity" cx="260.1734" cy="497.75186" rx="1.2000355" ry="9.7002859" id="ellipse43-1"/><path id="path49-7" d="m275.275 495.825c-.5 5.4-3.2 9.5-3.8 9.3-.6-.1 1-4.3 1.4-9.6.5-5.3-.4-9.5.4-9.4.6.0 2.5 4.3 2 9.7z"/><path id="path51-7" d="m274.975 495.425c-.4 5.4-3 9.4-3.5 9.3-.6-.1 1-4.2 1.3-9.5.4-5.3-.5-9.4.2-9.3.5-.1 2.4 4.2 2 9.5z" class="steel_chastity"/><path id="path57-6" d="m256.075 496.025c.4 5.1 1.9 9 1.3 9.6-.5.6-3.4-3.1-3.9-9.4-.5-6.2 1.8-11.2 2.4-10.7s-.3 5.4.2 10.5z"/><path id="path59-5" d="m256.375 496.025c.4 5 1.8 8.7 1.3 9.3s-3.2-3.1-3.7-9c-.5-6 1.7-10.8 2.2-10.3.6.3-.3 5 .2 10z" class="steel_chastity"/><ellipse transform="rotate(-12.809092)" cx="181.56415" cy="502.50012" rx=".89998686" ry="8.5998755" id="ellipse63-3"/><ellipse transform="rotate(-12.809092)" class="steel_chastity" cx="181.42993" cy="502.25079" rx=".79998839" ry="8.499876" id="ellipse65-9"/><ellipse transform="rotate(-0.51733119)" cx="259.6106" cy="497.70834" rx="9.6003914" ry="1.300053" id="ellipse69-8"/><ellipse transform="rotate(-0.51733119)" class="steel_chastity" cx="259.20819" cy="497.90512" rx="9.5003872" ry="1.2000489" id="ellipse71-1"/><path id="path73-2" d="M281.575 472.525"/><ellipse transform="rotate(-41.042549)" cx="-95.2099" cy="524.43323" rx="1.2999617" ry="11.099674" id="ellipse77-3"/><ellipse transform="rotate(-41.042549)" class="steel_chastity" cx="-95.505165" cy="524.05786" rx="1.1999648" ry="10.999677" id="ellipse79-9"/><ellipse transform="rotate(-68.216677)" cx="-337.76065" cy="421.32883" rx="1.3000085" ry="11.200073" id="ellipse83-8"/><ellipse transform="rotate(-68.216677)" class="steel_chastity" cx="-338.04218" cy="420.92136" rx="1.2000079" ry="11.100074" id="ellipse85-8"/><path id="path87-5" d="m292.275 448.625c.1.2-5.9 1.6-13 6.3-2.5 1.7-5.3 3.5-8 6.9-3.5 4.4-4.8 8.6-5.2 9.7-.9 2.9-1.2 5.9-1.4 8-.2 2.3-.4 5.8-.5 5.8v-.1.0s.3.1.3.1c0 .1-.4.2-.6.1-.4-.2-.4-.8-.5-1-.3-3-.2-4.1-.2-4.1-.3-1.7.0-3.2.6-6.3.3-1.5.8-4.2 2.2-7.4.8-1.9 2.1-4.4 4.3-7.1 2-1.8 5.2-4.3 9.3-6.5 6.7-3.4 12.6-4.6 12.7-4.4z"/><path id="path89-0" d="m292.375 448.625c.1.2-4 1.1-9.4 3.8-.7.3-1.4.7-2.3 1.2-2.4 1.3-7.8 4.4-11.5 10.5-.2.2-.7 1.1-1.3 2.3-5.1 10.3-3 20.6-3.9 20.7-.3.0-.6-.9-.7-1.5-.4-1.6-1.7-6.6 1.5-16 .6-1.7 1.5-4 2.9-6.6 1.6-2.3 3.1-4.1 4.3-5.2.1-.1.1-.1.2-.2 6-5.9 16-8.3 16-8.3 2.2-.6 4.2-.9 4.2-.7z" class="steel_chastity"/><path id="path91-9" d="M262.575 452.925" class="steel_chastity"/><path id="path93-6" d="M253.375 455.025"/><path id="path95-3" d="M261.475 453.025" class="steel_chastity"/><path id="path97-8" d="M255.075 449.625"/><ellipse transform="rotate(-87.809755)" cx="-475.63037" cy="282.90826" rx="1.3000398" ry="10.100309" id="ellipse101-6"/><ellipse transform="rotate(-87.809755)" class="steel_chastity" cx="-475.91144" cy="282.58267" rx="1.2000368" ry="10.000306" id="ellipse103-1"/><ellipse transform="rotate(-1.8915592)" cx="278.33359" cy="457.88177" rx=".90004039" ry="8.0003595" id="ellipse107-5"/><ellipse transform="rotate(-1.8915592)" class="steel_chastity" cx="278.14319" cy="457.57538" rx=".80003595" ry="7.9003549" id="ellipse109-9"/></svg>