<svg viewBox="0 0 560 1e3"><path class="shadow" id="path4990" d="m338.61975 117.57493c0 .75293-.84427 1.5972-1.5972 1.5972s-1.5972-.84427-1.5972-1.5972.84427-1.5972 1.5972-1.5972 1.5972.84427 1.5972 1.5972z"/><path class="shadow" id="path4992" d="m339.07157 124.15986c0 .75293-.84427 1.5972-1.5972 1.5972s-1.5972-.84427-1.5972-1.5972.84427-1.5972 1.5972-1.5972 1.5972.84427 1.5972 1.5972z"/><path d="m338.47455 117.57493c0 .68448-.76752 1.452-1.452 1.452s-1.452-.76752-1.452-1.452.76752-1.452 1.452-1.452 1.452.76752 1.452 1.452z" id="XMLID_537_-4-4" class="steel_piercing"/><path class="shadow" id="path4994" d="m337.03726 131.67287c0 .75293-.84427 1.5972-1.5972 1.5972s-1.5972-.84427-1.5972-1.5972.84427-1.5972 1.5972-1.5972 1.5972.84427 1.5972 1.5972z"/><path d="m338.92637 124.15986c0 .68448-.76752 1.452-1.452 1.452-.68447.0-1.452-.76752-1.452-1.452s.76753-1.452 1.452-1.452c.68448.0 1.452.76752 1.452 1.452z" id="XMLID_537_-4-8" class="steel_piercing"/><path id="path4996" class="shadow" d="m332.68976 138.37146c-.35487.99033-.64411 2.11234-.51515 2.90387.27355 1.67885 1.20129 4.37062 2.89399 4.20297 1.86365-.18458 2.15241-3.2909 2.21664-5.16257.0541-1.57663-1.56471-4.46652-1.56471-4.46652s1.1422 3.06734.85842 4.60168c-.18645 1.00815-.5848 2.55949-1.60815 2.62183-1.05709.0643-1.70231-1.46399-1.97763-2.48664-.14777-.54887-.0878-1.32309.0428-2.07009-.12035-.0988-.21861-.11454-.34615-.14453z"/><path d="m336.89206 131.67287c0 .68448-.76752 1.452-1.452 1.452s-1.452-.76752-1.452-1.452.76752-1.452 1.452-1.452 1.452.76752 1.452 1.452z" id="XMLID_537_-4-89" class="steel_piercing"/><path id="path4998" class="shadow" d="m336.32777 136.65614c.2122.76181.53304 1.46126 1.01777 1.79663 1.87387 1.29647 5.3312 1.25868 6.82-.46634 1.22255-1.41653.79103-4.187-.44-5.59617-1.16005-1.3279-5.17-1.11922-5.17-1.11922s3.52794.58372 4.29 1.95865c.5472.9873.3597 2.56103-.44 3.35769-1.04742 1.04346-3.06863 1.20254-4.4.55963-.43541-.21026-.87514-.7154-1.19929-1.27621-.29481.31619-.34016.48958-.47848.78534z"/><path d="m332.87387 138.58019c-.32261.9003-.58556 1.92031-.46832 2.63988.24868 1.52623 1.09208 3.97329 2.6309 3.82088 1.69423-.1678 1.95674-2.99172 2.01513-4.69324.0492-1.4333-1.42247-4.06047-1.42247-4.06047s1.03837 2.78849.78039 4.18334c-.1695.9165-.53164 2.32681-1.46196 2.38348-.96099.0585-1.54755-1.3309-1.79784-2.26058-.13434-.49897-.0798-1.20281.0389-1.8819-.10941-.0898-.19874-.10413-.31469-.13139z" class="steel_piercing" id="XMLID_525_-3-7-1"/><path id="path5000" class="shadow" d="m340.48672 129.84542c.53175.46053 1.09825.81827 1.62521.89066 2.145.29468 5.31288-.79552 5.8108-2.90263.43618-1.84591-1.64717-3.8622-3.41389-4.55239-1.64191-.64143-5.20046.95971-5.20046.95971s3.50495-.80604 4.8716.0713c.92891.59634 1.74963 1.93623 1.42249 2.9905-.41203 1.32784-2.21883 2.0885-3.60913 2.09064-.35188 54e-5-.7558-.1285-1.16489-.32344-.28541.40388-.26106.5406-.34173.77567z"/><path d="m336.71715 136.53375c.19291.69255.48458 1.32842.92524 1.6333 1.70352 1.17861 4.84655 1.14425 6.2-.42395 1.11141-1.28775.71912-3.80636-.4-5.08742-1.05459-1.20719-4.7-1.01748-4.7-1.01748s3.20722.53066 3.9 1.78059c.49746.89755.327 2.32821-.4 3.05245-.9522.9486-2.78966 1.09322-4 .50875-.39582-.19114-.79558-.65036-1.09026-1.16019-.26801.28745-.30924.44508-.43498.71395z" class="steel_piercing" id="XMLID_525_-3-1"/><path id="path5002" class="shadow" d="m343.02851 119.00745c.50576.0231.97097-.0318 1.33681-.20854 1.691-.81709 3.33656-3.22542 2.64849-4.9729-.78297-1.9885-3.96686-2.50211-6.06283-2.08489-1.54942.30842-3.55002 3.14003-3.55002 3.14003s2.50107-2.15813 4.02433-2.16517c1.2482-.005 2.89902.56643 3.31389 1.74369.40073 1.13711-.42899 2.65861-1.43773 3.31895-.12886.0844-.27835.15154-.44298.20416.1034.48292.12895.56475.17004 1.02467z"/><path d="m340.77382 129.58279c.48341.41866.99841.74388 1.47747.80969 1.95.26789 4.82989-.7232 5.28254-2.63875.39653-1.6781-1.49742-3.51109-3.10353-4.13854-1.49265-.58312-4.72769.87246-4.72769.87246s3.18631-.73276 4.42872.0648c.84447.54213 1.59058 1.76021 1.29318 2.71864-.37458 1.20713-2.01712 1.89864-3.28103 1.90058-.31989 49e-5-.68709-.11682-1.05899-.29403-.25947.36716-.23733.49145-.31067.70515z" class="steel_piercing" id="XMLID_525_-3-0"/><path d="m342.96115 118.67127c.45979.021.8827-.0289 1.21529-.18958 1.53727-.74281 3.03323-2.9322 2.40771-4.52082-.71179-1.80773-3.60623-2.27465-5.51166-1.89536-1.40856.28039-3.22729 2.85458-3.22729 2.85458s2.2737-1.96194 3.65848-1.96834c1.13473-.005 2.63547.51494 3.01263 1.58517.3643 1.03374-.38999 2.41692-1.30703 3.01723-.11714.0767-.25304.13776-.40271.1856.094.43902.11723.51341.15458.93152z" class="steel_piercing" id="XMLID_525_-3-13"/></svg>