<svg viewBox="0 0 560 1e3"><g id="g22173" data-transform="boob_outfit"><path d="m323.34799 233.10125a12.001112 10.115055.0 01-12.00114 10.11506 12.001112 10.115055.0 01-12.00112-10.11506 12.001112 10.115055.0 0112.00112-10.11504 12.001112 10.115055.0 0112.00114 10.11504z" id="path22095-06-8" class="bra_primary"/><path d="m310.95548 231.48455-.13751 9.57533c-.56641.0516-1.01368.21032-1.32072.49528-.174.84826-.13316 1.5891-.16502 2.36631-1.3556 1.04347-1.27004 1.72665-1.5217 2.4941.0.0-.49758 12.77005-1.11712 19.12618-.13331 1.36796-.55901 4.08529-.55901 4.08529.35022.1124.49441-.23681 1.05065-.50587.557-.26943.65879.56686 1.19545.53671.42198-.0238.75501-.93806 1.11788-.89026.67072.0884.95366.93728 1.62961.9107.64062-.0251.29724-1.06631.95197-1.07027.59722-.004.78121 1.0315 1.36943 1.13475 1.00691.17677.7326-1.52278 1.69245-1.17091.57968.21251 1.28173 1.43039 1.61667 1.14812-.35939-.97104-.74468-1.51163-.94041-3.78538l-1.69469-19.68572c-.23451-.88124-.6124-1.6191-1.1404-2.20688-.0112-.88849.0406-1.777-.16535-2.6655-.40789-.23404-.7602-.29516-1.42324-.32507l.13974-9.55302z" id="path22113-4-5" class="bra_accent"/><path class="bra_primary" id="path85867" d="m235.29505 238.80833c-.47372 4.77052-5.43764 8.18131-11.0872 7.6182-2.88992-.28804-5.39946-1.56011-7.09818-3.37264.68351-5.22312 2.77223-9.66371 8.44498-13.93245.11478.008.25332.018.3687.0296 5.64956.56308 9.84541 4.88682 9.3717 9.65734z"/><path class="bra_accent" id="path22115-7-6" d="m222.73199 235.86839-.13751 9.57535c-.56642.0516-1.01369.21032-1.32075.49528-.17399.84824-.13316 1.58909-.165 2.36631-1.3556 1.04345-1.27005 1.72663-1.52171 2.4941.0.0-.49756 12.77004-1.11712 19.12618-.13329 1.36796-.559 4.08529-.559 4.08529.35023.11239.49443-.23683 1.05066-.50588.557-.26944.65878.56686 1.19544.53672.42197-.0238.75502-.93807 1.11789-.89028.67069.0884.95363.93729 1.62961.91071.64062-.0251.29724-1.06631.95196-1.07027.59724-.004.78121 1.0315 1.36943 1.13474 1.0069.17678.73261-1.52276 1.69245-1.17089.57968.2125 1.28174 1.4304 1.61666 1.1481-.35937-.97103-.74466-1.51162-.94039-3.78536l-1.69471-19.68573c-.23451-.88124-.61239-1.61911-1.14039-2.20687-.0112-.8885.0406-1.777-.16534-2.66552-.40792-.23402-.76021-.29515-1.42325-.32504l.13976-9.55302z"/></g></svg>