<svg viewBox="0 0 560 1e3"><path id="path1228" d="m529.28859 160.06078-1.00625-4.3c13.50884-2.39103 21.6049-8.96251 24.56766-16.91078l-2.2375 8.65c-4.5049 6.14649-11.54337 7.7443-21.32391 12.56078z" style="fill:#070505" transform="translate(-220)"/><path id="path1230" d="m287.60397 163.73515-.11875-4.39375c-11.01207.032-15.30758-3.90726-18.42611-8.97191 1.68204 3.01591 3.32107 6.03183 5.86142 9.04775 4.97651 1.7366 6.12074 2.75612 12.68344 4.31791z" style="display:inline;fill:#070505"/><path id="path1248" class="highlightStrong" d="m306.06943 158.99896c.82424 1.59261-.31922 7.84055-.25533 9.48912.0911 2.35063.32668 3.5911.37952 5.03581 1.6367.3233.5575-1.65754.30956-2.60214-.29108-1.10897-.42575-1.27143-.51903-2.48708-.1298-1.69155 1.31176-7.94101.0853-9.43571z"/><path id="path1250" class="highlightStrong" d="m291.52943 161.2492c-.16856 1.30377 1.07704 5.1746 1.50374 6.5675.53262 1.73866.85951 3.42387 1.37577 4.68809-1.35851.96837-1.26851-1.95297-1.43138-2.91589-.11777-.69625-.20232-.84009-.3062-1.37611-.29951-1.54531-1.45739-4.99652-1.14193-6.96359z"/><path id="path1252" class="highlightStrong" d="m305.94261 158.9737c.3563 1.7575-1.33628 7.81128-1.72655 9.41426-.55648 2.28563-.79481 6.07442-1.13986 7.47832 1.31025 1.89023 1.36569-.045 1.29978-1.65992-.0468-1.14558-.13923-4.46443.10418-5.65911.33867-1.66238 2.23241-7.79999 1.46246-9.57355z"/><circle id="circle1133-2" class="steel_piercing" cx="308.61899" cy="157.93527" r="2.25"/><circle id="circle1133-7" class="steel_piercing" cx="287.7959" cy="161.52223" r="2.25"/><path id="path1230-5" d="m308.97674 157.94197-.17297-.81105-3.86456 1.21173c-.0334.23738-.086.48025.0798.66071z" class="steel_piercing"/><path class="steel_piercing" d="m291.6471 161.33387c.0776-.2002.0362-.38058-.0625-.55141l-4.4735.3679.15998.64652z" id="path1323"/></svg>