<svg viewBox="0 0 560 1e3"><defs><clipPath clipPathUnits="userSpaceOnUse" id="clipPath13613"><path d="m131.74321 573.69194 315.75864-8.79774c13.0539 8.0333 2.38259-383.9505 7.79017-388.03777l-85.55784 2.24903c-27.21476-3.74253-39.04027 2.7738-39.27246-32.77588l-33.94646 3.49567c-.60044 11.74636 4.52731 21.84761 4.14186 32.15688-5.80032 4.30093-13.259 4.44692-29.51965 8.86728l-133.98159-.0572z" class="shadow torso" id="path13615"/></clipPath></defs><g id="g13863" clip-path="url(#clipPath13613)"><g id="g13861" data-transform="boob_outfit" style="display:inline"><path class="bra_primary bra_strap2" id="path13849" d="m350.01054 168.95467c-4.25979 7.66354-3.3471 39.91394-8.90311 42.68577 2.45673-.54791 4.74992-.80679 7.44079.40137-3.34816-2.67835 1.16715-38.06685 3.34663-42.94876z"/><path d="m352.7184 169.06448c-7.16956 10.03289-5.63456 39.45158-11.45329 42.55781 2.91754-.78982 4.16009-.51094 7.19236.40727-3.34934-2.82506 3.60718-34.86949 5.65378-42.88798z" id="path13851" class="bra_primary bra_strap1"/><path d="m345.60717 168.96574c-4.49006 32.35902.58242 40.05527-4.43724 42.6747 3.30941-.7794 5.36615-.22783 7.36914.38084-4.54288-3.53614-4.0068-17.23297-1.6256-42.94106z" id="path13853" class="bra_primary bra_strap3"/><path d="m287.67466 180.26839c-4.71063 5.73681-42.81543 36.67684-58.32854 49.08303 1.53851-.47682 3.47309-1.68487 4.63411-2.20669 5.50143-3.88712 20.1725-15.47099 26.18682-20.57545 13.25314-11.24818 28.19238-22.89932 29.21514-25.19024z" id="path13855" class="bra_primary bra_strap2"/><path class="bra_primary bra_strap1" id="path13857" d="m289.28226 178.02885c-7.25387 5.76513-48.58864 41.10915-61.03861 51.78877 1.02367-.44221 2.03115-.88442 3.17504-1.32663 4.77591-3.79982 19.75728-16.00673 25.08043-20.98512 10.26542-9.60058 33.16639-25.66691 35.07326-28.9312z"/><path class="bra_primary bra_strap3" id="path13859" d="m288.57955 183.03777c-7.09029 5.87744-38.84499 32.64508-57.08527 45.38807l4.99573-2.54379c5.79728-4.00338 16.50101-13.30225 22.9772-18.13269 11.23045-8.37652 22.67592-17.01004 30.07064-23.8165z"/></g></g><g data-transform="boob_outfit" id="g13847"><path d="m339.54705 212.42851c-23.10303 10.59521-58.64539 16.74594-76.53671 77.21689 14.22139 20.07285 41.30263 25.71521 61.17465 21.71892 36.17446-7.27474 47.3645-38.17451 47.37011-53.40486.008-22.50273-10.72599-35.64267-21.74316-45.00227-.47542-.39146-.76833-.57132-1.29951-.96053-2.4774-1.04058-5.20909-1.01683-7.27683-.38022-.63477.30326-.80815.39191-1.68855.81207z" id="path13839" style="fill-opacity:.97647059;fill:#fffffb"/><path id="path13841" d="m271.06344 298.21188c-10.48178 13.77065-29.44052 19.06167-42.54116 17.65704-16.10459-1.72671-25.73498-12.36921-30.63736-24.3616-6.46261-15.80909-4.632-34.4163 2.25334-43.25455 5.03046-6.45727 11.25021-10.53807 18.05786-14.0315 4.11437 24.20747 30.84046 41.66068 41.96623 50.16839 2.60173 5.05222 5.98364 9.76815 10.90109 13.82222z" style="fill-opacity:.97647059;fill:#fffffb"/><path class="shadow" id="path13843" d="m218.19531 234.2207c-6.80765 3.49343-13.20391 7.35328-18.23437 13.81055-6.88534 8.83825-8.71457 27.88818-2.25196 43.69727 4.90238 11.99239 14.70791 22.85141 30.8125 24.57812 13.10064 1.40463 33.18424-4.32505 42.54102-18.0957-10.48178 13.77065-29.44038 19.06283-42.54102 17.6582-16.10459-1.72671-25.73433-12.36894-30.63671-24.36133-6.46261-15.80909-4.63144-34.41761 2.2539-43.25586 5.03046-6.45727 11.24899-10.53782 18.05664-14.03125z"/><path class="shadow" id="path13845" d="m349.8125 212.95703c11.01717 9.3596 21.75019 22.49922 21.74219 45.00195-.006 15.23035-11.19468 46.13151-47.36914 53.40625-19.87202 3.99629-46.95439-1.64785-61.17578-21.7207 3.6031 7.1282 14.29206 14.44264 23.38085 18.24414 12.4912 5.22461 26.46814 6.31904 37.97071 4.00586 36.17446-7.27473 47.62915-38.7052 47.63476-53.93555.008-22.50273-11.04142-36.14235-22.18359-45.00195z"/><path d="m344.72092 211.17779c-.62553-.0223-1.23863.008-1.82422.084-.29279.0377-.57804.0869-.85546.14648-.27739.0596-.54622.12941-.80469.20899-.004.002-.007.004-.0117.006-.62398.29818-.80349.38746-1.67773.80468-.91593.42006-1.88278.82659-2.83594 1.23633-1.47405.63366-2.98552 1.27093-4.53711 1.90235-.009.003-.0168.006-.0254.01-1.54185.62722-3.11403 1.27019-4.71875 1.92188-1.65803.67333-3.34038 1.37719-5.05078 2.10547-1.8862.80312-3.78609 1.63362-5.7168 2.54101-.01.005-.0197.009-.0293.0137-2.52621 1.18798-5.08009 2.48529-7.64258 3.92969-4.98376 2.80921-9.99124 6.17617-14.86132 10.44531-.0529.0463-.1054.0961-.15821.14258-.62262.54899-1.24219 1.1179-1.85937 1.69922-1.27496 1.19434-2.53594 2.46008-3.78516 3.79102-1.26773 1.35065-2.52097 2.7717-3.75586 4.27539-.37497.45659-.74757.92307-1.11914 1.39453-.55913.7037-1.11607 1.42093-1.66601 2.16211-.0609.0823-.12279.15949-.1836.24218-.002.003-.004.005-.006.008-.8399 1.14242-1.66757 2.33156-2.48632 3.55859-.735 1.10151-1.46144 2.23333-2.17774 3.40625-.65111 1.06618-1.29136 2.17318-1.92578 3.30078-42e-5 76e-5-.002.001-.002.002-.5886 1.04621-1.16504 2.13534-1.73829 3.23633-.53749 1.03233-1.06663 2.09373-1.58984 3.17578-.49765 1.02919-.99253 2.06512-1.47656 3.14063-.45445 1.00977-.90187 2.04399-1.34375 3.0957-1e-4 24e-5-.002-24e-5-.002.0-.005.0114-.009.0238-.0137.0352-.4094.9752-.80888 1.98396-1.20703 2.99609-.008.0195-.0158.0391-.0234.0586-.39553 1.00675-.79183 2.00667-1.17579 3.05078-.36436.99081-.71674 2.02169-1.07031 3.04687-.3451 1.00063-.68702 2.01087-1.02148 3.04492-.32282.99805-.64053 2.01122-.95313 3.04102-.12409.4088-.25645.79316-.3789 1.20703.0945.13335.45517.0906.55078.22266.14217-.49377.29642-.95668.4414-1.44336 1.33907-.0161 2.68303-.0369 4.04493-.084 10.84886-.30713 22.71493-2.31839 35.17773-6.52148 11.06505-3.89493 21.43846-9.70282 30.75781-17.28906 9.18751-7.72551 16.49632-16.04324 22.04688-24.47657 2.70564-4.07526 5.11401-8.09295 7.28711-12.03515-.0433-.0683-.0893-.13321-.13282-.20117.008.008.0174.0179.0254.0254-.10367-.16213-.2153-.31421-.32031-.47461-.27703-.42305-.55785-.8407-.84375-1.25196-.17688-.25452-.35312-.50965-.5332-.75976-.0337-.0468-.0658-.0959-.0996-.14258-68e-5.001-.001.003-.002.004-.65651-.90594-1.33555-1.77849-2.0293-2.62891 26e-5-5e-4-26e-5-.001.0-.002-.0127-.0155-.0264-.0294-.0391-.0449-2.96676-3.62922-6.2312-6.7821-9.5293-9.58399-.47542-.39146-.7696-.57173-1.30078-.96094-.198-.0832-.39883-.14699-.59961-.21679-1.0183-.354-2.06349-.54562-3.08008-.5918-.0369-.002-.0745-.008-.11133-.01zm-.14843.51563c1.06648.0239 2.03806.28108 3.00781.73828-2.59129 5.22188-5.56752 10.50825-9.08008 15.76367-4.69156 7.05933-10.62931 13.87193-17.93359 19.96485-7.34331 5.99062-15.59282 10.60389-24.38477 13.70117-8.12225 2.77994-16.14885 4.34674-23.86523 5.00586.53889-1.09397 1.09198-2.14896 1.64843-3.19336 6.91708-.72781 14.04194-2.2044 21.20899-4.66406 8.46722-2.98333 16.41555-7.42483 23.47656-13.1875 7.03526-5.85969 12.77686-12.45923 17.3457-19.32227 3.28838-4.9143 6.10385-9.87833 8.57618-14.80664zm-3.76368.71484c-2.16324 4.14869-4.57048 8.29984-7.3164 12.39844-4.44612 6.66676-9.99355 13.05126-16.75977 18.67774-6.77871 5.53472-14.42197 9.80444-22.56445 12.67382-6.17438 2.12518-12.34273 3.48223-18.39063 4.25391.66223-1.14537 1.33464-2.25997 2.01758-3.34375 5.09112-.7837 10.23876-1.99294 15.36719-3.76367 7.81755-2.75536 15.15611-6.85351 21.65234-12.16016 6.49702-5.39308 11.84854-11.56286 16.17188-18.0332 1.96931-2.93563 3.75741-5.90899 5.41601-8.89649 1.12422-.46297 2.2539-.92657 3.33985-1.38867.36922-.15711.7236-.29436 1.0664-.41797zm9.34571 1.64063c.73811.54888 1.50423 1.15359 2.36328 1.86328.0222.0183.0423.0401.0644.0586-2.59176 5.13794-5.57709 10.36777-9.07422 15.61133-4.93698 7.45191-11.26507 14.69649-19.10742 21.25586-7.90789 6.44652-16.76562 11.39944-26.20703 14.72461-9.91985 3.37861-19.59981 5.08648-28.72266 5.5625.44606-1.0506.89432-2.09586 1.35547-3.10547 8.4476-.57416 17.32455-2.22347 26.36133-5.30859 9.11668-3.21124 17.66933-7.99431 25.29492-14.21289 7.57331-6.32615 13.70722-13.35376 18.52149-20.60938 3.53976-5.30197 6.54175-10.6118 9.15039-15.83984zm-18.31836 2.04101c-1.06512 1.78882-2.17375 3.56896-3.35547 5.32813-4.20062 6.27407-9.35405 12.22881-15.58203 17.38867-6.21395 5.0787-13.24937 9.00702-20.74219 11.64844-4.015 1.391-8.05835 2.4182-12.08789 3.16601.86317-1.24966 1.73932-2.45822 2.62891-3.62304 2.82883-.63813 5.65192-1.42115 8.45117-2.39453 7.16809-2.52746 13.90232-6.28401 19.83398-11.13477 5.95895-4.92663 10.91624-10.66832 14.99414-16.74609.36688-.54535.72004-1.09506 1.07422-1.64454 1.61884-.68114 3.21302-1.34604 4.78516-1.98828zm23.04492 2.04297c.75055.77304 1.47665 1.56968 2.16406 2.37891-2.47116 4.74198-5.27884 9.57871-8.52734 14.45898-5.18242 7.84448-11.90475 15.51714-20.28516 22.54297-8.47248 6.9024-17.93648 12.19888-28.02734 15.75195-11.38782 3.86195-22.37751 5.70446-32.54883 6.01368-.21479.008-.4265.0105-.63867.0137.38427-1.04538.77951-2.05974 1.17773-3.06836 9.75732-.36721 20.21895-2.14544 31.00391-5.81055 9.76613-3.43913 18.927-8.56381 27.11719-15.23828 8.11137-6.7926 14.63757-14.25025 19.69726-21.89844 3.39803-5.10006 6.32136-10.17155 8.86719-15.14453zm-33.04688 2.22071c-3.61593 5.00844-7.83778 9.70736-12.76953 13.77539-5.64937 4.62281-12.07851 8.20953-18.92187 10.62304-1.42539.49764-2.86205.92965-4.30274 1.33203 1.36144-1.59115 2.7505-3.08082 4.15625-4.50781 6.19601-2.29188 12.02298-5.58494 17.15235-9.78515 3.14787-2.59001 5.98784-5.47993 8.58203-8.55079 2.05099-1.03222 4.08253-1.9776 6.10351-2.88671zm37.29297 2.69921c.71809.90083 1.42269 1.78846 2.0625 2.5625-2.26424 4.17489-4.79947 8.43301-7.66406 12.74415-5.42785 8.23704-12.5405 16.33778-21.45898 23.83007-9.03706 7.35829-19.10929 12.99637-29.84961 16.77735-12.10448 4.08937-23.67776 6.04569-34.30078 6.35351-1.00447.0351-1.99386.0493-2.98438.0645.33147-1.03761.67518-2.04239 1.01953-3.04688.61022-.0106 1.21826-.0172 1.83594-.0391 10.39718-.30852 21.67769-2.20794 33.42383-6.1836 10.4156-3.66702 20.18469-9.13332 28.93945-16.26367 8.64944-7.25905 15.56596-15.14674 20.87109-23.1875 3.05987-4.60102 5.73347-9.15026 8.10547-13.61133zm-52.77929 5.44336c-.37042.32026-.73628.64611-1.11524.95703-2.34694 1.9233-4.86165 3.63058-7.48828 5.14454 2.83287-2.25915 5.70973-4.28467 8.60352-6.10157zm58.74609 2.5625c-1.98161 3.5045-4.15956 7.07314-6.55859 10.68946-5.67336 8.62974-13.17806 17.1622-22.63477 25.12109-9.60183 7.81433-20.27993 13.79378-31.66992 17.80274-12.82136 4.31688-24.97982 6.38497-36.05469 6.6914-1.2892.044-2.55742.0602-3.82617.0781.80765 1.03443 1.65561 2.02043 2.53125 2.97265.47768-.0127.94521-.0131 1.42578-.0293 11.30073-.30574 23.75-2.43268 36.92969-6.86329 11.71471-4.12289 22.6979-10.27217 32.58203-18.31445 9.72574-8.19212 17.42658-16.9396 23.22266-25.76562 2.05103-3.09408 3.92693-6.14462 5.67382-9.15235-.5074-1.11425-1.05289-2.1854-1.62109-3.23047zm3.07031 6.74414c-1.44445 2.41498-2.9813 4.85949-4.61914 7.33204-5.91879 9.02231-13.81577 17.98481-23.81054 26.41015-10.16643 8.27023-21.45275 14.59128-33.49219 18.82813-13.00663 4.36594-25.26644 6.53148-36.43164 6.96679 1.09657 1.00804 2.23193 1.96234 3.40234 2.86328 10.50934-.70907 21.94402-2.92557 34.03516-6.97851 12.36418-4.3508 23.95364-10.84363 34.40234-19.3418 10.26381-8.65857 18.35693-17.83414 24.39844-27.05273 1.16853-1.7653 2.26947-3.5112 3.33984-5.2461-.36876-1.29997-.77589-2.56255-1.22461-3.78125zm2.21485 7.89063c-.59991.9406-1.19798 1.88043-1.82618 2.83008-6.16422 9.41489-14.45153 18.80546-24.98437 27.69726-10.731 8.72612-22.6236 15.39072-35.3125 19.85547-11.01623 3.68769-21.46996 5.88082-31.18359 6.83399 1.42882.91064 2.89181 1.76034 4.39062 2.53515 8.74442-1.14711 18.04295-3.25595 27.79883-6.51758 13.01363-4.5787 25.20936-11.41312 36.22266-20.36718 10.80187-9.12502 19.28532-18.73258 25.57226-28.34375.0137-.0208.0253-.0417.0391-.0625-.18549-1.53676-.42737-3.02122-.71679-4.46094zm1.08984 8.94726c-6.18029 8.84794-14.20027 17.66945-24.1875 26.11133-11.27789 9.16772-23.75816 16.16215-37.07617 20.84766-8.37486 2.79672-16.40324 4.75404-24.04102 6.01172 1.62092.66656 3.2666 1.26596 4.92969 1.79297 6.41397-1.26882 13.08041-3.00542 19.99023-5.31055 13.60204-4.78518 26.34824-11.92978 37.87305-21.29687 9.1061-7.70121 16.59128-15.69473 22.57227-23.72852.0127-.3754.0253-.75083.0254-1.10938 4e-4-1.13164-.0333-2.23335-.0859-3.31836zm-.48047 9.76563c-5.5906 6.96128-12.30327 13.87447-20.23242 20.58398-11.78958 9.58091-24.82188 16.88529-38.72852 21.77735-5.09075 1.6965-10.05341 3.10022-14.8789 4.24023 1.82102.39278 3.6476.70952 5.47265.95117 3.32782-.89484 6.71418-1.90462 10.16211-3.05273 14.15019-4.97752 27.40885-12.41024 39.41016-22.16211 6.77925-5.7389 12.6727-11.61814 17.75976-17.54297.43557-1.655.78331-3.26354 1.03516-4.79492zm-3.24805 11.49219c-4.12879 4.39195-8.68996 8.75142-13.75 13.03711-12.26591 9.96553-25.8091 17.55825-40.26367 22.64257-1.01072.33624-2.01698.66192-3.01758.97657 2.18519.0321 4.33947-.0419 6.44727-.21485 13.60756-5.12993 26.38494-12.4801 38.03125-21.9414 3.66071-3.10151 7.04751-6.24167 10.22461-9.40039.87722-1.70746 1.65444-3.41317 2.32812-5.09961zm-7.39843 13.24804c-1.17891 1.05225-2.36436 2.10505-3.59766 3.1504-9.07607 7.37245-18.82603 13.47716-29.10937 18.28124 3.59092-.91122 6.90374-2.07425 9.98046-3.42382 5.55535-3.12653 10.92875-6.65885 16.10547-10.57618 2.50468-2.35331 4.70456-4.8541 6.6211-7.43164z" id="path13839-3" class="bra_primary"/><path id="path27516" d="m218.19531 234.2207c-.25243.12954-.50312.26134-.7539.39258 78e-5.003.001.006.002.01-.82365.43216-1.6403.87209-2.44531 1.32617.63613 3.10746 1.33821 5.92611 2.21875 8.32422 1.28215 3.38424 2.44769 6.08178 3.73632 7.66406 1.05511 1.52866 2.60342 3.00076 4.32618 4.19141 1.04531.80947 2.47515 1.5565 4.15429 2.28906.44116.53352.872 1.07088 1.33203 1.59765.98634 1.12942 2.03134 2.24471 3.11329 3.35547-4.35861-1.50525-7.96895-2.97637-10.31055-4.74804-2.00694-1.38477-3.80348-3.09998-5.07227-4.92188-1.48813-1.87719-2.78683-4.83385-4.13671-8.43945-.82903-2.27512-1.50683-4.85931-2.11329-7.67188-.91737.57445-1.8191 1.17485-2.70312 1.80078.56686 2.47137 1.20316 4.77082 1.95898 6.85938 1.41762 3.82696 2.84946 7.04078 4.53711 9.21289 1.48246 2.11514 3.5292 4.07542 5.82032 5.6543 2.71609 2.01799 6.70107 3.64786 11.42382 5.25 1.65203.54241 3.40442 1.00619 5.20703 1.43359 1.47283 1.33817 3.00329 2.68216 4.64844 4.05274-3.82216-.68626-7.43736-1.51737-10.76367-2.60352-4.94109-1.65993-9.19379-3.41809-12.22656-5.63867-2.57528-1.77299-4.86832-3.97834-6.56446-6.38672-1.88714-2.46701-3.4541-5.93801-4.93945-9.98633-.65557-1.82282-1.22547-3.77947-1.73633-5.84961-.86723.70576-1.71827 1.44046-2.54297 2.22266.43042 1.60278.89739 3.14862 1.42188 4.61523 1.55308 4.26967 3.2532 7.9998 5.33984 10.76172 1.90981 2.70162 4.45305 5.14814 7.3125 7.11524 3.34947 2.42316 7.86988 4.31354 13.0293 6.03125 4.98021 1.61791 10.50803 2.69648 16.39648 3.52929 1.51924 1.19244 3.12 2.4192 4.78125 3.67188-7.96594-.91536-15.43148-2.16478-22.08593-4.31641-5.37776-1.77549-10.16588-3.79613-13.83203-6.42187-3.14362-2.16122-5.9351-4.85281-8.0586-7.84766-2.28614-3.05685-4.11942-7.04413-5.74023-11.53516-.35726-1.00416-.68506-2.04492-.99805-3.10351-.61201.68534-1.21178 1.3946-1.79297 2.14062-.16858.2164-.33167.44395-.49414.67188.14083.42775.27914.85967.42774 1.27929 1.68854 4.7124 3.65498 8.95879 6.14062 12.31055 2.33717 3.2881 5.37884 6.2228 8.80664 8.57813 3.98283 2.82833 9.03868 4.97728 14.63477 6.81054 7.14251 2.2993 15.07046 3.60901 23.47265 4.53907 1.39662.14961 2.80627.27101 4.2168.38867 1.06967.7864 2.12611 1.56472 3.25195 2.38281-.14663-.27343-.29172-.54678-.43359-.82227-.57266-.4379-1.33817-.99936-1.98828-1.48437-.87646-.65386-1.88125-1.40524-2.83985-2.12109-.57301-.42533-1.19015-.88731-1.79492-1.33985-1.51326-1.13236-3.10215-2.34477-4.76172-3.64453-.0372-.0292-.076-.0606-.11328-.0898-1.4776-1.15926-2.99115-2.38571-4.52734-3.67383-64e-5-11e-5-.001 11e-5-.002.0-1.5106-1.26668-3.03045-2.58017-4.54688-3.96875-.89342-.8181-1.78049-1.65991-2.66211-2.51953-.5727-.5575-1.14285-1.11963-1.70703-1.69531-.0269-.0274-.0552-.0526-.082-.0801-1.50046-1.53472-2.9608-3.13379-4.36328-4.78906-.77299-.91232-1.52634-1.84341-2.25782-2.79102-.14014-.18185-.27762-.36567-.41601-.54883-.25294-.33422-.5052-.6692-.75195-1.00781-.29117-.39955-.57553-.80327-.85743-1.20899-.0818-.11778-.16704-.23327-.24804-.35156-4e-4-31e-5-.002 31e-5-.002.0-3.91209-5.71284-6.88217-12.0143-8.04492-18.85547zm1.08594 6.60742c1.3374 3.77035 2.98732 7.17907 4.93555 10.36133-.29652-.33441-.57416-.67233-.80664-1.01367-1.08914-1.28737-2.12152-3.72774-3.33594-6.89062-.28331-.76503-.54336-1.59619-.79297-2.45704zm-21.64063 11.52149c-.61451 1.26575-1.16396 2.62586-1.63476 4.07812 1.49008 3.51966 3.22087 6.78002 5.29297 9.61133 2.76466 3.87478 6.30446 7.29733 10.30078 10.04102 4.61641 3.23363 10.20538 5.64487 16.23828 7.59375 7.66823 2.44898 15.9919 3.83915 24.65625 4.7832 3.48937.37174 7.01157.6392 10.55664.83789-.68653-1.02727-1.33435-2.07182-1.93359-3.13672-2.78935-.18193-5.55906-.41547-8.30664-.70898-8.53323-.93705-16.65917-2.288-24.06446-4.66211-5.81443-1.89105-11.13603-4.17221-15.43554-7.20313-3.71197-2.54943-7.00384-5.72724-9.55469-9.30859-2.47257-3.35795-4.44634-7.4477-6.11524-11.92578zm-2.82421 8.74414c-.3169 1.61122-.54789 3.28918-.70118 5.01563.7131 1.19141 1.46642 2.34679 2.26954 3.45507 3.19201 4.46126 7.23026 8.37005 11.79492 11.50196 5.24978 3.6388 11.37418 6.31056 17.84375 8.375 8.19376 2.5986 16.91146 4.07125 25.83789 5.02929 5.40029.57231 10.84831.9209 16.33008 1.11328-1.0118-1.01345-1.94871-2.06003-2.81836-3.13476-4.43221-.2041-8.83284-.52086-13.19532-.98438-8.79538-.95104-17.3151-2.38441-25.24609-4.9082-6.25123-2.00665-12.10988-4.5462-17.04297-7.98242-4.2805-2.93779-8.06854-6.60542-11.04687-10.77344-1.50358-2.06536-2.83434-4.31859-4.02539-6.70703zm-.9043 10.20703c.0154 1.73081.1004 3.48437.2832 5.25586 3.08022 3.60866 6.64593 6.81079 10.56446 9.49805 5.88314 4.04397 12.54298 6.97429 19.44921 9.15429 8.71931 2.74824 17.83106 4.30336 27.01954 5.2754 5.60788.59136 11.24282.95164 16.89257 1.14843.89964-.9332 1.75423-1.91744 2.56446-2.94726-6.41648-.16802-12.80375-.53716-19.14063-1.20703-9.05745-.96504-17.97119-2.47892-26.42773-5.15235-6.6879-2.12222-13.08198-4.92423-18.64844-8.76562-4.84883-3.32602-9.13337-7.47989-12.53906-12.23438-.006-.008-.0116-.017-.0176-.0254zm1.09375 10.56836c.36136 1.79827.82401 3.58884 1.37305 5.36328 1.58993 1.35087 3.24054 2.62924 4.96093 3.8086 6.51652 4.44915 13.71179 7.64192 21.05469 9.9375 9.24485 2.89788 18.75062 4.5335 28.20117 5.51953 3.55598.37322 7.11377.64969 10.67188.86133 1.2918-.87248 2.54229-1.81306 3.74219-2.82422-4.70616-.21537-9.40752-.54956-14.09766-1.04297-9.31953-.97903-18.62731-2.57538-27.60938-5.39844-7.12456-2.23778-14.05212-5.30032-20.25195-9.54687-2.87863-1.97371-5.57156-4.21478-8.04492-6.67774zm3.37109 10.76758c.81931 1.87373 1.74528 3.71118 2.8086 5.47656 6.21345 3.77365 12.78409 6.58403 19.39453 8.63281 9.77038 3.04751 19.67019 4.76562 29.38281 5.76563.3655.0382.73032.0671 1.0957.10351 1.9166-.72765 3.81106-1.5693 5.65625-2.53711-2.14466-.16498-4.28929-.3475-6.43554-.57226-9.5816-.99301-19.28342-2.67184-28.79102-5.64453-7.56124-2.35335-15.02422-5.67444-21.85742-10.32617-.42417-.29073-.83692-.5975-1.25391-.89844zm6.98438 11.24219c2.19211 2.52633 4.7262 4.78764 7.63867 6.65625 1.92039.72538 3.84383 1.38751 5.76562 1.97851 4.70785 1.46191 9.41354 2.62039 14.08985 3.55664 3.43414-.007 7.11496-.41997 10.85547-1.25976-7.94581-1.066-16.01018-2.6817-24.03711-5.17969-4.80985-1.48477-9.61821-3.38321-14.3125-5.75195z" class="bra_primary"/><path class="bra_accent" id="path24736-63-2-1" d="m349.02896 209.92546c.0322.003.064.008.0956.0134.86935.0966 1.19638.72046 1.14167 1.07195-.0593.3805-.28247.56778-.58718.66724-.77758.2538-1.98338.0205-2.52783-.075 1.07289.56797 3.41079 1.99689 3.59859 2.21737.0761.0893.28698.58124.42941.8711-.5651-.54025-1.17643-1.0306-1.92278-1.37518-.86728-.42239-1.90143-.5817-2.64216-.90492-.54961-.3055-1.09672-.65846-1.35385-.94873-.0835.0363-.10297.05-.25874-.005-.82138.34997-1.50386.64173-2.48595.91724-.9001.25251-1.93901.65868-2.93453 1.01685l.24122-.86455 2.97385-1.07907c-.3712-.04-.68204.065-1.13479-.17301-1.37194-.86537-1.32629-1.27755-1.1452-1.64645.1488-.2835.66055-.3167 1.09707-.25417.0314-.10327.68831-.0888 1.24723.047.94987.23061 1.32301 1.00735 1.94102 1.56258.25723-.0194.36527-.005.55553.12827 1.34259-.38507 2.67376-1.29571 3.67193-1.18674zm.0677.16079c-1.21903-.13804-1.71132.61003-2.52786.92332.85021-.0669 1.94969.34475 2.77697.5486.32655.005.67998-.0391.73784-.56468-.002-.68217-.46859-.82494-.98695-.90724zm-7.5085-.6405c-.55648.0528-.7687.92179-.6415.90736.95907.0568 1.92249.3013 2.84603.46834-.76311-.38823-1.39527-.99935-2.20453-1.37575z"/></g></svg>