<svg viewBox="0 0 560 1e3"><path id="path5197" class="shadow" d="m282.59092 451.77842c-.71977 1.03111-1.50553 2.41537-1.39247 3.41879.22781 2.02187 1.90351 4.72055 3.93739 4.66429 1.99279-.0551 3.3524-2.79813 3.59928-4.77632.21075-1.68867-1.97614-4.70734-1.97614-4.70734s1.43068 3.19836.9344 4.72534c-.35573 1.09449-1.3826 2.37703-2.53304 2.34603-1.30096-.0351-2.40484-1.54007-2.71746-2.8034-.17886-.7228.13476-1.79472.49314-2.686-.14664-.13041-.22302-.11066-.3451-.18139z"/><path d="m282.80706 452.08221c-.65433.93737-1.36866 2.19579-1.26588 3.10799.2071 1.83806 1.73046 4.29141 3.57945 4.24026 1.81162-.0501 3.04763-2.54375 3.27207-4.34211.19159-1.53515-1.79649-4.2794-1.79649-4.2794s1.30062 2.9076.84945 4.29577c-.32339.99499-1.25691 2.16093-2.30276 2.13275-1.18269-.0319-2.18622-1.40006-2.47042-2.54854-.1626-.65709.12251-1.63157.44831-2.44182-.13331-.11856-.20275-.1006-.31373-.1649z" class="steel_piercing" id="XMLID_525_-3-90-02-6"/><path id="path5193" class="shadow" d="m277.66472 447.99831c-.77648.99125-2.11018 2.90485-1.96517 4.19188.22781 2.02187 1.90351 4.72055 3.93739 4.66429 1.99279-.0551 3.3524-2.79813 3.59928-4.77632.21075-1.68867-1.97614-4.70734-1.97614-4.70734s1.43068 3.19836.9344 4.72534c-.35573 1.09449-1.3826 2.37703-2.53304 2.34603-1.30096-.0351-2.40484-1.54007-2.71746-2.8034-.24054-.97203.40961-2.57547.86146-3.52183-.0528-.0739-.10593-.0582-.14072-.11865z"/><path d="m277.8288 448.37238c-.70589.90114-1.91835 2.64077-1.78652 3.8108.2071 1.83806 1.73046 4.29141 3.57945 4.24026 1.81162-.0501 3.04763-2.54375 3.27207-4.34211.19159-1.53515-1.79649-4.2794-1.79649-4.2794s1.30062 2.9076.84945 4.29577c-.32339.99499-1.25691 2.16093-2.30276 2.13275-1.18269-.0319-2.18622-1.40006-2.47042-2.54854-.21867-.88367.37237-2.34134.78315-3.20167-.048-.0672-.0963-.0529-.12793-.10786z" class="steel_piercing" id="XMLID_525_-3-90-2"/><path id="path5195" class="shadow" d="m272.51068 442.76173s-2.70247 3.03537-2.49919 4.83954c.22781 2.02186 1.90351 4.72055 3.93739 4.66428 1.99279-.0551 3.3524-2.79812 3.59928-4.77632.21075-1.68866-1.97614-4.70734-1.97614-4.70734s1.43068 3.19836.9344 4.72535c-.35573 1.09449-1.3826 2.37702-2.53304 2.34602-1.30096-.0351-2.40484-1.54006-2.71746-2.80339-.35775-1.44571 1.25476-4.28814 1.25476-4.28814z"/><path d="m272.62621 443.19376s-2.45679 2.75943-2.27199 4.39958c.2071 1.83806 1.73046 4.29141 3.57945 4.24026 1.81162-.0501 3.04763-2.54375 3.27207-4.34211.19159-1.53515-1.79649-4.2794-1.79649-4.2794s1.30062 2.9076.84945 4.29577c-.32339.99499-1.25691 2.16093-2.30276 2.13275-1.18269-.0319-2.18622-1.40006-2.47042-2.54854-.32523-1.31428 1.14069-3.89831 1.14069-3.89831z" class="steel_piercing" id="XMLID_525_-3-90-0-7"/></svg>