<svg viewBox="0 0 560 1e3"><g id="g231078" data-transform="boob_right"><path id="path231076" d="m162.28062 306.93984c-3.79327.77617-8.3159-1.44663-11.25574-4.34746-2.42615-2.39374-2.80815-4.53477-2.88386-7.55499-.009-.38896.12142-1.82584.21427-2.20754 1.29272-5.31668 4.30856-7.88324 5.33403-8.72179 1.35754-1.11008 3.99055-2.99481 7.18716-3.30506 7.37028-.71528 16.35577 3.29565 15.87655 12.03587-.31656 5.77377-6.83156 14.10097-14.47393 14.10097z" class="areola"/></g><g id="g231082" data-transform="boob_left"><path id="path231080" d="m300.53466 297.70466c-10.13736-1.1182-20.38185-8.58936-20.42994-15.28572-.0616-8.54594 12.86953-17.46528 24.22892-16.96823 10.68197.46741 21.82926 7.43438 19.63952 17.79234-2.18974 10.35797-11.31749 15.79858-23.4385 14.46161z" class="areola"/></g></svg>