<svg viewBox="0 0 560 1e3"><path d="m248.61114 390.48436c0 1.10235-1.23611 2.33846-2.33846 2.33846s-2.33846-1.23611-2.33846-2.33846 1.23611-2.33846 2.33846-2.33846 2.33846 1.23611 2.33846 2.33846z" id="path5483" class="shadow"/><path d="m249.36114 402.48436c0 1.10235-1.23611 2.33846-2.33846 2.33846s-2.33846-1.23611-2.33846-2.33846 1.23611-2.33846 2.33846-2.33846 2.33846 1.23611 2.33846 2.33846z" id="path5485" class="shadow"/><path class="steel_piercing" id="path2749-8-0-3" d="m248.39855 390.48436c0 1.00214-1.12373 2.12587-2.12587 2.12587s-2.12587-1.12373-2.12587-2.12587 1.12373-2.12587 2.12587-2.12587 2.12587 1.12373 2.12587 2.12587z"/><path class="steel_piercing" id="path2749-8-6-9" d="m249.14855 402.48436c0 1.00214-1.12373 2.12587-2.12587 2.12587s-2.12587-1.12373-2.12587-2.12587 1.12373-2.12587 2.12587-2.12587 2.12587 1.12373 2.12587 2.12587z"/></svg>