<svg viewBox="0 0 560 1e3"><g style="display:inline" id="g21356"><path d="m292.63216 466.59055c-1.02651-.11529-3.30861-1.40438-4.71855-3.72632 1.95692.61699 2.55786.43797 4.63699.40739.53478 1.10631-.24529 2.21262.0816 3.31893z" class="skin torso" id="path21340"/><path id="path21342" class="skin torso" d="m301.16804 466.8611c.16093-.88833.48583-2.02312.61155-3.29059-1.52237.0748-2.16359-.01-2.82873-.0497-.0614.43139-.92597 2.23675 2.21718 3.34029z"/><path id="path21344" class="skin_shade" d="m292.63216 466.59055c-1.02651-.11529-3.30861-1.40438-4.71855-3.72632 1.95692.61699 2.55786.43797 4.63699.40739.53478 1.10631-.24529 2.21262.0816 3.31893z"/><path d="m292.63216 466.59055c-1.02651-.11529-3.30861-1.40438-4.71855-3.72632 1.95692.61699 2.55786.43797 4.63699.40739.53478 1.10631-.24529 2.21262.0816 3.31893z" class="skin_shade" id="path21346"/><path id="path21348" class="skin_shade" d="m292.63216 466.59055c-1.02651-.11529-3.30861-1.40438-4.71855-3.72632 1.95692.61699 2.55786.43797 4.63699.40739.53478 1.10631-.24529 2.21262.0816 3.31893z"/><path d="m301.16804 466.8611c.16093-.88833.48583-2.02312.61155-3.29059-1.52237.0748-2.16359-.01-2.82873-.0497-.0614.43139-.92597 2.23675 2.21718 3.34029z" class="skin_shade" id="path21350"/><path id="path21352" class="skin_shade" d="m301.16804 466.8611c.16093-.88833.48583-2.02312.61155-3.29059-1.52237.0748-2.16359-.01-2.82873-.0497-.0614.43139-.92597 2.23675 2.21718 3.34029z"/><path d="m301.16804 466.8611c.16093-.88833.48583-2.02312.61155-3.29059-1.52237.0748-2.16359-.01-2.82873-.0497-.0614.43139-.92597 2.23675 2.21718 3.34029z" class="skin_shade" id="path21354"/></g><g id="g21364"><path d="m292.03147 431.91301c-5.16809 2.48471-7.39582 3.89316-12.18986.96349-.0959 6.8953 1.1521 19.31094 7.08418 29.62194.52905.26014 1.52415.47516 2.82257.5602 1.42802.0935 3.22523.046 5.22662.1051 4.24981.12543 7.85842.74513 10.96346-1.06058-4.79546-10.18152-10.17091-21.06803-13.90697-30.19015z" id="path21360" class="panties_accent"/><path id="path21362" d="m291.09029 432.36493c-5.49303 2.64135-7.05963 2.59143-10.34583.97596.46931 4.91227 1.48693 21.36298 6.99318 29.43381.53083.13054 1.21362.23173 2.01072.28394 1.42802.0935 3.22523.046 5.22662.1051 3.92534.11585 7.14369.7067 10.059-.62664-2.94246-8.60073-8.91925-16.5434-13.94369-30.17217z" class="panties_primary"/></g><g id="g21384"><path d="m292.18555 431.86914c-.0505.0241-.0944.0445-.14453.0684 3.73564 9.11711 9.10531 19.99361 13.89648 30.16602-2.17046-4.90027-10.01589-21.11226-13.75195-30.23438zm13.75195 30.23438c-3.10504 1.80571-6.71308 1.18597-10.96289 1.06054-2.00139-.0591-3.79854-.012-5.22656-.10547-1.29842-.085-2.29322-.3004-2.82227-.56054.52905.26014 1.34807.65324 2.64649.73828 1.42802.0935 3.46736.002 5.46875.0605 4.24981.12542 8.05661.78913 10.89648-1.19336zm-19.01172.39453c-5.92645-10.30122-7.17724-22.7004-7.08398-29.59961-.0822-.0462-.16093-.0841-.24414-.13282-.0959 6.89531 1.55229 21.32768 7.32812 29.73243zm3.38477-29.75391c-3.55537 1.60343-6.22086 2.29588-9.82617.5 3.81499 2.11759 6.02924 1.32278 9.82617-.5z" id="path21386" class="shadow"/><path class="panties_accent" id="path21380" d="m292.03147 431.91301c-5.16809 2.48471-7.39582 3.89316-12.18986.96349-.0959 6.8953 1.1521 19.31094 7.08418 29.62194.52905.26014 1.52415.47516 2.82257.5602 1.42802.0935 3.22523.046 5.22662.1051 4.24981.12543 7.85842.74513 10.96346-1.06058-4.79546-10.18152-10.17091-21.06803-13.90697-30.19015z"/><path class="panties_primary" d="m291.09029 432.36493c-5.49303 2.64135-7.05963 2.59143-10.34583.97596.46931 4.91227 1.48693 21.36298 6.99318 29.43381.53083.13054 1.21362.23173 2.01072.28394 1.42802.0935 3.22523.046 5.22662.1051 3.92534.11585 7.14369.7067 10.059-.62664-2.94246-8.60073-8.91925-16.5434-13.94369-30.17217z" id="path21382"/></g></svg>