<svg viewBox="0 0 560 1e3"><path d="m342.07604 173.74841c77e-5.44722-.1327.84994-.1768 1.20779-2.98271 7.87613-33.43077 15.30497-36.83077 15.00497-6.1-.5-7.7-5.8-7.9-6.3-.7-2.1-.5-5.2.8-6.4 1.3-1.4 2.5-1.4 3.3.7-.90837.3063 19.4784 5.06534 35.16441-8.98819.62323-1.65577 2.32272-1.61399 3.84618.0828 1.12036 1.33971 1.83915 3.21676 1.79698 4.69264" id="path7-2" style="fill:#f2f24c"/><path d="m305.36847 189.56117c-6 0-7.8-4.9-8-5.3-.8-1.9-.7-4.8.5-6.1 1.2-1.4 2.4-1.5 3.2.4-.48772.48643 14.15539 5.63962 34.55935-9.63152 1.35866-1.01687 2.18848-1.65847 3.66668-.27467 1.52307 1.47317 2.28751 3.88681 1.75364 5.4977-2.58037 7.786-32.37967 15.40849-35.67967 15.40849z" id="path9-88" style="fill:#f7d548"/><path d="m305.03588 194.23829c-.35.0-.7-.05-1.0375-.1375-.3375-.0875-.6625-.2125-.9625-.3625-.65-.35-1.15-.875-1.4875-1.4875-.3375-.6125-.5125-1.3125-.5125-2.0125.0-.35.05-.7.1375-1.0375s.2125-.6625.3625-.9625c.2-.35.45-.675.7375-.95.2875-.275.6125-.5.9625-.65.1-.05.225-.05.35-.0125.125.0375.25.1125.35.2125.05.1.05.225.0125.35s-.1125.25-.2125.35c-.25.15-.5.325-.725.525-.225.2-.425.425-.575.675s-.25.5-.3125.75-.0875.5-.0875.75c0 .55.15 1.075.4125 1.5375.2625.4625.6375.8625 1.0875 1.1625.25.15.5.25.75.3125s.5.0875.75.0875c.55.0 1.075-.15 1.5375-.4125.4625-.2625.8625-.6375 1.1625-1.0875.15-.25.25-.5.3125-.75s.0875-.5.0875-.75c0-.55-.15-1.075-.4125-1.5375-.2625-.4625-.6375-.8625-1.0875-1.1625-.1-.05-.175-.15-.2125-.275-.0375-.125-.0375-.275.0125-.425.05-.1.15-.175.275-.2125s.275-.0375.425.0125c.65.35 1.15.875 1.4875 1.4875.3375.6125.5125 1.3125.5125 2.0125.0.35-.05.7-.1375 1.0375s-.2125.6625-.3625.9625c-.4.6-.925 1.1-1.5375 1.45s-1.3125.55-2.0625.55z" id="path11-8" style="fill:#fefff2"/></svg>