<svg viewBox="0 0 560 1e3"><path id="path5419" class="shadow" d="m297.66067 465.17887s-.14021 4.48814 1.43 5.61c1.85573 1.32586 5.3301 1.17681 6.82-.55 1.44036-1.66939.96976-4.90468-.44-6.6-1.13722-1.36755-5.17-1.32-5.17-1.32s3.53555.87174 4.29 2.31c.61694 1.17613.481 3.0031-.44 3.96-1.02846 1.06855-3.08027 1.33662-4.4.66-1.35712-.69578-2.09-4.07-2.09-4.07z"/><path id="path5421" class="shadow" d="m293.50642 454.46178s-.14021 4.48814 1.43 5.61c1.85573 1.32586 5.3301 1.17681 6.82-.55 1.44036-1.66939.96976-4.90468-.44-6.6-1.13722-1.36755-5.17-1.32-5.17-1.32s3.53555.87174 4.29 2.31c.61694 1.17613.481 3.0031-.44 3.96-1.02846 1.06855-3.08027 1.33662-4.4.66-1.35712-.69578-2.09-4.07-2.09-4.07z"/><path id="path5423" class="shadow" d="m289.39263 454.83744s.1402 4.48813-1.43 5.61c-1.85574 1.32585-5.33011 1.1768-6.82-.55-1.44036-1.6694-.96977-4.90469.44-6.6 1.13722-1.36756 5.17-1.32 5.17-1.32s-3.53555.87173-4.29 2.31c-.61695 1.17613-.481 3.00309.44 3.96 1.02845 1.06854 3.08027 1.33662 4.4.66 1.35712-.69579 2.09-4.07 2.09-4.07z"/><path id="path5425" class="shadow" d="m293.21542 466.08485s.14021 4.48814-1.43 5.61c-1.85573 1.32586-5.3301 1.17681-6.82-.55-1.44035-1.66939-.96976-4.90468.44-6.6 1.13722-1.36755 5.17-1.32 5.17-1.32s-3.53554.87174-4.29 2.31c-.61694 1.17614-.48099 3.0031.44 3.96 1.02846 1.06855 3.08028 1.33663 4.4.66 1.35713-.69578 2.09-4.07 2.09-4.07z"/><path d="m298.07532 465.34408s-.12746 4.08013 1.3 5.1c1.68703 1.20533 4.84555 1.06983 6.2-.5 1.30942-1.51763.8816-4.4588-.4-6-1.03383-1.24323-4.7-1.2-4.7-1.2s3.21414.79249 3.9 2.1c.56086 1.06921.43728 2.73009-.4 3.6-.93496.97141-2.80024 1.21511-4 .6-1.23374-.63253-1.9-3.7-1.9-3.7z" class="steel_piercing" id="XMLID_525_-3-48"/><path d="m293.92107 454.62699s-.12746 4.08013 1.3 5.1c1.68703 1.20533 4.84555 1.06983 6.2-.5 1.30942-1.51763.8816-4.4588-.4-6-1.03383-1.24323-4.7-1.2-4.7-1.2s3.21414.79249 3.9 2.1c.56086 1.06921.43728 2.73009-.4 3.6-.93496.97141-2.80024 1.21511-4 .6-1.23374-.63253-1.9-3.7-1.9-3.7z" class="steel_piercing" id="XMLID_525_-3-9"/><path d="m288.97798 455.00265s.12745 4.08012-1.3 5.1c-1.68704 1.20532-4.84556 1.06982-6.2-.5-1.30942-1.51764-.88161-4.45881.4-6 1.03383-1.24324 4.7-1.2 4.7-1.2s-3.21414.79248-3.9 2.1c-.56087 1.06921-.43728 2.73008.4 3.6.93495.9714 2.80024 1.21511 4 .6 1.23374-.63254 1.9-3.7 1.9-3.7z" class="steel_piercing" id="XMLID_525_-3-2"/><path d="m292.80077 466.25006s.12746 4.08013-1.3 5.1c-1.68703 1.20533-4.84555 1.06983-6.2-.5-1.30941-1.51763-.8816-4.4588.4-6 1.03383-1.24323 4.7-1.2 4.7-1.2s-3.21413.79249-3.9 2.1c-.56086 1.06922-.43727 2.73009.4 3.6.93496.97141 2.80025 1.21512 4 .6 1.23375-.63253 1.9-3.7 1.9-3.7z" class="steel_piercing" id="XMLID_525_-3-03"/></svg>