<svg viewBox="0 0 560 1e3"><path id="path2735" d="m358.5887 178.95455c11.59151-3.04656 27.91436 10.04694 27.2351 21.9566.50082 10.83419-11.72906 18.24361-23.26882 22.09442-.60666.46821-1.40053 13.57923-1.6395 13.54509.0.0-17.85326-4.21656-20.4651-11.61228-5.48693-15.53689 2.20761-41.77507 18.13832-45.98383z" class="shadow"/><path class="skin arm" d="m358.5887 178.95455c11.27433-2.97859 26.97612 10.29832 27.2351 21.9566.23694 10.66626-12.67703 17.64036-23.26882 22.09442-1.1315.47581-1.6395 13.54509-1.6395 13.54509s-17.85326-4.21656-20.4651-11.61228c-5.48693-15.53689 2.20761-41.77507 18.13832-45.98383z" id="path62-3"/><path id="path1429" d="m266.62049 190.96644c14.7851-4.44494 28.94581 4.9963 30.24031 16.38814 1.33327 11.7331-14.82389 22.17579-26.56495 23.43702-7.77555.83525-18.48928-3.87003-20.48786-11.43061-2.96217-11.75747 1.80873-22.72825 16.8125-28.39455z" class="shadow"/><path class="skin arm" d="m266.62049 190.96644c11.05043-3.05578 28.94581 4.9963 30.24031 16.38814 1.33327 11.7331-14.82389 22.17579-26.56495 23.43702-7.77555.83525-18.44985-3.88056-20.48786-11.43061-2.86655-10.61946 6.21083-25.46287 16.8125-28.39455z" id="path62-3-9"/></svg>