<svg viewBox="0 0 560 1e3"><path id="path1422" class="highlight1" d="m276.31935 136.60153c-1.74948-1.08152-2.82634-.70082-4.14058-.83618 1.46255 1.3039 2.31388 1.58407 4.14058.83618z"/><path id="path1424" class="highlight1" d="m283.0156 136.69833c.33283-.52775-.16277-1.40573-.68949-1.74018-.5567-.35349-1.62751-.43801-1.97452.12275-.33312.53831.20098 1.41744.74031 1.7489.54759.33653 1.58085.41218 1.9237-.13147z"/><path id="path1426" class="highlight1" d="m319.26713 128.31283c.40208-.65326.15902-1.79617-.45511-2.25581-.76332-.57128-2.3685-.57543-2.84953.24775-.47889.81956.31823 2.19001 1.17781 2.59266.66581.31188 1.74144.0415 2.12683-.5846z"/><path id="path1428" class="highlight1" d="m308.9531 132.21396c-1.95261-.58152-3.31071-.68519-4.64058-1.07055 1.46255 1.3039 2.81388 1.81844 4.64058 1.07055z"/><path id="path1430" class="highlight1" d="m309.12579 132.53462c.22973-.28484.11628-.86094-.17386-1.08393-.32114-.24683-.95451-.19244-1.2089.12275-.21702.26887-.14841.8069.11531 1.03015.32294.27338 1.00184.26038 1.26745-.069z"/><path id="path1432" class="highlight2" d="m321.26909 125.30626c-4.30477 3.52286-11.2025 5.59241-16.78875 6.98058.42493.38132 2.61485.92369 2.61485.92369 3.74766-.56824 8.59308-.25714 11.14846-2.06598.0.0 2.93081-1.48083 3.02544-5.83829z"/><path id="path1434" class="highlight2" d="m283.12848 135.7569c.0421.92348-6.71985.86812-11.99443.17998.37816 1.02046 3.3093 3.19461 3.3093 3.19461 2.95098-.14535 5.90671-.44256 8.6931-1.16398.9821-1.2502.32176-1.64424-.008-2.21061z"/></svg>