<svg viewBox="0 0 560 1e3"><path class="areola" d="m312.36549 244.87514c-3.61722-.50693-7.2727-3.89397-7.28985-6.92977-.0217-3.87428 4.59215-7.91784 8.64542-7.69252 3.81157.2119 7.78917 3.37036 7.00783 8.06614-.78135 4.69578-4.03833 7.16227-8.3634 6.55615z" id="path3496"/><path class="shadow" d="m313.47573 239.66032c-1.94762-.0319-2.30525-.47307-2.84254-1.38769-.0692-.11498-.14074-.6753-.039-1.04629.26998-.9844 1.38054-1.82945 2.49788-1.77138 1.83776.0955 2.2692 2.11008 2.25662 2.11245-.19082.92279-.63028 2.09291-1.87298 2.09291z" id="path3498"/><path id="path3500" d="m313.47573 239.66032c-1.94762-.0319-2.40618-.60407-2.84254-1.38769-.0133.01-.14074-.6753-.039-1.04629.26998-.9844 1.53307-1.84755 2.49788-1.77138 1.78528.14096 2.2692 2.11008 2.25662 2.11245-.15647.78536-.63028 2.09291-1.87298 2.09291z" class="areola"/><path class="shadow" d="m311.35893 236.87262c.87662-.34085 1.71217.12006 2.25579.57658-.65277-.31849-1.48757-.75499-2.25579-.57658z" id="path3502"/><path id="path3504" d="m312.37165 236.86687c.50004-.43498.80129-.55077 1.55144-.47994-.70137.0247-1.0201.15274-1.55144.47994z" class="shadow"/><path class="areola" d="m246.55371 247.8122c-1.42904-.30609-2.86721-1.66227-3.78493-3.35714.0197-3.59726 1.17678-6.84032 2.2875-10.24949.83401-.69815 1.50768-1.09014 2.38433-1.01566 2.49382.21188 5.09628 3.37036 4.58507 8.06614-.51122 4.69578-2.64219 7.16228-5.47197 6.55615z" id="path3506"/><path class="shadow" d="m246.84943 242.44113c-1.78297-.0319-2.11037-.47307-2.60223-1.38769-.0634-.11498-.12885-.6753-.0357-1.04629.24716-.9844 1.26383-1.82945 2.28672-1.77138 1.68239.0955 2.07736 2.11008 2.06584 2.11245-.17469.92279-.57699 2.09291-1.71464 2.09291z" id="path3508"/><path id="path3510" d="m246.84943 242.44113c-1.78297-.0319-2.20276-.60407-2.60223-1.38769-.0122.01-.12885-.6753-.0357-1.04629.24716-.9844 1.40347-1.84755 2.28672-1.77138 1.63435.14096 2.07736 2.11008 2.06584 2.11245-.14324.78536-.57699 2.09291-1.71464 2.09291z" class="areola"/><path class="shadow" d="m244.21552 240.06223c.80251-.34085 1.56743.12006 2.06509.57658-.59758-.31849-1.36181-.75499-2.06509-.57658z" id="path3512"/><path id="path3514" d="m245.14263 240.05648c.45777-.43498.73355-.55077 1.42028-.47994-.64208.0247-.93386.15274-1.42028.47994z" class="shadow"/></svg>