<svg viewBox="0 0 560 1e3"><defs><filter style="color-interpolation-filters:sRGB" id="filter53277"><feGaussianBlur stdDeviation="2 2" result="blur" id="feGaussianBlur53275"/></filter><filter style="color-interpolation-filters:sRGB" id="filter53277-8"><feGaussianBlur stdDeviation="2 2" result="blur" id="feGaussianBlur53275-6"/></filter><filter style="color-interpolation-filters:sRGB" id="filter22046"><feGaussianBlur stdDeviation="0.5 0.5" result="blur" id="feGaussianBlur22044"/></filter><filter style="color-interpolation-filters:sRGB" id="filter22046-8"><feGaussianBlur stdDeviation="0.5 0.5" result="blur" id="feGaussianBlur22044-6"/></filter><clipPath clipPathUnits="userSpaceOnUse" id="clipPath22526"><path d="m252.16186 205.25451c-8.01108 14.27327-.57234 8.73771-15.32584 55.05586-5.30702 16.66124-8.22787 34.77499-11.65315 45.85088-2.49841 8.07878-5.91208 13.38402-9.04742 27.87053-5.92633 27.38199-3.23079 35.14195-14.75956 112.34327.69913.51823 1.81398.4316 2.25115.50565-.16868-.68758-.13963-.79291-.22503-1.17543 8.81707-2.78303 13.80798-2.5044 21.7968-.60893-.009.26564-.0169.14109.0228.51698.32905-.044.54969-.1657.80256-.31814 7.82834-56.63061 22.66946-97.87641 25.08713-122.75172.48106-4.94958 7.89246-30.41147 9.08602-34.83434 4.76983-17.67518 9.39733-46.81328 9.92011-50.04434 2.83026-17.49246 4.08277-42.25564 2.97693-47.35463-9.76934 1.08946-15.73606 5.68598-20.93246 14.94436z" id="path22528" style="fill-opacity:.5;fill:#0ff"/></clipPath></defs><path class="top_primary" id="path21460" d="m252.16186 205.25451c-8.01108 14.27327-.57234 8.73771-15.32584 55.05586-5.30702 16.66124-8.22787 34.77499-11.65315 45.85088-2.49841 8.07878-5.91208 13.38402-9.04742 27.87053-5.92633 27.38199-3.23079 35.14195-14.75956 112.34327.69913.51823 1.81398.4316 2.25115.50565-.16868-.68758-.13963-.79291-.22503-1.17543 8.81707-2.78303 13.80798-2.5044 21.7968-.60893-.009.26564-.0169.14109.0228.51698.32905-.044.54969-.1657.80256-.31814 7.82834-56.63061 22.66946-97.87641 25.08713-122.75172.48106-4.94958 7.89246-30.41147 9.08602-34.83434 4.76983-17.67518 9.39733-46.81328 9.92011-50.04434 2.83026-17.49246 4.08277-42.25564 2.97693-47.35463-9.76934 1.08946-15.73606 5.68598-20.93246 14.94436z"/><path id="path21464" d="m215.34483 443.64639c-3.49093.003-7.26093.55677-11.92981 1.91337-.66993.19467-1.32339.52704-2.03217.75548l.005.0494.0448.0275c.63452-.20451 1.21424-.44957 1.81715-.6269 8.8552-2.6045 14.44488-2.33441 21.00572-.87849.5661.12562 1.12229.24894 1.69214.38241l.11335-.10728-.66453-.16865c-3.45968-.87802-6.62878-1.34939-10.05248-1.34677z" style="baseline-shift:baseline;clip-rule:nonzero;color-interpolation-filters:linearRGB;color-interpolation:sRGB;color-rendering:auto;color:#000;direction:ltr;display:inline;dominant-baseline:auto;enable-background:accumulate;fill-opacity:1;fill-rule:nonzero;fill:#000;image-rendering:auto;isolation:auto;mix-blend-mode:normal;opacity:1;overflow:visible;shape-padding:0;shape-rendering:auto;solid-color:#000000;solid-opacity:1;stroke-dasharray:none;stroke-dashoffset:0;stroke-linecap:butt;stroke-linejoin:miter;stroke-miterlimit:4;stroke-opacity:1;stroke-width:.1511811;stroke:none;vector-effect:none;visibility:visible;white-space:normal;writing-mode:lr-tb"/><g id="g22522" clip-path="url(#clipPath22526)"><g id="g21504" clip-path="none"><g id="g21470" style="display:inline;opacity:1" transform="rotate(-47.552632,273.56465,397.03027)"><path class="top_primary_strong_highlight" id="path21466" d="m349.07422 314.55079c-22.71127 7.78237-42.89477 10.67314-58.5586 4.8457l-.0937.1914c15.82561 5.88764 36.64493 6.40191 59.4041-1.39688z"/></g><g clip-path="none" style="display:inline;filter:url(#filter53277-8);opacity:1" id="g21496" transform="translate(0,2.4103812e-6)"><g style="display:inline;opacity:1" id="g21476"><path d="m274.74721 175.86151c-.95233 23.462-55.0266 56.60212-51.93253 44.59015 1.29627-30.00837 58.29551-48.72751 51.93253-44.59015z" id="path21472" class="top_primary_highlight"/><path d="m272.99721 174.04901c-.95233 23.462-55.0266 56.60212-51.93253 44.59015 1.29627-30.00837 58.29551-48.72751 51.93253-44.59015z" id="path21474" class="top_primary_highlight"/></g><g style="display:inline;opacity:1" id="g21486"><path class="top_primary_shade" id="path21478" d="m223.51387 461.33743c31.47443-16.4578 36.58586-182.68208 33.06547-204.04193-2.93272-17.7942-5.10194 14.01888-13.71662 41.36181-3.01447 9.56789-6.91941 22.52038-8.09068 30.13147-2.12775 13.82653-8.20805 90.01345-11.25817 132.54865z"/><path d="m228.9873 441.39291c22.09943-3.8328 35.62024-164.41694 32.09985-185.77679-2.93272-17.7942-5.10194 14.01888-13.71662 41.36181-3.01447 9.56789-7.16941 22.77038-8.34068 30.38147-2.12775 13.82653-10.61743 96.74831-10.04255 114.03351z" id="path21480" class="top_primary_shade"/><path class="top_primary_shade" id="path21482" d="m239.77912 375.77419c16.34943-.5828 27.74524-99.41694 24.22485-120.77679-2.93272-17.7942-5.10194 14.01888-13.71662 41.36181-3.01447 9.56789-6.66941 21.52038-7.84068 29.13147-2.12775 13.82653-2.86743 36.87331-2.66755 50.28351z"/><path d="m247.57094 372.06708c14.47443-3.2078 22.87024-96.41694 19.34985-117.77679-2.93272-17.7942-5.10194 14.01888-13.71662 41.36181-3.01447 9.56789-6.41941 21.64538-7.59068 29.25647-2.12775 13.82653-2.24243 31.12331 1.95745 47.15851z" id="path21484" class="top_primary_shade"/></g><g style="display:inline;opacity:1" id="g21494"><path d="m242.42491 231.72969c4.91739 7.80767-5.09062 62.86029-17.58246 94.38238-6.04674 15.2584-18.05046 190.87841-32.97507 128.20777 1.29627-30.00837 32.79551-221.47751 50.55753-222.59015z" id="path21488" class="top_primary_highlight"/><path class="top_primary_highlight" id="path21490" d="m240.04991 230.72969c4.8868 7.7591-4.9667 62.17729-17.34967 93.79149-6.10904 15.59663-20.78868 168.30186-26.66281 164.45746-26.81123-.48666 26.25046-257.13631 44.01248-258.24895z"/><path d="m224.12591 303.55228c1.61093 12.41346-4.73363 33.35598-12.6881 40.17073 1.29627-30.00837-7.73059-27.24915 12.6881-40.17073z" id="path21492" class="top_primary_highlight"/></g></g><g transform="rotate(-55.504935,278.15536,381.7482)" style="display:inline;opacity:1" id="g21502"/></g><g clip-path="none" id="g22746-4-7-3-2" transform="translate(-506.91197,-83.887087)" style="display:inline;filter:url(#filter22046-8)"><path d="m730.84333 434.38438c-6.48797 26.28874-7.91451 65.74473-8.52877 85.40214 3.87407-11.70939 9.29854-64.88836 8.52877-85.40214z" class="highlight2" id="path22967-5-5-2-5"/><path d="m729.16688 451.35658c-1.73467 11.86363-1.86676 42.40473-4.7119 51.32502.50958-12.77914 1.93854-40.37325 4.7119-51.32502z" class="highlight1" id="path2688-9-7-4-0-8-5-4"/><path d="m742.41089 401.36728c4.56333-26.56358 12.02929-33.99926 14.29806-81.76856.3039 6.2033-13.60238 64.43439-14.29806 81.76856z" class="highlight2" id="path22967-5-5-3-6-9"/><path d="m745.1824 382.76403c2.56448-6.44794 4.76932-22.41482 10.69029-42.17252-2.44928 10.71763-5.94359 30.98217-10.69029 42.17252z" class="highlight1" id="path2688-9-7-4-0-8-6-3-8"/><path id="path2655-5-7-5-3-7-7" class="highlight2" d="m708.92897 465.09184c4.86883-2.3203 9.38533 67.33192-5.76525 66.92371 4.05017 2.66747-11.5834-63.62325 5.76525-66.92371z"/><path d="m758.04591 293.21145c2.3022 4.39404 1.70974 8.77861-1.68732 14.25177-.25419-7.63858-.80721-9.90364 1.68732-14.25177z" class="highlight2" id="path22037-07"/><path id="path22039-1" class="highlight2" d="m759.21309 284.95228c.96753 1.84667.71855 3.68937-.70913 5.98957-.10683-3.21025-.33925-4.16219.70913-5.98957z"/><path d="m749.72365 274.92175c-3.21396 5.76103-11.14815 20.56839-12.07885 32.56977-1.34051 17.28594-2.93118 35.96212-6.09478 42.3184.35733-3.25029-8.27512-75.96329 18.17363-74.88817z" class="highlight2" id="path22041-7"/><path d="m723.80397 396.46684c11.37332-3.25927 4.452.98309.9927 20.50266-2.6987 15.22777-5.03958 30.17882-11.88295 30.04605 4.05017 2.66747-6.4584-47.24825 10.89025-50.54871z" class="highlight2" id="path22488"/></g></g><path d="m273.09375 190.31055c-11.31456 1.20881-16.85756 6.34997-21.15234 14.67968-8.01108 14.27327-.8383 8.73654-15.5918 55.05469-5.30702 16.66124-8.22706 34.77567-11.65234 45.85156-2.49841 8.07878-5.91349 13.38459-9.04883 27.8711-4.2419 19.59925-4.76223 33.31052-8.27149 64.94726-1.39354 12.56301-4.16719 27.95324-6.00195 47.66016 11.52877-77.20132 8.83344-84.96176 14.75977-112.34375 3.13534-14.48651 6.55041-19.79036 9.04882-27.86914 3.42528-11.07589 6.34533-29.19032 11.65235-45.85156 14.7535-46.31815 7.31509-40.78337 15.32617-55.05664 5.1964-9.25838 11.1623-13.8539 20.93164-14.94336z" id="path23888" class="shadow"/></svg>