<svg viewBox="0 0 560 1e3"><path style="fill:#010101" d="m375.93172 382.91533c.10459.23328.2096.4632.31434.69917 68e-5-.004.001-.009.003-.0137-.10537-.23747-.21177-.45055-.31696-.68549l-4e-5 2e-5z" id="path34999-1-9"/><path class="shadow" d="m360.61871 351.90272c-12.52139 1.88-25.25367 3.81523-39.74258 5.79081-14.08888 1.92104-28.76145 3.7257-42.67309 5.05338-28.68116 2.73725-51.09663 3.30188-68.80916-.51056-1.83248 10.24264-2.30185 19.60501-.84624 31.27222.73722 5.90908 1.81416 11.40216 3.13934 18.09852 1.27424 6.43892 2.64941 13.37692 3.43759 20.87823.94823 9.02466 1.56337 18.01085 2.75649 26.92685.16758.01.46515 2e-5.46515 2e-5-1.14497-8.76372-1.81448-17.59339-2.77993-26.56135-.80676-7.49388-2.21101-14.44583-3.50814-20.88393-1.34993-6.7001-2.44723-12.20259-3.20058-18.11814-1.4867-11.67409-1.02663-21.07002.83304-31.31156 17.65586 3.81834 39.95089 3.25183 68.4575.51651 13.83141-1.32718 28.43664-3.13221 42.48628-5.05304 14.46072-1.97703 27.16914-3.9094 39.73078-5.79048 3.49527 7.55279 8.64734 15.85583 14.21126 27.74511-4.50444-9.72038-9.45327-18.33222-13.95771-28.05259z" id="path35001-3-08"/><path class="bottoms_primary" d="m360.36516 352.2102c-12.56164 1.88108-25.27006 3.81345-39.73078 5.79048-14.04964 1.92083-28.65487 3.72586-42.48628 5.05304-28.50661 2.73532-50.80164 3.30183-68.4575-.51651-1.85967 10.24154-2.31974 19.63747-.83304 31.31156.75335 5.91555 1.85065 11.41804 3.20058 18.11814 1.29713 6.4381 2.70138 13.39005 3.50814 20.88393.96545 8.96796 1.63536 17.79797 2.77993 26.56135 58.58465.0123 175.59181-7e-5 175.59181-7e-5.12061-11.13773-1.64508-23.45874-4.18428-34.70233-2.57879-11.41889-5.9324-21.66064-8.79846-29.48593-7.60408-20.76164-15.76535-32.58799-20.59012-43.01366z" id="path35003-1-9"/></svg>