<svg viewBox="0 0 560 1e3"><g data-transform="boob_left" id="g231222"><path id="path231210" class="shadow" d="m287.14483 266.90952s-7.42247 27.33081-2.92615 39.87783c3.10769 8.67201 9.8736 20.57264 19.06807 20.00408 9.09781-.56259 13.67424-13.23433 16.28514-21.96758 3.6742-12.28984-2.18914-38.41957-2.18914-38.41957s.33783 5.43269.49637 10.92147c-.50381.0179-6.99512-.001-6.99512-.001.16636 1.10345-.0512 1.57455-.0542 2.69055.0.0 6.25909-.0298 7.10448-.0491.11726 8.78953-.37712 18.72964-3.24774 25.13958-2.33166 5.20598-6.27754 10.89341-11.58952 10.93877-5.91332.0506-10.44445-6.1808-13.10753-11.95498-2.81169-6.09655-3.36472-15.52847-3.30782-23.97013 1.33551.0 2.66328-.15952 2.66328-.15952l.60053-2.71185s-1.87515-.0393-3.22117-.0393c.11875-5.14053.42033-10.30095.42033-10.30095z"/><path id="path231212" class="shadow" d="m303.32335 316.75517s-5.51218 28.25771-5.71523 42.57537c-.23213 16.3602 5.14827 48.81482 5.14827 48.81482s-1.10147-29.1482 3.26363-58.35758c-2.91124-9.69354-2.69667-33.03261-2.69667-33.03261z"/><path id="path231214" class="shadow" d="m302.56685 402.16398s-3.23214 10.68524-2.94186 16.14921c.27617 5.20041 4.41278 14.98708 4.41278 14.98708s3.12742-9.89943 2.94187-14.98708c-.20327-5.5767-4.41279-16.14921-4.41279-16.14921z"/><path d="m288.47508 269.60937s-6.7477 24.84618-2.66013 36.25256c2.82517 7.88364 8.976 18.70241 17.3346 18.18551 8.27075-.51146 12.43114-12.0312 14.80468-19.97054 3.34017-11.17256-1.99014-34.92687-1.99014-34.92687s.30712 3.56382.45125 8.55359c-.45801.0149-5.52643-.001-5.52643-.001-.0298 1.20706-.0268 1.47698-.25326 2.43433.0.0 5.06125-.0149 5.82981-.033.10654 7.9905-.34284 18.40198-2.95249 24.22916-2.11972 4.73271-5.70684 9.90309-10.53594 9.94434-5.37572.0458-9.49495-5.6189-11.91593-10.86815-2.55609-5.54232-3.05885-15.4918-3.00713-23.16604 1.21412.0 1.38337-.14493 1.38337-.14493l.47833-2.46532s-.5991-.0357-1.82289-.0357c.10803-4.67322.38212-7.98952.38212-7.98952z" class="steel_piercing" id="path231216"/><path d="m303.1858 320.90927s-5.01105 25.68884-5.19565 38.70488c-.211 14.87292 4.68024 44.3771 4.68024 44.3771s-1.00134-26.49836 2.96695-53.05235c-2.64659-8.81232-2.45154-30.02963-2.45154-30.02963z" class="steel_piercing" id="path231218"/><path d="m302.63325 403.57925s-2.93833 9.7139-2.67445 14.68114c.25118 4.72762 4.01162 13.62458 4.01162 13.62458s2.84312-8.99945 2.67444-13.62458c-.1848-5.06976-4.01161-14.68114-4.01161-14.68114z" class="steel_piercing" id="path231220"/></g><g data-transform="boob_right" id="g231236"><path id="path231224" class="shadow" d="m171.8814 278.6876s5.50188 27.03336 2.01437 39.8779c-2.08981 7.6968-5.163 20.43785-13.12666 20.00404-8.20882-.44714-9.44618-13.93827-11.21086-21.96764-2.75107-12.51759 1.50705-38.4195 1.50705-38.4195s-.23273 5.17571-.34174 10.66446c.34682.0179 3.13299-.001 3.13299-.001l-1.63282 2.69051s-.9561-.0298-1.53808-.0491c-.0807 8.7895.2598 18.98667 2.23575 25.39659 1.60516 5.20601 3.46546 10.90174 7.97838 10.9387 4.99248.0408 7.19008-6.1807 9.02336-11.95486 1.93562-6.09657 2.31634-15.7855 2.27714-24.22714-.91937.0-5.58422-.15951-5.58422-.15951.17737-1.07678.20326-1.37905.64847-2.71188.0.0 3.97974-.0393 4.90638-.0393-.0818-5.14051-.28927-10.04397-.28927-10.04397z"/><path id="path231226" class="shadow" d="m161.9024 331.14618s-5.51218 28.25771-5.71523 42.57534c-.23213 16.36023 5.14827 48.81485 5.14827 48.81485s-1.10148-29.14825 3.26363-58.35757c-2.91124-9.69355-2.69667-33.03262-2.69667-33.03262z"/><path id="path231228" class="shadow" d="m161.1459 416.55497s-3.23214 10.6853-2.94187 16.14926c.27618 5.20038 4.41279 14.98699 4.41279 14.98699s3.12742-9.89937 2.94186-14.98699c-.20326-5.57672-4.41278-16.14926-4.41278-16.14926z"/><path d="m170.96741 281.38719s5.00174 24.57581 1.83126 36.25265c-1.89982 6.99711-4.69366 18.57988-11.93335 18.1855-7.46256-.40649-8.58745-12.67118-10.1917-19.97059-2.50097-11.37963 1.37004-34.92682 1.37004-34.92682s-.2113 3.56382-.31064 8.55359c.31528.0149 1.86848-.001 1.86848-.001l-1.00984 2.44589s-.36406-.0268-.89313-.0446c-.0735 7.99044.236 18.40195 2.03252 24.22916 1.45925 4.73273 3.15042 9.91071 7.25307 9.94431 4.53864.0372 6.53643-5.61884 8.20305-10.86809 1.75965-5.54235 2.10576-15.4918 2.07014-23.16605-.83581.0-5.07658-.14493-5.07658-.14493.161-.97889.49038-1.59501.48172-2.46534.0.0 3.72575-.0357 4.56816-.0357-.0744-4.67318-.26308-7.98952-.26308-7.98952z" class="steel_piercing" id="path231230"/><path d="m161.76485 335.30029s-5.01105 25.68883-5.19565 38.70484c-.211 14.87292 4.68024 44.37713 4.68024 44.37713s-1.00134-26.49839 2.96695-53.05235c-2.64659-8.81232-2.45154-30.02962-2.45154-30.02962z" class="steel_piercing" id="path231232"/><path d="m161.21229 417.97026s-2.93835 9.71391-2.67444 14.68115c.25118 4.72761 4.01162 13.62451 4.01162 13.62451s2.84312-8.99939 2.67444-13.62451c-.18481-5.06974-4.01162-14.68115-4.01162-14.68115z" class="steel_piercing" id="path231234"/></g></svg>