<svg viewBox="0 0 560 1e3"><defs><filter style="color-interpolation-filters:sRGB" id="filter33280"><feGaussianBlur stdDeviation="2 2" result="blur" id="feGaussianBlur33278"/></filter><filter style="color-interpolation-filters:sRGB" id="filter33355"><feGaussianBlur stdDeviation="2 2" result="blur" id="feGaussianBlur33353"/></filter><filter style="color-interpolation-filters:sRGB" id="filter33355-4"><feGaussianBlur stdDeviation="2 2" result="blur" id="feGaussianBlur33353-2"/></filter><filter style="color-interpolation-filters:sRGB" id="filter33280-6"><feGaussianBlur stdDeviation="2 2" result="blur" id="feGaussianBlur33278-6"/></filter><filter style="color-interpolation-filters:sRGB" id="filter33280-6-7"><feGaussianBlur stdDeviation="2 2" result="blur" id="feGaussianBlur33278-6-8"/></filter><clipPath clipPathUnits="userSpaceOnUse" id="clipPath34181"><path style="display:inline;fill-opacity:.5;fill:teal" id="path34183" d="m386.27426 187.251c16.30651 23.31498 9.85335 42.55024 13.85709 66.02461.73854 4.33016 2.23844 22.43306 4.37026 37.3066 1.19251 8.32008 2.86296 16.21384 5.42198 22.30469 3.27548 7.79615 7.84774 19.84265 10.98308 34.32916 5.42972 25.08748 3.24447 34.88386 7.18835 83.22641.57946-1.48482.77269 9.16531 1.24646 14.27282-10.44016-3.59552-16.68624-3.1752-25.77324-.95487-.67538-4.8857-2.96583-14.84236-2.25968-14.48392-8.73866-50.48311-24.86836-93.66356-27.07745-116.3928-.48106-4.94958-3.77716-12.90886-4.96102-17.33434-5.62033-20.40526-8.59742-39.70347-8.76494-53.49614-.92668-2.05887-2.15533-6.67757-3.15517-11.9232-2.78172-17.50024-2.67652-47.22439-1.57068-52.32338 9.76934 1.08946 24.34586.6524 30.49496 9.44436z"/></clipPath></defs><path class="top_primary" id="path33879" d="m386.27426 187.251c16.30651 23.31498 9.85335 42.55024 13.85709 66.02461.73854 4.33016 2.23844 22.43306 4.37026 37.3066 1.19251 8.32008 2.86296 16.21384 5.42198 22.30469 3.27548 7.79615 7.84774 19.84265 10.98308 34.32916 5.42972 25.08748 3.24447 34.88386 7.18835 83.22641.57946-1.48482.77269 9.16531 1.24646 14.27282-10.44016-3.59552-16.68624-3.1752-25.77324-.95487-.67538-4.8857-2.96583-14.84236-2.25968-14.48392-8.73866-50.48311-24.86836-93.66356-27.07745-116.3928-.48106-4.94958-3.77716-12.90886-4.96102-17.33434-5.62033-20.40526-8.59742-39.70347-8.76494-53.49614-.92668-2.05887-2.15533-6.67757-3.15517-11.9232-2.78172-17.50024-2.67652-47.22439-1.57068-52.32338 9.76934 1.08946 24.34586.6524 30.49496 9.44436z"/><path class="top_primary_strong_shade" id="path33881" d="m413.3125 427.09961c-.51192-.0115-1.01599-.009-1.51562.008-.49964.0164-.99467.0466-1.48633.0899-1.96664.17311-3.8869.5568-5.89844 1.11718-1.00577.2802-2.03282.60447-3.10156.96875 9.46186-2.84637 18.29945-1.65813 26.77928 1.09375-.76545-.27302-1.50593-.52705-2.22461-.76367-.71867-.23662-1.41559-.45497-2.09179-.65625-1.3524-.40255-2.62365-.73636-3.83203-1.00391-1.20838-.26754-2.35427-.46834-3.45313-.60937-.54943-.0705-1.08671-.12554-1.61523-.16602-.52852-.0405-1.04863-.0666-1.56055-.0781z"/><path id="path33883" d="m417.69531 442.07617c-3.48319-.23234-7.28194.0667-12.03155 1.10592-.68152.14912-1.38262.34082-2.10517.52103l.002.0496.0428.0305c.64685-.16133 1.26851-.27088 1.88199-.40722 9.01044-2.00246 14.56926-1.35668 21.01721.53761.91458.26869 1.80285.52935 2.7656.84427l.067-.0384.001-.0532c-.58505-.19138-1.13611-.39477-1.70202-.56967-3.4102-1.05396-6.5229-1.79258-9.93901-2.02045z" style="baseline-shift:baseline;clip-rule:nonzero;color-interpolation-filters:linearRGB;color-interpolation:sRGB;color-rendering:auto;color:#000;direction:ltr;display:inline;dominant-baseline:auto;enable-background:accumulate;fill-opacity:1;fill-rule:nonzero;fill:#000;image-rendering:auto;isolation:auto;mix-blend-mode:normal;opacity:1;overflow:visible;shape-padding:0;shape-rendering:auto;solid-color:#000000;solid-opacity:1;stroke-dasharray:none;stroke-dashoffset:0;stroke-linecap:butt;stroke-linejoin:miter;stroke-miterlimit:4;stroke-opacity:1;stroke-width:.1511811;stroke:none;vector-effect:none;visibility:visible;white-space:normal;writing-mode:lr-tb"/><g clip-path="url(#clipPath34181)" id="g33919"><path id="path33885" d="m371.15932 336.48635c6.71731 23.04875 20.60468 36.28756 33.07574 51.80626l.0975-.12609c-9.50238-14.86043-23.01454-29.94358-29.746-53.04095z" class="top_primary_strong_shade"/><path id="path33887" d="m370.37758 357.64979c6.71731 23.04875 20.60468 36.28756 33.07574 51.80626l.0975-.12609c-9.50238-14.86043-23.01454-29.94358-29.746-53.04095z" class="top_primary_strong_shade"/><path id="path33889" d="m406.31678 271.45077c4.55469 23.57163 3.11958 44.43161-5.46983 62.43552l-.14434-.0676c4.77615-17.38236 9.15978-38.39126 4.59547-62.01261z" class="top_primary_strong_shade"/><g id="g33917" style="display:inline;filter:url(#filter33355-4);opacity:1" clip-path="none"><path class="top_primary_shade" id="path33891" d="m403.45078 440.82955c.84943-.3328-2.37485-29.27301-6.09057-50.59975-4.18806-24.03775-23.20901-49.27823-25.40978-20.16651 7.88361 15.6073 28.17547 87.35606 31.50035 70.76626z"/><g id="g33915"><path d="m415.11805 428.98551c.84943-.3328-1.82332-26.1126-4.49958-47.59455-2.95062-23.68419-6.41522-48.04079-9.85343-33.24798-.56117.10407 4.04224 13.53103 6.25573 31.99444 3.19383 26.6407 7.03282 61.73021 8.09728 48.84809z" id="path33893" class="top_primary_highlight"/><path class="top_primary_shade" id="path33895" d="m405.74888 438.1779c.84943-.3328-2.37485-29.27301-6.09057-50.59975-4.18806-24.03775-23.20901-49.27823-25.40978-20.16651 7.88361 15.6073 28.17547 87.35606 31.50035 70.76626z"/><g id="g33901"><path class="top_primary_highlight" id="path33897" d="m433.68198 361.59418c1.23225-29.45274 5.28115-56.6161-25.36535-59.01899-6.38464 33.61666 21.75912 73.87312 25.36535 59.01899z"/><path d="m435.27297 357.35154c1.23225-29.45274 5.28115-56.6161-25.36535-59.01899-6.38464 33.61666 21.75912 73.87312 25.36535 59.01899z" id="path33899" class="top_primary_highlight"/></g><g id="g33913" style="display:inline;filter:url(#filter33280-6-7)"><path class="top_primary_highlight" id="path33903" d="m405.40934 192.60316c-8.83905-22.19971-37.11032-23.75309-46.72801-16.34253 11.50412 14.62925 35.05083 23.90265 46.72801 16.34253z"/><path d="m406.02806 190.0399c-8.83905-22.19971-37.11032-23.75309-46.72801-16.34253 11.50412 14.62925 35.05083 23.90265 46.72801 16.34253z" id="path33905" class="top_primary_highlight"/><path class="top_primary_highlight" id="path33907" d="m407.44227 187.47664c-8.83905-22.19971-37.11032-23.75309-46.72801-16.34253 11.50412 14.62925 35.05083 23.90265 46.72801 16.34253z"/><path d="m384.44227 282.85165c.84943-.3328-1.19832-23.1126-3.87458-44.59455-2.95062-23.68419-3.66522-45.16579-5.10343-33.87298-.56117.10407-1.95776 16.40603.25573 34.86944 3.19383 26.6407 7.65782 56.48021 8.72228 43.59809z" id="path33909" class="top_primary_highlight"/><path class="top_primary_shade" id="path33911" d="m375.80471 303.02215c.84943-.3328-8.95981-31.01793-11.63607-52.49988-2.70897-21.29563-4.56349-6.50657-3.69865.73129 3.19383 26.6407 14.27026 64.65071 15.33472 51.76859z"/></g></g></g></g><path d="m428.67085 440.57161c-.0451.84808-.46628 1.36541-.94071 1.1555-.47441-.20994-.82246-1.06755-.77734-1.91563.0451-.84808.46627-1.36542.94071-1.15551.47442.20985.82246 1.06757.77734 1.91564z" id="path4492-94-7-9-2-4-0-9-6" class="top_accent"/><path class="top_accent" id="path34144-4" d="m428.20452 433.94415c-.0451.84808-.46629 1.36542-.94071 1.1555-.47442-.20994-.82247-1.06755-.77735-1.91563.0451-.84808.46629-1.36541.94071-1.15551.47442.20985.82246 1.06757.77735 1.91564z"/></svg>