<svg viewBox="0 0 560 1e3"><path d="m274.68571 334.88809c0 1.10235-1.23611 2.33846-2.33846 2.33846s-2.33846-1.23611-2.33846-2.33846 1.23611-2.33846 2.33846-2.33846 2.33846 1.23611 2.33846 2.33846z" id="path5499" class="shadow"/><path d="m275.43571 346.88809c0 1.10235-1.23611 2.33846-2.33846 2.33846s-2.33846-1.23611-2.33846-2.33846 1.23611-2.33846 2.33846-2.33846 2.33846 1.23611 2.33846 2.33846z" id="path5501" class="shadow"/><path class="steel_piercing" id="path2749-8-0-5" d="m274.47312 334.88809c0 1.00214-1.12373 2.12587-2.12587 2.12587s-2.12587-1.12373-2.12587-2.12587 1.12373-2.12587 2.12587-2.12587 2.12587 1.12373 2.12587 2.12587z"/><path class="steel_piercing" id="path2749-8-6-2" d="m275.22312 346.88809c0 1.00214-1.12373 2.12587-2.12587 2.12587s-2.12587-1.12373-2.12587-2.12587 1.12373-2.12587 2.12587-2.12587 2.12587 1.12373 2.12587 2.12587z"/></svg>