<svg viewBox="0 0 560 1e3"><defs><filter style="color-interpolation-filters:sRGB" id="filter11746"><feGaussianBlur stdDeviation="5.48 5.22" result="blur" id="feGaussianBlur11744"/></filter><clipPath clipPathUnits="userSpaceOnUse" id="clipPath11748"><path d="m402.04135 437.32717c-2.71181-22.47351-13.4586-37.47502-24.43313-54.38031-5.14872-7.93116-7.81073-16.2984-13.80729-25.67932-20.2068 18.72451-47.27309 31.26623-77.47869 35.88748-.40169 4.48931-25.06334 64.00074 7.84709 59.36545z" id="path11750" style="fill-opacity:.22488038;fill:#0ff"/></clipPath></defs><path d="m363.71289 356.60547c-21.7501 20.1546-51.35986 33.0128-84.36523 36.67383-33.8979 3.76003-44.24146-9.52992-45.84571-11.49024-3.33469 18.94911-8.05775 38.00407-11.64062 53.84961-1.82007 8.07348-3.00328 16.04619-3.82227 23.77344h.34961c.7877-7.68951 1.93752-15.62253 3.75391-23.67969 4.0849-18.11982 8.41266-35.12108 11.52344-53.58984 1.60425 1.96032 11.78374 15.69167 45.68164 11.93164 33.00537-3.66103 62.70302-16.65204 84.45312-36.80664 5.99656 9.38092 8.65792 17.74853 13.80664 25.67969 10.97453 16.90529 21.72179 31.90735 24.4336 54.38085.65463 5.425-.21191 13.7752-1.35547 22.08399h.4082c1.13824-8.30328 2.00118-16.65397 1.3457-22.08594-2.71181-22.47351-13.59187-37.60643-24.5664-54.51172-5.14872-7.93116-8.1636-16.82806-14.16016-26.20898z" id="path35556" class="shadow"/><path style="fill-opacity:1;fill:#232323" d="m363.80078 357.26758c-21.7501 20.1546-51.44775 33.14561-84.45312 36.80664-33.8979 3.76003-44.07739-9.97132-45.68164-11.93164-3.11078 18.46876-7.43854 35.47002-11.52344 53.58984-1.81639 8.05716-2.96621 15.99018-3.75391 23.67969h182.29688c1.14356-8.30879 2.0101-16.65899 1.35547-22.08399-2.71181-22.4735-13.45907-37.47556-24.4336-54.38085-5.14872-7.93116-7.81008-16.29877-13.80664-25.67969z" id="path35558"/><g id="g35660"><g id="g35590"><g id="g35564" transform="matrix(0.89206961,-0.65422114,0.57613954,0.78560069,-217.29918,284.46538)" style="stroke-width:.963262"><path style="fill-opacity:1;fill:none;opacity:1;stroke-dasharray:none;stroke-dashoffset:0;stroke-linecap:butt;stroke-linejoin:miter;stroke-miterlimit:4;stroke-opacity:1;stroke-width:2.62129;stroke:#000;vector-effect:none" d="m286.97573 435.00764-4.66258-2.97222" id="path35560"/><path id="path35562" d="m283.12545 431.38957-.82605 1.7419c1.55106.91073 2.36074 1.63709 3.9118 2.54784l.88913-1.69898c-1.55106-.91074-2.42382-1.68001-3.97488-2.59076z" style="baseline-shift:baseline;clip-rule:nonzero;color-interpolation-filters:linearRGB;color-interpolation:sRGB;color-rendering:auto;color:#000;direction:ltr;display:inline;dominant-baseline:auto;enable-background:accumulate;fill-opacity:1;fill-rule:nonzero;fill:#484848;image-rendering:auto;isolation:auto;mix-blend-mode:normal;opacity:1;overflow:visible;shape-padding:0;shape-rendering:auto;solid-color:#000000;solid-opacity:1;stroke-dasharray:none;stroke-dashoffset:0;stroke-linecap:butt;stroke-linejoin:miter;stroke-miterlimit:4;stroke-opacity:1;stroke-width:1.89281;stroke:none;vector-effect:none;visibility:visible;white-space:normal;writing-mode:lr-tb"/></g><g style="stroke-width:.963262" transform="matrix(0.89206961,-0.65422114,0.57613954,0.78560069,-218.56553,274.78481)" id="g35570"><path id="path35566" d="m286.97573 435.00764-4.66258-2.97222" style="fill-opacity:1;fill:none;opacity:1;stroke-dasharray:none;stroke-dashoffset:0;stroke-linecap:butt;stroke-linejoin:miter;stroke-miterlimit:4;stroke-opacity:1;stroke-width:2.62129;stroke:#000;vector-effect:none"/><path style="baseline-shift:baseline;clip-rule:nonzero;color-interpolation-filters:linearRGB;color-interpolation:sRGB;color-rendering:auto;color:#000;direction:ltr;display:inline;dominant-baseline:auto;enable-background:accumulate;fill-opacity:1;fill-rule:nonzero;fill:#484848;image-rendering:auto;isolation:auto;mix-blend-mode:normal;opacity:1;overflow:visible;shape-padding:0;shape-rendering:auto;solid-color:#000000;solid-opacity:1;stroke-dasharray:none;stroke-dashoffset:0;stroke-linecap:butt;stroke-linejoin:miter;stroke-miterlimit:4;stroke-opacity:1;stroke-width:1.89281;stroke:none;vector-effect:none;visibility:visible;white-space:normal;writing-mode:lr-tb" d="m283.12545 431.38957-.82605 1.7419c1.55106.91073 2.36074 1.63709 3.9118 2.54784l.88913-1.69898c-1.55106-.91074-2.42382-1.68001-3.97488-2.59076z" id="path35568"/></g><g id="g35576" transform="matrix(0.89206961,-0.65422114,0.57613954,0.78560069,-220.46258,264.74837)" style="stroke-width:.963262"><path style="fill-opacity:1;fill:none;opacity:1;stroke-dasharray:none;stroke-dashoffset:0;stroke-linecap:butt;stroke-linejoin:miter;stroke-miterlimit:4;stroke-opacity:1;stroke-width:2.62129;stroke:#000;vector-effect:none" d="m288.13663 435.65468-5.82348-3.61926" id="path35572"/><path id="path35574" d="m282.91398 431.28308-.82605 1.7419c1.55106.91073 3.69051 2.29052 5.24157 3.20127l.88913-1.69898c-1.55106-.91074-3.75359-2.33344-5.30465-3.24419z" style="baseline-shift:baseline;clip-rule:nonzero;color-interpolation-filters:linearRGB;color-interpolation:sRGB;color-rendering:auto;color:#000;direction:ltr;display:inline;dominant-baseline:auto;enable-background:accumulate;fill-opacity:1;fill-rule:nonzero;fill:#484848;image-rendering:auto;isolation:auto;mix-blend-mode:normal;opacity:1;overflow:visible;shape-padding:0;shape-rendering:auto;solid-color:#000000;solid-opacity:1;stroke-dasharray:none;stroke-dashoffset:0;stroke-linecap:butt;stroke-linejoin:miter;stroke-miterlimit:4;stroke-opacity:1;stroke-width:1.89281;stroke:none;vector-effect:none;visibility:visible;white-space:normal;writing-mode:lr-tb"/></g><g style="stroke-width:.963262" transform="matrix(0.89206961,-0.65422114,0.57613954,0.78560069,-221.32437,254.49532)" id="g35582"><path id="path35578" d="m288.13663 435.65468-5.82348-3.61926" style="fill-opacity:1;fill:none;opacity:1;stroke-dasharray:none;stroke-dashoffset:0;stroke-linecap:butt;stroke-linejoin:miter;stroke-miterlimit:4;stroke-opacity:1;stroke-width:2.62129;stroke:#000;vector-effect:none"/><path style="baseline-shift:baseline;clip-rule:nonzero;color-interpolation-filters:linearRGB;color-interpolation:sRGB;color-rendering:auto;color:#000;direction:ltr;display:inline;dominant-baseline:auto;enable-background:accumulate;fill-opacity:1;fill-rule:nonzero;fill:#484848;image-rendering:auto;isolation:auto;mix-blend-mode:normal;opacity:1;overflow:visible;shape-padding:0;shape-rendering:auto;solid-color:#000000;solid-opacity:1;stroke-dasharray:none;stroke-dashoffset:0;stroke-linecap:butt;stroke-linejoin:miter;stroke-miterlimit:4;stroke-opacity:1;stroke-width:1.89281;stroke:none;vector-effect:none;visibility:visible;white-space:normal;writing-mode:lr-tb" d="m282.91398 431.28308-.82605 1.7419c1.55106.91073 3.69051 2.29052 5.24157 3.20127l.88913-1.69898c-1.55106-.91074-3.75359-2.33344-5.30465-3.24419z" id="path35580"/></g><g id="g35588" transform="matrix(0.89206961,-0.65422114,0.57613954,0.78560069,-222.84907,244.08759)" style="stroke-width:.963262"><path style="fill-opacity:1;fill:none;opacity:1;stroke-dasharray:none;stroke-dashoffset:0;stroke-linecap:butt;stroke-linejoin:miter;stroke-miterlimit:4;stroke-opacity:1;stroke-width:2.62129;stroke:#000;vector-effect:none" d="m288.13663 435.65468-5.82348-3.61926" id="path35584"/><path id="path35586" d="m282.91398 431.28308-.82605 1.7419c1.55106.91073 3.69051 2.29052 5.24157 3.20127l.88913-1.69898c-1.55106-.91074-3.75359-2.33344-5.30465-3.24419z" style="baseline-shift:baseline;clip-rule:nonzero;color-interpolation-filters:linearRGB;color-interpolation:sRGB;color-rendering:auto;color:#000;direction:ltr;display:inline;dominant-baseline:auto;enable-background:accumulate;fill-opacity:1;fill-rule:nonzero;fill:#484848;image-rendering:auto;isolation:auto;mix-blend-mode:normal;opacity:1;overflow:visible;shape-padding:0;shape-rendering:auto;solid-color:#000000;solid-opacity:1;stroke-dasharray:none;stroke-dashoffset:0;stroke-linecap:butt;stroke-linejoin:miter;stroke-miterlimit:4;stroke-opacity:1;stroke-width:1.89281;stroke:none;vector-effect:none;visibility:visible;white-space:normal;writing-mode:lr-tb"/></g></g><path style="fill-opacity:1;fill:#232323;opacity:1;stroke-dasharray:none;stroke-dashoffset:0;stroke-linecap:butt;stroke-linejoin:miter;stroke-miterlimit:4;stroke-opacity:1;stroke-width:.755906;stroke:#000;vector-effect:none" d="m267.19799 396.24127c4.1099 27.5281 6.91644 39.35189 9.47127 48.06362.27398.8422.84128 1.18878 1.55816 1.08099.0.0 2.85926-.38821 4.28888-.58232 1.663-.2258 3.70164.94053 5.36463.71474 1.62255-.22031 2.86944-1.83273 4.49198-2.05303l5.25229-.71313c.50074-.0594.91783-.61349.88358-1.0998-1.23795-18.2077-1.22048-33.7798-1.05988-49.035-3.68483.76804-7.3399 1.4468-10.97856 2.07636-1.34891.23304-1.58521 1.08689-1.49384 2.1208l4.40579 42.67089c.18607 1.80208-1.35288 3.03716-2.14004 3.19733-1.48806.3028-3.31869-1.14912-3.51264-2.48758l-6.17063-42.58348c-.11022-1.05596-.80852-1.71882-1.764-1.68634-2.80709.22245-5.65297.36734-8.59699.31595z" id="path35592"/><g id="g35614"><path id="path35594" d="m289.20312 395.07422c-1.19353.0-2.14063 1.05045-2.14062 2.30664.0 1.25619.94709 2.30664 2.14062 2.30664 1.19354.0 2.14063-1.05045 2.14063-2.30664 1e-5-1.2562-.94708-2.30664-2.14063-2.30664zm0 .62305c.82576-1e-5 1.51563.73625 1.51563 1.68359s-.68987 1.68164-1.51563 1.68164c-.82575.0-1.51562-.7343-1.51562-1.68164s.68987-1.68359 1.51562-1.68359z" style="baseline-shift:baseline;clip-rule:nonzero;color-interpolation-filters:linearRGB;color-interpolation:sRGB;color-rendering:auto;color:#000;direction:ltr;display:inline;dominant-baseline:auto;enable-background:accumulate;fill-opacity:1;fill-rule:nonzero;fill:#a0a5a6;image-rendering:auto;isolation:auto;mix-blend-mode:normal;opacity:1;overflow:visible;shape-padding:0;shape-rendering:auto;solid-color:#000000;solid-opacity:1;stroke-dasharray:none;stroke-dashoffset:0;stroke-linecap:butt;stroke-linejoin:miter;stroke-miterlimit:4;stroke-opacity:1;stroke-width:.623622;stroke:none;vector-effect:none;visibility:visible;white-space:normal;writing-mode:lr-tb"/><path style="baseline-shift:baseline;clip-rule:nonzero;color-interpolation-filters:linearRGB;color-interpolation:sRGB;color-rendering:auto;color:#000;direction:ltr;display:inline;dominant-baseline:auto;enable-background:accumulate;fill-opacity:1;fill-rule:nonzero;fill:#a0a5a6;image-rendering:auto;isolation:auto;mix-blend-mode:normal;opacity:1;overflow:visible;shape-padding:0;shape-rendering:auto;solid-color:#000000;solid-opacity:1;stroke-dasharray:none;stroke-dashoffset:0;stroke-linecap:butt;stroke-linejoin:miter;stroke-miterlimit:4;stroke-opacity:1;stroke-width:.623622;stroke:none;vector-effect:none;visibility:visible;white-space:normal;writing-mode:lr-tb" d="m289.64062 405.23047c-1.19353.0-2.14063 1.05045-2.14062 2.30664.0 1.25619.94709 2.30664 2.14062 2.30664 1.19354.0 2.14063-1.05045 2.14063-2.30664 1e-5-1.2562-.94708-2.30664-2.14063-2.30664zm0 .62305c.82576-1e-5 1.51563.73625 1.51563 1.68359s-.68987 1.68164-1.51563 1.68164c-.82575.0-1.51562-.7343-1.51562-1.68164s.68987-1.68359 1.51562-1.68359z" id="path35596"/><path style="baseline-shift:baseline;clip-rule:nonzero;color-interpolation-filters:linearRGB;color-interpolation:sRGB;color-rendering:auto;color:#000;direction:ltr;display:inline;dominant-baseline:auto;enable-background:accumulate;fill-opacity:1;fill-rule:nonzero;fill:#a0a5a6;image-rendering:auto;isolation:auto;mix-blend-mode:normal;opacity:1;overflow:visible;shape-padding:0;shape-rendering:auto;solid-color:#000000;solid-opacity:1;stroke-dasharray:none;stroke-dashoffset:0;stroke-linecap:butt;stroke-linejoin:miter;stroke-miterlimit:4;stroke-opacity:1;stroke-width:.623622;stroke:none;vector-effect:none;visibility:visible;white-space:normal;writing-mode:lr-tb" d="m290.25001 415.88083c-1.19353.0-2.14063 1.05045-2.14062 2.30664.0 1.25619.94709 2.30664 2.14062 2.30664 1.19354.0 2.14063-1.05045 2.14063-2.30664 1e-5-1.2562-.94708-2.30664-2.14063-2.30664zm0 .62305c.82576-1e-5 1.51563.73625 1.51563 1.68359s-.68987 1.68164-1.51563 1.68164c-.82575.0-1.51562-.7343-1.51562-1.68164s.68987-1.68359 1.51562-1.68359z" id="path35598"/><path style="baseline-shift:baseline;clip-rule:nonzero;color-interpolation-filters:linearRGB;color-interpolation:sRGB;color-rendering:auto;color:#000;direction:ltr;display:inline;dominant-baseline:auto;enable-background:accumulate;fill-opacity:1;fill-rule:nonzero;fill:#a0a5a6;image-rendering:auto;isolation:auto;mix-blend-mode:normal;opacity:1;overflow:visible;shape-padding:0;shape-rendering:auto;solid-color:#000000;solid-opacity:1;stroke-dasharray:none;stroke-dashoffset:0;stroke-linecap:butt;stroke-linejoin:miter;stroke-miterlimit:4;stroke-opacity:1;stroke-width:.623622;stroke:none;vector-effect:none;visibility:visible;white-space:normal;writing-mode:lr-tb" d="m290.94472 426.04989c-1.1869.12563-2.01817 1.26993-1.88594 2.51914.13222 1.24922 1.18462 2.19414 2.37152 2.06852 1.18691-.12563 2.01817-1.26993 1.88595-2.51914-.13221-1.24923-1.18461-2.19414-2.37153-2.06852zm.0656.61959c.82117-.0869 1.58471.57263 1.68442 1.51471.0997.94208-.50903 1.74491-1.33021 1.83183-.82116.0869-1.58449-.57069-1.6842-1.51277-.0997-.94208.50883-1.74685 1.32999-1.83377z" id="path35600"/><path style="baseline-shift:baseline;clip-rule:nonzero;color-interpolation-filters:linearRGB;color-interpolation:sRGB;color-rendering:auto;color:#000;direction:ltr;display:inline;dominant-baseline:auto;enable-background:accumulate;fill-opacity:1;fill-rule:nonzero;fill:#a0a5a6;image-rendering:auto;isolation:auto;mix-blend-mode:normal;opacity:1;overflow:visible;shape-padding:0;shape-rendering:auto;solid-color:#000000;solid-opacity:1;stroke-dasharray:none;stroke-dashoffset:0;stroke-linecap:butt;stroke-linejoin:miter;stroke-miterlimit:4;stroke-opacity:1;stroke-width:.623622;stroke:none;vector-effect:none;visibility:visible;white-space:normal;writing-mode:lr-tb" d="m292.01345 436.0296c-1.18123.17092-1.96814 1.34617-1.78825 2.58941s1.26764 2.14724 2.44887 1.97633c1.18124-.17092 1.96814-1.34616 1.78826-2.58941s-1.26763-2.14724-2.44888-1.97633zm.0892.61663c.81725-.11826 1.60544.51163 1.7411 1.4492.13566.93758-.44195 1.7631-1.2592 1.88135-.81724.11825-1.60515-.5097-1.74081-1.44727-.13566-.93758.44167-1.76503 1.25891-1.88328z" id="path35602"/><path style="baseline-shift:baseline;clip-rule:nonzero;color-interpolation-filters:linearRGB;color-interpolation:sRGB;color-rendering:auto;color:#000;direction:ltr;display:inline;dominant-baseline:auto;enable-background:accumulate;fill-opacity:1;fill-rule:nonzero;fill:#a0a5a6;image-rendering:auto;isolation:auto;mix-blend-mode:normal;opacity:1;overflow:visible;shape-padding:0;shape-rendering:auto;solid-color:#000000;solid-opacity:1;stroke-dasharray:none;stroke-dashoffset:0;stroke-linecap:butt;stroke-linejoin:miter;stroke-miterlimit:4;stroke-opacity:1;stroke-width:.623622;stroke:none;vector-effect:none;visibility:visible;white-space:normal;writing-mode:lr-tb" d="m280.04106 437.69032c-1.13041.38301-1.69033 1.68183-1.28721 2.87158s1.63721 1.88072 2.76761 1.49772c1.13042-.38301 1.69033-1.68183 1.28722-2.87158-.40311-1.18977-1.6372-1.88073-2.76762-1.49772zm.19993.5901c.78209-.26499 1.67174.21095 1.97574 1.10818.30401.89724-.11374 1.81409-.89583 2.07907-.78208.26499-1.6711-.2091-1.9751-1.10633-.30401-.89724.11312-1.81593.89519-2.08092z" id="path35604"/><path style="baseline-shift:baseline;clip-rule:nonzero;color-interpolation-filters:linearRGB;color-interpolation:sRGB;color-rendering:auto;color:#000;direction:ltr;display:inline;dominant-baseline:auto;enable-background:accumulate;fill-opacity:1;fill-rule:nonzero;fill:#a0a5a6;image-rendering:auto;isolation:auto;mix-blend-mode:normal;opacity:1;overflow:visible;shape-padding:0;shape-rendering:auto;solid-color:#000000;solid-opacity:1;stroke-dasharray:none;stroke-dashoffset:0;stroke-linecap:butt;stroke-linejoin:miter;stroke-miterlimit:4;stroke-opacity:1;stroke-width:.623622;stroke:none;vector-effect:none;visibility:visible;white-space:normal;writing-mode:lr-tb" d="m278.53411 427.80337c-1.16893.24107-1.88434 1.46117-1.6306 2.69147.25373 1.2303 1.39347 2.0678 2.5624 1.82673 1.16894-.24107 1.88434-1.46117 1.63061-2.69147-.25372-1.23031-1.39346-2.0678-2.56241-1.82673zm.12585.61021c.80874-.1668 1.6331.41495 1.82444 1.34276.19135.92782-.33599 1.78632-1.14473 1.95311-.80873.16679-1.6327-.41304-1.82404-1.34085-.19135-.92782.3356-1.78823 1.14433-1.95502z" id="path35606"/><path style="baseline-shift:baseline;clip-rule:nonzero;color-interpolation-filters:linearRGB;color-interpolation:sRGB;color-rendering:auto;color:#000;direction:ltr;display:inline;dominant-baseline:auto;enable-background:accumulate;fill-opacity:1;fill-rule:nonzero;fill:#a0a5a6;image-rendering:auto;isolation:auto;mix-blend-mode:normal;opacity:1;overflow:visible;shape-padding:0;shape-rendering:auto;solid-color:#000000;solid-opacity:1;stroke-dasharray:none;stroke-dashoffset:0;stroke-linecap:butt;stroke-linejoin:miter;stroke-miterlimit:4;stroke-opacity:1;stroke-width:.623622;stroke:none;vector-effect:none;visibility:visible;white-space:normal;writing-mode:lr-tb" d="m276.81541 417.64089c-1.17215.22488-1.90437 1.43496-1.66768 2.66865.23668 1.23369 1.36472 2.08688 2.53688 1.86201 1.17216-.22488 1.90437-1.43496 1.66769-2.66865-.23667-1.2337-1.36471-2.08689-2.53689-1.86201zm.11739.61189c.81097-.15559 1.62721.43751 1.8057 1.36788.17849.93037-.36068 1.7815-1.17165 1.93708-.81096.15558-1.62683-.43559-1.80532-1.36596s.36031-1.78342 1.17127-1.939z" id="path35608"/><path style="baseline-shift:baseline;clip-rule:nonzero;color-interpolation-filters:linearRGB;color-interpolation:sRGB;color-rendering:auto;color:#000;direction:ltr;display:inline;dominant-baseline:auto;enable-background:accumulate;fill-opacity:1;fill-rule:nonzero;fill:#a0a5a6;image-rendering:auto;isolation:auto;mix-blend-mode:normal;opacity:1;overflow:visible;shape-padding:0;shape-rendering:auto;solid-color:#000000;solid-opacity:1;stroke-dasharray:none;stroke-dashoffset:0;stroke-linecap:butt;stroke-linejoin:miter;stroke-miterlimit:4;stroke-opacity:1;stroke-width:.623622;stroke:none;vector-effect:none;visibility:visible;white-space:normal;writing-mode:lr-tb" d="m275.1789 407.28865c-1.16038.27934-1.83532 1.52228-1.5413 2.74358.294 1.2213 1.46064 2.02091 2.62102 1.74156 1.16039-.27934 1.83532-1.52228 1.54131-2.74358-.294-1.22131-1.46063-2.02091-2.62103-1.74156zm.14582.60574c.80282-.19327 1.64585.36107 1.86757 1.2821.22173.92103-.27712 1.7964-1.07995 1.98966-.80281.19327-1.64538-.35917-1.8671-1.2802-.22173-.92103.27666-1.79829 1.07948-1.99156z" id="path35610"/><path style="baseline-shift:baseline;clip-rule:nonzero;color-interpolation-filters:linearRGB;color-interpolation:sRGB;color-rendering:auto;color:#000;direction:ltr;display:inline;dominant-baseline:auto;enable-background:accumulate;fill-opacity:1;fill-rule:nonzero;fill:#a0a5a6;image-rendering:auto;isolation:auto;mix-blend-mode:normal;opacity:1;overflow:visible;shape-padding:0;shape-rendering:auto;solid-color:#000000;solid-opacity:1;stroke-dasharray:none;stroke-dashoffset:0;stroke-linecap:butt;stroke-linejoin:miter;stroke-miterlimit:4;stroke-opacity:1;stroke-width:.623622;stroke:none;vector-effect:none;visibility:visible;white-space:normal;writing-mode:lr-tb" d="m274.26785 397.1396c-1.18899.10395-2.041 1.2329-1.93157 2.48432.10941 1.25141 1.14439 2.21538 2.33339 2.11142 1.189-.10395 2.041-1.2329 1.93158-2.48432-.1094-1.25142-1.14438-2.21538-2.3334-2.11142zm.0543.62068c.82262-.0719 1.574.60144 1.65651 1.54518.0825.94374-.54078 1.73534-1.3634 1.80726-.82261.0719-1.57382-.5995-1.65633-1.54324-.0825-.94374.54061-1.73728 1.36322-1.8092z" id="path35612"/></g><g id="g35640"><g id="g35620"><path style="fill-opacity:1;fill:none;opacity:1;stroke-dasharray:none;stroke-dashoffset:0;stroke-linecap:round;stroke-linejoin:miter;stroke-miterlimit:4;stroke-opacity:1;stroke-width:2.72126;stroke:#000;vector-effect:none" d="m292.31251 438.24997-13.375-8.3125" id="path35616"/><path id="path35618" d="m292.31251 438.24997-13.375-8.3125" style="fill-opacity:1;fill:none;opacity:1;stroke-dasharray:none;stroke-dashoffset:0;stroke-linecap:round;stroke-linejoin:miter;stroke-miterlimit:4;stroke-opacity:1;stroke-width:1.96535;stroke:#484848;vector-effect:none"/></g><g style="stroke-width:.987398" transform="matrix(1.025689,0,0,1,-8.7280577,-9.9687505)" id="g35626"><path id="path35622" d="m292.31251 438.24997-13.375-8.3125" style="fill-opacity:1;fill:none;opacity:1;stroke-dasharray:none;stroke-dashoffset:0;stroke-linecap:round;stroke-linejoin:miter;stroke-miterlimit:4;stroke-opacity:1;stroke-width:2.68697;stroke:#000;vector-effect:none"/><path style="fill-opacity:1;fill:none;opacity:1;stroke-dasharray:none;stroke-dashoffset:0;stroke-linecap:round;stroke-linejoin:miter;stroke-miterlimit:4;stroke-opacity:1;stroke-width:1.94059;stroke:#484848;vector-effect:none" d="m292.31251 438.24997-13.375-8.3125" id="path35624"/></g><g id="g35632" transform="matrix(1.0782795,0,0,1.0572394,-25.092964,-45.065984)" style="stroke-width:.936586"><path style="fill-opacity:1;fill:none;opacity:1;stroke-dasharray:none;stroke-dashoffset:0;stroke-linecap:round;stroke-linejoin:miter;stroke-miterlimit:4;stroke-opacity:1;stroke-width:2.54869;stroke:#000;vector-effect:none" d="m292.31251 438.24997-13.375-8.3125" id="path35628"/><path id="path35630" d="m292.31251 438.24997-13.375-8.3125" style="fill-opacity:1;fill:none;opacity:1;stroke-dasharray:none;stroke-dashoffset:0;stroke-linecap:round;stroke-linejoin:miter;stroke-miterlimit:4;stroke-opacity:1;stroke-width:1.84072;stroke:#484848;vector-effect:none"/></g><g style="stroke-width:.963262" transform="matrix(1.106252,0,0,0.97422031,-33.926354,-19.43417)" id="g35638"><path id="path35634" d="m292.31251 438.24997-13.375-8.3125" style="fill-opacity:1;fill:none;opacity:1;stroke-dasharray:none;stroke-dashoffset:0;stroke-linecap:round;stroke-linejoin:miter;stroke-miterlimit:4;stroke-opacity:1;stroke-width:2.62129;stroke:#000;vector-effect:none"/><path style="fill-opacity:1;fill:none;opacity:1;stroke-dasharray:none;stroke-dashoffset:0;stroke-linecap:round;stroke-linejoin:miter;stroke-miterlimit:4;stroke-opacity:1;stroke-width:1.89315;stroke:#484848;vector-effect:none" d="m292.31251 438.24997-13.375-8.3125" id="path35636"/></g></g><g style="display:inline;stroke-width:1.11601" id="g35658"><path style="fill-opacity:1;fill:none;opacity:1;stroke-dasharray:none;stroke-dashoffset:0;stroke-linecap:round;stroke-linejoin:miter;stroke-miterlimit:4;stroke-opacity:1;stroke-width:3.03696;stroke:#000;vector-effect:none" d="M281.12407 439.71963l10.03312-11.37683" id="path35642"/><path id="path35644" d="M281.12407 439.71963l10.03312-11.37683" style="fill-opacity:1;fill:none;opacity:1;stroke-dasharray:none;stroke-dashoffset:0;stroke-linecap:round;stroke-linejoin:miter;stroke-miterlimit:4;stroke-opacity:1;stroke-width:2.19336;stroke:#484848;vector-effect:none"/><path id="path35646" d="M279.12396 429.93836 290.126 418.18659" style="fill-opacity:1;fill:none;opacity:1;stroke-dasharray:none;stroke-dashoffset:0;stroke-linecap:round;stroke-linejoin:miter;stroke-miterlimit:4;stroke-opacity:1;stroke-width:3.03696;stroke:#000;vector-effect:none"/><path style="fill-opacity:1;fill:none;opacity:1;stroke-dasharray:none;stroke-dashoffset:0;stroke-linecap:round;stroke-linejoin:miter;stroke-miterlimit:4;stroke-opacity:1;stroke-width:2.19336;stroke:#484848;vector-effect:none" d="M279.12396 429.93836 290.126 418.18659" id="path35648"/><path style="fill-opacity:1;fill:none;opacity:1;stroke-dasharray:none;stroke-dashoffset:0;stroke-linecap:round;stroke-linejoin:miter;stroke-miterlimit:4;stroke-opacity:1;stroke-width:3.03696;stroke:#000;vector-effect:none" d="m277.4364 419.7821 12.18963-12.34549" id="path35650"/><path id="path35652" d="m277.4364 419.7821 12.18963-12.34549" style="fill-opacity:1;fill:none;opacity:1;stroke-dasharray:none;stroke-dashoffset:0;stroke-linecap:round;stroke-linejoin:miter;stroke-miterlimit:4;stroke-opacity:1;stroke-width:2.19336;stroke:#484848;vector-effect:none"/><path id="path35654" d="m275.81138 409.50088 13.2209-12.12676" style="fill-opacity:1;fill:none;opacity:1;stroke-dasharray:none;stroke-dashoffset:0;stroke-linecap:round;stroke-linejoin:miter;stroke-miterlimit:4;stroke-opacity:1;stroke-width:3.03696;stroke:#000;vector-effect:none"/><path style="fill-opacity:1;fill:none;opacity:1;stroke-dasharray:none;stroke-dashoffset:0;stroke-linecap:round;stroke-linejoin:miter;stroke-miterlimit:4;stroke-opacity:1;stroke-width:2.19336;stroke:#484848;vector-effect:none" d="m275.81138 409.50088 13.2209-12.12676" id="path35656"/></g></g><g clip-path="url(#clipPath11748)" style="filter:url(#filter11746)" id="g35706"><path style="display:inline;fill-opacity:.294258;fill:#373e40;opacity:1;stroke-dasharray:none;stroke-dashoffset:0;stroke-linecap:butt;stroke-linejoin:miter;stroke-miterlimit:4;stroke-opacity:1;stroke-width:.453543;stroke:none;vector-effect:none" d="m334.49699 379.07923c38.18962-14.9841 10.46666 42.32705-9.53096 49.91615-12.9474 4.84151-31.08538-3.51901-32.07537-35.5077 10.29526-2.77959 30.32529-8.15222 41.60633-14.40845z" id="path35700"/><path id="path35702" d="m332.24187 383.94951c30.55169-11.98728 8.37332 33.86164-7.62477 39.93292-10.35792 3.87321-24.86831-2.8152-25.6603-28.40616 8.23621-2.22367 24.26023-6.52177 33.28507-11.52676z" style="display:inline;fill-opacity:.294258;fill:#373e40;opacity:1;stroke-dasharray:none;stroke-dashoffset:0;stroke-linecap:butt;stroke-linejoin:miter;stroke-miterlimit:4;stroke-opacity:1;stroke-width:.453543;stroke:none;vector-effect:none"/><path style="display:inline;fill-opacity:.294258;fill:#373e40;opacity:1;stroke-dasharray:none;stroke-dashoffset:0;stroke-linecap:butt;stroke-linejoin:miter;stroke-miterlimit:4;stroke-opacity:1;stroke-width:.453543;stroke:none;vector-effect:none" d="m328.18777 383.59574c24.44135-9.58983 6.69865 27.08931-6.09982 31.94633-8.28633 3.09857-19.89465-2.25216-20.52824-22.72493 6.58897-1.77893 19.40819-5.21741 26.62806-9.2214z" id="path35704"/></g><g id="g35732"><path style="display:inline;fill-opacity:.821306;fill:none;opacity:1;stroke-dasharray:none;stroke-dashoffset:0;stroke-linecap:butt;stroke-linejoin:miter;stroke-miterlimit:4;stroke-opacity:.986965;stroke-width:.755906;stroke:#000;vector-effect:none" d="m371.22641 371.171c-19.59959 18.17111-45.16979 30.95911-73.80503 37.00254" id="path35708"/><path id="path35710" d="m364.63703 358.47352c-21.92593 20.31863-51.86341 33.41569-85.13561 37.10652-34.17194 3.79063-44.43338-10.05271-46.05059-12.02898" style="display:inline;fill-opacity:.821306;fill:none;opacity:1;stroke-dasharray:none;stroke-dashoffset:0;stroke-linecap:butt;stroke-linejoin:miter;stroke-miterlimit:4;stroke-opacity:1;stroke-width:.755906;stroke:#000;vector-effect:none"/><path id="path35712" d="m269.56201 411.11338c-27.92009 1.19943-36.27702-10.91555-38.79436-12.84692" style="display:inline;fill-opacity:.821306;fill:none;opacity:1;stroke-dasharray:none;stroke-dashoffset:0;stroke-linecap:butt;stroke-linejoin:miter;stroke-miterlimit:4;stroke-opacity:1;stroke-width:.755906;stroke:#000;vector-effect:none"/><path style="fill-opacity:1;fill:none;opacity:1;stroke-dasharray:none;stroke-dashoffset:0;stroke-linecap:butt;stroke-linejoin:miter;stroke-miterlimit:4;stroke-opacity:1;stroke-width:.755906;stroke:#060000;vector-effect:none" d="m371.91512 372.68179c-10.87573 10.40811-32.73236 23.45633-38.29032 24.88672.0913.47543.17745.92316.19661 1.01931.71453 3.58562 6.98633 35.19051 11.2234 60.82922" id="path35718"/><path style="fill-opacity:1;fill:none;opacity:1;stroke-dasharray:none;stroke-dashoffset:0;stroke-linecap:butt;stroke-linejoin:miter;stroke-miterlimit:4;stroke-opacity:1;stroke-width:.755906;stroke:#040000;vector-effect:none" d="m230.33237 399.69536c2.44869 2.70661 8.76054 7.0309 10.17352 7.61805-1.01129 6.32401-4.70435 29.91758-7.14777 52.14418" id="path35720"/><path style="fill-opacity:1;fill:none;opacity:1;stroke-dasharray:none;stroke-dashoffset:0;stroke-linecap:butt;stroke-linejoin:miter;stroke-miterlimit:4;stroke-opacity:1;stroke-width:.755906;stroke:#060000;vector-effect:none" d="m336.13129 410.21183c15.19403-1.53638 46.64376-2.17279 53.89745-7.5569" id="path35722"/><path style="fill-opacity:1;fill:none;opacity:1;stroke-dasharray:none;stroke-dashoffset:0;stroke-linecap:butt;stroke-linejoin:miter;stroke-miterlimit:4;stroke-opacity:1;stroke-width:.755906;stroke:#000;vector-effect:none" d="m238.75001 418.06247c-4.36851 1.35362-8.73703 2.041-13.10554 2.38967" id="path35724"/><path style="fill-opacity:1;fill:none;opacity:1;stroke-dasharray:none;stroke-dashoffset:0;stroke-linecap:butt;stroke-linejoin:miter;stroke-miterlimit:4;stroke-opacity:1;stroke-width:.755906;stroke:#000;vector-effect:none" d="m287.85002 445.50683c1.21007 4.41238 2.25526 8.82537 4.77588 13.93021" id="path35726"/><path id="path35728" d="m238.57323 419.44354c-4.42198 1.37019-8.84396 2.05772-13.26593 2.40232" style="fill-opacity:1;fill:none;opacity:1;stroke-dasharray:none;stroke-dashoffset:0;stroke-linecap:butt;stroke-linejoin:miter;stroke-miterlimit:4;stroke-opacity:1;stroke-width:.755906;stroke:#000;vector-effect:none"/><path id="path35730" d="m336.35919 411.54199c15.44944-1.5622 47.70567-2.19394 54.24254-7.83247" style="fill-opacity:1;fill:none;opacity:1;stroke-dasharray:none;stroke-dashoffset:0;stroke-linecap:butt;stroke-linejoin:miter;stroke-miterlimit:4;stroke-opacity:1;stroke-width:.755906;stroke:#060000;vector-effect:none"/></g></svg>