<svg viewBox="0 0 560 1e3"><g id="g3131" data-transform="boob_left"><path d="m309.24502 233.2864s-2.12997 7.84291-.8397 11.44344c.89178 2.48854 2.83335 5.90357 5.47182 5.74041 2.61073-.16144 3.92399-3.79775 4.67323-6.30386 1.05434-3.52673-.62821-11.02497-.62821-11.02497s.0969 1.55897.14244 3.13405c-.14457.005-2.00733-35e-5-2.00733-35e-5.0477.31664-.0147.45183-.0156.77208.0.0 1.79613-.009 2.03872-.0141.0336 2.52226-.10822 5.3747-.93198 7.21412-.6691 1.49391-1.80141 3.12599-3.32575 3.13901-1.6969.0145-2.99717-1.77366-3.76137-3.43063-.80685-1.74948-.96555-4.45609-.94922-6.87853.38324.0 1.85178-.0458 1.85178-.0458l.0189-.7782s-1.47216-.0113-1.85841-.0113c.0341-1.47514.12062-2.95599.12062-2.95599z" class="shadow" id="path5090"/><path d="m313.88764 247.59023s-1.58178 8.1089-1.64005 12.21752c-.0666 4.69477 1.47736 14.00802 1.47736 14.00802s-.31608-8.36443.93654-16.74643c-.83542-2.78168-.77385-9.47911-.77385-9.47911z" class="shadow" id="path5094"/><path d="m313.67056 272.09934s-.92751 3.06626-.84421 4.63422c.0793 1.49232 1.26631 4.30072 1.26631 4.30072s.89745-2.84076.8442-4.30072c-.0584-1.60031-1.2663-4.63422-1.2663-4.63422z" class="shadow" id="path5096"/><path id="XMLID_525_-3-62-9-2" class="steel_piercing" d="m309.62675 234.06116s-1.93634 7.12992-.76336 10.40312c.81071 2.2623 2.57578 5.36688 4.97438 5.21855 2.37339-.14677 3.56726-3.45251 4.24839-5.73079.9585-3.20611-.5711-10.0227-.5711-10.0227s.0881 1.02268.12949 2.45456c-.13143.004-1.58587-32e-5-1.58587-32e-5-.009.34639-.008.42384-.0727.69857.0.0 1.45239-.004 1.67293-.009.0306 2.29297-.0984 5.28067-.84725 6.95286-.60828 1.3581-1.63766 2.84181-3.02342 2.85365-1.54264.0131-2.72469-1.61242-3.41942-3.11875-.7335-1.59044-.87778-4.44557-.86293-6.64779.3484.0 1.48449-.0416 1.48449-.0416l.13726-.70745s-1.25943-.0103-1.61062-.0103c.031-1.34103.10966-2.29269.10966-2.29269z"/><path id="XMLID_513_-8-0-8" class="steel_piercing" d="m313.84817 248.7823s-1.43798 7.37173-1.49095 11.10684c-.0605 4.26797 1.34305 12.73456 1.34305 12.73456s-.28735-7.60403.8514-15.22403c-.75947-2.5288-.7035-8.61737-.7035-8.61737z"/><path id="XMLID_514_-2-7-8" class="steel_piercing" d="m313.68961 272.50547s-.8432 2.78752-.76746 4.21294c.0721 1.35664 1.15118 3.90974 1.15118 3.90974s.81587-2.58251.76746-3.90974c-.053-1.45484-1.15118-4.21294-1.15118-4.21294z"/></g><g id="g3139" data-transform="boob_right"><path d="m235.74014 236.9352s1.57883 7.75756.57804 11.44346c-.59969 2.20869-1.48158 5.86489-3.76685 5.74041-2.35563-.12832-2.7107-3.99977-3.2171-6.30389-.78945-3.59208.43247-11.02495.43247-11.02495s-.0668 1.48523-.0981 3.0603c.0737.004.79442.002 1.16343 46e-5l-.0552.18124-.1792.58802c-.28215-.003-.81821-.009-.93987-.0124-.0231 2.52226.0746 5.44846.64158 7.28787.46062 1.49393.99445 3.12838 2.28949 3.139 1.43266.0118 2.06329-1.77363 2.58937-3.4306.55545-1.74949.6647-4.52985.65345-6.95228-.26382.0-1.62199-.038-1.62199-.038.09-.22306.15987-.35277.13922-.77039.0.0 1.20843-.0269 1.47434-.0269-.0235-1.47513-.083-2.88224-.083-2.88224z" class="shadow" id="path5092"/><path d="m232.87654 251.98884s-1.58178 8.1089-1.64006 12.21752c-.0666 4.69476 1.47736 14.00803 1.47736 14.00803s-.31608-8.36445.93654-16.74643c-.83542-2.78168-.77384-9.47912-.77384-9.47912z" class="shadow" id="path5098"/><path d="m232.65945 276.49795s-.9275 3.06628-.8442 4.63423c.0793 1.49231 1.2663 4.3007 1.2663 4.3007s.89745-2.84074.8442-4.3007c-.0583-1.60031-1.2663-4.63423-1.2663-4.63423z" class="shadow" id="path5100"/><path id="XMLID_525_-3-62-9-0-8" class="steel_piercing" d="m235.47786 237.70988s1.4353 7.05233.5255 10.40315c-.54519 2.0079-1.34691 5.33173-3.42442 5.21856-2.14148-.11666-2.46428-3.63616-2.92464-5.73081-.71768-3.26553.39315-10.02269.39315-10.02269s-.0606 1.02269-.0891 2.45456c.0628.003.53294.002.81511 54e-5-.0868.22598-.13366.46193-.17971.6981-.23244-.003-.55199-.007-.6453-.01-.0211 2.29296.0677 5.28067.58326 6.95286.41875 1.35812.90405 2.84399 2.08136 2.85364 1.30241.0107 1.87571-1.61239 2.35396-3.11873.50496-1.59044.60428-4.44556.59405-6.64778-.23984.0-1.36694-.0416-1.36694-.0416.0462-.28091.14072-.45771.13823-.70746.0.0.97931-.01 1.22105-.01-.0213-1.34103-.0755-2.29269-.0755-2.29269z"/><path id="XMLID_513_-8-0-5-7" class="steel_piercing" d="m232.83707 253.18091s-1.43799 7.37172-1.49096 11.10684c-.0606 4.26797 1.34305 12.73456 1.34305 12.73456s-.28734-7.60404.8514-15.22402c-.75947-2.52881-.70349-8.61738-.70349-8.61738z"/><path id="XMLID_514_-2-7-4-0" class="steel_piercing" d="m232.6785 276.90409s-.84319 2.78752-.76746 4.21293c.0721 1.35665 1.15118 3.90972 1.15118 3.90972s.81587-2.58249.76747-3.90972c-.053-1.45483-1.15119-4.21293-1.15119-4.21293z"/></g></svg>