<svg viewBox="0 0 560 1e3"><defs><filter style="color-interpolation-filters:sRGB" id="filter22399"><feGaussianBlur stdDeviation="1 1" result="blur" id="feGaussianBlur22397"/></filter><clipPath clipPathUnits="userSpaceOnUse" id="clipPath22401-3"><path id="path22403-0" style="fill-opacity:1;fill:#0ff;stroke-dasharray:none;stroke-miterlimit:4;stroke-width:.245669;stroke:none" d="m212.9125 875.8125 2.49687-17.39219c7.64408-4.79541 15.87617-4.00476 24.4617.1436-.20353 4.43674-.48332 9.25857-.92107 13.46109-.5894 4.55976-.25387 8.11586.0682 12.53951.44555 5.48611 2.46986 17.44433-.0872 26.59708-2.5535 9.14003-15.04237 7.09506-22.75528 6.31453-6.93056-.70136-6.95237 3.68948-13.60092 7.09248-4.43343 2.268-9.92565 1.53291-14.03785 3.16291-6.81332 2.69919-10.37348 4.93572-19.36433 2.20607-4.1173 1.46978-6.54463.98553-6.89162-1.90411-4.21632.91211-4.81719-2.11348-3.97748-4.15426-1.09053-1.65558-3.66613-1.81167 1.37003-6.01041-.0334-2.05057 2.53923-4.90052 3.35875-5.03813 3.5372-.59393 3.3293-.0737 5.08233-.53033l2.29809-1.90035.45579-.33548c8.03283-5.319 20.7302-6.37057 27.30942-14.67157 4.70073-5.9309 9.52758-7.3475 13.18125-14 1.4335-2.6102 1.55331-5.58044 1.55331-5.58044z"/></clipPath><filter style="color-interpolation-filters:sRGB" id="filter22399-6"><feGaussianBlur stdDeviation="1 1" result="blur" id="feGaussianBlur22397-6"/></filter><clipPath clipPathUnits="userSpaceOnUse" id="clipPath22401-3-4"><path id="path22403-0-9" style="fill-opacity:1;fill:#0ff;stroke-dasharray:none;stroke-miterlimit:4;stroke-width:.245669;stroke:none" d="m212.9125 875.8125 2.49687-17.39219c7.64408-4.79541 15.87617-4.00476 24.4617.1436-.20353 4.43674-.48332 9.25857-.92107 13.46109-.5894 4.55976-.25387 8.11586.0682 12.53951.44555 5.48611 2.46986 17.44433-.0872 26.59708-2.5535 9.14003-15.04237 7.09506-22.75528 6.31453-6.93056-.70136-6.95237 3.68948-13.60092 7.09248-4.43343 2.268-9.92565 1.53291-14.03785 3.16291-6.81332 2.69919-10.37348 4.93572-19.36433 2.20607-4.1173 1.46978-6.54463.98553-6.89162-1.90411-4.21632.91211-4.81719-2.11348-3.97748-4.15426-1.09053-1.65558-3.66613-1.81167 1.37003-6.01041-.0334-2.05057 2.53923-4.90052 3.35875-5.03813 3.5372-.59393 3.3293-.0737 5.08233-.53033l2.29809-1.90035.45579-.33548c8.03283-5.319 20.7302-6.37057 27.30942-14.67157 4.70073-5.9309 9.52758-7.3475 13.18125-14 1.4335-2.6102 1.55331-5.58044 1.55331-5.58044z"/></clipPath><filter style="color-interpolation-filters:sRGB" id="filter22399-6-8"><feGaussianBlur stdDeviation="1 1" result="blur" id="feGaussianBlur22397-6-8"/></filter></defs><path id="path22370" d="m400.70278 890.7189c.1251 16.07088 1.36398 20.44715 2.52353 27.24349 1.19848 7.0245.28493 9.53505-.2837 13.47286-.6056 4.19385-2.22971 4.97737-5.69541 4.2516-.68671 3.19398-2.15914 3.36374-5.44283 2.88191-.45378 2.48648-1.68469 3.1719-3.62967 3.36819-1.66465.16801-3.24213-.0864-3.87757-.59558-.6477.96945-1.86468 1.06563-3.11666 1.06926-3.50757.0102-3.38364-1.56271-3.33081-2.71316-3.56006 1.44678-6.72397 1.82913-7.46398.60699-2.23615-3.69307-1.5987-4.15413-1.70637-9.08453-.0279-1.27802.70423-2.23798.84914-3.23298.54058-3.71174.83789-7.46464 1.53338-10.85886.64402-3.14301 1.87899-5.70792 2.60196-8.52856 1.54378-6.02297 2.34537-11.89172 3.64242-16.44476.58785-2.06353.66089-2.42415.81789-3.99404.4239-4.23882-1.30943-6.86082-2.15547-10.41915 1.53488-3.81106 3.75773-7.41574 3.75747-11.68734 7.40541-1.69937 13.30033-1.15704 20.93729 1.73437-.54348 5.61968.32614 10.96792 1.61199 16.17184-.64128 2.19443-1.5993 3.32884-1.5726 6.75845z" class="skin feet"/><path id="path22373" d="m379.71289 866.0625c26e-5 4.20028-2.39175 7.77032-3.93555 11.60352-.0152.0392-.0178.0822-.008.12304.85541 3.59772 2.38043 7.20756 1.96289 11.38282-.15668 1.56668-.0357.86397-.62304 2.92578-1.3037 4.57633-2.10448 10.44273-3.64454 16.45117-.71644 2.79516-1.95354 5.367-2.60351 8.53906-.69916 3.41212-.99588 7.16632-1.53516 10.86914-.13339.91593-.88122 1.90883-.85156 3.26758.0536 2.45619-.0822 3.80039.0547 5.02539.13686 1.225.55516 2.30492 1.67968 4.16211.22108.36512.61376.59513 1.10352.7168.48976.12166 1.08598.14145 1.76562.0781 1.28551-.11975 2.91397-.51581 4.59961-1.17773-.0194.52201-.0464 1.06815.33789 1.58203.45507.60839 1.37958 1.00909 3.16407 1.0039.63101-.002 1.26393-.0236 1.83789-.17773.51375-.13791 1.0916-.47976 1.43945-.91211.36826.23961.74144.47367 1.36133.57031.70203.10945 1.52786.13256 2.37695.0469.99199-.10011 1.83141-.3285 2.48438-.87305.61879-.51605 1.15176-1.39472 1.39258-2.55859 1.54319.21873 2.61452.37994 3.51171-.0156.89705-.39553 1.45888-1.27792 1.8125-2.77539 1.65512.32524 2.93982.30908 3.88868-.34375.987-.67907 1.55507-1.99048 1.86132-4.11133.56595-3.91923 1.48596-6.48755.28321-13.53711-1.16117-6.80584-2.34178-11.66985-2.4668-27.73046-.0264-3.39101.85838-3.94873 1.50977-6.17774.0102-.035.0109-.0721.002-.10742-1.25924-5.09621-2.242-10.31459-1.76758-15.78711.009-.10396.0114-.22008.0215-.32422-.0202-.003-.0441-.006-.0645-.01-.54309 5.61896.32563 10.9666 1.61133 16.16992-.64128 2.19443-1.59896 3.3282-1.57227 6.75781.1251 16.07088 1.36389 20.4478 2.52344 27.24414 1.19848 7.0245.28543 9.53485-.2832 13.47266-.6056 4.19385-2.22961 4.97772-5.69531 4.25195-.68671 3.19398-2.15967 3.36269-5.44336 2.88086-.45378 2.48648-1.68588 3.17285-3.63086 3.36914-1.66465.16801-3.24152-.0865-3.87695-.5957-.6477.96945-1.86521 1.06473-3.11719 1.06836-3.50757.0102-3.38291-1.56244-3.33008-2.71289-3.56006 1.44678-6.72483 1.82956-7.46484.60742-2.23615-3.69307-1.59741-4.15359-1.70508-9.08399-.0279-1.27802.7047-2.23937.84961-3.23437.54058-3.71174.83771-7.4632 1.5332-10.85742.64402-3.14301 1.87859-5.70866 2.60156-8.5293 1.54378-6.02297 2.34553-11.89227 3.64258-16.44531.58785-2.06353.66136-2.42425.81836-3.99414.4239-4.23882-1.31021-6.85964-2.15625-10.41797 1.53228-3.80462 3.75057-7.40389 3.75781-11.66602-.004-.005-.0103-.009-.0137-.0137z" class="shadow"/><path id="path22382" d="m400.70278 890.7189c.1251 16.07088 1.36398 20.44715 2.52353 27.24349 1.19848 7.0245.28493 9.53505-.2837 13.47286-.6056 4.19385-2.22971 4.97737-5.69541 4.2516-.68671 3.19398-2.15914 3.36374-5.44283 2.88191-.45378 2.48648-1.68469 3.1719-3.62967 3.36819-1.66465.16801-3.24213-.0864-3.87757-.59558-.6477.96945-1.86468 1.06563-3.11666 1.06926-3.50757.0102-3.38364-1.56271-3.33081-2.71316-3.56006 1.44678-6.72397 1.82913-7.46398.60699-2.23615-3.69307-1.5987-4.15413-1.70637-9.08453-.0279-1.27802.70423-2.23798.84914-3.23298.54058-3.71174.83789-7.46464 1.53338-10.85886.64402-3.14301 1.87899-5.70792 2.60196-8.52856 1.54378-6.02297 2.34537-11.89172 3.64242-16.44476.58785-2.06353.66089-2.42415.81789-3.99404.4239-4.23882-1.30943-6.86082-2.15547-10.41915 1.53488-3.81106 3.75773-7.41574 3.75747-11.68734 7.40541-1.69937 13.30033-1.15704 20.93729 1.73437-.54348 5.61968.32614 10.96792 1.61199 16.17184-.64128 2.19443-1.5993 3.32884-1.5726 6.75845z" class="stockings_primary"/><g id="g22632"><path d="m398.70898 923.75781c-.2948-.74318-.4149.0207-.56055.0605.1102 1.0887.20328 2.18359.24613 3.32389.10795 2.87281-.1029 5.86678-1.16214 8.54721l.21875.0117c1.13177-2.86399 1.49074-5.92826 1.44234-8.88897-.0169-1.03512-.0836-2.05757-.18453-3.05439zm-7.61328 1.44727c.24215.70733.061 4.6847.5377 9.13274.14395 1.34317.23248 2.77199.19081 4.24812l.22658-.0312c.0777-.6999.0613-2.04106.0108-3.53908-.0667-1.97647-.2868-4.22593-.24069-5.63607.10378-3.1734-.0479-3.87401-.0846-3.95181-.12245-1.07628-.40113-.43395-.64063-.22265zm-6.15429 1.66992c-.32454 2.72823-.058 4.69107.0469 6.77539.10486 2.08433.28786 4.3618-.66016 7.66211l.20313.0625c.9618-3.34828 1.01622-5.63788.91016-7.74609-.10607-2.10822-.19505-3.79084.12304-6.46485-.0642-.76611-.31014-.68374-.62304-.28906zm-5.76758 1.11329c-.1792-.26765-.50677.13897-.81055.32812.38814 3.83494.89148 7.5698-.58985 11.31836l.14064.12109c.98394-2.48991 1.20494-4.86174 1.23334-7.31882.0156-1.35314.16461-3.08343.0264-4.44875z" id="path22368" class="shadow"/><path d="m396.35932 879.09548c.33577 5.97053 1.94225 6.86306 4.45368 11.7344-4.10767-5.64573-4.49649-6.43544-4.45368-11.7344z" class="shadow" id="XMLID_590_-04-8-55-8-75-5"/><path d="m378.16403 886.94416c3.50178-2.27327 4.23806-2.786 5.89065-7.82868-.78635 4.34205-1.48231 5.32462-5.89065 7.82868z" class="shadow" id="XMLID_590_-04-8-55-8-75-5-3"/></g><path id="path22313-8-7" d="m215.4082 857.94704-2.85156 15.37904c-.002.0109-.003.0218-.004.0327.0.0-.12555 2.56206-1.50781 4.78184-1.79991 2.89035-3.8755 4.63106-6.11719 6.32352-2.24169 1.69248-4.65238 3.33192-7.03125 5.97902-3.2244 3.58798-7.97547 5.63129-12.95898 7.35878-4.98351 1.72752-10.18574 3.13132-14.26562 5.51393-.005.003-.0105.006-.0156.009l-.45703.29629c-.005.004-.0105.007-.0156.0104l-2.16601 1.80524c-.78149.17328-1.11922.1645-1.71289.16537-.61583 88e-5-1.48321.0199-3.26758.28423-.37418.0554-.67912.26866-1.05664.56672-.37752.29806-.78775.69323-1.17188 1.14377-.72843.8544-1.33749 1.85429-1.38671 2.84568-1.19755.88872-2.06836 1.44727-2.53321 2.02229-.4812.59526-.64971 1.10332-.55078 1.55031.0989.44698.43045.76309.75781 1.04904.29065.25387.81803.45993 1.04883.73381-.38005.93912-.66944 2.08855-.0508 2.94386.62259.86072 2.10855 1.18066 4.08789.8854.26539 1.17661.85829 2.12002 2.04102 2.38747 1.26144.28524 3.13792-.0792 5.16796-.70625 4.47586 1.18645 7.44989 1.42725 10.34961.9319 2.92356-.49941 5.53467-1.59745 8.92969-2.78366 3.97617-1.39003 9.67581-.5072 14.24414-2.56834 3.37984-1.52572 5.09281-3.28468 6.76172-4.52517 1.66891-1.24048 3.25001-1.99934 6.64063-1.69672 3.84453.34313 8.91493.97425 13.39062.4961 2.23785-.23907 4.33381-.75737 6.04883-1.74841 1.71502-.99103 2.94967-3.40031 3.60937-5.48292 2.59159-8.18127.42081-18.03641-.0215-22.83601v-.004c-.32227-3.90336-.62298-7.03489-.0391-11.01924 71e-5-.003 95e-5-.006.002-.009.43904-3.71738.62985-7.95103.56836-11.9253-.003.004-.0231.007-.0273.0104.008.004.0155.007.0234.0104-.20353 3.91298-.48412 8.16548-.92187 11.8719-.5894 4.02149-.25371 7.1574.0684 11.05885.44555 4.83849 2.47112 15.38558-.0859 23.45787-2.5535 8.06106-15.04295 6.25743-22.75586 5.56904-6.93056-.61857-6.95301 3.25335-13.60156 6.25463-4.43343 2.00027-9.92491 1.35296-14.03711 2.79055-6.81332 2.38055-10.37438 4.35219-19.36523 1.94477-4.11731 1.29628-6.54364.86903-6.89063-1.6795-4.21632.80443-4.81823-1.86401-3.97852-3.66388-1.09053-1.46015-3.66506-1.59725 1.3711-5.30034-.0334-1.8085 2.53985-4.32284 3.35937-4.4442 3.5372-.52382 3.329-.0641 5.08203-.46682l2.29688-1.67606.45703-.29628c8.03283-4.6911 20.72937-5.6188 27.30859-12.93989 4.70073-5.23076 9.52797-6.48014 13.18165-12.34733 1.4335-2.30207 1.55273-4.92136 1.55273-4.92136l2.49805-15.33942c.0221-.0122.0443-.0223.0664-.0345-.0203-.017-.0522-.0325-.0684-.0499z" class="shadow"/><path id="path22273-39-5" d="m212.9125 873.37087 2.49687-15.33908c7.64408-4.22932 15.87617-3.53201 24.4617.12665-.20353 3.91299-.48332 8.16561-.92107 11.87204-.5894 4.02149-.25387 7.1578.0682 11.05925.44555 4.83848 2.46986 15.38506-.0872 23.45735-2.5535 8.06106-15.04237 6.2575-22.75528 5.56911-6.93056-.61856-6.95237 3.25394-13.60092 6.25523-4.43343 2.00026-9.92565 1.35196-14.03785 2.78954-6.81332 2.38055-10.37348 4.35307-19.36433 1.94565-4.1173 1.29627-6.54463.86918-6.89162-1.67934-4.21632.80444-4.81719-1.86399-3.97748-3.66386-1.09053-1.46014-3.66613-1.59781 1.37003-5.3009-.0334-1.8085 2.53923-4.32201 3.35875-4.44339 3.5372-.52381 3.3293-.0649 5.08233-.46772l2.29809-1.67602.45579-.29587c8.03283-4.69111 20.7302-5.61854 27.30942-12.93963 4.70073-5.23077 9.52758-6.48014 13.18125-12.34733 1.4335-2.30207 1.55331-4.92168 1.55331-4.92168z" class="skin feet"/><g id="g22395-6-8" style="display:inline;filter:url(#filter22399-6-8);opacity:1;stroke-width:1.06482" clip-path="url(#clipPath22401-3-4)" transform="matrix(1,0,0,0.8819522,0,100.9461)"><path d="m197.63634 935.41388s4.25446-14.82987 16.08668-20.94804c7.46278-3.85883 6.81478 10.68908 24.83713 9.36917z" id="path22386-3-9" class="feet_shade"/><path d="m197.63634 935.41388s4.25446-14.82987 16.08668-20.94804c7.46278-3.85883 6.81478 10.68908 24.83713 9.36917z" id="path22388-8-4" class="feet_shade"/><path d="m199.4925 938.59586s4.25446-14.82987 16.08668-20.94804c7.46278-3.85883 6.81478 10.68908 24.83713 9.36917z" id="path22390-0-8" class="feet_shade"/></g><path id="path22380-0-3" d="m212.9125 873.37087 2.49687-15.33908c7.64408-4.22932 15.87617-3.53201 24.4617.12665-.20353 3.91299-.48332 8.16561-.92107 11.87204-.5894 4.02149-.25387 7.1578.0682 11.05925.44555 4.83848 2.46986 15.38506-.0872 23.45735-2.5535 8.06106-15.04237 6.2575-22.75528 5.56911-6.93056-.61856-6.95237 3.25394-13.60092 6.25523-4.43343 2.00026-9.92565 1.35196-14.03785 2.78954-6.81332 2.38055-10.37348 4.35307-19.36433 1.94565-4.1173 1.29627-6.54463.86918-6.89162-1.67934-4.21632.80444-4.81719-1.86399-3.97748-3.66386-1.09053-1.46014-3.66613-1.59781 1.37003-5.3009-.0334-1.8085 2.53923-4.32201 3.35875-4.44339 3.5372-.52381 3.3293-.0649 5.08233-.46772l2.29809-1.67602.45579-.29587c8.03283-4.69111 20.7302-5.61854 27.30942-12.93963 4.70073-5.23077 9.52758-6.48014 13.18125-12.34733 1.4335-2.30207 1.55331-4.92168 1.55331-4.92168z" class="stockings_primary"/><g id="g22311-5-0" style="display:inline;opacity:1;stroke-width:1.06482" transform="matrix(1,0,0,0.8819522,0,100.9461)"><path d="m178.78237 919.55781c-1.53265.68119-2.49691.996-3.08706 1.60821-.5722.5936-.87062 1.417-1.29297 2.81054-.90006-.18233-2.16561-.25728-3.2832-.15234-.57607.0541-1.1066.15171-1.51953.30664-.41293.15493-.72677.36825-.80859.68945v.002.002c-.6231 2.64826-.0844 3.39107.33783 5.13226l.12779.008c-.42852-1.7671-.71788-2.39887-.10581-5.00402.0494-.19406.2767-.37908.65625-.52148s.89282-.24018 1.45507-.29297c1.12452-.10559 2.32593-.11242 3.19097.075l.11133.0234.0312-.10937c.44224-1.4717.91958-2.25696 1.46322-2.82093.54365-.56398 1.24757-1.01657 2.77885-1.69715z" id="path22293-3-7" class="shadow"/><path d="m174.05926 917.54821c-3.04603.28619-5.94787 2.04905-6.81121 4.33232l-.002.008-.002.008c-.15458.61834-.55284 1.07433-1.0918 1.46875-.53895.39443-1.20609.7212-1.83984 1.08008-.63375.35888-1.23639.93727-1.64258 1.4769-.40619.53962-.67016 1.26553-.49207 2.17377l.1187-.0358c-.16727-.85302.19899-1.49835.56868-1.9895.3697-.49114.94338-.86873 1.56836-1.22265.62499-.35393 1.29905-.68473 1.86329-1.09766.56423-.41293 1.02225-.9173 1.18554-1.61133l-.004.0156c.81419-2.15328 3.74442-4.20563 6.70167-4.48348.16991-.0966.21639-.16054-.12093-.12261z" id="path22297-22-2" class="shadow"/><path d="m170.97656 915.71289c-3.01484.28326-5.15235.80885-6.80786 3.14549l-.002.004c-.29959.55069-.68198.85599-1.23056 1.14467-.47581.25038-1.02462.39191-1.58789.59571-1.12654.40758-2.26628 1.19073-3.10425 3.20217l.0645.084c.81363-1.95302 2.06431-2.4796 3.16797-2.8789.55183-.19966 1.10364-.35105 1.61328-.60743s.97511-.62185 1.33008-1.23437l-.006.01c1.61303-2.27668 3.59555-3.09422 6.58399-3.375.38193-.0948.21219-.0977-.0215-.0898z" id="path22301-7-4" class="shadow"/><path d="m169.03677 913.65932c-3.02028.28377-3.5341.82228-4.8664 1.82193l-.008.006c-.83249.62463-1.31847.99356-2.1836 1.13867-.6325.10609-1.21683.12582-2.30122 1.0832l.004.1504c1.05333-.92995 1.77086-.81431 2.40625-.91407.63539-.0997 1.2791-.24526 2.31055-1.19726 1.81662-1.6767 2.80267-1.78434 4.67835-1.97718.25448-.0907.0507-.0898-.04-.11155z" id="path22305-66-7" class="shadow"/><path d="m233.85987 867.97191c.20162 4.06516 1.78152 9.60173 1.27913 14.11442-.33424 3.00226-1.53099 4.29435-2.39316 7.57098.49516-3.07468 1.67721-4.53532 2.00285-7.58158.49663-4.64584-.91468-10.475-.88882-14.10382z" class="shadow" id="XMLID_590_-04-8-55-8-75-5-4-15-8"/></g><path id="path44334-2" style="display:inline;fill-opacity:1;fill:#9a0001;opacity:1;stroke-dasharray:none;stroke-dashoffset:0;stroke-linecap:butt;stroke-linejoin:miter;stroke-miterlimit:4;stroke-opacity:1;stroke-width:.453543;stroke:none;vector-effect:none" d="m398.36628 933.14761c.47188-.68218 1.47496-.44206 2.12132-.0774.0.0-.30075-2.03311-1.08275-1.83406-.9319.2372-1.03857 1.91139-1.03857 1.91139zm-5.93902 3.01593c1.04036-1.08116 2.22059-.73152 2.9048-.0754.0.0.21178-2.39018-1.25575-2.31725-1.5159.0753-1.64905 2.39268-1.64905 2.39268zm-5.86082 2.59674c1.01277-.77873 2.20828-.43927 3.42884-.13748.0.0-.65013-2.48519-2.21996-2.29764-1.3865.16564-1.20888 2.43512-1.20888 2.43512zm-3.31456.53032c-.75796-.39481-1.25973-1.06986-3.0494-.37564.0.0-.24804-2.05783 1.19324-2.18447 2.16979-.19064 1.85616 2.56011 1.85616 2.56011zM371.673 937.34606c1.51694-.70935 3.06265-1.3533 5.21492-.61871-.0789-.77354-.28522-1.53859-1.23744-2.25391-1.64019-.33912-3.14012-.25745-4.48571.28726.0304 1.00079.0218 2.04056.50823 2.58536z"/><path id="path44334-1" style="display:inline;fill-opacity:1;fill:#9a0001;opacity:1;stroke-dasharray:none;stroke-dashoffset:0;stroke-linecap:butt;stroke-linejoin:miter;stroke-miterlimit:4;stroke-opacity:1;stroke-width:.453543;stroke:none;vector-effect:none" d="m161.2163 909.39821c-.0356-.57854-.38329-1.07144-.85074-.86178.0.0 1.72511-1.53018 1.82301-.72921.10326.84487-.97227 1.59099-.97227 1.59099zm-2.59738 3.67555c.0689-1.42537-.22008-1.23632-.54204-1.34366.0.0 2.16695-1.95197 2.04195-.47891-.13484 1.58892-1.49991 1.82257-1.49991 1.82257zm1.31791 3.1612c-.15098-1.26486-.14789-1.62738-1.15598-1.31038.33593-.67968 3.16837-2.60616 3.22486-.96557.0508 1.47396-2.06888 2.27595-2.06888 2.27595zm3.12244 1.16054c.32046.0271.36911-.12525.64315 1.50647.0.0 1.90953-.77139 2.31212-2.12511.50764-1.70698-2.95527.61864-2.95527.61864zm10.24774 1.19146c-1.69127-.33134-2.33798-.17976-4.51369.047.0789-.77354.0821-.99953.38587-2.0586.45269-.51881 2.937-.85901 4.36853-.60336.0469.83506.17919 1.23411-.24071 2.61494z"/></svg>