<svg viewBox="0 0 560 1e3"><path id="path6854" class="shadow" d="m299.10498 462.39177c-2.48205 1.45556-2.85718-.23165-4.26345-.21133-.96563.014-.3869 1.46501-2.8354.33634-.0824.0494-3.69251-8.40114-3.88549-16.1264 2.52772 6.08878 11.00392 15.97054 10.98435 16.0013z"/><path d="m299.10498 462.70113c-2.79559.70324-2.89053-.46407-4.16579-.52381-1.09069-.0511-.40052 1.32522-2.93306.33898.0.0-3.56283-8.47896-3.88549-16.1264 2.35055 6.18003 10.98435 16.31066 10.98435 16.31066z" class="labia" id="Vagina"/><path id="path6854-9-8" class="shadow" d="m292.63216 466.59055c-1.73061-.19437-7.03001-3.72505-5.70219-9.91665.1601-2.76887.0867-6.16317 1.17318-10.18253.28641 1.03144.69131 1.94771.91322 2.88009.0307.12881-.12066.32495-.0898.45181.72643 2.99258 1.24632 5.58783 1.7703 8.72249.22169 1.32631.89219 2.60457 1.38619 4.09161 1.34088 1.31773.15979 2.63545.54911 3.95318z"/><path d="m292.63216 466.59055c-1.86507-.54952-6.66046-3.79896-5.70219-9.91665.42844-2.73531.15024-6.23197 1.19594-10.25643.27357.96308 1.3884 2.11196.90145 2.97052-.27993.49354-.17918.53324-.0547 1.05621.49134 2.00515.99352 3.99243 1.20405 5.86369.42793 3.80361 1.81823 6.40782 1.90634 6.32948 1.01304 1.31773.0191 2.63545.54911 3.95318z" class="skin labia" id="path1025"/><path id="path2716" class="shadow" d="m290.61167 451.63404s-.78182-1.41165-1.1002-2.03943c0 0-.21834-.0813-.33065-.094-.34764-.10249-.86066.44582-1.06839.90358-.60478.75697-.3926 1.36358-.28906 1.55988.39221.71764 2.20573.62723 2.6884-.0278.13288-.11236.1371-.30214.0999-.30214z"/><path d="m290.61167 451.63404s-.78182-1.41165-1.1002-2.03943c0 0-.21834-.0813-.33065-.094-.33065-.094-.79324.47954-1.06839.90358-.20634.31802-.57552 1.07272-.28906 1.55988.5294.85571 2.53188.35264 2.6884-.0278.0737-.11236.1275-.30214.0999-.30214z" class="labia" id="XMLID_891_-5"/><path id="path6854-9" class="shadow" d="m301.16804 466.8611c.50134-2.76742 2.59402-7.92667-4.70124-12.03808-2.47545-1.86861-4.84755-5.29235-8.3269-8.38583.37045.99586.38749 3.21147.38749 3.21147s.97999.0942 1.05319.23802c3.11283 6.13944 7.49401 10.10489 9.40544 12.84507.14956 1.46264-1.23066 2.71722 2.18202 4.12935z"/><path d="m301.16804 466.8611c.1522-2.28319 2.8586-7.43057-4.70124-12.03808-2.8757-1.75266-4.90969-5.28302-8.34395-8.39152.22774.85313-.63101 3.51922.66276 3.20922.4373-.10479.81609.13292 1.09603.60885 1.32562 2.37763 3.08839 5.16818 4.4723 6.60855 2.84306 2.95909 4.63208 5.87363 4.63208 5.87363.21939 1.35814-1.02735 2.71722 2.18202 4.12935z" class="skin labia" id="path1023"/><path id="path1126-6" class="shadow" d="m290.54407 451.69582c4.14509 6.87889 3.90142 4.72146 6.65769 10.77769-3.7205-6.98985-3.68107-4.95515-6.65769-10.77769z"/><path id="path1126-6-1" class="shadow" d="m289.4631 452.39396c2.38282 6.92091 2.62899 7.89107 3.65068 10.1027-1.00056-1.52637-2.58149-5.88488-3.65068-10.1027z"/><path d="m290.73545 453.71977c3.55162 5.89401 3.75219 3.56791 6.11383 8.75706-3.18783-5.9891-3.56339-3.76815-6.11383-8.75706z" class="shadow" id="path2763"/><path d="m290.71887 453.74374c2.04169 5.93003 1.75231 6.85793 2.62772 8.75292-.85731-1.30784-1.45577-5.09919-2.62772-8.75292z" class="shadow" id="path2765"/></svg>