<svg viewBox="0 0 560 1e3"><path class="shadow" id="path5407" d="m294.97923 453.79316c0 .62225-.69774 1.32-1.32 1.32-.62225.0-1.32-.69775-1.32-1.32.0-.62226.69775-1.32 1.32-1.32.62226.0 1.32.69774 1.32 1.32z"/><path class="shadow" id="path5409" d="m301.58626 459.69308c0 .62225-.69774 1.32-1.32 1.32-.62225.0-1.32-.69775-1.32-1.32.0-.62226.69775-1.32 1.32-1.32.62226.0 1.32.69774 1.32 1.32z"/><path class="shadow" id="path5411" d="m302.13869 466.54318c0 .62225-.69774 1.32-1.32 1.32-.62225.0-1.32-.69775-1.32-1.32.0-.62226.69775-1.32 1.32-1.32.62226.0 1.32.69774 1.32 1.32z"/><path class="shadow" id="path5413" d="m293.47663 466.3443c0 .62225-.69774 1.32-1.32 1.32-.62225.0-1.32-.69775-1.32-1.32.0-.62226.69775-1.32 1.32-1.32.62226.0 1.32.69774 1.32 1.32z"/><path class="shadow" id="path5415" d="m288.28382 460.42228c0 .62225-.69774 1.32-1.32 1.32-.62225.0-1.32-.69775-1.32-1.32.0-.62226.69775-1.32 1.32-1.32.62226.0 1.32.69774 1.32 1.32z"/><path class="shadow" id="path5417" d="m288.83624 454.2572c0 .62225-.69774 1.32-1.32 1.32-.62225.0-1.32-.69775-1.32-1.32.0-.62226.69775-1.32 1.32-1.32.62226.0 1.32.69774 1.32 1.32z"/><path d="m294.85923 453.79316c0 .56568-.63431 1.2-1.2 1.2-.56568.0-1.2-.63432-1.2-1.2.0-.56569.63432-1.2 1.2-1.2.56569.0 1.2.63431 1.2 1.2z" id="XMLID_537_-4-56" class="steel_piercing"/><path d="m301.46626 459.69308c0 .56568-.63431 1.2-1.2 1.2-.56568.0-1.2-.63432-1.2-1.2.0-.56569.63432-1.2 1.2-1.2.56569.0 1.2.63431 1.2 1.2z" id="XMLID_537_-4-6" class="steel_piercing"/><path d="m302.01869 466.54318c0 .56568-.63431 1.2-1.2 1.2-.56568.0-1.2-.63432-1.2-1.2.0-.56569.63432-1.2 1.2-1.2.56569.0 1.2.63431 1.2 1.2z" id="XMLID_537_-4-892" class="steel_piercing"/><path d="m293.35663 466.3443c0 .56568-.63431 1.2-1.2 1.2-.56568.0-1.2-.63432-1.2-1.2.0-.56569.63432-1.2 1.2-1.2.56569.0 1.2.63431 1.2 1.2z" id="XMLID_537_-4-2" class="steel_piercing"/><path d="m288.16382 460.42228c0 .56568-.63431 1.2-1.2 1.2-.56568.0-1.2-.63432-1.2-1.2.0-.56569.63432-1.2 1.2-1.2.56569.0 1.2.63431 1.2 1.2z" id="XMLID_537_-4-86" class="steel_piercing"/><path d="m288.71624 454.2572c0 .56568-.63431 1.2-1.2 1.2-.56568.0-1.2-.63432-1.2-1.2.0-.56569.63432-1.2 1.2-1.2.56569.0 1.2.63431 1.2 1.2z" id="XMLID_537_-4-26" class="steel_piercing"/></svg>