<svg viewBox="0 0 560 1e3"><path class="shadow" id="path1832" d="m302.67383 58.042969c-.65458 1.476711-.70179 3.041354-.65235 4.677734-.0904-1.607311-.41226-3.230465-1.57812-4.880859-4.38116-.112733-8.41852.566171-11.71289 3.304687-85e-5.252451.0234.49818.23437.746094-5.8955-.220565-11.14048 1.812303-15.69336 5.488281-13.76629 7.024172-18.89835 21.88128-26.26953 40.314454.83178 1.17897 1.42396.42942 2.19532.33789 1.4606-2.12486 2.14096-4.14105 3.12695-6.10742-5.41707 18.9608-5.24382 41.1975 4.86523 58.57226 2.04858.13804 5.59619 1.45103 7.79688-.67382-3.17574-13.33328-5.07236-24.90861-4.66016-35.15625.51246 12.62318 2.65104 25.39668 7.94727 36.13086 1.77603.23758 5.58382 1.35399 8.18359-.13672-.96774-4.82022-2.28429-9.28991-3.24414-13.58789 1.21029 4.48852 2.65885 8.86652 4.93555 13.03711 1.48469.91034 4.03999 1.27119 5.6582-.0117-11.05049-68.546204 6.20214-89.68201 14.32031-85.470707 9.11456.339635 1.88008-1.411502 12.74805 1.294922 7.86123-8.36019 33.07777 10.895412 18.40039 84.175785 1.87265 1.27866 4.83069.82583 6.54883.0117 2.57992-4.07058 4.35883-8.47696 5.70312-13.01368-1.13402 4.31052-2.46506 8.8271-3.74804 13.56446 3.34184 1.48668 7.4541.4508 9.47265.13672 5.75196-10.6709 8.77347-23.33361 9.20508-35.94141.29287 10.25249-1.38435 21.95298-5.40234 34.9668 2.84051 2.22562 6.7652.92391 9.02148.67382 11.26273-17.37416 12.22509-39.60993 5.63281-58.57031 1.09415 2.00741 2.24109 4.04546 3.61719 6.10547 1.01122.0202 1.73052.7016 2.54102-.33789-8.35387-18.502-15.16325-33.106122-30.39649-40.312501-6.41244-4.430571-13.87419-6.391595-21.89648-5.285156.37313-.351313.54337-.759351.59961-1.197265-5.12442-2.55963-11.1432-4.248739-17.5-2.855469z"/><path d="m302.67383 58.042969c-.44424 1.476711-.6472 3.041354-.65235 4.677734-.19108-1.607311-.65462-3.230465-1.57812-4.880859-4.28264-137e-6-8.34135.65437-11.71289 3.304687.067.252451.1528.49818.23437.746094-5.62322.01282-10.9152 2.005401-15.69336 5.488281-12.81171 7.342366-18.66616 21.958676-26.26953 40.314454.74952.84994 1.36458.1919 2.19532.33789 1.0601-2.12486 2.09723-4.14105 3.12695-6.10742-5.09747 18.9608-4.494 41.1975 4.86523 58.57226 2.01872.0584 5.48519 1.15502 7.79688-.67382-3.77905-13.19405-5.07807-24.90729-4.66016-35.15625.55089 12.61998 3.14837 25.35524 7.94727 36.13086 1.73279.19434 5.26566 1.03583 8.18359-.13672-1.30135-4.74608-2.37288-9.27022-3.24414-13.58789 1.30909 4.48852 2.94302 8.86652 4.93555 13.03711 1.48469.6335 4.03999 1.04557 5.6582-.0117-12.70803-68.339012 6.20214-89.68201 14.32031-85.470707 9.11456.339635 1.88008-1.411502 12.74805 1.294922 7.86123-8.36019 34.16995 10.895412 18.40039 84.175785 1.87265 1.05729 4.83069.64522 6.54883.0117 2.30179-4.16329 4.18952-8.5334 5.70312-13.01368-1.00726 4.31052-2.24484 8.8271-3.74804 13.56446 3.37674 1.17255 7.4674.33106 9.47265.13672 5.52545-10.72124 8.54678-23.38399 9.20508-35.94141.45604 10.20354-1.0562 21.85454-5.40234 34.9668 2.67518 1.82884 6.68534.73223 9.02148.67382 10.83048-17.37416 11.53114-39.60993 5.63281-58.57031 1.19126 1.96579 2.3908 3.9813 3.61719 6.10547.96136-.14599 1.67365.51205 2.54102-.33789-8.79803-18.353945-15.57337-32.969415-30.39649-40.312501-6.57653-4.143409-13.99343-6.182917-21.89648-5.285156.23304-.391338.43507-.790293.59961-1.197265-5.48888-2.363385-11.69615-3.950996-17.5-2.855469z" id="path1575" class="hair"/></svg>