<svg viewBox="0 0 560 1e3"><path class="shadow" id="path1862" d="m339.3321 300.33796c5.79186-28.01986 5.11199-79.14475 3.96979-102.91359-.20247-3.95527 4.18216 34.52053 1.62153 61.83194 4.58947-27.81101 1.27127-73.8347-3.79576-105.12206 2.09682 4.91011 5.62328 19.65109 5.45831 36.84101 2.73024-25.24834-3.78492-83.54589-16.40334-103.497753l-38.5472 2.324754c16.97574 151.037669 36.93079 108.399129 47.06955 204.195219.36401-17.49193 1.7237-19.04598.97303-24.95517-.3739 11.35236.65937 17.71682-.34591 31.29565z"/><path d="m339.3321 300.33796c5.62733-28.06099 4.40617-79.3212 3.96979-102.91359-.0732-3.95527 4.60737 34.52053 1.62153 61.83194 4.28498-27.76751.76204-73.76195-3.79576-105.12206 2.29472 4.91011 6.20802 19.65109 5.45831 36.84101 2.19038-25.30233-4.42189-83.60959-16.40334-103.497753l-38.5472 2.324754c17.60695 151.250549 37.34322 107.738219 47.06955 204.195219-18e-5-17.49193 1.72364-19.04598.97303-24.95517-.27815 11.35236.90289 17.71682-.34591 31.29565z" id="path3172-2-7-1-1" class="hair"/></svg>