<svg viewBox="0 0 560 1e3"><g style="fill-opacity:1;fill:#c0c6c7;stroke-opacity:1;stroke:none" transform="matrix(1.0081159,0,0,1.0081159,-2.6203467,-1.6676415)" id="g231492"/><g data-transform="boob_left" style="fill-opacity:1;fill:#c0c6c7;stroke-opacity:1;stroke:none" id="g231502"><path d="m319.62721 231.45203c0 .9226-1.03499 1.96615-1.96616 1.96615-.93116.0-1.96615-1.04355-1.96615-1.96615s1.03499-1.96615 1.96615-1.96615c.93117.0 1.96616 1.04355 1.96616 1.96615z" id="path231494" class="shadow"/><path d="m307.66796 233.57276c-.92686.0-2.01728-1.04495-1.96616-1.96615.057-1.02624 1.49265-1.93921 2.41951-1.93921-.84662 1.4911-.9608 2.25208-.45326 3.90536z" id="path231496" class="shadow"/><path class="steel_piercing" id="path231498" d="m319.44847 231.45203c0 .83872-.9409 1.78741-1.78742 1.78741s-1.78741-.94869-1.78741-1.78741c0-.83873.94089-1.78741 1.78741-1.78741s1.78742.94868 1.78742 1.78741z"/><path class="steel_piercing" id="path231500" d="m307.66658 233.39402c-.8426.0-1.83144-.94982-1.78742-1.78741.0494-.93936 1.36129-1.78742 2.20389-1.78742-.88516 1.35761-.90459 2.06405-.41642 3.57483z"/></g><g data-transform="boob_right" id="g231512" style="display:inline"><path class="shadow" id="path231504" d="m229.36007 237.45858c-.24101.89945-1.51333 1.64893-2.41277 1.40792-.89943-.241-1.62656-1.52623-1.38555-2.42567.241-.89944 1.51332-1.64892 2.41276-1.40792.89944.24101 1.62656 1.52623 1.38556 2.42567z"/><path class="shadow" id="path231506" d="m221.25329 237.18988c-.30933-.48482-.79672-1.04277-.66607-1.53035.24212-.90359 1.5175-1.64782 2.41276-1.40794-1.21961.8226-1.37768 1.18224-1.74669 2.93829z"/><path d="m229.18741 237.41232c-.21909.81767-1.37574 1.49904-2.19342 1.27993-.81768-.21909-1.47869-1.38749-1.2596-2.20516.21911-.81767 1.37576-1.49903 2.19344-1.27993.81766.2191 1.47867 1.3875 1.25958 2.20516z" id="path231508" class="steel_piercing"/><path d="m221.26942 237.10817c-.28122-.44075-.70813-1.00657-.58937-1.44983.22012-.82144 1.37955-1.498 2.19344-1.27993-.94611.91643-1.38372 1.19107-1.60407 2.72976z" id="path231510" class="steel_piercing"/></g></svg>