<svg viewBox="0 0 560 1e3"><defs><filter style="color-interpolation-filters:sRGB" id="filter13612"><feGaussianBlur stdDeviation="1 1" result="blur" id="feGaussianBlur13610"/></filter><clipPath clipPathUnits="userSpaceOnUse" id="clipPath18127"><path d="m182.9 369.4c1.6 1 1.6 3.7 1.6 4.1.1 5.1 13 31.1 38.3 53.1 19 16.5 55.9 40.1 68.5 29.6 2.2-2 3-4.5 3.5-6.2 5.6-18.5-21.9-42.4-30.2-49.6-26.6-23.1-42.1-36.5-48-40.4-.8-.5-3.5-2.2-4.1-5.1-.4-2.2.8-3.4 1-5.1.7-5.1-8-11-14.3-13.8-4.9-2.1-15.7-6.8-23-1.6-11.4 8.3-4.1 33.7 1.6 34.8 1.4.5 3.4-1 5.1.2z" id="path18129" style="fill-opacity:.44639719;fill:#00e0e8"/></clipPath></defs><path d="m183.2 369.4c1.4.9 1.4 3.5 1.4 3.9.0 7.5 14.3 33.3 27.4 46 39.3 38.2 78.2 48 74.4 30.6-.5-2.6 3.3-4.1 3.8-5.6 5.1-16.4-19.5-41.2-46.7-63.9-22.8-19-23.3-18.1-28.6-21.5-.8-.5-2-1.3-2.4-3.8-.4-2 1.3-4.2 1.4-5.8.9-5.9-7.2-10.4-14.7-14.2-5.8-2.9-17.3-6.4-23.6-1.4-13.5 10.8-2.9 39.9 3 36.6 1.3-.6 3.1-1.9 4.6-.9z" class="shadow" id="XMLID_878_"/><path d="m182.9 369.4c1.6 1 1.6 3.7 1.6 4.1.1 5.1 13 31.1 38.3 53.1 19 16.5 55.9 40.1 68.5 29.6 2.2-2 3-4.5 3.5-6.2 5.6-18.5-21.9-42.4-30.2-49.6-26.6-23.1-42.1-36.5-48-40.4-.8-.5-3.5-2.2-4.1-5.1-.4-2.2.8-3.4 1-5.1.7-5.1-8-11-14.3-13.8-4.9-2.1-15.7-6.8-23-1.6-11.4 8.3-4.1 33.7 1.6 34.8 1.4.5 3.4-1 5.1.2z" class="skin penis" id="XMLID_879_"/><g id="g13608" style="filter:url(#filter13612)" clip-path="url(#clipPath18127)"><path class="skin_highlight" id="path7046-2-8-2-1" d="m274.04093 408.38215c-11.17625-1.29661-52.01019-33.35749-61.41824-43.5412-11.13457-15.12845 53.09915-13.63796 61.41824 43.5412z"/><path class="skin_shade" d="m184.51976 376.21701c-26.74461-3.00183 43.6921 117.10614 95.94387 82.10872-13.06566-4.1849-78.01367-49.02052-95.94387-82.10872z" id="path7048-5-1-3-32"/><path d="m175.4789 335.51035c-6.38261-18.95655 46.57766-9.06392 38.50313 14.99702 3.05965-3.39861-25.4936-17.90988-38.50313-14.99702z" id="path7134-38-2-88" class="skin_highlight"/><path id="path13470-6" d="m169.62098 342.4082c-14.25747-8.23148-2.28045 47.21278 13.37268 27.54299-9.1958-6.26594-9.71751-16.70425-13.37268-27.54299z" class="skin_shade"/><path id="path18119" d="m187.39476 376.21701c-26.74461-3.00183 43.6921 117.10614 95.94387 82.10872-13.06566-4.1849-78.01367-49.02052-95.94387-82.10872z" class="skin_shade"/><path d="m274.16593 409.50715c-11.17625-1.29661-52.01019-33.35749-61.41824-43.5412-11.13457-15.12845 53.09915-13.63796 61.41824 43.5412z" id="path18121" class="skin_highlight"/><path class="skin_shade" d="m166.99598 342.7832c-14.25747-8.23148-2.28045 47.21278 13.37268 27.54299-9.1958-6.26594-9.71751-16.70425-13.37268-27.54299z" id="path18123"/><path class="skin_highlight" id="path18125" d="m176.1039 334.63535c-6.38261-18.95655 46.57766-9.06392 38.50313 14.99702 3.05965-3.39861-25.4936-17.90988-38.50313-14.99702z"/></g></svg>