<svg viewBox="0 0 560 1e3"><path class="shadow" id="path5076" d="m301.46473 162.1343c0 .62226-.69774 1.32-1.32 1.32s-1.32-.69774-1.32-1.32c0-.62226.69774-1.32 1.32-1.32s1.32.69774 1.32 1.32z"/><path class="shadow" id="path5078" d="m293.92962 162.89762c0 .62226-.69774 1.32-1.32 1.32s-1.32-.69774-1.32-1.32c0-.62226.69774-1.32 1.32-1.32s1.32.69774 1.32 1.32z"/><path d="m301.34473 162.1343c0 .56569-.63431 1.2-1.2 1.2-.56569.0-1.2-.63431-1.2-1.2s.63431-1.2 1.2-1.2c.56569.0 1.2.63431 1.2 1.2z" id="XMLID_537_-4-5" class="steel_piercing"/><path d="m293.80962 162.89762c0 .56569-.63431 1.2-1.2 1.2-.56569.0-1.2-.63431-1.2-1.2s.63431-1.2 1.2-1.2c.56569.0 1.2.63431 1.2 1.2z" id="XMLID_537_-4-5-6" class="steel_piercing"/></svg>