<svg viewBox="0 0 560 1e3"><path d="m353.82758 228.26371c2.63427-8.3205 2.8094-19.55701 13.30247-25.45963-2.25337 1.88046-2.3103 2.56478-2.3103 2.56478s3.92159-2.74342 6.0617-3.75361c-2.13734 1.00888-7.90174 6.73287-7.90174 6.73287s5.25855-3.57777 7.96714-4.85629c-2.65821 1.36333-7.78621 6.57323-7.78621 6.57323s5.96459-4.60503 10.05437-5.34594c-4.10883.74436-10.03306 6.87998-10.03306 6.87998s6.35061-4.58166 9.43389-4.32646c-3.08434-.25529-10.12328 6.20939-10.12328 6.20939s6.98773-5.58977 9.97576-4.51804c-2.94589-1.05661-10.71107 6.34907-10.71107 6.34907s6.61595-4.68536 9.63061-3.60408c-3.02656-1.08555-10.21842 5.09377-10.21842 5.09377s.60053-.37366 1.37241-.41639c-4.47366 3.77416-4.63821 6.81245-8.71427 11.87735z" class="armpit_hair" id="XMLID_590_-04-8-9-4-9"/></svg>