<svg viewBox="0 0 560 1e3"><path class="shadow" id="path98992" d="m242.76367 241.40625c-.70547 4.63215-.91566 9.46034-.21094 13.59766.0697 2.06789.28251 4.42334.6211 6.91992-.23113-1.87578-.37759-3.69526-.4336-5.35742-.55745-5.17941-.35477-10.22017.4043-15.0586-.12622-.0362-.25479-.0649-.38086-.10156zm117.72656.58789c-.002.007-3.78868 11.3894-11.96093 23.21289-9.44217 13.55447-12.14523 9.66156-18.33008 32.67774-3.62607 13.49398 4.8015 22.71899 8.49023 26.80859 21.05269 20.80765 19.26693 24.39608 26.56641 36.72266 1.7785 3.60939 2.37843 4.71323 4.01953 8.16406-29.87506 28.3623-57.54678 36.73515-87.08203 40.56054-24.65638 3.1935-43.27592.57667-50.31641-13.20507 2.27142-13.9161 2.93624-21.37348 4.15235-32.41602.0968-1.17419.22019-2.33596.38476-3.47851.0225-.19642.0318-.30464.0547-.50391.008.006.0154.0116.0234.0176 1.25866-8.24932 4.16053-15.60229 7.14648-21.63281-.36344.65287-.72195 1.30302-1.125 1.98242-3.38877 7.26932-6.49043 16.26693-6.88086 26.47265-.0481 1.25731-.76363 6.74645-2.19106 13.91768-1.33331 6.69836-3.34751 14.87626-4.3773 22.11553 8.82542 17.16296 31.23779 19.06613 54.41602 17.79492 22.90527-1.25624 68.75356-18.67898 92.96289-42.73438-1.43666-3.18334-8.47486-14.97534-12.21753-21.86137-4.36608-7.24321-7.66639-12.08663-11.10492-16.49905-2.99857-3.82414-7.35674-8.66761-14.24396-15.49505-9.42945-10.46305-10.62396-18.42882-7.79492-29.07421 3.80951-14.33478 7.74796-17.70971 19.05859-31.98438 2.23418-3.33708 4.06249-6.55273 5.4004-9.33984 3.48791-7.26595 4.99023-12.18555 4.99023-12.18555zm-116.64062 24.14258c.49953 2.73332 1.12781 5.53607 1.88672 8.2539 3.85491 11.68613 5.75057 18.41861 5.19922 30.69922-.47873 10.66329.25794 18.31627-5.25586 29.89454.0361-.0661.0734-.13943.10937-.20508 6.77473-12.26121 5.19208-21.39588 5.55078-30.48242.52249-13.23566-2.0117-19.10441-6.59179-34.5625-.35524-1.19894-.65005-2.40212-.89844-3.59766z"/><path d="m243.14627 241.49551c-.76058 4.842-.96394 9.88732-.40604 15.0709.13153 3.90391.64895 8.57998 2.00854 13.16867 4.58009 15.45809 7.11287 21.32536 6.59038 34.56102-.3587 9.08654 1.2253 18.22192-5.54943 30.48313-3.64408 6.64451-7.73553 15.53804-9.29753 25.77546-.008-.006-.0157-.0114-.0234-.0176-.0229.19927-.0322.30749-.0547.50391-.16457 1.14255-.28798 2.30432-.38476 3.47851-1.21611 11.04254-1.88093 18.49992-4.15235 32.41602 7.04049 13.78174 25.66003 16.39856 50.31641 13.20507 29.53525-3.82539 57.20697-12.19824 87.08203-40.56054-1.6411-3.45083-2.24103-4.55467-4.01953-8.16406-7.29948-12.32658-5.51372-15.91501-26.56641-36.72266-3.68873-4.0896-12.1163-13.31461-8.49023-26.80859 6.18485-23.01618 8.88802-19.12248 18.33019-32.67695 8.1747-11.82703 11.96278-23.21563 11.96278-23.21563-1.23312-2.31543-2.22046-6.60796-2.99346-11.92598-49.88118 16.16626-72.61287 16.52529-114.35249 11.42932z" id="path98994" class="top_primary"/><path id="path99072-2-8" d="M375.56252 378.12497C345.36507 411.61963 250.35808 441.043 229.26648 403.3481l4.20115-21.61546c8.71987 9.36233 22.03611 14.54242 46.6041 11.61408 29.57262-3.52485 51.64079-11.46695 84.01585-36.64175z" class="top_accent"/></svg>