<svg viewBox="0 0 560 1e3"><g data-transform="boob_outfit" id="g22137"><path d="m314.00977 229.79102c-4.73795-42e-5-8.57929 3.2853-8.58008 7.42577-45e-5 4.14124 3.79829 7.47113 8.53711 7.47071 4.73806-53e-5 8.50435-3.33014 8.5039-7.47071-79e-5-4.1398-3.72375-7.42524-8.46093-7.42577zm-.043.0488c4.64461 41e-5 8.40969 3.2907 8.41015 7.34961 78e-5 4.05967-3.76466 7.35116-8.41015 7.35157-4.64625 54e-5-8.41289-3.29123-8.41211-7.35157 46e-5-4.05957 3.76674-7.35015 8.41211-7.34961z" id="path19806" class="shadow"/><path d="m322.37745 237.18975a8.4109986 7.3503383.0 01-8.41101 7.35034 8.4109986 7.3503383.0 01-8.411-7.35034 8.4109986 7.3503383.0 018.411-7.35033 8.4109986 7.3503383.0 018.41101 7.35033z" id="path22095-06" class="bra_primary"/><path d="m235.87195 233.3664c-.18906.0392-.25045.0344-.45979.10389-2.03035.6761-4.76712 4.35387-5.72213 6.1747-.69456 1.32427-1.16358 8.24542 3.11826 8.22076 3.63628-.7466 6.3853-4.76383 6.1802-9.11128-.12241-2.59482-.95927-4.23045-2.41134-5.26024-.19295-.11932-.4583-.17641-.64743-.13763zm.0943.0534c.1855-.0376.3666-.0291.55578.0878 1.4236 1.00959 2.28462 2.63027 2.40463 5.17421.20108 4.26221-2.52585 8.31065-6.09082 9.04261-4.19789.0242-3.64415-6.77843-2.96321-8.07674.93628-1.78512 3.52347-5.37348 5.51402-6.03631.2052-.0683.39418-.1536.5796-.1916z" id="path19811" class="shadow"/><path d="m238.92559 238.68112c.20108 4.2622-2.52589 8.31077-6.09086 9.04272-4.19789.0242-3.64267-6.77839-2.96172-8.07669.93628-1.78513 3.52282-5.3734 5.51336-6.03623.41041-.13668.75773-.33739 1.13607-.10347 1.4236 1.0096 2.28314 2.62969 2.40315 5.17364z" id="path22095-0-1" class="bra_primary"/><path d="m313.64027 236.58876-.098 6.82397c-.40366.0368-.72241.14988-.94123.35296-.124.60452-.0949 1.13249-.1176 1.68639-.96608.74363-.90511 1.2305-1.08446 1.77744.0.0-.3546 9.10071-.79613 13.63049-.095.97489-.39838 2.91143-.39838 2.91143.24959.0801.35235-.16877.74876-.36052.39695-.19201.46949.40398.85195.38249.30073-.0169.53807-.66851.79667-.63445.47799.063.67963.66796 1.16136.64902.45655-.0179.21183-.75992.67843-.76274.42562-.003.55674.73511.97594.80869.71759.12598.5221-1.08522 1.20614-.83445.41312.15144.91344 1.01938 1.15214.81821-.25612-.69202-.5307-1.07728-.67019-2.69769l-1.20774-14.02925c-.16713-.62803-.43644-1.15388-.81272-1.57276-.008-.6332.0289-1.2664-.11784-1.8996-.29069-.16679-.54176-.21035-1.01429-.23166l.0996-6.80807z" id="path22113-4" class="bra_accent"/><path class="bra_accent" id="path22115-7" d="m230.63505 240.12485-.098 6.82397c-.40367.0368-.72242.14989-.94124.35297-.12399.60451-.0949 1.13248-.11759 1.68638-.96609.74363-.90512 1.2305-1.08447 1.77745.0.0-.35459 9.10071-.79612 13.63048-.095.97489-.39838 2.91143-.39838 2.91143.24959.0801.35235-.16877.74876-.36052.39695-.19201.46949.40398.85194.3825.30073-.0169.53808-.66852.79668-.63446.47798.063.67962.66797 1.16136.64903.45655-.0179.21183-.75993.67843-.76274.42562-.003.55674.7351.97594.80868.71758.12598.5221-1.08522 1.20614-.83445.41311.15144.91344 1.01939 1.15213.81821-.25611-.69202-.53069-1.07727-.67018-2.69768l-1.20775-14.02926c-.16712-.62803-.43643-1.15388-.81271-1.57275-.008-.6332.0289-1.26641-.11784-1.89961-.2907-.16678-.54177-.21035-1.01429-.23165l.0996-6.80807z"/></g></svg>