<svg viewBox="0 0 560 1e3"><path id="path1358" class="highlight1" d="m276.31935 138.03596c-1.74948-1.08152-2.82634-.70082-4.14058-.83618 1.46255 1.3039 2.31388 1.58407 4.14058.83618z"/><path id="path1360" class="highlight1" d="m283.0156 136.69833c.33283-.52775-.16277-1.40573-.68949-1.74018-.5567-.35349-1.62751-.43801-1.97452.12275-.33312.53831.20098 1.41744.74031 1.7489.54759.33653 1.58085.41218 1.9237-.13147z"/><path id="path1362" class="highlight1" d="m319.26713 128.31283c.40208-.65326.15902-1.79617-.45511-2.25581-.76332-.57128-2.3685-.57543-2.84953.24775-.47889.81956.31823 2.19001 1.17781 2.59266.66581.31188 1.74144.0415 2.12683-.5846z"/><path id="path1364" class="highlight1" d="m310.10154 134.01083c-1.95261-.58152-3.31071-.68519-4.64058-1.07055 1.46255 1.3039 2.81388 1.81844 4.64058 1.07055z"/><path id="path1366" class="highlight1" d="m309.12579 132.53462c.22973-.28484.11628-.86094-.17386-1.08393-.32114-.24683-.95451-.19244-1.2089.12275-.21702.26887-.14841.8069.11531 1.03015.32294.27338 1.00184.26038 1.26745-.069z"/><path id="path1368" class="highlight2" d="m321.00393 127.22871c-4.30477 3.52286-10.19709 4.94055-15.78334 6.32872 1.62696 1.45996 10.61033 1.15816 12.42644-.49043.0.0 3.43904-3.38118 3.3569-5.83829z"/><path id="path1370" class="highlight2" d="m283.12848 136.19405c.0421.92348-6.38287 1.60284-11.65745.9147.37816 1.02046 2.99994 3.12279 2.99994 3.12279 2.95098-.14535 5.87909-.37074 8.66548-1.09216z"/></svg>