<svg viewBox="0 0 560 1e3"><defs><filter style="color-interpolation-filters:sRGB" id="filter33280"><feGaussianBlur stdDeviation="2 2" result="blur" id="feGaussianBlur33278"/></filter><clipPath clipPathUnits="userSpaceOnUse" id="clipPath33282"><path style="fill-opacity:.4059754;fill:#00e0e8" d="m376.26653 307.61106c-1.88158 6.09632.0721-.38679-8.28781 8.24803-5.95419 6.15001-13.58527 9.24086-19.21976 14.90883-9.52778 9.5844-16.88934 21.04002-25.69503 28.19124-22.4686 18.24708-32.44767 26.17476-32.44767 26.17476-3.42707 2.98497-6.9752 5.16935-6.60604 4.99068-2.43327.77692-4.62773.47137-6.85349.3077-5.94727-1.53772-12.12776-4.87332-17.81681-4.42042-2.27347-.27933-4.69587 1.09288-6.39623 1.67643-3.50625.19028-7.69738-1.94327-9.52507 3.94239-.17505.86957.10502 2.00026.336 3.10278-1.89015 1.55553-4.01532 2.6904-6.22906 3.66676-.63201 3.62524-1.23701 7.25921.22449 11.56178 1.06993 2.54525 2.01696 5.16263 5.40606 6.34661 1.30836 2.91224 3.78469 4.46715 6.7648 5.43665 1.73156 2.54731 3.79719 4.73584 7.98617 4.64392 1.30274 2.16604 2.03431 1.90586 2.98313 2.56849 8.04065-3.42448 16.14203-6.92564 29.05616-16.50298.95542-.054 1.79046.0406 3.12066-.47613 1.49535-1.38016 3.08678-2.46258 4.67149-3.56582.0.0 8.21468-6.10923 21.95816-16.88893 16.67175-13.07648 41.04026-23.63702 52.33009-33.31707 19.4463-16.67353 35.54472-41.30466 32.25561-52.31081-1.06963-9.28742-6.90951-43.83017-10.48131-76.21312 1.6744-16.82464 3.75524-26.77216-7.88563-41.90342-8.1-7.9-27.20662-9.05478-27.20662-9.05478-2.50151 5.59877-7.25637 8.55837-2.40116 26.5298 1.21488 6.99808 1.584 13.17111 3.13339 18.91848 3.16851 28.04891 8.85591 61.81475 16.82548 83.43815z" id="path33284"/></clipPath><filter style="color-interpolation-filters:sRGB" id="filter33355"><feGaussianBlur stdDeviation="2 2" result="blur" id="feGaussianBlur33353"/></filter><filter style="color-interpolation-filters:sRGB" id="filter33355-4"><feGaussianBlur stdDeviation="2 2" result="blur" id="feGaussianBlur33353-2"/></filter><filter style="color-interpolation-filters:sRGB" id="filter33280-6"><feGaussianBlur stdDeviation="2 2" result="blur" id="feGaussianBlur33278-6"/></filter><filter style="color-interpolation-filters:sRGB" id="filter33280-6-7"><feGaussianBlur stdDeviation="2 2" result="blur" id="feGaussianBlur33278-6-8"/></filter><filter style="color-interpolation-filters:sRGB" id="filter33355-4-4"><feGaussianBlur stdDeviation="2 2" result="blur" id="feGaussianBlur33353-2-1"/></filter><filter style="color-interpolation-filters:sRGB" id="filter33280-6-7-7"><feGaussianBlur stdDeviation="2 2" result="blur" id="feGaussianBlur33278-6-8-6"/></filter><clipPath clipPathUnits="userSpaceOnUse" id="clipPath33282-6"><path style="fill-opacity:.4059754;fill:#00e0e8" d="m376.26653 307.61106c-1.88158 6.09632.0721-.38679-8.28781 8.24803-5.95419 6.15001-13.58527 9.24086-19.21976 14.90883-9.52778 9.5844-16.88934 21.04002-25.69503 28.19124-22.4686 18.24708-32.44767 26.17476-32.44767 26.17476-3.42707 2.98497-6.9752 5.16935-6.60604 4.99068-2.43327.77692-4.62773.47137-6.85349.3077-5.94727-1.53772-12.12776-4.87332-17.81681-4.42042-2.27347-.27933-4.69587 1.09288-6.39623 1.67643-3.50625.19028-7.69738-1.94327-9.52507 3.94239-.17505.86957.10502 2.00026.336 3.10278-1.89015 1.55553-4.01532 2.6904-6.22906 3.66676-.63201 3.62524-1.23701 7.25921.22449 11.56178 1.06993 2.54525 2.01696 5.16263 5.40606 6.34661 1.30836 2.91224 3.78469 4.46715 6.7648 5.43665 1.73156 2.54731 3.79719 4.73584 7.98617 4.64392 1.30274 2.16604 2.03431 1.90586 2.98313 2.56849 8.04065-3.42448 16.14203-6.92564 29.05616-16.50298.95542-.054 1.79046.0406 3.12066-.47613 1.49535-1.38016 3.08678-2.46258 4.67149-3.56582.0.0 8.21468-6.10923 21.95816-16.88893 16.67175-13.07648 41.04026-23.63702 52.33009-33.31707 19.4463-16.67353 35.54472-41.30466 32.25561-52.31081-1.06963-9.28742-6.90951-43.83017-10.48131-76.21312 1.6744-16.82464 3.75524-26.77216-7.88563-41.90342-8.1-7.9-27.20662-9.05478-27.20662-9.05478-2.50151 5.59877-7.25637 8.55837-2.40116 26.5298 1.21488 6.99808 1.584 13.17111 3.13339 18.91848 3.16851 28.04891 8.85591 61.81475 16.82548 83.43815z" id="path33284-1"/></clipPath><filter style="color-interpolation-filters:sRGB" id="filter33280-7"><feGaussianBlur stdDeviation="2 2" result="blur" id="feGaussianBlur33278-4"/></filter><filter style="color-interpolation-filters:sRGB" id="filter22169"><feGaussianBlur stdDeviation="0.5 0.5" result="blur" id="feGaussianBlur22167"/></filter><clipPath clipPathUnits="userSpaceOnUse" id="clipPath22225"><path style="display:inline;fill-opacity:.5;fill:#0ff" d="m386.27426 187.251c16.30651 23.31498 9.85336 42.55024 13.85709 66.02461 1.00161 5.87255 6.51387 46.09199 5.28464 58.10382-1.84832 18.06146-19.06551 38.6389-41.57451 54.33586-13.94016-4.84552-31.56124-21.30019-21.52324-30.45488 14.67166-13.3806 25.90572-22.89696 31.16287-26.37671-.60468-1.55257-1.78848-2.91729-2.47077-5.07241-.7319-2.31183-.96665-5.45326-1.74025-8.26193-5.62033-20.40526-8.59742-39.70347-8.76494-53.49614-.83829.19503-2.46783-6.30257-3.46767-11.5482-2.78172-17.50024-3.00484-52.17349-1.65593-52.5437 9.76934 1.08946 24.74361.49772 30.89271 9.28968z" id="path22227"/></clipPath></defs><path d="m386.27426 187.251c16.30651 23.31498 9.85336 42.55024 13.85709 66.02461 1.00161 5.87255 6.51387 46.09199 5.28464 58.10382-1.84832 18.06146-19.06551 38.6389-41.57451 54.33586-13.94016-4.84552-31.56124-21.30019-21.52324-30.45488 14.67166-13.3806 25.90572-22.89696 31.16287-26.37671-.60468-1.55257-1.78848-2.91729-2.47077-5.07241-.7319-2.31183-.96665-5.45326-1.74025-8.26193-5.62033-20.40526-8.59742-39.70347-8.76494-53.49614-.83829.19503-2.46783-6.30257-3.46767-11.5482-2.78172-17.50024-3.00484-52.17349-1.65593-52.5437 9.76934 1.08946 24.74361.49772 30.89271 9.28968z" id="path21551" class="top_primary"/><g clip-path="url(#clipPath33282-6)" style="display:inline;filter:url(#filter33280-7);opacity:1" id="g21587"><g id="g21585"/></g><g id="g22203" clip-path="url(#clipPath22225)"><g transform="translate(-4.8904419e-6)" style="display:inline" id="g21582" clip-path="none"><g clip-path="none" style="display:inline;filter:url(#filter33355-4-4);opacity:1" id="g21576"><g id="g21574" style="display:inline;filter:url(#filter33280-6-7-7)"><path class="top_primary_highlight" id="path21557" d="m405.40934 192.60316c-8.83905-22.19971-37.11032-23.75309-46.72801-16.34253 11.50412 14.62925 35.05083 23.90265 46.72801 16.34253z"/><path d="m406.02806 190.0399c-8.83905-22.19971-37.11032-23.75309-46.72801-16.34253 11.50412 14.62925 35.05083 23.90265 46.72801 16.34253z" id="path21559" class="top_primary_highlight"/><path class="top_primary_highlight" id="path21561" d="m407.44227 187.47664c-8.83905-22.19971-37.11032-23.75309-46.72801-16.34253 11.50412 14.62925 35.05083 23.90265 46.72801 16.34253z"/><path d="m384.44227 282.85165c.84943-.3328-1.19832-23.1126-3.87458-44.59455-2.95062-23.68419-3.66522-45.16579-5.10343-33.87298-.56117.10407-1.95776 16.40603.25573 34.86944 3.19383 26.6407 7.65782 56.48021 8.72228 43.59809z" id="path21563" class="top_primary_highlight"/><path class="top_primary_shade" id="path21565" d="m375.80471 303.02215c.84943-.3328-8.95981-31.01793-11.63607-52.49988-2.70897-21.29563-4.56349-6.50657-3.69865.73129 3.19383 26.6407 14.27026 64.65071 15.33472 51.76859z"/><path d="m403.60427 328.55501c-6.52527 8.50164-47.58625 42.79211-56.87937 44.79683-13.3611 16.80248 39.36037.73823 43.94047-4.93251 16.8508-20.88009 27.38769-58.68935 12.9389-39.86432z" id="path21567" class="top_primary_shade"/><path class="top_primary_shade" id="path21569" d="m401.22927 335.80501c-6.52527 8.50164-47.58625 42.79211-56.87937 44.79683-13.3611 16.80248 39.36037.73823 43.94047-4.93251 16.8508-20.88009 27.38769-58.68935 12.9389-39.86432z"/><path d="m397.85427 343.43001c-6.52527 8.50164-47.58625 42.79211-56.87937 44.79683-13.3611 16.80248 39.36037.73823 43.94047-4.93251 16.8508-20.88009 27.38769-58.68935 12.9389-39.86432z" id="path21572" class="top_primary_shade"/></g></g><path id="path21580" d="m355.02337 305.95769c4.78234-1.62514 10.7336-.64776 15.41335-1.46236 17.56363-3.05727 37.81892-6.4183 44.49453 4.32329l-.0473.1522c-18.37307-6.63006-36.22944-7.16624-59.0084.57455z" class="top_primary_strong_highlight"/></g><g style="filter:url(#filter22169)" clip-path="none" id="g22746-4-7-3-0" transform="translate(-314.77179,-136.93371)"><path d="m694.23622 460.76611c-16.58029 28.7408-45.8872 49.86397-69.40951 69.25212 1.28577-5.29898 54.18775-52.71794 69.40951-69.25212z" class="highlight2" id="path22967-5-5-2-6"/><path d="m685.77393 471.67759c-6.96595 7.61962-33.75659 30.48558-39.6978 37.72218 10.44974-7.37354 34.68533-29.68331 39.6978-37.72218z" class="highlight1" id="path2688-9-7-4-0-8-5-0"/><path d="m704.04629 434.78112c-4.56333-26.56358-11.02929-30.62426-11.92306-80.64356-.3039 6.2033 11.22738 63.30939 11.92306 80.64356z" class="highlight2" id="path22967-5-5-3-6-7"/><path d="m700.98916 416.28048c-2.05385-6.62829-3.00685-22.71848-7.36905-42.87774 1.60604 10.87599 3.50945 31.35131 7.36905 42.87774z" class="highlight1" id="path2688-9-7-4-0-8-6-3-4"/><path id="path2655-5-7-5-3-7-8" class="highlight2" d="m692.79007 449.04679c1.73581-.4765 21.10204-.87115 30.37122 5.50333-5.76524-.81404-16.93873-4.38131-30.37122-5.50333z"/><path id="path21603-6" d="m721.08857 408.38448c4.55469 23.57163 3.11958 44.43161-5.46983 62.43552l-.14434-.0676c4.77615-17.38236 9.15978-38.39126 4.59547-62.01261z" class="highlight1"/><path d="m690.03627 336.87529c-2.3022 4.39404-1.70974 8.77861 1.68732 14.25177.25419-7.63858.80721-9.90364-1.68732-14.25177z" class="highlight2" id="path22037-0"/><path id="path22039-0" class="highlight2" d="m688.86909 328.61612c-.96753 1.84667-.71855 3.68937.70913 5.98957.10683-3.21025.33925-4.16219-.70913-5.98957z"/><path d="m698.35853 318.58559c3.21396 5.76103 11.14815 20.56839 12.07885 32.56977 1.34051 17.28594 2.93118 35.96212 6.09478 42.3184-.35733-3.25029 8.27512-75.96329-18.17363-74.88817z" class="highlight2" id="path22041-4"/><path d="m689.82905 451.84412c1.41756-.41415 17.23305-.75715 24.80276 4.78313-4.7082-.70751-13.83307-3.80795-24.80276-4.78313z" class="highlight2" id="path22157"/><path id="path22159" class="highlight2" d="m685.54223 454.3964c1.44028-.39213 17.5094-.71691 25.2005 4.52895-4.78371-.66992-14.0549-3.60559-25.2005-4.52895z"/><path d="m685.0119 457.01146c1.18265-.31877 14.37737-.58279 20.6927 3.68165-3.92801-.54458-11.5408-2.93104-20.6927-3.68165z" class="highlight2" id="path22161"/><path d="m692.91507 439.92179c1.67944-.95382 11.9959-1.41504 21.04465-.9204 10.83123.59208-4.06284-48.76929 6.70157-45.20127 2.78316-.0937 7.23707 49.92102 1.26721 49.79749-6.39369-.13231-17.1269-2.68293-29.01343-3.67582z" class="highlight2" id="path22163"/><path id="path22165" class="highlight1" d="m709.16507 440.87167c1.4168-.80466.49493-1.44376 8.1286-1.02647 2.68333.14668 4.07719-3.31932 4.9375-8.21259l2.16009 10.46504c-5.39382-.11162-5.19853-.38837-15.22619-1.22598z"/></g></g><path d="m355.38086 177.96094c9.76934 1.08946 24.74348.49905 30.89258 9.29101 16.30651 23.31498 9.85369 42.54907 13.85742 66.02344 1.00161 5.87255 6.51439 46.09169 5.28516 58.10352-1.84832 18.06146-19.06522 38.63897-41.57422 54.33593 22.42061-13.48725 40.4759-35.89947 42.32422-53.96093 1.22923-12.01183-4.28355-52.23097-5.28516-58.10352-4.00373-23.47437 2.32409-43.45846-13.98242-66.77344-6.1491-8.79196-21.74824-7.82655-31.51758-8.91601zm5.0957 64.08398c-.007.0107-2e-5.0146.0293.008-.009.002-.0198-.008-.0293-.008zm.125 3.3418c.43828 13.45632 2.60542 31.0781 7.79297 49.91211.7736 2.80867 1.00834 5.94989 1.74024 8.26172.68229 2.15512 1.86602 3.51969 2.4707 5.07226-5.25715 3.47975-17.47161 14.13024-30.28711 26.62696 14.67166-13.3806 25.90496-22.89721 31.16211-26.37696-.60468-1.55257-1.78841-2.91714-2.4707-5.07226-.7319-2.31183-.96664-5.45305-1.74024-8.26172-5.18242-18.81538-8.11073-36.67764-8.66797-50.16211z" id="path23876" class="shadow"/></svg>