<svg viewBox="0 0 560 1e3"><defs><clipPath clipPathUnits="userSpaceOnUse" id="clipPath13613"><path d="m131.74321 573.69194 315.75864-8.79774c13.0539 8.0333 2.38259-383.9505 7.79017-388.03777l-85.55784 2.24903c-27.21476-3.74253-39.04027 2.7738-39.27246-32.77588l-33.94646 3.49567c-.60044 11.74636 4.52731 21.84761 4.14186 32.15688-5.80032 4.30093-13.259 4.44692-29.51965 8.86728l-133.98159-.0572z" class="shadow torso" id="path13615"/></clipPath></defs><g clip-path="url(#clipPath13613)" id="g13829"><g style="display:inline" data-transform="boob_outfit" id="g13827"><path d="m350.01054 168.95467c-4.25979 7.66354-3.41756 51.62132-8.97357 54.39315 2.27434-.7607 6.03723-.65285 8.855.60024-2.50441-2.80335-.1766-49.9731 2.00288-54.85501z" id="path13815" class="bra_primary bra_strap2"/><path class="bra_primary bra_strap1" id="path13817" d="m353.9684 169.25198c-7.16956 10.03289-7.41581 50.57658-12.95329 54.12031 3.07827-.88626 6.16169-.4119 8.94236.65727-2.9295-3.02393 3.35718-46.68199 5.40378-54.70048z"/><path class="bra_primary bra_strap3" id="path13819" d="m344.85717 168.84074c-3.49006 32.35902.8021 51.29511-3.81982 54.51116 3.30941-.7794 7.08972.21411 9.09271.82278-3.76948-3.73502-5.22279-29.51137-3.96659-55.21946z"/><path class="bra_primary bra_strap2" id="path13821" d="m287.67466 180.26839c-4.71063 5.73681-44.84836 41.98014-60.36147 54.38633 1.53851-.47682 2.94276-2.12681 4.10378-2.64863 5.50143-3.88712 23.61964-19.80202 29.63396-24.90648 13.25314-11.24818 27.3085-23.42965 28.33126-25.72057z"/><path d="m286.84476 176.96635c-5.44137 6.32763-46.71364 46.85915-59.16361 57.53877 1.02367-.44221 3.34365-2.50942 4.48754-2.95163 4.77591-3.79982 21.13228-17.81923 26.45543-22.79762 10.26542-9.60058 28.60389-27.97941 30.51076-31.2437z" id="path13823" class="bra_primary bra_strap1"/><path d="m288.20455 181.66277c-7.09029 5.87744-40.41453 38.83725-58.65481 51.58024l6.23316-4.26737c5.79728-4.00338 19.75752-15.0334 26.14532-20.65934 10.51392-9.25994 19.83991-18.95198 27.23463-25.75844z" id="path13825" class="bra_primary bra_strap3"/></g></g><g id="g13813" data-transform="boob_outfit"><path id="path13803" d="m335.37612 227.25657c-36.1748 29.2756-66.93368 21.0906-113.65383 126.23753 26.05959 36.78192 70.31357 45.51516 106.78528 38.48572 58.78688-11.3304 79.59082-62.20261 79.80203-90.11023.36825-48.65913-37.29452-56.67029-54.12386-73.64425-.87117-.71732-3.4704-3.6719-4.44376-4.3851-4.28445-1.44745-4.70145-1.39441-8.64673-.50922-1.16315.55571-3.54336 2.21814-5.71913 3.92555z" style="fill-opacity:.97647059;fill:#fffffb"/><path d="m257.86101 383.25954c-18.36569 12.7322-42.71778 17.35883-59.73931 15.5338-27.21054-2.91748-43.48217-20.89919-51.7653-41.16169-10.9193-26.71124-7.82628-58.15024 3.80728-73.08346 8.49952-10.91029 19.00851-17.80527 30.51081-23.70781-.83992 19.5064 16.47251 70.60265 39.7016 90.51815 8.42688 12.56103 19.89225 23.57035 37.48492 31.90101z" id="path13805" style="fill-opacity:.97647059;fill:#fffffb"/><path class="shadow" id="path13807" d="m180.67383 260.83984c-11.50228 5.90255-22.31101 12.42369-30.81055 23.33399-11.63356 14.93322-14.72399 47.12079-3.80469 73.83203 8.28313 20.2625 24.85013 38.62708 52.0625 41.52734 16.35547 1.74315 44.34012-4.26636 60.36914-15.98437l-.6981-.27942c-17.20032 11.87835-39.66633 16.71953-56.38979 15.78918-.003-14e-5-.005 15e-5-.008.0-1.11738-.0623-2.20959-.15156-3.27344-.26562-.85098-.0912-1.68985-.19609-2.51953-.31641-1.6581-.2404-3.27358-.53877-4.84765-.89062-3.14881-.70385-6.12993-1.62399-8.95118-2.73633-.70461-.27779-1.39935-.56782-2.08398-.86914-54e-5-24e-5-.001 24e-5-.002.0-.68462-.30134-1.35863-.61536-2.02344-.93945-52e-5-26e-5-.001 25e-5-.002.0-.6648-.32412-1.31967-.65978-1.96485-1.00586-5e-4-27e-5-.001 27e-5-.002.0-1.29134-.69276-2.54206-1.42897-3.75586-2.20508-.60736-.38835-1.20475-.78531-1.79297-1.19336-.58778-.40773-1.16552-.82534-1.73437-1.25195-2.27547-1.70649-4.39919-3.56157-6.37891-5.53907-1.48474-1.4831-2.88883-3.03356-4.21289-4.64453-32e-5-39e-5 32e-5-.002.0-.002-.88236-1.07361-1.73017-2.17428-2.54297-3.29688-1.21965-1.68451-2.3626-3.41998-3.42969-5.19726-.3557-.59243-.7019-1.18984-1.04101-1.79102-.67821-1.20234-1.32458-2.42164-1.9375-3.65429-.30621-.61581-.60435-1.23523-.89453-1.85743-25e-5-53e-5 25e-5-.001.0-.002-.29017-.62219-.57334-1.24719-.84766-1.875-24e-5-55e-5 24e-5-.001.0-.002-.2743-.62781-.54215-1.25798-.80078-1.89063-23e-5-56e-5 23e-5-.001.0-.002-.34123-.83473-.6684-1.67231-.98242-2.51563-.62805-1.68663-1.20141-3.38834-1.72266-5.10156-18e-5-6e-4 18e-5-.001.0-.002-1.30295-4.28236-2.27655-8.6318-2.94141-12.9668-9e-5-64e-5 1e-4-.001.0-.002-.26578-1.73366-.48198-3.4655-.65039-5.18945-.50549-5.1736-.57931-10.2802-.25586-15.17969.0539-.81597.11961-1.62781.19532-2.43164 6e-5-65e-5-6e-5-.001.0-.002.0758-.80446.16246-1.60155.25976-2.39257.27577-2.24205.64044-4.42306 1.08399-6.53711.0259-.12336.0478-.25018.0742-.37305 13e-5-63e-5-14e-5-.001.0-.002.037-.1721.081-.33865.11914-.50977.29088-1.30554.60762-2.58913.96093-3.83398.20007-.70493.40929-1.39837.62891-2.08203.21924-.68253.44911-1.35363.6875-2.01368 21e-5-57e-5-21e-5-.001.0-.002.2384-.66002.48692-1.30906.74414-1.94531 23e-5-56e-5-23e-5-.001.0-.002.25746-.63679.5248-1.25943.80078-1.8711.27622-.6122.56104-1.21113.85547-1.79687.15582-.31002.32157-.60588.48242-.90821.1429-.26855.28091-.54429.42774-.80664.31173-.55706.63172-1.09884.96093-1.62695 3e-4-47e-5-29e-5-.001.0-.002.21675-.34767.44377-.67902.66797-1.01368.11675-.17423.22891-.35671.34766-.52734.3464-.49782.70124-.97903 1.06445-1.44531 32e-5-4e-4-31e-5-.002.0-.002.53091-.6815 1.07086-1.34716 1.61719-1.99805 32e-5-38e-5-32e-5-.002.0-.002.54666-.65126 1.10051-1.28611 1.66211-1.90821.56194-.62245 1.13062-1.23143 1.70703-1.82617.28835-.29754.58508-.58021.87695-.87109.57227-.57028 1.1489-1.13005 1.73438-1.67579 2.69525-2.51256 5.52331-4.78016 8.4707-6.85546.65242-.45935 1.31121-.90957 1.97461-1.35157 1.32668-.88397 2.67335-1.73515 4.04102-2.55859 2.73533-1.64688 5.55021-3.18452 8.42578-4.66016z"/><path class="shadow" id="path13810" d="m355.82422 229.79102c2.12849 1.93856 4.5522 3.77191 7.11133 5.58593-2.57289-1.81335-4.98018-3.64807-7.11133-5.58593zm7.83984 6.0996c18.47047 12.91346 44.95577 25.11141 44.64649 65.97852-.21121 27.90762-21.01586 78.78093-79.80274 90.11133-36.46257 7.02768-80.70345-1.70033-106.76562-38.45899-.0364.0819-.071.15626-.10742.23829 23.24709 36.21942 70.83883 46.37514 107.31054 39.3457 58.78688-11.3304 79.65403-63.32871 79.86524-91.23633.3093-40.87071-26.56289-53.0638-45.14649-65.97852z"/><path id="path13803-7" d="m335.37612 227.25657c-36.1748 29.2756-66.93368 21.0906-113.65383 126.23753.21167.29876.42454.59567.6386.89074 10.93653-21.8302 25.79584-55.50986 48.26063-79.77237 18.68871-20.18427 44.98791-29.89717 65.62321-46.57827 3.94785-3.19135 6.81375-6.10013 12.99622-2.8296 2.25084 1.19069 3.61844 3.9145 7.49315 6.75636 13.70608 10.05257 40.1653 24.19145 47.42526 44.44408-10.2024-26.90152-36.6333-34.72474-49.97362-48.1797-.87117-.71732-3.4704-3.6719-4.44376-4.3851-4.28445-1.44745-4.70145-1.39441-8.64673-.50922-1.16315.55571-3.54336 2.21814-5.71913 3.92555zm8.43052-4.45969c-.73152.10036-1.56573.27625-2.71094.5332-.1959.0936-.46839.25884-.72656.41015-1.5927 9.84488-3.57169 19.7688-6.10352 29.75782-2.78059 10.96583-6.43993 22.17828-11.45507 33.35937-4.35076 9.71204-9.90558 19.34468-16.85352 28.45508-6.64095 8.64446-14.40309 16.46097-22.98242 23.19336-9.13635 7.12587-18.81578 12.9165-28.58203 17.58008-7.53741 3.57551-15.11255 6.63861-22.67969 9.30468.81385.8221 1.64099 1.62109 2.47656 2.4043 7.07615-2.55542 14.17155-5.45304 21.25-8.80273 9.98316-4.76123 19.91406-10.70994 29.33789-18.05274 8.85266-6.94682 16.85836-15.01157 23.7168-23.9375 7.16561-9.40504 12.87962-19.30129 17.32813-29.24414 5.125-11.43817 8.85548-22.85149 11.66796-33.96289 2.63737-10.42501 4.68335-20.76373 6.31641-30.99804zm3.25.21093c-1.64314 10.24677-3.69967 20.6132-6.34375 31.08399-2.84435 11.25696-6.64406 22.87311-11.87891 34.56836-4.54625 10.17366-10.41749 20.33157-17.80078 30.03125-7.07593 9.2074-15.3271 17.5204-24.45312 24.68164-9.71129 7.55974-19.89567 13.66456-30.0957 18.52343-6.56915 3.10145-13.13902 5.82812-19.6836 8.25196.89806.77953 1.80698 1.53747 2.72656 2.27539 5.97911-2.27127 11.9848-4.78857 18.00196-7.62305 10.41695-4.95649 20.85473-11.21942 30.85351-18.99609 9.39936-7.37566 17.89603-15.93495 25.18946-25.42383 7.60096-9.99431 13.62944-20.41584 18.27343-30.82031 5.34471-11.95232 9.21557-23.76936 12.0918-35.17188 2.56596-10.17973 4.58242-20.24543 6.20898-30.18555-.13074-.11579-.30425-.28997-.40429-.36328-1.11613-.37707-1.96359-.6468-2.68555-.83203zm-10.38281 3.25977c-.43355.32469-.86833.65199-1.29688.98828-.83805.67822-1.6714 1.31714-2.5039 1.95703-1.39013 7.87215-3.04354 15.77212-5.0586 23.69141-2.71681 10.67461-6.23392 21.48363-11.02929 32.15039-4.15523 9.25028-9.39381 18.35796-15.90625 26.8789-6.20583 8.08134-13.47731 15.40165-21.50977 21.70508-8.56122 6.69186-17.73605 12.16848-27.06836 16.63672-8.32361 3.96875-16.74577 7.27999-25.19531 10.11719.73566.86015 1.48086 1.70563 2.23828 2.5293 8.02784-2.76016 16.04836-5.95689 24.00391-9.74024 9.54935-4.56596 18.97729-10.1985 27.82617-17.10742 8.30598-6.51797 15.82069-14.08816 22.24414-22.45117 6.73027-8.81577 12.12782-18.18479 16.38086-27.66602 4.9053-10.92401 8.49348-21.93559 11.24219-32.75586 2.29074-9.02052 4.12899-18.00325 5.63281-26.93359zm16.29101.76172c-1.55779 9.10529-3.45559 18.32822-5.80273 27.65625-2.9081 11.54807-6.85013 23.56598-12.30469 35.77539-4.74173 10.63528-10.92941 21.31849-18.74804 31.60742-7.51092 9.77036-16.25309 18.57983-25.92579 26.16992-10.28624 7.99362-20.97357 14.41267-31.60742 19.4668-5.41454 2.54509-10.81285 4.83648-16.18359 6.92969.99207.73394 1.99451 1.44582 3.00781 2.13476 4.71775-1.88693 9.45983-3.92699 14.2207-6.16015 10.85075-5.15178 21.79151-11.7289 32.36524-19.93946 9.94606-7.80451 18.93368-16.8603 26.66211-26.91211 8.03631-10.58359 14.38123-21.53038 19.2207-32.39648 5.56442-12.4665 9.57761-24.68527 12.51758-36.37891 2.13898-8.51543 3.89941-16.93149 5.38086-25.24414-.54467-.49766-1.07375-1.00102-1.58203-1.51367-.26918-.22164-.72051-.67861-1.22071-1.19531zm-23.875 4.99414c-1.26692.90403-2.53172 1.78083-3.78906 2.61914-1.13784 5.88859-2.42927 11.77991-3.93359 17.66797-2.65307 10.38349-6.02787 20.79077-10.60352 30.94336-3.95975 8.78865-8.88579 17.37105-14.96289 25.30273-5.77083 7.5184-12.54939 14.34221-20.03516 20.2168-7.98626 6.25799-16.65616 11.42039-25.55468 15.69336-8.92646 4.27986-18.03851 7.77202-27.23242 10.72265.66236.89315 1.33359 1.772 2.01757 2.63086 8.83441-2.89942 17.61617-6.31668 26.25977-10.44922 9.11542-4.37061 18.03876-9.68913 26.3125-16.16406 7.75911-6.08901 14.78315-13.163 20.77148-20.96289 6.29477-8.22631 11.37806-17.07038 15.43555-26.08984 4.68551-10.40968 8.12951-21.01784 10.81445-31.54688 1.75135-6.86907 3.23302-13.73271 4.5-20.58398zm29.53125.13672c-1.40513 7.61312-3.05652 15.32221-5.01171 23.11914-2.97186 11.83921-7.05425 24.25885-12.72852 36.98242-4.9372 11.0969-11.43938 22.30733-19.69336 33.18555-7.94592 10.33329-17.17904 19.63733-27.39844 27.65625-10.8612 8.42748-22.05539 15.16269-33.12304 20.4121-4.05889 1.90006-8.09779 3.65408-12.11914 5.30469 1.09293.68041 2.19709 1.3352 3.31054 1.9668 3.27044-1.37796 6.55646-2.82586 9.85547-4.36719 11.28455-5.34706 22.73025-12.23839 33.87891-20.88281 10.49275-8.23334 19.97136-17.78563 28.13476-28.40039 8.47166-11.17285 15.13108-22.64496 20.16602-33.97266 5.78413-12.98067 9.93767-25.60312 12.9414-37.58789 1.79151-7.15598 3.32059-14.22874 4.6504-21.21875-.98846-.72362-1.93908-1.45697-2.86329-2.19726zm5.75586 4.23242c-1.25456 6.41994-2.67652 12.91168-4.31836 19.48047-3.03559 12.13033-7.26031 24.95367-13.15429 38.1914-5.13267 11.55852-11.95129 23.29229-20.64063 34.75977-8.38089 10.89622-18.105 20.69676-28.87109 29.14453-11.43614 8.86136-23.13332 15.91076-34.63477 21.35547-2.4928 1.16247-4.97276 2.2601-7.44726 3.33008 1.20359.6188 2.41772 1.20987 3.64062 1.77539 1.61398-.71639 3.23101-1.44593 4.85352-2.20117 11.71834-5.54235 23.667-12.74788 35.39062-21.82618 11.03944-8.66219 21.00903-18.71097 29.60742-29.88867 8.90701-11.76212 15.88288-23.75951 21.11329-35.54883 6.00384-13.4948 10.2997-26.51902 13.36718-38.79492 1.49691-5.99844 2.82054-11.93361 3.9961-17.80078-.9846-.65833-1.95247-1.32035-2.90235-1.97656zm-42.83007.67578c-1.26012.79276-2.5172 1.56087-3.77149 2.31445-.86423 4.11768-1.80463 8.23081-2.85742 12.33399-2.58933 10.09236-5.82179 20.09594-10.17774 29.73437-3.76428 8.32702-8.37388 16.38415-14.01562 23.72656-5.33585 6.95547-11.62342 13.28473-18.5625 18.73047-7.41131 5.82412-15.57826 10.67036-24.04297 14.74805-7.82621 3.77502-15.86018 6.91711-24.01953 9.61328-.58244 1.27775-1.16255 2.53241-1.75 3.8457 9.08545-2.9069 18.05829-6.34407 26.81445-10.55468 8.68162-4.17532 17.10003-9.1777 24.79883-15.21875 7.21242-5.66016 13.74549-12.23766 19.29883-19.47461 5.85942-7.63703 10.62821-15.95583 14.49023-24.51367 4.46581-9.89551 7.76944-20.10193 10.39063-30.33985 1.27397-4.97594 2.39973-9.95878 3.4043-14.94531zm48.61914 3.23047c-1.09371 5.33357-2.29895 10.72049-3.65625 16.16797-3.09937 12.42155-7.4663 25.64832-13.58008 39.40039-5.32821 12.02029-12.46307 24.27899-21.58789 36.33593-8.81603 11.45935-19.03079 21.75609-30.34375 30.63282-12.01128 9.29538-24.21305 16.65878-36.14844 22.29883-.70423.32722-1.40298.63315-2.10547.95312 1.31893.54409 2.64433 1.06276 3.98047 1.54883 11.89028-5.6868 24.05586-13.07023 36.07617-22.36719 11.5863-9.09116 22.04657-19.63613 31.08008-31.37695 9.34251-12.35159 16.63263-24.87389 22.05859-37.125 6.22362-14.00915 10.66172-27.4368 13.79297-40.00391 1.21858-4.89816 2.31367-9.74321 3.32031-14.54492-.96772-.64546-1.93403-1.28973-2.88671-1.91992zm-56.14063 1.29883c-1.26345.73592-2.52752 1.46504-3.78906 2.18945-.55797 2.44971-1.13702 4.89692-1.76563 7.33594-2.52556 9.80124-5.61767 19.40307-9.7539 28.52734-3.5688 7.86541-7.86392 15.39531-13.07032 22.14844-4.90086 6.39253-10.69745 12.22723-17.08984 17.24414-6.83637 5.39025-14.49838 9.92229-22.5293 13.80469-5.94699 2.88748-12.06034 5.38431-18.29296 7.59961-.62458 1.31539-1.24273 2.59101-1.87305 3.94726 7.21989-2.46917 14.30981-5.30306 21.21094-8.64258 8.24782-3.98006 16.16327-8.67016 23.28711-14.27734 6.66572-5.23132 12.70782-11.31234 17.82617-17.98633 5.42407-7.04778 9.87643-14.84127 13.54297-22.9375 4.24609-9.38135 7.4074-19.18405 9.96484-29.13086.83996-3.26644 1.61508-6.54176 2.33203-9.82226zm61.90625 2.57812c-.91182 4.25636-1.89771 8.54961-2.97461 12.88477-3.16312 12.71269-7.67239 26.3412-14.00586 40.60742-5.52369 12.4819-12.97107 25.26784-22.53125 37.91406-9.25102 12.02228-19.95675 22.81551-31.8164 32.12109-11.26973 8.71158-22.63355 15.76574-33.76758 21.3379 1.41239.44742 2.83194.86541 4.25781 1.25195 10.33029-5.40716 20.84676-12.07391 31.31055-20.1582 12.13301-9.52 23.08422-20.55953 32.55273-32.86329 9.77785-12.94085 17.38442-25.99039 23.00586-38.70312 6.44333-14.52331 11.02374-28.3527 14.21875-41.21094.9349-3.76904 1.79659-7.5038 2.60742-11.21094-.95223-.6784-1.90497-1.31914-2.85742-1.9707zm-69.48437 1.80664c-1.28261.73932-2.56475 1.47325-3.84961 2.23047-.19202.77218-.37666 1.54592-.57618 2.31641-2.46181 9.51012-5.4116 18.70825-9.32812 27.31836-3.37332 7.4038-7.352 14.41034-12.12305 20.57422-4.46587 5.82958-9.77151 11.16584-15.61719 15.7539-6.26141 4.95638-13.42045 9.1742-21.01757 12.86133-4.00234 1.95731-8.10597 3.72587-12.28907 5.35156-.66924 1.3453-1.33784 2.68994-2.01367 4.08203 5.23192-1.93894 10.35695-4.09664 15.34961-6.52929 7.81403-3.78477 15.2226-8.15874 21.77149-13.33203 6.11904-4.80249 11.67209-10.38699 16.35547-16.49805 4.98872-6.45849 9.12465-13.72672 12.5957-21.36133 4.02638-8.86719 7.04732-18.26816 9.54101-27.92383.41627-1.61138.81669-3.22638 1.20118-4.84375zm75.16796 2.23828c-.69785 3.12437-1.42387 6.26388-2.20898 9.4336-3.22688 13.0038-7.87846 27.03601-14.43164 41.8164-5.71918 12.94353-13.48299 26.25476-23.47852 39.49024-9.68599 12.58522-20.88271 23.873-33.28906 33.60742-9.58754 7.40354-19.19882 13.63983-28.66211 18.82031 1.52419.34453 3.05293.65651 4.58594.93555 8.55138-4.89089 17.21712-10.63881 25.87891-17.32422 12.67969-9.94884 24.1219-21.48486 34.02539-34.35156 10.2132-13.53012 18.13427-27.10301 23.95117-40.27735 6.66304-15.03748 11.38383-29.27054 14.64258-42.41992.62607-2.5312 1.21638-5.04359 1.78711-7.54492-.92667-.74681-1.85969-1.47734-2.80079-2.18555zm-82.90234 2.32813c-1.32261.81089-2.64899 1.65188-3.97851 2.51367-2.21335 8.08171-4.79026 15.80971-8.06641 22.98438-3.17779 6.94202-6.84022 13.42169-11.17578 18.99609-4.03074 5.26646-8.8457 10.10653-14.14453 14.26562-5.68628 4.52236-12.34073 8.42618-19.50391 11.91797-1.92893.95082-3.89331 1.84703-5.87891 2.71289-.74038 1.40878-1.48206 2.82138-2.23046 4.28711 3.10755-1.27388 6.16626-2.62586 9.15624-4.09375 7.38024-3.58948 14.28582-7.64922 20.25977-12.38867 5.57234-4.37364 10.63248-9.4636 14.88086-15.01172 4.55337-5.86923 8.37481-12.61217 11.65039-19.78515 3.7636-8.2585 6.6187-17.14809 9.03125-26.39844zm88.46289 2.16797c-.42826 1.83689-.86447 3.67785-1.32226 5.53125-3.29063 13.29493-8.08258 27.72888-14.85547 43.02343-5.91463 13.40515-13.99491 27.24165-24.42578 41.06641-10.12099 13.14817-21.80674 24.93244-34.75977 35.0957-7.69001 5.9326-15.37027 11.12242-22.9668 15.65625 1.64089.2278 3.28248.41341 4.92578.57032 6.56986-4.0907 13.19799-8.66977 19.8418-13.79297 13.22639-10.37768 25.15956-22.41022 35.49805-35.83985 10.64855-14.11939 18.88606-28.21951 24.89844-41.85546 6.88276-15.55163 11.74584-30.18646 15.06835-43.62696.27766-1.12563.53397-2.24.80079-3.35937-.88519-.85151-1.78864-1.66895-2.70313-2.46875zm-96.52539 3.08789c-1.40463.97612-2.81499 1.98787-4.23242 3.05664-1.67868 5.40773-3.56196 10.56073-5.77344 15.38281-2.98231 6.4804-6.33027 12.43479-10.23047 17.41992-3.59576 4.70354-7.91973 9.04905-12.67187 12.7793-4.81507 3.85151-10.55753 7.25463-16.83203 10.39258-.8636 1.53571-1.72523 3.05947-2.59961 4.67187.83327-.39035 1.66685-.77891 2.48828-1.18554 6.94628-3.39415 13.34728-7.13989 18.74609-11.44532 5.02548-3.94466 9.59495-8.53843 13.4082-13.52343 4.11789-5.27976 7.62309-11.49779 10.70313-18.20899 2.76349-6.03924 5.02051-12.52971 6.99414-19.33984zm101.87891 2.08984c-.0774.31708-.14833.62967-.22657.94727-3.35439 13.58606-8.28865 28.42371-15.28125 44.23242-6.11011 13.86677-14.50487 28.22855-25.37109 42.64258-10.55597 13.71109-22.73465 25.98993-36.23437 36.58203-5.54204 4.27175-11.06869 8.17309-16.55664 11.73437 1.74321.091 3.48588.15064 5.22265.16602 4.36001-2.9447 8.74119-6.08016 13.13672-9.4668 13.77307-10.80652 26.19723-23.33555 36.9707-37.32812 11.0839-14.70866 19.63589-29.33211 25.84375-43.42969 6.81481-15.41513 11.68097-29.87184 15.05664-43.14844-.83013-1.01163-1.683-1.98891-2.56054-2.93164zm-110.59375 4.51172c-1.61872 1.33914-3.25037 2.77142-4.89258 4.2793-.7629 1.97809-1.56464 3.9021-2.41992 5.75781-2.78683 6.01879-5.8203 11.44789-9.28516 15.84375-3.16077 4.14058-6.99378 7.98961-11.19922 11.29101-2.17128 1.74924-4.6016 3.41028-7.23047 5.00782-1.06154 1.72656-2.13146 3.51328-3.20898 5.35351 4.54043-2.45927 8.68514-5.07291 12.24219-7.92773 4.47878-3.51583 8.55727-7.61504 11.93554-12.03711 3.68253-4.69049 6.87326-10.38126 9.75782-16.63086 1.59053-3.45985 3.0042-7.11953 4.30078-10.9375zm115.6289 1.63086c-3.37248 12.62404-8.09274 26.29724-14.51757 40.83789-6.30566 14.32854-15.01665 29.2172-26.31836 44.2207-10.9911 14.27421-23.66044 27.04924-37.70704 38.07032-3.16721 2.43928-6.32454 4.74075-9.47265 6.95312 1.90643-.0683 3.80501-.17713 5.6914-.33203 1.85786-1.35778 3.71932-2.75194 5.58399-4.1875 14.31995-11.23549 27.23477-24.25876 38.44336-38.81445 11.5194-15.29812 20.38761-30.44847 26.79101-45.00782 5.97733-13.53477 10.48395-26.29535 13.82227-38.16015-.74077-1.23431-1.50509-2.43709-2.31641-3.58008zm4.48828 7.55469c-3.26055 10.97748-7.51757 22.70545-12.98242 35.08593-6.50115 14.79016-15.52855 30.20217-27.26562 45.79493-11.42608 14.83715-24.58447 28.11062-39.17774 39.56054h-.002c-.50449.38825-1.00579.7502-1.50977 1.13282 2.07106-.26991 4.12087-.5953 6.15039-.96485 13.73867-11.139 26.17994-23.88829 37.07813-38.03906 11.95474-15.8874 21.13941-31.56302 27.73828-46.58399 4.88216-11.06571 8.80627-21.59715 11.92969-31.53906-.59905-1.54654-1.25784-3.02294-1.95899-4.44726zm-130.86523.81836c-6.48551 6.74241-13.19256 15.06984-20.23828 25.80859.47214-.35504.93939-.7123 1.38672-1.07422 3.9321-3.08698 7.51961-6.68775 10.46289-10.54687 3.08013-3.89025 5.81933-8.75906 8.38867-14.1875zm134.41406 8.32812c-2.91961 8.79737-6.44193 18.02996-10.69922 27.6836-6.69043 15.23716-16.02104 31.15888-28.17968 47.32226-9.97482 12.95108-21.22236 24.74183-33.55274 35.22852 1.97595-.46707 3.91114-.97309 5.79688-1.5293 10.92527-9.73707 20.95909-20.51322 29.97656-32.2207 12.34917-16.42128 21.81777-32.57252 28.59375-48.01172 3.58837-8.14006 6.6577-15.97643 9.29492-23.50782-.35247-1.72002-.76563-3.37223-1.23047-4.96484zm2.1875 11.01563c-2.20125 5.92031-4.65947 12.01849-7.42773 18.30078-6.86759 15.65554-16.48586 32.05449-29.03906 48.75195-7.86118 10.2057-16.4832 19.71003-25.78125 28.45313 1.91932-.70742 3.7931-1.45653 5.61132-2.25391 7.88475-7.76643 15.26152-16.08943 22.07422-24.93359 12.71646-16.91844 22.45168-33.51315 29.39258-49.3418 2.02275-4.59193 3.88604-9.08734 5.60547-13.48633-.0843-1.8961-.233-3.72295-.43555-5.49023zm.45703 12.25c-1.01717 2.45962-2.07114 4.94158-3.17968 7.45898-7.02033 16.01622-16.88398 32.82455-29.77735 49.98242-5.48568 7.12114-11.32938 13.91063-17.50586 20.34766 1.93824-1.03148 3.80967-2.11699 5.6211-3.24609 4.69642-5.14409 9.19474-10.49181 13.47265-16.04493 13.02948-17.3421 22.99277-34.31601 30.07422-50.47656.25577-.58097.4874-1.1467.73828-1.72461.29307-2.19043.47044-4.29055.55664-6.29687zm-1.86132 13.48828c-6.94673 14.79272-16.2557 30.21836-28.08008 45.95898-2.96329 3.8465-6.03362 7.59271-9.19727 11.2461 2.08737-1.52445 4.08027-3.11213 5.98047-4.75391 1.51833-1.8602 3.01528-3.74153 4.48438-5.64844 9.97795-13.28451 18.18328-26.33923 24.69531-38.97851.84413-2.66271 1.54685-5.27682 2.11719-7.82422zm-5.49219 16.88672c-5.40036 9.51604-11.74051 19.23895-19.05078 29.0957 8.56631-9.03448 14.79584-19.15591 19.05078-29.0957z" class="bra_primary"/><path d="m180.67383 260.83984c-.52725.27056-1.05124.54333-1.57422.81836.056.7041.14951 1.56535.24609 2.43164-.65694 11.26872-.6184 21.52371.92578 30.65039.90033 5.75959 1.93443 10.69287 3.4375 14.42774 1.25796 3.38314 2.94868 6.66102 4.91993 9.46875 2.05926 3.15425 5.29378 6.54523 9.22656 10.2168 1.91176 1.77296 4.05938 3.52335 6.38281 5.27343 1.89805 2.81073 3.93065 5.5365 6.09961 8.14844-5.42741-3.60857-10.28616-7.15543-14.25781-10.82812-4.12282-3.835-7.56049-7.45685-9.83399-10.90821-2.17301-3.10068-4.02541-6.68765-5.40429-10.39648-1.62205-4.07479-2.72709-9.29511-3.6543-15.29102-1.58325-9.51488-1.61205-20.11442-.9375-31.65429-1.10388.61068-2.19033 1.24443-3.27148 1.88476-.52698 10.75827-.37298 20.74466 1.12304 29.87891.95411 6.23226 2.132 11.74155 3.87305 16.15625 1.49978 4.03452 3.51383 7.93258 5.88867 11.32617 2.48778 3.74849 6.12856 7.59922 10.44141 11.59766 5.10421 4.70755 11.4352 9.16163 18.58203 13.73242 2.19311 1.40295 4.44426 2.7558 6.7207 4.08789.71861.63343 1.43712 1.26821 2.17969 1.875-.14966-.21357-.35255-.57224-.54883-.91602.084.0483.16586.0983.25.14649-.37389-.53437-.74892-1.06724-1.11133-1.60742-.65566-.56214-1.30521-1.15718-1.95117-1.76758-.29471-.27949-.58634-.57205-.8789-.86133-.31802-.31313-.63572-.62896-.95118-.95313-.4057-.41865-.80951-.84521-1.21093-1.28125-.15694-.16989-.3125-.34311-.46875-.51562-.48293-.53462-.96485-1.07518-1.44141-1.63281-47e-5-31e-5-.001 3e-4-.002.0-2.06437-2.41563-4.06545-5.04798-5.99219-7.85157-.0158-.023-.0311-.0473-.0469-.0703-.76049-1.10828-1.50711-2.24472-2.24414-3.40039-.10075-.15826-.20243-.3155-.30273-.47461-.74585-1.18114-1.47965-2.38375-2.19922-3.60937-.0118-.0201-.0253-.0385-.0371-.0586-1.62305-2.76779-3.17292-5.63909-4.65234-8.56836-67e-5-68e-5-.001-.001-.002-.002-2.51015-4.9703-4.80105-10.11478-6.83984-15.24414-.0461-.116-.0909-.23168-.13672-.34766-.44068-1.11484-.86906-2.22878-1.28515-3.33984-.0795-.21243-.15778-.42452-.23633-.63672-.36194-.97668-.71248-1.94958-1.05469-2.91992-.11767-.33397-.23626-.66895-.35156-1.00195-.31511-.90931-.61897-1.81422-.91602-2.71485-.0952-.28883-.19378-.57941-.28711-.86719-.38534-1.18764-.75877-2.36647-1.11133-3.5332-1.5831-5.23905-2.83005-10.23712-3.69922-14.76562-11e-5-62e-5 12e-5-.001.0-.002-.24434-1.27317-.45116-2.49768-.63476-3.6914-.0348-.22673-.067-.45021-.0996-.67383-.1669-1.1438-.31278-2.25736-.41992-3.31445-.003-.0273-.007-.0568-.01-.084-.0142-.14207-.022-.27562-.0352-.41601-.0514-.55289-.0948-1.09318-.12891-1.61915-.0144-.22118-.0258-.4361-.0371-.65234-.0247-.47478-.0431-.93851-.0527-1.38867-.004-.17097-.008-.34442-.01-.51172-.005-.60471-46e-5-1.19304.0234-1.74805zm-10.9336 6.22461c-1.08131.69204-2.1497 1.40341-3.20312 2.13867-.23624 9.13658.096 17.81315 1.39453 25.97852 1.00786 6.70493 2.33153 12.79217 4.31055 17.88672 1.74158 4.68591 4.07906 9.20019 6.85742 13.17969 2.91632 4.34273 6.95942 8.65516 11.65234 12.98047 5.52694 5.07352 12.19882 9.78561 19.60352 14.50586 7.1835 4.58044 14.7615 8.76159 22.65234 12.70312-2.37987-2.27137-4.57295-4.62901-6.61133-7.0625-5.09201-2.73202-10.02708-5.58857-14.77539-8.62109-7.27576-4.6455-13.77621-9.22861-19.09179-14.11914-4.50288-4.16189-8.34482-8.24347-11.04688-12.28907-2.57657-3.68656-4.75237-7.89368-6.37304-12.2539-1.86002-4.75463-3.11278-10.55093-4.09376-17.01953-1.40182-8.68915-1.6558-18.0444-1.27539-28.00782zm-6.37695 4.4668c-1.06129.81524-2.10805 1.65594-3.13476 2.53125.0273 7.35923.47134 14.48308 1.5332 21.3418 1.06164 7.17762 2.53105 13.83888 4.74805 19.61328 1.98338 5.3373 4.64228 10.47174 7.82421 15.03711 3.34485 4.93697 7.79419 9.70914 12.86719 14.36133 5.94967 5.43948 12.96052 10.40961 20.62305 15.27929 14.91074 9.47854 31.27686 17.26382 48.50781 24.59375.51371-.33783 1.02437-.67925 1.5293-1.02929-5.22164-2.47261-9.8924-5.18648-14.11524-8.10157-12.21159-5.58783-23.85215-11.56498-34.65625-18.44336-7.53361-4.79496-14.37496-9.63607-20.11328-14.89257-4.88295-4.48876-9.12918-9.03202-12.25976-13.67188-2.98013-4.27243-5.47737-9.09581-7.33985-14.10742-2.09801-5.43446-3.4965-11.80871-4.53125-18.75-1.18535-7.55674-1.58095-15.49134-1.48242-23.76172zm-6.21875 5.30859c-1.02515.97804-2.02488 2.00096-3.00781 3.0586.21759 5.33871.67645 10.5852 1.45312 15.72656 1.1154 7.65029 2.73252 14.88758 5.1875 21.3418 2.22517 5.98868 5.20748 11.74133 8.79297 16.89258 3.77338 5.5312 8.62508 10.76506 14.07813 15.74414 6.37239 5.80548 13.72611 11.03163 21.64648 16.05078 13.75098 8.71606 28.56338 16.00119 44.01172 22.75195 1.22611-.63963 2.43649-1.30783 3.62891-2.00781-16.37183-7.05066-32.00496-14.60193-46.37696-23.72461-7.79144-4.94442-14.97371-10.04157-21.13476-15.66406-5.26301-4.81565-9.91354-9.81865-13.47266-15.05274-3.38373-4.85831-6.2043-10.30183-8.30859-15.96484-2.33599-6.11428-3.87831-13.06456-4.9668-20.47852-.92618-6.05779-1.39586-12.28686-1.53125-18.67383zm24.94922 3.09571c1.21542 5.46209 2.82212 11.57163 4.93945 18.01562.68214 3.74742 1.43187 6.90318 2.41016 9.26563 1.0161 2.73153 2.38361 5.3916 3.95117 7.61328.15517.24359.34544.49899.52344.75 1.56434 3.40818 3.27758 6.8013 5.15039 10.13672-3.47234-3.28775-6.30928-6.27648-8.05664-8.98242-1.76945-2.51482-3.30043-5.48359-4.4375-8.54102-1.38407-3.39494-2.34333-8.03924-3.2168-13.5625-.78826-4.57787-1.16657-9.48582-1.26367-14.69531zM151.21484 283.25c-.35161.42989-.70572.8559-1.05078 1.29883-.61285.78668-1.19706 1.62872-1.76172 2.5039.25633 2.95062.58594 5.88369 1.01563 8.79297 1.16917 8.12313 2.93195 15.93799 5.625 23.07227 2.46706 6.64028 5.77056 13.01074 9.75976 18.74805 4.20207 6.12566 9.45972 11.82089 15.29297 17.12695 6.79526 6.17156 14.48773 11.65557 22.66602 16.82422 12.23983 7.73703 25.18865 14.35839 38.58203 20.43164 1.37394-.55371 2.73592-1.14 4.08594-1.76172-14.45052-6.4244-28.36354-13.40037-41.40039-21.65234-8.04929-5.09386-15.5725-10.44904-22.15625-16.4375-5.64309-5.14252-10.6979-10.60719-14.68555-16.43555-3.78727-5.44417-6.93126-11.50592-9.27734-17.82031-2.57398-6.79413-4.26202-14.32039-5.4043-22.20703-.61362-4.10897-1.0284-8.27227-1.29102-12.48438zm-5.42968 8.52734c-.85571 1.79659-1.62901 3.71159-2.31641 5.72852 1.22788 8.09158 3.07494 15.98489 5.8418 23.36133 2.70886 7.29168 6.33574 14.28229 10.72851 20.60547 4.63059 6.71992 10.29252 12.87487 16.50586 18.50781 7.218 6.53754 15.24942 12.27955 23.68555 17.59765 10.37446 6.54094 21.18086 12.28125 32.26367 17.55274 1.5197-.44806 3.03424-.94084 4.54492-1.4668-12.27204-5.69124-24.18905-11.89879-35.54297-19.0664-8.30722-5.24338-16.16915-10.85641-23.17578-17.21094-6.02329-5.46951-11.4821-11.39558-15.89843-17.81836-4.19098-6.03025-7.65814-12.70981-10.2461-19.67578-2.81204-7.47418-4.64769-15.57609-5.84375-23.93555-.20301-1.38915-.383-2.78324-.54687-4.17969zm-4.23047 12.55664c-.56225 2.50804-1.00847 5.11808-1.33008 7.8125.94812 3.6186 2.05135 7.18493 3.35156 10.66993 2.95066 7.94306 6.90094 15.55188 11.69727 22.46093 5.05914 7.31416 11.12534 13.93081 17.71875 19.89063 7.64072 6.9035 16.015 12.90353 24.70898 18.37109 8.09989 5.09432 16.41909 9.70233 24.88672 13.97852 1.6964-.31866 3.39943-.67161 5.11133-1.08594-9.82219-4.80571-19.43734-10.01871-28.73438-15.87305-8.56507-5.39283-16.7679-11.26386-24.19726-17.98437-6.40336-5.79638-12.26647-12.18219-17.11133-19.19922-4.59455-6.61611-8.38312-13.91583-11.21289-21.5332-2.10443-5.62609-3.69113-11.50407-4.88867-17.50782zm-1.91992 16.41993c-.0615 2.98201.0209 6.02155.25585 9.09375 2.8966 6.75514 6.45422 13.23317 10.61915 19.23632 5.48766 7.90839 11.95818 14.98479 18.93164 21.27149 8.06344 7.26949 16.7767 13.52557 25.72851 19.14258 5.33974 3.35053 10.75892 6.48713 16.23438 9.46289 1.88974-.12932 3.81752-.32609 5.77148-.58203-7.02578-3.67401-13.95249-7.59536-20.74023-11.85938-8.82288-5.5423-17.36667-11.67132-25.21875-18.75781-6.78342-6.12326-13.05278-12.97076-18.32618-20.58203-4.99812-7.202-9.10812-15.11991-12.17968-23.38867-.37485-1.00712-.73101-2.0196-1.07617-3.03711zm1.4707 18.65429c.60812 3.39201 1.40996 6.78215 2.41015 10.13477.72551 1.12824 1.46521 2.24493 2.22852 3.3457 5.9162 8.50265 12.79098 16.04072 20.14453 22.6543 8.48618 7.63545 17.54035 14.14954 26.75 19.91601 1.81382 1.1356 3.63573 2.24208 5.46289 3.33204.007 7e-4.013.001.0195.002 2.22404.23846 4.57882.36052 7.02344.375-3.77533-2.14212-7.52544-4.36115-11.24023-6.68945-9.08073-5.69175-17.96543-12.07684-26.24024-19.5293-7.1635-6.45013-13.83517-13.75737-19.53711-21.96289-2.56754-3.70175-4.90763-7.57729-7.02148-11.57813zm6.5 21.10938c2.1619 4.77939 4.78491 9.39437 7.91406 13.66992 2.22476 2.27292 4.49689 4.46134 6.81641 6.54297 4.94037 4.43713 10.03263 8.4855 15.20117 12.23047 3.70315 1.81959 7.71789 3.28327 12.05078 4.33984-8.72714-5.56569-17.3323-11.84473-25.47461-19.16406-5.86132-5.26571-11.43511-11.138-16.50781-17.61914z" id="path27891" class="bra_primary"/><path class="bra_accent" id="path24736-63-2-96" d="m351.21927 221.02205c.0484.004.0963.012.14355.0211 1.30692.14986 1.79545 1.08989 1.71129 1.61823-.0908.57198-.42783.85238-.88662 1.00034-1.1708.37758-2.98299.0203-3.80131-.12626 1.61054.85988 5.11899 3.02134 5.40026 3.35393.1139.13464.42852.87569.64118 1.31237-.84699-.81551-1.7638-1.55622-2.88442-2.07842-1.3021-.63986-2.85653-.88496-3.96885-1.37499-.82495-.4624-1.64589-.99613-2.03105-1.43405-.12564.0542-.15519.0747-.38911-.01-1.23718.52197-2.26512.95712-3.7436 1.36624-1.35504.37499-2.91966.98031-4.41877 1.51369l.36739-1.29896 4.47822-1.60704c-.55801-.0624-1.02608.0942-1.70575-.26618-2.0587-1.30874-1.98786-1.92841-1.71353-2.48225.22528-.42557.9951-.47278 1.65127-.37641.0478-.15514 1.03565-.12982 1.87551.0773 1.42733.35188 1.98435 1.52204 2.91086 2.36035.38696-.0279.54937-.006.83479.1959 2.02123-.57199 4.02807-1.93444 5.52867-1.76526zm.101.24217c-1.8326-.21406-2.57696.90835-3.80666 1.37517 1.27903-.096 2.93039.52881 4.17348.83983.49108.01 1.02286-.0552 1.11266-.84531 23e-5-1.02596-.70032-1.24315-1.47948-1.36969zM340.03136 220.261c-.83719.0765-1.16099 1.38223-.96959 1.36121 1.44206.0906 2.8897.46335 4.27773.71957-1.14561-.58793-2.09309-1.51039-3.30814-2.08078z"/></g></svg>