<svg viewBox="0 0 560 1e3"><path class="hair" id="path1480" d="m335.13237 114.0704c-.89834 5.59624 4.14981 9.8042 4.8648 9.41918-.1293 2.71709 1.41676 4.46417 3.50964 5.91017-.15427 2.76384.39856 5.14423 2.98169 6.47497-1.0436 3.94688.15376 5.3409 2.81581 7.3438-2.03732 12.08181 8.89852 16.133 16.31331 24.885 2.43156-20.87105-7.82339-19.9423-13.76897-28.00396 1.01077-2.56527-.25409-4.92225-2.87175-7.11773.88156-2.3644.48923-4.70879-1.74188-7.02778.16107-1.96634 1.15831-3.45337-1.73706-7.40344.71065-.26408.0334-6.76692-3.3595-7.09399.28299-5.27434-1.47388-4.93407-4.20907-7.38414"/><path d="m335.13237 114.0704c-.5501 5.47187 4.37967 9.72211 4.8648 9.41918.20504 2.71709 1.66289 4.46417 3.50964 5.91017.0339 2.70112.7043 5.04232 2.98169 6.47497-.723 3.87564.57998 5.24618 2.81581 7.3438-1.39454 11.98032 9.82784 15.98626 16.31331 24.885 1.68314-20.69834-8.11338-19.87538-13.76897-28.00396.73043-2.48517-.55691-4.83573-2.87175-7.11773.69547-2.3644.22024-4.70879-1.74188-7.02778.10994-1.98029.7976-3.55175-1.73706-7.40344.63941-.0741-.13645-6.31409-3.3595-7.09399-.30155-5.27434-1.62567-4.93407-4.20907-7.38414" id="path5566" class="hair"/><path class="shadow" id="path1478" d="m260.07577 108.60618c-2.55176 4.19753-2.06795 8.18013.41834 12.06403-3.31127 6.23872-.22343 7.08193.34773 10.02729-4.47318 4.99586-1.45674 8.00287.35087 10.11812-2.24601 2.30615-2.41121 5.3573.83038 8.88968-9.44235 4.67196-8.9277 17.0046-8.19184 27.51051 13.12179-11.5068 14.57739-16.98798 11.08831-25.66071 2.16128-2.17958 4.28884-4.40454.75205-8.15082 3.19158-2.92832 4.00734-6.39117.97663-10.58491 2.53365-2.86072 2.31069-6.20568.79799-9.45698 3.20847-3.19802 2.31209-8.80814.88765-12.82898"/><path d="m260.07577 108.60618c-2.27527 4.19753-1.60473 8.18013.41834 12.06403-2.38375 6.63623-.10729 7.1317.34773 10.02729-3.93654 4.85487-1.23046 7.94296.35087 10.11812-2.08665 2.25303-1.90357 5.18809.83038 8.88968-8.56208 5.15611-8.71868 17.11956-8.19184 27.51051 12.75289-11.48045 14.1232-16.95554 11.08831-25.66071 1.89563-2.12645 3.69798-4.28637.75205-8.15082 2.73452-2.97255 3.19458-6.46982.97663-10.58491 2.17783-2.76368 1.759-6.05522.79799-9.45698 2.73409-3.19802 1.78701-8.80814.88765-12.82898" id="path5572" class="hair"/></svg>