<svg viewBox="0 0 560 1e3"><path id="path6045" class="shadow" d="m307.10671 134.50075c-2.14996-.21128-3.4884-1.89949-3.24482-3.7169 5.61251-12.66418 20.17095-9.17457 20.34208-8.99178l-2.84372 2.07583s.49128 3.89972-.83752 5.48536c-1.92253 5.79302-5.27149 5.56862-13.41602 5.14749z"/><path d="m307.10671 134.50075c-1.87469-.40868-3.30955-2.02174-3.24482-3.70585 6.37333-6.81838 12.60798-6.56266 17.49836-6.927-.089 1.78171-.22231 3.81052-.83752 5.48536-2.65086 5.61858-6.10961 5.14951-13.41602 5.14749z" class="eyeball" id="XMLID_511_-4-2"/><path id="path6043" class="shadow" d="m310.44159 134.49641c-3.67367-1.48686-4.29831-3.49933-3.15534-6.74851 2.69791-2.16227 6.05502-3.5901 10.32531-3.68959 2.99107 2.5491 2.13293 6.70626-.65334 9.45436-2.61876 1.10509-4.65424.97852-6.51663.98374z"/><path d="m310.44159 134.49641c-3.31639-1.90368-3.90593-3.95711-3.15534-6.74851 2.69791-2.16227 6.05502-3.5901 10.32531-3.68959 1.97318 2.65914 1.65167 6.75829-.65334 9.45436-2.61876 1.10509-4.65424.97852-6.51663.98374z" class="iris" id="XMLID_511_-4-2-3"/><path id="path836-0" class="shadow" d="m312.9516 125.29705c1.10576-.11043 1.2531 1.93253 1.3748 3.0371.10786.97889.37016 2.74199-.60312 2.89222-1.01892.15728-1.36813-1.67605-1.515-2.69652-.15752-1.09444-.35693-3.12293.74332-3.2328z"/><path d="m317.67935 111.63924c-7.50966 2.24905-13.60059 5.38357-18.28488 9.05551-.50012-.83277-.541-1.08655-.54648-1.94262 2.10133-1.86939 9.26628-5.39235 18.83136-7.11289z" class="shadow" id="path898"/><path id="path836-0-8-5-8" class="hair" d="m317.67935 111.63924c-7.62756 2.19852-13.77221 5.31002-18.28488 9.05551-.4503-.83989-.48773-1.09416-.54648-1.94262 1.80803-1.6451 8.85545-5.07818 18.83136-7.11289z"/><path id="path6039" class="shadow" d="m274.44008 140.2959c-3.77011-1.33495-4.55682-6.73794-4.41296-6.90577l-2.12826-.77244s4.27612-4.61357 8.17537-4.1261c3.11408.38931 5.88666 4.99929 6.94086 6.58701.70038.99444 1.14834 1.97959 1.20977 3.09041-.11063.6088-.16261.79325-1.19487 1.03043-2.0078 1.16001-6.00188.99826-8.58991 1.09646z"/><path d="m274.44008 140.2959c-3.10223-2.11414-3.60251-4.55455-4.41296-6.90577 6.75267-6.49147 10.05247.18553 13.13641 2.39159.7155.74756.79828 1.35208 1.06133 2.38729-.18602.58367-.41907.70776-1.19487 1.03043-2.25853.56739-6.04492.89652-8.58991 1.09646z" class="eyeball" id="XMLID_511_-4-2-6"/><path d="m277.23993 140.0554c-3.75163-1.66167-4.05213-6.80108-3.89825-8.99651 4.41482-1.71661 6.48962 1.95868 9.57878 4.535.35859 1.15724.43496 2.38638-.22192 3.68841.0.0-2.91362.57316-5.45861.7731z" class="shadow" id="path6037"/><path id="path2346" class="iris" d="m277.23993 140.0554c-3.52398-2.02728-3.57865-6.55541-3.89825-8.99651 4.41482-1.71661 6.48962 1.95868 9.57878 4.535.0721 1.2479-.002 2.50301-.22192 3.68841.0.0-2.91362.57316-5.45861.7731z"/><path id="path836-0-1" class="shadow" d="m278.79187 132.35429c.7753-.12567.96972 1.30423 1.11402 2.07628.14378.76921.47663 2.16241-.28777 2.32986-.76786.16821-1.09139-1.23356-1.24105-2.00526-.15462-.79729-.3869-2.27094.4148-2.40088z"/><path d="m268.39113 125.24474c3.84956-1.23054 7.58928-1.35196 11.67387-.22046-.22533-.68817-.47718-1.38369-1.24059-1.8713-3.84357-.72563-7.95641.48803-10.43328 2.09176z" class="shadow" id="path900"/><path id="path836-0-8-5-8-4" class="hair" d="m268.39113 125.24474c3.88481-1.32454 7.6163-1.42402 11.67387-.22046-.29393-.68817-.5742-1.38369-1.24059-1.8713-3.82999-.617-7.94966.54201-10.43328 2.09176z"/><path id="path836-0-8-5" class="shadow" d="m314.20378 119.09392c-6.05866 2.28691-11.22162 5.0986-12.90586 12.75528.30717-4.71449.75031-5.81731.75031-5.81731s5.19124-5.91333 12.15555-6.93797z"/><path id="path836-0-8-5-6" class="shadow" d="m283.68032 132.67341c-2.29173-3.19341-6.81165-7.67408-11.63652-4.4549 4.04155-3.32386 9.21676.61188 9.21676.61188s.78358 1.28953 2.41976 3.84302z"/></svg>