<svg viewBox="0 0 560 1e3"><path class="shadow" d="m363.55281 356.57182c-13.04597 10.05054-30.52506 18.13242-49.52731 24.45001-18.70218 6.21782-38.12829 10.45256-54.27098 12.31176-16.54746 1.90581-24.01277-.43699-28.23396-3.57421-3.96949-2.95016-5.35262-7.14386-5.66001-7.94326-.79131 10.33354-.50217 17.72824-.71076 27.95332-.20233 9.918-.92033 17.25752-2.66063 25.93228-1.50592 8.25534-3.62981 15.82346-5.31008 23.71029.16469.01.46488 1e-5.46488 1e-5 1.79482-8.2517 3.77324-15.3359 5.21575-23.69673 1.82019-9.48678 2.30092-17.47021 2.41377-26.7108.11214-9.18241-.11471-17.29533.64293-26.76237.30835.80025 1.6944 5.00842 5.68958 7.97606 4.24539 3.15349 11.75764 5.51382 28.30518 3.60733 16.15874-1.8617 35.44279-6.02343 54.02988-12.17461 18.85085-6.23848 36.29559-14.27157 49.38687-24.31154 5.46073 9.16804 8.33638 17.47304 13.9559 25.40265 6.23705 8.801 11.58928 16.14973 16.09311 25.22057 4.2869 8.63395 7.41136 18.21439 8.69297 29.3632.69112 6.01195.30757 14.09034-.29055 22.08633.11938.01.3281.0.3281.0.6776-7.57403 1.11568-14.91887.38499-22.0851-2.05922-17.80959-8.48651-31.18026-17.35481-44.36628-3.18697-4.92867-6.42501-8.89601-9.22427-13.38526-.60973-.98007-1.18624-1.96628-1.74351-2.95972-3.82716-6.57484-7.69014-15.55787-10.61704-20.04393z" id="path34818-5-8"/><path class="bottoms_primary" d="m363.32792 357.33936c-13.09128 10.03997-30.53602 18.07306-49.38687 24.31154-18.58709 6.15118-37.87114 10.31291-54.02988 12.17461-16.54754 1.90649-24.05979-.45384-28.30518-3.60733-3.99518-2.96764-5.38123-7.17581-5.68958-7.97606-.75764 9.46704-.53079 17.57996-.64293 26.76237-.11285 9.24059-.59358 17.22402-2.41377 26.7108-1.44251 8.36083-3.42093 15.44503-5.21574 23.69673 61.4068.0107 184.13538 9e-5 184.13538 9e-5.59812-7.99599.98167-16.07439.29055-22.08633-1.28161-11.14881-4.40607-20.72925-8.69297-29.3632-4.50383-9.07084-9.85606-16.41957-16.09311-25.22057-5.61952-7.92961-8.49517-16.23461-13.9559-25.40265z" id="path34820-6-2"/><path class="bottoms_accent" d="m373.28633 376.34585c-14.83154 10.17191-32.17905 18.49462-49.71222 24.60842-17.83929 6.22055-36.40025 10.35934-56.16042 12.69521-13.81299 1.63285-23.3837.74839-30.00353-1.44035-6.63832-2.19486-10.08049-5.63328-12.09312-9.15382.001.28539-.0104.82663-.0104.82663 2.06515 3.58947 5.58551 7.01414 12.29218 9.17583 6.689 2.15599 16.30745 2.987 30.1814 1.34603 19.44761-2.3002 37.67563-6.35508 55.21476-12.42168 17.22732-5.95876 34.33931-14.07056 49.07249-23.94689-.0983.0938-.32875.25153-.32875.25153.79201.78666 2.4454 3.23354 4.23471 6.63197 1.78305 3.38653 3.84705 7.84728 5.88062 12.94001 4.18192 10.47282 7.94255 22.88216 10.22982 35.9962 1.53791 8.81753 2.26948 17.6994 1.92241 25.55716 1.35324.01 4.02911.0 4.02911.0.32412-8.23104-.50753-17.308-2.04621-26.26779-2.29631-13.37144-5.96018-26.00415-10.07361-36.64841-.43852-1.13476-.87822-2.22151-1.31697-3.28902-2.38663-3.53419-4.76602-6.86836-7.31477-10.46487-1.37328-1.93782-2.57017-3.89051-3.6879-5.87925.005.0145-.0181.0136-.0181.0136.002.003-.29323-.5337-.29145-.53048z" id="path34822-1-86"/><path class="bottoms_accent" d="m363.85734 358.24846c-13.1513 10.09074-30.67519 18.17048-49.57191 24.44333-18.63674 6.18655-37.94849 10.37402-54.1731 12.24787-16.59852 1.91704-24.17574-.45814-28.4483-3.60573-2.10425-1.5502-3.40371-3.32368-4.24645-4.78086-.8378-1.44863-1.3827-2.93023-1.5676-3.41072-.0212.31651-.074.91999-.074.91999.16234.42233.56714 1.58735 1.40746 3.05295.86066 1.50108 2.18399 3.31686 4.32639 4.89859 4.34681 3.20926 12.0636 5.59627 28.75879 3.66531 16.28373-1.88337 35.58938-6.06955 54.24463-12.26975 18.90284-6.28249 36.48891-14.39471 49.71065-24.54364-.12272-.20585-.24489-.41162-.36651-.61734z" id="path34824-5-0"/><path class="bottoms_accent" id="path103099-0" d="m261.921 401.22607c-3.38804.27658-4.12267 2.73869-4.3696 3.65149-1.06618 3.94113-.87351 6.74843-1.05566 9.94044-.97624 1.12541-.82833 2.36852-.90542 3.73663.4849.37276.97281.46136 1.80382.12948-.22448 3.96738.87319 10.34131 1.44485 14.11373l2.9095-.4235c-1.72219-4.79825-1.86043-8.79325-2.43108-13.00755.11815-3.44662.79394-6.95032 1.56749-10.46404l.38237 1.28022c-.65185 2.74119-1.39301 5.73056-1.17807 8.131.25089 2.80224 2.18265 4.27409 4.12343 4.06998 1.48371-.15591 2.62922-1.02011 3.39293-2.45204-.006-1.45523-.069-2.99814-.10433-4.70132-.99454-1.85518-2.62629-4.04696-4.68254-6.46298.13126-.72412-.0423-1.31077-.13514-1.93379.55279.2181.91458.10281 1.05943-.39118.77164-.15971 2.06177.17362 2.3061-.48738 1.84634 2.93273 3.6722 2.96764 5.49395 2.42183.14868-.96374.21852-2.19976.61023-2.32423l-.14174-.77082c-2.28567-.97315-4.68914-2.10371-7.26571-3.46558-.75271-.46902-1.62907-.688-2.82481-.59039zm-1.44055.96422.0921 2.12668c-.59859.30304-.74765.74654-.13657 1.42758-1.48586 3.41463-2.18253 7.54404-2.85504 11.69532.30838-6.15238-.0717-13.42326 2.89955-15.24958zm2.5049 2.06816c.59849.28459 1.10442.51354 1.34778.58453-.30131.15996-.45845.37445-1.25231.34809-.21068-.29256-.11916-.61607-.0955-.93262zm-.87748 7.69185c1.85444 1.98701 3.89306 4.01516 4.5129 5.72643l-1.15855 1.87775c-.6731.026-1.2705.0451-1.83024.53291-.66276.57754-1.47331.72751-2.15214-.15664-.53741-2.70095-.43367-5.36687.62803-7.98045z"/></svg>