<svg viewBox="0 0 560 1e3"><defs/><path class="shadow" d="m360.86486 353.80633c-14.23972 6.47934-31.9976 12.15348-51.3518 17.04409-18.65117 4.71296-37.64543 8.3994-51.21587 10.04356-9.60535 1.16375-16.51372 1.45949-21.86788.36975-5.42406-1.10397-9.05096-3.55058-12.53085-7.9722-.26076 2.64759-.45869 5.25578-.59263 7.9438.0931-1.8219.29243-4.39052.64669-7.81362 3.47545 4.42024 7.10154 6.84346 12.51532 7.92253 5.34555 1.06547 12.24016.74556 21.8458-.41818 13.5812-1.64539 32.50345-5.27669 51.09772-9.93757 19.27019-4.83032 37.03248-10.46458 51.2862-16.93621.55578 1.0513 1.17281 2.19056 1.87489 3.4261 5.64828 9.13782 8.61694 17.42785 14.34971 25.33912 6.35417 8.7688 11.80396 16.12808 16.36321 25.17661 4.34766 8.62862 7.49702 18.19576 8.78671 29.34789.63152 5.46082-.10527 13.72817-1.13646 22.07011.0972.01.26171.0.26171.0 1.02426-8.36072 1.753-16.65082 1.11739-22.13209-1.29283-11.14895-4.42581-20.70533-8.74551-29.31532-4.52972-9.0286-9.9503-16.38053-16.29225-25.14636-5.72436-7.91222-8.89875-16.44941-14.53952-25.58625-.70117-1.2354-1.31745-2.37458-1.87258-3.42576zm-137.5928 28.11719c-.465 10.20544.0799 18.04425.25236 28.08235.1697 9.87552-.23017 17.30189-1.62114 25.8588-1.30126 8.01864-3.23669 15.89167-4.28436 23.54761.12401.01.34183.0.34183.0.97559-7.65533 2.80918-15.52934 4.08717-23.54854 1.4868-9.32949 1.68698-17.30616 1.49586-26.31111-.18453-8.6945-.71274-17.4988-.26427-26.93123-.0237.0313-.0253-.22197-.007-.69788h3e-5z" id="path13516"/><path class="bottoms_primary" d="m360.69756 354.05228c-14.25372 6.47163-32.01601 12.10589-51.2862 16.93621-18.59427 4.66088-37.51652 8.29218-51.09772 9.93757-9.60564 1.16374-16.50025 1.48365-21.8458.41818-5.41378-1.07907-9.03987-3.50229-12.51532-7.92253-.50218 4.85253-.7894 9.35356-.67301 9.19969-.44847 9.43243.0797 18.23673.26427 26.93123.19112 9.00495-.009 16.98162-1.49586 26.31111-1.27799 8.0192-3.11158 15.89321-4.08717 23.54854 61.01996.0106 182.97487-17e-5 182.97487-17e-5 1.03116-8.34194 1.76799-16.60929 1.13646-22.07011-1.28969-11.15213-4.43905-20.71927-8.78671-29.34789-4.55925-9.04853-10.00904-16.40781-16.36321-25.17661-5.73277-7.91127-8.70143-16.2013-14.34971-25.33912-.70208-1.23554-1.31911-2.3748-1.87489-3.4261z" id="path13518"/><g id="g13534"><path class="bottoms_primary_strong_shade" d="m290.11047 448.21505c-1.79312-2.86216-3.43869-6.72411-5.63742-9.87104-4.0506-5.79739-8.43151-11.83155-12.27489-17.85709-3.91654-6.14027-6.91665-11.71146-9.03795-17.1915-4.23245-10.93382-3.76029-18.90956-3.21015-22.51717.0.0-3.93995.86351-4.83488 2.28774-1.46064 9.80057 1.60941 20.16581 8.46824 31.72035 3.2175 5.42028 7.06475 10.77735 10.53459 15.39456 3.24233 4.31446 6.95436 9.03543 9.16362 11.68125 1.645 1.97006 3.68808 4.21589 4.95528 5.46205 1.31934 1.29743 2.20965 1.91611 1.87356.89085z" id="path13520"/><path class="bottoms_primary" d="m248.38919 381.93783c-.51315 10.9666 2.4045 21.33486 8.4564 32.90637 4.99734 9.55515 13.56828 22.06102 17.21888 26.99205 3.7089 5.00978 9.87919 6.79153 15.9747 6.99616-3.95762-6.29387-7.67165-11.37321-12.71803-18.58903-4.72894-6.76191-8.91476-13.05437-12.23723-19.5257-6.81131-13.2667-7.27118-22.58876-6.73879-28.30151-.22945-.9463-1.04647-1.30387-2.44646-1.14967-2.3241.25529-5.63307.59953-7.50947.67133z" id="path13522"/><path style="baseline-shift:baseline;clip-rule:nonzero;color-interpolation-filters:linearRGB;color-interpolation:sRGB;color-rendering:auto;color:#000;direction:ltr;display:inline;dominant-baseline:auto;enable-background:accumulate;fill-opacity:.586998;fill-rule:nonzero;fill:#4d4d4a;image-rendering:auto;isolation:auto;mix-blend-mode:normal;opacity:1;overflow:visible;shape-padding:0;shape-rendering:auto;solid-color:#000000;solid-opacity:1;stroke-dasharray:none;stroke-dashoffset:0;stroke-linecap:butt;stroke-linejoin:miter;stroke-miterlimit:4;stroke-opacity:1;stroke-width:.453543;stroke:none;vector-effect:none;visibility:visible;white-space:normal;writing-mode:lr-tb" d="m248.59829 381.91679c-.13214.0233-.4181.0407-.4181.0407-.50583 10.96594 2.40825 21.33383 8.45766 32.90881 4.99727 9.56182 13.57163 22.07875 17.24433 27.04808 1.90238 2.57401 4.41848 4.31342 7.24159 5.43068 2.81707 1.11488 5.93077 1.61231 8.96261 1.71414-.0191-.14157-.0971-.45518-.0971-.45518-2.9931-.10042-6.0614-.59501-8.80036-1.67535-2.74479-1.08264-5.13181-2.73041-6.94115-5.17027-3.62817-4.89251-12.19653-17.38819-17.19417-26.93685-6.05481-11.56852-8.97609-21.93742-8.45538-32.90474l2e-5-4e-5z" id="path13524"/><path style="baseline-shift:baseline;clip-rule:nonzero;color-interpolation-filters:linearRGB;color-interpolation:sRGB;color-rendering:auto;color:#000;direction:ltr;display:inline;dominant-baseline:auto;enable-background:accumulate;fill-opacity:.586998;fill-rule:nonzero;fill:#4d4d4a;image-rendering:auto;isolation:auto;mix-blend-mode:normal;opacity:1;overflow:visible;shape-padding:0;shape-rendering:auto;solid-color:#000000;solid-opacity:1;stroke-dasharray:none;stroke-dashoffset:0;stroke-linecap:butt;stroke-linejoin:miter;stroke-miterlimit:4;stroke-opacity:1;stroke-width:.453543;stroke:none;vector-effect:none;visibility:visible;white-space:normal;writing-mode:lr-tb" d="m248.59829 381.91679c-.13214.0233-.4181.0407-.4181.0407-.50583 10.96594 2.40825 21.33383 8.45766 32.90881 4.99727 9.56182 13.57163 22.07875 17.24433 27.04808 1.90238 2.57401 4.41848 4.31342 7.24159 5.43068 2.81707 1.11488 5.93077 1.61231 8.96261 1.71414-.0191-.14157-.0971-.45518-.0971-.45518-2.9931-.10042-6.0614-.59501-8.80036-1.67535-2.74479-1.08264-5.13181-2.73041-6.94115-5.17027-3.62817-4.89251-12.19653-17.38819-17.19417-26.93685-6.05481-11.56852-8.97609-21.93742-8.45538-32.90474l2e-5-4e-5z" id="path13526"/><path style="baseline-shift:baseline;clip-rule:nonzero;color-interpolation-filters:linearRGB;color-interpolation:sRGB;color-rendering:auto;color:#000;direction:ltr;display:inline;dominant-baseline:auto;enable-background:accumulate;fill-opacity:.586998;fill-rule:nonzero;fill:#4d4d4a;image-rendering:auto;isolation:auto;mix-blend-mode:normal;opacity:1;overflow:visible;shape-padding:0;shape-rendering:auto;solid-color:#000000;solid-opacity:1;stroke-dasharray:none;stroke-dashoffset:0;stroke-linecap:butt;stroke-linejoin:miter;stroke-miterlimit:4;stroke-opacity:1;stroke-width:.453543;stroke:none;vector-effect:none;visibility:visible;white-space:normal;writing-mode:lr-tb" d="m248.59829 381.91679c-.13214.0233-.4181.0407-.4181.0407-.50583 10.96594 2.40825 21.33383 8.45766 32.90881 4.99727 9.56182 13.57163 22.07875 17.24433 27.04808 1.90238 2.57401 4.41848 4.31342 7.24159 5.43068 2.81707 1.11488 5.93077 1.61231 8.96261 1.71414-.0191-.14157-.0971-.45518-.0971-.45518-2.9931-.10042-6.0614-.59501-8.80036-1.67535-2.74479-1.08264-5.13181-2.73041-6.94115-5.17027-3.62817-4.89251-12.19653-17.38819-17.19417-26.93685-6.05481-11.56852-8.97609-21.93742-8.45538-32.90474l2e-5-4e-5z" id="path13528"/><path style="baseline-shift:baseline;clip-rule:nonzero;color-interpolation-filters:linearRGB;color-interpolation:sRGB;color-rendering:auto;color:#000;direction:ltr;display:inline;dominant-baseline:auto;enable-background:accumulate;fill-opacity:.586998;fill-rule:nonzero;fill:#4d4d4a;image-rendering:auto;isolation:auto;mix-blend-mode:normal;opacity:1;overflow:visible;shape-padding:0;shape-rendering:auto;solid-color:#000000;solid-opacity:1;stroke-dasharray:none;stroke-dashoffset:0;stroke-linecap:butt;stroke-linejoin:miter;stroke-miterlimit:4;stroke-opacity:1;stroke-width:.453543;stroke:none;vector-effect:none;visibility:visible;white-space:normal;writing-mode:lr-tb" d="m248.59829 381.91679c-.13214.0233-.4181.0407-.4181.0407-.50583 10.96594 2.40825 21.33383 8.45766 32.90881 4.99727 9.56182 13.57163 22.07875 17.24433 27.04808 1.90238 2.57401 4.41848 4.31342 7.24159 5.43068 2.81707 1.11488 5.93077 1.61231 8.96261 1.71414-.0191-.14157-.0971-.45518-.0971-.45518-2.9931-.10042-6.0614-.59501-8.80036-1.67535-2.74479-1.08264-5.13181-2.73041-6.94115-5.17027-3.62817-4.89251-12.19653-17.38819-17.19417-26.93685-6.05481-11.56852-8.97609-21.93742-8.45538-32.90474l2e-5-4e-5z" id="path13530"/><path class="bottoms_primary_shade" d="m248.59829 381.91679c-.13214.0233-.4181.0407-.4181.0407-.50583 10.96594 2.40825 21.33383 8.45766 32.90881 4.99727 9.56182 13.57163 22.07875 17.24433 27.04808 1.90238 2.57401 4.41848 4.31342 7.24159 5.43068 2.81707 1.11488 5.93077 1.61231 8.96261 1.71414-.0191-.14157-.0971-.45518-.0971-.45518-2.9931-.10042-6.0614-.59501-8.80036-1.67535-2.74479-1.08264-5.13181-2.73041-6.94115-5.17027-3.62817-4.89251-12.19653-17.38819-17.19417-26.93685-6.05481-11.56852-8.97609-21.93742-8.45538-32.90474l2e-5-4e-5z" id="path13532"/></g><path style="baseline-shift:baseline;clip-rule:nonzero;color-interpolation-filters:linearRGB;color-interpolation:sRGB;color-rendering:auto;color:#000;direction:ltr;display:inline;dominant-baseline:auto;enable-background:accumulate;fill-opacity:.784314;fill-rule:nonzero;fill:#1e1e1e;image-rendering:auto;isolation:auto;mix-blend-mode:normal;opacity:1;overflow:visible;shape-padding:0;shape-rendering:auto;solid-color:#000000;solid-opacity:1;stroke-dasharray:none;stroke-dashoffset:0;stroke-linecap:butt;stroke-linejoin:miter;stroke-miterlimit:4;stroke-opacity:1;stroke-width:.453543;stroke:none;vector-effect:none;visibility:visible;white-space:normal;writing-mode:lr-tb" d="m369.28606 369.78041c-12.43495 6.88297-26.53254 12.7975-44.7453 17.98375-18.76883 5.34459-39.49082 9.26202-63.61353 12.9827-9.38967 1.44824-17.82357 2.18801-24.38866 1.03901-6.33005-1.10786-10.63104-3.84699-13.42109-9.34886.005.18538.002.52682.002.52682 2.81326 5.44858 7.15622 8.16325 13.46612 9.26623 6.62791 1.15857 15.10206.41186 24.50546-1.0398 24.0942-3.71957 44.83524-7.6511 63.6125-13.00245 18.23366-5.19642 32.36013-11.12016 44.80555-18.00889 59e-5.001-.22375-.39956-.22317-.39851z" id="path13536"/></svg>