<svg viewBox="0 0 560 1e3"><defs><clipPath clipPathUnits="userSpaceOnUse" id="clipPathTorsoUnnatural"><path style="display:inline;fill-opacity:1;fill:#0ff;opacity:1" d="m330.55078 146.24219-33.94726 3.49414c-.60023 11.74644 4.71263 22.22405 4.14257 32.1582-3.83498 2.97182-5.98164 3.47574-13.82226 5.20313-.50811.12713-.99038.25932-1.45703.39453-3.72264.82253-9.04126 2.01096-14.32032 3.34179-8.65971 10.94361-15.77788 17.65645-24.83789 40.22852-7.97663 19.22419-2.76622 39.20128 6.8418 56.00977-1.06764 11.32585-1.52592 26.55771 1 35.50195-11.37059 21.52353-15.89766 23.525-18.09766 43.625-1.1 10.1-2.23134 20.37109-6.00781 40.87109 1.79918 21.68192 24.06434 28.08621 33.55274 33.19727 14.43169 10.04215 15.75568 13.80686 22.99414 21.73047 2.40278 1.2769 6.48148.50653 7.11523-.33399l1.04492-.0117c1.31243 1.17872 7.86741 1.71406 11.33008.17774 1.25908-5.51105 3.06526-22.40357 25.5332-37.0293 9.99479-6.9207 28.66489-25.38486 47.28125-34.05664-9.1-20.7-12.62221-28.06668-19.58398-39.49609-3.8841-8.49646-20.35167-24.94928-20.57812-24.78321.17394-.53763-12.86413-13.70783-12.93165-15.85937 2.56898-6.32141 6.07277-31.48998 8.07422-32.87695 17.10876-11.85604 23.08422-25.51867 27.05078-41.16602-.3269-2.17434-.47181-3.26841-.6582-5.75-1.66961-10.3676-2.48045-23.52968-5.33008-34.10742.025-10.96207 3.83399-17.95313 3.83399-17.95313-3.25954-.78952-9.49632-1.47902-12.42774-1.80664.0206-.0319.042-.0618.0625-.0937-7.39171-1.56131-16.05124-2.24254-15.85742-30.60937z" id="path13423"/></clipPath><clipPath clipPathUnits="userSpaceOnUse" id="clipPathTorsoHourglass"><path style="display:inline;fill-opacity:1;fill:#f0f;opacity:1" d="m330.55078 146.24219-33.94726 3.49414c-.60023 11.74644 4.71263 22.22405 4.14257 32.1582-3.83498 2.97182-5.98164 3.47574-13.82226 5.20313-.56276.1408-1.09742.28682-1.60938.4375-3.67844.81605-7.62914 1.65042-14.16797 3.29882-8.65971 10.94361-15.77788 17.65645-24.83789 40.22852-5.87551 18.9358-2.9645 38.67948 2.8418 56.00977-1.06764 11.32585-1.52592 26.55771 1 35.50195-11.37059 21.52353-11.89766 23.525-14.09766 43.625-1.1 10.1-2.23134 20.37109-6.00781 40.87109 1.79918 21.68192 24.06434 28.08621 33.55274 33.19727 14.43169 10.04215 15.75568 13.80686 22.99414 21.73047 1.37693.26708 4.09368 1.61095 7.06445-.26758l1.11133-.0781c1.17404 1.57274 8.90177 1.53055 11.31445.17774 1.25908-5.51105 3.06526-22.40357 25.5332-37.0293 9.99479-6.9207 28.66489-25.38486 47.28125-34.05664-9.1-20.7-12.62221-28.06668-19.58398-39.49609-3.8841-8.49646-20.35168-24.94928-20.57812-24.78321.17394-.53763-7.38366-13.70783-7.45118-15.85937 2.56898-6.32141 6.52259-31.00027 8.07422-32.87695 3.11188-3.76379 5.69391-7.22683 7.88672-10.51954 7.0161-10.53536 10.04592-19.32698 13.68359-30.64648-.3269-2.17434-.47181-3.26841-.6582-5.75-1.66961-10.3676-2.48045-23.52968-5.33008-34.10742.025-10.96207 3.83399-17.95313 3.83399-17.95313-4.4617-1.08069-8.62379-1.33294-12.38086-1.87695.005-.008.0105-.0154.0156-.0234-7.39171-1.56131-16.05124-2.24254-15.85742-30.60937z" id="path13449"/></clipPath><clipPath clipPathUnits="userSpaceOnUse" id="clipPathTorsoNormal"><path style="display:inline;fill-opacity:1;fill:#f9ff00;opacity:1" d="m330.55078 146.24219-33.94726 3.49414c-.60023 11.74644 4.71263 22.22405 4.14257 32.1582-3.83498 2.97182-5.98164 3.47574-13.82226 5.20313-.58083.14532-1.12952.29729-1.65625.45312-3.72076.82535-7.55904 1.62893-14.1211 3.2832-8.65971 10.94361-15.77788 17.65645-24.83789 40.22852-5.87551 18.9358-2.9645 38.67948 2.8418 56.00977-1.06764 11.32585-1.52592 26.55771 1 35.50195-11.37059 21.52353-11.89766 23.525-14.09766 43.625-1.1 10.1-2.23134 20.37109-6.00781 40.87109 1.79918 21.68192 24.06434 28.08621 33.55274 33.19727 14.43169 10.04215 15.75568 13.80686 22.99414 21.73047.78119.55861 4.78693 1.49428 7.05664-.26758l1.14258-.0781c1.51181 1.59807 9.57688 1.45961 11.29101.17774 1.25908-5.51105 3.06526-22.40357 25.5332-37.0293 9.99479-6.9207 28.66489-25.38486 47.28125-34.05664-9.1-20.7-12.62221-28.06668-19.58398-39.49609-23.58113-57.47054-9.98057-57.2743 1.61523-114.68555-.3269-2.17434-.47181-3.26841-.6582-5.75-1.66961-10.3676-2.48045-23.52968-5.33008-34.10742.025-10.96207 3.83399-17.95313 3.83399-17.95313-4.46045-1.0804-8.62863-1.32705-12.38672-1.86914.007-.0108.0146-.0205.0215-.0312-7.39171-1.56131-16.05124-2.24254-15.85742-30.60937z" id="path13552"/></clipPath></defs><g style="display:inline;opacity:1" select_clip_options="clip-path=url(#clipPathTorsoUnnatural) url(#clipPathTorsoHourglass) url(#clipPathTorsoNormal)" select_clip="torso" id="g59034"><path class="top_primary_strong_shade" id="path59030" d="m363.64258 314.74609c-1.11903-.002-2.21738.0102-3.29883.0352-12.97746.29931-23.46414 2.5083-36.72461 5.16602-15.21533 3.04953-32.46118 5.76233-47.46875 6.81445-9.31456.65299-18.7131-.4785-27.39062-2.51367-10.49878-2.46231-24.7167-5.06047-31.7168-5.82813l-.0371.54688c7.04362.78474 21.14012 3.36295 31.57617 5.81054 8.67752 2.03517 18.07607 3.16667 27.39063 2.51368 15.00757-1.05212 32.25342-3.76493 47.46875-6.81446 13.26047-2.65772 23.74715-4.8667 36.72461-5.16601 4.32581-.0998 8.92766.0118 14.00195.39062l-.67969 16.59766c-19.21985-1.43501-30.49956 1.06543-48.25 4.62305-15.49341 3.10526-33.01541 5.87443-48.625 6.96874-10.47149.73412-20.75327-.53535-30.12109-2.73242-10.06237-2.35996-24.50593-4.96251-30.58203-5.63281l-.041.61914c6.05519.66404 20.54107 3.27411 30.62305 5.63867 9.36782 2.19707 19.6496 3.46653 30.12109 2.73242 15.60959-1.09431 33.13159-3.86349 48.625-6.96874 17.75044-3.55762 29.03015-6.05806 48.25-4.62305l.85742-17.75195c-3.80571-.28415-7.34604-.41875-10.70312-.42579z"/><path d="m360.16602 315.31139c-12.97746.29931-23.46414 2.50829-36.72461 5.16601-15.21533 3.04953-32.46118 5.76234-47.46875 6.81446-9.31456.65299-18.71311-.47851-27.39063-2.51368-10.49878-2.46231-24.7167-5.06046-31.7168-5.82812l-.99609 16.56863c6.05519.66404 20.54107 3.27411 30.62305 5.63867 9.36782 2.19707 19.6496 3.46653 30.12109 2.73242 15.60959-1.09432 33.13159-3.86349 48.625-6.96875 17.75044-3.55762 29.03015-6.05805 48.25-4.62304l.67969-16.59598c-5.07429-.37886-9.67614-.49039-14.00195-.39062z" id="path59032" class="top_primary"/></g><path d="m348.63477 177.18378c-1.98412 7.5476-4.3514 14.29372-6.72852 21.00196-3.21216 9.06475-6.45102 18.07257-8.64258 28.68164-25.23315 1.42365-44.84663 5.27937-61.27344 5.69336-6.91894.17437-12.98624.19156-18.55664.0371 6.28787-15.78172 15.81493-25.81266 26.55469-43.86914-2.61517.58974-5.24346 1.19867-7.93164 1.89062-9.62174 15.17667-18.32042 25.07176-24.39844 40.92578-6.08204 15.8645-3.25303 29.78136-.0957 45.12891 2.7936 13.57946 5.87395 28.50422 3.98828 48.04492 3.49468.72849 7.02119 1.43378 10.66602 1.79492 2.29932.22782 4.61875.37192 6.94531.41797 2.32656.046 4.65964-.007 6.98828-.16992 7.50379-.52606 15.56693-1.4673 23.65625-2.6582 8.08933-1.19091 16.20484-2.63149 23.8125-4.15625 4.93412-.98892 9.30688-1.79068 13.74414-2.58008-.40013-2.3997-.94845-4.81353-1.25-7.19531 95e-5-.003.003-.005.004-.008-.47357-3.73968-.82871-7.44793-1.08789-11.10156-.0636-.89794-.10616-1.78298-.15821-2.67383-.1202-2.05329-.21354-4.0847-.27734-6.09375-.0265-.83864-.0606-1.68387-.0781-2.51367-.0236-1.10848-.0305-2.19775-.0391-3.28906-.006-.8173-.0152-1.63648-.0137-2.44336.002-1.08352.0143-2.15345.0293-3.2168.0106-.73844.0227-1.47312.0391-2.20117.0239-1.07127.0505-2.13431.0859-3.18164.0251-.73963.0556-1.46641.0859-2.19336.0414-.99511.0827-1.99287.13282-2.96289.044-.84902.0947-1.67328.14453-2.50195.0464-.77373.0878-1.56326.13867-2.31836.10162-1.50786.21252-2.97965.32813-4.40821.19061-2.35545.40082-4.52511.61132-6.64062.19261-1.93128.38322-3.74451.57422-5.45117.0894-.79899.18329-1.69545.26953-2.44141.24584-2.12271.48584-4.13034.67774-5.7832.11831-1.01906.24918-2.0179.38867-3.00391.0415-.29444.0895-.58134.13281-.87305.10778-.72345.21558-1.44309.33399-2.15039.0409-.24553.0848-.48678.12695-.73047.13687-.78788.27859-1.57009.42773-2.33984.0237-.12269.0483-.24493.0723-.36719.17663-.89711.35887-1.78483.55078-2.66015.005-.0206.009-.0419.0137-.0625 2.07934-9.46192 5.02956-17.70429 8.08203-26.31836 2.45546-6.92932 4.9698-14.09743 7.06836-22.23438-1.96695-.30714-4.0286-.5759-6.14257-.82422z" id="path59036" class="top_primary"/></svg>