<svg viewBox="0 0 560 1e3"><path d="m279.32608 455.94559c0 .62226-.69774 1.32-1.32 1.32s-1.32-.69774-1.32-1.32.69774-1.32 1.32-1.32 1.32.69774 1.32 1.32z" id="path5367" class="shadow"/><path d="m267.16909 452.42759c0 .62226-.69774 1.32-1.32 1.32-.62225.0-1.32-.69774-1.32-1.32s.69775-1.32 1.32-1.32c.62226.0 1.32.69774 1.32 1.32z" id="path5369" class="shadow"/><path d="m255.73898 445.70196c0 .62226-.69774 1.32-1.32 1.32-.62225.0-1.32-.69774-1.32-1.32s.69775-1.32 1.32-1.32c.62226.0 1.32.69774 1.32 1.32z" id="path5371" class="shadow"/><path d="m253.6059 448.4511c-.1319.43108-.454.83595-.8342.95782-.59256.18992-1.46998-.26154-1.65992-.85411-.14441-.4504.0818-1.06536.45889-1.41792.93489.72737.6411.55508 2.03523 1.31421z" id="path5373" class="shadow"/><path d="m265.5593 454.44558c-.16216.44966-.55171.86506-.97144.94958-.61001.12286-1.43176-.42342-1.55461-1.03343-.0671-.33311.0653-.72933.29871-1.04042.93912.42785 1.20925.51628 2.22734 1.12427z" id="path5375" class="shadow"/><path d="m278.2379 458.29452c-.0227.53919-.40222 1.14805-.8798 1.30781-.59013.19738-1.47317-.24293-1.67057-.83304-.0976-.29167-.0394-.65493.11578-.97157 1.41151.22806 1.41602.28022 2.43459.4968z" id="path5377" class="shadow"/><path d="m240.60996 437.37066c0 .62225-.69774 1.32-1.32 1.32-.62226.0-1.32-.69775-1.32-1.32.0-.62226.69774-1.32 1.32-1.32.62226.0 1.32.69774 1.32 1.32z" id="path5379" class="shadow"/><path d="m238.70088 439.11634c-.14424.42709-.36968.71535-.75322.82623-.59778.17279-1.46184-.30371-1.63466-.90149-.13139-.45436.15055-1.14949.53759-1.49106.91358.75395.99523.83721 1.85029 1.56632z" id="path5381" class="shadow"/><path d="m228.69651 428.43254c0 .62226-.69775 1.32-1.32 1.32-.62226.0-1.32-.69774-1.32-1.32.0-.62225.69774-1.32 1.32-1.32.62225.0 1.32.69775 1.32 1.32z" id="path5383" class="shadow"/><path d="m226.75541 430.22143c-.17751.41438-.42502.68394-.81611.76418-.60957.12507-1.43331-.41818-1.55838-1.02773-.0951-.46332.24085-1.13404.65365-1.44398.85119.82374.92602.91318 1.72084 1.70753z" id="path5385" class="shadow"/><path d="m217.90214 418.58422c0 .62225-.69775 1.32-1.32 1.32-.62226.0-1.32-.69775-1.32-1.32.0-.62226.69774-1.32 1.32-1.32.62225.0 1.32.69774 1.32 1.32z" id="path5387" class="shadow"/><path d="m215.86444 420.37392c-.19754.40519-.45792.66234-.85249.72337-.61488.0956-1.41115-.48773-1.50628-1.10268-.0728-.46733.29599-1.1209.72345-1.4103.80991.86437.88029.95737 1.63532 1.78961z" id="path5389" class="shadow"/><path d="m206.5921 406.08404c0 .62226-.69774 1.32-1.32 1.32-.62226.0-1.32-.69774-1.32-1.32s.69774-1.32 1.32-1.32c.62226.0 1.32.69774 1.32 1.32z" id="path5391" class="shadow"/><path d="m204.55199 407.99749c-.25088.37452-.54386.59382-.94306.60054-.62217.011-1.33158-.67534-1.34207-1.29751-.009-.47291.44586-1.07016.90875-1.29865.68466.96661.74172 1.06832 1.37638 1.99562z" id="path5393" class="shadow"/><path d="m194.7645 389.49569c0 .62226-.69774 1.32-1.32 1.32-.62226.0-1.32-.69774-1.32-1.32s.69774-1.32 1.32-1.32c.62226.0 1.32.69774 1.32 1.32z" id="path5395" class="shadow"/><path d="m192.72439 391.40914c-.25088.37452-.54386.59382-.94306.60054-.62217.011-1.33158-.67534-1.34207-1.29751-.009-.47291.44586-1.07016.90875-1.29865.68466.96661.74172 1.06832 1.37638 1.99562z" id="path5397" class="shadow"/><path class="steel_piercing" id="path4680" d="m279.20608 455.94559c0 .56569-.63431 1.2-1.2 1.2-.56569.0-1.2-.63431-1.2-1.2.0-.56569.63431-1.2 1.2-1.2.56569.0 1.2.63431 1.2 1.2z"/><path class="steel_piercing" id="path4682" d="m267.04909 452.42759c0 .56569-.63431 1.2-1.2 1.2-.56568.0-1.2-.63431-1.2-1.2.0-.56569.63432-1.2 1.2-1.2.56569.0 1.2.63431 1.2 1.2z"/><path class="steel_piercing" id="path4684" d="m255.61898 445.70196c0 .56569-.63431 1.2-1.2 1.2-.56568.0-1.2-.63431-1.2-1.2.0-.56569.63432-1.2 1.2-1.2.56569.0 1.2.63431 1.2 1.2z"/><path class="steel_piercing" id="path4686" d="m253.49053 448.4369c-.11991.39189-.41273.75995-.75836.87074-.53869.17266-1.33635-.23776-1.50902-.77646-.13128-.40945.0744-.96851.41717-1.28902.8499.66125.58282.50462 1.85021 1.19474z"/><path class="steel_piercing" id="path4688" d="m265.44369 454.43843c-.14742.40878-.50156.78642-.88313.86326-.55455.11169-1.3016-.38493-1.41328-.93949-.061-.30282.0594-.66302.27155-.94583.85375.38895 1.09932.46934 2.02486 1.02206z"/><path class="steel_piercing" id="path4690" d="m278.1198 458.33356c-.0206.49017-.36565 1.04368-.79982 1.18892-.53648.17943-1.33924-.22085-1.5187-.75731-.0887-.26516-.0358-.59539.10526-.88325 1.28319.20733 1.28729.25475 2.21326.45164z"/><path class="steel_piercing" id="path4692" d="m240.48996 437.37066c0 .56568-.63431 1.2-1.2 1.2s-1.2-.63432-1.2-1.2c0-.56569.63431-1.2 1.2-1.2s1.2.63431 1.2 1.2z"/><path class="steel_piercing" id="path4694" d="m238.59085 439.08433c-.13112.38826-.33607.65032-.68474.75112-.54344.15708-1.32895-.2761-1.48606-.81954-.11944-.41305.13687-1.04499.48872-1.35551.83053.68541.90476.7611 1.68208 1.42393z"/><path class="steel_piercing" id="path4696" d="m228.57651 428.43254c0 .56569-.63432 1.2-1.2 1.2-.56569.0-1.2-.63431-1.2-1.2.0-.56568.63431-1.2 1.2-1.2.56568.0 1.2.63432 1.2 1.2z"/><path class="steel_piercing" id="path4698" d="m226.64674 430.17937c-.16137.37671-.38638.62177-.74192.69471-.55415.1137-1.30301-.38016-1.41671-.9343-.0865-.4212.21896-1.03094.59423-1.31271.77381.74886.84184.83017 1.5644 1.5523z"/><path class="steel_piercing" id="path4700" d="m217.78214 418.58422c0 .56568-.63432 1.2-1.2 1.2-.56569.0-1.2-.63432-1.2-1.2.0-.56569.63431-1.2 1.2-1.2.56568.0 1.2.63431 1.2 1.2z"/><path class="steel_piercing" id="path4702" d="m215.7568 420.32592c-.17958.36836-.41629.60213-.77499.65761-.55898.0869-1.28286-.44339-1.36934-1.00243-.0662-.42485.26908-1.019.65768-1.28209.73628.78579.80026.87033 1.48665 1.62691z"/><path class="steel_piercing" id="path4704" d="m206.4721 406.08404c0 .56569-.63431 1.2-1.2 1.2s-1.2-.63431-1.2-1.2c0-.56569.63431-1.2 1.2-1.2s1.2.63431 1.2 1.2z"/><path class="steel_piercing" id="path4706" d="m204.44811 407.93408c-.22807.34048-.49441.53984-.85732.54595-.56561.01-1.21053-.61395-1.22007-1.17956-.008-.42991.40533-.97287.82614-1.18059.62242.87874.67429.9712 1.25125 1.8142z"/><path class="steel_piercing" id="path4704-1" d="m194.6445 389.49569c0 .56569-.63431 1.2-1.2 1.2s-1.2-.63431-1.2-1.2c0-.56569.63431-1.2 1.2-1.2s1.2.63431 1.2 1.2z"/><path class="steel_piercing" id="path4706-8" d="m192.62051 391.34573c-.22807.34048-.49441.53984-.85732.54595-.56561.01-1.21053-.61395-1.22007-1.17956-.008-.42991.40533-.97287.82614-1.18059.62242.87874.67429.9712 1.25125 1.8142z"/></svg>