<svg viewBox="0 0 560 1e3"><path id="path1689" class="shadow" d="m305.80825 157.94409c-.8548-.20715-1.69504 1.05433-2.24611 1.38466-1.38135.82803-3.23335 1.46386-4.6915 1.74179-.25799.0491-.47638-.0203-.72681.0217-.17097.0286-.37606.17057-.54336.19602-.56454.0858-1.10494.0624-1.62673.0812-.24768.009-.48233-.1-.71865-.097-.24169.003-.48479.11782-.71409.11529-1.01429-.0113-1.63882-.22005-2.18604-.23905-.33886-.0117-.63527-.73644-.99312-.59295-.2332.0935-.33959.51693-.20093.72644.23393.35344 1.08422.13957 1.26053.16687 5.02665.86195 8.82029-.17354 12.32373-2.04708 1.11562-.51234 1.37121-.13028 1.54245-.66309.0947-.29449-.17874-.72172-.47937-.79457z"/><path id="path1859" class="shadow" d="m301.53601 165.93411c-2.02347.86053-3.10624.92883-5.4758.64055 2.47756 1.53907 4.80114 1.46264 5.4758-.64055z"/><path id="path1861" class="shadow" d="m301.34436 156.47125c-1.15206-.33648-2.05286-.82621-3.54261.56243 1.20293-.76676 1.84162-.83196 3.54261-.56243z"/><path d="m296.10906 157.05937c-1.4946-.56084-1.13683-.29834-2.45199.49033 1.26388-.42143.80065-.69239 2.45199-.49033z" class="shadow" id="path1863"/><path d="m304.36281 159.88887c-2.57237.86731-4.07207 1.68186-5.28117 2.5105.5751.93264 4.82493.20067 5.28117-2.5105z" class="highlight2" id="path1464-7"/><path d="m296.00694 162.68212c-.81152-.0853-2.58411-1.21796-3.69219-1.08745.45583 1.01478 2.71602 2.57162 3.69219 1.08745z" class="highlight2" id="path1466-8"/><path d="m296.72911 159.04007c-.78327.45697-1.99803.91128-2.9765.13898.33843-.28242 1.89774-.53044 2.9765-.13898z" class="highlight2" id="path1468-6"/></svg>