<svg viewBox="0 0 560 1e3"><g id="g174209" data-transform="boob_outfit"><path d="m321.0957 222.02918c-2.38805 2.39004-4.77711 4.81526-7.25976 7.38281-2.46081-2.46201-5.41464-4.52165-8.00195-6.50195l-8 6.94531c2.93625 2.41405 4.89503 4.42277 7.6953 7.9297-2.65835 2.65954-5.33332 5.56969-7.66406 7.99999l7.1836 8.13867c2.98159-2.84086 5.89566-5.28052 8.6221-8.00313 2.26754 2.31833 4.27373 3.99258 6.49208 7.21676l8.65357-7.63081c-2.5796-3.17037-4.50345-5.22147-6.91424-7.68829 2.55686-2.64771 4.92595-5.30291 7.28906-7.66796zm-.0254.11914 7.96094 7.95508c-2.31677 2.31868-4.78624 5.12101-7.29297 7.7168 2.36352 2.41845 4.34793 4.50508 6.87695 7.61328l-8.43945 7.44726c-2.17485-3.16095-4.26716-4.95955-6.49023-7.23242-2.67298 2.66922-5.54562 5.17579-8.46875 7.96094l-7.04297-7.97852c2.28504-2.38265 4.96017-5.34377 7.5664-7.95117-2.74537-3.43816-4.79515-5.4536-7.67382-7.82031l7.87304-6.77734c2.53658 1.94147 5.48002 4.08236 7.89258 6.49609 2.43397-2.5172 4.89705-5.08652 7.23828-7.42969z" id="path19796" class="shadow"/><path d="m321.06939 222.14828c-2.34123 2.34317-4.80431 4.91249-7.23828 7.42969-2.41256-2.41373-5.356-4.55462-7.89258-6.49609l-7.87304 6.77734c2.87867 2.36671 4.92869 4.38192 7.67406 7.82008-2.60623 2.6074-5.28152 5.56834-7.56656 7.95099l7.04297 7.97851c2.92313-2.78515 5.79569-5.2913 8.46867-7.96052 2.22307 2.27287 4.31538 4.07148 6.49023 7.23243l8.43945-7.44727c-2.52902-3.1082-4.51293-5.19506-6.87645-7.61351 2.50673-2.59579 4.9757-5.39789 7.29247-7.71657z" id="path168634" class="bra_primary"/><g id="g11545" transform="translate(0.19887379,1.1269515)"><path d="m243.48047 228.49609c-2.02249 1.07226-3.89217 1.9158-5.81641 2.91211-7.07399 2.68624-11.09892 9.13135-7.05859 15.04492.069-.0403.13811-.0809.20703-.12109 1.44248 2.57023 3.39105 5.03764 5.04688 7.24414l8.03124-3.94531c-.0408-.0584.0246.0365-.0156-.0215l-7.96875 3.7207c-1.62335-2.16324-3.53112-4.58369-4.94531-7.10352-.0676.0394-.13553.0796-.20313.11914-3.88698-5.79763.0298-12.11643 6.91797-14.75 1.88651-.97678 3.82576-1.93508 5.8086-2.98632l3.91406 8.11718c-2.40808 1.41924-5.26694 3.22106-7.98828 4.75 1.10362 2.60969 2.07111 4.45667 3.26367 6.33008-1.17747-1.86531-2.11942-3.69732-3.21875-6.29687 2.77577-1.55952 5.59694-3.29447 8.05318-4.74209z" transform="translate(0.11048544,0.06629126)" id="path19801" class="shadow"/><path d="m230.86779 246.41223c.0676-.0395.13522-.079.20279-.11843 1.41419 2.51983 3.32357 4.93875 4.94692 7.10199l7.9692-3.72263c-1.80491-2.5882-3.01476-4.70016-4.46575-8.13126 2.72134-1.52894 5.57991-3.33027 7.98799-4.74951l-3.91503-8.11597c-1.98283 1.05124-3.92038 2.00945-5.80689 2.98623-6.88817 2.63357-10.80621 8.95195-6.91923 14.74958z" id="path168833" class="bra_primary"/><path d="m237.57422 231.7832c-.0192-.0384-.0169-.083-.0371-.12109-6.88817 2.63357-10.7405 9.08518-6.85352 14.88281.0531-.0468.11242-.12186.16602-.16992-.47372-.71283-.83679-1.43185-1.08399-2.15234-.2514-.73277-.38994-1.46702-.42578-2.19141-.0358-.72439.0325-1.43907.19336-2.13867s.41524-1.38264.75391-2.04102c.67733-1.31674 1.69157-2.53461 2.9668-3.58789 1.21547-1.00392 2.6957-1.83249 4.32031-2.48047z" id="path168840" class="shadow"/></g></g></svg>