<svg viewBox="0 0 560 1e3"><path transform="translate(-220)" style="fill:#070505" d="m523.375 164.2125-2.6-6.8c12.75713-2.94492 23.23175-9.45485 32.075-18.5625l-2.2375 8.65c-7.51195 8.76554-17.68909 12.0982-27.2375 16.7125z" id="XMLID_892_"/><path style="display:inline;fill:#070505" d="m293.22989 164.19677-.18125-6.175c-9.86299-.39059-15.54142-2.51766-23.98953-7.65228 1.68204 3.01591 3.32107 6.03183 5.86142 9.04775 5.59927 3.72945 11.74667 3.21777 18.30936 4.77953z" id="XMLID_892_-2"/><ellipse ry="8.6999998" rx="7.5999999" cy="161.16251" cx="298.51154" class="gag" id="XMLID_893_"/><path d="m306.02067 162.97491-2.0677 2.89842-5.39788 1.58688-2.82555-.10895-1.88734-.62251-1.38183-1.34784-1.2286-1.56979 1.06304 4.39723 6.7635 2.54005 5.76357-2.47077z" class="skin" id="path6092-9-0"/><path d="m302.62164 169.71603c-1.74238.53615-2.60522.4584-4.21391.59078 1.90231 1.18953 3.69017 1.02552 4.21391-.59078z" class="shadow" id="path6086"/><path d="m304.91055 156.29042-2.41768-3.28171-5.11224-1.06107-5.04732 2.60438-.83575 3.32702 1.24872-.83125 8.84286-1.44319 1.18295-.0262z" class="skin" id="path6092-9"/><path d="m295.20052 154.26071c-2.3361.18741-2.33066.35817-4.0167 1.55377 1.655-.6968 2.23834-1.20495 4.0167-1.55377z" class="shadow" id="path6090"/><path d="m304.161 154.50746c-2.57764-.30209-3.84681-1.5219-6.16236-.68113 1.75915-.36046 4.35011.67624 6.16236.68113z" class="shadow" id="path6092"/><path d="m299.04326 167.07067c-.13152.022-.40257.12733-.53126.14693-.43426.066-.66116.11591-.9949.11275-.32669-.003-.64714-.0906-.9716-.12883-.39646-.0467-.8023-.0332-1.19129-.1229-.4284-.0988-.70933-.26528-1.2387-.45306-.77848-.27614-2.88068-2.86681-2.88068-2.86681s1.49812 2.61596 2.79901 3.13737c3.08136 1.23506 6.83182.62648 9.92721-.79502.85817-.39411 2.09247-3.26423 2.09247-3.26423s-1.38905 2.28638-2.22782 2.75017c-.83878.46378-1.81847.80943-2.77091 1.08765-.65596.19162-1.81889.36368-2.01153.39598z" class="shadow" id="path6088-1"/><path d="m301.42603 155.31779c-1.28714.38629-2.48719.72941-3.60885.9432-.19845.0378-.36644-.0156-.55908.0167-.13152.022-.28928.13121-.41797.15079-.43426.066-.85211.11837-1.2517.15887-.18968.0192-.37524-.0526-.55649-.0385-.18537.0144-.36623.11468-.54237.1242-.77914.0421-1.28226-.0804-1.68445.0447-.56144.17459-1.39365 1.2375-1.39365 1.2375s1.11202-.73807 1.36276-.82425c.25074-.0862 5.13658.10226 8.25323-1.27205.8774-.3869 2.03092-.18331 3.83075.45061-1.71452-1.0529-3.04021-1.10941-3.43218-.99177z" class="shadow" id="path6088-5"/><path d="m306.00314 162.68917c.82424 1.59261-.25293 4.15034-.18904 5.79891.0911 2.35063.32668 3.5911.37952 5.03581 1.6367.3233.5575-1.65754.30956-2.60214-.29108-1.10897-.42575-1.27143-.51903-2.48708-.1298-1.69155 1.24547-4.2508.019-5.7455z" class="highlightStrong" id="path6086-7"/><path d="m291.15378 163.72407c-.16856 1.30377 1.45269 2.69973 1.87939 4.09263.53262 1.73866.85951 3.42387 1.37577 4.68809-1.35851.96837-1.26851-1.95297-1.43138-2.91589-.11777-.69625-.20232-.84009-.3062-1.37611-.29951-1.54531-1.83304-2.52165-1.51758-4.48872z" class="highlightStrong" id="path6086-7-7"/><path d="m305.98681 162.86279c.3563 1.7575-1.38048 3.92219-1.77075 5.52517-.55648 2.28563-.79481 6.07442-1.13986 7.47832 1.31025 1.89023 1.36569-.045 1.29978-1.65992-.0468-1.14558-.13923-4.46443.10418-5.65911.33867-1.66238 2.27663-3.9109 1.50666-5.68446z" class="highlightStrong" id="path6086-7-0"/></svg>