<svg viewBox="0 0 560 1e3"><path style="display:inline;fill-opacity:1;fill:none;opacity:1;stroke-dasharray:none;stroke-dashoffset:0;stroke-linecap:butt;stroke-linejoin:miter;stroke-miterlimit:4;stroke-opacity:1;stroke-width:.453543;stroke:#ff9300;vector-effect:none" d="m275.93925 295.01492c-.1215 11.02184-4.87336 19.63231-4.19533 36.66884.66344 16.66979 6.22863 36.7322 8.00498 57.06277" id="path7032-3"/><path id="path2636" class="shadow" d="m311.24092 364.98969c11.30701-29.22957 5.62876-44.8886-21.51319-63.23975-10.03554 1.53363-24.20431-1.41111-37.04124-2.13834-10.20832 30.79084-11.51166 37.84205-10.21479 59.6384 15.6102 44.12734 52.77782 22.59483 68.76922 5.73969z"/><path id="path2632" d="m246.35522 321.08429c-4.04438 14.39398-5.33307 22.66562-4.41385 38.16571 6.15265 52.7894 60.11405 28.03071 69.29955 6.84454 7.94348-18.68306 8.60144-33.04291.96839-45.72561-20.32569 4.14782-40.69316 8.19515-65.85409.71536zm65.85409-.71536C307.83085 313.09392 300.72435 306.37075 290.7 299.7c-15.73274-8.16624-36.32471-6.9694-38.01351-.0884-2.58984 8.76527-4.68802 15.62433-6.33127 21.47269 26.87923 9.94581 47.10701 4.48006 65.85409-.71536z" class="skin belly"/><path d="m273.24018 345.52181c.48219-2.95995.50103-5.52426-.57274-9.24552l-.0242.001c-.78458 4.82879-.38541 6.45786.59697 9.24433z" class="shadow belly_details" id="path1454-6-0"/><path id="path1459-5-0" class="muscle_tone belly_details" d="m272.66744 336.27629c-2.33392-7.76332.81606-35.04811.81606-35.04811l.001.003s-3.96483 25.46463-.84168 35.04655z"/></svg>