<svg viewBox="0 0 560 1e3"><path style="fill:#010101" d="m376.88867 383.11914c.0983.23266.19673.46195.29492.69727 5e-4-.004 96e-5-.009.002-.0137-.0988-.23682-.19801-.44927-.29688-.68359z" id="path34997"/><path d="m360.8125 351.97852c-43.5525 7.44838-89.94863 18.37474-125.45508 10.625-2.375 20.43241-5.98475 40.43792-12.91601 70.09375-2.08185 8.90731-3.48149 17.78633-4.54883 26.71484h.46484c1.01829-8.77956 2.36825-17.50791 4.4375-26.36133 6.93126-29.65583 10.4961-49.70626 12.8711-70.13867 35.50645 7.74974 81.40648-3.17271 124.95898-10.62109 4.29176 7.67055 9.69075 16.00949 14.98242 27.875-5.26181-11.90621-10.50458-20.51949-14.79492-28.1875z" id="path34936" class="shadow"/><path d="m360.625 352.29102c-43.5525 7.44838-89.45253 18.37083-124.95898 10.62109-2.375 20.43241-5.93984 40.48284-12.8711 70.13867-2.06925 8.85342-3.4189 17.58211-4.4375 26.36133H393.9375c-.0137-22.42148-7.23621-48.64666-12.4043-64.02734-6.94813-20.67826-14.98397-32.50553-20.9082-43.09375z" id="path34938" class="bottoms_primary"/></svg>