<svg viewBox="0 0 560 1e3"><g id="g2471" data-transform="boob_left"><path d="m318.59282 234.03508s-.11499-3.81768 1.22122-4.77171c1.58512-1.13175 4.5519-1.00681 5.82428.46781 1.22519 1.41994.82424 4.17252-.37576 5.61379-.97167 1.16701-4.41518 1.12275-4.41518 1.12275s3.01918-.73804 3.66366-1.96482c.5254-1.00012.40807-2.55472-.37576-3.36827-.8787-.91201-2.63035-1.13857-3.7576-.56138-1.15561.59172-1.78486 3.46183-1.78486 3.46183z" class="shadow" id="path5163"/><path d="m310.28243 234.2374s.11499-3.81768-1.22122-4.7717c-1.58512-1.13176-4.5519-1.00682-5.82428.46781-1.22519 1.41994-.82425 4.1725.37576 5.61378.97167 1.16701 4.41518 1.12276 4.41518 1.12276s-3.01918-.73805-3.66366-1.96482c-.5254-1.00012-.40807-2.55472.37576-3.36827.87869-.91201 2.63035-1.13857 3.7576-.56138 1.15561.5917 1.78486 3.46182 1.78486 3.46182z" class="shadow" id="path5165"/><path id="XMLID_525_-3-4" class="steel_piercing" d="m318.94693 233.89456s-.10454-3.47062 1.1102-4.33792c1.44101-1.02886 4.13809-.91528 5.2948.42528 1.1138 1.29086.74932 3.7932-.3416 5.10344-.88333 1.06092-4.0138 1.02069-4.0138 1.02069s2.74471-.67095 3.3306-1.7862c.47763-.90919.37098-2.32247-.3416-3.06207-.79882-.8291-2.39123-1.03506-3.416-.51034-1.05056.53793-1.6226 3.14712-1.6226 3.14712z"/><path id="XMLID_525_-3-4-7" class="steel_piercing" d="m309.92832 234.09689s.10454-3.47063-1.1102-4.33793c-1.44101-1.02886-4.13809-.91527-5.2948.42529-1.1138 1.29086-.74932 3.79319.3416 5.10344.88333 1.06092 4.0138 1.02069 4.0138 1.02069s-2.74471-.67096-3.3306-1.78621c-.47764-.90919-.37098-2.32246.3416-3.06206.79882-.8291 2.39123-1.03506 3.416-.51035 1.05056.53793 1.6226 3.14713 1.6226 3.14713z"/></g><g id="g2475" data-transform="boob_right"><path d="m233.6736 236.25927s.52066-1.96301 1.31836-2.41641c1.8234-1.03638 4.94335-1.37303 6.2876.2369.6135.73477.27894 2.17383-.40565 2.84284-1.14436 1.11833-4.7664.56857-4.7664.56857s3.24984.1672 3.9551-.995c.30319-.49963.04-1.32757-.40566-1.7057-1.03355-.87699-2.77598-.72879-4.05651-.28428-.82031.28477-1.92684 1.75308-1.92684 1.75308z" class="shadow" id="path5167"/><path id="XMLID_525_-3-4-3" class="steel_piercing" d="m234.03404 236.17194s.47333-1.78457 1.19851-2.19674c1.65764-.94217 4.49396-1.24822 5.716.21536.55773.66797.25359 1.97621-.36877 2.5844-1.04033 1.01665-4.3331.51688-4.3331.51688s2.95441.152 3.59555-.90454c.27563-.45421.0363-1.20689-.36878-1.55064-.93958-.79727-2.52363-.66255-3.68774-.25844-.74574.25888-1.75167 1.59372-1.75167 1.59372z"/></g></svg>