<svg viewBox="0 0 560 1e3"><defs><filter style="color-interpolation-filters:sRGB" id="filter33355"><feGaussianBlur stdDeviation="2 2" result="blur" id="feGaussianBlur33353"/></filter><clipPath clipPathUnits="userSpaceOnUse" id="clipPath33357"><path style="fill-opacity:.39894553;fill:#00e0e8" id="path33359" d="m376.26653 307.61106c-1.88158 6.09632 1.78864 14.58239 5.2492 26.09205 2.46473 8.19757 1.44095 16.36694 3.6408 24.0503 3.71989 12.99237 10.12989 25.00635 12.07785 36.18157 4.97043 28.51471 7.02391 41.093 7.02391 41.093.93429 4.44769 1.11063 8.61058 1.13471 8.20116-.50858 2.50315-1.84566 4.26985-3.07415 6.13307-4.24317 4.44186-10.16962 8.21041-12.54906 13.39776-1.35273 1.84846-1.33633 4.63248-1.65625 6.40149-1.54405 3.15371-5.45081 5.77187-1.20417 10.23813.67374.57695 1.79742.88394 2.87256 1.22005.43604 2.40878.39022 4.81755.16282 7.22633 2.85652 2.31993 5.73383 4.62055 10.20275 5.44325 2.74382.3074 5.49067.75728 8.17729-1.62387 3.18049.27826 5.74573-1.12514 8.04562-3.25386 3.06833-.26918 5.98639-1.00499 7.94931-4.70674 2.52633-.0808 2.65601-.84635 3.69726-1.35146.93229-8.68965 1.82726-17.46971-.23479-33.41487.41885-.86041.90873-1.54325 1.10644-2.95652-.4755-1.97859-.64423-3.89583-.8344-5.81736.0.0-1.32658-10.15105-4.03375-27.40667-3.28397-20.9322-.61749-47.35642-3.56145-61.93369-5.07086-25.10879-12.88754-33.92208-16.17665-44.92823-1.06963-9.28742-6.90951-43.83017-10.48131-76.21312 1.6744-16.82464 3.75524-26.77216-7.88563-41.90342-8.1-7.9-27.20662-9.05478-27.20662-9.05478-2.50151 5.59877-7.25637 8.55837-2.40116 26.5298 1.54934 6.04617 2.09532 12.1497 2.87927 19.20574.0898.7951.43578 1.30753.52964 2.11141 3.21726 27.55479 8.8063 60.02903 16.54996 81.03948z"/></clipPath></defs><path id="path6856" class="shadow" d="m376.26653 307.61106c-2.14507 6.09632.95143 14.58239 5.2492 26.09205 1.87591 8.39384 1.26226 16.44062 3.6408 24.0503 3.37217 13.22418 9.98815 25.21016 12.07785 36.18157 4.14241 28.63267 6.86059 41.11676 7.02391 41.093.54035 5.7083 1.10863 8.61698 1.13471 8.20116-.72861 2.17311-1.94979 4.11365-3.07415 6.13307-4.82849 4.1492-10.51338 8.03853-12.54906 13.39776-1.56301 1.90103-1.45359 4.66179-1.65625 6.40149-1.54405 3.15371-5.8047 5.94881-1.20417 10.23813.6622.72696 1.77977 1.11335 2.87256 1.22005.23741 2.44851.17236 4.86112.16282 7.22633 2.49394 2.53144 5.1114 4.98363 10.20275 5.44325 2.92776.61397 5.79979 1.27248 8.17729-1.62387 3.26969.67965 5.82302-.77733 8.04562-3.25386 3.14258.003 6.15413-.38994 7.94931-4.70674 2.52633.39151 2.65601-.8 3.69726-1.35146 1.05602-8.6649 2.10684-17.41379-.23479-33.41487.44323-.76288 1.00078-1.17506 1.10644-2.95652-.2947-2.03025-.53754-3.92631-.8344-5.81736.12272-.0153-.91142-10.19582-4.03375-27.40667-2.39433-20.31058-.58347-46.56592-3.56145-61.93369-4.11097-24.76433-12.78003-33.88061-16.17665-44.92823-.74024-9.33448-6.11497-43.94368-10.48131-76.21312 1.72012-16.83036 4.13085-26.81911-7.88563-41.90342-8.14189-8.2351-27.22056-9.16634-27.20662-9.05478 2.10557 8.45982-.69822 17.22648-2.08866 25.9048 2.34527 6.04617 2.38024 12.86244 2.82089 19.54348 2.09144 28.37203 6.68148 62.46708 16.82548 83.43815z"/><path d="m376.26653 307.61106c-1.88158 6.09632 1.78864 14.58239 5.2492 26.09205 2.46473 8.19757 1.44095 16.36694 3.6408 24.0503 3.71989 12.99237 10.12989 25.00635 12.07785 36.18157 4.97043 28.51471 7.02391 41.093 7.02391 41.093.93429 4.44769 1.11063 8.61058 1.13471 8.20116-.50858 2.50315-1.84566 4.26985-3.07415 6.13307-4.24317 4.44186-10.16962 8.21041-12.54906 13.39776-1.35273 1.84846-1.33633 4.63248-1.65625 6.40149-1.54405 3.15371-5.45081 5.77187-1.20417 10.23813.67374.57695 1.79742.88394 2.87256 1.22005.43604 2.40878.39022 4.81755.16282 7.22633 2.85652 2.31993 5.73383 4.62055 10.20275 5.44325 2.74382.3074 5.49067.75728 8.17729-1.62387 3.18049.27826 5.74573-1.12514 8.04562-3.25386 3.06833-.26918 5.98639-1.00499 7.94931-4.70674 2.52633-.0808 2.65601-.84635 3.69726-1.35146.93229-8.68965 1.82726-17.46971-.23479-33.41487.41885-.86041.90873-1.54325 1.10644-2.95652-.4755-1.97859-.64423-3.89583-.8344-5.81736.0.0-1.32658-10.15105-4.03375-27.40667-3.28397-20.9322-.61749-47.35642-3.56145-61.93369-5.07086-25.10879-12.88754-33.92208-16.17665-44.92823-1.06963-9.28742-6.90951-43.83017-10.48131-76.21312 1.6744-16.82464 3.75524-26.77216-7.88563-41.90342-8.1-7.9-27.20662-9.05478-27.20662-9.05478-2.50151 5.59877-7.25637 8.55837-2.40116 26.5298 1.54934 6.04617 2.09532 12.1497 2.87927 19.20574.0898.7951.43578 1.30753.52964 2.11141 3.21726 27.55479 8.8063 60.02903 16.54996 81.03948z" class="skin arm" id="L"/><path d="m400.21324 339.59811c2.28724-7.90419.16428-14.75962 4.08426-29.01888-3.08119 14.24267-.8821 20.11482-4.08426 29.01888z" class="shadow" id="XMLID_511_-7"/><path d="m389.91598 480.42287c3.56887-5.29673 6.17469-4.86012 7.88496-5.19822-2.90441.89603-3.40117 1.2881-7.88496 5.19822z" class="shadow" id="XMLID_511_-7-7"/><path d="m397.62 475.34913c.91262 4.89077.42469 4.57738-.20879 6.45803.34559-1.79147.47383-1.55565.20879-6.45803z" class="shadow" id="XMLID_511_-7-7-1"/><path d="m389.94651 480.42726c3.74075.1564 3.34657.40551 5.66621 1.39553-2.29503-.79147-2.60429-.71189-5.66621-1.39553z" class="shadow" id="XMLID_511_-7-7-1-5"/><path d="m395.58875 481.81007c.81106-.0584 1.11219.0383 1.83027-.0263-.74815-.0766-.92069-.19236-1.83027.0263z" class="shadow" id="XMLID_511_-7-7-1-5-7"/><path d="m395.21385 471.43485c3.24075 3.78139 6.52211 7.82362 6.6855 10.12614-.74816-2.15084-3.99858-6.31751-6.6855-10.12614z" class="shadow" id="XMLID_511_-7-7-1-3"/><path d="m397.36582 481.79837c.48966 2.24565.48961 2.53137.18896 4.84494-.03-2.25028 99e-5-2.53891-.18896-4.84494z" class="shadow" id="XMLID_511_-7-7-1-3-8"/><path d="m395.59441 481.80942c-1.77529 1.48331-2.33881 2.63081-3.19189 4.56873.50033-2.4602 1.19423-3.20182 3.19189-4.56873z" class="shadow" id="XMLID_511_-7-7-1-3-8-6"/><path d="m406.58031 480.91449c2.78763 4.09389 1.63865 8.46444 1.80204 10.76696-.48254-2.22896.88488-6.95833-1.80204-10.76696z" class="shadow" id="XMLID_511_-7-7-1-3-83"/><path d="m414.94951 479.59973c2.85013 4.01576 1.21881 6.60828 1.3822 8.9108-.29504-2.24459 1.30472-5.10217-1.3822-8.9108z" class="shadow" id="XMLID_511_-7-7-1-3-83-4"/><path d="m422.63931 477.03646c2.78763 4.07826 1.5007 4.26397 1.66409 6.56649-.42004-2.22896 1.02283-2.75786-1.66409-6.56649z" class="shadow" id="XMLID_511_-7-7-1-3-83-43"/><g id="g33349" style="filter:url(#filter33355)" clip-path="url(#clipPath33357)"><path class="arm_highlight" id="path33212-8" d="m415.11805 428.98551c.84943-.3328-1.82332-26.1126-4.49958-47.59455-2.95062-23.68419-6.41522-48.04079-9.85343-33.24798-.56117.10407 4.04224 13.53103 6.25573 31.99444 3.19383 26.6407 7.03282 61.73021 8.09728 48.84809z"/><path d="m405.74888 438.1779c.84943-.3328-2.37485-29.27301-6.09057-50.59975-4.18806-24.03775-23.20901-49.27823-25.40978-20.16651 7.88361 15.6073 28.17547 87.35606 31.50035 70.76626z" id="path33301" class="arm_shade"/><path class="arm_shade" id="path33303" d="m403.45078 440.82955c.84943-.3328-2.37485-29.27301-6.09057-50.59975-4.18806-24.03775-23.20901-49.27823-25.40978-20.16651 7.88361 15.6073 28.17547 87.35606 31.50035 70.76626z"/><path class="arm_shade" id="path33303-3" d="m389.91786 499.21511c.84943-.3328 63.91641 7.8501 60.20069-13.47664-4.18806-24.03775-24.11329-50.40465-24.17234-32.89443-.14384 42.65235-41.82811 23.18611-36.02835 46.37107z"/><g id="g33339"><path d="m433.68198 361.59418c1.23225-29.45274 5.28115-56.6161-25.36535-59.01899-6.38464 33.61666 21.75912 73.87312 25.36535 59.01899z" id="path33212-8-0" class="arm_highlight"/><path class="arm_highlight" id="path33335" d="m435.27297 357.35154c1.23225-29.45274 5.28115-56.6161-25.36535-59.01899-6.38464 33.61666 21.75912 73.87312 25.36535 59.01899z"/></g><g id="g33221"><path class="arm_highlight" id="path32924-7" d="m405.40934 192.60316c-8.83905-22.19971-37.11032-23.75309-46.72801-16.34253 11.50412 14.62925 35.05083 23.90265 46.72801 16.34253z"/><path d="m406.02806 190.0399c-8.83905-22.19971-37.11032-23.75309-46.72801-16.34253 11.50412 14.62925 35.05083 23.90265 46.72801 16.34253z" id="path33208" class="arm_highlight"/><path class="arm_highlight" id="path33210" d="m407.44227 187.47664c-8.83905-22.19971-37.11032-23.75309-46.72801-16.34253 11.50412 14.62925 35.05083 23.90265 46.72801 16.34253z"/><path d="m384.44227 282.85165c.84943-.3328-1.19832-23.1126-3.87458-44.59455-2.95062-23.68419-3.66522-45.16579-5.10343-33.87298-.56117.10407-1.95776 16.40603.25573 34.86944 3.19383 26.6407 7.65782 56.48021 8.72228 43.59809z" id="path33212" class="arm_highlight"/><path class="arm_shade" id="path33214" d="m375.80471 303.02215c.84943-.3328-8.95981-31.01793-11.63607-52.49988-2.70897-21.29563-4.56349-6.50657-3.69865.73129 3.19383 26.6407 14.27026 64.65071 15.33472 51.76859z"/></g></g></svg>