<svg viewBox="0 0 560 1e3"><defs><clipPath clipPathUnits="userSpaceOnUse" id="clipPath13613"><path d="m131.74321 573.69194 315.75864-8.79774c13.0539 8.0333 2.38259-383.9505 7.79017-388.03777l-85.55784 2.24903c-27.21476-3.74253-39.04027 2.7738-39.27246-32.77588l-33.94646 3.49567c-.60044 11.74636 4.52731 21.84761 4.14186 32.15688-5.80032 4.30093-13.259 4.44692-29.51965 8.86728l-133.98159-.0572z" class="shadow torso" id="path13615"/></clipPath></defs><g id="g13792" clip-path="url(#clipPath13613)"><g id="g13790" data-transform="boob_outfit" style="display:inline"><path class="bra_primary bra_strap2" id="path13778" d="m350.01054 168.95467c-4.25979 7.66354-1.85506 76.71507-7.41107 79.4869 2.27434-.7607 7.44348-.7466 9.1675.88149-2.50441-2.80335-2.0516-75.3481.12788-80.23001z"/><path d="m353.9684 169.25198c-7.16956 10.03289-5.87215 75.67351-11.40963 79.21724 3.07827-.88626 7.25544-.7869 9.19236.84477-2.9295-3.02393 1.56352-71.96642 3.61012-79.98491z" id="path13780" class="bra_primary bra_strap1"/><path d="m344.85717 168.84074c-3.49006 32.35902 2.39585 76.38886-2.22607 79.60491 3.30941-.7794 7.02722-.66089 9.12396.85403-3.76948-3.73502-6.22279-54.38637-4.96659-80.09446z" id="path13782" class="bra_primary bra_strap3"/><path d="m287.67466 180.26839c-4.71063 5.73681-35.91086 44.10514-51.42397 56.51133l-4.14622 4.47637c5.50143-3.88712 26.21336-23.5302 31.25896-29.59398 10.81564-12.99818 24.996-27.99215 26.01876-30.28307z" id="path13784" class="bra_primary bra_strap2"/><path class="bra_primary bra_strap1" id="path13786" d="m286.84476 176.96635c-5.44137 6.32763-38.68239 49.7029-51.13236 60.38252l-4.04371 4.32962c4.77591-3.79982 21.14196-19.14198 30.40258-30.8013 8.25157-10.3889 25.33352-31.51494 27.06361-33.36502z"/><path class="bra_primary bra_strap3" id="path13788" d="m288.20455 181.66277c-7.09029 5.87744-38.25844 42.29391-51.10703 54.15302l-5.34127 5.73828c5.79728-4.00338 24.75644-22.66208 30.34875-28.81835 9.42039-10.37041 19.66313-23.3714 27.05785-30.17786z"/></g></g><g data-transform="boob_outfit" id="g13776"><path id="path13768" d="m260.51191 426.60218c-20.41506 10.82859-29.32139 14.27432-48.3432 13.94875-32.19029-.55096-61.63564-27.55432-73.07155-51.95489-11.40326-24.33091-9.24689-52.59043-1.13276-71.25026 6.64545-15.28235 26.50145-24.03564 40.14168-32.43502 4.31193 15.29185 13.0422 36.64645 24.25121 56.34929-2.5519 22.78694 4.69787 43.6453 15.60687 57.83295 10.95131 14.24267 27.00218 23.0654 42.54775 27.50918z" style="fill-opacity:.97647059;fill:#fffffb"/><path d="m178.10547 284.91016c-.31599.19458-.63461.39089-.95703.58593.81694 3.12755 2.27575 8.03196 4.66406 14.51368.48474 2.53075 1.06268 4.88034 1.78906 6.97851 1.6611 5.1884 3.90564 9.98772 6.65235 13.77734.27521.42244.57211.84808.88476 1.2754 1.44752 3.06196 3.0289 6.27712 4.75195 9.64257-3.34972-3.1423-6.15642-6.20241-8.11328-9.18359-2.93343-4.0618-5.31461-9.13995-7.0625-14.61328-2.05192-5.98018-3.06046-13.6013-3.66015-22.34375-.94874.57316-1.92031 1.15065-2.91602 1.73047.62266 8.29835 1.67737 15.60714 3.6875 21.51367 1.83473 5.75845 4.35237 11.11507 7.47266 15.44922 3.01064 4.55646 7.71605 9.20681 13.38476 13.99023.36871.31012.75675.61797 1.14063.92578.75687 1.39915 1.51852 2.80325 2.32226 4.2461.0609-.71072.13094-1.42401.21094-2.13867-.0457-.0803-.0892-.16184-.13476-.24219-1.32998-2.3436-2.62637-4.70951-3.88282-7.08594-1.45371-2.74953-2.85138-5.51151-4.19726-8.26758-64e-5-69e-5-.001-.001-.002-.002-.66093-1.35349-1.30632-2.70508-1.93945-4.05273-.0756-.16104-.14937-.32151-.22461-.48243-.57222-1.22369-1.13344-2.44349-1.68164-3.6582-.0694-.15386-.138-.30725-.20703-.46094-.55516-1.23573-1.09778-2.4672-1.62695-3.68945-.0507-.11727-.10184-.23444-.15235-.35156-.51491-1.19361-1.01481-2.37783-1.5039-3.55469-.0828-.19919-.16801-.39901-.25-.59766-.45559-1.10334-.89626-2.19621-1.32813-3.28125-.0863-.21698-.17635-.43616-.26172-.65234-.4993-1.26395-.98363-2.51617-1.44922-3.75-.4862-1.28849-.95421-2.56005-1.40234-3.81055-.44387-1.23863-.86823-2.45613-1.27344-3.65234-.004-.0115-.008-.0237-.0117-.0352-1.03878-3.06839-1.95381-5.99603-2.72265-8.72265zm-6.86133 4.03711c-.95595.5479-1.92022 1.10007-2.89648 1.66015.67717 7.49941 1.78716 14.25899 3.70507 19.97656 2.00831 6.32833 4.79923 12.2426 8.29297 17.1211 3.39373 5.07987 8.47608 10.13572 14.51563 15.20703 2.15865 1.80779 4.51734 3.57261 7.01758 5.31445.0317-1.1827.0917-2.37086.17578-3.5664-1.86755-1.34658-3.63241-2.70608-5.28125-4.08985-5.85414-4.92737-10.74899-9.78144-13.95117-14.59961-3.30702-4.60632-5.9613-10.24176-7.88282-16.28515-1.96504-5.81763-3.04614-12.85446-3.69531-20.73828zm-5.77734 3.32812c-.95354.5558-1.90688 1.12045-2.86133 1.69336.73258 6.75082 1.868 12.96173 3.67383 18.41211 2.18187 6.8982 5.24607 13.37012 9.11328 18.79297 3.77681 5.60328 9.2361 11.06658 15.64648 16.42578 3.30835 2.75984 6.99636 5.41014 10.97071 8.00781-.0776-1.2312-.12835-2.47147-.15039-3.7207-3.20798-2.1625-6.19272-4.36129-8.90821-6.63086-6.22497-5.21526-11.49676-10.47483-15.08203-15.81641-3.68047-5.15067-6.60804-11.34376-8.70312-17.95703-1.86518-5.59613-2.99377-12.08295-3.69922-19.20703zm-5.7168 3.44727c-.94647.59288-1.88286 1.19686-2.8125 1.8125.7774 5.97876 1.90713 11.57469 3.56836 16.64257 2.35545 7.46808 5.69293 14.49765 9.93359 20.46485 4.1599 6.12669 9.99613 11.99549 16.77735 17.64258 4.6504 3.86581 9.92596 7.50533 15.66601 11.04296-.20413-1.28609-.37707-2.58499-.52148-3.89648-4.82422-3.05971-9.27549-6.19526-13.23242-9.49023-6.59581-5.50314-12.24454-11.16822-16.21289-17.03321-4.05394-5.69502-7.25478-12.44576-9.52344-19.6289-1.73886-5.27739-2.88548-11.18301-3.64258-17.55664zm-5.60352 3.72656c-.9387.66665-1.85675 1.34946-2.75781 2.04687.79634 5.10882 1.87664 9.96278 3.34375 14.48047 2.52903 8.03795 6.13978 15.62322 10.75391 22.13477 4.54298 6.65009 10.75615 12.9244 17.9082 18.85937 6.20883 5.14495 13.37659 9.86844 21.18555 14.42383-.35437-1.34557-.67739-2.70808-.9668-4.08984-6.72868-4.03374-12.91077-8.19951-18.30664-12.67774-6.96664-5.79102-12.99231-11.8616-17.34375-18.25-4.42739-6.23937-7.90151-13.54581-10.34375-21.29883-1.57169-4.81791-2.68126-10.06777-3.47266-15.6289zm-5.45117 4.24414c-.91214.78374-1.81072 1.57786-2.65625 2.4043.76206 4.05172 1.7213 7.95431 2.91992 11.67578 2.7026 8.60782 6.58664 16.75074 11.57422 23.80664 4.92607 7.1735 11.51813 13.85331 19.04102 20.07617 8.05148 6.65263 17.49362 12.57596 27.74023 18.24414-.54078-1.40795-1.04051-2.84749-1.50976-4.30859-8.97987-5.10005-17.22874-10.41154-24.32031-16.2793-7.33748-6.07891-13.74009-12.555-18.47461-19.4668-4.80086-6.78372-8.54825-14.64781-11.16407-22.9707-1.34353-4.15476-2.36215-8.5737-3.15039-13.18164zm-5.18945 5.08398c-.86589.99422-1.68304 2.0163-2.42969 3.07618.61029 2.63213 1.30574 5.21142 2.10742 7.71875 2.87623 9.17788 7.03338 17.87809 12.39453 25.47851 5.30929 7.69708 12.27804 14.78214 20.17188 21.29297 8.81817 7.26692 19.07196 13.64423 30.10938 19.66797 1.84908 1.00337 3.72099 1.98488 5.60742 2.95508-.80461-1.50089-1.57769-3.03601-2.29883-4.62305-.62243-.33164-1.25318-.65674-1.87109-.99219-10.9184-5.96533-21.0152-12.23753-29.63672-19.35156-7.70843-6.36689-14.48774-13.24822-19.60547-20.68359-5.17444-7.32825-9.19493-15.74964-11.98438-24.64258-1.02085-3.18149-1.85682-6.49516-2.56445-9.89649zm-4.63867 6.70118c-.32019.61263-.62634 1.23247-.90235 1.86718-.34965.8041-.68478 1.63204-1.01172 2.47071.15478.51618.29447 1.04096.45704 1.55273 3.0498 9.74776 7.48022 19.00562 13.21484 27.15039 5.69235 8.22049 13.03805 15.71105 21.30273 22.50977 9.21147 7.57269 19.7812 14.16218 31.05665 20.30273 4.82234 2.61447 9.76072 5.1066 14.79492 7.50977-1.2257-1.60896-2.40252-3.30497-3.52539-5.07618h-.002c-3.32802-1.65077-6.60614-3.34512-9.83007-5.09374-11.15644-6.08216-21.56722-12.56653-30.58204-19.98633-8.07926-6.65478-15.23747-13.94161-20.73828-21.90039-5.54789-7.87261-9.84167-16.85164-12.80468-26.31446-.5215-1.63648-.98866-3.30687-1.42969-4.99218zm-3.58399 9.07812c-.51355 1.62964-.98089 3.31041-1.40625 5.03125 3.03548 7.96245 6.97142 15.53588 11.79688 22.40039 6.07544 8.7439 13.79612 16.63996 22.43164 23.72656 9.60476 7.87848 20.49043 14.67819 32.00391 20.93555 9.42771 5.10703 19.24555 9.74314 29.3125 14.12695-2.42865-1.96713-4.74889-4.09869-6.92969-6.39843-7.16088-3.27684-14.16113-6.71018-20.94531-10.38672-11.39447-6.19896-22.12119-12.89551-31.5293-20.6211-8.4501-6.94266-15.98329-14.63499-21.86719-23.11718-5.46817-7.77278-9.76865-16.50598-12.86719-25.69727zm-2.54101 10.29492c-.32959 1.79593-.60492 3.62932-.83203 5.49024 2.53266 5.28251 5.46756 10.35288 8.81054 15.11523 6.45852 9.26731 14.55615 17.56887 23.5625 24.94336 9.99806 8.18425 21.19771 15.19614 32.94922 21.57031 13.56647 7.34309 27.82873 13.71148 42.41016 19.69141 5.71342 2.34057 11.48025 4.59308 17.26758 6.8125 1.19442-.62152 2.31032-1.18854 3.58984-1.86719-.043-.0163-.086-.0325-.12891-.0488-5.41629-1.55717-10.88763-3.65564-16.18554-6.32031-1.13247-.45735-2.2674-.91045-3.39649-1.37305-14.52101-5.95754-28.68682-12.2813-42.11914-19.55468-11.63249-6.31577-22.6732-13.22255-32.47461-21.25391-8.82093-7.23055-16.73107-15.32838-22.99804-24.33398-4.11787-5.8622-7.60269-12.21445-10.45508-18.8711zm-1.35547 11.16992c-.11761 1.92261-.17447 3.86809-.17383 5.83008 1.43175 2.41452 2.94524 4.77853 4.55469 7.07422 6.8416 9.79072 15.31617 18.49778 24.69336 26.16016 10.39135 8.49002 21.90694 15.71409 33.89648 22.20508 13.83477 7.48251 28.29188 13.9421 42.99414 19.96679 4.07535 1.66913 8.1697 3.29898 12.27735 4.90235 1.19411-.57561 2.41546-1.17533 3.6914-1.82032-4.9632-1.91966-9.9098-3.86669-14.82226-5.8789-14.64185-6.00231-29.00251-12.41728-42.70313-19.83008-11.87052-6.43258-23.22716-13.54958-33.42187-21.88672v-.002c-9.19177-7.51844-17.47885-16.02177-24.12891-25.55078-2.5061-3.57246-4.79411-7.30718-6.85742-11.16993zm.0137 11.82422c.13218 2.05765.34038 4.12602.61523 6.19727 6.9988 9.63418 15.40173 18.20977 24.62305 25.73047 10.78478 8.7959 22.6161 16.23005 34.84375 22.83789 14.10315 7.62198 28.75303 14.17467 43.57617 20.24414 2.26748.92848 4.5405 1.84513 6.81641 2.75195 1.28681-.51435 2.60921-1.07847 3.96484-1.68554-3.21947-1.26908-6.43364-2.55235-9.63476-3.86329-14.76272-6.04708-29.31616-12.55515-43.28516-20.10742-12.10863-6.54943-23.78296-13.87847-34.37109-22.52148-9.56273-7.80642-18.2265-16.71694-25.25977-26.76953-.64856-.92564-1.2682-1.86967-1.88867-2.81446zm1.70313 12.60742c.46768 2.24835 1.02363 4.49199 1.67968 6.72071 5.52741 6.28467 11.59816 12.04614 18.03321 17.28515 11.17807 9.10168 23.32533 16.74801 35.79101 23.47266 14.37144 7.7614 29.21618 14.4053 44.16016 20.51953.0754.0309.15113.0609.22656.0918 1.54769-.39251 3.09235-.85895 4.65039-1.38086-1.24399-.50169-2.48878-.99943-3.73047-1.50781-14.88356-6.09185-29.63184-12.69113-43.86914-20.38282-12.34666-6.66624-24.33693-14.20745-35.31836-23.15625-7.90025-6.43746-15.22009-13.65985-21.62304-21.66211zm4.12109 13.80469c.57921 1.45786 1.20127 2.90454 1.87305 4.33789.53576 1.14314 1.12308 2.29374 1.73632 3.44532 2.65008 2.465 5.3715 4.83689 8.16016 7.10351 11.57137 9.40746 24.03457 17.26401 36.73828 24.10547 11.75972 6.34653 23.77961 11.93375 35.86133 17.08203 2.13382-.15299 4.16545-.37999 6.13086-.69726-13.69164-5.69655-27.30631-11.89059-40.55469-19.04297-12.58469-6.78306-24.8909-14.5345-36.26562-23.78907-4.77903-3.88753-9.35495-8.07732-13.67969-12.54492zm8.89062 16.41992c2.31595 3.34763 4.92212 6.6533 7.7793 9.84571 9.36915 6.81301 19.11848 12.75392 28.96289 18.04687 7.70883 4.15755 15.50435 7.98528 23.33594 11.57617 1.97843.2322 3.97124.37001 5.97461.4043.80557.0138 1.56891.01 2.33984.01-10.1589-4.46755-20.26883-9.28556-30.21289-14.65039-12.82273-6.89987-25.44487-14.86153-37.21289-24.42188-.32582-.26462-.64264-.54321-.9668-.81055zm21.36133 22.54297c7.60796 5.9179 16.14435 10.77839 25.20508 13.83399-3.76787-1.87175-7.52388-3.80898-11.26172-5.82422-4.67399-2.51102-9.33106-5.17778-13.94336-8.00977z" id="path28299" class="bra_primary"/><path class="shadow" id="path13771" d="m178.10547 284.91016c-13.1099 7.64808-33.58893 16.96569-40.23438 32.24804-8.11413 18.65983-10.61419 47.57534.78907 71.90625 11.43591 24.40057 41.44252 51.99787 73.63281 52.54883 19.02181.32557 29.36619-3.87063 49.40625-14.69922-.71148-.20338-1.51017-.42593-2.25195-.63476.35462.1058.71028.22102 1.06445.32226-20.41506 10.82859-29.32194 14.27479-48.34375 13.94922-32.19029-.55096-61.6344-27.55451-73.07031-51.95508-11.40326-24.33091-9.24695-52.59017-1.13282-71.25 6.64545-15.28235 26.5004-24.03616 40.14063-32.43554z"/><path d="m340.85641 248.97729c-27.27578 11.69942-78.53787 36.14975-138.9166 95.15056-3.24217 32.78067 13.97142 89.7759 100.10975 88.28235 34.5676-.59937 60.0836-11.0429 76.66651-25.32464 18.12004-15.60555 25.69541-35.98781 25.76155-57.92039.0915-30.34642-10.1248-49.32183-22.94861-66.33692-12.52767-14.6243-22.43116-27.14117-30.11472-33.80149-2.64452-1.86019-7.20521-1.32221-10.55788-.0495z" id="path13766" style="fill-opacity:.97647059;fill:#fffffb"/><path class="shadow" id="path13773" d="m361.47266 259.31445c5.77606 6.49774 12.42362 14.6032 20.05664 23.51367 12.82381 17.0151 23.04072 35.99148 22.94922 66.3379-.0661 21.93258-7.64168 42.31437-25.76172 57.91992-16.58291 14.28174-42.10037 24.72485-76.66797 25.32422-85.96933 1.49062-103.28052-55.27507-100.125-88.08594-.0835.0535-.1665.10265-.25.15625-4.99217 33.53067 14.36167 90.29824 100.5 88.80469 34.5676-.59937 60.46006-11.41748 77.04297-25.69922 18.12004-15.60555 25.69558-35.61234 25.76172-57.54492.0915-30.34642-9.87541-50.1978-22.69922-67.2129-7.69418-8.98187-14.76539-17.01253-20.80664-23.51367z"/><path id="path13766-5" d="m340.85641 248.97729c-27.27578 11.69942-78.53787 36.14975-138.9166 95.15056-.0458.46276-.0875.93034-.12494 1.40252 80.19311-72.85207 110.35272-81.29256 139.84757-95.2935 11.75138-5.57828 17.23122 11.59624 31.72601 22.98982-8.7745-10.41028-16.03706-19.05349-21.97416-24.19993-2.64452-1.86019-7.20521-1.32221-10.55788-.0495zm5.54398-1.14917c-.90279.0292-1.82399.1507-2.72461.33594-3.76266 12.7252-8.41879 25.3642-14.51758 37.5-5.96348 11.86922-13.42517 23.16092-22.58203 33.16992-9.19769 10.0071-19.95007 18.46074-31.66601 25.14844-13.27095 7.55172-27.48642 12.90856-41.87305 16.70508-9.94543 2.63144-19.99 4.57721-30.05469 6.04492.18163.98553.38274 1.97351.60352 2.9668 10.10488-1.48043 20.20732-3.44141 30.22851-6.08984 14.58296-3.84086 29.03853-9.29658 42.59571-17.00196 11.97546-6.83388 22.96936-15.4804 32.39257-25.72851 9.37111-10.25246 16.99258-21.77416 23.05665-33.85547 6.38822-12.72346 11.20976-25.93511 15.06445-39.1836-.17546-.001-.3461-.0174-.52344-.0117zm3.54102.46485c-3.9061 13.50711-8.82863 27.02616-15.38282 40.0918-6.16464 12.2934-13.94198 24.04118-23.52734 34.53711-9.64873 10.48912-20.88611 19.33049-33.12109 26.31054-13.84343 7.85905-28.54104 13.41364-43.32032 17.29883-10.06232 2.65631-20.18576 4.62961-30.29687 6.12109.25546.97719.51857 1.9559.81445 2.93555 10.08185-1.5007 20.19122-3.48024 30.25781-6.13477 14.9756-3.92951 29.91527-9.58298 44.04493-17.5957 12.49451-7.12623 23.97342-16.16047 33.84765-26.89062 9.79962-10.73938 17.73477-22.71521 24-35.22071 6.50613-12.98103 11.41748-26.35226 15.31446-39.67968-.38999-.35671-.77908-.71043-1.15821-1.03907-.44151-.31056-.93886-.54976-1.47265-.73437zm-9.74024.96875c-1.17678.50642-2.40968 1.04663-3.67187 1.60156-3.43891 10.95684-7.56696 21.74574-12.76953 32.07813-5.76232 11.44504-12.91033 22.2826-21.63868 31.80468-8.74666 9.52506-19.01405 17.59098-30.21093 23.98633-12.69848 7.24437-26.43181 12.40151-40.42578 16.10938-9.69066 2.57019-19.51812 4.47081-29.39844 5.9082.10959.99085.24863 1.99331.39648 2.99805 9.99001-1.45338 19.94413-3.37707 29.7793-5.98243 14.1903-3.75219 28.16372-9.01016 41.14844-16.4082 11.45641-6.54153 21.96532-14.80228 30.9375-24.56836 8.9426-9.76553 16.24843-20.82919 22.11132-32.48633 5.68906-11.3097 10.1198-23.10795 13.74219-35.04101zm14.83008 3.17383c-3.86053 12.95467-8.71344 25.97411-15.07227 38.67187-6.36581 12.71759-14.45879 24.92147-24.47265 35.9043-10.09977 10.97116-21.82213 20.1983-34.57617 27.4707-14.41588 8.1664-29.59565 13.91873-44.76758 17.89258-10.02222 2.63999-20.07016 4.62162-30.07617 6.12891.33381.96924.6707 1.93741 1.04687 2.90429 9.90215-1.51193 19.85741-3.49381 29.80469-6.11132 15.36825-4.01818 30.79007-9.8694 45.49219-18.18946 13.01356-7.41859 24.97745-16.8386 35.30273-28.05078 10.22812-11.2263 18.47892-23.65821 24.94531-36.58789 6.19162-12.37389 10.97511-25.0085 14.79297-37.56055-.8312-.87895-1.62983-1.68519-2.41992-2.47265zm-22.19336.0762c-1.23625.5567-2.45848 1.10557-3.76367 1.70898-3.00595 8.91751-6.49865 17.64199-10.71484 25.99805-5.56115 11.02087-12.39352 21.40234-20.69336 30.4375-8.29563 9.04302-18.07803 16.72317-28.75586 22.82617-12.12602 6.93704-25.37523 11.89643-38.97657 15.51563-9.28824 2.46968-18.74541 4.30565-28.28711 5.70507.0374 1.00077.0863 2.0087.16211 3.03126 9.7309-1.41946 19.39233-3.28956 28.90039-5.81446 13.79766-3.66352 27.28892-8.72178 39.70118-15.8125 10.93736-6.24917 20.96127-14.12221 29.48242-23.40625 8.51409-9.27862 15.50428-19.88814 21.16601-31.12109 4.71295-9.35045 8.54482-19.11448 11.7793-29.06836zm-7.57227 3.50586c-1.2721.60402-2.5619 1.22431-3.89062 1.87304-2.46181 6.73106-5.22586 13.29702-8.41602 19.60547-5.35991 10.59655-11.87881 20.52223-19.75 29.07032-7.84445 8.56082-17.14021 15.85352-27.29882 21.66406-11.55337 6.6296-24.32075 11.39136-37.5293 14.92187-8.74441 2.33129-17.68013 4.08514-26.72852 5.4375-.0392 1.0059-.0604 2.02606-.0605 3.06446 9.31516-1.3772 18.53012-3.17475 27.56445-5.58008 13.40488-3.57484 26.4143-8.43548 38.25391-15.21875 10.41814-5.95672 19.95736-13.44229 28.02734-22.24414 8.08544-8.79155 14.7602-18.94527 20.2207-29.75391 3.70897-7.34271 6.85789-14.99696 9.60742-22.83984zm34.54883 1.46289c-3.76814 12.12199-8.45128 24.33774-14.45703 36.34961-6.56696 13.14177-14.97364 25.79978-25.41601 37.26953-10.5508 11.45321-22.75817 21.06804-36.03125 28.63281-14.98835 8.47372-30.65027 14.42382-46.21485 18.48633h-.002c-9.82238 2.58201-19.63708 4.55511-29.38867 6.06836.41795.95823.85564 1.91209 1.31836 2.86328 9.56049-1.51106 19.19439-3.47084 28.84765-6.00586 15.76103-4.10687 31.66469-10.15767 46.93946-18.78515 13.53278-7.71104 25.9833-17.51853 36.75976-29.2129 10.65678-11.71337 19.22106-24.60108 25.88867-37.95507 5.80931-11.62786 10.3908-23.40964 14.10352-35.08985-.79972-.90622-1.58089-1.77685-2.34766-2.62109zm-42.40234 2.37109c-1.32013.66307-2.68357 1.36857-4.05273 2.07617-1.7713 4.39557-3.69252 8.68667-5.80079 12.84571-5.15874 10.17236-11.36201 19.64391-18.80468 27.70508-7.39343 8.07879-16.20419 14.98376-25.84375 20.50195-10.9809 6.32227-23.26613 10.88628-36.08204 14.32812-7.44101 1.98938-15.05515 3.54434-22.78515 4.79102-.70206.67911-1.39895 1.33886-2.10352 2.02734-.0445.4501-.0688.92185-.10547 1.38086 8.73896-1.32438 17.35252-3.03023 25.76954-5.27734 13.01223-3.48618 25.5395-8.14907 36.80664-14.625 9.89909-5.66437 18.95333-12.76222 26.57226-21.08203 7.65694-8.30463 14.01606-18.00422 19.27539-28.38867 2.65854-5.251 5.01578-10.69915 7.1543-16.28321zm47.08594 2.91211c-3.65092 11.22816-8.13495 22.56519-13.73828 33.78906-6.76822 13.56609-15.49031 26.67989-26.36133 38.63672-11.00197 11.93539-23.69598 21.93771-37.48828 29.79493-15.561 8.78115-31.70476 14.93083-47.66211 19.08203-9.43885 2.47629-18.84762 4.40151-28.17578 5.90625.50632.93771 1.03643 1.87078 1.58984 2.79687 9.05195-1.49336 18.1852-3.37617 27.36133-5.78125 16.15367-4.19552 32.53949-10.44408 48.38672-19.3789 14.05183-8.0034 26.98735-18.19859 38.21484-30.375 11.08528-12.20029 19.96519-25.54409 26.83398-39.32227 5.39168-10.80767 9.74299-21.69019 13.32618-32.46289-.74635-.87387-1.56619-1.85205-2.28711-2.68555zm-55.31836 1.33789c-1.42792.76005-2.86473 1.53082-4.33985 2.33985-.8629 1.89559-1.74603 3.77426-2.67968 5.61132-4.95759 9.74819-10.84716 18.7617-17.86133 26.33594-6.9424 7.59676-15.26816 14.11401-24.38867 19.33985-10.40845 6.01492-22.21152 10.38119-34.63477 13.73437-4.34951 1.16632-8.77502 2.16988-13.25391 3.06055-1.36816 1.27312-2.73861 2.55442-4.11718 3.86328 6.15044-1.09769 12.20956-2.4099 18.14843-4 12.61958-3.39752 24.66276-7.86461 35.35743-14.0332 9.38004-5.37201 17.94928-12.08216 25.11718-19.91993 7.22843-7.81771 13.27387-17.05926 18.33204-27.01953 1.53746-3.02914 2.96796-6.14187 4.32031-9.3125zm59.89062 4.03711c-3.51006 10.31945-7.73452 20.74899-12.91211 31.13477-6.96937 13.99027-16.00515 27.56211-27.30468 40.00586-11.453 12.41743-24.632 22.8055-38.94336 30.95508-16.13346 9.08849-32.76133 15.43592-49.11133 19.67578-8.86057 2.3202-17.66891 4.15318-26.39649 5.6289.60888.92239 1.24448 1.83645 1.9043 2.74219 8.3506-1.45033 16.78207-3.22874 25.26953-5.44922 16.54633-4.28418 33.41429-10.7305 49.83399-19.97265 14.57088-8.29576 27.99139-18.87867 39.66992-31.53711 11.51378-12.68722 20.7074-26.48515 27.77734-40.6875 4.9618-9.95967 9.06475-19.9396 12.4961-29.8086-.79137-.93812-1.51745-1.78357-2.28321-2.6875zm-68.77343.83789c-1.57696.89177-3.18374 1.81713-4.8086 2.76563-4.47314 8.38453-9.633 16.08914-15.64453 22.55859-6.49136 7.11472-14.33212 13.24426-22.93359 18.17774-9.83597 5.70759-21.1569 9.8761-33.1875 13.14062-.87452.23524-1.76334.44302-2.64454.66602-1.55661 1.38491-3.11976 2.79327-4.6914 4.22461 2.72845-.60895 5.44017-1.25085 8.11328-1.96875 12.22693-3.30886 23.78795-7.57624 33.91016-13.4375 8.86098-5.07966 16.94523-11.40208 23.66211-18.75782 6.79992-7.33078 12.52971-16.1182 17.38671-25.65429.28724-.56439.55763-1.14426.8379-1.71485zm73.32031 4.51563c-3.34834 9.4281-7.31043 18.96677-12.0586 28.5039-7.17053 14.41445-16.52195 28.44043-28.25 41.3711-11.90403 12.89946-25.56802 23.67721-40.39843 32.11914-16.70593 9.39582-33.81594 15.93905-50.5586 20.26758-8.05555 2.1056-16.05296 3.82449-23.97265 5.24023.72389.90049 1.48038 1.78964 2.25976 2.66797 7.42842-1.36969 14.92987-3.01239 22.48828-4.98633 16.93898-4.37285 34.29104-11.01495 51.28321-20.56445 15.08992-8.58811 28.99544-19.55873 41.125-32.69922 11.94229-13.17413 21.45153-27.42815 28.72265-42.05469 4.53532-9.11545 8.35297-18.21367 11.61328-27.20703-.73998-.87628-1.53429-1.80447-2.2539-2.6582zm-83.29492 1.32031c-1.88835 1.13975-3.8006 2.3097-5.7461 3.52734-2.82521 4.31625-5.87155 8.31839-9.1875 11.87305-6.04032 6.63268-13.3961 12.3745-21.47851 17.01563-6.58273 3.83746-13.97057 6.94307-21.86524 9.56445-1.92883 1.62309-3.87105 3.28159-5.82617 4.97656 10.60102-3.06908 20.52914-6.87821 29.19141-11.91601 8.34194-4.7873 15.94119-10.72396 22.20703-17.59766 4.73737-5.08866 8.94383-11.00053 12.70508-17.44336zm87.79882 3.99219c-3.16621 8.56054-6.84266 17.22315-11.16406 25.91406-7.37169 14.83863-17.03682 29.32069-29.19336 42.73828-12.35507 13.3815-26.50406 24.54502-41.85351 33.2793-17.2784 9.70317-34.87056 16.44414-52.00586 20.86133-7.00633 1.8282-13.95558 3.35847-20.8418 4.66992.85105.86845 1.73688 1.72222 2.64844 2.5625 6.27016-1.23619 12.59259-2.64622 18.96875-4.3086 17.33162-4.46151 35.16584-11.30332 52.73047-21.16015 15.60898-8.88046 29.99949-20.23882 42.58007-33.86133 12.3708-13.66105 22.19569-28.37116 29.66797-43.42188 4.10592-8.26257 7.64731-16.48909 10.71289-24.61718-.78036-.9146-1.49036-1.76037-2.25-2.65625zm-100.32031 3.86914c-3.3412 2.17997-6.7569 4.47826-10.24219 6.89453-4.89554 4.71531-10.5407 8.89526-16.65039 12.4082-.47031.27561-.96342.53281-1.44336.80078-3.4384 2.63871-6.92982 5.39378-10.4707 8.26758 4.76219-1.89949 9.26663-4.01946 13.41406-6.44336 7.82273-4.49485 14.9373-10.04403 20.75196-16.43554 1.60911-1.72122 3.15105-3.56227 4.64062-5.49219zm104.74414 1.53125c-2.95113 7.6703-6.31167 15.4302-10.1875 23.23437-7.57286 15.26281-17.55362 30.20097-30.13867 44.10547-12.8061 13.86354-27.44009 25.41477-43.30859 34.44141-17.85087 10.01049-35.92518 16.95118-53.45313 21.45703-5.66568 1.47593-11.28805 2.76364-16.86523 3.9043 1.00117.83082 2.02736 1.64988 3.0957 2.44531 4.81366-1.02275 9.66219-2.15678 14.54492-3.42774 17.72427-4.55017 36.04065-11.58973 54.17774-21.7539 16.12803-9.17282 31.00354-20.91693 44.03515-35.02149 12.79931-14.14796 22.93789-29.31415 30.61133-44.78906 3.61712-7.28744 6.78405-14.52603 9.59766-21.68555-.69337-.97811-1.39687-1.94768-2.10938-2.91015zm4.18164 5.9082c-2.65797 6.61952-5.62629 13.31097-8.96875 20.04883-7.77408 15.68712-18.07029 31.08108-31.08398 45.47266-13.25728 14.34573-28.374 26.28442-44.76172 35.60351-18.42351 10.31794-36.98162 17.45624-54.90234 22.05078-4.0054 1.04177-7.98849 1.99395-11.94532 2.86914 1.17457.78046 2.38702 1.53882 3.63672 2.27539 3.01374-.69489 6.04109-1.43183 9.08399-2.22265 18.11705-4.63887 36.91721-11.87606 55.62695-22.34766 16.64725-9.46527 32.00744-21.59684 45.49023-36.18359 13.22797-14.63505 23.68197-30.25703 31.55664-46.15625 3.05465-6.16104 5.79493-12.27699 8.2793-18.33203-.65748-1.03807-1.3287-2.06325-2.01172-3.07813zm3.95703 6.24805c-2.29009 5.46144-4.77373 10.97053-7.52539 16.52344-7.97526 16.1113-18.58708 31.95938-32.02929 46.83789-13.70831 14.82776-29.31002 27.15418-46.2168 36.76562-18.99597 10.62527-38.03819 17.96133-56.35156 22.64453-1.98461.5154-3.95989 1.00386-5.93164 1.47852 1.37762.71446 2.79529 1.40411 4.25781 2.06445.81688-.20564 1.63203-.40852 2.45117-.62109 18.5097-4.72754 37.79202-12.16247 57.07422-22.94141 17.1663-9.75762 33.01149-22.27693 46.94531-37.3457 13.65647-15.12197 24.42416-31.19809 32.5-47.52149 2.42404-4.89429 4.64617-9.75289 6.71289-14.57226-.61072-1.1215-1.24317-2.22272-1.88672-3.3125zm3.6836 6.77344c-1.81175 4.1287-3.73635 8.28652-5.8086 12.47265-8.17642 16.53549-19.10388 32.83966-32.97461 48.20508-14.15934 15.3098-30.24604 28.02198-47.67187 37.92578-19.08149 10.66055-38.1187 18.08157-56.39844 22.86914 1.61492.62597 3.27878 1.2178 4.99024 1.77735 17.18629-4.8477 35.00989-12.02758 52.9082-22.02149 17.68536-10.04998 34.01553-22.95699 48.40039-38.50781 14.08497-15.60888 25.1683-32.13913 33.44531-48.88672 1.69829-3.43239 3.27899-6.84028 4.80274-10.23242-.54463-1.22009-1.10818-2.42232-1.69336-3.60156zm3.29297 7.41406c-1.18857 2.58214-2.41425 5.17309-3.70313 7.77929-8.37759 16.95967-19.61874 33.71993-33.91797 49.57227-14.61037 15.79184-31.18207 28.89174-49.12695 39.08789-16.58993 9.25826-33.08727 16.13232-49.0625 20.98633 1.84406.49709 3.73853.95895 5.6875 1.37891 14.64887-4.79189 29.71204-11.28282 44.875-19.74024 18.2044-10.34232 35.01957-23.63511 49.85547-39.66797 14.51348-16.09579 25.9105-33.0841 34.38867-50.25586.85456-1.72879 1.66405-3.4462 2.47461-5.16406-.4639-1.35302-.95694-2.67528-1.4707-3.97656zm2.80468 8.1914c-.37355.7716-.72507 1.5367-1.10742 2.31055-8.57875 17.38386-20.13554 34.6002-34.86328 50.93945-15.06141 16.27388-32.1181 29.75954-50.58203 40.24805-13.6201 7.59292-27.14153 13.61376-40.34766 18.25977 2.07418.34121 4.19888.64032 6.38477.89453 11.6382-4.39886 23.50731-9.86766 35.46289-16.5293 18.72345-10.63468 36.02363-24.31519 51.31055-40.83008 14.71244-16.32796 26.28796-33.48971 34.92578-50.81054-.36325-1.52706-.75898-3.02046-1.1836-4.48243zm2.17969 9.18946c-8.54128 16.39808-19.71695 32.63404-33.69336 48.15039-15.51258 16.75606-33.05591 30.62919-52.03906 41.41015-10.19433 5.67748-20.31417 10.49132-30.2793 14.5293 2.2777.16197 4.61559.27357 7.00781.3418 8.17435-3.54484 16.4456-7.61142 24.77149-12.2461 19.24268-10.92713 37.02752-24.9951 52.76562-41.99218 13.16863-14.62436 23.87735-29.85753 32.26172-45.25391-.2295-1.68507-.49509-3.33028-.79492-4.93945zm1.37305 10.11328c-8.15724 14.31587-18.32271 28.47357-30.61133 42.125-15.96362 17.2381-33.99194 31.49896-53.49414 42.57226-6.38065 3.5502-12.72508 6.76538-19.01758 9.67774.38691-.004.76457-.001 1.1543-.008 2.14979-.0373 4.2659-.11263 6.3457-.22461 4.31817-2.12759 8.65869-4.39613 13.01758-6.82032 19.76172-11.21949 38.03157-25.67321 54.2207-43.15234 11.33609-12.59717 20.88497-25.60661 28.73438-38.76367-.0768-1.84592-.19492-3.64559-.34961-5.40625zm.45312 11.40039c-7.42231 11.84275-16.22486 23.55212-26.4707 34.94141-16.42878 17.73524-34.95663 32.39665-54.99414 43.77148-2.08127 1.15695-4.15641 2.26784-6.22852 3.35742 2.50618-.26543 4.95689-.58587 7.35157-.95898.0632-.0351.12618-.0684.18945-.10352 20.26451-11.50268 39.00482-26.33129 55.63086-44.27734 9.26375-10.30024 17.35824-20.85233 24.33008-31.52149.10762-1.72697.18105-3.46046.1914-5.20898zm-.75781 11.1543c-6.36082 9.29036-13.57559 18.48328-21.67578 27.49218-15.03304 16.22459-31.768 29.92159-49.77734 40.95704 2.36774-.51327 4.67373-1.08026 6.91992-1.69727 16.007-10.46979 30.95142-23.07602 44.52734-37.72656 7.04839-7.84077 13.42897-15.81686 19.16797-23.8711.33667-1.70242.60941-3.42207.83789-5.15429zm-2.04492 10.33593c-5.01839 6.76761-10.48638 13.47693-16.43164 20.0918-12.08899 13.04477-25.25227 24.47933-39.27344 34.24609 2.31869-.78457 4.56657-1.62357 6.74023-2.51562 12.02275-8.91088 23.37669-19.07299 33.92383-30.45313 4.76228-5.29954 9.21656-10.65809 13.38672-16.05664.61687-1.74912 1.17-3.52072 1.6543-5.3125zm-3.71875 10.50977c-3.22138 4.00589-6.59541 7.98937-10.14453 11.93945-9.01662 9.7281-18.62101 18.56793-28.72071 26.50781 2.48454-1.21598 4.86368-2.49994 7.13086-3.8496 7.90804-6.64606 15.49239-13.85747 22.70313-21.63672 2.0463-2.27778 4.03501-4.56651 5.97265-6.86328 1.12589-1.99349 2.1415-4.02762 3.0586-6.09766zm-6.94141 12.20508c-.43604.49194-.8636.98553-1.30469 1.47656-5.4011 5.82669-11.00895 11.33763-16.80468 16.5332 2.04563-1.47323 3.99005-2.99767 5.81836-4.57226 4.82951-4.15933 8.90216-8.66061 12.29101-13.4375z" class="bra_primary"/><path class="bra_accent" id="path24736-63-2-5" d="m353.84353 245.06604c.0564-6e-5.1126.003.16825.008 1.52687.0248 2.19802 1.05524 2.16078 1.67516-.04.67111-.39747 1.03333-.91069 1.25636-1.30971.56916-3.44386.36217-4.40589.28581 1.95827.81051 6.25694 2.90916 6.61966 3.26145.14686.14261.5945.96299.88977 1.44332-1.07113-.84594-2.2144-1.59755-3.56832-2.07358-1.57695-.59134-3.40058-.69797-4.74125-1.13778-1.00554-.4405-2.01457-.96388-2.50926-1.42605-.139.0769-.17082.10391-.45062.0332-1.37.74351-2.50813 1.36296-4.16971 2.00351-1.52286.58709-3.26168 1.46408-4.93299 2.25051l.27692-1.54236 4.99107-2.36512c-.65174-.009-1.17471.22532-2.00083-.11385-2.52699-1.27817-2.51551-2.00209-2.26149-2.67309.21194-.51723 1.09592-.65919 1.86492-.62238.0376-.18466 1.18172-.26758 2.1755-.12366 1.68892.24442 2.46532 1.53301 3.63089 2.39627.44387-.0762.63397-.0694.98666.1315 2.27011-.89034 4.43384-2.69225 6.18665-2.66721zm.1442.2683c-2.14147-.0392-2.87395 1.34205-4.24157 2.02099 1.46672-.25619 3.44544.27814 4.91687.49629.56844-.0446 1.17541-.17998 1.18944-1.10292-.11625-1.18529-.95024-1.35665-1.86474-1.41436zm-13.15571.123c-.95849.18345-1.18428 1.72871-.96555 1.68269 1.67626-.0591 3.39101.20715 5.02367.3455-1.39027-.54912-2.58961-1.50721-4.05812-2.02819z"/></g></svg>