<svg viewBox="0 0 560 1e3"><defs><filter style="color-interpolation-filters:sRGB" id="filter48837"><feGaussianBlur stdDeviation="6 8" result="blur" id="feGaussianBlur48835"/></filter><clipPath clipPathUnits="userSpaceOnUse" id="clipPath48839"><path style="fill-opacity:.5;fill:#0ff" id="path48841" d="m343.9707 203.11914c-27.95184 7.11221-66.30839 30.936-88.77929 11.24414-10.59588 20.41736-33.33664 36.13619-47.47059 47.97136-34.3193 28.73751-61.55714 35.09028-70.0046 55.33991-15.18694 36.40504-3.26799 71.70161 17.26425 93.79029 22.9846 24.72694 49.47842 29.11567 56.93164 29.375 11.82218.41134 36.12217-5.32568 39.76953-6.0625 10.20619-2.06179 34.18845 1.88497 64.85547-2.8125 48.50237-7.42943 87.92447-26.62709 88.21289-86 .11991-24.68319-12.8869-48.43154-21.98633-62.88672-21.88716-34.7695-31.19607-51.20508-38.79297-79.95898zm-82.375 43.19141c-2.36768 7.85475-8.85161 9.86614-11.20703 11.125 5.17549-8.55105 7.76112-9.46675 11.20703-11.125zm-19.87109 19.48828c-.47639 7.85567-11.15306 14.42912-14.34375 15.79687 1.78355-4.64482 3.2844-8.37371 5.41992-11.27343 2.05609-2.79188 5.6643-3.49404 8.92383-4.52344zm-20.55273 23.44336c-2.43639 17.41496-11.68374 11.96547-14.93165 22.63281.6766-5.70031.47248-11.54194 2.7168-15 1.62217-2.49948 3.61959-4.32818 12.21485-7.63281zm-18.48829 34.29297c5.41119 6.74865 4.10413 27.09377 1.00391 31.23828-3.87517-7.60458-5.73601-12.86962-5.51172-17.32813.21595-4.29267.89478-7.05338 4.50781-13.91015zm4.5918 46.07422c3.73218.91266 7.72559 5.94667 8.86523 6.93359.99084 2.52999 2.64456 11.18483 1.70704 15.22461-4.95407-3.28737-10.2586-5.75226-11.42188-9.81055-1.20226-4.19421.42687-9.27867.84961-12.34765zm14.92578 34.02343c4.48741.55812 9.0171 9.90487 11.08594 15.25196-4.67516-1.58178-6.96301-2.14134-8.15039-4.64844-1.6929-3.57449-1.9758-5.91099-2.93555-10.60352z"/></clipPath></defs><g id="g80702" data-transform="boob_outfit" style="stroke-width:1.06677"><path id="path74316" class="skin boob" d="m283.25034 225.28919c-5.72612-12.40082-17.98467 12.02087-31.86648 21.64101-81.02754 54.84055-71.95054 128.53802-11.94754 189.24199 50.90825-8.22126-32.3816-74.04441-26.02797-112.93291 16.80466-38.6518 70.29514-96.76421 69.84199-97.95009z"/><path d="m343.9707 203.11914c-27.95184 7.11221-66.30839 30.936-88.77929 11.24414-10.59588 20.41736-33.33664 36.13619-47.47059 47.97136-34.3193 28.73751-61.55714 35.09028-70.0046 55.33991-15.18694 36.40504-3.26799 71.70161 17.26425 93.79029 22.9846 24.72694 49.47842 29.11567 56.93164 29.375 11.82218.41134 36.12217-5.32568 39.76953-6.0625 10.20619-2.06179 34.18845 1.88497 64.85547-2.8125 48.50237-7.42943 87.92447-26.62709 88.21289-86 .11991-24.68319-12.8869-48.43154-21.98633-62.88672-21.88716-34.7695-31.19607-51.20508-38.79297-79.95898zm-82.375 43.19141c-2.36768 7.85475-8.85161 9.86614-11.20703 11.125 5.17549-8.55105 7.76112-9.46675 11.20703-11.125zm-19.87109 19.48828c-.47639 7.85567-11.15306 14.42912-14.34375 15.79687 1.78355-4.64482 3.2844-8.37371 5.41992-11.27343 2.05609-2.79188 5.6643-3.49404 8.92383-4.52344zm-20.55273 23.44336c-2.43639 17.41496-11.68374 11.96547-14.93165 22.63281.6766-5.70031.47248-11.54194 2.7168-15 1.62217-2.49948 3.61959-4.32818 12.21485-7.63281zm-18.48829 34.29297c5.41119 6.74865 4.10413 27.09377 1.00391 31.23828-3.87517-7.60458-5.73601-12.86962-5.51172-17.32813.21595-4.29267.89478-7.05338 4.50781-13.91015zm4.5918 46.07422c3.73218.91266 7.72559 5.94667 8.86523 6.93359.99084 2.52999 2.64456 11.18483 1.70704 15.22461-4.95407-3.28737-10.2586-5.75226-11.42188-9.81055-1.20226-4.19421.42687-9.27867.84961-12.34765zm14.92578 34.02343c4.48741.55812 9.0171 9.90487 11.08594 15.25196-4.67516-1.58178-6.96301-2.14134-8.15039-4.64844-1.6929-3.57449-1.9758-5.91099-2.93555-10.60352z" id="path75411" class="top_primary"/><g transform="matrix(0.87485086,0,0,1,41.279173,23.339467)" id="g75912" style="stroke-width:1.14052"><g id="g78266-6-8-1-4-27-55-4-2" style="display:inline;stroke-width:2.11233;stroke:none" transform="matrix(0.77125929,0.03473378,-0.13082807,0.32626278,92.395815,133.78073)"><path id="path78258-5-3-5-7-4-27-7-6" d="m257.78463 231.41908 25.46538-1.91912c-1.75833-1.43306-8.91975-1.9852-14.375-1.125-5.21054.7236-7.94775 1.92284-11.09038 3.04412z" class="top_primary_strong_highlight"/><path d="m257.77115 231.41459 25.46476-1.92729c-1.52315 1.68089-8.52041 3.30234-14.04298 3.27122-5.26011.0672-8.14639-.70736-11.42178-1.34393z" id="path78260-3-6-3-9-66-21-7-3" class="top_primary_strong_shade"/><path id="path78262-1-0-7-4-1-1-8-1" d="m261.35088 231.14146 18.93637-1.43319c-1.13266 1.24996-6.33604 2.45572-10.44279 2.43258-3.91157.05-6.0579-.52602-8.49358-.99939z" class="top_primary_strong_shade"/><path d="m280.36534 229.70219-18.93637 1.43319c1.13266-1.24996 6.33604-2.45572 10.44279-2.43258 3.91157-.05 6.0579.52602 8.49358.99939z" id="path78264-7-6-7-6-34-83-1-9" class="top_primary_strong_highlight"/></g><g id="g78266-6-8-1-4-27-55-4-2-8" style="display:inline;stroke-width:1.81023;stroke:none" transform="matrix(0.38841516,0.59135992,-0.49176469,0.14934765,274.26166,30.84717)"><path id="path78258-5-3-5-7-4-27-7-6-5" d="m257.78463 231.41908 25.46538-1.91912c-1.75833-1.43306-8.91975-1.9852-14.375-1.125-5.21054.7236-7.94775 1.92284-11.09038 3.04412z" class="top_primary_strong_highlight"/><path d="m257.77115 231.41459 25.46476-1.92729c-1.52315 1.68089-8.52041 3.30234-14.04298 3.27122-5.26011.0672-8.14639-.70736-11.42178-1.34393z" id="path78260-3-6-3-9-66-21-7-3-3" class="top_primary_strong_shade"/><path id="path78262-1-0-7-4-1-1-8-1-4" d="m261.35088 231.14146 18.93637-1.43319c-1.13266 1.24996-6.33604 2.45572-10.44279 2.43258-3.91157.05-6.0579-.52602-8.49358-.99939z" class="top_primary_strong_shade"/><path d="m280.36534 229.70219-18.93637 1.43319c1.13266-1.24996 6.33604-2.45572 10.44279-2.43258 3.91157-.05 6.0579.52602 8.49358.99939z" id="path78264-7-6-7-6-34-83-1-9-2" class="top_primary_strong_highlight"/></g><g id="g78266-6-8-1-4-27-55-4-2-6" style="display:inline;stroke-width:1.94346;stroke:none" transform="matrix(0.67533112,0.04686091,-0.11455585,0.44017585,87.368435,124.66329)"><path id="path78258-5-3-5-7-4-27-7-6-0" d="m257.78463 231.41908 25.46538-1.91912c-1.75833-1.43306-8.91975-1.9852-14.375-1.125-5.21054.7236-7.94775 1.92284-11.09038 3.04412z" class="top_primary_strong_highlight"/><path d="m257.77115 231.41459 25.46476-1.92729c-1.52315 1.68089-8.52041 3.30234-14.04298 3.27122-5.26011.0672-8.14639-.70736-11.42178-1.34393z" id="path78260-3-6-3-9-66-21-7-3-2" class="top_primary_strong_shade"/><path id="path78262-1-0-7-4-1-1-8-1-9" d="m261.35088 231.14146 18.93637-1.43319c-1.13266 1.24996-6.33604 2.45572-10.44279 2.43258-3.91157.05-6.0579-.52602-8.49358-.99939z" class="top_primary_strong_shade"/><path d="m280.36534 229.70219-18.93637 1.43319c1.13266-1.24996 6.33604-2.45572 10.44279-2.43258 3.91157-.05 6.0579.52602 8.49358.99939z" id="path78264-7-6-7-6-34-83-1-9-4" class="top_primary_strong_highlight"/></g><g id="g78266-6-8-1-4-27-55-4-2-86" style="display:inline;stroke-width:2.00815;stroke:none" transform="matrix(0.52047713,0.62053638,-0.37564344,0.09673304,187.30659,57.32962)"><path id="path78258-5-3-5-7-4-27-7-6-6" d="m257.78463 231.41908 25.46538-1.91912c-1.75833-1.43306-8.91975-1.9852-14.375-1.125-5.21054.7236-7.94775 1.92284-11.09038 3.04412z" class="top_primary_strong_highlight"/><path d="m257.77115 231.41459 25.46476-1.92729c-1.52315 1.68089-8.52041 3.30234-14.04298 3.27122-5.26011.0672-8.14639-.70736-11.42178-1.34393z" id="path78260-3-6-3-9-66-21-7-3-1" class="top_primary_strong_shade"/><path id="path78262-1-0-7-4-1-1-8-1-99" d="m261.35088 231.14146 18.93637-1.43319c-1.13266 1.24996-6.33604 2.45572-10.44279 2.43258-3.91157.05-6.0579-.52602-8.49358-.99939z" class="top_primary_strong_shade"/><path d="m280.36534 229.70219-18.93637 1.43319c1.13266-1.24996 6.33604-2.45572 10.44279-2.43258 3.91157-.05 6.0579.52602 8.49358.99939z" id="path78264-7-6-7-6-34-83-1-9-5" class="top_primary_strong_highlight"/></g><g id="g78266-6-8-1-4-27-55-4-2-1" style="display:inline;stroke-width:.820841;stroke:none" transform="matrix(1.8886248,0.20729835,-0.39043491,0.85540613,-187.52843,11.293198)"><path id="path78258-5-3-5-7-4-27-7-6-67" d="m257.78463 231.41908 25.46538-1.91912c-1.75833-1.43306-8.91975-1.9852-14.375-1.125-5.21054.7236-7.94775 1.92284-11.09038 3.04412z" class="top_primary_strong_highlight"/><path d="m257.77115 231.41459 25.46476-1.92729c-1.52315 1.68089-8.52041 3.30234-14.04298 3.27122-5.26011.0672-8.14639-.70736-11.42178-1.34393z" id="path78260-3-6-3-9-66-21-7-3-27" class="top_primary_strong_shade"/><path id="path78262-1-0-7-4-1-1-8-1-3" d="m261.35088 231.14146 18.93637-1.43319c-1.13266 1.24996-6.33604 2.45572-10.44279 2.43258-3.91157.05-6.0579-.52602-8.49358-.99939z" class="top_primary_strong_shade"/><path d="m280.36534 229.70219-18.93637 1.43319c1.13266-1.24996 6.33604-2.45572 10.44279-2.43258 3.91157-.05 6.0579.52602 8.49358.99939z" id="path78264-7-6-7-6-34-83-1-9-9" class="top_primary_strong_highlight"/></g><g id="g78266-6-8-1-4-27-55-4-2-60" style="display:inline;stroke-width:.644635;stroke:none" transform="matrix(3.0024978,-0.61315169,-0.24311394,0.96577295,-532.48419,229.07635)"><path id="path78258-5-3-5-7-4-27-7-6-8" d="m257.78463 231.41908 25.46538-1.91912c-1.75833-1.43306-8.91975-1.9852-14.375-1.125-5.21054.7236-7.94775 1.92284-11.09038 3.04412z" class="top_primary_strong_highlight"/><path d="m257.77115 231.41459 25.46476-1.92729c-1.52315 1.68089-8.52041 3.30234-14.04298 3.27122-5.26011.0672-8.14639-.70736-11.42178-1.34393z" id="path78260-3-6-3-9-66-21-7-3-7" class="top_primary_strong_shade"/><path id="path78262-1-0-7-4-1-1-8-1-2" d="m261.35088 231.14146 18.93637-1.43319c-1.13266 1.24996-6.33604 2.45572-10.44279 2.43258-3.91157.05-6.0579-.52602-8.49358-.99939z" class="top_primary_strong_shade"/><path d="m280.36534 229.70219-18.93637 1.43319c1.13266-1.24996 6.33604-2.45572 10.44279-2.43258 3.91157-.05 6.0579.52602 8.49358.99939z" id="path78264-7-6-7-6-34-83-1-9-42" class="top_primary_strong_highlight"/></g><g id="g78266-6-8-1-4-27-55-4-2-87" style="display:inline;stroke-width:1.07243;stroke:none" transform="matrix(2.1505702,0.26449243,-0.42456621,0.40992755,-269.53384,133.16051)"><path id="path78258-5-3-5-7-4-27-7-6-69" d="m257.78463 231.41908 25.46538-1.91912c-1.75833-1.43306-8.91975-1.9852-14.375-1.125-5.21054.7236-7.94775 1.92284-11.09038 3.04412z" class="top_primary_strong_highlight"/><path d="m257.77115 231.41459 25.46476-1.92729c-1.52315 1.68089-8.52041 3.30234-14.04298 3.27122-5.26011.0672-8.14639-.70736-11.42178-1.34393z" id="path78260-3-6-3-9-66-21-7-3-28" class="top_primary_strong_shade"/><path id="path78262-1-0-7-4-1-1-8-1-6" d="m261.35088 231.14146 18.93637-1.43319c-1.13266 1.24996-6.33604 2.45572-10.44279 2.43258-3.91157.05-6.0579-.52602-8.49358-.99939z" class="top_primary_strong_shade"/><path d="m280.36534 229.70219-18.93637 1.43319c1.13266-1.24996 6.33604-2.45572 10.44279-2.43258 3.91157-.05 6.0579.52602 8.49358.99939z" id="path78264-7-6-7-6-34-83-1-9-1" class="top_primary_strong_highlight"/></g><g id="g78266-6-8-1-4-27-55-4-2-63" style="display:inline;stroke-width:1.02466;stroke:none" transform="matrix(1.9673709,-0.59055487,-0.12251064,0.59015357,-290.27801,352.25126)"><path id="path78258-5-3-5-7-4-27-7-6-2" d="m257.78463 231.41908 25.46538-1.91912c-1.75833-1.43306-8.91975-1.9852-14.375-1.125-5.21054.7236-7.94775 1.92284-11.09038 3.04412z" class="top_primary_strong_highlight"/><path d="m257.77115 231.41459 25.46476-1.92729c-1.52315 1.68089-8.52041 3.30234-14.04298 3.27122-5.26011.0672-8.14639-.70736-11.42178-1.34393z" id="path78260-3-6-3-9-66-21-7-3-74" class="top_primary_strong_shade"/><path id="path78262-1-0-7-4-1-1-8-1-24" d="m261.35088 231.14146 18.93637-1.43319c-1.13266 1.24996-6.33604 2.45572-10.44279 2.43258-3.91157.05-6.0579-.52602-8.49358-.99939z" class="top_primary_strong_shade"/><path d="m280.36534 229.70219-18.93637 1.43319c1.13266-1.24996 6.33604-2.45572 10.44279-2.43258 3.91157-.05 6.0579.52602 8.49358.99939z" id="path78264-7-6-7-6-34-83-1-9-12" class="top_primary_strong_highlight"/></g><g id="g78266-6-8-1-4-27-55-4-2-2" style="display:inline;stroke-width:1.48392;stroke:none" transform="matrix(0.71090647,-0.40885948,0.31285474,0.55025019,-50.818296,350.97901)"><path id="path78258-5-3-5-7-4-27-7-6-1" d="m257.78463 231.41908 25.46538-1.91912c-1.75833-1.43306-8.91975-1.9852-14.375-1.125-5.21054.7236-7.94775 1.92284-11.09038 3.04412z" class="top_primary_strong_highlight"/><path d="m257.77115 231.41459 25.46476-1.92729c-1.52315 1.68089-8.52041 3.30234-14.04298 3.27122-5.26011.0672-8.14639-.70736-11.42178-1.34393z" id="path78260-3-6-3-9-66-21-7-3-9" class="top_primary_strong_shade"/><path id="path78262-1-0-7-4-1-1-8-1-7" d="m261.35088 231.14146 18.93637-1.43319c-1.13266 1.24996-6.33604 2.45572-10.44279 2.43258-3.91157.05-6.0579-.52602-8.49358-.99939z" class="top_primary_strong_shade"/><path d="m280.36534 229.70219-18.93637 1.43319c1.13266-1.24996 6.33604-2.45572 10.44279-2.43258 3.91157-.05 6.0579.52602 8.49358.99939z" id="path78264-7-6-7-6-34-83-1-9-8" class="top_primary_strong_highlight"/></g><g id="g78266-6-8-1-4-27-55-4-2-21" style="display:inline;stroke-width:1.79085;stroke:none" transform="matrix(0.60093785,0.06201983,-0.10193658,0.58256718,74.234734,222.87235)"><path id="path78258-5-3-5-7-4-27-7-6-15" d="m257.78463 231.41908 25.46538-1.91912c-1.75833-1.43306-8.91975-1.9852-14.375-1.125-5.21054.7236-7.94775 1.92284-11.09038 3.04412z" class="top_primary_strong_highlight"/><path d="m257.77115 231.41459 25.46476-1.92729c-1.52315 1.68089-8.52041 3.30234-14.04298 3.27122-5.26011.0672-8.14639-.70736-11.42178-1.34393z" id="path78260-3-6-3-9-66-21-7-3-35" class="top_primary_strong_shade"/><path id="path78262-1-0-7-4-1-1-8-1-1" d="m261.35088 231.14146 18.93637-1.43319c-1.13266 1.24996-6.33604 2.45572-10.44279 2.43258-3.91157.05-6.0579-.52602-8.49358-.99939z" class="top_primary_strong_shade"/><path d="m280.36534 229.70219-18.93637 1.43319c1.13266-1.24996 6.33604-2.45572 10.44279-2.43258 3.91157-.05 6.0579.52602 8.49358.99939z" id="path78264-7-6-7-6-34-83-1-9-6" class="top_primary_strong_highlight"/></g><g id="g78266-6-8-1-4-27-55-4-2-3" style="display:inline;stroke-width:1.48754;stroke:none" transform="matrix(0.75622367,-0.62774095,0.28500835,0.44650255,-35.931974,458.1151)"><path id="path78258-5-3-5-7-4-27-7-6-3" d="m257.78463 231.41908 25.46538-1.91912c-1.75833-1.43306-8.91975-1.9852-14.375-1.125-5.21054.7236-7.94775 1.92284-11.09038 3.04412z" class="top_primary_strong_highlight"/><path d="m257.77115 231.41459 25.46476-1.92729c-1.52315 1.68089-8.52041 3.30234-14.04298 3.27122-5.26011.0672-8.14639-.70736-11.42178-1.34393z" id="path78260-3-6-3-9-66-21-7-3-6" class="top_primary_strong_shade"/><path id="path78262-1-0-7-4-1-1-8-1-34" d="m261.35088 231.14146 18.93637-1.43319c-1.13266 1.24996-6.33604 2.45572-10.44279 2.43258-3.91157.05-6.0579-.52602-8.49358-.99939z" class="top_primary_strong_shade"/><path d="m280.36534 229.70219-18.93637 1.43319c1.13266-1.24996 6.33604-2.45572 10.44279-2.43258 3.91157-.05 6.0579.52602 8.49358.99939z" id="path78264-7-6-7-6-34-83-1-9-92" class="top_primary_strong_highlight"/></g><g id="g78266-6-8-1-4-27-55-4-2-866" style="display:inline;stroke-width:1.29512;stroke:none" transform="matrix(-1.3433315,-0.25377817,0.08429107,0.52321885,550.27031,344.83311)"><path id="path78258-5-3-5-7-4-27-7-6-4" d="m257.78463 231.41908 25.46538-1.91912c-1.75833-1.43306-8.91975-1.9852-14.375-1.125-5.21054.7236-7.94775 1.92284-11.09038 3.04412z" class="top_primary_strong_highlight"/><path d="m257.77115 231.41459 25.46476-1.92729c-1.52315 1.68089-8.52041 3.30234-14.04298 3.27122-5.26011.0672-8.14639-.70736-11.42178-1.34393z" id="path78260-3-6-3-9-66-21-7-3-17" class="top_primary_strong_shade"/><path id="path78262-1-0-7-4-1-1-8-1-23" d="m261.35088 231.14146 18.93637-1.43319c-1.13266 1.24996-6.33604 2.45572-10.44279 2.43258-3.91157.05-6.0579-.52602-8.49358-.99939z" class="top_primary_strong_shade"/><path d="m280.36534 229.70219-18.93637 1.43319c1.13266-1.24996 6.33604-2.45572 10.44279-2.43258 3.91157-.05 6.0579.52602 8.49358.99939z" id="path78264-7-6-7-6-34-83-1-9-420" class="top_primary_strong_highlight"/></g><g id="g78266-6-8-1-4-27-55-4-2-866-9" style="display:inline;stroke-width:1.58069;stroke:none" transform="matrix(-0.92335669,-0.01980863,0.10631998,0.49773276,416.51512,263.77933)"><path id="path78258-5-3-5-7-4-27-7-6-4-0" d="m257.78463 231.41908 25.46538-1.91912c-1.75833-1.43306-8.91975-1.9852-14.375-1.125-5.21054.7236-7.94775 1.92284-11.09038 3.04412z" class="top_primary_strong_highlight"/><path d="m257.77115 231.41459 25.46476-1.92729c-1.52315 1.68089-8.52041 3.30234-14.04298 3.27122-5.26011.0672-8.14639-.70736-11.42178-1.34393z" id="path78260-3-6-3-9-66-21-7-3-17-7" class="top_primary_strong_shade"/><path id="path78262-1-0-7-4-1-1-8-1-23-1" d="m261.35088 231.14146 18.93637-1.43319c-1.13266 1.24996-6.33604 2.45572-10.44279 2.43258-3.91157.05-6.0579-.52602-8.49358-.99939z" class="top_primary_strong_shade"/><path d="m280.36534 229.70219-18.93637 1.43319c1.13266-1.24996 6.33604-2.45572 10.44279-2.43258 3.91157-.05 6.0579.52602 8.49358.99939z" id="path78264-7-6-7-6-34-83-1-9-420-2" class="top_primary_strong_highlight"/></g><g id="g78266-6-8-1-4-27-55-4-2-866-8" style="display:inline;stroke-width:.902424;stroke:none" transform="matrix(-1.5706254,-0.11346923,0.11378968,0.9018811,564.76558,158.12687)"><path id="path78258-5-3-5-7-4-27-7-6-4-5" d="m257.78463 231.41908 25.46538-1.91912c-1.75833-1.43306-8.91975-1.9852-14.375-1.125-5.21054.7236-7.94775 1.92284-11.09038 3.04412z" class="top_primary_strong_highlight"/><path d="m257.77115 231.41459 25.46476-1.92729c-1.52315 1.68089-8.52041 3.30234-14.04298 3.27122-5.26011.0672-8.14639-.70736-11.42178-1.34393z" id="path78260-3-6-3-9-66-21-7-3-17-2" class="top_primary_strong_shade"/><path id="path78262-1-0-7-4-1-1-8-1-23-2" d="m261.35088 231.14146 18.93637-1.43319c-1.13266 1.24996-6.33604 2.45572-10.44279 2.43258-3.91157.05-6.0579-.52602-8.49358-.99939z" class="top_primary_strong_shade"/><path d="m280.36534 229.70219-18.93637 1.43319c1.13266-1.24996 6.33604-2.45572 10.44279-2.43258 3.91157-.05 6.0579.52602 8.49358.99939z" id="path78264-7-6-7-6-34-83-1-9-420-8" class="top_primary_strong_highlight"/></g><g id="g78266-6-8-1-4-27-55-4-2-866-0" style="display:inline;stroke-width:1.3367;stroke:none" transform="matrix(-0.87724007,0.36622837,0.41748785,0.55495872,315.33633,73.195871)"><path id="path78258-5-3-5-7-4-27-7-6-4-05" d="m257.78463 231.41908 25.46538-1.91912c-1.75833-1.43306-8.91975-1.9852-14.375-1.125-5.21054.7236-7.94775 1.92284-11.09038 3.04412z" class="top_primary_strong_highlight"/><path d="m257.77115 231.41459 25.46476-1.92729c-1.52315 1.68089-8.52041 3.30234-14.04298 3.27122-5.26011.0672-8.14639-.70736-11.42178-1.34393z" id="path78260-3-6-3-9-66-21-7-3-17-26" class="top_primary_strong_shade"/><path id="path78262-1-0-7-4-1-1-8-1-23-4" d="m261.35088 231.14146 18.93637-1.43319c-1.13266 1.24996-6.33604 2.45572-10.44279 2.43258-3.91157.05-6.0579-.52602-8.49358-.99939z" class="top_primary_strong_shade"/><path d="m280.36534 229.70219-18.93637 1.43319c1.13266-1.24996 6.33604-2.45572 10.44279-2.43258 3.91157-.05 6.0579.52602 8.49358.99939z" id="path78264-7-6-7-6-34-83-1-9-420-7" class="top_primary_strong_highlight"/></g><g id="g78266-6-8-1-4-27-55-4-2-866-6" style="display:inline;stroke-width:1.08453;stroke:none" transform="matrix(-1.3607829,0.04726666,0.21193918,0.70679457,486.7562,119.54037)"><path id="path78258-5-3-5-7-4-27-7-6-4-8" d="m257.78463 231.41908 25.46538-1.91912c-1.75833-1.43306-8.91975-1.9852-14.375-1.125-5.21054.7236-7.94775 1.92284-11.09038 3.04412z" class="top_primary_strong_highlight"/><path d="m257.77115 231.41459 25.46476-1.92729c-1.52315 1.68089-8.52041 3.30234-14.04298 3.27122-5.26011.0672-8.14639-.70736-11.42178-1.34393z" id="path78260-3-6-3-9-66-21-7-3-17-3" class="top_primary_strong_shade"/><path id="path78262-1-0-7-4-1-1-8-1-23-9" d="m261.35088 231.14146 18.93637-1.43319c-1.13266 1.24996-6.33604 2.45572-10.44279 2.43258-3.91157.05-6.0579-.52602-8.49358-.99939z" class="top_primary_strong_shade"/><path d="m280.36534 229.70219-18.93637 1.43319c1.13266-1.24996 6.33604-2.45572 10.44279-2.43258 3.91157-.05 6.0579.52602 8.49358.99939z" id="path78264-7-6-7-6-34-83-1-9-420-5" class="top_primary_strong_highlight"/></g><g id="g78266-6-8-1-4-27-55-4-2-866-7" style="display:inline;stroke-width:1.35028;stroke:none" transform="matrix(-0.87699214,-0.32558132,-0.20264104,0.63963427,457.69307,230.4066)"><path id="path78258-5-3-5-7-4-27-7-6-4-86" d="m257.78463 231.41908 25.46538-1.91912c-1.75833-1.43306-8.91975-1.9852-14.375-1.125-5.21054.7236-7.94775 1.92284-11.09038 3.04412z" class="top_primary_strong_highlight"/><path d="m257.77115 231.41459 25.46476-1.92729c-1.52315 1.68089-8.52041 3.30234-14.04298 3.27122-5.26011.0672-8.14639-.70736-11.42178-1.34393z" id="path78260-3-6-3-9-66-21-7-3-17-1" class="top_primary_strong_shade"/><path id="path78262-1-0-7-4-1-1-8-1-23-6" d="m261.35088 231.14146 18.93637-1.43319c-1.13266 1.24996-6.33604 2.45572-10.44279 2.43258-3.91157.05-6.0579-.52602-8.49358-.99939z" class="top_primary_strong_shade"/><path d="m280.36534 229.70219-18.93637 1.43319c1.13266-1.24996 6.33604-2.45572 10.44279-2.43258 3.91157-.05 6.0579.52602 8.49358.99939z" id="path78264-7-6-7-6-34-83-1-9-420-1" class="top_primary_strong_highlight"/></g><g id="g78266-6-8-1-4-27-55-4-2-866-3" style="display:inline;stroke-width:1.43303;stroke:none" transform="matrix(-1.0568205,0.11360452,0.2172164,0.50333822,429.68221,116.15402)"><path id="path78258-5-3-5-7-4-27-7-6-4-4" d="m257.78463 231.41908 25.46538-1.91912c-1.75833-1.43306-8.91975-1.9852-14.375-1.125-5.21054.7236-7.94775 1.92284-11.09038 3.04412z" class="top_primary_strong_highlight"/><path d="m257.77115 231.41459 25.46476-1.92729c-1.52315 1.68089-8.52041 3.30234-14.04298 3.27122-5.26011.0672-8.14639-.70736-11.42178-1.34393z" id="path78260-3-6-3-9-66-21-7-3-17-20" class="top_primary_strong_shade"/><path id="path78262-1-0-7-4-1-1-8-1-23-15" d="m261.35088 231.14146 18.93637-1.43319c-1.13266 1.24996-6.33604 2.45572-10.44279 2.43258-3.91157.05-6.0579-.52602-8.49358-.99939z" class="top_primary_strong_shade"/><path d="m280.36534 229.70219-18.93637 1.43319c1.13266-1.24996 6.33604-2.45572 10.44279-2.43258 3.91157-.05 6.0579.52602 8.49358.99939z" id="path78264-7-6-7-6-34-83-1-9-420-18" class="top_primary_strong_highlight"/></g><g id="g78266-6-8-1-4-27-55-4-2-866-1" style="display:inline;stroke-width:2.16439;stroke:none" transform="matrix(-0.56236192,0.0933782,0.14329603,0.41009543,344.62039,119.58881)"><path id="path78258-5-3-5-7-4-27-7-6-4-7" d="m257.78463 231.41908 25.46538-1.91912c-1.75833-1.43306-8.91975-1.9852-14.375-1.125-5.21054.7236-7.94775 1.92284-11.09038 3.04412z" class="top_primary_strong_highlight"/><path d="m257.77115 231.41459 25.46476-1.92729c-1.52315 1.68089-8.52041 3.30234-14.04298 3.27122-5.26011.0672-8.14639-.70736-11.42178-1.34393z" id="path78260-3-6-3-9-66-21-7-3-17-77" class="top_primary_strong_shade"/><path id="path78262-1-0-7-4-1-1-8-1-23-97" d="m261.35088 231.14146 18.93637-1.43319c-1.13266 1.24996-6.33604 2.45572-10.44279 2.43258-3.91157.05-6.0579-.52602-8.49358-.99939z" class="top_primary_strong_shade"/><path d="m280.36534 229.70219-18.93637 1.43319c1.13266-1.24996 6.33604-2.45572 10.44279-2.43258 3.91157-.05 6.0579.52602 8.49358.99939z" id="path78264-7-6-7-6-34-83-1-9-420-27" class="top_primary_strong_highlight"/></g><g id="g78266-6-8-1-4-27-55-4-2-866-08" style="display:inline;stroke-width:2.5248;stroke:none" transform="matrix(-0.48967169,-0.16846809,-0.08773314,0.33600763,380.30876,203.50803)"><path id="path78258-5-3-5-7-4-27-7-6-4-82" d="m257.78463 231.41908 25.46538-1.91912c-1.75833-1.43306-8.91975-1.9852-14.375-1.125-5.21054.7236-7.94775 1.92284-11.09038 3.04412z" class="top_primary_strong_highlight"/><path d="m257.77115 231.41459 25.46476-1.92729c-1.52315 1.68089-8.52041 3.30234-14.04298 3.27122-5.26011.0672-8.14639-.70736-11.42178-1.34393z" id="path78260-3-6-3-9-66-21-7-3-17-71" class="top_primary_strong_shade"/><path id="path78262-1-0-7-4-1-1-8-1-23-0" d="m261.35088 231.14146 18.93637-1.43319c-1.13266 1.24996-6.33604 2.45572-10.44279 2.43258-3.91157.05-6.0579-.52602-8.49358-.99939z" class="top_primary_strong_shade"/><path d="m280.36534 229.70219-18.93637 1.43319c1.13266-1.24996 6.33604-2.45572 10.44279-2.43258 3.91157-.05 6.0579.52602 8.49358.99939z" id="path78264-7-6-7-6-34-83-1-9-420-83" class="top_primary_strong_highlight"/></g><g id="g78266-6-8-1-4-27-55-4-2-866-13" style="display:inline;stroke-width:2.02049;stroke:none" transform="matrix(-0.58970027,0.10407703,0.15659076,0.44717238,375.51646,87.606248)"><path id="path78258-5-3-5-7-4-27-7-6-4-54" d="m257.78463 231.41908 25.46538-1.91912c-1.75833-1.43306-8.91975-1.9852-14.375-1.125-5.21054.7236-7.94775 1.92284-11.09038 3.04412z" class="top_primary_strong_highlight"/><path d="m257.77115 231.41459 25.46476-1.92729c-1.52315 1.68089-8.52041 3.30234-14.04298 3.27122-5.26011.0672-8.14639-.70736-11.42178-1.34393z" id="path78260-3-6-3-9-66-21-7-3-17-4" class="top_primary_strong_shade"/><path id="path78262-1-0-7-4-1-1-8-1-23-91" d="m261.35088 231.14146 18.93637-1.43319c-1.13266 1.24996-6.33604 2.45572-10.44279 2.43258-3.91157.05-6.0579-.52602-8.49358-.99939z" class="top_primary_strong_shade"/><path d="m280.36534 229.70219-18.93637 1.43319c1.13266-1.24996 6.33604-2.45572 10.44279-2.43258 3.91157-.05 6.0579.52602 8.49358.99939z" id="path78264-7-6-7-6-34-83-1-9-420-74" class="top_primary_strong_highlight"/></g><g id="g78266-6-8-1-4-27-55-4-2-866-93" style="display:inline;stroke-width:1.80534;stroke:none" transform="matrix(-0.6531159,-0.20937985,-0.13474888,0.49377983,460.50441,157.2605)"><path id="path78258-5-3-5-7-4-27-7-6-4-3" d="m257.78463 231.41908 25.46538-1.91912c-1.75833-1.43306-8.91975-1.9852-14.375-1.125-5.21054.7236-7.94775 1.92284-11.09038 3.04412z" class="top_primary_strong_highlight"/><path d="m257.77115 231.41459 25.46476-1.92729c-1.52315 1.68089-8.52041 3.30234-14.04298 3.27122-5.26011.0672-8.14639-.70736-11.42178-1.34393z" id="path78260-3-6-3-9-66-21-7-3-17-11" class="top_primary_strong_shade"/><path id="path78262-1-0-7-4-1-1-8-1-23-7" d="m261.35088 231.14146 18.93637-1.43319c-1.13266 1.24996-6.33604 2.45572-10.44279 2.43258-3.91157.05-6.0579-.52602-8.49358-.99939z" class="top_primary_strong_shade"/><path d="m280.36534 229.70219-18.93637 1.43319c1.13266-1.24996 6.33604-2.45572 10.44279-2.43258 3.91157-.05 6.0579.52602 8.49358.99939z" id="path78264-7-6-7-6-34-83-1-9-420-72" class="top_primary_strong_highlight"/></g></g><g id="g88136"><path class="top_primary_strong_highlight" id="path74298" d="m143.4252 325.26925c8.64731 43.55429 17.26803 70.28647 26.54064 85.9905 9.27256 15.70405 25.3947 23.40504 31.05994 26.44023l8.13118 1.58128c-5.60809-3.00456-26.29894-12.88442-37.3517-32.1466-9.07138-15.80906-22.15718-61.77173-27.89661-82.1909-1.98744-4.23442-1.18387-1.83175-.48345.32553z"/><path class="top_primary_strong_highlight" id="path74294" d="m297.82374 313.70474c4.82117 45.85823 6.04683 64.34821 11.20624 83.23173 5.1593 18.88354 10.04448 26.06188 15.38444 31.94492l2.49443-.55169c-5.28609-5.82368-10.07243-15.5866-15.21882-34.42293-5.14641-18.83635-8.39596-34.36047-13.21565-80.20386-.81614-4.79603-.71647-2.2616-.65064.002z"/></g><g id="g48828" style="filter:url(#filter48837)" clip-path="url(#clipPath48839)"><path class="top_primary_shade" id="path127583" d="m299.20417 321.68225c-28.20023 6.05275-77.90126 22.75724-107.71863 20.85075-28.79517-1.84114-72.28316-28.04952-79.63672-9.75521-16.94261 42.15008-8.84794 57.51667 11.82338 82.75216 23.3749 24.35832 41.34909 36.32384 48.80664 36.375 11.81311.61934 46.37217.17432 50.01953-.5625 10.20619-2.06179 38.43845-1.61503 69.10547-6.3125 48.50237-7.42943 99.38779-27.50481 107.19728-87.00215 7.669-58.42701-74.51821-41.72832-99.59695-36.34555z"/><path d="m287.20417 337.18225c-28.20023 6.05275-60.40126 22.25724-90.21863 20.35075-28.79517-1.84114-89.78316-27.54952-97.13672-9.25521-16.94261 42.15008-8.84794 57.51667 11.82338 82.75216 23.3749 24.35832 41.34909 36.32384 48.80664 36.375 11.81311.61934 46.37217.17432 50.01953-.5625 10.20619-2.06179 38.43845-1.61503 69.10547-6.3125 48.50237-7.42943 99.38779-27.50481 107.19728-87.00215 7.669-58.42701-74.51821-41.72832-99.59695-36.34555z" id="path48804" class="top_primary_shade"/><path class="top_primary_shade" id="path48806" d="m280.70417 352.68225c-28.20023 6.05275-48.90126 20.75724-78.71863 18.85075-28.79517-1.84114-101.28316-26.04952-108.63672-7.75521-16.94261 42.15008-8.84794 57.51667 11.82338 82.75216 23.3749 24.35832 41.34909 36.32384 48.80664 36.375 11.81311.61934 46.37217.17432 50.01953-.5625 10.20619-2.06179 38.43845-1.61503 69.10547-6.3125 48.50237-7.42943 99.38779-27.50481 107.19728-87.00215 7.669-58.42701-74.51821-41.72832-99.59695-36.34555z"/><path d="m287.20417 366.18225c-28.20023 6.05275-59.40126 20.75724-89.21863 18.85075-28.79517-1.84114-105.78316-26.54952-113.13672-8.25521-16.94261 42.15008-8.84794 57.51667 11.82338 82.75216 23.3749 24.35832 41.34909 36.32384 48.80664 36.375 11.81311.61934 46.37217.17432 50.01953-.5625 10.20619-2.06179 38.43845-1.61503 69.10547-6.3125 48.50237-7.42943 99.38779-27.50481 107.19728-87.00215 7.669-58.42701-59.51821-41.22832-84.59695-35.84555z" id="path48808" class="top_primary_shade"/><path class="top_primary_shade" id="path48810" d="m282.60798 388.80967c-28.20024 6.05275-25.10659 16.5146-60.58081 19.2043-28.77138 2.18149-134.42098-26.90307-141.77454-8.60876-16.94261 42.15008-8.84794 57.51667 11.82338 82.75216 23.3749 24.35832 41.34909 36.32384 48.80664 36.375 11.81311.61934 46.37216.17432 50.01952-.5625 10.20619-2.06179 38.43845-1.61503 69.10547-6.3125 48.50237-7.42943 99.3878-27.50481 107.19729-87.00215 7.669-58.42701-59.51821-41.22832-84.59695-35.84555z"/><path class="top_primary_highlight" d="m272.02173 234.31877c-28.43744.55963-43.71093 3.50895-58.26427 7.23783-20.35436-.17297-24.95351 9.32472-37.09801 17.78324-37.16582 25.88563-68.71038 79.87347 20.77149 56.18749 31.85669-8.43251 61.24157-1.2373 81.22643-2.25809 122.29996-6.24684 100.67749-19.23731 71.36313-57.69056-29.96203-39.30284-42.05778-21.9672-77.99877-21.25991z" id="path127595"/><path id="path88630" d="m272.72884 236.79364c-28.43744.55963-54.63251 4.80185-63.93585 13.03073-10.60436 12.82703-9.34995 10.97116-21.49445 19.42968-37.16582 25.88563-79.52625 67.13083 9.95562 43.44485 31.85669-8.43251 60.19707-5.325 80.16577-4.02585 103.79996 6.75316 91.54032-5.49069 70.94892-48.93016-21.10363-44.52007-39.69902-23.65654-75.64001-22.94925z" class="top_primary_highlight"/><path class="top_primary_highlight" d="m272.55206 239.97562c-28.43744.55963-64.8773.43573-74.18064 8.66461-10.60436 12.82703-21.47863 20.89274-33.62313 29.35126-37.16582 25.88563-45.13196 52.02943 34.09686 30.9951 31.85048-8.45593 56.48476-5.67855 76.45346-4.3794 103.79996 6.75316 93.05617 4.34415 65.99181-41.6091-25.08019-42.58428-32.79737-23.72976-68.73836-23.02247z" id="path88632"/><path id="path88634" d="m271.66818 244.57181c-20.30572.73641-62.41499-4.36236-71.71833 3.86652-10.60436 12.82703-19.18054 18.94819-31.32504 27.40671-37.16582 25.88563-37.69477 48.16547 32.16488 29.60602 31.84907-8.46127 53.6403-4.6956 73.62504-3.6723 87.00617 4.45507 82.75807 6.32423 54.69371-39.12902-25.96389-42.05131-21.51593-19.38076-57.44026-18.07793z" class="top_primary_highlight"/><path class="top_primary_highlight" d="m271.31463 248.4609c-20.30572.73641-56.62946-1.14269-65.9328 7.08619-10.60436 12.82703-18.29655 16.2981-30.79471 24.22473-22.1398 14.04159-13.95859 32.57143 26.7329 21.61338 31.82024-8.56906 52.60557-6.17619 72.56438-4.73296 66.50007 4.80862 72.64115 2.34295 51.51173-32.58829-20.44799-33.80469-18.15717-16.90588-54.0815-15.60305z" id="path88636"/></g><g id="g48913"><path style="display:inline;fill-opacity:1;fill:none;opacity:1;stroke-dasharray:none;stroke-dashoffset:0;stroke-linecap:butt;stroke-linejoin:miter;stroke-miterlimit:4;stroke-opacity:1;stroke-width:.483828;stroke:#7f7f7f;vector-effect:none" d="m246.72537 435.82022c-9.97465-3.81492-9.71666-9.94211-11.06096-11.26248-1.79585-2.33172-6.13561-6.7773-8.18418-8.10359-.85075-.5508-2.0471-1.56691-2.5303-2.53948-.7875-1.58505-.96329-1.73396-1.65232-3.85639-.91837-2.82887-3.80248-8.07815-5.30372-12.04786-1.18284-3.12775-5.63307-9.03958-8.63821-11.80511-2.73847-2.5201-2.28998-2.40767-3.06008-5.14436-.66428-2.36071-.25286-4.68863-.21957-7.56003.0701-6.04254-2.78777-8.95819-3.50207-12.92304-.60099-3.93861-1.49563-9.644-3.41756-16.56229-.55022-1.9806-.9224-4.08149-.98364-6.30168-.0602-2.18563.19901-4.38301.91664-6.23939.64255-1.66212 1.73497-11.93594 2.63823-15.02227 1.56591-6.10661 4.59969-9.80296 5.61993-15.06928.33191-1.71326.80626-3.21469 1.54554-4.36375 1.11808-1.73784 2.54311-3.01142 4.09119-4.01589 4.18601-2.71606 7.86395-6.32157 10.21357-8.95957 2.39114-2.67906 5.11945-5.9573 7.82474-10.95954.7253-1.34109 1.5501-2.60074 2.52178-3.69048.68218-.76509 1.51034-1.3044 2.42967-1.72807 3.2692-1.50655 6.15283-5.01407 9.53448-8.54731 3.80424-3.9171 7.40197-6.64895 10.71074-9.62872 3.91803-3.52846 8.1648-5.79629 11.45596-9.06578 6.46719-6.27149 13.96376-9.73735 18.92384-19.85422" id="path74560"/><path id="path74562" d="m293.55753 219.67481c-4.26825 10.14854-15.77304 17.54358-22.92776 22.89957-3.71378 2.78012-10.49247 3.3868-14.4105 6.91526-3.30877 2.97977-6.31828 9.60806-9.44383 13.09222-3.98478 4.52683-10.12298 3.32608-13.23106 6.81188-4.59594 5.15444-5.90656 14.10995-8.93875 17.50726-3.21857 3.61359-11.57114 3.68128-15.71253 10.11822-3.01172 4.68112-1.62662 15.21011-4.12599 22.08619-.65967 3.21089-6.82509 10.24277-6.59435 18.6085.27516 9.97544 6.82761 17.5427 7.60065 22.60886 2.11087 10.56266-1.03943 15.59653.74316 21.93143 1.70257 6.05045 11.74172 8.1002 14.43171 14.60652 2.18362 5.77412.33262 11.05369 4.17843 17.18653 2.64537 4.21852 9.39416 3.47559 12.96221 8.92191 3.2268 5.0756 6.15213 10.73405 11.78609 11.15581" style="display:inline;fill-opacity:1;fill:none;opacity:1;stroke-dasharray:none;stroke-dashoffset:0;stroke-linecap:butt;stroke-linejoin:miter;stroke-miterlimit:4;stroke-opacity:1;stroke-width:.483828;stroke:#3b3b3b;vector-effect:none"/><path style="fill-opacity:1;fill:none;opacity:1;stroke-dasharray:none;stroke-dashoffset:0;stroke-linecap:butt;stroke-linejoin:miter;stroke-miterlimit:4;stroke-opacity:1;stroke-width:.483828;stroke:#383838;vector-effect:none" d="m251.0713 435.11422c-2.42411-1.8627-3.96324-5.14379-6.10554-7.0093-2.27723-1.98301-5.1355-2.57036-6.95757-5.26476-2.32116-3.86836-5.54507-7.6334-8.03278-12.16612-2.32007-4.22726-6.90552-8.26251-9.18362-13.90732-2.37934-5.89567-2.15113-13.05679-3.95435-19.45702-1.79685-6.37767-9.86978-11.02168-11.09086-17.1772-1.51037-7.61382.95372-12.65798.62642-22.30424-.3265-9.62239-3.22888-13.36241-1.55347-18.95044 2.99948-7.74387 11.57966-13.79823 14.77212-18.71778 3.70961-5.71648 2.01584-9.90067 5.16196-13.42284 3.03078-3.3824 8.97691-4.82345 13.64895-9.90963 3.27552-3.56588 4.82046-10.22593 9.03172-15.01674 2.74604-3.69333 6.21467-2.25031 10.96932-6.50843 2.92491-2.61949 7.96528-9.72228 11.57203-12.3932" id="path74566"/><g id="g48785"><path id="path74554" d="m203.69828 354.63038c-8.28683-12.58669-5.83165-26.323-.95972-30.93833-.29334 2.42345-1.61213 20.95138.95972 30.93833z" style="display:inline;fill-opacity:.0784314;fill:#000;opacity:1;stroke-dasharray:none;stroke-dashoffset:0;stroke-linecap:butt;stroke-linejoin:miter;stroke-miterlimit:4;stroke-opacity:1;stroke-width:.484315;stroke:none;vector-effect:none"/><path style="display:inline;fill-opacity:1;fill:#000;opacity:.15;stroke-dasharray:none;stroke-dashoffset:0;stroke-linecap:butt;stroke-linejoin:miter;stroke-miterlimit:4;stroke-opacity:1;stroke-width:.484315;stroke:none;vector-effect:none" d="m239.39301 424.96418c4.4809.60816 7.13754 4.82203 10.67293 9.24182-3.95007-.24018-7.72729-3.06394-10.67293-9.24182z" id="path74564"/><path id="path74568" d="m216.7446 390.99859c-12.7051-5.08355-11.40804-12.08349-9.42266-20.39175.0252 2.53102 3.20257 14.34854 9.42266 20.39175z" style="display:inline;fill-opacity:.0784314;fill:#000;opacity:1;stroke-dasharray:none;stroke-dashoffset:0;stroke-linecap:butt;stroke-linejoin:miter;stroke-miterlimit:4;stroke-opacity:1;stroke-width:.484315;stroke:none;vector-effect:none"/><path id="path74570" d="m233.07954 418.62111c-8.41869-2.04281-9.29043-6.71299-10.70137-14.74208 1.09133 1.71481 5.44032 8.92184 10.70137 14.74208z" style="display:inline;fill-opacity:.0784314;fill:#000;opacity:1;stroke-dasharray:none;stroke-dashoffset:0;stroke-linecap:butt;stroke-linejoin:miter;stroke-miterlimit:4;stroke-opacity:1;stroke-width:.484315;stroke:none;vector-effect:none"/><path style="fill-opacity:.994186;fill:none;opacity:1;stroke-dasharray:none;stroke-dashoffset:0;stroke-linecap:butt;stroke-linejoin:miter;stroke-miterlimit:4;stroke-opacity:1;stroke-width:.483828;stroke:#000;vector-effect:none" d="m202.68379 323.53405c5.41119 6.74865 4.10269 27.09467 1.0025 31.23918-3.87517-7.60458-5.73452-12.87029-5.51024-17.3288.21595-4.29267.89471-7.05361 4.50774-13.91038z" id="path127567"/><path style="fill-opacity:.994186;fill:none;opacity:1;stroke-dasharray:none;stroke-dashoffset:0;stroke-linecap:butt;stroke-linejoin:miter;stroke-miterlimit:4;stroke-opacity:1;stroke-width:.483828;stroke:#000;vector-effect:none" d="m207.27488 369.60868c3.73218.91266 7.72656 5.94703 8.86621 6.93395.99084 2.52999 2.64394 11.18549 1.70642 15.22527-4.95407-3.28737-10.25815-5.75352-11.42143-9.81181-1.20226-4.19421.42606-9.27841.8488-12.34741z" id="path127565"/><path style="fill-opacity:.994186;fill:none;opacity:1;stroke-dasharray:none;stroke-dashoffset:0;stroke-linecap:butt;stroke-linejoin:miter;stroke-miterlimit:4;stroke-opacity:1;stroke-width:.483828;stroke:#000;vector-effect:none" d="m222.20166 403.63202c4.48741.55812 9.01596 9.90573 11.0848 15.25282-4.67516-1.58178-6.96268-2.1418-8.15006-4.6489-1.6929-3.57449-1.97499-5.91139-2.93474-10.60392z" id="path74596"/><path d="m205.47599 360.46816c.17137.88735-.0716 1.79434-.54283 2.02574-.47118.23141-.99208-.30036-1.16346-1.18772-.17137-.88739.0717-1.79435.54283-2.02576.4712-.23139.99208.30035 1.16346 1.18774z" id="path74544" class="top_accent"/><path d="m204.35854 318.89162c-.17726.94066-.75598 1.4947-1.29262 1.23755-.53662-.25718-.82798-1.22822-.65073-2.16885.17727-.94063.75599-1.4947 1.29263-1.23752.53663.25718.82798 1.22822.65072 2.16882z" id="path74546" class="top_accent"/><path d="m220.42702 396.35391c.3354.75898.2806 1.74141-.12241 2.1943-.40301.4529-1.00158.20476-1.33698-.55422-.3354-.75898-.28059-1.74141.12241-2.1943.40301-.4529 1.00159-.20478 1.33698.55422z" id="path74550" class="top_accent"/><path d="m237.72831 423.13295c.44377.70504.48217 1.44169.0865 1.64497-.39594.20348-1.07673-.20315-1.52051-.90819-.44378-.70506-.48219-1.44172-.0865-1.64498.39597-.20349 1.07674.20317 1.52052.9082z" id="path74558" class="top_accent"/><path style="display:inline;fill-opacity:.0784314;fill:#000;opacity:1;stroke-dasharray:none;stroke-dashoffset:0;stroke-linecap:butt;stroke-linejoin:miter;stroke-miterlimit:4;stroke-opacity:1;stroke-width:.484315;stroke:none;vector-effect:none" d="m227.73122 281.41496c5.46703-15.03092 7.4483-13.00845 13.94969-15.47861-.31229 2.41182-5.18006 8.37166-13.94969 15.47861z" id="path74574"/><path id="path127573" d="m261.63818 246.57617c-2.36767 7.85475-8.89307 9.59932-11.24848 10.85818 5.17549-8.55105 7.80257-9.19993 11.24848-10.85818z" style="display:inline;fill-opacity:.994186;fill:none;opacity:1;stroke-dasharray:none;stroke-dashoffset:0;stroke-linecap:butt;stroke-linejoin:miter;stroke-miterlimit:4;stroke-opacity:1;stroke-width:.483828;stroke:#000;vector-effect:none"/><path id="path127571" d="m241.7249 265.79772c-.47638 7.85567-11.15262 14.42997-14.3433 15.79772 1.78355-4.64482 3.28422-8.3747 5.41974-11.27442 2.05609-2.79188 5.66402-3.4939 8.92356-4.5233z" style="display:inline;fill-opacity:.994186;fill:none;opacity:1;stroke-dasharray:none;stroke-dashoffset:0;stroke-linecap:butt;stroke-linejoin:miter;stroke-miterlimit:4;stroke-opacity:1;stroke-width:.483828;stroke:#000;vector-effect:none"/><path class="top_accent" id="path74548" d="m245.5225 262.56887c-.54236.21605-.93171-.17297-.86974-.86768.062-.69525.55193-1.43402 1.09428-1.65009.54236-.21606.9317.17299.86974.86765-.0619.69529-.55194 1.43406-1.09428 1.65012z"/><path class="top_accent" d="m268.71052 242.6187c-.58222.006-.83914-.50567-.5743-1.14268.26495-.63753.95186-1.15956 1.53408-1.16602.58225-.006.83917.50569.57434 1.1427-.26496.63754-.95188 1.15954-1.53412 1.166z" id="path74552"/><path style="display:inline;fill-opacity:.0784314;fill:#000;opacity:1;stroke-dasharray:none;stroke-dashoffset:0;stroke-linecap:butt;stroke-linejoin:miter;stroke-miterlimit:4;stroke-opacity:1;stroke-width:.484315;stroke:none;vector-effect:none" d="m206.38198 311.27039c.57985-8.90546.56482-9.92641 2.21418-13.84696 1.69831-4.03694 7.30106-6.40284 12.4199-8.00634-1.45455.22341-9.59376 8.96287-13.2561 18.65854-.54902 1.45345-1.0717 1.65656-1.37798 3.19476z" id="path74572"/><path id="path127569" d="m221.17285 289.24176c-2.43637 17.41496-11.68503 11.96493-14.93293 22.63227.6766-5.70031.47192-11.54142 2.71624-14.99948 1.62218-2.49948 3.62145-4.32816 12.21669-7.63279z" style="display:inline;fill-opacity:.994186;fill:none;opacity:1;stroke-dasharray:none;stroke-dashoffset:0;stroke-linecap:butt;stroke-linejoin:miter;stroke-miterlimit:4;stroke-opacity:1;stroke-width:.483828;stroke:#000;vector-effect:none"/><path class="top_accent" d="m224.39122 286.64209c-.43823.6113-1.05666.62714-1.38123.0353-.32459-.59179-.23246-1.56709.20578-2.1784.43825-.6113 1.05666-.62713 1.38124-.0354.32458.5918.23246 1.56709-.20579 2.17841z" id="path74556"/></g></g></g></svg>