<svg viewBox="0 0 560 1e3"><path d="m292.26228 451.04207c0 .75293-.84427 1.5972-1.5972 1.5972s-1.5972-.84427-1.5972-1.5972.84427-1.5972 1.5972-1.5972 1.5972.84427 1.5972 1.5972z" id="path5401" class="shadow"/><path d="m288.46072 452.43735c-.30594.30845-.70805.52233-1.08701.52233-.75293.0-1.5972-.84427-1.5972-1.5972s.84427-1.5972 1.5972-1.5972c.32228.0.6613.15468.94368.39068-.88965 1.15329-.5963 2.06882.14333 2.28139z" id="path5403" class="shadow"/><path class="steel_piercing" id="path2749-8-16" d="m292.11708 451.04207c0 .68448-.76752 1.452-1.452 1.452s-1.452-.76752-1.452-1.452.76752-1.452 1.452-1.452 1.452.76752 1.452 1.452z"/><path class="steel_piercing" id="path2749-8-33" d="m288.33871 452.33963c-.27813.28041-.64368.47485-.98819.47485-.68448.0-1.452-.76752-1.452-1.452s.76752-1.452 1.452-1.452c.29298.0.60118.14062.85789.35516-.80877 1.04845-.54209 1.88075.1303 2.07399z"/></svg>