<svg viewBox="0 0 560 1e3"><defs><clipPath clipPathUnits="userSpaceOnUse" id="clipPath26451"><path id="path26453" d="m251.02101 920.12107c.48155 7.94386 1.60134 16.3086 2.11715 24.13409l.25732 1.58412-3.38676-.0529s-1.63145-10.17954-2.87842-25.27864z" style="display:inline;fill-opacity:.5;fill:#0ff"/></clipPath><clipPath clipPathUnits="userSpaceOnUse" id="clipPath26455"><path id="path26457" d="m251.07073 920.11002c.48155 7.94386 1.60134 16.3086 2.11715 24.13409l.25732 1.58412-3.38676-.0529s-1.63145-10.17954-2.87842-25.27864z" style="display:inline;fill-opacity:.5;fill:#0ff"/></clipPath><clipPath clipPathUnits="userSpaceOnUse" id="clipPath26455-3"><path id="path26457-3" d="m251.07073 920.11002c.48155 7.94386 1.60134 16.3086 2.11715 24.13409l.25732 1.58412-3.38676-.0529s-1.63145-10.17954-2.87842-25.27864z" style="display:inline;fill-opacity:.5;fill:#0ff"/></clipPath><clipPath clipPathUnits="userSpaceOnUse" id="clipPath26451-2"><path id="path26453-5" d="m251.02101 920.12107c.48155 7.94386 1.60134 16.3086 2.11715 24.13409l.25732 1.58412-3.38676-.0529s-1.63145-10.17954-2.87842-25.27864z" style="display:inline;fill-opacity:.5;fill:#0ff"/></clipPath></defs><path id="path26511" d="m371.71607 944.14055c.16427.82595.14542 2.11503.14239 2.80253-.0292 6.62094-.12853 12.26982-.25299 18.27176-63e-5.0157 3e-5.0313.002.0469.17145 5.39199 3.91571 11.01856 8.09961 12.77539s9.55583 1.31736 15.41797-.5332c4.17507-1.318 7.19353-2.18607 9.25-3.60743 2.05647-1.42135 3.06379-3.71157 3.20312-7.09375.0384-.9321.0328-20.48266-.0254-21.56835l-.28711.0156c.0453.84555.0545 20.83494.0254 21.54102-.27439 6.6603-3.92718 7.51841-12.28321 10.15625-11.65247 3.67846-21.22803 1.67811-23.11523-11.72657.13739-6.62574.24608-12.82356.26172-20.37304z" class="shadow"/><path id="path26307" d="m372.1542 944.84803c2.39176 10.46338 11.78344 13.75075 26.74105 7.98254 5.28602-2.03848 6.33056-1.47182 8.37128-7.58057.0453.84555.0542 20.83559.0251 21.54167-.27439 6.6603-3.9282 7.51781-12.28423 10.15565-11.65247 3.67846-21.22754 1.67729-23.11474-11.72739.13739-6.62574.2459-12.82242.26154-20.3719z" class="shoe_primary"/><path id="path26373-3" d="m248.3993 908.41826c1.18908.18104 2.39984.91814 2.55282 2.24337.91262 7.90594 1.66832 26.66011 2.15288 34.2356l-1.60868-.25628c-2.31495-26.72149-1.07371-11.78654-3.09702-36.22269z" class="shadow" clip-path="url(#clipPath26455-3)" transform="matrix(1,0,-0.0249612,1,23.01124,24.007579)"/><path id="path26375-4" d="m248.7639 908.38511c1.18908.18104 2.03524.95129 2.18822 2.27652.91262 7.90594 1.70738 26.09761 2.19194 33.6731l-1.15555-.25628c-2.31495-26.72149-1.2013-11.25719-3.22461-35.69334z" class="shoe_accent" clip-path="url(#clipPath26451-2)" transform="matrix(1,0,-0.0249612,1,23.06124,23.996529)"/><path id="path26435-7" style="display:inline;fill-opacity:1;fill:#000" d="m223.98135 940.19628c-.0255.0733-.40437 1.03099-.4294 1.10517-2.9342 8.6971-2.36644 23.10544-8.31172 30.12824-5.23133 3.15732-10.8649 3.33683-13.87109 3.83203-3.78557.62359-12.7309 1.10553-17.82226-1.49219-.75126-.38331-1.41869-.8049-1.97328-1.26565.0439-7.47655.10768-14.95311.26821-22.42967l-.43945.15235c-.24613 6.87788-.31314 12.56556-.24668 22.41962.61679.54363 1.37248 1.02722 2.21931 1.45929 5.26708 2.68738 14.20599 2.16133 18.05469 1.52734 2.94618-.48531 8.67761-.66504 14.00586-3.88086.0305-.0188.0581-.0418.082-.0684 3.43881-3.74283 4.68136-10.0285 5.71679-16.47265.9734-6.05808 1.76201-10.55464 2.33898-12.95652.17706-.73708.6104-2.0061.74682-2.33324zm30.35459 2.92481c1.24697 15.0991.97893 23.89737.97893 23.89737l-2.74609 1.34375c-.51581-7.82549-1.01692-16.43398-1.49847-24.37783l-.27004.007c.48272 7.9631.92308 16.821 1.4377 24.62838.0181.2668.19039.48537.43054.36774l2.85657-1.39899c.13425-.0655.21702-.20425.21094-.35351.0.0.26104-9.04006-.98641-24.14502z"/><path id="path26379-6" d="m181.85822 949.99538c-.27753 8.73471-.23224 16.04152-.29634 22.49915.55682.4645 1.22833.88931 1.98495 1.27535 5.09136 2.59772 14.0366 2.11458 17.82217 1.49099 3.00619-.4952 8.63916-.67381 13.87049-3.83113 6.55138-7.13059 4.47028-20.35497 9.29105-32.82995-.0506-.26791-.10639-.53015-.16737-.78637-1.75521 8.07862-32.20909 21.49934-42.50495 12.18196zm69.21251-6.01036c.48155 7.94386.97634 16.6836 1.49215 24.50909l2.74556-1.34375s.2748-8.92954-.97217-24.02864z" class="shoe_primary"/></svg>