<svg viewBox="0 0 560 1e3"><defs><filter style="color-interpolation-filters:sRGB" id="filter100646"><feGaussianBlur stdDeviation="4 4" result="blur" id="feGaussianBlur100644"/></filter><clipPath clipPathUnits="userSpaceOnUse" id="clipPath123307"><path style="display:inline;fill-opacity:.48671097;fill:#00e0e8" id="path123309" d="m219.84587 533.8605c.68992 8.04938 1.49553 16.29556 2.38881 24.39117l74.529 9.53067c.41994-3.42139.82338-6.8973 1.22712-10.42635 1.83272-4.49042 3.14181-12.91455 4.00903-22.80333m10.53194-.15057c1.96135 11.44144 4.31434 23.25109 7.04252 34.69934l80.77579-20.05739c-.13502-4.71978-.33312-9.43146-.57985-14.12908"/></clipPath></defs><path d="m392.56264 544.5905.83875.0327 8.99431.29421c-.50088-29.11212-5.31422-60.31897-8.44882-85.23541z" id="path89520" class="bottoms_primary"/><g id="g112064" clip-path="url(#clipPath123307)"><g clip-path="none" style="filter:url(#filter100646)" id="g100638"><g id="g112033"><path id="path100626" d="m241.3002 538.08248c22.07024 2.65041 38.32169 19.08279 70.19165 19.74005 20.43898.42152 35.46968-19.56035 73.70459-21.50782l-4.48825-17.14634-139.48746-1.06167z" class="legs_shade"/><path d="m241.3002 533.83984c22.07024 2.65041 38.32169 19.08279 70.19165 19.74005 20.43898.42152 35.46968-19.56035 73.70459-21.50782l-4.48825-17.14634-139.48746-1.06167z" id="path100628" class="legs_shade"/><path id="path100630" d="m241.3002 529.42042c22.07024 2.65041 38.32169 19.08279 70.19165 19.74005 20.43898.42152 35.46968-19.56035 73.70459-21.50782l-4.48825-17.14634-139.48746-1.06167z" class="legs_shade"/><path d="m241.3002 525.001c22.07024 2.65041 38.32169 19.08279 70.19165 19.74005 20.43898.42152 35.46968-19.56035 73.70459-21.50782l-4.48825-17.14634-139.48746-1.06167z" id="path100632" class="legs_shade"/><path class="legs_shade" d="m241.3002 538.08248c22.07024 2.65041 38.32169 19.08279 70.19165 19.74005 20.43898.42152 35.46968-19.56035 73.70459-21.50782l-4.48825-17.14634-139.48746-1.06167z" id="path134558"/><path id="path134560" d="m241.3002 538.08248c22.07024 2.65041 38.32169 19.08279 70.19165 19.74005 20.43898.42152 35.46968-19.56035 73.70459-21.50782l-4.48825-17.14634-139.48746-1.06167z" class="legs_shade"/><path class="legs_shade" d="m241.3002 538.08248c22.07024 2.65041 38.32169 19.08279 70.19165 19.74005 20.43898.42152 35.46968-19.56035 73.70459-21.50782l-4.48825-17.14634-139.48746-1.06167z" id="path134562"/></g></g></g></svg>