<svg viewBox="0 0 560 1e3"><g data-transform="boob_outfit" id="g22209"><path d="m325.42373 246.89452a17.198828 14.495914.0 01-17.19887 14.49592 17.198828 14.495914.0 01-17.19884-14.49592 17.198828 14.495914.0 0117.19884-14.49589 17.198828 14.495914.0 0117.19887 14.49589z" id="path22095-06-8-9" class="bra_primary"/><path d="m307.28397 245.0843-.19706 13.72243c-.81173.074-1.45271.30141-1.89273.70979-.24936 1.21564-.19084 2.27734-.23649 3.39117-1.94272 1.49539-1.8201 2.47446-2.18076 3.5743.0.0-.71308 18.30079-1.60094 27.40978-.19105 1.96042-.80112 5.85464-.80112 5.85464.5019.16109.70854-.33937 1.50569-.72496.79824-.38612.94411.81236 1.7132.76916.60474-.0341 1.082-1.34433 1.60204-1.27584.96121.12669 1.36669 1.34323 2.3354 1.30513.91807-.0359.42597-1.52813 1.36426-1.53381.85589-.006 1.11956 1.47825 1.96254 1.62622 1.44301.25333 1.04989-2.1823 2.42545-1.67803.83074.30454 1.83685 2.04989 2.31686 1.64537-.51505-1.3916-1.06721-2.16633-1.3477-5.42484l-2.42867-28.21167c-.33608-1.2629-.87763-2.32033-1.63431-3.16268-.0161-1.2733.0582-2.54663-.23697-3.81993-.58454-.33541-1.08944-.423-2.03964-.46586l.20026-13.69046z" id="path22113-4-5-4" class="bra_accent"/><path class="bra_primary" id="path85871" d="m220.49789 254.98368c-.71737 6.83978-7.87755 11.69452-15.99267 10.84336-3.60407-.37801-6.79037-1.81788-9.15627-3.90102 1.62971-9.24034 4.4212-14.91229 12.54454-20.76716 7.71035 1.1594 13.29828 7.20907 12.6044 13.82482z"/><path class="bra_accent" id="path22115-7-6-2" d="m204.62387 250.94981-.19468 13.5559c-.80189.0731-1.43508.29775-1.86979.70117-.24632 1.20086-.18852 2.24968-.23359 3.35-1.91913 1.47721-1.79802 2.4444-2.1543 3.53091.0.0-.7044 18.07864-1.58152 27.07707-.1887 1.93664-.79137 5.78357-.79137 5.78357.49582.15911.69997-.33528 1.48742-.71618.78855-.38144.93264.80252 1.6924.75985.59738-.0337 1.06889-1.32804 1.5826-1.26038.9495.12515 1.35006 1.32693 2.30705 1.2893.90693-.0356.4208-1.50958 1.3477-1.51519.84552-.006 1.10596 1.4603 1.93871 1.60646 1.42547.25026 1.03716-2.15579 2.39601-1.65764.82066.30084 1.81457 2.02503 2.28872 1.62538-.50876-1.3747-1.05422-2.14001-1.33132-5.35897l-2.39921-27.86922c-.332-1.24758-.86697-2.29219-1.61446-3.12429-.0158-1.25785.0575-2.51571-.23407-3.77359-.5775-.3313-1.07623-.41785-2.0149-.46016l.19786-13.52428z"/></g></svg>