<svg viewBox="0 0 560 1e3"><path id="XMLID_511_-1-8-0-3-9-7-7-7-7-9-0-4-2-3-9-9-9-7-5-8" class="highlight2" d="m290.78031 289.8987c1.16217 7.94032-1.53798 16.12237-2.63519 17.25859-.1441-1.51113-.50096-11.78223 2.63519-17.25859z"/><path id="XMLID_511_-1-8-0-3-9-7-7-7-7-9-0-4-2-3-9-9-9-7-5-8-8" class="highlight2" d="m263.8142 294.55822c2.74268 8.04932 2.76861 26.83209.89606 27.91484-1.12917-1.27471-5.12923-22.1752-.89606-27.91484z"/><path id="XMLID_511_-1-8-0-3-9-7-7-7-7-9-0-4-2-3-9-9-9-7-5-8-8-4" class="highlight2" d="m289.50061 337.66987c2.74268 8.04932 1.84052 16.44647-.032 17.52922-1.12917-1.27471-4.20114-11.78958.032-17.52922z"/><path id="XMLID_511_-1-8-0-3-9-7-7-7-7-9-0-4-2-3-9-9-9-7-5-8-8-4-2" class="highlight2" d="m244.58793 342.8708c-1.39447 6.83617-4.62602 11.20746-5.51208 12.57947-1.00378-1.21683 1.66574-6.6613 5.51208-12.57947z"/><path id="XMLID_511_-1-8-0-3-9-7-7-7-7-9-0-4-2-3-9-9-9-7-5-8-8-4-2-7" class="highlight2" d="m338.3403 373.13569c2.26913 12.90402-4.61748 11.22161-5.51208 12.57947-1.0473-1.2502-1.53943-9.11859 5.51208-12.57947z"/><path id="XMLID_511_-1-8-0-3-9-7-7-7-7-9-0-4-2-3-9-9-9-7-5-8-8-4-2-7-6" class="highlight2" d="m242.25302 404.89085c-2.26913 12.90402 6.03169 10.58079 7.43452 11.6072 1.0473-1.2502-.38301-8.14632-7.43452-11.6072z"/><path id="XMLID_511_-1-8-0-3-9-7-7-7-7-9-0-4-2-3-9-9-9-7-5-8-5" class="highlight2" d="m274.56079 341.01946c-.6917 2.59191 1.01886 6.14891 1.5481 6.57075-.0597-.50761-.7297-4.73118-1.5481-6.57075z"/></svg>