<svg viewBox="0 0 560 1e3"><path class="shadow" id="path5259" d="m288.96062 449.42187c0 .62226-.69774 1.32-1.32 1.32-.62225.0-1.32-.69774-1.32-1.32.0-.62225.69775-1.32 1.32-1.32.62226.0 1.32.69775 1.32 1.32z"/><path class="shadow" id="path5261" d="m285.70003 451.22813c-.24858.2382-.56655.40079-.86694.40079-.62226.0-1.32-.69774-1.32-1.32.0-.18469.0615-.37602.16419-.55379 1.24719.87768 1.00621.91214 2.02275 1.473z"/><path d="m288.84062 449.42187c0 .56569-.63431 1.2-1.2 1.2-.56568.0-1.2-.63431-1.2-1.2.0-.56568.63432-1.2 1.2-1.2.56569.0 1.2.63432 1.2 1.2z" id="XMLID_537_-4-566" class="steel_piercing"/><path class="shadow" id="path5263" d="m285.66375 446.04688c0 .62225-.69774 1.32-1.32 1.32s-1.32-.69775-1.32-1.32c0-.62226.69774-1.32 1.32-1.32s1.32.69774 1.32 1.32z"/><path d="m285.60062 451.17939c-.22598.21655-.51504.36436-.78812.36436-.56569.0-1.2-.63431-1.2-1.2.0-.1679.0559-.34184.14926-.50345 1.13381.79789.91474.82922 1.83886 1.33909z" id="XMLID_537_-4-47" class="steel_piercing"/><path class="shadow" id="path5265" d="m281.96779 448.10815c-.21332.15462-.45649.25214-.68911.25214-.62226.0-1.32-.69774-1.32-1.32.0-.28624.14764-.58845.36766-.83137 1.11266 1.31447.71612.86708 1.64145 1.89923z"/><path d="m285.54375 446.04688c0 .56568-.63431 1.2-1.2 1.2-.56569.0-1.2-.63432-1.2-1.2.0-.56569.63431-1.2 1.2-1.2.56569.0 1.2.63431 1.2 1.2z" id="XMLID_537_-4-9" class="steel_piercing"/><path d="m281.87647 448.03328c-.19393.14057-.41499.22922-.62647.22922-.56569.0-1.2-.63431-1.2-1.2.0-.26022.13422-.53495.33424-.75579 1.01151 1.19497.65102.78825 1.49223 1.72657z" id="XMLID_537_-4-28" class="steel_piercing"/></svg>