<svg viewBox="0 0 560 1e3"><path id="path25933" d="m155.70508 916.38672c.90774 2.89311 1.60031 8.67585 1.69531 15.07812.095 6.40228-.40348 13.43281-1.85742 18.84961-.009.0313-.0953.29541-.0801.32422.0962.50764.2837 1.05076.9177 1.7847 4.59874 5.11056 13.24453 6.59274 20.20899 7.57032 8.26608 1.16018 16.27897-.15216 23.72265-1.76758 4.44707-.96511 8.18297-3.59896 12.50651-4.65492 3.16743-.7735 6.71752-1.35461 10.02344-1.23828 7.07801.24906 15.18679-1.5356 19.04492-4.16406.90704-.61794 1.28846-1.89913 1.5836-3.24893.29514-1.34979.35403-3.01841.30274-4.92969-.10258-3.82254-.65212-8.61932-.69532-13.74218-.0376-4.46321.19464-9.0129.36915-12.72266.0872-1.85488.284-3.50796.30273-4.82812.0187-1.32017-.1377-2.30131-.27539-2.87696l-.12305.0293c.52373 2.1891-.47373 11.46386-.39844 20.40039.0865 10.26238 2.19615 19.19654-1.29101 21.57227-3.81177 2.59687-11.9174 4.39076-18.9707 4.14257-3.32376-.11696-6.88225.46502-10.05664 1.24024-4.3552 1.06368-7.71527 3.67496-12.12891 4.63281-7.43918 1.61445-15.43571 2.92244-23.67774 1.76563-6.96116-.97711-15.5787-2.46833-20.13281-7.5293-.39006-.59336-.72412-1.16455-1.03125-1.72656 2.91827-10.87231 1.99523-28.15565.16211-33.99805-.0914-.26003-.12322-.20198-.12107.0371z" class="shadow"/><path d="m155.82522 916.34944c1.83312 5.8424 2.75725 23.12623-.16102 33.99854.22119.53467.39042 1.08288 1.03048 1.72702 4.55411 5.06097 13.17216 6.55153 20.13332 7.52864 8.24203 1.15681 16.23951-.15159 23.67869-1.76604 4.41364-.95785 7.77218-3.56939 12.12738-4.63307 3.17439-.77522 6.73394-1.35581 10.0577-1.23885 7.0533.24819 15.15806-1.54704 18.96983-4.14391 3.48716-2.37573 1.37859-11.30847 1.29209-21.57085-.0753-8.93653.92236-18.21159.39863-20.40069-2.28162 8.549-18.05056 9.17197-28.78247 11.38463-15.96261 3.2911-41.5103 10.98478-58.74463-.88542z" id="path25689" class="shoe_accent"/><path id="path25940" d="m404.08789 926.16406c-.26313 1.58291-2.10721 14.58017-2.4043 25.33399-.23031 8.33643 1.09314 14.99972.84571 16.00976-1.72295 7.03312-4.89631 7.38102-18.57032 7.18555-11.01047-.1574-15.74231 1.37091-15.89257-6.64648-.0176-.93927 1.17952-6.98886 1.23632-13.79688.0786-9.41595-.93983-20.39812-.6289-22.35547l-.31836-.0508c-.0893.56225-.0761 1.60007-.0254 3.05664s.14706 3.30746.25 5.39063c.20587 4.16633.43958 9.26169.40039 13.95703-.0283 3.38595-.33924 6.58851-.64258 9.0625-.15167 1.23699-.3013 2.29085-.41211 3.09765-.1108.8068-.18744 1.33494-.18164 1.64453.0382 2.03618.36535 3.50439 1.05078 4.56641.68544 1.06202 1.72916 1.67938 3.06836 2.01172 2.67841.66468 6.6021.30629 12.0918.38476 6.84009.0978 11.06438.0741 13.87695-.90039 1.40629-.48723 2.4585-1.22879 3.25-2.29882.7915-1.07004 1.32374-2.45257 1.75977-4.23243.0485-.19814.0477-.41848.0352-.7246-.0125-.30614-.0448-.68569-.0879-1.13672-.0862-.90206-.2202-2.09003-.35547-3.50391-.27053-2.82775-.54235-6.56209-.42773-10.71094.29627-10.72423 2.1441-23.74927 2.40039-25.29101z" class="shadow"/><path d="m404.08821 926.1637c-2.62216 8.44001-4.45951 18.36471-16.97711 15.19243-13.05584-3.30869-12.0527 4.43067-18.43798-9.46219-.31093 1.95735.70793 12.94107.62934 22.35702-.0568 6.80802-1.25405 12.8561-1.23645 13.79537.15026 8.0174 4.88261 6.48925 15.89308 6.64665 13.67401.19547 16.84695-.1515 18.5699-7.18462.24743-1.01004-1.07547-7.67376-.84516-16.01019.29709-10.75382 2.14125-23.75156 2.40438-25.33447z" id="path25717" class="shoe_accent"/></svg>