<svg viewBox="0 0 560 1e3"><g transform="translate(4.2834823e-6)" style="display:inline" id="g35010-4-1"><path id="path34999-1-30" d="m376.6368 382.21913c.10288.23577.20614.46822.30904.70678 71e-5-.004.001-.009.002-.0137-.10352-.24008-.20824-.45564-.3117-.69309.01.0101-5e-5 2e-5-5e-5 2e-5s49e-5 2e-5 49e-5 2e-5z" style="fill:#010101"/><path id="path35001-3-16" d="m359.79855 351.20808c-12.21686 1.68563-25.66902 3.64553-39.97022 5.56714-14.28602 1.91956-29.40153 3.80094-43.94517 5.23115-30.05383 2.95548-53.9428 3.77563-72.9537-.16097-1.72712 11.01843-3.42883 19.79828-1.25212 32.01749 1.05637 5.93 2.83024 11.5224 5.26535 18.14938 2.26142 6.15429 5.24859 13.52579 7.09336 20.66979 2.34463 9.07976 3.67586 17.58006 3.85024 26.72975.1665.01.46547 1e-5.46547 1e-5-.0816-8.90499-1.45645-17.44247-3.77942-26.37329-1.85801-7.14321-4.8874-14.51532-7.18656-20.67303-2.47596-6.63121-4.28592-12.22607-5.37146-18.16265-2.23154-12.20374-.5467-21.0492 1.24039-32.04622 18.94004 3.93717 42.706 3.11385 72.59166.15862 14.46883-1.43062 29.52386-3.31345 43.77928-5.23503 10.23891-1.38016 29.72583-4.19279 39.96474-5.57295 4.66393 7.11163 10.35056 16.04943 15.70898 27.72163-5.34287-11.75298-10.78819-20.87794-15.50083-28.02108l1e-5 26e-5z" class="shadow"/><path id="path35003-1-0" d="m359.5904 351.50753c-19.5621 2.69519-20.40266 2.87777-39.96475 5.57296-14.25542 1.92158-29.31045 3.80441-43.77928 5.23503-29.88566 2.95499-53.65163 3.77831-72.59166-.15862-1.7871 10.99702-3.47194 19.84249-1.24039 32.04622 1.08555 5.93658 2.89552 11.53144 5.37148 18.16265 2.29918 6.15771 5.32857 13.52982 7.18658 20.67303 2.32308 8.93129 3.69818 17.46818 3.77938 26.37329 58.61282.0112 175.58688 17e-5 175.58688 17e-5.27117-11.07642-1.43562-23.61823-3.8647-34.88932-2.47799-11.49813-5.75693-21.94669-8.53182-29.84441-7.11661-20.25488-15.74576-33.70777-21.95172-43.17076v-24e-5z" class="bottoms_primary"/></g></svg>