<svg viewBox="0 0 560 1e3"><defs><filter style="color-interpolation-filters:sRGB" id="filter7234"><feGaussianBlur stdDeviation="1 1" result="blur" id="feGaussianBlur7232"/></filter><clipPath clipPathUnits="userSpaceOnUse" id="clipPath7238"><path style="fill-opacity:.45694203;fill:#00e0e8" d="m278.85248 444.47062c5-.3 16 3.1 18 7.4 1.6 3.5.7-1.2-1.7 2-1.5.7-3.9 1.7-6.8 2.9-6.6 2.7-7.9 2.9-10.3 4.7-2.6 1.9-4.4 4.2-5.4 5.4-.8 1-1.9 2.4-3 4.2l-.9 1.5c-.3.5-.5.9-.7 1.3-2 6.1-4.7 12.2-3.6 18v1.7c0 .6-.1 1.1-.1 1.7-1.6 3.1 2.5 2.4 3.1 5.1.7 3.4.0 6.1-.3 9.4-.1.5-.3 1-.4 1.5-1.5 4.7-3.7 6.7-3.7 6.7-.4.4-1.4 1.4-2.8 2.2-.4.3-.9.5-1.4.7-7.7 2.4-11.1-6.4-12.8-12-.2-.6-.3-1.2-.4-1.9-.4-2.5-.4-5.2 1-6.7.3-.3.7-.6 1-.8s.6-.5.7-1c-2.6-8.3-.6-15.8.4-23.6.1-.6.2-1.1.3-1.7.6-3.8.5-4.8 2.1-8.4.6-1.3 2.4-6.8 7.4-11.8 8.6-8.7 15-8.2 20.3-8.5z" id="path7240"/></clipPath></defs><path id="path6-1" d="m262.35248 496.07062c.1.3.7.5 1.4.7 5.2.5 5.2 8.1 4.1 12.9-.1.4-.2.9-.3 1.3-1.6 5.7-4.1 8.1-4.1 8.1-.5.5-2.3 2.3-4.5 3.1-.6.2-1.1.4-1.8.4-7.4-.3-10.7-7.2-11.7-13.5-.2-.7-.3-1.3-.4-2-.5-2.8-.4-5.7 1-7.3.3-.4.7-.6 1-.9.3-.3.6-.6.8-1.1"/><path id="path8-2" d="m246.45248 488.07062c0-.9.0-2.3.1-3.9.0-.8.2-3.9.9-8.4.4-2.6.8-4.7.9-5.2 2.8-13.8 12.7-20.7 12.7-20.8 1.1-.9 3.7-2.4 4.8-3.3 2.2-1.4 9.1-4.6 18.7-1.7 1.4.4 10.9 4.4 12.4 7 1.9 3.2-1.2-2.1-1.9-1.4-.3.3-.8.7-1.5 1.5-.8 1.1-1.1 2-1.3 2.4-.8 1.7-2.7 2.2-5.5 3.4-3.6 1.4-5.9 2.4-8.1 4-1.6 1.2-2.8 2.6-5 5.3-2 2.4-3.1 3.8-4.1 6-.3.7-.9 2.2-2 5.2-.7 1.8-.9 2.6-1.2 3.5-.5 1.6-.8 3-.9 4-.6 2.4-2.1 7-6.2 10.7-2 1.8-4.6 4.3-7.1 3.6-4.6-1-5.6-11.2-5.7-11.9z"/><path id="path10-70" d="m278.85248 444.47062c5-.3 16 3.1 18 7.4 1.6 3.5.7-1.2-1.7 2-1.5.7-3.9 1.7-6.8 2.9-6.6 2.7-7.9 2.9-10.3 4.7-2.6 1.9-4.4 4.2-5.4 5.4-.8 1-1.9 2.4-3 4.2l-.9 1.5c-.3.5-.5.9-.7 1.3-2 6.1-4.7 12.2-3.6 18v1.7c0 .6-.1 1.1-.1 1.7-1.6 3.1 2.5 2.4 3.1 5.1.7 3.4.0 6.1-.3 9.4-.1.5-.3 1-.4 1.5-1.5 4.7-3.7 6.7-3.7 6.7-.4.4-1.4 1.4-2.8 2.2-.4.3-.9.5-1.4.7-7.7 2.4-11.1-6.4-12.8-12-.2-.6-.3-1.2-.4-1.9-.4-2.5-.4-5.2 1-6.7.3-.3.7-.6 1-.8s.6-.5.7-1c-2.6-8.3-.6-15.8.4-23.6.1-.6.2-1.1.3-1.7.6-3.8.5-4.8 2.1-8.4.6-1.3 2.4-6.8 7.4-11.8 8.6-8.7 15-8.2 20.3-8.5z" class="skin penis"/><g id="g7230" style="filter:url(#filter7234)" clip-path="url(#clipPath7238)"><path class="skin_highlight" id="path7046-2-3" d="m285.25131 445.25261c-18.07617-5.24173-37.63977 21.82-38.27216 42.22753-11.75451-42.23105 25.74136-59.45567 38.27216-42.22753z"/><path class="skin_shade" d="m290.8442 456.06616c-22.59474-2.35068-38.22764 29.48106-23.7125 62.50459 5.21232-.25982 21.65685-58.35313 23.7125-62.50459z" id="path7048-5-3"/><path d="m242.93087 508.02814c-.25578-11.85361-.73575-16.425 1.97329-17.66743 1.6768-4.19847 7.05377 20.44824-1.97329 17.66743z" id="path7134-52" class="skin_highlight"/></g></svg>