<svg viewBox="0 0 560 1e3"><path id="path22600" d="m246.32218 908.50664c1.18908.18104 2.39984.91814 2.55282 2.24337.91262 7.90594 1.66832 26.66011 2.15288 34.2356l-1.60868-.25628c-2.31495-26.72149-1.07371-11.78654-3.09702-36.22269z" class="shadow"/><path id="path22602" d="m246.68678 908.47349c1.18908.18104 2.03524.95129 2.18822 2.27652.91262 7.90594 1.70738 26.09761 2.19194 33.6731l-1.15555-.25628c-2.31495-26.72149-1.2013-11.25719-3.22461-35.69334z" class="shoe_accent"/><path id="path31362" d="m290.45898 569.04102c-.25924.0125-.48455.18209-.56836.42773-.0544.1613-.30193.47724-.8125.81055-.51055.33331-1.25263.68569-2.18164 1.03125-1.85802.69111-4.46132 1.35806-7.54687 1.94922-6.1711 1.18231-14.28629 2.07493-22.4707 2.42382-8.18441.3489-16.44416.15257-22.89063-.82617-3.22323-.48937-5.99401-1.17809-8.05273-2.0664-2.05873-.88832-3.36019-1.96788-3.82227-3.13868-.26243-.66341-1.25113-.45301-1.2207.25977 1.13951 26.15221 9.18746 60.51811 8.38476 111.74219-1.12759 71.95721-14.66117 164.13395-20.38281 203.44726-1.0121 6.95407-3.44347 15.41488-5.07422 23.72852-1.15047 5.86515-1.72935 11.28036-2.27734 15.35742-.274 2.03853-.54175 3.74462-.85742 4.97852-.31568 1.23389-.74877 1.93798-.94532 2.05468-3.4101 2.02487-7.36391 3.46597-11.04492 5.53125-3.68101 2.06529-7.09857 4.79-9.30078 9.35938-.0681.14123-.0813.3027-.0371.45312.48855 1.66993 1.98825 2.91792 3.90235 3.89453 5.38685 2.74847 14.32117 2.19381 18.21289 1.55274 2.90529-.47858 8.69944-.66033 14.09375-3.91602 7.00424-4.22734 8.95777-7.65275 11.20117-12.64843 2.2434-4.99569 4.86505-11.62384 13.50781-22.78321 1.72287-2.22454 3.78568-3.36382 5.33594-3.56445.77513-.10032 1.40545.0277 1.83789.30859.43243.28092.71513.70593.79687 1.41407.90473 7.83763 1.76988 25.98035 2.25575 33.57628.0261.39719.40811.67191.79297.57032l3.30859-.875c.29193-.0777.48824-.35089.46875-.65235.0.0-1.22467-18.14315-.15223-32.96496.49132-6.79032 4.00296-12.76697 3.77539-18.43945-.2414-6.01729-4.75216-12.00647-9.89258-17.74219-.89089-1.2838-1.36115-3.73194-1.30664-7.0957.0546-3.36729.59808-7.63894 1.53125-12.59766 1.86636-9.91743 5.28678-22.58976 9.41016-36.46679 8.24676-27.75407 19.30413-60.33237 26.37695-85.55469 6.45239-23.00975 2.30182-61.4755 1.42383-99.01758-.40664-17.3876.2929-26.08209 1.35352-34.06836 1.06062-7.98627 2.4905-15.29381 3.52929-29.77734.0262-.37808-.28358-.69423-.66211-.67578zm.0312.63086c-2.07384 28.91476-5.69907 29.08711-4.88476 63.90624.87883 37.57802 4.98289 76.06873-1.40039 98.83204-14.12955 50.38722-44.2275 130.31516-35.91992 142.25195 5.13548 5.72418 9.54747 11.6706 9.77734 17.40039.21588 5.38109-3.26888 11.39578-3.77344 18.36914-1.07745 14.89157.0859 33.11719.0859 33.11719l-3.30859.875c-.48456-7.57549-1.2788-25.76789-2.19141-33.67383-.39793-3.44723-5.48607-3.1384-9.09961 1.52734-17.35871 22.41323-10.68983 26.92114-24.53516 35.27735-5.23133 3.15732-10.8649 3.33683-13.87109 3.83203-3.78557.62359-12.73089 1.10551-17.82226-1.49219-1.8355-.93651-3.17064-2.10158-3.58204-3.50781 4.26879-8.85735 13.1374-10.48821 20.09766-14.6211 2.06989-1.22906 2.09087-11.14994 4.37891-22.81445 1.62342-8.27629 4.05778-16.7337 5.08007-23.75781 5.72146-39.31205 19.25998-131.50128 20.38868-203.5293.8038-51.29472-7.24987-85.73291-8.38477-111.77929 4.46182 11.3052 66.89671 5.91667 68.96484-.21289z" class="shadow"/><path id="path22604" d="m200.06236 931.7654c-6.96026 4.13288-15.82828 5.76479-20.09707 14.62214.4114 1.40623 1.74601 2.57083 3.58151 3.50734 5.09137 2.5977 14.0366 2.11458 17.82217 1.49099 3.00619-.4952 8.63916-.67381 13.87049-3.83113 13.84533-8.35621 7.17702-12.86501 24.53573-35.27824 3.61354-4.66574 8.70188-4.97372 9.09981-1.52649.91261 7.90594 1.70738 26.09761 2.19194 33.6731l3.30806-.875s-1.16305-18.22522-.0856-33.11679c.50456-6.97336 3.98896-12.98772 3.77308-18.36881-.22987-5.72979-4.64127-11.67581-9.77675-17.39999-8.30758-11.93679 21.78938-91.86429 35.91893-142.25151 6.38328-22.76331 2.28049-61.2543 1.40166-98.83232-.81431-34.81914 2.8107-34.99293 4.88454-63.90769-2.06813 6.12957-64.50304 11.51902-68.96486.21382 1.1349 26.04638 9.18802 60.48405 8.38422 111.77877-1.1287 72.02802-14.66744 164.21857-20.3889 203.53062-1.02229 7.02411-3.45739 15.47985-5.08081 23.75614-2.28804 11.66451-2.30826 21.58599-4.37815 22.81505z" class="shoe_primary"/><path id="path31369" d="m394.0957 564.24219c-.31487-.003-.61085.14994-.79101.4082-.40709.58578-1.71759 1.50163-3.6836 2.3418-1.966.84016-4.57223 1.66854-7.59765 2.42578-6.05085 1.51448-13.78219 2.75362-21.5918 3.40234-7.80961.64872-15.70563.70396-22.07226-.11914-6.36665-.8231-11.116-2.63226-12.75391-5.08984-.56321-.84299-1.87861-.34195-1.73828.66211 1.26328 9.04782 6.39991 30.45131 12.9707 56.76562 5.44756 21.81611 15.09472 46.08184 21.0625 69.98438 9.75197 39.05913 15.17544 76.16433 16.74609 90.89844 3.4087 31.97626 1.63844 53.93246.16993 81.04101-.90542 16.7138.76223 29.08101-.77149 43.98047-41e-5.004 42e-5.008.0.0117-1.38365 10.19728-2.82078 17.20038-3.39062 21.02148-1.18358 7.93645-.65881 14.75024 2.78515 18.64844 1.19497 1.35258 2.75838 2.30209 4.63466 2.75442 7.87756 1.13788 21.25888.25681 26.42368-1.21016.99294-.29679 1.8063-.7687 2.44166-1.41145 1.21509-1.22923 1.67238-2.93615 1.78516-4.80078.11278-1.86463-.10753-3.95014-.37891-6.1543-.30178-2.45111-.83091-3.29944-1.36328-4.48632-.53237-1.18689-1.18305-2.95041-1.9668-7.83399-.70362-4.38443-1.41449-12.12978-2.13867-21.73047v-.006c-1.91693-27.14914 8.51963-63.39265 9.4961-93.2207 2.13167-16.87998 8.57462-55.18451 5.98828-96.59375-1.91901-30.7248-13.27534-58.3811-17.96875-85.58594-4.75942-27.58759-5.17313-50.06362-5.35156-65.16211-.007-.51856-.42673-.93666-.94532-.9414zm-.008.95312c.17851 15.1047.59262 37.64845 5.36523 65.3125 4.71862 27.35098 16.0485 54.95659 17.95508 85.48242 2.57791 41.27431-3.84335 79.47749-5.98242 96.41602-.95286 29.6467-11.44181 65.93638-9.5 93.41211.72499 9.61237 1.43283 17.35542 2.14844 21.81445 1.58272 9.86204 2.7441 7.57531 3.32422 12.28711 1.0795 8.76786 1.17775 15.14811-15.87891 9.58399-17.41535 8.86966-22.2513-1.76684-19.92187-17.38672.56107-3.76225 2.00693-10.81301 3.39648-21.06446 1.54853-15.02774-.12543-27.41003.77539-44.03906 1.46778-27.09496 3.24344-49.13661-.17383-81.19336-1.57728-14.7962-7.00332-51.91118-16.76953-91.02734-5.98948-23.98943-15.6389-48.26422-21.0625-69.98438-6.56958-26.30947-11.70866-47.76893-12.95117-56.66797 7.82913 11.74713 64.27567 4.24908 69.27539-2.94531z" class="shadow"/><path id="path22630" d="m394.08836 565.19469c.17851 15.1047.59173 37.64942 5.36435 65.31347 4.71861 27.35098 16.0498 54.95607 17.95638 85.4819 2.57791 41.27431-3.84491 79.47843-5.98398 96.41696-.95286 29.6467-11.44148 65.93537-9.49967 93.4111.72499 9.61237 1.43369 17.35591 2.1493 21.81494 1.58272 9.86204 2.74295 7.57579 3.32307 12.28759 1.0795 8.76786 1.17904 15.1471-15.87762 9.58298-17.41535 8.86966-22.25112-1.76637-19.92169-17.38625.56107-3.76225 2.00609-10.81269 3.39564-21.06414 1.54853-15.02774-.12499-27.40971.77583-44.03874 1.46778-27.09496 3.24217-49.13831-.1751-81.19506-1.57728-14.7962-7.00328-51.90968-16.76949-91.02584-5.98948-23.98943-15.63901-48.2642-21.06261-69.98436-6.56958-26.30947-11.70723-47.77031-12.94974-56.66934 7.82913 11.74713 64.27561 4.24918 69.27533-2.94521z" class="shoe_primary"/><g id="g32627"><path class="shoe_primary_highlight" id="path19415-5" d="m382.09634 675.32776c-6.01997-3.87458 7.54578 19.41338 10.25733 48.16892 3.2387 34.34581.867 80.765 3.75869 76.04009 10.43579-17.05161 8.05545-110.00334-14.01602-124.20901z"/><path class="shoe_primary_highlight" id="path32603" d="m260.5565 685.75974c-6.01997-13.42052-4.65182 4.91769-1.94027 33.67323 3.2387 34.34581 23.76062 103.05498 24.74613 97.6038 2.26104-12.50656-7.51382-48.05253-15.73308-82.69109-4.62035-19.47161-3.20705-39.96792-7.07278-48.58594z" transform="matrix(-1,0,0,1,517.65593,0)"/></g></svg>