<svg viewBox="0 0 560 1e3"><path id="path4126" class="shadow head" d="m330.67904 147.05787c4.02576-14.5334 2.40774-9.56522 4.60772-24.96522 4.35294-45.564708-25.44467-52.371855-51.32169-49.098532-28.88715 12.369092-23.56049 37.717112-21.60625 58.861762 6.66296 29.71585 21.76686 38.584 40.69493 44.03319 8.24106-6.80961 18.66057-9.28422 27.62529-28.8312z"/><path id="path1765" class="shadow" d="m343.08002 119.80575c-.0148-3.57294-1.58403-7.42219-4.46245-7.82314-1.68355-.26633-3.73785 2.64279-3.55482 2.7216 1.25161 7.30189-.14604 15.46037-2.20326 23.8321-.0848.0914.78297.54026 1.33132.26096 1.50417-.38333 2.54625-2.01017 3.23524-3.53238 2.95627-4.34895 6.29161-10.18092 5.65397-15.45914z"/><path d="m343.08002 119.80575c-.25152-2.99157-1.51987-7.22818-4.46245-7.82314-1.46275-.29575-3.55482 2.7216-3.55482 2.7216l-2.20326 23.8321s.90175.40229 1.33132.26096c1.5167-.49902 2.40603-2.1679 3.23524-3.53238 2.84953-4.68892 6.11367-9.99155 5.65397-15.45914z" class="skin head" id="path931-2"/><path d="m330.67904 147.05787c3.72059-14.62059 2.40772-9.56522 4.60772-24.96522 4.35294-45.564708-27.66288-52.98142-51.35294-49.098532-28.54575 12.837088-23.30441 38.335292-21.575 58.861762 6.84118 29.3 22.26258 37.42731 40.69493 44.03319 8.22825-6.89931 18.52529-10.2312 27.62529-28.8312z" class="skin head" id="path931"/><g style="display:inline;opacity:1" id="g6985"/><path id="path836-0-8" class="shadow" d="m293.0317 130.0354c-.55104 6.21615-1.72058 11.7593-4.0313 17.16839 1.63729-4.8559 3.03877-11.72175 4.0313-17.16839z"/><path id="path836-0-8-3" class="shadow" d="m293.97009 148.42393c-1.8413 1.05492-2.944-.38614-4.94972-1.2813 1.54163 1.40085 3.21214 2.54072 4.94972 1.2813z"/></svg>