<svg viewBox="0 0 560 1e3"><path d="m303.29252 159.74962c-.77397-.41783-1.94426-.53294-2.58543-.49177-1.74342.11193-2.32053-.0884-3.77868.18949-.25799.0491-.47638-.0203-.72681.0217-.17097.0286-.37606-.0325-.54336-.007-.56454.0858-1.03368.29437-1.55315.34696-.24658.025-.53089.16145-.76652.17978-.24098.0187-.49192.077-.70508.16146-.92748.36784-1.16576.90482-1.58849 1.17427-.28593.18224-.70137.0459-.85089.30787-.10881.1907-.0885.5853.12207.64731.40306.11869.71966-.81474.8675-.91454 3.35817-2.26716 6.47154-1.47489 10.53018-1.64788 1.22653-.0523.81628 1.10278 1.32302.92292.29101-.10322.21263-.58462.25566-.89039v-2e-5z" class="shadow" id="path1783"/><path id="path2519" class="shadow" d="m299.38902 164.92365c-2.22683.77196-3.28766.91329-5.47579.78419 2.47755 1.53907 4.80113 1.31901 5.47579-.78419z"/><path id="path2521" class="shadow" d="m300.31348 155.04502c-2.16558-.9782-2.33357-1.18382-4.62348-.0559 1.2946-.59913 2.52689-.84476 4.62348.0559z"/><path d="m294.63515 155.12049c-1.56921-.29313-2.09801-.19745-3.08382 1.04091 1.26304-1.19282 1.42246-.95353 3.08382-1.04091z" class="shadow" id="path2523"/><path id="XMLID_511_-1-8-0-3-9-0-9-5-8-9" class="highlight2" d="m301.64154 159.84252c-2.60544-.21224-3.67604.1428-4.86465.77437.59706.64599 3.22498-.0294 4.86465-.77437z"/><path id="XMLID_511_-1-8-0-3-9-0-9-5-8-4-85" class="highlight2" d="m294.47452 160.84256c-1.88322-.56039-2.25362.29676-3.51638.91278 2.02472-.35251 2.05407-.34279 3.51638-.91278z"/><path id="XMLID_511_-1-8-0-3-9-0-9-5-8-4-4-6" class="highlight2" d="m294.87562 155.6052c-.78326.45698-1.4199.7394-2.39837-.0329.33843-.28241 1.31962-.35855 2.39837.0329z"/></svg>