<svg viewBox="0 0 560 1e3"><g style="fill-opacity:1;fill:#c0c6c7;stroke-opacity:1;stroke:none" transform="matrix(1.0081159,0,0,1.0081159,-2.6203467,-1.6676415)" id="g231240"/><g data-transform="boob_left" id="g231250"><path d="m319.37878 278.16865c0 2.23042-2.50213 4.75326-4.75327 4.75326-2.25113.0-4.75326-2.52284-4.75326-4.75326.0-2.23043 2.50213-4.75327 4.75326-4.75327 2.25114.0 4.75327 2.52284 4.75327 4.75327z" id="path231242" class="shadow"/><path d="m290.46673 283.29561c-2.24072.0-4.87686-2.52621-4.75326-4.75327.13779-2.48097 3.60855-4.68812 5.84927-4.68812-2.04675 3.6048-2.32277 5.4445-1.09577 9.44139z" id="path231244" class="shadow"/><path class="steel_piercing" id="path231246" d="m318.94667 278.16865c0 2.02764-2.27465 4.32115-4.32116 4.32115-2.0465.0-4.32115-2.29351-4.32115-4.32115.0-2.02767 2.27465-4.32115 4.32115-4.32115 2.04651.0 4.32116 2.29348 4.32116 4.32115z"/><path class="steel_piercing" id="path231248" d="m290.4634 282.8635c-2.03701.0-4.42757-2.29623-4.32115-4.32116.11934-2.27092 3.29098-4.32115 5.32799-4.32115-2.13992 3.28208-2.18688 4.98992-1.00672 8.64231z"/></g><g data-transform="boob_right" id="g231260"><path class="shadow" id="path231252" d="m171.98916 292.68977c-.58264 2.17445-3.65854 3.98635-5.83299 3.40371-2.17441-.58264-3.93227-3.68973-3.34963-5.86418.58264-2.17444 3.65854-3.98635 5.83296-3.40371 2.17444.58264 3.93231 3.68974 3.34966 5.86418z"/><path class="shadow" id="path231254" d="m152.39066 292.04017c-.74784-1.17207-1.92613-2.52094-1.61026-3.6997.58532-2.18448 3.66861-3.98368 5.83296-3.40374-2.94847 1.98865-3.33062 2.85812-4.2227 7.10344z"/><path d="m171.57175 292.57793c-.52967 1.97675-3.32592 3.624-5.3027 3.0943-1.97677-.52967-3.5748-3.35434-3.04513-5.33109.5297-1.97675 3.32595-3.62396 5.30273-3.09429 1.97675.52969 3.57477 3.35433 3.0451 5.33108z" id="path231256" class="steel_piercing"/><path d="m152.42964 291.84262c-.67986-1.06552-1.71194-2.43341-1.42482-3.50501.53214-1.98589 3.33512-3.6215 5.30273-3.0943-2.28727 2.21552-3.3452 2.87946-3.87791 6.59931z" id="path231258" class="steel_piercing"/></g></svg>