<svg viewBox="0 0 560 1e3"><defs><clipPath clipPathUnits="userSpaceOnUse" id="clipPathTorsoUnnatural"><path style="display:inline;fill-opacity:1;fill:#0ff;opacity:1" d="m330.55078 146.24219-33.94726 3.49414c-.60023 11.74644 4.71263 22.22405 4.14257 32.1582-3.83498 2.97182-5.98164 3.47574-13.82226 5.20313-.50811.12713-.99038.25932-1.45703.39453-3.72264.82253-9.04126 2.01096-14.32032 3.34179-8.65971 10.94361-15.77788 17.65645-24.83789 40.22852-7.97663 19.22419-2.76622 39.20128 6.8418 56.00977-1.06764 11.32585-1.52592 26.55771 1 35.50195-11.37059 21.52353-15.89766 23.525-18.09766 43.625-1.1 10.1-2.23134 20.37109-6.00781 40.87109 1.79918 21.68192 24.06434 28.08621 33.55274 33.19727 14.43169 10.04215 15.75568 13.80686 22.99414 21.73047 2.40278 1.2769 6.48148.50653 7.11523-.33399l1.04492-.0117c1.31243 1.17872 7.86741 1.71406 11.33008.17774 1.25908-5.51105 3.06526-22.40357 25.5332-37.0293 9.99479-6.9207 28.66489-25.38486 47.28125-34.05664-9.1-20.7-12.62221-28.06668-19.58398-39.49609-3.8841-8.49646-20.35167-24.94928-20.57812-24.78321.17394-.53763-12.86413-13.70783-12.93165-15.85937 2.56898-6.32141 6.07277-31.48998 8.07422-32.87695 17.10876-11.85604 23.08422-25.51867 27.05078-41.16602-.3269-2.17434-.47181-3.26841-.6582-5.75-1.66961-10.3676-2.48045-23.52968-5.33008-34.10742.025-10.96207 3.83399-17.95313 3.83399-17.95313-3.25954-.78952-9.49632-1.47902-12.42774-1.80664.0206-.0319.042-.0618.0625-.0937-7.39171-1.56131-16.05124-2.24254-15.85742-30.60937z" id="path13423"/></clipPath><clipPath clipPathUnits="userSpaceOnUse" id="clipPathTorsoHourglass"><path style="display:inline;fill-opacity:1;fill:#f0f;opacity:1" d="m330.55078 146.24219-33.94726 3.49414c-.60023 11.74644 4.71263 22.22405 4.14257 32.1582-3.83498 2.97182-5.98164 3.47574-13.82226 5.20313-.56276.1408-1.09742.28682-1.60938.4375-3.67844.81605-7.62914 1.65042-14.16797 3.29882-8.65971 10.94361-15.77788 17.65645-24.83789 40.22852-5.87551 18.9358-2.9645 38.67948 2.8418 56.00977-1.06764 11.32585-1.52592 26.55771 1 35.50195-11.37059 21.52353-11.89766 23.525-14.09766 43.625-1.1 10.1-2.23134 20.37109-6.00781 40.87109 1.79918 21.68192 24.06434 28.08621 33.55274 33.19727 14.43169 10.04215 15.75568 13.80686 22.99414 21.73047 1.37693.26708 4.09368 1.61095 7.06445-.26758l1.11133-.0781c1.17404 1.57274 8.90177 1.53055 11.31445.17774 1.25908-5.51105 3.06526-22.40357 25.5332-37.0293 9.99479-6.9207 28.66489-25.38486 47.28125-34.05664-9.1-20.7-12.62221-28.06668-19.58398-39.49609-3.8841-8.49646-20.35168-24.94928-20.57812-24.78321.17394-.53763-7.38366-13.70783-7.45118-15.85937 2.56898-6.32141 6.52259-31.00027 8.07422-32.87695 3.11188-3.76379 5.69391-7.22683 7.88672-10.51954 7.0161-10.53536 10.04592-19.32698 13.68359-30.64648-.3269-2.17434-.47181-3.26841-.6582-5.75-1.66961-10.3676-2.48045-23.52968-5.33008-34.10742.025-10.96207 3.83399-17.95313 3.83399-17.95313-4.4617-1.08069-8.62379-1.33294-12.38086-1.87695.005-.008.0105-.0154.0156-.0234-7.39171-1.56131-16.05124-2.24254-15.85742-30.60937z" id="path13449"/></clipPath><clipPath clipPathUnits="userSpaceOnUse" id="clipPathTorsoNormal"><path style="display:inline;fill-opacity:1;fill:#f9ff00;opacity:1" d="m330.55078 146.24219-33.94726 3.49414c-.60023 11.74644 4.71263 22.22405 4.14257 32.1582-3.83498 2.97182-5.98164 3.47574-13.82226 5.20313-.58083.14532-1.12952.29729-1.65625.45312-3.72076.82535-7.55904 1.62893-14.1211 3.2832-8.65971 10.94361-15.77788 17.65645-24.83789 40.22852-5.87551 18.9358-2.9645 38.67948 2.8418 56.00977-1.06764 11.32585-1.52592 26.55771 1 35.50195-11.37059 21.52353-11.89766 23.525-14.09766 43.625-1.1 10.1-2.23134 20.37109-6.00781 40.87109 1.79918 21.68192 24.06434 28.08621 33.55274 33.19727 14.43169 10.04215 15.75568 13.80686 22.99414 21.73047.78119.55861 4.78693 1.49428 7.05664-.26758l1.14258-.0781c1.51181 1.59807 9.57688 1.45961 11.29101.17774 1.25908-5.51105 3.06526-22.40357 25.5332-37.0293 9.99479-6.9207 28.66489-25.38486 47.28125-34.05664-9.1-20.7-12.62221-28.06668-19.58398-39.49609-23.58113-57.47054-9.98057-57.2743 1.61523-114.68555-.3269-2.17434-.47181-3.26841-.6582-5.75-1.66961-10.3676-2.48045-23.52968-5.33008-34.10742.025-10.96207 3.83399-17.95313 3.83399-17.95313-4.46045-1.0804-8.62863-1.32705-12.38672-1.86914.007-.0108.0146-.0205.0215-.0312-7.39171-1.56131-16.05124-2.24254-15.85742-30.60937z" id="path13552"/></clipPath><clipPath clipPathUnits="userSpaceOnUse" id="clipPath65823"><path id="path65825" class="shadow torso" d="m131.74321 573.69194 315.75864-8.79774c13.0539 8.0333 2.38259-383.9505 7.79017-388.03777l-85.55784 2.24903c-15.5475-3.91931-39.04027 2.7738-39.27246-32.77588l-33.94646 3.49567c-.60044 11.74636 4.52731 21.84761 4.14186 32.15688-5.80032 4.30093-13.259 4.44692-29.51965 8.86728l-133.98159-.0572z"/></clipPath></defs><g select_clip_options="clip-path=url(#clipPathTorsoUnnatural) url(#clipPathTorsoHourglass) url(#clipPathTorsoNormal)" select_clip="torso" id="g13919"><g data-transform="boob_outfit" id="g13917"><path d="m267.18682 246.26798c-1.25016 2.79276-2.85619 5.01348-4.21491 7.08356-1.54586 2.35521-3.44377 4.20982-5.77451 5.94098-2.13304 1.58433-5.0449 2.61305-8.00749 2.89522-3.60085.34296-4.79517-.0807-6.30541-.47724-1.23955-.49904-1.13007-.35306-2.48367-.97543.39175.24917 1.50941.98609 2.82156 1.54769 1.29502.55427 4.21401 1.03848 7.3804.45875 15.08973-2.95825 14.98255-5.88058 25.10428-6.38889 12.16551-.61096 24.6808 6.23782 40.38833 5.59022 4.6936-.19351 11.92665-1.40738 16.4115-5.04901 7.89687-6.41215 17.45169-5.54373 25.05675-5.65541 10.96187-.16094 23.93528-3.38361 23.93528-3.38361l-1.13389-13.19042c-8.5455 1.65405-37.77378 5.86971-40.29289-1.4902.50171 3.45038-.25917 8.29775-1.1203 11.63787-1.98507 7.69912-6.81224 11.7256-11.38079 13.47578-7.77072 2.97693-16.40989 3.73723-24.30767-.18178-5.53996-2.74905-11.0067-6.71455-14.71445-13.08221-12.93598 5.47559-13.63167 2.98446-21.36212 1.24417z" id="path13913" style="fill-opacity:.97647059;fill:#fffffb"/><path class="shadow" id="path13915" d="m340.22656 233.19727c.017.11682-.13376-.0612-.10742.0566.002.01.004.0216.006.0312 2.78586 7.19936 31.73999 3.02419 40.24023 1.3789l1.13282 13.19141s-12.97173 3.22187-23.9336 3.38281c-7.60506.11168-17.15977-.7559-25.05664 5.65625-4.48485 3.64163-11.71851 4.85532-16.41211 5.04883-15.70753.6476-28.22316-6.2008-40.38867-5.58984-10.12173.50831-10.01378 3.43042-25.10351 6.38867-3.16639.57973-6.08584.0953-7.38086-.45899-1.31215-.5616-2.43052-1.29966-2.82227-1.54882.39175.24916 1.20553.9274 2.46875 1.59179 1.51599.79734 4.89056 1.27455 8.05078.66211 15.0961-2.92558 14.60288-5.81395 24.72461-6.32226 12.16551-.61096 24.65575 6.10072 40.36328 5.45312 4.6936-.19351 12.14015-1.33298 16.625-4.97461 7.89687-6.41215 17.59026-5.57387 25.19531-5.68555 10.96187-.16094 23.93555-3.38281 23.93555-3.38281l-1.19922-13.65429c-5.97116 1.15576-22.02258 3.58139-31.95703 2.48046-4.28301-.47464-7.62198-1.4879-8.38086-3.70507zm-11.42773 24.81835c-.35341.15345-.71543.32075-1.05078.44922.34878-.13361.69941-.28654 1.05078-.44922z"/><path d="m380.36523 234.66406c-6.35548 1.23016-24.14467 3.87279-33.88476 2.1211-2.09521.0706-4.03838.0774-6.13634.11401-.0504.99941-.13108 2.0622-.27087 3.07153 9.87577-.16505 19.57928-.66583 29.41697-1.80273 3.67355-.42013 7.36733-.92276 11.04102-1.57617zm.42579 4.95899c-3.66677.64737-7.33129 1.14426-10.95313 1.54883-10.16447 1.17162-19.92266 1.65357-30.06453 1.80993-.13134.61971-.26035 1.08105-.40235 1.63182-.10865.42141-.36092 1.0258-.48609 1.42543 10.47582-.1431 20.73515-.6485 31.30063-1.86328 3.57209-.38968 7.20766-.88257 10.86523-1.52344zm.51953 6.06054c-3.64649.63401-7.25308 1.12065-10.77735 1.4961-11.11924 1.2753-22.18429 1.78021-33.13476 1.90039-.54101 1.1213-1.14941 2.13716-1.81446 3.04883 2.58707-.0183 5.18385-.064 7.78711-.12891 4.91924-.94659 9.87137-.69825 14.19336-.76172 10.96187-.16094 23.9336-3.38281 23.9336-3.38281z" id="path28733" class="bra_primary"/><path class="bra_accent" id="path24736-63-2-9" d="m283.17483 248.65441c.063-.002.12582-.001.18815.002 1.70568-.0308 2.49446 1.09399 2.47663 1.78756-.019.75081-.40421 1.16891-.96866 1.43757-1.4405.68562-3.83117.53624-4.90819.48783 2.21742.82993 7.0972 3.00844 7.51566 3.38788.16943.1536.70062 1.0524 1.04868 1.57737-1.22829-.90346-2.53351-1.69885-4.06339-2.17848-1.78328-.59984-3.82342-.64906-5.33711-1.08876-1.13954-.45332-2.28615-.99902-2.85617-1.49609-.15224.0912-.18673.12256-.50183.0543-1.50112.88258-2.74811 1.61777-4.57872 2.39657-1.67777.71379-3.58557 1.75952-5.42145 2.70156l.25011-1.73263 5.48192-2.83175c-.728.0152-1.30293.29655-2.23827-.0505-2.87031-1.3303-2.88521-2.13899-2.6273-2.89788.21683-.58559 1.19836-.77794 2.05835-.76629.0349-.20761 1.30913-.344 2.42418-.22137 1.89502.20822 2.81121 1.61719 4.1456 2.53637.49266-.1021.70517-.10177 1.10664.10904 2.50046-1.08099 4.84723-3.17565 6.80518-3.21481zm.17127.29403c-2.39243.0382-3.15734 1.60843-4.65827 2.41883 1.62776-.3422 3.85744.17861 5.50863.36582.63294-.0716 1.30544-.24595 1.28575-1.27694-.17518-1.31891-1.11287-1.47829-2.13611-1.50771zm-14.68348.6411c-1.06313.24151-1.25605 1.97542-1.0136 1.91566 1.86927-.1302 3.79396.10144 5.6221.19338-1.57324-.55984-2.94898-1.58362-4.6085-2.10904z"/></g></g><g id="g13945" clip-path="url(#clipPath65823)"><g id="g13943" data-transform="boob_outfit" style="display:inline"><path class="bra_primary bra_strap2" id="path13931" d="m353.61237 165.06559c-2.10894 3.79407-9.10385 20.33869-13.18907 32.28314-4.16639 12.18179-7.63982 23.89727-10.44515 25.29682 2.23581-.22881 2.76187.004 5.07418 1.0567-2.44218-3.0761 18.26487-53.61637 20.44435-58.49828z"/><path d="m358.66252 164.3578c-7.16956 10.03289-22.93809 55.19462-28.75682 58.30085 2.4756-.30368 3.22064.16488 5.10386 1.03894-1.01545-.8565.70811-5.49264 3.29068-11.63815 5.93571-14.12469 19.57902-42.09959 21.75513-47.62454z" id="path13933" class="bra_primary bra_strap1"/><path d="m348.83335 164.7452c-1.53415 7.03338-6.89123 25.48341-10.65349 37.33074-3.38411 10.65653-5.86875 19.32024-8.25792 20.56699 3.01948-.28238 3.59503.46766 5.12628 1.0769-3.05132-3.8234 10.83523-32.96456 15.09143-58.86015z" id="path13935" class="bra_primary bra_strap3"/><path d="m286.34883 180.48936c-4.71063 5.73681-34.26733 34.23203-45.46794 48.51322.44514-.18802 1.59226-.83055 2.95799-1.78639 1.46221-2.77712 4.87857-6.63259 7.04067-9.27033 15.47964-14.46365 27.94408-27.59537 36.11615-36.21327z" id="path13937" class="bra_primary bra_strap2"/><path class="bra_primary bra_strap1" id="path13939" d="m284.80218 177.84005c-4.28914 6.59036-34.76869 39.42286-44.03566 51.23926 1.02367-.44221 1.96865-1.38442 3.11254-1.82663 1.88939-3.3695 4.5265-6.86683 7.73177-10.01545 12.74541-12.52009 27.08516-28.31829 34.95114-40.0446z"/><path class="bra_primary bra_strap3" id="path13941" d="m288.57955 183.03777c-7.62123 7.212-33.19454 26.21231-47.55981 45.84421l2.87854-1.67001c1.74222-3.22962 4.54219-6.87314 8.99199-11.16225 16.72778-14.84427 21.5115-19.30199 36.69177-33.13333z"/></g></g><g data-transform="boob_outfit" id="g13929"><path d="m330.13914 222.55492c-16.24226 4.13328-23.31139 8.67215-31.70784 13.96119-3.8588 3.10763-4.63988 3.39807-9.93668 8.51548 5.17639 9.92717 17.66824 16.39105 26.80495 16.08612 18.33877-.61204 23.25091-10.93264 24.46893-18.28546 1.67709-10.12407-.30674-13.8948-4.7967-19.21268-2.07235-1.00404-2.91573-1.20952-4.83266-1.06465z" id="path13921" style="fill-opacity:.97647059;fill:#fffffb"/><path id="path13923" d="m267.29864 246.26464c-4.6302 9.12984-9.74946 16.26764-20.38735 16.26744-4.08881-8e-5-7.56013-2.1281-10.02502-4.38557-5.89313-5.39722-7.19273-14.4368-6.63506-18.00185.16825-1.07558 1.08684-2.45839 2.30661-4.04501.90292-1.17449 2.08805-2.33682 3.35911-3.25219 7.49742 11.18928 17.92267 11.62411 31.38171 13.41718z" style="fill-opacity:.97647059;fill:#fffffb"/><path class="shadow" id="path13925" d="m236.00977 232.75391c-1.28668.79037-2.70451 1.95246-3.60743 3.12695-1.21977 1.58662-2.20089 3.09434-2.36914 4.16992-.55767 3.56505.77289 12.88598 6.66602 18.2832 2.46489 2.25747 6.12408 4.19719 10.21289 4.19727-4.08881-8e-5-7.5605-2.1273-10.02539-4.38477-5.89313-5.39722-7.19244-14.4369-6.63477-18.00195.16825-1.07558 1.08687-2.4583 2.30664-4.04492.90292-1.17449 2.08637-2.33658 3.35743-3.25195 1.84754 2.7573 3.82194 4.68566 5.95898 6.10156-2.0719-1.45879-4.00588-3.42038-5.86523-6.19531z"/><path class="shadow" id="path13927" d="m334.97266 223.61914c2.70554 3.20442 4.49205 5.85655 5.125 9.66602.0479-.0272.11478-.0583.14648-.082-.63437-3.80427-2.56823-6.38227-5.27148-9.58398z"/><path d="m331.41211 222.51953c-.38102-.0146-.79421-.001-1.27344.0352-.14502.0369-.27635.0744-.41992.11133-1.49631.38531-2.90443.7753-4.25195 1.16796-.82342.23995-1.62158.48176-2.39453.72461-.0155.005-.0314.009-.0469.0137-.77349.24339-1.52321.48987-2.25.73632-2.10514.71384-4.03573 1.44009-5.8125 2.18164-.79485.33174-1.55797.66618-2.30078 1.00391-.0935.0425-.1846.0863-.27734.12891-.53327.24498-1.04627.49196-1.55665.74023-.9417.45774-1.85881.91931-2.73828 1.38867-.2713.14495-.53416.29336-.80078.43946-.60698.33227-1.19938.67135-1.78711 1.00976-.88904.51244-1.76979 1.03339-2.63476 1.56055-.33288.20271-.67605.4044-1.00781.60937-1.13507.70182-2.26973 1.41509-3.42774 2.14453-1.55698 1.2539-2.52055 1.98939-3.57422 2.82813-1.28111 1.01979-2.81727 2.3436-4.98828 4.39453-35e-5 33e-5-.002-33e-5-.002.0-.46847.44257-.81241.75131-1.37305 1.29297.30756.58982.64889 1.16384 1.00586 1.72852.0258.0408.0462.0844.0723.125.002-39e-5.004-.002.006-.002 1.87326 2.92536 4.37454 5.4998 7.19922 7.62696.0182.0137.0364.0273.0547.041 2.4236 1.81754 5.07696 3.31022 7.76758 4.4082.50323.20536.61573.24463.51758.18164.7741.30192 1.54987.58163 2.32422.81641 1.04662-.39785 2.10215-.81786 3.16601-1.26367 7.93105-3.41348 15.40581-8.59103 22.01758-15.47852 2.87271-3.18489 5.35401-6.43311 7.49805-9.70312.0116.0282.0216.0517.0332.0801-.0175-.11916-.0467-.22684-.0664-.34375-.0469-.2782-.0988-.55181-.1582-.81836-.0419-.18865-.0867-.37526-.13476-.5586-.0566-.2154-.12062-.42597-.18555-.63476-.0948-.30564-.19819-.60686-.31055-.90039-.037-.0965-.0706-.19565-.10937-.29102-.001.002-.003.004-.004.006-.91691-2.25451-2.34112-4.21242-4.21484-6.43164-.76905-.3726-1.35217-.60569-1.90039-.78125-.005-.001-.009-.002-.0137-.004-.55441-.17636-1.07365-.29253-1.64648-.31445zm1.39453.79492c.80186.19286 1.6394.66233 2.55469 1.63672-2.34437 4.23918-5.29545 8.43148-8.93945 12.44922-5.71934 5.97807-12.27026 10.50032-19.24219 13.51172-3.2854 1.38786-6.50442 2.48671-9.64649 3.37695-.94437-.72078-1.89742-1.51391-2.83203-2.36914 3.6593-.92746 7.42315-2.1492 11.25977-3.77539 6.63092-2.86844 12.85188-7.15776 18.2539-12.8125 3.50508-3.85531 6.34016-7.90659 8.5918-12.01758zm-3.63867.26367c-1.97063 3.32531-4.32938 6.58433-7.1582 9.6875-5.08473 5.33143-10.97766 9.38585-17.26758 12.11133-4.25006 1.80812-8.43819 3.11161-12.5 4.03516-.74252-.84802-1.44325-1.73076-2.05078-2.66406 4.34428-.89271 8.81863-2.21259 13.33203-4.14063 5.9487-2.58243 11.51206-6.40423 16.27929-11.41211 1.91245-2.09157 3.59013-4.2723 5.08594-6.50195 1.91159-.54341 3.28188-.87092 4.2793-1.11524zm-9.15235 2.68946c-.76759.96989-1.56444 1.92892-2.41992 2.86133-4.44993 4.68454-9.68331 8.27341-15.29101 10.71289-3.73918 1.60457-7.47882 2.7558-11.15821 3.59765 2.15089-1.82562 4.25283-3.45648 6.3086-4.95898 1.21227-.42711 2.42391-.88568 3.63086-1.40625 4.47506-1.95134 8.68309-4.67551 12.38281-8.125 2.39376-1.10772 4.5714-1.97191 6.54687-2.68164zm17.29297 1.39062c.48387.82189.99278 1.79692 1.5293 2.9375-2.26262 3.65334-4.94965 7.27829-8.14062 10.81055-6.33424 6.60468-13.52347 11.57874-21.15625 14.86719-1.91892.80597-3.80773 1.51654-5.67188 2.16211-.79864-.44816-1.88035-1.09022-3.17969-1.9336 2.52095-.79561 5.09064-1.72154 7.70899-2.82422 7.31293-3.15435 14.1919-7.90953 20.22851-14.21093 3.4724-3.83676 6.3455-7.80404 8.68164-11.8086zm3.0293 9.875c-1.77556 2.474-3.73265 4.93507-5.91992 7.36328-6.84932 7.12912-14.56687 12.48362-22.74805 16.01368 1.24914.17354 2.46642.24582 3.62891.20703.45726-.0153.90109-.0393 1.34179-.0664 6.93296-3.56108 13.4927-8.4263 19.43165-14.60351 1.36693-1.51926 2.63208-3.05155 3.84179-4.58789.235-1.59057.37816-3.02774.42383-4.32618zm-1.42578 8.80078c-.44053.51122-.86444 1.02386-1.32227 1.53321-4.79592 4.98532-9.97895 9.13444-15.42382 12.46484 2.55832-.52858 4.76315-1.29043 6.65039-2.22851 2.47927-1.84542 4.89983-3.85014 7.23632-6.05664 1.33721-1.85107 2.24701-3.80829 2.85938-5.7129z" id="path13921-1" class="bra_primary"/><path d="m235.91602 232.84766c-.21813.15709-.43246.32173-.64454.49218.8219 1.23438 1.72881 2.35514 2.70704 3.39258.0911.19245.16769.38644.26757.57813.68553 1.2661 1.61427 2.43696 2.77539 3.42187 1.22256 1.00674 2.56982 1.72865 3.94141 2.19922 1.6461.54817 3.28364.84058 4.89063.99805 3.17386 1.03235 6.75302 1.75904 10.80078 2.2207-1.62148.18312-3.25719.34039-4.92188.43359-3.37692.27772-7.37393.18157-11.63476-1.18945-1.61829-.54738-3.23733-1.42426-4.75391-2.66211-1.43476-1.22462-2.56778-2.64299-3.38867-4.16797-.74683-1.47532-1.28889-2.9303-1.6875-4.33984-.63141.59727-1.21458 1.23189-1.70899 1.875-.10561.13738-.19411.26418-.29492.39844.3809 1.07691.83818 2.18535 1.40039 3.32031.95627 1.78384 2.29551 3.45169 4.00391 4.91602 1.81061 1.46896 3.69946 2.49884 5.56445 3.12304 4.84167 1.51656 9.17438 1.66131 12.64063 1.33399 3.3441-.19051 6.55987-.58719 9.68359-1.0625-.53527.98624-1.09368 1.95497-1.69531 2.88281-2.53556.3428-5.14021.63041-7.84766.78711-3.55559.37694-8.22397.18357-13.64648-1.47852-2.11167-.70102-4.27038-1.88586-6.375-3.58593-1.98206-1.70402-3.52557-3.62135-4.61719-5.66407-.30415-.62438-.58079-1.23779-.83594-1.84179-.14044.3244-.24275.63243-.28711.91601-.15764 1.00777-.15997 2.46192.041 4.13867 1.08511 1.57438 2.41889 3.07219 4.02148 4.45313 2.39865 1.93118 4.82913 3.26905 7.1875 4.04687 6.00335 1.80763 11.00547 2.04764 14.65039 1.6211 1.93934-.1139 3.80285-.3042 5.63672-.51758-.79336 1.01113-1.62029 1.98369-2.5 2.88672-.98938.0883-1.97479.17943-2.99609.24023-3.73432.47618-9.07363.18764-15.6582-1.76562-2.60522-.85469-5.30518-2.34732-7.99805-4.50977-.36727-.31704-.71962-.64023-1.0625-.9668.6349 1.80228 1.51275 3.62336 2.66992 5.30469 1.87192 1.16863 3.72242 2.04588 5.52539 2.63477 6.94431 2.03404 12.47117 2.40449 16.28711 1.94726-.80179.62452-1.62134 1.22062-2.47656 1.75196 2.57582-.95372 4.7312-2.48412 6.625-4.42188.10359-.10569.21061-.20614.3125-.31445-.002 19e-5-.004-19e-5-.006.0 1.03297-1.09761 1.98084-2.33093 2.88086-3.65235.30014-.43959.59561-.88904.88476-1.3496.14008-.22368.28211-.44361.41993-.67188.0204-.0339.0421-.0656.0625-.0996-.002 27e-5-.004-27e-5-.006.0.88095-1.46644 1.72293-3.01592 2.54492-4.63672-1.26778-.1689-2.48324-.31969-3.69727-.47461-3.77913-.48224-7.31823-.95678-10.58008-1.70703-.0126-.003-.0245-.007-.0371-.01-.72193-.16665-1.43017-.34865-2.12696-.54688-.12817-.0365-.25353-.0776-.38086-.11523-.59913-.17724-1.1892-.36778-1.76953-.57422-.14127-.0503-.28171-.10216-.42187-.1543-.56007-.20836-1.11004-.43478-1.65235-.67578-.20232-.0899-.40561-.17862-.60547-.27344-.21684-.10289-.43449-.20356-.64843-.3125-.4202-.21393-.8332-.44288-1.24219-.68164-.20784-.12133-.41419-.24492-.61914-.37305-.40911-.25574-.81334-.5242-1.21094-.80859-.18295-.13088-.36245-.27094-.54297-.4082-.34324-.26097-.68312-.53128-1.01758-.81641-.20825-.17753-.41429-.3615-.61914-.54883-.31923-.29193-.63434-.59728-.94531-.91406-.44114-.44941-.87627-.91549-1.30078-1.41797-.28146-.33314-.55983-.67931-.83398-1.03711-.38285-.49965-.76219-1.01618-1.13086-1.5664zm4.0371 27.60742c2.00276 1.21014 4.35477 2.07612 6.95899 2.07617 1.04289 2e-5 2.01743-.0884 2.95898-.2207-2.84849-.24507-6.1687-.83044-9.91797-1.85547z" id="path28644" class="bra_primary"/><path class="bra_accent" id="path24736-63-2-9-1" d="m336.66519 222.26486c.028.009.0553.0199.0823.0308.75356.25636.92211.87456.80463 1.17622-.12755.3264-.3622.44924-.65246.47795-.74077.0733-1.76662-.37022-2.23177-.56171.84222.71486 2.64003 2.4426 2.76375 2.67531.05.0944.14121.57274.211.85821-.39637-.59077-.84363-1.14627-1.43943-1.59866-.68801-.54523-1.57582-.88932-2.17082-1.32164-.42859-.37913-.84568-.79995-1.01733-1.10826-.0812.0159-.1015.0243-.22892-.0555-.79847.15017-1.46211.27577-2.38885.3283-.84935.0481-1.85218.2056-2.80704.32894l.3837-.72108 2.85416-.37653c-.32173-.10919-.61884-.0758-.97462-.37593-1.04976-1.03773-.92846-1.3951-.69528-1.68748.18767-.22282.64904-.15206 1.02475-.011.0481-.0857.62907.0559 1.09917.28607.79899.39096.97846 1.15432 1.41895 1.76878.23236.0334.32563.0668.46854.22285 1.26856-.0793 2.62989-.62783 3.49562-.33552zm.0287.15612c-1.05631-.36143-1.6403.20698-2.42731.32546.76874.10646 1.66519.68813 2.36041 1.03139.28918.0686.61199.0984.76631-.35731.13158-.60668-.25487-.82489-.69941-.99954zm-6.54727-2.03971c-.50478-.0629-.86368.66863-.7478.68073.84116.23838 1.6495.64426 2.4375.97361-.60214-.49445-1.04424-1.16137-1.6897-1.65436z"/></g></svg>