<svg viewBox="0 0 560 1e3"><defs><clipPath clipPathUnits="userSpaceOnUse" id="clipPath13344"><path id="path13346" d="m296.51526 149.82524c-.60044 11.74636 4.52731 21.84761 4.14186 32.15688.0.0 29.989-1.7219 36.03381-9.31622-3.81788-3.83803-6.1307-11.25313-6.22921-26.33633l97.0383-51.829609L545.88646 179.7561 531.74432 683.21615 41.012195 681.80194 57.982758 266.02313 166.87721 188.94849l70.35713-39.95154z"/></clipPath><filter style="color-interpolation-filters:sRGB" id="filter26288"><feGaussianBlur stdDeviation="4 8" result="blur" id="feGaussianBlur26286"/></filter><filter style="color-interpolation-filters:sRGB" id="filter26310"><feGaussianBlur stdDeviation="4 8" result="blur" id="feGaussianBlur26308"/></filter><clipPath clipPathUnits="userSpaceOnUse" id="clipPath26887"><path style="fill-opacity:.55427629;fill:#0ff;opacity:1;stroke-dasharray:none;stroke-dashoffset:0;stroke-linecap:butt;stroke-linejoin:miter;stroke-miterlimit:4;stroke-opacity:.47154475;stroke-width:.36817819;stroke:none;vector-effect:none" d="m267.66198 358.65442c1.07526-.008 2.17997.24156 3.25653.17203 8.69805-.56125 19.59672-1.24537 28.1928-1.61695 11.01748-.47625 19.14778-.32246 28.25336-1.11069 2.67446-45.43937.0541-69.66623-5.6974-107.43848l-15.47748-2.43566c-25.14267 24.18518-43.54776 57.5788-38.79298 108.71743z" id="path26890"/></clipPath><clipPath clipPathUnits="userSpaceOnUse" id="clipPath26896"><path style="fill-opacity:.3886179;fill:#00fffd;opacity:1;stroke-dasharray:none;stroke-dashoffset:0;stroke-linecap:butt;stroke-linejoin:miter;stroke-miterlimit:4;stroke-opacity:1;stroke-width:.36817822;stroke:none;vector-effect:none" d="m147.11429 375.7395c10.65882-2.11227 21.97814-4.23188 30.18815-5.74332 1.20108-.5209 2.06337-.46605 3.07202-.59228-7.59943-28.44966-6.07244-31.62889-1.74972-48.19035 3.7813-13.351 7.78301-28.7557 18.86311-40.62111l-4.08074-3.10372c-27.86252 9.98725-47.0773 24.05645-55.13706 41.26532-7.23739 15.45302-9.04212 35.70646 5.37064 57.03408z" id="path26898"/></clipPath></defs><g data-transform="boob_outfit" id="g26763"><path d="m342.33203 353.28125c-66.16659-1.02662-140.36529 7.19047-207.94139 21.70677-1.0966.55597-.50761 2.95795.88801 2.98024 89.21919-19.13934 190.11023-27.24413 268.21845-17.56972 1.57965-.93021 1.50571-1.83194.38448-3.07653-19.32835-2.39442-40.0138-3.70662-61.54955-4.04076z" id="path26849" class="bra_accent"/><path d="m267.66198 358.65442c1.07526-.008 2.17997.24156 3.25653.17203 8.69805-.56125 19.59672-1.24537 28.1928-1.61695 11.01748-.47625 19.14778-.32246 28.25336-1.11069 2.67446-45.43937.0541-69.66623-5.6974-107.43848l-15.47748-2.43566c-25.14267 24.18518-43.54776 57.5788-38.79298 108.71743z" id="path26685" class="bra_primary"/><g style="display:inline;filter:url(#filter26310)" id="g26759" clip-path="url(#clipPath26887)"><path class="bra_primary_shade" id="path26741" d="m261.54569 306.8352-.39228 48.02393 73.06098 3.35014 1.69728-41.87243c-10.02014 2.96253-56.69834 1.72842-74.36598-9.50164z"/><path d="m261.36566 314.29399-.21225 40.56514 73.06098 3.35014 1.51725-34.41363c-10.02012 2.96252-56.69834 1.72841-74.36598-9.50165z" id="path26743" class="bra_primary_shade"/><path class="bra_primary_shade" id="path26745" d="m261.40372 322.16496-.25031 32.69417 73.06098 3.35014 1.55531-26.54267c-10.02012 2.96253-56.69833 1.72842-74.36598-9.50164z"/><path d="m261.10189 329.47925.0515 25.37988 73.06098 3.35014 1.25348-19.22838c-10.02012 2.96253-56.69833 1.72842-74.36598-9.50164z" id="path26747" class="bra_primary_shade"/><path class="bra_primary_shade" id="path26749" d="m260.51927 338.14835.63414 16.71078 73.06098 3.35014.67085-10.55927c-10.02011 2.96252-56.69834 1.72841-74.36597-9.50165z"/><path d="m262.37357 300.21733 13.38695-61.69785 73.91463 14.51891-10.31894 54.14385c-9.15539-6.38037-56.11897-16.81883-76.98264-6.96491z" id="path26751" class="bra_primary_highlight"/><path class="bra_primary_highlight" id="path26753" d="m264.21627 289.66446 11.54425-51.14498 73.91463 14.51891-8.47623 43.59098c-9.15539-6.38037-56.11898-16.81883-76.98265-6.96491z"/><path d="m266.98033 279.27648 8.78019-40.757 73.91463 14.51891-5.71217 33.203c-9.15539-6.38037-56.11897-16.81883-76.98265-6.96491z" id="path26755" class="bra_primary_highlight"/><path class="bra_primary_highlight" id="path26757" d="m269.59084 270.70228 6.16968-32.1828 73.91463 14.51891-3.10167 24.6288c-9.15539-6.38037-56.11896-16.81883-76.98264-6.96491z"/></g><path id="path26687" d="m147.11429 375.7395c10.65882-2.11227 21.97814-4.23188 30.18815-5.74332 1.20108-.5209 2.06337-.46605 3.07202-.59228-7.59943-28.44966-6.07244-31.62889-1.74972-48.19035 3.7813-13.351 7.78301-28.7557 18.86311-40.62111l-4.08074-3.10372c-27.86252 9.98725-47.0773 24.05645-55.13706 41.26532-7.23739 15.45302-9.04212 35.70646 5.37064 57.03408z" class="bra_primary"/><g clip-path="url(#clipPath26896)" id="g26711"><g style="display:inline;filter:url(#filter26288)" id="g26709" clip-path="none"><path class="bra_primary_shade" id="path26691" d="m122.77882 329.49871 7.875 47.375 60.75-7.125-5.75-41.50001c-7.74754 4.34893-46.40563 9.79402-62.875 1.25001z"/><path d="m123.90382 336.87371 6.75 40 60.75-7.125-4.625-34.12501c-7.74754 4.34893-46.40563 9.79402-62.875 1.25001z" id="path26693" class="bra_primary_shade"/><path class="bra_primary_shade" id="path26695" d="m125.27882 344.62371 5.375 32.25 60.75-7.125-3.25-26.37501c-7.74754 4.34893-46.40563 9.79402-62.875 1.25001z"/><path d="m126.27882 351.87371 4.375 25 60.75-7.125-2.25-19.12501c-7.74754 4.34893-46.40563 9.79402-62.875 1.25001z" id="path26697" class="bra_primary_shade"/><path class="bra_primary_shade" id="path26699" d="m127.27882 360.49871 3.375 16.375 60.75-7.125-1.25-10.50001c-7.74754 4.34893-46.40563 9.79402-62.875 1.25001z"/><path d="m127.12538 312.49096 20.95197-43.21367 56.25473 24.01526-17.25217 38.17953c-6.20129-6.36253-41.74115-22.51849-59.95453-18.98112z" id="path26701" class="bra_primary_highlight"/><path class="bra_primary_highlight" id="path26703" d="m130.35412 305.01934 17.72323-35.74205 56.25473 24.01526-14.02343 30.7079c-6.20128-6.36252-41.74115-22.51849-59.95453-18.98111z"/><path d="m134.28678 297.83516 13.79057-28.55787 56.25473 24.01526-10.09077 23.52373c-6.20129-6.36253-41.74115-22.51849-59.95453-18.98112z" id="path26705" class="bra_primary_highlight"/><path class="bra_primary_highlight" id="path26707" d="m137.79404 291.96449 10.28331-22.6872 56.25473 24.01526-6.58351 17.65306c-6.20129-6.36253-41.74115-22.51849-59.95453-18.98112z"/></g></g><path class="bra_accent" id="path26713" d="m132.91172 347.28664c1.29398 10.17209 4.56047 20.48343 10.61785 28.94216l3.60474-.50172c-6.74289-9.05694-9.75593-20.75905-11.62349-32.02456-1.63763-9.87849-.34066-12.8281.16633-18.47425-2.03144 7.16137-3.87195 13.35997-2.76543 22.05837zm8.1321-33.61231c10.83738-13.93705 30.52248-21.98615 52.10425-35.04271l1.68203 2.07087c-10.80803 12.20598-15.86561 29.53254-20.14242 48.17679-3.9828 17.36253-1.43894 28.1484 2.5958 41.17061l3.49006-.63165c-4.01344-13.01173-6.71543-23.69488-2.78432-40.16483 4.35281-18.23674 9.43722-35.17794 20.50351-47.81433l1.13495-1.21207-7.04161-4.86768c-4.18512 2.5959-7.75997 5.07234-11.16281 6.44222-30.98933 15.16205-38.36812 28.35638-40.37944 31.87278z"/><g id="g26858"><path d="m144.99249 372.70842c10.75491-1.67837 21.07761-3.87925 31.48072-5.67244l-.39617-.72678c-10.44333 1.8782-20.49983 4.18617-31.49564 5.79691z" id="path26715" class="bra_primary_shade"/><path class="bra_primary_shade" id="path26717" d="m144.99249 372.70842c10.75491-1.67837 21.07761-3.87925 31.48072-5.67244l-.39617-.72678c-10.44333 1.8782-20.49983 4.18617-31.49564 5.79691z"/><path d="m144.99249 372.70842c10.75491-1.67837 21.07761-3.87925 31.48072-5.67244l-.39617-.72678c-10.44333 1.8782-20.49983 4.18617-31.49564 5.79691z" id="path26719" class="bra_primary_shade"/><path class="bra_primary_shade" id="path26721" d="m144.99249 372.70842c10.75491-1.67837 21.07761-3.87925 31.48072-5.67244l-.39617-.72678c-10.44333 1.8782-20.49983 4.18617-31.49564 5.79691z"/><path d="m144.99249 372.70842c10.75491-1.67837 21.07761-3.87925 31.48072-5.67244l-.39617-.72678c-10.44333 1.8782-20.49983 4.18617-31.49564 5.79691z" id="path26723" class="bra_primary_shade"/></g><g id="g26880"><path d="m270.07209 355.61519c10.73738-1.1435 46.18679-2.99994 54.78216-2.38299l.0792-.74026c-25.08427-.44296-47.85878 2.00479-55.10631 2.4857z" id="path26727" class="bra_primary_shade"/><path class="bra_primary_shade" id="path26729" d="m270.07209 355.61519c10.73738-1.1435 46.18679-2.99994 54.78216-2.38299l.0792-.74026c-25.08427-.44296-47.85878 2.00479-55.10631 2.4857z"/><path d="m270.07209 355.61519c10.73738-1.1435 46.18679-2.99994 54.78216-2.38299l.0792-.74026c-25.08427-.44296-47.85878 2.00479-55.10631 2.4857z" id="path26731" class="bra_primary_shade"/><path class="bra_primary_shade" id="path26733" d="m270.07209 355.61519c10.73738-1.1435 46.18679-2.99994 54.78216-2.38299l.0792-.74026c-25.08427-.44296-47.85878 2.00479-55.10631 2.4857z"/><path d="m270.07209 355.61519c10.73738-1.1435 46.18679-2.99994 54.78216-2.38299l.0792-.74026c-25.08427-.44296-47.85878 2.00479-55.10631 2.4857z" id="path26735" class="bra_primary_shade"/></g><path class="bra_accent" id="path26761" d="m305.58336 244.74084-.53742.47972c-44.66536 39.75354-44.06107 84.09776-37.51254 113.61436l3.29015.0497c-6.46627-28.87366-7.28973-71.94642 36.2282-111.03664l11.64461 1.78152c10.2101 43.42016 11.04065 72.87602 5.7705 106.56678l3.38972-.0269c5.22981-33.93072 4.31157-63.91665-6.13703-107.91036l-.25882-1.09067z"/></g><g clip-path="url(#clipPath13344)" id="g26773"><g style="display:inline" id="g26771" data-transform="boob_outfit"><path d="m323.4185 166.91751c-.005 69e-5-.0102-71e-5-.0156.0-1.12202.14855-2.27938.5383-3.4336.98047-.28789.11029-.56919.113-.85742.24414-.002 91e-5-.004.001-.006.002-.0206.01-.0399.0218-.0605.0312-5.54604 2.52609-10.28853 4.62013-15.3935 7.64005-34.55082 20.42161-59.00539 55.81061-87.70766 81.30338-11.35162 9.83657-22.10982 17.75184-23.89344 18.54059l1.20507 2.16407c1.3486-.59637 14.12273-12.05249 15.84863-13.15231-1.14319 1.08396-12.10702 14.03647-12.9086 14.89062l2.91407.84766c1.11498-1.18813 7.37515-12.25531 18.03434-21.59928 27.30956-23.88356 60.15794-65.46166 87.2322-81.6666 5.14889-2.99931 9.91787-5.09918 15.36029-7.62638.002-92e-5.004-.001.006-.002 1.29008-.5862 2.59348-.92319 3.8711-1.09961.0121-.002.0231-45e-5.0351-.002 1.26104-.16293 4.63497-2.10469 5.81074-2.03722 2.07314.11898 5.58281.32344 7.08594.33008.21161 94e-5.55304.0683.75.0605.31071-.0122.49438.0638.77344.0566 4.13934-.10675 5.70628 4.09659 4.83915 7.53217-1.61141 6.38442-6.60977 18.78896-10.65629 25.86684-1.68792 2.95239-4.35889 8.76308-8.42975 14.71845-5.68119 8.31118-16.95604 28.88077-18.72525 30.37969l1.96373 2.07258c1.93898-1.64274 14.63897-25.79877 17.37204-29.4405-1.23492 3.24735-5.65302 27.74244-5.79457 30.46708l2.86461-.8888c.10316-1.98561 2.85952-22.06918 5.09293-29.78947 1.82308-6.30187 3.84862-10.55481 5.0215-12.65185 4.11484-7.35706 13.65853-26.71022 13.30446-33.18278-.22318-4.07983-2.58711-6.19605-6.2481-6.62621-12.28592-1.44359-9.73043 1.09982-15.25506 1.63689z" id="path26765" class="bra_accent bra_strap1"/><path class="bra_accent bra_strap2" id="path26767" d="m326.52486 169.11527c-1.24733-.0612-2.15328-.40035-3.5483-.20902-.005 75e-5-.0102-75e-5-.0156.0-1.12202.14851-2.27975.53734-3.4336.98047-.28826.10933-.56919.11301-.85742.24414-.002 92e-5-.004.001-.006.002-.0206.01-.0399.0217-.0605.0312-13.84474 6.53789-19.1648 8.93945-31.29688 17.4961-20.61038 14.53633-45.51069 46.55998-63.44333 62.74347-13.37285 12.06846-29.59233 24.37391-31.63399 25.27677l1.48632 1.82032c1.3486-.59637 13.77919-11.31109 15.50509-12.41091-1.14319 1.08396-11.98759 13.38124-12.78917 14.23539l2.85157 1.16016c1.22295-1.30318 12.38736-17.41974 24.64602-27.77218 19.08809-16.11989 44.75516-50.12932 64.15288-63.75029 12.34707-8.67004 17.88228-11.23524 31.21289-17.45703.002-9e-4.004-.001.006-.002 1.29011-.58613 2.59344-.92352 3.8711-1.09961.0121-.002.0231-4e-4.0351-.002 1.26105-.16288 2.0565.22251 3.23384.25199 7.76892.19458 12.2156.41201 11.28247 6.93699-.95259 6.00228-2.67322 16.34963-5.58935 22.47614-1.50364 3.159-4.10685 8.80244-8.24053 14.92202-5.49214 8.13067-16.80486 28.78445-18.53763 30.25249l1.95079 1.99398c1.93898-1.64274 13.10327-21.87842 15.83634-25.52015-1.23492 3.24735-4.48343 23.7511-4.62498 26.47574l2.96816-.58482c.18737-3.60642 4.44987-28.94283 6.61015-33.83327 1.40635-3.1837 6.49416-15.82271 7.87605-20.07794 2.24251-6.90533 3.59436-13.9572 3.58764-18.90653-.0488-1.04392-.40047-1.94853-.9082-2.75391-1.18066-1.68433-3.00842-2.2755-4.80957-2.41389-2.52781.0383-5.20071-.39333-7.31741-.5062z"/><path d="m325.32495 171.4313c-1.24733-.0612-2.59522-.0468-3.99024.14453-.005 75e-5-.0102-75e-5-.0156.0-1.12202.14851-2.27975.53734-3.4336.98047-.28826.10933-.56919.11301-.85742.24414-.002 92e-5-.004.001-.006.002-.0206.01-.0399.0217-.0605.0312-5.54608 2.52599-7.21148 3.66502-12.34448 6.63706-12.74467 7.37923-23.71504 12.75315-34.51624 22.0077-10.97528 9.4037-39.39781 42.18595-57.79084 58.36893-9.44025 8.30594-18.67195 15.15504-20.24858 15.85225l1.08673 2.54888c1.3486-.59637 14.37164-13.01852 16.09754-14.11834-1.14319 1.08396-12.34391 14.50694-13.14549 15.36109l3.03816 1.19141c.96962-1.03323 6.18297-11.47018 15.00166-19.04651 17.78853-15.28253 41.34787-45.41015 57.93317-59.00835 11.18584-9.17122 21.81032-15.13761 33.2685-21.82893 5.14562-3.00493 6.86886-4.09617 12.31127-6.62339.002-9e-4.004-.001.006-.002 1.29008-.58621 2.59344-.92352 3.8711-1.09961.0121-.002.0231-4e-4.0351-.002 3.51641-.33736 4.68287-.26691 7.91016-.21688 4.14022.0642 4.90903 2.29627 4.4414 5.80859-.83884 6.3004-1.74466 16.13439-3.94827 24.05549-.898 3.22797-3.58072 8.43348-7.34426 13.8482-5.38762 7.75135-15.5519 27.06613-17.33986 28.58092l1.77272 2.24713c1.93898-1.64274 14.54185-25.14704 17.27492-28.78877-1.23492 3.24735-5.51117 27.70722-5.65272 30.43186l2.77937-1.29192c.11791-2.26944 3.07467-22.87258 5.7116-31.40067 1.55347-5.02409 4.48866-11.21776 4.99191-13.13482 2.95855-11.27017 2.89099-17.33813 3.32606-26.9962.047-1.04399-.0911-1.68336-.59884-2.48874-1.18066-1.68433-3.00842-2.2755-4.80957-2.41389-2.52781.0383-2.63821.23167-4.75491.1188z" id="path26769" class="bra_accent bra_strap3"/></g></g></svg>