<svg viewBox="0 0 560 1e3"><path class="shadow" id="path5339" d="m279.98233 452.91434c0 .62225-.69774 1.32-1.32 1.32-.62225.0-1.32-.69775-1.32-1.32.0-.62226.69775-1.32 1.32-1.32.62226.0 1.32.69774 1.32 1.32z"/><path class="shadow" id="path5341" d="m271.77847 450.42759c0 .62226-.69775 1.32-1.32 1.32-.62226.0-1.32-.69774-1.32-1.32.0-.62225.69774-1.32 1.32-1.32.62225.0 1.32.69775 1.32 1.32z"/><path class="shadow" id="path5343" d="m260.87961 443.85821c0 .62225-.69774 1.32-1.32 1.32-.62225.0-1.32-.69775-1.32-1.32.0-.62226.69775-1.32 1.32-1.32.62226.0 1.32.69774 1.32 1.32z"/><path class="shadow" id="path5345" d="m258.74653 446.60735c-.1319.43108-.454.83595-.8342.95782-.59256.18992-1.46998-.26154-1.65992-.85411-.14441-.4504.0818-1.06536.45889-1.41792.93489.72737.6411.55508 2.03523 1.31421z"/><path class="shadow" id="path5347" d="m270.16868 452.44558c-.16216.44966-.55171.86506-.97144.94958-.61001.12286-1.43176-.42342-1.55461-1.03343-.0671-.33311.0653-.72933.29871-1.04042.93912.42785 1.20925.51628 2.22734 1.12427z"/><path class="shadow" id="path5349" d="m278.89415 455.26327c-.0227.53919-.40222 1.14805-.8798 1.30781-.59013.19738-1.47317-.24293-1.67057-.83304-.0976-.29167-.0394-.65493.11578-.97157 1.41151.22806 1.41602.28022 2.43459.4968z"/><path class="shadow" id="path5351" d="m246.26621 435.38628c0 .62225-.69774 1.32-1.32 1.32-.62225.0-1.32-.69775-1.32-1.32.0-.62226.69775-1.32 1.32-1.32.62226.0 1.32.69774 1.32 1.32z"/><path class="shadow" id="path5353" d="m244.35713 437.13196c-.14424.42709-.36968.71535-.75322.82623-.59778.17279-1.46184-.30371-1.63466-.90149-.13139-.45436.15055-1.14949.53759-1.49106.91358.75395.99523.83721 1.85029 1.56632z"/><path class="shadow" id="path5355" d="m234.13239 425.33895c0 .62226-.69774 1.32-1.32 1.32-.62225.0-1.32-.69774-1.32-1.32s.69775-1.32 1.32-1.32c.62226.0 1.32.69774 1.32 1.32z"/><path class="shadow" id="path5357" d="m232.19129 427.12784c-.17751.41438-.42502.68394-.81611.76418-.60957.12507-1.43331-.41818-1.55838-1.02773-.0951-.46332.24085-1.13404.65365-1.44398.85119.82374.92602.91318 1.72084 1.70753z"/><path class="shadow" id="path5359" d="m224.77433 415.51272c0 .62226-.69774 1.32-1.32 1.32-.62226.0-1.32-.69774-1.32-1.32s.69774-1.32 1.32-1.32c.62226.0 1.32.69774 1.32 1.32z"/><path class="shadow" id="path5361" d="m222.73663 417.30242c-.19754.40519-.45792.66234-.85249.72337-.61488.0956-1.41115-.48773-1.50628-1.10268-.0728-.46733.29599-1.1209.72345-1.4103.80991.86437.88029.95737 1.63532 1.78961z"/><path class="shadow" id="path5363" d="m215.99835 404.36529c0 .62226-.69774 1.32-1.32 1.32-.62226.0-1.32-.69774-1.32-1.32s.69774-1.32 1.32-1.32c.62226.0 1.32.69774 1.32 1.32z"/><path class="shadow" id="path5365" d="m213.95824 406.27874c-.25088.37452-.54386.59382-.94306.60054-.62217.011-1.33158-.67534-1.34207-1.29751-.009-.47291.44586-1.07016.90875-1.29865.68466.96661.74172 1.06832 1.37638 1.99562z"/><path d="m279.86233 452.91434c0 .56568-.63431 1.2-1.2 1.2-.56568.0-1.2-.63432-1.2-1.2.0-.56569.63432-1.2 1.2-1.2.56569.0 1.2.63431 1.2 1.2z" id="path4636" class="steel_piercing"/><path d="m271.65847 450.42759c0 .56569-.63432 1.2-1.2 1.2-.56569.0-1.2-.63431-1.2-1.2.0-.56568.63431-1.2 1.2-1.2.56568.0 1.2.63432 1.2 1.2z" id="path4638" class="steel_piercing"/><path d="m260.75961 443.85821c0 .56568-.63431 1.2-1.2 1.2-.56568.0-1.2-.63432-1.2-1.2.0-.56569.63432-1.2 1.2-1.2.56569.0 1.2.63431 1.2 1.2z" id="path4640" class="steel_piercing"/><path d="m258.63116 446.59315c-.11991.39189-.41273.75995-.75836.87074-.53869.17266-1.33635-.23776-1.50902-.77646-.13128-.40945.0744-.96851.41717-1.28902.8499.66125.58282.50462 1.85021 1.19474z" id="path4642" class="steel_piercing"/><path d="m270.05307 452.43843c-.14742.40878-.50156.78642-.88313.86326-.55455.11169-1.3016-.38493-1.41328-.93949-.061-.30282.0594-.66302.27155-.94583.85375.38895 1.09932.46934 2.02486 1.02206z" id="path4644" class="steel_piercing"/><path d="m278.77605 455.30231c-.0206.49017-.36565 1.04368-.79982 1.18892-.53648.17943-1.33924-.22085-1.5187-.75731-.0887-.26516-.0358-.59539.10526-.88325 1.28319.20733 1.28729.25475 2.21326.45164z" id="path4646" class="steel_piercing"/><path d="m246.14621 435.38628c0 .56568-.63431 1.2-1.2 1.2-.56568.0-1.2-.63432-1.2-1.2.0-.56569.63432-1.2 1.2-1.2.56569.0 1.2.63431 1.2 1.2z" id="path4648" class="steel_piercing"/><path d="m244.2471 437.09995c-.13112.38826-.33607.65032-.68474.75112-.54344.15708-1.32895-.2761-1.48606-.81954-.11944-.41305.13687-1.04499.48872-1.35551.83053.68541.90476.7611 1.68208 1.42393z" id="path4650" class="steel_piercing"/><path d="m234.01239 425.33895c0 .56569-.63431 1.2-1.2 1.2-.56568.0-1.2-.63431-1.2-1.2.0-.56569.63432-1.2 1.2-1.2.56569.0 1.2.63431 1.2 1.2z" id="path4652" class="steel_piercing"/><path d="m232.08262 427.08578c-.16137.37671-.38638.62177-.74192.69471-.55415.1137-1.30301-.38016-1.41671-.9343-.0865-.4212.21896-1.03094.59423-1.31271.77381.74886.84184.83017 1.5644 1.5523z" id="path4654" class="steel_piercing"/><path d="m224.65433 415.51272c0 .56569-.63431 1.2-1.2 1.2s-1.2-.63431-1.2-1.2c0-.56569.63431-1.2 1.2-1.2s1.2.63431 1.2 1.2z" id="path4656" class="steel_piercing"/><path d="m222.62899 417.25442c-.17958.36836-.41629.60213-.77499.65761-.55898.0869-1.28286-.44339-1.36934-1.00243-.0662-.42485.26908-1.019.65768-1.28209.73628.78579.80026.87033 1.48665 1.62691z" id="path4658" class="steel_piercing"/><path d="m215.87835 404.36529c0 .56569-.63431 1.2-1.2 1.2s-1.2-.63431-1.2-1.2c0-.56569.63431-1.2 1.2-1.2s1.2.63431 1.2 1.2z" id="path4656-4" class="steel_piercing"/><path d="m213.85436 406.21533c-.22807.34048-.49441.53984-.85732.54595-.56561.01-1.21053-.61395-1.22007-1.17956-.008-.42991.40533-.97287.82614-1.18059.62242.87874.67429.9712 1.25125 1.8142z" id="path4658-6" class="steel_piercing"/></svg>