<svg viewBox="0 0 560 1e3"><path id="path5028" class="shadow" d="m312.49528 119.2057s4.42407.76861 5.75516-.62865c1.57314-1.65133 1.91308-5.11224.41242-6.8297-1.45077-1.66035-4.72008-1.64839-6.59644-.49047-1.5136.93407-2.0324 4.93362-2.0324 4.93362s1.35923-3.37824 2.88913-3.92341c1.25106-.44581 3.04087-.0549 3.85907.99132.91366 1.16822.89119 3.23734.0361 4.44908-.87933 1.24606-4.323 1.49821-4.323 1.49821z"/><path d="m312.70755 118.81674s4.02188.69873 5.23196-.5715c1.43013-1.50121 1.73917-4.64749.37493-6.20882-1.31888-1.50941-4.29098-1.49854-5.99676-.44588-1.376.84915-1.84764 4.48511-1.84764 4.48511s1.23566-3.07113 2.62648-3.56674c1.13733-.40528 2.76443-.0499 3.50825.9012.8306 1.06202.81017 2.94304.0328 4.04462-.79939 1.13278-3.93 1.36201-3.93 1.36201z" class="steel_piercing" id="XMLID_525_-3-5-9"/><path id="path5030" class="shadow" d="m305.15298 121.93883s4.42407.76861 5.75516-.62865c1.57314-1.65133 1.91308-5.11224.41242-6.8297-1.45077-1.66035-4.72008-1.64839-6.59644-.49047-1.5136.93407-2.0324 4.93362-2.0324 4.93362s1.35923-3.37824 2.88913-3.92341c1.25106-.44581 3.04087-.0549 3.85907.99132.91366 1.16822.89119 3.23734.0361 4.44908-.87933 1.24606-4.323 1.49821-4.323 1.49821z"/><path d="m305.36525 121.54987s4.02188.69873 5.23196-.5715c1.43013-1.50121 1.73917-4.64749.37493-6.20882-1.31888-1.50941-4.29098-1.49854-5.99676-.44588-1.376.84915-1.84764 4.48511-1.84764 4.48511s1.23566-3.07113 2.62648-3.56674c1.13733-.40528 2.76443-.0499 3.50825.9012.8306 1.06202.81017 2.94304.0328 4.04462-.79939 1.13278-3.93 1.36201-3.93 1.36201z" class="steel_piercing" id="XMLID_525_-3-5-1-3"/><path id="path5032" class="shadow" d="m298.86542 125.7975s4.42407.76861 5.75516-.62865c1.57314-1.65133 1.91308-5.11224.41242-6.8297-1.45077-1.66035-4.72008-1.64839-6.59644-.49047-1.5136.93407-2.0324 4.93362-2.0324 4.93362s1.35923-3.37824 2.88913-3.92341c1.25106-.44581 3.04087-.0549 3.85907.99132.91366 1.16822.89119 3.23734.0361 4.44908-.87933 1.24606-4.323 1.49821-4.323 1.49821z"/><path id="path5034" class="shadow" d="m272.12169 126.79059s-3.39634 1.71441-4.81996.91024c-1.68249-.9504-2.81184-3.67179-2.01917-5.4341.76632-1.70371 3.41923-2.50055 5.22578-2.02489 1.45729.3837 2.86449 3.49758 2.86449 3.49758s-1.93514-2.40293-3.3097-2.46739c-1.12404-.0527-2.47832.70572-2.88343 1.75554-.45238 1.1723.0763 2.84391 1.06834 3.61513 1.02015.79307 3.87364.1479 3.87364.1479z"/><path d="m271.85593 126.53788s-3.08758 1.55855-4.38178.82749c-1.52954-.864-2.55622-3.33799-1.83561-4.94009.69665-1.54883 3.10839-2.27323 4.75071-1.84081 1.32481.34882 2.60408 3.17962 2.60408 3.17962s-1.75922-2.18449-3.00882-2.24309c-1.02185-.0479-2.25302.64157-2.6213 1.59595-.41125 1.06573.0694 2.58537.97122 3.28648.92741.72097 3.52149.13446 3.52149.13446z" class="steel_piercing" id="XMLID_525_-3-5-5-1-2-6"/><path id="path5036" class="shadow" d="m275.42959 128.07368s-3.39634 1.71441-4.81996.91024c-1.68249-.9504-2.81184-3.67179-2.01917-5.4341.76632-1.70371 3.41923-2.50055 5.22578-2.02489 1.45729.3837 2.86449 3.49758 2.86449 3.49758s-1.93514-2.40293-3.3097-2.46739c-1.12404-.0527-2.47832.70572-2.88343 1.75554-.45238 1.1723.0763 2.84391 1.06834 3.61513 1.02015.79307 3.87364.1479 3.87364.1479z"/><path d="m275.16383 127.82097s-3.08758 1.55855-4.38178.82749c-1.52954-.864-2.55622-3.33799-1.83561-4.94009.69665-1.54883 3.10839-2.27323 4.75071-1.84081 1.32481.34882 2.60408 3.17962 2.60408 3.17962s-1.75922-2.18449-3.00882-2.24309c-1.02185-.0479-2.25302.64157-2.6213 1.59595-.41125 1.06573.0694 2.58537.97122 3.28648.92741.72097 3.52149.13446 3.52149.13446z" class="steel_piercing" id="XMLID_525_-3-5-5-1-1-9"/><path id="path5038" class="shadow" d="m279.95299 128.49048s-3.39634 1.71441-4.81996.91024c-1.68249-.9504-2.81184-3.67179-2.01917-5.4341.76632-1.70371 3.41923-2.50055 5.22578-2.02489 1.45729.3837 2.86449 3.49758 2.86449 3.49758s-1.93514-2.40293-3.3097-2.46739c-1.12404-.0527-2.47832.70572-2.88343 1.75554-.45238 1.1723.0763 2.84391 1.06834 3.61513 1.02015.79307 3.87364.1479 3.87364.1479z"/><path d="m299.07769 125.40854s4.02188.69873 5.23196-.5715c1.43013-1.50121 1.73917-4.64749.37493-6.20882-1.31888-1.50941-4.29098-1.49854-5.99676-.44588-1.376.84915-1.84764 4.48511-1.84764 4.48511s1.23566-3.07113 2.62648-3.56674c1.13733-.40528 2.76443-.0499 3.50825.9012.8306 1.06202.81017 2.94304.0328 4.04462-.79939 1.13278-3.93 1.36201-3.93 1.36201z" class="steel_piercing" id="XMLID_525_-3-5-5-7"/><path d="m279.68723 128.23777s-3.08758 1.55855-4.38178.82749c-1.52954-.864-2.55622-3.33799-1.83561-4.94009.69665-1.54883 3.10839-2.27323 4.75071-1.84081 1.32481.34882 2.60408 3.17962 2.60408 3.17962s-1.75922-2.18449-3.00882-2.24309c-1.02185-.0479-2.25302.64157-2.6213 1.59595-.41125 1.06573.0694 2.58537.97122 3.28648.92741.72097 3.52149.13446 3.52149.13446z" class="steel_piercing" id="XMLID_525_-3-5-5-1-5"/></svg>