<svg viewBox="0 0 560 1e3"><defs/><path d="m336.41797 175.09375c5.46812.40666 13.5974 1.52947 19.35351 2.67383.009-.029.0273-.0816.0352-.10938-3.0522-.47043-9.71172-1.76272-13.30664-2.21679-3.22004-.40676-4.0055-.25604-6.08203-.34766zm-11.85938 1.5293c-14.18141 2.02909-9.87562 1.84345-23.59765 5.99804-6.43301 1.26996-27.59375 7.34961-27.59375 7.34961-.0105.003-.20485.19453-.28125.26368 3.47516-.97974 21.79511-6.1328 27.66211-7.29102 13.71879-4.15362 9.58446-4.20958 23.81054-6.32031zm-76.03711 47.17578c-.0781.15153-.1608.29708-.23828.44922-4.28412 8.4123-6.89738 20.40601-5.91797 32.06836-.0509 3.69004.83759 9.69602 1.46485 15.36914 1.40092 12.67038 4.0722 23.33075 3.40625 33.83984-1.70216 26.86095-10.84762 39.2012-11.83008 61.95313-.18521 4.28918-2.41525 18.71632-3.70508 29.64062 4.77997 14.16852 26.41795 16.63846 50.43945 13.36914 24.88926-3.38743 60.5018-11.15349 87.40235-40.76367l-4.22461-8.31641c-7.56068-14.46056-14.71642-41.6754-15.1543-45.26172-1.10225-13.06068-.97107-22.57055 2.37305-38.34179 4.17155-15.36432 5.08728-19.91845 7.99414-35.77344l-.0195-.0176c-.0312.1537-4.19489 20.64802-9.62891 40.08985-2.66716 12.68256-2.59553 21.77587-1.9082 31.52539.62782 5.28877 7.97072 33.41083 16.3125 47.75586 1.7785 3.60939 2.37843 4.71323 4.01953 8.16406-29.87506 28.3623-57.54678 36.73515-87.08203 40.56055-24.65638 3.19349-43.27592.57666-50.31641-13.20508 2.52198-15.45118 2.98116-22.70011 4.18555-36.11914.003-.0333.005-.0663.008-.0996.0164-.18239.0282-.31528.0449-.5.002.002.004.003.006.004 1.90692-17.38028 10.82432-32.17689 11.49414-56.02539.25236-8.98487-4.36057-35.97173-4.875-47.6289-1.28184-11.90979 1.46951-23.07536 5.75-32.73633z" id="path4468-2" class="shadow"/><path d="m335.73633 175.0332c-28.27537 3.89632-18.44797 2.90228-34.98828 7.91016-6.43301 1.26996-29.86524 7.90234-29.86524 7.90234-.1201.03-2.81988 3.65417-8.57372 10.75115-9.64892 11.90132-21.99838 32.07491-19.53761 54.93831.51443 11.65717 5.12777 38.64425 4.87541 47.62912-.66982 23.8485-9.58763 38.64489-11.49455 56.02517-.002-.001-.004-.002-.006-.004-.0167.18472-.0285.31761-.0449.5-.003.0333-.005.0663-.008.0996-1.20439 13.41903-1.66357 20.66796-4.18555 36.11914 7.04049 13.78174 25.66003 16.39856 50.31641 13.20507 29.53525-3.82539 57.20697-12.19824 87.08203-40.56054-1.6411-3.45083-2.24103-4.55467-4.01953-8.16406-8.34178-14.34503-15.68468-42.46709-16.3125-47.75586-.68733-9.74952-.75896-18.84283 1.9082-31.52539 5.45445-19.51494 9.64063-40.14258 9.64063-40.14258-5.38186-10.10555-6.08224-57.87148-4.71289-64.18555-5.97941-1.19087-14.6106-2.37899-20.07422-2.74219z" id="path16052-4" class="top_primary"/><g transform="translate(3.9012434e-6)" style="display:inline;opacity:1" id="g24010-1-4-5"><g style="display:inline;opacity:1" id="g8259-4-4-3-8"><path d="m305.82278 192.12114c-.36179.71828-1.14813 1.05222-1.75633.74587-.60821-.30635-.80797-1.13697-.44618-1.85525.36179-.71828 1.14813-1.05222 1.75633-.74587.60821.30635.80797 1.13697.44618 1.85525z" id="path4492-5-6-2-0" class="top_accent"/><path d="m278.03787 347.64508c.10363.85244-.39913 1.61899-1.12308 1.71215-.72393.0931-1.39484-.52236-1.49852-1.37479-.10363-.85243.39913-1.61899 1.12307-1.71215.72393-.0931 1.39484.52236 1.49853 1.37479z" id="path4492-4-55-06-1-5" class="top_accent"/><path d="m292.30029 217.58632c-.32864.78471-1.17381 1.17846-1.88774.87947-.71392-.299-1.02626-1.17752-.69762-1.96223.32864-.78471 1.17381-1.17846 1.88774-.87947.71392.299 1.02626 1.17752.69762 1.96223z" id="path4492-8-23-2-1-73" class="top_accent"/><path d="m281.95532 247.37732c-.17011.83621-.92699 1.38817-1.69052 1.23284-.76354-.15533-1.2446-.95913-1.07449-1.79534.17011-.83621.92699-1.38817 1.69052-1.23284.76354.15533 1.2446.95913 1.07449 1.79534z" id="path4492-9-6-7-5-0" class="top_accent"/><path d="m277.05554 316.36029c-.0179.88193-.66112 1.58203-1.4367 1.56372-.77558-.0183-1.3898-.74808-1.37191-1.63001.0179-.88193.66112-1.58203 1.4367-1.56372.77557.0183 1.3898.74808 1.37191 1.63001z" id="path4492-94-7-6-6-1" class="top_accent"/><path d="m277.72573 282.05885c.0554.8804-.5767 1.6367-1.41183 1.68924-.83512.0525-1.55704-.61855-1.61243-1.49895-.0554-.8804.5767-1.6367 1.41183-1.68924.83512-.0526 1.55704.61855 1.61243 1.49895z" id="path4492-94-7-9-2-4-0" class="top_accent"/><path d="m279.9846 377.92968c.1619.84332-.28705 1.64257-1.00289 1.78521-.71583.14262-1.42741-.42537-1.58937-1.26867-.1619-.84331.28705-1.64257 1.00288-1.78521.71583-.14262 1.42741.42537 1.58938 1.26867z" id="path4492-4-55-06-9-0-7" class="top_accent"/></g><path style="display:inline;fill-opacity:1;fill:none;opacity:1;stroke-dasharray:none;stroke-dashoffset:0;stroke-linecap:butt;stroke-linejoin:miter;stroke-miterlimit:4;stroke-opacity:1;stroke-width:.453543;stroke:#343434;vector-effect:none" d="m309.91353 188.94849c-10.42014 16.02775-19.27203 35.11292-23.84893 51.23003-2.63435 9.27664-4.06858 17.72596-5.02525 26.16259-1.62252 12.92631-1.06108 32.12357-1.55411 47.44048.0252 5.3538.0498 10.55981.0227 15.88116-.0532 10.44074 2.11051 47.59687 6.06874 80.01429" id="path16108-6-7"/><path style="display:inline;fill-opacity:1;fill:none;opacity:1;stroke-dasharray:none;stroke-dashoffset:0;stroke-linecap:butt;stroke-linejoin:miter;stroke-miterlimit:4;stroke-opacity:1;stroke-width:.453543;stroke:#7f7f7f;vector-effect:none" d="m302.7953 189.94257c-5.06404 7.89593-9.76365 16.49358-13.76684 25.08584-4.01675 8.62137-7.02304 17.08741-9.19735 25.01311-4.85037 17.68027-6.04758 32.46472-6.19011 50.31887-.11775 14.7501-.54525 26.73324-.6094 39.30236-.0542 10.62143 2.09764 48.06226 6.18744 80.86426" id="path16110-1-5"/></g><path style="baseline-shift:baseline;clip-rule:nonzero;color-interpolation-filters:linearRGB;color-interpolation:sRGB;color-rendering:auto;color:#000;direction:ltr;display:inline;dominant-baseline:auto;enable-background:accumulate;fill-opacity:.295533;fill-rule:nonzero;fill:#000;image-rendering:auto;isolation:auto;mix-blend-mode:normal;opacity:1;overflow:visible;shape-padding:0;shape-rendering:auto;solid-color:#000000;solid-opacity:1;stroke-dasharray:none;stroke-dashoffset:0;stroke-linecap:butt;stroke-linejoin:miter;stroke-miterlimit:4;stroke-opacity:1;stroke-width:.453543;stroke:none;vector-effect:none;visibility:visible;white-space:normal;writing-mode:lr-tb" d="m355.50391 177.77734c-1.02885 11.46883-.30334 29.84986.40625 39.88086 1.00793 14.24856 3.12609 21.91987 4.53711 24.60352l.11913-.41407c-1.32622-2.52237-3.19731-10.00228-4.20312-24.2207-.70837-10.01377-1.43148-28.40178-.4082-39.80859z" id="path49661"/><g transform="translate(-1.8515465e-6)" style="display:inline;opacity:1" id="g16076-6-9"><path id="path2840-7-7-8-5" d="m306.1115 174.72723 3.10935 13.7728c-3.58883.28907-4.19632.25785-6.36265-.32791 1.00219-12.04918 3.2533-13.44489 3.2533-13.44489z" class="top_primary"/><path d="m300.08667 172.57237c-2.03237 3.63344-2.40946 7.63281-3.39194 11.16176-.11097 2.48059 4.02564 5.20338 6.30994 6.62117-.11352-4.35414 2.20104-11.31333 2.96606-15.5101-2.0837-.64114-4.38743-1.29276-5.88406-2.27283z" id="path2842-6-6-2-2" style="display:inline;fill:#000;opacity:1"/><path d="m333.1721 164.81697c3.12234 3.33135 7.8525 6.78145 9.92028 10.58149-7.93754 9.36149-23.35479 13.30607-33.9727 15.90151-.57861-4.86704-2.13199-11.9051-3.13395-16.71185 8.60186-2.43964 22.03678-4.58024 27.18637-9.77115z" id="path2844-5-2-5-9" style="display:inline;fill:#000;opacity:1"/><path id="path2858-1-1-2-4" d="m333.1721 164.81697 9.92028 10.58149c-8.50147 8.95868-23.58459 13.14193-33.9727 15.90151-.35332-4.82062-1.60248-11.89123-3.13395-16.71185 8.60186-1.844 22.03678-4.11883 27.18637-9.77115z" class="top_primary"/><path id="path2860-6-7-8-7" d="m300.08667 172.57237-3.39194 11.16176c.27347 2.33273 4.1548 5.1537 6.30994 6.62117-.5339-4.37642 1.60936-11.42013 2.96606-15.5101-2.28233-.52764-4.46978-1.2457-5.88406-2.27283z" class="top_primary"/></g><g id="g92824"><path class="top_primary_shade" d="m360.43953 242.24933c-2.32867 11.24246-4.88615 22.66283-7.71234 33.41648-5.3495-13.25679.59019-35.48011 4.7618-45.60064.59983 3.69261 2.67594 11.78676 2.95054 12.18416z" id="path97121-5"/><path id="path97119-2" d="m360.43953 242.24933c-2.83691 12.76716-4.92708 23.114-7.31133 32.25456-4.53191-10.07481.37148-32.35707 4.54309-42.4776.59983 3.69261 2.49364 9.82564 2.76824 10.22304z" class="top_primary_shade"/><path class="top_primary_shade" d="m360.43953 242.24933c-2.01519 9.77077-3.92747 18.78288-7.26864 31.23977-2.12875-6.20385-2.3817-21.99564 4.71134-39.91593.59983 3.69261 2.2827 8.27876 2.5573 8.67616z" id="path44014-2"/><path id="path92788" d="m360.43953 242.24933c-2.01519 9.77077-3.15407 16.74994-6.49524 29.20683-2.12875-6.20385-2.77945-18.4822 4.31359-36.40249.59983 3.69261 1.90705 6.79826 2.18165 7.19566z" class="top_primary_shade"/><path class="top_primary_shade" d="m360.43953 242.24933c-2.01519 9.77077-2.73422 14.54023-5.81023 26.99712-1.73762-6.23394-2.69188-14.64404 4.02633-32.5355.62228 3.67016 1.68275 4.96753 1.7839 5.53838z" id="path92790"/><path id="path92792" d="m360.43953 242.24933c-2.01519 9.77077-2.18179 12.06536-5.2578 24.52225-1.41555-6.35243-2.4762-10.6512 3.91584-28.42545.86155 2.85277 1.09861 3.38861 1.34196 3.9032z" class="top_primary_shade"/><path class="top_primary_shade" d="m360.43953 242.24933c-2.01519 9.77077-2.02711 10.18711-4.5065 20.96462-1.41555-6.35243-1.50393-6.60743 3.62858-23.4757.4518 1.60235.66191 2.07852.87792 2.51108z" id="path92794"/></g></svg>