<svg viewBox="0 0 560 1e3"><defs><filter style="color-interpolation-filters:sRGB" id="filter53208"><feGaussianBlur stdDeviation="2 2" result="blur" id="feGaussianBlur53206"/></filter><filter style="color-interpolation-filters:sRGB" id="filter53208-7"><feGaussianBlur stdDeviation="2 2" result="blur" id="feGaussianBlur53206-9"/></filter><filter style="color-interpolation-filters:sRGB" id="filter22603"><feGaussianBlur stdDeviation="0.5 0.5" result="blur" id="feGaussianBlur22601"/></filter><clipPath clipPathUnits="userSpaceOnUse" id="clipPath22634"><path d="m252.16186 205.25451c-8.01108 14.27327-.79879 8.66619-15.32584 55.05586-3.18202 10.16124-7.22787 34.64999-10.65315 45.72588-1.20924 3.91015-3.78804 10.78813-4.67306 17.8556-.94352 7.53464-1.0985 15.42672.82355 20.61265.85458 2.30577 9.60122 13.19194 15.66548 17.43464 11.50015-25.17834 13.98328-32.57887 12.98746-35.52068-1.22411-3.61625.47339-6.07174.87224-7.82313 2.01408-8.84409 7.34251-27.19442 8.33878-30.88621 4.76984-17.67518 9.39733-46.81328 9.92011-50.04434 2.83026-17.49246 4.08277-42.25564 2.97693-47.35463-9.76934 1.08946-15.73606 5.68598-20.93246 14.94436z" id="path22636" style="fill-opacity:.5;fill:#19ffff"/></clipPath></defs><path class="top_primary" id="path21393" d="m252.16186 205.25451c-8.01108 14.27327-.79879 8.66619-15.32584 55.05586-3.18202 10.16124-7.22787 34.64999-10.65315 45.72588-1.20924 3.91015-3.78804 10.78813-4.67306 17.8556-.94352 7.53464-1.0985 15.42672.82355 20.61265.85458 2.30577 9.60122 13.19194 15.66548 17.43464 11.50015-25.17834 13.98328-32.57887 12.98746-35.52068-1.22411-3.61625.47339-6.07174.87224-7.82313 2.01408-8.84409 7.34251-27.19442 8.33878-30.88621 4.76984-17.67518 9.39733-46.81328 9.92011-50.04434 2.83026-17.49246 4.08277-42.25564 2.97693-47.35463-9.76934 1.08946-15.73606 5.68598-20.93246 14.94436z"/><g id="g22630" clip-path="url(#clipPath22634)"><g id="g21453" clip-path="none"><g clip-path="none" style="display:inline;filter:url(#filter53208-7);opacity:1" id="g21451" transform="translate(0.87500222,2.5000025)"><g id="g21418"><path d="m274.74721 175.86151c-.95233 23.462-55.0266 56.60212-51.93253 44.59015 1.29627-30.00837 58.29551-48.72751 51.93253-44.59015z" id="path21401" class="top_primary_highlight"/><path d="m272.99721 174.04901c-.95233 23.462-55.0266 56.60212-51.93253 44.59015 1.29627-30.00837 58.29551-48.72751 51.93253-44.59015z" id="path21409" class="top_primary_highlight"/><path class="top_primary_highlight" id="path21415" d="m273.68471 174.73651c-.95233 23.462-55.0266 56.60212-51.93253 44.59015 1.29627-30.00837 58.29551-48.72751 51.93253-44.59015z"/></g><g id="g21438"><path class="top_primary_shade" id="path21428" d="m267.35449 337.94729c.84943-.3328-7.25476-59.29194-10.77515-80.65179-2.93272-17.7942-5.10194 14.01888-13.71662 41.36181-3.01447 9.56789-5.73588 19.06463-7.71568 26.50647-1.30878 13.92793 28.88257 29.37331 32.20745 12.78351z"/><path d="m271.8623 336.26791c.84943-.3328-7.25476-59.29194-10.77515-80.65179-2.93272-17.7942-5.10194 14.01888-13.71662 41.36181-3.01447 9.56789-5.73588 19.06463-7.71568 26.50647-1.30878 13.92793 28.88257 29.37331 32.20745 12.78351z" id="path21430" class="top_primary_shade"/><path class="top_primary_shade" id="path21434" d="m274.77912 335.64919c.84943-.3328-7.25476-59.29194-10.77515-80.65179-2.93272-17.7942-5.10194 14.01888-13.71662 41.36181-3.01447 9.56789-5.73588 19.06463-7.71568 26.50647-1.30878 13.92793 28.88257 29.37331 32.20745 12.78351z"/><path d="m277.69594 334.94208c.84943-.3328-7.25476-59.29194-10.77515-80.65179-2.93272-17.7942-5.10194 14.01888-13.71662 41.36181-3.01447 9.56789-5.73588 19.06463-7.71568 26.50647-1.30878 13.92793 28.88257 29.37331 32.20745 12.78351z" id="path21436" class="top_primary_shade"/></g><g id="g21449"><path d="m242.42491 231.72969c7.29767 11.587-18.2766 127.22712-36.05753 115.59015 1.29627-30.00837 18.29551-114.47751 36.05753-115.59015z" id="path21440" class="top_primary_highlight"/><path class="top_primary_highlight" id="path21446" d="m240.04991 230.72969c7.29767 11.587-18.2766 127.22712-36.05753 115.59015 1.29627-30.00837 18.29551-114.47751 36.05753-115.59015z"/></g></g></g><g style="filter:url(#filter22603)" transform="translate(-534.35715,-99.296009)" id="g22746-4-7-3-0-4" clip-path="none"><path id="path22967-5-5-3-6-7-0" class="highlight2" d="m768.24155 432.05698c-.9884-1.79778.11486-12.47027 1.28174-17.59817 4.66907-20.51834 8.35548-42.32401 25.27908-78.59452-2.39521 4.34934-15.15087 51.63733-23.73903 78.54273-2.15425 6.74893-2.54628 11.71538-2.82179 17.64996z"/><path id="path2688-9-7-4-0-8-6-3-4-9" class="highlight1" d="m774.36562 400.21704c1.06411-6.85713 7.27068-21.73264 12.20018-41.76074-3.33101 10.47716-10.6085 29.70994-12.20018 41.76074z"/><path id="path22037-0-2" class="highlight2" d="m797.8458 295.78097c-2.52551 1.60231-3.35783 2.60128-4.01095 5.97147 1.76187-2.56022 3.13524-3.47778 4.01095-5.97147z"/><path id="path22157-9" class="highlight2" d="m775.30901 429.13933c-.3621.88098-7.18663 7.75103-14.16663 7.09325 2.55869-1.48514 8.64338-3.16729 14.16663-7.09325z"/><path id="path22163-4" class="highlight2" d="m761.5052 429.2584c-5.09861 1.50639-4.30327 2.96369-5.35212 2.29255-3.56692-8.79226 15.63182-44.73879 5.52777-43.71192-2.69648-.69553-17.15254 51.42896-12.04527 48.33537 5.145-3.11644 6.05094-3.15168 11.86962-6.916z"/><path d="m792.9083 302.84348c-1.22685.67993-1.63118 1.10384-1.94845 2.53397.85589-1.08642 1.52304-1.47579 1.94845-2.53397z" class="highlight2" id="path22595"/><path d="m774.30901 432.51433c-.26625.78841-5.28428 6.93657-10.41663 6.34791 1.88139-1.32909 6.35542-2.83448 10.41663-6.34791z" class="highlight2" id="path22597"/><path id="path22599" class="highlight2" d="m775.55901 434.88933c.45098.78841.26713 6.56157-8.41663 5.97291 1.88139-1.32909 4.35542-2.45948 8.41663-5.97291z"/></g></g><path d="m273.09375 190.31055c-8.43742.16328-14.67033 4.49949-19.49805 11.93164-.9578 1.79518-1.76637 2.93542-2.70117 4.65429-6.35054 11.86785-.48938 8.3501-14.32422 52.5293-3.18202 10.16124-7.4048 34.73856-10.83008 45.81445-1.20924 3.91015-3.87669 11.31925-4.76171 18.38672-.94352 7.53464-1.09784 16.39806.82421 21.58399.85458 2.30577 9.77754 13.19284 15.8418 17.43554.12051-.26384.20951-.46645.32813-.72656-6.06327-4.25509-14.78527-15.11342-15.63868-17.41601-1.92205-5.18593-1.76773-13.07669-.82421-20.61133.88502-7.06747 3.46458-13.94532 4.67382-17.85547 3.42528-11.07589 7.47033-35.56532 10.65235-45.72656 14.52705-46.38967 7.31509-40.78337 15.32617-55.05664 5.1964-9.25838 11.1623-13.8539 20.93164-14.94336z" id="path23895" class="shadow"/></svg>