<svg viewBox="0 0 560 1e3"><path d="m252.68555 289.61133c-1.42593 6.36184-15.5091 15.78772-27.36133 33.47851-9.7588 14.5661-18.00431 34.73574-16.42383 63.41016.37561 7.26171 2.55827 13.54809 5.96647 18.95089 25.36227 4.23883 33.06665 5.80563 49.52632 5.88477z" id="path16052-4-4-1" class="top_primary"/><path d="m282.80909 265.97185-9.36685-.33269c-3.26386 49.27996-4.52897 69.12497 4.85228 144.93462 1.29185-.13744 2.60206-.29255 3.92978-.46452 1.44125-.18667 2.87806-.38417 4.3109-.59429-4.12386-49.46153-7.77907-98.66061-3.72611-143.54312z" id="path16052-4-9-4" class="top_primary"/><g transform="translate(5.6174022e-6)" style="display:inline;opacity:1" id="g24010-1-4-5-5-8-3"><g style="display:inline;opacity:1" id="g8259-4-4-3-8-6-4-0"><path d="m263.49779 315.73948c-.24179.82398-1.00662 1.32935-1.70843 1.12874-.70177-.20065-1.07474-1.0312-.83301-1.85518.24178-.82397 1.00662-1.32935 1.70842-1.12875.70177.20066 1.07474 1.0312.83302 1.85519z" id="path4492-4-55-06-1-5-2-3-72" class="top_accent"/><path d="m251.71639 347.36029c-.0179.88193-.66112 1.58203-1.4367 1.56372-.77558-.0183-1.3898-.74808-1.37191-1.63001.0179-.88193.66112-1.58203 1.4367-1.56372.77557.0183 1.3898.74808 1.37191 1.63001z" id="path4492-94-7-6-6-1-8-1-2" class="top_accent"/><path d="m277.72573 282.05885c.0554.8804-.5767 1.6367-1.41183 1.68924-.83512.0525-1.55704-.61855-1.61243-1.49895-.0554-.8804.5767-1.6367 1.41183-1.68924.83512-.0526 1.55704.61855 1.61243 1.49895z" id="path4492-94-7-9-2-4-0-0-3-3" class="top_accent"/><path d="m247.27978 379.24021c-.0539.85703-.68828 1.51878-1.41706 1.47807-.72876-.0407-1.27589-.76847-1.22204-1.62549.0539-.85702.68828-1.51878 1.41705-1.47807.72876.0407 1.27589.76847 1.22205 1.62549z" id="path4492-4-55-06-9-0-7-7-4-6" class="top_accent"/></g><path style="display:inline;fill-opacity:1;fill:none;opacity:1;stroke-dasharray:none;stroke-dashoffset:0;stroke-linecap:butt;stroke-linejoin:miter;stroke-miterlimit:4;stroke-opacity:1;stroke-width:.453543;stroke:#343434;vector-effect:none" d="m281.09647 265.87108c-.0192.15669-.0382.31336-.0571.47003-.4884 4.0453-.85508 7.9632-.95392 13.66193-.25987 14.98246-9.53966 25.0083-15.78542 37.61565-15.3751 31.03534-18.51424 68.95125-10.20092 93.52031" id="path16108-6-7-9-1-0"/><path style="display:inline;fill-opacity:1;fill:none;opacity:1;stroke-dasharray:none;stroke-dashoffset:0;stroke-linecap:butt;stroke-linejoin:miter;stroke-miterlimit:4;stroke-opacity:1;stroke-width:.453543;stroke:#7f7f7f;vector-effect:none" d="m274.91569 265.62602c-.045.40699-.0885.81406-.13067 1.22132-.40982 3.96175-.7157 7.82301-.89644 12.02294-.6022 13.99313-8.44643 23.47156-14.67581 35.5318-14.52141 28.11382-22.26257 69.35389-12.41037 96.12746" id="path16110-1-5-2-8-3"/></g><path d="m214.86719 405.45117c-.10345.0555.11252.43907.29297.4336 25.15383 4.20587 32.62636 5.79417 49.02929 5.87304l-.041-.42578c-16.28253-.0943-24.05214-1.66428-49.28125-5.88086z" id="path19249" class="shadow"/></svg>