<svg viewBox="0 0 560 1e3"><path d="m355.58016 177.90382c-16.75489-1.68047-24.26783-1.85552-25.04266-28.06007l.0614-2.54085c-4.44209 8.81484-9.17434 14.60849-14.23043 18.88685-4.61614 3.90609-9.48739 6.51233-13.25962 9.74301l-2.79922-.84568.24144 6.93439c-5.15857 4.49938-19.55545 5.94373-26.62292 8.06291-.5.3-.26562.32812.23438.52812 4.47439.22267 8.86726.68988 12.875 2.3125 1.1.6 1.9 1.6 2.3 2.8-2.64855 5.11669-3.20471 10.23338-4.70413 15.35007 5.7721-5.57757 11.41269-11.23251 19.12659-15.66784 1.4-.8 2.9-1.4 4.4-1.8 16.28714-6.9193 28.71122-10.2157 47.6202-14.30341.7-.2.6-1.3-.2-1.4z" id="path1012"/><path class="steel_chastity" d="m305.2 184.4c-.7.0-1.4-.2-2-.5-1.3-.7-2-2.1-2-3.5.0-.7.2-1.4.5-2 .4-.7 1-1.3 1.7-1.6.2-.1.5.0.7.2.1.2.0.5-.2.7-.5.3-1 .7-1.3 1.2s-.4 1-.4 1.5c0 1.1.6 2.1 1.5 2.7.5.3 1 .4 1.5.4 1.1.0 2.1-.6 2.7-1.5.3-.5.4-1 .4-1.5.0-1.1-.6-2.1-1.5-2.7-.2-.1-.3-.4-.2-.7.1-.2.4-.3.7-.2 1.3.7 2 2.1 2 3.5.0.7-.2 1.4-.5 2-.8 1.2-2.2 2-3.6 2z" id="path8-4"/></svg>