<svg viewBox="0 0 560 1e3"><defs><clipPath clipPathUnits="userSpaceOnUse" id="clipPathBelly_9_Unnatural"><path style="display:inline;fill-opacity:.19607843;fill:#0ff;opacity:1" d="m357.49805 230.06641c-49.88118 16.16626-72.61195 16.52565-114.35157 11.42968-.76058 4.842-.96415 9.88674-.40625 15.07032.13153 3.90391.64823 8.57927 2.00782 13.16797.35421 1.1955.69613 2.33327 1.02532 3.42138 4.10848 10.03828-6.76186 16.10038-11.51946 22.72315-24.08168 17.42062-52.02161 63.92861-46.89844 117.2207 2.85628 52.58607 63.1503 65.79581 92.10742 66.10937 30.33614 1.12304 69.13902-16.88058 86.51758-59.26171 2.87946-5.49858 4.41497-11.63353 4.88867-18.15039 3.09493-4.17389 5.83923-7.96908 8.03906-11.06836-3.33091-7.11265-6.21373-14.52625-9.63281-21.14844-1.6411-3.45083-2.24103-4.55467-4.01953-8.16406-3.67625-6.20806-5.05182-10.20375-8.19727-15.29493-8.65345-17.9296-19.60785-33.73868-27.71875-42.69531.0735-1.75819.33898-3.6044.85938-5.54101 6.18485-23.01618 8.88791-19.12327 18.33008-32.67774 8.1747-11.82703 11.96289-23.21484 11.96289-23.21484-1.23312-2.31543-2.22114-6.60776-2.99414-11.92578z" id="path42739"/></clipPath><clipPath clipPathUnits="userSpaceOnUse" id="clipPathBelly_8_Unnatural"><path style="display:inline;fill-opacity:.19607843;fill:#0ff;opacity:1" d="m357.49805 230.06641c-49.88118 16.16626-72.61195 16.52565-114.35157 11.42968-.76058 4.842-.96415 9.88674-.40625 15.07032.13153 3.90391.64823 8.57927 2.00782 13.16797 1.40572 4.74439 2.22834 7.29045 3.10114 10.32652.29116.89104.17156 1.64989-.57796 2.9515-4.72963 5.67923-5.59889 6.57698-10.82384 11.85418-22.02252 16.73799-46.93946 59.16209-42.27747 107.65686 2.48806 45.80699 52.05687 59.33024 80.22656 61.00586 8.28755 6.0494 15.97065 9.78499 21.17188 9.11132 25.4005-3.28987 67.4841-59.57335 83.33984-81.9121-3.33091-7.11265-6.21373-14.52625-9.63281-21.14844-1.6411-3.45083-2.24103-4.55467-4.01953-8.16406-5.93531-10.02291-5.86545-14.27048-16.94922-26.69336-6.10557-11.61192-13.0225-21.92936-18.9668-29.29883-.1007-2.34025.13783-4.85391.85938-7.53906 6.18485-23.01618 8.88791-19.12327 18.33008-32.67774 8.1747-11.82703 11.96289-23.21484 11.96289-23.21484-1.23312-2.31543-2.22114-6.60776-2.99414-11.92578z" id="path42750"/></clipPath><clipPath clipPathUnits="userSpaceOnUse" id="clipPathBelly_7_Unnatural"><path style="display:inline;fill-opacity:.19607843;fill:#0ff;opacity:1" d="m357.49805 230.06641c-49.88118 16.16626-72.61195 16.52565-114.35157 11.42968-.76058 4.842-.96415 9.88674-.40625 15.07032.13153 3.90391.64823 8.57927 2.00782 13.16797 1.34376 4.53526 2.4999 8.23561 3.45779 11.54152.99066 3.86102-1.70549 4.30091-6.66482 10.54441-20.14971 14.57625-43.52692 53.49128-39.24024 98.08203 1.60933 29.62889 25.01011 44.3052 47.52344 50.82032 15.24603 17.2102 35.39435 33.25847 45.74414 31.91796 25.4005-3.28987 67.4841-59.57335 83.33984-81.9121-3.33091-7.11265-6.21373-14.52625-9.63281-21.14844-1.6411-3.45083-2.24103-4.55467-4.01953-8.16406-7.0689-11.93721-5.6819-15.72766-24.70313-34.84961-3.46899-6.39325-7.17417-12.30196-10.74414-17.37305-.69596-3.34124-.73547-7.11797.39063-11.30859 6.18485-23.01618 8.88791-19.12327 18.33008-32.67774 8.1747-11.82703 11.96289-23.21484 11.96289-23.21484-1.23312-2.31543-2.22114-6.60776-2.99414-11.92578z" id="path42758"/></clipPath><clipPath clipPathUnits="userSpaceOnUse" id="clipPathBelly_6_Unnatural"><path style="display:inline;fill-opacity:.19607843;fill:#0ff;opacity:1" d="m357.49805 230.06641c-49.88118 16.16626-72.61195 16.52565-114.35157 11.42968-.76058 4.842-.96415 9.88674-.40625 15.07032.13153 3.90391.64823 8.57927 2.00782 13.16797 3.0943 10.44345 5.2495 16.51368 6.16406 23.43164-1.85648 2.64351-4.93883 5.77407-8.61719 9.58789-17.1935 12.55258-37.04877 45.73408-33.39453 83.74609.0293.56726.07 1.1282.12109 1.68359 1.7131 19.26609 14.44074 30.86928 29.04883 37.55274 14.36302 21.33002 44.12171 48.6368 57.49805 46.90429 25.4005-3.28987 67.4841-59.57335 83.33984-81.9121-3.33091-7.11265-6.21373-14.52625-9.63281-21.14844-1.6411-3.45083-2.24103-4.55467-4.01953-8.16406-7.29948-12.32658-5.51372-15.91501-26.56641-36.72266-3.68873-4.0896-12.1163-13.31461-8.49023-26.80859 6.18485-23.01618 8.88791-19.12327 18.33008-32.67774 8.1747-11.82703 11.96289-23.21484 11.96289-23.21484-1.23312-2.31543-2.22114-6.60776-2.99414-11.92578z" id="path42771"/></clipPath><clipPath clipPathUnits="userSpaceOnUse" id="clipPathBelly_5_Unnatural"><path style="display:inline;fill-opacity:.19607843;fill:#0ff;opacity:1" d="m357.49805 230.06641c-49.88118 16.16626-72.61195 16.52565-114.35157 11.42968-.76058 4.842-.96415 9.88674-.40625 15.07032.13153 3.90391.64823 8.57927 2.00782 13.16797 3.0694 10.35942 5.21356 16.41659 6.14062 23.26562-8.46547 12.18282-40.1355 34.64556-35.77929 87.13672.52884 13.85975 6.61889 23.59988 15.30273 30.24805 4.65085 19.71029 48.14812 64.45875 65.15625 62.25585 25.4005-3.28987 67.4841-59.57335 83.33984-81.9121-3.33091-7.11265-6.21373-14.52625-9.63281-21.14844-1.6411-3.45083-2.24103-4.55467-4.01953-8.16406-7.29948-12.32658-5.51372-15.91501-26.56641-36.72266-3.68873-4.0896-12.1163-13.31461-8.49023-26.80859 6.18485-23.01618 8.88791-19.12327 18.33008-32.67774 8.1747-11.82703 11.96289-23.21484 11.96289-23.21484-1.23312-2.31543-2.22114-6.60776-2.99414-11.92578z" id="path42781"/></clipPath><clipPath clipPathUnits="userSpaceOnUse" id="clipPathBelly_4_Unnatural"><path style="display:inline;fill-opacity:.19607843;fill:#0ff;opacity:1" d="m357.49805 230.06641c-49.88118 16.16626-72.61195 16.52565-114.35157 11.42968-.76058 4.842-.96415 9.88674-.40625 15.07032.13153 3.90391.64823 8.57927 2.00782 13.16797 3.1283 10.55821 5.30036 16.64465 6.19726 23.6582-7.2717 11.89968-31.97092 31.11878-27.23828 74.72265-.33427 9.23914 3.17811 18.16722 8.61133 26.02735-.14535.92326-.28074 1.80863-.44141 2.79297-.37638 2.03994-.75184 4.29712-1.86718 10.63476.54263 17.83339 47.68265 67.38561 65.55859 65.07031 25.4005-3.28987 67.4841-59.57335 83.33984-81.9121-3.33091-7.11265-6.21373-14.52625-9.63281-21.14844-1.6411-3.45083-2.24103-4.55467-4.01953-8.16406-7.29948-12.32658-5.51372-15.91501-26.56641-36.72266-3.68873-4.0896-12.1163-13.31461-8.49023-26.80859 6.18485-23.01618 8.88791-19.12327 18.33008-32.67774 8.1747-11.82703 11.96289-23.21484 11.96289-23.21484-1.23312-2.31543-2.22114-6.60776-2.99414-11.92578z" id="path42792"/></clipPath><clipPath clipPathUnits="userSpaceOnUse" id="clipPathBelly_3_Unnatural"><path style="display:inline;fill-opacity:.19607843;fill:#0ff;opacity:1" d="m357.49805 230.06641c-49.88118 16.16626-72.61195 16.52565-114.35157 11.42968-.76058 4.842-.96415 9.88674-.40625 15.07032.13153 3.90391.64823 8.57927 2.00782 13.16797 4.58009 15.45809 7.11428 21.32684 6.59179 34.5625-.003.0773-.001.15509-.004.23242-10.25606 27.53096-19.3161 38.17899-17.79102 59.0625.53095 2.5946 1.12955 5.04678 1.78516 7.37695-.856 7.91396-1.65318 14.93926-3.45313 25.9668-.37638 2.03994-.75184 4.29712-1.86718 10.63476.54263 17.83339 47.68265 67.38561 65.55859 65.07031 25.4005-3.28987 67.4841-59.57335 83.33984-81.9121-3.33091-7.11265-6.21373-14.52625-9.63281-21.14844-1.6411-3.45083-2.24103-4.55467-4.01953-8.16406-7.29948-12.32658-5.51372-15.91501-26.56641-36.72266-3.68873-4.0896-12.1163-13.31461-8.49023-26.80859 6.18485-23.01618 8.88791-19.12327 18.33008-32.67774 8.1747-11.82703 11.96289-23.21484 11.96289-23.21484-1.23312-2.31543-2.22114-6.60776-2.99414-11.92578z" id="path42804"/></clipPath><clipPath clipPathUnits="userSpaceOnUse" id="clipPathBelly_2_Unnatural"><path style="display:inline;fill-opacity:.19607843;fill:#0ff;opacity:1" d="m357.49805 230.06641c-49.88118 16.16626-72.61195 16.52565-114.35157 11.42968-.76058 4.842-.96415 9.88674-.40625 15.07032.13153 3.90391.64823 8.57927 2.00782 13.16797 4.50369 15.20023 7.02319 21.14407 6.60937 33.92187-5.12702 15.65095-7.7102 24.84358-8.73242 33.66992-.257 1.67971-.46002 3.35209-.61328 5.05664-2.36739 5.31127-4.49269 11.44191-5.51953 18.17188-.008-.006-.0157-.0114-.0234-.0176-.0229.19927-.0322.30749-.0547.50391-.16457 1.14255-.28798 2.30432-.38476 3.47851-1.21611 11.04254-1.88093 18.49992-4.15235 32.41602-.37638 2.03994-.75184 4.29712-1.86718 10.63476.54263 17.83339 47.68265 67.38561 65.55859 65.07031 25.4005-3.28987 67.4841-59.57335 83.33984-81.9121-3.33091-7.11265-6.21373-14.52625-9.63281-21.14844-1.6411-3.45083-2.24103-4.55467-4.01953-8.16406-7.29948-12.32658-5.51372-15.91501-26.56641-36.72266-3.68873-4.0896-12.1163-13.31461-8.49023-26.80859 6.18485-23.01618 8.88791-19.12327 18.33008-32.67774 8.1747-11.82703 11.96289-23.21484 11.96289-23.21484-1.23312-2.31543-2.22114-6.60776-2.99414-11.92578z" id="path42817"/></clipPath><clipPath clipPathUnits="userSpaceOnUse" id="clipPathBelly_1_Unnatural"><path style="display:inline;fill-opacity:.19607843;fill:#0ff;opacity:1" d="m357.49805 230.06641c-49.88118 16.16626-72.61195 16.52565-114.35157 11.42968-.76058 4.842-.96415 9.88674-.40625 15.07032.13153 3.90391.64823 8.57927 2.00782 13.16797 3.37706 11.3978 5.6359 17.58771 6.38281 25.35546-.16087.58663-.32833 1.18872-.48242 1.76172-5.13767 13.8856-5.82563 26.79833-5.24373 36.34436-.0472 1.78853-.32004 2.89319-1.02412 4.24088-3.23728 6.28332-6.52513 14.18289-7.8884 23.11789-.008-.006-.0157-.0114-.0234-.0176-.0229.19927-.0322.30749-.0547.50391-.16457 1.14255-.28798 2.30432-.38476 3.47851-1.21611 11.04254-1.88093 18.49992-4.15235 32.41602-.37638 2.03994-.75184 4.29712-1.86718 10.63476.54263 17.83339 47.68265 67.38561 65.55859 65.07031 25.4005-3.28987 67.4841-59.57335 83.33984-81.9121-3.33091-7.11265-6.21373-14.52625-9.63281-21.14844-1.6411-3.45083-2.24103-4.55467-4.01953-8.16406-7.29948-12.32658-5.51372-15.91501-26.56641-36.72266-3.68873-4.0896-12.1163-13.31461-8.49023-26.80859 6.18485-23.01618 8.88791-19.12327 18.33008-32.67774 8.1747-11.82703 11.96289-23.21484 11.96289-23.21484-1.23312-2.31543-2.22114-6.60776-2.99414-11.92578z" id="path42831"/></clipPath><clipPath clipPathUnits="userSpaceOnUse" id="clipPathBelly_1_Hourglass"><path style="display:inline;fill-opacity:.19607843;fill:red;opacity:1" d="m357.49609 230.05273c-44.02018 18.50933-91.79981 15.52681-114.34961 11.44336-.76055 4.84194-.96415 9.88681-.40625 15.07032.94813 18.58839 5.23565 31.45261 5.24219 47.80664 16e-5.39812-.0112.78098-.0176 1.16992-1.52977 6.03087-2.29693 11.7533-2.58203 16.96094-3.11997 10.86974-8.08142 20.11028-9.26172 37.71679-.002-.001-.004-.002-.006-.004-.0167.18472-.0285.31761-.0449.5-.003.0333-.005.0663-.008.0996-1.20439 13.41903-1.66357 20.66796-4.18555 36.11914-.52181 2.71738-.68965 3.72422-1.82226 10.47851.21871 20.95565 50.78661 67.30306 64.88867 65.47656 24.70321-3.19954 66.98155-58.24257 83.95703-82.08984-2.65001-6.3252-6.51349-14.54763-9.625-21.2207-1.6411-3.45083-2.24103-4.55467-4.01953-8.16406-5.0098-8.46001-5.74048-12.80421-12.51172-21.42383-8.04998-10.36524-18.7494-17.65223-18.42187-30.42774.29692-11.58113 5.01047-29.81439 9.46875-35.45117 11.69026-16.7409 16.70117-32.12109 16.70117-32.12109-1.23417-2.31741-2.22281-6.61514-2.9961-11.93946z" id="path55826-1"/></clipPath><clipPath clipPathUnits="userSpaceOnUse" id="clipPathBelly_2_Hourglass"><path style="display:inline;fill-opacity:.19607843;fill:#f0f;opacity:1" d="m357.49609 230.05273c-44.02018 18.50933-91.79981 15.52681-114.34961 11.44336-.76055 4.84194-.96415 9.88681-.40625 15.07032.94813 18.58839 5.23565 31.45261 5.24219 47.80664.009 22.01287-10.1079 29.69161-11.86133 55.84765-.002-.001-.004-.002-.006-.004-.0167.18472-.0285.31761-.0449.5-.003.0333-.005.0663-.008.0996-1.20439 13.41903-1.66357 20.66796-4.18555 36.11914-.52181 2.71738-.68965 3.72422-1.82226 10.47851.21871 20.95565 50.78661 67.30306 64.88867 65.47656 24.70321-3.19954 66.98155-58.24257 83.95703-82.08984-2.65001-6.3252-6.51349-14.54763-9.625-21.2207-1.6411-3.45083-2.24103-4.55467-4.01953-8.16406-5.0098-8.46001-5.74048-12.80421-12.51172-21.42383-8.04998-10.36524-18.7494-17.65223-18.42187-30.42774.29692-11.58113 5.01047-29.81439 9.46875-35.45117 11.69026-16.7409 16.70117-32.12109 16.70117-32.12109-1.23417-2.31741-2.22281-6.61514-2.9961-11.93946z" id="path55812-0"/></clipPath><clipPath clipPathUnits="userSpaceOnUse" id="clipPathBelly_3_Hourglass"><path style="display:inline;fill-opacity:.19607843;fill:#f0f;opacity:1" d="m357.49609 230.05273c-44.02018 18.50933-91.79981 15.52681-114.34961 11.44336-.76055 4.84194-.96415 9.88681-.40625 15.07032.94813 18.58839 5.23565 31.45261 5.24219 47.80664.002 4.08697-.34771 7.67755-.92578 10.98633-8.34072 19.95271-14.81977 30.32081-13.51172 48.23242.49522 2.41997 1.05227 4.71071 1.65625 6.90039-.73823 8.17749-1.47467 15.11188-3.32422 26.44336-.52181 2.71738-.68965 3.72422-1.82226 10.47851.21871 20.95565 50.78661 67.30306 64.88867 65.47656 24.70321-3.19954 66.98155-58.24257 83.95703-82.08984-2.65001-6.3252-6.51349-14.54763-9.625-21.2207-1.6411-3.45083-2.24103-4.55467-4.01953-8.16406-5.0098-8.46001-5.74048-12.80421-12.51172-21.42383-8.04998-10.36524-18.7494-17.65223-18.42187-30.42774.29692-11.58113 5.01047-29.81439 9.46875-35.45117 11.69026-16.7409 16.70117-32.12109 16.70117-32.12109-1.23417-2.31741-2.22281-6.61514-2.9961-11.93946z" id="path55795-6"/></clipPath><clipPath clipPathUnits="userSpaceOnUse" id="clipPathBelly_4_Hourglass"><path style="display:inline;fill-opacity:.19607843;fill:#f0f;opacity:1" d="m357.49609 230.05273c-44.02018 18.50933-91.79981 15.52681-114.34961 11.44336-.76055 4.84194-.96415 9.88681-.40625 15.07032.81942 16.06483 4.12689 27.85677 5.01563 41.31836-9.44845 12.22475-28.23184 31.69056-24.04883 70.23046-.33422 9.23775 3.17756 18.16417 8.60938 26.02344-.14585.92948-.2773 1.8034-.43946 2.79688-.52181 2.71738-.68965 3.72422-1.82226 10.47851.21871 20.95565 50.78661 67.30306 64.88867 65.47656 24.70321-3.19954 66.98155-58.24257 83.95703-82.08984-2.65001-6.3252-6.51349-14.54763-9.625-21.2207-1.6411-3.45083-2.24103-4.55467-4.01953-8.16406-5.0098-8.46001-5.74048-12.80421-12.51172-21.42383-8.04998-10.36524-18.7494-17.65223-18.42187-30.42774.29692-11.58113 5.01047-29.81439 9.46875-35.45117 11.69026-16.7409 16.70117-32.12109 16.70117-32.12109-1.23417-2.31741-2.22281-6.61514-2.9961-11.93946z" id="path55783-6"/></clipPath><clipPath clipPathUnits="userSpaceOnUse" id="clipPathBelly_5_Hourglass"><path style="display:inline;fill-opacity:.19607843;fill:#f0f;opacity:1" d="m357.49609 230.05273c-44.02018 18.50933-91.79981 15.52681-114.34961 11.44336-.76055 4.84194-.96415 9.88681-.40625 15.07032.80156 15.71479 3.97877 27.34363 4.94922 40.44336-11.27349 12.99697-36.49836 35.91263-32.58007 83.12695.52821 13.84326 6.60416 23.57697 15.27148 30.22461 4.3317 22.04447 51.08887 64.2744 64.5625 62.52929 24.70321-3.19954 66.98155-58.24257 83.95703-82.08984-2.65001-6.3252-6.51349-14.54763-9.625-21.2207-1.6411-3.45083-2.24103-4.55467-4.01953-8.16406-5.0098-8.46001-5.74048-12.80421-12.51172-21.42383-8.04998-10.36524-18.7494-17.65223-18.42187-30.42774.29692-11.58113 5.01047-29.81439 9.46875-35.45117 11.69026-16.7409 16.70117-32.12109 16.70117-32.12109-1.23417-2.31741-2.22281-6.61514-2.9961-11.93946z" id="path55772-5"/></clipPath><clipPath clipPathUnits="userSpaceOnUse" id="clipPathBelly_6_Hourglass"><path style="display:inline;fill-opacity:.19607843;fill:#f0f;opacity:1" d="m357.49609 230.05273c-44.02018 18.50933-91.79981 15.52681-114.34961 11.44336-.76055 4.84194-.96415 9.88681-.40625 15.07032.80244 15.73199 3.98648 27.36901 4.95313 40.48632-1.56715 1.72666-3.36243 3.59019-5.39844 5.70118-17.1935 12.55258-37.04877 45.73408-33.39453 83.74609.0293.56726.07 1.1282.12109 1.68359 1.68856 18.99014 14.08 30.53231 28.42383 37.25977 14.60214 22.05319 46.70968 48.84458 57.49805 47.44726 24.70321-3.19954 66.98155-58.24257 83.95703-82.08984-2.65001-6.3252-6.51349-14.54763-9.625-21.2207-1.6411-3.45083-2.24103-4.55467-4.01953-8.16406-5.0098-8.46001-5.74048-12.80421-12.51172-21.42383-8.04998-10.36524-18.7494-17.65223-18.42187-30.42774.29692-11.58113 5.01047-29.81439 9.46875-35.45117 11.69026-16.7409 16.70117-32.12109 16.70117-32.12109-1.23417-2.31741-2.22281-6.61514-2.9961-11.93946z" id="path55762-5"/></clipPath><clipPath clipPathUnits="userSpaceOnUse" id="clipPathBelly_7_Hourglass"><path style="display:inline;fill-opacity:.19607843;fill:#f0f;opacity:1" d="m357.49609 230.05273c-44.02018 18.50933-91.79981 15.52681-114.34961 11.44336-.76055 4.84194-.96415 9.88681-.40625 15.07032.54967 10.77628 2.21728 19.62914 3.52576 28.35303.38326 2.43333-2.24143 3.64231-4.72497 6.90087-20.14971 14.57625-43.52692 53.49128-39.24024 98.08203 1.60035 29.46358 24.74961 44.14125 47.14649 50.71094 15.9103 17.4756 37.12608 33.36143 45.49609 32.27734 24.70321-3.19954 66.98155-58.24257 83.95703-82.08984-2.65001-6.3252-6.51349-14.54763-9.625-21.2207-1.6411-3.45083-2.24103-4.55467-4.01953-8.16406-5.0098-8.46001-5.74048-12.80421-12.51172-21.42383-4.52811-5.83045-9.89349-10.68633-13.66406-16.09375-32e-5-45e-5 31e-5-.002.0-.002-.85008-1.50526-1.71148-2.9717-2.57813-4.41015-1.42373-2.98844-2.27458-6.22045-2.17968-9.92188.29692-11.58113 5.01047-29.81439 9.46875-35.45117 11.69026-16.7409 16.70117-32.12109 16.70117-32.12109-1.23417-2.31741-2.22281-6.61514-2.9961-11.93946z" id="path55753-4"/></clipPath><clipPath clipPathUnits="userSpaceOnUse" id="clipPathBelly_8_Hourglass"><path style="display:inline;fill-opacity:.19607843;fill:#f0f;opacity:1" d="m357.49609 230.05273c-44.02018 18.50933-91.79981 15.52681-114.34961 11.44336-.76055 4.84194-.96415 9.88681-.40625 15.07032.50455 9.89189 1.95203 18.16299 3.19852 26.20141.51416 3.02003-.81329 2.6204-8.30008 11.07398-22.28916 16.12392-48.21058 59.35634-43.46875 108.68164 2.50074 46.04034 52.55624 59.46402 80.64844 61.02734 8.41907 6.1042 15.90725 9.88613 20.125 9.33984 24.70321-3.19954 66.98155-58.24257 83.95703-82.08984-2.65001-6.3252-6.51349-14.54763-9.625-21.2207-1.6411-3.45083-2.24103-4.55467-4.01953-8.16406-5.0098-8.46001-5.74048-12.80421-12.51172-21.42383-1.40684-1.81147-2.89495-3.51244-4.39062-5.18164-4.44424-8.4628-9.31752-16.23311-13.94141-22.68946-.0773-.82925-.11236-1.67829-.0898-2.55664.29692-11.58113 5.01047-29.81439 9.46875-35.45117 11.69026-16.7409 16.70117-32.12109 16.70117-32.12109-1.23417-2.31741-2.22281-6.61514-2.9961-11.93946z" id="path55745-6"/></clipPath><clipPath clipPathUnits="userSpaceOnUse" id="clipPathBelly_9_Hourglass"><path style="display:inline;fill-opacity:.19607843;fill:#f0f;opacity:1" d="m357.49609 230.05273c-44.02018 18.50933-91.79981 15.52681-114.34961 11.44336-.76055 4.84194-.96415 9.88681-.40625 15.07032.3799 7.44793 1.2909 13.97441 2.24966 20.17551 1.32158 7.13379-3.25846 9.67591-10.73598 19.13699-24.08168 17.42062-52.02161 63.92861-46.89844 117.2207 2.85628 52.58607 63.1503 65.79581 92.10742 66.10937 30.33614 1.12304 69.13902-16.88058 86.51758-59.26171 2.88032-5.50022 4.41547-11.63722 4.88867-18.15625 3.04895-4.07596 5.77539-7.82119 8.03125-10.99024-2.65001-6.3252-6.51349-14.54763-9.625-21.2207-1.6411-3.45083-2.24103-4.55467-4.01953-8.16406-3.65395-6.1704-5.05112-10.16184-8.15625-15.20899-6.98547-14.49144-15.47654-27.59961-22.76758-36.8418.34383-11.58967 5.02542-29.64642 9.45899-35.25195 11.69026-16.7409 16.70117-32.12109 16.70117-32.12109-1.23417-2.31741-2.22281-6.61514-2.9961-11.93946z" id="path55738-0"/></clipPath><clipPath clipPathUnits="userSpaceOnUse" id="clipPathBelly_1_Normal"><path style="display:inline;fill-opacity:.19607843;fill:red;opacity:1" d="m357.37109 230.09766c-6.17894 1.85299-11.79828 5.76528-17.99414 7.25976-6.8017 1.64062-13.61548 3.05025-20.4414 4.19141-6.82592 1.14116-13.66344 2.01478-20.51758 2.58594-6.85414.57115-13.723.83894-20.60938.76953-3.44318-.0347-6.89175-.15326-10.34375-.36133-3.45199-.20807-6.90783-.50623-10.36914-.89649-3.4613-.39026-6.92732-.87381-10.39843-1.45507-1.16025-.1943-2.32495-.46535-3.48633-.68164-.76193 4.8452-1.02901 9.86931-.47071 15.05664.51443 11.65717 5.12736 38.64403 4.875 47.6289-.0331 1.17805-.10233 2.31785-.17382 3.45313-1.20701 5.30887-1.81698 10.34317-2.06446 14.97656-2.95391 14.04191-7.89216 25.16656-9.25586 37.5957-.002-.001-.004-.002-.006-.004-.0167.18472-.0285.31761-.0449.5-.003.0333-.005.0663-.008.0996-1.20439 13.41903-1.66357 20.66796-4.18555 36.11914-.81807 4.20419-.64023 3.59931-1.83398 10.18164-1.58567 17.8779 47.47491 67.59516 65.40039 65.27343 24.27011-3.14346 70.65403-63.34025 83.41406-81.69335-4.05154-9.14731-6.15729-13.76306-9.58203-21.11719-1.6411-3.45083-2.24103-4.55467-4.01953-8.16406-8.34178-14.34503-15.68468-42.46709-16.3125-47.75586-.68733-9.74952-.75896-18.84283 1.9082-31.52539 5.45445-19.51494 9.64063-40.14258 9.64063-40.14258-1.03569-1.94472-1.78268-5.24964-2.49024-9.41992z" id="path56145-0"/></clipPath><clipPath clipPathUnits="userSpaceOnUse" id="clipPathBelly_2_Normal"><path style="display:inline;fill-opacity:.19607843;fill:#ff0;opacity:1" d="m357.37109 230.09766c-6.17894 1.85299-11.79828 5.76528-17.99414 7.25976-6.8017 1.64062-13.61548 3.05025-20.4414 4.19141-6.82592 1.14116-13.66344 2.01478-20.51758 2.58594-6.85414.57115-13.723.83894-20.60938.76953-3.44318-.0347-6.89175-.15326-10.34375-.36133-3.45199-.20807-6.90783-.50623-10.36914-.89649-3.4613-.39026-6.92732-.87381-10.39843-1.45507-1.16025-.1943-2.32495-.46535-3.48633-.68164-.76193 4.8452-1.02901 9.86931-.47071 15.05664.51443 11.65717 5.12736 38.64403 4.875 47.6289-.66982 23.8485-9.58722 38.64511-11.49414 56.02539-.002-.001-.004-.002-.006-.004-.0167.18472-.0285.31761-.0449.5-.003.0333-.005.0663-.008.0996-1.20439 13.41903-1.66357 20.66796-4.18555 36.11914-.81807 4.20419-.64023 3.59931-1.83398 10.18164-1.58567 17.8779 47.47491 67.59516 65.40039 65.27343 24.27011-3.14346 70.65403-63.34025 83.41406-81.69335-4.05154-9.14731-6.15729-13.76306-9.58203-21.11719-1.6411-3.45083-2.24103-4.55467-4.01953-8.16406-8.34178-14.34503-15.68468-42.46709-16.3125-47.75586-.68733-9.74952-.75896-18.84283 1.9082-31.52539 5.45445-19.51494 9.64063-40.14258 9.64063-40.14258-1.03569-1.94472-1.78268-5.24964-2.49024-9.41992z" id="path56131-0"/></clipPath><clipPath clipPathUnits="userSpaceOnUse" id="clipPathBelly_3_Normal"><path style="display:inline;fill-opacity:.19607843;fill:#ff0;opacity:1" d="m357.37109 230.09766c-6.17894 1.85299-11.79828 5.76528-17.99414 7.25976-6.8017 1.64062-13.61548 3.05025-20.4414 4.19141-6.82592 1.14116-13.66344 2.01478-20.51758 2.58594-6.85414.57115-13.723.83894-20.60938.76953-3.44318-.0347-6.89175-.15326-10.34375-.36133-3.45199-.20807-6.90783-.50623-10.36914-.89649-3.4613-.39026-6.92732-.87381-10.39843-1.45507-1.16025-.1943-2.32495-.46535-3.48633-.68164-.76193 4.8452-1.02901 9.86931-.47071 15.05664.51443 11.65717 5.12736 38.64403 4.875 47.6289-.12612 4.49054-.5452 8.65959-1.15429 12.58594-8.04957 19.03261-14.19265 29.32924-12.91602 46.81055.49522 2.41997 1.05227 4.71071 1.65625 6.90039-.73823 8.17749-1.47467 15.11188-3.32422 26.44336-.81807 4.20419-.64023 3.59931-1.83398 10.18164-1.58567 17.8779 47.47491 67.59516 65.40039 65.27343 24.27011-3.14346 70.65403-63.34025 83.41406-81.69335-4.05154-9.14731-6.15729-13.76306-9.58203-21.11719-1.6411-3.45083-2.24103-4.55467-4.01953-8.16406-8.34178-14.34503-15.68468-42.46709-16.3125-47.75586-.68733-9.74952-.75896-18.84283 1.9082-31.52539 5.45445-19.51494 9.64063-40.14258 9.64063-40.14258-1.03569-1.94472-1.78268-5.24964-2.49024-9.41992z" id="path56118-5"/></clipPath><clipPath clipPathUnits="userSpaceOnUse" id="clipPathBelly_4_Normal"><path style="display:inline;fill-opacity:.19607843;fill:#ff0;opacity:1" d="m357.37109 230.09766c-6.17894 1.85299-11.79828 5.76528-17.99414 7.25976-6.8017 1.64062-13.61548 3.05025-20.4414 4.19141-6.82592 1.14116-13.66344 2.01478-20.51758 2.58594-6.85414.57115-13.723.83894-20.60938.76953-3.44318-.0347-6.89175-.15326-10.34375-.36133-3.45199-.20807-6.90783-.50623-10.36914-.89649-3.4613-.39026-6.92732-.87381-10.39843-1.45507-1.16025-.1943-2.32495-.46535-3.48633-.68164-.76193 4.8452-1.02901 9.86931-.47071 15.05664.42935 9.72918 3.70491 30.10278 4.63282 41.81054-9.56177 12.25466-27.79408 31.70472-23.66602 69.73828-.33422 9.23775 3.17756 18.16417 8.60938 26.02344-.14585.92948-.2773 1.8034-.43946 2.79688-.81807 4.20419-.64023 3.59931-1.83398 10.18164-1.58567 17.8779 47.47491 67.59516 65.40039 65.27343 24.27011-3.14346 70.65403-63.34025 83.41406-81.69335-4.05154-9.14731-6.15729-13.76306-9.58203-21.11719-1.6411-3.45083-2.24103-4.55467-4.01953-8.16406-8.34178-14.34503-15.68468-42.46709-16.3125-47.75586-.68733-9.74952-.75896-18.84283 1.9082-31.52539 5.45445-19.51494 9.64063-40.14258 9.64063-40.14258-1.03569-1.94472-1.78268-5.24964-2.49024-9.41992z" id="path56106-4"/></clipPath><clipPath clipPathUnits="userSpaceOnUse" id="clipPathBelly_5_Normal"><path style="display:inline;fill-opacity:.19607843;fill:#ff0;opacity:1" d="m357.37109 230.09766c-6.17894 1.85299-11.79828 5.76528-17.99414 7.25976-6.8017 1.64062-13.61548 3.05025-20.4414 4.19141-6.82592 1.14116-13.66344 2.01478-20.51758 2.58594-6.85414.57115-13.723.83894-20.60938.76953-3.44318-.0347-6.89175-.15326-10.34375-.36133-3.45199-.20807-6.90783-.50623-10.36914-.89649-3.4613-.39026-6.92732-.87381-10.39843-1.45507-1.16025-.1943-2.32495-.46535-3.48633-.68164-.76193 4.8452-1.02901 9.86931-.47071 15.05664.41789 9.46948 3.54054 29.05482 4.5625 40.88867-11.45001 13.07252-36.06803 35.99275-32.19335 82.68164.52492 13.75716 6.52626 23.45892 15.10742 30.10351 3.39155 19.91318 48.25682 64.34833 65.22656 62.15039 24.27011-3.14346 70.65403-63.34025 83.41406-81.69335-4.05154-9.14731-6.15729-13.76306-9.58203-21.11719-1.6411-3.45083-2.24103-4.55467-4.01953-8.16406-8.34178-14.34503-15.68468-42.46709-16.3125-47.75586-.68733-9.74952-.75896-18.84283 1.9082-31.52539 5.45445-19.51494 9.64063-40.14258 9.64063-40.14258-1.03569-1.94472-1.78268-5.24964-2.49024-9.41992z" id="path56095-0"/></clipPath><clipPath clipPathUnits="userSpaceOnUse" id="clipPathBelly_6_Normal"><path style="display:inline;fill-opacity:.19607843;fill:#ff0;opacity:1" d="m357.37109 230.09766c-6.17894 1.85299-11.79828 5.76528-17.99414 7.25976-6.8017 1.64062-13.61548 3.05025-20.4414 4.19141-6.82592 1.14116-13.66344 2.01478-20.51758 2.58594-6.85414.57115-13.723.83894-20.60938.76953-3.44318-.0347-6.89175-.15326-10.34375-.36133-3.45199-.20807-6.90783-.50623-10.36914-.89649-3.4613-.39026-6.92732-.87381-10.39843-1.45507-1.16025-.1943-2.32495-.46535-3.48633-.68164-.76193 4.8452-1.02901 9.86931-.47071 15.05664.41815 9.47532 3.54446 29.07858 4.56446 40.91015-1.48414 1.61512-3.13597 3.33454-5.00977 5.27735-17.1935 12.55258-37.04877 45.73408-33.39453 83.74609.0293.56726.07 1.1282.12109 1.68359 1.67732 18.86368 13.91469 30.38032 28.13672 37.12696 14.00855 21.39837 44.86732 48.81796 58.28516 47.08007 24.27011-3.14346 70.65403-63.34025 83.41406-81.69335-4.05154-9.14731-6.15729-13.76306-9.58203-21.11719-1.6411-3.45083-2.24103-4.55467-4.01953-8.16406-8.34178-14.34503-15.68468-42.46709-16.3125-47.75586-.68733-9.74952-.75896-18.84283 1.9082-31.52539 5.45445-19.51494 9.64063-40.14258 9.64063-40.14258-1.03569-1.94472-1.78268-5.24964-2.49024-9.41992z" id="path56085-7"/></clipPath><clipPath clipPathUnits="userSpaceOnUse" id="clipPathBelly_7_Normal"><path style="display:inline;fill-opacity:.19607843;fill:#ff0;opacity:1" d="m357.37109 230.09766c-6.17894 1.85299-11.79828 5.76528-17.99414 7.25976-6.8017 1.64062-13.61548 3.05025-20.4414 4.19141-6.82592 1.14116-13.66344 2.01478-20.51758 2.58594-6.85414.57115-13.723.83894-20.60938.76953-3.44318-.0347-6.89175-.15326-10.34375-.36133-3.45199-.20807-6.90783-.50623-10.36914-.89649-3.4613-.39026-6.92732-.87381-10.39843-1.45507-1.16025-.1943-2.32495-.46535-3.48633-.68164-.76193 4.8452-1.02901 9.86931-.47071 15.05664.29061 6.5852 1.88607 18.05244 3.17594 28.4108.42879 2.88716-.98334 2.60752-4.37515 6.8431-20.14971 14.57625-43.52692 53.49128-39.24024 98.08203 1.58918 29.25793 24.42782 43.9375 46.67774 50.57422 15.37055 17.22369 36.1083 33.25545 46.46484 31.91406 24.27011-3.14346 70.65403-63.34025 83.41406-81.69335-4.05154-9.14731-6.15729-13.76306-9.58203-21.11719-1.6411-3.45083-2.24103-4.55467-4.01953-8.16406-8.34178-14.34503-15.68468-42.46709-16.3125-47.75586-.68733-9.74952-.75896-18.84283 1.9082-31.52539 5.45445-19.51494 9.64063-40.14258 9.64063-40.14258-1.03569-1.94472-1.78268-5.24964-2.49024-9.41992z" id="path56076-5"/></clipPath><clipPath clipPathUnits="userSpaceOnUse" id="clipPathBelly_8_Normal"><path style="display:inline;fill-opacity:.19607843;fill:#ff0;opacity:1" d="m357.37109 230.09766c-6.17894 1.85299-11.79828 5.76528-17.99414 7.25976-6.8017 1.64062-13.61548 3.05025-20.4414 4.19141-6.82592 1.14116-13.66344 2.01478-20.51758 2.58594-6.85414.57115-13.723.83894-20.60938.76953-3.44318-.0347-6.89175-.15326-10.34375-.36133-3.45199-.20807-6.90783-.50623-10.36914-.89649-3.4613-.39026-6.92732-.87381-10.39843-1.45507-1.16025-.1943-2.32495-.46535-3.48633-.68164-.76193 4.8452-1.02901 9.86931-.47071 15.05664.26536 6.01318 1.6203 16.10167 2.8361 25.69663.39089 4.06992-.99793 3.43678-8.00016 11.76626-22.28916 16.12392-48.14808 59.16884-43.40625 108.49414 2.48449 45.7411 51.9169 59.2927 80.10742 61 8.32875 5.91076 16.0277 9.5327 21.16602 8.86718 24.27011-3.14346 70.65403-63.34025 83.41406-81.69335-4.05154-9.14731-6.15729-13.76306-9.58203-21.11719-1.6411-3.45083-2.24103-4.55467-4.01953-8.16406-8.34178-14.34503-15.68468-42.46709-16.3125-47.75586-.68733-9.74952-.75896-18.84283 1.9082-31.52539 5.45445-19.51494 9.64063-40.14258 9.64063-40.14258-1.03569-1.94472-1.78268-5.24964-2.49024-9.41992z" id="path56068-2"/></clipPath><clipPath clipPathUnits="userSpaceOnUse" id="clipPathBelly_9_Normal"><path style="display:inline;fill-opacity:.19607843;fill:#ff0;opacity:1" d="m357.37109 230.09766c-6.17894 1.85299-11.79828 5.76528-17.99414 7.25976-6.8017 1.64062-13.61548 3.05025-20.4414 4.19141-6.82592 1.14116-13.66344 2.01478-20.51758 2.58594-6.85414.57115-13.723.83894-20.60938.76953-3.44318-.0347-6.89175-.15326-10.34375-.36133-3.45199-.20807-6.90783-.50623-10.36914-.89649-3.4613-.39026-6.92732-.87381-10.39843-1.45507-1.16025-.1943-2.32495-.46535-3.48633-.68164-.76193 4.8452-1.02901 9.86931-.47071 15.05664.22808 5.16817 1.25533 13.32744 2.31036 21.60669.71965 7.17249-5.43612 10.63304-10.79668 17.70581-24.08168 17.42062-52.02161 63.92861-46.89844 117.2207 2.85628 52.58607 63.1503 65.79581 92.10742 66.10937 30.33614 1.12304 69.13902-16.88058 86.51758-59.26171 2.9046-5.54659 4.44325-11.73984 4.90234-18.32032 3.27479-4.34726 6.04498-8.15424 7.97461-10.92968-4.05154-9.14731-6.15729-13.76306-9.58203-21.11719-1.6411-3.45083-2.24103-4.55467-4.01953-8.16406-8.34178-14.34503-15.68468-42.46709-16.3125-47.75586-.68733-9.74952-.75896-18.84283 1.9082-31.52539 5.45445-19.51494 9.64063-40.14258 9.64063-40.14258-1.03569-1.94472-1.78268-5.24964-2.49024-9.41992z" id="path56061-6"/></clipPath></defs><path d="m195.91992 431.24608s11.35911-38.26822 20.7207-56.5664c6.99791-13.67811 15.71186-21.5961 26.81055-39.17188.007-.0109.0125-.0204.0195-.0312-.007.0109-.20013-.0421-.20703-.0312-11.09869 17.57578-20.11147 25.15783-27.10937 38.83594-9.36159 18.29818-20.48438 57.10547-20.48438 57.10547z" id="path18774" class="shadow"/><path d="m246.49219 336.1582c-.96084-.22535-1.99176-.45373-3.02149-.68164-.007.0109-32.48135-.32345-32.48825-.31255-9.47369 20.45078-9.67798 35.29069-10.3418 50.64063-.86159 19.92318-4.7207 45.4414-4.7207 45.4414z" id="path18776" class="top_primary"/><path d="m210.4668 334.99219c-9.47369 20.45078-9.6936 35.46256-10.35742 50.8125-.8175 18.90368-3.98827 43.23788-4.42969 45.57226l.24023-.13086s3.85911-25.51822 4.7207-45.4414c.66383-15.34994.86811-30.18985 10.3418-50.64063 11e-5-18e-5.51406.006.53125.006-.20234-.0368-1.04642-.17845-1.04687-.17773z" id="path18915" class="shadow"/><g style="stroke-width:1.17067" transform="matrix(0.8557963,-0.03788672,-0.01590996,0.85332852,10.654961,68.008092)" id="g18768"><path id="path18760" class="shadow" d="m311.04401 327.6899c.0522-.10709 7.00362.37294 7.78287 2.98975 1.09373 1.91041-2.71095 5.0065-2.81525 4.94713-.0624-.10254 7.16168-.42581 8.18384 2.13824.82618 2.04666-4.36222 4.60347-4.41092 4.5368.18756-.13865 8.76141.0136 9.37508 2.95661 1.12339 2.7339-5.04179 6.86259-5.08064 6.76687.17801-.0914 6.83044.80604 7.29555 3.1376.99465 2.53804-4.0223 6.41207-4.07764 6.30604.17207-.0883 8.56703 1.55963 8.9644 4.56029 1.01602 2.6197-4.88943 6.28089-5.03113 6.20815.1094-.0749 8.97405 1.71591 9.66103 4.9139 1.38429 3.32371-5.67328 8.79376-5.84007 8.74239.0763-.0104 8.03849 4.78518 7.56356 8.27073.0883 3.45544-7.85098 7.31249-7.90197 7.27062.15001-.0548 9.02844 6.59283 6.18398 9.86775-2.11902 3.09446-12.21137-.21607-12.26513-.39269.0165-.0806 2.22395 9.26158-1.73237 12.2649-5.26342 3.32418-17.88837-.8649-17.59669-1.01463.17956.0164-1.34524 8.44366-5.82577 9.89737-4.5076 1.64849-13.55715-4.10713-13.55715-4.30795.17277.2838-4.10847 6.59393-8.12207 6.7862.0.0-10.48671-4.77116-10.17145-4.94609.29167.0989-5.79892 4.83916-10.43279 4.62568-3.91425-.0968-8.69575-5.63783-8.57089-5.76602.18168.12789-7.46896 4.76081-11.76673 3.19345-3.81063-1.2341-5.11346-7.4931-4.96204-7.47396-.0296.21811-10.64044 3.62348-14.26381.83998-3.65492-2.13109-1.49016-10.09638-1.34588-10.10822-.13832.0568-7.77646-3.2513-8.37111-6.44327-1.27342-3.07674 3.11397-8.91689 3.39631-8.83959-.14867.0305-3.34488-5.29429-2.02206-7.96607.54322-2.43642 5.99585-5.00377 6.09658-4.93483-.0881.0362-1.90373-4.97675-.46419-7.36633.79291-2.30555 6.32486-4.80668 6.46038-4.75899-.13335.0274-1.42641-4.03491-.05-5.8995.70184-1.71401 4.30644-3.15261 4.34563-3.02387-.25505.0524-1.32182-3.33886-.27293-4.90796.86407-1.96083 4.77924-3.72749 4.75483-3.52701-.048.0.12068-3.08126 1.40387-4.44066.88392-1.8868 4.23392-4.31588 4.29183-4.20491-.1068.0329 1.54301-4.29535 3.4155-6.4064 1.05336-1.94277 5.13741-5.29514 5.24937-5.29514-.0584.006.95294-3.0619 2.45542-4.48355 1.19345-1.94404 4.55632-4.3091 4.56262-4.26767 21.08 4.88646 37.63366.81147 55.50803-.44514z"/><path class="top_accent" d="m311.04401 327.6899s6.84733.37283 7.78287 2.98975c.6387 1.78662-2.81525 4.94713-2.81525 4.94713s7.42648-.57766 8.18384 2.13824c.56655 2.03169-4.41092 4.5368-4.41092 4.5368s8.37349-.16331 9.37508 2.95661c.86218 2.68563-5.08064 6.76687-5.08064 6.76687s6.52509.60499 7.29555 3.1376c.72854 2.39482-4.07764 6.30604-4.07764 6.30604s8.26692 1.28109 8.9644 4.56029c.55415 2.60533-5.03113 6.20815-5.03113 6.20815s8.74735 1.41837 9.66103 4.9139c.88626 3.39062-5.84007 8.74239-5.84007 8.74239s7.72456 4.5383 7.56356 8.27073c-.15425 3.57598-7.90197 7.27062-7.90197 7.27062s8.1178 6.50196 6.18398 9.86775c-2.03778 3.54675-12.26513-.39269-12.26513-.39269s1.46134 9.64806-1.73237 12.2649c-4.54459 3.7237-17.59669-1.01463-17.59669-1.01463s-2.2505 8.52889-5.82577 9.89737c-4.42841 1.69502-13.55715-4.30795-13.55715-4.30795s-4.62018 6.35786-8.12207 6.7862c-3.7422.45774-10.17145-4.94609-10.17145-4.94609s-6.64323 4.95785-10.43279 4.62568c-3.43015-.30068-8.57089-5.76602-8.57089-5.76602s-7.96291 4.62455-11.76673 3.19345c-2.79886-1.05301-4.96204-7.47396-4.96204-7.47396s-10.5899 3.87098-14.26381.83998c-2.622-2.16317-1.34588-10.10822-1.34588-10.10822s-7.41836-3.05339-8.37111-6.44327c-.85408-3.03879 3.39631-8.83959 3.39631-8.83959s-2.8861-5.36632-2.02206-7.96607c.82459-2.48106 6.09658-4.93483 6.09658-4.93483s-1.5043-5.13669-.46419-7.36633c1.13073-2.4239 6.46038-4.75899 6.46038-4.75899s-.95325-4.15262-.05-5.8995c.81052-1.56758 4.34563-3.02387 4.34563-3.02387s-.96863-3.42448-.27293-4.90796c.83789-1.78667 4.75483-3.52701 4.75483-3.52701s.59123-3.11792 1.40387-4.44066c1.0484-1.70649 4.29183-4.20491 4.29183-4.20491s1.97917-4.45875 3.4155-6.4064c1.47514-2.00028 5.24937-5.29514 5.24937-5.29514s1.41081-3.13734 2.45542-4.48355c1.27666-1.64525 4.56262-4.26767 4.56262-4.26767 21.08 4.88646 37.63366.81147 55.50803-.44514z" id="path18762"/><path d="m309.71288 327.6899c.17826-.0554 11.29343 14.89769 12.56072 23.45 5.35408 18.68238 17.63515 40.72923 4.38693 56.74234-20.35084 24.59804-79.88819 32.00846-104.40557 3.84551-10.16656-11.67826.99038-31.4387 9.04984-47.4412 5.24788-12.61332 23.50188-36.42668 24.91963-36.16771 20.31304 4.70868 36.26441.78195 53.48845-.42894z" class="shadow" id="path18764"/><path class="top_accent" id="path18766" d="m309.71288 327.6899s10.07222 14.93896 12.56072 23.45c5.32378 18.20822 17.01533 42.58588 4.38693 56.74234-23.18276 25.98792-81.71681 30.26582-104.40557 3.84551-10.48841-12.21341 2.84148-32.58757 9.04984-47.4412 5.64594-13.50803 24.91963-36.16771 24.91963-36.16771 20.31304 4.70868 36.26441.78195 53.48845-.42894z"/></g><g select_clip_options="clip-path=url(#clipPathBelly_1_Unnatural) url(#clipPathBelly_2_Unnatural) url(#clipPathBelly_3_Unnatural) url(#clipPathBelly_4_Unnatural) url(#clipPathBelly_5_Unnatural) url(#clipPathBelly_6_Unnatural) url(#clipPathBelly_7_Unnatural) url(#clipPathBelly_8_Unnatural) url(#clipPathBelly_9_Unnatural) url(#clipPathBelly_1_Hourglass) url(#clipPathBelly_2_Hourglass) url(#clipPathBelly_3_Hourglass) url(#clipPathBelly_4_Hourglass) url(#clipPathBelly_5_Hourglass) url(#clipPathBelly_6_Hourglass) url(#clipPathBelly_7_Hourglass) url(#clipPathBelly_8_Hourglass) url(#clipPathBelly_9_Hourglass) url(#clipPathBelly_1_Normal) url(#clipPathBelly_2_Normal) url(#clipPathBelly_3_Normal) url(#clipPathBelly_4_Normal) url(#clipPathBelly_5_Normal) url(#clipPathBelly_6_Normal) url(#clipPathBelly_7_Normal) url(#clipPathBelly_8_Normal) url(#clipPathBelly_9_Normal)" select_clip="torso_outfit_belly" id="g18772" style="display:inline;opacity:1"><path d="m360.16602 315.31139c-12.97746.29931-23.46414 2.50829-36.72461 5.16601-15.21533 3.04953-51.58618 8.51234-66.59375 9.56446-9.31456.65299-18.71311-.47851-27.39063-2.51368-10.49878-2.46231-28.3417-6.81046-35.3418-7.57812l-.99609 11.56863c6.05519.66404 24.16607 5.02411 34.24805 7.38867 9.36782 2.19707 19.6496 3.46653 30.12109 2.73242 15.60959-1.09432 52.25659-6.61349 67.75-9.71875 17.75044-3.55762 29.03015-6.05805 48.25-4.62304l.67969-11.59598c-5.07429-.37886-9.67614-.49039-14.00195-.39062z" id="path35754-8-52-4" class="top_accent"/></g></svg>