<svg viewBox="0 0 560 1e3"><defs><filter style="color-interpolation-filters:sRGB" id="filter14043"><feGaussianBlur stdDeviation="4 4" result="blur" id="feGaussianBlur14041"/></filter><clipPath clipPathUnits="userSpaceOnUse" id="clipPath14045"><path style="fill-opacity:.5;fill:#0ff" id="path14047" d="m314.77689 194.71339c-17.7702-.57746-44.79448 10.23164-50.43946 13.8457-26.78476 17.1483-35.64078 26.80967-73.3403 46.47844-23.33313 12.17347-30.73262 17.39335-38.08782 25.77004-11.50372 13.10138-13.60629 28.99714-13.50111 38.15337.49783 43.33896 22.88129 80.12037 63.39649 80.13086 44.55563.0115 32.44874-5.71148 58.64648-6.01172 19.57357-.22432 25.20225 1.14577 55.07073.52933 23.94272-.49414 45.68111-11.54119 61.95382-27.24936 18.3644-17.72729 29.35526-45.45693 29.52236-62.52269.61447-62.75483-42.73888-107.48351-93.22119-109.12397z"/></clipPath><clipPath clipPathUnits="userSpaceOnUse" id="clipPath14045-3"><path style="fill-opacity:.5;fill:#0ff" id="path14047-3" d="m314.77689 194.71339c-17.7702-.57746-44.79448 10.23164-50.43946 13.8457-26.78476 17.1483-35.64078 26.80967-73.3403 46.47844-23.33313 12.17347-30.73262 17.39335-38.08782 25.77004-11.50372 13.10138-13.60629 28.99714-13.50111 38.15337.49783 43.33896 22.88129 80.12037 63.39649 80.13086 44.55563.0115 32.44874-5.71148 58.64648-6.01172 19.57357-.22432 25.20225 1.14577 55.07073.52933 23.94272-.49414 45.68111-11.54119 61.95382-27.24936 18.3644-17.72729 29.35526-45.45693 29.52236-62.52269.61447-62.75483-42.73888-107.48351-93.22119-109.12397z"/></clipPath><filter style="color-interpolation-filters:sRGB" id="filter14043-9"><feGaussianBlur stdDeviation="4 4" result="blur" id="feGaussianBlur14041-2"/></filter><clipPath clipPathUnits="userSpaceOnUse" id="clipPath14045-3-2"><path style="fill-opacity:.5;fill:#0ff" id="path14047-3-7" d="m314.77689 194.71339c-17.7702-.57746-44.79448 10.23164-50.43946 13.8457-26.78476 17.1483-35.64078 26.80967-73.3403 46.47844-23.33313 12.17347-30.73262 17.39335-38.08782 25.77004-11.50372 13.10138-13.60629 28.99714-13.50111 38.15337.49783 43.33896 22.88129 80.12037 63.39649 80.13086 44.55563.0115 32.44874-5.71148 58.64648-6.01172 19.57357-.22432 25.20225 1.14577 55.07073.52933 23.94272-.49414 45.68111-11.54119 61.95382-27.24936 18.3644-17.72729 29.35526-45.45693 29.52236-62.52269.61447-62.75483-42.73888-107.48351-93.22119-109.12397z"/></clipPath><filter style="color-interpolation-filters:sRGB" id="filter14043-9-6"><feGaussianBlur stdDeviation="4 4" result="blur" id="feGaussianBlur14041-2-5"/></filter><clipPath clipPathUnits="userSpaceOnUse" id="clipPath21110"><path id="path21112" d="m219.68728 268.9598c-65.6734 3.39883-40.92296-1.40193-81.91636 10.9237l-5.87132 127.49623h218.0079c53.74012-36.76956 59.90262-82.87003 59.90262-82.87003-2.0298-33.13161.43102-38.2085-11.06315-65.30198-23.72344-3.56569-53.84806-5.89529-88.63897-3.86232-38.67964 2.26021-61.04364 12.09403-90.42072 13.6144z" style="display:inline;fill-opacity:.5;fill:#0ff"/></clipPath></defs><g transform="translate(6.2090988e-6,-3.1759123e-6)" style="display:inline" id="g28126-0-5-7" data-transform="boob_outfit"><g id="g21097" clip-path="url(#clipPath21110)"><path class="top_primary" id="path28124-3-1-7" d="m314.77689 194.71339c-17.7702-.57746-44.79448 10.23164-50.43946 13.8457-26.78476 17.1483-35.64078 26.80967-73.3403 46.47844-23.33313 12.17347-30.73262 17.39335-38.08782 25.77004-11.50372 13.10138-13.60629 28.99714-13.50111 38.15337.49783 43.33896 22.88129 80.12037 63.39649 80.13086 44.55563.0115 32.44874-5.71148 58.64648-6.01172 19.57357-.22432 25.20225 1.14577 55.07073.52933 23.94272-.49414 45.68111-11.54119 61.95382-27.24936 18.3644-17.72729 29.35526-45.45693 29.52236-62.52269.61447-62.75483-42.73888-107.48351-93.22119-109.12397z"/><g id="g10540-6-1"><g id="g78266-6-8-1-4-27-55-4-2-60-5-6-0-2-5" style="display:inline;stroke-width:.42135701;stroke:none" transform="matrix(4.1447988,-0.39827495,-0.53309971,1.4101533,-785.50786,92.641768)"><path id="path78258-5-3-5-7-4-27-7-6-8-5-1-9-63-0" d="m257.78463 231.41908 25.46538-1.91912c-1.75833-1.43306-8.91975-1.9852-14.375-1.125-5.21054.7236-7.94775 1.92284-11.09038 3.04412z" class="top_primary_strong_highlight"/><path d="m257.77115 231.41459 25.46476-1.92729c-1.52315 1.68089-8.52041 3.30234-14.04298 3.27122-5.26011.0672-8.14639-.70736-11.42178-1.34393z" id="path78260-3-6-3-9-66-21-7-3-7-3-9-4-63-3" class="top_primary_strong_shade"/><path id="path78262-1-0-7-4-1-1-8-1-2-9-2-8-03-7" d="m261.35088 231.14146 18.93637-1.43319c-1.13266 1.24996-6.33604 2.45572-10.44279 2.43258-3.91157.05-6.0579-.52602-8.49358-.99939z" class="top_primary_strong_shade"/><path d="m280.36534 229.70219-18.93637 1.43319c1.13266-1.24996 6.33604-2.45572 10.44279-2.43258 3.91157-.05 6.0579.52602 8.49358.99939z" id="path78264-7-6-7-6-34-83-1-9-42-8-6-3-26-7" class="top_primary_strong_highlight"/></g><g id="g78266-6-8-1-4-27-55-4-2-60-5-6-0-7-6-1" style="display:inline;stroke-width:.541098;stroke:none" transform="matrix(3.785212,-0.5701155,-0.47961082,0.9745507,-697.58779,259.88202)"><path id="path78258-5-3-5-7-4-27-7-6-8-5-1-9-41-9-9" d="m257.78463 231.41908 25.46538-1.91912c-1.75833-1.43306-8.91975-1.9852-14.375-1.125-5.21054.7236-7.94775 1.92284-11.09038 3.04412z" class="top_primary_strong_highlight"/><path d="m257.77115 231.41459 25.46476-1.92729c-1.52315 1.68089-8.52041 3.30234-14.04298 3.27122-5.26011.0672-8.14639-.70736-11.42178-1.34393z" id="path78260-3-6-3-9-66-21-7-3-7-3-9-4-0-2-5" class="top_primary_strong_shade"/><path id="path78262-1-0-7-4-1-1-8-1-2-9-2-8-1-3-0" d="m261.35088 231.14146 18.93637-1.43319c-1.13266 1.24996-6.33604 2.45572-10.44279 2.43258-3.91157.05-6.0579-.52602-8.49358-.99939z" class="top_primary_strong_shade"/><path d="m280.36534 229.70219-18.93637 1.43319c1.13266-1.24996 6.33604-2.45572 10.44279-2.43258 3.91157-.05 6.0579.52602 8.49358.99939z" id="path78264-7-6-7-6-34-83-1-9-42-8-6-3-2-1-0" class="top_primary_strong_highlight"/></g><g id="g78266-6-8-1-4-27-55-4-2-60-5-6-0-4-5-5" style="display:inline;stroke-width:.39609301;stroke:none" transform="matrix(4.0795449,-0.49695109,-0.44883938,1.6170818,-776.16752,109.26495)"><path id="path78258-5-3-5-7-4-27-7-6-8-5-1-9-3-9-3" d="m257.78463 231.41908 25.46538-1.91912c-1.75833-1.43306-8.91975-1.9852-14.375-1.125-5.21054.7236-7.94775 1.92284-11.09038 3.04412z" class="top_primary_strong_highlight"/><path d="m257.77115 231.41459 25.46476-1.92729c-1.52315 1.68089-8.52041 3.30234-14.04298 3.27122-5.26011.0672-8.14639-.70736-11.42178-1.34393z" id="path78260-3-6-3-9-66-21-7-3-7-3-9-4-3-8-6" class="top_primary_strong_shade"/><path id="path78262-1-0-7-4-1-1-8-1-2-9-2-8-4-0-1" d="m261.35088 231.14146 18.93637-1.43319c-1.13266 1.24996-6.33604 2.45572-10.44279 2.43258-3.91157.05-6.0579-.52602-8.49358-.99939z" class="top_primary_strong_shade"/><path d="m280.36534 229.70219-18.93637 1.43319c1.13266-1.24996 6.33604-2.45572 10.44279-2.43258 3.91157-.05 6.0579.52602 8.49358.99939z" id="path78264-7-6-7-6-34-83-1-9-42-8-6-3-7-1-5" class="top_primary_strong_highlight"/></g><g id="g78266-6-8-1-4-27-55-4-2-60-5-6-0-41-4-4" style="display:inline;stroke-width:.64463502;stroke:none" transform="matrix(2.6751272,-0.34554442,-0.30885293,0.93944859,-421.45278,240.32692)"><path id="path78258-5-3-5-7-4-27-7-6-8-5-1-9-1-9-6" d="m257.78463 231.41908 25.46538-1.91912c-1.75833-1.43306-8.91975-1.9852-14.375-1.125-5.21054.7236-7.94775 1.92284-11.09038 3.04412z" class="top_primary_strong_highlight"/><path d="m257.77115 231.41459 25.46476-1.92729c-1.52315 1.68089-8.52041 3.30234-14.04298 3.27122-5.26011.0672-8.14639-.70736-11.42178-1.34393z" id="path78260-3-6-3-9-66-21-7-3-7-3-9-4-2-6-5" class="top_primary_strong_shade"/><path id="path78262-1-0-7-4-1-1-8-1-2-9-2-8-2-4-2" d="m261.35088 231.14146 18.93637-1.43319c-1.13266 1.24996-6.33604 2.45572-10.44279 2.43258-3.91157.05-6.0579-.52602-8.49358-.99939z" class="top_primary_strong_shade"/><path d="m280.36534 229.70219-18.93637 1.43319c1.13266-1.24996 6.33604-2.45572 10.44279-2.43258 3.91157-.05 6.0579.52602 8.49358.99939z" id="path78264-7-6-7-6-34-83-1-9-42-8-6-3-0-3-0" class="top_primary_strong_highlight"/></g><g id="g78266-6-8-1-4-27-55-4-2-60-5-6-0-74-4-7" style="display:inline;stroke-width:.57913101;stroke:none" transform="matrix(2.3956376,-0.19334529,-0.25425939,1.2651063,-347.20573,137.41652)"><path id="path78258-5-3-5-7-4-27-7-6-8-5-1-9-2-1-0" d="m257.78463 231.41908 25.46538-1.91912c-1.75833-1.43306-8.91975-1.9852-14.375-1.125-5.21054.7236-7.94775 1.92284-11.09038 3.04412z" class="top_primary_strong_highlight"/><path d="m257.77115 231.41459 25.46476-1.92729c-1.52315 1.68089-8.52041 3.30234-14.04298 3.27122-5.26011.0672-8.14639-.70736-11.42178-1.34393z" id="path78260-3-6-3-9-66-21-7-3-7-3-9-4-8-9-0" class="top_primary_strong_shade"/><path id="path78262-1-0-7-4-1-1-8-1-2-9-2-8-3-9-1" d="m261.35088 231.14146 18.93637-1.43319c-1.13266 1.24996-6.33604 2.45572-10.44279 2.43258-3.91157.05-6.0579-.52602-8.49358-.99939z" class="top_primary_strong_shade"/><path d="m280.36534 229.70219-18.93637 1.43319c1.13266-1.24996 6.33604-2.45572 10.44279-2.43258 3.91157-.05 6.0579.52602 8.49358.99939z" id="path78264-7-6-7-6-34-83-1-9-42-8-6-3-6-6-9" class="top_primary_strong_highlight"/></g><g id="g78266-6-8-1-4-27-55-4-2-60-5-6-0-80-7-8" style="display:inline;stroke-width:.50631702;stroke:none" transform="matrix(3.42717,-0.20778309,-0.47340314,1.1669039,-605.70754,75.282117)"><path id="path78258-5-3-5-7-4-27-7-6-8-5-1-9-6-6-8" d="m257.78463 231.41908 25.46538-1.91912c-1.75833-1.43306-8.91975-1.9852-14.375-1.125-5.21054.7236-7.94775 1.92284-11.09038 3.04412z" class="top_primary_strong_highlight"/><path d="m257.77115 231.41459 25.46476-1.92729c-1.52315 1.68089-8.52041 3.30234-14.04298 3.27122-5.26011.0672-8.14639-.70736-11.42178-1.34393z" id="path78260-3-6-3-9-66-21-7-3-7-3-9-4-89-2-0" class="top_primary_strong_shade"/><path id="path78262-1-0-7-4-1-1-8-1-2-9-2-8-0-4-7" d="m261.35088 231.14146 18.93637-1.43319c-1.13266 1.24996-6.33604 2.45572-10.44279 2.43258-3.91157.05-6.0579-.52602-8.49358-.99939z" class="top_primary_strong_shade"/><path d="m280.36534 229.70219-18.93637 1.43319c1.13266-1.24996 6.33604-2.45572 10.44279-2.43258 3.91157-.05 6.0579.52602 8.49358.99939z" id="path78264-7-6-7-6-34-83-1-9-42-8-6-3-8-9-6" class="top_primary_strong_highlight"/></g></g><g id="g9947-6-5-3-1" style="display:inline;stroke-width:.29710701" transform="matrix(3.3657929,0,0,3.3657929,-752.00198,-549.55518)"><g style="stroke-width:.267196" transform="matrix(1.0886486,0.22640499,-0.22640499,1.0886486,26.686438,-87.525928)" id="g9918-0-96-2-1"><path class="top_primary_strong_shade" d="m315.95976 241.12162c-.0941 1.27022-1.40838 2.079-3.36249 2.18698-5.82694-.32992 3.56301-4.16497 3.36249-2.18698z" id="path9914-1-1-4-2"/><path class="top_primary_strong_highlight" id="path9911-1-5-4-1" d="m310.17639 241.00722c.044-1.2598 1.43984-2.32202 3.11764-2.37252 5.00828.42174-2.9858 4.05968-3.11764 2.37252z"/></g><g transform="rotate(33.082737,268.68923,159.63192)" style="display:inline;stroke-width:.29710701" id="g9918-7-4-3-3-3"><path id="path9914-1-1-6-8-2" d="m321.82404 234.11623c-.0781 1.28677-1.07523 1.97782-2.55163 1.88816-4.39885-.93265 2.71408-3.88642 2.55163-1.88816z" class="top_primary_strong_shade"/><path d="m317.6014 233.39015c.0781-1.28678 1.33836-2.25724 2.81477-2.16758 4.38918.85407-2.75171 3.90694-2.81477 2.16758z" id="path9911-1-5-0-4-2" class="top_primary_strong_highlight"/></g></g><g clip-path="url(#clipPath14045-3-2)" style="filter:url(#filter14043-9-6)" id="g14037-6-0"><path id="path52427-3-2-3-2" d="m164.80847 282.26959c21.92301 9.54113 26.24277 17.22267 55.41371 13.25045 14.47795-1.97147 76.37607-26.00079 113.17365-23.17665 71.08948 5.45598 46.4422-70.84784-8.29489-60.17604-8.3962 1.63696-38.03812-10.08916-80.16856 1.55023-28.33751 7.82881-59.38132-28.97998-84.27841-3.26184-7.12463 7.35958-34.80412 9.09723-41.68542 12.32043-56.577178 26.50068 24.21452 50.08181 45.83992 59.49342z" class="top_primary_highlight"/><path id="path64978-3-8-0" d="m206.98614 313.53955c-33.21532.23494-105.94815-28.14081-112.452525-12.65915-20.994682 49.97137 60.399445 83.39198 97.490165 93.77489 48.11906 3.932 52.03312-9.36894 123.57982-5.29 9.24372 1.06953 53.88523-10.31732 66.86177-31.75421 66.85311-110.4395-38.79921-60.20435-72.00093-59.79387-28.31337.35004-79.64003 15.55372-103.4783 15.72234z" class="top_primary_shade"/><path class="top_primary_shade" d="m206.73614 323.53955c-33.21532.23494-105.69815-38.14081-112.202525-22.65915-20.994682 49.97137 57.399445 90.89198 94.490165 101.27489 48.11906 3.932 55.78312-9.61894 127.32982-5.54 9.24372 1.06953 45.38523-10.06732 58.36177-31.50421 66.85311-110.4395-31.79921-57.45435-65.00093-57.04387-28.31337.35004-79.14003 15.30372-102.9783 15.47234z" id="path14023-6-9"/><path id="path14025-7-7" d="M208.23614 333.78955C175.02082 334.02449 96.03799 295.39874 89.533615 310.8804c-20.994682 49.97137 63.649445 82.64198 100.740165 93.02489 48.11906 3.932 56.28312-11.11894 127.82982-7.04 9.24372 1.06953 51.13523-7.06732 64.11177-28.50421 66.85311-110.4395-39.04921-49.95435-72.25093-49.54387-28.31337.35004-77.89003 14.80372-101.7283 14.97234z" class="top_primary_shade"/><path class="top_primary_highlight" d="m171.30847 272.01959c21.92301 9.54113 17.74277 17.22267 46.91371 13.25045 14.47795-1.97147 76.62607-23.50079 113.42365-20.67665 71.08948 5.45598 43.1922-55.34784-11.54489-44.67604-8.3962 1.63696-53.28812-3.58916-95.41856 8.05023-28.33751 7.82881-39.13132-43.22998-64.02841-17.51184-7.12463 7.35958-34.80412 9.09723-41.68542 12.32043-56.577178 26.50068 30.71452 39.83181 52.33992 49.24342z" id="path14027-7-0"/><path id="path14029-6-2" d="m182.30847 264.51959c21.92301 9.54113 18.74277 5.72267 47.91371 1.75045 14.47795-1.97147 46.12607-10.25079 82.92365-7.42665 71.08948 5.45598 54.4422-32.34784-.29489-21.67604-8.3962 1.63696-69.53812 8.16084-108.16856 7.80023-60.56979-8.44087-47.73292 8.62082-85.71383-22.19141-56.577178 26.50068 41.71452 32.33181 63.33992 41.74342z" class="top_primary_highlight"/></g></g></g></svg>