<svg viewBox="0 0 560 1e3"><g style="display:inline" id="g35010-4-8"><path id="path34999-1-0" d="m376.79589 383.1594c.0999.23228.19984.4612.29957.69614 5e-4-.004 97e-5-.009.002-.0137-.10035-.23644-.20111-.44852-.30155-.68246l-4e-5 2e-5z" style="fill:#010101"/><path id="path35001-3-4" d="m360.43847 352.0856c-22.26719 3.80837-45.63723 8.52966-67.27976 11.26994-21.72066 2.75017-41.51203 3.49297-57.77619-.50741-1.10415 10.1238-2.47949 20.3109-4.42117 31.4732-1.95102 11.21602-4.50255 23.60209-8.10826 38.40278-2.1675 8.89714-3.74992 17.76707-4.96051 26.688.16482.01.46484.0.46484.0 1.15552-8.77711 2.67804-17.48508 4.83006-26.33341 3.59931-14.79906 6.13773-27.19803 8.07685-38.42431 1.93008-11.17398 3.29494-21.37154 4.40042-31.49608 16.27392 3.99965 35.96054 3.25597 57.5525.50761 21.51602-2.7387 44.75792-7.45842 67.02792-11.26704 4.34691 7.65551 9.86725 15.96754 15.24847 27.81245-5.34767-11.87848-10.71479-20.47972-15.05517-28.12573z" class="shadow"/><path id="path35003-1-6" d="m360.24517 352.39888c-22.27 3.80862-45.5119 8.52834-67.02792 11.26704-21.59196 2.74836-41.27858 3.49204-57.5525-.50761-1.10548 10.12454-2.47034 20.3221-4.40042 31.49608-1.93912 11.22628-4.47754 23.62525-8.07685 38.42431-2.15203 8.84839-3.67423 17.55658-4.83006 26.33341 58.54851.01 175.58008.0 175.58008.0-.005-22.45808-7.19724-48.6042-12.43396-64.00353-7.03194-20.6785-15.24602-32.42112-21.25837-43.0097z" class="bottoms_primary"/></g></svg>