<svg viewBox="0 0 560 1e3"><path d="m302.16296 131.24318c2.57167-.52673 5.58238.006 9.33942-.69862 2.58668-.4848 5.43996-1.74164 9.09976-3.58177l-2.13661 2.38519c-4.04644 3.14664-11.31128 2.34686-16.30257 1.8952z" class="shadow" id="path1266"/><path id="path1316" class="shadow" d="m314.07752 117.274c-6.46523.2848-13.00456 1.26106-19.23505-.64511l-.54648-1.94262c6.66634 2.35597 13.21476 2.28288 19.78153 2.58773z"/><path d="m314.07752 117.274c-6.30971.1139-12.52917 1.16848-19.23505-.64511-.11296-.62159-.35966-1.29334-.54648-1.94262 6.39298 2.42643 13.10866 2.34048 19.78153 2.58773z" class="hair" id="path1318"/><path d="m269.949 137.67138c.73177-.37643.86265-1.21509 1.07486-1.99119 3.59562 2.03489 7.47707.76228 11.35725-.49555-5.4811 2.92985-9.73399 4.45824-12.43211 2.48674z" class="shadow" id="path1320"/><path id="path1330" class="shadow" d="m268.39113 125.24474c3.63876-.89851 6.76925-2.25327 10.18168-4.73608-.62683-.53103-.61519-.89808-.76402-1.63693-2.88076 2.79444-5.97516 5.03497-9.41766 6.37301z"/><path d="m268.39113 125.24474c3.984-.95362 7.05184-2.69915 10.18168-4.73608-.69182-.47535-.69569-.82906-.76402-1.63693-2.61352 2.58433-5.48274 4.94492-9.41766 6.37301z" class="hair" id="path1332"/><path d="m316.03784 127.49081c-4.30281 1.05938-7.95357 2.3998-14.53503 2.477.44427-.21168.43707-.6506.30235-1.15169 6.72552.42105 9.85993-.72177 14.23268-1.32531z" class="shadow" id="path1305"/><path d="m284.71888 133.33632c-4.35972.4276-3.84243 1.28326-12.01845 1.57179 3.11507-.36955 6.44566-1.01385 8.97997-2.27702.46806.45298 1.88596.52604 3.03848.70523z" class="shadow" id="path1307"/></svg>