<svg viewBox="0 0 560 1e3"><g data-transform="boob_outfit" id="g179582"><path class="bra_primary" id="path179576" d="m323.62721 212.92143c-3.30489 2.43248-7.83453 5.66609-11.07542 9.01779-3.21237-3.21394-8.25662-5.37707-11.63413-7.96218l-10.48312 9.02417c3.83301 3.15132 7.68765 5.14711 11.34317 9.7251-3.47025 3.4718-6.96996 7.41436-9.82504 11.08691l9.37787 10.62356c3.45471-4.52099 7.46708-7.54549 11.02621-11.09961 2.96007 3.02638 5.24602 5.98377 8.14188 10.19264 2.82542-2.07827 7.48255-6.59883 11.2373-9.9162-3.36744-4.13863-5.50906-7.47983-8.65613-10.70005 3.33776-3.45634 7.62525-6.6249 11.14757-9.39978z"/><g id="g179852" transform="matrix(1.2920281,0,0,1.2920281,-81.788816,-47.717437)" style="stroke-width:.77397698"/><path d="m239.37482 223.91198c-3.26361 1.24791-8.40328 3.10188-11.80962 5.62071-.28359-.39751-.64137-.80581-.97353-1.19389-7.50665 4.91197-10.45774 12.04376-10.16688 21.89971 2.05441-1.43069 4.13731-2.70249 6.2336-4.00354 2.19995 3.15546 4.30605 6.02319 6.95895 9.85384 2.84336-1.43971 5.899-3.89586 9.76075-6.307-2.89857-3.8383-5.06785-7.09091-6.78138-10.5731 3.50882-2.59811 7.82575-4.79615 11.39799-6.75588z" id="path85865" class="bra_primary"/></g></svg>