<svg viewBox="0 0 560 1e3"><defs/><path style="display:inline;fill-opacity:.94117647;fill:#342c2c;opacity:1" d="m339.75 277.20508c-1.64535.0742-3.29563.10928-4.95703.01-1.99329-.1194-3.99476-.35535-5.99414-.6875-1.99939-.33214-3.9955-.7595-5.98242-1.26367-3.97384-1.00834-7.90419-2.32134-11.7168-3.77344-3.81262-1.45209-7.50881-3.04517-11.01172-4.61523-3.50291-1.57006-6.8127-3.11627-9.85742-4.47852-3.04473-1.36224-5.82366-2.5405-8.26172-3.36914-1.21903-.41432-2.35306-.7411-3.39258-.96093-1.03952-.21984-1.98471-.33178-2.82617-.31641-1.25722.023-2.5664.28968-3.92773.74023-1.36134.45056-2.77394 1.08554-4.24219 1.8418-2.93651 1.51252-6.08977 3.51344-9.4707 5.51758-1.69047 1.00207-3.43838 2.0051-5.24415 2.94727-1.80576.94216-3.66989 1.82358-5.59375 2.58398-.69178.27343-1.43332.42876-2.14062.66797 1.04152 5.14497 2.39835 10.18463 4.01953 15.02344-1.06764 11.32585-1.52592 26.55771 1 35.50195-11.37059 21.52353-11.89766 23.525-14.09766 43.625-.32144 2.95146-.77594 6.43239-1.16796 9.66406 2.07074.87668 3.56744 1.64962 6.07617 2.55078 2.64786.95114 5.51434 1.88247 8.53906 2.72656 3.02472.84412 6.20855 1.60008 9.49609 2.19922 3.28755.59915 6.67891 1.04156 10.11524 1.25782 3.43632.21626 6.9176.20689 10.38867-.0977 2.30747-.20246 4.64556-.5129 7.00195-.91797 2.3564-.40507 4.73176-.90539 7.11133-1.48437 4.75914-1.15797 9.539-2.63502 14.23633-4.31641s9.31074-3.56581 13.74023-5.54102c4.4295-1.9752 8.67522-4.04068 12.63086-6.08007 3.95565-2.0394 7.62268-4.05377 10.89844-5.92774 3.27577-1.87397 6.15896-3.607 8.54883-5.08594 3.62325-2.24219 4.7568-3.04072 5.74805-3.71093-.0399-.0656-.0634-.12166-.10352-.1875-3.8841-8.49646-20.35168-24.94928-20.57812-24.78321.17394-.53763-7.38366-13.70783-7.45118-15.85937 2.56898-6.32141 6.52259-31.00027 8.07422-32.87695.15487-.18731.24032-.33761.39258-.52344z" id="path34323"/><g id="g34410"><path id="path34420" d="m275.75 257.75c-1.19469.0219-2.75828.37956-4.04697.79018-2.14271 40.17221.63522 84.17535 4.06238 126.17919 1.16028-.0385 2.57453-.1176 3.73459-.21937 1.11815-.0981 2.48694-.24589 3.61807-.39319-3.43578-42.13526-6.10902-86.13027-3.93622-125.88622-.11435-.0262-.49352-.13049-.60568-.15419-1.03952-.21984-1.98471-.33178-2.82617-.31641zm15.6875 5.20117c-7.38275 53.87627-.96551 86.24379 4.01757 118.70899.39193-.10282 1.3151-.38535 1.70704-.4922-4.97462-32.38365-11.39783-64.07637-4.12109-117.5078-.37078-.16886-1.23956-.54425-1.60352-.70899zm-30.5706 1.25341c-.37425.2259-1.10941.66812-1.4896.89675 5.63353 43.31198 4.07312 80.87793 2.612 118.7249.39938.0586 1.23036.17178 1.63206.22517 1.46844-38.03692 2.98039-76.15389-2.75446-119.84682zm-7.87667 4.53565c-.0518.0319.005.0479-.004.002-.37435.19532-1.03466.53113-1.41405.7207 5.50951 41.33839 4.27991 80.70938-2.34376 111.59961.0529.0148.21852.0634.27149.0781.33432.0933.83374.2195 1.17187.31055 6.70041-31.1806 7.93548-71.09583 2.34046-112.73303zm52.64844.58594c-11.34006 42.64945-2.96884 74.73877 6.52735 106.85548.31482-.20907 1.15942-.45091 1.53515-.59962-9.46365-31.99791-17.66764-63.40285-6.46679-105.64843-.37624-.15513-1.22251-.4508-1.59571-.60743zm-60.25781 2.64844c-.0829.0258-.16786.0464-.25.0742 1.04152 5.14497 2.39835 10.18463 4.01953 15.02344-.1185 1.2571-.2646 2.81414-.36484 4.15355 1.46391 9.75944 1.4535 18.85939.5953 28.14137.20183 1.06317.50495 2.27013.76954 3.20703-.48961.92678-.94073 1.72675-1.39112 2.58414-2.36039 18.25015-7.75698 35.39153-11.87451 51.58773.36114.16127.91626.40687 1.28907.56836 7.88429-31.03785 20.7377-66.57708 7.28516-105.36718zm72.15625 1.80468c-10.22822 43.19279.034 71.97413 9.20665 96.07216.36408-.17337 1.19904-.56658 1.55974-.74051-9.1556-24.0324-19.20159-52.04603-9.06717-94.84922-.38506-.11621-1.31552-.36157-1.69922-.48243zm11.1914 2.76367c-6.21684 21.61733-5.68746 39.62403-1.43129 55.32361 3.02881 11.17222 7.95841 21.3648 13.77673 30.67935.36183-.19995 1.12406-.65917 1.47844-.85697-5.78701-9.2579-10.69501-19.07122-13.68946-30.11668-4.2115-15.53477-4.58567-33.28291 1.63122-54.78125-.401-.0572-1.3647-.18292-1.76564-.24806zm4.41843 47.08656c3.64975 10.28882 11.14906 19.41327 18.99954 32.38806.33649-.20605 1.32124-.74984 1.64063-.94727-7.87839-13.05619-15.44591-21.89466-18.99131-31.88929-1.03891-2.92875-1.97904-5.92942-2.25478-9.17907-.73543-1.583-1.24065-2.84942-1.25782-3.39648l-.21484.31938c.14272 3.94379.56776 8.2925 2.07858 12.70467z" style="baseline-shift:baseline;clip-rule:nonzero;color-interpolation-filters:linearRGB;color-interpolation:sRGB;color-rendering:auto;color:#000;direction:ltr;display:inline;dominant-baseline:auto;enable-background:accumulate;fill-opacity:.99511402;fill-rule:nonzero;fill:#4f0000;image-rendering:auto;isolation:auto;mix-blend-mode:normal;opacity:1;overflow:visible;shape-padding:0;shape-rendering:auto;solid-color:#000000;solid-opacity:1;stroke-dasharray:none;stroke-dashoffset:0;stroke-linecap:butt;stroke-linejoin:miter;stroke-miterlimit:4;stroke-opacity:1;stroke-width:1.20944881;stroke:none;vector-effect:none;visibility:visible;white-space:normal;writing-mode:lr-tb"/><path style="baseline-shift:baseline;clip-rule:nonzero;color-interpolation-filters:linearRGB;color-interpolation:sRGB;color-rendering:auto;color:#000;direction:ltr;display:inline;dominant-baseline:auto;enable-background:accumulate;fill-opacity:1;fill-rule:nonzero;fill:#000;image-rendering:auto;isolation:auto;mix-blend-mode:normal;opacity:1;overflow:visible;shape-padding:0;shape-rendering:auto;solid-color:#000000;solid-opacity:1;stroke-dasharray:none;stroke-dashoffset:0;stroke-linecap:butt;stroke-linejoin:miter;stroke-miterlimit:4;stroke-opacity:1;stroke-width:1.20944881;stroke:none;vector-effect:none;visibility:visible;white-space:normal;writing-mode:lr-tb" d="m275.75 257.75c-1.19469.0219-2.43787.26907-3.72656.67969-2.14271 40.17221.56893 84.26374 3.99609 126.26758 1.16028-.0385 2.32041-.0955 3.48047-.19727 1.11815-.0981 2.24387-.22379 3.375-.37109-3.43578-42.13526-6.12007-86.21866-3.94727-125.97461-.11435-.0262-.2394-.0642-.35156-.0879-1.03952-.21984-1.98471-.33178-2.82617-.31641zm15.90625 5.29492c-7.38275 53.87627-.91863 86.04066 4.06445 118.50586.39193-.10282.78384-.19784 1.17578-.30469-4.97462-32.38365-11.36658-64.24825-4.08984-117.67968-.37078-.16886-.78643-.35675-1.15039-.52149zm-30.95508 1.24805c-.37425.2259-.74481.44715-1.125.67578 5.63353 43.31198 4.08417 81.04366 2.62305 118.89063.39938.0586.79947.11653 1.20117.16992 1.46844-38.03692 3.03563-76.0434-2.69922-119.73633zm-7.83203 4.50195c-.001 68e-5-.003.001-.004.002-.37435.19532-.76123.37488-1.14062.56445 5.50951 41.33839 4.24476 80.84219-2.37891 111.73242.0529.0148.10133.0321.1543.0469.33432.0933.67749.18044 1.01562.27149 6.70041-31.1806 7.94854-70.97999 2.35352-112.61719zm53.00391.59375c-11.34006 42.64945-3.04697 74.59814 6.44922 106.71485.37732-.14657.75317-.29465 1.1289-.44336C303.98752 343.66225 295.79915 312.10105 307 269.85547c-.37624-.15513-.75375-.31017-1.12695-.4668zm-60.49219 2.58594c-.0829.0258-.16786.0464-.25.0742 1.04152 5.14497 2.39835 10.18463 4.01953 15.02344-.1185 1.2571-.22593 2.5766-.32617 3.91601 1.46391 9.75944 1.49296 19.28443.63476 28.56641.20183 1.06317.42682 2.08263.69141 3.01953-.48961.92678-.85234 1.63284-1.30273 2.49023-2.36039 18.25015-7.75943 35.5206-11.87696 51.7168.36114.16127.75219.32874 1.125.49023 7.88429-31.03785 20.7377-66.50677 7.28516-105.29687zm72.4375 1.85156c-10.22822 43.19279-.0926 71.86096 9.08008 95.95899.36408-.17337.735-.34561 1.0957-.51954-9.1556-24.0324-19.15786-52.27884-9.02344-95.08203-.38506-.11621-.76864-.23656-1.15234-.35742zm11.20703 2.73242c-6.21684 21.61733-5.78547 39.6305-1.5293 55.33008 3.02881 11.17222 7.98051 21.16592 13.79883 30.48047.36183-.19995.70422-.394 1.0586-.5918-5.78701-9.2579-10.69501-19.15961-13.68946-30.20507-4.2115-15.53477-4.65243-33.34541 1.56446-54.84375-.401-.0572-.80219-.10479-1.20313-.16993zm4.38672 47.04883c3.64975 10.28882 11.22764 19.27912 19.07812 32.25391.33649-.20605.72749-.43734 1.04688-.63477-7.87839-13.05619-15.43898-22.02881-18.98438-32.02344-1.03891-2.92875-1.73597-5.95152-2.01171-9.20117-.73543-1.583-1.24065-2.84942-1.25782-3.39648l-.19274.31938c.14272 3.94379.81083 8.2704 2.32165 12.68257z" id="path34345"/></g><g id="g34436" transform="rotate(-1.8939663,341.59501,-1167.9168)"><path id="path34426" d="m226.67193 316.57031a.88388354.88388354.0 01-.88388.88389.88388354.88388354.0 01-.88389-.88389.88388354.88388354.0 01.88389-.88388.88388354.88388354.0 01.88388.88388z" style="fill-opacity:1;fill:#8a8a8a;opacity:1;stroke-dasharray:none;stroke-miterlimit:4;stroke-opacity:.3719413;stroke-width:1.20944881;stroke:none"/><path id="path34428" d="m224.10938 315.49805c1.62304 15e-5 2.93833.48026 2.9375 1.07226 85e-5.592-1.31445 1.07212-2.9375 1.07227l.0215.5293c2.40382 8e-5 4.35282-.71691 4.35352-1.60157-72e-5-.88465-1.9939-1.61269-4.39771-1.61261z" style="fill-opacity:1;fill:#8a8a8a;opacity:1;stroke-dasharray:none;stroke-miterlimit:4;stroke-opacity:.3719413;stroke-width:1.20944881;stroke:none"/></g><g transform="rotate(1.4563317,821.0341,2222.2426)" id="g34442"><path style="fill-opacity:1;fill:#8a8a8a;opacity:1;stroke-dasharray:none;stroke-miterlimit:4;stroke-opacity:.3719413;stroke-width:1.20944881;stroke:none" d="m226.67193 316.57031a.88388354.88388354.0 01-.88388.88389.88388354.88388354.0 01-.88389-.88389.88388354.88388354.0 01.88389-.88388.88388354.88388354.0 01.88388.88388z" id="path34438"/><path style="fill-opacity:1;fill:#8a8a8a;opacity:1;stroke-dasharray:none;stroke-miterlimit:4;stroke-opacity:.3719413;stroke-width:1.20944881;stroke:none" d="m224.10938 315.49805c1.62304 15e-5 2.93833.48026 2.9375 1.07226 85e-5.592-1.31445 1.07212-2.9375 1.07227l.0215.5293c2.40382 8e-5 4.35282-.71691 4.35352-1.60157-72e-5-.88465-1.9939-1.61269-4.39771-1.61261z" id="path34440"/></g><g id="g34448" transform="rotate(4.2919739,923.38695,943.72257)"><path id="path34444" d="m226.67193 316.57031a.88388354.88388354.0 01-.88388.88389.88388354.88388354.0 01-.88389-.88389.88388354.88388354.0 01.88389-.88388.88388354.88388354.0 01.88388.88388z" style="fill-opacity:1;fill:#8a8a8a;opacity:1;stroke-dasharray:none;stroke-miterlimit:4;stroke-opacity:.3719413;stroke-width:1.20944881;stroke:none"/><path id="path34446" d="m224.10938 315.49805c1.62304 15e-5 2.93833.48026 2.9375 1.07226 85e-5.592-1.31445 1.07212-2.9375 1.07227l.0215.5293c2.40382 8e-5 4.35282-.71691 4.35352-1.60157-72e-5-.88465-1.9939-1.61269-4.39771-1.61261z" style="fill-opacity:1;fill:#8a8a8a;opacity:1;stroke-dasharray:none;stroke-miterlimit:4;stroke-opacity:.3719413;stroke-width:1.20944881;stroke:none"/></g><g transform="rotate(2.6735602,949.68057,1337.4119)" id="g34454"><path style="fill-opacity:1;fill:#8a8a8a;opacity:1;stroke-dasharray:none;stroke-miterlimit:4;stroke-opacity:.3719413;stroke-width:1.20944881;stroke:none" d="m226.67193 316.57031a.88388354.88388354.0 01-.88388.88389.88388354.88388354.0 01-.88389-.88389.88388354.88388354.0 01.88389-.88388.88388354.88388354.0 01.88388.88388z" id="path34450"/><path style="fill-opacity:1;fill:#8a8a8a;opacity:1;stroke-dasharray:none;stroke-miterlimit:4;stroke-opacity:.3719413;stroke-width:1.20944881;stroke:none" d="m224.10938 315.49805c1.62304 15e-5 2.93833.48026 2.9375 1.07226 85e-5.592-1.31445 1.07212-2.9375 1.07227l.0215.5293c2.40382 8e-5 4.35282-.71691 4.35352-1.60157-72e-5-.88465-1.9939-1.61269-4.39771-1.61261z" id="path34452"/></g><g id="g34460" transform="rotate(-3.3956537,601.24092,-514.36823)"><path id="path34456" d="m226.67193 316.57031a.88388354.88388354.0 01-.88388.88389.88388354.88388354.0 01-.88389-.88389.88388354.88388354.0 01.88389-.88388.88388354.88388354.0 01.88388.88388z" style="fill-opacity:1;fill:#8a8a8a;opacity:1;stroke-dasharray:none;stroke-miterlimit:4;stroke-opacity:.3719413;stroke-width:1.20944881;stroke:none"/><path id="path34458" d="m224.10938 315.49805c1.62304 15e-5 2.93833.48026 2.9375 1.07226 85e-5.592-1.31445 1.07212-2.9375 1.07227l.0215.5293c2.40382 8e-5 4.35282-.71691 4.35352-1.60157-72e-5-.88465-1.9939-1.61269-4.39771-1.61261z" style="fill-opacity:1;fill:#8a8a8a;opacity:1;stroke-dasharray:none;stroke-miterlimit:4;stroke-opacity:.3719413;stroke-width:1.20944881;stroke:none"/></g><g transform="rotate(-3.5573886,865.86282,-484.75916)" id="g34466"><path style="fill-opacity:1;fill:#8a8a8a;opacity:1;stroke-dasharray:none;stroke-miterlimit:4;stroke-opacity:.3719413;stroke-width:1.20944881;stroke:none" d="m226.67193 316.57031a.88388354.88388354.0 01-.88388.88389.88388354.88388354.0 01-.88389-.88389.88388354.88388354.0 01.88389-.88388.88388354.88388354.0 01.88388.88388z" id="path34462"/><path style="fill-opacity:1;fill:#8a8a8a;opacity:1;stroke-dasharray:none;stroke-miterlimit:4;stroke-opacity:.3719413;stroke-width:1.20944881;stroke:none" d="m224.10938 315.49805c1.62304 15e-5 2.93833.48026 2.9375 1.07226 85e-5.592-1.31445 1.07212-2.9375 1.07227l.0215.5293c2.40382 8e-5 4.35282-.71691 4.35352-1.60157-72e-5-.88465-1.9939-1.61269-4.39771-1.61261z" id="path34464"/></g><g id="g34472" transform="rotate(-4.2928531,994.04555,-352.26463)"><path id="path34468" d="m226.67193 316.57031a.88388354.88388354.0 01-.88388.88389.88388354.88388354.0 01-.88389-.88389.88388354.88388354.0 01.88389-.88388.88388354.88388354.0 01.88388.88388z" style="fill-opacity:1;fill:#8a8a8a;opacity:1;stroke-dasharray:none;stroke-miterlimit:4;stroke-opacity:.3719413;stroke-width:1.20944881;stroke:none"/><path id="path34470" d="m224.10938 315.49805c1.62304 15e-5 2.93833.48026 2.9375 1.07226 85e-5.592-1.31445 1.07212-2.9375 1.07227l.0215.5293c2.40382 8e-5 4.35282-.71691 4.35352-1.60157-72e-5-.88465-1.9939-1.61269-4.39771-1.61261z" style="fill-opacity:1;fill:#8a8a8a;opacity:1;stroke-dasharray:none;stroke-miterlimit:4;stroke-opacity:.3719413;stroke-width:1.20944881;stroke:none"/></g></svg>