<svg viewBox="0 0 560 1e3"><g id="g231448" data-transform="boob_left"><path id="path231440" class="shadow" d="m317.83004 227.27893s-.16575-5.50302 1.76033-6.8782c2.28488-1.63136 6.56136-1.45127 8.39542.67433 1.76605 2.04677 1.18812 6.01448-.54164 8.092-1.4006 1.6822-6.36427 1.6184-6.36427 1.6184s4.35201-1.06387 5.28099-2.8322c.75734-1.44161.58823-3.6825-.54164-4.8552-1.2666-1.31461-3.79151-1.6412-5.4164-.8092-1.66576.85293-2.57279 4.99007-2.57279 4.99007z"/><path id="path231442" class="shadow" d="m305.5246 228.65863s.16575-5.50301-1.76033-6.8782c-2.28487-1.63136-6.56135-1.45126-8.39542.67434-1.76605 2.04678-1.18811 6.01446.54164 8.09199 1.40061 1.6822 6.36427 1.61841 6.36427 1.61841s-4.352-1.06386-5.28099-2.8322c-.75734-1.44162-.58822-3.68251.54164-4.8552 1.2666-1.31462 3.79152-1.6412 5.4164-.80921 1.66575.85293 2.57279 4.99007 2.57279 4.99007z"/><path d="m318.34048 227.07637s-.15069-5.00274 1.6003-6.25292c2.07715-1.48303 5.96486-1.31932 7.6322.61304 1.60549 1.86071 1.0801 5.4677-.4924 7.35636-1.27327 1.52928-5.7857 1.47128-5.7857 1.47128s3.95636-.96715 4.8009-2.57474c.68848-1.31055.53475-3.34771-.4924-4.41381-1.15145-1.1951-3.44684-1.492-4.924-.73563-1.51433.77539-2.3389 4.53642-2.3389 4.53642z" class="steel_piercing" id="path231444"/><path d="m305.01417 228.45608s.15068-5.00274-1.6003-6.25291c-2.07716-1.48306-5.96486-1.31934-7.6322.61303-1.6055 1.86069-1.08011 5.46769.4924 7.35637 1.27327 1.52925 5.7857 1.47126 5.7857 1.47126s-3.95638-.96715-4.8009-2.57472c-.68849-1.31056-.53475-3.34773.4924-4.41383 1.15145-1.19509 3.44683-1.49199 4.924-.73563 1.51432.77538 2.3389 4.53643 2.3389 4.53643z" class="steel_piercing" id="path231446"/></g><g id="g231458" data-transform="boob_right"><path id="path231450" class="shadow" d="m226.79432 233.63923s.7505-2.82957 1.90036-3.48314c2.62834-1.49389 7.1256-1.97916 9.06327.3415.88433 1.05911.40208 3.13345-.58472 4.09781-1.64954 1.61201-6.87055.81955-6.87055.81955s4.6845.24102 5.7011-1.43424c.43703-.72019.0576-1.91364-.58474-2.45869-1.48982-1.26413-4.00146-1.05052-5.84728-.40976-1.18243.41047-2.77744 2.52697-2.77744 2.52697z"/><path d="m227.31388 233.51334s.68227-2.57235 1.72759-3.16649c2.38941-1.35809 6.47783-1.79924 8.23935.31043.80392.96284.36552 2.84861-.53157 3.72529-1.49958 1.46548-6.24595.74505-6.24595.74505s4.25862.21912 5.1828-1.30385c.3973-.65472.0523-1.73967-.53157-2.23516-1.35438-1.14923-3.63769-.95504-5.3157-.37253-1.07495.37316-2.52495 2.29726-2.52495 2.29726z" class="steel_piercing" id="path231452"/><path d="m223.43404 233.41943s.30059-2.74686.0389-3.59372c-.59824-1.93576-2.02818-3.35711-3.14065-1.65969-.50768.7747-.75114 2.77362-.60566 3.86879.24314 1.83071 2.16922 2.24283 2.16922 2.24283s-1.63595-.79892-1.652-2.54969c-.007-.75266.35594-1.75982.68069-2.11775.75327-.83019 1.56315-.0888 2.06339.89776.32047.632.44612 2.91148.44612 2.91148z" class="shadow" id="path231454"/><path id="path231456" class="steel_piercing" d="m223.28254 233.19147s.27335-2.49715.0354-3.26703c-.54387-1.75978-1.84382-3.05194-2.85513-1.50881-.46154.70427-.68288 2.52147-.55065 3.51708.22102 1.66429 1.972 2.03894 1.972 2.03894s-1.48722-.72629-1.50182-2.31791c-.006-.68423.32355-1.59983.61882-1.92523.68479-.75472 1.42103-.0808 1.8758.81616.29134.57455.40556 2.6468.40556 2.6468z"/></g></svg>