<svg viewBox="0 0 560 1e3"><g id="g231330" data-transform="boob_right"><path id="path231328" d="m225.3442 243.35302c-1.56905.32105-3.43981-.59839-4.65585-1.7983-1.00356-.99015-1.16157-1.87577-1.19289-3.12506-.004-.16089.0502-.75525.0886-.91313.53472-2.19921 1.7822-3.26085 2.20638-3.60771.56153-.45917 1.65066-1.23878 2.97291-1.36711 3.04866-.29587 6.76544 1.36322 6.56721 4.97855-.13094 2.38827-2.82582 5.83276-5.98703 5.83276z" class="areola"/></g><g id="g231334" data-transform="boob_left"><path id="path231332" d="m311.83248 239.53295c-4.19324-.46253-8.4308-3.55292-8.45069-6.32282-.0255-3.53496 5.32338-7.22438 10.02211-7.01878 4.41851.19334 9.02951 3.07517 8.12374 7.35967-.90577 4.2845-4.6814 6.53496-9.69516 5.98193z" class="areola"/></g></svg>