<svg viewBox="0 0 560 1e3"><path id="path4978" class="shadow" d="m310.0048 115.8257s2.75725 3.54411 4.68204 3.40522c2.2748-.16413 4.85394-2.49685 4.89836-4.77713.0429-2.20447-2.38464-4.39429-4.55201-4.79923-1.74836-.32666-4.82212 2.28441-4.82212 2.28441s3.27788-1.58605 4.77677-.96062c1.22569.51143 2.28736 2.00446 2.18933 3.32896-.10945 1.47904-1.51765 2.99524-2.96542 3.31693-1.48877.33081-4.20693-1.79852-4.20693-1.79852z"/><path d="m310.4403 115.69887s2.50659 3.22192 4.2564 3.09566c2.068-.14921 4.41267-2.26987 4.45305-4.34285.039-2.00406-2.16785-3.99481-4.13819-4.36294-1.58942-.29696-4.38374 2.07674-4.38374 2.07674s2.97989-1.44186 4.34251-.87329c1.11427.46494 2.07942 1.82224 1.9903 3.02633-.0995 1.34458-1.37968 2.72294-2.69583 3.01539-1.35343.30073-3.82448-1.63502-3.82448-1.63502z" class="steel_piercing" id="XMLID_525_-3-5-9-5-7"/><path id="path4980" class="shadow" d="m303.98855 116.59978s3.47606 2.84255 5.32182 2.2793c2.18141-.66569 4.1775-3.51335 3.71395-5.74645-.44816-2.15886-3.30176-3.7543-5.50493-3.66733-1.77724.0702-4.19369 3.29913-4.19369 3.29913s2.84333-2.27499 4.44373-1.99838c1.30872.22619 2.67569 1.44588 2.87453 2.75904.22203 1.46635-.81388 3.25764-2.15392 3.8931-1.378.65345-4.50147-.8184-4.50147-.8184z"/><path id="path4984" class="shadow" d="m272.30615 123.80836s-2.35869 2.9851-3.98857 2.85515c-1.92625-.1536-4.0965-2.14645-4.11957-4.07868-.0223-1.868 2.04843-3.70782 3.88731-4.03705 1.48337-.26559 4.07089 1.96627 4.07089 1.96627s-2.76703-1.36472-4.04094-.8444c-1.04173.42548-1.95075 1.68365-1.87615 2.80645.0833 1.2538 1.26669 2.54737 2.49124 2.82918 1.25923.28978 3.57578-1.49691 3.57578-1.49691z"/><path d="m304.37221 116.38229s3.16005 2.58414 4.83802 2.07209c1.9831-.60517 3.79772-3.19395 3.37631-5.22404-.40741-1.9626-3.0016-3.413-5.00448-3.33394-1.61567.0638-3.81244 2.99921-3.81244 2.99921s2.58484-2.06817 4.03975-1.81671c1.18975.20563 2.43245 1.31444 2.61321 2.50822.20185 1.33305-.73989 2.96149-1.95811 3.53918-1.25273.59405-4.09224-.744-4.09224-.744z" class="steel_piercing" id="XMLID_525_-3-5-1-3-7-5"/><path id="path4982" class="shadow" d="m295.81792 116.26972s3.34357 2.99727 5.21298 2.51831c2.20935-.56608 4.33252-3.32027 3.97072-5.5721-.34976-2.17696-3.12809-3.90017-5.33293-3.91322-1.77859-.011-4.33899 3.10556-4.33899 3.10556s2.94357-2.1437 4.52979-1.7948c1.2971.28531 2.60736 1.56573 2.74643 2.88656.1553 1.47491-.96078 3.21738-2.32826 3.79141-1.40622.5903-4.45972-1.02171-4.45972-1.02171z"/><path d="m296.21501 116.06986s3.03961 2.72479 4.73907 2.28937c2.0085-.51461 3.93866-3.01842 3.60975-5.06554-.31797-1.97906-2.84372-3.54561-4.84812-3.55747-1.6169-.01-3.94454 2.82323-3.94454 2.82323s2.67598-1.94882 4.11799-1.63163c1.17919.25937 2.37033 1.42339 2.49676 2.62414.14118 1.34083-.87344 2.92489-2.1166 3.44674-1.27838.53663-4.05429-.92883-4.05429-.92883z" class="steel_piercing" id="XMLID_525_-3-5-5-7-0-6"/><path d="m271.93759 123.69821s-2.14426 2.71373-3.62597 2.59559c-1.75114-.13963-3.72409-1.95132-3.74507-3.70789-.0203-1.69818 1.86221-3.37074 3.53392-3.67004 1.34852-.24145 3.70081 1.78751 3.70081 1.78751s-2.51548-1.24065-3.67358-.76763c-.94703.3868-1.77341 1.53059-1.70559 2.55132.0757 1.13981 1.15153 2.31579 2.26476 2.57198 1.14476.26343 3.25071-1.36083 3.25071-1.36083z" class="steel_piercing" id="XMLID_525_-3-5-5-1-2-6-8-2"/><path id="path4986" class="shadow" d="m274.78528 121.72049s-1.74273 3.38189-3.36729 3.56677c-1.91998.2185-4.43199-1.32137-4.82502-3.21335-.37997-1.82908 1.29969-4.03171 3.04136-4.70734 1.40495-.54502 4.37232 1.14944 4.37232 1.14944s-2.97732-.80899-4.12786-.0541c-.94085.61729-1.59184 2.02638-1.3034 3.11405.3221 1.21458 1.7315 2.25734 2.98737 2.29917 1.29143.043 3.22252-2.15459 3.22252-2.15459z"/><path d="m274.41044 121.68074s-1.5843 3.07445-3.06118 3.24252c-1.74543.19864-4.02908-1.20125-4.38638-2.92123-.34543-1.6628 1.18154-3.66519 2.76487-4.2794 1.27723-.49547 3.97484 1.04495 3.97484 1.04495s-2.70665-.73545-3.7526-.0492c-.85532.56117-1.44713 1.84216-1.18491 2.83095.29282 1.10417 1.57409 2.05213 2.71579 2.09016 1.17403.0391 2.92957-1.95872 2.92957-1.95872z" class="steel_piercing" id="XMLID_525_-3-5-5-1-1-9-2-4"/><path id="path4988" class="shadow" d="m277.62614 119.01486s-.7706 3.72564-2.28587 4.33997c-1.79078.72605-4.62403-.0827-5.51068-1.7997-.85716-1.65986.16936-4.23264 1.66565-5.35113 1.20699-.90227 4.52038-.0669 4.52038-.0669s-3.08525.0199-3.99089 1.05595c-.74057.84722-.98924 2.37939-.41932 3.34967.63641 1.08348 2.27405 1.70947 3.49502 1.41254 1.25556-.30534 2.52562-2.94079 2.52562-2.94079z"/><path d="m277.25758 119.07743s-.70055 3.38695-2.07806 3.94543c-1.62799.66004-4.20367-.0752-5.00971-1.63609-.77924-1.50897.15396-3.84786 1.51422-4.86467 1.09727-.82024 4.10944-.0608 4.10944-.0608s-2.80477.0181-3.62808.95996c-.67325.7702-.89931 2.16308-.3812 3.04515.57855.98498 2.06732 1.55407 3.17729 1.28413 1.14142-.27758 2.29602-2.67345 2.29602-2.67345z" class="steel_piercing" id="XMLID_525_-3-5-5-1-5-0-6"/></svg>