<svg viewBox="0 0 560 1e3"><defs><filter style="color-interpolation-filters:sRGB" id="filter78301"><feGaussianBlur stdDeviation="2 2" result="blur" id="feGaussianBlur78299"/></filter><clipPath clipPathUnits="userSpaceOnUse" id="clipPath78303"><path style="display:inline;fill-opacity:.5;fill:#80122f" d="m368.16293 366.12921c-5.52722 2.94912-11.2923 6.00936-16.96957 8.80438-3.69689 1.82006-7.42678 3.59249-11.19336 5.29688s-7.56982 3.34058-11.41211 4.88867c-3.84228 1.54809-7.72444 3.00823-11.64844 4.35938-3.92399 1.35114-7.88868 2.59346-11.90039 3.70703-4.0117 1.11357-8.07036 2.09823-12.17578 2.93359s-8.25774 1.5206-12.46289 2.03711c-2.29034.28132-4.59286.4696-6.91016.57227-2.3173.10266-4.64928.12058-7 .0645-4.70142-.11226-9.47777-.52208-14.35156-1.15039s-9.84559-1.47542-14.94336-2.46094c-1.90583-.36844-3.32846-.67267-5.27056-1.07579-.68325 3.47529-1.92098 10.1173-2.70742 13.5495 4.42.84952 11.54489 2.80806 14.77258 3.9999-8.13823 32.10453-13.89927 58.55185-20.85278 96.17798l.19501 2.93296c4.35683 1.39498 10.50914 3.39084 14.49225 4.20556 2.40744-12.97742 14.87266-102.29376 15.53075-102.11882.70365.18705 10.97402.97873 11.68541.8828-8.38352 24.5632-9.03079 74.41014-11.6425 104.64359 2.78489.24121 5.93284.33522 10.21415.35104 4.54109-.0758 9.63773-.23703 13.99631-.19762l14.88136-.67895c-.80555-19.81468-1.34179-89.17433-.68812-106.00154l12.96394-3.01018c2.07323 32.2319-2.19009 78.97469 2.37481 108.68531.69368-.12766 1.41904-.29099 2.17725-.49114.8619-.23205 1.36493-.20618 1.89989-.21473 2.49111-.32109 8.15985-.71282 11.43141-.55344-.10875-8.3029-3.35153-102.02926-4.03664-111.49025l9.66654-2.97436c6.83315 16.88512 4.10448 108.76238 18.15733 107.084 1.92356-.13341 3.01605.41928 6.75572-.0802 3.4437-.45998 6.80723-1.15471 10.12098-1.99292-3.10448-43.51084-14.63739-94.27586-20.2569-111.21019 15.22906-2.98121 14.75758 55.48568 15.71713 62.31193 7.57051 45.62713 34.01319 39.75905 39.14176 38.66509.97779-1.90902-1.23255-5.41935-.27929-5.27625-3.89218-29.47532-32.14802-86.46552-36.27918-104.34434.76057-.3909 1.66865-.81412 2.68174-1.2651 7.26549-3.23423 57.49467 95.72872 59.88802 91.31822-.38089-2.68947.002-4.21573-1.36571-7.04497-8.36532-27.82719-12.33893-36.60044-16.79901-44.54556-10.63089-18.89728-21.91596-37.85716-25.70277-40.3584-4.79178-3.16504-5.39515-5.09896-5.82026-6.13947z" id="path78305" clip-path="none"/></clipPath><filter style="color-interpolation-filters:sRGB" id="filter78415"><feGaussianBlur stdDeviation="2 2" result="blur" id="feGaussianBlur78413"/></filter><clipPath clipPathUnits="userSpaceOnUse" id="clipPath78417"><path style="display:inline;fill-opacity:.5;fill:#80aab6" d="m364.41016 385.61719c-.13416.001-.25757.0276-.3711.0781-1.01309.45098-1.92107.87473-2.68164 1.26563 4.13116 17.87882 32.38517 74.86843 36.27735 104.34375 4.86103-3.061 23.34724-8.8662 26.29101-14.29102-2.35595 4.34159-51.06384-91.48582-59.51562-91.39648zm-19.97266 9.88476c-.44577-.0234-.90495.008-1.38086.10157 5.6191 16.93308 17.15037 67.69246 20.25586 111.20117 11.70804-2.96178 22.79651-7.70456 34.60156-10.22266-5.12857 1.09396-31.57011 6.96112-39.14062-38.66601-.92957-6.61293-.5172-61.68861-14.33594-62.41407zm-16.1582 6.30078-9.66602 2.97461c.68506 9.46031 3.92596 103.17174 4.03516 111.48633 5.82344-1.73527 12.36626-4.02783 20.4375-6.64258 1.7463-.56572 2.83781-.72733 3.78515-.74609-.14323.003-.28365.001-.43554.0117-14.05285 1.67838-11.3231-90.19887-18.15625-107.08399zm-99.0625 5.85352c-.7675 3.34952-1.76676 3.05816-3.03907 4.6875-8.10023 10.37323-19.45897 60.71143-25.10937 86.83203l22.06836 8.6582c6.95351-37.62613 12.71528-64.0732 20.85351-96.17773-3.22769-1.19184-10.35343-3.15048-14.77343-4zm75.54882 1.18555-12.96484 3.00976c-.65367 16.82721-.1161 86.18728.68945 106.00196l-14.88085.67968.63085 1.82032c3.64614.95644 21.93431-.8546 31.07813-3.31641-.75821.20015-1.48406.36257-2.17774.49023-4.5649-29.71062-.30176-76.45364-2.375-108.68554zm-27.15624 109.6914c-4.12915-.0373-8.89985.10206-13.25391.18164 5.66997-.007 9.08992-.21929 13.25391-.18164zM253.35547 412.85352c-.65809-.17494-13.12381 89.14172-15.53125 102.11914-.2493-.051-.5296-.11988-.79492-.17969 10.36387 2.76118 22.21661 5.67617 26.26172 7.50781l.31836-3.57031c-4.28019-.0159-7.42653-.1104-10.21094-.35156 2.61171-30.23345 3.25906-80.07938 11.64258-104.64258-.71139.0959-10.9819-.69576-11.68555-.88281zm152.45117 12.65234c4.44186 7.92414 8.41674 16.72934 16.75391 44.46289 3.01991-2.60185 4.45354-4.03987 5.04687-4.43164-.77067-1.49908-10.93852-20.7195-21.80078-40.03125zm-43.31445 81.50586c-.37915.0929-.75812.18461-1.13867.27344.38029-.0888.75977-.18061 1.13867-.27344zm-2.68555.61914c-.3797.0823-.75933.1665-1.14062.24414.38152-.0777.76069-.16181 1.14062-.24414zm-3.00195.59766c-.28019.0507-.55869.10635-.83985.15429.28124-.0479.55958-.10353.83985-.15429zm-9.67969.63867c-.0251-16e-5-.0529.002-.0781.002.29358-47e-5.57641.0107.86132.0293-.25791-.0167-.5192-.0296-.7832-.0312zm1.11328.0547c.22773.017.45642.0322.70313.0488-.24668-.0167-.47528-.0318-.70313-.0488zm3.31641.0469c-.11473.008-.22529.014-.33399.0195.10943-.006.21845-.0118.33399-.0195zm-2.25781.0176c.36394.0197.77479.025 1.2246.0195-.44716.005-.86241.0-1.2246-.0195zm-125.96485 1.77929c1.61889.5889 3.77116 1.24543 6.09766 1.92188-2.14934-.66024-4.28449-1.34133-6.09766-1.92188zm96.50195 5.47657c-3.09129.058-6.74885.33926-8.61718.58008.25124.64284.51447 1.25689.86718 2.03125 3.35255-.58078 6.80678-1.47002 10.55274-2.58594-.81573-.0394-1.77659-.0446-2.80274-.0254z" id="path78419"/></clipPath></defs><path class="bottoms_primary" id="path44771-5" d="m368.16293 366.12921c-5.52722 2.94912-11.2923 6.00936-16.96957 8.80438-3.69689 1.82006-7.42678 3.59249-11.19336 5.29688s-7.56982 3.34058-11.41211 4.88867c-3.84228 1.54809-7.72444 3.00823-11.64844 4.35938-3.92399 1.35114-7.88868 2.59346-11.90039 3.70703-4.0117 1.11357-8.07036 2.09823-12.17578 2.93359s-8.25774 1.5206-12.46289 2.03711c-2.29034.28132-4.59286.4696-6.91016.57227-2.3173.10266-4.64928.12058-7 .0645-4.70142-.11226-9.47777-.52208-14.35156-1.15039s-9.84559-1.47542-14.94336-2.46094c-1.90583-.36844-3.32846-.67267-5.27056-1.07579-.68325 3.47529-1.92098 10.1173-2.70742 13.5495-.7675 3.34952-1.76761 3.05806-3.03992 4.6874-8.10023 10.37323-19.45858 60.71207-25.10898 86.83267l22.0687 8.65781.19501 2.93296c9.45247 3.43848 33.8001 8.74495 39.9591 11.53378l.31827-3.57946c6.16862.0143 9.64042-.22723 13.999-.18782l.63136 1.82105c3.64614.95644 21.93406-.85574 31.07788-3.31755.8619-.23205 1.36493-.20618 1.89989-.21473.25124.64284.51298 1.25757.86569 2.03193 8.56698-1.48409 17.73262-4.93397 31.00192-9.23267 4.8262-1.56348 4.70931-.0926 10.10675-.81354 15.61175-2.0852 29.57597-8.99513 44.72297-12.22609.97779-1.90902-1.23255-5.41935-.27929-5.27625 4.86103-3.061 23.34681-8.8664 26.29058-14.29122-.38089-2.68947.002-4.21573-1.36571-7.04497 3.01991-2.60185 4.45286-4.04056 5.04619-4.43233-1.52587-2.96805-39.88587-75.4107-47.54797-80.47163-4.79178-3.16504-5.39515-5.09896-5.82026-6.13947z"/><g id="g78263" style="filter:url(#filter78301)" clip-path="url(#clipPath78303)"><g style="display:inline" id="g78230"><path class="bottoms_primary_highlight" id="path78220" d="m297.51519 519.87447-4.00693-112.60676-17.02949.88389c-8.41726 27.99447-7.81567 74.02665-10.50261 113.48176z"/><path d="m297.51519 519.87447-3.04841-112.60676-12.95577.88389-4.26816 112.85676z" id="path78222" class="bottoms_primary_highlight"/><path class="bottoms_primary_highlight" id="path78224" d="m297.51519 519.87447-1.41421-112.60676-6.01041.88389-5.40533 112.23176z"/><path class="bottoms_primary_highlight" id="path78226" d="m297.51519 519.87447-1.41421-112.60676-6.01041.88389-.53033 112.60676z"/><path d="m297.51519 519.87447-1.41421-112.60676-6.01041.88389-.53033 112.60676z" id="path78228" class="bottoms_primary_highlight"/></g><g style="display:inline" id="g78242"><path d="m328.26519 515.99947-5.53921-113.23176-11.88541 3.13389c1.73989 37.24392-1.02924 115.82052 5.21967 111.73176z" id="path78232" class="bottoms_primary_highlight"/><path class="bottoms_primary_highlight" id="path78234" d="m327.01519 515.99947-5.53921-113.23176-4.01041.88389 3.59467 113.23176z"/><path d="m327.01519 515.99947-5.53921-113.23176-4.01041.88389 3.59467 113.23176z" id="path78236" class="bottoms_primary_highlight"/><path class="bottoms_primary_highlight" id="path78238" d="m327.01519 515.99947-5.53921-113.23176-3.26041.75889 4.09467 113.35676z"/><path d="m327.01519 515.99947-5.53921-113.23176-1.51041.50889 3.59467 113.23176z" id="path78240" class="bottoms_primary_highlight"/></g><g style="display:inline" id="g78248"><path d="m229.22748 516.23641 19.46079-107.48176-7.38541-1.24111-24.90533 107.10676z" id="path78244" class="bottoms_primary_highlight"/><path class="bottoms_primary_highlight" id="path78246" d="m224.35248 513.73641 22.21079-105.10676-5.26041-1.11611-24.90533 107.10676z"/></g><g id="g78255"><path d="M358.91356 510.14179C344.522 514.58513 342.45645 435.82797 334.22789 398.67107l24.70585-11.01561c11.51478 37.79567 31.34114 83.90292 33.92094 112.76361z" id="path78251" class="bottoms_primary_highlight"/><path class="bottoms_primary_highlight" id="path78253" d="m365.10074 508.19725c-13.50767 1.08458-17.69454-75.19771-25.9231-112.35461l4.19975-1.11611c11.51478 37.79567 15.43124 83.54936 23.84467 111.52617z"/></g><g id="g78261"><path d="m423.79061 479.64781c-13.99998-43.34344-32.40578-73.29322-52.26283-98.83119l11.18243-1.82321c20.93454 22.3856 39.38238 49.50397 45.85337 99.41697z" id="path78257" class="bottoms_primary_highlight"/><path class="bottoms_primary_highlight" id="path78259" d="M426.1771 479.7362c-13.99998-43.34344-30.90318-74.53066-50.76023-100.06863l7.29334-.67416c20.93454 22.3856 39.38238 49.50397 45.85337 99.41697z"/></g></g><path class="bottoms_accent" id="path44783-3" d="m368.1648 366.12858c-5.52417 2.9475-11.29731 6.01153-16.97144 8.80501-3.69689 1.82006-7.42678 3.59249-11.19336 5.29688s-7.56982 3.34058-11.41211 4.88867c-3.84228 1.54809-7.72444 3.00823-11.64844 4.35938-3.92399 1.35114-7.88868 2.59346-11.90039 3.70703-4.0117 1.11357-8.07036 2.09823-12.17578 2.93359s-8.25774 1.5206-12.46289 2.03711c-2.29034.28132-4.59286.4696-6.91016.57227-2.3173.10266-4.64928.12058-7 .0645-4.70142-.11226-9.47777-.52208-14.35156-1.15039s-9.84559-1.47542-14.94336-2.46094c-1.62964-.31505-3.60664-.72182-5.28373-1.07424-.99887 4.87658-1.56976 8.82724-2.99661 14.62973 17.52253 3.67874 36.36453 6.537 53.60556 4.44691 31.68128-3.81368 66.03462-18.91937 92.26998-32.92976z"/><g id="g78393" style="filter:url(#filter78415)" clip-path="url(#clipPath78417)"><g transform="translate(220.8719,-12.948485)" id="g78362"><g id="g78368"><path d="m137.37501 398.49997 3.25-1c30.33333 42.16667 42.94435 99.04057 60.125 99.87501-14.68622 4.87787-22.43595 15.19227-33.55894 6.6807z" id="path78309" class="bottoms_primary_shade"/><path class="bottoms_primary_shade" id="path78364" d="m137.37501 398.49997c23.06767 26.58078 33.30437 93.33979 54.25 103.12501-14.68622 4.87787-13.31095 10.94227-24.43394 2.4307z"/></g></g><g id="g78336"><path d="m287.62501 409.62497 10.875-1.625c-.1113 37.94423-.94939 75.05785 1.125 115.50001h-27.125z" id="path78307" class="bottoms_primary_shade"/><path class="bottoms_primary_shade" id="path78311" d="m287.62501 409.62497 5.625-.625c-.1113 37.94423-.69939 73.80785 1.375 114.25001l-22.125.25z"/></g><g id="g78332"><path d="m260.00001 410.62497 9.125.75.375 113.12501c-4.08789 3.60317-17.21789-3.19139-25.75-4.625 5.38504-39.19966 10.56725-96.24901 16.25-109.25001z" id="path78313" class="bottoms_primary_shade"/><path class="bottoms_primary_shade" id="path78315" d="m264.12501 411.62497 5-.25.375 113.12501c-4.08789 3.60317-10.21789-1.44139-18.75-2.875 1.63504-40.94966 7.69225-96.99901 13.375-110.00001z"/></g><g id="g78328"><path id="path3196" class="shadow" d="m233.26996 486.52413c-.72996-.0584-1.00098.0383-1.64725-.0263.67334-.0766.82862-.19236 1.64725.0263z"/><path d="m237.87501 408.24997 12.875 1.875-19.5 103.75001-22.375-6.875c12.58333-30.875 15.42187-81.60768 29-98.75001z" id="path78317" class="bottoms_primary_shade"/><path class="bottoms_primary_shade" id="path78319" d="m242.50001 408.62497 8.25 1.5-19.5 103.75001-17.75-6.5c12.58333-30.875 15.42187-81.60768 29-98.75001z"/><path d="m246.50001 408.99997 4.25 1.125-19.5 103.75001-13.75-6.125c12.58333-30.875 15.42187-81.60768 29-98.75001z" id="path78321" class="bottoms_primary_shade"/></g><g id="g78346"><path id="path3208" class="shadow" d="m341.32165 437.01632c2.54382 3.8072 2.49593 2.56571 4.5389 3.6589-1.83361-1.26734-1.97191-.0112-4.5389-3.6589z"/><path d="m312.75002 404.12497 10.625-3c5.73038 30.34109 4.82528 113.61328 15.375 115.37501l-30.75 6.25z" id="path78338" class="bottoms_primary_shade"/><path class="bottoms_primary_shade" id="path78340" d="m312.75002 404.12497 7.375-1c2.60538 11.09109 4.82528 113.61328 15.375 115.37501l-27.5 4.25z"/></g><g id="g78411"><path class="bottoms_primary_shade" id="path78348" d="m338.46364 394.24844 12.87652-5.22119 14.5726 73.69492c2.45507 14.94643-1.29861 31.22331 19.69634 42.19692l-27.87222 6.95957z"/><path class="bottoms_primary_shade" id="path78350" d="m338.46364 394.24844 12.87652-5.22119 14.5726 73.69492c-5.30241 2.50029-14.17608-6.45583-17.80088-9.34351z"/><path d="m338.46364 394.24844 4.87652-.47119c.40949 5.19462 15.51771 2.0879 12.4476 62.19492-5.30241 2.50029-4.05108.29417-7.67588-2.59351z" id="path78352" class="bottoms_primary_shade"/><path class="bottoms_primary_shade" id="path78354" d="m338.46364 394.24844c15.63435 9.62074 14.91109 34.47537 13.69912 61.97373-5.30241 2.50029-.42608.0442-4.05088-2.84351z"/></g></g></svg>