<svg viewBox="0 0 560 1e3"><path d="M487.94 432.27" class="hair" id="path225"/><path d="m286.65609 461.98173c.16638.005.65051.34419.56084.39247.19977.003.32856-.0658.40338-.1882.33422.12782.51696.25564.58043.38346.21609-.0894.4782-.15944 1.0133-.11503.43584.10754.68692.23419.82103.37294-.008.0927.52663-.14421.736-.32954-.90113-4.11148-2.10193-8.21187-1.94173-12.36266 2.71856 4.23162 8.61462 12.04671 8.61462 12.04671.38989.13811.74234.29026.96675.49043.24847-.10956.69829-.13102 1.10404-.17177.58751.0888 1.10811.2044 1.59165.33481.6335-.21513 1.27181-.4289 2.23112-.55239.52527.0705 1.01879.15999 1.33811.35403.15476-.34455.70352-.50509 1.09301-.76827.0.0.44736-5.11636.76594-5.196-.12435-.50648-.23931-1.02703.0439-2.14488l2.01173-3.54551c-.43128.39066-.44976-.25068-.56821-.64206-1.08258-.32189 7.91303-16.94494 10.50549-18.79352-.63953.33539-13.02 1.46541-13.26141 1.25849-.98823.039-1.25854-.32319-1.79438-.53699-1.41965.37941-3.15091.48875-4.77102.69443-.81811-.007-1.4182-.1762-1.83865-.47812-1.18533.5001-2.60972.62168-3.95727.86493-.81281-.12067-1.55687-.28389-2.06256-.59468-1.39849.35479-3.03308.59666-5.10777.62804-.72143-.13335-1.41712-.2812-1.90627-.54521-1.13229.38897-2.62485.50346-4.37547.42133-.93928-.0262-1.90812-.0174-2.53422-.41368-.42921.26544-1.18226.18798-1.84402.20719-.52649.46904-18.28084 2.95756-19.55531 2.12087.66622-.3004 16.89738 8.89776 17.23132 10.56747.62897.18482 2.21565 2.89524 2.70926 3.29872.93409 1.06603 1.82894 2.13206 2.47505 3.19809 1.19621.89238 2.23683 1.80421 3.09974 2.73825.58096.62421.87351 1.24843 1.06066 1.87264.77048.99028 1.01013.94544 1.39224 1.17839.30699.2588.57315.52927.59205.87038.66159.27273.91436.709 1.1695 1.14431.0913.17244.0921.30177-.0352.37012.27389.19768.54396.36486.79721.39746.0924-.009.65123.76933.6451 1.17255z" id="path5158" class="pubic_hair"/></svg>