<svg viewBox="0 0 560 1e3"><defs><filter style="color-interpolation-filters:sRGB" id="filter78301"><feGaussianBlur stdDeviation="2 2" result="blur" id="feGaussianBlur78299"/></filter><filter style="color-interpolation-filters:sRGB" id="filter78415"><feGaussianBlur stdDeviation="2 2" result="blur" id="feGaussianBlur78413"/></filter><clipPath clipPathUnits="userSpaceOnUse" id="clipPath37013"><path id="path37015" d="m364.59497 386.11867c-.14567.002-.27952.0295-.40246.0809-1.09708.4595-2.08167.89095-2.90639 1.28848 1.23448 4.64217 4.16246 11.22658 8.15864 19.67816 4.12344 8.72074 8.43413 17.524 12.88555 27.97742 8.55772 20.09637 15.25326 41.48068 16.51311 56.23865 2.43842-1.53268 8.20352-3.7601 13.61561-6.28594 5.43775-2.53782 10.4429-5.33764 11.83226-8.06659-.56048 1.1009-3.74047-4.08917-8.26201-12.41501-4.52863-8.3389-10.42703-19.84796-17.08154-31.47578-6.8734-12.01027-13.89275-22.9974-20.56745-32.23923-6.3967-8.85693-11.53192-14.81744-13.78532-14.7811v2e-5zm-21.67681 10.05848c-.49722-.0204-1.00662.0143-1.53116.11151 1.69551 3.95153 4.38773 10.87274 7.01634 18.38283 2.73972 7.82752 5.66846 17.01383 8.14054 27.09949 5.37581 21.9324 7.06937 41.6501 7.44181 65.10979 11.89357-2.95848 23.21631-7.69961 34.89957-10.23581-2.52586.54831-10.39414 2.30315-18.29971-1.76578-3.96041-2.03839-7.87252-5.5071-11.17483-11.31551-3.34283-5.87968-5.91439-13.84296-7.80594-25.24251-.45986-3.28292-.76684-18.60735-3.55979-33.23975-1.39172-7.29132-3.32479-14.48315-5.78105-19.81706-2.46725-5.35778-5.49274-8.92937-9.34578-9.0872zm-17.55145 6.42927c-3.50793 1.02892-10.482 3.0415-10.482 3.0415.0639.31426 2.26268 12.07051 3.65578 20.22179 1.85116 10.83151 3.53096 22.34987 4.31976 35.6639.77851 13.14011.49835 24.88615.21544 35.33752-.27079 10.00362-.36119 17.37127-.38853 19.43732 5.90475-1.72621 12.58262-4.00623 20.836-6.6101 1.78575-.56338 2.89235-.72484 3.84572-.74422-.14417.003-.28526.001-.43855.012-3.57702.42233-5.73498-4.97647-7.04269-13.53824-1.28782-8.43156-1.80968-20.43271-2.8509-32.61626-1.11129-13.00336-2.64969-24.54833-4.91861-36.15291-2.09611-10.72069-4.52939-20.0242-6.75142-24.05228v2e-5zm-105.87585 5.95849c.3574 3.35712-.70456 3.03883-1.38334 4.66811-1.11236 2.67-1.39106 7.55411-1.55117 14.18991-.16355 6.77816-.22205 14.32834-1.22967 23.05827-1.02494 8.88007-2.81855 17.08908-5.48635 25.94567-2.44043 8.10175-5.68617 16.81465-7.82295 22.92124 6.75547 2.8878 20.88018 8.60694 20.88018 8.60694 2.33329-9.32198 5.0859-17.92616 7.22074-26.09853 2.17278-8.31761 3.71357-15.76637 4.71553-23.49101 2.12476-16.381 1.29617-28.44844.65151-45.71393-3.57103-1.18944-11.44599-3.21901-15.99448-4.08667zm80.53789 1.22816c-4.66425 1.04436-13.77327 3.06448-13.77327 3.06448.60864 4.2101 2.02822 11.69408 3.48773 20.81731 1.53669 9.60559 2.77141 19.40375 3.25283 30.71037.48077 11.29138.0991 21.26405-.29822 31.16806-.41655 10.38376-.60244 16.47114-.38198 22.34031-4.98472.23575-14.96659.67662-14.96659.67662.22688.61285.66075 1.80902.66075 1.80902 3.67861.94963 21.99905-.84984 31.24726-3.29928-.76634.19903-1.49896.36055-2.19857.48753-2.09941-14.76224-.13255-33.61975-.35568-52.82699-.23561-20.28114-2.74892-37.72202-6.67426-54.94743zm-22.6795 108.77715c-4.15252-.0368-8.94845.10197-13.32323.18122 5.69916-.007 9.13558-.21833 13.32323-.18122zM245.40986 413.88093c-.24542-.0596.491 5.52527 1.31653 14.02432.86833 8.93967 1.61482 19.54917.76192 31.79626-.86927 12.48228-3.14119 23.37078-5.57268 34.10033-2.28238 10.07159-3.94485 18.01555-4.57311 21.23479-.24988-.0506-.53068-.11897-.79645-.17834 10.38608 2.74258 22.37244 5.63273 26.52328 7.45797.0609-1.17422.207-3.54926.207-3.54926-4.30226-.0156-7.46596-.10939-10.26822-.34885 1.03564-15.01489 4.68617-34.73789 5.33438-53.80795.64822-19.07005-1.89916-37.54702-.49931-49.82852-.78458.10312-11.66054-.71309-12.43334-.90075zm162.43382 11.79039c2.12159 3.91189 4.13407 8.13094 6.49072 14.73692 2.48892 6.97677 4.96748 15.40005 8.75902 29.58462 2.79308-2.61317 4.07539-4.05745 4.6102-4.45171-.0623-.13471-3.08125-6.52951-6.34992-13.29711-3.61809-7.49104-8.22484-16.86055-13.51002-26.57272zm-44.69136 81.41624c-.38507.0928-.76996.1844-1.15631.27313.38609-.0887.77149-.1804 1.15631-.27313zm-2.7262.61848c-.38527.0822-.77063.16632-1.15733.24388.38693-.0776.77183-.16163 1.15733-.24388zm-3.04403.59714c-.28392.0507-.56644.10625-.85123.15417.28487-.0479.56722-.10344.85123-.15417zm-9.75751.64299c-.0252-14e-5-.0533.002-.0786.002.2952-7e-4.57895.0102.86437.0284-.25838-.0164-.52038-.029-.78573-.0304l-1e-5-1e-4zm1.11629.0535c.22802.0167.45706.0317.70415.048-.24705-.0164-.47601-.0312-.70415-.048zm3.33015.044c-.11568.008-.22707.0141-.33657.0197.11026-.006.22009-.0119.33657-.0197zm-2.26957.0193c.36472.0193.77731.0242 1.22956.0184-.44956.005-.86659 68e-5-1.22956-.0184zm-126.86993 1.79859c1.59239.58497 3.71768 1.23554 6.03147 1.90736-2.14583-.65852-4.23567-1.3278-6.03147-1.90736zm96.92432 5.42633c-3.11219.0584-6.79992.33869-8.68436.57832.23938.63482.49804 1.25294.84342 2.01891 3.37487-.5778 6.86259-1.46273 10.66036-2.57269-.81967-.039-1.78636-.0439-2.81942-.0245v1e-5z" style="display:inline;fill-opacity:.5;fill:#80aab6"/></clipPath><clipPath clipPathUnits="userSpaceOnUse" id="clipPath37017"><path id="path37019" d="m369.42532 366.51952c-6.15385 2.98369-12.7058 6.09977-19.14146 8.93747-4.19506 1.84976-8.44384 3.65639-12.7198 5.39175-4.277 1.73578-8.5946 3.4056-12.93479 4.98434-4.34103 1.57904-8.71456 3.07042-13.11068 4.44974-4.39683 1.37954-8.82032 2.64887-13.27267 3.7862-4.45276 1.13743-8.93713 2.1434-13.45262 2.99633-4.51577.85297-9.06434 1.55233-13.65516 2.07865-2.50048.28667-5.01724.47877-7.55427.5837-2.53697.10493-5.0939.12356-7.67451.0666-5.16069-.114-10.41819-.53197-15.78095-1.17511-5.36216-.64306-10.83204-1.51185-16.4113-2.52532-2.05909-.37403-3.67087-.69656-5.7631-1.10675.28446 3.48995 1.1718 10.14565 1.53709 13.57695 4.54854.86765 12.42258 2.89711 15.99363 4.08655.64468 17.2657 1.47357 29.33282-.65092 45.71407-1.00182 7.72467-2.54249 15.17348-4.71517 23.4911-2.13475 8.17239-4.8873 16.77659-7.22063 26.09857.0117.97909.0336 2.90773.0336 2.90773 4.31151 1.39143 10.38461 3.35815 14.41109 4.17369.62829-3.21925 2.29077-11.16318 4.5731-21.23474 2.43142-10.72951 4.70324-21.61798 5.57239-34.10023.85278-12.24703.10621-22.85652-.76219-31.79615-.82559-8.49902-1.56204-14.08387-1.31662-14.02427.77279.18765 11.64864 1.00389 12.4332.90074-1.39984 12.28151 1.14769 30.75872.49952 49.82903-.64818 19.0703-4.29877 38.79355-5.33434 53.80844 2.80274.23951 5.96805.33281 10.27144.34834 4.56251-.0755 9.68595-.23597 14.06919-.19713 4.99526-.21521 14.9671-.67589 14.9671-.67589-.22047-5.86898-.0345-11.95672.38217-22.34025.39743-9.90398.77929-19.87657.29872-31.16791-.48121-11.30657-1.71574-21.10469-3.25224-30.71023-1.45935-9.12319-2.87882-16.60714-3.48745-20.81724 4.52133-1.00049 13.77219-3.0649 13.77219-3.0649 3.92535 17.22539 6.43857 34.66625 6.67411 54.94731.22307 19.20719-1.74383 38.06464.35558 52.82688.69962-.12698 1.43176-.28941 2.1981-.48843.87118-.23074 1.37734-.20513 1.91568-.21373 2.51218-.31945 8.22824-.71013 11.51531-.55254.0273-2.06315.11742-9.42957.38809-19.43297.28279-10.45085.56313-22.19828-.21527-35.33925-.78873-13.3155-2.46864-24.83476-4.32019-35.66789-1.39319-8.15136-3.59283-19.91109-3.65648-20.22431 3.48253-.99993 10.4826-3.04126 10.4826-3.04126 2.22204 4.02809 4.65541 13.3316 6.75161 24.05228 2.26904 11.6046 3.80753 23.14953 4.91893 36.15291 1.04133 12.1836 1.56329 24.18465 2.85122 32.61626 1.3078 8.56177 3.46584 13.96058 7.04286 13.53825 1.94125-.13407 3.01085.41456 6.79315-.0851 3.48274-.46013 6.89529-1.15411 10.26146-1.99136-.37211-23.46101-2.06503-43.18016-7.44104-65.11461-2.47218-10.08662-5.40114-19.2737-8.14114-27.102-2.62887-7.51076-5.32141-14.43269-7.01703-18.38447 4.2035-.77547 7.48441 2.31359 10.14582 7.47061 2.64582 5.12682 4.73098 12.4179 6.2362 19.90774 3.02341 15.04423 3.36142 31.26476 3.83611 34.65359 1.89154 11.39953 4.46318 19.36276 7.80612 25.24235 3.30242 5.80833 7.21468 9.27693 11.17524 11.3152 7.90586 4.06871 15.77443 2.31363 18.30027 1.76532 1.04199-1.90608-.96574-5.40179-.0419-5.26156-1.25985-14.75792-7.95582-36.14246-16.51398-56.23894-4.45168-10.45352-8.76257-19.25679-12.88624-27.97762-3.99637-8.45162-6.92448-15.03608-8.15896-19.67824.82471-.39754 1.80944-.82846 2.90651-1.28796 1.943-.8138 6.89827 4.73563 13.28307 13.45535 6.63038 9.0551 13.83445 20.21684 20.83726 32.37658 6.92616 12.02665 12.74064 23.39873 17.50096 32.18373 4.63739 8.55812 7.90873 13.93416 8.47883 12.81438-.33242-2.69703.0355-4.20449-1.19832-7.03698-3.80437-14.23254-6.28798-22.66868-8.78302-29.65296-2.36199-6.61183-4.37937-10.82894-6.51014-14.75081-5.24883-9.64051-10.59325-18.55906-15.62246-26.17837-4.85031-7.34828-8.91375-12.74498-10.86528-13.95805-5.06703-3.14966-5.67467-5.05886-6.11318-6.11342-2.06477-4.24473-4.04937-8.55842-5.77402-12.81976z" clip-path="none" style="display:inline;fill-opacity:.5;fill:#80122f"/></clipPath></defs><path id="path35244" d="m369.42532 366.51952c-6.15385 2.98369-12.7058 6.09977-19.14146 8.93747-4.19506 1.84976-8.44384 3.65639-12.7198 5.39175-4.277 1.73578-8.5946 3.4056-12.93479 4.98434-4.34103 1.57904-8.71456 3.07042-13.11068 4.44974-4.39683 1.37954-8.82032 2.64887-13.27267 3.7862-4.45276 1.13743-8.93713 2.1434-13.45262 2.99633-4.51577.85297-9.06434 1.55233-13.65516 2.07865-2.50048.28667-5.01724.47877-7.55427.5837-2.53697.10493-5.0939.12356-7.67451.0666-5.16069-.114-10.41819-.53197-15.78095-1.17511-5.36216-.64306-10.83204-1.51185-16.4113-2.52532-2.05909-.37403-3.67087-.69656-5.7631-1.10675.28446 3.48995 1.1718 10.14565 1.53709 13.57695.35739 3.35711-.70543 3.03872-1.38421 4.66799-1.11236 2.67001-1.391 7.55416-1.55103 14.19002-.16346 6.77822-.22185 14.32849-1.22936 23.05849-1.02485 8.88015-2.81838 17.08924-5.48613 25.9459-2.44039 8.10185-5.68608 16.81469-7.82288 22.92134 6.75559 2.88767 20.88052 8.60655 20.88052 8.60655.0117.97909.0336 2.90773.0336 2.90773 9.28961 3.41253 33.82903 8.6792 40.13793 11.45341.0608-1.17725.20679-3.55835.20679-3.55835 6.20055.0139 9.68871-.22623 14.07206-.18739.22705.61309.66127 1.80975.66127 1.80975 3.67859.94962 21.99878-.85097 31.24701-3.30041.87118-.23074 1.37734-.20513 1.91568-.21373.23939.63485.49651 1.25357.84191 2.01958 8.5724-1.46765 17.97328-4.91677 31.50823-9.18692 4.93512-1.55697 4.74273-.0951 10.20169-.81633 15.7897-2.08604 30.17131-8.98345 45.16202-12.23763 1.04198-1.90608-.96574-5.40179-.0419-5.26156 2.43842-1.53267 8.2034-3.76014 13.61539-6.28603 5.43764-2.53787 10.44269-5.33774 11.83205-8.06669-.33242-2.69703.0355-4.20449-1.19832-7.03698 2.79308-2.61317 4.07478-4.05813 4.60959-4.4524-.0703-.15188-3.02081-6.40182-6.24249-13.07615-3.54915-7.35275-8.10028-16.62265-13.30241-26.2166-5.29673-9.76842-10.69174-18.80477-15.80937-26.57768-4.92532-7.48082-9.06354-12.99114-11.03622-14.21736-5.06703-3.14966-5.67466-5.05886-6.11318-6.11342-2.06476-4.2447-4.04936-8.55836-5.77402-12.81968z" class="bottoms_primary"/><g clip-path="url(#clipPath37017)" style="filter:url(#filter78301)" id="g35288"><g id="g35256" style="display:inline"><path id="path35246" d="m297.36989 519.9017c-.43649-10.69765.0916-19.57239.20882-33.09817.1124-12.96528-.36212-24.08829-2.01018-36.50615-1.53077-11.53405-3.86337-22.1865-5.53744-29.71974-1.69073-7.60823-2.7332-12.31635-2.7332-12.31635-6.27513.3277-18.50168.9251-18.50168.9251-1.5538 14.0333 1.31793 32.43461 1.30415 52.13153-.007 10.37421-.64849 19.50363-1.73322 30.19703-1.00431 9.9006-2.35328 20.59459-2.6326 30.13737 2.18807-.12126 29.44728-1.62936 31.63535-1.75062z" class="bottoms_primary_highlight"/><path id="path35248" d="m297.36989 519.9017c-.34404-10.68539.26128-19.58471.49671-33.0986.22593-12.96837-.14999-24.08647-1.67947-36.50765-1.41934-11.52668-3.64306-22.19543-5.23322-29.72091-1.60769-7.60841-2.59584-12.31653-2.59584-12.31653-4.7488.32268-14.08162.92073-14.08162.92073 1.49398 9.17254 3.8202 21.41753 5.12238 33.39548 1.41078 12.97683 1.55027 24.26744.79967 36.60036-.70588 11.5983-1.97314 22.04344-2.56701 29.61-.594 7.56819-.6077 12.2458-.6077 12.2458 1.25413-.0696 19.09197-1.05905 20.3461-1.12868z" class="bottoms_primary_highlight"/><path id="path35250" d="m297.36989 519.9017c-.18691-10.66442.55111-19.6058.98759-33.09932.41967-12.97373.21174-24.08336-1.11517-36.5103-1.2294-11.51367-3.26654-22.21124-4.71378-29.72303-1.46593-7.60876-2.36144-12.31687-2.36144-12.31687-2.16378.3138-6.48018.90575-6.48018.90575 1.19735 9.02346 3.17369 21.39695 4.20277 33.21379 1.12435 12.9107 1.11473 24.13716.24638 36.408-.81643 11.53733-2.16019 21.92651-2.84897 29.45146-.68893 7.52668-.80217 12.17738-.80217 12.17738 2.67022-.10504 10.21475-.40181 12.88497-.50686z" class="bottoms_primary_highlight"/><path id="path35252" d="m297.36989 519.9017c-.18691-10.66442.55111-19.6058.98759-33.09932.41967-12.97373.21174-24.08336-1.11517-36.5103-1.2294-11.51367-3.26654-22.21124-4.71378-29.72303-1.46593-7.60876-2.36144-12.31687-2.36144-12.31687-2.16378.3138-6.48018.90575-6.48018.90575 1.65391 9.16583 4.16383 21.35184 5.72045 33.32014 1.68325 12.94203 2.14115 24.22606 1.8017 36.5284-.31943 11.57664-1.19954 22.00244-1.55421 29.55406-.35472 7.55296-.26714 12.22064-.26714 12.22064.12518-.0138 7.857-.86566 7.98218-.87947z" class="bottoms_primary_highlight"/><path id="path35254" d="m297.36989 519.9017c-.18691-10.66442.55111-19.6058.98759-33.09932.41967-12.97373.21174-24.08336-1.11517-36.5103-1.2294-11.51367-3.26654-22.21124-4.71378-29.72303-1.46593-7.60876-2.36144-12.31687-2.36144-12.31687-2.16378.3138-6.48018.90575-6.48018.90575 1.65391 9.16583 4.16383 21.35184 5.72045 33.32014 1.68325 12.94203 2.14115 24.22606 1.8017 36.5284-.31943 11.57664-1.19954 22.00244-1.55421 29.55406-.35472 7.55296-.26714 12.22064-.26714 12.22064.12518-.0138 7.857-.86566 7.98218-.87947z" class="bottoms_primary_highlight"/></g><g id="g35268" style="display:inline"><path id="path35258" d="m328.34501 516.04434c-.18128-9.37968.1838-21.06442.11249-33.31957-.0758-13.02619-.70285-24.31656-2.23654-36.79142-1.40487-11.42705-3.46032-22.54622-4.79509-29.93218-1.38476-7.6626-2.17446-12.39243-2.17446-12.39243-4.33187 1.08728-12.90055 3.20877-12.90055 3.20877 1.72069 9.00215 4.00769 21.5296 5.41323 33.64655 1.53924 13.26963 1.93974 24.66613 1.78216 37.24052-.14731 11.75559-.66071 22.24037-.37445 29.54956.28653 7.31624 1.27727 11.42812 2.85778 10.4172 1.0358-.13692 11.27964-1.49008 12.31543-1.627z" class="bottoms_primary_highlight"/><path id="path35260" d="m327.08762 516.04469c-.18614-9.37917.17946-21.06271.10281-33.31647-.0815-13.02477-.72041-24.31367-2.27649-36.78769-1.42509-11.42408-3.50844-22.54727-4.86018-29.93131-1.40277-7.66285-2.2024-12.39298-2.2024-12.39298-1.45387.31379-4.38817.90968-4.38817.90968 1.48882 9.46454 3.76451 21.24023 5.46763 33.54398 1.80609 13.04754 2.63252 24.39762 2.77359 36.80382.12112 10.65091-.34545 23.17216-.50213 29.76098-.18071 7.59933-.12823 12.29009-.12823 12.29009.27145-.0397 5.74212-.84036 6.01357-.8801z" class="bottoms_primary_highlight"/><path id="path35262" d="m327.08762 516.04469c-.18614-9.37917.17946-21.06271.10281-33.31647-.0815-13.02477-.72041-24.31367-2.27649-36.78769-1.42509-11.42408-3.50844-22.54727-4.86018-29.93131-1.40277-7.66285-2.2024-12.39298-2.2024-12.39298-1.45387.31379-4.38817.90968-4.38817.90968 1.48882 9.46454 3.76451 21.24023 5.46763 33.54398 1.80609 13.04754 2.63252 24.39762 2.77359 36.80382.12112 10.65091-.34545 23.17216-.50213 29.76098-.18071 7.59933-.12823 12.29009-.12823 12.29009.27145-.0397 5.74212-.84036 6.01357-.8801z" class="bottoms_primary_highlight"/><path id="path35264" d="m327.08762 516.04469c-.18614-9.37917.17946-21.06271.10281-33.31647-.0815-13.02477-.72041-24.31367-2.27649-36.78769-1.42509-11.42408-3.50844-22.54727-4.86018-29.93131-1.40277-7.66285-2.2024-12.39298-2.2024-12.39298-1.17796.27042-3.56349.78006-3.56349.78006 1.5213 9.47479 3.8374 21.2634 5.58464 33.58107 1.85284 13.06218 2.72238 24.42578 2.91422 36.8465.16472 10.66513-.24769 23.19806-.37682 29.79624-.1489 7.60821-.0785 12.3044-.0785 12.3044.11894-.022 4.63727-.85781 4.75622-.87982z" class="bottoms_primary_highlight"/><path id="path35266" d="m327.08762 516.04469c-.18614-9.37917.17946-21.06271.10281-33.31647-.0815-13.02477-.72041-24.31367-2.27649-36.78769-1.42509-11.42408-3.50844-22.54727-4.86018-29.93131-1.40277-7.66285-2.2024-12.39298-2.2024-12.39298-.53302.18323-1.63341.51924-1.63341.51924 1.43866 9.4645 3.6554 21.24124 5.32059 33.54716 1.76603 13.05124 2.58009 24.40147 2.71814 36.81182.11927 10.72133-.34479 23.10898-.50931 29.76626-.18783 7.60007-.1493 12.29073-.1493 12.29073.11383-.0165 3.37571-.49023 3.48955-.50676z" class="bottoms_primary_highlight"/></g><g id="g35274" style="display:inline"><path id="path35270" d="m228.71299 516.29049c1.61197-8.89167 4.9621-19.96353 7.8226-31.57232 3.04461-12.356 4.80545-23.01464 5.23946-34.84832.40353-11.00253-.47799-21.18081-1.16195-28.35949-.69147-7.25743-1.15958-11.74644-1.15958-11.74644-2.65812-.41463-7.92688-1.27246-7.92688-1.27246.54619 8.61983 1.64269 20.37968 1.46388 31.67886-.19429 12.27718-1.77378 23.09424-4.83442 34.77254-2.61572 9.98066-6.86442 21.98745-8.85839 28.12876-2.33381 7.18802-3.42544 11.61308-3.42544 11.61308.47274.0593 12.36798 1.54648 12.84072 1.60579z" class="bottoms_primary_highlight"/><path id="path35272" d="m223.85186 513.80864c2.04685-8.69042 5.74853-19.51726 8.86389-30.87166 3.30652-12.05108 5.23888-22.54612 5.89944-34.08599.61415-10.72917-.0305-20.74705-.5312-27.73431-.5085-7.09651-.85402-11.48534-.85402-11.48534-1.90114-.37028-5.70333-1.13988-5.70333-1.13988.54619 8.61983 1.64269 20.37968 1.46388 31.67886-.19429 12.27718-1.77378 23.09424-4.83442 34.77254-2.61572 9.98066-6.86442 21.98745-8.85839 28.12876-2.33381 7.18802-3.42544 11.61308-3.42544 11.61308.0293-.003 7.95035-.87284 7.97959-.87606z" class="bottoms_primary_highlight"/></g><g id="g35280"><path id="path35276" d="m359.39688 510.20447c-3.66903 1.10878-6.30776-2.96104-8.20812-10.24469-1.95152-7.47975-2.99257-17.58586-4.43788-29.56036-1.52823-12.66159-3.14882-23.9751-6.01795-37.3266-2.62241-12.20338-6.02292-24.60372-8.99088-33.64641 8.9328-3.72927 26.90424-11.22458 26.90424-11.22458 3.23506 9.21109 7.7849 19.66021 11.88749 29.45063 4.3646 10.41568 8.125 19.81484 11.61404 30.0563 6.62992 19.46097 11.00506 38.65596 11.58541 52.77213-11.26001 3.23398-22.88246 6.50788-34.33635 9.72358z" class="bottoms_primary_highlight"/><path id="path35278" d="m365.70065 508.26453c-3.40804.27389-5.94808-4.26815-7.90147-11.79137-1.99228-7.67294-3.27685-17.88176-4.99764-29.71855-1.8295-12.58466-3.7051-23.6761-6.73562-36.87065-2.73837-11.92251-6.20466-24.3927-8.99313-33.32889 1.55384-.3731 4.62056-1.14869 4.62056-1.14869 8.13359 20.56929 13.56868 38.05269 17.55948 59.20821 3.68148 19.51574 5.2473 37.79806 8.6777 51.71282.30908-.26842-2.53896 2.20554-2.22988 1.93712z" class="bottoms_primary_highlight"/></g><g id="g35286"><path id="path35282" d="m424.14454 479.66347c-6.43883-22.02485-13.05127-39.50635-22.01655-55.89276-9.00855-16.46551-18.99046-29.3138-29.84854-42.51648 4.05431-.63177 11.83625-1.90333 11.83625-1.90333 10.96381 11.37228 20.85751 23.18508 28.61594 39.15833 7.65044 15.75089 12.8549 34.94333 15.83194 59.90115-1.46312.41772-2.93655.83546-4.41904 1.25309z" class="bottoms_primary_highlight"/><path id="path35284" d="m426.35829 479.74394c-6.51712-22.07985-12.70948-39.776-21.21884-56.52849-8.49188-16.71806-18.03877-30.00433-28.70111-43.13949 2.61327-.23341 7.67736-.72506 7.67736-.72506 10.96381 11.37228 20.85751 23.18508 28.61594 39.15833 7.65044 15.75089 12.8549 34.94333 15.83194 59.90115-.73159.44457-1.46675.88909-2.20529 1.33356z" class="bottoms_primary_highlight"/></g></g><path id="path35292" d="m369.42737 366.51888c-6.15123 2.98244-12.71052 6.10158-19.14351 8.93811-4.19506 1.84976-8.44384 3.65639-12.7198 5.39175-4.277 1.73578-8.5946 3.4056-12.93479 4.98434-4.34103 1.57904-8.71456 3.07042-13.11068 4.44974-4.39683 1.37954-8.82032 2.64887-13.27267 3.7862-4.45276 1.13743-8.93713 2.1434-13.45262 2.99633-4.51577.85297-9.06434 1.55233-13.65516 2.07865-2.50048.28667-5.01724.47877-7.55427.5837-2.53697.10493-5.0939.12356-7.67451.0666-5.16069-.114-10.41819-.53197-15.78095-1.17511-5.36216-.64306-10.83204-1.51185-16.4113-2.52532-1.79788-.32659-3.93298-.73975-5.77624-1.10526.35808 4.89693 1.08088 8.85802 1.61292 14.65639 18.38055 3.81148 38.62491 6.69739 56.85999 4.57041 16.69234-1.93326 34.38743-6.76658 51.53898-12.88801 17.15147-6.1214 33.79987-13.55214 47.81262-20.65885-2.27263-4.67889-4.46499-9.45098-6.33801-14.14967z" class="bottoms_accent"/><g clip-path="url(#clipPath37013)" style="filter:url(#filter78415)" id="g35342"><g id="g35300" transform="translate(220.8719,-12.948485)"><g id="g35298"><path id="path35294" d="m136.99233 399.04291c1.19957-.33251 3.5519-1.02556 3.5519-1.02556 8.50077 10.75593 15.75136 21.70746 22.1093 33.14112 6.36488 11.44613 11.08583 21.99027 15.46117 31.97199 8.54537 19.49501 14.7408 33.86102 23.07995 34.26493-13.8973 4.9266-22.08117 15.21949-32.59005 6.76359-7.97673-35.02973-20.37691-69.85317-31.61227-105.11607z" class="bottoms_primary_shade"/><path id="path35296" d="m136.99233 399.04291c6.32201 6.56087 12.21962 15.83721 17.38688 25.86417 5.33197 10.34657 9.62914 20.93585 13.7272 31.73728 8.05088 21.22009 14.19011 40.04822 24.33693 45.02352-7.10206 2.456-10.48507 5.19281-13.34952 6.25848-2.86621 1.06633-5.23702.45877-10.48922-3.76738-7.97673-35.02973-20.37691-69.85317-31.61227-105.11607z" class="bottoms_primary_shade"/></g></g><g id="g35306"><path id="path35302" d="m281.25815 410.64091c3.85786-.53919 11.6902-1.6641 11.6902-1.6641 3.54574 21.57086 6.24497 35.05086 6.85026 56.45943.53295 18.84982-1.84184 37.93941-.25415 58.07261-9.05223.0102-27.18338 53e-5-27.18338 53e-5 3.1314-37.78284 10.71441-74.83831 8.89707-112.86847z" class="bottoms_primary_shade"/><path id="path35304" d="m281.25815 410.64091c2.02124-.20314 6.06427-.64306 6.06427-.64306 3.79955 21.46585 6.56287 34.82681 7.26527 55.82213.6201 18.53551-1.69939 37.31015-.0615 57.4401-7.3825.0931-22.16514.2493-22.16514.2493 3.1314-37.78284 10.71441-74.83831 8.89707-112.86847z" class="bottoms_primary_shade"/></g><g id="g35312"><path id="path35308" d="m251.74967 411.66324c3.26227.26321 9.85753.75653 9.85753.75653 2.27901 9.50923 5.21239 21.11751 7.04537 33.4394 1.93069 12.97873 2.32864 24.32447 1.93779 36.6671-.36811 11.62423-1.22092 22.09905-1.38766 29.69012-.16676 7.59232.20977 12.28861.20977 12.28861-1.92995 1.79041-6.27162 1.00362-11.25214-.42175-4.95578-1.41829-10.51468-3.4694-14.80275-4.1785 1.0258-9.90915 3.41313-20.36277 5.4567-31.45186 2.12966-11.55624 3.40283-21.34233 3.7433-32.25556.32704-10.48278-.30599-19.5667-.79142-27.52679-.48247-7.91165-.71071-13.5948-.0165-17.0073z" class="bottoms_primary_shade"/><path id="path35310" d="m256.35424 412.66857c1.74894-.072 5.25296-.2488 5.25296-.2488 2.27901 9.50923 5.21239 21.11751 7.04537 33.4394 1.93069 12.97873 2.32864 24.32447 1.93779 36.6671-.36811 11.62423-1.22092 22.09905-1.38766 29.69012-.16676 7.59232.20977 12.28861.20977 12.28861-1.93022 1.79066-4.48641 1.43939-7.6855.44947-3.18162-.98451-6.96641-2.5991-11.27077-3.31011-.0907-10.2189 1.66262-21.19823 3.22816-32.30552 1.67925-11.91404 2.73508-21.32024 3.01675-32.42441.2663-10.49834-.27115-19.44482-.63193-27.37011-.35683-7.83871-.44655-13.46872.28506-16.87575z" class="bottoms_primary_shade"/></g><g id="g35322"><path id="path35314" d="m234.68374 486.88385c-.70748-.0589-.9789.0362-1.60311-.0288.6619-.0745.82127-.18857 1.60311.0288z" style="fill:#010101"/><path id="path35316" d="m228.2849 409.21232c4.48182.65294 13.68164 1.93049 13.68164 1.93049.71093 8.47093 1.87541 19.61735 1.92789 30.68083.0563 11.86857-1.10386 22.38022-3.46607 33.66276-2.03377 9.71383-5.35898 21.22332-6.9508 27.22095-1.84575 6.9544-2.71707 11.23968-2.71707 11.23968-7.42897-2.26493-21.96995-6.82722-21.96995-6.82722 3.73792-7.56554 7.60693-16.61183 10.5-25.78389 3.01733-9.56599 4.8037-18.6197 5.64222-28.17581.84883-9.67362.58265-17.67347.67046-25.70157.0841-7.6875.55189-13.889 2.68168-18.24622z" class="bottoms_primary_shade"/><path id="path35318" d="m233.07549 409.61028c2.94454.52056 8.89105 1.53253 8.89105 1.53253.71093 8.47093 1.87541 19.61735 1.92789 30.68083.0563 11.86857-1.10386 22.38022-3.46607 33.66276-2.03377 9.71383-5.35898 21.22332-6.9508 27.22095-1.84575 6.9544-2.71707 11.23968-2.71707 11.23968-5.88517-2.14073-17.41547-6.45215-17.41547-6.45215 3.67934-7.56519 7.46897-16.60358 10.31049-25.77269 2.96376-9.56358 4.72561-18.60732 5.58932-28.16231.87744-9.70693.67294-17.63137.85912-25.69696.17741-7.68507.75303-13.89523 2.97154-18.25264z" class="bottoms_primary_shade"/><path id="path35320" d="m237.27143 410.00206c1.5723.39029 4.69511 1.14075 4.69511 1.14075.71093 8.47093 1.87541 19.61735 1.92789 30.68083.0563 11.86857-1.10386 22.38022-3.46607 33.66276-2.03377 9.71383-5.35898 21.22332-6.9508 27.22095-1.84575 6.9544-2.71707 11.23968-2.71707 11.23968-4.5503-2.01654-13.46897-6.078-13.46897-6.078 3.63075-7.56428 7.35861-16.59841 10.16264-25.76446 2.92519-9.56214 4.67411-18.59751 5.56649-28.15194.91001-9.7431.76092-17.58822 1.03398-25.69317.25883-7.68287.9253-13.90008 3.2168-18.2574z" class="bottoms_primary_shade"/></g><g id="g35330"><path id="path35324" d="m342.96514 437.66455c2.95005 3.79123 2.7378 2.51105 4.97152 3.6065-2.03519-1.28323-1.99641.0391-4.97152-3.6065z" style="fill:#010101"/><path id="path35326" d="m308.24397 405.02641c3.83199-1.00812 11.55812-3.06927 11.55812-3.06927 2.26109 7.1541 5.11946 18.93919 7.23413 30.524 2.3411 12.82523 3.64738 24.43441 4.46607 37.51041.76941 12.28895 1.00127 23.69057 1.99112 32.14718.99026 8.46008 2.7203 13.95951 5.37754 14.40032-10.35903 2.08564-30.94731 6.22286-30.94731 6.22286.98607-39.36401 3.7497-78.07504.32033-117.7355z" class="bottoms_primary_shade"/><path id="path35328" d="m308.24397 405.02641c2.71797-.337 8.13493-1.04392 8.13493-1.04392.87427 2.31011 2.98932 11.74788 5.06527 22.43345 2.35429 12.11827 4.24158 23.99016 5.5545 38.4274 1.2257 13.47812 1.66681 26.65468 2.81441 36.59868 1.14838 9.95065 3.05566 16.64266 5.73728 17.08752-9.26789 1.42723-27.62672 4.23237-27.62672 4.23237.98607-39.36401 3.7497-78.07504.32033-117.7355z" class="bottoms_primary_shade"/></g><g id="g35340"><path id="path35332" d="m336.17382 394.95937c4.72175-1.76741 14.13341-5.32871 14.13341-5.32871 3.03394 12.32474 8.69673 30.70711 12.51529 45.9736 3.81753 15.2624 5.9144 27.45208 5.9144 27.45208 2.18497 14.84813-2.69558 31.02103 17.60102 41.92095-9.32245 2.33036-28.20763 6.95601-28.20763 6.95601-4.56843-39.00912-12.40751-77.64302-21.95649-116.97393z" class="bottoms_primary_shade"/><path id="path35334" d="m336.17382 394.95937c4.72175-1.76741 14.13341-5.32871 14.13341-5.32871 3.03394 12.32474 8.69673 30.70711 12.51529 45.9736 3.81753 15.2624 5.9144 27.45208 5.9144 27.45208-5.27716 2.47902-14.21169-6.30016-18.0196-9.17685-3.65004-19.55396-9.75837-39.14921-14.5435-58.92012z" class="bottoms_primary_shade"/><path id="path35336" d="m336.17382 394.95937c1.82748-.15868 5.42604-.50555 5.42604-.50555.36608 2.6059 4.7016 3.10838 8.9933 10.47444 2.12441 3.64624 4.32375 9.11682 5.94237 17.29642 1.58919 8.03083 2.75255 19.4328 2.04189 34.18326-5.38802 2.52243-4.10246.31026-7.8601-2.52845-3.65004-19.55396-9.75837-39.14921-14.5435-58.92012z" class="bottoms_primary_shade"/><path id="path35338" d="m336.17382 394.95937c8.98619 4.7465 13.76833 13.41712 16.33421 24.20506 2.58015 10.84795 2.91014 23.83 2.38285 37.51412-5.39835 2.52172-.41611.0395-4.17356-2.79906-3.65004-19.55396-9.75837-39.14921-14.5435-58.92012z" class="bottoms_primary_shade"/></g></g></svg>