<svg viewBox="0 0 560 1e3"><path class="shadow" id="path1864" d="m357.90407 448.76345c8.20401-47.60274 6.21688-134.18772 5.34395-174.00638-.13992-6.67885 5.24735 58.56837 2.18283 104.54549 13.38255-84.51214-4.67279-159.37881-11.02934-212.38869 2.95359 8.32137 7.73432 33.31503 7.34773 62.29081C366.79866 166.52066 350.82778 127.86375 326.58223 82.718l-32.88529 10.071528c40.22845 36.982352 55.49289 119.629592 63.36292 345.253432.26426-29.5401 2.33337-32.20122 1.30985-42.19422-.51625 19.19458 1.13132 29.95561-.46564 52.91471z"/><path d="m357.90407 448.76345c7.57526-47.44555 5.93139-134.11635 5.34395-174.00638-.0985-6.68757 6.20224 58.36734 2.18283 104.54549 12.37746-84.44932-4.89384-159.36499-11.02934-212.38869 3.08905 8.30202 8.35696 33.22608 7.34773 62.29081 4.05013-62.7812-11.83553-101.44249-35.16701-146.48668l-32.88529 10.071528C333.9061 129.77859 350.3567 212.71365 357.05986 438.04296c-23e-5-29.57537 2.3203-32.20296 1.30985-42.19422-.37442 19.19458 1.21544 29.95561-.46564 52.91471z" id="path3172-2-7-1-1-0" class="hair"/></svg>