<svg viewBox="0 0 560 1e3"><defs><clipPath clipPathUnits="userSpaceOnUse" id="clipPathBelly_9_Unnatural"><path style="display:inline;fill-opacity:.19607843;fill:#0ff;opacity:1" d="m357.49805 230.06641c-49.88118 16.16626-72.61195 16.52565-114.35157 11.42968-.76058 4.842-.96415 9.88674-.40625 15.07032.13153 3.90391.64823 8.57927 2.00782 13.16797.35421 1.1955.69613 2.33327 1.02532 3.42138 4.10848 10.03828-6.76186 16.10038-11.51946 22.72315-24.08168 17.42062-52.02161 63.92861-46.89844 117.2207 2.85628 52.58607 63.1503 65.79581 92.10742 66.10937 30.33614 1.12304 69.13902-16.88058 86.51758-59.26171 2.87946-5.49858 4.41497-11.63353 4.88867-18.15039 3.09493-4.17389 5.83923-7.96908 8.03906-11.06836-3.33091-7.11265-6.21373-14.52625-9.63281-21.14844-1.6411-3.45083-2.24103-4.55467-4.01953-8.16406-3.67625-6.20806-5.05182-10.20375-8.19727-15.29493-8.65345-17.9296-19.60785-33.73868-27.71875-42.69531.0735-1.75819.33898-3.6044.85938-5.54101 6.18485-23.01618 8.88791-19.12327 18.33008-32.67774 8.1747-11.82703 11.96289-23.21484 11.96289-23.21484-1.23312-2.31543-2.22114-6.60776-2.99414-11.92578z" id="path42739"/></clipPath><clipPath clipPathUnits="userSpaceOnUse" id="clipPathBelly_8_Unnatural"><path style="display:inline;fill-opacity:.19607843;fill:#0ff;opacity:1" d="m357.49805 230.06641c-49.88118 16.16626-72.61195 16.52565-114.35157 11.42968-.76058 4.842-.96415 9.88674-.40625 15.07032.13153 3.90391.64823 8.57927 2.00782 13.16797 1.40572 4.74439 2.22834 7.29045 3.10114 10.32652.29116.89104.17156 1.64989-.57796 2.9515-4.72963 5.67923-5.59889 6.57698-10.82384 11.85418-22.02252 16.73799-46.93946 59.16209-42.27747 107.65686 2.48806 45.80699 52.05687 59.33024 80.22656 61.00586 8.28755 6.0494 15.97065 9.78499 21.17188 9.11132 25.4005-3.28987 67.4841-59.57335 83.33984-81.9121-3.33091-7.11265-6.21373-14.52625-9.63281-21.14844-1.6411-3.45083-2.24103-4.55467-4.01953-8.16406-5.93531-10.02291-5.86545-14.27048-16.94922-26.69336-6.10557-11.61192-13.0225-21.92936-18.9668-29.29883-.1007-2.34025.13783-4.85391.85938-7.53906 6.18485-23.01618 8.88791-19.12327 18.33008-32.67774 8.1747-11.82703 11.96289-23.21484 11.96289-23.21484-1.23312-2.31543-2.22114-6.60776-2.99414-11.92578z" id="path42750"/></clipPath><clipPath clipPathUnits="userSpaceOnUse" id="clipPathBelly_7_Unnatural"><path style="display:inline;fill-opacity:.19607843;fill:#0ff;opacity:1" d="m357.49805 230.06641c-49.88118 16.16626-72.61195 16.52565-114.35157 11.42968-.76058 4.842-.96415 9.88674-.40625 15.07032.13153 3.90391.64823 8.57927 2.00782 13.16797 1.34376 4.53526 2.4999 8.23561 3.45779 11.54152.99066 3.86102-1.70549 4.30091-6.66482 10.54441-20.14971 14.57625-43.52692 53.49128-39.24024 98.08203 1.60933 29.62889 25.01011 44.3052 47.52344 50.82032 15.24603 17.2102 35.39435 33.25847 45.74414 31.91796 25.4005-3.28987 67.4841-59.57335 83.33984-81.9121-3.33091-7.11265-6.21373-14.52625-9.63281-21.14844-1.6411-3.45083-2.24103-4.55467-4.01953-8.16406-7.0689-11.93721-5.6819-15.72766-24.70313-34.84961-3.46899-6.39325-7.17417-12.30196-10.74414-17.37305-.69596-3.34124-.73547-7.11797.39063-11.30859 6.18485-23.01618 8.88791-19.12327 18.33008-32.67774 8.1747-11.82703 11.96289-23.21484 11.96289-23.21484-1.23312-2.31543-2.22114-6.60776-2.99414-11.92578z" id="path42758"/></clipPath><clipPath clipPathUnits="userSpaceOnUse" id="clipPathBelly_6_Unnatural"><path style="display:inline;fill-opacity:.19607843;fill:#0ff;opacity:1" d="m357.49805 230.06641c-49.88118 16.16626-72.61195 16.52565-114.35157 11.42968-.76058 4.842-.96415 9.88674-.40625 15.07032.13153 3.90391.64823 8.57927 2.00782 13.16797 3.0943 10.44345 5.2495 16.51368 6.16406 23.43164-1.85648 2.64351-4.93883 5.77407-8.61719 9.58789-17.1935 12.55258-37.04877 45.73408-33.39453 83.74609.0293.56726.07 1.1282.12109 1.68359 1.7131 19.26609 14.44074 30.86928 29.04883 37.55274 14.36302 21.33002 44.12171 48.6368 57.49805 46.90429 25.4005-3.28987 67.4841-59.57335 83.33984-81.9121-3.33091-7.11265-6.21373-14.52625-9.63281-21.14844-1.6411-3.45083-2.24103-4.55467-4.01953-8.16406-7.29948-12.32658-5.51372-15.91501-26.56641-36.72266-3.68873-4.0896-12.1163-13.31461-8.49023-26.80859 6.18485-23.01618 8.88791-19.12327 18.33008-32.67774 8.1747-11.82703 11.96289-23.21484 11.96289-23.21484-1.23312-2.31543-2.22114-6.60776-2.99414-11.92578z" id="path42771"/></clipPath><clipPath clipPathUnits="userSpaceOnUse" id="clipPathBelly_5_Unnatural"><path style="display:inline;fill-opacity:.19607843;fill:#0ff;opacity:1" d="m357.49805 230.06641c-49.88118 16.16626-72.61195 16.52565-114.35157 11.42968-.76058 4.842-.96415 9.88674-.40625 15.07032.13153 3.90391.64823 8.57927 2.00782 13.16797 3.0694 10.35942 5.21356 16.41659 6.14062 23.26562-8.46547 12.18282-40.1355 34.64556-35.77929 87.13672.52884 13.85975 6.61889 23.59988 15.30273 30.24805 4.65085 19.71029 48.14812 64.45875 65.15625 62.25585 25.4005-3.28987 67.4841-59.57335 83.33984-81.9121-3.33091-7.11265-6.21373-14.52625-9.63281-21.14844-1.6411-3.45083-2.24103-4.55467-4.01953-8.16406-7.29948-12.32658-5.51372-15.91501-26.56641-36.72266-3.68873-4.0896-12.1163-13.31461-8.49023-26.80859 6.18485-23.01618 8.88791-19.12327 18.33008-32.67774 8.1747-11.82703 11.96289-23.21484 11.96289-23.21484-1.23312-2.31543-2.22114-6.60776-2.99414-11.92578z" id="path42781"/></clipPath><clipPath clipPathUnits="userSpaceOnUse" id="clipPathBelly_4_Unnatural"><path style="display:inline;fill-opacity:.19607843;fill:#0ff;opacity:1" d="m357.49805 230.06641c-49.88118 16.16626-72.61195 16.52565-114.35157 11.42968-.76058 4.842-.96415 9.88674-.40625 15.07032.13153 3.90391.64823 8.57927 2.00782 13.16797 3.1283 10.55821 5.30036 16.64465 6.19726 23.6582-7.2717 11.89968-31.97092 31.11878-27.23828 74.72265-.33427 9.23914 3.17811 18.16722 8.61133 26.02735-.14535.92326-.28074 1.80863-.44141 2.79297-.37638 2.03994-.75184 4.29712-1.86718 10.63476.54263 17.83339 47.68265 67.38561 65.55859 65.07031 25.4005-3.28987 67.4841-59.57335 83.33984-81.9121-3.33091-7.11265-6.21373-14.52625-9.63281-21.14844-1.6411-3.45083-2.24103-4.55467-4.01953-8.16406-7.29948-12.32658-5.51372-15.91501-26.56641-36.72266-3.68873-4.0896-12.1163-13.31461-8.49023-26.80859 6.18485-23.01618 8.88791-19.12327 18.33008-32.67774 8.1747-11.82703 11.96289-23.21484 11.96289-23.21484-1.23312-2.31543-2.22114-6.60776-2.99414-11.92578z" id="path42792"/></clipPath><clipPath clipPathUnits="userSpaceOnUse" id="clipPathBelly_3_Unnatural"><path style="display:inline;fill-opacity:.19607843;fill:#0ff;opacity:1" d="m357.49805 230.06641c-49.88118 16.16626-72.61195 16.52565-114.35157 11.42968-.76058 4.842-.96415 9.88674-.40625 15.07032.13153 3.90391.64823 8.57927 2.00782 13.16797 4.58009 15.45809 7.11428 21.32684 6.59179 34.5625-.003.0773-.001.15509-.004.23242-10.25606 27.53096-19.3161 38.17899-17.79102 59.0625.53095 2.5946 1.12955 5.04678 1.78516 7.37695-.856 7.91396-1.65318 14.93926-3.45313 25.9668-.37638 2.03994-.75184 4.29712-1.86718 10.63476.54263 17.83339 47.68265 67.38561 65.55859 65.07031 25.4005-3.28987 67.4841-59.57335 83.33984-81.9121-3.33091-7.11265-6.21373-14.52625-9.63281-21.14844-1.6411-3.45083-2.24103-4.55467-4.01953-8.16406-7.29948-12.32658-5.51372-15.91501-26.56641-36.72266-3.68873-4.0896-12.1163-13.31461-8.49023-26.80859 6.18485-23.01618 8.88791-19.12327 18.33008-32.67774 8.1747-11.82703 11.96289-23.21484 11.96289-23.21484-1.23312-2.31543-2.22114-6.60776-2.99414-11.92578z" id="path42804"/></clipPath><clipPath clipPathUnits="userSpaceOnUse" id="clipPathBelly_2_Unnatural"><path style="display:inline;fill-opacity:.19607843;fill:#0ff;opacity:1" d="m357.49805 230.06641c-49.88118 16.16626-72.61195 16.52565-114.35157 11.42968-.76058 4.842-.96415 9.88674-.40625 15.07032.13153 3.90391.64823 8.57927 2.00782 13.16797 4.50369 15.20023 7.02319 21.14407 6.60937 33.92187-5.12702 15.65095-7.7102 24.84358-8.73242 33.66992-.257 1.67971-.46002 3.35209-.61328 5.05664-2.36739 5.31127-4.49269 11.44191-5.51953 18.17188-.008-.006-.0157-.0114-.0234-.0176-.0229.19927-.0322.30749-.0547.50391-.16457 1.14255-.28798 2.30432-.38476 3.47851-1.21611 11.04254-1.88093 18.49992-4.15235 32.41602-.37638 2.03994-.75184 4.29712-1.86718 10.63476.54263 17.83339 47.68265 67.38561 65.55859 65.07031 25.4005-3.28987 67.4841-59.57335 83.33984-81.9121-3.33091-7.11265-6.21373-14.52625-9.63281-21.14844-1.6411-3.45083-2.24103-4.55467-4.01953-8.16406-7.29948-12.32658-5.51372-15.91501-26.56641-36.72266-3.68873-4.0896-12.1163-13.31461-8.49023-26.80859 6.18485-23.01618 8.88791-19.12327 18.33008-32.67774 8.1747-11.82703 11.96289-23.21484 11.96289-23.21484-1.23312-2.31543-2.22114-6.60776-2.99414-11.92578z" id="path42817"/></clipPath><clipPath clipPathUnits="userSpaceOnUse" id="clipPathBelly_1_Unnatural"><path style="display:inline;fill-opacity:.19607843;fill:#0ff;opacity:1" d="m357.49805 230.06641c-49.88118 16.16626-72.61195 16.52565-114.35157 11.42968-.76058 4.842-.96415 9.88674-.40625 15.07032.13153 3.90391.64823 8.57927 2.00782 13.16797 3.37706 11.3978 5.6359 17.58771 6.38281 25.35546-.16087.58663-.32833 1.18872-.48242 1.76172-5.13767 13.8856-5.82563 26.79833-5.24373 36.34436-.0472 1.78853-.32004 2.89319-1.02412 4.24088-3.23728 6.28332-6.52513 14.18289-7.8884 23.11789-.008-.006-.0157-.0114-.0234-.0176-.0229.19927-.0322.30749-.0547.50391-.16457 1.14255-.28798 2.30432-.38476 3.47851-1.21611 11.04254-1.88093 18.49992-4.15235 32.41602-.37638 2.03994-.75184 4.29712-1.86718 10.63476.54263 17.83339 47.68265 67.38561 65.55859 65.07031 25.4005-3.28987 67.4841-59.57335 83.33984-81.9121-3.33091-7.11265-6.21373-14.52625-9.63281-21.14844-1.6411-3.45083-2.24103-4.55467-4.01953-8.16406-7.29948-12.32658-5.51372-15.91501-26.56641-36.72266-3.68873-4.0896-12.1163-13.31461-8.49023-26.80859 6.18485-23.01618 8.88791-19.12327 18.33008-32.67774 8.1747-11.82703 11.96289-23.21484 11.96289-23.21484-1.23312-2.31543-2.22114-6.60776-2.99414-11.92578z" id="path42831"/></clipPath><clipPath clipPathUnits="userSpaceOnUse" id="clipPathBelly_1_Hourglass"><path style="display:inline;fill-opacity:.19607843;fill:red;opacity:1" d="m357.49609 230.05273c-44.02018 18.50933-91.79981 15.52681-114.34961 11.44336-.76055 4.84194-.96415 9.88681-.40625 15.07032.94813 18.58839 5.23565 31.45261 5.24219 47.80664 16e-5.39812-.0112.78098-.0176 1.16992-1.52977 6.03087-2.29693 11.7533-2.58203 16.96094-3.11997 10.86974-8.08142 20.11028-9.26172 37.71679-.002-.001-.004-.002-.006-.004-.0167.18472-.0285.31761-.0449.5-.003.0333-.005.0663-.008.0996-1.20439 13.41903-1.66357 20.66796-4.18555 36.11914-.52181 2.71738-.68965 3.72422-1.82226 10.47851.21871 20.95565 50.78661 67.30306 64.88867 65.47656 24.70321-3.19954 66.98155-58.24257 83.95703-82.08984-2.65001-6.3252-6.51349-14.54763-9.625-21.2207-1.6411-3.45083-2.24103-4.55467-4.01953-8.16406-5.0098-8.46001-5.74048-12.80421-12.51172-21.42383-8.04998-10.36524-18.7494-17.65223-18.42187-30.42774.29692-11.58113 5.01047-29.81439 9.46875-35.45117 11.69026-16.7409 16.70117-32.12109 16.70117-32.12109-1.23417-2.31741-2.22281-6.61514-2.9961-11.93946z" id="path55826-1"/></clipPath><clipPath clipPathUnits="userSpaceOnUse" id="clipPathBelly_2_Hourglass"><path style="display:inline;fill-opacity:.19607843;fill:#f0f;opacity:1" d="m357.49609 230.05273c-44.02018 18.50933-91.79981 15.52681-114.34961 11.44336-.76055 4.84194-.96415 9.88681-.40625 15.07032.94813 18.58839 5.23565 31.45261 5.24219 47.80664.009 22.01287-10.1079 29.69161-11.86133 55.84765-.002-.001-.004-.002-.006-.004-.0167.18472-.0285.31761-.0449.5-.003.0333-.005.0663-.008.0996-1.20439 13.41903-1.66357 20.66796-4.18555 36.11914-.52181 2.71738-.68965 3.72422-1.82226 10.47851.21871 20.95565 50.78661 67.30306 64.88867 65.47656 24.70321-3.19954 66.98155-58.24257 83.95703-82.08984-2.65001-6.3252-6.51349-14.54763-9.625-21.2207-1.6411-3.45083-2.24103-4.55467-4.01953-8.16406-5.0098-8.46001-5.74048-12.80421-12.51172-21.42383-8.04998-10.36524-18.7494-17.65223-18.42187-30.42774.29692-11.58113 5.01047-29.81439 9.46875-35.45117 11.69026-16.7409 16.70117-32.12109 16.70117-32.12109-1.23417-2.31741-2.22281-6.61514-2.9961-11.93946z" id="path55812-0"/></clipPath><clipPath clipPathUnits="userSpaceOnUse" id="clipPathBelly_3_Hourglass"><path style="display:inline;fill-opacity:.19607843;fill:#f0f;opacity:1" d="m357.49609 230.05273c-44.02018 18.50933-91.79981 15.52681-114.34961 11.44336-.76055 4.84194-.96415 9.88681-.40625 15.07032.94813 18.58839 5.23565 31.45261 5.24219 47.80664.002 4.08697-.34771 7.67755-.92578 10.98633-8.34072 19.95271-14.81977 30.32081-13.51172 48.23242.49522 2.41997 1.05227 4.71071 1.65625 6.90039-.73823 8.17749-1.47467 15.11188-3.32422 26.44336-.52181 2.71738-.68965 3.72422-1.82226 10.47851.21871 20.95565 50.78661 67.30306 64.88867 65.47656 24.70321-3.19954 66.98155-58.24257 83.95703-82.08984-2.65001-6.3252-6.51349-14.54763-9.625-21.2207-1.6411-3.45083-2.24103-4.55467-4.01953-8.16406-5.0098-8.46001-5.74048-12.80421-12.51172-21.42383-8.04998-10.36524-18.7494-17.65223-18.42187-30.42774.29692-11.58113 5.01047-29.81439 9.46875-35.45117 11.69026-16.7409 16.70117-32.12109 16.70117-32.12109-1.23417-2.31741-2.22281-6.61514-2.9961-11.93946z" id="path55795-6"/></clipPath><clipPath clipPathUnits="userSpaceOnUse" id="clipPathBelly_4_Hourglass"><path style="display:inline;fill-opacity:.19607843;fill:#f0f;opacity:1" d="m357.49609 230.05273c-44.02018 18.50933-91.79981 15.52681-114.34961 11.44336-.76055 4.84194-.96415 9.88681-.40625 15.07032.81942 16.06483 4.12689 27.85677 5.01563 41.31836-9.44845 12.22475-28.23184 31.69056-24.04883 70.23046-.33422 9.23775 3.17756 18.16417 8.60938 26.02344-.14585.92948-.2773 1.8034-.43946 2.79688-.52181 2.71738-.68965 3.72422-1.82226 10.47851.21871 20.95565 50.78661 67.30306 64.88867 65.47656 24.70321-3.19954 66.98155-58.24257 83.95703-82.08984-2.65001-6.3252-6.51349-14.54763-9.625-21.2207-1.6411-3.45083-2.24103-4.55467-4.01953-8.16406-5.0098-8.46001-5.74048-12.80421-12.51172-21.42383-8.04998-10.36524-18.7494-17.65223-18.42187-30.42774.29692-11.58113 5.01047-29.81439 9.46875-35.45117 11.69026-16.7409 16.70117-32.12109 16.70117-32.12109-1.23417-2.31741-2.22281-6.61514-2.9961-11.93946z" id="path55783-6"/></clipPath><clipPath clipPathUnits="userSpaceOnUse" id="clipPathBelly_5_Hourglass"><path style="display:inline;fill-opacity:.19607843;fill:#f0f;opacity:1" d="m357.49609 230.05273c-44.02018 18.50933-91.79981 15.52681-114.34961 11.44336-.76055 4.84194-.96415 9.88681-.40625 15.07032.80156 15.71479 3.97877 27.34363 4.94922 40.44336-11.27349 12.99697-36.49836 35.91263-32.58007 83.12695.52821 13.84326 6.60416 23.57697 15.27148 30.22461 4.3317 22.04447 51.08887 64.2744 64.5625 62.52929 24.70321-3.19954 66.98155-58.24257 83.95703-82.08984-2.65001-6.3252-6.51349-14.54763-9.625-21.2207-1.6411-3.45083-2.24103-4.55467-4.01953-8.16406-5.0098-8.46001-5.74048-12.80421-12.51172-21.42383-8.04998-10.36524-18.7494-17.65223-18.42187-30.42774.29692-11.58113 5.01047-29.81439 9.46875-35.45117 11.69026-16.7409 16.70117-32.12109 16.70117-32.12109-1.23417-2.31741-2.22281-6.61514-2.9961-11.93946z" id="path55772-5"/></clipPath><clipPath clipPathUnits="userSpaceOnUse" id="clipPathBelly_6_Hourglass"><path style="display:inline;fill-opacity:.19607843;fill:#f0f;opacity:1" d="m357.49609 230.05273c-44.02018 18.50933-91.79981 15.52681-114.34961 11.44336-.76055 4.84194-.96415 9.88681-.40625 15.07032.80244 15.73199 3.98648 27.36901 4.95313 40.48632-1.56715 1.72666-3.36243 3.59019-5.39844 5.70118-17.1935 12.55258-37.04877 45.73408-33.39453 83.74609.0293.56726.07 1.1282.12109 1.68359 1.68856 18.99014 14.08 30.53231 28.42383 37.25977 14.60214 22.05319 46.70968 48.84458 57.49805 47.44726 24.70321-3.19954 66.98155-58.24257 83.95703-82.08984-2.65001-6.3252-6.51349-14.54763-9.625-21.2207-1.6411-3.45083-2.24103-4.55467-4.01953-8.16406-5.0098-8.46001-5.74048-12.80421-12.51172-21.42383-8.04998-10.36524-18.7494-17.65223-18.42187-30.42774.29692-11.58113 5.01047-29.81439 9.46875-35.45117 11.69026-16.7409 16.70117-32.12109 16.70117-32.12109-1.23417-2.31741-2.22281-6.61514-2.9961-11.93946z" id="path55762-5"/></clipPath><clipPath clipPathUnits="userSpaceOnUse" id="clipPathBelly_7_Hourglass"><path style="display:inline;fill-opacity:.19607843;fill:#f0f;opacity:1" d="m357.49609 230.05273c-44.02018 18.50933-91.79981 15.52681-114.34961 11.44336-.76055 4.84194-.96415 9.88681-.40625 15.07032.54967 10.77628 2.21728 19.62914 3.52576 28.35303.38326 2.43333-2.24143 3.64231-4.72497 6.90087-20.14971 14.57625-43.52692 53.49128-39.24024 98.08203 1.60035 29.46358 24.74961 44.14125 47.14649 50.71094 15.9103 17.4756 37.12608 33.36143 45.49609 32.27734 24.70321-3.19954 66.98155-58.24257 83.95703-82.08984-2.65001-6.3252-6.51349-14.54763-9.625-21.2207-1.6411-3.45083-2.24103-4.55467-4.01953-8.16406-5.0098-8.46001-5.74048-12.80421-12.51172-21.42383-4.52811-5.83045-9.89349-10.68633-13.66406-16.09375-32e-5-45e-5 31e-5-.002.0-.002-.85008-1.50526-1.71148-2.9717-2.57813-4.41015-1.42373-2.98844-2.27458-6.22045-2.17968-9.92188.29692-11.58113 5.01047-29.81439 9.46875-35.45117 11.69026-16.7409 16.70117-32.12109 16.70117-32.12109-1.23417-2.31741-2.22281-6.61514-2.9961-11.93946z" id="path55753-4"/></clipPath><clipPath clipPathUnits="userSpaceOnUse" id="clipPathBelly_8_Hourglass"><path style="display:inline;fill-opacity:.19607843;fill:#f0f;opacity:1" d="m357.49609 230.05273c-44.02018 18.50933-91.79981 15.52681-114.34961 11.44336-.76055 4.84194-.96415 9.88681-.40625 15.07032.50455 9.89189 1.95203 18.16299 3.19852 26.20141.51416 3.02003-.81329 2.6204-8.30008 11.07398-22.28916 16.12392-48.21058 59.35634-43.46875 108.68164 2.50074 46.04034 52.55624 59.46402 80.64844 61.02734 8.41907 6.1042 15.90725 9.88613 20.125 9.33984 24.70321-3.19954 66.98155-58.24257 83.95703-82.08984-2.65001-6.3252-6.51349-14.54763-9.625-21.2207-1.6411-3.45083-2.24103-4.55467-4.01953-8.16406-5.0098-8.46001-5.74048-12.80421-12.51172-21.42383-1.40684-1.81147-2.89495-3.51244-4.39062-5.18164-4.44424-8.4628-9.31752-16.23311-13.94141-22.68946-.0773-.82925-.11236-1.67829-.0898-2.55664.29692-11.58113 5.01047-29.81439 9.46875-35.45117 11.69026-16.7409 16.70117-32.12109 16.70117-32.12109-1.23417-2.31741-2.22281-6.61514-2.9961-11.93946z" id="path55745-6"/></clipPath><clipPath clipPathUnits="userSpaceOnUse" id="clipPathBelly_9_Hourglass"><path style="display:inline;fill-opacity:.19607843;fill:#f0f;opacity:1" d="m357.49609 230.05273c-44.02018 18.50933-91.79981 15.52681-114.34961 11.44336-.76055 4.84194-.96415 9.88681-.40625 15.07032.3799 7.44793 1.2909 13.97441 2.24966 20.17551 1.32158 7.13379-3.25846 9.67591-10.73598 19.13699-24.08168 17.42062-52.02161 63.92861-46.89844 117.2207 2.85628 52.58607 63.1503 65.79581 92.10742 66.10937 30.33614 1.12304 69.13902-16.88058 86.51758-59.26171 2.88032-5.50022 4.41547-11.63722 4.88867-18.15625 3.04895-4.07596 5.77539-7.82119 8.03125-10.99024-2.65001-6.3252-6.51349-14.54763-9.625-21.2207-1.6411-3.45083-2.24103-4.55467-4.01953-8.16406-3.65395-6.1704-5.05112-10.16184-8.15625-15.20899-6.98547-14.49144-15.47654-27.59961-22.76758-36.8418.34383-11.58967 5.02542-29.64642 9.45899-35.25195 11.69026-16.7409 16.70117-32.12109 16.70117-32.12109-1.23417-2.31741-2.22281-6.61514-2.9961-11.93946z" id="path55738-0"/></clipPath><clipPath clipPathUnits="userSpaceOnUse" id="clipPathBelly_1_Normal"><path style="display:inline;fill-opacity:.19607843;fill:red;opacity:1" d="m357.37109 230.09766c-6.17894 1.85299-11.79828 5.76528-17.99414 7.25976-6.8017 1.64062-13.61548 3.05025-20.4414 4.19141-6.82592 1.14116-13.66344 2.01478-20.51758 2.58594-6.85414.57115-13.723.83894-20.60938.76953-3.44318-.0347-6.89175-.15326-10.34375-.36133-3.45199-.20807-6.90783-.50623-10.36914-.89649-3.4613-.39026-6.92732-.87381-10.39843-1.45507-1.16025-.1943-2.32495-.46535-3.48633-.68164-.76193 4.8452-1.02901 9.86931-.47071 15.05664.51443 11.65717 5.12736 38.64403 4.875 47.6289-.0331 1.17805-.10233 2.31785-.17382 3.45313-1.20701 5.30887-1.81698 10.34317-2.06446 14.97656-2.95391 14.04191-7.89216 25.16656-9.25586 37.5957-.002-.001-.004-.002-.006-.004-.0167.18472-.0285.31761-.0449.5-.003.0333-.005.0663-.008.0996-1.20439 13.41903-1.66357 20.66796-4.18555 36.11914-.81807 4.20419-.64023 3.59931-1.83398 10.18164-1.58567 17.8779 47.47491 67.59516 65.40039 65.27343 24.27011-3.14346 70.65403-63.34025 83.41406-81.69335-4.05154-9.14731-6.15729-13.76306-9.58203-21.11719-1.6411-3.45083-2.24103-4.55467-4.01953-8.16406-8.34178-14.34503-15.68468-42.46709-16.3125-47.75586-.68733-9.74952-.75896-18.84283 1.9082-31.52539 5.45445-19.51494 9.64063-40.14258 9.64063-40.14258-1.03569-1.94472-1.78268-5.24964-2.49024-9.41992z" id="path56145-0"/></clipPath><clipPath clipPathUnits="userSpaceOnUse" id="clipPathBelly_2_Normal"><path style="display:inline;fill-opacity:.19607843;fill:#ff0;opacity:1" d="m357.37109 230.09766c-6.17894 1.85299-11.79828 5.76528-17.99414 7.25976-6.8017 1.64062-13.61548 3.05025-20.4414 4.19141-6.82592 1.14116-13.66344 2.01478-20.51758 2.58594-6.85414.57115-13.723.83894-20.60938.76953-3.44318-.0347-6.89175-.15326-10.34375-.36133-3.45199-.20807-6.90783-.50623-10.36914-.89649-3.4613-.39026-6.92732-.87381-10.39843-1.45507-1.16025-.1943-2.32495-.46535-3.48633-.68164-.76193 4.8452-1.02901 9.86931-.47071 15.05664.51443 11.65717 5.12736 38.64403 4.875 47.6289-.66982 23.8485-9.58722 38.64511-11.49414 56.02539-.002-.001-.004-.002-.006-.004-.0167.18472-.0285.31761-.0449.5-.003.0333-.005.0663-.008.0996-1.20439 13.41903-1.66357 20.66796-4.18555 36.11914-.81807 4.20419-.64023 3.59931-1.83398 10.18164-1.58567 17.8779 47.47491 67.59516 65.40039 65.27343 24.27011-3.14346 70.65403-63.34025 83.41406-81.69335-4.05154-9.14731-6.15729-13.76306-9.58203-21.11719-1.6411-3.45083-2.24103-4.55467-4.01953-8.16406-8.34178-14.34503-15.68468-42.46709-16.3125-47.75586-.68733-9.74952-.75896-18.84283 1.9082-31.52539 5.45445-19.51494 9.64063-40.14258 9.64063-40.14258-1.03569-1.94472-1.78268-5.24964-2.49024-9.41992z" id="path56131-0"/></clipPath><clipPath clipPathUnits="userSpaceOnUse" id="clipPathBelly_3_Normal"><path style="display:inline;fill-opacity:.19607843;fill:#ff0;opacity:1" d="m357.37109 230.09766c-6.17894 1.85299-11.79828 5.76528-17.99414 7.25976-6.8017 1.64062-13.61548 3.05025-20.4414 4.19141-6.82592 1.14116-13.66344 2.01478-20.51758 2.58594-6.85414.57115-13.723.83894-20.60938.76953-3.44318-.0347-6.89175-.15326-10.34375-.36133-3.45199-.20807-6.90783-.50623-10.36914-.89649-3.4613-.39026-6.92732-.87381-10.39843-1.45507-1.16025-.1943-2.32495-.46535-3.48633-.68164-.76193 4.8452-1.02901 9.86931-.47071 15.05664.51443 11.65717 5.12736 38.64403 4.875 47.6289-.12612 4.49054-.5452 8.65959-1.15429 12.58594-8.04957 19.03261-14.19265 29.32924-12.91602 46.81055.49522 2.41997 1.05227 4.71071 1.65625 6.90039-.73823 8.17749-1.47467 15.11188-3.32422 26.44336-.81807 4.20419-.64023 3.59931-1.83398 10.18164-1.58567 17.8779 47.47491 67.59516 65.40039 65.27343 24.27011-3.14346 70.65403-63.34025 83.41406-81.69335-4.05154-9.14731-6.15729-13.76306-9.58203-21.11719-1.6411-3.45083-2.24103-4.55467-4.01953-8.16406-8.34178-14.34503-15.68468-42.46709-16.3125-47.75586-.68733-9.74952-.75896-18.84283 1.9082-31.52539 5.45445-19.51494 9.64063-40.14258 9.64063-40.14258-1.03569-1.94472-1.78268-5.24964-2.49024-9.41992z" id="path56118-5"/></clipPath><clipPath clipPathUnits="userSpaceOnUse" id="clipPathBelly_4_Normal"><path style="display:inline;fill-opacity:.19607843;fill:#ff0;opacity:1" d="m357.37109 230.09766c-6.17894 1.85299-11.79828 5.76528-17.99414 7.25976-6.8017 1.64062-13.61548 3.05025-20.4414 4.19141-6.82592 1.14116-13.66344 2.01478-20.51758 2.58594-6.85414.57115-13.723.83894-20.60938.76953-3.44318-.0347-6.89175-.15326-10.34375-.36133-3.45199-.20807-6.90783-.50623-10.36914-.89649-3.4613-.39026-6.92732-.87381-10.39843-1.45507-1.16025-.1943-2.32495-.46535-3.48633-.68164-.76193 4.8452-1.02901 9.86931-.47071 15.05664.42935 9.72918 3.70491 30.10278 4.63282 41.81054-9.56177 12.25466-27.79408 31.70472-23.66602 69.73828-.33422 9.23775 3.17756 18.16417 8.60938 26.02344-.14585.92948-.2773 1.8034-.43946 2.79688-.81807 4.20419-.64023 3.59931-1.83398 10.18164-1.58567 17.8779 47.47491 67.59516 65.40039 65.27343 24.27011-3.14346 70.65403-63.34025 83.41406-81.69335-4.05154-9.14731-6.15729-13.76306-9.58203-21.11719-1.6411-3.45083-2.24103-4.55467-4.01953-8.16406-8.34178-14.34503-15.68468-42.46709-16.3125-47.75586-.68733-9.74952-.75896-18.84283 1.9082-31.52539 5.45445-19.51494 9.64063-40.14258 9.64063-40.14258-1.03569-1.94472-1.78268-5.24964-2.49024-9.41992z" id="path56106-4"/></clipPath><clipPath clipPathUnits="userSpaceOnUse" id="clipPathBelly_5_Normal"><path style="display:inline;fill-opacity:.19607843;fill:#ff0;opacity:1" d="m357.37109 230.09766c-6.17894 1.85299-11.79828 5.76528-17.99414 7.25976-6.8017 1.64062-13.61548 3.05025-20.4414 4.19141-6.82592 1.14116-13.66344 2.01478-20.51758 2.58594-6.85414.57115-13.723.83894-20.60938.76953-3.44318-.0347-6.89175-.15326-10.34375-.36133-3.45199-.20807-6.90783-.50623-10.36914-.89649-3.4613-.39026-6.92732-.87381-10.39843-1.45507-1.16025-.1943-2.32495-.46535-3.48633-.68164-.76193 4.8452-1.02901 9.86931-.47071 15.05664.41789 9.46948 3.54054 29.05482 4.5625 40.88867-11.45001 13.07252-36.06803 35.99275-32.19335 82.68164.52492 13.75716 6.52626 23.45892 15.10742 30.10351 3.39155 19.91318 48.25682 64.34833 65.22656 62.15039 24.27011-3.14346 70.65403-63.34025 83.41406-81.69335-4.05154-9.14731-6.15729-13.76306-9.58203-21.11719-1.6411-3.45083-2.24103-4.55467-4.01953-8.16406-8.34178-14.34503-15.68468-42.46709-16.3125-47.75586-.68733-9.74952-.75896-18.84283 1.9082-31.52539 5.45445-19.51494 9.64063-40.14258 9.64063-40.14258-1.03569-1.94472-1.78268-5.24964-2.49024-9.41992z" id="path56095-0"/></clipPath><clipPath clipPathUnits="userSpaceOnUse" id="clipPathBelly_6_Normal"><path style="display:inline;fill-opacity:.19607843;fill:#ff0;opacity:1" d="m357.37109 230.09766c-6.17894 1.85299-11.79828 5.76528-17.99414 7.25976-6.8017 1.64062-13.61548 3.05025-20.4414 4.19141-6.82592 1.14116-13.66344 2.01478-20.51758 2.58594-6.85414.57115-13.723.83894-20.60938.76953-3.44318-.0347-6.89175-.15326-10.34375-.36133-3.45199-.20807-6.90783-.50623-10.36914-.89649-3.4613-.39026-6.92732-.87381-10.39843-1.45507-1.16025-.1943-2.32495-.46535-3.48633-.68164-.76193 4.8452-1.02901 9.86931-.47071 15.05664.41815 9.47532 3.54446 29.07858 4.56446 40.91015-1.48414 1.61512-3.13597 3.33454-5.00977 5.27735-17.1935 12.55258-37.04877 45.73408-33.39453 83.74609.0293.56726.07 1.1282.12109 1.68359 1.67732 18.86368 13.91469 30.38032 28.13672 37.12696 14.00855 21.39837 44.86732 48.81796 58.28516 47.08007 24.27011-3.14346 70.65403-63.34025 83.41406-81.69335-4.05154-9.14731-6.15729-13.76306-9.58203-21.11719-1.6411-3.45083-2.24103-4.55467-4.01953-8.16406-8.34178-14.34503-15.68468-42.46709-16.3125-47.75586-.68733-9.74952-.75896-18.84283 1.9082-31.52539 5.45445-19.51494 9.64063-40.14258 9.64063-40.14258-1.03569-1.94472-1.78268-5.24964-2.49024-9.41992z" id="path56085-7"/></clipPath><clipPath clipPathUnits="userSpaceOnUse" id="clipPathBelly_7_Normal"><path style="display:inline;fill-opacity:.19607843;fill:#ff0;opacity:1" d="m357.37109 230.09766c-6.17894 1.85299-11.79828 5.76528-17.99414 7.25976-6.8017 1.64062-13.61548 3.05025-20.4414 4.19141-6.82592 1.14116-13.66344 2.01478-20.51758 2.58594-6.85414.57115-13.723.83894-20.60938.76953-3.44318-.0347-6.89175-.15326-10.34375-.36133-3.45199-.20807-6.90783-.50623-10.36914-.89649-3.4613-.39026-6.92732-.87381-10.39843-1.45507-1.16025-.1943-2.32495-.46535-3.48633-.68164-.76193 4.8452-1.02901 9.86931-.47071 15.05664.29061 6.5852 1.88607 18.05244 3.17594 28.4108.42879 2.88716-.98334 2.60752-4.37515 6.8431-20.14971 14.57625-43.52692 53.49128-39.24024 98.08203 1.58918 29.25793 24.42782 43.9375 46.67774 50.57422 15.37055 17.22369 36.1083 33.25545 46.46484 31.91406 24.27011-3.14346 70.65403-63.34025 83.41406-81.69335-4.05154-9.14731-6.15729-13.76306-9.58203-21.11719-1.6411-3.45083-2.24103-4.55467-4.01953-8.16406-8.34178-14.34503-15.68468-42.46709-16.3125-47.75586-.68733-9.74952-.75896-18.84283 1.9082-31.52539 5.45445-19.51494 9.64063-40.14258 9.64063-40.14258-1.03569-1.94472-1.78268-5.24964-2.49024-9.41992z" id="path56076-5"/></clipPath><clipPath clipPathUnits="userSpaceOnUse" id="clipPathBelly_8_Normal"><path style="display:inline;fill-opacity:.19607843;fill:#ff0;opacity:1" d="m357.37109 230.09766c-6.17894 1.85299-11.79828 5.76528-17.99414 7.25976-6.8017 1.64062-13.61548 3.05025-20.4414 4.19141-6.82592 1.14116-13.66344 2.01478-20.51758 2.58594-6.85414.57115-13.723.83894-20.60938.76953-3.44318-.0347-6.89175-.15326-10.34375-.36133-3.45199-.20807-6.90783-.50623-10.36914-.89649-3.4613-.39026-6.92732-.87381-10.39843-1.45507-1.16025-.1943-2.32495-.46535-3.48633-.68164-.76193 4.8452-1.02901 9.86931-.47071 15.05664.26536 6.01318 1.6203 16.10167 2.8361 25.69663.39089 4.06992-.99793 3.43678-8.00016 11.76626-22.28916 16.12392-48.14808 59.16884-43.40625 108.49414 2.48449 45.7411 51.9169 59.2927 80.10742 61 8.32875 5.91076 16.0277 9.5327 21.16602 8.86718 24.27011-3.14346 70.65403-63.34025 83.41406-81.69335-4.05154-9.14731-6.15729-13.76306-9.58203-21.11719-1.6411-3.45083-2.24103-4.55467-4.01953-8.16406-8.34178-14.34503-15.68468-42.46709-16.3125-47.75586-.68733-9.74952-.75896-18.84283 1.9082-31.52539 5.45445-19.51494 9.64063-40.14258 9.64063-40.14258-1.03569-1.94472-1.78268-5.24964-2.49024-9.41992z" id="path56068-2"/></clipPath><clipPath clipPathUnits="userSpaceOnUse" id="clipPathBelly_9_Normal"><path style="display:inline;fill-opacity:.19607843;fill:#ff0;opacity:1" d="m357.37109 230.09766c-6.17894 1.85299-11.79828 5.76528-17.99414 7.25976-6.8017 1.64062-13.61548 3.05025-20.4414 4.19141-6.82592 1.14116-13.66344 2.01478-20.51758 2.58594-6.85414.57115-13.723.83894-20.60938.76953-3.44318-.0347-6.89175-.15326-10.34375-.36133-3.45199-.20807-6.90783-.50623-10.36914-.89649-3.4613-.39026-6.92732-.87381-10.39843-1.45507-1.16025-.1943-2.32495-.46535-3.48633-.68164-.76193 4.8452-1.02901 9.86931-.47071 15.05664.22808 5.16817 1.25533 13.32744 2.31036 21.60669.71965 7.17249-5.43612 10.63304-10.79668 17.70581-24.08168 17.42062-52.02161 63.92861-46.89844 117.2207 2.85628 52.58607 63.1503 65.79581 92.10742 66.10937 30.33614 1.12304 69.13902-16.88058 86.51758-59.26171 2.9046-5.54659 4.44325-11.73984 4.90234-18.32032 3.27479-4.34726 6.04498-8.15424 7.97461-10.92968-4.05154-9.14731-6.15729-13.76306-9.58203-21.11719-1.6411-3.45083-2.24103-4.55467-4.01953-8.16406-8.34178-14.34503-15.68468-42.46709-16.3125-47.75586-.68733-9.74952-.75896-18.84283 1.9082-31.52539 5.45445-19.51494 9.64063-40.14258 9.64063-40.14258-1.03569-1.94472-1.78268-5.24964-2.49024-9.41992z" id="path56061-6"/></clipPath><filter style="color-interpolation-filters:sRGB" id="filter27016"><feGaussianBlur stdDeviation="2 2" result="blur" id="feGaussianBlur27014"/></filter><filter style="color-interpolation-filters:sRGB" id="filter27103"><feGaussianBlur stdDeviation="2 2" result="blur" id="feGaussianBlur27101"/></filter><clipPath clipPathUnits="userSpaceOnUse" id="clipPath27130"><path id="path27132" style="fill-opacity:.490637;fill:#0ff;opacity:1;stroke-dasharray:none;stroke-dashoffset:0;stroke-linecap:butt;stroke-linejoin:miter;stroke-miterlimit:4;stroke-opacity:1;stroke-width:.453543;stroke:none;vector-effect:none" d="m139.65359 897.31851c2.43235-3.53593 5.13152-10.00682 8.02858-18.65444l6.95936-23.30681c4.14151-15.11762 8.53252-32.97989 13.01778-51.87878-33.65577 9.6275-54.7859 14.18135-71.492788 13.93696-11.501306-.83073-4.14694 33.9441-5.303301 49.85103 13.775569-3.82543 16.165059-3.51047 19.975759-3.71231l-.33968 19.53434c-.2412 6.4513-.81017 12.57483-2.31196 17.76554 12.40369-2.02977 27.77856-5.46693 31.8198-3.53554"/></clipPath><filter style="color-interpolation-filters:sRGB" id="filter27188"><feGaussianBlur stdDeviation="2 2" result="blur" id="feGaussianBlur27186"/></filter><clipPath clipPathUnits="userSpaceOnUse" id="clipPath27190"><path id="path27192" style="fill-opacity:.578652;fill:#0ff;opacity:1;stroke-dasharray:none;stroke-dashoffset:0;stroke-linecap:butt;stroke-linejoin:miter;stroke-miterlimit:4;stroke-opacity:1;stroke-width:.453543;stroke:none;vector-effect:none" d="M445.48592 797.64931c-23.16535-118.54087-47.7048-228.83715-71.77999-341.91899l30.68853-29.49138c15.13555 55.84256 13.97169 79.49137 20.95539 122.54699 13.31381 82.0818 66.08936 199.33304 66.08936 199.33304 5.85536-6.07313 14.7773-10.61296 25.96321-14.02081 2.22698 11.2435 22.20093 13.75813 33.6764 18.01219-17.48938 48.37336-14.44504 71.54213-66.16042 61.40559-24.52858-8.938-27.47898-9.69107-39.43248-15.86663z"/></clipPath><filter style="color-interpolation-filters:sRGB" id="filter27241"><feGaussianBlur stdDeviation="2 2" result="blur" id="feGaussianBlur27239"/></filter><clipPath clipPathUnits="userSpaceOnUse" id="clipPath27267"><path style="fill-opacity:.372659;fill:#0ff;opacity:1;stroke-dasharray:none;stroke-dashoffset:0;stroke-linecap:butt;stroke-linejoin:miter;stroke-miterlimit:4;stroke-opacity:1;stroke-width:.453543;stroke:none;vector-effect:none" d="m378.30213 369.64007c-15.32315 20.8569-29.18453 44.69581-32.88047 89.27223L357.5 491.5l29.875-8.875 3.125-76z" id="path27269"/></clipPath><filter style="color-interpolation-filters:sRGB" id="filter27293"><feGaussianBlur stdDeviation="2 2" result="blur" id="feGaussianBlur27291"/></filter><clipPath clipPathUnits="userSpaceOnUse" id="clipPath27297"><path id="path27299" style="display:inline;fill-opacity:.477528;fill:#0ff;opacity:1" d="m236.23368 356.38652c-3.74574 12.59352-7.72338 28.70147-11.53058 48.78567-3.8843 20.4909-12.47317 44.84841-12.39015 71.71684.11224 36.32789-1.30376 77.36823-4.32231 115.73006 24.16986 77.09552 115.86625-355.59156 28.24304-236.23257z"/></clipPath><filter style="color-interpolation-filters:sRGB" id="filter27375"><feGaussianBlur stdDeviation="2 8" result="blur" id="feGaussianBlur27373"/></filter><clipPath clipPathUnits="userSpaceOnUse" id="clipPath27377"><path style="display:inline;fill-opacity:.588561;fill:#0ff;opacity:1;stroke-dasharray:none;stroke-dashoffset:0;stroke-linecap:butt;stroke-linejoin:miter;stroke-miterlimit:4;stroke-opacity:1;stroke-width:.453543;stroke:none;vector-effect:none" d="m304.05591 761.554 24.74874-317.13739 21.56676-3.18198 78.48885 346.48233c-19.00335-30.92459-93.69999-43.73294-124.80435-26.16296z" id="path27379"/></clipPath><clipPath clipPathUnits="userSpaceOnUse" id="clipPath28519"><path id="path28521" style="display:inline;fill-opacity:.905838;fill:#0ff;opacity:1;stroke-dasharray:none;stroke-dashoffset:0;stroke-linecap:butt;stroke-linejoin:miter;stroke-miterlimit:4;stroke-opacity:1;stroke-width:.453543;stroke:none;vector-effect:none" d="M458.20519 864.43804c-26.77807-144.56599-55.96475-274.68034-84.49926-408.70772l30.68853-29.49138c-9.17495-33.85093-39.83417-70.71151-50.98909-94.70728-4.52132-9.72596-4.40437-14.99216-4.7452-22.71933-.35453-8.03785-.0308-16.11237 2.19108-26.67767 5.45445-19.51494 9.64063-40.14258 9.64063-40.14258-1.03569-1.94472-1.78279-5.25016-2.49035-9.42044l-.62946-2.47476c-6.17894 1.85299-11.79926 5.76606-17.99512 7.26054-6.8017 1.64062-13.61548 3.05025-20.4414 4.19141-6.82592 1.14116-13.66344 2.01478-20.51758 2.58594-6.85414.57115-13.723.83893-20.60938.76953-3.44318-.0347-6.89175-.15326-10.34375-.36133-3.45199-.20807-6.90783-.50623-10.36914-.89649-3.4613-.39026-6.92732-.87381-10.39843-1.45507-1.16025-.1943-2.32495-.46535-3.48633-.68164-.76193 4.8452-1.02901 9.86931-.47071 15.05664.51443 11.65717 5.12735 38.64403 4.875 47.6289-.35521 12.6469-3.0298 22.74823-5.74832 32.03921l-5.63323 20.152c-3.74574 12.59352-7.72338 28.70147-11.53058 48.78567-3.8843 20.4909-12.47315 44.84841-12.39015 71.71684.2111 68.32213-4.98331 153.31246-16.07747 205.80506l-.72045 4.6137c-18.62048 70.00357-41.7385 189.48012-55.86144 210.01072.0.0-3.68769-1.9314.35355-1e-5l-13.43503 14.14214c-1.49233 7.99384 1.44875 12.10845 3.53554 16.97056l11.31371 4.24264c1.39039 4.82729 10.79346 17.88308 26.68849 22.01539 14.82459 3.85402 35.79693 1.35319 50.62659.46051 6.021-.36243 10.92501.58417 14.1562.70545 24.00425.90097 38.83781 20.3721 84.13384 20.3811 34.35164-28.73246 9.57219-389.10381 28.74874-517.32399 26.32831 116.90972 44.24228 237.5725 57.8261 369.39871 4.99884 48.51199 36.96144 101.18245 118.45185 91.84938 5.03626-.5768 4.80787-15.56653-37.13477-106.64445 22.21538 104.63654-26.71321 50.9221-26.71321 50.9221z"/></clipPath></defs><g id="Torso_Outfit_Ballgown_Back" style="display:none"><g id="g27365" style="filter:url(#filter27375)" clip-path="url(#clipPath27377)"><path d="m304.05591 761.554 24.74874-317.13739 21.56676-3.18198 78.48885 346.48233c-19.00335-30.92459-93.69999-43.73294-124.80435-26.16296z" id="path27335" class="top_primary"/><path d="m304.05591 761.554 24.74874-317.13739 21.56676-3.18198 78.48885 346.48233c-19.00335-30.92459-93.69999-43.73294-124.80435-26.16296z" id="path27341" class="top_primary_strong_shade"/><path d="m304.05591 761.554 3.99354-51.17432c46.82887-4.01375 87.92796-4.84429 105.0265 7.65881l15.78431 69.67847c-19.00335-30.92459-93.69999-43.73294-124.80435-26.16296z" id="path27343" class="top_primary_strong_shade"/><path d="m305.55591 787.804 3.99354-51.17432c46.82887-4.01375 87.92796-4.84429 105.0265 7.65881l15.78431 69.67847c-19.00335-30.92459-93.69999-43.73294-124.80435-26.16296z" id="path27345" class="top_primary_strong_shade"/><path d="m305.30591 800.804 3.99354-51.17432c46.82887-4.01375 87.92796-4.84429 105.0265 7.65881l15.78431 69.67847c-19.00335-30.92459-93.69999-43.73294-124.80435-26.16296z" id="path27347" class="top_primary_strong_shade"/></g></g><g id="Torso_Outfit_Ballgown_Belly" style="display:none"><g id="g28108" select_clip="torso_outfit_belly" select_clip_options="clip-path=url(#clipPathBelly_1_Unnatural) url(#clipPathBelly_2_Unnatural) url(#clipPathBelly_3_Unnatural) url(#clipPathBelly_4_Unnatural) url(#clipPathBelly_5_Unnatural) url(#clipPathBelly_6_Unnatural) url(#clipPathBelly_7_Unnatural) url(#clipPathBelly_8_Unnatural) url(#clipPathBelly_9_Unnatural) url(#clipPathBelly_1_Hourglass) url(#clipPathBelly_2_Hourglass) url(#clipPathBelly_3_Hourglass) url(#clipPathBelly_4_Hourglass) url(#clipPathBelly_5_Hourglass) url(#clipPathBelly_6_Hourglass) url(#clipPathBelly_7_Hourglass) url(#clipPathBelly_8_Hourglass) url(#clipPathBelly_9_Hourglass) url(#clipPathBelly_1_Normal) url(#clipPathBelly_2_Normal) url(#clipPathBelly_3_Normal) url(#clipPathBelly_4_Normal) url(#clipPathBelly_5_Normal) url(#clipPathBelly_6_Normal) url(#clipPathBelly_7_Normal) url(#clipPathBelly_8_Normal) url(#clipPathBelly_9_Normal)"><path mask="none" class="top_primary" id="path27773" d="m246.69727 242.19141c-1.16025-.1943-2.32495-.46535-3.48633-.68164-35.24669-5.80429-55.95925 116.42293-56.2718 156.80067 3.85026 7.53688-9.63371 34.04547 26.80845 59.91146 3.76798-40.63032 23.8295-80.82872 35.07046-80.08139 8.02569-93.84372.48567-100.4795-2.12078-135.9491z"/></g><g id="g28480" style="display:inline;opacity:1"><path class="top_primary bellymask_9" id="path28094" d="m211.33502 535.7046c1.70822-75.70114-16.49782-94.12044-21.72185-109.25496 55.29041 11.8723 60.51695-43.28642 58.79936 103.91945z"/><path class="top_primary bellymask_8" id="path28461" d="m211.33502 535.7046c-.76665-93.90914-10.56032-105.12044-15.03435-120.56746 55.29041 11.8723 53.82945-31.97392 52.11186 115.23195z"/><path class="top_primary bellymask_7" id="path28463" d="m211.33502 535.7046c.1484-25.30625 1.34783-44.75025.87523-61.45673-.76625-27.0873 3.74144-37.06823-7.04838-70.39043 55.29041 11.8723 44.96825-20.69422 43.25066 126.51165z"/><path class="top_primary bellymask_6" id="path28465" d="m217.7819 435.04686c2.67437-12.51604-2.01228-22.55465-7.67028-40.02825 16.86339 32.37752 15.34446 4.52648 7.67028 40.02825z"/><path class="top_primary bellymask_5" id="path28467" d="m221.3444 420.17186c2.17437-9.32854-.57478-11.99215-4.54528-29.96575 7.92589 18.75252 12.78196 5.90148 4.54528 29.96575z"/><path class="top_primary bellymask_4" id="path28469" d="m226.74583 394.93355c1.66613-7.89223-.4643-12.50038-2.22509-20.86175 5.95925 18.33267 6.15284 4.13371 2.22509 20.86175z"/><path class="top_primary bellymask_3" id="path28471" d="m232.49583 369.87105c.75988-3.72036.7857-2.21913.93116-9.48675 1.04427 5.40809.87173 4.43251-.93116 9.48675z"/></g></g><g id="Torso_Outfit_Ballgown_Hourglass" style="display:none"><path id="path27587" d="m345.9405 329.32938c-10.78556-10.8004-17.96569-23.15023-15.34216-33.90362 2.41528-9.89981 16.07716-30.72619 21.92824-34.97411-2.02272 3.35493-5.13053 9.88596-6.45124 12.46118-4.75849 9.27847-7.83178 13.67493-10.27358 23.77951-2.93248 12.13511 4.57095 25.51552 10.13874 32.63704z" class="top_primary"/><path id="path27769" d="m360.49219 241.99219c-2.00635 6.87864-4.93385 12.91869-8.03026 18.54034-7.48002 13.58025-14.45315 24.7501-17.1263 38.2465-4.16739 21.04061 21.73974 40.77877 32.89428 58.37955l.35772-.68136c-12.85861-19.33382-37.29504-37.45448-32.83614-57.70124 2.92724-13.29186 9.40361-24.04607 15.36991-34.81987 3.87334-6.99439 7.86409-13.84362 9.39813-21.92283z" class="shadow"/></g><g id="Torso_Outfit_Ballgown_Unnatural" style="display:none"><path id="path27398" d="m360.49188 241.99208c-1.03569-1.94472-1.78279-5.25016-2.49035-9.42044l-.62946-2.47476c-6.17894 1.85299-11.79926 5.76606-17.99512 7.26054-6.8017 1.64062-13.61548 3.05025-20.4414 4.19141-6.82592 1.14116-13.66344 2.01478-20.51758 2.58594-6.85414.57115-13.723.83894-20.60938.76953-3.44318-.0347-6.89175-.15326-10.34375-.36133-3.45199-.20807-6.90783-.50623-10.36914-.89649-3.4613-.39026-6.92732-.87381-10.39843-1.45507-1.16025-.1943-2.32495-.46535-3.48633-.68164-.76193 4.8452-1.02901 9.86931-.47071 15.05664.51443 11.65717 5.12735 38.64403 4.875 47.6289-.35521 12.6469-3.0298 22.74823-5.74832 32.03921l-5.63323 20.152c-3.74574 12.59352-7.72338 28.70147-11.53058 48.78567-3.8843 20.4909-12.47317 44.84841-12.39015 71.71684.3156 102.14353-11.45071 241.54231-36.95047 253.90583L132.58252 744.937l-9.19239-6.01041c-9.88556 10.54116-52.409684 19.41294-29.344928 29.87525-2.80512 16.47471-1.171791 32.60799 2.12132 48.6136-11.501306-.83073-4.14694 33.9441-5.303301 49.85103 13.775569-3.82543 16.165059-3.51047 19.975759-3.71231-.36849 12.94868.33672 26.97107-2.65164 37.29988 12.40369-2.02977 27.77856-5.46693 31.8198-3.53554l-13.43503 14.14214c-1.49233 7.99384 1.44875 12.10845 3.53554 16.97056l11.31371 4.24264c15.76326 37.01371 72.84377 21.2618 88.22128 22.55635 24.9293 2.09866 42.08781 20.9968 87.38384 21.0061 34.35164-28.73246 9.57219-389.10381 28.74874-517.32399 26.32831 116.90972 44.24228 237.5725 57.8261 369.39871 4.99884 48.51199 36.96144 101.18245 118.45185 91.84938 5.03626-.5768 4.80787-15.56653-37.13477-106.64445 51.71538 10.13654 48.67104-13.03223 66.16042-61.40559-11.47547-4.25406-31.44942-6.76869-33.6764-18.01219-11.18591 3.40785-20.10785 7.94768-25.96321 14.02081.0.0-52.77555-117.25124-66.08936-199.33304-6.9837-43.05562-5.81983-66.70443-20.95539-122.54699-6.42496-23.70486-22.96459-49.15784-36.80584-70.09092-14.00982-21.18802-41.1341-41.97543-36.55278-60.75351 3.719-15.24354 23.56918-29.94854 29.45604-53.40243z" class="top_primary"/><g id="g27488" clip-path="url(#clipPath28519)"><g id="g27486" style="filter:url(#filter27016)"><path d="m193.21693 823.2805c-2.75695 3.76552 13.36657-104.99476 44.42498-192.27039 20.55095-57.74919 45.25577-100.12903 83.9149-115.67461 21.0207-8.45282-16.02225 66.396-54.065 147.8615-33.41828 71.56257-66.72002 149.76485-74.27488 160.0835z" id="path27400" class="top_primary_highlight"/><path d="m198.83875 805.11851c-2.43866 3.33079 11.82339-92.87307 39.29609-170.07268 18.17833-51.08202 40.03097-88.56908 74.22688-102.31992 18.59385-7.47694-14.17247 58.73055-47.82317 130.79082-29.56012 63.30063-59.01716 132.47442-65.6998 141.60178z" id="path27402" class="top_primary_highlight"/><path d="m211.84538 763.53767c-1.75868 2.40204 8.5266-66.97671 28.33892-122.65029 13.10956-36.83851 28.8689-63.87283 53.52975-73.78944 13.40922-5.3921-10.22067 42.35435-34.48834 94.32163-21.3177 45.65013-42.56105 95.53578-47.38033 102.1181z" id="path27404" class="top_primary_highlight"/><path d="m224.86315 732.92645c-1.17996 1.61163 5.72083-44.93725 19.01368-82.2908 8.79571-24.71638 19.36925-42.85475 35.91517-49.50818 8.99676-3.61777-6.85744 28.41716-23.13956 63.28401-14.30286 30.62844-28.55585 64.09864-31.78929 68.51497z" id="path27406" class="top_primary_highlight"/><path d="M303.3488 993.13147 175.00893 947.87664c59.73053-24.95 119.52407-19.76941 128.33987 45.25483z" id="path27408" class="top_primary_highlight"/><path d="M303.3488 993.13147 175.00893 947.87664c59.73053-24.95 119.52407-19.76941 128.33987 45.25483z" id="path27410" class="top_primary_highlight"/><path d="M298.75261 999.49543 170.41274 954.2406c59.73053-24.95 119.52407-19.76941 128.33987 45.25483z" id="path27413" class="top_primary_highlight"/><path d="m256.14942 912.0224c19.01687-2.15453 41.32122-50.01403 59.39698-95.45941 18.33061 8.77643 13.57781 94.41409-59.39698 95.45941z" id="path27415" class="top_primary_highlight"/><path d="m256.14942 912.0224c19.01687-2.15453 41.32122-50.01403 59.39698-95.45941 18.33061 8.77643 13.57781 94.41409-59.39698 95.45941z" id="path27417" class="top_primary_highlight"/><path d="m268.25077 902.47645c14.65003-1.65978 31.83265-38.52932 45.75767-73.5391 14.12136 6.76111 10.45995 72.73382-45.75767 73.5391z" id="path27419" class="top_primary_highlight"/><path d="m219.68261 911.30262c-33.89691 10.53859-69.53461 38.11517-76.84704 20.66412 58.1589-28.15747 138.90762-248.46422 193.04015-349.6643 42.33735 26.48759-58.30797 311.00363-116.19311 329.00018z" id="path27421" class="top_primary_shade"/><path d="m219.68261 911.30262c-33.89691 10.53859-69.53461 38.11517-76.84704 20.66412 58.1589-28.15747 128.30102-200.02741 182.43355-301.22749 2.38582 42.75105-47.70137 262.56682-105.58651 280.56337z" id="path27423" class="top_primary_shade"/><path d="m213.6722 907.76709c-33.89691 10.53859-63.5242 41.6507-70.83663 24.19965 58.1589-28.15747 108.14848-136.3878 162.28101-237.58788-20.59515 70.68177-33.55924 195.39168-91.44438 213.38823z" id="path27425" class="top_primary_shade"/><path d="m210.49022 904.93866c-31.52848 16.31004-60.34222 44.47913-67.65465 27.02808 58.1589-28.15747 83.04619-75.22306 137.17872-176.42314-20.59515 70.68177-17.64934 122.55968-69.52407 149.39506z" id="path27427" class="top_primary_shade"/><path d="m200.23717 905.64577c-31.52848 16.31004-50.08917 43.77202-57.4016 26.32097 58.1589-28.15747 64.30786-28.55401 118.44039-129.75409-20.59515 70.68177-9.16406 76.59774-61.03879 103.43312z" id="path27429" class="top_primary_shade"/><path d="m132.93608 901.20759 61.87184-235.82011c9.92775 88.33008-37.00152 233.18433-61.87184 235.82011z" id="path27431" class="top_primary_shade"/><path d="m132.93608 901.20759 61.87184-235.82011c9.92775 88.33008-37.00152 233.18433-61.87184 235.82011z" id="path27433" class="top_primary_shade"/><path d="m123.39014 896.96495 61.87184-235.82011c9.92775 88.33008-37.00152 233.18433-61.87184 235.82011z" id="path27435" class="top_primary_shade"/><path d="m114.08719 922.14734c6.34153-14.21093 21.5796-5.82564 37.09561-36.76955 3.87386 1.85475 12.84019 4.79769 10.70637 7.86846-6.59334 9.48846-24.58099 29.34297-47.80198 28.90109z" id="path27437" class="top_primary_highlight"/><path d="m114.08719 922.14734c6.34153-14.21093 21.5796-5.82564 37.09561-36.76955 3.87386 1.85475 12.84019 4.79769 10.70637 7.86846-6.59334 9.48846-24.58099 29.34297-47.80198 28.90109z" id="path27439" class="top_primary_highlight"/><path d="m108.78389 929.39518c6.34153-14.21093 23.70092-4.23465 39.21693-35.17856 3.87386 1.85475 8.59755 2.49959 6.46373 5.57036-6.59334 9.48846-22.45967 30.05008-45.68066 29.6082z" id="path27441" class="top_primary_highlight"/><path d="m104.1877 933.63782c6.34153-14.21093 24.93835-3.35077 40.45436-34.29468 3.87386 1.85475 5.97506-.009 3.10498 2.38838-53.353939 44.55891-20.33835 32.34818-43.55934 31.9063z" id="path27443" class="top_primary_highlight"/><path d="m307.06112 956.5686c-15.20343-16.13666-16.47909-32.08955-48.79037-34.1179 63.18902-13.17173 66.74529 20.14168 48.79037 34.1179z" id="path27445" class="top_primary_shade"/><path d="m307.06112 956.5686c-15.20343-16.13666-16.47909-32.08955-48.79037-34.1179 63.18902-13.17173 66.74529 20.14168 48.79037 34.1179z" id="path27447" class="top_primary_shade"/><path d="m306.28235 951.44208c-11.87466-12.60356-8.09805-26.83136-33.33482-28.41561 40.86859-3.03994 47.35853 17.49946 33.33482 28.41561z" id="path27449" class="top_primary_shade"/><path d="m305.68274 946.84588c-8.65858-9.19006-5.90481-19.56445-24.30655-20.71963 29.7999-2.21662 34.53213 12.75997 24.30655 20.71963z" id="path27451" class="top_primary_shade"/><path d="M437.66993 886.55314c-22.46754-15.37601-33.04342-112.44352-47.15685-217.18964C381.26002 600.68979 368.49083 528.71552 356.83006 474.29831c5.82571 21.17991 16.4627 56.0165 24.25929 100.97955 19.27809 111.17701 39.0889 267.64594 56.58058 311.27528z" id="path27453" class="top_primary_highlight"/><path d="M437.66993 886.55314c-22.46754-15.37601-33.04342-112.44352-47.15685-217.18964C381.26002 600.68979 368.49083 528.71552 356.83006 474.29831c5.82571 21.17991 16.4627 56.0165 24.25929 100.97955 19.27809 111.17701 39.0889 267.64594 56.58058 311.27528z" id="path27455" class="top_primary_highlight"/><path d="M437.66993 886.55314c-22.46754-15.37601-33.04342-112.44352-47.15685-217.18964C381.26002 600.68979 368.49083 528.71552 356.83006 474.29831c5.82571 21.17991 16.4627 56.0165 24.25929 100.97955 19.27809 111.17701 39.0889 267.64594 56.58058 311.27528z" id="path27457" class="top_primary_highlight"/><path d="m455.38835 896.83944c1.53678 5.63487-10.92803-7.23848-24.90187-65.78896-13.40933-56.18523-27.14395-155.36133-34.35243-201.4061-8.76854-56.00972-35.85156-161.6652-35.85156-161.6652 17.23049 42.4163 36.00562 117.29872 42.1383 162.29279 13.17751 90.85929 52.96756 266.56747 52.96756 266.56747z" id="path27459" class="top_primary_shade"/><path d="m485.04609 908.1199c-25.64953 1.94811-53.90307-116.33261-68.0165-221.07873-9.25306-68.67371-34.04307-159.73986-45.70384-214.15707 5.82571 21.17991 21.08544 79.13395 32.74457 123.25341 18.55149 70.20089 38.89166 178.17284 56.89099 247.37255 2.27865 8.76046-3.48021 14.64953-1.28496 22.0119 6.22222 20.86798 20.07573 37.7461 25.36974 42.59794z" id="path27461" class="top_primary_highlight"/><path d="m485.04609 908.1199c-25.64953 1.94811-53.90307-116.33261-68.0165-221.07873-9.25306-68.67371-34.04307-159.73986-45.70384-214.15707 5.82571 21.17991 21.08544 79.13395 32.74457 123.25341 19.0418 72.05629 39.96809 183.9066 58.31317 252.77671 1.49074 5.59645-5.53557 11.40909-4.08132 16.3935 6.54843 22.44455 21.20267 37.73375 26.74392 42.81218z" id="path27463" class="top_primary_highlight"/><path d="m485.04609 908.1199c-25.64953 1.94811-53.90307-116.33261-68.0165-221.07873-9.25306-68.67371-34.04307-159.73986-45.70384-214.15707 5.82571 21.17991 21.08544 79.13395 32.74457 123.25341 18.80538 71.16164 39.44874 181.13528 57.62867 250.19174.62085 2.35828-3.94344 18.08385-2.89625 20.17853 12.51481 25.03324 19.79423 35.70164 26.24335 41.61212z" id="path27465" class="top_primary_highlight"/><path d="m455.38835 896.83944c1.53678 5.63487-10.92803-7.23848-24.90187-65.78896-13.40933-56.18523-27.14395-155.36133-34.35243-201.4061-8.76854-56.00972-35.85156-161.6652-35.85156-161.6652 17.23049 42.4163 36.00562 117.29872 42.1383 162.29279 13.17751 90.85929 52.96756 266.56747 52.96756 266.56747z" id="path27467" class="top_primary_shade"/><path d="m455.38835 896.83944c1.53678 5.63487-10.92803-7.23848-24.90187-65.78896-13.40933-56.18523-27.14395-155.36133-34.35243-201.4061-8.76854-56.00972-35.85156-161.6652-35.85156-161.6652 17.23049 42.4163 36.00562 117.29872 42.1383 162.29279 13.17751 90.85929 52.96756 266.56747 52.96756 266.56747z" id="path27469" class="top_primary_shade"/><path d="m504.66994 957.05314-11.58987-55.25483c-1.70201-8.11433 58.33756-11.98556 48.50825 9.90515-5.72583 12.75193-18.76398 35.22364-36.91838 45.34968z" id="path27471" class="top_primary_highlight"/><path d="m504.66994 957.05314-11.58987-55.25483c-1.70201-8.11433 58.33756-11.98556 48.50825 9.90515-5.72583 12.75193-18.76398 35.22364-36.91838 45.34968z" id="path27473" class="top_primary_highlight"/><path d="m510.91994 962.30314-11.58987-55.25483c-1.70201-8.11433 58.33756-11.98556 48.50825 9.90515-5.72583 12.75193-18.76398 35.22364-36.91838 45.34968z" id="path27476" class="top_primary_highlight"/><path d="m517.91994 969.55314-11.58987-55.25483c-1.70201-8.11433 58.33756-11.98556 48.50825 9.90515-5.72583 12.75193-18.76398 35.22364-36.91838 45.34968z" id="path27478" class="top_primary_highlight"/><path d="m530.1533 891.3081c-2.16581-8.68101-20.84806-6.46118-46.49226.35355-24.76106-9.01561 26.11024-14.14213 39.95153-23.15774z" id="path27480" class="top_primary_shade"/><path d="m530.1533 891.3081c-2.16581-8.68101-20.84806-6.46118-46.49226.35355-24.76106-9.01561 26.11024-14.14213 39.95153-23.15774z" id="path27482" class="top_primary_shade"/><path d="m530.1533 891.3081c-2.16581-8.68101-10.41823-10.8806-36.06243-4.06587-23.17007-4.41941 16.91785-4.24263 30.75914-13.25824z" id="path27484" class="top_primary_shade"/></g></g><path id="path27490" d="m445.67246 797.85185c3.38224 10.69725 5.75232 31.56004 12.56432 66.35872 6.21179-3.24901 16.87467-8.85341 39.80719-21.61975-6.67759-17.6277-8.19328-18.36447-13.12557-29.07488-13.08198-5.22136-24.13352-7.05866-39.24594-15.66409z" class="top_primary_shade"/><path id="path27492" d="m445.67246 797.85185c3.38224 10.69725 5.75232 31.56004 12.56432 66.35872 6.21179-3.24901 16.87467-8.85341 39.80719-21.61975-6.67759-17.6277-8.19328-18.36447-13.12557-29.07488-13.08198-5.22136-24.13352-7.05866-39.24594-15.66409z" class="top_primary_shade"/><path id="path27494" d="m445.67246 797.85185c3.38224 10.69725 5.75232 31.56004 12.56432 66.35872 6.21179-3.24901 16.87467-8.85341 39.80719-21.61975-6.67759-17.6277-8.19328-18.36447-13.12557-29.07488-13.08198-5.22136-24.13352-7.05866-39.24594-15.66409z" class="top_primary_shade"/><path id="path27496" d="m445.67246 797.85185c3.38224 10.69725 5.75232 31.56004 12.56432 66.35872 6.21179-3.24901 16.87467-8.85341 39.80719-21.61975-6.67759-17.6277-8.19328-18.36447-13.12557-29.07488-13.08198-5.22136-24.13352-7.05866-39.24594-15.66409z" class="top_primary_shade"/><path d="m96.26384 817.32016c-2.787479-13.99775-5.276632-31.36793-2.262832-48.04494 10.627042 8.27815 19.748282 20.8787 23.264392 16.97079 6.03113 6.3914 9.14582 13.71663 15.57096 19.61492-9.1006 3.25506-23.95676 7.37694-36.57252 11.45923z" id="path27498" class="top_primary_highlight"/><path d="m96.26384 817.32016c-2.787479-13.99775-5.276632-31.36793-2.262832-48.04494 10.627042 8.27815 19.748282 20.8787 23.264392 16.97079 6.03113 6.3914 9.14582 13.71663 15.57096 19.61492-9.1006 3.25506-23.95676 7.37694-36.57252 11.45923z" id="path27500" class="top_primary_highlight"/><path d="m96.26384 817.32016c-2.787479-13.99775-5.276632-31.36793-2.262832-48.04494 10.627042 8.27815 19.748282 20.8787 23.264392 16.97079 6.03113 6.3914 9.14582 13.71663 15.57096 19.61492-9.1006 3.25506-23.95676 7.37694-36.57252 11.45923z" id="path27502" class="top_primary_highlight"/><path id="path27504" d="m179.40625 727.70127c-.16138.2828-.47696.47736-.6374.76045-13.93859 24.59393-24.41518 50.26925-45.43503 77.46323 13.23051-4.04497 25.5116-9.51408 37.4146-15.55032.0484-.20667.0969-.41341.14535-.62023 7.46046-31.8406 13.52951-60.39652 20.60322-87.98285-3.28897 11.32718-6.97608 20.19536-12.09074 25.92972z" class="top_primary_shade"/><path id="path27506" d="m179.40625 727.70127c-.16138.2828-.47696.47736-.6374.76045-13.93859 24.59393-24.41518 50.26925-45.43503 77.46323 13.23051-4.04497 25.5116-9.51408 37.4146-15.55032.0484-.20667.0969-.41341.14535-.62023 7.46046-31.8406 13.52951-60.39652 20.60322-87.98285-3.28897 11.32718-6.97608 20.19536-12.09074 25.92972z" class="top_primary_shade"/><path id="path27508" d="m179.40625 727.70127c-.16138.2828-.47696.47736-.6374.76045-13.93859 24.59393-24.41518 50.26925-45.43503 77.46323 13.23051-4.04497 25.5116-9.51408 37.4146-15.55032.0484-.20667.0969-.41341.14535-.62023 7.46046-31.8406 13.52951-60.39652 20.60322-87.98285-3.28897 11.32718-6.97608 20.19536-12.09074 25.92972z" class="top_primary_shade"/><g id="g27533" clip-path="url(#clipPath27130)"><g id="g27531" style="filter:url(#filter27103)"><path style="fill-opacity:1;fill:none;opacity:1;stroke-dasharray:none;stroke-dashoffset:0;stroke-linecap:butt;stroke-linejoin:miter;stroke-miterlimit:4;stroke-opacity:1;stroke-width:.453543;stroke:#000;vector-effect:none" d="m110.66221 863.73093c14.73139-3.06413 42.28726.86691 44.19418-9.19238" id="path27510"/><path d="m154.04122 856.32713c-3.18426 5.2723-19.01805 5.90344-29.05224 6.03988-7.49776.10195-22.40617 2.00132-22.40617 2.00132l-11.727993 2.80632.115683-3.68038 70.19678-33.99994z" id="path27512" class="top_primary_shade"/><path d="m154.04122 856.32713c-3.18426 5.2723-19.01805 5.90344-29.05224 6.03988-7.49776.10195-22.40617 2.00132-22.40617 2.00132l-11.727993 2.80632.115683-3.68038 70.19678-33.99994z" id="path27514" class="top_primary_shade"/><path d="m157.29122 859.20213c-3.18426 5.2723-19.01805 5.90344-29.05224 6.03988-7.49776.10195-22.40617 2.00132-22.40617 2.00132l-11.727993 2.80632.115683-3.68038 70.19678-33.99994z" id="path27517" class="top_primary_shade"/><path d="m160.54122 861.82713c-3.18426 5.2723-19.01805 5.90344-29.05224 6.03988-7.49776.10195-22.40617 2.00132-22.40617 2.00132l-11.727993 2.80632.115683-3.68038 70.19678-33.99994z" id="path27519" class="top_primary_shade"/><path d="m163.41622 858.36304c-3.18426 4.07586-19.01805 4.56378-29.05224 4.66925-9.8539-.52474-5.43111.10479-24.38314-2.73639l60.56144-22.67658z" id="path27521" class="top_primary_strong_shade"/><path d="m166.16622 861.70441c-7.66184 3.6007-17.84988 3.20258-52.98451 1.86749l60.11057-23.82758z" id="path27523" class="top_primary_strong_shade"/><path d="m154.60236 903.8743c-3.94245 4.73221-19.69052 2.96993-29.63067 1.59263-7.42749-1.02916-22.45187-1.39823-22.45187-1.39823l-12.016978 1.00681.669009-3.62091 74.518979-23.03271z" id="path27525" class="top_primary_shade"/><path d="m154.33719 905.28851c-3.94245 4.73221-19.69052 2.96993-29.63067 1.59263-7.42749-1.02916-22.45187-1.39823-22.45187-1.39823l-12.016973 1.00681.669009-3.62091 74.518974-23.03271z" id="path27527" class="top_primary_shade"/><path d="m152.83459 908.82404c-3.94245 4.73221-19.69052 2.96993-29.63067 1.59263-7.42749-1.02916-22.45187-1.39823-22.45187-1.39823l-12.016975 1.00681.669009-3.62091 74.518976-23.03271z" id="path27529" class="top_primary_shade"/></g></g><path id="path27535" d="m541.45801 780.87991c3.05652-8.95783 5.13202-16.35416 9.62081-28.76956-11.47547-4.25406-31.44942-6.76869-33.6764-18.01219-11.18591 3.40785-20.10785 7.94768-25.96321 14.02081 9.28659 17.73916 10.12674 39.56994 22.48648 45.24913 5.97 2.74316 15.70681-2.86102 27.53232-12.48819z" class="top_primary_highlight"/><path id="path27537" d="m541.45801 780.87991c3.05652-8.95783 5.13202-16.35416 9.62081-28.76956-11.47547-4.25406-31.44942-6.76869-33.6764-18.01219-11.18591 3.40785-20.10785 7.94768-25.96321 14.02081 9.28659 17.73916 10.12674 39.56994 22.48648 45.24913 5.97 2.74316 15.70681-2.86102 27.53232-12.48819z" class="top_primary_highlight"/><g id="g27549" style="filter:url(#filter27188)" clip-path="url(#clipPath27190)"><path d="M440.52753 805.74818 391.38361 595.03036c2.13048-87.66632 78.15122 255.6721 125.1579 228.39549-7.18594 22.51552-46.59074 4.28142-76.01398-17.67767z" id="path27539" class="top_primary_shade"/><path d="M433.81002 814.58701 384.6661 603.86919c2.13048-87.66632 78.15122 255.6721 125.1579 228.39549-7.18594 22.51552-46.59074 4.28142-76.01398-17.67767z" id="path27541" class="top_primary_shade"/><path d="M427.79961 827.66849 378.65569 616.95067c2.13048-87.66632 78.15122 255.6721 125.1579 228.39549-7.18594 22.51552-46.59074 4.28142-76.01398-17.67767z" id="path27543" class="top_primary_shade"/><path d="m450.07347 675.99409c-21.39036-48.27821-42.68439-99.39823-62.2254-202.23255 10.73899 5.13111 21.25517 54.00096 30.61272 94.69388 10.61844 46.17609 27.45409 94.41897 31.61268 107.53867z" id="path27545" class="top_primary_shade"/><path d="m450.07347 675.99409c-21.39036-48.27821-42.68439-99.39823-62.2254-202.23255 10.73899 5.13111 21.25517 54.00096 30.61272 94.69388 10.61844 46.17609 27.45409 94.41897 31.61268 107.53867z" id="path27547" class="top_primary_shade"/></g><g id="g27557" style="filter:url(#filter27293)" clip-path="url(#clipPath27297)"><path d="M188.09041 544.82578 174.65538 443.0024l42.77996-40.30508c14.99877 9.0895 8.21534 41.7136 3.42702 75.94934-5.11212 36.55082-9.48259 74.29599-32.77195 66.17912z" id="path27551" class="top_primary_shade"/><path d="M183.09041 545.07578 169.65538 443.2524l42.77996-40.30508c14.99877 9.0895 8.21534 41.7136 3.42702 75.94934-5.11212 36.55082-9.48259 74.29599-32.77195 66.17912z" id="path27553" class="top_primary_shade"/><path d="M179.84041 545.82578 166.40538 444.0024l42.77996-40.30508c14.99877 9.0895 8.21534 41.7136 3.42702 75.94934-5.11212 36.55082-9.48259 74.29599-32.77195 66.17912z" id="path27555" class="top_primary_shade"/></g><g id="g27579" style="filter:url(#filter27241)" clip-path="url(#clipPath27267)"><path d="m348.32955 431.08819c13.97522 16.24053 17.28604 29.4641 20.85579 41.85913-10.98598-3.99709-13.22866-17.3034-20.85579-41.85913z" id="path27559" class="top_primary_shade"/><path d="m348.32955 431.08819c13.97522 16.24053 17.28604 29.4641 20.85579 41.85913-10.98598-3.99709-13.22866-17.3034-20.85579-41.85913z" id="path27561" class="top_primary_shade"/><path d="m353.12657 417.08286c8.04077 7.73019 12.76324 12.07285 15.67121 25.68114-6.60774-11.25599-6.27223-12.31227-15.67121-25.68114z" id="path27563" class="top_primary_shade"/><path d="m358.29231 403.44256c9.01869 5.18039 9.716 3.33194 12.62051 16.51541-6.20915-12.49326-3.39708-5.48665-12.62051-16.51541z" id="path27565" class="top_primary_shade"/><path d="m350.78742 425.38324c7.73074 7.29858 13.41396 15.72361 16.98371 28.11864-7.6333-13.28984-9.6155-14.67123-16.98371-28.11864z" id="path27567" class="top_primary_highlight"/><path d="m350.78742 425.38324c7.73074 7.29858 13.41396 15.72361 16.98371 28.11864-7.6333-13.28984-9.6155-14.67123-16.98371-28.11864z" id="path27569" class="top_primary_highlight"/><path d="m355.47492 409.94574c8.62589 6.31392 11.746 9.18962 14.54621 22.43114-6.51817-13.91402-5.18276-10.3055-14.54621-22.43114z" id="path27571" class="top_primary_highlight"/><path d="m353.12657 417.08286c8.04077 7.73019 12.76324 12.07285 15.67121 25.68114-6.60774-11.25599-6.27223-12.31227-15.67121-25.68114z" id="path27573" class="top_primary_shade"/><path d="m355.47492 409.94574c8.62589 6.31392 11.746 9.18962 14.54621 22.43114-6.51817-13.91402-5.18276-10.3055-14.54621-22.43114z" id="path27575" class="top_primary_highlight"/><path d="m358.29231 403.44256c9.01869 5.18039 9.716 3.33194 12.62051 16.51541-6.20915-12.49326-3.39708-5.48665-12.62051-16.51541z" id="path27577" class="top_primary_shade"/></g><path id="path27581" d="m491.7732 747.17597-.53687.69122c4.86337 9.60229 7.96722 23.77366 12.68945 33.92187 2.36112 5.07411 5.12951 9.15793 8.7793 11.14844 3.64978 1.99051 8.15819 1.83506 13.84961-1.48828l-.22852-.39258c-5.60757 3.27438-9.89967 3.39377-13.40429 1.48242-3.50463-1.91135-6.24294-5.90623-8.58594-10.9414-4.686-10.07036-7.65343-24.7287-12.56274-34.42169zM373.92773 455.68359l-.44335.0937c28.53484 134.02895 57.72091 264.14024 84.49804 408.70118l.44531-.082c-26.779-144.57104-55.96582-274.68707-84.5-408.71289zm71.60635 341.99571.23882.62527c10.88719 5.43622 22.47811 11.37982 39.90767 15.88362l.11523-.43945C468.4004 809.25376 456.40679 803.1083 445.53408 797.6793zM179.05469 727.5c-14.15413 24.8039-24.64444 50.50147-45.77539 77.90234-6.07909-5.7351-8.83933-10.95106-13.55274-16.68554-4.7651-5.79738-11.5403-12.09966-25.781248-19.9375l-.21875.39843c14.204278 7.81767 20.916698 14.06897 25.650388 19.82813 4.73369 5.75915 7.49981 11.0546 13.77149 16.91211l.18164.16992.15234-.19531c21.28163-27.53265 31.79485-53.33285 45.9668-78.16797zm-8.41602 62.67773c-18.95906 9.54326-27.79346 13.05554-74.828123 26.99805l.128906.43555c47.039737-13.94401 55.934577-17.47872 74.904297-27.02735zm24.65625-105.27148c-1.68843 8.34489-4.50303 19.7357-6.82726 29.23378-7.42687 30.35028-15.27121 65.30582-22.78993 96.67247-4.93584 20.5914-9.73154 39.63557-14.17382 54.81055-4.44229 15.17498-8.54821 26.49457-12.03711 31.5664l.37304.25782c3.57257-5.19347 7.65331-16.50856 12.09961-31.69727 4.44631-15.18871 9.2431-34.23752 14.17969-54.83203 7.49881-31.28362 15.32118-66.13301 22.72799-96.41714 2.34523-9.58894 5.1488-21.03267 6.88725-29.47935zM360.49219 241.99219c-2.78731 9.55612-7.05072 17.6655-12.03081 24.73899-8.03169 11.40785-17.1137 20.43114-18.02025 32.51189-1.26572 16.86712 26.63424 40.31473 37.78878 57.91551 13.30675 20.99677 29.84147 45.75046 36.16462 69.0797 15.13556 55.84256 13.97138 79.49126 20.95508 122.54688 13.31381 82.0818 66.08984 199.33398 66.08984 199.33398 5.85536-6.07313 14.77698-10.61363 25.96289-14.02148 2.22698 11.2435 22.20032 13.75766 33.67578 18.01172-17.48937 48.37335-14.44477 71.54278-66.16015 61.40624 41.94264 91.07793 42.17102 106.06774 37.13476 106.64454C440.56232 929.49323 408.6004 876.82254 403.60156 828.31055c-13.58382-131.82621-31.49786-252.48872-57.82617-369.39844-19.17655 128.22018 5.60359 488.59176-28.74805 517.32422-53.16815-3.01889-48.66352-14.54025-82.9634-20.45499-11.04137-1.90399-21.43478.532-32.99855 1.14789-14.66118.78086-30.17856-.26301-40.00457-4.67316-12.46129-5.59292-16.57529-13.61047-19.63894-19.58224l-11.31446-4.24219c-2.08679-4.86211-5.02748-8.97686-3.53515-16.9707l13.43554-14.14258c-4.04124-1.93139-19.41662 1.50539-31.82031 3.53516 2.98836-10.32881 2.28385-24.35015 2.65234-37.29883-3.8107.20184-6.20099-.11449-19.976559 3.71093 1.156361-15.90693-6.198571-50.68033 5.302735-49.8496-3.293111-16.00561-4.926214-32.13858-2.121094-48.61329-23.064756-10.46231 19.460148-19.33579 29.345698-29.87695l9.19141 6.01172 42.78125-14.14258C200.86304 718.4314 212.6281 579.0322 212.3125 476.88867c-.083-26.86843 8.50633-51.22589 12.39062-71.71679 3.8072-20.08421 7.78551-36.19164 11.53126-48.78516l5.63281-20.15234c2.71852-9.29099 5.39283-19.39217 5.74804-32.03907.25235-8.98487-4.36057-35.97173-4.875-47.6289-.5583-5.18733-.29122-10.21144.47071-15.05664l-.26582-.007c-.76974 4.89487-1.52599 9.87421-.96074 15.1356 34e-5.003-37e-5.006.0.01.26437 5.9062 1.54352 15.52632 2.72656 24.83008 1.18563 9.32413 2.26645 18.3542 2.14453 22.69531-.35252 12.5512-3.0042 22.57023-5.71875 31.84765-66e-5.003-.001.005-.002.008l-5.63282 20.15234c-3.75341 12.62078-7.73457 28.74685-11.54492 48.84766-3.86662 20.3977-12.48782 44.82944-12.4043 71.86132.15771 51.04152-2.70554 111.40874-8.78906 160.5254-3.04176 24.55832-6.89126 46.30626-11.55664 62.64453-2.33269 8.16913-4.8714 14.98662-7.59375 20.10742-2.71463 5.10628-5.61972 8.49258-8.55664 9.92773l-42.36523 14.00391-8.88477-5.81055c-.30912-.20171-.71846-.15229-.9707.11719-2.32173 2.47571-6.78683 5.0156-11.78125 7.48242-4.99443 2.46682-10.52024 4.8911-15.05469 7.33594-4.534448 2.44483-8.147273 4.81072-9.205078 7.71875-.528903 1.45401-.257297 3.06425.892578 4.48242 1.070471 1.32025 2.921226 2.55259 5.533203 3.79297-2.655385 16.14464-1.098109 31.93941 2.0625 47.56445-1.211792.1204-2.313355.52185-3.136719 1.34571-1.039096 1.03972-1.736388 2.51355-2.230468 4.28515-.988162 3.54322-1.17 8.34929-1.041016 13.66797.257967 10.63736 1.797293 23.33167 1.230469 31.12891-.03739.52379.454771.92692.960937.78711 12.839184-3.56539 15.534924-3.47533 18.998044-3.61914-.3198 12.75207.25794 26.36-2.60742 36.26367-.15457.53653.3025 1.05112.85352.96094 6.21992-1.01785 13.16208-2.3827 19.0332-3.25 2.93556-.43366 5.60478-.74177 7.75977-.82227 1.46711-.0548 2.56831.0492 3.44921.21484l-12.53125 13.19141c-.1016.10647-.17012.24013-.19726.38477-1.53404 8.21724 1.53798 12.64307 3.58398 17.41015.0817.19045.23761.3393.43164.41211l11.03907 4.13867c5.07259 10.29823 11.90933 16.46358 19.83375 20.04931 20.96849 9.48807 54.42759 1.53967 73.21995 3.05659 13.07464 1.05539 42.88422 20.22562 83.09473 20.60699.17834 48e-5.35117-.0617.48828-.17578 4.61122-3.85691 7.909-12.73835 10.56836-25.65039s4.58339-29.86987 5.98829-49.80273c2.80979-39.86573 3.53128-91.62193 3.77929-146.48242.48541-107.37159-.80419-226.52513 8.10352-291.52344 25.79853 115.54294 43.47406 234.82429 56.89062 365.02734 2.51348 24.39245 11.80194 49.86145 30.76953 68.08594 18.9676 18.22449 47.60643 29.12762 88.52344 24.44141.81479-.0933 1.62965-.54961 2.13281-1.3711.50317-.82149.74513-1.93984.76172-3.47461.0332-3.06953-.8572-7.88052-3.20312-15.51758-4.64209-15.11214-15.0958-41.38121-35.63281-86.05273 12.2213 2.2895 21.44129 2.71949 28.57031 1.24414 7.41896-1.53535 12.63944-5.12903 16.67383-10.53516 8.06877-10.81226 11.62487-28.70489 20.35156-52.84179.14139-.39255-.0599-.82571-.45117-.97071-5.82677-2.16003-13.67373-3.84808-20.29883-6.38281-3.31255-1.26736-6.31142-2.74419-8.58008-4.55078s-3.79875-3.90999-4.31445-6.51367c-.0883-.44044-.53703-.7088-.9668-.57813-10.79215 3.28789-19.46892 7.66989-25.45312 13.49805-1.23347-2.74931-52.50644-117.3029-65.62891-198.20508-6.97452-42.999-5.8184-66.72062-20.9707-122.625-4.62519-17.0646-14.62214-34.78494-24.83985-51.25-4.01049-6.4626-7.79907-12.44455-11.70138-18.31195-12.85861-19.33382-38.78031-41.31752-37.73064-57.2372.61379-9.30916 8.71164-18.91036 16.51289-30.0189 5.69074-8.10329 11.36988-17.00866 13.14965-27.18784z" class="shadow"/></g><g id="Torso_Outfit_Ballgown_Normal" style="display:none"><path id="path101419-8" d="m348.66017 308.81233c-.35453-8.03785-.0308-16.11237 2.19108-26.67767 5.45445-19.51494 9.64063-40.14258 9.64063-40.14258-82.48594 83.34991 8.66193 89.4891 43.90258 184.24686-9.17495-33.85093-39.83417-70.71151-50.98909-94.70728-4.52132-9.72596-4.40437-14.99216-4.7452-22.71933z" class="top_primary"/><path id="path27311" d="m360.49219 241.99219s-4.18618 20.62764-9.64063 40.14258c-2.22188 10.5653-2.54593 18.63988-2.1914 26.67773.34083 7.72717.22477 12.99279 4.74609 22.71875 11.15492 23.99577 41.81333 60.8561 50.98828 94.70703l.73433-.19911c-4.62519-17.0646-14.62214-34.78494-24.83985-51.25-10.21771-16.46505-20.66541-31.68674-26.19336-43.57812-4.475-9.62632-4.33394-14.68169-4.67578-22.43164-.35248-7.99143-.0323-15.97818 2.17383-26.47461.001-.005 9e-4-.009.002-.0137 5.458-19.53706 8.92383-40.25782 8.92383-40.25782z" class="shadow"/></g></svg>