<svg viewBox="0 0 560 1e3"><defs><clipPath clipPathUnits="userSpaceOnUse" id="clipPathTorsoUnnatural"><path style="display:inline;fill-opacity:1;fill:#0ff;opacity:1" d="m330.55078 146.24219-33.94726 3.49414c-.60023 11.74644 4.71263 22.22405 4.14257 32.1582-3.83498 2.97182-5.98164 3.47574-13.82226 5.20313-.50811.12713-.99038.25932-1.45703.39453-3.72264.82253-9.04126 2.01096-14.32032 3.34179-8.65971 10.94361-15.77788 17.65645-24.83789 40.22852-7.97663 19.22419-2.76622 39.20128 6.8418 56.00977-1.06764 11.32585-1.52592 26.55771 1 35.50195-11.37059 21.52353-15.89766 23.525-18.09766 43.625-1.1 10.1-2.23134 20.37109-6.00781 40.87109 1.79918 21.68192 24.06434 28.08621 33.55274 33.19727 14.43169 10.04215 15.75568 13.80686 22.99414 21.73047 2.40278 1.2769 6.48148.50653 7.11523-.33399l1.04492-.0117c1.31243 1.17872 7.86741 1.71406 11.33008.17774 1.25908-5.51105 3.06526-22.40357 25.5332-37.0293 9.99479-6.9207 28.66489-25.38486 47.28125-34.05664-9.1-20.7-12.62221-28.06668-19.58398-39.49609-3.8841-8.49646-20.35167-24.94928-20.57812-24.78321.17394-.53763-12.86413-13.70783-12.93165-15.85937 2.56898-6.32141 6.07277-31.48998 8.07422-32.87695 17.10876-11.85604 23.08422-25.51867 27.05078-41.16602-.3269-2.17434-.47181-3.26841-.6582-5.75-1.66961-10.3676-2.48045-23.52968-5.33008-34.10742.025-10.96207 3.83399-17.95313 3.83399-17.95313-3.25954-.78952-9.49632-1.47902-12.42774-1.80664.0206-.0319.042-.0618.0625-.0937-7.39171-1.56131-16.05124-2.24254-15.85742-30.60937z" id="path13423"/></clipPath><clipPath clipPathUnits="userSpaceOnUse" id="clipPathTorsoHourglass"><path style="display:inline;fill-opacity:1;fill:#f0f;opacity:1" d="m330.55078 146.24219-33.94726 3.49414c-.60023 11.74644 4.71263 22.22405 4.14257 32.1582-3.83498 2.97182-5.98164 3.47574-13.82226 5.20313-.56276.1408-1.09742.28682-1.60938.4375-3.67844.81605-7.62914 1.65042-14.16797 3.29882-8.65971 10.94361-15.77788 17.65645-24.83789 40.22852-5.87551 18.9358-2.9645 38.67948 2.8418 56.00977-1.06764 11.32585-1.52592 26.55771 1 35.50195-11.37059 21.52353-11.89766 23.525-14.09766 43.625-1.1 10.1-2.23134 20.37109-6.00781 40.87109 1.79918 21.68192 24.06434 28.08621 33.55274 33.19727 14.43169 10.04215 15.75568 13.80686 22.99414 21.73047 1.37693.26708 4.09368 1.61095 7.06445-.26758l1.11133-.0781c1.17404 1.57274 8.90177 1.53055 11.31445.17774 1.25908-5.51105 3.06526-22.40357 25.5332-37.0293 9.99479-6.9207 28.66489-25.38486 47.28125-34.05664-9.1-20.7-12.62221-28.06668-19.58398-39.49609-3.8841-8.49646-20.35168-24.94928-20.57812-24.78321.17394-.53763-7.38366-13.70783-7.45118-15.85937 2.56898-6.32141 6.52259-31.00027 8.07422-32.87695 3.11188-3.76379 5.69391-7.22683 7.88672-10.51954 7.0161-10.53536 10.04592-19.32698 13.68359-30.64648-.3269-2.17434-.47181-3.26841-.6582-5.75-1.66961-10.3676-2.48045-23.52968-5.33008-34.10742.025-10.96207 3.83399-17.95313 3.83399-17.95313-4.4617-1.08069-8.62379-1.33294-12.38086-1.87695.005-.008.0105-.0154.0156-.0234-7.39171-1.56131-16.05124-2.24254-15.85742-30.60937z" id="path13449"/></clipPath><clipPath clipPathUnits="userSpaceOnUse" id="clipPathTorsoNormal"><path style="display:inline;fill-opacity:1;fill:#f9ff00;opacity:1" d="m330.55078 146.24219-33.94726 3.49414c-.60023 11.74644 4.71263 22.22405 4.14257 32.1582-3.83498 2.97182-5.98164 3.47574-13.82226 5.20313-.58083.14532-1.12952.29729-1.65625.45312-3.72076.82535-7.55904 1.62893-14.1211 3.2832-8.65971 10.94361-15.77788 17.65645-24.83789 40.22852-5.87551 18.9358-2.9645 38.67948 2.8418 56.00977-1.06764 11.32585-1.52592 26.55771 1 35.50195-11.37059 21.52353-11.89766 23.525-14.09766 43.625-1.1 10.1-2.23134 20.37109-6.00781 40.87109 1.79918 21.68192 24.06434 28.08621 33.55274 33.19727 14.43169 10.04215 15.75568 13.80686 22.99414 21.73047.78119.55861 4.78693 1.49428 7.05664-.26758l1.14258-.0781c1.51181 1.59807 9.57688 1.45961 11.29101.17774 1.25908-5.51105 3.06526-22.40357 25.5332-37.0293 9.99479-6.9207 28.66489-25.38486 47.28125-34.05664-9.1-20.7-12.62221-28.06668-19.58398-39.49609-23.58113-57.47054-9.98057-57.2743 1.61523-114.68555-.3269-2.17434-.47181-3.26841-.6582-5.75-1.66961-10.3676-2.48045-23.52968-5.33008-34.10742.025-10.96207 3.83399-17.95313 3.83399-17.95313-4.46045-1.0804-8.62863-1.32705-12.38672-1.86914.007-.0108.0146-.0205.0215-.0312-7.39171-1.56131-16.05124-2.24254-15.85742-30.60937z" id="path13552"/></clipPath><clipPath clipPathUnits="userSpaceOnUse" id="clipPathBelly_9_Unnatural"><path style="display:inline;fill-opacity:.19607843;fill:#0ff;opacity:1" d="m357.49805 230.06641c-49.88118 16.16626-72.61195 16.52565-114.35157 11.42968-.76058 4.842-.96415 9.88674-.40625 15.07032.13153 3.90391.64823 8.57927 2.00782 13.16797.35421 1.1955.69613 2.33327 1.02532 3.42138 4.10848 10.03828-6.76186 16.10038-11.51946 22.72315-24.08168 17.42062-52.02161 63.92861-46.89844 117.2207 2.85628 52.58607 63.1503 65.79581 92.10742 66.10937 30.33614 1.12304 69.13902-16.88058 86.51758-59.26171 2.87946-5.49858 4.41497-11.63353 4.88867-18.15039 3.09493-4.17389 5.83923-7.96908 8.03906-11.06836-3.33091-7.11265-6.21373-14.52625-9.63281-21.14844-1.6411-3.45083-2.24103-4.55467-4.01953-8.16406-3.67625-6.20806-5.05182-10.20375-8.19727-15.29493-8.65345-17.9296-19.60785-33.73868-27.71875-42.69531.0735-1.75819.33898-3.6044.85938-5.54101 6.18485-23.01618 8.88791-19.12327 18.33008-32.67774 8.1747-11.82703 11.96289-23.21484 11.96289-23.21484-1.23312-2.31543-2.22114-6.60776-2.99414-11.92578z" id="path42739"/></clipPath><clipPath clipPathUnits="userSpaceOnUse" id="clipPathBelly_8_Unnatural"><path style="display:inline;fill-opacity:.19607843;fill:#0ff;opacity:1" d="m357.49805 230.06641c-49.88118 16.16626-72.61195 16.52565-114.35157 11.42968-.76058 4.842-.96415 9.88674-.40625 15.07032.13153 3.90391.64823 8.57927 2.00782 13.16797 1.40572 4.74439 2.22834 7.29045 3.10114 10.32652.29116.89104.17156 1.64989-.57796 2.9515-4.72963 5.67923-5.59889 6.57698-10.82384 11.85418-22.02252 16.73799-46.93946 59.16209-42.27747 107.65686 2.48806 45.80699 52.05687 59.33024 80.22656 61.00586 8.28755 6.0494 15.97065 9.78499 21.17188 9.11132 25.4005-3.28987 67.4841-59.57335 83.33984-81.9121-3.33091-7.11265-6.21373-14.52625-9.63281-21.14844-1.6411-3.45083-2.24103-4.55467-4.01953-8.16406-5.93531-10.02291-5.86545-14.27048-16.94922-26.69336-6.10557-11.61192-13.0225-21.92936-18.9668-29.29883-.1007-2.34025.13783-4.85391.85938-7.53906 6.18485-23.01618 8.88791-19.12327 18.33008-32.67774 8.1747-11.82703 11.96289-23.21484 11.96289-23.21484-1.23312-2.31543-2.22114-6.60776-2.99414-11.92578z" id="path42750"/></clipPath><clipPath clipPathUnits="userSpaceOnUse" id="clipPathBelly_7_Unnatural"><path style="display:inline;fill-opacity:.19607843;fill:#0ff;opacity:1" d="m357.49805 230.06641c-49.88118 16.16626-72.61195 16.52565-114.35157 11.42968-.76058 4.842-.96415 9.88674-.40625 15.07032.13153 3.90391.64823 8.57927 2.00782 13.16797 1.34376 4.53526 2.4999 8.23561 3.45779 11.54152.99066 3.86102-1.70549 4.30091-6.66482 10.54441-20.14971 14.57625-43.52692 53.49128-39.24024 98.08203 1.60933 29.62889 25.01011 44.3052 47.52344 50.82032 15.24603 17.2102 35.39435 33.25847 45.74414 31.91796 25.4005-3.28987 67.4841-59.57335 83.33984-81.9121-3.33091-7.11265-6.21373-14.52625-9.63281-21.14844-1.6411-3.45083-2.24103-4.55467-4.01953-8.16406-7.0689-11.93721-5.6819-15.72766-24.70313-34.84961-3.46899-6.39325-7.17417-12.30196-10.74414-17.37305-.69596-3.34124-.73547-7.11797.39063-11.30859 6.18485-23.01618 8.88791-19.12327 18.33008-32.67774 8.1747-11.82703 11.96289-23.21484 11.96289-23.21484-1.23312-2.31543-2.22114-6.60776-2.99414-11.92578z" id="path42758"/></clipPath><clipPath clipPathUnits="userSpaceOnUse" id="clipPathBelly_6_Unnatural"><path style="display:inline;fill-opacity:.19607843;fill:#0ff;opacity:1" d="m357.49805 230.06641c-49.88118 16.16626-72.61195 16.52565-114.35157 11.42968-.76058 4.842-.96415 9.88674-.40625 15.07032.13153 3.90391.64823 8.57927 2.00782 13.16797 3.0943 10.44345 5.2495 16.51368 6.16406 23.43164-1.85648 2.64351-4.93883 5.77407-8.61719 9.58789-17.1935 12.55258-37.04877 45.73408-33.39453 83.74609.0293.56726.07 1.1282.12109 1.68359 1.7131 19.26609 14.44074 30.86928 29.04883 37.55274 14.36302 21.33002 44.12171 48.6368 57.49805 46.90429 25.4005-3.28987 67.4841-59.57335 83.33984-81.9121-3.33091-7.11265-6.21373-14.52625-9.63281-21.14844-1.6411-3.45083-2.24103-4.55467-4.01953-8.16406-7.29948-12.32658-5.51372-15.91501-26.56641-36.72266-3.68873-4.0896-12.1163-13.31461-8.49023-26.80859 6.18485-23.01618 8.88791-19.12327 18.33008-32.67774 8.1747-11.82703 11.96289-23.21484 11.96289-23.21484-1.23312-2.31543-2.22114-6.60776-2.99414-11.92578z" id="path42771"/></clipPath><clipPath clipPathUnits="userSpaceOnUse" id="clipPathBelly_5_Unnatural"><path style="display:inline;fill-opacity:.19607843;fill:#0ff;opacity:1" d="m357.49805 230.06641c-49.88118 16.16626-72.61195 16.52565-114.35157 11.42968-.76058 4.842-.96415 9.88674-.40625 15.07032.13153 3.90391.64823 8.57927 2.00782 13.16797 3.0694 10.35942 5.21356 16.41659 6.14062 23.26562-8.46547 12.18282-40.1355 34.64556-35.77929 87.13672.52884 13.85975 6.61889 23.59988 15.30273 30.24805 4.65085 19.71029 48.14812 64.45875 65.15625 62.25585 25.4005-3.28987 67.4841-59.57335 83.33984-81.9121-3.33091-7.11265-6.21373-14.52625-9.63281-21.14844-1.6411-3.45083-2.24103-4.55467-4.01953-8.16406-7.29948-12.32658-5.51372-15.91501-26.56641-36.72266-3.68873-4.0896-12.1163-13.31461-8.49023-26.80859 6.18485-23.01618 8.88791-19.12327 18.33008-32.67774 8.1747-11.82703 11.96289-23.21484 11.96289-23.21484-1.23312-2.31543-2.22114-6.60776-2.99414-11.92578z" id="path42781"/></clipPath><clipPath clipPathUnits="userSpaceOnUse" id="clipPathBelly_4_Unnatural"><path style="display:inline;fill-opacity:.19607843;fill:#0ff;opacity:1" d="m357.49805 230.06641c-49.88118 16.16626-72.61195 16.52565-114.35157 11.42968-.76058 4.842-.96415 9.88674-.40625 15.07032.13153 3.90391.64823 8.57927 2.00782 13.16797 3.1283 10.55821 5.30036 16.64465 6.19726 23.6582-7.2717 11.89968-31.97092 31.11878-27.23828 74.72265-.33427 9.23914 3.17811 18.16722 8.61133 26.02735-.14535.92326-.28074 1.80863-.44141 2.79297-.37638 2.03994-.75184 4.29712-1.86718 10.63476.54263 17.83339 47.68265 67.38561 65.55859 65.07031 25.4005-3.28987 67.4841-59.57335 83.33984-81.9121-3.33091-7.11265-6.21373-14.52625-9.63281-21.14844-1.6411-3.45083-2.24103-4.55467-4.01953-8.16406-7.29948-12.32658-5.51372-15.91501-26.56641-36.72266-3.68873-4.0896-12.1163-13.31461-8.49023-26.80859 6.18485-23.01618 8.88791-19.12327 18.33008-32.67774 8.1747-11.82703 11.96289-23.21484 11.96289-23.21484-1.23312-2.31543-2.22114-6.60776-2.99414-11.92578z" id="path42792"/></clipPath><clipPath clipPathUnits="userSpaceOnUse" id="clipPathBelly_3_Unnatural"><path style="display:inline;fill-opacity:.19607843;fill:#0ff;opacity:1" d="m357.49805 230.06641c-49.88118 16.16626-72.61195 16.52565-114.35157 11.42968-.76058 4.842-.96415 9.88674-.40625 15.07032.13153 3.90391.64823 8.57927 2.00782 13.16797 4.58009 15.45809 7.11428 21.32684 6.59179 34.5625-.003.0773-.001.15509-.004.23242-10.25606 27.53096-19.3161 38.17899-17.79102 59.0625.53095 2.5946 1.12955 5.04678 1.78516 7.37695-.856 7.91396-1.65318 14.93926-3.45313 25.9668-.37638 2.03994-.75184 4.29712-1.86718 10.63476.54263 17.83339 47.68265 67.38561 65.55859 65.07031 25.4005-3.28987 67.4841-59.57335 83.33984-81.9121-3.33091-7.11265-6.21373-14.52625-9.63281-21.14844-1.6411-3.45083-2.24103-4.55467-4.01953-8.16406-7.29948-12.32658-5.51372-15.91501-26.56641-36.72266-3.68873-4.0896-12.1163-13.31461-8.49023-26.80859 6.18485-23.01618 8.88791-19.12327 18.33008-32.67774 8.1747-11.82703 11.96289-23.21484 11.96289-23.21484-1.23312-2.31543-2.22114-6.60776-2.99414-11.92578z" id="path42804"/></clipPath><clipPath clipPathUnits="userSpaceOnUse" id="clipPathBelly_2_Unnatural"><path style="display:inline;fill-opacity:.19607843;fill:#0ff;opacity:1" d="m357.49805 230.06641c-49.88118 16.16626-72.61195 16.52565-114.35157 11.42968-.76058 4.842-.96415 9.88674-.40625 15.07032.13153 3.90391.64823 8.57927 2.00782 13.16797 4.50369 15.20023 7.02319 21.14407 6.60937 33.92187-5.12702 15.65095-7.7102 24.84358-8.73242 33.66992-.257 1.67971-.46002 3.35209-.61328 5.05664-2.36739 5.31127-4.49269 11.44191-5.51953 18.17188-.008-.006-.0157-.0114-.0234-.0176-.0229.19927-.0322.30749-.0547.50391-.16457 1.14255-.28798 2.30432-.38476 3.47851-1.21611 11.04254-1.88093 18.49992-4.15235 32.41602-.37638 2.03994-.75184 4.29712-1.86718 10.63476.54263 17.83339 47.68265 67.38561 65.55859 65.07031 25.4005-3.28987 67.4841-59.57335 83.33984-81.9121-3.33091-7.11265-6.21373-14.52625-9.63281-21.14844-1.6411-3.45083-2.24103-4.55467-4.01953-8.16406-7.29948-12.32658-5.51372-15.91501-26.56641-36.72266-3.68873-4.0896-12.1163-13.31461-8.49023-26.80859 6.18485-23.01618 8.88791-19.12327 18.33008-32.67774 8.1747-11.82703 11.96289-23.21484 11.96289-23.21484-1.23312-2.31543-2.22114-6.60776-2.99414-11.92578z" id="path42817"/></clipPath><clipPath clipPathUnits="userSpaceOnUse" id="clipPathBelly_1_Unnatural"><path style="display:inline;fill-opacity:.19607843;fill:#0ff;opacity:1" d="m357.49805 230.06641c-49.88118 16.16626-72.61195 16.52565-114.35157 11.42968-.76058 4.842-.96415 9.88674-.40625 15.07032.13153 3.90391.64823 8.57927 2.00782 13.16797 3.37706 11.3978 5.6359 17.58771 6.38281 25.35546-.16087.58663-.32833 1.18872-.48242 1.76172-5.13767 13.8856-5.82563 26.79833-5.24373 36.34436-.0472 1.78853-.32004 2.89319-1.02412 4.24088-3.23728 6.28332-6.52513 14.18289-7.8884 23.11789-.008-.006-.0157-.0114-.0234-.0176-.0229.19927-.0322.30749-.0547.50391-.16457 1.14255-.28798 2.30432-.38476 3.47851-1.21611 11.04254-1.88093 18.49992-4.15235 32.41602-.37638 2.03994-.75184 4.29712-1.86718 10.63476.54263 17.83339 47.68265 67.38561 65.55859 65.07031 25.4005-3.28987 67.4841-59.57335 83.33984-81.9121-3.33091-7.11265-6.21373-14.52625-9.63281-21.14844-1.6411-3.45083-2.24103-4.55467-4.01953-8.16406-7.29948-12.32658-5.51372-15.91501-26.56641-36.72266-3.68873-4.0896-12.1163-13.31461-8.49023-26.80859 6.18485-23.01618 8.88791-19.12327 18.33008-32.67774 8.1747-11.82703 11.96289-23.21484 11.96289-23.21484-1.23312-2.31543-2.22114-6.60776-2.99414-11.92578z" id="path42831"/></clipPath><clipPath clipPathUnits="userSpaceOnUse" id="clipPathBelly_1_Hourglass"><path style="display:inline;fill-opacity:.19607843;fill:red;opacity:1" d="m357.49609 230.05273c-44.02018 18.50933-91.79981 15.52681-114.34961 11.44336-.76055 4.84194-.96415 9.88681-.40625 15.07032.94813 18.58839 5.23565 31.45261 5.24219 47.80664 16e-5.39812-.0112.78098-.0176 1.16992-1.52977 6.03087-2.29693 11.7533-2.58203 16.96094-3.11997 10.86974-8.08142 20.11028-9.26172 37.71679-.002-.001-.004-.002-.006-.004-.0167.18472-.0285.31761-.0449.5-.003.0333-.005.0663-.008.0996-1.20439 13.41903-1.66357 20.66796-4.18555 36.11914-.52181 2.71738-.68965 3.72422-1.82226 10.47851.21871 20.95565 50.78661 67.30306 64.88867 65.47656 24.70321-3.19954 66.98155-58.24257 83.95703-82.08984-2.65001-6.3252-6.51349-14.54763-9.625-21.2207-1.6411-3.45083-2.24103-4.55467-4.01953-8.16406-5.0098-8.46001-5.74048-12.80421-12.51172-21.42383-8.04998-10.36524-18.7494-17.65223-18.42187-30.42774.29692-11.58113 5.01047-29.81439 9.46875-35.45117 11.69026-16.7409 16.70117-32.12109 16.70117-32.12109-1.23417-2.31741-2.22281-6.61514-2.9961-11.93946z" id="path55826-1"/></clipPath><clipPath clipPathUnits="userSpaceOnUse" id="clipPathBelly_2_Hourglass"><path style="display:inline;fill-opacity:.19607843;fill:#f0f;opacity:1" d="m357.49609 230.05273c-44.02018 18.50933-91.79981 15.52681-114.34961 11.44336-.76055 4.84194-.96415 9.88681-.40625 15.07032.94813 18.58839 5.23565 31.45261 5.24219 47.80664.009 22.01287-10.1079 29.69161-11.86133 55.84765-.002-.001-.004-.002-.006-.004-.0167.18472-.0285.31761-.0449.5-.003.0333-.005.0663-.008.0996-1.20439 13.41903-1.66357 20.66796-4.18555 36.11914-.52181 2.71738-.68965 3.72422-1.82226 10.47851.21871 20.95565 50.78661 67.30306 64.88867 65.47656 24.70321-3.19954 66.98155-58.24257 83.95703-82.08984-2.65001-6.3252-6.51349-14.54763-9.625-21.2207-1.6411-3.45083-2.24103-4.55467-4.01953-8.16406-5.0098-8.46001-5.74048-12.80421-12.51172-21.42383-8.04998-10.36524-18.7494-17.65223-18.42187-30.42774.29692-11.58113 5.01047-29.81439 9.46875-35.45117 11.69026-16.7409 16.70117-32.12109 16.70117-32.12109-1.23417-2.31741-2.22281-6.61514-2.9961-11.93946z" id="path55812-0"/></clipPath><clipPath clipPathUnits="userSpaceOnUse" id="clipPathBelly_3_Hourglass"><path style="display:inline;fill-opacity:.19607843;fill:#f0f;opacity:1" d="m357.49609 230.05273c-44.02018 18.50933-91.79981 15.52681-114.34961 11.44336-.76055 4.84194-.96415 9.88681-.40625 15.07032.94813 18.58839 5.23565 31.45261 5.24219 47.80664.002 4.08697-.34771 7.67755-.92578 10.98633-8.34072 19.95271-14.81977 30.32081-13.51172 48.23242.49522 2.41997 1.05227 4.71071 1.65625 6.90039-.73823 8.17749-1.47467 15.11188-3.32422 26.44336-.52181 2.71738-.68965 3.72422-1.82226 10.47851.21871 20.95565 50.78661 67.30306 64.88867 65.47656 24.70321-3.19954 66.98155-58.24257 83.95703-82.08984-2.65001-6.3252-6.51349-14.54763-9.625-21.2207-1.6411-3.45083-2.24103-4.55467-4.01953-8.16406-5.0098-8.46001-5.74048-12.80421-12.51172-21.42383-8.04998-10.36524-18.7494-17.65223-18.42187-30.42774.29692-11.58113 5.01047-29.81439 9.46875-35.45117 11.69026-16.7409 16.70117-32.12109 16.70117-32.12109-1.23417-2.31741-2.22281-6.61514-2.9961-11.93946z" id="path55795-6"/></clipPath><clipPath clipPathUnits="userSpaceOnUse" id="clipPathBelly_4_Hourglass"><path style="display:inline;fill-opacity:.19607843;fill:#f0f;opacity:1" d="m357.49609 230.05273c-44.02018 18.50933-91.79981 15.52681-114.34961 11.44336-.76055 4.84194-.96415 9.88681-.40625 15.07032.81942 16.06483 4.12689 27.85677 5.01563 41.31836-9.44845 12.22475-28.23184 31.69056-24.04883 70.23046-.33422 9.23775 3.17756 18.16417 8.60938 26.02344-.14585.92948-.2773 1.8034-.43946 2.79688-.52181 2.71738-.68965 3.72422-1.82226 10.47851.21871 20.95565 50.78661 67.30306 64.88867 65.47656 24.70321-3.19954 66.98155-58.24257 83.95703-82.08984-2.65001-6.3252-6.51349-14.54763-9.625-21.2207-1.6411-3.45083-2.24103-4.55467-4.01953-8.16406-5.0098-8.46001-5.74048-12.80421-12.51172-21.42383-8.04998-10.36524-18.7494-17.65223-18.42187-30.42774.29692-11.58113 5.01047-29.81439 9.46875-35.45117 11.69026-16.7409 16.70117-32.12109 16.70117-32.12109-1.23417-2.31741-2.22281-6.61514-2.9961-11.93946z" id="path55783-6"/></clipPath><clipPath clipPathUnits="userSpaceOnUse" id="clipPathBelly_5_Hourglass"><path style="display:inline;fill-opacity:.19607843;fill:#f0f;opacity:1" d="m357.49609 230.05273c-44.02018 18.50933-91.79981 15.52681-114.34961 11.44336-.76055 4.84194-.96415 9.88681-.40625 15.07032.80156 15.71479 3.97877 27.34363 4.94922 40.44336-11.27349 12.99697-36.49836 35.91263-32.58007 83.12695.52821 13.84326 6.60416 23.57697 15.27148 30.22461 4.3317 22.04447 51.08887 64.2744 64.5625 62.52929 24.70321-3.19954 66.98155-58.24257 83.95703-82.08984-2.65001-6.3252-6.51349-14.54763-9.625-21.2207-1.6411-3.45083-2.24103-4.55467-4.01953-8.16406-5.0098-8.46001-5.74048-12.80421-12.51172-21.42383-8.04998-10.36524-18.7494-17.65223-18.42187-30.42774.29692-11.58113 5.01047-29.81439 9.46875-35.45117 11.69026-16.7409 16.70117-32.12109 16.70117-32.12109-1.23417-2.31741-2.22281-6.61514-2.9961-11.93946z" id="path55772-5"/></clipPath><clipPath clipPathUnits="userSpaceOnUse" id="clipPathBelly_6_Hourglass"><path style="display:inline;fill-opacity:.19607843;fill:#f0f;opacity:1" d="m357.49609 230.05273c-44.02018 18.50933-91.79981 15.52681-114.34961 11.44336-.76055 4.84194-.96415 9.88681-.40625 15.07032.80244 15.73199 3.98648 27.36901 4.95313 40.48632-1.56715 1.72666-3.36243 3.59019-5.39844 5.70118-17.1935 12.55258-37.04877 45.73408-33.39453 83.74609.0293.56726.07 1.1282.12109 1.68359 1.68856 18.99014 14.08 30.53231 28.42383 37.25977 14.60214 22.05319 46.70968 48.84458 57.49805 47.44726 24.70321-3.19954 66.98155-58.24257 83.95703-82.08984-2.65001-6.3252-6.51349-14.54763-9.625-21.2207-1.6411-3.45083-2.24103-4.55467-4.01953-8.16406-5.0098-8.46001-5.74048-12.80421-12.51172-21.42383-8.04998-10.36524-18.7494-17.65223-18.42187-30.42774.29692-11.58113 5.01047-29.81439 9.46875-35.45117 11.69026-16.7409 16.70117-32.12109 16.70117-32.12109-1.23417-2.31741-2.22281-6.61514-2.9961-11.93946z" id="path55762-5"/></clipPath><clipPath clipPathUnits="userSpaceOnUse" id="clipPathBelly_7_Hourglass"><path style="display:inline;fill-opacity:.19607843;fill:#f0f;opacity:1" d="m357.49609 230.05273c-44.02018 18.50933-91.79981 15.52681-114.34961 11.44336-.76055 4.84194-.96415 9.88681-.40625 15.07032.54967 10.77628 2.21728 19.62914 3.52576 28.35303.38326 2.43333-2.24143 3.64231-4.72497 6.90087-20.14971 14.57625-43.52692 53.49128-39.24024 98.08203 1.60035 29.46358 24.74961 44.14125 47.14649 50.71094 15.9103 17.4756 37.12608 33.36143 45.49609 32.27734 24.70321-3.19954 66.98155-58.24257 83.95703-82.08984-2.65001-6.3252-6.51349-14.54763-9.625-21.2207-1.6411-3.45083-2.24103-4.55467-4.01953-8.16406-5.0098-8.46001-5.74048-12.80421-12.51172-21.42383-4.52811-5.83045-9.89349-10.68633-13.66406-16.09375-32e-5-45e-5 31e-5-.002.0-.002-.85008-1.50526-1.71148-2.9717-2.57813-4.41015-1.42373-2.98844-2.27458-6.22045-2.17968-9.92188.29692-11.58113 5.01047-29.81439 9.46875-35.45117 11.69026-16.7409 16.70117-32.12109 16.70117-32.12109-1.23417-2.31741-2.22281-6.61514-2.9961-11.93946z" id="path55753-4"/></clipPath><clipPath clipPathUnits="userSpaceOnUse" id="clipPathBelly_8_Hourglass"><path style="display:inline;fill-opacity:.19607843;fill:#f0f;opacity:1" d="m357.49609 230.05273c-44.02018 18.50933-91.79981 15.52681-114.34961 11.44336-.76055 4.84194-.96415 9.88681-.40625 15.07032.50455 9.89189 1.95203 18.16299 3.19852 26.20141.51416 3.02003-.81329 2.6204-8.30008 11.07398-22.28916 16.12392-48.21058 59.35634-43.46875 108.68164 2.50074 46.04034 52.55624 59.46402 80.64844 61.02734 8.41907 6.1042 15.90725 9.88613 20.125 9.33984 24.70321-3.19954 66.98155-58.24257 83.95703-82.08984-2.65001-6.3252-6.51349-14.54763-9.625-21.2207-1.6411-3.45083-2.24103-4.55467-4.01953-8.16406-5.0098-8.46001-5.74048-12.80421-12.51172-21.42383-1.40684-1.81147-2.89495-3.51244-4.39062-5.18164-4.44424-8.4628-9.31752-16.23311-13.94141-22.68946-.0773-.82925-.11236-1.67829-.0898-2.55664.29692-11.58113 5.01047-29.81439 9.46875-35.45117 11.69026-16.7409 16.70117-32.12109 16.70117-32.12109-1.23417-2.31741-2.22281-6.61514-2.9961-11.93946z" id="path55745-6"/></clipPath><clipPath clipPathUnits="userSpaceOnUse" id="clipPathBelly_9_Hourglass"><path style="display:inline;fill-opacity:.19607843;fill:#f0f;opacity:1" d="m357.49609 230.05273c-44.02018 18.50933-91.79981 15.52681-114.34961 11.44336-.76055 4.84194-.96415 9.88681-.40625 15.07032.3799 7.44793 1.2909 13.97441 2.24966 20.17551 1.32158 7.13379-3.25846 9.67591-10.73598 19.13699-24.08168 17.42062-52.02161 63.92861-46.89844 117.2207 2.85628 52.58607 63.1503 65.79581 92.10742 66.10937 30.33614 1.12304 69.13902-16.88058 86.51758-59.26171 2.88032-5.50022 4.41547-11.63722 4.88867-18.15625 3.04895-4.07596 5.77539-7.82119 8.03125-10.99024-2.65001-6.3252-6.51349-14.54763-9.625-21.2207-1.6411-3.45083-2.24103-4.55467-4.01953-8.16406-3.65395-6.1704-5.05112-10.16184-8.15625-15.20899-6.98547-14.49144-15.47654-27.59961-22.76758-36.8418.34383-11.58967 5.02542-29.64642 9.45899-35.25195 11.69026-16.7409 16.70117-32.12109 16.70117-32.12109-1.23417-2.31741-2.22281-6.61514-2.9961-11.93946z" id="path55738-0"/></clipPath><clipPath clipPathUnits="userSpaceOnUse" id="clipPathBelly_1_Normal"><path style="display:inline;fill-opacity:.19607843;fill:red;opacity:1" d="m357.37109 230.09766c-6.17894 1.85299-11.79828 5.76528-17.99414 7.25976-6.8017 1.64062-13.61548 3.05025-20.4414 4.19141-6.82592 1.14116-13.66344 2.01478-20.51758 2.58594-6.85414.57115-13.723.83894-20.60938.76953-3.44318-.0347-6.89175-.15326-10.34375-.36133-3.45199-.20807-6.90783-.50623-10.36914-.89649-3.4613-.39026-6.92732-.87381-10.39843-1.45507-1.16025-.1943-2.32495-.46535-3.48633-.68164-.76193 4.8452-1.02901 9.86931-.47071 15.05664.51443 11.65717 5.12736 38.64403 4.875 47.6289-.0331 1.17805-.10233 2.31785-.17382 3.45313-1.20701 5.30887-1.81698 10.34317-2.06446 14.97656-2.95391 14.04191-7.89216 25.16656-9.25586 37.5957-.002-.001-.004-.002-.006-.004-.0167.18472-.0285.31761-.0449.5-.003.0333-.005.0663-.008.0996-1.20439 13.41903-1.66357 20.66796-4.18555 36.11914-.81807 4.20419-.64023 3.59931-1.83398 10.18164-1.58567 17.8779 47.47491 67.59516 65.40039 65.27343 24.27011-3.14346 70.65403-63.34025 83.41406-81.69335-4.05154-9.14731-6.15729-13.76306-9.58203-21.11719-1.6411-3.45083-2.24103-4.55467-4.01953-8.16406-8.34178-14.34503-15.68468-42.46709-16.3125-47.75586-.68733-9.74952-.75896-18.84283 1.9082-31.52539 5.45445-19.51494 9.64063-40.14258 9.64063-40.14258-1.03569-1.94472-1.78268-5.24964-2.49024-9.41992z" id="path56145-0"/></clipPath><clipPath clipPathUnits="userSpaceOnUse" id="clipPathBelly_2_Normal"><path style="display:inline;fill-opacity:.19607843;fill:#ff0;opacity:1" d="m357.37109 230.09766c-6.17894 1.85299-11.79828 5.76528-17.99414 7.25976-6.8017 1.64062-13.61548 3.05025-20.4414 4.19141-6.82592 1.14116-13.66344 2.01478-20.51758 2.58594-6.85414.57115-13.723.83894-20.60938.76953-3.44318-.0347-6.89175-.15326-10.34375-.36133-3.45199-.20807-6.90783-.50623-10.36914-.89649-3.4613-.39026-6.92732-.87381-10.39843-1.45507-1.16025-.1943-2.32495-.46535-3.48633-.68164-.76193 4.8452-1.02901 9.86931-.47071 15.05664.51443 11.65717 5.12736 38.64403 4.875 47.6289-.66982 23.8485-9.58722 38.64511-11.49414 56.02539-.002-.001-.004-.002-.006-.004-.0167.18472-.0285.31761-.0449.5-.003.0333-.005.0663-.008.0996-1.20439 13.41903-1.66357 20.66796-4.18555 36.11914-.81807 4.20419-.64023 3.59931-1.83398 10.18164-1.58567 17.8779 47.47491 67.59516 65.40039 65.27343 24.27011-3.14346 70.65403-63.34025 83.41406-81.69335-4.05154-9.14731-6.15729-13.76306-9.58203-21.11719-1.6411-3.45083-2.24103-4.55467-4.01953-8.16406-8.34178-14.34503-15.68468-42.46709-16.3125-47.75586-.68733-9.74952-.75896-18.84283 1.9082-31.52539 5.45445-19.51494 9.64063-40.14258 9.64063-40.14258-1.03569-1.94472-1.78268-5.24964-2.49024-9.41992z" id="path56131-0"/></clipPath><clipPath clipPathUnits="userSpaceOnUse" id="clipPathBelly_3_Normal"><path style="display:inline;fill-opacity:.19607843;fill:#ff0;opacity:1" d="m357.37109 230.09766c-6.17894 1.85299-11.79828 5.76528-17.99414 7.25976-6.8017 1.64062-13.61548 3.05025-20.4414 4.19141-6.82592 1.14116-13.66344 2.01478-20.51758 2.58594-6.85414.57115-13.723.83894-20.60938.76953-3.44318-.0347-6.89175-.15326-10.34375-.36133-3.45199-.20807-6.90783-.50623-10.36914-.89649-3.4613-.39026-6.92732-.87381-10.39843-1.45507-1.16025-.1943-2.32495-.46535-3.48633-.68164-.76193 4.8452-1.02901 9.86931-.47071 15.05664.51443 11.65717 5.12736 38.64403 4.875 47.6289-.12612 4.49054-.5452 8.65959-1.15429 12.58594-8.04957 19.03261-14.19265 29.32924-12.91602 46.81055.49522 2.41997 1.05227 4.71071 1.65625 6.90039-.73823 8.17749-1.47467 15.11188-3.32422 26.44336-.81807 4.20419-.64023 3.59931-1.83398 10.18164-1.58567 17.8779 47.47491 67.59516 65.40039 65.27343 24.27011-3.14346 70.65403-63.34025 83.41406-81.69335-4.05154-9.14731-6.15729-13.76306-9.58203-21.11719-1.6411-3.45083-2.24103-4.55467-4.01953-8.16406-8.34178-14.34503-15.68468-42.46709-16.3125-47.75586-.68733-9.74952-.75896-18.84283 1.9082-31.52539 5.45445-19.51494 9.64063-40.14258 9.64063-40.14258-1.03569-1.94472-1.78268-5.24964-2.49024-9.41992z" id="path56118-5"/></clipPath><clipPath clipPathUnits="userSpaceOnUse" id="clipPathBelly_4_Normal"><path style="display:inline;fill-opacity:.19607843;fill:#ff0;opacity:1" d="m357.37109 230.09766c-6.17894 1.85299-11.79828 5.76528-17.99414 7.25976-6.8017 1.64062-13.61548 3.05025-20.4414 4.19141-6.82592 1.14116-13.66344 2.01478-20.51758 2.58594-6.85414.57115-13.723.83894-20.60938.76953-3.44318-.0347-6.89175-.15326-10.34375-.36133-3.45199-.20807-6.90783-.50623-10.36914-.89649-3.4613-.39026-6.92732-.87381-10.39843-1.45507-1.16025-.1943-2.32495-.46535-3.48633-.68164-.76193 4.8452-1.02901 9.86931-.47071 15.05664.42935 9.72918 3.70491 30.10278 4.63282 41.81054-9.56177 12.25466-27.79408 31.70472-23.66602 69.73828-.33422 9.23775 3.17756 18.16417 8.60938 26.02344-.14585.92948-.2773 1.8034-.43946 2.79688-.81807 4.20419-.64023 3.59931-1.83398 10.18164-1.58567 17.8779 47.47491 67.59516 65.40039 65.27343 24.27011-3.14346 70.65403-63.34025 83.41406-81.69335-4.05154-9.14731-6.15729-13.76306-9.58203-21.11719-1.6411-3.45083-2.24103-4.55467-4.01953-8.16406-8.34178-14.34503-15.68468-42.46709-16.3125-47.75586-.68733-9.74952-.75896-18.84283 1.9082-31.52539 5.45445-19.51494 9.64063-40.14258 9.64063-40.14258-1.03569-1.94472-1.78268-5.24964-2.49024-9.41992z" id="path56106-4"/></clipPath><clipPath clipPathUnits="userSpaceOnUse" id="clipPathBelly_5_Normal"><path style="display:inline;fill-opacity:.19607843;fill:#ff0;opacity:1" d="m357.37109 230.09766c-6.17894 1.85299-11.79828 5.76528-17.99414 7.25976-6.8017 1.64062-13.61548 3.05025-20.4414 4.19141-6.82592 1.14116-13.66344 2.01478-20.51758 2.58594-6.85414.57115-13.723.83894-20.60938.76953-3.44318-.0347-6.89175-.15326-10.34375-.36133-3.45199-.20807-6.90783-.50623-10.36914-.89649-3.4613-.39026-6.92732-.87381-10.39843-1.45507-1.16025-.1943-2.32495-.46535-3.48633-.68164-.76193 4.8452-1.02901 9.86931-.47071 15.05664.41789 9.46948 3.54054 29.05482 4.5625 40.88867-11.45001 13.07252-36.06803 35.99275-32.19335 82.68164.52492 13.75716 6.52626 23.45892 15.10742 30.10351 3.39155 19.91318 48.25682 64.34833 65.22656 62.15039 24.27011-3.14346 70.65403-63.34025 83.41406-81.69335-4.05154-9.14731-6.15729-13.76306-9.58203-21.11719-1.6411-3.45083-2.24103-4.55467-4.01953-8.16406-8.34178-14.34503-15.68468-42.46709-16.3125-47.75586-.68733-9.74952-.75896-18.84283 1.9082-31.52539 5.45445-19.51494 9.64063-40.14258 9.64063-40.14258-1.03569-1.94472-1.78268-5.24964-2.49024-9.41992z" id="path56095-0"/></clipPath><clipPath clipPathUnits="userSpaceOnUse" id="clipPathBelly_6_Normal"><path style="display:inline;fill-opacity:.19607843;fill:#ff0;opacity:1" d="m357.37109 230.09766c-6.17894 1.85299-11.79828 5.76528-17.99414 7.25976-6.8017 1.64062-13.61548 3.05025-20.4414 4.19141-6.82592 1.14116-13.66344 2.01478-20.51758 2.58594-6.85414.57115-13.723.83894-20.60938.76953-3.44318-.0347-6.89175-.15326-10.34375-.36133-3.45199-.20807-6.90783-.50623-10.36914-.89649-3.4613-.39026-6.92732-.87381-10.39843-1.45507-1.16025-.1943-2.32495-.46535-3.48633-.68164-.76193 4.8452-1.02901 9.86931-.47071 15.05664.41815 9.47532 3.54446 29.07858 4.56446 40.91015-1.48414 1.61512-3.13597 3.33454-5.00977 5.27735-17.1935 12.55258-37.04877 45.73408-33.39453 83.74609.0293.56726.07 1.1282.12109 1.68359 1.67732 18.86368 13.91469 30.38032 28.13672 37.12696 14.00855 21.39837 44.86732 48.81796 58.28516 47.08007 24.27011-3.14346 70.65403-63.34025 83.41406-81.69335-4.05154-9.14731-6.15729-13.76306-9.58203-21.11719-1.6411-3.45083-2.24103-4.55467-4.01953-8.16406-8.34178-14.34503-15.68468-42.46709-16.3125-47.75586-.68733-9.74952-.75896-18.84283 1.9082-31.52539 5.45445-19.51494 9.64063-40.14258 9.64063-40.14258-1.03569-1.94472-1.78268-5.24964-2.49024-9.41992z" id="path56085-7"/></clipPath><clipPath clipPathUnits="userSpaceOnUse" id="clipPathBelly_7_Normal"><path style="display:inline;fill-opacity:.19607843;fill:#ff0;opacity:1" d="m357.37109 230.09766c-6.17894 1.85299-11.79828 5.76528-17.99414 7.25976-6.8017 1.64062-13.61548 3.05025-20.4414 4.19141-6.82592 1.14116-13.66344 2.01478-20.51758 2.58594-6.85414.57115-13.723.83894-20.60938.76953-3.44318-.0347-6.89175-.15326-10.34375-.36133-3.45199-.20807-6.90783-.50623-10.36914-.89649-3.4613-.39026-6.92732-.87381-10.39843-1.45507-1.16025-.1943-2.32495-.46535-3.48633-.68164-.76193 4.8452-1.02901 9.86931-.47071 15.05664.29061 6.5852 1.88607 18.05244 3.17594 28.4108.42879 2.88716-.98334 2.60752-4.37515 6.8431-20.14971 14.57625-43.52692 53.49128-39.24024 98.08203 1.58918 29.25793 24.42782 43.9375 46.67774 50.57422 15.37055 17.22369 36.1083 33.25545 46.46484 31.91406 24.27011-3.14346 70.65403-63.34025 83.41406-81.69335-4.05154-9.14731-6.15729-13.76306-9.58203-21.11719-1.6411-3.45083-2.24103-4.55467-4.01953-8.16406-8.34178-14.34503-15.68468-42.46709-16.3125-47.75586-.68733-9.74952-.75896-18.84283 1.9082-31.52539 5.45445-19.51494 9.64063-40.14258 9.64063-40.14258-1.03569-1.94472-1.78268-5.24964-2.49024-9.41992z" id="path56076-5"/></clipPath><clipPath clipPathUnits="userSpaceOnUse" id="clipPathBelly_8_Normal"><path style="display:inline;fill-opacity:.19607843;fill:#ff0;opacity:1" d="m357.37109 230.09766c-6.17894 1.85299-11.79828 5.76528-17.99414 7.25976-6.8017 1.64062-13.61548 3.05025-20.4414 4.19141-6.82592 1.14116-13.66344 2.01478-20.51758 2.58594-6.85414.57115-13.723.83894-20.60938.76953-3.44318-.0347-6.89175-.15326-10.34375-.36133-3.45199-.20807-6.90783-.50623-10.36914-.89649-3.4613-.39026-6.92732-.87381-10.39843-1.45507-1.16025-.1943-2.32495-.46535-3.48633-.68164-.76193 4.8452-1.02901 9.86931-.47071 15.05664.26536 6.01318 1.6203 16.10167 2.8361 25.69663.39089 4.06992-.99793 3.43678-8.00016 11.76626-22.28916 16.12392-48.14808 59.16884-43.40625 108.49414 2.48449 45.7411 51.9169 59.2927 80.10742 61 8.32875 5.91076 16.0277 9.5327 21.16602 8.86718 24.27011-3.14346 70.65403-63.34025 83.41406-81.69335-4.05154-9.14731-6.15729-13.76306-9.58203-21.11719-1.6411-3.45083-2.24103-4.55467-4.01953-8.16406-8.34178-14.34503-15.68468-42.46709-16.3125-47.75586-.68733-9.74952-.75896-18.84283 1.9082-31.52539 5.45445-19.51494 9.64063-40.14258 9.64063-40.14258-1.03569-1.94472-1.78268-5.24964-2.49024-9.41992z" id="path56068-2"/></clipPath><clipPath clipPathUnits="userSpaceOnUse" id="clipPathBelly_9_Normal"><path style="display:inline;fill-opacity:.19607843;fill:#ff0;opacity:1" d="m357.37109 230.09766c-6.17894 1.85299-11.79828 5.76528-17.99414 7.25976-6.8017 1.64062-13.61548 3.05025-20.4414 4.19141-6.82592 1.14116-13.66344 2.01478-20.51758 2.58594-6.85414.57115-13.723.83894-20.60938.76953-3.44318-.0347-6.89175-.15326-10.34375-.36133-3.45199-.20807-6.90783-.50623-10.36914-.89649-3.4613-.39026-6.92732-.87381-10.39843-1.45507-1.16025-.1943-2.32495-.46535-3.48633-.68164-.76193 4.8452-1.02901 9.86931-.47071 15.05664.22808 5.16817 1.25533 13.32744 2.31036 21.60669.71965 7.17249-5.43612 10.63304-10.79668 17.70581-24.08168 17.42062-52.02161 63.92861-46.89844 117.2207 2.85628 52.58607 63.1503 65.79581 92.10742 66.10937 30.33614 1.12304 69.13902-16.88058 86.51758-59.26171 2.9046-5.54659 4.44325-11.73984 4.90234-18.32032 3.27479-4.34726 6.04498-8.15424 7.97461-10.92968-4.05154-9.14731-6.15729-13.76306-9.58203-21.11719-1.6411-3.45083-2.24103-4.55467-4.01953-8.16406-8.34178-14.34503-15.68468-42.46709-16.3125-47.75586-.68733-9.74952-.75896-18.84283 1.9082-31.52539 5.45445-19.51494 9.64063-40.14258 9.64063-40.14258-1.03569-1.94472-1.78268-5.24964-2.49024-9.41992z" id="path56061-6"/></clipPath><radialGradient xlink:href="#linearGradient55606" id="radialGradient55632" gradientUnits="userSpaceOnUse" cx="303.79074" cy="344.80295" fx="303.79074" fy="344.80295" r="14.900194"/><radialGradient xlink:href="#linearGradient55771" id="radialGradient55811" gradientUnits="userSpaceOnUse" cx="294.3255" cy="335.33774" fx="294.3255" fy="335.33774" r="4.2349725"/><radialGradient xlink:href="#linearGradient55771" id="radialGradient55813" gradientUnits="userSpaceOnUse" cx="294.3255" cy="335.33774" fx="294.3255" fy="335.33774" r="4.2349725"/><radialGradient xlink:href="#linearGradient55771" id="radialGradient55811-8" gradientUnits="userSpaceOnUse" cx="294.3255" cy="335.33774" fx="294.3255" fy="335.33774" r="4.2349725"/><radialGradient xlink:href="#linearGradient55771" id="radialGradient55813-1" gradientUnits="userSpaceOnUse" cx="294.3255" cy="335.33774" fx="294.3255" fy="335.33774" r="4.2349725"/><radialGradient xlink:href="#linearGradient55771" id="radialGradient55811-8-3" gradientUnits="userSpaceOnUse" cx="294.3255" cy="335.33774" fx="294.3255" fy="335.33774" r="4.2349725"/><radialGradient xlink:href="#linearGradient55771" id="radialGradient55811-8-36" gradientUnits="userSpaceOnUse" cx="294.3255" cy="335.33774" fx="294.3255" fy="335.33774" r="4.2349725"/><radialGradient xlink:href="#linearGradient55771" id="radialGradient55813-1-8" gradientUnits="userSpaceOnUse" cx="294.3255" cy="335.33774" fx="294.3255" fy="335.33774" r="4.2349725"/><radialGradient xlink:href="#linearGradient55771" id="radialGradient55811-8-9" gradientUnits="userSpaceOnUse" cx="294.3255" cy="335.33774" fx="294.3255" fy="335.33774" r="4.2349725"/><radialGradient xlink:href="#linearGradient55771" id="radialGradient55813-1-7" gradientUnits="userSpaceOnUse" cx="294.3255" cy="335.33774" fx="294.3255" fy="335.33774" r="4.2349725"/><radialGradient xlink:href="#linearGradient55771" id="radialGradient55813-1-7-9" gradientUnits="userSpaceOnUse" cx="294.3255" cy="335.33774" fx="294.3255" fy="335.33774" r="4.2349725"/><radialGradient xlink:href="#linearGradient55771" id="radialGradient55811-8-9-5" gradientUnits="userSpaceOnUse" cx="294.3255" cy="335.33774" fx="294.3255" fy="335.33774" r="4.2349725"/><radialGradient xlink:href="#linearGradient55771" id="radialGradient55813-1-7-91" gradientUnits="userSpaceOnUse" cx="294.3255" cy="335.33774" fx="294.3255" fy="335.33774" r="4.2349725"/><radialGradient xlink:href="#linearGradient55606" id="radialGradient29046" gradientUnits="userSpaceOnUse" cx="303.79074" cy="344.80295" fx="303.79074" fy="344.80295" r="14.900194"/><radialGradient xlink:href="#linearGradient55606" id="radialGradient29048" gradientUnits="userSpaceOnUse" cx="303.79074" cy="344.80295" fx="303.79074" fy="344.80295" r="14.900194"/><radialGradient xlink:href="#linearGradient55771" id="radialGradient29050" gradientUnits="userSpaceOnUse" cx="294.3255" cy="335.33774" fx="294.3255" fy="335.33774" r="4.2349725"/><radialGradient xlink:href="#linearGradient55771" id="radialGradient29052" gradientUnits="userSpaceOnUse" cx="294.3255" cy="335.33774" fx="294.3255" fy="335.33774" r="4.2349725"/><radialGradient xlink:href="#linearGradient55771" id="radialGradient29054" gradientUnits="userSpaceOnUse" cx="294.3255" cy="335.33774" fx="294.3255" fy="335.33774" r="4.2349725"/><radialGradient xlink:href="#linearGradient55771" id="radialGradient29056" gradientUnits="userSpaceOnUse" cx="294.3255" cy="335.33774" fx="294.3255" fy="335.33774" r="4.2349725"/><radialGradient xlink:href="#linearGradient55771" id="radialGradient29058" gradientUnits="userSpaceOnUse" cx="294.3255" cy="335.33774" fx="294.3255" fy="335.33774" r="4.2349725"/><radialGradient xlink:href="#linearGradient55771" id="radialGradient29060" gradientUnits="userSpaceOnUse" cx="294.3255" cy="335.33774" fx="294.3255" fy="335.33774" r="4.2349725"/><radialGradient xlink:href="#linearGradient55771" id="radialGradient29062" gradientUnits="userSpaceOnUse" cx="294.3255" cy="335.33774" fx="294.3255" fy="335.33774" r="4.2349725"/><radialGradient xlink:href="#linearGradient55771" id="radialGradient29064" gradientUnits="userSpaceOnUse" cx="294.3255" cy="335.33774" fx="294.3255" fy="335.33774" r="4.2349725"/><radialGradient xlink:href="#linearGradient55771" id="radialGradient29066" gradientUnits="userSpaceOnUse" cx="294.3255" cy="335.33774" fx="294.3255" fy="335.33774" r="4.2349725"/><radialGradient xlink:href="#linearGradient55771" id="radialGradient29068" gradientUnits="userSpaceOnUse" cx="294.3255" cy="335.33774" fx="294.3255" fy="335.33774" r="4.2349725"/><radialGradient xlink:href="#linearGradient55771" id="radialGradient29070" gradientUnits="userSpaceOnUse" cx="294.3255" cy="335.33774" fx="294.3255" fy="335.33774" r="4.2349725"/><radialGradient xlink:href="#linearGradient55771" id="radialGradient29072" gradientUnits="userSpaceOnUse" cx="294.3255" cy="335.33774" fx="294.3255" fy="335.33774" r="4.2349725"/><radialGradient xlink:href="#linearGradient55771" id="radialGradient29074" gradientUnits="userSpaceOnUse" cx="294.3255" cy="335.33774" fx="294.3255" fy="335.33774" r="4.2349725"/><radialGradient xlink:href="#linearGradient55771" id="radialGradient29076" gradientUnits="userSpaceOnUse" cx="294.3255" cy="335.33774" fx="294.3255" fy="335.33774" r="4.2349725"/><radialGradient xlink:href="#linearGradient55771" id="radialGradient29078" gradientUnits="userSpaceOnUse" cx="294.3255" cy="335.33774" fx="294.3255" fy="335.33774" r="4.2349725"/><radialGradient xlink:href="#linearGradient55771" id="radialGradient29080" gradientUnits="userSpaceOnUse" cx="294.3255" cy="335.33774" fx="294.3255" fy="335.33774" r="4.2349725"/><radialGradient xlink:href="#linearGradient55771" id="radialGradient29082" gradientUnits="userSpaceOnUse" cx="294.3255" cy="335.33774" fx="294.3255" fy="335.33774" r="4.2349725"/><radialGradient xlink:href="#linearGradient55771" id="radialGradient29084" gradientUnits="userSpaceOnUse" cx="294.3255" cy="335.33774" fx="294.3255" fy="335.33774" r="4.2349725"/><linearGradient id="linearGradient55771"><stop style="stop-color:#efefef;stop-opacity:1" offset="0" id="stop55767"/><stop style="stop-color:#efefef;stop-opacity:1" offset=".48616308" id="stop55775"/><stop style="stop-color:#efefef;stop-opacity:0" offset="1" id="stop55769"/></linearGradient><linearGradient id="linearGradient55606"><stop style="stop-color:#c0c6c7;stop-opacity:1" offset="0" id="stop55602"/><stop style="stop-color:#efefef;stop-opacity:0" offset=".83641571" id="stop55610"/><stop style="stop-color:#efefef;stop-opacity:1" offset=".93281108" id="stop55612"/><stop style="stop-color:#efefef;stop-opacity:0" offset="1" id="stop55604"/></linearGradient></defs><g id="g29458" style="display:inline;opacity:1"><path id="path29432" d="m300.64645 182.01961c.19647-2.8289-.21252-5.25416-.48765-7.76866l18.75297-10.43959 11.53228-16.37604c.48515 9.29334.35747 19.09563 5.57428 24.45929-11.37581 3.97083-19.90829 12.02571-35.37188 10.125z" style="fill-opacity:.0166052;fill:#010101"/><path id="path29434" d="m282.74507 409.66612c-3.02008-75.15795-28.86151-165.97691 20.57911-228.58327l7.48106-2.774c-52.38053 67.74199-24.96872 151.88878-22.44483 231.28803z" style="fill-opacity:.0166052;fill:#010101"/><path id="path29436" d="m248.54181 293.0185.59093-5.63792c26.08054 7.76617 81.41051-8.64113 103.37619-14.16093l-1.5334 6.06498c-25.3681 6.21736-73.69098 24.22018-102.43372 13.73387z" style="fill-opacity:.0166052;fill:#010101"/><path id="path29438" d="m249.83337 322.70417-1.10438-5.55979c26.11901 7.93288 77.02383-9.41284 98.13868-18.61958l-.44977 5.62037c-19.55992 7.0471-67.83613 29.04612-96.58453 18.559z" style="fill-opacity:.0166052;fill:#010101"/><path id="path29440" d="m305.58478 461.76323-2.91688.62771c-.237-34.63249 43.891-58.56721 74.52696-75.64102l2.20189 5.09003c-23.66963 12.29432-69.72202 41.24006-73.81197 69.92328z" style="fill-opacity:.0166052;fill:#010101"/><path id="path29442" d="m286.46262 461.96295 2.91688.62771c-28.01268-37.53971-26.96023-23.95407-59.71446-54.45352l-1.38939 5.15253c34.69638 28.86465 42.2831 28.46475 58.18697 48.67328z" style="fill-opacity:.0166052;fill:#010101"/><path id="path29444" d="m230.0681 406.94442.77062-5.05979c67.99401 11.93288 109.67161-12.54586 143.53646-21.5026l1.98091 4.40502c-19.55992 7.0471-78.41459 38.51949-146.28799 22.15737z" style="fill-opacity:.0166052;fill:#010101"/><path id="path29446" d="m283.47212 411.04042 5.17119-1.14037 26.1263 22.47011-2.15059 4.14311z" style="fill-opacity:.0166052;fill:#010101"/><path d="m283.47212 411.04042 5.17119-1.14037-16.9362 33.09511-3.33809-2.73189z" id="path29448" style="fill-opacity:.0166052;fill:#010101"/><path id="path29450" d="m306.84144 179.80553-2.06007 3.22555c23.3503 2.52905 38.53464 15.87246 53.33726 29.7214l-1.09146-6.06498c-14.87819-17.81605-32.01863-24.80565-50.18573-26.88197z" style="fill-opacity:.0166052;fill:#010101"/><path id="path29452" d="m302.41314 180.3416 2.06007 3.22555c-17.14399 8.74118-36.94672 13.05114-49.62495 29.23526l2.50567-4.20882c11.69297-15.28809 29.81478-19.23118 45.05921-28.25199z" style="fill-opacity:.0166052;fill:#010101"/><path id="path29454" d="m290.49119 405.86957-5.48014.45093c15.27591-31.3179 51.9848-68.82679 61.37773-102.1811l.87606 5.45462c-10.44934 31.1379-42.62696 66.52416-56.77365 96.27555z" style="fill-opacity:.0166052;fill:#010101"/><path id="path29456" d="m282.59169 408.07843 5.48014.45093c-16.11373-31.10845-30.52048-51.97001-38.0141-85.79915l-2.97225 5.42499c8.59628 31.47482 20.76189 50.2805 35.50621 79.92323z" style="fill-opacity:.0166052;fill:#010101"/></g><g id="g29652" select_clip="torso_outfit_belly" select_clip_options="clip-path=url(#clipPathBelly_1_Unnatural) url(#clipPathBelly_2_Unnatural) url(#clipPathBelly_3_Unnatural) url(#clipPathBelly_4_Unnatural) url(#clipPathBelly_5_Unnatural) url(#clipPathBelly_6_Unnatural) url(#clipPathBelly_7_Unnatural) url(#clipPathBelly_8_Unnatural) url(#clipPathBelly_9_Unnatural) url(#clipPathBelly_1_Hourglass) url(#clipPathBelly_2_Hourglass) url(#clipPathBelly_3_Hourglass) url(#clipPathBelly_4_Hourglass) url(#clipPathBelly_5_Hourglass) url(#clipPathBelly_6_Hourglass) url(#clipPathBelly_7_Hourglass) url(#clipPathBelly_8_Hourglass) url(#clipPathBelly_9_Hourglass) url(#clipPathBelly_1_Normal) url(#clipPathBelly_2_Normal) url(#clipPathBelly_3_Normal) url(#clipPathBelly_4_Normal) url(#clipPathBelly_5_Normal) url(#clipPathBelly_6_Normal) url(#clipPathBelly_7_Normal) url(#clipPathBelly_8_Normal) url(#clipPathBelly_9_Normal url(#clipPathTorsoUnnatural) url(#clipPathTorsoHourglass) url(#clipPathTorsoNormal))" style="display:inline;opacity:1"><g id="g29464" transform="matrix(0.85219537,-0.33623723,0.36701951,0.93021325,-107.54547,188.96388)" style="stroke-width:1.04477"><circle style="display:inline;fill-opacity:.0553506;fill:none;opacity:1;stroke-dasharray:none;stroke-linecap:round;stroke-miterlimit:4;stroke-opacity:1;stroke-width:2.50745;stroke:#c0c6c7" id="circle29460" cx="303.79074" cy="344.80295" r="13.700194"/><circle style="display:inline;fill-opacity:.0553506;fill:none;opacity:.798762;stroke-dasharray:none;stroke-linecap:round;stroke-miterlimit:4;stroke-opacity:1;stroke-width:2.50745;stroke:url(#radialGradient29048)" id="circle29462" cx="303.79074" cy="344.80295" r="13.700194"/></g><path id="path29466" style="fill-opacity:1;fill:none;stroke-dasharray:none;stroke-dashoffset:0;stroke-linecap:butt;stroke-linejoin:miter;stroke-miterlimit:4;stroke-opacity:1;stroke-width:5;stroke:#222;vector-effect:none" d="m285.664 416.26456c8.53693 7.90117 20.56234 13.91901 28.60065 21.1049M275.0467 418.03233c-3.85236 10.02249-3.76857 12.85835-6.94551 21.72362m112.02899-51.69374c-33.75989 15.61976-74.04693 43.23793-76.39645 75.60669m-76.85868-53.85669c18.50989 10.99476 42.54693 28.23793 63.14645 56.10669"/><g id="g29472" transform="matrix(0.49916414,0.02889949,-0.03412004,0.58933572,127.85159,109.21888)" style="stroke-width:1.84065"><circle style="display:inline;fill-opacity:.0553506;fill:none;opacity:1;stroke-dasharray:none;stroke-linecap:round;stroke-miterlimit:4;stroke-opacity:1;stroke-width:4.41755;stroke:#c0c6c7" id="circle29468" cx="303.79074" cy="344.80295" r="13.700194"/><circle style="display:inline;fill-opacity:.0553506;fill:none;opacity:.798762;stroke-dasharray:none;stroke-linecap:round;stroke-miterlimit:4;stroke-opacity:1;stroke-width:4.41755;stroke:url(#radialGradient29046)" id="circle29470" cx="303.79074" cy="344.80295" r="13.700194"/></g><g id="g29478" transform="matrix(0.5903226,0,0,0.5903226,95.553267,89.196955)" style="stroke-width:1.69399"><circle style="display:inline;fill-opacity:.0553506;fill:none;opacity:1;stroke-dasharray:none;stroke-linecap:round;stroke-miterlimit:4;stroke-opacity:1;stroke-width:4.06557;stroke:#c0c6c7" id="circle29474" cx="303.79074" cy="344.80295" r="13.700194"/><circle style="display:inline;fill-opacity:.0553506;fill:none;opacity:.798762;stroke-dasharray:none;stroke-linecap:round;stroke-miterlimit:4;stroke-opacity:1;stroke-width:4.06557;stroke:url(#radialGradient55632)" id="circle29476" cx="303.79074" cy="344.80295" r="13.700194"/></g><path id="path29480" style="fill-opacity:1;fill:none;stroke-dasharray:none;stroke-dashoffset:0;stroke-linecap:butt;stroke-linejoin:miter;stroke-miterlimit:4;stroke-opacity:1;stroke-width:6.654;stroke:#222;vector-effect:none" d="m263.87751 320.58798c-6.8839-.58028-12.18496-1.92253-21.51613-3.54586m29.59416 4.98596c18.42598 1.96622 44.76676-11.35207 62.32111-17.26005 7.79474-2.62335 16.98622-6.82945 24.83672-9.8874m-89.70493-2.03821c-5.6964.16972-14.19016-.81009-23.52133-2.43342m34.65634 1.72631c16.63309-1.08956 65.5346-10.78871 76.55016-17.19173m-83.33937 23.58948c-1.37342 5.5025-3.13612 12.08109-4.79864 17.50411m-1.64651 10.37717c-3.80678 16.4157-1.78671 48.95247 5.73674 70.93977m103.62293-15.57833c-14.63489 5.24476-61.20513 23.65043-88.13352 25.31729m-62.03519-4.28086c14.63489 5.24476 25.7614 5.88438 41.11092 5.25314"/><g id="g29650" transform="matrix(0.5903226,0,0,0.5903226,117.61577,129.32195)" style="stroke-width:1.69399"><g id="g29494" transform="rotate(-11.609914,311.61357,406.96401)"><g id="g29486" transform="matrix(0.8,0,0,0.8,53.439042,52.509831)" style="stroke-width:2.11749"><circle style="display:inline;fill-opacity:1;fill:#c0c6c7;opacity:1;stroke-dasharray:none;stroke-linecap:round;stroke-miterlimit:4;stroke-opacity:1;stroke-width:5.08197;stroke:none" id="circle29482" cx="294.3255" cy="335.33774" r="4.2349725"/><circle style="display:inline;fill-opacity:1;fill:url(#radialGradient29050);opacity:1;stroke-dasharray:none;stroke-linecap:round;stroke-miterlimit:4;stroke-opacity:1;stroke-width:5.08197;stroke:none" id="circle29484" cx="294.3255" cy="335.33774" r="4.2349725"/></g><g id="g29492" transform="matrix(0.8,0,0,0.8,63.100073,52.509831)" style="stroke-width:2.11749"><circle style="display:inline;fill-opacity:1;fill:#c0c6c7;opacity:1;stroke-dasharray:none;stroke-linecap:round;stroke-miterlimit:4;stroke-opacity:1;stroke-width:5.08197;stroke:none" id="circle29488" cx="294.3255" cy="335.33774" r="4.2349725"/><circle style="display:inline;fill-opacity:1;fill:url(#radialGradient29052);opacity:1;stroke-dasharray:none;stroke-linecap:round;stroke-miterlimit:4;stroke-opacity:1;stroke-width:5.08197;stroke:none" id="circle29490" cx="294.3255" cy="335.33774" r="4.2349725"/></g></g><g id="g29508" transform="rotate(9.6387727,256.68395,-37.432685)"><g id="g29500" transform="matrix(0.8,0,0,0.8,53.439042,52.509831)" style="stroke-width:2.11749"><circle style="display:inline;fill-opacity:1;fill:#c0c6c7;opacity:1;stroke-dasharray:none;stroke-linecap:round;stroke-miterlimit:4;stroke-opacity:1;stroke-width:5.08197;stroke:none" id="circle29496" cx="294.3255" cy="335.33774" r="4.2349725"/><circle style="display:inline;fill-opacity:1;fill:url(#radialGradient29058);opacity:1;stroke-dasharray:none;stroke-linecap:round;stroke-miterlimit:4;stroke-opacity:1;stroke-width:5.08197;stroke:none" id="circle29498" cx="294.3255" cy="335.33774" r="4.2349725"/></g><g id="g29506" transform="matrix(0.8,0,0,0.8,63.100073,52.509831)" style="stroke-width:2.11749"><circle style="display:inline;fill-opacity:1;fill:#c0c6c7;opacity:1;stroke-dasharray:none;stroke-linecap:round;stroke-miterlimit:4;stroke-opacity:1;stroke-width:5.08197;stroke:none" id="circle29502" cx="294.3255" cy="335.33774" r="4.2349725"/><circle style="display:inline;fill-opacity:1;fill:url(#radialGradient29060);opacity:1;stroke-dasharray:none;stroke-linecap:round;stroke-miterlimit:4;stroke-opacity:1;stroke-width:5.08197;stroke:none" id="circle29504" cx="294.3255" cy="335.33774" r="4.2349725"/></g></g><g id="g29522" transform="rotate(106.9431,283.88194,299.53395)" style="display:inline;opacity:1;stroke-width:1.69399"><g id="g29514" transform="matrix(0.8,0,0,0.8,53.439042,52.509831)" style="stroke-width:2.11749"><circle style="display:inline;fill-opacity:1;fill:#c0c6c7;opacity:1;stroke-dasharray:none;stroke-linecap:round;stroke-miterlimit:4;stroke-opacity:1;stroke-width:5.08197;stroke:none" id="circle29510" cx="294.3255" cy="335.33774" r="4.2349725"/><circle style="display:inline;fill-opacity:1;fill:url(#radialGradient29054);opacity:1;stroke-dasharray:none;stroke-linecap:round;stroke-miterlimit:4;stroke-opacity:1;stroke-width:5.08197;stroke:none" id="circle29512" cx="294.3255" cy="335.33774" r="4.2349725"/></g><g id="g29520" transform="matrix(0.8,0,0,0.8,63.100073,52.509831)" style="stroke-width:2.11749"><circle style="display:inline;fill-opacity:1;fill:#c0c6c7;opacity:1;stroke-dasharray:none;stroke-linecap:round;stroke-miterlimit:4;stroke-opacity:1;stroke-width:5.08197;stroke:none" id="circle29516" cx="294.3255" cy="335.33774" r="4.2349725"/><circle style="display:inline;fill-opacity:1;fill:url(#radialGradient29056);opacity:1;stroke-dasharray:none;stroke-linecap:round;stroke-miterlimit:4;stroke-opacity:1;stroke-width:5.08197;stroke:none" id="circle29518" cx="294.3255" cy="335.33774" r="4.2349725"/></g></g><g id="g29536" transform="rotate(-84.339326,288.43739,358.94716)" style="display:inline;opacity:1;stroke-width:1.69399"><g id="g29528" transform="matrix(0.8,0,0,0.8,53.439042,52.509831)" style="stroke-width:2.11749"><circle style="display:inline;fill-opacity:1;fill:#c0c6c7;opacity:1;stroke-dasharray:none;stroke-linecap:round;stroke-miterlimit:4;stroke-opacity:1;stroke-width:5.08197;stroke:none" id="circle29524" cx="294.3255" cy="335.33774" r="4.2349725"/><circle style="display:inline;fill-opacity:1;fill:url(#radialGradient29082);opacity:1;stroke-dasharray:none;stroke-linecap:round;stroke-miterlimit:4;stroke-opacity:1;stroke-width:5.08197;stroke:none" id="circle29526" cx="294.3255" cy="335.33774" r="4.2349725"/></g><g id="g29534" transform="matrix(0.8,0,0,0.8,63.100073,52.509831)" style="stroke-width:2.11749"><circle style="display:inline;fill-opacity:1;fill:#c0c6c7;opacity:1;stroke-dasharray:none;stroke-linecap:round;stroke-miterlimit:4;stroke-opacity:1;stroke-width:5.08197;stroke:none" id="circle29530" cx="294.3255" cy="335.33774" r="4.2349725"/><circle style="display:inline;fill-opacity:1;fill:url(#radialGradient29084);opacity:1;stroke-dasharray:none;stroke-linecap:round;stroke-miterlimit:4;stroke-opacity:1;stroke-width:5.08197;stroke:none" id="circle29532" cx="294.3255" cy="335.33774" r="4.2349725"/></g></g><g id="g29550" transform="rotate(7.176278,622.98718,-119.83393)" style="display:inline;opacity:1;stroke-width:1.69399"><g id="g29542" transform="matrix(0.8,0,0,0.8,53.439042,52.509831)" style="stroke-width:2.11749"><circle style="display:inline;fill-opacity:1;fill:#c0c6c7;opacity:1;stroke-dasharray:none;stroke-linecap:round;stroke-miterlimit:4;stroke-opacity:1;stroke-width:5.08197;stroke:none" id="circle29538" cx="294.3255" cy="335.33774" r="4.2349725"/><circle style="display:inline;fill-opacity:1;fill:url(#radialGradient55811-8-36);opacity:1;stroke-dasharray:none;stroke-linecap:round;stroke-miterlimit:4;stroke-opacity:1;stroke-width:5.08197;stroke:none" id="circle29540" cx="294.3255" cy="335.33774" r="4.2349725"/></g><g id="g29548" transform="matrix(0.8,0,0,0.8,63.100073,52.509831)" style="stroke-width:2.11749"><circle style="display:inline;fill-opacity:1;fill:#c0c6c7;opacity:1;stroke-dasharray:none;stroke-linecap:round;stroke-miterlimit:4;stroke-opacity:1;stroke-width:5.08197;stroke:none" id="circle29544" cx="294.3255" cy="335.33774" r="4.2349725"/><circle style="display:inline;fill-opacity:1;fill:url(#radialGradient55813-1-8);opacity:1;stroke-dasharray:none;stroke-linecap:round;stroke-miterlimit:4;stroke-opacity:1;stroke-width:5.08197;stroke:none" id="circle29546" cx="294.3255" cy="335.33774" r="4.2349725"/></g></g><g id="g29564" transform="rotate(172.25344,294.75587,297.31155)" style="display:inline;opacity:1;stroke-width:1.69399"><g id="g29556" transform="matrix(0.8,0,0,0.8,53.439042,52.509831)" style="stroke-width:2.11749"><circle style="display:inline;fill-opacity:1;fill:#c0c6c7;opacity:1;stroke-dasharray:none;stroke-linecap:round;stroke-miterlimit:4;stroke-opacity:1;stroke-width:5.08197;stroke:none" id="circle29552" cx="294.3255" cy="335.33774" r="4.2349725"/><circle style="display:inline;fill-opacity:1;fill:url(#radialGradient55811-8-9);opacity:1;stroke-dasharray:none;stroke-linecap:round;stroke-miterlimit:4;stroke-opacity:1;stroke-width:5.08197;stroke:none" id="circle29554" cx="294.3255" cy="335.33774" r="4.2349725"/></g><g id="g29562" transform="matrix(0.8,0,0,0.8,63.100073,52.509831)" style="stroke-width:2.11749"><circle style="display:inline;fill-opacity:1;fill:#c0c6c7;opacity:1;stroke-dasharray:none;stroke-linecap:round;stroke-miterlimit:4;stroke-opacity:1;stroke-width:5.08197;stroke:none" id="circle29558" cx="294.3255" cy="335.33774" r="4.2349725"/><circle style="display:inline;fill-opacity:1;fill:url(#radialGradient55813-1-7);opacity:1;stroke-dasharray:none;stroke-linecap:round;stroke-miterlimit:4;stroke-opacity:1;stroke-width:5.08197;stroke:none" id="circle29560" cx="294.3255" cy="335.33774" r="4.2349725"/></g></g><g id="g29578" transform="rotate(74.08997,198.21951,356.4873)" style="display:inline;opacity:1;stroke-width:1.69399"><g id="g29570" transform="matrix(0.8,0,0,0.8,53.439042,52.509831)" style="stroke-width:2.11749"><circle style="display:inline;fill-opacity:1;fill:#c0c6c7;opacity:1;stroke-dasharray:none;stroke-linecap:round;stroke-miterlimit:4;stroke-opacity:1;stroke-width:5.08197;stroke:none" id="circle29566" cx="294.3255" cy="335.33774" r="4.2349725"/><circle style="display:inline;fill-opacity:1;fill:url(#radialGradient29062);opacity:1;stroke-dasharray:none;stroke-linecap:round;stroke-miterlimit:4;stroke-opacity:1;stroke-width:5.08197;stroke:none" id="circle29568" cx="294.3255" cy="335.33774" r="4.2349725"/></g><g id="g29576" transform="matrix(0.8,0,0,0.8,63.100073,52.509831)" style="stroke-width:2.11749"><circle style="display:inline;fill-opacity:1;fill:#c0c6c7;opacity:1;stroke-dasharray:none;stroke-linecap:round;stroke-miterlimit:4;stroke-opacity:1;stroke-width:5.08197;stroke:none" id="circle29572" cx="294.3255" cy="335.33774" r="4.2349725"/><circle style="display:inline;fill-opacity:1;fill:url(#radialGradient29064);opacity:1;stroke-dasharray:none;stroke-linecap:round;stroke-miterlimit:4;stroke-opacity:1;stroke-width:5.08197;stroke:none" id="circle29574" cx="294.3255" cy="335.33774" r="4.2349725"/></g></g><g id="g29592" transform="rotate(1.6583663,-4968.4123,-1496.0957)" style="display:inline;opacity:1;stroke-width:1.69399"><g id="g29584" transform="matrix(0.8,0,0,0.8,53.439042,52.509831)" style="stroke-width:2.11749"><circle style="display:inline;fill-opacity:1;fill:#c0c6c7;opacity:1;stroke-dasharray:none;stroke-linecap:round;stroke-miterlimit:4;stroke-opacity:1;stroke-width:5.08197;stroke:none" id="circle29580" cx="294.3255" cy="335.33774" r="4.2349725"/><circle style="display:inline;fill-opacity:1;fill:url(#radialGradient29066);opacity:1;stroke-dasharray:none;stroke-linecap:round;stroke-miterlimit:4;stroke-opacity:1;stroke-width:5.08197;stroke:none" id="circle29582" cx="294.3255" cy="335.33774" r="4.2349725"/></g><g id="g29590" transform="matrix(0.8,0,0,0.8,63.100073,52.509831)" style="stroke-width:2.11749"><circle style="display:inline;fill-opacity:1;fill:#c0c6c7;opacity:1;stroke-dasharray:none;stroke-linecap:round;stroke-miterlimit:4;stroke-opacity:1;stroke-width:5.08197;stroke:none" id="circle29586" cx="294.3255" cy="335.33774" r="4.2349725"/><circle style="display:inline;fill-opacity:1;fill:url(#radialGradient29068);opacity:1;stroke-dasharray:none;stroke-linecap:round;stroke-miterlimit:4;stroke-opacity:1;stroke-width:5.08197;stroke:none" id="circle29588" cx="294.3255" cy="335.33774" r="4.2349725"/></g></g><g id="g29606" transform="rotate(169.58683,292.14238,395.19867)" style="display:inline;opacity:1;stroke-width:1.69399"><g id="g29598" transform="matrix(0.8,0,0,0.8,53.439042,52.509831)" style="stroke-width:2.11749"><circle style="display:inline;fill-opacity:1;fill:#c0c6c7;opacity:1;stroke-dasharray:none;stroke-linecap:round;stroke-miterlimit:4;stroke-opacity:1;stroke-width:5.08197;stroke:none" id="circle29594" cx="294.3255" cy="335.33774" r="4.2349725"/><circle style="display:inline;fill-opacity:1;fill:url(#radialGradient29070);opacity:1;stroke-dasharray:none;stroke-linecap:round;stroke-miterlimit:4;stroke-opacity:1;stroke-width:5.08197;stroke:none" id="circle29596" cx="294.3255" cy="335.33774" r="4.2349725"/></g><g id="g29604" transform="matrix(0.8,0,0,0.8,63.100073,52.509831)" style="stroke-width:2.11749"><circle style="display:inline;fill-opacity:1;fill:#c0c6c7;opacity:1;stroke-dasharray:none;stroke-linecap:round;stroke-miterlimit:4;stroke-opacity:1;stroke-width:5.08197;stroke:none" id="circle29600" cx="294.3255" cy="335.33774" r="4.2349725"/><circle style="display:inline;fill-opacity:1;fill:url(#radialGradient29072);opacity:1;stroke-dasharray:none;stroke-linecap:round;stroke-miterlimit:4;stroke-opacity:1;stroke-width:5.08197;stroke:none" id="circle29602" cx="294.3255" cy="335.33774" r="4.2349725"/></g></g><g id="g29620" transform="rotate(-143.36669,323.14489,407.5156)" style="display:inline;opacity:1;stroke-width:1.69399"><g id="g29612" transform="matrix(0.8,0,0,0.8,53.439042,52.509831)" style="stroke-width:2.11749"><circle style="display:inline;fill-opacity:1;fill:#c0c6c7;opacity:1;stroke-dasharray:none;stroke-linecap:round;stroke-miterlimit:4;stroke-opacity:1;stroke-width:5.08197;stroke:none" id="circle29608" cx="294.3255" cy="335.33774" r="4.2349725"/><circle style="display:inline;fill-opacity:1;fill:url(#radialGradient29074);opacity:1;stroke-dasharray:none;stroke-linecap:round;stroke-miterlimit:4;stroke-opacity:1;stroke-width:5.08197;stroke:none" id="circle29610" cx="294.3255" cy="335.33774" r="4.2349725"/></g><g id="g29618" transform="matrix(0.8,0,0,0.8,63.100073,52.509831)" style="stroke-width:2.11749"><circle style="display:inline;fill-opacity:1;fill:#c0c6c7;opacity:1;stroke-dasharray:none;stroke-linecap:round;stroke-miterlimit:4;stroke-opacity:1;stroke-width:5.08197;stroke:none" id="circle29614" cx="294.3255" cy="335.33774" r="4.2349725"/><circle style="display:inline;fill-opacity:1;fill:url(#radialGradient29076);opacity:1;stroke-dasharray:none;stroke-linecap:round;stroke-miterlimit:4;stroke-opacity:1;stroke-width:5.08197;stroke:none" id="circle29616" cx="294.3255" cy="335.33774" r="4.2349725"/></g></g><g id="g29634" transform="rotate(-75.090362,396.37597,432.73298)" style="display:inline;opacity:1;stroke-width:1.69399"><g id="g29626" transform="matrix(0.8,0,0,0.8,53.439042,52.509831)" style="stroke-width:2.11749"><circle style="display:inline;fill-opacity:1;fill:#c0c6c7;opacity:1;stroke-dasharray:none;stroke-linecap:round;stroke-miterlimit:4;stroke-opacity:1;stroke-width:5.08197;stroke:none" id="circle29622" cx="294.3255" cy="335.33774" r="4.2349725"/><circle style="display:inline;fill-opacity:1;fill:url(#radialGradient29078);opacity:1;stroke-dasharray:none;stroke-linecap:round;stroke-miterlimit:4;stroke-opacity:1;stroke-width:5.08197;stroke:none" id="circle29624" cx="294.3255" cy="335.33774" r="4.2349725"/></g><g id="g29632" transform="matrix(0.8,0,0,0.8,63.100073,52.509831)" style="stroke-width:2.11749"><circle style="display:inline;fill-opacity:1;fill:#c0c6c7;opacity:1;stroke-dasharray:none;stroke-linecap:round;stroke-miterlimit:4;stroke-opacity:1;stroke-width:5.08197;stroke:none" id="circle29628" cx="294.3255" cy="335.33774" r="4.2349725"/><circle style="display:inline;fill-opacity:1;fill:url(#radialGradient29080);opacity:1;stroke-dasharray:none;stroke-linecap:round;stroke-miterlimit:4;stroke-opacity:1;stroke-width:5.08197;stroke:none" id="circle29630" cx="294.3255" cy="335.33774" r="4.2349725"/></g></g><g id="g29648" transform="rotate(87.913161,169.84166,399.85247)" style="display:inline;opacity:1;stroke-width:1.69399"><g id="g29640" transform="matrix(0.8,0,0,0.8,60.774307,-26.681318)" style="stroke-width:2.11749"><circle style="display:inline;fill-opacity:1;fill:#c0c6c7;opacity:1;stroke-dasharray:none;stroke-linecap:round;stroke-miterlimit:4;stroke-opacity:1;stroke-width:5.08197;stroke:none" id="circle29636" cx="294.3255" cy="335.33774" r="4.2349725"/><circle style="display:inline;fill-opacity:1;fill:url(#radialGradient55811-8-9-5);opacity:1;stroke-dasharray:none;stroke-linecap:round;stroke-miterlimit:4;stroke-opacity:1;stroke-width:5.08197;stroke:none" id="circle29638" cx="294.3255" cy="335.33774" r="4.2349725"/></g><g id="g29646" transform="matrix(0.8,0,0,0.8,63.100073,52.509831)" style="stroke-width:2.11749"><circle style="display:inline;fill-opacity:1;fill:#c0c6c7;opacity:1;stroke-dasharray:none;stroke-linecap:round;stroke-miterlimit:4;stroke-opacity:1;stroke-width:5.08197;stroke:none" id="circle29642" cx="294.3255" cy="335.33774" r="4.2349725"/><circle style="display:inline;fill-opacity:1;fill:url(#radialGradient55813-1-7-91);opacity:1;stroke-dasharray:none;stroke-linecap:round;stroke-miterlimit:4;stroke-opacity:1;stroke-width:5.08197;stroke:none" id="circle29644" cx="294.3255" cy="335.33774" r="4.2349725"/></g></g></g></g></svg>