<svg viewBox="0 0 560 1e3"><path style="display:inline;fill-opacity:1;fill:none;opacity:1;stroke-dasharray:none;stroke-dashoffset:0;stroke-linecap:butt;stroke-linejoin:miter;stroke-miterlimit:4;stroke-opacity:1;stroke-width:.453543;stroke:#ff9300;vector-effect:none" d="m274.51679 284.27514c.0499 16.93263-28.51436 32.00343-28.84742 91.33763-.53936 38.88812 11.50181 51.08485 22.95674 57.31762" id="path7032-3-4-0-1-3"/><path id="path1353" class="shadow" d="m274.8 433.8c21.7045.8035 49.46622-12.07771 61.9-42.4 13.35711-25.50652-13.60539-70.14322-27.1735-84.40895C307.9828 305.36798 290.7 289.7 290.7 289.7l-38.01351-.0884c-3.72119 10.50526.65099 5.14821-10.23287 13.02156C225.22398 315.09704 205.23454 348.37128 208.9 386.5c2.04357 37.62359 45.18214 47.07566 65.9 47.3z"/><path id="XMLID_544_" d="m225.32362 323.09054c-9.7588 14.5661-18.0041 34.73504-16.42362 63.40946 1.8 34.8 45.1 47.2 65.9 47.3s49.4-13 61.9-42.4c8.13449-19.13232-2.15273-48.68244-17.909-72.03236-50.10077 20.10102-91.83376 21.17543-93.46738 3.7229zm93.46738-3.7229C310.33514 306.83651 300.30412 296.09111 290.7 289.7c-8.08424-10.14091-38.38826-4.40804-38.01351-.0884-1.42593 6.36184-15.51064 15.78815-27.36287 33.47894-12.55487 27.69028 83.64205 25.89039 93.46738-3.7229z" class="skin belly"/><path id="path1329" class="shadow belly_details" d="m247.11813 400.93648c.6843-3.19765.13727-8.57118-.57274-9.24552l-.0242.001c-1.11133 4.1119-.35187 6.27483.59697 9.24433z"/><path d="m246.54539 391.69096c-2.73244-11.59717 3.64449-55.02388 3.64449-55.02388l.001.003c-3.20829 21.99827-7.36761 44.34013-3.67011 55.02232z" class="muscle_tone belly_details" id="path1463"/></svg>