<svg viewBox="0 0 560 1e3"><path d="m303.54186 162.50995c0 .62226-.69775 1.32-1.32 1.32-.62226.0-1.32-.69774-1.32-1.32.0-.62225.69774-1.32 1.32-1.32.62225.0 1.32.69775 1.32 1.32z" id="path5068" class="shadow"/><path d="m296.00675 163.27327c0 .62226-.69775 1.32-1.32 1.32-.62226.0-1.32-.69774-1.32-1.32.0-.62225.69774-1.32 1.32-1.32.62225.0 1.32.69775 1.32 1.32z" id="path5070" class="shadow"/><path class="steel_piercing" id="path3201" d="m303.42186 162.50995c0 .56569-.63432 1.2-1.2 1.2-.56569.0-1.2-.63431-1.2-1.2.0-.56568.63431-1.2 1.2-1.2.56568.0 1.2.63432 1.2 1.2z"/><path class="steel_piercing" id="path3203" d="m295.88675 163.27327c0 .56569-.63432 1.2-1.2 1.2-.56569.0-1.2-.63431-1.2-1.2.0-.56568.63431-1.2 1.2-1.2.56568.0 1.2.63432 1.2 1.2z"/></svg>