<svg viewBox="0 0 560 1e3"><defs><filter style="color-interpolation-filters:sRGB" id="filter13803"><feGaussianBlur stdDeviation="1 1" result="blur" id="feGaussianBlur13801"/></filter><clipPath clipPathUnits="userSpaceOnUse" id="clipPath13807"><path style="fill-opacity:.43585241;fill:#00e0e8" id="path13809" d="m272.075 469.5c-.2 2.1.7 4.7 2.6 6.1 2.1 1.5 3.6.2 8.1 1.3 3.5.9 3.4 2 6.1 2.4.6.1 5.8.8 8.9-2.4 2.3-2.4 2.2-5.6 2.1-10.5-.1-3.6-.8-6-1.3-7.4-.9-2.5-1.75355-4.91647-3.15355-5.81647-3.1-2-7.7.2-10 1.3-2.6 1.2-3.64645 3.61647-6.54645 6.21647-4.4 4-6.6 6.1-6.8 8.8z"/></clipPath></defs><path d="m272.075 472.6c1.2 3.4 2.8 3.9 3.9 4.3 2.5.7 3.8-.3 7.9 1.1 1.9.5 3.1 2.1 6.3 2.1.6.0 5 .8 8.5-2.7 2.2-2.2 2.1-5.3 2-9.9-.1-3.4-.8-5.7-1.2-7-.9-2.3-1.3-3.6-2.7-4.5-2.9-1.9-7.3.2-9.5 1.2-2.4 1.2-4.7-.7-7.5 1.8-4 3.8-9.1 9.6-7.7 13.6z" class="shadow" id="XMLID_874_"/><path d="m272.075 469.5c-.2 2.1.7 4.7 2.6 6.1 2.1 1.5 3.6.2 8.1 1.3 3.5.9 3.4 2 6.1 2.4.6.1 5.8.8 8.9-2.4 2.3-2.4 2.2-5.6 2.1-10.5-.1-3.6-.8-6-1.3-7.4-.9-2.5-1.75355-4.91647-3.15355-5.81647-3.1-2-7.7.2-10 1.3-2.6 1.2-3.64645 3.61647-6.54645 6.21647-4.4 4-6.6 6.1-6.8 8.8z" class="skin scrotum" id="XMLID_875_"/><g id="g13799" style="filter:url(#filter13803)" clip-path="url(#clipPath13807)"><path class="skin_shade" d="m274.18035 463.34863c-26.53284 13.12121 35.96074 45.70358 26.28716 2.57756-.31996-.10253-1.8384 9.83035-8.37984 10.86871-3.00397.47684-5.29216-1.47788-8.40129-2.45393-3.47217-1.09001-5.05898 2.39444-8.48649-.66451-2.86628-1.99431.89901-13.08566-1.01954-10.32783z" id="path7048-5-1-3-89-2-79"/></g></svg>