<svg viewBox="0 0 560 1e3"><defs><clipPath clipPathUnits="userSpaceOnUse" id="clipPath32869"><path id="path32871" d="m271.81211 200.85641c-8.5404 3.18388-14.15337 10.00511-21.38663 17.03796-6.94234 1.69252-13.01221 4.2212-18.32033 7.08936-13.44864 7.26674-14.44038 13.26783-15.68226 22.47077-.20114 7.53068 1.23106 15.00225 5.83502 22.81048 7.10286 10.34671 17.20516 12.90467 28.08267 10.25825 12.83638-3.12299 22.09912-10.46966 26.35734-25.86532 3.97955-9.66844 13.77106-18.80413 15.07619-25.54125 1.52764-6.86863 7.69038-22.29591.77767-29.11065-4.92727-4.85745-14.25651-1.56653-20.73967.8504z" style="fill-opacity:.40421795;fill:#00e0e8"/></clipPath><clipPath clipPathUnits="userSpaceOnUse" id="clipPath32888"><path style="fill-opacity:.42003515;fill:#00e0e8" id="path32890" d="m350.56815 258.84896c8.43873-14.64541 5.46678-27.45839-.0846-39.33804-3.8404-31.8911-36.03389-34.23256-53.68015-11.35065-20.1627 14.07546-24.21649 26.58785-22.14244 43.52205 6.85159 32.18701 60.05218 36.77212 75.90712 7.16664z"/></clipPath><filter style="color-interpolation-filters:sRGB" id="filter39915"><feGaussianBlur stdDeviation="4 4" result="blur" id="feGaussianBlur39913"/></filter><filter style="color-interpolation-filters:sRGB" id="filter39919"><feGaussianBlur stdDeviation="4 4" result="blur" id="feGaussianBlur39917"/></filter></defs><g data-transform="boob_right" id="g231318"><path d="m271.81211 200.85641c-8.59502 4.00863-14.9516 9.73903-21.38663 17.03796-3.37904.60019-5.98411 1.43032-8.80796 2.56345-4.92811 1.97752-10.2257 4.51186-14.31092 7.1837-6.38614 4.1767-10.34067 9.60919-11.26483 20.56654-.30551 7.28659 1.25381 14.1708 6.05989 22.02567 5.82877 9.52632 16.41202 14.06322 28.76925 10.90822 13.24239-3.381 22.43059-10.51335 25.82701-26.48404.63376-10.6477 12.35658-19.45697 13.66171-26.19408 1.52764-6.86864 9.27328-19.29216.28804-27.09775-6.50986-5.6552-10.89696-2.5531-18.83556-.50967z" class="shadow" id="path231314"/><path id="path231316" class="skin boob" d="m271.81211 200.85641c-8.5404 3.18388-14.15337 10.00511-21.38663 17.03796-6.94234 1.69252-13.01221 4.2212-18.32033 7.08936-13.44864 7.26674-14.44038 13.26783-15.68226 22.47077-.20114 7.53068 1.23106 15.00225 5.83502 22.81048 7.10286 10.34671 17.20516 12.90467 28.08267 10.25825 12.83638-3.12299 22.09912-10.46966 26.35734-25.86532 3.97955-9.66844 13.77106-18.80413 15.07619-25.54125 1.52764-6.86863 7.69038-22.29591.77767-29.11065-4.92727-4.85745-14.25651-1.56653-20.73967.8504z"/><g id="g26521" style="filter:url(#filter39915)" clip-path="url(#clipPath32869)"><path id="path26499" class="boob_shade" d="m216.42289 247.4545c-5.48376 17.64371-3.83004 45.53254 33.8293 44.73599 33.2011-7.45618 28.44483-23.94616 29.22035-42.93149-23.41641 8.92926-44.75275 9.84567-63.04965-1.8045z"/><path d="m217.93174 260.26252c-9.52958 14.41894 15.3736 36.30736 32.85078 33.2538 24.87839-9.10978 27.45111-21.87324 23.18506-31.40422-27.40049 12.95087-47.68675 2.89829-56.03584-1.84958z" class="boob_shade" id="path26506"/><path id="path26510" class="boob_shade" d="m221.24265 268.45305c.3198.60207.65798 1.20599 1.01526 1.81193-7.48122 10.87704 17.55871 22.18544 28.43622 19.53903 7.51146-1.82748 22.90322-10.40455 18.22302-19.86858-16.09584 6.4117-35.79408 4.989-47.6745-1.48238z"/><path id="path26512" class="boob_highlight" d="m250.42548 217.89437c-6.94234 1.69252-13.01221 4.22121-18.32033 7.08936-5.92922 3.20375-9.43715 6.1615-11.6127 9.25608 2.62003 7.05811 49.78182 11.89917 53.36729.83032s-1.43736-13.12425-3.83556-14.65203c-7.3541-4.68493-16.80254-3.93481-19.5987-2.52373z"/><path d="m241.83789 220.3351c-3.98247 1.08322-7.46445 2.70158-10.50945 4.53719-3.4013 2.0504-5.41362 3.94336-6.66162 5.92389 1.50298 4.51719 28.55731 7.61547 30.61412.53141 2.05681-7.08407-.82454-8.39952-2.20027-9.37731-4.21867-2.99835-9.63877-2.51827-11.24278-1.61518z" class="boob_highlight" id="path26514"/></g></g><g data-transform="boob_left" id="g231324"><path id="path231320" class="shadow" d="m350.56815 258.84896c13.33067-21.05548.25717-38.08506-5.62997-47.61193-14.10364-11.11521-18.87522-10.20341-35.03339-10.60502-32.3346 17.03058-39.04375 30.27479-35.24376 51.05031 6.63081 32.91581 59.69986 38.01188 75.90712 7.16664z"/><path d="m350.56815 258.84896c8.43873-14.64541 5.46678-27.45839-.0846-39.33804-4.61746-9.88117-14.61843-17.87508-25.0543-21.04542-5.06592-1.53899-7.84206-1.72916-15.78969 1.72457-31.29855 17.58844-37.43449 31.44045-34.9786 51.49225 6.85159 32.18701 60.05218 36.77212 75.90712 7.16664z" class="skin boob" id="path231322"/><g id="g26457" style="filter:url(#filter39919)" clip-path="url(#clipPath32888)"><path d="m344.35315 212.83279c-18.56314-19.57538-45.30515-7.48704-63.85655 10.6648-13.51398 19.48687 10.67485 16.88827 36.7344 11.08263 17.22755-5.18956 42.03856-5.84906 27.12215-21.74743z" class="boob_highlight" id="path26448"/><path d="m353.55021 227.10378c-9.97916 24.89342-78.84407 28.04188-78.88925 24.57854.23583 1.10788.52657 2.18305.86881 3.22526-.29211 61.95997 114.11383 26.62174 78.02044-27.8038z" class="boob_shade" id="path26442"/><path id="path26444" class="boob_shade" d="m355.68871 243.38084c-14.9854 22.4525-72.32469 25.79301-75.91043 19.83148-10.13734 26.67396 83.1963 36.48922 75.91043-19.83148z"/><path d="m352.68788 254.68763c-20.27188 17.80442-56.03229 18.7967-65.12711 16.1273 4.27615 22.05113 67.44438 10.1294 65.12711-16.1273z" class="boob_shade" id="path26446"/><path id="path26450" class="boob_highlight" d="m328.94562 216.3675c-9.60408-10.33092-23.93824-6.12683-32.69455 5.46037-6.91915 9.97728 5.46552 8.6468 18.80802 5.67431 8.8205-2.65705 21.52374-2.99472 13.88653-11.13468z"/></g></g></svg>