<svg viewBox="0 0 560 1e3"><defs><filter style="color-interpolation-filters:sRGB" id="filter78301"><feGaussianBlur stdDeviation="2 2" result="blur" id="feGaussianBlur78299"/></filter><filter style="color-interpolation-filters:sRGB" id="filter78415"><feGaussianBlur stdDeviation="2 2" result="blur" id="feGaussianBlur78413"/></filter><clipPath clipPathUnits="userSpaceOnUse" id="clipPath36862"><path id="path36864" d="m363.68887 385.89482c-.14157.002-.27312.0289-.39551.0802-1.09219.4583-2.0755.88889-2.90264 1.28577.86908 4.59201 3.24737 11.33045 6.70574 19.73516 3.41861 8.3081 7.78998 17.99218 12.10267 28.03115 8.7729 20.4213 16.67311 41.2531 18.59188 56.3189 2.45652-1.53151 8.34852-3.75403 13.94564-6.27353 5.6162-2.52809 10.86914-5.32706 12.32055-8.05037-.58363 1.09508-3.9563-4.09101-8.84856-12.43398-4.89705-8.35112-11.36043-19.87898-18.29587-31.52976-6.971-11.71052-14.28827-23.37023-20.36308-32.31855-6.03196-8.88518-10.66257-14.8764-12.86082-14.84505v2e-5zM341.7572 395.9414c-.47957-.0211-.97704.013-1.49674.10975 1.40433 4.81473 7.68826 29.13346 11.58416 45.56583 4.89482 20.64561 9.46798 43.03037 11.3662 65.22534 11.75444-2.95931 22.9535-7.70038 34.83065-10.22815-2.59559.55241-10.49907 2.2907-18.83112-1.78484-8.21204-4.01684-17.25616-14.02544-21.92527-36.63622-.58961-3.28781-1.20135-18.62876-3.1492-33.28041-1.94484-14.62909-5.10429-28.6513-12.37868-28.9713zm-17.86019 6.42757c-3.54391 1.02981-10.5722 3.04433-10.5722 3.04433.0587 2.83313-.0179 9.58037.57974 20.25657.62003 11.07729 1.71245 22.14081 3.2608 35.70737 1.65159 14.47109 2.81205 23.62236 3.93777 35.413.97993 10.26357 1.36533 17.18562 1.44888 19.49203 5.79517-1.7303 12.2952-4.01552 20.34941-6.62349 1.74262-.56426 2.83782-.72575 3.79076-.74486-.14409.003-.28547.001-.4381.0118-3.52721.41969-6.1176-4.98848-8.38431-13.57525-2.19743-8.3243-4.30094-20.61178-6.04004-32.68574-1.89783-13.17595-3.14262-24.42977-4.37438-36.20026-1.1298-10.79614-2.02211-19.99298-3.55833-24.09557v2e-5zm-95.18265 6.18607c-.59291 3.37941-1.32183 3.06007-2.25251 4.70567-3.10245 5.4856-5.87649 20.0928-10.07512 37.30763-4.87221 19.97662-9.0303 32.76086-13.86263 48.73829 6.56678 2.87735 20.7024 8.59754 20.7024 8.59754 4.15675-21.73108 5.86256-31.36195 8.83819-49.56903 2.26403-13.85298 4.91775-30.92843 8.27198-45.75148-2.53303-1.14232-8.49792-3.21787-11.62231-4.02862zm69.71224 1.01527c-4.56856 1.0397-13.52499 3.08331-13.52499 3.08331-.32232 4.42307-.50616 11.51414-.13517 20.84642.3807 9.57668 1.24228 19.45366 2.4362 30.73631 1.14709 10.84008 2.43977 21.76303 3.37283 31.22654 1.01421 10.28653 1.4359 16.64341 1.81997 22.40605-4.94904.23604-14.86683.67774-14.86683.67774.23504.61521.66843 1.81492.66843 1.81492 3.66176.95365 21.92502-.85236 31.02138-3.30722-.75418.19953-1.47694.36147-2.16832.48876-2.36459-13.23407-4.69303-35.30905-6.10437-52.9559-1.77083-22.14166-2.0957-35.92354-2.51913-55.01693zm-20.89799 108.97637c-4.1293-.0371-8.89503.10178-13.24381.18107 5.6654-.007 9.0795-.21856 13.24381-.18107zm-29.2467-104.76941c-.13851-.0423-1.0814 5.52951-2.05277 14.05531-1.0804 9.48279-1.835 19.02279-2.80915 31.7938-.98249 12.88043-1.76945 22.95205-2.94498 34.0989-1.06881 10.13489-2.15264 17.98965-2.7194 21.27526-.2485-.0508-.528-.11932-.79242-.17885 10.36273 2.7557 22.23174 5.64592 26.31303 7.4827.10462-1.17946.26341-3.56107.26341-3.56107-4.27696-.0159-7.42139-.1101-10.20585-.35045 1.16254-16.99766.31787-32.90625.25104-53.88707-.0623-19.54129.87659-37.0388 5.19046-49.86591-.33223.0493-2.86417-.11881-5.32662-.32313-2.47417-.2053-4.85846-.44525-5.16675-.53949zm158.20818 11.83266c4.5446 8.06659 8.23929 16.5025 16.26771 44.37201 2.95251-2.60808 4.3211-4.0495 4.89026-4.44263-.2233-.45334-3.12777-6.21766-6.80577-13.31306-3.9311-7.58365-8.8042-16.80267-14.3522-26.61632zm-44.10276 81.43924c-.38061.0928-.76102.18445-1.143.27321.38172-.0887.76264-.18046 1.143-.27321zm-2.69567.61864c-.38109.0822-.76206.16636-1.14472.24394.38289-.0776.7634-.16168 1.14472-.24394zm-3.0129.59724c-.28122.0507-.56062.10627-.84282.15419.28228-.0479.56152-.10346.84282-.15419zm-9.7312.64097c-.0253-14e-5-.0532.002-.0786.002.29548-6e-4.58041.0104.86759.0288-.25996-.0165-.52325-.0293-.78901-.0307l-2e-5-1e-4zm1.12175.054c.22959.0168.46007.0319.70874.0483-.24864-.0165-.47903-.0315-.70874-.0483zm3.3387.0453c-.11531.008-.22645.014-.33573.0196.11-.006.2196-.0119.33573-.0196zm-2.27187.0186c.36669.0195.78027.0246 1.23283.0189-.44991.005-.8679 39e-5-1.23283-.0189zm-125.74257 1.79211c1.59079.58612 3.70823 1.23755 6.01495 1.91105-2.13987-.66003-4.22443-1.33055-6.01495-1.91105zm96.33797 5.4453c-3.09602.0581-6.75255.3388-8.61743.57894.26948.64452.54366 1.24893.9133 2.02499 3.34497-.57938 6.78502-1.46617 10.51294-2.57893-.81825-.0392-1.78116-.0443-2.80881-.025v1e-5z" style="display:inline;fill-opacity:.5;fill:#80aab6"/></clipPath><clipPath clipPathUnits="userSpaceOnUse" id="clipPath36866"><path id="path36868" d="m368.77057 366.2305c-5.77506 3.00711-11.83222 6.06414-18.052 8.92929-4.01857 1.85118-8.11245 3.65383-12.27412 5.3919-4.16007 1.73741-8.37976 3.4067-12.63836 4.98833-4.25788 1.58136-8.55408 3.07468-12.86288 4.45773-4.30872 1.38302-8.62996 2.6563-12.94342 3.79873-4.31353 1.14245-8.62064 2.15428-12.89591 3.01407-4.27546.85983-8.52028 1.56702-12.71764 2.10222-2.28614.2915-4.55066.48855-6.79448.59854-2.24379.10998-4.46699.13379-6.67186.0821-4.41004-.10341-8.7458-.51023-13.01896-1.14207-4.27538-.63216-8.48179-1.48871-12.65867-2.49173-1.5244-.36607-2.7464-.69366-4.26947-1.09613-.6153 3.478-1.64273 10.21266-2.25804 13.69066 3.12448.81078 9.0886 2.88618 11.62166 4.02852-3.35431 14.82327-6.00779 31.89837-8.27171 45.75163-2.97519 18.2056-4.68136 27.8396-8.83781 49.56915.0642.98018.16677 2.91301.16677 2.91301 4.29213 1.39153 10.36679 3.36718 14.3621 4.18319.56675-3.28561 1.65054-11.14033 2.71929-21.2752 1.17547-11.14682 1.96238-21.2184 2.94482-34.09879.9741-12.77095 1.72867-22.31096 2.80903-31.79369.97134-8.52578 1.91421-14.09761 2.05272-14.05527.30829.0942 2.69255.3342 5.16668.53949 2.46241.20432 4.99432.37243 5.32655.32312-4.31389 12.82714-5.25272 30.32485-5.19045 49.86642.0669 20.9811.91156 36.88986-.25101 53.88756 2.78494.24041 5.93097.33415 10.20905.34994 4.53555-.0755 9.62658-.23622 13.98528-.19699 4.96427-.21564 14.86736-.67701 14.86736-.67701-.38409-5.76296-.80565-12.11917-1.81974-22.40599-.93293-9.46347-2.22543-20.38637-3.37235-31.2264-1.19374-11.2826-2.05517-21.15952-2.43576-30.73617-.37087-9.33225-.18698-16.42325.13533-20.84634 4.44199-1.01619 13.52409-3.08373 13.52409-3.08373.42345 19.0935.74828 32.8751 2.51906 55.01681 1.41129 17.64685 3.73967 39.72166 6.10427 52.95579.69137-.12729 1.41362-.29013 2.1678-.48967.85721-.23133 1.3616-.20559 1.89714-.21415 2.48604-.32014 8.15572-.71122 11.43778-.5527-.0833-2.30296-.46861-9.22486-1.44846-19.48767-1.12564-11.78988-2.28637-20.94303-3.9383-35.41473-1.54876-13.56793-2.6416-24.63257-3.26196-35.71137-.59789-10.67754-.5214-17.42577-.58014-20.25911 3.50713-1.00147 10.57273-3.04408 10.57273-3.04408 1.53623 4.10259 2.42864 13.29944 3.55857 24.09557 1.2319 11.77047 2.47684 23.02433 4.37482 36.20026 1.73924 12.07395 3.84289 24.36145 6.0404 32.68574 2.2668 8.58677 4.85725 13.99495 8.38446 13.57525 1.93292-.13376 3.04354.41652 6.79784-.083 3.457-.45996 6.83197-1.15413 10.15876-1.99162-1.89754-22.19614-6.47086-44.58267-11.36616-65.23017-3.89613-16.43319-10.18123-40.75562-11.58546-45.56998 4.15501-.77026 6.99399 2.32895 9.10993 7.50111 2.09836 5.1292 3.52851 12.45559 4.57371 19.94414 2.10261 15.06458 2.73276 31.30226 3.34138 34.69613 4.66913 22.61078 13.71354 32.61915 21.92587 36.63576 8.33233 4.07531 16.2361 2.33679 18.83169 1.78438.99341-1.90709-1.20957-5.40843-.25047-5.26702-1.91876-15.06579-9.81941-35.89776-18.59279-56.31919-4.31294-10.03905-8.68456-19.7232-12.10335-28.03135-3.45855-8.40477-5.83695-15.14325-6.70601-19.73526.82713-.39688 1.81052-.82693 2.90271-1.28524 1.94053-.81428 6.40518 4.76956 12.40457 13.51587 5.99115 8.73429 13.48754 20.62503 20.55409 32.45781 7.07133 11.8408 13.69894 23.65392 18.72349 32.23933 5.01932 8.57646 8.48978 13.94708 9.08304 12.83392-.36143-2.69051.019-4.21244-1.29987-7.04026-8.05522-27.96255-11.74935-36.36739-16.31288-44.4544-5.38978-9.53065-10.91761-18.72807-15.77322-26.24283-4.76564-7.37553-8.6555-12.78832-10.56472-14.01431-4.9088-3.15217-5.46021-5.10898-5.85749-6.14837-1.92648-4.27729-3.77796-8.58892-5.47892-12.89156z" clip-path="none" style="display:inline;fill-opacity:.5;fill:#80122f"/></clipPath></defs><path id="path35140" d="m368.77057 366.2305c-5.77506 3.00711-11.83222 6.06414-18.052 8.92929-4.01857 1.85118-8.11245 3.65383-12.27412 5.3919-4.16007 1.73741-8.37976 3.4067-12.63836 4.98833-4.25788 1.58136-8.55408 3.07468-12.86288 4.45773-4.30872 1.38302-8.62996 2.6563-12.94342 3.79873-4.31353 1.14245-8.62064 2.15428-12.89591 3.01407-4.27546.85983-8.52028 1.56702-12.71764 2.10222-2.28614.2915-4.55066.48855-6.79448.59854-2.24379.10998-4.46699.13379-6.67186.0821-4.41004-.10341-8.7458-.51023-13.01896-1.14207-4.27538-.63216-8.48179-1.48871-12.65867-2.49173-1.5244-.36607-2.7464-.69366-4.26947-1.09613-.6153 3.478-1.64273 10.21266-2.25804 13.69066-.59292 3.3794-1.32247 3.05998-2.25315 4.70557-3.10243 5.4856-5.87639 20.09298-10.07493 37.30797-4.87201 19.97633-9.03029 32.76162-13.86248 48.73861 6.56688 2.87722 20.7027 8.59715 20.7027 8.59715.0642.98018.16677 2.91301.16677 2.91301 9.27751 3.41819 33.69718 8.70332 39.88276 11.48714.10456-1.18251.26312-3.57018.26312-3.57018 6.16387.0143 9.62926-.22647 13.98818-.18723.23522.61545.66895 1.81565.66895 1.81565 3.66177.95365 21.92476-.8535 31.02111-3.30836.8572-.23133 1.3616-.20559 1.89714-.21415.26947.6445.54219 1.24962.91183 2.02566 8.5699-1.48436 17.62389-4.91617 30.87395-9.20656 4.81602-1.55943 4.7334-.094 10.15196-.81493 15.67281-2.08521 29.75021-8.98688 44.98972-12.23025.99341-1.90709-1.20957-5.40843-.25047-5.26702 2.45653-1.53151 8.34841-3.75408 13.94542-6.27363 5.61609-2.52814 10.86892-5.32716 12.32033-8.05048-.36143-2.69051.019-4.21244-1.29987-7.04026 2.95251-2.60808 4.32045-4.05019 4.88961-4.44332-.22508-.45695-3.06994-6.10341-6.69033-13.09181-3.8586-7.44823-8.66972-16.5612-14.13947-26.25936-5.44545-9.65508-11.03525-18.97749-15.978-26.64262-4.84174-7.50847-8.80254-13.03504-10.73262-14.27443-4.90881-3.15217-5.46022-5.10898-5.8575-6.14837-1.92647-4.27727-3.77796-8.58887-5.47892-12.89148z" class="bottoms_primary"/><g id="g35184" style="filter:url(#filter78301)" clip-path="url(#clipPath36866)"><g style="display:inline" id="g35152"><path id="path35142" d="m297.4677 519.88369c-.53907-9.99733-1.60086-20.36782-3.25803-33.19184-1.57526-12.1902-3.45333-24.93711-4.82154-36.5598-1.43765-12.21253-2.1422-21.53304-2.42846-29.74717-.26558-7.62069-.11551-12.34066-.11551-12.34066-5.94907.33974-17.02956.95569-17.02956.95569-4.91872 14.53626-5.74278 32.06029-5.14214 52.19152.60546 20.29264 2.41514 40.16695 1.28108 60.44689.79509-.0443 30.71908-1.71035 31.51416-1.75463z" class="bottoms_primary_highlight"/><path id="path35144" d="m297.4677 519.88369c-.4537-9.99766-1.42618-20.36751-2.97073-33.19227-1.46816-12.19059-3.23229-24.93829-4.49685-36.56178-1.32863-12.21239-1.95084-21.53549-2.16571-29.74892-.19937-7.62113-.009-12.34085-.009-12.34085-4.50764.33145-13.08563.94221-13.08563.94221-.86184 9.96672-1.11527 20.69083-.74826 33.44047.35404 12.29901 1.24413 24.96287 1.9629 36.63048.77069 12.51043 1.16741 21.18921 1.29388 29.67753.11308 7.59022-.0374 12.28426-.0374 12.28426.49694-.0278 19.76031-1.10338 20.25725-1.13113z" class="bottoms_primary_highlight"/><path id="path35146" d="m297.4677 519.88369c-.30815-9.99863-1.12838-20.36658-2.48074-33.193-1.28539-12.19127-2.85473-24.94033-3.9417-36.56519-1.14185-12.21188-1.6226-21.54001-1.71503-29.75196-.0858-7.62191.17234-12.34121.17234-12.34121-2.08205.31769-6.18213.91513-6.18213.91513-.97521 9.90473-1.35889 20.57949-1.13888 33.25987.21283 12.26598.96384 24.8081 1.57044 36.44644.65007 12.47225.9715 21.05516 1.02782 29.52219.0502 7.54867-.13679 12.2154-.13679 12.2154 2.05873-.0815 10.76594-.42617 12.82467-.50767z" class="bottoms_primary_highlight"/><path id="path35148" d="m297.4677 519.88369c-.30815-9.99863-1.12838-20.36658-2.48074-33.193-1.28539-12.19127-2.85473-24.94033-3.9417-36.56519-1.14185-12.21188-1.6226-21.54001-1.71503-29.75196-.0858-7.62191.17234-12.34121.17234-12.34121-2.08205.31769-6.18213.91513-6.18213.91513-.54341 9.93681-.45448 20.64273.32827 33.36445.75667 12.29779 2.06568 24.89645 3.18314 36.56798 1.19724 12.50477 1.8925 21.14048 2.3111 29.62677.37365 7.57511.38235 12.25877.38235 12.25877-.38369.0426 8.3261-.92434 7.9424-.88174z" class="bottoms_primary_highlight"/><path id="path35150" d="m297.4677 519.88369c-.30815-9.99863-1.12838-20.36658-2.48074-33.193-1.28539-12.19127-2.85473-24.94033-3.9417-36.56519-1.14185-12.21188-1.6226-21.54001-1.71503-29.75196-.0858-7.62191.17234-12.34121.17234-12.34121-2.08205.31769-6.18213.91513-6.18213.91513-.54341 9.93681-.45448 20.64273.32827 33.36445.75667 12.29779 2.06568 24.89645 3.18314 36.56798 1.19724 12.50477 1.8925 21.14048 2.3111 29.62677.37365 7.57511.38235 12.25877.38235 12.25877-.38369.0426 8.3261-.92434 7.9424-.88174z" class="bottoms_primary_highlight"/></g><g style="display:inline" id="g35164"><path id="path35154" d="m328.17467 516.01825c-.70969-10.08972-1.7912-20.44381-3.37317-33.40732-1.56585-12.83145-3.15502-24.58776-4.47593-36.85322-1.32383-12.2926-1.99387-21.71882-2.29268-29.96962-.27782-7.67137-.17653-12.41757-.17653-12.41757-4.3127 1.0826-12.8759 3.21502-12.8759 3.21502-.0663 10.21164.0729 20.37998.88648 33.69541.76809 12.57168 1.99977 25.40462 3.21616 37.29354 1.08814 10.6354 2.44943 23.43489 3.3057 29.62537 1.01269 7.32136 2.03529 11.47882 3.59462 10.44839-.31438.042 12.50563-1.67205 12.19125-1.63z" class="bottoms_primary_highlight"/><path id="path35156" d="m326.92193 516.01841c-.71499-10.09021-1.80845-20.44171-3.40876-33.40463-1.58423-12.83261-3.19115-24.58232-4.5247-36.84934-1.33612-12.29068-2.00913-21.71854-2.30569-29.96863-.27576-7.67159-.1687-12.41829-.1687-12.41829-1.44612.31434-4.35008.91079-4.35008.91079-.27737 9.98208.0429 20.78995 1.05463 33.59557.97962 12.39871 2.48388 25.08808 3.83514 36.85632 1.46164 12.72957 2.35993 21.16864 3.07341 29.83457.62737 7.62012.8476 12.32538.8476 12.32538-.0849.0126 6.03208-.89434 5.94715-.88174z" class="bottoms_primary_highlight"/><path id="path35158" d="m326.92193 516.01841c-.71499-10.09021-1.80845-20.44171-3.40876-33.40463-1.58423-12.83261-3.19115-24.58232-4.5247-36.84934-1.33612-12.29068-2.00913-21.71854-2.30569-29.96863-.27576-7.67159-.1687-12.41829-.1687-12.41829-1.44612.31434-4.35008.91079-4.35008.91079-.27737 9.98208.0429 20.78995 1.05463 33.59557.97962 12.39871 2.48388 25.08808 3.83514 36.85632 1.46164 12.72957 2.35993 21.16864 3.07341 29.83457.62737 7.62012.8476 12.32538.8476 12.32538-.0849.0126 6.03208-.89434 5.94715-.88174z" class="bottoms_primary_highlight"/><path id="path35160" d="m326.92193 516.01841c-.71499-10.09021-1.80845-20.44171-3.40876-33.40463-1.58423-12.83261-3.19115-24.58232-4.5247-36.84934-1.33612-12.29068-2.00913-21.71854-2.30569-29.96863-.27576-7.67159-.1687-12.41829-.1687-12.41829-1.17415.27085-3.54055.781-3.54055.781-.23125 9.99379.13756 20.81173 1.20205 33.63283 1.02993 12.40491 2.58325 25.12504 3.97581 36.89931 1.50666 12.73903 2.43532 21.19941 3.18049 29.8698.65567 7.62897.89507 12.33958.89507 12.33958-.0968.0182 4.79181-.89982 4.69498-.88163z" class="bottoms_primary_highlight"/><path id="path35162" d="m326.92193 516.01841c-.71499-10.09021-1.80845-20.44171-3.40876-33.40463-1.58423-12.83261-3.19115-24.58232-4.5247-36.84934-1.33612-12.29068-2.00913-21.71854-2.30569-29.96863-.27576-7.67159-.1687-12.41829-.1687-12.41829-.54134.1835-1.65153.52-1.65153.52-.27527 9.98071.0327 20.79212 1.0162 33.59904.95236 12.40204 2.41793 25.09293 3.73822 36.86463 1.42966 12.74687 2.30813 21.15815 3.01327 29.83925.61901 7.62067.84084 12.32564.84084 12.32564-.0249.004 3.47577-.51134 3.45085-.50767z" class="bottoms_primary_highlight"/></g><g style="display:inline" id="g35170"><path id="path35166" d="m229.21799 516.25799c1.67537-9.36628 3.41971-19.56078 5.14514-31.61187 1.76779-12.34693 3.00683-23.00502 4.39491-34.82296 1.41663-12.06098 2.40907-20.10963 3.64806-28.3725 1.09116-7.27706 1.94809-11.78497 1.94809-11.78497-2.1187-.41112-6.14287-1.24558-6.14287-1.24558-2.09348 9.85972-3.69512 19.26448-5.82635 31.74976-2.14083 12.54152-3.94432 22.80112-6.45176 34.73113-2.3459 11.16143-4.6971 20.77038-6.52449 28.11546-1.7881 7.18713-2.90922 11.63171-2.90922 11.63171.47684.0606 12.24165 1.54923 12.71849 1.60982z" class="bottoms_primary_highlight"/><path id="path35168" d="m224.38299 513.76959c1.95945-9.10107 4.09194-19.16415 6.22049-30.89708 2.18595-12.04936 3.77134-22.51828 5.47486-34.05433 1.77455-12.01706 2.86904-19.44864 4.30995-27.75072 1.23528-7.11732 2.16577-11.52601 2.16577-11.52601-1.47901-.36758-4.34274-1.12134-4.34274-1.12134-2.09348 9.85972-3.69512 19.26448-5.82635 31.74976-2.14083 12.54152-3.94432 22.80112-6.45176 34.73113-2.3459 11.16143-4.6971 20.77038-6.52449 28.11546-1.7881 7.18713-2.90922 11.63171-2.90922 11.63171.15522-.0173 7.72827-.86129 7.88349-.87858z" class="bottoms_primary_highlight"/></g><g id="g35176"><path id="path35172" d="m358.82949 510.17132c-7.03378 2.16565-11.70448-16.25791-16.42784-39.89802-4.71678-23.60719-8.67187-52.42228-11.8799-71.08716 4.6963-1.91426 11.32022-4.62148 17.11133-7.00805 5.67532-2.33886 10.14729-4.207 10.14729-4.207 4.86305 18.4093 14.1099 40.44952 21.09991 59.63117 7.24858 19.8912 12.79975 38.31365 14.05732 52.84771-31.06889 8.85558-3.03922.86577-34.10811 9.72135z" class="bottoms_primary_highlight"/><path id="path35174" d="m365.02819 508.2297c-6.62495.53095-11.61332-18.18598-16.57956-41.60141-6.53696-30.8212-8.0009-44.20226-12.38973-70.31537 1.5475-.37234 4.60566-1.14596 4.60566-1.14596 5.24818 20.20323 9.47866 38.54984 14.04475 59.31176 4.12385 18.75101 8.29058 38.65217 12.43319 51.81095-.0314.0288-2.08287 1.9112-2.11431 1.94003z" class="bottoms_primary_highlight"/></g><g id="g35182"><path id="path35178" d="m423.91478 479.65595c-6.83957-21.91376-14.32482-39.67011-23.4669-55.96306-9.21489-16.42272-19.00874-29.46284-29.08199-42.65799 3.93839-.62003 11.60075-1.87379 11.60075-1.87379 10.72569 11.42945 20.73959 23.30375 28.79453 39.29764 7.92195 15.7298 13.6724 35.03871 16.80241 59.95163-1.54122.4151-3.09172.83043-4.6488 1.24557z" class="bottoms_primary_highlight"/><path id="path35180" d="m426.24362 479.74018c-6.85375-21.91848-13.91589-39.98595-22.59224-56.59474-8.7221-16.69639-18.12653-30.12955-28.21133-43.28075 2.54087-.22563 7.52659-.70358 7.52659-.70358 10.72569 11.42945 20.73959 23.30375 28.79453 39.29764 7.92195 15.7298 13.6724 35.03871 16.80241 59.95163-.77068.44326-1.5442.88658-2.31996 1.3298z" class="bottoms_primary_highlight"/></g></g><path id="path35188" d="m368.77249 366.22986c-5.77324 3.00618-11.836 6.06563-18.05392 8.92993-4.01857 1.85118-8.11245 3.65383-12.27412 5.3919-4.16007 1.73741-8.37976 3.4067-12.63836 4.98833-4.25788 1.58136-8.55408 3.07468-12.86288 4.45773-4.30872 1.38302-8.62996 2.6563-12.94342 3.79873-4.31353 1.14245-8.62064 2.15428-12.89591 3.01407-4.27546.85983-8.52028 1.56702-12.71764 2.10222-2.28614.2915-4.55066.48855-6.79448.59854-2.24379.10998-4.46699.13379-6.67186.0821-4.41004-.10341-8.7458-.51023-13.01896-1.14207-4.27538-.63216-8.48179-1.48871-12.65867-2.49173-1.35537-.32548-2.91724-.72994-4.28012-1.09457-.90775 4.95017-1.39131 8.94364-2.47824 14.77692 13.05302 3.7133 29.82507 6.56525 47.05944 4.3873 15.64979-1.9643 33.58999-6.82091 51.04335-12.94064 17.71882-6.21282 34.19514-13.45342 48.18509-20.63149-2.11614-4.71733-4.14937-9.47978-5.9993-14.22731z" class="bottoms_accent"/><g id="g35238" style="filter:url(#filter78415)" clip-path="url(#clipPath36862)"><g transform="translate(220.8719,-12.948485)" id="g35196"><g id="g35194"><path id="path35190" d="m136.30877 398.80417c1.18024-.33119 3.4942-1.02108 3.4942-1.02108 7.50622 10.77429 14.19159 21.82271 20.34141 33.24759 6.21919 11.55375 11.08433 21.94847 15.85497 32.02945 9.23685 19.51865 16.36322 33.91795 24.89392 34.32528-14.59024 4.93807-22.42115 15.1706-33.6408 6.72695-10.03954-35.08378-22.68229-69.91077-30.9437-105.30819z" class="bottoms_primary_shade"/><path id="path35192" d="m136.30877 398.80417c11.23157 13.1951 20.59478 36.75869 28.98686 57.744 8.44885 21.12725 16.16369 40.23468 26.5323 45.09896-7.33062 2.44799-10.71075 5.18395-13.61378 6.24779-2.91252 1.06733-5.33547.45159-10.96168-3.78256-10.03954-35.08378-22.68229-69.91077-30.9437-105.30819z" class="bottoms_primary_shade"/></g></g><g id="g35202"><path id="path35198" d="m280.76272 410.43777c3.67962-.54925 11.1765-1.6812 11.1765-1.6812-2.02476 38.11092 5.38337 74.35674 7.68262 114.74546-9.03506.01-27.12716-21e-5-27.12716-21e-5 4.79801-37.90864 1.54329-74.93158 8.26804-113.06405z" class="bottoms_primary_shade"/><path id="path35200" d="m280.76272 410.43777c1.89219-.20576 5.73032-.65226 5.73032-.65226-1.87261 38.10119 5.7763 73.08208 8.12661 113.46683-7.36711.0932-22.12497.24948-22.12497.24948 4.79801-37.90864 1.54329-74.93158 8.26804-113.06405z" class="bottoms_primary_shade"/></g><g id="g35208"><path id="path35204" d="m254.24737 411.52935c2.70556.25073 8.40403.73098 8.40403.73098-.28947 9.99259.002 20.69078.9242 33.47025.88441 12.25595 2.25393 25.04871 3.36436 36.68502 1.18791 12.44827 1.86017 21.32903 2.23654 29.75674.34008 7.61525.32275 12.32837.32275 12.32837-2.04101 1.80192-6.34808 1.00159-11.20994-.4234-4.8709-1.42763-10.29466-3.47748-14.56818-4.19335 2.8188-22.15883 3.17047-40.6298 4.41937-63.77411 1.14707-21.25737 3.01333-37.29649 6.10687-44.5805z" class="bottoms_primary_shade"/><path id="path35206" d="m257.98385 412.5243c1.53342-.0769 4.66755-.26397 4.66755-.26397-.28947 9.99259.002 20.69078.9242 33.47025.88441 12.25595 2.25393 25.04871 3.36436 36.68502 1.18791 12.44827 1.86017 21.32903 2.23654 29.75674.34008 7.61525.32275 12.32837.32275 12.32837-4.07649 3.59898-10.22155-1.43956-18.76686-2.87096.62573-20.43172.45785-44.29951 1.22878-64.81422.79596-21.1808 2.90897-37.05808 6.02268-44.29123z" class="bottoms_primary_shade"/></g><g id="g35218"><path id="path35210" d="m232.8027 486.8135c-.67855-.0579-.92781.0375-1.52651-.0265.62232-.0755.7627-.18961 1.52651.0265z" style="fill:#010101"/><path id="path35212" d="m235.42387 409.16035c3.42714.64064 10.66133 1.88077 10.66133 1.88077-3.80969 20.27626-5.54281 40.21582-8.77276 64.37299-2.8467 21.29072-6.09527 38.49393-6.09527 38.49393-3.99316-1.22519-8.93956-2.75482-13.75964-4.26955-4.53733-1.42588-8.08406-2.56628-8.08406-2.56628 7.0717-15.811 11.1243-34.9465 14.54793-53.88726 3.34584-18.51037 5.87878-35.33078 11.50247-44.0246z" class="bottoms_primary_shade"/><path id="path35214" d="m239.16789 409.53817c2.2604.51265 6.91731 1.50295 6.91731 1.50295-3.80969 20.27626-5.54281 40.21582-8.77276 64.37299-2.8467 21.29072-6.09527 38.49393-6.09527 38.49393-5.87074-2.14617-17.37438-6.46197-17.37438-6.46197 6.87697-15.8477 10.47596-34.90721 13.69752-53.88352 3.15455-18.58165 5.74604-35.25668 11.62758-44.02438z" class="bottoms_primary_shade"/><path id="path35216" d="m242.49077 409.91385c1.18192.38287 3.59443 1.12727 3.59443 1.12727-3.80969 20.27626-5.54281 40.21582-8.77276 64.37299-2.8467 21.29072-6.09527 38.49393-6.09527 38.49393-4.54757-2.02171-13.49239-6.08855-13.49239-6.08855 6.72567-15.87696 9.97161-34.87784 13.03574-53.88212 3.00376-18.62985 5.64707-35.20622 11.73025-44.02352z" class="bottoms_primary_shade"/></g><g id="g35226"><path id="path35220" d="m337.82174 437.49076c2.87365 3.77356 2.79253 2.54097 5.03914 3.61538-2.02437-1.24848-2.14534-.001-5.03914-3.61538z" style="fill:#010101"/><path id="path35222" d="m307.11123 404.78974c3.8173-1.01007 11.54933-3.07473 11.54933-3.07473 1.02143 7.62194 1.85175 18.52626 3.14745 30.57599 1.34052 12.46655 2.93827 24.83546 4.81394 37.56233 1.745 11.84022 3.7599 24.21102 5.54116 32.22254 1.88557 8.48073 3.87416 14.00048 6.52842 14.44009-10.22386 2.08797-30.69812 6.23718-30.69812 6.23718 1.29184-39.47984-5.04942-78.20095-.88218-117.9634z" class="bottoms_primary_shade"/><path id="path35224" d="m307.11123 404.78974c2.632-.33708 7.93164-1.04554 7.93164-1.04554.52468 2.78385.73689 11.30568 1.69756 22.47299 1.02485 11.9134 2.59264 24.2352 4.86699 38.47666 2.03423 12.73784 4.71757 27.46886 6.78965 36.68207 2.24274 9.972 4.41883 16.69563 7.06791 17.13522-9.14985 1.42386-27.47157 4.242-27.47157 4.242 1.29184-39.47984-5.04942-78.20095-.88218-117.9634z" class="bottoms_primary_shade"/></g><g id="g35236"><path id="path35228" d="m335.40618 394.71177c4.78785-1.7748 14.1984-5.32354 14.1984-5.32354 1.99364 14.1797 5.09346 28.98394 8.99373 46.06487 3.49179 15.29199 6.37496 27.49122 6.37496 27.49122 2.92463 14.94053-.56242 31.00007 20.67013 42.00294-9.35652 2.33796-27.97329 6.95631-27.97329 6.95631-6.94993-39.09733-18.34413-77.73785-22.26393-117.1918z" class="bottoms_primary_shade"/><path id="path35230" d="m335.40618 394.71177c4.78785-1.7748 14.1984-5.32354 14.1984-5.32354 1.99364 14.1797 5.09346 28.98394 8.99373 46.06487 3.49179 15.29199 6.37496 27.49122 6.37496 27.49122-5.48455 2.48575-15.20935-6.33861-19.23805-9.21195-4.12642-19.15187-8.4159-39.62292-10.32904-59.0206z" class="bottoms_primary_shade"/><path id="path35232" d="m335.40618 394.71177c1.77208-.15675 5.28367-.50008 5.28367-.50008.0376 2.61358 4.12131 3.12493 7.62476 10.51032 3.55407 7.4921 6.42513 21.53402 5.72834 51.55145-5.5815 2.5122-4.3067.31251-8.30773-2.54109-4.12642-19.15187-8.4159-39.62292-10.32904-59.0206z" class="bottoms_primary_shade"/><path id="path35234" d="m335.40618 394.71177c8.02808 4.79324 11.75724 13.44433 13.47372 24.26963 1.7007 10.72579 1.45106 23.99545 1.2988 37.55848-5.57745 2.51308-.44425.0448-4.44348-2.80751-4.12642-19.15187-8.4159-39.62292-10.32904-59.0206z" class="bottoms_primary_shade"/></g></g></svg>