<svg viewBox="0 0 560 1e3"><path id="path1802" class="shadow" d="m268.93808 141.86745c1.93099-7.5556 4.16943-16.36118 10.17017-26.29011-.0648 2.84959 1.84711 8.59453-7.33993 13.54664 15.9575-5.76361 13.85712-21.15221 18.05576-31.45719 1.34838-.866351 10.23422-4.544303 29.14594 2.16865 7.05601 2.85097 8.28386 20.64409 13.59855 34.4576 1.6963-.72622 3.17841-.13398 4.34127-3.37875.94063-9.0862-.29109-26.09602-2.69876-32.528522.912-27.779962-36.90471-41.094525-59.20845-33.478038-22.24264 6.586213-34.51181 37.42207-33.61014 60.0953.50001 10.55706-.52706 30.98431 10.12709 37.1199-7.50111-4.67243-4.75758-14.08586-6.51054-20.01195 3.10419 10.29471 7.87295 20.45054 10.60512 31.25716.42395 15.46254-1.39674 16.38931-3.66982 19.00168 3.87544-3.50853 4.79714-5.07542 4.64691-14.92281 1.24251 9.18455.54692 18.00293-3.97313 28.84415 3.39531-5.09635 6.81304-9.99314 8.84523-15.18494.10485 3.78194-1.96589 9.01505-7.55013 13.65147 13.06834-9.1998 16.20262-30.01866 16.0086-40.08988.45 3.85157 4.13644 12.99597-3.88295 24.44953 13.80736-17.46763 7.04159-33.54392 2.89915-47.2499z"/><path d="m268.93808 141.86745c1.18768-7.5556 3.75468-16.36118 10.17017-26.29011.35562 2.63939 2.08183 8.47717-7.33993 13.54664 15.5938-5.82974 13.31197-21.25133 18.05576-31.45719 1.37627-.944441 10.5759-5.501012 29.14594 2.16865 7.38741 2.85097 8.77881 20.64409 13.59855 34.4576 1.51363-.90889 2.94569-.3667 4.34127-3.37875.57828-9.0862-.75124-26.09602-2.69876-32.528522.43421-27.254397-37.59698-40.33303-59.20845-33.478038-21.27036 6.746795-34.25394 37.56533-33.61014 60.0953.51672 10.54963-.21095 30.84381 10.12709 37.1199-7.6976-4.67243-4.84306-14.08586-6.51054-20.01195 3.39508 10.22199 8.24655 20.35714 10.60512 31.25716.59403 15.56884-1.34502 16.42164-3.66982 19.00168 3.68271-3.6156 4.4674-5.25861 4.64691-14.92281 1.53655 9.18455.71704 18.00293-3.97313 28.84415 3.2756-5.13625 6.28149-10.17032 8.84523-15.18494.29466 3.90848-1.80257 9.12393-7.55013 13.65147 12.77869-9.24118 14.96846-30.19497 16.0086-40.08988.95289 3.72585 4.57545 12.88622-3.88295 24.44953 13.38124-17.46763 6.52666-33.54392 2.89915-47.2499z" class="hair" id="path1697"/></svg>