<svg viewBox="0 0 560 1e3"><defs><filter style="color-interpolation-filters:sRGB" id="filter21948"><feGaussianBlur stdDeviation="1 1" result="blur" id="feGaussianBlur21946"/></filter><filter style="color-interpolation-filters:sRGB" id="filter22159"><feGaussianBlur stdDeviation="1 1" result="blur" id="feGaussianBlur22157"/></filter><filter style="color-interpolation-filters:sRGB" id="filter22809"><feGaussianBlur stdDeviation="1 1" result="blur" id="feGaussianBlur22807"/></filter><clipPath clipPathUnits="userSpaceOnUse" id="clipPath22813"><path id="path22815" style="display:inline;fill-opacity:1;fill:#0ff;opacity:1;stroke-width:.999998" d="m226.87109 858.61524c-4.36852-.0284-8.48084.0712-11.4082.22852l-1.01953 17.54102c-3.68221 9.68449-6.81023 18.99555-13.77344 26.99414-5.99639 6.88799-11.73388 13.72426-21.6582 18.77343-.52311.26615-1.00587.53662-1.46875.8086-1.72953.86413-3.68117 2.15395-6.0293 3.51172-1.43598.82007-1.639 1.16579-1.33008 1.30273-.68238.19023-1.21959.49941-1.58984.74609-1.42824.99063-2.30039 1.6923-.81445 2.5254-1.29363 1.86759.24269 2.61552 2.47656 3.08789.57527.80014-.74215 1.75419 3.86719 2.22461.1044.0897.20759.1795.3164.26562.13577 1.40165 1.71566 2.34211 5.93555 2.43945.34584.0412.69208.0715 1.03906.0801 1.76013-.20677 6.28808-.12192 9.28321-.9668 2.96408.15648 6.82237.52208 11.48353-1.58747 2.43066-1.10006 4.6265-3.30878 6.16244-5.75295 2.55487-2.35348 5.07182-5.01977 7.12225-7.21093 3.77937-4.03873 6.20986-5.5299 9.05795-7.75333 5.59197-4.36555 12.80453-4.96031 17.17968-8.78321 1.63488-1.42851 3.44692-5.73533 3.71876-7.92968.36537-2.9494.16019-6.25171-.81055-9.22071-1.22092-3.73416-3.90328-7.03717-4.02735-10.91015-.3921-2.75496-.74804-5.52766-.51562-8.61524.0683-3.53867-.12171-7.45799-.25-11.25976-3.95404-.35462-8.57874-.51068-12.94727-.53907z"/></clipPath><clipPath clipPathUnits="userSpaceOnUse" id="clipPath22835"><path style="display:inline;fill-opacity:.755068;fill:#0ff;opacity:1;stroke-dasharray:none;stroke-dashoffset:0;stroke-linecap:butt;stroke-linejoin:miter;stroke-miterlimit:4;stroke-opacity:1;stroke-width:.453543;stroke:none;vector-effect:none" d="m230.55842 914.91513c1.58351-1.10279 3.33634-2.16114 5.31658-3.16514 4.9209-2.49494.875 10.79167 1.3125 16.1875l5.125-2.6875s.9315-5.18806 1.76371-11.71805c.91761-7.20015 2.33322-16.12019 1.62753-21.42732-.41315-3.1071-1.77539-6.40062-2.95331-8.79233-9.31973 6.23768-10.06306 12.72449-10.36938 13.96575-1.37494 5.87903-1.47573 11.75806-1.82263 17.63709zm-27.17162 22.48131c-3.11933-9.01549-18.25131-15.83993-21.22268-17.16331-2.16428 1.185-4.32412 2.41178-6.32521 3.69441 1.79489-.73097 17.83374 8.00947 19.84381 14.90531 2.77678-.31505 5.3785-.76886 7.73336-1.37926z" id="path22837"/></clipPath><clipPath clipPathUnits="userSpaceOnUse" id="clipPath22979"><path id="path22981" d="m378.01185 891.61894c.34676-3.85019.074-7.12565-.83246-8.89272-1.34056 3.33219-2.01311 7.04539-2.28785 10.95852-.13067 1.86116-.17134 3.76754-.15109 5.69966.24858 1.09377 2.90853-3.73631 3.2714-7.76546zm-5.07809 31.43916c-.28511 2.2695-.58056 4.58044-.86761 6.95743 4.58882-.17243 22.24798 3.75264 33.71439-3.34818-.40493-2.30474-.76246-4.65952-1.08516-7.02905-9.66878 5.89903-20.8627 3.8951-31.76162 3.4198zm29.51862-23.61888c-.42993-4.09351-.86628-7.87008-1.39507-11.08837-.14176 1.91184-.27826 3.95425-.3222 6.27564-.0782 4.6671 1.71727 4.81273 1.71727 4.81273z" style="display:inline;fill-opacity:1;fill:#0ff;opacity:1;stroke-width:.999995"/></clipPath></defs><path d="m238.34402 882.97204c-16.23916 23.48242-28.84486 51.09251-51.3958 34.22465-2.31959 1.60811-4.64093 3.01064-6.88406 4.30618-6.42202 3.70907-12.20312 6.54128-15.46765 10.8107-1.15191 1.50648-.59564 5.64677 3.0625 6.0625 9.61774 1.093 19.62202 1.41003 28.02371.45678 8.29887-.94158 15.03413-3.12255 18.28879-7.01928 6.92076-7.23269 10.90373-14.48659 21.90349-20.06358 4.9209-2.49494.875 10.79167 1.3125 16.1875l5.125-2.6875s.9315-5.18806 1.76371-11.71805c.91761-7.20015 2.33322-16.12019 1.62753-21.42732-.41312-3.10686-1.77518-6.40012-2.95304-8.79178-1.02454-2.08038-4.40668-.3408-4.40668-.3408z" id="path21923-6" class="shoe_accent"/><g id="g21908"><path d="m236.875 910.18749c4.9209 1.12898 2 12.10417.3125 17.75l-5.0625-.5s-.756-10.50056-.61129-17.03055z" id="path21890" class="shoe_accent"/><path d="m236.875 910.18749c4.9209 1.12898 2 12.10417.3125 17.75l-5.0625-.5s-.756-10.50056-.61129-17.03055z" id="path21892" class="shoe_accent_shade"/><path d="m236.875 910.18749c4.9209 1.12898 2 12.10417.3125 17.75l-5.0625-.5s-.756-10.50056-.61129-17.03055z" id="path21894" class="shoe_accent_shade"/><path d="m236.875 910.18749c4.9209 1.12898 2 12.10417.3125 17.75l-5.0625-.5s-.756-10.50056-.61129-17.03055z" id="path21896" class="shoe_accent_shade"/><path id="path21904" d="m231.52344 914.38477c-.0541.0304-.1115.0681-.17774.13085.12454 6.11421.66211 13.42578.66211 13.42578l5.17213.51703c.035-.14911-.0425-.39391-.0569-.52679L232.125 927.4375s-.49325-6.94265-.60156-13.05273z" class="shadow"/><path d="m236.875 910.18749c4.9209 1.12898 2 12.10417.3125 17.75l-5.0625-.5s-.756-10.50056-.61129-17.03055z" id="path21906" class="shoe_accent_shade"/></g><g id="g21918"><path id="path22587" d="m226.87109 858.61524c-4.36852-.0284-8.48084.0712-11.4082.22852l-1.01953 17.54102c-3.68221 9.68449-6.81023 18.99555-13.77344 26.99414-5.99639 6.88799-11.73388 13.72426-21.6582 18.77343-.52311.26615-1.00587.53662-1.46875.8086-1.72953.86413-3.68117 2.15395-6.0293 3.51172-1.43598.82007-1.639 1.16579-1.33008 1.30273-.68238.19023-1.21959.49941-1.58984.74609-1.42824.99063-2.30039 1.6923-.81445 2.5254-1.29363 1.86759.24269 2.61552 2.47656 3.08789.57527.80014-.74215 1.75419 3.86719 2.22461.1044.0897.20759.1795.3164.26562.13577 1.40165 1.71566 2.34211 5.93555 2.43945.34584.0412.69208.0715 1.03906.0801 1.76013-.20677 6.28808-.12192 9.28321-.9668 2.96408.15648 6.82237.52208 11.48353-1.58747 2.43066-1.10006 4.6265-3.30878 6.16244-5.75295 2.55487-2.35348 5.07182-5.01977 7.12225-7.21093 3.77937-4.03873 6.20986-5.5299 9.05795-7.75333 5.59197-4.36555 12.80453-4.96031 17.17968-8.78321 1.63488-1.42851 3.44692-5.73533 3.71876-7.92968.36537-2.9494.16019-6.25171-.81055-9.22071-1.22092-3.73416-3.90328-7.03717-4.02735-10.91015-.3921-2.75496-.74804-5.52766-.51562-8.61524.0683-3.53867-.12171-7.45799-.25-11.25976-3.95404-.35462-8.57874-.51068-12.94727-.53907z" class="skin feet"/><path id="path21914" class="shadow" d="m234.52645 865.29347c.50349 3.55547 2.48986 8.2877 2.32516 12.29588-.10957 2.66661-1.20588 3.90311-1.82107 6.85539.26453-2.74383 1.33364-4.12721 1.43137-6.83177.14905-4.1247-1.69112-9.12829-1.93546-12.3195z"/><path d="m187.82804 931.50661c-1.52687 1.4534-13.61574 2.37149-13.38687 5.09967-.77242-3.10805 12.04315-4.23758 13.38687-5.09967z" class="shadow" id="path22591"/><path d="m181.57902 929.87522c-1.30813 1.60807-11.3409 2.40006-11.11204 5.12824-.77242-3.10804 9.91161-3.58938 11.11204-5.12824z" class="shadow" id="path22593"/><path d="m177.85352 927.82256c-2.42543 2.06374-7.66731 1.49753-10.06528 3.33338 2.44666-2.05806 7.98789-1.79507 10.06528-3.33338z" class="shadow" id="path22596"/><path d="m175.83989 926.21347c-1.70735 2.00573-4.93469.53848-7.33266 2.37433 2.44666-2.05806 5.4239-.43129 7.33266-2.37433z" class="shadow" id="path22598"/><path id="path22722" class="shadow" d="m234.52645 865.29347c.50349 3.55547 2.48986 8.2877 2.32516 12.29588-.10957 2.66661-1.20588 3.90311-1.82107 6.85539.26453-2.74383 1.33364-4.12721 1.43137-6.83177.14905-4.1247-1.69112-9.12829-1.93546-12.3195z"/><g id="g22805" style="filter:url(#filter22809)" clip-path="url(#clipPath22813)"><g id="g22788"><path id="path22724" d="m208.34324 930.83734c1.36163 4.85017.0337 8.90139 9.64132-2.8799 3.49572-4.2866 6.20987-5.52989 9.05795-7.75333 2.07414-1.61925 5.96224-2.98489 4.14474-7.98959-7.06635-3.47691-17.19359 9.13356-22.84401 18.62282z" class="feet_shade"/><path id="path22794" d="m208.34324 930.83734c1.36163 4.85017.0337 8.90139 9.64132-2.8799 3.49572-4.2866 6.20987-5.52989 9.05795-7.75333 2.07414-1.61925 5.96224-2.98489 4.14474-7.98959-7.06635-3.47691-17.19359 9.13356-22.84401 18.62282z" class="feet_shade"/><path id="path22796" d="m208.34324 930.83734c1.36163 4.85017.0337 8.90139 9.64132-2.8799 3.49572-4.2866 6.20987-5.52989 9.05795-7.75333 2.07414-1.61925 5.96224-2.98489 4.14474-7.98959-7.06635-3.47691-17.19359 9.13356-22.84401 18.62282z" class="feet_shade"/><path id="path22798" d="m208.34324 930.83734c1.36163 4.85017.0337 8.90139 9.64132-2.8799 3.49572-4.2866 6.20987-5.52989 9.05795-7.75333 2.07414-1.61925 5.96224-2.98489 4.14474-7.98959-7.06635-3.47691-17.19359 9.13356-22.84401 18.62282z" class="feet_shade"/></g></g><path id="path44334-1-9" d="m171.31022 927.44497c-.073-.53521-.10991-.58134-.36098-.62223.0.0 1.06312-.87311 1.04962-.0663-.0128.762-.68864.68852-.68864.68852zm-2.78407 2.9274c.0689-1.42537-.22008-1.23632-.54204-1.34366.0.0 2.15016-1.44078 1.72154-.0259-.41105 1.3569-1.1795 1.36958-1.1795 1.36958zm1.3353 1.9418c-.15098-.84502-.47935-1.41746-1.0013-1.32143.33593-.67968 2.72643-1.71123 2.78292-.0706.0508 1.47396-1.78162 1.39207-1.78162 1.39207zm1.78876 1.11699c.32046.0271.61218-.26888.88622 1.36284.0.0 1.60017-.45098 2.00276-1.8047.50764-1.70698-2.88898.44186-2.88898.44186zm7.99395 2.57137c-1.61314-.0501-1.22861.25774-3.46682.90637.0789-.77354-.4804-1.34328-.911-1.54298.40117-.45976 1.80887-1.04923 3.42487-1.391 1.42047.28855.9048 1.64684.95295 2.02761z" class="feet_nails"/><path id="path22817" d="m226.87109 858.61524c-4.36852-.0284-8.48084.0712-11.4082.22852l-1.01953 17.54102c-3.68221 9.68449-6.81023 18.99555-13.77344 26.99414-5.99639 6.88799-11.73388 13.72426-21.6582 18.77343-.52311.26615-1.00587.53662-1.46875.8086-1.72953.86413-3.68117 2.15395-6.0293 3.51172-1.43598.82007-1.639 1.16579-1.33008 1.30273-.68238.19023-1.21959.49941-1.58984.74609-1.42824.99063-2.30039 1.6923-.81445 2.5254-1.29363 1.86759.24269 2.61552 2.47656 3.08789.57527.80014-.74215 1.75419 3.86719 2.22461.1044.0897.20759.1795.3164.26562.13577 1.40165 1.71566 2.34211 5.93555 2.43945.34584.0412.69208.0715 1.03906.0801 1.76013-.20677 6.28808-.12192 9.28321-.9668 2.96408.15648 6.82237.52208 11.48353-1.58747 2.43066-1.10006 4.6265-3.30878 6.16244-5.75295 2.55487-2.35348 5.07182-5.01977 7.12225-7.21093 3.77937-4.03873 6.20986-5.5299 9.05795-7.75333 5.59197-4.36555 12.80453-4.96031 17.17968-8.78321 1.63488-1.42851 3.44692-5.73533 3.71876-7.92968.36537-2.9494.16019-6.25171-.81055-9.22071-1.22092-3.73416-3.90328-7.03717-4.02735-10.91015-.3921-2.75496-.74804-5.52766-.51562-8.61524.0683-3.53867-.12171-7.45799-.25-11.25976-3.95404-.35462-8.57874-.51068-12.94727-.53907z" class="stockings_primary"/><path id="path22839" d="m215.38867 858.88281-1.22656 17.44727c-3.67715 9.67449-6.79659 18.92755-13.70508 26.86328-5.99858 6.8905-11.2612 13.6632-21.13281 18.68555-.25205.12824-.54125.34045-.82617.55664.17401-.0941.33066-.19009.51367-.28321 9.92432-5.04917 15.66181-11.88544 21.6582-18.77343 6.96321-7.99859 10.09123-17.30965 13.77344-26.99414l1.01758-17.5c-.0205-.003-.0334-.0131-.0723-.002zm24.45508.26172c-.008.008-.0173.0138-.0254.0215.12828 3.79812.31823 7.71299.25 11.24804-.23242 3.08758.12352 5.86028.51562 8.61524.0654 2.04287.84507 3.92815 1.74414 5.80078-.68713-1.93724-1.24285-3.86437-1.30664-5.85547-82e-5-.01-.0906-.3063-.0703-.82422-.39173-2.75239-.83141-4.66147-.60156-7.71484 81e-5-.005 95e-5-.0104.002-.0156.0686-3.55282-.37961-7.47648-.50781-11.27539zm-1.00977 49.87109c-1.30417.69331-2.7343 1.27638-4.20898 1.84961 1.59228-.43391 2.99229-1.06384 4.20898-1.84961zm-5.90234 2.51368c-2.85498 1.10371-5.80586 2.31215-8.4082 4.34375-2.84809 2.22343-5.27923 3.71517-9.0586 7.7539-2.05043 2.19116-4.56622 4.85746-7.12109 7.21094-1.53594 2.44417-3.73145 4.65189-6.16211 5.75195-4.66116 2.10955-8.52029 1.74437-11.48437 1.58789-2.99513.84488-7.52308.76003-9.28321.9668-.34698-.009-.69322-.0389-1.03906-.0801-4.21989-.0973-5.79978-1.0378-5.93555-2.43945-.10881-.0861-.212-.17593-.3164-.26562-4.60934-.47043-3.29192-1.42447-3.86719-2.22461-2.23387-.47237-3.77019-1.22031-2.47656-3.08789-1.48594-.83311-.61379-1.53477.81445-2.5254.17706-.11796.3974-.25024.64844-.37695-.81953.42367-1.30381.7849-1.97657 1.41211-.26052.2515-.48976.73945-.34374 1.01563.11236.21257.39975.39098.66015.56445-.2342.39486-.55556.76578-.55859 1.11133-.004.41946.18343.79011.47656 1.07031.55792.5333 1.54534.68642 2.60938.91992.0666.12002.0389.37236.0645.55469.0299.21275.0733.4947.28125.75391.40801.50864 1.35182.66954 3.58203.90624.0623.0536.14252.0138.1543.33399.12229.74045.62753 1.38157 1.56836 1.80469.99923.44938 2.47924.70672 4.60937.75586.34284.0403.68756.0714 1.03711.0801.0137 33e-5.0274-29e-5.041-.002.84768-.0996 2.43007-.13146 4.16406-.24219 1.71096-.10925 3.571-.2996 5.0957-.7207 2.95121.15664 6.87855.51789 11.5918-1.61523 2.48967-1.12677 4.70121-3.35666 6.25976-5.82422 2.55675-2.35741 5.06866-5.01818 7.11329-7.20313 3.76175-4.01991 6.16412-5.49089 9.02539-7.72461 2.35264-1.83667 5.46852-3.40814 8.23437-4.5664zm-58.75 13.34765c-.84752.46268-1.7091.9367-2.65625 1.48438-.72571.4146-1.14715.70348-1.38477.95898-.1165.12526-.17534.28294-.17382.46875-.24547.11327-.44097.212-.63868.3125.25307-.12219.53692-.23736.85547-.32617-.30892-.13694-.1059-.48266 1.33008-1.30273.96498-.55799 1.82481-1.0855 2.66797-1.59571z" class="shadow"/></g><g id="g21942"><path id="path21926" style="fill-opacity:.991554;fill:#000;opacity:1;stroke-dasharray:none;stroke-dashoffset:0;stroke-linecap:butt;stroke-linejoin:miter;stroke-miterlimit:4;stroke-opacity:1;stroke-width:.453543;stroke:none;vector-effect:none" d="m210.86914 934.44531c-8.60664 5.38559-26.4928 5.83157-43.21094 3.93164-.422-.048-.79708-.15173-1.13867-.28906.0531.89833.37345 1.56333 1.13867 1.47656 8.66534.98477 17.64432 1.33969 25.48242.70313 7.6949-.62493 13.79447-2.74388 17.72852-5.82227z"/><path id="path21940" d="m231.5293 914.27539c-.006-.004-.0625.0407-.0801.0488-.91899.60628-1.79427 1.22406-2.61133 1.85742-.22951.18076-.46514.37353-.70312.56836-.60544.49054-1.18842.98815-1.74805 1.49219-.18201.16162-.36062.32229-.54102.48633-1.74451 1.6208-3.29559 3.30333-4.79687 5.02343-.0412.0472-.0819.0953-.12305.14258-2.25097 2.58644-4.40435 5.25423-6.95508 7.91992-.59752.7154-1.31253 1.37193-2.13281 1.97461.83055-.56028 1.83665-1.4019 6.39453-6.52734 4.69277-5.27713 7.00942-8.4509 13.2832-12.86133.005-.0569.03-.11277.0137-.125zm-61.36719 12.98242c-2.93928 1.9915-5.21511 3.68429-5.98047 5.39844-.69363 1.5535-.3798 4.46513 2.17188 5.49805.0531.89833.53802 1.52464 1.30468 1.59765 8.68185.8267 17.88651 1.39438 25.72461.75782 7.06509-.57378 13.17355-2.66333 16.62696-5.33594.51717-.45885.85513-.71307 1.14843-.91992-.0927.0608-.18042.12404-.27539.18359-.11648.0841-.30412.23754-.39453.29883-3.94174 2.92099-9.8973 4.92618-17.34766 5.53125-7.83808.63656-16.81708.28164-25.48242-.70313-.73155.083-1.04948-.52896-1.12304-1.36718-29e-5-9e-5.031-.0902.0312-.0918-2.66129-1.03188-2.99561-4.45064-1.97071-5.79102 1.41581-1.85161 3.32568-3.42995 5.53516-4.92968.004-.0242.0378-.13142.0312-.12696z" class="shadow"/></g><g id="g22734"/><path id="path22846" d="m242.65627 883.17188c-4.68074 3.1328-7.21726 6.33602-8.61914 8.91601-.70094 1.29-1.11971 2.42295-1.38086 3.3125-.26115.88955-.36729 1.54351-.43945 1.83594-66e-5 64e-5-.001.001-.002.002-1.38024 5.90169-1.47955 11.79366-1.82617 17.66797-.008.14203.15142.23058.26758.14844 1.57714-1.09835 3.3216-2.15185 5.29492-3.15235.59219-.30024 1.0178-.348 1.31641-.23632.2986.11167.51519.39331.66601.85546.30166.92431.27956 2.51264.10938 4.34766-.34036 3.67004-1.24846 8.3309-1.02539 11.08203.01.12127.0231.63847.2246.47266l5.125-2.6875c.0472-.0241.10388-.40485.11329-.45703.0.0.93088-5.192 1.76367-11.72657.91707-7.19587 2.33984-16.10758 1.62695-21.46875-.41751-3.13989-1.78645-6.44509-2.96875-8.8457-.45028-.63924-.87161-.9302-1.38494-1.0211l.0319.16131c.3311.0507.84176.31621 1.10703.79334zm.0937.14062c1.17792 2.39171 2.53997 5.68587 2.95312 8.79297.7057 5.30713-.70934 14.22563-1.62695 21.42578-.83221 6.52999-1.76367 11.71875-1.76367 11.71875l-5.125 2.6875c-.4375-5.39583 3.6084-18.68244-1.3125-16.1875-1.98024 1.004-3.7329 2.06323-5.31641 3.16602.3469-5.87903.44733-11.75965 1.82227-17.63868.30632-1.24126 1.04941-7.72716 10.36914-13.96484zm-60.58398 36.75c-.0294-23e-5-.0583.007-.084.0215-2.16589 1.18589-4.32762 2.41517-6.33398 3.70118-.18189.10974-.0381.3865.15625.30078.12872-.0524.56997-.0265 1.17187.15234.6019.17881 1.37879.48467 2.26758.89453 1.77757.81972 4.00836 2.0561 6.24414 3.5293 4.47157 2.94641 8.95712 6.86686 9.93359 10.2168.0232.0791.0997.13014.18164.12109 2.78312-.31577 5.39138-.76991 7.75586-1.38281.10504-.0278.15735-.14568.10743-.24219l-.0293-.0566c-1.59071-4.56542-6.1744-8.52676-10.72461-11.5293-4.55808-3.00773-9.09315-5.04869-10.58008-5.71094-.0208-.01-.0434-.015-.0664-.0156zm-.002.16992c2.97137 1.32338 18.10333 8.14857 21.22266 17.16406l.0293.0566c-2.35486.61041-4.95565 1.06386-7.73243 1.37891-2.01007-6.89584-18.04886-15.63527-19.84375-14.9043 2.00109-1.28263 4.15994-2.51031 6.32422-3.69531z" class="shadow"/><path d="m230.55842 914.91513c1.58351-1.10279 3.33634-2.16114 5.31658-3.16514 4.9209-2.49494.875 10.79167 1.3125 16.1875l5.125-2.6875s.9315-5.18806 1.76371-11.71805c.91761-7.20015 2.33322-16.12019 1.62753-21.42732-.41315-3.1071-1.77539-6.40062-2.95331-8.79233-9.31973 6.23768-10.06306 12.72449-10.36938 13.96575-1.37494 5.87903-1.47573 11.75806-1.82263 17.63709zm-27.17162 22.48131c-3.11933-9.01549-18.25131-15.83993-21.22268-17.16331-2.16428 1.185-4.32412 2.41178-6.32521 3.69441 1.79489-.73097 17.83374 8.00947 19.84381 14.90531 2.77678-.31505 5.3785-.76886 7.73336-1.37926z" id="path21923" class="shoe_primary"/><g id="g21966" style="filter:url(#filter21948)" clip-path="url(#clipPath22835)"><path d="M162 930.6875C194.16217 938.17624 214.64752 926.22088 213.6875 915 199.80804 879.14787 160.31678 921.79119 162 930.6875z" id="path21946" class="shoe_primary_highlight"/><path d="M162 930.6875C194.16217 938.17624 214.64752 926.22088 213.6875 915 199.80804 879.14787 160.31678 921.79119 162 930.6875z" id="path21948" class="shoe_primary_highlight"/><path d="M162 930.6875C194.16217 938.17624 214.64752 926.22088 213.6875 915 199.80804 879.14787 160.31678 921.79119 162 930.6875z" id="path21950" class="shoe_primary_highlight"/><path d="m157.6875 928.25c32.16217 7.48874 52.64752-4.46662 51.6875-15.6875-13.87946-35.85213-53.37072 6.79119-51.6875 15.6875z" id="path21956" class="shoe_primary_highlight"/><path d="m180.6451 927.32338c16.846-1.70695 26.58624-9.88091 25.9174-17.69838-9.36462-23.59022-38.01809 18.48295-25.9174 17.69838z" id="path21958" class="shoe_primary_highlight"/><path d="m184.62504 923.43765c12.08119-3.04286 18.80961-9.83381 18.24996-16.37515-12.48767 5.86089-23.72584 17.26196-18.24996 16.37515z" id="path21964" class="shoe_primary_highlight"/></g><g id="g22537" style="opacity:1"><path id="path22990" d="m377.19336 882.41406a.31253408.31253408.0 00-.30274.19532c-2.00247 4.97752-2.52592 10.76454-2.46289 16.77929.12292 11.72785-1.78574 22.26293-3.17773 34.96875-.32949 3.00754.11762 5.29524 1.07227 7.02149.95464 1.72624 2.41117 2.87506 4.04101 3.6289 3.25969 1.50769 7.22785 1.48005 9.60938 1.47461 7.30554-.009 13.22992-.37999 17.05078-2.47851 1.91043-1.04927 3.2892-2.55356 3.98437-4.62891.69518-2.07535.71535-4.70352-.002-8.03711-3.09604-14.38964-3.82161-31.9663-5.64063-43.03711a.31253408.31253408.0 00-.62109.0273c-.29344 3.95737-.56275 8.494-.0371 14.89844.57332 6.98493.86329 11.44476.78711 14.3125-.0381 1.43387-.16948 2.46743-.39062 3.21094-.22115.74351-.52161 1.19205-.91993 1.51367-1.7045 1.37633-2.61507 1.56665-4.1289 1.50391-1.51384-.0627-3.60845-.4286-7.38086-.21875-1.68719.0939-3.28013.54647-4.73047.85547-1.45034.30899-2.74312.4681-3.8418.0664-2.36078-.86313-4.08365-2.94807-4.80468-6.67187-.72105-3.7238-.40192-9.07053 1.38671-16.30078.93538-3.78111 1.5454-7.67809 1.7168-11.04102.1714-3.36292-.0754-6.18102-.94336-7.87305a.31253408.31253408.0 00-.26367-.16992zm-.0137.3125c1.62503 3.16783 1.06304 11.17095-.79883 18.69727-3.59026 14.51306-1.32474 21.53443 3.61328 23.33984 2.39208.87458 5.41294-.71964 8.69727-.90234 7.49196-.41676 8.21131 1.45301 11.68945-1.35547 1.80476-1.45727 1.78371-5.33045.63672-19.30469-.52393-6.38376-.25413-10.89563.0391-14.84961 1.81257 11.03156 2.53962 28.62185 5.64453 43.05274 2.83943 13.19701-6.1394 14.74752-20.72851 14.76562-4.76419.0109-15.70936.0618-14.41211-11.7793 1.39065-12.69362 3.30297-23.24218 3.17968-35.00585-.0628-5.99445.46131-11.74117 2.43946-16.65821z" class="shadow"/><path id="path21983" class="shoe_accent" d="m371.56037 934.39132c-1.29725 11.84109 9.6483 11.78958 14.41249 11.7787 14.58911-.0181 23.56777-1.56857 20.72834-14.76558-3.10491-14.43089-3.83132-32.02203-5.64389-43.05359-.29319 3.95398-.56383 8.46645-.0399 14.85021 1.14699 13.97424 1.1678 17.84781-.63696 19.30508-3.47814 2.80848-4.1978.93912-11.68976 1.35588-3.28433.1827-6.3035 1.77582-8.69558.90124-4.93802-1.80541-7.20377-8.82689-3.61351-23.33995 1.86187-7.52632 2.42282-15.52926.79779-18.69709-1.97815 4.91704-2.50176 10.66373-2.43894 16.65818.12329 11.76367-1.78947 22.3133-3.18012 35.00692z"/><g id="g21979"><path d="m402.72959 915.08115c-.49176-4.65553-1.29399-9.27158-1.60347-13.20618-.10266-3.75265-.2145-7.53289-.33238-11.33121.0852-2.19443.84035-4.38887 1.48163-6.5833-1.28585-5.20392-2.15547-10.55216-1.61199-16.17184-7.61076-2.69334-13.77259-4.03552-20.93729-1.73437 26e-5 4.2716-2.22259 7.87628-3.75747 11.68734.84604 3.55833 2.33216 6.9335 2.24386 11.19255-1.30336 4.37061-1.86916 8.74123-2.62778 13.11184-1.25408 12.13007-4.37485 32.5107-2.86388 36.9544 1.24681 3.66682 5.24972 4.34943 7.52586 2.64488.57898-.26367.75791-1.45055 1.23744-1.83406.87225 2.00738.99423 2.64029 3.57956 2.73549 2.70742.0997 2.73646-.85715 3.11585-1.8516.071-.36469.43429-1.22425.82886.12123.27691.94429.5324 2.13546 2.90555 1.71282 2.66563-.47472 2.20634-1.87055 2.51907-3.40295.11986-.47417.33799-1.3467.85481.20731.26148.78622 1.23289 1.76217 2.28297 1.64885 2.14466-.23144 2.51354-2.24469 3.28334-3.40369.47894-.72107.14732-1.36699 1.17975.13385.35809.52056.95228 1.17539 2.23233 1.10432 1.2827-.0712 2.09315-.96953 2.16552-2.36439.27878-5.37319-1.66972-6.04766-2.09924-8.63996-.34683-2.09324-.31779-3.9926-.57452-6.09879-.20479-1.68006-1.02838-6.63254-1.02838-6.63254z" class="skin feet" id="path21971-3"/><path d="m381.08034 940.28938c-.056-1.64507-.3451-3.41831-.60937-5.10343-.29486-1.88018.37168-2.32563.52746-3.51093.80904 2.19096.68138 2.14948.75379 3.86344.05 1.18331-.2502 3.23497-.3125 4.31029z" id="path22915" class="shadow"/><path d="m396.35931 879.09549c.33577 5.97053 1.94225 6.86306 4.45368 11.7344-4.10767-5.64573-4.49649-6.43544-4.45368-11.7344z" class="shadow" id="path21973"/><path d="m388.17409 940.49768c-.056-1.64507-.18885-4.05925-.45312-5.74437-.29486-1.88018.0592-2.34164.21496-3.52694.80904 2.19096.50951 2.14948.58192 3.86344.05 1.1833.0779 3.89192.0156 4.96723z" id="path22938" class="shadow"/><path d="m378.16402 886.94417c3.50178-2.27327 4.23806-2.786 5.89065-7.82868-.78635 4.34205-1.48231 5.32462-5.89065 7.82868z" class="shadow" id="path21975"/><path d="m394.66041 938.43988c-.0448-1.15932-.11721-2.35927-.26757-3.31804-.29486-1.88017-.0814-2.38971.0743-3.575.80904 2.19096.59276 2.14791.58192 3.86343-.004.70465-.10489 1.9347-.12067 3.07677-.10408-.008-.17782-.0723-.26802-.0472z" id="path22940" class="shadow"/><path d="m401.21219 936.83728c.0158-2.76779-.77653-4.29422-.9573-6.11699 1.41805 2.63268.97735 3.63538 1.17635 6.08605-.10423.006-.13293-.006-.21909.031z" id="path22942" class="shadow"/><path id="path22997" style="display:inline;fill-opacity:1;fill:#000;opacity:1" d="m400.66406 867.78906c-.54348 5.61968.32548 10.96796 1.61133 16.17188-.64128 2.19443-1.39722 4.3876-1.48242 6.58203.11788 3.79832.23132 7.57938.33398 11.33203.30948 3.9346 1.11176 8.5515 1.60352 13.20703.0.0.82255 4.9508 1.02734 6.63086.25673 2.10619.22739 4.00637.57422 6.09961.42952 2.5923 2.37839 3.26743 2.09961 8.64062-.0724 1.39487-.88332 2.29209-2.16602 2.36329-1.28005.0711-1.87433-.58296-2.23242-1.10352-1.03243-1.50084-.70074-.85584-1.17968-.13477-.7698 1.15901-1.13855 3.17286-3.28321 3.4043-1.05008.11332-2.02172-.86222-2.2832-1.64844-.51682-1.55401-.73366-.6812-.85352-.20703-.31273 1.5324.1461 2.92763-2.51953 3.40235-2.37315.42264-2.62934-.7686-2.90625-1.71289-.39457-1.34548-.75712-.48579-.82812-.1211-.37939.99445-.40782 1.95126-3.11524 1.85157-2.58533-.0952-2.70782-.72895-3.58007-2.73633-.47953.38351-.65931 1.57031-1.23829 1.83398-2.27614 1.70455-6.27858 1.02229-7.52539-2.64453-1.51097-4.4437 1.6092-24.82305 2.86328-36.95312.75862-4.37062 1.32555-8.74268 2.62891-13.11329.0883-4.25905-1.3981-7.63307-2.24414-11.1914 1.53488-3.81106 3.75807-7.4159 3.75781-11.6875-.0178-.51694.10468-2.22476-.11719-.082 26e-5 4.19988-2.28818 7.85808-3.83203 11.6914-.0161.0397-.0195.0833-.01.125.85076 3.57819 2.32148 6.92378 2.23828 11.125-1.30121 4.378-1.86963 8.74575-2.625 13.09766-8e-4.005-.001.009-.002.0137-.62646 6.05937-1.72034 14.18818-2.46875 21.35938-.37421 3.5856-.66179 6.93072-.76172 9.66406-.0999 2.73333-.0233 4.84054.37695 6.01758 1.28151 3.76887 5.41088 4.52286 7.80664 2.76562l.002-.002c.38683-.17763.57654-.5887.75586-.9707.11848-.25239.23362-.47073.34766-.64844.34578.80799.60387 1.42756 1.05469 1.83789.51507.46882 1.25505.65686 2.56445.70508 1.37804.0507 2.12552-.16577 2.57617-.56836.45066-.40259.5578-.93781.74024-1.41602.004-.0114.008-.0232.01-.0352.0144-.0737.0478-.1846.0899-.27735.036-.0796.0761-.12393.0937-.14258.0516.0587.14762.23808.24218.56055.1367.46614.27395 1.04724.72657 1.46289.45261.41565 1.19517.61195 2.41601.39453 1.36924-.24385 2.01047-.76354 2.29492-1.42578.28318-.65926.24113-1.3974.38868-2.12891l.002-.004c39e-5-.002-4e-4-.004.0-.006.0295-.11665.0628-.25098.10156-.35742.0244-.067.0336-.0742.0508-.10157.0691.0958.17817.3149.30274.68946.14685.44156.47458.90509.91211 1.25781.43752.35272.99318.59543 1.58789.53125 1.13465-.12245 1.83059-.73709 2.30664-1.44336.47604-.70627.76416-1.50456 1.12695-2.05078.13368-.20126.20852-.39654.26172-.53711.0117-.031.0196-.0453.0293-.0703.004.005.003.003.008.008.10772.12344.28194.36256.53906.73633.37279.54193 1.0604 1.26851 2.41406 1.19336.68692-.0381 1.26803-.30518 1.67774-.75391.40971-.44873.64546-1.0716.68359-1.80664.14071-2.71193-.28521-4.26874-.80078-5.45508-.51556-1.18634-1.09574-1.97924-1.30273-3.22851-.34323-2.07149-.3135-3.96891-.57227-6.0918-.20657-1.69463-1.02445-6.60953-1.02734-6.62695l-.002-.0117c-.49243-4.65686-1.29104-9.26572-1.59961-13.17969-.10254-3.74849-.21625-7.52452-.33398-11.31836v-.004c.0843-2.15117.83185-4.32784 1.47461-6.52735.0101-.035.0108-.0721.002-.10742-1.28314-5.19296-2.26485-10.6111-1.72461-16.19727.005-.34584-.0199-.57299-.0879.0742z"/><path id="path44334-2-2" d="m403.11628 935.83511c.47188-.68218 1.47496-.44206 2.12132-.0774.0.0-.30075-2.03311-1.08275-1.83406-.9319.2372-1.03857 1.91139-1.03857 1.91139zm-6.93902 1.89093c1.04036-1.08116 2.22059-.73152 2.9048-.0754.0.0.21178-2.39018-1.25575-2.31725-1.5159.0753-1.64905 2.39268-1.64905 2.39268zm-6.48582 1.47174c1.01277-.77873 2.20828-.43927 3.42884-.13748.0.0-.65013-2.48519-2.21996-2.29764-1.3865.16564-1.20888 2.43512-1.20888 2.43512zm-3.31456.53032c-.75796-.39481-1.25973-1.06986-3.0494-.37564.0.0-.24804-2.05783 1.19324-2.18447 2.16979-.19064 1.85616 2.56011 1.85616 2.56011zm-11.51638-.38204c1.51694-.70935 3.06265-1.3533 5.21492-.61871-.0789-.77354-.28522-1.53859-1.23744-2.25391-1.64019-.33912-3.14012-.25745-4.48571.28726.0304 1.00079.0218 2.04056.50823 2.58536z" class="feet_nails"/><path d="m402.72959 915.08115c-.49176-4.65553-1.29399-9.27158-1.60347-13.20618-.10266-3.75265-.2145-7.53289-.33238-11.33121.0852-2.19443.84035-4.38887 1.48163-6.5833-1.28585-5.20392-2.15547-10.55216-1.61199-16.17184-7.61076-2.69334-13.77259-4.03552-20.93729-1.73437 26e-5 4.2716-2.22259 7.87628-3.75747 11.68734.84604 3.55833 2.33216 6.9335 2.24386 11.19255-1.30336 4.37061-1.86916 8.74123-2.62778 13.11184-1.25408 12.13007-4.37485 32.5107-2.86388 36.9544 1.24681 3.66682 5.24972 4.34943 7.52586 2.64488.57898-.26367.75791-1.45055 1.23744-1.83406.87225 2.00738.99423 2.64029 3.57956 2.73549 2.70742.0997 2.73646-.85715 3.11585-1.8516.071-.36469.43429-1.22425.82886.12123.27691.94429.5324 2.13546 2.90555 1.71282 2.66563-.47472 2.20634-1.87055 2.51907-3.40295.11986-.47417.33799-1.3467.85481.20731.26148.78622 1.23289 1.76217 2.28297 1.64885 2.14466-.23144 2.51354-2.24469 3.28334-3.40369.47894-.72107.14732-1.36699 1.17975.13385.35809.52056.95228 1.17539 2.23233 1.10432 1.2827-.0712 2.09315-.96953 2.16552-2.36439.27878-5.37319-1.66972-6.04766-2.09924-8.63996-.34683-2.09324-.31779-3.9926-.57452-6.09879-.20479-1.68006-1.02838-6.63254-1.02838-6.63254z" class="stockings_primary" id="path22971"/></g><path id="path21985" d="m373.70205 942.75374c3.2207 3.44863 9.10794 3.4235 12.27081 3.41628 7.57926-.009 13.64429-.43239 17.32467-2.68711-5.73629 3.65755-6.37872 3.80005-16.91501 4.20053-3.74826.14247-11.83359-.16405-12.68047-4.9297z" style="display:inline;fill-opacity:1;fill:#000;opacity:1;stroke-width:.999995"/><g id="g22001" style="filter:url(#filter22159)" clip-path="url(#clipPath22979)"><path d="m385.90352 940.54041c-11.29536-2.98711-14.66555-13.32033-5.30329-22.98098l12.28597.88389c9.35938-6.60521 11.53605 10.24934 9.55936 14.23643-2.03405 4.10278-5.5335 6.51356-16.54204 7.86066z" id="path21987" class="shoe_primary_highlight"/><path d="m385.90352 940.54041c-11.29536-2.98711-14.66555-13.32033-5.30329-22.98098l12.28597.88389c9.35938-6.60521 11.53605 10.24934 9.55936 14.23643-2.03405 4.10278-5.5335 6.51356-16.54204 7.86066z" id="path21989" class="shoe_primary_highlight"/><path d="m385.90352 940.54041c-11.29536-2.98711-14.66555-13.32033-5.30329-22.98098l12.28597.88389c9.35938-6.60521 11.53605 10.24934 9.55936 14.23643-2.03405 4.10278-5.5335 6.51356-16.54204 7.86066z" id="path21992" class="shoe_primary_highlight"/><path d="m385.78291 937.80037c-9.86633-2.98711-12.81014-13.32033-4.63234-22.98098l10.73161.88389c8.17528-6.60521 10.07657 10.24934 8.34996 14.23643-1.77671 4.10278-4.83343 6.51356-14.44923 7.86066z" id="path21995" class="shoe_primary_highlight"/><path d="m386.45077 934.53c-8.61593-2.98711-11.18666-13.32033-4.04527-22.98098l9.37155.88389c7.1392-6.60521 8.79953 10.24934 7.29174 14.23643-1.55154 4.10278-4.22087 6.51356-12.61802 7.86066z" id="path21997" class="shoe_primary_highlight"/><path d="m386.46539 930.81769c-7.79424-2.98711-10.1198-13.32033-3.65947-22.98098l8.47779.88389c6.45834-6.60521 7.96033 10.24934 6.59634 14.23643-1.40358 4.10278-3.81833 6.51356-11.41466 7.86066z" id="path21999" class="shoe_primary_highlight"/></g><path id="path22983" d="m377.19336 882.41406a.31292429.31292429.0 00-.30469.19532c-1.35705 3.37319-2.03425 7.1197-2.31055 11.05468-.13139 1.8716-.1707 3.78602-.15039 5.72461a.31292429.31292429.0 00.008.0664c.025.10989.0713.23233.19726.32226.12597.0899.30192.0869.41211.0469.22038-.0799.34406-.23017.50391-.42969.3197-.39904.68905-1.03656 1.0664-1.83789.75472-1.60267 1.52243-3.83868 1.70899-5.91016.34949-3.88055.10127-7.17836-.86524-9.0625a.31292429.31292429.0 00-.26562-.16992zm-.0137.3125c.90646 1.76707 1.17879 5.04239.83203 8.89258-.36287 4.02915-3.02291 8.8594-3.27149 7.76563-.0202-1.93212.0197-3.83806.15039-5.69922.27475-3.91313.94851-7.6268 2.28907-10.95899zm23.84765 5.3125a.31292429.31292429.0 00-.2832.28906c-.14188 1.91346-.27818 3.96279-.32226 6.29297-.0398 2.37375.39239 3.64665.88671 4.34375.24716.34855.51062.54753.72071.65625.21008.10873.39843.13086.39843.13086a.31292429.31292429.0 00.33594-.3457c-.43014-4.09557-.86778-7.8758-1.39844-11.10547a.31292429.31292429.0 00-.29101-.26172.31292429.31292429.0 00-.0469.0zm.0293.3125c.52879 3.21829.96655 6.99438 1.39648 11.08789.0.0-1.79694-.1454-1.71874-4.8125.0439-2.32139.1805-4.36355.32226-6.27539zm3.61719 30.97461a.31292429.31292429.0 00-.14063.0449c-9.55022 5.8267-20.65809 3.85157-31.58593 3.375a.31292429.31292429.0 00-.32422.27344c-.28506 2.26907-.57997 4.58062-.86719 6.95899a.31292429.31292429.0 00.32226.3496c1.09517-.0411 3.06836.1693 5.55079.40235 2.48243.23305 5.48776.4852 8.71289.52148 6.45024.0726 13.78724-.7165 19.60351-4.31836a.31292429.31292429.0 00.14453-.32031c-.40408-2.29994-.76172-4.65127-1.08398-7.01758a.31292429.31292429.0 00-.33203-.26953zm.0215.3125c.3227 2.36953.68101 4.72456 1.08594 7.0293-11.46641 7.10082-29.12602 3.17523-33.71484 3.34765.28705-2.37699.58207-4.68753.86718-6.95703 10.89892.4753 22.09294 2.47911 31.76172-3.41992z" class="shadow"/><path id="path22973" class="shoe_primary" d="m378.01185 891.61894c.34676-3.85019.074-7.12565-.83246-8.89272-1.34056 3.33219-2.01311 7.04539-2.28785 10.95852-.13067 1.86116-.17134 3.76754-.15109 5.69966.24858 1.09377 2.90853-3.73631 3.2714-7.76546zm-5.07809 31.43916c-.28511 2.2695-.58056 4.58044-.86761 6.95743 4.58882-.17243 22.24798 3.75264 33.71439-3.34818-.40493-2.30474-.76246-4.65952-1.08516-7.02905-9.66878 5.89903-20.8627 3.8951-31.76162 3.4198zm29.51862-23.61888c-.42993-4.09351-.86628-7.87008-1.39507-11.08837-.14176 1.91184-.27826 3.95425-.3222 6.27564-.0782 4.6671 1.71727 4.81273 1.71727 4.81273z"/></g><g id="g22602" style="opacity:.438095;stroke-width:1.25955" transform="matrix(1.1084218,-0.02090126,0.06978064,0.56735734,-76.02705,407.59539)"/></svg>