<svg viewBox="0 0 560 1e3"><path id="path39040" d="m377.10275 382.9259c.10055.23275.2012.46217.30155.69763 55e-5-.004.001-.009.002-.0137-.10096-.23697-.20254-.44958-.30366-.68398.01.01-5e-5 1e-5-5e-5 1e-5s13e-5 4e-5 13e-5 4e-5z" style="fill:#010101"/><path id="path39042" d="m360.70551 352.00393c-22.74134 3.67715-47.83304 8.13193-71.19817 10.93327-23.39577 2.80502-42.31087 3.67387-56.52673-.0129-.73041 9.37918-1.87365 21.30048-3.14002 31.62269-1.37244 11.18672-3.21571 23.61789-6.80911 38.30594-2.13159 8.71288-4.12586 17.79832-5.13896 26.55935.16502.01.46481-1e-5.46481-1e-5.96426-8.6579 2.84931-17.50559 4.95901-26.21058 3.55842-14.68267 5.38385-27.13888 6.74974-38.32916 1.25545-10.28543 2.41612-22.31085 3.16847-31.64055 14.20103 3.68687 33.03277 2.81713 56.288.0137 23.2117-2.79815 48.2291-7.25995 70.98156-10.93438 4.18388 7.41711 9.91921 15.93659 15.28625 27.66179-5.33561-11.76425-10.90338-20.55809-15.08485-27.96918" class="shadow"/><path id="path39044" d="m360.50411 352.31132c-22.75246 3.67443-47.76986 8.13623-70.98156 10.93438-23.25523 2.8034-42.08697 3.67314-56.288-.0137-.75235 9.3297-1.91302 21.35512-3.16847 31.64055-1.36589 11.19028-3.19132 23.64649-6.74974 38.32916-2.10976 8.70521-3.99442 17.55279-4.95901 26.21058 58.54586.01 175.58019-14e-5 175.58019-14e-5-.005-22.42817-6.91728-48.73422-12.12177-64.19668-6.95902-20.67518-15.47662-32.5599-21.31164-42.90412v-3e-5z" class="bottoms_primary"/></svg>