<svg viewBox="0 0 560 1e3"><path id="path5012" class="shadow" d="m314.44484 114.57671s4.42407.76861 5.75516-.62865c1.57314-1.65133 1.91308-5.11224.41242-6.8297-1.45077-1.66035-4.72008-1.64839-6.59644-.49047-1.5136.93407-2.0324 4.93362-2.0324 4.93362s1.35923-3.37824 2.88913-3.92341c1.25106-.44581 3.04087-.0549 3.85907.99132.91366 1.16822.89119 3.23734.0361 4.44908-.87933 1.24606-4.323 1.49821-4.323 1.49821z"/><path d="m314.65711 114.18775s4.02188.69873 5.23196-.5715c1.43013-1.50121 1.73917-4.64749.37493-6.20882-1.31888-1.50941-4.29098-1.49854-5.99676-.44588-1.376.84915-1.84764 4.48511-1.84764 4.48511s1.23566-3.07113 2.62648-3.56674c1.13733-.40528 2.76443-.0499 3.50825.9012.8306 1.06202.81017 2.94304.0328 4.04462-.79939 1.13278-3.93 1.36201-3.93 1.36201z" class="steel_piercing" id="XMLID_525_-3-5"/><path id="path5014" class="shadow" d="m307.10254 117.30984s4.42407.76861 5.75516-.62865c1.57314-1.65133 1.91308-5.11224.41242-6.8297-1.45077-1.66035-4.72008-1.64839-6.59644-.49047-1.5136.93407-2.0324 4.93362-2.0324 4.93362s1.35923-3.37824 2.88913-3.92341c1.25106-.44581 3.04087-.0549 3.85907.99132.91366 1.16822.89119 3.23734.0361 4.44908-.87933 1.24606-4.323 1.49821-4.323 1.49821z"/><path d="m307.31481 116.92088s4.02188.69873 5.23196-.5715c1.43013-1.50121 1.73917-4.64749.37493-6.20882-1.31888-1.50941-4.29098-1.49854-5.99676-.44588-1.376.84915-1.84764 4.48511-1.84764 4.48511s1.23566-3.07113 2.62648-3.56674c1.13733-.40528 2.76443-.0499 3.50825.9012.8306 1.06202.81017 2.94304.0328 4.04462-.79939 1.13278-3.93 1.36201-3.93 1.36201z" class="steel_piercing" id="XMLID_525_-3-5-1"/><path id="path5016" class="shadow" d="m300.81498 121.16851s4.42407.7686 5.75516-.62865c1.57314-1.65133 1.91308-5.11225.41242-6.8297-1.45077-1.66036-4.72008-1.64839-6.59644-.49047-1.5136.93407-2.0324 4.93362-2.0324 4.93362s1.35923-3.37825 2.88913-3.92341c1.25106-.44581 3.04087-.0549 3.85907.99132.91367 1.16821.8912 3.23734.0361 4.44908-.87933 1.24606-4.323 1.49821-4.323 1.49821z"/><path d="m301.02725 120.77955s4.02188.69872 5.23196-.5715c1.43013-1.50121 1.73917-4.6475.37493-6.20882-1.31888-1.50942-4.29098-1.49854-5.99676-.44588-1.376.84915-1.84764 4.48511-1.84764 4.48511s1.23566-3.07114 2.62648-3.56674c1.13733-.40528 2.76443-.0499 3.50825.9012.83061 1.06201.81018 2.94304.0328 4.04462-.79939 1.13278-3.93 1.36201-3.93 1.36201z" class="steel_piercing" id="XMLID_525_-3-5-5"/><path id="path5022" class="shadow" d="m271.9775 126.63035s-3.39634 1.71441-4.81996.91024c-1.68249-.9504-2.81184-3.6718-2.01917-5.4341.76632-1.70371 3.41923-2.50056 5.22578-2.02489 1.45729.38371 2.86449 3.49759 2.86449 3.49759s-1.93514-2.40294-3.3097-2.4674c-1.12404-.0527-2.47832.70572-2.88343 1.75554-.45238 1.1723.0763 2.84391 1.06834 3.61513 1.02015.79307 3.87364.14791 3.87364.14791z"/><path d="m271.71174 126.37764s-3.08758 1.55855-4.38178.82749c-1.52954-.864-2.55622-3.338-1.83561-4.94009.69665-1.54883 3.10839-2.27324 4.75071-1.84081 1.32481.34882 2.60408 3.17962 2.60408 3.17962s-1.75922-2.18449-3.00882-2.24309c-1.02185-.0479-2.25302.64157-2.6213 1.59595-.41125 1.06573.0694 2.58537.97122 3.28648.92741.72097 3.52149.13446 3.52149.13446z" class="steel_piercing" id="XMLID_525_-3-5-5-1-2"/><path id="path5020" class="shadow" d="m274.62915 125.56969s-3.39634 1.71441-4.81996.91024c-1.6825-.9504-2.81185-3.67179-2.01917-5.4341.76632-1.70371 3.41923-2.50055 5.22578-2.02489 1.45729.3837 2.86449 3.49758 2.86449 3.49758s-1.93514-2.40293-3.3097-2.46739c-1.12404-.0527-2.47832.70572-2.88343 1.75554-.45238 1.1723.0762 2.84391 1.06834 3.61513 1.02015.79307 3.87364.1479 3.87364.1479z"/><path d="m274.36339 125.31698s-3.08758 1.55855-4.38178.82749c-1.52955-.864-2.55623-3.33799-1.83561-4.94009.69665-1.54883 3.10839-2.27323 4.75071-1.84081 1.32481.34882 2.60408 3.17962 2.60408 3.17962s-1.75922-2.18449-3.00882-2.24309c-1.02185-.0479-2.25302.64157-2.6213 1.59595-.41125 1.06573.0693 2.58537.97122 3.28648.92741.72097 3.52149.13446 3.52149.13446z" class="steel_piercing" id="XMLID_525_-3-5-5-1-1"/><path id="path5018" class="shadow" d="m278.71505 125.67399s-3.39633 1.71441-4.81996.91024c-1.68249-.9504-2.81184-3.6718-2.01917-5.4341.76632-1.70371 3.41923-2.50055 5.22578-2.02489 1.45729.3837 2.86449 3.49758 2.86449 3.49758s-1.93513-2.40293-3.3097-2.46739c-1.12404-.0527-2.47832.70572-2.88343 1.75554-.45238 1.17231.0763 2.84391 1.06834 3.61513 1.02015.79307 3.87364.1479 3.87364.1479z"/><path d="m278.44929 125.42128s-3.08757 1.55855-4.38178.82749c-1.52954-.864-2.55622-3.338-1.83561-4.94009.69665-1.54883 3.10839-2.27323 4.75071-1.84081 1.32481.34882 2.60408 3.17962 2.60408 3.17962s-1.75921-2.18449-3.00882-2.24309c-1.02185-.0479-2.25302.64157-2.6213 1.59595-.41125 1.06574.0694 2.58537.97122 3.28648.92741.72097 3.52149.13446 3.52149.13446z" class="steel_piercing" id="XMLID_525_-3-5-5-1"/></svg>