<svg viewBox="0 0 560 1e3"><path class="shadow" d="m363.25175 355.60756c-12.60625 9.76315-30.69758 17.82377-51.68319 24.4052-20.53462 6.44001-42.61999 11.05022-62.10567 13.07693-20.0626 2.08672-31.09399-.36438-37.94932-3.6417-6.63521-3.17207-9.50223-7.35973-10.18865-8.2722-.28146 10.29152 1.6193 18.57009 5.01044 28.54141 3.70671 10.89925 6.08601 16.45167 8.33899 25.98243 2.01987 8.54464 3.87935 17.05086 2.49613 23.71219.16672.01.46548 1e-5.46548 1e-5 1.77869-7.20558-.3847-15.29971-2.44114-23.69339-2.33699-9.5388-5.69729-17.33796-8.93668-26.76917-3.20102-9.31954-5.09294-17.5321-4.78964-27.33311.68985.91392 3.56912 5.1162 10.24054 8.3062 6.88848 3.29379 17.97021 5.7614 37.99453 3.6746 19.46895-2.02892 41.35754-6.56227 61.76144-12.93757 20.80729-6.50135 38.92808-14.53086 51.62281-24.29323 6.01895 8.60287 8.46303 17.04669 14.36447 25.69717 6.09593 8.93078 11.45344 16.51387 15.93135 25.67995 4.28193 8.76492 7.40933 18.41208 8.68853 29.57545.68722 5.99724.3113 14.11679-.29278 22.09337.11937.01.3281.0.3281.0.68046-7.55425 1.11287-14.93791.38584-22.08845-2.05651-17.84084-8.50538-31.35553-17.29654-44.83065-3.15005-5.02181-6.33254-9.07553-9.07159-13.64085-.59678-.99696-1.15999-1.99827-1.70569-3.00705-3.74967-6.67658-7.71183-15.73118-11.16776-20.23754z" id="path34818-5-71"/><path class="bottoms_primary" d="m363.08782 356.36616c-12.69473 9.76237-30.81552 17.79188-51.62281 24.29323-20.4039 6.3753-42.29249 10.90865-61.76144 12.93757-20.02432 2.0868-31.10605-.38081-37.99453-3.6746-6.67142-3.19-9.55069-7.39228-10.24054-8.3062-.30325 9.80101 1.58862 18.01357 4.78964 27.33311 3.23939 9.43121 6.59969 17.23037 8.93668 26.76917 2.05644 8.39368 3.78233 17.70656 2.44113 23.69339 61.46405.0113 184.14344 27e-5 184.14344 27e-5.60408-7.97658.98-16.09614.29278-22.09337-1.2792-11.16337-4.4066-20.81053-8.68853-29.57545-4.47791-9.16608-9.83542-16.74917-15.93135-25.67995-5.89314-8.63368-8.35404-17.11103-14.36447-25.69717z" id="path34820-6-6"/><path class="bottoms_accent" d="m373.53746 375.55906c-14.95148 9.95616-33.29843 18.52214-51.50374 24.85819-18.50662 6.44093-37.82712 10.94377-59.62558 13.41001-15.3731 1.7393-27.58738.85154-37.22498-1.40888-9.69184-2.27315-16.27029-5.82642-20.83009-9.4937.0873.28966.2319.83866.2319.83866 4.69237 3.73647 11.38766 7.27438 21.14044 9.51124 9.70148 2.2251 21.92498 3.05917 37.31559 1.31349 21.39213-2.42639 40.29328-6.83021 58.43743-13.1159 17.81021-6.16999 35.92614-14.54871 50.81232-24.23195-.10015.0929-.33409.24839-.33409.24839.78883.80902 2.40166 3.28904 4.1513 6.74787 1.73531 3.43052 3.7631 7.9847 5.77755 13.14151 4.14742 10.61695 8.02391 23.20053 10.32402 36.38228 1.54043 8.82797 2.26639 17.82495 1.79746 25.65175 1.35296.01 4.02869 3e-5 4.02869 3e-5.37496-8.19967-.45823-17.37073-1.99278-26.33583-2.30103-13.44298-6.0234-26.20374-10.08904-37.00839-.43315-1.15113-.86609-2.25306-1.2974-3.33653-2.34165-3.57299-4.72287-7.03277-7.20417-10.66797-1.3491-1.97648-2.51594-3.95824-3.61119-5.97922.005.0147-.0184.0133-.0184.0133.001.002-.2865-.5407-.28528-.5384v1e-5z" id="path34822-1-2"/><path class="bottoms_accent" d="m363.7081 357.27938c-12.8103 9.82045-31.05286 17.90712-51.88562 24.44849-20.43552 6.41664-42.27893 10.97809-61.75471 13.01831-20.01072 2.09627-31.17218-.38542-38.10462-3.67228-3.4311-1.62678-5.79568-3.46074-7.40592-4.98551-1.61037-1.52489-2.71411-3.02941-3.1059-3.54469-.001.32603-.0246.94735-.0246.94735.3542.46197 1.17398 1.62367 2.81302 3.17335 1.66134 1.57075 4.08969 3.44883 7.59657 5.10885 7.08201 3.35234 18.43542 5.8446 38.50653 3.73496 19.49604-2.04919 41.2783-6.60987 61.7158-13.04369 20.81976-6.55414 39.15589-14.68167 52.07141-24.56446.004.007-.42639-.6273-.42189-.62068h-7e-5z" id="path34824-5-4"/><path class="bottoms_accent" id="path103099-2" d="m253.24352 401.01973c-3.28848.8609-3.58424 3.4132-3.66886 4.35501-.36536 4.06642.31204 6.79758.68715 9.97269-.7659 1.27789-.4043 2.47641-.24256 3.83711.54227.28286 1.03816.28536 1.79888-.18584.46812 3.94607 2.65631 10.03241 3.8746 13.64818l2.79169-.92248c-2.52951-4.42614-3.35962-8.33639-4.65366-12.38749-.48236-3.41474-.42548-6.98256-.27406-10.57724l.59894 1.19434c-.16576 2.81275-.37637 5.88541.25229 8.21202.73385 2.71605 2.89191 3.82996 4.76773 3.29182 1.43407-.41128 2.41205-1.46132 2.9154-3.00414-.2588-1.43205-.58878-2.94057-.91941-4.61172-1.30168-1.65422-3.28935-3.52922-5.73403-5.55132.003-.73592-.26936-1.28349-.46901-1.88092.58227.11876.91853-.0576.97537-.56926.73217-.29133 2.06058-.18718 2.18638-.88057 2.32771 2.56742 4.13188 2.28462 5.83112 1.43066-.021-.97492-.16693-2.20428.19721-2.3949l-.27349-.73448c-2.41996-.56131-4.98329-1.25718-7.75725-2.15076-.82274-.33114-1.72382-.39456-2.88443-.0907zm-1.25114 1.19979.46008 2.07836c-.53685.40241-.6066.86507.11349 1.4296-.87011 3.62082-.83887 7.80847-.78004 12.01346-.76503-6.11241-2.4024-13.20672.20647-15.52142zm2.82607 1.60159c.63883.1763 1.17684.31388 1.42883.34152-.26894.20987-.38643.4484-1.1728.56034-.2583-.25152-.22437-.586-.25603-.90186zm.47202 7.72734c2.17141 1.63467 4.53134 3.27784 5.43903 4.85543l-.81475 2.05045c-.65836.14251-1.24335.26514-1.70984.84274-.55236.68389-1.32454.97239-2.14664.21959-.99842-2.56653-1.35935-5.20994-.7678-7.96821z"/></svg>