<svg viewBox="0 0 560 1e3"><defs><filter style="color-interpolation-filters:sRGB" id="filter7249"><feGaussianBlur stdDeviation="1 1" result="blur" id="feGaussianBlur7247"/></filter><clipPath clipPathUnits="userSpaceOnUse" id="clipPath7253"><path style="fill-opacity:.44991216;fill:#00e0e8" id="path7255" d="m269.65 443.725c6.5-.4 20.8 4.1 23.4 9.6 2.1 4.6 1-1.5-2.3 2.6-1.9.8-5 2.2-8.9 3.7-8.6 3.5-10.3 3.8-13.4 6.1-3.3 2.5-5.7 5.5-7 7-1.1 1.3-2.5 3.2-3.9 5.5-.4.7-.8 1.4-1.1 2s-.6 1.2-.9 1.7c-2.6 7.9-6.1 15.8-4.7 23.3v2.2c0 .7-.1 1.4-.2 2.2-2.1 4 3.2 3.1 4.1 6.6.9 4.4.0 7.9-.3 12.3-.2.7-.4 1.3-.6 1.9-2 6.1-4.8 8.7-4.8 8.7-.6.5-1.9 1.8-3.6 2.9-.6.3-1.2.7-1.8.9-10 3.1-14.4-8.3-16.6-15.6-.2-.8-.4-1.6-.5-2.4-.6-3.3-.5-6.8 1.3-8.7.4-.4.9-.7 1.3-1.1.4-.3.7-.7.9-1.3-3.4-10.8-.7-20.5.5-30.7.1-.8.2-1.5.3-2.2.8-4.9.7-6.3 2.8-10.9.8-1.8 3.1-8.8 9.7-15.3 11.1-11.2 19.3-10.6 26.3-11z"/></clipPath></defs><path d="m248.15 510.825c.1.4 1 .7 1.8.9 6.7.6 6.7 10.6 5.3 16.7-.1.6-.3 1.1-.4 1.7-2.1 7.4-5.3 10.5-5.3 10.5-.6.6-2.9 3-5.9 4.1-.7.3-1.5.5-2.3.6-9.6-.4-13.9-9.4-15.2-17.5-.2-.8-.4-1.7-.6-2.6-.6-3.6-.5-7.4 1.3-9.4.4-.5.9-.8 1.3-1.1.4-.4.8-.7 1-1.4" id="path7"/><path d="m227.45 500.425c0-1.2.0-2.9.1-5.1.1-1.1.3-5 1.1-10.9.5-3.4 1-6.1 1.1-6.7 3.6-17.9 16.5-26.9 16.5-27 1.4-1.2 4.8-3.2 6.2-4.3 2.9-1.8 11.9-6 24.2-2.2 1.8.5 14.1 5.8 16.1 9.1 2.5 4.2-1.6-2.7-2.5-1.8-.4.4-1.1.9-1.9 2-1.1 1.4-1.5 2.6-1.7 3.1-1 2.2-3.5 2.9-7.2 4.4-4.7 1.9-7.7 3.1-10.6 5.3-2.1 1.6-3.6 3.4-6.5 6.9-2.6 3.1-4 4.9-5.3 7.8-.4.9-1.1 2.8-2.6 6.7-.9 2.4-1.2 3.4-1.6 4.6-.6 2.1-1 3.9-1.2 5.2-.8 3.1-2.8 9.1-8 14-2.6 2.4-6 5.5-9.3 4.6-5.4-1.5-6.8-14.7-6.9-15.7z" id="path9"/><path class="skin penis" d="m269.65 443.725c6.5-.4 20.8 4.1 23.4 9.6 2.1 4.6 1-1.5-2.3 2.6-1.9.8-5 2.2-8.9 3.7-8.6 3.5-10.3 3.8-13.4 6.1-3.3 2.5-5.7 5.5-7 7-1.1 1.3-2.5 3.2-3.9 5.5-.4.7-.8 1.4-1.1 2s-.6 1.2-.9 1.7c-2.6 7.9-6.1 15.8-4.7 23.3v2.2c0 .7-.1 1.4-.2 2.2-2.1 4 3.2 3.1 4.1 6.6.9 4.4.0 7.9-.3 12.3-.2.7-.4 1.3-.6 1.9-2 6.1-4.8 8.7-4.8 8.7-.6.5-1.9 1.8-3.6 2.9-.6.3-1.2.7-1.8.9-10 3.1-14.4-8.3-16.6-15.6-.2-.8-.4-1.6-.5-2.4-.6-3.3-.5-6.8 1.3-8.7.4-.4.9-.7 1.3-1.1.4-.3.7-.7.9-1.3-3.4-10.8-.7-20.5.5-30.7.1-.8.2-1.5.3-2.2.8-4.9.7-6.3 2.8-10.9.8-1.8 3.1-8.8 9.7-15.3 11.1-11.2 19.3-10.6 26.3-11z" id="path11"/><g id="g7245" style="filter:url(#filter7249)" clip-path="url(#clipPath7253)"><path class="skin_highlight" id="path7046-2-45" d="m277.56152 444.81067c-19.87658-3.15601-44.89979 26.04773-48.26004 45.05596-23.02954-49.63312 27.92742-71.43902 48.26004-45.05596z"/><path class="skin_shade" d="m284.0383 459.07136c-33.2034-2.79015-47.43187 49.27577-29.10419 79.29837 5.21232-.25982 27.04854-75.14691 29.10419-79.29837z" id="path7048-5-5"/><path d="m222.09207 527.7113c-.39231-13.33654-1.12846-18.47983 3.02655-19.87768 2.57181-4.72372 10.81879 23.00638-3.02655 19.87768z" id="path7134-6" class="skin_highlight"/></g></svg>