<svg viewBox="0 0 560 1e3"><path class="shadow" d="m363.2551 356.30796c-13.09613 10.32286-30.10387 18.89443-48.4211 25.50559-18.1878 6.56445-37.29779 11.05303-54.98263 13.03175-18.10529 2.02576-28.41121-.40284-34.85453-3.59581-6.26473-3.10446-9.17749-7.21928-9.88078-8.1306.48511 10.5653 1.42181 17.83505 2.23469 27.82691.79429 9.76335.81892 16.59841.58325 25.14926-.21732 7.88528.73322 15.58608-.76399 23.31716.16672.01.46505.0.46505.0 1.5562-7.87116.6944-15.16788.76055-23.29911.57742-17.64225-2.38034-33.92119-3.11681-52.55792.70435.91128 3.62306 5.03946 9.90994 8.15956 6.46364 3.20782 16.80344 5.65221 34.89327 3.62789 17.68003-1.97846 36.65894-6.3906 54.72234-12.88081 18.16977-6.52843 35.1068-15.04057 48.22625-25.35708 5.55177 9.5616 8.44009 17.96089 14.02571 25.89186 6.16793 8.75776 11.54767 16.0901 16.10572 25.06089 4.37178 8.60418 7.5888 18.08805 8.89795 29.26977.70104 5.98759.31539 14.11146-.28063 22.08483.11938.01.3281 1e-5.3281 1e-5.67474-7.54574 1.11967-14.94736.38016-22.08441-2.09381-17.82665-8.77855-31.08448-17.62157-44.1619-3.18247-4.89521-6.39185-8.84142-9.17971-13.34939-.60722-.9841-1.18218-1.97653-1.73855-2.97808-3.81972-6.62788-7.72163-15.8446-10.69268-20.53037z" id="path15065"/><path class="bottoms_primary" d="m363.0306 357.10475c-13.11945 10.31651-30.05648 18.82865-48.22625 25.35708-18.0634 6.49021-37.04231 10.90235-54.72234 12.88081-18.08983 2.02432-28.42963-.42007-34.89327-3.62789-6.28688-3.1201-9.20559-7.24828-9.90994-8.15956.73647 18.63673 3.55741 34.91172 3.11681 52.55792-.20297 8.12897.54565 15.0842-.76055 23.29911 61.42502.0105 184.14429-12e-5 184.14429-12e-5.59602-7.97337.98167-16.09725.28063-22.08483-1.30915-11.18172-4.52617-20.66559-8.89795-29.26977-4.55805-8.97079-9.93779-16.30313-16.10572-25.06089-5.58562-7.93097-8.47394-16.33026-14.02571-25.89186z" id="path15067"/><path class="bottoms_accent" d="m373.07348 376.57152c-14.57828 10.41248-30.89716 19.03456-47.64668 25.33746-16.99913 6.39682-35.20674 10.72821-56.07215 13.08481-14.70054 1.66032-25.91156.76353-34.41543-1.42623-8.5401-2.1991-14.15253-5.65319-18.01432-9.18446.0315.28054.0662.81121.0662.81121 3.94876 3.59749 9.63026 7.0358 18.21676 9.20028 8.55163 2.1557 19.78648 3.0003 34.53969 1.33401 20.52279-2.31793 38.42784-6.55311 55.15317-12.78675 16.47848-6.14163 32.54723-14.53192 46.98336-24.6503-.0961.0957-.32164.25724-.32164.25724.78787.79075 2.43471 3.25094 4.21913 6.65222 1.7769 3.38694 3.83749 7.84119 5.87262 12.90254 4.16896 10.36816 8.02293 22.76043 10.36653 35.78703 1.5815 8.79056 2.34187 17.65524 1.98562 25.52149 1.35321.01 4.02907 2e-5 4.02907 2e-5.32592-8.23595-.52842-17.30439-2.11448-26.2455-2.36032-13.30581-6.14693-25.92314-10.26576-36.47402-.44083-1.12925-.88201-2.2108-1.32187-3.27406-2.38937-3.52129-4.73527-6.81297-7.27697-10.4219-1.36455-1.93752-2.55755-3.89946-3.67373-5.90389.005.0146-.0178.0139-.0178.0139.002.003-.29279-.53784-.29128-.53507z" id="path15069"/><path class="bottoms_accent" d="m363.56866 358.05183c-13.15603 10.36287-30.14194 18.91929-48.33189 25.47705-18.0878 6.52094-37.07606 10.953-54.80791 12.93912-18.12474 2.03013-28.51446-.42713-34.99109-3.62468-3.22019-1.58983-5.4846-3.38434-7.04893-4.88097-1.56135-1.49377-2.67484-2.98123-3.0668-3.48746.0179.32318.0294.9378.0294.9378.35469.4572 1.17213 1.59677 2.75927 3.11815 1.6067 1.54014 3.92347 3.3764 7.20618 4.99735 6.59978 3.25887 17.15149 5.72608 35.36291 3.68521 17.77953-1.99248 36.75398-6.41953 54.84345-12.94998 18.18229-6.56396 35.20517-15.14984 48.41754-25.56952-.12455-.21395-.2486-.42797-.37212-.64207z" id="path15071"/><path class="bottoms_accent" id="path103099-9" d="m262.84864 402.78644c-3.37195.4304-3.99382 2.92338-4.19898 3.84646-.88581 3.98555-.56565 6.78118-.60241 9.97817-.92404 1.16865-.71974 2.40375-.73451 3.77395.50135.35032.99278.41663 1.80784.0473-.0438 3.97349 1.34267 10.29089 2.08534 14.03341l2.88723-.55541c-1.93867-4.71495-2.25848-8.69953-3.02024-12.88351-.0387-3.44842.47697-6.97924 1.0899-10.5245l.4402 1.2615c-.52648 2.768-1.13091 5.78799-.80699 8.17616.37809 2.78793 2.37479 4.17039 4.30428 3.87821 1.47508-.22324 2.5801-1.13864 3.27788-2.60383-.0723-1.45345-.20532-2.99189-.31806-4.69171-1.0779-1.80802-2.80765-3.9233-4.97167-6.2433.0982-.72934-.10189-1.30748-.22296-1.92564.56213.19273.9183.0611 1.04053-.43896.76358-.19465 2.06753.0796 2.28155-.59178 1.97782 2.84572 3.80338 2.79754 5.59842 2.16943.10469-.96951.11823-2.20742.50387-2.34958l-.17665-.76358c-2.32757-.86817-4.77998-1.88824-7.41583-3.1315-.77326-.4343-1.65867-.61319-2.84874-.46128zm-1.39519 1.02874.1887 2.12029c-.58419.32995-.71292.77978-.0715 1.43232-1.329 3.47868-1.83712 7.6355-2.32011 11.81308.0282-6.16004-.68224-13.4061 2.20291-15.36569zm2.59637 1.95208c.61082.25708 1.12664.46277 1.37298.52261-.29373.17351-.44094.39493-1.23518.4047-.22377-.28268-.14706-.61001-.1378-.92731zm-.52669 7.7238c1.94291 1.90061 4.07167 3.83392 4.7687 5.51523l-1.07193 1.9285c-.67122.0566-1.26713.10287-1.80411.61561-.6358.60709-1.43869.79378-2.15704-.0586-.65971-2.67371-.67734-5.34159.26438-8.00076z"/></svg>