<svg viewBox="0 0 560 1e3"><defs><filter style="color-interpolation-filters:sRGB" id="filter66524"><feGaussianBlur stdDeviation="4 10" result="blur" id="feGaussianBlur66522"/></filter><filter style="color-interpolation-filters:sRGB" id="filter66597"><feGaussianBlur stdDeviation="4 10" result="blur" id="feGaussianBlur66595"/></filter><clipPath clipPathUnits="userSpaceOnUse" id="clipPath66599"><path style="fill-opacity:.44288228;fill:#00e0e8;stroke-width:1" d="m343.89361 197.82592c-15.72453-4.77701-17.9247-5.36728-42.59399 5.35303-22.01064 23.76655-44.57086 49.97953-68.6743 76.85759-31.44423 35.0639-39.8301 82.85452-16.41008 116.54313 31.79373 45.73382 133.24274 44.44916 169.90366 2.32531 23.68478-27.21412 22.71658-78.27112-4.88797-116.01217-26.45064-36.16347-35.13341-72.28159-37.33732-85.06689z" id="path66601"/></clipPath><clipPath clipPathUnits="userSpaceOnUse" id="clipPath79477"><path d="m255.19464 213.96776c-18.22413 25.46748-48.06089 55.44133-90.76799 80.02728-21.55249 12.40751-28.2955 22.08983-30.93308 45.03994-3.06271 26.64925 1.24151 49.67596 25.12681 75.27409 28.47233 26.58648 59.81642 31.118 91.72096 17.34994 36.01641-19.6041-14.87542-6.44618 21.47662-51.53214 12.35245-30.01063 19.77933-58.36765 23.83043-79.27953 4.74179-21.32011-3.66387-55.43504-19.9055-75.96262-4.81251-6.08247 3.24747-23.17006-20.54825-10.91696z" id="path79479" style="fill-opacity:.38840105;fill:#2ae0e8;stroke-width:1"/></clipPath></defs><g id="g2276" data-transform="boob_right"><path id="path2272" class="shadow" d="m256.12272 212.64193c-18.79566 26.18221-48.09576 55.81041-95.43126 83.02324-16.10328 9.83858-23.44026 18.00634-26.11547 33.66888-5.13324 30.05359-4.9762 56.22743 24.04439 84.97502 27.72853 28.2487 59.90586 32.47018 91.72096 17.34994 38.11754-18.62095-11.01835-3.47921 21.47662-51.53214 1.96721-33.05024 15.38881-60.39404 19.43991-81.30592 4.74179-21.32011 6.80245-38.22497-21.08756-62.45336-20.20648-17.55364 10.55988-28.54867-14.04759-23.72566z"/><path d="m256.34369 212.1558c-19.68254 28.20752-49.20994 57.25329-91.91704 81.83924-21.55249 12.40751-28.2955 22.08983-30.93308 45.03994-3.06271 26.64925 1.24151 49.67596 25.12681 75.27409 28.47233 26.58648 59.81642 31.118 91.72096 17.34994 36.01641-19.6041-14.87542-6.44618 21.47662-51.53214 12.35245-30.01063 19.77933-58.36765 23.83043-79.27953 4.74179-21.32011-4.6285-54.70738-19.9055-75.96262-4.51389-6.28028 4.39652-24.98202-19.3992-12.72892z" class="skin boob" id="path2274"/><g id="g26521-5-4-9" style="display:inline;filter:url(#filter66524);opacity:1" clip-path="url(#clipPath79477)"><path id="path26499-7-3-5" class="boob_shade" d="m127.69973 350.60946c-66.942462 19.25039-6.88867 170.36488 85.42647 168.4123 81.38658-18.2775 124.22742-122.69976 55.87849-196.48891-57.40115 21.88849-96.45339 56.6349-141.30496 28.07661z"/><path id="path26512-8-1-5" class="boob_highlight" d="m204.551 247.39808c-17.01792 4.14891-42.78027 6.34639-55.79215 13.37715-14.53445 7.85339-12.25036 19.10496-17.58333 26.69077 6.42253 17.30171 131.28126 25.41868 140.07038-1.71461 8.78914-27.13333-3.52344-32.17177-9.40219-35.91686-18.02725-11.48424-50.43843-5.89548-57.29271-2.43645z"/><path d="m199.75006 259.6311c-9.76233 2.6553-23.83425 3.37624-30.88352 7.44104-22.3755 12.90232-17.59177 11.10684-11.20831 18.20241 3.68428 11.07309 70.00315 18.66797 75.04507 1.30267 5.0419-17.36534-2.02123-20.58993-5.39358-22.98681-10.3413-7.34991-23.62773-6.17309-27.55966-3.95931z" class="boob_highlight" id="path26514-3-7-8"/><path d="m128.69973 375.85946c-79.942463 14.00039-1.13867 144.61488 91.17647 142.6623 81.38658-18.2775 101.47742-103.69976 50.12849-170.73891-57.40115 21.88849-96.45339 56.6349-141.30496 28.07661z" class="boob_shade" id="path66512"/><path id="path66514" class="boob_shade" d="m130.44973 396.85946c-83.192462 18.25039-10.38867 131.86488 81.92647 129.9123 81.38658-18.2775 123.47742-84.44976 59.37849-157.98891-57.40115 21.88849-96.45339 56.6349-141.30496 28.07661z"/><path d="m136.94973 412.60946c-71.942462 9.50039-9.38867 111.61488 82.92647 109.6623 81.38658-18.2775 109.72742-70.69976 58.37849-137.73891-57.40115 21.88849-96.45339 56.6349-141.30496 28.07661z" class="boob_shade" id="path66516"/><path id="path66518" class="boob_highlight" d="m193.89971 268.905c-5.76456 1.56793-14.07389 1.99364-18.23642 4.39386-13.2125 7.6187-10.38775 6.55848-6.61838 10.74834 2.17552 6.53855 41.33616 11.02324 44.31335.76921 2.9772-10.25406-1.19351-12.15814-3.18486-13.57348-6.10642-4.34004-13.95193-3.64515-16.27369-2.33793z"/></g></g><g id="g2282" data-transform="boob_left"><path d="m343.89361 197.82592c-15.72453-.66542-17.9247 3.78795-42.59399 5.35303-23.13589 23.76655-47.12099 49.97953-68.6743 76.85759-33.12255 34.7193-41.14087 81.82773-16.41008 116.54313 31.19554 47.43419 132.42273 46.51082 169.90366 2.32531 25.58438-26.93425 24.22125-77.63843-4.88797-116.01217-23.46112-37.33209-35.16073-72.3621-37.33732-85.06689z" class="shadow" id="path2307"/><path id="path2280" class="skin boob" d="m343.89361 197.82592c-15.72453-4.77701-17.9247-5.36728-42.59399 5.35303-22.01064 23.76655-44.57086 49.97953-68.6743 76.85759-31.44423 35.0639-39.8301 82.85452-16.41008 116.54313 31.79373 45.73382 133.24274 44.44916 169.90366 2.32531 23.68478-27.21412 22.71658-78.27112-4.88797-116.01217-26.45064-36.16347-35.13341-72.28159-37.33732-85.06689z"/><g id="g26457-8-5-4" style="filter:url(#filter66597)" clip-path="url(#clipPath66599)"><path d="m383.32445 241.30011c-27.92903-25.68689-104.43628-15.07421-155.60574 22.65476-32.98378 47.56191 26.05428 41.21947 89.65825 27.04954 42.04758-12.66624 102.3542-10.90089 65.94749-49.7043z" class="boob_highlight" id="path26448-1-5-9"/><path d="M395.06171 299.27306c-54.3406 85.92294-184.20236 49.12763-196.78891 18.97706-5.77311 232.87265 312.99623 143.52679 196.78891-18.97706z" class="boob_shade" id="path26442-1-0-2"/><path id="path26450-4-1-6" class="boob_highlight" d="m341.72638 253.4633c-23.44083-23.69107-58.42644-14.05016-79.79809 12.52183-16.8877 22.88006 13.33976 19.82899 45.90502 13.01243 21.52833-6.0932 52.53335-6.86757 33.89307-25.53426z"/><path id="path66585" class="boob_shade" d="m405.66831 320.13271c-54.3406 85.92294-190.21277 51.95606-202.79932 21.80549-83.09261 31.21167 38.47647 144.07184 106.4871 137.94982 78.45262-7.06196 158.55834-72.71058 96.31222-159.75531z"/><path d="m406.72897 344.5279c-54.3406 85.92294-190.21277 51.95606-202.79932 21.80549-83.09261 31.21167 38.47647 144.07184 106.4871 137.94982 78.45262-7.06196 158.55834-72.71058 96.31222-159.75531z" class="boob_shade" id="path66587"/><path id="path66589" class="boob_shade" d="m408.49674 356.90227c-54.3406 85.92294-190.21277 51.95606-202.79932 21.80549-83.09261 31.21167 38.47647 144.07184 106.4871 137.94982 78.45262-7.06196 158.55834-72.71058 96.31222-159.75531z"/><path d="m319.37491 260.72855c-11.21168-11.33136-27.94518-6.72014-38.16718 5.98916-8.07733 10.94346 6.38037 9.48414 21.95623 6.2238 10.29692-2.91436 25.12654-3.28474 16.21095-12.21296z" class="boob_highlight" id="path66591"/></g></g></svg>