<svg viewBox="0 0 560 1e3"><path d="m252.68555 289.61133c-1.40311 6.26004-10.51459 14.41756-18.1836 28.26953-6.54184 11.81606-12.03278 27.77613-10.79492 50.23437.16621 3.21335.7517 6.36207 1.74825 9.53586 2.81702 7.71217 4.3775 17.52521 8.73853 22.83812 18.32842-42.9241 26.67107-108.98646 18.49174-110.87788z" id="path16052-4-4-51" class="top_primary"/><path d="m282.80909 265.97185-9.36685-.33269c-3.26386 49.27996-4.52897 69.12497 4.85228 144.93462 1.29185-.13744 2.60206-.29255 3.92978-.46452 1.44125-.18667 2.87806-.38417 4.3109-.59429-4.12386-49.46153-7.77907-98.66061-3.72611-143.54312z" id="path16052-4-9-5" class="top_primary"/><g transform="translate(5.6174022e-6)" style="display:inline;opacity:1" id="g24010-1-4-5-5-8-2"><g style="display:inline;opacity:1" id="g8259-4-4-3-8-6-4-8"><path d="m263.49779 315.73948c-.24179.82398-1.00662 1.32935-1.70843 1.12874-.70177-.20065-1.07474-1.0312-.83301-1.85518.24178-.82397 1.00662-1.32935 1.70842-1.12875.70177.20066 1.07474 1.0312.83302 1.85519z" id="path4492-4-55-06-1-5-2-3-7" class="top_accent"/><path d="m256.31258 347.2719c-.0179.88193-.66112 1.58203-1.4367 1.56372-.77558-.0183-1.3898-.74808-1.37191-1.63001.0179-.88193.66112-1.58203 1.4367-1.56372.77557.0183 1.3898.74808 1.37191 1.63001z" id="path4492-94-7-6-6-1-8-1-8" class="top_accent"/><path d="m277.72573 282.05885c.0554.8804-.5767 1.6367-1.41183 1.68924-.83512.0525-1.55704-.61855-1.61243-1.49895-.0554-.8804.5767-1.6367 1.41183-1.68924.83512-.0526 1.55704.61855 1.61243 1.49895z" id="path4492-94-7-9-2-4-0-0-3-2" class="top_accent"/><path d="m258.21652 378.4221c.1619.84332-.28705 1.64257-1.00289 1.78521-.71583.14262-1.42741-.42537-1.58937-1.26867-.1619-.84331.28705-1.64257 1.00288-1.78521.71583-.14262 1.42741.42537 1.58938 1.26867z" id="path4492-4-55-06-9-0-7-7-4-2" class="top_accent"/></g><path style="display:inline;fill-opacity:1;fill:none;opacity:1;stroke-dasharray:none;stroke-dashoffset:0;stroke-linecap:butt;stroke-linejoin:miter;stroke-miterlimit:4;stroke-opacity:1;stroke-width:.453543;stroke:#343434;vector-effect:none" d="m281.09647 265.87108c-.0192.15669-.0382.31336-.0571.47003-.4884 4.0453-.85508 7.9632-.95392 13.66193-.25987 14.98246-9.5789 24.98893-15.78542 37.61565-6.85178 13.93944-6.22346 35.8449-5.50182 48.1905.75721 12.95406 4.69152 24.75955 13.57508 45.4231" id="path16108-6-7-9-1-4"/><path style="display:inline;fill-opacity:1;fill:none;opacity:1;stroke-dasharray:none;stroke-dashoffset:0;stroke-linecap:butt;stroke-linejoin:miter;stroke-miterlimit:4;stroke-opacity:1;stroke-width:.453543;stroke:#7f7f7f;vector-effect:none" d="m274.91569 265.62602c-.045.40699-.0885.81406-.13067 1.22132-.40982 3.96175-.7157 7.82301-.89644 12.02294-.59812 13.89836-8.26134 23.38419-14.54741 35.28794-13.99144 30.62617-8.16892 75.60626 6.06699 97.26626" id="path16110-1-5-2-8-1"/></g></svg>