<svg viewBox="0 0 560 1e3"><defs><clipPath clipPathUnits="userSpaceOnUse" id="clipPathTorsoUnnatural"><path style="display:inline;fill-opacity:1;fill:#0ff;opacity:1" d="m330.55078 146.24219-33.94726 3.49414c-.60023 11.74644 4.71263 22.22405 4.14257 32.1582-3.83498 2.97182-5.98164 3.47574-13.82226 5.20313-.50811.12713-.99038.25932-1.45703.39453-3.72264.82253-9.04126 2.01096-14.32032 3.34179-8.65971 10.94361-15.77788 17.65645-24.83789 40.22852-7.97663 19.22419-2.76622 39.20128 6.8418 56.00977-1.06764 11.32585-1.52592 26.55771 1 35.50195-11.37059 21.52353-15.89766 23.525-18.09766 43.625-1.1 10.1-2.23134 20.37109-6.00781 40.87109 1.79918 21.68192 24.06434 28.08621 33.55274 33.19727 14.43169 10.04215 15.75568 13.80686 22.99414 21.73047 2.40278 1.2769 6.48148.50653 7.11523-.33399l1.04492-.0117c1.31243 1.17872 7.86741 1.71406 11.33008.17774 1.25908-5.51105 3.06526-22.40357 25.5332-37.0293 9.99479-6.9207 28.66489-25.38486 47.28125-34.05664-9.1-20.7-12.62221-28.06668-19.58398-39.49609-3.8841-8.49646-20.35167-24.94928-20.57812-24.78321.17394-.53763-12.86413-13.70783-12.93165-15.85937 2.56898-6.32141 6.07277-31.48998 8.07422-32.87695 17.10876-11.85604 23.08422-25.51867 27.05078-41.16602-.3269-2.17434-.47181-3.26841-.6582-5.75-1.66961-10.3676-2.48045-23.52968-5.33008-34.10742.025-10.96207 3.83399-17.95313 3.83399-17.95313-3.25954-.78952-9.49632-1.47902-12.42774-1.80664.0206-.0319.042-.0618.0625-.0937-7.39171-1.56131-16.05124-2.24254-15.85742-30.60937z" id="path13423"/></clipPath><clipPath clipPathUnits="userSpaceOnUse" id="clipPathTorsoHourglass"><path style="display:inline;fill-opacity:1;fill:#f0f;opacity:1" d="m330.55078 146.24219-33.94726 3.49414c-.60023 11.74644 4.71263 22.22405 4.14257 32.1582-3.83498 2.97182-5.98164 3.47574-13.82226 5.20313-.56276.1408-1.09742.28682-1.60938.4375-3.67844.81605-7.62914 1.65042-14.16797 3.29882-8.65971 10.94361-15.77788 17.65645-24.83789 40.22852-5.87551 18.9358-2.9645 38.67948 2.8418 56.00977-1.06764 11.32585-1.52592 26.55771 1 35.50195-11.37059 21.52353-11.89766 23.525-14.09766 43.625-1.1 10.1-2.23134 20.37109-6.00781 40.87109 1.79918 21.68192 24.06434 28.08621 33.55274 33.19727 14.43169 10.04215 15.75568 13.80686 22.99414 21.73047 1.37693.26708 4.09368 1.61095 7.06445-.26758l1.11133-.0781c1.17404 1.57274 8.90177 1.53055 11.31445.17774 1.25908-5.51105 3.06526-22.40357 25.5332-37.0293 9.99479-6.9207 28.66489-25.38486 47.28125-34.05664-9.1-20.7-12.62221-28.06668-19.58398-39.49609-3.8841-8.49646-20.35168-24.94928-20.57812-24.78321.17394-.53763-7.38366-13.70783-7.45118-15.85937 2.56898-6.32141 6.52259-31.00027 8.07422-32.87695 3.11188-3.76379 5.69391-7.22683 7.88672-10.51954 7.0161-10.53536 10.04592-19.32698 13.68359-30.64648-.3269-2.17434-.47181-3.26841-.6582-5.75-1.66961-10.3676-2.48045-23.52968-5.33008-34.10742.025-10.96207 3.83399-17.95313 3.83399-17.95313-4.4617-1.08069-8.62379-1.33294-12.38086-1.87695.005-.008.0105-.0154.0156-.0234-7.39171-1.56131-16.05124-2.24254-15.85742-30.60937z" id="path13449"/></clipPath><clipPath clipPathUnits="userSpaceOnUse" id="clipPathTorsoNormal"><path style="display:inline;fill-opacity:1;fill:#f9ff00;opacity:1" d="m330.55078 146.24219-33.94726 3.49414c-.60023 11.74644 4.71263 22.22405 4.14257 32.1582-3.83498 2.97182-5.98164 3.47574-13.82226 5.20313-.58083.14532-1.12952.29729-1.65625.45312-3.72076.82535-7.55904 1.62893-14.1211 3.2832-8.65971 10.94361-15.77788 17.65645-24.83789 40.22852-5.87551 18.9358-2.9645 38.67948 2.8418 56.00977-1.06764 11.32585-1.52592 26.55771 1 35.50195-11.37059 21.52353-11.89766 23.525-14.09766 43.625-1.1 10.1-2.23134 20.37109-6.00781 40.87109 1.79918 21.68192 24.06434 28.08621 33.55274 33.19727 14.43169 10.04215 15.75568 13.80686 22.99414 21.73047.78119.55861 4.78693 1.49428 7.05664-.26758l1.14258-.0781c1.51181 1.59807 9.57688 1.45961 11.29101.17774 1.25908-5.51105 3.06526-22.40357 25.5332-37.0293 9.99479-6.9207 28.66489-25.38486 47.28125-34.05664-9.1-20.7-12.62221-28.06668-19.58398-39.49609-23.58113-57.47054-9.98057-57.2743 1.61523-114.68555-.3269-2.17434-.47181-3.26841-.6582-5.75-1.66961-10.3676-2.48045-23.52968-5.33008-34.10742.025-10.96207 3.83399-17.95313 3.83399-17.95313-4.46045-1.0804-8.62863-1.32705-12.38672-1.86914.007-.0108.0146-.0205.0215-.0312-7.39171-1.56131-16.05124-2.24254-15.85742-30.60937z" id="path13552"/></clipPath><clipPath clipPathUnits="userSpaceOnUse" id="clipPath13344"><path id="path13346" d="m296.51526 149.82524c-.60044 11.74636 4.52731 21.84761 4.14186 32.15688.0.0 29.989-1.7219 36.03381-9.31622-3.81788-3.83803-6.1307-11.25313-6.22921-26.33633l97.0383-51.829609L545.88646 179.7561 531.74432 683.21615 41.012195 681.80194 57.982758 266.02313 166.87721 188.94849l70.35713-39.95154z"/></clipPath><filter style="color-interpolation-filters:sRGB" id="filter26288"><feGaussianBlur stdDeviation="4 8" result="blur" id="feGaussianBlur26286"/></filter><filter style="color-interpolation-filters:sRGB" id="filter26310"><feGaussianBlur stdDeviation="4 8" result="blur" id="feGaussianBlur26308"/></filter><filter style="color-interpolation-filters:sRGB" id="filter26310-1"><feGaussianBlur stdDeviation="4 8" result="blur" id="feGaussianBlur26308-9"/></filter><filter style="color-interpolation-filters:sRGB" id="filter26288-2"><feGaussianBlur stdDeviation="4 8" result="blur" id="feGaussianBlur26286-3"/></filter><filter style="color-interpolation-filters:sRGB" id="filter26288-2-1"><feGaussianBlur stdDeviation="4 8" result="blur" id="feGaussianBlur26286-3-8"/></filter><filter style="color-interpolation-filters:sRGB" id="filter26310-1-3"><feGaussianBlur stdDeviation="4 8" result="blur" id="feGaussianBlur26308-9-6"/></filter><clipPath clipPathUnits="userSpaceOnUse" id="clipPath26668"><path id="path26671" d="m287.04892 268.20333c.49124.0601.97847.17845 1.47278.23374 8.19887.91722 16.82409 1.20552 26.01051 1.87392 8.94998-22.02304 9.96427-35.91215 10.90967-55.68731l-7.4576-2.35097c-15.44542 10.07032-29.97658 29.4882-30.93536 55.93062z" style="fill-opacity:.3886179;fill:#01ffff;opacity:1;stroke-dasharray:none;stroke-dashoffset:0;stroke-linecap:butt;stroke-linejoin:miter;stroke-miterlimit:4;stroke-opacity:.47154475;stroke-width:.45354331;stroke:none;vector-effect:none"/></clipPath><clipPath clipPathUnits="userSpaceOnUse" id="clipPath26675"><path style="fill-opacity:.47216893;fill:#0ff;opacity:1;stroke-dasharray:none;stroke-dashoffset:0;stroke-linecap:butt;stroke-linejoin:miter;stroke-miterlimit:4;stroke-opacity:1;stroke-width:.45354331;stroke:none;vector-effect:none" d="m224.15781 270.36344c7.87491-.68749 11.70445-.93167 17.51066-1.77749-9.18991-14.7287-8.47686-20.9451-6.51291-29.24493 1.71798-6.69089 6.5122-11.93183 11.54625-17.87821l-3.33059-2.62039c-12.65888 5.00514-21.69184 10.54072-25.35365 19.165-3.28819 7.74432-1.62016 21.76864 6.14024 32.35602z" id="path26677"/></clipPath></defs><g id="g25987" select_clip="torso" select_clip_options="clip-path=url(#clipPathTorsoUnnatural) url(#clipPathTorsoHourglass) url(#clipPathTorsoNormal)"><g id="g13269" data-transform="boob_outfit"><path class="bra_accent" id="path25995-0" d="m314.5957 270.30469c14.31928 1.75852 30.59162 4.451 43.11043 8.13198.37215.10943 7.241 2.28223 7.60637 2.39341l.44141-1.44727c-.36585-.11132-7.23499-2.28424-7.60729-2.39377-12.67062-3.72767-28.99381-6.41941-43.36537-8.18435z"/></g></g><g id="g26001" data-transform="boob_outfit"><path d="m266.68359 265.39258c-7.03792-.10637-14.01066.18264-20.31054 1.03515-9.33451 1.26316-17.30276 2.00188-24.93605 2.66012-.15718.27418.11992 1.13221.87414 1.44325 7.41639-.64348 15.19842-1.37841 24.26503-2.60532 12.39534-1.67736 27.61-1.14378 40.63867.3086 9.62527 1.07298 19.89036 1.15042 27.38086 2.07031 6.99633.8592 14.4589 1.94137 21.7221 3.25285.55853-.0871 1.70145-.80311 1.94468-1.18289-7.82335-1.45696-15.92224-2.64166-23.48123-3.56996-7.64469-.93883-17.88356-1.01159-27.39844-2.07227-6.55825-.73108-13.66129-1.23347-20.69922-1.33984z" id="path25995" class="bra_accent"/><path class="bra_primary" id="path25991" d="m287.04892 268.20333c.49124.0601.97847.17845 1.47278.23374 8.19887.91722 16.82409 1.20552 26.01051 1.87392 8.94998-22.02304 9.96427-35.91215 10.90967-55.68731l-7.4576-2.35097c-15.44542 10.07032-29.97658 29.4882-30.93536 55.93062z"/><path class="bra_primary" d="m224.15782 270.36344c7.87491-.68749 11.70445-.93167 17.51066-1.77749-9.18991-14.7287-8.47686-20.9451-6.51291-29.24493 1.71798-6.69089 6.5122-11.93183 11.54625-17.87821l-3.33059-2.62039c-12.65888 5.00514-21.69184 10.54072-25.35365 19.165-3.28819 7.74432-1.62016 21.76864 6.14024 32.35602z" id="path25993"/><g transform="translate(7.2818787e-6)" style="display:inline" id="g26300-3-1" clip-path="url(#clipPath26675)"><g clip-path="none" id="g26147-7-9" style="display:inline;filter:url(#filter26288-2-1);stroke-width:1.38733399"><path d="m206.55537 244.52595 5.03696 30.33683 38.85652-4.56253-3.67779-26.57475c-4.95543 2.78486-29.68165 6.27165-40.21569.80045z" id="path26120-7-2" class="bra_primary_shade"/><path class="bra_primary_shade" id="path26122-6-4" d="m207.27494 249.24857 4.31739 25.61421 38.85652-4.56253-2.95822-21.85214c-4.95543 2.78487-29.68166 6.27166-40.21569.80046z"/><path d="m208.15441 254.21132 3.43792 20.65146 38.85652-4.56253-2.07875-16.88938c-4.95543 2.78486-29.68166 6.27166-40.21569.80045z" id="path26124-1-6" class="bra_primary_shade"/><path class="bra_primary_shade" id="path26126-7-8" d="m208.79403 258.85389 2.7983 16.00889 38.85652-4.56253-1.43913-12.2468c-4.95543 2.78485-29.68167 6.27165-40.21569.80044z"/><path d="m209.43364 264.37696 2.15869 10.48582 38.85652-4.56253-.79952-6.72374c-4.95543 2.78486-29.68166 6.27165-40.21569.80045z" id="path26128-7-8" class="bra_primary_shade"/><path class="bra_primary_highlight" id="path26130-1-6" d="m210.73613 242.35525 6.97002-29.95095 38.48423 7.04814-5.37264 26.2839c-4.76682-3.09733-29.21877-8.16463-40.08161-3.38109z"/><path d="m211.69555 237.23242 6.0106-24.82812 38.48423 7.04814-4.41322 21.16105c-4.76682-3.09732-29.21877-8.16462-40.08161-3.38107z" id="path26132-4-0" class="bra_primary_highlight"/><path class="bra_primary_highlight" id="path26134-3-7" d="m213.13468 232.18961 4.57147-19.78531 38.48423 7.04814-2.97409 16.11825c-4.76682-3.09731-29.21878-8.16462-40.08161-3.38108z"/><path d="m214.49386 228.02731 3.21229-15.62301 38.48423 7.04814-1.61491 11.95595c-4.76682-3.09733-29.21878-8.16463-40.08161-3.38108z" id="path26136-2-5" class="bra_primary_highlight"/></g></g><path d="m217.14882 254.80682c1.17302 5.48227 3.4408 11.17161 6.70536 15.60529l1.77452-.16668c-3.71598-4.67866-6.10671-11.32827-7.37479-17.43684-1.01755-4.90171-1.29121-9.50983-1.06087-12.33942-.97985 2.72738-1.05893 9.59527-.0442 14.33765zm2.21495-19.4444c5.0041-7.11749 13.1419-10.44284 24.25342-14.98156l1.24609.94922c-5.21943 6.11707-10.67933 12.39326-11.85351 21.70117-1.25749 9.96834 3.64582 18.72397 6.94056 25.8096l1.62091-.22232c-3.30473-7.19238-8.26106-15.89046-7.06147-25.39978 1.14842-9.10368 6.6286-15.18676 12.01757-21.51953l.51563-.60742-3.19922-2.43946-.40039.16211c-1.89823.77549-3.72132 1.51777-5.46633 2.25205-14.93136 6.7215-17.49867 12.79944-18.61326 14.29592z" id="path26005" class="bra_accent"/><g clip-path="url(#clipPath26668)" id="g26280-0-1" style="display:inline;filter:url(#filter26310-1-3)"><path d="m285.09459 238.25937-2.31694 30.37431 42.69837 5.06455 2.8149-26.42897c-6.00468 1.47089-33.32379-1.19132-43.19633-9.00989z" id="path26262-8-1" class="bra_primary_shade"/><path class="bra_primary_shade" id="path26264-2-2" d="m284.6649 242.97213-1.88725 25.66155 42.69837 5.06455 2.38521-21.7162c-6.00468 1.47088-33.32379-1.19133-43.19633-9.0099z"/><path d="m284.34519 247.95451-1.56754 20.67917 42.69837 5.06455 2.06549-16.73383c-6.00469 1.47088-33.32379-1.19132-43.19632-9.00989z" id="path26266-8-1" class="bra_primary_shade"/><path class="bra_primary_shade" id="path26268-6-2" d="m283.85035 252.5709-1.07268 16.06278 42.69837 5.06455 1.57064-12.11743c-6.00467 1.4709-33.32378-1.19131-43.19631-9.00989z"/><path d="m283.13196 258.03334-.35431 10.60034 42.69837 5.06455.85226-6.65499c-6.00467 1.47087-33.32379-1.19133-43.19632-9.0099z" id="path26270-0-3" class="bra_primary_shade"/><path class="bra_primary_highlight" id="path26272-5-4" d="m287.64885 237.59507 10.53141-38.50361 42.71361 12.16668-8.40401 33.84701c-5.09158-4.40656-32.17806-12.9049-44.84101-7.51008z"/><path d="m289.18802 230.99135 8.99224-31.89989 42.71361 12.16668-6.86484 27.24329c-5.09158-4.40656-32.17806-12.90489-44.84101-7.51008z" id="path26274-0-9" class="bra_primary_highlight"/><path class="bra_primary_highlight" id="path26276-1-4" d="m291.26032 224.52911 6.91994-25.43765 42.71361 12.16668-4.79254 20.78105c-5.09158-4.40656-32.17806-12.90489-44.84101-7.51008z"/><path d="m293.16375 219.20846 5.01651-20.117 42.71361 12.16668-2.88912 15.4604c-5.09157-4.40656-32.17805-12.90489-44.841-7.51008z" id="path26278-9-9" class="bra_primary_highlight"/></g><path d="m318.5957 211.66406-.30468.21289c-25.61966 17.85193-30.67174 40.87043-31.25299 56.3392.39897.0579.99682.16857 1.49523.21558.54253-15.13925 5.33563-37.51305 30.34565-55.09382l5.08789 1.60352c-.75761 23.2201-3.94548 37.96373-10.80517 55.27322l1.57416.12962c6.85291-17.40282 10.06129-32.41885 10.77983-55.92237l.0176-.57227z" id="path26022" class="bra_accent"/><g id="g26666"><path class="bra_primary_shade" id="path13446" d="m224.53126 268.78122c5.10245-.31791 9.93154-.84571 14.70312-1.45312l-.20312-.375c-4.7989.63153-9.68147 1.17407-14.6875 1.51562z"/><path d="m224.53126 268.78122c5.10245-.31791 9.93154-.84571 14.70312-1.45312l-.20312-.375c-4.7989.63153-9.68147 1.17407-14.6875 1.51562z" id="path13448" class="bra_primary_shade"/><path class="bra_primary_shade" id="path13450" d="m224.53126 268.78122c5.10245-.31791 9.93154-.84571 14.70312-1.45312l-.20312-.375c-4.7989.63153-9.68147 1.17407-14.6875 1.51562z"/><path d="m224.53126 268.78122c5.10245-.31791 9.93154-.84571 14.70312-1.45312l-.20312-.375c-4.7989.63153-9.68147 1.17407-14.6875 1.51562z" id="path13452" class="bra_primary_shade"/><path class="bra_primary_shade" id="path13454" d="m224.53126 268.78122c5.10245-.31791 9.93154-.84571 14.70312-1.45312l-.20312-.375c-4.7989.63153-9.68147 1.17407-14.6875 1.51562z"/></g><g id="g26659"><path class="bra_primary_shade" id="path13454-2" d="m288.63092 266.85362c4.96987.49968 21.28072 1.44756 25.08003 1.83452l.12833-.375c-4.60002-.6501-19.79321-1.34017-25.24118-1.79412z"/><path d="m288.63092 266.85362c4.96987.49968 21.28072 1.44756 25.08003 1.83452l.12833-.375c-4.60002-.6501-19.79321-1.34017-25.24118-1.79412z" id="path13471" class="bra_primary_shade"/><path class="bra_primary_shade" id="path13473" d="m288.63092 266.85362c4.96987.49968 21.28072 1.44756 25.08003 1.83452l.12833-.375c-4.60002-.6501-19.79321-1.34017-25.24118-1.79412z"/><path d="m288.63092 266.85362c4.96987.49968 21.28072 1.44756 25.08003 1.83452l.12833-.375c-4.60002-.6501-19.79321-1.34017-25.24118-1.79412z" id="path13475" class="bra_primary_shade"/><path class="bra_primary_shade" id="path13477" d="m288.63092 266.85362c4.96987.49968 21.28072 1.44756 25.08003 1.83452l.12833-.375c-4.60002-.6501-19.79321-1.34017-25.24118-1.79412z"/></g></g><g id="g13342" clip-path="url(#clipPath13344)"><g data-transform="boob_outfit" id="g13312" style="display:inline"><path d="m326.9668 168.76172c-1.24733-.0612-2.59522-.0468-3.99024.14453-.005 75e-5-.0102-75e-5-.0156.0-1.12202.14851-2.27975.53734-3.4336.98047-.28826.10933-.56919.11301-.85742.24414-.002 92e-5-.004.001-.006.002-.0206.01-.0399.0217-.0605.0312-5.54608 2.52599-10.83551 5.3656-15.98633 8.30664-.7623.4336-1.47586.87883-2.23047 1.31836-3.89041 2.2797-7.64415 4.58434-11.26172 6.95508-2.04202 1.32146-3.97705 2.5981-5.92773 3.92383-1.16383.79956-2.26208 1.57291-3.39063 2.36719-4.72869 3.30033-9.07082 6.44736-13.06445 9.5039-10.2978 7.71207-18.80364 14.31427-23.50781 16.39453l.61132 1.38282c1.3486-.59637 2.95574-1.55253 4.68164-2.65235-1.14319 1.08396-2.54803 2.33921-3.34961 3.19336l1.10157 1.03516c2.88406-3.07326 8.29178-7.94072 15.51758-13.67383 1.56299-1.24011 3.50784-2.67035 5.23828-4 1.97422-1.48461 3.49518-2.64483 5.64257-4.22461 2.49585-1.83612 5.19499-3.74845 7.9043-5.65625 1.17719-.82204 2.30352-1.63105 3.51953-2.45703 1.87083-1.28469 3.85382-2.56105 5.81055-3.84375 3.65672-2.36708 7.40933-4.71565 11.30664-6.98438.71168-.41673 1.403-.84261 2.12305-1.2539 5.17896-2.94709 10.51071-5.76575 15.95312-8.29297.002-9e-4.004-.001.006-.002 1.29011-.58613 2.59344-.92352 3.8711-1.09961.0121-.002.0231-4e-4.0351-.002 1.26105-.16288 2.50001-.16903 3.67578-.10156 2.07314.11898 3.7703.391 5.27344.39258.21153.006.55304.0683.75.0605.31071-.0122.49437.0497.77344.0566 4.13895-.12084 5.13858 2.33454 4.4414 5.80859-.44145 2.96875-1.71348 6.08422-2.73047 8.5-.11004.24996-.16328.45195-.27734.70508-1.46794 3.25764-3.232 6.8602-4.92383 10.39844-3.68527 7.26579-9.20134 13.345-12.23828 15.91796l.97852 1.1543c1.93898-1.64274 4.70638-4.5985 7.43945-8.24023-1.23492 3.24735-2.22954 6.38278-2.37109 9.10742l1.50976.0781c.18737-3.60642 1.8674-8.26848 4.04688-13.15039.62324-1.39602 1.30671-2.76987 1.98437-4.1875.0253-.0498.0569-.0926.082-.14257 2.66708-5.30648 5.31906-10.71339 6.875-15.36719.92636-2.57657 1.59812-4.98396 1.50586-6.95703-.0488-1.04392-.40047-1.94853-.9082-2.75391-1.18066-1.68433-3.00842-2.2755-4.80957-2.41389-2.52781.0383-5.20071-.39333-7.31741-.5062z" id="path13282" class="bra_accent bra_strap2"/><path class="bra_accent bra_strap1" id="path13290" d="m321.29718 166.12201c-.005 69e-5-.0102-71e-5-.0156.0-1.12202.14855-2.27938.5383-3.4336.98047-.28789.11029-.56919.113-.85742.24414-.002 91e-5-.004.001-.006.002-.0206.01-.0399.0218-.0605.0312-5.54604 2.52609-11.52597 5.41563-16.63094 8.43555-12.65824 7.48818-23.33403 19.01334-33.55101 26.72369-10.26937 7.74989-18.80364 14.31427-23.50781 16.39453l.61132 1.38282c1.3486-.59637 2.95574-1.55253 4.68164-2.65235-1.14319 1.08396-2.54803 2.33921-3.34961 3.19336l1.10157 1.03516c2.88406-3.07326 8.18071-8.08356 15.51758-13.67383 14.21229-10.82894 25.9164-23.32515 39.22093-31.07525 5.14889-2.99931 11.15531-5.89468 16.59773-8.42188.002-92e-5.004-.001.006-.002 1.29008-.5862 2.59348-.92319 3.8711-1.09961.0121-.002.0231-45e-5.0351-.002 1.26104-.16293 10.557-1.39758 11.73277-1.33011 2.07314.11898 5.58281.32344 7.08594.33008.21161 94e-5.55304.0683.75.0605.31071-.0122.49438.0638.77344.0566 4.13934-.10675 5.26434 4.00821 4.39721 7.44379-1.61141 6.38442-13.12036 15.86399-16.07756 22.04361-3.68527 7.26579-9.20134 13.345-12.23828 15.91796l.97852 1.1543c1.93898-1.64274 4.70638-4.5985 7.43945-8.24023-1.23492 3.24735-2.22954 6.38278-2.37109 9.10742l1.50976.0781c.18737-3.60642 1.43712-8.48431 4.04688-13.15039 4.11483-7.35706 19.52174-22.79861 19.16767-29.27117-.22318-4.07983-2.58633-6.20278-6.2481-6.62621-8.662-1.00165-15.65246.39271-21.17709.92978z"/><path class="bra_accent bra_strap3" id="path13292" d="m327.62305 170.10547c-1.24733-.0612-2.59522-.0468-3.99024.14453-.005 75e-5-.0102-75e-5-.0156.0-1.12202.14851-2.27975.53734-3.4336.98047-.28826.10933-.56919.11301-.85742.24414-.002 92e-5-.004.001-.006.002-.0206.01-.0399.0217-.0605.0312-5.54608 2.52599-9.50958 4.99085-14.64258 7.96289-12.74467 7.37923-26.53232 14.48604-37.875 23.06836-10.2596 7.76282-18.80364 14.31427-23.50781 16.39453l.61132 1.38282c1.3486-.59637 2.95574-1.55253 4.68164-2.65235-1.14319 1.08396-2.54803 2.33921-3.34961 3.19336l1.10157 1.03516c2.88406-3.07326 8.29178-7.94072 15.51758-13.67383 1.56299-1.24011 3.50169-2.6784 5.23828-4 11.51071-8.76002 26.84846-16.7286 38.30664-23.41992 5.14562-3.00493 9.16696-5.422 14.60937-7.94922.002-9e-4.004-.001.006-.002 1.29008-.58621 2.59344-.92352 3.8711-1.09961.0121-.002.0231-4e-4.0351-.002 3.51641-.33736 4.68287-.26691 7.91016-.21688 4.14022.0642 5.14622 2.33608 4.4414 5.80859-1.41336 6.96331-3.11468 12.9966-6.02539 18.88477-3.61028 7.30334-9.20134 13.345-12.23828 15.91796l.97852 1.1543c1.93898-1.64274 4.70638-4.5985 7.43945-8.24023-1.23492 3.24735-2.22954 6.38278-2.37109 9.10742l1.50976.0781c.18737-3.60642 2.24075-8.11838 4.04688-13.15039 3.26791-9.10466 8.85721-16.49845 8.54098-25.93554-.035-1.04447-.40047-1.94853-.9082-2.75391-1.18066-1.68433-3.00842-2.2755-4.80957-2.41389-2.52781.0383-2.63821.23167-4.75491.1188z"/></g></g></svg>