<svg viewBox="0 0 560 1e3"><defs><filter style="color-interpolation-filters:sRGB" id="filter22159"><feGaussianBlur stdDeviation="1 1" result="blur" id="feGaussianBlur22157"/></filter><clipPath clipPathUnits="userSpaceOnUse" id="clipPath22453"><path id="path22455" d="m371.48615 932.52023c-1.29725 11.84109 9.53501 11.78192 14.29921 11.77479 14.5891-.0218 22.75527-1.56857 19.91584-14.76558-3.10491-14.43089-2.83132-30.14703-4.64389-41.17859-.29319 3.95398-4.62676 12.42332-4.50351 21.65611.15823 11.85307-.39499 11.94575-1.60923 12.76435-2.6931 1.81559-2.93827.36459-6.76211.69296-3.27735.28144-3.47103.76544-5.75667-.35829-2.72831-1.34137-2.6604-2.06526-1.22703-16.51195 1.20572-12.15212-3.23564-13.10691-3.09345-16.52604.13194-3.17247-.14381-5.81712-.92592-7.34177-1.97815 4.91704-2.50176 10.66373-2.43894 16.65818.12329 11.76367-1.86369 20.44221-3.25434 33.13583.0 1e-5 4e-5-1e-5 4e-5.0z" style="display:inline;fill-opacity:1;fill:#0ff;opacity:1;stroke-width:.999995"/></clipPath><clipPath clipPathUnits="userSpaceOnUse" id="clipPath22453-5"><path id="path22455-1" d="m371.48615 932.52023c-1.29725 11.84109 9.53501 11.78192 14.29921 11.77479 14.5891-.0218 22.75527-1.56857 19.91584-14.76558-3.10491-14.43089-2.83132-30.14703-4.64389-41.17859-.29319 3.95398-4.62676 12.42332-4.50351 21.65611.15823 11.85307-.39499 11.94575-1.60923 12.76435-2.6931 1.81559-2.93827.36459-6.76211.69296-3.27735.28144-3.47103.76544-5.75667-.35829-2.72831-1.34137-2.6604-2.06526-1.22703-16.51195 1.20572-12.15212-3.23564-13.10691-3.09345-16.52604.13194-3.17247-.14381-5.81712-.92592-7.34177-1.97815 4.91704-2.50176 10.66373-2.43894 16.65818.12329 11.76367-1.86369 20.44221-3.25434 33.13583.0 1e-5 4e-5-1e-5 4e-5.0z" style="display:inline;fill-opacity:1;fill:#0ff;opacity:1;stroke-width:.999995"/></clipPath><filter style="color-interpolation-filters:sRGB" id="filter22159-3"><feGaussianBlur stdDeviation="1 1" result="blur" id="feGaussianBlur22157-2"/></filter></defs><g id="g33693" style="display:inline"><path id="path33671" d="m246.32218 908.50664c1.18908.18104 2.39984.91814 2.55282 2.24337.91262 7.90594 1.66832 26.66011 2.15288 34.2356l-1.60868-.25628c-2.31495-26.72149-1.07371-11.78654-3.09702-36.22269z" class="shadow"/><path id="path33673" d="m246.68678 908.47349c1.18908.18104 2.03524.95129 2.18822 2.27652.91262 7.90594 1.70738 26.09761 2.19194 33.6731l-1.15555-.25628c-2.31495-26.72149-1.2013-11.25719-3.22461-35.69334z" class="shoe_accent"/><path id="path33675" d="m242.89258 862.89062c-5.36146 1.05202-11.20245 2.00995-16.07422 2.40626l.0312-.002c-.87541.0175-1.67921.40468-2.36719 1.04297-.68797.63829-1.28463 1.52643-1.83789 2.62109-1.10652 2.18933-2.0381 5.22429-2.94726 8.83008-1.81834 7.21159-3.52498 16.69682-6.0586 25.98438-.001.003-.003.007-.004.01-2.32448 9.20722-3.20314 18.8095-4.5625 24.54883-.33984 1.43483-.70993 2.62513-1.1211 3.48828-.41116.86315-.85993 1.36657-1.27148 1.54297-.41156.1764-.90605.34891-1.62891-.13672-.72286-.48562-1.62813-1.41911-2.6914-2.86133-.15827-.21504-.45578-.2713-.68165-.1289-4.13605 2.59649-6.95441 3.82693-10.53208 6.1988-5.68649 3.76995-8.76205 5.55352-10.36869 9.06277-.47942 1.10948-.46578 2.18727-.28477 3.08218.181.8949.68393 1.64863 1.38086 2.24609 1.39386 1.19493 3.546 1.84191 5.95898 2.21094 4.82596.73806 10.72278.29937 13.61914-.17773 3.03029-.49919 8.7298-1.65654 14.05274-4.86915 6.9883-4.21772 8.90896-7.60246 11.15039-12.59375 2.24142-4.99128 4.87352-11.63804 13.52343-22.80664 1.73927-2.2457 3.82411-3.407 5.41797-3.61328.79694-.10314 1.45683.0273 1.91992.32813.46312.30085.76831.76574.85352 1.5039.90627 7.85099 2.00072 26.16588 2.48633 33.75782.0209.31997.0319.43184.3418.34961l3.30859-.875c.235-.0626.3929-.28272.37695-.5254.0.0-1.15935-18.21143-.0859-33.04687.49389-6.82608 3.99872-12.81023 3.77343-18.42578-.27127-6.76188-6.59997-13.92609-11.0664-20.64844-1.99525-3.00302-3.66817-6.33963-4.61133-8.50391zm-.25391.51563c.95784 2.15471 2.56414 5.44408 4.44141 8.26953 4.49462 6.76479 10.72366 13.93674 10.98242 20.38672.21588 5.38109-3.26888 11.39578-3.77344 18.36914-1.07745 14.89157.0859 33.11719.0859 33.11719l-3.30859.875c-.48456-7.57549-1.2788-25.76789-2.19141-33.67383-.39793-3.44723-5.48607-3.1384-9.09961 1.52734-17.35871 22.41323-10.68983 26.92114-24.53516 35.27735-5.23133 3.15732-10.8649 4.30753-13.87109 4.80273-5.66907.93385-23.56678 1.73227-19.9707-6.58984-.0244.0613-.0358.11925-.0566.17969.35245-1.07906 1.05716-1.89735 1.69336-2.67774 2.06918-2.53818 5.58792-4.12849 8.32422-6.13086 69e-5-.007-72e-5-.014.0-.0215 3.25278-2.67894 6.45354-4.0517 10.62109-6.66797 8.65728 11.7426 7.52582-8.23091 12.14844-26.54102 5.08296-18.63274 6.83965-37.986 12.73047-38.10351 4.5721-.36377 9.06461-.85193 13.32812-1.86719 1.41941-.338 2.15834-.43285 2.45117-.53125zm-51.27929 73.73242c-.572 6.09781 5.51876 8.15507 9.44921 13.50586-2.4585-3.08061-8.39408-10.77813-9.41797-13.52734-.0101.007-.0212.0141-.0312.0215zm-10.01758 8.8086c-.0209.0639-.0423.12752-.0606.19335.0184-.064.0382-.12836.0606-.19335zm-.0606.19335c-.0419.14571-.074.28915-.0957.42969.0257-.14743.0573-.29129.0957-.42969zm-.0957.42969c-.0127.0727-.022.14761-.0312.22266.006-.0729.0198-.14831.0312-.22266zm-.0312.22266c-.004.0509-.0101.10215-.0117.15234.005-.0503.006-.10305.0117-.15234zm-.0117.15234c-.0114.12522-.028.24685-.0293.37891-.008.84011.52849 1.61233 1.34766 2.28906-.84124-.73762-1.35272-1.62741-1.31836-2.66797zm1.31836 2.66797c.17431.15284.36605.29768.5664.4375-.20674-.13859-.38609-.28854-.5664-.4375zm.58594.44922c.24518.16999.52165.32007.79882.4707-.27876-.14943-.55006-.30492-.79882-.4707zm.79882.4707c.0841.0451.16762.0893.25391.13282-.0858-.0435-.17061-.0875-.25391-.13282zm.25391.13282c.27065.13733.54475.26875.83594.38867-.28811-.12015-.56502-.25214-.83594-.38867zm.83594.38867c.0784.0327.15899.0604.23828.0918-.0794-.0309-.16013-.0596-.23828-.0918zm.23828.0918c.27376.10671.54518.21293.83008.30469-.2804-.0924-.55693-.1965-.83008-.30469zm.83008.30469c.38796.12783.77965.24078 1.16797.33594-.39405-.0966-.78379-.21219-1.16797-.33594z" class="shadow"/><path id="path33677" d="m191.39111 937.11719c1.02389 2.74921 6.95803 10.44761 9.41653 13.52822-5.39944 1.49689-10.32764 1.95335-13.63642 1.14249-2.93236-.71862-6.07871-2.40895-6.05878-4.46406.0177-1.82438 1.04028-2.97346 1.92197-4.05499 2.0768-2.54753 5.61616-4.13885 8.3567-6.15166z" class="shoe_accent"/><g id="g33669" transform="matrix(0.9841572,0.18930987,-0.31827912,2.8863413,307.98175,-1762.5149)" style="stroke-width:.587133"><path id="path33836" d="m224.8418 816.91602c-.87512.0185-1.90804.18917-3.11524.48242-.4576.11123-1.18633.42562-1.58008.61133a.23557123.68535455 5.6750296 00-.2207.43554c-2.28726 10.58301-2.43804 18.83971-4.50195 31.70703-2.31925 14.45921-4.57416 30.00457-7.66016 44.24219-2.49491 11.51054-5.0733 27.15247-5.67969 36.41406-.047.15956-.10185.30885-.13086.49805-.0472.30741-.054.64727-.0234.90625.061.51794.21383.76591.40234 1.00391.37702.47598.96634.8169 1.69727 1.21875 1.46186.80362 3.46725 1.80752 5.14843 4.00586a.23557123.68535455 5.6750296 00.35743-.45899l16.46875-92.20898a.23557123.68535455 5.6750296 00.008-.0391c1.41903-9.0165 2.55545-15.45566 2.92187-20.0586.18323-2.30146.17048-4.19213-.13867-5.60547-.30916-1.41334-.89534-2.27962-1.77344-2.73633-.58529-.30447-1.30457-.4365-2.17968-.41796zm-.0586.68554c6.06485-.1321 4.32469 6.92263 1.00782 27.99805l-16.47071 92.21094c-3.42244-4.47525-8.08014-4.01411-7.01172-6.875.57256-9.01131 3.16406-24.80085 5.65625-36.29883 3.10428-14.32194 5.36373-29.90306 7.67969-44.3418 2.08166-12.97795 2.23164-21.19911 4.48242-31.61328.3889-.18343 1.12069-.49653 1.56055-.60352 1.20315-.29225 2.2293-.45769 3.0957-.47656z" transform="matrix(0.99499265,-0.06525976,0.10971862,0.33926313,-113.05887,618.05513)" class="shadow"/><path d="m198.109 922.55948 6.26975-32.35888c1.12903-8.41894 2.21877-10.49036-7.10172-9.06901-.42592.065-1.11998.2189-1.4868.30651-1.09688 3.68003-.34431 6.47887-.99162 11.01766-.72017 5.04967-1.25736 10.48357-2.77471 15.54506-1.21817 4.06348-2.06445 9.58891-1.64543 12.68348-.74918 1.04032 3.83417.58024 7.73049 1.87518z" id="path33667" class="shoe_accent"/></g><path id="path33854" d="m242.80469 815.23438c-.34661-.0231-.70344-.0211-1.07031.008-3.00738.23714-5.9993.75446-9.01172 1.01367-.68314.0588-1.16491.5326-1.5918 1.13476-.42689.60218-.822 1.4024-1.2207 2.4004-.7974 1.99599-1.59748 4.77916-2.41211 8.15625-1.62927 6.75416-3.30423 15.87217-4.95899 25.55468-3.30951 19.36503-6.54864 41.02772-9.05859 50.22852-.001.005-.003.009-.004.0137-2.3287 9.22393-3.20883 18.83353-4.5625 24.54883-.33842 1.42882-.70866 2.61172-1.11133 3.45703-.40266.84531-.8337 1.31125-1.1875 1.46289-.35379.15164-.74538.12775-1.4414-.33984-.69602-.46759-1.59512-1.38827-2.65235-2.82227-.20837-.28356-.60012-.3585-.89843-.17187-4.12596 2.59016-7.35856 3.97387-10.69141 6.71875-.13798.11349-.22513.27723-.24219.45507-.31642 3.2853 1.22489 5.58627 3.22266 7.58789 1.76598 1.76941 3.84835 3.47423 5.62695 5.60938-4.89155 1.23622-9.32205 1.59177-12.20703.88477-1.72825-.42354-3.40253-1.13378-4.41797-2.01954-.43123-.37615-.87673-.56928-1.06247-1.27175-.25163-.95168-.13093-2.47273.17185-3.23411.34375-.82813-.89844.0625-1.24219.89063-.48901 1.13167-.63814 2.17729-.44922 3.11133s.71729 1.72214 1.43555 2.33789c1.43651 1.23149 3.61323 1.87675 6.04101 2.24805 4.85557.74258 10.75375.30459 13.66993-.17579 3.03801-.50044 8.75707-1.66029 14.10937-4.89062 7.00934-4.23042 8.97081-7.67087 11.21484-12.66797 2.24404-4.9971 4.86344-11.61703 13.50391-22.77344 1.71763-2.21777 3.77424-3.35195 5.31055-3.55078.76815-.0994 1.38792.0282 1.81054.30274.42263.27454.69867.68623.7793 1.38476.90423 7.83337 1.70155 26.04341 2.1875 33.64063.0267.42326.43387.71636.84375.60742l3.3086-.875c.31105-.0818.52061-.3724.5-.69336.0.0-1.15998-18.20794-.0879-33.02539.49049-6.77888 4.00369-12.75462 3.7754-18.44531-.27414-6.83289-6.22306-14.29529-11.11915-20.76563-3.4124-4.50961-4.35542-11.99254-3.83789-20.03906.51754-8.04652 2.4587-16.63143 4.57813-23.33399 1.08425-3.42889.97175-6.64819-.19727-9.02539-1.02288-2.08004-2.92729-3.47538-5.35351-3.63671zm-.041.66796c4.72275.28992 6.90742 5.6045 4.95117 11.79102-4.26704 13.49426-7.81201 34.49744-.63476 43.98242 4.90081 6.47658 10.72366 13.93674 10.98242 20.38672.21588 5.38109-3.26888 11.39578-3.77344 18.36914-1.07745 14.89157.0859 33.11719.0859 33.11719l-3.30859.875c-.48456-7.57549-1.2788-25.76789-2.19141-33.67383-.39793-3.44723-5.48607-3.1384-9.09961 1.52734-17.35871 22.41323-10.68983 26.92114-24.53516 35.27735-5.23133 3.15732-10.8649 4.30753-13.87109 4.80273-5.66907.93385-23.56678 1.73227-19.9707-6.58984-1.24557 3.1321 2.1834 5.13974 5.77344 6.01953 3.30877.81086 8.23727.35431 13.63671-1.14258-3.93525-5.35732-10.03819-7.41222-9.44921-13.52734 3.25278-2.67894 6.45354-4.0517 10.62109-6.66797 8.65728 11.7426 7.52582-8.23091 12.14844-26.54102 5.08296-18.63274 12.89238-86.4868 18.65234-86.98242 3.05022-.26246 6.04066-.77985 9.00586-1.01367.33694-.0266.66171-.0291.97656-.01z" class="shadow"/><path id="path33679" d="m201.98087 930.44844c-4.16755 2.61627-7.36823 3.98981-10.62101 6.66875-.58898 6.11512 5.51253 8.1709 9.44778 13.52822-5.39944 1.49689-10.32764 1.95335-13.63642 1.14249-3.59004-.87979-7.01866-2.88795-5.77309-6.02005-3.59608 8.32211 14.30177 7.52415 19.97084 6.5903 3.00619-.4952 8.63916-1.64609 13.87049-4.80341 13.84533-8.35621 7.17702-12.86501 24.53573-35.27824 3.61354-4.66574 8.70188-4.97372 9.09981-1.52649.91261 7.90594 1.70738 26.09761 2.19194 33.6731l3.30806-.875s-1.16305-18.22522-.0856-33.11679c.50456-6.97336 3.98896-12.98772 3.77308-18.36881-.25876-6.44998-6.08212-13.91019-10.98293-20.38677-7.17725-9.48498-3.63194-30.48876.6351-43.98302 2.08666-6.59895-.53743-12.20616-5.92849-11.78105-2.9652.23382-5.9544.75261-9.00462 1.01507-5.75996.49562-13.57036 68.34789-18.65332 86.98063-4.62262 18.31011-3.49007 38.28367-12.14735 26.54107z" class="shoe_primary"/><path id="path33681" d="m250.49998 876.57952c-1.10952 2.16083-4.50391 5.97865-6.48672 7.44969-1.43309 1.06323-3.10794 1.84072-4.89322 2.46108.77782 1.0756 1.57964 2.17182 2.29565 3.19424 1.48955-.61814 2.88948-1.3693 4.14488-2.30067 1.77949-1.32019 5.91437-5.7172 7.0965-7.65018zm6.56338 11.04615c-1.5564 4.29932-8.30875 8.03981-10.90506 9.14177.70971 1.11531 1.39809 2.21446 2.04434 3.28901 2.25333-1.04072 8.83406-4.23718 9.84669-8.43596-.12121-1.45607-.58445-2.70693-.98597-3.99482zm-32.75214 3.22431c4.17506.92858 8.28155.92631 12.06457.19697-.77662-1.06495-1.59928-2.17619-2.45353-3.31547-2.88491.39694-5.93938.37219-9.03144-.1765zm-2.7173 11.05421c6.1951 1.08241 14.43142 1.78443 22.03844-.29323-.68991-1.09163-1.42717-2.22088-2.20252-3.3801-6.4347 1.54314-13.28881 1.20571-18.85573.38555zm-2.57761 6.62897c2.35723 2.70068 6.2212 6.48516 10.26444 10.24863l1.32517-2.0736c-4.13316-3.81023-8.16375-7.71392-10.56217-10.44963zm18.70994-21.58889c-2.9313-4.19239-6.42946-8.65272-10.52031-13.80018-.19583.95993-.39073 1.91981-.53685 2.87708 3.37714 4.2469 6.28348 7.91301 8.8056 11.45589l2.32849 3.27089c1.7789 2.49888 3.59794 4.87431 4.99146 7.12995l2.08465 3.37429c.45249.73242.90494 1.48531 1.35449 2.25192l1.86295-.81833c-.40212-.69763-.80372-1.38017-1.20177-2.04123l-2.01585-3.34782c-1.35411-2.24882-3.15478-4.63434-4.86234-7.07653z" class="shoe_accent"/><g id="g33691" style="display:inline;opacity:1" transform="rotate(-29.902378,222.42755,900.9387)"><path id="path33683" d="m214.73047 905.97266c-4.63785.73883-5.75175 1.23589-8.32617 1.99414-.68293-.42788-1.30742-.72597-1.4336-.79102a.12167381.12167381.0 00-.11132.0.12167381.12167381.0 00-.0605.0762c-.36818 1.32184-.58787 2.67044-.69141 3.13672a.12167381.12167381.0 00.16211.14063c.57492-.22208 1.16702-.43178 1.79492-.62891 2.52757 1.56889 3.72556 2.39282 7.28321 4.16406a.12167381.12167381.0 00.0117.006c.27514.1072.53676.0845.74414-.0215s.36145-.28968.44336-.5c.0819-.2103.0947-.4496.0137-.66797-.0799-.21528-.25684-.40559-.52539-.51367l-.006-.004c-2.67555-1.33939-3.43736-1.91196-5.35742-3.03906 2.04595-.55423 2.58585-.94401 6.3457-1.54297.29159-.0462.50726-.19844.63281-.39453.12553-.19612.16427-.43145.12891-.6543-.0354-.22283-.14432-.43624-.32422-.58398-.18008-.14765-.43301-.22202-.72461-.17578zm.0195.11914c1.04622-.1659 1.29427 1.40245.24805 1.56836-3.95093.62939-4.32098 1.02567-6.62891 1.62304 2.14795 1.24598 2.79229 1.78251 5.61133 3.19336.98722.38462.41105 1.86509-.57617 1.48047-3.58071-1.78272-4.75546-2.59821-7.32422-4.19141-.65081.20284-1.26034.41933-1.85352.64844.10637-.47899.32369-1.81764.68946-3.13086.14066.0725.77698.372 1.4746.81446 2.61881-.76882 3.69404-1.26265 8.35938-2.00586zm-2.50781 14.73242c-3.08293-.0646-4.61643.55557-8.44922 1.37305-.33007-.18747-.8739-.41288-1.15235-.57813a.12167381.12167381.0 00-.13671.01.12167381.12167381.0 00-.0449.0742c-.14575.83496-.1778 1.71832-.23242 2.58399a.12167381.12167381.0 00.14453.125c.38439-.0846.75512-.16946 1.13672-.25195 3.56463 2.11242 4.39453 2.97601 6.79102 4.50976.2489.1591.51016.18835.73437.125.22424-.0633.40966-.21405.53125-.4043.12161-.19022.17921-.42028.14258-.65039-.0366-.23011-.17488-.45615-.42383-.61523-1.97315-1.26281-2.3612-1.84215-5.10937-3.50195 2.90749-.59545 3.76702-1.01614 6.02929-.96875.29498.006.53317-.1028.69141-.27344.15826-.17061.23744-.39564.24219-.62109.005-.22546-.0639-.45567-.21484-.63282-.15091-.17715-.38472-.29653-.67969-.30273zm-.004.12109c1.05825.0223 1.02505 1.61018-.0332 1.58789-2.37682-.0498-3.11525.39632-6.3457 1.03321 3.02597 1.80044 3.30655 2.34831 5.35937 3.66211.89308.57088.0376 1.90877-.85547 1.33789-2.39979-1.53587-3.22153-2.3999-6.83008-4.53516-.39994.086-.78556.17373-1.18554.26172.0547-.86766.0886-1.74659.23242-2.57031.30754.1825.89107.42268 1.19726.60351 3.87783-.82432 5.38098-1.44536 8.46094-1.38086z" transform="rotate(29.902378,222.42755,900.9387)" class="shadow"/><path d="m201.92594 900.07947c.62843.0971 1.26516.21328 1.93045.36189 1.43255 2.66169 2.04317 3.95316 4.25847 7.28362.66406.82557 1.90234-.17053 1.23828-.9961-1.74042-2.62839-2.03128-3.41396-3.27214-5.56487 2.29849.63271 2.8163.47406 6.55503 1.89808.98965.37775 1.55605-1.10663.5664-1.48438-4.41478-1.68151-5.59298-1.7883-8.24643-2.42737-.38418-.73134-.78592-1.30775-.87171-1.44074-.97174.95605-1.82735 2.00767-2.15835 2.36987zm-7.06574 8.98248c-.53529.64239-1.0023 1.38658-1.4823 2.11144.3906.12313.76863.23846 1.15821.36328 2.06369 3.64995 2.34469 4.81036 3.65935 7.33812.48959.94011 1.89975.20573 1.41016-.73438-1.12458-2.16228-1.09589-2.77665-2.82147-5.84593 3.11791 1.05836 3.98061 1.03914 6.0162 2.2672.90626.54688 1.72658-.8125.82032-1.35938-2.63779-1.59135-4.24952-1.8025-8.02206-3.0211-.17528-.3094-.56279-.80772-.73841-1.11925z" id="path33685" class="shoe_primary"/><path id="path33687" d="m221.64844 873.91016c-4.63128.73779-6.19801 1.32232-8.77149 2.08007-.30856-.19617-.6124-.39182-.91211-.58984a.14406815.14406815.0 00-.15039-.006.14406815.14406815.0 00-.0723.10742l-.35157 2.62891a.14406815.14406815.0 00.19336.15625c.30525-.10794.61892-.21316.94141-.31445 2.52768 1.56869 3.9087 2.48001 7.6543 3.9414.28037.10923.55081.0893.76367-.0195.21287-.10881.3655-.29872.44922-.51367.0837-.21493.0988-.45944.0156-.68359-.0831-.22418-.26851-.42201-.54882-.53125-2.80372-1.09391-3.7527-1.68086-5.6543-2.78907 2.03772-.5537 3.02085-1.02107 6.73828-1.61328.29712-.0471.51764-.20296.64648-.40429.12886-.20133.16896-.44217.13282-.66993-.0362-.22775-.14743-.44595-.33204-.59765-.18485-.15155-.44506-.22876-.74218-.18164zm.0215.14062c1.04622-.16591 1.29622 1.40245.25 1.56836-3.95092.6294-4.77801 1.11552-7.08594 1.71289 2.14796 1.24598 2.99932 1.80595 5.97461 2.9668.98723.38462.4091 1.86704-.57812 1.48242-3.7682-1.47021-5.11679-2.3736-7.68555-3.9668-.34688.10811-.68246.22016-1.00976.33594l.34961-2.63086c.31847.21042.642.42044.9707.62891 2.6188-.76882 4.14911-1.35445 8.81445-2.09766zm-2.98633 16.01172a.14406815.14406815.0 00-.0176.002c-3.11637.30946-5.14389.75112-8.97852 1.56641-.15098-.0894-.28233-.16638-.41211-.24414a.14406815.14406815.0 00-.15039.0.14406815.14406815.0 00-.0625.084l-.60547 2.16016a.14406815.14406815.0 00.17188.17773c.2556-.0571.50745-.11218.76562-.16797 3.56385 2.10749 5.09171 2.90198 7.47266 4.42579.25361.16212.5218.19393.75195.1289.23018-.065.41865-.22166.54297-.41601.12428-.19443.18604-.42982.14844-.66602-.0376-.23621-.18001-.46677-.4336-.6289-1.95978-1.25427-3.03577-1.79821-5.73828-3.39649 2.90103-.58935 4.24164-1.02023 6.51758-1.15039.59632-.0341.93532-.49709.94531-.94922.005-.22606-.0688-.45174-.22461-.62695-.15579-.17522-.39467-.29254-.69336-.29883zm-.004.14453c1.05825.0223 1.02355 1.52746-.0332 1.58789-2.40806.13771-3.67188.59359-6.90234 1.23047 3.02597 1.80044 4.00382 2.26628 6.05664 3.58008.89308.57089.0357 1.91073-.85742 1.33984-2.3998-1.53586-3.91684-2.32177-7.52539-4.45703-.27726.0596-.54737.12066-.82031.18164l.60546-2.16015c.14481.0868.28231.16909.45899.27343 3.87782-.82432 5.89074-1.26567 9.01758-1.57617z" transform="rotate(29.902378,222.42755,900.9387)" class="shadow"/><path d="m224.34618 875.75473c.34145.0628.68794.13282 1.04254.21203 1.43255 2.66169 2.1521 4.11627 4.68573 7.2693.66406.82557 1.90234-.17053 1.23828-.9961-2.0005-2.48957-2.45854-3.39964-3.6994-5.55055 2.29849.63271 3.25731.6239 6.99604 2.04792.98965.37774 1.55605-1.10664.5664-1.48438-4.41478-1.68151-6.03399-1.93814-8.68744-2.57721-.18101-.34458-.35574-.68696-.52692-1.02814zm-10.28444 11.98766c.26701.0832.53153.16514.80161.25167 2.06369 3.64995 2.98838 5.08826 4.30304 7.61602.48959.94011 1.89975.20573 1.41016-.73438-1.12458-2.16228-1.73958-3.05455-3.46516-6.12383 3.11791 1.05836 4.44065 1.29386 6.5968 2.37496.9462.47443 1.72658-.8125.82032-1.35938-2.86537-1.28964-4.83012-1.91026-8.60266-3.12886-.10114-.17853-.17991-.31977-.26218-.46717z" id="path33689" class="shoe_primary"/></g><g id="g33852" style="display:inline;opacity:1" transform="rotate(-29.902378,102.96515,922.94707)"><path id="path33844" d="m250.15603 914.76105c-4.38877-1.67161-5.60218-1.79602-8.21189-2.42212-.37871-.71138-.77146-1.28111-.84841-1.4004-.0213-.033-.0573-.0537-.0965-.0555-.0338-.001-.0666.0119-.0904.0359-.97814.96232-1.84089 2.02187-2.1631 2.37446-.066.0714-.0256.18754.0704.20272.6091.0941 1.22692.20749 1.8695.34963 1.40896 2.62008 2.03672 3.93156 4.23776 7.24057.002.004.004.007.007.011.18507.23009.42318.34084.6558.35233.23261.0115.45774-.0709.6336-.21241.17583-.14148.30623-.34254.34487-.57222.0381-.22645-.0204-.47963-.19937-.70721l-.003-.006c-1.65165-2.49491-2.0266-3.37104-3.12917-5.30529 2.04988.5395 2.71222.47076 6.27014 1.82591.2758.10532.53866.0809.74525-.0265.20659-.10744.35749-.29212.43793-.50294.0804-.21081.0924-.45011.0101-.66786-.0825-.21777-.26468-.40833-.54051-.51362zm-.0425.113c.98964.37775.42281 1.86097-.56684 1.48323-3.73873-1.42403-4.25708-1.26498-6.55557-1.89769 1.24086 2.15091 1.53195 2.93724 3.27236 5.56563.66406.82557-.57346 1.82172-1.23751.99615-2.21531-3.33047-2.82713-4.62304-4.25968-7.28474-.66529-.1486-1.3016-.2648-1.93003-.3619.331-.3622 1.18673-1.4143 2.15848-2.37036.0858.13297.4881.70982.87227 1.44116 2.65346.63907 3.83174.74701 8.24652 2.42852zm-9.51843 11.52098c-2.64031-1.59292-4.27883-1.81979-8.00892-3.02187-.19267-.32706-.55173-.79358-.71073-1.07564-.025-.0433-.074-.067-.1235-.0595-.0296.004-.0566.0191-.0759.0419-.5426.65115-1.01076 1.40093-1.48966 2.12413-.0423.0664-.0114.15479.063.18041.3754.11829.73908.22955 1.111.34828 2.037 3.60825 2.60267 5.28663 3.91552 7.81091.13645.26201.34835.41761.57429.47446.22595.0569.46184.0187.66208-.0856.20025-.10428.36488-.27499.44784-.49273.083-.21773.0758-.48261-.0607-.74462-1.08094-2.07836-1.40529-3.29006-2.96016-6.09893 2.81728.93327 3.77211.99708 5.70959 2.16596.25272.15226.51344.17668.73569.10765.22224-.069.40306-.22461.51957-.41768.11673-.19295.17177-.42686.12924-.65567-.0425-.2288-.18568-.44885-.43829-.60128zm-.0638.10297c.90626.5469.0859 1.90684-.82038 1.35996-2.03558-1.22807-2.89811-1.20947-6.01602-2.26782 1.72558 3.06928 1.97246 4.20012 3.09704 6.3624.48959.9401-.91898 1.67341-1.40856.73331-1.31465-2.52776-1.87303-4.20245-3.93672-7.85241-.38957-.12483-.76759-.24101-1.15819-.36414.47997-.72488.94752-1.46991 1.48284-2.11227.17562.31152.56173.81063.73701 1.12003 3.77254 1.21861 5.38519 1.4296 8.02298 3.02094z" class="shadow"/><path d="m238.83638 913.37518c.62843.0971 1.26516.21328 1.93045.36189 1.43255 2.66169 2.04317 3.95316 4.25847 7.28362.66406.82557 1.90234-.17053 1.23828-.9961-1.74042-2.62839-2.03128-3.41396-3.27214-5.56487 2.29849.63271 2.8163.47406 6.55503 1.89808.98965.37775 1.55605-1.10663.5664-1.48438-4.41478-1.68151-5.59298-1.7883-8.24643-2.42737-.38418-.73134-.78592-1.30775-.87171-1.44074-.97174.95605-1.82735 2.00767-2.15835 2.36987zm-7.06574 8.98248c-.53529.64239-1.0023 1.38658-1.4823 2.11144.3906.12313.76863.23846 1.15821.36328 2.06369 3.64995 2.61557 5.32663 3.93023 7.85439.48959.94011 1.89975.20573 1.41016-.73438-1.12458-2.16228-1.36677-3.29292-3.09235-6.3622 3.11791 1.05836 3.98061 1.03914 6.0162 2.2672.90626.54688 1.72658-.8125.82032-1.35938-2.63779-1.59135-4.24952-1.8025-8.02206-3.0211-.17528-.3094-.56279-.80772-.73841-1.11925z" id="path33846" class="shoe_primary"/><path id="path33848" d="m260.42802 902.44302c-4.38255-1.66923-6.03211-1.94357-8.64075-2.56964-.16969-.32388-.88053-1.56218-1.04162-1.88325-.024-.0485-.0732-.0795-.12738-.0802-.0456-43e-5-.0887.0208-.11623.0571l-2.0385 2.69846c-.0685.0862-.019.21421.0897.23185.31842.0586 1.61093.4462 1.94098.51916 1.40916 2.61997 2.15202 4.09844 4.67045 7.23256.18859.23446.43297.352.67173.3638.23878.0118.46576-.0767.64549-.22134.17971-.14459.31469-.34902.35431-.58481.0397-.23576-.0224-.49969-.21091-.73413-1.88514-2.346-2.41518-3.32791-3.51116-5.23658 2.04248.53586 3.12773.62083 6.64551 1.96068.28104.10729.54991.0821.76196-.0282.21208-.11029.3669-.29908.44912-.51454.0822-.21547.0945-.46008.0101-.68361-.0847-.22353-.27177-.42018-.55282-.52746zm-.0515.13262c.98965.37774.42451 1.86194-.56515 1.4842-3.73872-1.42402-4.69805-1.41493-6.99654-2.04765 1.24086 2.15092 1.69973 3.06077 3.70022 5.55034.66407.82557-.57612 1.82243-1.24018.99686-2.53362-3.15302-3.25232-4.60845-4.68487-7.27015-.3546-.0792-1.66951-.47181-2.01095-.53461l.90706-1.20234.5807.13249-.26047-.55696.81048-1.07432c.17118.34117.89192 1.60175 1.07293 1.94633 2.65345.63907 4.27199.89429 8.68677 2.57581z" class="shadow"/><path d="m248.60968 900.71867c.34145.0628 1.62594.492 1.98054.57121 1.43255 2.66169 2.1521 4.11627 4.68573 7.2693.66406.82557 1.90234-.17053 1.23828-.9961-2.0005-2.48957-2.45854-3.39964-3.6994-5.55055 2.29849.63271 3.25731.6239 6.99604 2.04792.98965.37774 1.55605-1.10664.5664-1.48438-4.41478-1.68151-6.03399-1.93814-8.68744-2.57721-.18101-.34458-.90563-1.57997-1.07681-1.92115l-.79859 1.05277.25607.54423-.58859-.10589z" id="path33850" class="shoe_primary"/></g></g><path id="path33714" style="display:inline;fill-opacity:1;fill:#000;opacity:1;stroke-width:.999995" d="m371.18067 944.19552c.55481 12.58086 5.83377 12.48974 16.18616 12.52343 12.29087.0401 20.60526-3.88237 20.29592-12.01953-.34194 8.13716-8.05029 11.66311-20.34115 11.62305-10.35239-.0337-15.05115.40969-16.14093-12.12695z"/><path id="path33862" d="m380.21289 824.99414a.42422591.42422591.0 00-.21484.0664c-.19722.12493-.25284.26492-.32227.41992-.0694.155-.13018.33675-.18945.55469-.11855.43586-.23177 1.01475-.34766 1.73046-.23176 1.43146-.46704 3.40347-.70117 5.7461-.46825 4.68526-.93472 10.85264-1.35938 17.08398-.42464 6.23134-.8071 12.52462-1.10742 17.45508-.30031 4.93046-.52585 8.55041-.61132 9.25391-.8565 7.04795.61204 18.01469-.0703 28.73828-.74466 11.70211-3.01785 22.16391-4.48437 34.88086-.13287 1.15218-.0975 2.15061-.002 3.08594a.42422591.42422591.0 00-.043.22461c.025.2879.0725.46052.0937.66796h.002a.42422591.42422591.0 00.002.0274.42422591.42422591.0 000 .004c39e-5.004.002.006.002.01 4e-5.003-.003-.008.002.0195a.42422591.42422591.0 00.004.0137c.30771 2.93951.82888 5.15551 1.625 6.83203.80054 1.6858 1.89286 2.82837 3.26563 3.5625 2.74554 1.46828 6.50029 1.35852 11.5625 1.375 6.18629.0202 11.24817-.84705 14.85547-2.79492 3.6073-1.94787 5.73759-5.03473 5.91406-9.23437a.42422591.42422591.0 00-.0547-.22266c.29688-1.82648.22015-3.96904-.37695-6.60547-1.38863-6.13135-4.1469-19.31625-4.93555-32.10156-.60024-9.73087.18182-18.5141.29102-24.8125.0409-2.35783-.13992-14.23258.86133-26.16211.54899-6.54113 1.44226-12.99223 2.0625-17.94141.31011-2.47458.55201-4.57155.64843-6.13086.0482-.77965.0611-1.42318.0234-1.92773-.0377-.50455-.0587-.88226-.38867-1.18555a.42422591.42422591.0 00-.58203.01c-.0207.007-.0374.0134-.0898.0254-.15112.0344-.40098.0723-.70508.10547-.60822.0664-1.44305.12085-2.29688.16601-.85383.0452-1.72878.0819-2.43554.11329-.70678.0314-1.19525.0477-1.45508.0879-.25086.0388-.42444.20559-.54297.375-.11853.1694-.20382.36623-.28321.60156-.15877.47065-.28382 1.0974-.39257 1.88086-.21751 1.56692-.36249 3.75198-.45508 6.37304-.18519 5.24213-.15805 12.21696-.0508 19.30469.10729 7.08774.29589 14.28818.4375 19.97266.0708 2.84224.12909 5.30439.16015 7.18359.0311 1.8792.0304 3.19982-.006 3.65625-.93867 11.83898-.41828 24.84605-.33203 30.98438.0832 5.91956-.0266 8.90391-.29883 10.43945-.13609.76777-.30756 1.15503-.48437 1.39063-.17681.23559-.38795.35969-.7168.57031-1.36929.87698-1.96956.92921-2.83984.83984-.87029-.0894-2.02026-.3793-4.08399-.21094-1.74382.14227-2.67381.3315-3.39453.34571-.72071.0142-1.2735-.11792-2.45117-.66797-.7041-.32887-1.16543-.59615-1.4707-.99024-.30527-.39408-.50109-.9621-.57422-1.99609-.14626-2.06799.24169-5.87239.99609-13.0957.66323-6.35033 1.27988-17.47495 1.23633-26.70313-.0197-4.16876.96832-19.20604 1.3711-33.24805.20138-7.02098.25797-13.80345-.0352-18.89843-.14654-2.54749-.3785-4.66924-.73242-6.21289-.17697-.77183-.38242-1.39917-.64453-1.87891-.26212-.47974-.60705-.85335-1.08985-.93359a.42422591.42422591.0 00-.0723-.006c-.39543.002-.67744-.0395-.85352-.10156-.17608-.0621-.24617-.12651-.30664-.22461-.12095-.19621-.15776-.67826-.0977-1.4336a.42422591.42422591.0 00-.43359-.45703zm.0117.42383c-.12265 1.54027-.0146 2.2268 1.68164 2.2168 4.73428.78685.73734 52.27692.77734 60.75585.0435 9.20761-.57364 20.32988-1.23437 26.65626-1.50882 14.44669-1.58088 15.17034 1.29101 16.51171 2.40592 1.12373 2.61073.64082 6.06055.35938 4.02507-.32837 4.28237 1.12223 7.11719-.69336 1.27814-.8186 1.86187-.9106 1.69531-12.76367-.0865-6.1537-.60373-19.14307.33203-30.94532.32623-4.11457-2.1631-58.50642.77344-58.96093.67927-.10513 7.18169-.21536 7.21289-.61524 1.09669 1.00805-1.37996 13.72555-2.48047 26.83789-1.00357 11.95717-.82318 23.87901-.86328 26.18946-.1087 6.2699-.89361 15.0766-.29101 24.8457.79128 12.82803 3.55449 26.02889 4.94531 32.16992.62596 2.76386.7366 5.01082.39062 6.8457.008-.0448.0233-.0836.0312-.1289-.34193 8.13716-8.05288 11.66311-20.34375 11.62305-10.35239-.0337-15.04889.41164-16.13867-12.125.0193.18288.0472.35609.0742.53125-.16939-1.09655-.19268-2.33905-.0293-3.75586 1.46383-12.69362 3.73922-23.16171 4.48633-34.90235.68596-10.77992-.77458-21.77844.0684-28.71484.37915-3.12002 2.72786-50.85074 4.44336-51.9375zm-8.96875 119.31055c.009.0573.0157.11736.0254.17382-.01-.0565-.0165-.11646-.0254-.17382zm.0254.17382c.0406.23739.0899.46621.14453.68946-.0547-.22364-.10383-.45163-.14453-.68946zm36.35156-.0742c-.0713.3779-.15734.74269-.26758 1.08594.11035-.34352.19627-.70771.26758-1.08594zm-.26758 1.08594c-.0146.0456-.0335.0878-.0488.13282.0153-.045.0342-.0872.0488-.13282zm-.0488.13282c-.10766.31617-.23415.61674-.375.90429.14089-.28758.2673-.58808.375-.90429zm-.375.90429c-.0289.0591-.0556.11984-.0859.17774.0303-.0578.057-.11877.0859-.17774zm-.0859.17774c-.15717.30015-.33341.58397-.52735.85351.19371-.26923.37033-.55374.52735-.85351zm-.52735.85351c-.0442.0614-.0926.11979-.13867.17969.0461-.06.0944-.11819.13867-.17969zm-.13867.17969c-.19013.24708-.3934.48337-.61523.70508.22184-.22174.42509-.45796.61523-.70508zm-.61523.70508c-.0258.0258-.048.0546-.0742.0801.0262-.0254.0484-.0543.0742-.0801zm-.0742.0801c-.24606.23883-.51394.45947-.79688.66992.28248-.21019.55118-.43143.79688-.66992zm-.79688.66992c-.0604.0449-.12154.0891-.18359.13281.0619-.0436.12333-.088.18359-.13281zm-.18359.13281c-.2897.20394-.59458.39835-.91992.57617.32583-.17808.62983-.3719.91992-.57617zm-.91992.57617c-.0322.0176-.0671.0334-.0996.0508.0325-.0173.0674-.0332.0996-.0508zm-.0996.0508c-.30781.16413-.63242.31419-.9707.45703.33784-.14268.66326-.29311.9707-.45703zm-.9707.45703c-.0749.0316-.14822.0651-.22461.0957.0764-.0306.14968-.0641.22461-.0957zm-.22461.0957c-.15442.0619-.32399.11395-.48438.17187.16047-.058.32989-.10991.48438-.17187zm-.48438.17187c-.36374.13137-.73881.25535-1.13281.36719.39366-.11175.76936-.23594 1.13281-.36719zm-1.13281.36719c-.186.0528-.37573.10365-.56836.15234.19227-.0486.38269-.0996.56836-.15234zm-.56836.15234c-.38553.0975-.78562.18565-1.19726.26758.41149-.0819.81186-.17015 1.19726-.26758zm-1.19726.26758c-.19535.0389-.38677.0797-.5879.11524.20108-.0356.3926-.0764.5879-.11524zm-.5879.11524c-.56941.10074-1.15863.19121-1.77343.26757.6147-.0763 1.2041-.16685 1.77343-.26757zm-26.88281-6.29297c.0643.24921.13783.48881.21875.7207-.0809-.23179-.15449-.4716-.21875-.7207zm.21875.7207c.0219.0626.0492.12027.0723.18164-.023-.0614-.0504-.11899-.0723-.18164zm.0723.18164c.0635.1692.1291.3361.20117.4961-.072-.15982-.13777-.3271-.20117-.4961zm.20117.4961c.0296.0658.0608.12912.0918.19335-.0311-.0643-.0621-.12749-.0918-.19335zm.0918.19335c.0718.14858.14558.29498.22461.43555-.0789-.14034-.15298-.28724-.22461-.43555zm.22461.43555c.0432.0768.0895.1501.13476.22461-.0453-.0745-.0916-.14779-.13476-.22461zm.13476.22461c.0695.11435.1406.22699.21485.33594-.0743-.10908-.14527-.22145-.21485-.33594zm.21485.33594c.0553.0811.1121.16007.16992.23828-.0577-.0781-.11474-.1573-.16992-.23828zm.16992.23828c.0732.099.14748.19658.22461.29101-.0771-.0944-.15138-.19196-.22461-.29101zm.22461.29101c.0633.0775.12751.15402.19336.22852-.0659-.0746-.12998-.1509-.19336-.22852zm.19336.22852c.054.0611.11041.11868.16601.17774-.0555-.059-.11212-.11677-.16601-.17774zm.16601.17774c.24521.26046.50314.50523.77734.72851-.27444-.22341-.53193-.46786-.77734-.72851zm.77734.72851c.0368.0299.076.0566.11329.0859-.0372-.0293-.0765-.056-.11329-.0859zm.11329.0859c.29032.22841.59003.44142.90625.63281-.31545-.19098-.61658-.40498-.90625-.63281zm.93359.64648c.35991.21637.73516.41079 1.12109.58399-.38564-.17305-.76142-.36784-1.12109-.58399zm1.12109.58399c.13257.0595.27122.10538.40625.16015-.13486-.0547-.27384-.10073-.40625-.16015zm.40625.16015c.26571.10781.53124.21403.80469.30469-.27345-.0906-.53898-.19691-.80469-.30469zm.80469.30469c.16778.0556.33784.10273.50781.15234-.16995-.0496-.34005-.0967-.50781-.15234zm.50781.15234c.24932.0728.49741.1443.75.20508-.25196-.0606-.50129-.13248-.75-.20508zm.75.20508c.18655.0449.37304.0822.56055.1211-.18709-.0388-.37442-.0763-.56055-.1211zm.56055.1211c.23595.0489.4708.0966.70703.13672-.23596-.0401-.47136-.0879-.70703-.13672zm.70703.13672c.18978.0322.37725.0608.56641.0879-.18841-.027-.37738-.0558-.56641-.0879zm.56641.0879c.25526.0365.50716.0696.75976.0977-.25193-.028-.50518-.0612-.75976-.0977zm.75976.0977c.16553.0184.32843.0356.49219.0508-.16321-.0151-.32722-.0324-.49219-.0508zm.49219.0508c.17095.0158.33348.0284.50195.041-.16697-.0126-.33254-.0253-.50195-.041zm.50195.041c.66714.0502 1.30574.0818 1.91211.0957-.6028-.014-1.24938-.0459-1.91211-.0957zm1.91211.0957c.7321.017 1.41246.0165 2 .0156-.58514 83e-5-1.27136.001-2-.0156zm2 .0156c1.32863-.002 2.58626-.0215 3.81055-.0527-1.22521.0313-2.48083.0508-3.81055.0527zm3.81055-.0527c.41985-.0107.84487-.0219 1.25195-.0371-.40776.0153-.83138.0264-1.25195.0371zm1.25195-.0371c.22164-.008.44236-.0176.66016-.0273-.2181.01-.43821.019-.66016.0273zM392 952.63086c.59996-.0268 1.18368-.0605 1.75391-.0996-.57075.0391-1.15338.0728-1.75391.0996zm1.75391-.0996c.18542-.0127.37637-.023.55859-.0371-.18236.0141-.37303.0244-.55859.0371zm.55859-.0371c.73142-.0567 1.44247-.12299 2.12109-.20508-.67889.0821-1.38935.14833-2.12109.20508z" class="shadow"/><g id="g33720" style="display:inline;opacity:1;stroke-width:.731216" transform="matrix(1.0526247,0,-0.0264214,1.7767893,4.4593924,-715.80809)"><path id="path33716" style="display:inline;fill-opacity:1;fill:#000;opacity:1;stroke-dasharray:none;stroke-dashoffset:0;stroke-linecap:butt;stroke-linejoin:miter;stroke-miterlimit:4;stroke-opacity:1;stroke-width:.331638;stroke:none;vector-effect:none" d="m397.91229 874.62518c.10802 2.36761-.14286 4.97058-.30468 8.38201l-.54297 11.44709c-.5268 11.10523.50666 21.85682-.62891 33.30603-.23241 2.12969-.92082 1.92201-2.24414 2.3895-5.49841 1.84659-9.24262 1.16418-13.28711-.94768-1.30237-.68004-1.49311-1.11664-1.35156-3.34654l1.28125-32.5679 1.00586-14.28071c.0833-1.1833-.21413-2.48629-.4336-3.72499-.008-.0431-.012-.0881-.0195-.13131.13273 1.31435.25795 2.63307.17188 3.85637l-1.00586 14.28071-1.28125 32.56789c-.14155 2.2299.14296 3.01682 1.44531 3.69684 4.04449 2.11185 8.5387 3.19459 14.03711 1.34801 1.32332-.46749 1.73048-1.01043 1.96289-3.14013 1.13557-11.44921-.0297-22.21885.62891-33.30602l.66797-11.24692c.20254-3.40997.16967-6.24105-.10157-8.58218zm-8.44336-9.60804c-9.2476-.0708-8.90872 5.40662-8.08203 10.13348-.49865-4.9379-1.18526-9.85401 8.06641-9.78318 4.99241.0383 7.69416 2.6562 8.45898 9.25774-.001-.0274-6e-4-.0572-.002-.0844-.33876-6.87328-3.46735-9.48551-8.44141-9.52358z"/><path d="m380.71695 929.55246c3.97798 2.41417 8.53844 3.19609 14.03685 1.34949 1.32332-.46749 1.73173-1.01126 1.96414-3.14096 1.13557-11.4492-.0307-22.21966.62786-33.30683l.66802-11.24689c.77367-13.02551-1.79848-17.78829-8.56137-17.84005-11.71421-.0897-7.4846 7.82014-7.89405 13.63929l-1.00487 14.28099-1.28111 32.56759c-.14155 2.2299.0941 3.32929 1.44453 3.69737z" id="path33718" class="shoe_accent"/></g><path id="path33722" d="m371.22571 940.97356c-1.36551 11.84109 10.03679 11.78192 15.0517 11.77479 15.35685-.0218 23.95277-1.56857 20.96391-14.76558-1.39082-6.14103-4.15385-19.34257-4.94513-32.1706-.60259-9.7691.18397-18.57519.29267-24.84509.0401-2.31045-.14183-14.232.86174-26.18917 1.10051-13.11234 3.5768-25.83001 2.48011-26.83806-.0312.39988-6.53291.51048-7.21218.61561-2.93654.45451-.4467 54.84605-.77293 58.96063-.93576 11.80225-.41953 24.7905-.33306 30.9442.16656 11.85307-.41578 11.94575-1.69392 12.76435-2.83482 1.81559-3.09289.36459-7.11796.69296-3.44982.28144-3.65369.76544-6.05961-.35829-2.87189-1.34137-2.80042-2.06526-1.2916-16.51195.66073-6.32638 1.27741-17.44871 1.23396-26.65631-.04-8.47894 3.95638-59.97033-.7779-60.75718-1.69627.01-1.8044-.67498-1.68175-2.21525-1.7155 1.08676-4.06306 48.81654-4.44221 51.93656-.84294 6.9364.61636 17.93486-.0696 28.71478-.74711 11.74064-3.02243 22.20998-4.48626 34.9036.0 1e-5 4e-5-1e-5 4e-5.0zm-.0441 3.22284c.90688 8.60688 10.58514 8.55836 15.09585 8.55195 12.21897-.0174 20.15766-1.00014 21.38617-8.04877-.34193 8.13716-8.05192 11.66229-20.34279 11.62223-10.35239-.0337-15.04945.41123-16.13923-12.12541z" class="shoe_primary"/><g id="g33736" style="display:inline;filter:url(#filter22159-3);opacity:1;stroke-width:.974683" clip-path="url(#clipPath22453-5)" transform="matrix(1.0526247,0,0,1,-19.809771,8.4533298)"><path d="m385.90352 940.54041c-11.29536-2.98711-14.66555-13.32033-5.30329-22.98098l12.28597.88389c9.35938-6.60521 11.53605 10.24934 9.55936 14.23643-2.03405 4.10278-5.5335 6.51356-16.54204 7.86066z" id="path33724" class="shoe_primary_highlight"/><path d="m385.90352 940.54041c-11.29536-2.98711-14.66555-13.32033-5.30329-22.98098l12.28597.88389c9.35938-6.60521 11.53605 10.24934 9.55936 14.23643-2.03405 4.10278-5.5335 6.51356-16.54204 7.86066z" id="path33726" class="shoe_primary_highlight"/><path d="m385.90352 940.54041c-11.29536-2.98711-14.66555-13.32033-5.30329-22.98098l12.28597.88389c9.35938-6.60521 11.53605 10.24934 9.55936 14.23643-2.03405 4.10278-5.5335 6.51356-16.54204 7.86066z" id="path33728" class="shoe_primary_highlight"/><path d="m385.78291 937.80037c-9.86633-2.98711-12.81014-13.32033-4.63234-22.98098l10.73161.88389c8.17528-6.60521 10.07657 10.24934 8.34996 14.23643-1.77671 4.10278-4.83343 6.51356-14.44923 7.86066z" id="path33730" class="shoe_primary_highlight"/><path d="m386.45077 934.53c-8.61593-2.98711-11.18666-13.32033-4.04527-22.98098l9.37155.88389c7.1392-6.60521 8.79953 10.24934 7.29174 14.23643-1.55154 4.10278-4.22087 6.51356-12.61802 7.86066z" id="path33732" class="shoe_primary_highlight"/><path d="m386.46539 930.81769c-7.79424-2.98711-10.1198-13.32033-3.65947-22.98098l8.47779.88389c6.45834-6.60521 7.96033 10.24934 6.59634 14.23643-1.40358 4.10278-3.81833 6.51356-11.41466 7.86066z" id="path33734" class="shoe_primary_highlight"/></g><path id="path33738" d="m401.74012 885.93674c.0909.17216.18291.3435.26817.51939-.0176-.27029.44896-2.57407.50133-2.88542-.0163-.24698.0657-1.40989.0653-1.71974-.49265 1.52058-.68771 2.41827-.83481 4.08577zm-1.36117-.94449c.0119.66318.0231 1.32466.0389 1.95822.39905.53527.74339 1.00189 1.05212 1.61529l.2836.56627c.17453.34677.34442.65277.49915 1.0158-.0484-.74977.11374-1.24566.0661-1.98464-.0626-.12329-.33588-.45552-.39867-.58701l-.28149-.58909c-.36096-.75592-.77611-1.3447-1.25957-1.99484zm.97039 4.59763c-.22495 1.85926-.47613 3.57121-.74529 5.0033l.0473 2.2258c.36885-1.82563.70481-4.15067.99377-6.70891-.0943-.17394-.19289-.34736-.2957-.52019zm.82586 2.63705c-.46227 4.14369-.9919 7.53586-1.44173 10.04381l.014 2.44567c.40063-2.14065.88499-5.06646 1.33892-8.68314zm.25926 15.57091c-.59692.36792-1.21098.65321-1.55379.6821l-.0349 1.94629c.38472-.0256 1.08196-.34523 1.74191-.76392z" class="shoe_accent"/><path id="path33740" d="m375.82191 876.85628c-.0625 1.23035-.16847 1.89158-.25393 3.16476.0239.28255.19408 1.42276.21158 1.60431.11869 1.23845.26162 2.45265.42254 3.64046.13179-.19213.27791-.37805.41962-.56649-.19785-1.35397-.37623-2.73829-.51173-4.15207-.0698-.72913-.17997-2.18912-.28803-3.69097zm2.84229 6.76715c-.7243.69647-1.34777 1.32612-1.88755 2.11665l-.42108.61699c-.24073.35254-.53374.72989-.75357 1.09766-.0104.66708.08 1.19321.0621 1.84647l.0277-.0634c.26746-.52766.59395-.88805.91966-1.34157l.42547-.59504c.46179-.643.97682-1.14351 1.57466-1.71703.0211-.63507.0374-1.29642.0526-1.96076zm-1.44308 4.69221c-.1539.18269-.30189.36595-.44301.54892.44337 2.53064.95683 4.8209 1.51765 6.61126l.0629-2.22864c-.40962-1.40635-.79284-3.09377-1.13751-4.93154zm-1.3729 1.8861c-.0526.0-.15644.16155-.15249.26286l.009.2302.0676 2.20017c.79317 4.48296 1.68993 8.01862 2.40659 10.48975l.0131-2.4482c-.73053-2.62898-1.60205-6.25534-2.34372-10.73478zm-.33863 18.23397c.90895.39648 1.8974.67975 2.54199.66661l-.0585-1.94099c-.59077.005-1.47703-.25413-2.30081-.60458z" class="shoe_accent"/><g id="g33748" transform="matrix(1.0526247,0,0,1,-16.70223,2.2661422)" style="display:inline;opacity:1;stroke-width:.974683"><path d="m377.5488 905.17909c-.17638 81e-5-.35358.0674-.49182.18573-.13824.1183-.23693.28728-.27222.46877-.0353.18151-.007.3737.076.53504.0833.16136.22084.29008.38272.35718 2.58251 1.10891 4.89572 2.26444 7.16355 3.4805-2.63525 1.02235-5.63544 2.0915-7.74958 3.03461-.1891.0738-.34834.23437-.43046.43192-.0821.19754-.086.42963-.009.6289.0773.19924.2338.36132.42086.43915.18703.0779.40178.0698.58148-.022 2.38019-1.07726 5.79861-2.33885 8.93955-3.5432 2.41109 1.35028 4.879 2.78547 7.57914 4.4821.17591.1107.39541.14737.59671.0995.2013-.0478.38129-.17914.48996-.3575.10866-.17837.14419-.4011.0964-.6055-.0478-.20441-.17789-.38731-.35408-.49802-2.32511-1.45876-4.49599-2.65563-6.56662-3.83956 2.33797-.86716 4.38665-1.67402 7.04354-2.53761.20504-.0667.39134-.21424.50556-.40192.11425-.18769.15596-.4139.11183-.61261-.0442-.19872-.17428-.3671-.35055-.46042-.17627-.0933-.39722-.10962-.60172-.0429-3.1463 1.02541-5.60138 2.00434-8.34151 3.03493-2.72392-1.50853-5.44311-2.87319-8.52167-4.19485h-.002c-.0929-.0411-.1943-.063-.2964-.0624zm-.001.0742c-.002.10303.18544.0186.27037.0565 3.08774 1.32563 5.81312 2.69316 8.54415 4.20652 2.75015-1.03444 5.20876-2.01681 8.36318-3.04474.9452-.30846 1.2516 1.06892.30416 1.37737-2.7186.88374-4.79018 1.70714-7.19427 2.59635 2.1111 1.20888 4.32295 2.42584 6.69404 3.91355.8142.51162.0607 1.74808-.75239 1.23647-2.71244-1.70423-5.18979-3.14494-7.60939-4.49962-3.14872 1.20701-6.58191 2.47412-8.97532 3.55687-.84501.43091-1.39919-.99464-.51113-1.34136 2.14873-.95955 5.22884-2.05367 7.90443-3.09542-2.31633-1.24568-4.67531-2.42508-7.31444-3.55835-.70334-.2915.29275-2.2104.27661-1.40414zm-1.00298 14.8572c2.54227 1.00082 4.91791 1.90209 7.32317 2.84899-2.31476 1.15908-4.72397 2.34461-7.3598 3.29048-.19937.0652-.3697.21546-.46372.40632-.0943.19137-.10907.4214-.0382.62306.0709.20166.22594.37141.41972.46094.19378.0895.42412.0965.62092.0195 3.24531-1.15876 6.09689-2.59697 8.85054-3.96622 2.80341 1.13607 5.74349 2.36541 8.94159 3.99465.19737.1084.42842.13815.62528.0801.19686-.0581.35608-.2041.43131-.39313.0753-.18904.0652-.4193-.0282-.6239-.0931-.20373-.26717-.37781-.47011-.47327l-.002-.002c-2.74872-1.39008-5.26793-2.39867-7.64671-3.39218 2.1778-1.04914 4.40821-2.09649 6.80192-2.78088.19532-.0559.36112-.19465.44973-.3773.0886-.18264.0998-.40737.0295-.60982-.0703-.20245-.22068-.38104-.40845-.48469-.18778-.10364-.41115-.13201-.60607-.0762-2.97751.8531-5.6215 2.10814-8.22825 3.40464-2.94338-1.19652-5.73854-2.25167-8.73426-3.44972-.94166-.32243-1.02627 1.29764-.50765 1.50061zm.48319-1.4322c3.00886 1.20251 5.81362 2.2611 8.76677 3.46148 2.61458-1.30036 5.26304-2.55842 8.24413-3.41247.90085-.25823 1.38861 1.1451.48607 1.40331-2.45296.7014-4.72849 1.78309-6.95253 2.85538 2.42726 1.01527 4.99464 2.03767 7.79898 3.45652.95504.44561.41972 1.78859-.5046 1.2811-3.21357-1.63664-6.16531-2.87087-8.97622-4.01025-2.76176 1.37354-5.61948 2.8169-8.87103 3.978-.91932.35971-1.4208-1.06779-.48578-1.37113 2.69684-.96759 5.15276-2.18427 7.51472-3.3669-2.46042-.97071-4.8842-1.89034-7.48058-2.91322-.56735-.51019-.15156-1.5468.46007-1.36182z" id="path33744" class="shadow"/><path d="m377.54732 905.2533c.0169-.84428-.97996 1.11264-.27661 1.40414 2.63913 1.13327 4.99811 2.31267 7.31444 3.55835-2.67559 1.04175-5.7557 2.13587-7.90443 3.09542-.88806.34672-.33388 1.77227.51113 1.34136 2.39341-1.08275 5.8266-2.34986 8.97532-3.55687 2.41959 1.35468 4.89695 2.79539 7.60939 4.49962.81309.51161 1.56659-.72485.75239-1.23647-2.37109-1.48771-4.58294-2.70467-6.69404-3.91355 2.40408-.88921 4.47567-1.71261 7.19427-2.59635.94747-.30826.64107-1.68564-.30417-1.37737-3.15441 1.02793-5.61303 2.0103-8.36317 3.04474-2.73103-1.51336-5.45641-2.88088-8.54415-4.20652-.085-.0379-.27234.0418-.27037-.0565zm-.96517 14.78686c2.59575 1.02287 5.01917 1.9425 7.47963 2.91321-2.36178 1.18263-4.81703 2.39932-7.51312 3.36691-.93477.30335-.43323 1.73085.48584 1.37114 3.25069-1.16111 6.10771-2.60448 8.86946-3.97802 2.81115 1.13938 5.76359 2.37362 8.97774 4.01027.92449.50749 1.45996-.83549.50472-1.28111-2.80489-1.41885-5.37291-2.44126-7.80054-3.45653 2.22423-1.07229 4.50037-2.15397 6.95403-2.85536.90284-.25807.41497-1.6614-.4862-1.40331-2.98195.85404-5.6311 2.11209-8.24573 3.41245-2.95342-1.20038-5.75784-2.25897-8.76597-3.46147-.76712-.21099-.96623 1.05784-.45986 1.36182z" id="path33746" class="shoe_primary"/><path d="m379.43572 833.9231c2.67872 1.00215 4.68956 1.97422 6.45465 3.0169-2.01531 1.08164-4.0451 2.19274-6.59903 3.12443-.19312.0642-.36065.21382-.45326.40441-.0929.1911-.10742.42112-.0384.62298.069.20186.21948.37207.40458.46255.18509.0905.40231.099.58636.0236 3.0347-1.13163 5.19586-2.449 7.54296-3.72019 1.95768 1.25272 3.93822 2.59327 6.81483 4.23557.17659.10917.39758.13981.59812.0825.20055-.0574.37732-.20282.47905-.3916.10175-.18878.12695-.41907.0673-.62396-.0595-.20402-.20227-.37867-.38549-.47484l-.002-.002c-2.46334-1.40006-4.29641-2.48548-5.97023-3.57335 1.96522-.9843 2.94805-1.90888 5.5636-2.60676.21343-.057.43495-.25583.59758-.51709.16263-.26127.26207-.55504.26485-.76351.003-.20848-.0887-.34441-.24376-.40182-.15515-.0574-.37225-.035-.58795.0536-3.29516 1.35338-4.60763 2.01488-6.95487 3.22934-2.10391-1.31973-4.37093-2.4804-7.57652-3.68078-1.00835-.32316-1.1089 1.29684-.56243 1.50008zm.53522-1.43169c3.21722 1.20483 5.48591 2.36973 7.59374 3.69377 2.34853-1.21755 3.65417-1.80607 6.96322-3.24436 1.00001-.43478.96174 1.1872-.0284 1.48699-2.69098.81436-3.70603 1.67338-5.70455 2.67824 1.70465 1.11247 3.56117 2.21499 6.07495 3.64404.86292.44897.13978 1.79016-.68704 1.27905-2.89022-1.64966-4.87646-2.99592-6.84082-4.25237-2.36009 1.27569-4.53102 2.5982-7.57664 3.73258-.86126.35215-1.35416-1.07635-.45005-1.37451 2.60861-.95266 4.66391-2.09119 6.71914-3.19432-1.79644-1.06961-3.83579-2.06349-6.57329-3.08778-.59423-.51046-.14502-1.54679.50976-1.36133z" id="path33892" class="shadow"/><path d="m379.47674 833.85281c2.73541 1.02452 4.77279 2.0186 6.56859 3.08828-2.05497 1.1031-4.10864 2.24146-6.71522 3.19391-.90341.29808-.4109 1.72662.44966 1.37454 3.04316-1.13411 5.21243-2.45645 7.57287-3.73217 1.96435 1.25644 3.95245 2.60251 6.84496 4.25192.82748.51105 1.55118-.8302.68757-1.2791-2.51578-1.42884-4.37406-2.53118-6.07921-3.64359 1.99932-1.00495 3.01416-1.84622 5.70882-2.67917.99151-.30649 1.02949-1.92802.0285-1.48965-3.31226 1.45062-4.61882 2.03037-6.96773 3.24796-2.10773-1.32405-4.37425-2.48918-7.58907-3.69426-.82115-.21165-1.0419 1.05704-.50976 1.36133z" id="path33894" class="shoe_primary"/></g><g id="g33754" transform="matrix(0.95402585,0,0,1,19.318055,-22.128279)" style="display:inline;opacity:1;stroke-width:1.02381"><path d="m379.52558 902.61648c-.18465 73e-5-.36798.0673-.50977.18555-.14179.11827-.24156.28724-.27539.46874-.0338.18152-.002.37375.0879.53516.0897.16142.23622.29023.4082.35742 2.74432 1.11049 5.46434 2.26999 8.16211 3.49024-2.99722 1.01882-6.42838 2.08377-8.69531 3.02539-.20282.0737-.37206.23414-.45898.43164-.0869.19749-.0905.42959-.008.62891.0827.19929.24997.36148.45118.43945.20118.078.43351.0701.6289-.0215 2.58812-1.07524 6.6026-2.33102 10.16602-3.53125 2.85518 1.35461 5.6767 2.79325 8.41406 4.49024.17834.11072.40107.14742.60547.0996.2044-.0478.38732-.17908.49805-.35742.11072-.17835.14742-.40107.0996-.60547-.0478-.20441-.17907-.38732-.35742-.49805-2.35352-1.45903-4.77542-2.65835-7.19726-3.8457 2.58492-.86476 4.71697-1.6708 7.29492-2.53516.19894-.0668.36943-.21446.46289-.40234.0935-.18789.10975-.41435.043-.61328-.0668-.19894-.21641-.36751-.4043-.46094-.18789-.0934-.4124-.10977-.61133-.043-3.06079 1.02625-5.65554 2.00381-8.71875 3.03125-3.23379-1.51349-6.50068-2.88349-9.77148-4.20703h-.002c-.0987-.0411-.20562-.0631-.3125-.0625zm0 .0742c.0979-52e-5.19488.0187.28515.0566 3.28068 1.32752 6.55674 2.70041 9.79883 4.21875 3.07652-1.03126 5.67584-2.01225 8.74414-3.04102.91934-.30872 1.38223 1.07019.46289 1.37891-2.63812.88453-4.79688 1.70708-7.46094 2.59375 2.47385 1.21242 4.94742 2.43193 7.34766 3.91992.82422.51172.0566 1.74805-.76758 1.23633-2.74964-1.7046-5.58334-3.14878-8.44922-4.50781-3.56994 1.20291-7.60039 2.46419-10.20117 3.54492-.9182.4302-1.50973-.99571-.55664-1.3418 2.30548-.95802 5.83546-2.04776 8.87695-3.08594-2.75622-1.24997-5.53719-2.43348-8.34179-3.56836-.74723-.29193-.5405-1.40113.26172-1.40429zm-.98049 14.85742c2.67872 1.00215 5.33608 1.90617 7.98828 2.85547-2.71408 1.15519-5.42318 2.3378-8.10742 3.2832-.20299.0652-.37566.2154-.4707.40625-.0953.19136-.11002.42139-.0391.62305.0709.20166.22579.37141.41992.46094.19412.0895.42555.0965.625.0195 3.28841-1.15834 6.55883-2.59247 9.79297-3.95703 3.04356 1.13841 6.0725 2.36861 9.08984 3.99609.18511.10828.41462.13802.62109.0801.20648-.058.38655-.2038.48828-.39258.10175-.18878.12373-.41873.0586-.62305-.0649-.20345-.2152-.3773-.40625-.47265l-.002-.002c-2.57426-1.38838-5.13353-2.39736-7.6875-3.39258 2.54698-1.04554 5.08701-2.08988 7.5664-2.77343.20231-.0558.38077-.19446.48438-.37696s.13196-.40706.0762-.60937c-.0558-.20231-.19445-.38078-.37695-.48438-.18251-.10359-.40708-.13197-.60938-.0762-3.0904.852-6.18297 2.10266-9.26562 3.39453-3.24631-1.19948-6.47554-2.25886-9.6836-3.45898-1.00912-.32308-1.10891 1.29684-.56244 1.50008zm.53523-1.43169c3.21974 1.20456 6.45824 2.26738 9.71289 3.4707 3.09119-1.29572 6.18934-2.54939 9.2832-3.40234.93494-.2579 1.32166 1.14444.38672 1.40234-2.541.70054-5.1402 1.77907-7.74414 2.84766 2.61102 1.01706 5.22444 2.03991 7.85156 3.45703.89991.44508.17713 1.78623-.68945 1.2793-3.03077-1.63486-6.07301-2.86997-9.12695-4.01172-3.24499 1.36883-6.52489 2.80808-9.82032 3.96875-.93193.35959-1.4342-1.06792-.48242-1.3711 2.74587-.96711 5.51463-2.18074 8.28711-3.35937-2.71263-.97317-5.43015-1.89566-8.16797-2.91992-.59431-.51045-.14551-1.54674.50977-1.36133z" id="path33750" class="shadow"/><path d="m379.52558 902.6907c-.80222.003-1.00895 1.11236-.26172 1.40429 2.8046 1.13488 5.58557 2.31839 8.34179 3.56836-3.04149 1.03818-6.57147 2.12792-8.87695 3.08594-.95309.34609-.36156 1.772.55664 1.3418 2.60078-1.08073 6.63123-2.34201 10.20117-3.54492 2.86588 1.35903 5.69958 2.80321 8.44922 4.50781.82422.51172 1.5918-.72461.76758-1.23633-2.40024-1.48799-4.87381-2.7075-7.34766-3.91992 2.66406-.88667 4.82282-1.70922 7.46094-2.59375.9194-.30853.45651-1.68744-.46289-1.37891-3.0683 1.02877-5.66762 2.00976-8.74414 3.04102-3.24209-1.51834-6.51815-2.89123-9.79883-4.21875-.0903-.0379-.18726-.0571-.28515-.0566zm-.93946 14.78711c2.73782 1.02426 5.45534 1.94675 8.16797 2.91992-2.77248 1.17863-5.54124 2.39226-8.28711 3.35937-.95177.30318-.4495 1.73069.48242 1.3711 3.29543-1.16067 6.57533-2.59992 9.82032-3.96875 3.05394 1.14175 6.09618 2.37686 9.12695 4.01172.86658.50693 1.58937-.83422.68945-1.2793-2.62712-1.41712-5.24054-2.43997-7.85156-3.45703 2.60394-1.06859 5.20314-2.14712 7.74414-2.84766.93498-.25776.54826-1.6601-.38672-1.40234-3.09386.85295-6.19201 2.10662-9.2832 3.40234-3.25465-1.20332-6.49315-2.26614-9.71289-3.4707-.82235-.21153-1.04241 1.05709-.50977 1.36133z" id="path33752" class="shoe_primary"/></g><path id="path33756" d="m393.99414 938.43945c-1.43186-.009-2.88407.007-4.4082.0352-4.48919.0819-11.45197-.8497-18.55469 4.32227a.13332769.13332769.0 00-.0547.11328l.0723 1.64062a.13332769.13332769.0 00.082.11524c.59942 4.03802 3.19254 6.12904 6.20312 7.1621 3.12663 1.07291 6.68836 1.05594 8.94336 1.05274 6.11302-.009 11.16022-.25514 14.85352-1.39258s6.04165-3.19449 6.66406-6.76562a.13332769.13332769.0 00.002-.008l.0898-.7539a.13332769.13332769.0 000-.006c.11207-1.49072.0562-2.46945-.0254-3.13281-.0816-.66336-.18327-1.02088-.17578-1.19922a.13332769.13332769.0 00-.11328-.13867c-5.18573-.77518-9.28268-1.01828-13.57813-1.04493zm0 .13282c4.29092.0266 8.37896.27067 13.55859 1.04492-.019.45125.42418 1.36189.20118 4.32812l-.0899.75391c-1.22851 7.04863-9.16775 8.03143-21.38672 8.04883-4.51071.006-14.18882.0561-15.0957-8.55078v.34765l-.0723-1.64062c7.06312-5.14312 13.96855-4.21458 18.47851-4.29688 1.52349-.0282 2.97595-.0442 4.40625-.0352z" class="shadow"/><path id="path33758" d="m393.99414 938.57227c-1.4303-.009-2.88276.007-4.40625.0352-4.50996.0823-11.41538-.84624-18.47851 4.29688l.0723 1.64062v-.34765c.90688 8.60688 10.58499 8.55719 15.0957 8.55078 12.21897-.0174 20.15821-1.0002 21.38672-8.04883l.0906-.75442c.223-2.96623-.22091-3.87636-.20196-4.32761-5.17963-.77425-9.26767-1.0183-13.55859-1.04492z" class="shoe_accent"/><g id="g33874" transform="matrix(0.95402585,0,0,1,19.976526,-48.4489)" style="display:inline;opacity:1;stroke-width:1.02381"><path d="m380.73342 898.90995c-.17206.003-.34478.0715-.47923.19114-.13445.11961-.22998.28935-.26266.47106-.0326.18173-.003.37362.0822.53413.0847.16051.22311.28783.38417.35302 2.57015 1.07864 4.80954 2.15026 7.07905 3.2922-2.38907 1.13002-5.33189 2.28427-7.54533 3.23567-.19811.0746-.36492.23544-.45093.43311-.086.19766-.0898.42972-.007.62904.0827.19929.25017.36151.45028.43928.20009.0778.42963.0694.62003-.0231 2.52324-1.0871 5.8728-2.46447 8.70631-3.79817 2.46476 1.28322 5.13409 2.69404 8.12025 4.43652.19458.11369.4193.15075.61089.10059.19159-.0501.34706-.18644.42262-.37121.0755-.18478.0698-.41526-.0158-.62658-.0856-.21133-.24941-.40018-.44527-.51411-2.58418-1.50121-4.92156-2.68508-7.04389-3.81766 2.09054-.95516 3.90085-1.82003 6.41751-2.6956.19421-.0677.66435-.43644.44971-.40475-.21466.0317.10413-.41538.0374-.61431-.0668-.19894-.21437-.36713-.39892-.45995-.18455-.0928-.4045-.10833-.59897-.0407-2.99215 1.0388-5.12722 2.10041-7.56968 3.24136-2.71555-1.41872-5.25912-2.65646-8.27121-3.9327l-.002 3e-5c-.0909-.0397-.18992-.0602-.28951-.0583zm-48e-5.0741c-59e-5.0933.18106.0162.26425.0528 3.02342 1.28048 5.5755 2.52099 8.30144 3.94495 2.45243-1.14538 4.58956-2.21089 7.58883-3.25228.89866-.3125 1.36138 1.06638.46385 1.37909-2.57557.89597-4.40154 1.77937-6.55155 2.76003 2.16102 1.15522 4.54103 2.35762 7.17581 3.8885.9049.52647.38025 1.80723-.51929 1.28173-3.00058-1.75048-5.67883-3.16624-8.14957-4.45302-2.83847 1.33667-6.19823 2.72059-8.73401 3.8132-.89482.43448-1.4866-.99148-.5557-1.34163 2.25095-.96799 5.26812-2.1515 7.68941-3.30308-2.31916-1.17006-4.5984-2.26182-7.22282-3.36375-.69923-.28316.25386-2.11876.24935-1.40656zm-2.18785 18.56404c2.67872 1.00215 5.33608 1.90617 7.98828 2.85547-2.71408 1.15519-5.42318 2.3378-8.10742 3.2832-.20299.0652-.37566.2154-.4707.40625-.0953.19136-.11002.42139-.0391.62305.0709.20166.22579.37141.41992.46094.19412.0895.42555.0965.625.0195 3.28841-1.15834 6.55883-2.59247 9.79297-3.95703 3.04356 1.13841 6.0725 2.36861 9.08984 3.99609.18511.10828.41462.13802.62109.0801.20648-.058.38655-.2038.48828-.39258.10175-.18878.12373-.41873.0586-.62305-.0649-.20345-.2152-.3773-.40625-.47265l-.002-.002c-2.57426-1.38838-5.13353-2.39736-7.6875-3.39258 2.54698-1.04554 5.08701-2.08988 7.5664-2.77343.20231-.0558.38077-.19446.48438-.37696s.13196-.40706.0762-.60937c-.0558-.20231-.19445-.38078-.37695-.48438-.18251-.10359-.40708-.13197-.60938-.0762-3.0904.852-6.18297 2.10266-9.26562 3.39453-3.24631-1.19948-6.47554-2.25886-9.6836-3.45898-1.00912-.32308-1.10891 1.29684-.56244 1.50008zm.53523-1.43169c3.21974 1.20456 6.45824 2.26738 9.71289 3.4707 3.09119-1.29572 6.18934-2.54939 9.2832-3.40234.93494-.2579 1.32166 1.14444.38672 1.40234-2.541.70054-5.1402 1.77907-7.74414 2.84766 2.61102 1.01706 5.22444 2.03991 7.85156 3.45703.89991.44508.17713 1.78623-.68945 1.2793-3.03077-1.63486-6.07301-2.86997-9.12695-4.01172-3.24499 1.36883-6.52489 2.80808-9.82032 3.96875-.93193.35959-1.4342-1.06792-.48242-1.3711 2.74587-.96711 5.51463-2.18074 8.28711-3.35937-2.71263-.97317-5.43015-1.89566-8.16797-2.91992-.59431-.51045-.14551-1.54674.50977-1.36133z" id="path33870" class="shadow"/><path d="m380.73294 898.98408c.005-.76446-.94858 1.1234-.24935 1.40656 2.62442 1.10193 4.90366 2.1937 7.22282 3.36375-2.42129 1.15158-5.43846 2.33509-7.68941 3.30308-.93091.35015-.33912 1.77611.5557 1.34163 2.53578-1.09261 5.89554-2.47653 8.73401-3.8132 2.47075 1.28678 5.149 2.70254 8.14958 4.45302.89959.5255 1.42419-.75526.51929-1.28173-2.63478-1.53088-5.01479-2.73328-7.17581-3.88849 2.15001-.98067 3.97597-1.86407 6.55154-2.76004.89759-.31252.43487-1.6914-.46385-1.37909-2.99927 1.04139-5.1364 2.1069-7.58883 3.25228-2.72594-1.42396-5.27802-2.66447-8.30145-3.94495-.0832-.0366-.26479.0341-.26424-.0528zm-2.14682 18.49373c2.73782 1.02426 5.45534 1.94675 8.16797 2.91992-2.77248 1.17863-5.54124 2.39226-8.28711 3.35937-.95177.30318-.4495 1.73069.48242 1.3711 3.29543-1.16067 6.57533-2.59992 9.82032-3.96875 3.05394 1.14175 6.09618 2.37686 9.12695 4.01172.86658.50693 1.58937-.83422.68945-1.2793-2.62712-1.41712-5.24054-2.43997-7.85156-3.45703 2.60394-1.06859 5.20314-2.14712 7.74414-2.84766.93498-.25776.54826-1.6601-.38672-1.40234-3.09386.85295-6.19201 2.10662-9.2832 3.40234-3.25465-1.20332-6.49315-2.26614-9.71289-3.4707-.82235-.21153-1.04241 1.05709-.50977 1.36133z" id="path33872" class="shoe_primary"/></g></svg>