<svg viewBox="0 0 560 1e3"><path d="m313.91402 113.55242c.29014.69478-.1636 1.79919-.85838 2.08933-.69478.29014-1.79919-.1636-2.08933-.85838s.1636-1.79919.85838-2.08933c.69478-.29014 1.79919.1636 2.08933.85838z" id="path5040" class="shadow"/><path class="steel_piercing" id="path2784" d="m313.78003 113.60837c.26376.63162-.14872 1.63563-.78034 1.89939-.63162.26376-1.63563-.14872-1.89939-.78034s.14872-1.63563.78034-1.89939c.63162-.26376 1.63563.14872 1.89939.78034z"/><path d="m316.13919 118.16732c.29014.69478-.1636 1.79919-.85838 2.08933-.69478.29014-1.79919-.1636-2.08933-.85838s.1636-1.79919.85838-2.08933c.69478-.29014 1.79919.1636 2.08933.85838z" id="path5042" class="shadow"/><path class="steel_piercing" id="path2786" d="m316.0052 118.22327c.26376.63162-.14872 1.63563-.78034 1.89939-.63162.26376-1.63563-.14872-1.89939-.78034s.14872-1.63563.78034-1.89939c.63162-.26376 1.63563.14872 1.89939.78034z"/></svg>