<svg viewBox="0 0 560 1e3"><path d="m308.13404 461.37031c-.42215-1.28729.0816-2.88322.21937-4.35713.83735-.9231 3.39354-.46675 4.27169-.32918-1.30887-1.90043-2.57358-4.54221-2.26693-6.80614 1.738.72332 5.26268-.10717 6.41461-.67323-.0359-.042-3.73233-5.5593-3.73233-5.5593l9.37697-2.92546c-2.29483-1.16082-2.9398-3.27348-.88244-5.06275 2.05735-1.78926 4.65981-3.19815 6.96574-5.50002 2.30592-2.30188 5.70181-7.11497 7.1718-9.21523-3.30249 2.57531-8.11937 4.56169-12.38086 6.76405 3.87939-4.08083 5.14191-8.70938 6.56483-13.30436-2.75485 4.55035-5.96287 8.80998-11.80357 11.38073.0795-2.69081-1.1771-5.33024-2.60799-7.96296-.22411 2.1009.65963 4.43504-1.59857 6.10771-1.87893.66093-.47641.32561-1.63156-.61901s-1.07324-2.86249-.92674-4.77175c.20638.15948-5.2425 3.40307-10.88069 2.89338.39636-1.77718-.0929-3.59654-.547-5.41423-1.43947 1.75633-2.54315 3.7645-5.73335 4.20778-2.4605-.40363-2.23191-1.95973-2.31051-3.38418-1.13808 1.43053-1.96377 3.07348-4.50289 3.5513-1.9104-1.28206-.74793-2.77125-.61109-4.22119-1.53049.96737-3.1427 1.90033-3.58898 3.32421-.54093-1.76679-2.17255-2.5156-3.54365-3.50756-.0389 1.41793.87573 3.17815-1.27914 3.8365-1.65822-2.01275-2.66902-3.03894-4.81025-3.3656.25465 1.17773 3.29056 2.50997-1.24916 3.42134-2.99547.66615-4.88472-1.06452-6.85325-2.62341 1.01031 2.71963 1.71296 5.80844 3.5463 7.54043-2.27359-.46197-8.62398-1.3164-12.1147-8.21411-1.18774 2.82298-3.39707 5.36503-1.4599 9.04737-4.08-.2462-6.1875-2.55065-8.40846-4.73671.87978 2.88663.68095 5.90808 3.36457 8.56923-3.64826.33795-6.3127-1.29171-9.26707-2.34153 3.9514 4.60614 8.75627 7.56631 13.86823 9.93423 1.34859 1.27311 6.10477 6.04621 5.62068 7.31932 2.82401-2.71219 1.92529-1.87573 4.91302-.16768 2.79974 2.66519 2.83014 1.95151 3.16745 4.12421 1.92433 1.50259 3.84866 1.63676 5.77299.97623.0.0-2.01653 2.6409-4.35182 2.38868 1.74775.61934 4.06788-.37099 5.9306-.0583 1.77365 1.74778.43253 3.2124-1.41503 4.63097 2.73367-.28074 5.4652-.70503 8.23933 1.72431 1.73622 1.49945 2.78135 3.0373 3.78142 4.57765 1.20741.19088 2.97961-.0117 1.69438 1.91564.94867-.32712 2.37843-.52377 1.68983-1.29489 1.14987.78895 2.29975.66306 3.44962.4995-.7627-.5118-1.8836-1.08502-.37378-1.68488l-1.10478-.10762-.6613-.63638c-.0538-.38752.0965-.69562.57239-.87715-.55161-.19514-.82876-.0489-.99909.22508.0467-.74904-.0233-1.52988-.30014-2.36715-.37451.28516-.76038.25212-1.16432-.28668.002-.91711-.0725-1.84829.23704-2.70958-.16694.37927-.59322.44156-1.01892.50457.38567-.60697.46502-1.15824.53332-1.7075-.4944.29755-1.11943.0252-1.05496-.82437.33836-.10834.62446-.4585.67693-.79556-.43615-.85876-.10806-1.64444-.0504-2.55807.27076.89645.49642 1.81024 1.13611 2.5648.13715-.65786.62993-1.03497 1.15644-1.38545.48685.95084.54472 1.96297.4514 2.9967.23312-.65185.73464-.76691 1.27616-.80195.12849.90282.30765 1.81288-.27027 2.61479.54567-.30808 1.13159-.3075 1.62165-1.04187-.0858 1.11195-.27643 2.20992-.67396 3.28031.25461-.26873.6401-.4284.66867-.8855.23427.66706.0246 1.11215-.0483 1.62563.11494-.22262.30901-.3028.63201-.15092-.23603.51298-.21479.99569.25629 1.42548-.0542-.28824-.10088-.57291.23199-.67779.40976.32368.52422.69166.51908 1.07758-.002.53232-.031.73901.15212 1.14793-.0165-.005 1.73831 1.6893 1.73831 1.6893.38852-.50132.92958-.77384 1.56782-.90059 1.1846.75012 2.56975.89857 3.88755 1.24905-.4332-1.00083.027-1.15529.77386-1.03816 1.46038-.0697 1.24438.67559 1.26775 1.30448 1.46259-1.00786 1.07324-1.76849 1.50981-2.14482.64839.13025 1.1895.0102 1.588-.44262z" id="path4354-2" class="pubic_hair"/></svg>