<svg viewBox="0 0 560 1e3"><defs><filter style="color-interpolation-filters:sRGB" id="filter53208"><feGaussianBlur stdDeviation="2 2" result="blur" id="feGaussianBlur53206"/></filter><clipPath clipPathUnits="userSpaceOnUse" id="clipPath53210"><path style="fill-opacity:.42179266;fill:#00e0e8" d="m271.15625 190.83398s-6.00932-.18284-17.10937 12.11719c-1.50978 1.67298-4.34625 7.6203-5.26368 13.1211-.98724 5.91707.002 11.34961.002 11.34961s-8.36237 22.74833-10.89063 34.11914c-3.94958 17.76318-5.33355 26.32543-7.78906 36.2246-2.45551 9.89918-4.67817 15.96148-5.71485 19.94336-.29595 1.13676-7.44168 22.88828 1.73218 31.83549 9.48636 9.252 23.32893 19.89639 35.24542 30.09973 16.92605 14.49271 31.98592 28.41196 31.98592 28.41196s10.97835 10.29527 12.37815 11.75086c1.25905.66361 8.88947 3.35187 9.79996 3.54699 12.13452 10.4916 19.79407 14.8485 27.39877 19.12712.91815-.44211 1.61108-.0983 2.89619-1.82061 3.99482.72683 6.00895-.89851 7.7106-2.89323 2.86213-.40168 5.25455-1.3999 6.55954-3.78379 3.25651-.52908 4.21224-2.70662 5.2826-4.80141 1.47818-3.59459.97138-6.91359.43901-10.22932-2.09307-1.20775-4.09857-2.54294-5.87162-4.21503.24184-.94321.5304-1.90402.38031-2.70296-1.62912-5.50663-5.66939-4.25824-9.01091-4.96722-1.6109-.77996-3.89354-2.37194-6.06804-2.47414-5.41896-1.27832-18.31006 2.0758-18.31006 2.0758l-6.53228-3.53178c-7.31065-3.89922-9.95748-7.72551-15.05541-11.6711l-1.4843-1.19845c-36.62429-33.00419-53.05512-52.14778-54.50535-68.99436 6.9-17.7 20.02344-84.86524 20.02344-84.86524z" id="path53212"/></clipPath></defs><path style="display:inline;fill:#000;opacity:1" d="m271.15625 190.83398c-.001 46e-5-8.26074.52813-17.10937 12.11719-1.95254 1.86976-4.95834 7.89234-5.26368 13.1211-1.71092 6.18845-.1326 11.40008.002 11.34961-.19861.0-8.95387 22.74833-10.89063 34.11914-4.73894 17.98871-5.67054 26.42171-7.78906 36.2246-3.17908 9.89918-4.89436 15.96148-5.71485 19.94336-5.06993 6.85112-3.83658 27.45999 1.73218 31.83549 6.46958 7.18051 19.56181 18.80628 35.24542 30.09973 16.35743 15.52431 31.7849 28.77666 31.98592 28.41196 1.45277 1.85464 12.9542 12.81771 12.37815 11.75086 2.49735 1.63637 9.73647 4.01722 9.79996 3.54699 13.25237 12.89318 19.91118 15.10009 27.39877 19.12712.93127-.4069 1.75565.28969 2.89619-1.82061 4.04485.9058 6.12792-.47298 7.7106-2.89323 2.92029-.30127 5.5943-.81332 6.55954-3.78379 3.45298-.27672 4.52039-2.31078 5.2826-4.80141 1.69512-3.6256 1.46086-6.98356.43901-10.22932-1.99242-1.27938-3.82034-2.741-5.87162-4.21503.52388-.95948.7186-1.91488.38031-2.70296-1.22399-5.78391-5.64919-4.27207-9.01091-4.96722-1.55706-1.00364-3.81274-2.7076-6.06804-2.47414-5.26554-1.70815-18.25679 1.92653-18.31006 2.0758-2.01565-1.31386-4.01697-2.63976-6.53228-3.53178-6.58669-4.3314-12.76672-10.24385-16.02915-12.42993-26.77777-25.86229-53.20972-51.69811-55.01591-69.43398 7.91689-17.39493 20.65345-84.67624 20.02344-84.86524.59049-15.19144-1.41369-30.38287 1.77147-45.57431z" id="path3186"/><path class="skin arm" id="path3188" d="m271.15625 190.83398s-6.00932-.18284-17.10937 12.11719c-1.50978 1.67298-4.34625 7.6203-5.26368 13.1211-.98724 5.91707.002 11.34961.002 11.34961s-8.36237 22.74833-10.89063 34.11914c-3.94958 17.76318-5.33355 26.32543-7.78906 36.2246-2.45551 9.89918-4.67817 15.96148-5.71485 19.94336-.29595 1.13676-7.44168 22.88828 1.73218 31.83549 9.48636 9.252 23.32893 19.89639 35.24542 30.09973 16.92605 14.49271 31.98592 28.41196 31.98592 28.41196s10.97835 10.29527 12.37815 11.75086c1.25905.66361 8.88947 3.35187 9.79996 3.54699 12.13452 10.4916 19.79407 14.8485 27.39877 19.12712.91815-.44211 1.61108-.0983 2.89619-1.82061 3.99482.72683 6.00895-.89851 7.7106-2.89323 2.86213-.40168 5.25455-1.3999 6.55954-3.78379 3.25651-.52908 4.21224-2.70662 5.2826-4.80141 1.47818-3.59459.97138-6.91359.43901-10.22932-2.09307-1.20775-4.09857-2.54294-5.87162-4.21503.24184-.94321.5304-1.90402.38031-2.70296-1.62912-5.50663-5.66939-4.25824-9.01091-4.96722-1.6109-.77996-3.89354-2.37194-6.06804-2.47414-5.41896-1.27832-18.31006 2.0758-18.31006 2.0758l-6.53228-3.53178c-7.31065-3.89922-9.95748-7.72551-15.05541-11.6711l-1.4843-1.19845c-36.62429-33.00419-53.05512-52.14778-54.50535-68.99436 6.9-17.7 20.02344-84.86524 20.02344-84.86524z"/><path id="path3190" class="shadow" d="m359.96083 414.41916c-6.184-.36101-7.15535 1.81781-8.30722 2.89336 2.22113-1.64386 2.79767-1.7895 8.30722-2.89336z"/><path id="path3192" class="shadow" d="m351.84852 417.24907c3.56093 3.45167 3.55208 2.91224 5.42413 3.51001-1.65158-.7605-1.52291-.53165-5.42413-3.51001z"/><path id="path3194" class="shadow" d="m359.94885 414.44428c-1.78171 2.86085-1.37528 2.7101-1.7448 4.99089.52044-2.14988.74391-2.33389 1.7448-4.99089z"/><path id="path3198" class="shadow" d="m349.8544 413.24474c1.45845 4.5474 3.11093 9.27291 4.92336 10.7006-1.38888-1.77496-3.15963-6.54816-4.92336-10.7006z"/><path id="path3200" class="shadow" d="m357.2886 420.72046c1.59897 1.6372 1.83425 1.79931 3.89279 2.88939-1.83755-1.2992-2.09103-1.44003-3.89279-2.88939z"/><path id="path3202" class="shadow" d="m358.2024 419.41402c2.12802-.47385 3.36067-.24028 5.39203.22725-2.28124-1.02532-3.24627-.93195-5.39203-.22725z"/><path id="path3204" class="shadow" d="m354.80193 428.71736c1.68152 4.47153 3.45776 4.11776 5.33 5.321-1.84113-1.28394-3.56627-1.16856-5.33-5.321z"/><path id="path3206" class="shadow" d="m348.34631 433.20791c2.24783 4.22802 3.07842 3.68152 5.25439 4.58173-2.03443-1.00349-2.90129-.70625-5.25439-4.58173z"/><path id="path3212" class="shadow" d="m232.75946 324.12197c6.44272 2.56904 8.97124 6.42201 15.31369 1.22631-5.23343 2.95476-7.65007.91512-15.31369-1.22631z"/><g id="g53204" style="filter:url(#filter53208)" clip-path="url(#clipPath53210)"><g id="g53112"><path class="arm_highlight" id="path33212-8-8" d="m274.74721 175.86151c-.95233 23.462-55.0266 56.60212-51.93253 44.59015 1.29627-30.00837 58.29551-48.72751 51.93253-44.59015z"/><path class="arm_highlight" id="path53081" d="m272.99721 174.04901c-.95233 23.462-55.0266 56.60212-51.93253 44.59015 1.29627-30.00837 58.29551-48.72751 51.93253-44.59015z"/><path d="m273.68471 174.73651c-.95233 23.462-55.0266 56.60212-51.93253 44.59015 1.29627-30.00837 58.29551-48.72751 51.93253-44.59015z" id="path53079" class="arm_highlight"/></g><g id="g53093"><path d="m267.35449 337.94729c.84943-.3328-7.25476-59.29194-10.77515-80.65179-2.93272-17.7942-5.10194 14.01888-13.71662 41.36181-3.01447 9.56789-5.73588 19.06463-7.71568 26.50647-1.30878 13.92793 28.88257 29.37331 32.20745 12.78351z" id="path33301-7" class="arm_shade"/><path class="arm_shade" id="path53083" d="m271.8623 336.26791c.84943-.3328-7.25476-59.29194-10.77515-80.65179-2.93272-17.7942-5.10194 14.01888-13.71662 41.36181-3.01447 9.56789-5.73588 19.06463-7.71568 26.50647-1.30878 13.92793 28.88257 29.37331 32.20745 12.78351z"/><path d="m274.77912 335.64919c.84943-.3328-7.25476-59.29194-10.77515-80.65179-2.93272-17.7942-5.10194 14.01888-13.71662 41.36181-3.01447 9.56789-5.73588 19.06463-7.71568 26.50647-1.30878 13.92793 28.88257 29.37331 32.20745 12.78351z" id="path53085" class="arm_shade"/><path class="arm_shade" id="path53087" d="m277.69594 334.94208c.84943-.3328-7.25476-59.29194-10.77515-80.65179-2.93272-17.7942-5.10194 14.01888-13.71662 41.36181-3.01447 9.56789-5.73588 19.06463-7.71568 26.50647-1.30878 13.92793 28.88257 29.37331 32.20745 12.78351z"/></g><g id="g53118"><path class="arm_highlight" id="path53081-9" d="m242.42491 231.72969c7.29767 11.587-18.2766 127.22712-36.05753 115.59015 1.29627-30.00837 18.29551-114.47751 36.05753-115.59015z"/><path d="m240.04991 230.72969c7.29767 11.587-18.2766 127.22712-36.05753 115.59015 1.29627-30.00837 18.29551-114.47751 36.05753-115.59015z" id="path53114" class="arm_highlight"/></g></g></svg>