<svg viewBox="0 0 560 1e3"><path class="glasses" d="m262.51461 131.54271c.0715 1.45402.91094 7.74366 2.18481 9.50912 1.64409 1.33977 9.31674 1.26671 13.90571.7898 5.04176-.55856 7.66562-.91484 9.00537-2.55894 1.7313-2.06531 1.42698-7.54917 1.14121-9.13387 1.01873-.18372 1.92428-.34702 2.92261-.64391 1.13194-.20413 2.15068-.38784 3.16942-.57154-.0334 1.75914.23938 7.71618 2.70552 9.72582 1.08925.85544 2.8985 1.8148 13.13787-.3823 12.27685-2.5645 14.79356-4.56858 15.17581-5.68939.87772-2.26202-.0241-7.17061-.78309-8.78686 6.82704-7.6635 7.82114-9.12769 11.27316-13.54118l.42866 2.37706-9.61609 13.00861c.35816 1.3379.70515 5.76219-.12056 7.66422-.47504 1.25441-3.1569 3.6389-15.92735 6.05866-11.16533 2.2472-13.26218.98908-14.37186.0204-1.93171-1.63851-2.49398-6.60836-2.57378-8.34709-1.01872.18371-3.0562.55114-4.07495.73484.11132 1.26554.1596 5.97746-1.13934 7.84794-1.59771 2.1581-4.44794 2.55521-10.05565 3.21583-4.92857.53814-12.92039.78561-14.62571-.89372-1.26369-1.17462-2.40957-9.41619-2.48008-10.45533.13104.007.59621.0398.71831.0518z" id="path654"/></svg>