<svg viewBox="0 0 560 1e3"><defs><filter style="color-interpolation-filters:sRGB" id="filter7219"><feGaussianBlur stdDeviation="1 1" result="blur" id="feGaussianBlur7217"/></filter><clipPath clipPathUnits="userSpaceOnUse" id="clipPath7223"><path style="fill-opacity:.46221445;fill:#00e0e8" id="path7225" d="m282.6625 445.5125c3.9-.2 12.6 2.5 14.1 5.8 1.3 2.8.6-.9-1.4 1.6-1.2.5-3 1.3-5.4 2.3-5.2 2.1-6.2 2.3-8.1 3.7-2 1.5-3.5 3.3-4.2 4.2-.6.8-1.5 1.9-2.3 3.3-.3.4-.5.8-.7 1.2s-.4.7-.5 1c-1.5 4.8-3.7 9.6-2.9 14.1v1.3c0 .4.0.9-.1 1.3-1.2 2.4 1.9 1.9 2.5 4 .5 2.7.0 4.8-.2 7.4l-.3 1.2c-1.2 3.7-2.9 5.3-2.9 5.3-.3.3-1.1 1.1-2.2 1.7-.3.2-.7.4-1.1.6-6 1.9-8.7-5-10-9.4l-.3-1.5c-.3-2-.3-4.1.8-5.2.3-.3.5-.4.8-.6.2-.2.4-.4.6-.8-2-6.5-.4-12.4.3-18.5.1-.5.1-.9.2-1.3.5-3 .4-3.8 1.7-6.6.5-1.1 1.9-5.3 5.8-9.3 6.6-6.9 11.6-6.6 15.8-6.8z"/></clipPath></defs><path d="m269.6625 486.0125c.1.2.6.4 1.1.6 4 .4 4 6.4 3.2 10.1-.1.3-.2.7-.2 1-1.2 4.5-3.2 6.3-3.2 6.3-.4.4-1.8 1.8-3.5 2.5-.4.2-.9.3-1.4.3-5.8-.2-8.4-5.7-9.2-10.6-.1-.5-.2-1-.3-1.6-.4-2.2-.3-4.4.8-5.7.3-.3.6-.5.8-.7.3-.2.5-.4.6-.8" id="path8-62"/><path d="m257.1625 479.7125c0-.7.0-1.8.1-3 0-.6.2-3 .7-6.6.3-2.1.6-3.7.7-4.1 2.2-10.8 10-16.3 10-16.3.9-.7 2.9-1.9 3.8-2.6 1.8-1.1 7.2-3.6 14.6-1.3 1.1.3 8.5 3.5 9.7 5.5 1.5 2.5-1-1.6-1.5-1.1-.2.2-.7.5-1.2 1.2-.6.8-.9 1.6-1 1.9-.6 1.3-2.1 1.7-4.3 2.6-2.8 1.1-4.6 1.9-6.4 3.2-1.3 1-2.2 2-3.9 4.2-1.5 1.9-2.4 2.9-3.2 4.7-.3.5-.7 1.7-1.5 4.1-.5 1.4-.7 2.1-.9 2.8-.4 1.3-.6 2.4-.7 3.1-.5 1.9-1.7 5.5-4.9 8.4-1.6 1.4-3.6 3.3-5.6 2.8-3.6-.9-4.4-8.9-4.5-9.5z" id="path10-9"/><path class="skin penis" d="m282.6625 445.5125c3.9-.2 12.6 2.5 14.1 5.8 1.3 2.8.6-.9-1.4 1.6-1.2.5-3 1.3-5.4 2.3-5.2 2.1-6.2 2.3-8.1 3.7-2 1.5-3.5 3.3-4.2 4.2-.6.8-1.5 1.9-2.3 3.3-.3.4-.5.8-.7 1.2s-.4.7-.5 1c-1.5 4.8-3.7 9.6-2.9 14.1v1.3c0 .4.0.9-.1 1.3-1.2 2.4 1.9 1.9 2.5 4 .5 2.7.0 4.8-.2 7.4l-.3 1.2c-1.2 3.7-2.9 5.3-2.9 5.3-.3.3-1.1 1.1-2.2 1.7-.3.2-.7.4-1.1.6-6 1.9-8.7-5-10-9.4l-.3-1.5c-.3-2-.3-4.1.8-5.2.3-.3.5-.4.8-.6.2-.2.4-.4.6-.8-2-6.5-.4-12.4.3-18.5.1-.5.1-.9.2-1.3.5-3 .4-3.8 1.7-6.6.5-1.1 1.9-5.3 5.8-9.3 6.6-6.9 11.6-6.6 15.8-6.8z" id="path12"/><g id="g7215" style="filter:url(#filter7219)" clip-path="url(#clipPath7223)"><path class="skin_highlight" id="path7046-2-4" d="m287.90296 445.95972c-18.2253-1.25657-30.05449 25.3218-32.96886 30.38349-7.29509-20.90099 20.67155-41.60116 32.96886-30.38349z"/><path class="skin_shade" d="m291.72809 454.47517c-22.78006-2.30187-27.31171 35.57379-18.4092 47.74373 5.21232-.25982 16.35355-43.59227 18.4092-47.74373z" id="path7048-5-84"/><path d="m252.91875 493.96099c-.25578-7.80408-.73575-10.81375 1.97329-11.63172 1.6768-2.76416 7.05377 13.46253-1.97329 11.63172z" id="path7134-3" class="skin_highlight"/></g></svg>