<svg viewBox="0 0 560 1e3"><defs><filter style="color-interpolation-filters:sRGB" id="filter33085"><feGaussianBlur stdDeviation="2 2" result="blur" id="feGaussianBlur33083"/></filter><filter style="color-interpolation-filters:sRGB" id="filter33085-1"><feGaussianBlur stdDeviation="2 2" result="blur" id="feGaussianBlur33083-9"/></filter><clipPath clipPathUnits="userSpaceOnUse" id="clipPath34125"><path style="display:inline;fill-opacity:.5;fill:#068080" d="m406.57821 136.81444c-10.92919-5.73524-34.26255-14.52063-57.82639-18.3568 1.02433.8404-9.67974-1.17466-14.38304-1.66426-3.19627-5.68597-5.11411-15.63337-.10729-24.25984 5.42023.161947 16.35559.350943 15.99131.99941 32.14326 3.025443 60.04963 11.60349 75.93425 17.29819 7.9602 2.85376 25.00522 17.79138 24.06455 29.02585-1.34093 16.0148-34.44839 34.50841-77.75296 77.95158-6.51655 6.53742-9.56377 15.1176-11.99349 24.24465-.92668-2.05887-2.15533-6.67757-3.15517-11.9232-2.78172-17.50024-2.67652-47.22438-1.57068-52.32337 12.21926-11.2694 28.53848-13.07314 50.76792-33.99364 3.90619-3.67617 2.64752-5.62549.031-6.99856z" id="path34127"/></clipPath></defs><path d="m406.57821 136.81444c-10.92919-5.73525-34.26255-14.52064-57.82639-18.35681 1.02433.8404-9.67974-1.17466-14.38304-1.66426-3.19627-5.68597-5.11411-15.63337-.10729-24.259835 5.42023.161947 16.35559.350943 15.99131.99941 32.14326 3.025443 60.04963 11.603485 75.93425 17.298185 7.9602 2.85376 25.00522 17.79138 24.06455 29.02586-1.34093 16.01479-34.44839 34.5084-77.75296 77.95158-6.51655 6.53742-9.56377 15.1176-11.99349 24.24465-.92668-2.05887-2.15533-6.67757-3.15517-11.9232-2.78172-17.50024-2.67652-47.22439-1.57068-52.32338 12.21926-11.2694 28.53848-13.07314 50.76792-33.99364 3.90619-3.67617 2.64752-5.62549.031-6.99856z" id="path33923" class="top_primary"/><path class="top_primary_strong_shade" d="m348.75937 118.47699c-3.04555-2.71143-4.7922-19.261627 1.44924-24.958419-4.88962 6.552129-4.214 21.533379-1.44924 24.958419z" id="path33925"/><g clip-path="url(#clipPath34125)" id="g33971"><g transform="translate(154.46887,-69.825561)" style="display:inline;opacity:1" id="g33933"><path id="path33927" d="m190.53455 211.00539c20.57689-12.36764 42.86346-13.06079 59.40053-10.64421l-.0139.15879c-16.70788-2.44155-37.17293 1.41721-57.79322 13.81094z" class="top_primary_strong_shade"/><path class="top_primary_strong_shade" d="m176.21564 205.87887c20.57689-12.36764 42.86346-13.06079 59.40053-10.64421l-.0139.15879c-16.70788-2.44155-37.17293 1.41721-57.79322 13.81094z" id="path33929"/><path id="path33931" d="m167.73036 198.98458c20.57689-12.36764 42.86346-13.06079 59.40053-10.64421l-.0139.15879c-16.70788-2.44155-37.17293 1.41721-57.79322 13.81094z" class="top_primary_strong_shade"/></g><path class="top_primary_strong_shade" d="m366.80805 144.15969c22.73101-7.72449 45.0422-6.07269 59.90788 2.86093l-.0473.1522c-18.37307-6.63006-36.22944-7.16624-59.0084.57455z" id="path33935"/><path id="path33937" d="m364.18305 141.03469c22.73101-7.72449 51.9797-6.38519 62.53288 5.79843-20.52261-11.72137-43.85768-8.06893-61.6807-2.21075z" class="top_primary_strong_highlight"/><g transform="translate(4.449751e-6)" id="g33969" style="display:inline;filter:url(#filter33085-1);opacity:1" clip-path="none"><g id="g33943" style="display:inline" transform="translate(2.1396059e-6)"><path d="m354.99167 175.28988c22.53795 7.93705 42.29722-12.34221 43.03764-24.46114-18.58641-.95137-41.05575 10.69219-43.03764 24.46114z" id="path33939" class="top_primary_highlight"/><path class="top_primary_highlight" id="path33941" d="m352.82616 172.15209c22.53795 7.93705 42.29722-12.34221 43.03764-24.46114-18.58641-.95137-41.05575 10.69219-43.03764 24.46114z"/></g><g id="g33951" style="display:inline" transform="translate(2.1396059e-6)"><path d="m284.95116 99.777087c9.74421 3.431563 45.79721-2.743741 81.9454 3.344963 47.46103 7.99422 102.29694 42.07325 99.34225 16.8189C460.78052 84.687071 247.33451 58.822042 284.95116 99.777087z" id="path33945" class="top_primary_highlight"/><path class="top_primary_highlight" id="path33947" d="m285.20116 96.027087c9.74421 3.431563 45.79721-2.743741 81.9454 3.344963 47.46103 7.99422 102.29694 42.07325 99.34225 16.8189C461.03052 80.937071 247.58451 55.072042 285.20116 96.027087z"/><path d="m284.57616 92.652087c9.74421 3.431563 45.79721-2.743741 81.9454 3.344963 47.46103 7.99422 102.29694 42.07325 99.34225 16.8189C460.40552 77.562071 246.95951 51.697042 284.57616 92.652087z" id="path33949" class="top_primary_highlight"/></g><g id="g33959" style="display:inline"><path d="m363.20116 237.15209c22.53795 7.93705 94.54722-80.09221 95.28764-92.21114-10.80655-3.24519-39.78107 17.13223-65.63245 35.07565-23.59165 16.37494-41.2004 20.87832-29.65519 57.13549z" id="path33953" class="top_primary_shade"/><path class="top_primary_shade" id="path33955" d="m367.70116 238.65209c22.53795 7.93705 93.92222-79.21721 94.66264-91.33614-10.80655-3.24519-39.15252 16.26234-65.00745 34.20065-23.63617 16.39892-46.80432 24.16203-29.65519 57.13549z"/><path d="m370.45116 239.90209c22.53795 7.93705 93.92222-79.21721 94.66264-91.33614-10.80655-3.24519-39.15252 16.26234-65.00745 34.20065-23.63617 16.39892-46.80432 24.16203-29.65519 57.13549z" id="path33957" class="top_primary_shade"/></g><g id="g33967" style="display:inline" transform="translate(2.1396059e-6)"><path class="top_primary_shade" id="path33961" d="m427.33427 137.21629c-6.10362 5.37566-16.19814 8.54097-28.40036 10.04928-4.02407-12.52976-38.3608-24.4459-100.86831-10.88709-20.09403-5.99128-31.78553-12.92222-23.86271-17.49833 10.80654-3.24519 69.34995-14.71123 104.63244-3.54935 11.89688 3.76367 20.99869 8.70217 27.22387 11.40799 8.54043 3.71216 24.70678 7.67388 21.27507 10.4775z"/><path d="m421.30372 137.91061c-6.10362 5.37566-16.59589 5.97771-28.79811 7.48602-4.02407-12.52976-33.0575-19.45196-95.56501-5.89315-20.09403-5.99128-31.78553-12.92222-23.86271-17.49833 10.80654-3.24519 69.34995-14.71123 104.63244-3.54935 11.89688 3.76367 20.99869 8.70217 27.22387 11.40799 8.54043 3.71216 19.80123 5.2432 16.36952 8.04682z" id="path33963" class="top_primary_shade"/><path class="top_primary_shade" id="path33965" d="m418.20997 138.41061c-6.10362 5.37566-17.72089 3.35271-29.92311 4.86102-4.02407-12.52976-29.08875-15.57696-91.59626-2.01815-20.09403-5.99128-31.78553-12.92222-23.86271-17.49833 10.80654-3.24519 69.34995-14.71123 104.63244-3.54935 11.89688 3.76367 20.99869 8.70217 27.22387 11.40799 8.54043 3.71216 16.95748 3.9932 13.52577 6.79682z"/></g></g></g><path d="m345.56181 93.408057c.834.160357 1.28906.648152 1.0164 1.089516-.27269.441351-1.16976.669169-2.00375.508806-.834-.160357-1.28906-.648151-1.01641-1.089516.2726-.441373 1.16977-.669169 2.00376-.508806z" id="path4492-94-7-9-2-4-0-9" class="top_accent"/><path class="top_accent" id="path34144" d="m338.93268 92.966115c.834.160357 1.28906.648152 1.0164 1.089516-.27269.441351-1.16976.669169-2.00375.508806-.834-.160357-1.28906-.648151-1.01641-1.089516.2726-.441373 1.16977-.669169 2.00376-.508806z"/></svg>