<svg viewBox="0 0 560 1e3"><g id="g4003" style="fill-opacity:1;fill:#c0c6c7;stroke-opacity:1;stroke:none"><path class="shadow" id="path5118" d="m317.55033 237.51562c0 .75293-.84427 1.5972-1.5972 1.5972s-1.5972-.84427-1.5972-1.5972.84427-1.5972 1.5972-1.5972 1.5972.84427 1.5972 1.5972z"/><path d="m317.40513 237.51562c0 .68448-.76752 1.452-1.452 1.452s-1.452-.76752-1.452-1.452.76752-1.452 1.452-1.452 1.452.76752 1.452 1.452z" id="path2749-8-66" class="steel_piercing"/><path class="shadow" id="path5120" d="m311.06595 237.34375c0 .75293-.84427 1.5972-1.5972 1.5972-.75292.0-1.5972-.84427-1.5972-1.5972s.84428-1.5972 1.5972-1.5972c.75293.0 1.5972.84427 1.5972 1.5972z"/><path d="m310.92075 237.34375c0 .68448-.76752 1.452-1.452 1.452-.68447.0-1.452-.76752-1.452-1.452s.76753-1.452 1.452-1.452c.68448.0 1.452.76752 1.452 1.452z" id="path2749-8-3" class="steel_piercing"/><path class="shadow" id="path5122" d="m250.31593 240.49857c0 .75293-.84427 1.5972-1.5972 1.5972s-1.5972-.84427-1.5972-1.5972.84427-1.5972 1.5972-1.5972 1.5972.84427 1.5972 1.5972z"/><path d="m250.17073 240.49857c0 .68448-.76752 1.452-1.452 1.452s-1.452-.76752-1.452-1.452.76752-1.452 1.452-1.452 1.452.76752 1.452 1.452z" id="path2749-8-66-7" class="steel_piercing"/><path class="shadow" id="path5124" d="m244.73869 241.83277c-.14826.0584-.30012.0911-.44845.0911-.75293.0-1.5972-.84427-1.5972-1.5972s.84427-1.5972 1.5972-1.5972c.20146.0.40944.0605.60606.16339-.83243.65113-1.08254 2.0678-.15761 2.93988z"/><path d="m244.65287 241.69585c-.13478.0531-.27284.0828-.40768.0828-.68448.0-1.452-.76752-1.452-1.452s.76752-1.452 1.452-1.452c.18314.0.37222.055.55096.14854-.68459.57919-.90899 1.86654-.14328 2.67261z" id="path2749-8-3-4" class="steel_piercing"/></g></svg>