<svg viewBox="0 0 560 1e3"><g id="g1366" style="fill-opacity:1;fill:#c0c6c7;stroke-opacity:1;stroke:none"/><g id="g4019" style="fill-opacity:1;fill:#c0c6c7;stroke-opacity:1;stroke:none" data-transform="boob_left"><path class="shadow" id="path5080" d="m318.76954 236.58773c0 .64005-.71801 1.36401-1.364 1.36401-.646.0-1.36401-.72396-1.36401-1.36401s.71801-1.36401 1.36401-1.36401c.64599.0 1.364.72396 1.364 1.36401z"/><path class="shadow" id="path5082" d="m311.19344 238.11186c-.64301.0-1.39948-.72492-1.36401-1.364.0395-.71196 1.03552-1.34532 1.67852-1.34532-.58734 1.03444-.66655 1.56237-.31444 2.70932z"/><path d="m318.64554 236.58773c0 .58187-.65273 1.24001-1.24 1.24001s-1.24001-.65814-1.24001-1.24001c0-.58186.65274-1.24001 1.24001-1.24001s1.24.65815 1.24 1.24001z" id="path2749-8-1" class="steel_piercing"/><path d="m311.19248 237.98786c-.58455.0-1.27055-.65893-1.24001-1.24.0342-.65167.94439-1.24001 1.52894-1.24001-.61408.94183-.62756 1.43192-.2889 2.48001z" id="path2749-8-37" class="steel_piercing"/></g><g style="display:inline" id="g3034" data-transform="boob_right"><path d="m236.36485 240.81573c0 .64599-.71801 1.37668-1.36401 1.37668-.64599.0-1.36401-.73069-1.36401-1.37668.0-.646.71802-1.37668 1.36401-1.37668.646.0 1.36401.73068 1.36401 1.37668z" id="path5084" class="shadow"/><path d="m230.58971 241.43472c-.29434-.26934-.34189-.63385-.34189-.98404.0-.64898.42413-1.34543 1.06713-1.34543-.66957.7702-.79327 1.08646-.72524 2.32947z" id="path5086" class="shadow"/><path class="steel_piercing" id="path2749-8-1-1" d="m236.24085 240.81573c0 .58727-.65274 1.25153-1.24001 1.25153-.58726.0-1.24001-.66426-1.24001-1.25153.0-.58726.65275-1.25153 1.24001-1.25153.58727.0 1.24001.66427 1.24001 1.25153z"/><path class="steel_piercing" id="path2749-8-1-5" d="m230.6171 241.33018c-.26759-.24485-.32291-.54735-.32291-.86571.0-.58997.35859-1.25152.94313-1.25152-.48937.70018-.59407.98723-.62022 2.11723z"/></g></svg>