<svg viewBox="0 0 560 1e3"><path style="display:inline;fill-opacity:1;fill:none;opacity:1;stroke-dasharray:none;stroke-dashoffset:0;stroke-linecap:butt;stroke-linejoin:miter;stroke-miterlimit:4;stroke-opacity:1;stroke-width:.453543;stroke:#ff9300;vector-effect:none" d="m274.43814 286.25919c-1.5441 15.84923-25.03621 26.64007-24.17258 72.73657.17626 41.00745 14.64132 52.8628 25.34042 63.02427" id="path7032-3-4-0-1"/><path d="m274.60566 422.83985c22.57794-.26377 46.60878-13.93918 55.8851-38.27994C342.66728 358.01673 318.39072 310.625 290.7 292.325c-6.5-4.3-36.31351-10.91339-38.01351-2.7134-3.51304 11.351-42.37199 32.74894-37.57725 90.52444 1.27823 33.49959 34.99365 42.99006 59.49642 42.70381z" class="shadow" id="path2660"/><path id="path2648" d="m231.98849 317.3557c-9.55984 14.03704-18.47314 33.86269-16.87925 62.78034 1.62509 31.41845 35.08606 42.43563 59.49642 42.70381 22.57812.24804 44.59974-11.73678 55.8851-38.27994 7.17575-16.87737.25701-43.24508-12.80302-64.91526-56.44664 26.3136-88.62673 21.13211-85.69925-2.28895zm85.69925 2.28895C310.20815 307.23395 300.71424 296.36402 290.7 289.7c-7.88983-2.76619-35.90441-9.18137-38.01351-.0884-1.28853 5.74885-11.30533 13.95251-20.698 27.7441-9.1774 45.16184 76.92585 16.40846 85.69925 2.28895z" class="skin belly"/><path d="m251.74018 381.39681c.48219-2.95995.50103-5.52426-.57274-9.24552l-.0242.001c-.78458 4.82879-.38541 6.45786.59697 9.24433z" class="shadow belly_details" id="path1454-6-5-5"/><path id="path1459-5-05-5" class="muscle_tone belly_details" d="m251.16744 372.15129c-2.33392-7.76332.81606-35.04811.81606-35.04811l.001.003s-3.96483 25.46463-.84168 35.04655z"/></svg>