<svg viewBox="0 0 560 1e3"><defs><filter style="color-interpolation-filters:sRGB" id="filter14043"><feGaussianBlur stdDeviation="4 4" result="blur" id="feGaussianBlur14041"/></filter><clipPath clipPathUnits="userSpaceOnUse" id="clipPath14045"><path style="fill-opacity:.5;fill:#0ff" id="path14047" d="m314.77689 194.71339c-17.7702-.57746-44.79448 10.23164-50.43946 13.8457-26.78476 17.1483-35.64078 26.80967-73.3403 46.47844-23.33313 12.17347-30.73262 17.39335-38.08782 25.77004-11.50372 13.10138-13.60629 28.99714-13.50111 38.15337.49783 43.33896 22.88129 80.12037 63.39649 80.13086 44.55563.0115 32.44874-5.71148 58.64648-6.01172 19.57357-.22432 25.20225 1.14577 55.07073.52933 23.94272-.49414 45.68111-11.54119 61.95382-27.24936 18.3644-17.72729 29.35526-45.45693 29.52236-62.52269.61447-62.75483-42.73888-107.48351-93.22119-109.12397z"/></clipPath><clipPath clipPathUnits="userSpaceOnUse" id="clipPath15216"><path style="display:inline;fill-opacity:.5;fill:#0ff" d="M86.229316 204.81444C62.130457 306.7382 1.8906885 359.93132 228.94096 342.4066c208.89721-16.12359 180.685-13.77337 254.98114-140.56085C458.30637-46.630383 98.27753 93.177594 86.229316 204.81444z" id="path15218"/></clipPath><clipPath clipPathUnits="userSpaceOnUse" id="clipPath15276"><path style="display:inline;fill-opacity:.5;fill:#0ff" d="m344.34504 176.36818c-14.62958 18.46411-36.88098 36.29399-50.61092 34.44876-8.54797-1.1488-9.80437-15.51763-10.35461-22.98859-4.99086.81134-10.46154 2.4236-10.46154 2.4236-.27579.069-182.089762-14.68248-186.688652 14.56249C-1.3695438 300.7382 34.890691 594.93133 261.94096 577.40661 470.83817 561.28302 636.62597 326.13323 483.9221 201.84575 481.14038 184.34551 354.67346 182.90563 355.7793 177.80664c-5.63691-.66054-6.71089-.7659-11.43426-1.43846z" id="path15278"/></clipPath></defs><path class="shadow" id="path13886" d="m344.2168 176.33008c-14.62958 18.46411-36.65288 36.25538-50.38282 34.41015-8.54797-1.1488-9.85405-15.55638-10.40429-23.02734-4.99086.81134-10.30274 2.29688-10.30274 2.29688-.0451.0534-.49448.46642-1.10351 1.04687.43598-.40461.86822-.7981.89453-.80469.0.0 5.47008-1.61248 10.46094-2.42383.55024 7.47097 1.80749 21.83949 10.35547 22.98829 13.72994 1.84523 35.98174-15.98316 50.61132-34.44727 4.70209.66953 5.80817.77904 11.37891 1.43164.013-.0165.026-.0323.0391-.0488-5.63691-.66054-6.8235-.74931-11.54687-1.42187zM269.44141 193.625c-7.25193 7.43243-23.03375 25.70105-26.57813 48.24023.11435-.0391.22939-.0762.34375-.11523 3.71943-22.41049 19.23341-40.85242 26.23438-48.125z"/><g id="g13892"><path class="top_primary" d="m344.34504 176.36818c-14.62958 18.46411-36.88098 36.29399-50.61092 34.44876-8.54797-1.1488-9.80437-15.51763-10.35461-22.98859-4.99086.81134-12.2735 2.88764-12.2735 2.88764-.10859.0272-2.21257 2.99284-7.20164 8.92652-7.68234 9.13692-17.90915 24.21101-20.69734 41.94148 1.16138.21629 2.77193 1.20862 3.93218 1.40292 3.47111.58126 6.93713 1.06481 10.39843 1.45507 3.46131.39026 6.91715.68842 10.36914.89649 3.452.20807 6.90057.32662 10.34375.36133 6.88638.0694 13.75524-.19838 20.60938-.76953 6.85414-.57116 13.69166-1.44478 20.51758-2.58594 6.82592-1.14116 13.46293-2.81596 20.26463-4.45658 6.19586-1.49448 11.52892-5.90474 17.70786-7.75773-2.78172-17.50024-2.67652-47.22439-1.57068-52.32338-5.63691-.66054-6.71089-.7659-11.43426-1.43846z" id="path13888"/><path style="baseline-shift:baseline;clip-rule:nonzero;color-interpolation-filters:linearRGB;color-interpolation:sRGB;color-rendering:auto;color:#000;direction:ltr;display:inline;dominant-baseline:auto;enable-background:accumulate;fill-opacity:.295533;fill-rule:nonzero;fill:#000;image-rendering:auto;isolation:auto;mix-blend-mode:normal;opacity:1;overflow:visible;shape-padding:0;shape-rendering:auto;solid-color:#000000;solid-opacity:1;stroke-dasharray:none;stroke-dashoffset:0;stroke-linecap:butt;stroke-linejoin:miter;stroke-miterlimit:4;stroke-opacity:1;stroke-width:.45354301;stroke:none;vector-effect:none;visibility:visible;white-space:normal;writing-mode:lr-tb" d="m355.50391 177.77734c-1.02885 11.46883-.30334 29.84986.40625 39.88086 1.00793 14.24856 3.12609 21.91987 4.53711 24.60352l.11913-.41407c-1.32622-2.52237-3.19731-10.00228-4.20312-24.2207-.70837-10.01377-1.43148-28.40178-.4082-39.80859z" id="path13890"/></g><g id="g15268" clip-path="url(#clipPath15276)"><g transform="translate(1.6710323e-6)" style="display:inline" id="g13994" data-transform="boob_outfit"><g clip-path="url(#clipPath15216)" id="g14843"><path class="top_primary" id="path13894" d="m314.77689 194.71339c-17.7702-.57746-44.79448 10.23164-50.43946 13.8457-26.78476 17.1483-35.64078 26.80967-73.3403 46.47844-23.33313 12.17347-30.73262 17.39335-38.08782 25.77004-11.50372 13.10138-13.60629 28.99714-13.50111 38.15337.49783 43.33896 22.88129 80.12037 63.39649 80.13086 44.55563.0115 32.44874-5.71148 58.64648-6.01172 19.57357-.22432 25.20225 1.14577 55.07073.52933 23.94272-.49414 45.68111-11.54119 61.95382-27.24936 18.3644-17.72729 29.35526-45.45693 29.52236-62.52269.61447-62.75483-42.73888-107.48351-93.22119-109.12397z"/><g id="g13961"><g id="g13904" style="display:inline;stroke-width:.42135701;stroke:none" transform="matrix(4.1447988,-0.39827495,-0.53309971,1.4101533,-785.50786,92.641768)"><path id="path13896" d="m257.78463 231.41908 25.46538-1.91912c-1.75833-1.43306-8.91975-1.9852-14.375-1.125-5.21054.7236-7.94775 1.92284-11.09038 3.04412z" class="top_primary_strong_highlight"/><path d="m257.77115 231.41459 25.46476-1.92729c-1.52315 1.68089-8.52041 3.30234-14.04298 3.27122-5.26011.0672-8.14639-.70736-11.42178-1.34393z" id="path13898" class="top_primary_strong_shade"/><path id="path13900" d="m261.35088 231.14146 18.93637-1.43319c-1.13266 1.24996-6.33604 2.45572-10.44279 2.43258-3.91157.05-6.0579-.52602-8.49358-.99939z" class="top_primary_strong_shade"/><path d="m280.36534 229.70219-18.93637 1.43319c1.13266-1.24996 6.33604-2.45572 10.44279-2.43258 3.91157-.05 6.0579.52602 8.49358.99939z" id="path13902" class="top_primary_strong_highlight"/></g><g id="g13914" style="display:inline;stroke-width:.541098;stroke:none" transform="matrix(3.785212,-0.5701155,-0.47961082,0.9745507,-697.58779,259.88202)"><path id="path13906" d="m257.78463 231.41908 25.46538-1.91912c-1.75833-1.43306-8.91975-1.9852-14.375-1.125-5.21054.7236-7.94775 1.92284-11.09038 3.04412z" class="top_primary_strong_highlight"/><path d="m257.77115 231.41459 25.46476-1.92729c-1.52315 1.68089-8.52041 3.30234-14.04298 3.27122-5.26011.0672-8.14639-.70736-11.42178-1.34393z" id="path13908" class="top_primary_strong_shade"/><path id="path13910" d="m261.35088 231.14146 18.93637-1.43319c-1.13266 1.24996-6.33604 2.45572-10.44279 2.43258-3.91157.05-6.0579-.52602-8.49358-.99939z" class="top_primary_strong_shade"/><path d="m280.36534 229.70219-18.93637 1.43319c1.13266-1.24996 6.33604-2.45572 10.44279-2.43258 3.91157-.05 6.0579.52602 8.49358.99939z" id="path13912" class="top_primary_strong_highlight"/></g><g id="g13927" style="display:inline;stroke-width:.39609301;stroke:none" transform="matrix(4.0795449,-0.49695109,-0.44883938,1.6170818,-776.16752,109.26495)"><path id="path13916" d="m257.78463 231.41908 25.46538-1.91912c-1.75833-1.43306-8.91975-1.9852-14.375-1.125-5.21054.7236-7.94775 1.92284-11.09038 3.04412z" class="top_primary_strong_highlight"/><path d="m257.77115 231.41459 25.46476-1.92729c-1.52315 1.68089-8.52041 3.30234-14.04298 3.27122-5.26011.0672-8.14639-.70736-11.42178-1.34393z" id="path13919" class="top_primary_strong_shade"/><path id="path13922" d="m261.35088 231.14146 18.93637-1.43319c-1.13266 1.24996-6.33604 2.45572-10.44279 2.43258-3.91157.05-6.0579-.52602-8.49358-.99939z" class="top_primary_strong_shade"/><path d="m280.36534 229.70219-18.93637 1.43319c1.13266-1.24996 6.33604-2.45572 10.44279-2.43258 3.91157-.05 6.0579.52602 8.49358.99939z" id="path13924" class="top_primary_strong_highlight"/></g><g id="g13938" style="display:inline;stroke-width:.64463502;stroke:none" transform="matrix(2.6751272,-0.34554442,-0.30885293,0.93944859,-421.45278,240.32692)"><path id="path13929" d="m257.78463 231.41908 25.46538-1.91912c-1.75833-1.43306-8.91975-1.9852-14.375-1.125-5.21054.7236-7.94775 1.92284-11.09038 3.04412z" class="top_primary_strong_highlight"/><path d="m257.77115 231.41459 25.46476-1.92729c-1.52315 1.68089-8.52041 3.30234-14.04298 3.27122-5.26011.0672-8.14639-.70736-11.42178-1.34393z" id="path13932" class="top_primary_strong_shade"/><path id="path13934" d="m261.35088 231.14146 18.93637-1.43319c-1.13266 1.24996-6.33604 2.45572-10.44279 2.43258-3.91157.05-6.0579-.52602-8.49358-.99939z" class="top_primary_strong_shade"/><path d="m280.36534 229.70219-18.93637 1.43319c1.13266-1.24996 6.33604-2.45572 10.44279-2.43258 3.91157-.05 6.0579.52602 8.49358.99939z" id="path13936" class="top_primary_strong_highlight"/></g><g id="g13949" style="display:inline;stroke-width:.57913101;stroke:none" transform="matrix(2.3956376,-0.19334529,-0.25425939,1.2651063,-347.20573,137.41652)"><path id="path13940" d="m257.78463 231.41908 25.46538-1.91912c-1.75833-1.43306-8.91975-1.9852-14.375-1.125-5.21054.7236-7.94775 1.92284-11.09038 3.04412z" class="top_primary_strong_highlight"/><path d="m257.77115 231.41459 25.46476-1.92729c-1.52315 1.68089-8.52041 3.30234-14.04298 3.27122-5.26011.0672-8.14639-.70736-11.42178-1.34393z" id="path13942" class="top_primary_strong_shade"/><path id="path13944" d="m261.35088 231.14146 18.93637-1.43319c-1.13266 1.24996-6.33604 2.45572-10.44279 2.43258-3.91157.05-6.0579-.52602-8.49358-.99939z" class="top_primary_strong_shade"/><path d="m280.36534 229.70219-18.93637 1.43319c1.13266-1.24996 6.33604-2.45572 10.44279-2.43258 3.91157-.05 6.0579.52602 8.49358.99939z" id="path13946" class="top_primary_strong_highlight"/></g><g id="g13959" style="display:inline;stroke-width:.50631702;stroke:none" transform="matrix(3.42717,-0.20778309,-0.47340314,1.1669039,-605.70754,75.282117)"><path id="path13951" d="m257.78463 231.41908 25.46538-1.91912c-1.75833-1.43306-8.91975-1.9852-14.375-1.125-5.21054.7236-7.94775 1.92284-11.09038 3.04412z" class="top_primary_strong_highlight"/><path d="m257.77115 231.41459 25.46476-1.92729c-1.52315 1.68089-8.52041 3.30234-14.04298 3.27122-5.26011.0672-8.14639-.70736-11.42178-1.34393z" id="path13953" class="top_primary_strong_shade"/><path id="path13955" d="m261.35088 231.14146 18.93637-1.43319c-1.13266 1.24996-6.33604 2.45572-10.44279 2.43258-3.91157.05-6.0579-.52602-8.49358-.99939z" class="top_primary_strong_shade"/><path d="m280.36534 229.70219-18.93637 1.43319c1.13266-1.24996 6.33604-2.45572 10.44279-2.43258 3.91157-.05 6.0579.52602 8.49358.99939z" id="path13957" class="top_primary_strong_highlight"/></g></g><g id="g13975" style="display:inline;stroke-width:.29710701" transform="matrix(3.3657929,0,0,3.3657929,-752.00198,-549.55518)"><g style="stroke-width:.267196" transform="matrix(1.0886486,0.22640499,-0.22640499,1.0886486,26.686438,-87.525928)" id="g13967"><path class="top_primary_strong_shade" d="m315.95976 241.12162c-.0941 1.27022-1.40838 2.079-3.36249 2.18698-5.82694-.32992 3.56301-4.16497 3.36249-2.18698z" id="path13963"/><path class="top_primary_strong_highlight" id="path13965" d="m310.17639 241.00722c.044-1.2598 1.43984-2.32202 3.11764-2.37252 5.00828.42174-2.9858 4.05968-3.11764 2.37252z"/></g><g transform="rotate(33.082737,268.68923,159.63192)" style="display:inline;stroke-width:.29710701" id="g13973"><path id="path13969" d="m321.82404 234.11623c-.0781 1.28677-1.07523 1.97782-2.55163 1.88816-4.39885-.93265 2.71408-3.88642 2.55163-1.88816z" class="top_primary_strong_shade"/><path d="m317.6014 233.39015c.0781-1.28678 1.33836-2.25724 2.81477-2.16758 4.38918.85407-2.75171 3.90694-2.81477 2.16758z" id="path13971" class="top_primary_strong_highlight"/></g></g><g clip-path="url(#clipPath14045)" style="filter:url(#filter14043)" id="g13992"><path id="path13978" d="m164.80847 282.26959c21.92301 9.54113 26.24277 17.22267 55.41371 13.25045 14.47795-1.97147 76.37607-26.00079 113.17365-23.17665 71.08948 5.45598 46.4422-70.84784-8.29489-60.17604-8.3962 1.63696-38.03812-10.08916-80.16856 1.55023-28.33751 7.82881-59.38132-28.97998-84.27841-3.26184-7.12463 7.35958-34.80412 9.09723-41.68542 12.32043-56.577178 26.50068 24.21452 50.08181 45.83992 59.49342z" class="top_primary_highlight"/><path id="path13981" d="m206.98614 313.53955c-33.21532.23494-105.94815-28.14081-112.452525-12.65915-20.994682 49.97137 60.399445 83.39198 97.490165 93.77489 48.11906 3.932 52.03312-9.36894 123.57982-5.29 9.24372 1.06953 53.88523-10.31732 66.86177-31.75421 66.85311-110.4395-38.79921-60.20435-72.00093-59.79387-28.31337.35004-79.64003 15.55372-103.4783 15.72234z" class="top_primary_shade"/><path class="top_primary_shade" d="m206.73614 323.53955c-33.21532.23494-105.69815-38.14081-112.202525-22.65915-20.994682 49.97137 57.399445 90.89198 94.490165 101.27489 48.11906 3.932 55.78312-9.61894 127.32982-5.54 9.24372 1.06953 45.38523-10.06732 58.36177-31.50421 66.85311-110.4395-31.79921-57.45435-65.00093-57.04387-28.31337.35004-79.14003 15.30372-102.9783 15.47234z" id="path13984"/><path id="path13986" d="M208.23614 333.78955C175.02082 334.02449 96.03799 295.39874 89.533615 310.8804c-20.994682 49.97137 63.649445 82.64198 100.740165 93.02489 48.11906 3.932 56.28312-11.11894 127.82982-7.04 9.24372 1.06953 51.13523-7.06732 64.11177-28.50421 66.85311-110.4395-39.04921-49.95435-72.25093-49.54387-28.31337.35004-77.89003 14.80372-101.7283 14.97234z" class="top_primary_shade"/><path class="top_primary_highlight" d="m171.30847 272.01959c21.92301 9.54113 17.74277 17.22267 46.91371 13.25045 14.47795-1.97147 76.62607-23.50079 113.42365-20.67665 71.08948 5.45598 43.1922-55.34784-11.54489-44.67604-8.3962 1.63696-53.28812-3.58916-95.41856 8.05023-28.33751 7.82881-39.13132-43.22998-64.02841-17.51184-7.12463 7.35958-34.80412 9.09723-41.68542 12.32043-56.577178 26.50068 30.71452 39.83181 52.33992 49.24342z" id="path13988"/><path id="path13990" d="m182.30847 264.51959c21.92301 9.54113 18.74277 5.72267 47.91371 1.75045 14.47795-1.97147 46.12607-10.25079 82.92365-7.42665 71.08948 5.45598 54.4422-32.34784-.29489-21.67604-8.3962 1.63696-69.53812 8.16084-108.16856 7.80023-60.56979-8.44087-47.73292 8.62082-85.71383-22.19141-56.577178 26.50068 41.71452 32.33181 63.33992 41.74342z" class="top_primary_highlight"/></g></g></g></g><g style="display:inline" id="g14002"><path class="top_primary_strong_highlight" id="path13998" d="m344.38867 176.36914c-6.90958 8.90494-15.68114 18.04606-24.77344 24.85938-9.0923 6.81331-18.37793 11.0216-26.00195 9.8125-2.36196-.37459-4.14593-1.5435-5.55078-3.22852-1.40485-1.68502-2.41103-3.89223-3.12109-6.28125-1.42014-4.77804-1.66014-10.30176-1.76563-13.66015l-1.03515.17182c.10584 3.36978.31758 8.82977 1.79101 13.78712.73672 2.47867 1.78691 4.81666 3.32227 6.6582 1.53535 1.84155 3.57508 3.1782 6.19531 3.59375 8.1223 1.28813 17.59739-3.11614 26.79687-10.00976 9.19948-6.89363 18.32497-16.5714 25.28321-25.53907z"/><path class="top_primary_strong_shade" id="path14000" d="m345.5664 176.54493c-6.91269 8.90895-15.58776 18.26407-24.85546 25.3164-9.2677 7.05232-18.91893 11.50924-27.35547 10.30469-2.54574-.36348-4.4751-1.57662-5.99414-3.33008-1.51904-1.75346-2.6098-4.05577-3.38281-6.54102-1.54604-4.97049-1.81845-10.87328-1.92384-14.22851l-1.04296.19136c.10594 3.37294.35805 9.19633 1.96094 14.34961.80144 2.57664 1.94021 5.00926 3.59375 6.91797 1.65353 1.90871 3.83988 3.28371 6.64062 3.68359 8.90384 1.27129 18.76571-3.37241 28.14258-10.50781s18.44722-17.0305 25.40235-25.99414z"/></g></svg>