<svg viewBox="0 0 560 1e3"><ellipse id="ellipse9-6" ry=".60002446" rx="3.3001344" cy="479.44797" cx="273.82657" transform="rotate(-0.51733349)"/><ellipse id="ellipse11-1" ry=".50002038" rx="3.2001305" cy="479.54684" cx="273.72546" class="steel_chastity" transform="rotate(-0.51733349)"/><ellipse transform="rotate(-17.980187)" cx="132.69135" cy="519.04468" rx=".50001931" ry="4.3001661" id="ellipse17-9"/><ellipse transform="rotate(-17.980187)" class="steel_chastity" cx="132.53522" cy="518.90448" rx=".50001931" ry="4.2001619" id="ellipse19-2"/><ellipse transform="rotate(-26.992949)" cx="46.941521" cy="533.22223" rx=".60002536" ry="4.900207" id="ellipse23-2"/><ellipse transform="rotate(-26.992949)" class="steel_chastity" cx="46.810341" cy="533.04767" rx=".5000211" ry="4.8002028" id="ellipse25-3"/><ellipse transform="rotate(-54.237185)" cx="-208.40569" cy="494.58987" rx=".59996802" ry="5.0997276" id="ellipse29-5"/><ellipse transform="rotate(-54.237185)" class="steel_chastity" cx="-208.50229" cy="494.41287" rx=".49997333" ry="5.0997276" id="ellipse31-9"/><ellipse transform="rotate(-80.822144)" cx="-414.28348" cy="348.33478" rx=".60000128" ry="4.9000101" id="ellipse35-2"/><ellipse transform="rotate(-80.822144)" class="steel_chastity" cx="-414.40549" cy="348.16217" rx=".50000101" ry="4.9000101" id="ellipse37-8"/><ellipse transform="rotate(-0.44004565)" cx="274.2977" cy="475.17117" rx=".60001773" ry="4.5001326" id="ellipse41-7"/><ellipse transform="rotate(-0.44004565)" class="steel_chastity" cx="274.09903" cy="474.97028" rx=".50001472" ry="4.4001298" id="ellipse43-3"/><path id="path49-2" d="m282.925 472.9375c-.2 2.5-1.5 4.3-1.7 4.3-.3.0.4-1.9.6-4.4.2-2.4-.2-4.3.2-4.3.2.0 1.1 1.9.9 4.4z"/><path id="path51-9" d="m282.725 472.7375c-.2 2.5-1.4 4.3-1.6 4.2-.3.0.4-1.9.6-4.3.2-2.4-.2-4.3.1-4.3s1.1 2 .9 4.4z" class="steel_chastity"/><path id="path57-9" d="m274.125 473.0375c.2 2.3.9 4.1.6 4.4-.2.3-1.6-1.4-1.8-4.3-.2-2.8.8-5.1 1.1-4.9.3.2-.1 2.4.1 4.8z"/><path id="path59-4" d="m274.325 473.0375c.2 2.3.8 4 .6 4.2-.2.3-1.5-1.4-1.7-4.1-.2-2.7.8-4.9 1-4.7.3.1-.2 2.3.1 4.6z" class="steel_chastity"/><ellipse transform="rotate(-12.809092)" cx="181.5271" cy="504.76035" rx=".39999419" ry="3.8999434" id="ellipse63-8"/><ellipse transform="rotate(-12.809092)" class="steel_chastity" cx="181.45718" cy="504.53781" rx=".39999419" ry="3.8999434" id="ellipse65-4"/><ellipse transform="rotate(-0.51733119)" cx="273.56509" cy="475.14505" rx="4.4001794" ry=".60002446" id="ellipse69-0"/><ellipse transform="rotate(-0.51733119)" class="steel_chastity" cx="273.36389" cy="475.34351" rx="4.3001757" ry=".50002038" id="ellipse71-3"/><ellipse transform="rotate(-41.042549)" cx="-86.744507" cy="528.60522" rx=".59998238" ry="4.9998531" id="ellipse75"/><ellipse transform="rotate(-41.042549)" class="steel_chastity" cx="-86.951141" cy="528.47955" rx=".49998531" ry="4.9998531" id="ellipse77-6"/><ellipse transform="rotate(-68.216677)" cx="-324.80972" cy="429.86664" rx=".60000396" ry="5.1000333" id="ellipse81"/><ellipse transform="rotate(-68.216677)" class="steel_chastity" cx="-324.91003" cy="429.63513" rx=".50000328" ry="5.1000333" id="ellipse83-1"/><path id="path85" d="m290.725 451.4375c0 .1-2.7.7-5.9 2.9-1.2.8-2.4 1.6-3.6 3.1-1.6 2-2.2 3.9-2.4 4.4-.4 1.3-.5 2.7-.6 3.6-.1 1.1-.2 2.6-.2 2.6s0 0 0 0v0s.1.0.1.1c0 0-.2.1-.3.0-.2-.1-.2-.3-.2-.5-.2-1.4-.1-1.9-.1-1.9-.1-.8.0-1.5.3-2.9.1-.7.4-1.9 1-3.4.4-.9 1-2 1.9-3.2.9-.8 2.4-2 4.3-3 2.9-1.4 5.6-1.9 5.7-1.8z"/><path id="path87-0" d="m290.725 451.3375c0 .1-1.8.5-4.3 1.7-.3.2-.6.3-1.1.5-1.1.6-3.5 2-5.3 4.8-.1.1-.3.5-.6 1.1-2.3 4.7-1.4 9.4-1.8 9.4-.1.0-.3-.4-.3-.7-.2-.7-.8-3 .7-7.3.3-.8.7-1.8 1.3-3 .7-1.1 1.4-1.9 1.9-2.4l.1-.1c2.7-2.7 7.3-3.8 7.3-3.8 1.2-.1 2.1-.2 2.1-.2z" class="steel_chastity"/><ellipse transform="rotate(-87.809755)" cx="-457.5112" cy="295.76151" rx=".60001838" ry="4.6001406" id="ellipse91"/><ellipse transform="rotate(-87.809755)" class="steel_chastity" cx="-457.65686" cy="295.57602" rx=".50001532" ry="4.6001406" id="ellipse93"/><ellipse transform="rotate(-1.8915592)" cx="276.09088" cy="460.72162" rx=".40001798" ry="3.6001616" id="ellipse97"/><ellipse transform="rotate(-1.8915592)" class="steel_chastity" cx="275.99527" cy="460.51865" rx=".40001798" ry="3.6001616" id="ellipse99"/></svg>