<svg viewBox="0 0 560 1e3"><defs><filter style="color-interpolation-filters:sRGB" id="filter13722"><feGaussianBlur stdDeviation="4 4" result="blur" id="feGaussianBlur13720"/></filter><clipPath clipPathUnits="userSpaceOnUse" id="clipPath13724"><path style="fill-opacity:.5;fill:#00fffd" id="path13726" d="m193.8107 268.91795c0 23.22061 13.20858 47.75815 38.10497 47.23238 22.85936-.48275 21.74666-4.65439 42.40531-5.39776 15.31454-.55107 19.77877 2.2839 39.13157 1.68682 36.63949-1.13042 55.66589-26.43248 57.7354-52.40767 2.20477-27.67293-17.68989-49.8037-34.37391-58.13013-7.1581-3.57236-13.61499-5.46708-26.82742-7.90481-14.3652-2.65041-25.84599 1.82396-33.0518 4.97616-15.82961 8.25139-24.91192 19.62404-50.43876 31.00121-13.5554 6.04157-32.68536 14.54714-32.68536 38.94376z"/></clipPath><clipPath clipPathUnits="userSpaceOnUse" id="clipPath16588"><path d="m344.34504 176.36818c-14.62958 18.46411-66.38098 49.41899-93.98592 70.94876 2.70203-20.6488 33.57063-52.01763 33.02039-59.48859-4.99086.81134-10.46154 2.4236-10.46154 2.4236-.27579.069-124.81411 22.26385-129.413 51.50882-13.39694 98.66843 8.29642 134.63959 140.74022 129.09473 160.05389-6.70077 160.88544-39.38806 169.44809-139.48804-2.78172-17.50024-99.01982-48.46183-97.91398-53.56082-5.63691-.66054-6.71089-.7659-11.43426-1.43846z" id="path16590" style="display:inline;fill-opacity:.5;fill:#00fff9"/></clipPath></defs><path d="m341.43164 175.43555-.33008.39648c-12.9515 17.75202-68.14269 48.37099-88.24763 67.40076 2.85206-16.09002 33.52635-43.73337 34.45466-56.37146-4.99086.81134-14.18164 3.14844-14.18164 3.14844-.0113.0134-.21871.20777-.27734.26367.0142-.004.0479-.0119.0625-.0156 22e-5-8e-5.006-.006.006-.006s.0291-.004.0293-.004c2.51683-.64454 10.10521-2.45125 14.36645-3.22545-1.74786 8.97356-33.55552 42.67208-34.76643 56.83643 22.6459-18.40957 80.91393-53.92051 88.95857-68.36294 4.33282.9235 8.61035 1.64403 14.21875 2.30274.0127-.0161.0263-.0308.0391-.0469-5.63691-.66054-9.61971-1.48916-14.33203-2.3164zm-78.38672 25.31836c-7.71669 9.31325-17.48594 23.96904-20.18164 41.11132.0721-.0246.14452-.0482.2168-.0723.0858-.38275.18004-.73819.28906-1.02539.0528-.28998.1191-.57469.17578-.86328.0419-.21354.0869-.42592.13086-.63868.11344-.54844.2287-1.09549.35547-1.63867.0165-.0706.0341-.1404.0508-.21093.30922-1.30582.65336-2.59622 1.0332-3.86914.16697-.55953.34209-1.11329.52149-1.66602.0607-.1871.12157-.37425.18359-.56055.17599-.52801.35643-1.05277.54297-1.57422.057-.15956.11587-.31763.17383-.47656.19344-.52981.38827-1.05937.5918-1.58203.71458-1.83505 1.49085-3.62134 2.31054-5.36133.067-.14239.13356-.28407.20117-.42578.5363-1.12308 1.08716-2.22957 1.65626-3.30859.56112-1.0639 1.13752-2.09895 1.72265-3.11719.085-.14792.16854-.29645.25391-.44336.56511-.97209 1.13765-1.92065 1.71679-2.84766.73454-1.17603 1.47631-2.31349 2.22071-3.41211.22478-.33176.44703-.64041.67187-.96484.53458-.7713 1.06649-1.52747 1.59766-2.25586.12323-.16902.24822-.35677.37109-.52344 1.38103-1.87319 2.30998-3.106 3.19336-4.27343z" id="path99835-0-0" class="shadow"/><g id="g99625"><path id="path99621" d="m344.34504 176.36818c-14.62958 18.46411-58.71291 44.38152-91.7557 67.15245.33506-12.86026 31.34041-48.22132 30.79017-55.69228-4.99086.81134-12.14092 2.84344-12.14092 2.84344-.59609.62414-2.44446 3.12402-7.52334 9.19624-7.66012 9.1583-17.74285 24.13059-20.50822 41.71596 1.16138.21629 2.77193 1.20862 3.93218 1.40292 3.47111.58126 6.93713 1.06481 10.39843 1.45507 3.46131.39026 6.91715.68842 10.36914.89649 3.452.20807 6.90057.32662 10.34375.36133 6.88638.0694 13.75524-.19838 20.60938-.76953 6.85414-.57116 13.69166-1.44478 20.51758-2.58594 6.82592-1.14116 13.46293-2.81596 20.26463-4.45658 6.19586-1.49448 11.52892-5.90474 17.70786-7.75773-2.78172-17.50024-2.67652-47.22439-1.57068-52.32338-5.63691-.66054-6.71089-.7659-11.43426-1.43846z" class="top_primary"/><path id="path99623" d="m355.50391 177.77734c-1.02885 11.46883-.30334 29.84986.40625 39.88086 1.00793 14.24856 3.12609 21.91987 4.53711 24.60352l.11913-.41407c-1.32622-2.52237-3.19731-10.00228-4.20312-24.2207-.70837-10.01377-1.43148-28.40178-.4082-39.80859z" style="baseline-shift:baseline;clip-rule:nonzero;color-interpolation-filters:linearRGB;color-interpolation:sRGB;color-rendering:auto;color:#000;direction:ltr;display:inline;dominant-baseline:auto;enable-background:accumulate;fill-opacity:.295533;fill-rule:nonzero;fill:#000;image-rendering:auto;isolation:auto;mix-blend-mode:normal;opacity:1;overflow:visible;shape-padding:0;shape-rendering:auto;solid-color:#000000;solid-opacity:1;stroke-dasharray:none;stroke-dashoffset:0;stroke-linecap:butt;stroke-linejoin:miter;stroke-miterlimit:4;stroke-opacity:1;stroke-width:.45354301;stroke:none;vector-effect:none;visibility:visible;white-space:normal;writing-mode:lr-tb"/></g><g clip-path="url(#clipPath16588)" id="g99703"><g style="display:inline" data-transform="boob_outfit" id="g99701" clip-path="none"><path id="path99627" d="m246.71094 219.15039c-5.75297 3.4504-12.5783 7.014-20.58985 10.57422-25.42423 11.29819-32.40226 21.6887-32.62304 39.19336-.29284 23.21876 13.02158 48.44569 38.04297 47.85742 7.27689-.17108 12.50038-1.30673 16.39453-1.97851.13454-.0232.24853-.0487.38086-.0723-3.96251.70509-8.87108 1.26677-16.40039 1.42578-24.89639.52577-38.10547-24.01181-38.10547-47.23242.0-24.39662 19.13014-32.90179 32.68554-38.94336 8.17387-3.64305 14.65175-7.28443 20.21485-10.82422zm116.96289 8.71875c-.001 63e-5-.003.001-.004.002.32709.57216.65038 1.14729.96094 1.73243-.31152-.58505-.63087-1.1638-.95703-1.73438zm.95703 1.73438c4.70188 8.85882 7.45233 19.1856 6.55664 30.42773-2.06951 25.97519-21.09488 51.27778-57.73438 52.4082-2.61535.0807-4.94111.0942-7.07617.0664.0884.001.1589.007.24805.008 2.06314.023 4.82129.44062 7.32812.36328 36.6395-1.13042 55.41487-26.65176 57.48438-52.62695.89579-11.24342-2.07657-21.76318-6.80664-30.64648zm-87.55859 81.08398c-.0437 48e-5-.0929.003-.13672.004.23166-.003.44902-.003.67578-.004-.18377.001-.35208-.002-.53906.0zm2.14257.004c1.23978.0131 2.40799.0499 3.5293.10351-1.12137-.0536-2.28944-.0904-3.5293-.10351zm-4.89453.0605c-1.61096.058-3.05009.142-4.41797.23828 1.3663-.0961 2.80923-.18039 4.41797-.23828zm9.08789.0762c.68395.0374 1.33317.0882 1.98828.13672-.65448-.0485-1.305-.0993-1.98828-.13672zm-14.51953.24219c-1.01026.0808-1.96574.17061-2.86133.26953.89698-.0991 1.84932-.18866 2.86133-.26953zm18.87695.0859c.60404.0557 1.20832.11152 1.80665.17187-.59493-.06-1.20606-.11651-1.80665-.17187zm-22.65429.28516c-1.06995.12968-2.08007.26722-3.01758.41797.93773-.15082 1.94734-.28823 3.01758-.41797zm27.53515.19921c.79476.0821 1.62109.15764 2.44922.23633-.82426-.0783-1.65803-.15458-2.44922-.23633zm-31.1289.32032c-.78126.13203-1.53192.26766-2.24805.41015.71561-.14239 1.4674-.27821 2.24805-.41015zm35.49414.0898c.95867.0803 1.99374.14647 3.03711.21094-1.04257-.0644-2.07911-.13071-3.03711-.21094zm4.62109.31055c.15447.008.31984.0144.47657.0215-.15624-.007-.32257-.014-.47657-.0215zm-43.10742.16211c-.51548.10716-1.01597.21576-1.51172.32617.49574-.11041.99625-.21901 1.51172-.32617zm-4.59961 1.02929c-1.13595.26321-2.30712.52101-3.53125.77149 1.22417-.25047 2.3953-.50828 3.53125-.77149z" class="shadow"/><path d="m193.8107 268.91795c0 23.22061 13.20858 47.75815 38.10497 47.23238 22.85936-.48275 21.74666-4.65439 42.40531-5.39776 15.31454-.55107 19.77877 2.2839 39.13157 1.68682 36.63949-1.13042 55.66589-26.43248 57.7354-52.40767 2.20477-27.67293-16.98278-50.33403-34.37391-58.13013-7.30007-3.27248-13.61499-5.46708-26.82742-7.90481-14.3652-2.65041-25.84599 1.82396-33.0518 4.97616-15.82961 8.25139-24.91192 19.62404-50.43876 31.00121-13.5554 6.04157-32.68536 14.54714-32.68536 38.94376z" id="path99629" class="top_primary" clip-path="none"/><g id="g99671"><g transform="matrix(2.6961968,-0.07160897,-0.41308278,0.74839154,-376.95949,134.2555)" style="display:inline;stroke-width:.70919698;stroke:none" id="g99639"><path class="top_primary_strong_highlight" d="m257.78463 231.41908 25.46538-1.91912c-1.75833-1.43306-8.91975-1.9852-14.375-1.125-5.21054.7236-7.94775 1.92284-11.09038 3.04412z" id="path99631"/><path class="top_primary_strong_shade" id="path99633" d="m257.77115 231.41459 25.46476-1.92729c-1.52315 1.68089-8.52041 3.30234-14.04298 3.27122-5.26011.0672-8.14639-.70736-11.42178-1.34393z"/><path class="top_primary_strong_shade" d="m261.35088 231.14146 18.93637-1.43319c-1.13266 1.24996-6.33604 2.45572-10.44279 2.43258-3.91157.05-6.0579-.52602-8.49358-.99939z" id="path99635"/><path class="top_primary_strong_highlight" id="path99637" d="m280.36534 229.70219-18.93637 1.43319c1.13266-1.24996 6.33604-2.45572 10.44279-2.43258 3.91157-.05 6.0579.52602 8.49358.99939z"/></g><g transform="matrix(3.0662691,-0.09267002,-0.4459684,1.1386296,-472.00786,40.481941)" style="display:inline;stroke-width:.53838098;stroke:none" id="g99649"><path class="top_primary_strong_highlight" d="m257.78463 231.41908 25.46538-1.91912c-1.75833-1.43306-8.91975-1.9852-14.375-1.125-5.21054.7236-7.94775 1.92284-11.09038 3.04412z" id="path99641"/><path class="top_primary_strong_shade" id="path99643" d="m257.77115 231.41459 25.46476-1.92729c-1.52315 1.68089-8.52041 3.30234-14.04298 3.27122-5.26011.0672-8.14639-.70736-11.42178-1.34393z"/><path class="top_primary_strong_shade" d="m261.35088 231.14146 18.93637-1.43319c-1.13266 1.24996-6.33604 2.45572-10.44279 2.43258-3.91157.05-6.0579-.52602-8.49358-.99939z" id="path99645"/><path class="top_primary_strong_highlight" id="path99647" d="m280.36534 229.70219-18.93637 1.43319c1.13266-1.24996 6.33604-2.45572 10.44279-2.43258 3.91157-.05 6.0579.52602 8.49358.99939z"/></g><g transform="matrix(2.6945077,-0.11828224,-0.40311507,0.71677803,-383.26641,133.4289)" style="display:inline;stroke-width:.72861201;stroke:none" id="g99659"><path class="top_primary_strong_highlight" d="m257.78463 231.41908 25.46538-1.91912c-1.75833-1.43306-8.91975-1.9852-14.375-1.125-5.21054.7236-7.94775 1.92284-11.09038 3.04412z" id="path99651"/><path class="top_primary_strong_shade" id="path99653" d="m257.77115 231.41459 25.46476-1.92729c-1.52315 1.68089-8.52041 3.30234-14.04298 3.27122-5.26011.0672-8.14639-.70736-11.42178-1.34393z"/><path class="top_primary_strong_shade" d="m261.35088 231.14146 18.93637-1.43319c-1.13266 1.24996-6.33604 2.45572-10.44279 2.43258-3.91157.05-6.0579-.52602-8.49358-.99939z" id="path99655"/><path class="top_primary_strong_highlight" id="path99657" d="m280.36534 229.70219-18.93637 1.43319c1.13266-1.24996 6.33604-2.45572 10.44279-2.43258 3.91157-.05 6.0579.52602 8.49358.99939z"/></g><g id="g99669" style="display:inline;stroke-width:.77035397;stroke:none" transform="matrix(2.2846764,-0.07914649,-0.33668017,0.7492189,-282.19741,144.32207)"><path id="path99661" d="m257.78463 231.41908 25.46538-1.91912c-1.75833-1.43306-8.91975-1.9852-14.375-1.125-5.21054.7236-7.94775 1.92284-11.09038 3.04412z" class="top_primary_strong_highlight"/><path d="m257.77115 231.41459 25.46476-1.92729c-1.52315 1.68089-8.52041 3.30234-14.04298 3.27122-5.26011.0672-8.14639-.70736-11.42178-1.34393z" id="path99663" class="top_primary_strong_shade"/><path id="path99665" d="m261.35088 231.14146 18.93637-1.43319c-1.13266 1.24996-6.33604 2.45572-10.44279 2.43258-3.91157.05-6.0579-.52602-8.49358-.99939z" class="top_primary_strong_shade"/><path d="m280.36534 229.70219-18.93637 1.43319c1.13266-1.24996 6.33604-2.45572 10.44279-2.43258 3.91157-.05 6.0579.52602 8.49358.99939z" id="path99667" class="top_primary_strong_highlight"/></g></g><g style="display:inline;stroke-width:.62606603" id="g99685" transform="matrix(1.5972753,0,0,1.5972753,-193.79872,-140.0444)"><g id="g99677" transform="matrix(1.3957022,0.29026258,-0.29026258,1.3957022,-53.058053,-181.41081)" style="stroke-width:.43917"><path id="path99673" d="m315.06029 237.73885c0 1.15936-.85739 1.83405-2.18761 1.83405-3.99957-.59742 2.22451-3.63669 2.18761-1.83405z" class="top_primary_strong_shade"/><path d="m310.4641 237.47368c0-1.15937 1.07836-2.09922 2.40858-2.09922 3.98661.52741-2.25716 3.65716-2.40858 2.09922z" id="path99675" class="top_primary_strong_highlight"/></g><g id="g99683" style="display:inline;stroke-width:.54241198" transform="matrix(0.89464062,0.72928318,-0.72928318,0.89464062,143.38911,-195.30746)"><path id="path99679" d="m315.06029 237.73885c0 1.15936-.85739 1.83405-2.18761 1.83405-3.99957-.59742 2.22451-3.63669 2.18761-1.83405z" class="top_primary_strong_shade"/><path class="top_primary_strong_highlight" id="path99681" d="m310.79531 237.57833c-.0813-1.18198.9521-2.21579 2.30826-2.30911 4.10131.25801-2.0446 3.88679-2.30826 2.30911z"/></g></g><g id="g99699" style="filter:url(#filter13722)" clip-path="url(#clipPath13724)"><path class="top_primary_shade" d="m228.29175 321.01168c34.27606-1.16849 31.78361-5.103 47.53183-5.04421 18.26342.0682 23.13753.7813 42.49033.18422 36.63949-1.13041 29.08529-5.72402 41.14428-31.11051 23.29847-49.04778-13.84086-35.88118-43.03199-27.36627-6.22204 1.81494-55.25845 10.84532-62.26123 11.608-9.12062.99334-66.92063-2.31715-72.10992-20.69433-21.29238 24.44043-1.91095 74.06448 46.2367 72.4231z" id="path99687"/><path class="top_primary_highlight" d="m192.78386 232.98719c33.40653 16.68384 45.56964 13.05203 65.02661 13.63121 13.40181.39894 26.71649-13.2122 51.61991-13.72635 63.25139-1.30587 21.20577-25.25529.70878-25.67496-5.64663-.11562-40.0845 7.17456-47.93302 10.94056-17.16586 8.2368-38.21969-17.21787-55.02794-2.37881-16.645 18.06076-37.6282 6.7252-14.39434 17.20835z" id="path99689"/><path id="path99691" d="m220.86713 318.89035c34.27606-1.16849 31.78361-5.103 47.53183-5.04421 18.26342.0682 23.13753.7813 42.49033.18422 36.63949-1.13041 32.97438 3.11482 45.03337-22.27167 23.29847-49.04778-13.84086-35.88118-43.03199-27.36627-6.22204 1.81494-55.25845 10.84532-62.26123 11.608-9.12062.99334-66.92063-2.31715-72.10992-20.69433-21.29238 24.44043-5.80004 65.22564 42.34761 63.58426z" class="top_primary_shade"/><path class="top_primary_shade" d="m213.79606 312.52639c34.27606-1.16849 31.78361-5.103 47.53183-5.04421 18.26342.0682 23.13753.7813 42.49033.18422 36.63949-1.13041 38.27768-1.83493 43.97271-10.25085 30.43184-44.97118-14.19441-31.28499-43.38554-22.77008-6.22204 1.81494-55.25845 10.84532-62.26123 11.608-9.12062.99334-66.92063-2.31715-72.10992-20.69433-21.29238 24.44043-4.38583 48.60863 43.76182 46.96725z" id="path99693"/><path id="path99695" d="m200.20848 228.92133c33.40653 16.68384 38.49857 12.16814 57.95554 12.74732 13.40181.39894 24.59517-13.38897 49.49859-13.90312 63.25139-1.30587 21.38255-15.17902.88556-15.59869-5.64663-.11562-39.73095 7.70489-47.57947 11.47089-17.16586 8.2368-42.99266-16.33399-53.7905-7.85889-16.645 18.06076-30.20358 2.65934-6.96972 13.14249z" class="top_primary_highlight"/><path class="top_primary_highlight" d="m201.97625 225.91613c33.40653 16.68384 38.32179 10.9307 57.77876 11.50988 13.40181.39894 23.0129-11.12274 47.9076-11.95858 44.15951-1.48264 20.32189-6.69374-.1751-7.11341-5.64663-.11562-39.3774 7.88167-47.22592 11.64767-17.16586 8.2368-50.2405-19.16242-61.03834-10.68732-16.645 18.06076-20.48086-3.88139 2.753 6.60176z" id="path99697"/></g></g></g><g transform="translate(3.7078585e-6)" style="display:inline;opacity:1" id="g99899-9-1-2"><path id="path99891-0-3-9" d="m341.50556 175.49535c-12.28728 18.02216-66.94598 47.87954-88.85184 68.17559 2.41878-17.35737 32.2483-42.83631 34.61488-56.75962-1.38158.25101-3.0577.64637-5.01207 1.09655-5.23117 20.50784-37.20877 38.58542-33.76442 64.37503 52.9057-44.90524 77.87554-49.1375 97.26009-76.06892-1.23239-.2297-3.03555-.5605-4.24664-.81863z" class="top_accent"/><path id="path99893-7-9-2" d="m252.62904 243.41459-4.37799 3.7599.0124.30005 4.38118-3.79042z" style="baseline-shift:baseline;clip-rule:nonzero;color-interpolation-filters:linearRGB;color-interpolation:sRGB;color-rendering:auto;color:#000;direction:ltr;display:inline;dominant-baseline:auto;enable-background:accumulate;fill-opacity:1;fill-rule:nonzero;fill:#000;image-rendering:auto;isolation:auto;mix-blend-mode:normal;opacity:1;overflow:visible;shape-padding:0;shape-rendering:auto;solid-color:#000000;solid-opacity:1;stroke-dasharray:none;stroke-dashoffset:0;stroke-linecap:butt;stroke-linejoin:miter;stroke-miterlimit:4;stroke-opacity:1;stroke-width:.22677165;stroke:none;vector-effect:none;visibility:visible;white-space:normal;writing-mode:lr-tb"/></g></svg>