<svg viewBox="0 0 560 1e3"><g id="g231530" data-transform="boob_left"><path id="path231518" class="highlight2" d="m321.8947 218.54054c-2.76678 1.48029-9.16882 4.78115-6.62541 9.32336 5.21594-.0874 7.2993-7.02145 6.62541-9.32336z"/><path id="path231520" class="highlight2" d="m309.98732 242.0169c-4.34153 4.01525-7.09476 10.27357-2.32366 12.70331 3.67959-1.35487 4.64912-7.17508 2.32366-12.70331z"/><path id="path231522" class="highlight2" d="m310.32781 237.83571c-1.78735 1.4995-.68054 1.93899-.36482 2.52505 1.12542-.60589 1.3844-.9337.36482-2.52505z"/><path id="path231524" class="highlight2" d="m324.17925 215.41063c-.86565.25815-2.35194.19131-1.46521 1.90899 2.66298-.25035 1.78604-1.31808 1.46521-1.90899z"/><path id="path231526" class="highlight2" d="m312.34625 232.24988c-1.37003-1.88842-2.70108-1.15474-3.3079-.88104.67762.69036 1.9536.8851 3.3079.88104z"/><path id="path231528" class="highlight2" d="m312.19061 228.85899c-1.59505-.29053-2.32507.19552-2.70133.74462 1.39596.26947 1.65141.33439 2.70133-.74462z"/></g><g id="g231546" data-transform="boob_right"><path id="path231532" class="highlight2" d="m259.12425 228.11053c-9.38218-2.44612-18.58075 7.26892-21.87874 9.43239 5.01853 1.40973 21.20531 3.57944 21.87874-9.43239z"/><path id="path231534" class="highlight2" d="m268.81933 217.8422c-1.17292-.21319-2.52418.70847-2.43626 1.67154.80139.1337 2.45193.36464 2.43626-1.67154z"/><path id="path231536" class="highlight2" d="m236.36413 237.25791c-.90113-.26447-6.34596.24292-6.93362.31039.92573.87607 6.87807 1.75515 6.93362-.31039z"/><path id="path231538" class="highlight2" d="m224.17717 245.63486c-.035 6.56362 2.75668 17.20602 4.49476 19.12629.21244-.40023-4.17906-17.9579-4.49476-19.12629z"/><path id="path231540" class="highlight2" d="m224.19076 242.47085c-1.1713.79304-.57606 1.90161-.0717 2.34386.73332-.43399.39987-1.72132.0717-2.34386z"/><path id="path231542" class="highlight2" d="m224.56397 236.11087c-.73738.20958-1.35031.44297-1.86364.88881.89308.26461 1.73954.16985 1.86364-.88881z"/><path id="path231544" class="highlight2" d="m224.59812 233.95172c-.33166.0387-1.03824.2584-1.1366.87129.33884-.36799 1.06121-.31865 1.1366-.87129z"/></g></svg>