<svg viewBox="0 0 560 1e3"><g style="display:none" id="Arm_Down_Hair_Neat"><path d="m354.05629 228.07423c1.39185-4.39624 2.09719-9.60653 4.00065-14.414.54189 4.42694.7503 4.99021.86324 6.92685-1.39276 2.16548-2.43234 4.46572-4.86389 7.48715z" class="armpit_hair" id="XMLID_590_-04-8-9-4-9-6"/></g><g id="Arm_Down_Hair_Bushy" style="display:none"><path id="path1099" class="armpit_hair" d="m360.24347 231.86792.62233 4.65711c.55578.2551-7.99816 5.95284-3.27038-.65737-3.09359 5.37627 2.92909-.003 2.17022-2.14111-1.53423.28812-5.71284 3.52639-5.25133 8.12415-.98363-3.5058 2.9824-9.77272 4.83736-11.83806-.18244 1.45667-8.26869-.51242-3.88775 5.73641-5.3105-5.44303 2.41392-7.14507 3.39202-9.43961.45356 1.56568-1.24519 3.2832-7.4966 4.08414 3.46772-.44603 7.11012-4.45071 7.06734-6.77892-2.40629-.74554-6.1703 2.17421-5.81219 4.21371-.25259-2.66244 3.06309-5.85365 5.67489-7.08339-.9377 1.02012-4.71933.89387-3.06732-2.07507-.83642 1.71326 1.4865 2.34105 2.34002-.14383-1.70746-1.70745-3.52581-1.63585-3.89757.0658.97561-3.83828 3.37716-1.67017 4.2302-1.64816-.32331-.41565-.17879-.76893-.0751-1.12765-2.01181.29687-4.33853-2.08468-4.3297-2.13619 1.72132.72587 4.20901 1.47818 4.21081.17288.0.0-.11184-2.03629-.16497-3.11735 1.19043 6.54449 2.70769 21.13294 2.70769 21.13294z"/></g><g id="Arm_Up_Hair_Neat" style="display:none"><path d="m353.82758 228.26371c2.63427-8.3205 2.8094-19.55701 13.30247-25.45963-2.25337 1.88046-2.3103 2.56478-2.3103 2.56478s3.92159-2.74342 6.0617-3.75361c-2.13734 1.00888-7.90174 6.73287-7.90174 6.73287s5.25855-3.57777 7.96714-4.85629c-2.65821 1.36333-7.78621 6.57323-7.78621 6.57323s5.96459-4.60503 10.05437-5.34594c-4.10883.74436-10.03306 6.87998-10.03306 6.87998s6.35061-4.58166 9.43389-4.32646c-3.08434-.25529-10.12328 6.20939-10.12328 6.20939s6.98773-5.58977 9.97576-4.51804c-2.94589-1.05661-10.71107 6.34907-10.71107 6.34907s6.61595-4.68536 9.63061-3.60408c-3.02656-1.08555-10.21842 5.09377-10.21842 5.09377s.60053-.37366 1.37241-.41639c-4.47366 3.77416-4.63821 6.81245-8.71427 11.87735z" class="armpit_hair" id="XMLID_590_-04-8-9-4-9"/></g><g style="display:none" id="Arm_Up_Hair_Bushy"><path d="m354.20431 225.28332c-.61112.0223 1.18028-.1941 1.52525 4.27681.31193-3.28492-.95671-4.75569.56442-6.43901 1.30627.85471 5.90336.91135 3.71313 4.98017 2.25343-2.86011-.98533-5.63205-1.90592-8.25103-.39041 1.41519 10.77036 3.34558 4.32719 7.43534 8.5248-4.57088-5.60608-14.3046 5.01736-8.4047-3.0312-1.74236-3.14502-4.92117-.87788-5.45267 1.31482 2.14877.7096 4.94138-1.3553 5.0962 2.64273-.41036 3.62136-2.83526 4.1705-5.66937-.75797 1.1599.29507 4.79417 2.76613 2.46231-1.45473 1.23233-2.63489-.86465-.43645-2.30346 2.07516 1.23475 1.62919 3.21634-.11115 3.28731 3.94931-.29507 2.23064-3.03628 2.35691-3.88021.67358 1.25061.49749 1.49403 1.53676 2.24415-1.02483-1.3448.3076-2.81529.72915-3.20865.86312-.0346 1.27103-.54702 1.85896-.87047-.6731.32102-1.5432-.54456-2.31305-1.72962-.2374-.36546.98951-1.49356 1.11803-2.66756-.68914 1.5688-2.21073.66309-2.37984.26276-.23543-.55727-.41307-1.06893-.50614-1.45692 1.13002.29438 1.42264-.21138 1.72133-.71135-1.32214.59302-1.44554-.15189-1.40844-1.07596 1.72125-.87267 2.55204.23313 3.60677.84136-.62544-1.93202-1.6831-3.38747-3.66192-3.82713.81617-.7038 1.73649-.55881 2.65202-.45302-.85236-.65929-1.81572-1.14737-3.08406-1.16507-3.6659.85993-12.95933 3.61857-17.02603 17.95061.0.0-1.8106 7.37519-2.59771 8.72919z" class="armpit_hair" id="path3321"/></g></svg>