<svg viewBox="0 0 560 1e3"><path d="m348.63477 177.18378c-1.98412 7.5476-4.3514 14.29372-6.72852 21.00196-3.21216 9.06475-6.45102 18.07257-8.64258 28.68164-25.23315 1.42365-44.84663 5.27937-61.27344 5.69336-6.91894.17437-12.98624.19156-18.55664.0371 6.28787-15.78172 15.81493-25.81266 26.55469-43.86914-2.61517.58974-5.24346 1.19867-7.93164 1.89062-9.62174 15.17667-18.32042 25.07176-24.39844 40.92578-6.08204 15.8645-3.25303 29.78136-.0957 45.12891 2.7936 13.57946 6.84622 28.81358 4.96055 48.35428 3.49468.72849 6.04892 1.12442 9.69375 1.48556 2.29932.22782 4.61875.37192 6.94531.41797 2.32656.046 4.65964-.007 6.98828-.16992 7.50379-.52606 15.56693-1.4673 23.65625-2.6582 8.08933-1.19091 16.20484-2.63149 23.8125-4.15625 4.93412-.98892 10.89787 7.13654 15.33513 6.34714-1.28401-4.16746-2.53944-13.74075-2.84099-16.12253 95e-5-.003.003-.005.004-.008-.47357-3.73968-.82871-7.44793-1.08789-11.10156-.0636-.89794-.10616-1.78298-.15821-2.67383-.1202-2.05329-.21354-4.0847-.27734-6.09375-.0265-.83864-.0606-1.68387-.0781-2.51367-.0236-1.10848-.0305-2.19775-.0391-3.28906-.006-.8173-.0152-1.63648-.0137-2.44336.002-1.08352.0143-2.15345.0293-3.2168.0106-.73844.0227-1.47312.0391-2.20117.0239-1.07127.0505-2.13431.0859-3.18164.0251-.73963.0556-1.46641.0859-2.19336.0414-.99511.0827-1.99287.13282-2.96289.044-.84902.0947-1.67328.14453-2.50195.0464-.77373.0878-1.56326.13867-2.31836.10162-1.50786.21252-2.97965.32813-4.40821.19061-2.35545.40082-4.52511.61132-6.64062.19261-1.93128.38322-3.74451.57422-5.45117.0894-.79899.18329-1.69545.26953-2.44141.24584-2.12271.48584-4.13034.67774-5.7832.11831-1.01906.24918-2.0179.38867-3.00391.0415-.29444.0895-.58134.13281-.87305.10778-.72345.21558-1.44309.33399-2.15039.0409-.24553.0848-.48678.12695-.73047.13687-.78788.27859-1.57009.42773-2.33984.0237-.12269.0483-.24493.0723-.36719.17663-.89711.35887-1.78483.55078-2.66015.005-.0206.009-.0419.0137-.0625 2.07934-9.46192 5.02956-17.70429 8.08203-26.31836 2.45546-6.92932 4.9698-14.09743 7.06836-22.23438-1.96695-.30714-4.0286-.5759-6.14257-.82422z" id="path20456" class="top_primary"/></svg>