<svg viewBox="0 0 560 1e3"><g id="g22245" data-transform="boob_outfit"><path d="m328.56505 281.75447a28.695379 24.185702.0 01-28.69544 24.18572 28.695379 24.185702.0 01-28.69541-24.18572 28.695379 24.185702.0 0128.69541-24.18565 28.695379 24.185702.0 0128.69544 24.18565z" id="path22095-06-8-9-7" class="bra_primary"/><path d="m299.04978 277.48422-.32879 22.89517c-1.35432.12347-2.42377.5029-3.15792 1.18427-.41604 2.02822-.3184 3.79961-.39457 5.65799-3.24132 2.49498-3.03675 4.12851-3.63849 5.96354.0.0-1.18974 30.53394-2.67108 45.73183-.31876 3.27086-1.33664 9.76817-1.33664 9.76817.8374.26877 1.18216-.56622 2.51217-1.20955 1.33182-.64423 1.5752 1.35537 2.85838 1.2833 1.00898-.0568 1.80527-2.24295 2.67293-2.12868 1.60374.21138 2.28026 2.24112 3.8965 2.17755 1.53175-.0599.71071-2.54961 2.2762-2.55909 1.42801-.009 1.86794 2.46639 3.2744 2.71327 2.40758.42267 1.75169-3.64106 4.04674-2.79971 1.38604.50811 3.06469 3.42014 3.86556 2.74523-.85932-2.32183-1.78058-3.61442-2.24856-9.05108l-4.05212-47.06976c-.56073-2.10708-1.46429-3.87135-2.72676-5.27677-.0269-2.12444.0971-4.24892-.39538-6.37336-.97526-.55961-1.81768-.70575-3.40303-.77727l.33412-22.84183z" id="path22113-4-5-4-0" class="bra_accent"/><path class="bra_primary" id="path85875" d="m183.13478 295.1209c-1.32736 11.46564-13.04346 19.43715-26.1686 17.80485-5.76134-.71649-10.83651-3.16436-14.60554-6.6553 1.38016-10.40997 5.19224-18.12515 10.14-24.03051 3.42798-4.09144 7.303-7.53069 11.32668-10.50108 12.0533 2.42556 20.56451 12.52366 19.30746 23.38204z"/><path class="bra_accent" id="path22115-7-6-2-4" d="m156.84945 288.79393-.32481 22.61734c-1.33792.12196-2.39437.49678-3.11966 1.16986-.41097 2.00357-.31454 3.75348-.38973 5.5893-3.20198 2.46465-2.99991 4.07836-3.59434 5.89114.0.0-1.17526 30.16331-2.63869 45.17674-.31484 3.23119-1.32036 9.6496-1.32036 9.6496.82725.26546 1.16786-.55941 2.48168-1.19491 1.31566-.63642 1.55607 1.33896 2.82369 1.26777.9967-.0562 1.78339-2.21577 2.64049-2.10289 1.58419.20882 2.25251 2.21391 3.8492 2.15113 1.51316-.0594.70208-2.51865 2.24857-2.52801 1.41071-.009 1.84524 2.43643 3.23464 2.6803 2.37833.41754 1.73045-3.59683 3.99761-2.7657 1.36924.50194 3.02752 3.37867 3.81863 2.71187-.84884-2.29362-1.75891-3.5705-2.22125-8.94117l-4.00296-46.49838c-.55392-2.08154-1.44649-3.82442-2.69364-5.21273-.0264-2.09866.0959-4.19733-.39054-6.29604-.96353-.55276-1.79563-.69717-3.36176-.76775l.33012-22.56458z"/></g></svg>