<svg viewBox="0 0 560 1e3"><defs/><g data-transform="boob_right" id="g231148"><path id="path231136" d="m153.72218 295.95998c-1.18463-1.65112-1.6124-4.64066-.87441-6.28165 1.93092-4.29401 5.7094-7.07265 10.08671-6.54929 4.83311.5231 4.69603 2.60957 5.49179 4.84809 1.77393 7.93306-10.11162 14.32456-14.70409 7.98285z" class="areola"/><path d="m155.39404 288.70812c2.30818-.65451 3.88394.31171 7.26126 2.58225-3.25476-1.54669-4.30996-3.06722-7.26126-2.58225z" class="shadow" id="path231138"/><path d="m158.32462 288.92102c.31305-.85449 1.31123-2.265 3.28274-1.66057-2.42258-.23957-2.55472.8164-3.28274 1.66057z" class="shadow" id="path231140"/><path d="m152.372 296.09414c3.80133 3.77294 11.09506 3.80657 13.96773.31075-1.82381 2.03874-7.74045 5.51566-13.96773-.31075z" class="shadow" id="path231142"/><path id="path231144" d="m156.32499 284.89164c-1.91098 1.51127-3.20492 3.63152-3.71334 5.58592-.5085 1.9544-.23599 3.91746.91629 5.39356 1.09415 1.22039 2.58495 1.16004 4.59187 1.12522 2.0069-.0348 3.76423-.88706 5.67521-2.39833 1.91098-1.51127 3.37032-3.20325 3.87877-5.15767.50851-1.9544.72784-3.00892-.42438-4.48501-1.15231-1.47613-3.27092-2.11145-5.27785-2.0766-2.00692.0348-3.73562.50164-5.64657 2.01291zm.0928.14523c1.87476-1.48262 3.52802-1.85851 5.48001-1.89232 1.95201-.0339 4.04471.55821 5.1477 1.97163 1.10306 1.413.86295 2.34345.36846 4.24437-.49458 1.90092-2.16602 3.74672-4.04078 5.22937-1.87479 1.48261-3.58599 2.24997-5.53795 2.28381-1.95202.0339-3.19932-.26814-4.02334-1.1815-1.10306-1.41304-1.47905-3.25444-.98453-5.15536.49459-1.90092 1.71567-4.01736 3.59043-5.5z" style="baseline-shift:baseline;clip-rule:nonzero;color-interpolation-filters:linearRGB;color-interpolation:sRGB;color-rendering:auto;color:#000;direction:ltr;display:inline;dominant-baseline:auto;enable-background:accumulate;fill-opacity:1;fill-rule:nonzero;fill:#000;image-rendering:auto;isolation:auto;mix-blend-mode:normal;opacity:1;overflow:visible;shape-padding:0;shape-rendering:auto;solid-color:#000000;solid-opacity:1;stroke-dasharray:none;stroke-dashoffset:0;stroke-linecap:butt;stroke-linejoin:miter;stroke-miterlimit:4;stroke-opacity:1;stroke-width:.0755906;stroke:none;vector-effect:none;visibility:visible;white-space:normal;writing-mode:lr-tb"/><path d="m155.57539 297.65951c5.30404 2.97199 12.31978-1.91434 12.95935-6.80423.186-.83641-.12439-2.96267-.31382-3.61739.0378.12439.38673 3.14611.17172 3.88671-1.13713 4.16777-6.87938 8.90024-12.81719 6.53491z" class="shadow" id="path231146"/></g><g data-transform="boob_left" id="g231162"><path class="shadow" d="m291.20499 283.90268c-1.93244-2.40017-1.61344-6.15267-1.08044-7.90458 1.28498-4.71008 6.9473-7.10609 11.8799-7.0397 4.32535.058 6.7759.6691 8.71661 4.38996 2.10683 1.58338 2.24629 4.28833 2.13659 4.41043-.57547 3.91442-3.26015 9.53347-11.13762 9.21971-6.32025.30748-8.47916-.0815-10.51504-3.07582z" id="path231150"/><path id="path231152" d="m291.20499 283.90268c-1.3198-2.4593-1.59844-6.18144-1.08044-7.90458 1.35533-4.50888 7.4717-6.9886 11.8799-7.0397 4.34579-.05 6.80087 1.24745 8.71661 4.38996 1.76557 1.88286 2.20212 4.3271 2.13659 4.41043-.75584 3.66289-3.43183 9.29408-11.13762 9.21971-5.95801.006-8.30905-.22201-10.51504-3.07582z" class="areola"/><path class="shadow" d="m294.04894 276.29213c4.29851-1.67132 8.3956.58874 11.06123 2.82729-3.20084-1.56175-7.29423-3.70206-11.06123-2.82729z" id="path231154"/><path id="path231156" d="m299.01479 276.26401c2.45195-2.13296 3.92915-2.70075 7.60746-2.35345-3.43916.12112-5.002.74897-7.60746 2.35345z" class="shadow"/><path class="shadow" d="m292.49651 284.93827c20.71207 4.30532 18.91698-10.04605 18.54156-11.47432 1.25075 8.71402-3.97174 16.09563-18.54156 11.47432z" id="path231158"/><path d="m297.42429 288.42251c10.92823-1.11695 14.20267-3.50662 15.34896-9.93612-.13332 7.45408-6.07863 9.39015-15.34896 9.93612z" class="shadow" id="path231160"/></g></svg>