<svg viewBox="0 0 560 1e3"><path class="shadow" id="path5295" d="m280.65421 450.61746c0 .62225-.69775 1.32-1.32 1.32-.62226.0-1.32-.69775-1.32-1.32.0-.62226.69774-1.32 1.32-1.32.62225.0 1.32.69774 1.32 1.32z"/><path class="shadow" id="path5297" d="m273.04854 447.07431c0 .62225-.69774 1.32-1.32 1.32s-1.32-.69775-1.32-1.32c0-.62226.69774-1.32 1.32-1.32s1.32.69774 1.32 1.32z"/><path class="shadow" id="path5299" d="m263.92901 439.67081c0 .62226-.69774 1.32-1.32 1.32s-1.32-.69774-1.32-1.32.69774-1.32 1.32-1.32 1.32.69774 1.32 1.32z"/><path class="shadow" id="path5301" d="m261.2885 442.97671c-.25717.37024-.68749.65747-1.08674.65747-.62226.0-1.32-.69774-1.32-1.32.0-.47297.40311-.98955.86978-1.2102.66825.97802.44108.72428 1.53696 1.87273z"/><path class="shadow" id="path5303" d="m271.30899 449.20505c-.19868.43476-.62115.81664-1.04642.86628-.61806.0722-1.39198-.54-1.46412-1.15807-.0394-.33749.12523-.72145.38345-1.01224.90066.5038 1.16258.61419 2.12709 1.30403z"/><path class="shadow" id="path5305" d="m279.41638 453.40101c-.14976.51848-.66261 1.02017-1.16444 1.06231-.62008.052-1.37376-.58483-1.42583-1.2049-.0257-.3065.11685-.64564.34254-.91655 1.31737.5558 1.3094.60756 2.24773 1.05914z"/><path class="shadow" id="path5307" d="m252.63017 430.60226c0 .62226-.69775 1.32-1.32 1.32-.62226.0-1.32-.69774-1.32-1.32.0-.62225.69774-1.32 1.32-1.32.62225.0 1.32.69775 1.32 1.32z"/><path class="shadow" id="path5309" d="m250.50829 432.61405c-.20801.39992-.475.65022-.871.70098-.61721.0791-1.398-.52425-1.47712-1.14146-.0602-.46912.32502-1.11281.75985-1.39101.78718.88511.8551.9799 1.58827 1.83149z"/><path class="shadow" id="path5311" d="m243.54959 418.62545c0 .62226-.69774 1.32-1.32 1.32-.62226.0-1.32-.69774-1.32-1.32s.69774-1.32 1.32-1.32c.62226.0 1.32.69774 1.32 1.32z"/><path class="shadow" id="path5313" d="m241.11514 420.73332c-.25717.37024-.55381.58455-.95305.58455-.62226.0-1.32-.69774-1.32-1.32.0-.47296.46387-1.06246.93054-1.28311.66825.97802.72358 1.08067 1.34251 2.01856z"/><path d="m280.53421 450.61746c0 .56568-.63432 1.2-1.2 1.2-.56569.0-1.2-.63432-1.2-1.2.0-.56569.63431-1.2 1.2-1.2.56568.0 1.2.63431 1.2 1.2z" id="path4550" class="steel_piercing"/><path d="m272.92854 447.07431c0 .56568-.63431 1.2-1.2 1.2-.56569.0-1.2-.63432-1.2-1.2.0-.56569.63431-1.2 1.2-1.2.56569.0 1.2.63431 1.2 1.2z" id="path4552" class="steel_piercing"/><path d="m263.80901 439.67081c0 .56569-.63431 1.2-1.2 1.2-.56569.0-1.2-.63431-1.2-1.2.0-.56569.63431-1.2 1.2-1.2.56569.0 1.2.63431 1.2 1.2z" id="path4554" class="steel_piercing"/><path d="m261.1791 442.92147c-.23379.33658-.62499.5977-.98794.5977-.56569.0-1.2-.63431-1.2-1.2.0-.42997.36646-.89959.79071-1.10018.6075.88911.40098.65844 1.39723 1.70248z" id="path4556" class="steel_piercing"/><path d="m271.19461 449.18542c-.18062.39523-.56468.7424-.95129.78752-.56187.0656-1.26544-.49091-1.33102-1.05279-.0358-.30681.11385-.65586.34859-.92022.81878.458 1.05689.55836 1.93372 1.18549z" id="path4558" class="steel_piercing"/><path d="m279.2985 453.40129c-.13614.47135-.60237.92743-1.05858.96574-.56371.0473-1.24887-.53167-1.29621-1.09537-.0234-.27863.10623-.58694.3114-.83322 1.19761.50527 1.19037.55232 2.04339.96285z" id="path4560" class="steel_piercing"/><path d="m252.51017 430.60226c0 .56569-.63432 1.2-1.2 1.2-.56569.0-1.2-.63431-1.2-1.2.0-.56568.63431-1.2 1.2-1.2.56568.0 1.2.63432 1.2 1.2z" id="path4562" class="steel_piercing"/><path d="m250.40127 432.56298c-.1891.36357-.43181.59111-.79181.63726-.5611.0719-1.27091-.47659-1.34284-1.03769-.0547-.42648.29547-1.01165.69077-1.26456.71562.80465.77737.89082 1.44388 1.66499z" id="path4564" class="steel_piercing"/><path d="m243.42959 418.62545c0 .56569-.63431 1.2-1.2 1.2s-1.2-.63431-1.2-1.2c0-.56569.63431-1.2 1.2-1.2s1.2.63431 1.2 1.2z" id="path4562-0" class="steel_piercing"/><path d="m241.01182 420.66814c-.23379.33658-.50346.53141-.86641.53141-.56569.0-1.2-.63431-1.2-1.2.0-.42997.4217-.96588.84595-1.16647.6075.88911.6578.98243 1.22046 1.83506z" id="path4564-9" class="steel_piercing"/></svg>