<svg viewBox="0 0 560 1e3"><g id="g24758"><path d="m369.93594 370.66797c-15.87992 25.74026-54.16482 40.79281-87.67383 44.45508-27.03318 2.9545-49.79104-1.55642-51.1543-14.05469-.52917 2.23217-.68885 4.27706-1.05273 5.94726-.39073 1.7935-.80552 3.20059-1.00586 4.09376-.0953 9.40228 10.13014 13.0053 22.16992 22.20703 15.25248 11.65713 26.285 17.92851 35.49219 29.1582 1.09472.32155 2.02504.72599 3.33984.83984 1.7325-.0154 3.42124-.0959 4.99024-.0332 2.13171.0852 4.11719.32228 6.38476.30078 1.40448-.0134 3.04298-.71579 4.32617-1.4082-1.28319.69241-2.63458 1.12924-4.03906 1.14258-3.93657.0374-7.74764-.27265-11.83398-.23633-1.3148-.11385-1.87599-.25462-2.97071-.57617-9.20719-11.22969-20.18697-17.78037-35.43945-29.4375-12.03978-9.20173-22.43711-12.51569-22.3418-21.91797.69239-2.23223 1.24797-5.98345 1.97657-9.99024 2.17513 28.00829 113.49012 15.95139 138.76953-30.34179 2.48317 5.3775 3.3294 6.9524 5.83398 12.71875-.48107 3.7084-8.11269 13.55653-19.51172 22.40234-18.88817 14.65749-37.17662 30.73026-45.61718 43.30664 8.4676-12.45082 26.8737-28.31296 45.79492-42.99609 11.39903-8.84581 18.89588-19.00449 19.37695-22.71289-2.50458-5.76635-3.33128-7.48969-5.81445-12.86719zm-59.35742 78.57617c-.0803.11966-.15391.23645-.23243.35547.0798-.11935.15082-.23548.23243-.35547zm-4.82618 12.92969.0156-.15625c-.0622-.7506-.025-1.53823.0937-2.35742-.13635.87763-.17546 1.71667-.10938 2.51367z" id="path24326" class="shadow"/><path d="m305.7514 462.17389c-1.28319.69241-2.63386 1.12872-4.03834 1.14206-3.93657.0374-7.74766-.27302-11.834-.2367-1.3148-.11385-1.87665-.25355-2.97137-.5751-9.20719-11.22969-20.18584-17.78005-35.43832-29.43718-12.03978-9.20173-22.4384-12.51675-22.34309-21.91903.69239-2.23223 1.24819-5.98285 1.97679-9.98964 2.17513 28.00829 113.49131 15.95071 138.77072-30.34247 2.48317 5.3775 3.32783 6.95274 5.83241 12.71909-.48107 3.7084-8.11189 13.55744-19.51092 22.40325-26.32517 20.42871-51.49125 43.60474-50.44388 56.23572z" id="path24328" style="fill-opacity:.975791;fill:#fffffb"/><path class="panties_primary" id="path24573" d="m369.87305 370.81641c-25.27941 46.29318-136.5944 58.35008-138.76953 30.34179-.31974 1.80393-.39298 2.20348-.69922 3.97461 4.60651 11.67964 24.88692 16.82114 52.71289 13.73633 34.0243-3.77197 76.48336-21.25522 87.91015-45.53711-.38848-.828-.66312-1.45195-1.15429-2.51562zm2.38672 5.20312c-11.6434 24.2895-54.6707 42.9204-88.64454 46.64258-27.75307 3.04063-48.97594-3.44302-53.63281-15.20703-.23761 1.22788-.37315 1.82156-.56445 2.60937 4.72522 11.83258 27.06464 19.3923 54.76953 16.38086 33.58751-3.65086 77.15871-23.24524 89.5332-47.24023-.43995-.96152-1.03652-2.28284-1.46093-3.18555zm2.80273 6.10938c-12.9831 23.78845-56.88904 44.46048-90.10938 48.08007-22.70167 2.47351-42.52281-3.00462-51.60156-11.62304-2.17426-2.39027-3.75159-4.97221-4.13867-7.73242l-.0859.29492c-.0149 1.4691.22572 2.7883.68946 4.00586v.002c.0926.24293.19467.4817.30468.7168v.002c.0373.0795.0819.15568.1211.23438 2.05031 4.11736 6.75609 7.10565 12.64258 10.97265 1.36161.89449 2.91398 2.04294 4.38281 3.05664.14787.0526.26529.12384.41406.17578 1.2387.86373 2.50009 1.76832 3.78711 2.75196 3.38822 2.58954 6.53545 4.90289 9.5293 7.0957.40854.3025.84609.63457 1.25976.9375.006 9e-4.0131.001.0195.002 1.91224 1.39983 3.72997 2.74077 5.49805 4.06055-.0213-.002-.0432-.002-.0645-.004 1.142.85449 2.65723 1.94442 3.74414 2.78711.28262.21912.5178.44896.79687.66797.0167 27e-5.034-26e-5.0508.0 1.36634 1.07248 2.69217 2.14839 3.97852 3.23828-.055 78e-5-.11109.003-.16602.004 1.12822.9548 2.34516 1.87736 3.41797 2.86914.002-3e-5.004 3e-5.006.0.8986.83077 1.77526 1.68551 2.63867 2.55664-.0668.001-.13442.005-.20117.006.73609.7395 1.45522 1.51783 2.16797 2.29492.0699-.002.14103-.007.21094-.01.50192.54996.99899 1.11125 1.49023 1.68359-.037.002-.0743.004-.11132.006.37729.43837.80245.78923 1.17382 1.24219.30972.0999.69552.18861.99409.27134-.0772-.11132-.15386-.19766-.20311-.28506 2.15973.005 4.54225-.16262 6.43359-.39061 3.51272-.42993 7.12286-.84857 10.74024-1.34766-.0759.47558-.12815.94099-.1543 1.39649.008-.18335.011-.12598-.004.0447-5.31024.50148-6.53107.63798-9.49687.97904 2.08104.0148 4.03329.26789 5.89783.20638.47623-.0157.94673-.0519 1.4122-.11791 1.09976-.15587 2.1714-.47771 3.22395-1.08704-.004-.0428.009-.0918.006-.13477-.003 29e-5-.005-29e-5-.008.0-.0309-.4534-.0247-.9228.01-1.40234.0189-.003.0377-.005.0566-.008.0225-.31821-.0115-.61407.0391-.94336.035-.22794.13158-.47979.17969-.71289-.0117.002-.0234.004-.0352.006.13261-.6407.29859-1.29461.52734-1.97266 64e-5-11e-5.001 11e-5.002.0.004-.0129.005-.0242.01-.0371.15408-.45367.39222-.93863.65039-1.43164.25863-.49294.53824-.99392.77344-1.47852h-.002c-.0749.0149-.14973.0282-.22461.043.52807-1.08288 1.15763-2.20362 1.87305-3.35547.006-.001.0117-.003.0176-.004.78282-1.26054 1.84981-2.62208 2.83789-3.95508-.0565.0143-.11338.0267-.16992.041 1.07242-1.44547 2.24614-2.92774 3.53516-4.44531.0448-.013.09-.0241.13476-.0371 1.49682-1.76241 2.99226-3.52526 4.74414-5.36523.0323-.034.0707-.0714.10352-.10547 2.01881-2.11642 4.21354-4.28238 6.51172-6.4707.016-.007.0328-.0125.0488-.0195h.002c.35674-.33964.65301-.66494 1.01562-1.00586 2.6373-2.47945 5.44091-4.99459 8.33985-7.51563-.005.003-.0105.005-.0156.008 5.16036-4.48792 10.66549-8.99783 16.27149-13.41406.21577-.14664.44219-.2881.65625-.43555.87431-.68682 1.67491-1.40278 2.55273-2.08398 1.42488-1.10573 2.79149-2.22646 4.0918-3.34961 1.30052-1.12312 2.53432-2.24871 3.69727-3.36133.58147-.55631 1.14477-1.10987 1.68945-1.6582 1.08921-1.0969 2.10333-2.17422 3.03515-3.21875.46599-.52214.91185-1.03512 1.33594-1.53906.42409-.50395.82632-.99825 1.20703-1.48047.76142-.96445 1.43411-1.88201 2.01172-2.73828.28881-.42814.55464-.84057.79492-1.23633.48058-.79153.86174-1.51494 1.13868-2.15625.27693-.64131.44963-1.20051.50976-1.66406-.12507-.28794-.24608-.56595-.36328-.83399-.003.005-.009.0122-.0117.0176-.0803-.16966-.16859-.36102-.26953-.58984zm-30.30273 31.48632c-3.61969 3.0098-7.63066 6.4615-11.68946 10.14258-14.42935 7.22722-30.93704 12.27145-46.68164 13.98633-9.90756 1.07912-19.63124.54973-28.29101-1.09961-1.98195-1.58253-3.94653-3.11637-5.91407-4.45508-.40074-.27266-.92144-.59235-1.38476-.88867 9.8028 2.86873 21.89869 4.07551 34.68164 2.69727 18.68366-2.01445 40.98205-9.75617 59.2793-20.38282zm-19.76954 17.77149c-1.6719 1.66232-3.30561 3.34439-4.87109 5.03125-.31348.33778-.60077.67555-.9082 1.01367-10.28897 3.61691-21.01009 6.24923-31.41211 7.375-6.49657.7031-12.79296.80769-18.7168.43945-1.08118-.84327-2.13619-1.65196-3.13867-2.40234-.66488-.49768-1.3122-1.01608-1.9668-1.52734 7.12663.87976 14.80413 1.08538 22.77149.23437 12.62241-1.34822 25.90165-4.96302 38.24218-10.16406zm-10.32031 11.32031c-1.17337 1.45893-2.28019 2.91037-3.28515 4.33789-7.34237 1.81854-14.76438 3.24265-21.99415 4.03516-4.20955.46144-8.29977.67622-12.2832.75195-1.25442-1.08295-2.52954-2.15668-3.82226-3.2168 4.87967.0392 9.96875-.18511 15.20703-.7539 8.57941-.93158 17.47278-2.69772 26.17773-5.1543zm-5.79297 8.19336c-.67627 1.13224-1.27849 2.24257-1.80468 3.32813-5.31615 1.03839-10.63581 1.9106-15.86719 2.49414-2.77697.30976-5.49422.46706-8.16602.53515-.84367-.82897-1.7401-1.67745-2.69726-2.55273 3.1244-.0644 6.30856-.21904 9.60351-.57617 6.23423-.67573 12.59657-1.83488 18.93164-3.22852zm-3.04101 6.21875c-.24582.67624-.446 1.33472-.61524 1.98242-3.92855.6423-7.85212 1.15534-11.72461 1.60742-2.30183.26874-4.53755.39117-6.76562.5-.432-.53185-.91383-1.08836-1.45899-1.67968 2.34228-.0918 4.70377-.22946 7.10743-.50391 4.37747-.49983 8.92232-1.1408 13.45703-1.90625z"/><path class="panties_accent" id="path24736" d="m276.31696 416.3636c-.0557.009-.11076.0206-.16503.0337-1.50488.25942-2.0095 1.38082-1.87734 1.98765.1428.65695.55171.95987 1.09313 1.10128 1.38169.36089 3.45859-.17196 4.39742-.39542-1.81026 1.10214-5.73489 3.83714-6.03909 4.24104-.12318.1635-.43927 1.04298-.65712 1.56302.92822-1.00066 1.94224-1.91921 3.20683-2.59787 1.46719-.8269 3.25269-1.21283 4.50975-1.85366.9258-.58995 1.84229-1.26233 2.25999-1.79511.14918.0546.18477.0764.45035-.0366 1.46807.52388 2.68796.96086 4.42831 1.33817 1.59505.3458 3.44808.94484 5.22049 1.46479l-.51091-1.48139-5.29552-1.56911c.64264-.10895 1.19539.0419 1.9595-.42027 2.30028-1.65172 2.17756-2.36526 1.82333-2.98919-.28899-.47846-1.18429-.48273-1.93848-.32805-.0655-.17668-1.20881-.0826-2.16862.21251-1.6312.50135-2.20012 1.89406-3.21899 2.92635-.45032-.007-.63712.0289-.9547.28172-2.38006-.53049-4.79524-1.97808-6.52333-1.68366zm-.1012.2873c2.10994-.36823 3.0462.88393 4.50199 1.34438-1.48867-.0275-3.36163.8049-4.78198 1.24682-.56853.0434-1.18911.003-1.34495-.9068-.0675-1.18907.7302-1.48669 1.62494-1.6844zm13.01801-1.90243c.9753.0338 1.43613 1.52593 1.21293 1.5141-1.66541.19942-3.31877.7264-4.91071 1.11427 1.28924-.75647 2.3269-1.88767 3.69778-2.62837z"/></g></svg>