<svg viewBox="0 0 560 1e3"><defs/><path class="shadow" d="m361.36325 353.26804c-14.16065 6.56864-31.80167 12.60441-50.74409 17.74911-18.52442 5.03117-37.3393 8.94365-52.2825 10.73144-10.43783 1.24878-18.55084 1.5626-25.45029.42404-6.96163-1.14883-12.49952-3.71809-18.18062-8.34083.0247 2.78451.0926 5.49438.21546 8.2679-.08-1.88888-.10915-4.52566-.11774-8.13139 5.67613 4.62103 11.20321 7.16535 18.14525 8.28829 6.88171 1.11318 14.97358.77428 25.41125-.47447 14.95003-1.78861 33.70211-5.6436 52.16923-10.61921 18.86574-5.083 36.49313-11.07419 50.6651-17.63924.54545 1.10829 1.15114 2.30434 1.84101 3.59699 5.55285 9.56143 8.44157 17.96066 14.02727 25.89159 6.16794 8.7576 11.5475 16.09016 16.1053 25.06085 4.37155 8.6041 7.5886 18.08816 8.89782 29.26979.63635 5.43476-.0994 13.75182-1.13006 22.0692.0972.01.2617.0.2617.0 1.02323-8.33535 1.7526-16.67658 1.1128-22.13145-1.31131-11.1801-4.51227-20.65203-8.85946-29.23943-4.53152-8.95153-9.88631-16.27716-16.04285-25.0308-5.57795-7.93101-8.66573-16.58153-14.20745-26.14472-.68845-1.29287-1.29287-2.48918-1.83713-3.59766zm-146.41099 29.54053c.49279 10.38472 1.55111 18.36009 2.44358 28.10625.89131 9.73355 1.12408 16.77527.83046 25.21248-.25729 7.468-.79402 15.9887-.61469 23.28492.12564.01.34194.0.34194.0-.2346-7.44098.20127-15.67078.45046-23.28384.30073-9.18778-.14445-16.76562-1.00401-25.6565-.80231-8.29879-1.95973-17.47844-2.35307-26.94523-.0339.0321-.0655-.22857-.0947-.71808h4e-5z" id="path14903"/><path class="bottoms_primary" d="m361.1943 353.52368c-14.17197 6.56505-31.79936 12.55624-50.6651 17.63924-18.46712 4.97561-37.2192 8.8306-52.16923 10.61921-10.43767 1.24875-18.52954 1.58765-25.41125.47447-6.94204-1.12294-12.46912-3.66726-18.14525-8.28829.0122 5.11748.0937 9.70064.24346 9.55834.39334 9.46679 1.55076 18.64644 2.35307 26.94523.85956 8.89088 1.30474 16.46872 1.00401 25.6565-.24919 7.61306-.68506 15.84286-.45046 23.28384 61.03742.0105 182.98209-12e-5 182.98209-12e-5 1.03062-8.31738 1.76642-16.63443 1.13006-22.0692-1.30922-11.18163-4.52627-20.66569-8.89782-29.26979-4.5578-8.97069-9.93736-16.30325-16.1053-25.06085-5.5857-7.93093-8.47442-16.33016-14.02727-25.89159-.68987-1.29265-1.29556-2.4887-1.84101-3.59699z" id="path14905"/><g id="g14921"><path class="bottoms_primary_strong_shade" d="m291.23111 448.33238c-1.5029-2.79832-2.76053-6.54752-4.68912-9.59026-7.90867-12.4774-15.28113-22.16773-20.70569-34.13784-4.99392-11.01983-5.7331-19.06862-5.6957-22.98216.0.0-4.21404.91018-4.99927 2.40436-.12869 10.18846 4.185 20.67317 11.23979 31.92225 5.05421 8.05911 16.13683 23.00007 18.60887 26.20477 1.45741 1.88937 3.31966 4.11173 4.44912 5.30974 1.19236 1.26474 2.02314 1.87445 1.792.86914z" id="path14907"/><path class="bottoms_primary" d="m247.33102 382.86589c1.23441 11.4396 5.3947 21.85537 11.77487 33.14944 4.56739 8.08511 14.03814 22.57921 16.48033 26.12222 3.34816 4.85736 9.40456 6.60343 15.50862 6.79908-5.94361-11.0287-16.25915-24.66588-23.07546-36.98546-7.30916-13.21033-9.10173-22.47342-9.39246-28.61197-.39755-.9872-1.35881-1.35873-2.89413-1.19349-2.56651.27546-6.21874.64047-8.40177.72018z" id="path14909"/><path style="baseline-shift:baseline;clip-rule:nonzero;color-interpolation-filters:linearRGB;color-interpolation:sRGB;color-rendering:auto;color:#000;direction:ltr;display:inline;dominant-baseline:auto;enable-background:accumulate;fill-opacity:.586998;fill-rule:nonzero;fill:#4d4d4a;image-rendering:auto;isolation:auto;mix-blend-mode:normal;opacity:1;overflow:visible;shape-padding:0;shape-rendering:auto;solid-color:#000000;solid-opacity:1;stroke-dasharray:none;stroke-dashoffset:0;stroke-linecap:butt;stroke-linejoin:miter;stroke-miterlimit:4;stroke-opacity:1;stroke-width:.453543;stroke:none;vector-effect:none;visibility:visible;white-space:normal;writing-mode:lr-tb" d="m247.56859 382.84351c-.14824.0246-.47551.0433-.47551.0433 1.2433 11.43865 5.40228 21.85249 11.78495 33.15017 4.56335 8.07739 14.05909 22.60988 16.51372 26.17638 1.71598 2.49328 4.11297 4.18729 6.86102 5.27564 2.744 1.08676 5.82833 1.57216 8.8658 1.6697-.004-.13878-.0499-.44563-.0499-.44563-2.99908-.0959-6.03949-.57808-8.70832-1.63038-2.67316-1.05401-4.94723-2.65757-6.57858-5.02071-2.42886-3.51838-11.87663-17.97678-16.44783-26.06889-6.37821-11.29092-10.54-21.70894-11.76533-33.14957l2e-5-4e-5z" id="path14911"/><path style="baseline-shift:baseline;clip-rule:nonzero;color-interpolation-filters:linearRGB;color-interpolation:sRGB;color-rendering:auto;color:#000;direction:ltr;display:inline;dominant-baseline:auto;enable-background:accumulate;fill-opacity:.586998;fill-rule:nonzero;fill:#4d4d4a;image-rendering:auto;isolation:auto;mix-blend-mode:normal;opacity:1;overflow:visible;shape-padding:0;shape-rendering:auto;solid-color:#000000;solid-opacity:1;stroke-dasharray:none;stroke-dashoffset:0;stroke-linecap:butt;stroke-linejoin:miter;stroke-miterlimit:4;stroke-opacity:1;stroke-width:.453543;stroke:none;vector-effect:none;visibility:visible;white-space:normal;writing-mode:lr-tb" d="m247.56859 382.84351c-.14824.0246-.47551.0433-.47551.0433 1.2433 11.43865 5.40228 21.85249 11.78495 33.15017 4.56335 8.07739 14.05909 22.60988 16.51372 26.17638 1.71598 2.49328 4.11297 4.18729 6.86102 5.27564 2.744 1.08676 5.82833 1.57216 8.8658 1.6697-.004-.13878-.0499-.44563-.0499-.44563-2.99908-.0959-6.03949-.57808-8.70832-1.63038-2.67316-1.05401-4.94723-2.65757-6.57858-5.02071-2.42886-3.51838-11.87663-17.97678-16.44783-26.06889-6.37821-11.29092-10.54-21.70894-11.76533-33.14957l2e-5-4e-5z" id="path14913"/><path style="baseline-shift:baseline;clip-rule:nonzero;color-interpolation-filters:linearRGB;color-interpolation:sRGB;color-rendering:auto;color:#000;direction:ltr;display:inline;dominant-baseline:auto;enable-background:accumulate;fill-opacity:.586998;fill-rule:nonzero;fill:#4d4d4a;image-rendering:auto;isolation:auto;mix-blend-mode:normal;opacity:1;overflow:visible;shape-padding:0;shape-rendering:auto;solid-color:#000000;solid-opacity:1;stroke-dasharray:none;stroke-dashoffset:0;stroke-linecap:butt;stroke-linejoin:miter;stroke-miterlimit:4;stroke-opacity:1;stroke-width:.453543;stroke:none;vector-effect:none;visibility:visible;white-space:normal;writing-mode:lr-tb" d="m247.56859 382.84351c-.14824.0246-.47551.0433-.47551.0433 1.2433 11.43865 5.40228 21.85249 11.78495 33.15017 4.56335 8.07739 14.05909 22.60988 16.51372 26.17638 1.71598 2.49328 4.11297 4.18729 6.86102 5.27564 2.744 1.08676 5.82833 1.57216 8.8658 1.6697-.004-.13878-.0499-.44563-.0499-.44563-2.99908-.0959-6.03949-.57808-8.70832-1.63038-2.67316-1.05401-4.94723-2.65757-6.57858-5.02071-2.42886-3.51838-11.87663-17.97678-16.44783-26.06889-6.37821-11.29092-10.54-21.70894-11.76533-33.14957l2e-5-4e-5z" id="path14915"/><path style="baseline-shift:baseline;clip-rule:nonzero;color-interpolation-filters:linearRGB;color-interpolation:sRGB;color-rendering:auto;color:#000;direction:ltr;display:inline;dominant-baseline:auto;enable-background:accumulate;fill-opacity:.586998;fill-rule:nonzero;fill:#4d4d4a;image-rendering:auto;isolation:auto;mix-blend-mode:normal;opacity:1;overflow:visible;shape-padding:0;shape-rendering:auto;solid-color:#000000;solid-opacity:1;stroke-dasharray:none;stroke-dashoffset:0;stroke-linecap:butt;stroke-linejoin:miter;stroke-miterlimit:4;stroke-opacity:1;stroke-width:.453543;stroke:none;vector-effect:none;visibility:visible;white-space:normal;writing-mode:lr-tb" d="m247.56859 382.84351c-.14824.0246-.47551.0433-.47551.0433 1.2433 11.43865 5.40228 21.85249 11.78495 33.15017 4.56335 8.07739 14.05909 22.60988 16.51372 26.17638 1.71598 2.49328 4.11297 4.18729 6.86102 5.27564 2.744 1.08676 5.82833 1.57216 8.8658 1.6697-.004-.13878-.0499-.44563-.0499-.44563-2.99908-.0959-6.03949-.57808-8.70832-1.63038-2.67316-1.05401-4.94723-2.65757-6.57858-5.02071-2.42886-3.51838-11.87663-17.97678-16.44783-26.06889-6.37821-11.29092-10.54-21.70894-11.76533-33.14957l2e-5-4e-5z" id="path14917"/><path class="bottoms_primary_shade" d="m247.56859 382.84351c-.14824.0246-.47551.0433-.47551.0433 1.2433 11.43865 5.40228 21.85249 11.78495 33.15017 4.56335 8.07739 14.05909 22.60988 16.51372 26.17638 1.71598 2.49328 4.11297 4.18729 6.86102 5.27564 2.744 1.08676 5.82833 1.57216 8.8658 1.6697-.004-.13878-.0499-.44563-.0499-.44563-2.99908-.0959-6.03949-.57808-8.70832-1.63038-2.67316-1.05401-4.94723-2.65757-6.57858-5.02071-2.42886-3.51838-11.87663-17.97678-16.44783-26.06889-6.37821-11.29092-10.54-21.70894-11.76533-33.14957l2e-5-4e-5z" id="path14919"/></g><path style="baseline-shift:baseline;clip-rule:nonzero;color-interpolation-filters:linearRGB;color-interpolation:sRGB;color-rendering:auto;color:#000;direction:ltr;display:inline;dominant-baseline:auto;enable-background:accumulate;fill-opacity:.784314;fill-rule:nonzero;fill:#1e1e1e;image-rendering:auto;isolation:auto;mix-blend-mode:normal;opacity:1;overflow:visible;shape-padding:0;shape-rendering:auto;solid-color:#000000;solid-opacity:1;stroke-dasharray:none;stroke-dashoffset:0;stroke-linecap:butt;stroke-linejoin:miter;stroke-miterlimit:4;stroke-opacity:1;stroke-width:.453543;stroke:none;vector-effect:none;visibility:visible;white-space:normal;writing-mode:lr-tb" d="m369.61459 369.82501c-12.12658 7.02579-25.63822 13.21756-42.98549 18.62656-17.50724 5.45888-38.284 9.91158-63.30262 13.61322-10.0371 1.48503-19.64637 2.21398-27.97982 1.01415-7.9517-1.14487-14.5202-3.97807-19.63076-9.57618.0228.18664.0413.52952.0413.52952 5.1469 5.54191 11.75129 8.3496 19.66986 9.48902 8.40482 1.2094 18.05031.47442 28.0986-1.01293 24.98686-3.69855 45.76699-8.16103 63.28061-13.62682 17.36015-5.41789 30.89462-11.61884 43.02642-18.64976 52e-5 97e-5-.21864-.40775-.21811-.40678z" id="path14923"/></svg>