<svg viewBox="0 0 560 1e3"><g data-transform="boob_right" id="g202074"><path d="m214.34559 237.09591c-2.81984 4.38134-1.65567 4.50894-3.093 9.85317 5.40108.0283 7.38202-2.35198 15.80463-3.1076-7.29714 3.53951-13.05889 10.52089-15.08454 11.69364.0.0.67532 7.5517 3.40302 17.48791-4.88244-4.71479-10.9678-13.63055-10.9678-13.63055s-6.51806 4.04917-9.8323 7.73274c.32273-2.30432.30988-2.35622.4751-3.39649 2.13-3.5893 5.29716-7.3143 5.29344-8.96383-.62147-.75266-1.32483-1.7515-1.97461-2.82964.89098-1.86722 2.82742-4.79292 3.98317-5.79138.31956.16553 2.26587.72945 2.61533.92478 5.91857-7.07838 9.37756-9.9728 9.37756-9.9728z" class="areola" id="path202072"/></g><g data-transform="boob_left" id="g202078"><path class="areola" d="m306.58671 253.96632c-6.54097 3.11196-11.88387 9.18736-17.54773 12.83907 2.51666-5.66936 4.87121-13.63582 8.5001-18.81856-4.02418-3.36934-9.0044-5.14935-14.53982-6.40147 6.18905-1.8753 13.53479-3.14631 20.06379-2.17599 2.45834-3.47058 5.00892-4.68564 9.02983-7.65904.8187 3.05137 1.88772 3.95164 4.13931 7.43287 7.65885-.99173 15.2104.5908 23.15089 2.38929-8.23969 1.36568-14.59025 3.10354-20.21595 6.88134 2.36329 5.09396 3.6655 12.98546 5.12885 18.56401-5.20153-4.21434-10.92003-10.20838-17.70927-13.05152z" id="path202076"/></g></svg>