<svg viewBox="0 0 560 1e3"><defs><radialGradient xlink:href="#linearGradient24585" id="radialGradient24587" cx="281.03125" cy="402.75" fx="281.03125" fy="402.75" r="2.78125" gradientUnits="userSpaceOnUse"/><linearGradient id="linearGradient24585"><stop style="stop-color:#787878;stop-opacity:0" offset="0" id="stop24581"/><stop style="stop-color:#b4b4b4;stop-opacity:.71157163" offset="1" id="stop24583"/></linearGradient></defs><g id="g26982"><path id="path26777" d="m363.83008 356.99414c-21.7501 20.1546-51.47119 33.24913-84.47656 36.91016-6.88938.80485-15.04255 1.06555-23.43555-.33399-8.96885-1.49556-17.78346-5.33228-22.32813-11.74414-3.11078 18.46876-7.44244 35.79424-11.52734 53.91406-1.8155 8.05319-2.97188 15.98397-3.76562 23.67188h183.17968c1.14934-8.33295 2.0218-16.71532 1.36524-22.15625-2.71181-22.47351-13.87899-37.57518-24.85352-54.48047-5.14872-7.93116-8.16164-16.40033-14.1582-25.78125z" class="shadow"/><path id="path26779" d="m363.80664 357.2832c-21.7501 20.1546-51.44775 33.14757-84.45312 36.8086-33.8979 3.76003-44.0774-9.97132-45.68164-11.93164-3.11079 18.46876-7.43854 35.46807-11.52344 53.58789-1.81518 8.05176-2.9643 15.97936-3.75196 23.66406h182.29688c1.14232-8.30356 2.00774-16.6468 1.35352-22.06836-2.71182-22.47351-13.45907-37.47557-24.4336-54.38086-5.14872-7.93116-7.81008-16.29877-13.80664-25.67969z" class="bottoms_primary"/><path id="path26781" d="m364.63703 358.47352c-21.92593 20.31863-51.86341 33.41569-85.13561 37.10652-34.17194 3.79063-44.43338-10.05271-46.05059-12.02898" style="display:inline;fill-opacity:.821306;fill:none;opacity:1;stroke-dasharray:none;stroke-dashoffset:0;stroke-linecap:butt;stroke-linejoin:miter;stroke-miterlimit:4;stroke-opacity:.496564;stroke-width:.453543;stroke:#000;vector-effect:none"/><path style="display:inline;fill-opacity:.821306;fill:none;opacity:1;stroke-dasharray:none;stroke-dashoffset:0;stroke-linecap:butt;stroke-linejoin:miter;stroke-miterlimit:4;stroke-opacity:.588235;stroke-width:.453543;stroke:#fff;vector-effect:none" d="m285.87478 393.49506c-2.02797.29912-4.06976.56288-6.12426.79079-34.17194 3.79063-44.39186-9.73441-46.00907-11.71068" id="path26785"/><path style="display:inline;fill-opacity:.821306;fill:none;opacity:1;stroke-dasharray:none;stroke-dashoffset:0;stroke-linecap:butt;stroke-linejoin:miter;stroke-miterlimit:4;stroke-opacity:.588235;stroke-width:.453543;stroke:#fff;vector-effect:none" d="m363.91288 357.55365c-20.06145 18.59082-46.9277 30.94033-76.82073 35.76654-4.32471.92307-8.02144 1.56858-12.21471 2.19437.6532 5.24839 1.64992 10.70288 3.04113 16.39408 36.95218-4.26562 68.72772-16.74246 93.57734-40.20523" id="path26787"/><path style="display:inline;fill-opacity:.821306;fill:none;opacity:1;stroke-dasharray:none;stroke-dashoffset:0;stroke-linecap:butt;stroke-linejoin:miter;stroke-miterlimit:4;stroke-opacity:.496564;stroke-width:.453543;stroke:#000;vector-effect:none" d="m371.22641 371.171c-23.50841 21.79504-55.60639 35.84572-91.28022 39.80277-.31005.0344-1.26177.15741-1.56813.18916-.25663-.47456-2.81344-14.86778-2.77713-15.25483" id="path26789"/><path id="path26791" d="m277.53672 411.32113c-34.17194 3.79063-45.45056-10.47481-47.06777-12.45108" style="display:inline;fill-opacity:.821306;fill:none;opacity:1;stroke-dasharray:none;stroke-dashoffset:0;stroke-linecap:butt;stroke-linejoin:miter;stroke-miterlimit:4;stroke-opacity:.588235;stroke-width:.453543;stroke:#fff;vector-effect:none"/><path id="path26793" d="m277.30288 410.48247c-34.16257 4.01555-43.79887-10.1166-46.53523-12.21601" style="display:inline;fill-opacity:.821306;fill:none;opacity:1;stroke-dasharray:none;stroke-dashoffset:0;stroke-linecap:butt;stroke-linejoin:miter;stroke-miterlimit:4;stroke-opacity:.496564;stroke-width:.453543;stroke:#000;vector-effect:none"/><path style="fill-opacity:.441581;fill:#000;opacity:1;stroke-dasharray:none;stroke-dashoffset:0;stroke-linecap:butt;stroke-linejoin:miter;stroke-miterlimit:4;stroke-opacity:1;stroke-width:.453543;stroke:none;vector-effect:none" d="m281.09375 402.0625h7l-6.90625 1.5z" id="path26795"/><path id="circle26797" d="m283.8125 402.75a2.78125 2.78125.0 01-2.78125 2.78125A2.78125 2.78125.0 01278.25 402.75a2.78125 2.78125.0 012.78125-2.78125 2.78125 2.78125.0 012.78125 2.78125z" style="fill-opacity:1;fill:#787878;opacity:1;stroke-dasharray:none;stroke-linejoin:miter;stroke-miterlimit:4;stroke-opacity:1;stroke-width:.453543;stroke:none"/><path id="circle26799" d="m283.8125 402.75a2.78125 2.78125.0 01-2.78125 2.78125A2.78125 2.78125.0 01278.25 402.75a2.78125 2.78125.0 012.78125-2.78125 2.78125 2.78125.0 012.78125 2.78125z" style="fill-opacity:1;fill:url(#radialGradient24587);opacity:1;stroke-dasharray:none;stroke-linejoin:miter;stroke-miterlimit:4;stroke-opacity:1;stroke-width:.453543;stroke:none"/><path style="fill-opacity:1;fill:none;opacity:1;stroke-dasharray:none;stroke-dashoffset:0;stroke-linecap:butt;stroke-linejoin:miter;stroke-miterlimit:4;stroke-opacity:.498039;stroke-width:.453543;stroke:#000;vector-effect:none" d="m277.59465 412.02966c2.66093 16.48526 3.00597 35.78866 9.68103 47.38925" id="path26801"/><path id="path26805" d="m278.16917 412.09596c2.95956 16.86399 3.57311 35.89977 10.22686 47.32567" style="fill-opacity:1;fill:none;opacity:1;stroke-dasharray:none;stroke-dashoffset:0;stroke-linecap:butt;stroke-linejoin:miter;stroke-miterlimit:4;stroke-opacity:.588235;stroke-width:.453543;stroke:#fff;vector-effect:none"/><path style="fill-opacity:1;fill:none;opacity:1;stroke-dasharray:none;stroke-dashoffset:0;stroke-linecap:butt;stroke-linejoin:miter;stroke-miterlimit:4;stroke-opacity:.588235;stroke-width:.453543;stroke:#fff;vector-effect:none" d="m287.17187 410.89063c1.14247 15.2394 8.88028 41.10535-.57265 44.2836" id="path26809"/><path id="path26811" d="m288.09443 410.747c.83596 11.15084 4.95102 28.03352 3.78746 37.58792-.4295 3.52681-2.32719 6.84821-4.91807 7.679" style="fill-opacity:1;fill:none;opacity:1;stroke-dasharray:none;stroke-dashoffset:0;stroke-linecap:butt;stroke-linejoin:miter;stroke-miterlimit:4;stroke-opacity:.588235;stroke-width:.453543;stroke:#fff;vector-effect:none"/><path style="fill-opacity:1;fill:none;opacity:1;stroke-dasharray:none;stroke-dashoffset:0;stroke-linecap:butt;stroke-linejoin:miter;stroke-miterlimit:4;stroke-opacity:.498039;stroke-width:.453543;stroke:#000;vector-effect:none" d="m367.75 375.59375c16.52118 33.69375 23.13503 60.1027 26.08937 83.82083" id="path26813"/><path id="path26815" d="m368.14844 375.09375c17.20729 35.89081 23.41016 60.85468 26.2642 84.31513" style="fill-opacity:1;fill:none;opacity:1;stroke-dasharray:none;stroke-dashoffset:0;stroke-linecap:butt;stroke-linejoin:miter;stroke-miterlimit:4;stroke-opacity:.588235;stroke-width:.453543;stroke:#fff;vector-effect:none"/><path style="fill-opacity:1;fill:none;opacity:1;stroke-dasharray:none;stroke-dashoffset:0;stroke-linecap:butt;stroke-linejoin:miter;stroke-miterlimit:4;stroke-opacity:.498039;stroke-width:.453543;stroke:#000;vector-effect:none" d="m380.48082 405.77027c-22.4408 8.68871-46.51887 22.05476-52.06364-5.80529 15.91818-6.68852 28.20458-14.30518 39.16786-24.05301" id="path26817"/><path id="path26819" d="m380.69176 406.31714c-22.45946 8.93126-47.45377 22.23192-52.93864-6.40685" style="fill-opacity:1;fill:none;opacity:1;stroke-dasharray:none;stroke-dashoffset:0;stroke-linecap:butt;stroke-linejoin:miter;stroke-miterlimit:4;stroke-opacity:.588235;stroke-width:.453543;stroke:#fff;vector-effect:none"/><path style="fill-opacity:1;fill:none;opacity:1;stroke-dasharray:none;stroke-dashoffset:0;stroke-linecap:butt;stroke-linejoin:miter;stroke-miterlimit:4;stroke-opacity:.588235;stroke-width:.453543;stroke:#fff;vector-effect:none" d="m381.03155 407.23476c-22.38583 9.27488-48.53164 22.44284-54.18468-6.98072" id="path26821"/><path style="fill-opacity:1;fill:none;opacity:1;stroke-dasharray:none;stroke-dashoffset:0;stroke-linecap:butt;stroke-linejoin:miter;stroke-miterlimit:4;stroke-opacity:.498039;stroke-width:.453543;stroke:#000;vector-effect:none" d="m243.30936 408.19064c-2.73764 9.51142-5.35161 21.93068-18.29373 15.19998" id="path26823"/><path id="path26825" d="m244.01248 408.47189c-2.59575 9.63912-5.94457 22.54546-19.1531 15.57498" style="fill-opacity:1;fill:none;opacity:1;stroke-dasharray:none;stroke-dashoffset:0;stroke-linecap:butt;stroke-linejoin:miter;stroke-miterlimit:4;stroke-opacity:.588235;stroke-width:.453543;stroke:#fff;vector-effect:none"/><path style="fill-opacity:1;fill:none;opacity:1;stroke-dasharray:none;stroke-dashoffset:0;stroke-linecap:butt;stroke-linejoin:miter;stroke-miterlimit:4;stroke-opacity:.588235;stroke-width:.453543;stroke:#fff;vector-effect:none" d="m244.9031 408.78439c-2.30923 9.73463-6.59879 23.30655-20.26247 16.18435" id="path26827"/><path style="fill-opacity:1;fill:none;opacity:1;stroke-dasharray:none;stroke-dashoffset:0;stroke-linecap:butt;stroke-linejoin:miter;stroke-miterlimit:4;stroke-opacity:.498039;stroke-width:.453543;stroke:#000;vector-effect:none" d="m232.09675 425.04485c1.25671-4.06896 2.7171-7.83444 4.56305-12.07606-3.92608-.72293-6.24559-2.48778-8.05873-4.9715" id="path26831"/><path id="path26833" d="m231.35649 425.06142c1.25671-4.06896 2.61767-7.45326 4.46362-11.69488-3.48189-.76014-5.02399-1.93863-7.32436-4.54963" style="fill-opacity:1;fill:none;opacity:1;stroke-dasharray:none;stroke-dashoffset:0;stroke-linecap:butt;stroke-linejoin:miter;stroke-miterlimit:4;stroke-opacity:.588235;stroke-width:.453543;stroke:#fff;vector-effect:none"/><path style="fill-opacity:1;fill:none;opacity:1;stroke-dasharray:none;stroke-dashoffset:0;stroke-linecap:butt;stroke-linejoin:miter;stroke-miterlimit:4;stroke-opacity:.588235;stroke-width:.453543;stroke:#fff;vector-effect:none" d="m235.18926 414.3094c-3.48189-.76014-4.74778-1.7729-7.04815-4.3839" id="path26835"/><g style="display:inline" id="g26885"><path d="m311.29932 387.80107 2.41114-.79376c2.35529 7.72385 3.33123 15.32052 4.20728 23.37309l-2.5688.72832c-.45637-8.23645-1.75995-15.73785-4.04962-23.30765z" id="path26879" class="bottoms_primary"/><path id="path26881" d="m310.9404 388.14153c2.99622 9.74006 3.91517 20.85059 3.92215 22.88784-.59373-8.55094-2.61787-15.53224-3.92215-22.88784z" style="fill-opacity:.498039;fill:#000;opacity:1;stroke-dasharray:none;stroke-linejoin:miter;stroke-miterlimit:4;stroke-opacity:.588235;stroke-width:.453543;stroke:none"/><path id="path26883" d="m313.88724 386.75872c2.35529 7.72385 3.40836 15.73708 4.28441 23.78965l-3.03365.86113c-.45637-8.23645-1.80313-16.14912-4.0928-23.71892" style="fill-opacity:.819608;fill:none;opacity:1;stroke-dasharray:none;stroke-linejoin:miter;stroke-miterlimit:4;stroke-opacity:.588235;stroke-width:.453543;stroke:#fff"/></g><g style="display:inline" transform="matrix(-0.99357915,0.11313916,0.11313916,0.99357915,520.61822,-26.479592)" id="g26893"><path id="path26887" d="m311.31394 387.80454 2.41967-.78369c2.35529 7.72385 3.32056 15.30784 4.19661 23.36041l-2.57161.71956c-.45637-8.23645-1.755-15.72648-4.04467-23.29628z" class="bottoms_primary"/><path style="fill-opacity:.498039;fill:#000;opacity:1;stroke-dasharray:none;stroke-linejoin:miter;stroke-miterlimit:4;stroke-opacity:.588235;stroke-width:.453543;stroke:none" d="m310.9404 388.14153c2.99622 9.74006 3.80681 19.79315 3.92215 22.88784-.59373-8.55094-2.61787-15.53224-3.92215-22.88784z" id="path26889"/><path style="fill-opacity:.819608;fill:none;opacity:1;stroke-dasharray:none;stroke-linejoin:miter;stroke-miterlimit:4;stroke-opacity:.588235;stroke-width:.453543;stroke:#fff" d="m313.92982 386.93735c2.35529 7.72385 3.40836 15.73708 4.28441 23.78965l-3.02267.85988c-.45637-8.23645-1.80313-16.14912-4.0928-23.71892" id="path26891"/></g><g style="display:inline;stroke-width:1.09336" transform="matrix(0.88304795,-0.2303426,0.23135947,0.88694624,-7.2906805,91.050608)" id="g26901"><path id="path26895" d="m311.38875 387.97911 2.28008-1.05466c2.35529 7.72385 3.25572 15.10128 4.13177 23.15385l-2.43417.96076c-.45637-8.23645-1.68801-15.49015-3.97768-23.05995z" class="bottoms_primary"/><path style="fill-opacity:.498039;fill:#000;opacity:1;stroke-dasharray:none;stroke-linejoin:miter;stroke-miterlimit:4;stroke-opacity:.588235;stroke-width:.495888;stroke:none" d="m310.9404 388.14153c2.99622 9.74006 3.95649 21.68083 3.92215 22.88784-.59373-8.55094-2.61787-15.53224-3.92215-22.88784z" id="path26897"/><path style="fill-opacity:.819608;fill:none;opacity:1;stroke-dasharray:none;stroke-linejoin:miter;stroke-miterlimit:4;stroke-opacity:.588235;stroke-width:.495888;stroke:#fff" d="m313.89014 386.81999c2.35529 7.72385 3.3204 15.37967 4.19645 23.43224l-2.94859 1.15727c-.45637-8.23645-1.6982-15.78553-3.98787-23.35533" id="path26899"/></g></g></svg>