<svg viewBox="0 0 560 1e3"><ellipse id="ellipse9-4" ry="2.1000855" rx="11.400464" cy="541.96863" cx="235.52405" transform="rotate(-0.51731229)"/><ellipse id="ellipse11-05" ry="1.9000775" rx="11.200457" cy="542.46442" cx="235.01974" class="steel_chastity" transform="rotate(-0.51731229)"/><ellipse transform="rotate(-17.980187)" cx="115.03899" cy="516.97107" rx="1.7000656" ry="14.700566" id="ellipse17-69"/><ellipse transform="rotate(-17.980187)" class="steel_chastity" cx="114.71255" cy="516.34155" rx="1.6000618" ry="14.700566" id="ellipse19-22"/><ellipse transform="rotate(-26.992949)" cx="23.069269" cy="527.79224" rx="2.1000886" ry="16.900713" id="ellipse23-7"/><ellipse transform="rotate(-26.992949)" class="steel_chastity" cx="22.687128" cy="527.2511" rx="1.9000802" ry="16.700706" id="ellipse25-54"/><ellipse transform="rotate(-54.237185)" cx="-241.71759" cy="476.30286" rx="2.0998878" ry="17.699057" id="ellipse29-12"/><ellipse transform="rotate(-54.237185)" class="steel_chastity" cx="-242.1998" cy="475.69751" rx="1.8998986" ry="17.499067" id="ellipse31-8"/><ellipse transform="rotate(-80.822144)" cx="-452.28793" cy="315.5076" rx="2.1000042" ry="16.900034" id="ellipse35-6"/><ellipse transform="rotate(-80.822144)" class="steel_chastity" cx="-452.80457" cy="314.9664" rx="1.9000039" ry="16.700035" id="ellipse37-80"/><ellipse transform="rotate(-0.44003305)" cx="235.55316" cy="528.23846" rx="2.1000619" ry="15.500457" id="ellipse41-51"/><ellipse transform="rotate(-0.44003305)" class="steel_chastity" cx="235.05798" cy="527.53479" rx="1.900056" ry="15.300451" id="ellipse43-10"/><path id="path49-0" d="m256.88999 525.89899c-.8 8.5-5.1 15-6 14.7-.9-.2 1.6-6.8 2.2-15.2.8-8.4-.6-15 .6-14.9 1 .1 4 6.9 3.2 15.4z"/><path id="path51-6" d="m256.48999 525.29899c-.6 8.5-4.7 14.9-5.5 14.7-.9-.2 1.6-6.6 2.1-15 .6-8.4-.8-14.9.3-14.7.7-.2 3.7 6.6 3.1 15z" class="steel_chastity"/><path id="path57-2" d="m226.58999 526.19899c.6 8.1 3 14.2 2.1 15.2-.8.9-5.4-4.9-6.2-14.9-.8-9.8 2.8-17.7 3.8-16.9.9.8-.5 8.5.3 16.6z"/><path id="path59-58" d="m227.08999 526.19899c.6 7.9 2.8 13.7 2.1 14.7-.7 1-5.1-4.9-5.8-14.2-.8-9.5 2.7-17.1 3.5-16.3.8.5-.6 7.9.2 15.8z" class="steel_chastity"/><ellipse transform="rotate(-12.809092)" cx="170.42334" cy="503.39645" rx="1.3999796" ry="13.599803" id="ellipse63-847"/><ellipse transform="rotate(-12.809092)" class="steel_chastity" cx="170.20547" cy="502.93967" rx="1.299981" ry="13.399805" id="ellipse65-2"/><ellipse transform="rotate(-0.51731)" cx="234.55676" cy="527.25861" rx="15.20062" ry="2.1000855" id="ellipse69-6"/><ellipse transform="rotate(-0.51731)" class="steel_chastity" cx="233.85391" cy="527.55292" rx="15.000611" ry="1.9000775" id="ellipse71-2"/><ellipse transform="rotate(-41.042549)" cx="-115.63295" cy="517.47675" rx="2.0999382" ry="17.499485" id="ellipse75-9"/><ellipse transform="rotate(-41.042549)" class="steel_chastity" cx="-116.05816" cy="516.92462" rx="1.8999441" ry="17.399488" id="ellipse77-0"/><ellipse transform="rotate(-68.216677)" cx="-360.61716" cy="404.87231" rx="2.1000137" ry="17.700117" id="ellipse81-3"/><ellipse transform="rotate(-68.216677)" class="steel_chastity" cx="-360.99899" cy="404.15442" rx="1.9000125" ry="17.500114" id="ellipse83-11"/><path id="path85-0" d="m283.78999 451.29899c.2.3-9.3 2.5-20.5 10-3.9 2.7-8.4 5.5-12.6 10.9-5.5 7-7.6 13.6-8.2 15.3-1.4 4.6-1.9 9.3-2.2 12.6-.3 3.6-.6 9.2-.8 9.2v-.2.0l.5.2c0 .2-.6.3-.9.2-.6-.3-.6-1.3-.8-1.6-.5-4.7-.3-6.5-.3-6.5-.5-2.7.0-5.1.9-10 .5-2.4 1.3-6.6 3.5-11.7 1.3-3 3.3-7 6.8-11.2 3.2-2.8 8.2-6.8 14.7-10.3 10.4-5.3 19.7-7.2 19.9-6.9z"/><path id="path87-3" d="m283.98999 451.29899c.2.3-6.3 1.7-14.9 6-1.1.5-2.2 1.1-3.6 1.9-3.8 2.1-12.3 7-18.2 16.6-.3.3-1.1 1.7-2.1 3.6-8.1 16.3-4.7 32.5-6.2 32.7-.5.0-.9-1.4-1.1-2.4-.6-2.5-2.7-10.4 2.4-25.3.9-2.7 2.4-6.3 4.6-10.4 2.5-3.6 4.9-6.5 6.8-8.2.2-.2.2-.2.3-.3 9.5-9.3 25.3-13.1 25.3-13.1 3.5-.9 6.7-1.4 6.7-1.1z" class="steel_chastity"/><ellipse transform="rotate(-87.809822)" cx="-500.91162" cy="259.28619" rx="2.100064" ry="16.000488" id="ellipse91-0"/><ellipse transform="rotate(-87.809822)" class="steel_chastity" cx="-501.42453" cy="258.74768" rx="1.900058" ry="15.800483" id="ellipse93-39"/><ellipse transform="rotate(-1.8914744)" cx="270.36884" cy="460.1936" rx="1.4000628" ry="12.600566" id="ellipse97-9"/><ellipse transform="rotate(-1.8914744)" class="steel_chastity" cx="270.08469" cy="459.78339" rx="1.3000582" ry="12.500561" id="ellipse99-6"/></svg>