<svg viewBox="0 0 560 1e3"><defs/><path d="m361.85547 353.51172c-24.20259 12.69722-55.97323 23.7485-83.02344 27.04687-18.6283 2.27144-31.81641 1.01397-44.2207-7.96679-.32096 2.68604-.69454 5.39434-1.10742 8.11132.25897-1.67569.78473-4.65765 1.20703-7.97851 12.40429 8.98076 25.51428 10.13863 44.14258 7.86719 27.05021-3.29837 58.67436-14.13286 82.87695-26.83008.63652 1.08614 1.31873 2.24977 2.07617 3.52148 5.99656 9.38092 8.65792 17.74853 13.80664 25.67969 10.97453 16.90529 21.72178 31.90735 24.4336 54.38086.65421 5.42156-.098 13.76479-1.11133 22.06836h.26172c1.00794-8.32019 1.75605-16.69079 1.09961-22.13086-2.71182-22.47351-13.39657-37.41307-24.3711-54.31836-5.14872-7.93116-7.99758-16.54877-13.99414-25.92969-.75744-1.27171-1.43965-2.43534-2.07617-3.52148zM233.39453 381.4043c-2.94416 19.06218-7.86547 38.54133-11.43359 54.34375-1.81518 8.05178-3.25812 15.97934-4.3418 23.66406h.3418c1.00636-7.68471 2.37232-15.61229 4.1875-23.66406 4.0849-18.11982 7.97906-34.41406 11.21484-53.63282-.0529.0323-.0356-.2267.0312-.71093z" id="path34548" class="shadow"/><path d="m361.73047 353.76172c-24.20259 12.69722-55.82674 23.53171-82.87695 26.83008-18.6283 2.27144-31.73829 1.11357-44.14258-7.86719-.63493 4.993-1.55918 9.51997-1.34766 9.39062-3.23578 19.21876-7.12994 35.513-11.21484 53.63282-1.81518 8.05177-3.18114 15.97935-4.1875 23.66406h182.97461c1.0133-8.30357 1.76555-16.6468 1.11133-22.06836-2.71182-22.47351-13.45907-37.47557-24.4336-54.38086-5.14872-7.93116-7.81008-16.29877-13.80664-25.67969-.75744-1.27171-1.43965-2.43534-2.07617-3.52148z" id="path34550" class="bottoms_primary"/><path d="m291.37738 448.20487c-1.03805-2.84839-1.30527-6.67847-2.1819-9.797-6.4188-22.83414-8.65149-51.08106-8.75943-57.95735.0.0-3.73712.84577-4.48597 2.32498-.57959 18.91056 5.28456 47.25145 10.69997 59.11657 1.85539 4.06515 4.86014 8.29916 4.72733 6.3128z" id="path34552" class="bottoms_primary_strong_shade"/><path class="bottoms_primary" id="path34554" d="m268.72006 381.56713c1.81236 21.17113 4.26799 47.89139 8.77164 60.2892 1.80681 4.97386 7.73835 6.75859 13.65923 6.96282-8.52366-22.44057-11.63541-56.41107-12.04596-66.69089-.35308-.97749-1.22698-1.35054-2.60949-1.20184-2.32095.2489-5.68596.57807-7.77542.64071z"/><path class="bottoms_primary_shade" id="path34556" d="m268.94531 381.54688-.45117.0391c1.81246 21.17232 4.25484 47.87643 8.78516 60.34765.92762 2.5536 2.91859 4.28962 5.40625 5.40039 2.48766 1.11078 5.47645 1.60813 8.45703 1.71094l.0156-.45312c-2.9403-.10142-5.87707-.59577-8.28711-1.67188-2.41003-1.07611-4.28683-2.72036-5.16601-5.14062-4.47698-12.3244-6.94751-39.06248-8.75977-60.23242z"/><path d="m268.94531 381.54688-.45117.0391c1.81246 21.17232 4.25484 47.87643 8.78516 60.34765.92762 2.5536 2.91859 4.28962 5.40625 5.40039 2.48766 1.11078 5.47645 1.60813 8.45703 1.71094l.0156-.45312c-2.9403-.10142-5.87707-.59577-8.28711-1.67188-2.41003-1.07611-4.28683-2.72036-5.16601-5.14062-4.47698-12.3244-6.94751-39.06248-8.75977-60.23242z" id="path34558" class="bottoms_primary_shade"/><path class="bottoms_primary_shade" id="path34560" d="m268.94531 381.54688-.45117.0391c1.81246 21.17232 4.25484 47.87643 8.78516 60.34765.92762 2.5536 2.91859 4.28962 5.40625 5.40039 2.48766 1.11078 5.47645 1.60813 8.45703 1.71094l.0156-.45312c-2.9403-.10142-5.87707-.59577-8.28711-1.67188-2.41003-1.07611-4.28683-2.72036-5.16601-5.14062-4.47698-12.3244-6.94751-39.06248-8.75977-60.23242z"/><path d="m268.94531 381.54688-.45117.0391c1.81246 21.17232 4.25484 47.87643 8.78516 60.34765.92762 2.5536 2.91859 4.28962 5.40625 5.40039 2.48766 1.11078 5.47645 1.60813 8.45703 1.71094l.0156-.45312c-2.9403-.10142-5.87707-.59577-8.28711-1.67188-2.41003-1.07611-4.28683-2.72036-5.16601-5.14062-4.47698-12.3244-6.94751-39.06248-8.75977-60.23242z" id="path34562" class="bottoms_primary_shade"/><path class="bottoms_primary_shade" id="path34564" d="m268.94531 381.54688-.45117.0391c1.81246 21.17232 4.25484 47.87643 8.78516 60.34765.92762 2.5536 2.91859 4.28962 5.40625 5.40039 2.48766 1.11078 5.47645 1.60813 8.45703 1.71094l.0156-.45312c-2.9403-.10142-5.87707-.59577-8.28711-1.67188-2.41003-1.07611-4.28683-2.72036-5.16601-5.14062-4.47698-12.3244-6.94751-39.06248-8.75977-60.23242z"/><path id="path34568" d="m370.59635 369.82451c-20.96075 13.78362-43.15004 24.14531-89.74869 31.03487-9.54894 1.41179-19.28991 2.09839-28.04297.86523-8.28028-1.16655-15.66919-4.04576-21.20652-9.64167l-.10807.53338c5.59896 5.54203 13.01167 8.39657 21.25209 9.55751 8.82202 1.24288 18.59986.54997 28.17187-.86524 46.61616-6.89214 68.90878-17.28575 89.89447-31.08033z" style="baseline-shift:baseline;clip-rule:nonzero;color-interpolation-filters:linearRGB;color-interpolation:sRGB;color-rendering:auto;color:#000;direction:ltr;display:inline;dominant-baseline:auto;enable-background:accumulate;fill-opacity:.784314;fill-rule:nonzero;fill:#1e1e1e;image-rendering:auto;isolation:auto;mix-blend-mode:normal;opacity:1;overflow:visible;shape-padding:0;shape-rendering:auto;solid-color:#000000;solid-opacity:1;stroke-dasharray:none;stroke-dashoffset:0;stroke-linecap:butt;stroke-linejoin:miter;stroke-miterlimit:4;stroke-opacity:1;stroke-width:.453543;stroke:none;vector-effect:none;visibility:visible;white-space:normal;writing-mode:lr-tb"/></svg>