<svg viewBox="0 0 560 1e3"><g id="g231426" data-transform="boob_left"><path d="m311.01742 239.46694c0 .92944-1.04186 1.96615-1.96615 1.96615-.9243.0-1.96616-1.03671-1.96616-1.96615.0-.92943 1.04186-1.96616 1.96616-1.96616.92429.0 1.96615 1.03673 1.96615 1.96616z" id="path231418" class="shadow"/><path class="steel_piercing" id="path231420" d="m310.83868 239.46694c0 .84494-.94715 1.78741-1.78741 1.78741-.84027.0-1.78742-.94247-1.78742-1.78741.0-.84495.94715-1.78742 1.78742-1.78742.84026.0 1.78741.94247 1.78741 1.78742z"/><path d="m317.19196 228.09426c-.80493.46471-2.22367.0807-2.68582-.71967-.46215-.80047-.0853-2.22109.71966-2.68582.80492-.46472 2.22367-.0808 2.68582.71967.46215.80047.0853 2.2211-.71966 2.68582z" id="path231422" class="shadow"/><path class="steel_piercing" id="path231424" d="m317.10259 227.93946c-.73175.42246-2.02152.0735-2.44166-.65424-.42012-.7277-.0776-2.01917.65424-2.44165.73175-.42247 2.02151-.0735 2.44165.65424.42013.72769.0776 2.01917-.65423 2.44165z"/></g><g id="g231436" data-transform="boob_right"><path d="m227.78496 231.51986c0 .92944-1.04186 1.96615-1.96616 1.96615-.92428.0-1.96615-1.03671-1.96615-1.96615s1.04187-1.96616 1.96615-1.96616c.9243.0 1.96616 1.03672 1.96616 1.96616z" id="path231428" class="shadow"/><path d="m226.43388 243.78138c0 .92943-1.04185 1.96615-1.96615 1.96615-.92428.0-1.96615-1.03672-1.96615-1.96615.0-.92944 1.04187-1.96615 1.96615-1.96615.9243.0 1.96615 1.03671 1.96615 1.96615z" id="path231430" class="shadow"/><path class="steel_piercing" id="path231432" d="m227.60621 231.51986c0 .84494-.94714 1.78741-1.78741 1.78741-.84025.0-1.78741-.94247-1.78741-1.78741.0-.84495.94716-1.78741 1.78741-1.78741.84027.0 1.78741.94246 1.78741 1.78741z"/><path class="steel_piercing" id="path231434" d="m226.25514 243.78138c0 .84493-.94714 1.78741-1.78741 1.78741-.84026.0-1.78741-.94248-1.78741-1.78741.0-.84495.94715-1.78741 1.78741-1.78741.84027.0 1.78741.94246 1.78741 1.78741z"/></g></svg>