<svg viewBox="0 0 560 1e3"><defs><filter style="color-interpolation-filters:sRGB" id="filter66261"><feGaussianBlur stdDeviation="4 2" result="blur" id="feGaussianBlur66259"/></filter><clipPath clipPathUnits="userSpaceOnUse" id="clipPath55825"><path style="fill-opacity:.5;fill:#00fffc" id="path55827" d="m367.94196 366.2397c-5.52722 2.94912-11.07133 5.89887-16.7486 8.69389-3.69689 1.82006-7.42678 3.59249-11.19336 5.29688s-7.56982 3.34058-11.41211 4.88867c-3.84228 1.54809-7.72444 3.00823-11.64844 4.35938-3.92399 1.35114-7.88868 2.59346-11.90039 3.70703-4.0117 1.11357-8.07036 2.09823-12.17578 2.93359s-8.25774 1.5206-12.46289 2.03711c-2.29034.28132-4.59286.4696-6.91016.57227-2.3173.10266-4.64928.12058-7 .0645-4.70142-.11226-9.47777-.52208-14.35156-1.15039s-9.84559-1.47542-14.94336-2.46094c-1.90583-.36844-3.12959-.56218-5.07169-.9653-.68325 3.47529-1.74179 9.62231-2.24338 13.10755-1.5188 10.55317 11.04341 20.83282 14.27015 23.22103 26.6341 16.23108 39.85585 33.55329 57.14085 41.38005 15.50435-38.70264 74.78486-77.77242 77.87868-81.1652-1.86646-3.63056-4.34744-9.84488-6.67708-15.54686z"/></clipPath></defs><path id="path34862" d="m368.02148 366.0957c-5.48094 3.15774-11.19096 6.04727-16.91992 8.88086.0303-.0149.0615-.0281.0918-.043 5.67727-2.79502 11.22083-5.74424 16.74805-8.69336l4.55078 8.97266c.18237.44638.33957.76562.52343 1.2168-1.48555-3.45297-3.07705-6.78248-4.99414-10.33399zm-138.14843 41.56836c.004-.0295-.002-.0584.002-.0879-.001.0161-.0145.0743-.0156.0899zm1.81836-10.92578c.15258-.82834.3002-1.85293.43164-2.52148 1.9421.40312 3.16643.5964 5.07226.96484 5.09777.98552 10.06957 1.83263 14.94336 2.46094s9.65014 1.03813 14.35156 1.15039c2.35072.0561 4.6827.0382 7-.0645 2.3173-.10267 4.61982-.29095 6.91016-.57227 4.20515-.51651 8.35747-1.20175 12.46289-2.03711 4.10542-.83536 8.16408-1.82002 12.17578-2.93359 4.01171-1.11357 7.9764-2.35589 11.90039-3.70703 3.924-1.35115 7.80616-2.81129 11.64844-4.35938 1.1969-.48224 2.3653-1.0247 3.55469-1.52344-17.11269 6.91753-34.69081 11.98187-51.74219 14.06055-16.62321 2.02649-32.68452-.54483-48.2207-3.82813-.12222.45134-.30071 1.95653-.48828 2.91016z" class="shadow"/><path d="m367.94196 366.2397c-5.52722 2.94912-11.07133 5.89887-16.7486 8.69389-3.69689 1.82006-7.42678 3.59249-11.19336 5.29688s-7.56982 3.34058-11.41211 4.88867c-3.84228 1.54809-7.72444 3.00823-11.64844 4.35938-3.92399 1.35114-7.88868 2.59346-11.90039 3.70703-4.0117 1.11357-8.07036 2.09823-12.17578 2.93359s-8.25774 1.5206-12.46289 2.03711c-2.29034.28132-4.59286.4696-6.91016.57227-2.3173.10266-4.64928.12058-7 .0645-4.70142-.11226-9.47777-.52208-14.35156-1.15039s-9.84559-1.47542-14.94336-2.46094c-1.90583-.36844-3.12959-.56218-5.07169-.9653-.68325 3.47529-1.74179 9.62231-2.24338 13.10755-1.5188 10.55317 7.55903 20.72345 14.12952 23.58041 26.6341 16.23108 39.99648 33.19391 57.28148 41.02067 15.50435-38.70264 74.78486-77.77242 77.87868-81.1652-1.86646-3.63056-4.34744-9.84488-6.67708-15.54686z" id="path34864" class="bottoms_primary"/><path d="m367.93278 366.24459c-5.52417 2.9475-11.06529 5.89552-16.73942 8.689-3.69689 1.82006-7.42678 3.59249-11.19336 5.29688s-7.56982 3.34058-11.41211 4.88867c-3.84228 1.54809-7.72444 3.00823-11.64844 4.35938-3.92399 1.35114-7.88868 2.59346-11.90039 3.70703-4.0117 1.11357-8.07036 2.09823-12.17578 2.93359s-8.25774 1.5206-12.46289 2.03711c-2.29034.28132-4.59286.4696-6.91016.57227-2.3173.10266-4.64928.12058-7 .0645-4.70142-.11226-9.47777-.52208-14.35156-1.15039s-9.84559-1.47542-14.94336-2.46094c-1.62964-.31505-3.34147-.69972-5.01856-1.05214l-1.74661 9.66098c2.9311.6317 5.87677 1.2734 8.70853 1.82085 5.09777.98552 10.07153 1.83262 14.94531 2.46094 4.87379.62831 9.64819 1.03812 14.34961 1.15039 2.35072.0561 4.6827.0382 7-.0645 2.3173-.10266 4.61982-.28899 6.91016-.57031 4.20515-.51651 8.35942-1.2037 12.46484-2.03906 4.10543-.83536 8.16213-1.82002 12.17383-2.9336 4.01171-1.11357 7.97835-2.35588 11.90235-3.70703 3.92399-1.35114 7.80615-2.81129 11.64843-4.35937 3.84229-1.54809 7.64553-3.18429 11.41211-4.88867 3.76659-1.70439 7.49647-3.47683 11.19336-5.29688 6.60759-3.25304 12.96416-6.66128 19.37584-10.1029z" id="path34866" class="bottoms_accent"/><g clip-path="url(#clipPath55825)" id="g34870"><g id="g6989" style="filter:url(#filter66261)" clip-path="none"><path d="m257.54287 813.05261c11.57355 35.35327 89.78779-84.25901 76.15657-183.01076-1.37142-37.8342-10.98024-136.53398-16.17146-166.85119-3.86071-22.54686-11.8291-11.15287-21.90447-10.13419-9.4586.95632-17.81294-5.67079-19.52969 11.52497-2.11775 21.21241-3.39878 92.73216-4.8185 165.66903-1.60124 82.26234-10.37891 167.07735-13.73245 182.80214z" id="path298192" class="legs_shade"/><path class="legs_shade" id="path298194" d="m268.92549 801.6518c26.74375 14.05303 62.8487-180.25568 55.04061-207.27471 2.38502-28.97481-6.80812-101.95371-11.03595-129.07641-2.97282-19.07147-10.59431-7.90372-18.06421-7.69741-5.97633.16506-12.66759-4.38274-14.03519 7.72023-2.16274 19.13987-1.94489 93.4821-2.32666 167.80086-.38604 75.14873-4.88518 150.52347-9.5786 168.52744z"/><path d="m295.06151 639.72072c-31.95651 230.4588 15.3659 88.63006 19.23208-47.74191 3.31589-30.18397 4.64521-105.68372-5.70301-125.96255-2.62314-5.47415-21.01413-9.12782-23.51125.19251-3.39623 30.10575.64037 172.914 9.98218 173.51195z" id="path298196" class="legs_shade"/><path class="legs_shade" id="path298198" d="m301.91333 576.17036c3.07712-37.38257 15.12375-121.43565-10.9515-112.81349-4.32829 93.85198-5.80123 149.43644 10.9515 112.81349z"/><path d="m298.22592 576.1111c-.15307-2.79951 7.34559-3.84306 8.63553-19.51391 2.76938-33.64431 12.92256-95.71677-11.11392-89.48808-8.78322 12.44466 3.66536 130.71059 2.47839 109.00199z" id="path298200" class="legs_shade"/></g></g></svg>