<svg viewBox="0 0 560 1e3"><path d="m247.27148 234.24411c-.59122.0926-1.17122.32089-1.70211.61635-2.0932 1.1649-3.08304 3.07626-3.08304 5.84264.0 1.9706.26231 4.17288 1.45898 5.13671.90931.73238 2.06831 1.07459 3.33008.87696 2.92228-.4577 5.23633-3.61209 5.23633-7.08008.0-3.25125-1.99592-5.54556-4.66406-5.44922-.20071.007-.4061.0399-.57618.0566zm.54093-.0136c2.61583-.0944 4.65625 2.20703 4.65625 5.39453.0 3.4-2.32252 6.52002-5.1875 6.96875-1.23703.19375-2.37219-.14135-3.26367-.85937-1.1732-.94493-1.39258-2.99383-1.39258-4.92579.0-2.71214.9459-4.8052 2.99805-5.94726.52048-.28966 1.07858-.4893 1.6582-.58008.17906-.0281.35686-.0445.53125-.0508z" id="path19786" class="shadow"/><path class="shadow" id="path22091" d="m246.22461 230.82031c-2.70213 3.52133-4.59201 16.91832-3.41211 22.31446l1.44727.76171-1.18165-.72851c-1.51806-2.17546.43728-18.56111 3.14649-22.34766z"/><path d="m313.07813 231.33789c-3.46795 4e-5-6.25985 2.73094-6.25989 6.19888 4e-5 3.46795 2.75288 6.25811 6.22082 6.25815 3.46795-4e-5 6.22173-2.7681 6.22177-6.23605-4e-5-3.46794-2.71476-6.22094-6.1827-6.22098zm-.0469.0371c3.4.0 6.15625 2.75625 6.15625 6.15625s-2.75625 6.15625-6.15625 6.15625-6.15625-2.75625-6.15625-6.15625 2.75625-6.15625 6.15625-6.15625z" id="path19791" class="shadow"/><path d="m319.1875 237.5312a6.1562504 6.1562504.0 01-6.15625 6.15625 6.1562504 6.1562504.0 01-6.15625-6.15625 6.1562504 6.1562504.0 016.15625-6.15625 6.1562504 6.1562504.0 016.15625 6.15625z" id="path22095" class="bra_primary"/><path d="m252.46876 239.62496c0 3.4-2.32252 6.52002-5.1875 6.96875-1.23703.19375-2.37292-.14218-3.2644-.8602-1.1732-.94493-1.39277-2.99353-1.39277-4.92549.0-2.71214.94751-4.80419 2.99966-5.94625.52048-.28966 1.07789-.48978 1.65751-.58056 2.86498-.44873 5.1875 1.94375 5.1875 5.34375z" id="path22095-0" class="bra_primary"/><path d="m312.85939 237.28121-.0781 5.4375c-.32165.0293-.57564.11943-.75.28125-.0988.48169-.0756.90239-.0937 1.34375-.7698.59254-.72122.98049-.86413 1.41631.0.0-.28255 7.25166-.63437 10.86109-.0757.77682-.31744 2.3199-.31744 2.3199.19888.0638.28076-.13448.59663-.28727.3163-.153.3741.3219.67885.30478.23963-.0135.42875-.53269.63481-.50555.38087.0502.54154.53225.9254.51716.36379-.0143.16879-.60553.54059-.60777.33914-.002.44362.58575.77765.64438.57179.10038.41602-.86473.96108-.66491.32918.12067.72785.81227.91805.65197-.20408-.55142-.42287-.8584-.53402-2.14958l-.96236-11.17884c-.13317-.50043-.34776-.91944-.64759-1.25321-.006-.50455.023-1.0091-.0939-1.51365-.23163-.1329-.43169-.16761-.80821-.18459l.0794-5.42483z" id="path22113" class="bra_accent"/><path class="bra_accent" id="path22115" d="m244.62358 240.02125-.0781 5.4375c-.32165.0293-.57564.11943-.75.28125-.0988.48169-.0756.90239-.0937 1.34375-.7698.59254-.72122.98049-.86413 1.41631.0.0-.28255 7.25166-.63437 10.86109-.0757.77682-.31744 2.3199-.31744 2.3199.19888.0638.28076-.13448.59663-.28727.3163-.153.3741.3219.67885.30478.23963-.0135.42875-.53269.63481-.50555.38087.0502.54154.53225.9254.51716.36379-.0143.16879-.60553.54059-.60777.33914-.002.44362.58575.77765.64438.57179.10038.41602-.86473.96108-.66491.32918.12067.72785.81227.91805.65197-.20408-.55142-.42287-.8584-.53402-2.14958l-.96236-11.17884c-.13317-.50043-.34776-.91944-.64759-1.25321-.006-.50455.023-1.0091-.0939-1.51365-.23163-.1329-.43169-.16761-.80821-.18459l.0794-5.42483z"/></svg>