<svg viewBox="0 0 560 1e3"><path id="path5217" class="shadow" d="m243.96745 432.48055c-.6501.78453-2.43418 3.08925-2.26763 4.56746.22781 2.02187 1.90351 4.72055 3.93739 4.66429 1.99279-.0551 3.3524-2.79813 3.59928-4.77632.21075-1.68867-1.97614-4.70734-1.97614-4.70734s1.43068 3.19836.9344 4.72534c-.35573 1.09449-1.3826 2.37703-2.53304 2.34603-1.30096-.0351-2.40484-1.54007-2.71746-2.8034-.28376-1.14667.67198-3.17202 1.0795-3.96082-.0413-.0506-.0517-.0508-.0563-.0552z"/><path id="path5219" class="shadow" d="m226.37537 412.00146c-.76955.97519-2.15318 2.93365-2.00561 4.24332.22781 2.02187 1.90351 4.72055 3.93739 4.66429 1.99279-.0551 3.3524-2.79813 3.59928-4.77632.21075-1.68867-1.97614-4.70734-1.97614-4.70734s1.43068 3.19836.9344 4.72534c-.35573 1.09449-1.3826 2.37703-2.53304 2.34603-1.30096-.0351-2.40484-1.54007-2.71746-2.8034-.24507-.99034.43442-2.63611.88679-3.57461-.0636-.0591-.0961-.0898-.12561-.11731z"/><path id="path5221" class="shadow" d="m256.54012 442.58505c-.70726 1.02384-1.45887 2.37209-1.34813 3.35494.22781 2.02187 1.90351 4.72055 3.93739 4.66429 1.99279-.0551 3.3524-2.79813 3.59928-4.77632.21075-1.68867-1.97614-4.70734-1.97614-4.70734s1.43068 3.19836.9344 4.72534c-.35573 1.09449-1.3826 2.37703-2.53304 2.34603-1.30096-.0351-2.40484-1.54007-2.71746-2.8034-.17254-.69723.11319-1.71933.4553-2.59077-.1576-.12576-.17759-.12022-.3516-.21277z"/><path id="path5223" class="shadow" d="m233.85102 421.94588s-2.70247 3.03537-2.49919 4.83954c.22781 2.02186 1.90351 4.72055 3.93739 4.66428 1.99279-.0551 3.3524-2.79812 3.59928-4.77632.21075-1.68866-1.97614-4.70734-1.97614-4.70734s1.43068 3.19836.9344 4.72535c-.35573 1.09449-1.3826 2.37702-2.53304 2.34602-1.30096-.0351-2.40484-1.54006-2.71746-2.80339-.35775-1.44571 1.25476-4.28814 1.25476-4.28814z"/><path d="m244.10403 432.88876c-.591.71321-2.21289 2.80841-2.06148 4.15224.2071 1.83806 1.73046 4.29141 3.57945 4.24026 1.81162-.0501 3.04763-2.54375 3.27207-4.34211.19159-1.53515-1.79649-4.2794-1.79649-4.2794s1.30062 2.9076.84945 4.29577c-.32339.99499-1.25691 2.16093-2.30276 2.13275-1.18269-.0319-2.18622-1.40006-2.47042-2.54854-.25796-1.04243.61089-2.88366.98136-3.60075-.0375-.046-.047-.0462-.0512-.0502z" class="steel_piercing" id="path4882"/><path id="path5225" class="shadow" d="m267.30797 449.20566c-.78545 1.03465-1.93112 2.77501-1.79617 3.97273.22781 2.02187 1.90351 4.72055 3.93739 4.66429 1.99279-.0551 3.3524-2.79813 3.59928-4.77632.21075-1.68867-1.97614-4.70734-1.97614-4.70734s1.43068 3.19836.9344 4.72534c-.35573 1.09449-1.3826 2.37703-2.53304 2.34603-1.30096-.0351-2.40484-1.54007-2.71746-2.8034-.22431-.90647.32597-2.36207.76768-3.3218-.11753-.0348-.0932-.0465-.21594-.0995z"/><path d="m226.53577 412.38021c-.69959.88653-1.95743 2.66695-1.82328 3.85756.2071 1.83806 1.73046 4.29141 3.57945 4.24026 1.81162-.0501 3.04763-2.54375 3.27207-4.34211.19159-1.53515-1.79649-4.2794-1.79649-4.2794s1.30062 2.9076.84945 4.29577c-.32339.99499-1.25691 2.16093-2.30276 2.13275-1.18269-.0319-2.18622-1.40006-2.47042-2.54854-.22279-.90031.39493-2.39647.80617-3.24965-.0578-.0537-.0874-.0816-.11419-.10664z" class="steel_piercing" id="path4884"/><path id="path5227" class="shadow" d="m274.62044 452.8856c-.7013 1.02016-1.43766 2.35216-1.32797 3.32568.22781 2.02187 1.90351 4.72055 3.93739 4.66429 1.99279-.0551 3.3524-2.79813 3.59928-4.77632.21075-1.68867-1.97614-4.70734-1.97614-4.70734s1.43068 3.19836.9344 4.72534c-.35573 1.09449-1.3826 2.37703-2.53304 2.34603-1.30096-.0351-2.40484-1.54007-2.71746-2.8034-.17489-.70676.12109-1.74731.46935-2.6264-.22073-.11913-.22972-.0517-.38581-.14788z"/><path d="m256.76029 442.88303c-.64296.93077-1.32624 2.15645-1.22557 3.04995.2071 1.83806 1.73046 4.29141 3.57945 4.24026 1.81162-.0501 3.04763-2.54375 3.27207-4.34211.19159-1.53515-1.79649-4.2794-1.79649-4.2794s1.30062 2.9076.84945 4.29577c-.32339.99499-1.25691 2.16093-2.30276 2.13275-1.18269-.0319-2.18622-1.40006-2.47042-2.54854-.15685-.63385.1029-1.56303.41391-2.35525-.14327-.11433-.16145-.10929-.31964-.19343z" class="steel_piercing" id="path4886"/><path d="m233.96655 422.37791s-2.45679 2.75943-2.27199 4.39958c.2071 1.83806 1.73046 4.29141 3.57945 4.24026 1.81162-.0501 3.04763-2.54375 3.27207-4.34211.19159-1.53515-1.79649-4.2794-1.79649-4.2794s1.30062 2.9076.84945 4.29577c-.32339.99499-1.25691 2.16093-2.30276 2.13275-1.18269-.0319-2.18622-1.40006-2.47042-2.54854-.32523-1.31428 1.14069-3.89831 1.14069-3.89831z" class="steel_piercing" id="path4888"/><path d="m267.48741 449.55981c-.71404.94059-1.75556 2.52273-1.63288 3.61157.2071 1.83806 1.73046 4.29141 3.57945 4.24026 1.81162-.0501 3.04763-2.54375 3.27207-4.34211.19159-1.53515-1.79649-4.2794-1.79649-4.2794s1.30062 2.9076.84945 4.29577c-.32339.99499-1.25691 2.16093-2.30276 2.13275-1.18269-.0319-2.18622-1.40006-2.47042-2.54854-.20392-.82407.29634-2.14734.69789-3.01982-.10684-.0316-.0847-.0423-.19631-.0905z" class="steel_piercing" id="path4890"/><path d="m274.84245 453.18092c-.63755.92742-1.30697 2.13833-1.20725 3.02335.2071 1.83806 1.73046 4.29141 3.57945 4.24026 1.81162-.0501 3.04763-2.54375 3.27207-4.34211.19159-1.53515-1.79649-4.2794-1.79649-4.2794s1.30062 2.9076.84945 4.29577c-.32339.99499-1.25691 2.16093-2.30276 2.13275-1.18269-.0319-2.18622-1.40006-2.47042-2.54854-.15899-.64251.11008-1.58847.42668-2.38764-.20066-.1083-.20883-.047-.35073-.13444z" class="steel_piercing" id="path4890-1"/></svg>