<svg viewBox="0 0 560 1e3"><path d="m315.36602 111.92862c0 .75293-.84427 1.5972-1.5972 1.5972s-1.5972-.84427-1.5972-1.5972.84427-1.5972 1.5972-1.5972 1.5972.84427 1.5972 1.5972z" id="path5060" class="shadow"/><path d="m315.641 117.04459c0 .75293-.84427 1.5972-1.5972 1.5972s-1.5972-.84427-1.5972-1.5972.84427-1.5972 1.5972-1.5972 1.5972.84427 1.5972 1.5972z" id="path5062" class="shadow"/><path class="steel_piercing" id="path2759" d="m315.22082 111.92862c0 .68448-.76752 1.452-1.452 1.452s-1.452-.76752-1.452-1.452.76752-1.452 1.452-1.452 1.452.76752 1.452 1.452z"/><path class="steel_piercing" id="path2759-0" d="m315.4958 117.04459c0 .68448-.76752 1.452-1.452 1.452s-1.452-.76752-1.452-1.452.76752-1.452 1.452-1.452 1.452.76752 1.452 1.452z"/></svg>