<svg viewBox="0 0 560 1e3"><path id="path9-4" d="m306.15 183.8375c-5.4.0-7.7-3.1-7.8-3.3-.5-.7-.3-1.6.4-2.1s1.6-.3 2.1.4c.2.3 5.3375 5.475 34.275-9.625.7-.4 1.6-.2 2.1.5.4.7.2 1.6-.5 2.1-5.7 3.4-27.375 12.025-30.575 12.025z"/><rect x="299.67276" y="183.13045" transform="rotate(-1.1601983)" width="6.3000274" height="10.500045" id="rect11"/><rect x="299.66086" y="183.14191" transform="rotate(-1.1601983)" class="steel_chastity" width="6.0000257" height="10.100043" id="rect13-0"/><circle cx="288.78955" cy="208.56601" r="1.3" id="circle15" style="fill:#ce5b5b" transform="rotate(-5.1341055)"/><circle style="fill:#d13737" cx="288.78955" cy="208.466" r="1.2" id="circle17" transform="rotate(-5.1341055)"/></svg>