<svg viewBox="0 0 560 1e3"><defs><filter style="color-interpolation-filters:sRGB" id="filter11746"><feGaussianBlur stdDeviation="5.48 5.22" result="blur" id="feGaussianBlur11744"/></filter><clipPath clipPathUnits="userSpaceOnUse" id="clipPath11748"><path d="m402.04135 437.32717c-2.71181-22.47351-13.4586-37.47502-24.43313-54.38031-5.14872-7.93116-7.81073-16.2984-13.80729-25.67932-20.2068 18.72451-47.27309 31.26623-77.47869 35.88748-.40169 4.48931-25.06334 64.00074 7.84709 59.36545z" id="path11750" style="fill-opacity:.22488038;fill:#0ff"/></clipPath><clipPath clipPathUnits="userSpaceOnUse" id="clipPath11748-6-3-2"><path d="m402.04135 437.32717c-2.71181-22.47351-13.4586-37.47502-24.43313-54.38031-5.14872-7.93116-7.81073-16.2984-13.80729-25.67932-20.2068 18.72451-47.27309 31.26623-77.47869 35.88748-.40169 4.48931-25.06334 64.00074 7.84709 59.36545z" id="path11750-1-9-6" style="fill-opacity:.22488038;fill:#0ff"/></clipPath><filter style="color-interpolation-filters:sRGB" id="filter11746-2-8-4"><feGaussianBlur stdDeviation="5.48 5.22" result="blur" id="feGaussianBlur11744-4-6-1"/></filter></defs><path style="fill:#010101" d="m363.65397 356.61407c-11.6731 9.97134-26.36848 18.08561-42.50875 24.32171-16.04916 6.20089-33.1905 10.39831-49.36063 12.35-16.5648 1.99932-25.61912-.23874-30.98053-3.24283-5.23373-2.93253-7.14795-6.8179-7.62852-7.72035-1.50878 9.15217-3.05545 19.20307-4.65269 27.95227-1.75659 9.62209-3.4456 17.12902-5.59043 25.55359-2.03594 8.01543-3.79333 15.88775-4.89173 23.58391.12619.01.34958.0.34958.0 1.06361-7.67664 2.76044-15.47502 4.78073-23.49256 5.04106-20.00546 6.84099-32.78464 10.1034-53.24722.47957.89883 2.36834 4.90111 7.58005 7.94014 5.34024 3.11398 14.38524 5.46314 30.94147 3.46457 16.16006-1.95076 33.29865-6.18205 49.36-12.41708 16.15222-6.27031 30.87732-14.41987 42.56423-24.39334 5.86637 9.24943 8.65092 17.57869 13.96683 25.51557 11.48558 17.14845 21.68816 31.86931 24.36644 54.54415.64371 5.44965-.21537 13.75304-1.36784 22.08551.14609.01.40819.0.40819.0 1.14632-8.3283 1.99854-16.62924 1.35225-22.08673-2.68496-22.67366-13.00227-37.52471-24.48049-54.67426-5.31218-7.93691-8.46027-16.79121-14.31156-26.03705z" id="path35836-1-88"/><path style="fill-opacity:1;fill:#232323" d="m363.72015 357.26688c-11.68691 9.97347-26.41201 18.12303-42.56423 24.39334-16.06135 6.23503-33.19994 10.46632-49.36 12.41708-16.55623 1.99857-25.60123-.35059-30.94147-3.46457-5.21171-3.03903-7.10048-7.04131-7.58005-7.94014-3.26241 20.46258-5.06234 33.24176-10.1034 53.24722-2.02029 8.01754-3.71712 15.81592-4.78073 23.49256 60.78477.01 182.29531-26e-5 182.29531-26e-5 1.15247-8.33247 2.01155-16.63586 1.36784-22.08551-2.67828-22.67484-12.88086-37.3957-24.36644-54.54415-5.31591-7.93688-8.10046-16.26614-13.96683-25.51557z" id="path35838-2-9"/><g id="g35940-4-7"><g id="g35870-4-2"><g style="stroke-width:.963262" transform="matrix(0.89206961,-0.65422114,0.57613954,0.78560069,-217.29918,284.46538)" id="g35844-0-1"><path style="fill-opacity:1;fill:none;opacity:1;stroke-dasharray:none;stroke-dashoffset:0;stroke-linecap:butt;stroke-linejoin:miter;stroke-miterlimit:4;stroke-opacity:1;stroke-width:2.62129;stroke:#000;vector-effect:none" d="m285.46025 433.70341c-1.53906-.95979-4.59934-2.90537-4.59934-2.90537" id="path35840-3-6"/><path style="baseline-shift:baseline;clip-rule:nonzero;color-interpolation-filters:linearRGB;color-interpolation:sRGB;color-rendering:auto;color:#000;direction:ltr;display:inline;dominant-baseline:auto;enable-background:accumulate;fill-opacity:1;fill-rule:nonzero;fill:#484848;image-rendering:auto;isolation:auto;mix-blend-mode:normal;opacity:1;overflow:visible;shape-padding:0;shape-rendering:auto;solid-color:#000000;solid-opacity:1;stroke-dasharray:none;stroke-dashoffset:0;stroke-linecap:butt;stroke-linejoin:miter;stroke-miterlimit:4;stroke-opacity:1;stroke-width:1.89281;stroke:none;vector-effect:none;visibility:visible;white-space:normal;writing-mode:lr-tb" d="m281.55664 430.05092c-.20017.65867-.61294 1.92521-.61294 1.92521 1.51528.87754 2.34886 1.61954 3.86415 2.49708.22919-.61177.67472-1.88504.67472-1.88504-1.53272-.8889-2.39321-1.64834-3.92593-2.53725z" id="path35842-3-1"/></g><g id="g35850-8-0" transform="matrix(0.89206961,-0.65422114,0.57613954,0.78560069,-218.56553,274.78481)" style="stroke-width:.963262"><path style="fill-opacity:1;fill:none;opacity:1;stroke-dasharray:none;stroke-dashoffset:0;stroke-linecap:butt;stroke-linejoin:miter;stroke-miterlimit:4;stroke-opacity:1;stroke-width:2.62129;stroke:#000;vector-effect:none" d="m284.31647 432.71515c-1.5454-.96142-4.59795-2.89497-4.59795-2.89497" id="path35846-2-3"/><path style="baseline-shift:baseline;clip-rule:nonzero;color-interpolation-filters:linearRGB;color-interpolation:sRGB;color-rendering:auto;color:#000;direction:ltr;display:inline;dominant-baseline:auto;enable-background:accumulate;fill-opacity:1;fill-rule:nonzero;fill:#484848;image-rendering:auto;isolation:auto;mix-blend-mode:normal;opacity:1;overflow:visible;shape-padding:0;shape-rendering:auto;solid-color:#000000;solid-opacity:1;stroke-dasharray:none;stroke-dashoffset:0;stroke-linecap:butt;stroke-linejoin:miter;stroke-miterlimit:4;stroke-opacity:1;stroke-width:1.89281;stroke:none;vector-effect:none;visibility:visible;white-space:normal;writing-mode:lr-tb" d="m280.40522 429.06559c-.19537.66136-.59517 1.93849-.59517 1.93849 1.50609.86807 2.35684 1.62023 3.86292 2.4883.22263-.61749.65818-1.89754.65818-1.89754-1.54033-.89105-2.38559-1.63819-3.92593-2.52925z" id="path35848-2-3"/></g><g style="stroke-width:.963262" transform="matrix(0.89206961,-0.65422114,0.57613954,0.78560069,-220.46258,264.74837)" id="g35856-9-6"><path style="fill-opacity:1;fill:none;opacity:1;stroke-dasharray:none;stroke-dashoffset:0;stroke-linecap:butt;stroke-linejoin:miter;stroke-miterlimit:4;stroke-opacity:1;stroke-width:2.62129;stroke:#000;vector-effect:none" d="m284.28896 432.3455c-1.94679-1.18104-5.74173-3.50962-5.74173-3.50962" id="path35852-7-4"/><path style="baseline-shift:baseline;clip-rule:nonzero;color-interpolation-filters:linearRGB;color-interpolation:sRGB;color-rendering:auto;color:#000;direction:ltr;display:inline;dominant-baseline:auto;enable-background:accumulate;fill-opacity:1;fill-rule:nonzero;fill:#484848;image-rendering:auto;isolation:auto;mix-blend-mode:normal;opacity:1;overflow:visible;shape-padding:0;shape-rendering:auto;solid-color:#000000;solid-opacity:1;stroke-dasharray:none;stroke-dashoffset:0;stroke-linecap:butt;stroke-linejoin:miter;stroke-miterlimit:4;stroke-opacity:1;stroke-width:1.89281;stroke:none;vector-effect:none;visibility:visible;white-space:normal;writing-mode:lr-tb" d="m279.0404 427.99267c-.20393.6521-.6172 1.91569-.6172 1.91569 1.51129.8666 3.62433 2.2094 5.16057 3.09748.2293-.61122.68162-1.87415.68162-1.87415-1.53782-.88884-3.71394-2.27322-5.22499-3.13902z" id="path35854-1-5"/></g><g id="g35862-5-1" transform="matrix(0.89206961,-0.65422114,0.57613954,0.78560069,-221.32437,254.49532)" style="stroke-width:.963262"><path style="fill-opacity:1;fill:none;opacity:1;stroke-dasharray:none;stroke-dashoffset:0;stroke-linecap:butt;stroke-linejoin:miter;stroke-miterlimit:4;stroke-opacity:1;stroke-width:2.62129;stroke:#000;vector-effect:none" d="m283.32012 431.53874c-1.96348-1.19029-5.76072-3.51421-5.76072-3.51421" id="path35858-5-4"/><path style="baseline-shift:baseline;clip-rule:nonzero;color-interpolation-filters:linearRGB;color-interpolation:sRGB;color-rendering:auto;color:#000;direction:ltr;display:inline;dominant-baseline:auto;enable-background:accumulate;fill-opacity:1;fill-rule:nonzero;fill:#484848;image-rendering:auto;isolation:auto;mix-blend-mode:normal;opacity:1;overflow:visible;shape-padding:0;shape-rendering:auto;solid-color:#000000;solid-opacity:1;stroke-dasharray:none;stroke-dashoffset:0;stroke-linecap:butt;stroke-linejoin:miter;stroke-miterlimit:4;stroke-opacity:1;stroke-width:1.89281;stroke:none;vector-effect:none;visibility:visible;white-space:normal;writing-mode:lr-tb" d="m278.08144 427.20768c-.22384.63336-.67338 1.86354-.67338 1.86354 1.51355.86544 3.63232 2.20868 5.17818 3.10205.24721-.59476.73875-1.82106.73875-1.82106-1.54767-.89441-3.72981-2.27944-5.24355-3.14453z" id="path35860-9-6"/></g><g style="stroke-width:.963262" transform="matrix(0.89206961,-0.65422114,0.57613954,0.78560069,-222.84907,244.08759)" id="g35868-1-8"><path style="fill-opacity:1;fill:none;opacity:1;stroke-dasharray:none;stroke-dashoffset:0;stroke-linecap:butt;stroke-linejoin:miter;stroke-miterlimit:4;stroke-opacity:1;stroke-width:2.62129;stroke:#000;vector-effect:none" d="m282.71816 431.07459c-1.94812-1.17972-5.77026-3.51263-5.77026-3.51263" id="path35864-7-5"/><path style="baseline-shift:baseline;clip-rule:nonzero;color-interpolation-filters:linearRGB;color-interpolation:sRGB;color-rendering:auto;color:#000;direction:ltr;display:inline;dominant-baseline:auto;enable-background:accumulate;fill-opacity:1;fill-rule:nonzero;fill:#484848;image-rendering:auto;isolation:auto;mix-blend-mode:normal;opacity:1;overflow:visible;shape-padding:0;shape-rendering:auto;solid-color:#000000;solid-opacity:1;stroke-dasharray:none;stroke-dashoffset:0;stroke-linecap:butt;stroke-linejoin:miter;stroke-miterlimit:4;stroke-opacity:1;stroke-width:1.89281;stroke:none;vector-effect:none;visibility:visible;white-space:normal;writing-mode:lr-tb" d="m277.51262 426.78312c-.25321.60701-.75798 1.78745-.75798 1.78745 1.51486.86395 3.63538 2.20487 5.18839 3.10191.27433-.57012.82358-1.74437.82358-1.74437-1.55478-.89819-3.73861-2.28096-5.25399-3.14499z" id="path35866-3-6"/></g></g><path style="fill-opacity:1;fill:#232323;opacity:1;stroke-dasharray:none;stroke-dashoffset:0;stroke-linecap:butt;stroke-linejoin:miter;stroke-miterlimit:4;stroke-opacity:1;stroke-width:.755906;stroke:#000;vector-effect:none" d="m260.27503 396.33533c2.1327 12.85119 6.01955 24.32469 8.42299 30.98145 2.56401 7.1015 5.04167 13.00846 6.73012 16.98612.38466.84292.99139 1.18967 1.69238 1.08083.0.0 2.79948-.39182 4.20171-.58777 1.63281-.22817 3.828.93964 5.4608.71147 1.60027-.22254 2.63706-1.84009 4.23733-2.06263 1.73718-.22964 5.19551-.72002 5.19551-.72002.49754-.06.84424-.61649.74232-1.10468-4.12582-19.99807-6.823-32.20939-6.76319-49.11751-3.86326.78722-7.62386 1.48681-11.28973 2.13948-1.35671.24121-1.57322 1.09442-1.44338 2.12387 1.18506 8.35783 3.01966 16.46869 5.70794 26.64884 2.35152 8.90486 4.26686 16.04071 4.26686 16.04071.46161 1.80751-.91232 3.04839-1.67722 3.20955-1.44777.30504-3.48571-1.14816-3.88247-2.48971-2.09856-7.11031-5.60227-17.7794-8.03039-26.64002-2.43083-8.87052-3.69581-15.92095-3.69581-15.92095-.15061-1.05109-.84714-1.70582-1.7693-1.66581-2.70294.24392-5.38996.41193-8.10647.38678z" id="path35872-3-9"/><g id="g35894-5-4"><path style="baseline-shift:baseline;clip-rule:nonzero;color-interpolation-filters:linearRGB;color-interpolation:sRGB;color-rendering:auto;color:#000;direction:ltr;display:inline;dominant-baseline:auto;enable-background:accumulate;fill-opacity:1;fill-rule:nonzero;fill:#a0a5a6;image-rendering:auto;isolation:auto;mix-blend-mode:normal;opacity:1;overflow:visible;shape-padding:0;shape-rendering:auto;solid-color:#000000;solid-opacity:1;stroke-dasharray:none;stroke-dashoffset:0;stroke-linecap:butt;stroke-linejoin:miter;stroke-miterlimit:4;stroke-opacity:1;stroke-width:.623622;stroke:none;vector-effect:none;visibility:visible;white-space:normal;writing-mode:lr-tb" d="m281.69174 395.00278c-1.21948.008-2.15343 1.06123-2.10236 2.31357.051 1.25232 1.07013 2.29417 2.28893 2.28675 1.2186-.007 2.13435-1.06124 2.08371-2.31423-.0506-1.25299-1.05111-2.29397-2.27028-2.28609zm.0169.62103c.84365-.005 1.5727.72411 1.61096 1.66895.0383.94485-.63136 1.68165-1.47473 1.68682-.84312.005-1.58283-.72286-1.62132-1.66736-.0385-.94451.64162-1.68299 1.48509-1.68841z" id="path35874-4-4"/><path style="baseline-shift:baseline;clip-rule:nonzero;color-interpolation-filters:linearRGB;color-interpolation:sRGB;color-rendering:auto;color:#000;direction:ltr;display:inline;dominant-baseline:auto;enable-background:accumulate;fill-opacity:1;fill-rule:nonzero;fill:#a0a5a6;image-rendering:auto;isolation:auto;mix-blend-mode:normal;opacity:1;overflow:visible;shape-padding:0;shape-rendering:auto;solid-color:#000000;solid-opacity:1;stroke-dasharray:none;stroke-dashoffset:0;stroke-linecap:butt;stroke-linejoin:miter;stroke-miterlimit:4;stroke-opacity:1;stroke-width:.623622;stroke:none;vector-effect:none;visibility:visible;white-space:normal;writing-mode:lr-tb" d="m282.72738 405.13429c-1.21978.007-2.08647 1.06141-1.95854 2.31654.12791 1.2551 1.20786 2.30047 2.42518 2.29444 1.21718-.006 2.07173-1.06123 1.94544-2.31723-.12628-1.25603-1.19253-2.30042-2.41208-2.29375zm.0564.62247c.84369-.005 1.61852.72739 1.714 1.67449.0955.94711-.5309 1.68483-1.37339 1.68906-.84231.004-1.62488-.72629-1.72122-1.67293-.0963-.94663.53705-1.68606 1.38061-1.69062z" id="path35876-1-1"/><path style="baseline-shift:baseline;clip-rule:nonzero;color-interpolation-filters:linearRGB;color-interpolation:sRGB;color-rendering:auto;color:#000;direction:ltr;display:inline;dominant-baseline:auto;enable-background:accumulate;fill-opacity:1;fill-rule:nonzero;fill:#a0a5a6;image-rendering:auto;isolation:auto;mix-blend-mode:normal;opacity:1;overflow:visible;shape-padding:0;shape-rendering:auto;solid-color:#000000;solid-opacity:1;stroke-dasharray:none;stroke-dashoffset:0;stroke-linecap:butt;stroke-linejoin:miter;stroke-miterlimit:4;stroke-opacity:1;stroke-width:.623622;stroke:none;vector-effect:none;visibility:visible;white-space:normal;writing-mode:lr-tb" d="m284.5774 415.78359c-1.21739.005-2.03036 1.06089-1.84573 2.31876.18463 1.25787 1.30529 2.30683 2.5186 2.3025 1.21331-.004 2.02261-1.06045 1.84069-2.31931-.18192-1.25887-1.29632-2.307-2.51356-2.30195zm.0868.6239c.84186-.003 1.6499.73117 1.78747 1.68041.13757.94925-.45645 1.6876-1.29633 1.69066-.83975.003-1.65122-.73003-1.79023-1.67876-.13901-.94872.45727-1.68888 1.29909-1.69231z" id="path35878-0-3"/><path style="baseline-shift:baseline;clip-rule:nonzero;color-interpolation-filters:linearRGB;color-interpolation:sRGB;color-rendering:auto;color:#000;direction:ltr;display:inline;dominant-baseline:auto;enable-background:accumulate;fill-opacity:1;fill-rule:nonzero;fill:#a0a5a6;image-rendering:auto;isolation:auto;mix-blend-mode:normal;opacity:1;overflow:visible;shape-padding:0;shape-rendering:auto;solid-color:#000000;solid-opacity:1;stroke-dasharray:none;stroke-dashoffset:0;stroke-linecap:butt;stroke-linejoin:miter;stroke-miterlimit:4;stroke-opacity:1;stroke-width:.623622;stroke:none;vector-effect:none;visibility:visible;white-space:normal;writing-mode:lr-tb" d="m286.83585 425.97265c-1.18529.12947-1.83664 1.27933-1.49596 2.53185.34067 1.25253 1.56058 2.19799 2.74176 2.06932 1.18136-.12869 1.84032-1.27898 1.50235-2.53227-.33795-1.25331-1.56291-2.19835-2.74815-2.0689zm.16759.62127c.81961-.0895 1.70364.5701 1.95889 1.51517.25524.94507-.2321 1.75213-1.04974 1.84124-.81759.0891-1.69853-.56879-1.95522-1.51345s.2264-1.75345 1.04607-1.84296z" id="path35880-0-3"/><path style="baseline-shift:baseline;clip-rule:nonzero;color-interpolation-filters:linearRGB;color-interpolation:sRGB;color-rendering:auto;color:#000;direction:ltr;display:inline;dominant-baseline:auto;enable-background:accumulate;fill-opacity:1;fill-rule:nonzero;fill:#a0a5a6;image-rendering:auto;isolation:auto;mix-blend-mode:normal;opacity:1;overflow:visible;shape-padding:0;shape-rendering:auto;solid-color:#000000;solid-opacity:1;stroke-dasharray:none;stroke-dashoffset:0;stroke-linecap:butt;stroke-linejoin:miter;stroke-miterlimit:4;stroke-opacity:1;stroke-width:.623622;stroke:none;vector-effect:none;visibility:visible;white-space:normal;writing-mode:lr-tb" d="m289.54879 435.98391c-1.16643.17349-1.76995 1.3541-1.39692 2.60118.37303 1.24709 1.59988 2.15276 2.76485 1.97996 1.16538-.17286 1.78849-1.35316 1.41624-2.60105-.37223-1.24784-1.61772-2.15358-2.78417-1.98009zm.18784.61872c.80673-.11997 1.70379.51106 1.98468 1.45203.28089.94096-.18019 1.77015-.98635 1.88978-.80622.11964-1.69267-.50949-1.97397-1.45003-.28132-.94058.16871-1.7718.97564-1.89178z" id="path35882-7-84"/><path style="baseline-shift:baseline;clip-rule:nonzero;color-interpolation-filters:linearRGB;color-interpolation:sRGB;color-rendering:auto;color:#000;direction:ltr;display:inline;dominant-baseline:auto;enable-background:accumulate;fill-opacity:1;fill-rule:nonzero;fill:#a0a5a6;image-rendering:auto;isolation:auto;mix-blend-mode:normal;opacity:1;overflow:visible;shape-padding:0;shape-rendering:auto;solid-color:#000000;solid-opacity:1;stroke-dasharray:none;stroke-dashoffset:0;stroke-linecap:butt;stroke-linejoin:miter;stroke-miterlimit:4;stroke-opacity:1;stroke-width:.623622;stroke:none;vector-effect:none;visibility:visible;white-space:normal;writing-mode:lr-tb" d="m277.80818 437.67082c-1.06317.38556-1.41663 1.68897-.83803 2.87978.5786 1.19082 1.90416 1.88256 2.97791 1.49675 1.07404-.38591 1.44142-1.68748.85438-2.88024-.58699-1.19268-1.93104-1.88186-2.99426-1.49629zm.29202.59101c.73643-.26675 1.70029.20806 2.14214 1.1073.44185.89923.1612 1.81833-.58069 2.08525-.74195.26694-1.69525-.20747-2.1326-1.10569-.43739-.89828-.16541-1.82006.57115-2.08686z" id="path35884-8-7"/><path style="baseline-shift:baseline;clip-rule:nonzero;color-interpolation-filters:linearRGB;color-interpolation:sRGB;color-rendering:auto;color:#000;direction:ltr;display:inline;dominant-baseline:auto;enable-background:accumulate;fill-opacity:1;fill-rule:nonzero;fill:#a0a5a6;image-rendering:auto;isolation:auto;mix-blend-mode:normal;opacity:1;overflow:visible;shape-padding:0;shape-rendering:auto;solid-color:#000000;solid-opacity:1;stroke-dasharray:none;stroke-dashoffset:0;stroke-linecap:butt;stroke-linejoin:miter;stroke-miterlimit:4;stroke-opacity:1;stroke-width:.623622;stroke:none;vector-effect:none;visibility:visible;white-space:normal;writing-mode:lr-tb" d="m274.6848 427.76922c-1.11564.24528-1.61868 1.46972-1.16434 2.70067.45433 1.23095 1.71929 2.06719 2.84042 1.82233 1.12125-.24488 1.62971-1.46912 1.17116-2.70142-.45855-1.23229-1.73158-2.06687-2.84724-1.82158zm.22584.61067c.77233-.16966 1.68826.41009 2.03371 1.33924.34545.92917-.0355 1.79069-.81066 1.96015-.77516.16946-1.68643-.40927-2.02962-1.33773-.34321-.92846.0342-1.79199.80657-1.96166z" id="path35886-4-9"/><path style="baseline-shift:baseline;clip-rule:nonzero;color-interpolation-filters:linearRGB;color-interpolation:sRGB;color-rendering:auto;color:#000;direction:ltr;display:inline;dominant-baseline:auto;enable-background:accumulate;fill-opacity:1;fill-rule:nonzero;fill:#a0a5a6;image-rendering:auto;isolation:auto;mix-blend-mode:normal;opacity:1;overflow:visible;shape-padding:0;shape-rendering:auto;solid-color:#000000;solid-opacity:1;stroke-dasharray:none;stroke-dashoffset:0;stroke-linecap:butt;stroke-linejoin:miter;stroke-miterlimit:4;stroke-opacity:1;stroke-width:.623622;stroke:none;vector-effect:none;visibility:visible;white-space:normal;writing-mode:lr-tb" d="m271.39447 417.60774c-1.11508.23077-1.65294 1.44437-1.23562 2.67653.41729 1.23213 1.65477 2.08097 2.77395 1.85071 1.11909-.23025 1.65331-1.44417 1.2329-2.67753-.42041-1.23338-1.65616-2.08046-2.77123-1.84971zm.20392.61116c.77185-.15961 1.66231.42925 1.97912 1.35922.31682.93-.0827 1.7839-.85665 1.94325-.77385.15935-1.66516-.42848-1.98032-1.35784-.31515-.92934.0861-1.78503.85785-1.94463z" id="path35888-5-2"/><path style="baseline-shift:baseline;clip-rule:nonzero;color-interpolation-filters:linearRGB;color-interpolation:sRGB;color-rendering:auto;color:#000;direction:ltr;display:inline;dominant-baseline:auto;enable-background:accumulate;fill-opacity:1;fill-rule:nonzero;fill:#a0a5a6;image-rendering:auto;isolation:auto;mix-blend-mode:normal;opacity:1;overflow:visible;shape-padding:0;shape-rendering:auto;solid-color:#000000;solid-opacity:1;stroke-dasharray:none;stroke-dashoffset:0;stroke-linecap:butt;stroke-linejoin:miter;stroke-miterlimit:4;stroke-opacity:1;stroke-width:.623622;stroke:none;vector-effect:none;visibility:visible;white-space:normal;writing-mode:lr-tb" d="m268.52726 407.27887c-1.09481.28653-1.61825 1.53117-1.19938 2.74783.41882 1.21658 1.64392 2.00806 2.74096 1.72193 1.0968-.28607 1.6101-1.53139 1.18956-2.74893-.42055-1.21758-1.63637-2.00736-2.73114-1.72083zm.20172.60336c.75767-.19821 1.63423.34927 1.95128 1.26735.31708.91813-.0678 1.7952-.82653 1.99319-.75863.19797-1.64024-.34841-1.9564-1.26604-.31615-.91761.0741-1.79632.83165-1.9945z" id="path35890-4-5"/><path style="baseline-shift:baseline;clip-rule:nonzero;color-interpolation-filters:linearRGB;color-interpolation:sRGB;color-rendering:auto;color:#000;direction:ltr;display:inline;dominant-baseline:auto;enable-background:accumulate;fill-opacity:1;fill-rule:nonzero;fill:#a0a5a6;image-rendering:auto;isolation:auto;mix-blend-mode:normal;opacity:1;overflow:visible;shape-padding:0;shape-rendering:auto;solid-color:#000000;solid-opacity:1;stroke-dasharray:none;stroke-dashoffset:0;stroke-linecap:butt;stroke-linejoin:miter;stroke-miterlimit:4;stroke-opacity:1;stroke-width:.623622;stroke:none;vector-effect:none;visibility:visible;white-space:normal;writing-mode:lr-tb" d="m266.95281 397.16998c-1.13546.11306-1.90165 1.24426-1.73263 2.48973.16899 1.24539 1.2186 2.19813 2.35628 2.08551 1.13741-.11259 1.88999-1.24405 1.71941-2.49026-.17056-1.2462-1.20775-2.19803-2.34306-2.08498zm.0761.6177c.78575-.0782 1.53819.58657 1.66671 1.52627.12851.93974-.4248 1.73325-1.21165 1.8112-.78668.0779-1.54645-.58531-1.67413-1.52463-.12767-.93932.43349-1.73468 1.21907-1.81284z" id="path35892-1-5"/></g><g id="g35920-9-7"><g id="g35900-4-4"><path style="fill-opacity:1;fill:none;opacity:1;stroke-dasharray:none;stroke-dashoffset:0;stroke-linecap:round;stroke-linejoin:miter;stroke-miterlimit:4;stroke-opacity:1;stroke-width:2.72126;stroke:#000;vector-effect:none" d="m290.19875 438.21184c-4.91497-2.76515-14.75939-8.30652-14.75939-8.30652" id="path35896-0-3"/><path style="fill-opacity:1;fill:none;opacity:1;stroke-dasharray:none;stroke-dashoffset:0;stroke-linecap:round;stroke-linejoin:miter;stroke-miterlimit:4;stroke-opacity:1;stroke-width:1.96535;stroke:#484848;vector-effect:none" d="m290.19875 438.21184c-4.91497-2.76515-14.75939-8.30652-14.75939-8.30652" id="path35898-8-33"/></g><g id="g35906-3-5" transform="matrix(1.025689,0,0,1,-8.7280577,-9.9687505)" style="stroke-width:.987398"><path style="fill-opacity:1;fill:none;opacity:1;stroke-dasharray:none;stroke-dashoffset:0;stroke-linecap:round;stroke-linejoin:miter;stroke-miterlimit:4;stroke-opacity:1;stroke-width:2.68697;stroke:#000;vector-effect:none" d="m288.66479 438.17923c-2.65658-1.47888-6.01327-3.35324-9.24043-5.17662-3.05357-1.72529-5.44645-3.10115-5.44645-3.10115" id="path35902-2-6"/><path style="fill-opacity:1;fill:none;opacity:1;stroke-dasharray:none;stroke-dashoffset:0;stroke-linecap:round;stroke-linejoin:miter;stroke-miterlimit:4;stroke-opacity:1;stroke-width:1.94059;stroke:#484848;vector-effect:none" d="m288.66479 438.17923c-2.65658-1.47888-6.01327-3.35324-9.24043-5.17662-3.05357-1.72529-5.44645-3.10115-5.44645-3.10115" id="path35904-2-4"/></g><g style="stroke-width:.936586" transform="matrix(1.0782795,0,0,1.0572394,-25.092964,-45.065984)" id="g35912-9-3"><path style="fill-opacity:1;fill:none;opacity:1;stroke-dasharray:none;stroke-dashoffset:0;stroke-linecap:round;stroke-linejoin:miter;stroke-miterlimit:4;stroke-opacity:1;stroke-width:2.54869;stroke:#000;vector-effect:none" d="m287.36463 438.16201c-2.70486-1.50946-5.89322-3.30457-9.10776-5.15517-2.98285-1.71721-5.29065-3.08617-5.29065-3.08617" id="path35908-4-6"/><path style="fill-opacity:1;fill:none;opacity:1;stroke-dasharray:none;stroke-dashoffset:0;stroke-linecap:round;stroke-linejoin:miter;stroke-miterlimit:4;stroke-opacity:1;stroke-width:1.84072;stroke:#484848;vector-effect:none" d="m287.36463 438.16201c-2.70486-1.50946-5.89322-3.30457-9.10776-5.15517-2.98285-1.71721-5.29065-3.08617-5.29065-3.08617" id="path35910-0-3"/></g><g id="g35918-5-87" transform="matrix(1.106252,0,0,0.97422031,-33.926354,-19.43417)" style="stroke-width:.963262"><path style="fill-opacity:1;fill:none;opacity:1;stroke-dasharray:none;stroke-dashoffset:0;stroke-linecap:round;stroke-linejoin:miter;stroke-miterlimit:4;stroke-opacity:1;stroke-width:2.62129;stroke:#000;vector-effect:none" d="m286.25619 438.15055c-2.64921-1.51239-5.68935-3.27351-8.79351-5.1253-2.86172-1.70716-5.06017-3.06896-5.06017-3.06896" id="path35914-1-3"/><path style="fill-opacity:1;fill:none;opacity:1;stroke-dasharray:none;stroke-dashoffset:0;stroke-linecap:round;stroke-linejoin:miter;stroke-miterlimit:4;stroke-opacity:1;stroke-width:1.89315;stroke:#484848;vector-effect:none" d="m286.25619 438.15055c-2.64921-1.51239-5.68935-3.27351-8.79351-5.1253-2.86172-1.70716-5.06017-3.06896-5.06017-3.06896" id="path35916-1-3"/></g></g><g id="g35938-5-0" style="display:inline;stroke-width:1.11601"><path style="fill-opacity:1;fill:none;opacity:1;stroke-dasharray:none;stroke-dashoffset:0;stroke-linecap:round;stroke-linejoin:miter;stroke-miterlimit:4;stroke-opacity:1;stroke-width:3.03696;stroke:#000;vector-effect:none" d="m279.2031 439.70272c2.75295-3.77835 8.2237-11.43062 8.2237-11.43062" id="path35922-9-3"/><path style="fill-opacity:1;fill:none;opacity:1;stroke-dasharray:none;stroke-dashoffset:0;stroke-linecap:round;stroke-linejoin:miter;stroke-miterlimit:4;stroke-opacity:1;stroke-width:2.19336;stroke:#484848;vector-effect:none" d="m279.2031 439.70272c2.75295-3.77835 8.2237-11.43062 8.2237-11.43062" id="path35924-8-4"/><path style="fill-opacity:1;fill:none;opacity:1;stroke-dasharray:none;stroke-dashoffset:0;stroke-linecap:round;stroke-linejoin:miter;stroke-miterlimit:4;stroke-opacity:1;stroke-width:3.03696;stroke:#000;vector-effect:none" d="m275.6243 429.90564c1.68371-2.20786 3.55376-4.67075 5.65932-7.37822 1.91432-2.46156 3.49555-4.43406 3.49555-4.43406" id="path35926-1-4"/><path style="fill-opacity:1;fill:none;opacity:1;stroke-dasharray:none;stroke-dashoffset:0;stroke-linecap:round;stroke-linejoin:miter;stroke-miterlimit:4;stroke-opacity:1;stroke-width:2.19336;stroke:#484848;vector-effect:none" d="m275.6243 429.90564c1.68371-2.20786 3.55376-4.67075 5.65932-7.37822 1.91432-2.46156 3.49555-4.43406 3.49555-4.43406" id="path35928-9-9"/><path style="fill-opacity:1;fill:none;opacity:1;stroke-dasharray:none;stroke-dashoffset:0;stroke-linecap:round;stroke-linejoin:miter;stroke-miterlimit:4;stroke-opacity:1;stroke-width:3.03696;stroke:#000;vector-effect:none" d="m272.32007 419.74577c1.9048-2.32368 4.04211-4.90451 6.49854-7.75124 2.23096-2.58544 4.10313-4.6557 4.10313-4.6557" id="path35930-9-99"/><path style="fill-opacity:1;fill:none;opacity:1;stroke-dasharray:none;stroke-dashoffset:0;stroke-linecap:round;stroke-linejoin:miter;stroke-miterlimit:4;stroke-opacity:1;stroke-width:2.19336;stroke:#484848;vector-effect:none" d="m272.32007 419.74577c1.9048-2.32368 4.04211-4.90451 6.49854-7.75124 2.23096-2.58544 4.10313-4.6557 4.10313-4.6557" id="path35932-6-34"/><path style="fill-opacity:1;fill:none;opacity:1;stroke-dasharray:none;stroke-dashoffset:0;stroke-linecap:round;stroke-linejoin:miter;stroke-miterlimit:4;stroke-opacity:1;stroke-width:3.03696;stroke:#000;vector-effect:none" d="m269.37103 409.48223c2.17291-2.29003 4.61478-4.8114 7.46369-7.61402 2.58152-2.53957 4.75789-4.57147 4.75789-4.57147" id="path35934-5-62"/><path style="fill-opacity:1;fill:none;opacity:1;stroke-dasharray:none;stroke-dashoffset:0;stroke-linecap:round;stroke-linejoin:miter;stroke-miterlimit:4;stroke-opacity:1;stroke-width:2.19336;stroke:#484848;vector-effect:none" d="m269.37103 409.48223c2.17291-2.29003 4.61478-4.8114 7.46369-7.61402 2.58152-2.53957 4.75789-4.57147 4.75789-4.57147" id="path35936-2-0"/></g></g><g id="g35948-8-3" style="filter:url(#filter11746-2-8-4)" clip-path="url(#clipPath11748-6-3-2)"><path style="display:inline;fill-opacity:.294258;fill:#373e40;opacity:1;stroke-dasharray:none;stroke-dashoffset:0;stroke-linecap:butt;stroke-linejoin:miter;stroke-miterlimit:4;stroke-opacity:1;stroke-width:.453543;stroke:none;vector-effect:none" d="m330.91584 378.87873c10.75798-3.74252 16.63202-2.96525 19.2155.39641 2.589 3.36885 1.89195 9.3422-.65834 16.04659-2.52935 6.64936-6.95559 14.18433-11.75049 20.3693-4.82926 6.22929-10.16737 11.28292-15.18563 13.1859-6.52128 2.43527-14.65237 1.56138-21.98477-3.93813-6.98513-5.23906-14.37842-15.85722-15.09942-31.54106 4.96133-1.32509 13.65707-3.5851 21.79475-5.98789 8.45172-2.49552 17.26867-5.41277 23.6684-8.53112z" id="path35942-7-5"/><path style="display:inline;fill-opacity:.294258;fill:#373e40;opacity:1;stroke-dasharray:none;stroke-dashoffset:0;stroke-linecap:butt;stroke-linejoin:miter;stroke-miterlimit:4;stroke-opacity:1;stroke-width:.453543;stroke:none;vector-effect:none" d="m328.20016 383.72803c8.58937-3.00336 13.35722-2.37738 15.45967.31299 2.10744 2.69676 1.57298 7.48415-.4372 12.84892-3.97573 10.61039-13.75675 23.9009-21.61232 26.84437-5.27954 1.94814-11.87427 1.25226-17.74225-3.14635-5.66171-4.244-11.29224-12.62909-12.03816-25.24326 8.19465-2.15115 26.42901-6.7357 36.37026-11.61667z" id="path35944-9-97"/><path style="display:inline;fill-opacity:.294258;fill:#373e40;opacity:1;stroke-dasharray:none;stroke-dashoffset:0;stroke-linecap:butt;stroke-linejoin:miter;stroke-miterlimit:4;stroke-opacity:1;stroke-width:.453543;stroke:none;vector-effect:none" d="m323.72209 383.38492c6.86746-2.4055 10.68926-1.90808 12.36348.24197 1.67749 2.15425 1.22952 5.9829-.40723 10.2702-3.24326 8.49543-11.1814 19.08597-17.62812 21.45718-4.30186 1.55839-9.66553 1.00748-14.32769-2.50491-4.54403-3.4234-8.76537-10.04949-9.18519-20.17064 6.72212-1.74174 21.1839-5.36262 29.18475-9.2938z" id="path35946-4-9"/></g><g id="g35970-6-7"><path style="display:inline;fill-opacity:.821306;fill:none;opacity:1;stroke-dasharray:none;stroke-dashoffset:0;stroke-linecap:butt;stroke-linejoin:miter;stroke-miterlimit:4;stroke-opacity:.986965;stroke-width:.755906;stroke:#000;vector-effect:none" d="m371.12831 371.03548c-10.48223 9.01953-23.17655 16.67866-36.99444 22.93133-13.75092 6.22237-28.49801 10.99313-43.08862 14.07079" id="path35950-2-2"/><path style="display:inline;fill-opacity:.821306;fill:none;opacity:1;stroke-dasharray:none;stroke-dashoffset:0;stroke-linecap:butt;stroke-linejoin:miter;stroke-miterlimit:4;stroke-opacity:1;stroke-width:.755906;stroke:#000;vector-effect:none" d="m364.54464 358.45639c-11.7766 10.05834-26.61373 18.27932-42.8696 24.60147-16.167 6.28759-33.40705 10.55297-49.69453 12.51792-16.68831 2.0133-25.85051-.35757-31.25265-3.49618-5.27405-3.06419-7.17638-7.09611-7.65988-8.0024" id="path35952-0-8"/><path style="display:inline;fill-opacity:.821306;fill:none;opacity:1;stroke-dasharray:none;stroke-dashoffset:0;stroke-linecap:butt;stroke-linejoin:miter;stroke-miterlimit:4;stroke-opacity:1;stroke-width:.755906;stroke:#000;vector-effect:none" d="m263.55808 411.1327c-13.14261.69314-20.85601-1.94036-25.51769-4.97502-4.55829-2.96735-6.43902-6.55272-7.21607-7.42792" id="path35954-9-5"/><path style="fill-opacity:1;fill:none;opacity:1;stroke-dasharray:none;stroke-dashoffset:0;stroke-linecap:butt;stroke-linejoin:miter;stroke-miterlimit:4;stroke-opacity:1;stroke-width:.755906;stroke:#060000;vector-effect:none" d="m371.82851 372.53821c-5.87396 5.22188-14.6935 10.91274-23.17624 15.70667-8.34252 4.71469-16.00118 8.36793-19.01499 9.07417.11221.48316.21419.91584.23948 1.01969.98543 4.0453 2.0491 8.3455 5.85327 22.22356 3.27492 11.94733 7.09205 25.71943 9.31463 38.85478" id="path35956-7-9"/><path style="fill-opacity:1;fill:none;opacity:1;stroke-dasharray:none;stroke-dashoffset:0;stroke-linecap:butt;stroke-linejoin:miter;stroke-miterlimit:4;stroke-opacity:1;stroke-width:.755906;stroke:#040000;vector-effect:none" d="m230.49926 400.15246c1.69563 2.78872 6.08626 6.73962 7.47912 7.44546-.29886 3.14409-.8951 10.57892-1.59794 19.99104-.75869 10.16013-1.55348 20.05495-3.02232 31.86863" id="path35958-1-6"/><path style="fill-opacity:1;fill:none;opacity:1;stroke-dasharray:none;stroke-dashoffset:0;stroke-linecap:butt;stroke-linejoin:miter;stroke-miterlimit:4;stroke-opacity:1;stroke-width:.755906;stroke:#060000;vector-effect:none" d="m332.89447 409.98962c8.26182-.77329 21.04244-1.30924 32.44668-2.30472 11.47516-1.00167 21.307-2.44659 24.97024-5.12313" id="path35960-5-7"/><path style="fill-opacity:1;fill:none;opacity:1;stroke-dasharray:none;stroke-dashoffset:0;stroke-linecap:butt;stroke-linejoin:miter;stroke-miterlimit:4;stroke-opacity:1;stroke-width:.755906;stroke:#000;vector-effect:none" d="m237.00133 418.28518c-3.50955 1.38027-6.98594 2.09859-10.32239 2.4828" id="path35962-7-1"/><path style="fill-opacity:1;fill:none;opacity:1;stroke-dasharray:none;stroke-dashoffset:0;stroke-linecap:butt;stroke-linejoin:miter;stroke-miterlimit:4;stroke-opacity:1;stroke-width:.755906;stroke:#000;vector-effect:none" d="m286.75059 445.49595c1.85563 4.61363 3.17543 8.65131 5.87499 13.94112" id="path35964-8-4"/><path style="fill-opacity:1;fill:none;opacity:1;stroke-dasharray:none;stroke-dashoffset:0;stroke-linecap:butt;stroke-linejoin:miter;stroke-miterlimit:4;stroke-opacity:1;stroke-width:.755906;stroke:#000;vector-effect:none" d="m236.92074 419.65783c-3.57786 1.39599-7.1312 2.11363-10.54618 2.49292" id="path35966-4-5"/><path style="fill-opacity:1;fill:none;opacity:1;stroke-dasharray:none;stroke-dashoffset:0;stroke-linecap:butt;stroke-linejoin:miter;stroke-miterlimit:4;stroke-opacity:1;stroke-width:.755906;stroke:#060000;vector-effect:none" d="m333.21993 411.32518c8.38044-.78598 21.42183-1.32645 32.9486-2.35528 11.59723-1.03511 21.41523-2.54209 24.7118-5.34848" id="path35968-3-8"/></g></svg>