<svg viewBox="0 0 560 1e3"><defs><filter style="color-interpolation-filters:sRGB" id="filter11746"><feGaussianBlur stdDeviation="5.48 5.22" result="blur" id="feGaussianBlur11744"/></filter><clipPath clipPathUnits="userSpaceOnUse" id="clipPath11748"><path d="m402.04135 437.32717c-2.71181-22.47351-13.4586-37.47502-24.43313-54.38031-5.14872-7.93116-7.81073-16.2984-13.80729-25.67932-20.2068 18.72451-47.27309 31.26623-77.47869 35.88748-.40169 4.48931-25.06334 64.00074 7.84709 59.36545z" id="path11750" style="fill-opacity:.22488038;fill:#0ff"/></clipPath><clipPath clipPathUnits="userSpaceOnUse" id="clipPath11748-6-2-7"><path d="m402.04135 437.32717c-2.71181-22.47351-13.4586-37.47502-24.43313-54.38031-5.14872-7.93116-7.81073-16.2984-13.80729-25.67932-20.2068 18.72451-47.27309 31.26623-77.47869 35.88748-.40169 4.48931-25.06334 64.00074 7.84709 59.36545z" id="path11750-1-4-8" style="fill-opacity:.22488038;fill:#0ff"/></clipPath><filter style="color-interpolation-filters:sRGB" id="filter11746-2-7-7"><feGaussianBlur stdDeviation="5.48 5.22" result="blur" id="feGaussianBlur11744-4-4-2"/></filter></defs><path style="fill:#010101" d="m363.30836 356.69018c-13.06087 10.03991-30.46706 18.04005-49.32569 24.24552-18.59475 6.11864-37.92426 10.24555-54.12134 12.10701-16.5822 1.90573-24.07399-.3456-28.31923-3.39035-3.99621-2.86615-5.39137-6.9516-5.7017-7.75918-.83403 9.88025-.55575 18.27045-.71471 27.92354-.16054 9.74923-.7982 17.24328-2.4793 25.80598-1.54676 7.89914-3.5703 16.23415-4.60591 23.78932.12625.01.34964 1e-5.34964 1e-5 1.02093-7.60935 2.93926-15.72073 4.46959-23.69674 1.82019-9.48678 2.30092-17.47021 2.41377-26.7108.11214-9.18241-.11471-17.29533.64293-26.76237.30835.80025 1.6944 5.00842 5.68958 7.97606 4.24539 3.15349 11.75764 5.51382 28.30518 3.60733 16.15874-1.8617 35.44279-6.02343 54.02988-12.17461 18.85085-6.23848 36.29559-14.27157 49.38687-24.31154 5.46073 9.16804 8.33638 17.47304 13.9559 25.40265 6.23705 8.801 11.58928 16.14973 16.09311 25.22057 4.2869 8.63395 7.41136 18.21439 8.69297 29.3632.6287 5.46896-.21644 13.73426-1.38425 22.08633.14607.01.40818.0.40818.0 1.15946-8.34971 1.99406-16.60839 1.3609-22.08716-1.28753-11.14147-4.44173-20.76671-8.74571-29.42712-4.52838-9.11194-9.89177-16.47739-16.12485-25.28685-5.61072-7.92987-8.85439-16.75722-14.27581-25.9208z" id="path35836-1-7"/><path style="fill-opacity:1;fill:#232323" d="m363.32792 357.33936c-13.09128 10.03997-30.53602 18.07306-49.38687 24.31154-18.58709 6.15118-37.87114 10.31291-54.02988 12.17461-16.54754 1.90649-24.05979-.45384-28.30518-3.60733-3.99518-2.96764-5.38123-7.17581-5.68958-7.97606-.75764 9.46704-.53079 17.57996-.64293 26.76237-.11285 9.24059-.59358 17.22402-2.41377 26.7108-1.53033 7.97601-3.44866 16.08739-4.46959 23.69674 60.79328.0107 182.29553 8e-5 182.29553 8e-5 1.16781-8.35207 2.01295-16.61737 1.38425-22.08633-1.28161-11.14881-4.40607-20.72925-8.69297-29.3632-4.50383-9.07084-9.85606-16.41957-16.09311-25.22057-5.61952-7.92961-8.49517-16.23461-13.9559-25.40265z" id="path35838-2-94"/><g id="g35940-4-0"><g id="g35870-4-4"><g style="stroke-width:.963262" transform="matrix(0.89206961,-0.65422114,0.57613954,0.78560069,-217.29918,284.46538)" id="g35844-0-13"><path style="fill-opacity:1;fill:none;opacity:1;stroke-dasharray:none;stroke-dashoffset:0;stroke-linecap:butt;stroke-linejoin:miter;stroke-miterlimit:4;stroke-opacity:1;stroke-width:2.62129;stroke:#000;vector-effect:none" d="m283.95625 432.31823c-1.51462-.93802-4.50929-2.82856-4.50929-2.82856" id="path35840-3-66"/><path style="baseline-shift:baseline;clip-rule:nonzero;color-interpolation-filters:linearRGB;color-interpolation:sRGB;color-rendering:auto;color:#000;direction:ltr;display:inline;dominant-baseline:auto;enable-background:accumulate;fill-opacity:1;fill-rule:nonzero;fill:#484848;image-rendering:auto;isolation:auto;mix-blend-mode:normal;opacity:1;overflow:visible;shape-padding:0;shape-rendering:auto;solid-color:#000000;solid-opacity:1;stroke-dasharray:none;stroke-dashoffset:0;stroke-linecap:butt;stroke-linejoin:miter;stroke-miterlimit:4;stroke-opacity:1;stroke-width:1.89281;stroke:none;vector-effect:none;visibility:visible;white-space:normal;writing-mode:lr-tb" d="m279.96567 428.58227c-.0873.76389-.28927 2.21929-.28927 2.21929 1.46937.83873 2.32809 1.60157 3.79747 2.44029.12504-.70393.34773-2.18122.34773-2.18122-1.48907-.85282-2.38195-1.63839-3.85593-2.47836z" id="path35842-3-8"/></g><g id="g35850-8-4" transform="matrix(0.89206961,-0.65422114,0.57613954,0.78560069,-218.56553,274.78481)" style="stroke-width:.963262"><path style="fill-opacity:1;fill:none;opacity:1;stroke-dasharray:none;stroke-dashoffset:0;stroke-linecap:butt;stroke-linejoin:miter;stroke-miterlimit:4;stroke-opacity:1;stroke-width:2.62129;stroke:#000;vector-effect:none" d="m280.97501 429.6778c-1.52814-.94663-4.50347-2.81994-4.50347-2.81994" id="path35846-2-4"/><path style="baseline-shift:baseline;clip-rule:nonzero;color-interpolation-filters:linearRGB;color-interpolation:sRGB;color-rendering:auto;color:#000;direction:ltr;display:inline;dominant-baseline:auto;enable-background:accumulate;fill-opacity:1;fill-rule:nonzero;fill:#484848;image-rendering:auto;isolation:auto;mix-blend-mode:normal;opacity:1;overflow:visible;shape-padding:0;shape-rendering:auto;solid-color:#000000;solid-opacity:1;stroke-dasharray:none;stroke-dashoffset:0;stroke-linecap:butt;stroke-linejoin:miter;stroke-miterlimit:4;stroke-opacity:1;stroke-width:1.89281;stroke:none;vector-effect:none;visibility:visible;white-space:normal;writing-mode:lr-tb" d="m276.95028 425.91806c-.0643.77896-.20977 2.28359-.20977 2.28359 1.46507.83141 2.30132 1.57891 3.79209 2.43242.0971-.72969.27352-2.24082.27352-2.24082-1.49303-.85532-2.3917-1.64471-3.85584-2.47519z" id="path35848-2-95"/></g><g style="stroke-width:.963262" transform="matrix(0.89206961,-0.65422114,0.57613954,0.78560069,-220.46258,264.74837)" id="g35856-9-8"><path style="fill-opacity:1;fill:none;opacity:1;stroke-dasharray:none;stroke-dashoffset:0;stroke-linecap:butt;stroke-linejoin:miter;stroke-miterlimit:4;stroke-opacity:1;stroke-width:2.62129;stroke:#000;vector-effect:none" d="m278.92127 427.52092c-1.91146-1.1608-5.63363-3.43402-5.63363-3.43402" id="path35852-7-5"/><path style="baseline-shift:baseline;clip-rule:nonzero;color-interpolation-filters:linearRGB;color-interpolation:sRGB;color-rendering:auto;color:#000;direction:ltr;display:inline;dominant-baseline:auto;enable-background:accumulate;fill-opacity:1;fill-rule:nonzero;fill:#484848;image-rendering:auto;isolation:auto;mix-blend-mode:normal;opacity:1;overflow:visible;shape-padding:0;shape-rendering:auto;solid-color:#000000;solid-opacity:1;stroke-dasharray:none;stroke-dashoffset:0;stroke-linecap:butt;stroke-linejoin:miter;stroke-miterlimit:4;stroke-opacity:1;stroke-width:1.89281;stroke:none;vector-effect:none;visibility:visible;white-space:normal;writing-mode:lr-tb" d="m273.59346 423.08033c-.0814.75768-.25021 2.23741-.25021 2.23741 1.45864.82548 3.53787 2.14541 5.04967 3.0166.10937-.71792.32054-2.18865.32054-2.18865-1.51658-.87527-3.6607-2.23927-5.12-3.06536z" id="path35854-1-0"/></g><g id="g35862-5-3" transform="matrix(0.89206961,-0.65422114,0.57613954,0.78560069,-221.32437,254.49532)" style="stroke-width:.963262"><path style="fill-opacity:1;fill:none;opacity:1;stroke-dasharray:none;stroke-dashoffset:0;stroke-linecap:butt;stroke-linejoin:miter;stroke-miterlimit:4;stroke-opacity:1;stroke-width:2.62129;stroke:#000;vector-effect:none" d="m276.23739 425.25021c-1.94811-1.19206-5.70841-3.49796-5.70841-3.49796" id="path35858-5-5"/><path style="baseline-shift:baseline;clip-rule:nonzero;color-interpolation-filters:linearRGB;color-interpolation:sRGB;color-rendering:auto;color:#000;direction:ltr;display:inline;dominant-baseline:auto;enable-background:accumulate;fill-opacity:1;fill-rule:nonzero;fill:#484848;image-rendering:auto;isolation:auto;mix-blend-mode:normal;opacity:1;overflow:visible;shape-padding:0;shape-rendering:auto;solid-color:#000000;solid-opacity:1;stroke-dasharray:none;stroke-dashoffset:0;stroke-linecap:butt;stroke-linejoin:miter;stroke-miterlimit:4;stroke-opacity:1;stroke-width:1.89281;stroke:none;vector-effect:none;visibility:visible;white-space:normal;writing-mode:lr-tb" d="m270.90803 420.81666c-.13171.71115-.39026 2.10109-.39026 2.10109 1.47204.83738 3.57517 2.17732 5.11697 3.07441.15416-.6716.46592-2.04743.46592-2.04743-1.54793-.9024-3.718-2.28828-5.19263-3.12807z" id="path35860-9-80"/></g><g style="stroke-width:.963262" transform="matrix(0.89206961,-0.65422114,0.57613954,0.78560069,-222.84907,244.08759)" id="g35868-1-89"><path style="fill-opacity:1;fill:none;opacity:1;stroke-dasharray:none;stroke-dashoffset:0;stroke-linecap:butt;stroke-linejoin:miter;stroke-miterlimit:4;stroke-opacity:1;stroke-width:2.62129;stroke:#000;vector-effect:none" d="m274.49128 423.88383c-1.98087-1.22048-5.77985-3.56131-5.77985-3.56131" id="path35864-7-2"/><path style="baseline-shift:baseline;clip-rule:nonzero;color-interpolation-filters:linearRGB;color-interpolation:sRGB;color-rendering:auto;color:#000;direction:ltr;display:inline;dominant-baseline:auto;enable-background:accumulate;fill-opacity:1;fill-rule:nonzero;fill:#484848;image-rendering:auto;isolation:auto;mix-blend-mode:normal;opacity:1;overflow:visible;shape-padding:0;shape-rendering:auto;solid-color:#000000;solid-opacity:1;stroke-dasharray:none;stroke-dashoffset:0;stroke-linecap:butt;stroke-linejoin:miter;stroke-miterlimit:4;stroke-opacity:1;stroke-width:1.89281;stroke:none;vector-effect:none;visibility:visible;white-space:normal;writing-mode:lr-tb" d="m269.20042 419.49038c-.20618.64114-.6049 1.89888-.6049 1.89888 1.48887.85307 3.61339 2.21166 5.18423 3.13427.22405-.6056.68416-1.84175.68416-1.84175-1.57753-.9285-3.77041-2.33439-5.26349-3.1914z" id="path35866-3-1"/></g></g><path style="fill-opacity:1;fill:#232323;opacity:1;stroke-dasharray:none;stroke-dashoffset:0;stroke-linecap:butt;stroke-linejoin:miter;stroke-miterlimit:4;stroke-opacity:1;stroke-width:.755906;stroke:#000;vector-effect:none" d="m248.776 396.01557c3.06903 12.57163 10.5871 24.51877 14.73565 31.06146 4.79315 7.55929 8.32076 12.76622 10.98939 17.16667.5425.85028 1.20437 1.20084 1.88936 1.09125.0.0 2.73576-.39332 4.10701-.59003 1.59828-.22929 4.00843.94954 5.60672.72025 1.57096-.22355 2.32214-1.85321 3.8931-2.07676 1.70515-.23017 5.10738-.72274 5.10738-.72274.49188-.0602.73633-.62087.53566-1.11322-3.73325-9.2153-8.28456-17.79171-11.39697-25.91402-3.15297-8.22816-4.9338-15.695-5.09123-23.31474-4.15722.76904-8.12405 1.44988-11.90868 2.0845-1.3985.23416-1.57233 1.07826-1.35717 2.09873.83327 3.66805 2.12303 7.77218 4.15686 12.59194 2.02158 4.79071 4.42303 9.45629 6.90776 14.07041 2.41634 4.48713 4.66567 8.53983 6.19941 11.46585 1.53352 2.92561 2.38937 4.726 2.38937 4.726.88213 1.8242-.2593 3.07598-.99389 3.23748-1.39123.30588-3.7373-1.15982-4.44372-2.51578-3.73664-7.18061-10.64532-17.97476-15.17421-26.86659-4.55178-8.93677-6.41342-15.89302-6.41342-15.89302-.24861-1.04291-.99054-1.69409-1.90529-1.65787-2.66557.23138-5.26322.38715-7.83309.35023z" id="path35872-3-7"/><g id="g35894-5-5"><path style="baseline-shift:baseline;clip-rule:nonzero;color-interpolation-filters:linearRGB;color-interpolation:sRGB;color-rendering:auto;color:#000;direction:ltr;display:inline;dominant-baseline:auto;enable-background:accumulate;fill-opacity:1;fill-rule:nonzero;fill:#a0a5a6;image-rendering:auto;isolation:auto;mix-blend-mode:normal;opacity:1;overflow:visible;shape-padding:0;shape-rendering:auto;solid-color:#000000;solid-opacity:1;stroke-dasharray:none;stroke-dashoffset:0;stroke-linecap:butt;stroke-linejoin:miter;stroke-miterlimit:4;stroke-opacity:1;stroke-width:.623622;stroke:none;vector-effect:none;visibility:visible;white-space:normal;writing-mode:lr-tb" d="m270.18036 394.77371c-1.28347.004-2.19747 1.04372-2.04047 2.28557.15698 1.2418 1.33155 2.27984 2.60841 2.27618 1.27632-.004 2.13484-1.04772 1.98223-2.29021-.15262-1.24256-1.26768-2.2757-2.55017-2.27154zm.0548.61493c.88731-.003 1.70099.72165 1.81661 1.65857.11562.93697-.51785 1.66648-1.40203 1.66906-.88352.003-1.73049-.72252-1.84844-1.65912-.11796-.93656.547-1.66568 1.43386-1.66851z" id="path35874-4-0"/><path style="baseline-shift:baseline;clip-rule:nonzero;color-interpolation-filters:linearRGB;color-interpolation:sRGB;color-rendering:auto;color:#000;direction:ltr;display:inline;dominant-baseline:auto;enable-background:accumulate;fill-opacity:1;fill-rule:nonzero;fill:#a0a5a6;image-rendering:auto;isolation:auto;mix-blend-mode:normal;opacity:1;overflow:visible;shape-padding:0;shape-rendering:auto;solid-color:#000000;solid-opacity:1;stroke-dasharray:none;stroke-dashoffset:0;stroke-linecap:butt;stroke-linejoin:miter;stroke-miterlimit:4;stroke-opacity:1;stroke-width:.623622;stroke:none;vector-effect:none;visibility:visible;white-space:normal;writing-mode:lr-tb" d="m272.36849 404.84174c-1.2763.003-2.00639 1.05175-1.64624 2.30548.36012 1.25368 1.68954 2.3023 2.95572 2.29975 1.26591-.003 1.95664-1.05541 1.60323-2.30973-.35341-1.25439-1.63725-2.29852-2.91271-2.2955zm.15925.62085c.882-.002 1.81289.73013 2.08026 1.67599.26739.94589-.24731 1.68157-1.12445 1.68338-.87658.002-1.8326-.73077-2.10357-1.67632-.27096-.94551.26606-1.681 1.14776-1.68305z" id="path35876-1-3"/><path style="baseline-shift:baseline;clip-rule:nonzero;color-interpolation-filters:linearRGB;color-interpolation:sRGB;color-rendering:auto;color:#000;direction:ltr;display:inline;dominant-baseline:auto;enable-background:accumulate;fill-opacity:1;fill-rule:nonzero;fill:#a0a5a6;image-rendering:auto;isolation:auto;mix-blend-mode:normal;opacity:1;overflow:visible;shape-padding:0;shape-rendering:auto;solid-color:#000000;solid-opacity:1;stroke-dasharray:none;stroke-dashoffset:0;stroke-linecap:butt;stroke-linejoin:miter;stroke-miterlimit:4;stroke-opacity:1;stroke-width:.623622;stroke:none;vector-effect:none;visibility:visible;white-space:normal;writing-mode:lr-tb" d="m276.43724 415.49971c-1.26355.002-1.84636 1.05928-1.33793 2.32379.50842 1.26447 1.93751 2.32229 3.18769 2.32075 1.25038-.002 1.8197-1.06195 1.32014-2.32694-.49958-1.26503-1.90702-2.31952-3.1699-2.3176zm.23956.62641c.8728-.001 1.88842.73807 2.2663 1.69198.37789.95394-.0496 1.69499-.91605 1.69609-.86602.001-1.89311-.73804-2.27573-1.69171-.38261-.95363.0527-1.69507.92548-1.69636z" id="path35878-0-2"/><path style="baseline-shift:baseline;clip-rule:nonzero;color-interpolation-filters:linearRGB;color-interpolation:sRGB;color-rendering:auto;color:#000;direction:ltr;display:inline;dominant-baseline:auto;enable-background:accumulate;fill-opacity:1;fill-rule:nonzero;fill:#a0a5a6;image-rendering:auto;isolation:auto;mix-blend-mode:normal;opacity:1;overflow:visible;shape-padding:0;shape-rendering:auto;solid-color:#000000;solid-opacity:1;stroke-dasharray:none;stroke-dashoffset:0;stroke-linecap:butt;stroke-linejoin:miter;stroke-miterlimit:4;stroke-opacity:1;stroke-width:.623622;stroke:none;vector-effect:none;visibility:visible;white-space:normal;writing-mode:lr-tb" d="m281.40747 425.75394c-1.1837.12834-1.53114 1.28587-.83847 2.55024.69265 1.26435 2.19368 2.2201 3.36531 2.09229 1.17241-.12791 1.5426-1.28755.85819-2.55171-.68439-1.26413-2.20171-2.2191-3.38503-2.09082zm.34116.62656c.81751-.0887 1.9057.57791 2.42292 1.53125.51722.95335.23343 1.76686-.57847 1.85537-.81176.0885-1.89027-.57663-2.4119-1.53008-.52162-.95346-.25036-1.76779.56745-1.85654z" id="path35880-0-0"/><path style="baseline-shift:baseline;clip-rule:nonzero;color-interpolation-filters:linearRGB;color-interpolation:sRGB;color-rendering:auto;color:#000;direction:ltr;display:inline;dominant-baseline:auto;enable-background:accumulate;fill-opacity:1;fill-rule:nonzero;fill:#a0a5a6;image-rendering:auto;isolation:auto;mix-blend-mode:normal;opacity:1;overflow:visible;shape-padding:0;shape-rendering:auto;solid-color:#000000;solid-opacity:1;stroke-dasharray:none;stroke-dashoffset:0;stroke-linecap:butt;stroke-linejoin:miter;stroke-miterlimit:4;stroke-opacity:1;stroke-width:.623622;stroke:none;vector-effect:none;visibility:visible;white-space:normal;writing-mode:lr-tb" d="m286.84303 435.85893c-1.14228.17383-1.45498 1.36495-.78334 2.62428.67164 1.25934 2.1056 2.17396 3.24573 2.00061 1.14162-.17359 1.51723-1.36359.84643-2.62336-.67069-1.25956-2.16671-2.17531-3.30882-2.00153zm.34433.62477c.78951-.12017 1.85856.51775 2.36467 1.46764.50611.94987.22219 1.7861-.56696 1.90613-.78927.12005-1.82381-.51555-2.33036-1.4652-.50662-.94977-.2576-1.7883.53265-1.90857z" id="path35882-7-6"/><path style="baseline-shift:baseline;clip-rule:nonzero;color-interpolation-filters:linearRGB;color-interpolation:sRGB;color-rendering:auto;color:#000;direction:ltr;display:inline;dominant-baseline:auto;enable-background:accumulate;fill-opacity:1;fill-rule:nonzero;fill:#a0a5a6;image-rendering:auto;isolation:auto;mix-blend-mode:normal;opacity:1;overflow:visible;shape-padding:0;shape-rendering:auto;solid-color:#000000;solid-opacity:1;stroke-dasharray:none;stroke-dashoffset:0;stroke-linecap:butt;stroke-linejoin:miter;stroke-miterlimit:4;stroke-opacity:1;stroke-width:.623622;stroke:none;vector-effect:none;visibility:visible;white-space:normal;writing-mode:lr-tb" d="m275.41543 437.54945c-.96763.38747-1.00093 1.70571-.15174 2.90792.84915 1.20217 2.31636 1.90308 3.31416 1.51363.99879-.38984 1.08308-1.7009.20874-2.90721-.87403-1.20587-2.40348-1.90183-3.37116-1.51434zm.4392.59732c.67176-.26816 1.76032.21143 2.41703 1.1205.65669.90903.57875 1.83561-.10869 2.10494-.68759.26942-1.74213-.21132-2.38542-1.11824-.64348-.90716-.59516-1.83883.0771-2.1072z" id="path35884-8-6"/><path style="baseline-shift:baseline;clip-rule:nonzero;color-interpolation-filters:linearRGB;color-interpolation:sRGB;color-rendering:auto;color:#000;direction:ltr;display:inline;dominant-baseline:auto;enable-background:accumulate;fill-opacity:1;fill-rule:nonzero;fill:#a0a5a6;image-rendering:auto;isolation:auto;mix-blend-mode:normal;opacity:1;overflow:visible;shape-padding:0;shape-rendering:auto;solid-color:#000000;solid-opacity:1;stroke-dasharray:none;stroke-dashoffset:0;stroke-linecap:butt;stroke-linejoin:miter;stroke-miterlimit:4;stroke-opacity:1;stroke-width:.623622;stroke:none;vector-effect:none;visibility:visible;white-space:normal;writing-mode:lr-tb" d="m269.58758 427.54388c-1.04579.24554-1.19715 1.481-.39712 2.72502.79998 1.24397 2.29289 2.09082 3.34954 1.84491 1.05727-.24605 1.22884-1.48133.42017-2.72638-.80858-1.24493-2.32696-2.08904-3.37259-1.84355zm.39968.6168c.72424-.16988 1.80938.41665 2.41846 1.35538.60911.93877.46657 1.80814-.26352 1.97829-.73005.17013-1.80098-.41597-2.40546-1.35418-.60452-.93827-.47398-1.80955.25052-1.97949z" id="path35886-4-8"/><path style="baseline-shift:baseline;clip-rule:nonzero;color-interpolation-filters:linearRGB;color-interpolation:sRGB;color-rendering:auto;color:#000;direction:ltr;display:inline;dominant-baseline:auto;enable-background:accumulate;fill-opacity:1;fill-rule:nonzero;fill:#a0a5a6;image-rendering:auto;isolation:auto;mix-blend-mode:normal;opacity:1;overflow:visible;shape-padding:0;shape-rendering:auto;solid-color:#000000;solid-opacity:1;stroke-dasharray:none;stroke-dashoffset:0;stroke-linecap:butt;stroke-linejoin:miter;stroke-miterlimit:4;stroke-opacity:1;stroke-width:.623622;stroke:none;vector-effect:none;visibility:visible;white-space:normal;writing-mode:lr-tb" d="m263.48869 417.29907c-1.049.22938-1.25994 1.44827-.51093 2.68991.74892 1.24151 2.21359 2.09941 3.26649 1.86974 1.0529-.22968 1.25381-1.45126.50184-2.69296-.75196-1.2417-2.20865-2.09601-3.2574-1.86669zm.36312.61498c.72596-.15871 1.77032.43545 2.33728 1.37179.56702.93643.40181 1.79547-.32626 1.95435-.72787.15885-1.77641-.43515-2.3418-1.37149-.56539-.93631-.39511-1.79595.33078-1.95465z" id="path35888-5-0"/><path style="baseline-shift:baseline;clip-rule:nonzero;color-interpolation-filters:linearRGB;color-interpolation:sRGB;color-rendering:auto;color:#000;direction:ltr;display:inline;dominant-baseline:auto;enable-background:accumulate;fill-opacity:1;fill-rule:nonzero;fill:#a0a5a6;image-rendering:auto;isolation:auto;mix-blend-mode:normal;opacity:1;overflow:visible;shape-padding:0;shape-rendering:auto;solid-color:#000000;solid-opacity:1;stroke-dasharray:none;stroke-dashoffset:0;stroke-linecap:butt;stroke-linejoin:miter;stroke-miterlimit:4;stroke-opacity:1;stroke-width:.623622;stroke:none;vector-effect:none;visibility:visible;white-space:normal;writing-mode:lr-tb" d="m258.28555 406.93863c-1.02725.28314-1.2955 1.52464-.62509 2.74426.67026 1.21936 2.05779 2.01569 3.08102 1.73219 1.02277-.28336 1.26149-1.52985.59447-2.74821-.66703-1.21842-2.02342-2.01131-3.0504-1.72824zm.31539.60351c.71026-.19594 1.68545.35403 2.18901 1.27292.50366.91904.31127 1.79643-.39691 1.99252-.70788.19602-1.70004-.35357-2.20544-1.27315-.50536-.91951-.29662-1.79643.41334-1.99229z" id="path35890-4-6"/><path style="baseline-shift:baseline;clip-rule:nonzero;color-interpolation-filters:linearRGB;color-interpolation:sRGB;color-rendering:auto;color:#000;direction:ltr;display:inline;dominant-baseline:auto;enable-background:accumulate;fill-opacity:1;fill-rule:nonzero;fill:#a0a5a6;image-rendering:auto;isolation:auto;mix-blend-mode:normal;opacity:1;overflow:visible;shape-padding:0;shape-rendering:auto;solid-color:#000000;solid-opacity:1;stroke-dasharray:none;stroke-dashoffset:0;stroke-linecap:butt;stroke-linejoin:miter;stroke-miterlimit:4;stroke-opacity:1;stroke-width:.623622;stroke:none;vector-effect:none;visibility:visible;white-space:normal;writing-mode:lr-tb" d="m255.29784 396.87063c-1.10927.10792-1.74858 1.22646-1.43694 2.46506.31158 1.2384 1.47064 2.19039 2.57548 2.08234 1.10423-.10798 1.70068-1.23153 1.39221-2.46955-.30847-1.23807-1.42211-2.18571-2.53075-2.07785zm.13289.61302c.76688-.0747 1.5747.58762 1.80776 1.52127.23308.93376-.21225 1.72117-.97692 1.79591-.76418.0747-1.5977-.58779-1.83245-1.52176-.23474-.93391.23516-1.72079 1.00161-1.79542z" id="path35892-1-59"/></g><g id="g35920-9-0"><g id="g35900-4-0"><path style="fill-opacity:1;fill:none;opacity:1;stroke-dasharray:none;stroke-dashoffset:0;stroke-linecap:round;stroke-linejoin:miter;stroke-miterlimit:4;stroke-opacity:1;stroke-width:2.72126;stroke:#000;vector-effect:none" d="m288.0445 438.10847c-3.45398-1.71368-6.4598-3.18604-10.67958-5.25403-3.5799-1.7544-6.416-3.15275-6.416-3.15275" id="path35896-0-2"/><path style="fill-opacity:1;fill:none;opacity:1;stroke-dasharray:none;stroke-dashoffset:0;stroke-linecap:round;stroke-linejoin:miter;stroke-miterlimit:4;stroke-opacity:1;stroke-width:1.96535;stroke:#484848;vector-effect:none" d="m288.0445 438.10847c-3.45398-1.71368-6.4598-3.18604-10.67958-5.25403-3.5799-1.7544-6.416-3.15275-6.416-3.15275" id="path35898-8-38"/></g><g id="g35906-3-9" transform="matrix(1.025689,0,0,1,-8.7280577,-9.9687505)" style="stroke-width:.987398"><path style="fill-opacity:1;fill:none;opacity:1;stroke-dasharray:none;stroke-dashoffset:0;stroke-linecap:round;stroke-linejoin:miter;stroke-miterlimit:4;stroke-opacity:1;stroke-width:2.68697;stroke:#000;vector-effect:none" d="m283.97974 437.97989c-3.0956-1.48695-7.07397-3.40215-10.81056-5.23661-3.55569-1.74565-6.29997-3.13475-6.29997-3.13475" id="path35902-2-1"/><path style="fill-opacity:1;fill:none;opacity:1;stroke-dasharray:none;stroke-dashoffset:0;stroke-linecap:round;stroke-linejoin:miter;stroke-miterlimit:4;stroke-opacity:1;stroke-width:1.94059;stroke:#484848;vector-effect:none" d="m283.97974 437.97989c-3.0956-1.48695-7.07397-3.40215-10.81056-5.23661-3.55569-1.74565-6.29997-3.13475-6.29997-3.13475" id="path35904-2-1"/></g><g style="stroke-width:.936586" transform="matrix(1.0782795,0,0,1.0572394,-25.092964,-45.065984)" id="g35912-9-7"><path style="fill-opacity:1;fill:none;opacity:1;stroke-dasharray:none;stroke-dashoffset:0;stroke-linecap:round;stroke-linejoin:miter;stroke-miterlimit:4;stroke-opacity:1;stroke-width:2.54869;stroke:#000;vector-effect:none" d="m280.36402 437.9033c-3.17833-1.52774-6.87179-3.32948-10.54444-5.19738-3.40165-1.73009-5.95592-3.10556-5.95592-3.10556" id="path35908-4-3"/><path style="fill-opacity:1;fill:none;opacity:1;stroke-dasharray:none;stroke-dashoffset:0;stroke-linecap:round;stroke-linejoin:miter;stroke-miterlimit:4;stroke-opacity:1;stroke-width:1.84072;stroke:#484848;vector-effect:none" d="m280.36402 437.9033c-3.17833-1.52774-6.87179-3.32948-10.54444-5.19738-3.40165-1.73009-5.95592-3.10556-5.95592-3.10556" id="path35910-0-2"/></g><g id="g35918-5-84" transform="matrix(1.106252,0,0,0.97422031,-33.926354,-19.43417)" style="stroke-width:.963262"><path style="fill-opacity:1;fill:none;opacity:1;stroke-dasharray:none;stroke-dashoffset:0;stroke-linecap:round;stroke-linejoin:miter;stroke-miterlimit:4;stroke-opacity:1;stroke-width:2.62129;stroke:#000;vector-effect:none" d="m277.24139 437.8449c-3.01416-1.52488-6.38984-3.27953-9.76967-5.14006-3.10651-1.71006-5.40083-3.07135-5.40083-3.07135" id="path35914-1-1"/><path style="fill-opacity:1;fill:none;opacity:1;stroke-dasharray:none;stroke-dashoffset:0;stroke-linecap:round;stroke-linejoin:miter;stroke-miterlimit:4;stroke-opacity:1;stroke-width:1.89315;stroke:#484848;vector-effect:none" d="m277.24139 437.8449c-3.01416-1.52488-6.38984-3.27953-9.76967-5.14006-3.10651-1.71006-5.40083-3.07135-5.40083-3.07135" id="path35916-1-7"/></g></g><g id="g35938-5-4" style="display:inline;stroke-width:1.11601"><path style="fill-opacity:1;fill:none;opacity:1;stroke-dasharray:none;stroke-dashoffset:0;stroke-linecap:round;stroke-linejoin:miter;stroke-miterlimit:4;stroke-opacity:1;stroke-width:3.03696;stroke:#000;vector-effect:none" d="m277.30669 439.60317c1.09487-2.22216 2.12615-4.49309 3.35399-7.20326 1.08795-2.40139 1.97933-4.3265 1.97933-4.3265" id="path35922-9-5"/><path style="fill-opacity:1;fill:none;opacity:1;stroke-dasharray:none;stroke-dashoffset:0;stroke-linecap:round;stroke-linejoin:miter;stroke-miterlimit:4;stroke-opacity:1;stroke-width:2.19336;stroke:#484848;vector-effect:none" d="m277.30669 439.60317c1.09487-2.22216 2.12615-4.49309 3.35399-7.20326 1.08795-2.40139 1.97933-4.3265 1.97933-4.3265" id="path35924-8-8"/><path style="fill-opacity:1;fill:none;opacity:1;stroke-dasharray:none;stroke-dashoffset:0;stroke-linecap:round;stroke-linejoin:miter;stroke-miterlimit:4;stroke-opacity:1;stroke-width:3.03696;stroke:#000;vector-effect:none" d="m271.13424 429.7023c1.03395-2.16538 2.26896-4.77014 3.64749-7.4307 1.28161-2.47351 2.42853-4.45213 2.42853-4.45213" id="path35926-1-6"/><path style="fill-opacity:1;fill:none;opacity:1;stroke-dasharray:none;stroke-dashoffset:0;stroke-linecap:round;stroke-linejoin:miter;stroke-miterlimit:4;stroke-opacity:1;stroke-width:2.19336;stroke:#484848;vector-effect:none" d="m271.13424 429.7023c1.03395-2.16538 2.26896-4.77014 3.64749-7.4307 1.28161-2.47351 2.42853-4.45213 2.42853-4.45213" id="path35928-9-7"/><path style="fill-opacity:1;fill:none;opacity:1;stroke-dasharray:none;stroke-dashoffset:0;stroke-linecap:round;stroke-linejoin:miter;stroke-miterlimit:4;stroke-opacity:1;stroke-width:3.03696;stroke:#000;vector-effect:none" d="m264.97811 419.45171c1.26082-2.31459 2.76923-4.94127 4.64773-7.7661 1.71721-2.58228 3.31634-4.6439 3.31634-4.6439" id="path35930-9-5"/><path style="fill-opacity:1;fill:none;opacity:1;stroke-dasharray:none;stroke-dashoffset:0;stroke-linecap:round;stroke-linejoin:miter;stroke-miterlimit:4;stroke-opacity:1;stroke-width:2.19336;stroke:#484848;vector-effect:none" d="m264.97811 419.45171c1.26082-2.31459 2.76923-4.94127 4.64773-7.7661 1.71721-2.58228 3.31634-4.6439 3.31634-4.6439" id="path35932-6-9"/><path style="fill-opacity:1;fill:none;opacity:1;stroke-dasharray:none;stroke-dashoffset:0;stroke-linecap:round;stroke-linejoin:miter;stroke-miterlimit:4;stroke-opacity:1;stroke-width:3.03696;stroke:#000;vector-effect:none" d="m259.55857 409.14397c1.66563-2.27264 3.6764-4.80601 6.22139-7.57284 2.31603-2.51792 4.4539-4.52514 4.4539-4.52514" id="path35934-5-2"/><path style="fill-opacity:1;fill:none;opacity:1;stroke-dasharray:none;stroke-dashoffset:0;stroke-linecap:round;stroke-linejoin:miter;stroke-miterlimit:4;stroke-opacity:1;stroke-width:2.19336;stroke:#484848;vector-effect:none" d="m259.55857 409.14397c1.66563-2.27264 3.6764-4.80601 6.22139-7.57284 2.31603-2.51792 4.4539-4.52514 4.4539-4.52514" id="path35936-2-3"/></g></g><g id="g35948-8-0" style="filter:url(#filter11746-2-7-7)" clip-path="url(#clipPath11748-6-2-7)"><path style="display:inline;fill-opacity:.294258;fill:#373e40;opacity:1;stroke-dasharray:none;stroke-dashoffset:0;stroke-linecap:butt;stroke-linejoin:miter;stroke-miterlimit:4;stroke-opacity:1;stroke-width:.453543;stroke:none;vector-effect:none" d="m325.2115 378.89372c12.50544-3.72028 18.97259-2.9692 21.71171.36659 2.74568 3.34376 1.75915 9.28618-1.03811 15.96492-2.71844 6.49055-7.43501 14.2699-11.94044 20.32082-4.6291 6.217-9.51619 11.30391-14.45808 13.19981-6.45563 2.4361-15.0337 1.54976-24.08412-4.00559-4.44319-2.72732-9.2191-6.75065-13.20589-11.92991-3.95258-5.1348-7.43436-11.82012-8.10789-19.61388 5.60513-1.38731 14.34246-3.418 23.87654-5.87333 9.54307-2.45764 19.73798-5.33401 27.24628-8.42943z" id="path35942-7-6"/><path style="display:inline;fill-opacity:.294258;fill:#373e40;opacity:1;stroke-dasharray:none;stroke-dashoffset:0;stroke-linecap:butt;stroke-linejoin:miter;stroke-miterlimit:4;stroke-opacity:1;stroke-width:.453543;stroke:none;vector-effect:none" d="m321.81052 383.69239c9.94645-2.9816 15.29298-2.36001 17.57934.30584 2.29454 2.67539 1.58127 7.43932-.56941 12.77952-2.10184 5.21894-5.76534 11.39-9.41749 16.25131-3.73328 4.96931-7.77049 9.03129-11.84512 10.54556-5.31219 1.94199-12.41189 1.23744-19.65856-3.20228-6.67993-4.0925-15.41539-12.90811-16.86831-25.23216 4.07698-.98138 12.17284-2.86411 19.25224-4.70055 7.56656-1.96282 15.61365-4.27384 21.52731-6.74724z" id="path35944-9-2"/><path style="display:inline;fill-opacity:.294258;fill:#373e40;opacity:1;stroke-dasharray:none;stroke-dashoffset:0;stroke-linecap:butt;stroke-linejoin:miter;stroke-miterlimit:4;stroke-opacity:1;stroke-width:.453543;stroke:none;vector-effect:none" d="m316.74005 383.354c7.94986-2.38514 12.24491-1.89053 14.05047.23585 1.81084 2.13259 1.18348 5.93718-.62062 10.19662-1.77147 4.18241-4.80854 9.06887-7.91236 12.96333-3.1589 3.96357-6.60188 7.1994-10.0239 8.4076-4.44882 1.54547-10.36159.98896-16.07503-2.54744-5.39777-3.34102-11.59067-10.18369-12.28406-20.10197 7.00247-1.63788 23.71759-5.33104 32.8655-9.15399z" id="path35946-4-46"/></g><g id="g35970-6-10"><path style="display:inline;fill-opacity:.821306;fill:none;opacity:1;stroke-dasharray:none;stroke-dashoffset:0;stroke-linecap:butt;stroke-linejoin:miter;stroke-miterlimit:4;stroke-opacity:.986965;stroke-width:.755906;stroke:#000;vector-effect:none" d="m370.47591 371.02358c-11.62242 9.0403-26.34818 16.60913-42.066 22.83002-15.51568 6.14088-31.85369 10.90148-46.76754 13.90929" id="path35950-2-6"/><path style="display:inline;fill-opacity:.821306;fill:none;opacity:1;stroke-dasharray:none;stroke-dashoffset:0;stroke-linecap:butt;stroke-linejoin:miter;stroke-miterlimit:4;stroke-opacity:1;stroke-width:.755906;stroke:#000;vector-effect:none" d="m364.10777 358.51825c-13.18073 10.12145-30.74565 18.22411-49.67072 24.51294-18.66569 6.20263-37.9965 10.39989-54.24743 12.27813-16.6469 1.924-24.29357-.45742-28.60326-3.63584-4.05841-2.9931-5.45251-7.2327-5.76352-8.04104" id="path35952-0-5"/><path style="display:inline;fill-opacity:.821306;fill:none;opacity:1;stroke-dasharray:none;stroke-dashoffset:0;stroke-linecap:butt;stroke-linejoin:miter;stroke-miterlimit:4;stroke-opacity:1;stroke-width:.755906;stroke:#000;vector-effect:none" d="m254.24071 410.77978c-12.46867.65673-19.24285-2.0027-23.15051-5.06834-3.72966-2.926-5.20638-6.67376-5.69895-7.48801" id="path35954-9-4"/><path style="fill-opacity:1;fill:none;opacity:1;stroke-dasharray:none;stroke-dashoffset:0;stroke-linecap:butt;stroke-linejoin:miter;stroke-miterlimit:4;stroke-opacity:1;stroke-width:.755906;stroke:#060000;vector-effect:none" d="m371.18074 372.52076c-6.57281 5.2847-16.39442 10.82607-26.22565 15.65649-9.50601 4.67061-18.25003 8.32119-21.57608 9.00319.14797.48661.27948.90625.31468 1.01531 1.21911 3.7775 2.82263 8.56289 8.65474 22.22763 5.11363 11.98132 11.27754 25.8751 12.69871 38.99373" id="path35956-7-2"/><path style="fill-opacity:1;fill:none;opacity:1;stroke-dasharray:none;stroke-dashoffset:0;stroke-linecap:butt;stroke-linejoin:miter;stroke-miterlimit:4;stroke-opacity:1;stroke-width:.755906;stroke:#040000;vector-effect:none" d="m225.3292 399.64739c.62013 1.39552 1.65907 3.01321 2.93031 4.54153 1.23419 1.48378 2.51735 2.66686 3.00118 2.96746.25996 3.15501 1.18957 10.63533 2.21067 20.15005 1.06175 9.89346 1.79019 20.67427-.11324 32.15116" id="path35958-1-3"/><path style="fill-opacity:1;fill:none;opacity:1;stroke-dasharray:none;stroke-dashoffset:0;stroke-linecap:butt;stroke-linejoin:miter;stroke-miterlimit:4;stroke-opacity:1;stroke-width:.755906;stroke:#060000;vector-effect:none" d="m327.97203 409.82758c9.15305-.75157 23.47634-1.25497 35.95219-2.22386 12.64203-.98181 22.80519-2.39252 26.56097-5.06883" id="path35960-5-76"/><path style="fill-opacity:1;fill:none;opacity:1;stroke-dasharray:none;stroke-dashoffset:0;stroke-linecap:butt;stroke-linejoin:miter;stroke-miterlimit:4;stroke-opacity:1;stroke-width:.755906;stroke:#000;vector-effect:none" d="m232.32413 417.91021c-2.55186 1.38699-5.12575 2.10825-7.48317 2.49357" id="path35962-7-10"/><path style="fill-opacity:1;fill:none;opacity:1;stroke-dasharray:none;stroke-dashoffset:0;stroke-linecap:butt;stroke-linejoin:miter;stroke-miterlimit:4;stroke-opacity:1;stroke-width:.755906;stroke:#000;vector-effect:none" d="m286.06959 445.4536c2.28503 4.01961 4.65793 9.33849 6.5581 13.98354" id="path35964-8-2"/><path style="fill-opacity:1;fill:none;opacity:1;stroke-dasharray:none;stroke-dashoffset:0;stroke-linecap:butt;stroke-linejoin:miter;stroke-miterlimit:4;stroke-opacity:1;stroke-width:.755906;stroke:#000;vector-effect:none" d="m232.50681 419.29503c-2.63446 1.4038-5.31294 2.12507-7.77857 2.5057" id="path35966-4-25"/><path style="fill-opacity:1;fill:none;opacity:1;stroke-dasharray:none;stroke-dashoffset:0;stroke-linecap:butt;stroke-linejoin:miter;stroke-miterlimit:4;stroke-opacity:1;stroke-width:.755906;stroke:#060000;vector-effect:none" d="m328.47431 411.16414c9.2546-.76421 23.82732-1.27137 36.39256-2.27331 12.72992-1.01507 22.82718-2.48773 26.19726-5.29486" id="path35968-3-4"/></g></svg>