<svg viewBox="0 0 560 1e3"><defs><filter style="color-interpolation-filters:sRGB" id="filter7295"><feGaussianBlur stdDeviation="1 1" result="blur" id="feGaussianBlur7293"/></filter><clipPath clipPathUnits="userSpaceOnUse" id="clipPath7299"><path style="fill-opacity:.47100178;fill:#00e0e8" id="path7301" d="m264.7 441.675c8-.5 25.7 5 28.8 11.9 2.6 5.6 1.2-1.9-2.8 3.3-2.4 1-6.2 2.7-10.9 4.6-10.6 4.3-12.7 4.7-16.5 7.5-4.1 3.1-7.1 6.7-8.7 8.7-1.3 1.6-3 3.9-4.8 6.8-.5.9-1 1.7-1.4 2.4-.4.8-.8 1.5-1.1 2.1-3.2 9.8-7.5 19.5-5.8 28.8v2.7c0 .9-.1 1.8-.2 2.7-2.5 4.9 4 3.8 5 8.2 1.1 5.4.0 9.8-.4 15.1-.2.8-.4 1.6-.7 2.4-2.4 7.5-5.9 10.8-5.9 10.8-.7.7-2.3 2.3-4.4 3.6-.7.4-1.5.8-2.3 1.1-12.3 3.9-17.8-10.2-20.5-19.3-.2-1-.5-2-.7-3-.7-4.1-.6-8.3 1.6-10.7.5-.6 1.1-.9 1.6-1.3s.9-.8 1.1-1.6c-4.2-13.4-.9-25.3.7-37.9.1-.9.3-1.8.4-2.7 1-6.1.9-7.7 3.4-13.5 1-2.2 3.9-10.8 11.9-18.9 13.9-14 24-13.3 32.6-13.8z"/></clipPath></defs><path d="m238.2 524.475c.2.4 1.2.8 2.3 1.2 8.3.8 8.3 13 6.5 20.7-.2.7-.3 1.4-.5 2-2.5 9.1-6.6 13-6.6 13-.8.8-3.6 3.6-7.2 5-.9.3-1.8.6-2.8.7-11.9-.4-17.2-11.6-18.7-21.6-.3-1-.5-2.1-.7-3.2-.8-4.4-.7-9.1 1.7-11.7.5-.6 1.1-1 1.7-1.4.5-.4 1-.9 1.2-1.7" id="path7-6"/><path d="m212.7 511.675c0-1.5.0-3.6.2-6.2.1-1.3.3-6.2 1.4-13.5.6-4.2 1.2-7.5 1.4-8.3 4.3-22.1 20.3-33.3 20.3-33.3 1.8-1.4 5.9-3.9 7.7-5.3 3.6-2.3 14.6-7.4 29.9-2.7 2.2.7 17.4 7.1 19.9 11.2 3.1 5.2-1.9-3.3-3.1-2.2-.5.4-1.3 1.1-2.4 2.4-1.3 1.7-1.8 3.2-2.1 3.9-1.2 2.7-4.3 3.6-8.9 5.4-5.8 2.3-9.4 3.8-13 6.5-2.6 2-4.4 4.2-8 8.6-3.1 3.9-4.9 6-6.6 9.6-.5 1.1-1.4 3.5-3.2 8.3-1.1 3-1.5 4.2-1.9 5.7-.8 2.6-1.2 4.8-1.5 6.4-1 3.9-3.4 11.2-9.9 17.2-3.2 2.9-7.3 6.8-11.4 5.7-7.1-1.9-8.7-18.2-8.8-19.4z" id="path9-0"/><path class="skin penis" d="m264.7 441.675c8-.5 25.7 5 28.8 11.9 2.6 5.6 1.2-1.9-2.8 3.3-2.4 1-6.2 2.7-10.9 4.6-10.6 4.3-12.7 4.7-16.5 7.5-4.1 3.1-7.1 6.7-8.7 8.7-1.3 1.6-3 3.9-4.8 6.8-.5.9-1 1.7-1.4 2.4-.4.8-.8 1.5-1.1 2.1-3.2 9.8-7.5 19.5-5.8 28.8v2.7c0 .9-.1 1.8-.2 2.7-2.5 4.9 4 3.8 5 8.2 1.1 5.4.0 9.8-.4 15.1-.2.8-.4 1.6-.7 2.4-2.4 7.5-5.9 10.8-5.9 10.8-.7.7-2.3 2.3-4.4 3.6-.7.4-1.5.8-2.3 1.1-12.3 3.9-17.8-10.2-20.5-19.3-.2-1-.5-2-.7-3-.7-4.1-.6-8.3 1.6-10.7.5-.6 1.1-.9 1.6-1.3s.9-.8 1.1-1.6c-4.2-13.4-.9-25.3.7-37.9.1-.9.3-1.8.4-2.7 1-6.1.9-7.7 3.4-13.5 1-2.2 3.9-10.8 11.9-18.9 13.9-14 24-13.3 32.6-13.8z" id="path11-6"/><g id="g7291" style="filter:url(#filter7295)" clip-path="url(#clipPath7299)"><path class="skin_highlight" id="path7046-2-8" d="m274.32498 442.61397c-27.16459.57618-52.24849 27.08979-59.30115 55.43913-28.84057-70.53612 34.62941-95.83786 59.30115-55.43913z"/><path class="skin_shade" d="m283.63862 461.3298c-32.63863-8.44533-61.6733 45.71506-36.71053 94.44277 5.21232-.25982 48.15488-86.16631 36.71053-94.44277z" id="path7048-5-1"/><path d="m202.58842 547.60384c-.64193-17.69667-1.84651-24.52146 4.95237-26.37633 4.20827-6.26805 17.70286 30.52791-4.95237 26.37633z" id="path7134-38" class="skin_highlight"/></g></svg>