<svg viewBox="0 0 560 1e3"><path d="m335.00959 159.09555c2.23007.62922 4.554.9456 7.13581.40236-.69904-21.07564-3.46485-44.75745-19.94453-61.994446l-7.53333 6.977596c8.33629 7.57276 17.11833 18.47689 20.34205 54.61449z" class="shadow" id="path1652"/><path d="m353.17437 157.04244c2.80396-.8563 4.75805-1.93834 6.16834-3.61016-6.35054-19.86851-17.78561-48.0931-40.83363-53.490486l-2.41915 9.979266c11.09471 1.71704 27.1822 12.48869 37.08444 47.12138z" class="shadow" id="path1655"/><path d="m363.27519 148.9099c1.84549-1.5621 3.28485-3.46264 4.42359-5.6137-7.71728-18.0911-33.6349-55.172374-56.96741-51.797876l1.39286 10.173396c10.98321-2.483677 36.64038 20.28538 51.15096 47.23818z" class="shadow" id="path1659"/><path id="path1668" class="hair" d="m335.00959 159.09555 7.13581.40236c-1.50008-21.23585-3.79989-44.82446-19.94453-61.994446l-7.53333 6.977596c8.33862 7.57237 18.50586 18.24563 20.34205 54.61449z"/><path d="m275.24861 162.7134c-3.09261.27012-4.47264-.31604-5.96676-.84516 6.71147-20.02075 9.85694-44.38608 28.74682-56.60431l4.40921 8.63415c-9.31307 5.08879-11.81915 16.60592-27.18927 48.81532z" class="shadow" id="path1665"/><path id="path1670" class="hair" d="m353.17437 157.04244 6.16834-3.61016c-6.89253-19.95884-17.88783-48.11014-40.83363-53.490486l-2.41915 9.979266c11.13491 1.69917 28.08547 12.08723 37.08444 47.12138z"/><path d="m263.27906 153.9847c-3.10014-.43568-4.25278-1.8451-5.76926-3.07261 7.28082-17.96689 30.61484-47.82982 53.16847-51.811066l.79031 9.662556c-10.56132 1.14237-32.86882 20.90427-48.18952 45.22112z" class="shadow" id="path1669"/><path id="path1674" class="hair" d="m363.27519 148.9099 4.42359-5.6137C358.991 125.53527 334.05702 88.126114 310.73137 91.498324l1.39286 10.173396c10.98623-2.485186 37.54552 19.83281 51.15096 47.23818z"/><path id="path1678" class="hair" d="m275.24861 162.7134-5.96676-.84516c7.46131-19.92702 9.95037-44.3744 28.74682-56.60431l4.40921 8.63415c-9.33121 5.07691-15.03734 14.49745-27.18927 48.81532z"/><path id="path1680" class="hair" d="m263.27906 153.9847-5.76926-3.07261c8.23545-17.64868 31.13155-47.65758 53.16847-51.811066l.79031 9.662556c-10.56132 1.14237-34.95073 19.86332-48.18952 45.22112z"/></svg>