<svg viewBox="0 0 560 1e3"><defs><filter style="color-interpolation-filters:sRGB" id="filter13580"><feGaussianBlur stdDeviation="1 1" result="blur" id="feGaussianBlur13578"/></filter><mask maskUnits="userSpaceOnUse" id="mask13584"><path style="fill-opacity:.43585241;fill:#00e0e8" id="path13586" d="m218.6 395.4c1.1.7 1.1 2.5 1.1 2.8.1 3.5 8.8 21.1 25.9 36 12.9 11.2 37.9 27.2 46.4 20.1 1.5-1.3 2-3 2.4-4.2 3.8-12.5-14.8-28.7-20.4-33.6-18-15.6-28.5-24.7-32.5-27.4-.5-.4-2.4-1.5-2.8-3.5-.3-1.5.5-2.3.7-3.5.4-3.5-5.4-7.5-9.7-9.3-3.3-1.4-10.7-4.6-15.6-1.1-7.7 5.6-2.8 22.8 1.1 23.5.9.4 2.3-.6 3.4.2z"/></mask></defs><path d="m218.8 395.4c1 .6 1 2.4 1 2.7.0 5.1 9.7 22.6 18.6 31.2 26.7 25.9 53 32.5 50.4 20.7-.4-1.8 2.2-2.8 2.6-3.8 3.5-11.1-13.2-27.9-31.6-43.3-15.5-12.9-15.8-12.3-19.4-14.6-.5-.4-1.3-.9-1.6-2.6-.3-1.3.9-2.8 1-3.9.6-4-4.9-7-10-9.6-3.9-2-11.7-4.4-16-1-9.2 7.3-2 27 2 24.8.8-.4 2-1.3 3-.6z" class="shadow" id="XMLID_882_"/><path d="m218.6 395.4c1.1.7 1.1 2.5 1.1 2.8.1 3.5 8.8 21.1 25.9 36 12.9 11.2 37.9 27.2 46.4 20.1 1.5-1.3 2-3 2.4-4.2 3.8-12.5-14.8-28.7-20.4-33.6-18-15.6-28.5-24.7-32.5-27.4-.5-.4-2.4-1.5-2.8-3.5-.3-1.5.5-2.3.7-3.5.4-3.5-5.4-7.5-9.7-9.3-3.3-1.4-10.7-4.6-15.6-1.1-7.7 5.6-2.8 22.8 1.1 23.5.9.4 2.3-.6 3.4.2z" class="skin penis" id="XMLID_883_"/><g id="g13576" style="filter:url(#filter13580)" mask="url(#mask13584)"><path class="skin_highlight" id="path7046-2-8-2-4" d="m285.05312 426.44453c-8.15033-.96953-35.92317-25.50353-42.78403-33.11829-8.11993-11.31216 36.7173-9.63684 42.78403 33.11829z"/><path class="skin_shade" d="m220.37904 401.44971c-16.60685-1.86396 28.88927 75.79776 61.33457 54.0664-8.11301-2.59858-50.20096-33.52056-61.33457-54.0664z" id="path7048-5-1-3-8"/><path d="m214.92449 371.36684c-3.96323-11.77091 28.922-5.62816 23.90819 9.31228 1.89987-2.11034-15.83004-11.12099-23.90819-9.31228z" id="path7134-38-2-8" class="skin_highlight"/><path id="path13470-2" d="m208.88994 379.58142c-8.85305-5.11127-.79508 28.69544 8.9246 16.48165-5.54031-6.09746-6.64111-9.93135-8.9246-16.48165z" class="skin_shade"/><path id="path18139" d="m220.75404 401.32471c-16.60685-1.86396 28.88927 75.79776 61.33457 54.0664-8.11301-2.59858-50.20096-33.52056-61.33457-54.0664z" class="skin_shade"/><path d="m285.05312 426.44453c-8.15033-.96953-35.92317-25.50353-42.78403-33.11829-8.11993-11.31216 36.7173-9.63684 42.78403 33.11829z" id="path18141" class="skin_highlight"/><path class="skin_highlight" id="path18143" d="m214.92449 371.36684c-3.96323-11.77091 28.922-5.62816 23.90819 9.31228 1.89987-2.11034-15.83004-11.12099-23.90819-9.31228z"/><path class="skin_shade" d="m208.88994 379.58142c-8.85305-5.11127-.79508 28.69544 8.9246 16.48165-5.54031-6.09746-6.64111-9.93135-8.9246-16.48165z" id="path18145"/></g></svg>